<?xml version="1.0" encoding="UTF-8" standalone="no"?>
<!DOCTYPE svg PUBLIC "-//W3C//DTD SVG 1.1//EN"
 "http://www.w3.org/Graphics/SVG/1.1/DTD/svg11.dtd">
<!-- Generated by graphviz version 14.1.2 (20260124.0452)
 -->
<!-- Title: unit_hierarchy Pages: 1 -->
<svg width="434pt" height="593pt"
 viewBox="0.00 0.00 434.00 593.00" xmlns="http://www.w3.org/2000/svg" xmlns:xlink="http://www.w3.org/1999/xlink">
<g id="graph0" class="graph" transform="scale(1 1) rotate(0) translate(4 588.5)">
<title>unit_hierarchy</title>
<polygon fill="#1a1a2e" stroke="none" points="-4,4 -4,-588.5 430.25,-588.5 430.25,4 -4,4"/>
<text xml:space="preserve" text-anchor="start" x="78.5" y="-566.3" font-family="Times,serif" font-weight="bold" font-size="16.00" fill="white">Ground Unit Organizational Hierarchy</text>
<g id="clust1" class="cluster">
<title>cluster_tier1</title>
<path fill="#252540" stroke="#95d5b2" stroke-width="2" d="M20,-446.5C20,-446.5 228,-446.5 228,-446.5 234,-446.5 240,-452.5 240,-458.5 240,-458.5 240,-537.75 240,-537.75 240,-543.75 234,-549.75 228,-549.75 228,-549.75 20,-549.75 20,-549.75 14,-549.75 8,-543.75 8,-537.75 8,-537.75 8,-458.5 8,-458.5 8,-452.5 14,-446.5 20,-446.5"/>
<text xml:space="preserve" text-anchor="start" x="81.25" y="-536.3" font-family="Times,serif" font-weight="bold" font-size="11.00" fill="#95d5b2">TIER 1: DESIGN</text>
</g>
<g id="clust2" class="cluster">
<title>cluster_tier2</title>
<path fill="#252540" stroke="#ffe66d" stroke-width="2" d="M20,-296.75C20,-296.75 228,-296.75 228,-296.75 234,-296.75 240,-302.75 240,-308.75 240,-308.75 240,-388 240,-388 240,-394 234,-400 228,-400 228,-400 20,-400 20,-400 14,-400 8,-394 8,-388 8,-388 8,-308.75 8,-308.75 8,-302.75 14,-296.75 20,-296.75"/>
<text xml:space="preserve" text-anchor="start" x="82.75" y="-386.55" font-family="Times,serif" font-weight="bold" font-size="11.00" fill="#ffe66d">TIER 2: GROUP</text>
</g>
<g id="clust3" class="cluster">
<title>cluster_tier3</title>
<path fill="#252540" stroke="#4ecdc4" stroke-width="2" d="M170,-147C170,-147 378,-147 378,-147 384,-147 390,-153 390,-159 390,-159 390,-238.25 390,-238.25 390,-244.25 384,-250.25 378,-250.25 378,-250.25 170,-250.25 170,-250.25 164,-250.25 158,-244.25 158,-238.25 158,-238.25 158,-159 158,-159 158,-153 164,-147 170,-147"/>
<text xml:space="preserve" text-anchor="start" x="229.38" y="-236.8" font-family="Times,serif" font-weight="bold" font-size="11.00" fill="#4ecdc4">TIER 3: DEPLOY</text>
</g>
<!-- guc -->
<g id="node1" class="node">
<title>guc</title>
<path fill="#2d2d44" stroke="#4ecdc4" stroke-width="2" d="M220,-520.25C220,-520.25 28,-520.25 28,-520.25 22,-520.25 16,-514.25 16,-508.25 16,-508.25 16,-466.5 16,-466.5 16,-460.5 22,-454.5 28,-454.5 28,-454.5 220,-454.5 220,-454.5 226,-454.5 232,-460.5 232,-466.5 232,-466.5 232,-508.25 232,-508.25 232,-514.25 226,-520.25 220,-520.25"/>
<text xml:space="preserve" text-anchor="start" x="71.5" y="-501.85" font-family="Helvetica,sans-Serif" font-weight="bold" font-size="12.00" fill="white">Ground Unit Class</text>
<text xml:space="preserve" text-anchor="start" x="49.38" y="-482" font-family="Helvetica,sans-Serif" font-size="10.00" fill="white">Individual soldier or vehicle design</text>
<text xml:space="preserve" text-anchor="start" x="53.88" y="-463.7" font-family="Helvetica,sans-Serif" font-size="9.00" fill="#95d5b2">Base Type + Components + Armor</text>
</g>
<!-- fe -->
<g id="node2" class="node">
<title>fe</title>
<path fill="#2d2d44" stroke="#4ecdc4" stroke-width="2" d="M220,-370.5C220,-370.5 28,-370.5 28,-370.5 22,-370.5 16,-364.5 16,-358.5 16,-358.5 16,-316.75 16,-316.75 16,-310.75 22,-304.75 28,-304.75 28,-304.75 220,-304.75 220,-304.75 226,-304.75 232,-310.75 232,-316.75 232,-316.75 232,-358.5 232,-358.5 232,-364.5 226,-370.5 220,-370.5"/>
<text xml:space="preserve" text-anchor="start" x="70" y="-352.1" font-family="Helvetica,sans-Serif" font-weight="bold" font-size="12.00" fill="white">Formation Element</text>
<text xml:space="preserve" text-anchor="start" x="58" y="-332.25" font-family="Helvetica,sans-Serif" font-size="10.00" fill="white">Group of identical unit classes</text>
<text xml:space="preserve" text-anchor="start" x="79.75" y="-313.95" font-family="Helvetica,sans-Serif" font-size="9.00" fill="#ffe66d">e.g., 120 Rifle Infantry</text>
</g>
<!-- guc&#45;&gt;fe -->
<g id="edge1" class="edge">
<title>guc&#45;&gt;fe</title>
<path fill="none" stroke="#4ecdc4" stroke-width="2" d="M124,-453.77C124,-453.77 124,-382.41 124,-382.41"/>
<polygon fill="#4ecdc4" stroke="#4ecdc4" stroke-width="2" points="126.8,-382.41 124,-374.41 121.2,-382.41 126.8,-382.41"/>
<text xml:space="preserve" text-anchor="start" x="124" y="-409.95" font-family="Times,serif" font-size="9.00" fill="#95d5b2"> &#160;quantity &#160;</text>
</g>
<!-- form -->
<g id="node3" class="node">
<title>form</title>
<path fill="#2d2d44" stroke="#4ecdc4" stroke-width="2" d="M370,-220.75C370,-220.75 178,-220.75 178,-220.75 172,-220.75 166,-214.75 166,-208.75 166,-208.75 166,-167 166,-167 166,-161 172,-155 178,-155 178,-155 370,-155 370,-155 376,-155 382,-161 382,-167 382,-167 382,-208.75 382,-208.75 382,-214.75 376,-220.75 370,-220.75"/>
<text xml:space="preserve" text-anchor="start" x="244.75" y="-202.35" font-family="Helvetica,sans-Serif" font-weight="bold" font-size="12.00" fill="white">Formation</text>
<text xml:space="preserve" text-anchor="start" x="193.38" y="-182.5" font-family="Helvetica,sans-Serif" font-size="10.00" fill="white">Multiple elements that move together</text>
<text xml:space="preserve" text-anchor="start" x="208.75" y="-164.2" font-family="Helvetica,sans-Serif" font-size="9.00" fill="#4ecdc4">Breaks into elements for combat</text>
</g>
<!-- fe&#45;&gt;form -->
<g id="edge2" class="edge">
<title>fe&#45;&gt;form</title>
<path fill="none" stroke="#4ecdc4" stroke-width="2" d="M199,-304.02C199,-304.02 199,-232.66 199,-232.66"/>
<polygon fill="#4ecdc4" stroke="#4ecdc4" stroke-width="2" points="201.8,-232.66 199,-224.66 196.2,-232.66 201.8,-232.66"/>
<text xml:space="preserve" text-anchor="start" x="190" y="-260.2" font-family="Times,serif" font-size="9.00" fill="#ffe66d"> &#160;combine &#160;</text>
</g>
<!-- example -->
<g id="node5" class="node">
<title>example</title>
<polygon fill="#1f1f35" stroke="#4ecdc4" stroke-width="2" points="344.5,-82 197.5,-82 197.5,0 350.5,0 350.5,-76 344.5,-82"/>
<polyline fill="none" stroke="#4ecdc4" stroke-width="2" points="344.5,-82 344.5,-76"/>
<polyline fill="none" stroke="#4ecdc4" stroke-width="2" points="350.5,-76 344.5,-76"/>
<text xml:space="preserve" text-anchor="start" x="209.5" y="-63.6" font-family="Helvetica,sans-Serif" font-weight="bold" font-size="12.00" fill="white">Example:</text>
<text xml:space="preserve" text-anchor="start" x="209.5" y="-44.7" font-family="Helvetica,sans-Serif" font-size="9.00" fill="white">Rifle Infantry (class)</text>
<text xml:space="preserve" text-anchor="start" x="209.5" y="-26.95" font-family="Helvetica,sans-Serif" font-size="9.00" fill="white">120 Rifle Infantry (element)</text>
<text xml:space="preserve" text-anchor="start" x="209.5" y="-9.2" font-family="Helvetica,sans-Serif" font-size="9.00" fill="white">1st Infantry Battalion (formation)</text>
</g>
<!-- form&#45;&gt;example -->
<!-- template -->
<g id="node4" class="node">
<title>template</title>
<path fill="#3d3d54" stroke="#4ecdc4" stroke-width="2" stroke-dasharray="5,2" d="M414.25,-361.62C414.25,-361.62 301.75,-361.62 301.75,-361.62 295.75,-361.62 289.75,-355.62 289.75,-349.62 289.75,-349.62 289.75,-325.62 289.75,-325.62 289.75,-319.62 295.75,-313.62 301.75,-313.62 301.75,-313.62 414.25,-313.62 414.25,-313.62 420.25,-313.62 426.25,-319.62 426.25,-325.62 426.25,-325.62 426.25,-349.62 426.25,-349.62 426.25,-355.62 420.25,-361.62 414.25,-361.62"/>
<text xml:space="preserve" text-anchor="start" x="301.75" y="-343.23" font-family="Helvetica,sans-Serif" font-weight="bold" font-size="12.00" fill="white">Formation Template</text>
<text xml:space="preserve" text-anchor="start" x="303.25" y="-323.38" font-family="Helvetica,sans-Serif" font-size="10.00" fill="white">Blueprint (like ship class)</text>
</g>
<!-- template&#45;&gt;form -->
<g id="edge3" class="edge">
<title>template&#45;&gt;form</title>
<path fill="none" stroke="#4ecdc4" stroke-width="2" stroke-dasharray="5,2" d="M335.88,-312.9C335.88,-312.9 335.88,-232.64 335.88,-232.64"/>
<polygon fill="#4ecdc4" stroke="#4ecdc4" stroke-width="2" points="338.68,-232.64 335.88,-224.64 333.08,-232.64 338.68,-232.64"/>
<text xml:space="preserve" text-anchor="start" x="358" y="-260.2" font-family="Times,serif" font-size="9.00" fill="white"> &#160;build from &#160;</text>
</g>
</g>
</svg>
