<?xml version="1.0" encoding="UTF-8" standalone="no"?>
<!DOCTYPE svg PUBLIC "-//W3C//DTD SVG 1.1//EN"
 "http://www.w3.org/Graphics/SVG/1.1/DTD/svg11.dtd">
<!-- Generated by graphviz version 14.1.2 (20260124.0452)
 -->
<!-- Title: GroundCombatPhase Pages: 1 -->
<svg width="1461pt" height="784pt"
 viewBox="0.00 0.00 1461.00 784.00" xmlns="http://www.w3.org/2000/svg" xmlns:xlink="http://www.w3.org/1999/xlink">
<g id="graph0" class="graph" transform="scale(1 1) rotate(0) translate(4 779.7)">
<title>GroundCombatPhase</title>
<polygon fill="#1a1a2e" stroke="none" points="-4,4 -4,-779.7 1457.2,-779.7 1457.2,4 -4,4"/>
<text xml:space="preserve" text-anchor="middle" x="726.6" y="-756.5" font-family="Helvetica Bold" font-size="16.00" fill="white">Ground Combat Phase Sequence (per 8&#45;hour period)</text>
<!-- trigger -->
<g id="node1" class="node">
<title>trigger</title>
<path fill="#3d2d44" stroke="#ff6b6b" stroke-width="2" d="M206.7,-751.2C206.7,-751.2 44.25,-751.2 44.25,-751.2 38.25,-751.2 32.25,-745.2 32.25,-739.2 32.25,-739.2 32.25,-717.6 32.25,-717.6 32.25,-711.6 38.25,-705.6 44.25,-705.6 44.25,-705.6 206.7,-705.6 206.7,-705.6 212.7,-705.6 218.7,-711.6 218.7,-717.6 218.7,-717.6 218.7,-739.2 218.7,-739.2 218.7,-745.2 212.7,-751.2 206.7,-751.2"/>
<text xml:space="preserve" text-anchor="middle" x="125.48" y="-729.95" font-family="Helvetica,sans-Serif" font-size="11.00" fill="white">Combat Triggered</text>
<text xml:space="preserve" text-anchor="middle" x="125.48" y="-717.95" font-family="Helvetica,sans-Serif" font-size="11.00" fill="white">(Hostile forces on same body)</text>
</g>
<!-- supply -->
<g id="node2" class="node">
<title>supply</title>
<path fill="#2d2d44" stroke="#95d5b2" stroke-width="2" d="M205.2,-647.6C205.2,-647.6 45.75,-647.6 45.75,-647.6 39.75,-647.6 33.75,-641.6 33.75,-635.6 33.75,-635.6 33.75,-602 33.75,-602 33.75,-596 39.75,-590 45.75,-590 45.75,-590 205.2,-590 205.2,-590 211.2,-590 217.2,-596 217.2,-602 217.2,-602 217.2,-635.6 217.2,-635.6 217.2,-641.6 211.2,-647.6 205.2,-647.6"/>
<text xml:space="preserve" text-anchor="middle" x="125.48" y="-626.35" font-family="Helvetica,sans-Serif" font-size="11.00" fill="white">1. Supply Check</text>
<text xml:space="preserve" text-anchor="middle" x="125.48" y="-614.35" font-family="Helvetica,sans-Serif" font-size="11.00" fill="white">Verify formation supply status</text>
<text xml:space="preserve" text-anchor="middle" x="125.48" y="-602.35" font-family="Helvetica,sans-Serif" font-size="11.00" fill="white">(Unsupplied = 25% fire rate)</text>
</g>
<!-- trigger&#45;&gt;supply -->
<g id="edge1" class="edge">
<title>trigger&#45;&gt;supply</title>
<path fill="none" stroke="#4ecdc4" stroke-width="2" d="M125.48,-704.62C125.48,-704.62 125.48,-659.43 125.48,-659.43"/>
<polygon fill="#4ecdc4" stroke="#4ecdc4" stroke-width="2" points="128.28,-659.43 125.48,-651.43 122.68,-659.43 128.28,-659.43"/>
</g>
<!-- target -->
<g id="node3" class="node">
<title>target</title>
<path fill="#2d2d44" stroke="#4ecdc4" stroke-width="2" d="M217.95,-532C217.95,-532 33,-532 33,-532 27,-532 21,-526 21,-520 21,-520 21,-486.4 21,-486.4 21,-480.4 27,-474.4 33,-474.4 33,-474.4 217.95,-474.4 217.95,-474.4 223.95,-474.4 229.95,-480.4 229.95,-486.4 229.95,-486.4 229.95,-520 229.95,-520 229.95,-526 223.95,-532 217.95,-532"/>
<text xml:space="preserve" text-anchor="middle" x="125.48" y="-510.75" font-family="Helvetica,sans-Serif" font-size="11.00" fill="white">2. Target Selection</text>
<text xml:space="preserve" text-anchor="middle" x="125.48" y="-498.75" font-family="Helvetica,sans-Serif" font-size="11.00" fill="white">Front&#45;line formations select targets</text>
<text xml:space="preserve" text-anchor="middle" x="125.48" y="-486.75" font-family="Helvetica,sans-Serif" font-size="11.00" fill="white">(Weighted by formation size)</text>
</g>
<!-- supply&#45;&gt;target -->
<g id="edge2" class="edge">
<title>supply&#45;&gt;target</title>
<path fill="none" stroke="#4ecdc4" stroke-width="2" d="M125.48,-589.03C125.48,-589.03 125.48,-543.9 125.48,-543.9"/>
<polygon fill="#4ecdc4" stroke="#4ecdc4" stroke-width="2" points="128.28,-543.9 125.48,-535.9 122.68,-543.9 128.28,-543.9"/>
</g>
<!-- bombardment -->
<g id="node4" class="node">
<title>bombardment</title>
<path fill="#2d2d44" stroke="#ff6b6b" stroke-width="2" d="M238.95,-416.4C238.95,-416.4 12,-416.4 12,-416.4 6,-416.4 0,-410.4 0,-404.4 0,-404.4 0,-358.8 0,-358.8 0,-352.8 6,-346.8 12,-346.8 12,-346.8 238.95,-346.8 238.95,-346.8 244.95,-346.8 250.95,-352.8 250.95,-358.8 250.95,-358.8 250.95,-404.4 250.95,-404.4 250.95,-410.4 244.95,-416.4 238.95,-416.4"/>
<text xml:space="preserve" text-anchor="middle" x="125.48" y="-395.15" font-family="Helvetica,sans-Serif" font-size="11.00" fill="white">3. Bombardment Phase</text>
<text xml:space="preserve" text-anchor="middle" x="125.48" y="-383.15" font-family="Helvetica,sans-Serif" font-size="11.00" fill="white">Support elements fire</text>
<text xml:space="preserve" text-anchor="middle" x="125.48" y="-371.15" font-family="Helvetica,sans-Serif" font-size="11.00" fill="white">Orbital bombardment ships fire</text>
<text xml:space="preserve" text-anchor="middle" x="125.48" y="-359.15" font-family="Helvetica,sans-Serif" font-size="11.00" fill="white">(v2.8.0+: Ground support fighters removed)</text>
</g>
<!-- target&#45;&gt;bombardment -->
<g id="edge3" class="edge">
<title>target&#45;&gt;bombardment</title>
<path fill="none" stroke="#4ecdc4" stroke-width="2" d="M125.48,-473.45C125.48,-473.45 125.48,-428.12 125.48,-428.12"/>
<polygon fill="#4ecdc4" stroke="#4ecdc4" stroke-width="2" points="128.28,-428.12 125.48,-420.12 122.68,-428.12 128.28,-428.12"/>
</g>
<!-- direct -->
<g id="node5" class="node">
<title>direct</title>
<path fill="#2d2d44" stroke="#ff6b6b" stroke-width="2" d="M268.7,-288.8C268.7,-288.8 118.25,-288.8 118.25,-288.8 112.25,-288.8 106.25,-282.8 106.25,-276.8 106.25,-276.8 106.25,-243.2 106.25,-243.2 106.25,-237.2 112.25,-231.2 118.25,-231.2 118.25,-231.2 268.7,-231.2 268.7,-231.2 274.7,-231.2 280.7,-237.2 280.7,-243.2 280.7,-243.2 280.7,-276.8 280.7,-276.8 280.7,-282.8 274.7,-288.8 268.7,-288.8"/>
<text xml:space="preserve" text-anchor="middle" x="193.48" y="-267.55" font-family="Helvetica,sans-Serif" font-size="11.00" fill="white">4. Direct Combat Phase</text>
<text xml:space="preserve" text-anchor="middle" x="193.48" y="-255.55" font-family="Helvetica,sans-Serif" font-size="11.00" fill="white">Front&#45;line elements engage</text>
<text xml:space="preserve" text-anchor="middle" x="193.48" y="-243.55" font-family="Helvetica,sans-Serif" font-size="11.00" fill="white">selected targets</text>
</g>
<!-- bombardment&#45;&gt;direct -->
<g id="edge4" class="edge">
<title>bombardment&#45;&gt;direct</title>
<path fill="none" stroke="#4ecdc4" stroke-width="2" d="M178.6,-346.1C178.6,-346.1 178.6,-300.62 178.6,-300.62"/>
<polygon fill="#4ecdc4" stroke="#4ecdc4" stroke-width="2" points="181.4,-300.62 178.6,-292.62 175.8,-300.62 181.4,-300.62"/>
</g>
<!-- aa -->
<g id="node6" class="node">
<title>aa</title>
<path fill="#2d2d44" stroke="#ffe66d" stroke-width="2" d="M574.08,-410.4C574.08,-410.4 392.88,-410.4 392.88,-410.4 386.88,-410.4 380.88,-404.4 380.88,-398.4 380.88,-398.4 380.88,-364.8 380.88,-364.8 380.88,-358.8 386.88,-352.8 392.88,-352.8 392.88,-352.8 574.08,-352.8 574.08,-352.8 580.08,-352.8 586.08,-358.8 586.08,-364.8 586.08,-364.8 586.08,-398.4 586.08,-398.4 586.08,-404.4 580.08,-410.4 574.08,-410.4"/>
<text xml:space="preserve" text-anchor="middle" x="483.48" y="-389.15" font-family="Helvetica,sans-Serif" font-size="11.00" fill="white">5. Anti&#45;Aircraft Phase</text>
<text xml:space="preserve" text-anchor="middle" x="483.48" y="-377.15" font-family="Helvetica,sans-Serif" font-size="11.00" fill="white">(v2.8.0+: Not applicable;</text>
<text xml:space="preserve" text-anchor="middle" x="483.48" y="-365.15" font-family="Helvetica,sans-Serif" font-size="11.00" fill="white">Ground support fighters removed)</text>
</g>
<!-- direct&#45;&gt;aa -->
<g id="edge5" class="edge">
<title>direct&#45;&gt;aa</title>
<path fill="none" stroke="#4ecdc4" stroke-width="2" d="M281.62,-260C332.35,-260 386.12,-260 386.12,-260 386.12,-260 386.12,-340.83 386.12,-340.83"/>
<polygon fill="#4ecdc4" stroke="#4ecdc4" stroke-width="2" points="383.33,-340.83 386.13,-348.83 388.93,-340.83 383.33,-340.83"/>
</g>
<!-- casualty -->
<g id="node7" class="node">
<title>casualty</title>
<path fill="#2d2d44" stroke="#4ecdc4" stroke-width="2" d="M563.58,-288.8C563.58,-288.8 403.38,-288.8 403.38,-288.8 397.38,-288.8 391.38,-282.8 391.38,-276.8 391.38,-276.8 391.38,-243.2 391.38,-243.2 391.38,-237.2 397.38,-231.2 403.38,-231.2 403.38,-231.2 563.58,-231.2 563.58,-231.2 569.58,-231.2 575.58,-237.2 575.58,-243.2 575.58,-243.2 575.58,-276.8 575.58,-276.8 575.58,-282.8 569.58,-288.8 563.58,-288.8"/>
<text xml:space="preserve" text-anchor="middle" x="483.48" y="-267.55" font-family="Helvetica,sans-Serif" font-size="11.00" fill="white">6. Casualty Assessment</text>
<text xml:space="preserve" text-anchor="middle" x="483.48" y="-255.55" font-family="Helvetica,sans-Serif" font-size="11.00" fill="white">AP check &#45;&gt; Damage check</text>
<text xml:space="preserve" text-anchor="middle" x="483.48" y="-243.55" font-family="Helvetica,sans-Serif" font-size="11.00" fill="white">Destroyed elements removed</text>
</g>
<!-- aa&#45;&gt;casualty -->
<g id="edge6" class="edge">
<title>aa&#45;&gt;casualty</title>
<path fill="none" stroke="#4ecdc4" stroke-width="2" d="M483.48,-351.85C483.48,-351.85 483.48,-300.47 483.48,-300.47"/>
<polygon fill="#4ecdc4" stroke="#4ecdc4" stroke-width="2" points="486.28,-300.47 483.48,-292.47 480.68,-300.47 486.28,-300.47"/>
</g>
<!-- morale -->
<g id="node8" class="node">
<title>morale</title>
<path fill="#2d2d44" stroke="#4ecdc4" stroke-width="2" d="M666.45,-173.2C666.45,-173.2 484.5,-173.2 484.5,-173.2 478.5,-173.2 472.5,-167.2 472.5,-161.2 472.5,-161.2 472.5,-127.6 472.5,-127.6 472.5,-121.6 478.5,-115.6 484.5,-115.6 484.5,-115.6 666.45,-115.6 666.45,-115.6 672.45,-115.6 678.45,-121.6 678.45,-127.6 678.45,-127.6 678.45,-161.2 678.45,-161.2 678.45,-167.2 672.45,-173.2 666.45,-173.2"/>
<text xml:space="preserve" text-anchor="middle" x="575.48" y="-151.95" font-family="Helvetica,sans-Serif" font-size="11.00" fill="white">7. Morale Update</text>
<text xml:space="preserve" text-anchor="middle" x="575.48" y="-139.95" font-family="Helvetica,sans-Serif" font-size="11.00" fill="white">Kills generate morale gains/losses</text>
<text xml:space="preserve" text-anchor="middle" x="575.48" y="-127.95" font-family="Helvetica,sans-Serif" font-size="11.00" fill="white">Morale recovery calculated</text>
</g>
<!-- casualty&#45;&gt;morale -->
<g id="edge7" class="edge">
<title>casualty&#45;&gt;morale</title>
<path fill="none" stroke="#4ecdc4" stroke-width="2" d="M524.04,-230.23C524.04,-230.23 524.04,-185.1 524.04,-185.1"/>
<polygon fill="#4ecdc4" stroke="#4ecdc4" stroke-width="2" points="526.84,-185.1 524.04,-177.1 521.24,-185.1 526.84,-185.1"/>
</g>
<!-- breakthrough -->
<g id="node9" class="node">
<title>breakthrough</title>
<path fill="#2d2d44" stroke="#ffe66d" stroke-width="2" d="M741.83,-57.6C741.83,-57.6 577.12,-57.6 577.12,-57.6 571.12,-57.6 565.12,-51.6 565.12,-45.6 565.12,-45.6 565.12,-12 565.12,-12 565.12,-6 571.12,0 577.12,0 577.12,0 741.83,0 741.83,0 747.83,0 753.83,-6 753.83,-12 753.83,-12 753.83,-45.6 753.83,-45.6 753.83,-51.6 747.83,-57.6 741.83,-57.6"/>
<text xml:space="preserve" text-anchor="middle" x="659.48" y="-36.35" font-family="Helvetica,sans-Serif" font-size="11.00" fill="white">8. Breakthrough Check</text>
<text xml:space="preserve" text-anchor="middle" x="659.48" y="-24.35" font-family="Helvetica,sans-Serif" font-size="11.00" fill="white">If potential &gt;= 30%:</text>
<text xml:space="preserve" text-anchor="middle" x="659.48" y="-12.35" font-family="Helvetica,sans-Serif" font-size="11.00" fill="white">Additional attacks (no support)</text>
</g>
<!-- morale&#45;&gt;breakthrough -->
<g id="edge8" class="edge">
<title>morale&#45;&gt;breakthrough</title>
<path fill="none" stroke="#4ecdc4" stroke-width="2" d="M621.79,-114.63C621.79,-114.63 621.79,-69.5 621.79,-69.5"/>
<polygon fill="#4ecdc4" stroke="#4ecdc4" stroke-width="2" points="624.59,-69.5 621.79,-61.5 618.99,-69.5 624.59,-69.5"/>
</g>
<!-- fortification -->
<g id="node10" class="node">
<title>fortification</title>
<path fill="#2d2d44" stroke="#95d5b2" stroke-width="2" d="M852.83,-410.4C852.83,-410.4 700.12,-410.4 700.12,-410.4 694.12,-410.4 688.12,-404.4 688.12,-398.4 688.12,-398.4 688.12,-364.8 688.12,-364.8 688.12,-358.8 694.12,-352.8 700.12,-352.8 700.12,-352.8 852.83,-352.8 852.83,-352.8 858.83,-352.8 864.83,-358.8 864.83,-364.8 864.83,-364.8 864.83,-398.4 864.83,-398.4 864.83,-404.4 858.83,-410.4 852.83,-410.4"/>
<text xml:space="preserve" text-anchor="middle" x="776.48" y="-389.15" font-family="Helvetica,sans-Serif" font-size="11.00" fill="white">9. Fortification Update</text>
<text xml:space="preserve" text-anchor="middle" x="776.48" y="-377.15" font-family="Helvetica,sans-Serif" font-size="11.00" fill="white">Self&#45;fortification progresses</text>
<text xml:space="preserve" text-anchor="middle" x="776.48" y="-365.15" font-family="Helvetica,sans-Serif" font-size="11.00" fill="white">Construction elements work</text>
</g>
<!-- breakthrough&#45;&gt;fortification -->
<g id="edge9" class="edge">
<title>breakthrough&#45;&gt;fortification</title>
<path fill="none" stroke="#4ecdc4" stroke-width="2" d="M754.67,-29C788.17,-29 817.64,-29 817.64,-29 817.64,-29 817.64,-340.81 817.64,-340.81"/>
<polygon fill="#4ecdc4" stroke="#4ecdc4" stroke-width="2" points="814.84,-340.81 817.64,-348.81 820.44,-340.81 814.84,-340.81"/>
</g>
<!-- next -->
<g id="node11" class="node">
<title>next</title>
<path fill="#3d2d44" stroke="#4ecdc4" stroke-width="2" d="M758.45,-282.8C758.45,-282.8 630.5,-282.8 630.5,-282.8 624.5,-282.8 618.5,-276.8 618.5,-270.8 618.5,-270.8 618.5,-249.2 618.5,-249.2 618.5,-243.2 624.5,-237.2 630.5,-237.2 630.5,-237.2 758.45,-237.2 758.45,-237.2 764.45,-237.2 770.45,-243.2 770.45,-249.2 770.45,-249.2 770.45,-270.8 770.45,-270.8 770.45,-276.8 764.45,-282.8 758.45,-282.8"/>
<text xml:space="preserve" text-anchor="middle" x="694.48" y="-261.55" font-family="Helvetica,sans-Serif" font-size="11.00" fill="white">Next 8&#45;Hour Period</text>
<text xml:space="preserve" text-anchor="middle" x="694.48" y="-249.55" font-family="Helvetica,sans-Serif" font-size="11.00" fill="white">(Repeat until resolved)</text>
</g>
<!-- fortification&#45;&gt;next -->
<g id="edge10" class="edge">
<title>fortification&#45;&gt;next</title>
<path fill="none" stroke="#4ecdc4" stroke-width="2" d="M729.29,-351.85C729.29,-351.85 729.29,-294.77 729.29,-294.77"/>
<polygon fill="#4ecdc4" stroke="#4ecdc4" stroke-width="2" points="732.09,-294.77 729.29,-286.77 726.49,-294.77 732.09,-294.77"/>
</g>
<!-- next&#45;&gt;supply -->
<g id="edge11" class="edge">
<title>next&#45;&gt;supply</title>
<path fill="none" stroke="#4ecdc4" stroke-width="2" stroke-dasharray="5,2" d="M653.31,-283.55C653.31,-363.42 653.31,-619 653.31,-619 653.31,-619 229.05,-619 229.05,-619"/>
<polygon fill="#4ecdc4" stroke="#4ecdc4" stroke-width="2" points="229.05,-616.2 221.05,-619 229.05,-621.8 229.05,-616.2"/>
</g>
<!-- note1 -->
<g id="node12" class="node">
<title>note1</title>
<polygon fill="#3d2d44" stroke="#ff6b6b" stroke-width="2" points="1043.58,-407.03 907.38,-407.03 907.38,-356.18 1049.58,-356.18 1049.58,-401.03 1043.58,-407.03"/>
<polyline fill="none" stroke="#ff6b6b" stroke-width="2" points="1043.58,-407.03 1043.58,-401.03"/>
<polyline fill="none" stroke="#ff6b6b" stroke-width="2" points="1049.58,-401.03 1043.58,-401.03"/>
<text xml:space="preserve" text-anchor="middle" x="978.48" y="-387.68" font-family="Helvetica,sans-Serif" font-size="9.00" fill="white">Attack Mode:</text>
<text xml:space="preserve" text-anchor="middle" x="978.48" y="-377.93" font-family="Helvetica,sans-Serif" font-size="9.00" fill="white">Forfeits fortification</text>
<text xml:space="preserve" text-anchor="middle" x="978.48" y="-368.18" font-family="Helvetica,sans-Serif" font-size="9.00" fill="white">Double morale from kills</text>
</g>
<!-- note2 -->
<g id="node13" class="node">
<title>note2</title>
<polygon fill="#3d2d44" stroke="#95d5b2" stroke-width="2" points="1238.45,-407.03 1092.5,-407.03 1092.5,-356.18 1244.45,-356.18 1244.45,-401.03 1238.45,-407.03"/>
<polyline fill="none" stroke="#95d5b2" stroke-width="2" points="1238.45,-407.03 1238.45,-401.03"/>
<polyline fill="none" stroke="#95d5b2" stroke-width="2" points="1244.45,-401.03 1238.45,-401.03"/>
<text xml:space="preserve" text-anchor="middle" x="1168.47" y="-387.68" font-family="Helvetica,sans-Serif" font-size="9.00" fill="white">Defence Mode:</text>
<text xml:space="preserve" text-anchor="middle" x="1168.47" y="-377.93" font-family="Helvetica,sans-Serif" font-size="9.00" fill="white">Retains fortification</text>
<text xml:space="preserve" text-anchor="middle" x="1168.47" y="-368.18" font-family="Helvetica,sans-Serif" font-size="9.00" fill="white">Can only engage front&#45;line</text>
</g>
<!-- note3 -->
<g id="node14" class="node">
<title>note3</title>
<polygon fill="#3d2d44" stroke="#ffe66d" stroke-width="2" points="1447.2,-407.03 1287.75,-407.03 1287.75,-356.18 1453.2,-356.18 1453.2,-401.03 1447.2,-407.03"/>
<polyline fill="none" stroke="#ffe66d" stroke-width="2" points="1447.2,-407.03 1447.2,-401.03"/>
<polyline fill="none" stroke="#ffe66d" stroke-width="2" points="1453.2,-401.03 1447.2,-401.03"/>
<text xml:space="preserve" text-anchor="middle" x="1370.47" y="-387.68" font-family="Helvetica,sans-Serif" font-size="9.00" fill="white">Support Position:</text>
<text xml:space="preserve" text-anchor="middle" x="1370.47" y="-377.93" font-family="Helvetica,sans-Serif" font-size="9.00" fill="white">Indirect fire only</text>
<text xml:space="preserve" text-anchor="middle" x="1370.47" y="-368.18" font-family="Helvetica,sans-Serif" font-size="9.00" fill="white">Same timing as bombardment</text>
</g>
</g>
</svg>
