<?xml version="1.0" encoding="UTF-8" standalone="no"?>
<!DOCTYPE svg PUBLIC "-//W3C//DTD SVG 1.1//EN"
 "http://www.w3.org/Graphics/SVG/1.1/DTD/svg11.dtd">
<!-- Generated by graphviz version 14.1.2 (20260124.0452)
 -->
<!-- Title: GroundCombatPhase Pages: 1 -->
<svg width="1407pt" height="784pt"
 viewBox="0.00 0.00 1407.00 784.00" xmlns="http://www.w3.org/2000/svg" xmlns:xlink="http://www.w3.org/1999/xlink">
<g id="graph0" class="graph" transform="scale(1 1) rotate(0) translate(4 779.7)">
<title>GroundCombatPhase</title>
<polygon fill="#1a1a2e" stroke="none" points="-4,4 -4,-779.7 1403.2,-779.7 1403.2,4 -4,4"/>
<text xml:space="preserve" text-anchor="middle" x="699.6" y="-756.5" font-family="Helvetica Bold" font-size="16.00" fill="white">Ground Combat Phase Sequence (per 8&#45;hour period)</text>
<!-- trigger -->
<g id="node1" class="node">
<title>trigger</title>
<path fill="#3d2d44" stroke="#ff6b6b" stroke-width="2" d="M185.7,-751.2C185.7,-751.2 23.25,-751.2 23.25,-751.2 17.25,-751.2 11.25,-745.2 11.25,-739.2 11.25,-739.2 11.25,-717.6 11.25,-717.6 11.25,-711.6 17.25,-705.6 23.25,-705.6 23.25,-705.6 185.7,-705.6 185.7,-705.6 191.7,-705.6 197.7,-711.6 197.7,-717.6 197.7,-717.6 197.7,-739.2 197.7,-739.2 197.7,-745.2 191.7,-751.2 185.7,-751.2"/>
<text xml:space="preserve" text-anchor="middle" x="104.47" y="-729.95" font-family="Helvetica,sans-Serif" font-size="11.00" fill="white">Combat Triggered</text>
<text xml:space="preserve" text-anchor="middle" x="104.47" y="-717.95" font-family="Helvetica,sans-Serif" font-size="11.00" fill="white">(Hostile forces on same body)</text>
</g>
<!-- supply -->
<g id="node2" class="node">
<title>supply</title>
<path fill="#2d2d44" stroke="#95d5b2" stroke-width="2" d="M184.2,-647.6C184.2,-647.6 24.75,-647.6 24.75,-647.6 18.75,-647.6 12.75,-641.6 12.75,-635.6 12.75,-635.6 12.75,-602 12.75,-602 12.75,-596 18.75,-590 24.75,-590 24.75,-590 184.2,-590 184.2,-590 190.2,-590 196.2,-596 196.2,-602 196.2,-602 196.2,-635.6 196.2,-635.6 196.2,-641.6 190.2,-647.6 184.2,-647.6"/>
<text xml:space="preserve" text-anchor="middle" x="104.47" y="-626.35" font-family="Helvetica,sans-Serif" font-size="11.00" fill="white">1. Supply Check</text>
<text xml:space="preserve" text-anchor="middle" x="104.47" y="-614.35" font-family="Helvetica,sans-Serif" font-size="11.00" fill="white">Verify formation supply status</text>
<text xml:space="preserve" text-anchor="middle" x="104.47" y="-602.35" font-family="Helvetica,sans-Serif" font-size="11.00" fill="white">(Unsupplied = 25% fire rate)</text>
</g>
<!-- trigger&#45;&gt;supply -->
<g id="edge1" class="edge">
<title>trigger&#45;&gt;supply</title>
<path fill="none" stroke="#4ecdc4" stroke-width="2" d="M104.47,-704.62C104.47,-704.62 104.47,-659.43 104.47,-659.43"/>
<polygon fill="#4ecdc4" stroke="#4ecdc4" stroke-width="2" points="107.28,-659.43 104.48,-651.43 101.68,-659.43 107.28,-659.43"/>
</g>
<!-- target -->
<g id="node3" class="node">
<title>target</title>
<path fill="#2d2d44" stroke="#4ecdc4" stroke-width="2" d="M196.95,-532C196.95,-532 12,-532 12,-532 6,-532 0,-526 0,-520 0,-520 0,-486.4 0,-486.4 0,-480.4 6,-474.4 12,-474.4 12,-474.4 196.95,-474.4 196.95,-474.4 202.95,-474.4 208.95,-480.4 208.95,-486.4 208.95,-486.4 208.95,-520 208.95,-520 208.95,-526 202.95,-532 196.95,-532"/>
<text xml:space="preserve" text-anchor="middle" x="104.47" y="-510.75" font-family="Helvetica,sans-Serif" font-size="11.00" fill="white">2. Target Selection</text>
<text xml:space="preserve" text-anchor="middle" x="104.47" y="-498.75" font-family="Helvetica,sans-Serif" font-size="11.00" fill="white">Front&#45;line formations select targets</text>
<text xml:space="preserve" text-anchor="middle" x="104.47" y="-486.75" font-family="Helvetica,sans-Serif" font-size="11.00" fill="white">(Weighted by formation size)</text>
</g>
<!-- supply&#45;&gt;target -->
<g id="edge2" class="edge">
<title>supply&#45;&gt;target</title>
<path fill="none" stroke="#4ecdc4" stroke-width="2" d="M104.47,-589.03C104.47,-589.03 104.47,-543.9 104.47,-543.9"/>
<polygon fill="#4ecdc4" stroke="#4ecdc4" stroke-width="2" points="107.28,-543.9 104.48,-535.9 101.68,-543.9 107.28,-543.9"/>
</g>
<!-- bombardment -->
<g id="node4" class="node">
<title>bombardment</title>
<path fill="#2d2d44" stroke="#ff6b6b" stroke-width="2" d="M187.57,-416.4C187.57,-416.4 21.38,-416.4 21.38,-416.4 15.38,-416.4 9.38,-410.4 9.38,-404.4 9.38,-404.4 9.38,-358.8 9.38,-358.8 9.38,-352.8 15.38,-346.8 21.38,-346.8 21.38,-346.8 187.57,-346.8 187.57,-346.8 193.57,-346.8 199.57,-352.8 199.57,-358.8 199.57,-358.8 199.57,-404.4 199.57,-404.4 199.57,-410.4 193.57,-416.4 187.57,-416.4"/>
<text xml:space="preserve" text-anchor="middle" x="104.47" y="-395.15" font-family="Helvetica,sans-Serif" font-size="11.00" fill="white">3. Bombardment Phase</text>
<text xml:space="preserve" text-anchor="middle" x="104.47" y="-383.15" font-family="Helvetica,sans-Serif" font-size="11.00" fill="white">Support elements fire</text>
<text xml:space="preserve" text-anchor="middle" x="104.47" y="-371.15" font-family="Helvetica,sans-Serif" font-size="11.00" fill="white">Ground support fighters fire</text>
<text xml:space="preserve" text-anchor="middle" x="104.47" y="-359.15" font-family="Helvetica,sans-Serif" font-size="11.00" fill="white">Orbital bombardment ships fire</text>
</g>
<!-- target&#45;&gt;bombardment -->
<g id="edge3" class="edge">
<title>target&#45;&gt;bombardment</title>
<path fill="none" stroke="#4ecdc4" stroke-width="2" d="M104.47,-473.45C104.47,-473.45 104.47,-428.12 104.47,-428.12"/>
<polygon fill="#4ecdc4" stroke="#4ecdc4" stroke-width="2" points="107.28,-428.12 104.48,-420.12 101.68,-428.12 107.28,-428.12"/>
</g>
<!-- direct -->
<g id="node5" class="node">
<title>direct</title>
<path fill="#2d2d44" stroke="#ff6b6b" stroke-width="2" d="M231.7,-288.8C231.7,-288.8 81.25,-288.8 81.25,-288.8 75.25,-288.8 69.25,-282.8 69.25,-276.8 69.25,-276.8 69.25,-243.2 69.25,-243.2 69.25,-237.2 75.25,-231.2 81.25,-231.2 81.25,-231.2 231.7,-231.2 231.7,-231.2 237.7,-231.2 243.7,-237.2 243.7,-243.2 243.7,-243.2 243.7,-276.8 243.7,-276.8 243.7,-282.8 237.7,-288.8 231.7,-288.8"/>
<text xml:space="preserve" text-anchor="middle" x="156.47" y="-267.55" font-family="Helvetica,sans-Serif" font-size="11.00" fill="white">4. Direct Combat Phase</text>
<text xml:space="preserve" text-anchor="middle" x="156.47" y="-255.55" font-family="Helvetica,sans-Serif" font-size="11.00" fill="white">Front&#45;line elements engage</text>
<text xml:space="preserve" text-anchor="middle" x="156.47" y="-243.55" font-family="Helvetica,sans-Serif" font-size="11.00" fill="white">selected targets</text>
</g>
<!-- bombardment&#45;&gt;direct -->
<g id="edge4" class="edge">
<title>bombardment&#45;&gt;direct</title>
<path fill="none" stroke="#4ecdc4" stroke-width="2" d="M134.41,-346.1C134.41,-346.1 134.41,-300.62 134.41,-300.62"/>
<polygon fill="#4ecdc4" stroke="#4ecdc4" stroke-width="2" points="137.21,-300.62 134.41,-292.62 131.61,-300.62 137.21,-300.62"/>
</g>
<!-- aa -->
<g id="node6" class="node">
<title>aa</title>
<path fill="#2d2d44" stroke="#ffe66d" stroke-width="2" d="M519.2,-410.4C519.2,-410.4 341.75,-410.4 341.75,-410.4 335.75,-410.4 329.75,-404.4 329.75,-398.4 329.75,-398.4 329.75,-364.8 329.75,-364.8 329.75,-358.8 335.75,-352.8 341.75,-352.8 341.75,-352.8 519.2,-352.8 519.2,-352.8 525.2,-352.8 531.2,-358.8 531.2,-364.8 531.2,-364.8 531.2,-398.4 531.2,-398.4 531.2,-404.4 525.2,-410.4 519.2,-410.4"/>
<text xml:space="preserve" text-anchor="middle" x="430.48" y="-389.15" font-family="Helvetica,sans-Serif" font-size="11.00" fill="white">5. Anti&#45;Aircraft Phase</text>
<text xml:space="preserve" text-anchor="middle" x="430.48" y="-377.15" font-family="Helvetica,sans-Serif" font-size="11.00" fill="white">AA elements engage attacking</text>
<text xml:space="preserve" text-anchor="middle" x="430.48" y="-365.15" font-family="Helvetica,sans-Serif" font-size="11.00" fill="white">aircraft (damage applied after all)</text>
</g>
<!-- direct&#45;&gt;aa -->
<g id="edge5" class="edge">
<title>direct&#45;&gt;aa</title>
<path fill="none" stroke="#4ecdc4" stroke-width="2" d="M244.49,-260C289.14,-260 334.06,-260 334.06,-260 334.06,-260 334.06,-340.83 334.06,-340.83"/>
<polygon fill="#4ecdc4" stroke="#4ecdc4" stroke-width="2" points="331.26,-340.83 334.06,-348.83 336.86,-340.83 331.26,-340.83"/>
</g>
<!-- casualty -->
<g id="node7" class="node">
<title>casualty</title>
<path fill="#2d2d44" stroke="#4ecdc4" stroke-width="2" d="M510.58,-288.8C510.58,-288.8 350.38,-288.8 350.38,-288.8 344.38,-288.8 338.38,-282.8 338.38,-276.8 338.38,-276.8 338.38,-243.2 338.38,-243.2 338.38,-237.2 344.38,-231.2 350.38,-231.2 350.38,-231.2 510.58,-231.2 510.58,-231.2 516.58,-231.2 522.58,-237.2 522.58,-243.2 522.58,-243.2 522.58,-276.8 522.58,-276.8 522.58,-282.8 516.58,-288.8 510.58,-288.8"/>
<text xml:space="preserve" text-anchor="middle" x="430.48" y="-267.55" font-family="Helvetica,sans-Serif" font-size="11.00" fill="white">6. Casualty Assessment</text>
<text xml:space="preserve" text-anchor="middle" x="430.48" y="-255.55" font-family="Helvetica,sans-Serif" font-size="11.00" fill="white">AP check &#45;&gt; Damage check</text>
<text xml:space="preserve" text-anchor="middle" x="430.48" y="-243.55" font-family="Helvetica,sans-Serif" font-size="11.00" fill="white">Destroyed elements removed</text>
</g>
<!-- aa&#45;&gt;casualty -->
<g id="edge6" class="edge">
<title>aa&#45;&gt;casualty</title>
<path fill="none" stroke="#4ecdc4" stroke-width="2" d="M430.48,-351.85C430.48,-351.85 430.48,-300.47 430.48,-300.47"/>
<polygon fill="#4ecdc4" stroke="#4ecdc4" stroke-width="2" points="433.28,-300.47 430.48,-292.47 427.68,-300.47 433.28,-300.47"/>
</g>
<!-- morale -->
<g id="node8" class="node">
<title>morale</title>
<path fill="#2d2d44" stroke="#4ecdc4" stroke-width="2" d="M613.45,-173.2C613.45,-173.2 431.5,-173.2 431.5,-173.2 425.5,-173.2 419.5,-167.2 419.5,-161.2 419.5,-161.2 419.5,-127.6 419.5,-127.6 419.5,-121.6 425.5,-115.6 431.5,-115.6 431.5,-115.6 613.45,-115.6 613.45,-115.6 619.45,-115.6 625.45,-121.6 625.45,-127.6 625.45,-127.6 625.45,-161.2 625.45,-161.2 625.45,-167.2 619.45,-173.2 613.45,-173.2"/>
<text xml:space="preserve" text-anchor="middle" x="522.48" y="-151.95" font-family="Helvetica,sans-Serif" font-size="11.00" fill="white">7. Morale Update</text>
<text xml:space="preserve" text-anchor="middle" x="522.48" y="-139.95" font-family="Helvetica,sans-Serif" font-size="11.00" fill="white">Kills generate morale gains/losses</text>
<text xml:space="preserve" text-anchor="middle" x="522.48" y="-127.95" font-family="Helvetica,sans-Serif" font-size="11.00" fill="white">Morale recovery calculated</text>
</g>
<!-- casualty&#45;&gt;morale -->
<g id="edge7" class="edge">
<title>casualty&#45;&gt;morale</title>
<path fill="none" stroke="#4ecdc4" stroke-width="2" d="M471.04,-230.23C471.04,-230.23 471.04,-185.1 471.04,-185.1"/>
<polygon fill="#4ecdc4" stroke="#4ecdc4" stroke-width="2" points="473.84,-185.1 471.04,-177.1 468.24,-185.1 473.84,-185.1"/>
</g>
<!-- breakthrough -->
<g id="node9" class="node">
<title>breakthrough</title>
<path fill="#2d2d44" stroke="#ffe66d" stroke-width="2" d="M688.83,-57.6C688.83,-57.6 524.12,-57.6 524.12,-57.6 518.12,-57.6 512.12,-51.6 512.12,-45.6 512.12,-45.6 512.12,-12 512.12,-12 512.12,-6 518.12,0 524.12,0 524.12,0 688.83,0 688.83,0 694.83,0 700.83,-6 700.83,-12 700.83,-12 700.83,-45.6 700.83,-45.6 700.83,-51.6 694.83,-57.6 688.83,-57.6"/>
<text xml:space="preserve" text-anchor="middle" x="606.48" y="-36.35" font-family="Helvetica,sans-Serif" font-size="11.00" fill="white">8. Breakthrough Check</text>
<text xml:space="preserve" text-anchor="middle" x="606.48" y="-24.35" font-family="Helvetica,sans-Serif" font-size="11.00" fill="white">If potential &gt;= 30%:</text>
<text xml:space="preserve" text-anchor="middle" x="606.48" y="-12.35" font-family="Helvetica,sans-Serif" font-size="11.00" fill="white">Additional attacks (no support)</text>
</g>
<!-- morale&#45;&gt;breakthrough -->
<g id="edge8" class="edge">
<title>morale&#45;&gt;breakthrough</title>
<path fill="none" stroke="#4ecdc4" stroke-width="2" d="M568.79,-114.63C568.79,-114.63 568.79,-69.5 568.79,-69.5"/>
<polygon fill="#4ecdc4" stroke="#4ecdc4" stroke-width="2" points="571.59,-69.5 568.79,-61.5 565.99,-69.5 571.59,-69.5"/>
</g>
<!-- fortification -->
<g id="node10" class="node">
<title>fortification</title>
<path fill="#2d2d44" stroke="#95d5b2" stroke-width="2" d="M798.83,-410.4C798.83,-410.4 646.12,-410.4 646.12,-410.4 640.12,-410.4 634.12,-404.4 634.12,-398.4 634.12,-398.4 634.12,-364.8 634.12,-364.8 634.12,-358.8 640.12,-352.8 646.12,-352.8 646.12,-352.8 798.83,-352.8 798.83,-352.8 804.83,-352.8 810.83,-358.8 810.83,-364.8 810.83,-364.8 810.83,-398.4 810.83,-398.4 810.83,-404.4 804.83,-410.4 798.83,-410.4"/>
<text xml:space="preserve" text-anchor="middle" x="722.48" y="-389.15" font-family="Helvetica,sans-Serif" font-size="11.00" fill="white">9. Fortification Update</text>
<text xml:space="preserve" text-anchor="middle" x="722.48" y="-377.15" font-family="Helvetica,sans-Serif" font-size="11.00" fill="white">Self&#45;fortification progresses</text>
<text xml:space="preserve" text-anchor="middle" x="722.48" y="-365.15" font-family="Helvetica,sans-Serif" font-size="11.00" fill="white">Construction elements work</text>
</g>
<!-- breakthrough&#45;&gt;fortification -->
<g id="edge9" class="edge">
<title>breakthrough&#45;&gt;fortification</title>
<path fill="none" stroke="#4ecdc4" stroke-width="2" d="M701.37,-29C734.76,-29 764.14,-29 764.14,-29 764.14,-29 764.14,-340.81 764.14,-340.81"/>
<polygon fill="#4ecdc4" stroke="#4ecdc4" stroke-width="2" points="761.34,-340.81 764.14,-348.81 766.94,-340.81 761.34,-340.81"/>
</g>
<!-- next -->
<g id="node11" class="node">
<title>next</title>
<path fill="#3d2d44" stroke="#4ecdc4" stroke-width="2" d="M705.45,-282.8C705.45,-282.8 577.5,-282.8 577.5,-282.8 571.5,-282.8 565.5,-276.8 565.5,-270.8 565.5,-270.8 565.5,-249.2 565.5,-249.2 565.5,-243.2 571.5,-237.2 577.5,-237.2 577.5,-237.2 705.45,-237.2 705.45,-237.2 711.45,-237.2 717.45,-243.2 717.45,-249.2 717.45,-249.2 717.45,-270.8 717.45,-270.8 717.45,-276.8 711.45,-282.8 705.45,-282.8"/>
<text xml:space="preserve" text-anchor="middle" x="641.48" y="-261.55" font-family="Helvetica,sans-Serif" font-size="11.00" fill="white">Next 8&#45;Hour Period</text>
<text xml:space="preserve" text-anchor="middle" x="641.48" y="-249.55" font-family="Helvetica,sans-Serif" font-size="11.00" fill="white">(Repeat until resolved)</text>
</g>
<!-- fortification&#45;&gt;next -->
<g id="edge10" class="edge">
<title>fortification&#45;&gt;next</title>
<path fill="none" stroke="#4ecdc4" stroke-width="2" d="M675.79,-351.85C675.79,-351.85 675.79,-294.77 675.79,-294.77"/>
<polygon fill="#4ecdc4" stroke="#4ecdc4" stroke-width="2" points="678.59,-294.77 675.79,-286.77 672.99,-294.77 678.59,-294.77"/>
</g>
<!-- next&#45;&gt;supply -->
<g id="edge11" class="edge">
<title>next&#45;&gt;supply</title>
<path fill="none" stroke="#4ecdc4" stroke-width="2" stroke-dasharray="5,2" d="M599.81,-283.55C599.81,-363.42 599.81,-619 599.81,-619 599.81,-619 208.09,-619 208.09,-619"/>
<polygon fill="#4ecdc4" stroke="#4ecdc4" stroke-width="2" points="208.09,-616.2 200.09,-619 208.09,-621.8 208.09,-616.2"/>
</g>
<!-- note1 -->
<g id="node12" class="node">
<title>note1</title>
<polygon fill="#3d2d44" stroke="#ff6b6b" stroke-width="2" points="989.58,-407.03 853.38,-407.03 853.38,-356.18 995.58,-356.18 995.58,-401.03 989.58,-407.03"/>
<polyline fill="none" stroke="#ff6b6b" stroke-width="2" points="989.58,-407.03 989.58,-401.03"/>
<polyline fill="none" stroke="#ff6b6b" stroke-width="2" points="995.58,-401.03 989.58,-401.03"/>
<text xml:space="preserve" text-anchor="middle" x="924.48" y="-387.68" font-family="Helvetica,sans-Serif" font-size="9.00" fill="white">Attack Mode:</text>
<text xml:space="preserve" text-anchor="middle" x="924.48" y="-377.93" font-family="Helvetica,sans-Serif" font-size="9.00" fill="white">Forfeits fortification</text>
<text xml:space="preserve" text-anchor="middle" x="924.48" y="-368.18" font-family="Helvetica,sans-Serif" font-size="9.00" fill="white">Double morale from kills</text>
</g>
<!-- note2 -->
<g id="node13" class="node">
<title>note2</title>
<polygon fill="#3d2d44" stroke="#95d5b2" stroke-width="2" points="1184.45,-407.03 1038.5,-407.03 1038.5,-356.18 1190.45,-356.18 1190.45,-401.03 1184.45,-407.03"/>
<polyline fill="none" stroke="#95d5b2" stroke-width="2" points="1184.45,-407.03 1184.45,-401.03"/>
<polyline fill="none" stroke="#95d5b2" stroke-width="2" points="1190.45,-401.03 1184.45,-401.03"/>
<text xml:space="preserve" text-anchor="middle" x="1114.47" y="-387.68" font-family="Helvetica,sans-Serif" font-size="9.00" fill="white">Defence Mode:</text>
<text xml:space="preserve" text-anchor="middle" x="1114.47" y="-377.93" font-family="Helvetica,sans-Serif" font-size="9.00" fill="white">Retains fortification</text>
<text xml:space="preserve" text-anchor="middle" x="1114.47" y="-368.18" font-family="Helvetica,sans-Serif" font-size="9.00" fill="white">Can only engage front&#45;line</text>
</g>
<!-- note3 -->
<g id="node14" class="node">
<title>note3</title>
<polygon fill="#3d2d44" stroke="#ffe66d" stroke-width="2" points="1393.2,-407.03 1233.75,-407.03 1233.75,-356.18 1399.2,-356.18 1399.2,-401.03 1393.2,-407.03"/>
<polyline fill="none" stroke="#ffe66d" stroke-width="2" points="1393.2,-407.03 1393.2,-401.03"/>
<polyline fill="none" stroke="#ffe66d" stroke-width="2" points="1399.2,-401.03 1393.2,-401.03"/>
<text xml:space="preserve" text-anchor="middle" x="1316.47" y="-387.68" font-family="Helvetica,sans-Serif" font-size="9.00" fill="white">Support Position:</text>
<text xml:space="preserve" text-anchor="middle" x="1316.47" y="-377.93" font-family="Helvetica,sans-Serif" font-size="9.00" fill="white">Indirect fire only</text>
<text xml:space="preserve" text-anchor="middle" x="1316.47" y="-368.18" font-family="Helvetica,sans-Serif" font-size="9.00" fill="white">Same timing as bombardment</text>
</g>
</g>
</svg>
