<?xml version="1.0" encoding="UTF-8" standalone="no"?>
<!DOCTYPE svg PUBLIC "-//W3C//DTD SVG 1.1//EN"
 "http://www.w3.org/Graphics/SVG/1.1/DTD/svg11.dtd">
<!-- Generated by graphviz version 14.1.2 (20260124.0452)
 -->
<!-- Title: CombatPhaseSequence Pages: 1 -->
<svg width="615pt" height="745pt"
 viewBox="0.00 0.00 615.00 745.00" xmlns="http://www.w3.org/2000/svg" xmlns:xlink="http://www.w3.org/1999/xlink">
<g id="graph0" class="graph" transform="scale(1 1) rotate(0) translate(36 709.25)">
<title>CombatPhaseSequence</title>
<polygon fill="#1a1a2e" stroke="none" points="-36,36 -36,-709.25 579.27,-709.25 579.27,36 -36,36"/>
<text xml:space="preserve" text-anchor="middle" x="271.63" y="-654.05" font-family="Helvetica,sans-Serif" font-size="16.00" fill="white">Combat Phase Sequence (per increment)</text>
<!-- start -->
<g id="node1" class="node">
<title>start</title>
<ellipse fill="#1a1a2e" stroke="#95d5b2" cx="100.8" cy="-630.75" rx="54.27" ry="18"/>
<text xml:space="preserve" text-anchor="middle" x="100.8" y="-626.3" font-family="Helvetica,sans-Serif" font-size="11.00" fill="white">Increment Start</text>
</g>
<!-- phase1 -->
<g id="node2" class="node">
<title>phase1</title>
<path fill="#2d2d44" stroke="#4ecdc4" d="M189.6,-575.75C189.6,-575.75 12,-575.75 12,-575.75 6,-575.75 0,-569.75 0,-563.75 0,-563.75 0,-536.25 0,-536.25 0,-530.25 6,-524.25 12,-524.25 12,-524.25 189.6,-524.25 189.6,-524.25 195.6,-524.25 201.6,-530.25 201.6,-536.25 201.6,-536.25 201.6,-563.75 201.6,-563.75 201.6,-569.75 195.6,-575.75 189.6,-575.75"/>
<text xml:space="preserve" text-anchor="start" x="50.18" y="-560.3" font-family="Helvetica,sans-Serif" font-weight="bold" font-size="11.00" fill="white">1. Movement Phase</text>
<text xml:space="preserve" text-anchor="start" x="35.18" y="-545.2" font-family="Helvetica,sans-Serif" font-size="9.00" fill="#888888">Ships execute movement orders</text>
<text xml:space="preserve" text-anchor="start" x="25.43" y="-531.45" font-family="Helvetica,sans-Serif" font-size="9.00" fill="#ffe66d">PB &amp; Ranged Defensive Fire engage</text>
</g>
<!-- start&#45;&gt;phase1 -->
<g id="edge1" class="edge">
<title>start&#45;&gt;phase1</title>
<path fill="none" stroke="#4ecdc4" d="M100.8,-612.27C100.8,-604.4 100.8,-594.82 100.8,-585.6"/>
<polygon fill="#4ecdc4" stroke="#4ecdc4" points="103.6,-585.71 100.8,-577.71 98,-585.71 103.6,-585.71"/>
</g>
<!-- phase2 -->
<g id="node3" class="node">
<title>phase2</title>
<path fill="#2d2d44" stroke="#4ecdc4" d="M189.6,-487.25C189.6,-487.25 12,-487.25 12,-487.25 6,-487.25 0,-481.25 0,-475.25 0,-475.25 0,-447.75 0,-447.75 0,-441.75 6,-435.75 12,-435.75 12,-435.75 189.6,-435.75 189.6,-435.75 195.6,-435.75 201.6,-441.75 201.6,-447.75 201.6,-447.75 201.6,-475.25 201.6,-475.25 201.6,-481.25 195.6,-487.25 189.6,-487.25"/>
<text xml:space="preserve" text-anchor="start" x="37.8" y="-471.8" font-family="Helvetica,sans-Serif" font-weight="bold" font-size="11.00" fill="white">2. Naval Combat (Beam)</text>
<text xml:space="preserve" text-anchor="start" x="41.55" y="-456.7" font-family="Helvetica,sans-Serif" font-size="9.00" fill="#888888">Beam weapons fire at targets</text>
<text xml:space="preserve" text-anchor="start" x="55.43" y="-442.95" font-family="Helvetica,sans-Serif" font-size="9.00" fill="#ffe66d">Area Defence PD fires</text>
</g>
<!-- phase1&#45;&gt;phase2 -->
<g id="edge2" class="edge">
<title>phase1&#45;&gt;phase2</title>
<path fill="none" stroke="#4ecdc4" d="M100.8,-523.98C100.8,-515.55 100.8,-505.99 100.8,-496.97"/>
<polygon fill="#4ecdc4" stroke="#4ecdc4" points="103.6,-496.98 100.8,-488.98 98,-496.98 103.6,-496.98"/>
</g>
<!-- phase3 -->
<g id="node4" class="node">
<title>phase3</title>
<path fill="#2d2d44" stroke="#4ecdc4" d="M189.6,-398.75C189.6,-398.75 12,-398.75 12,-398.75 6,-398.75 0,-392.75 0,-386.75 0,-386.75 0,-359.25 0,-359.25 0,-353.25 6,-347.25 12,-347.25 12,-347.25 189.6,-347.25 189.6,-347.25 195.6,-347.25 201.6,-353.25 201.6,-359.25 201.6,-359.25 201.6,-386.75 201.6,-386.75 201.6,-392.75 195.6,-398.75 189.6,-398.75"/>
<text xml:space="preserve" text-anchor="start" x="55.8" y="-383.3" font-family="Helvetica,sans-Serif" font-weight="bold" font-size="11.00" fill="white">3. Missile Launch</text>
<text xml:space="preserve" text-anchor="start" x="36.3" y="-368.2" font-family="Helvetica,sans-Serif" font-size="9.00" fill="#888888">MFCs launch missiles at targets</text>
<text xml:space="preserve" text-anchor="start" x="43.43" y="-354.45" font-family="Helvetica,sans-Serif" font-size="9.00" fill="#888888">Post&#45;launch detection check</text>
</g>
<!-- phase2&#45;&gt;phase3 -->
<g id="edge3" class="edge">
<title>phase2&#45;&gt;phase3</title>
<path fill="none" stroke="#4ecdc4" d="M100.8,-435.48C100.8,-427.05 100.8,-417.49 100.8,-408.47"/>
<polygon fill="#4ecdc4" stroke="#4ecdc4" points="103.6,-408.48 100.8,-400.48 98,-408.48 103.6,-408.48"/>
</g>
<!-- phase4 -->
<g id="node5" class="node">
<title>phase4</title>
<path fill="#2d2d44" stroke="#4ecdc4" d="M189.6,-301.5C189.6,-301.5 12,-301.5 12,-301.5 6,-301.5 0,-295.5 0,-289.5 0,-289.5 0,-262 0,-262 0,-256 6,-250 12,-250 12,-250 189.6,-250 189.6,-250 195.6,-250 201.6,-256 201.6,-262 201.6,-262 201.6,-289.5 201.6,-289.5 201.6,-295.5 195.6,-301.5 189.6,-301.5"/>
<text xml:space="preserve" text-anchor="start" x="48.3" y="-286.05" font-family="Helvetica,sans-Serif" font-weight="bold" font-size="11.00" fill="white">4. Missile Movement</text>
<text xml:space="preserve" text-anchor="start" x="23.18" y="-270.95" font-family="Helvetica,sans-Serif" font-size="9.00" fill="#888888">In&#45;flight missiles move &amp; consume fuel</text>
<text xml:space="preserve" text-anchor="start" x="32.18" y="-257.2" font-family="Helvetica,sans-Serif" font-size="9.00" fill="#888888">Missiles reaching targets proceed</text>
</g>
<!-- phase3&#45;&gt;phase4 -->
<g id="edge4" class="edge">
<title>phase3&#45;&gt;phase4</title>
<path fill="none" stroke="#4ecdc4" d="M100.8,-346.97C100.8,-336.01 100.8,-322.98 100.8,-311.13"/>
<polygon fill="#4ecdc4" stroke="#4ecdc4" points="103.6,-311.45 100.8,-303.45 98,-311.45 103.6,-311.45"/>
</g>
<!-- warning -->
<g id="node9" class="node">
<title>warning</title>
<polygon fill="#2d2d44" stroke="#ff6b6b" points="440,-398.75 287.6,-398.75 287.6,-347.25 446,-347.25 446,-392.75 440,-398.75"/>
<polyline fill="none" stroke="#ff6b6b" points="440,-398.75 440,-392.75"/>
<polyline fill="none" stroke="#ff6b6b" points="446,-392.75 440,-392.75"/>
<text xml:space="preserve" text-anchor="start" x="342.8" y="-383.3" font-family="Helvetica,sans-Serif" font-weight="bold" font-size="11.00" fill="#ff6b6b">Warning:</text>
<text xml:space="preserve" text-anchor="start" x="305.68" y="-368.2" font-family="Helvetica,sans-Serif" font-size="9.00" fill="#888888">Use 30 sec or less increments</text>
<text xml:space="preserve" text-anchor="start" x="313.18" y="-354.45" font-family="Helvetica,sans-Serif" font-size="9.00" fill="#888888">to ensure PD engagement</text>
</g>
<!-- phase3&#45;&gt;warning -->
<!-- phase5 -->
<g id="node6" class="node">
<title>phase5</title>
<path fill="#2d2d44" stroke="#4ecdc4" d="M189.6,-213C189.6,-213 12,-213 12,-213 6,-213 0,-207 0,-201 0,-201 0,-173.5 0,-173.5 0,-167.5 6,-161.5 12,-161.5 12,-161.5 189.6,-161.5 189.6,-161.5 195.6,-161.5 201.6,-167.5 201.6,-173.5 201.6,-173.5 201.6,-201 201.6,-201 201.6,-207 195.6,-213 189.6,-213"/>
<text xml:space="preserve" text-anchor="start" x="28.05" y="-197.55" font-family="Helvetica,sans-Serif" font-weight="bold" font-size="11.00" fill="white">5. Point Defense Resolution</text>
<text xml:space="preserve" text-anchor="start" x="32.55" y="-182.45" font-family="Helvetica,sans-Serif" font-size="9.00" fill="#ffe66d">CIWS engages incoming missiles</text>
<text xml:space="preserve" text-anchor="start" x="45.68" y="-168.7" font-family="Helvetica,sans-Serif" font-size="9.00" fill="#888888">(Final Defensive Fire layer)</text>
</g>
<!-- phase4&#45;&gt;phase5 -->
<g id="edge5" class="edge">
<title>phase4&#45;&gt;phase5</title>
<path fill="none" stroke="#4ecdc4" d="M100.8,-249.73C100.8,-241.3 100.8,-231.74 100.8,-222.72"/>
<polygon fill="#4ecdc4" stroke="#4ecdc4" points="103.6,-222.73 100.8,-214.73 98,-222.73 103.6,-222.73"/>
</g>
<!-- phase6 -->
<g id="node7" class="node">
<title>phase6</title>
<path fill="#2d2d44" stroke="#4ecdc4" d="M189.6,-124.5C189.6,-124.5 12,-124.5 12,-124.5 6,-124.5 0,-118.5 0,-112.5 0,-112.5 0,-85 0,-85 0,-79 6,-73 12,-73 12,-73 189.6,-73 189.6,-73 195.6,-73 201.6,-79 201.6,-85 201.6,-85 201.6,-112.5 201.6,-112.5 201.6,-118.5 195.6,-124.5 189.6,-124.5"/>
<text xml:space="preserve" text-anchor="start" x="43.43" y="-109.05" font-family="Helvetica,sans-Serif" font-weight="bold" font-size="11.00" fill="white">6. Damage Resolution</text>
<text xml:space="preserve" text-anchor="start" x="42.3" y="-93.95" font-family="Helvetica,sans-Serif" font-size="9.00" fill="#ff6b6b">Beam &amp; missile hits resolved</text>
<text xml:space="preserve" text-anchor="start" x="46.43" y="-80.2" font-family="Helvetica,sans-Serif" font-size="9.00" fill="#ff6b6b">vs armor, shields, internals</text>
</g>
<!-- phase5&#45;&gt;phase6 -->
<g id="edge6" class="edge">
<title>phase5&#45;&gt;phase6</title>
<path fill="none" stroke="#4ecdc4" d="M100.8,-161.23C100.8,-152.8 100.8,-143.24 100.8,-134.22"/>
<polygon fill="#4ecdc4" stroke="#4ecdc4" points="103.6,-134.23 100.8,-126.23 98,-134.23 103.6,-134.23"/>
</g>
<!-- end -->
<g id="node8" class="node">
<title>end</title>
<ellipse fill="#1a1a2e" stroke="#95d5b2" cx="100.8" cy="-18" rx="54" ry="18"/>
<text xml:space="preserve" text-anchor="middle" x="100.8" y="-13.55" font-family="Helvetica,sans-Serif" font-size="11.00" fill="white">Increment End</text>
</g>
<!-- phase6&#45;&gt;end -->
<g id="edge7" class="edge">
<title>phase6&#45;&gt;end</title>
<path fill="none" stroke="#4ecdc4" d="M100.8,-72.83C100.8,-64.19 100.8,-54.47 100.8,-45.69"/>
<polygon fill="#4ecdc4" stroke="#4ecdc4" points="103.6,-45.8 100.8,-37.8 98,-45.8 103.6,-45.8"/>
</g>
<!-- end&#45;&gt;start -->
<g id="edge8" class="edge">
<title>end&#45;&gt;start</title>
<path fill="none" stroke="#888888" stroke-dasharray="5,2" d="M134.78,-32.36C241.39,-76.41 557.01,-224.25 467.8,-398.75 403.41,-524.71 235.82,-590.21 151.22,-616.15"/>
<polygon fill="#888888" stroke="#888888" points="150.62,-613.41 143.76,-618.39 152.23,-618.77 150.62,-613.41"/>
<text xml:space="preserve" text-anchor="middle" x="513.27" y="-320.7" font-family="Helvetica,sans-Serif" font-size="9.00" fill="#888888">next increment</text>
</g>
</g>
</svg>
