<?xml version="1.0" encoding="UTF-8" standalone="no"?>
<!DOCTYPE svg PUBLIC "-//W3C//DTD SVG 1.1//EN"
 "http://www.w3.org/Graphics/SVG/1.1/DTD/svg11.dtd">
<!-- Generated by graphviz version 14.1.2 (20260124.0452)
 -->
<!-- Title: CombatInteractions Pages: 1 -->
<svg width="1416pt" height="498pt"
 viewBox="0.00 0.00 1416.00 498.00" xmlns="http://www.w3.org/2000/svg" xmlns:xlink="http://www.w3.org/1999/xlink">
<g id="graph0" class="graph" transform="scale(1 1) rotate(0) translate(4 494.38)">
<title>CombatInteractions</title>
<polygon fill="#1a1a2e" stroke="none" points="-4,4 -4,-494.38 1412.12,-494.38 1412.12,4 -4,4"/>
<text xml:space="preserve" text-anchor="start" x="594.19" y="-470.27" font-family="Helvetica,sans-Serif" font-weight="bold" font-size="18.00" fill="white">Core Combat Interactions</text>
<g id="clust1" class="cluster">
<title>cluster_main</title>
</g>
<g id="clust2" class="cluster">
<title>cluster_ew</title>
<path fill="#2d2d3e" stroke="#ffe66d" d="M223.96,-8C223.96,-8 338.29,-8 338.29,-8 344.29,-8 350.29,-14 350.29,-20 350.29,-20 350.29,-231 350.29,-231 350.29,-237 344.29,-243 338.29,-243 338.29,-243 223.96,-243 223.96,-243 217.96,-243 211.96,-237 211.96,-231 211.96,-231 211.96,-20 211.96,-20 211.96,-14 217.96,-8 223.96,-8"/>
<text xml:space="preserve" text-anchor="start" x="228.62" y="-228.6" font-family="Helvetica,sans-Serif" font-weight="bold" font-size="12.00" fill="#ffe66d">Electronic Warfare</text>
</g>
<!-- sensors -->
<g id="node1" class="node">
<title>sensors</title>
<path fill="#2d2d44" stroke="#4ecdc4" stroke-width="2" d="M340.38,-353C340.38,-353 221.88,-353 221.88,-353 215.88,-353 209.88,-347 209.88,-341 209.88,-341 209.88,-271 209.88,-271 209.88,-265 215.88,-259 221.88,-259 221.88,-259 340.38,-259 340.38,-259 346.38,-259 352.38,-265 352.38,-271 352.38,-271 352.38,-341 352.38,-341 352.38,-347 346.38,-353 340.38,-353"/>
<text xml:space="preserve" text-anchor="start" x="247.75" y="-332.7" font-family="Helvetica,sans-Serif" font-weight="bold" font-size="14.00" fill="#4ecdc4">SENSORS</text>
<text xml:space="preserve" text-anchor="start" x="226.75" y="-310.7" font-family="Helvetica,sans-Serif" font-size="14.00" fill="white">Thermal (passive)</text>
<text xml:space="preserve" text-anchor="start" x="241.38" y="-289.7" font-family="Helvetica,sans-Serif" font-size="14.00" fill="white">EM (passive)</text>
<text xml:space="preserve" text-anchor="start" x="221.88" y="-268.7" font-family="Helvetica,sans-Serif" font-size="14.00" fill="white">Active (reveals you)</text>
</g>
<!-- fire_control -->
<g id="node2" class="node">
<title>fire_control</title>
<path fill="#2d2d44" stroke="#4ecdc4" stroke-width="2" d="M647.62,-353C647.62,-353 509.62,-353 509.62,-353 503.62,-353 497.62,-347 497.62,-341 497.62,-341 497.62,-271 497.62,-271 497.62,-265 503.62,-259 509.62,-259 509.62,-259 647.62,-259 647.62,-259 653.62,-259 659.62,-265 659.62,-271 659.62,-271 659.62,-341 659.62,-341 659.62,-347 653.62,-353 647.62,-353"/>
<text xml:space="preserve" text-anchor="start" x="527.25" y="-332.7" font-family="Helvetica,sans-Serif" font-weight="bold" font-size="14.00" fill="#ffe66d">FIRE CONTROL</text>
<text xml:space="preserve" text-anchor="start" x="514.5" y="-310.7" font-family="Helvetica,sans-Serif" font-size="14.00" fill="white">BFC: Beam weapons</text>
<text xml:space="preserve" text-anchor="start" x="509.62" y="-289.7" font-family="Helvetica,sans-Serif" font-size="14.00" fill="white">MFC: Missile guidance</text>
<text xml:space="preserve" text-anchor="start" x="525" y="-268.7" font-family="Helvetica,sans-Serif" font-size="14.00" fill="white">Tracking + Range</text>
</g>
<!-- sensors&#45;&gt;fire_control -->
<g id="edge1" class="edge">
<title>sensors&#45;&gt;fire_control</title>
<path fill="none" stroke="#4ecdc4" stroke-width="2" d="M353.28,-306C392.44,-306 441.51,-306 483.77,-306"/>
<polygon fill="#4ecdc4" stroke="#4ecdc4" stroke-width="2" points="483.62,-309.5 493.62,-306 483.62,-302.5 483.62,-309.5"/>
<text xml:space="preserve" text-anchor="start" x="421.12" y="-322.7" font-family="Helvetica,sans-Serif" font-size="14.00" fill="white">Detection</text>
<text xml:space="preserve" text-anchor="start" x="436.5" y="-307.7" font-family="Helvetica,sans-Serif" font-size="14.00" fill="white">data</text>
</g>
<!-- weapons -->
<g id="node3" class="node">
<title>weapons</title>
<path fill="#2d2d44" stroke="#4ecdc4" stroke-width="2" d="M853.88,-353C853.88,-353 745.12,-353 745.12,-353 739.12,-353 733.12,-347 733.12,-341 733.12,-341 733.12,-271 733.12,-271 733.12,-265 739.12,-259 745.12,-259 745.12,-259 853.88,-259 853.88,-259 859.88,-259 865.88,-265 865.88,-271 865.88,-271 865.88,-341 865.88,-341 865.88,-347 859.88,-353 853.88,-353"/>
<text xml:space="preserve" text-anchor="start" x="763.88" y="-332.7" font-family="Helvetica,sans-Serif" font-weight="bold" font-size="14.00" fill="#ff6b6b">WEAPONS</text>
<text xml:space="preserve" text-anchor="start" x="745.12" y="-310.7" font-family="Helvetica,sans-Serif" font-size="14.00" fill="white">Beams: Instant hit</text>
<text xml:space="preserve" text-anchor="start" x="749.25" y="-289.7" font-family="Helvetica,sans-Serif" font-size="14.00" fill="white">Missiles: Guided</text>
<text xml:space="preserve" text-anchor="start" x="745.5" y="-268.7" font-family="Helvetica,sans-Serif" font-size="14.00" fill="white">Gauss: High ROF</text>
</g>
<!-- fire_control&#45;&gt;weapons -->
<g id="edge2" class="edge">
<title>fire_control&#45;&gt;weapons</title>
<path fill="none" stroke="#4ecdc4" stroke-width="2" d="M660.5,-306C679.7,-306 700.15,-306 719.27,-306"/>
<polygon fill="#4ecdc4" stroke="#4ecdc4" stroke-width="2" points="719.24,-309.5 729.24,-306 719.24,-302.5 719.24,-309.5"/>
<text xml:space="preserve" text-anchor="start" x="677.62" y="-322.7" font-family="Helvetica,sans-Serif" font-size="14.00" fill="white">Target</text>
<text xml:space="preserve" text-anchor="start" x="684.38" y="-307.7" font-family="Helvetica,sans-Serif" font-size="14.00" fill="white">lock</text>
</g>
<!-- damage -->
<g id="node4" class="node">
<title>damage</title>
<path fill="#2d2d44" stroke="#4ecdc4" stroke-width="2" d="M1034.62,-353C1034.62,-353 964.88,-353 964.88,-353 958.88,-353 952.88,-347 952.88,-341 952.88,-341 952.88,-271 952.88,-271 952.88,-265 958.88,-259 964.88,-259 964.88,-259 1034.62,-259 1034.62,-259 1040.62,-259 1046.62,-265 1046.62,-271 1046.62,-271 1046.62,-341 1046.62,-341 1046.62,-347 1040.62,-353 1034.62,-353"/>
<text xml:space="preserve" text-anchor="start" x="969" y="-332.7" font-family="Helvetica,sans-Serif" font-weight="bold" font-size="14.00" fill="#95d5b2">DAMAGE</text>
<text xml:space="preserve" text-anchor="start" x="967.12" y="-310.7" font-family="Helvetica,sans-Serif" font-size="14.00" fill="white">vs. Shields</text>
<text xml:space="preserve" text-anchor="start" x="970.5" y="-289.7" font-family="Helvetica,sans-Serif" font-size="14.00" fill="white">vs. Armor</text>
<text xml:space="preserve" text-anchor="start" x="964.88" y="-268.7" font-family="Helvetica,sans-Serif" font-size="14.00" fill="white">Internal hits</text>
</g>
<!-- weapons&#45;&gt;damage -->
<g id="edge3" class="edge">
<title>weapons&#45;&gt;damage</title>
<path fill="none" stroke="#4ecdc4" stroke-width="2" d="M866.79,-306C890.13,-306 916.2,-306 938.97,-306"/>
<polygon fill="#4ecdc4" stroke="#4ecdc4" stroke-width="2" points="938.92,-309.5 948.92,-306 938.92,-302.5 938.92,-309.5"/>
<text xml:space="preserve" text-anchor="start" x="901.12" y="-322.7" font-family="Helvetica,sans-Serif" font-size="14.00" fill="white">Hit</text>
<text xml:space="preserve" text-anchor="start" x="883.88" y="-307.7" font-family="Helvetica,sans-Serif" font-size="14.00" fill="white">resolved</text>
</g>
<!-- target -->
<g id="node5" class="node">
<title>target</title>
<path fill="#2d2d44" stroke="#4ecdc4" stroke-width="2" d="M1189.88,-350.5C1189.88,-350.5 1128.38,-350.5 1128.38,-350.5 1122.38,-350.5 1116.38,-344.5 1116.38,-338.5 1116.38,-338.5 1116.38,-289.5 1116.38,-289.5 1116.38,-283.5 1122.38,-277.5 1128.38,-277.5 1128.38,-277.5 1189.88,-277.5 1189.88,-277.5 1195.88,-277.5 1201.88,-283.5 1201.88,-289.5 1201.88,-289.5 1201.88,-338.5 1201.88,-338.5 1201.88,-344.5 1195.88,-350.5 1189.88,-350.5"/>
<text xml:space="preserve" text-anchor="start" x="1131" y="-330.2" font-family="Helvetica,sans-Serif" font-weight="bold" font-size="14.00" fill="white">TARGET</text>
<text xml:space="preserve" text-anchor="start" x="1129.5" y="-308.2" font-family="Helvetica,sans-Serif" font-size="14.00" fill="#ff6b6b">Damaged</text>
<text xml:space="preserve" text-anchor="start" x="1128.38" y="-287.2" font-family="Helvetica,sans-Serif" font-size="14.00" fill="#ff6b6b">Destroyed</text>
</g>
<!-- damage&#45;&gt;target -->
<g id="edge4" class="edge">
<title>damage&#45;&gt;target</title>
<path fill="none" stroke="#4ecdc4" stroke-width="2" d="M1047.54,-308.38C1064.89,-309.26 1084.74,-310.27 1102.78,-311.19"/>
<polygon fill="#4ecdc4" stroke="#4ecdc4" stroke-width="2" points="1102.35,-314.67 1112.52,-311.68 1102.71,-307.68 1102.35,-314.67"/>
<text xml:space="preserve" text-anchor="start" x="1064.62" y="-312.65" font-family="Helvetica,sans-Serif" font-size="14.00" fill="white">Apply</text>
</g>
<!-- defenses -->
<g id="node9" class="node">
<title>defenses</title>
<path fill="#2d2d44" stroke="#4ecdc4" stroke-width="2" d="M1396.12,-305.88C1396.12,-305.88 1297.88,-305.88 1297.88,-305.88 1291.88,-305.88 1285.88,-299.88 1285.88,-293.88 1285.88,-293.88 1285.88,-226.12 1285.88,-226.12 1285.88,-220.12 1291.88,-214.12 1297.88,-214.12 1297.88,-214.12 1396.12,-214.12 1396.12,-214.12 1402.12,-214.12 1408.12,-220.12 1408.12,-226.12 1408.12,-226.12 1408.12,-293.88 1408.12,-293.88 1408.12,-299.88 1402.12,-305.88 1396.12,-305.88"/>
<text xml:space="preserve" text-anchor="start" x="1313.62" y="-287.48" font-family="Helvetica,sans-Serif" font-weight="bold" font-size="12.00" fill="#95d5b2">DEFENSES</text>
<text xml:space="preserve" text-anchor="start" x="1302.38" y="-265.82" font-family="Helvetica,sans-Serif" font-size="14.00" fill="white">Shields absorb</text>
<text xml:space="preserve" text-anchor="start" x="1307.25" y="-244.82" font-family="Helvetica,sans-Serif" font-size="14.00" fill="white">Armor blocks</text>
<text xml:space="preserve" text-anchor="start" x="1297.88" y="-223.82" font-family="Helvetica,sans-Serif" font-size="14.00" fill="white">CIWS intercepts</text>
</g>
<!-- target&#45;&gt;defenses -->
<g id="edge8" class="edge">
<title>target&#45;&gt;defenses</title>
<path fill="none" stroke="#95d5b2" stroke-width="2" stroke-dasharray="5,2" d="M1215.23,-297.99C1237.13,-291.63 1262.42,-284.28 1284.88,-277.76"/>
<polygon fill="#95d5b2" stroke="#95d5b2" stroke-width="2" points="1214.3,-294.62 1205.68,-300.77 1216.25,-301.34 1214.3,-294.62"/>
<text xml:space="preserve" text-anchor="start" x="1225.5" y="-313.23" font-family="Helvetica,sans-Serif" font-size="14.00" fill="#95d5b2">Active</text>
<text xml:space="preserve" text-anchor="start" x="1219.88" y="-298.23" font-family="Helvetica,sans-Serif" font-size="14.00" fill="#95d5b2">defense</text>
</g>
<!-- sensor_jammer -->
<g id="node6" class="node">
<title>sensor_jammer</title>
<ellipse fill="#3d3d54" stroke="#4ecdc4" stroke-width="2" cx="281.12" cy="-43" rx="46.85" ry="26.87"/>
<text xml:space="preserve" text-anchor="start" x="259.75" y="-44.7" font-family="Helvetica,sans-Serif" font-size="14.00" fill="white">Sensor</text>
<text xml:space="preserve" text-anchor="start" x="256" y="-29.7" font-family="Helvetica,sans-Serif" font-size="14.00" fill="white">Jammer</text>
</g>
<!-- sensor_jammer&#45;&gt;sensors -->
<g id="edge5" class="edge">
<title>sensor_jammer&#45;&gt;sensors</title>
<path fill="none" stroke="#ff6b6b" stroke-width="2" stroke-dasharray="5,2" d="M234.05,-47.73C209.73,-52.3 180.97,-61.3 160.62,-79 132.04,-103.86 133.22,-119.49 125.15,-156.5 115.94,-198.71 130.32,-216.21 160.62,-247 171.22,-257.77 184.18,-266.86 197.62,-274.45"/>
<polygon fill="#ff6b6b" stroke="#ff6b6b" stroke-width="2" points="195.84,-277.46 206.32,-279.05 199.11,-271.28 195.84,-277.46"/>
<text xml:space="preserve" text-anchor="start" x="98.38" y="-158.2" font-family="Helvetica,sans-Serif" font-size="14.00" fill="#ff6b6b">&#45;Range</text>
</g>
<!-- fc_jammer -->
<g id="node7" class="node">
<title>fc_jammer</title>
<ellipse fill="#3d3d54" stroke="#4ecdc4" stroke-width="2" cx="281.12" cy="-115" rx="61.16" ry="26.87"/>
<text xml:space="preserve" text-anchor="start" x="245.88" y="-116.7" font-family="Helvetica,sans-Serif" font-size="14.00" fill="white">Fire Control</text>
<text xml:space="preserve" text-anchor="start" x="256" y="-101.7" font-family="Helvetica,sans-Serif" font-size="14.00" fill="white">Jammer</text>
</g>
<!-- fc_jammer&#45;&gt;fire_control -->
<g id="edge6" class="edge">
<title>fc_jammer&#45;&gt;fire_control</title>
<path fill="none" stroke="#ff6b6b" stroke-width="2" stroke-dasharray="5,2" d="M337.65,-126.42C358.51,-132.06 381.93,-140.05 401.62,-151 447.98,-176.77 492.73,-216.44 525.5,-249.2"/>
<polygon fill="#ff6b6b" stroke="#ff6b6b" stroke-width="2" points="522.78,-251.42 532.29,-256.08 527.76,-246.5 522.78,-251.42"/>
<text xml:space="preserve" text-anchor="start" x="419.62" y="-204.4" font-family="Helvetica,sans-Serif" font-size="14.00" fill="#ff6b6b">&#45;Accuracy</text>
</g>
<!-- missile_jammer -->
<g id="node8" class="node">
<title>missile_jammer</title>
<ellipse fill="#3d3d54" stroke="#4ecdc4" stroke-width="2" cx="281.12" cy="-187" rx="46.85" ry="26.87"/>
<text xml:space="preserve" text-anchor="start" x="260.12" y="-188.7" font-family="Helvetica,sans-Serif" font-size="14.00" fill="white">Missile</text>
<text xml:space="preserve" text-anchor="start" x="256" y="-173.7" font-family="Helvetica,sans-Serif" font-size="14.00" fill="white">Jammer</text>
</g>
<!-- missile_jammer&#45;&gt;weapons -->
<g id="edge7" class="edge">
<title>missile_jammer&#45;&gt;weapons</title>
<path fill="none" stroke="#ff6b6b" stroke-width="2" stroke-dasharray="5,2" d="M322.84,-173.55C362.95,-162.16 425.84,-149.24 479.62,-160 567.07,-177.49 658.82,-222.75 721.34,-258.29"/>
<polygon fill="#ff6b6b" stroke="#ff6b6b" stroke-width="2" points="719.24,-261.12 729.65,-263.06 722.73,-255.05 719.24,-261.12"/>
<text xml:space="preserve" text-anchor="start" x="561.75" y="-226.3" font-family="Helvetica,sans-Serif" font-size="14.00" fill="#ff6b6b">&#45;Hit%</text>
</g>
<!-- defenses&#45;&gt;damage -->
<g id="edge9" class="edge">
<title>defenses&#45;&gt;damage</title>
<path fill="none" stroke="#95d5b2" stroke-width="2" stroke-dasharray="5,2" d="M1285.33,-250.7C1238.62,-245.38 1172.72,-241.91 1116.38,-254 1097.05,-258.15 1077.05,-265.78 1059.24,-273.95"/>
<polygon fill="#95d5b2" stroke="#95d5b2" stroke-width="2" points="1057.83,-270.74 1050.31,-278.2 1060.84,-277.06 1057.83,-270.74"/>
<text xml:space="preserve" text-anchor="start" x="1131.75" y="-255.7" font-family="Helvetica,sans-Serif" font-size="14.00" fill="#95d5b2">Mitigates</text>
</g>
<!-- note -->
<g id="node10" class="node">
<title>note</title>
<polygon fill="#2d2d44" stroke="none" stroke-width="2" points="401.62,-463.62 160.62,-463.62 160.62,-396.38 401.62,-396.38 401.62,-463.62"/>
<polygon fill="#3d2d44" stroke="none" points="168.62,-400.38 168.62,-459.62 393.62,-459.62 393.62,-400.38 168.62,-400.38"/>
<polygon fill="none" stroke="#4ecdc4" points="168.62,-429.62 168.62,-459.62 393.62,-459.62 393.62,-429.62 168.62,-429.62"/>
<text xml:space="preserve" text-anchor="start" x="177.62" y="-441.18" font-family="Helvetica,sans-Serif" font-weight="bold" font-size="11.00" fill="#4ecdc4">KEY:</text>
<text xml:space="preserve" text-anchor="start" x="203.12" y="-441.18" font-family="Helvetica,sans-Serif" font-size="11.00" fill="#4ecdc4"> No weapon fires without a fire control</text>
<polygon fill="none" stroke="#4ecdc4" points="168.62,-400.38 168.62,-429.62 393.62,-429.62 393.62,-400.38 168.62,-400.38"/>
<text xml:space="preserve" text-anchor="start" x="191.88" y="-411.12" font-family="Helvetica,sans-Serif" font-size="10.00" fill="white">Every BFC/MFC requires sensor contact</text>
</g>
</g>
</svg>
