<?xml version="1.0" encoding="UTF-8" standalone="no"?>
<!DOCTYPE svg PUBLIC "-//W3C//DTD SVG 1.1//EN"
 "http://www.w3.org/Graphics/SVG/1.1/DTD/svg11.dtd">
<!-- Generated by graphviz version 14.1.2 (20260124.0452)
 -->
<!-- Title: laser_damage_falloff Pages: 1 -->
<svg width="2093pt" height="256pt"
 viewBox="0.00 0.00 2093.00 256.00" xmlns="http://www.w3.org/2000/svg" xmlns:xlink="http://www.w3.org/1999/xlink">
<g id="graph0" class="graph" transform="scale(1 1) rotate(0) translate(4 252)">
<title>laser_damage_falloff</title>
<polygon fill="#1a1a2e" stroke="none" points="-4,4 -4,-252 2088.5,-252 2088.5,4 -4,4"/>
<g id="clust1" class="cluster">
<title>cluster_chart</title>
<polygon fill="#1a1a2e" stroke="#1a1a2e" points="534.75,-8 534.75,-240 1395.5,-240 1395.5,-8 534.75,-8"/>
</g>
<g id="clust2" class="cluster">
<title>cluster_insights</title>
<polygon fill="#1a1a2e" stroke="#1a1a2e" points="1422.5,-84 1422.5,-164 2076.5,-164 2076.5,-84 1422.5,-84"/>
</g>
<!-- title -->
<g id="node1" class="node">
<title>title</title>
<text xml:space="preserve" text-anchor="start" x="10" y="-125.67" font-family="Helvetica,sans-Serif" font-weight="bold" font-size="16.00" fill="white">Laser Damage Falloff vs Range</text>
<text xml:space="preserve" text-anchor="start" x="35.88" y="-109.88" font-family="Helvetica,sans-Serif" font-size="10.00" fill="#95d5b2">Damage = Base * (1 &#45; Range / MaxRange)</text>
</g>
<!-- legend -->
<g id="node2" class="node">
<title>legend</title>
<path fill="#2d2d44" stroke="#4ecdc4" d="M487.75,-180C487.75,-180 312.75,-180 312.75,-180 306.75,-180 300.75,-174 300.75,-168 300.75,-168 300.75,-80 300.75,-80 300.75,-74 306.75,-68 312.75,-68 312.75,-68 487.75,-68 487.75,-68 493.75,-68 499.75,-74 499.75,-80 499.75,-80 499.75,-168 499.75,-168 499.75,-174 493.75,-180 487.75,-180"/>
<text xml:space="preserve" text-anchor="start" x="362" y="-160.55" font-family="Helvetica,sans-Serif" font-weight="bold" font-size="11.00" fill="white">Weapon Types</text>
<polygon fill="#ff6b6b" stroke="none" points="312.75,-136 312.75,-152 332.75,-152 332.75,-136 312.75,-136"/>
<text xml:space="preserve" text-anchor="start" x="321.25" y="-139.55" font-family="Helvetica,sans-Serif" font-size="11.00" fill="white"> </text>
<text xml:space="preserve" text-anchor="start" x="338.75" y="-139.55" font-family="Helvetica,sans-Serif" font-size="11.00" fill="white">Lasers (linear falloff)</text>
<polygon fill="#4ecdc4" stroke="none" points="312.75,-116 312.75,-132 332.75,-132 332.75,-116 312.75,-116"/>
<text xml:space="preserve" text-anchor="start" x="321.25" y="-119.55" font-family="Helvetica,sans-Serif" font-size="11.00" fill="white"> </text>
<text xml:space="preserve" text-anchor="start" x="338.75" y="-119.55" font-family="Helvetica,sans-Serif" font-size="11.00" fill="white">Particle Beams (no falloff)</text>
<polygon fill="#ffe66d" stroke="none" points="312.75,-96 312.75,-112 332.75,-112 332.75,-96 312.75,-96"/>
<text xml:space="preserve" text-anchor="start" x="321.25" y="-99.55" font-family="Helvetica,sans-Serif" font-size="11.00" fill="white"> </text>
<text xml:space="preserve" text-anchor="start" x="338.75" y="-99.55" font-family="Helvetica,sans-Serif" font-size="11.00" fill="white">Railguns (no falloff)</text>
<polygon fill="#95d5b2" stroke="none" points="312.75,-76 312.75,-92 332.75,-92 332.75,-76 312.75,-76"/>
<text xml:space="preserve" text-anchor="start" x="321.25" y="-79.55" font-family="Helvetica,sans-Serif" font-size="11.00" fill="white"> </text>
<text xml:space="preserve" text-anchor="start" x="338.75" y="-79.55" font-family="Helvetica,sans-Serif" font-size="11.00" fill="white">Plasma Carronades (no falloff)</text>
</g>
<!-- title&#45;&gt;legend -->
<!-- y_axis -->
<g id="node3" class="node">
<title>y_axis</title>
<text xml:space="preserve" text-anchor="start" x="555.88" y="-191.55" font-family="Helvetica,sans-Serif" font-size="11.00" fill="white">100%</text>
<text xml:space="preserve" text-anchor="start" x="558.88" y="-155.55" font-family="Helvetica,sans-Serif" font-size="11.00" fill="white">75%</text>
<text xml:space="preserve" text-anchor="start" x="558.88" y="-119.55" font-family="Helvetica,sans-Serif" font-size="11.00" fill="white">50%</text>
<text xml:space="preserve" text-anchor="start" x="558.88" y="-83.55" font-family="Helvetica,sans-Serif" font-size="11.00" fill="white">25%</text>
<text xml:space="preserve" text-anchor="start" x="561.88" y="-47.55" font-family="Helvetica,sans-Serif" font-size="11.00" fill="white">0%</text>
</g>
<!-- legend&#45;&gt;y_axis -->
<!-- chart -->
<g id="node4" class="node">
<title>chart</title>
<polygon fill="#2d2d44" stroke="#4ecdc4" points="999.75,-232 639.75,-232 639.75,-16 999.75,-16 999.75,-232"/>
<text xml:space="preserve" text-anchor="start" x="685.75" y="-172.55" font-family="Helvetica,sans-Serif" font-size="11.00" fill="#4ecdc4">&#45;&#45;&#45;&#45;&#45;&#45;&#45;&#45;&#45;&#45;&#45;&#45;&#45;&#45;&#45;&#45;&#45;&#45;&#45;</text>
<text xml:space="preserve" text-anchor="start" x="803" y="-172.55" font-family="Helvetica,sans-Serif" font-size="11.00" fill="white"> Particle Beam (100%)</text>
<text xml:space="preserve" text-anchor="start" x="685.75" y="-156.55" font-family="Helvetica,sans-Serif" font-size="11.00" fill="#ffe66d">&#45;&#45;&#45;&#45;&#45;&#45;&#45;&#45;&#45;&#45;&#45;&#45;&#45;&#45;&#45;&#45;&#45;&#45;&#45;</text>
<text xml:space="preserve" text-anchor="start" x="818.38" y="-156.55" font-family="Helvetica,sans-Serif" font-size="11.00" fill="white"> Railgun (100%)</text>
<text xml:space="preserve" text-anchor="start" x="715.75" y="-140.55" font-family="Helvetica,sans-Serif" font-size="11.00" fill="#95d5b2">&#45;&#45;&#45;</text>
<text xml:space="preserve" text-anchor="start" x="761" y="-140.55" font-family="Helvetica,sans-Serif" font-size="11.00" fill="white"> Plasma Carronade (100%, short range)</text>
<text xml:space="preserve" text-anchor="start" x="818.25" y="-114.55" font-family="Helvetica,sans-Serif" font-size="11.00" fill="#ff6b6b">\</text>
<text xml:space="preserve" text-anchor="start" x="748.5" y="-98.55" font-family="Helvetica,sans-Serif" font-size="11.00" fill="#ff6b6b"> &#160;\ &#160;Laser: decreasing damage</text>
<text xml:space="preserve" text-anchor="start" x="812.25" y="-82.55" font-family="Helvetica,sans-Serif" font-size="11.00" fill="#ff6b6b"> &#160;&#160;&#160;\</text>
<text xml:space="preserve" text-anchor="start" x="809.25" y="-66.55" font-family="Helvetica,sans-Serif" font-size="11.00" fill="#ff6b6b"> &#160;&#160;&#160;&#160;&#160;\</text>
</g>
<!-- y_axis&#45;&gt;chart -->
<!-- x_axis -->
<g id="node5" class="node">
<title>x_axis</title>
<text xml:space="preserve" text-anchor="start" x="1052.75" y="-127.55" font-family="Helvetica,sans-Serif" font-size="11.00" fill="white">0%</text>
<text xml:space="preserve" text-anchor="start" x="1122.5" y="-127.55" font-family="Helvetica,sans-Serif" font-size="11.00" fill="white">25%</text>
<text xml:space="preserve" text-anchor="start" x="1198.25" y="-127.55" font-family="Helvetica,sans-Serif" font-size="11.00" fill="white">50%</text>
<text xml:space="preserve" text-anchor="start" x="1274" y="-127.55" font-family="Helvetica,sans-Serif" font-size="11.00" fill="white">75%</text>
<text xml:space="preserve" text-anchor="start" x="1349.75" y="-127.55" font-family="Helvetica,sans-Serif" font-size="11.00" fill="white">100%</text>
<text xml:space="preserve" text-anchor="start" x="1158.12" y="-111.55" font-family="Helvetica,sans-Serif" font-size="11.00" fill="#95d5b2">Range (% of Maximum)</text>
</g>
<!-- chart&#45;&gt;x_axis -->
<!-- insight1 -->
<g id="node6" class="node">
<title>insight1</title>
<path fill="#2d2d44" stroke="#ff6b6b" d="M1552.75,-156C1552.75,-156 1442.5,-156 1442.5,-156 1436.5,-156 1430.5,-150 1430.5,-144 1430.5,-144 1430.5,-104 1430.5,-104 1430.5,-98 1436.5,-92 1442.5,-92 1442.5,-92 1552.75,-92 1552.75,-92 1558.75,-92 1564.75,-98 1564.75,-104 1564.75,-104 1564.75,-144 1564.75,-144 1564.75,-150 1558.75,-156 1552.75,-156"/>
<text xml:space="preserve" text-anchor="start" x="1445.88" y="-138.55" font-family="Helvetica,sans-Serif" font-weight="bold" font-size="11.00" fill="#ff6b6b">Laser at 50% Range</text>
<text xml:space="preserve" text-anchor="start" x="1452.62" y="-119.55" font-family="Helvetica,sans-Serif" font-size="11.00" fill="white">50% base damage</text>
<text xml:space="preserve" text-anchor="start" x="1442.5" y="-101.55" font-family="Helvetica,sans-Serif" font-size="11.00" fill="white">50% armor penetration</text>
</g>
<!-- x_axis&#45;&gt;insight1 -->
<!-- insight2 -->
<g id="node7" class="node">
<title>insight2</title>
<path fill="#2d2d44" stroke="#4ecdc4" d="M1766.75,-156C1766.75,-156 1619.75,-156 1619.75,-156 1613.75,-156 1607.75,-150 1607.75,-144 1607.75,-144 1607.75,-104 1607.75,-104 1607.75,-98 1613.75,-92 1619.75,-92 1619.75,-92 1766.75,-92 1766.75,-92 1772.75,-92 1778.75,-98 1778.75,-104 1778.75,-104 1778.75,-144 1778.75,-144 1778.75,-150 1772.75,-156 1766.75,-156"/>
<text xml:space="preserve" text-anchor="start" x="1619.75" y="-138.55" font-family="Helvetica,sans-Serif" font-weight="bold" font-size="11.00" fill="#4ecdc4">Particle Beam at 50% Range</text>
<text xml:space="preserve" text-anchor="start" x="1645.25" y="-119.55" font-family="Helvetica,sans-Serif" font-size="11.00" fill="white">100% base damage</text>
<text xml:space="preserve" text-anchor="start" x="1635.12" y="-101.55" font-family="Helvetica,sans-Serif" font-size="11.00" fill="white">100% armor penetration</text>
</g>
<!-- insight1&#45;&gt;insight2 -->
<!-- tactical -->
<g id="node8" class="node">
<title>tactical</title>
<path fill="#2d2d44" stroke="#ffe66d" d="M2056.5,-156C2056.5,-156 1833.75,-156 1833.75,-156 1827.75,-156 1821.75,-150 1821.75,-144 1821.75,-144 1821.75,-104 1821.75,-104 1821.75,-98 1827.75,-92 1833.75,-92 1833.75,-92 2056.5,-92 2056.5,-92 2062.5,-92 2068.5,-98 2068.5,-104 2068.5,-104 2068.5,-144 2068.5,-144 2068.5,-150 2062.5,-156 2056.5,-156"/>
<text xml:space="preserve" text-anchor="start" x="1894.88" y="-138.55" font-family="Helvetica,sans-Serif" font-weight="bold" font-size="11.00" fill="#ffe66d">Tactical Implication</text>
<text xml:space="preserve" text-anchor="start" x="1868.62" y="-119.55" font-family="Helvetica,sans-Serif" font-size="11.00" fill="white">Close range benefits lasers only</text>
<text xml:space="preserve" text-anchor="start" x="1833.75" y="-101.55" font-family="Helvetica,sans-Serif" font-size="11.00" fill="white">Particle beams maintain advantage at distance</text>
</g>
<!-- insight2&#45;&gt;tactical -->
</g>
</svg>
