<?xml version="1.0" encoding="UTF-8" standalone="no"?>
<!DOCTYPE svg PUBLIC "-//W3C//DTD SVG 1.1//EN"
 "http://www.w3.org/Graphics/SVG/1.1/DTD/svg11.dtd">
<!-- Generated by graphviz version 14.1.2 (20260124.0452)
 -->
<!-- Title: weapon_failure Pages: 1 -->
<svg width="562pt" height="1114pt"
 viewBox="0.00 0.00 562.00 1114.00" xmlns="http://www.w3.org/2000/svg" xmlns:xlink="http://www.w3.org/1999/xlink">
<g id="graph0" class="graph" transform="scale(1 1) rotate(0) translate(4 1109.75)">
<title>weapon_failure</title>
<polygon fill="#1a1a2e" stroke="none" points="-4,4 -4,-1109.75 558.38,-1109.75 558.38,4 -4,4"/>
<!-- title -->
<g id="node1" class="node">
<title>title</title>
<path fill="#1a1a2e" stroke="none" d="M542.38,-1105.75C542.38,-1105.75 340.12,-1105.75 340.12,-1105.75 334.12,-1105.75 328.12,-1099.75 328.12,-1093.75 328.12,-1093.75 328.12,-1073.25 328.12,-1073.25 328.12,-1067.25 334.12,-1061.25 340.12,-1061.25 340.12,-1061.25 542.38,-1061.25 542.38,-1061.25 548.38,-1061.25 554.38,-1067.25 554.38,-1073.25 554.38,-1073.25 554.38,-1093.75 554.38,-1093.75 554.38,-1099.75 548.38,-1105.75 542.38,-1105.75"/>
<text xml:space="preserve" text-anchor="start" x="338.12" y="-1085.55" font-family="Helvetica,sans-Serif" font-weight="bold" font-size="16.00" fill="white">Weapon Failure Mechanics</text>
<text xml:space="preserve" text-anchor="start" x="354.62" y="-1068.8" font-family="Helvetica,sans-Serif" font-size="11.00" fill="#95d5b2">2% Failure Chance Per Firing Event</text>
</g>
<!-- ready -->
<g id="node2" class="node">
<title>ready</title>
<path fill="#2d2d44" stroke="#95d5b2" d="M494.12,-1024.25C494.12,-1024.25 388.38,-1024.25 388.38,-1024.25 382.38,-1024.25 376.38,-1018.25 376.38,-1012.25 376.38,-1012.25 376.38,-991.75 376.38,-991.75 376.38,-985.75 382.38,-979.75 388.38,-979.75 388.38,-979.75 494.12,-979.75 494.12,-979.75 500.12,-979.75 506.12,-985.75 506.12,-991.75 506.12,-991.75 506.12,-1012.25 506.12,-1012.25 506.12,-1018.25 500.12,-1024.25 494.12,-1024.25"/>
<text xml:space="preserve" text-anchor="start" x="398.88" y="-1007.75" font-family="Helvetica,sans-Serif" font-weight="bold" font-size="10.00" fill="#95d5b2">WEAPON READY</text>
<text xml:space="preserve" text-anchor="start" x="388.38" y="-989.5" font-family="Helvetica,sans-Serif" font-size="10.00" fill="white">Charged and operational</text>
</g>
<!-- title&#45;&gt;ready -->
<!-- fire -->
<g id="node3" class="node">
<title>fire</title>
<path fill="#2d2d44" stroke="#4ecdc4" d="M497.88,-934C497.88,-934 384.62,-934 384.62,-934 378.62,-934 372.62,-928 372.62,-922 372.62,-922 372.62,-901.5 372.62,-901.5 372.62,-895.5 378.62,-889.5 384.62,-889.5 384.62,-889.5 497.88,-889.5 497.88,-889.5 503.88,-889.5 509.88,-895.5 509.88,-901.5 509.88,-901.5 509.88,-922 509.88,-922 509.88,-928 503.88,-934 497.88,-934"/>
<text xml:space="preserve" text-anchor="start" x="401.88" y="-917.5" font-family="Helvetica,sans-Serif" font-weight="bold" font-size="10.00" fill="#4ecdc4">WEAPON FIRES</text>
<text xml:space="preserve" text-anchor="start" x="384.62" y="-899.25" font-family="Helvetica,sans-Serif" font-size="10.00" fill="white">2% failure check triggered</text>
</g>
<!-- ready&#45;&gt;fire -->
<g id="edge2" class="edge">
<title>ready&#45;&gt;fire</title>
<path fill="none" stroke="#4ecdc4" stroke-width="2" d="M441.25,-979.64C441.25,-969.85 441.25,-957.99 441.25,-947"/>
<polygon fill="#4ecdc4" stroke="#4ecdc4" stroke-width="2" points="444.75,-947.25 441.25,-937.25 437.75,-947.25 444.75,-947.25"/>
<text xml:space="preserve" text-anchor="middle" x="461.88" y="-953.2" font-family="Helvetica,sans-Serif" font-size="9.00" fill="white">Fire Order</text>
</g>
<!-- roll -->
<g id="node4" class="node">
<title>roll</title>
<path fill="#2d2d44" stroke="#ffe66d" d="M376.99,-837.53C376.99,-837.53 334.01,-811.47 334.01,-811.47 328.88,-808.36 328.88,-802.14 334.01,-799.03 334.01,-799.03 376.99,-772.97 376.99,-772.97 382.12,-769.86 392.38,-769.86 397.51,-772.97 397.51,-772.97 440.49,-799.03 440.49,-799.03 445.62,-802.14 445.62,-808.36 440.49,-811.47 440.49,-811.47 397.51,-837.53 397.51,-837.53 392.38,-840.64 382.12,-840.64 376.99,-837.53"/>
<text xml:space="preserve" text-anchor="start" x="365.5" y="-810" font-family="Helvetica,sans-Serif" font-weight="bold" font-size="10.00" fill="#ffe66d">FAILURE</text>
<text xml:space="preserve" text-anchor="start" x="373.75" y="-794.75" font-family="Helvetica,sans-Serif" font-weight="bold" font-size="10.00" fill="#ffe66d">ROLL</text>
</g>
<!-- fire&#45;&gt;roll -->
<g id="edge3" class="edge">
<title>fire&#45;&gt;roll</title>
<path fill="none" stroke="#4ecdc4" stroke-width="2" d="M430.06,-889.1C423.67,-876.74 415.47,-860.85 407.95,-846.3"/>
<polygon fill="#4ecdc4" stroke="#4ecdc4" stroke-width="2" points="411.2,-844.98 403.5,-837.7 404.99,-848.19 411.2,-844.98"/>
<text xml:space="preserve" text-anchor="middle" x="441.67" y="-862.95" font-family="Helvetica,sans-Serif" font-size="9.00" fill="white">Each Shot</text>
</g>
<!-- success -->
<g id="node5" class="node">
<title>success</title>
<path fill="#2d2d44" stroke="#95d5b2" d="M439.12,-721C439.12,-721 339.38,-721 339.38,-721 333.38,-721 327.38,-715 327.38,-709 327.38,-709 327.38,-671.25 327.38,-671.25 327.38,-665.25 333.38,-659.25 339.38,-659.25 339.38,-659.25 439.12,-659.25 439.12,-659.25 445.12,-659.25 451.12,-665.25 451.12,-671.25 451.12,-671.25 451.12,-709 451.12,-709 451.12,-715 445.12,-721 439.12,-721"/>
<text xml:space="preserve" text-anchor="start" x="344.25" y="-704.5" font-family="Helvetica,sans-Serif" font-weight="bold" font-size="10.00" fill="#95d5b2">NO FAILURE (98%)</text>
<text xml:space="preserve" text-anchor="start" x="340.88" y="-686.25" font-family="Helvetica,sans-Serif" font-size="10.00" fill="white">Weapon fires normally</text>
<text xml:space="preserve" text-anchor="start" x="339.38" y="-669" font-family="Helvetica,sans-Serif" font-size="10.00" fill="white">Damage dealt to target</text>
</g>
<!-- roll&#45;&gt;success -->
<g id="edge4" class="edge">
<title>roll&#45;&gt;success</title>
<path fill="none" stroke="#95d5b2" stroke-width="2" d="M387.92,-766.58C388.1,-756.28 388.3,-745.03 388.48,-734.44"/>
<polygon fill="#95d5b2" stroke="#95d5b2" stroke-width="2" points="391.98,-734.58 388.66,-724.52 384.98,-734.45 391.98,-734.58"/>
<text xml:space="preserve" text-anchor="middle" x="397.74" y="-740.2" font-family="Helvetica,sans-Serif" font-size="9.00" fill="white">98%</text>
</g>
<!-- failure -->
<g id="node6" class="node">
<title>failure</title>
<path fill="#2d2d44" stroke="#ff6b6b" d="M286.75,-712.38C286.75,-712.38 157.75,-712.38 157.75,-712.38 151.75,-712.38 145.75,-706.38 145.75,-700.38 145.75,-700.38 145.75,-679.88 145.75,-679.88 145.75,-673.88 151.75,-667.88 157.75,-667.88 157.75,-667.88 286.75,-667.88 286.75,-667.88 292.75,-667.88 298.75,-673.88 298.75,-679.88 298.75,-679.88 298.75,-700.38 298.75,-700.38 298.75,-706.38 292.75,-712.38 286.75,-712.38"/>
<text xml:space="preserve" text-anchor="start" x="188.88" y="-695.88" font-family="Helvetica,sans-Serif" font-weight="bold" font-size="10.00" fill="#ff6b6b">FAILURE (2%)</text>
<text xml:space="preserve" text-anchor="start" x="157.75" y="-677.62" font-family="Helvetica,sans-Serif" font-size="10.00" fill="white">Weapon malfunction detected</text>
</g>
<!-- roll&#45;&gt;failure -->
<g id="edge5" class="edge">
<title>roll&#45;&gt;failure</title>
<path fill="none" stroke="#ff6b6b" stroke-width="2" d="M358.13,-784.29C332.09,-766.43 293.62,-740.06 264.26,-719.93"/>
<polygon fill="#ff6b6b" stroke="#ff6b6b" stroke-width="2" points="266.61,-717.3 256.39,-714.53 262.65,-723.07 266.61,-717.3"/>
<text xml:space="preserve" text-anchor="middle" x="311.5" y="-740.2" font-family="Helvetica,sans-Serif" font-size="9.00" fill="white">2%</text>
</g>
<!-- recharge -->
<g id="node10" class="node">
<title>recharge</title>
<path fill="#2d2d44" stroke="#4ecdc4" d="M461.25,-354.5C461.25,-354.5 365.25,-354.5 365.25,-354.5 359.25,-354.5 353.25,-348.5 353.25,-342.5 353.25,-342.5 353.25,-304.75 353.25,-304.75 353.25,-298.75 359.25,-292.75 365.25,-292.75 365.25,-292.75 461.25,-292.75 461.25,-292.75 467.25,-292.75 473.25,-298.75 473.25,-304.75 473.25,-304.75 473.25,-342.5 473.25,-342.5 473.25,-348.5 467.25,-354.5 461.25,-354.5"/>
<text xml:space="preserve" text-anchor="start" x="365.25" y="-338" font-family="Helvetica,sans-Serif" font-weight="bold" font-size="10.00" fill="#4ecdc4">RECHARGE CYCLE</text>
<text xml:space="preserve" text-anchor="start" x="369.38" y="-319.75" font-family="Helvetica,sans-Serif" font-size="10.00" fill="white">Capacitor recharges</text>
<text xml:space="preserve" text-anchor="start" x="370.12" y="-302.5" font-family="Helvetica,sans-Serif" font-size="10.00" fill="white">Ready for next shot</text>
</g>
<!-- success&#45;&gt;recharge -->
<g id="edge9" class="edge">
<title>success&#45;&gt;recharge</title>
<path fill="none" stroke="#4ecdc4" stroke-width="2" d="M391.23,-658.99C395.49,-594.3 405.52,-442 410.44,-367.37"/>
<polygon fill="#4ecdc4" stroke="#4ecdc4" stroke-width="2" points="413.9,-368.03 411.06,-357.82 406.91,-367.57 413.9,-368.03"/>
</g>
<!-- msp_check -->
<g id="node7" class="node">
<title>msp_check</title>
<path fill="#2d2d44" stroke="#ffe66d" d="M211.38,-608.41C211.38,-608.41 150.87,-580.09 150.87,-580.09 145.43,-577.54 145.43,-572.46 150.87,-569.91 150.87,-569.91 211.38,-541.59 211.38,-541.59 216.82,-539.04 227.68,-539.04 233.12,-541.59 233.12,-541.59 293.63,-569.91 293.63,-569.91 299.07,-572.46 299.07,-577.54 293.63,-580.09 293.63,-580.09 233.12,-608.41 233.12,-608.41 227.68,-610.96 216.82,-610.96 211.38,-608.41"/>
<text xml:space="preserve" text-anchor="start" x="211.38" y="-579.75" font-family="Helvetica,sans-Serif" font-weight="bold" font-size="10.00" fill="#ffe66d">MSP</text>
<text xml:space="preserve" text-anchor="start" x="191.12" y="-564.5" font-family="Helvetica,sans-Serif" font-weight="bold" font-size="10.00" fill="#ffe66d">AVAILABLE?</text>
</g>
<!-- failure&#45;&gt;msp_check -->
<g id="edge6" class="edge">
<title>failure&#45;&gt;msp_check</title>
<path fill="none" stroke="#4ecdc4" stroke-width="2" d="M222.25,-667.58C222.25,-656 222.25,-641.18 222.25,-626.86"/>
<polygon fill="#4ecdc4" stroke="#4ecdc4" stroke-width="2" points="225.75,-626.98 222.25,-616.98 218.75,-626.98 225.75,-626.98"/>
</g>
<!-- instant_repair -->
<g id="node8" class="node">
<title>instant_repair</title>
<path fill="#2d2d44" stroke="#95d5b2" d="M356.75,-490.75C356.75,-490.75 245.75,-490.75 245.75,-490.75 239.75,-490.75 233.75,-484.75 233.75,-478.75 233.75,-478.75 233.75,-423.75 233.75,-423.75 233.75,-417.75 239.75,-411.75 245.75,-411.75 245.75,-411.75 356.75,-411.75 356.75,-411.75 362.75,-411.75 368.75,-417.75 368.75,-423.75 368.75,-423.75 368.75,-478.75 368.75,-478.75 368.75,-484.75 362.75,-490.75 356.75,-490.75"/>
<text xml:space="preserve" text-anchor="start" x="259.25" y="-474.25" font-family="Helvetica,sans-Serif" font-weight="bold" font-size="10.00" fill="#95d5b2">INSTANT REPAIR</text>
<text xml:space="preserve" text-anchor="start" x="245.75" y="-456" font-family="Helvetica,sans-Serif" font-size="10.00" fill="white">MSP consumed for repair</text>
<text xml:space="preserve" text-anchor="start" x="252.88" y="-438.75" font-family="Helvetica,sans-Serif" font-size="10.00" fill="white">Weapon fires normally</text>
<text xml:space="preserve" text-anchor="start" x="260" y="-421.5" font-family="Helvetica,sans-Serif" font-size="10.00" fill="white">No combat penalty</text>
</g>
<!-- msp_check&#45;&gt;instant_repair -->
<g id="edge7" class="edge">
<title>msp_check&#45;&gt;instant_repair</title>
<path fill="none" stroke="#95d5b2" stroke-width="2" d="M241.17,-544.84C249.62,-531.82 259.81,-516.11 269.38,-501.36"/>
<polygon fill="#95d5b2" stroke="#95d5b2" stroke-width="2" points="272.05,-503.68 274.56,-493.39 266.18,-499.87 272.05,-503.68"/>
<text xml:space="preserve" text-anchor="middle" x="271.24" y="-509.95" font-family="Helvetica,sans-Serif" font-size="9.00" fill="white">Yes</text>
</g>
<!-- damaged -->
<g id="node9" class="node">
<title>damaged</title>
<path fill="#2d2d44" stroke="#ff6b6b" d="M193,-490.75C193,-490.75 71.5,-490.75 71.5,-490.75 65.5,-490.75 59.5,-484.75 59.5,-478.75 59.5,-478.75 59.5,-423.75 59.5,-423.75 59.5,-417.75 65.5,-411.75 71.5,-411.75 71.5,-411.75 193,-411.75 193,-411.75 199,-411.75 205,-417.75 205,-423.75 205,-423.75 205,-478.75 205,-478.75 205,-484.75 199,-490.75 193,-490.75"/>
<text xml:space="preserve" text-anchor="start" x="81.62" y="-474.25" font-family="Helvetica,sans-Serif" font-weight="bold" font-size="10.00" fill="#ff6b6b">WEAPON DAMAGED</text>
<text xml:space="preserve" text-anchor="start" x="79" y="-456" font-family="Helvetica,sans-Serif" font-size="10.00" fill="white">Cannot fire until repaired</text>
<text xml:space="preserve" text-anchor="start" x="71.88" y="-438.75" font-family="Helvetica,sans-Serif" font-size="10.00" fill="white">Requires engineering action</text>
<text xml:space="preserve" text-anchor="start" x="71.5" y="-421.5" font-family="Helvetica,sans-Serif" font-size="10.00" fill="white">Ship combat power reduced</text>
</g>
<!-- msp_check&#45;&gt;damaged -->
<g id="edge8" class="edge">
<title>msp_check&#45;&gt;damaged</title>
<path fill="none" stroke="#ff6b6b" stroke-width="2" d="M201.38,-545.76C191.59,-532.52 179.64,-516.35 168.44,-501.21"/>
<polygon fill="#ff6b6b" stroke="#ff6b6b" stroke-width="2" points="171.41,-499.33 162.65,-493.37 165.78,-503.5 171.41,-499.33"/>
<text xml:space="preserve" text-anchor="middle" x="185.95" y="-509.95" font-family="Helvetica,sans-Serif" font-size="9.00" fill="white">No</text>
</g>
<!-- instant_repair&#45;&gt;recharge -->
<g id="edge10" class="edge">
<title>instant_repair&#45;&gt;recharge</title>
<path fill="none" stroke="#95d5b2" stroke-width="2" d="M335.77,-411.53C349.16,-396.51 364.48,-379.32 377.95,-364.22"/>
<polygon fill="#95d5b2" stroke="#95d5b2" stroke-width="2" points="380.43,-366.69 384.48,-356.9 375.21,-362.03 380.43,-366.69"/>
</g>
<!-- stats -->
<g id="node11" class="node">
<title>stats</title>
<path fill="#1a1a2e" stroke="none" d="M252.5,-374.75C252.5,-374.75 12,-374.75 12,-374.75 6,-374.75 0,-368.75 0,-362.75 0,-362.75 0,-284.5 0,-284.5 0,-278.5 6,-272.5 12,-272.5 12,-272.5 252.5,-272.5 252.5,-272.5 258.5,-272.5 264.5,-278.5 264.5,-284.5 264.5,-284.5 264.5,-362.75 264.5,-362.75 264.5,-368.75 258.5,-374.75 252.5,-374.75"/>
<text xml:space="preserve" text-anchor="start" x="73.38" y="-357.25" font-family="Helvetica,sans-Serif" font-weight="bold" font-size="10.00" fill="white">Extended Combat Impact</text>
<text xml:space="preserve" text-anchor="start" x="13" y="-338" font-family="Helvetica,sans-Serif" font-size="10.00" fill="white">50 shots:</text>
<text xml:space="preserve" text-anchor="start" x="168.25" y="-338" font-family="Helvetica,sans-Serif" font-size="10.00" fill="#ffe66d">~1 failure expected</text>
<text xml:space="preserve" text-anchor="start" x="13" y="-319.75" font-family="Helvetica,sans-Serif" font-size="10.00" fill="white">100 shots:</text>
<text xml:space="preserve" text-anchor="start" x="163" y="-319.75" font-family="Helvetica,sans-Serif" font-size="10.00" fill="#ffe66d">~2 failures expected</text>
<text xml:space="preserve" text-anchor="start" x="13" y="-301.5" font-family="Helvetica,sans-Serif" font-size="10.00" fill="white">500 shots:</text>
<text xml:space="preserve" text-anchor="start" x="157.75" y="-301.5" font-family="Helvetica,sans-Serif" font-size="10.00" fill="#ff6b6b">~10 failures expected</text>
<text xml:space="preserve" text-anchor="start" x="13" y="-283.25" font-family="Helvetica,sans-Serif" font-size="10.00" fill="#95d5b2">High&#45;ROF weapons (gauss) = more MSP consumption</text>
</g>
<!-- damaged&#45;&gt;stats -->
<!-- recharge&#45;&gt;fire -->
<g id="edge11" class="edge">
<title>recharge&#45;&gt;fire</title>
<path fill="none" stroke="#4ecdc4" stroke-width="2" stroke-dasharray="5,2" d="M447.08,-354.68C469.66,-378.17 495.25,-413.01 495.25,-450.25 495.25,-806.25 495.25,-806.25 495.25,-806.25 495.25,-832.66 481.47,-859.06 467.83,-878.72"/>
<polygon fill="#4ecdc4" stroke="#4ecdc4" stroke-width="2" points="465.03,-876.61 461.93,-886.74 470.67,-880.76 465.03,-876.61"/>
<text xml:space="preserve" text-anchor="middle" x="513.62" y="-632.7" font-family="Helvetica,sans-Serif" font-size="9.00" fill="white">Next Tick</text>
</g>
<!-- implications -->
<g id="node12" class="node">
<title>implications</title>
<path fill="#2d2d44" stroke="#ffe66d" d="M250.75,-235.5C250.75,-235.5 13.75,-235.5 13.75,-235.5 7.75,-235.5 1.75,-229.5 1.75,-223.5 1.75,-223.5 1.75,-151.25 1.75,-151.25 1.75,-145.25 7.75,-139.25 13.75,-139.25 13.75,-139.25 250.75,-139.25 250.75,-139.25 256.75,-139.25 262.75,-145.25 262.75,-151.25 262.75,-151.25 262.75,-223.5 262.75,-223.5 262.75,-229.5 256.75,-235.5 250.75,-235.5"/>
<text xml:space="preserve" text-anchor="start" x="85.38" y="-219" font-family="Helvetica,sans-Serif" font-weight="bold" font-size="10.00" fill="#ffe66d">Design Implications</text>
<text xml:space="preserve" text-anchor="start" x="13.75" y="-200.75" font-family="Helvetica,sans-Serif" font-size="10.00" fill="white">1. Carry generous MSP reserves for long deployments</text>
<text xml:space="preserve" text-anchor="start" x="13.75" y="-183.5" font-family="Helvetica,sans-Serif" font-size="10.00" fill="white">2. More weapons = more failure rolls per tick</text>
<text xml:space="preserve" text-anchor="start" x="13.75" y="-166.25" font-family="Helvetica,sans-Serif" font-size="10.00" fill="white">3. High fire concentration = more MSP drain on PD</text>
<text xml:space="preserve" text-anchor="start" x="13.75" y="-149" font-family="Helvetica,sans-Serif" font-size="10.00" fill="white">4. Failures drain MSP even without enemy fire</text>
</g>
<!-- stats&#45;&gt;implications -->
<!-- legend -->
<g id="node13" class="node">
<title>legend</title>
<path fill="#1a1a2e" stroke="none" d="M187.62,-102.25C187.62,-102.25 76.88,-102.25 76.88,-102.25 70.88,-102.25 64.88,-96.25 64.88,-90.25 64.88,-90.25 64.88,-12 64.88,-12 64.88,-6 70.88,0 76.88,0 76.88,0 187.62,0 187.62,0 193.62,0 199.62,-6 199.62,-12 199.62,-12 199.62,-90.25 199.62,-90.25 199.62,-96.25 193.62,-102.25 187.62,-102.25"/>
<text xml:space="preserve" text-anchor="start" x="115" y="-84.75" font-family="Helvetica,sans-Serif" font-weight="bold" font-size="10.00" fill="white">Legend</text>
<polygon fill="#95d5b2" stroke="none" points="75.88,-61.75 75.88,-77 90.88,-77 90.88,-61.75 75.88,-61.75"/>
<text xml:space="preserve" text-anchor="start" x="81.88" y="-65.5" font-family="Helvetica,sans-Serif" font-size="10.00" fill="white"> </text>
<text xml:space="preserve" text-anchor="start" x="95.88" y="-65.5" font-family="Helvetica,sans-Serif" font-size="10.00" fill="white">Success/Operational</text>
<polygon fill="#4ecdc4" stroke="none" points="75.88,-43.5 75.88,-58.75 90.88,-58.75 90.88,-43.5 75.88,-43.5"/>
<text xml:space="preserve" text-anchor="start" x="81.88" y="-47.25" font-family="Helvetica,sans-Serif" font-size="10.00" fill="white"> </text>
<text xml:space="preserve" text-anchor="start" x="95.88" y="-47.25" font-family="Helvetica,sans-Serif" font-size="10.00" fill="white">Normal operation</text>
<polygon fill="#ffe66d" stroke="none" points="75.88,-25.25 75.88,-40.5 90.88,-40.5 90.88,-25.25 75.88,-25.25"/>
<text xml:space="preserve" text-anchor="start" x="81.88" y="-29" font-family="Helvetica,sans-Serif" font-size="10.00" fill="white"> </text>
<text xml:space="preserve" text-anchor="start" x="95.88" y="-29" font-family="Helvetica,sans-Serif" font-size="10.00" fill="white">Decision/Warning</text>
<polygon fill="#ff6b6b" stroke="none" points="75.88,-7 75.88,-22.25 90.88,-22.25 90.88,-7 75.88,-7"/>
<text xml:space="preserve" text-anchor="start" x="81.88" y="-10.75" font-family="Helvetica,sans-Serif" font-size="10.00" fill="white"> </text>
<text xml:space="preserve" text-anchor="start" x="95.88" y="-10.75" font-family="Helvetica,sans-Serif" font-size="10.00" fill="white">Failure/Damage</text>
</g>
<!-- implications&#45;&gt;legend -->
</g>
</svg>
