<?xml version="1.0" encoding="UTF-8" standalone="no"?>
<!DOCTYPE svg PUBLIC "-//W3C//DTD SVG 1.1//EN"
 "http://www.w3.org/Graphics/SVG/1.1/DTD/svg11.dtd">
<!-- Generated by graphviz version 14.1.2 (20260124.0452)
 -->
<!-- Title: armor_penetration Pages: 1 -->
<svg width="297pt" height="867pt"
 viewBox="0.00 0.00 297.00 867.00" xmlns="http://www.w3.org/2000/svg" xmlns:xlink="http://www.w3.org/1999/xlink">
<g id="graph0" class="graph" transform="scale(1 1) rotate(0) translate(4 863)">
<title>armor_penetration</title>
<polygon fill="#1a1a2e" stroke="none" points="-4,4 -4,-863 293.25,-863 293.25,4 -4,4"/>
<!-- title -->
<g id="node1" class="node">
<title>title</title>
<text xml:space="preserve" text-anchor="start" x="36.62" y="-838.8" font-family="Helvetica,sans-Serif" font-weight="bold" font-size="16.00" fill="white">Armor Penetration by Range</text>
<text xml:space="preserve" text-anchor="start" x="55.38" y="-822.05" font-family="Helvetica,sans-Serif" font-size="11.00" fill="#95d5b2">20&#45;Damage Laser vs 20&#45;Layer Armor</text>
</g>
<!-- legend -->
<g id="node2" class="node">
<title>legend</title>
<path fill="#2d2d44" stroke="#4ecdc4" d="M198.88,-783.5C198.88,-783.5 90.38,-783.5 90.38,-783.5 84.38,-783.5 78.38,-777.5 78.38,-771.5 78.38,-771.5 78.38,-709.5 78.38,-709.5 78.38,-703.5 84.38,-697.5 90.38,-697.5 90.38,-697.5 198.88,-697.5 198.88,-697.5 204.88,-697.5 210.88,-703.5 210.88,-709.5 210.88,-709.5 210.88,-771.5 210.88,-771.5 210.88,-777.5 204.88,-783.5 198.88,-783.5"/>
<text xml:space="preserve" text-anchor="start" x="127.38" y="-766" font-family="Helvetica,sans-Serif" font-weight="bold" font-size="10.00" fill="white">Legend</text>
<polygon fill="#ff6b6b" stroke="none" points="89.38,-743 89.38,-758.25 104.38,-758.25 104.38,-743 89.38,-743"/>
<text xml:space="preserve" text-anchor="start" x="95.38" y="-746.75" font-family="Helvetica,sans-Serif" font-size="10.00" fill="white"> </text>
<text xml:space="preserve" text-anchor="start" x="109.38" y="-746.75" font-family="Helvetica,sans-Serif" font-size="10.00" fill="white">Penetrated armor</text>
<polygon fill="#2d2d44" stroke="none" points="89.38,-722.75 89.38,-740 104.38,-740 104.38,-722.75 89.38,-722.75"/>
<polygon fill="none" stroke="#4ecdc4" points="89.38,-722.75 89.38,-740 104.38,-740 104.38,-722.75 89.38,-722.75"/>
<text xml:space="preserve" text-anchor="start" x="95.38" y="-727.5" font-family="Helvetica,sans-Serif" font-size="10.00" fill="white"> </text>
<text xml:space="preserve" text-anchor="start" x="109.38" y="-727.5" font-family="Helvetica,sans-Serif" font-size="10.00" fill="white">Intact armor</text>
<polygon fill="#ffe66d" stroke="none" points="89.38,-704.5 89.38,-719.75 104.38,-719.75 104.38,-704.5 89.38,-704.5"/>
<text xml:space="preserve" text-anchor="start" x="95.38" y="-708.25" font-family="Helvetica,sans-Serif" font-size="10.00" fill="white"> </text>
<text xml:space="preserve" text-anchor="start" x="109.38" y="-708.25" font-family="Helvetica,sans-Serif" font-size="10.00" fill="white">Internal components</text>
</g>
<!-- title&#45;&gt;legend -->
<!-- range0 -->
<g id="node3" class="node">
<title>range0</title>
<path fill="#2d2d44" stroke="#ff6b6b" stroke-width="2" d="M270.62,-666.5C270.62,-666.5 18.62,-666.5 18.62,-666.5 12.62,-666.5 6.62,-660.5 6.62,-654.5 6.62,-654.5 6.62,-589.5 6.62,-589.5 6.62,-583.5 12.62,-577.5 18.62,-577.5 18.62,-577.5 270.62,-577.5 270.62,-577.5 276.62,-577.5 282.62,-583.5 282.62,-589.5 282.62,-589.5 282.62,-654.5 282.62,-654.5 282.62,-660.5 276.62,-666.5 270.62,-666.5"/>
<text xml:space="preserve" text-anchor="start" x="89.12" y="-650" font-family="Helvetica,sans-Serif" font-weight="bold" font-size="10.00" fill="#ff6b6b">0% Range (Point Blank)</text>
<text xml:space="preserve" text-anchor="start" x="66.25" y="-629.75" font-family="Helvetica,sans-Serif" font-size="10.00" fill="white">Damage: 20 | Penetration: 20 layers</text>
<polygon fill="#ff6b6b" stroke="none" points="14.62,-602.75 14.62,-624 27.62,-624 27.62,-602.75 14.62,-602.75"/>
<polygon fill="none" stroke="#ff6b6b" points="14.62,-602.75 14.62,-624 27.62,-624 27.62,-602.75 14.62,-602.75"/>
<text xml:space="preserve" text-anchor="start" x="19.62" y="-609.5" font-family="Helvetica,sans-Serif" font-size="10.00" fill="white"> </text>
<polygon fill="#ff6b6b" stroke="none" points="27.62,-602.75 27.62,-624 40.62,-624 40.62,-602.75 27.62,-602.75"/>
<polygon fill="none" stroke="#ff6b6b" points="27.62,-602.75 27.62,-624 40.62,-624 40.62,-602.75 27.62,-602.75"/>
<text xml:space="preserve" text-anchor="start" x="32.62" y="-609.5" font-family="Helvetica,sans-Serif" font-size="10.00" fill="white"> </text>
<polygon fill="#ff6b6b" stroke="none" points="40.62,-602.75 40.62,-624 53.62,-624 53.62,-602.75 40.62,-602.75"/>
<polygon fill="none" stroke="#ff6b6b" points="40.62,-602.75 40.62,-624 53.62,-624 53.62,-602.75 40.62,-602.75"/>
<text xml:space="preserve" text-anchor="start" x="45.62" y="-609.5" font-family="Helvetica,sans-Serif" font-size="10.00" fill="white"> </text>
<polygon fill="#ff6b6b" stroke="none" points="53.62,-602.75 53.62,-624 66.62,-624 66.62,-602.75 53.62,-602.75"/>
<polygon fill="none" stroke="#ff6b6b" points="53.62,-602.75 53.62,-624 66.62,-624 66.62,-602.75 53.62,-602.75"/>
<text xml:space="preserve" text-anchor="start" x="58.62" y="-609.5" font-family="Helvetica,sans-Serif" font-size="10.00" fill="white"> </text>
<polygon fill="#ff6b6b" stroke="none" points="66.62,-602.75 66.62,-624 79.62,-624 79.62,-602.75 66.62,-602.75"/>
<polygon fill="none" stroke="#ff6b6b" points="66.62,-602.75 66.62,-624 79.62,-624 79.62,-602.75 66.62,-602.75"/>
<text xml:space="preserve" text-anchor="start" x="71.62" y="-609.5" font-family="Helvetica,sans-Serif" font-size="10.00" fill="white"> </text>
<polygon fill="#ff6b6b" stroke="none" points="79.62,-602.75 79.62,-624 92.62,-624 92.62,-602.75 79.62,-602.75"/>
<polygon fill="none" stroke="#ff6b6b" points="79.62,-602.75 79.62,-624 92.62,-624 92.62,-602.75 79.62,-602.75"/>
<text xml:space="preserve" text-anchor="start" x="84.62" y="-609.5" font-family="Helvetica,sans-Serif" font-size="10.00" fill="white"> </text>
<polygon fill="#ff6b6b" stroke="none" points="92.62,-602.75 92.62,-624 105.62,-624 105.62,-602.75 92.62,-602.75"/>
<polygon fill="none" stroke="#ff6b6b" points="92.62,-602.75 92.62,-624 105.62,-624 105.62,-602.75 92.62,-602.75"/>
<text xml:space="preserve" text-anchor="start" x="97.62" y="-609.5" font-family="Helvetica,sans-Serif" font-size="10.00" fill="white"> </text>
<polygon fill="#ff6b6b" stroke="none" points="105.62,-602.75 105.62,-624 118.62,-624 118.62,-602.75 105.62,-602.75"/>
<polygon fill="none" stroke="#ff6b6b" points="105.62,-602.75 105.62,-624 118.62,-624 118.62,-602.75 105.62,-602.75"/>
<text xml:space="preserve" text-anchor="start" x="110.62" y="-609.5" font-family="Helvetica,sans-Serif" font-size="10.00" fill="white"> </text>
<polygon fill="#ff6b6b" stroke="none" points="118.62,-602.75 118.62,-624 131.62,-624 131.62,-602.75 118.62,-602.75"/>
<polygon fill="none" stroke="#ff6b6b" points="118.62,-602.75 118.62,-624 131.62,-624 131.62,-602.75 118.62,-602.75"/>
<text xml:space="preserve" text-anchor="start" x="123.62" y="-609.5" font-family="Helvetica,sans-Serif" font-size="10.00" fill="white"> </text>
<polygon fill="#ff6b6b" stroke="none" points="131.62,-602.75 131.62,-624 144.62,-624 144.62,-602.75 131.62,-602.75"/>
<polygon fill="none" stroke="#ff6b6b" points="131.62,-602.75 131.62,-624 144.62,-624 144.62,-602.75 131.62,-602.75"/>
<text xml:space="preserve" text-anchor="start" x="136.62" y="-609.5" font-family="Helvetica,sans-Serif" font-size="10.00" fill="white"> </text>
<polygon fill="#ff6b6b" stroke="none" points="144.62,-602.75 144.62,-624 157.62,-624 157.62,-602.75 144.62,-602.75"/>
<polygon fill="none" stroke="#ff6b6b" points="144.62,-602.75 144.62,-624 157.62,-624 157.62,-602.75 144.62,-602.75"/>
<text xml:space="preserve" text-anchor="start" x="149.62" y="-609.5" font-family="Helvetica,sans-Serif" font-size="10.00" fill="white"> </text>
<polygon fill="#ff6b6b" stroke="none" points="157.62,-602.75 157.62,-624 170.62,-624 170.62,-602.75 157.62,-602.75"/>
<polygon fill="none" stroke="#ff6b6b" points="157.62,-602.75 157.62,-624 170.62,-624 170.62,-602.75 157.62,-602.75"/>
<text xml:space="preserve" text-anchor="start" x="162.62" y="-609.5" font-family="Helvetica,sans-Serif" font-size="10.00" fill="white"> </text>
<polygon fill="#ff6b6b" stroke="none" points="170.62,-602.75 170.62,-624 183.62,-624 183.62,-602.75 170.62,-602.75"/>
<polygon fill="none" stroke="#ff6b6b" points="170.62,-602.75 170.62,-624 183.62,-624 183.62,-602.75 170.62,-602.75"/>
<text xml:space="preserve" text-anchor="start" x="175.62" y="-609.5" font-family="Helvetica,sans-Serif" font-size="10.00" fill="white"> </text>
<polygon fill="#ff6b6b" stroke="none" points="183.62,-602.75 183.62,-624 196.62,-624 196.62,-602.75 183.62,-602.75"/>
<polygon fill="none" stroke="#ff6b6b" points="183.62,-602.75 183.62,-624 196.62,-624 196.62,-602.75 183.62,-602.75"/>
<text xml:space="preserve" text-anchor="start" x="188.62" y="-609.5" font-family="Helvetica,sans-Serif" font-size="10.00" fill="white"> </text>
<polygon fill="#ff6b6b" stroke="none" points="196.62,-602.75 196.62,-624 209.62,-624 209.62,-602.75 196.62,-602.75"/>
<polygon fill="none" stroke="#ff6b6b" points="196.62,-602.75 196.62,-624 209.62,-624 209.62,-602.75 196.62,-602.75"/>
<text xml:space="preserve" text-anchor="start" x="201.62" y="-609.5" font-family="Helvetica,sans-Serif" font-size="10.00" fill="white"> </text>
<polygon fill="#ff6b6b" stroke="none" points="209.62,-602.75 209.62,-624 222.62,-624 222.62,-602.75 209.62,-602.75"/>
<polygon fill="none" stroke="#ff6b6b" points="209.62,-602.75 209.62,-624 222.62,-624 222.62,-602.75 209.62,-602.75"/>
<text xml:space="preserve" text-anchor="start" x="214.62" y="-609.5" font-family="Helvetica,sans-Serif" font-size="10.00" fill="white"> </text>
<polygon fill="#ff6b6b" stroke="none" points="222.62,-602.75 222.62,-624 235.62,-624 235.62,-602.75 222.62,-602.75"/>
<polygon fill="none" stroke="#ff6b6b" points="222.62,-602.75 222.62,-624 235.62,-624 235.62,-602.75 222.62,-602.75"/>
<text xml:space="preserve" text-anchor="start" x="227.62" y="-609.5" font-family="Helvetica,sans-Serif" font-size="10.00" fill="white"> </text>
<polygon fill="#ff6b6b" stroke="none" points="235.62,-602.75 235.62,-624 248.62,-624 248.62,-602.75 235.62,-602.75"/>
<polygon fill="none" stroke="#ff6b6b" points="235.62,-602.75 235.62,-624 248.62,-624 248.62,-602.75 235.62,-602.75"/>
<text xml:space="preserve" text-anchor="start" x="240.62" y="-609.5" font-family="Helvetica,sans-Serif" font-size="10.00" fill="white"> </text>
<polygon fill="#ff6b6b" stroke="none" points="248.62,-602.75 248.62,-624 261.62,-624 261.62,-602.75 248.62,-602.75"/>
<polygon fill="none" stroke="#ff6b6b" points="248.62,-602.75 248.62,-624 261.62,-624 261.62,-602.75 248.62,-602.75"/>
<text xml:space="preserve" text-anchor="start" x="253.62" y="-609.5" font-family="Helvetica,sans-Serif" font-size="10.00" fill="white"> </text>
<polygon fill="#ff6b6b" stroke="none" points="261.62,-602.75 261.62,-624 274.62,-624 274.62,-602.75 261.62,-602.75"/>
<polygon fill="none" stroke="#ff6b6b" points="261.62,-602.75 261.62,-624 274.62,-624 274.62,-602.75 261.62,-602.75"/>
<text xml:space="preserve" text-anchor="start" x="266.62" y="-609.5" font-family="Helvetica,sans-Serif" font-size="10.00" fill="white"> </text>
<polygon fill="#ffe66d" stroke="none" points="14.62,-581.5 14.62,-602.75 274.62,-602.75 274.62,-581.5 14.62,-581.5"/>
<polygon fill="none" stroke="#ff6b6b" points="14.62,-581.5 14.62,-602.75 274.62,-602.75 274.62,-581.5 14.62,-581.5"/>
<text xml:space="preserve" text-anchor="start" x="110.12" y="-588.25" font-family="Helvetica,sans-Serif" font-size="10.00" fill="#1a1a2e">INTERNAL HIT</text>
</g>
<!-- legend&#45;&gt;range0 -->
<!-- range25 -->
<g id="node4" class="node">
<title>range25</title>
<path fill="#2d2d44" stroke="#4ecdc4" d="M270.62,-537.75C270.62,-537.75 18.62,-537.75 18.62,-537.75 12.62,-537.75 6.62,-531.75 6.62,-525.75 6.62,-525.75 6.62,-462.75 6.62,-462.75 6.62,-456.75 12.62,-450.75 18.62,-450.75 18.62,-450.75 270.62,-450.75 270.62,-450.75 276.62,-450.75 282.62,-456.75 282.62,-462.75 282.62,-462.75 282.62,-525.75 282.62,-525.75 282.62,-531.75 276.62,-537.75 270.62,-537.75"/>
<text xml:space="preserve" text-anchor="start" x="118.38" y="-521.25" font-family="Helvetica,sans-Serif" font-weight="bold" font-size="10.00" fill="#4ecdc4">25% Range</text>
<text xml:space="preserve" text-anchor="start" x="66.25" y="-501" font-family="Helvetica,sans-Serif" font-size="10.00" fill="white">Damage: 15 | Penetration: 15 layers</text>
<polygon fill="#ff6b6b" stroke="none" points="14.62,-474 14.62,-495.25 27.62,-495.25 27.62,-474 14.62,-474"/>
<polygon fill="none" stroke="#4ecdc4" points="14.62,-474 14.62,-495.25 27.62,-495.25 27.62,-474 14.62,-474"/>
<text xml:space="preserve" text-anchor="start" x="19.62" y="-480.75" font-family="Helvetica,sans-Serif" font-size="10.00" fill="white"> </text>
<polygon fill="#ff6b6b" stroke="none" points="27.62,-474 27.62,-495.25 40.62,-495.25 40.62,-474 27.62,-474"/>
<polygon fill="none" stroke="#4ecdc4" points="27.62,-474 27.62,-495.25 40.62,-495.25 40.62,-474 27.62,-474"/>
<text xml:space="preserve" text-anchor="start" x="32.62" y="-480.75" font-family="Helvetica,sans-Serif" font-size="10.00" fill="white"> </text>
<polygon fill="#ff6b6b" stroke="none" points="40.62,-474 40.62,-495.25 53.62,-495.25 53.62,-474 40.62,-474"/>
<polygon fill="none" stroke="#4ecdc4" points="40.62,-474 40.62,-495.25 53.62,-495.25 53.62,-474 40.62,-474"/>
<text xml:space="preserve" text-anchor="start" x="45.62" y="-480.75" font-family="Helvetica,sans-Serif" font-size="10.00" fill="white"> </text>
<polygon fill="#ff6b6b" stroke="none" points="53.62,-474 53.62,-495.25 66.62,-495.25 66.62,-474 53.62,-474"/>
<polygon fill="none" stroke="#4ecdc4" points="53.62,-474 53.62,-495.25 66.62,-495.25 66.62,-474 53.62,-474"/>
<text xml:space="preserve" text-anchor="start" x="58.62" y="-480.75" font-family="Helvetica,sans-Serif" font-size="10.00" fill="white"> </text>
<polygon fill="#ff6b6b" stroke="none" points="66.62,-474 66.62,-495.25 79.62,-495.25 79.62,-474 66.62,-474"/>
<polygon fill="none" stroke="#4ecdc4" points="66.62,-474 66.62,-495.25 79.62,-495.25 79.62,-474 66.62,-474"/>
<text xml:space="preserve" text-anchor="start" x="71.62" y="-480.75" font-family="Helvetica,sans-Serif" font-size="10.00" fill="white"> </text>
<polygon fill="#ff6b6b" stroke="none" points="79.62,-474 79.62,-495.25 92.62,-495.25 92.62,-474 79.62,-474"/>
<polygon fill="none" stroke="#4ecdc4" points="79.62,-474 79.62,-495.25 92.62,-495.25 92.62,-474 79.62,-474"/>
<text xml:space="preserve" text-anchor="start" x="84.62" y="-480.75" font-family="Helvetica,sans-Serif" font-size="10.00" fill="white"> </text>
<polygon fill="#ff6b6b" stroke="none" points="92.62,-474 92.62,-495.25 105.62,-495.25 105.62,-474 92.62,-474"/>
<polygon fill="none" stroke="#4ecdc4" points="92.62,-474 92.62,-495.25 105.62,-495.25 105.62,-474 92.62,-474"/>
<text xml:space="preserve" text-anchor="start" x="97.62" y="-480.75" font-family="Helvetica,sans-Serif" font-size="10.00" fill="white"> </text>
<polygon fill="#ff6b6b" stroke="none" points="105.62,-474 105.62,-495.25 118.62,-495.25 118.62,-474 105.62,-474"/>
<polygon fill="none" stroke="#4ecdc4" points="105.62,-474 105.62,-495.25 118.62,-495.25 118.62,-474 105.62,-474"/>
<text xml:space="preserve" text-anchor="start" x="110.62" y="-480.75" font-family="Helvetica,sans-Serif" font-size="10.00" fill="white"> </text>
<polygon fill="#ff6b6b" stroke="none" points="118.62,-474 118.62,-495.25 131.62,-495.25 131.62,-474 118.62,-474"/>
<polygon fill="none" stroke="#4ecdc4" points="118.62,-474 118.62,-495.25 131.62,-495.25 131.62,-474 118.62,-474"/>
<text xml:space="preserve" text-anchor="start" x="123.62" y="-480.75" font-family="Helvetica,sans-Serif" font-size="10.00" fill="white"> </text>
<polygon fill="#ff6b6b" stroke="none" points="131.62,-474 131.62,-495.25 144.62,-495.25 144.62,-474 131.62,-474"/>
<polygon fill="none" stroke="#4ecdc4" points="131.62,-474 131.62,-495.25 144.62,-495.25 144.62,-474 131.62,-474"/>
<text xml:space="preserve" text-anchor="start" x="136.62" y="-480.75" font-family="Helvetica,sans-Serif" font-size="10.00" fill="white"> </text>
<polygon fill="#ff6b6b" stroke="none" points="144.62,-474 144.62,-495.25 157.62,-495.25 157.62,-474 144.62,-474"/>
<polygon fill="none" stroke="#4ecdc4" points="144.62,-474 144.62,-495.25 157.62,-495.25 157.62,-474 144.62,-474"/>
<text xml:space="preserve" text-anchor="start" x="149.62" y="-480.75" font-family="Helvetica,sans-Serif" font-size="10.00" fill="white"> </text>
<polygon fill="#ff6b6b" stroke="none" points="157.62,-474 157.62,-495.25 170.62,-495.25 170.62,-474 157.62,-474"/>
<polygon fill="none" stroke="#4ecdc4" points="157.62,-474 157.62,-495.25 170.62,-495.25 170.62,-474 157.62,-474"/>
<text xml:space="preserve" text-anchor="start" x="162.62" y="-480.75" font-family="Helvetica,sans-Serif" font-size="10.00" fill="white"> </text>
<polygon fill="#ff6b6b" stroke="none" points="170.62,-474 170.62,-495.25 183.62,-495.25 183.62,-474 170.62,-474"/>
<polygon fill="none" stroke="#4ecdc4" points="170.62,-474 170.62,-495.25 183.62,-495.25 183.62,-474 170.62,-474"/>
<text xml:space="preserve" text-anchor="start" x="175.62" y="-480.75" font-family="Helvetica,sans-Serif" font-size="10.00" fill="white"> </text>
<polygon fill="#ff6b6b" stroke="none" points="183.62,-474 183.62,-495.25 196.62,-495.25 196.62,-474 183.62,-474"/>
<polygon fill="none" stroke="#4ecdc4" points="183.62,-474 183.62,-495.25 196.62,-495.25 196.62,-474 183.62,-474"/>
<text xml:space="preserve" text-anchor="start" x="188.62" y="-480.75" font-family="Helvetica,sans-Serif" font-size="10.00" fill="white"> </text>
<polygon fill="#ff6b6b" stroke="none" points="196.62,-474 196.62,-495.25 209.62,-495.25 209.62,-474 196.62,-474"/>
<polygon fill="none" stroke="#4ecdc4" points="196.62,-474 196.62,-495.25 209.62,-495.25 209.62,-474 196.62,-474"/>
<text xml:space="preserve" text-anchor="start" x="201.62" y="-480.75" font-family="Helvetica,sans-Serif" font-size="10.00" fill="white"> </text>
<polygon fill="#2d2d44" stroke="none" points="209.62,-474 209.62,-495.25 222.62,-495.25 222.62,-474 209.62,-474"/>
<polygon fill="none" stroke="#4ecdc4" points="209.62,-474 209.62,-495.25 222.62,-495.25 222.62,-474 209.62,-474"/>
<text xml:space="preserve" text-anchor="start" x="214.62" y="-480.75" font-family="Helvetica,sans-Serif" font-size="10.00" fill="white"> </text>
<polygon fill="#2d2d44" stroke="none" points="222.62,-474 222.62,-495.25 235.62,-495.25 235.62,-474 222.62,-474"/>
<polygon fill="none" stroke="#4ecdc4" points="222.62,-474 222.62,-495.25 235.62,-495.25 235.62,-474 222.62,-474"/>
<text xml:space="preserve" text-anchor="start" x="227.62" y="-480.75" font-family="Helvetica,sans-Serif" font-size="10.00" fill="white"> </text>
<polygon fill="#2d2d44" stroke="none" points="235.62,-474 235.62,-495.25 248.62,-495.25 248.62,-474 235.62,-474"/>
<polygon fill="none" stroke="#4ecdc4" points="235.62,-474 235.62,-495.25 248.62,-495.25 248.62,-474 235.62,-474"/>
<text xml:space="preserve" text-anchor="start" x="240.62" y="-480.75" font-family="Helvetica,sans-Serif" font-size="10.00" fill="white"> </text>
<polygon fill="#2d2d44" stroke="none" points="248.62,-474 248.62,-495.25 261.62,-495.25 261.62,-474 248.62,-474"/>
<polygon fill="none" stroke="#4ecdc4" points="248.62,-474 248.62,-495.25 261.62,-495.25 261.62,-474 248.62,-474"/>
<text xml:space="preserve" text-anchor="start" x="253.62" y="-480.75" font-family="Helvetica,sans-Serif" font-size="10.00" fill="white"> </text>
<polygon fill="#2d2d44" stroke="none" points="261.62,-474 261.62,-495.25 274.62,-495.25 274.62,-474 261.62,-474"/>
<polygon fill="none" stroke="#4ecdc4" points="261.62,-474 261.62,-495.25 274.62,-495.25 274.62,-474 261.62,-474"/>
<text xml:space="preserve" text-anchor="start" x="266.62" y="-480.75" font-family="Helvetica,sans-Serif" font-size="10.00" fill="white"> </text>
<text xml:space="preserve" text-anchor="start" x="104.88" y="-460.5" font-family="Helvetica,sans-Serif" font-size="10.00" fill="#95d5b2">5 layers remaining</text>
</g>
<!-- range0&#45;&gt;range25 -->
<g id="edge3" class="edge">
<title>range0&#45;&gt;range25</title>
<path fill="none" stroke="#4ecdc4" stroke-dasharray="5,2" d="M144.62,-576.67C144.62,-567.82 144.62,-558.43 144.62,-549.29"/>
<polygon fill="#4ecdc4" stroke="#4ecdc4" points="148.13,-549.43 144.63,-539.43 141.13,-549.43 148.13,-549.43"/>
<text xml:space="preserve" text-anchor="middle" x="160.38" y="-553.95" font-family="Helvetica,sans-Serif" font-size="9.00" fill="white">Closing</text>
</g>
<!-- range50 -->
<g id="node5" class="node">
<title>range50</title>
<path fill="#2d2d44" stroke="#4ecdc4" d="M270.62,-419.75C270.62,-419.75 18.62,-419.75 18.62,-419.75 12.62,-419.75 6.62,-413.75 6.62,-407.75 6.62,-407.75 6.62,-344.75 6.62,-344.75 6.62,-338.75 12.62,-332.75 18.62,-332.75 18.62,-332.75 270.62,-332.75 270.62,-332.75 276.62,-332.75 282.62,-338.75 282.62,-344.75 282.62,-344.75 282.62,-407.75 282.62,-407.75 282.62,-413.75 276.62,-419.75 270.62,-419.75"/>
<text xml:space="preserve" text-anchor="start" x="118.38" y="-403.25" font-family="Helvetica,sans-Serif" font-weight="bold" font-size="10.00" fill="#4ecdc4">50% Range</text>
<text xml:space="preserve" text-anchor="start" x="66.25" y="-383" font-family="Helvetica,sans-Serif" font-size="10.00" fill="white">Damage: 10 | Penetration: 10 layers</text>
<polygon fill="#ff6b6b" stroke="none" points="14.62,-356 14.62,-377.25 27.62,-377.25 27.62,-356 14.62,-356"/>
<polygon fill="none" stroke="#4ecdc4" points="14.62,-356 14.62,-377.25 27.62,-377.25 27.62,-356 14.62,-356"/>
<text xml:space="preserve" text-anchor="start" x="19.62" y="-362.75" font-family="Helvetica,sans-Serif" font-size="10.00" fill="white"> </text>
<polygon fill="#ff6b6b" stroke="none" points="27.62,-356 27.62,-377.25 40.62,-377.25 40.62,-356 27.62,-356"/>
<polygon fill="none" stroke="#4ecdc4" points="27.62,-356 27.62,-377.25 40.62,-377.25 40.62,-356 27.62,-356"/>
<text xml:space="preserve" text-anchor="start" x="32.62" y="-362.75" font-family="Helvetica,sans-Serif" font-size="10.00" fill="white"> </text>
<polygon fill="#ff6b6b" stroke="none" points="40.62,-356 40.62,-377.25 53.62,-377.25 53.62,-356 40.62,-356"/>
<polygon fill="none" stroke="#4ecdc4" points="40.62,-356 40.62,-377.25 53.62,-377.25 53.62,-356 40.62,-356"/>
<text xml:space="preserve" text-anchor="start" x="45.62" y="-362.75" font-family="Helvetica,sans-Serif" font-size="10.00" fill="white"> </text>
<polygon fill="#ff6b6b" stroke="none" points="53.62,-356 53.62,-377.25 66.62,-377.25 66.62,-356 53.62,-356"/>
<polygon fill="none" stroke="#4ecdc4" points="53.62,-356 53.62,-377.25 66.62,-377.25 66.62,-356 53.62,-356"/>
<text xml:space="preserve" text-anchor="start" x="58.62" y="-362.75" font-family="Helvetica,sans-Serif" font-size="10.00" fill="white"> </text>
<polygon fill="#ff6b6b" stroke="none" points="66.62,-356 66.62,-377.25 79.62,-377.25 79.62,-356 66.62,-356"/>
<polygon fill="none" stroke="#4ecdc4" points="66.62,-356 66.62,-377.25 79.62,-377.25 79.62,-356 66.62,-356"/>
<text xml:space="preserve" text-anchor="start" x="71.62" y="-362.75" font-family="Helvetica,sans-Serif" font-size="10.00" fill="white"> </text>
<polygon fill="#ff6b6b" stroke="none" points="79.62,-356 79.62,-377.25 92.62,-377.25 92.62,-356 79.62,-356"/>
<polygon fill="none" stroke="#4ecdc4" points="79.62,-356 79.62,-377.25 92.62,-377.25 92.62,-356 79.62,-356"/>
<text xml:space="preserve" text-anchor="start" x="84.62" y="-362.75" font-family="Helvetica,sans-Serif" font-size="10.00" fill="white"> </text>
<polygon fill="#ff6b6b" stroke="none" points="92.62,-356 92.62,-377.25 105.62,-377.25 105.62,-356 92.62,-356"/>
<polygon fill="none" stroke="#4ecdc4" points="92.62,-356 92.62,-377.25 105.62,-377.25 105.62,-356 92.62,-356"/>
<text xml:space="preserve" text-anchor="start" x="97.62" y="-362.75" font-family="Helvetica,sans-Serif" font-size="10.00" fill="white"> </text>
<polygon fill="#ff6b6b" stroke="none" points="105.62,-356 105.62,-377.25 118.62,-377.25 118.62,-356 105.62,-356"/>
<polygon fill="none" stroke="#4ecdc4" points="105.62,-356 105.62,-377.25 118.62,-377.25 118.62,-356 105.62,-356"/>
<text xml:space="preserve" text-anchor="start" x="110.62" y="-362.75" font-family="Helvetica,sans-Serif" font-size="10.00" fill="white"> </text>
<polygon fill="#ff6b6b" stroke="none" points="118.62,-356 118.62,-377.25 131.62,-377.25 131.62,-356 118.62,-356"/>
<polygon fill="none" stroke="#4ecdc4" points="118.62,-356 118.62,-377.25 131.62,-377.25 131.62,-356 118.62,-356"/>
<text xml:space="preserve" text-anchor="start" x="123.62" y="-362.75" font-family="Helvetica,sans-Serif" font-size="10.00" fill="white"> </text>
<polygon fill="#ff6b6b" stroke="none" points="131.62,-356 131.62,-377.25 144.62,-377.25 144.62,-356 131.62,-356"/>
<polygon fill="none" stroke="#4ecdc4" points="131.62,-356 131.62,-377.25 144.62,-377.25 144.62,-356 131.62,-356"/>
<text xml:space="preserve" text-anchor="start" x="136.62" y="-362.75" font-family="Helvetica,sans-Serif" font-size="10.00" fill="white"> </text>
<polygon fill="#2d2d44" stroke="none" points="144.62,-356 144.62,-377.25 157.62,-377.25 157.62,-356 144.62,-356"/>
<polygon fill="none" stroke="#4ecdc4" points="144.62,-356 144.62,-377.25 157.62,-377.25 157.62,-356 144.62,-356"/>
<text xml:space="preserve" text-anchor="start" x="149.62" y="-362.75" font-family="Helvetica,sans-Serif" font-size="10.00" fill="white"> </text>
<polygon fill="#2d2d44" stroke="none" points="157.62,-356 157.62,-377.25 170.62,-377.25 170.62,-356 157.62,-356"/>
<polygon fill="none" stroke="#4ecdc4" points="157.62,-356 157.62,-377.25 170.62,-377.25 170.62,-356 157.62,-356"/>
<text xml:space="preserve" text-anchor="start" x="162.62" y="-362.75" font-family="Helvetica,sans-Serif" font-size="10.00" fill="white"> </text>
<polygon fill="#2d2d44" stroke="none" points="170.62,-356 170.62,-377.25 183.62,-377.25 183.62,-356 170.62,-356"/>
<polygon fill="none" stroke="#4ecdc4" points="170.62,-356 170.62,-377.25 183.62,-377.25 183.62,-356 170.62,-356"/>
<text xml:space="preserve" text-anchor="start" x="175.62" y="-362.75" font-family="Helvetica,sans-Serif" font-size="10.00" fill="white"> </text>
<polygon fill="#2d2d44" stroke="none" points="183.62,-356 183.62,-377.25 196.62,-377.25 196.62,-356 183.62,-356"/>
<polygon fill="none" stroke="#4ecdc4" points="183.62,-356 183.62,-377.25 196.62,-377.25 196.62,-356 183.62,-356"/>
<text xml:space="preserve" text-anchor="start" x="188.62" y="-362.75" font-family="Helvetica,sans-Serif" font-size="10.00" fill="white"> </text>
<polygon fill="#2d2d44" stroke="none" points="196.62,-356 196.62,-377.25 209.62,-377.25 209.62,-356 196.62,-356"/>
<polygon fill="none" stroke="#4ecdc4" points="196.62,-356 196.62,-377.25 209.62,-377.25 209.62,-356 196.62,-356"/>
<text xml:space="preserve" text-anchor="start" x="201.62" y="-362.75" font-family="Helvetica,sans-Serif" font-size="10.00" fill="white"> </text>
<polygon fill="#2d2d44" stroke="none" points="209.62,-356 209.62,-377.25 222.62,-377.25 222.62,-356 209.62,-356"/>
<polygon fill="none" stroke="#4ecdc4" points="209.62,-356 209.62,-377.25 222.62,-377.25 222.62,-356 209.62,-356"/>
<text xml:space="preserve" text-anchor="start" x="214.62" y="-362.75" font-family="Helvetica,sans-Serif" font-size="10.00" fill="white"> </text>
<polygon fill="#2d2d44" stroke="none" points="222.62,-356 222.62,-377.25 235.62,-377.25 235.62,-356 222.62,-356"/>
<polygon fill="none" stroke="#4ecdc4" points="222.62,-356 222.62,-377.25 235.62,-377.25 235.62,-356 222.62,-356"/>
<text xml:space="preserve" text-anchor="start" x="227.62" y="-362.75" font-family="Helvetica,sans-Serif" font-size="10.00" fill="white"> </text>
<polygon fill="#2d2d44" stroke="none" points="235.62,-356 235.62,-377.25 248.62,-377.25 248.62,-356 235.62,-356"/>
<polygon fill="none" stroke="#4ecdc4" points="235.62,-356 235.62,-377.25 248.62,-377.25 248.62,-356 235.62,-356"/>
<text xml:space="preserve" text-anchor="start" x="240.62" y="-362.75" font-family="Helvetica,sans-Serif" font-size="10.00" fill="white"> </text>
<polygon fill="#2d2d44" stroke="none" points="248.62,-356 248.62,-377.25 261.62,-377.25 261.62,-356 248.62,-356"/>
<polygon fill="none" stroke="#4ecdc4" points="248.62,-356 248.62,-377.25 261.62,-377.25 261.62,-356 248.62,-356"/>
<text xml:space="preserve" text-anchor="start" x="253.62" y="-362.75" font-family="Helvetica,sans-Serif" font-size="10.00" fill="white"> </text>
<polygon fill="#2d2d44" stroke="none" points="261.62,-356 261.62,-377.25 274.62,-377.25 274.62,-356 261.62,-356"/>
<polygon fill="none" stroke="#4ecdc4" points="261.62,-356 261.62,-377.25 274.62,-377.25 274.62,-356 261.62,-356"/>
<text xml:space="preserve" text-anchor="start" x="266.62" y="-362.75" font-family="Helvetica,sans-Serif" font-size="10.00" fill="white"> </text>
<text xml:space="preserve" text-anchor="start" x="102.25" y="-342.5" font-family="Helvetica,sans-Serif" font-size="10.00" fill="#95d5b2">10 layers remaining</text>
</g>
<!-- range25&#45;&gt;range50 -->
<g id="edge4" class="edge">
<title>range25&#45;&gt;range50</title>
<path fill="none" stroke="#4ecdc4" stroke-dasharray="5,2" d="M144.62,-450.39C144.62,-444.17 144.62,-437.71 144.62,-431.32"/>
<polygon fill="#4ecdc4" stroke="#4ecdc4" points="148.13,-431.45 144.63,-421.45 141.13,-431.45 148.13,-431.45"/>
</g>
<!-- range75 -->
<g id="node6" class="node">
<title>range75</title>
<path fill="#2d2d44" stroke="#4ecdc4" d="M270.62,-301.75C270.62,-301.75 18.62,-301.75 18.62,-301.75 12.62,-301.75 6.62,-295.75 6.62,-289.75 6.62,-289.75 6.62,-226.75 6.62,-226.75 6.62,-220.75 12.62,-214.75 18.62,-214.75 18.62,-214.75 270.62,-214.75 270.62,-214.75 276.62,-214.75 282.62,-220.75 282.62,-226.75 282.62,-226.75 282.62,-289.75 282.62,-289.75 282.62,-295.75 276.62,-301.75 270.62,-301.75"/>
<text xml:space="preserve" text-anchor="start" x="118.38" y="-285.25" font-family="Helvetica,sans-Serif" font-weight="bold" font-size="10.00" fill="#4ecdc4">75% Range</text>
<text xml:space="preserve" text-anchor="start" x="71.5" y="-265" font-family="Helvetica,sans-Serif" font-size="10.00" fill="white">Damage: 5 | Penetration: 5 layers</text>
<polygon fill="#ff6b6b" stroke="none" points="14.62,-238 14.62,-259.25 27.62,-259.25 27.62,-238 14.62,-238"/>
<polygon fill="none" stroke="#4ecdc4" points="14.62,-238 14.62,-259.25 27.62,-259.25 27.62,-238 14.62,-238"/>
<text xml:space="preserve" text-anchor="start" x="19.62" y="-244.75" font-family="Helvetica,sans-Serif" font-size="10.00" fill="white"> </text>
<polygon fill="#ff6b6b" stroke="none" points="27.62,-238 27.62,-259.25 40.62,-259.25 40.62,-238 27.62,-238"/>
<polygon fill="none" stroke="#4ecdc4" points="27.62,-238 27.62,-259.25 40.62,-259.25 40.62,-238 27.62,-238"/>
<text xml:space="preserve" text-anchor="start" x="32.62" y="-244.75" font-family="Helvetica,sans-Serif" font-size="10.00" fill="white"> </text>
<polygon fill="#ff6b6b" stroke="none" points="40.62,-238 40.62,-259.25 53.62,-259.25 53.62,-238 40.62,-238"/>
<polygon fill="none" stroke="#4ecdc4" points="40.62,-238 40.62,-259.25 53.62,-259.25 53.62,-238 40.62,-238"/>
<text xml:space="preserve" text-anchor="start" x="45.62" y="-244.75" font-family="Helvetica,sans-Serif" font-size="10.00" fill="white"> </text>
<polygon fill="#ff6b6b" stroke="none" points="53.62,-238 53.62,-259.25 66.62,-259.25 66.62,-238 53.62,-238"/>
<polygon fill="none" stroke="#4ecdc4" points="53.62,-238 53.62,-259.25 66.62,-259.25 66.62,-238 53.62,-238"/>
<text xml:space="preserve" text-anchor="start" x="58.62" y="-244.75" font-family="Helvetica,sans-Serif" font-size="10.00" fill="white"> </text>
<polygon fill="#ff6b6b" stroke="none" points="66.62,-238 66.62,-259.25 79.62,-259.25 79.62,-238 66.62,-238"/>
<polygon fill="none" stroke="#4ecdc4" points="66.62,-238 66.62,-259.25 79.62,-259.25 79.62,-238 66.62,-238"/>
<text xml:space="preserve" text-anchor="start" x="71.62" y="-244.75" font-family="Helvetica,sans-Serif" font-size="10.00" fill="white"> </text>
<polygon fill="#2d2d44" stroke="none" points="79.62,-238 79.62,-259.25 92.62,-259.25 92.62,-238 79.62,-238"/>
<polygon fill="none" stroke="#4ecdc4" points="79.62,-238 79.62,-259.25 92.62,-259.25 92.62,-238 79.62,-238"/>
<text xml:space="preserve" text-anchor="start" x="84.62" y="-244.75" font-family="Helvetica,sans-Serif" font-size="10.00" fill="white"> </text>
<polygon fill="#2d2d44" stroke="none" points="92.62,-238 92.62,-259.25 105.62,-259.25 105.62,-238 92.62,-238"/>
<polygon fill="none" stroke="#4ecdc4" points="92.62,-238 92.62,-259.25 105.62,-259.25 105.62,-238 92.62,-238"/>
<text xml:space="preserve" text-anchor="start" x="97.62" y="-244.75" font-family="Helvetica,sans-Serif" font-size="10.00" fill="white"> </text>
<polygon fill="#2d2d44" stroke="none" points="105.62,-238 105.62,-259.25 118.62,-259.25 118.62,-238 105.62,-238"/>
<polygon fill="none" stroke="#4ecdc4" points="105.62,-238 105.62,-259.25 118.62,-259.25 118.62,-238 105.62,-238"/>
<text xml:space="preserve" text-anchor="start" x="110.62" y="-244.75" font-family="Helvetica,sans-Serif" font-size="10.00" fill="white"> </text>
<polygon fill="#2d2d44" stroke="none" points="118.62,-238 118.62,-259.25 131.62,-259.25 131.62,-238 118.62,-238"/>
<polygon fill="none" stroke="#4ecdc4" points="118.62,-238 118.62,-259.25 131.62,-259.25 131.62,-238 118.62,-238"/>
<text xml:space="preserve" text-anchor="start" x="123.62" y="-244.75" font-family="Helvetica,sans-Serif" font-size="10.00" fill="white"> </text>
<polygon fill="#2d2d44" stroke="none" points="131.62,-238 131.62,-259.25 144.62,-259.25 144.62,-238 131.62,-238"/>
<polygon fill="none" stroke="#4ecdc4" points="131.62,-238 131.62,-259.25 144.62,-259.25 144.62,-238 131.62,-238"/>
<text xml:space="preserve" text-anchor="start" x="136.62" y="-244.75" font-family="Helvetica,sans-Serif" font-size="10.00" fill="white"> </text>
<polygon fill="#2d2d44" stroke="none" points="144.62,-238 144.62,-259.25 157.62,-259.25 157.62,-238 144.62,-238"/>
<polygon fill="none" stroke="#4ecdc4" points="144.62,-238 144.62,-259.25 157.62,-259.25 157.62,-238 144.62,-238"/>
<text xml:space="preserve" text-anchor="start" x="149.62" y="-244.75" font-family="Helvetica,sans-Serif" font-size="10.00" fill="white"> </text>
<polygon fill="#2d2d44" stroke="none" points="157.62,-238 157.62,-259.25 170.62,-259.25 170.62,-238 157.62,-238"/>
<polygon fill="none" stroke="#4ecdc4" points="157.62,-238 157.62,-259.25 170.62,-259.25 170.62,-238 157.62,-238"/>
<text xml:space="preserve" text-anchor="start" x="162.62" y="-244.75" font-family="Helvetica,sans-Serif" font-size="10.00" fill="white"> </text>
<polygon fill="#2d2d44" stroke="none" points="170.62,-238 170.62,-259.25 183.62,-259.25 183.62,-238 170.62,-238"/>
<polygon fill="none" stroke="#4ecdc4" points="170.62,-238 170.62,-259.25 183.62,-259.25 183.62,-238 170.62,-238"/>
<text xml:space="preserve" text-anchor="start" x="175.62" y="-244.75" font-family="Helvetica,sans-Serif" font-size="10.00" fill="white"> </text>
<polygon fill="#2d2d44" stroke="none" points="183.62,-238 183.62,-259.25 196.62,-259.25 196.62,-238 183.62,-238"/>
<polygon fill="none" stroke="#4ecdc4" points="183.62,-238 183.62,-259.25 196.62,-259.25 196.62,-238 183.62,-238"/>
<text xml:space="preserve" text-anchor="start" x="188.62" y="-244.75" font-family="Helvetica,sans-Serif" font-size="10.00" fill="white"> </text>
<polygon fill="#2d2d44" stroke="none" points="196.62,-238 196.62,-259.25 209.62,-259.25 209.62,-238 196.62,-238"/>
<polygon fill="none" stroke="#4ecdc4" points="196.62,-238 196.62,-259.25 209.62,-259.25 209.62,-238 196.62,-238"/>
<text xml:space="preserve" text-anchor="start" x="201.62" y="-244.75" font-family="Helvetica,sans-Serif" font-size="10.00" fill="white"> </text>
<polygon fill="#2d2d44" stroke="none" points="209.62,-238 209.62,-259.25 222.62,-259.25 222.62,-238 209.62,-238"/>
<polygon fill="none" stroke="#4ecdc4" points="209.62,-238 209.62,-259.25 222.62,-259.25 222.62,-238 209.62,-238"/>
<text xml:space="preserve" text-anchor="start" x="214.62" y="-244.75" font-family="Helvetica,sans-Serif" font-size="10.00" fill="white"> </text>
<polygon fill="#2d2d44" stroke="none" points="222.62,-238 222.62,-259.25 235.62,-259.25 235.62,-238 222.62,-238"/>
<polygon fill="none" stroke="#4ecdc4" points="222.62,-238 222.62,-259.25 235.62,-259.25 235.62,-238 222.62,-238"/>
<text xml:space="preserve" text-anchor="start" x="227.62" y="-244.75" font-family="Helvetica,sans-Serif" font-size="10.00" fill="white"> </text>
<polygon fill="#2d2d44" stroke="none" points="235.62,-238 235.62,-259.25 248.62,-259.25 248.62,-238 235.62,-238"/>
<polygon fill="none" stroke="#4ecdc4" points="235.62,-238 235.62,-259.25 248.62,-259.25 248.62,-238 235.62,-238"/>
<text xml:space="preserve" text-anchor="start" x="240.62" y="-244.75" font-family="Helvetica,sans-Serif" font-size="10.00" fill="white"> </text>
<polygon fill="#2d2d44" stroke="none" points="248.62,-238 248.62,-259.25 261.62,-259.25 261.62,-238 248.62,-238"/>
<polygon fill="none" stroke="#4ecdc4" points="248.62,-238 248.62,-259.25 261.62,-259.25 261.62,-238 248.62,-238"/>
<text xml:space="preserve" text-anchor="start" x="253.62" y="-244.75" font-family="Helvetica,sans-Serif" font-size="10.00" fill="white"> </text>
<polygon fill="#2d2d44" stroke="none" points="261.62,-238 261.62,-259.25 274.62,-259.25 274.62,-238 261.62,-238"/>
<polygon fill="none" stroke="#4ecdc4" points="261.62,-238 261.62,-259.25 274.62,-259.25 274.62,-238 261.62,-238"/>
<text xml:space="preserve" text-anchor="start" x="266.62" y="-244.75" font-family="Helvetica,sans-Serif" font-size="10.00" fill="white"> </text>
<text xml:space="preserve" text-anchor="start" x="102.25" y="-224.5" font-family="Helvetica,sans-Serif" font-size="10.00" fill="#95d5b2">15 layers remaining</text>
</g>
<!-- range50&#45;&gt;range75 -->
<g id="edge5" class="edge">
<title>range50&#45;&gt;range75</title>
<path fill="none" stroke="#4ecdc4" stroke-dasharray="5,2" d="M144.62,-332.39C144.62,-326.17 144.62,-319.71 144.62,-313.32"/>
<polygon fill="#4ecdc4" stroke="#4ecdc4" points="148.13,-313.45 144.63,-303.45 141.13,-313.45 148.13,-313.45"/>
</g>
<!-- range100 -->
<g id="node7" class="node">
<title>range100</title>
<path fill="#2d2d44" stroke="#ffe66d" d="M270.62,-183.75C270.62,-183.75 18.62,-183.75 18.62,-183.75 12.62,-183.75 6.62,-177.75 6.62,-171.75 6.62,-171.75 6.62,-108.75 6.62,-108.75 6.62,-102.75 12.62,-96.75 18.62,-96.75 18.62,-96.75 270.62,-96.75 270.62,-96.75 276.62,-96.75 282.62,-102.75 282.62,-108.75 282.62,-108.75 282.62,-171.75 282.62,-171.75 282.62,-177.75 276.62,-183.75 270.62,-183.75"/>
<text xml:space="preserve" text-anchor="start" x="88.38" y="-167.25" font-family="Helvetica,sans-Serif" font-weight="bold" font-size="10.00" fill="#ffe66d">100% Range (Maximum)</text>
<text xml:space="preserve" text-anchor="start" x="74.12" y="-147" font-family="Helvetica,sans-Serif" font-size="10.00" fill="white">Damage: 1 | Penetration: 1 layer</text>
<polygon fill="#ff6b6b" stroke="none" points="14.62,-120 14.62,-141.25 27.62,-141.25 27.62,-120 14.62,-120"/>
<polygon fill="none" stroke="#ffe66d" points="14.62,-120 14.62,-141.25 27.62,-141.25 27.62,-120 14.62,-120"/>
<text xml:space="preserve" text-anchor="start" x="19.62" y="-126.75" font-family="Helvetica,sans-Serif" font-size="10.00" fill="white"> </text>
<polygon fill="#2d2d44" stroke="none" points="27.62,-120 27.62,-141.25 40.62,-141.25 40.62,-120 27.62,-120"/>
<polygon fill="none" stroke="#4ecdc4" points="27.62,-120 27.62,-141.25 40.62,-141.25 40.62,-120 27.62,-120"/>
<text xml:space="preserve" text-anchor="start" x="32.62" y="-126.75" font-family="Helvetica,sans-Serif" font-size="10.00" fill="white"> </text>
<polygon fill="#2d2d44" stroke="none" points="40.62,-120 40.62,-141.25 53.62,-141.25 53.62,-120 40.62,-120"/>
<polygon fill="none" stroke="#4ecdc4" points="40.62,-120 40.62,-141.25 53.62,-141.25 53.62,-120 40.62,-120"/>
<text xml:space="preserve" text-anchor="start" x="45.62" y="-126.75" font-family="Helvetica,sans-Serif" font-size="10.00" fill="white"> </text>
<polygon fill="#2d2d44" stroke="none" points="53.62,-120 53.62,-141.25 66.62,-141.25 66.62,-120 53.62,-120"/>
<polygon fill="none" stroke="#4ecdc4" points="53.62,-120 53.62,-141.25 66.62,-141.25 66.62,-120 53.62,-120"/>
<text xml:space="preserve" text-anchor="start" x="58.62" y="-126.75" font-family="Helvetica,sans-Serif" font-size="10.00" fill="white"> </text>
<polygon fill="#2d2d44" stroke="none" points="66.62,-120 66.62,-141.25 79.62,-141.25 79.62,-120 66.62,-120"/>
<polygon fill="none" stroke="#4ecdc4" points="66.62,-120 66.62,-141.25 79.62,-141.25 79.62,-120 66.62,-120"/>
<text xml:space="preserve" text-anchor="start" x="71.62" y="-126.75" font-family="Helvetica,sans-Serif" font-size="10.00" fill="white"> </text>
<polygon fill="#2d2d44" stroke="none" points="79.62,-120 79.62,-141.25 92.62,-141.25 92.62,-120 79.62,-120"/>
<polygon fill="none" stroke="#4ecdc4" points="79.62,-120 79.62,-141.25 92.62,-141.25 92.62,-120 79.62,-120"/>
<text xml:space="preserve" text-anchor="start" x="84.62" y="-126.75" font-family="Helvetica,sans-Serif" font-size="10.00" fill="white"> </text>
<polygon fill="#2d2d44" stroke="none" points="92.62,-120 92.62,-141.25 105.62,-141.25 105.62,-120 92.62,-120"/>
<polygon fill="none" stroke="#4ecdc4" points="92.62,-120 92.62,-141.25 105.62,-141.25 105.62,-120 92.62,-120"/>
<text xml:space="preserve" text-anchor="start" x="97.62" y="-126.75" font-family="Helvetica,sans-Serif" font-size="10.00" fill="white"> </text>
<polygon fill="#2d2d44" stroke="none" points="105.62,-120 105.62,-141.25 118.62,-141.25 118.62,-120 105.62,-120"/>
<polygon fill="none" stroke="#4ecdc4" points="105.62,-120 105.62,-141.25 118.62,-141.25 118.62,-120 105.62,-120"/>
<text xml:space="preserve" text-anchor="start" x="110.62" y="-126.75" font-family="Helvetica,sans-Serif" font-size="10.00" fill="white"> </text>
<polygon fill="#2d2d44" stroke="none" points="118.62,-120 118.62,-141.25 131.62,-141.25 131.62,-120 118.62,-120"/>
<polygon fill="none" stroke="#4ecdc4" points="118.62,-120 118.62,-141.25 131.62,-141.25 131.62,-120 118.62,-120"/>
<text xml:space="preserve" text-anchor="start" x="123.62" y="-126.75" font-family="Helvetica,sans-Serif" font-size="10.00" fill="white"> </text>
<polygon fill="#2d2d44" stroke="none" points="131.62,-120 131.62,-141.25 144.62,-141.25 144.62,-120 131.62,-120"/>
<polygon fill="none" stroke="#4ecdc4" points="131.62,-120 131.62,-141.25 144.62,-141.25 144.62,-120 131.62,-120"/>
<text xml:space="preserve" text-anchor="start" x="136.62" y="-126.75" font-family="Helvetica,sans-Serif" font-size="10.00" fill="white"> </text>
<polygon fill="#2d2d44" stroke="none" points="144.62,-120 144.62,-141.25 157.62,-141.25 157.62,-120 144.62,-120"/>
<polygon fill="none" stroke="#4ecdc4" points="144.62,-120 144.62,-141.25 157.62,-141.25 157.62,-120 144.62,-120"/>
<text xml:space="preserve" text-anchor="start" x="149.62" y="-126.75" font-family="Helvetica,sans-Serif" font-size="10.00" fill="white"> </text>
<polygon fill="#2d2d44" stroke="none" points="157.62,-120 157.62,-141.25 170.62,-141.25 170.62,-120 157.62,-120"/>
<polygon fill="none" stroke="#4ecdc4" points="157.62,-120 157.62,-141.25 170.62,-141.25 170.62,-120 157.62,-120"/>
<text xml:space="preserve" text-anchor="start" x="162.62" y="-126.75" font-family="Helvetica,sans-Serif" font-size="10.00" fill="white"> </text>
<polygon fill="#2d2d44" stroke="none" points="170.62,-120 170.62,-141.25 183.62,-141.25 183.62,-120 170.62,-120"/>
<polygon fill="none" stroke="#4ecdc4" points="170.62,-120 170.62,-141.25 183.62,-141.25 183.62,-120 170.62,-120"/>
<text xml:space="preserve" text-anchor="start" x="175.62" y="-126.75" font-family="Helvetica,sans-Serif" font-size="10.00" fill="white"> </text>
<polygon fill="#2d2d44" stroke="none" points="183.62,-120 183.62,-141.25 196.62,-141.25 196.62,-120 183.62,-120"/>
<polygon fill="none" stroke="#4ecdc4" points="183.62,-120 183.62,-141.25 196.62,-141.25 196.62,-120 183.62,-120"/>
<text xml:space="preserve" text-anchor="start" x="188.62" y="-126.75" font-family="Helvetica,sans-Serif" font-size="10.00" fill="white"> </text>
<polygon fill="#2d2d44" stroke="none" points="196.62,-120 196.62,-141.25 209.62,-141.25 209.62,-120 196.62,-120"/>
<polygon fill="none" stroke="#4ecdc4" points="196.62,-120 196.62,-141.25 209.62,-141.25 209.62,-120 196.62,-120"/>
<text xml:space="preserve" text-anchor="start" x="201.62" y="-126.75" font-family="Helvetica,sans-Serif" font-size="10.00" fill="white"> </text>
<polygon fill="#2d2d44" stroke="none" points="209.62,-120 209.62,-141.25 222.62,-141.25 222.62,-120 209.62,-120"/>
<polygon fill="none" stroke="#4ecdc4" points="209.62,-120 209.62,-141.25 222.62,-141.25 222.62,-120 209.62,-120"/>
<text xml:space="preserve" text-anchor="start" x="214.62" y="-126.75" font-family="Helvetica,sans-Serif" font-size="10.00" fill="white"> </text>
<polygon fill="#2d2d44" stroke="none" points="222.62,-120 222.62,-141.25 235.62,-141.25 235.62,-120 222.62,-120"/>
<polygon fill="none" stroke="#4ecdc4" points="222.62,-120 222.62,-141.25 235.62,-141.25 235.62,-120 222.62,-120"/>
<text xml:space="preserve" text-anchor="start" x="227.62" y="-126.75" font-family="Helvetica,sans-Serif" font-size="10.00" fill="white"> </text>
<polygon fill="#2d2d44" stroke="none" points="235.62,-120 235.62,-141.25 248.62,-141.25 248.62,-120 235.62,-120"/>
<polygon fill="none" stroke="#4ecdc4" points="235.62,-120 235.62,-141.25 248.62,-141.25 248.62,-120 235.62,-120"/>
<text xml:space="preserve" text-anchor="start" x="240.62" y="-126.75" font-family="Helvetica,sans-Serif" font-size="10.00" fill="white"> </text>
<polygon fill="#2d2d44" stroke="none" points="248.62,-120 248.62,-141.25 261.62,-141.25 261.62,-120 248.62,-120"/>
<polygon fill="none" stroke="#4ecdc4" points="248.62,-120 248.62,-141.25 261.62,-141.25 261.62,-120 248.62,-120"/>
<text xml:space="preserve" text-anchor="start" x="253.62" y="-126.75" font-family="Helvetica,sans-Serif" font-size="10.00" fill="white"> </text>
<polygon fill="#2d2d44" stroke="none" points="261.62,-120 261.62,-141.25 274.62,-141.25 274.62,-120 261.62,-120"/>
<polygon fill="none" stroke="#4ecdc4" points="261.62,-120 261.62,-141.25 274.62,-141.25 274.62,-120 261.62,-120"/>
<text xml:space="preserve" text-anchor="start" x="266.62" y="-126.75" font-family="Helvetica,sans-Serif" font-size="10.00" fill="white"> </text>
<text xml:space="preserve" text-anchor="start" x="43" y="-106.5" font-family="Helvetica,sans-Serif" font-size="10.00" fill="#ffe66d">Chip damage only &#45; ineffective vs heavy armor</text>
</g>
<!-- range75&#45;&gt;range100 -->
<g id="edge6" class="edge">
<title>range75&#45;&gt;range100</title>
<path fill="none" stroke="#4ecdc4" stroke-dasharray="5,2" d="M144.62,-214.39C144.62,-208.17 144.62,-201.71 144.62,-195.32"/>
<polygon fill="#4ecdc4" stroke="#4ecdc4" points="148.13,-195.45 144.63,-185.45 141.13,-195.45 148.13,-195.45"/>
</g>
<!-- insight -->
<g id="node8" class="node">
<title>insight</title>
<path fill="#2d2d44" stroke="#95d5b2" d="M277.25,-65.75C277.25,-65.75 12,-65.75 12,-65.75 6,-65.75 0,-59.75 0,-53.75 0,-53.75 0,-12 0,-12 0,-6 6,0 12,0 12,0 277.25,0 277.25,0 283.25,0 289.25,-6 289.25,-12 289.25,-12 289.25,-53.75 289.25,-53.75 289.25,-59.75 283.25,-65.75 277.25,-65.75"/>
<text xml:space="preserve" text-anchor="start" x="118" y="-48.25" font-family="Helvetica,sans-Serif" font-weight="bold" font-size="10.00" fill="#95d5b2">Key Insight</text>
<text xml:space="preserve" text-anchor="start" x="13" y="-29" font-family="Helvetica,sans-Serif" font-size="10.00" fill="white">Against 12&#45;layer armor, must fire at &lt;40% range to penetrate</text>
<text xml:space="preserve" text-anchor="start" x="38.12" y="-10.75" font-family="Helvetica,sans-Serif" font-size="10.00" fill="white">This determines your entire engagement strategy</text>
</g>
<!-- range100&#45;&gt;insight -->
</g>
</svg>
