<?xml version="1.0" encoding="UTF-8" standalone="no"?>
<!DOCTYPE svg PUBLIC "-//W3C//DTD SVG 1.1//EN"
 "http://www.w3.org/Graphics/SVG/1.1/DTD/svg11.dtd">
<!-- Generated by graphviz version 14.1.2 (20260124.0452)
 -->
<!-- Title: missile_engagement Pages: 1 -->
<svg width="1928pt" height="440pt"
 viewBox="0.00 0.00 1928.00 440.00" xmlns="http://www.w3.org/2000/svg" xmlns:xlink="http://www.w3.org/1999/xlink">
<g id="graph0" class="graph" transform="scale(1 1) rotate(0) translate(4 436)">
<title>missile_engagement</title>
<polygon fill="#1a1a2e" stroke="none" points="-4,4 -4,-436 1924.02,-436 1924.02,4 -4,4"/>
<!-- title -->
<g id="node1" class="node">
<title>title</title>
<path fill="#1a1a2e" stroke="none" d="M242.75,-217.75C242.75,-217.75 12,-217.75 12,-217.75 6,-217.75 0,-211.75 0,-205.75 0,-205.75 0,-185.25 0,-185.25 0,-179.25 6,-173.25 12,-173.25 12,-173.25 242.75,-173.25 242.75,-173.25 248.75,-173.25 254.75,-179.25 254.75,-185.25 254.75,-185.25 254.75,-205.75 254.75,-205.75 254.75,-211.75 248.75,-217.75 242.75,-217.75"/>
<text xml:space="preserve" text-anchor="start" x="10" y="-197.55" font-family="Helvetica,sans-Serif" font-weight="bold" font-size="16.00" fill="white">Missile Engagement Sequence</text>
<text xml:space="preserve" text-anchor="start" x="61.75" y="-180.8" font-family="Helvetica,sans-Serif" font-size="11.00" fill="#95d5b2">From Launch to Detonation</text>
</g>
<!-- launch -->
<g id="node2" class="node">
<title>launch</title>
<path fill="#2d2d44" stroke="#95d5b2" d="M458,-184C458,-184 311.75,-184 311.75,-184 305.75,-184 299.75,-178 299.75,-172 299.75,-172 299.75,-117 299.75,-117 299.75,-111 305.75,-105 311.75,-105 311.75,-105 458,-105 458,-105 464,-105 470,-111 470,-117 470,-117 470,-172 470,-172 470,-178 464,-184 458,-184"/>
<text xml:space="preserve" text-anchor="start" x="363.12" y="-167.5" font-family="Helvetica,sans-Serif" font-weight="bold" font-size="10.00" fill="#95d5b2">LAUNCH</text>
<text xml:space="preserve" text-anchor="start" x="340.25" y="-149.25" font-family="Helvetica,sans-Serif" font-size="10.00" fill="white">MFC acquires target</text>
<text xml:space="preserve" text-anchor="start" x="337.25" y="-132" font-family="Helvetica,sans-Serif" font-size="10.00" fill="white">Launcher fires missile</text>
<text xml:space="preserve" text-anchor="start" x="311.75" y="-114.75" font-family="Helvetica,sans-Serif" font-size="10.00" fill="white">Missile accelerates to max speed</text>
</g>
<!-- title&#45;&gt;launch -->
<!-- flight -->
<g id="node3" class="node">
<title>flight</title>
<path fill="#2d2d44" stroke="#4ecdc4" d="M713.5,-184C713.5,-184 572.5,-184 572.5,-184 566.5,-184 560.5,-178 560.5,-172 560.5,-172 560.5,-117 560.5,-117 560.5,-111 566.5,-105 572.5,-105 572.5,-105 713.5,-105 713.5,-105 719.5,-105 725.5,-111 725.5,-117 725.5,-117 725.5,-172 725.5,-172 725.5,-178 719.5,-184 713.5,-184"/>
<text xml:space="preserve" text-anchor="start" x="603.62" y="-167.5" font-family="Helvetica,sans-Serif" font-weight="bold" font-size="10.00" fill="#4ecdc4">GUIDED FLIGHT</text>
<text xml:space="preserve" text-anchor="start" x="572.5" y="-149.25" font-family="Helvetica,sans-Serif" font-size="10.00" fill="white">MFC provides guidance updates</text>
<text xml:space="preserve" text-anchor="start" x="581.5" y="-132" font-family="Helvetica,sans-Serif" font-size="10.00" fill="white">Missile tracks moving target</text>
<text xml:space="preserve" text-anchor="start" x="578.88" y="-114.75" font-family="Helvetica,sans-Serif" font-size="10.00" fill="white">Fuel consumption in progress</text>
</g>
<!-- launch&#45;&gt;flight -->
<g id="edge2" class="edge">
<title>launch&#45;&gt;flight</title>
<path fill="none" stroke="#4ecdc4" stroke-width="2" d="M470.45,-144.5C495.02,-144.5 522.01,-144.5 547.16,-144.5"/>
<polygon fill="#4ecdc4" stroke="#4ecdc4" stroke-width="2" points="547.1,-148 557.1,-144.5 547.1,-141 547.1,-148"/>
<text xml:space="preserve" text-anchor="middle" x="515.25" y="-145.7" font-family="Helvetica,sans-Serif" font-size="9.00" fill="white">Max Speed</text>
</g>
<!-- fc_check -->
<g id="node4" class="node">
<title>fc_check</title>
<path fill="#2d2d44" stroke="#ffe66d" d="M876.18,-247.33C876.18,-247.33 833.57,-235.67 833.57,-235.67 827.79,-234.08 827.79,-230.92 833.57,-229.33 833.57,-229.33 876.18,-217.67 876.18,-217.67 881.97,-216.08 893.54,-216.08 899.33,-217.67 899.33,-217.67 941.94,-229.33 941.94,-229.33 947.73,-230.92 947.73,-234.08 941.94,-235.67 941.94,-235.67 899.33,-247.33 899.33,-247.33 893.54,-248.92 881.97,-248.92 876.18,-247.33"/>
<text xml:space="preserve" text-anchor="start" x="862.26" y="-229.62" font-family="Helvetica,sans-Serif" font-weight="bold" font-size="10.00" fill="#ffe66d">FC LOCK?</text>
</g>
<!-- flight&#45;&gt;fc_check -->
<g id="edge3" class="edge">
<title>flight&#45;&gt;fc_check</title>
<path fill="none" stroke="#4ecdc4" stroke-width="2" d="M725.85,-174.17C766.31,-188.84 813.36,-205.89 846.09,-217.76"/>
<polygon fill="#4ecdc4" stroke="#4ecdc4" stroke-width="2" points="844.87,-221.04 855.47,-221.16 847.26,-214.46 844.87,-221.04"/>
<text xml:space="preserve" text-anchor="middle" x="773.75" y="-200.17" font-family="Helvetica,sans-Serif" font-size="9.00" fill="white">During Flight</text>
</g>
<!-- fuel_check -->
<g id="node13" class="node">
<title>fuel_check</title>
<path fill="#2d2d44" stroke="#ffe66d" d="M876.51,-126.32C876.51,-126.32 850.61,-116.68 850.61,-116.68 844.99,-114.59 844.99,-110.41 850.61,-108.32 850.61,-108.32 876.51,-98.68 876.51,-98.68 882.13,-96.59 893.38,-96.59 899,-98.68 899,-98.68 924.9,-108.32 924.9,-108.32 930.53,-110.41 930.53,-114.59 924.9,-116.68 924.9,-116.68 899,-126.32 899,-126.32 893.38,-128.41 882.13,-128.41 876.51,-126.32"/>
<text xml:space="preserve" text-anchor="start" x="871.63" y="-109.62" font-family="Helvetica,sans-Serif" font-weight="bold" font-size="10.00" fill="#ffe66d">FUEL?</text>
</g>
<!-- flight&#45;&gt;fuel_check -->
<!-- terminal -->
<g id="node5" class="node">
<title>terminal</title>
<path fill="#2d2d44" stroke="#4ecdc4" d="M1216.52,-187C1216.52,-187 1080.02,-187 1080.02,-187 1074.02,-187 1068.02,-181 1068.02,-175 1068.02,-175 1068.02,-120 1068.02,-120 1068.02,-114 1074.02,-108 1080.02,-108 1080.02,-108 1216.52,-108 1216.52,-108 1222.52,-108 1228.52,-114 1228.52,-120 1228.52,-120 1228.52,-175 1228.52,-175 1228.52,-181 1222.52,-187 1216.52,-187"/>
<text xml:space="preserve" text-anchor="start" x="1102.89" y="-170.5" font-family="Helvetica,sans-Serif" font-weight="bold" font-size="10.00" fill="#4ecdc4">TERMINAL PHASE</text>
<text xml:space="preserve" text-anchor="start" x="1080.02" y="-152.25" font-family="Helvetica,sans-Serif" font-size="10.00" fill="white">Onboard sensor acquires target</text>
<text xml:space="preserve" text-anchor="start" x="1088.27" y="-135" font-family="Helvetica,sans-Serif" font-size="10.00" fill="white">Final approach adjustments</text>
<text xml:space="preserve" text-anchor="start" x="1083.39" y="-117.75" font-family="Helvetica,sans-Serif" font-size="10.00" fill="white">PD engagement zone entered</text>
</g>
<!-- fc_check&#45;&gt;terminal -->
<g id="edge4" class="edge">
<title>fc_check&#45;&gt;terminal</title>
<path fill="none" stroke="#95d5b2" stroke-width="2" d="M918.92,-222.58C952.24,-211.63 1007.53,-193.45 1055.36,-177.72"/>
<polygon fill="#95d5b2" stroke="#95d5b2" stroke-width="2" points="1056.38,-181.07 1064.79,-174.62 1054.19,-174.42 1056.38,-181.07"/>
<text xml:space="preserve" text-anchor="middle" x="1010.77" y="-203.78" font-family="Helvetica,sans-Serif" font-size="9.00" fill="white">Maintained</text>
</g>
<!-- ballistic_sensor -->
<g id="node6" class="node">
<title>ballistic_sensor</title>
<path fill="#2d2d44" stroke="#ffe66d" d="M1215.39,-324C1215.39,-324 1081.14,-324 1081.14,-324 1075.14,-324 1069.14,-318 1069.14,-312 1069.14,-312 1069.14,-257 1069.14,-257 1069.14,-251 1075.14,-245 1081.14,-245 1081.14,-245 1215.39,-245 1215.39,-245 1221.39,-245 1227.39,-251 1227.39,-257 1227.39,-257 1227.39,-312 1227.39,-312 1227.39,-318 1221.39,-324 1215.39,-324"/>
<text xml:space="preserve" text-anchor="start" x="1081.14" y="-307.5" font-family="Helvetica,sans-Serif" font-weight="bold" font-size="10.00" fill="#ffe66d">LOCK LOST (HAS SENSOR)</text>
<text xml:space="preserve" text-anchor="start" x="1088.64" y="-289.25" font-family="Helvetica,sans-Serif" font-size="10.00" fill="white">Flies to last known position</text>
<text xml:space="preserve" text-anchor="start" x="1092.39" y="-272" font-family="Helvetica,sans-Serif" font-size="10.00" fill="white">Onboard sensor searches</text>
<text xml:space="preserve" text-anchor="start" x="1103.64" y="-254.75" font-family="Helvetica,sans-Serif" font-size="10.00" fill="white">May reacquire target</text>
</g>
<!-- fc_check&#45;&gt;ballistic_sensor -->
<g id="edge5" class="edge">
<title>fc_check&#45;&gt;ballistic_sensor</title>
<path fill="none" stroke="#ffe66d" stroke-width="2" d="M926.9,-240.17C960.85,-247 1011.86,-257.26 1056.25,-266.19"/>
<polygon fill="#ffe66d" stroke="#ffe66d" stroke-width="2" points="1055.42,-269.59 1065.91,-268.13 1056.8,-262.73 1055.42,-269.59"/>
<text xml:space="preserve" text-anchor="middle" x="1010.77" y="-264.36" font-family="Helvetica,sans-Serif" font-size="9.00" fill="white">Lost + Sensor</text>
</g>
<!-- ballistic_blind -->
<g id="node7" class="node">
<title>ballistic_blind</title>
<path fill="#2d2d44" stroke="#ff6b6b" d="M1212.02,-432C1212.02,-432 1084.52,-432 1084.52,-432 1078.52,-432 1072.52,-426 1072.52,-420 1072.52,-420 1072.52,-365 1072.52,-365 1072.52,-359 1078.52,-353 1084.52,-353 1084.52,-353 1212.02,-353 1212.02,-353 1218.02,-353 1224.02,-359 1224.02,-365 1224.02,-365 1224.02,-420 1224.02,-420 1224.02,-426 1218.02,-432 1212.02,-432"/>
<text xml:space="preserve" text-anchor="start" x="1084.52" y="-415.5" font-family="Helvetica,sans-Serif" font-weight="bold" font-size="10.00" fill="#ff6b6b">LOCK LOST (NO SENSOR)</text>
<text xml:space="preserve" text-anchor="start" x="1088.64" y="-397.25" font-family="Helvetica,sans-Serif" font-size="10.00" fill="white">Flies to last known position</text>
<text xml:space="preserve" text-anchor="start" x="1103.64" y="-380" font-family="Helvetica,sans-Serif" font-size="10.00" fill="white">Cannot detect target</text>
<text xml:space="preserve" text-anchor="start" x="1087.52" y="-362.75" font-family="Helvetica,sans-Serif" font-size="10.00" fill="#ff6b6b">Likely MISS if target moved</text>
</g>
<!-- fc_check&#45;&gt;ballistic_blind -->
<g id="edge6" class="edge">
<title>fc_check&#45;&gt;ballistic_blind</title>
<path fill="none" stroke="#ff6b6b" stroke-width="2" d="M909.04,-245.05C943.69,-266.5 1015.94,-311.22 1071.84,-345.82"/>
<polygon fill="#ff6b6b" stroke="#ff6b6b" stroke-width="2" points="1069.87,-348.71 1080.21,-351 1073.55,-342.76 1069.87,-348.71"/>
<text xml:space="preserve" text-anchor="middle" x="1010.77" y="-328.03" font-family="Helvetica,sans-Serif" font-size="9.00" fill="white">Lost + No Sensor</text>
</g>
<!-- hit_calc -->
<g id="node8" class="node">
<title>hit_calc</title>
<path fill="#2d2d44" stroke="#4ecdc4" d="M1705.02,-215C1705.02,-215 1525.02,-215 1525.02,-215 1519.02,-215 1513.02,-209 1513.02,-203 1513.02,-203 1513.02,-148 1513.02,-148 1513.02,-142 1519.02,-136 1525.02,-136 1525.02,-136 1705.02,-136 1705.02,-136 1711.02,-136 1717.02,-142 1717.02,-148 1717.02,-148 1717.02,-203 1717.02,-203 1717.02,-209 1711.02,-215 1705.02,-215"/>
<text xml:space="preserve" text-anchor="start" x="1568.89" y="-198.5" font-family="Helvetica,sans-Serif" font-weight="bold" font-size="10.00" fill="#4ecdc4">HIT CALCULATION</text>
<text xml:space="preserve" text-anchor="start" x="1525.02" y="-180.25" font-family="Helvetica,sans-Serif" font-size="10.00" fill="white">Base: 0.1 * (MissileSpeed / TargetSpeed)</text>
<text xml:space="preserve" text-anchor="start" x="1528.77" y="-163" font-family="Helvetica,sans-Serif" font-size="10.00" fill="white">+ Terminal Guidance bonus (up to 60%)</text>
<text xml:space="preserve" text-anchor="start" x="1580.52" y="-145.75" font-family="Helvetica,sans-Serif" font-size="10.00" fill="white">Roll for hit/miss</text>
</g>
<!-- terminal&#45;&gt;hit_calc -->
<g id="edge8" class="edge">
<title>terminal&#45;&gt;hit_calc</title>
<path fill="none" stroke="#4ecdc4" stroke-width="2" d="M1228.89,-152.3C1303.45,-156.79 1415.67,-163.55 1499.77,-168.62"/>
<polygon fill="#4ecdc4" stroke="#4ecdc4" stroke-width="2" points="1499.54,-172.11 1509.73,-169.22 1499.96,-165.12 1499.54,-172.11"/>
<text xml:space="preserve" text-anchor="middle" x="1371.14" y="-165.48" font-family="Helvetica,sans-Serif" font-size="9.00" fill="white">Survives PD</text>
</g>
<!-- pd_intercept -->
<g id="node11" class="node">
<title>pd_intercept</title>
<path fill="#2d2d44" stroke="#ff6b6b" d="M1421.77,-121C1421.77,-121 1320.52,-121 1320.52,-121 1314.52,-121 1308.52,-115 1308.52,-109 1308.52,-109 1308.52,-54 1308.52,-54 1308.52,-48 1314.52,-42 1320.52,-42 1320.52,-42 1421.77,-42 1421.77,-42 1427.77,-42 1433.77,-48 1433.77,-54 1433.77,-54 1433.77,-109 1433.77,-109 1433.77,-115 1427.77,-121 1421.77,-121"/>
<text xml:space="preserve" text-anchor="start" x="1324.64" y="-104.5" font-family="Helvetica,sans-Serif" font-weight="bold" font-size="10.00" fill="#ff6b6b">PD INTERCEPTION</text>
<text xml:space="preserve" text-anchor="start" x="1320.52" y="-86.25" font-family="Helvetica,sans-Serif" font-size="10.00" fill="white">AMMs engage at range</text>
<text xml:space="preserve" text-anchor="start" x="1338.89" y="-69" font-family="Helvetica,sans-Serif" font-size="10.00" fill="white">Beam PD fires</text>
<text xml:space="preserve" text-anchor="start" x="1327.64" y="-51.75" font-family="Helvetica,sans-Serif" font-size="10.00" fill="white">CIWS at 10,000 km</text>
</g>
<!-- terminal&#45;&gt;pd_intercept -->
<g id="edge11" class="edge">
<title>terminal&#45;&gt;pd_intercept</title>
<path fill="none" stroke="#ff6b6b" stroke-width="2" d="M1229.01,-123.67C1250.8,-117.16 1274.33,-110.13 1295.81,-103.71"/>
<polygon fill="#ff6b6b" stroke="#ff6b6b" stroke-width="2" points="1296.71,-107.09 1305.29,-100.88 1294.71,-100.39 1296.71,-107.09"/>
<text xml:space="preserve" text-anchor="middle" x="1268.52" y="-117.68" font-family="Helvetica,sans-Serif" font-size="9.00" fill="white">PD Zone</text>
</g>
<!-- ballistic_sensor&#45;&gt;terminal -->
<g id="edge7" class="edge">
<title>ballistic_sensor&#45;&gt;terminal</title>
<path fill="none" stroke="#ffe66d" stroke-width="2" stroke-dasharray="5,2" d="M1148.27,-244.69C1148.27,-230.78 1148.27,-214.95 1148.27,-200.15"/>
<polygon fill="#ffe66d" stroke="#ffe66d" stroke-width="2" points="1151.77,-200.52 1148.27,-190.52 1144.77,-200.52 1151.77,-200.52"/>
<text xml:space="preserve" text-anchor="middle" x="1140.39" y="-212.32" font-family="Helvetica,sans-Serif" font-size="9.00" fill="white">Reacquires</text>
</g>
<!-- hit -->
<g id="node9" class="node">
<title>hit</title>
<path fill="#2d2d44" stroke="#95d5b2" d="M1899.77,-198.38C1899.77,-198.38 1815.77,-198.38 1815.77,-198.38 1809.77,-198.38 1803.77,-192.38 1803.77,-186.38 1803.77,-186.38 1803.77,-148.62 1803.77,-148.62 1803.77,-142.62 1809.77,-136.62 1815.77,-136.62 1815.77,-136.62 1899.77,-136.62 1899.77,-136.62 1905.77,-136.62 1911.77,-142.62 1911.77,-148.62 1911.77,-148.62 1911.77,-186.38 1911.77,-186.38 1911.77,-192.38 1905.77,-198.38 1899.77,-198.38"/>
<text xml:space="preserve" text-anchor="start" x="1849.52" y="-181.88" font-family="Helvetica,sans-Serif" font-weight="bold" font-size="10.00" fill="#95d5b2">HIT</text>
<text xml:space="preserve" text-anchor="start" x="1815.77" y="-163.62" font-family="Helvetica,sans-Serif" font-size="10.00" fill="white">Warhead detonates</text>
<text xml:space="preserve" text-anchor="start" x="1822.52" y="-146.38" font-family="Helvetica,sans-Serif" font-size="10.00" fill="white">Damage applied</text>
</g>
<!-- hit_calc&#45;&gt;hit -->
<g id="edge9" class="edge">
<title>hit_calc&#45;&gt;hit</title>
<path fill="none" stroke="#95d5b2" stroke-width="2" d="M1717.42,-172.13C1742.12,-171.31 1767.93,-170.45 1790.52,-169.7"/>
<polygon fill="#95d5b2" stroke="#95d5b2" stroke-width="2" points="1790.51,-173.2 1800.39,-169.37 1790.28,-166.21 1790.51,-173.2"/>
<text xml:space="preserve" text-anchor="middle" x="1756.27" y="-172.46" font-family="Helvetica,sans-Serif" font-size="9.00" fill="white">Success</text>
</g>
<!-- miss -->
<g id="node10" class="node">
<title>miss</title>
<path fill="#2d2d44" stroke="#ff6b6b" d="M1908.02,-289.38C1908.02,-289.38 1807.52,-289.38 1807.52,-289.38 1801.52,-289.38 1795.52,-283.38 1795.52,-277.38 1795.52,-277.38 1795.52,-239.62 1795.52,-239.62 1795.52,-233.62 1801.52,-227.62 1807.52,-227.62 1807.52,-227.62 1908.02,-227.62 1908.02,-227.62 1914.02,-227.62 1920.02,-233.62 1920.02,-239.62 1920.02,-239.62 1920.02,-277.38 1920.02,-277.38 1920.02,-283.38 1914.02,-289.38 1908.02,-289.38"/>
<text xml:space="preserve" text-anchor="start" x="1845.39" y="-272.88" font-family="Helvetica,sans-Serif" font-weight="bold" font-size="10.00" fill="#ff6b6b">MISS</text>
<text xml:space="preserve" text-anchor="start" x="1819.89" y="-254.62" font-family="Helvetica,sans-Serif" font-size="10.00" fill="white">Missile expended</text>
<text xml:space="preserve" text-anchor="start" x="1807.52" y="-237.38" font-family="Helvetica,sans-Serif" font-size="10.00" fill="#ffe66d">(or retarget if equipped)</text>
</g>
<!-- hit_calc&#45;&gt;miss -->
<g id="edge10" class="edge">
<title>hit_calc&#45;&gt;miss</title>
<path fill="none" stroke="#ff6b6b" stroke-width="2" d="M1717.42,-210.46C1739.44,-218.05 1762.34,-225.95 1783.05,-233.09"/>
<polygon fill="#ff6b6b" stroke="#ff6b6b" stroke-width="2" points="1781.85,-236.37 1792.44,-236.32 1784.13,-229.76 1781.85,-236.37"/>
<text xml:space="preserve" text-anchor="middle" x="1756.27" y="-230.48" font-family="Helvetica,sans-Serif" font-size="9.00" fill="white">Failed</text>
</g>
<!-- pd_intercept&#45;&gt;hit_calc -->
<g id="edge13" class="edge">
<title>pd_intercept&#45;&gt;hit_calc</title>
<path fill="none" stroke="#4ecdc4" stroke-width="2" stroke-dasharray="5,2" d="M1434.12,-105.59C1454.5,-113.51 1477.84,-122.58 1500.8,-131.5"/>
<polygon fill="#4ecdc4" stroke="#4ecdc4" stroke-width="2" points="1499.35,-134.69 1509.94,-135.05 1501.89,-128.17 1499.35,-134.69"/>
<text xml:space="preserve" text-anchor="middle" x="1473.39" y="-126.88" font-family="Helvetica,sans-Serif" font-size="9.00" fill="white">Survives</text>
</g>
<!-- destroyed -->
<g id="node12" class="node">
<title>destroyed</title>
<path fill="#2d2d44" stroke="#ff6b6b" d="M1898.27,-103.75C1898.27,-103.75 1817.27,-103.75 1817.27,-103.75 1811.27,-103.75 1805.27,-97.75 1805.27,-91.75 1805.27,-91.75 1805.27,-71.25 1805.27,-71.25 1805.27,-65.25 1811.27,-59.25 1817.27,-59.25 1817.27,-59.25 1898.27,-59.25 1898.27,-59.25 1904.27,-59.25 1910.27,-65.25 1910.27,-71.25 1910.27,-71.25 1910.27,-91.75 1910.27,-91.75 1910.27,-97.75 1904.27,-103.75 1898.27,-103.75"/>
<text xml:space="preserve" text-anchor="start" x="1826.27" y="-87.25" font-family="Helvetica,sans-Serif" font-weight="bold" font-size="10.00" fill="#ff6b6b">DESTROYED</text>
<text xml:space="preserve" text-anchor="start" x="1817.27" y="-69" font-family="Helvetica,sans-Serif" font-size="10.00" fill="white">Missile neutralized</text>
</g>
<!-- pd_intercept&#45;&gt;destroyed -->
<g id="edge12" class="edge">
<title>pd_intercept&#45;&gt;destroyed</title>
<path fill="none" stroke="#ff6b6b" stroke-width="2" d="M1434.01,-81.5C1526.04,-81.5 1698.18,-81.5 1791.91,-81.5"/>
<polygon fill="#ff6b6b" stroke="#ff6b6b" stroke-width="2" points="1791.84,-85 1801.84,-81.5 1791.84,-78 1791.84,-85"/>
<text xml:space="preserve" text-anchor="middle" x="1615.02" y="-82.7" font-family="Helvetica,sans-Serif" font-size="9.00" fill="white">Intercepted</text>
</g>
<!-- fuel_empty -->
<g id="node14" class="node">
<title>fuel_empty</title>
<path fill="#2d2d44" stroke="#ff6b6b" d="M1211.64,-79C1211.64,-79 1084.89,-79 1084.89,-79 1078.89,-79 1072.89,-73 1072.89,-67 1072.89,-67 1072.89,-12 1072.89,-12 1072.89,-6 1078.89,0 1084.89,0 1084.89,0 1211.64,0 1211.64,0 1217.64,0 1223.64,-6 1223.64,-12 1223.64,-12 1223.64,-67 1223.64,-67 1223.64,-73 1217.64,-79 1211.64,-79"/>
<text xml:space="preserve" text-anchor="start" x="1106.64" y="-62.5" font-family="Helvetica,sans-Serif" font-weight="bold" font-size="10.00" fill="#ff6b6b">FUEL DEPLETED</text>
<text xml:space="preserve" text-anchor="start" x="1109.64" y="-44.25" font-family="Helvetica,sans-Serif" font-size="10.00" fill="white">Cannot maneuver</text>
<text xml:space="preserve" text-anchor="start" x="1100.64" y="-27" font-family="Helvetica,sans-Serif" font-size="10.00" fill="white">Continues ballistically</text>
<text xml:space="preserve" text-anchor="start" x="1084.89" y="-9.75" font-family="Helvetica,sans-Serif" font-size="10.00" fill="#ff6b6b">Will miss maneuvering target</text>
</g>
<!-- fuel_check&#45;&gt;fuel_empty -->
<g id="edge15" class="edge">
<title>fuel_check&#45;&gt;fuel_empty</title>
<path fill="none" stroke="#ff6b6b" stroke-width="2" stroke-dasharray="5,2" d="M916.42,-104.69C950.46,-95.07 1009.9,-78.29 1059.94,-64.16"/>
<polygon fill="#ff6b6b" stroke="#ff6b6b" stroke-width="2" points="1060.85,-67.54 1069.52,-61.45 1058.95,-60.8 1060.85,-67.54"/>
<text xml:space="preserve" text-anchor="middle" x="1010.77" y="-88" font-family="Helvetica,sans-Serif" font-size="9.00" fill="white">Empty</text>
</g>
<!-- legend -->
<g id="node15" class="node">
<title>legend</title>
<path fill="#1a1a2e" stroke="none" d="M174.88,-144.62C174.88,-144.62 79.88,-144.62 79.88,-144.62 73.88,-144.62 67.88,-138.62 67.88,-132.62 67.88,-132.62 67.88,-54.38 67.88,-54.38 67.88,-48.38 73.88,-42.38 79.88,-42.38 79.88,-42.38 174.88,-42.38 174.88,-42.38 180.88,-42.38 186.88,-48.38 186.88,-54.38 186.88,-54.38 186.88,-132.62 186.88,-132.62 186.88,-138.62 180.88,-144.62 174.88,-144.62"/>
<text xml:space="preserve" text-anchor="start" x="110.12" y="-127.12" font-family="Helvetica,sans-Serif" font-weight="bold" font-size="10.00" fill="white">Legend</text>
<polygon fill="#95d5b2" stroke="none" points="78.88,-104.12 78.88,-119.38 93.88,-119.38 93.88,-104.12 78.88,-104.12"/>
<text xml:space="preserve" text-anchor="start" x="84.88" y="-107.88" font-family="Helvetica,sans-Serif" font-size="10.00" fill="white"> </text>
<text xml:space="preserve" text-anchor="start" x="98.88" y="-107.88" font-family="Helvetica,sans-Serif" font-size="10.00" fill="white">Success path</text>
<polygon fill="#4ecdc4" stroke="none" points="78.88,-85.88 78.88,-101.12 93.88,-101.12 93.88,-85.88 78.88,-85.88"/>
<text xml:space="preserve" text-anchor="start" x="84.88" y="-89.62" font-family="Helvetica,sans-Serif" font-size="10.00" fill="white"> </text>
<text xml:space="preserve" text-anchor="start" x="98.88" y="-89.62" font-family="Helvetica,sans-Serif" font-size="10.00" fill="white">Normal operation</text>
<polygon fill="#ffe66d" stroke="none" points="78.88,-67.62 78.88,-82.88 93.88,-82.88 93.88,-67.62 78.88,-67.62"/>
<text xml:space="preserve" text-anchor="start" x="84.88" y="-71.38" font-family="Helvetica,sans-Serif" font-size="10.00" fill="white"> </text>
<text xml:space="preserve" text-anchor="start" x="98.88" y="-71.38" font-family="Helvetica,sans-Serif" font-size="10.00" fill="white">Decision/warning</text>
<polygon fill="#ff6b6b" stroke="none" points="78.88,-49.38 78.88,-64.62 93.88,-64.62 93.88,-49.38 78.88,-49.38"/>
<text xml:space="preserve" text-anchor="start" x="84.88" y="-53.12" font-family="Helvetica,sans-Serif" font-size="10.00" fill="white"> </text>
<text xml:space="preserve" text-anchor="start" x="98.88" y="-53.12" font-family="Helvetica,sans-Serif" font-size="10.00" fill="white">Failure/threat</text>
</g>
<!-- legend&#45;&gt;launch -->
</g>
</svg>
