<?xml version="1.0" encoding="UTF-8" standalone="no"?>
<!DOCTYPE svg PUBLIC "-//W3C//DTD SVG 1.1//EN"
 "http://www.w3.org/Graphics/SVG/1.1/DTD/svg11.dtd">
<!-- Generated by graphviz version 14.1.2 (20260124.0452)
 -->
<!-- Title: DamageResolutionGrid Pages: 1 -->
<svg width="1024pt" height="600pt"
 viewBox="0.00 0.00 1024.00 600.00" xmlns="http://www.w3.org/2000/svg" xmlns:xlink="http://www.w3.org/1999/xlink">
<g id="graph0" class="graph" transform="scale(1 1) rotate(0) translate(36 564.01)">
<title>DamageResolutionGrid</title>
<polygon fill="#1a1a2e" stroke="none" points="-36,36 -36,-564.01 988,-564.01 988,36 -36,36"/>
<text xml:space="preserve" text-anchor="middle" x="476" y="-508.81" font-family="Helvetica,sans-Serif" font-size="16.00" fill="white">Armor Grid: Per&#45;Column Damage Tracking</text>
<g id="clust1" class="cluster">
<title>cluster_grid</title>
<polygon fill="#1a1a2e" stroke="#4ecdc4" stroke-dasharray="5,2" points="8,-8 8,-495.51 431,-495.51 431,-8 8,-8"/>
<text xml:space="preserve" text-anchor="start" x="173.75" y="-479.11" font-family="Helvetica,sans-Serif" font-weight="bold" font-size="12.00" fill="white">Ship Armor Grid</text>
<text xml:space="preserve" text-anchor="start" x="177.88" y="-464.21" font-family="Helvetica,sans-Serif" font-size="9.00" fill="#888888">5 columns x 4 layers</text>
</g>
<!-- col1_label -->
<g id="node1" class="node">
<title>col1_label</title>
<polygon fill="none" stroke="none" points="71.6,-437.01 28.4,-437.01 28.4,-408.21 71.6,-408.21 71.6,-437.01"/>
<text xml:space="preserve" text-anchor="middle" x="50" y="-418.94" font-family="Helvetica,sans-Serif" font-size="9.00" fill="#888888">Col 1</text>
</g>
<!-- a11 -->
<g id="node10" class="node">
<title>a11</title>
<polygon fill="#2d2d44" stroke="#4ecdc4" points="71.6,-327.73 28.4,-327.73 28.4,-298.93 71.6,-298.93 71.6,-327.73"/>
<text xml:space="preserve" text-anchor="middle" x="50" y="-309.45" font-family="Helvetica,sans-Serif" font-size="10.00" fill="white">4</text>
</g>
<!-- col1_label&#45;&gt;a11 -->
<!-- col2_label -->
<g id="node2" class="node">
<title>col2_label</title>
<polygon fill="none" stroke="none" points="136.6,-437.01 93.4,-437.01 93.4,-408.21 136.6,-408.21 136.6,-437.01"/>
<text xml:space="preserve" text-anchor="middle" x="115" y="-418.94" font-family="Helvetica,sans-Serif" font-size="9.00" fill="#888888">Col 2</text>
</g>
<!-- a12 -->
<g id="node11" class="node">
<title>a12</title>
<polygon fill="#2d2d44" stroke="#4ecdc4" points="136.6,-327.73 93.4,-327.73 93.4,-298.93 136.6,-298.93 136.6,-327.73"/>
<text xml:space="preserve" text-anchor="middle" x="115" y="-309.45" font-family="Helvetica,sans-Serif" font-size="10.00" fill="white">4</text>
</g>
<!-- col2_label&#45;&gt;a12 -->
<!-- col3_label -->
<g id="node3" class="node">
<title>col3_label</title>
<polygon fill="none" stroke="none" points="331.6,-437.01 288.4,-437.01 288.4,-408.21 331.6,-408.21 331.6,-437.01"/>
<text xml:space="preserve" text-anchor="middle" x="310" y="-418.94" font-family="Helvetica,sans-Serif" font-size="9.00" fill="#888888">Col 3</text>
</g>
<!-- a13 -->
<g id="node12" class="node">
<title>a13</title>
<polygon fill="#ff6b6b" stroke="#ff6b6b" points="331.6,-327.73 288.4,-327.73 288.4,-298.93 331.6,-298.93 331.6,-327.73"/>
<text xml:space="preserve" text-anchor="middle" x="310" y="-309.45" font-family="Helvetica,sans-Serif" font-size="10.00" fill="white">0</text>
</g>
<!-- col3_label&#45;&gt;a13 -->
<!-- col4_label -->
<g id="node4" class="node">
<title>col4_label</title>
<polygon fill="none" stroke="none" points="201.6,-437.01 158.4,-437.01 158.4,-408.21 201.6,-408.21 201.6,-437.01"/>
<text xml:space="preserve" text-anchor="middle" x="180" y="-418.94" font-family="Helvetica,sans-Serif" font-size="9.00" fill="#888888">Col 4</text>
</g>
<!-- a14 -->
<g id="node13" class="node">
<title>a14</title>
<polygon fill="#2d2d44" stroke="#4ecdc4" points="201.6,-327.73 158.4,-327.73 158.4,-298.93 201.6,-298.93 201.6,-327.73"/>
<text xml:space="preserve" text-anchor="middle" x="180" y="-309.45" font-family="Helvetica,sans-Serif" font-size="10.00" fill="white">4</text>
</g>
<!-- col4_label&#45;&gt;a14 -->
<!-- col5_label -->
<g id="node5" class="node">
<title>col5_label</title>
<polygon fill="none" stroke="none" points="266.6,-437.01 223.4,-437.01 223.4,-408.21 266.6,-408.21 266.6,-437.01"/>
<text xml:space="preserve" text-anchor="middle" x="245" y="-418.94" font-family="Helvetica,sans-Serif" font-size="9.00" fill="#888888">Col 5</text>
</g>
<!-- a15 -->
<g id="node14" class="node">
<title>a15</title>
<polygon fill="#2d2d44" stroke="#4ecdc4" points="266.6,-327.73 223.4,-327.73 223.4,-298.93 266.6,-298.93 266.6,-327.73"/>
<text xml:space="preserve" text-anchor="middle" x="245" y="-309.45" font-family="Helvetica,sans-Serif" font-size="10.00" fill="white">4</text>
</g>
<!-- col5_label&#45;&gt;a15 -->
<!-- layer1_label -->
<g id="node6" class="node">
<title>layer1_label</title>
<polygon fill="none" stroke="none" points="410.8,-327.73 353.2,-327.73 353.2,-298.93 410.8,-298.93 410.8,-327.73"/>
<text xml:space="preserve" text-anchor="middle" x="382" y="-314.53" font-family="Helvetica,sans-Serif" font-size="9.00" fill="#888888">Layer 1</text>
<text xml:space="preserve" text-anchor="middle" x="382" y="-304.78" font-family="Helvetica,sans-Serif" font-size="9.00" fill="#888888">(outer)</text>
</g>
<!-- layer2_label -->
<g id="node7" class="node">
<title>layer2_label</title>
<polygon fill="none" stroke="none" points="410.8,-230.2 353.2,-230.2 353.2,-201.4 410.8,-201.4 410.8,-230.2"/>
<text xml:space="preserve" text-anchor="middle" x="382" y="-212.12" font-family="Helvetica,sans-Serif" font-size="9.00" fill="#888888">Layer 2</text>
</g>
<!-- layer1_label&#45;&gt;layer2_label -->
<!-- layer3_label -->
<g id="node8" class="node">
<title>layer3_label</title>
<polygon fill="none" stroke="none" points="410.8,-172.4 353.2,-172.4 353.2,-143.6 410.8,-143.6 410.8,-172.4"/>
<text xml:space="preserve" text-anchor="middle" x="382" y="-154.32" font-family="Helvetica,sans-Serif" font-size="9.00" fill="#888888">Layer 3</text>
</g>
<!-- layer2_label&#45;&gt;layer3_label -->
<!-- layer4_label -->
<g id="node9" class="node">
<title>layer4_label</title>
<polygon fill="none" stroke="none" points="410.8,-114.6 353.2,-114.6 353.2,-85.8 410.8,-85.8 410.8,-114.6"/>
<text xml:space="preserve" text-anchor="middle" x="382" y="-101.4" font-family="Helvetica,sans-Serif" font-size="9.00" fill="#888888">Layer 4</text>
<text xml:space="preserve" text-anchor="middle" x="382" y="-91.65" font-family="Helvetica,sans-Serif" font-size="9.00" fill="#888888">(inner)</text>
</g>
<!-- layer3_label&#45;&gt;layer4_label -->
<!-- a21 -->
<g id="node15" class="node">
<title>a21</title>
<polygon fill="#2d2d44" stroke="#4ecdc4" points="71.6,-230.2 28.4,-230.2 28.4,-201.4 71.6,-201.4 71.6,-230.2"/>
<text xml:space="preserve" text-anchor="middle" x="50" y="-211.93" font-family="Helvetica,sans-Serif" font-size="10.00" fill="white">4</text>
</g>
<!-- a11&#45;&gt;a21 -->
<!-- a22 -->
<g id="node16" class="node">
<title>a22</title>
<polygon fill="#2d2d44" stroke="#4ecdc4" points="136.6,-230.2 93.4,-230.2 93.4,-201.4 136.6,-201.4 136.6,-230.2"/>
<text xml:space="preserve" text-anchor="middle" x="115" y="-211.93" font-family="Helvetica,sans-Serif" font-size="10.00" fill="white">4</text>
</g>
<!-- a12&#45;&gt;a22 -->
<!-- a23 -->
<g id="node17" class="node">
<title>a23</title>
<polygon fill="#ff6b6b" stroke="#ff6b6b" points="331.6,-230.2 288.4,-230.2 288.4,-201.4 331.6,-201.4 331.6,-230.2"/>
<text xml:space="preserve" text-anchor="middle" x="310" y="-211.93" font-family="Helvetica,sans-Serif" font-size="10.00" fill="white">0</text>
</g>
<!-- a13&#45;&gt;a23 -->
<!-- a24 -->
<g id="node18" class="node">
<title>a24</title>
<polygon fill="#2d2d44" stroke="#4ecdc4" points="201.6,-230.2 158.4,-230.2 158.4,-201.4 201.6,-201.4 201.6,-230.2"/>
<text xml:space="preserve" text-anchor="middle" x="180" y="-211.93" font-family="Helvetica,sans-Serif" font-size="10.00" fill="white">4</text>
</g>
<!-- a14&#45;&gt;a24 -->
<!-- a25 -->
<g id="node19" class="node">
<title>a25</title>
<polygon fill="#2d2d44" stroke="#4ecdc4" points="266.6,-230.2 223.4,-230.2 223.4,-201.4 266.6,-201.4 266.6,-230.2"/>
<text xml:space="preserve" text-anchor="middle" x="245" y="-211.93" font-family="Helvetica,sans-Serif" font-size="10.00" fill="white">4</text>
</g>
<!-- a15&#45;&gt;a25 -->
<!-- a31 -->
<g id="node20" class="node">
<title>a31</title>
<polygon fill="#2d2d44" stroke="#4ecdc4" points="71.6,-172.4 28.4,-172.4 28.4,-143.6 71.6,-143.6 71.6,-172.4"/>
<text xml:space="preserve" text-anchor="middle" x="50" y="-154.12" font-family="Helvetica,sans-Serif" font-size="10.00" fill="white">4</text>
</g>
<!-- a21&#45;&gt;a31 -->
<!-- a32 -->
<g id="node21" class="node">
<title>a32</title>
<polygon fill="#2d2d44" stroke="#4ecdc4" points="136.6,-172.4 93.4,-172.4 93.4,-143.6 136.6,-143.6 136.6,-172.4"/>
<text xml:space="preserve" text-anchor="middle" x="115" y="-154.12" font-family="Helvetica,sans-Serif" font-size="10.00" fill="white">4</text>
</g>
<!-- a22&#45;&gt;a32 -->
<!-- a33 -->
<g id="node22" class="node">
<title>a33</title>
<polygon fill="#ffe66d" stroke="#ffe66d" points="331.6,-172.4 288.4,-172.4 288.4,-143.6 331.6,-143.6 331.6,-172.4"/>
<text xml:space="preserve" text-anchor="middle" x="310" y="-154.12" font-family="Helvetica,sans-Serif" font-size="10.00" fill="#1a1a2e">2</text>
</g>
<!-- a23&#45;&gt;a33 -->
<!-- a34 -->
<g id="node23" class="node">
<title>a34</title>
<polygon fill="#2d2d44" stroke="#4ecdc4" points="201.6,-172.4 158.4,-172.4 158.4,-143.6 201.6,-143.6 201.6,-172.4"/>
<text xml:space="preserve" text-anchor="middle" x="180" y="-154.12" font-family="Helvetica,sans-Serif" font-size="10.00" fill="white">4</text>
</g>
<!-- a24&#45;&gt;a34 -->
<!-- a35 -->
<g id="node24" class="node">
<title>a35</title>
<polygon fill="#2d2d44" stroke="#4ecdc4" points="266.6,-172.4 223.4,-172.4 223.4,-143.6 266.6,-143.6 266.6,-172.4"/>
<text xml:space="preserve" text-anchor="middle" x="245" y="-154.12" font-family="Helvetica,sans-Serif" font-size="10.00" fill="white">4</text>
</g>
<!-- a25&#45;&gt;a35 -->
<!-- a41 -->
<g id="node25" class="node">
<title>a41</title>
<polygon fill="#2d2d44" stroke="#4ecdc4" points="71.6,-114.6 28.4,-114.6 28.4,-85.8 71.6,-85.8 71.6,-114.6"/>
<text xml:space="preserve" text-anchor="middle" x="50" y="-96.32" font-family="Helvetica,sans-Serif" font-size="10.00" fill="white">4</text>
</g>
<!-- a31&#45;&gt;a41 -->
<!-- a42 -->
<g id="node26" class="node">
<title>a42</title>
<polygon fill="#2d2d44" stroke="#4ecdc4" points="136.6,-114.6 93.4,-114.6 93.4,-85.8 136.6,-85.8 136.6,-114.6"/>
<text xml:space="preserve" text-anchor="middle" x="115" y="-96.32" font-family="Helvetica,sans-Serif" font-size="10.00" fill="white">4</text>
</g>
<!-- a32&#45;&gt;a42 -->
<!-- a43 -->
<g id="node27" class="node">
<title>a43</title>
<polygon fill="#95d5b2" stroke="#95d5b2" points="331.6,-114.6 288.4,-114.6 288.4,-85.8 331.6,-85.8 331.6,-114.6"/>
<text xml:space="preserve" text-anchor="middle" x="310" y="-96.32" font-family="Helvetica,sans-Serif" font-size="10.00" fill="#1a1a2e">4</text>
</g>
<!-- a33&#45;&gt;a43 -->
<!-- a44 -->
<g id="node28" class="node">
<title>a44</title>
<polygon fill="#2d2d44" stroke="#4ecdc4" points="201.6,-114.6 158.4,-114.6 158.4,-85.8 201.6,-85.8 201.6,-114.6"/>
<text xml:space="preserve" text-anchor="middle" x="180" y="-96.32" font-family="Helvetica,sans-Serif" font-size="10.00" fill="white">4</text>
</g>
<!-- a34&#45;&gt;a44 -->
<!-- a45 -->
<g id="node29" class="node">
<title>a45</title>
<polygon fill="#2d2d44" stroke="#4ecdc4" points="266.6,-114.6 223.4,-114.6 223.4,-85.8 266.6,-85.8 266.6,-114.6"/>
<text xml:space="preserve" text-anchor="middle" x="245" y="-96.32" font-family="Helvetica,sans-Serif" font-size="10.00" fill="white">4</text>
</g>
<!-- a35&#45;&gt;a45 -->
<!-- int1 -->
<g id="node30" class="node">
<title>int1</title>
<polygon fill="#1a1a2e" stroke="#888888" stroke-dasharray="5,2" points="71.6,-56.8 28.4,-56.8 28.4,-28 71.6,-28 71.6,-56.8"/>
<text xml:space="preserve" text-anchor="middle" x="50" y="-38.52" font-family="Helvetica,sans-Serif" font-size="10.00" fill="#888888">INT</text>
</g>
<!-- a41&#45;&gt;int1 -->
<!-- int2 -->
<g id="node31" class="node">
<title>int2</title>
<polygon fill="#1a1a2e" stroke="#888888" stroke-dasharray="5,2" points="136.6,-56.8 93.4,-56.8 93.4,-28 136.6,-28 136.6,-56.8"/>
<text xml:space="preserve" text-anchor="middle" x="115" y="-38.52" font-family="Helvetica,sans-Serif" font-size="10.00" fill="#888888">INT</text>
</g>
<!-- a42&#45;&gt;int2 -->
<!-- int3 -->
<g id="node32" class="node">
<title>int3</title>
<polygon fill="#1a1a2e" stroke="#888888" stroke-dasharray="5,2" points="331.6,-56.8 288.4,-56.8 288.4,-28 331.6,-28 331.6,-56.8"/>
<text xml:space="preserve" text-anchor="middle" x="310" y="-38.52" font-family="Helvetica,sans-Serif" font-size="10.00" fill="#888888">INT</text>
</g>
<!-- a43&#45;&gt;int3 -->
<!-- int4 -->
<g id="node33" class="node">
<title>int4</title>
<polygon fill="#1a1a2e" stroke="#888888" stroke-dasharray="5,2" points="201.6,-56.8 158.4,-56.8 158.4,-28 201.6,-28 201.6,-56.8"/>
<text xml:space="preserve" text-anchor="middle" x="180" y="-38.52" font-family="Helvetica,sans-Serif" font-size="10.00" fill="#888888">INT</text>
</g>
<!-- a44&#45;&gt;int4 -->
<!-- int5 -->
<g id="node34" class="node">
<title>int5</title>
<polygon fill="#1a1a2e" stroke="#888888" stroke-dasharray="5,2" points="266.6,-56.8 223.4,-56.8 223.4,-28 266.6,-28 266.6,-56.8"/>
<text xml:space="preserve" text-anchor="middle" x="245" y="-38.52" font-family="Helvetica,sans-Serif" font-size="10.00" fill="#888888">INT</text>
</g>
<!-- a45&#45;&gt;int5 -->
<!-- hit -->
<g id="node35" class="node">
<title>hit</title>
<ellipse fill="#ff6b6b" stroke="#ff6b6b" cx="523" cy="-422.61" rx="71.95" ry="26.16"/>
<text xml:space="preserve" text-anchor="start" x="492.62" y="-426.61" font-family="Helvetica,sans-Serif" font-weight="bold" font-size="10.00" fill="#ff6b6b">Incoming Hit</text>
<text xml:space="preserve" text-anchor="start" x="482.12" y="-411.31" font-family="Helvetica,sans-Serif" font-size="9.00" fill="white">10 damage weapon</text>
</g>
<!-- hit&#45;&gt;a13 -->
<g id="edge29" class="edge">
<title>hit&#45;&gt;a13</title>
<path fill="none" stroke="#ff6b6b" stroke-width="2" d="M477.07,-402C416.42,-402 317.2,-402 317.2,-402 317.2,-402 317.2,-337.4 317.2,-337.4"/>
<polygon fill="#ff6b6b" stroke="#ff6b6b" stroke-width="2" points="317.2,-330.4 320.35,-337.4 317.7,-331.47 317.7,-337.4 317.2,-337.4 316.7,-337.4 316.7,-331.47 314.05,-337.4 317.2,-330.4"/>
</g>
<!-- legend -->
<g id="node36" class="node">
<title>legend</title>
<path fill="#2d2d44" stroke="#4ecdc4" d="M574.62,-367.45C574.62,-367.45 463.38,-367.45 463.38,-367.45 457.38,-367.45 451.38,-361.45 451.38,-355.45 451.38,-355.45 451.38,-271.2 451.38,-271.2 451.38,-265.2 457.38,-259.2 463.38,-259.2 463.38,-259.2 574.62,-259.2 574.62,-259.2 580.62,-259.2 586.62,-265.2 586.62,-271.2 586.62,-271.2 586.62,-355.45 586.62,-355.45 586.62,-361.45 580.62,-367.45 574.62,-367.45"/>
<text xml:space="preserve" text-anchor="start" x="501.75" y="-348.95" font-family="Helvetica,sans-Serif" font-weight="bold" font-size="10.00" fill="white">Legend</text>
<polygon fill="#ff6b6b" stroke="none" points="463.38,-324.95 463.38,-340.2 483.38,-340.2 483.38,-324.95 463.38,-324.95"/>
<text xml:space="preserve" text-anchor="start" x="471.88" y="-328.7" font-family="Helvetica,sans-Serif" font-size="10.00" fill="white"> </text>
<text xml:space="preserve" text-anchor="start" x="489.38" y="-328.9" font-family="Helvetica,sans-Serif" font-size="9.00" fill="white">Destroyed &#45; 0 armor</text>
<polygon fill="#ffe66d" stroke="none" points="463.38,-305.7 463.38,-320.95 483.38,-320.95 483.38,-305.7 463.38,-305.7"/>
<text xml:space="preserve" text-anchor="start" x="471.88" y="-309.45" font-family="Helvetica,sans-Serif" font-size="10.00" fill="white"> </text>
<text xml:space="preserve" text-anchor="start" x="489.38" y="-309.65" font-family="Helvetica,sans-Serif" font-size="9.00" fill="white">Damaged &#45; partial</text>
<polygon fill="#95d5b2" stroke="none" points="463.38,-286.45 463.38,-301.7 483.38,-301.7 483.38,-286.45 463.38,-286.45"/>
<text xml:space="preserve" text-anchor="start" x="471.88" y="-290.2" font-family="Helvetica,sans-Serif" font-size="10.00" fill="white"> </text>
<text xml:space="preserve" text-anchor="start" x="489.38" y="-290.4" font-family="Helvetica,sans-Serif" font-size="9.00" fill="white">Intact &#45; full armor</text>
<polygon fill="#2d2d44" stroke="none" points="463.38,-267.2 463.38,-282.45 483.38,-282.45 483.38,-267.2 463.38,-267.2"/>
<text xml:space="preserve" text-anchor="start" x="471.88" y="-270.95" font-family="Helvetica,sans-Serif" font-size="10.00" fill="white"> </text>
<text xml:space="preserve" text-anchor="start" x="489.38" y="-271.15" font-family="Helvetica,sans-Serif" font-size="9.00" fill="white">Undamaged column</text>
</g>
<!-- trace -->
<g id="node37" class="node">
<title>trace</title>
<path fill="#2d2d44" stroke="#ffe66d" d="M737.5,-364.45C737.5,-364.45 620.5,-364.45 620.5,-364.45 614.5,-364.45 608.5,-358.45 608.5,-352.45 608.5,-352.45 608.5,-274.2 608.5,-274.2 608.5,-268.2 614.5,-262.2 620.5,-262.2 620.5,-262.2 737.5,-262.2 737.5,-262.2 743.5,-262.2 749.5,-268.2 749.5,-274.2 749.5,-274.2 749.5,-352.45 749.5,-352.45 749.5,-358.45 743.5,-364.45 737.5,-364.45"/>
<text xml:space="preserve" text-anchor="start" x="628.75" y="-345.95" font-family="Helvetica,sans-Serif" font-weight="bold" font-size="10.00" fill="white">Damage Trace &#45; Col 3</text>
<text xml:space="preserve" text-anchor="start" x="622.5" y="-326.65" font-family="Helvetica,sans-Serif" font-size="9.00" fill="#ff6b6b">Layer 1:</text>
<text xml:space="preserve" text-anchor="start" x="663.5" y="-326.65" font-family="Helvetica,sans-Serif" font-size="9.00" fill="white">4 dmg used, 6 left</text>
<text xml:space="preserve" text-anchor="start" x="622.5" y="-308.9" font-family="Helvetica,sans-Serif" font-size="9.00" fill="#ff6b6b">Layer 2:</text>
<text xml:space="preserve" text-anchor="start" x="663.5" y="-308.9" font-family="Helvetica,sans-Serif" font-size="9.00" fill="white">4 dmg used, 2 left</text>
<text xml:space="preserve" text-anchor="start" x="622.5" y="-291.15" font-family="Helvetica,sans-Serif" font-size="9.00" fill="#ffe66d">Layer 3:</text>
<text xml:space="preserve" text-anchor="start" x="663.5" y="-291.15" font-family="Helvetica,sans-Serif" font-size="9.00" fill="white">2 dmg used, 0 left</text>
<text xml:space="preserve" text-anchor="start" x="622.5" y="-273.4" font-family="Helvetica,sans-Serif" font-size="9.00" fill="#95d5b2">Layer 4:</text>
<text xml:space="preserve" text-anchor="start" x="663.5" y="-273.4" font-family="Helvetica,sans-Serif" font-size="9.00" fill="white">No penetration</text>
</g>
<!-- insight -->
<g id="node38" class="node">
<title>insight</title>
<polygon fill="#2d2d44" stroke="#4ecdc4" points="946,-352.45 772,-352.45 772,-274.2 952,-274.2 952,-346.45 946,-352.45"/>
<polyline fill="none" stroke="#4ecdc4" points="946,-352.45 946,-346.45"/>
<polyline fill="none" stroke="#4ecdc4" points="952,-346.45 946,-346.45"/>
<text xml:space="preserve" text-anchor="start" x="835.38" y="-337.95" font-family="Helvetica,sans-Serif" font-weight="bold" font-size="10.00" fill="#4ecdc4">Key Insight</text>
<text xml:space="preserve" text-anchor="start" x="798.25" y="-322.65" font-family="Helvetica,sans-Serif" font-size="9.00" fill="white">Damage is tracked per&#45;column.</text>
<text xml:space="preserve" text-anchor="start" x="785.5" y="-308.9" font-family="Helvetica,sans-Serif" font-size="9.00" fill="white">Adjacent columns stay at full strength.</text>
<text xml:space="preserve" text-anchor="start" x="789.25" y="-295.15" font-family="Helvetica,sans-Serif" font-size="9.00" fill="white">Focused fire on one column is more</text>
<text xml:space="preserve" text-anchor="start" x="800.5" y="-281.4" font-family="Helvetica,sans-Serif" font-size="9.00" fill="white">effective than spread damage.</text>
</g>
</g>
</svg>
