<?xml version="1.0" encoding="UTF-8" standalone="no"?>
<!DOCTYPE svg PUBLIC "-//W3C//DTD SVG 1.1//EN"
 "http://www.w3.org/Graphics/SVG/1.1/DTD/svg11.dtd">
<!-- Generated by graphviz version 14.1.2 (20260124.0452)
 -->
<!-- Title: ShieldRegenTiming Pages: 1 -->
<svg width="1077pt" height="488pt"
 viewBox="0.00 0.00 1077.00 488.00" xmlns="http://www.w3.org/2000/svg" xmlns:xlink="http://www.w3.org/1999/xlink">
<g id="graph0" class="graph" transform="scale(1 1) rotate(0) translate(36 452.1)">
<title>ShieldRegenTiming</title>
<polygon fill="#1a1a2e" stroke="none" points="-36,36 -36,-452.1 1041.42,-452.1 1041.42,36 -36,36"/>
<text xml:space="preserve" text-anchor="middle" x="502.71" y="-396.9" font-family="Helvetica,sans-Serif" font-size="16.00" fill="white">Shield Regeneration Timing (v2.0.0+)</text>
<!-- turn_start -->
<g id="node1" class="node">
<title>turn_start</title>
<ellipse fill="#1a1a2e" stroke="#95d5b2" cx="59.91" cy="-362.8" rx="59.91" ry="28.8"/>
<text xml:space="preserve" text-anchor="start" x="34.04" y="-366.23" font-family="Helvetica,sans-Serif" font-weight="bold" font-size="11.00" fill="white">Turn Start</text>
<text xml:space="preserve" text-anchor="start" x="24.66" y="-351.12" font-family="Helvetica,sans-Serif" font-size="9.00" fill="#888888">Increment begins</text>
</g>
<!-- shield_regen -->
<g id="node2" class="node">
<title>shield_regen</title>
<path fill="#2d2d44" stroke="#95d5b2" stroke-width="3" d="M310.82,-391.6C310.82,-391.6 190.82,-391.6 190.82,-391.6 184.82,-391.6 178.82,-385.6 178.82,-379.6 178.82,-379.6 178.82,-346 178.82,-346 178.82,-340 184.82,-334 190.82,-334 190.82,-334 310.82,-334 310.82,-334 316.82,-334 322.82,-340 322.82,-346 322.82,-346 322.82,-379.6 322.82,-379.6 322.82,-385.6 316.82,-391.6 310.82,-391.6"/>
<text xml:space="preserve" text-anchor="start" x="197.57" y="-373.1" font-family="Helvetica,sans-Serif" font-weight="bold" font-size="11.00" fill="#95d5b2">Shield Regeneration</text>
<text xml:space="preserve" text-anchor="start" x="211.45" y="-358" font-family="Helvetica,sans-Serif" font-size="9.00" fill="#95d5b2">Shields recover HP</text>
<text xml:space="preserve" text-anchor="start" x="221.95" y="-344.25" font-family="Helvetica,sans-Serif" font-size="9.00" fill="#ffe66d">NEW in v2.0.0</text>
</g>
<!-- turn_start&#45;&gt;shield_regen -->
<g id="edge1" class="edge">
<title>turn_start&#45;&gt;shield_regen</title>
<path fill="none" stroke="#4ecdc4" d="M120.16,-362.8C135.36,-362.8 151.97,-362.8 168.09,-362.8"/>
<polygon fill="#4ecdc4" stroke="#4ecdc4" points="167.99,-365.6 175.99,-362.8 167.99,-360 167.99,-365.6"/>
</g>
<!-- movement -->
<g id="node3" class="node">
<title>movement</title>
<path fill="#2d2d44" stroke="#4ecdc4" d="M513.82,-391.6C513.82,-391.6 393.82,-391.6 393.82,-391.6 387.82,-391.6 381.82,-385.6 381.82,-379.6 381.82,-379.6 381.82,-346 381.82,-346 381.82,-340 387.82,-334 393.82,-334 393.82,-334 513.82,-334 513.82,-334 519.82,-334 525.82,-340 525.82,-346 525.82,-346 525.82,-379.6 525.82,-379.6 525.82,-385.6 519.82,-391.6 513.82,-391.6"/>
<text xml:space="preserve" text-anchor="start" x="409.2" y="-373.1" font-family="Helvetica,sans-Serif" font-weight="bold" font-size="11.00" fill="white">Movement Phase</text>
<text xml:space="preserve" text-anchor="start" x="410.7" y="-358" font-family="Helvetica,sans-Serif" font-size="9.00" fill="#888888">Ships execute orders</text>
<text xml:space="preserve" text-anchor="start" x="421.2" y="-344.25" font-family="Helvetica,sans-Serif" font-size="9.00" fill="#888888">Ranges change</text>
</g>
<!-- shield_regen&#45;&gt;movement -->
<g id="edge2" class="edge">
<title>shield_regen&#45;&gt;movement</title>
<path fill="none" stroke="#4ecdc4" d="M324.1,-362.8C339.72,-362.8 356.33,-362.8 372.24,-362.8"/>
<polygon fill="#4ecdc4" stroke="#4ecdc4" points="372,-365.6 380,-362.8 372,-360 372,-365.6"/>
</g>
<!-- beam_combat -->
<g id="node4" class="node">
<title>beam_combat</title>
<path fill="#2d2d44" stroke="#ff6b6b" d="M724.82,-391.6C724.82,-391.6 604.82,-391.6 604.82,-391.6 598.82,-391.6 592.82,-385.6 592.82,-379.6 592.82,-379.6 592.82,-346 592.82,-346 592.82,-340 598.82,-334 604.82,-334 604.82,-334 724.82,-334 724.82,-334 730.82,-334 736.82,-340 736.82,-346 736.82,-346 736.82,-379.6 736.82,-379.6 736.82,-385.6 730.82,-391.6 724.82,-391.6"/>
<text xml:space="preserve" text-anchor="start" x="627.7" y="-373.1" font-family="Helvetica,sans-Serif" font-weight="bold" font-size="11.00" fill="white">Beam Combat</text>
<text xml:space="preserve" text-anchor="start" x="643.07" y="-358" font-family="Helvetica,sans-Serif" font-size="9.00" fill="#ff6b6b">Beams fire</text>
<text xml:space="preserve" text-anchor="start" x="623.2" y="-344.25" font-family="Helvetica,sans-Serif" font-size="9.00" fill="#ff6b6b">Damage shields first</text>
</g>
<!-- movement&#45;&gt;beam_combat -->
<g id="edge3" class="edge">
<title>movement&#45;&gt;beam_combat</title>
<path fill="none" stroke="#4ecdc4" d="M526.16,-362.8C544.47,-362.8 564.3,-362.8 583.05,-362.8"/>
<polygon fill="#4ecdc4" stroke="#4ecdc4" points="582.93,-365.6 590.93,-362.8 582.93,-360 582.93,-365.6"/>
</g>
<!-- missile_phase -->
<g id="node5" class="node">
<title>missile_phase</title>
<path fill="#2d2d44" stroke="#ff6b6b" d="M724.82,-179.6C724.82,-179.6 604.82,-179.6 604.82,-179.6 598.82,-179.6 592.82,-173.6 592.82,-167.6 592.82,-167.6 592.82,-134 592.82,-134 592.82,-128 598.82,-122 604.82,-122 604.82,-122 724.82,-122 724.82,-122 730.82,-122 736.82,-128 736.82,-134 736.82,-134 736.82,-167.6 736.82,-167.6 736.82,-173.6 730.82,-179.6 724.82,-179.6"/>
<text xml:space="preserve" text-anchor="start" x="616.82" y="-161.1" font-family="Helvetica,sans-Serif" font-weight="bold" font-size="11.00" fill="white">Missile Resolution</text>
<text xml:space="preserve" text-anchor="start" x="638.2" y="-146" font-family="Helvetica,sans-Serif" font-size="9.00" fill="#ff6b6b">Warheads hit</text>
<text xml:space="preserve" text-anchor="start" x="623.2" y="-132.25" font-family="Helvetica,sans-Serif" font-size="9.00" fill="#ff6b6b">Damage shields first</text>
</g>
<!-- beam_combat&#45;&gt;missile_phase -->
<g id="edge4" class="edge">
<title>beam_combat&#45;&gt;missile_phase</title>
<path fill="none" stroke="#4ecdc4" d="M609.65,-333.69C588.59,-319.45 566.89,-300.17 555.32,-276.3 542.34,-249.5 540.01,-234.84 555.32,-209.3 562.46,-197.4 572.93,-187.78 584.61,-180.05"/>
<polygon fill="#4ecdc4" stroke="#4ecdc4" points="585.8,-182.61 591.15,-176.04 582.87,-177.84 585.8,-182.61"/>
</g>
<!-- v1 -->
<g id="node7" class="node">
<title>v1</title>
<path fill="#2d2d44" stroke="#ff6b6b" d="M732.82,-276.55C732.82,-276.55 596.82,-276.55 596.82,-276.55 590.82,-276.55 584.82,-270.55 584.82,-264.55 584.82,-264.55 584.82,-221.05 584.82,-221.05 584.82,-215.05 590.82,-209.05 596.82,-209.05 596.82,-209.05 732.82,-209.05 732.82,-209.05 738.82,-209.05 744.82,-215.05 744.82,-221.05 744.82,-221.05 744.82,-264.55 744.82,-264.55 744.82,-270.55 738.82,-276.55 732.82,-276.55"/>
<text xml:space="preserve" text-anchor="start" x="638.95" y="-257.1" font-family="Helvetica,sans-Serif" font-weight="bold" font-size="11.00" fill="#ff6b6b">Pre&#45;v2.0.0</text>
<text xml:space="preserve" text-anchor="start" x="598.82" y="-238" font-family="Helvetica,sans-Serif" font-size="9.00" fill="white">Movement, Combat, then Regen</text>
<text xml:space="preserve" text-anchor="start" x="609.7" y="-220.25" font-family="Helvetica,sans-Serif" font-size="9.00" fill="#888888">Shields weaker at turn start</text>
</g>
<!-- beam_combat&#45;&gt;v1 -->
<!-- turn_end -->
<g id="node6" class="node">
<title>turn_end</title>
<ellipse fill="#1a1a2e" stroke="#95d5b2" cx="904.62" cy="-28.8" rx="66.36" ry="28.8"/>
<text xml:space="preserve" text-anchor="start" x="881" y="-32.23" font-family="Helvetica,sans-Serif" font-weight="bold" font-size="11.00" fill="white">Turn End</text>
<text xml:space="preserve" text-anchor="start" x="864.5" y="-17.13" font-family="Helvetica,sans-Serif" font-size="9.00" fill="#888888">Increment complete</text>
</g>
<!-- missile_phase&#45;&gt;turn_end -->
<g id="edge5" class="edge">
<title>missile_phase&#45;&gt;turn_end</title>
<path fill="none" stroke="#4ecdc4" d="M713.63,-121.65C739.86,-106.11 773.2,-87.1 803.82,-71.8 817.45,-64.99 832.41,-58.2 846.5,-52.09"/>
<polygon fill="#4ecdc4" stroke="#4ecdc4" points="847.51,-54.71 853.75,-48.98 845.3,-49.56 847.51,-54.71"/>
</g>
<!-- v2 -->
<g id="node8" class="node">
<title>v2</title>
<path fill="#2d2d44" stroke="#95d5b2" d="M972.62,-276.55C972.62,-276.55 836.62,-276.55 836.62,-276.55 830.62,-276.55 824.62,-270.55 824.62,-264.55 824.62,-264.55 824.62,-221.05 824.62,-221.05 824.62,-215.05 830.62,-209.05 836.62,-209.05 836.62,-209.05 972.62,-209.05 972.62,-209.05 978.62,-209.05 984.62,-215.05 984.62,-221.05 984.62,-221.05 984.62,-264.55 984.62,-264.55 984.62,-270.55 978.62,-276.55 972.62,-276.55"/>
<text xml:space="preserve" text-anchor="start" x="886.25" y="-257.1" font-family="Helvetica,sans-Serif" font-weight="bold" font-size="11.00" fill="#95d5b2">v2.0.0+</text>
<text xml:space="preserve" text-anchor="start" x="838.62" y="-238" font-family="Helvetica,sans-Serif" font-size="9.00" fill="white">Regen, Movement, then Combat</text>
<text xml:space="preserve" text-anchor="start" x="840.5" y="-220.25" font-family="Helvetica,sans-Serif" font-size="9.00" fill="#888888">Shields recover before damage</text>
</g>
<!-- missile_phase&#45;&gt;v2 -->
<!-- turn_end&#45;&gt;turn_start -->
<g id="edge6" class="edge">
<title>turn_end&#45;&gt;turn_start</title>
<path fill="none" stroke="#888888" stroke-dasharray="5,2" d="M842.86,-39.9C777.87,-52.68 672.33,-76.06 584.82,-107.8 401.31,-174.36 196.76,-285.47 107.17,-336.15"/>
<polygon fill="#888888" stroke="#888888" points="106.01,-333.58 100.43,-339.97 108.77,-338.45 106.01,-333.58"/>
<text xml:space="preserve" text-anchor="middle" x="453.82" y="-204.29" font-family="Helvetica,sans-Serif" font-size="9.00" fill="#888888">next</text>
<text xml:space="preserve" text-anchor="middle" x="453.82" y="-194.54" font-family="Helvetica,sans-Serif" font-size="9.00" fill="#888888">increment</text>
</g>
<!-- v1&#45;&gt;v2 -->
<!-- tactic -->
<g id="node9" class="node">
<title>tactic</title>
<polygon fill="#2d2d44" stroke="#4ecdc4" points="999.42,-151.43 803.82,-151.43 803.82,-86.18 1005.42,-86.18 1005.42,-145.43 999.42,-151.43"/>
<polyline fill="none" stroke="#4ecdc4" points="999.42,-151.43 999.42,-145.43"/>
<polyline fill="none" stroke="#4ecdc4" points="1005.42,-145.43 999.42,-145.43"/>
<text xml:space="preserve" text-anchor="start" x="854.37" y="-135.98" font-family="Helvetica,sans-Serif" font-weight="bold" font-size="11.00" fill="#4ecdc4">Tactical Implication</text>
<text xml:space="preserve" text-anchor="start" x="839" y="-120.88" font-family="Helvetica,sans-Serif" font-size="9.00" fill="white">Ships closing range benefit from</text>
<text xml:space="preserve" text-anchor="start" x="827.37" y="-107.13" font-family="Helvetica,sans-Serif" font-size="9.00" fill="white">regenerated shields before taking fire.</text>
<text xml:space="preserve" text-anchor="start" x="826.62" y="-93.38" font-family="Helvetica,sans-Serif" font-size="9.00" fill="white">Alpha strikes are slightly less effective.</text>
</g>
<!-- v2&#45;&gt;tactic -->
</g>
</svg>
