<?xml version="1.0" encoding="UTF-8" standalone="no"?>
<!DOCTYPE svg PUBLIC "-//W3C//DTD SVG 1.1//EN"
 "http://www.w3.org/Graphics/SVG/1.1/DTD/svg11.dtd">
<!-- Generated by graphviz version 14.1.2 (20260124.0452)
 -->
<!-- Title: ResearchProcessFlow Pages: 1 -->
<svg width="1487pt" height="903pt"
 viewBox="0.00 0.00 1487.00 903.00" xmlns="http://www.w3.org/2000/svg" xmlns:xlink="http://www.w3.org/1999/xlink">
<g id="graph0" class="graph" transform="scale(1 1) rotate(0) translate(4 899)">
<title>ResearchProcessFlow</title>
<polygon fill="#1a1a2e" stroke="none" points="-4,4 -4,-899 1483,-899 1483,4 -4,4"/>
<text xml:space="preserve" text-anchor="middle" x="739.5" y="-877.7" font-family="Helvetica,sans-Serif" font-size="14.00" fill="white">Figure 7.1: Research Process Flow and Feedback Loop</text>
<g id="clust1" class="cluster">
<title>cluster_cycle</title>
<polygon fill="#1a1a2e" stroke="#4ecdc4" stroke-dasharray="5,2" points="254,-8 254,-643.5 430,-643.5 430,-8 254,-8"/>
<text xml:space="preserve" text-anchor="middle" x="342" y="-626.2" font-family="Helvetica,sans-Serif" font-size="14.00" fill="#888888">Research Cycle</text>
</g>
<g id="clust2" class="cluster">
<title>cluster_unlock</title>
<polygon fill="#1a1a2e" stroke="#ff6b6b" stroke-dasharray="5,2" points="51,-329.12 51,-763 180,-763 180,-329.12 51,-329.12"/>
<text xml:space="preserve" text-anchor="middle" x="115.5" y="-745.7" font-family="Helvetica,sans-Serif" font-size="14.00" fill="#888888">Technology Unlock</text>
</g>
<g id="clust3" class="cluster">
<title>cluster_feedback</title>
<polygon fill="#1a1a2e" stroke="#9b59b6" stroke-dasharray="5,2" points="438,-329.12 438,-864 639,-864 639,-329.12 438,-329.12"/>
<text xml:space="preserve" text-anchor="middle" x="538.5" y="-846.7" font-family="Helvetica,sans-Serif" font-size="14.00" fill="#888888">Economic Feedback Loop</text>
</g>
<g id="clust4" class="cluster">
<title>cluster_inputs</title>
<polygon fill="#1a1a2e" stroke="#666666" stroke-dasharray="5,2" points="666,-326.25 666,-518.25 953,-518.25 953,-326.25 666,-326.25"/>
<text xml:space="preserve" text-anchor="middle" x="809.5" y="-500.95" font-family="Helvetica,sans-Serif" font-size="14.00" fill="#888888">Key Inputs</text>
</g>
<g id="clust5" class="cluster">
<title>cluster_legend</title>
<polygon fill="#1a1a2e" stroke="#666666" stroke-dasharray="5,2" points="647,-789 647,-864 1471,-864 1471,-789 647,-789"/>
<text xml:space="preserve" text-anchor="middle" x="1059" y="-846.7" font-family="Helvetica,sans-Serif" font-size="14.00" fill="#888888">Legend</text>
</g>
<!-- available -->
<g id="node1" class="node">
<title>available</title>
<path fill="#2d2d44" stroke="#4ecdc4" d="M352.12,-612.5C352.12,-612.5 303.88,-612.5 303.88,-612.5 297.88,-612.5 291.88,-606.5 291.88,-600.5 291.88,-600.5 291.88,-582.75 291.88,-582.75 291.88,-576.75 297.88,-570.75 303.88,-570.75 303.88,-570.75 352.12,-570.75 352.12,-570.75 358.12,-570.75 364.12,-576.75 364.12,-582.75 364.12,-582.75 364.12,-600.5 364.12,-600.5 364.12,-606.5 358.12,-612.5 352.12,-612.5"/>
<text xml:space="preserve" text-anchor="middle" x="328" y="-599" font-family="Helvetica,sans-Serif" font-size="10.00" fill="white">Technology</text>
<text xml:space="preserve" text-anchor="middle" x="328" y="-587.75" font-family="Helvetica,sans-Serif" font-size="10.00" fill="white">Available</text>
<text xml:space="preserve" text-anchor="middle" x="328" y="-576.5" font-family="Helvetica,sans-Serif" font-size="10.00" fill="white">for Research</text>
</g>
<!-- select -->
<g id="node2" class="node">
<title>select</title>
<path fill="#ffe66d" stroke="#4ecdc4" d="M352,-487.25C352,-487.25 318,-487.25 318,-487.25 312,-487.25 306,-481.25 306,-475.25 306,-475.25 306,-457.5 306,-457.5 306,-451.5 312,-445.5 318,-445.5 318,-445.5 352,-445.5 352,-445.5 358,-445.5 364,-451.5 364,-457.5 364,-457.5 364,-475.25 364,-475.25 364,-481.25 358,-487.25 352,-487.25"/>
<text xml:space="preserve" text-anchor="middle" x="335" y="-473.75" font-family="Helvetica,sans-Serif" font-size="10.00" fill="#1a1a2e">Select</text>
<text xml:space="preserve" text-anchor="middle" x="335" y="-462.5" font-family="Helvetica,sans-Serif" font-size="10.00" fill="#1a1a2e">Research</text>
<text xml:space="preserve" text-anchor="middle" x="335" y="-451.25" font-family="Helvetica,sans-Serif" font-size="10.00" fill="#1a1a2e">Project</text>
</g>
<!-- available&#45;&gt;select -->
<g id="edge1" class="edge">
<title>available&#45;&gt;select</title>
<path fill="none" stroke="#4ecdc4" d="M329.16,-570.27C330.31,-549.9 332.1,-518.4 333.4,-495.61"/>
<polygon fill="#4ecdc4" stroke="#4ecdc4" points="335.83,-495.99 333.78,-488.86 330.94,-495.71 335.83,-495.99"/>
<text xml:space="preserve" text-anchor="middle" x="345" y="-537.2" font-family="Helvetica,sans-Serif" font-size="9.00" fill="white">Player</text>
<text xml:space="preserve" text-anchor="middle" x="345" y="-527.45" font-family="Helvetica,sans-Serif" font-size="9.00" fill="white">choice</text>
</g>
<!-- assign -->
<g id="node3" class="node">
<title>assign</title>
<path fill="#ffe66d" stroke="#4ecdc4" d="M391.62,-376C391.62,-376 334.38,-376 334.38,-376 328.38,-376 322.38,-370 322.38,-364 322.38,-364 322.38,-346.25 322.38,-346.25 322.38,-340.25 328.38,-334.25 334.38,-334.25 334.38,-334.25 391.62,-334.25 391.62,-334.25 397.62,-334.25 403.62,-340.25 403.62,-346.25 403.62,-346.25 403.62,-364 403.62,-364 403.62,-370 397.62,-376 391.62,-376"/>
<text xml:space="preserve" text-anchor="middle" x="363" y="-362.5" font-family="Helvetica,sans-Serif" font-size="10.00" fill="#1a1a2e">Assign</text>
<text xml:space="preserve" text-anchor="middle" x="363" y="-351.25" font-family="Helvetica,sans-Serif" font-size="10.00" fill="#1a1a2e">Scientist</text>
<text xml:space="preserve" text-anchor="middle" x="363" y="-340" font-family="Helvetica,sans-Serif" font-size="10.00" fill="#1a1a2e">(Admin Rating)</text>
</g>
<!-- select&#45;&gt;assign -->
<g id="edge2" class="edge">
<title>select&#45;&gt;assign</title>
<path fill="none" stroke="#4ecdc4" d="M340.2,-445.08C344.58,-427.99 350.9,-403.35 355.77,-384.34"/>
<polygon fill="#4ecdc4" stroke="#4ecdc4" points="358.09,-385.16 357.45,-377.78 353.34,-383.95 358.09,-385.16"/>
<text xml:space="preserve" text-anchor="middle" x="371.3" y="-411.95" font-family="Helvetica,sans-Serif" font-size="9.00" fill="white">Assign to</text>
<text xml:space="preserve" text-anchor="middle" x="371.3" y="-402.2" font-family="Helvetica,sans-Serif" font-size="9.00" fill="white">lab queue</text>
</g>
<!-- labs -->
<g id="node4" class="node">
<title>labs</title>
<path fill="#95d5b2" stroke="#4ecdc4" d="M404.5,-264.75C404.5,-264.75 331.5,-264.75 331.5,-264.75 325.5,-264.75 319.5,-258.75 319.5,-252.75 319.5,-252.75 319.5,-235 319.5,-235 319.5,-229 325.5,-223 331.5,-223 331.5,-223 404.5,-223 404.5,-223 410.5,-223 416.5,-229 416.5,-235 416.5,-235 416.5,-252.75 416.5,-252.75 416.5,-258.75 410.5,-264.75 404.5,-264.75"/>
<text xml:space="preserve" text-anchor="middle" x="368" y="-251.25" font-family="Helvetica,sans-Serif" font-size="10.00" fill="#1a1a2e">Labs Generate RP</text>
<text xml:space="preserve" text-anchor="middle" x="368" y="-240" font-family="Helvetica,sans-Serif" font-size="10.00" fill="#1a1a2e">200 RP/lab/year</text>
<text xml:space="preserve" text-anchor="middle" x="368" y="-228.75" font-family="Helvetica,sans-Serif" font-size="10.00" fill="#1a1a2e">(base rate)</text>
</g>
<!-- assign&#45;&gt;labs -->
<g id="edge3" class="edge">
<title>assign&#45;&gt;labs</title>
<path fill="none" stroke="#4ecdc4" d="M363.93,-333.83C364.71,-316.82 365.83,-292.32 366.7,-273.34"/>
<polygon fill="#4ecdc4" stroke="#4ecdc4" points="369.13,-273.68 367.01,-266.57 364.24,-273.45 369.13,-273.68"/>
<text xml:space="preserve" text-anchor="middle" x="395.05" y="-300.7" font-family="Helvetica,sans-Serif" font-size="9.00" fill="white">Scientist</text>
<text xml:space="preserve" text-anchor="middle" x="395.05" y="-290.95" font-family="Helvetica,sans-Serif" font-size="9.00" fill="white">bonus applied</text>
</g>
<!-- progress -->
<g id="node5" class="node">
<title>progress</title>
<path fill="#95d5b2" stroke="#4ecdc4" d="M344.38,-153.5C344.38,-153.5 273.62,-153.5 273.62,-153.5 267.62,-153.5 261.62,-147.5 261.62,-141.5 261.62,-141.5 261.62,-123.75 261.62,-123.75 261.62,-117.75 267.62,-111.75 273.62,-111.75 273.62,-111.75 344.38,-111.75 344.38,-111.75 350.38,-111.75 356.38,-117.75 356.38,-123.75 356.38,-123.75 356.38,-141.5 356.38,-141.5 356.38,-147.5 350.38,-153.5 344.38,-153.5"/>
<text xml:space="preserve" text-anchor="middle" x="309" y="-140" font-family="Helvetica,sans-Serif" font-size="10.00" fill="#1a1a2e">Research</text>
<text xml:space="preserve" text-anchor="middle" x="309" y="-128.75" font-family="Helvetica,sans-Serif" font-size="10.00" fill="#1a1a2e">Progress</text>
<text xml:space="preserve" text-anchor="middle" x="309" y="-117.5" font-family="Helvetica,sans-Serif" font-size="10.00" fill="#1a1a2e">(RP accumulates)</text>
</g>
<!-- labs&#45;&gt;progress -->
<g id="edge4" class="edge">
<title>labs&#45;&gt;progress</title>
<path fill="none" stroke="#4ecdc4" d="M357.04,-222.58C347.69,-205.26 334.15,-180.19 323.82,-161.07"/>
<polygon fill="#4ecdc4" stroke="#4ecdc4" points="326.1,-160.14 320.62,-155.14 321.79,-162.46 326.1,-160.14"/>
<text xml:space="preserve" text-anchor="middle" x="352.53" y="-189.45" font-family="Helvetica,sans-Serif" font-size="9.00" fill="white">Each</text>
<text xml:space="preserve" text-anchor="middle" x="352.53" y="-179.7" font-family="Helvetica,sans-Serif" font-size="9.00" fill="white">year</text>
</g>
<!-- progress&#45;&gt;progress -->
<g id="edge6" class="edge">
<title>progress&#45;&gt;progress</title>
<path fill="none" stroke="#4ecdc4" stroke-dasharray="5,2" d="M356.43,-141.91C379.24,-143.05 399.38,-139.96 399.38,-132.62 399.38,-126.21 383.96,-123.04 364.82,-123.11"/>
<polygon fill="#4ecdc4" stroke="#4ecdc4" points="364.87,-120.66 357.94,-123.3 365,-125.56 364.87,-120.66"/>
<text xml:space="preserve" text-anchor="middle" x="423" y="-133.82" font-family="Helvetica,sans-Serif" font-size="9.00" fill="white">Continue</text>
<text xml:space="preserve" text-anchor="middle" x="423" y="-124.08" font-family="Helvetica,sans-Serif" font-size="9.00" fill="white">(RP &lt; Cost)</text>
</g>
<!-- complete -->
<g id="node6" class="node">
<title>complete</title>
<path fill="#95d5b2" stroke="#4ecdc4" d="M318.5,-52C318.5,-52 281.5,-52 281.5,-52 275.5,-52 269.5,-46 269.5,-40 269.5,-40 269.5,-28 269.5,-28 269.5,-22 275.5,-16 281.5,-16 281.5,-16 318.5,-16 318.5,-16 324.5,-16 330.5,-22 330.5,-28 330.5,-28 330.5,-40 330.5,-40 330.5,-46 324.5,-52 318.5,-52"/>
<text xml:space="preserve" text-anchor="middle" x="300" y="-35.75" font-family="Helvetica,sans-Serif" font-size="10.00" fill="#1a1a2e">Research</text>
<text xml:space="preserve" text-anchor="middle" x="300" y="-24.5" font-family="Helvetica,sans-Serif" font-size="10.00" fill="#1a1a2e">Complete!</text>
</g>
<!-- progress&#45;&gt;complete -->
<g id="edge5" class="edge">
<title>progress&#45;&gt;complete</title>
<path fill="none" stroke="#4ecdc4" d="M307.14,-111.6C305.76,-96.87 303.88,-76.7 302.4,-60.76"/>
<polygon fill="#4ecdc4" stroke="#4ecdc4" points="304.85,-60.65 301.76,-53.91 299.97,-61.11 304.85,-60.65"/>
<text xml:space="preserve" text-anchor="middle" x="328.02" y="-78.2" font-family="Helvetica,sans-Serif" font-size="9.00" fill="white">RP &gt;= Cost</text>
</g>
<!-- tech_unlocked -->
<g id="node7" class="node">
<title>tech_unlocked</title>
<path fill="#ff6b6b" stroke="#4ecdc4" d="M115.75,-732C115.75,-732 74.25,-732 74.25,-732 68.25,-732 62.25,-726 62.25,-720 62.25,-720 62.25,-708 62.25,-708 62.25,-702 68.25,-696 74.25,-696 74.25,-696 115.75,-696 115.75,-696 121.75,-696 127.75,-702 127.75,-708 127.75,-708 127.75,-720 127.75,-720 127.75,-726 121.75,-732 115.75,-732"/>
<text xml:space="preserve" text-anchor="middle" x="95" y="-715.75" font-family="Helvetica,sans-Serif" font-size="10.00" fill="white">Technology</text>
<text xml:space="preserve" text-anchor="middle" x="95" y="-704.5" font-family="Helvetica,sans-Serif" font-size="10.00" fill="white">Unlocked</text>
</g>
<!-- complete&#45;&gt;tech_unlocked -->
<g id="edge7" class="edge">
<title>complete&#45;&gt;tech_unlocked</title>
<path fill="none" stroke="#ff6b6b" d="M269.02,-38.3C192.38,-47.32 0,-75.54 0,-131.62 0,-592.62 0,-592.62 0,-592.62 0,-633.79 34.65,-669.13 62.1,-690.68"/>
<polygon fill="#ff6b6b" stroke="#ff6b6b" points="60.28,-692.38 67.33,-694.67 63.25,-688.48 60.28,-692.38"/>
</g>
<!-- tech_unlocked&#45;&gt;available -->
<g id="edge11" class="edge">
<title>tech_unlocked&#45;&gt;available</title>
<path fill="none" stroke="#4ecdc4" stroke-dasharray="5,2" d="M127.89,-696.01C168.77,-674.89 238.67,-638.78 284.09,-615.31"/>
<polygon fill="#4ecdc4" stroke="#4ecdc4" points="285,-617.6 290.1,-612.21 282.75,-613.24 285,-617.6"/>
<text xml:space="preserve" text-anchor="middle" x="238.12" y="-662.45" font-family="Helvetica,sans-Serif" font-size="9.00" fill="white">Unlocks</text>
<text xml:space="preserve" text-anchor="middle" x="238.12" y="-652.7" font-family="Helvetica,sans-Serif" font-size="9.00" fill="white">prerequisites</text>
</g>
<!-- components -->
<g id="node8" class="node">
<title>components</title>
<path fill="#ff6b6b" stroke="#4ecdc4" d="M147.38,-609.62C147.38,-609.62 76.62,-609.62 76.62,-609.62 70.62,-609.62 64.62,-603.62 64.62,-597.62 64.62,-597.62 64.62,-585.62 64.62,-585.62 64.62,-579.62 70.62,-573.62 76.62,-573.62 76.62,-573.62 147.38,-573.62 147.38,-573.62 153.38,-573.62 159.38,-579.62 159.38,-585.62 159.38,-585.62 159.38,-597.62 159.38,-597.62 159.38,-603.62 153.38,-609.62 147.38,-609.62"/>
<text xml:space="preserve" text-anchor="middle" x="112" y="-593.38" font-family="Helvetica,sans-Serif" font-size="10.00" fill="white">New Components</text>
<text xml:space="preserve" text-anchor="middle" x="112" y="-582.12" font-family="Helvetica,sans-Serif" font-size="10.00" fill="white">Available</text>
</g>
<!-- tech_unlocked&#45;&gt;components -->
<g id="edge8" class="edge">
<title>tech_unlocked&#45;&gt;components</title>
<path fill="none" stroke="#ff6b6b" d="M95.85,-695.71C96.59,-683.35 97.89,-666.35 100,-651.5 101.56,-640.53 103.89,-628.52 106.09,-618.23"/>
<polygon fill="#ff6b6b" stroke="#ff6b6b" points="108.45,-618.89 107.55,-611.53 103.66,-617.84 108.45,-618.89"/>
</g>
<!-- ship_designer -->
<g id="node9" class="node">
<title>ship_designer</title>
<path fill="#ff6b6b" stroke="#4ecdc4" d="M144.75,-484.38C144.75,-484.38 91.25,-484.38 91.25,-484.38 85.25,-484.38 79.25,-478.38 79.25,-472.38 79.25,-472.38 79.25,-460.38 79.25,-460.38 79.25,-454.38 85.25,-448.38 91.25,-448.38 91.25,-448.38 144.75,-448.38 144.75,-448.38 150.75,-448.38 156.75,-454.38 156.75,-460.38 156.75,-460.38 156.75,-472.38 156.75,-472.38 156.75,-478.38 150.75,-484.38 144.75,-484.38"/>
<text xml:space="preserve" text-anchor="middle" x="118" y="-468.12" font-family="Helvetica,sans-Serif" font-size="10.00" fill="white">Ship Designer</text>
<text xml:space="preserve" text-anchor="middle" x="118" y="-456.88" font-family="Helvetica,sans-Serif" font-size="10.00" fill="white">Class Design</text>
</g>
<!-- components&#45;&gt;ship_designer -->
<g id="edge9" class="edge">
<title>components&#45;&gt;ship_designer</title>
<path fill="none" stroke="#ff6b6b" d="M112.85,-573.23C113.87,-552.31 115.58,-517.01 116.75,-492.98"/>
<polygon fill="#ff6b6b" stroke="#ff6b6b" points="119.19,-493.31 117.08,-486.2 114.3,-493.07 119.19,-493.31"/>
</g>
<!-- production -->
<g id="node10" class="node">
<title>production</title>
<path fill="#ff6b6b" stroke="#4ecdc4" d="M158.25,-373.12C158.25,-373.12 119.75,-373.12 119.75,-373.12 113.75,-373.12 107.75,-367.12 107.75,-361.12 107.75,-361.12 107.75,-349.12 107.75,-349.12 107.75,-343.12 113.75,-337.12 119.75,-337.12 119.75,-337.12 158.25,-337.12 158.25,-337.12 164.25,-337.12 170.25,-343.12 170.25,-349.12 170.25,-349.12 170.25,-361.12 170.25,-361.12 170.25,-367.12 164.25,-373.12 158.25,-373.12"/>
<text xml:space="preserve" text-anchor="middle" x="139" y="-356.88" font-family="Helvetica,sans-Serif" font-size="10.00" fill="white">Shipyard</text>
<text xml:space="preserve" text-anchor="middle" x="139" y="-345.62" font-family="Helvetica,sans-Serif" font-size="10.00" fill="white">Production</text>
</g>
<!-- ship_designer&#45;&gt;production -->
<g id="edge10" class="edge">
<title>ship_designer&#45;&gt;production</title>
<path fill="none" stroke="#ff6b6b" d="M121.28,-448.3C124.71,-430.45 130.14,-402.22 134.08,-381.7"/>
<polygon fill="#ff6b6b" stroke="#ff6b6b" points="136.47,-382.26 135.39,-374.92 131.66,-381.33 136.47,-382.26"/>
<text xml:space="preserve" text-anchor="middle" x="142.51" y="-411.95" font-family="Helvetica,sans-Serif" font-size="9.00" fill="white">Tool &amp;</text>
<text xml:space="preserve" text-anchor="middle" x="142.51" y="-402.2" font-family="Helvetica,sans-Serif" font-size="9.00" fill="white">Build</text>
</g>
<!-- better_ships -->
<g id="node11" class="node">
<title>better_ships</title>
<path fill="#9b59b6" stroke="#4ecdc4" d="M525.88,-833C525.88,-833 458.12,-833 458.12,-833 452.12,-833 446.12,-827 446.12,-821 446.12,-821 446.12,-809 446.12,-809 446.12,-803 452.12,-797 458.12,-797 458.12,-797 525.88,-797 525.88,-797 531.88,-797 537.88,-803 537.88,-809 537.88,-809 537.88,-821 537.88,-821 537.88,-827 531.88,-833 525.88,-833"/>
<text xml:space="preserve" text-anchor="middle" x="492" y="-816.75" font-family="Helvetica,sans-Serif" font-size="10.00" fill="white">Better Ships</text>
<text xml:space="preserve" text-anchor="middle" x="492" y="-805.5" font-family="Helvetica,sans-Serif" font-size="10.00" fill="white">(Faster, Stronger)</text>
</g>
<!-- production&#45;&gt;better_ships -->
<g id="edge12" class="edge">
<title>production&#45;&gt;better_ships</title>
<path fill="none" stroke="#9b59b6" d="M164.5,-373.39C189.54,-392.62 224,-426.2 224,-465.38 224,-715 224,-715 224,-715 224,-760.11 359.27,-791.09 437.6,-805.25"/>
<polygon fill="#9b59b6" stroke="#9b59b6" points="437.12,-807.65 444.44,-806.47 437.98,-802.83 437.12,-807.65"/>
</g>
<!-- expansion -->
<g id="node12" class="node">
<title>expansion</title>
<path fill="#9b59b6" stroke="#4ecdc4" d="M510.88,-732C510.88,-732 473.12,-732 473.12,-732 467.12,-732 461.12,-726 461.12,-720 461.12,-720 461.12,-708 461.12,-708 461.12,-702 467.12,-696 473.12,-696 473.12,-696 510.88,-696 510.88,-696 516.88,-696 522.88,-702 522.88,-708 522.88,-708 522.88,-720 522.88,-720 522.88,-726 516.88,-732 510.88,-732"/>
<text xml:space="preserve" text-anchor="middle" x="492" y="-715.75" font-family="Helvetica,sans-Serif" font-size="10.00" fill="white">Empire</text>
<text xml:space="preserve" text-anchor="middle" x="492" y="-704.5" font-family="Helvetica,sans-Serif" font-size="10.00" fill="white">Expansion</text>
</g>
<!-- better_ships&#45;&gt;expansion -->
<g id="edge13" class="edge">
<title>better_ships&#45;&gt;expansion</title>
<path fill="none" stroke="#9b59b6" d="M492,-796.76C492,-781.24 492,-758.22 492,-740.56"/>
<polygon fill="#9b59b6" stroke="#9b59b6" points="494.45,-740.89 492,-733.89 489.55,-740.89 494.45,-740.89"/>
</g>
<!-- more_pop -->
<g id="node13" class="node">
<title>more_pop</title>
<path fill="#9b59b6" stroke="#4ecdc4" d="M510.88,-609.62C510.88,-609.62 473.12,-609.62 473.12,-609.62 467.12,-609.62 461.12,-603.62 461.12,-597.62 461.12,-597.62 461.12,-585.62 461.12,-585.62 461.12,-579.62 467.12,-573.62 473.12,-573.62 473.12,-573.62 510.88,-573.62 510.88,-573.62 516.88,-573.62 522.88,-579.62 522.88,-585.62 522.88,-585.62 522.88,-597.62 522.88,-597.62 522.88,-603.62 516.88,-609.62 510.88,-609.62"/>
<text xml:space="preserve" text-anchor="middle" x="492" y="-593.38" font-family="Helvetica,sans-Serif" font-size="10.00" fill="white">More</text>
<text xml:space="preserve" text-anchor="middle" x="492" y="-582.12" font-family="Helvetica,sans-Serif" font-size="10.00" fill="white">Population</text>
</g>
<!-- expansion&#45;&gt;more_pop -->
<g id="edge14" class="edge">
<title>expansion&#45;&gt;more_pop</title>
<path fill="none" stroke="#9b59b6" d="M492,-695.75C492,-675.46 492,-641.58 492,-618.23"/>
<polygon fill="#9b59b6" stroke="#9b59b6" points="494.45,-618.35 492,-611.35 489.55,-618.35 494.45,-618.35"/>
</g>
<!-- more_labs -->
<g id="node14" class="node">
<title>more_labs</title>
<path fill="#9b59b6" stroke="#4ecdc4" d="M516,-484.38C516,-484.38 458,-484.38 458,-484.38 452,-484.38 446,-478.38 446,-472.38 446,-472.38 446,-460.38 446,-460.38 446,-454.38 452,-448.38 458,-448.38 458,-448.38 516,-448.38 516,-448.38 522,-448.38 528,-454.38 528,-460.38 528,-460.38 528,-472.38 528,-472.38 528,-478.38 522,-484.38 516,-484.38"/>
<text xml:space="preserve" text-anchor="middle" x="487" y="-468.12" font-family="Helvetica,sans-Serif" font-size="10.00" fill="white">More</text>
<text xml:space="preserve" text-anchor="middle" x="487" y="-456.88" font-family="Helvetica,sans-Serif" font-size="10.00" fill="white">Research Labs</text>
</g>
<!-- more_pop&#45;&gt;more_labs -->
<g id="edge15" class="edge">
<title>more_pop&#45;&gt;more_labs</title>
<path fill="none" stroke="#9b59b6" d="M491.29,-573.23C490.45,-552.31 489.01,-517.01 488.04,-492.98"/>
<polygon fill="#9b59b6" stroke="#9b59b6" points="490.5,-493.09 487.76,-486.2 485.6,-493.29 490.5,-493.09"/>
</g>
<!-- more_scientists -->
<g id="node15" class="node">
<title>more_scientists</title>
<path fill="#9b59b6" stroke="#4ecdc4" d="M618.75,-484.38C618.75,-484.38 583.25,-484.38 583.25,-484.38 577.25,-484.38 571.25,-478.38 571.25,-472.38 571.25,-472.38 571.25,-460.38 571.25,-460.38 571.25,-454.38 577.25,-448.38 583.25,-448.38 583.25,-448.38 618.75,-448.38 618.75,-448.38 624.75,-448.38 630.75,-454.38 630.75,-460.38 630.75,-460.38 630.75,-472.38 630.75,-472.38 630.75,-478.38 624.75,-484.38 618.75,-484.38"/>
<text xml:space="preserve" text-anchor="middle" x="601" y="-468.12" font-family="Helvetica,sans-Serif" font-size="10.00" fill="white">More</text>
<text xml:space="preserve" text-anchor="middle" x="601" y="-456.88" font-family="Helvetica,sans-Serif" font-size="10.00" fill="white">Scientists</text>
</g>
<!-- more_pop&#45;&gt;more_scientists -->
<g id="edge16" class="edge">
<title>more_pop&#45;&gt;more_scientists</title>
<path fill="none" stroke="#9b59b6" d="M507.39,-573.23C526.46,-551.66 559.03,-514.83 580.28,-490.8"/>
<polygon fill="#9b59b6" stroke="#9b59b6" points="581.89,-492.68 584.69,-485.82 578.22,-489.44 581.89,-492.68"/>
</g>
<!-- faster_research -->
<g id="node16" class="node">
<title>faster_research</title>
<path fill="#9b59b6" stroke="#4ecdc4" d="M504,-373.12C504,-373.12 470,-373.12 470,-373.12 464,-373.12 458,-367.12 458,-361.12 458,-361.12 458,-349.12 458,-349.12 458,-343.12 464,-337.12 470,-337.12 470,-337.12 504,-337.12 504,-337.12 510,-337.12 516,-343.12 516,-349.12 516,-349.12 516,-361.12 516,-361.12 516,-367.12 510,-373.12 504,-373.12"/>
<text xml:space="preserve" text-anchor="middle" x="487" y="-356.88" font-family="Helvetica,sans-Serif" font-size="10.00" fill="white">Faster</text>
<text xml:space="preserve" text-anchor="middle" x="487" y="-345.62" font-family="Helvetica,sans-Serif" font-size="10.00" fill="white">Research</text>
</g>
<!-- more_labs&#45;&gt;faster_research -->
<g id="edge17" class="edge">
<title>more_labs&#45;&gt;faster_research</title>
<path fill="none" stroke="#9b59b6" d="M487,-448.3C487,-430.45 487,-402.22 487,-381.7"/>
<polygon fill="#9b59b6" stroke="#9b59b6" points="489.45,-381.95 487,-374.95 484.55,-381.95 489.45,-381.95"/>
</g>
<!-- more_scientists&#45;&gt;faster_research -->
<g id="edge18" class="edge">
<title>more_scientists&#45;&gt;faster_research</title>
<path fill="none" stroke="#9b59b6" d="M582.94,-448.06C563.51,-429.45 532.52,-399.75 511.04,-379.16"/>
<polygon fill="#9b59b6" stroke="#9b59b6" points="512.82,-377.48 506.07,-374.4 509.43,-381.01 512.82,-377.48"/>
</g>
<!-- faster_research&#45;&gt;labs -->
<g id="edge19" class="edge">
<title>faster_research&#45;&gt;labs</title>
<path fill="none" stroke="#9b59b6" stroke-width="2" d="M473.74,-336.73C462.98,-323.18 447.02,-304.28 431,-289.75 423.39,-282.84 414.7,-276.06 406.25,-269.93"/>
<polygon fill="#9b59b6" stroke="#9b59b6" stroke-width="2" points="409.15,-268.99 402.02,-266.93 406.31,-272.98 409.15,-268.99"/>
<text xml:space="preserve" text-anchor="middle" x="472.09" y="-300.7" font-family="Helvetica,sans-Serif" font-size="9.00" fill="white">Compound</text>
<text xml:space="preserve" text-anchor="middle" x="472.09" y="-290.95" font-family="Helvetica,sans-Serif" font-size="9.00" fill="white">growth</text>
</g>
<!-- input_labs -->
<g id="node17" class="node">
<title>input_labs</title>
<path fill="#2d2d44" stroke="#4ecdc4" d="M816.88,-376C816.88,-376 737.12,-376 737.12,-376 731.12,-376 725.12,-370 725.12,-364 725.12,-364 725.12,-346.25 725.12,-346.25 725.12,-340.25 731.12,-334.25 737.12,-334.25 737.12,-334.25 816.88,-334.25 816.88,-334.25 822.88,-334.25 828.88,-340.25 828.88,-346.25 828.88,-346.25 828.88,-364 828.88,-364 828.88,-370 822.88,-376 816.88,-376"/>
<text xml:space="preserve" text-anchor="middle" x="777" y="-362.5" font-family="Helvetica,sans-Serif" font-size="10.00" fill="white">Research Labs</text>
<text xml:space="preserve" text-anchor="middle" x="777" y="-351.25" font-family="Helvetica,sans-Serif" font-size="10.00" fill="white">(Ground Installation)</text>
<text xml:space="preserve" text-anchor="middle" x="777" y="-340" font-family="Helvetica,sans-Serif" font-size="10.00" fill="white">1M workers each</text>
</g>
<!-- input_labs&#45;&gt;labs -->
<g id="edge20" class="edge">
<title>input_labs&#45;&gt;labs</title>
<path fill="none" stroke="#888888" stroke-dasharray="1,5" d="M724.78,-340.18C647.75,-319.6 504.2,-281.26 424.68,-260.02"/>
<polygon fill="#888888" stroke="#888888" points="425.58,-257.72 418.18,-258.28 424.31,-262.45 425.58,-257.72"/>
</g>
<!-- input_scientist -->
<g id="node18" class="node">
<title>input_scientist</title>
<path fill="#2d2d44" stroke="#4ecdc4" d="M776.12,-487.25C776.12,-487.25 685.88,-487.25 685.88,-487.25 679.88,-487.25 673.88,-481.25 673.88,-475.25 673.88,-475.25 673.88,-457.5 673.88,-457.5 673.88,-451.5 679.88,-445.5 685.88,-445.5 685.88,-445.5 776.12,-445.5 776.12,-445.5 782.12,-445.5 788.12,-451.5 788.12,-457.5 788.12,-457.5 788.12,-475.25 788.12,-475.25 788.12,-481.25 782.12,-487.25 776.12,-487.25"/>
<text xml:space="preserve" text-anchor="middle" x="731" y="-473.75" font-family="Helvetica,sans-Serif" font-size="10.00" fill="white">Scientists</text>
<text xml:space="preserve" text-anchor="middle" x="731" y="-462.5" font-family="Helvetica,sans-Serif" font-size="10.00" fill="white">(Named Characters)</text>
<text xml:space="preserve" text-anchor="middle" x="731" y="-451.25" font-family="Helvetica,sans-Serif" font-size="10.00" fill="white">Bonus + Admin Rating</text>
</g>
<!-- input_scientist&#45;&gt;assign -->
<g id="edge21" class="edge">
<title>input_scientist&#45;&gt;assign</title>
<path fill="none" stroke="#888888" stroke-dasharray="1,5" d="M673.43,-448.58C612.44,-430.74 513.36,-401.64 428,-376 422.76,-374.43 417.29,-372.77 411.84,-371.11"/>
<polygon fill="#888888" stroke="#888888" points="412.75,-368.83 405.34,-369.14 411.33,-373.52 412.75,-368.83"/>
</g>
<!-- input_minerals -->
<g id="node19" class="node">
<title>input_minerals</title>
<path fill="#2d2d44" stroke="#4ecdc4" d="M932.75,-487.25C932.75,-487.25 843.25,-487.25 843.25,-487.25 837.25,-487.25 831.25,-481.25 831.25,-475.25 831.25,-475.25 831.25,-457.5 831.25,-457.5 831.25,-451.5 837.25,-445.5 843.25,-445.5 843.25,-445.5 932.75,-445.5 932.75,-445.5 938.75,-445.5 944.75,-451.5 944.75,-457.5 944.75,-457.5 944.75,-475.25 944.75,-475.25 944.75,-481.25 938.75,-487.25 932.75,-487.25"/>
<text xml:space="preserve" text-anchor="middle" x="888" y="-473.75" font-family="Helvetica,sans-Serif" font-size="10.00" fill="white">Minerals</text>
<text xml:space="preserve" text-anchor="middle" x="888" y="-462.5" font-family="Helvetica,sans-Serif" font-size="10.00" fill="white">(For Lab Construction)</text>
<text xml:space="preserve" text-anchor="middle" x="888" y="-451.25" font-family="Helvetica,sans-Serif" font-size="10.00" fill="white">120 BP, 120 Duranium</text>
</g>
<!-- input_minerals&#45;&gt;input_labs -->
<g id="edge22" class="edge">
<title>input_minerals&#45;&gt;input_labs</title>
<path fill="none" stroke="#888888" stroke-dasharray="1,5" d="M867.38,-445.08C849.31,-427.3 822.95,-401.35 803.36,-382.06"/>
<polygon fill="#888888" stroke="#888888" points="805.29,-380.54 798.59,-377.37 801.86,-384.03 805.29,-380.54"/>
<text xml:space="preserve" text-anchor="middle" x="849.65" y="-407.07" font-family="Helvetica,sans-Serif" font-size="9.00" fill="white">Build</text>
</g>
<!-- leg1 -->
<g id="node20" class="node">
<title>leg1</title>
<path fill="#2d2d44" stroke="none" d="M757.12,-833C757.12,-833 666.88,-833 666.88,-833 660.88,-833 654.88,-827 654.88,-821 654.88,-821 654.88,-809 654.88,-809 654.88,-803 660.88,-797 666.88,-797 666.88,-797 757.12,-797 757.12,-797 763.12,-797 769.12,-803 769.12,-809 769.12,-809 769.12,-821 769.12,-821 769.12,-827 763.12,-833 757.12,-833"/>
<text xml:space="preserve" text-anchor="middle" x="712" y="-811.33" font-family="Helvetica,sans-Serif" font-size="9.00" fill="#ffe66d">Yellow: Player decisions</text>
</g>
<!-- leg2 -->
<g id="node21" class="node">
<title>leg2</title>
<path fill="#2d2d44" stroke="none" d="M920.12,-833C920.12,-833 823.88,-833 823.88,-833 817.88,-833 811.88,-827 811.88,-821 811.88,-821 811.88,-809 811.88,-809 811.88,-803 817.88,-797 823.88,-797 823.88,-797 920.12,-797 920.12,-797 926.12,-797 932.12,-803 932.12,-809 932.12,-809 932.12,-821 932.12,-821 932.12,-827 926.12,-833 920.12,-833"/>
<text xml:space="preserve" text-anchor="middle" x="872" y="-811.33" font-family="Helvetica,sans-Serif" font-size="9.00" fill="#95d5b2">Green: Research process</text>
</g>
<!-- leg3 -->
<g id="node22" class="node">
<title>leg3</title>
<path fill="#2d2d44" stroke="none" d="M1095.12,-833C1095.12,-833 986.88,-833 986.88,-833 980.88,-833 974.88,-827 974.88,-821 974.88,-821 974.88,-809 974.88,-809 974.88,-803 980.88,-797 986.88,-797 986.88,-797 1095.12,-797 1095.12,-797 1101.12,-797 1107.12,-803 1107.12,-809 1107.12,-809 1107.12,-821 1107.12,-821 1107.12,-827 1101.12,-833 1095.12,-833"/>
<text xml:space="preserve" text-anchor="middle" x="1041" y="-811.33" font-family="Helvetica,sans-Serif" font-size="9.00" fill="#ff6b6b">Red: Technology application</text>
</g>
<!-- leg4 -->
<g id="node23" class="node">
<title>leg4</title>
<path fill="#2d2d44" stroke="none" d="M1265.88,-833C1265.88,-833 1162.12,-833 1162.12,-833 1156.12,-833 1150.12,-827 1150.12,-821 1150.12,-821 1150.12,-809 1150.12,-809 1150.12,-803 1156.12,-797 1162.12,-797 1162.12,-797 1265.88,-797 1265.88,-797 1271.88,-797 1277.88,-803 1277.88,-809 1277.88,-809 1277.88,-821 1277.88,-821 1277.88,-827 1271.88,-833 1265.88,-833"/>
<text xml:space="preserve" text-anchor="middle" x="1214" y="-811.33" font-family="Helvetica,sans-Serif" font-size="9.00" fill="#9b59b6">Purple: Economic feedback</text>
</g>
<!-- leg5 -->
<g id="node24" class="node">
<title>leg5</title>
<path fill="#2d2d44" stroke="none" d="M1451.38,-833C1451.38,-833 1332.62,-833 1332.62,-833 1326.62,-833 1320.62,-827 1320.62,-821 1320.62,-821 1320.62,-809 1320.62,-809 1320.62,-803 1326.62,-797 1332.62,-797 1332.62,-797 1451.38,-797 1451.38,-797 1457.38,-797 1463.38,-803 1463.38,-809 1463.38,-809 1463.38,-821 1463.38,-821 1463.38,-827 1457.38,-833 1451.38,-833"/>
<text xml:space="preserve" text-anchor="middle" x="1392" y="-811.33" font-family="Helvetica,sans-Serif" font-size="9.00" fill="#888888">Dashed: Indirect/optional paths</text>
</g>
</g>
</svg>
