<?xml version="1.0" encoding="UTF-8" standalone="no"?>
<!DOCTYPE svg PUBLIC "-//W3C//DTD SVG 1.1//EN"
 "http://www.w3.org/Graphics/SVG/1.1/DTD/svg11.dtd">
<!-- Generated by graphviz version 14.1.2 (20260124.0452)
 -->
<!-- Title: ResearchProcessFlow Pages: 1 -->
<svg width="1487pt" height="914pt"
 viewBox="0.00 0.00 1487.00 914.00" xmlns="http://www.w3.org/2000/svg" xmlns:xlink="http://www.w3.org/1999/xlink">
<g id="graph0" class="graph" transform="scale(1 1) rotate(0) translate(4 910.25)">
<title>ResearchProcessFlow</title>
<polygon fill="#1a1a2e" stroke="none" points="-4,4 -4,-910.25 1483,-910.25 1483,4 -4,4"/>
<text xml:space="preserve" text-anchor="middle" x="739.5" y="-888.95" font-family="Helvetica,sans-Serif" font-size="14.00" fill="white">Figure 7.1: Research Process Flow and Feedback Loop</text>
<g id="clust1" class="cluster">
<title>cluster_cycle</title>
<polygon fill="#1a1a2e" stroke="#4ecdc4" stroke-dasharray="5,2" points="254,-8 254,-654.75 430,-654.75 430,-8 254,-8"/>
<text xml:space="preserve" text-anchor="middle" x="342" y="-637.45" font-family="Helvetica,sans-Serif" font-size="14.00" fill="#888888">Research Cycle</text>
</g>
<g id="clust2" class="cluster">
<title>cluster_unlock</title>
<polygon fill="#1a1a2e" stroke="#ff6b6b" stroke-dasharray="5,2" points="51,-329.12 51,-774.25 180,-774.25 180,-329.12 51,-329.12"/>
<text xml:space="preserve" text-anchor="middle" x="115.5" y="-756.95" font-family="Helvetica,sans-Serif" font-size="14.00" fill="#888888">Technology Unlock</text>
</g>
<g id="clust3" class="cluster">
<title>cluster_feedback</title>
<polygon fill="#1a1a2e" stroke="#9b59b6" stroke-dasharray="5,2" points="438,-329.12 438,-875.25 639,-875.25 639,-329.12 438,-329.12"/>
<text xml:space="preserve" text-anchor="middle" x="538.5" y="-857.95" font-family="Helvetica,sans-Serif" font-size="14.00" fill="#888888">Economic Feedback Loop</text>
</g>
<g id="clust4" class="cluster">
<title>cluster_inputs</title>
<polygon fill="#1a1a2e" stroke="#666666" stroke-dasharray="5,2" points="666,-326.25 666,-529.5 969,-529.5 969,-326.25 666,-326.25"/>
<text xml:space="preserve" text-anchor="middle" x="817.5" y="-512.2" font-family="Helvetica,sans-Serif" font-size="14.00" fill="#888888">Key Inputs</text>
</g>
<g id="clust5" class="cluster">
<title>cluster_legend</title>
<polygon fill="#1a1a2e" stroke="#666666" stroke-dasharray="5,2" points="647,-800.25 647,-875.25 1471,-875.25 1471,-800.25 647,-800.25"/>
<text xml:space="preserve" text-anchor="middle" x="1059" y="-857.95" font-family="Helvetica,sans-Serif" font-size="14.00" fill="#888888">Legend</text>
</g>
<!-- available -->
<g id="node1" class="node">
<title>available</title>
<path fill="#2d2d44" stroke="#4ecdc4" d="M352.12,-623.75C352.12,-623.75 303.88,-623.75 303.88,-623.75 297.88,-623.75 291.88,-617.75 291.88,-611.75 291.88,-611.75 291.88,-594 291.88,-594 291.88,-588 297.88,-582 303.88,-582 303.88,-582 352.12,-582 352.12,-582 358.12,-582 364.12,-588 364.12,-594 364.12,-594 364.12,-611.75 364.12,-611.75 364.12,-617.75 358.12,-623.75 352.12,-623.75"/>
<text xml:space="preserve" text-anchor="middle" x="328" y="-610.25" font-family="Helvetica,sans-Serif" font-size="10.00" fill="white">Technology</text>
<text xml:space="preserve" text-anchor="middle" x="328" y="-599" font-family="Helvetica,sans-Serif" font-size="10.00" fill="white">Available</text>
<text xml:space="preserve" text-anchor="middle" x="328" y="-587.75" font-family="Helvetica,sans-Serif" font-size="10.00" fill="white">for Research</text>
</g>
<!-- select -->
<g id="node2" class="node">
<title>select</title>
<path fill="#ffe66d" stroke="#4ecdc4" d="M352,-492.88C352,-492.88 318,-492.88 318,-492.88 312,-492.88 306,-486.88 306,-480.88 306,-480.88 306,-463.12 306,-463.12 306,-457.12 312,-451.12 318,-451.12 318,-451.12 352,-451.12 352,-451.12 358,-451.12 364,-457.12 364,-463.12 364,-463.12 364,-480.88 364,-480.88 364,-486.88 358,-492.88 352,-492.88"/>
<text xml:space="preserve" text-anchor="middle" x="335" y="-479.38" font-family="Helvetica,sans-Serif" font-size="10.00" fill="#1a1a2e">Select</text>
<text xml:space="preserve" text-anchor="middle" x="335" y="-468.12" font-family="Helvetica,sans-Serif" font-size="10.00" fill="#1a1a2e">Research</text>
<text xml:space="preserve" text-anchor="middle" x="335" y="-456.88" font-family="Helvetica,sans-Serif" font-size="10.00" fill="#1a1a2e">Project</text>
</g>
<!-- available&#45;&gt;select -->
<g id="edge1" class="edge">
<title>available&#45;&gt;select</title>
<path fill="none" stroke="#4ecdc4" d="M329.09,-581.74C330.26,-560.18 332.13,-525.78 333.45,-501.46"/>
<polygon fill="#4ecdc4" stroke="#4ecdc4" points="335.9,-501.63 333.83,-494.51 331.01,-501.36 335.9,-501.63"/>
<text xml:space="preserve" text-anchor="middle" x="344.79" y="-548.45" font-family="Helvetica,sans-Serif" font-size="9.00" fill="white">Player</text>
<text xml:space="preserve" text-anchor="middle" x="344.79" y="-538.7" font-family="Helvetica,sans-Serif" font-size="9.00" fill="white">choice</text>
</g>
<!-- assign -->
<g id="node3" class="node">
<title>assign</title>
<path fill="#ffe66d" stroke="#4ecdc4" d="M391.62,-376C391.62,-376 334.38,-376 334.38,-376 328.38,-376 322.38,-370 322.38,-364 322.38,-364 322.38,-346.25 322.38,-346.25 322.38,-340.25 328.38,-334.25 334.38,-334.25 334.38,-334.25 391.62,-334.25 391.62,-334.25 397.62,-334.25 403.62,-340.25 403.62,-346.25 403.62,-346.25 403.62,-364 403.62,-364 403.62,-370 397.62,-376 391.62,-376"/>
<text xml:space="preserve" text-anchor="middle" x="363" y="-362.5" font-family="Helvetica,sans-Serif" font-size="10.00" fill="#1a1a2e">Assign</text>
<text xml:space="preserve" text-anchor="middle" x="363" y="-351.25" font-family="Helvetica,sans-Serif" font-size="10.00" fill="#1a1a2e">Scientist</text>
<text xml:space="preserve" text-anchor="middle" x="363" y="-340" font-family="Helvetica,sans-Serif" font-size="10.00" fill="#1a1a2e">(Admin Rating)</text>
</g>
<!-- select&#45;&gt;assign -->
<g id="edge2" class="edge">
<title>select&#45;&gt;assign</title>
<path fill="none" stroke="#4ecdc4" d="M339.94,-450.73C344.44,-432.27 351.12,-404.85 356.14,-384.27"/>
<polygon fill="#4ecdc4" stroke="#4ecdc4" points="358.47,-385.05 357.75,-377.67 353.71,-383.89 358.47,-385.05"/>
<text xml:space="preserve" text-anchor="middle" x="372.13" y="-411.95" font-family="Helvetica,sans-Serif" font-size="9.00" fill="white">Assign to</text>
<text xml:space="preserve" text-anchor="middle" x="372.13" y="-402.2" font-family="Helvetica,sans-Serif" font-size="9.00" fill="white">lab queue</text>
</g>
<!-- labs -->
<g id="node4" class="node">
<title>labs</title>
<path fill="#95d5b2" stroke="#4ecdc4" d="M404.5,-264.75C404.5,-264.75 331.5,-264.75 331.5,-264.75 325.5,-264.75 319.5,-258.75 319.5,-252.75 319.5,-252.75 319.5,-235 319.5,-235 319.5,-229 325.5,-223 331.5,-223 331.5,-223 404.5,-223 404.5,-223 410.5,-223 416.5,-229 416.5,-235 416.5,-235 416.5,-252.75 416.5,-252.75 416.5,-258.75 410.5,-264.75 404.5,-264.75"/>
<text xml:space="preserve" text-anchor="middle" x="368" y="-251.25" font-family="Helvetica,sans-Serif" font-size="10.00" fill="#1a1a2e">Labs Generate RP</text>
<text xml:space="preserve" text-anchor="middle" x="368" y="-240" font-family="Helvetica,sans-Serif" font-size="10.00" fill="#1a1a2e">200 RP/lab/year</text>
<text xml:space="preserve" text-anchor="middle" x="368" y="-228.75" font-family="Helvetica,sans-Serif" font-size="10.00" fill="#1a1a2e">(base rate)</text>
</g>
<!-- assign&#45;&gt;labs -->
<g id="edge3" class="edge">
<title>assign&#45;&gt;labs</title>
<path fill="none" stroke="#4ecdc4" d="M363.93,-333.83C364.71,-316.82 365.83,-292.32 366.7,-273.34"/>
<polygon fill="#4ecdc4" stroke="#4ecdc4" points="369.13,-273.68 367.01,-266.57 364.24,-273.45 369.13,-273.68"/>
<text xml:space="preserve" text-anchor="middle" x="395.05" y="-300.7" font-family="Helvetica,sans-Serif" font-size="9.00" fill="white">Scientist</text>
<text xml:space="preserve" text-anchor="middle" x="395.05" y="-290.95" font-family="Helvetica,sans-Serif" font-size="9.00" fill="white">bonus applied</text>
</g>
<!-- progress -->
<g id="node5" class="node">
<title>progress</title>
<path fill="#95d5b2" stroke="#4ecdc4" d="M344.38,-153.5C344.38,-153.5 273.62,-153.5 273.62,-153.5 267.62,-153.5 261.62,-147.5 261.62,-141.5 261.62,-141.5 261.62,-123.75 261.62,-123.75 261.62,-117.75 267.62,-111.75 273.62,-111.75 273.62,-111.75 344.38,-111.75 344.38,-111.75 350.38,-111.75 356.38,-117.75 356.38,-123.75 356.38,-123.75 356.38,-141.5 356.38,-141.5 356.38,-147.5 350.38,-153.5 344.38,-153.5"/>
<text xml:space="preserve" text-anchor="middle" x="309" y="-140" font-family="Helvetica,sans-Serif" font-size="10.00" fill="#1a1a2e">Research</text>
<text xml:space="preserve" text-anchor="middle" x="309" y="-128.75" font-family="Helvetica,sans-Serif" font-size="10.00" fill="#1a1a2e">Progress</text>
<text xml:space="preserve" text-anchor="middle" x="309" y="-117.5" font-family="Helvetica,sans-Serif" font-size="10.00" fill="#1a1a2e">(RP accumulates)</text>
</g>
<!-- labs&#45;&gt;progress -->
<g id="edge4" class="edge">
<title>labs&#45;&gt;progress</title>
<path fill="none" stroke="#4ecdc4" d="M357.04,-222.58C347.69,-205.26 334.15,-180.19 323.82,-161.07"/>
<polygon fill="#4ecdc4" stroke="#4ecdc4" points="326.1,-160.14 320.62,-155.14 321.79,-162.46 326.1,-160.14"/>
<text xml:space="preserve" text-anchor="middle" x="352.53" y="-189.45" font-family="Helvetica,sans-Serif" font-size="9.00" fill="white">Each</text>
<text xml:space="preserve" text-anchor="middle" x="352.53" y="-179.7" font-family="Helvetica,sans-Serif" font-size="9.00" fill="white">year</text>
</g>
<!-- progress&#45;&gt;progress -->
<g id="edge6" class="edge">
<title>progress&#45;&gt;progress</title>
<path fill="none" stroke="#4ecdc4" stroke-dasharray="5,2" d="M356.43,-141.91C379.24,-143.05 399.38,-139.96 399.38,-132.62 399.38,-126.21 383.96,-123.04 364.82,-123.11"/>
<polygon fill="#4ecdc4" stroke="#4ecdc4" points="364.87,-120.66 357.94,-123.3 365,-125.56 364.87,-120.66"/>
<text xml:space="preserve" text-anchor="middle" x="423" y="-133.82" font-family="Helvetica,sans-Serif" font-size="9.00" fill="white">Continue</text>
<text xml:space="preserve" text-anchor="middle" x="423" y="-124.08" font-family="Helvetica,sans-Serif" font-size="9.00" fill="white">(RP &lt; Cost)</text>
</g>
<!-- complete -->
<g id="node6" class="node">
<title>complete</title>
<path fill="#95d5b2" stroke="#4ecdc4" d="M318.5,-52C318.5,-52 281.5,-52 281.5,-52 275.5,-52 269.5,-46 269.5,-40 269.5,-40 269.5,-28 269.5,-28 269.5,-22 275.5,-16 281.5,-16 281.5,-16 318.5,-16 318.5,-16 324.5,-16 330.5,-22 330.5,-28 330.5,-28 330.5,-40 330.5,-40 330.5,-46 324.5,-52 318.5,-52"/>
<text xml:space="preserve" text-anchor="middle" x="300" y="-35.75" font-family="Helvetica,sans-Serif" font-size="10.00" fill="#1a1a2e">Research</text>
<text xml:space="preserve" text-anchor="middle" x="300" y="-24.5" font-family="Helvetica,sans-Serif" font-size="10.00" fill="#1a1a2e">Complete!</text>
</g>
<!-- progress&#45;&gt;complete -->
<g id="edge5" class="edge">
<title>progress&#45;&gt;complete</title>
<path fill="none" stroke="#4ecdc4" d="M307.14,-111.6C305.76,-96.87 303.88,-76.7 302.4,-60.76"/>
<polygon fill="#4ecdc4" stroke="#4ecdc4" points="304.85,-60.65 301.76,-53.91 299.97,-61.11 304.85,-60.65"/>
<text xml:space="preserve" text-anchor="middle" x="328.02" y="-78.2" font-family="Helvetica,sans-Serif" font-size="9.00" fill="white">RP &gt;= Cost</text>
</g>
<!-- tech_unlocked -->
<g id="node7" class="node">
<title>tech_unlocked</title>
<path fill="#ff6b6b" stroke="#4ecdc4" d="M115.75,-743.25C115.75,-743.25 74.25,-743.25 74.25,-743.25 68.25,-743.25 62.25,-737.25 62.25,-731.25 62.25,-731.25 62.25,-719.25 62.25,-719.25 62.25,-713.25 68.25,-707.25 74.25,-707.25 74.25,-707.25 115.75,-707.25 115.75,-707.25 121.75,-707.25 127.75,-713.25 127.75,-719.25 127.75,-719.25 127.75,-731.25 127.75,-731.25 127.75,-737.25 121.75,-743.25 115.75,-743.25"/>
<text xml:space="preserve" text-anchor="middle" x="95" y="-727" font-family="Helvetica,sans-Serif" font-size="10.00" fill="white">Technology</text>
<text xml:space="preserve" text-anchor="middle" x="95" y="-715.75" font-family="Helvetica,sans-Serif" font-size="10.00" fill="white">Unlocked</text>
</g>
<!-- complete&#45;&gt;tech_unlocked -->
<g id="edge7" class="edge">
<title>complete&#45;&gt;tech_unlocked</title>
<path fill="none" stroke="#ff6b6b" d="M269.02,-38.3C192.38,-47.32 0,-75.54 0,-131.62 0,-603.88 0,-603.88 0,-603.88 0,-645.04 34.65,-680.38 62.1,-701.93"/>
<polygon fill="#ff6b6b" stroke="#ff6b6b" points="60.28,-703.63 67.33,-705.92 63.25,-699.73 60.28,-703.63"/>
</g>
<!-- tech_unlocked&#45;&gt;available -->
<g id="edge11" class="edge">
<title>tech_unlocked&#45;&gt;available</title>
<path fill="none" stroke="#4ecdc4" stroke-dasharray="5,2" d="M127.89,-707.26C168.77,-686.14 238.67,-650.03 284.09,-626.56"/>
<polygon fill="#4ecdc4" stroke="#4ecdc4" points="285,-628.85 290.1,-623.46 282.75,-624.49 285,-628.85"/>
<text xml:space="preserve" text-anchor="middle" x="238.12" y="-673.7" font-family="Helvetica,sans-Serif" font-size="9.00" fill="white">Unlocks</text>
<text xml:space="preserve" text-anchor="middle" x="238.12" y="-663.95" font-family="Helvetica,sans-Serif" font-size="9.00" fill="white">prerequisites</text>
</g>
<!-- components -->
<g id="node8" class="node">
<title>components</title>
<path fill="#ff6b6b" stroke="#4ecdc4" d="M147.38,-620.88C147.38,-620.88 76.62,-620.88 76.62,-620.88 70.62,-620.88 64.62,-614.88 64.62,-608.88 64.62,-608.88 64.62,-596.88 64.62,-596.88 64.62,-590.88 70.62,-584.88 76.62,-584.88 76.62,-584.88 147.38,-584.88 147.38,-584.88 153.38,-584.88 159.38,-590.88 159.38,-596.88 159.38,-596.88 159.38,-608.88 159.38,-608.88 159.38,-614.88 153.38,-620.88 147.38,-620.88"/>
<text xml:space="preserve" text-anchor="middle" x="112" y="-604.62" font-family="Helvetica,sans-Serif" font-size="10.00" fill="white">New Components</text>
<text xml:space="preserve" text-anchor="middle" x="112" y="-593.38" font-family="Helvetica,sans-Serif" font-size="10.00" fill="white">Available</text>
</g>
<!-- tech_unlocked&#45;&gt;components -->
<g id="edge8" class="edge">
<title>tech_unlocked&#45;&gt;components</title>
<path fill="none" stroke="#ff6b6b" d="M95.85,-706.96C96.59,-694.6 97.89,-677.6 100,-662.75 101.56,-651.78 103.89,-639.77 106.09,-629.48"/>
<polygon fill="#ff6b6b" stroke="#ff6b6b" points="108.45,-630.14 107.55,-622.78 103.66,-629.09 108.45,-630.14"/>
</g>
<!-- ship_designer -->
<g id="node9" class="node">
<title>ship_designer</title>
<path fill="#ff6b6b" stroke="#4ecdc4" d="M144.75,-490C144.75,-490 91.25,-490 91.25,-490 85.25,-490 79.25,-484 79.25,-478 79.25,-478 79.25,-466 79.25,-466 79.25,-460 85.25,-454 91.25,-454 91.25,-454 144.75,-454 144.75,-454 150.75,-454 156.75,-460 156.75,-466 156.75,-466 156.75,-478 156.75,-478 156.75,-484 150.75,-490 144.75,-490"/>
<text xml:space="preserve" text-anchor="middle" x="118" y="-473.75" font-family="Helvetica,sans-Serif" font-size="10.00" fill="white">Ship Designer</text>
<text xml:space="preserve" text-anchor="middle" x="118" y="-462.5" font-family="Helvetica,sans-Serif" font-size="10.00" fill="white">Class Design</text>
</g>
<!-- components&#45;&gt;ship_designer -->
<g id="edge9" class="edge">
<title>components&#45;&gt;ship_designer</title>
<path fill="none" stroke="#ff6b6b" d="M112.81,-584.49C113.84,-562.37 115.63,-523.97 116.81,-498.52"/>
<polygon fill="#ff6b6b" stroke="#ff6b6b" points="119.25,-498.72 117.13,-491.62 114.36,-498.5 119.25,-498.72"/>
</g>
<!-- production -->
<g id="node10" class="node">
<title>production</title>
<path fill="#ff6b6b" stroke="#4ecdc4" d="M158.25,-373.12C158.25,-373.12 119.75,-373.12 119.75,-373.12 113.75,-373.12 107.75,-367.12 107.75,-361.12 107.75,-361.12 107.75,-349.12 107.75,-349.12 107.75,-343.12 113.75,-337.12 119.75,-337.12 119.75,-337.12 158.25,-337.12 158.25,-337.12 164.25,-337.12 170.25,-343.12 170.25,-349.12 170.25,-349.12 170.25,-361.12 170.25,-361.12 170.25,-367.12 164.25,-373.12 158.25,-373.12"/>
<text xml:space="preserve" text-anchor="middle" x="139" y="-356.88" font-family="Helvetica,sans-Serif" font-size="10.00" fill="white">Shipyard</text>
<text xml:space="preserve" text-anchor="middle" x="139" y="-345.62" font-family="Helvetica,sans-Serif" font-size="10.00" fill="white">Production</text>
</g>
<!-- ship_designer&#45;&gt;production -->
<g id="edge10" class="edge">
<title>ship_designer&#45;&gt;production</title>
<path fill="none" stroke="#ff6b6b" d="M121.19,-453.55C124.69,-434.38 130.36,-403.41 134.35,-381.54"/>
<polygon fill="#ff6b6b" stroke="#ff6b6b" points="136.73,-382.18 135.58,-374.85 131.91,-381.29 136.73,-382.18"/>
<text xml:space="preserve" text-anchor="middle" x="143.13" y="-411.95" font-family="Helvetica,sans-Serif" font-size="9.00" fill="white">Tool &amp;</text>
<text xml:space="preserve" text-anchor="middle" x="143.13" y="-402.2" font-family="Helvetica,sans-Serif" font-size="9.00" fill="white">Build</text>
</g>
<!-- better_ships -->
<g id="node11" class="node">
<title>better_ships</title>
<path fill="#9b59b6" stroke="#4ecdc4" d="M525.88,-844.25C525.88,-844.25 458.12,-844.25 458.12,-844.25 452.12,-844.25 446.12,-838.25 446.12,-832.25 446.12,-832.25 446.12,-820.25 446.12,-820.25 446.12,-814.25 452.12,-808.25 458.12,-808.25 458.12,-808.25 525.88,-808.25 525.88,-808.25 531.88,-808.25 537.88,-814.25 537.88,-820.25 537.88,-820.25 537.88,-832.25 537.88,-832.25 537.88,-838.25 531.88,-844.25 525.88,-844.25"/>
<text xml:space="preserve" text-anchor="middle" x="492" y="-828" font-family="Helvetica,sans-Serif" font-size="10.00" fill="white">Better Ships</text>
<text xml:space="preserve" text-anchor="middle" x="492" y="-816.75" font-family="Helvetica,sans-Serif" font-size="10.00" fill="white">(Faster, Stronger)</text>
</g>
<!-- production&#45;&gt;better_ships -->
<g id="edge12" class="edge">
<title>production&#45;&gt;better_ships</title>
<path fill="none" stroke="#9b59b6" d="M163.13,-373.47C188.26,-393.74 224,-429.82 224,-471 224,-726.25 224,-726.25 224,-726.25 224,-771.36 359.27,-802.34 437.6,-816.5"/>
<polygon fill="#9b59b6" stroke="#9b59b6" points="437.12,-818.9 444.44,-817.72 437.98,-814.08 437.12,-818.9"/>
</g>
<!-- expansion -->
<g id="node12" class="node">
<title>expansion</title>
<path fill="#9b59b6" stroke="#4ecdc4" d="M510.88,-743.25C510.88,-743.25 473.12,-743.25 473.12,-743.25 467.12,-743.25 461.12,-737.25 461.12,-731.25 461.12,-731.25 461.12,-719.25 461.12,-719.25 461.12,-713.25 467.12,-707.25 473.12,-707.25 473.12,-707.25 510.88,-707.25 510.88,-707.25 516.88,-707.25 522.88,-713.25 522.88,-719.25 522.88,-719.25 522.88,-731.25 522.88,-731.25 522.88,-737.25 516.88,-743.25 510.88,-743.25"/>
<text xml:space="preserve" text-anchor="middle" x="492" y="-727" font-family="Helvetica,sans-Serif" font-size="10.00" fill="white">Empire</text>
<text xml:space="preserve" text-anchor="middle" x="492" y="-715.75" font-family="Helvetica,sans-Serif" font-size="10.00" fill="white">Expansion</text>
</g>
<!-- better_ships&#45;&gt;expansion -->
<g id="edge13" class="edge">
<title>better_ships&#45;&gt;expansion</title>
<path fill="none" stroke="#9b59b6" d="M492,-808.01C492,-792.49 492,-769.47 492,-751.81"/>
<polygon fill="#9b59b6" stroke="#9b59b6" points="494.45,-752.14 492,-745.14 489.55,-752.14 494.45,-752.14"/>
</g>
<!-- more_pop -->
<g id="node13" class="node">
<title>more_pop</title>
<path fill="#9b59b6" stroke="#4ecdc4" d="M510.88,-620.88C510.88,-620.88 473.12,-620.88 473.12,-620.88 467.12,-620.88 461.12,-614.88 461.12,-608.88 461.12,-608.88 461.12,-596.88 461.12,-596.88 461.12,-590.88 467.12,-584.88 473.12,-584.88 473.12,-584.88 510.88,-584.88 510.88,-584.88 516.88,-584.88 522.88,-590.88 522.88,-596.88 522.88,-596.88 522.88,-608.88 522.88,-608.88 522.88,-614.88 516.88,-620.88 510.88,-620.88"/>
<text xml:space="preserve" text-anchor="middle" x="492" y="-604.62" font-family="Helvetica,sans-Serif" font-size="10.00" fill="white">More</text>
<text xml:space="preserve" text-anchor="middle" x="492" y="-593.38" font-family="Helvetica,sans-Serif" font-size="10.00" fill="white">Population</text>
</g>
<!-- expansion&#45;&gt;more_pop -->
<g id="edge14" class="edge">
<title>expansion&#45;&gt;more_pop</title>
<path fill="none" stroke="#9b59b6" d="M492,-707C492,-686.71 492,-652.83 492,-629.48"/>
<polygon fill="#9b59b6" stroke="#9b59b6" points="494.45,-629.6 492,-622.6 489.55,-629.6 494.45,-629.6"/>
</g>
<!-- more_labs -->
<g id="node14" class="node">
<title>more_labs</title>
<path fill="#9b59b6" stroke="#4ecdc4" d="M516,-490C516,-490 458,-490 458,-490 452,-490 446,-484 446,-478 446,-478 446,-466 446,-466 446,-460 452,-454 458,-454 458,-454 516,-454 516,-454 522,-454 528,-460 528,-466 528,-466 528,-478 528,-478 528,-484 522,-490 516,-490"/>
<text xml:space="preserve" text-anchor="middle" x="487" y="-473.75" font-family="Helvetica,sans-Serif" font-size="10.00" fill="white">More</text>
<text xml:space="preserve" text-anchor="middle" x="487" y="-462.5" font-family="Helvetica,sans-Serif" font-size="10.00" fill="white">Research Labs</text>
</g>
<!-- more_pop&#45;&gt;more_labs -->
<g id="edge15" class="edge">
<title>more_pop&#45;&gt;more_labs</title>
<path fill="none" stroke="#9b59b6" d="M491.33,-584.49C490.47,-562.37 488.98,-523.97 487.99,-498.52"/>
<polygon fill="#9b59b6" stroke="#9b59b6" points="490.44,-498.52 487.72,-491.62 485.55,-498.71 490.44,-498.52"/>
</g>
<!-- more_scientists -->
<g id="node15" class="node">
<title>more_scientists</title>
<path fill="#9b59b6" stroke="#4ecdc4" d="M618.75,-490C618.75,-490 583.25,-490 583.25,-490 577.25,-490 571.25,-484 571.25,-478 571.25,-478 571.25,-466 571.25,-466 571.25,-460 577.25,-454 583.25,-454 583.25,-454 618.75,-454 618.75,-454 624.75,-454 630.75,-460 630.75,-466 630.75,-466 630.75,-478 630.75,-478 630.75,-484 624.75,-490 618.75,-490"/>
<text xml:space="preserve" text-anchor="middle" x="601" y="-473.75" font-family="Helvetica,sans-Serif" font-size="10.00" fill="white">More</text>
<text xml:space="preserve" text-anchor="middle" x="601" y="-462.5" font-family="Helvetica,sans-Serif" font-size="10.00" fill="white">Scientists</text>
</g>
<!-- more_pop&#45;&gt;more_scientists -->
<g id="edge16" class="edge">
<title>more_pop&#45;&gt;more_scientists</title>
<path fill="none" stroke="#9b59b6" d="M506.7,-584.49C525.9,-561.79 559.6,-521.95 581.09,-496.55"/>
<polygon fill="#9b59b6" stroke="#9b59b6" points="582.91,-498.19 585.56,-491.26 579.16,-495.02 582.91,-498.19"/>
</g>
<!-- faster_research -->
<g id="node16" class="node">
<title>faster_research</title>
<path fill="#9b59b6" stroke="#4ecdc4" d="M504,-373.12C504,-373.12 470,-373.12 470,-373.12 464,-373.12 458,-367.12 458,-361.12 458,-361.12 458,-349.12 458,-349.12 458,-343.12 464,-337.12 470,-337.12 470,-337.12 504,-337.12 504,-337.12 510,-337.12 516,-343.12 516,-349.12 516,-349.12 516,-361.12 516,-361.12 516,-367.12 510,-373.12 504,-373.12"/>
<text xml:space="preserve" text-anchor="middle" x="487" y="-356.88" font-family="Helvetica,sans-Serif" font-size="10.00" fill="white">Faster</text>
<text xml:space="preserve" text-anchor="middle" x="487" y="-345.62" font-family="Helvetica,sans-Serif" font-size="10.00" fill="white">Research</text>
</g>
<!-- more_labs&#45;&gt;faster_research -->
<g id="edge17" class="edge">
<title>more_labs&#45;&gt;faster_research</title>
<path fill="none" stroke="#9b59b6" d="M487,-453.55C487,-434.47 487,-403.68 487,-381.83"/>
<polygon fill="#9b59b6" stroke="#9b59b6" points="489.45,-381.87 487,-374.87 484.55,-381.87 489.45,-381.87"/>
</g>
<!-- more_scientists&#45;&gt;faster_research -->
<g id="edge18" class="edge">
<title>more_scientists&#45;&gt;faster_research</title>
<path fill="none" stroke="#9b59b6" d="M583.69,-453.55C563.99,-433.7 531.73,-401.2 509.95,-379.25"/>
<polygon fill="#9b59b6" stroke="#9b59b6" points="511.84,-377.68 505.17,-374.43 508.36,-381.13 511.84,-377.68"/>
</g>
<!-- faster_research&#45;&gt;labs -->
<g id="edge19" class="edge">
<title>faster_research&#45;&gt;labs</title>
<path fill="none" stroke="#9b59b6" stroke-width="2" d="M473.74,-336.73C462.98,-323.18 447.02,-304.28 431,-289.75 423.39,-282.84 414.7,-276.06 406.25,-269.93"/>
<polygon fill="#9b59b6" stroke="#9b59b6" stroke-width="2" points="409.15,-268.99 402.02,-266.93 406.31,-272.98 409.15,-268.99"/>
<text xml:space="preserve" text-anchor="middle" x="472.09" y="-300.7" font-family="Helvetica,sans-Serif" font-size="9.00" fill="white">Compound</text>
<text xml:space="preserve" text-anchor="middle" x="472.09" y="-290.95" font-family="Helvetica,sans-Serif" font-size="9.00" fill="white">growth</text>
</g>
<!-- input_labs -->
<g id="node17" class="node">
<title>input_labs</title>
<path fill="#2d2d44" stroke="#4ecdc4" d="M818.88,-376C818.88,-376 739.12,-376 739.12,-376 733.12,-376 727.12,-370 727.12,-364 727.12,-364 727.12,-346.25 727.12,-346.25 727.12,-340.25 733.12,-334.25 739.12,-334.25 739.12,-334.25 818.88,-334.25 818.88,-334.25 824.88,-334.25 830.88,-340.25 830.88,-346.25 830.88,-346.25 830.88,-364 830.88,-364 830.88,-370 824.88,-376 818.88,-376"/>
<text xml:space="preserve" text-anchor="middle" x="779" y="-362.5" font-family="Helvetica,sans-Serif" font-size="10.00" fill="white">Research Labs</text>
<text xml:space="preserve" text-anchor="middle" x="779" y="-351.25" font-family="Helvetica,sans-Serif" font-size="10.00" fill="white">(Ground Installation)</text>
<text xml:space="preserve" text-anchor="middle" x="779" y="-340" font-family="Helvetica,sans-Serif" font-size="10.00" fill="white">1M workers each</text>
</g>
<!-- input_labs&#45;&gt;labs -->
<g id="edge20" class="edge">
<title>input_labs&#45;&gt;labs</title>
<path fill="none" stroke="#888888" stroke-dasharray="1,5" d="M726.95,-340.29C649.57,-319.72 504.78,-281.23 424.77,-259.96"/>
<polygon fill="#888888" stroke="#888888" points="425.61,-257.65 418.22,-258.22 424.35,-262.39 425.61,-257.65"/>
</g>
<!-- input_scientist -->
<g id="node18" class="node">
<title>input_scientist</title>
<path fill="#2d2d44" stroke="#4ecdc4" d="M776.12,-492.88C776.12,-492.88 685.88,-492.88 685.88,-492.88 679.88,-492.88 673.88,-486.88 673.88,-480.88 673.88,-480.88 673.88,-463.12 673.88,-463.12 673.88,-457.12 679.88,-451.12 685.88,-451.12 685.88,-451.12 776.12,-451.12 776.12,-451.12 782.12,-451.12 788.12,-457.12 788.12,-463.12 788.12,-463.12 788.12,-480.88 788.12,-480.88 788.12,-486.88 782.12,-492.88 776.12,-492.88"/>
<text xml:space="preserve" text-anchor="middle" x="731" y="-479.38" font-family="Helvetica,sans-Serif" font-size="10.00" fill="white">Scientists</text>
<text xml:space="preserve" text-anchor="middle" x="731" y="-468.12" font-family="Helvetica,sans-Serif" font-size="10.00" fill="white">(Named Characters)</text>
<text xml:space="preserve" text-anchor="middle" x="731" y="-456.88" font-family="Helvetica,sans-Serif" font-size="10.00" fill="white">Bonus + Admin Rating</text>
</g>
<!-- input_scientist&#45;&gt;assign -->
<g id="edge21" class="edge">
<title>input_scientist&#45;&gt;assign</title>
<path fill="none" stroke="#888888" stroke-dasharray="1,5" d="M673.5,-453.05C601.53,-430.58 479.51,-392.5 411.85,-371.37"/>
<polygon fill="#888888" stroke="#888888" points="412.73,-369.08 405.32,-369.34 411.27,-373.76 412.73,-369.08"/>
</g>
<!-- input_minerals -->
<g id="node19" class="node">
<title>input_minerals</title>
<path fill="#2d2d44" stroke="#4ecdc4" d="M949,-498.5C949,-498.5 843,-498.5 843,-498.5 837,-498.5 831,-492.5 831,-486.5 831,-486.5 831,-457.5 831,-457.5 831,-451.5 837,-445.5 843,-445.5 843,-445.5 949,-445.5 949,-445.5 955,-445.5 961,-451.5 961,-457.5 961,-457.5 961,-486.5 961,-486.5 961,-492.5 955,-498.5 949,-498.5"/>
<text xml:space="preserve" text-anchor="middle" x="896" y="-485" font-family="Helvetica,sans-Serif" font-size="10.00" fill="white">Resources</text>
<text xml:space="preserve" text-anchor="middle" x="896" y="-473.75" font-family="Helvetica,sans-Serif" font-size="10.00" fill="white">(For Lab Construction)</text>
<text xml:space="preserve" text-anchor="middle" x="896" y="-462.5" font-family="Helvetica,sans-Serif" font-size="10.00" fill="white">2,400 BP, 1,200 Duranium</text>
<text xml:space="preserve" text-anchor="middle" x="896" y="-451.25" font-family="Helvetica,sans-Serif" font-size="10.00" fill="white">1,200 Mercassium</text>
</g>
<!-- input_minerals&#45;&gt;input_labs -->
<g id="edge22" class="edge">
<title>input_minerals&#45;&gt;input_labs</title>
<path fill="none" stroke="#888888" stroke-dasharray="1,5" d="M869.74,-445.22C850.65,-426.48 824.9,-401.19 805.71,-382.35"/>
<polygon fill="#888888" stroke="#888888" points="807.52,-380.69 800.8,-377.53 804.08,-384.19 807.52,-380.69"/>
<text xml:space="preserve" text-anchor="middle" x="855.01" y="-407.07" font-family="Helvetica,sans-Serif" font-size="9.00" fill="white">Build</text>
</g>
<!-- leg1 -->
<g id="node20" class="node">
<title>leg1</title>
<path fill="#2d2d44" stroke="none" d="M757.12,-844.25C757.12,-844.25 666.88,-844.25 666.88,-844.25 660.88,-844.25 654.88,-838.25 654.88,-832.25 654.88,-832.25 654.88,-820.25 654.88,-820.25 654.88,-814.25 660.88,-808.25 666.88,-808.25 666.88,-808.25 757.12,-808.25 757.12,-808.25 763.12,-808.25 769.12,-814.25 769.12,-820.25 769.12,-820.25 769.12,-832.25 769.12,-832.25 769.12,-838.25 763.12,-844.25 757.12,-844.25"/>
<text xml:space="preserve" text-anchor="middle" x="712" y="-822.58" font-family="Helvetica,sans-Serif" font-size="9.00" fill="#ffe66d">Yellow: Player decisions</text>
</g>
<!-- leg2 -->
<g id="node21" class="node">
<title>leg2</title>
<path fill="#2d2d44" stroke="none" d="M920.12,-844.25C920.12,-844.25 823.88,-844.25 823.88,-844.25 817.88,-844.25 811.88,-838.25 811.88,-832.25 811.88,-832.25 811.88,-820.25 811.88,-820.25 811.88,-814.25 817.88,-808.25 823.88,-808.25 823.88,-808.25 920.12,-808.25 920.12,-808.25 926.12,-808.25 932.12,-814.25 932.12,-820.25 932.12,-820.25 932.12,-832.25 932.12,-832.25 932.12,-838.25 926.12,-844.25 920.12,-844.25"/>
<text xml:space="preserve" text-anchor="middle" x="872" y="-822.58" font-family="Helvetica,sans-Serif" font-size="9.00" fill="#95d5b2">Green: Research process</text>
</g>
<!-- leg3 -->
<g id="node22" class="node">
<title>leg3</title>
<path fill="#2d2d44" stroke="none" d="M1095.12,-844.25C1095.12,-844.25 986.88,-844.25 986.88,-844.25 980.88,-844.25 974.88,-838.25 974.88,-832.25 974.88,-832.25 974.88,-820.25 974.88,-820.25 974.88,-814.25 980.88,-808.25 986.88,-808.25 986.88,-808.25 1095.12,-808.25 1095.12,-808.25 1101.12,-808.25 1107.12,-814.25 1107.12,-820.25 1107.12,-820.25 1107.12,-832.25 1107.12,-832.25 1107.12,-838.25 1101.12,-844.25 1095.12,-844.25"/>
<text xml:space="preserve" text-anchor="middle" x="1041" y="-822.58" font-family="Helvetica,sans-Serif" font-size="9.00" fill="#ff6b6b">Red: Technology application</text>
</g>
<!-- leg4 -->
<g id="node23" class="node">
<title>leg4</title>
<path fill="#2d2d44" stroke="none" d="M1265.88,-844.25C1265.88,-844.25 1162.12,-844.25 1162.12,-844.25 1156.12,-844.25 1150.12,-838.25 1150.12,-832.25 1150.12,-832.25 1150.12,-820.25 1150.12,-820.25 1150.12,-814.25 1156.12,-808.25 1162.12,-808.25 1162.12,-808.25 1265.88,-808.25 1265.88,-808.25 1271.88,-808.25 1277.88,-814.25 1277.88,-820.25 1277.88,-820.25 1277.88,-832.25 1277.88,-832.25 1277.88,-838.25 1271.88,-844.25 1265.88,-844.25"/>
<text xml:space="preserve" text-anchor="middle" x="1214" y="-822.58" font-family="Helvetica,sans-Serif" font-size="9.00" fill="#9b59b6">Purple: Economic feedback</text>
</g>
<!-- leg5 -->
<g id="node24" class="node">
<title>leg5</title>
<path fill="#2d2d44" stroke="none" d="M1451.38,-844.25C1451.38,-844.25 1332.62,-844.25 1332.62,-844.25 1326.62,-844.25 1320.62,-838.25 1320.62,-832.25 1320.62,-832.25 1320.62,-820.25 1320.62,-820.25 1320.62,-814.25 1326.62,-808.25 1332.62,-808.25 1332.62,-808.25 1451.38,-808.25 1451.38,-808.25 1457.38,-808.25 1463.38,-814.25 1463.38,-820.25 1463.38,-820.25 1463.38,-832.25 1463.38,-832.25 1463.38,-838.25 1457.38,-844.25 1451.38,-844.25"/>
<text xml:space="preserve" text-anchor="middle" x="1392" y="-822.58" font-family="Helvetica,sans-Serif" font-size="9.00" fill="#888888">Dashed: Indirect/optional paths</text>
</g>
</g>
</svg>
