<?xml version="1.0" encoding="UTF-8" standalone="no"?>
<!DOCTYPE svg PUBLIC "-//W3C//DTD SVG 1.1//EN"
 "http://www.w3.org/Graphics/SVG/1.1/DTD/svg11.dtd">
<!-- Generated by graphviz version 14.1.2 (20260124.0452)
 -->
<!-- Title: EngineProgression Pages: 1 -->
<svg width="648pt" height="628pt"
 viewBox="0.00 0.00 648.00 628.00" xmlns="http://www.w3.org/2000/svg" xmlns:xlink="http://www.w3.org/1999/xlink">
<g id="graph0" class="graph" transform="scale(0.54776 0.54776) rotate(0) translate(4 1141.75)">
<title>EngineProgression</title>
<polygon fill="#1a1a2e" stroke="none" points="-4,4 -4,-1141.75 1179,-1141.75 1179,4 -4,4"/>
<text xml:space="preserve" text-anchor="middle" x="587.5" y="-1122.35" font-family="Helvetica,sans-Serif" font-size="12.00" fill="white">Figure 7.1.3: Engine Technology Progression with Cumulative RP Cost</text>
<g id="clust1" class="cluster">
<title>cluster_early</title>
<polygon fill="#1a1a2e" stroke="#95d5b2" stroke-dasharray="5,2" points="8,-821.75 8,-1109 140,-1109 140,-821.75 8,-821.75"/>
<text xml:space="preserve" text-anchor="middle" x="74" y="-1095.5" font-family="Helvetica,sans-Serif" font-size="10.00" fill="#888888">Early Game (&lt; 10,000 RP)</text>
</g>
<g id="clust2" class="cluster">
<title>cluster_mid</title>
<polygon fill="#1a1a2e" stroke="#ffe66d" stroke-dasharray="5,2" points="15,-526.5 15,-813.75 175,-813.75 175,-526.5 15,-526.5"/>
<text xml:space="preserve" text-anchor="middle" x="95" y="-800.25" font-family="Helvetica,sans-Serif" font-size="10.00" fill="#888888">Mid Game (10,000 &#45; 100,000 RP)</text>
</g>
<g id="clust3" class="cluster">
<title>cluster_late</title>
<polygon fill="#1a1a2e" stroke="#ff6b6b" stroke-dasharray="5,2" points="15,-231.25 15,-518.5 192,-518.5 192,-231.25 15,-231.25"/>
<text xml:space="preserve" text-anchor="middle" x="103.5" y="-505" font-family="Helvetica,sans-Serif" font-size="10.00" fill="#888888">Late Game (100,000 &#45; 1,000,000 RP)</text>
</g>
<g id="clust4" class="cluster">
<title>cluster_endgame</title>
<polygon fill="#1a1a2e" stroke="#9b59b6" stroke-dasharray="5,2" points="13,-8 13,-223.25 148,-223.25 148,-8 13,-8"/>
<text xml:space="preserve" text-anchor="middle" x="80.5" y="-209.75" font-family="Helvetica,sans-Serif" font-size="10.00" fill="#888888">Endgame (&gt; 1,000,000 RP)</text>
</g>
<g id="clust5" class="cluster">
<title>cluster_milestones</title>
<polygon fill="#1a1a2e" stroke="#666666" stroke-dasharray="5,2" points="148,-1037.75 148,-1109 658,-1109 658,-1037.75 148,-1037.75"/>
<text xml:space="preserve" text-anchor="middle" x="403" y="-1095.5" font-family="Helvetica,sans-Serif" font-size="10.00" fill="#888888">Strategic Milestones</text>
</g>
<g id="clust6" class="cluster">
<title>cluster_legend</title>
<polygon fill="#1a1a2e" stroke="#666666" stroke-dasharray="5,2" points="672,-1037.75 672,-1109 1167,-1109 1167,-1037.75 672,-1037.75"/>
<text xml:space="preserve" text-anchor="middle" x="919.5" y="-1095.5" font-family="Helvetica,sans-Serif" font-size="10.00" fill="#888888">Legend</text>
</g>
<!-- conv -->
<g id="node1" class="node">
<title>conv</title>
<path fill="#95d5b2" stroke="#4ecdc4" d="M111.4,-1081.75C111.4,-1081.75 34.6,-1081.75 34.6,-1081.75 28.6,-1081.75 22.6,-1075.75 22.6,-1069.75 22.6,-1069.75 22.6,-1057.75 22.6,-1057.75 22.6,-1051.75 28.6,-1045.75 34.6,-1045.75 34.6,-1045.75 111.4,-1045.75 111.4,-1045.75 117.4,-1045.75 123.4,-1051.75 123.4,-1057.75 123.4,-1057.75 123.4,-1069.75 123.4,-1069.75 123.4,-1075.75 117.4,-1081.75 111.4,-1081.75"/>
<text xml:space="preserve" text-anchor="middle" x="73" y="-1069.65" font-family="Helvetica,sans-Serif" font-size="8.00" fill="#1a1a2e">Conventional</text>
<text xml:space="preserve" text-anchor="middle" x="73" y="-1060.65" font-family="Helvetica,sans-Serif" font-size="8.00" fill="#1a1a2e">500 RP | 1.0x</text>
<text xml:space="preserve" text-anchor="middle" x="73" y="-1051.65" font-family="Helvetica,sans-Serif" font-size="8.00" fill="#1a1a2e">Cumulative: 500</text>
</g>
<!-- nuc_radio -->
<g id="node2" class="node">
<title>nuc_radio</title>
<path fill="#95d5b2" stroke="#4ecdc4" d="M111.4,-1009.75C111.4,-1009.75 34.6,-1009.75 34.6,-1009.75 28.6,-1009.75 22.6,-1003.75 22.6,-997.75 22.6,-997.75 22.6,-985.75 22.6,-985.75 22.6,-979.75 28.6,-973.75 34.6,-973.75 34.6,-973.75 111.4,-973.75 111.4,-973.75 117.4,-973.75 123.4,-979.75 123.4,-985.75 123.4,-985.75 123.4,-997.75 123.4,-997.75 123.4,-1003.75 117.4,-1009.75 111.4,-1009.75"/>
<text xml:space="preserve" text-anchor="middle" x="73" y="-997.65" font-family="Helvetica,sans-Serif" font-size="8.00" fill="#1a1a2e">Nuclear Radioisotope</text>
<text xml:space="preserve" text-anchor="middle" x="73" y="-988.65" font-family="Helvetica,sans-Serif" font-size="8.00" fill="#1a1a2e">1,000 RP | 5.0x</text>
<text xml:space="preserve" text-anchor="middle" x="73" y="-979.65" font-family="Helvetica,sans-Serif" font-size="8.00" fill="#1a1a2e">Cumulative: 1,500</text>
</g>
<!-- conv&#45;&gt;nuc_radio -->
<g id="edge1" class="edge">
<title>conv&#45;&gt;nuc_radio</title>
<path fill="none" stroke="#95d5b2" d="M73,-1045.45C73,-1036.97 73,-1026.61 73,-1017.33"/>
<polygon fill="#95d5b2" stroke="#95d5b2" points="75.1,-1017.37 73,-1011.37 70.9,-1017.37 75.1,-1017.37"/>
</g>
<!-- nuc_therm -->
<g id="node3" class="node">
<title>nuc_therm</title>
<path fill="#95d5b2" stroke="#4ecdc4" d="M111.4,-937.75C111.4,-937.75 34.6,-937.75 34.6,-937.75 28.6,-937.75 22.6,-931.75 22.6,-925.75 22.6,-925.75 22.6,-913.75 22.6,-913.75 22.6,-907.75 28.6,-901.75 34.6,-901.75 34.6,-901.75 111.4,-901.75 111.4,-901.75 117.4,-901.75 123.4,-907.75 123.4,-913.75 123.4,-913.75 123.4,-925.75 123.4,-925.75 123.4,-931.75 117.4,-937.75 111.4,-937.75"/>
<text xml:space="preserve" text-anchor="middle" x="73" y="-925.65" font-family="Helvetica,sans-Serif" font-size="8.00" fill="#1a1a2e">Nuclear Thermal</text>
<text xml:space="preserve" text-anchor="middle" x="73" y="-916.65" font-family="Helvetica,sans-Serif" font-size="8.00" fill="#1a1a2e">2,000 RP | 6.4x</text>
<text xml:space="preserve" text-anchor="middle" x="73" y="-907.65" font-family="Helvetica,sans-Serif" font-size="8.00" fill="#1a1a2e">Cumulative: 3,500</text>
</g>
<!-- nuc_radio&#45;&gt;nuc_therm -->
<g id="edge2" class="edge">
<title>nuc_radio&#45;&gt;nuc_therm</title>
<path fill="none" stroke="#95d5b2" d="M73,-973.45C73,-964.97 73,-954.61 73,-945.33"/>
<polygon fill="#95d5b2" stroke="#95d5b2" points="75.1,-945.37 73,-939.37 70.9,-945.37 75.1,-945.37"/>
</g>
<!-- nuc_pulse -->
<g id="node4" class="node">
<title>nuc_pulse</title>
<path fill="#95d5b2" stroke="#4ecdc4" d="M111.4,-865.75C111.4,-865.75 34.6,-865.75 34.6,-865.75 28.6,-865.75 22.6,-859.75 22.6,-853.75 22.6,-853.75 22.6,-841.75 22.6,-841.75 22.6,-835.75 28.6,-829.75 34.6,-829.75 34.6,-829.75 111.4,-829.75 111.4,-829.75 117.4,-829.75 123.4,-835.75 123.4,-841.75 123.4,-841.75 123.4,-853.75 123.4,-853.75 123.4,-859.75 117.4,-865.75 111.4,-865.75"/>
<text xml:space="preserve" text-anchor="middle" x="73" y="-853.65" font-family="Helvetica,sans-Serif" font-size="8.00" fill="#1a1a2e">Nuclear Pulse</text>
<text xml:space="preserve" text-anchor="middle" x="73" y="-844.65" font-family="Helvetica,sans-Serif" font-size="8.00" fill="#1a1a2e">4,000 RP | 8.0x</text>
<text xml:space="preserve" text-anchor="middle" x="73" y="-835.65" font-family="Helvetica,sans-Serif" font-size="8.00" fill="#1a1a2e">Cumulative: 7,500</text>
</g>
<!-- nuc_therm&#45;&gt;nuc_pulse -->
<g id="edge3" class="edge">
<title>nuc_therm&#45;&gt;nuc_pulse</title>
<path fill="none" stroke="#95d5b2" d="M73,-901.45C73,-892.97 73,-882.61 73,-873.33"/>
<polygon fill="#95d5b2" stroke="#95d5b2" points="75.1,-873.37 73,-867.37 70.9,-873.37 75.1,-873.37"/>
</g>
<!-- nuc_gas -->
<g id="node5" class="node">
<title>nuc_gas</title>
<path fill="#ffe66d" stroke="#4ecdc4" d="M111.4,-786.5C111.4,-786.5 34.6,-786.5 34.6,-786.5 28.6,-786.5 22.6,-780.5 22.6,-774.5 22.6,-774.5 22.6,-762.5 22.6,-762.5 22.6,-756.5 28.6,-750.5 34.6,-750.5 34.6,-750.5 111.4,-750.5 111.4,-750.5 117.4,-750.5 123.4,-756.5 123.4,-762.5 123.4,-762.5 123.4,-774.5 123.4,-774.5 123.4,-780.5 117.4,-786.5 111.4,-786.5"/>
<text xml:space="preserve" text-anchor="middle" x="73" y="-774.4" font-family="Helvetica,sans-Serif" font-size="8.00" fill="#1a1a2e">Nuclear Gas&#45;Core</text>
<text xml:space="preserve" text-anchor="middle" x="73" y="-765.4" font-family="Helvetica,sans-Serif" font-size="8.00" fill="#1a1a2e">6,000 RP | 10.0x</text>
<text xml:space="preserve" text-anchor="middle" x="73" y="-756.4" font-family="Helvetica,sans-Serif" font-size="8.00" fill="#1a1a2e">Cumulative: 13,500</text>
</g>
<!-- nuc_pulse&#45;&gt;nuc_gas -->
<g id="edge4" class="edge">
<title>nuc_pulse&#45;&gt;nuc_gas</title>
<path fill="none" stroke="#ffe66d" d="M73,-829.61C73,-819.18 73,-805.69 73,-794.13"/>
<polygon fill="#ffe66d" stroke="#ffe66d" points="75.1,-794.38 73,-788.38 70.9,-794.38 75.1,-794.38"/>
</g>
<!-- ion -->
<g id="node6" class="node">
<title>ion</title>
<path fill="#ffe66d" stroke="#4ecdc4" d="M111.4,-714.5C111.4,-714.5 34.6,-714.5 34.6,-714.5 28.6,-714.5 22.6,-708.5 22.6,-702.5 22.6,-702.5 22.6,-690.5 22.6,-690.5 22.6,-684.5 28.6,-678.5 34.6,-678.5 34.6,-678.5 111.4,-678.5 111.4,-678.5 117.4,-678.5 123.4,-684.5 123.4,-690.5 123.4,-690.5 123.4,-702.5 123.4,-702.5 123.4,-708.5 117.4,-714.5 111.4,-714.5"/>
<text xml:space="preserve" text-anchor="middle" x="73" y="-702.4" font-family="Helvetica,sans-Serif" font-size="8.00" fill="#1a1a2e">Ion Drive</text>
<text xml:space="preserve" text-anchor="middle" x="73" y="-693.4" font-family="Helvetica,sans-Serif" font-size="8.00" fill="#1a1a2e">10,000 RP | 12.5x</text>
<text xml:space="preserve" text-anchor="middle" x="73" y="-684.4" font-family="Helvetica,sans-Serif" font-size="8.00" fill="#1a1a2e">Cumulative: 23,500</text>
</g>
<!-- nuc_gas&#45;&gt;ion -->
<g id="edge5" class="edge">
<title>nuc_gas&#45;&gt;ion</title>
<path fill="none" stroke="#ffe66d" d="M73,-750.2C73,-741.72 73,-731.36 73,-722.08"/>
<polygon fill="#ffe66d" stroke="#ffe66d" points="75.1,-722.12 73,-716.12 70.9,-722.12 75.1,-722.12"/>
</g>
<!-- magneto -->
<g id="node7" class="node">
<title>magneto</title>
<path fill="#ffe66d" stroke="#4ecdc4" d="M111.4,-642.5C111.4,-642.5 34.6,-642.5 34.6,-642.5 28.6,-642.5 22.6,-636.5 22.6,-630.5 22.6,-630.5 22.6,-618.5 22.6,-618.5 22.6,-612.5 28.6,-606.5 34.6,-606.5 34.6,-606.5 111.4,-606.5 111.4,-606.5 117.4,-606.5 123.4,-612.5 123.4,-618.5 123.4,-618.5 123.4,-630.5 123.4,-630.5 123.4,-636.5 117.4,-642.5 111.4,-642.5"/>
<text xml:space="preserve" text-anchor="middle" x="73" y="-630.4" font-family="Helvetica,sans-Serif" font-size="8.00" fill="#1a1a2e">Magneto&#45;plasma</text>
<text xml:space="preserve" text-anchor="middle" x="73" y="-621.4" font-family="Helvetica,sans-Serif" font-size="8.00" fill="#1a1a2e">20,000 RP | 16.0x</text>
<text xml:space="preserve" text-anchor="middle" x="73" y="-612.4" font-family="Helvetica,sans-Serif" font-size="8.00" fill="#1a1a2e">Cumulative: 43,500</text>
</g>
<!-- ion&#45;&gt;magneto -->
<g id="edge6" class="edge">
<title>ion&#45;&gt;magneto</title>
<path fill="none" stroke="#ffe66d" d="M73,-678.2C73,-669.72 73,-659.36 73,-650.08"/>
<polygon fill="#ffe66d" stroke="#ffe66d" points="75.1,-650.12 73,-644.12 70.9,-650.12 75.1,-650.12"/>
</g>
<!-- mcf -->
<g id="node8" class="node">
<title>mcf</title>
<path fill="#ffe66d" stroke="#4ecdc4" d="M111.4,-570.5C111.4,-570.5 34.6,-570.5 34.6,-570.5 28.6,-570.5 22.6,-564.5 22.6,-558.5 22.6,-558.5 22.6,-546.5 22.6,-546.5 22.6,-540.5 28.6,-534.5 34.6,-534.5 34.6,-534.5 111.4,-534.5 111.4,-534.5 117.4,-534.5 123.4,-540.5 123.4,-546.5 123.4,-546.5 123.4,-558.5 123.4,-558.5 123.4,-564.5 117.4,-570.5 111.4,-570.5"/>
<text xml:space="preserve" text-anchor="middle" x="73" y="-558.4" font-family="Helvetica,sans-Serif" font-size="8.00" fill="#1a1a2e">Magnetic Fusion</text>
<text xml:space="preserve" text-anchor="middle" x="73" y="-549.4" font-family="Helvetica,sans-Serif" font-size="8.00" fill="#1a1a2e">40,000 RP | 20.0x</text>
<text xml:space="preserve" text-anchor="middle" x="73" y="-540.4" font-family="Helvetica,sans-Serif" font-size="8.00" fill="#1a1a2e">Cumulative: 83,500</text>
</g>
<!-- magneto&#45;&gt;mcf -->
<g id="edge7" class="edge">
<title>magneto&#45;&gt;mcf</title>
<path fill="none" stroke="#ffe66d" d="M73,-606.2C73,-597.72 73,-587.36 73,-578.08"/>
<polygon fill="#ffe66d" stroke="#ffe66d" points="75.1,-578.12 73,-572.12 70.9,-578.12 75.1,-578.12"/>
</g>
<!-- icf -->
<g id="node9" class="node">
<title>icf</title>
<path fill="#ff6b6b" stroke="#4ecdc4" d="M111.4,-491.25C111.4,-491.25 34.6,-491.25 34.6,-491.25 28.6,-491.25 22.6,-485.25 22.6,-479.25 22.6,-479.25 22.6,-467.25 22.6,-467.25 22.6,-461.25 28.6,-455.25 34.6,-455.25 34.6,-455.25 111.4,-455.25 111.4,-455.25 117.4,-455.25 123.4,-461.25 123.4,-467.25 123.4,-467.25 123.4,-479.25 123.4,-479.25 123.4,-485.25 117.4,-491.25 111.4,-491.25"/>
<text xml:space="preserve" text-anchor="middle" x="73" y="-479.15" font-family="Helvetica,sans-Serif" font-size="8.00" fill="white">Inertial Fusion</text>
<text xml:space="preserve" text-anchor="middle" x="73" y="-470.15" font-family="Helvetica,sans-Serif" font-size="8.00" fill="white">80,000 RP | 25.0x</text>
<text xml:space="preserve" text-anchor="middle" x="73" y="-461.15" font-family="Helvetica,sans-Serif" font-size="8.00" fill="white">Cumulative: 163,500</text>
</g>
<!-- mcf&#45;&gt;icf -->
<g id="edge8" class="edge">
<title>mcf&#45;&gt;icf</title>
<path fill="none" stroke="#ff6b6b" d="M73,-534.36C73,-523.93 73,-510.44 73,-498.88"/>
<polygon fill="#ff6b6b" stroke="#ff6b6b" points="75.1,-499.13 73,-493.13 70.9,-499.13 75.1,-499.13"/>
</g>
<!-- sc_am -->
<g id="node10" class="node">
<title>sc_am</title>
<path fill="#ff6b6b" stroke="#4ecdc4" d="M111.4,-419.25C111.4,-419.25 34.6,-419.25 34.6,-419.25 28.6,-419.25 22.6,-413.25 22.6,-407.25 22.6,-407.25 22.6,-395.25 22.6,-395.25 22.6,-389.25 28.6,-383.25 34.6,-383.25 34.6,-383.25 111.4,-383.25 111.4,-383.25 117.4,-383.25 123.4,-389.25 123.4,-395.25 123.4,-395.25 123.4,-407.25 123.4,-407.25 123.4,-413.25 117.4,-419.25 111.4,-419.25"/>
<text xml:space="preserve" text-anchor="middle" x="73" y="-407.15" font-family="Helvetica,sans-Serif" font-size="8.00" fill="white">Solid&#45;Core AM</text>
<text xml:space="preserve" text-anchor="middle" x="73" y="-398.15" font-family="Helvetica,sans-Serif" font-size="8.00" fill="white">150,000 RP | 32.0x</text>
<text xml:space="preserve" text-anchor="middle" x="73" y="-389.15" font-family="Helvetica,sans-Serif" font-size="8.00" fill="white">Cumulative: 313,500</text>
</g>
<!-- icf&#45;&gt;sc_am -->
<g id="edge9" class="edge">
<title>icf&#45;&gt;sc_am</title>
<path fill="none" stroke="#ff6b6b" d="M73,-454.95C73,-446.47 73,-436.11 73,-426.83"/>
<polygon fill="#ff6b6b" stroke="#ff6b6b" points="75.1,-426.87 73,-420.87 70.9,-426.87 75.1,-426.87"/>
</g>
<!-- gc_am -->
<g id="node11" class="node">
<title>gc_am</title>
<path fill="#ff6b6b" stroke="#4ecdc4" d="M111.4,-347.25C111.4,-347.25 34.6,-347.25 34.6,-347.25 28.6,-347.25 22.6,-341.25 22.6,-335.25 22.6,-335.25 22.6,-323.25 22.6,-323.25 22.6,-317.25 28.6,-311.25 34.6,-311.25 34.6,-311.25 111.4,-311.25 111.4,-311.25 117.4,-311.25 123.4,-317.25 123.4,-323.25 123.4,-323.25 123.4,-335.25 123.4,-335.25 123.4,-341.25 117.4,-347.25 111.4,-347.25"/>
<text xml:space="preserve" text-anchor="middle" x="73" y="-335.15" font-family="Helvetica,sans-Serif" font-size="8.00" fill="white">Gas&#45;Core AM</text>
<text xml:space="preserve" text-anchor="middle" x="73" y="-326.15" font-family="Helvetica,sans-Serif" font-size="8.00" fill="white">300,000 RP | 40.0x</text>
<text xml:space="preserve" text-anchor="middle" x="73" y="-317.15" font-family="Helvetica,sans-Serif" font-size="8.00" fill="white">Cumulative: 613,500</text>
</g>
<!-- sc_am&#45;&gt;gc_am -->
<g id="edge10" class="edge">
<title>sc_am&#45;&gt;gc_am</title>
<path fill="none" stroke="#ff6b6b" d="M73,-382.95C73,-374.47 73,-364.11 73,-354.83"/>
<polygon fill="#ff6b6b" stroke="#ff6b6b" points="75.1,-354.87 73,-348.87 70.9,-354.87 75.1,-354.87"/>
</g>
<!-- pc_am -->
<g id="node12" class="node">
<title>pc_am</title>
<path fill="#ff6b6b" stroke="#4ecdc4" d="M111.4,-275.25C111.4,-275.25 34.6,-275.25 34.6,-275.25 28.6,-275.25 22.6,-269.25 22.6,-263.25 22.6,-263.25 22.6,-251.25 22.6,-251.25 22.6,-245.25 28.6,-239.25 34.6,-239.25 34.6,-239.25 111.4,-239.25 111.4,-239.25 117.4,-239.25 123.4,-245.25 123.4,-251.25 123.4,-251.25 123.4,-263.25 123.4,-263.25 123.4,-269.25 117.4,-275.25 111.4,-275.25"/>
<text xml:space="preserve" text-anchor="middle" x="73" y="-263.15" font-family="Helvetica,sans-Serif" font-size="8.00" fill="white">Plasma&#45;Core AM</text>
<text xml:space="preserve" text-anchor="middle" x="73" y="-254.15" font-family="Helvetica,sans-Serif" font-size="8.00" fill="white">600,000 RP | 50.0x</text>
<text xml:space="preserve" text-anchor="middle" x="73" y="-245.15" font-family="Helvetica,sans-Serif" font-size="8.00" fill="white">Cumulative: 1,213,500</text>
</g>
<!-- gc_am&#45;&gt;pc_am -->
<g id="edge11" class="edge">
<title>gc_am&#45;&gt;pc_am</title>
<path fill="none" stroke="#ff6b6b" d="M73,-310.95C73,-302.47 73,-292.11 73,-282.83"/>
<polygon fill="#ff6b6b" stroke="#ff6b6b" points="75.1,-282.87 73,-276.87 70.9,-282.87 75.1,-282.87"/>
</g>
<!-- bc_am -->
<g id="node13" class="node">
<title>bc_am</title>
<path fill="#9b59b6" stroke="#4ecdc4" d="M111.4,-196C111.4,-196 34.6,-196 34.6,-196 28.6,-196 22.6,-190 22.6,-184 22.6,-184 22.6,-172 22.6,-172 22.6,-166 28.6,-160 34.6,-160 34.6,-160 111.4,-160 111.4,-160 117.4,-160 123.4,-166 123.4,-172 123.4,-172 123.4,-184 123.4,-184 123.4,-190 117.4,-196 111.4,-196"/>
<text xml:space="preserve" text-anchor="middle" x="73" y="-183.9" font-family="Helvetica,sans-Serif" font-size="8.00" fill="white">Beam&#45;Core AM</text>
<text xml:space="preserve" text-anchor="middle" x="73" y="-174.9" font-family="Helvetica,sans-Serif" font-size="8.00" fill="white">1,250,000 RP | 64.0x</text>
<text xml:space="preserve" text-anchor="middle" x="73" y="-165.9" font-family="Helvetica,sans-Serif" font-size="8.00" fill="white">Cumulative: 2,463,500</text>
</g>
<!-- pc_am&#45;&gt;bc_am -->
<g id="edge12" class="edge">
<title>pc_am&#45;&gt;bc_am</title>
<path fill="none" stroke="#9b59b6" d="M73,-239.11C73,-228.68 73,-215.19 73,-203.63"/>
<polygon fill="#9b59b6" stroke="#9b59b6" points="75.1,-203.88 73,-197.88 70.9,-203.88 75.1,-203.88"/>
</g>
<!-- photonic -->
<g id="node14" class="node">
<title>photonic</title>
<path fill="#9b59b6" stroke="#4ecdc4" d="M111.4,-124C111.4,-124 34.6,-124 34.6,-124 28.6,-124 22.6,-118 22.6,-112 22.6,-112 22.6,-100 22.6,-100 22.6,-94 28.6,-88 34.6,-88 34.6,-88 111.4,-88 111.4,-88 117.4,-88 123.4,-94 123.4,-100 123.4,-100 123.4,-112 123.4,-112 123.4,-118 117.4,-124 111.4,-124"/>
<text xml:space="preserve" text-anchor="middle" x="73" y="-111.9" font-family="Helvetica,sans-Serif" font-size="8.00" fill="white">Photonic Drive</text>
<text xml:space="preserve" text-anchor="middle" x="73" y="-102.9" font-family="Helvetica,sans-Serif" font-size="8.00" fill="white">2,500,000 RP | 80.0x</text>
<text xml:space="preserve" text-anchor="middle" x="73" y="-93.9" font-family="Helvetica,sans-Serif" font-size="8.00" fill="white">Cumulative: 4,963,500</text>
</g>
<!-- bc_am&#45;&gt;photonic -->
<g id="edge13" class="edge">
<title>bc_am&#45;&gt;photonic</title>
<path fill="none" stroke="#9b59b6" d="M73,-159.7C73,-151.22 73,-140.86 73,-131.58"/>
<polygon fill="#9b59b6" stroke="#9b59b6" points="75.1,-131.62 73,-125.62 70.9,-131.62 75.1,-131.62"/>
</g>
<!-- quantum -->
<g id="node15" class="node">
<title>quantum</title>
<path fill="#9b59b6" stroke="#4ecdc4" d="M111.4,-52C111.4,-52 34.6,-52 34.6,-52 28.6,-52 22.6,-46 22.6,-40 22.6,-40 22.6,-28 22.6,-28 22.6,-22 28.6,-16 34.6,-16 34.6,-16 111.4,-16 111.4,-16 117.4,-16 123.4,-22 123.4,-28 123.4,-28 123.4,-40 123.4,-40 123.4,-46 117.4,-52 111.4,-52"/>
<text xml:space="preserve" text-anchor="middle" x="73" y="-39.9" font-family="Helvetica,sans-Serif" font-size="8.00" fill="white">Quantum Singularity</text>
<text xml:space="preserve" text-anchor="middle" x="73" y="-30.9" font-family="Helvetica,sans-Serif" font-size="8.00" fill="white">5,000,000 RP | 100.0x</text>
<text xml:space="preserve" text-anchor="middle" x="73" y="-21.9" font-family="Helvetica,sans-Serif" font-size="8.00" fill="white">Cumulative: 9,963,500</text>
</g>
<!-- photonic&#45;&gt;quantum -->
<g id="edge14" class="edge">
<title>photonic&#45;&gt;quantum</title>
<path fill="none" stroke="#9b59b6" d="M73,-87.7C73,-79.22 73,-68.86 73,-59.58"/>
<polygon fill="#9b59b6" stroke="#9b59b6" points="75.1,-59.62 73,-53.62 70.9,-59.62 75.1,-59.62"/>
</g>
<!-- m1 -->
<g id="node16" class="node">
<title>m1</title>
<polygon fill="#2d2d44" stroke="#4ecdc4" points="258.12,-1081.75 155.88,-1081.75 155.88,-1045.75 258.12,-1045.75 258.12,-1081.75"/>
<text xml:space="preserve" text-anchor="middle" x="207" y="-1069.65" font-family="Helvetica,sans-Serif" font-size="8.00" fill="#95d5b2">5x Power Jump</text>
<text xml:space="preserve" text-anchor="middle" x="207" y="-1060.65" font-family="Helvetica,sans-Serif" font-size="8.00" fill="#95d5b2">Conventional &#45;&gt; Nuclear</text>
<text xml:space="preserve" text-anchor="middle" x="207" y="-1051.65" font-family="Helvetica,sans-Serif" font-size="8.00" fill="#95d5b2">(First major upgrade)</text>
</g>
<!-- m2 -->
<g id="node17" class="node">
<title>m2</title>
<polygon fill="#2d2d44" stroke="#4ecdc4" points="388.4,-1081.75 287.6,-1081.75 287.6,-1045.75 388.4,-1045.75 388.4,-1081.75"/>
<text xml:space="preserve" text-anchor="middle" x="338" y="-1069.65" font-family="Helvetica,sans-Serif" font-size="8.00" fill="#ffe66d">20x Power</text>
<text xml:space="preserve" text-anchor="middle" x="338" y="-1060.65" font-family="Helvetica,sans-Serif" font-size="8.00" fill="#ffe66d">Magnetic Fusion</text>
<text xml:space="preserve" text-anchor="middle" x="338" y="-1051.65" font-family="Helvetica,sans-Serif" font-size="8.00" fill="#ffe66d">(Mid&#45;game competitive)</text>
</g>
<!-- m3 -->
<g id="node18" class="node">
<title>m3</title>
<polygon fill="#2d2d44" stroke="#4ecdc4" points="520.12,-1081.75 417.88,-1081.75 417.88,-1045.75 520.12,-1045.75 520.12,-1081.75"/>
<text xml:space="preserve" text-anchor="middle" x="469" y="-1069.65" font-family="Helvetica,sans-Serif" font-size="8.00" fill="#ff6b6b">50x Power</text>
<text xml:space="preserve" text-anchor="middle" x="469" y="-1060.65" font-family="Helvetica,sans-Serif" font-size="8.00" fill="#ff6b6b">Plasma&#45;Core AM</text>
<text xml:space="preserve" text-anchor="middle" x="469" y="-1051.65" font-family="Helvetica,sans-Serif" font-size="8.00" fill="#ff6b6b">(Late&#45;game dominance)</text>
</g>
<!-- m4 -->
<g id="node19" class="node">
<title>m4</title>
<polygon fill="#2d2d44" stroke="#4ecdc4" points="650.4,-1081.75 549.6,-1081.75 549.6,-1045.75 650.4,-1045.75 650.4,-1081.75"/>
<text xml:space="preserve" text-anchor="middle" x="600" y="-1069.65" font-family="Helvetica,sans-Serif" font-size="8.00" fill="#9b59b6">100x Power</text>
<text xml:space="preserve" text-anchor="middle" x="600" y="-1060.65" font-family="Helvetica,sans-Serif" font-size="8.00" fill="#9b59b6">Quantum Singularity</text>
<text xml:space="preserve" text-anchor="middle" x="600" y="-1051.65" font-family="Helvetica,sans-Serif" font-size="8.00" fill="#9b59b6">(Ultimate engine)</text>
</g>
<!-- leg1 -->
<g id="node20" class="node">
<title>leg1</title>
<polygon fill="#2d2d44" stroke="#4ecdc4" points="886.25,-1081.75 679.75,-1081.75 679.75,-1045.75 886.25,-1045.75 886.25,-1081.75"/>
<text xml:space="preserve" text-anchor="middle" x="783" y="-1060.65" font-family="Helvetica,sans-Serif" font-size="8.00" fill="white">Format: Tech Name | This Level RP | Power Multiplier</text>
</g>
<!-- leg2 -->
<g id="node21" class="node">
<title>leg2</title>
<polygon fill="#2d2d44" stroke="#4ecdc4" points="1159,-1081.75 915,-1081.75 915,-1045.75 1159,-1045.75 1159,-1081.75"/>
<text xml:space="preserve" text-anchor="middle" x="1037" y="-1060.65" font-family="Helvetica,sans-Serif" font-size="8.00" fill="white">Power doubles approximately every 3 levels (~25&#45;28% per level)</text>
</g>
</g>
</svg>
