<?xml version="1.0" encoding="UTF-8" standalone="no"?>
<!DOCTYPE svg PUBLIC "-//W3C//DTD SVG 1.1//EN"
 "http://www.w3.org/Graphics/SVG/1.1/DTD/svg11.dtd">
<!-- Generated by graphviz version 14.1.2 (20260124.0452)
 -->
<!-- Title: TechTreeStructure Pages: 1 -->
<svg width="1421pt" height="581pt"
 viewBox="0.00 0.00 1421.00 581.00" xmlns="http://www.w3.org/2000/svg" xmlns:xlink="http://www.w3.org/1999/xlink">
<g id="graph0" class="graph" transform="scale(1 1) rotate(0) translate(4 576.75)">
<title>TechTreeStructure</title>
<polygon fill="#1a1a2e" stroke="none" points="-4,4 -4,-576.75 1417,-576.75 1417,4 -4,4"/>
<text xml:space="preserve" text-anchor="middle" x="706.5" y="-555.45" font-family="Helvetica,sans-Serif" font-size="14.00" fill="white">Figure 7.1.1: Aurora Research Categories and Weapon Branching</text>
<g id="clust1" class="cluster">
<title>cluster_categories</title>
<polygon fill="#1a1a2e" stroke="#4ecdc4" stroke-dasharray="5,2" points="340,-336 340,-411 1351,-411 1351,-336 340,-336"/>
<text xml:space="preserve" text-anchor="middle" x="845.5" y="-393.7" font-family="Helvetica,sans-Serif" font-size="14.00" fill="#888888">Nine Research Categories</text>
</g>
<g id="clust3" class="cluster">
<title>cluster_weapons</title>
<polygon fill="#1a1a2e" stroke="#ffe66d" stroke-dasharray="5,2" points="243,-8 243,-297.25 1040,-297.25 1040,-8 243,-8"/>
<text xml:space="preserve" text-anchor="middle" x="641.5" y="-279.95" font-family="Helvetica,sans-Serif" font-size="14.00" fill="#888888">Weapon Branching (Direct Fire Weapons)</text>
</g>
<g id="clust4" class="cluster">
<title>cluster_cross</title>
<polygon fill="#1a1a2e" stroke="#95d5b2" stroke-dasharray="5,2" points="8,-336 8,-541.75 332,-541.75 332,-336 8,-336"/>
<text xml:space="preserve" text-anchor="middle" x="170" y="-524.45" font-family="Helvetica,sans-Serif" font-size="14.00" fill="#888888">Cross&#45;Category Dependencies</text>
</g>
<g id="clust5" class="cluster">
<title>cluster_legend</title>
<polygon fill="#1a1a2e" stroke="#666666" stroke-dasharray="5,2" points="358,-458.25 358,-533.25 1405,-533.25 1405,-458.25 358,-458.25"/>
<text xml:space="preserve" text-anchor="middle" x="881.5" y="-515.95" font-family="Helvetica,sans-Serif" font-size="14.00" fill="#888888">Legend</text>
</g>
<!-- cat1 -->
<g id="node1" class="node">
<title>cat1</title>
<path fill="#ff6b6b" stroke="#4ecdc4" d="M409.88,-380C409.88,-380 360.12,-380 360.12,-380 354.12,-380 348.12,-374 348.12,-368 348.12,-368 348.12,-356 348.12,-356 348.12,-350 354.12,-344 360.12,-344 360.12,-344 409.88,-344 409.88,-344 415.88,-344 421.88,-350 421.88,-356 421.88,-356 421.88,-368 421.88,-368 421.88,-374 415.88,-380 409.88,-380"/>
<text xml:space="preserve" text-anchor="middle" x="385" y="-363.75" font-family="Helvetica,sans-Serif" font-size="10.00" fill="white">1. Power and</text>
<text xml:space="preserve" text-anchor="middle" x="385" y="-352.5" font-family="Helvetica,sans-Serif" font-size="10.00" fill="white">Propulsion</text>
</g>
<!-- cat2 -->
<g id="node2" class="node">
<title>cat2</title>
<path fill="#ffe66d" stroke="#4ecdc4" d="M542.75,-380C542.75,-380 477.25,-380 477.25,-380 471.25,-380 465.25,-374 465.25,-368 465.25,-368 465.25,-356 465.25,-356 465.25,-350 471.25,-344 477.25,-344 477.25,-344 542.75,-344 542.75,-344 548.75,-344 554.75,-350 554.75,-356 554.75,-356 554.75,-368 554.75,-368 554.75,-374 548.75,-380 542.75,-380"/>
<text xml:space="preserve" text-anchor="middle" x="510" y="-363.75" font-family="Helvetica,sans-Serif" font-size="10.00" fill="#1a1a2e">2. Sensors and</text>
<text xml:space="preserve" text-anchor="middle" x="510" y="-352.5" font-family="Helvetica,sans-Serif" font-size="10.00" fill="#1a1a2e">Control Systems</text>
</g>
<!-- cat3 -->
<g id="node3" class="node">
<title>cat3</title>
<path fill="#ff6b6b" stroke="#4ecdc4" d="M658.5,-380C658.5,-380 609.5,-380 609.5,-380 603.5,-380 597.5,-374 597.5,-368 597.5,-368 597.5,-356 597.5,-356 597.5,-350 603.5,-344 609.5,-344 609.5,-344 658.5,-344 658.5,-344 664.5,-344 670.5,-350 670.5,-356 670.5,-356 670.5,-368 670.5,-368 670.5,-374 664.5,-380 658.5,-380"/>
<text xml:space="preserve" text-anchor="middle" x="634" y="-363.75" font-family="Helvetica,sans-Serif" font-size="10.00" fill="white">3. Direct Fire</text>
<text xml:space="preserve" text-anchor="middle" x="634" y="-352.5" font-family="Helvetica,sans-Serif" font-size="10.00" fill="white">Weapons</text>
</g>
<!-- base_weapon -->
<g id="node10" class="node">
<title>base_weapon</title>
<path fill="#2d2d44" stroke="#4ecdc4" d="M660.38,-266.25C660.38,-266.25 607.62,-266.25 607.62,-266.25 601.62,-266.25 595.62,-260.25 595.62,-254.25 595.62,-254.25 595.62,-242.25 595.62,-242.25 595.62,-236.25 601.62,-230.25 607.62,-230.25 607.62,-230.25 660.38,-230.25 660.38,-230.25 666.38,-230.25 672.38,-236.25 672.38,-242.25 672.38,-242.25 672.38,-254.25 672.38,-254.25 672.38,-260.25 666.38,-266.25 660.38,-266.25"/>
<text xml:space="preserve" text-anchor="middle" x="634" y="-250" font-family="Helvetica,sans-Serif" font-size="10.00" fill="white">Base Weapon</text>
<text xml:space="preserve" text-anchor="middle" x="634" y="-238.75" font-family="Helvetica,sans-Serif" font-size="10.00" fill="white">Technology</text>
</g>
<!-- cat3&#45;&gt;base_weapon -->
<g id="edge1" class="edge">
<title>cat3&#45;&gt;base_weapon</title>
<path fill="none" stroke="#888888" stroke-dasharray="5,2" d="M634,-343.54C634,-325.42 634,-296.84 634,-275.89"/>
<polygon fill="#888888" stroke="#888888" points="636.8,-276.1 634,-268.1 631.2,-276.1 636.8,-276.1"/>
<text xml:space="preserve" text-anchor="middle" x="649.75" y="-306.45" font-family="Helvetica,sans-Serif" font-size="9.00" fill="#888888">unlocks</text>
</g>
<!-- cat4 -->
<g id="node4" class="node">
<title>cat4</title>
<path fill="#ff6b6b" stroke="#4ecdc4" d="M764.62,-380C764.62,-380 725.38,-380 725.38,-380 719.38,-380 713.38,-374 713.38,-368 713.38,-368 713.38,-356 713.38,-356 713.38,-350 719.38,-344 725.38,-344 725.38,-344 764.62,-344 764.62,-344 770.62,-344 776.62,-350 776.62,-356 776.62,-356 776.62,-368 776.62,-368 776.62,-374 770.62,-380 764.62,-380"/>
<text xml:space="preserve" text-anchor="middle" x="745" y="-358.12" font-family="Helvetica,sans-Serif" font-size="10.00" fill="white">4. Missiles</text>
</g>
<!-- cat5 -->
<g id="node5" class="node">
<title>cat5</title>
<path fill="#95d5b2" stroke="#4ecdc4" d="M896.38,-380C896.38,-380 831.62,-380 831.62,-380 825.62,-380 819.62,-374 819.62,-368 819.62,-368 819.62,-356 819.62,-356 819.62,-350 825.62,-344 831.62,-344 831.62,-344 896.38,-344 896.38,-344 902.38,-344 908.38,-350 908.38,-356 908.38,-356 908.38,-368 908.38,-368 908.38,-374 902.38,-380 896.38,-380"/>
<text xml:space="preserve" text-anchor="middle" x="864" y="-363.75" font-family="Helvetica,sans-Serif" font-size="10.00" fill="#1a1a2e">5. Construction /</text>
<text xml:space="preserve" text-anchor="middle" x="864" y="-352.5" font-family="Helvetica,sans-Serif" font-size="10.00" fill="#1a1a2e">Production</text>
</g>
<!-- cat6 -->
<g id="node6" class="node">
<title>cat6</title>
<path fill="#95d5b2" stroke="#4ecdc4" d="M1006.12,-380C1006.12,-380 963.88,-380 963.88,-380 957.88,-380 951.88,-374 951.88,-368 951.88,-368 951.88,-356 951.88,-356 951.88,-350 957.88,-344 963.88,-344 963.88,-344 1006.12,-344 1006.12,-344 1012.12,-344 1018.12,-350 1018.12,-356 1018.12,-356 1018.12,-368 1018.12,-368 1018.12,-374 1012.12,-380 1006.12,-380"/>
<text xml:space="preserve" text-anchor="middle" x="985" y="-358.12" font-family="Helvetica,sans-Serif" font-size="10.00" fill="#1a1a2e">6. Logistics</text>
</g>
<!-- cat7 -->
<g id="node7" class="node">
<title>cat7</title>
<path fill="#4ecdc4" stroke="#4ecdc4" d="M1120.75,-380C1120.75,-380 1073.25,-380 1073.25,-380 1067.25,-380 1061.25,-374 1061.25,-368 1061.25,-368 1061.25,-356 1061.25,-356 1061.25,-350 1067.25,-344 1073.25,-344 1073.25,-344 1120.75,-344 1120.75,-344 1126.75,-344 1132.75,-350 1132.75,-356 1132.75,-356 1132.75,-368 1132.75,-368 1132.75,-374 1126.75,-380 1120.75,-380"/>
<text xml:space="preserve" text-anchor="middle" x="1097" y="-363.75" font-family="Helvetica,sans-Serif" font-size="10.00" fill="#1a1a2e">7. Defensive</text>
<text xml:space="preserve" text-anchor="middle" x="1097" y="-352.5" font-family="Helvetica,sans-Serif" font-size="10.00" fill="#1a1a2e">Systems</text>
</g>
<!-- cat8 -->
<g id="node8" class="node">
<title>cat8</title>
<path fill="#9b59b6" stroke="#4ecdc4" d="M1229.75,-380C1229.75,-380 1188.25,-380 1188.25,-380 1182.25,-380 1176.25,-374 1176.25,-368 1176.25,-368 1176.25,-356 1176.25,-356 1176.25,-350 1182.25,-344 1188.25,-344 1188.25,-344 1229.75,-344 1229.75,-344 1235.75,-344 1241.75,-350 1241.75,-356 1241.75,-356 1241.75,-368 1241.75,-368 1241.75,-374 1235.75,-380 1229.75,-380"/>
<text xml:space="preserve" text-anchor="middle" x="1209" y="-363.75" font-family="Helvetica,sans-Serif" font-size="10.00" fill="white">8. Biology /</text>
<text xml:space="preserve" text-anchor="middle" x="1209" y="-352.5" font-family="Helvetica,sans-Serif" font-size="10.00" fill="white">Genetics</text>
</g>
<!-- cat9 -->
<g id="node9" class="node">
<title>cat9</title>
<path fill="#9b59b6" stroke="#4ecdc4" d="M1331.38,-380C1331.38,-380 1296.62,-380 1296.62,-380 1290.62,-380 1284.62,-374 1284.62,-368 1284.62,-368 1284.62,-356 1284.62,-356 1284.62,-350 1290.62,-344 1296.62,-344 1296.62,-344 1331.38,-344 1331.38,-344 1337.38,-344 1343.38,-350 1343.38,-356 1343.38,-356 1343.38,-368 1343.38,-368 1343.38,-374 1337.38,-380 1331.38,-380"/>
<text xml:space="preserve" text-anchor="middle" x="1314" y="-363.75" font-family="Helvetica,sans-Serif" font-size="10.00" fill="white">9. Ground</text>
<text xml:space="preserve" text-anchor="middle" x="1314" y="-352.5" font-family="Helvetica,sans-Serif" font-size="10.00" fill="white">Combat</text>
</g>
<!-- laser_branch -->
<g id="node11" class="node">
<title>laser_branch</title>
<path fill="#ffe66d" stroke="#4ecdc4" d="M310.75,-171.25C310.75,-171.25 263.25,-171.25 263.25,-171.25 257.25,-171.25 251.25,-165.25 251.25,-159.25 251.25,-159.25 251.25,-141.5 251.25,-141.5 251.25,-135.5 257.25,-129.5 263.25,-129.5 263.25,-129.5 310.75,-129.5 310.75,-129.5 316.75,-129.5 322.75,-135.5 322.75,-141.5 322.75,-141.5 322.75,-159.25 322.75,-159.25 322.75,-165.25 316.75,-171.25 310.75,-171.25"/>
<text xml:space="preserve" text-anchor="middle" x="287" y="-157.75" font-family="Helvetica,sans-Serif" font-size="10.00" fill="#1a1a2e">Lasers</text>
<text xml:space="preserve" text-anchor="middle" x="287" y="-146.5" font-family="Helvetica,sans-Serif" font-size="10.00" fill="#1a1a2e">(Focal Size)</text>
<text xml:space="preserve" text-anchor="middle" x="287" y="-135.25" font-family="Helvetica,sans-Serif" font-size="10.00" fill="#1a1a2e">TechType 60</text>
</g>
<!-- base_weapon&#45;&gt;laser_branch -->
<g id="edge2" class="edge">
<title>base_weapon&#45;&gt;laser_branch</title>
<path fill="none" stroke="#ffe66d" d="M595.42,-238.05C539.77,-224.58 433.89,-198.13 345,-171.25 340.77,-169.97 336.38,-168.58 332,-167.15"/>
<polygon fill="#ffe66d" stroke="#ffe66d" points="332.98,-164.53 324.5,-164.67 331.21,-169.84 332.98,-164.53"/>
</g>
<!-- particle_branch -->
<g id="node13" class="node">
<title>particle_branch</title>
<path fill="#ffe66d" stroke="#4ecdc4" d="M425.75,-171.25C425.75,-171.25 378.25,-171.25 378.25,-171.25 372.25,-171.25 366.25,-165.25 366.25,-159.25 366.25,-159.25 366.25,-141.5 366.25,-141.5 366.25,-135.5 372.25,-129.5 378.25,-129.5 378.25,-129.5 425.75,-129.5 425.75,-129.5 431.75,-129.5 437.75,-135.5 437.75,-141.5 437.75,-141.5 437.75,-159.25 437.75,-159.25 437.75,-165.25 431.75,-171.25 425.75,-171.25"/>
<text xml:space="preserve" text-anchor="middle" x="402" y="-157.75" font-family="Helvetica,sans-Serif" font-size="10.00" fill="#1a1a2e">Particle</text>
<text xml:space="preserve" text-anchor="middle" x="402" y="-146.5" font-family="Helvetica,sans-Serif" font-size="10.00" fill="#1a1a2e">Beams</text>
<text xml:space="preserve" text-anchor="middle" x="402" y="-135.25" font-family="Helvetica,sans-Serif" font-size="10.00" fill="#1a1a2e">TechType 72</text>
</g>
<!-- base_weapon&#45;&gt;particle_branch -->
<g id="edge3" class="edge">
<title>base_weapon&#45;&gt;particle_branch</title>
<path fill="none" stroke="#ffe66d" d="M595.17,-231.2C554.14,-214.25 489.53,-187.55 446.48,-169.76"/>
<polygon fill="#ffe66d" stroke="#ffe66d" points="447.77,-167.26 439.3,-166.79 445.63,-172.43 447.77,-167.26"/>
</g>
<!-- meson_branch -->
<g id="node14" class="node">
<title>meson_branch</title>
<path fill="#ffe66d" stroke="#4ecdc4" d="M540.75,-168.38C540.75,-168.38 493.25,-168.38 493.25,-168.38 487.25,-168.38 481.25,-162.38 481.25,-156.38 481.25,-156.38 481.25,-144.38 481.25,-144.38 481.25,-138.38 487.25,-132.38 493.25,-132.38 493.25,-132.38 540.75,-132.38 540.75,-132.38 546.75,-132.38 552.75,-138.38 552.75,-144.38 552.75,-144.38 552.75,-156.38 552.75,-156.38 552.75,-162.38 546.75,-168.38 540.75,-168.38"/>
<text xml:space="preserve" text-anchor="middle" x="517" y="-152.12" font-family="Helvetica,sans-Serif" font-size="10.00" fill="#1a1a2e">Mesons</text>
<text xml:space="preserve" text-anchor="middle" x="517" y="-140.88" font-family="Helvetica,sans-Serif" font-size="10.00" fill="#1a1a2e">TechType 76</text>
</g>
<!-- base_weapon&#45;&gt;meson_branch -->
<g id="edge4" class="edge">
<title>base_weapon&#45;&gt;meson_branch</title>
<path fill="none" stroke="#ffe66d" d="M612.81,-229.89C593.93,-214.41 566.14,-191.64 545.34,-174.6"/>
<polygon fill="#ffe66d" stroke="#ffe66d" points="547.16,-172.47 539.2,-169.57 543.61,-176.8 547.16,-172.47"/>
</g>
<!-- railgun_branch -->
<g id="node15" class="node">
<title>railgun_branch</title>
<path fill="#ffe66d" stroke="#4ecdc4" d="M660.38,-168.38C660.38,-168.38 607.62,-168.38 607.62,-168.38 601.62,-168.38 595.62,-162.38 595.62,-156.38 595.62,-156.38 595.62,-144.38 595.62,-144.38 595.62,-138.38 601.62,-132.38 607.62,-132.38 607.62,-132.38 660.38,-132.38 660.38,-132.38 666.38,-132.38 672.38,-138.38 672.38,-144.38 672.38,-144.38 672.38,-156.38 672.38,-156.38 672.38,-162.38 666.38,-168.38 660.38,-168.38"/>
<text xml:space="preserve" text-anchor="middle" x="634" y="-152.12" font-family="Helvetica,sans-Serif" font-size="10.00" fill="#1a1a2e">Railguns</text>
<text xml:space="preserve" text-anchor="middle" x="634" y="-140.88" font-family="Helvetica,sans-Serif" font-size="10.00" fill="#1a1a2e">TechType 136</text>
</g>
<!-- base_weapon&#45;&gt;railgun_branch -->
<g id="edge5" class="edge">
<title>base_weapon&#45;&gt;railgun_branch</title>
<path fill="none" stroke="#ffe66d" d="M634,-230.11C634,-215.61 634,-194.6 634,-177.92"/>
<polygon fill="#ffe66d" stroke="#ffe66d" points="636.8,-178.2 634,-170.2 631.2,-178.2 636.8,-178.2"/>
</g>
<!-- gauss_branch -->
<g id="node16" class="node">
<title>gauss_branch</title>
<path fill="#ffe66d" stroke="#4ecdc4" d="M780.38,-171.25C780.38,-171.25 727.62,-171.25 727.62,-171.25 721.62,-171.25 715.62,-165.25 715.62,-159.25 715.62,-159.25 715.62,-141.5 715.62,-141.5 715.62,-135.5 721.62,-129.5 727.62,-129.5 727.62,-129.5 780.38,-129.5 780.38,-129.5 786.38,-129.5 792.38,-135.5 792.38,-141.5 792.38,-141.5 792.38,-159.25 792.38,-159.25 792.38,-165.25 786.38,-171.25 780.38,-171.25"/>
<text xml:space="preserve" text-anchor="middle" x="754" y="-157.75" font-family="Helvetica,sans-Serif" font-size="10.00" fill="#1a1a2e">Gauss</text>
<text xml:space="preserve" text-anchor="middle" x="754" y="-146.5" font-family="Helvetica,sans-Serif" font-size="10.00" fill="#1a1a2e">Cannons</text>
<text xml:space="preserve" text-anchor="middle" x="754" y="-135.25" font-family="Helvetica,sans-Serif" font-size="10.00" fill="#1a1a2e">TechType 138</text>
</g>
<!-- base_weapon&#45;&gt;gauss_branch -->
<g id="edge6" class="edge">
<title>base_weapon&#45;&gt;gauss_branch</title>
<path fill="none" stroke="#ffe66d" d="M655.73,-229.89C674.02,-215.28 700.44,-194.16 721.29,-177.51"/>
<polygon fill="#ffe66d" stroke="#ffe66d" points="723,-179.72 727.51,-172.54 719.51,-175.35 723,-179.72"/>
</g>
<!-- plasma_branch -->
<g id="node17" class="node">
<title>plasma_branch</title>
<path fill="#ffe66d" stroke="#4ecdc4" d="M900.38,-171.25C900.38,-171.25 847.62,-171.25 847.62,-171.25 841.62,-171.25 835.62,-165.25 835.62,-159.25 835.62,-159.25 835.62,-141.5 835.62,-141.5 835.62,-135.5 841.62,-129.5 847.62,-129.5 847.62,-129.5 900.38,-129.5 900.38,-129.5 906.38,-129.5 912.38,-135.5 912.38,-141.5 912.38,-141.5 912.38,-159.25 912.38,-159.25 912.38,-165.25 906.38,-171.25 900.38,-171.25"/>
<text xml:space="preserve" text-anchor="middle" x="874" y="-157.75" font-family="Helvetica,sans-Serif" font-size="10.00" fill="#1a1a2e">Plasma</text>
<text xml:space="preserve" text-anchor="middle" x="874" y="-146.5" font-family="Helvetica,sans-Serif" font-size="10.00" fill="#1a1a2e">Carronades</text>
<text xml:space="preserve" text-anchor="middle" x="874" y="-135.25" font-family="Helvetica,sans-Serif" font-size="10.00" fill="#1a1a2e">TechType 148</text>
</g>
<!-- base_weapon&#45;&gt;plasma_branch -->
<g id="edge7" class="edge">
<title>base_weapon&#45;&gt;plasma_branch</title>
<path fill="none" stroke="#ffe66d" d="M672.83,-231.74C714.74,-215 781.53,-188.32 826.53,-170.34"/>
<polygon fill="#ffe66d" stroke="#ffe66d" points="827.43,-172.99 833.82,-167.42 825.36,-167.79 827.43,-172.99"/>
</g>
<!-- microwave_branch -->
<g id="node18" class="node">
<title>microwave_branch</title>
<path fill="#ffe66d" stroke="#4ecdc4" d="M1020.38,-171.25C1020.38,-171.25 967.62,-171.25 967.62,-171.25 961.62,-171.25 955.62,-165.25 955.62,-159.25 955.62,-159.25 955.62,-141.5 955.62,-141.5 955.62,-135.5 961.62,-129.5 967.62,-129.5 967.62,-129.5 1020.38,-129.5 1020.38,-129.5 1026.38,-129.5 1032.38,-135.5 1032.38,-141.5 1032.38,-141.5 1032.38,-159.25 1032.38,-159.25 1032.38,-165.25 1026.38,-171.25 1020.38,-171.25"/>
<text xml:space="preserve" text-anchor="middle" x="994" y="-157.75" font-family="Helvetica,sans-Serif" font-size="10.00" fill="#1a1a2e">Microwave</text>
<text xml:space="preserve" text-anchor="middle" x="994" y="-146.5" font-family="Helvetica,sans-Serif" font-size="10.00" fill="#1a1a2e">Weapons</text>
<text xml:space="preserve" text-anchor="middle" x="994" y="-135.25" font-family="Helvetica,sans-Serif" font-size="10.00" fill="#1a1a2e">TechType 150</text>
</g>
<!-- base_weapon&#45;&gt;microwave_branch -->
<g id="edge8" class="edge">
<title>base_weapon&#45;&gt;microwave_branch</title>
<path fill="none" stroke="#ffe66d" d="M672.6,-238.41C729.95,-225.06 840.9,-198.42 934,-171.25 938.13,-170.05 942.4,-168.74 946.67,-167.4"/>
<polygon fill="#ffe66d" stroke="#ffe66d" points="947.19,-170.18 953.95,-165.08 945.48,-164.84 947.19,-170.18"/>
</g>
<!-- wavelength -->
<g id="node12" class="node">
<title>wavelength</title>
<path fill="#ffe66d" stroke="#4ecdc4" d="M318.12,-52C318.12,-52 269.88,-52 269.88,-52 263.88,-52 257.88,-46 257.88,-40 257.88,-40 257.88,-28 257.88,-28 257.88,-22 263.88,-16 269.88,-16 269.88,-16 318.12,-16 318.12,-16 324.12,-16 330.12,-22 330.12,-28 330.12,-28 330.12,-40 330.12,-40 330.12,-46 324.12,-52 318.12,-52"/>
<text xml:space="preserve" text-anchor="middle" x="294" y="-35.75" font-family="Helvetica,sans-Serif" font-size="10.00" fill="#1a1a2e">Wavelengths</text>
<text xml:space="preserve" text-anchor="middle" x="294" y="-24.5" font-family="Helvetica,sans-Serif" font-size="10.00" fill="#1a1a2e">TechType 3</text>
</g>
<!-- laser_branch&#45;&gt;wavelength -->
<g id="edge9" class="edge">
<title>laser_branch&#45;&gt;wavelength</title>
<path fill="none" stroke="#ffe66d" d="M288.24,-129.19C289.38,-110.45 291.1,-82.43 292.36,-61.81"/>
<polygon fill="#ffe66d" stroke="#ffe66d" points="295.15,-62.03 292.84,-53.88 289.56,-61.69 295.15,-62.03"/>
<text xml:space="preserve" text-anchor="middle" x="311" y="-91.95" font-family="Helvetica,sans-Serif" font-size="9.00" fill="#888888">combines</text>
<text xml:space="preserve" text-anchor="middle" x="311" y="-82.2" font-family="Helvetica,sans-Serif" font-size="9.00" fill="#888888">with</text>
</g>
<!-- tn_tech -->
<g id="node19" class="node">
<title>tn_tech</title>
<path fill="#95d5b2" stroke="#4ecdc4" d="M311.62,-510.75C311.62,-510.75 236.38,-510.75 236.38,-510.75 230.38,-510.75 224.38,-504.75 224.38,-498.75 224.38,-498.75 224.38,-469.75 224.38,-469.75 224.38,-463.75 230.38,-457.75 236.38,-457.75 236.38,-457.75 311.62,-457.75 311.62,-457.75 317.62,-457.75 323.62,-463.75 323.62,-469.75 323.62,-469.75 323.62,-498.75 323.62,-498.75 323.62,-504.75 317.62,-510.75 311.62,-510.75"/>
<text xml:space="preserve" text-anchor="middle" x="274" y="-497.25" font-family="Helvetica,sans-Serif" font-size="10.00" fill="#1a1a2e">Trans&#45;Newtonian</text>
<text xml:space="preserve" text-anchor="middle" x="274" y="-486" font-family="Helvetica,sans-Serif" font-size="10.00" fill="#1a1a2e">Technology</text>
<text xml:space="preserve" text-anchor="middle" x="274" y="-474.75" font-family="Helvetica,sans-Serif" font-size="10.00" fill="#1a1a2e">5,000 RP</text>
<text xml:space="preserve" text-anchor="middle" x="274" y="-463.5" font-family="Helvetica,sans-Serif" font-size="10.00" fill="#1a1a2e">(Required by Most)</text>
</g>
<!-- tn_tech&#45;&gt;cat1 -->
<g id="edge10" class="edge">
<title>tn_tech&#45;&gt;cat1</title>
<path fill="none" stroke="#95d5b2" stroke-dasharray="5,2" d="M298.71,-457.31C311.68,-443.61 327.79,-426.48 342,-411 349.07,-403.3 356.7,-394.83 363.55,-387.18"/>
<polygon fill="#95d5b2" stroke="#95d5b2" points="365.33,-389.38 368.57,-381.55 361.15,-385.66 365.33,-389.38"/>
<text xml:space="preserve" text-anchor="middle" x="357.22" y="-420.2" font-family="Helvetica,sans-Serif" font-size="9.00" fill="#888888">prerequisite</text>
</g>
<!-- tn_tech&#45;&gt;cat2 -->
<g id="edge11" class="edge">
<title>tn_tech&#45;&gt;cat2</title>
<path fill="none" stroke="#95d5b2" stroke-dasharray="5,2" d="M323.79,-465.26C358.18,-452.05 404.49,-432.68 443,-411 455.87,-403.76 469.25,-394.55 480.63,-386.15"/>
<polygon fill="#95d5b2" stroke="#95d5b2" points="482.24,-388.44 486.96,-381.4 478.88,-383.96 482.24,-388.44"/>
</g>
<!-- tn_tech&#45;&gt;cat3 -->
<g id="edge12" class="edge">
<title>tn_tech&#45;&gt;cat3</title>
<path fill="none" stroke="#95d5b2" stroke-dasharray="5,2" d="M323.88,-465.08C331.89,-462.45 340.14,-459.9 348,-457.75 447.78,-430.45 482.71,-455.69 576,-411 588.71,-404.91 601,-395.44 610.98,-386.51"/>
<polygon fill="#95d5b2" stroke="#95d5b2" points="612.74,-388.69 616.69,-381.19 608.93,-384.59 612.74,-388.69"/>
</g>
<!-- em_sensor -->
<g id="node20" class="node">
<title>em_sensor</title>
<path fill="#ffe66d" stroke="#4ecdc4" d="M68.38,-505.12C68.38,-505.12 27.62,-505.12 27.62,-505.12 21.63,-505.12 15.62,-499.12 15.62,-493.12 15.62,-493.12 15.62,-475.38 15.62,-475.38 15.62,-469.38 21.62,-463.38 27.62,-463.38 27.62,-463.38 68.38,-463.38 68.38,-463.38 74.38,-463.38 80.38,-469.38 80.38,-475.38 80.38,-475.38 80.38,-493.12 80.38,-493.12 80.38,-499.12 74.38,-505.12 68.38,-505.12"/>
<text xml:space="preserve" text-anchor="middle" x="48" y="-491.62" font-family="Helvetica,sans-Serif" font-size="10.00" fill="#1a1a2e">EM Sensor</text>
<text xml:space="preserve" text-anchor="middle" x="48" y="-480.38" font-family="Helvetica,sans-Serif" font-size="10.00" fill="#1a1a2e">Sensitivity</text>
<text xml:space="preserve" text-anchor="middle" x="48" y="-469.12" font-family="Helvetica,sans-Serif" font-size="10.00" fill="#1a1a2e">(Sensors)</text>
</g>
<!-- elint -->
<g id="node22" class="node">
<title>elint</title>
<path fill="#2d2d44" stroke="#4ecdc4" d="M121,-380C121,-380 91,-380 91,-380 85,-380 79,-374 79,-368 79,-368 79,-356 79,-356 79,-350 85,-344 91,-344 91,-344 121,-344 121,-344 127,-344 133,-350 133,-356 133,-356 133,-368 133,-368 133,-374 127,-380 121,-380"/>
<text xml:space="preserve" text-anchor="middle" x="106" y="-363.75" font-family="Helvetica,sans-Serif" font-size="10.00" fill="white">ELINT</text>
<text xml:space="preserve" text-anchor="middle" x="106" y="-352.5" font-family="Helvetica,sans-Serif" font-size="10.00" fill="white">Modules</text>
</g>
<!-- em_sensor&#45;&gt;elint -->
<g id="edge13" class="edge">
<title>em_sensor&#45;&gt;elint</title>
<path fill="none" stroke="#ffe66d" d="M57.71,-463.12C67.56,-442.7 82.84,-411.01 93.57,-388.77"/>
<polygon fill="#ffe66d" stroke="#ffe66d" points="95.97,-390.24 96.92,-381.82 90.93,-387.81 95.97,-390.24"/>
<text xml:space="preserve" text-anchor="middle" x="95.61" y="-420.2" font-family="Helvetica,sans-Serif" font-size="9.00" fill="#888888">requires</text>
</g>
<!-- prev_elint -->
<g id="node21" class="node">
<title>prev_elint</title>
<path fill="#2d2d44" stroke="#4ecdc4" d="M169,-505.12C169,-505.12 135,-505.12 135,-505.12 129,-505.12 123,-499.12 123,-493.12 123,-493.12 123,-475.38 123,-475.38 123,-469.38 129,-463.38 135,-463.38 135,-463.38 169,-463.38 169,-463.38 175,-463.38 181,-469.38 181,-475.38 181,-475.38 181,-493.12 181,-493.12 181,-499.12 175,-505.12 169,-505.12"/>
<text xml:space="preserve" text-anchor="middle" x="152" y="-491.62" font-family="Helvetica,sans-Serif" font-size="10.00" fill="white">Previous</text>
<text xml:space="preserve" text-anchor="middle" x="152" y="-480.38" font-family="Helvetica,sans-Serif" font-size="10.00" fill="white">ELINT</text>
<text xml:space="preserve" text-anchor="middle" x="152" y="-469.12" font-family="Helvetica,sans-Serif" font-size="10.00" fill="white">(Sensors)</text>
</g>
<!-- prev_elint&#45;&gt;elint -->
<g id="edge14" class="edge">
<title>prev_elint&#45;&gt;elint</title>
<path fill="none" stroke="#4ecdc4" d="M144.3,-463.12C136.52,-442.79 124.47,-411.29 115.97,-389.06"/>
<polygon fill="#4ecdc4" stroke="#4ecdc4" points="118.69,-388.34 113.22,-381.87 113.46,-390.34 118.69,-388.34"/>
<text xml:space="preserve" text-anchor="middle" x="147.25" y="-420.2" font-family="Helvetica,sans-Serif" font-size="9.00" fill="#888888">requires</text>
</g>
<!-- leg1 -->
<g id="node23" class="node">
<title>leg1</title>
<polygon fill="#2d2d44" stroke="#4ecdc4" points="563.75,-502.25 366.25,-502.25 366.25,-466.25 563.75,-466.25 563.75,-502.25"/>
<text xml:space="preserve" text-anchor="middle" x="465" y="-480.38" font-family="Helvetica,sans-Serif" font-size="10.00" fill="#ff6b6b">Red: Combat&#45;related (Weapons, Engines)</text>
</g>
<!-- leg2 -->
<g id="node24" class="node">
<title>leg2</title>
<polygon fill="#2d2d44" stroke="#4ecdc4" points="765.62,-502.25 606.38,-502.25 606.38,-466.25 765.62,-466.25 765.62,-502.25"/>
<text xml:space="preserve" text-anchor="middle" x="686" y="-480.38" font-family="Helvetica,sans-Serif" font-size="10.00" fill="#ffe66d">Yellow: Sensors and Fire Control</text>
</g>
<!-- leg3 -->
<g id="node25" class="node">
<title>leg3</title>
<polygon fill="#2d2d44" stroke="#4ecdc4" points="1007.5,-502.25 808.5,-502.25 808.5,-466.25 1007.5,-466.25 1007.5,-502.25"/>
<text xml:space="preserve" text-anchor="middle" x="908" y="-480.38" font-family="Helvetica,sans-Serif" font-size="10.00" fill="#95d5b2">Green: Economy (Construction, Logistics)</text>
</g>
<!-- leg4 -->
<g id="node26" class="node">
<title>leg4</title>
<polygon fill="#2d2d44" stroke="#4ecdc4" points="1181.75,-502.25 1050.25,-502.25 1050.25,-466.25 1181.75,-466.25 1181.75,-502.25"/>
<text xml:space="preserve" text-anchor="middle" x="1116" y="-480.38" font-family="Helvetica,sans-Serif" font-size="10.00" fill="#4ecdc4">Cyan: Defensive Systems</text>
</g>
<!-- leg5 -->
<g id="node27" class="node">
<title>leg5</title>
<polygon fill="#2d2d44" stroke="#4ecdc4" points="1397.38,-502.25 1224.62,-502.25 1224.62,-466.25 1397.38,-466.25 1397.38,-502.25"/>
<text xml:space="preserve" text-anchor="middle" x="1311" y="-480.38" font-family="Helvetica,sans-Serif" font-size="10.00" fill="#9b59b6">Purple: Biology and Ground Combat</text>
</g>
</g>
</svg>
