<?xml version="1.0" encoding="UTF-8" standalone="no"?>
<!DOCTYPE svg PUBLIC "-//W3C//DTD SVG 1.1//EN"
 "http://www.w3.org/Graphics/SVG/1.1/DTD/svg11.dtd">
<!-- Generated by graphviz version 14.1.2 (20260124.0452)
 -->
<!-- Title: TechTreeStructure Pages: 1 -->
<svg width="1368pt" height="1057pt"
 viewBox="0.00 0.00 1368.00 1057.00" xmlns="http://www.w3.org/2000/svg" xmlns:xlink="http://www.w3.org/1999/xlink">
<g id="graph0" class="graph" transform="scale(1 1) rotate(0) translate(4 1052.5)">
<title>TechTreeStructure</title>
<polygon fill="#1a1a2e" stroke="none" points="-4,4 -4,-1052.5 1364,-1052.5 1364,4 -4,4"/>
<text xml:space="preserve" text-anchor="middle" x="680" y="-1031.2" font-family="Helvetica,sans-Serif" font-size="14.00" fill="white">Figure 7.1.1: Aurora Research Categories and Sample Tech Chains</text>
<g id="clust1" class="cluster">
<title>cluster_categories</title>
<polygon fill="#1a1a2e" stroke="#4ecdc4" stroke-dasharray="5,2" points="340,-812.5 340,-887.5 1351,-887.5 1351,-812.5 340,-812.5"/>
<text xml:space="preserve" text-anchor="middle" x="845.5" y="-870.2" font-family="Helvetica,sans-Serif" font-size="14.00" fill="#888888">Nine Research Categories</text>
</g>
<g id="clust2" class="cluster">
<title>cluster_engines</title>
<polygon fill="#1a1a2e" stroke="#ff6b6b" stroke-dasharray="5,2" points="89,-8 89,-782.5 393,-782.5 393,-8 89,-8"/>
<text xml:space="preserve" text-anchor="middle" x="241" y="-765.2" font-family="Helvetica,sans-Serif" font-size="14.00" fill="#888888">Engine Technology Line (Power and Propulsion)</text>
</g>
<g id="clust3" class="cluster">
<title>cluster_weapons</title>
<polygon fill="#1a1a2e" stroke="#ffe66d" stroke-dasharray="5,2" points="410,-603.88 410,-779.62 894,-779.62 894,-603.88 410,-603.88"/>
<text xml:space="preserve" text-anchor="middle" x="652" y="-762.33" font-family="Helvetica,sans-Serif" font-size="14.00" fill="#888888">Weapon Branching (Direct Fire Weapons)</text>
</g>
<g id="clust4" class="cluster">
<title>cluster_cross</title>
<polygon fill="#1a1a2e" stroke="#95d5b2" stroke-dasharray="5,2" points="8,-812.5 8,-1017.5 332,-1017.5 332,-812.5 8,-812.5"/>
<text xml:space="preserve" text-anchor="middle" x="170" y="-1000.2" font-family="Helvetica,sans-Serif" font-size="14.00" fill="#888888">Cross&#45;Category Dependencies</text>
</g>
<g id="clust5" class="cluster">
<title>cluster_legend</title>
<polygon fill="#1a1a2e" stroke="#666666" stroke-dasharray="5,2" points="358,-934 358,-1009 1352,-1009 1352,-934 358,-934"/>
<text xml:space="preserve" text-anchor="middle" x="855" y="-991.7" font-family="Helvetica,sans-Serif" font-size="14.00" fill="#888888">Legend</text>
</g>
<!-- cat1 -->
<g id="node1" class="node">
<title>cat1</title>
<path fill="#ff6b6b" stroke="#4ecdc4" d="M409.88,-856.5C409.88,-856.5 360.12,-856.5 360.12,-856.5 354.12,-856.5 348.12,-850.5 348.12,-844.5 348.12,-844.5 348.12,-832.5 348.12,-832.5 348.12,-826.5 354.12,-820.5 360.12,-820.5 360.12,-820.5 409.88,-820.5 409.88,-820.5 415.88,-820.5 421.88,-826.5 421.88,-832.5 421.88,-832.5 421.88,-844.5 421.88,-844.5 421.88,-850.5 415.88,-856.5 409.88,-856.5"/>
<text xml:space="preserve" text-anchor="middle" x="385" y="-840.25" font-family="Helvetica,sans-Serif" font-size="10.00" fill="white">1. Power and</text>
<text xml:space="preserve" text-anchor="middle" x="385" y="-829" font-family="Helvetica,sans-Serif" font-size="10.00" fill="white">Propulsion</text>
</g>
<!-- conv_eng -->
<g id="node10" class="node">
<title>conv_eng</title>
<path fill="#2d2d44" stroke="#4ecdc4" d="M369.5,-751.5C369.5,-751.5 320.5,-751.5 320.5,-751.5 314.5,-751.5 308.5,-745.5 308.5,-739.5 308.5,-739.5 308.5,-721.75 308.5,-721.75 308.5,-715.75 314.5,-709.75 320.5,-709.75 320.5,-709.75 369.5,-709.75 369.5,-709.75 375.5,-709.75 381.5,-715.75 381.5,-721.75 381.5,-721.75 381.5,-739.5 381.5,-739.5 381.5,-745.5 375.5,-751.5 369.5,-751.5"/>
<text xml:space="preserve" text-anchor="middle" x="345" y="-738" font-family="Helvetica,sans-Serif" font-size="10.00" fill="white">Conventional</text>
<text xml:space="preserve" text-anchor="middle" x="345" y="-726.75" font-family="Helvetica,sans-Serif" font-size="10.00" fill="white">Engine</text>
<text xml:space="preserve" text-anchor="middle" x="345" y="-715.5" font-family="Helvetica,sans-Serif" font-size="10.00" fill="white">500 RP</text>
</g>
<!-- cat1&#45;&gt;conv_eng -->
<g id="edge18" class="edge">
<title>cat1&#45;&gt;conv_eng</title>
<path fill="none" stroke="#888888" stroke-dasharray="1,5" d="M378.39,-820.02C375.25,-811.7 371.29,-801.21 367.21,-790.4"/>
<polygon fill="#888888" stroke="#888888" points="369.52,-789.6 364.76,-783.91 364.94,-791.33 369.52,-789.6"/>
</g>
<!-- cat2 -->
<g id="node2" class="node">
<title>cat2</title>
<path fill="#ffe66d" stroke="#4ecdc4" d="M542.75,-856.5C542.75,-856.5 477.25,-856.5 477.25,-856.5 471.25,-856.5 465.25,-850.5 465.25,-844.5 465.25,-844.5 465.25,-832.5 465.25,-832.5 465.25,-826.5 471.25,-820.5 477.25,-820.5 477.25,-820.5 542.75,-820.5 542.75,-820.5 548.75,-820.5 554.75,-826.5 554.75,-832.5 554.75,-832.5 554.75,-844.5 554.75,-844.5 554.75,-850.5 548.75,-856.5 542.75,-856.5"/>
<text xml:space="preserve" text-anchor="middle" x="510" y="-840.25" font-family="Helvetica,sans-Serif" font-size="10.00" fill="#1a1a2e">2. Sensors and</text>
<text xml:space="preserve" text-anchor="middle" x="510" y="-829" font-family="Helvetica,sans-Serif" font-size="10.00" fill="#1a1a2e">Control Systems</text>
</g>
<!-- cat3 -->
<g id="node3" class="node">
<title>cat3</title>
<path fill="#ff6b6b" stroke="#4ecdc4" d="M658.5,-856.5C658.5,-856.5 609.5,-856.5 609.5,-856.5 603.5,-856.5 597.5,-850.5 597.5,-844.5 597.5,-844.5 597.5,-832.5 597.5,-832.5 597.5,-826.5 603.5,-820.5 609.5,-820.5 609.5,-820.5 658.5,-820.5 658.5,-820.5 664.5,-820.5 670.5,-826.5 670.5,-832.5 670.5,-832.5 670.5,-844.5 670.5,-844.5 670.5,-850.5 664.5,-856.5 658.5,-856.5"/>
<text xml:space="preserve" text-anchor="middle" x="634" y="-840.25" font-family="Helvetica,sans-Serif" font-size="10.00" fill="white">3. Direct Fire</text>
<text xml:space="preserve" text-anchor="middle" x="634" y="-829" font-family="Helvetica,sans-Serif" font-size="10.00" fill="white">Weapons</text>
</g>
<!-- base_weapon -->
<g id="node18" class="node">
<title>base_weapon</title>
<path fill="#2d2d44" stroke="#4ecdc4" d="M675.38,-748.62C675.38,-748.62 622.62,-748.62 622.62,-748.62 616.62,-748.62 610.62,-742.62 610.62,-736.62 610.62,-736.62 610.62,-724.62 610.62,-724.62 610.62,-718.62 616.62,-712.62 622.62,-712.62 622.62,-712.62 675.38,-712.62 675.38,-712.62 681.38,-712.62 687.38,-718.62 687.38,-724.62 687.38,-724.62 687.38,-736.62 687.38,-736.62 687.38,-742.62 681.38,-748.62 675.38,-748.62"/>
<text xml:space="preserve" text-anchor="middle" x="649" y="-732.38" font-family="Helvetica,sans-Serif" font-size="10.00" fill="white">Base Weapon</text>
<text xml:space="preserve" text-anchor="middle" x="649" y="-721.12" font-family="Helvetica,sans-Serif" font-size="10.00" fill="white">Technology</text>
</g>
<!-- cat3&#45;&gt;base_weapon -->
<g id="edge19" class="edge">
<title>cat3&#45;&gt;base_weapon</title>
<path fill="none" stroke="#888888" stroke-dasharray="1,5" d="M636.48,-820.02C637.75,-811.02 639.39,-799.49 641.05,-787.75"/>
<polygon fill="#888888" stroke="#888888" points="643.43,-788.39 641.99,-781.12 638.58,-787.71 643.43,-788.39"/>
</g>
<!-- cat4 -->
<g id="node4" class="node">
<title>cat4</title>
<path fill="#ff6b6b" stroke="#4ecdc4" d="M764.62,-856.5C764.62,-856.5 725.38,-856.5 725.38,-856.5 719.38,-856.5 713.38,-850.5 713.38,-844.5 713.38,-844.5 713.38,-832.5 713.38,-832.5 713.38,-826.5 719.38,-820.5 725.38,-820.5 725.38,-820.5 764.62,-820.5 764.62,-820.5 770.62,-820.5 776.62,-826.5 776.62,-832.5 776.62,-832.5 776.62,-844.5 776.62,-844.5 776.62,-850.5 770.62,-856.5 764.62,-856.5"/>
<text xml:space="preserve" text-anchor="middle" x="745" y="-834.62" font-family="Helvetica,sans-Serif" font-size="10.00" fill="white">4. Missiles</text>
</g>
<!-- cat5 -->
<g id="node5" class="node">
<title>cat5</title>
<path fill="#95d5b2" stroke="#4ecdc4" d="M896.38,-856.5C896.38,-856.5 831.62,-856.5 831.62,-856.5 825.62,-856.5 819.62,-850.5 819.62,-844.5 819.62,-844.5 819.62,-832.5 819.62,-832.5 819.62,-826.5 825.62,-820.5 831.62,-820.5 831.62,-820.5 896.38,-820.5 896.38,-820.5 902.38,-820.5 908.38,-826.5 908.38,-832.5 908.38,-832.5 908.38,-844.5 908.38,-844.5 908.38,-850.5 902.38,-856.5 896.38,-856.5"/>
<text xml:space="preserve" text-anchor="middle" x="864" y="-840.25" font-family="Helvetica,sans-Serif" font-size="10.00" fill="#1a1a2e">5. Construction /</text>
<text xml:space="preserve" text-anchor="middle" x="864" y="-829" font-family="Helvetica,sans-Serif" font-size="10.00" fill="#1a1a2e">Production</text>
</g>
<!-- cat6 -->
<g id="node6" class="node">
<title>cat6</title>
<path fill="#95d5b2" stroke="#4ecdc4" d="M1006.12,-856.5C1006.12,-856.5 963.88,-856.5 963.88,-856.5 957.88,-856.5 951.88,-850.5 951.88,-844.5 951.88,-844.5 951.88,-832.5 951.88,-832.5 951.88,-826.5 957.88,-820.5 963.88,-820.5 963.88,-820.5 1006.12,-820.5 1006.12,-820.5 1012.12,-820.5 1018.12,-826.5 1018.12,-832.5 1018.12,-832.5 1018.12,-844.5 1018.12,-844.5 1018.12,-850.5 1012.12,-856.5 1006.12,-856.5"/>
<text xml:space="preserve" text-anchor="middle" x="985" y="-834.62" font-family="Helvetica,sans-Serif" font-size="10.00" fill="#1a1a2e">6. Logistics</text>
</g>
<!-- cat7 -->
<g id="node7" class="node">
<title>cat7</title>
<path fill="#4ecdc4" stroke="#4ecdc4" d="M1120.75,-856.5C1120.75,-856.5 1073.25,-856.5 1073.25,-856.5 1067.25,-856.5 1061.25,-850.5 1061.25,-844.5 1061.25,-844.5 1061.25,-832.5 1061.25,-832.5 1061.25,-826.5 1067.25,-820.5 1073.25,-820.5 1073.25,-820.5 1120.75,-820.5 1120.75,-820.5 1126.75,-820.5 1132.75,-826.5 1132.75,-832.5 1132.75,-832.5 1132.75,-844.5 1132.75,-844.5 1132.75,-850.5 1126.75,-856.5 1120.75,-856.5"/>
<text xml:space="preserve" text-anchor="middle" x="1097" y="-840.25" font-family="Helvetica,sans-Serif" font-size="10.00" fill="#1a1a2e">7. Defensive</text>
<text xml:space="preserve" text-anchor="middle" x="1097" y="-829" font-family="Helvetica,sans-Serif" font-size="10.00" fill="#1a1a2e">Systems</text>
</g>
<!-- cat8 -->
<g id="node8" class="node">
<title>cat8</title>
<path fill="#9b59b6" stroke="#4ecdc4" d="M1229.75,-856.5C1229.75,-856.5 1188.25,-856.5 1188.25,-856.5 1182.25,-856.5 1176.25,-850.5 1176.25,-844.5 1176.25,-844.5 1176.25,-832.5 1176.25,-832.5 1176.25,-826.5 1182.25,-820.5 1188.25,-820.5 1188.25,-820.5 1229.75,-820.5 1229.75,-820.5 1235.75,-820.5 1241.75,-826.5 1241.75,-832.5 1241.75,-832.5 1241.75,-844.5 1241.75,-844.5 1241.75,-850.5 1235.75,-856.5 1229.75,-856.5"/>
<text xml:space="preserve" text-anchor="middle" x="1209" y="-840.25" font-family="Helvetica,sans-Serif" font-size="10.00" fill="white">8. Biology /</text>
<text xml:space="preserve" text-anchor="middle" x="1209" y="-829" font-family="Helvetica,sans-Serif" font-size="10.00" fill="white">Genetics</text>
</g>
<!-- cat9 -->
<g id="node9" class="node">
<title>cat9</title>
<path fill="#9b59b6" stroke="#4ecdc4" d="M1331.38,-856.5C1331.38,-856.5 1296.62,-856.5 1296.62,-856.5 1290.62,-856.5 1284.62,-850.5 1284.62,-844.5 1284.62,-844.5 1284.62,-832.5 1284.62,-832.5 1284.62,-826.5 1290.62,-820.5 1296.62,-820.5 1296.62,-820.5 1331.38,-820.5 1331.38,-820.5 1337.38,-820.5 1343.38,-826.5 1343.38,-832.5 1343.38,-832.5 1343.38,-844.5 1343.38,-844.5 1343.38,-850.5 1337.38,-856.5 1331.38,-856.5"/>
<text xml:space="preserve" text-anchor="middle" x="1314" y="-840.25" font-family="Helvetica,sans-Serif" font-size="10.00" fill="white">9. Ground</text>
<text xml:space="preserve" text-anchor="middle" x="1314" y="-829" font-family="Helvetica,sans-Serif" font-size="10.00" fill="white">Combat</text>
</g>
<!-- nuc_radio -->
<g id="node11" class="node">
<title>nuc_radio</title>
<path fill="#2d2d44" stroke="#4ecdc4" d="M362.5,-650.75C362.5,-650.75 313.5,-650.75 313.5,-650.75 307.5,-650.75 301.5,-644.75 301.5,-638.75 301.5,-638.75 301.5,-621 301.5,-621 301.5,-615 307.5,-609 313.5,-609 313.5,-609 362.5,-609 362.5,-609 368.5,-609 374.5,-615 374.5,-621 374.5,-621 374.5,-638.75 374.5,-638.75 374.5,-644.75 368.5,-650.75 362.5,-650.75"/>
<text xml:space="preserve" text-anchor="middle" x="338" y="-637.25" font-family="Helvetica,sans-Serif" font-size="10.00" fill="white">Nuclear</text>
<text xml:space="preserve" text-anchor="middle" x="338" y="-626" font-family="Helvetica,sans-Serif" font-size="10.00" fill="white">Radioisotope</text>
<text xml:space="preserve" text-anchor="middle" x="338" y="-614.75" font-family="Helvetica,sans-Serif" font-size="10.00" fill="white">1,000 RP</text>
</g>
<!-- conv_eng&#45;&gt;nuc_radio -->
<g id="edge1" class="edge">
<title>conv_eng&#45;&gt;nuc_radio</title>
<path fill="none" stroke="#ff6b6b" d="M343.58,-709.64C342.56,-695.15 341.15,-675.34 340.01,-659.22"/>
<polygon fill="#ff6b6b" stroke="#ff6b6b" points="342.48,-659.49 339.55,-652.68 337.6,-659.83 342.48,-659.49"/>
</g>
<!-- nuc_therm -->
<g id="node12" class="node">
<title>nuc_therm</title>
<path fill="#2d2d44" stroke="#4ecdc4" d="M354.62,-550C354.62,-550 321.38,-550 321.38,-550 315.38,-550 309.38,-544 309.38,-538 309.38,-538 309.38,-520.25 309.38,-520.25 309.38,-514.25 315.38,-508.25 321.38,-508.25 321.38,-508.25 354.62,-508.25 354.62,-508.25 360.62,-508.25 366.62,-514.25 366.62,-520.25 366.62,-520.25 366.62,-538 366.62,-538 366.62,-544 360.62,-550 354.62,-550"/>
<text xml:space="preserve" text-anchor="middle" x="338" y="-536.5" font-family="Helvetica,sans-Serif" font-size="10.00" fill="white">Nuclear</text>
<text xml:space="preserve" text-anchor="middle" x="338" y="-525.25" font-family="Helvetica,sans-Serif" font-size="10.00" fill="white">Thermal</text>
<text xml:space="preserve" text-anchor="middle" x="338" y="-514" font-family="Helvetica,sans-Serif" font-size="10.00" fill="white">2,000 RP</text>
</g>
<!-- nuc_radio&#45;&gt;nuc_therm -->
<g id="edge2" class="edge">
<title>nuc_radio&#45;&gt;nuc_therm</title>
<path fill="none" stroke="#ff6b6b" d="M338,-608.89C338,-594.53 338,-574.95 338,-558.91"/>
<polygon fill="#ff6b6b" stroke="#ff6b6b" points="340.45,-558.93 338,-551.93 335.55,-558.93 340.45,-558.93"/>
</g>
<!-- nuc_pulse -->
<g id="node13" class="node">
<title>nuc_pulse</title>
<path fill="#2d2d44" stroke="#4ecdc4" d="M354.62,-449.25C354.62,-449.25 321.38,-449.25 321.38,-449.25 315.38,-449.25 309.38,-443.25 309.38,-437.25 309.38,-437.25 309.38,-419.5 309.38,-419.5 309.38,-413.5 315.38,-407.5 321.38,-407.5 321.38,-407.5 354.62,-407.5 354.62,-407.5 360.62,-407.5 366.62,-413.5 366.62,-419.5 366.62,-419.5 366.62,-437.25 366.62,-437.25 366.62,-443.25 360.62,-449.25 354.62,-449.25"/>
<text xml:space="preserve" text-anchor="middle" x="338" y="-435.75" font-family="Helvetica,sans-Serif" font-size="10.00" fill="white">Nuclear</text>
<text xml:space="preserve" text-anchor="middle" x="338" y="-424.5" font-family="Helvetica,sans-Serif" font-size="10.00" fill="white">Pulse</text>
<text xml:space="preserve" text-anchor="middle" x="338" y="-413.25" font-family="Helvetica,sans-Serif" font-size="10.00" fill="white">4,000 RP</text>
</g>
<!-- nuc_therm&#45;&gt;nuc_pulse -->
<g id="edge3" class="edge">
<title>nuc_therm&#45;&gt;nuc_pulse</title>
<path fill="none" stroke="#ff6b6b" d="M338,-508.14C338,-493.78 338,-474.2 338,-458.16"/>
<polygon fill="#ff6b6b" stroke="#ff6b6b" points="340.45,-458.18 338,-451.18 335.55,-458.18 340.45,-458.18"/>
</g>
<!-- nuc_gas -->
<g id="node14" class="node">
<title>nuc_gas</title>
<path fill="#2d2d44" stroke="#4ecdc4" d="M355,-348.5C355,-348.5 321,-348.5 321,-348.5 315,-348.5 309,-342.5 309,-336.5 309,-336.5 309,-318.75 309,-318.75 309,-312.75 315,-306.75 321,-306.75 321,-306.75 355,-306.75 355,-306.75 361,-306.75 367,-312.75 367,-318.75 367,-318.75 367,-336.5 367,-336.5 367,-342.5 361,-348.5 355,-348.5"/>
<text xml:space="preserve" text-anchor="middle" x="338" y="-335" font-family="Helvetica,sans-Serif" font-size="10.00" fill="white">Nuclear</text>
<text xml:space="preserve" text-anchor="middle" x="338" y="-323.75" font-family="Helvetica,sans-Serif" font-size="10.00" fill="white">Gas&#45;Core</text>
<text xml:space="preserve" text-anchor="middle" x="338" y="-312.5" font-family="Helvetica,sans-Serif" font-size="10.00" fill="white">6,000 RP</text>
</g>
<!-- nuc_pulse&#45;&gt;nuc_gas -->
<g id="edge4" class="edge">
<title>nuc_pulse&#45;&gt;nuc_gas</title>
<path fill="none" stroke="#ff6b6b" d="M338,-407.39C338,-393.03 338,-373.45 338,-357.41"/>
<polygon fill="#ff6b6b" stroke="#ff6b6b" points="340.45,-357.43 338,-350.43 335.55,-357.43 340.45,-357.43"/>
</g>
<!-- ion -->
<g id="node15" class="node">
<title>ion</title>
<path fill="#2d2d44" stroke="#4ecdc4" d="M357.25,-247.75C357.25,-247.75 318.75,-247.75 318.75,-247.75 312.75,-247.75 306.75,-241.75 306.75,-235.75 306.75,-235.75 306.75,-223.75 306.75,-223.75 306.75,-217.75 312.75,-211.75 318.75,-211.75 318.75,-211.75 357.25,-211.75 357.25,-211.75 363.25,-211.75 369.25,-217.75 369.25,-223.75 369.25,-223.75 369.25,-235.75 369.25,-235.75 369.25,-241.75 363.25,-247.75 357.25,-247.75"/>
<text xml:space="preserve" text-anchor="middle" x="338" y="-231.5" font-family="Helvetica,sans-Serif" font-size="10.00" fill="white">Ion Drive</text>
<text xml:space="preserve" text-anchor="middle" x="338" y="-220.25" font-family="Helvetica,sans-Serif" font-size="10.00" fill="white">10,000 RP</text>
</g>
<!-- nuc_gas&#45;&gt;ion -->
<g id="edge5" class="edge">
<title>nuc_gas&#45;&gt;ion</title>
<path fill="none" stroke="#ff6b6b" d="M338,-306.29C338,-291.73 338,-272.01 338,-256.37"/>
<polygon fill="#ff6b6b" stroke="#ff6b6b" points="340.45,-256.67 338,-249.67 335.55,-256.67 340.45,-256.67"/>
</g>
<!-- dots1 -->
<g id="node16" class="node">
<title>dots1</title>
<path fill="#2d2d44" stroke="none" d="M353,-152.75C353,-152.75 323,-152.75 323,-152.75 317,-152.75 311,-146.75 311,-140.75 311,-140.75 311,-128.75 311,-128.75 311,-122.75 317,-116.75 323,-116.75 323,-116.75 353,-116.75 353,-116.75 359,-116.75 365,-122.75 365,-128.75 365,-128.75 365,-140.75 365,-140.75 365,-146.75 359,-152.75 353,-152.75"/>
<text xml:space="preserve" text-anchor="middle" x="338" y="-130.88" font-family="Helvetica,sans-Serif" font-size="10.00" fill="#888888">...</text>
</g>
<!-- ion&#45;&gt;dots1 -->
<g id="edge6" class="edge">
<title>ion&#45;&gt;dots1</title>
<path fill="none" stroke="#ff6b6b" d="M338,-211.26C338,-197.05 338,-176.83 338,-160.89"/>
<polygon fill="#ff6b6b" stroke="#ff6b6b" points="340.45,-161.05 338,-154.05 335.55,-161.05 340.45,-161.05"/>
</g>
<!-- quantum -->
<g id="node17" class="node">
<title>quantum</title>
<path fill="#ff6b6b" stroke="#4ecdc4" d="M364,-57.75C364,-57.75 312,-57.75 312,-57.75 306,-57.75 300,-51.75 300,-45.75 300,-45.75 300,-28 300,-28 300,-22 306,-16 312,-16 312,-16 364,-16 364,-16 370,-16 376,-22 376,-28 376,-28 376,-45.75 376,-45.75 376,-51.75 370,-57.75 364,-57.75"/>
<text xml:space="preserve" text-anchor="middle" x="338" y="-44.25" font-family="Helvetica,sans-Serif" font-size="10.00" fill="white">Quantum</text>
<text xml:space="preserve" text-anchor="middle" x="338" y="-33" font-family="Helvetica,sans-Serif" font-size="10.00" fill="white">Singularity</text>
<text xml:space="preserve" text-anchor="middle" x="338" y="-21.75" font-family="Helvetica,sans-Serif" font-size="10.00" fill="white">5,000,000 RP</text>
</g>
<!-- dots1&#45;&gt;quantum -->
<g id="edge7" class="edge">
<title>dots1&#45;&gt;quantum</title>
<path fill="none" stroke="#ff6b6b" d="M338,-117.05C338,-103.07 338,-82.81 338,-66.29"/>
<polygon fill="#ff6b6b" stroke="#ff6b6b" points="340.45,-66.55 338,-59.55 335.55,-66.55 340.45,-66.55"/>
</g>
<!-- laser_branch -->
<g id="node19" class="node">
<title>laser_branch</title>
<path fill="#ffe66d" stroke="#4ecdc4" d="M474.25,-647.88C474.25,-647.88 429.75,-647.88 429.75,-647.88 423.75,-647.88 417.75,-641.88 417.75,-635.88 417.75,-635.88 417.75,-623.88 417.75,-623.88 417.75,-617.88 423.75,-611.88 429.75,-611.88 429.75,-611.88 474.25,-611.88 474.25,-611.88 480.25,-611.88 486.25,-617.88 486.25,-623.88 486.25,-623.88 486.25,-635.88 486.25,-635.88 486.25,-641.88 480.25,-647.88 474.25,-647.88"/>
<text xml:space="preserve" text-anchor="middle" x="452" y="-631.62" font-family="Helvetica,sans-Serif" font-size="10.00" fill="#1a1a2e">Lasers</text>
<text xml:space="preserve" text-anchor="middle" x="452" y="-620.38" font-family="Helvetica,sans-Serif" font-size="10.00" fill="#1a1a2e">(Focal Size)</text>
</g>
<!-- base_weapon&#45;&gt;laser_branch -->
<g id="edge8" class="edge">
<title>base_weapon&#45;&gt;laser_branch</title>
<path fill="none" stroke="#ffe66d" d="M614.23,-712.2C580.72,-695.4 529.95,-669.95 494.15,-652"/>
<polygon fill="#ffe66d" stroke="#ffe66d" points="495.46,-649.92 488.1,-648.97 493.26,-654.3 495.46,-649.92"/>
</g>
<!-- particle_branch -->
<g id="node20" class="node">
<title>particle_branch</title>
<path fill="#ffe66d" stroke="#4ecdc4" d="M571,-647.88C571,-647.88 541,-647.88 541,-647.88 535,-647.88 529,-641.88 529,-635.88 529,-635.88 529,-623.88 529,-623.88 529,-617.88 535,-611.88 541,-611.88 541,-611.88 571,-611.88 571,-611.88 577,-611.88 583,-617.88 583,-623.88 583,-623.88 583,-635.88 583,-635.88 583,-641.88 577,-647.88 571,-647.88"/>
<text xml:space="preserve" text-anchor="middle" x="556" y="-631.62" font-family="Helvetica,sans-Serif" font-size="10.00" fill="#1a1a2e">Particle</text>
<text xml:space="preserve" text-anchor="middle" x="556" y="-620.38" font-family="Helvetica,sans-Serif" font-size="10.00" fill="#1a1a2e">Beams</text>
</g>
<!-- base_weapon&#45;&gt;particle_branch -->
<g id="edge9" class="edge">
<title>base_weapon&#45;&gt;particle_branch</title>
<path fill="none" stroke="#ffe66d" d="M632.8,-712.42C617.56,-696.24 594.62,-671.89 577.78,-654"/>
<polygon fill="#ffe66d" stroke="#ffe66d" points="579.95,-652.73 573.36,-649.31 576.38,-656.09 579.95,-652.73"/>
</g>
<!-- meson_branch -->
<g id="node21" class="node">
<title>meson_branch</title>
<path fill="#ffe66d" stroke="#4ecdc4" d="M668,-647.88C668,-647.88 638,-647.88 638,-647.88 632,-647.88 626,-641.88 626,-635.88 626,-635.88 626,-623.88 626,-623.88 626,-617.88 632,-611.88 638,-611.88 638,-611.88 668,-611.88 668,-611.88 674,-611.88 680,-617.88 680,-623.88 680,-623.88 680,-635.88 680,-635.88 680,-641.88 674,-647.88 668,-647.88"/>
<text xml:space="preserve" text-anchor="middle" x="653" y="-626" font-family="Helvetica,sans-Serif" font-size="10.00" fill="#1a1a2e">Mesons</text>
</g>
<!-- base_weapon&#45;&gt;meson_branch -->
<g id="edge10" class="edge">
<title>base_weapon&#45;&gt;meson_branch</title>
<path fill="none" stroke="#ffe66d" d="M649.7,-712.42C650.32,-696.94 651.25,-673.99 651.97,-656.37"/>
<polygon fill="#ffe66d" stroke="#ffe66d" points="654.4,-656.82 652.24,-649.72 649.51,-656.62 654.4,-656.82"/>
</g>
<!-- railgun_branch -->
<g id="node22" class="node">
<title>railgun_branch</title>
<path fill="#ffe66d" stroke="#4ecdc4" d="M765.12,-647.88C765.12,-647.88 734.88,-647.88 734.88,-647.88 728.88,-647.88 722.88,-641.88 722.88,-635.88 722.88,-635.88 722.88,-623.88 722.88,-623.88 722.88,-617.88 728.88,-611.88 734.88,-611.88 734.88,-611.88 765.12,-611.88 765.12,-611.88 771.12,-611.88 777.12,-617.88 777.12,-623.88 777.12,-623.88 777.12,-635.88 777.12,-635.88 777.12,-641.88 771.12,-647.88 765.12,-647.88"/>
<text xml:space="preserve" text-anchor="middle" x="750" y="-626" font-family="Helvetica,sans-Serif" font-size="10.00" fill="#1a1a2e">Railguns</text>
</g>
<!-- base_weapon&#45;&gt;railgun_branch -->
<g id="edge11" class="edge">
<title>base_weapon&#45;&gt;railgun_branch</title>
<path fill="none" stroke="#ffe66d" d="M666.59,-712.42C683.15,-696.24 708.06,-671.89 726.34,-654"/>
<polygon fill="#ffe66d" stroke="#ffe66d" points="727.9,-655.91 731.19,-649.27 724.47,-652.41 727.9,-655.91"/>
</g>
<!-- plasma_branch -->
<g id="node23" class="node">
<title>plasma_branch</title>
<path fill="#ffe66d" stroke="#4ecdc4" d="M874.12,-647.88C874.12,-647.88 831.88,-647.88 831.88,-647.88 825.88,-647.88 819.88,-641.88 819.88,-635.88 819.88,-635.88 819.88,-623.88 819.88,-623.88 819.88,-617.88 825.88,-611.88 831.88,-611.88 831.88,-611.88 874.12,-611.88 874.12,-611.88 880.12,-611.88 886.12,-617.88 886.12,-623.88 886.12,-623.88 886.12,-635.88 886.12,-635.88 886.12,-641.88 880.12,-647.88 874.12,-647.88"/>
<text xml:space="preserve" text-anchor="middle" x="853" y="-631.62" font-family="Helvetica,sans-Serif" font-size="10.00" fill="#1a1a2e">Plasma</text>
<text xml:space="preserve" text-anchor="middle" x="853" y="-620.38" font-family="Helvetica,sans-Serif" font-size="10.00" fill="#1a1a2e">Carronades</text>
</g>
<!-- base_weapon&#45;&gt;plasma_branch -->
<g id="edge12" class="edge">
<title>base_weapon&#45;&gt;plasma_branch</title>
<path fill="none" stroke="#ffe66d" d="M685,-712.2C720.46,-695.04 774.55,-668.85 811.73,-650.85"/>
<polygon fill="#ffe66d" stroke="#ffe66d" points="812.79,-653.06 818.03,-647.8 810.66,-648.65 812.79,-653.06"/>
</g>
<!-- tn_tech -->
<g id="node24" class="node">
<title>tn_tech</title>
<path fill="#95d5b2" stroke="#4ecdc4" d="M311.62,-986.5C311.62,-986.5 236.38,-986.5 236.38,-986.5 230.38,-986.5 224.38,-980.5 224.38,-974.5 224.38,-974.5 224.38,-945.5 224.38,-945.5 224.38,-939.5 230.38,-933.5 236.38,-933.5 236.38,-933.5 311.62,-933.5 311.62,-933.5 317.62,-933.5 323.62,-939.5 323.62,-945.5 323.62,-945.5 323.62,-974.5 323.62,-974.5 323.62,-980.5 317.62,-986.5 311.62,-986.5"/>
<text xml:space="preserve" text-anchor="middle" x="274" y="-973" font-family="Helvetica,sans-Serif" font-size="10.00" fill="#1a1a2e">Trans&#45;Newtonian</text>
<text xml:space="preserve" text-anchor="middle" x="274" y="-961.75" font-family="Helvetica,sans-Serif" font-size="10.00" fill="#1a1a2e">Technology</text>
<text xml:space="preserve" text-anchor="middle" x="274" y="-950.5" font-family="Helvetica,sans-Serif" font-size="10.00" fill="#1a1a2e">5,000 RP</text>
<text xml:space="preserve" text-anchor="middle" x="274" y="-939.25" font-family="Helvetica,sans-Serif" font-size="10.00" fill="#1a1a2e">(Required by Most)</text>
</g>
<!-- tn_tech&#45;&gt;cat1 -->
<g id="edge13" class="edge">
<title>tn_tech&#45;&gt;cat1</title>
<path fill="none" stroke="#95d5b2" stroke-dasharray="5,2" d="M299.06,-933.03C311.98,-919.54 327.94,-902.73 342,-887.5 349.23,-879.66 357.04,-871.01 363.99,-863.23"/>
<polygon fill="#95d5b2" stroke="#95d5b2" points="365.76,-864.93 368.59,-858.07 362.11,-861.67 365.76,-864.93"/>
<text xml:space="preserve" text-anchor="middle" x="353.87" y="-896.9" font-family="Helvetica,sans-Serif" font-size="8.00" fill="#888888">prerequisite</text>
</g>
<!-- tn_tech&#45;&gt;cat2 -->
<g id="edge14" class="edge">
<title>tn_tech&#45;&gt;cat2</title>
<path fill="none" stroke="#95d5b2" stroke-dasharray="5,2" d="M323.8,-941.28C358.2,-928.23 404.51,-909.08 443,-887.5 456.36,-880.01 470.25,-870.4 481.9,-861.74"/>
<polygon fill="#95d5b2" stroke="#95d5b2" points="483.16,-863.86 487.27,-857.69 480.21,-859.95 483.16,-863.86"/>
</g>
<!-- tn_tech&#45;&gt;cat3 -->
<g id="edge15" class="edge">
<title>tn_tech&#45;&gt;cat3</title>
<path fill="none" stroke="#95d5b2" stroke-dasharray="5,2" d="M323.88,-940.81C331.89,-938.18 340.13,-935.64 348,-933.5 447.75,-906.38 482.7,-932.02 576,-887.5 589.09,-881.25 601.73,-871.4 611.85,-862.25"/>
<polygon fill="#95d5b2" stroke="#95d5b2" points="613.26,-864.28 616.7,-857.71 609.92,-860.7 613.26,-864.28"/>
</g>
<!-- elint -->
<g id="node25" class="node">
<title>elint</title>
<path fill="#2d2d44" stroke="#4ecdc4" d="M122,-856.5C122,-856.5 92,-856.5 92,-856.5 86,-856.5 80,-850.5 80,-844.5 80,-844.5 80,-832.5 80,-832.5 80,-826.5 86,-820.5 92,-820.5 92,-820.5 122,-820.5 122,-820.5 128,-820.5 134,-826.5 134,-832.5 134,-832.5 134,-844.5 134,-844.5 134,-850.5 128,-856.5 122,-856.5"/>
<text xml:space="preserve" text-anchor="middle" x="107" y="-840.25" font-family="Helvetica,sans-Serif" font-size="10.00" fill="white">ELINT</text>
<text xml:space="preserve" text-anchor="middle" x="107" y="-829" font-family="Helvetica,sans-Serif" font-size="10.00" fill="white">Modules</text>
</g>
<!-- em_sensor -->
<g id="node26" class="node">
<title>em_sensor</title>
<path fill="#ffe66d" stroke="#4ecdc4" d="M68.38,-980.88C68.38,-980.88 27.62,-980.88 27.62,-980.88 21.63,-980.88 15.62,-974.88 15.62,-968.88 15.62,-968.88 15.62,-951.12 15.62,-951.12 15.62,-945.12 21.62,-939.12 27.62,-939.12 27.62,-939.12 68.38,-939.12 68.38,-939.12 74.38,-939.12 80.38,-945.12 80.38,-951.12 80.38,-951.12 80.38,-968.88 80.38,-968.88 80.38,-974.88 74.38,-980.88 68.38,-980.88"/>
<text xml:space="preserve" text-anchor="middle" x="48" y="-967.38" font-family="Helvetica,sans-Serif" font-size="10.00" fill="#1a1a2e">EM Sensor</text>
<text xml:space="preserve" text-anchor="middle" x="48" y="-956.12" font-family="Helvetica,sans-Serif" font-size="10.00" fill="#1a1a2e">Sensitivity</text>
<text xml:space="preserve" text-anchor="middle" x="48" y="-944.88" font-family="Helvetica,sans-Serif" font-size="10.00" fill="#1a1a2e">(Sensors)</text>
</g>
<!-- em_sensor&#45;&gt;elint -->
<g id="edge16" class="edge">
<title>em_sensor&#45;&gt;elint</title>
<path fill="none" stroke="#ffe66d" d="M58.01,-938.73C68.18,-918.12 83.96,-886.17 94.85,-864.11"/>
<polygon fill="#ffe66d" stroke="#ffe66d" points="96.9,-865.48 97.81,-858.12 92.51,-863.31 96.9,-865.48"/>
<text xml:space="preserve" text-anchor="middle" x="93.89" y="-896.9" font-family="Helvetica,sans-Serif" font-size="8.00" fill="#888888">requires</text>
</g>
<!-- prev_elint -->
<g id="node27" class="node">
<title>prev_elint</title>
<path fill="#2d2d44" stroke="#4ecdc4" d="M169,-980.88C169,-980.88 135,-980.88 135,-980.88 129,-980.88 123,-974.88 123,-968.88 123,-968.88 123,-951.12 123,-951.12 123,-945.12 129,-939.12 135,-939.12 135,-939.12 169,-939.12 169,-939.12 175,-939.12 181,-945.12 181,-951.12 181,-951.12 181,-968.88 181,-968.88 181,-974.88 175,-980.88 169,-980.88"/>
<text xml:space="preserve" text-anchor="middle" x="152" y="-967.38" font-family="Helvetica,sans-Serif" font-size="10.00" fill="white">Previous</text>
<text xml:space="preserve" text-anchor="middle" x="152" y="-956.12" font-family="Helvetica,sans-Serif" font-size="10.00" fill="white">ELINT</text>
<text xml:space="preserve" text-anchor="middle" x="152" y="-944.88" font-family="Helvetica,sans-Serif" font-size="10.00" fill="white">(Sensors)</text>
</g>
<!-- prev_elint&#45;&gt;elint -->
<g id="edge17" class="edge">
<title>prev_elint&#45;&gt;elint</title>
<path fill="none" stroke="#4ecdc4" d="M144.37,-938.73C136.67,-918.3 124.78,-886.72 116.49,-864.69"/>
<polygon fill="#4ecdc4" stroke="#4ecdc4" points="118.79,-863.87 114.03,-858.18 114.21,-865.59 118.79,-863.87"/>
<text xml:space="preserve" text-anchor="middle" x="145.47" y="-896.9" font-family="Helvetica,sans-Serif" font-size="8.00" fill="#888888">requires</text>
</g>
<!-- leg1 -->
<g id="node28" class="node">
<title>leg1</title>
<path fill="#2d2d44" stroke="none" d="M541.5,-978C541.5,-978 378.5,-978 378.5,-978 372.5,-978 366.5,-972 366.5,-966 366.5,-966 366.5,-954 366.5,-954 366.5,-948 372.5,-942 378.5,-942 378.5,-942 541.5,-942 541.5,-942 547.5,-942 553.5,-948 553.5,-954 553.5,-954 553.5,-966 553.5,-966 553.5,-972 547.5,-978 541.5,-978"/>
<text xml:space="preserve" text-anchor="middle" x="460" y="-956.33" font-family="Helvetica,sans-Serif" font-size="9.00" fill="#ff6b6b">Red: Combat&#45;related (Weapons, Engines)</text>
</g>
<!-- leg2 -->
<g id="node29" class="node">
<title>leg2</title>
<path fill="#2d2d44" stroke="none" d="M733.38,-978C733.38,-978 608.62,-978 608.62,-978 602.62,-978 596.62,-972 596.62,-966 596.62,-966 596.62,-954 596.62,-954 596.62,-948 602.62,-942 608.62,-942 608.62,-942 733.38,-942 733.38,-942 739.38,-942 745.38,-948 745.38,-954 745.38,-954 745.38,-966 745.38,-966 745.38,-972 739.38,-978 733.38,-978"/>
<text xml:space="preserve" text-anchor="middle" x="671" y="-956.33" font-family="Helvetica,sans-Serif" font-size="9.00" fill="#ffe66d">Yellow: Sensors and Fire Control</text>
</g>
<!-- leg3 -->
<g id="node30" class="node">
<title>leg3</title>
<path fill="#2d2d44" stroke="none" d="M961.38,-978C961.38,-978 800.62,-978 800.62,-978 794.62,-978 788.62,-972 788.62,-966 788.62,-966 788.62,-954 788.62,-954 788.62,-948 794.62,-942 800.62,-942 800.62,-942 961.38,-942 961.38,-942 967.38,-942 973.38,-948 973.38,-954 973.38,-954 973.38,-966 973.38,-966 973.38,-972 967.38,-978 961.38,-978"/>
<text xml:space="preserve" text-anchor="middle" x="881" y="-956.33" font-family="Helvetica,sans-Serif" font-size="9.00" fill="#95d5b2">Green: Economy (Construction, Logistics)</text>
</g>
<!-- leg4 -->
<g id="node31" class="node">
<title>leg4</title>
<path fill="#2d2d44" stroke="none" d="M1125.12,-978C1125.12,-978 1028.88,-978 1028.88,-978 1022.88,-978 1016.88,-972 1016.88,-966 1016.88,-966 1016.88,-954 1016.88,-954 1016.88,-948 1022.88,-942 1028.88,-942 1028.88,-942 1125.12,-942 1125.12,-942 1131.12,-942 1137.12,-948 1137.12,-954 1137.12,-954 1137.12,-966 1137.12,-966 1137.12,-972 1131.12,-978 1125.12,-978"/>
<text xml:space="preserve" text-anchor="middle" x="1077" y="-956.33" font-family="Helvetica,sans-Serif" font-size="9.00" fill="#4ecdc4">Cyan: Defensive Systems</text>
</g>
<!-- leg5 -->
<g id="node32" class="node">
<title>leg5</title>
<path fill="#2d2d44" stroke="none" d="M1331.88,-978C1331.88,-978 1192.12,-978 1192.12,-978 1186.12,-978 1180.12,-972 1180.12,-966 1180.12,-966 1180.12,-954 1180.12,-954 1180.12,-948 1186.12,-942 1192.12,-942 1192.12,-942 1331.88,-942 1331.88,-942 1337.88,-942 1343.88,-948 1343.88,-954 1343.88,-954 1343.88,-966 1343.88,-966 1343.88,-972 1337.88,-978 1331.88,-978"/>
<text xml:space="preserve" text-anchor="middle" x="1262" y="-956.33" font-family="Helvetica,sans-Serif" font-size="9.00" fill="#9b59b6">Purple: Biology and Ground Combat</text>
</g>
</g>
</svg>
