<?xml version="1.0" encoding="UTF-8" standalone="no"?>
<!DOCTYPE svg PUBLIC "-//W3C//DTD SVG 1.1//EN"
 "http://www.w3.org/Graphics/SVG/1.1/DTD/svg11.dtd">
<!-- Generated by graphviz version 14.1.2 (20260124.0452)
 -->
<!-- Title: G Pages: 1 -->
<svg width="860pt" height="280pt"
 viewBox="0.00 0.00 860.00 280.00" xmlns="http://www.w3.org/2000/svg" xmlns:xlink="http://www.w3.org/1999/xlink">
<g id="graph0" class="graph" transform="scale(1 1) rotate(0) translate(4 276)">
<title>G</title>
<polygon fill="#1a1a2e" stroke="none" points="-4,4 -4,-276 856.25,-276 856.25,4 -4,4"/>
<g id="clust1" class="cluster">
<title>cluster_legend</title>
<polygon fill="#1a1a2e" stroke="#4ecdc4" stroke-dasharray="5,2" points="8,-8 8,-96 494.38,-96 494.38,-8 8,-8"/>
<text xml:space="preserve" text-anchor="middle" x="251.19" y="-78.7" font-family="Helvetica,sans-Serif" font-size="14.00" fill="white">Sub&#45;Pulse Processing Hierarchy</text>
</g>
<g id="clust2" class="cluster">
<title>cluster_example</title>
<polygon fill="#1a1a2e" stroke="#888888" stroke-dasharray="5,2" points="10.25,-104 10.25,-183 309.38,-183 309.38,-104 10.25,-104"/>
<text xml:space="preserve" text-anchor="middle" x="159.81" y="-167.6" font-family="Helvetica,sans-Serif" font-size="12.00" fill="white">Example: 30&#45;Day Increment</text>
</g>
<g id="clust3" class="cluster">
<title>cluster_combat</title>
<polygon fill="#1a1a2e" stroke="#ff6b6b" stroke-dasharray="5,2" points="20.75,-191 20.75,-264 844.25,-264 844.25,-191 20.75,-191"/>
<text xml:space="preserve" text-anchor="middle" x="432.5" y="-248.6" font-family="Helvetica,sans-Serif" font-size="12.00" fill="white">Combat Processing (if detected)</text>
</g>
<!-- increment -->
<g id="node1" class="node">
<title>increment</title>
<path fill="#3d3d5c" stroke="#4ecdc4" d="M95,-65C95,-65 28,-65 28,-65 22,-65 16,-59 16,-53 16,-53 16,-33 16,-33 16,-27 22,-21 28,-21 28,-21 95,-21 95,-21 101,-21 107,-27 107,-33 107,-33 107,-53 107,-53 107,-59 101,-65 95,-65"/>
<text xml:space="preserve" text-anchor="middle" x="61.5" y="-50.55" font-family="Helvetica,sans-Serif" font-size="11.00" fill="white">Player Selects</text>
<text xml:space="preserve" text-anchor="middle" x="61.5" y="-38.55" font-family="Helvetica,sans-Serif" font-size="11.00" fill="white">Time Increment</text>
<text xml:space="preserve" text-anchor="middle" x="61.5" y="-26.55" font-family="Helvetica,sans-Serif" font-size="11.00" fill="white">(e.g., 30 days)</text>
</g>
<!-- subpulse -->
<g id="node2" class="node">
<title>subpulse</title>
<path fill="#4ecdc4" stroke="#4ecdc4" d="M289.75,-65C289.75,-65 229.5,-65 229.5,-65 223.5,-65 217.5,-59 217.5,-53 217.5,-53 217.5,-33 217.5,-33 217.5,-27 223.5,-21 229.5,-21 229.5,-21 289.75,-21 289.75,-21 295.75,-21 301.75,-27 301.75,-33 301.75,-33 301.75,-53 301.75,-53 301.75,-59 295.75,-65 289.75,-65"/>
<text xml:space="preserve" text-anchor="middle" x="259.62" y="-50.55" font-family="Helvetica,sans-Serif" font-size="11.00">Sub&#45;Pulse</text>
<text xml:space="preserve" text-anchor="middle" x="259.62" y="-38.55" font-family="Helvetica,sans-Serif" font-size="11.00">Processing</text>
<text xml:space="preserve" text-anchor="middle" x="259.62" y="-26.55" font-family="Helvetica,sans-Serif" font-size="11.00">(default 5 sec)</text>
</g>
<!-- increment&#45;&gt;subpulse -->
<g id="edge7" class="edge">
<title>increment&#45;&gt;subpulse</title>
<path fill="none" stroke="#4ecdc4" d="M107.5,-43C137.42,-43 176.78,-43 207.84,-43"/>
<polygon fill="#4ecdc4" stroke="#4ecdc4" points="207.67,-45.8 215.67,-43 207.67,-40.2 207.67,-45.8"/>
<text xml:space="preserve" text-anchor="middle" x="162.25" y="-44.2" font-family="Helvetica,sans-Serif" font-size="9.00" fill="#888888">processed in</text>
</g>
<!-- combat_sub -->
<g id="node3" class="node">
<title>combat_sub</title>
<path fill="#ff6b6b" stroke="#4ecdc4" d="M474.38,-65C474.38,-65 427.62,-65 427.62,-65 421.62,-65 415.62,-59 415.62,-53 415.62,-53 415.62,-33 415.62,-33 415.62,-27 421.62,-21 427.62,-21 427.62,-21 474.38,-21 474.38,-21 480.38,-21 486.38,-27 486.38,-33 486.38,-33 486.38,-53 486.38,-53 486.38,-59 480.38,-65 474.38,-65"/>
<text xml:space="preserve" text-anchor="middle" x="451" y="-50.55" font-family="Helvetica,sans-Serif" font-size="11.00" fill="white">Combat</text>
<text xml:space="preserve" text-anchor="middle" x="451" y="-38.55" font-family="Helvetica,sans-Serif" font-size="11.00" fill="white">Subdivision</text>
<text xml:space="preserve" text-anchor="middle" x="451" y="-26.55" font-family="Helvetica,sans-Serif" font-size="11.00" fill="white">(1 second)</text>
</g>
<!-- subpulse&#45;&gt;combat_sub -->
<g id="edge8" class="edge">
<title>subpulse&#45;&gt;combat_sub</title>
<path fill="none" stroke="#4ecdc4" d="M302.18,-43C332.87,-43 374.56,-43 405.85,-43"/>
<polygon fill="#4ecdc4" stroke="#4ecdc4" points="405.69,-45.8 413.69,-43 405.69,-40.2 405.69,-45.8"/>
<text xml:space="preserve" text-anchor="middle" x="353.25" y="-53.95" font-family="Helvetica,sans-Serif" font-size="9.00" fill="#888888">combat</text>
<text xml:space="preserve" text-anchor="middle" x="353.25" y="-44.2" font-family="Helvetica,sans-Serif" font-size="9.00" fill="#888888">subdivided</text>
</g>
<!-- day30 -->
<g id="node4" class="node">
<title>day30</title>
<path fill="#2d2d44" stroke="#4ecdc4" d="M92.75,-154C92.75,-154 30.25,-154 30.25,-154 24.25,-154 18.25,-148 18.25,-142 18.25,-142 18.25,-130 18.25,-130 18.25,-124 24.25,-118 30.25,-118 30.25,-118 92.75,-118 92.75,-118 98.75,-118 104.75,-124 104.75,-130 104.75,-130 104.75,-142 104.75,-142 104.75,-148 98.75,-154 92.75,-154"/>
<text xml:space="preserve" text-anchor="middle" x="61.5" y="-137.75" font-family="Helvetica,sans-Serif" font-size="10.00" fill="white">30 Days</text>
<text xml:space="preserve" text-anchor="middle" x="61.5" y="-126.5" font-family="Helvetica,sans-Serif" font-size="10.00" fill="white">= 2,592,000 sec</text>
</g>
<!-- pulses -->
<g id="node5" class="node">
<title>pulses</title>
<path fill="#4ecdc4" stroke="#4ecdc4" d="M289.38,-153.88C289.38,-153.88 229.88,-153.88 229.88,-153.88 223.88,-153.88 217.88,-147.88 217.88,-141.88 217.88,-141.88 217.88,-124.12 217.88,-124.12 217.88,-118.12 223.88,-112.12 229.88,-112.12 229.88,-112.12 289.38,-112.12 289.38,-112.12 295.38,-112.12 301.38,-118.12 301.38,-124.12 301.38,-124.12 301.38,-141.88 301.38,-141.88 301.38,-147.88 295.38,-153.88 289.38,-153.88"/>
<text xml:space="preserve" text-anchor="middle" x="259.62" y="-140.38" font-family="Helvetica,sans-Serif" font-size="10.00">518,400</text>
<text xml:space="preserve" text-anchor="middle" x="259.62" y="-129.12" font-family="Helvetica,sans-Serif" font-size="10.00">Sub&#45;Pulses</text>
<text xml:space="preserve" text-anchor="middle" x="259.62" y="-117.88" font-family="Helvetica,sans-Serif" font-size="10.00">(@ 5 sec each)</text>
</g>
<!-- day30&#45;&gt;pulses -->
<g id="edge1" class="edge">
<title>day30&#45;&gt;pulses</title>
<path fill="none" stroke="#4ecdc4" d="M105.06,-135.35C135.41,-134.88 176.34,-134.26 208.31,-133.77"/>
<polygon fill="#4ecdc4" stroke="#4ecdc4" points="208.03,-136.57 215.98,-133.65 207.94,-130.98 208.03,-136.57"/>
<text xml:space="preserve" text-anchor="middle" x="162.25" y="-136.06" font-family="Helvetica,sans-Serif" font-size="9.00" fill="#888888">divide by 5</text>
</g>
<!-- note -->
<g id="node12" class="node">
<title>note</title>
<polygon fill="#ffe66d" stroke="#4ecdc4" points="491.25,-156.5 404.75,-156.5 404.75,-109.5 497.25,-109.5 497.25,-150.5 491.25,-156.5"/>
<polyline fill="none" stroke="#4ecdc4" points="491.25,-156.5 491.25,-150.5"/>
<polyline fill="none" stroke="#4ecdc4" points="497.25,-150.5 491.25,-150.5"/>
<text xml:space="preserve" text-anchor="middle" x="451" y="-143.95" font-family="Helvetica,sans-Serif" font-size="9.00">This ensures ships</text>
<text xml:space="preserve" text-anchor="middle" x="451" y="-134.2" font-family="Helvetica,sans-Serif" font-size="9.00">don&#39;t teleport past</text>
<text xml:space="preserve" text-anchor="middle" x="451" y="-124.45" font-family="Helvetica,sans-Serif" font-size="9.00">enemies during</text>
<text xml:space="preserve" text-anchor="middle" x="451" y="-114.7" font-family="Helvetica,sans-Serif" font-size="9.00">large increments</text>
</g>
<!-- pulses&#45;&gt;note -->
<g id="edge9" class="edge">
<title>pulses&#45;&gt;note</title>
<path fill="none" stroke="#888888" stroke-dasharray="5,2" d="M301.72,-133C331.96,-133 373.08,-133 404.34,-133"/>
</g>
<!-- pulse5 -->
<g id="node6" class="node">
<title>pulse5</title>
<path fill="#4ecdc4" stroke="#4ecdc4" d="M82.25,-235C82.25,-235 40.75,-235 40.75,-235 34.75,-235 28.75,-229 28.75,-223 28.75,-223 28.75,-211 28.75,-211 28.75,-205 34.75,-199 40.75,-199 40.75,-199 82.25,-199 82.25,-199 88.25,-199 94.25,-205 94.25,-211 94.25,-211 94.25,-223 94.25,-223 94.25,-229 88.25,-235 82.25,-235"/>
<text xml:space="preserve" text-anchor="middle" x="61.5" y="-218.75" font-family="Helvetica,sans-Serif" font-size="10.00">Each 5&#45;sec</text>
<text xml:space="preserve" text-anchor="middle" x="61.5" y="-207.5" font-family="Helvetica,sans-Serif" font-size="10.00">Sub&#45;Pulse</text>
</g>
<!-- sec1 -->
<g id="node7" class="node">
<title>sec1</title>
<path fill="#ff6b6b" stroke="#4ecdc4" d="M274.62,-235C274.62,-235 244.62,-235 244.62,-235 238.62,-235 232.62,-229 232.62,-223 232.62,-223 232.62,-211 232.62,-211 232.62,-205 238.62,-199 244.62,-199 244.62,-199 274.62,-199 274.62,-199 280.62,-199 286.62,-205 286.62,-211 286.62,-211 286.62,-223 286.62,-223 286.62,-229 280.62,-235 274.62,-235"/>
<text xml:space="preserve" text-anchor="middle" x="259.62" y="-213.32" font-family="Helvetica,sans-Serif" font-size="9.00" fill="white">1 sec</text>
</g>
<!-- pulse5&#45;&gt;sec1 -->
<g id="edge2" class="edge">
<title>pulse5&#45;&gt;sec1</title>
<path fill="none" stroke="#ff6b6b" d="M94.45,-217C129.72,-217 186.35,-217 223.02,-217"/>
<polygon fill="#ff6b6b" stroke="#ff6b6b" points="222.83,-219.8 230.83,-217 222.83,-214.2 222.83,-219.8"/>
</g>
<!-- sec2 -->
<g id="node8" class="node">
<title>sec2</title>
<path fill="#ff6b6b" stroke="#4ecdc4" d="M466,-235C466,-235 436,-235 436,-235 430,-235 424,-229 424,-223 424,-223 424,-211 424,-211 424,-205 430,-199 436,-199 436,-199 466,-199 466,-199 472,-199 478,-205 478,-211 478,-211 478,-223 478,-223 478,-229 472,-235 466,-235"/>
<text xml:space="preserve" text-anchor="middle" x="451" y="-213.32" font-family="Helvetica,sans-Serif" font-size="9.00" fill="white">1 sec</text>
</g>
<!-- sec1&#45;&gt;sec2 -->
<g id="edge3" class="edge">
<title>sec1&#45;&gt;sec2</title>
<path fill="none" stroke="#ff6b6b" d="M286.96,-217C320.08,-217 377.09,-217 414.16,-217"/>
<polygon fill="#ff6b6b" stroke="#ff6b6b" points="414.07,-219.8 422.07,-217 414.07,-214.2 414.07,-219.8"/>
</g>
<!-- sec3 -->
<g id="node9" class="node">
<title>sec3</title>
<path fill="#ff6b6b" stroke="#4ecdc4" d="M598.25,-235C598.25,-235 568.25,-235 568.25,-235 562.25,-235 556.25,-229 556.25,-223 556.25,-223 556.25,-211 556.25,-211 556.25,-205 562.25,-199 568.25,-199 568.25,-199 598.25,-199 598.25,-199 604.25,-199 610.25,-205 610.25,-211 610.25,-211 610.25,-223 610.25,-223 610.25,-229 604.25,-235 598.25,-235"/>
<text xml:space="preserve" text-anchor="middle" x="583.25" y="-213.32" font-family="Helvetica,sans-Serif" font-size="9.00" fill="white">1 sec</text>
</g>
<!-- sec2&#45;&gt;sec3 -->
<g id="edge4" class="edge">
<title>sec2&#45;&gt;sec3</title>
<path fill="none" stroke="#ff6b6b" d="M478.36,-217C497.95,-217 524.91,-217 546.46,-217"/>
<polygon fill="#ff6b6b" stroke="#ff6b6b" points="546.42,-219.8 554.42,-217 546.42,-214.2 546.42,-219.8"/>
</g>
<!-- sec4 -->
<g id="node10" class="node">
<title>sec4</title>
<path fill="#ff6b6b" stroke="#4ecdc4" d="M711.25,-235C711.25,-235 681.25,-235 681.25,-235 675.25,-235 669.25,-229 669.25,-223 669.25,-223 669.25,-211 669.25,-211 669.25,-205 675.25,-199 681.25,-199 681.25,-199 711.25,-199 711.25,-199 717.25,-199 723.25,-205 723.25,-211 723.25,-211 723.25,-223 723.25,-223 723.25,-229 717.25,-235 711.25,-235"/>
<text xml:space="preserve" text-anchor="middle" x="696.25" y="-213.32" font-family="Helvetica,sans-Serif" font-size="9.00" fill="white">1 sec</text>
</g>
<!-- sec3&#45;&gt;sec4 -->
<g id="edge5" class="edge">
<title>sec3&#45;&gt;sec4</title>
<path fill="none" stroke="#ff6b6b" d="M610.56,-217C625.35,-217 644.01,-217 660.04,-217"/>
<polygon fill="#ff6b6b" stroke="#ff6b6b" points="659.62,-219.8 667.62,-217 659.62,-214.2 659.62,-219.8"/>
</g>
<!-- sec5 -->
<g id="node11" class="node">
<title>sec5</title>
<path fill="#ff6b6b" stroke="#4ecdc4" d="M824.25,-235C824.25,-235 794.25,-235 794.25,-235 788.25,-235 782.25,-229 782.25,-223 782.25,-223 782.25,-211 782.25,-211 782.25,-205 788.25,-199 794.25,-199 794.25,-199 824.25,-199 824.25,-199 830.25,-199 836.25,-205 836.25,-211 836.25,-211 836.25,-223 836.25,-223 836.25,-229 830.25,-235 824.25,-235"/>
<text xml:space="preserve" text-anchor="middle" x="809.25" y="-213.32" font-family="Helvetica,sans-Serif" font-size="9.00" fill="white">1 sec</text>
</g>
<!-- sec4&#45;&gt;sec5 -->
<g id="edge6" class="edge">
<title>sec4&#45;&gt;sec5</title>
<path fill="none" stroke="#ff6b6b" d="M723.56,-217C738.35,-217 757.01,-217 773.04,-217"/>
<polygon fill="#ff6b6b" stroke="#ff6b6b" points="772.62,-219.8 780.62,-217 772.62,-214.2 772.62,-219.8"/>
</g>
</g>
</svg>
