<?xml version="1.0" encoding="UTF-8" standalone="no"?>
<!DOCTYPE svg PUBLIC "-//W3C//DTD SVG 1.1//EN"
 "http://www.w3.org/Graphics/SVG/1.1/DTD/svg11.dtd">
<!-- Generated by graphviz version 14.1.2 (20260124.0452)
 -->
<!-- Title: G Pages: 1 -->
<svg width="1598pt" height="202pt"
 viewBox="0.00 0.00 1598.00 202.00" xmlns="http://www.w3.org/2000/svg" xmlns:xlink="http://www.w3.org/1999/xlink">
<g id="graph0" class="graph" transform="scale(1 1) rotate(0) translate(4 198)">
<title>G</title>
<polygon fill="#1a1a2e" stroke="none" points="-4,4 -4,-198 1594,-198 1594,4 -4,4"/>
<!-- menubar -->
<g id="node1" class="node">
<title>menubar</title>
<path fill="#3d3d5c" stroke="#4ecdc4" d="M766.12,-194C766.12,-194 714.88,-194 714.88,-194 708.88,-194 702.88,-188 702.88,-182 702.88,-182 702.88,-170 702.88,-170 702.88,-164 708.88,-158 714.88,-158 714.88,-158 766.12,-158 766.12,-158 772.12,-158 778.12,-164 778.12,-170 778.12,-170 778.12,-182 778.12,-182 778.12,-188 772.12,-194 766.12,-194"/>
<text xml:space="preserve" text-anchor="middle" x="740.5" y="-170.2" font-family="Helvetica,sans-Serif" font-size="14.00" fill="white">Menu Bar</text>
</g>
<!-- economics -->
<g id="node2" class="node">
<title>economics</title>
<path fill="#2d2d44" stroke="#4ecdc4" d="M187.25,-115C187.25,-115 139.75,-115 139.75,-115 133.75,-115 127.75,-109 127.75,-103 127.75,-103 127.75,-91 127.75,-91 127.75,-85 133.75,-79 139.75,-79 139.75,-79 187.25,-79 187.25,-79 193.25,-79 199.25,-85 199.25,-91 199.25,-91 199.25,-103 199.25,-103 199.25,-109 193.25,-115 187.25,-115"/>
<text xml:space="preserve" text-anchor="middle" x="163.5" y="-98.55" font-family="Helvetica,sans-Serif" font-size="11.00" fill="white">Economics/</text>
<text xml:space="preserve" text-anchor="middle" x="163.5" y="-86.55" font-family="Helvetica,sans-Serif" font-size="11.00" fill="white">Industry</text>
</g>
<!-- menubar&#45;&gt;economics -->
<g id="edge1" class="edge">
<title>menubar&#45;&gt;economics</title>
<path fill="none" stroke="#4ecdc4" d="M702.64,-182C574.27,-182 163.5,-182 163.5,-182 163.5,-182 163.5,-124.96 163.5,-124.96"/>
<polygon fill="#4ecdc4" stroke="#4ecdc4" points="166.3,-124.96 163.5,-116.96 160.7,-124.96 166.3,-124.96"/>
</g>
<!-- ships -->
<g id="node3" class="node">
<title>ships</title>
<path fill="#2d2d44" stroke="#4ecdc4" d="M479.75,-115C479.75,-115 435.25,-115 435.25,-115 429.25,-115 423.25,-109 423.25,-103 423.25,-103 423.25,-91 423.25,-91 423.25,-85 429.25,-79 435.25,-79 435.25,-79 479.75,-79 479.75,-79 485.75,-79 491.75,-85 491.75,-91 491.75,-91 491.75,-103 491.75,-103 491.75,-109 485.75,-115 479.75,-115"/>
<text xml:space="preserve" text-anchor="middle" x="457.5" y="-98.55" font-family="Helvetica,sans-Serif" font-size="11.00" fill="white">Ship</text>
<text xml:space="preserve" text-anchor="middle" x="457.5" y="-86.55" font-family="Helvetica,sans-Serif" font-size="11.00" fill="white">Operations</text>
</g>
<!-- menubar&#45;&gt;ships -->
<g id="edge2" class="edge">
<title>menubar&#45;&gt;ships</title>
<path fill="none" stroke="#4ecdc4" d="M702.63,-170C625.51,-170 457.5,-170 457.5,-170 457.5,-170 457.5,-124.93 457.5,-124.93"/>
<polygon fill="#4ecdc4" stroke="#4ecdc4" points="460.3,-124.93 457.5,-116.93 454.7,-124.93 460.3,-124.93"/>
</g>
<!-- research -->
<g id="node4" class="node">
<title>research</title>
<path fill="#2d2d44" stroke="#4ecdc4" d="M619.75,-115C619.75,-115 581.25,-115 581.25,-115 575.25,-115 569.25,-109 569.25,-103 569.25,-103 569.25,-91 569.25,-91 569.25,-85 575.25,-79 581.25,-79 581.25,-79 619.75,-79 619.75,-79 625.75,-79 631.75,-85 631.75,-91 631.75,-91 631.75,-103 631.75,-103 631.75,-109 625.75,-115 619.75,-115"/>
<text xml:space="preserve" text-anchor="middle" x="600.5" y="-92.55" font-family="Helvetica,sans-Serif" font-size="11.00" fill="white">Research</text>
</g>
<!-- menubar&#45;&gt;research -->
<g id="edge3" class="edge">
<title>menubar&#45;&gt;research</title>
<path fill="none" stroke="#4ecdc4" d="M708.19,-157.68C708.19,-134.34 708.19,-97 708.19,-97 708.19,-97 641.74,-97 641.74,-97"/>
<polygon fill="#4ecdc4" stroke="#4ecdc4" points="641.74,-94.2 633.74,-97 641.74,-99.8 641.74,-94.2"/>
</g>
<!-- military -->
<g id="node5" class="node">
<title>military</title>
<path fill="#2d2d44" stroke="#4ecdc4" d="M755.5,-115C755.5,-115 725.5,-115 725.5,-115 719.5,-115 713.5,-109 713.5,-103 713.5,-103 713.5,-91 713.5,-91 713.5,-85 719.5,-79 725.5,-79 725.5,-79 755.5,-79 755.5,-79 761.5,-79 767.5,-85 767.5,-91 767.5,-91 767.5,-103 767.5,-103 767.5,-109 761.5,-115 755.5,-115"/>
<text xml:space="preserve" text-anchor="middle" x="740.5" y="-92.55" font-family="Helvetica,sans-Serif" font-size="11.00" fill="white">Military</text>
</g>
<!-- menubar&#45;&gt;military -->
<g id="edge4" class="edge">
<title>menubar&#45;&gt;military</title>
<path fill="none" stroke="#4ecdc4" d="M740.5,-157.68C740.5,-157.68 740.5,-125.01 740.5,-125.01"/>
<polygon fill="#4ecdc4" stroke="#4ecdc4" points="743.3,-125.01 740.5,-117.01 737.7,-125.01 743.3,-125.01"/>
</g>
<!-- exploration -->
<g id="node6" class="node">
<title>exploration</title>
<path fill="#2d2d44" stroke="#4ecdc4" d="M908.5,-115C908.5,-115 862.5,-115 862.5,-115 856.5,-115 850.5,-109 850.5,-103 850.5,-103 850.5,-91 850.5,-91 850.5,-85 856.5,-79 862.5,-79 862.5,-79 908.5,-79 908.5,-79 914.5,-79 920.5,-85 920.5,-91 920.5,-91 920.5,-103 920.5,-103 920.5,-109 914.5,-115 908.5,-115"/>
<text xml:space="preserve" text-anchor="middle" x="885.5" y="-92.55" font-family="Helvetica,sans-Serif" font-size="11.00" fill="white">Exploration</text>
</g>
<!-- menubar&#45;&gt;exploration -->
<g id="edge5" class="edge">
<title>menubar&#45;&gt;exploration</title>
<path fill="none" stroke="#4ecdc4" d="M772.81,-157.68C772.81,-134.34 772.81,-97 772.81,-97 772.81,-97 840.64,-97 840.64,-97"/>
<polygon fill="#4ecdc4" stroke="#4ecdc4" points="840.64,-99.8 848.64,-97 840.64,-94.2 840.64,-99.8"/>
</g>
<!-- admin -->
<g id="node7" class="node">
<title>admin</title>
<path fill="#2d2d44" stroke="#4ecdc4" d="M1144.62,-115C1144.62,-115 1084.38,-115 1084.38,-115 1078.38,-115 1072.38,-109 1072.38,-103 1072.38,-103 1072.38,-91 1072.38,-91 1072.38,-85 1078.38,-79 1084.38,-79 1084.38,-79 1144.62,-79 1144.62,-79 1150.62,-79 1156.62,-85 1156.62,-91 1156.62,-91 1156.62,-103 1156.62,-103 1156.62,-109 1150.62,-115 1144.62,-115"/>
<text xml:space="preserve" text-anchor="middle" x="1114.5" y="-92.55" font-family="Helvetica,sans-Serif" font-size="11.00" fill="white">Administration</text>
</g>
<!-- menubar&#45;&gt;admin -->
<g id="edge6" class="edge">
<title>menubar&#45;&gt;admin</title>
<path fill="none" stroke="#4ecdc4" d="M778.42,-170C873.5,-170 1114.5,-170 1114.5,-170 1114.5,-170 1114.5,-124.93 1114.5,-124.93"/>
<polygon fill="#4ecdc4" stroke="#4ecdc4" points="1117.3,-124.93 1114.5,-116.93 1111.7,-124.93 1117.3,-124.93"/>
</g>
<!-- game -->
<g id="node8" class="node">
<title>game</title>
<path fill="#2d2d44" stroke="#4ecdc4" d="M1425,-115C1425,-115 1370,-115 1370,-115 1364,-115 1358,-109 1358,-103 1358,-103 1358,-91 1358,-91 1358,-85 1364,-79 1370,-79 1370,-79 1425,-79 1425,-79 1431,-79 1437,-85 1437,-91 1437,-91 1437,-103 1437,-103 1437,-109 1431,-115 1425,-115"/>
<text xml:space="preserve" text-anchor="middle" x="1397.5" y="-98.55" font-family="Helvetica,sans-Serif" font-size="11.00" fill="white">Game</text>
<text xml:space="preserve" text-anchor="middle" x="1397.5" y="-86.55" font-family="Helvetica,sans-Serif" font-size="11.00" fill="white">Management</text>
</g>
<!-- menubar&#45;&gt;game -->
<g id="edge7" class="edge">
<title>menubar&#45;&gt;game</title>
<path fill="none" stroke="#4ecdc4" d="M778.18,-182C917.79,-182 1397.5,-182 1397.5,-182 1397.5,-182 1397.5,-124.96 1397.5,-124.96"/>
<polygon fill="#4ecdc4" stroke="#4ecdc4" points="1400.3,-124.96 1397.5,-116.96 1394.7,-124.96 1400.3,-124.96"/>
</g>
<!-- econ_win -->
<g id="node9" class="node">
<title>econ_win</title>
<path fill="#2d2d44" stroke="#4ecdc4" d="M49,-36C49,-36 12,-36 12,-36 6,-36 0,-30 0,-24 0,-24 0,-12 0,-12 0,-6 6,0 12,0 12,0 49,0 49,0 55,0 61,-6 61,-12 61,-12 61,-24 61,-24 61,-30 55,-36 49,-36"/>
<text xml:space="preserve" text-anchor="middle" x="30.5" y="-19.2" font-family="Helvetica,sans-Serif" font-size="9.00" fill="white">Economics</text>
<text xml:space="preserve" text-anchor="middle" x="30.5" y="-9.45" font-family="Helvetica,sans-Serif" font-size="9.00" fill="white">Window</text>
</g>
<!-- economics&#45;&gt;econ_win -->
<g id="edge8" class="edge">
<title>economics&#45;&gt;econ_win</title>
<path fill="none" stroke="#4ecdc4" d="M127.51,-97C88.12,-97 30.5,-97 30.5,-97 30.5,-97 30.5,-45.84 30.5,-45.84"/>
<polygon fill="#4ecdc4" stroke="#4ecdc4" points="33.3,-45.84 30.5,-37.84 27.7,-45.84 33.3,-45.84"/>
</g>
<!-- mining -->
<g id="node10" class="node">
<title>mining</title>
<path fill="#2d2d44" stroke="#4ecdc4" d="M132.5,-36C132.5,-36 102.5,-36 102.5,-36 96.5,-36 90.5,-30 90.5,-24 90.5,-24 90.5,-12 90.5,-12 90.5,-6 96.5,0 102.5,0 102.5,0 132.5,0 132.5,0 138.5,0 144.5,-6 144.5,-12 144.5,-12 144.5,-24 144.5,-24 144.5,-30 138.5,-36 132.5,-36"/>
<text xml:space="preserve" text-anchor="middle" x="117.5" y="-14.32" font-family="Helvetica,sans-Serif" font-size="9.00" fill="white">Mining</text>
</g>
<!-- economics&#45;&gt;mining -->
<g id="edge9" class="edge">
<title>economics&#45;&gt;mining</title>
<path fill="none" stroke="#4ecdc4" d="M136.12,-78.68C136.12,-78.68 136.12,-46.01 136.12,-46.01"/>
<polygon fill="#4ecdc4" stroke="#4ecdc4" points="138.93,-46.01 136.13,-38.01 133.33,-46.01 138.93,-46.01"/>
</g>
<!-- wealth -->
<g id="node11" class="node">
<title>wealth</title>
<path fill="#2d2d44" stroke="#4ecdc4" d="M231.88,-36C231.88,-36 185.12,-36 185.12,-36 179.12,-36 173.12,-30 173.12,-24 173.12,-24 173.12,-12 173.12,-12 173.12,-6 179.12,0 185.12,0 185.12,0 231.88,0 231.88,0 237.88,0 243.88,-6 243.88,-12 243.88,-12 243.88,-24 243.88,-24 243.88,-30 237.88,-36 231.88,-36"/>
<text xml:space="preserve" text-anchor="middle" x="208.5" y="-14.32" font-family="Helvetica,sans-Serif" font-size="9.00" fill="white">Wealth/Trade</text>
</g>
<!-- economics&#45;&gt;wealth -->
<g id="edge10" class="edge">
<title>economics&#45;&gt;wealth</title>
<path fill="none" stroke="#4ecdc4" d="M186.19,-78.68C186.19,-78.68 186.19,-46.01 186.19,-46.01"/>
<polygon fill="#4ecdc4" stroke="#4ecdc4" points="188.99,-46.01 186.19,-38.01 183.39,-46.01 188.99,-46.01"/>
</g>
<!-- ship_design -->
<g id="node12" class="node">
<title>ship_design</title>
<path fill="#2d2d44" stroke="#4ecdc4" d="M327.62,-36C327.62,-36 285.38,-36 285.38,-36 279.38,-36 273.38,-30 273.38,-24 273.38,-24 273.38,-12 273.38,-12 273.38,-6 279.38,0 285.38,0 285.38,0 327.62,0 327.62,0 333.62,0 339.62,-6 339.62,-12 339.62,-12 339.62,-24 339.62,-24 339.62,-30 333.62,-36 327.62,-36"/>
<text xml:space="preserve" text-anchor="middle" x="306.5" y="-14.32" font-family="Helvetica,sans-Serif" font-size="9.00" fill="white">Ship Design</text>
</g>
<!-- ships&#45;&gt;ship_design -->
<g id="edge11" class="edge">
<title>ships&#45;&gt;ship_design</title>
<path fill="none" stroke="#4ecdc4" d="M422.86,-97C378.28,-97 306.5,-97 306.5,-97 306.5,-97 306.5,-45.84 306.5,-45.84"/>
<polygon fill="#4ecdc4" stroke="#4ecdc4" points="309.3,-45.84 306.5,-37.84 303.7,-45.84 309.3,-45.84"/>
</g>
<!-- fleet_win -->
<g id="node13" class="node">
<title>fleet_win</title>
<path fill="#2d2d44" stroke="#4ecdc4" d="M428.25,-36C428.25,-36 380.75,-36 380.75,-36 374.75,-36 368.75,-30 368.75,-24 368.75,-24 368.75,-12 368.75,-12 368.75,-6 374.75,0 380.75,0 380.75,0 428.25,0 428.25,0 434.25,0 440.25,-6 440.25,-12 440.25,-12 440.25,-24 440.25,-24 440.25,-30 434.25,-36 428.25,-36"/>
<text xml:space="preserve" text-anchor="middle" x="404.5" y="-14.32" font-family="Helvetica,sans-Serif" font-size="9.00" fill="white">Fleet Window</text>
</g>
<!-- ships&#45;&gt;fleet_win -->
<g id="edge12" class="edge">
<title>ships&#45;&gt;fleet_win</title>
<path fill="none" stroke="#4ecdc4" d="M431.75,-78.68C431.75,-78.68 431.75,-46.01 431.75,-46.01"/>
<polygon fill="#4ecdc4" stroke="#4ecdc4" points="434.55,-46.01 431.75,-38.01 428.95,-46.01 434.55,-46.01"/>
</g>
<!-- class_design -->
<g id="node14" class="node">
<title>class_design</title>
<path fill="#2d2d44" stroke="#4ecdc4" d="M527.88,-36C527.88,-36 481.12,-36 481.12,-36 475.12,-36 469.12,-30 469.12,-24 469.12,-24 469.12,-12 469.12,-12 469.12,-6 475.12,0 481.12,0 481.12,0 527.88,0 527.88,0 533.88,0 539.88,-6 539.88,-12 539.88,-12 539.88,-24 539.88,-24 539.88,-30 533.88,-36 527.88,-36"/>
<text xml:space="preserve" text-anchor="middle" x="504.5" y="-14.32" font-family="Helvetica,sans-Serif" font-size="9.00" fill="white">Class Design</text>
</g>
<!-- ships&#45;&gt;class_design -->
<g id="edge13" class="edge">
<title>ships&#45;&gt;class_design</title>
<path fill="none" stroke="#4ecdc4" d="M480.44,-78.68C480.44,-78.68 480.44,-46.01 480.44,-46.01"/>
<polygon fill="#4ecdc4" stroke="#4ecdc4" points="483.24,-46.01 480.44,-38.01 477.64,-46.01 483.24,-46.01"/>
</g>
<!-- research_win -->
<g id="node15" class="node">
<title>research_win</title>
<path fill="#2d2d44" stroke="#4ecdc4" d="M612.38,-36C612.38,-36 580.62,-36 580.62,-36 574.62,-36 568.62,-30 568.62,-24 568.62,-24 568.62,-12 568.62,-12 568.62,-6 574.62,0 580.62,0 580.62,0 612.38,0 612.38,0 618.38,0 624.38,-6 624.38,-12 624.38,-12 624.38,-24 624.38,-24 624.38,-30 618.38,-36 612.38,-36"/>
<text xml:space="preserve" text-anchor="middle" x="596.5" y="-19.2" font-family="Helvetica,sans-Serif" font-size="9.00" fill="white">Research</text>
<text xml:space="preserve" text-anchor="middle" x="596.5" y="-9.45" font-family="Helvetica,sans-Serif" font-size="9.00" fill="white">Window</text>
</g>
<!-- research&#45;&gt;research_win -->
<g id="edge14" class="edge">
<title>research&#45;&gt;research_win</title>
<path fill="none" stroke="#4ecdc4" d="M596.81,-78.68C596.81,-78.68 596.81,-46.01 596.81,-46.01"/>
<polygon fill="#4ecdc4" stroke="#4ecdc4" points="599.61,-46.01 596.81,-38.01 594.01,-46.01 599.61,-46.01"/>
</g>
<!-- ground -->
<g id="node16" class="node">
<title>ground</title>
<path fill="#2d2d44" stroke="#4ecdc4" d="M717.88,-36C717.88,-36 665.12,-36 665.12,-36 659.12,-36 653.12,-30 653.12,-24 653.12,-24 653.12,-12 653.12,-12 653.12,-6 659.12,0 665.12,0 665.12,0 717.88,0 717.88,0 723.88,0 729.88,-6 729.88,-12 729.88,-12 729.88,-24 729.88,-24 729.88,-30 723.88,-36 717.88,-36"/>
<text xml:space="preserve" text-anchor="middle" x="691.5" y="-14.32" font-family="Helvetica,sans-Serif" font-size="9.00" fill="white">Ground Forces</text>
</g>
<!-- military&#45;&gt;ground -->
<g id="edge15" class="edge">
<title>military&#45;&gt;ground</title>
<path fill="none" stroke="#4ecdc4" d="M721.69,-78.68C721.69,-78.68 721.69,-46.01 721.69,-46.01"/>
<polygon fill="#4ecdc4" stroke="#4ecdc4" points="724.49,-46.01 721.69,-38.01 718.89,-46.01 724.49,-46.01"/>
</g>
<!-- intel -->
<g id="node17" class="node">
<title>intel</title>
<path fill="#2d2d44" stroke="#4ecdc4" d="M810.12,-36C810.12,-36 770.88,-36 770.88,-36 764.88,-36 758.88,-30 758.88,-24 758.88,-24 758.88,-12 758.88,-12 758.88,-6 764.88,0 770.88,0 770.88,0 810.12,0 810.12,0 816.12,0 822.12,-6 822.12,-12 822.12,-12 822.12,-24 822.12,-24 822.12,-30 816.12,-36 810.12,-36"/>
<text xml:space="preserve" text-anchor="middle" x="790.5" y="-14.32" font-family="Helvetica,sans-Serif" font-size="9.00" fill="white">Intelligence</text>
</g>
<!-- military&#45;&gt;intel -->
<g id="edge16" class="edge">
<title>military&#45;&gt;intel</title>
<path fill="none" stroke="#4ecdc4" d="M763.19,-78.68C763.19,-78.68 763.19,-46.01 763.19,-46.01"/>
<polygon fill="#4ecdc4" stroke="#4ecdc4" points="765.99,-46.01 763.19,-38.01 760.39,-46.01 765.99,-46.01"/>
</g>
<!-- system_view -->
<g id="node18" class="node">
<title>system_view</title>
<path fill="#2d2d44" stroke="#4ecdc4" d="M907.75,-36C907.75,-36 863.25,-36 863.25,-36 857.25,-36 851.25,-30 851.25,-24 851.25,-24 851.25,-12 851.25,-12 851.25,-6 857.25,0 863.25,0 863.25,0 907.75,0 907.75,0 913.75,0 919.75,-6 919.75,-12 919.75,-12 919.75,-24 919.75,-24 919.75,-30 913.75,-36 907.75,-36"/>
<text xml:space="preserve" text-anchor="middle" x="885.5" y="-14.32" font-family="Helvetica,sans-Serif" font-size="9.00" fill="white">System View</text>
</g>
<!-- exploration&#45;&gt;system_view -->
<g id="edge17" class="edge">
<title>exploration&#45;&gt;system_view</title>
<path fill="none" stroke="#4ecdc4" d="M885.5,-78.68C885.5,-78.68 885.5,-46.01 885.5,-46.01"/>
<polygon fill="#4ecdc4" stroke="#4ecdc4" points="888.3,-46.01 885.5,-38.01 882.7,-46.01 888.3,-46.01"/>
</g>
<!-- survey -->
<g id="node19" class="node">
<title>survey</title>
<path fill="#2d2d44" stroke="#4ecdc4" d="M992.38,-36C992.38,-36 960.62,-36 960.62,-36 954.62,-36 948.62,-30 948.62,-24 948.62,-24 948.62,-12 948.62,-12 948.62,-6 954.62,0 960.62,0 960.62,0 992.38,0 992.38,0 998.38,0 1004.38,-6 1004.38,-12 1004.38,-12 1004.38,-24 1004.38,-24 1004.38,-30 998.38,-36 992.38,-36"/>
<text xml:space="preserve" text-anchor="middle" x="976.5" y="-19.2" font-family="Helvetica,sans-Serif" font-size="9.00" fill="white">Survey</text>
<text xml:space="preserve" text-anchor="middle" x="976.5" y="-9.45" font-family="Helvetica,sans-Serif" font-size="9.00" fill="white">Locations</text>
</g>
<!-- exploration&#45;&gt;survey -->
<g id="edge18" class="edge">
<title>exploration&#45;&gt;survey</title>
<path fill="none" stroke="#4ecdc4" d="M920.94,-97C946.49,-97 976.5,-97 976.5,-97 976.5,-97 976.5,-45.84 976.5,-45.84"/>
<polygon fill="#4ecdc4" stroke="#4ecdc4" points="979.3,-45.84 976.5,-37.84 973.7,-45.84 979.3,-45.84"/>
</g>
<!-- commander -->
<g id="node20" class="node">
<title>commander</title>
<path fill="#2d2d44" stroke="#4ecdc4" d="M1088,-36C1088,-36 1045,-36 1045,-36 1039,-36 1033,-30 1033,-24 1033,-24 1033,-12 1033,-12 1033,-6 1039,0 1045,0 1045,0 1088,0 1088,0 1094,0 1100,-6 1100,-12 1100,-12 1100,-24 1100,-24 1100,-30 1094,-36 1088,-36"/>
<text xml:space="preserve" text-anchor="middle" x="1066.5" y="-19.2" font-family="Helvetica,sans-Serif" font-size="9.00" fill="white">Commander</text>
<text xml:space="preserve" text-anchor="middle" x="1066.5" y="-9.45" font-family="Helvetica,sans-Serif" font-size="9.00" fill="white">Window</text>
</g>
<!-- admin&#45;&gt;commander -->
<g id="edge19" class="edge">
<title>admin&#45;&gt;commander</title>
<path fill="none" stroke="#4ecdc4" d="M1086.19,-78.68C1086.19,-78.68 1086.19,-46.01 1086.19,-46.01"/>
<polygon fill="#4ecdc4" stroke="#4ecdc4" points="1088.99,-46.01 1086.19,-38.01 1083.39,-46.01 1088.99,-46.01"/>
</g>
<!-- race -->
<g id="node21" class="node">
<title>race</title>
<path fill="#2d2d44" stroke="#4ecdc4" d="M1186.12,-36C1186.12,-36 1140.88,-36 1140.88,-36 1134.88,-36 1128.88,-30 1128.88,-24 1128.88,-24 1128.88,-12 1128.88,-12 1128.88,-6 1134.88,0 1140.88,0 1140.88,0 1186.12,0 1186.12,0 1192.12,0 1198.12,-6 1198.12,-12 1198.12,-12 1198.12,-24 1198.12,-24 1198.12,-30 1192.12,-36 1186.12,-36"/>
<text xml:space="preserve" text-anchor="middle" x="1163.5" y="-19.2" font-family="Helvetica,sans-Serif" font-size="9.00" fill="white">Race/Empire</text>
<text xml:space="preserve" text-anchor="middle" x="1163.5" y="-9.45" font-family="Helvetica,sans-Serif" font-size="9.00" fill="white">Settings</text>
</g>
<!-- admin&#45;&gt;race -->
<g id="edge20" class="edge">
<title>admin&#45;&gt;race</title>
<path fill="none" stroke="#4ecdc4" d="M1142.75,-78.68C1142.75,-78.68 1142.75,-46.01 1142.75,-46.01"/>
<polygon fill="#4ecdc4" stroke="#4ecdc4" points="1145.55,-46.01 1142.75,-38.01 1139.95,-46.01 1145.55,-46.01"/>
</g>
<!-- diplomacy -->
<g id="node22" class="node">
<title>diplomacy</title>
<path fill="#2d2d44" stroke="#4ecdc4" d="M1274.25,-36C1274.25,-36 1238.75,-36 1238.75,-36 1232.75,-36 1226.75,-30 1226.75,-24 1226.75,-24 1226.75,-12 1226.75,-12 1226.75,-6 1232.75,0 1238.75,0 1238.75,0 1274.25,0 1274.25,0 1280.25,0 1286.25,-6 1286.25,-12 1286.25,-12 1286.25,-24 1286.25,-24 1286.25,-30 1280.25,-36 1274.25,-36"/>
<text xml:space="preserve" text-anchor="middle" x="1256.5" y="-14.32" font-family="Helvetica,sans-Serif" font-size="9.00" fill="white">Diplomacy</text>
</g>
<!-- admin&#45;&gt;diplomacy -->
<g id="edge21" class="edge">
<title>admin&#45;&gt;diplomacy</title>
<path fill="none" stroke="#4ecdc4" d="M1157.1,-97C1198.93,-97 1256.5,-97 1256.5,-97 1256.5,-97 1256.5,-45.84 1256.5,-45.84"/>
<polygon fill="#4ecdc4" stroke="#4ecdc4" points="1259.3,-45.84 1256.5,-37.84 1253.7,-45.84 1259.3,-45.84"/>
</g>
<!-- game_setup -->
<g id="node23" class="node">
<title>game_setup</title>
<path fill="#2d2d44" stroke="#4ecdc4" d="M1370,-36C1370,-36 1327,-36 1327,-36 1321,-36 1315,-30 1315,-24 1315,-24 1315,-12 1315,-12 1315,-6 1321,0 1327,0 1327,0 1370,0 1370,0 1376,0 1382,-6 1382,-12 1382,-12 1382,-24 1382,-24 1382,-30 1376,-36 1370,-36"/>
<text xml:space="preserve" text-anchor="middle" x="1348.5" y="-14.32" font-family="Helvetica,sans-Serif" font-size="9.00" fill="white">Game Setup</text>
</g>
<!-- game&#45;&gt;game_setup -->
<g id="edge22" class="edge">
<title>game&#45;&gt;game_setup</title>
<path fill="none" stroke="#4ecdc4" d="M1370,-78.68C1370,-78.68 1370,-46.01 1370,-46.01"/>
<polygon fill="#4ecdc4" stroke="#4ecdc4" points="1372.8,-46.01 1370,-38.01 1367.2,-46.01 1372.8,-46.01"/>
</g>
<!-- spacemaster -->
<g id="node24" class="node">
<title>spacemaster</title>
<path fill="#2d2d44" stroke="#4ecdc4" d="M1469.5,-36C1469.5,-36 1423.5,-36 1423.5,-36 1417.5,-36 1411.5,-30 1411.5,-24 1411.5,-24 1411.5,-12 1411.5,-12 1411.5,-6 1417.5,0 1423.5,0 1423.5,0 1469.5,0 1469.5,0 1475.5,0 1481.5,-6 1481.5,-12 1481.5,-12 1481.5,-24 1481.5,-24 1481.5,-30 1475.5,-36 1469.5,-36"/>
<text xml:space="preserve" text-anchor="middle" x="1446.5" y="-14.32" font-family="Helvetica,sans-Serif" font-size="9.00" fill="white">SpaceMaster</text>
</g>
<!-- game&#45;&gt;spacemaster -->
<g id="edge23" class="edge">
<title>game&#45;&gt;spacemaster</title>
<path fill="none" stroke="#4ecdc4" d="M1424.25,-78.68C1424.25,-78.68 1424.25,-46.01 1424.25,-46.01"/>
<polygon fill="#4ecdc4" stroke="#4ecdc4" points="1427.05,-46.01 1424.25,-38.01 1421.45,-46.01 1427.05,-46.01"/>
</g>
<!-- medals -->
<g id="node25" class="node">
<title>medals</title>
<path fill="#2d2d44" stroke="#4ecdc4" d="M1578,-36C1578,-36 1523,-36 1523,-36 1517,-36 1511,-30 1511,-24 1511,-24 1511,-12 1511,-12 1511,-6 1517,0 1523,0 1523,0 1578,0 1578,0 1584,0 1590,-6 1590,-12 1590,-12 1590,-24 1590,-24 1590,-30 1584,-36 1578,-36"/>
<text xml:space="preserve" text-anchor="middle" x="1550.5" y="-14.32" font-family="Helvetica,sans-Serif" font-size="9.00" fill="white">Medals/Awards</text>
</g>
<!-- game&#45;&gt;medals -->
<g id="edge24" class="edge">
<title>game&#45;&gt;medals</title>
<path fill="none" stroke="#4ecdc4" d="M1437.3,-97C1482.63,-97 1550.5,-97 1550.5,-97 1550.5,-97 1550.5,-45.84 1550.5,-45.84"/>
<polygon fill="#4ecdc4" stroke="#4ecdc4" points="1553.3,-45.84 1550.5,-37.84 1547.7,-45.84 1553.3,-45.84"/>
</g>
</g>
</svg>
