<?xml version="1.0" encoding="UTF-8" standalone="no"?>
<!DOCTYPE svg PUBLIC "-//W3C//DTD SVG 1.1//EN"
 "http://www.w3.org/Graphics/SVG/1.1/DTD/svg11.dtd">
<!-- Generated by graphviz version 14.1.2 (20260124.0452)
 -->
<!-- Title: G Pages: 1 -->
<svg width="2011pt" height="188pt"
 viewBox="0.00 0.00 2011.00 188.00" xmlns="http://www.w3.org/2000/svg" xmlns:xlink="http://www.w3.org/1999/xlink">
<g id="graph0" class="graph" transform="scale(1 1) rotate(0) translate(4 184)">
<title>G</title>
<polygon fill="#1a1a2e" stroke="none" points="-4,4 -4,-184 2007.12,-184 2007.12,4 -4,4"/>
<!-- display -->
<g id="node1" class="node">
<title>display</title>
<path fill="#3d3d5c" stroke="#4ecdc4" d="M1161,-180C1161,-180 1091,-180 1091,-180 1085,-180 1079,-174 1079,-168 1079,-168 1079,-156 1079,-156 1079,-150 1085,-144 1091,-144 1091,-144 1161,-144 1161,-144 1167,-144 1173,-150 1173,-156 1173,-156 1173,-168 1173,-168 1173,-174 1167,-180 1161,-180"/>
<text xml:space="preserve" text-anchor="middle" x="1126" y="-163.35" font-family="Helvetica,sans-Serif" font-size="12.00" fill="white">Display</text>
<text xml:space="preserve" text-anchor="middle" x="1126" y="-150.6" font-family="Helvetica,sans-Serif" font-size="12.00" fill="white">Settings Panel</text>
</g>
<!-- bodies -->
<g id="node2" class="node">
<title>bodies</title>
<path fill="#3d3d5c" stroke="#4ecdc4" d="M339.75,-108C339.75,-108 280.25,-108 280.25,-108 274.25,-108 268.25,-102 268.25,-96 268.25,-96 268.25,-84 268.25,-84 268.25,-78 274.25,-72 280.25,-72 280.25,-72 339.75,-72 339.75,-72 345.75,-72 351.75,-78 351.75,-84 351.75,-84 351.75,-96 351.75,-96 351.75,-102 345.75,-108 339.75,-108"/>
<text xml:space="preserve" text-anchor="middle" x="310" y="-85.55" font-family="Helvetica,sans-Serif" font-size="11.00" fill="white">Orbital Bodies</text>
</g>
<!-- display&#45;&gt;bodies -->
<g id="edge1" class="edge">
<title>display&#45;&gt;bodies</title>
<path fill="none" stroke="#4ecdc4" d="M1078.6,-156.93C935.36,-144.65 507.8,-107.97 360.52,-95.33"/>
<polygon fill="#4ecdc4" stroke="#4ecdc4" points="360.75,-92.89 353.56,-94.74 360.33,-97.78 360.75,-92.89"/>
</g>
<!-- orbits -->
<g id="node3" class="node">
<title>orbits</title>
<path fill="#3d3d5c" stroke="#4ecdc4" d="M834.12,-108C834.12,-108 779.88,-108 779.88,-108 773.88,-108 767.88,-102 767.88,-96 767.88,-96 767.88,-84 767.88,-84 767.88,-78 773.88,-72 779.88,-72 779.88,-72 834.12,-72 834.12,-72 840.12,-72 846.12,-78 846.12,-84 846.12,-84 846.12,-96 846.12,-96 846.12,-102 840.12,-108 834.12,-108"/>
<text xml:space="preserve" text-anchor="middle" x="807" y="-85.55" font-family="Helvetica,sans-Serif" font-size="11.00" fill="white">Orbital Paths</text>
</g>
<!-- display&#45;&gt;orbits -->
<g id="edge2" class="edge">
<title>display&#45;&gt;orbits</title>
<path fill="none" stroke="#4ecdc4" d="M1078.59,-150.6C1018.41,-137.39 915.21,-114.74 854.83,-101.5"/>
<polygon fill="#4ecdc4" stroke="#4ecdc4" points="855.45,-99.12 848.09,-100.02 854.4,-103.91 855.45,-99.12"/>
</g>
<!-- fleets -->
<g id="node4" class="node">
<title>fleets</title>
<path fill="#3d3d5c" stroke="#4ecdc4" d="M1156.88,-108C1156.88,-108 1095.12,-108 1095.12,-108 1089.12,-108 1083.12,-102 1083.12,-96 1083.12,-96 1083.12,-84 1083.12,-84 1083.12,-78 1089.12,-72 1095.12,-72 1095.12,-72 1156.88,-72 1156.88,-72 1162.88,-72 1168.88,-78 1168.88,-84 1168.88,-84 1168.88,-96 1168.88,-96 1168.88,-102 1162.88,-108 1156.88,-108"/>
<text xml:space="preserve" text-anchor="middle" x="1126" y="-85.55" font-family="Helvetica,sans-Serif" font-size="11.00" fill="white">Ships &amp; Fleets</text>
</g>
<!-- display&#45;&gt;fleets -->
<g id="edge3" class="edge">
<title>display&#45;&gt;fleets</title>
<path fill="none" stroke="#4ecdc4" d="M1126,-143.7C1126,-135.47 1126,-125.48 1126,-116.42"/>
<polygon fill="#4ecdc4" stroke="#4ecdc4" points="1128.45,-116.62 1126,-109.62 1123.55,-116.62 1128.45,-116.62"/>
</g>
<!-- strategic -->
<g id="node5" class="node">
<title>strategic</title>
<path fill="#3d3d5c" stroke="#4ecdc4" d="M1513.38,-108C1513.38,-108 1430.62,-108 1430.62,-108 1424.62,-108 1418.62,-102 1418.62,-96 1418.62,-96 1418.62,-84 1418.62,-84 1418.62,-78 1424.62,-72 1430.62,-72 1430.62,-72 1513.38,-72 1513.38,-72 1519.38,-72 1525.38,-78 1525.38,-84 1525.38,-84 1525.38,-96 1525.38,-96 1525.38,-102 1519.38,-108 1513.38,-108"/>
<text xml:space="preserve" text-anchor="middle" x="1472" y="-85.55" font-family="Helvetica,sans-Serif" font-size="11.00" fill="white">Strategic Elements</text>
</g>
<!-- display&#45;&gt;strategic -->
<g id="edge4" class="edge">
<title>display&#45;&gt;strategic</title>
<path fill="none" stroke="#4ecdc4" d="M1173.38,-151.41C1234.92,-138.96 1342.46,-117.21 1410.31,-103.48"/>
<polygon fill="#4ecdc4" stroke="#4ecdc4" points="1410.52,-105.94 1416.9,-102.15 1409.55,-101.14 1410.52,-105.94"/>
</g>
<!-- sensors -->
<g id="node6" class="node">
<title>sensors</title>
<path fill="#3d3d5c" stroke="#4ecdc4" d="M1847.75,-108C1847.75,-108 1800.25,-108 1800.25,-108 1794.25,-108 1788.25,-102 1788.25,-96 1788.25,-96 1788.25,-84 1788.25,-84 1788.25,-78 1794.25,-72 1800.25,-72 1800.25,-72 1847.75,-72 1847.75,-72 1853.75,-72 1859.75,-78 1859.75,-84 1859.75,-84 1859.75,-96 1859.75,-96 1859.75,-102 1853.75,-108 1847.75,-108"/>
<text xml:space="preserve" text-anchor="middle" x="1824" y="-85.55" font-family="Helvetica,sans-Serif" font-size="11.00" fill="white">Sensor Info</text>
</g>
<!-- display&#45;&gt;sensors -->
<g id="edge5" class="edge">
<title>display&#45;&gt;sensors</title>
<path fill="none" stroke="#4ecdc4" d="M1173.43,-156.24C1301.8,-143.37 1654.79,-107.97 1779.58,-95.45"/>
<polygon fill="#4ecdc4" stroke="#4ecdc4" points="1779.59,-97.92 1786.31,-94.78 1779.1,-93.04 1779.59,-97.92"/>
</g>
<!-- planets -->
<g id="node7" class="node">
<title>planets</title>
<path fill="#2d2d44" stroke="#4ecdc4" d="M42,-36C42,-36 12,-36 12,-36 6,-36 0,-30 0,-24 0,-24 0,-12 0,-12 0,-6 6,0 12,0 12,0 42,0 42,0 48,0 54,-6 54,-12 54,-12 54,-24 54,-24 54,-30 48,-36 42,-36"/>
<text xml:space="preserve" text-anchor="middle" x="27" y="-14.32" font-family="Helvetica,sans-Serif" font-size="9.00" fill="white">Planets</text>
</g>
<!-- bodies&#45;&gt;planets -->
<g id="edge6" class="edge">
<title>bodies&#45;&gt;planets</title>
<path fill="none" stroke="#4ecdc4" d="M268.12,-82.66C218.77,-74.58 134.68,-58.85 65,-36 64,-35.67 62.98,-35.32 61.96,-34.96"/>
<polygon fill="#4ecdc4" stroke="#4ecdc4" points="62.96,-32.72 55.54,-32.49 61.2,-37.29 62.96,-32.72"/>
</g>
<!-- moons -->
<g id="node8" class="node">
<title>moons</title>
<path fill="#2d2d44" stroke="#4ecdc4" d="M118,-36C118,-36 88,-36 88,-36 82,-36 76,-30 76,-24 76,-24 76,-12 76,-12 76,-6 82,0 88,0 88,0 118,0 118,0 124,0 130,-6 130,-12 130,-12 130,-24 130,-24 130,-30 124,-36 118,-36"/>
<text xml:space="preserve" text-anchor="middle" x="103" y="-14.32" font-family="Helvetica,sans-Serif" font-size="9.00" fill="white">Moons</text>
</g>
<!-- bodies&#45;&gt;moons -->
<g id="edge7" class="edge">
<title>bodies&#45;&gt;moons</title>
<path fill="none" stroke="#4ecdc4" d="M267.87,-77.27C233.39,-67.32 183.55,-52.13 141,-36 140.01,-35.63 139.01,-35.24 138.01,-34.84"/>
<polygon fill="#4ecdc4" stroke="#4ecdc4" points="139.04,-32.62 131.64,-32.22 137.18,-37.15 139.04,-32.62"/>
</g>
<!-- moon_names -->
<g id="node9" class="node">
<title>moon_names</title>
<path fill="#2d2d44" stroke="#4ecdc4" d="M210.38,-36C210.38,-36 163.62,-36 163.62,-36 157.62,-36 151.62,-30 151.62,-24 151.62,-24 151.62,-12 151.62,-12 151.62,-6 157.62,0 163.62,0 163.62,0 210.38,0 210.38,0 216.38,0 222.38,-6 222.38,-12 222.38,-12 222.38,-24 222.38,-24 222.38,-30 216.38,-36 210.38,-36"/>
<text xml:space="preserve" text-anchor="middle" x="187" y="-14.32" font-family="Helvetica,sans-Serif" font-size="9.00" fill="white">Moon Names</text>
</g>
<!-- bodies&#45;&gt;moon_names -->
<g id="edge8" class="edge">
<title>bodies&#45;&gt;moon_names</title>
<path fill="none" stroke="#4ecdc4" d="M279.28,-71.52C262.72,-62.09 242.14,-50.38 224.63,-40.41"/>
<polygon fill="#4ecdc4" stroke="#4ecdc4" points="225.94,-38.34 218.64,-37.01 223.52,-42.6 225.94,-38.34"/>
</g>
<!-- asteroids -->
<g id="node10" class="node">
<title>asteroids</title>
<path fill="#2d2d44" stroke="#4ecdc4" d="M287.12,-36C287.12,-36 256.88,-36 256.88,-36 250.88,-36 244.88,-30 244.88,-24 244.88,-24 244.88,-12 244.88,-12 244.88,-6 250.88,0 256.88,0 256.88,0 287.12,0 287.12,0 293.12,0 299.12,-6 299.12,-12 299.12,-12 299.12,-24 299.12,-24 299.12,-30 293.12,-36 287.12,-36"/>
<text xml:space="preserve" text-anchor="middle" x="272" y="-14.32" font-family="Helvetica,sans-Serif" font-size="9.00" fill="white">Asteroids</text>
</g>
<!-- bodies&#45;&gt;asteroids -->
<g id="edge9" class="edge">
<title>bodies&#45;&gt;asteroids</title>
<path fill="none" stroke="#4ecdc4" d="M300.61,-71.7C296.01,-63.22 290.38,-52.86 285.34,-43.58"/>
<polygon fill="#4ecdc4" stroke="#4ecdc4" points="287.5,-42.42 282.01,-37.43 283.19,-44.76 287.5,-42.42"/>
</g>
<!-- comets -->
<g id="node11" class="node">
<title>comets</title>
<path fill="#2d2d44" stroke="#4ecdc4" d="M363,-36C363,-36 333,-36 333,-36 327,-36 321,-30 321,-24 321,-24 321,-12 321,-12 321,-6 327,0 333,0 333,0 363,0 363,0 369,0 375,-6 375,-12 375,-12 375,-24 375,-24 375,-30 369,-36 363,-36"/>
<text xml:space="preserve" text-anchor="middle" x="348" y="-14.32" font-family="Helvetica,sans-Serif" font-size="9.00" fill="white">Comets</text>
</g>
<!-- bodies&#45;&gt;comets -->
<g id="edge10" class="edge">
<title>bodies&#45;&gt;comets</title>
<path fill="none" stroke="#4ecdc4" d="M319.39,-71.7C323.99,-63.22 329.62,-52.86 334.66,-43.58"/>
<polygon fill="#4ecdc4" stroke="#4ecdc4" points="336.81,-44.76 337.99,-37.43 332.5,-42.42 336.81,-44.76"/>
</g>
<!-- comet_names -->
<g id="node12" class="node">
<title>comet_names</title>
<path fill="#2d2d44" stroke="#4ecdc4" d="M459.25,-36C459.25,-36 408.75,-36 408.75,-36 402.75,-36 396.75,-30 396.75,-24 396.75,-24 396.75,-12 396.75,-12 396.75,-6 402.75,0 408.75,0 408.75,0 459.25,0 459.25,0 465.25,0 471.25,-6 471.25,-12 471.25,-12 471.25,-24 471.25,-24 471.25,-30 465.25,-36 459.25,-36"/>
<text xml:space="preserve" text-anchor="middle" x="434" y="-19.2" font-family="Helvetica,sans-Serif" font-size="9.00" fill="white">Comet Names</text>
<text xml:space="preserve" text-anchor="middle" x="434" y="-9.45" font-family="Helvetica,sans-Serif" font-size="9.00" fill="white">(v2.7.0)</text>
</g>
<!-- bodies&#45;&gt;comet_names -->
<g id="edge11" class="edge">
<title>bodies&#45;&gt;comet_names</title>
<path fill="none" stroke="#4ecdc4" d="M340.97,-71.52C357.67,-62.09 378.41,-50.38 396.07,-40.41"/>
<polygon fill="#4ecdc4" stroke="#4ecdc4" points="397.21,-42.58 402.11,-37 394.81,-38.31 397.21,-42.58"/>
</g>
<!-- dwarfs -->
<g id="node13" class="node">
<title>dwarfs</title>
<path fill="#2d2d44" stroke="#4ecdc4" d="M554.5,-36C554.5,-36 505.5,-36 505.5,-36 499.5,-36 493.5,-30 493.5,-24 493.5,-24 493.5,-12 493.5,-12 493.5,-6 499.5,0 505.5,0 505.5,0 554.5,0 554.5,0 560.5,0 566.5,-6 566.5,-12 566.5,-12 566.5,-24 566.5,-24 566.5,-30 560.5,-36 554.5,-36"/>
<text xml:space="preserve" text-anchor="middle" x="530" y="-14.32" font-family="Helvetica,sans-Serif" font-size="9.00" fill="white">Dwarf Planets</text>
</g>
<!-- bodies&#45;&gt;dwarfs -->
<g id="edge12" class="edge">
<title>bodies&#45;&gt;dwarfs</title>
<path fill="none" stroke="#4ecdc4" d="M352.21,-76.52C387.13,-66.08 437.95,-50.58 482,-36 483.01,-35.66 484.04,-35.32 485.08,-34.97"/>
<polygon fill="#4ecdc4" stroke="#4ecdc4" points="485.83,-37.3 491.67,-32.73 484.25,-32.67 485.83,-37.3"/>
</g>
<!-- planet_orbits -->
<g id="node14" class="node">
<title>planet_orbits</title>
<path fill="#2d2d44" stroke="#4ecdc4" d="M645.25,-36C645.25,-36 600.75,-36 600.75,-36 594.75,-36 588.75,-30 588.75,-24 588.75,-24 588.75,-12 588.75,-12 588.75,-6 594.75,0 600.75,0 600.75,0 645.25,0 645.25,0 651.25,0 657.25,-6 657.25,-12 657.25,-12 657.25,-24 657.25,-24 657.25,-30 651.25,-36 645.25,-36"/>
<text xml:space="preserve" text-anchor="middle" x="623" y="-14.32" font-family="Helvetica,sans-Serif" font-size="9.00" fill="white">Planet Orbits</text>
</g>
<!-- orbits&#45;&gt;planet_orbits -->
<g id="edge13" class="edge">
<title>orbits&#45;&gt;planet_orbits</title>
<path fill="none" stroke="#4ecdc4" d="M767.53,-73.98C737.35,-62.5 695.83,-46.71 665.04,-34.99"/>
<polygon fill="#4ecdc4" stroke="#4ecdc4" points="666.28,-32.84 658.87,-32.64 664.54,-37.42 666.28,-32.84"/>
</g>
<!-- moon_orbits -->
<g id="node15" class="node">
<title>moon_orbits</title>
<path fill="#2d2d44" stroke="#4ecdc4" d="M732.75,-36C732.75,-36 691.25,-36 691.25,-36 685.25,-36 679.25,-30 679.25,-24 679.25,-24 679.25,-12 679.25,-12 679.25,-6 685.25,0 691.25,0 691.25,0 732.75,0 732.75,0 738.75,0 744.75,-6 744.75,-12 744.75,-12 744.75,-24 744.75,-24 744.75,-30 738.75,-36 732.75,-36"/>
<text xml:space="preserve" text-anchor="middle" x="712" y="-14.32" font-family="Helvetica,sans-Serif" font-size="9.00" fill="white">Moon Orbits</text>
</g>
<!-- orbits&#45;&gt;moon_orbits -->
<g id="edge14" class="edge">
<title>orbits&#45;&gt;moon_orbits</title>
<path fill="none" stroke="#4ecdc4" d="M783.52,-71.7C771.07,-62.53 755.64,-51.16 742.3,-41.33"/>
<polygon fill="#4ecdc4" stroke="#4ecdc4" points="743.85,-39.42 736.76,-37.24 740.94,-43.37 743.85,-39.42"/>
</g>
<!-- ship_paths -->
<g id="node16" class="node">
<title>ship_paths</title>
<path fill="#2d2d44" stroke="#4ecdc4" d="M834.88,-36C834.88,-36 779.12,-36 779.12,-36 773.12,-36 767.12,-30 767.12,-24 767.12,-24 767.12,-12 767.12,-12 767.12,-6 773.12,0 779.12,0 779.12,0 834.88,0 834.88,0 840.88,0 846.88,-6 846.88,-12 846.88,-12 846.88,-24 846.88,-24 846.88,-30 840.88,-36 834.88,-36"/>
<text xml:space="preserve" text-anchor="middle" x="807" y="-19.2" font-family="Helvetica,sans-Serif" font-size="9.00" fill="white">Ship Movement</text>
<text xml:space="preserve" text-anchor="middle" x="807" y="-9.45" font-family="Helvetica,sans-Serif" font-size="9.00" fill="white">Lines</text>
</g>
<!-- orbits&#45;&gt;ship_paths -->
<g id="edge15" class="edge">
<title>orbits&#45;&gt;ship_paths</title>
<path fill="none" stroke="#4ecdc4" d="M807,-71.7C807,-63.47 807,-53.48 807,-44.42"/>
<polygon fill="#4ecdc4" stroke="#4ecdc4" points="809.45,-44.62 807,-37.62 804.55,-44.62 809.45,-44.62"/>
</g>
<!-- selected_only -->
<g id="node17" class="node">
<title>selected_only</title>
<path fill="#2d2d44" stroke="#4ecdc4" d="M930.88,-36C930.88,-36 881.12,-36 881.12,-36 875.12,-36 869.12,-30 869.12,-24 869.12,-24 869.12,-12 869.12,-12 869.12,-6 875.12,0 881.12,0 881.12,0 930.88,0 930.88,0 936.88,0 942.88,-6 942.88,-12 942.88,-12 942.88,-24 942.88,-24 942.88,-30 936.88,-36 930.88,-36"/>
<text xml:space="preserve" text-anchor="middle" x="906" y="-19.2" font-family="Helvetica,sans-Serif" font-size="9.00" fill="white">Selected Orbit</text>
<text xml:space="preserve" text-anchor="middle" x="906" y="-9.45" font-family="Helvetica,sans-Serif" font-size="9.00" fill="white">Only</text>
</g>
<!-- orbits&#45;&gt;selected_only -->
<g id="edge16" class="edge">
<title>orbits&#45;&gt;selected_only</title>
<path fill="none" stroke="#4ecdc4" d="M831.73,-71.52C844.82,-62.26 861.03,-50.8 874.96,-40.95"/>
<polygon fill="#4ecdc4" stroke="#4ecdc4" points="876.05,-43.18 880.35,-37.13 873.22,-39.18 876.05,-43.18"/>
</g>
<!-- player_fleets -->
<g id="node18" class="node">
<title>player_fleets</title>
<path fill="#2d2d44" stroke="#4ecdc4" d="M1022.62,-36C1022.62,-36 977.38,-36 977.38,-36 971.38,-36 965.38,-30 965.38,-24 965.38,-24 965.38,-12 965.38,-12 965.38,-6 971.38,0 977.38,0 977.38,0 1022.62,0 1022.62,0 1028.62,0 1034.62,-6 1034.62,-12 1034.62,-12 1034.62,-24 1034.62,-24 1034.62,-30 1028.62,-36 1022.62,-36"/>
<text xml:space="preserve" text-anchor="middle" x="1000" y="-14.32" font-family="Helvetica,sans-Serif" font-size="9.00" fill="white">Player Fleets</text>
</g>
<!-- fleets&#45;&gt;player_fleets -->
<g id="edge17" class="edge">
<title>fleets&#45;&gt;player_fleets</title>
<path fill="none" stroke="#4ecdc4" d="M1094.53,-71.52C1077.41,-62.01 1056.11,-50.17 1038.07,-40.15"/>
<polygon fill="#4ecdc4" stroke="#4ecdc4" points="1039.7,-38.25 1032.39,-37 1037.32,-42.54 1039.7,-38.25"/>
</g>
<!-- contacts -->
<g id="node19" class="node">
<title>contacts</title>
<path fill="#2d2d44" stroke="#4ecdc4" d="M1099,-36C1099,-36 1069,-36 1069,-36 1063,-36 1057,-30 1057,-24 1057,-24 1057,-12 1057,-12 1057,-6 1063,0 1069,0 1069,0 1099,0 1099,0 1105,0 1111,-6 1111,-12 1111,-12 1111,-24 1111,-24 1111,-30 1105,-36 1099,-36"/>
<text xml:space="preserve" text-anchor="middle" x="1084" y="-14.32" font-family="Helvetica,sans-Serif" font-size="9.00" fill="white">Contacts</text>
</g>
<!-- fleets&#45;&gt;contacts -->
<g id="edge18" class="edge">
<title>fleets&#45;&gt;contacts</title>
<path fill="none" stroke="#4ecdc4" d="M1115.62,-71.7C1110.48,-63.14 1104.19,-52.66 1098.58,-43.3"/>
<polygon fill="#4ecdc4" stroke="#4ecdc4" points="1100.74,-42.14 1095.04,-37.4 1096.54,-44.67 1100.74,-42.14"/>
</g>
<!-- civilian -->
<g id="node20" class="node">
<title>civilian</title>
<path fill="#2d2d44" stroke="#4ecdc4" d="M1193.12,-36C1193.12,-36 1144.88,-36 1144.88,-36 1138.88,-36 1132.88,-30 1132.88,-24 1132.88,-24 1132.88,-12 1132.88,-12 1132.88,-6 1138.88,0 1144.88,0 1144.88,0 1193.12,0 1193.12,0 1199.12,0 1205.12,-6 1205.12,-12 1205.12,-12 1205.12,-24 1205.12,-24 1205.12,-30 1199.12,-36 1193.12,-36"/>
<text xml:space="preserve" text-anchor="middle" x="1169" y="-14.32" font-family="Helvetica,sans-Serif" font-size="9.00" fill="white">Civilian Ships</text>
</g>
<!-- fleets&#45;&gt;civilian -->
<g id="edge19" class="edge">
<title>fleets&#45;&gt;civilian</title>
<path fill="none" stroke="#4ecdc4" d="M1136.63,-71.7C1141.89,-63.14 1148.33,-52.66 1154.07,-43.3"/>
<polygon fill="#4ecdc4" stroke="#4ecdc4" points="1156.12,-44.64 1157.7,-37.39 1151.95,-42.08 1156.12,-44.64"/>
</g>
<!-- fleet_names -->
<g id="node21" class="node">
<title>fleet_names</title>
<path fill="#2d2d44" stroke="#4ecdc4" d="M1282.88,-36C1282.88,-36 1239.12,-36 1239.12,-36 1233.12,-36 1227.12,-30 1227.12,-24 1227.12,-24 1227.12,-12 1227.12,-12 1227.12,-6 1233.12,0 1239.12,0 1239.12,0 1282.88,0 1282.88,0 1288.88,0 1294.88,-6 1294.88,-12 1294.88,-12 1294.88,-24 1294.88,-24 1294.88,-30 1288.88,-36 1282.88,-36"/>
<text xml:space="preserve" text-anchor="middle" x="1261" y="-14.32" font-family="Helvetica,sans-Serif" font-size="9.00" fill="white">Fleet Names</text>
</g>
<!-- fleets&#45;&gt;fleet_names -->
<g id="edge20" class="edge">
<title>fleets&#45;&gt;fleet_names</title>
<path fill="none" stroke="#4ecdc4" d="M1159.72,-71.52C1178.06,-62.01 1200.88,-50.17 1220.21,-40.15"/>
<polygon fill="#4ecdc4" stroke="#4ecdc4" points="1221.28,-42.35 1226.37,-36.96 1219.03,-38 1221.28,-42.35"/>
</g>
<!-- jump_points -->
<g id="node22" class="node">
<title>jump_points</title>
<path fill="#2d2d44" stroke="#4ecdc4" d="M1371.12,-36C1371.12,-36 1328.88,-36 1328.88,-36 1322.88,-36 1316.88,-30 1316.88,-24 1316.88,-24 1316.88,-12 1316.88,-12 1316.88,-6 1322.88,0 1328.88,0 1328.88,0 1371.12,0 1371.12,0 1377.12,0 1383.12,-6 1383.12,-12 1383.12,-12 1383.12,-24 1383.12,-24 1383.12,-30 1377.12,-36 1371.12,-36"/>
<text xml:space="preserve" text-anchor="middle" x="1350" y="-14.32" font-family="Helvetica,sans-Serif" font-size="9.00" fill="white">Jump Points</text>
</g>
<!-- strategic&#45;&gt;jump_points -->
<g id="edge21" class="edge">
<title>strategic&#45;&gt;jump_points</title>
<path fill="none" stroke="#4ecdc4" d="M1441.53,-71.52C1425.1,-62.09 1404.7,-50.38 1387.32,-40.41"/>
<polygon fill="#4ecdc4" stroke="#4ecdc4" points="1388.69,-38.37 1381.4,-37.01 1386.25,-42.62 1388.69,-38.37"/>
</g>
<!-- survey_locs -->
<g id="node23" class="node">
<title>survey_locs</title>
<path fill="#2d2d44" stroke="#4ecdc4" d="M1448.88,-36C1448.88,-36 1417.12,-36 1417.12,-36 1411.12,-36 1405.12,-30 1405.12,-24 1405.12,-24 1405.12,-12 1405.12,-12 1405.12,-6 1411.12,0 1417.12,0 1417.12,0 1448.88,0 1448.88,0 1454.88,0 1460.88,-6 1460.88,-12 1460.88,-12 1460.88,-24 1460.88,-24 1460.88,-30 1454.88,-36 1448.88,-36"/>
<text xml:space="preserve" text-anchor="middle" x="1433" y="-19.2" font-family="Helvetica,sans-Serif" font-size="9.00" fill="white">Survey</text>
<text xml:space="preserve" text-anchor="middle" x="1433" y="-9.45" font-family="Helvetica,sans-Serif" font-size="9.00" fill="white">Locations</text>
</g>
<!-- strategic&#45;&gt;survey_locs -->
<g id="edge22" class="edge">
<title>strategic&#45;&gt;survey_locs</title>
<path fill="none" stroke="#4ecdc4" d="M1462.36,-71.7C1457.59,-63.14 1451.75,-52.66 1446.54,-43.3"/>
<polygon fill="#4ecdc4" stroke="#4ecdc4" points="1448.81,-42.35 1443.27,-37.43 1444.53,-44.73 1448.81,-42.35"/>
</g>
<!-- waypoints -->
<g id="node24" class="node">
<title>waypoints</title>
<path fill="#2d2d44" stroke="#4ecdc4" d="M1529,-36C1529,-36 1495,-36 1495,-36 1489,-36 1483,-30 1483,-24 1483,-24 1483,-12 1483,-12 1483,-6 1489,0 1495,0 1495,0 1529,0 1529,0 1535,0 1541,-6 1541,-12 1541,-12 1541,-24 1541,-24 1541,-30 1535,-36 1529,-36"/>
<text xml:space="preserve" text-anchor="middle" x="1512" y="-14.32" font-family="Helvetica,sans-Serif" font-size="9.00" fill="white">Waypoints</text>
</g>
<!-- strategic&#45;&gt;waypoints -->
<g id="edge23" class="edge">
<title>strategic&#45;&gt;waypoints</title>
<path fill="none" stroke="#4ecdc4" d="M1481.89,-71.7C1486.78,-63.14 1492.77,-52.66 1498.11,-43.3"/>
<polygon fill="#4ecdc4" stroke="#4ecdc4" points="1500.13,-44.71 1501.48,-37.42 1495.87,-42.28 1500.13,-44.71"/>
</g>
<!-- mineral_icons -->
<g id="node25" class="node">
<title>mineral_icons</title>
<path fill="#2d2d44" stroke="#4ecdc4" d="M1621.38,-36C1621.38,-36 1574.62,-36 1574.62,-36 1568.62,-36 1562.62,-30 1562.62,-24 1562.62,-24 1562.62,-12 1562.62,-12 1562.62,-6 1568.62,0 1574.62,0 1574.62,0 1621.38,0 1621.38,0 1627.38,0 1633.38,-6 1633.38,-12 1633.38,-12 1633.38,-24 1633.38,-24 1633.38,-30 1627.38,-36 1621.38,-36"/>
<text xml:space="preserve" text-anchor="middle" x="1598" y="-14.32" font-family="Helvetica,sans-Serif" font-size="9.00" fill="white">Mineral Icons</text>
</g>
<!-- strategic&#45;&gt;mineral_icons -->
<g id="edge24" class="edge">
<title>strategic&#45;&gt;mineral_icons</title>
<path fill="none" stroke="#4ecdc4" d="M1503.47,-71.52C1520.59,-62.01 1541.89,-50.17 1559.93,-40.15"/>
<polygon fill="#4ecdc4" stroke="#4ecdc4" points="1560.68,-42.54 1565.61,-37 1558.3,-38.25 1560.68,-42.54"/>
</g>
<!-- lagrange -->
<g id="node26" class="node">
<title>lagrange</title>
<path fill="#2d2d44" stroke="#4ecdc4" d="M1698.88,-36C1698.88,-36 1667.12,-36 1667.12,-36 1661.12,-36 1655.12,-30 1655.12,-24 1655.12,-24 1655.12,-12 1655.12,-12 1655.12,-6 1661.12,0 1667.12,0 1667.12,0 1698.88,0 1698.88,0 1704.88,0 1710.88,-6 1710.88,-12 1710.88,-12 1710.88,-24 1710.88,-24 1710.88,-30 1704.88,-36 1698.88,-36"/>
<text xml:space="preserve" text-anchor="middle" x="1683" y="-19.2" font-family="Helvetica,sans-Serif" font-size="9.00" fill="white">Lagrange</text>
<text xml:space="preserve" text-anchor="middle" x="1683" y="-9.45" font-family="Helvetica,sans-Serif" font-size="9.00" fill="white">Points</text>
</g>
<!-- strategic&#45;&gt;lagrange -->
<g id="edge25" class="edge">
<title>strategic&#45;&gt;lagrange</title>
<path fill="none" stroke="#4ecdc4" d="M1525.59,-74.17C1559.79,-64.29 1604.89,-50.5 1644,-36 1645.13,-35.58 1646.27,-35.15 1647.41,-34.71"/>
<polygon fill="#4ecdc4" stroke="#4ecdc4" points="1648.05,-37.09 1653.63,-32.2 1646.22,-32.54 1648.05,-37.09"/>
</g>
<!-- sensor_range -->
<g id="node27" class="node">
<title>sensor_range</title>
<path fill="#2d2d44" stroke="#4ecdc4" d="M1800.88,-36C1800.88,-36 1745.12,-36 1745.12,-36 1739.12,-36 1733.12,-30 1733.12,-24 1733.12,-24 1733.12,-12 1733.12,-12 1733.12,-6 1739.12,0 1745.12,0 1745.12,0 1800.88,0 1800.88,0 1806.88,0 1812.88,-6 1812.88,-12 1812.88,-12 1812.88,-24 1812.88,-24 1812.88,-30 1806.88,-36 1800.88,-36"/>
<text xml:space="preserve" text-anchor="middle" x="1773" y="-14.32" font-family="Helvetica,sans-Serif" font-size="9.00" fill="white">Sensor Ranges</text>
</g>
<!-- sensors&#45;&gt;sensor_range -->
<g id="edge26" class="edge">
<title>sensors&#45;&gt;sensor_range</title>
<path fill="none" stroke="#4ecdc4" d="M1811.39,-71.7C1805.03,-62.97 1797.22,-52.24 1790.3,-42.75"/>
<polygon fill="#4ecdc4" stroke="#4ecdc4" points="1792.46,-41.54 1786.35,-37.33 1788.49,-44.43 1792.46,-41.54"/>
</g>
<!-- missiles -->
<g id="node28" class="node">
<title>missiles</title>
<path fill="#2d2d44" stroke="#4ecdc4" d="M1902.88,-36C1902.88,-36 1847.12,-36 1847.12,-36 1841.12,-36 1835.12,-30 1835.12,-24 1835.12,-24 1835.12,-12 1835.12,-12 1835.12,-6 1841.12,0 1847.12,0 1847.12,0 1902.88,0 1902.88,0 1908.88,0 1914.88,-6 1914.88,-12 1914.88,-12 1914.88,-24 1914.88,-24 1914.88,-30 1908.88,-36 1902.88,-36"/>
<text xml:space="preserve" text-anchor="middle" x="1875" y="-14.32" font-family="Helvetica,sans-Serif" font-size="9.00" fill="white">Missile Markers</text>
</g>
<!-- sensors&#45;&gt;missiles -->
<g id="edge27" class="edge">
<title>sensors&#45;&gt;missiles</title>
<path fill="none" stroke="#4ecdc4" d="M1836.61,-71.7C1842.97,-62.97 1850.78,-52.24 1857.7,-42.75"/>
<polygon fill="#4ecdc4" stroke="#4ecdc4" points="1859.51,-44.43 1861.65,-37.33 1855.54,-41.54 1859.51,-44.43"/>
</g>
<!-- grav_survey -->
<g id="node29" class="node">
<title>grav_survey</title>
<path fill="#2d2d44" stroke="#4ecdc4" d="M1991.12,-36C1991.12,-36 1948.88,-36 1948.88,-36 1942.88,-36 1936.88,-30 1936.88,-24 1936.88,-24 1936.88,-12 1936.88,-12 1936.88,-6 1942.88,0 1948.88,0 1948.88,0 1991.12,0 1991.12,0 1997.12,0 2003.12,-6 2003.12,-12 2003.12,-12 2003.12,-24 2003.12,-24 2003.12,-30 1997.12,-36 1991.12,-36"/>
<text xml:space="preserve" text-anchor="middle" x="1970" y="-19.2" font-family="Helvetica,sans-Serif" font-size="9.00" fill="white">Grav Survey</text>
<text xml:space="preserve" text-anchor="middle" x="1970" y="-9.45" font-family="Helvetica,sans-Serif" font-size="9.00" fill="white">Progress</text>
</g>
<!-- sensors&#45;&gt;grav_survey -->
<g id="edge28" class="edge">
<title>sensors&#45;&gt;grav_survey</title>
<path fill="none" stroke="#4ecdc4" d="M1860.09,-71.7C1881.09,-61.63 1907.62,-48.91 1929.35,-38.49"/>
<polygon fill="#4ecdc4" stroke="#4ecdc4" points="1930.2,-40.8 1935.46,-35.56 1928.09,-36.38 1930.2,-40.8"/>
</g>
</g>
</svg>
