<?xml version="1.0" encoding="UTF-8" standalone="no"?>
<!DOCTYPE svg PUBLIC "-//W3C//DTD SVG 1.1//EN"
 "http://www.w3.org/Graphics/SVG/1.1/DTD/svg11.dtd">
<!-- Generated by graphviz version 14.1.2 (20260124.0452)
 -->
<!-- Title: GameCreationWorkflow Pages: 1 -->
<svg width="260pt" height="966pt"
 viewBox="0.00 0.00 260.00 966.00" xmlns="http://www.w3.org/2000/svg" xmlns:xlink="http://www.w3.org/1999/xlink">
<g id="graph0" class="graph" transform="scale(1 1) rotate(0) translate(4 961.5)">
<title>GameCreationWorkflow</title>
<polygon fill="#1a1a2e" stroke="none" points="-4,4 -4,-961.5 255.5,-961.5 255.5,4 -4,4"/>
<g id="clust1" class="cluster">
<title>cluster_options</title>
<polygon fill="#1a1a2e" stroke="#4ecdc4" stroke-dasharray="5,2" points="22,-600.5 22,-894.5 184,-894.5 184,-600.5 22,-600.5"/>
<text xml:space="preserve" text-anchor="middle" x="103" y="-877.2" font-family="Helvetica,sans-Serif" font-size="14.00" fill="#888888">Phase 1: Game Options</text>
</g>
<g id="clust2" class="cluster">
<title>cluster_race</title>
<polygon fill="#1a1a2e" stroke="#4ecdc4" stroke-dasharray="5,2" points="23,-269 23,-563 182,-563 182,-269 23,-269"/>
<text xml:space="preserve" text-anchor="middle" x="102.5" y="-545.7" font-family="Helvetica,sans-Serif" font-size="14.00" fill="#888888">Phase 2: Race Creation</text>
</g>
<g id="clust3" class="cluster">
<title>cluster_start</title>
<polygon fill="#1a1a2e" stroke="#4ecdc4" stroke-dasharray="5,2" points="8,-65 8,-231.5 221,-231.5 221,-65 8,-65"/>
<text xml:space="preserve" text-anchor="middle" x="114.5" y="-214.2" font-family="Helvetica,sans-Serif" font-size="14.00" fill="#888888">Phase 3: Starting Conditions</text>
</g>
<!-- start -->
<g id="node1" class="node">
<title>start</title>
<ellipse fill="#4ecdc4" stroke="#4ecdc4" cx="126" cy="-939.5" rx="42.54" ry="18"/>
<text xml:space="preserve" text-anchor="middle" x="126" y="-935.05" font-family="Helvetica,sans-Serif" font-size="11.00" fill="#1a1a2e">New Game</text>
</g>
<!-- game_name -->
<g id="node2" class="node">
<title>game_name</title>
<path fill="#2d2d44" stroke="#4ecdc4" d="M162.5,-863.5C162.5,-863.5 89.5,-863.5 89.5,-863.5 83.5,-863.5 77.5,-857.5 77.5,-851.5 77.5,-851.5 77.5,-839.5 77.5,-839.5 77.5,-833.5 83.5,-827.5 89.5,-827.5 89.5,-827.5 162.5,-827.5 162.5,-827.5 168.5,-827.5 174.5,-833.5 174.5,-839.5 174.5,-839.5 174.5,-851.5 174.5,-851.5 174.5,-857.5 168.5,-863.5 162.5,-863.5"/>
<text xml:space="preserve" text-anchor="middle" x="126" y="-847.05" font-family="Helvetica,sans-Serif" font-size="11.00" fill="white">Set Game Name</text>
<text xml:space="preserve" text-anchor="middle" x="126" y="-835.05" font-family="Helvetica,sans-Serif" font-size="11.00" fill="white">&amp; Basic Settings</text>
</g>
<!-- start&#45;&gt;game_name -->
<g id="edge1" class="edge">
<title>start&#45;&gt;game_name</title>
<path fill="none" stroke="#4ecdc4" d="M126,-921.2C126,-907.57 126,-888.36 126,-872.84"/>
<polygon fill="#4ecdc4" stroke="#4ecdc4" points="128.8,-873.24 126,-865.24 123.2,-873.24 128.8,-873.24"/>
</g>
<!-- galaxy_opts -->
<g id="node3" class="node">
<title>galaxy_opts</title>
<path fill="#2d2d44" stroke="#4ecdc4" d="M163.62,-790.5C163.62,-790.5 88.38,-790.5 88.38,-790.5 82.38,-790.5 76.38,-784.5 76.38,-778.5 76.38,-778.5 76.38,-766.5 76.38,-766.5 76.38,-760.5 82.38,-754.5 88.38,-754.5 88.38,-754.5 163.62,-754.5 163.62,-754.5 169.62,-754.5 175.62,-760.5 175.62,-766.5 175.62,-766.5 175.62,-778.5 175.62,-778.5 175.62,-784.5 169.62,-790.5 163.62,-790.5"/>
<text xml:space="preserve" text-anchor="middle" x="126" y="-774.05" font-family="Helvetica,sans-Serif" font-size="11.00" fill="white">Configure Galaxy</text>
<text xml:space="preserve" text-anchor="middle" x="126" y="-762.05" font-family="Helvetica,sans-Serif" font-size="11.00" fill="white">Generation</text>
</g>
<!-- game_name&#45;&gt;galaxy_opts -->
<g id="edge2" class="edge">
<title>game_name&#45;&gt;galaxy_opts</title>
<path fill="none" stroke="#4ecdc4" d="M126,-827.31C126,-819.12 126,-809.12 126,-799.98"/>
<polygon fill="#4ecdc4" stroke="#4ecdc4" points="128.8,-800.04 126,-792.04 123.2,-800.04 128.8,-800.04"/>
</g>
<!-- npr_opts -->
<g id="node4" class="node">
<title>npr_opts</title>
<path fill="#2d2d44" stroke="#4ecdc4" d="M153.12,-717.5C153.12,-717.5 104.88,-717.5 104.88,-717.5 98.88,-717.5 92.88,-711.5 92.88,-705.5 92.88,-705.5 92.88,-693.5 92.88,-693.5 92.88,-687.5 98.88,-681.5 104.88,-681.5 104.88,-681.5 153.12,-681.5 153.12,-681.5 159.12,-681.5 165.12,-687.5 165.12,-693.5 165.12,-693.5 165.12,-705.5 165.12,-705.5 165.12,-711.5 159.12,-717.5 153.12,-717.5"/>
<text xml:space="preserve" text-anchor="middle" x="129" y="-701.05" font-family="Helvetica,sans-Serif" font-size="11.00" fill="white">Set NPR</text>
<text xml:space="preserve" text-anchor="middle" x="129" y="-689.05" font-family="Helvetica,sans-Serif" font-size="11.00" fill="white">Parameters</text>
</g>
<!-- galaxy_opts&#45;&gt;npr_opts -->
<g id="edge3" class="edge">
<title>galaxy_opts&#45;&gt;npr_opts</title>
<path fill="none" stroke="#4ecdc4" d="M126.73,-754.31C127.07,-746.12 127.49,-736.12 127.88,-726.98"/>
<polygon fill="#4ecdc4" stroke="#4ecdc4" points="130.68,-727.15 128.22,-719.04 125.08,-726.92 130.68,-727.15"/>
</g>
<!-- spoiler_opts -->
<g id="node5" class="node">
<title>spoiler_opts</title>
<path fill="#2d2d44" stroke="#4ecdc4" d="M158.75,-644.5C158.75,-644.5 99.25,-644.5 99.25,-644.5 93.25,-644.5 87.25,-638.5 87.25,-632.5 87.25,-632.5 87.25,-620.5 87.25,-620.5 87.25,-614.5 93.25,-608.5 99.25,-608.5 99.25,-608.5 158.75,-608.5 158.75,-608.5 164.75,-608.5 170.75,-614.5 170.75,-620.5 170.75,-620.5 170.75,-632.5 170.75,-632.5 170.75,-638.5 164.75,-644.5 158.75,-644.5"/>
<text xml:space="preserve" text-anchor="middle" x="129" y="-628.05" font-family="Helvetica,sans-Serif" font-size="11.00" fill="white">Configure</text>
<text xml:space="preserve" text-anchor="middle" x="129" y="-616.05" font-family="Helvetica,sans-Serif" font-size="11.00" fill="white">Spoiler Races</text>
</g>
<!-- npr_opts&#45;&gt;spoiler_opts -->
<g id="edge4" class="edge">
<title>npr_opts&#45;&gt;spoiler_opts</title>
<path fill="none" stroke="#4ecdc4" d="M129,-681.31C129,-673.12 129,-663.12 129,-653.98"/>
<polygon fill="#4ecdc4" stroke="#4ecdc4" points="131.8,-654.04 129,-646.04 126.2,-654.04 131.8,-654.04"/>
</g>
<!-- note1 -->
<g id="node14" class="node">
<title>note1</title>
<polygon fill="#2d2d44" stroke="#4ecdc4" points="244.38,-644.5 191.62,-644.5 191.62,-608.5 250.38,-608.5 250.38,-638.5 244.38,-644.5"/>
<polyline fill="none" stroke="#4ecdc4" points="244.38,-644.5 244.38,-638.5"/>
<polyline fill="none" stroke="#4ecdc4" points="250.38,-638.5 244.38,-638.5"/>
<text xml:space="preserve" text-anchor="middle" x="221" y="-627.7" font-family="Helvetica,sans-Serif" font-size="9.00" fill="white">Modifiable</text>
<text xml:space="preserve" text-anchor="middle" x="221" y="-617.95" font-family="Helvetica,sans-Serif" font-size="9.00" fill="white">Anytime</text>
</g>
<!-- npr_opts&#45;&gt;note1 -->
<g id="edge14" class="edge">
<title>npr_opts&#45;&gt;note1</title>
<path fill="none" stroke="#666666" stroke-dasharray="1,5" d="M151.27,-681.31C165.63,-670.23 184.23,-655.87 198.62,-644.77"/>
</g>
<!-- species -->
<g id="node6" class="node">
<title>species</title>
<path fill="#2d2d44" stroke="#4ecdc4" d="M161.38,-532C161.38,-532 96.62,-532 96.62,-532 90.62,-532 84.62,-526 84.62,-520 84.62,-520 84.62,-508 84.62,-508 84.62,-502 90.62,-496 96.62,-496 96.62,-496 161.38,-496 161.38,-496 167.38,-496 173.38,-502 173.38,-508 173.38,-508 173.38,-520 173.38,-520 173.38,-526 167.38,-532 161.38,-532"/>
<text xml:space="preserve" text-anchor="middle" x="129" y="-515.55" font-family="Helvetica,sans-Serif" font-size="11.00" fill="white">Define Species</text>
<text xml:space="preserve" text-anchor="middle" x="129" y="-503.55" font-family="Helvetica,sans-Serif" font-size="11.00" fill="white">Biology</text>
</g>
<!-- spoiler_opts&#45;&gt;species -->
<g id="edge5" class="edge">
<title>spoiler_opts&#45;&gt;species</title>
<path fill="none" stroke="#4ecdc4" d="M129,-608.23C129,-590.39 129,-562.31 129,-541.63"/>
<polygon fill="#4ecdc4" stroke="#4ecdc4" points="131.8,-541.66 129,-533.66 126.2,-541.66 131.8,-541.66"/>
<text xml:space="preserve" text-anchor="middle" x="158.62" y="-581.95" font-family="Helvetica,sans-Serif" font-size="9.00" fill="#888888">Proceed to</text>
<text xml:space="preserve" text-anchor="middle" x="158.62" y="-572.2" font-family="Helvetica,sans-Serif" font-size="9.00" fill="#888888">Race Creation</text>
</g>
<!-- traits -->
<g id="node7" class="node">
<title>traits</title>
<path fill="#2d2d44" stroke="#4ecdc4" d="M152.38,-459C152.38,-459 105.62,-459 105.62,-459 99.62,-459 93.62,-453 93.62,-447 93.62,-447 93.62,-435 93.62,-435 93.62,-429 99.62,-423 105.62,-423 105.62,-423 152.38,-423 152.38,-423 158.38,-423 164.38,-429 164.38,-435 164.38,-435 164.38,-447 164.38,-447 164.38,-453 158.38,-459 152.38,-459"/>
<text xml:space="preserve" text-anchor="middle" x="129" y="-442.55" font-family="Helvetica,sans-Serif" font-size="11.00" fill="white">Allocate</text>
<text xml:space="preserve" text-anchor="middle" x="129" y="-430.55" font-family="Helvetica,sans-Serif" font-size="11.00" fill="white">Trait Points</text>
</g>
<!-- species&#45;&gt;traits -->
<g id="edge6" class="edge">
<title>species&#45;&gt;traits</title>
<path fill="none" stroke="#4ecdc4" d="M129,-495.81C129,-487.62 129,-477.62 129,-468.48"/>
<polygon fill="#4ecdc4" stroke="#4ecdc4" points="131.8,-468.54 129,-460.54 126.2,-468.54 131.8,-468.54"/>
</g>
<!-- naming -->
<g id="node8" class="node">
<title>naming</title>
<path fill="#2d2d44" stroke="#4ecdc4" d="M152.5,-386C152.5,-386 103.5,-386 103.5,-386 97.5,-386 91.5,-380 91.5,-374 91.5,-374 91.5,-362 91.5,-362 91.5,-356 97.5,-350 103.5,-350 103.5,-350 152.5,-350 152.5,-350 158.5,-350 164.5,-356 164.5,-362 164.5,-362 164.5,-374 164.5,-374 164.5,-380 158.5,-386 152.5,-386"/>
<text xml:space="preserve" text-anchor="middle" x="128" y="-369.55" font-family="Helvetica,sans-Serif" font-size="11.00" fill="white">Set Naming</text>
<text xml:space="preserve" text-anchor="middle" x="128" y="-357.55" font-family="Helvetica,sans-Serif" font-size="11.00" fill="white">Theme</text>
</g>
<!-- traits&#45;&gt;naming -->
<g id="edge7" class="edge">
<title>traits&#45;&gt;naming</title>
<path fill="none" stroke="#4ecdc4" d="M128.76,-422.81C128.64,-414.62 128.5,-404.62 128.37,-395.48"/>
<polygon fill="#4ecdc4" stroke="#4ecdc4" points="131.17,-395.5 128.26,-387.54 125.57,-395.58 131.17,-395.5"/>
</g>
<!-- note2 -->
<g id="node15" class="node">
<title>note2</title>
<polygon fill="#ff6b6b" stroke="#4ecdc4" points="245.5,-386 190.5,-386 190.5,-350 251.5,-350 251.5,-380 245.5,-386"/>
<polyline fill="none" stroke="#4ecdc4" points="245.5,-386 245.5,-380"/>
<polyline fill="none" stroke="#4ecdc4" points="251.5,-380 245.5,-380"/>
<text xml:space="preserve" text-anchor="middle" x="221" y="-369.2" font-family="Helvetica,sans-Serif" font-size="9.00" fill="white">Permanent</text>
<text xml:space="preserve" text-anchor="middle" x="221" y="-359.45" font-family="Helvetica,sans-Serif" font-size="9.00" fill="white">Choices</text>
</g>
<!-- traits&#45;&gt;note2 -->
<g id="edge15" class="edge">
<title>traits&#45;&gt;note2</title>
<path fill="none" stroke="#666666" stroke-dasharray="1,5" d="M151.27,-422.81C165.63,-411.73 184.23,-397.37 198.62,-386.27"/>
</g>
<!-- government -->
<g id="node9" class="node">
<title>government</title>
<path fill="#2d2d44" stroke="#4ecdc4" d="M161.75,-313C161.75,-313 84.25,-313 84.25,-313 78.25,-313 72.25,-307 72.25,-301 72.25,-301 72.25,-289 72.25,-289 72.25,-283 78.25,-277 84.25,-277 84.25,-277 161.75,-277 161.75,-277 167.75,-277 173.75,-283 173.75,-289 173.75,-289 173.75,-301 173.75,-301 173.75,-307 167.75,-313 161.75,-313"/>
<text xml:space="preserve" text-anchor="middle" x="123" y="-296.55" font-family="Helvetica,sans-Serif" font-size="11.00" fill="white">Choose</text>
<text xml:space="preserve" text-anchor="middle" x="123" y="-284.55" font-family="Helvetica,sans-Serif" font-size="11.00" fill="white">Government Type</text>
</g>
<!-- naming&#45;&gt;government -->
<g id="edge8" class="edge">
<title>naming&#45;&gt;government</title>
<path fill="none" stroke="#4ecdc4" d="M126.79,-349.81C126.21,-341.62 125.51,-331.62 124.87,-322.48"/>
<polygon fill="#4ecdc4" stroke="#4ecdc4" points="127.66,-322.32 124.31,-314.54 122.07,-322.72 127.66,-322.32"/>
</g>
<!-- start_type -->
<g id="node10" class="node">
<title>start_type</title>
<path fill="#ffe66d" stroke="#4ecdc4" d="M111.27,-197.98C111.27,-197.98 50.97,-185.02 50.97,-185.02 45.1,-183.76 45.1,-181.24 50.97,-179.98 50.97,-179.98 111.27,-167.02 111.27,-167.02 117.13,-165.76 128.87,-165.76 134.73,-167.02 134.73,-167.02 195.03,-179.98 195.03,-179.98 200.9,-181.24 200.9,-183.76 195.03,-185.02 195.03,-185.02 134.73,-197.98 134.73,-197.98 128.87,-199.24 117.13,-199.24 111.27,-197.98"/>
<text xml:space="preserve" text-anchor="middle" x="123" y="-178.05" font-family="Helvetica,sans-Serif" font-size="11.00" fill="#1a1a2e">Select Start Type</text>
</g>
<!-- government&#45;&gt;start_type -->
<g id="edge9" class="edge">
<title>government&#45;&gt;start_type</title>
<path fill="none" stroke="#4ecdc4" d="M123,-276.73C123,-259 123,-231.14 123,-210.49"/>
<polygon fill="#4ecdc4" stroke="#4ecdc4" points="125.8,-210.52 123,-202.52 120.2,-210.52 125.8,-210.52"/>
<text xml:space="preserve" text-anchor="middle" x="139.12" y="-250.45" font-family="Helvetica,sans-Serif" font-size="9.00" fill="#888888">Choose</text>
<text xml:space="preserve" text-anchor="middle" x="139.12" y="-240.7" font-family="Helvetica,sans-Serif" font-size="9.00" fill="#888888">Start</text>
</g>
<!-- conventional -->
<g id="node11" class="node">
<title>conventional</title>
<path fill="#2d2d44" stroke="#4ecdc4" d="M83.5,-109C83.5,-109 28.5,-109 28.5,-109 22.5,-109 16.5,-103 16.5,-97 16.5,-97 16.5,-85 16.5,-85 16.5,-79 22.5,-73 28.5,-73 28.5,-73 83.5,-73 83.5,-73 89.5,-73 95.5,-79 95.5,-85 95.5,-85 95.5,-97 95.5,-97 95.5,-103 89.5,-109 83.5,-109"/>
<text xml:space="preserve" text-anchor="middle" x="56" y="-92.55" font-family="Helvetica,sans-Serif" font-size="11.00" fill="white">Conventional</text>
<text xml:space="preserve" text-anchor="middle" x="56" y="-80.55" font-family="Helvetica,sans-Serif" font-size="11.00" fill="white">Start</text>
</g>
<!-- start_type&#45;&gt;conventional -->
<g id="edge10" class="edge">
<title>start_type&#45;&gt;conventional</title>
<path fill="none" stroke="#4ecdc4" d="M110.17,-166.75C104.95,-160.6 98.93,-153.3 93.75,-146.5 86.63,-137.15 79.18,-126.59 72.81,-117.27"/>
<polygon fill="#4ecdc4" stroke="#4ecdc4" points="75.17,-115.77 68.36,-110.72 70.53,-118.91 75.17,-115.77"/>
<text xml:space="preserve" text-anchor="middle" x="114.38" y="-137.95" font-family="Helvetica,sans-Serif" font-size="9.00" fill="#888888">Build from</text>
<text xml:space="preserve" text-anchor="middle" x="114.38" y="-128.2" font-family="Helvetica,sans-Serif" font-size="9.00" fill="#888888">Scratch</text>
</g>
<!-- tn_start -->
<g id="node12" class="node">
<title>tn_start</title>
<path fill="#2d2d44" stroke="#4ecdc4" d="M200.62,-109C200.62,-109 125.38,-109 125.38,-109 119.38,-109 113.38,-103 113.38,-97 113.38,-97 113.38,-85 113.38,-85 113.38,-79 119.38,-73 125.38,-73 125.38,-73 200.62,-73 200.62,-73 206.62,-73 212.62,-79 212.62,-85 212.62,-85 212.62,-97 212.62,-97 212.62,-103 206.62,-109 200.62,-109"/>
<text xml:space="preserve" text-anchor="middle" x="163" y="-92.55" font-family="Helvetica,sans-Serif" font-size="11.00" fill="white">Trans&#45;Newtonian</text>
<text xml:space="preserve" text-anchor="middle" x="163" y="-80.55" font-family="Helvetica,sans-Serif" font-size="11.00" fill="white">Start</text>
</g>
<!-- start_type&#45;&gt;tn_start -->
<g id="edge11" class="edge">
<title>start_type&#45;&gt;tn_start</title>
<path fill="none" stroke="#4ecdc4" d="M129.97,-165.91C135.88,-152.68 144.48,-133.43 151.43,-117.89"/>
<polygon fill="#4ecdc4" stroke="#4ecdc4" points="153.97,-119.07 154.68,-110.63 148.86,-116.79 153.97,-119.07"/>
<text xml:space="preserve" text-anchor="middle" x="164.96" y="-137.95" font-family="Helvetica,sans-Serif" font-size="9.00" fill="#888888">Ready to</text>
<text xml:space="preserve" text-anchor="middle" x="164.96" y="-128.2" font-family="Helvetica,sans-Serif" font-size="9.00" fill="#888888">Expand</text>
</g>
<!-- begin_game -->
<g id="node13" class="node">
<title>begin_game</title>
<ellipse fill="#95d5b2" stroke="#4ecdc4" cx="109" cy="-18" rx="45.7" ry="18"/>
<text xml:space="preserve" text-anchor="middle" x="109" y="-13.55" font-family="Helvetica,sans-Serif" font-size="11.00" fill="#1a1a2e">Begin Game</text>
</g>
<!-- conventional&#45;&gt;begin_game -->
<g id="edge12" class="edge">
<title>conventional&#45;&gt;begin_game</title>
<path fill="none" stroke="#4ecdc4" d="M68.83,-72.81C75.5,-63.88 83.77,-52.8 91.06,-43.03"/>
<polygon fill="#4ecdc4" stroke="#4ecdc4" points="93.21,-44.84 95.75,-36.75 88.72,-41.49 93.21,-44.84"/>
</g>
<!-- tn_start&#45;&gt;begin_game -->
<g id="edge13" class="edge">
<title>tn_start&#45;&gt;begin_game</title>
<path fill="none" stroke="#4ecdc4" d="M149.93,-72.81C143.13,-63.88 134.71,-52.8 127.28,-43.03"/>
<polygon fill="#4ecdc4" stroke="#4ecdc4" points="129.57,-41.42 122.5,-36.74 125.11,-44.81 129.57,-41.42"/>
</g>
</g>
</svg>
