<?xml version="1.0" encoding="UTF-8" standalone="no"?>
<!DOCTYPE svg PUBLIC "-//W3C//DTD SVG 1.1//EN"
 "http://www.w3.org/Graphics/SVG/1.1/DTD/svg11.dtd">
<!-- Generated by graphviz version 14.1.2 (20260124.0452)
 -->
<!-- Title: G Pages: 1 -->
<svg width="1326pt" height="430pt"
 viewBox="0.00 0.00 1326.00 430.00" xmlns="http://www.w3.org/2000/svg" xmlns:xlink="http://www.w3.org/1999/xlink">
<g id="graph0" class="graph" transform="scale(1 1) rotate(0) translate(4 426.25)">
<title>G</title>
<polygon fill="#1a1a2e" stroke="none" points="-4,4 -4,-426.25 1322.38,-426.25 1322.38,4 -4,4"/>
<g id="clust1" class="cluster">
<title>cluster_eds</title>
<polygon fill="#1f1f32" stroke="#ff6b6b" stroke-dasharray="5,2" points="252.38,-125.5 252.38,-414.25 746.38,-414.25 746.38,-125.5 252.38,-125.5"/>
<text xml:space="preserve" text-anchor="middle" x="499.38" y="-396.95" font-family="Helvetica,sans-Serif" font-size="14.00" fill="#ff6b6b">Earth Death Spiral</text>
</g>
<g id="clust2" class="cluster">
<title>cluster_ssd</title>
<polygon fill="#1f1f32" stroke="#ffe66d" stroke-dasharray="5,2" points="773.38,-8 773.38,-414.25 1310.38,-414.25 1310.38,-8 773.38,-8"/>
<text xml:space="preserve" text-anchor="middle" x="1041.88" y="-396.95" font-family="Helvetica,sans-Serif" font-size="14.00" fill="#ffe66d">Solar System Destruction</text>
</g>
<!-- title -->
<g id="node1" class="node">
<title>title</title>
<path fill="#2d2d44" stroke="none" d="M232.75,-383.25C232.75,-383.25 12,-383.25 12,-383.25 6,-383.25 0,-377.25 0,-371.25 0,-371.25 0,-359.25 0,-359.25 0,-353.25 6,-347.25 12,-347.25 12,-347.25 232.75,-347.25 232.75,-347.25 238.75,-347.25 244.75,-353.25 244.75,-359.25 244.75,-359.25 244.75,-371.25 244.75,-371.25 244.75,-377.25 238.75,-383.25 232.75,-383.25"/>
<text xml:space="preserve" text-anchor="middle" x="122.38" y="-358.3" font-family="Helvetica,sans-Serif" font-size="16.00" fill="#4ecdc4">Catastrophe Scenario Timelines</text>
</g>
<!-- eds_start -->
<g id="node2" class="node">
<title>eds_start</title>
<path fill="#2d4d44" stroke="#95d5b2" d="M458.12,-383.25C458.12,-383.25 386.62,-383.25 386.62,-383.25 380.62,-383.25 374.62,-377.25 374.62,-371.25 374.62,-371.25 374.62,-359.25 374.62,-359.25 374.62,-353.25 380.62,-347.25 386.62,-347.25 386.62,-347.25 458.12,-347.25 458.12,-347.25 464.12,-347.25 470.12,-353.25 470.12,-359.25 470.12,-359.25 470.12,-371.25 470.12,-371.25 470.12,-377.25 464.12,-383.25 458.12,-383.25"/>
<text xml:space="preserve" text-anchor="middle" x="422.38" y="-366.8" font-family="Helvetica,sans-Serif" font-size="11.00" fill="white">Game Start</text>
<text xml:space="preserve" text-anchor="middle" x="422.38" y="-354.8" font-family="Helvetica,sans-Serif" font-size="11.00" fill="white">(Earth at ~1 AU)</text>
</g>
<!-- eds_slow -->
<g id="node3" class="node">
<title>eds_slow</title>
<path fill="#3d3d54" stroke="#4ecdc4" d="M327.88,-274C327.88,-274 272.88,-274 272.88,-274 266.88,-274 260.88,-268 260.88,-262 260.88,-262 260.88,-250 260.88,-250 260.88,-244 266.88,-238 272.88,-238 272.88,-238 327.88,-238 327.88,-238 333.88,-238 339.88,-244 339.88,-250 339.88,-250 339.88,-262 339.88,-262 339.88,-268 333.88,-274 327.88,-274"/>
<text xml:space="preserve" text-anchor="middle" x="300.38" y="-257.55" font-family="Helvetica,sans-Serif" font-size="11.00" fill="white">0.01 AU/year</text>
<text xml:space="preserve" text-anchor="middle" x="300.38" y="-245.55" font-family="Helvetica,sans-Serif" font-size="11.00" fill="white">~150 years</text>
</g>
<!-- eds_start&#45;&gt;eds_slow -->
<g id="edge1" class="edge">
<title>eds_start&#45;&gt;eds_slow</title>
<path fill="none" stroke="#4ecdc4" d="M402.5,-346.78C382.03,-328.78 349.99,-300.62 327.26,-280.64"/>
<polygon fill="#4ecdc4" stroke="#4ecdc4" points="329.23,-278.64 321.38,-275.46 325.54,-282.85 329.23,-278.64"/>
<text xml:space="preserve" text-anchor="middle" x="378.05" y="-309.7" font-family="Helvetica,sans-Serif" font-size="9.00" fill="#888888">slow</text>
</g>
<!-- eds_med -->
<g id="node4" class="node">
<title>eds_med</title>
<path fill="#4d3d44" stroke="#ffe66d" d="M449.88,-274C449.88,-274 394.88,-274 394.88,-274 388.88,-274 382.88,-268 382.88,-262 382.88,-262 382.88,-250 382.88,-250 382.88,-244 388.88,-238 394.88,-238 394.88,-238 449.88,-238 449.88,-238 455.88,-238 461.88,-244 461.88,-250 461.88,-250 461.88,-262 461.88,-262 461.88,-268 455.88,-274 449.88,-274"/>
<text xml:space="preserve" text-anchor="middle" x="422.38" y="-257.55" font-family="Helvetica,sans-Serif" font-size="11.00" fill="white">0.02 AU/year</text>
<text xml:space="preserve" text-anchor="middle" x="422.38" y="-245.55" font-family="Helvetica,sans-Serif" font-size="11.00" fill="white">~75 years</text>
</g>
<!-- eds_start&#45;&gt;eds_med -->
<g id="edge2" class="edge">
<title>eds_start&#45;&gt;eds_med</title>
<path fill="none" stroke="#4ecdc4" d="M422.38,-347.02C422.38,-329.9 422.38,-303.4 422.38,-283.59"/>
<polygon fill="#4ecdc4" stroke="#4ecdc4" points="425.18,-283.7 422.38,-275.7 419.58,-283.7 425.18,-283.7"/>
<text xml:space="preserve" text-anchor="middle" x="438.88" y="-309.7" font-family="Helvetica,sans-Serif" font-size="9.00" fill="#888888">medium</text>
</g>
<!-- eds_fast -->
<g id="node5" class="node">
<title>eds_fast</title>
<path fill="#5d2d34" stroke="#ff6b6b" d="M571.88,-274C571.88,-274 516.88,-274 516.88,-274 510.88,-274 504.88,-268 504.88,-262 504.88,-262 504.88,-250 504.88,-250 504.88,-244 510.88,-238 516.88,-238 516.88,-238 571.88,-238 571.88,-238 577.88,-238 583.88,-244 583.88,-250 583.88,-250 583.88,-262 583.88,-262 583.88,-268 577.88,-274 571.88,-274"/>
<text xml:space="preserve" text-anchor="middle" x="544.38" y="-257.55" font-family="Helvetica,sans-Serif" font-size="11.00" fill="white">0.03 AU/year</text>
<text xml:space="preserve" text-anchor="middle" x="544.38" y="-245.55" font-family="Helvetica,sans-Serif" font-size="11.00" fill="white">~50 years</text>
</g>
<!-- eds_start&#45;&gt;eds_fast -->
<g id="edge3" class="edge">
<title>eds_start&#45;&gt;eds_fast</title>
<path fill="none" stroke="#4ecdc4" d="M442.25,-346.78C462.72,-328.78 494.76,-300.62 517.49,-280.64"/>
<polygon fill="#4ecdc4" stroke="#4ecdc4" points="519.21,-282.85 523.37,-275.46 515.52,-278.64 519.21,-282.85"/>
<text xml:space="preserve" text-anchor="middle" x="490.5" y="-309.7" font-family="Helvetica,sans-Serif" font-size="9.00" fill="#888888">fast</text>
</g>
<!-- eds_end -->
<g id="node7" class="node">
<title>eds_end</title>
<path fill="#4d1d1d" stroke="#ff6b6b" d="M527.75,-169.5C527.75,-169.5 439,-169.5 439,-169.5 433,-169.5 427,-163.5 427,-157.5 427,-157.5 427,-145.5 427,-145.5 427,-139.5 433,-133.5 439,-133.5 439,-133.5 527.75,-133.5 527.75,-133.5 533.75,-133.5 539.75,-139.5 539.75,-145.5 539.75,-145.5 539.75,-157.5 539.75,-157.5 539.75,-163.5 533.75,-169.5 527.75,-169.5"/>
<text xml:space="preserve" text-anchor="middle" x="483.38" y="-153.05" font-family="Helvetica,sans-Serif" font-size="11.00" fill="#ff6b6b">Earth Destroyed</text>
<text xml:space="preserve" text-anchor="middle" x="483.38" y="-141.05" font-family="Helvetica,sans-Serif" font-size="11.00" fill="#ff6b6b">(&lt; 1M km from Sun)</text>
</g>
<!-- eds_slow&#45;&gt;eds_end -->
<g id="edge4" class="edge">
<title>eds_slow&#45;&gt;eds_end</title>
<path fill="none" stroke="#4ecdc4" d="M331.42,-237.61C362.44,-220.24 410.25,-193.46 443.94,-174.59"/>
<polygon fill="#4ecdc4" stroke="#4ecdc4" points="445.25,-177.07 450.86,-170.71 442.51,-172.18 445.25,-177.07"/>
</g>
<!-- eds_med&#45;&gt;eds_end -->
<g id="edge5" class="edge">
<title>eds_med&#45;&gt;eds_end</title>
<path fill="none" stroke="#4ecdc4" d="M432.72,-237.61C442.45,-221.27 457.13,-196.6 468.18,-178.03"/>
<polygon fill="#4ecdc4" stroke="#4ecdc4" points="470.52,-179.58 472.2,-171.27 465.7,-176.72 470.52,-179.58"/>
</g>
<!-- eds_fast&#45;&gt;eds_end -->
<g id="edge6" class="edge">
<title>eds_fast&#45;&gt;eds_end</title>
<path fill="none" stroke="#4ecdc4" d="M534.03,-237.61C524.3,-221.27 509.62,-196.6 498.57,-178.03"/>
<polygon fill="#4ecdc4" stroke="#4ecdc4" points="501.05,-176.72 494.55,-171.27 496.23,-179.58 501.05,-176.72"/>
</g>
<!-- eds_effects -->
<g id="node6" class="node">
<title>eds_effects</title>
<polygon fill="#2d2d44" stroke="#4ecdc4" points="732,-279.5 626.75,-279.5 626.75,-232.5 738,-232.5 738,-273.5 732,-279.5"/>
<polyline fill="none" stroke="#4ecdc4" points="732,-279.5 732,-273.5"/>
<polyline fill="none" stroke="#4ecdc4" points="738,-273.5 732,-273.5"/>
<text xml:space="preserve" text-anchor="middle" x="682.38" y="-266.95" font-family="Helvetica,sans-Serif" font-size="9.00" fill="white">Effects:</text>
<text xml:space="preserve" text-anchor="middle" x="682.38" y="-257.2" font-family="Helvetica,sans-Serif" font-size="9.00" fill="white">&#45; Temperature rises</text>
<text xml:space="preserve" text-anchor="middle" x="682.38" y="-247.45" font-family="Helvetica,sans-Serif" font-size="9.00" fill="white">&#45; Year length shortens</text>
<text xml:space="preserve" text-anchor="middle" x="682.38" y="-237.7" font-family="Helvetica,sans-Serif" font-size="9.00" fill="white">&#45; Colony cost increases</text>
</g>
<!-- eds_effects&#45;&gt;eds_end -->
<g id="edge7" class="edge">
<title>eds_effects&#45;&gt;eds_end</title>
<path fill="none" stroke="#4ecdc4" stroke-dasharray="5,2" d="M638.21,-232.25C601.68,-213.44 550.57,-187.11 517.22,-169.93"/>
</g>
<!-- ssd_start -->
<g id="node8" class="node">
<title>ssd_start</title>
<path fill="#2d4d44" stroke="#95d5b2" d="M1014.25,-383.25C1014.25,-383.25 928.5,-383.25 928.5,-383.25 922.5,-383.25 916.5,-377.25 916.5,-371.25 916.5,-371.25 916.5,-359.25 916.5,-359.25 916.5,-353.25 922.5,-347.25 928.5,-347.25 928.5,-347.25 1014.25,-347.25 1014.25,-347.25 1020.25,-347.25 1026.25,-353.25 1026.25,-359.25 1026.25,-359.25 1026.25,-371.25 1026.25,-371.25 1026.25,-377.25 1020.25,-383.25 1014.25,-383.25"/>
<text xml:space="preserve" text-anchor="middle" x="971.38" y="-366.8" font-family="Helvetica,sans-Serif" font-size="11.00" fill="white">Game Start</text>
<text xml:space="preserve" text-anchor="middle" x="971.38" y="-354.8" font-family="Helvetica,sans-Serif" font-size="11.00" fill="white">Exotic Matter Event</text>
</g>
<!-- ssd_easy -->
<g id="node9" class="node">
<title>ssd_easy</title>
<path fill="#3d3d54" stroke="#4ecdc4" d="M863.38,-274C863.38,-274 793.38,-274 793.38,-274 787.38,-274 781.38,-268 781.38,-262 781.38,-262 781.38,-250 781.38,-250 781.38,-244 787.38,-238 793.38,-238 793.38,-238 863.38,-238 863.38,-238 869.38,-238 875.38,-244 875.38,-250 875.38,-250 875.38,-262 875.38,-262 875.38,-268 869.38,-274 863.38,-274"/>
<text xml:space="preserve" text-anchor="middle" x="828.38" y="-257.55" font-family="Helvetica,sans-Serif" font-size="11.00" fill="white">Easy (0.005)</text>
<text xml:space="preserve" text-anchor="middle" x="828.38" y="-245.55" font-family="Helvetica,sans-Serif" font-size="11.00" fill="white">Slower radiation</text>
</g>
<!-- ssd_start&#45;&gt;ssd_easy -->
<g id="edge8" class="edge">
<title>ssd_start&#45;&gt;ssd_easy</title>
<path fill="none" stroke="#4ecdc4" d="M948.08,-346.78C923.88,-328.63 885.88,-300.13 859.2,-280.12"/>
<polygon fill="#4ecdc4" stroke="#4ecdc4" points="860.95,-277.93 852.87,-275.37 857.59,-282.41 860.95,-277.93"/>
<text xml:space="preserve" text-anchor="middle" x="918.19" y="-309.7" font-family="Helvetica,sans-Serif" font-size="9.00" fill="#888888">easy</text>
</g>
<!-- ssd_med -->
<g id="node10" class="node">
<title>ssd_med</title>
<path fill="#4d3d44" stroke="#ffe66d" d="M1012.38,-274C1012.38,-274 930.38,-274 930.38,-274 924.38,-274 918.38,-268 918.38,-262 918.38,-262 918.38,-250 918.38,-250 918.38,-244 924.38,-238 930.38,-238 930.38,-238 1012.38,-238 1012.38,-238 1018.38,-238 1024.38,-244 1024.38,-250 1024.38,-250 1024.38,-262 1024.38,-262 1024.38,-268 1018.38,-274 1012.38,-274"/>
<text xml:space="preserve" text-anchor="middle" x="971.38" y="-257.55" font-family="Helvetica,sans-Serif" font-size="11.00" fill="white">Medium (0.0075)</text>
<text xml:space="preserve" text-anchor="middle" x="971.38" y="-245.55" font-family="Helvetica,sans-Serif" font-size="11.00" fill="white">Moderate radiation</text>
</g>
<!-- ssd_start&#45;&gt;ssd_med -->
<g id="edge9" class="edge">
<title>ssd_start&#45;&gt;ssd_med</title>
<path fill="none" stroke="#4ecdc4" d="M971.38,-347.02C971.38,-329.9 971.38,-303.4 971.38,-283.59"/>
<polygon fill="#4ecdc4" stroke="#4ecdc4" points="974.18,-283.7 971.38,-275.7 968.58,-283.7 974.18,-283.7"/>
<text xml:space="preserve" text-anchor="middle" x="987.88" y="-309.7" font-family="Helvetica,sans-Serif" font-size="9.00" fill="#888888">medium</text>
</g>
<!-- ssd_hard -->
<g id="node11" class="node">
<title>ssd_hard</title>
<path fill="#5d2d34" stroke="#ff6b6b" d="M1137,-274C1137,-274 1079.75,-274 1079.75,-274 1073.75,-274 1067.75,-268 1067.75,-262 1067.75,-262 1067.75,-250 1067.75,-250 1067.75,-244 1073.75,-238 1079.75,-238 1079.75,-238 1137,-238 1137,-238 1143,-238 1149,-244 1149,-250 1149,-250 1149,-262 1149,-262 1149,-268 1143,-274 1137,-274"/>
<text xml:space="preserve" text-anchor="middle" x="1108.38" y="-257.55" font-family="Helvetica,sans-Serif" font-size="11.00" fill="white">Hard (0.01)</text>
<text xml:space="preserve" text-anchor="middle" x="1108.38" y="-245.55" font-family="Helvetica,sans-Serif" font-size="11.00" fill="white">Fast radiation</text>
</g>
<!-- ssd_start&#45;&gt;ssd_hard -->
<g id="edge10" class="edge">
<title>ssd_start&#45;&gt;ssd_hard</title>
<path fill="none" stroke="#4ecdc4" d="M993.69,-346.78C1016.88,-328.63 1053.28,-300.13 1078.84,-280.12"/>
<polygon fill="#4ecdc4" stroke="#4ecdc4" points="1080.3,-282.53 1084.88,-275.4 1076.85,-278.12 1080.3,-282.53"/>
<text xml:space="preserve" text-anchor="middle" x="1049.25" y="-309.7" font-family="Helvetica,sans-Serif" font-size="9.00" fill="#888888">hard</text>
</g>
<!-- ssd_y50 -->
<g id="node13" class="node">
<title>ssd_y50</title>
<path fill="#4d2d34" stroke="#ffe66d" d="M1053,-173.5C1053,-173.5 959.75,-173.5 959.75,-173.5 953.75,-173.5 947.75,-167.5 947.75,-161.5 947.75,-161.5 947.75,-141.5 947.75,-141.5 947.75,-135.5 953.75,-129.5 959.75,-129.5 959.75,-129.5 1053,-129.5 1053,-129.5 1059,-129.5 1065,-135.5 1065,-141.5 1065,-141.5 1065,-161.5 1065,-161.5 1065,-167.5 1059,-173.5 1053,-173.5"/>
<text xml:space="preserve" text-anchor="middle" x="1006.38" y="-159.05" font-family="Helvetica,sans-Serif" font-size="11.00" fill="white">Year 50+</text>
<text xml:space="preserve" text-anchor="middle" x="1006.38" y="-147.05" font-family="Helvetica,sans-Serif" font-size="11.00" fill="white">Explosion Chance:</text>
<text xml:space="preserve" text-anchor="middle" x="1006.38" y="-135.05" font-family="Helvetica,sans-Serif" font-size="11.00" fill="white">(Years&#45;50) x 2%/year</text>
</g>
<!-- ssd_easy&#45;&gt;ssd_y50 -->
<g id="edge11" class="edge">
<title>ssd_easy&#45;&gt;ssd_y50</title>
<path fill="none" stroke="#4ecdc4" d="M858.57,-237.61C886.73,-221.39 929.12,-196.99 961.29,-178.46"/>
<polygon fill="#4ecdc4" stroke="#4ecdc4" points="962.38,-181.06 967.92,-174.65 959.59,-176.21 962.38,-181.06"/>
</g>
<!-- ssd_med&#45;&gt;ssd_y50 -->
<g id="edge12" class="edge">
<title>ssd_med&#45;&gt;ssd_y50</title>
<path fill="none" stroke="#4ecdc4" d="M977.31,-237.61C982.43,-222.63 989.93,-200.66 996.03,-182.8"/>
<polygon fill="#4ecdc4" stroke="#4ecdc4" points="998.65,-183.8 998.58,-175.32 993.35,-181.99 998.65,-183.8"/>
</g>
<!-- ssd_hard&#45;&gt;ssd_y50 -->
<g id="edge13" class="edge">
<title>ssd_hard&#45;&gt;ssd_y50</title>
<path fill="none" stroke="#4ecdc4" d="M1091.07,-237.61C1075.48,-221.94 1052.28,-198.63 1034.11,-180.37"/>
<polygon fill="#4ecdc4" stroke="#4ecdc4" points="1036.36,-178.66 1028.73,-174.96 1032.39,-182.61 1036.36,-178.66"/>
</g>
<!-- ssd_formula -->
<g id="node12" class="node">
<title>ssd_formula</title>
<polygon fill="#2d2d44" stroke="#4ecdc4" points="1296.25,-274 1192.5,-274 1192.5,-238 1302.25,-238 1302.25,-268 1296.25,-274"/>
<polyline fill="none" stroke="#4ecdc4" points="1296.25,-274 1296.25,-268"/>
<polyline fill="none" stroke="#4ecdc4" points="1302.25,-268 1296.25,-268"/>
<text xml:space="preserve" text-anchor="middle" x="1247.38" y="-257.2" font-family="Helvetica,sans-Serif" font-size="9.00" fill="white">Radiation = Years^3 x</text>
<text xml:space="preserve" text-anchor="middle" x="1247.38" y="-247.45" font-family="Helvetica,sans-Serif" font-size="9.00" fill="white">(1/Distance^2) x Factor</text>
</g>
<!-- ssd_formula&#45;&gt;ssd_y50 -->
<g id="edge14" class="edge">
<title>ssd_formula&#45;&gt;ssd_y50</title>
<path fill="none" stroke="#4ecdc4" stroke-dasharray="5,2" d="M1206.49,-237.61C1165.13,-220.02 1101.11,-192.79 1056.67,-173.89"/>
</g>
<!-- ssd_end -->
<g id="node14" class="node">
<title>ssd_end</title>
<path fill="#4d1d1d" stroke="#ff6b6b" d="M1050,-52C1050,-52 962.75,-52 962.75,-52 956.75,-52 950.75,-46 950.75,-40 950.75,-40 950.75,-28 950.75,-28 950.75,-22 956.75,-16 962.75,-16 962.75,-16 1050,-16 1050,-16 1056,-16 1062,-22 1062,-28 1062,-28 1062,-40 1062,-40 1062,-46 1056,-52 1050,-52"/>
<text xml:space="preserve" text-anchor="middle" x="1006.38" y="-35.55" font-family="Helvetica,sans-Serif" font-size="11.00" fill="#ff6b6b">Sun Explodes</text>
<text xml:space="preserve" text-anchor="middle" x="1006.38" y="-23.55" font-family="Helvetica,sans-Serif" font-size="11.00" fill="#ff6b6b">Sol System Deleted</text>
</g>
<!-- ssd_y50&#45;&gt;ssd_end -->
<g id="edge15" class="edge">
<title>ssd_y50&#45;&gt;ssd_end</title>
<path fill="none" stroke="#4ecdc4" d="M1006.38,-129.05C1006.38,-109.98 1006.38,-82.05 1006.38,-61.58"/>
<polygon fill="#4ecdc4" stroke="#4ecdc4" points="1009.18,-61.71 1006.38,-53.71 1003.58,-61.71 1009.18,-61.71"/>
<text xml:space="preserve" text-anchor="middle" x="1026.62" y="-91.95" font-family="Helvetica,sans-Serif" font-size="9.00" fill="#888888">random</text>
<text xml:space="preserve" text-anchor="middle" x="1026.62" y="-82.2" font-family="Helvetica,sans-Serif" font-size="9.00" fill="#888888">each year</text>
</g>
</g>
</svg>
