<?xml version="1.0" encoding="UTF-8" standalone="no"?>
<!DOCTYPE svg PUBLIC "-//W3C//DTD SVG 1.1//EN"
 "http://www.w3.org/Graphics/SVG/1.1/DTD/svg11.dtd">
<!-- Generated by graphviz version 14.1.2 (20260124.0452)
 -->
<!-- Title: G Pages: 1 -->
<svg width="841pt" height="743pt"
 viewBox="0.00 0.00 841.00 743.00" xmlns="http://www.w3.org/2000/svg" xmlns:xlink="http://www.w3.org/1999/xlink">
<g id="graph0" class="graph" transform="scale(1 1) rotate(0) translate(4 738.75)">
<title>G</title>
<polygon fill="#1a1a2e" stroke="none" points="-4,4 -4,-738.75 837.25,-738.75 837.25,4 -4,4"/>
<g id="clust1" class="cluster">
<title>cluster_extraction</title>
<polygon fill="#1f2f2a" stroke="#95d5b2" stroke-dasharray="5,2" points="49.62,-473 49.62,-634 173.62,-634 173.62,-473 49.62,-473"/>
<text xml:space="preserve" text-anchor="middle" x="111.62" y="-618.6" font-family="Helvetica,sans-Serif" font-size="12.00" fill="#95d5b2">Resource Extraction</text>
</g>
<g id="clust2" class="cluster">
<title>cluster_processing</title>
<polygon fill="#2f2f1f" stroke="#ffe66d" stroke-dasharray="5,2" points="326.75,-630 326.75,-711 457.5,-711 457.5,-630 326.75,-630"/>
<text xml:space="preserve" text-anchor="middle" x="392.12" y="-695.6" font-family="Helvetica,sans-Serif" font-size="12.00" fill="#ffe66d">Resource Processing</text>
</g>
<g id="clust3" class="cluster">
<title>cluster_production</title>
<polygon fill="#1f1f2f" stroke="#4ecdc4" stroke-dasharray="5,2" points="342.25,-309 342.25,-622 441,-622 441,-309 342.25,-309"/>
<text xml:space="preserve" text-anchor="middle" x="391.62" y="-606.6" font-family="Helvetica,sans-Serif" font-size="12.00" fill="#4ecdc4">Production</text>
</g>
<g id="clust4" class="cluster">
<title>cluster_output</title>
<polygon fill="#2f1f1f" stroke="#ff6b6b" stroke-dasharray="5,2" points="567.88,-313 567.88,-682 825.25,-682 825.25,-313 567.88,-313"/>
<text xml:space="preserve" text-anchor="middle" x="696.56" y="-666.6" font-family="Helvetica,sans-Serif" font-size="12.00" fill="#ff6b6b">Fleet &amp; Infrastructure</text>
</g>
<g id="clust5" class="cluster">
<title>cluster_support</title>
<polygon fill="#1f1f1f" stroke="#888888" stroke-dasharray="5,2" points="56.5,-64 56.5,-465 165.75,-465 165.75,-64 56.5,-64"/>
<text xml:space="preserve" text-anchor="middle" x="111.12" y="-449.6" font-family="Helvetica,sans-Serif" font-size="12.00" fill="#888888">Support</text>
</g>
<!-- title -->
<g id="node1" class="node">
<title>title</title>
<path fill="#2d2d44" stroke="none" d="M210.25,-36C210.25,-36 12,-36 12,-36 6,-36 0,-30 0,-24 0,-24 0,-12 0,-12 0,-6 6,0 12,0 12,0 210.25,0 210.25,0 216.25,0 222.25,-6 222.25,-12 222.25,-12 222.25,-24 222.25,-24 222.25,-30 216.25,-36 210.25,-36"/>
<text xml:space="preserve" text-anchor="middle" x="111.12" y="-11.05" font-family="Helvetica,sans-Serif" font-size="16.00" fill="#4ecdc4">Installation Production Chain</text>
</g>
<!-- mines -->
<g id="node2" class="node">
<title>mines</title>
<path fill="#2d4d44" stroke="#95d5b2" d="M136.75,-605C136.75,-605 85.5,-605 85.5,-605 79.5,-605 73.5,-599 73.5,-593 73.5,-593 73.5,-573 73.5,-573 73.5,-567 79.5,-561 85.5,-561 85.5,-561 136.75,-561 136.75,-561 142.75,-561 148.75,-567 148.75,-573 148.75,-573 148.75,-593 148.75,-593 148.75,-599 142.75,-605 136.75,-605"/>
<text xml:space="preserve" text-anchor="middle" x="111.12" y="-590.55" font-family="Helvetica,sans-Serif" font-size="11.00" fill="white">Mines</text>
<text xml:space="preserve" text-anchor="middle" x="111.12" y="-578.55" font-family="Helvetica,sans-Serif" font-size="11.00" fill="white">10 tons/year</text>
<text xml:space="preserve" text-anchor="middle" x="111.12" y="-566.55" font-family="Helvetica,sans-Serif" font-size="11.00" fill="white">per mine</text>
</g>
<!-- refineries -->
<g id="node4" class="node">
<title>refineries</title>
<path fill="#4d4d2d" stroke="#ffe66d" d="M424,-682C424,-682 359.25,-682 359.25,-682 353.25,-682 347.25,-676 347.25,-670 347.25,-670 347.25,-650 347.25,-650 347.25,-644 353.25,-638 359.25,-638 359.25,-638 424,-638 424,-638 430,-638 436,-644 436,-650 436,-650 436,-670 436,-670 436,-676 430,-682 424,-682"/>
<text xml:space="preserve" text-anchor="middle" x="391.62" y="-667.55" font-family="Helvetica,sans-Serif" font-size="11.00" fill="white">Fuel Refineries</text>
<text xml:space="preserve" text-anchor="middle" x="391.62" y="-655.55" font-family="Helvetica,sans-Serif" font-size="11.00" fill="white">40,000 L/year</text>
<text xml:space="preserve" text-anchor="middle" x="391.62" y="-643.55" font-family="Helvetica,sans-Serif" font-size="11.00" fill="white">per refinery</text>
</g>
<!-- mines&#45;&gt;refineries -->
<g id="edge1" class="edge">
<title>mines&#45;&gt;refineries</title>
<path fill="none" stroke="#4ecdc4" d="M149.2,-599C225.79,-599 391.25,-599 391.25,-599 391.25,-599 391.25,-628.12 391.25,-628.12"/>
<polygon fill="#4ecdc4" stroke="#4ecdc4" points="388.45,-628.12 391.25,-636.12 394.05,-628.12 388.45,-628.12"/>
<text xml:space="preserve" text-anchor="middle" x="278.5" y="-621.2" font-family="Helvetica,sans-Serif" font-size="9.00" fill="#888888">Sorium</text>
</g>
<!-- cf -->
<g id="node5" class="node">
<title>cf</title>
<path fill="#2d2d4d" stroke="#4ecdc4" d="M418,-361C418,-361 365.25,-361 365.25,-361 359.25,-361 353.25,-355 353.25,-349 353.25,-349 353.25,-329 353.25,-329 353.25,-323 359.25,-317 365.25,-317 365.25,-317 418,-317 418,-317 424,-317 430,-323 430,-329 430,-329 430,-349 430,-349 430,-355 424,-361 418,-361"/>
<text xml:space="preserve" text-anchor="middle" x="391.62" y="-346.55" font-family="Helvetica,sans-Serif" font-size="11.00" fill="white">Construction</text>
<text xml:space="preserve" text-anchor="middle" x="391.62" y="-334.55" font-family="Helvetica,sans-Serif" font-size="11.00" fill="white">Factories</text>
<text xml:space="preserve" text-anchor="middle" x="391.62" y="-322.55" font-family="Helvetica,sans-Serif" font-size="11.00" fill="white">10 BP/year</text>
</g>
<!-- mines&#45;&gt;cf -->
<g id="edge2" class="edge">
<title>mines&#45;&gt;cf</title>
<path fill="none" stroke="#4ecdc4" d="M148.84,-577C169.62,-577 191.25,-577 191.25,-577 191.25,-577 191.25,-348.2 191.25,-348.2 191.25,-348.2 343.48,-348.2 343.48,-348.2"/>
<polygon fill="#4ecdc4" stroke="#4ecdc4" points="343.48,-351 351.48,-348.2 343.48,-345.4 343.48,-351"/>
<text xml:space="preserve" text-anchor="middle" x="278.5" y="-547.2" font-family="Helvetica,sans-Serif" font-size="9.00" fill="#888888">Minerals</text>
</g>
<!-- auto_mines -->
<g id="node3" class="node">
<title>auto_mines</title>
<path fill="#2d4d44" stroke="#95d5b2" d="M149.12,-525C149.12,-525 73.12,-525 73.12,-525 67.12,-525 61.12,-519 61.12,-513 61.12,-513 61.12,-493 61.12,-493 61.12,-487 67.12,-481 73.12,-481 73.12,-481 149.12,-481 149.12,-481 155.12,-481 161.12,-487 161.12,-493 161.12,-493 161.12,-513 161.12,-513 161.12,-519 155.12,-525 149.12,-525"/>
<text xml:space="preserve" text-anchor="middle" x="111.12" y="-510.55" font-family="Helvetica,sans-Serif" font-size="11.00" fill="white">Automated Mines</text>
<text xml:space="preserve" text-anchor="middle" x="111.12" y="-498.55" font-family="Helvetica,sans-Serif" font-size="11.00" fill="white">10 tons/year</text>
<text xml:space="preserve" text-anchor="middle" x="111.12" y="-486.55" font-family="Helvetica,sans-Serif" font-size="11.00" fill="white">(no population)</text>
</g>
<!-- auto_mines&#45;&gt;cf -->
<g id="edge3" class="edge">
<title>auto_mines&#45;&gt;cf</title>
<path fill="none" stroke="#4ecdc4" d="M155.25,-480.73C155.25,-436.2 155.25,-340.4 155.25,-340.4 155.25,-340.4 343.34,-340.4 343.34,-340.4"/>
<polygon fill="#4ecdc4" stroke="#4ecdc4" points="343.34,-343.2 351.34,-340.4 343.34,-337.6 343.34,-343.2"/>
<text xml:space="preserve" text-anchor="middle" x="278.5" y="-451.2" font-family="Helvetica,sans-Serif" font-size="9.00" fill="#888888">Minerals</text>
</g>
<!-- shipyards -->
<g id="node9" class="node">
<title>shipyards</title>
<path fill="#4d2d3d" stroke="#ff6b6b" d="M639.88,-581C639.88,-581 587.88,-581 587.88,-581 581.88,-581 575.88,-575 575.88,-569 575.88,-569 575.88,-549 575.88,-549 575.88,-543 581.88,-537 587.88,-537 587.88,-537 639.88,-537 639.88,-537 645.88,-537 651.88,-543 651.88,-549 651.88,-549 651.88,-569 651.88,-569 651.88,-575 645.88,-581 639.88,-581"/>
<text xml:space="preserve" text-anchor="middle" x="613.88" y="-566.55" font-family="Helvetica,sans-Serif" font-size="11.00" fill="white">Shipyards</text>
<text xml:space="preserve" text-anchor="middle" x="613.88" y="-554.55" font-family="Helvetica,sans-Serif" font-size="11.00" fill="white">400 BP/year</text>
<text xml:space="preserve" text-anchor="middle" x="613.88" y="-542.55" font-family="Helvetica,sans-Serif" font-size="11.00" fill="white">per slipway</text>
</g>
<!-- refineries&#45;&gt;shipyards -->
<g id="edge4" class="edge">
<title>refineries&#45;&gt;shipyards</title>
<path fill="none" stroke="#4ecdc4" d="M436.27,-645.5C472.38,-645.5 517.25,-645.5 517.25,-645.5 517.25,-645.5 517.25,-565 517.25,-565 517.25,-565 565.9,-565 565.9,-565"/>
<polygon fill="#4ecdc4" stroke="#4ecdc4" points="565.9,-567.8 573.9,-565 565.9,-562.2 565.9,-567.8"/>
<text xml:space="preserve" text-anchor="middle" x="503.5" y="-585.2" font-family="Helvetica,sans-Serif" font-size="9.00" fill="#888888">Fuel</text>
</g>
<!-- ships -->
<g id="node13" class="node">
<title>ships</title>
<path fill="#5d2d4d" stroke="#ff6b6b" d="M805.25,-416C805.25,-416 775.25,-416 775.25,-416 769.25,-416 763.25,-410 763.25,-404 763.25,-404 763.25,-392 763.25,-392 763.25,-386 769.25,-380 775.25,-380 775.25,-380 805.25,-380 805.25,-380 811.25,-380 817.25,-386 817.25,-392 817.25,-392 817.25,-404 817.25,-404 817.25,-410 811.25,-416 805.25,-416"/>
<text xml:space="preserve" text-anchor="middle" x="790.25" y="-393.55" font-family="Helvetica,sans-Serif" font-size="11.00" fill="white">Ships</text>
</g>
<!-- refineries&#45;&gt;ships -->
<g id="edge5" class="edge">
<title>refineries&#45;&gt;ships</title>
<path fill="none" stroke="#4ecdc4" stroke-dasharray="5,2" d="M436.41,-667.5C542.3,-667.5 799.25,-667.5 799.25,-667.5 799.25,-667.5 799.25,-425.61 799.25,-425.61"/>
<polygon fill="#4ecdc4" stroke="#4ecdc4" points="802.05,-425.61 799.25,-417.61 796.45,-425.61 802.05,-425.61"/>
<text xml:space="preserve" text-anchor="middle" x="613.88" y="-726.2" font-family="Helvetica,sans-Serif" font-size="9.00" fill="#888888">Fuel</text>
</g>
<!-- cf&#45;&gt;shipyards -->
<g id="edge7" class="edge">
<title>cf&#45;&gt;shipyards</title>
<path fill="none" stroke="#4ecdc4" stroke-dasharray="5,2" d="M430.47,-348C452.72,-348 476.25,-348 476.25,-348 476.25,-348 476.25,-543 476.25,-543 476.25,-543 566.03,-543 566.03,-543"/>
<polygon fill="#4ecdc4" stroke="#4ecdc4" points="566.03,-545.8 574.03,-543 566.03,-540.2 566.03,-545.8"/>
<text xml:space="preserve" text-anchor="middle" x="503.5" y="-534.2" font-family="Helvetica,sans-Serif" font-size="9.00" fill="#888888">Upgrade</text>
</g>
<!-- installations -->
<g id="node10" class="node">
<title>installations</title>
<path fill="#4d2d3d" stroke="#ff6b6b" d="M638,-357C638,-357 589.75,-357 589.75,-357 583.75,-357 577.75,-351 577.75,-345 577.75,-345 577.75,-333 577.75,-333 577.75,-327 583.75,-321 589.75,-321 589.75,-321 638,-321 638,-321 644,-321 650,-327 650,-333 650,-333 650,-345 650,-345 650,-351 644,-357 638,-357"/>
<text xml:space="preserve" text-anchor="middle" x="613.88" y="-340.55" font-family="Helvetica,sans-Serif" font-size="11.00" fill="white">New</text>
<text xml:space="preserve" text-anchor="middle" x="613.88" y="-328.55" font-family="Helvetica,sans-Serif" font-size="11.00" fill="white">Installations</text>
</g>
<!-- cf&#45;&gt;installations -->
<g id="edge6" class="edge">
<title>cf&#45;&gt;installations</title>
<path fill="none" stroke="#4ecdc4" d="M430.34,-339C430.34,-339 567.93,-339 567.93,-339"/>
<polygon fill="#4ecdc4" stroke="#4ecdc4" points="567.93,-341.8 575.93,-339 567.93,-336.2 567.93,-341.8"/>
<text xml:space="preserve" text-anchor="middle" x="503.5" y="-340.2" font-family="Helvetica,sans-Serif" font-size="9.00" fill="#888888">BP</text>
</g>
<!-- compound -->
<g id="node20" class="node">
<title>compound</title>
<polygon fill="#2d4d4d" stroke="#95d5b2" points="664.25,-285.38 557.5,-285.38 557.5,-228.62 670.25,-228.62 670.25,-279.38 664.25,-285.38"/>
<polyline fill="none" stroke="#95d5b2" points="664.25,-285.38 664.25,-279.38"/>
<polyline fill="none" stroke="#95d5b2" points="670.25,-279.38 664.25,-279.38"/>
<text xml:space="preserve" text-anchor="middle" x="613.88" y="-272.82" font-family="Helvetica,sans-Serif" font-size="9.00" fill="#95d5b2">KEY INSIGHT:</text>
<text xml:space="preserve" text-anchor="middle" x="613.88" y="-263.07" font-family="Helvetica,sans-Serif" font-size="9.00" fill="#95d5b2">Construction Factories</text>
<text xml:space="preserve" text-anchor="middle" x="613.88" y="-253.32" font-family="Helvetica,sans-Serif" font-size="9.00" fill="#95d5b2">compound ALL growth &#45;</text>
<text xml:space="preserve" text-anchor="middle" x="613.88" y="-243.57" font-family="Helvetica,sans-Serif" font-size="9.00" fill="#95d5b2">build more to build</text>
<text xml:space="preserve" text-anchor="middle" x="613.88" y="-233.82" font-family="Helvetica,sans-Serif" font-size="9.00" fill="#95d5b2">everything faster</text>
</g>
<!-- cf&#45;&gt;compound -->
<!-- of -->
<g id="node6" class="node">
<title>of</title>
<path fill="#2d2d4d" stroke="#4ecdc4" d="M414.62,-593C414.62,-593 368.62,-593 368.62,-593 362.62,-593 356.62,-587 356.62,-581 356.62,-581 356.62,-561 356.62,-561 356.62,-555 362.62,-549 368.62,-549 368.62,-549 414.62,-549 414.62,-549 420.62,-549 426.62,-555 426.62,-561 426.62,-561 426.62,-581 426.62,-581 426.62,-587 420.62,-593 414.62,-593"/>
<text xml:space="preserve" text-anchor="middle" x="391.62" y="-578.55" font-family="Helvetica,sans-Serif" font-size="11.00" fill="white">Ordnance</text>
<text xml:space="preserve" text-anchor="middle" x="391.62" y="-566.55" font-family="Helvetica,sans-Serif" font-size="11.00" fill="white">Factories</text>
<text xml:space="preserve" text-anchor="middle" x="391.62" y="-554.55" font-family="Helvetica,sans-Serif" font-size="11.00" fill="white">10 BP/year</text>
</g>
<!-- missiles -->
<g id="node11" class="node">
<title>missiles</title>
<path fill="#4d2d3d" stroke="#ff6b6b" d="M633.88,-653C633.88,-653 593.88,-653 593.88,-653 587.88,-653 581.88,-647 581.88,-641 581.88,-641 581.88,-629 581.88,-629 581.88,-623 587.88,-617 593.88,-617 593.88,-617 633.88,-617 633.88,-617 639.88,-617 645.88,-623 645.88,-629 645.88,-629 645.88,-641 645.88,-641 645.88,-647 639.88,-653 633.88,-653"/>
<text xml:space="preserve" text-anchor="middle" x="613.88" y="-636.55" font-family="Helvetica,sans-Serif" font-size="11.00" fill="white">Missiles &amp;</text>
<text xml:space="preserve" text-anchor="middle" x="613.88" y="-624.55" font-family="Helvetica,sans-Serif" font-size="11.00" fill="white">Ordnance</text>
</g>
<!-- of&#45;&gt;missiles -->
<g id="edge8" class="edge">
<title>of&#45;&gt;missiles</title>
<path fill="none" stroke="#4ecdc4" d="M426.9,-587C489.67,-587 614.25,-587 614.25,-587 614.25,-587 614.25,-607.07 614.25,-607.07"/>
<polygon fill="#4ecdc4" stroke="#4ecdc4" points="611.45,-607.07 614.25,-615.07 617.05,-607.07 611.45,-607.07"/>
<text xml:space="preserve" text-anchor="middle" x="503.5" y="-636.2" font-family="Helvetica,sans-Serif" font-size="9.00" fill="#888888">BP</text>
</g>
<!-- ff -->
<g id="node7" class="node">
<title>ff</title>
<path fill="#2d2d4d" stroke="#4ecdc4" d="M414.62,-513C414.62,-513 368.62,-513 368.62,-513 362.62,-513 356.62,-507 356.62,-501 356.62,-501 356.62,-481 356.62,-481 356.62,-475 362.62,-469 368.62,-469 368.62,-469 414.62,-469 414.62,-469 420.62,-469 426.62,-475 426.62,-481 426.62,-481 426.62,-501 426.62,-501 426.62,-507 420.62,-513 414.62,-513"/>
<text xml:space="preserve" text-anchor="middle" x="391.62" y="-498.55" font-family="Helvetica,sans-Serif" font-size="11.00" fill="white">Fighter</text>
<text xml:space="preserve" text-anchor="middle" x="391.62" y="-486.55" font-family="Helvetica,sans-Serif" font-size="11.00" fill="white">Factories</text>
<text xml:space="preserve" text-anchor="middle" x="391.62" y="-474.55" font-family="Helvetica,sans-Serif" font-size="11.00" fill="white">10 BP/year</text>
</g>
<!-- fighters -->
<g id="node12" class="node">
<title>fighters</title>
<path fill="#4d2d3d" stroke="#ff6b6b" d="M634.62,-501C634.62,-501 593.12,-501 593.12,-501 587.12,-501 581.12,-495 581.12,-489 581.12,-489 581.12,-477 581.12,-477 581.12,-471 587.12,-465 593.12,-465 593.12,-465 634.62,-465 634.62,-465 640.62,-465 646.62,-471 646.62,-477 646.62,-477 646.62,-489 646.62,-489 646.62,-495 640.62,-501 634.62,-501"/>
<text xml:space="preserve" text-anchor="middle" x="613.88" y="-484.55" font-family="Helvetica,sans-Serif" font-size="11.00" fill="white">Fighters &amp;</text>
<text xml:space="preserve" text-anchor="middle" x="613.88" y="-472.55" font-family="Helvetica,sans-Serif" font-size="11.00" fill="white">FACs</text>
</g>
<!-- ff&#45;&gt;fighters -->
<g id="edge9" class="edge">
<title>ff&#45;&gt;fighters</title>
<path fill="none" stroke="#4ecdc4" d="M426.84,-485C426.84,-485 571.12,-485 571.12,-485"/>
<polygon fill="#4ecdc4" stroke="#4ecdc4" points="571.13,-487.8 579.12,-485 571.12,-482.2 571.13,-487.8"/>
<text xml:space="preserve" text-anchor="middle" x="503.5" y="-483.2" font-family="Helvetica,sans-Serif" font-size="9.00" fill="#888888">BP</text>
</g>
<!-- gfcc -->
<g id="node8" class="node">
<title>gfcc</title>
<path fill="#2d2d4d" stroke="#4ecdc4" d="M421,-433C421,-433 362.25,-433 362.25,-433 356.25,-433 350.25,-427 350.25,-421 350.25,-421 350.25,-409 350.25,-409 350.25,-403 356.25,-397 362.25,-397 362.25,-397 421,-397 421,-397 427,-397 433,-403 433,-409 433,-409 433,-421 433,-421 433,-427 427,-433 421,-433"/>
<text xml:space="preserve" text-anchor="middle" x="391.62" y="-416.55" font-family="Helvetica,sans-Serif" font-size="11.00" fill="white">Ground Force</text>
<text xml:space="preserve" text-anchor="middle" x="391.62" y="-404.55" font-family="Helvetica,sans-Serif" font-size="11.00" fill="white">Construction</text>
</g>
<!-- ground -->
<g id="node14" class="node">
<title>ground</title>
<path fill="#4d2d3d" stroke="#ff6b6b" d="M628.88,-429C628.88,-429 598.88,-429 598.88,-429 592.88,-429 586.88,-423 586.88,-417 586.88,-417 586.88,-405 586.88,-405 586.88,-399 592.88,-393 598.88,-393 598.88,-393 628.88,-393 628.88,-393 634.88,-393 640.88,-399 640.88,-405 640.88,-405 640.88,-417 640.88,-417 640.88,-423 634.88,-429 628.88,-429"/>
<text xml:space="preserve" text-anchor="middle" x="613.88" y="-412.55" font-family="Helvetica,sans-Serif" font-size="11.00" fill="white">Ground</text>
<text xml:space="preserve" text-anchor="middle" x="613.88" y="-400.55" font-family="Helvetica,sans-Serif" font-size="11.00" fill="white">Forces</text>
</g>
<!-- gfcc&#45;&gt;ground -->
<g id="edge10" class="edge">
<title>gfcc&#45;&gt;ground</title>
<path fill="none" stroke="#4ecdc4" d="M433.43,-413C433.43,-413 577.1,-413 577.1,-413"/>
<polygon fill="#4ecdc4" stroke="#4ecdc4" points="577.1,-415.8 585.1,-413 577.1,-410.2 577.1,-415.8"/>
<text xml:space="preserve" text-anchor="middle" x="503.5" y="-414.2" font-family="Helvetica,sans-Serif" font-size="9.00" fill="#888888">Units</text>
</g>
<!-- shipyards&#45;&gt;ships -->
<g id="edge11" class="edge">
<title>shipyards&#45;&gt;ships</title>
<path fill="none" stroke="#4ecdc4" d="M652.27,-559C701.69,-559 781.25,-559 781.25,-559 781.25,-559 781.25,-425.98 781.25,-425.98"/>
<polygon fill="#4ecdc4" stroke="#4ecdc4" points="784.05,-425.98 781.25,-417.98 778.45,-425.98 784.05,-425.98"/>
<text xml:space="preserve" text-anchor="middle" x="716.75" y="-459.2" font-family="Helvetica,sans-Serif" font-size="9.00" fill="#888888">Build</text>
</g>
<!-- research -->
<g id="node15" class="node">
<title>research</title>
<path fill="#3d3d3d" stroke="#4ecdc4" d="M137.5,-276C137.5,-276 84.75,-276 84.75,-276 78.75,-276 72.75,-270 72.75,-264 72.75,-264 72.75,-244 72.75,-244 72.75,-238 78.75,-232 84.75,-232 84.75,-232 137.5,-232 137.5,-232 143.5,-232 149.5,-238 149.5,-244 149.5,-244 149.5,-264 149.5,-264 149.5,-270 143.5,-276 137.5,-276"/>
<text xml:space="preserve" text-anchor="middle" x="111.12" y="-261.55" font-family="Helvetica,sans-Serif" font-size="11.00" fill="white">Research</text>
<text xml:space="preserve" text-anchor="middle" x="111.12" y="-249.55" font-family="Helvetica,sans-Serif" font-size="11.00" fill="white">Facilities</text>
<text xml:space="preserve" text-anchor="middle" x="111.12" y="-237.55" font-family="Helvetica,sans-Serif" font-size="11.00" fill="white">200 RP/year</text>
</g>
<!-- research&#45;&gt;cf -->
<g id="edge13" class="edge">
<title>research&#45;&gt;cf</title>
<path fill="none" stroke="#4ecdc4" stroke-dasharray="5,2" d="M144.25,-276.4C144.25,-297.14 144.25,-324.8 144.25,-324.8 144.25,-324.8 343.46,-324.8 343.46,-324.8"/>
<polygon fill="#4ecdc4" stroke="#4ecdc4" points="343.46,-327.6 351.46,-324.8 343.46,-322 343.46,-327.6"/>
<text xml:space="preserve" text-anchor="middle" x="278.5" y="-281.95" font-family="Helvetica,sans-Serif" font-size="9.00" fill="#888888">Tech</text>
<text xml:space="preserve" text-anchor="middle" x="278.5" y="-272.2" font-family="Helvetica,sans-Serif" font-size="9.00" fill="#888888">Upgrades</text>
</g>
<!-- maintenance -->
<g id="node16" class="node">
<title>maintenance</title>
<path fill="#3d3d3d" stroke="#4ecdc4" d="M145.75,-196C145.75,-196 76.5,-196 76.5,-196 70.5,-196 64.5,-190 64.5,-184 64.5,-184 64.5,-164 64.5,-164 64.5,-158 70.5,-152 76.5,-152 76.5,-152 145.75,-152 145.75,-152 151.75,-152 157.75,-158 157.75,-164 157.75,-164 157.75,-184 157.75,-184 157.75,-190 151.75,-196 145.75,-196"/>
<text xml:space="preserve" text-anchor="middle" x="111.12" y="-181.55" font-family="Helvetica,sans-Serif" font-size="11.00" fill="white">Maintenance</text>
<text xml:space="preserve" text-anchor="middle" x="111.12" y="-169.55" font-family="Helvetica,sans-Serif" font-size="11.00" fill="white">Facilities</text>
<text xml:space="preserve" text-anchor="middle" x="111.12" y="-157.55" font-family="Helvetica,sans-Serif" font-size="11.00" fill="white">MSP production</text>
</g>
<!-- maintenance&#45;&gt;ships -->
<g id="edge12" class="edge">
<title>maintenance&#45;&gt;ships</title>
<path fill="none" stroke="#4ecdc4" stroke-dasharray="5,2" d="M152.25,-196.29C152.25,-250.72 152.25,-386 152.25,-386 152.25,-386 753.32,-386 753.32,-386"/>
<polygon fill="#4ecdc4" stroke="#4ecdc4" points="753.32,-388.8 761.32,-386 753.32,-383.2 753.32,-388.8"/>
<text xml:space="preserve" text-anchor="middle" x="503.5" y="-175.2" font-family="Helvetica,sans-Serif" font-size="9.00" fill="#888888">MSP</text>
</g>
<!-- financial -->
<g id="node17" class="node">
<title>financial</title>
<path fill="#3d3d3d" stroke="#4ecdc4" d="M128.5,-436C128.5,-436 93.75,-436 93.75,-436 87.75,-436 81.75,-430 81.75,-424 81.75,-424 81.75,-404 81.75,-404 81.75,-398 87.75,-392 93.75,-392 93.75,-392 128.5,-392 128.5,-392 134.5,-392 140.5,-398 140.5,-404 140.5,-404 140.5,-424 140.5,-424 140.5,-430 134.5,-436 128.5,-436"/>
<text xml:space="preserve" text-anchor="middle" x="111.12" y="-421.55" font-family="Helvetica,sans-Serif" font-size="11.00" fill="white">Financial</text>
<text xml:space="preserve" text-anchor="middle" x="111.12" y="-409.55" font-family="Helvetica,sans-Serif" font-size="11.00" fill="white">Centres</text>
<text xml:space="preserve" text-anchor="middle" x="111.12" y="-397.55" font-family="Helvetica,sans-Serif" font-size="11.00" fill="white">Wealth</text>
</g>
<!-- financial&#45;&gt;cf -->
<g id="edge14" class="edge">
<title>financial&#45;&gt;cf</title>
<path fill="none" stroke="#4ecdc4" stroke-dasharray="5,2" d="M140.96,-415C144.7,-415 147.25,-415 147.25,-415 147.25,-415 147.25,-332.6 147.25,-332.6 147.25,-332.6 343.39,-332.6 343.39,-332.6"/>
<polygon fill="#4ecdc4" stroke="#4ecdc4" points="343.39,-335.4 351.39,-332.6 343.39,-329.8 343.39,-335.4"/>
<text xml:space="preserve" text-anchor="middle" x="278.5" y="-351.2" font-family="Helvetica,sans-Serif" font-size="9.00" fill="#888888">Wealth</text>
</g>
<!-- dsts -->
<g id="node18" class="node">
<title>dsts</title>
<path fill="#3d3d3d" stroke="#4ecdc4" d="M130,-356C130,-356 92.25,-356 92.25,-356 86.25,-356 80.25,-350 80.25,-344 80.25,-344 80.25,-324 80.25,-324 80.25,-318 86.25,-312 92.25,-312 92.25,-312 130,-312 130,-312 136,-312 142,-318 142,-324 142,-324 142,-344 142,-344 142,-350 136,-356 130,-356"/>
<text xml:space="preserve" text-anchor="middle" x="111.12" y="-341.55" font-family="Helvetica,sans-Serif" font-size="11.00" fill="white">Tracking</text>
<text xml:space="preserve" text-anchor="middle" x="111.12" y="-329.55" font-family="Helvetica,sans-Serif" font-size="11.00" fill="white">Stations</text>
<text xml:space="preserve" text-anchor="middle" x="111.12" y="-317.55" font-family="Helvetica,sans-Serif" font-size="11.00" fill="white">Detection</text>
</g>
<!-- academy -->
<g id="node19" class="node">
<title>academy</title>
<path fill="#3d3d3d" stroke="#4ecdc4" d="M133.75,-116C133.75,-116 88.5,-116 88.5,-116 82.5,-116 76.5,-110 76.5,-104 76.5,-104 76.5,-84 76.5,-84 76.5,-78 82.5,-72 88.5,-72 88.5,-72 133.75,-72 133.75,-72 139.75,-72 145.75,-78 145.75,-84 145.75,-84 145.75,-104 145.75,-104 145.75,-110 139.75,-116 133.75,-116"/>
<text xml:space="preserve" text-anchor="middle" x="111.12" y="-101.55" font-family="Helvetica,sans-Serif" font-size="11.00" fill="white">Military</text>
<text xml:space="preserve" text-anchor="middle" x="111.12" y="-89.55" font-family="Helvetica,sans-Serif" font-size="11.00" fill="white">Academies</text>
<text xml:space="preserve" text-anchor="middle" x="111.12" y="-77.55" font-family="Helvetica,sans-Serif" font-size="11.00" fill="white">Officers</text>
</g>
<!-- academy&#45;&gt;ships -->
<g id="edge15" class="edge">
<title>academy&#45;&gt;ships</title>
<path fill="none" stroke="#4ecdc4" stroke-dasharray="5,2" d="M146.21,-94C285.27,-94 790.25,-94 790.25,-94 790.25,-94 790.25,-370.38 790.25,-370.38"/>
<polygon fill="#4ecdc4" stroke="#4ecdc4" points="787.45,-370.38 790.25,-378.38 793.05,-370.38 787.45,-370.38"/>
<text xml:space="preserve" text-anchor="middle" x="503.5" y="-98.2" font-family="Helvetica,sans-Serif" font-size="9.00" fill="#888888">Officers</text>
</g>
</g>
</svg>
