<?xml version="1.0" encoding="UTF-8" standalone="no"?>
<!DOCTYPE svg PUBLIC "-//W3C//DTD SVG 1.1//EN"
 "http://www.w3.org/Graphics/SVG/1.1/DTD/svg11.dtd">
<!-- Generated by graphviz version 14.1.2 (20260124.0452)
 -->
<!-- Title: G Pages: 1 -->
<svg width="556pt" height="772pt"
 viewBox="0.00 0.00 556.00 772.00" xmlns="http://www.w3.org/2000/svg" xmlns:xlink="http://www.w3.org/1999/xlink">
<g id="graph0" class="graph" transform="scale(1 1) rotate(0) translate(4 767.5)">
<title>G</title>
<polygon fill="#1a1a2e" stroke="none" points="-4,4 -4,-767.5 552,-767.5 552,4 -4,4"/>
<g id="clust1" class="cluster">
<title>cluster_behavioral</title>
<polygon fill="#1f1f2a" stroke="#ffe66d" stroke-dasharray="5,2" points="8,-495.75 8,-719.5 540,-719.5 540,-495.75 8,-495.75"/>
<text xml:space="preserve" text-anchor="middle" x="274" y="-702.2" font-family="Helvetica,sans-Serif" font-size="14.00" fill="#ffe66d">Behavioral Trait Modifiers</text>
</g>
<g id="clust2" class="cluster">
<title>cluster_installations</title>
<polygon fill="#1f1f2a" stroke="#4ecdc4" stroke-dasharray="5,2" points="8,-264 8,-487.75 540,-487.75 540,-264 8,-264"/>
<text xml:space="preserve" text-anchor="middle" x="274" y="-470.45" font-family="Helvetica,sans-Serif" font-size="14.00" fill="#4ecdc4">Starting Installation Modifiers (%)</text>
</g>
<!-- title -->
<g id="node1" class="node">
<title>title</title>
<polygon fill="#2d2d44" stroke="none" points="397.12,-763.5 150.88,-763.5 150.88,-727.5 397.12,-727.5 397.12,-763.5"/>
<text xml:space="preserve" text-anchor="middle" x="274" y="-738.55" font-family="Helvetica,sans-Serif" font-size="16.00" fill="#4ecdc4">Government Type Impact Matrix</text>
</g>
<!-- beh_header -->
<g id="node2" class="node">
<title>beh_header</title>
<polygon fill="#2d2d44" stroke="none" points="532,-688.5 16,-688.5 16,-503.75 532,-503.75 532,-688.5"/>
<polygon fill="#1a1a2e" stroke="none" points="24,-507.75 24,-684.5 524,-684.5 524,-507.75 24,-507.75"/>
<polygon fill="#2d2d44" stroke="none" points="24,-659.25 24,-684.5 164,-684.5 164,-659.25 24,-659.25"/>
<polygon fill="none" stroke="#4ecdc4" points="24,-659.25 24,-684.5 164,-684.5 164,-659.25 24,-659.25"/>
<text xml:space="preserve" text-anchor="start" x="65.5" y="-669" font-family="Helvetica,sans-Serif" font-weight="bold" font-size="10.00" fill="white">Government</text>
<polygon fill="#2d2d44" stroke="none" points="164,-659.25 164,-684.5 224,-684.5 224,-659.25 164,-659.25"/>
<polygon fill="none" stroke="#4ecdc4" points="164,-659.25 164,-684.5 224,-684.5 224,-659.25 164,-659.25"/>
<text xml:space="preserve" text-anchor="start" x="182" y="-669" font-family="Helvetica,sans-Serif" font-weight="bold" font-size="10.00" fill="white">Xeno</text>
<polygon fill="#2d2d44" stroke="none" points="224,-659.25 224,-684.5 284,-684.5 284,-659.25 224,-659.25"/>
<polygon fill="none" stroke="#4ecdc4" points="224,-659.25 224,-684.5 284,-684.5 284,-659.25 224,-659.25"/>
<text xml:space="preserve" text-anchor="start" x="241.25" y="-669" font-family="Helvetica,sans-Serif" font-weight="bold" font-size="10.00" fill="white">Diplo</text>
<polygon fill="#2d2d44" stroke="none" points="284,-659.25 284,-684.5 344,-684.5 344,-659.25 284,-659.25"/>
<polygon fill="none" stroke="#4ecdc4" points="284,-659.25 284,-684.5 344,-684.5 344,-659.25 284,-659.25"/>
<text xml:space="preserve" text-anchor="start" x="303.88" y="-669" font-family="Helvetica,sans-Serif" font-weight="bold" font-size="10.00" fill="white">Milit</text>
<polygon fill="#2d2d44" stroke="none" points="344,-659.25 344,-684.5 404,-684.5 404,-659.25 344,-659.25"/>
<polygon fill="none" stroke="#4ecdc4" points="344,-659.25 344,-684.5 404,-684.5 404,-659.25 344,-659.25"/>
<text xml:space="preserve" text-anchor="start" x="359.38" y="-669" font-family="Helvetica,sans-Serif" font-weight="bold" font-size="10.00" fill="white">Expan</text>
<polygon fill="#2d2d44" stroke="none" points="404,-659.25 404,-684.5 464,-684.5 464,-659.25 404,-659.25"/>
<polygon fill="none" stroke="#4ecdc4" points="404,-659.25 404,-684.5 464,-684.5 464,-659.25 404,-659.25"/>
<text xml:space="preserve" text-anchor="start" x="417.12" y="-669" font-family="Helvetica,sans-Serif" font-weight="bold" font-size="10.00" fill="white">Determ</text>
<polygon fill="#2d2d44" stroke="none" points="464,-659.25 464,-684.5 524,-684.5 524,-659.25 464,-659.25"/>
<polygon fill="none" stroke="#4ecdc4" points="464,-659.25 464,-684.5 524,-684.5 524,-659.25 464,-659.25"/>
<text xml:space="preserve" text-anchor="start" x="480.88" y="-669" font-family="Helvetica,sans-Serif" font-weight="bold" font-size="10.00" fill="white">Trade</text>
<polygon fill="#3d3d3d" stroke="none" points="24,-634 24,-659.25 164,-659.25 164,-634 24,-634"/>
<polygon fill="none" stroke="#4ecdc4" points="24,-634 24,-659.25 164,-659.25 164,-634 24,-634"/>
<text xml:space="preserve" text-anchor="start" x="67" y="-642.75" font-family="Helvetica,sans-Serif" font-size="10.00" fill="#888888">Player Race</text>
<polygon fill="#3d3d3d" stroke="none" points="164,-634 164,-659.25 224,-659.25 224,-634 164,-634"/>
<polygon fill="none" stroke="#4ecdc4" points="164,-634 164,-659.25 224,-659.25 224,-634 164,-634"/>
<text xml:space="preserve" text-anchor="start" x="191.38" y="-642.75" font-family="Helvetica,sans-Serif" font-size="10.00" fill="#888888">0</text>
<polygon fill="#3d3d3d" stroke="none" points="224,-634 224,-659.25 284,-659.25 284,-634 224,-634"/>
<polygon fill="none" stroke="#4ecdc4" points="224,-634 224,-659.25 284,-659.25 284,-634 224,-634"/>
<text xml:space="preserve" text-anchor="start" x="251.38" y="-642.75" font-family="Helvetica,sans-Serif" font-size="10.00" fill="#888888">0</text>
<polygon fill="#3d3d3d" stroke="none" points="284,-634 284,-659.25 344,-659.25 344,-634 284,-634"/>
<polygon fill="none" stroke="#4ecdc4" points="284,-634 284,-659.25 344,-659.25 344,-634 284,-634"/>
<text xml:space="preserve" text-anchor="start" x="311.38" y="-642.75" font-family="Helvetica,sans-Serif" font-size="10.00" fill="#888888">0</text>
<polygon fill="#3d3d3d" stroke="none" points="344,-634 344,-659.25 404,-659.25 404,-634 344,-634"/>
<polygon fill="none" stroke="#4ecdc4" points="344,-634 344,-659.25 404,-659.25 404,-634 344,-634"/>
<text xml:space="preserve" text-anchor="start" x="371.38" y="-642.75" font-family="Helvetica,sans-Serif" font-size="10.00" fill="#888888">0</text>
<polygon fill="#3d3d3d" stroke="none" points="404,-634 404,-659.25 464,-659.25 464,-634 404,-634"/>
<polygon fill="none" stroke="#4ecdc4" points="404,-634 404,-659.25 464,-659.25 464,-634 404,-634"/>
<text xml:space="preserve" text-anchor="start" x="431.38" y="-642.75" font-family="Helvetica,sans-Serif" font-size="10.00" fill="#888888">0</text>
<polygon fill="#3d3d3d" stroke="none" points="464,-634 464,-659.25 524,-659.25 524,-634 464,-634"/>
<polygon fill="none" stroke="#4ecdc4" points="464,-634 464,-659.25 524,-659.25 524,-634 464,-634"/>
<text xml:space="preserve" text-anchor="start" x="491.38" y="-642.75" font-family="Helvetica,sans-Serif" font-size="10.00" fill="#888888">0</text>
<polygon fill="#2d4d44" stroke="none" points="24,-608.75 24,-634 164,-634 164,-608.75 24,-608.75"/>
<polygon fill="none" stroke="#4ecdc4" points="24,-608.75 24,-634 164,-634 164,-608.75 24,-608.75"/>
<text xml:space="preserve" text-anchor="start" x="56.88" y="-617.5" font-family="Helvetica,sans-Serif" font-size="10.00" fill="#95d5b2">Rep. Democracy</text>
<polygon fill="#3d3d3d" stroke="none" points="164,-608.75 164,-634 224,-634 224,-608.75 164,-608.75"/>
<polygon fill="none" stroke="#4ecdc4" points="164,-608.75 164,-634 224,-634 224,-608.75 164,-608.75"/>
<text xml:space="preserve" text-anchor="start" x="191.38" y="-617.5" font-family="Helvetica,sans-Serif" font-size="10.00" fill="white">0</text>
<polygon fill="#2d4d3d" stroke="none" points="224,-608.75 224,-634 284,-634 284,-608.75 224,-608.75"/>
<polygon fill="none" stroke="#4ecdc4" points="224,-608.75 224,-634 284,-634 284,-608.75 224,-608.75"/>
<text xml:space="preserve" text-anchor="start" x="245.75" y="-617.5" font-family="Helvetica,sans-Serif" font-size="10.00" fill="#95d5b2">+10</text>
<polygon fill="#4d3d3d" stroke="none" points="284,-608.75 284,-634 344,-634 344,-608.75 284,-608.75"/>
<polygon fill="none" stroke="#4ecdc4" points="284,-608.75 284,-634 344,-634 344,-608.75 284,-608.75"/>
<text xml:space="preserve" text-anchor="start" x="307.25" y="-617.5" font-family="Helvetica,sans-Serif" font-size="10.00" fill="#ff9999">&#45;10</text>
<polygon fill="#2d4d3d" stroke="none" points="344,-608.75 344,-634 404,-634 404,-608.75 344,-608.75"/>
<polygon fill="none" stroke="#4ecdc4" points="344,-608.75 344,-634 404,-634 404,-608.75 344,-608.75"/>
<text xml:space="preserve" text-anchor="start" x="365.75" y="-617.5" font-family="Helvetica,sans-Serif" font-size="10.00" fill="#95d5b2">+10</text>
<polygon fill="#3d3d3d" stroke="none" points="404,-608.75 404,-634 464,-634 464,-608.75 404,-608.75"/>
<polygon fill="none" stroke="#4ecdc4" points="404,-608.75 404,-634 464,-634 464,-608.75 404,-608.75"/>
<text xml:space="preserve" text-anchor="start" x="431.38" y="-617.5" font-family="Helvetica,sans-Serif" font-size="10.00" fill="white">0</text>
<polygon fill="#2d4d3d" stroke="none" points="464,-608.75 464,-634 524,-634 524,-608.75 464,-608.75"/>
<polygon fill="none" stroke="#4ecdc4" points="464,-608.75 464,-634 524,-634 524,-608.75 464,-608.75"/>
<text xml:space="preserve" text-anchor="start" x="485.75" y="-617.5" font-family="Helvetica,sans-Serif" font-size="10.00" fill="#95d5b2">+15</text>
<polygon fill="#4d2d3d" stroke="none" points="24,-583.5 24,-608.75 164,-608.75 164,-583.5 24,-583.5"/>
<polygon fill="none" stroke="#4ecdc4" points="24,-583.5 24,-608.75 164,-608.75 164,-583.5 24,-583.5"/>
<text xml:space="preserve" text-anchor="start" x="58.38" y="-592.25" font-family="Helvetica,sans-Serif" font-size="10.00" fill="#ff6b6b">Mil. Dictatorship</text>
<polygon fill="#4d2d2d" stroke="none" points="164,-583.5 164,-608.75 224,-608.75 224,-583.5 164,-583.5"/>
<polygon fill="none" stroke="#4ecdc4" points="164,-583.5 164,-608.75 224,-608.75 224,-583.5 164,-583.5"/>
<text xml:space="preserve" text-anchor="start" x="185.75" y="-592.25" font-family="Helvetica,sans-Serif" font-size="10.00" fill="#ff6b6b">+20</text>
<polygon fill="#4d3d3d" stroke="none" points="224,-583.5 224,-608.75 284,-608.75 284,-583.5 224,-583.5"/>
<polygon fill="none" stroke="#4ecdc4" points="224,-583.5 224,-608.75 284,-608.75 284,-583.5 224,-583.5"/>
<text xml:space="preserve" text-anchor="start" x="247.25" y="-592.25" font-family="Helvetica,sans-Serif" font-size="10.00" fill="#ff9999">&#45;15</text>
<polygon fill="#4d2d2d" stroke="none" points="284,-583.5 284,-608.75 344,-608.75 344,-583.5 284,-583.5"/>
<polygon fill="none" stroke="#4ecdc4" points="284,-583.5 284,-608.75 344,-608.75 344,-583.5 284,-583.5"/>
<text xml:space="preserve" text-anchor="start" x="305.75" y="-592.25" font-family="Helvetica,sans-Serif" font-size="10.00" fill="#ff6b6b">+20</text>
<polygon fill="#4d3d2d" stroke="none" points="344,-583.5 344,-608.75 404,-608.75 404,-583.5 344,-583.5"/>
<polygon fill="none" stroke="#4ecdc4" points="344,-583.5 344,-608.75 404,-608.75 404,-583.5 344,-583.5"/>
<text xml:space="preserve" text-anchor="start" x="365.75" y="-592.25" font-family="Helvetica,sans-Serif" font-size="10.00" fill="#ffe66d">+15</text>
<polygon fill="#4d3d2d" stroke="none" points="404,-583.5 404,-608.75 464,-608.75 464,-583.5 404,-583.5"/>
<polygon fill="none" stroke="#4ecdc4" points="404,-583.5 404,-608.75 464,-608.75 464,-583.5 404,-583.5"/>
<text xml:space="preserve" text-anchor="start" x="425.75" y="-592.25" font-family="Helvetica,sans-Serif" font-size="10.00" fill="#ffe66d">+15</text>
<polygon fill="#4d3d3d" stroke="none" points="464,-583.5 464,-608.75 524,-608.75 524,-583.5 464,-583.5"/>
<polygon fill="none" stroke="#4ecdc4" points="464,-583.5 464,-608.75 524,-608.75 524,-583.5 464,-583.5"/>
<text xml:space="preserve" text-anchor="start" x="487.25" y="-592.25" font-family="Helvetica,sans-Serif" font-size="10.00" fill="#ff9999">&#45;10</text>
<polygon fill="#2d4d4d" stroke="none" points="24,-558.25 24,-583.5 164,-583.5 164,-558.25 24,-558.25"/>
<polygon fill="none" stroke="#4ecdc4" points="24,-558.25 24,-583.5 164,-583.5 164,-558.25 24,-558.25"/>
<text xml:space="preserve" text-anchor="start" x="68.5" y="-567" font-family="Helvetica,sans-Serif" font-size="10.00" fill="#4ecdc4">Meritocracy</text>
<polygon fill="#3d4d3d" stroke="none" points="164,-558.25 164,-583.5 224,-583.5 224,-558.25 164,-558.25"/>
<polygon fill="none" stroke="#4ecdc4" points="164,-558.25 164,-583.5 224,-583.5 224,-558.25 164,-558.25"/>
<text xml:space="preserve" text-anchor="start" x="187.25" y="-567" font-family="Helvetica,sans-Serif" font-size="10.00" fill="#95d5b2">&#45;10</text>
<polygon fill="#2d4d3d" stroke="none" points="224,-558.25 224,-583.5 284,-583.5 284,-558.25 224,-558.25"/>
<polygon fill="none" stroke="#4ecdc4" points="224,-558.25 224,-583.5 284,-583.5 284,-558.25 224,-558.25"/>
<text xml:space="preserve" text-anchor="start" x="245.75" y="-567" font-family="Helvetica,sans-Serif" font-size="10.00" fill="#95d5b2">+20</text>
<polygon fill="#3d4d3d" stroke="none" points="284,-558.25 284,-583.5 344,-583.5 344,-558.25 284,-558.25"/>
<polygon fill="none" stroke="#4ecdc4" points="284,-558.25 284,-583.5 344,-583.5 344,-558.25 284,-558.25"/>
<text xml:space="preserve" text-anchor="start" x="307.25" y="-567" font-family="Helvetica,sans-Serif" font-size="10.00" fill="#95d5b2">&#45;10</text>
<polygon fill="#3d3d3d" stroke="none" points="344,-558.25 344,-583.5 404,-583.5 404,-558.25 344,-558.25"/>
<polygon fill="none" stroke="#4ecdc4" points="344,-558.25 344,-583.5 404,-583.5 404,-558.25 344,-558.25"/>
<text xml:space="preserve" text-anchor="start" x="371.38" y="-567" font-family="Helvetica,sans-Serif" font-size="10.00" fill="white">0</text>
<polygon fill="#3d3d3d" stroke="none" points="404,-558.25 404,-583.5 464,-583.5 464,-558.25 404,-558.25"/>
<polygon fill="none" stroke="#4ecdc4" points="404,-558.25 404,-583.5 464,-583.5 464,-558.25 404,-558.25"/>
<text xml:space="preserve" text-anchor="start" x="431.38" y="-567" font-family="Helvetica,sans-Serif" font-size="10.00" fill="white">0</text>
<polygon fill="#2d4d3d" stroke="none" points="464,-558.25 464,-583.5 524,-583.5 524,-558.25 464,-558.25"/>
<polygon fill="none" stroke="#4ecdc4" points="464,-558.25 464,-583.5 524,-583.5 524,-558.25 464,-558.25"/>
<text xml:space="preserve" text-anchor="start" x="485.75" y="-567" font-family="Helvetica,sans-Serif" font-size="10.00" fill="#95d5b2">+10</text>
<polygon fill="#2d5d4d" stroke="none" points="24,-533 24,-558.25 164,-558.25 164,-533 24,-533"/>
<polygon fill="none" stroke="#4ecdc4" points="24,-533 24,-558.25 164,-558.25 164,-533 24,-533"/>
<text xml:space="preserve" text-anchor="start" x="69.62" y="-541.75" font-family="Helvetica,sans-Serif" font-size="10.00" fill="#95d5b2">Pax Utopia</text>
<polygon fill="#2d5d3d" stroke="none" points="164,-533 164,-558.25 224,-558.25 224,-533 164,-533"/>
<polygon fill="none" stroke="#4ecdc4" points="164,-533 164,-558.25 224,-558.25 224,-533 164,-533"/>
<text xml:space="preserve" text-anchor="start" x="187.25" y="-541.75" font-family="Helvetica,sans-Serif" font-size="10.00" fill="#95d5b2">&#45;20</text>
<polygon fill="#2d5d3d" stroke="none" points="224,-533 224,-558.25 284,-558.25 284,-533 224,-533"/>
<polygon fill="none" stroke="#4ecdc4" points="224,-533 224,-558.25 284,-558.25 284,-533 224,-533"/>
<text xml:space="preserve" text-anchor="start" x="245.75" y="-541.75" font-family="Helvetica,sans-Serif" font-size="10.00" fill="#95d5b2">+20</text>
<polygon fill="#2d5d3d" stroke="none" points="284,-533 284,-558.25 344,-558.25 344,-533 284,-533"/>
<polygon fill="none" stroke="#4ecdc4" points="284,-533 284,-558.25 344,-558.25 344,-533 284,-533"/>
<text xml:space="preserve" text-anchor="start" x="307.25" y="-541.75" font-family="Helvetica,sans-Serif" font-size="10.00" fill="#95d5b2">&#45;30</text>
<polygon fill="#4d3d3d" stroke="none" points="344,-533 344,-558.25 404,-558.25 404,-533 344,-533"/>
<polygon fill="none" stroke="#4ecdc4" points="344,-533 344,-558.25 404,-558.25 404,-533 344,-533"/>
<text xml:space="preserve" text-anchor="start" x="367.25" y="-541.75" font-family="Helvetica,sans-Serif" font-size="10.00" fill="#ff9999">&#45;30</text>
<polygon fill="#4d3d3d" stroke="none" points="404,-533 404,-558.25 464,-558.25 464,-533 404,-533"/>
<polygon fill="none" stroke="#4ecdc4" points="404,-533 404,-558.25 464,-558.25 464,-533 404,-533"/>
<text xml:space="preserve" text-anchor="start" x="427.25" y="-541.75" font-family="Helvetica,sans-Serif" font-size="10.00" fill="#ff9999">&#45;30</text>
<polygon fill="#2d4d3d" stroke="none" points="464,-533 464,-558.25 524,-558.25 524,-533 464,-533"/>
<polygon fill="none" stroke="#4ecdc4" points="464,-533 464,-558.25 524,-558.25 524,-533 464,-533"/>
<text xml:space="preserve" text-anchor="start" x="485.75" y="-541.75" font-family="Helvetica,sans-Serif" font-size="10.00" fill="#95d5b2">+10</text>
<polygon fill="#5d2d3d" stroke="none" points="24,-507.75 24,-533 164,-533 164,-507.75 24,-507.75"/>
<polygon fill="none" stroke="#4ecdc4" points="24,-507.75 24,-533 164,-533 164,-507.75 24,-507.75"/>
<text xml:space="preserve" text-anchor="start" x="71.88" y="-516.5" font-family="Helvetica,sans-Serif" font-size="10.00" fill="#ff6b6b">Hive Mind</text>
<polygon fill="#5d2d2d" stroke="none" points="164,-507.75 164,-533 224,-533 224,-507.75 164,-507.75"/>
<polygon fill="none" stroke="#4ecdc4" points="164,-507.75 164,-533 224,-533 224,-507.75 164,-507.75"/>
<text xml:space="preserve" text-anchor="start" x="185.75" y="-516.5" font-family="Helvetica,sans-Serif" font-size="10.00" fill="#ff6b6b">+30</text>
<polygon fill="#5d3d3d" stroke="none" points="224,-507.75 224,-533 284,-533 284,-507.75 224,-507.75"/>
<polygon fill="none" stroke="#4ecdc4" points="224,-507.75 224,-533 284,-533 284,-507.75 224,-507.75"/>
<text xml:space="preserve" text-anchor="start" x="247.25" y="-516.5" font-family="Helvetica,sans-Serif" font-size="10.00" fill="#ff9999">&#45;30</text>
<polygon fill="#5d2d2d" stroke="none" points="284,-507.75 284,-533 344,-533 344,-507.75 284,-507.75"/>
<polygon fill="none" stroke="#4ecdc4" points="284,-507.75 284,-533 344,-533 344,-507.75 284,-507.75"/>
<text xml:space="preserve" text-anchor="start" x="305.75" y="-516.5" font-family="Helvetica,sans-Serif" font-size="10.00" fill="#ff6b6b">+30</text>
<polygon fill="#4d2d2d" stroke="none" points="344,-507.75 344,-533 404,-533 404,-507.75 344,-507.75"/>
<polygon fill="none" stroke="#4ecdc4" points="344,-507.75 344,-533 404,-533 404,-507.75 344,-507.75"/>
<text xml:space="preserve" text-anchor="start" x="365.75" y="-516.5" font-family="Helvetica,sans-Serif" font-size="10.00" fill="#ff6b6b">+20</text>
<polygon fill="#5d2d2d" stroke="none" points="404,-507.75 404,-533 464,-533 464,-507.75 404,-507.75"/>
<polygon fill="none" stroke="#4ecdc4" points="404,-507.75 404,-533 464,-533 464,-507.75 404,-507.75"/>
<text xml:space="preserve" text-anchor="start" x="425.75" y="-516.5" font-family="Helvetica,sans-Serif" font-size="10.00" fill="#ff6b6b">+30</text>
<polygon fill="#5d3d3d" stroke="none" points="464,-507.75 464,-533 524,-533 524,-507.75 464,-507.75"/>
<polygon fill="none" stroke="#4ecdc4" points="464,-507.75 464,-533 524,-533 524,-507.75 464,-507.75"/>
<text xml:space="preserve" text-anchor="start" x="487.25" y="-516.5" font-family="Helvetica,sans-Serif" font-size="10.00" fill="#ff9999">&#45;30</text>
</g>
<!-- title&#45;&gt;beh_header -->
<!-- inst_header -->
<g id="node3" class="node">
<title>inst_header</title>
<polygon fill="#2d2d44" stroke="none" points="532,-456.75 16,-456.75 16,-272 532,-272 532,-456.75"/>
<polygon fill="#1a1a2e" stroke="none" points="24,-276 24,-452.75 524,-452.75 524,-276 24,-276"/>
<polygon fill="#2d2d44" stroke="none" points="24,-427.5 24,-452.75 164,-452.75 164,-427.5 24,-427.5"/>
<polygon fill="none" stroke="#4ecdc4" points="24,-427.5 24,-452.75 164,-452.75 164,-427.5 24,-427.5"/>
<text xml:space="preserve" text-anchor="start" x="65.5" y="-437.25" font-family="Helvetica,sans-Serif" font-weight="bold" font-size="10.00" fill="white">Government</text>
<polygon fill="#2d2d44" stroke="none" points="164,-427.5 164,-452.75 224,-452.75 224,-427.5 164,-427.5"/>
<polygon fill="none" stroke="#4ecdc4" points="164,-427.5 164,-452.75 224,-452.75 224,-427.5 164,-427.5"/>
<text xml:space="preserve" text-anchor="start" x="187.25" y="-437.25" font-family="Helvetica,sans-Serif" font-weight="bold" font-size="10.00" fill="white">SY</text>
<polygon fill="#2d2d44" stroke="none" points="224,-427.5 224,-452.75 284,-452.75 284,-427.5 224,-427.5"/>
<polygon fill="none" stroke="#4ecdc4" points="224,-427.5 224,-452.75 284,-452.75 284,-427.5 224,-427.5"/>
<text xml:space="preserve" text-anchor="start" x="242.75" y="-437.25" font-family="Helvetica,sans-Serif" font-weight="bold" font-size="10.00" fill="white">Labs</text>
<polygon fill="#2d2d44" stroke="none" points="284,-427.5 284,-452.75 344,-452.75 344,-427.5 284,-427.5"/>
<polygon fill="none" stroke="#4ecdc4" points="284,-427.5 284,-452.75 344,-452.75 344,-427.5 284,-427.5"/>
<text xml:space="preserve" text-anchor="start" x="307.25" y="-437.25" font-family="Helvetica,sans-Serif" font-weight="bold" font-size="10.00" fill="white">CF</text>
<polygon fill="#2d2d44" stroke="none" points="344,-427.5 344,-452.75 404,-452.75 404,-427.5 344,-427.5"/>
<polygon fill="none" stroke="#4ecdc4" points="344,-427.5 344,-452.75 404,-452.75 404,-427.5 344,-427.5"/>
<text xml:space="preserve" text-anchor="start" x="366.12" y="-437.25" font-family="Helvetica,sans-Serif" font-weight="bold" font-size="10.00" fill="white">Ref</text>
<polygon fill="#2d2d44" stroke="none" points="404,-427.5 404,-452.75 464,-452.75 464,-427.5 404,-427.5"/>
<polygon fill="none" stroke="#4ecdc4" points="404,-427.5 404,-452.75 464,-452.75 464,-427.5 404,-427.5"/>
<text xml:space="preserve" text-anchor="start" x="420.12" y="-437.25" font-family="Helvetica,sans-Serif" font-weight="bold" font-size="10.00" fill="white">Mines</text>
<polygon fill="#2d2d44" stroke="none" points="464,-427.5 464,-452.75 524,-452.75 524,-427.5 464,-427.5"/>
<polygon fill="none" stroke="#4ecdc4" points="464,-427.5 464,-452.75 524,-452.75 524,-427.5 464,-427.5"/>
<text xml:space="preserve" text-anchor="start" x="482.38" y="-437.25" font-family="Helvetica,sans-Serif" font-weight="bold" font-size="10.00" fill="white">Sens</text>
<polygon fill="#3d3d3d" stroke="none" points="24,-402.25 24,-427.5 164,-427.5 164,-402.25 24,-402.25"/>
<polygon fill="none" stroke="#4ecdc4" points="24,-402.25 24,-427.5 164,-427.5 164,-402.25 24,-402.25"/>
<text xml:space="preserve" text-anchor="start" x="67" y="-411" font-family="Helvetica,sans-Serif" font-size="10.00" fill="#888888">Player Race</text>
<polygon fill="#3d3d3d" stroke="none" points="164,-402.25 164,-427.5 224,-427.5 224,-402.25 164,-402.25"/>
<polygon fill="none" stroke="#4ecdc4" points="164,-402.25 164,-427.5 224,-427.5 224,-402.25 164,-402.25"/>
<text xml:space="preserve" text-anchor="start" x="188.75" y="-411" font-family="Helvetica,sans-Serif" font-size="10.00" fill="white">20</text>
<polygon fill="#3d3d3d" stroke="none" points="224,-402.25 224,-427.5 284,-427.5 284,-402.25 224,-402.25"/>
<polygon fill="none" stroke="#4ecdc4" points="224,-402.25 224,-427.5 284,-427.5 284,-402.25 224,-402.25"/>
<text xml:space="preserve" text-anchor="start" x="248.75" y="-411" font-family="Helvetica,sans-Serif" font-size="10.00" fill="white">20</text>
<polygon fill="#3d3d3d" stroke="none" points="284,-402.25 284,-427.5 344,-427.5 344,-402.25 284,-402.25"/>
<polygon fill="none" stroke="#4ecdc4" points="284,-402.25 284,-427.5 344,-427.5 344,-402.25 284,-402.25"/>
<text xml:space="preserve" text-anchor="start" x="308.75" y="-411" font-family="Helvetica,sans-Serif" font-size="10.00" fill="white">30</text>
<polygon fill="#3d3d3d" stroke="none" points="344,-402.25 344,-427.5 404,-427.5 404,-402.25 344,-402.25"/>
<polygon fill="none" stroke="#4ecdc4" points="344,-402.25 344,-427.5 404,-427.5 404,-402.25 344,-402.25"/>
<text xml:space="preserve" text-anchor="start" x="368.75" y="-411" font-family="Helvetica,sans-Serif" font-size="10.00" fill="white">10</text>
<polygon fill="#3d3d3d" stroke="none" points="404,-402.25 404,-427.5 464,-427.5 464,-402.25 404,-402.25"/>
<polygon fill="none" stroke="#4ecdc4" points="404,-402.25 404,-427.5 464,-427.5 464,-402.25 404,-402.25"/>
<text xml:space="preserve" text-anchor="start" x="428.75" y="-411" font-family="Helvetica,sans-Serif" font-size="10.00" fill="white">20</text>
<polygon fill="#3d3d3d" stroke="none" points="464,-402.25 464,-427.5 524,-427.5 524,-402.25 464,-402.25"/>
<polygon fill="none" stroke="#4ecdc4" points="464,-402.25 464,-427.5 524,-427.5 524,-402.25 464,-402.25"/>
<text xml:space="preserve" text-anchor="start" x="491.38" y="-411" font-family="Helvetica,sans-Serif" font-size="10.00" fill="white">4</text>
<polygon fill="#2d4d44" stroke="none" points="24,-377 24,-402.25 164,-402.25 164,-377 24,-377"/>
<polygon fill="none" stroke="#4ecdc4" points="24,-377 24,-402.25 164,-402.25 164,-377 24,-377"/>
<text xml:space="preserve" text-anchor="start" x="56.88" y="-385.75" font-family="Helvetica,sans-Serif" font-size="10.00" fill="#95d5b2">Rep. Democracy</text>
<polygon fill="#3d3d3d" stroke="none" points="164,-377 164,-402.25 224,-402.25 224,-377 164,-377"/>
<polygon fill="none" stroke="#4ecdc4" points="164,-377 164,-402.25 224,-402.25 224,-377 164,-377"/>
<text xml:space="preserve" text-anchor="start" x="188.75" y="-385.75" font-family="Helvetica,sans-Serif" font-size="10.00" fill="white">20</text>
<polygon fill="#3d3d3d" stroke="none" points="224,-377 224,-402.25 284,-402.25 284,-377 224,-377"/>
<polygon fill="none" stroke="#4ecdc4" points="224,-377 224,-402.25 284,-402.25 284,-377 224,-377"/>
<text xml:space="preserve" text-anchor="start" x="248.75" y="-385.75" font-family="Helvetica,sans-Serif" font-size="10.00" fill="white">20</text>
<polygon fill="#3d3d3d" stroke="none" points="284,-377 284,-402.25 344,-402.25 344,-377 284,-377"/>
<polygon fill="none" stroke="#4ecdc4" points="284,-377 284,-402.25 344,-402.25 344,-377 284,-377"/>
<text xml:space="preserve" text-anchor="start" x="308.75" y="-385.75" font-family="Helvetica,sans-Serif" font-size="10.00" fill="white">30</text>
<polygon fill="#3d3d3d" stroke="none" points="344,-377 344,-402.25 404,-402.25 404,-377 344,-377"/>
<polygon fill="none" stroke="#4ecdc4" points="344,-377 344,-402.25 404,-402.25 404,-377 344,-377"/>
<text xml:space="preserve" text-anchor="start" x="368.75" y="-385.75" font-family="Helvetica,sans-Serif" font-size="10.00" fill="white">10</text>
<polygon fill="#3d3d3d" stroke="none" points="404,-377 404,-402.25 464,-402.25 464,-377 404,-377"/>
<polygon fill="none" stroke="#4ecdc4" points="404,-377 404,-402.25 464,-402.25 464,-377 404,-377"/>
<text xml:space="preserve" text-anchor="start" x="428.75" y="-385.75" font-family="Helvetica,sans-Serif" font-size="10.00" fill="white">20</text>
<polygon fill="#3d3d3d" stroke="none" points="464,-377 464,-402.25 524,-402.25 524,-377 464,-377"/>
<polygon fill="none" stroke="#4ecdc4" points="464,-377 464,-402.25 524,-402.25 524,-377 464,-377"/>
<text xml:space="preserve" text-anchor="start" x="491.38" y="-385.75" font-family="Helvetica,sans-Serif" font-size="10.00" fill="white">3</text>
<polygon fill="#4d2d3d" stroke="none" points="24,-351.75 24,-377 164,-377 164,-351.75 24,-351.75"/>
<polygon fill="none" stroke="#4ecdc4" points="24,-351.75 24,-377 164,-377 164,-351.75 24,-351.75"/>
<text xml:space="preserve" text-anchor="start" x="58.38" y="-360.5" font-family="Helvetica,sans-Serif" font-size="10.00" fill="#ff6b6b">Mil. Dictatorship</text>
<polygon fill="#4d3d2d" stroke="none" points="164,-351.75 164,-377 224,-377 224,-351.75 164,-351.75"/>
<polygon fill="none" stroke="#4ecdc4" points="164,-351.75 164,-377 224,-377 224,-351.75 164,-351.75"/>
<text xml:space="preserve" text-anchor="start" x="188.75" y="-360.5" font-family="Helvetica,sans-Serif" font-size="10.00" fill="#ffe66d">30</text>
<polygon fill="#4d3d3d" stroke="none" points="224,-351.75 224,-377 284,-377 284,-351.75 224,-351.75"/>
<polygon fill="none" stroke="#4ecdc4" points="224,-351.75 224,-377 284,-377 284,-351.75 224,-351.75"/>
<text xml:space="preserve" text-anchor="start" x="248.75" y="-360.5" font-family="Helvetica,sans-Serif" font-size="10.00" fill="#ff9999">10</text>
<polygon fill="#3d3d3d" stroke="none" points="284,-351.75 284,-377 344,-377 344,-351.75 284,-351.75"/>
<polygon fill="none" stroke="#4ecdc4" points="284,-351.75 284,-377 344,-377 344,-351.75 284,-351.75"/>
<text xml:space="preserve" text-anchor="start" x="308.75" y="-360.5" font-family="Helvetica,sans-Serif" font-size="10.00" fill="white">25</text>
<polygon fill="#4d3d2d" stroke="none" points="344,-351.75 344,-377 404,-377 404,-351.75 344,-351.75"/>
<polygon fill="none" stroke="#4ecdc4" points="344,-351.75 344,-377 404,-377 404,-351.75 344,-351.75"/>
<text xml:space="preserve" text-anchor="start" x="368.75" y="-360.5" font-family="Helvetica,sans-Serif" font-size="10.00" fill="#ffe66d">15</text>
<polygon fill="#3d3d3d" stroke="none" points="404,-351.75 404,-377 464,-377 464,-351.75 404,-351.75"/>
<polygon fill="none" stroke="#4ecdc4" points="404,-351.75 404,-377 464,-377 464,-351.75 404,-351.75"/>
<text xml:space="preserve" text-anchor="start" x="428.75" y="-360.5" font-family="Helvetica,sans-Serif" font-size="10.00" fill="white">20</text>
<polygon fill="#4d3d2d" stroke="none" points="464,-351.75 464,-377 524,-377 524,-351.75 464,-351.75"/>
<polygon fill="none" stroke="#4ecdc4" points="464,-351.75 464,-377 524,-377 524,-351.75 464,-351.75"/>
<text xml:space="preserve" text-anchor="start" x="491.38" y="-360.5" font-family="Helvetica,sans-Serif" font-size="10.00" fill="#ffe66d">5</text>
<polygon fill="#4d4d2d" stroke="none" points="24,-326.5 24,-351.75 164,-351.75 164,-326.5 24,-326.5"/>
<polygon fill="none" stroke="#4ecdc4" points="24,-326.5 24,-351.75 164,-351.75 164,-326.5 24,-326.5"/>
<text xml:space="preserve" text-anchor="start" x="62.12" y="-335.25" font-family="Helvetica,sans-Serif" font-size="10.00" fill="#ffe66d">Corporate Gov</text>
<polygon fill="#4d3d3d" stroke="none" points="164,-326.5 164,-351.75 224,-351.75 224,-326.5 164,-326.5"/>
<polygon fill="none" stroke="#4ecdc4" points="164,-326.5 164,-351.75 224,-351.75 224,-326.5 164,-326.5"/>
<text xml:space="preserve" text-anchor="start" x="188.75" y="-335.25" font-family="Helvetica,sans-Serif" font-size="10.00" fill="#ff9999">15</text>
<polygon fill="#3d3d3d" stroke="none" points="224,-326.5 224,-351.75 284,-351.75 284,-326.5 224,-326.5"/>
<polygon fill="none" stroke="#4ecdc4" points="224,-326.5 224,-351.75 284,-351.75 284,-326.5 224,-326.5"/>
<text xml:space="preserve" text-anchor="start" x="248.75" y="-335.25" font-family="Helvetica,sans-Serif" font-size="10.00" fill="white">20</text>
<polygon fill="#3d3d3d" stroke="none" points="284,-326.5 284,-351.75 344,-351.75 344,-326.5 284,-326.5"/>
<polygon fill="none" stroke="#4ecdc4" points="284,-326.5 284,-351.75 344,-351.75 344,-326.5 284,-326.5"/>
<text xml:space="preserve" text-anchor="start" x="308.75" y="-335.25" font-family="Helvetica,sans-Serif" font-size="10.00" fill="white">30</text>
<polygon fill="#4d3d3d" stroke="none" points="344,-326.5 344,-351.75 404,-351.75 404,-326.5 344,-326.5"/>
<polygon fill="none" stroke="#4ecdc4" points="344,-326.5 344,-351.75 404,-351.75 404,-326.5 344,-326.5"/>
<text xml:space="preserve" text-anchor="start" x="371.38" y="-335.25" font-family="Helvetica,sans-Serif" font-size="10.00" fill="#ff9999">5</text>
<polygon fill="#4d3d2d" stroke="none" points="404,-326.5 404,-351.75 464,-351.75 464,-326.5 404,-326.5"/>
<polygon fill="none" stroke="#4ecdc4" points="404,-326.5 404,-351.75 464,-351.75 464,-326.5 404,-326.5"/>
<text xml:space="preserve" text-anchor="start" x="428.75" y="-335.25" font-family="Helvetica,sans-Serif" font-size="10.00" fill="#ffe66d">30</text>
<polygon fill="#4d3d2d" stroke="none" points="464,-326.5 464,-351.75 524,-351.75 524,-326.5 464,-326.5"/>
<polygon fill="none" stroke="#4ecdc4" points="464,-326.5 464,-351.75 524,-351.75 524,-326.5 464,-326.5"/>
<text xml:space="preserve" text-anchor="start" x="491.38" y="-335.25" font-family="Helvetica,sans-Serif" font-size="10.00" fill="#ffe66d">5</text>
<polygon fill="#3d4d4d" stroke="none" points="24,-301.25 24,-326.5 164,-326.5 164,-301.25 24,-301.25"/>
<polygon fill="none" stroke="#4ecdc4" points="24,-301.25 24,-326.5 164,-326.5 164,-301.25 24,-301.25"/>
<text xml:space="preserve" text-anchor="start" x="62.5" y="-310" font-family="Helvetica,sans-Serif" font-size="10.00" fill="#4ecdc4">Contemplative</text>
<polygon fill="#4d3d3d" stroke="none" points="164,-301.25 164,-326.5 224,-326.5 224,-301.25 164,-301.25"/>
<polygon fill="none" stroke="#4ecdc4" points="164,-301.25 164,-326.5 224,-326.5 224,-301.25 164,-301.25"/>
<text xml:space="preserve" text-anchor="start" x="188.75" y="-310" font-family="Helvetica,sans-Serif" font-size="10.00" fill="#ff9999">10</text>
<polygon fill="#2d5d3d" stroke="none" points="224,-301.25 224,-326.5 284,-326.5 284,-301.25 224,-301.25"/>
<polygon fill="none" stroke="#4ecdc4" points="224,-301.25 224,-326.5 284,-326.5 284,-301.25 224,-301.25"/>
<text xml:space="preserve" text-anchor="start" x="248.75" y="-310" font-family="Helvetica,sans-Serif" font-size="10.00" fill="#95d5b2">40</text>
<polygon fill="#3d3d3d" stroke="none" points="284,-301.25 284,-326.5 344,-326.5 344,-301.25 284,-301.25"/>
<polygon fill="none" stroke="#4ecdc4" points="284,-301.25 284,-326.5 344,-326.5 344,-301.25 284,-301.25"/>
<text xml:space="preserve" text-anchor="start" x="308.75" y="-310" font-family="Helvetica,sans-Serif" font-size="10.00" fill="white">30</text>
<polygon fill="#3d3d3d" stroke="none" points="344,-301.25 344,-326.5 404,-326.5 404,-301.25 344,-301.25"/>
<polygon fill="none" stroke="#4ecdc4" points="344,-301.25 344,-326.5 404,-326.5 404,-301.25 344,-301.25"/>
<text xml:space="preserve" text-anchor="start" x="368.75" y="-310" font-family="Helvetica,sans-Serif" font-size="10.00" fill="white">10</text>
<polygon fill="#4d3d3d" stroke="none" points="404,-301.25 404,-326.5 464,-326.5 464,-301.25 404,-301.25"/>
<polygon fill="none" stroke="#4ecdc4" points="404,-301.25 404,-326.5 464,-326.5 464,-301.25 404,-301.25"/>
<text xml:space="preserve" text-anchor="start" x="428.75" y="-310" font-family="Helvetica,sans-Serif" font-size="10.00" fill="#ff9999">10</text>
<polygon fill="#4d3d3d" stroke="none" points="464,-301.25 464,-326.5 524,-326.5 524,-301.25 464,-301.25"/>
<polygon fill="none" stroke="#4ecdc4" points="464,-301.25 464,-326.5 524,-326.5 524,-301.25 464,-301.25"/>
<text xml:space="preserve" text-anchor="start" x="491.38" y="-310" font-family="Helvetica,sans-Serif" font-size="10.00" fill="#ff9999">1</text>
<polygon fill="#5d2d3d" stroke="none" points="24,-276 24,-301.25 164,-301.25 164,-276 24,-276"/>
<polygon fill="none" stroke="#4ecdc4" points="24,-276 24,-301.25 164,-301.25 164,-276 24,-276"/>
<text xml:space="preserve" text-anchor="start" x="71.88" y="-284.75" font-family="Helvetica,sans-Serif" font-size="10.00" fill="#ff6b6b">Hive Mind</text>
<polygon fill="#4d3d2d" stroke="none" points="164,-276 164,-301.25 224,-301.25 224,-276 164,-276"/>
<polygon fill="none" stroke="#4ecdc4" points="164,-276 164,-301.25 224,-301.25 224,-276 164,-276"/>
<text xml:space="preserve" text-anchor="start" x="188.75" y="-284.75" font-family="Helvetica,sans-Serif" font-size="10.00" fill="#ffe66d">30</text>
<polygon fill="#5d3d3d" stroke="none" points="224,-276 224,-301.25 284,-301.25 284,-276 224,-276"/>
<polygon fill="none" stroke="#4ecdc4" points="224,-276 224,-301.25 284,-301.25 284,-276 224,-276"/>
<text xml:space="preserve" text-anchor="start" x="251.38" y="-284.75" font-family="Helvetica,sans-Serif" font-size="10.00" fill="#ff9999">5</text>
<polygon fill="#3d3d3d" stroke="none" points="284,-276 284,-301.25 344,-301.25 344,-276 284,-276"/>
<polygon fill="none" stroke="#4ecdc4" points="284,-276 284,-301.25 344,-301.25 344,-276 284,-276"/>
<text xml:space="preserve" text-anchor="start" x="308.75" y="-284.75" font-family="Helvetica,sans-Serif" font-size="10.00" fill="white">25</text>
<polygon fill="#4d3d2d" stroke="none" points="344,-276 344,-301.25 404,-301.25 404,-276 344,-276"/>
<polygon fill="none" stroke="#4ecdc4" points="344,-276 344,-301.25 404,-301.25 404,-276 344,-276"/>
<text xml:space="preserve" text-anchor="start" x="368.75" y="-284.75" font-family="Helvetica,sans-Serif" font-size="10.00" fill="#ffe66d">15</text>
<polygon fill="#4d3d2d" stroke="none" points="404,-276 404,-301.25 464,-301.25 464,-276 404,-276"/>
<polygon fill="none" stroke="#4ecdc4" points="404,-276 404,-301.25 464,-301.25 464,-276 404,-276"/>
<text xml:space="preserve" text-anchor="start" x="428.75" y="-284.75" font-family="Helvetica,sans-Serif" font-size="10.00" fill="#ffe66d">25</text>
<polygon fill="#4d3d2d" stroke="none" points="464,-276 464,-301.25 524,-301.25 524,-276 464,-276"/>
<polygon fill="none" stroke="#4ecdc4" points="464,-276 464,-301.25 524,-301.25 524,-276 464,-276"/>
<text xml:space="preserve" text-anchor="start" x="491.38" y="-284.75" font-family="Helvetica,sans-Serif" font-size="10.00" fill="#ffe66d">5</text>
</g>
<!-- beh_header&#45;&gt;inst_header -->
<!-- legend -->
<g id="node4" class="node">
<title>legend</title>
<polygon fill="#2d2d44" stroke="none" points="362.75,-236 185.25,-236 185.25,-131 362.75,-131 362.75,-236"/>
<polygon fill="#1a1a2e" stroke="none" points="193.25,-135 193.25,-232 354.75,-232 354.75,-135 193.25,-135"/>
<text xml:space="preserve" text-anchor="start" x="256.75" y="-215.5" font-family="Helvetica,sans-Serif" font-weight="bold" font-size="10.00" fill="#4ecdc4">Legend</text>
<polygon fill="#2d4d3d" stroke="none" points="197.25,-185.5 197.25,-204.75 217.25,-204.75 217.25,-185.5 197.25,-185.5"/>
<text xml:space="preserve" text-anchor="start" x="204.25" y="-191.25" font-family="Helvetica,sans-Serif" font-size="10.00" fill="#95d5b2">+</text>
<text xml:space="preserve" text-anchor="start" x="225.25" y="-191.25" font-family="Helvetica,sans-Serif" font-size="10.00" fill="#888888">Bonus (peaceful/productive)</text>
<polygon fill="#4d3d3d" stroke="none" points="197.25,-162.25 197.25,-181.5 217.25,-181.5 217.25,-162.25 197.25,-162.25"/>
<text xml:space="preserve" text-anchor="start" x="205.75" y="-168" font-family="Helvetica,sans-Serif" font-size="10.00" fill="#ff9999">&#45;</text>
<text xml:space="preserve" text-anchor="start" x="244.75" y="-168" font-family="Helvetica,sans-Serif" font-size="10.00" fill="#888888">Penalty (restricted)</text>
<polygon fill="#4d2d2d" stroke="none" points="197.25,-139 197.25,-158.25 217.25,-158.25 217.25,-139 197.25,-139"/>
<text xml:space="preserve" text-anchor="start" x="201.25" y="-144.75" font-family="Helvetica,sans-Serif" font-size="10.00" fill="#ff6b6b">++</text>
<text xml:space="preserve" text-anchor="start" x="233.5" y="-144.75" font-family="Helvetica,sans-Serif" font-size="10.00" fill="#888888">High aggressive/military</text>
</g>
<!-- inst_header&#45;&gt;legend -->
<!-- playstyle -->
<g id="node5" class="node">
<title>playstyle</title>
<polygon fill="#2d2d44" stroke="#4ecdc4" points="378.38,-95 169.62,-95 169.62,0 378.38,0 378.38,-95"/>
<polygon fill="#2d2d44" stroke="none" points="177.62,-4 177.62,-91 370.38,-91 370.38,-4 177.62,-4"/>
<text xml:space="preserve" text-anchor="start" x="207.62" y="-76.5" font-family="Helvetica,sans-Serif" font-weight="bold" font-size="10.00" fill="#4ecdc4">Playstyle Recommendations</text>
<text xml:space="preserve" text-anchor="start" x="187" y="-55.25" font-family="Helvetica,sans-Serif" font-size="10.00" fill="#95d5b2">Beginner:</text>
<text xml:space="preserve" text-anchor="start" x="228.25" y="-55.25" font-family="Helvetica,sans-Serif" font-size="10.00" fill="white"> Rep. Democracy, Meritocracy</text>
<text xml:space="preserve" text-anchor="start" x="183.62" y="-34" font-family="Helvetica,sans-Serif" font-size="10.00" fill="#ffe66d">Economic:</text>
<text xml:space="preserve" text-anchor="start" x="230.12" y="-34" font-family="Helvetica,sans-Serif" font-size="10.00" fill="white"> Corporate Gov, Contemplative</text>
<text xml:space="preserve" text-anchor="start" x="200.5" y="-12.75" font-family="Helvetica,sans-Serif" font-size="10.00" fill="#ff6b6b">Military:</text>
<text xml:space="preserve" text-anchor="start" x="235" y="-12.75" font-family="Helvetica,sans-Serif" font-size="10.00" fill="white"> Mil. Dictatorship, Fascist</text>
</g>
<!-- legend&#45;&gt;playstyle -->
</g>
</svg>
