<?xml version="1.0" encoding="UTF-8" standalone="no"?>
<!DOCTYPE svg PUBLIC "-//W3C//DTD SVG 1.1//EN"
 "http://www.w3.org/Graphics/SVG/1.1/DTD/svg11.dtd">
<!-- Generated by graphviz version 14.1.2 (20260124.0452)
 -->
<!-- Title: TraitPointBuy Pages: 1 -->
<svg width="1208pt" height="343pt"
 viewBox="0.00 0.00 1208.00 343.00" xmlns="http://www.w3.org/2000/svg" xmlns:xlink="http://www.w3.org/1999/xlink">
<g id="graph0" class="graph" transform="scale(1 1) rotate(0) translate(4 338.5)">
<title>TraitPointBuy</title>
<polygon fill="#1a1a2e" stroke="none" points="-4,4 -4,-338.5 1204,-338.5 1204,4 -4,4"/>
<g id="clust1" class="cluster">
<title>cluster_physical</title>
<polygon fill="#1a1a2e" stroke="#4ecdc4" stroke-dasharray="5,2" points="8,-78.75 8,-153.75 283,-153.75 283,-78.75 8,-78.75"/>
<text xml:space="preserve" text-anchor="middle" x="145.5" y="-136.45" font-family="Helvetica,sans-Serif" font-size="14.00" fill="#888888">Physical Traits</text>
</g>
<g id="clust2" class="cluster">
<title>cluster_economic</title>
<polygon fill="#1a1a2e" stroke="#95d5b2" stroke-dasharray="5,2" points="291,-78.75 291,-153.75 705,-153.75 705,-78.75 291,-78.75"/>
<text xml:space="preserve" text-anchor="middle" x="498" y="-136.45" font-family="Helvetica,sans-Serif" font-size="14.00" fill="#888888">Economic Traits</text>
</g>
<g id="clust3" class="cluster">
<title>cluster_military</title>
<polygon fill="#1a1a2e" stroke="#ff6b6b" stroke-dasharray="5,2" points="713,-78.75 713,-153.75 936,-153.75 936,-78.75 713,-78.75"/>
<text xml:space="preserve" text-anchor="middle" x="824.5" y="-136.45" font-family="Helvetica,sans-Serif" font-size="14.00" fill="#888888">Military Traits</text>
</g>
<!-- pool -->
<g id="node1" class="node">
<title>pool</title>
<ellipse fill="#ffe66d" stroke="#4ecdc4" cx="498" cy="-225.5" rx="90" ry="36"/>
<text xml:space="preserve" text-anchor="middle" x="498" y="-226.85" font-family="Helvetica,sans-Serif" font-size="12.00" fill="#1a1a2e">Creation Point Pool</text>
<text xml:space="preserve" text-anchor="middle" x="498" y="-214.1" font-family="Helvetica,sans-Serif" font-size="12.00" fill="#1a1a2e">(Fixed Budget)</text>
</g>
<!-- temp -->
<g id="node3" class="node">
<title>temp</title>
<path fill="#2d2d44" stroke="#4ecdc4" d="M161.38,-122.75C161.38,-122.75 108.62,-122.75 108.62,-122.75 102.62,-122.75 96.62,-116.75 96.62,-110.75 96.62,-110.75 96.62,-98.75 96.62,-98.75 96.62,-92.75 102.62,-86.75 108.62,-86.75 108.62,-86.75 161.38,-86.75 161.38,-86.75 167.38,-86.75 173.38,-92.75 173.38,-98.75 173.38,-98.75 173.38,-110.75 173.38,-110.75 173.38,-116.75 167.38,-122.75 161.38,-122.75"/>
<text xml:space="preserve" text-anchor="middle" x="135" y="-106.3" font-family="Helvetica,sans-Serif" font-size="11.00" fill="white">Temperature</text>
<text xml:space="preserve" text-anchor="middle" x="135" y="-94.3" font-family="Helvetica,sans-Serif" font-size="11.00" fill="white">Range</text>
</g>
<!-- pool&#45;&gt;temp -->
<g id="edge1" class="edge">
<title>pool&#45;&gt;temp</title>
<path fill="none" stroke="#4ecdc4" d="M408.03,-222.02C317.59,-217.62 186.48,-205.41 150,-171.5 139.44,-161.69 135.57,-146.11 134.39,-132.57"/>
<polygon fill="#4ecdc4" stroke="#4ecdc4" points="137.2,-132.57 134.03,-124.71 131.6,-132.83 137.2,-132.57"/>
<text xml:space="preserve" text-anchor="middle" x="163.5" y="-162.95" font-family="Helvetica,sans-Serif" font-size="9.00" fill="#888888">Spend</text>
</g>
<!-- gravity -->
<g id="node4" class="node">
<title>gravity</title>
<path fill="#2d2d44" stroke="#4ecdc4" d="M66.25,-122.75C66.25,-122.75 27.75,-122.75 27.75,-122.75 21.75,-122.75 15.75,-116.75 15.75,-110.75 15.75,-110.75 15.75,-98.75 15.75,-98.75 15.75,-92.75 21.75,-86.75 27.75,-86.75 27.75,-86.75 66.25,-86.75 66.25,-86.75 72.25,-86.75 78.25,-92.75 78.25,-98.75 78.25,-98.75 78.25,-110.75 78.25,-110.75 78.25,-116.75 72.25,-122.75 66.25,-122.75"/>
<text xml:space="preserve" text-anchor="middle" x="47" y="-106.3" font-family="Helvetica,sans-Serif" font-size="11.00" fill="white">Gravity</text>
<text xml:space="preserve" text-anchor="middle" x="47" y="-94.3" font-family="Helvetica,sans-Serif" font-size="11.00" fill="white">Tolerance</text>
</g>
<!-- pool&#45;&gt;gravity -->
<g id="edge2" class="edge">
<title>pool&#45;&gt;gravity</title>
<path fill="none" stroke="#4ecdc4" d="M407.77,-224.63C327.4,-221.87 208.01,-210.59 112,-171.5 92,-163.36 75.07,-145.61 63.5,-130.61"/>
<polygon fill="#4ecdc4" stroke="#4ecdc4" points="65.85,-129.08 58.85,-124.29 61.34,-132.4 65.85,-129.08"/>
<text xml:space="preserve" text-anchor="middle" x="125.5" y="-162.95" font-family="Helvetica,sans-Serif" font-size="9.00" fill="#888888">Spend</text>
</g>
<!-- atmo -->
<g id="node5" class="node">
<title>atmo</title>
<path fill="#2d2d44" stroke="#4ecdc4" d="M262.75,-122.75C262.75,-122.75 203.25,-122.75 203.25,-122.75 197.25,-122.75 191.25,-116.75 191.25,-110.75 191.25,-110.75 191.25,-98.75 191.25,-98.75 191.25,-92.75 197.25,-86.75 203.25,-86.75 203.25,-86.75 262.75,-86.75 262.75,-86.75 268.75,-86.75 274.75,-92.75 274.75,-98.75 274.75,-98.75 274.75,-110.75 274.75,-110.75 274.75,-116.75 268.75,-122.75 262.75,-122.75"/>
<text xml:space="preserve" text-anchor="middle" x="233" y="-106.3" font-family="Helvetica,sans-Serif" font-size="11.00" fill="white">Atmospheric</text>
<text xml:space="preserve" text-anchor="middle" x="233" y="-94.3" font-family="Helvetica,sans-Serif" font-size="11.00" fill="white">Requirements</text>
</g>
<!-- pool&#45;&gt;atmo -->
<g id="edge3" class="edge">
<title>pool&#45;&gt;atmo</title>
<path fill="none" stroke="#4ecdc4" d="M420.62,-206.62C379.25,-195.12 328.45,-177.77 287,-153.75 275.87,-147.3 264.99,-138.31 255.94,-129.86"/>
<polygon fill="#4ecdc4" stroke="#4ecdc4" points="257.9,-127.85 250.2,-124.3 254,-131.88 257.9,-127.85"/>
<text xml:space="preserve" text-anchor="middle" x="332.75" y="-162.95" font-family="Helvetica,sans-Serif" font-size="9.00" fill="#888888">Spend</text>
</g>
<!-- production -->
<g id="node6" class="node">
<title>production</title>
<path fill="#2d2d44" stroke="#4ecdc4" d="M483,-122.75C483,-122.75 413,-122.75 413,-122.75 407,-122.75 401,-116.75 401,-110.75 401,-110.75 401,-98.75 401,-98.75 401,-92.75 407,-86.75 413,-86.75 413,-86.75 483,-86.75 483,-86.75 489,-86.75 495,-92.75 495,-98.75 495,-98.75 495,-110.75 495,-110.75 495,-116.75 489,-122.75 483,-122.75"/>
<text xml:space="preserve" text-anchor="middle" x="448" y="-106.3" font-family="Helvetica,sans-Serif" font-size="11.00" fill="white">Worker</text>
<text xml:space="preserve" text-anchor="middle" x="448" y="-94.3" font-family="Helvetica,sans-Serif" font-size="11.00" fill="white">Production Rate</text>
</g>
<!-- pool&#45;&gt;production -->
<g id="edge4" class="edge">
<title>pool&#45;&gt;production</title>
<path fill="none" stroke="#4ecdc4" d="M461.69,-192.35C456.53,-185.98 451.98,-178.95 449,-171.5 444.11,-159.29 443.42,-144.75 444.14,-132.46"/>
<polygon fill="#4ecdc4" stroke="#4ecdc4" points="446.91,-132.89 444.83,-124.67 441.33,-132.39 446.91,-132.89"/>
<text xml:space="preserve" text-anchor="middle" x="462.5" y="-162.95" font-family="Helvetica,sans-Serif" font-size="9.00" fill="#888888">Spend</text>
</g>
<!-- wealth -->
<g id="node7" class="node">
<title>wealth</title>
<path fill="#2d2d44" stroke="#4ecdc4" d="M370.75,-122.75C370.75,-122.75 311.25,-122.75 311.25,-122.75 305.25,-122.75 299.25,-116.75 299.25,-110.75 299.25,-110.75 299.25,-98.75 299.25,-98.75 299.25,-92.75 305.25,-86.75 311.25,-86.75 311.25,-86.75 370.75,-86.75 370.75,-86.75 376.75,-86.75 382.75,-92.75 382.75,-98.75 382.75,-98.75 382.75,-110.75 382.75,-110.75 382.75,-116.75 376.75,-122.75 370.75,-122.75"/>
<text xml:space="preserve" text-anchor="middle" x="341" y="-106.3" font-family="Helvetica,sans-Serif" font-size="11.00" fill="white">Wealth</text>
<text xml:space="preserve" text-anchor="middle" x="341" y="-94.3" font-family="Helvetica,sans-Serif" font-size="11.00" fill="white">Creation Rate</text>
</g>
<!-- pool&#45;&gt;wealth -->
<g id="edge5" class="edge">
<title>pool&#45;&gt;wealth</title>
<path fill="none" stroke="#4ecdc4" d="M448.78,-195.09C430.28,-183.16 409.51,-168.68 392,-153.75 383.04,-146.11 373.56,-137.37 365.23,-129.47"/>
<polygon fill="#4ecdc4" stroke="#4ecdc4" points="367.35,-127.63 359.64,-124.12 363.48,-131.67 367.35,-127.63"/>
<text xml:space="preserve" text-anchor="middle" x="427.37" y="-162.95" font-family="Helvetica,sans-Serif" font-size="9.00" fill="#888888">Spend</text>
</g>
<!-- research -->
<g id="node8" class="node">
<title>research</title>
<path fill="#2d2d44" stroke="#4ecdc4" d="M589.38,-122.75C589.38,-122.75 524.62,-122.75 524.62,-122.75 518.62,-122.75 512.62,-116.75 512.62,-110.75 512.62,-110.75 512.62,-98.75 512.62,-98.75 512.62,-92.75 518.62,-86.75 524.62,-86.75 524.62,-86.75 589.38,-86.75 589.38,-86.75 595.38,-86.75 601.38,-92.75 601.38,-98.75 601.38,-98.75 601.38,-110.75 601.38,-110.75 601.38,-116.75 595.38,-122.75 589.38,-122.75"/>
<text xml:space="preserve" text-anchor="middle" x="557" y="-106.3" font-family="Helvetica,sans-Serif" font-size="11.00" fill="white">Research Rate</text>
<text xml:space="preserve" text-anchor="middle" x="557" y="-94.3" font-family="Helvetica,sans-Serif" font-size="11.00" fill="white">Modifier</text>
</g>
<!-- pool&#45;&gt;research -->
<g id="edge6" class="edge">
<title>pool&#45;&gt;research</title>
<path fill="none" stroke="#4ecdc4" d="M515.22,-189.83C524.49,-171.18 535.73,-148.56 544.21,-131.49"/>
<polygon fill="#4ecdc4" stroke="#4ecdc4" points="546.65,-132.88 547.7,-124.47 541.63,-130.39 546.65,-132.88"/>
<text xml:space="preserve" text-anchor="middle" x="541" y="-162.95" font-family="Helvetica,sans-Serif" font-size="9.00" fill="#888888">Spend</text>
</g>
<!-- growth -->
<g id="node9" class="node">
<title>growth</title>
<path fill="#2d2d44" stroke="#4ecdc4" d="M684.75,-122.75C684.75,-122.75 631.25,-122.75 631.25,-122.75 625.25,-122.75 619.25,-116.75 619.25,-110.75 619.25,-110.75 619.25,-98.75 619.25,-98.75 619.25,-92.75 625.25,-86.75 631.25,-86.75 631.25,-86.75 684.75,-86.75 684.75,-86.75 690.75,-86.75 696.75,-92.75 696.75,-98.75 696.75,-98.75 696.75,-110.75 696.75,-110.75 696.75,-116.75 690.75,-122.75 684.75,-122.75"/>
<text xml:space="preserve" text-anchor="middle" x="658" y="-106.3" font-family="Helvetica,sans-Serif" font-size="11.00" fill="white">Population</text>
<text xml:space="preserve" text-anchor="middle" x="658" y="-94.3" font-family="Helvetica,sans-Serif" font-size="11.00" fill="white">Growth Rate</text>
</g>
<!-- pool&#45;&gt;growth -->
<g id="edge7" class="edge">
<title>pool&#45;&gt;growth</title>
<path fill="none" stroke="#4ecdc4" d="M549.24,-195.43C568.91,-183.44 591.14,-168.83 610,-153.75 619.06,-146.51 628.25,-137.74 636.13,-129.68"/>
<polygon fill="#4ecdc4" stroke="#4ecdc4" points="637.84,-131.94 641.36,-124.23 633.8,-128.07 637.84,-131.94"/>
<text xml:space="preserve" text-anchor="middle" x="612.12" y="-162.95" font-family="Helvetica,sans-Serif" font-size="9.00" fill="#888888">Spend</text>
</g>
<!-- ground -->
<g id="node10" class="node">
<title>ground</title>
<path fill="#2d2d44" stroke="#4ecdc4" d="M802.62,-122.75C802.62,-122.75 733.38,-122.75 733.38,-122.75 727.38,-122.75 721.38,-116.75 721.38,-110.75 721.38,-110.75 721.38,-98.75 721.38,-98.75 721.38,-92.75 727.38,-86.75 733.38,-86.75 733.38,-86.75 802.62,-86.75 802.62,-86.75 808.62,-86.75 814.62,-92.75 814.62,-98.75 814.62,-98.75 814.62,-110.75 814.62,-110.75 814.62,-116.75 808.62,-122.75 802.62,-122.75"/>
<text xml:space="preserve" text-anchor="middle" x="768" y="-106.3" font-family="Helvetica,sans-Serif" font-size="11.00" fill="white">Ground Combat</text>
<text xml:space="preserve" text-anchor="middle" x="768" y="-94.3" font-family="Helvetica,sans-Serif" font-size="11.00" fill="white">Strength</text>
</g>
<!-- pool&#45;&gt;ground -->
<g id="edge8" class="edge">
<title>pool&#45;&gt;ground</title>
<path fill="none" stroke="#4ecdc4" d="M574.47,-206.04C615.8,-194.32 666.86,-176.95 709,-153.75 721.1,-147.09 733.16,-137.86 743.2,-129.27"/>
<polygon fill="#4ecdc4" stroke="#4ecdc4" points="744.83,-131.56 748.98,-124.17 741.13,-127.36 744.83,-131.56"/>
<text xml:space="preserve" text-anchor="middle" x="706.53" y="-162.95" font-family="Helvetica,sans-Serif" font-size="9.00" fill="#888888">Spend</text>
</g>
<!-- officers -->
<g id="node11" class="node">
<title>officers</title>
<path fill="#2d2d44" stroke="#4ecdc4" d="M915.75,-122.75C915.75,-122.75 844.25,-122.75 844.25,-122.75 838.25,-122.75 832.25,-116.75 832.25,-110.75 832.25,-110.75 832.25,-98.75 832.25,-98.75 832.25,-92.75 838.25,-86.75 844.25,-86.75 844.25,-86.75 915.75,-86.75 915.75,-86.75 921.75,-86.75 927.75,-92.75 927.75,-98.75 927.75,-98.75 927.75,-110.75 927.75,-110.75 927.75,-116.75 921.75,-122.75 915.75,-122.75"/>
<text xml:space="preserve" text-anchor="middle" x="880" y="-106.3" font-family="Helvetica,sans-Serif" font-size="11.00" fill="white">Officer</text>
<text xml:space="preserve" text-anchor="middle" x="880" y="-94.3" font-family="Helvetica,sans-Serif" font-size="11.00" fill="white">Generation Rate</text>
</g>
<!-- pool&#45;&gt;officers -->
<g id="edge9" class="edge">
<title>pool&#45;&gt;officers</title>
<path fill="none" stroke="#4ecdc4" d="M587.04,-219.31C655.54,-212.08 750.6,-194.85 824,-153.75 835.75,-147.17 847.3,-137.89 856.83,-129.25"/>
<polygon fill="#4ecdc4" stroke="#4ecdc4" points="858.67,-131.36 862.59,-123.85 854.84,-127.28 858.67,-131.36"/>
<text xml:space="preserve" text-anchor="middle" x="821.67" y="-162.95" font-family="Helvetica,sans-Serif" font-size="9.00" fill="#888888">Spend</text>
</g>
<!-- strategy -->
<g id="node14" class="node">
<title>strategy</title>
<path fill="#4ecdc4" stroke="#4ecdc4" d="M1061.33,-132.45C1061.33,-132.45 957.67,-107.55 957.67,-107.55 951.83,-106.15 951.83,-103.35 957.67,-101.95 957.67,-101.95 1061.33,-77.05 1061.33,-77.05 1067.17,-75.65 1078.83,-75.65 1084.67,-77.05 1084.67,-77.05 1188.33,-101.95 1188.33,-101.95 1194.17,-103.35 1194.17,-106.15 1188.33,-107.55 1188.33,-107.55 1084.67,-132.45 1084.67,-132.45 1078.83,-133.85 1067.17,-133.85 1061.33,-132.45"/>
<text xml:space="preserve" text-anchor="middle" x="1073" y="-106.5" font-family="Helvetica,sans-Serif" font-size="10.00" fill="#1a1a2e">Strategic Choice:</text>
<text xml:space="preserve" text-anchor="middle" x="1073" y="-95.25" font-family="Helvetica,sans-Serif" font-size="10.00" fill="#1a1a2e">Specialize or Generalize?</text>
</g>
<!-- pool&#45;&gt;strategy -->
<!-- principle -->
<g id="node2" class="node">
<title>principle</title>
<polygon fill="#ff6b6b" stroke="#4ecdc4" points="564.88,-334.5 425.12,-334.5 425.12,-298.5 570.88,-298.5 570.88,-328.5 564.88,-334.5"/>
<polyline fill="none" stroke="#4ecdc4" points="564.88,-334.5 564.88,-328.5"/>
<polyline fill="none" stroke="#4ecdc4" points="570.88,-328.5 564.88,-328.5"/>
<text xml:space="preserve" text-anchor="middle" x="498" y="-318.25" font-family="Helvetica,sans-Serif" font-size="10.00" fill="white">Zero&#45;Sum System:</text>
<text xml:space="preserve" text-anchor="middle" x="498" y="-307" font-family="Helvetica,sans-Serif" font-size="10.00" fill="white">Points Spent = Points Gained</text>
</g>
<!-- principle&#45;&gt;pool -->
<g id="edge13" class="edge">
<title>principle&#45;&gt;pool</title>
<path fill="none" stroke="#ff6b6b" stroke-dasharray="1,5" d="M498,-298.34C498,-287.93 498,-274.27 498,-261.66"/>
</g>
<!-- temp&#45;&gt;pool -->
<g id="edge10" class="edge">
<title>temp&#45;&gt;pool</title>
<path fill="none" stroke="#888888" stroke-dasharray="5,2" d="M147.55,-122.88C156.11,-133.35 168.35,-146.15 182,-153.75 249.32,-191.24 335.13,-208.86 400.33,-217.15"/>
<polygon fill="#888888" stroke="#888888" points="399.61,-219.88 407.89,-218.07 400.29,-214.32 399.61,-219.88"/>
<text xml:space="preserve" text-anchor="middle" x="228.29" y="-162.95" font-family="Helvetica,sans-Serif" font-size="9.00" fill="#888888">Refund</text>
</g>
<!-- production&#45;&gt;pool -->
<g id="edge11" class="edge">
<title>production&#45;&gt;pool</title>
<path fill="none" stroke="#888888" stroke-dasharray="5,2" d="M457.41,-123.14C463.14,-134.06 470.41,-148.54 476,-161.75 478.57,-167.82 481.08,-174.3 483.44,-180.7"/>
<polygon fill="#888888" stroke="#888888" points="480.7,-181.35 486.04,-187.93 485.97,-179.45 480.7,-181.35"/>
<text xml:space="preserve" text-anchor="middle" x="494.42" y="-162.95" font-family="Helvetica,sans-Serif" font-size="9.00" fill="#888888">Refund</text>
</g>
<!-- tradeoff1 -->
<g id="node12" class="node">
<title>tradeoff1</title>
<polygon fill="#2d2d44" stroke="#4ecdc4" points="595.88,-37.25 492.12,-37.25 492.12,0 601.88,0 601.88,-31.25 595.88,-37.25"/>
<polyline fill="none" stroke="#4ecdc4" points="595.88,-37.25 595.88,-31.25"/>
<polyline fill="none" stroke="#4ecdc4" points="601.88,-31.25 595.88,-31.25"/>
<text xml:space="preserve" text-anchor="middle" x="547" y="-24.7" font-family="Helvetica,sans-Serif" font-size="9.00" fill="white">Example Trade&#45;off:</text>
<text xml:space="preserve" text-anchor="middle" x="547" y="-14.95" font-family="Helvetica,sans-Serif" font-size="9.00" fill="white">High Research (+30%)</text>
<text xml:space="preserve" text-anchor="middle" x="547" y="-5.2" font-family="Helvetica,sans-Serif" font-size="9.00" fill="white">Low Production (&#45;20%)</text>
</g>
<!-- research&#45;&gt;tradeoff1 -->
<g id="edge14" class="edge">
<title>research&#45;&gt;tradeoff1</title>
<path fill="none" stroke="#666666" stroke-dasharray="1,5" d="M554.93,-86.32C553.23,-72.07 550.85,-52.01 549.14,-37.61"/>
</g>
<!-- tradeoff2 -->
<g id="node13" class="node">
<title>tradeoff2</title>
<polygon fill="#2d2d44" stroke="#4ecdc4" points="710.5,-37.25 619.5,-37.25 619.5,0 716.5,0 716.5,-31.25 710.5,-37.25"/>
<polyline fill="none" stroke="#4ecdc4" points="710.5,-37.25 710.5,-31.25"/>
<polyline fill="none" stroke="#4ecdc4" points="716.5,-31.25 710.5,-31.25"/>
<text xml:space="preserve" text-anchor="middle" x="668" y="-24.7" font-family="Helvetica,sans-Serif" font-size="9.00" fill="white">Example Trade&#45;off:</text>
<text xml:space="preserve" text-anchor="middle" x="668" y="-14.95" font-family="Helvetica,sans-Serif" font-size="9.00" fill="white">Fast Growth (+50%)</text>
<text xml:space="preserve" text-anchor="middle" x="668" y="-5.2" font-family="Helvetica,sans-Serif" font-size="9.00" fill="white">Narrow Habitability</text>
</g>
<!-- growth&#45;&gt;tradeoff2 -->
<g id="edge15" class="edge">
<title>growth&#45;&gt;tradeoff2</title>
<path fill="none" stroke="#666666" stroke-dasharray="1,5" d="M660.07,-86.32C661.77,-72.07 664.15,-52.01 665.86,-37.61"/>
</g>
<!-- ground&#45;&gt;pool -->
<g id="edge12" class="edge">
<title>ground&#45;&gt;pool</title>
<path fill="none" stroke="#888888" stroke-dasharray="5,2" d="M760.89,-123.01C753.78,-138.11 741.39,-159.46 724,-171.5 686.65,-197.37 638.37,-210.73 596.03,-217.58"/>
<polygon fill="#888888" stroke="#888888" points="595.8,-214.79 588.31,-218.76 596.64,-220.32 595.8,-214.79"/>
<text xml:space="preserve" text-anchor="middle" x="750.33" y="-162.95" font-family="Helvetica,sans-Serif" font-size="9.00" fill="#888888">Refund</text>
</g>
</g>
</svg>
