<?xml version="1.0" encoding="UTF-8" standalone="no"?>
<!DOCTYPE svg PUBLIC "-//W3C//DTD SVG 1.1//EN"
 "http://www.w3.org/Graphics/SVG/1.1/DTD/svg11.dtd">
<!-- Generated by graphviz version 14.1.2 (20260124.0452)
 -->
<!-- Title: G Pages: 1 -->
<svg width="937pt" height="510pt"
 viewBox="0.00 0.00 937.00 510.00" xmlns="http://www.w3.org/2000/svg" xmlns:xlink="http://www.w3.org/1999/xlink">
<g id="graph0" class="graph" transform="scale(1 1) rotate(0) translate(4 506.4)">
<title>G</title>
<polygon fill="#1a1a2e" stroke="none" points="-4,4 -4,-506.4 932.62,-506.4 932.62,4 -4,4"/>
<!-- title -->
<g id="node1" class="node">
<title>title</title>
<path fill="#2d2d44" stroke="none" d="M749.25,-502.4C749.25,-502.4 433.25,-502.4 433.25,-502.4 427.25,-502.4 421.25,-496.4 421.25,-490.4 421.25,-490.4 421.25,-478.4 421.25,-478.4 421.25,-472.4 427.25,-466.4 433.25,-466.4 433.25,-466.4 749.25,-466.4 749.25,-466.4 755.25,-466.4 761.25,-472.4 761.25,-478.4 761.25,-478.4 761.25,-490.4 761.25,-490.4 761.25,-496.4 755.25,-502.4 749.25,-502.4"/>
<text xml:space="preserve" text-anchor="middle" x="591.25" y="-477.45" font-family="Helvetica,sans-Serif" font-size="16.00" fill="#4ecdc4">Conventional Industry to TN Conversion Path</text>
</g>
<!-- ci -->
<g id="node2" class="node">
<title>ci</title>
<path fill="#3d3d54" stroke="#4ecdc4" d="M661.88,-415.4C661.88,-415.4 520.62,-415.4 520.62,-415.4 514.62,-415.4 508.62,-409.4 508.62,-403.4 508.62,-403.4 508.62,-351.15 508.62,-351.15 508.62,-345.15 514.62,-339.15 520.62,-339.15 520.62,-339.15 661.88,-339.15 661.88,-339.15 667.88,-339.15 673.88,-345.15 673.88,-351.15 673.88,-351.15 673.88,-403.4 673.88,-403.4 673.88,-409.4 667.88,-415.4 661.88,-415.4"/>
<text xml:space="preserve" text-anchor="middle" x="591.25" y="-401.9" font-family="Helvetica,sans-Serif" font-size="10.00" fill="white">Conventional Industry</text>
<text xml:space="preserve" text-anchor="middle" x="591.25" y="-390.65" font-family="Helvetica,sans-Serif" font-size="10.00" fill="white">~1,600 units (1B pop)</text>
<text xml:space="preserve" text-anchor="middle" x="591.25" y="-367.4" font-family="Helvetica,sans-Serif" font-size="10.00" fill="white">Provides fractional output:</text>
<text xml:space="preserve" text-anchor="middle" x="591.25" y="-356.15" font-family="Helvetica,sans-Serif" font-size="10.00" fill="white">0.1 CF / 0.15 Mine / 0.05 Refinery</text>
<text xml:space="preserve" text-anchor="middle" x="591.25" y="-344.9" font-family="Helvetica,sans-Serif" font-size="10.00" fill="white">0.05 OF / 0.025 FF / 0.025 FC</text>
</g>
<!-- title&#45;&gt;ci -->
<!-- research -->
<g id="node3" class="node">
<title>research</title>
<path fill="#2d4d44" stroke="#95d5b2" d="M483.65,-282.53C483.65,-282.53 423.31,-250.57 423.31,-250.57 418.01,-247.76 418.01,-242.14 423.31,-239.33 423.31,-239.33 483.65,-207.37 483.65,-207.37 488.95,-204.56 499.55,-204.56 504.85,-207.37 504.85,-207.37 565.19,-239.33 565.19,-239.33 570.49,-242.14 570.49,-247.76 565.19,-250.57 565.19,-250.57 504.85,-282.53 504.85,-282.53 499.55,-285.34 488.95,-285.34 483.65,-282.53"/>
<text xml:space="preserve" text-anchor="middle" x="494.25" y="-252.5" font-family="Helvetica,sans-Serif" font-size="11.00" fill="white">Research</text>
<text xml:space="preserve" text-anchor="middle" x="494.25" y="-240.5" font-family="Helvetica,sans-Serif" font-size="11.00" fill="white">Trans&#45;Newtonian</text>
<text xml:space="preserve" text-anchor="middle" x="494.25" y="-228.5" font-family="Helvetica,sans-Serif" font-size="11.00" fill="white">Technology</text>
</g>
<!-- ci&#45;&gt;research -->
<g id="edge2" class="edge">
<title>ci&#45;&gt;research</title>
<path fill="none" stroke="#4ecdc4" d="M542.21,-339C542.21,-339 542.21,-272.47 542.21,-272.47"/>
<polygon fill="#4ecdc4" stroke="#4ecdc4" points="545.01,-272.47 542.21,-264.47 539.41,-272.47 545.01,-272.47"/>
</g>
<!-- labs_note -->
<g id="node12" class="node">
<title>labs_note</title>
<polygon fill="#4d2d2d" stroke="#ff6b6b" points="758.88,-262.95 611.62,-262.95 611.62,-226.95 764.88,-226.95 764.88,-256.95 758.88,-262.95"/>
<polyline fill="none" stroke="#ff6b6b" points="758.88,-262.95 758.88,-256.95"/>
<polyline fill="none" stroke="#ff6b6b" points="764.88,-256.95 758.88,-256.95"/>
<text xml:space="preserve" text-anchor="middle" x="688.25" y="-246.15" font-family="Helvetica,sans-Serif" font-size="9.00" fill="#ff6b6b">Research Labs: CANNOT convert</text>
<text xml:space="preserve" text-anchor="middle" x="688.25" y="-236.4" font-family="Helvetica,sans-Serif" font-size="9.00" fill="#ff6b6b">Must build new (2,400 BP each)</text>
</g>
<!-- ci&#45;&gt;labs_note -->
<g id="edge11" class="edge">
<title>ci&#45;&gt;labs_note</title>
<path fill="none" stroke="#4ecdc4" stroke-dasharray="5,2" d="M642.75,-339C642.75,-314.12 642.75,-282.79 642.75,-263.32"/>
</g>
<!-- cost_note -->
<g id="node4" class="node">
<title>cost_note</title>
<polygon fill="#2d4d4d" stroke="#95d5b2" points="140.5,-140.88 0,-140.88 0,-99.12 146.5,-99.12 146.5,-134.88 140.5,-140.88"/>
<polyline fill="none" stroke="#95d5b2" points="140.5,-140.88 140.5,-134.88"/>
<polyline fill="none" stroke="#95d5b2" points="146.5,-134.88 140.5,-134.88"/>
<text xml:space="preserve" text-anchor="middle" x="73.25" y="-127.38" font-family="Helvetica,sans-Serif" font-size="10.00" fill="#95d5b2">Conversion Cost: 20 BP each</text>
<text xml:space="preserve" text-anchor="middle" x="73.25" y="-116.12" font-family="Helvetica,sans-Serif" font-size="10.00" fill="#95d5b2">(vs 120 BP to build new)</text>
<text xml:space="preserve" text-anchor="middle" x="73.25" y="-104.88" font-family="Helvetica,sans-Serif" font-size="10.00" fill="#95d5b2">83% DISCOUNT</text>
</g>
<!-- research&#45;&gt;cost_note -->
<g id="edge3" class="edge">
<title>research&#45;&gt;cost_note</title>
<path fill="none" stroke="#4ecdc4" stroke-dasharray="5,2" d="M438.34,-259C323.82,-259 73.25,-259 73.25,-259 73.25,-259 73.25,-180 73.25,-141.11"/>
</g>
<!-- cf -->
<g id="node5" class="node">
<title>cf</title>
<path fill="#4d3d54" stroke="#ffe66d" d="M286.12,-142C286.12,-142 194.38,-142 194.38,-142 188.38,-142 182.38,-136 182.38,-130 182.38,-130 182.38,-110 182.38,-110 182.38,-104 188.38,-98 194.38,-98 194.38,-98 286.12,-98 286.12,-98 292.12,-98 298.12,-104 298.12,-110 298.12,-110 298.12,-130 298.12,-130 298.12,-136 292.12,-142 286.12,-142"/>
<text xml:space="preserve" text-anchor="middle" x="240.25" y="-127.55" font-family="Helvetica,sans-Serif" font-size="11.00" fill="white">Construction Factory</text>
<text xml:space="preserve" text-anchor="middle" x="240.25" y="-115.55" font-family="Helvetica,sans-Serif" font-size="11.00" fill="white">10 Duranium</text>
<text xml:space="preserve" text-anchor="middle" x="240.25" y="-103.55" font-family="Helvetica,sans-Serif" font-size="11.00" fill="white">10 Neutronium</text>
</g>
<!-- research&#45;&gt;cf -->
<g id="edge4" class="edge">
<title>research&#45;&gt;cf</title>
<path fill="none" stroke="#4ecdc4" d="M438.19,-231C363.39,-231 240.25,-231 240.25,-231 240.25,-231 240.25,-151.98 240.25,-151.98"/>
<polygon fill="#4ecdc4" stroke="#4ecdc4" points="243.05,-151.98 240.25,-143.98 237.45,-151.98 243.05,-151.98"/>
<text xml:space="preserve" text-anchor="middle" x="287.62" y="-168.2" font-family="Helvetica,sans-Serif" font-size="9.00" fill="#888888">20 BP</text>
</g>
<!-- mine -->
<g id="node6" class="node">
<title>mine</title>
<path fill="#3d4d54" stroke="#4ecdc4" d="M406.38,-138C406.38,-138 346.12,-138 346.12,-138 340.12,-138 334.12,-132 334.12,-126 334.12,-126 334.12,-114 334.12,-114 334.12,-108 340.12,-102 346.12,-102 346.12,-102 406.38,-102 406.38,-102 412.38,-102 418.38,-108 418.38,-114 418.38,-114 418.38,-126 418.38,-126 418.38,-132 412.38,-138 406.38,-138"/>
<text xml:space="preserve" text-anchor="middle" x="376.25" y="-121.55" font-family="Helvetica,sans-Serif" font-size="11.00" fill="white">Mine</text>
<text xml:space="preserve" text-anchor="middle" x="376.25" y="-109.55" font-family="Helvetica,sans-Serif" font-size="11.00" fill="white">20 Corundium</text>
</g>
<!-- research&#45;&gt;mine -->
<g id="edge5" class="edge">
<title>research&#45;&gt;mine</title>
<path fill="none" stroke="#4ecdc4" d="M436.19,-232.05C436.19,-200.12 436.19,-120 436.19,-120 436.19,-120 428.36,-120 428.36,-120"/>
<polygon fill="#4ecdc4" stroke="#4ecdc4" points="428.36,-117.2 420.36,-120 428.36,-122.8 428.36,-117.2"/>
<text xml:space="preserve" text-anchor="middle" x="388.62" y="-168.2" font-family="Helvetica,sans-Serif" font-size="9.00" fill="#888888">20 BP</text>
</g>
<!-- refinery -->
<g id="node7" class="node">
<title>refinery</title>
<path fill="#3d4d54" stroke="#4ecdc4" d="M522.5,-138C522.5,-138 466,-138 466,-138 460,-138 454,-132 454,-126 454,-126 454,-114 454,-114 454,-108 460,-102 466,-102 466,-102 522.5,-102 522.5,-102 528.5,-102 534.5,-108 534.5,-114 534.5,-114 534.5,-126 534.5,-126 534.5,-132 528.5,-138 522.5,-138"/>
<text xml:space="preserve" text-anchor="middle" x="494.25" y="-121.55" font-family="Helvetica,sans-Serif" font-size="11.00" fill="white">Fuel Refinery</text>
<text xml:space="preserve" text-anchor="middle" x="494.25" y="-109.55" font-family="Helvetica,sans-Serif" font-size="11.00" fill="white">20 Boronide</text>
</g>
<!-- research&#45;&gt;refinery -->
<g id="edge6" class="edge">
<title>research&#45;&gt;refinery</title>
<path fill="none" stroke="#4ecdc4" d="M494.25,-201.25C494.25,-201.25 494.25,-147.93 494.25,-147.93"/>
<polygon fill="#4ecdc4" stroke="#4ecdc4" points="497.05,-147.93 494.25,-139.93 491.45,-147.93 497.05,-147.93"/>
<text xml:space="preserve" text-anchor="middle" x="506.62" y="-168.2" font-family="Helvetica,sans-Serif" font-size="9.00" fill="#888888">20 BP</text>
</g>
<!-- of -->
<g id="node8" class="node">
<title>of</title>
<path fill="#3d4d54" stroke="#4ecdc4" d="M660.38,-138C660.38,-138 582.12,-138 582.12,-138 576.12,-138 570.12,-132 570.12,-126 570.12,-126 570.12,-114 570.12,-114 570.12,-108 576.12,-102 582.12,-102 582.12,-102 660.38,-102 660.38,-102 666.38,-102 672.38,-108 672.38,-114 672.38,-114 672.38,-126 672.38,-126 672.38,-132 666.38,-138 660.38,-138"/>
<text xml:space="preserve" text-anchor="middle" x="621.25" y="-121.55" font-family="Helvetica,sans-Serif" font-size="11.00" fill="white">Ordnance Factory</text>
<text xml:space="preserve" text-anchor="middle" x="621.25" y="-109.55" font-family="Helvetica,sans-Serif" font-size="11.00" fill="white">20 Tritanium</text>
</g>
<!-- research&#45;&gt;of -->
<g id="edge7" class="edge">
<title>research&#45;&gt;of</title>
<path fill="none" stroke="#4ecdc4" d="M506.85,-208C533.61,-208 593.71,-208 593.71,-208 593.71,-208 593.71,-147.75 593.71,-147.75"/>
<polygon fill="#4ecdc4" stroke="#4ecdc4" points="596.51,-147.75 593.71,-139.75 590.91,-147.75 596.51,-147.75"/>
<text xml:space="preserve" text-anchor="middle" x="633.62" y="-168.2" font-family="Helvetica,sans-Serif" font-size="9.00" fill="#888888">20 BP</text>
</g>
<!-- ff -->
<g id="node9" class="node">
<title>ff</title>
<path fill="#3d4d54" stroke="#4ecdc4" d="M785.62,-138C785.62,-138 720.88,-138 720.88,-138 714.88,-138 708.88,-132 708.88,-126 708.88,-126 708.88,-114 708.88,-114 708.88,-108 714.88,-102 720.88,-102 720.88,-102 785.62,-102 785.62,-102 791.62,-102 797.62,-108 797.62,-114 797.62,-114 797.62,-126 797.62,-126 797.62,-132 791.62,-138 785.62,-138"/>
<text xml:space="preserve" text-anchor="middle" x="753.25" y="-121.55" font-family="Helvetica,sans-Serif" font-size="11.00" fill="white">Fighter Factory</text>
<text xml:space="preserve" text-anchor="middle" x="753.25" y="-109.55" font-family="Helvetica,sans-Serif" font-size="11.00" fill="white">20 Vendarite</text>
</g>
<!-- research&#45;&gt;ff -->
<g id="edge8" class="edge">
<title>research&#45;&gt;ff</title>
<path fill="none" stroke="#4ecdc4" d="M518.4,-214C579.77,-214 736.88,-214 736.88,-214 736.88,-214 736.88,-147.64 736.88,-147.64"/>
<polygon fill="#4ecdc4" stroke="#4ecdc4" points="739.68,-147.64 736.88,-139.64 734.08,-147.64 739.68,-147.64"/>
<text xml:space="preserve" text-anchor="middle" x="765.62" y="-168.2" font-family="Helvetica,sans-Serif" font-size="9.00" fill="#888888">20 BP</text>
</g>
<!-- fc -->
<g id="node10" class="node">
<title>fc</title>
<path fill="#3d4d54" stroke="#4ecdc4" d="M916.62,-138C916.62,-138 845.88,-138 845.88,-138 839.88,-138 833.88,-132 833.88,-126 833.88,-126 833.88,-114 833.88,-114 833.88,-108 839.88,-102 845.88,-102 845.88,-102 916.62,-102 916.62,-102 922.62,-102 928.62,-108 928.62,-114 928.62,-114 928.62,-126 928.62,-126 928.62,-132 922.62,-138 916.62,-138"/>
<text xml:space="preserve" text-anchor="middle" x="881.25" y="-121.55" font-family="Helvetica,sans-Serif" font-size="11.00" fill="white">Financial Centre</text>
<text xml:space="preserve" text-anchor="middle" x="881.25" y="-109.55" font-family="Helvetica,sans-Serif" font-size="11.00" fill="white">20 Corbomite</text>
</g>
<!-- research&#45;&gt;fc -->
<g id="edge9" class="edge">
<title>research&#45;&gt;fc</title>
<path fill="none" stroke="#4ecdc4" d="M531.36,-221C628.22,-221 881.25,-221 881.25,-221 881.25,-221 881.25,-147.57 881.25,-147.57"/>
<polygon fill="#4ecdc4" stroke="#4ecdc4" points="884.05,-147.57 881.25,-139.57 878.45,-147.57 884.05,-147.57"/>
<text xml:space="preserve" text-anchor="middle" x="893.62" y="-168.2" font-family="Helvetica,sans-Serif" font-size="9.00" fill="#888888">20 BP</text>
</g>
<!-- priority -->
<g id="node11" class="node">
<title>priority</title>
<polygon fill="#2d2d44" stroke="#4ecdc4" points="336,-47 138.5,-47 138.5,0 342,0 342,-41 336,-47"/>
<polyline fill="none" stroke="#4ecdc4" points="336,-47 336,-41"/>
<polyline fill="none" stroke="#4ecdc4" points="342,-41 336,-41"/>
<text xml:space="preserve" text-anchor="middle" x="240.25" y="-34.45" font-family="Helvetica,sans-Serif" font-size="9.00" fill="white">Recommended Priority:</text>
<text xml:space="preserve" text-anchor="middle" x="240.25" y="-24.7" font-family="Helvetica,sans-Serif" font-size="9.00" fill="white">1. Construction Factories (compounds growth)</text>
<text xml:space="preserve" text-anchor="middle" x="240.25" y="-14.95" font-family="Helvetica,sans-Serif" font-size="9.00" fill="white">2. Mines (mineral income)</text>
<text xml:space="preserve" text-anchor="middle" x="240.25" y="-5.2" font-family="Helvetica,sans-Serif" font-size="9.00" fill="white">3. Others based on strategy</text>
</g>
<!-- cf&#45;&gt;priority -->
<g id="edge10" class="edge">
<title>cf&#45;&gt;priority</title>
<path fill="none" stroke="#4ecdc4" stroke-dasharray="5,2" d="M240.25,-97.62C240.25,-82.59 240.25,-62.8 240.25,-47.45"/>
</g>
</g>
</svg>
