<?xml version="1.0" encoding="UTF-8" standalone="no"?>
<!DOCTYPE svg PUBLIC "-//W3C//DTD SVG 1.1//EN"
 "http://www.w3.org/Graphics/SVG/1.1/DTD/svg11.dtd">
<!-- Generated by graphviz version 14.1.2 (20260124.0452)
 -->
<!-- Title: ExpansionTimeline Pages: 1 -->
<svg width="670pt" height="443pt"
 viewBox="0.00 0.00 670.00 443.00" xmlns="http://www.w3.org/2000/svg" xmlns:xlink="http://www.w3.org/1999/xlink">
<g id="graph0" class="graph" transform="scale(1 1) rotate(0) translate(4 438.75)">
<title>ExpansionTimeline</title>
<polygon fill="#1a1a2e" stroke="none" points="-4,4 -4,-438.75 665.75,-438.75 665.75,4 -4,4"/>
<text xml:space="preserve" text-anchor="start" x="168.12" y="-414.65" font-family="Helvetica,sans-Serif" font-weight="bold" font-size="18.00" fill="white">Capacity Upgrade Methods Compared</text>
<!-- quick_label -->
<g id="node1" class="node">
<title>quick_label</title>
<path fill="#2d2d44" stroke="none" stroke-width="2" d="M273.38,-408C273.38,-408 136.62,-408 136.62,-408 130.62,-408 124.62,-402 124.62,-396 124.62,-396 124.62,-384 124.62,-384 124.62,-378 130.62,-372 136.62,-372 136.62,-372 273.38,-372 273.38,-372 279.38,-372 285.38,-378 285.38,-384 285.38,-384 285.38,-396 285.38,-396 285.38,-402 279.38,-408 273.38,-408"/>
<text xml:space="preserve" text-anchor="start" x="132.62" y="-391.7" font-family="Helvetica,sans-Serif" font-weight="bold" font-size="14.00" fill="#ff6b6b">Quick&#45;Button Upgrade</text>
<text xml:space="preserve" text-anchor="start" x="149.88" y="-377.7" font-family="Helvetica,sans-Serif" font-size="14.00" fill="#ff6b6b">(&quot;Add 5,000 tons&quot;)</text>
</g>
<!-- q_start -->
<g id="node3" class="node">
<title>q_start</title>
<path fill="#2d2d44" stroke="#4ecdc4" stroke-width="2" d="M254,-335C254,-335 156,-335 156,-335 150,-335 144,-329 144,-323 144,-323 144,-282 144,-282 144,-276 150,-270 156,-270 156,-270 254,-270 254,-270 260,-270 266,-276 266,-282 266,-282 266,-323 266,-323 266,-329 260,-335 254,-335"/>
<text xml:space="preserve" text-anchor="start" x="189.62" y="-316.7" font-family="Helvetica,sans-Serif" font-weight="bold" font-size="14.00" fill="white">Start</text>
<text xml:space="preserve" text-anchor="start" x="156.25" y="-296.7" font-family="Helvetica,sans-Serif" font-size="14.00" fill="#ff6b6b">Capacity: 1,000t</text>
<text xml:space="preserve" text-anchor="start" x="154" y="-277.7" font-family="Helvetica,sans-Serif" font-size="14.00" fill="#ffe66d">Can build: 1,000t</text>
</g>
<!-- quick_label&#45;&gt;q_start -->
<!-- continual_label -->
<g id="node2" class="node">
<title>continual_label</title>
<path fill="#2d2d44" stroke="none" stroke-width="2" d="M558.38,-408C558.38,-408 385.62,-408 385.62,-408 379.62,-408 373.62,-402 373.62,-396 373.62,-396 373.62,-384 373.62,-384 373.62,-378 379.62,-372 385.62,-372 385.62,-372 558.38,-372 558.38,-372 564.38,-372 570.38,-378 570.38,-384 570.38,-384 570.38,-396 570.38,-396 570.38,-402 564.38,-408 558.38,-408"/>
<text xml:space="preserve" text-anchor="start" x="381.62" y="-385.2" font-family="Helvetica,sans-Serif" font-weight="bold" font-size="14.00" fill="#95d5b2">Continual Capacity Upgrade</text>
</g>
<!-- c_start -->
<g id="node6" class="node">
<title>c_start</title>
<path fill="#2d2d44" stroke="#4ecdc4" stroke-width="2" d="M521,-335C521,-335 423,-335 423,-335 417,-335 411,-329 411,-323 411,-323 411,-282 411,-282 411,-276 417,-270 423,-270 423,-270 521,-270 521,-270 527,-270 533,-276 533,-282 533,-282 533,-323 533,-323 533,-329 527,-335 521,-335"/>
<text xml:space="preserve" text-anchor="start" x="456.62" y="-316.7" font-family="Helvetica,sans-Serif" font-weight="bold" font-size="14.00" fill="white">Start</text>
<text xml:space="preserve" text-anchor="start" x="423.25" y="-296.7" font-family="Helvetica,sans-Serif" font-size="14.00" fill="#95d5b2">Capacity: 1,000t</text>
<text xml:space="preserve" text-anchor="start" x="421" y="-277.7" font-family="Helvetica,sans-Serif" font-size="14.00" fill="#ffe66d">Can build: 1,000t</text>
</g>
<!-- continual_label&#45;&gt;c_start -->
<!-- q_mid -->
<g id="node4" class="node">
<title>q_mid</title>
<path fill="#2d2d44" stroke="#ff6b6b" stroke-width="2" d="M287.38,-219C287.38,-219 122.62,-219 122.62,-219 116.62,-219 110.62,-213 110.62,-207 110.62,-207 110.62,-147 110.62,-147 110.62,-141 116.62,-135 122.62,-135 122.62,-135 287.38,-135 287.38,-135 293.38,-135 299.38,-141 299.38,-147 299.38,-147 299.38,-207 299.38,-207 299.38,-213 293.38,-219 287.38,-219"/>
<text xml:space="preserve" text-anchor="start" x="154" y="-200.7" font-family="Helvetica,sans-Serif" font-weight="bold" font-size="14.00" fill="white">During Upgrade</text>
<text xml:space="preserve" text-anchor="start" x="152.88" y="-180.7" font-family="Helvetica,sans-Serif" font-size="14.00" fill="#ff6b6b">Displayed: 1,000t</text>
<text xml:space="preserve" text-anchor="start" x="154" y="-161.7" font-family="Helvetica,sans-Serif" font-size="14.00" fill="#ffe66d">Can build: 1,000t</text>
<text xml:space="preserve" text-anchor="start" x="120.62" y="-142.7" font-family="Helvetica,sans-Serif" font-size="14.00" fill="gray">(No access to new capacity)</text>
</g>
<!-- q_start&#45;&gt;q_mid -->
<g id="edge2" class="edge">
<title>q_start&#45;&gt;q_mid</title>
<path fill="none" stroke="#4ecdc4" stroke-width="2" d="M205,-269.05C205,-257.91 205,-245.12 205,-232.71"/>
<polygon fill="#4ecdc4" stroke="#4ecdc4" stroke-width="2" points="208.5,-233.03 205,-223.03 201.5,-233.03 208.5,-233.03"/>
<text xml:space="preserve" text-anchor="middle" x="246.62" y="-238.7" font-family="Helvetica,sans-Serif" font-size="14.00" fill="white"> &#160;Months 1&#45;5 &#160;</text>
</g>
<!-- q_end -->
<g id="node5" class="node">
<title>q_end</title>
<path fill="#2d2d44" stroke="#95d5b2" stroke-width="3" d="M110,-84C110,-84 12,-84 12,-84 6,-84 0,-78 0,-72 0,-72 0,-12 0,-12 0,-6 6,0 12,0 12,0 110,0 110,0 116,0 122,-6 122,-12 122,-12 122,-72 122,-72 122,-78 116,-84 110,-84"/>
<text xml:space="preserve" text-anchor="start" x="29.88" y="-65.7" font-family="Helvetica,sans-Serif" font-weight="bold" font-size="14.00" fill="white">Complete</text>
<text xml:space="preserve" text-anchor="start" x="12.25" y="-45.7" font-family="Helvetica,sans-Serif" font-size="14.00" fill="#95d5b2">Capacity: 6,000t</text>
<text xml:space="preserve" text-anchor="start" x="10" y="-26.7" font-family="Helvetica,sans-Serif" font-size="14.00" fill="#ffe66d">Can build: 6,000t</text>
<text xml:space="preserve" text-anchor="start" x="25" y="-7.7" font-family="Helvetica,sans-Serif" font-size="14.00" fill="#95d5b2">(All at once)</text>
</g>
<!-- q_mid&#45;&gt;q_end -->
<g id="edge3" class="edge">
<title>q_mid&#45;&gt;q_end</title>
<path fill="none" stroke="#4ecdc4" stroke-width="2" d="M159.83,-134.28C146.03,-121.53 130.69,-107.37 116.3,-94.07"/>
<polygon fill="#4ecdc4" stroke="#4ecdc4" stroke-width="2" points="118.94,-91.75 109.22,-87.54 114.19,-96.89 118.94,-91.75"/>
<text xml:space="preserve" text-anchor="middle" x="169.57" y="-103.7" font-family="Helvetica,sans-Serif" font-size="14.00" fill="white"> &#160;Month 6 &#160;</text>
</g>
<!-- note_quick -->
<g id="node9" class="node">
<title>note_quick</title>
<polygon fill="#2d2d44" stroke="#4ecdc4" stroke-width="2" points="313.5,-74.5 140.5,-74.5 140.5,-9.5 319.5,-9.5 319.5,-68.5 313.5,-74.5"/>
<polyline fill="none" stroke="#4ecdc4" stroke-width="2" points="313.5,-74.5 313.5,-68.5"/>
<polyline fill="none" stroke="#4ecdc4" stroke-width="2" points="319.5,-68.5 313.5,-68.5"/>
<text xml:space="preserve" text-anchor="start" x="150.5" y="-56.2" font-family="Helvetica,sans-Serif" font-weight="bold" font-size="14.00" fill="#ff6b6b">Quick&#45;Button Drawback:</text>
<text xml:space="preserve" text-anchor="start" x="155.38" y="-36.2" font-family="Helvetica,sans-Serif" font-size="14.00" fill="white">Cannot build ships larger</text>
<text xml:space="preserve" text-anchor="start" x="152.38" y="-17.2" font-family="Helvetica,sans-Serif" font-size="14.00" fill="white">than 1,000t until complete</text>
</g>
<!-- q_mid&#45;&gt;note_quick -->
<g id="edge7" class="edge">
<title>q_mid&#45;&gt;note_quick</title>
<path fill="none" stroke="#ff6b6b" stroke-width="2" stroke-dasharray="5,2" d="M212.84,-134.28C215.61,-119.55 218.74,-102.93 221.55,-87.94"/>
<polygon fill="#ff6b6b" stroke="#ff6b6b" stroke-width="2" points="224.96,-88.73 223.37,-78.26 218.09,-87.44 224.96,-88.73"/>
</g>
<!-- c_mid -->
<g id="node7" class="node">
<title>c_mid</title>
<path fill="#2d2d44" stroke="#95d5b2" stroke-width="2" d="M534.88,-219C534.88,-219 409.12,-219 409.12,-219 403.12,-219 397.12,-213 397.12,-207 397.12,-207 397.12,-147 397.12,-147 397.12,-141 403.12,-135 409.12,-135 409.12,-135 534.88,-135 534.88,-135 540.88,-135 546.88,-141 546.88,-147 546.88,-147 546.88,-207 546.88,-207 546.88,-213 540.88,-219 534.88,-219"/>
<text xml:space="preserve" text-anchor="start" x="421" y="-200.7" font-family="Helvetica,sans-Serif" font-weight="bold" font-size="14.00" fill="white">During Upgrade</text>
<text xml:space="preserve" text-anchor="start" x="423.25" y="-180.7" font-family="Helvetica,sans-Serif" font-size="14.00" fill="#95d5b2">Capacity: 3,500t</text>
<text xml:space="preserve" text-anchor="start" x="421" y="-161.7" font-family="Helvetica,sans-Serif" font-size="14.00" fill="#ffe66d">Can build: 3,500t</text>
<text xml:space="preserve" text-anchor="start" x="407.12" y="-142.7" font-family="Helvetica,sans-Serif" font-size="14.00" fill="#95d5b2">(Incremental access!)</text>
</g>
<!-- c_start&#45;&gt;c_mid -->
<g id="edge5" class="edge">
<title>c_start&#45;&gt;c_mid</title>
<path fill="none" stroke="#4ecdc4" stroke-width="2" d="M472,-269.05C472,-257.91 472,-245.12 472,-232.71"/>
<polygon fill="#4ecdc4" stroke="#4ecdc4" stroke-width="2" points="475.5,-233.03 472,-223.03 468.5,-233.03 475.5,-233.03"/>
<text xml:space="preserve" text-anchor="middle" x="513.62" y="-238.7" font-family="Helvetica,sans-Serif" font-size="14.00" fill="white"> &#160;Months 1&#45;3 &#160;</text>
</g>
<!-- c_end -->
<g id="node8" class="node">
<title>c_end</title>
<path fill="#2d2d44" stroke="#95d5b2" stroke-width="3" d="M472,-74.5C472,-74.5 374,-74.5 374,-74.5 368,-74.5 362,-68.5 362,-62.5 362,-62.5 362,-21.5 362,-21.5 362,-15.5 368,-9.5 374,-9.5 374,-9.5 472,-9.5 472,-9.5 478,-9.5 484,-15.5 484,-21.5 484,-21.5 484,-62.5 484,-62.5 484,-68.5 478,-74.5 472,-74.5"/>
<text xml:space="preserve" text-anchor="start" x="391.88" y="-56.2" font-family="Helvetica,sans-Serif" font-weight="bold" font-size="14.00" fill="white">Complete</text>
<text xml:space="preserve" text-anchor="start" x="374.25" y="-36.2" font-family="Helvetica,sans-Serif" font-size="14.00" fill="#95d5b2">Capacity: 6,000t</text>
<text xml:space="preserve" text-anchor="start" x="372" y="-17.2" font-family="Helvetica,sans-Serif" font-size="14.00" fill="#ffe66d">Can build: 6,000t</text>
</g>
<!-- c_mid&#45;&gt;c_end -->
<g id="edge6" class="edge">
<title>c_mid&#45;&gt;c_end</title>
<path fill="none" stroke="#4ecdc4" stroke-width="2" d="M456.63,-134.28C451.19,-119.52 445.05,-102.86 439.52,-87.85"/>
<polygon fill="#4ecdc4" stroke="#4ecdc4" stroke-width="2" points="442.84,-86.73 436.1,-78.55 436.27,-89.14 442.84,-86.73"/>
<text xml:space="preserve" text-anchor="middle" x="490.59" y="-103.7" font-family="Helvetica,sans-Serif" font-size="14.00" fill="white"> &#160;Months 4&#45;6 &#160;</text>
</g>
<!-- note_continual -->
<g id="node10" class="node">
<title>note_continual</title>
<polygon fill="#2d2d44" stroke="#4ecdc4" stroke-width="2" points="655.75,-84 502.25,-84 502.25,0 661.75,0 661.75,-78 655.75,-84"/>
<polyline fill="none" stroke="#4ecdc4" stroke-width="2" points="655.75,-84 655.75,-78"/>
<polyline fill="none" stroke="#4ecdc4" stroke-width="2" points="661.75,-78 655.75,-78"/>
<text xml:space="preserve" text-anchor="start" x="512.25" y="-65.7" font-family="Helvetica,sans-Serif" font-weight="bold" font-size="14.00" fill="#95d5b2">Continual Advantage:</text>
<text xml:space="preserve" text-anchor="start" x="516.75" y="-45.7" font-family="Helvetica,sans-Serif" font-size="14.00" fill="white">Can build larger ships</text>
<text xml:space="preserve" text-anchor="start" x="528.38" y="-26.7" font-family="Helvetica,sans-Serif" font-size="14.00" fill="white">as capacity grows</text>
<text xml:space="preserve" text-anchor="start" x="517.12" y="-7.7" font-family="Helvetica,sans-Serif" font-size="14.00" fill="white">Can interrupt anytime</text>
</g>
<!-- c_mid&#45;&gt;note_continual -->
<g id="edge8" class="edge">
<title>c_mid&#45;&gt;note_continual</title>
<path fill="none" stroke="#95d5b2" stroke-width="2" stroke-dasharray="5,2" d="M520.27,-134.18C525.81,-128.62 531.18,-122.82 536,-117 541.51,-110.34 546.85,-102.97 551.82,-95.54"/>
<polygon fill="#95d5b2" stroke="#95d5b2" stroke-width="2" points="554.7,-97.53 557.18,-87.23 548.82,-93.74 554.7,-97.53"/>
</g>
</g>
</svg>
