<?xml version="1.0" encoding="UTF-8" standalone="no"?>
<!DOCTYPE svg PUBLIC "-//W3C//DTD SVG 1.1//EN"
 "http://www.w3.org/Graphics/SVG/1.1/DTD/svg11.dtd">
<!-- Generated by graphviz version 14.1.2 (20260124.0452)
 -->
<!-- Title: ShipyardDecisionTree Pages: 1 -->
<svg width="551pt" height="512pt"
 viewBox="0.00 0.00 551.00 512.00" xmlns="http://www.w3.org/2000/svg" xmlns:xlink="http://www.w3.org/1999/xlink">
<g id="graph0" class="graph" transform="scale(1 1) rotate(0) translate(4 508.37)">
<title>ShipyardDecisionTree</title>
<polygon fill="#1a1a2e" stroke="none" points="-4,4 -4,-508.37 546.88,-508.37 546.88,4 -4,4"/>
<text xml:space="preserve" text-anchor="start" x="148.81" y="-484.27" font-family="Helvetica,sans-Serif" font-weight="bold" font-size="18.00" fill="white">Shipyard Type Decision Tree</text>
<g id="clust3" class="cluster">
<title>cluster_legend</title>
<polygon fill="#1a1a2e" stroke="#4ecdc4" stroke-dasharray="5,2" points="304.88,-390.87 304.88,-469.62 534.88,-469.62 534.88,-390.87 304.88,-390.87"/>
<text xml:space="preserve" text-anchor="start" x="387.62" y="-449.52" font-family="Helvetica,sans-Serif" font-weight="bold" font-size="18.00" fill="white">Legend</text>
</g>
<!-- start -->
<g id="node1" class="node">
<title>start</title>
<ellipse fill="#95d5b2" stroke="#4ecdc4" stroke-width="2" cx="231.88" cy="-416.87" rx="62.76" ry="26.87"/>
<text xml:space="preserve" text-anchor="middle" x="231.88" y="-418.57" font-family="Helvetica,sans-Serif" font-size="14.00" fill="#1a1a2e">Ship Design</text>
<text xml:space="preserve" text-anchor="middle" x="231.88" y="-403.57" font-family="Helvetica,sans-Serif" font-size="14.00" fill="#1a1a2e">Complete</text>
</g>
<!-- military_check -->
<g id="node2" class="node">
<title>military_check</title>
<path fill="#ffe66d" stroke="#4ecdc4" stroke-width="2" d="M220.47,-345.78C220.47,-345.78 126.78,-315.22 126.78,-315.22 121.08,-313.36 121.08,-309.64 126.78,-307.78 126.78,-307.78 220.47,-277.22 220.47,-277.22 226.17,-275.36 237.58,-275.36 243.28,-277.22 243.28,-277.22 336.97,-307.78 336.97,-307.78 342.67,-309.64 342.67,-313.36 336.97,-315.22 336.97,-315.22 243.28,-345.78 243.28,-345.78 237.58,-347.64 226.17,-347.64 220.47,-345.78"/>
<text xml:space="preserve" text-anchor="middle" x="231.88" y="-313.2" font-family="Helvetica,sans-Serif" font-size="14.00" fill="#1a1a2e">Contains Military</text>
<text xml:space="preserve" text-anchor="middle" x="231.88" y="-298.2" font-family="Helvetica,sans-Serif" font-size="14.00" fill="#1a1a2e">Components?</text>
</g>
<!-- start&#45;&gt;military_check -->
<g id="edge1" class="edge">
<title>start&#45;&gt;military_check</title>
<path fill="none" stroke="#4ecdc4" stroke-width="2" d="M231.88,-389.25C231.88,-381.29 231.88,-372.29 231.88,-363.32"/>
<polygon fill="#4ecdc4" stroke="#4ecdc4" stroke-width="2" points="235.38,-363.36 231.88,-353.36 228.38,-363.36 235.38,-363.36"/>
</g>
<!-- size_check -->
<g id="node3" class="node">
<title>size_check</title>
<path fill="#ffe66d" stroke="#4ecdc4" stroke-width="2" d="M123.06,-192.92C123.06,-192.92 44.44,-179.08 44.44,-179.08 38.53,-178.04 38.53,-175.96 44.44,-174.92 44.44,-174.92 123.06,-161.08 123.06,-161.08 128.97,-160.04 140.78,-160.04 146.69,-161.08 146.69,-161.08 225.31,-174.92 225.31,-174.92 231.22,-175.96 231.22,-178.04 225.31,-179.08 225.31,-179.08 146.69,-192.92 146.69,-192.92 140.78,-193.96 128.97,-193.96 123.06,-192.92"/>
<text xml:space="preserve" text-anchor="middle" x="134.88" y="-171.2" font-family="Helvetica,sans-Serif" font-size="14.00" fill="#1a1a2e">Size &lt;= 1,000t?</text>
</g>
<!-- military_check&#45;&gt;size_check -->
<g id="edge2" class="edge">
<title>military_check&#45;&gt;size_check</title>
<path fill="none" stroke="#4ecdc4" stroke-width="2" d="M209.62,-280.1C192.86,-257.2 170.1,-226.12 154.12,-204.28"/>
<polygon fill="#4ecdc4" stroke="#4ecdc4" stroke-width="2" points="156.96,-202.25 148.23,-196.24 151.31,-206.38 156.96,-202.25"/>
<text xml:space="preserve" text-anchor="middle" x="197.91" y="-238.7" font-family="Helvetica,sans-Serif" font-size="14.00" fill="#95d5b2">Yes</text>
</g>
<!-- commercial -->
<g id="node6" class="node">
<title>commercial</title>
<path fill="#95d5b2" stroke="#4ecdc4" stroke-width="2" d="M390.12,-219C390.12,-219 267.62,-219 267.62,-219 261.62,-219 255.62,-213 255.62,-207 255.62,-207 255.62,-147 255.62,-147 255.62,-141 261.62,-135 267.62,-135 267.62,-135 390.12,-135 390.12,-135 396.12,-135 402.12,-141 402.12,-147 402.12,-147 402.12,-207 402.12,-207 402.12,-213 396.12,-219 390.12,-219"/>
<text xml:space="preserve" text-anchor="middle" x="328.88" y="-201.7" font-family="Helvetica,sans-Serif" font-size="14.00" fill="#1a1a2e">Commercial Shipyard</text>
<text xml:space="preserve" text-anchor="middle" x="328.88" y="-186.7" font-family="Helvetica,sans-Serif" font-size="14.00" fill="#1a1a2e">Eligible</text>
<text xml:space="preserve" text-anchor="middle" x="328.88" y="-155.7" font-family="Helvetica,sans-Serif" font-size="14.00" fill="#1a1a2e">Capacity: 10,000t+</text>
<text xml:space="preserve" text-anchor="middle" x="328.88" y="-140.7" font-family="Helvetica,sans-Serif" font-size="14.00" fill="#1a1a2e">Cost: Lower/ton</text>
</g>
<!-- military_check&#45;&gt;commercial -->
<g id="edge3" class="edge">
<title>military_check&#45;&gt;commercial</title>
<path fill="none" stroke="#4ecdc4" stroke-width="2" d="M254.13,-280.1C264.97,-265.3 278.31,-247.07 290.71,-230.14"/>
<polygon fill="#4ecdc4" stroke="#4ecdc4" stroke-width="2" points="293.4,-232.38 296.48,-222.25 287.75,-228.25 293.4,-232.38"/>
<text xml:space="preserve" text-anchor="middle" x="291.91" y="-238.7" font-family="Helvetica,sans-Serif" font-size="14.00" fill="#95d5b2">No</text>
</g>
<!-- naval -->
<g id="node4" class="node">
<title>naval</title>
<path fill="#ff6b6b" stroke="#4ecdc4" stroke-width="2" d="M109.75,-84C109.75,-84 12,-84 12,-84 6,-84 0,-78 0,-72 0,-72 0,-12 0,-12 0,-6 6,0 12,0 12,0 109.75,0 109.75,0 115.75,0 121.75,-6 121.75,-12 121.75,-12 121.75,-72 121.75,-72 121.75,-78 115.75,-84 109.75,-84"/>
<text xml:space="preserve" text-anchor="middle" x="60.88" y="-66.7" font-family="Helvetica,sans-Serif" font-size="14.00" fill="white">Naval Shipyard</text>
<text xml:space="preserve" text-anchor="middle" x="60.88" y="-51.7" font-family="Helvetica,sans-Serif" font-size="14.00" fill="white">Required</text>
<text xml:space="preserve" text-anchor="middle" x="60.88" y="-20.7" font-family="Helvetica,sans-Serif" font-size="14.00" fill="white">Capacity: 1,000t+</text>
<text xml:space="preserve" text-anchor="middle" x="60.88" y="-5.7" font-family="Helvetica,sans-Serif" font-size="14.00" fill="white">Cost: Higher/ton</text>
</g>
<!-- size_check&#45;&gt;naval -->
<g id="edge5" class="edge">
<title>size_check&#45;&gt;naval</title>
<path fill="none" stroke="#4ecdc4" stroke-width="2" d="M125.8,-159.69C116.99,-143.85 103.11,-118.92 90.45,-96.16"/>
<polygon fill="#4ecdc4" stroke="#4ecdc4" stroke-width="2" points="93.56,-94.55 85.64,-87.51 87.44,-97.95 93.56,-94.55"/>
<text xml:space="preserve" text-anchor="middle" x="108.72" y="-103.7" font-family="Helvetica,sans-Serif" font-size="14.00" fill="#ff6b6b">No</text>
</g>
<!-- light_naval -->
<g id="node5" class="node">
<title>light_naval</title>
<path fill="#4ecdc4" stroke="#4ecdc4" stroke-width="2" d="M268.12,-84C268.12,-84 151.62,-84 151.62,-84 145.62,-84 139.62,-78 139.62,-72 139.62,-72 139.62,-12 139.62,-12 139.62,-6 145.62,0 151.62,0 151.62,0 268.12,0 268.12,0 274.12,0 280.12,-6 280.12,-12 280.12,-12 280.12,-72 280.12,-72 280.12,-78 274.12,-84 268.12,-84"/>
<text xml:space="preserve" text-anchor="middle" x="209.88" y="-66.7" font-family="Helvetica,sans-Serif" font-size="14.00" fill="#1a1a2e">Light Naval Shipyard</text>
<text xml:space="preserve" text-anchor="middle" x="209.88" y="-51.7" font-family="Helvetica,sans-Serif" font-size="14.00" fill="#1a1a2e">Eligible</text>
<text xml:space="preserve" text-anchor="middle" x="209.88" y="-20.7" font-family="Helvetica,sans-Serif" font-size="14.00" fill="#1a1a2e">Fixed: 1,000t</text>
<text xml:space="preserve" text-anchor="middle" x="209.88" y="-5.7" font-family="Helvetica,sans-Serif" font-size="14.00" fill="#1a1a2e">No Retooling</text>
</g>
<!-- size_check&#45;&gt;light_naval -->
<g id="edge4" class="edge">
<title>size_check&#45;&gt;light_naval</title>
<path fill="none" stroke="#4ecdc4" stroke-width="2" d="M144.07,-159.69C153.01,-143.85 167.06,-118.92 179.9,-96.16"/>
<polygon fill="#4ecdc4" stroke="#4ecdc4" stroke-width="2" points="182.92,-97.93 184.78,-87.5 176.82,-94.49 182.92,-97.93"/>
<text xml:space="preserve" text-anchor="middle" x="186.25" y="-103.7" font-family="Helvetica,sans-Serif" font-size="14.00" fill="#95d5b2">Yes</text>
</g>
<!-- note1 -->
<g id="node7" class="node">
<title>note1</title>
<polygon fill="#2d2d44" stroke="#4ecdc4" stroke-width="2" points="505,-353 366.75,-353 366.75,-270 511,-270 511,-347 505,-353"/>
<polyline fill="none" stroke="#4ecdc4" stroke-width="2" points="505,-353 505,-347"/>
<polyline fill="none" stroke="#4ecdc4" stroke-width="2" points="511,-347 505,-347"/>
<text xml:space="preserve" text-anchor="middle" x="438.88" y="-335.7" font-family="Helvetica,sans-Serif" font-size="14.00" fill="white">Military Components:</text>
<text xml:space="preserve" text-anchor="middle" x="438.88" y="-320.7" font-family="Helvetica,sans-Serif" font-size="14.00" fill="white">&#45; Weapons</text>
<text xml:space="preserve" text-anchor="middle" x="438.88" y="-305.7" font-family="Helvetica,sans-Serif" font-size="14.00" fill="white">&#45; Fire Controls</text>
<text xml:space="preserve" text-anchor="middle" x="438.88" y="-290.7" font-family="Helvetica,sans-Serif" font-size="14.00" fill="white">&#45; Military Engines</text>
<text xml:space="preserve" text-anchor="middle" x="438.88" y="-275.7" font-family="Helvetica,sans-Serif" font-size="14.00" fill="white">&#45; Significant Armor</text>
</g>
<!-- note2 -->
<g id="node8" class="node">
<title>note2</title>
<polygon fill="#2d2d44" stroke="#4ecdc4" stroke-width="2" points="403.5,-60 298.25,-60 298.25,-24 409.5,-24 409.5,-54 403.5,-60"/>
<polyline fill="none" stroke="#4ecdc4" stroke-width="2" points="403.5,-60 403.5,-54"/>
<polyline fill="none" stroke="#4ecdc4" stroke-width="2" points="409.5,-54 403.5,-54"/>
<text xml:space="preserve" text-anchor="middle" x="353.88" y="-43.75" font-family="Helvetica,sans-Serif" font-size="10.00" fill="white">Both naval yard types</text>
<text xml:space="preserve" text-anchor="middle" x="353.88" y="-32.5" font-family="Helvetica,sans-Serif" font-size="10.00" fill="white">can build this ship</text>
</g>
<!-- leg_decision -->
<g id="node9" class="node">
<title>leg_decision</title>
<path fill="#ffe66d" stroke="#4ecdc4" stroke-width="2" d="M363.35,-431.54C363.35,-431.54 324.13,-420.2 324.13,-420.2 318.37,-418.54 318.37,-415.2 324.13,-413.54 324.13,-413.54 363.35,-402.2 363.35,-402.2 369.11,-400.54 380.64,-400.54 386.4,-402.2 386.4,-402.2 425.62,-413.54 425.62,-413.54 431.38,-415.2 431.38,-418.54 425.62,-420.2 425.62,-420.2 386.4,-431.54 386.4,-431.54 380.64,-433.2 369.11,-433.2 363.35,-431.54"/>
<text xml:space="preserve" text-anchor="middle" x="374.88" y="-411.07" font-family="Helvetica,sans-Serif" font-size="14.00" fill="#1a1a2e">Decision</text>
</g>
<!-- leg_outcome -->
<g id="node10" class="node">
<title>leg_outcome</title>
<path fill="#2d2d44" stroke="#4ecdc4" stroke-width="2" d="M515,-434.87C515,-434.87 466.75,-434.87 466.75,-434.87 460.75,-434.87 454.75,-428.87 454.75,-422.87 454.75,-422.87 454.75,-410.87 454.75,-410.87 454.75,-404.87 460.75,-398.87 466.75,-398.87 466.75,-398.87 515,-398.87 515,-398.87 521,-398.87 527,-404.87 527,-410.87 527,-410.87 527,-422.87 527,-422.87 527,-428.87 521,-434.87 515,-434.87"/>
<text xml:space="preserve" text-anchor="middle" x="490.88" y="-411.07" font-family="Helvetica,sans-Serif" font-size="14.00" fill="white">Outcome</text>
</g>
</g>
</svg>
