<?xml version="1.0" encoding="UTF-8" standalone="no"?>
<!DOCTYPE svg PUBLIC "-//W3C//DTD SVG 1.1//EN"
 "http://www.w3.org/Graphics/SVG/1.1/DTD/svg11.dtd">
<!-- Generated by graphviz version 14.1.2 (20260124.0452)
 -->
<!-- Title: ConditionalOrders Pages: 1 -->
<svg width="636pt" height="807pt"
 viewBox="0.00 0.00 636.00 807.00" xmlns="http://www.w3.org/2000/svg" xmlns:xlink="http://www.w3.org/1999/xlink">
<g id="graph0" class="graph" transform="scale(1 1) rotate(0) translate(4 803.49)">
<title>ConditionalOrders</title>
<polygon fill="#1a1a2e" stroke="none" points="-4,4 -4,-803.49 631.75,-803.49 631.75,4 -4,4"/>
<text xml:space="preserve" text-anchor="start" x="161.25" y="-779.39" font-family="Helvetica,sans-Serif" font-weight="bold" font-size="18.00" fill="white">Conditional Order Evaluation Logic</text>
<!-- start -->
<g id="node1" class="node">
<title>start</title>
<ellipse fill="#95d5b2" stroke="#4ecdc4" stroke-width="2" cx="310.75" cy="-745.87" rx="87.68" ry="26.87"/>
<text xml:space="preserve" text-anchor="middle" x="310.75" y="-747.57" font-family="Helvetica,sans-Serif" font-size="14.00" fill="#1a1a2e">Order Queue</text>
<text xml:space="preserve" text-anchor="middle" x="310.75" y="-732.57" font-family="Helvetica,sans-Serif" font-size="14.00" fill="#1a1a2e">Evaluation Begins</text>
</g>
<!-- cond1 -->
<g id="node2" class="node">
<title>cond1</title>
<path fill="#ffe66d" stroke="#4ecdc4" stroke-width="2" d="M299.64,-673.47C299.64,-673.47 228.61,-644.53 228.61,-644.53 223.06,-642.26 223.06,-637.74 228.61,-635.47 228.61,-635.47 299.64,-606.53 299.64,-606.53 305.19,-604.26 316.31,-604.26 321.86,-606.53 321.86,-606.53 392.89,-635.47 392.89,-635.47 398.44,-637.74 398.44,-642.26 392.89,-644.53 392.89,-644.53 321.86,-673.47 321.86,-673.47 316.31,-675.74 305.19,-675.74 299.64,-673.47"/>
<text xml:space="preserve" text-anchor="middle" x="310.75" y="-641.7" font-family="Helvetica,sans-Serif" font-size="14.00" fill="#1a1a2e">Condition 1:</text>
<text xml:space="preserve" text-anchor="middle" x="310.75" y="-626.7" font-family="Helvetica,sans-Serif" font-size="14.00" fill="#1a1a2e">Fuel &lt; 20%?</text>
</g>
<!-- start&#45;&gt;cond1 -->
<g id="edge1" class="edge">
<title>start&#45;&gt;cond1</title>
<path fill="none" stroke="#4ecdc4" stroke-width="2" d="M310.75,-718.12C310.75,-710.03 310.75,-700.87 310.75,-691.75"/>
<polygon fill="#4ecdc4" stroke="#4ecdc4" stroke-width="2" points="314.25,-692.04 310.75,-682.04 307.25,-692.04 314.25,-692.04"/>
</g>
<!-- cond2 -->
<g id="node3" class="node">
<title>cond2</title>
<path fill="#ffe66d" stroke="#4ecdc4" stroke-width="2" d="M206.36,-543.24C206.36,-543.24 114.14,-512.76 114.14,-512.76 108.45,-510.88 108.45,-507.12 114.14,-505.24 114.14,-505.24 206.36,-474.76 206.36,-474.76 212.05,-472.88 223.45,-472.88 229.14,-474.76 229.14,-474.76 321.36,-505.24 321.36,-505.24 327.05,-507.12 327.05,-510.88 321.36,-512.76 321.36,-512.76 229.14,-543.24 229.14,-543.24 223.45,-545.12 212.05,-545.12 206.36,-543.24"/>
<text xml:space="preserve" text-anchor="middle" x="217.75" y="-510.7" font-family="Helvetica,sans-Serif" font-size="14.00" fill="#1a1a2e">Condition 2:</text>
<text xml:space="preserve" text-anchor="middle" x="217.75" y="-495.7" font-family="Helvetica,sans-Serif" font-size="14.00" fill="#1a1a2e">Hostile Contact?</text>
</g>
<!-- cond1&#45;&gt;cond2 -->
<g id="edge3" class="edge">
<title>cond1&#45;&gt;cond2</title>
<path fill="none" stroke="#4ecdc4" stroke-width="2" d="M289.65,-609.73C277.13,-592.37 261.08,-570.11 247.32,-551.02"/>
<polygon fill="#4ecdc4" stroke="#4ecdc4" stroke-width="2" points="250.2,-549.02 241.51,-542.96 244.52,-553.12 250.2,-549.02"/>
<text xml:space="preserve" text-anchor="middle" x="275.66" y="-566.7" font-family="Helvetica,sans-Serif" font-size="14.00" fill="white">No</text>
</g>
<!-- action1 -->
<g id="node5" class="node">
<title>action1</title>
<path fill="#ff6b6b" stroke="#4ecdc4" stroke-width="2" d="M444.75,-535.5C444.75,-535.5 362.75,-535.5 362.75,-535.5 356.75,-535.5 350.75,-529.5 350.75,-523.5 350.75,-523.5 350.75,-494.5 350.75,-494.5 350.75,-488.5 356.75,-482.5 362.75,-482.5 362.75,-482.5 444.75,-482.5 444.75,-482.5 450.75,-482.5 456.75,-488.5 456.75,-494.5 456.75,-494.5 456.75,-523.5 456.75,-523.5 456.75,-529.5 450.75,-535.5 444.75,-535.5"/>
<text xml:space="preserve" text-anchor="middle" x="403.75" y="-518.2" font-family="Helvetica,sans-Serif" font-size="14.00" fill="white">Execute:</text>
<text xml:space="preserve" text-anchor="middle" x="403.75" y="-503.2" font-family="Helvetica,sans-Serif" font-size="14.00" fill="white">Return to Base</text>
<text xml:space="preserve" text-anchor="middle" x="403.75" y="-488.2" font-family="Helvetica,sans-Serif" font-size="14.00" fill="white">for Refuel</text>
</g>
<!-- cond1&#45;&gt;action1 -->
<g id="edge2" class="edge">
<title>cond1&#45;&gt;action1</title>
<path fill="none" stroke="#4ecdc4" stroke-width="2" d="M331.85,-609.73C345.39,-590.95 363.07,-566.43 377.51,-546.4"/>
<polygon fill="#4ecdc4" stroke="#4ecdc4" stroke-width="2" points="380.16,-548.71 383.17,-538.55 374.48,-544.61 380.16,-548.71"/>
<text xml:space="preserve" text-anchor="middle" x="374.44" y="-566.7" font-family="Helvetica,sans-Serif" font-size="14.00" fill="#95d5b2">Yes</text>
</g>
<!-- cond3 -->
<g id="node4" class="node">
<title>cond3</title>
<path fill="#ffe66d" stroke="#4ecdc4" stroke-width="2" d="M107.32,-412.34C107.32,-412.34 11.43,-381.66 11.43,-381.66 5.71,-379.83 5.71,-376.17 11.43,-374.34 11.43,-374.34 107.32,-343.66 107.32,-343.66 113.04,-341.83 124.46,-341.83 130.18,-343.66 130.18,-343.66 226.07,-374.34 226.07,-374.34 231.79,-376.17 231.79,-379.83 226.07,-381.66 226.07,-381.66 130.18,-412.34 130.18,-412.34 124.46,-414.17 113.04,-414.17 107.32,-412.34"/>
<text xml:space="preserve" text-anchor="middle" x="118.75" y="-379.7" font-family="Helvetica,sans-Serif" font-size="14.00" fill="#1a1a2e">Condition 3:</text>
<text xml:space="preserve" text-anchor="middle" x="118.75" y="-364.7" font-family="Helvetica,sans-Serif" font-size="14.00" fill="#1a1a2e">Damage &gt; 50%?</text>
</g>
<!-- cond2&#45;&gt;cond3 -->
<g id="edge5" class="edge">
<title>cond2&#45;&gt;cond3</title>
<path fill="none" stroke="#4ecdc4" stroke-width="2" d="M194.54,-477.76C181.23,-460.41 164.35,-438.42 149.9,-419.59"/>
<polygon fill="#4ecdc4" stroke="#4ecdc4" stroke-width="2" points="152.87,-417.71 144,-411.9 147.31,-421.97 152.87,-417.71"/>
<text xml:space="preserve" text-anchor="middle" x="182.8" y="-439.7" font-family="Helvetica,sans-Serif" font-size="14.00" fill="white">No</text>
</g>
<!-- action2 -->
<g id="node6" class="node">
<title>action2</title>
<path fill="#ff6b6b" stroke="#4ecdc4" stroke-width="2" d="M363.88,-404.5C363.88,-404.5 267.62,-404.5 267.62,-404.5 261.62,-404.5 255.62,-398.5 255.62,-392.5 255.62,-392.5 255.62,-363.5 255.62,-363.5 255.62,-357.5 261.62,-351.5 267.62,-351.5 267.62,-351.5 363.88,-351.5 363.88,-351.5 369.88,-351.5 375.88,-357.5 375.88,-363.5 375.88,-363.5 375.88,-392.5 375.88,-392.5 375.88,-398.5 369.88,-404.5 363.88,-404.5"/>
<text xml:space="preserve" text-anchor="middle" x="315.75" y="-387.2" font-family="Helvetica,sans-Serif" font-size="14.00" fill="white">Execute:</text>
<text xml:space="preserve" text-anchor="middle" x="315.75" y="-372.2" font-family="Helvetica,sans-Serif" font-size="14.00" fill="white">Engage or Evade</text>
<text xml:space="preserve" text-anchor="middle" x="315.75" y="-357.2" font-family="Helvetica,sans-Serif" font-size="14.00" fill="white">(per doctrine)</text>
</g>
<!-- cond2&#45;&gt;action2 -->
<g id="edge4" class="edge">
<title>cond2&#45;&gt;action2</title>
<path fill="none" stroke="#4ecdc4" stroke-width="2" d="M240.73,-477.76C254.92,-459.07 273.22,-434.98 288.19,-415.27"/>
<polygon fill="#4ecdc4" stroke="#4ecdc4" stroke-width="2" points="290.81,-417.62 294.07,-407.54 285.23,-413.39 290.81,-417.62"/>
<text xml:space="preserve" text-anchor="middle" x="281.31" y="-439.7" font-family="Helvetica,sans-Serif" font-size="14.00" fill="#95d5b2">Yes</text>
</g>
<!-- action3 -->
<g id="node7" class="node">
<title>action3</title>
<path fill="#ff6b6b" stroke="#4ecdc4" stroke-width="2" d="M134.5,-285C134.5,-285 57,-285 57,-285 51,-285 45,-279 45,-273 45,-273 45,-244 45,-244 45,-238 51,-232 57,-232 57,-232 134.5,-232 134.5,-232 140.5,-232 146.5,-238 146.5,-244 146.5,-244 146.5,-273 146.5,-273 146.5,-279 140.5,-285 134.5,-285"/>
<text xml:space="preserve" text-anchor="middle" x="95.75" y="-267.7" font-family="Helvetica,sans-Serif" font-size="14.00" fill="white">Execute:</text>
<text xml:space="preserve" text-anchor="middle" x="95.75" y="-252.7" font-family="Helvetica,sans-Serif" font-size="14.00" fill="white">Withdraw to</text>
<text xml:space="preserve" text-anchor="middle" x="95.75" y="-237.7" font-family="Helvetica,sans-Serif" font-size="14.00" fill="white">Repair Facility</text>
</g>
<!-- cond3&#45;&gt;action3 -->
<g id="edge6" class="edge">
<title>cond3&#45;&gt;action3</title>
<path fill="none" stroke="#4ecdc4" stroke-width="2" d="M111.79,-341.43C109.14,-327.91 106.12,-312.45 103.41,-298.63"/>
<polygon fill="#4ecdc4" stroke="#4ecdc4" stroke-width="2" points="106.87,-298.1 101.52,-288.96 100,-299.45 106.87,-298.1"/>
<text xml:space="preserve" text-anchor="middle" x="118.19" y="-304.7" font-family="Helvetica,sans-Serif" font-size="14.00" fill="#95d5b2">Yes</text>
</g>
<!-- queued -->
<g id="node8" class="node">
<title>queued</title>
<path fill="#4ecdc4" stroke="#4ecdc4" stroke-width="2" d="M284.5,-285C284.5,-285 177,-285 177,-285 171,-285 165,-279 165,-273 165,-273 165,-244 165,-244 165,-238 171,-232 177,-232 177,-232 284.5,-232 284.5,-232 290.5,-232 296.5,-238 296.5,-244 296.5,-244 296.5,-273 296.5,-273 296.5,-279 290.5,-285 284.5,-285"/>
<text xml:space="preserve" text-anchor="middle" x="230.75" y="-267.7" font-family="Helvetica,sans-Serif" font-size="14.00" fill="#1a1a2e">No Conditions Met:</text>
<text xml:space="preserve" text-anchor="middle" x="230.75" y="-252.7" font-family="Helvetica,sans-Serif" font-size="14.00" fill="#1a1a2e">Execute Next</text>
<text xml:space="preserve" text-anchor="middle" x="230.75" y="-237.7" font-family="Helvetica,sans-Serif" font-size="14.00" fill="#1a1a2e">Queued Order</text>
</g>
<!-- cond3&#45;&gt;queued -->
<g id="edge7" class="edge">
<title>cond3&#45;&gt;queued</title>
<path fill="none" stroke="#4ecdc4" stroke-width="2" d="M146.44,-347.96C161.74,-331.9 180.87,-311.83 197.04,-294.86"/>
<polygon fill="#4ecdc4" stroke="#4ecdc4" stroke-width="2" points="199.22,-297.65 203.59,-288 194.15,-292.82 199.22,-297.65"/>
<text xml:space="preserve" text-anchor="middle" x="196.7" y="-304.7" font-family="Helvetica,sans-Serif" font-size="14.00" fill="white">No</text>
</g>
<!-- standing -->
<g id="node9" class="node">
<title>standing</title>
<path fill="#ffe66d" stroke="#4ecdc4" stroke-width="2" d="M219.92,-189.84C219.92,-189.84 130.33,-147.16 130.33,-147.16 124.92,-144.58 124.92,-139.42 130.33,-136.84 130.33,-136.84 219.92,-94.16 219.92,-94.16 225.33,-91.58 236.17,-91.58 241.58,-94.16 241.58,-94.16 331.17,-136.84 331.17,-136.84 336.58,-139.42 336.58,-144.58 331.17,-147.16 331.17,-147.16 241.58,-189.84 241.58,-189.84 236.17,-192.42 225.33,-192.42 219.92,-189.84"/>
<text xml:space="preserve" text-anchor="middle" x="230.75" y="-151.2" font-family="Helvetica,sans-Serif" font-size="14.00" fill="#1a1a2e">Queue Empty?</text>
<text xml:space="preserve" text-anchor="middle" x="230.75" y="-136.2" font-family="Helvetica,sans-Serif" font-size="14.00" fill="#1a1a2e">Check Standing</text>
<text xml:space="preserve" text-anchor="middle" x="230.75" y="-121.2" font-family="Helvetica,sans-Serif" font-size="14.00" fill="#1a1a2e">Orders</text>
</g>
<!-- queued&#45;&gt;standing -->
<g id="edge8" class="edge">
<title>queued&#45;&gt;standing</title>
<path fill="none" stroke="#4ecdc4" stroke-width="2" d="M230.75,-231.23C230.75,-224.38 230.75,-216.68 230.75,-208.77"/>
<polygon fill="#4ecdc4" stroke="#4ecdc4" stroke-width="2" points="234.25,-208.82 230.75,-198.82 227.25,-208.82 234.25,-208.82"/>
</g>
<!-- standing_exec -->
<g id="node10" class="node">
<title>standing_exec</title>
<path fill="#95d5b2" stroke="#4ecdc4" stroke-width="2" d="M212.88,-38C212.88,-38 128.62,-38 128.62,-38 122.62,-38 116.62,-32 116.62,-26 116.62,-26 116.62,-12 116.62,-12 116.62,-6 122.62,0 128.62,0 128.62,0 212.88,0 212.88,0 218.88,0 224.88,-6 224.88,-12 224.88,-12 224.88,-26 224.88,-26 224.88,-32 218.88,-38 212.88,-38"/>
<text xml:space="preserve" text-anchor="middle" x="170.75" y="-20.7" font-family="Helvetica,sans-Serif" font-size="14.00" fill="#1a1a2e">Execute</text>
<text xml:space="preserve" text-anchor="middle" x="170.75" y="-5.7" font-family="Helvetica,sans-Serif" font-size="14.00" fill="#1a1a2e">Standing Order</text>
</g>
<!-- standing&#45;&gt;standing_exec -->
<g id="edge9" class="edge">
<title>standing&#45;&gt;standing_exec</title>
<path fill="none" stroke="#4ecdc4" stroke-width="2" d="M209.6,-98.34C201.74,-82.5 193,-64.87 185.8,-50.35"/>
<polygon fill="#4ecdc4" stroke="#4ecdc4" stroke-width="2" points="189.09,-49.11 181.51,-41.7 182.82,-52.22 189.09,-49.11"/>
<text xml:space="preserve" text-anchor="middle" x="207" y="-57.7" font-family="Helvetica,sans-Serif" font-size="14.00" fill="#95d5b2">Yes</text>
</g>
<!-- hold -->
<g id="node11" class="node">
<title>hold</title>
<path fill="#2d2d44" stroke="#4ecdc4" stroke-width="2" d="M326.5,-37C326.5,-37 255,-37 255,-37 249,-37 243,-31 243,-25 243,-25 243,-13 243,-13 243,-7 249,-1 255,-1 255,-1 326.5,-1 326.5,-1 332.5,-1 338.5,-7 338.5,-13 338.5,-13 338.5,-25 338.5,-25 338.5,-31 332.5,-37 326.5,-37"/>
<text xml:space="preserve" text-anchor="middle" x="290.75" y="-13.2" font-family="Helvetica,sans-Serif" font-size="14.00" fill="white">Hold Position</text>
</g>
<!-- standing&#45;&gt;hold -->
<g id="edge10" class="edge">
<title>standing&#45;&gt;hold</title>
<path fill="none" stroke="#4ecdc4" stroke-width="2" d="M251.9,-98.34C259.97,-82.07 268.97,-63.92 276.28,-49.18"/>
<polygon fill="#4ecdc4" stroke="#4ecdc4" stroke-width="2" points="279.31,-50.95 280.61,-40.44 273.04,-47.85 279.31,-50.95"/>
<text xml:space="preserve" text-anchor="middle" x="279.97" y="-57.7" font-family="Helvetica,sans-Serif" font-size="14.00" fill="white">No</text>
</g>
<!-- priority_note -->
<g id="node12" class="node">
<title>priority_note</title>
<polygon fill="#2d2d44" stroke="#4ecdc4" stroke-width="2" points="621.75,-682 421.75,-682 421.75,-598 627.75,-598 627.75,-676 621.75,-682"/>
<polyline fill="none" stroke="#4ecdc4" stroke-width="2" points="621.75,-682 621.75,-676"/>
<polyline fill="none" stroke="#4ecdc4" stroke-width="2" points="627.75,-676 621.75,-676"/>
<text xml:space="preserve" text-anchor="start" x="482.38" y="-663.7" font-family="Helvetica,sans-Serif" font-weight="bold" font-size="14.00" fill="#ffe66d">Priority Rule:</text>
<text xml:space="preserve" text-anchor="start" x="435.12" y="-643.7" font-family="Helvetica,sans-Serif" font-size="14.00" fill="white">Conditions evaluated in order.</text>
<text xml:space="preserve" text-anchor="start" x="431.75" y="-624.7" font-family="Helvetica,sans-Serif" font-size="14.00" fill="white">First TRUE condition executes.</text>
<text xml:space="preserve" text-anchor="start" x="432.88" y="-605.7" font-family="Helvetica,sans-Serif" font-size="14.00" fill="white">Remaining conditions skipped.</text>
</g>
<!-- secondary_note -->
<g id="node13" class="node">
<title>secondary_note</title>
<polygon fill="#2d2d44" stroke="#ff6b6b" stroke-width="2" points="555.62,-420 393.88,-420 393.88,-336 561.62,-336 561.62,-414 555.62,-420"/>
<polyline fill="none" stroke="#ff6b6b" stroke-width="2" points="555.62,-420 555.62,-414"/>
<polyline fill="none" stroke="#ff6b6b" stroke-width="2" points="561.62,-414 555.62,-414"/>
<text xml:space="preserve" text-anchor="start" x="448.5" y="-401.7" font-family="Helvetica,sans-Serif" font-weight="bold" font-size="14.00" fill="#ff6b6b">Warning:</text>
<text xml:space="preserve" text-anchor="start" x="408.75" y="-381.7" font-family="Helvetica,sans-Serif" font-size="14.00" fill="white">Place safety conditions</text>
<text xml:space="preserve" text-anchor="start" x="403.88" y="-362.7" font-family="Helvetica,sans-Serif" font-size="14.00" fill="white">(fuel, damage) BEFORE</text>
<text xml:space="preserve" text-anchor="start" x="422.25" y="-343.7" font-family="Helvetica,sans-Serif" font-size="14.00" fill="white">mission conditions</text>
</g>
</g>
</svg>
