<?xml version="1.0" encoding="UTF-8" standalone="no"?>
<!DOCTYPE svg PUBLIC "-//W3C//DTD SVG 1.1//EN"
 "http://www.w3.org/Graphics/SVG/1.1/DTD/svg11.dtd">
<!-- Generated by graphviz version 14.1.2 (20260124.0452)
 -->
<!-- Title: SpeedBottleneck Pages: 1 -->
<svg width="664pt" height="356pt"
 viewBox="0.00 0.00 664.00 356.00" xmlns="http://www.w3.org/2000/svg" xmlns:xlink="http://www.w3.org/1999/xlink">
<g id="graph0" class="graph" transform="scale(1 1) rotate(0) translate(4 352.25)">
<title>SpeedBottleneck</title>
<polygon fill="#1a1a2e" stroke="none" points="-4,4 -4,-352.25 659.65,-352.25 659.65,4 -4,4"/>
<text xml:space="preserve" text-anchor="start" x="181.57" y="-328.15" font-family="Helvetica,sans-Serif" font-weight="bold" font-size="18.00" fill="white">Task Group Speed = Slowest Ship</text>
<!-- ship1 -->
<g id="node1" class="node">
<title>ship1</title>
<path fill="#2d2d44" stroke="#4ecdc4" stroke-width="2" d="M113.75,-238C113.75,-238 51,-238 51,-238 45,-238 39,-232 39,-226 39,-226 39,-204 39,-204 39,-198 45,-192 51,-192 51,-192 113.75,-192 113.75,-192 119.75,-192 125.75,-198 125.75,-204 125.75,-204 125.75,-226 125.75,-226 125.75,-232 119.75,-238 113.75,-238"/>
<text xml:space="preserve" text-anchor="start" x="50.88" y="-219.7" font-family="Helvetica,sans-Serif" font-weight="bold" font-size="14.00" fill="white">Destroyer</text>
<text xml:space="preserve" text-anchor="start" x="49" y="-199.7" font-family="Helvetica,sans-Serif" font-size="14.00" fill="#95d5b2">5,000 km/s</text>
</g>
<!-- bottleneck -->
<g id="node5" class="node">
<title>bottleneck</title>
<path fill="#2d2d44" stroke="#ff6b6b" stroke-width="3" d="M475.9,-107.3C475.9,-107.3 475.9,-130.7 475.9,-130.7 475.9,-136.7 470.36,-145 464.82,-147.31 464.82,-147.31 406.39,-171.6 406.39,-171.6 400.85,-173.91 389.31,-176.21 383.31,-176.21 383.31,-176.21 293.34,-176.21 293.34,-176.21 287.34,-176.21 275.8,-173.91 270.26,-171.6 270.26,-171.6 211.83,-147.31 211.83,-147.31 206.29,-145 200.75,-136.7 200.75,-130.7 200.75,-130.7 200.75,-107.3 200.75,-107.3 200.75,-101.3 206.29,-93 211.83,-90.69 211.83,-90.69 270.26,-66.4 270.26,-66.4 275.8,-64.09 287.34,-61.79 293.34,-61.79 293.34,-61.79 383.31,-61.79 383.31,-61.79 389.31,-61.79 400.85,-64.09 406.39,-66.4 406.39,-66.4 464.82,-90.69 464.82,-90.69 470.36,-93 475.9,-101.3 475.9,-107.3"/>
<text xml:space="preserve" text-anchor="start" x="258.45" y="-127.58" font-family="Helvetica,sans-Serif" font-size="24.00" fill="#ffe66d">BOTTLENECK</text>
<text xml:space="preserve" text-anchor="start" x="282.82" y="-108.33" font-family="Helvetica,sans-Serif" font-size="14.00" fill="white">Slowest ship limits</text>
<text xml:space="preserve" text-anchor="start" x="288.07" y="-89.33" font-family="Helvetica,sans-Serif" font-size="14.00" fill="white">entire task group</text>
</g>
<!-- ship1&#45;&gt;bottleneck -->
<g id="edge1" class="edge">
<title>ship1&#45;&gt;bottleneck</title>
<path fill="none" stroke="#4ecdc4" stroke-width="2" d="M126.74,-198.61C153.1,-188.64 188.11,-175.41 222,-162.59"/>
<polygon fill="#4ecdc4" stroke="#4ecdc4" stroke-width="2" points="222.98,-165.97 231.1,-159.16 220.51,-159.42 222.98,-165.97"/>
</g>
<!-- ship2 -->
<g id="node2" class="node">
<title>ship2</title>
<path fill="#2d2d44" stroke="#4ecdc4" stroke-width="2" d="M113.75,-174C113.75,-174 51,-174 51,-174 45,-174 39,-168 39,-162 39,-162 39,-140 39,-140 39,-134 45,-128 51,-128 51,-128 113.75,-128 113.75,-128 119.75,-128 125.75,-134 125.75,-140 125.75,-140 125.75,-162 125.75,-162 125.75,-168 119.75,-174 113.75,-174"/>
<text xml:space="preserve" text-anchor="start" x="58.75" y="-155.7" font-family="Helvetica,sans-Serif" font-weight="bold" font-size="14.00" fill="white">Cruiser</text>
<text xml:space="preserve" text-anchor="start" x="49" y="-135.7" font-family="Helvetica,sans-Serif" font-size="14.00" fill="#95d5b2">4,000 km/s</text>
</g>
<!-- ship2&#45;&gt;bottleneck -->
<g id="edge2" class="edge">
<title>ship2&#45;&gt;bottleneck</title>
<path fill="none" stroke="#4ecdc4" stroke-width="2" d="M126.74,-145.54C143.99,-143.36 164.95,-140.72 186.88,-137.96"/>
<polygon fill="#4ecdc4" stroke="#4ecdc4" stroke-width="2" points="187.02,-141.47 196.5,-136.74 186.14,-134.52 187.02,-141.47"/>
</g>
<!-- ship3 -->
<g id="node3" class="node">
<title>ship3</title>
<path fill="#2d2d44" stroke="#4ecdc4" stroke-width="2" d="M113.75,-110C113.75,-110 51,-110 51,-110 45,-110 39,-104 39,-98 39,-98 39,-76 39,-76 39,-70 45,-64 51,-64 51,-64 113.75,-64 113.75,-64 119.75,-64 125.75,-70 125.75,-76 125.75,-76 125.75,-98 125.75,-98 125.75,-104 119.75,-110 113.75,-110"/>
<text xml:space="preserve" text-anchor="start" x="61.38" y="-91.7" font-family="Helvetica,sans-Serif" font-weight="bold" font-size="14.00" fill="white">Escort</text>
<text xml:space="preserve" text-anchor="start" x="49" y="-71.7" font-family="Helvetica,sans-Serif" font-size="14.00" fill="#95d5b2">3,500 km/s</text>
</g>
<!-- ship3&#45;&gt;bottleneck -->
<g id="edge3" class="edge">
<title>ship3&#45;&gt;bottleneck</title>
<path fill="none" stroke="#4ecdc4" stroke-width="2" d="M126.74,-92.46C143.99,-94.64 164.95,-97.28 186.88,-100.04"/>
<polygon fill="#4ecdc4" stroke="#4ecdc4" stroke-width="2" points="186.14,-103.48 196.5,-101.26 187.02,-96.53 186.14,-103.48"/>
</g>
<!-- ship4 -->
<g id="node4" class="node">
<title>ship4</title>
<path fill="#ff6b6b" stroke="#4ecdc4" stroke-width="2" d="M113.75,-46C113.75,-46 51,-46 51,-46 45,-46 39,-40 39,-34 39,-34 39,-12 39,-12 39,-6 45,0 51,0 51,0 113.75,0 113.75,0 119.75,0 125.75,-6 125.75,-12 125.75,-12 125.75,-34 125.75,-34 125.75,-40 119.75,-46 113.75,-46"/>
<text xml:space="preserve" text-anchor="start" x="53.12" y="-27.7" font-family="Helvetica,sans-Serif" font-weight="bold" font-size="14.00" fill="white">Freighter</text>
<text xml:space="preserve" text-anchor="start" x="49" y="-7.7" font-family="Helvetica,sans-Serif" font-size="14.00" fill="#ff6b6b">2,500 km/s</text>
</g>
<!-- ship4&#45;&gt;bottleneck -->
<g id="edge4" class="edge">
<title>ship4&#45;&gt;bottleneck</title>
<path fill="none" stroke="#ff6b6b" stroke-width="4" d="M126.74,-39.39C152.41,-49.1 186.28,-61.9 219.34,-74.4"/>
<polygon fill="#ff6b6b" stroke="#ff6b6b" stroke-width="4" points="217.68,-77.51 228.27,-77.77 220.15,-70.96 217.68,-77.51"/>
</g>
<!-- result -->
<g id="node6" class="node">
<title>result</title>
<path fill="#2d2d44" stroke="#ff6b6b" stroke-width="3" d="M643.65,-154.5C643.65,-154.5 523.9,-154.5 523.9,-154.5 517.9,-154.5 511.9,-148.5 511.9,-142.5 511.9,-142.5 511.9,-95.5 511.9,-95.5 511.9,-89.5 517.9,-83.5 523.9,-83.5 523.9,-83.5 643.65,-83.5 643.65,-83.5 649.65,-83.5 655.65,-89.5 655.65,-95.5 655.65,-95.5 655.65,-142.5 655.65,-142.5 655.65,-148.5 649.65,-154.5 643.65,-154.5"/>
<text xml:space="preserve" text-anchor="start" x="523.77" y="-136.2" font-family="Helvetica,sans-Serif" font-weight="bold" font-size="14.00" fill="white">Task Group Speed</text>
<text xml:space="preserve" text-anchor="start" x="535.4" y="-110.5" font-family="Helvetica,sans-Serif" font-size="20.00" fill="#ff6b6b">2,500 km/s</text>
<text xml:space="preserve" text-anchor="start" x="521.9" y="-91.2" font-family="Helvetica,sans-Serif" font-size="14.00" fill="#ffe66d">(50% of fastest ship)</text>
</g>
<!-- bottleneck&#45;&gt;result -->
<g id="edge5" class="edge">
<title>bottleneck&#45;&gt;result</title>
<path fill="none" stroke="#ff6b6b" stroke-width="4" d="M477.06,-119C482.99,-119 488.88,-119 494.65,-119"/>
<polygon fill="#ff6b6b" stroke="#ff6b6b" stroke-width="4" points="494.53,-122.5 504.53,-119 494.53,-115.5 494.53,-122.5"/>
</g>
<!-- tip -->
<g id="node7" class="node">
<title>tip</title>
<polygon fill="#2d2d44" stroke="#4ecdc4" stroke-width="2" points="158.75,-321.5 0,-321.5 0,-256.5 164.75,-256.5 164.75,-315.5 158.75,-321.5"/>
<polyline fill="none" stroke="#4ecdc4" stroke-width="2" points="158.75,-321.5 158.75,-315.5"/>
<polyline fill="none" stroke="#4ecdc4" stroke-width="2" points="164.75,-315.5 158.75,-315.5"/>
<text xml:space="preserve" text-anchor="start" x="45.62" y="-303.2" font-family="Helvetica,sans-Serif" font-weight="bold" font-size="14.00" fill="#ffe66d">Design Tip:</text>
<text xml:space="preserve" text-anchor="start" x="10" y="-283.2" font-family="Helvetica,sans-Serif" font-size="14.00" fill="white">Form separate fast/slow</text>
<text xml:space="preserve" text-anchor="start" x="10.38" y="-264.2" font-family="Helvetica,sans-Serif" font-size="14.00" fill="white">task groups for flexibility</text>
</g>
</g>
</svg>
