<?xml version="1.0" encoding="UTF-8" standalone="no"?>
<!DOCTYPE svg PUBLIC "-//W3C//DTD SVG 1.1//EN"
 "http://www.w3.org/Graphics/SVG/1.1/DTD/svg11.dtd">
<!-- Generated by graphviz version 14.1.2 (20260124.0452)
 -->
<!-- Title: RefuellingHierarchy Pages: 1 -->
<svg width="975pt" height="362pt"
 viewBox="0.00 0.00 975.00 362.00" xmlns="http://www.w3.org/2000/svg" xmlns:xlink="http://www.w3.org/1999/xlink">
<g id="graph0" class="graph" transform="scale(1 1) rotate(0) translate(4 357.75)">
<title>RefuellingHierarchy</title>
<polygon fill="#1a1a2e" stroke="none" points="-4,4 -4,-357.75 970.62,-357.75 970.62,4 -4,4"/>
<text xml:space="preserve" text-anchor="start" x="335.19" y="-333.65" font-family="Helvetica,sans-Serif" font-weight="bold" font-size="18.00" fill="white">Refuelling Infrastructure Hierarchy</text>
<!-- colony -->
<g id="node1" class="node">
<title>colony</title>
<path fill="#2d2d44" stroke="#ffe66d" stroke-width="3" d="M327.12,-327C327.12,-327 185.62,-327 185.62,-327 179.62,-327 173.62,-321 173.62,-315 173.62,-315 173.62,-293 173.62,-293 173.62,-287 179.62,-281 185.62,-281 185.62,-281 327.12,-281 327.12,-281 333.12,-281 339.12,-287 339.12,-293 339.12,-293 339.12,-315 339.12,-315 339.12,-321 333.12,-327 327.12,-327"/>
<text xml:space="preserve" text-anchor="start" x="185.88" y="-308.7" font-family="Helvetica,sans-Serif" font-weight="bold" font-size="14.00" fill="#ffe66d">Colony Fuel Stockpile</text>
<text xml:space="preserve" text-anchor="start" x="183.62" y="-288.7" font-family="Helvetica,sans-Serif" font-size="14.00" fill="white">Source of all refined fuel</text>
</g>
<!-- spaceport -->
<g id="node2" class="node">
<title>spaceport</title>
<path fill="#2d2d44" stroke="#4ecdc4" stroke-width="2" d="M146.75,-215C146.75,-215 12,-215 12,-215 6,-215 0,-209 0,-203 0,-203 0,-143 0,-143 0,-137 6,-131 12,-131 12,-131 146.75,-131 146.75,-131 152.75,-131 158.75,-137 158.75,-143 158.75,-143 158.75,-203 158.75,-203 158.75,-209 152.75,-215 146.75,-215"/>
<text xml:space="preserve" text-anchor="start" x="46.38" y="-196.7" font-family="Helvetica,sans-Serif" font-weight="bold" font-size="14.00" fill="#95d5b2">Spaceport</text>
<text xml:space="preserve" text-anchor="start" x="34" y="-176.7" font-family="Helvetica,sans-Serif" font-size="14.00" fill="white">Cost: 3,000 BP</text>
<text xml:space="preserve" text-anchor="start" x="10" y="-157.7" font-family="Helvetica,sans-Serif" font-size="14.00" fill="white">Base Rate: 50,000 L/hr</text>
<text xml:space="preserve" text-anchor="start" x="33.25" y="-138.7" font-family="Helvetica,sans-Serif" font-size="14.00" fill="#ffe66d">Unlimited ships</text>
</g>
<!-- colony&#45;&gt;spaceport -->
<g id="edge1" class="edge">
<title>colony&#45;&gt;spaceport</title>
<path fill="none" stroke="#4ecdc4" stroke-width="2" d="M222.66,-279.69C214.9,-274.25 206.7,-268.46 199.12,-263 181.56,-250.34 162.7,-236.46 145.26,-223.5"/>
<polygon fill="#4ecdc4" stroke="#4ecdc4" stroke-width="2" points="147.71,-220.97 137.6,-217.8 143.53,-226.58 147.71,-220.97"/>
<text xml:space="preserve" text-anchor="middle" x="225.75" y="-249.7" font-family="Helvetica,sans-Serif" font-size="14.00" fill="white"> &#160;Ground</text>
<text xml:space="preserve" text-anchor="middle" x="225.75" y="-234.7" font-family="Helvetica,sans-Serif" font-size="14.00" fill="white"> &#160;transfer</text>
</g>
<!-- refuel_station -->
<g id="node3" class="node">
<title>refuel_station</title>
<path fill="#2d2d44" stroke="#4ecdc4" stroke-width="2" d="M323.75,-215C323.75,-215 189,-215 189,-215 183,-215 177,-209 177,-203 177,-203 177,-143 177,-143 177,-137 183,-131 189,-131 189,-131 323.75,-131 323.75,-131 329.75,-131 335.75,-137 335.75,-143 335.75,-143 335.75,-203 335.75,-203 335.75,-209 329.75,-215 323.75,-215"/>
<text xml:space="preserve" text-anchor="start" x="199" y="-196.7" font-family="Helvetica,sans-Serif" font-weight="bold" font-size="14.00" fill="#95d5b2">Refuelling Station</text>
<text xml:space="preserve" text-anchor="start" x="211" y="-176.7" font-family="Helvetica,sans-Serif" font-size="14.00" fill="white">Cost: 1,200 BP</text>
<text xml:space="preserve" text-anchor="start" x="187" y="-157.7" font-family="Helvetica,sans-Serif" font-size="14.00" fill="white">Base Rate: 50,000 L/hr</text>
<text xml:space="preserve" text-anchor="start" x="195.62" y="-138.7" font-family="Helvetica,sans-Serif" font-size="14.00" fill="#ffe66d">No workers required</text>
</g>
<!-- colony&#45;&gt;refuel_station -->
<g id="edge2" class="edge">
<title>colony&#45;&gt;refuel_station</title>
<path fill="none" stroke="#4ecdc4" stroke-width="2" d="M256.38,-279.64C256.38,-265.45 256.38,-246.71 256.38,-228.95"/>
<polygon fill="#4ecdc4" stroke="#4ecdc4" stroke-width="2" points="259.88,-229 256.38,-219 252.88,-229 259.88,-229"/>
<text xml:space="preserve" text-anchor="middle" x="283" y="-249.7" font-family="Helvetica,sans-Serif" font-size="14.00" fill="white"> &#160;Ground</text>
<text xml:space="preserve" text-anchor="middle" x="283" y="-234.7" font-family="Helvetica,sans-Serif" font-size="14.00" fill="white"> &#160;transfer</text>
</g>
<!-- tanker -->
<g id="node6" class="node">
<title>tanker</title>
<path fill="#2d2d44" stroke="#ff6b6b" stroke-width="2" d="M549.12,-205.5C549.12,-205.5 365.62,-205.5 365.62,-205.5 359.62,-205.5 353.62,-199.5 353.62,-193.5 353.62,-193.5 353.62,-152.5 353.62,-152.5 353.62,-146.5 359.62,-140.5 365.62,-140.5 365.62,-140.5 549.12,-140.5 549.12,-140.5 555.12,-140.5 561.12,-146.5 561.12,-152.5 561.12,-152.5 561.12,-193.5 561.12,-193.5 561.12,-199.5 555.12,-205.5 549.12,-205.5"/>
<text xml:space="preserve" text-anchor="start" x="418.75" y="-187.2" font-family="Helvetica,sans-Serif" font-weight="bold" font-size="14.00" fill="#ff6b6b">Tanker Ship</text>
<text xml:space="preserve" text-anchor="start" x="395.88" y="-167.2" font-family="Helvetica,sans-Serif" font-size="14.00" fill="white">Mobile fuel transport</text>
<text xml:space="preserve" text-anchor="start" x="363.62" y="-148.2" font-family="Helvetica,sans-Serif" font-size="14.00" fill="white">Refuel Fleet / Sub&#45;Fleet modes</text>
</g>
<!-- colony&#45;&gt;tanker -->
<g id="edge5" class="edge">
<title>colony&#45;&gt;tanker</title>
<path fill="none" stroke="#4ecdc4" stroke-width="2" d="M292.77,-279.64C321.56,-261.16 362.39,-234.96 396.18,-213.27"/>
<polygon fill="#4ecdc4" stroke="#4ecdc4" stroke-width="2" points="397.81,-216.39 404.34,-208.04 394.03,-210.5 397.81,-216.39"/>
<text xml:space="preserve" text-anchor="middle" x="394.4" y="-242.2" font-family="Helvetica,sans-Serif" font-size="14.00" fill="white"> &#160;Load fuel</text>
</g>
<!-- ship -->
<g id="node7" class="node">
<title>ship</title>
<path fill="#95d5b2" stroke="#4ecdc4" stroke-width="2" d="M503.75,-55.5C503.75,-55.5 411,-55.5 411,-55.5 405,-55.5 399,-49.5 399,-43.5 399,-43.5 399,-21.5 399,-21.5 399,-15.5 405,-9.5 411,-9.5 411,-9.5 503.75,-9.5 503.75,-9.5 509.75,-9.5 515.75,-15.5 515.75,-21.5 515.75,-21.5 515.75,-43.5 515.75,-43.5 515.75,-49.5 509.75,-55.5 503.75,-55.5"/>
<text xml:space="preserve" text-anchor="start" x="409" y="-37.2" font-family="Helvetica,sans-Serif" font-weight="bold" font-size="14.00" fill="white">Receiving Ship</text>
<text xml:space="preserve" text-anchor="start" x="410.5" y="-17.2" font-family="Helvetica,sans-Serif" font-size="14.00" fill="#95d5b2">Fuel tanks filled</text>
</g>
<!-- spaceport&#45;&gt;ship -->
<g id="edge3" class="edge">
<title>spaceport&#45;&gt;ship</title>
<path fill="none" stroke="#4ecdc4" stroke-width="2" d="M159.39,-135.04C162.42,-133.67 165.42,-132.32 168.38,-131 217.25,-109.13 228.4,-100.86 278.88,-83 313.55,-70.73 352.88,-59.54 385.78,-50.92"/>
<polygon fill="#4ecdc4" stroke="#4ecdc4" stroke-width="2" points="386.31,-54.39 395.12,-48.5 384.56,-47.62 386.31,-54.39"/>
<text xml:space="preserve" text-anchor="middle" x="309.62" y="-99.7" font-family="Helvetica,sans-Serif" font-size="14.00" fill="white"> &#160;Refuel at</text>
<text xml:space="preserve" text-anchor="middle" x="309.62" y="-84.7" font-family="Helvetica,sans-Serif" font-size="14.00" fill="white"> &#160;Colony</text>
</g>
<!-- refuel_station&#45;&gt;ship -->
<g id="edge4" class="edge">
<title>refuel_station&#45;&gt;ship</title>
<path fill="none" stroke="#4ecdc4" stroke-width="2" d="M317.23,-130.07C348.37,-108.61 385.57,-82.98 413.81,-63.52"/>
<polygon fill="#4ecdc4" stroke="#4ecdc4" stroke-width="2" points="415.43,-66.65 421.68,-58.1 411.46,-60.89 415.43,-66.65"/>
</g>
<!-- hub -->
<g id="node4" class="node">
<title>hub</title>
<path fill="#2d2d44" stroke="#4ecdc4" stroke-width="2" d="M798.25,-215C798.25,-215 648.5,-215 648.5,-215 642.5,-215 636.5,-209 636.5,-203 636.5,-203 636.5,-143 636.5,-143 636.5,-137 642.5,-131 648.5,-131 648.5,-131 798.25,-131 798.25,-131 804.25,-131 810.25,-137 810.25,-143 810.25,-143 810.25,-203 810.25,-203 810.25,-209 804.25,-215 798.25,-215"/>
<text xml:space="preserve" text-anchor="start" x="675.75" y="-196.7" font-family="Helvetica,sans-Serif" font-weight="bold" font-size="14.00" fill="#4ecdc4">Refuelling Hub</text>
<text xml:space="preserve" text-anchor="start" x="655.88" y="-176.7" font-family="Helvetica,sans-Serif" font-size="14.00" fill="white">Deep space fuel depot</text>
<text xml:space="preserve" text-anchor="start" x="646.5" y="-157.7" font-family="Helvetica,sans-Serif" font-size="14.00" fill="white">Multiple sources combine</text>
<text xml:space="preserve" text-anchor="start" x="666.38" y="-138.7" font-family="Helvetica,sans-Serif" font-size="14.00" fill="#ffe66d">Single transfer rate</text>
</g>
<!-- hub&#45;&gt;ship -->
<g id="edge8" class="edge">
<title>hub&#45;&gt;ship</title>
<path fill="none" stroke="#4ecdc4" stroke-width="2" d="M642.84,-130.07C600.72,-108.13 550.23,-81.85 512.57,-62.24"/>
<polygon fill="#4ecdc4" stroke="#4ecdc4" stroke-width="2" points="514.49,-59.29 504,-57.78 511.26,-65.5 514.49,-59.29"/>
<text xml:space="preserve" text-anchor="middle" x="645.3" y="-99.7" font-family="Helvetica,sans-Serif" font-size="14.00" fill="white"> &#160;Refuel from</text>
<text xml:space="preserve" text-anchor="middle" x="645.3" y="-84.7" font-family="Helvetica,sans-Serif" font-size="14.00" fill="white"> &#160;Hub</text>
</g>
<!-- system -->
<g id="node5" class="node">
<title>system</title>
<path fill="#2d2d44" stroke="#4ecdc4" stroke-width="2" d="M954.62,-215C954.62,-215 840.12,-215 840.12,-215 834.12,-215 828.12,-209 828.12,-203 828.12,-203 828.12,-143 828.12,-143 828.12,-137 834.12,-131 840.12,-131 840.12,-131 954.62,-131 954.62,-131 960.62,-131 966.62,-137 966.62,-143 966.62,-143 966.62,-203 966.62,-203 966.62,-209 960.62,-215 954.62,-215"/>
<text xml:space="preserve" text-anchor="start" x="838.5" y="-196.7" font-family="Helvetica,sans-Serif" font-weight="bold" font-size="14.00" fill="#4ecdc4">Refuelling System</text>
<text xml:space="preserve" text-anchor="start" x="849" y="-176.7" font-family="Helvetica,sans-Serif" font-size="14.00" fill="white">Size: 2,000 tons</text>
<text xml:space="preserve" text-anchor="start" x="838.12" y="-157.7" font-family="Helvetica,sans-Serif" font-size="14.00" fill="white">Rate: 20k&#45;900k L/hr</text>
<text xml:space="preserve" text-anchor="start" x="851.62" y="-138.7" font-family="Helvetica,sans-Serif" font-size="14.00" fill="#ffe66d">(11 tech levels)</text>
</g>
<!-- system&#45;&gt;ship -->
<g id="edge9" class="edge">
<title>system&#45;&gt;ship</title>
<path fill="none" stroke="#4ecdc4" stroke-width="2" stroke-dasharray="5,2" d="M827.43,-134.68C824.72,-133.41 822.03,-132.18 819.38,-131 762.7,-105.85 748.74,-97.17 688.38,-83 617.42,-66.34 595.58,-84.57 525.38,-65 521.43,-63.9 517.42,-62.59 513.43,-61.15"/>
<polygon fill="#4ecdc4" stroke="#4ecdc4" stroke-width="2" points="514.99,-58 504.4,-57.58 512.41,-64.51 514.99,-58"/>
<text xml:space="preserve" text-anchor="middle" x="817.24" y="-92.2" font-family="Helvetica,sans-Serif" font-size="14.00" fill="white"> &#160;Ship&#45;to&#45;ship</text>
</g>
<!-- tanker&#45;&gt;hub -->
<g id="edge6" class="edge">
<title>tanker&#45;&gt;hub</title>
<path fill="none" stroke="#4ecdc4" stroke-width="2" d="M562.12,-173C582.16,-173 603.09,-173 622.99,-173"/>
<polygon fill="#4ecdc4" stroke="#4ecdc4" stroke-width="2" points="622.86,-176.5 632.86,-173 622.86,-169.5 622.86,-176.5"/>
<text xml:space="preserve" text-anchor="middle" x="598.81" y="-192.7" font-family="Helvetica,sans-Serif" font-size="14.00" fill="white"> &#160;Transfer</text>
<text xml:space="preserve" text-anchor="middle" x="598.81" y="-177.7" font-family="Helvetica,sans-Serif" font-size="14.00" fill="white"> &#160;to Hub</text>
</g>
<!-- tanker&#45;&gt;ship -->
<g id="edge7" class="edge">
<title>tanker&#45;&gt;ship</title>
<path fill="none" stroke="#4ecdc4" stroke-width="2" d="M457.38,-139.53C457.38,-118.44 457.38,-90.94 457.38,-69.23"/>
<polygon fill="#4ecdc4" stroke="#4ecdc4" stroke-width="2" points="460.88,-69.28 457.38,-59.28 453.88,-69.28 460.88,-69.28"/>
<text xml:space="preserve" text-anchor="middle" x="478" y="-99.7" font-family="Helvetica,sans-Serif" font-size="14.00" fill="white"> &#160;Fleet</text>
<text xml:space="preserve" text-anchor="middle" x="478" y="-84.7" font-family="Helvetica,sans-Serif" font-size="14.00" fill="white"> &#160;refuel</text>
</g>
<!-- underway -->
<g id="node8" class="node">
<title>underway</title>
<polygon fill="#2d2d44" stroke="#4ecdc4" stroke-width="2" points="714.62,-65 534.12,-65 534.12,0 720.62,0 720.62,-59 714.62,-65"/>
<polyline fill="none" stroke="#4ecdc4" stroke-width="2" points="714.62,-65 714.62,-59"/>
<polyline fill="none" stroke="#4ecdc4" stroke-width="2" points="720.62,-59 714.62,-59"/>
<text xml:space="preserve" text-anchor="start" x="544.12" y="-46.7" font-family="Helvetica,sans-Serif" font-weight="bold" font-size="14.00" fill="#ffe66d">Underway Replenishment</text>
<text xml:space="preserve" text-anchor="start" x="552.75" y="-26.7" font-family="Helvetica,sans-Serif" font-size="14.00" fill="white">Tech levels: 20% &#45; 100%</text>
<text xml:space="preserve" text-anchor="start" x="544.12" y="-7.7" font-family="Helvetica,sans-Serif" font-size="14.00" fill="white">of normal rate while moving</text>
</g>
</g>
</svg>
