<?xml version="1.0" encoding="UTF-8" standalone="no"?>
<!DOCTYPE svg PUBLIC "-//W3C//DTD SVG 1.1//EN"
 "http://www.w3.org/Graphics/SVG/1.1/DTD/svg11.dtd">
<!-- Generated by graphviz version 14.1.2 (20260124.0452)
 -->
<!-- Title: BeamToHitCalculation Pages: 1 -->
<svg width="712pt" height="488pt"
 viewBox="0.00 0.00 712.00 488.00" xmlns="http://www.w3.org/2000/svg" xmlns:xlink="http://www.w3.org/1999/xlink">
<g id="graph0" class="graph" transform="scale(1 1) rotate(0) translate(4 484.4)">
<title>BeamToHitCalculation</title>
<polygon fill="#1a1a2e" stroke="none" points="-4,4 -4,-484.4 707.67,-484.4 707.67,4 -4,4"/>
<!-- title -->
<g id="node1" class="node">
<title>title</title>
<path fill="none" stroke="none" d="M241.75,-480.4C241.75,-480.4 12,-480.4 12,-480.4 6,-480.4 0,-474.4 0,-468.4 0,-468.4 0,-456.4 0,-456.4 0,-450.4 6,-444.4 12,-444.4 12,-444.4 241.75,-444.4 241.75,-444.4 247.75,-444.4 253.75,-450.4 253.75,-456.4 253.75,-456.4 253.75,-468.4 253.75,-468.4 253.75,-474.4 247.75,-480.4 241.75,-480.4"/>
<text xml:space="preserve" text-anchor="middle" x="126.88" y="-455.45" font-family="Helvetica,sans-Serif" font-size="16.00" fill="#ffe66d">Beam Weapon To&#45;Hit Calculation</text>
</g>
<!-- range_input -->
<g id="node2" class="node">
<title>range_input</title>
<path fill="#2d3d44" stroke="#95d5b2" d="M215.68,-394.4C215.68,-394.4 38.07,-394.4 38.07,-394.4 32.07,-394.4 26.08,-388.4 26.08,-382.4 26.08,-382.4 26.08,-370.4 26.08,-370.4 26.08,-364.4 32.08,-358.4 38.08,-358.4 38.08,-358.4 215.68,-358.4 215.68,-358.4 221.68,-358.4 227.68,-364.4 227.68,-370.4 227.68,-370.4 227.68,-382.4 227.68,-382.4 227.68,-388.4 221.68,-394.4 215.68,-394.4"/>
<text xml:space="preserve" text-anchor="middle" x="126.88" y="-377.95" font-family="Helvetica,sans-Serif" font-size="11.00" fill="white">Max Range</text>
<text xml:space="preserve" text-anchor="middle" x="126.88" y="-365.95" font-family="Helvetica,sans-Serif" font-size="11.00" fill="white">Current Range</text>
</g>
<!-- title&#45;&gt;range_input -->
<!-- base_calc -->
<g id="node5" class="node">
<title>base_calc</title>
<path fill="#44442d" stroke="#ffe66d" d="M215.68,-308.4C215.68,-308.4 38.07,-308.4 38.07,-308.4 32.07,-308.4 26.08,-302.4 26.08,-296.4 26.08,-296.4 26.08,-262.8 26.08,-262.8 26.08,-256.8 32.08,-250.8 38.08,-250.8 38.08,-250.8 215.68,-250.8 215.68,-250.8 221.68,-250.8 227.68,-256.8 227.68,-262.8 227.68,-262.8 227.68,-296.4 227.68,-296.4 227.68,-302.4 221.68,-308.4 215.68,-308.4"/>
<text xml:space="preserve" text-anchor="middle" x="126.88" y="-287.15" font-family="Helvetica,sans-Serif" font-size="11.00" fill="white">Base Hit Chance =</text>
<text xml:space="preserve" text-anchor="middle" x="126.88" y="-275.15" font-family="Helvetica,sans-Serif" font-size="11.00" fill="white">(Max_Range &#45; Current_Range)</text>
<text xml:space="preserve" text-anchor="middle" x="126.88" y="-263.15" font-family="Helvetica,sans-Serif" font-size="11.00" fill="white">/ Max_Range x 100</text>
</g>
<!-- range_input&#45;&gt;base_calc -->
<g id="edge2" class="edge">
<title>range_input&#45;&gt;base_calc</title>
<path fill="none" stroke="#4ecdc4" stroke-width="2" d="M126.88,-358.19C126.88,-358.19 126.88,-319.79 126.88,-319.79"/>
<polygon fill="#4ecdc4" stroke="#4ecdc4" stroke-width="2" points="129.68,-319.79 126.88,-311.79 124.08,-319.79 129.68,-319.79"/>
</g>
<!-- speed_input -->
<g id="node3" class="node">
<title>speed_input</title>
<path fill="#2d3d44" stroke="#95d5b2" d="M453.68,-394.4C453.68,-394.4 276.07,-394.4 276.07,-394.4 270.07,-394.4 264.07,-388.4 264.07,-382.4 264.07,-382.4 264.07,-370.4 264.07,-370.4 264.07,-364.4 270.07,-358.4 276.07,-358.4 276.07,-358.4 453.68,-358.4 453.68,-358.4 459.68,-358.4 465.68,-364.4 465.68,-370.4 465.68,-370.4 465.68,-382.4 465.68,-382.4 465.68,-388.4 459.68,-394.4 453.68,-394.4"/>
<text xml:space="preserve" text-anchor="middle" x="364.88" y="-377.95" font-family="Helvetica,sans-Serif" font-size="11.00" fill="white">Weapon Tracking Speed</text>
<text xml:space="preserve" text-anchor="middle" x="364.88" y="-365.95" font-family="Helvetica,sans-Serif" font-size="11.00" fill="white">Target Speed</text>
</g>
<!-- tracking_calc -->
<g id="node6" class="node">
<title>tracking_calc</title>
<path fill="#44442d" stroke="#ffe66d" d="M453.68,-308.4C453.68,-308.4 276.07,-308.4 276.07,-308.4 270.07,-308.4 264.07,-302.4 264.07,-296.4 264.07,-296.4 264.07,-262.8 264.07,-262.8 264.07,-256.8 270.07,-250.8 276.07,-250.8 276.07,-250.8 453.68,-250.8 453.68,-250.8 459.68,-250.8 465.68,-256.8 465.68,-262.8 465.68,-262.8 465.68,-296.4 465.68,-296.4 465.68,-302.4 459.68,-308.4 453.68,-308.4"/>
<text xml:space="preserve" text-anchor="middle" x="364.88" y="-287.15" font-family="Helvetica,sans-Serif" font-size="11.00" fill="white">Tracking Modifier =</text>
<text xml:space="preserve" text-anchor="middle" x="364.88" y="-275.15" font-family="Helvetica,sans-Serif" font-size="11.00" fill="white">min(1.0, Weapon_Tracking</text>
<text xml:space="preserve" text-anchor="middle" x="364.88" y="-263.15" font-family="Helvetica,sans-Serif" font-size="11.00" fill="white">/ Target_Speed)</text>
</g>
<!-- speed_input&#45;&gt;tracking_calc -->
<g id="edge3" class="edge">
<title>speed_input&#45;&gt;tracking_calc</title>
<path fill="none" stroke="#4ecdc4" stroke-width="2" d="M364.88,-358.19C364.88,-358.19 364.88,-319.79 364.88,-319.79"/>
<polygon fill="#4ecdc4" stroke="#4ecdc4" stroke-width="2" points="367.68,-319.79 364.88,-311.79 362.08,-319.79 367.68,-319.79"/>
</g>
<!-- ecm_input -->
<g id="node4" class="node">
<title>ecm_input</title>
<path fill="#2d3d44" stroke="#95d5b2" d="M691.67,-394.4C691.67,-394.4 514.08,-394.4 514.08,-394.4 508.07,-394.4 502.07,-388.4 502.07,-382.4 502.07,-382.4 502.07,-370.4 502.07,-370.4 502.07,-364.4 508.07,-358.4 514.08,-358.4 514.08,-358.4 691.67,-358.4 691.67,-358.4 697.67,-358.4 703.67,-364.4 703.67,-370.4 703.67,-370.4 703.67,-382.4 703.67,-382.4 703.67,-388.4 697.67,-394.4 691.67,-394.4"/>
<text xml:space="preserve" text-anchor="middle" x="602.88" y="-377.95" font-family="Helvetica,sans-Serif" font-size="11.00" fill="white">Target ECM Level</text>
<text xml:space="preserve" text-anchor="middle" x="602.88" y="-365.95" font-family="Helvetica,sans-Serif" font-size="11.00" fill="white">Fire Control ECCM Level</text>
</g>
<!-- ecm_calc -->
<g id="node7" class="node">
<title>ecm_calc</title>
<path fill="#44442d" stroke="#ffe66d" d="M691.67,-308.4C691.67,-308.4 514.08,-308.4 514.08,-308.4 508.07,-308.4 502.07,-302.4 502.07,-296.4 502.07,-296.4 502.07,-262.8 502.07,-262.8 502.07,-256.8 508.07,-250.8 514.08,-250.8 514.08,-250.8 691.67,-250.8 691.67,-250.8 697.67,-250.8 703.67,-256.8 703.67,-262.8 703.67,-262.8 703.67,-296.4 703.67,-296.4 703.67,-302.4 697.67,-308.4 691.67,-308.4"/>
<text xml:space="preserve" text-anchor="middle" x="602.88" y="-281.15" font-family="Helvetica,sans-Serif" font-size="11.00" fill="white">ECM/ECCM Modifier =</text>
<text xml:space="preserve" text-anchor="middle" x="602.88" y="-269.15" font-family="Helvetica,sans-Serif" font-size="11.00" fill="white">1 &#45; (ECM_Level &#45; ECCM_Level) x 0.1</text>
</g>
<!-- ecm_input&#45;&gt;ecm_calc -->
<g id="edge4" class="edge">
<title>ecm_input&#45;&gt;ecm_calc</title>
<path fill="none" stroke="#4ecdc4" stroke-width="2" d="M602.88,-358.19C602.88,-358.19 602.88,-319.79 602.88,-319.79"/>
<polygon fill="#4ecdc4" stroke="#4ecdc4" stroke-width="2" points="605.68,-319.79 602.88,-311.79 600.08,-319.79 605.68,-319.79"/>
</g>
<!-- mult1 -->
<g id="node8" class="node">
<title>mult1</title>
<ellipse fill="#4ecdc4" stroke="#4ecdc4" cx="286.88" cy="-182.8" rx="14.4" ry="14.4"/>
<text xml:space="preserve" text-anchor="middle" x="286.88" y="-177" font-family="Helvetica,sans-Serif" font-size="14.00" fill="#1a1a2e">x</text>
</g>
<!-- base_calc&#45;&gt;mult1 -->
<g id="edge5" class="edge">
<title>base_calc&#45;&gt;mult1</title>
<path fill="none" stroke="#4ecdc4" stroke-width="2" d="M228.09,-280C235.83,-280 240.71,-280 240.71,-280 240.71,-280 240.71,-183 240.71,-183 240.71,-183 260.99,-183 260.99,-183"/>
<polygon fill="#4ecdc4" stroke="#4ecdc4" stroke-width="2" points="260.99,-185.8 268.99,-183 260.99,-180.2 260.99,-185.8"/>
</g>
<!-- note1 -->
<g id="node11" class="node">
<title>note1</title>
<polygon fill="#1a1a2e" stroke="#4ecdc4" points="221.68,-200.8 26.08,-200.8 26.08,-164.8 227.68,-164.8 227.68,-194.8 221.68,-200.8"/>
<polyline fill="none" stroke="#4ecdc4" points="221.68,-200.8 221.68,-194.8"/>
<polyline fill="none" stroke="#4ecdc4" points="227.68,-194.8 221.68,-194.8"/>
<text xml:space="preserve" text-anchor="middle" x="126.88" y="-184" font-family="Helvetica,sans-Serif" font-size="9.00" fill="#95d5b2">At point&#45;blank: ~100% hit</text>
<text xml:space="preserve" text-anchor="middle" x="126.88" y="-174.25" font-family="Helvetica,sans-Serif" font-size="9.00" fill="#95d5b2">At max range: ~50% hit</text>
</g>
<!-- base_calc&#45;&gt;note1 -->
<g id="edge10" class="edge">
<title>base_calc&#45;&gt;note1</title>
<path fill="none" stroke="#4ecdc4" stroke-width="2" stroke-dasharray="1,5" d="M126.88,-250.56C126.88,-234.52 126.88,-215.08 126.88,-201.15"/>
</g>
<!-- tracking_calc&#45;&gt;mult1 -->
<g id="edge6" class="edge">
<title>tracking_calc&#45;&gt;mult1</title>
<path fill="none" stroke="#4ecdc4" stroke-width="2" d="M286.88,-250.56C286.88,-250.56 286.88,-208.54 286.88,-208.54"/>
<polygon fill="#4ecdc4" stroke="#4ecdc4" stroke-width="2" points="289.68,-208.54 286.88,-200.54 284.08,-208.54 289.68,-208.54"/>
</g>
<!-- note2 -->
<g id="node12" class="node">
<title>note2</title>
<polygon fill="#1a1a2e" stroke="#4ecdc4" points="532.67,-200.8 337.07,-200.8 337.07,-164.8 538.67,-164.8 538.67,-194.8 532.67,-200.8"/>
<polyline fill="none" stroke="#4ecdc4" points="532.67,-200.8 532.67,-194.8"/>
<polyline fill="none" stroke="#4ecdc4" points="538.67,-194.8 532.67,-194.8"/>
<text xml:space="preserve" text-anchor="middle" x="437.88" y="-184" font-family="Helvetica,sans-Serif" font-size="9.00" fill="#95d5b2">If target faster than</text>
<text xml:space="preserve" text-anchor="middle" x="437.88" y="-174.25" font-family="Helvetica,sans-Serif" font-size="9.00" fill="#95d5b2">tracking, hit chance capped</text>
</g>
<!-- tracking_calc&#45;&gt;note2 -->
<g id="edge11" class="edge">
<title>tracking_calc&#45;&gt;note2</title>
<path fill="none" stroke="#4ecdc4" stroke-width="2" stroke-dasharray="1,5" d="M401.38,-250.56C401.38,-234.52 401.38,-215.08 401.38,-201.15"/>
</g>
<!-- mult2 -->
<g id="node9" class="node">
<title>mult2</title>
<ellipse fill="#4ecdc4" stroke="#4ecdc4" cx="439.88" cy="-100.4" rx="14.4" ry="14.4"/>
<text xml:space="preserve" text-anchor="middle" x="439.88" y="-94.6" font-family="Helvetica,sans-Serif" font-size="14.00" fill="#1a1a2e">x</text>
</g>
<!-- ecm_calc&#45;&gt;mult2 -->
<g id="edge8" class="edge">
<title>ecm_calc&#45;&gt;mult2</title>
<path fill="none" stroke="#4ecdc4" stroke-width="2" d="M622.17,-250.34C622.17,-199.45 622.17,-100 622.17,-100 622.17,-100 465.51,-100 465.51,-100"/>
<polygon fill="#4ecdc4" stroke="#4ecdc4" stroke-width="2" points="465.51,-97.2 457.51,-100 465.51,-102.8 465.51,-97.2"/>
</g>
<!-- mult1&#45;&gt;mult2 -->
<g id="edge7" class="edge">
<title>mult1&#45;&gt;mult2</title>
<path fill="none" stroke="#4ecdc4" stroke-width="2" d="M286.88,-168C286.88,-144.18 286.88,-100 286.88,-100 286.88,-100 414.18,-100 414.18,-100"/>
<polygon fill="#4ecdc4" stroke="#4ecdc4" stroke-width="2" points="414.18,-102.8 422.18,-100 414.18,-97.2 414.18,-102.8"/>
</g>
<!-- final -->
<g id="node10" class="node">
<title>final</title>
<path fill="#442d44" stroke="#ff6b6b" d="M528.67,-36C528.67,-36 351.07,-36 351.07,-36 345.07,-36 339.07,-30 339.07,-24 339.07,-24 339.07,-12 339.07,-12 339.07,-6 345.07,0 351.07,0 351.07,0 528.67,0 528.67,0 534.67,0 540.67,-6 540.67,-12 540.67,-12 540.67,-24 540.67,-24 540.67,-30 534.67,-36 528.67,-36"/>
<text xml:space="preserve" text-anchor="middle" x="439.88" y="-12.4" font-family="Helvetica,sans-Serif" font-size="13.00" fill="white">Final Hit Chance (%)</text>
</g>
<!-- mult2&#45;&gt;final -->
<g id="edge9" class="edge">
<title>mult2&#45;&gt;final</title>
<path fill="none" stroke="#4ecdc4" stroke-width="2" d="M439.88,-85.67C439.88,-85.67 439.88,-47.38 439.88,-47.38"/>
<polygon fill="#4ecdc4" stroke="#4ecdc4" stroke-width="2" points="442.68,-47.38 439.88,-39.38 437.08,-47.38 442.68,-47.38"/>
</g>
</g>
</svg>
