<?xml version="1.0" encoding="UTF-8" standalone="no"?>
<!DOCTYPE svg PUBLIC "-//W3C//DTD SVG 1.1//EN"
 "http://www.w3.org/Graphics/SVG/1.1/DTD/svg11.dtd">
<!-- Generated by graphviz version 14.1.2 (20260124.0452)
 -->
<!-- Title: CombatTurnSequence Pages: 1 -->
<svg width="255pt" height="766pt"
 viewBox="0.00 0.00 255.00 766.00" xmlns="http://www.w3.org/2000/svg" xmlns:xlink="http://www.w3.org/1999/xlink">
<g id="graph0" class="graph" transform="scale(1 1) rotate(0) translate(4 761.7)">
<title>CombatTurnSequence</title>
<polygon fill="#1a1a2e" stroke="none" points="-4,4 -4,-761.7 251,-761.7 251,4 -4,4"/>
<!-- title -->
<g id="node1" class="node">
<title>title</title>
<path fill="none" stroke="none" d="M225.62,-757.7C225.62,-757.7 21.37,-757.7 21.37,-757.7 15.38,-757.7 9.37,-751.7 9.37,-745.7 9.37,-745.7 9.37,-726.5 9.37,-726.5 9.37,-720.5 15.37,-714.5 21.37,-714.5 21.37,-714.5 225.62,-714.5 225.62,-714.5 231.62,-714.5 237.62,-720.5 237.62,-726.5 237.62,-726.5 237.62,-745.7 237.62,-745.7 237.62,-751.7 231.62,-757.7 225.62,-757.7"/>
<text xml:space="preserve" text-anchor="middle" x="123.5" y="-737.4" font-family="Helvetica,sans-Serif" font-size="16.00" fill="#ffe66d">Combat Sub&#45;Pulse Sequence</text>
<text xml:space="preserve" text-anchor="middle" x="123.5" y="-720.9" font-family="Helvetica,sans-Serif" font-size="16.00" fill="#ffe66d">(5&#45;second intervals)</text>
</g>
<!-- step1 -->
<g id="node2" class="node">
<title>step1</title>
<path fill="#2d2d44" stroke="#4ecdc4" d="M235,-656.5C235,-656.5 12,-656.5 12,-656.5 6,-656.5 0,-650.5 0,-644.5 0,-644.5 0,-625.3 0,-625.3 0,-619.3 6,-613.3 12,-613.3 12,-613.3 235,-613.3 235,-613.3 241,-613.3 247,-619.3 247,-625.3 247,-625.3 247,-644.5 247,-644.5 247,-650.5 241,-656.5 235,-656.5"/>
<text xml:space="preserve" text-anchor="middle" x="123.5" y="-636.25" font-family="Helvetica,sans-Serif" font-size="12.00" fill="white">1. Movement Phase</text>
<text xml:space="preserve" text-anchor="middle" x="123.5" y="-623.5" font-family="Helvetica,sans-Serif" font-size="12.00" fill="white">All ships and missiles move simultaneously</text>
</g>
<!-- title&#45;&gt;step1 -->
<!-- step2 -->
<g id="node3" class="node">
<title>step2</title>
<path fill="#2d2d44" stroke="#4ecdc4" d="M206.12,-555.3C206.12,-555.3 40.88,-555.3 40.88,-555.3 34.88,-555.3 28.88,-549.3 28.88,-543.3 28.88,-543.3 28.88,-524.1 28.88,-524.1 28.88,-518.1 34.88,-512.1 40.88,-512.1 40.88,-512.1 206.12,-512.1 206.12,-512.1 212.12,-512.1 218.12,-518.1 218.12,-524.1 218.12,-524.1 218.12,-543.3 218.12,-543.3 218.12,-549.3 212.12,-555.3 206.12,-555.3"/>
<text xml:space="preserve" text-anchor="middle" x="123.5" y="-535.05" font-family="Helvetica,sans-Serif" font-size="12.00" fill="white">2. Fire Control Assignment</text>
<text xml:space="preserve" text-anchor="middle" x="123.5" y="-522.3" font-family="Helvetica,sans-Serif" font-size="12.00" fill="white">Weapons verify assigned targets</text>
</g>
<!-- step1&#45;&gt;step2 -->
<g id="edge2" class="edge">
<title>step1&#45;&gt;step2</title>
<path fill="none" stroke="#4ecdc4" stroke-width="2" d="M123.5,-612.94C123.5,-612.94 123.5,-566.64 123.5,-566.64"/>
<polygon fill="#4ecdc4" stroke="#4ecdc4" stroke-width="2" points="126.3,-566.64 123.5,-558.64 120.7,-566.64 126.3,-566.64"/>
</g>
<!-- step3 -->
<g id="node4" class="node">
<title>step3</title>
<path fill="#2d4444" stroke="#95d5b2" d="M227.88,-454.1C227.88,-454.1 19.12,-454.1 19.12,-454.1 13.13,-454.1 7.12,-448.1 7.12,-442.1 7.12,-442.1 7.12,-419.85 7.12,-419.85 7.12,-413.85 13.12,-407.85 19.12,-407.85 19.12,-407.85 227.88,-407.85 227.88,-407.85 233.88,-407.85 239.88,-413.85 239.88,-419.85 239.88,-419.85 239.88,-442.1 239.88,-442.1 239.88,-448.1 233.88,-454.1 227.88,-454.1"/>
<text xml:space="preserve" text-anchor="middle" x="123.5" y="-438.7" font-family="Helvetica,sans-Serif" font-size="12.00" fill="white">3. Point Defense Phase</text>
<text xml:space="preserve" text-anchor="middle" x="123.5" y="-425.95" font-family="Helvetica,sans-Serif" font-size="12.00" fill="white">CIWS and PD weapons engage missiles</text>
<text xml:space="preserve" text-anchor="middle" x="123.5" y="-413.2" font-family="Helvetica,sans-Serif" font-size="12.00" fill="white">(Final Fire mode)</text>
</g>
<!-- step2&#45;&gt;step3 -->
<g id="edge3" class="edge">
<title>step2&#45;&gt;step3</title>
<path fill="none" stroke="#4ecdc4" stroke-width="2" d="M123.5,-511.66C123.5,-511.66 123.5,-465.43 123.5,-465.43"/>
<polygon fill="#4ecdc4" stroke="#4ecdc4" stroke-width="2" points="126.3,-465.43 123.5,-457.43 120.7,-465.43 126.3,-465.43"/>
</g>
<!-- step4 -->
<g id="node5" class="node">
<title>step4</title>
<path fill="#442d2d" stroke="#ff6b6b" d="M222.62,-349.85C222.62,-349.85 24.38,-349.85 24.38,-349.85 18.37,-349.85 12.38,-343.85 12.38,-337.85 12.38,-337.85 12.38,-318.65 12.38,-318.65 12.38,-312.65 18.38,-306.65 24.38,-306.65 24.38,-306.65 222.62,-306.65 222.62,-306.65 228.62,-306.65 234.62,-312.65 234.62,-318.65 234.62,-318.65 234.62,-337.85 234.62,-337.85 234.62,-343.85 228.62,-349.85 222.62,-349.85"/>
<text xml:space="preserve" text-anchor="middle" x="123.5" y="-329.6" font-family="Helvetica,sans-Serif" font-size="12.00" fill="white">4. Beam Weapon Fire</text>
<text xml:space="preserve" text-anchor="middle" x="123.5" y="-316.85" font-family="Helvetica,sans-Serif" font-size="12.00" fill="white">Beam weapons fire at assigned targets</text>
</g>
<!-- step3&#45;&gt;step4 -->
<g id="edge4" class="edge">
<title>step3&#45;&gt;step4</title>
<path fill="none" stroke="#4ecdc4" stroke-width="2" d="M123.5,-407.41C123.5,-407.41 123.5,-361.33 123.5,-361.33"/>
<polygon fill="#4ecdc4" stroke="#4ecdc4" stroke-width="2" points="126.3,-361.33 123.5,-353.33 120.7,-361.33 126.3,-361.33"/>
</g>
<!-- step5 -->
<g id="node6" class="node">
<title>step5</title>
<path fill="#442d2d" stroke="#ff6b6b" d="M214,-248.65C214,-248.65 33,-248.65 33,-248.65 27,-248.65 21,-242.65 21,-236.65 21,-236.65 21,-217.45 21,-217.45 21,-211.45 27,-205.45 33,-205.45 33,-205.45 214,-205.45 214,-205.45 220,-205.45 226,-211.45 226,-217.45 226,-217.45 226,-236.65 226,-236.65 226,-242.65 220,-248.65 214,-248.65"/>
<text xml:space="preserve" text-anchor="middle" x="123.5" y="-228.4" font-family="Helvetica,sans-Serif" font-size="12.00" fill="white">5. Missile Launch</text>
<text xml:space="preserve" text-anchor="middle" x="123.5" y="-215.65" font-family="Helvetica,sans-Serif" font-size="12.00" fill="white">Missile launchers release ordnance</text>
</g>
<!-- step4&#45;&gt;step5 -->
<g id="edge5" class="edge">
<title>step4&#45;&gt;step5</title>
<path fill="none" stroke="#4ecdc4" stroke-width="2" d="M123.5,-306.29C123.5,-306.29 123.5,-259.99 123.5,-259.99"/>
<polygon fill="#4ecdc4" stroke="#4ecdc4" stroke-width="2" points="126.3,-259.99 123.5,-251.99 120.7,-259.99 126.3,-259.99"/>
</g>
<!-- step6 -->
<g id="node7" class="node">
<title>step6</title>
<path fill="#2d2d44" stroke="#4ecdc4" d="M201.62,-147.45C201.62,-147.45 45.37,-147.45 45.37,-147.45 39.38,-147.45 33.38,-141.45 33.38,-135.45 33.38,-135.45 33.38,-116.25 33.38,-116.25 33.38,-110.25 39.38,-104.25 45.38,-104.25 45.38,-104.25 201.62,-104.25 201.62,-104.25 207.62,-104.25 213.62,-110.25 213.62,-116.25 213.62,-116.25 213.62,-135.45 213.62,-135.45 213.62,-141.45 207.62,-147.45 201.62,-147.45"/>
<text xml:space="preserve" text-anchor="middle" x="123.5" y="-127.2" font-family="Helvetica,sans-Serif" font-size="12.00" fill="white">6. Missile Tracking</text>
<text xml:space="preserve" text-anchor="middle" x="123.5" y="-114.45" font-family="Helvetica,sans-Serif" font-size="12.00" fill="white">Active missiles update tracking</text>
</g>
<!-- step5&#45;&gt;step6 -->
<g id="edge6" class="edge">
<title>step5&#45;&gt;step6</title>
<path fill="none" stroke="#4ecdc4" stroke-width="2" d="M123.5,-205.09C123.5,-205.09 123.5,-158.79 123.5,-158.79"/>
<polygon fill="#4ecdc4" stroke="#4ecdc4" stroke-width="2" points="126.3,-158.79 123.5,-150.79 120.7,-158.79 126.3,-158.79"/>
</g>
<!-- step7 -->
<g id="node8" class="node">
<title>step7</title>
<path fill="#44442d" stroke="#ffe66d" d="M216.62,-46.25C216.62,-46.25 30.37,-46.25 30.37,-46.25 24.37,-46.25 18.38,-40.25 18.38,-34.25 18.38,-34.25 18.38,-12 18.38,-12 18.38,-6 24.38,0 30.38,0 30.38,0 216.62,0 216.62,0 222.62,0 228.62,-6 228.62,-12 228.62,-12 228.62,-34.25 228.62,-34.25 228.62,-40.25 222.62,-46.25 216.62,-46.25"/>
<text xml:space="preserve" text-anchor="middle" x="123.5" y="-30.85" font-family="Helvetica,sans-Serif" font-size="12.00" fill="white">7. Damage Resolution</text>
<text xml:space="preserve" text-anchor="middle" x="123.5" y="-18.1" font-family="Helvetica,sans-Serif" font-size="12.00" fill="white">Hits resolved, armor/shields reduced</text>
<text xml:space="preserve" text-anchor="middle" x="123.5" y="-5.35" font-family="Helvetica,sans-Serif" font-size="12.00" fill="white">Internal components checked</text>
</g>
<!-- step6&#45;&gt;step7 -->
<g id="edge7" class="edge">
<title>step6&#45;&gt;step7</title>
<path fill="none" stroke="#4ecdc4" stroke-width="2" d="M123.5,-103.81C123.5,-103.81 123.5,-57.58 123.5,-57.58"/>
<polygon fill="#4ecdc4" stroke="#4ecdc4" stroke-width="2" points="126.3,-57.58 123.5,-49.58 120.7,-57.58 126.3,-57.58"/>
</g>
<!-- step7&#45;&gt;step1 -->
<g id="edge8" class="edge">
<title>step7&#45;&gt;step1</title>
<path fill="none" stroke="#4ecdc4" stroke-width="2" stroke-dasharray="5,2" d="M228.73,-23C237.7,-23 243.44,-23 243.44,-23 243.44,-23 243.44,-602.1 243.44,-602.1"/>
<polygon fill="#4ecdc4" stroke="#4ecdc4" stroke-width="2" points="240.64,-602.1 243.44,-610.1 246.24,-602.1 240.64,-602.1"/>
<text xml:space="preserve" text-anchor="middle" x="220.94" y="-295.69" font-family="Helvetica,sans-Serif" font-size="10.00" fill="#ffe66d">Next</text>
<text xml:space="preserve" text-anchor="middle" x="220.94" y="-284.44" font-family="Helvetica,sans-Serif" font-size="10.00" fill="#ffe66d">Sub&#45;Pulse</text>
</g>
</g>
</svg>
