<?xml version="1.0" encoding="UTF-8" standalone="no"?>
<!DOCTYPE svg PUBLIC "-//W3C//DTD SVG 1.1//EN"
 "http://www.w3.org/Graphics/SVG/1.1/DTD/svg11.dtd">
<!-- Generated by graphviz version 14.1.2 (20260124.0452)
 -->
<!-- Title: ProductionFormula Pages: 1 -->
<svg width="801pt" height="600pt"
 viewBox="0.00 0.00 801.00 600.00" xmlns="http://www.w3.org/2000/svg" xmlns:xlink="http://www.w3.org/1999/xlink">
<g id="graph0" class="graph" transform="scale(1 1) rotate(0) translate(4 596)">
<title>ProductionFormula</title>
<polygon fill="#1a1a2e" stroke="none" points="-4,4 -4,-596 797.1,-596 797.1,4 -4,4"/>
<g id="clust1" class="cluster">
<title>cluster_construction</title>
<polygon fill="#1a1a2e" stroke="#4ecdc4" stroke-dasharray="5,2" points="202.88,-8 202.88,-146 785.1,-146 785.1,-8 202.88,-8"/>
<text xml:space="preserve" text-anchor="middle" x="285.88" y="-130.6" font-family="Helvetica,sans-Serif" font-size="12.00" fill="#ffe66d">Construction Rate (BP/Year)</text>
</g>
<g id="clust2" class="cluster">
<title>cluster_mining</title>
<polygon fill="#1a1a2e" stroke="#4ecdc4" stroke-dasharray="5,2" points="37.75,-154 37.75,-292 588,-292 588,-154 37.75,-154"/>
<text xml:space="preserve" text-anchor="middle" x="123.75" y="-276.6" font-family="Helvetica,sans-Serif" font-size="12.00" fill="#ffe66d">Mining Production (tons/year)</text>
</g>
<g id="clust3" class="cluster">
<title>cluster_fuel</title>
<polygon fill="#1a1a2e" stroke="#4ecdc4" stroke-dasharray="5,2" points="23.88,-300 23.88,-438 576.38,-438 576.38,-300 23.88,-300"/>
<text xml:space="preserve" text-anchor="middle" x="105.38" y="-422.6" font-family="Helvetica,sans-Serif" font-size="12.00" fill="#ffe66d">Fuel Production (litres/year)</text>
</g>
<g id="clust4" class="cluster">
<title>cluster_research</title>
<polygon fill="#1a1a2e" stroke="#4ecdc4" stroke-dasharray="5,2" points="31.38,-446 31.38,-584 573.75,-584 573.75,-446 31.38,-446"/>
<text xml:space="preserve" text-anchor="middle" x="110.62" y="-568.6" font-family="Helvetica,sans-Serif" font-size="12.00" fill="#ffe66d">Research Points (RP/year)</text>
</g>
<!-- title -->
<g id="node1" class="node">
<title>title</title>
<path fill="none" stroke="none" d="M153.25,-52C153.25,-52 12,-52 12,-52 6,-52 0,-46 0,-40 0,-40 0,-28 0,-28 0,-22 6,-16 12,-16 12,-16 153.25,-16 153.25,-16 159.25,-16 165.25,-22 165.25,-28 165.25,-28 165.25,-40 165.25,-40 165.25,-46 159.25,-52 153.25,-52"/>
<text xml:space="preserve" text-anchor="middle" x="82.62" y="-27.05" font-family="Helvetica,sans-Serif" font-size="16.00" fill="#ffe66d">Production Formulas</text>
</g>
<!-- c_factories -->
<g id="node2" class="node">
<title>c_factories</title>
<path fill="#2d3d44" stroke="#95d5b2" d="M274.88,-52C274.88,-52 231.88,-52 231.88,-52 225.88,-52 219.88,-46 219.88,-40 219.88,-40 219.88,-28 219.88,-28 219.88,-22 225.88,-16 231.88,-16 231.88,-16 274.88,-16 274.88,-16 280.88,-16 286.88,-22 286.88,-28 286.88,-28 286.88,-40 286.88,-40 286.88,-46 280.88,-52 274.88,-52"/>
<text xml:space="preserve" text-anchor="middle" x="253.38" y="-35.55" font-family="Helvetica,sans-Serif" font-size="11.00" fill="white">Number of</text>
<text xml:space="preserve" text-anchor="middle" x="253.38" y="-23.55" font-family="Helvetica,sans-Serif" font-size="11.00" fill="white">Factories</text>
</g>
<!-- title&#45;&gt;c_factories -->
<!-- c_mult1 -->
<g id="node7" class="node">
<title>c_mult1</title>
<ellipse fill="#4ecdc4" stroke="#4ecdc4" cx="392.62" cy="-35" rx="10.8" ry="10.8"/>
<text xml:space="preserve" text-anchor="middle" x="392.62" y="-30.55" font-family="Helvetica,sans-Serif" font-size="11.00" fill="#1a1a2e">x</text>
</g>
<!-- c_factories&#45;&gt;c_mult1 -->
<g id="edge1" class="edge">
<title>c_factories&#45;&gt;c_mult1</title>
<path fill="none" stroke="#4ecdc4" stroke-width="2" d="M287.08,-31.4C287.08,-31.4 370.9,-31.4 370.9,-31.4"/>
<polygon fill="#4ecdc4" stroke="#4ecdc4" stroke-width="2" points="370.9,-34.2 378.9,-31.4 370.9,-28.6 370.9,-34.2"/>
</g>
<!-- c_base -->
<g id="node3" class="node">
<title>c_base</title>
<path fill="#2d3d44" stroke="#95d5b2" d="M283.88,-117C283.88,-117 222.88,-117 222.88,-117 216.88,-117 210.88,-111 210.88,-105 210.88,-105 210.88,-93 210.88,-93 210.88,-87 216.88,-81 222.88,-81 222.88,-81 283.88,-81 283.88,-81 289.88,-81 295.88,-87 295.88,-93 295.88,-93 295.88,-105 295.88,-105 295.88,-111 289.88,-117 283.88,-117"/>
<text xml:space="preserve" text-anchor="middle" x="253.38" y="-100.55" font-family="Helvetica,sans-Serif" font-size="11.00" fill="white">10 BP/Factory</text>
<text xml:space="preserve" text-anchor="middle" x="253.38" y="-88.55" font-family="Helvetica,sans-Serif" font-size="11.00" fill="white">(base)</text>
</g>
<!-- c_base&#45;&gt;c_mult1 -->
<g id="edge2" class="edge">
<title>c_base&#45;&gt;c_mult1</title>
<path fill="none" stroke="#4ecdc4" stroke-width="2" d="M291.1,-80.55C291.1,-62.79 291.1,-38.6 291.1,-38.6 291.1,-38.6 371.12,-38.6 371.12,-38.6"/>
<polygon fill="#4ecdc4" stroke="#4ecdc4" stroke-width="2" points="371.12,-41.4 379.12,-38.6 371.12,-35.8 371.12,-41.4"/>
</g>
<!-- c_governor -->
<g id="node4" class="node">
<title>c_governor</title>
<path fill="#44442d" stroke="#ffe66d" d="M431.75,-111C431.75,-111 353.5,-111 353.5,-111 347.5,-111 341.5,-105 341.5,-99 341.5,-99 341.5,-87 341.5,-87 341.5,-81 347.5,-75 353.5,-75 353.5,-75 431.75,-75 431.75,-75 437.75,-75 443.75,-81 443.75,-87 443.75,-87 443.75,-99 443.75,-99 443.75,-105 437.75,-111 431.75,-111"/>
<text xml:space="preserve" text-anchor="middle" x="392.62" y="-94.55" font-family="Helvetica,sans-Serif" font-size="11.00" fill="white">Governor Bonus</text>
<text xml:space="preserve" text-anchor="middle" x="392.62" y="-82.55" font-family="Helvetica,sans-Serif" font-size="11.00" fill="white">1 + (Prod% / 100)</text>
</g>
<!-- c_mult2 -->
<g id="node8" class="node">
<title>c_mult2</title>
<ellipse fill="#4ecdc4" stroke="#4ecdc4" cx="537.5" cy="-37" rx="10.8" ry="10.8"/>
<text xml:space="preserve" text-anchor="middle" x="537.5" y="-32.55" font-family="Helvetica,sans-Serif" font-size="11.00" fill="#1a1a2e">x</text>
</g>
<!-- c_governor&#45;&gt;c_mult2 -->
<g id="edge4" class="edge">
<title>c_governor&#45;&gt;c_mult2</title>
<path fill="none" stroke="#4ecdc4" stroke-width="2" d="M423.1,-74.51C423.1,-58.96 423.1,-39.27 423.1,-39.27 423.1,-39.27 515.5,-39.27 515.5,-39.27"/>
<polygon fill="#4ecdc4" stroke="#4ecdc4" stroke-width="2" points="515.5,-42.07 523.5,-39.27 515.5,-36.47 515.5,-42.07"/>
</g>
<!-- c_sector -->
<g id="node5" class="node">
<title>c_sector</title>
<path fill="#44442d" stroke="#ffe66d" d="M576.25,-113C576.25,-113 498.75,-113 498.75,-113 492.75,-113 486.75,-107 486.75,-101 486.75,-101 486.75,-89 486.75,-89 486.75,-83 492.75,-77 498.75,-77 498.75,-77 576.25,-77 576.25,-77 582.25,-77 588.25,-83 588.25,-89 588.25,-89 588.25,-101 588.25,-101 588.25,-107 582.25,-113 576.25,-113"/>
<text xml:space="preserve" text-anchor="middle" x="537.5" y="-96.55" font-family="Helvetica,sans-Serif" font-size="11.00" fill="white">Sector Bonus</text>
<text xml:space="preserve" text-anchor="middle" x="537.5" y="-84.55" font-family="Helvetica,sans-Serif" font-size="11.00" fill="white">Gov Bonus x 0.25</text>
</g>
<!-- c_mult3 -->
<g id="node9" class="node">
<title>c_mult3</title>
<ellipse fill="#4ecdc4" stroke="#4ecdc4" cx="642.05" cy="-37" rx="10.8" ry="10.8"/>
<text xml:space="preserve" text-anchor="middle" x="642.05" y="-32.55" font-family="Helvetica,sans-Serif" font-size="11.00" fill="#1a1a2e">x</text>
</g>
<!-- c_sector&#45;&gt;c_mult3 -->
<g id="edge6" class="edge">
<title>c_sector&#45;&gt;c_mult3</title>
<path fill="none" stroke="#4ecdc4" stroke-width="2" d="M588.57,-95C615.13,-95 642.1,-95 642.1,-95 642.1,-95 642.1,-59.21 642.1,-59.21"/>
<polygon fill="#4ecdc4" stroke="#4ecdc4" stroke-width="2" points="644.9,-59.21 642.1,-51.21 639.3,-59.21 644.9,-59.21"/>
</g>
<!-- c_result -->
<g id="node6" class="node">
<title>c_result</title>
<path fill="#442d44" stroke="#ff6b6b" d="M765.1,-55C765.1,-55 707.85,-55 707.85,-55 701.85,-55 695.85,-49 695.85,-43 695.85,-43 695.85,-31 695.85,-31 695.85,-25 701.85,-19 707.85,-19 707.85,-19 765.1,-19 765.1,-19 771.1,-19 777.1,-25 777.1,-31 777.1,-31 777.1,-43 777.1,-43 777.1,-49 771.1,-55 765.1,-55"/>
<text xml:space="preserve" text-anchor="middle" x="736.48" y="-32.55" font-family="Helvetica,sans-Serif" font-size="11.00" fill="white">Total BP/Year</text>
</g>
<!-- c_mult1&#45;&gt;c_mult2 -->
<g id="edge3" class="edge">
<title>c_mult1&#45;&gt;c_mult2</title>
<path fill="none" stroke="#4ecdc4" stroke-width="2" d="M403.51,-32.73C403.51,-32.73 516.24,-32.73 516.24,-32.73"/>
<polygon fill="#4ecdc4" stroke="#4ecdc4" stroke-width="2" points="516.24,-35.53 524.24,-32.73 516.24,-29.93 516.24,-35.53"/>
</g>
<!-- c_mult2&#45;&gt;c_mult3 -->
<g id="edge5" class="edge">
<title>c_mult2&#45;&gt;c_mult3</title>
<path fill="none" stroke="#4ecdc4" stroke-width="2" d="M548.69,-37C548.69,-37 619.91,-37 619.91,-37"/>
<polygon fill="#4ecdc4" stroke="#4ecdc4" stroke-width="2" points="619.91,-39.8 627.91,-37 619.91,-34.2 619.91,-39.8"/>
</g>
<!-- c_mult3&#45;&gt;c_result -->
<g id="edge7" class="edge">
<title>c_mult3&#45;&gt;c_result</title>
<path fill="none" stroke="#4ecdc4" stroke-width="2" d="M653.25,-37C653.25,-37 684.74,-37 684.74,-37"/>
<polygon fill="#4ecdc4" stroke="#4ecdc4" stroke-width="2" points="684.74,-39.8 692.74,-37 684.74,-34.2 684.74,-39.8"/>
</g>
<!-- m_mines -->
<g id="node10" class="node">
<title>m_mines</title>
<path fill="#2d3d44" stroke="#95d5b2" d="M104.12,-198C104.12,-198 61.12,-198 61.12,-198 55.12,-198 49.12,-192 49.12,-186 49.12,-186 49.12,-174 49.12,-174 49.12,-168 55.12,-162 61.12,-162 61.12,-162 104.12,-162 104.12,-162 110.12,-162 116.12,-168 116.12,-174 116.12,-174 116.12,-186 116.12,-186 116.12,-192 110.12,-198 104.12,-198"/>
<text xml:space="preserve" text-anchor="middle" x="82.62" y="-181.55" font-family="Helvetica,sans-Serif" font-size="11.00" fill="white">Number of</text>
<text xml:space="preserve" text-anchor="middle" x="82.62" y="-169.55" font-family="Helvetica,sans-Serif" font-size="11.00" fill="white">Mines</text>
</g>
<!-- m_mult1 -->
<g id="node14" class="node">
<title>m_mult1</title>
<ellipse fill="#4ecdc4" stroke="#4ecdc4" cx="253.38" cy="-183" rx="10.8" ry="10.8"/>
<text xml:space="preserve" text-anchor="middle" x="253.38" y="-178.55" font-family="Helvetica,sans-Serif" font-size="11.00" fill="#1a1a2e">x</text>
</g>
<!-- m_mines&#45;&gt;m_mult1 -->
<g id="edge8" class="edge">
<title>m_mines&#45;&gt;m_mult1</title>
<path fill="none" stroke="#4ecdc4" stroke-width="2" d="M116.36,-179.4C116.36,-179.4 231.87,-179.4 231.87,-179.4"/>
<polygon fill="#4ecdc4" stroke="#4ecdc4" stroke-width="2" points="231.87,-182.2 239.87,-179.4 231.87,-176.6 231.87,-182.2"/>
</g>
<!-- m_access -->
<g id="node11" class="node">
<title>m_access</title>
<path fill="#2d3d44" stroke="#95d5b2" d="M107.5,-263C107.5,-263 57.75,-263 57.75,-263 51.75,-263 45.75,-257 45.75,-251 45.75,-251 45.75,-239 45.75,-239 45.75,-233 51.75,-227 57.75,-227 57.75,-227 107.5,-227 107.5,-227 113.5,-227 119.5,-233 119.5,-239 119.5,-239 119.5,-251 119.5,-251 119.5,-257 113.5,-263 107.5,-263"/>
<text xml:space="preserve" text-anchor="middle" x="82.62" y="-246.55" font-family="Helvetica,sans-Serif" font-size="11.00" fill="white">Accessibility</text>
<text xml:space="preserve" text-anchor="middle" x="82.62" y="-234.55" font-family="Helvetica,sans-Serif" font-size="11.00" fill="white">(0.1 &#45; 1.0)</text>
</g>
<!-- m_access&#45;&gt;m_mult1 -->
<g id="edge9" class="edge">
<title>m_access&#45;&gt;m_mult1</title>
<path fill="none" stroke="#4ecdc4" stroke-width="2" d="M119.7,-243C125.22,-243 129.1,-243 129.1,-243 129.1,-243 129.1,-186.6 129.1,-186.6 129.1,-186.6 231.75,-186.6 231.75,-186.6"/>
<polygon fill="#4ecdc4" stroke="#4ecdc4" stroke-width="2" points="231.75,-189.4 239.75,-186.6 231.75,-183.8 231.75,-189.4"/>
</g>
<!-- m_tech -->
<g id="node12" class="node">
<title>m_tech</title>
<path fill="#44442d" stroke="#ffe66d" d="M281.25,-259C281.25,-259 225.5,-259 225.5,-259 219.5,-259 213.5,-253 213.5,-247 213.5,-247 213.5,-235 213.5,-235 213.5,-229 219.5,-223 225.5,-223 225.5,-223 281.25,-223 281.25,-223 287.25,-223 293.25,-229 293.25,-235 293.25,-235 293.25,-247 293.25,-247 293.25,-253 287.25,-259 281.25,-259"/>
<text xml:space="preserve" text-anchor="middle" x="253.38" y="-242.55" font-family="Helvetica,sans-Serif" font-size="11.00" fill="white">Tech Modifier</text>
<text xml:space="preserve" text-anchor="middle" x="253.38" y="-230.55" font-family="Helvetica,sans-Serif" font-size="11.00" fill="white">(base 1.0)</text>
</g>
<!-- m_mult2 -->
<g id="node15" class="node">
<title>m_mult2</title>
<ellipse fill="#4ecdc4" stroke="#4ecdc4" cx="392.62" cy="-209" rx="10.8" ry="10.8"/>
<text xml:space="preserve" text-anchor="middle" x="392.62" y="-204.55" font-family="Helvetica,sans-Serif" font-size="11.00" fill="#1a1a2e">x</text>
</g>
<!-- m_tech&#45;&gt;m_mult2 -->
<g id="edge11" class="edge">
<title>m_tech&#45;&gt;m_mult2</title>
<path fill="none" stroke="#4ecdc4" stroke-width="2" d="M279.1,-222.53C279.1,-217.11 279.1,-212.6 279.1,-212.6 279.1,-212.6 371.12,-212.6 371.12,-212.6"/>
<polygon fill="#4ecdc4" stroke="#4ecdc4" stroke-width="2" points="371.12,-215.4 379.12,-212.6 371.12,-209.8 371.12,-215.4"/>
</g>
<!-- m_result -->
<g id="node13" class="node">
<title>m_result</title>
<path fill="#442d44" stroke="#ff6b6b" d="M568,-227C568,-227 507,-227 507,-227 501,-227 495,-221 495,-215 495,-215 495,-203 495,-203 495,-197 501,-191 507,-191 507,-191 568,-191 568,-191 574,-191 580,-197 580,-203 580,-203 580,-215 580,-215 580,-221 574,-227 568,-227"/>
<text xml:space="preserve" text-anchor="middle" x="537.5" y="-204.55" font-family="Helvetica,sans-Serif" font-size="11.00" fill="white">Annual Output</text>
</g>
<!-- m_mult1&#45;&gt;m_mult2 -->
<g id="edge10" class="edge">
<title>m_mult1&#45;&gt;m_mult2</title>
<path fill="none" stroke="#4ecdc4" stroke-width="2" d="M253.1,-194.2C253.1,-199.8 253.1,-205.4 253.1,-205.4 253.1,-205.4 371.11,-205.4 371.11,-205.4"/>
<polygon fill="#4ecdc4" stroke="#4ecdc4" stroke-width="2" points="371.11,-208.2 379.11,-205.4 371.11,-202.6 371.11,-208.2"/>
</g>
<!-- m_mult2&#45;&gt;m_result -->
<g id="edge12" class="edge">
<title>m_mult2&#45;&gt;m_result</title>
<path fill="none" stroke="#4ecdc4" stroke-width="2" d="M403.51,-209C403.51,-209 483.51,-209 483.51,-209"/>
<polygon fill="#4ecdc4" stroke="#4ecdc4" stroke-width="2" points="483.51,-211.8 491.51,-209 483.51,-206.2 483.51,-211.8"/>
</g>
<!-- f_refineries -->
<g id="node16" class="node">
<title>f_refineries</title>
<path fill="#2d3d44" stroke="#95d5b2" d="M104.12,-344C104.12,-344 61.12,-344 61.12,-344 55.12,-344 49.12,-338 49.12,-332 49.12,-332 49.12,-320 49.12,-320 49.12,-314 55.12,-308 61.12,-308 61.12,-308 104.12,-308 104.12,-308 110.12,-308 116.12,-314 116.12,-320 116.12,-320 116.12,-332 116.12,-332 116.12,-338 110.12,-344 104.12,-344"/>
<text xml:space="preserve" text-anchor="middle" x="82.62" y="-327.55" font-family="Helvetica,sans-Serif" font-size="11.00" fill="white">Number of</text>
<text xml:space="preserve" text-anchor="middle" x="82.62" y="-315.55" font-family="Helvetica,sans-Serif" font-size="11.00" fill="white">Refineries</text>
</g>
<!-- f_mult1 -->
<g id="node20" class="node">
<title>f_mult1</title>
<ellipse fill="#4ecdc4" stroke="#4ecdc4" cx="253.38" cy="-329" rx="10.8" ry="10.8"/>
<text xml:space="preserve" text-anchor="middle" x="253.38" y="-324.55" font-family="Helvetica,sans-Serif" font-size="11.00" fill="#1a1a2e">x</text>
</g>
<!-- f_refineries&#45;&gt;f_mult1 -->
<g id="edge13" class="edge">
<title>f_refineries&#45;&gt;f_mult1</title>
<path fill="none" stroke="#4ecdc4" stroke-width="2" d="M116.36,-325.4C116.36,-325.4 231.87,-325.4 231.87,-325.4"/>
<polygon fill="#4ecdc4" stroke="#4ecdc4" stroke-width="2" points="231.87,-328.2 239.87,-325.4 231.87,-322.6 231.87,-328.2"/>
</g>
<!-- f_base -->
<g id="node17" class="node">
<title>f_base</title>
<path fill="#2d3d44" stroke="#95d5b2" d="M121.38,-409C121.38,-409 43.88,-409 43.88,-409 37.88,-409 31.88,-403 31.88,-397 31.88,-397 31.88,-385 31.88,-385 31.88,-379 37.88,-373 43.88,-373 43.88,-373 121.38,-373 121.38,-373 127.38,-373 133.38,-379 133.38,-385 133.38,-385 133.38,-397 133.38,-397 133.38,-403 127.38,-409 121.38,-409"/>
<text xml:space="preserve" text-anchor="middle" x="82.62" y="-392.55" font-family="Helvetica,sans-Serif" font-size="11.00" fill="white">40,000 L/Refinery</text>
<text xml:space="preserve" text-anchor="middle" x="82.62" y="-380.55" font-family="Helvetica,sans-Serif" font-size="11.00" fill="white">(base)</text>
</g>
<!-- f_base&#45;&gt;f_mult1 -->
<g id="edge14" class="edge">
<title>f_base&#45;&gt;f_mult1</title>
<path fill="none" stroke="#4ecdc4" stroke-width="2" d="M124.1,-372.52C124.1,-355.41 124.1,-332.6 124.1,-332.6 124.1,-332.6 231.77,-332.6 231.77,-332.6"/>
<polygon fill="#4ecdc4" stroke="#4ecdc4" stroke-width="2" points="231.77,-335.4 239.77,-332.6 231.77,-329.8 231.77,-335.4"/>
</g>
<!-- f_tech -->
<g id="node18" class="node">
<title>f_tech</title>
<path fill="#44442d" stroke="#ffe66d" d="M281.25,-405C281.25,-405 225.5,-405 225.5,-405 219.5,-405 213.5,-399 213.5,-393 213.5,-393 213.5,-381 213.5,-381 213.5,-375 219.5,-369 225.5,-369 225.5,-369 281.25,-369 281.25,-369 287.25,-369 293.25,-375 293.25,-381 293.25,-381 293.25,-393 293.25,-393 293.25,-399 287.25,-405 281.25,-405"/>
<text xml:space="preserve" text-anchor="middle" x="253.38" y="-382.55" font-family="Helvetica,sans-Serif" font-size="11.00" fill="white">Tech Modifier</text>
</g>
<!-- f_mult2 -->
<g id="node21" class="node">
<title>f_mult2</title>
<ellipse fill="#4ecdc4" stroke="#4ecdc4" cx="392.62" cy="-355" rx="10.8" ry="10.8"/>
<text xml:space="preserve" text-anchor="middle" x="392.62" y="-350.55" font-family="Helvetica,sans-Serif" font-size="11.00" fill="#1a1a2e">x</text>
</g>
<!-- f_tech&#45;&gt;f_mult2 -->
<g id="edge16" class="edge">
<title>f_tech&#45;&gt;f_mult2</title>
<path fill="none" stroke="#4ecdc4" stroke-width="2" d="M279.1,-368.53C279.1,-363.11 279.1,-358.6 279.1,-358.6 279.1,-358.6 371.12,-358.6 371.12,-358.6"/>
<polygon fill="#4ecdc4" stroke="#4ecdc4" stroke-width="2" points="371.12,-361.4 379.12,-358.6 371.12,-355.8 371.12,-361.4"/>
</g>
<!-- f_result -->
<g id="node19" class="node">
<title>f_result</title>
<path fill="#442d44" stroke="#ff6b6b" d="M556.38,-373C556.38,-373 518.62,-373 518.62,-373 512.62,-373 506.62,-367 506.62,-361 506.62,-361 506.62,-349 506.62,-349 506.62,-343 512.62,-337 518.62,-337 518.62,-337 556.38,-337 556.38,-337 562.38,-337 568.38,-343 568.38,-349 568.38,-349 568.38,-361 568.38,-361 568.38,-367 562.38,-373 556.38,-373"/>
<text xml:space="preserve" text-anchor="middle" x="537.5" y="-350.55" font-family="Helvetica,sans-Serif" font-size="11.00" fill="white">Fuel/Year</text>
</g>
<!-- f_mult1&#45;&gt;f_mult2 -->
<g id="edge15" class="edge">
<title>f_mult1&#45;&gt;f_mult2</title>
<path fill="none" stroke="#4ecdc4" stroke-width="2" d="M253.1,-340.2C253.1,-345.8 253.1,-351.4 253.1,-351.4 253.1,-351.4 371.11,-351.4 371.11,-351.4"/>
<polygon fill="#4ecdc4" stroke="#4ecdc4" stroke-width="2" points="371.11,-354.2 379.11,-351.4 371.11,-348.6 371.11,-354.2"/>
</g>
<!-- f_mult2&#45;&gt;f_result -->
<g id="edge17" class="edge">
<title>f_mult2&#45;&gt;f_result</title>
<path fill="none" stroke="#4ecdc4" stroke-width="2" d="M403.51,-355C403.51,-355 495.36,-355 495.36,-355"/>
<polygon fill="#4ecdc4" stroke="#4ecdc4" stroke-width="2" points="495.36,-357.8 503.36,-355 495.36,-352.2 495.36,-357.8"/>
</g>
<!-- r_labs -->
<g id="node22" class="node">
<title>r_labs</title>
<path fill="#2d3d44" stroke="#95d5b2" d="M104.12,-490C104.12,-490 61.12,-490 61.12,-490 55.12,-490 49.12,-484 49.12,-478 49.12,-478 49.12,-466 49.12,-466 49.12,-460 55.12,-454 61.12,-454 61.12,-454 104.12,-454 104.12,-454 110.12,-454 116.12,-460 116.12,-466 116.12,-466 116.12,-478 116.12,-478 116.12,-484 110.12,-490 104.12,-490"/>
<text xml:space="preserve" text-anchor="middle" x="82.62" y="-473.55" font-family="Helvetica,sans-Serif" font-size="11.00" fill="white">Number of</text>
<text xml:space="preserve" text-anchor="middle" x="82.62" y="-461.55" font-family="Helvetica,sans-Serif" font-size="11.00" fill="white">Labs</text>
</g>
<!-- r_mult1 -->
<g id="node26" class="node">
<title>r_mult1</title>
<ellipse fill="#4ecdc4" stroke="#4ecdc4" cx="253.38" cy="-475" rx="10.8" ry="10.8"/>
<text xml:space="preserve" text-anchor="middle" x="253.38" y="-470.55" font-family="Helvetica,sans-Serif" font-size="11.00" fill="#1a1a2e">x</text>
</g>
<!-- r_labs&#45;&gt;r_mult1 -->
<g id="edge18" class="edge">
<title>r_labs&#45;&gt;r_mult1</title>
<path fill="none" stroke="#4ecdc4" stroke-width="2" d="M116.36,-471.4C116.36,-471.4 231.87,-471.4 231.87,-471.4"/>
<polygon fill="#4ecdc4" stroke="#4ecdc4" stroke-width="2" points="231.87,-474.2 239.87,-471.4 231.87,-468.6 231.87,-474.2"/>
</g>
<!-- r_base -->
<g id="node23" class="node">
<title>r_base</title>
<path fill="#2d3d44" stroke="#95d5b2" d="M113.88,-555C113.88,-555 51.37,-555 51.37,-555 45.38,-555 39.38,-549 39.38,-543 39.38,-543 39.38,-531 39.38,-531 39.38,-525 45.38,-519 51.38,-519 51.38,-519 113.88,-519 113.88,-519 119.88,-519 125.88,-525 125.88,-531 125.88,-531 125.88,-543 125.88,-543 125.88,-549 119.88,-555 113.88,-555"/>
<text xml:space="preserve" text-anchor="middle" x="82.62" y="-538.55" font-family="Helvetica,sans-Serif" font-size="11.00" fill="white">Lab Output</text>
<text xml:space="preserve" text-anchor="middle" x="82.62" y="-526.55" font-family="Helvetica,sans-Serif" font-size="11.00" fill="white">(240 RP base)</text>
</g>
<!-- r_base&#45;&gt;r_mult1 -->
<g id="edge19" class="edge">
<title>r_base&#45;&gt;r_mult1</title>
<path fill="none" stroke="#4ecdc4" stroke-width="2" d="M121.1,-518.52C121.1,-501.41 121.1,-478.6 121.1,-478.6 121.1,-478.6 231.97,-478.6 231.97,-478.6"/>
<polygon fill="#4ecdc4" stroke="#4ecdc4" stroke-width="2" points="231.97,-481.4 239.97,-478.6 231.97,-475.8 231.97,-481.4"/>
</g>
<!-- r_scientist -->
<g id="node24" class="node">
<title>r_scientist</title>
<path fill="#44442d" stroke="#ffe66d" d="M286.5,-551C286.5,-551 220.25,-551 220.25,-551 214.25,-551 208.25,-545 208.25,-539 208.25,-539 208.25,-527 208.25,-527 208.25,-521 214.25,-515 220.25,-515 220.25,-515 286.5,-515 286.5,-515 292.5,-515 298.5,-521 298.5,-527 298.5,-527 298.5,-539 298.5,-539 298.5,-545 292.5,-551 286.5,-551"/>
<text xml:space="preserve" text-anchor="middle" x="253.38" y="-534.55" font-family="Helvetica,sans-Serif" font-size="11.00" fill="white">Scientist Bonus</text>
<text xml:space="preserve" text-anchor="middle" x="253.38" y="-522.55" font-family="Helvetica,sans-Serif" font-size="11.00" fill="white">(4x if in&#45;field)</text>
</g>
<!-- r_mult2 -->
<g id="node27" class="node">
<title>r_mult2</title>
<ellipse fill="#4ecdc4" stroke="#4ecdc4" cx="392.62" cy="-501" rx="10.8" ry="10.8"/>
<text xml:space="preserve" text-anchor="middle" x="392.62" y="-496.55" font-family="Helvetica,sans-Serif" font-size="11.00" fill="#1a1a2e">x</text>
</g>
<!-- r_scientist&#45;&gt;r_mult2 -->
<g id="edge21" class="edge">
<title>r_scientist&#45;&gt;r_mult2</title>
<path fill="none" stroke="#4ecdc4" stroke-width="2" d="M279.1,-514.53C279.1,-509.11 279.1,-504.6 279.1,-504.6 279.1,-504.6 371.12,-504.6 371.12,-504.6"/>
<polygon fill="#4ecdc4" stroke="#4ecdc4" stroke-width="2" points="371.12,-507.4 379.12,-504.6 371.12,-501.8 371.12,-507.4"/>
</g>
<!-- r_result -->
<g id="node25" class="node">
<title>r_result</title>
<path fill="#442d44" stroke="#ff6b6b" d="M553.75,-519C553.75,-519 521.25,-519 521.25,-519 515.25,-519 509.25,-513 509.25,-507 509.25,-507 509.25,-495 509.25,-495 509.25,-489 515.25,-483 521.25,-483 521.25,-483 553.75,-483 553.75,-483 559.75,-483 565.75,-489 565.75,-495 565.75,-495 565.75,-507 565.75,-507 565.75,-513 559.75,-519 553.75,-519"/>
<text xml:space="preserve" text-anchor="middle" x="537.5" y="-496.55" font-family="Helvetica,sans-Serif" font-size="11.00" fill="white">RP/Year</text>
</g>
<!-- r_mult1&#45;&gt;r_mult2 -->
<g id="edge20" class="edge">
<title>r_mult1&#45;&gt;r_mult2</title>
<path fill="none" stroke="#4ecdc4" stroke-width="2" d="M253.1,-486.2C253.1,-491.8 253.1,-497.4 253.1,-497.4 253.1,-497.4 371.11,-497.4 371.11,-497.4"/>
<polygon fill="#4ecdc4" stroke="#4ecdc4" stroke-width="2" points="371.11,-500.2 379.11,-497.4 371.11,-494.6 371.11,-500.2"/>
</g>
<!-- r_mult2&#45;&gt;r_result -->
<g id="edge22" class="edge">
<title>r_mult2&#45;&gt;r_result</title>
<path fill="none" stroke="#4ecdc4" stroke-width="2" d="M403.51,-501C403.51,-501 497.99,-501 497.99,-501"/>
<polygon fill="#4ecdc4" stroke="#4ecdc4" stroke-width="2" points="497.99,-503.8 505.99,-501 497.99,-498.2 497.99,-503.8"/>
</g>
</g>
</svg>
