<?xml version="1.0" encoding="UTF-8" standalone="no"?>
<!DOCTYPE svg PUBLIC "-//W3C//DTD SVG 1.1//EN"
 "http://www.w3.org/Graphics/SVG/1.1/DTD/svg11.dtd">
<!-- Generated by graphviz version 14.1.2 (20260124.0452)
 -->
<!-- Title: survey_mechanics Pages: 1 -->
<svg width="622pt" height="949pt"
 viewBox="0.00 0.00 622.00 949.00" xmlns="http://www.w3.org/2000/svg" xmlns:xlink="http://www.w3.org/1999/xlink">
<g id="graph0" class="graph" transform="scale(1 1) rotate(0) translate(4 944.5)">
<title>survey_mechanics</title>
<polygon fill="#1a1a2e" stroke="none" points="-4,4 -4,-944.5 617.75,-944.5 617.75,4 -4,4"/>
<text xml:space="preserve" text-anchor="start" x="151.62" y="-922.3" font-family="Helvetica,sans-Serif" font-weight="bold" font-size="16.00" fill="white">Survey Mechanics: Points to Completion</text>
<g id="clust1" class="cluster">
<title>cluster_target</title>
<polygon fill="#1a1a2e" stroke="#4ecdc4" points="34.12,-534 34.12,-825 140.12,-825 140.12,-534 34.12,-534"/>
<text xml:space="preserve" text-anchor="start" x="42.12" y="-808.7" font-family="Helvetica,sans-Serif" font-weight="bold" font-size="14.00" fill="#95d5b2">Survey Target</text>
</g>
<g id="clust2" class="cluster">
<title>cluster_generation</title>
<polygon fill="#1a1a2e" stroke="#4ecdc4" points="0,-235 0,-526 174.25,-526 174.25,-235 0,-235"/>
<text xml:space="preserve" text-anchor="start" x="8" y="-509.7" font-family="Helvetica,sans-Serif" font-weight="bold" font-size="14.00" fill="#95d5b2">Survey Point Generation</text>
</g>
<g id="clust3" class="cluster">
<title>cluster_multipliers</title>
<polygon fill="#1a1a2e" stroke="#ffe66d" points="18.12,-8 18.12,-227 155.12,-227 155.12,-8 18.12,-8"/>
<text xml:space="preserve" text-anchor="start" x="30.38" y="-210.7" font-family="Helvetica,sans-Serif" font-weight="bold" font-size="14.00" fill="#ffe66d">Speed Multipliers</text>
</g>
<g id="clust5" class="cluster">
<title>cluster_example</title>
<polygon fill="#1a1a2e" stroke="#ff6b6b" points="35,-833 35,-908 605.75,-908 605.75,-833 35,-833"/>
<text xml:space="preserve" text-anchor="start" x="248.38" y="-891.7" font-family="Helvetica,sans-Serif" font-weight="bold" font-size="14.00" fill="#ff6b6b">Example: 300pt Planet</text>
</g>
<!-- asteroid -->
<g id="node1" class="node">
<title>asteroid</title>
<path fill="#2d2d44" stroke="#4ecdc4" stroke-width="2" d="M105.12,-794C105.12,-794 68.12,-794 68.12,-794 62.12,-794 56.12,-788 56.12,-782 56.12,-782 56.12,-770 56.12,-770 56.12,-764 62.12,-758 68.12,-758 68.12,-758 105.12,-758 105.12,-758 111.12,-758 117.12,-764 117.12,-770 117.12,-770 117.12,-782 117.12,-782 117.12,-788 111.12,-794 105.12,-794"/>
<text xml:space="preserve" text-anchor="middle" x="86.62" y="-777.55" font-family="Helvetica,sans-Serif" font-size="11.00" fill="white">Asteroid</text>
<text xml:space="preserve" text-anchor="middle" x="86.62" y="-765.55" font-family="Helvetica,sans-Serif" font-size="11.00" fill="white">10&#45;50 pts</text>
</g>
<!-- time_calc -->
<g id="node12" class="node">
<title>time_calc</title>
<path fill="#2d4d3d" stroke="#95d5b2" stroke-width="2" d="M375.25,-423C375.25,-423 269.25,-423 269.25,-423 263.25,-423 257.25,-417 257.25,-411 257.25,-411 257.25,-399 257.25,-399 257.25,-393 263.25,-387 269.25,-387 269.25,-387 375.25,-387 375.25,-387 381.25,-387 387.25,-393 387.25,-399 387.25,-399 387.25,-411 387.25,-411 387.25,-417 381.25,-423 375.25,-423"/>
<text xml:space="preserve" text-anchor="middle" x="322.25" y="-406.55" font-family="Helvetica,sans-Serif" font-size="11.00" fill="white">Time = Points Required</text>
<text xml:space="preserve" text-anchor="middle" x="322.25" y="-394.55" font-family="Helvetica,sans-Serif" font-size="11.00" fill="white">/ Total Points Per Day</text>
</g>
<!-- asteroid&#45;&gt;time_calc -->
<!-- moon -->
<g id="node2" class="node">
<title>moon</title>
<path fill="#2d2d44" stroke="#4ecdc4" stroke-width="2" d="M108.12,-722C108.12,-722 65.12,-722 65.12,-722 59.12,-722 53.12,-716 53.12,-710 53.12,-710 53.12,-698 53.12,-698 53.12,-692 59.12,-686 65.12,-686 65.12,-686 108.12,-686 108.12,-686 114.12,-686 120.12,-692 120.12,-698 120.12,-698 120.12,-710 120.12,-710 120.12,-716 114.12,-722 108.12,-722"/>
<text xml:space="preserve" text-anchor="middle" x="86.62" y="-705.55" font-family="Helvetica,sans-Serif" font-size="11.00" fill="white">Moon</text>
<text xml:space="preserve" text-anchor="middle" x="86.62" y="-693.55" font-family="Helvetica,sans-Serif" font-size="11.00" fill="white">50&#45;200 pts</text>
</g>
<!-- moon&#45;&gt;time_calc -->
<!-- planet -->
<g id="node3" class="node">
<title>planet</title>
<path fill="#2d2d44" stroke="#4ecdc4" stroke-width="2" d="M111.12,-650C111.12,-650 62.12,-650 62.12,-650 56.12,-650 50.12,-644 50.12,-638 50.12,-638 50.12,-626 50.12,-626 50.12,-620 56.12,-614 62.12,-614 62.12,-614 111.12,-614 111.12,-614 117.12,-614 123.12,-620 123.12,-626 123.12,-626 123.12,-638 123.12,-638 123.12,-644 117.12,-650 111.12,-650"/>
<text xml:space="preserve" text-anchor="middle" x="86.62" y="-633.55" font-family="Helvetica,sans-Serif" font-size="11.00" fill="white">Planet</text>
<text xml:space="preserve" text-anchor="middle" x="86.62" y="-621.55" font-family="Helvetica,sans-Serif" font-size="11.00" fill="white">200&#45;400 pts</text>
</g>
<!-- planet&#45;&gt;time_calc -->
<!-- gas_giant -->
<g id="node4" class="node">
<title>gas_giant</title>
<path fill="#2d2d44" stroke="#4ecdc4" stroke-width="2" d="M106.62,-578C106.62,-578 66.62,-578 66.62,-578 60.62,-578 54.62,-572 54.62,-566 54.62,-566 54.62,-554 54.62,-554 54.62,-548 60.62,-542 66.62,-542 66.62,-542 106.62,-542 106.62,-542 112.62,-542 118.62,-548 118.62,-554 118.62,-554 118.62,-566 118.62,-566 118.62,-572 112.62,-578 106.62,-578"/>
<text xml:space="preserve" text-anchor="middle" x="86.62" y="-561.55" font-family="Helvetica,sans-Serif" font-size="11.00" fill="white">Gas Giant</text>
<text xml:space="preserve" text-anchor="middle" x="86.62" y="-549.55" font-family="Helvetica,sans-Serif" font-size="11.00" fill="white">500+ pts</text>
</g>
<!-- gas_giant&#45;&gt;time_calc -->
<!-- base_sensor -->
<g id="node5" class="node">
<title>base_sensor</title>
<path fill="#2d2d44" stroke="#4ecdc4" stroke-width="2" d="M113.75,-495C113.75,-495 59.5,-495 59.5,-495 53.5,-495 47.5,-489 47.5,-483 47.5,-483 47.5,-471 47.5,-471 47.5,-465 53.5,-459 59.5,-459 59.5,-459 113.75,-459 113.75,-459 119.75,-459 125.75,-465 125.75,-471 125.75,-471 125.75,-483 125.75,-483 125.75,-489 119.75,-495 113.75,-495"/>
<text xml:space="preserve" text-anchor="middle" x="86.62" y="-478.55" font-family="Helvetica,sans-Serif" font-size="11.00" fill="white">Base Sensor</text>
<text xml:space="preserve" text-anchor="middle" x="86.62" y="-466.55" font-family="Helvetica,sans-Serif" font-size="11.00" fill="white">24 pts/day</text>
</g>
<!-- base_sensor&#45;&gt;time_calc -->
<g id="edge5" class="edge">
<title>base_sensor&#45;&gt;time_calc</title>
<path fill="none" stroke="#4ecdc4" stroke-width="1.5" d="M126.73,-464.95C159.83,-454.75 208.17,-439.85 248.38,-427.46"/>
<polygon fill="#4ecdc4" stroke="#4ecdc4" stroke-width="1.5" points="249.33,-430.83 257.86,-424.54 247.27,-424.14 249.33,-430.83"/>
<text xml:space="preserve" text-anchor="middle" x="211.75" y="-444.91" font-family="Helvetica,sans-Serif" font-size="10.00" fill="white">1 pt/hr</text>
</g>
<!-- improved -->
<g id="node6" class="node">
<title>improved</title>
<path fill="#2d2d44" stroke="#4ecdc4" stroke-width="2" d="M107.38,-423C107.38,-423 65.88,-423 65.88,-423 59.88,-423 53.88,-417 53.88,-411 53.88,-411 53.88,-399 53.88,-399 53.88,-393 59.88,-387 65.88,-387 65.88,-387 107.38,-387 107.38,-387 113.38,-387 119.38,-393 119.38,-399 119.38,-399 119.38,-411 119.38,-411 119.38,-417 113.38,-423 107.38,-423"/>
<text xml:space="preserve" text-anchor="middle" x="86.62" y="-406.55" font-family="Helvetica,sans-Serif" font-size="11.00" fill="white">Improved</text>
<text xml:space="preserve" text-anchor="middle" x="86.62" y="-394.55" font-family="Helvetica,sans-Serif" font-size="11.00" fill="white">48 pts/day</text>
</g>
<!-- improved&#45;&gt;time_calc -->
<g id="edge6" class="edge">
<title>improved&#45;&gt;time_calc</title>
<path fill="none" stroke="#4ecdc4" stroke-width="1.5" d="M120.11,-405C152.06,-405 202.04,-405 244.18,-405"/>
<polygon fill="#4ecdc4" stroke="#4ecdc4" stroke-width="1.5" points="244.13,-408.5 254.13,-405 244.13,-401.5 244.13,-408.5"/>
<text xml:space="preserve" text-anchor="middle" x="211.75" y="-406.75" font-family="Helvetica,sans-Serif" font-size="10.00" fill="white">2 pts/hr</text>
</g>
<!-- advanced -->
<g id="node7" class="node">
<title>advanced</title>
<path fill="#2d2d44" stroke="#4ecdc4" stroke-width="2" d="M107.38,-351C107.38,-351 65.88,-351 65.88,-351 59.88,-351 53.88,-345 53.88,-339 53.88,-339 53.88,-327 53.88,-327 53.88,-321 59.88,-315 65.88,-315 65.88,-315 107.38,-315 107.38,-315 113.38,-315 119.38,-321 119.38,-327 119.38,-327 119.38,-339 119.38,-339 119.38,-345 113.38,-351 107.38,-351"/>
<text xml:space="preserve" text-anchor="middle" x="86.62" y="-334.55" font-family="Helvetica,sans-Serif" font-size="11.00" fill="white">Advanced</text>
<text xml:space="preserve" text-anchor="middle" x="86.62" y="-322.55" font-family="Helvetica,sans-Serif" font-size="11.00" fill="white">72 pts/day</text>
</g>
<!-- advanced&#45;&gt;time_calc -->
<g id="edge7" class="edge">
<title>advanced&#45;&gt;time_calc</title>
<path fill="none" stroke="#4ecdc4" stroke-width="1.5" d="M120.11,-343.01C153.07,-353.17 205.21,-369.24 248.15,-382.47"/>
<polygon fill="#4ecdc4" stroke="#4ecdc4" stroke-width="1.5" points="246.95,-385.76 257.54,-385.36 249.01,-379.07 246.95,-385.76"/>
<text xml:space="preserve" text-anchor="middle" x="211.75" y="-377.2" font-family="Helvetica,sans-Serif" font-size="10.00" fill="white">3 pts/hr</text>
</g>
<!-- phased -->
<g id="node8" class="node">
<title>phased</title>
<path fill="#2d2d44" stroke="#4ecdc4" stroke-width="2" d="M110.38,-279C110.38,-279 62.88,-279 62.88,-279 56.88,-279 50.88,-273 50.88,-267 50.88,-267 50.88,-255 50.88,-255 50.88,-249 56.88,-243 62.88,-243 62.88,-243 110.38,-243 110.38,-243 116.38,-243 122.38,-249 122.38,-255 122.38,-255 122.38,-267 122.38,-267 122.38,-273 116.38,-279 110.38,-279"/>
<text xml:space="preserve" text-anchor="middle" x="86.62" y="-262.55" font-family="Helvetica,sans-Serif" font-size="11.00" fill="white">Phased</text>
<text xml:space="preserve" text-anchor="middle" x="86.62" y="-250.55" font-family="Helvetica,sans-Serif" font-size="11.00" fill="white">120 pts/day</text>
</g>
<!-- phased&#45;&gt;time_calc -->
<g id="edge8" class="edge">
<title>phased&#45;&gt;time_calc</title>
<path fill="none" stroke="#4ecdc4" stroke-width="1.5" d="M123.09,-273.52C139.13,-279.74 158.08,-287.88 174.25,-297 216.87,-321.05 261.6,-355.42 290.36,-378.88"/>
<polygon fill="#4ecdc4" stroke="#4ecdc4" stroke-width="1.5" points="287.78,-381.29 297.73,-384.95 292.23,-375.89 287.78,-381.29"/>
<text xml:space="preserve" text-anchor="middle" x="211.75" y="-331" font-family="Helvetica,sans-Serif" font-size="10.00" fill="white">5 pts/hr</text>
</g>
<!-- multi_sensor -->
<g id="node9" class="node">
<title>multi_sensor</title>
<path fill="#3d3d54" stroke="#4ecdc4" stroke-width="2" d="M122.38,-196C122.38,-196 50.88,-196 50.88,-196 44.87,-196 38.88,-190 38.88,-184 38.88,-184 38.88,-172 38.88,-172 38.88,-166 44.88,-160 50.88,-160 50.88,-160 122.38,-160 122.38,-160 128.38,-160 134.38,-166 134.38,-172 134.38,-172 134.38,-184 134.38,-184 134.38,-190 128.38,-196 122.38,-196"/>
<text xml:space="preserve" text-anchor="middle" x="86.62" y="-179.55" font-family="Helvetica,sans-Serif" font-size="11.00" fill="white">Multiple Sensors</text>
<text xml:space="preserve" text-anchor="middle" x="86.62" y="-167.55" font-family="Helvetica,sans-Serif" font-size="11.00" fill="white">Additive</text>
</g>
<!-- multi_sensor&#45;&gt;time_calc -->
<g id="edge9" class="edge">
<title>multi_sensor&#45;&gt;time_calc</title>
<path fill="none" stroke="#ffe66d" stroke-width="1.5" stroke-dasharray="5,2" d="M128.89,-196.79C143.96,-204.68 160.64,-214.66 174.25,-226 228.33,-271.06 277.18,-338.18 302.67,-376.14"/>
<polygon fill="#ffe66d" stroke="#ffe66d" stroke-width="1.5" points="299.53,-377.73 307.97,-384.13 305.36,-373.86 299.53,-377.73"/>
</g>
<!-- multi_ship -->
<g id="node10" class="node">
<title>multi_ship</title>
<path fill="#3d3d54" stroke="#4ecdc4" stroke-width="2" d="M119,-124C119,-124 54.25,-124 54.25,-124 48.25,-124 42.25,-118 42.25,-112 42.25,-112 42.25,-100 42.25,-100 42.25,-94 48.25,-88 54.25,-88 54.25,-88 119,-88 119,-88 125,-88 131,-94 131,-100 131,-100 131,-112 131,-112 131,-118 125,-124 119,-124"/>
<text xml:space="preserve" text-anchor="middle" x="86.62" y="-107.55" font-family="Helvetica,sans-Serif" font-size="11.00" fill="white">Multiple Ships</text>
<text xml:space="preserve" text-anchor="middle" x="86.62" y="-95.55" font-family="Helvetica,sans-Serif" font-size="11.00" fill="white">Parallel Survey</text>
</g>
<!-- multi_ship&#45;&gt;time_calc -->
<g id="edge10" class="edge">
<title>multi_ship&#45;&gt;time_calc</title>
<path fill="none" stroke="#ffe66d" stroke-width="1.5" stroke-dasharray="5,2" d="M131.8,-117.93C146.51,-123.49 162.19,-131.29 174.25,-142 248.64,-208.05 293.63,-321.12 311.85,-374.89"/>
<polygon fill="#ffe66d" stroke="#ffe66d" stroke-width="1.5" points="308.45,-375.77 314.91,-384.17 315.1,-373.57 308.45,-375.77"/>
</g>
<!-- speed_mod -->
<g id="node11" class="node">
<title>speed_mod</title>
<path fill="#3d3d54" stroke="#4ecdc4" stroke-width="2" d="M135.12,-52C135.12,-52 38.12,-52 38.12,-52 32.13,-52 26.12,-46 26.12,-40 26.12,-40 26.12,-28 26.12,-28 26.12,-22 32.12,-16 38.12,-16 38.12,-16 135.12,-16 135.12,-16 141.12,-16 147.12,-22 147.12,-28 147.12,-28 147.12,-40 147.12,-40 147.12,-46 141.12,-52 135.12,-52"/>
<text xml:space="preserve" text-anchor="middle" x="86.62" y="-35.55" font-family="Helvetica,sans-Serif" font-size="11.00" fill="white">Game Speed Modifier</text>
<text xml:space="preserve" text-anchor="middle" x="86.62" y="-23.55" font-family="Helvetica,sans-Serif" font-size="11.00" fill="white">(default 100%)</text>
</g>
<!-- speed_mod&#45;&gt;time_calc -->
<g id="edge11" class="edge">
<title>speed_mod&#45;&gt;time_calc</title>
<path fill="none" stroke="#ffe66d" stroke-width="1.5" stroke-dasharray="5,2" d="M146.83,-52.8C156.6,-57.48 166.17,-63.16 174.25,-70 270.41,-151.32 305.8,-307.64 316.87,-373.99"/>
<polygon fill="#ffe66d" stroke="#ffe66d" stroke-width="1.5" points="313.39,-374.44 318.41,-383.77 320.31,-373.35 313.39,-374.44"/>
</g>
<!-- complete -->
<g id="node13" class="node">
<title>complete</title>
<path fill="#2d3d4d" stroke="#4ecdc4" stroke-width="2" d="M588.75,-427C588.75,-427 507.5,-427 507.5,-427 501.5,-427 495.5,-421 495.5,-415 495.5,-415 495.5,-395 495.5,-395 495.5,-389 501.5,-383 507.5,-383 507.5,-383 588.75,-383 588.75,-383 594.75,-383 600.75,-389 600.75,-395 600.75,-395 600.75,-415 600.75,-415 600.75,-421 594.75,-427 588.75,-427"/>
<text xml:space="preserve" text-anchor="middle" x="548.12" y="-412.55" font-family="Helvetica,sans-Serif" font-size="11.00" fill="white">Survey Complete!</text>
<text xml:space="preserve" text-anchor="middle" x="548.12" y="-400.55" font-family="Helvetica,sans-Serif" font-size="11.00" fill="white">Minerals Revealed</text>
<text xml:space="preserve" text-anchor="middle" x="548.12" y="-388.55" font-family="Helvetica,sans-Serif" font-size="11.00" fill="white">Ruins Discovered</text>
</g>
<!-- time_calc&#45;&gt;complete -->
<g id="edge12" class="edge">
<title>time_calc&#45;&gt;complete</title>
<path fill="none" stroke="#4ecdc4" stroke-width="1.5" d="M388,-405C417.74,-405 452.92,-405 482.62,-405"/>
<polygon fill="#4ecdc4" stroke="#4ecdc4" stroke-width="1.5" points="482.29,-408.5 492.29,-405 482.29,-401.5 482.29,-408.5"/>
<text xml:space="preserve" text-anchor="middle" x="441.38" y="-418" font-family="Helvetica,sans-Serif" font-size="10.00" fill="white">accumulate</text>
<text xml:space="preserve" text-anchor="middle" x="441.38" y="-406.75" font-family="Helvetica,sans-Serif" font-size="10.00" fill="white">points</text>
</g>
<!-- ex1 -->
<g id="node14" class="node">
<title>ex1</title>
<path fill="#4d2d2d" stroke="#4ecdc4" stroke-width="2" d="M118.25,-877C118.25,-877 55,-877 55,-877 49,-877 43,-871 43,-865 43,-865 43,-853 43,-853 43,-847 49,-841 55,-841 55,-841 118.25,-841 118.25,-841 124.25,-841 130.25,-847 130.25,-853 130.25,-853 130.25,-865 130.25,-865 130.25,-871 124.25,-877 118.25,-877"/>
<text xml:space="preserve" text-anchor="middle" x="86.62" y="-860.55" font-family="Helvetica,sans-Serif" font-size="11.00" fill="white">1 Base Sensor</text>
<text xml:space="preserve" text-anchor="middle" x="86.62" y="-848.55" font-family="Helvetica,sans-Serif" font-size="11.00" fill="white">12.5 days</text>
</g>
<!-- ex2 -->
<g id="node15" class="node">
<title>ex2</title>
<path fill="#4d2d2d" stroke="#4ecdc4" stroke-width="2" d="M356.5,-877C356.5,-877 288,-877 288,-877 282,-877 276,-871 276,-865 276,-865 276,-853 276,-853 276,-847 282,-841 288,-841 288,-841 356.5,-841 356.5,-841 362.5,-841 368.5,-847 368.5,-853 368.5,-853 368.5,-865 368.5,-865 368.5,-871 362.5,-877 356.5,-877"/>
<text xml:space="preserve" text-anchor="middle" x="322.25" y="-860.55" font-family="Helvetica,sans-Serif" font-size="11.00" fill="white">3 Base Sensors</text>
<text xml:space="preserve" text-anchor="middle" x="322.25" y="-848.55" font-family="Helvetica,sans-Serif" font-size="11.00" fill="white">4.2 days</text>
</g>
<!-- ex1&#45;&gt;ex2 -->
<!-- ex3 -->
<g id="node16" class="node">
<title>ex3</title>
<path fill="#4d2d2d" stroke="#4ecdc4" stroke-width="2" d="M585.75,-877C585.75,-877 510.5,-877 510.5,-877 504.5,-877 498.5,-871 498.5,-865 498.5,-865 498.5,-853 498.5,-853 498.5,-847 504.5,-841 510.5,-841 510.5,-841 585.75,-841 585.75,-841 591.75,-841 597.75,-847 597.75,-853 597.75,-853 597.75,-865 597.75,-865 597.75,-871 591.75,-877 585.75,-877"/>
<text xml:space="preserve" text-anchor="middle" x="548.12" y="-860.55" font-family="Helvetica,sans-Serif" font-size="11.00" fill="white">1 Phased Sensor</text>
<text xml:space="preserve" text-anchor="middle" x="548.12" y="-848.55" font-family="Helvetica,sans-Serif" font-size="11.00" fill="white">2.5 days</text>
</g>
<!-- ex2&#45;&gt;ex3 -->
</g>
</svg>
