<?xml version="1.0" encoding="UTF-8" standalone="no"?>
<!DOCTYPE svg PUBLIC "-//W3C//DTD SVG 1.1//EN"
 "http://www.w3.org/Graphics/SVG/1.1/DTD/svg11.dtd">
<!-- Generated by graphviz version 14.1.2 (20260124.0452)
 -->
<!-- Title: jump_topology Pages: 1 -->
<svg width="1608pt" height="686pt"
 viewBox="0.00 0.00 1608.00 686.00" xmlns="http://www.w3.org/2000/svg" xmlns:xlink="http://www.w3.org/1999/xlink">
<g id="graph0" class="graph" transform="scale(1 1) rotate(0) translate(4 682.35)">
<title>jump_topology</title>
<polygon fill="#1a1a2e" stroke="none" points="-4,4 -4,-682.35 1604.2,-682.35 1604.2,4 -4,4"/>
<text xml:space="preserve" text-anchor="start" x="685.35" y="-660.15" font-family="Helvetica,sans-Serif" font-weight="bold" font-size="16.00" fill="white">Jump Point Network Topology</text>
<g id="clust1" class="cluster">
<title>cluster_legend</title>
<polygon fill="#1a1a2e" stroke="#4ecdc4" points="1108.2,-17.2 1108.2,-645.85 1304.2,-645.85 1304.2,-17.2 1108.2,-17.2"/>
<text xml:space="preserve" text-anchor="start" x="1158.58" y="-629.55" font-family="Helvetica,sans-Serif" font-weight="bold" font-size="14.00" fill="#95d5b2">Key Properties</text>
</g>
<g id="clust2" class="cluster">
<title>cluster_note</title>
<polygon fill="#1a1a2e" stroke="#ffe66d" points="1360.2,-570.85 1360.2,-645.85 1592.2,-645.85 1592.2,-570.85 1360.2,-570.85"/>
<text xml:space="preserve" text-anchor="start" x="1374.2" y="-629.55" font-family="Helvetica,sans-Serif" font-weight="bold" font-size="14.00" fill="#ffe66d">Guaranteed Exploration (v2.1.1)</text>
</g>
<!-- sol -->
<g id="node1" class="node">
<title>sol</title>
<ellipse fill="#3d4d3d" stroke="#95d5b2" stroke-width="2" cx="662.2" cy="-596.85" rx="50.4" ry="50.4"/>
<text xml:space="preserve" text-anchor="middle" x="662.2" y="-598.6" font-family="Helvetica,sans-Serif" font-size="10.00" fill="white">Sol</text>
<text xml:space="preserve" text-anchor="middle" x="662.2" y="-587.35" font-family="Helvetica,sans-Serif" font-size="10.00" fill="white">(Home)</text>
</g>
<!-- alpha -->
<g id="node2" class="node">
<title>alpha</title>
<ellipse fill="#2d2d44" stroke="#4ecdc4" stroke-width="2" cx="346.2" cy="-407.5" rx="43.2" ry="43.2"/>
<text xml:space="preserve" text-anchor="middle" x="346.2" y="-409.25" font-family="Helvetica,sans-Serif" font-size="10.00" fill="white">Alpha</text>
<text xml:space="preserve" text-anchor="middle" x="346.2" y="-398" font-family="Helvetica,sans-Serif" font-size="10.00" fill="white">Centauri</text>
</g>
<!-- sol&#45;&gt;alpha -->
<g id="edge1" class="edge">
<title>sol&#45;&gt;alpha</title>
<path fill="none" stroke="#4ecdc4" stroke-width="2" d="M607.5,-563.42C547.4,-527.79 451.79,-471.1 394.4,-437.08"/>
<polygon fill="#4ecdc4" stroke="#4ecdc4" stroke-width="2" points="605.6,-566.36 615.99,-568.45 609.17,-560.34 605.6,-566.36"/>
<polygon fill="#4ecdc4" stroke="#4ecdc4" stroke-width="2" points="396.45,-434.22 386.06,-432.13 392.88,-440.24 396.45,-434.22"/>
<text xml:space="preserve" text-anchor="middle" x="513.58" y="-494.9" font-family="Helvetica,sans-Serif" font-size="9.00" fill="white">JP&#45;1</text>
</g>
<!-- barnard -->
<g id="node3" class="node">
<title>barnard</title>
<ellipse fill="#2d2d44" stroke="#4ecdc4" stroke-width="2" cx="522.2" cy="-407.5" rx="43.2" ry="43.2"/>
<text xml:space="preserve" text-anchor="middle" x="522.2" y="-409.25" font-family="Helvetica,sans-Serif" font-size="10.00" fill="white">Barnard&#39;s</text>
<text xml:space="preserve" text-anchor="middle" x="522.2" y="-398" font-family="Helvetica,sans-Serif" font-size="10.00" fill="white">Star</text>
</g>
<!-- sol&#45;&gt;barnard -->
<g id="edge2" class="edge">
<title>sol&#45;&gt;barnard</title>
<path fill="none" stroke="#4ecdc4" stroke-width="2" d="M624.55,-545.46C603.05,-516.7 576.34,-480.94 555.59,-453.18"/>
<polygon fill="#4ecdc4" stroke="#4ecdc4" stroke-width="2" points="621.56,-547.32 630.35,-553.23 627.17,-543.13 621.56,-547.32"/>
<polygon fill="#4ecdc4" stroke="#4ecdc4" stroke-width="2" points="558.56,-451.31 549.77,-445.39 552.95,-455.5 558.56,-451.31"/>
<text xml:space="preserve" text-anchor="middle" x="601.58" y="-494.9" font-family="Helvetica,sans-Serif" font-size="9.00" fill="white">JP&#45;2</text>
</g>
<!-- wolf -->
<g id="node4" class="node">
<title>wolf</title>
<ellipse fill="#2d2d44" stroke="#4ecdc4" stroke-width="2" cx="680.2" cy="-225.35" rx="43.2" ry="43.2"/>
<text xml:space="preserve" text-anchor="middle" x="680.2" y="-221.47" font-family="Helvetica,sans-Serif" font-size="10.00" fill="white">Wolf 359</text>
</g>
<!-- sol&#45;&gt;wolf -->
<g id="edge3" class="edge">
<title>sol&#45;&gt;wolf</title>
<path fill="none" stroke="#4ecdc4" stroke-width="2" d="M665.28,-532.64C668.71,-462.2 674.21,-349.37 677.48,-282.1"/>
<polygon fill="#4ecdc4" stroke="#4ecdc4" stroke-width="2" points="661.78,-532.45 664.79,-542.61 668.78,-532.79 661.78,-532.45"/>
<polygon fill="#4ecdc4" stroke="#4ecdc4" stroke-width="2" points="680.97,-282.46 677.96,-272.3 673.98,-282.12 680.97,-282.46"/>
<text xml:space="preserve" text-anchor="middle" x="682.66" y="-403.82" font-family="Helvetica,sans-Serif" font-size="9.00" fill="white">JP&#45;3</text>
</g>
<!-- sirius -->
<g id="node5" class="node">
<title>sirius</title>
<ellipse fill="#2d2d44" stroke="#4ecdc4" stroke-width="2" cx="867.2" cy="-407.5" rx="43.2" ry="43.2"/>
<text xml:space="preserve" text-anchor="middle" x="867.2" y="-403.62" font-family="Helvetica,sans-Serif" font-size="10.00" fill="white">Sirius</text>
</g>
<!-- sol&#45;&gt;sirius -->
<g id="edge4" class="edge">
<title>sol&#45;&gt;sirius</title>
<path fill="none" stroke="#4ecdc4" stroke-width="2" d="M708.95,-553.66C726.33,-537.93 746.19,-519.91 764.2,-503.45 784.69,-484.73 807.37,-463.83 826.23,-446.42"/>
<polygon fill="#4ecdc4" stroke="#4ecdc4" stroke-width="2" points="706.89,-550.8 701.82,-560.1 711.58,-555.99 706.89,-550.8"/>
<polygon fill="#4ecdc4" stroke="#4ecdc4" stroke-width="2" points="828.52,-449.07 833.49,-439.71 823.77,-443.93 828.52,-449.07"/>
<text xml:space="preserve" text-anchor="middle" x="781.95" y="-494.9" font-family="Helvetica,sans-Serif" font-size="9.00" fill="white">JP&#45;4</text>
</g>
<!-- epsilon -->
<g id="node6" class="node">
<title>epsilon</title>
<ellipse fill="#2d2d44" stroke="#4ecdc4" stroke-width="2" cx="201.2" cy="-225.35" rx="43.2" ry="43.2"/>
<text xml:space="preserve" text-anchor="middle" x="201.2" y="-227.1" font-family="Helvetica,sans-Serif" font-size="10.00" fill="white">Epsilon</text>
<text xml:space="preserve" text-anchor="middle" x="201.2" y="-215.85" font-family="Helvetica,sans-Serif" font-size="10.00" fill="white">Eridani</text>
</g>
<!-- alpha&#45;&gt;epsilon -->
<g id="edge5" class="edge">
<title>alpha&#45;&gt;epsilon</title>
<path fill="none" stroke="#4ecdc4" stroke-width="2" d="M311.31,-363.15C288.59,-334.92 259.05,-298.22 236.29,-269.95"/>
<polygon fill="#4ecdc4" stroke="#4ecdc4" stroke-width="2" points="308.37,-365.08 317.37,-370.68 313.82,-360.69 308.37,-365.08"/>
<polygon fill="#4ecdc4" stroke="#4ecdc4" stroke-width="2" points="239.13,-267.89 230.13,-262.3 233.68,-272.28 239.13,-267.89"/>
<text xml:space="preserve" text-anchor="middle" x="283.07" y="-312.75" font-family="Helvetica,sans-Serif" font-size="9.00" fill="white">JP&#45;1</text>
</g>
<!-- tau -->
<g id="node7" class="node">
<title>tau</title>
<ellipse fill="#2d2d44" stroke="#4ecdc4" stroke-width="2" cx="388.2" cy="-43.2" rx="43.2" ry="43.2"/>
<text xml:space="preserve" text-anchor="middle" x="388.2" y="-39.32" font-family="Helvetica,sans-Serif" font-size="10.00" fill="white">Tau Ceti</text>
</g>
<!-- alpha&#45;&gt;tau -->
<g id="edge6" class="edge">
<title>alpha&#45;&gt;tau</title>
<path fill="none" stroke="#4ecdc4" stroke-width="2" d="M352.64,-350.95C360.55,-282.71 373.89,-167.64 381.79,-99.51"/>
<polygon fill="#4ecdc4" stroke="#4ecdc4" stroke-width="2" points="349.16,-350.53 351.49,-360.87 356.12,-351.34 349.16,-350.53"/>
<polygon fill="#4ecdc4" stroke="#4ecdc4" stroke-width="2" points="385.22,-100.29 382.9,-89.95 378.27,-99.48 385.22,-100.29"/>
<text xml:space="preserve" text-anchor="middle" x="381.44" y="-221.67" font-family="Helvetica,sans-Serif" font-size="9.00" fill="white">JP&#45;2</text>
</g>
<!-- unknown1 -->
<g id="node9" class="node">
<title>unknown1</title>
<ellipse fill="#4d3d3d" stroke="#ff6b6b" stroke-width="2" stroke-dasharray="5,2" cx="43.2" cy="-225.35" rx="43.2" ry="43.2"/>
<text xml:space="preserve" text-anchor="middle" x="43.2" y="-227.1" font-family="Helvetica,sans-Serif" font-size="10.00" fill="white">???</text>
<text xml:space="preserve" text-anchor="middle" x="43.2" y="-215.85" font-family="Helvetica,sans-Serif" font-size="10.00" fill="white">(Unexplored)</text>
</g>
<!-- alpha&#45;&gt;unknown1 -->
<g id="edge7" class="edge">
<title>alpha&#45;&gt;unknown1</title>
<path fill="none" stroke="#ff6b6b" stroke-width="2" stroke-dasharray="5,2" d="M297.59,-377.6C241.04,-343.98 148.22,-288.79 91.71,-255.19"/>
<polygon fill="#ff6b6b" stroke="#ff6b6b" stroke-width="2" points="295.76,-380.58 306.14,-382.68 299.33,-374.56 295.76,-380.58"/>
<polygon fill="#ff6b6b" stroke="#ff6b6b" stroke-width="2" points="93.56,-252.22 83.17,-250.12 89.98,-258.24 93.56,-252.22"/>
<text xml:space="preserve" text-anchor="middle" x="204.07" y="-312.75" font-family="Helvetica,sans-Serif" font-size="9.00" fill="white">JP&#45;3</text>
</g>
<!-- barnard&#45;&gt;wolf -->
<g id="edge9" class="edge">
<title>barnard&#45;&gt;wolf</title>
<path fill="none" stroke="#4ecdc4" stroke-width="2" d="M559.24,-364.27C584.54,-335.42 617.93,-297.35 643.22,-268.51"/>
<polygon fill="#4ecdc4" stroke="#4ecdc4" stroke-width="2" points="556.77,-361.77 552.81,-371.6 562.03,-366.39 556.77,-361.77"/>
<polygon fill="#4ecdc4" stroke="#4ecdc4" stroke-width="2" points="645.84,-270.83 649.8,-261.01 640.58,-266.22 645.84,-270.83"/>
<text xml:space="preserve" text-anchor="middle" x="610.58" y="-312.75" font-family="Helvetica,sans-Serif" font-size="9.00" fill="white">JP&#45;2</text>
</g>
<!-- ross -->
<g id="node8" class="node">
<title>ross</title>
<ellipse fill="#2d2d44" stroke="#4ecdc4" stroke-width="2" cx="522.2" cy="-225.35" rx="43.2" ry="43.2"/>
<text xml:space="preserve" text-anchor="middle" x="522.2" y="-221.47" font-family="Helvetica,sans-Serif" font-size="10.00" fill="white">Ross 128</text>
</g>
<!-- barnard&#45;&gt;ross -->
<g id="edge8" class="edge">
<title>barnard&#45;&gt;ross</title>
<path fill="none" stroke="#4ecdc4" stroke-width="2" d="M522.2,-350.54C522.2,-328.79 522.2,-303.93 522.2,-282.19"/>
<polygon fill="#4ecdc4" stroke="#4ecdc4" stroke-width="2" points="518.7,-350.32 522.2,-360.32 525.7,-350.32 518.7,-350.32"/>
<polygon fill="#4ecdc4" stroke="#4ecdc4" stroke-width="2" points="525.7,-282.49 522.2,-272.49 518.7,-282.49 525.7,-282.49"/>
<text xml:space="preserve" text-anchor="middle" x="531.58" y="-312.75" font-family="Helvetica,sans-Serif" font-size="9.00" fill="white">JP&#45;1</text>
</g>
<!-- sirius&#45;&gt;tau -->
<g id="edge10" class="edge">
<title>sirius&#45;&gt;tau</title>
<path fill="none" stroke="#4ecdc4" stroke-width="2" d="M853.79,-352.48C838.68,-302.06 809.42,-227.92 759.2,-182.15 668.39,-99.39 523.46,-64.94 444.3,-51.69"/>
<polygon fill="#4ecdc4" stroke="#4ecdc4" stroke-width="2" points="850.36,-353.21 856.5,-361.85 857.09,-351.27 850.36,-353.21"/>
<polygon fill="#4ecdc4" stroke="#4ecdc4" stroke-width="2" points="445.13,-48.28 434.7,-50.15 444.02,-55.19 445.13,-48.28"/>
<text xml:space="preserve" text-anchor="middle" x="829.66" y="-221.67" font-family="Helvetica,sans-Serif" font-size="9.00" fill="white">JP&#45;1</text>
</g>
<!-- unknown2 -->
<g id="node10" class="node">
<title>unknown2</title>
<ellipse fill="#4d3d3d" stroke="#ff6b6b" stroke-width="2" stroke-dasharray="5,2" cx="1001.2" cy="-225.35" rx="43.2" ry="43.2"/>
<text xml:space="preserve" text-anchor="middle" x="1001.2" y="-227.1" font-family="Helvetica,sans-Serif" font-size="10.00" fill="white">???</text>
<text xml:space="preserve" text-anchor="middle" x="1001.2" y="-215.85" font-family="Helvetica,sans-Serif" font-size="10.00" fill="white">(Unexplored)</text>
</g>
<!-- sirius&#45;&gt;unknown2 -->
<g id="edge11" class="edge">
<title>sirius&#45;&gt;unknown2</title>
<path fill="none" stroke="#ff6b6b" stroke-width="2" stroke-dasharray="5,2" d="M900.59,-361.61C921.13,-334 947.35,-298.74 967.88,-271.15"/>
<polygon fill="#ff6b6b" stroke="#ff6b6b" stroke-width="2" points="898,-359.22 894.84,-369.34 903.62,-363.4 898,-359.22"/>
<polygon fill="#ff6b6b" stroke="#ff6b6b" stroke-width="2" points="970.48,-273.52 973.64,-263.41 964.86,-269.34 970.48,-273.52"/>
<text xml:space="preserve" text-anchor="middle" x="943.58" y="-312.75" font-family="Helvetica,sans-Serif" font-size="9.00" fill="white">JP&#45;2</text>
</g>
<!-- epsilon&#45;&gt;tau -->
<g id="edge12" class="edge">
<title>epsilon&#45;&gt;tau</title>
<path fill="none" stroke="#4ecdc4" stroke-width="2" d="M241.86,-185.18C273.25,-154.94 316.47,-113.3 347.8,-83.12"/>
<polygon fill="#4ecdc4" stroke="#4ecdc4" stroke-width="2" points="239.45,-182.64 234.68,-192.1 244.31,-187.68 239.45,-182.64"/>
<polygon fill="#4ecdc4" stroke="#4ecdc4" stroke-width="2" points="350.16,-85.71 354.93,-76.25 345.3,-80.67 350.16,-85.71"/>
<text xml:space="preserve" text-anchor="middle" x="304.07" y="-130.6" font-family="Helvetica,sans-Serif" font-size="9.00" fill="white">JP&#45;1</text>
</g>
<!-- prop1 -->
<g id="node11" class="node">
<title>prop1</title>
<path fill="#2d2d44" stroke="#4ecdc4" stroke-width="2" d="M1284.2,-614.85C1284.2,-614.85 1128.2,-614.85 1128.2,-614.85 1122.2,-614.85 1116.2,-608.85 1116.2,-602.85 1116.2,-602.85 1116.2,-590.85 1116.2,-590.85 1116.2,-584.85 1122.2,-578.85 1128.2,-578.85 1128.2,-578.85 1284.2,-578.85 1284.2,-578.85 1290.2,-578.85 1296.2,-584.85 1296.2,-590.85 1296.2,-590.85 1296.2,-602.85 1296.2,-602.85 1296.2,-608.85 1290.2,-614.85 1284.2,-614.85"/>
<text xml:space="preserve" text-anchor="middle" x="1206.2" y="-592.97" font-family="Helvetica,sans-Serif" font-size="10.00" fill="white">Bidirectional: A&lt;&#45;&gt;B always</text>
</g>
<!-- prop2 -->
<g id="node12" class="node">
<title>prop2</title>
<path fill="#2d2d44" stroke="#4ecdc4" stroke-width="2" d="M1284.2,-425.5C1284.2,-425.5 1128.2,-425.5 1128.2,-425.5 1122.2,-425.5 1116.2,-419.5 1116.2,-413.5 1116.2,-413.5 1116.2,-401.5 1116.2,-401.5 1116.2,-395.5 1122.2,-389.5 1128.2,-389.5 1128.2,-389.5 1284.2,-389.5 1284.2,-389.5 1290.2,-389.5 1296.2,-395.5 1296.2,-401.5 1296.2,-401.5 1296.2,-413.5 1296.2,-413.5 1296.2,-419.5 1290.2,-425.5 1284.2,-425.5"/>
<text xml:space="preserve" text-anchor="middle" x="1206.2" y="-403.62" font-family="Helvetica,sans-Serif" font-size="10.00" fill="white">Fixed Position: Never moves</text>
</g>
<!-- prop1&#45;&gt;prop2 -->
<!-- prop3 -->
<g id="node13" class="node">
<title>prop3</title>
<path fill="#2d2d44" stroke="#4ecdc4" stroke-width="2" d="M1284.2,-243.35C1284.2,-243.35 1128.2,-243.35 1128.2,-243.35 1122.2,-243.35 1116.2,-237.35 1116.2,-231.35 1116.2,-231.35 1116.2,-219.35 1116.2,-219.35 1116.2,-213.35 1122.2,-207.35 1128.2,-207.35 1128.2,-207.35 1284.2,-207.35 1284.2,-207.35 1290.2,-207.35 1296.2,-213.35 1296.2,-219.35 1296.2,-219.35 1296.2,-231.35 1296.2,-231.35 1296.2,-237.35 1290.2,-243.35 1284.2,-243.35"/>
<text xml:space="preserve" text-anchor="middle" x="1206.2" y="-221.47" font-family="Helvetica,sans-Serif" font-size="10.00" fill="white">2&#45;8 JPs per system typical</text>
</g>
<!-- prop2&#45;&gt;prop3 -->
<!-- prop4 -->
<g id="node14" class="node">
<title>prop4</title>
<path fill="#2d2d44" stroke="#4ecdc4" stroke-width="2" d="M1284.2,-61.2C1284.2,-61.2 1128.2,-61.2 1128.2,-61.2 1122.2,-61.2 1116.2,-55.2 1116.2,-49.2 1116.2,-49.2 1116.2,-37.2 1116.2,-37.2 1116.2,-31.2 1122.2,-25.2 1128.2,-25.2 1128.2,-25.2 1284.2,-25.2 1284.2,-25.2 1290.2,-25.2 1296.2,-31.2 1296.2,-37.2 1296.2,-37.2 1296.2,-49.2 1296.2,-49.2 1296.2,-55.2 1290.2,-61.2 1284.2,-61.2"/>
<text xml:space="preserve" text-anchor="middle" x="1206.2" y="-39.32" font-family="Helvetica,sans-Serif" font-size="10.00" fill="white">Hidden until surveyed</text>
</g>
<!-- prop3&#45;&gt;prop4 -->
<!-- note1 -->
<g id="node15" class="node">
<title>note1</title>
<path fill="#3d3d4d" stroke="#4ecdc4" stroke-width="2" d="M1572.2,-614.85C1572.2,-614.85 1380.2,-614.85 1380.2,-614.85 1374.2,-614.85 1368.2,-608.85 1368.2,-602.85 1368.2,-602.85 1368.2,-590.85 1368.2,-590.85 1368.2,-584.85 1374.2,-578.85 1380.2,-578.85 1380.2,-578.85 1572.2,-578.85 1572.2,-578.85 1578.2,-578.85 1584.2,-584.85 1584.2,-590.85 1584.2,-590.85 1584.2,-602.85 1584.2,-602.85 1584.2,-608.85 1578.2,-614.85 1572.2,-614.85"/>
<text xml:space="preserve" text-anchor="middle" x="1476.2" y="-598.6" font-family="Helvetica,sans-Serif" font-size="10.00" fill="white">Last unlinked JP always generates</text>
<text xml:space="preserve" text-anchor="middle" x="1476.2" y="-587.35" font-family="Helvetica,sans-Serif" font-size="10.00" fill="white">a system with min. 2 JPs</text>
</g>
</g>
</svg>
