<?xml version="1.0" encoding="UTF-8" standalone="no"?>
<!DOCTYPE svg PUBLIC "-//W3C//DTD SVG 1.1//EN"
 "http://www.w3.org/Graphics/SVG/1.1/DTD/svg11.dtd">
<!-- Generated by graphviz version 14.1.2 (20260124.0452)
 -->
<!-- Title: lagrange_points Pages: 1 -->
<svg width="1683pt" height="385pt"
 viewBox="0.00 0.00 1683.00 385.00" xmlns="http://www.w3.org/2000/svg" xmlns:xlink="http://www.w3.org/1999/xlink">
<g id="graph0" class="graph" transform="scale(1 1) rotate(0) translate(4 381.41)">
<title>lagrange_points</title>
<polygon fill="#1a1a2e" stroke="none" points="-4,4 -4,-381.41 1679,-381.41 1679,4 -4,4"/>
<text xml:space="preserve" text-anchor="start" x="706.25" y="-359.21" font-family="Helvetica,sans-Serif" font-weight="bold" font-size="16.00" fill="white">Survey Locations in a Star System</text>
<g id="clust1" class="cluster">
<title>cluster_inner</title>
<polygon fill="#2d1a1a" stroke="#ff6b6b" points="8,-115.78 8,-190.78 321,-190.78 321,-115.78 8,-115.78"/>
<text xml:space="preserve" text-anchor="start" x="130" y="-174.48" font-family="Helvetica,sans-Serif" font-weight="bold" font-size="14.00" fill="#ff6b6b">Inner Zone</text>
</g>
<g id="clust2" class="cluster">
<title>cluster_mid</title>
<polygon fill="#2d2d1a" stroke="#ffe66d" points="329,-15.64 329,-201.58 639,-201.58 639,-15.64 329,-15.64"/>
<text xml:space="preserve" text-anchor="start" x="454" y="-185.28" font-family="Helvetica,sans-Serif" font-weight="bold" font-size="14.00" fill="#ffe66d">Mid Zone</text>
</g>
<g id="clust3" class="cluster">
<title>cluster_outer</title>
<polygon fill="#1a2d1a" stroke="#95d5b2" points="647,-8 647,-208.78 980,-208.78 980,-8 647,-8"/>
<text xml:space="preserve" text-anchor="start" x="777.12" y="-192.48" font-family="Helvetica,sans-Serif" font-weight="bold" font-size="14.00" fill="#95d5b2">Outer Zone</text>
</g>
<g id="clust4" class="cluster">
<title>cluster_extreme</title>
<polygon fill="#1a1a2d" stroke="#4ecdc4" points="988,-115.78 988,-190.78 1161,-190.78 1161,-115.78 988,-115.78"/>
<text xml:space="preserve" text-anchor="start" x="1027.25" y="-174.48" font-family="Helvetica,sans-Serif" font-weight="bold" font-size="14.00" fill="#4ecdc4">Extreme Outer</text>
</g>
<g id="clust9" class="cluster">
<title>cluster_legend</title>
<polygon fill="#1a1a2e" stroke="#4ecdc4" points="625,-219.64 625,-344.91 1483,-344.91 1483,-219.64 625,-219.64"/>
<text xml:space="preserve" text-anchor="start" x="1030" y="-328.61" font-family="Helvetica,sans-Serif" font-weight="bold" font-size="14.00" fill="white">Legend</text>
</g>
<g id="clust10" class="cluster">
<title>cluster_binary</title>
<polygon fill="#1a1a2e" stroke="#ff6b6b" points="1491,-241.9 1491,-322.65 1667,-322.65 1667,-241.9 1491,-241.9"/>
<text xml:space="preserve" text-anchor="start" x="1528" y="-306.35" font-family="Helvetica,sans-Serif" font-weight="bold" font-size="14.00" fill="#ff6b6b">Binary Systems</text>
</g>
<!-- star -->
<g id="node1" class="node">
<title>star</title>
<ellipse fill="#ffe66d" stroke="#ff6b6b" stroke-width="2" cx="561" cy="-270.78" rx="54" ry="54"/>
<text xml:space="preserve" text-anchor="middle" x="561" y="-272.53" font-family="Helvetica,sans-Serif" font-size="10.00" fill="#1a1a2e">Primary</text>
<text xml:space="preserve" text-anchor="middle" x="561" y="-261.28" font-family="Helvetica,sans-Serif" font-size="10.00" fill="#1a1a2e">Star</text>
</g>
<!-- inner1 -->
<g id="node2" class="node">
<title>inner1</title>
<polygon fill="#4d2d2d" stroke="#4ecdc4" stroke-width="2" points="46,-159.78 15.67,-141.78 46,-123.78 76.33,-141.78 46,-159.78"/>
<text xml:space="preserve" text-anchor="middle" x="46" y="-137.9" font-family="Helvetica,sans-Serif" font-size="10.00" fill="white">SL&#45;1</text>
</g>
<!-- star&#45;&gt;inner1 -->
<g id="edge1" class="edge">
<title>star&#45;&gt;inner1</title>
<path fill="none" stroke="#4ecdc4" stroke-width="1.5" stroke-dasharray="5,2" d="M506.21,-268.62C396.45,-265.36 154.3,-253.21 86,-208.78 71.7,-199.47 61.73,-183.09 55.32,-168.98"/>
<polygon fill="#4ecdc4" stroke="#4ecdc4" stroke-width="1.5" points="58.65,-167.89 51.62,-159.96 52.18,-170.54 58.65,-167.89"/>
</g>
<!-- inner2 -->
<g id="node3" class="node">
<title>inner2</title>
<polygon fill="#4d2d2d" stroke="#4ecdc4" stroke-width="2" points="125,-159.78 94.67,-141.78 125,-123.78 155.33,-141.78 125,-159.78"/>
<text xml:space="preserve" text-anchor="middle" x="125" y="-137.9" font-family="Helvetica,sans-Serif" font-size="10.00" fill="white">SL&#45;2</text>
</g>
<!-- star&#45;&gt;inner2 -->
<g id="edge2" class="edge">
<title>star&#45;&gt;inner2</title>
<path fill="none" stroke="#4ecdc4" stroke-width="1.5" stroke-dasharray="5,2" d="M506.19,-267.01C410.95,-261.28 219.86,-245.46 165,-208.78 150.82,-199.29 140.85,-182.91 134.41,-168.85"/>
<polygon fill="#4ecdc4" stroke="#4ecdc4" stroke-width="1.5" points="137.75,-167.77 130.68,-159.87 131.28,-170.45 137.75,-167.77"/>
</g>
<!-- inner3 -->
<g id="node4" class="node">
<title>inner3</title>
<polygon fill="#4d2d2d" stroke="#4ecdc4" stroke-width="2" points="204,-159.78 173.67,-141.78 204,-123.78 234.33,-141.78 204,-159.78"/>
<text xml:space="preserve" text-anchor="middle" x="204" y="-137.9" font-family="Helvetica,sans-Serif" font-size="10.00" fill="white">SL&#45;3</text>
</g>
<!-- star&#45;&gt;inner3 -->
<g id="edge3" class="edge">
<title>star&#45;&gt;inner3</title>
<path fill="none" stroke="#4ecdc4" stroke-width="1.5" stroke-dasharray="5,2" d="M506.36,-264.63C427.25,-256.3 285.69,-237.79 244,-208.78 230.08,-199.09 220.15,-182.85 213.66,-168.9"/>
<polygon fill="#4ecdc4" stroke="#4ecdc4" stroke-width="1.5" points="217.02,-167.86 209.9,-160.01 210.57,-170.59 217.02,-167.86"/>
</g>
<!-- inner4 -->
<g id="node5" class="node">
<title>inner4</title>
<polygon fill="#4d2d2d" stroke="#4ecdc4" stroke-width="2" points="283,-159.78 252.67,-141.78 283,-123.78 313.33,-141.78 283,-159.78"/>
<text xml:space="preserve" text-anchor="middle" x="283" y="-137.9" font-family="Helvetica,sans-Serif" font-size="10.00" fill="white">SL&#45;4</text>
</g>
<!-- star&#45;&gt;inner4 -->
<g id="edge4" class="edge">
<title>star&#45;&gt;inner4</title>
<path fill="none" stroke="#4ecdc4" stroke-width="1.5" stroke-dasharray="5,2" d="M506.53,-266.99C455.33,-261.93 378.74,-247.84 325,-208.78 311.01,-198.61 300.55,-182.23 293.56,-168.33"/>
<polygon fill="#4ecdc4" stroke="#4ecdc4" stroke-width="1.5" points="296.84,-167.09 289.47,-159.49 290.49,-170.03 296.84,-167.09"/>
</g>
<!-- planet1 -->
<g id="node6" class="node">
<title>planet1</title>
<ellipse fill="#3d4d3d" stroke="#95d5b2" stroke-width="2" cx="366" cy="-141.78" rx="28.8" ry="28.8"/>
<text xml:space="preserve" text-anchor="middle" x="366" y="-137.9" font-family="Helvetica,sans-Serif" font-size="10.00" fill="white">Planet</text>
</g>
<!-- star&#45;&gt;planet1 -->
<g id="edge5" class="edge">
<title>star&#45;&gt;planet1</title>
<path fill="none" stroke="#4ecdc4" stroke-width="1.5" stroke-dasharray="5,2" d="M507.53,-258.61C474.73,-249.59 433.51,-234.11 404,-208.78 394.92,-200.98 387.51,-190.44 381.72,-180.08"/>
<polygon fill="#4ecdc4" stroke="#4ecdc4" stroke-width="1.5" points="384.99,-178.78 377.31,-171.48 378.76,-181.97 384.99,-178.78"/>
</g>
<!-- mid1 -->
<g id="node7" class="node">
<title>mid1</title>
<polygon fill="#4d4d2d" stroke="#4ecdc4" stroke-width="2" points="443,-159.78 412.67,-141.78 443,-123.78 473.33,-141.78 443,-159.78"/>
<text xml:space="preserve" text-anchor="middle" x="443" y="-137.9" font-family="Helvetica,sans-Serif" font-size="10.00" fill="white">SL&#45;5</text>
</g>
<!-- star&#45;&gt;mid1 -->
<g id="edge6" class="edge">
<title>star&#45;&gt;mid1</title>
<path fill="none" stroke="#4ecdc4" stroke-width="1.5" stroke-dasharray="5,2" d="M516.07,-239.11C504.56,-230.1 492.7,-219.71 483,-208.78 471.99,-196.38 462.28,-180.54 455.18,-167.49"/>
<polygon fill="#4ecdc4" stroke="#4ecdc4" stroke-width="1.5" points="458.43,-166.16 450.7,-158.91 452.23,-169.39 458.43,-166.16"/>
</g>
<!-- mid2 -->
<g id="node8" class="node">
<title>mid2</title>
<polygon fill="#4d4d2d" stroke="#4ecdc4" stroke-width="2" points="522,-159.78 491.67,-141.78 522,-123.78 552.33,-141.78 522,-159.78"/>
<text xml:space="preserve" text-anchor="middle" x="522" y="-137.9" font-family="Helvetica,sans-Serif" font-size="10.00" fill="white">SL&#45;6</text>
</g>
<!-- star&#45;&gt;mid2 -->
<g id="edge7" class="edge">
<title>star&#45;&gt;mid2</title>
<path fill="none" stroke="#4ecdc4" stroke-width="1.5" stroke-dasharray="5,2" d="M545.14,-218.12C539.98,-201.34 534.48,-183.41 530.13,-169.25"/>
<polygon fill="#4ecdc4" stroke="#4ecdc4" stroke-width="1.5" points="533.59,-168.61 527.31,-160.08 526.9,-170.67 533.59,-168.61"/>
</g>
<!-- mid3 -->
<g id="node9" class="node">
<title>mid3</title>
<polygon fill="#4d4d2d" stroke="#4ecdc4" stroke-width="2" points="601,-159.78 570.67,-141.78 601,-123.78 631.33,-141.78 601,-159.78"/>
<text xml:space="preserve" text-anchor="middle" x="601" y="-137.9" font-family="Helvetica,sans-Serif" font-size="10.00" fill="white">SL&#45;7</text>
</g>
<!-- star&#45;&gt;mid3 -->
<g id="edge8" class="edge">
<title>star&#45;&gt;mid3</title>
<path fill="none" stroke="#4ecdc4" stroke-width="1.5" stroke-dasharray="5,2" d="M577.15,-218.49C582.45,-201.66 588.13,-183.65 592.61,-169.41"/>
<polygon fill="#4ecdc4" stroke="#4ecdc4" stroke-width="1.5" points="595.86,-170.76 595.52,-160.17 589.18,-168.66 595.86,-170.76"/>
</g>
<!-- gas_giant -->
<g id="node12" class="node">
<title>gas_giant</title>
<ellipse fill="#2d4d4d" stroke="#4ecdc4" stroke-width="2" cx="691" cy="-141.78" rx="36" ry="36"/>
<text xml:space="preserve" text-anchor="middle" x="691" y="-143.53" font-family="Helvetica,sans-Serif" font-size="10.00" fill="white">Gas</text>
<text xml:space="preserve" text-anchor="middle" x="691" y="-132.28" font-family="Helvetica,sans-Serif" font-size="10.00" fill="white">Giant</text>
</g>
<!-- star&#45;&gt;gas_giant -->
<g id="edge9" class="edge">
<title>star&#45;&gt;gas_giant</title>
<path fill="none" stroke="#4ecdc4" stroke-width="1.5" stroke-dasharray="5,2" d="M599.72,-231.91C606.49,-226.39 613.71,-221.11 621,-216.78 629.94,-211.46 634.69,-215.04 643,-208.78 651.98,-202.02 660,-193.11 666.8,-184.04"/>
<polygon fill="#4ecdc4" stroke="#4ecdc4" stroke-width="1.5" points="669.5,-186.28 672.37,-176.08 663.77,-182.26 669.5,-186.28"/>
</g>
<!-- outer1 -->
<g id="node13" class="node">
<title>outer1</title>
<polygon fill="#2d4d2d" stroke="#4ecdc4" stroke-width="2" points="775,-159.78 744.67,-141.78 775,-123.78 805.33,-141.78 775,-159.78"/>
<text xml:space="preserve" text-anchor="middle" x="775" y="-137.9" font-family="Helvetica,sans-Serif" font-size="10.00" fill="white">SL&#45;8</text>
</g>
<!-- star&#45;&gt;outer1 -->
<g id="edge10" class="edge">
<title>star&#45;&gt;outer1</title>
<path fill="none" stroke="#4ecdc4" stroke-width="1.5" stroke-dasharray="5,2" d="M598.12,-230.59C605.19,-225.09 612.92,-220.16 621,-216.78 644.63,-206.88 714.2,-222.24 736,-208.78 750.42,-199.87 760.14,-183.5 766.28,-169.28"/>
<polygon fill="#4ecdc4" stroke="#4ecdc4" stroke-width="1.5" points="769.45,-170.77 769.79,-160.18 762.92,-168.25 769.45,-170.77"/>
</g>
<!-- outer2 -->
<g id="node14" class="node">
<title>outer2</title>
<polygon fill="#2d4d2d" stroke="#4ecdc4" stroke-width="2" points="854,-159.78 823.67,-141.78 854,-123.78 884.33,-141.78 854,-159.78"/>
<text xml:space="preserve" text-anchor="middle" x="854" y="-137.9" font-family="Helvetica,sans-Serif" font-size="10.00" fill="white">SL&#45;9</text>
</g>
<!-- star&#45;&gt;outer2 -->
<g id="edge11" class="edge">
<title>star&#45;&gt;outer2</title>
<path fill="none" stroke="#4ecdc4" stroke-width="1.5" stroke-dasharray="5,2" d="M598.04,-230.4C605.12,-224.92 612.88,-220.05 621,-216.78 640.91,-208.77 795.52,-219.7 814,-208.78 828.69,-200.1 838.66,-183.72 844.98,-169.46"/>
<polygon fill="#4ecdc4" stroke="#4ecdc4" stroke-width="1.5" points="848.18,-170.88 848.61,-160.29 841.67,-168.3 848.18,-170.88"/>
</g>
<!-- outer3 -->
<g id="node15" class="node">
<title>outer3</title>
<polygon fill="#2d4d2d" stroke="#4ecdc4" stroke-width="2" points="937,-159.78 902.27,-141.78 937,-123.78 971.73,-141.78 937,-159.78"/>
<text xml:space="preserve" text-anchor="middle" x="937" y="-137.9" font-family="Helvetica,sans-Serif" font-size="10.00" fill="white">SL&#45;10</text>
</g>
<!-- star&#45;&gt;outer3 -->
<g id="edge12" class="edge">
<title>star&#45;&gt;outer3</title>
<path fill="none" stroke="#4ecdc4" stroke-width="1.5" stroke-dasharray="5,2" d="M598,-230.32C605.09,-224.84 612.86,-220 621,-216.78 649.12,-205.66 866.55,-223.44 893,-208.78 908.59,-200.14 919.66,-183.37 926.8,-168.9"/>
<polygon fill="#4ecdc4" stroke="#4ecdc4" stroke-width="1.5" points="929.86,-170.61 930.76,-160.05 923.48,-167.75 929.86,-170.61"/>
</g>
<!-- extreme1 -->
<g id="node17" class="node">
<title>extreme1</title>
<polygon fill="#2d2d4d" stroke="#4ecdc4" stroke-width="2" points="1031,-159.78 996.27,-141.78 1031,-123.78 1065.73,-141.78 1031,-159.78"/>
<text xml:space="preserve" text-anchor="middle" x="1031" y="-137.9" font-family="Helvetica,sans-Serif" font-size="10.00" fill="white">SL&#45;11</text>
</g>
<!-- star&#45;&gt;extreme1 -->
<g id="edge13" class="edge">
<title>star&#45;&gt;extreme1</title>
<path fill="none" stroke="#4ecdc4" stroke-width="1.5" stroke-dasharray="5,2" d="M597.98,-230.27C605.07,-224.8 612.85,-219.97 621,-216.78 658.57,-202.08 948.35,-227.66 984,-208.78 1000.19,-200.21 1012.06,-183.28 1019.83,-168.72"/>
<polygon fill="#4ecdc4" stroke="#4ecdc4" stroke-width="1.5" points="1022.95,-170.31 1024.19,-159.79 1016.66,-167.24 1022.95,-170.31"/>
</g>
<!-- extreme2 -->
<g id="node18" class="node">
<title>extreme2</title>
<polygon fill="#2d2d4d" stroke="#4ecdc4" stroke-width="2" points="1118,-159.78 1083.27,-141.78 1118,-123.78 1152.73,-141.78 1118,-159.78"/>
<text xml:space="preserve" text-anchor="middle" x="1118" y="-137.9" font-family="Helvetica,sans-Serif" font-size="10.00" fill="white">SL&#45;12</text>
</g>
<!-- star&#45;&gt;extreme2 -->
<g id="edge14" class="edge">
<title>star&#45;&gt;extreme2</title>
<path fill="none" stroke="#4ecdc4" stroke-width="1.5" stroke-dasharray="5,2" d="M597.97,-230.23C605.06,-224.77 612.84,-219.95 621,-216.78 644.51,-207.64 1052.93,-220.99 1075,-208.78 1090.48,-200.21 1101.3,-183.44 1108.21,-168.95"/>
<polygon fill="#4ecdc4" stroke="#4ecdc4" stroke-width="1.5" points="1111.28,-170.67 1112.03,-160.1 1104.86,-167.89 1111.28,-170.67"/>
</g>
<!-- planet_l4 -->
<g id="node10" class="node">
<title>planet_l4</title>
<polygon fill="#3d3d2d" stroke="#4ecdc4" stroke-width="2" points="368,-62.14 336.64,-33.26 399.36,-33.26 368,-62.14"/>
<text xml:space="preserve" text-anchor="middle" x="368" y="-39.01" font-family="Helvetica,sans-Serif" font-size="10.00" fill="white">L4</text>
</g>
<!-- planet1&#45;&gt;planet_l4 -->
<g id="edge15" class="edge">
<title>planet1&#45;&gt;planet_l4</title>
<path fill="none" stroke="#ffe66d" stroke-width="1.5" stroke-dasharray="1,5" d="M366.59,-112.23C366.83,-100.59 367.11,-87.09 367.35,-75.18"/>
<polygon fill="#ffe66d" stroke="#ffe66d" stroke-width="1.5" points="370.85,-75.39 367.56,-65.32 363.85,-75.24 370.85,-75.39"/>
</g>
<!-- planet_l5 -->
<g id="node11" class="node">
<title>planet_l5</title>
<polygon fill="#3d3d2d" stroke="#4ecdc4" stroke-width="2" points="449,-62.14 417.64,-33.26 480.36,-33.26 449,-62.14"/>
<text xml:space="preserve" text-anchor="middle" x="449" y="-39.01" font-family="Helvetica,sans-Serif" font-size="10.00" fill="white">L5</text>
</g>
<!-- planet1&#45;&gt;planet_l5 -->
<g id="edge16" class="edge">
<title>planet1&#45;&gt;planet_l5</title>
<path fill="none" stroke="#ffe66d" stroke-width="1.5" stroke-dasharray="1,5" d="M384.83,-118.79C399.01,-102.24 418.29,-79.74 432,-63.73"/>
<polygon fill="#ffe66d" stroke="#ffe66d" stroke-width="1.5" points="434.4,-66.31 438.25,-56.44 429.08,-61.76 434.4,-66.31"/>
</g>
<!-- moon1 -->
<g id="node16" class="node">
<title>moon1</title>
<ellipse fill="#2d3d3d" stroke="#4ecdc4" stroke-width="2" cx="691" cy="-42.89" rx="26.89" ry="26.89"/>
<text xml:space="preserve" text-anchor="middle" x="691" y="-39.01" font-family="Helvetica,sans-Serif" font-size="10.00" fill="white">Moon</text>
</g>
<!-- gas_giant&#45;&gt;moon1 -->
<g id="edge17" class="edge">
<title>gas_giant&#45;&gt;moon1</title>
<path fill="none" stroke="#4ecdc4" stroke-width="1.5" stroke-dasharray="1,5" d="M691,-104.98C691,-97.81 691,-90.25 691,-82.98"/>
<polygon fill="#4ecdc4" stroke="#4ecdc4" stroke-width="1.5" points="694.5,-83.03 691,-73.03 687.5,-83.03 694.5,-83.03"/>
</g>
<!-- leg1 -->
<g id="node19" class="node">
<title>leg1</title>
<path fill="#2d2d44" stroke="#4ecdc4" stroke-width="2" d="M744.36,-298.38C744.36,-298.38 645.14,-273.68 645.14,-273.68 639.32,-272.23 639.32,-269.33 645.14,-267.88 645.14,-267.88 744.36,-243.18 744.36,-243.18 750.18,-241.73 761.82,-241.73 767.64,-243.18 767.64,-243.18 866.86,-267.88 866.86,-267.88 872.68,-269.33 872.68,-272.23 866.86,-273.68 866.86,-273.68 767.64,-298.38 767.64,-298.38 761.82,-299.83 750.18,-299.83 744.36,-298.38"/>
<text xml:space="preserve" text-anchor="middle" x="756" y="-272.53" font-family="Helvetica,sans-Serif" font-size="10.00" fill="white">&lt;&gt; Survey Location (SL)</text>
<text xml:space="preserve" text-anchor="middle" x="756" y="-261.28" font-family="Helvetica,sans-Serif" font-size="10.00" fill="white">May contain jump point</text>
</g>
<!-- leg2 -->
<g id="node20" class="node">
<title>leg2</title>
<path fill="#3d3d2d" stroke="#4ecdc4" stroke-width="2" d="M1075.64,-310.05C1075.64,-310.05 908.15,-253.08 908.15,-253.08 902.47,-251.14 902.79,-249.21 908.79,-249.21 908.79,-249.21 1265.21,-249.21 1265.21,-249.21 1271.21,-249.21 1271.53,-251.14 1265.85,-253.08 1265.85,-253.08 1098.36,-310.05 1098.36,-310.05 1092.68,-311.98 1081.32,-311.98 1075.64,-310.05"/>
<text xml:space="preserve" text-anchor="middle" x="1087" y="-272.53" font-family="Helvetica,sans-Serif" font-size="10.00" fill="white">/\ Planetary Lagrange Point</text>
<text xml:space="preserve" text-anchor="middle" x="1087" y="-261.28" font-family="Helvetica,sans-Serif" font-size="10.00" fill="white">Created by large bodies</text>
</g>
<!-- leg3 -->
<g id="node21" class="node">
<title>leg3</title>
<path fill="#2d2d44" stroke="#4ecdc4" stroke-width="2" d="M1463,-288.78C1463,-288.78 1307,-288.78 1307,-288.78 1301,-288.78 1295,-282.78 1295,-276.78 1295,-276.78 1295,-264.78 1295,-264.78 1295,-258.78 1301,-252.78 1307,-252.78 1307,-252.78 1463,-252.78 1463,-252.78 1469,-252.78 1475,-258.78 1475,-264.78 1475,-264.78 1475,-276.78 1475,-276.78 1475,-282.78 1469,-288.78 1463,-288.78"/>
<text xml:space="preserve" text-anchor="middle" x="1385" y="-272.53" font-family="Helvetica,sans-Serif" font-size="10.00" fill="white">~30 locations per system</text>
<text xml:space="preserve" text-anchor="middle" x="1385" y="-261.28" font-family="Helvetica,sans-Serif" font-size="10.00" fill="white">2&#45;8 typically have jump points</text>
</g>
<!-- binary_note -->
<g id="node22" class="node">
<title>binary_note</title>
<path fill="#3d2d2d" stroke="#4ecdc4" stroke-width="2" d="M1646.62,-291.65C1646.62,-291.65 1511.38,-291.65 1511.38,-291.65 1505.38,-291.65 1499.38,-285.65 1499.38,-279.65 1499.38,-279.65 1499.38,-261.9 1499.38,-261.9 1499.38,-255.9 1505.38,-249.9 1511.38,-249.9 1511.38,-249.9 1646.62,-249.9 1646.62,-249.9 1652.62,-249.9 1658.62,-255.9 1658.62,-261.9 1658.62,-261.9 1658.62,-279.65 1658.62,-279.65 1658.62,-285.65 1652.62,-291.65 1646.62,-291.65"/>
<text xml:space="preserve" text-anchor="middle" x="1579" y="-278.15" font-family="Helvetica,sans-Serif" font-size="10.00" fill="white">Binary/multiple star systems</text>
<text xml:space="preserve" text-anchor="middle" x="1579" y="-266.9" font-family="Helvetica,sans-Serif" font-size="10.00" fill="white">create additional Lagrange points</text>
<text xml:space="preserve" text-anchor="middle" x="1579" y="-255.65" font-family="Helvetica,sans-Serif" font-size="10.00" fill="white">between stellar components</text>
</g>
</g>
</svg>
