<?xml version="1.0" encoding="UTF-8" standalone="no"?>
<!DOCTYPE svg PUBLIC "-//W3C//DTD SVG 1.1//EN"
 "http://www.w3.org/Graphics/SVG/1.1/DTD/svg11.dtd">
<!-- Generated by graphviz version 14.1.2 (20260124.0452)
 -->
<!-- Title: ruin_value_matrix Pages: 1 -->
<svg width="1373pt" height="672pt"
 viewBox="0.00 0.00 1373.00 672.00" xmlns="http://www.w3.org/2000/svg" xmlns:xlink="http://www.w3.org/1999/xlink">
<g id="graph0" class="graph" transform="scale(1 1) rotate(0) translate(4 667.75)">
<title>ruin_value_matrix</title>
<polygon fill="#1a1a2e" stroke="none" points="-4,4 -4,-667.75 1369,-667.75 1369,4 -4,4"/>
<text xml:space="preserve" text-anchor="start" x="549.38" y="-645.55" font-family="Helvetica,sans-Serif" font-weight="bold" font-size="16.00" fill="white">Ruin Site Value Assessment Matrix</text>
<g id="clust1" class="cluster">
<title>cluster_tech</title>
<polygon fill="#1a1a2e" stroke="#4ecdc4" points="859,-381 859,-631.25 1040,-631.25 1040,-381 859,-381"/>
<text xml:space="preserve" text-anchor="start" x="867" y="-614.95" font-family="Helvetica,sans-Serif" font-weight="bold" font-size="14.00" fill="#4ecdc4">Factor 1: Ruin Race Level</text>
</g>
<g id="clust2" class="cluster">
<title>cluster_size</title>
<polygon fill="#1a1a2e" stroke="#4ecdc4" points="616,-381 616,-631.25 789,-631.25 789,-381 616,-381"/>
<text xml:space="preserve" text-anchor="start" x="624.12" y="-614.95" font-family="Helvetica,sans-Serif" font-weight="bold" font-size="14.00" fill="#4ecdc4">Factor 2: Estimated Size</text>
</g>
<g id="clust3" class="cluster">
<title>cluster_location</title>
<polygon fill="#1a1a2e" stroke="#4ecdc4" points="74,-381 74,-631.25 261,-631.25 261,-381 74,-381"/>
<text xml:space="preserve" text-anchor="start" x="82" y="-614.95" font-family="Helvetica,sans-Serif" font-weight="bold" font-size="14.00" fill="#4ecdc4">Factor 3: Body Habitability</text>
</g>
<g id="clust4" class="cluster">
<title>cluster_strategic</title>
<polygon fill="#1a1a2e" stroke="#4ecdc4" points="336,-381 336,-631.25 528,-631.25 528,-381 336,-381"/>
<text xml:space="preserve" text-anchor="start" x="344.25" y="-614.95" font-family="Helvetica,sans-Serif" font-weight="bold" font-size="14.00" fill="#4ecdc4">Factor 4: Strategic Position</text>
</g>
<g id="clust5" class="cluster">
<title>cluster_decision</title>
<polygon fill="#1a1a2e" stroke="#ffe66d" points="565,-8 565,-373 763,-373 763,-8 565,-8"/>
<text xml:space="preserve" text-anchor="start" x="610.38" y="-356.7" font-family="Helvetica,sans-Serif" font-weight="bold" font-size="14.00" fill="#ffe66d">Priority Decision</text>
</g>
<g id="clust6" class="cluster">
<title>cluster_order</title>
<polygon fill="#1a1a2e" stroke="#95d5b2" points="1150,-158.62 1150,-628.38 1357,-628.38 1357,-158.62 1150,-158.62"/>
<text xml:space="preserve" text-anchor="start" x="1158.25" y="-612.08" font-family="Helvetica,sans-Serif" font-weight="bold" font-size="14.00" fill="#95d5b2">Recommended Priority Order</text>
</g>
<!-- tl1_2 -->
<g id="node1" class="node">
<title>tl1_2</title>
<path fill="#4d2d2d" stroke="#ff6b6b" stroke-width="2" d="M1017,-600.25C1017,-600.25 935,-600.25 935,-600.25 929,-600.25 923,-594.25 923,-588.25 923,-588.25 923,-570.5 923,-570.5 923,-564.5 929,-558.5 935,-558.5 935,-558.5 1017,-558.5 1017,-558.5 1023,-558.5 1029,-564.5 1029,-570.5 1029,-570.5 1029,-588.25 1029,-588.25 1029,-594.25 1023,-600.25 1017,-600.25"/>
<text xml:space="preserve" text-anchor="middle" x="976" y="-586.75" font-family="Helvetica,sans-Serif" font-size="10.00" fill="white">TL 1&#45;2</text>
<text xml:space="preserve" text-anchor="middle" x="976" y="-575.5" font-family="Helvetica,sans-Serif" font-size="10.00" fill="white">Max 4,000&#45;8,000 RP</text>
<text xml:space="preserve" text-anchor="middle" x="976" y="-564.25" font-family="Helvetica,sans-Serif" font-size="10.00" fill="white">Early game value</text>
</g>
<!-- tl3_4 -->
<g id="node2" class="node">
<title>tl3_4</title>
<path fill="#3d3d2d" stroke="#ffe66d" stroke-width="2" d="M1020.25,-515.5C1020.25,-515.5 927.75,-515.5 927.75,-515.5 921.75,-515.5 915.75,-509.5 915.75,-503.5 915.75,-503.5 915.75,-485.75 915.75,-485.75 915.75,-479.75 921.75,-473.75 927.75,-473.75 927.75,-473.75 1020.25,-473.75 1020.25,-473.75 1026.25,-473.75 1032.25,-479.75 1032.25,-485.75 1032.25,-485.75 1032.25,-503.5 1032.25,-503.5 1032.25,-509.5 1026.25,-515.5 1020.25,-515.5"/>
<text xml:space="preserve" text-anchor="middle" x="974" y="-502" font-family="Helvetica,sans-Serif" font-size="10.00" fill="white">TL 3&#45;4</text>
<text xml:space="preserve" text-anchor="middle" x="974" y="-490.75" font-family="Helvetica,sans-Serif" font-size="10.00" fill="white">Max 16,000&#45;32,000 RP</text>
<text xml:space="preserve" text-anchor="middle" x="974" y="-479.5" font-family="Helvetica,sans-Serif" font-size="10.00" fill="white">Mid game value</text>
</g>
<!-- tl1_2&#45;&gt;tl3_4 -->
<!-- low_priority -->
<g id="node15" class="node">
<title>low_priority</title>
<path fill="#4d2d2d" stroke="#ff6b6b" stroke-width="2" d="M720,-103.5C720,-103.5 608,-103.5 608,-103.5 602,-103.5 596,-97.5 596,-91.5 596,-91.5 596,-28 596,-28 596,-22 602,-16 608,-16 608,-16 720,-16 720,-16 726,-16 732,-22 732,-28 732,-28 732,-91.5 732,-91.5 732,-97.5 726,-103.5 720,-103.5"/>
<text xml:space="preserve" text-anchor="middle" x="664" y="-90" font-family="Helvetica,sans-Serif" font-size="10.00" fill="white">LOW PRIORITY</text>
<text xml:space="preserve" text-anchor="middle" x="664" y="-78.75" font-family="Helvetica,sans-Serif" font-size="10.00" fill="white">Opportunistic Only</text>
<text xml:space="preserve" text-anchor="middle" x="664" y="-55.5" font-family="Helvetica,sans-Serif" font-size="10.00" fill="white">Low TL anywhere</text>
<text xml:space="preserve" text-anchor="middle" x="664" y="-44.25" font-family="Helvetica,sans-Serif" font-size="10.00" fill="white">or</text>
<text xml:space="preserve" text-anchor="middle" x="664" y="-33" font-family="Helvetica,sans-Serif" font-size="10.00" fill="white">Any TL in Contested Space</text>
<text xml:space="preserve" text-anchor="middle" x="664" y="-21.75" font-family="Helvetica,sans-Serif" font-size="10.00" fill="white">without Fleet Support</text>
</g>
<!-- tl1_2&#45;&gt;low_priority -->
<g id="edge23" class="edge">
<title>tl1_2&#45;&gt;low_priority</title>
<path fill="none" stroke="#ff6b6b" stroke-width="1.5" stroke-dasharray="5,2" d="M1011.47,-557.53C1053.53,-529.83 1118,-476.64 1118,-410.88 1118,-410.88 1118,-410.88 1118,-302.88 1118,-135.69 875.35,-83.55 744.84,-67.59"/>
<polygon fill="#ff6b6b" stroke="#ff6b6b" stroke-width="1.5" points="745.55,-64.15 735.21,-66.46 744.73,-71.1 745.55,-64.15"/>
</g>
<!-- tl5_6 -->
<g id="node3" class="node">
<title>tl5_6</title>
<path fill="#2d4d2d" stroke="#95d5b2" stroke-width="2" d="M976.88,-430.75C976.88,-430.75 879.12,-430.75 879.12,-430.75 873.12,-430.75 867.12,-424.75 867.12,-418.75 867.12,-418.75 867.12,-401 867.12,-401 867.12,-395 873.12,-389 879.12,-389 879.12,-389 976.88,-389 976.88,-389 982.88,-389 988.88,-395 988.88,-401 988.88,-401 988.88,-418.75 988.88,-418.75 988.88,-424.75 982.88,-430.75 976.88,-430.75"/>
<text xml:space="preserve" text-anchor="middle" x="928" y="-417.25" font-family="Helvetica,sans-Serif" font-size="10.00" fill="white">TL 5&#45;6</text>
<text xml:space="preserve" text-anchor="middle" x="928" y="-406" font-family="Helvetica,sans-Serif" font-size="10.00" fill="white">Max 64,000&#45;128,000 RP</text>
<text xml:space="preserve" text-anchor="middle" x="928" y="-394.75" font-family="Helvetica,sans-Serif" font-size="10.00" fill="white">Late game value</text>
</g>
<!-- tl3_4&#45;&gt;tl5_6 -->
<!-- medium_priority -->
<g id="node14" class="node">
<title>medium_priority</title>
<path fill="#3d3d2d" stroke="#ffe66d" stroke-width="2" d="M713.25,-222.75C713.25,-222.75 614.75,-222.75 614.75,-222.75 608.75,-222.75 602.75,-216.75 602.75,-210.75 602.75,-210.75 602.75,-158.5 602.75,-158.5 602.75,-152.5 608.75,-146.5 614.75,-146.5 614.75,-146.5 713.25,-146.5 713.25,-146.5 719.25,-146.5 725.25,-152.5 725.25,-158.5 725.25,-158.5 725.25,-210.75 725.25,-210.75 725.25,-216.75 719.25,-222.75 713.25,-222.75"/>
<text xml:space="preserve" text-anchor="middle" x="664" y="-209.25" font-family="Helvetica,sans-Serif" font-size="10.00" fill="white">MEDIUM PRIORITY</text>
<text xml:space="preserve" text-anchor="middle" x="664" y="-198" font-family="Helvetica,sans-Serif" font-size="10.00" fill="white">Plan Expedition</text>
<text xml:space="preserve" text-anchor="middle" x="664" y="-174.75" font-family="Helvetica,sans-Serif" font-size="10.00" fill="white">Mid TL + Medium Size</text>
<text xml:space="preserve" text-anchor="middle" x="664" y="-163.5" font-family="Helvetica,sans-Serif" font-size="10.00" fill="white">or</text>
<text xml:space="preserve" text-anchor="middle" x="664" y="-152.25" font-family="Helvetica,sans-Serif" font-size="10.00" fill="white">High TL on Hostile Body</text>
</g>
<!-- tl3_4&#45;&gt;medium_priority -->
<g id="edge19" class="edge">
<title>tl3_4&#45;&gt;medium_priority</title>
<path fill="none" stroke="#ffe66d" stroke-width="1.5" stroke-dasharray="5,2" d="M989.35,-472.94C1004.77,-449.42 1023.99,-410.48 1007,-381 949.53,-281.3 819.87,-228.33 737.46,-203.69"/>
<polygon fill="#ffe66d" stroke="#ffe66d" stroke-width="1.5" points="738.67,-200.39 728.09,-200.96 736.71,-207.11 738.67,-200.39"/>
</g>
<!-- high_priority -->
<g id="node13" class="node">
<title>high_priority</title>
<path fill="#2d4d2d" stroke="#95d5b2" stroke-width="2" d="M742.88,-342C742.88,-342 585.12,-342 585.12,-342 579.12,-342 573.12,-336 573.12,-330 573.12,-330 573.12,-277.75 573.12,-277.75 573.12,-271.75 579.12,-265.75 585.12,-265.75 585.12,-265.75 742.88,-265.75 742.88,-265.75 748.88,-265.75 754.88,-271.75 754.88,-277.75 754.88,-277.75 754.88,-330 754.88,-330 754.88,-336 748.88,-342 742.88,-342"/>
<text xml:space="preserve" text-anchor="middle" x="664" y="-328.5" font-family="Helvetica,sans-Serif" font-size="10.00" fill="white">HIGH PRIORITY</text>
<text xml:space="preserve" text-anchor="middle" x="664" y="-317.25" font-family="Helvetica,sans-Serif" font-size="10.00" fill="white">Excavate Immediately</text>
<text xml:space="preserve" text-anchor="middle" x="664" y="-294" font-family="Helvetica,sans-Serif" font-size="10.00" fill="white">High TL + Large + Habitable + Secure</text>
<text xml:space="preserve" text-anchor="middle" x="664" y="-282.75" font-family="Helvetica,sans-Serif" font-size="10.00" fill="white">or</text>
<text xml:space="preserve" text-anchor="middle" x="664" y="-271.5" font-family="Helvetica,sans-Serif" font-size="10.00" fill="white">Any TL in Starting System</text>
</g>
<!-- tl5_6&#45;&gt;high_priority -->
<g id="edge15" class="edge">
<title>tl5_6&#45;&gt;high_priority</title>
<path fill="none" stroke="#95d5b2" stroke-width="1.5" stroke-dasharray="5,2" d="M875.21,-388.08C844.26,-375.88 804.08,-360.06 767.09,-345.48"/>
<polygon fill="#95d5b2" stroke="#95d5b2" stroke-width="1.5" points="768.42,-342.25 757.83,-341.84 765.86,-348.76 768.42,-342.25"/>
</g>
<!-- small -->
<g id="node4" class="node">
<title>small</title>
<path fill="#4d2d2d" stroke="#ff6b6b" stroke-width="2" d="M718.75,-600.25C718.75,-600.25 653.25,-600.25 653.25,-600.25 647.25,-600.25 641.25,-594.25 641.25,-588.25 641.25,-588.25 641.25,-570.5 641.25,-570.5 641.25,-564.5 647.25,-558.5 653.25,-558.5 653.25,-558.5 718.75,-558.5 718.75,-558.5 724.75,-558.5 730.75,-564.5 730.75,-570.5 730.75,-570.5 730.75,-588.25 730.75,-588.25 730.75,-594.25 724.75,-600.25 718.75,-600.25"/>
<text xml:space="preserve" text-anchor="middle" x="686" y="-586.75" font-family="Helvetica,sans-Serif" font-size="10.00" fill="white">Small</text>
<text xml:space="preserve" text-anchor="middle" x="686" y="-575.5" font-family="Helvetica,sans-Serif" font-size="10.00" fill="white">Few installations</text>
<text xml:space="preserve" text-anchor="middle" x="686" y="-564.25" font-family="Helvetica,sans-Serif" font-size="10.00" fill="white">Quick depletion</text>
</g>
<!-- medium -->
<g id="node5" class="node">
<title>medium</title>
<path fill="#3d3d2d" stroke="#ffe66d" stroke-width="2" d="M746.62,-515.5C746.62,-515.5 659.38,-515.5 659.38,-515.5 653.38,-515.5 647.38,-509.5 647.38,-503.5 647.38,-503.5 647.38,-485.75 647.38,-485.75 647.38,-479.75 653.38,-473.75 659.38,-473.75 659.38,-473.75 746.62,-473.75 746.62,-473.75 752.62,-473.75 758.62,-479.75 758.62,-485.75 758.62,-485.75 758.62,-503.5 758.62,-503.5 758.62,-509.5 752.62,-515.5 746.62,-515.5"/>
<text xml:space="preserve" text-anchor="middle" x="703" y="-502" font-family="Helvetica,sans-Serif" font-size="10.00" fill="white">Medium</text>
<text xml:space="preserve" text-anchor="middle" x="703" y="-490.75" font-family="Helvetica,sans-Serif" font-size="10.00" fill="white">Moderate installations</text>
<text xml:space="preserve" text-anchor="middle" x="703" y="-479.5" font-family="Helvetica,sans-Serif" font-size="10.00" fill="white">Sustained returns</text>
</g>
<!-- small&#45;&gt;medium -->
<!-- small&#45;&gt;low_priority -->
<g id="edge24" class="edge">
<title>small&#45;&gt;low_priority</title>
<path fill="none" stroke="#ff6b6b" stroke-width="1.5" stroke-dasharray="5,2" d="M659.92,-557.68C648.07,-546.59 635.31,-531.86 629,-515.5 607.48,-459.73 587.92,-424.43 629,-381 651.02,-357.72 750.98,-396.28 773,-373 805.76,-338.37 778.86,-313.06 773,-265.75 766.28,-211.51 768.98,-194.58 743,-146.5 736.67,-134.79 728.39,-123.44 719.56,-113.04"/>
<polygon fill="#ff6b6b" stroke="#ff6b6b" stroke-width="1.5" points="722.46,-111.03 713.21,-105.86 717.21,-115.67 722.46,-111.03"/>
</g>
<!-- large -->
<g id="node6" class="node">
<title>large</title>
<path fill="#2d4d2d" stroke="#95d5b2" stroke-width="2" d="M745.25,-430.75C745.25,-430.75 658.75,-430.75 658.75,-430.75 652.75,-430.75 646.75,-424.75 646.75,-418.75 646.75,-418.75 646.75,-401 646.75,-401 646.75,-395 652.75,-389 658.75,-389 658.75,-389 745.25,-389 745.25,-389 751.25,-389 757.25,-395 757.25,-401 757.25,-401 757.25,-418.75 757.25,-418.75 757.25,-424.75 751.25,-430.75 745.25,-430.75"/>
<text xml:space="preserve" text-anchor="middle" x="702" y="-417.25" font-family="Helvetica,sans-Serif" font-size="10.00" fill="white">Large</text>
<text xml:space="preserve" text-anchor="middle" x="702" y="-406" font-family="Helvetica,sans-Serif" font-size="10.00" fill="white">Many installations</text>
<text xml:space="preserve" text-anchor="middle" x="702" y="-394.75" font-family="Helvetica,sans-Serif" font-size="10.00" fill="white">Long&#45;term investment</text>
</g>
<!-- medium&#45;&gt;large -->
<!-- medium&#45;&gt;medium_priority -->
<g id="edge20" class="edge">
<title>medium&#45;&gt;medium_priority</title>
<path fill="none" stroke="#ffe66d" stroke-width="1.5" stroke-dasharray="5,2" d="M737.66,-472.95C752.04,-462.33 767.17,-447.97 775,-430.75 785.7,-407.2 794.74,-307.8 773,-265.75 764.46,-249.23 750.78,-235.27 735.96,-223.86"/>
<polygon fill="#ffe66d" stroke="#ffe66d" stroke-width="1.5" points="738.09,-221.08 727.93,-218.06 733.99,-226.76 738.09,-221.08"/>
</g>
<!-- large&#45;&gt;high_priority -->
<g id="edge16" class="edge">
<title>large&#45;&gt;high_priority</title>
<path fill="none" stroke="#95d5b2" stroke-width="1.5" stroke-dasharray="5,2" d="M694.49,-388.33C690.89,-378.46 686.4,-366.17 681.98,-354.08"/>
<polygon fill="#95d5b2" stroke="#95d5b2" stroke-width="1.5" points="685.3,-352.96 678.58,-344.77 678.72,-355.36 685.3,-352.96"/>
</g>
<!-- hostile -->
<g id="node7" class="node">
<title>hostile</title>
<path fill="#4d2d2d" stroke="#ff6b6b" stroke-width="2" d="M185.5,-600.25C185.5,-600.25 94.5,-600.25 94.5,-600.25 88.5,-600.25 82.5,-594.25 82.5,-588.25 82.5,-588.25 82.5,-570.5 82.5,-570.5 82.5,-564.5 88.5,-558.5 94.5,-558.5 94.5,-558.5 185.5,-558.5 185.5,-558.5 191.5,-558.5 197.5,-564.5 197.5,-570.5 197.5,-570.5 197.5,-588.25 197.5,-588.25 197.5,-594.25 191.5,-600.25 185.5,-600.25"/>
<text xml:space="preserve" text-anchor="middle" x="140" y="-586.75" font-family="Helvetica,sans-Serif" font-size="10.00" fill="white">Hostile Body</text>
<text xml:space="preserve" text-anchor="middle" x="140" y="-575.5" font-family="Helvetica,sans-Serif" font-size="10.00" fill="white">Requires infrastructure</text>
<text xml:space="preserve" text-anchor="middle" x="140" y="-564.25" font-family="Helvetica,sans-Serif" font-size="10.00" fill="white">High setup cost</text>
</g>
<!-- marginal -->
<g id="node8" class="node">
<title>marginal</title>
<path fill="#3d3d2d" stroke="#ffe66d" stroke-width="2" d="M176.12,-515.5C176.12,-515.5 103.88,-515.5 103.88,-515.5 97.88,-515.5 91.88,-509.5 91.88,-503.5 91.88,-503.5 91.88,-485.75 91.88,-485.75 91.88,-479.75 97.88,-473.75 103.88,-473.75 103.88,-473.75 176.12,-473.75 176.12,-473.75 182.12,-473.75 188.12,-479.75 188.12,-485.75 188.12,-485.75 188.12,-503.5 188.12,-503.5 188.12,-509.5 182.12,-515.5 176.12,-515.5"/>
<text xml:space="preserve" text-anchor="middle" x="140" y="-502" font-family="Helvetica,sans-Serif" font-size="10.00" fill="white">Marginal Body</text>
<text xml:space="preserve" text-anchor="middle" x="140" y="-490.75" font-family="Helvetica,sans-Serif" font-size="10.00" fill="white">Some terraforming</text>
<text xml:space="preserve" text-anchor="middle" x="140" y="-479.5" font-family="Helvetica,sans-Serif" font-size="10.00" fill="white">Moderate cost</text>
</g>
<!-- hostile&#45;&gt;marginal -->
<!-- hostile&#45;&gt;low_priority -->
<g id="edge25" class="edge">
<title>hostile&#45;&gt;low_priority</title>
<path fill="none" stroke="#ff6b6b" stroke-width="1.5" stroke-dasharray="5,2" d="M105.39,-557.65C63.94,-529.88 0,-476.44 0,-410.88 0,-410.88 0,-410.88 0,-302.88 0,-180.07 405.98,-101.27 583.04,-72.75"/>
<polygon fill="#ff6b6b" stroke="#ff6b6b" stroke-width="1.5" points="583.56,-76.21 592.89,-71.18 582.46,-69.3 583.56,-76.21"/>
</g>
<!-- habitable -->
<g id="node9" class="node">
<title>habitable</title>
<path fill="#2d4d2d" stroke="#95d5b2" stroke-width="2" d="M240.62,-430.75C240.62,-430.75 141.38,-430.75 141.38,-430.75 135.38,-430.75 129.38,-424.75 129.38,-418.75 129.38,-418.75 129.38,-401 129.38,-401 129.38,-395 135.38,-389 141.38,-389 141.38,-389 240.62,-389 240.62,-389 246.62,-389 252.62,-395 252.62,-401 252.62,-401 252.62,-418.75 252.62,-418.75 252.62,-424.75 246.62,-430.75 240.62,-430.75"/>
<text xml:space="preserve" text-anchor="middle" x="191" y="-417.25" font-family="Helvetica,sans-Serif" font-size="10.00" fill="white">Habitable World</text>
<text xml:space="preserve" text-anchor="middle" x="191" y="-406" font-family="Helvetica,sans-Serif" font-size="10.00" fill="white">No infrastructure needed</text>
<text xml:space="preserve" text-anchor="middle" x="191" y="-394.75" font-family="Helvetica,sans-Serif" font-size="10.00" fill="white">Low setup cost</text>
</g>
<!-- marginal&#45;&gt;habitable -->
<!-- marginal&#45;&gt;medium_priority -->
<g id="edge21" class="edge">
<title>marginal&#45;&gt;medium_priority</title>
<path fill="none" stroke="#ffe66d" stroke-width="1.5" stroke-dasharray="5,2" d="M125.74,-473.07C111.2,-449.33 93.13,-409.83 111,-381 212.1,-217.88 464.08,-189.05 589.97,-185.19"/>
<polygon fill="#ffe66d" stroke="#ffe66d" stroke-width="1.5" points="589.94,-188.69 599.85,-184.94 589.77,-181.69 589.94,-188.69"/>
</g>
<!-- habitable&#45;&gt;high_priority -->
<g id="edge17" class="edge">
<title>habitable&#45;&gt;high_priority</title>
<path fill="none" stroke="#95d5b2" stroke-width="1.5" stroke-dasharray="5,2" d="M253.32,-395.17C331.51,-377.98 466.68,-348.26 560.49,-327.63"/>
<polygon fill="#95d5b2" stroke="#95d5b2" stroke-width="1.5" points="561.06,-331.09 570.08,-325.53 559.56,-324.25 561.06,-331.09"/>
</g>
<!-- contested -->
<g id="node10" class="node">
<title>contested</title>
<path fill="#4d2d2d" stroke="#ff6b6b" stroke-width="2" d="M480.5,-600.25C480.5,-600.25 383.5,-600.25 383.5,-600.25 377.5,-600.25 371.5,-594.25 371.5,-588.25 371.5,-588.25 371.5,-570.5 371.5,-570.5 371.5,-564.5 377.5,-558.5 383.5,-558.5 383.5,-558.5 480.5,-558.5 480.5,-558.5 486.5,-558.5 492.5,-564.5 492.5,-570.5 492.5,-570.5 492.5,-588.25 492.5,-588.25 492.5,-594.25 486.5,-600.25 480.5,-600.25"/>
<text xml:space="preserve" text-anchor="middle" x="432" y="-586.75" font-family="Helvetica,sans-Serif" font-size="10.00" fill="white">Contested Space</text>
<text xml:space="preserve" text-anchor="middle" x="432" y="-575.5" font-family="Helvetica,sans-Serif" font-size="10.00" fill="white">Fleet protection required</text>
<text xml:space="preserve" text-anchor="middle" x="432" y="-564.25" font-family="Helvetica,sans-Serif" font-size="10.00" fill="white">High risk</text>
</g>
<!-- frontier -->
<g id="node11" class="node">
<title>frontier</title>
<path fill="#3d3d2d" stroke="#ffe66d" stroke-width="2" d="M443.12,-515.5C443.12,-515.5 382.88,-515.5 382.88,-515.5 376.88,-515.5 370.88,-509.5 370.88,-503.5 370.88,-503.5 370.88,-485.75 370.88,-485.75 370.88,-479.75 376.88,-473.75 382.88,-473.75 382.88,-473.75 443.12,-473.75 443.12,-473.75 449.12,-473.75 455.12,-479.75 455.12,-485.75 455.12,-485.75 455.12,-503.5 455.12,-503.5 455.12,-509.5 449.12,-515.5 443.12,-515.5"/>
<text xml:space="preserve" text-anchor="middle" x="413" y="-502" font-family="Helvetica,sans-Serif" font-size="10.00" fill="white">Frontier</text>
<text xml:space="preserve" text-anchor="middle" x="413" y="-490.75" font-family="Helvetica,sans-Serif" font-size="10.00" fill="white">Some exposure</text>
<text xml:space="preserve" text-anchor="middle" x="413" y="-479.5" font-family="Helvetica,sans-Serif" font-size="10.00" fill="white">Moderate risk</text>
</g>
<!-- contested&#45;&gt;frontier -->
<!-- contested&#45;&gt;low_priority -->
<g id="edge26" class="edge">
<title>contested&#45;&gt;low_priority</title>
<path fill="none" stroke="#ff6b6b" stroke-width="1.5" stroke-dasharray="5,2" d="M450.87,-557.66C476.19,-527.64 518,-469.22 518,-410.88 518,-410.88 518,-410.88 518,-302.88 518,-229.25 568.13,-158.77 609.63,-113.04"/>
<polygon fill="#ff6b6b" stroke="#ff6b6b" stroke-width="1.5" points="612.03,-115.6 616.26,-105.89 606.9,-110.84 612.03,-115.6"/>
</g>
<!-- secure -->
<g id="node12" class="node">
<title>secure</title>
<path fill="#2d4d2d" stroke="#95d5b2" stroke-width="2" d="M451.38,-430.75C451.38,-430.75 374.62,-430.75 374.62,-430.75 368.62,-430.75 362.62,-424.75 362.62,-418.75 362.62,-418.75 362.62,-401 362.62,-401 362.62,-395 368.62,-389 374.62,-389 374.62,-389 451.38,-389 451.38,-389 457.38,-389 463.38,-395 463.38,-401 463.38,-401 463.38,-418.75 463.38,-418.75 463.38,-424.75 457.38,-430.75 451.38,-430.75"/>
<text xml:space="preserve" text-anchor="middle" x="413" y="-417.25" font-family="Helvetica,sans-Serif" font-size="10.00" fill="white">Secure Territory</text>
<text xml:space="preserve" text-anchor="middle" x="413" y="-406" font-family="Helvetica,sans-Serif" font-size="10.00" fill="white">No military concern</text>
<text xml:space="preserve" text-anchor="middle" x="413" y="-394.75" font-family="Helvetica,sans-Serif" font-size="10.00" fill="white">Low risk</text>
</g>
<!-- frontier&#45;&gt;secure -->
<!-- frontier&#45;&gt;medium_priority -->
<g id="edge22" class="edge">
<title>frontier&#45;&gt;medium_priority</title>
<path fill="none" stroke="#ffe66d" stroke-width="1.5" stroke-dasharray="5,2" d="M380.58,-472.83C366.88,-462.1 352.41,-447.69 345,-430.75 336.14,-410.49 334.19,-400.29 345,-381 397.08,-288.04 513.44,-233.98 590.29,-207.15"/>
<polygon fill="#ffe66d" stroke="#ffe66d" stroke-width="1.5" points="591.31,-210.5 599.65,-203.96 589.06,-203.87 591.31,-210.5"/>
</g>
<!-- secure&#45;&gt;high_priority -->
<g id="edge18" class="edge">
<title>secure&#45;&gt;high_priority</title>
<path fill="none" stroke="#95d5b2" stroke-width="1.5" stroke-dasharray="5,2" d="M463.19,-388.08C491.33,-376.42 527.49,-361.44 561.35,-347.41"/>
<polygon fill="#95d5b2" stroke="#95d5b2" stroke-width="1.5" points="562.26,-350.82 570.16,-343.76 559.58,-344.35 562.26,-350.82"/>
</g>
<!-- high_priority&#45;&gt;medium_priority -->
<!-- medium_priority&#45;&gt;low_priority -->
<!-- p1 -->
<g id="node16" class="node">
<title>p1</title>
<path fill="#2d4d2d" stroke="#95d5b2" stroke-width="2" d="M1326.25,-597.38C1326.25,-597.38 1173.75,-597.38 1173.75,-597.38 1167.75,-597.38 1161.75,-591.38 1161.75,-585.38 1161.75,-585.38 1161.75,-573.38 1161.75,-573.38 1161.75,-567.38 1167.75,-561.38 1173.75,-561.38 1173.75,-561.38 1326.25,-561.38 1326.25,-561.38 1332.25,-561.38 1338.25,-567.38 1338.25,-573.38 1338.25,-573.38 1338.25,-585.38 1338.25,-585.38 1338.25,-591.38 1332.25,-597.38 1326.25,-597.38"/>
<text xml:space="preserve" text-anchor="middle" x="1250" y="-575.5" font-family="Helvetica,sans-Serif" font-size="10.00" fill="white">1. High TL + Habitable + Near Home</text>
</g>
<!-- p2 -->
<g id="node17" class="node">
<title>p2</title>
<path fill="#2d4d3d" stroke="#95d5b2" stroke-width="2" d="M1313.88,-512.62C1313.88,-512.62 1186.12,-512.62 1186.12,-512.62 1180.12,-512.62 1174.12,-506.62 1174.12,-500.62 1174.12,-500.62 1174.12,-488.62 1174.12,-488.62 1174.12,-482.62 1180.12,-476.62 1186.12,-476.62 1186.12,-476.62 1313.88,-476.62 1313.88,-476.62 1319.88,-476.62 1325.88,-482.62 1325.88,-488.62 1325.88,-488.62 1325.88,-500.62 1325.88,-500.62 1325.88,-506.62 1319.88,-512.62 1313.88,-512.62"/>
<text xml:space="preserve" text-anchor="middle" x="1250" y="-490.75" font-family="Helvetica,sans-Serif" font-size="10.00" fill="white">2. Any ruins in Starting System</text>
</g>
<!-- p1&#45;&gt;p2 -->
<g id="edge11" class="edge">
<title>p1&#45;&gt;p2</title>
<path fill="none" stroke="#4ecdc4" stroke-width="1.5" d="M1250,-560.42C1250,-550.23 1250,-537.21 1250,-525.51"/>
<polygon fill="#4ecdc4" stroke="#4ecdc4" stroke-width="1.5" points="1253.5,-525.82 1250,-515.82 1246.5,-525.82 1253.5,-525.82"/>
</g>
<!-- p3 -->
<g id="node18" class="node">
<title>p3</title>
<path fill="#3d3d2d" stroke="#ffe66d" stroke-width="2" d="M1308.62,-427.88C1308.62,-427.88 1191.38,-427.88 1191.38,-427.88 1185.38,-427.88 1179.38,-421.88 1179.38,-415.88 1179.38,-415.88 1179.38,-403.88 1179.38,-403.88 1179.38,-397.88 1185.38,-391.88 1191.38,-391.88 1191.38,-391.88 1308.62,-391.88 1308.62,-391.88 1314.62,-391.88 1320.62,-397.88 1320.62,-403.88 1320.62,-403.88 1320.62,-415.88 1320.62,-415.88 1320.62,-421.88 1314.62,-427.88 1308.62,-427.88"/>
<text xml:space="preserve" text-anchor="middle" x="1250" y="-406" font-family="Helvetica,sans-Serif" font-size="10.00" fill="white">3. High TL on Hostile Bodies</text>
</g>
<!-- p2&#45;&gt;p3 -->
<g id="edge12" class="edge">
<title>p2&#45;&gt;p3</title>
<path fill="none" stroke="#4ecdc4" stroke-width="1.5" d="M1250,-475.67C1250,-465.48 1250,-452.46 1250,-440.76"/>
<polygon fill="#4ecdc4" stroke="#4ecdc4" stroke-width="1.5" points="1253.5,-441.07 1250,-431.07 1246.5,-441.07 1253.5,-441.07"/>
</g>
<!-- p4 -->
<g id="node19" class="node">
<title>p4</title>
<path fill="#3d3d3d" stroke="#ffe66d" stroke-width="2" d="M1315,-321.88C1315,-321.88 1185,-321.88 1185,-321.88 1179,-321.88 1173,-315.88 1173,-309.88 1173,-309.88 1173,-297.88 1173,-297.88 1173,-291.88 1179,-285.88 1185,-285.88 1185,-285.88 1315,-285.88 1315,-285.88 1321,-285.88 1327,-291.88 1327,-297.88 1327,-297.88 1327,-309.88 1327,-309.88 1327,-315.88 1321,-321.88 1315,-321.88"/>
<text xml:space="preserve" text-anchor="middle" x="1250" y="-300" font-family="Helvetica,sans-Serif" font-size="10.00" fill="white">4. Low TL anywhere (gap&#45;filling)</text>
</g>
<!-- p3&#45;&gt;p4 -->
<g id="edge13" class="edge">
<title>p3&#45;&gt;p4</title>
<path fill="none" stroke="#4ecdc4" stroke-width="1.5" d="M1250,-391.23C1250,-375.77 1250,-352.97 1250,-334.68"/>
<polygon fill="#4ecdc4" stroke="#4ecdc4" stroke-width="1.5" points="1253.5,-334.87 1250,-324.87 1246.5,-334.87 1253.5,-334.87"/>
</g>
<!-- p5 -->
<g id="node20" class="node">
<title>p5</title>
<path fill="#4d2d2d" stroke="#ff6b6b" stroke-width="2" d="M1309,-202.62C1309,-202.62 1191,-202.62 1191,-202.62 1185,-202.62 1179,-196.62 1179,-190.62 1179,-190.62 1179,-178.62 1179,-178.62 1179,-172.62 1185,-166.62 1191,-166.62 1191,-166.62 1309,-166.62 1309,-166.62 1315,-166.62 1321,-172.62 1321,-178.62 1321,-178.62 1321,-190.62 1321,-190.62 1321,-196.62 1315,-202.62 1309,-202.62"/>
<text xml:space="preserve" text-anchor="middle" x="1250" y="-180.75" font-family="Helvetica,sans-Serif" font-size="10.00" fill="white">5. Ruins in Contested Space</text>
</g>
<!-- p4&#45;&gt;p5 -->
<g id="edge14" class="edge">
<title>p4&#45;&gt;p5</title>
<path fill="none" stroke="#4ecdc4" stroke-width="1.5" d="M1250,-285.07C1250,-266.65 1250,-237.55 1250,-215.58"/>
<polygon fill="#4ecdc4" stroke="#4ecdc4" stroke-width="1.5" points="1253.5,-215.87 1250,-205.87 1246.5,-215.87 1253.5,-215.87"/>
</g>
</g>
</svg>
