<?xml version="1.0" encoding="UTF-8" standalone="no"?>
<!DOCTYPE svg PUBLIC "-//W3C//DTD SVG 1.1//EN"
 "http://www.w3.org/Graphics/SVG/1.1/DTD/svg11.dtd">
<!-- Generated by graphviz version 14.1.2 (20260124.0452)
 -->
<!-- Title: excavation_rate Pages: 1 -->
<svg width="1047pt" height="944pt"
 viewBox="0.00 0.00 1047.00 944.00" xmlns="http://www.w3.org/2000/svg" xmlns:xlink="http://www.w3.org/1999/xlink">
<g id="graph0" class="graph" transform="scale(1 1) rotate(0) translate(4 939.75)">
<title>excavation_rate</title>
<polygon fill="#1a1a2e" stroke="none" points="-4,4 -4,-939.75 1043,-939.75 1043,4 -4,4"/>
<text xml:space="preserve" text-anchor="start" x="320.38" y="-917.55" font-family="Helvetica,sans-Serif" font-weight="bold" font-size="16.00" fill="white">Xenoarchaeology: Success Rate and Expected Time</text>
<g id="clust1" class="cluster">
<title>cluster_formula</title>
<polygon fill="#1a1a2e" stroke="#95d5b2" points="146,-438 146,-513 362,-513 362,-438 146,-438"/>
<text xml:space="preserve" text-anchor="start" x="209.75" y="-496.7" font-family="Helvetica,sans-Serif" font-weight="bold" font-size="14.00" fill="#95d5b2">Core Formula</text>
</g>
<g id="clust2" class="cluster">
<title>cluster_inputs</title>
<polygon fill="#1a1a2e" stroke="#4ecdc4" points="172,-524 172,-888.75 346,-888.75 346,-524 172,-524"/>
<text xml:space="preserve" text-anchor="start" x="180.25" y="-872.45" font-family="Helvetica,sans-Serif" font-weight="bold" font-size="14.00" fill="#4ecdc4">Xenoarchaeology Points</text>
</g>
<g id="clust3" class="cluster">
<title>cluster_rates</title>
<polygon fill="#1a1a2e" stroke="#ffe66d" points="8,-8 8,-427 202,-427 202,-8 8,-8"/>
<text xml:space="preserve" text-anchor="start" x="16.12" y="-410.7" font-family="Helvetica,sans-Serif" font-weight="bold" font-size="14.00" fill="#ffe66d">Annual Success Probability</text>
</g>
<g id="clust4" class="cluster">
<title>cluster_expected</title>
<polygon fill="#1a1a2e" stroke="#ff6b6b" points="354,-813.75 354,-888.75 606,-888.75 606,-813.75 354,-813.75"/>
<text xml:space="preserve" text-anchor="start" x="362.25" y="-872.45" font-family="Helvetica,sans-Serif" font-weight="bold" font-size="14.00" fill="#ff6b6b">Expected Time Between Discoveries</text>
</g>
<g id="clust5" class="cluster">
<title>cluster_recommend</title>
<polygon fill="#1a1a2e" stroke="#4ecdc4" points="614,-615.75 614,-891.62 823,-891.62 823,-615.75 614,-615.75"/>
<text xml:space="preserve" text-anchor="start" x="622.12" y="-875.33" font-family="Helvetica,sans-Serif" font-weight="bold" font-size="14.00" fill="white">Team Size Recommendations</text>
</g>
<g id="clust7" class="cluster">
<title>cluster_phase</title>
<polygon fill="#1a1a2e" stroke="#4ecdc4" points="831,-799.25 831,-903.25 1031,-903.25 1031,-799.25 831,-799.25"/>
<text xml:space="preserve" text-anchor="start" x="841.38" y="-886.95" font-family="Helvetica,sans-Serif" font-weight="bold" font-size="14.00" fill="#4ecdc4">Construction Phase Scaling</text>
</g>
<!-- formula -->
<g id="node1" class="node">
<title>formula</title>
<path fill="#2d4d3d" stroke="#95d5b2" stroke-width="2" d="M342.25,-482C342.25,-482 165.75,-482 165.75,-482 159.75,-482 153.75,-476 153.75,-470 153.75,-470 153.75,-458 153.75,-458 153.75,-452 159.75,-446 165.75,-446 165.75,-446 342.25,-446 342.25,-446 348.25,-446 354.25,-452 354.25,-458 354.25,-458 354.25,-470 354.25,-470 354.25,-476 348.25,-482 342.25,-482"/>
<text xml:space="preserve" text-anchor="middle" x="254" y="-465.75" font-family="Helvetica,sans-Serif" font-size="10.00" fill="white">Annual Success Rate = Total Xeno Points</text>
<text xml:space="preserve" text-anchor="middle" x="254" y="-454.5" font-family="Helvetica,sans-Serif" font-size="10.00" fill="white">(e.g., 40 points = 40% per year)</text>
</g>
<!-- rate10 -->
<g id="node6" class="node">
<title>rate10</title>
<path fill="#4d2d2d" stroke="#ff6b6b" stroke-width="2" d="M89.88,-396C89.88,-396 28.13,-396 28.13,-396 22.13,-396 16.12,-390 16.12,-384 16.12,-384 16.12,-372 16.12,-372 16.12,-366 22.12,-360 28.12,-360 28.12,-360 89.88,-360 89.88,-360 95.88,-360 101.88,-366 101.88,-372 101.88,-372 101.88,-384 101.88,-384 101.88,-390 95.88,-396 89.88,-396"/>
<text xml:space="preserve" text-anchor="middle" x="59" y="-379.75" font-family="Helvetica,sans-Serif" font-size="10.00" fill="white">10 pts = 10%/yr</text>
<text xml:space="preserve" text-anchor="middle" x="59" y="-368.5" font-family="Helvetica,sans-Serif" font-size="10.00" fill="white">Exp: 10 years</text>
</g>
<!-- formula&#45;&gt;rate10 -->
<g id="edge10" class="edge">
<title>formula&#45;&gt;rate10</title>
<path fill="none" stroke="#4ecdc4" stroke-width="1.5" stroke-dasharray="5,2" d="M183.31,-445.04C167.12,-439.99 150.22,-433.95 135,-427 120.81,-420.52 106.1,-411.77 93.46,-403.53"/>
<polygon fill="#4ecdc4" stroke="#4ecdc4" stroke-width="1.5" points="95.52,-400.69 85.26,-398.04 91.62,-406.51 95.52,-400.69"/>
</g>
<!-- rate20 -->
<g id="node7" class="node">
<title>rate20</title>
<path fill="#4d3d2d" stroke="#ff6b6b" stroke-width="2" d="M176.88,-310C176.88,-310 115.12,-310 115.12,-310 109.12,-310 103.12,-304 103.12,-298 103.12,-298 103.12,-286 103.12,-286 103.12,-280 109.12,-274 115.12,-274 115.12,-274 176.88,-274 176.88,-274 182.88,-274 188.88,-280 188.88,-286 188.88,-286 188.88,-298 188.88,-298 188.88,-304 182.88,-310 176.88,-310"/>
<text xml:space="preserve" text-anchor="middle" x="146" y="-293.75" font-family="Helvetica,sans-Serif" font-size="10.00" fill="white">20 pts = 20%/yr</text>
<text xml:space="preserve" text-anchor="middle" x="146" y="-282.5" font-family="Helvetica,sans-Serif" font-size="10.00" fill="white">Exp: 5 years</text>
</g>
<!-- formula&#45;&gt;rate20 -->
<g id="edge11" class="edge">
<title>formula&#45;&gt;rate20</title>
<path fill="none" stroke="#4ecdc4" stroke-width="1.5" stroke-dasharray="5,2" d="M236.94,-445.31C231.87,-439.66 226.48,-433.26 222,-427 197.34,-392.56 174.11,-349.45 159.97,-321.57"/>
<polygon fill="#4ecdc4" stroke="#4ecdc4" stroke-width="1.5" points="163.12,-320.03 155.51,-312.66 156.86,-323.17 163.12,-320.03"/>
</g>
<!-- rate40 -->
<g id="node8" class="node">
<title>rate40</title>
<path fill="#3d3d2d" stroke="#ffe66d" stroke-width="2" d="M181.88,-224C181.88,-224 120.12,-224 120.12,-224 114.12,-224 108.12,-218 108.12,-212 108.12,-212 108.12,-200 108.12,-200 108.12,-194 114.12,-188 120.12,-188 120.12,-188 181.88,-188 181.88,-188 187.88,-188 193.88,-194 193.88,-200 193.88,-200 193.88,-212 193.88,-212 193.88,-218 187.88,-224 181.88,-224"/>
<text xml:space="preserve" text-anchor="middle" x="151" y="-207.75" font-family="Helvetica,sans-Serif" font-size="10.00" fill="white">40 pts = 40%/yr</text>
<text xml:space="preserve" text-anchor="middle" x="151" y="-196.5" font-family="Helvetica,sans-Serif" font-size="10.00" fill="white">Exp: 2.5 years</text>
</g>
<!-- formula&#45;&gt;rate40 -->
<g id="edge12" class="edge">
<title>formula&#45;&gt;rate40</title>
<path fill="none" stroke="#4ecdc4" stroke-width="1.5" stroke-dasharray="5,2" d="M252.75,-445.07C249.71,-410.28 239.83,-331.96 210,-274 202.33,-259.1 190.62,-244.84 179.65,-233.33"/>
<polygon fill="#4ecdc4" stroke="#4ecdc4" stroke-width="1.5" points="182.23,-230.97 172.7,-226.34 177.27,-235.9 182.23,-230.97"/>
</g>
<!-- rate60 -->
<g id="node9" class="node">
<title>rate60</title>
<path fill="#2d4d2d" stroke="#95d5b2" stroke-width="2" d="M181.88,-138C181.88,-138 120.12,-138 120.12,-138 114.12,-138 108.12,-132 108.12,-126 108.12,-126 108.12,-114 108.12,-114 108.12,-108 114.12,-102 120.12,-102 120.12,-102 181.88,-102 181.88,-102 187.88,-102 193.88,-108 193.88,-114 193.88,-114 193.88,-126 193.88,-126 193.88,-132 187.88,-138 181.88,-138"/>
<text xml:space="preserve" text-anchor="middle" x="151" y="-121.75" font-family="Helvetica,sans-Serif" font-size="10.00" fill="white">60 pts = 60%/yr</text>
<text xml:space="preserve" text-anchor="middle" x="151" y="-110.5" font-family="Helvetica,sans-Serif" font-size="10.00" fill="white">Exp: 1.7 years</text>
</g>
<!-- formula&#45;&gt;rate60 -->
<g id="edge13" class="edge">
<title>formula&#45;&gt;rate60</title>
<path fill="none" stroke="#4ecdc4" stroke-width="1.5" stroke-dasharray="5,2" d="M268.97,-445.01C272.65,-439.56 276.08,-433.33 278,-427 286.63,-398.5 282.82,-389.38 278,-360 264.82,-279.66 258.9,-256.56 215,-188 205.53,-173.21 192.5,-158.85 180.66,-147.24"/>
<polygon fill="#4ecdc4" stroke="#4ecdc4" stroke-width="1.5" points="183.23,-144.86 173.57,-140.51 178.41,-149.93 183.23,-144.86"/>
</g>
<!-- rate80 -->
<g id="node10" class="node">
<title>rate80</title>
<path fill="#2d4d3d" stroke="#95d5b2" stroke-width="2" d="M181.88,-52C181.88,-52 120.12,-52 120.12,-52 114.12,-52 108.12,-46 108.12,-40 108.12,-40 108.12,-28 108.12,-28 108.12,-22 114.12,-16 120.12,-16 120.12,-16 181.88,-16 181.88,-16 187.88,-16 193.88,-22 193.88,-28 193.88,-28 193.88,-40 193.88,-40 193.88,-46 187.88,-52 181.88,-52"/>
<text xml:space="preserve" text-anchor="middle" x="151" y="-35.75" font-family="Helvetica,sans-Serif" font-size="10.00" fill="white">80 pts = 80%/yr</text>
<text xml:space="preserve" text-anchor="middle" x="151" y="-24.5" font-family="Helvetica,sans-Serif" font-size="10.00" fill="white">Exp: 1.25 years</text>
</g>
<!-- formula&#45;&gt;rate80 -->
<g id="edge14" class="edge">
<title>formula&#45;&gt;rate80</title>
<path fill="none" stroke="#4ecdc4" stroke-width="1.5" stroke-dasharray="5,2" d="M294.8,-445.13C346.22,-419.51 428,-367.12 428,-293 428,-293 428,-293 428,-205 428,-102.09 287.4,-59.53 206.54,-43.56"/>
<polygon fill="#4ecdc4" stroke="#4ecdc4" stroke-width="1.5" points="207.29,-40.14 196.82,-41.72 206,-47.02 207.29,-40.14"/>
</g>
<!-- component -->
<g id="node2" class="node">
<title>component</title>
<path fill="#2d2d44" stroke="#4ecdc4" stroke-width="2" d="M287.88,-857.75C287.88,-857.75 220.12,-857.75 220.12,-857.75 214.12,-857.75 208.12,-851.75 208.12,-845.75 208.12,-845.75 208.12,-833.75 208.12,-833.75 208.12,-827.75 214.12,-821.75 220.12,-821.75 220.12,-821.75 287.88,-821.75 287.88,-821.75 293.88,-821.75 299.88,-827.75 299.88,-833.75 299.88,-833.75 299.88,-845.75 299.88,-845.75 299.88,-851.75 293.88,-857.75 287.88,-857.75"/>
<text xml:space="preserve" text-anchor="middle" x="254" y="-841.5" font-family="Helvetica,sans-Serif" font-size="10.00" fill="white">Each Component</text>
<text xml:space="preserve" text-anchor="middle" x="254" y="-830.25" font-family="Helvetica,sans-Serif" font-size="10.00" fill="white">0.5 xeno points</text>
</g>
<!-- vehicle -->
<g id="node3" class="node">
<title>vehicle</title>
<path fill="#2d2d44" stroke="#4ecdc4" stroke-width="2" d="M284.88,-757.25C284.88,-757.25 223.12,-757.25 223.12,-757.25 217.12,-757.25 211.12,-751.25 211.12,-745.25 211.12,-745.25 211.12,-727.5 211.12,-727.5 211.12,-721.5 217.12,-715.5 223.12,-715.5 223.12,-715.5 284.88,-715.5 284.88,-715.5 290.88,-715.5 296.88,-721.5 296.88,-727.5 296.88,-727.5 296.88,-745.25 296.88,-745.25 296.88,-751.25 290.88,-757.25 284.88,-757.25"/>
<text xml:space="preserve" text-anchor="middle" x="254" y="-743.75" font-family="Helvetica,sans-Serif" font-size="10.00" fill="white">Typical Vehicle</text>
<text xml:space="preserve" text-anchor="middle" x="254" y="-732.5" font-family="Helvetica,sans-Serif" font-size="10.00" fill="white">1&#45;2 components</text>
<text xml:space="preserve" text-anchor="middle" x="254" y="-721.25" font-family="Helvetica,sans-Serif" font-size="10.00" fill="white">0.5&#45;1.0 points</text>
</g>
<!-- component&#45;&gt;vehicle -->
<!-- formation -->
<g id="node4" class="node">
<title>formation</title>
<path fill="#2d2d44" stroke="#4ecdc4" stroke-width="2" d="M297.62,-662.62C297.62,-662.62 210.38,-662.62 210.38,-662.62 204.38,-662.62 198.38,-656.62 198.38,-650.62 198.38,-650.62 198.38,-638.62 198.38,-638.62 198.38,-632.62 204.38,-626.62 210.38,-626.62 210.38,-626.62 297.62,-626.62 297.62,-626.62 303.62,-626.62 309.62,-632.62 309.62,-638.62 309.62,-638.62 309.62,-650.62 309.62,-650.62 309.62,-656.62 303.62,-662.62 297.62,-662.62"/>
<text xml:space="preserve" text-anchor="middle" x="254" y="-646.38" font-family="Helvetica,sans-Serif" font-size="10.00" fill="white">Formation Total</text>
<text xml:space="preserve" text-anchor="middle" x="254" y="-635.12" font-family="Helvetica,sans-Serif" font-size="10.00" fill="white">All vehicles combined</text>
</g>
<!-- vehicle&#45;&gt;formation -->
<!-- multi_form -->
<g id="node5" class="node">
<title>multi_form</title>
<path fill="#2d2d44" stroke="#4ecdc4" stroke-width="2" d="M292.75,-573.75C292.75,-573.75 215.25,-573.75 215.25,-573.75 209.25,-573.75 203.25,-567.75 203.25,-561.75 203.25,-561.75 203.25,-544 203.25,-544 203.25,-538 209.25,-532 215.25,-532 215.25,-532 292.75,-532 292.75,-532 298.75,-532 304.75,-538 304.75,-544 304.75,-544 304.75,-561.75 304.75,-561.75 304.75,-567.75 298.75,-573.75 292.75,-573.75"/>
<text xml:space="preserve" text-anchor="middle" x="254" y="-560.25" font-family="Helvetica,sans-Serif" font-size="10.00" fill="white">Multiple Formations</text>
<text xml:space="preserve" text-anchor="middle" x="254" y="-549" font-family="Helvetica,sans-Serif" font-size="10.00" fill="white">Points stack at</text>
<text xml:space="preserve" text-anchor="middle" x="254" y="-537.75" font-family="Helvetica,sans-Serif" font-size="10.00" fill="white">same population</text>
</g>
<!-- formation&#45;&gt;multi_form -->
<!-- multi_form&#45;&gt;formula -->
<g id="edge15" class="edge">
<title>multi_form&#45;&gt;formula</title>
<path fill="none" stroke="#4ecdc4" stroke-width="1.5" d="M254,-531.29C254,-520.45 254,-506.97 254,-495"/>
<polygon fill="#4ecdc4" stroke="#4ecdc4" stroke-width="1.5" points="257.5,-495.07 254,-485.07 250.5,-495.07 257.5,-495.07"/>
</g>
<!-- rate10&#45;&gt;rate20 -->
<!-- rate20&#45;&gt;rate40 -->
<!-- rate40&#45;&gt;rate60 -->
<!-- rate60&#45;&gt;rate80 -->
<!-- exp_formula -->
<g id="node11" class="node">
<title>exp_formula</title>
<path fill="#3d2d2d" stroke="#4ecdc4" stroke-width="2" d="M552.12,-857.75C552.12,-857.75 401.88,-857.75 401.88,-857.75 395.88,-857.75 389.88,-851.75 389.88,-845.75 389.88,-845.75 389.88,-833.75 389.88,-833.75 389.88,-827.75 395.88,-821.75 401.88,-821.75 401.88,-821.75 552.12,-821.75 552.12,-821.75 558.12,-821.75 564.12,-827.75 564.12,-833.75 564.12,-833.75 564.12,-845.75 564.12,-845.75 564.12,-851.75 558.12,-857.75 552.12,-857.75"/>
<text xml:space="preserve" text-anchor="middle" x="477" y="-841.5" font-family="Helvetica,sans-Serif" font-size="10.00" fill="white">Expected Time = 1 / (Annual Rate)</text>
<text xml:space="preserve" text-anchor="middle" x="477" y="-830.25" font-family="Helvetica,sans-Serif" font-size="10.00" fill="white">Note: Actual times vary due to RNG</text>
</g>
<!-- small -->
<g id="node12" class="node">
<title>small</title>
<path fill="#4d2d2d" stroke="#4ecdc4" stroke-width="2" d="M762.62,-860.62C762.62,-860.62 669.38,-860.62 669.38,-860.62 663.38,-860.62 657.38,-854.62 657.38,-848.62 657.38,-848.62 657.38,-830.88 657.38,-830.88 657.38,-824.88 663.38,-818.88 669.38,-818.88 669.38,-818.88 762.62,-818.88 762.62,-818.88 768.62,-818.88 774.62,-824.88 774.62,-830.88 774.62,-830.88 774.62,-848.62 774.62,-848.62 774.62,-854.62 768.62,-860.62 762.62,-860.62"/>
<text xml:space="preserve" text-anchor="middle" x="716" y="-847.12" font-family="Helvetica,sans-Serif" font-size="10.00" fill="white">Small Team (10&#45;20 pts)</text>
<text xml:space="preserve" text-anchor="middle" x="716" y="-835.88" font-family="Helvetica,sans-Serif" font-size="10.00" fill="white">Slow but safe</text>
<text xml:space="preserve" text-anchor="middle" x="716" y="-824.62" font-family="Helvetica,sans-Serif" font-size="10.00" fill="white">For low&#45;priority sites</text>
</g>
<!-- medium -->
<g id="node13" class="node">
<title>medium</title>
<path fill="#3d3d2d" stroke="#ffe66d" stroke-width="2" d="M776.5,-757.25C776.5,-757.25 655.5,-757.25 655.5,-757.25 649.5,-757.25 643.5,-751.25 643.5,-745.25 643.5,-745.25 643.5,-727.5 643.5,-727.5 643.5,-721.5 649.5,-715.5 655.5,-715.5 655.5,-715.5 776.5,-715.5 776.5,-715.5 782.5,-715.5 788.5,-721.5 788.5,-727.5 788.5,-727.5 788.5,-745.25 788.5,-745.25 788.5,-751.25 782.5,-757.25 776.5,-757.25"/>
<text xml:space="preserve" text-anchor="middle" x="716" y="-743.75" font-family="Helvetica,sans-Serif" font-size="10.00" fill="white">Medium Team (20&#45;40 pts)</text>
<text xml:space="preserve" text-anchor="middle" x="716" y="-732.5" font-family="Helvetica,sans-Serif" font-size="10.00" fill="white">Balanced approach</text>
<text xml:space="preserve" text-anchor="middle" x="716" y="-721.25" font-family="Helvetica,sans-Serif" font-size="10.00" fill="white">Recommended for most sites</text>
</g>
<!-- small&#45;&gt;medium -->
<!-- large -->
<g id="node14" class="node">
<title>large</title>
<path fill="#2d4d2d" stroke="#95d5b2" stroke-width="2" d="M762.25,-665.5C762.25,-665.5 669.75,-665.5 669.75,-665.5 663.75,-665.5 657.75,-659.5 657.75,-653.5 657.75,-653.5 657.75,-635.75 657.75,-635.75 657.75,-629.75 663.75,-623.75 669.75,-623.75 669.75,-623.75 762.25,-623.75 762.25,-623.75 768.25,-623.75 774.25,-629.75 774.25,-635.75 774.25,-635.75 774.25,-653.5 774.25,-653.5 774.25,-659.5 768.25,-665.5 762.25,-665.5"/>
<text xml:space="preserve" text-anchor="middle" x="716" y="-652" font-family="Helvetica,sans-Serif" font-size="10.00" fill="white">Large Team (40&#45;80 pts)</text>
<text xml:space="preserve" text-anchor="middle" x="716" y="-640.75" font-family="Helvetica,sans-Serif" font-size="10.00" fill="white">Fast recovery</text>
<text xml:space="preserve" text-anchor="middle" x="716" y="-629.5" font-family="Helvetica,sans-Serif" font-size="10.00" fill="white">For high&#45;priority ruins</text>
</g>
<!-- medium&#45;&gt;large -->
<!-- phase_note -->
<g id="node15" class="node">
<title>phase_note</title>
<path fill="#2d2d44" stroke="#4ecdc4" stroke-width="2" d="M1011,-872.25C1011,-872.25 851,-872.25 851,-872.25 845,-872.25 839,-866.25 839,-860.25 839,-860.25 839,-819.25 839,-819.25 839,-813.25 845,-807.25 851,-807.25 851,-807.25 1011,-807.25 1011,-807.25 1017,-807.25 1023,-813.25 1023,-819.25 1023,-819.25 1023,-860.25 1023,-860.25 1023,-866.25 1017,-872.25 1011,-872.25"/>
<text xml:space="preserve" text-anchor="middle" x="931" y="-858.75" font-family="Helvetica,sans-Serif" font-size="10.00" fill="white">Actual chance per phase:</text>
<text xml:space="preserve" text-anchor="middle" x="931" y="-847.5" font-family="Helvetica,sans-Serif" font-size="10.00" fill="white">Annual Rate x (Phase Length / 1 Year)</text>
<text xml:space="preserve" text-anchor="middle" x="931" y="-824.25" font-family="Helvetica,sans-Serif" font-size="10.00" fill="white">Example: 40% annual, 5&#45;day phase</text>
<text xml:space="preserve" text-anchor="middle" x="931" y="-813" font-family="Helvetica,sans-Serif" font-size="10.00" fill="white">= 40% x (5/365) = 0.55% per check</text>
</g>
</g>
</svg>
