<?xml version="1.0" encoding="UTF-8" standalone="no"?>
<!DOCTYPE svg PUBLIC "-//W3C//DTD SVG 1.1//EN"
 "http://www.w3.org/Graphics/SVG/1.1/DTD/svg11.dtd">
<!-- Generated by graphviz version 14.1.2 (20260124.0452)
 -->
<!-- Title: officer_pipeline Pages: 1 -->
<svg width="925pt" height="847pt"
 viewBox="0.00 0.00 925.00 847.00" xmlns="http://www.w3.org/2000/svg" xmlns:xlink="http://www.w3.org/1999/xlink">
<g id="graph0" class="graph" transform="scale(1 1) rotate(0) translate(4 842.75)">
<title>officer_pipeline</title>
<polygon fill="#1a1a2e" stroke="none" points="-4,4 -4,-842.75 921,-842.75 921,4 -4,4"/>
<text xml:space="preserve" text-anchor="start" x="364.75" y="-820.55" font-family="Times,serif" font-weight="bold" font-size="16.00" fill="white">Officer Generation Pipeline</text>
<g id="clust1" class="cluster">
<title>cluster_commandant</title>
<polygon fill="#1a1a2e" stroke="#4ecdc4" stroke-dasharray="5,2" points="503,-604 503,-708.5 681,-708.5 681,-604 503,-604"/>
<text xml:space="preserve" text-anchor="start" x="531.25" y="-692.2" font-family="Times,serif" font-weight="bold" font-size="14.00" fill="white">Commandant Check</text>
</g>
<g id="clust2" class="cluster">
<title>cluster_type_check</title>
<polygon fill="#1a1a2e" stroke="#4ecdc4" stroke-dasharray="5,2" points="203,-470.25 203,-574.75 449,-574.75 449,-470.25 203,-470.25"/>
<text xml:space="preserve" text-anchor="start" x="276.5" y="-558.45" font-family="Times,serif" font-weight="bold" font-size="14.00" fill="white">Type Generation</text>
</g>
<g id="clust3" class="cluster">
<title>cluster_base_dist</title>
<polygon fill="#1a1a2e" stroke="#4ecdc4" stroke-dasharray="5,2" points="229,-273.25 229,-349.75 601,-349.75 601,-273.25 229,-273.25"/>
<text xml:space="preserve" text-anchor="start" x="364.38" y="-333.45" font-family="Times,serif" font-weight="bold" font-size="14.00" fill="white">Base Distribution</text>
</g>
<g id="clust5" class="cluster">
<title>cluster_legend</title>
<polygon fill="#1a1a2e" stroke="#4ecdc4" stroke-dasharray="5,2" points="650,-727.5 650,-804 909,-804 909,-727.5 650,-727.5"/>
<text xml:space="preserve" text-anchor="start" x="758.12" y="-787.7" font-family="Times,serif" font-weight="bold" font-size="14.00" fill="white">Legend</text>
</g>
<!-- academy -->
<g id="node1" class="node">
<title>academy</title>
<path fill="#2d2d44" stroke="#4ecdc4" d="M628.5,-771.5C628.5,-771.5 555.5,-771.5 555.5,-771.5 549.5,-771.5 543.5,-765.5 543.5,-759.5 543.5,-759.5 543.5,-747.5 543.5,-747.5 543.5,-741.5 549.5,-735.5 555.5,-735.5 555.5,-735.5 628.5,-735.5 628.5,-735.5 634.5,-735.5 640.5,-741.5 640.5,-747.5 640.5,-747.5 640.5,-759.5 640.5,-759.5 640.5,-765.5 634.5,-771.5 628.5,-771.5"/>
<text xml:space="preserve" text-anchor="middle" x="592" y="-755.05" font-family="Helvetica,sans-Serif" font-size="11.00" fill="white">Naval Academy</text>
<text xml:space="preserve" text-anchor="middle" x="592" y="-743.05" font-family="Helvetica,sans-Serif" font-size="11.00" fill="white">(10 officers/year)</text>
</g>
<!-- cmd_check -->
<g id="node2" class="node">
<title>cmd_check</title>
<path fill="#ffe66d" stroke="#4ecdc4" d="M580.83,-671.6C580.83,-671.6 521.92,-648.4 521.92,-648.4 516.33,-646.2 516.33,-641.8 521.92,-639.6 521.92,-639.6 580.83,-616.4 580.83,-616.4 586.42,-614.2 597.58,-614.2 603.17,-616.4 603.17,-616.4 662.08,-639.6 662.08,-639.6 667.67,-641.8 667.67,-646.2 662.08,-648.4 662.08,-648.4 603.17,-671.6 603.17,-671.6 597.58,-673.8 586.42,-673.8 580.83,-671.6"/>
<text xml:space="preserve" text-anchor="middle" x="592" y="-645.55" font-family="Helvetica,sans-Serif" font-size="11.00" fill="#1a1a2e">Commandant</text>
<text xml:space="preserve" text-anchor="middle" x="592" y="-633.55" font-family="Helvetica,sans-Serif" font-size="11.00" fill="#1a1a2e">Assigned?</text>
</g>
<!-- academy&#45;&gt;cmd_check -->
<g id="edge1" class="edge">
<title>academy&#45;&gt;cmd_check</title>
<path fill="none" stroke="#4ecdc4" d="M592,-735.23C592,-722.3 592,-704.05 592,-687.34"/>
<polygon fill="#4ecdc4" stroke="#4ecdc4" points="595.5,-687.62 592,-677.62 588.5,-687.62 595.5,-687.62"/>
</g>
<!-- type_roll -->
<g id="node3" class="node">
<title>type_roll</title>
<path fill="#ffe66d" stroke="#4ecdc4" d="M314.44,-539.03C314.44,-539.03 222.56,-513.47 222.56,-513.47 216.78,-511.86 216.78,-508.64 222.56,-507.03 222.56,-507.03 314.44,-481.47 314.44,-481.47 320.22,-479.86 331.78,-479.86 337.56,-481.47 337.56,-481.47 429.44,-507.03 429.44,-507.03 435.22,-508.64 435.22,-511.86 429.44,-513.47 429.44,-513.47 337.56,-539.03 337.56,-539.03 331.78,-540.64 320.22,-540.64 314.44,-539.03"/>
<text xml:space="preserve" text-anchor="middle" x="326" y="-511.8" font-family="Helvetica,sans-Serif" font-size="11.00" fill="#1a1a2e">Roll for</text>
<text xml:space="preserve" text-anchor="middle" x="326" y="-499.8" font-family="Helvetica,sans-Serif" font-size="11.00" fill="#1a1a2e">Commandant&#39;s Type</text>
</g>
<!-- cmd_check&#45;&gt;type_roll -->
<g id="edge2" class="edge">
<title>cmd_check&#45;&gt;type_roll</title>
<path fill="none" stroke="#4ecdc4" d="M556.68,-625.5C510.57,-602.67 429.56,-562.54 376.85,-536.44"/>
<polygon fill="#4ecdc4" stroke="#4ecdc4" points="378.57,-533.38 368.06,-532.08 375.47,-539.66 378.57,-533.38"/>
<text xml:space="preserve" text-anchor="middle" x="498.9" y="-584.5" font-family="Helvetica,sans-Serif" font-size="10.00" fill="white">Yes</text>
</g>
<!-- naval -->
<g id="node4" class="node">
<title>naval</title>
<path fill="#4ecdc4" stroke="#4ecdc4" d="M303.12,-317.25C303.12,-317.25 248.88,-317.25 248.88,-317.25 242.88,-317.25 236.88,-311.25 236.88,-305.25 236.88,-305.25 236.88,-293.25 236.88,-293.25 236.88,-287.25 242.88,-281.25 248.88,-281.25 248.88,-281.25 303.12,-281.25 303.12,-281.25 309.12,-281.25 315.12,-287.25 315.12,-293.25 315.12,-293.25 315.12,-305.25 315.12,-305.25 315.12,-311.25 309.12,-317.25 303.12,-317.25"/>
<text xml:space="preserve" text-anchor="middle" x="276" y="-300.8" font-family="Helvetica,sans-Serif" font-size="11.00" fill="#1a1a2e">Naval Officer</text>
<text xml:space="preserve" text-anchor="middle" x="276" y="-288.8" font-family="Helvetica,sans-Serif" font-size="11.00" fill="#1a1a2e">60%</text>
</g>
<!-- cmd_check&#45;&gt;naval -->
<g id="edge3" class="edge">
<title>cmd_check&#45;&gt;naval</title>
<path fill="none" stroke="#4ecdc4" stroke-dasharray="5,2" d="M592.87,-612.13C592.78,-560.45 585.76,-455.36 535,-387 519.19,-365.71 508.47,-365.11 483,-357.75 449.01,-347.93 356.22,-364.35 324,-349.75 312.55,-344.56 302.42,-335.3 294.45,-326.18"/>
<polygon fill="#4ecdc4" stroke="#4ecdc4" points="297.2,-324.01 288.18,-318.44 291.76,-328.42 297.2,-324.01"/>
<text xml:space="preserve" text-anchor="middle" x="577.55" y="-450.75" font-family="Helvetica,sans-Serif" font-size="10.00" fill="white">No</text>
</g>
<!-- ground -->
<g id="node5" class="node">
<title>ground</title>
<path fill="#95d5b2" stroke="#4ecdc4" d="M409,-317.25C409,-317.25 345,-317.25 345,-317.25 339,-317.25 333,-311.25 333,-305.25 333,-305.25 333,-293.25 333,-293.25 333,-287.25 339,-281.25 345,-281.25 345,-281.25 409,-281.25 409,-281.25 415,-281.25 421,-287.25 421,-293.25 421,-293.25 421,-305.25 421,-305.25 421,-311.25 415,-317.25 409,-317.25"/>
<text xml:space="preserve" text-anchor="middle" x="377" y="-300.8" font-family="Helvetica,sans-Serif" font-size="11.00" fill="#1a1a2e">Ground Forces</text>
<text xml:space="preserve" text-anchor="middle" x="377" y="-288.8" font-family="Helvetica,sans-Serif" font-size="11.00" fill="#1a1a2e">25%</text>
</g>
<!-- cmd_check&#45;&gt;ground -->
<!-- admin -->
<g id="node6" class="node">
<title>admin</title>
<path fill="#ffe66d" stroke="#4ecdc4" d="M506.88,-317.25C506.88,-317.25 451.12,-317.25 451.12,-317.25 445.12,-317.25 439.12,-311.25 439.12,-305.25 439.12,-305.25 439.12,-293.25 439.12,-293.25 439.12,-287.25 445.12,-281.25 451.12,-281.25 451.12,-281.25 506.88,-281.25 506.88,-281.25 512.88,-281.25 518.88,-287.25 518.88,-293.25 518.88,-293.25 518.88,-305.25 518.88,-305.25 518.88,-311.25 512.88,-317.25 506.88,-317.25"/>
<text xml:space="preserve" text-anchor="middle" x="479" y="-300.8" font-family="Helvetica,sans-Serif" font-size="11.00" fill="#1a1a2e">Administrator</text>
<text xml:space="preserve" text-anchor="middle" x="479" y="-288.8" font-family="Helvetica,sans-Serif" font-size="11.00" fill="#1a1a2e">8%</text>
</g>
<!-- cmd_check&#45;&gt;admin -->
<!-- scientist -->
<g id="node7" class="node">
<title>scientist</title>
<path fill="#ff6b6b" stroke="#4ecdc4" d="M581.25,-317.25C581.25,-317.25 548.75,-317.25 548.75,-317.25 542.75,-317.25 536.75,-311.25 536.75,-305.25 536.75,-305.25 536.75,-293.25 536.75,-293.25 536.75,-287.25 542.75,-281.25 548.75,-281.25 548.75,-281.25 581.25,-281.25 581.25,-281.25 587.25,-281.25 593.25,-287.25 593.25,-293.25 593.25,-293.25 593.25,-305.25 593.25,-305.25 593.25,-311.25 587.25,-317.25 581.25,-317.25"/>
<text xml:space="preserve" text-anchor="middle" x="565" y="-300.8" font-family="Helvetica,sans-Serif" font-size="11.00" fill="#1a1a2e">Scientist</text>
<text xml:space="preserve" text-anchor="middle" x="565" y="-288.8" font-family="Helvetica,sans-Serif" font-size="11.00" fill="#1a1a2e">7%</text>
</g>
<!-- cmd_check&#45;&gt;scientist -->
<!-- naval_cmd -->
<g id="node8" class="node">
<title>naval_cmd</title>
<polygon fill="#4ecdc4" stroke="#4ecdc4" points="106,-427 0,-427 0,-391 112,-391 112,-421 106,-427"/>
<polyline fill="none" stroke="#4ecdc4" points="106,-427 106,-421"/>
<polyline fill="none" stroke="#4ecdc4" points="112,-421 106,-421"/>
<text xml:space="preserve" text-anchor="middle" x="56" y="-410.55" font-family="Helvetica,sans-Serif" font-size="11.00" fill="#1a1a2e">Naval Commandant</text>
<text xml:space="preserve" text-anchor="middle" x="56" y="-398.55" font-family="Helvetica,sans-Serif" font-size="11.00" fill="#1a1a2e">80% same type</text>
</g>
<!-- type_roll&#45;&gt;naval_cmd -->
<!-- ground_cmd -->
<g id="node9" class="node">
<title>ground_cmd</title>
<polygon fill="#95d5b2" stroke="#4ecdc4" points="244.12,-427 129.88,-427 129.88,-391 250.12,-391 250.12,-421 244.12,-427"/>
<polyline fill="none" stroke="#4ecdc4" points="244.12,-427 244.12,-421"/>
<polyline fill="none" stroke="#4ecdc4" points="250.12,-421 244.12,-421"/>
<text xml:space="preserve" text-anchor="middle" x="190" y="-410.55" font-family="Helvetica,sans-Serif" font-size="11.00" fill="#1a1a2e">Ground Commandant</text>
<text xml:space="preserve" text-anchor="middle" x="190" y="-398.55" font-family="Helvetica,sans-Serif" font-size="11.00" fill="#1a1a2e">40% same type</text>
</g>
<!-- type_roll&#45;&gt;ground_cmd -->
<!-- admin_cmd -->
<g id="node10" class="node">
<title>admin_cmd</title>
<polygon fill="#ffe66d" stroke="#4ecdc4" points="377.5,-427 268.5,-427 268.5,-391 383.5,-391 383.5,-421 377.5,-427"/>
<polyline fill="none" stroke="#4ecdc4" points="377.5,-427 377.5,-421"/>
<polyline fill="none" stroke="#4ecdc4" points="383.5,-421 377.5,-421"/>
<text xml:space="preserve" text-anchor="middle" x="326" y="-410.55" font-family="Helvetica,sans-Serif" font-size="11.00" fill="#1a1a2e">Admin Commandant</text>
<text xml:space="preserve" text-anchor="middle" x="326" y="-398.55" font-family="Helvetica,sans-Serif" font-size="11.00" fill="#1a1a2e">16% same type</text>
</g>
<!-- type_roll&#45;&gt;admin_cmd -->
<!-- sci_cmd -->
<g id="node11" class="node">
<title>sci_cmd</title>
<polygon fill="#ff6b6b" stroke="#4ecdc4" points="520.38,-431 401.62,-431 401.62,-387 526.38,-387 526.38,-425 520.38,-431"/>
<polyline fill="none" stroke="#4ecdc4" points="520.38,-431 520.38,-425"/>
<polyline fill="none" stroke="#4ecdc4" points="526.38,-425 520.38,-425"/>
<text xml:space="preserve" text-anchor="middle" x="464" y="-416.55" font-family="Helvetica,sans-Serif" font-size="11.00" fill="#1a1a2e">Scientist Commandant</text>
<text xml:space="preserve" text-anchor="middle" x="464" y="-404.55" font-family="Helvetica,sans-Serif" font-size="11.00" fill="#1a1a2e">14% same type</text>
<text xml:space="preserve" text-anchor="middle" x="464" y="-392.55" font-family="Helvetica,sans-Serif" font-size="11.00" fill="#1a1a2e">(25% same specialty)</text>
</g>
<!-- type_roll&#45;&gt;sci_cmd -->
<!-- quality -->
<g id="node12" class="node">
<title>quality</title>
<path fill="#ffe66d" stroke="#4ecdc4" d="M416,-239.45C416,-239.45 337.25,-205.05 337.25,-205.05 331.75,-202.65 331.75,-197.85 337.25,-195.45 337.25,-195.45 416,-161.05 416,-161.05 421.5,-158.65 432.5,-158.65 438,-161.05 438,-161.05 516.75,-195.45 516.75,-195.45 522.25,-197.85 522.25,-202.65 516.75,-205.05 516.75,-205.05 438,-239.45 438,-239.45 432.5,-241.85 421.5,-241.85 416,-239.45"/>
<text xml:space="preserve" text-anchor="middle" x="427" y="-207.8" font-family="Helvetica,sans-Serif" font-size="11.00" fill="#1a1a2e">Quality Check</text>
<text xml:space="preserve" text-anchor="middle" x="427" y="-195.8" font-family="Helvetica,sans-Serif" font-size="11.00" fill="#1a1a2e">Bonus &gt;= 20% or</text>
<text xml:space="preserve" text-anchor="middle" x="427" y="-183.8" font-family="Helvetica,sans-Serif" font-size="11.00" fill="#1a1a2e">Training &gt;= 150</text>
</g>
<!-- naval&#45;&gt;quality -->
<g id="edge19" class="edge">
<title>naval&#45;&gt;quality</title>
<path fill="none" stroke="#4ecdc4" d="M303,-280.91C323.59,-267.68 352.53,-249.09 377.28,-233.19"/>
<polygon fill="#4ecdc4" stroke="#4ecdc4" points="379.09,-236.19 385.61,-227.84 375.3,-230.3 379.09,-236.19"/>
</g>
<!-- ground&#45;&gt;quality -->
<g id="edge20" class="edge">
<title>ground&#45;&gt;quality</title>
<path fill="none" stroke="#4ecdc4" d="M385.94,-280.91C390.9,-271.29 397.32,-258.83 403.61,-246.63"/>
<polygon fill="#4ecdc4" stroke="#4ecdc4" points="406.66,-248.36 408.13,-237.87 400.43,-245.15 406.66,-248.36"/>
</g>
<!-- admin&#45;&gt;quality -->
<g id="edge21" class="edge">
<title>admin&#45;&gt;quality</title>
<path fill="none" stroke="#4ecdc4" d="M469.7,-280.91C464.55,-271.29 457.87,-258.83 451.33,-246.63"/>
<polygon fill="#4ecdc4" stroke="#4ecdc4" points="454.43,-245.01 446.62,-237.85 448.26,-248.32 454.43,-245.01"/>
</g>
<!-- scientist&#45;&gt;quality -->
<g id="edge22" class="edge">
<title>scientist&#45;&gt;quality</title>
<path fill="none" stroke="#4ecdc4" d="M540.33,-280.91C522.01,-268.03 496.47,-250.08 474.27,-234.48"/>
<polygon fill="#4ecdc4" stroke="#4ecdc4" points="476.42,-231.71 466.23,-228.82 472.4,-237.44 476.42,-231.71"/>
</g>
<!-- naval_cmd&#45;&gt;naval -->
<g id="edge11" class="edge">
<title>naval_cmd&#45;&gt;naval</title>
<path fill="none" stroke="#4ecdc4" d="M75.65,-390.51C88.19,-379.99 105.15,-366.92 121.75,-357.75 154.72,-339.53 194.64,-324.83 225.6,-314.86"/>
<polygon fill="#4ecdc4" stroke="#4ecdc4" points="226.64,-318.2 235.13,-311.85 224.54,-311.52 226.64,-318.2"/>
<text xml:space="preserve" text-anchor="middle" x="140.88" y="-359.5" font-family="Helvetica,sans-Serif" font-size="10.00" fill="white">Success</text>
</g>
<!-- naval_cmd&#45;&gt;naval -->
<g id="edge15" class="edge">
<title>naval_cmd&#45;&gt;naval</title>
<path fill="none" stroke="#4ecdc4" stroke-dasharray="5,2" d="M108.06,-390.52C124.9,-384.33 143.48,-376.92 160,-369 187.77,-355.69 217.63,-337.91 240.09,-323.76"/>
<polygon fill="#4ecdc4" stroke="#4ecdc4" points="241.72,-326.88 248.28,-318.56 237.96,-320.97 241.72,-326.88"/>
<text xml:space="preserve" text-anchor="middle" x="187.55" y="-359.5" font-family="Helvetica,sans-Serif" font-size="10.00" fill="white">Fail</text>
</g>
<!-- ground_cmd&#45;&gt;naval -->
<g id="edge16" class="edge">
<title>ground_cmd&#45;&gt;naval</title>
<path fill="none" stroke="#4ecdc4" stroke-dasharray="5,2" d="M203.82,-390.69C217.67,-373.33 239.18,-346.38 255.12,-326.42"/>
<polygon fill="#4ecdc4" stroke="#4ecdc4" points="257.77,-328.7 261.27,-318.7 252.3,-324.33 257.77,-328.7"/>
<text xml:space="preserve" text-anchor="middle" x="235.73" y="-359.5" font-family="Helvetica,sans-Serif" font-size="10.00" fill="white">Fail</text>
</g>
<!-- ground_cmd&#45;&gt;ground -->
<g id="edge12" class="edge">
<title>ground_cmd&#45;&gt;ground</title>
<path fill="none" stroke="#4ecdc4" d="M247.23,-390.56C251.21,-389.36 255.16,-388.16 259,-387 285.65,-378.95 295.72,-384.27 319,-369 335.44,-358.21 349.74,-341.4 360.03,-327.1"/>
<polygon fill="#4ecdc4" stroke="#4ecdc4" points="362.85,-329.18 365.63,-318.96 357.08,-325.21 362.85,-329.18"/>
<text xml:space="preserve" text-anchor="middle" x="351.6" y="-359.5" font-family="Helvetica,sans-Serif" font-size="10.00" fill="white">Success</text>
</g>
<!-- admin_cmd&#45;&gt;naval -->
<g id="edge17" class="edge">
<title>admin_cmd&#45;&gt;naval</title>
<path fill="none" stroke="#4ecdc4" stroke-dasharray="5,2" d="M315.23,-390.83C311.24,-384.14 306.82,-376.33 303.25,-369 296.82,-355.78 290.69,-340.64 285.88,-327.94"/>
<polygon fill="#4ecdc4" stroke="#4ecdc4" points="289.3,-327.09 282.55,-318.93 282.74,-329.52 289.3,-327.09"/>
<text xml:space="preserve" text-anchor="middle" x="311.12" y="-359.5" font-family="Helvetica,sans-Serif" font-size="10.00" fill="white">Fail</text>
</g>
<!-- admin_cmd&#45;&gt;admin -->
<g id="edge13" class="edge">
<title>admin_cmd&#45;&gt;admin</title>
<path fill="none" stroke="#4ecdc4" d="M380.41,-390.54C400.63,-383.41 420.68,-375.35 429,-369 443.54,-357.9 455.72,-341.44 464.41,-327.41"/>
<polygon fill="#4ecdc4" stroke="#4ecdc4" points="467.29,-329.42 469.35,-319.03 461.26,-325.87 467.29,-329.42"/>
<text xml:space="preserve" text-anchor="middle" x="460.12" y="-359.5" font-family="Helvetica,sans-Serif" font-size="10.00" fill="white">Success</text>
</g>
<!-- sci_cmd&#45;&gt;naval -->
<g id="edge18" class="edge">
<title>sci_cmd&#45;&gt;naval</title>
<path fill="none" stroke="#4ecdc4" stroke-dasharray="5,2" d="M432.77,-386.7C416.27,-376.42 395.28,-364.8 375,-357.75 353.33,-350.21 344.37,-360.31 324,-349.75 313.16,-344.13 303.34,-335.13 295.44,-326.34"/>
<polygon fill="#4ecdc4" stroke="#4ecdc4" points="298.31,-324.31 289.2,-318.9 292.95,-328.81 298.31,-324.31"/>
<text xml:space="preserve" text-anchor="middle" x="408.61" y="-359.5" font-family="Helvetica,sans-Serif" font-size="10.00" fill="white">Fail</text>
</g>
<!-- sci_cmd&#45;&gt;scientist -->
<g id="edge14" class="edge">
<title>sci_cmd&#45;&gt;scientist</title>
<path fill="none" stroke="#4ecdc4" d="M489.66,-386.64C501.8,-376.05 516.18,-362.76 528,-349.75 534.49,-342.6 540.99,-334.36 546.69,-326.68"/>
<polygon fill="#4ecdc4" stroke="#4ecdc4" points="549.51,-328.75 552.54,-318.6 543.84,-324.65 549.51,-328.75"/>
<text xml:space="preserve" text-anchor="middle" x="539.05" y="-359.5" font-family="Helvetica,sans-Serif" font-size="10.00" fill="white">Success</text>
</g>
<!-- double_roll -->
<g id="node13" class="node">
<title>double_roll</title>
<path fill="#95d5b2" stroke="#4ecdc4" d="M416,-109C416,-109 364,-109 364,-109 358,-109 352,-103 352,-97 352,-97 352,-85 352,-85 352,-79 358,-73 364,-73 364,-73 416,-73 416,-73 422,-73 428,-79 428,-85 428,-85 428,-97 428,-97 428,-103 422,-109 416,-109"/>
<text xml:space="preserve" text-anchor="middle" x="390" y="-92.55" font-family="Helvetica,sans-Serif" font-size="11.00" fill="#1a1a2e">Double Roll</text>
<text xml:space="preserve" text-anchor="middle" x="390" y="-80.55" font-family="Helvetica,sans-Serif" font-size="11.00" fill="#1a1a2e">(best of two)</text>
</g>
<!-- quality&#45;&gt;double_roll -->
<g id="edge23" class="edge">
<title>quality&#45;&gt;double_roll</title>
<path fill="none" stroke="#4ecdc4" d="M413.96,-161.44C409.27,-147.86 404.08,-132.8 399.72,-120.19"/>
<polygon fill="#4ecdc4" stroke="#4ecdc4" points="403.07,-119.14 396.5,-110.83 396.45,-121.43 403.07,-119.14"/>
<text xml:space="preserve" text-anchor="middle" x="413.44" y="-128.75" font-family="Helvetica,sans-Serif" font-size="10.00" fill="white">Yes</text>
</g>
<!-- new_officer -->
<g id="node14" class="node">
<title>new_officer</title>
<path fill="#4ecdc4" stroke="#4ecdc4" stroke-width="2" d="M451.5,-36C451.5,-36 402.5,-36 402.5,-36 396.5,-36 390.5,-30 390.5,-24 390.5,-24 390.5,-12 390.5,-12 390.5,-6 396.5,0 402.5,0 402.5,0 451.5,0 451.5,0 457.5,0 463.5,-6 463.5,-12 463.5,-12 463.5,-24 463.5,-24 463.5,-30 457.5,-36 451.5,-36"/>
<text xml:space="preserve" text-anchor="middle" x="427" y="-19.55" font-family="Helvetica,sans-Serif" font-size="11.00" fill="#1a1a2e">New Officer</text>
<text xml:space="preserve" text-anchor="middle" x="427" y="-7.55" font-family="Helvetica,sans-Serif" font-size="11.00" fill="#1a1a2e">Generated</text>
</g>
<!-- quality&#45;&gt;new_officer -->
<g id="edge24" class="edge">
<title>quality&#45;&gt;new_officer</title>
<path fill="none" stroke="#4ecdc4" d="M433.71,-158.86C436.95,-134.07 439.63,-101.68 437,-73 436.25,-64.83 434.88,-56.06 433.38,-48.01"/>
<polygon fill="#4ecdc4" stroke="#4ecdc4" points="436.85,-47.49 431.46,-38.37 429.98,-48.86 436.85,-47.49"/>
<text xml:space="preserve" text-anchor="middle" x="444.44" y="-87.12" font-family="Helvetica,sans-Serif" font-size="10.00" fill="white">No</text>
</g>
<!-- double_roll&#45;&gt;new_officer -->
<g id="edge25" class="edge">
<title>double_roll&#45;&gt;new_officer</title>
<path fill="none" stroke="#4ecdc4" d="M398.96,-72.81C403.08,-64.91 408.07,-55.33 412.69,-46.47"/>
<polygon fill="#4ecdc4" stroke="#4ecdc4" points="415.65,-48.35 417.17,-37.86 409.44,-45.11 415.65,-48.35"/>
</g>
<!-- leg1 -->
<g id="node15" class="node">
<title>leg1</title>
<path fill="#2d2d44" stroke="#4ecdc4" d="M701.5,-771.5C701.5,-771.5 670.5,-771.5 670.5,-771.5 664.5,-771.5 658.5,-765.5 658.5,-759.5 658.5,-759.5 658.5,-747.5 658.5,-747.5 658.5,-741.5 664.5,-735.5 670.5,-735.5 670.5,-735.5 701.5,-735.5 701.5,-735.5 707.5,-735.5 713.5,-741.5 713.5,-747.5 713.5,-747.5 713.5,-759.5 713.5,-759.5 713.5,-765.5 707.5,-771.5 701.5,-771.5"/>
<text xml:space="preserve" text-anchor="middle" x="686" y="-749.05" font-family="Helvetica,sans-Serif" font-size="11.00" fill="white">Process</text>
</g>
<!-- leg2 -->
<g id="node16" class="node">
<title>leg2</title>
<path fill="#ffe66d" stroke="#4ecdc4" d="M768.74,-767.34C768.74,-767.34 742.57,-757.66 742.57,-757.66 736.94,-755.58 736.94,-751.42 742.57,-749.34 742.57,-749.34 768.74,-739.66 768.74,-739.66 774.37,-737.58 785.63,-737.58 791.26,-739.66 791.26,-739.66 817.43,-749.34 817.43,-749.34 823.06,-751.42 823.06,-755.58 817.43,-757.66 817.43,-757.66 791.26,-767.34 791.26,-767.34 785.63,-769.42 774.37,-769.42 768.74,-767.34"/>
<text xml:space="preserve" text-anchor="middle" x="780" y="-749.05" font-family="Helvetica,sans-Serif" font-size="11.00" fill="#1a1a2e">Decision</text>
</g>
<!-- leg3 -->
<g id="node17" class="node">
<title>leg3</title>
<path fill="#4ecdc4" stroke="#4ecdc4" d="M889,-771.5C889,-771.5 859,-771.5 859,-771.5 853,-771.5 847,-765.5 847,-759.5 847,-759.5 847,-747.5 847,-747.5 847,-741.5 853,-735.5 859,-735.5 859,-735.5 889,-735.5 889,-735.5 895,-735.5 901,-741.5 901,-747.5 901,-747.5 901,-759.5 901,-759.5 901,-765.5 895,-771.5 889,-771.5"/>
<text xml:space="preserve" text-anchor="middle" x="874" y="-749.05" font-family="Helvetica,sans-Serif" font-size="11.00" fill="#1a1a2e">Output</text>
</g>
</g>
</svg>
