<?xml version="1.0" encoding="UTF-8" standalone="no"?>
<!DOCTYPE svg PUBLIC "-//W3C//DTD SVG 1.1//EN"
 "http://www.w3.org/Graphics/SVG/1.1/DTD/svg11.dtd">
<!-- Generated by graphviz version 14.1.2 (20260124.0452)
 -->
<!-- Title: rank_progression Pages: 1 -->
<svg width="943pt" height="911pt"
 viewBox="0.00 0.00 943.00 911.00" xmlns="http://www.w3.org/2000/svg" xmlns:xlink="http://www.w3.org/1999/xlink">
<g id="graph0" class="graph" transform="scale(1 1) rotate(0) translate(4 906.5)">
<title>rank_progression</title>
<polygon fill="#1a1a2e" stroke="none" points="-4,4 -4,-906.5 939.12,-906.5 939.12,4 -4,4"/>
<text xml:space="preserve" text-anchor="start" x="338.19" y="-884.3" font-family="Times,serif" font-weight="bold" font-size="16.00" fill="white">Naval Rank Progression &amp; Promotion</text>
<g id="clust1" class="cluster">
<title>cluster_ranks</title>
<polygon fill="#1a1a2e" stroke="#4ecdc4" stroke-dasharray="5,2" points="8,-8 8,-860.12 202,-860.12 202,-8 8,-8"/>
<text xml:space="preserve" text-anchor="start" x="66" y="-843.83" font-family="Times,serif" font-weight="bold" font-size="14.00" fill="white">Rank Ladder</text>
</g>
<g id="clust2" class="cluster">
<title>cluster_requirements</title>
<polygon fill="#1a1a2e" stroke="#4ecdc4" stroke-dasharray="5,2" points="210,-638 210,-867.75 402,-867.75 402,-638 210,-638"/>
<text xml:space="preserve" text-anchor="start" x="232.12" y="-851.45" font-family="Times,serif" font-weight="bold" font-size="14.00" fill="white">Promotion Requirements</text>
</g>
<!-- r1 -->
<g id="node1" class="node">
<title>r1</title>
<path fill="#2d2d44" stroke="#4ecdc4" d="M157.75,-827.62C157.75,-827.62 52.25,-827.62 52.25,-827.62 46.25,-827.62 40.25,-821.62 40.25,-815.62 40.25,-815.62 40.25,-770.62 40.25,-770.62 40.25,-764.62 46.25,-758.62 52.25,-758.62 52.25,-758.62 157.75,-758.62 157.75,-758.62 163.75,-758.62 169.75,-764.62 169.75,-770.62 169.75,-770.62 169.75,-815.62 169.75,-815.62 169.75,-821.62 163.75,-827.62 157.75,-827.62"/>
<text xml:space="preserve" text-anchor="start" x="50.25" y="-813.12" font-family="Helvetica,sans-Serif" font-weight="bold" font-size="10.00" fill="white">Lieutenant Commander</text>
<text xml:space="preserve" text-anchor="start" x="74.62" y="-796.88" font-family="Helvetica,sans-Serif" font-size="10.00" fill="white">Score: 25&#45;412</text>
<text xml:space="preserve" text-anchor="start" x="60.75" y="-781.62" font-family="Helvetica,sans-Serif" font-size="10.00" fill="white">Min Retire: 10 years</text>
<text xml:space="preserve" text-anchor="start" x="51.38" y="-766.38" font-family="Helvetica,sans-Serif" font-size="10.00" fill="white">Commands: Small ships</text>
</g>
<!-- r2 -->
<g id="node2" class="node">
<title>r2</title>
<path fill="#2d2d44" stroke="#4ecdc4" d="M175.75,-715C175.75,-715 34.25,-715 34.25,-715 28.25,-715 22.25,-709 22.25,-703 22.25,-703 22.25,-658 22.25,-658 22.25,-652 28.25,-646 34.25,-646 34.25,-646 175.75,-646 175.75,-646 181.75,-646 187.75,-652 187.75,-658 187.75,-658 187.75,-703 187.75,-703 187.75,-709 181.75,-715 175.75,-715"/>
<text xml:space="preserve" text-anchor="start" x="76.12" y="-700.5" font-family="Helvetica,sans-Serif" font-weight="bold" font-size="10.00" fill="white">Commander</text>
<text xml:space="preserve" text-anchor="start" x="72" y="-684.25" font-family="Helvetica,sans-Serif" font-size="10.00" fill="white">Score: 316&#45;553</text>
<text xml:space="preserve" text-anchor="start" x="60.75" y="-669" font-family="Helvetica,sans-Serif" font-size="10.00" fill="white">Min Retire: 15 years</text>
<text xml:space="preserve" text-anchor="start" x="32.25" y="-653.75" font-family="Helvetica,sans-Serif" font-size="10.00" fill="white">Commands: Frigates, Destroyers</text>
</g>
<!-- r1&#45;&gt;r2 -->
<g id="edge1" class="edge">
<title>r1&#45;&gt;r2</title>
<path fill="none" stroke="#4ecdc4" d="M105,-758.33C105,-748.35 105,-737.25 105,-726.67"/>
<polygon fill="#4ecdc4" stroke="#4ecdc4" points="108.5,-726.98 105,-716.98 101.5,-726.98 108.5,-726.98"/>
</g>
<!-- r3 -->
<g id="node3" class="node">
<title>r3</title>
<path fill="#4ecdc4" stroke="#4ecdc4" d="M181.75,-610C181.75,-610 28.25,-610 28.25,-610 22.25,-610 16.25,-604 16.25,-598 16.25,-598 16.25,-553 16.25,-553 16.25,-547 22.25,-541 28.25,-541 28.25,-541 181.75,-541 181.75,-541 187.75,-541 193.75,-547 193.75,-553 193.75,-553 193.75,-598 193.75,-598 193.75,-604 187.75,-610 181.75,-610"/>
<text xml:space="preserve" text-anchor="start" x="87" y="-595.5" font-family="Helvetica,sans-Serif" font-weight="bold" font-size="10.00" fill="#1a1a2e">Captain</text>
<text xml:space="preserve" text-anchor="start" x="72" y="-579.25" font-family="Helvetica,sans-Serif" font-size="10.00" fill="#1a1a2e">Score: 281&#45;725</text>
<text xml:space="preserve" text-anchor="start" x="60.75" y="-564" font-family="Helvetica,sans-Serif" font-size="10.00" fill="#1a1a2e">Min Retire: 20 years</text>
<text xml:space="preserve" text-anchor="start" x="26.25" y="-548.75" font-family="Helvetica,sans-Serif" font-size="10.00" fill="#1a1a2e">Commands: Cruisers, Capital Ships</text>
</g>
<!-- r2&#45;&gt;r3 -->
<g id="edge2" class="edge">
<title>r2&#45;&gt;r3</title>
<path fill="none" stroke="#4ecdc4" d="M105,-645.77C105,-638.04 105,-629.69 105,-621.56"/>
<polygon fill="#4ecdc4" stroke="#4ecdc4" points="108.5,-621.82 105,-611.82 101.5,-621.82 108.5,-621.82"/>
</g>
<!-- r4 -->
<g id="node4" class="node">
<title>r4</title>
<path fill="#2d2d44" stroke="#4ecdc4" d="M158.88,-505C158.88,-505 51.12,-505 51.12,-505 45.12,-505 39.12,-499 39.12,-493 39.12,-493 39.12,-448 39.12,-448 39.12,-442 45.12,-436 51.12,-436 51.12,-436 158.88,-436 158.88,-436 164.88,-436 170.88,-442 170.88,-448 170.88,-448 170.88,-493 170.88,-493 170.88,-499 164.88,-505 158.88,-505"/>
<text xml:space="preserve" text-anchor="start" x="55.88" y="-490.5" font-family="Helvetica,sans-Serif" font-weight="bold" font-size="10.00" fill="white">Rear Admiral (Lower)</text>
<text xml:space="preserve" text-anchor="start" x="72" y="-474.25" font-family="Helvetica,sans-Serif" font-size="10.00" fill="white">Score: 732&#45;914</text>
<text xml:space="preserve" text-anchor="start" x="60.75" y="-459" font-family="Helvetica,sans-Serif" font-size="10.00" fill="white">Min Retire: 25 years</text>
<text xml:space="preserve" text-anchor="start" x="49.12" y="-443.75" font-family="Helvetica,sans-Serif" font-size="10.00" fill="white">Commands: Task Groups</text>
</g>
<!-- r3&#45;&gt;r4 -->
<g id="edge3" class="edge">
<title>r3&#45;&gt;r4</title>
<path fill="none" stroke="#4ecdc4" d="M105,-540.77C105,-533.04 105,-524.69 105,-516.56"/>
<polygon fill="#4ecdc4" stroke="#4ecdc4" points="108.5,-516.82 105,-506.82 101.5,-516.82 108.5,-516.82"/>
</g>
<!-- r5 -->
<g id="node5" class="node">
<title>r5</title>
<path fill="#2d2d44" stroke="#4ecdc4" d="M173.88,-400C173.88,-400 36.12,-400 36.12,-400 30.12,-400 24.12,-394 24.12,-388 24.12,-388 24.12,-343 24.12,-343 24.12,-337 30.12,-331 36.12,-331 36.12,-331 173.88,-331 173.88,-331 179.88,-331 185.88,-337 185.88,-343 185.88,-343 185.88,-388 185.88,-388 185.88,-394 179.88,-400 173.88,-400"/>
<text xml:space="preserve" text-anchor="start" x="55.88" y="-385.5" font-family="Helvetica,sans-Serif" font-weight="bold" font-size="10.00" fill="white">Rear Admiral (Upper)</text>
<text xml:space="preserve" text-anchor="start" x="69.38" y="-369.25" font-family="Helvetica,sans-Serif" font-size="10.00" fill="white">Score: 925&#45;1011</text>
<text xml:space="preserve" text-anchor="start" x="60.75" y="-354" font-family="Helvetica,sans-Serif" font-size="10.00" fill="white">Min Retire: 30 years</text>
<text xml:space="preserve" text-anchor="start" x="34.12" y="-338.75" font-family="Helvetica,sans-Serif" font-size="10.00" fill="white">Commands: Larger Task Groups</text>
</g>
<!-- r4&#45;&gt;r5 -->
<g id="edge4" class="edge">
<title>r4&#45;&gt;r5</title>
<path fill="none" stroke="#4ecdc4" d="M105,-435.77C105,-428.04 105,-419.69 105,-411.56"/>
<polygon fill="#4ecdc4" stroke="#4ecdc4" points="108.5,-411.82 105,-401.82 101.5,-411.82 108.5,-411.82"/>
</g>
<!-- r6 -->
<g id="node6" class="node">
<title>r6</title>
<path fill="#2d2d44" stroke="#4ecdc4" d="M172.38,-295C172.38,-295 37.62,-295 37.62,-295 31.62,-295 25.62,-289 25.62,-283 25.62,-283 25.62,-238 25.62,-238 25.62,-232 31.62,-226 37.62,-226 37.62,-226 172.38,-226 172.38,-226 178.38,-226 184.38,-232 184.38,-238 184.38,-238 184.38,-283 184.38,-283 184.38,-289 178.38,-295 172.38,-295"/>
<text xml:space="preserve" text-anchor="start" x="75.38" y="-280.5" font-family="Helvetica,sans-Serif" font-weight="bold" font-size="10.00" fill="white">Vice Admiral</text>
<text xml:space="preserve" text-anchor="start" x="66.75" y="-264.25" font-family="Helvetica,sans-Serif" font-size="10.00" fill="white">Score: 1058&#45;1153</text>
<text xml:space="preserve" text-anchor="start" x="60.75" y="-249" font-family="Helvetica,sans-Serif" font-size="10.00" fill="white">Min Retire: 35 years</text>
<text xml:space="preserve" text-anchor="start" x="35.62" y="-233.75" font-family="Helvetica,sans-Serif" font-size="10.00" fill="white">Commands: Major Task Groups</text>
</g>
<!-- r5&#45;&gt;r6 -->
<g id="edge5" class="edge">
<title>r5&#45;&gt;r6</title>
<path fill="none" stroke="#4ecdc4" d="M105,-330.77C105,-323.04 105,-314.69 105,-306.56"/>
<polygon fill="#4ecdc4" stroke="#4ecdc4" points="108.5,-306.82 105,-296.82 101.5,-306.82 108.5,-306.82"/>
</g>
<!-- r7 -->
<g id="node7" class="node">
<title>r7</title>
<path fill="#ffe66d" stroke="#4ecdc4" d="M147.25,-190C147.25,-190 62.75,-190 62.75,-190 56.75,-190 50.75,-184 50.75,-178 50.75,-178 50.75,-133 50.75,-133 50.75,-127 56.75,-121 62.75,-121 62.75,-121 147.25,-121 147.25,-121 153.25,-121 159.25,-127 159.25,-133 159.25,-133 159.25,-178 159.25,-178 159.25,-184 153.25,-190 147.25,-190"/>
<text xml:space="preserve" text-anchor="start" x="86.25" y="-175.5" font-family="Helvetica,sans-Serif" font-weight="bold" font-size="10.00" fill="#1a1a2e">Admiral</text>
<text xml:space="preserve" text-anchor="start" x="66.75" y="-159.25" font-family="Helvetica,sans-Serif" font-size="10.00" fill="#1a1a2e">Score: 1251&#45;1293</text>
<text xml:space="preserve" text-anchor="start" x="60.75" y="-144" font-family="Helvetica,sans-Serif" font-size="10.00" fill="#1a1a2e">Min Retire: 40 years</text>
<text xml:space="preserve" text-anchor="start" x="63.38" y="-128.75" font-family="Helvetica,sans-Serif" font-size="10.00" fill="#1a1a2e">Commands: Fleets</text>
</g>
<!-- r6&#45;&gt;r7 -->
<g id="edge6" class="edge">
<title>r6&#45;&gt;r7</title>
<path fill="none" stroke="#4ecdc4" d="M105,-225.77C105,-218.04 105,-209.69 105,-201.56"/>
<polygon fill="#4ecdc4" stroke="#4ecdc4" points="108.5,-201.82 105,-191.82 101.5,-201.82 108.5,-201.82"/>
</g>
<!-- r8 -->
<g id="node8" class="node">
<title>r8</title>
<path fill="#ff6b6b" stroke="#4ecdc4" d="M152.88,-85C152.88,-85 57.12,-85 57.12,-85 51.13,-85 45.12,-79 45.12,-73 45.12,-73 45.12,-28 45.12,-28 45.12,-22 51.12,-16 57.12,-16 57.12,-16 152.88,-16 152.88,-16 158.88,-16 164.88,-22 164.88,-28 164.88,-28 164.88,-73 164.88,-73 164.88,-79 158.88,-85 152.88,-85"/>
<text xml:space="preserve" text-anchor="start" x="74.25" y="-70.5" font-family="Helvetica,sans-Serif" font-weight="bold" font-size="10.00" fill="#1a1a2e">Fleet Admiral</text>
<text xml:space="preserve" text-anchor="start" x="72.75" y="-54.25" font-family="Helvetica,sans-Serif" font-size="10.00" fill="#1a1a2e">Score: ~1300+</text>
<text xml:space="preserve" text-anchor="start" x="60.75" y="-39" font-family="Helvetica,sans-Serif" font-size="10.00" fill="#1a1a2e">Min Retire: 45 years</text>
<text xml:space="preserve" text-anchor="start" x="55.12" y="-23.75" font-family="Helvetica,sans-Serif" font-size="10.00" fill="#1a1a2e">Commands: All Forces</text>
</g>
<!-- r7&#45;&gt;r8 -->
<g id="edge7" class="edge">
<title>r7&#45;&gt;r8</title>
<path fill="none" stroke="#4ecdc4" d="M105,-120.77C105,-113.04 105,-104.69 105,-96.56"/>
<polygon fill="#4ecdc4" stroke="#4ecdc4" points="108.5,-96.82 105,-86.82 101.5,-96.82 108.5,-96.82"/>
</g>
<!-- req1 -->
<g id="node9" class="node">
<title>req1</title>
<path fill="#2d2d44" stroke="#4ecdc4" d="M368.5,-835.25C368.5,-835.25 243.5,-835.25 243.5,-835.25 237.5,-835.25 231.5,-829.25 231.5,-823.25 231.5,-823.25 231.5,-763 231.5,-763 231.5,-757 237.5,-751 243.5,-751 243.5,-751 368.5,-751 368.5,-751 374.5,-751 380.5,-757 380.5,-763 380.5,-763 380.5,-823.25 380.5,-823.25 380.5,-829.25 374.5,-835.25 368.5,-835.25"/>
<text xml:space="preserve" text-anchor="start" x="241.5" y="-820.75" font-family="Helvetica,sans-Serif" font-weight="bold" font-size="10.00" fill="white">On&#45;Demand System (v2.0.0)</text>
<text xml:space="preserve" text-anchor="start" x="241.5" y="-804.5" font-family="Helvetica,sans-Serif" font-size="10.00" fill="white">1. Position must be available</text>
<text xml:space="preserve" text-anchor="start" x="241.5" y="-789.25" font-family="Helvetica,sans-Serif" font-size="10.00" fill="white">2. 1+ year at current rank</text>
<text xml:space="preserve" text-anchor="start" x="241.5" y="-774" font-family="Helvetica,sans-Serif" font-size="10.00" fill="white">3. No &quot;Do Not Promote&quot; flag</text>
<text xml:space="preserve" text-anchor="start" x="241.5" y="-758.75" font-family="Helvetica,sans-Serif" font-size="10.00" fill="white">4. Primary bonus for role</text>
</g>
<!-- req2 -->
<g id="node10" class="node">
<title>req2</title>
<path fill="#2d2d44" stroke="#4ecdc4" d="M382,-715C382,-715 230,-715 230,-715 224,-715 218,-709 218,-703 218,-703 218,-658 218,-658 218,-652 224,-646 230,-646 230,-646 382,-646 382,-646 388,-646 394,-652 394,-658 394,-658 394,-703 394,-703 394,-709 388,-715 382,-715"/>
<text xml:space="preserve" text-anchor="start" x="265.5" y="-700.5" font-family="Helvetica,sans-Serif" font-weight="bold" font-size="10.00" fill="white">Selection Priority</text>
<text xml:space="preserve" text-anchor="start" x="228" y="-684.25" font-family="Helvetica,sans-Serif" font-size="10.00" fill="white">1. Highest primary bonus</text>
<text xml:space="preserve" text-anchor="start" x="228" y="-669" font-family="Helvetica,sans-Serif" font-size="10.00" fill="white">2. Best promotion score (tiebreaker)</text>
<text xml:space="preserve" text-anchor="start" x="228" y="-653.75" font-family="Helvetica,sans-Serif" font-size="10.00" fill="white">3. Political bonus (if enabled)</text>
</g>
<!-- req1&#45;&gt;req2 -->
<!-- score1 -->
<g id="node11" class="node">
<title>score1</title>
<path fill="#ffe66d" stroke="#4ecdc4" d="M494.12,-811.12C494.12,-811.12 421.88,-811.12 421.88,-811.12 415.88,-811.12 409.88,-805.12 409.88,-799.12 409.88,-799.12 409.88,-787.12 409.88,-787.12 409.88,-781.12 415.88,-775.12 421.88,-775.12 421.88,-775.12 494.12,-775.12 494.12,-775.12 500.12,-775.12 506.12,-781.12 506.12,-787.12 506.12,-787.12 506.12,-799.12 506.12,-799.12 506.12,-805.12 500.12,-811.12 494.12,-811.12"/>
<text xml:space="preserve" text-anchor="middle" x="458" y="-794.88" font-family="Helvetica,sans-Serif" font-size="10.00" fill="#1a1a2e">Medals &amp; Ribbons</text>
<text xml:space="preserve" text-anchor="middle" x="458" y="-783.62" font-family="Helvetica,sans-Serif" font-size="10.00" fill="#1a1a2e">(point values vary)</text>
</g>
<!-- score2 -->
<g id="node12" class="node">
<title>score2</title>
<path fill="#ffe66d" stroke="#4ecdc4" d="M627.88,-811.12C627.88,-811.12 536.12,-811.12 536.12,-811.12 530.12,-811.12 524.12,-805.12 524.12,-799.12 524.12,-799.12 524.12,-787.12 524.12,-787.12 524.12,-781.12 530.12,-775.12 536.12,-775.12 536.12,-775.12 627.88,-775.12 627.88,-775.12 633.88,-775.12 639.88,-781.12 639.88,-787.12 639.88,-787.12 639.88,-799.12 639.88,-799.12 639.88,-805.12 633.88,-811.12 627.88,-811.12"/>
<text xml:space="preserve" text-anchor="middle" x="582" y="-794.88" font-family="Helvetica,sans-Serif" font-size="10.00" fill="#1a1a2e">Research Completions</text>
<text xml:space="preserve" text-anchor="middle" x="582" y="-783.62" font-family="Helvetica,sans-Serif" font-size="10.00" fill="#1a1a2e">(scientists only)</text>
</g>
<!-- score3 -->
<g id="node13" class="node">
<title>score3</title>
<path fill="#ffe66d" stroke="#4ecdc4" d="M733.62,-811.12C733.62,-811.12 670.38,-811.12 670.38,-811.12 664.38,-811.12 658.38,-805.12 658.38,-799.12 658.38,-799.12 658.38,-787.12 658.38,-787.12 658.38,-781.12 664.38,-775.12 670.38,-775.12 670.38,-775.12 733.62,-775.12 733.62,-775.12 739.62,-775.12 745.62,-781.12 745.62,-787.12 745.62,-787.12 745.62,-799.12 745.62,-799.12 745.62,-805.12 739.62,-811.12 733.62,-811.12"/>
<text xml:space="preserve" text-anchor="middle" x="702" y="-794.88" font-family="Helvetica,sans-Serif" font-size="10.00" fill="#1a1a2e">Time in Grade</text>
<text xml:space="preserve" text-anchor="middle" x="702" y="-783.62" font-family="Helvetica,sans-Serif" font-size="10.00" fill="#1a1a2e">(eligibility factor)</text>
</g>
<!-- retirement -->
<g id="node14" class="node">
<title>retirement</title>
<path fill="#2d2d44" stroke="#4ecdc4" d="M922.38,-820C922.38,-820 775.62,-820 775.62,-820 769.62,-820 763.62,-814 763.62,-808 763.62,-808 763.62,-778.25 763.62,-778.25 763.62,-772.25 769.62,-766.25 775.62,-766.25 775.62,-766.25 922.38,-766.25 922.38,-766.25 928.38,-766.25 934.38,-772.25 934.38,-778.25 934.38,-778.25 934.38,-808 934.38,-808 934.38,-814 928.38,-820 922.38,-820"/>
<text xml:space="preserve" text-anchor="start" x="811.5" y="-805.5" font-family="Helvetica,sans-Serif" font-weight="bold" font-size="10.00" fill="white">Retirement Risk</text>
<text xml:space="preserve" text-anchor="start" x="773.62" y="-789.25" font-family="Helvetica,sans-Serif" font-size="10.00" fill="white">20%/year after min retirement date</text>
<text xml:space="preserve" text-anchor="start" x="789" y="-774" font-family="Helvetica,sans-Serif" font-size="10.00" fill="#ff6b6b">40%/year if UNASSIGNED</text>
</g>
<!-- tip -->
<g id="node15" class="node">
<title>tip</title>
<polygon fill="#2d2d44" stroke="#4ecdc4" points="929.12,-715 762.88,-715 762.88,-646 935.12,-646 935.12,-709 929.12,-715"/>
<polyline fill="none" stroke="#4ecdc4" points="929.12,-715 929.12,-709"/>
<polyline fill="none" stroke="#4ecdc4" points="935.12,-709 929.12,-709"/>
<text xml:space="preserve" text-anchor="start" x="829.88" y="-700.5" font-family="Helvetica,sans-Serif" font-weight="bold" font-size="10.00" fill="white">Strategy</text>
<text xml:space="preserve" text-anchor="start" x="775.5" y="-684.25" font-family="Helvetica,sans-Serif" font-size="10.00" fill="white">Promotion extends min retirement</text>
<text xml:space="preserve" text-anchor="start" x="774.75" y="-669" font-family="Helvetica,sans-Serif" font-size="10.00" fill="white">+5 years per rank above minimum</text>
<text xml:space="preserve" text-anchor="start" x="772.88" y="-653.75" font-family="Helvetica,sans-Serif" font-size="10.00" fill="#95d5b2">Promote to retain valuable officers!</text>
</g>
<!-- retirement&#45;&gt;tip -->
</g>
</svg>
