<?xml version="1.0" encoding="UTF-8" standalone="no"?>
<!DOCTYPE svg PUBLIC "-//W3C//DTD SVG 1.1//EN"
 "http://www.w3.org/Graphics/SVG/1.1/DTD/svg11.dtd">
<!-- Generated by graphviz version 14.1.2 (20260124.0452)
 -->
<!-- Title: crew_grade Pages: 1 -->
<svg width="1924pt" height="685pt"
 viewBox="0.00 0.00 1924.00 685.00" xmlns="http://www.w3.org/2000/svg" xmlns:xlink="http://www.w3.org/1999/xlink">
<g id="graph0" class="graph" transform="scale(1 1) rotate(0) translate(4 681)">
<title>crew_grade</title>
<polygon fill="#1a1a2e" stroke="none" points="-4,4 -4,-681 1919.85,-681 1919.85,4 -4,4"/>
<text xml:space="preserve" text-anchor="start" x="840.92" y="-658.8" font-family="Times,serif" font-weight="bold" font-size="16.00" fill="white">Crew Grade: Diminishing Returns</text>
<!-- formula -->
<g id="node1" class="node">
<title>formula</title>
<path fill="#4ecdc4" stroke="#4ecdc4" d="M193.25,-650.25C193.25,-650.25 29.25,-650.25 29.25,-650.25 23.25,-650.25 17.25,-644.25 17.25,-638.25 17.25,-638.25 17.25,-604.75 17.25,-604.75 17.25,-598.75 23.25,-592.75 29.25,-592.75 29.25,-592.75 193.25,-592.75 193.25,-592.75 199.25,-592.75 205.25,-598.75 205.25,-604.75 205.25,-604.75 205.25,-638.25 205.25,-638.25 205.25,-644.25 199.25,-650.25 193.25,-650.25"/>
<text xml:space="preserve" text-anchor="start" x="59.5" y="-635.75" font-family="Helvetica,sans-Serif" font-weight="bold" font-size="10.00" fill="#1a1a2e">Grade Bonus Formula</text>
<text xml:space="preserve" text-anchor="start" x="28.38" y="-615.7" font-family="Helvetica,sans-Serif" font-size="14.00" fill="#1a1a2e">Bonus = SQRT(Points) &#45; 10</text>
<text xml:space="preserve" text-anchor="start" x="27.25" y="-600.5" font-family="Helvetica,sans-Serif" font-size="10.00" fill="#1a1a2e">Maximum: 1000 points = 21.6% bonus</text>
</g>
<!-- accum -->
<g id="node2" class="node">
<title>accum</title>
<path fill="#2d2d44" stroke="#4ecdc4" d="M200.75,-556.75C200.75,-556.75 21.75,-556.75 21.75,-556.75 15.75,-556.75 9.75,-550.75 9.75,-544.75 9.75,-544.75 9.75,-515 9.75,-515 9.75,-509 15.75,-503 21.75,-503 21.75,-503 200.75,-503 200.75,-503 206.75,-503 212.75,-509 212.75,-515 212.75,-515 212.75,-544.75 212.75,-544.75 212.75,-550.75 206.75,-556.75 200.75,-556.75"/>
<text xml:space="preserve" text-anchor="start" x="47.12" y="-542.25" font-family="Helvetica,sans-Serif" font-weight="bold" font-size="10.00" fill="white">Annual Point Accumulation</text>
<text xml:space="preserve" text-anchor="start" x="19.75" y="-526" font-family="Helvetica,sans-Serif" font-size="10.00" fill="white">Commander: 50% of Crew Training bonus</text>
<text xml:space="preserve" text-anchor="start" x="36.62" y="-510.75" font-family="Helvetica,sans-Serif" font-size="10.00" fill="white">XO: 100% of Crew Training bonus</text>
</g>
<!-- formula&#45;&gt;accum -->
<g id="edge1" class="edge">
<title>formula&#45;&gt;accum</title>
<path fill="none" stroke="#4ecdc4" d="M111.25,-592.63C111.25,-585.04 111.25,-576.68 111.25,-568.63"/>
<polygon fill="#4ecdc4" stroke="#4ecdc4" points="114.75,-568.71 111.25,-558.71 107.75,-568.71 114.75,-568.71"/>
</g>
<!-- curve -->
<g id="node3" class="node">
<title>curve</title>
<path fill="#2d2d44" stroke="none" d="M166.88,-467C166.88,-467 55.62,-467 55.62,-467 49.62,-467 43.62,-461 43.62,-455 43.62,-455 43.62,-237.25 43.62,-237.25 43.62,-231.25 49.62,-225.25 55.62,-225.25 55.62,-225.25 166.88,-225.25 166.88,-225.25 172.88,-225.25 178.88,-231.25 178.88,-237.25 178.88,-237.25 178.88,-455 178.88,-455 178.88,-461 172.88,-467 166.88,-467"/>
<polygon fill="#4ecdc4" stroke="none" points="51.62,-441.75 51.62,-463 91.62,-463 91.62,-441.75 51.62,-441.75"/>
<polygon fill="none" stroke="#4ecdc4" points="51.62,-441.75 51.62,-463 91.62,-463 91.62,-441.75 51.62,-441.75"/>
<text xml:space="preserve" text-anchor="start" x="56.62" y="-449.5" font-family="Helvetica,sans-Serif" font-weight="bold" font-size="10.00" fill="#1a1a2e">Points</text>
<polygon fill="#4ecdc4" stroke="none" points="91.62,-441.75 91.62,-463 132.38,-463 132.38,-441.75 91.62,-441.75"/>
<polygon fill="none" stroke="#4ecdc4" points="91.62,-441.75 91.62,-463 132.38,-463 132.38,-441.75 91.62,-441.75"/>
<text xml:space="preserve" text-anchor="start" x="96.62" y="-449.5" font-family="Helvetica,sans-Serif" font-weight="bold" font-size="10.00" fill="#1a1a2e">Bonus</text>
<polygon fill="#4ecdc4" stroke="none" points="132.38,-441.75 132.38,-463 170.88,-463 170.88,-441.75 132.38,-441.75"/>
<polygon fill="none" stroke="#4ecdc4" points="132.38,-441.75 132.38,-463 170.88,-463 170.88,-441.75 132.38,-441.75"/>
<text xml:space="preserve" text-anchor="start" x="140.75" y="-449.5" font-family="Helvetica,sans-Serif" font-weight="bold" font-size="10.00" fill="#1a1a2e">Gain</text>
<polygon fill="none" stroke="#4ecdc4" points="51.62,-420.5 51.62,-441.75 91.62,-441.75 91.62,-420.5 51.62,-420.5"/>
<text xml:space="preserve" text-anchor="start" x="63.75" y="-427.25" font-family="Helvetica,sans-Serif" font-size="10.00" fill="#1a1a2e">100</text>
<polygon fill="none" stroke="#4ecdc4" points="91.62,-420.5 91.62,-441.75 132.38,-441.75 132.38,-420.5 91.62,-420.5"/>
<text xml:space="preserve" text-anchor="start" x="104.88" y="-427.25" font-family="Helvetica,sans-Serif" font-size="10.00" fill="#1a1a2e">0%</text>
<polygon fill="none" stroke="#4ecdc4" points="132.38,-420.5 132.38,-441.75 170.88,-441.75 170.88,-420.5 132.38,-420.5"/>
<text xml:space="preserve" text-anchor="start" x="150.12" y="-427.25" font-family="Helvetica,sans-Serif" font-size="10.00" fill="#1a1a2e">&#45;</text>
<polygon fill="#95d5b2" stroke="none" points="51.62,-399.25 51.62,-420.5 91.62,-420.5 91.62,-399.25 51.62,-399.25"/>
<polygon fill="none" stroke="#4ecdc4" points="51.62,-399.25 51.62,-420.5 91.62,-420.5 91.62,-399.25 51.62,-399.25"/>
<text xml:space="preserve" text-anchor="start" x="63.75" y="-406" font-family="Helvetica,sans-Serif" font-size="10.00" fill="#1a1a2e">200</text>
<polygon fill="#95d5b2" stroke="none" points="91.62,-399.25 91.62,-420.5 132.38,-420.5 132.38,-399.25 91.62,-399.25"/>
<polygon fill="none" stroke="#4ecdc4" points="91.62,-399.25 91.62,-420.5 132.38,-420.5 132.38,-399.25 91.62,-399.25"/>
<text xml:space="preserve" text-anchor="start" x="100.75" y="-406" font-family="Helvetica,sans-Serif" font-size="10.00" fill="#1a1a2e">4.1%</text>
<polygon fill="#95d5b2" stroke="none" points="132.38,-399.25 132.38,-420.5 170.88,-420.5 170.88,-399.25 132.38,-399.25"/>
<polygon fill="none" stroke="#4ecdc4" points="132.38,-399.25 132.38,-420.5 170.88,-420.5 170.88,-399.25 132.38,-399.25"/>
<text xml:space="preserve" text-anchor="start" x="137.38" y="-406" font-family="Helvetica,sans-Serif" font-size="10.00" fill="#1a1a2e">+4.1%</text>
<polygon fill="none" stroke="#4ecdc4" points="51.62,-378 51.62,-399.25 91.62,-399.25 91.62,-378 51.62,-378"/>
<text xml:space="preserve" text-anchor="start" x="63.75" y="-384.75" font-family="Helvetica,sans-Serif" font-size="10.00" fill="#1a1a2e">300</text>
<polygon fill="none" stroke="#4ecdc4" points="91.62,-378 91.62,-399.25 132.38,-399.25 132.38,-378 91.62,-378"/>
<text xml:space="preserve" text-anchor="start" x="100.75" y="-384.75" font-family="Helvetica,sans-Serif" font-size="10.00" fill="#1a1a2e">7.3%</text>
<polygon fill="none" stroke="#4ecdc4" points="132.38,-378 132.38,-399.25 170.88,-399.25 170.88,-378 132.38,-378"/>
<text xml:space="preserve" text-anchor="start" x="137.38" y="-384.75" font-family="Helvetica,sans-Serif" font-size="10.00" fill="#1a1a2e">+3.2%</text>
<polygon fill="#95d5b2" stroke="none" points="51.62,-356.75 51.62,-378 91.62,-378 91.62,-356.75 51.62,-356.75"/>
<polygon fill="none" stroke="#4ecdc4" points="51.62,-356.75 51.62,-378 91.62,-378 91.62,-356.75 51.62,-356.75"/>
<text xml:space="preserve" text-anchor="start" x="63.75" y="-363.5" font-family="Helvetica,sans-Serif" font-size="10.00" fill="#1a1a2e">400</text>
<polygon fill="#95d5b2" stroke="none" points="91.62,-356.75 91.62,-378 132.38,-378 132.38,-356.75 91.62,-356.75"/>
<polygon fill="none" stroke="#4ecdc4" points="91.62,-356.75 91.62,-378 132.38,-378 132.38,-356.75 91.62,-356.75"/>
<text xml:space="preserve" text-anchor="start" x="102.25" y="-363.5" font-family="Helvetica,sans-Serif" font-size="10.00" fill="#1a1a2e">10%</text>
<polygon fill="#95d5b2" stroke="none" points="132.38,-356.75 132.38,-378 170.88,-378 170.88,-356.75 132.38,-356.75"/>
<polygon fill="none" stroke="#4ecdc4" points="132.38,-356.75 132.38,-378 170.88,-378 170.88,-356.75 132.38,-356.75"/>
<text xml:space="preserve" text-anchor="start" x="137.38" y="-363.5" font-family="Helvetica,sans-Serif" font-size="10.00" fill="#1a1a2e">+2.7%</text>
<polygon fill="none" stroke="#4ecdc4" points="51.62,-335.5 51.62,-356.75 91.62,-356.75 91.62,-335.5 51.62,-335.5"/>
<text xml:space="preserve" text-anchor="start" x="63.75" y="-342.25" font-family="Helvetica,sans-Serif" font-size="10.00" fill="#1a1a2e">500</text>
<polygon fill="none" stroke="#4ecdc4" points="91.62,-335.5 91.62,-356.75 132.38,-356.75 132.38,-335.5 91.62,-335.5"/>
<text xml:space="preserve" text-anchor="start" x="98.12" y="-342.25" font-family="Helvetica,sans-Serif" font-size="10.00" fill="#1a1a2e">12.4%</text>
<polygon fill="none" stroke="#4ecdc4" points="132.38,-335.5 132.38,-356.75 170.88,-356.75 170.88,-335.5 132.38,-335.5"/>
<text xml:space="preserve" text-anchor="start" x="137.38" y="-342.25" font-family="Helvetica,sans-Serif" font-size="10.00" fill="#1a1a2e">+2.4%</text>
<polygon fill="#95d5b2" stroke="none" points="51.62,-314.25 51.62,-335.5 91.62,-335.5 91.62,-314.25 51.62,-314.25"/>
<polygon fill="none" stroke="#4ecdc4" points="51.62,-314.25 51.62,-335.5 91.62,-335.5 91.62,-314.25 51.62,-314.25"/>
<text xml:space="preserve" text-anchor="start" x="63.75" y="-321" font-family="Helvetica,sans-Serif" font-size="10.00" fill="#1a1a2e">600</text>
<polygon fill="#95d5b2" stroke="none" points="91.62,-314.25 91.62,-335.5 132.38,-335.5 132.38,-314.25 91.62,-314.25"/>
<polygon fill="none" stroke="#4ecdc4" points="91.62,-314.25 91.62,-335.5 132.38,-335.5 132.38,-314.25 91.62,-314.25"/>
<text xml:space="preserve" text-anchor="start" x="98.12" y="-321" font-family="Helvetica,sans-Serif" font-size="10.00" fill="#1a1a2e">14.5%</text>
<polygon fill="#95d5b2" stroke="none" points="132.38,-314.25 132.38,-335.5 170.88,-335.5 170.88,-314.25 132.38,-314.25"/>
<polygon fill="none" stroke="#4ecdc4" points="132.38,-314.25 132.38,-335.5 170.88,-335.5 170.88,-314.25 132.38,-314.25"/>
<text xml:space="preserve" text-anchor="start" x="137.38" y="-321" font-family="Helvetica,sans-Serif" font-size="10.00" fill="#1a1a2e">+2.1%</text>
<polygon fill="none" stroke="#4ecdc4" points="51.62,-293 51.62,-314.25 91.62,-314.25 91.62,-293 51.62,-293"/>
<text xml:space="preserve" text-anchor="start" x="63.75" y="-299.75" font-family="Helvetica,sans-Serif" font-size="10.00" fill="#1a1a2e">700</text>
<polygon fill="none" stroke="#4ecdc4" points="91.62,-293 91.62,-314.25 132.38,-314.25 132.38,-293 91.62,-293"/>
<text xml:space="preserve" text-anchor="start" x="98.12" y="-299.75" font-family="Helvetica,sans-Serif" font-size="10.00" fill="#1a1a2e">16.5%</text>
<polygon fill="none" stroke="#4ecdc4" points="132.38,-293 132.38,-314.25 170.88,-314.25 170.88,-293 132.38,-293"/>
<text xml:space="preserve" text-anchor="start" x="137.38" y="-299.75" font-family="Helvetica,sans-Serif" font-size="10.00" fill="#1a1a2e">+2.0%</text>
<polygon fill="#95d5b2" stroke="none" points="51.62,-271.75 51.62,-293 91.62,-293 91.62,-271.75 51.62,-271.75"/>
<polygon fill="none" stroke="#4ecdc4" points="51.62,-271.75 51.62,-293 91.62,-293 91.62,-271.75 51.62,-271.75"/>
<text xml:space="preserve" text-anchor="start" x="63.75" y="-278.5" font-family="Helvetica,sans-Serif" font-size="10.00" fill="#1a1a2e">800</text>
<polygon fill="#95d5b2" stroke="none" points="91.62,-271.75 91.62,-293 132.38,-293 132.38,-271.75 91.62,-271.75"/>
<polygon fill="none" stroke="#4ecdc4" points="91.62,-271.75 91.62,-293 132.38,-293 132.38,-271.75 91.62,-271.75"/>
<text xml:space="preserve" text-anchor="start" x="98.12" y="-278.5" font-family="Helvetica,sans-Serif" font-size="10.00" fill="#1a1a2e">18.3%</text>
<polygon fill="#95d5b2" stroke="none" points="132.38,-271.75 132.38,-293 170.88,-293 170.88,-271.75 132.38,-271.75"/>
<polygon fill="none" stroke="#4ecdc4" points="132.38,-271.75 132.38,-293 170.88,-293 170.88,-271.75 132.38,-271.75"/>
<text xml:space="preserve" text-anchor="start" x="137.38" y="-278.5" font-family="Helvetica,sans-Serif" font-size="10.00" fill="#1a1a2e">+1.8%</text>
<polygon fill="none" stroke="#4ecdc4" points="51.62,-250.5 51.62,-271.75 91.62,-271.75 91.62,-250.5 51.62,-250.5"/>
<text xml:space="preserve" text-anchor="start" x="63.75" y="-257.25" font-family="Helvetica,sans-Serif" font-size="10.00" fill="#1a1a2e">900</text>
<polygon fill="none" stroke="#4ecdc4" points="91.62,-250.5 91.62,-271.75 132.38,-271.75 132.38,-250.5 91.62,-250.5"/>
<text xml:space="preserve" text-anchor="start" x="102.25" y="-257.25" font-family="Helvetica,sans-Serif" font-size="10.00" fill="#1a1a2e">20%</text>
<polygon fill="none" stroke="#4ecdc4" points="132.38,-250.5 132.38,-271.75 170.88,-271.75 170.88,-250.5 132.38,-250.5"/>
<text xml:space="preserve" text-anchor="start" x="137.38" y="-257.25" font-family="Helvetica,sans-Serif" font-size="10.00" fill="#1a1a2e">+1.7%</text>
<polygon fill="#ffe66d" stroke="none" points="51.62,-229.25 51.62,-250.5 91.62,-250.5 91.62,-229.25 51.62,-229.25"/>
<polygon fill="none" stroke="#4ecdc4" points="51.62,-229.25 51.62,-250.5 91.62,-250.5 91.62,-229.25 51.62,-229.25"/>
<text xml:space="preserve" text-anchor="start" x="61.12" y="-237" font-family="Helvetica,sans-Serif" font-weight="bold" font-size="10.00" fill="#1a1a2e">1000</text>
<polygon fill="#ffe66d" stroke="none" points="91.62,-229.25 91.62,-250.5 132.38,-250.5 132.38,-229.25 91.62,-229.25"/>
<polygon fill="none" stroke="#4ecdc4" points="91.62,-229.25 91.62,-250.5 132.38,-250.5 132.38,-229.25 91.62,-229.25"/>
<text xml:space="preserve" text-anchor="start" x="98.12" y="-237" font-family="Helvetica,sans-Serif" font-weight="bold" font-size="10.00" fill="#1a1a2e">21.6%</text>
<polygon fill="#ffe66d" stroke="none" points="132.38,-229.25 132.38,-250.5 170.88,-250.5 170.88,-229.25 132.38,-229.25"/>
<polygon fill="none" stroke="#4ecdc4" points="132.38,-229.25 132.38,-250.5 170.88,-250.5 170.88,-229.25 132.38,-229.25"/>
<text xml:space="preserve" text-anchor="start" x="137.38" y="-236" font-family="Helvetica,sans-Serif" font-size="10.00" fill="#1a1a2e">+1.6%</text>
</g>
<!-- accum&#45;&gt;curve -->
<g id="edge2" class="edge">
<title>accum&#45;&gt;curve</title>
<path fill="none" stroke="#4ecdc4" d="M111.25,-502.83C111.25,-495.58 111.25,-487.17 111.25,-478.09"/>
<polygon fill="#4ecdc4" stroke="#4ecdc4" points="114.75,-478.24 111.25,-468.24 107.75,-478.24 114.75,-478.24"/>
</g>
<!-- comparison -->
<g id="node13" class="node">
<title>comparison</title>
<polygon fill="#2d2d44" stroke="#4ecdc4" points="199.62,-189.25 16.88,-189.25 16.88,-120.25 205.62,-120.25 205.62,-183.25 199.62,-189.25"/>
<polyline fill="none" stroke="#4ecdc4" points="199.62,-189.25 199.62,-183.25"/>
<polyline fill="none" stroke="#4ecdc4" points="205.62,-183.25 199.62,-183.25"/>
<text xml:space="preserve" text-anchor="start" x="26.88" y="-174.75" font-family="Helvetica,sans-Serif" font-weight="bold" font-size="10.00" fill="white">Example: 30% Crew Training Officer</text>
<text xml:space="preserve" text-anchor="start" x="32.38" y="-158.5" font-family="Helvetica,sans-Serif" font-size="10.00" fill="white">As Commander:</text>
<text xml:space="preserve" text-anchor="start" x="107.62" y="-158.5" font-family="Helvetica,sans-Serif" font-size="10.00" fill="white">15 pts/year (50%)</text>
<text xml:space="preserve" text-anchor="start" x="71.38" y="-143.25" font-family="Helvetica,sans-Serif" font-size="10.00" fill="white">As XO:</text>
<text xml:space="preserve" text-anchor="start" x="107.62" y="-143.25" font-family="Helvetica,sans-Serif" font-size="10.00" fill="white">30 pts/year (100%)</text>
<text xml:space="preserve" text-anchor="start" x="34.38" y="-128" font-family="Helvetica,sans-Serif" font-size="10.00" fill="#ffe66d">XO provides 2x the training benefit!</text>
</g>
<!-- curve&#45;&gt;comparison -->
<g id="edge3" class="edge">
<title>curve&#45;&gt;comparison</title>
<path fill="none" stroke="#4ecdc4" d="M111.25,-225.46C111.25,-216.96 111.25,-208.74 111.25,-201.12"/>
<polygon fill="#4ecdc4" stroke="#4ecdc4" points="114.75,-201.18 111.25,-191.18 107.75,-201.18 114.75,-201.18"/>
</g>
<!-- bar1 -->
<g id="node4" class="node">
<title>bar1</title>
<path fill="#95d5b2" stroke="#4ecdc4" d="M499.25,-639.5C499.25,-639.5 235.25,-639.5 235.25,-639.5 229.25,-639.5 223.25,-633.5 223.25,-627.5 223.25,-627.5 223.25,-615.5 223.25,-615.5 223.25,-609.5 229.25,-603.5 235.25,-603.5 235.25,-603.5 499.25,-603.5 499.25,-603.5 505.25,-603.5 511.25,-609.5 511.25,-615.5 511.25,-615.5 511.25,-627.5 511.25,-627.5 511.25,-633.5 505.25,-639.5 499.25,-639.5"/>
<text xml:space="preserve" text-anchor="middle" x="367.25" y="-617.62" font-family="Helvetica,sans-Serif" font-size="10.00" fill="#1a1a2e">100&#45;200 pts: +4.1%</text>
</g>
<!-- bar2 -->
<g id="node5" class="node">
<title>bar2</title>
<path fill="#95d5b2" stroke="#4ecdc4" d="M747.45,-639.5C747.45,-639.5 541.05,-639.5 541.05,-639.5 535.05,-639.5 529.05,-633.5 529.05,-627.5 529.05,-627.5 529.05,-615.5 529.05,-615.5 529.05,-609.5 535.05,-603.5 541.05,-603.5 541.05,-603.5 747.45,-603.5 747.45,-603.5 753.45,-603.5 759.45,-609.5 759.45,-615.5 759.45,-615.5 759.45,-627.5 759.45,-627.5 759.45,-633.5 753.45,-639.5 747.45,-639.5"/>
<text xml:space="preserve" text-anchor="middle" x="644.25" y="-617.62" font-family="Helvetica,sans-Serif" font-size="10.00" fill="#1a1a2e">200&#45;300 pts: +3.2%</text>
</g>
<!-- bar3 -->
<g id="node6" class="node">
<title>bar3</title>
<path fill="#95d5b2" stroke="#4ecdc4" d="M959.45,-639.5C959.45,-639.5 789.05,-639.5 789.05,-639.5 783.05,-639.5 777.05,-633.5 777.05,-627.5 777.05,-627.5 777.05,-615.5 777.05,-615.5 777.05,-609.5 783.05,-603.5 789.05,-603.5 789.05,-603.5 959.45,-603.5 959.45,-603.5 965.45,-603.5 971.45,-609.5 971.45,-615.5 971.45,-615.5 971.45,-627.5 971.45,-627.5 971.45,-633.5 965.45,-639.5 959.45,-639.5"/>
<text xml:space="preserve" text-anchor="middle" x="874.25" y="-617.62" font-family="Helvetica,sans-Serif" font-size="10.00" fill="#1a1a2e">300&#45;400 pts: +2.7%</text>
</g>
<!-- bar4 -->
<g id="node7" class="node">
<title>bar4</title>
<path fill="#95d5b2" stroke="#4ecdc4" d="M1150.65,-639.5C1150.65,-639.5 1001.85,-639.5 1001.85,-639.5 995.85,-639.5 989.85,-633.5 989.85,-627.5 989.85,-627.5 989.85,-615.5 989.85,-615.5 989.85,-609.5 995.85,-603.5 1001.85,-603.5 1001.85,-603.5 1150.65,-603.5 1150.65,-603.5 1156.65,-603.5 1162.65,-609.5 1162.65,-615.5 1162.65,-615.5 1162.65,-627.5 1162.65,-627.5 1162.65,-633.5 1156.65,-639.5 1150.65,-639.5"/>
<text xml:space="preserve" text-anchor="middle" x="1076.25" y="-617.62" font-family="Helvetica,sans-Serif" font-size="10.00" fill="#1a1a2e">400&#45;500 pts: +2.4%</text>
</g>
<!-- bar5 -->
<g id="node8" class="node">
<title>bar5</title>
<path fill="#4ecdc4" stroke="#4ecdc4" d="M1319.85,-639.5C1319.85,-639.5 1192.65,-639.5 1192.65,-639.5 1186.65,-639.5 1180.65,-633.5 1180.65,-627.5 1180.65,-627.5 1180.65,-615.5 1180.65,-615.5 1180.65,-609.5 1186.65,-603.5 1192.65,-603.5 1192.65,-603.5 1319.85,-603.5 1319.85,-603.5 1325.85,-603.5 1331.85,-609.5 1331.85,-615.5 1331.85,-615.5 1331.85,-627.5 1331.85,-627.5 1331.85,-633.5 1325.85,-639.5 1319.85,-639.5"/>
<text xml:space="preserve" text-anchor="middle" x="1256.25" y="-617.62" font-family="Helvetica,sans-Serif" font-size="10.00" fill="#1a1a2e">500&#45;600 pts: +2.1%</text>
</g>
<!-- bar6 -->
<g id="node9" class="node">
<title>bar6</title>
<path fill="#4ecdc4" stroke="#4ecdc4" d="M1482.25,-639.5C1482.25,-639.5 1362.25,-639.5 1362.25,-639.5 1356.25,-639.5 1350.25,-633.5 1350.25,-627.5 1350.25,-627.5 1350.25,-615.5 1350.25,-615.5 1350.25,-609.5 1356.25,-603.5 1362.25,-603.5 1362.25,-603.5 1482.25,-603.5 1482.25,-603.5 1488.25,-603.5 1494.25,-609.5 1494.25,-615.5 1494.25,-615.5 1494.25,-627.5 1494.25,-627.5 1494.25,-633.5 1488.25,-639.5 1482.25,-639.5"/>
<text xml:space="preserve" text-anchor="middle" x="1422.25" y="-617.62" font-family="Helvetica,sans-Serif" font-size="10.00" fill="#1a1a2e">600&#45;700 pts: +2.0%</text>
</g>
<!-- bar7 -->
<g id="node10" class="node">
<title>bar7</title>
<path fill="#ffe66d" stroke="#4ecdc4" d="M1630.05,-639.5C1630.05,-639.5 1524.45,-639.5 1524.45,-639.5 1518.45,-639.5 1512.45,-633.5 1512.45,-627.5 1512.45,-627.5 1512.45,-615.5 1512.45,-615.5 1512.45,-609.5 1518.45,-603.5 1524.45,-603.5 1524.45,-603.5 1630.05,-603.5 1630.05,-603.5 1636.05,-603.5 1642.05,-609.5 1642.05,-615.5 1642.05,-615.5 1642.05,-627.5 1642.05,-627.5 1642.05,-633.5 1636.05,-639.5 1630.05,-639.5"/>
<text xml:space="preserve" text-anchor="middle" x="1577.25" y="-617.62" font-family="Helvetica,sans-Serif" font-size="10.00" fill="#1a1a2e">700&#45;800 pts: +1.8%</text>
</g>
<!-- bar8 -->
<g id="node11" class="node">
<title>bar8</title>
<path fill="#ffe66d" stroke="#4ecdc4" d="M1770.45,-639.5C1770.45,-639.5 1672.05,-639.5 1672.05,-639.5 1666.05,-639.5 1660.05,-633.5 1660.05,-627.5 1660.05,-627.5 1660.05,-615.5 1660.05,-615.5 1660.05,-609.5 1666.05,-603.5 1672.05,-603.5 1672.05,-603.5 1770.45,-603.5 1770.45,-603.5 1776.45,-603.5 1782.45,-609.5 1782.45,-615.5 1782.45,-615.5 1782.45,-627.5 1782.45,-627.5 1782.45,-633.5 1776.45,-639.5 1770.45,-639.5"/>
<text xml:space="preserve" text-anchor="middle" x="1721.25" y="-617.62" font-family="Helvetica,sans-Serif" font-size="10.00" fill="#1a1a2e">800&#45;900 pts: +1.7%</text>
</g>
<!-- bar9 -->
<g id="node12" class="node">
<title>bar9</title>
<path fill="#ff6b6b" stroke="#4ecdc4" d="M1903.85,-639.5C1903.85,-639.5 1812.65,-639.5 1812.65,-639.5 1806.65,-639.5 1800.65,-633.5 1800.65,-627.5 1800.65,-627.5 1800.65,-615.5 1800.65,-615.5 1800.65,-609.5 1806.65,-603.5 1812.65,-603.5 1812.65,-603.5 1903.85,-603.5 1903.85,-603.5 1909.85,-603.5 1915.85,-609.5 1915.85,-615.5 1915.85,-615.5 1915.85,-627.5 1915.85,-627.5 1915.85,-633.5 1909.85,-639.5 1903.85,-639.5"/>
<text xml:space="preserve" text-anchor="middle" x="1858.25" y="-617.62" font-family="Helvetica,sans-Serif" font-size="10.00" fill="#1a1a2e">900&#45;1000 pts: +1.6%</text>
</g>
<!-- insight -->
<g id="node14" class="node">
<title>insight</title>
<path fill="#2d2d44" stroke="#4ecdc4" d="M210.5,-84.25C210.5,-84.25 12,-84.25 12,-84.25 6,-84.25 0,-78.25 0,-72.25 0,-72.25 0,-12 0,-12 0,-6 6,0 12,0 12,0 210.5,0 210.5,0 216.5,0 222.5,-6 222.5,-12 222.5,-12 222.5,-72.25 222.5,-72.25 222.5,-78.25 216.5,-84.25 210.5,-84.25"/>
<text xml:space="preserve" text-anchor="start" x="73" y="-69.75" font-family="Helvetica,sans-Serif" font-weight="bold" font-size="10.00" fill="white">Strategic Insight</text>
<text xml:space="preserve" text-anchor="start" x="32.12" y="-53.5" font-family="Helvetica,sans-Serif" font-size="10.00" fill="white">Early training (0&#45;400 pts): Fast gains</text>
<text xml:space="preserve" text-anchor="start" x="19.75" y="-38.25" font-family="Helvetica,sans-Serif" font-size="10.00" fill="white">Mid training (400&#45;700 pts): Moderate gains</text>
<text xml:space="preserve" text-anchor="start" x="26.12" y="-23" font-family="Helvetica,sans-Serif" font-size="10.00" fill="white">Late training (700&#45;1000 pts): Slow grind</text>
<text xml:space="preserve" text-anchor="start" x="10" y="-7.75" font-family="Helvetica,sans-Serif" font-size="10.00" fill="#95d5b2">Focus new ships on reaching 400+ pts quickly</text>
</g>
<!-- comparison&#45;&gt;insight -->
<g id="edge4" class="edge">
<title>comparison&#45;&gt;insight</title>
<path fill="none" stroke="#4ecdc4" d="M111.25,-119.96C111.25,-112.36 111.25,-104.11 111.25,-95.94"/>
<polygon fill="#4ecdc4" stroke="#4ecdc4" points="114.75,-96.03 111.25,-86.03 107.75,-96.03 114.75,-96.03"/>
</g>
</g>
</svg>
