<?xml version="1.0" encoding="UTF-8" standalone="no"?>
<!DOCTYPE svg PUBLIC "-//W3C//DTD SVG 1.1//EN"
 "http://www.w3.org/Graphics/SVG/1.1/DTD/svg11.dtd">
<!-- Generated by graphviz version 14.1.2 (20260124.0452)
 -->
<!-- Title: skill_matrix Pages: 1 -->
<svg width="4238pt" height="128pt"
 viewBox="0.00 0.00 4238.00 128.00" xmlns="http://www.w3.org/2000/svg" xmlns:xlink="http://www.w3.org/1999/xlink">
<g id="graph0" class="graph" transform="scale(1 1) rotate(0) translate(4 124.12)">
<title>skill_matrix</title>
<polygon fill="#1a1a2e" stroke="none" points="-4,4 -4,-124.12 4233.75,-124.12 4233.75,4 -4,4"/>
<text xml:space="preserve" text-anchor="start" x="1997.88" y="-101.92" font-family="Times,serif" font-weight="bold" font-size="16.00" fill="white">Skill Categories by Officer Branch</text>
<g id="clust2" class="cluster">
<title>cluster_naval_skills</title>
<polygon fill="#1a1a2e" stroke="#4ecdc4" stroke-dasharray="5,2" points="304,-8.88 304,-85.38 895,-85.38 895,-8.88 304,-8.88"/>
<text xml:space="preserve" text-anchor="start" x="565" y="-69.08" font-family="Times,serif" font-weight="bold" font-size="14.00" fill="#4ecdc4">Naval Skills</text>
</g>
<g id="clust3" class="cluster">
<title>cluster_combat_skills</title>
<polygon fill="#1a1a2e" stroke="#4ecdc4" stroke-dasharray="5,2" points="903,-8.88 903,-85.38 1346,-85.38 1346,-8.88 903,-8.88"/>
<text xml:space="preserve" text-anchor="start" x="1083.25" y="-69.08" font-family="Times,serif" font-weight="bold" font-size="14.00" fill="#4ecdc4">Combat Skills</text>
</g>
<g id="clust4" class="cluster">
<title>cluster_diplo_skills</title>
<polygon fill="#1a1a2e" stroke="#4ecdc4" stroke-dasharray="5,2" points="1354,-8.88 1354,-85.38 1721,-85.38 1721,-8.88 1354,-8.88"/>
<text xml:space="preserve" text-anchor="start" x="1450.12" y="-69.08" font-family="Times,serif" font-weight="bold" font-size="14.00" fill="#4ecdc4">Diplomatic/Intel (Naval Only)</text>
</g>
<g id="clust5" class="cluster">
<title>cluster_ground_skills</title>
<polygon fill="#1a1a2e" stroke="#95d5b2" stroke-dasharray="5,2" points="1729,-8.88 1729,-85.38 2323,-85.38 2323,-8.88 1729,-8.88"/>
<text xml:space="preserve" text-anchor="start" x="1931.12" y="-69.08" font-family="Times,serif" font-weight="bold" font-size="14.00" fill="#95d5b2">Ground Combat (Ground Only)</text>
</g>
<g id="clust6" class="cluster">
<title>cluster_admin_skills</title>
<polygon fill="#1a1a2e" stroke="#ffe66d" stroke-dasharray="5,2" points="2331,-8.88 2331,-85.38 2805,-85.38 2805,-8.88 2331,-8.88"/>
<text xml:space="preserve" text-anchor="start" x="2506.5" y="-69.08" font-family="Times,serif" font-weight="bold" font-size="14.00" fill="#ffe66d">Administrative Skills</text>
</g>
<g id="clust7" class="cluster">
<title>cluster_science_skills</title>
<polygon fill="#1a1a2e" stroke="#ff6b6b" stroke-dasharray="5,2" points="2813,-8.88 2813,-85.38 3923,-85.38 3923,-8.88 2813,-8.88"/>
<text xml:space="preserve" text-anchor="start" x="3288.88" y="-69.08" font-family="Times,serif" font-weight="bold" font-size="14.00" fill="#ff6b6b">Research Fields (Scientists)</text>
</g>
<!-- naval_h -->
<g id="node1" class="node">
<title>naval_h</title>
<path fill="#4ecdc4" stroke="#4ecdc4" d="M42,-52.88C42,-52.88 12,-52.88 12,-52.88 6,-52.88 0,-46.88 0,-40.88 0,-40.88 0,-28.87 0,-28.87 0,-22.88 6,-16.88 12,-16.88 12,-16.88 42,-16.88 42,-16.88 48,-16.88 54,-22.88 54,-28.88 54,-28.88 54,-40.88 54,-40.88 54,-46.88 48,-52.88 42,-52.88"/>
<text xml:space="preserve" text-anchor="start" x="10.5" y="-32" font-family="Helvetica,sans-Serif" font-weight="bold" font-size="10.00" fill="#1a1a2e">NAVAL</text>
</g>
<!-- ground_h -->
<g id="node2" class="node">
<title>ground_h</title>
<path fill="#95d5b2" stroke="#4ecdc4" d="M121.5,-52.88C121.5,-52.88 84.5,-52.88 84.5,-52.88 78.5,-52.88 72.5,-46.88 72.5,-40.88 72.5,-40.88 72.5,-28.87 72.5,-28.87 72.5,-22.88 78.5,-16.88 84.5,-16.88 84.5,-16.88 121.5,-16.88 121.5,-16.88 127.5,-16.88 133.5,-22.88 133.5,-28.88 133.5,-28.88 133.5,-40.88 133.5,-40.88 133.5,-46.88 127.5,-52.88 121.5,-52.88"/>
<text xml:space="preserve" text-anchor="start" x="80.5" y="-32" font-family="Helvetica,sans-Serif" font-weight="bold" font-size="10.00" fill="#1a1a2e">GROUND</text>
</g>
<!-- admin_h -->
<g id="node3" class="node">
<title>admin_h</title>
<path fill="#ffe66d" stroke="#4ecdc4" d="M194,-52.88C194,-52.88 164,-52.88 164,-52.88 158,-52.88 152,-46.88 152,-40.88 152,-40.88 152,-28.87 152,-28.87 152,-22.88 158,-16.88 164,-16.88 164,-16.88 194,-16.88 194,-16.88 200,-16.88 206,-22.88 206,-28.88 206,-28.88 206,-40.88 206,-40.88 206,-46.88 200,-52.88 194,-52.88"/>
<text xml:space="preserve" text-anchor="start" x="162.12" y="-32" font-family="Helvetica,sans-Serif" font-weight="bold" font-size="10.00" fill="#1a1a2e">ADMIN</text>
</g>
<!-- sci_h -->
<g id="node4" class="node">
<title>sci_h</title>
<path fill="#ff6b6b" stroke="#4ecdc4" d="M281.62,-52.88C281.62,-52.88 236.38,-52.88 236.38,-52.88 230.38,-52.88 224.38,-46.88 224.38,-40.88 224.38,-40.88 224.38,-28.87 224.38,-28.87 224.38,-22.88 230.38,-16.88 236.38,-16.88 236.38,-16.88 281.62,-16.88 281.62,-16.88 287.62,-16.88 293.62,-22.88 293.62,-28.88 293.62,-28.88 293.62,-40.88 293.62,-40.88 293.62,-46.88 287.62,-52.88 281.62,-52.88"/>
<text xml:space="preserve" text-anchor="start" x="232.38" y="-32" font-family="Helvetica,sans-Serif" font-weight="bold" font-size="10.00" fill="#1a1a2e">SCIENTIST</text>
</g>
<!-- ns1 -->
<g id="node5" class="node">
<title>ns1</title>
<path fill="#4ecdc4" stroke="#4ecdc4" d="M376.38,-52.88C376.38,-52.88 323.62,-52.88 323.62,-52.88 317.62,-52.88 311.62,-46.88 311.62,-40.88 311.62,-40.88 311.62,-28.87 311.62,-28.87 311.62,-22.88 317.62,-16.88 323.62,-16.88 323.62,-16.88 376.38,-16.88 376.38,-16.88 382.38,-16.88 388.38,-22.88 388.38,-28.88 388.38,-28.88 388.38,-40.88 388.38,-40.88 388.38,-46.88 382.38,-52.88 376.38,-52.88"/>
<text xml:space="preserve" text-anchor="middle" x="350" y="-31" font-family="Helvetica,sans-Serif" font-size="10.00" fill="#1a1a2e">Ship Handling</text>
</g>
<!-- ns2 -->
<g id="node6" class="node">
<title>ns2</title>
<path fill="#4ecdc4" stroke="#4ecdc4" d="M471.38,-52.88C471.38,-52.88 418.62,-52.88 418.62,-52.88 412.62,-52.88 406.62,-46.88 406.62,-40.88 406.62,-40.88 406.62,-28.87 406.62,-28.87 406.62,-22.88 412.62,-16.88 418.62,-16.88 418.62,-16.88 471.38,-16.88 471.38,-16.88 477.38,-16.88 483.38,-22.88 483.38,-28.88 483.38,-28.88 483.38,-40.88 483.38,-40.88 483.38,-46.88 477.38,-52.88 471.38,-52.88"/>
<text xml:space="preserve" text-anchor="middle" x="445" y="-31" font-family="Helvetica,sans-Serif" font-size="10.00" fill="#1a1a2e">Crew Training</text>
</g>
<!-- ns3 -->
<g id="node7" class="node">
<title>ns3</title>
<path fill="#4ecdc4" stroke="#4ecdc4" d="M584.75,-52.88C584.75,-52.88 513.25,-52.88 513.25,-52.88 507.25,-52.88 501.25,-46.88 501.25,-40.88 501.25,-40.88 501.25,-28.87 501.25,-28.87 501.25,-22.88 507.25,-16.88 513.25,-16.88 513.25,-16.88 584.75,-16.88 584.75,-16.88 590.75,-16.88 596.75,-22.88 596.75,-28.88 596.75,-28.88 596.75,-40.88 596.75,-40.88 596.75,-46.88 590.75,-52.88 584.75,-52.88"/>
<text xml:space="preserve" text-anchor="middle" x="549" y="-31" font-family="Helvetica,sans-Serif" font-size="10.00" fill="#1a1a2e">Carrier Operations</text>
</g>
<!-- ns4 -->
<g id="node8" class="node">
<title>ns4</title>
<path fill="#4ecdc4" stroke="#4ecdc4" d="M675.12,-52.88C675.12,-52.88 626.88,-52.88 626.88,-52.88 620.88,-52.88 614.88,-46.88 614.88,-40.88 614.88,-40.88 614.88,-28.87 614.88,-28.87 614.88,-22.88 620.88,-16.88 626.88,-16.88 626.88,-16.88 675.12,-16.88 675.12,-16.88 681.12,-16.88 687.12,-22.88 687.12,-28.88 687.12,-28.88 687.12,-40.88 687.12,-40.88 687.12,-46.88 681.12,-52.88 675.12,-52.88"/>
<text xml:space="preserve" text-anchor="middle" x="651" y="-31" font-family="Helvetica,sans-Serif" font-size="10.00" fill="#1a1a2e">Fleet Tactics</text>
</g>
<!-- ns5 -->
<g id="node9" class="node">
<title>ns5</title>
<path fill="#4ecdc4" stroke="#4ecdc4" d="M747,-52.88C747,-52.88 717,-52.88 717,-52.88 711,-52.88 705,-46.88 705,-40.88 705,-40.88 705,-28.87 705,-28.87 705,-22.88 711,-16.88 717,-16.88 717,-16.88 747,-16.88 747,-16.88 753,-16.88 759,-22.88 759,-28.88 759,-28.88 759,-40.88 759,-40.88 759,-46.88 753,-52.88 747,-52.88"/>
<text xml:space="preserve" text-anchor="middle" x="732" y="-31" font-family="Helvetica,sans-Serif" font-size="10.00" fill="#1a1a2e">Tactical</text>
</g>
<!-- ns6 -->
<g id="node10" class="node">
<title>ns6</title>
<path fill="#4ecdc4" stroke="#4ecdc4" d="M874.88,-52.88C874.88,-52.88 789.12,-52.88 789.12,-52.88 783.12,-52.88 777.12,-46.88 777.12,-40.88 777.12,-40.88 777.12,-28.87 777.12,-28.87 777.12,-22.88 783.12,-16.88 789.12,-16.88 789.12,-16.88 874.88,-16.88 874.88,-16.88 880.88,-16.88 886.88,-22.88 886.88,-28.88 886.88,-28.88 886.88,-40.88 886.88,-40.88 886.88,-46.88 880.88,-52.88 874.88,-52.88"/>
<text xml:space="preserve" text-anchor="middle" x="832" y="-31" font-family="Helvetica,sans-Serif" font-size="10.00" fill="#1a1a2e">Light Tactical (v2.8.0)</text>
</g>
<!-- cs1 -->
<g id="node11" class="node">
<title>cs1</title>
<path fill="#4ecdc4" stroke="#4ecdc4" d="M989.12,-52.88C989.12,-52.88 922.88,-52.88 922.88,-52.88 916.88,-52.88 910.88,-46.88 910.88,-40.88 910.88,-40.88 910.88,-28.87 910.88,-28.87 910.88,-22.88 916.88,-16.88 922.88,-16.88 922.88,-16.88 989.12,-16.88 989.12,-16.88 995.12,-16.88 1001.12,-22.88 1001.12,-28.88 1001.12,-28.88 1001.12,-40.88 1001.12,-40.88 1001.12,-46.88 995.12,-52.88 989.12,-52.88"/>
<text xml:space="preserve" text-anchor="middle" x="956" y="-31" font-family="Helvetica,sans-Serif" font-size="10.00" fill="#1a1a2e">Energy Weapons</text>
</g>
<!-- cs2 -->
<g id="node12" class="node">
<title>cs2</title>
<path fill="#4ecdc4" stroke="#4ecdc4" d="M1096.75,-52.88C1096.75,-52.88 1031.25,-52.88 1031.25,-52.88 1025.25,-52.88 1019.25,-46.88 1019.25,-40.88 1019.25,-40.88 1019.25,-28.87 1019.25,-28.87 1019.25,-22.88 1025.25,-16.88 1031.25,-16.88 1031.25,-16.88 1096.75,-16.88 1096.75,-16.88 1102.75,-16.88 1108.75,-22.88 1108.75,-28.88 1108.75,-28.88 1108.75,-40.88 1108.75,-40.88 1108.75,-46.88 1102.75,-52.88 1096.75,-52.88"/>
<text xml:space="preserve" text-anchor="middle" x="1064" y="-31" font-family="Helvetica,sans-Serif" font-size="10.00" fill="#1a1a2e">Kinetic Weapons</text>
</g>
<!-- cs3 -->
<g id="node13" class="node">
<title>cs3</title>
<path fill="#4ecdc4" stroke="#4ecdc4" d="M1211.5,-52.88C1211.5,-52.88 1138.5,-52.88 1138.5,-52.88 1132.5,-52.88 1126.5,-46.88 1126.5,-40.88 1126.5,-40.88 1126.5,-28.87 1126.5,-28.87 1126.5,-22.88 1132.5,-16.88 1138.5,-16.88 1138.5,-16.88 1211.5,-16.88 1211.5,-16.88 1217.5,-16.88 1223.5,-22.88 1223.5,-28.88 1223.5,-28.88 1223.5,-40.88 1223.5,-40.88 1223.5,-46.88 1217.5,-52.88 1211.5,-52.88"/>
<text xml:space="preserve" text-anchor="middle" x="1175" y="-31" font-family="Helvetica,sans-Serif" font-size="10.00" fill="#1a1a2e">Missile Operations</text>
</g>
<!-- cs4 -->
<g id="node14" class="node">
<title>cs4</title>
<path fill="#4ecdc4" stroke="#4ecdc4" d="M1326.12,-52.88C1326.12,-52.88 1253.88,-52.88 1253.88,-52.88 1247.88,-52.88 1241.88,-46.88 1241.88,-40.88 1241.88,-40.88 1241.88,-28.87 1241.88,-28.87 1241.88,-22.88 1247.88,-16.88 1253.88,-16.88 1253.88,-16.88 1326.12,-16.88 1326.12,-16.88 1332.12,-16.88 1338.12,-22.88 1338.12,-28.88 1338.12,-28.88 1338.12,-40.88 1338.12,-40.88 1338.12,-46.88 1332.12,-52.88 1326.12,-52.88"/>
<text xml:space="preserve" text-anchor="middle" x="1290" y="-31" font-family="Helvetica,sans-Serif" font-size="10.00" fill="#1a1a2e">Electronic Warfare</text>
</g>
<!-- ds1 -->
<g id="node15" class="node">
<title>ds1</title>
<path fill="#4ecdc4" stroke="#4ecdc4" d="M1412.25,-52.88C1412.25,-52.88 1373.75,-52.88 1373.75,-52.88 1367.75,-52.88 1361.75,-46.88 1361.75,-40.88 1361.75,-40.88 1361.75,-28.87 1361.75,-28.87 1361.75,-22.88 1367.75,-16.88 1373.75,-16.88 1373.75,-16.88 1412.25,-16.88 1412.25,-16.88 1418.25,-16.88 1424.25,-22.88 1424.25,-28.88 1424.25,-28.88 1424.25,-40.88 1424.25,-40.88 1424.25,-46.88 1418.25,-52.88 1412.25,-52.88"/>
<text xml:space="preserve" text-anchor="middle" x="1393" y="-31" font-family="Helvetica,sans-Serif" font-size="10.00" fill="#1a1a2e">Diplomacy</text>
</g>
<!-- ds2 -->
<g id="node16" class="node">
<title>ds2</title>
<path fill="#4ecdc4" stroke="#4ecdc4" d="M1533.5,-52.88C1533.5,-52.88 1454.5,-52.88 1454.5,-52.88 1448.5,-52.88 1442.5,-46.88 1442.5,-40.88 1442.5,-40.88 1442.5,-28.87 1442.5,-28.87 1442.5,-22.88 1448.5,-16.88 1454.5,-16.88 1454.5,-16.88 1533.5,-16.88 1533.5,-16.88 1539.5,-16.88 1545.5,-22.88 1545.5,-28.88 1545.5,-28.88 1545.5,-40.88 1545.5,-40.88 1545.5,-46.88 1539.5,-52.88 1533.5,-52.88"/>
<text xml:space="preserve" text-anchor="middle" x="1494" y="-31" font-family="Helvetica,sans-Serif" font-size="10.00" fill="#1a1a2e">Intelligence (ELINT)</text>
</g>
<!-- ds_restrict -->
<g id="node17" class="node">
<title>ds_restrict</title>
<polygon fill="#2d2d44" stroke="#4ecdc4" points="1706.75,-52.88 1563.25,-52.88 1563.25,-16.88 1712.75,-16.88 1712.75,-46.88 1706.75,-52.88"/>
<polyline fill="none" stroke="#4ecdc4" points="1706.75,-52.88 1706.75,-46.88"/>
<polyline fill="none" stroke="#4ecdc4" points="1712.75,-46.88 1706.75,-46.88"/>
<text xml:space="preserve" text-anchor="start" x="1571.25" y="-31" font-family="Helvetica,sans-Serif" font-size="10.00" fill="#ff6b6b">Ground officers CANNOT gain</text>
</g>
<!-- gs1 -->
<g id="node18" class="node">
<title>gs1</title>
<path fill="#95d5b2" stroke="#4ecdc4" d="M1844.75,-52.88C1844.75,-52.88 1749.25,-52.88 1749.25,-52.88 1743.25,-52.88 1737.25,-46.88 1737.25,-40.88 1737.25,-40.88 1737.25,-28.87 1737.25,-28.87 1737.25,-22.88 1743.25,-16.88 1749.25,-16.88 1749.25,-16.88 1844.75,-16.88 1844.75,-16.88 1850.75,-16.88 1856.75,-22.88 1856.75,-28.88 1856.75,-28.88 1856.75,-40.88 1856.75,-40.88 1856.75,-46.88 1850.75,-52.88 1844.75,-52.88"/>
<text xml:space="preserve" text-anchor="middle" x="1797" y="-31" font-family="Helvetica,sans-Serif" font-size="10.00" fill="#1a1a2e">Ground Combat Tactics</text>
</g>
<!-- gs2 -->
<g id="node19" class="node">
<title>gs2</title>
<path fill="#95d5b2" stroke="#4ecdc4" d="M1929.5,-52.88C1929.5,-52.88 1886.5,-52.88 1886.5,-52.88 1880.5,-52.88 1874.5,-46.88 1874.5,-40.88 1874.5,-40.88 1874.5,-28.87 1874.5,-28.87 1874.5,-22.88 1880.5,-16.88 1886.5,-16.88 1886.5,-16.88 1929.5,-16.88 1929.5,-16.88 1935.5,-16.88 1941.5,-22.88 1941.5,-28.88 1941.5,-28.88 1941.5,-40.88 1941.5,-40.88 1941.5,-46.88 1935.5,-52.88 1929.5,-52.88"/>
<text xml:space="preserve" text-anchor="middle" x="1908" y="-31" font-family="Helvetica,sans-Serif" font-size="10.00" fill="#1a1a2e">Fortification</text>
</g>
<!-- gs3 -->
<g id="node20" class="node">
<title>gs3</title>
<path fill="#95d5b2" stroke="#4ecdc4" d="M2032.12,-52.88C2032.12,-52.88 1971.88,-52.88 1971.88,-52.88 1965.88,-52.88 1959.88,-46.88 1959.88,-40.88 1959.88,-40.88 1959.88,-28.87 1959.88,-28.87 1959.88,-22.88 1965.88,-16.88 1971.88,-16.88 1971.88,-16.88 2032.12,-16.88 2032.12,-16.88 2038.12,-16.88 2044.12,-22.88 2044.12,-28.88 2044.12,-28.88 2044.12,-40.88 2044.12,-40.88 2044.12,-46.88 2038.12,-52.88 2032.12,-52.88"/>
<text xml:space="preserve" text-anchor="middle" x="2002" y="-31" font-family="Helvetica,sans-Serif" font-size="10.00" fill="#1a1a2e">Anti&#45;Insurgency</text>
</g>
<!-- gs4 -->
<g id="node21" class="node">
<title>gs4</title>
<path fill="#95d5b2" stroke="#4ecdc4" d="M2141.5,-52.88C2141.5,-52.88 2074.5,-52.88 2074.5,-52.88 2068.5,-52.88 2062.5,-46.88 2062.5,-40.88 2062.5,-40.88 2062.5,-28.87 2062.5,-28.87 2062.5,-22.88 2068.5,-16.88 2074.5,-16.88 2074.5,-16.88 2141.5,-16.88 2141.5,-16.88 2147.5,-16.88 2153.5,-22.88 2153.5,-28.88 2153.5,-28.88 2153.5,-40.88 2153.5,-40.88 2153.5,-46.88 2147.5,-52.88 2141.5,-52.88"/>
<text xml:space="preserve" text-anchor="middle" x="2108" y="-31" font-family="Helvetica,sans-Serif" font-size="10.00" fill="#1a1a2e">Xenoarchaeology</text>
</g>
<!-- gs_restrict -->
<g id="node22" class="node">
<title>gs_restrict</title>
<polygon fill="#2d2d44" stroke="#4ecdc4" points="2308.75,-52.88 2171.25,-52.88 2171.25,-16.88 2314.75,-16.88 2314.75,-46.88 2308.75,-52.88"/>
<polyline fill="none" stroke="#4ecdc4" points="2308.75,-52.88 2308.75,-46.88"/>
<polyline fill="none" stroke="#4ecdc4" points="2314.75,-46.88 2308.75,-46.88"/>
<text xml:space="preserve" text-anchor="start" x="2179.25" y="-31" font-family="Helvetica,sans-Serif" font-size="10.00" fill="#ff6b6b">Naval officers CANNOT gain</text>
</g>
<!-- as1 -->
<g id="node23" class="node">
<title>as1</title>
<path fill="#ffe66d" stroke="#4ecdc4" d="M2381,-52.88C2381,-52.88 2351,-52.88 2351,-52.88 2345,-52.88 2339,-46.88 2339,-40.88 2339,-40.88 2339,-28.87 2339,-28.87 2339,-22.88 2345,-16.88 2351,-16.88 2351,-16.88 2381,-16.88 2381,-16.88 2387,-16.88 2393,-22.88 2393,-28.88 2393,-28.88 2393,-40.88 2393,-40.88 2393,-46.88 2387,-52.88 2381,-52.88"/>
<text xml:space="preserve" text-anchor="middle" x="2366" y="-31" font-family="Helvetica,sans-Serif" font-size="10.00" fill="#1a1a2e">Mining</text>
</g>
<!-- as2 -->
<g id="node24" class="node">
<title>as2</title>
<path fill="#ffe66d" stroke="#4ecdc4" d="M2461.25,-52.88C2461.25,-52.88 2422.75,-52.88 2422.75,-52.88 2416.75,-52.88 2410.75,-46.88 2410.75,-40.88 2410.75,-40.88 2410.75,-28.87 2410.75,-28.87 2410.75,-22.88 2416.75,-16.88 2422.75,-16.88 2422.75,-16.88 2461.25,-16.88 2461.25,-16.88 2467.25,-16.88 2473.25,-22.88 2473.25,-28.88 2473.25,-28.88 2473.25,-40.88 2473.25,-40.88 2473.25,-46.88 2467.25,-52.88 2461.25,-52.88"/>
<text xml:space="preserve" text-anchor="middle" x="2442" y="-31" font-family="Helvetica,sans-Serif" font-size="10.00" fill="#1a1a2e">Production</text>
</g>
<!-- as3 -->
<g id="node25" class="node">
<title>as3</title>
<path fill="#ffe66d" stroke="#4ecdc4" d="M2534.5,-52.88C2534.5,-52.88 2503.5,-52.88 2503.5,-52.88 2497.5,-52.88 2491.5,-46.88 2491.5,-40.88 2491.5,-40.88 2491.5,-28.87 2491.5,-28.87 2491.5,-22.88 2497.5,-16.88 2503.5,-16.88 2503.5,-16.88 2534.5,-16.88 2534.5,-16.88 2540.5,-16.88 2546.5,-22.88 2546.5,-28.88 2546.5,-28.88 2546.5,-40.88 2546.5,-40.88 2546.5,-46.88 2540.5,-52.88 2534.5,-52.88"/>
<text xml:space="preserve" text-anchor="middle" x="2519" y="-31" font-family="Helvetica,sans-Serif" font-size="10.00" fill="#1a1a2e">Logistics</text>
</g>
<!-- as4 -->
<g id="node26" class="node">
<title>as4</title>
<path fill="#ffe66d" stroke="#4ecdc4" d="M2649.12,-52.88C2649.12,-52.88 2576.88,-52.88 2576.88,-52.88 2570.88,-52.88 2564.88,-46.88 2564.88,-40.88 2564.88,-40.88 2564.88,-28.87 2564.88,-28.87 2564.88,-22.88 2570.88,-16.88 2576.88,-16.88 2576.88,-16.88 2649.12,-16.88 2649.12,-16.88 2655.12,-16.88 2661.12,-22.88 2661.12,-28.88 2661.12,-28.88 2661.12,-40.88 2661.12,-40.88 2661.12,-46.88 2655.12,-52.88 2649.12,-52.88"/>
<text xml:space="preserve" text-anchor="middle" x="2613" y="-31" font-family="Helvetica,sans-Serif" font-size="10.00" fill="#1a1a2e">Population Growth</text>
</g>
<!-- as5 -->
<g id="node27" class="node">
<title>as5</title>
<path fill="#ffe66d" stroke="#4ecdc4" d="M2785,-52.88C2785,-52.88 2691,-52.88 2691,-52.88 2685,-52.88 2679,-46.88 2679,-40.88 2679,-40.88 2679,-28.87 2679,-28.87 2679,-22.88 2685,-16.88 2691,-16.88 2691,-16.88 2785,-16.88 2785,-16.88 2791,-16.88 2797,-22.88 2797,-28.88 2797,-28.88 2797,-40.88 2797,-40.88 2797,-46.88 2791,-52.88 2785,-52.88"/>
<text xml:space="preserve" text-anchor="middle" x="2738" y="-31" font-family="Helvetica,sans-Serif" font-size="10.00" fill="#1a1a2e">Colony Admin (max 10)</text>
</g>
<!-- ss1 -->
<g id="node28" class="node">
<title>ss1</title>
<path fill="#ff6b6b" stroke="#4ecdc4" d="M2899.12,-52.88C2899.12,-52.88 2832.88,-52.88 2832.88,-52.88 2826.88,-52.88 2820.88,-46.88 2820.88,-40.88 2820.88,-40.88 2820.88,-28.87 2820.88,-28.87 2820.88,-22.88 2826.88,-16.88 2832.88,-16.88 2832.88,-16.88 2899.12,-16.88 2899.12,-16.88 2905.12,-16.88 2911.12,-22.88 2911.12,-28.88 2911.12,-28.88 2911.12,-40.88 2911.12,-40.88 2911.12,-46.88 2905.12,-52.88 2899.12,-52.88"/>
<text xml:space="preserve" text-anchor="middle" x="2866" y="-31" font-family="Helvetica,sans-Serif" font-size="10.00" fill="#1a1a2e">Biology/Genetics</text>
</g>
<!-- ss2 -->
<g id="node29" class="node">
<title>ss2</title>
<path fill="#ff6b6b" stroke="#4ecdc4" d="M3038.5,-52.88C3038.5,-52.88 2941.5,-52.88 2941.5,-52.88 2935.5,-52.88 2929.5,-46.88 2929.5,-40.88 2929.5,-40.88 2929.5,-28.87 2929.5,-28.87 2929.5,-22.88 2935.5,-16.88 2941.5,-16.88 2941.5,-16.88 3038.5,-16.88 3038.5,-16.88 3044.5,-16.88 3050.5,-22.88 3050.5,-28.88 3050.5,-28.88 3050.5,-40.88 3050.5,-40.88 3050.5,-46.88 3044.5,-52.88 3038.5,-52.88"/>
<text xml:space="preserve" text-anchor="middle" x="2990" y="-31" font-family="Helvetica,sans-Serif" font-size="10.00" fill="#1a1a2e">Construction/Production</text>
</g>
<!-- ss3 -->
<g id="node30" class="node">
<title>ss3</title>
<path fill="#ff6b6b" stroke="#4ecdc4" d="M3159.12,-52.88C3159.12,-52.88 3080.88,-52.88 3080.88,-52.88 3074.88,-52.88 3068.88,-46.88 3068.88,-40.88 3068.88,-40.88 3068.88,-28.87 3068.88,-28.87 3068.88,-22.88 3074.88,-16.88 3080.88,-16.88 3080.88,-16.88 3159.12,-16.88 3159.12,-16.88 3165.12,-16.88 3171.12,-22.88 3171.12,-28.88 3171.12,-28.88 3171.12,-40.88 3171.12,-40.88 3171.12,-46.88 3165.12,-52.88 3159.12,-52.88"/>
<text xml:space="preserve" text-anchor="middle" x="3120" y="-31" font-family="Helvetica,sans-Serif" font-size="10.00" fill="#1a1a2e">Defensive Systems</text>
</g>
<!-- ss4 -->
<g id="node31" class="node">
<title>ss4</title>
<path fill="#ff6b6b" stroke="#4ecdc4" d="M3267.12,-52.88C3267.12,-52.88 3200.88,-52.88 3200.88,-52.88 3194.88,-52.88 3188.88,-46.88 3188.88,-40.88 3188.88,-40.88 3188.88,-28.87 3188.88,-28.87 3188.88,-22.88 3194.88,-16.88 3200.88,-16.88 3200.88,-16.88 3267.12,-16.88 3267.12,-16.88 3273.12,-16.88 3279.12,-22.88 3279.12,-28.88 3279.12,-28.88 3279.12,-40.88 3279.12,-40.88 3279.12,-46.88 3273.12,-52.88 3267.12,-52.88"/>
<text xml:space="preserve" text-anchor="middle" x="3234" y="-31" font-family="Helvetica,sans-Serif" font-size="10.00" fill="#1a1a2e">Energy Weapons</text>
</g>
<!-- ss5 -->
<g id="node32" class="node">
<title>ss5</title>
<path fill="#ff6b6b" stroke="#4ecdc4" d="M3412.5,-52.88C3412.5,-52.88 3309.5,-52.88 3309.5,-52.88 3303.5,-52.88 3297.5,-46.88 3297.5,-40.88 3297.5,-40.88 3297.5,-28.87 3297.5,-28.87 3297.5,-22.88 3303.5,-16.88 3309.5,-16.88 3309.5,-16.88 3412.5,-16.88 3412.5,-16.88 3418.5,-16.88 3424.5,-22.88 3424.5,-28.88 3424.5,-28.88 3424.5,-40.88 3424.5,-40.88 3424.5,-46.88 3418.5,-52.88 3412.5,-52.88"/>
<text xml:space="preserve" text-anchor="middle" x="3361" y="-31" font-family="Helvetica,sans-Serif" font-size="10.00" fill="#1a1a2e">Logistics/Ground Combat</text>
</g>
<!-- ss6 -->
<g id="node33" class="node">
<title>ss6</title>
<path fill="#ff6b6b" stroke="#4ecdc4" d="M3521.12,-52.88C3521.12,-52.88 3454.88,-52.88 3454.88,-52.88 3448.88,-52.88 3442.88,-46.88 3442.88,-40.88 3442.88,-40.88 3442.88,-28.87 3442.88,-28.87 3442.88,-22.88 3448.88,-16.88 3454.88,-16.88 3454.88,-16.88 3521.12,-16.88 3521.12,-16.88 3527.12,-16.88 3533.12,-22.88 3533.12,-28.88 3533.12,-28.88 3533.12,-40.88 3533.12,-40.88 3533.12,-46.88 3527.12,-52.88 3521.12,-52.88"/>
<text xml:space="preserve" text-anchor="middle" x="3488" y="-31" font-family="Helvetica,sans-Serif" font-size="10.00" fill="#1a1a2e">Missiles/Kinetics</text>
</g>
<!-- ss7 -->
<g id="node34" class="node">
<title>ss7</title>
<path fill="#ff6b6b" stroke="#4ecdc4" d="M3631.25,-52.88C3631.25,-52.88 3562.75,-52.88 3562.75,-52.88 3556.75,-52.88 3550.75,-46.88 3550.75,-40.88 3550.75,-40.88 3550.75,-28.87 3550.75,-28.87 3550.75,-22.88 3556.75,-16.88 3562.75,-16.88 3562.75,-16.88 3631.25,-16.88 3631.25,-16.88 3637.25,-16.88 3643.25,-22.88 3643.25,-28.88 3643.25,-28.88 3643.25,-40.88 3643.25,-40.88 3643.25,-46.88 3637.25,-52.88 3631.25,-52.88"/>
<text xml:space="preserve" text-anchor="middle" x="3597" y="-31" font-family="Helvetica,sans-Serif" font-size="10.00" fill="#1a1a2e">Power/Propulsion</text>
</g>
<!-- ss8 -->
<g id="node35" class="node">
<title>ss8</title>
<path fill="#ff6b6b" stroke="#4ecdc4" d="M3755,-52.88C3755,-52.88 3673,-52.88 3673,-52.88 3667,-52.88 3661,-46.88 3661,-40.88 3661,-40.88 3661,-28.87 3661,-28.87 3661,-22.88 3667,-16.88 3673,-16.88 3673,-16.88 3755,-16.88 3755,-16.88 3761,-16.88 3767,-22.88 3767,-28.88 3767,-28.88 3767,-40.88 3767,-40.88 3767,-46.88 3761,-52.88 3755,-52.88"/>
<text xml:space="preserve" text-anchor="middle" x="3714" y="-31" font-family="Helvetica,sans-Serif" font-size="10.00" fill="#1a1a2e">Sensors/Fire Control</text>
</g>
<!-- ss9 -->
<g id="node36" class="node">
<title>ss9</title>
<path fill="#ff6b6b" stroke="#4ecdc4" d="M3902.62,-52.88C3902.62,-52.88 3797.38,-52.88 3797.38,-52.88 3791.38,-52.88 3785.38,-46.88 3785.38,-40.88 3785.38,-40.88 3785.38,-28.87 3785.38,-28.87 3785.38,-22.88 3791.38,-16.88 3797.38,-16.88 3797.38,-16.88 3902.62,-16.88 3902.62,-16.88 3908.62,-16.88 3914.62,-22.88 3914.62,-28.88 3914.62,-28.88 3914.62,-40.88 3914.62,-40.88 3914.62,-46.88 3908.62,-52.88 3902.62,-52.88"/>
<text xml:space="preserve" text-anchor="middle" x="3850" y="-31" font-family="Helvetica,sans-Serif" font-size="10.00" fill="#1a1a2e">Research Admin (max 50)</text>
</g>
<!-- restrictions -->
<g id="node37" class="node">
<title>restrictions</title>
<polygon fill="#2d2d44" stroke="#4ecdc4" points="4223.75,-69.75 3932.25,-69.75 3932.25,0 4229.75,0 4229.75,-63.75 4223.75,-69.75"/>
<polyline fill="none" stroke="#4ecdc4" points="4223.75,-69.75 4223.75,-63.75"/>
<polyline fill="none" stroke="#4ecdc4" points="4229.75,-63.75 4223.75,-63.75"/>
<text xml:space="preserve" text-anchor="start" x="3942.25" y="-55.25" font-family="Helvetica,sans-Serif" font-weight="bold" font-size="10.00" fill="white">Key Restrictions (v2.4.0+):</text>
<text xml:space="preserve" text-anchor="start" x="3942.25" y="-40" font-family="Helvetica,sans-Serif" font-size="10.00" fill="#ff6b6b">X</text>
<text xml:space="preserve" text-anchor="start" x="3949" y="-40" font-family="Helvetica,sans-Serif" font-size="10.00" fill="white"> Naval cannot gain: Xenoarchaeology</text>
<text xml:space="preserve" text-anchor="start" x="3942.25" y="-24.75" font-family="Helvetica,sans-Serif" font-size="10.00" fill="#ff6b6b">X</text>
<text xml:space="preserve" text-anchor="start" x="3949" y="-24.75" font-family="Helvetica,sans-Serif" font-size="10.00" fill="white"> Ground cannot gain: Diplomacy, Intelligence</text>
<text xml:space="preserve" text-anchor="start" x="3942.25" y="-9.5" font-family="Helvetica,sans-Serif" font-size="10.00" fill="#4ecdc4">✓</text>
<text xml:space="preserve" text-anchor="start" x="3949.75" y="-9.5" font-family="Helvetica,sans-Serif" font-size="10.00" fill="white"> All bonuses max at 150% except Admin (10) &amp; Research (50)</text>
</g>
</g>
</svg>
