<?xml version="1.0" encoding="UTF-8" standalone="no"?>
<!DOCTYPE svg PUBLIC "-//W3C//DTD SVG 1.1//EN"
 "http://www.w3.org/Graphics/SVG/1.1/DTD/svg11.dtd">
<!-- Generated by graphviz version 14.1.2 (20260124.0452)
 -->
<!-- Title: governor_matrix Pages: 1 -->
<svg width="1833pt" height="456pt"
 viewBox="0.00 0.00 1833.00 456.00" xmlns="http://www.w3.org/2000/svg" xmlns:xlink="http://www.w3.org/1999/xlink">
<g id="graph0" class="graph" transform="scale(1 1) rotate(0) translate(4 451.5)">
<title>governor_matrix</title>
<polygon fill="#1a1a2e" stroke="none" points="-4,4 -4,-451.5 1828.88,-451.5 1828.88,4 -4,4"/>
<text xml:space="preserve" text-anchor="start" x="780.81" y="-429.3" font-family="Times,serif" font-weight="bold" font-size="16.00" fill="white">Governor Assignment Strategy Matrix</text>
<g id="clust1" class="cluster">
<title>cluster_workflow</title>
<polygon fill="#1a1a2e" stroke="#4ecdc4" stroke-dasharray="5,2" points="534,-8 534,-375.12 720,-375.12 720,-8 534,-8"/>
<text xml:space="preserve" text-anchor="start" x="558" y="-358.82" font-family="Times,serif" font-weight="bold" font-size="14.00" fill="white">Auto&#45;Assignment Setup</text>
</g>
<!-- matrix -->
<g id="node1" class="node">
<title>matrix</title>
<path fill="#2d2d44" stroke="none" d="M512,-420.75C512,-420.75 12,-420.75 12,-420.75 6,-420.75 0,-414.75 0,-408.75 0,-408.75 0,-222.75 0,-222.75 0,-216.75 6,-210.75 12,-210.75 12,-210.75 512,-210.75 512,-210.75 518,-210.75 524,-216.75 524,-222.75 524,-222.75 524,-408.75 524,-408.75 524,-414.75 518,-420.75 512,-420.75"/>
<polygon fill="#4ecdc4" stroke="none" points="8,-391.5 8,-416.75 106.75,-416.75 106.75,-391.5 8,-391.5"/>
<polygon fill="none" stroke="#4ecdc4" points="8,-391.5 8,-416.75 106.75,-416.75 106.75,-391.5 8,-391.5"/>
<text xml:space="preserve" text-anchor="start" x="27.75" y="-401.25" font-family="Helvetica,sans-Serif" font-weight="bold" font-size="10.00" fill="#1a1a2e">Colony Type</text>
<polygon fill="#4ecdc4" stroke="none" points="106.75,-391.5 106.75,-416.75 201,-416.75 201,-391.5 106.75,-391.5"/>
<polygon fill="none" stroke="#4ecdc4" points="106.75,-391.5 106.75,-416.75 201,-416.75 201,-391.5 106.75,-391.5"/>
<text xml:space="preserve" text-anchor="start" x="128.38" y="-401.25" font-family="Helvetica,sans-Serif" font-weight="bold" font-size="10.00" fill="#1a1a2e">1st Priority</text>
<polygon fill="#4ecdc4" stroke="none" points="201,-391.5 201,-416.75 284.75,-416.75 284.75,-391.5 201,-391.5"/>
<polygon fill="none" stroke="#4ecdc4" points="201,-391.5 201,-416.75 284.75,-416.75 284.75,-391.5 201,-391.5"/>
<text xml:space="preserve" text-anchor="start" x="215.5" y="-401.25" font-family="Helvetica,sans-Serif" font-weight="bold" font-size="10.00" fill="#1a1a2e">2nd Priority</text>
<polygon fill="#4ecdc4" stroke="none" points="284.75,-391.5 284.75,-416.75 379,-416.75 379,-391.5 284.75,-391.5"/>
<polygon fill="none" stroke="#4ecdc4" points="284.75,-391.5 284.75,-416.75 379,-416.75 379,-391.5 284.75,-391.5"/>
<text xml:space="preserve" text-anchor="start" x="305.62" y="-401.25" font-family="Helvetica,sans-Serif" font-weight="bold" font-size="10.00" fill="#1a1a2e">3rd Priority</text>
<polygon fill="#4ecdc4" stroke="none" points="379,-391.5 379,-416.75 516,-416.75 516,-391.5 379,-391.5"/>
<polygon fill="none" stroke="#4ecdc4" points="379,-391.5 379,-416.75 516,-416.75 516,-391.5 379,-391.5"/>
<text xml:space="preserve" text-anchor="start" x="434" y="-401.25" font-family="Helvetica,sans-Serif" font-weight="bold" font-size="10.00" fill="#1a1a2e">Notes</text>
<polygon fill="#ffe66d" stroke="none" points="8,-366.25 8,-391.5 106.75,-391.5 106.75,-366.25 8,-366.25"/>
<polygon fill="none" stroke="#4ecdc4" points="8,-366.25 8,-391.5 106.75,-391.5 106.75,-366.25 8,-366.25"/>
<text xml:space="preserve" text-anchor="start" x="24" y="-376" font-family="Helvetica,sans-Serif" font-weight="bold" font-size="10.00" fill="#1a1a2e">Industrial Hub</text>
<polygon fill="#95d5b2" stroke="none" points="106.75,-366.25 106.75,-391.5 201,-391.5 201,-366.25 106.75,-366.25"/>
<polygon fill="none" stroke="#4ecdc4" points="106.75,-366.25 106.75,-391.5 201,-391.5 201,-366.25 106.75,-366.25"/>
<text xml:space="preserve" text-anchor="start" x="130.62" y="-375" font-family="Helvetica,sans-Serif" font-size="10.00" fill="#1a1a2e">Production</text>
<polygon fill="none" stroke="#4ecdc4" points="201,-366.25 201,-391.5 284.75,-391.5 284.75,-366.25 201,-366.25"/>
<text xml:space="preserve" text-anchor="start" x="208" y="-375" font-family="Helvetica,sans-Serif" font-size="10.00" fill="#1a1a2e">Wealth Creation</text>
<polygon fill="none" stroke="#4ecdc4" points="284.75,-366.25 284.75,-391.5 379,-391.5 379,-366.25 284.75,-366.25"/>
<text xml:space="preserve" text-anchor="start" x="291.75" y="-375" font-family="Helvetica,sans-Serif" font-size="10.00" fill="#1a1a2e">Population Growth</text>
<polygon fill="none" stroke="#4ecdc4" points="379,-366.25 379,-391.5 516,-391.5 516,-366.25 379,-366.25"/>
<text xml:space="preserve" text-anchor="start" x="404" y="-375" font-family="Helvetica,sans-Serif" font-size="10.00" fill="#1a1a2e">Shipyards, factories</text>
<polygon fill="#ffe66d" stroke="none" points="8,-341 8,-366.25 106.75,-366.25 106.75,-341 8,-341"/>
<polygon fill="none" stroke="#4ecdc4" points="8,-341 8,-366.25 106.75,-366.25 106.75,-341 8,-341"/>
<text xml:space="preserve" text-anchor="start" x="22.88" y="-350.75" font-family="Helvetica,sans-Serif" font-weight="bold" font-size="10.00" fill="#1a1a2e">Mining Colony</text>
<polygon fill="#95d5b2" stroke="none" points="106.75,-341 106.75,-366.25 201,-366.25 201,-341 106.75,-341"/>
<polygon fill="none" stroke="#4ecdc4" points="106.75,-341 106.75,-366.25 201,-366.25 201,-341 106.75,-341"/>
<text xml:space="preserve" text-anchor="start" x="139.62" y="-349.75" font-family="Helvetica,sans-Serif" font-size="10.00" fill="#1a1a2e">Mining</text>
<polygon fill="none" stroke="#4ecdc4" points="201,-341 201,-366.25 284.75,-366.25 284.75,-341 201,-341"/>
<text xml:space="preserve" text-anchor="start" x="219.62" y="-349.75" font-family="Helvetica,sans-Serif" font-size="10.00" fill="#1a1a2e">Production</text>
<polygon fill="none" stroke="#4ecdc4" points="284.75,-341 284.75,-366.25 379,-366.25 379,-341 284.75,-341"/>
<text xml:space="preserve" text-anchor="start" x="312.38" y="-349.75" font-family="Helvetica,sans-Serif" font-size="10.00" fill="#1a1a2e">Logistics</text>
<polygon fill="none" stroke="#4ecdc4" points="379,-341 379,-366.25 516,-366.25 516,-341 379,-341"/>
<text xml:space="preserve" text-anchor="start" x="386" y="-349.75" font-family="Helvetica,sans-Serif" font-size="10.00" fill="#1a1a2e">Automated + manned mines</text>
<polygon fill="#ffe66d" stroke="none" points="8,-315.75 8,-341 106.75,-341 106.75,-315.75 8,-315.75"/>
<polygon fill="none" stroke="#4ecdc4" points="8,-315.75 8,-341 106.75,-341 106.75,-315.75 8,-315.75"/>
<text xml:space="preserve" text-anchor="start" x="15" y="-325.5" font-family="Helvetica,sans-Serif" font-weight="bold" font-size="10.00" fill="#1a1a2e">Population Center</text>
<polygon fill="#95d5b2" stroke="none" points="106.75,-315.75 106.75,-341 201,-341 201,-315.75 106.75,-315.75"/>
<polygon fill="none" stroke="#4ecdc4" points="106.75,-315.75 106.75,-341 201,-341 201,-315.75 106.75,-315.75"/>
<text xml:space="preserve" text-anchor="start" x="113.75" y="-324.5" font-family="Helvetica,sans-Serif" font-size="10.00" fill="#1a1a2e">Population Growth</text>
<polygon fill="none" stroke="#4ecdc4" points="201,-315.75 201,-341 284.75,-341 284.75,-315.75 201,-315.75"/>
<text xml:space="preserve" text-anchor="start" x="219.62" y="-324.5" font-family="Helvetica,sans-Serif" font-size="10.00" fill="#1a1a2e">Production</text>
<polygon fill="none" stroke="#4ecdc4" points="284.75,-315.75 284.75,-341 379,-341 379,-315.75 284.75,-315.75"/>
<text xml:space="preserve" text-anchor="start" x="297" y="-324.5" font-family="Helvetica,sans-Serif" font-size="10.00" fill="#1a1a2e">Wealth Creation</text>
<polygon fill="none" stroke="#4ecdc4" points="379,-315.75 379,-341 516,-341 516,-315.75 379,-315.75"/>
<text xml:space="preserve" text-anchor="start" x="386.75" y="-324.5" font-family="Helvetica,sans-Serif" font-size="10.00" fill="#1a1a2e">New colonies, growth focus</text>
<polygon fill="#ffe66d" stroke="none" points="8,-290.5 8,-315.75 106.75,-315.75 106.75,-290.5 8,-290.5"/>
<polygon fill="none" stroke="#4ecdc4" points="8,-290.5 8,-315.75 106.75,-315.75 106.75,-290.5 8,-290.5"/>
<text xml:space="preserve" text-anchor="start" x="24.38" y="-300.25" font-family="Helvetica,sans-Serif" font-weight="bold" font-size="10.00" fill="#1a1a2e">Research Hub</text>
<polygon fill="#95d5b2" stroke="none" points="106.75,-290.5 106.75,-315.75 201,-315.75 201,-290.5 106.75,-290.5"/>
<polygon fill="none" stroke="#4ecdc4" points="106.75,-290.5 106.75,-315.75 201,-315.75 201,-290.5 106.75,-290.5"/>
<text xml:space="preserve" text-anchor="start" x="117.88" y="-299.25" font-family="Helvetica,sans-Serif" font-size="10.00" fill="#1a1a2e">Research Admin</text>
<polygon fill="none" stroke="#4ecdc4" points="201,-290.5 201,-315.75 284.75,-315.75 284.75,-290.5 201,-290.5"/>
<text xml:space="preserve" text-anchor="start" x="219.62" y="-299.25" font-family="Helvetica,sans-Serif" font-size="10.00" fill="#1a1a2e">Production</text>
<polygon fill="none" stroke="#4ecdc4" points="284.75,-290.5 284.75,-315.75 379,-315.75 379,-290.5 284.75,-290.5"/>
<text xml:space="preserve" text-anchor="start" x="291.75" y="-299.25" font-family="Helvetica,sans-Serif" font-size="10.00" fill="#1a1a2e">Population Growth</text>
<polygon fill="none" stroke="#4ecdc4" points="379,-290.5 379,-315.75 516,-315.75 516,-290.5 379,-290.5"/>
<text xml:space="preserve" text-anchor="start" x="406.25" y="-299.25" font-family="Helvetica,sans-Serif" font-size="10.00" fill="#1a1a2e">Labs concentration</text>
<polygon fill="#ffe66d" stroke="none" points="8,-265.25 8,-290.5 106.75,-290.5 106.75,-265.25 8,-265.25"/>
<polygon fill="none" stroke="#4ecdc4" points="8,-265.25 8,-290.5 106.75,-290.5 106.75,-265.25 8,-265.25"/>
<text xml:space="preserve" text-anchor="start" x="30.38" y="-275" font-family="Helvetica,sans-Serif" font-weight="bold" font-size="10.00" fill="#1a1a2e">Homeworld</text>
<polygon fill="#95d5b2" stroke="none" points="106.75,-265.25 106.75,-290.5 201,-290.5 201,-265.25 106.75,-265.25"/>
<polygon fill="none" stroke="#4ecdc4" points="106.75,-265.25 106.75,-290.5 201,-290.5 201,-265.25 106.75,-265.25"/>
<text xml:space="preserve" text-anchor="start" x="130.62" y="-274" font-family="Helvetica,sans-Serif" font-size="10.00" fill="#1a1a2e">Production</text>
<polygon fill="none" stroke="#4ecdc4" points="201,-265.25 201,-290.5 284.75,-290.5 284.75,-265.25 201,-265.25"/>
<text xml:space="preserve" text-anchor="start" x="228.62" y="-274" font-family="Helvetica,sans-Serif" font-size="10.00" fill="#1a1a2e">Mining</text>
<polygon fill="none" stroke="#4ecdc4" points="284.75,-265.25 284.75,-290.5 379,-290.5 379,-265.25 284.75,-265.25"/>
<text xml:space="preserve" text-anchor="start" x="291.75" y="-274" font-family="Helvetica,sans-Serif" font-size="10.00" fill="#1a1a2e">Population Growth</text>
<polygon fill="none" stroke="#4ecdc4" points="379,-265.25 379,-290.5 516,-290.5 516,-265.25 379,-265.25"/>
<text xml:space="preserve" text-anchor="start" x="409.62" y="-274" font-family="Helvetica,sans-Serif" font-size="10.00" fill="#1a1a2e">All&#45;around priority</text>
<polygon fill="#ffe66d" stroke="none" points="8,-240 8,-265.25 106.75,-265.25 106.75,-240 8,-240"/>
<polygon fill="none" stroke="#4ecdc4" points="8,-240 8,-265.25 106.75,-265.25 106.75,-240 8,-240"/>
<text xml:space="preserve" text-anchor="start" x="22.88" y="-249.75" font-family="Helvetica,sans-Serif" font-weight="bold" font-size="10.00" fill="#1a1a2e">Logistics Base</text>
<polygon fill="#95d5b2" stroke="none" points="106.75,-240 106.75,-265.25 201,-265.25 201,-240 106.75,-240"/>
<polygon fill="none" stroke="#4ecdc4" points="106.75,-240 106.75,-265.25 201,-265.25 201,-240 106.75,-240"/>
<text xml:space="preserve" text-anchor="start" x="134.38" y="-248.75" font-family="Helvetica,sans-Serif" font-size="10.00" fill="#1a1a2e">Logistics</text>
<polygon fill="none" stroke="#4ecdc4" points="201,-240 201,-265.25 284.75,-265.25 284.75,-240 201,-240"/>
<text xml:space="preserve" text-anchor="start" x="219.62" y="-248.75" font-family="Helvetica,sans-Serif" font-size="10.00" fill="#1a1a2e">Production</text>
<polygon fill="none" stroke="#4ecdc4" points="284.75,-240 284.75,-265.25 379,-265.25 379,-240 284.75,-240"/>
<text xml:space="preserve" text-anchor="start" x="317.62" y="-248.75" font-family="Helvetica,sans-Serif" font-size="10.00" fill="#1a1a2e">Mining</text>
<polygon fill="none" stroke="#4ecdc4" points="379,-240 379,-265.25 516,-265.25 516,-240 379,-240"/>
<text xml:space="preserve" text-anchor="start" x="399.12" y="-248.75" font-family="Helvetica,sans-Serif" font-size="10.00" fill="#1a1a2e">Supply depots, fueling</text>
<polygon fill="#ffe66d" stroke="none" points="8,-214.75 8,-240 106.75,-240 106.75,-214.75 8,-214.75"/>
<polygon fill="none" stroke="#4ecdc4" points="8,-214.75 8,-240 106.75,-240 106.75,-214.75 8,-214.75"/>
<text xml:space="preserve" text-anchor="start" x="20.25" y="-224.5" font-family="Helvetica,sans-Serif" font-weight="bold" font-size="10.00" fill="#1a1a2e">Military Outpost</text>
<polygon fill="#95d5b2" stroke="none" points="106.75,-214.75 106.75,-240 201,-240 201,-214.75 106.75,-214.75"/>
<polygon fill="none" stroke="#4ecdc4" points="106.75,-214.75 106.75,-240 201,-240 201,-214.75 106.75,-214.75"/>
<text xml:space="preserve" text-anchor="start" x="134.38" y="-223.5" font-family="Helvetica,sans-Serif" font-size="10.00" fill="#1a1a2e">Logistics</text>
<polygon fill="none" stroke="#4ecdc4" points="201,-214.75 201,-240 284.75,-240 284.75,-214.75 201,-214.75"/>
<text xml:space="preserve" text-anchor="start" x="219.62" y="-223.5" font-family="Helvetica,sans-Serif" font-size="10.00" fill="#1a1a2e">Production</text>
<polygon fill="none" stroke="#4ecdc4" points="284.75,-214.75 284.75,-240 379,-240 379,-214.75 284.75,-214.75"/>
<text xml:space="preserve" text-anchor="start" x="317.62" y="-223.5" font-family="Helvetica,sans-Serif" font-size="10.00" fill="#1a1a2e">Mining</text>
<polygon fill="none" stroke="#4ecdc4" points="379,-214.75 379,-240 516,-240 516,-214.75 379,-214.75"/>
<text xml:space="preserve" text-anchor="start" x="415.25" y="-223.5" font-family="Helvetica,sans-Serif" font-size="10.00" fill="#1a1a2e">Forward bases</text>
</g>
<!-- w1 -->
<g id="node2" class="node">
<title>w1</title>
<path fill="#2d2d44" stroke="#4ecdc4" d="M700.38,-342.62C700.38,-342.62 553.62,-342.62 553.62,-342.62 547.62,-342.62 541.62,-336.62 541.62,-330.62 541.62,-330.62 541.62,-300.88 541.62,-300.88 541.62,-294.88 547.62,-288.88 553.62,-288.88 553.62,-288.88 700.38,-288.88 700.38,-288.88 706.38,-288.88 712.38,-294.88 712.38,-300.88 712.38,-300.88 712.38,-330.62 712.38,-330.62 712.38,-336.62 706.38,-342.62 700.38,-342.62"/>
<text xml:space="preserve" text-anchor="start" x="574.12" y="-328.12" font-family="Helvetica,sans-Serif" font-weight="bold" font-size="10.00" fill="white">Step 1: Set Importance</text>
<text xml:space="preserve" text-anchor="start" x="578.62" y="-311.88" font-family="Helvetica,sans-Serif" font-size="10.00" fill="white">High = processed first</text>
<text xml:space="preserve" text-anchor="start" x="551.62" y="-296.62" font-family="Helvetica,sans-Serif" font-size="10.00" fill="white">Critical worlds get best candidates</text>
</g>
<!-- w2 -->
<g id="node3" class="node">
<title>w2</title>
<path fill="#2d2d44" stroke="#4ecdc4" d="M688.75,-174.75C688.75,-174.75 565.25,-174.75 565.25,-174.75 559.25,-174.75 553.25,-168.75 553.25,-162.75 553.25,-162.75 553.25,-117.75 553.25,-117.75 553.25,-111.75 559.25,-105.75 565.25,-105.75 565.25,-105.75 688.75,-105.75 688.75,-105.75 694.75,-105.75 700.75,-111.75 700.75,-117.75 700.75,-117.75 700.75,-162.75 700.75,-162.75 700.75,-168.75 694.75,-174.75 688.75,-174.75"/>
<text xml:space="preserve" text-anchor="start" x="563.25" y="-160.25" font-family="Helvetica,sans-Serif" font-weight="bold" font-size="10.00" fill="white">Step 2: Configure Priorities</text>
<text xml:space="preserve" text-anchor="start" x="574.88" y="-144" font-family="Helvetica,sans-Serif" font-size="10.00" fill="white">1st: Primary bonus type</text>
<text xml:space="preserve" text-anchor="start" x="578.62" y="-128.75" font-family="Helvetica,sans-Serif" font-size="10.00" fill="white">2nd: Tiebreaker bonus</text>
<text xml:space="preserve" text-anchor="start" x="583.88" y="-113.5" font-family="Helvetica,sans-Serif" font-size="10.00" fill="white">3rd: Final tiebreaker</text>
</g>
<!-- w1&#45;&gt;w2 -->
<!-- w3 -->
<g id="node4" class="node">
<title>w3</title>
<path fill="#2d2d44" stroke="#4ecdc4" d="M688.75,-69.75C688.75,-69.75 565.25,-69.75 565.25,-69.75 559.25,-69.75 553.25,-63.75 553.25,-57.75 553.25,-57.75 553.25,-28 553.25,-28 553.25,-22 559.25,-16 565.25,-16 565.25,-16 688.75,-16 688.75,-16 694.75,-16 700.75,-22 700.75,-28 700.75,-28 700.75,-57.75 700.75,-57.75 700.75,-63.75 694.75,-69.75 688.75,-69.75"/>
<text xml:space="preserve" text-anchor="start" x="563.25" y="-55.25" font-family="Helvetica,sans-Serif" font-weight="bold" font-size="10.00" fill="white">Step 3: Enable Auto&#45;Assign</text>
<text xml:space="preserve" text-anchor="start" x="568.5" y="-39" font-family="Helvetica,sans-Serif" font-size="10.00" fill="white">Checkbox on Governor tab</text>
<text xml:space="preserve" text-anchor="start" x="564.38" y="-23.75" font-family="Helvetica,sans-Serif" font-size="10.00" fill="white">Auto&#45;replaces on death/retire</text>
</g>
<!-- w2&#45;&gt;w3 -->
<!-- e1 -->
<g id="node5" class="node">
<title>e1</title>
<path fill="#95d5b2" stroke="#4ecdc4" d="M871.62,-333.75C871.62,-333.75 742.38,-333.75 742.38,-333.75 736.38,-333.75 730.38,-327.75 730.38,-321.75 730.38,-321.75 730.38,-309.75 730.38,-309.75 730.38,-303.75 736.38,-297.75 742.38,-297.75 742.38,-297.75 871.62,-297.75 871.62,-297.75 877.62,-297.75 883.62,-303.75 883.62,-309.75 883.62,-309.75 883.62,-321.75 883.62,-321.75 883.62,-327.75 877.62,-333.75 871.62,-333.75"/>
<text xml:space="preserve" text-anchor="middle" x="807" y="-311.88" font-family="Helvetica,sans-Serif" font-size="10.00" fill="#1a1a2e">Production: +X% factory output</text>
</g>
<!-- e2 -->
<g id="node6" class="node">
<title>e2</title>
<path fill="#95d5b2" stroke="#4ecdc4" d="M1042.25,-333.75C1042.25,-333.75 913.75,-333.75 913.75,-333.75 907.75,-333.75 901.75,-327.75 901.75,-321.75 901.75,-321.75 901.75,-309.75 901.75,-309.75 901.75,-303.75 907.75,-297.75 913.75,-297.75 913.75,-297.75 1042.25,-297.75 1042.25,-297.75 1048.25,-297.75 1054.25,-303.75 1054.25,-309.75 1054.25,-309.75 1054.25,-321.75 1054.25,-321.75 1054.25,-327.75 1048.25,-333.75 1042.25,-333.75"/>
<text xml:space="preserve" text-anchor="middle" x="978" y="-311.88" font-family="Helvetica,sans-Serif" font-size="10.00" fill="#1a1a2e">Mining: +X% mineral extraction</text>
</g>
<!-- e3 -->
<g id="node7" class="node">
<title>e3</title>
<path fill="#95d5b2" stroke="#4ecdc4" d="M1207.62,-333.75C1207.62,-333.75 1084.38,-333.75 1084.38,-333.75 1078.38,-333.75 1072.38,-327.75 1072.38,-321.75 1072.38,-321.75 1072.38,-309.75 1072.38,-309.75 1072.38,-303.75 1078.38,-297.75 1084.38,-297.75 1084.38,-297.75 1207.62,-297.75 1207.62,-297.75 1213.62,-297.75 1219.62,-303.75 1219.62,-309.75 1219.62,-309.75 1219.62,-321.75 1219.62,-321.75 1219.62,-327.75 1213.62,-333.75 1207.62,-333.75"/>
<text xml:space="preserve" text-anchor="middle" x="1146" y="-311.88" font-family="Helvetica,sans-Serif" font-size="10.00" fill="#1a1a2e">Pop Growth: +X% growth rate</text>
</g>
<!-- e4 -->
<g id="node8" class="node">
<title>e4</title>
<path fill="#95d5b2" stroke="#4ecdc4" d="M1380.75,-333.75C1380.75,-333.75 1249.25,-333.75 1249.25,-333.75 1243.25,-333.75 1237.25,-327.75 1237.25,-321.75 1237.25,-321.75 1237.25,-309.75 1237.25,-309.75 1237.25,-303.75 1243.25,-297.75 1249.25,-297.75 1249.25,-297.75 1380.75,-297.75 1380.75,-297.75 1386.75,-297.75 1392.75,-303.75 1392.75,-309.75 1392.75,-309.75 1392.75,-321.75 1392.75,-321.75 1392.75,-327.75 1386.75,-333.75 1380.75,-333.75"/>
<text xml:space="preserve" text-anchor="middle" x="1315" y="-311.88" font-family="Helvetica,sans-Serif" font-size="10.00" fill="#1a1a2e">Logistics: Cargo handling speed</text>
</g>
<!-- tip -->
<g id="node9" class="node">
<title>tip</title>
<polygon fill="#2d2d44" stroke="#4ecdc4" points="1614.88,-350.25 1411.12,-350.25 1411.12,-281.25 1620.88,-281.25 1620.88,-344.25 1614.88,-350.25"/>
<polyline fill="none" stroke="#4ecdc4" points="1614.88,-350.25 1614.88,-344.25"/>
<polyline fill="none" stroke="#4ecdc4" points="1620.88,-344.25 1614.88,-344.25"/>
<text xml:space="preserve" text-anchor="start" x="1470.25" y="-335.75" font-family="Helvetica,sans-Serif" font-weight="bold" font-size="10.00" fill="white">Early Game Priority</text>
<text xml:space="preserve" text-anchor="start" x="1441" y="-319.5" font-family="Helvetica,sans-Serif" font-size="10.00" fill="white">Homeworld governor is CRITICAL</text>
<text xml:space="preserve" text-anchor="start" x="1449.62" y="-304.25" font-family="Helvetica,sans-Serif" font-size="10.00" fill="white">All industry concentrated there</text>
<text xml:space="preserve" text-anchor="start" x="1421.12" y="-289" font-family="Helvetica,sans-Serif" font-size="10.00" fill="#95d5b2">Assign best Production officer immediately!</text>
</g>
<!-- eligibility -->
<g id="node10" class="node">
<title>eligibility</title>
<path fill="#ffe66d" stroke="#4ecdc4" d="M1812.88,-350.25C1812.88,-350.25 1651.12,-350.25 1651.12,-350.25 1645.12,-350.25 1639.12,-344.25 1639.12,-338.25 1639.12,-338.25 1639.12,-293.25 1639.12,-293.25 1639.12,-287.25 1645.12,-281.25 1651.12,-281.25 1651.12,-281.25 1812.88,-281.25 1812.88,-281.25 1818.88,-281.25 1824.88,-287.25 1824.88,-293.25 1824.88,-293.25 1824.88,-338.25 1824.88,-338.25 1824.88,-344.25 1818.88,-350.25 1812.88,-350.25"/>
<text xml:space="preserve" text-anchor="start" x="1686.25" y="-335.75" font-family="Helvetica,sans-Serif" font-weight="bold" font-size="10.00" fill="#1a1a2e">Governor Eligibility</text>
<text xml:space="preserve" text-anchor="start" x="1650.25" y="-319.5" font-family="Helvetica,sans-Serif" font-size="10.00" fill="#1a1a2e">Only Administrators can be governors</text>
<text xml:space="preserve" text-anchor="start" x="1649.12" y="-304.25" font-family="Helvetica,sans-Serif" font-size="10.00" fill="#1a1a2e">Naval/Ground/Scientists cannot serve</text>
<text xml:space="preserve" text-anchor="start" x="1655.88" y="-289" font-family="Helvetica,sans-Serif" font-size="10.00" fill="#1a1a2e">One governor per colony maximum</text>
</g>
</g>
</svg>
