<?xml version="1.0" encoding="UTF-8" standalone="no"?>
<!DOCTYPE svg PUBLIC "-//W3C//DTD SVG 1.1//EN"
 "http://www.w3.org/Graphics/SVG/1.1/DTD/svg11.dtd">
<!-- Generated by graphviz version 14.1.2 (20260124.0452)
 -->
<!-- Title: command_hierarchy Pages: 1 -->
<svg width="1396pt" height="234pt"
 viewBox="0.00 0.00 1396.00 234.00" xmlns="http://www.w3.org/2000/svg" xmlns:xlink="http://www.w3.org/1999/xlink">
<g id="graph0" class="graph" transform="scale(1 1) rotate(0) translate(4 229.75)">
<title>command_hierarchy</title>
<polygon fill="#1a1a2e" stroke="none" points="-4,4 -4,-229.75 1391.88,-229.75 1391.88,4 -4,4"/>
<text xml:space="preserve" text-anchor="start" x="535.31" y="-207.55" font-family="Times,serif" font-weight="bold" font-size="16.00" fill="white">Ship Command Hierarchy &amp; Control Modules</text>
<!-- bridge -->
<g id="node1" class="node">
<title>bridge</title>
<path fill="#4ecdc4" stroke="#4ecdc4" d="M76.25,-176.12C76.25,-176.12 12,-176.12 12,-176.12 6,-176.12 0,-170.12 0,-164.12 0,-164.12 0,-134.38 0,-134.38 0,-128.38 6,-122.38 12,-122.38 12,-122.38 76.25,-122.38 76.25,-122.38 82.25,-122.38 88.25,-128.38 88.25,-134.38 88.25,-134.38 88.25,-164.12 88.25,-164.12 88.25,-170.12 82.25,-176.12 76.25,-176.12"/>
<text xml:space="preserve" text-anchor="start" x="28.38" y="-161.62" font-family="Helvetica,sans-Serif" font-weight="bold" font-size="10.00" fill="#1a1a2e">Bridge</text>
<text xml:space="preserve" text-anchor="start" x="15.25" y="-145.38" font-family="Helvetica,sans-Serif" font-size="10.00" fill="#1a1a2e">1 HS | 20 BP</text>
<text xml:space="preserve" text-anchor="start" x="10" y="-130.12" font-family="Helvetica,sans-Serif" font-size="10.00" fill="#1a1a2e">Sets Min. Rank</text>
</g>
<!-- commander -->
<g id="node2" class="node">
<title>commander</title>
<path fill="#2d2d44" stroke="#4ecdc4" d="M229.75,-199C229.75,-199 150.5,-199 150.5,-199 144.5,-199 138.5,-193 138.5,-187 138.5,-187 138.5,-111.5 138.5,-111.5 138.5,-105.5 144.5,-99.5 150.5,-99.5 150.5,-99.5 229.75,-99.5 229.75,-99.5 235.75,-99.5 241.75,-105.5 241.75,-111.5 241.75,-111.5 241.75,-187 241.75,-187 241.75,-193 235.75,-199 229.75,-199"/>
<text xml:space="preserve" text-anchor="start" x="148.88" y="-184.5" font-family="Helvetica,sans-Serif" font-weight="bold" font-size="10.00" fill="white">Ship Commander</text>
<text xml:space="preserve" text-anchor="start" x="148.5" y="-168.25" font-family="Helvetica,sans-Serif" font-size="10.00" fill="white">50% Crew Training</text>
<text xml:space="preserve" text-anchor="start" x="163.5" y="-153" font-family="Helvetica,sans-Serif" font-size="10.00" fill="white">50% Survey</text>
<text xml:space="preserve" text-anchor="start" x="153.75" y="-137.75" font-family="Helvetica,sans-Serif" font-size="10.00" fill="white">50% Carrier Ops</text>
<text xml:space="preserve" text-anchor="start" x="153.38" y="-122.5" font-family="Helvetica,sans-Serif" font-size="10.00" fill="white">50% Engineering</text>
<text xml:space="preserve" text-anchor="start" x="162" y="-107.25" font-family="Helvetica,sans-Serif" font-size="10.00" fill="white">50% Tactical</text>
</g>
<!-- bridge&#45;&gt;commander -->
<g id="edge1" class="edge">
<title>bridge&#45;&gt;commander</title>
<path fill="none" stroke="#4ecdc4" d="M88.72,-149.25C100.79,-149.25 114.08,-149.25 126.95,-149.25"/>
<polygon fill="#4ecdc4" stroke="#4ecdc4" points="126.6,-152.75 136.6,-149.25 126.6,-145.75 126.6,-152.75"/>
<text xml:space="preserve" text-anchor="middle" x="113.38" y="-153.45" font-family="Helvetica,sans-Serif" font-size="9.00" fill="white">Unlocks</text>
</g>
<!-- aux_ctrl -->
<g id="node3" class="node">
<title>aux_ctrl</title>
<path fill="#95d5b2" stroke="#4ecdc4" d="M348.25,-168.5C348.25,-168.5 272,-168.5 272,-168.5 266,-168.5 260,-162.5 260,-156.5 260,-156.5 260,-142 260,-142 260,-136 266,-130 272,-130 272,-130 348.25,-130 348.25,-130 354.25,-130 360.25,-136 360.25,-142 360.25,-142 360.25,-156.5 360.25,-156.5 360.25,-162.5 354.25,-168.5 348.25,-168.5"/>
<text xml:space="preserve" text-anchor="start" x="270" y="-154" font-family="Helvetica,sans-Serif" font-weight="bold" font-size="10.00" fill="#1a1a2e">Auxiliary Control</text>
<text xml:space="preserve" text-anchor="start" x="281.25" y="-137.75" font-family="Helvetica,sans-Serif" font-size="10.00" fill="#1a1a2e">1 HS | 15 BP</text>
</g>
<!-- xo -->
<g id="node4" class="node">
<title>xo</title>
<path fill="#2d2d44" stroke="#4ecdc4" d="M352.38,-53.75C352.38,-53.75 267.88,-53.75 267.88,-53.75 261.88,-53.75 255.88,-47.75 255.88,-41.75 255.88,-41.75 255.88,-12 255.88,-12 255.88,-6 261.88,0 267.88,0 267.88,0 352.38,0 352.38,0 358.38,0 364.38,-6 364.38,-12 364.38,-12 364.38,-41.75 364.38,-41.75 364.38,-47.75 358.38,-53.75 352.38,-53.75"/>
<text xml:space="preserve" text-anchor="start" x="270.75" y="-39.25" font-family="Helvetica,sans-Serif" font-weight="bold" font-size="10.00" fill="white">Executive Officer</text>
<text xml:space="preserve" text-anchor="start" x="280.88" y="-23" font-family="Helvetica,sans-Serif" font-size="10.00" fill="white">Rank: CO &#45; 1</text>
<text xml:space="preserve" text-anchor="start" x="265.88" y="-7.75" font-family="Helvetica,sans-Serif" font-size="10.00" fill="white">100% Crew Training</text>
</g>
<!-- aux_ctrl&#45;&gt;xo -->
<g id="edge2" class="edge">
<title>aux_ctrl&#45;&gt;xo</title>
<path fill="none" stroke="#4ecdc4" d="M310.12,-129.71C310.12,-112.57 310.12,-86.59 310.12,-65.17"/>
<polygon fill="#4ecdc4" stroke="#4ecdc4" points="313.63,-65.33 310.13,-55.33 306.63,-65.33 313.63,-65.33"/>
<text xml:space="preserve" text-anchor="middle" x="326.62" y="-72.95" font-family="Helvetica,sans-Serif" font-size="9.00" fill="white">Unlocks</text>
</g>
<!-- science_dept -->
<g id="node5" class="node">
<title>science_dept</title>
<path fill="#95d5b2" stroke="#4ecdc4" d="M456.88,-168.5C456.88,-168.5 399.38,-168.5 399.38,-168.5 393.38,-168.5 387.38,-162.5 387.38,-156.5 387.38,-156.5 387.38,-142 387.38,-142 387.38,-136 393.38,-130 399.38,-130 399.38,-130 456.88,-130 456.88,-130 462.88,-130 468.88,-136 468.88,-142 468.88,-142 468.88,-156.5 468.88,-156.5 468.88,-162.5 462.88,-168.5 456.88,-168.5"/>
<text xml:space="preserve" text-anchor="start" x="397.38" y="-154" font-family="Helvetica,sans-Serif" font-weight="bold" font-size="10.00" fill="#1a1a2e">Science Dept</text>
<text xml:space="preserve" text-anchor="start" x="399.25" y="-137.75" font-family="Helvetica,sans-Serif" font-size="10.00" fill="#1a1a2e">2 HS | 50 BP</text>
</g>
<!-- science_off -->
<g id="node6" class="node">
<title>science_off</title>
<path fill="#2d2d44" stroke="#4ecdc4" d="M461.38,-53.75C461.38,-53.75 394.88,-53.75 394.88,-53.75 388.88,-53.75 382.88,-47.75 382.88,-41.75 382.88,-41.75 382.88,-12 382.88,-12 382.88,-6 388.88,0 394.88,0 394.88,0 461.38,0 461.38,0 467.38,0 473.38,-6 473.38,-12 473.38,-12 473.38,-41.75 473.38,-41.75 473.38,-47.75 467.38,-53.75 461.38,-53.75"/>
<text xml:space="preserve" text-anchor="start" x="392.88" y="-39.25" font-family="Helvetica,sans-Serif" font-weight="bold" font-size="10.00" fill="white">Science Officer</text>
<text xml:space="preserve" text-anchor="start" x="398.88" y="-23" font-family="Helvetica,sans-Serif" font-size="10.00" fill="white">Rank: CO &#45; 1</text>
<text xml:space="preserve" text-anchor="start" x="398.88" y="-7.75" font-family="Helvetica,sans-Serif" font-size="10.00" fill="white">100% Survey</text>
</g>
<!-- science_dept&#45;&gt;science_off -->
<g id="edge3" class="edge">
<title>science_dept&#45;&gt;science_off</title>
<path fill="none" stroke="#4ecdc4" d="M428.12,-129.71C428.12,-112.57 428.12,-86.59 428.12,-65.17"/>
<polygon fill="#4ecdc4" stroke="#4ecdc4" points="431.63,-65.33 428.13,-55.33 424.63,-65.33 431.63,-65.33"/>
<text xml:space="preserve" text-anchor="middle" x="444.62" y="-72.95" font-family="Helvetica,sans-Serif" font-size="9.00" fill="white">Unlocks</text>
</g>
<!-- main_eng -->
<g id="node7" class="node">
<title>main_eng</title>
<path fill="#95d5b2" stroke="#4ecdc4" d="M581.38,-168.5C581.38,-168.5 502.88,-168.5 502.88,-168.5 496.88,-168.5 490.88,-162.5 490.88,-156.5 490.88,-156.5 490.88,-142 490.88,-142 490.88,-136 496.88,-130 502.88,-130 502.88,-130 581.38,-130 581.38,-130 587.38,-130 593.38,-136 593.38,-142 593.38,-142 593.38,-156.5 593.38,-156.5 593.38,-162.5 587.38,-168.5 581.38,-168.5"/>
<text xml:space="preserve" text-anchor="start" x="500.88" y="-154" font-family="Helvetica,sans-Serif" font-weight="bold" font-size="10.00" fill="#1a1a2e">Main Engineering</text>
<text xml:space="preserve" text-anchor="start" x="513.25" y="-137.75" font-family="Helvetica,sans-Serif" font-size="10.00" fill="#1a1a2e">3 HS | 75 BP</text>
</g>
<!-- chief_eng -->
<g id="node8" class="node">
<title>chief_eng</title>
<path fill="#2d2d44" stroke="#4ecdc4" d="M581,-53.75C581,-53.75 503.25,-53.75 503.25,-53.75 497.25,-53.75 491.25,-47.75 491.25,-41.75 491.25,-41.75 491.25,-12 491.25,-12 491.25,-6 497.25,0 503.25,0 503.25,0 581,0 581,0 587,0 593,-6 593,-12 593,-12 593,-41.75 593,-41.75 593,-47.75 587,-53.75 581,-53.75"/>
<text xml:space="preserve" text-anchor="start" x="507.25" y="-39.25" font-family="Helvetica,sans-Serif" font-weight="bold" font-size="10.00" fill="white">Chief Engineer</text>
<text xml:space="preserve" text-anchor="start" x="512.88" y="-23" font-family="Helvetica,sans-Serif" font-size="10.00" fill="white">Rank: CO &#45; 2</text>
<text xml:space="preserve" text-anchor="start" x="501.25" y="-7.75" font-family="Helvetica,sans-Serif" font-size="10.00" fill="white">Engineering Bonus</text>
</g>
<!-- main_eng&#45;&gt;chief_eng -->
<g id="edge4" class="edge">
<title>main_eng&#45;&gt;chief_eng</title>
<path fill="none" stroke="#4ecdc4" d="M542.12,-129.71C542.12,-112.57 542.12,-86.59 542.12,-65.17"/>
<polygon fill="#4ecdc4" stroke="#4ecdc4" points="545.63,-65.33 542.13,-55.33 538.63,-65.33 545.63,-65.33"/>
<text xml:space="preserve" text-anchor="middle" x="558.62" y="-72.95" font-family="Helvetica,sans-Serif" font-size="9.00" fill="white">Unlocks</text>
</g>
<!-- cic -->
<g id="node9" class="node">
<title>cic</title>
<path fill="#95d5b2" stroke="#4ecdc4" d="M683,-168.5C683,-168.5 629.25,-168.5 629.25,-168.5 623.25,-168.5 617.25,-162.5 617.25,-156.5 617.25,-156.5 617.25,-142 617.25,-142 617.25,-136 623.25,-130 629.25,-130 629.25,-130 683,-130 683,-130 689,-130 695,-136 695,-142 695,-142 695,-156.5 695,-156.5 695,-162.5 689,-168.5 683,-168.5"/>
<text xml:space="preserve" text-anchor="start" x="647.12" y="-154" font-family="Helvetica,sans-Serif" font-weight="bold" font-size="10.00" fill="#1a1a2e">CIC</text>
<text xml:space="preserve" text-anchor="start" x="627.25" y="-137.75" font-family="Helvetica,sans-Serif" font-size="10.00" fill="#1a1a2e">3 HS | 75 BP</text>
</g>
<!-- tactical_off -->
<g id="node10" class="node">
<title>tactical_off</title>
<path fill="#2d2d44" stroke="#4ecdc4" d="M689,-53.75C689,-53.75 623.25,-53.75 623.25,-53.75 617.25,-53.75 611.25,-47.75 611.25,-41.75 611.25,-41.75 611.25,-12 611.25,-12 611.25,-6 617.25,0 623.25,0 623.25,0 689,0 689,0 695,0 701,-6 701,-12 701,-12 701,-41.75 701,-41.75 701,-47.75 695,-53.75 689,-53.75"/>
<text xml:space="preserve" text-anchor="start" x="621.25" y="-39.25" font-family="Helvetica,sans-Serif" font-weight="bold" font-size="10.00" fill="white">Tactical Officer</text>
<text xml:space="preserve" text-anchor="start" x="626.88" y="-23" font-family="Helvetica,sans-Serif" font-size="10.00" fill="white">Rank: CO &#45; 2</text>
<text xml:space="preserve" text-anchor="start" x="623.88" y="-7.75" font-family="Helvetica,sans-Serif" font-size="10.00" fill="white">Tactical Bonus</text>
</g>
<!-- cic&#45;&gt;tactical_off -->
<g id="edge5" class="edge">
<title>cic&#45;&gt;tactical_off</title>
<path fill="none" stroke="#4ecdc4" d="M656.12,-129.71C656.12,-112.57 656.12,-86.59 656.12,-65.17"/>
<polygon fill="#4ecdc4" stroke="#4ecdc4" points="659.63,-65.33 656.13,-55.33 652.63,-65.33 659.63,-65.33"/>
<text xml:space="preserve" text-anchor="middle" x="672.62" y="-72.95" font-family="Helvetica,sans-Serif" font-size="9.00" fill="white">Unlocks</text>
</g>
<!-- pfc -->
<g id="node11" class="node">
<title>pfc</title>
<path fill="#95d5b2" stroke="#4ecdc4" d="M807.62,-168.5C807.62,-168.5 724.62,-168.5 724.62,-168.5 718.62,-168.5 712.62,-162.5 712.62,-156.5 712.62,-156.5 712.62,-142 712.62,-142 712.62,-136 718.62,-130 724.62,-130 724.62,-130 807.62,-130 807.62,-130 813.62,-130 819.62,-136 819.62,-142 819.62,-142 819.62,-156.5 819.62,-156.5 819.62,-162.5 813.62,-168.5 807.62,-168.5"/>
<text xml:space="preserve" text-anchor="start" x="722.62" y="-154" font-family="Helvetica,sans-Serif" font-weight="bold" font-size="10.00" fill="#1a1a2e">Primary Flight Ctrl</text>
<text xml:space="preserve" text-anchor="start" x="734.62" y="-137.75" font-family="Helvetica,sans-Serif" font-size="10.00" fill="#1a1a2e">4 HS | 100 BP</text>
</g>
<!-- cag -->
<g id="node12" class="node">
<title>cag</title>
<path fill="#2d2d44" stroke="#4ecdc4" d="M984,-176.12C984,-176.12 882.25,-176.12 882.25,-176.12 876.25,-176.12 870.25,-170.12 870.25,-164.12 870.25,-164.12 870.25,-134.38 870.25,-134.38 870.25,-128.38 876.25,-122.38 882.25,-122.38 882.25,-122.38 984,-122.38 984,-122.38 990,-122.38 996,-128.38 996,-134.38 996,-134.38 996,-164.12 996,-164.12 996,-170.12 990,-176.12 984,-176.12"/>
<text xml:space="preserve" text-anchor="start" x="880.25" y="-161.62" font-family="Helvetica,sans-Serif" font-weight="bold" font-size="10.00" fill="white">Commander Air Group</text>
<text xml:space="preserve" text-anchor="start" x="903.88" y="-145.38" font-family="Helvetica,sans-Serif" font-size="10.00" fill="white">Rank: CO &#45; 1</text>
<text xml:space="preserve" text-anchor="start" x="894.12" y="-130.12" font-family="Helvetica,sans-Serif" font-size="10.00" fill="white">100% Carrier Ops</text>
</g>
<!-- pfc&#45;&gt;cag -->
<g id="edge6" class="edge">
<title>pfc&#45;&gt;cag</title>
<path fill="none" stroke="#4ecdc4" d="M819.88,-149.25C832.2,-149.25 845.51,-149.25 858.53,-149.25"/>
<polygon fill="#4ecdc4" stroke="#4ecdc4" points="858.34,-152.75 868.34,-149.25 858.34,-145.75 858.34,-152.75"/>
<text xml:space="preserve" text-anchor="middle" x="844.94" y="-153.45" font-family="Helvetica,sans-Serif" font-size="9.00" fill="white">Unlocks</text>
</g>
<!-- flag_bridge -->
<g id="node13" class="node">
<title>flag_bridge</title>
<path fill="#ffe66d" stroke="#4ecdc4" d="M1084.62,-168.5C1084.62,-168.5 1025.62,-168.5 1025.62,-168.5 1019.62,-168.5 1013.62,-162.5 1013.62,-156.5 1013.62,-156.5 1013.62,-142 1013.62,-142 1013.62,-136 1019.62,-130 1025.62,-130 1025.62,-130 1084.62,-130 1084.62,-130 1090.62,-130 1096.62,-136 1096.62,-142 1096.62,-142 1096.62,-156.5 1096.62,-156.5 1096.62,-162.5 1090.62,-168.5 1084.62,-168.5"/>
<text xml:space="preserve" text-anchor="start" x="1027.75" y="-154" font-family="Helvetica,sans-Serif" font-weight="bold" font-size="10.00" fill="#1a1a2e">Flag Bridge</text>
<text xml:space="preserve" text-anchor="start" x="1023.62" y="-137.75" font-family="Helvetica,sans-Serif" font-size="10.00" fill="#1a1a2e">5 HS | 125 BP</text>
</g>
<!-- fleet_cmd -->
<g id="node14" class="node">
<title>fleet_cmd</title>
<path fill="#2d2d44" stroke="#4ecdc4" d="M1100.75,-53.75C1100.75,-53.75 1009.5,-53.75 1009.5,-53.75 1003.5,-53.75 997.5,-47.75 997.5,-41.75 997.5,-41.75 997.5,-12 997.5,-12 997.5,-6 1003.5,0 1009.5,0 1009.5,0 1100.75,0 1100.75,0 1106.75,0 1112.75,-6 1112.75,-12 1112.75,-12 1112.75,-41.75 1112.75,-41.75 1112.75,-47.75 1106.75,-53.75 1100.75,-53.75"/>
<text xml:space="preserve" text-anchor="start" x="1013.5" y="-39.25" font-family="Helvetica,sans-Serif" font-weight="bold" font-size="10.00" fill="white">Fleet Commander</text>
<text xml:space="preserve" text-anchor="start" x="1021.38" y="-23" font-family="Helvetica,sans-Serif" font-size="10.00" fill="white">Rank: Admiral+</text>
<text xml:space="preserve" text-anchor="start" x="1007.5" y="-7.75" font-family="Helvetica,sans-Serif" font-size="10.00" fill="white">Fleet Reaction Rating</text>
</g>
<!-- flag_bridge&#45;&gt;fleet_cmd -->
<g id="edge7" class="edge">
<title>flag_bridge&#45;&gt;fleet_cmd</title>
<path fill="none" stroke="#4ecdc4" d="M1055.12,-129.71C1055.12,-112.57 1055.12,-86.59 1055.12,-65.17"/>
<polygon fill="#4ecdc4" stroke="#4ecdc4" points="1058.63,-65.33 1055.13,-55.33 1051.63,-65.33 1058.63,-65.33"/>
<text xml:space="preserve" text-anchor="middle" x="1071.62" y="-72.95" font-family="Helvetica,sans-Serif" font-size="9.00" fill="white">Unlocks</text>
</g>
<!-- rank_note -->
<g id="node15" class="node">
<title>rank_note</title>
<polygon fill="#2d2d44" stroke="#4ecdc4" points="1381.88,-183.75 1114.38,-183.75 1114.38,-114.75 1387.88,-114.75 1387.88,-177.75 1381.88,-183.75"/>
<polyline fill="none" stroke="#4ecdc4" points="1381.88,-183.75 1381.88,-177.75"/>
<polyline fill="none" stroke="#4ecdc4" points="1387.88,-177.75 1381.88,-177.75"/>
<text xml:space="preserve" text-anchor="start" x="1124.38" y="-169.25" font-family="Helvetica,sans-Serif" font-weight="bold" font-size="10.00" fill="white">Rank Modifiers:</text>
<text xml:space="preserve" text-anchor="start" x="1124.38" y="-153" font-family="Helvetica,sans-Serif" font-size="10.00" fill="white">+1 Rank: Survey sensors, Aux Ctrl, Science, Jump Drive</text>
<text xml:space="preserve" text-anchor="start" x="1124.38" y="-137.75" font-family="Helvetica,sans-Serif" font-size="10.00" fill="white">+2 Rank: Weapons, Hangars, Main Eng, CIC, Flag Bridge</text>
<text xml:space="preserve" text-anchor="start" x="1124.38" y="-122.5" font-family="Helvetica,sans-Serif" font-size="10.00" fill="white">Exception: Ships &lt;= 1000t default to lowest rank</text>
</g>
</g>
</svg>
