<?xml version="1.0" encoding="UTF-8" standalone="no"?>
<!DOCTYPE svg PUBLIC "-//W3C//DTD SVG 1.1//EN"
 "http://www.w3.org/Graphics/SVG/1.1/DTD/svg11.dtd">
<!-- Generated by graphviz version 14.1.2 (20260124.0452)
 -->
<!-- Title: allocation_ratios Pages: 1 -->
<svg width="1109pt" height="310pt"
 viewBox="0.00 0.00 1109.00 310.00" xmlns="http://www.w3.org/2000/svg" xmlns:xlink="http://www.w3.org/1999/xlink">
<g id="graph0" class="graph" transform="scale(1 1) rotate(0) translate(4 306)">
<title>allocation_ratios</title>
<polygon fill="#1a1a2e" stroke="none" points="-4,4 -4,-306 1104.5,-306 1104.5,4 -4,4"/>
<!-- title -->
<g id="node1" class="node">
<title>title</title>
<text xml:space="preserve" text-anchor="start" x="10" y="-224.65" font-family="Helvetica Bold" font-size="18.00" fill="white">Component Allocation by Ship Role</text>
<text xml:space="preserve" text-anchor="start" x="72.62" y="-207.6" font-family="Helvetica,sans-Serif" font-size="12.00" fill="#aaaaaa">Approximate tonnage percentages</text>
</g>
<!-- legend -->
<g id="node2" class="node">
<title>legend</title>
<polygon fill="#4ecdc4" stroke="none" points="376.25,-226 376.25,-245 396.25,-245 396.25,-226 376.25,-226"/>
<text xml:space="preserve" text-anchor="start" x="402.25" y="-229.7" font-family="Helvetica,sans-Serif" font-size="14.00" fill="white"> Engines</text>
<polygon fill="#ff6b6b" stroke="none" points="460.75,-226 460.75,-245 480.75,-245 480.75,-226 460.75,-226"/>
<text xml:space="preserve" text-anchor="start" x="486.75" y="-229.7" font-family="Helvetica,sans-Serif" font-size="14.00" fill="white"> Weapons</text>
<polygon fill="#ffe66d" stroke="none" points="553.5,-226 553.5,-245 573.5,-245 573.5,-226 553.5,-226"/>
<text xml:space="preserve" text-anchor="start" x="579.5" y="-229.7" font-family="Helvetica,sans-Serif" font-size="14.00" fill="white"> Sensors/FC</text>
<polygon fill="#95d5b2" stroke="none" points="376.25,-203 376.25,-222 396.25,-222 396.25,-203 376.25,-203"/>
<text xml:space="preserve" text-anchor="start" x="407.88" y="-206.7" font-family="Helvetica,sans-Serif" font-size="14.00" fill="white"> Armor</text>
<polygon fill="#a78bfa" stroke="none" points="460.75,-203 460.75,-222 480.75,-222 480.75,-203 460.75,-203"/>
<text xml:space="preserve" text-anchor="start" x="502.12" y="-206.7" font-family="Helvetica,sans-Serif" font-size="14.00" fill="white"> Fuel</text>
<polygon fill="#6b7280" stroke="none" points="553.5,-203 553.5,-222 573.5,-222 573.5,-203 553.5,-203"/>
<text xml:space="preserve" text-anchor="start" x="597.88" y="-206.7" font-family="Helvetica,sans-Serif" font-size="14.00" fill="white"> Other</text>
</g>
<!-- title&#45;&gt;legend -->
<!-- labels -->
<g id="node3" class="node">
<title>labels</title>
<text xml:space="preserve" text-anchor="start" x="862" y="-275.55" font-family="Helvetica,sans-Serif" font-size="11.00" fill="white">Beam Combatant</text>
<text xml:space="preserve" text-anchor="start" x="858.25" y="-247.55" font-family="Helvetica,sans-Serif" font-size="11.00" fill="white">Missile Combatant</text>
<text xml:space="preserve" text-anchor="start" x="888.25" y="-219.55" font-family="Helvetica,sans-Serif" font-size="11.00" fill="white">Survey Ship</text>
<text xml:space="preserve" text-anchor="start" x="913" y="-191.55" font-family="Helvetica,sans-Serif" font-size="11.00" fill="white">Carrier</text>
<text xml:space="preserve" text-anchor="start" x="897.25" y="-163.55" font-family="Helvetica,sans-Serif" font-size="11.00" fill="white">PD Escort</text>
</g>
<!-- legend&#45;&gt;labels -->
<!-- bars -->
<g id="node4" class="node">
<title>bars</title>
<polygon fill="#4ecdc4" stroke="none" points="712.5,-100 712.5,-124 762.5,-124 762.5,-100 712.5,-100"/>
<polygon fill="none" stroke="black" points="712.5,-100 712.5,-124 762.5,-124 762.5,-100 712.5,-100"/>
<text xml:space="preserve" text-anchor="start" x="728.12" y="-108.33" font-family="Helvetica,sans-Serif" font-size="9.00" fill="#1a1a2e">25%</text>
<polygon fill="#ff6b6b" stroke="none" points="762.5,-100 762.5,-124 822.5,-124 822.5,-100 762.5,-100"/>
<polygon fill="none" stroke="black" points="762.5,-100 762.5,-124 822.5,-124 822.5,-100 762.5,-100"/>
<text xml:space="preserve" text-anchor="start" x="783.12" y="-108.33" font-family="Helvetica,sans-Serif" font-size="9.00" fill="#1a1a2e">20%</text>
<polygon fill="#ffe66d" stroke="none" points="822.5,-100 822.5,-124 902.5,-124 902.5,-100 822.5,-100"/>
<polygon fill="none" stroke="black" points="822.5,-100 822.5,-124 902.5,-124 902.5,-100 822.5,-100"/>
<text xml:space="preserve" text-anchor="start" x="860.25" y="-108.9" font-family="Helvetica,sans-Serif" font-size="8.00" fill="#1a1a2e">5</text>
<polygon fill="#95d5b2" stroke="none" points="902.5,-100 902.5,-124 932.5,-124 932.5,-100 902.5,-100"/>
<polygon fill="none" stroke="black" points="902.5,-100 902.5,-124 932.5,-124 932.5,-100 902.5,-100"/>
<text xml:space="preserve" text-anchor="start" x="908.12" y="-108.33" font-family="Helvetica,sans-Serif" font-size="9.00" fill="#1a1a2e">15%</text>
<polygon fill="#a78bfa" stroke="none" points="932.5,-100 932.5,-124 992.5,-124 992.5,-100 932.5,-100"/>
<polygon fill="none" stroke="black" points="932.5,-100 932.5,-124 992.5,-124 992.5,-100 932.5,-100"/>
<text xml:space="preserve" text-anchor="start" x="953.12" y="-108.33" font-family="Helvetica,sans-Serif" font-size="9.00" fill="#1a1a2e">15%</text>
<polygon fill="#6b7280" stroke="none" points="992.5,-100 992.5,-124 1092.5,-124 1092.5,-100 992.5,-100"/>
<polygon fill="none" stroke="black" points="992.5,-100 992.5,-124 1092.5,-124 1092.5,-100 992.5,-100"/>
<text xml:space="preserve" text-anchor="start" x="1033.12" y="-108.33" font-family="Helvetica,sans-Serif" font-size="9.00" fill="white">20%</text>
<polygon fill="#4ecdc4" stroke="none" points="712.5,-76 712.5,-100 762.5,-100 762.5,-76 712.5,-76"/>
<polygon fill="none" stroke="black" points="712.5,-76 712.5,-100 762.5,-100 762.5,-76 712.5,-76"/>
<text xml:space="preserve" text-anchor="start" x="728.12" y="-84.33" font-family="Helvetica,sans-Serif" font-size="9.00" fill="#1a1a2e">20%</text>
<polygon fill="#ff6b6b" stroke="none" points="762.5,-76 762.5,-100 822.5,-100 822.5,-76 762.5,-76"/>
<polygon fill="none" stroke="black" points="762.5,-76 762.5,-100 822.5,-100 822.5,-76 762.5,-76"/>
<text xml:space="preserve" text-anchor="start" x="783.12" y="-84.33" font-family="Helvetica,sans-Serif" font-size="9.00" fill="#1a1a2e">30%</text>
<polygon fill="#ffe66d" stroke="none" points="822.5,-76 822.5,-100 902.5,-100 902.5,-76 822.5,-76"/>
<polygon fill="none" stroke="black" points="822.5,-76 822.5,-100 902.5,-100 902.5,-76 822.5,-76"/>
<text xml:space="preserve" text-anchor="start" x="860.25" y="-84.9" font-family="Helvetica,sans-Serif" font-size="8.00" fill="#1a1a2e">5</text>
<polygon fill="#95d5b2" stroke="none" points="902.5,-76 902.5,-100 932.5,-100 932.5,-76 902.5,-76"/>
<polygon fill="none" stroke="black" points="902.5,-76 902.5,-100 932.5,-100 932.5,-76 902.5,-76"/>
<text xml:space="preserve" text-anchor="start" x="908.12" y="-84.33" font-family="Helvetica,sans-Serif" font-size="9.00" fill="#1a1a2e">10%</text>
<polygon fill="#a78bfa" stroke="none" points="932.5,-76 932.5,-100 992.5,-100 992.5,-76 932.5,-76"/>
<polygon fill="none" stroke="black" points="932.5,-76 932.5,-100 992.5,-100 992.5,-76 932.5,-76"/>
<text xml:space="preserve" text-anchor="start" x="953.12" y="-84.33" font-family="Helvetica,sans-Serif" font-size="9.00" fill="#1a1a2e">20%</text>
<polygon fill="#6b7280" stroke="none" points="992.5,-76 992.5,-100 1092.5,-100 1092.5,-76 992.5,-76"/>
<polygon fill="none" stroke="black" points="992.5,-76 992.5,-100 1092.5,-100 1092.5,-76 992.5,-76"/>
<text xml:space="preserve" text-anchor="start" x="1033.12" y="-84.33" font-family="Helvetica,sans-Serif" font-size="9.00" fill="white">15%</text>
<polygon fill="#4ecdc4" stroke="none" points="712.5,-52 712.5,-76 762.5,-76 762.5,-52 712.5,-52"/>
<polygon fill="none" stroke="black" points="712.5,-52 712.5,-76 762.5,-76 762.5,-52 712.5,-52"/>
<text xml:space="preserve" text-anchor="start" x="728.12" y="-60.33" font-family="Helvetica,sans-Serif" font-size="9.00" fill="#1a1a2e">15%</text>
<polygon fill="#2d2d44" stroke="none" points="762.5,-52 762.5,-76 822.5,-76 822.5,-52 762.5,-52"/>
<polygon fill="none" stroke="black" points="762.5,-52 762.5,-76 822.5,-76 822.5,-52 762.5,-52"/>
<polygon fill="#ffe66d" stroke="none" points="822.5,-52 822.5,-76 902.5,-76 902.5,-52 822.5,-52"/>
<polygon fill="none" stroke="black" points="822.5,-52 822.5,-76 902.5,-76 902.5,-52 822.5,-52"/>
<text xml:space="preserve" text-anchor="start" x="853.12" y="-60.33" font-family="Helvetica,sans-Serif" font-size="9.00" fill="#1a1a2e">40%</text>
<polygon fill="#95d5b2" stroke="none" points="902.5,-52 902.5,-76 932.5,-76 932.5,-52 902.5,-52"/>
<polygon fill="none" stroke="black" points="902.5,-52 902.5,-76 932.5,-76 932.5,-52 902.5,-52"/>
<text xml:space="preserve" text-anchor="start" x="915.25" y="-60.9" font-family="Helvetica,sans-Serif" font-size="8.00" fill="#1a1a2e">5</text>
<polygon fill="#a78bfa" stroke="none" points="932.5,-52 932.5,-76 992.5,-76 992.5,-52 932.5,-52"/>
<polygon fill="none" stroke="black" points="932.5,-52 932.5,-76 992.5,-76 992.5,-52 932.5,-52"/>
<text xml:space="preserve" text-anchor="start" x="953.12" y="-60.33" font-family="Helvetica,sans-Serif" font-size="9.00" fill="#1a1a2e">30%</text>
<polygon fill="#6b7280" stroke="none" points="992.5,-52 992.5,-76 1092.5,-76 1092.5,-52 992.5,-52"/>
<polygon fill="none" stroke="black" points="992.5,-52 992.5,-76 1092.5,-76 1092.5,-52 992.5,-52"/>
<text xml:space="preserve" text-anchor="start" x="1033.12" y="-60.33" font-family="Helvetica,sans-Serif" font-size="9.00" fill="white">10%</text>
<polygon fill="#4ecdc4" stroke="none" points="712.5,-28 712.5,-52 762.5,-52 762.5,-28 712.5,-28"/>
<polygon fill="none" stroke="black" points="712.5,-28 712.5,-52 762.5,-52 762.5,-28 712.5,-28"/>
<text xml:space="preserve" text-anchor="start" x="728.12" y="-36.33" font-family="Helvetica,sans-Serif" font-size="9.00" fill="#1a1a2e">15%</text>
<polygon fill="#ff6b6b" stroke="none" points="762.5,-28 762.5,-52 822.5,-52 822.5,-28 762.5,-28"/>
<polygon fill="none" stroke="black" points="762.5,-28 762.5,-52 822.5,-52 822.5,-28 762.5,-28"/>
<text xml:space="preserve" text-anchor="start" x="790.25" y="-36.9" font-family="Helvetica,sans-Serif" font-size="8.00" fill="#1a1a2e">5</text>
<polygon fill="#ffe66d" stroke="none" points="822.5,-28 822.5,-52 902.5,-52 902.5,-28 822.5,-28"/>
<polygon fill="none" stroke="black" points="822.5,-28 822.5,-52 902.5,-52 902.5,-28 822.5,-28"/>
<text xml:space="preserve" text-anchor="start" x="860.25" y="-36.9" font-family="Helvetica,sans-Serif" font-size="8.00" fill="#1a1a2e">5</text>
<polygon fill="#95d5b2" stroke="none" points="902.5,-28 902.5,-52 932.5,-52 932.5,-28 902.5,-28"/>
<polygon fill="none" stroke="black" points="902.5,-28 902.5,-52 932.5,-52 932.5,-28 902.5,-28"/>
<text xml:space="preserve" text-anchor="start" x="908.12" y="-36.33" font-family="Helvetica,sans-Serif" font-size="9.00" fill="#1a1a2e">10%</text>
<polygon fill="#a78bfa" stroke="none" points="932.5,-28 932.5,-52 992.5,-52 992.5,-28 932.5,-28"/>
<polygon fill="none" stroke="black" points="932.5,-28 932.5,-52 992.5,-52 992.5,-28 932.5,-28"/>
<text xml:space="preserve" text-anchor="start" x="953.12" y="-36.33" font-family="Helvetica,sans-Serif" font-size="9.00" fill="#1a1a2e">15%</text>
<polygon fill="#6b7280" stroke="none" points="992.5,-28 992.5,-52 1092.5,-52 1092.5,-28 992.5,-28"/>
<polygon fill="none" stroke="black" points="992.5,-28 992.5,-52 1092.5,-52 1092.5,-28 992.5,-28"/>
<text xml:space="preserve" text-anchor="start" x="1012.12" y="-36.33" font-family="Helvetica,sans-Serif" font-size="9.00" fill="white">50% (hangars)</text>
<polygon fill="#4ecdc4" stroke="none" points="712.5,-4 712.5,-28 762.5,-28 762.5,-4 712.5,-4"/>
<polygon fill="none" stroke="black" points="712.5,-4 712.5,-28 762.5,-28 762.5,-4 712.5,-4"/>
<text xml:space="preserve" text-anchor="start" x="728.12" y="-12.32" font-family="Helvetica,sans-Serif" font-size="9.00" fill="#1a1a2e">25%</text>
<polygon fill="#ff6b6b" stroke="none" points="762.5,-4 762.5,-28 822.5,-28 822.5,-4 762.5,-4"/>
<polygon fill="none" stroke="black" points="762.5,-4 762.5,-28 822.5,-28 822.5,-4 762.5,-4"/>
<text xml:space="preserve" text-anchor="start" x="783.12" y="-12.32" font-family="Helvetica,sans-Serif" font-size="9.00" fill="#1a1a2e">25%</text>
<polygon fill="#ffe66d" stroke="none" points="822.5,-4 822.5,-28 902.5,-28 902.5,-4 822.5,-4"/>
<polygon fill="none" stroke="black" points="822.5,-4 822.5,-28 902.5,-28 902.5,-4 822.5,-4"/>
<text xml:space="preserve" text-anchor="start" x="853.12" y="-12.32" font-family="Helvetica,sans-Serif" font-size="9.00" fill="#1a1a2e">10%</text>
<polygon fill="#95d5b2" stroke="none" points="902.5,-4 902.5,-28 932.5,-28 932.5,-4 902.5,-4"/>
<polygon fill="none" stroke="black" points="902.5,-4 902.5,-28 932.5,-28 932.5,-4 902.5,-4"/>
<text xml:space="preserve" text-anchor="start" x="908.12" y="-12.32" font-family="Helvetica,sans-Serif" font-size="9.00" fill="#1a1a2e">10%</text>
<polygon fill="#a78bfa" stroke="none" points="932.5,-4 932.5,-28 992.5,-28 992.5,-4 932.5,-4"/>
<polygon fill="none" stroke="black" points="932.5,-4 932.5,-28 992.5,-28 992.5,-4 932.5,-4"/>
<text xml:space="preserve" text-anchor="start" x="953.12" y="-12.32" font-family="Helvetica,sans-Serif" font-size="9.00" fill="#1a1a2e">15%</text>
<polygon fill="#6b7280" stroke="none" points="992.5,-4 992.5,-28 1092.5,-28 1092.5,-4 992.5,-4"/>
<polygon fill="none" stroke="black" points="992.5,-4 992.5,-28 1092.5,-28 1092.5,-4 992.5,-4"/>
<text xml:space="preserve" text-anchor="start" x="1033.12" y="-12.32" font-family="Helvetica,sans-Serif" font-size="9.00" fill="white">15%</text>
</g>
<!-- labels&#45;&gt;bars -->
</g>
</svg>
