<?xml version="1.0" encoding="UTF-8" standalone="no"?>
<!DOCTYPE svg PUBLIC "-//W3C//DTD SVG 1.1//EN"
 "http://www.w3.org/Graphics/SVG/1.1/DTD/svg11.dtd">
<!-- Generated by graphviz version 14.1.2 (20260124.0452)
 -->
<!-- Title: armor_gradients Pages: 1 -->
<svg width="605pt" height="593pt"
 viewBox="0.00 0.00 605.00 593.00" xmlns="http://www.w3.org/2000/svg" xmlns:xlink="http://www.w3.org/1999/xlink">
<g id="graph0" class="graph" transform="scale(1 1) rotate(0) translate(4 589.25)">
<title>armor_gradients</title>
<polygon fill="#1a1a2e" stroke="none" points="-4,4 -4,-589.25 601,-589.25 601,4 -4,4"/>
<g id="clust1" class="cluster">
<title>cluster_missile</title>
<polygon fill="#2d2d44" stroke="#4ecdc4" stroke-width="2" points="8,-337.75 8,-529.75 559,-529.75 559,-337.75 8,-337.75"/>
<text xml:space="preserve" text-anchor="start" x="181.12" y="-512.45" font-family="Helvetica Bold" font-size="14.00" fill="#ff6b6b">Missile / Carronade (Gradient 1)</text>
</g>
<g id="clust2" class="cluster">
<title>cluster_laser</title>
<polygon fill="#2d2d44" stroke="#4ecdc4" stroke-width="2" points="8,-137.75 8,-329.75 589,-329.75 589,-137.75 8,-137.75"/>
<text xml:space="preserve" text-anchor="start" x="240.38" y="-312.45" font-family="Helvetica Bold" font-size="14.00" fill="#ffe66d">Laser (Gradient 3)</text>
</g>
<!-- title -->
<g id="node1" class="node">
<title>title</title>
<text xml:space="preserve" text-anchor="start" x="40.25" y="-562.15" font-family="Helvetica Bold" font-size="18.00" fill="white">Armor Damage Gradient Patterns</text>
<text xml:space="preserve" text-anchor="start" x="36.12" y="-545.1" font-family="Helvetica,sans-Serif" font-size="12.00" fill="#aaaaaa">25 damage applied to armor grid (4 layers x 9 columns)</text>
</g>
<!-- missile_grid -->
<g id="node2" class="node">
<title>missile_grid</title>
<polygon fill="#2d2d44" stroke="none" points="24.5,-465.75 24.5,-494.75 59.5,-494.75 59.5,-465.75 24.5,-465.75"/>
<polygon fill="none" stroke="black" points="24.5,-465.75 24.5,-494.75 59.5,-494.75 59.5,-465.75 24.5,-465.75"/>
<text xml:space="preserve" text-anchor="start" x="34.5" y="-474.45" font-family="Helvetica,sans-Serif" font-size="14.00" fill="#666666">L4</text>
<polygon fill="#2d2d44" stroke="none" points="59.5,-465.75 59.5,-494.75 94.5,-494.75 94.5,-465.75 59.5,-465.75"/>
<polygon fill="none" stroke="black" points="59.5,-465.75 59.5,-494.75 94.5,-494.75 94.5,-465.75 59.5,-465.75"/>
<polygon fill="#2d2d44" stroke="none" points="94.5,-465.75 94.5,-494.75 129.5,-494.75 129.5,-465.75 94.5,-465.75"/>
<polygon fill="none" stroke="black" points="94.5,-465.75 94.5,-494.75 129.5,-494.75 129.5,-465.75 94.5,-465.75"/>
<polygon fill="#2d2d44" stroke="none" points="129.5,-465.75 129.5,-494.75 164.5,-494.75 164.5,-465.75 129.5,-465.75"/>
<polygon fill="none" stroke="black" points="129.5,-465.75 129.5,-494.75 164.5,-494.75 164.5,-465.75 129.5,-465.75"/>
<polygon fill="#3d1a1a" stroke="none" points="164.5,-465.75 164.5,-494.75 199.5,-494.75 199.5,-465.75 164.5,-465.75"/>
<polygon fill="none" stroke="black" points="164.5,-465.75 164.5,-494.75 199.5,-494.75 199.5,-465.75 164.5,-465.75"/>
<text xml:space="preserve" text-anchor="start" x="178.25" y="-474.45" font-family="Helvetica,sans-Serif" font-size="14.00" fill="#ff6b6b">1</text>
<polygon fill="#2d2d44" stroke="none" points="199.5,-465.75 199.5,-494.75 234.5,-494.75 234.5,-465.75 199.5,-465.75"/>
<polygon fill="none" stroke="black" points="199.5,-465.75 199.5,-494.75 234.5,-494.75 234.5,-465.75 199.5,-465.75"/>
<polygon fill="#2d2d44" stroke="none" points="234.5,-465.75 234.5,-494.75 269.5,-494.75 269.5,-465.75 234.5,-465.75"/>
<polygon fill="none" stroke="black" points="234.5,-465.75 234.5,-494.75 269.5,-494.75 269.5,-465.75 234.5,-465.75"/>
<polygon fill="#2d2d44" stroke="none" points="269.5,-465.75 269.5,-494.75 304.5,-494.75 304.5,-465.75 269.5,-465.75"/>
<polygon fill="none" stroke="black" points="269.5,-465.75 269.5,-494.75 304.5,-494.75 304.5,-465.75 269.5,-465.75"/>
<polygon fill="#2d2d44" stroke="none" points="304.5,-465.75 304.5,-494.75 339.5,-494.75 339.5,-465.75 304.5,-465.75"/>
<polygon fill="none" stroke="black" points="304.5,-465.75 304.5,-494.75 339.5,-494.75 339.5,-465.75 304.5,-465.75"/>
<polygon fill="#2d2d44" stroke="none" points="24.5,-436.75 24.5,-465.75 59.5,-465.75 59.5,-436.75 24.5,-436.75"/>
<polygon fill="none" stroke="black" points="24.5,-436.75 24.5,-465.75 59.5,-465.75 59.5,-436.75 24.5,-436.75"/>
<text xml:space="preserve" text-anchor="start" x="34.5" y="-445.45" font-family="Helvetica,sans-Serif" font-size="14.00" fill="#666666">L3</text>
<polygon fill="#2d2d44" stroke="none" points="59.5,-436.75 59.5,-465.75 94.5,-465.75 94.5,-436.75 59.5,-436.75"/>
<polygon fill="none" stroke="black" points="59.5,-436.75 59.5,-465.75 94.5,-465.75 94.5,-436.75 59.5,-436.75"/>
<polygon fill="#3d1a1a" stroke="none" points="94.5,-436.75 94.5,-465.75 129.5,-465.75 129.5,-436.75 94.5,-436.75"/>
<polygon fill="none" stroke="black" points="94.5,-436.75 94.5,-465.75 129.5,-465.75 129.5,-436.75 94.5,-436.75"/>
<text xml:space="preserve" text-anchor="start" x="108.25" y="-445.45" font-family="Helvetica,sans-Serif" font-size="14.00" fill="#ff6b6b">1</text>
<polygon fill="#5d2a2a" stroke="none" points="129.5,-436.75 129.5,-465.75 164.5,-465.75 164.5,-436.75 129.5,-436.75"/>
<polygon fill="none" stroke="black" points="129.5,-436.75 129.5,-465.75 164.5,-465.75 164.5,-436.75 129.5,-436.75"/>
<text xml:space="preserve" text-anchor="start" x="143.25" y="-445.45" font-family="Helvetica,sans-Serif" font-size="14.00" fill="#ff6b6b">2</text>
<polygon fill="#7d3a3a" stroke="none" points="164.5,-436.75 164.5,-465.75 199.5,-465.75 199.5,-436.75 164.5,-436.75"/>
<polygon fill="none" stroke="black" points="164.5,-436.75 164.5,-465.75 199.5,-465.75 199.5,-436.75 164.5,-436.75"/>
<text xml:space="preserve" text-anchor="start" x="178.25" y="-445.45" font-family="Helvetica,sans-Serif" font-size="14.00" fill="#ff6b6b">3</text>
<polygon fill="#5d2a2a" stroke="none" points="199.5,-436.75 199.5,-465.75 234.5,-465.75 234.5,-436.75 199.5,-436.75"/>
<polygon fill="none" stroke="black" points="199.5,-436.75 199.5,-465.75 234.5,-465.75 234.5,-436.75 199.5,-436.75"/>
<text xml:space="preserve" text-anchor="start" x="213.25" y="-445.45" font-family="Helvetica,sans-Serif" font-size="14.00" fill="#ff6b6b">2</text>
<polygon fill="#3d1a1a" stroke="none" points="234.5,-436.75 234.5,-465.75 269.5,-465.75 269.5,-436.75 234.5,-436.75"/>
<polygon fill="none" stroke="black" points="234.5,-436.75 234.5,-465.75 269.5,-465.75 269.5,-436.75 234.5,-436.75"/>
<text xml:space="preserve" text-anchor="start" x="248.25" y="-445.45" font-family="Helvetica,sans-Serif" font-size="14.00" fill="#ff6b6b">1</text>
<polygon fill="#2d2d44" stroke="none" points="269.5,-436.75 269.5,-465.75 304.5,-465.75 304.5,-436.75 269.5,-436.75"/>
<polygon fill="none" stroke="black" points="269.5,-436.75 269.5,-465.75 304.5,-465.75 304.5,-436.75 269.5,-436.75"/>
<polygon fill="#2d2d44" stroke="none" points="304.5,-436.75 304.5,-465.75 339.5,-465.75 339.5,-436.75 304.5,-436.75"/>
<polygon fill="none" stroke="black" points="304.5,-436.75 304.5,-465.75 339.5,-465.75 339.5,-436.75 304.5,-436.75"/>
<polygon fill="#2d2d44" stroke="none" points="24.5,-407.75 24.5,-436.75 59.5,-436.75 59.5,-407.75 24.5,-407.75"/>
<polygon fill="none" stroke="black" points="24.5,-407.75 24.5,-436.75 59.5,-436.75 59.5,-407.75 24.5,-407.75"/>
<text xml:space="preserve" text-anchor="start" x="34.5" y="-416.45" font-family="Helvetica,sans-Serif" font-size="14.00" fill="#666666">L2</text>
<polygon fill="#3d1a1a" stroke="none" points="59.5,-407.75 59.5,-436.75 94.5,-436.75 94.5,-407.75 59.5,-407.75"/>
<polygon fill="none" stroke="black" points="59.5,-407.75 59.5,-436.75 94.5,-436.75 94.5,-407.75 59.5,-407.75"/>
<text xml:space="preserve" text-anchor="start" x="73.25" y="-416.45" font-family="Helvetica,sans-Serif" font-size="14.00" fill="#ff6b6b">1</text>
<polygon fill="#5d2a2a" stroke="none" points="94.5,-407.75 94.5,-436.75 129.5,-436.75 129.5,-407.75 94.5,-407.75"/>
<polygon fill="none" stroke="black" points="94.5,-407.75 94.5,-436.75 129.5,-436.75 129.5,-407.75 94.5,-407.75"/>
<text xml:space="preserve" text-anchor="start" x="108.25" y="-416.45" font-family="Helvetica,sans-Serif" font-size="14.00" fill="#ff6b6b">2</text>
<polygon fill="#7d3a3a" stroke="none" points="129.5,-407.75 129.5,-436.75 164.5,-436.75 164.5,-407.75 129.5,-407.75"/>
<polygon fill="none" stroke="black" points="129.5,-407.75 129.5,-436.75 164.5,-436.75 164.5,-407.75 129.5,-407.75"/>
<text xml:space="preserve" text-anchor="start" x="143.25" y="-416.45" font-family="Helvetica,sans-Serif" font-size="14.00" fill="#ff6b6b">3</text>
<polygon fill="#9d4a4a" stroke="none" points="164.5,-407.75 164.5,-436.75 199.5,-436.75 199.5,-407.75 164.5,-407.75"/>
<polygon fill="none" stroke="black" points="164.5,-407.75 164.5,-436.75 199.5,-436.75 199.5,-407.75 164.5,-407.75"/>
<text xml:space="preserve" text-anchor="start" x="178.25" y="-416.45" font-family="Helvetica,sans-Serif" font-size="14.00" fill="white">4</text>
<polygon fill="#7d3a3a" stroke="none" points="199.5,-407.75 199.5,-436.75 234.5,-436.75 234.5,-407.75 199.5,-407.75"/>
<polygon fill="none" stroke="black" points="199.5,-407.75 199.5,-436.75 234.5,-436.75 234.5,-407.75 199.5,-407.75"/>
<text xml:space="preserve" text-anchor="start" x="213.25" y="-416.45" font-family="Helvetica,sans-Serif" font-size="14.00" fill="#ff6b6b">3</text>
<polygon fill="#5d2a2a" stroke="none" points="234.5,-407.75 234.5,-436.75 269.5,-436.75 269.5,-407.75 234.5,-407.75"/>
<polygon fill="none" stroke="black" points="234.5,-407.75 234.5,-436.75 269.5,-436.75 269.5,-407.75 234.5,-407.75"/>
<text xml:space="preserve" text-anchor="start" x="248.25" y="-416.45" font-family="Helvetica,sans-Serif" font-size="14.00" fill="#ff6b6b">2</text>
<polygon fill="#3d1a1a" stroke="none" points="269.5,-407.75 269.5,-436.75 304.5,-436.75 304.5,-407.75 269.5,-407.75"/>
<polygon fill="none" stroke="black" points="269.5,-407.75 269.5,-436.75 304.5,-436.75 304.5,-407.75 269.5,-407.75"/>
<text xml:space="preserve" text-anchor="start" x="283.25" y="-416.45" font-family="Helvetica,sans-Serif" font-size="14.00" fill="#ff6b6b">1</text>
<polygon fill="#2d2d44" stroke="none" points="304.5,-407.75 304.5,-436.75 339.5,-436.75 339.5,-407.75 304.5,-407.75"/>
<polygon fill="none" stroke="black" points="304.5,-407.75 304.5,-436.75 339.5,-436.75 339.5,-407.75 304.5,-407.75"/>
<polygon fill="#2d2d44" stroke="none" points="24.5,-378.75 24.5,-407.75 59.5,-407.75 59.5,-378.75 24.5,-378.75"/>
<polygon fill="none" stroke="black" points="24.5,-378.75 24.5,-407.75 59.5,-407.75 59.5,-378.75 24.5,-378.75"/>
<text xml:space="preserve" text-anchor="start" x="34.5" y="-387.45" font-family="Helvetica,sans-Serif" font-size="14.00" fill="#666666">L1</text>
<polygon fill="#3d1a1a" stroke="none" points="59.5,-378.75 59.5,-407.75 94.5,-407.75 94.5,-378.75 59.5,-378.75"/>
<polygon fill="none" stroke="black" points="59.5,-378.75 59.5,-407.75 94.5,-407.75 94.5,-378.75 59.5,-378.75"/>
<text xml:space="preserve" text-anchor="start" x="73.25" y="-387.45" font-family="Helvetica,sans-Serif" font-size="14.00" fill="#ff6b6b">1</text>
<polygon fill="#5d2a2a" stroke="none" points="94.5,-378.75 94.5,-407.75 129.5,-407.75 129.5,-378.75 94.5,-378.75"/>
<polygon fill="none" stroke="black" points="94.5,-378.75 94.5,-407.75 129.5,-407.75 129.5,-378.75 94.5,-378.75"/>
<text xml:space="preserve" text-anchor="start" x="108.25" y="-387.45" font-family="Helvetica,sans-Serif" font-size="14.00" fill="#ff6b6b">2</text>
<polygon fill="#7d3a3a" stroke="none" points="129.5,-378.75 129.5,-407.75 164.5,-407.75 164.5,-378.75 129.5,-378.75"/>
<polygon fill="none" stroke="black" points="129.5,-378.75 129.5,-407.75 164.5,-407.75 164.5,-378.75 129.5,-378.75"/>
<text xml:space="preserve" text-anchor="start" x="143.25" y="-387.45" font-family="Helvetica,sans-Serif" font-size="14.00" fill="#ff6b6b">3</text>
<polygon fill="#bd5a5a" stroke="none" points="164.5,-378.75 164.5,-407.75 199.5,-407.75 199.5,-378.75 164.5,-378.75"/>
<polygon fill="none" stroke="black" points="164.5,-378.75 164.5,-407.75 199.5,-407.75 199.5,-378.75 164.5,-378.75"/>
<text xml:space="preserve" text-anchor="start" x="178.25" y="-387.45" font-family="Helvetica,sans-Serif" font-size="14.00" fill="white">5</text>
<polygon fill="#7d3a3a" stroke="none" points="199.5,-378.75 199.5,-407.75 234.5,-407.75 234.5,-378.75 199.5,-378.75"/>
<polygon fill="none" stroke="black" points="199.5,-378.75 199.5,-407.75 234.5,-407.75 234.5,-378.75 199.5,-378.75"/>
<text xml:space="preserve" text-anchor="start" x="213.25" y="-387.45" font-family="Helvetica,sans-Serif" font-size="14.00" fill="#ff6b6b">3</text>
<polygon fill="#5d2a2a" stroke="none" points="234.5,-378.75 234.5,-407.75 269.5,-407.75 269.5,-378.75 234.5,-378.75"/>
<polygon fill="none" stroke="black" points="234.5,-378.75 234.5,-407.75 269.5,-407.75 269.5,-378.75 234.5,-378.75"/>
<text xml:space="preserve" text-anchor="start" x="248.25" y="-387.45" font-family="Helvetica,sans-Serif" font-size="14.00" fill="#ff6b6b">2</text>
<polygon fill="#3d1a1a" stroke="none" points="269.5,-378.75 269.5,-407.75 304.5,-407.75 304.5,-378.75 269.5,-378.75"/>
<polygon fill="none" stroke="black" points="269.5,-378.75 269.5,-407.75 304.5,-407.75 304.5,-378.75 269.5,-378.75"/>
<text xml:space="preserve" text-anchor="start" x="283.25" y="-387.45" font-family="Helvetica,sans-Serif" font-size="14.00" fill="#ff6b6b">1</text>
<polygon fill="#2d2d44" stroke="none" points="304.5,-378.75 304.5,-407.75 339.5,-407.75 339.5,-378.75 304.5,-378.75"/>
<polygon fill="none" stroke="black" points="304.5,-378.75 304.5,-407.75 339.5,-407.75 339.5,-378.75 304.5,-378.75"/>
<polygon fill="#2d2d44" stroke="none" points="24.5,-349.75 24.5,-378.75 59.5,-378.75 59.5,-349.75 24.5,-349.75"/>
<polygon fill="none" stroke="black" points="24.5,-349.75 24.5,-378.75 59.5,-378.75 59.5,-349.75 24.5,-349.75"/>
<polygon fill="#2d2d44" stroke="none" points="59.5,-349.75 59.5,-378.75 94.5,-378.75 94.5,-349.75 59.5,-349.75"/>
<polygon fill="none" stroke="black" points="59.5,-349.75 59.5,-378.75 94.5,-378.75 94.5,-349.75 59.5,-349.75"/>
<text xml:space="preserve" text-anchor="start" x="68.38" y="-358.45" font-family="Helvetica,sans-Serif" font-size="14.00" fill="#666666">C1</text>
<polygon fill="#2d2d44" stroke="none" points="94.5,-349.75 94.5,-378.75 129.5,-378.75 129.5,-349.75 94.5,-349.75"/>
<polygon fill="none" stroke="black" points="94.5,-349.75 94.5,-378.75 129.5,-378.75 129.5,-349.75 94.5,-349.75"/>
<text xml:space="preserve" text-anchor="start" x="103.38" y="-358.45" font-family="Helvetica,sans-Serif" font-size="14.00" fill="#666666">C2</text>
<polygon fill="#2d2d44" stroke="none" points="129.5,-349.75 129.5,-378.75 164.5,-378.75 164.5,-349.75 129.5,-349.75"/>
<polygon fill="none" stroke="black" points="129.5,-349.75 129.5,-378.75 164.5,-378.75 164.5,-349.75 129.5,-349.75"/>
<text xml:space="preserve" text-anchor="start" x="138.38" y="-358.45" font-family="Helvetica,sans-Serif" font-size="14.00" fill="#666666">C3</text>
<polygon fill="#2d2d44" stroke="none" points="164.5,-349.75 164.5,-378.75 199.5,-378.75 199.5,-349.75 164.5,-349.75"/>
<polygon fill="none" stroke="black" points="164.5,-349.75 164.5,-378.75 199.5,-378.75 199.5,-349.75 164.5,-349.75"/>
<text xml:space="preserve" text-anchor="start" x="173.38" y="-358.45" font-family="Helvetica,sans-Serif" font-size="14.00" fill="#4ecdc4">C4</text>
<polygon fill="#2d2d44" stroke="none" points="199.5,-349.75 199.5,-378.75 234.5,-378.75 234.5,-349.75 199.5,-349.75"/>
<polygon fill="none" stroke="black" points="199.5,-349.75 199.5,-378.75 234.5,-378.75 234.5,-349.75 199.5,-349.75"/>
<text xml:space="preserve" text-anchor="start" x="208.38" y="-358.45" font-family="Helvetica,sans-Serif" font-size="14.00" fill="#666666">C5</text>
<polygon fill="#2d2d44" stroke="none" points="234.5,-349.75 234.5,-378.75 269.5,-378.75 269.5,-349.75 234.5,-349.75"/>
<polygon fill="none" stroke="black" points="234.5,-349.75 234.5,-378.75 269.5,-378.75 269.5,-349.75 234.5,-349.75"/>
<text xml:space="preserve" text-anchor="start" x="243.38" y="-358.45" font-family="Helvetica,sans-Serif" font-size="14.00" fill="#666666">C6</text>
<polygon fill="#2d2d44" stroke="none" points="269.5,-349.75 269.5,-378.75 304.5,-378.75 304.5,-349.75 269.5,-349.75"/>
<polygon fill="none" stroke="black" points="269.5,-349.75 269.5,-378.75 304.5,-378.75 304.5,-349.75 269.5,-349.75"/>
<text xml:space="preserve" text-anchor="start" x="278.38" y="-358.45" font-family="Helvetica,sans-Serif" font-size="14.00" fill="#666666">C7</text>
<polygon fill="#2d2d44" stroke="none" points="304.5,-349.75 304.5,-378.75 339.5,-378.75 339.5,-349.75 304.5,-349.75"/>
<polygon fill="none" stroke="black" points="304.5,-349.75 304.5,-378.75 339.5,-378.75 339.5,-349.75 304.5,-349.75"/>
<text xml:space="preserve" text-anchor="start" x="313.38" y="-358.45" font-family="Helvetica,sans-Serif" font-size="14.00" fill="#666666">C8</text>
</g>
<!-- title&#45;&gt;missile_grid -->
<!-- laser_grid -->
<g id="node4" class="node">
<title>laser_grid</title>
<polygon fill="#2d2d44" stroke="none" points="24.5,-265.75 24.5,-294.75 59.5,-294.75 59.5,-265.75 24.5,-265.75"/>
<polygon fill="none" stroke="black" points="24.5,-265.75 24.5,-294.75 59.5,-294.75 59.5,-265.75 24.5,-265.75"/>
<text xml:space="preserve" text-anchor="start" x="34.5" y="-274.45" font-family="Helvetica,sans-Serif" font-size="14.00" fill="#666666">L4</text>
<polygon fill="#2d2d44" stroke="none" points="59.5,-265.75 59.5,-294.75 94.5,-294.75 94.5,-265.75 59.5,-265.75"/>
<polygon fill="none" stroke="black" points="59.5,-265.75 59.5,-294.75 94.5,-294.75 94.5,-265.75 59.5,-265.75"/>
<polygon fill="#2d2d44" stroke="none" points="94.5,-265.75 94.5,-294.75 129.5,-294.75 129.5,-265.75 94.5,-265.75"/>
<polygon fill="none" stroke="black" points="94.5,-265.75 94.5,-294.75 129.5,-294.75 129.5,-265.75 94.5,-265.75"/>
<polygon fill="#2d2d44" stroke="none" points="129.5,-265.75 129.5,-294.75 164.5,-294.75 164.5,-265.75 129.5,-265.75"/>
<polygon fill="none" stroke="black" points="129.5,-265.75 129.5,-294.75 164.5,-294.75 164.5,-265.75 129.5,-265.75"/>
<polygon fill="#2d2d44" stroke="none" points="164.5,-265.75 164.5,-294.75 199.5,-294.75 199.5,-265.75 164.5,-265.75"/>
<polygon fill="none" stroke="black" points="164.5,-265.75 164.5,-294.75 199.5,-294.75 199.5,-265.75 164.5,-265.75"/>
<polygon fill="#2d2d44" stroke="none" points="199.5,-265.75 199.5,-294.75 234.5,-294.75 234.5,-265.75 199.5,-265.75"/>
<polygon fill="none" stroke="black" points="199.5,-265.75 199.5,-294.75 234.5,-294.75 234.5,-265.75 199.5,-265.75"/>
<polygon fill="#2d2d44" stroke="none" points="234.5,-265.75 234.5,-294.75 269.5,-294.75 269.5,-265.75 234.5,-265.75"/>
<polygon fill="none" stroke="black" points="234.5,-265.75 234.5,-294.75 269.5,-294.75 269.5,-265.75 234.5,-265.75"/>
<polygon fill="#2d2d44" stroke="none" points="269.5,-265.75 269.5,-294.75 304.5,-294.75 304.5,-265.75 269.5,-265.75"/>
<polygon fill="none" stroke="black" points="269.5,-265.75 269.5,-294.75 304.5,-294.75 304.5,-265.75 269.5,-265.75"/>
<polygon fill="#2d2d44" stroke="none" points="304.5,-265.75 304.5,-294.75 339.5,-294.75 339.5,-265.75 304.5,-265.75"/>
<polygon fill="none" stroke="black" points="304.5,-265.75 304.5,-294.75 339.5,-294.75 339.5,-265.75 304.5,-265.75"/>
<polygon fill="#2d2d44" stroke="none" points="24.5,-236.75 24.5,-265.75 59.5,-265.75 59.5,-236.75 24.5,-236.75"/>
<polygon fill="none" stroke="black" points="24.5,-236.75 24.5,-265.75 59.5,-265.75 59.5,-236.75 24.5,-236.75"/>
<text xml:space="preserve" text-anchor="start" x="34.5" y="-245.45" font-family="Helvetica,sans-Serif" font-size="14.00" fill="#666666">L3</text>
<polygon fill="#2d2d44" stroke="none" points="59.5,-236.75 59.5,-265.75 94.5,-265.75 94.5,-236.75 59.5,-236.75"/>
<polygon fill="none" stroke="black" points="59.5,-236.75 59.5,-265.75 94.5,-265.75 94.5,-236.75 59.5,-236.75"/>
<polygon fill="#2d2d44" stroke="none" points="94.5,-236.75 94.5,-265.75 129.5,-265.75 129.5,-236.75 94.5,-236.75"/>
<polygon fill="none" stroke="black" points="94.5,-236.75 94.5,-265.75 129.5,-265.75 129.5,-236.75 94.5,-236.75"/>
<polygon fill="#2d2d44" stroke="none" points="129.5,-236.75 129.5,-265.75 164.5,-265.75 164.5,-236.75 129.5,-236.75"/>
<polygon fill="none" stroke="black" points="129.5,-236.75 129.5,-265.75 164.5,-265.75 164.5,-236.75 129.5,-236.75"/>
<polygon fill="#5d4a1a" stroke="none" points="164.5,-236.75 164.5,-265.75 199.5,-265.75 199.5,-236.75 164.5,-236.75"/>
<polygon fill="none" stroke="black" points="164.5,-236.75 164.5,-265.75 199.5,-265.75 199.5,-236.75 164.5,-236.75"/>
<text xml:space="preserve" text-anchor="start" x="178.25" y="-245.45" font-family="Helvetica,sans-Serif" font-size="14.00" fill="#ffe66d">4</text>
<polygon fill="#2d2d44" stroke="none" points="199.5,-236.75 199.5,-265.75 234.5,-265.75 234.5,-236.75 199.5,-236.75"/>
<polygon fill="none" stroke="black" points="199.5,-236.75 199.5,-265.75 234.5,-265.75 234.5,-236.75 199.5,-236.75"/>
<polygon fill="#2d2d44" stroke="none" points="234.5,-236.75 234.5,-265.75 269.5,-265.75 269.5,-236.75 234.5,-236.75"/>
<polygon fill="none" stroke="black" points="234.5,-236.75 234.5,-265.75 269.5,-265.75 269.5,-236.75 234.5,-236.75"/>
<polygon fill="#2d2d44" stroke="none" points="269.5,-236.75 269.5,-265.75 304.5,-265.75 304.5,-236.75 269.5,-236.75"/>
<polygon fill="none" stroke="black" points="269.5,-236.75 269.5,-265.75 304.5,-265.75 304.5,-236.75 269.5,-236.75"/>
<polygon fill="#2d2d44" stroke="none" points="304.5,-236.75 304.5,-265.75 339.5,-265.75 339.5,-236.75 304.5,-236.75"/>
<polygon fill="none" stroke="black" points="304.5,-236.75 304.5,-265.75 339.5,-265.75 339.5,-236.75 304.5,-236.75"/>
<polygon fill="#2d2d44" stroke="none" points="24.5,-207.75 24.5,-236.75 59.5,-236.75 59.5,-207.75 24.5,-207.75"/>
<polygon fill="none" stroke="black" points="24.5,-207.75 24.5,-236.75 59.5,-236.75 59.5,-207.75 24.5,-207.75"/>
<text xml:space="preserve" text-anchor="start" x="34.5" y="-216.45" font-family="Helvetica,sans-Serif" font-size="14.00" fill="#666666">L2</text>
<polygon fill="#2d2d44" stroke="none" points="59.5,-207.75 59.5,-236.75 94.5,-236.75 94.5,-207.75 59.5,-207.75"/>
<polygon fill="none" stroke="black" points="59.5,-207.75 59.5,-236.75 94.5,-236.75 94.5,-207.75 59.5,-207.75"/>
<polygon fill="#2d2d44" stroke="none" points="94.5,-207.75 94.5,-236.75 129.5,-236.75 129.5,-207.75 94.5,-207.75"/>
<polygon fill="none" stroke="black" points="94.5,-207.75 94.5,-236.75 129.5,-236.75 129.5,-207.75 94.5,-207.75"/>
<polygon fill="#5d4a1a" stroke="none" points="129.5,-207.75 129.5,-236.75 164.5,-236.75 164.5,-207.75 129.5,-207.75"/>
<polygon fill="none" stroke="black" points="129.5,-207.75 129.5,-236.75 164.5,-236.75 164.5,-207.75 129.5,-207.75"/>
<text xml:space="preserve" text-anchor="start" x="143.25" y="-216.45" font-family="Helvetica,sans-Serif" font-size="14.00" fill="#ffe66d">2</text>
<polygon fill="#8d6a2a" stroke="none" points="164.5,-207.75 164.5,-236.75 199.5,-236.75 199.5,-207.75 164.5,-207.75"/>
<polygon fill="none" stroke="black" points="164.5,-207.75 164.5,-236.75 199.5,-236.75 199.5,-207.75 164.5,-207.75"/>
<text xml:space="preserve" text-anchor="start" x="178.25" y="-216.45" font-family="Helvetica,sans-Serif" font-size="14.00" fill="white">6</text>
<polygon fill="#5d4a1a" stroke="none" points="199.5,-207.75 199.5,-236.75 234.5,-236.75 234.5,-207.75 199.5,-207.75"/>
<polygon fill="none" stroke="black" points="199.5,-207.75 199.5,-236.75 234.5,-236.75 234.5,-207.75 199.5,-207.75"/>
<text xml:space="preserve" text-anchor="start" x="213.25" y="-216.45" font-family="Helvetica,sans-Serif" font-size="14.00" fill="#ffe66d">2</text>
<polygon fill="#2d2d44" stroke="none" points="234.5,-207.75 234.5,-236.75 269.5,-236.75 269.5,-207.75 234.5,-207.75"/>
<polygon fill="none" stroke="black" points="234.5,-207.75 234.5,-236.75 269.5,-236.75 269.5,-207.75 234.5,-207.75"/>
<polygon fill="#2d2d44" stroke="none" points="269.5,-207.75 269.5,-236.75 304.5,-236.75 304.5,-207.75 269.5,-207.75"/>
<polygon fill="none" stroke="black" points="269.5,-207.75 269.5,-236.75 304.5,-236.75 304.5,-207.75 269.5,-207.75"/>
<polygon fill="#2d2d44" stroke="none" points="304.5,-207.75 304.5,-236.75 339.5,-236.75 339.5,-207.75 304.5,-207.75"/>
<polygon fill="none" stroke="black" points="304.5,-207.75 304.5,-236.75 339.5,-236.75 339.5,-207.75 304.5,-207.75"/>
<polygon fill="#2d2d44" stroke="none" points="24.5,-178.75 24.5,-207.75 59.5,-207.75 59.5,-178.75 24.5,-178.75"/>
<polygon fill="none" stroke="black" points="24.5,-178.75 24.5,-207.75 59.5,-207.75 59.5,-178.75 24.5,-178.75"/>
<text xml:space="preserve" text-anchor="start" x="34.5" y="-187.45" font-family="Helvetica,sans-Serif" font-size="14.00" fill="#666666">L1</text>
<polygon fill="#2d2d44" stroke="none" points="59.5,-178.75 59.5,-207.75 94.5,-207.75 94.5,-178.75 59.5,-178.75"/>
<polygon fill="none" stroke="black" points="59.5,-178.75 59.5,-207.75 94.5,-207.75 94.5,-178.75 59.5,-178.75"/>
<polygon fill="#3d3a1a" stroke="none" points="94.5,-178.75 94.5,-207.75 129.5,-207.75 129.5,-178.75 94.5,-178.75"/>
<polygon fill="none" stroke="black" points="94.5,-178.75 94.5,-207.75 129.5,-207.75 129.5,-178.75 94.5,-178.75"/>
<text xml:space="preserve" text-anchor="start" x="108.25" y="-187.45" font-family="Helvetica,sans-Serif" font-size="14.00" fill="#ffe66d">3</text>
<polygon fill="#7d5a2a" stroke="none" points="129.5,-178.75 129.5,-207.75 164.5,-207.75 164.5,-178.75 129.5,-178.75"/>
<polygon fill="none" stroke="black" points="129.5,-178.75 129.5,-207.75 164.5,-207.75 164.5,-178.75 129.5,-178.75"/>
<text xml:space="preserve" text-anchor="start" x="143.25" y="-187.45" font-family="Helvetica,sans-Serif" font-size="14.00" fill="#ffe66d">5</text>
<polygon fill="#ad7a3a" stroke="none" points="164.5,-178.75 164.5,-207.75 199.5,-207.75 199.5,-178.75 164.5,-178.75"/>
<polygon fill="none" stroke="black" points="164.5,-178.75 164.5,-207.75 199.5,-207.75 199.5,-178.75 164.5,-178.75"/>
<text xml:space="preserve" text-anchor="start" x="178.25" y="-187.45" font-family="Helvetica,sans-Serif" font-size="14.00" fill="white">8</text>
<polygon fill="#5d4a1a" stroke="none" points="199.5,-178.75 199.5,-207.75 234.5,-207.75 234.5,-178.75 199.5,-178.75"/>
<polygon fill="none" stroke="black" points="199.5,-178.75 199.5,-207.75 234.5,-207.75 234.5,-178.75 199.5,-178.75"/>
<text xml:space="preserve" text-anchor="start" x="213.25" y="-187.45" font-family="Helvetica,sans-Serif" font-size="14.00" fill="#ffe66d">4</text>
<polygon fill="#3d3a1a" stroke="none" points="234.5,-178.75 234.5,-207.75 269.5,-207.75 269.5,-178.75 234.5,-178.75"/>
<polygon fill="none" stroke="black" points="234.5,-178.75 234.5,-207.75 269.5,-207.75 269.5,-178.75 234.5,-178.75"/>
<text xml:space="preserve" text-anchor="start" x="248.25" y="-187.45" font-family="Helvetica,sans-Serif" font-size="14.00" fill="#ffe66d">3</text>
<polygon fill="#2d2d44" stroke="none" points="269.5,-178.75 269.5,-207.75 304.5,-207.75 304.5,-178.75 269.5,-178.75"/>
<polygon fill="none" stroke="black" points="269.5,-178.75 269.5,-207.75 304.5,-207.75 304.5,-178.75 269.5,-178.75"/>
<polygon fill="#2d2d44" stroke="none" points="304.5,-178.75 304.5,-207.75 339.5,-207.75 339.5,-178.75 304.5,-178.75"/>
<polygon fill="none" stroke="black" points="304.5,-178.75 304.5,-207.75 339.5,-207.75 339.5,-178.75 304.5,-178.75"/>
<polygon fill="#2d2d44" stroke="none" points="24.5,-149.75 24.5,-178.75 59.5,-178.75 59.5,-149.75 24.5,-149.75"/>
<polygon fill="none" stroke="black" points="24.5,-149.75 24.5,-178.75 59.5,-178.75 59.5,-149.75 24.5,-149.75"/>
<polygon fill="#2d2d44" stroke="none" points="59.5,-149.75 59.5,-178.75 94.5,-178.75 94.5,-149.75 59.5,-149.75"/>
<polygon fill="none" stroke="black" points="59.5,-149.75 59.5,-178.75 94.5,-178.75 94.5,-149.75 59.5,-149.75"/>
<text xml:space="preserve" text-anchor="start" x="68.38" y="-158.45" font-family="Helvetica,sans-Serif" font-size="14.00" fill="#666666">C1</text>
<polygon fill="#2d2d44" stroke="none" points="94.5,-149.75 94.5,-178.75 129.5,-178.75 129.5,-149.75 94.5,-149.75"/>
<polygon fill="none" stroke="black" points="94.5,-149.75 94.5,-178.75 129.5,-178.75 129.5,-149.75 94.5,-149.75"/>
<text xml:space="preserve" text-anchor="start" x="103.38" y="-158.45" font-family="Helvetica,sans-Serif" font-size="14.00" fill="#666666">C2</text>
<polygon fill="#2d2d44" stroke="none" points="129.5,-149.75 129.5,-178.75 164.5,-178.75 164.5,-149.75 129.5,-149.75"/>
<polygon fill="none" stroke="black" points="129.5,-149.75 129.5,-178.75 164.5,-178.75 164.5,-149.75 129.5,-149.75"/>
<text xml:space="preserve" text-anchor="start" x="138.38" y="-158.45" font-family="Helvetica,sans-Serif" font-size="14.00" fill="#666666">C3</text>
<polygon fill="#2d2d44" stroke="none" points="164.5,-149.75 164.5,-178.75 199.5,-178.75 199.5,-149.75 164.5,-149.75"/>
<polygon fill="none" stroke="black" points="164.5,-149.75 164.5,-178.75 199.5,-178.75 199.5,-149.75 164.5,-149.75"/>
<text xml:space="preserve" text-anchor="start" x="173.38" y="-158.45" font-family="Helvetica,sans-Serif" font-size="14.00" fill="#4ecdc4">C4</text>
<polygon fill="#2d2d44" stroke="none" points="199.5,-149.75 199.5,-178.75 234.5,-178.75 234.5,-149.75 199.5,-149.75"/>
<polygon fill="none" stroke="black" points="199.5,-149.75 199.5,-178.75 234.5,-178.75 234.5,-149.75 199.5,-149.75"/>
<text xml:space="preserve" text-anchor="start" x="208.38" y="-158.45" font-family="Helvetica,sans-Serif" font-size="14.00" fill="#666666">C5</text>
<polygon fill="#2d2d44" stroke="none" points="234.5,-149.75 234.5,-178.75 269.5,-178.75 269.5,-149.75 234.5,-149.75"/>
<polygon fill="none" stroke="black" points="234.5,-149.75 234.5,-178.75 269.5,-178.75 269.5,-149.75 234.5,-149.75"/>
<text xml:space="preserve" text-anchor="start" x="243.38" y="-158.45" font-family="Helvetica,sans-Serif" font-size="14.00" fill="#666666">C6</text>
<polygon fill="#2d2d44" stroke="none" points="269.5,-149.75 269.5,-178.75 304.5,-178.75 304.5,-149.75 269.5,-149.75"/>
<polygon fill="none" stroke="black" points="269.5,-149.75 269.5,-178.75 304.5,-178.75 304.5,-149.75 269.5,-149.75"/>
<text xml:space="preserve" text-anchor="start" x="278.38" y="-158.45" font-family="Helvetica,sans-Serif" font-size="14.00" fill="#666666">C7</text>
<polygon fill="#2d2d44" stroke="none" points="304.5,-149.75 304.5,-178.75 339.5,-178.75 339.5,-149.75 304.5,-149.75"/>
<polygon fill="none" stroke="black" points="304.5,-149.75 304.5,-178.75 339.5,-178.75 339.5,-149.75 304.5,-149.75"/>
<text xml:space="preserve" text-anchor="start" x="313.38" y="-158.45" font-family="Helvetica,sans-Serif" font-size="14.00" fill="#666666">C8</text>
</g>
<!-- missile_grid&#45;&gt;laser_grid -->
<!-- missile_note -->
<g id="node3" class="node">
<title>missile_note</title>
<text xml:space="preserve" text-anchor="start" x="373.25" y="-418.38" font-family="Helvetica,sans-Serif" font-size="10.00" fill="#aaaaaa">Wide spread: 1&#45;2&#45;3&#45;4&#45;5&#45;4&#45;3&#45;2&#45;1 pyramid</text>
</g>
<!-- legend -->
<g id="node6" class="node">
<title>legend</title>
<text xml:space="preserve" text-anchor="start" x="118.62" y="-88.35" font-family="Helvetica Bold" font-size="12.00" fill="white">Damage Interpretation</text>
<text xml:space="preserve" text-anchor="start" x="72.88" y="-69.5" font-family="Helvetica,sans-Serif" font-size="10.00" fill="#aaaaaa">Numbers show damage applied to each armor cell</text>
<text xml:space="preserve" text-anchor="start" x="72.88" y="-50.25" font-family="Helvetica,sans-Serif" font-size="10.00" fill="#aaaaaa">Darker red/yellow = more damage in that cell</text>
<text xml:space="preserve" text-anchor="start" x="72.88" y="-31" font-family="Helvetica,sans-Serif" font-size="10.00" fill="#4ecdc4">Impact column (C4) highlighted in cyan</text>
<text xml:space="preserve" text-anchor="start" x="72.88" y="-11.75" font-family="Helvetica,sans-Serif" font-size="10.00" fill="#aaaaaa">L1&#45;L4 = Armor layers (L1 = outermost)</text>
</g>
<!-- laser_grid&#45;&gt;legend -->
<!-- laser_note -->
<g id="node5" class="node">
<title>laser_note</title>
<text xml:space="preserve" text-anchor="start" x="373.25" y="-218.38" font-family="Helvetica,sans-Serif" font-size="10.00" fill="#aaaaaa">Focused: 3&#45;5&#45;8&#45;4&#45;3 cluster, deeper penetration</text>
</g>
</g>
</svg>
