<?xml version="1.0" encoding="UTF-8" standalone="no"?>
<!DOCTYPE svg PUBLIC "-//W3C//DTD SVG 1.1//EN"
 "http://www.w3.org/Graphics/SVG/1.1/DTD/svg11.dtd">
<!-- Generated by graphviz version 14.1.2 (20260124.0452)
 -->
<!-- Title: PowerModifierCurve Pages: 1 -->
<svg width="838pt" height="489pt"
 viewBox="0.00 0.00 838.00 489.00" xmlns="http://www.w3.org/2000/svg" xmlns:xlink="http://www.w3.org/1999/xlink">
<g id="graph0" class="graph" transform="scale(1 1) rotate(0) translate(4 484.53)">
<title>PowerModifierCurve</title>
<polygon fill="#1a1a2e" stroke="none" points="-4,4 -4,-484.53 834,-484.53 834,4 -4,4"/>
<text xml:space="preserve" text-anchor="start" x="299.88" y="-462.33" font-family="Helvetica,sans-Serif" font-weight="bold" font-size="16.00" fill="white">Engine Power Modifier Effects</text>
<g id="clust1" class="cluster">
<title>cluster_speed</title>
<path fill="#1a1a2e" stroke="#4ecdc4" d="M20,-112.4C20,-112.4 287,-112.4 287,-112.4 293,-112.4 299,-118.4 299,-124.4 299,-124.4 299,-286.43 299,-286.43 299,-292.43 293,-298.43 287,-298.43 287,-298.43 20,-298.43 20,-298.43 14,-298.43 8,-292.43 8,-286.43 8,-286.43 8,-124.4 8,-124.4 8,-118.4 14,-112.4 20,-112.4"/>
<text xml:space="preserve" text-anchor="start" x="120.12" y="-284.98" font-family="Helvetica,sans-Serif" font-weight="bold" font-size="11.00" fill="#4ecdc4">Speed Effect</text>
</g>
<g id="clust2" class="cluster">
<title>cluster_fuel</title>
<path fill="#1a1a2e" stroke="#ff6b6b" d="M556,-112.4C556,-112.4 810,-112.4 810,-112.4 816,-112.4 822,-118.4 822,-124.4 822,-124.4 822,-286.43 822,-286.43 822,-292.43 816,-298.43 810,-298.43 810,-298.43 556,-298.43 556,-298.43 550,-298.43 544,-292.43 544,-286.43 544,-286.43 544,-124.4 544,-124.4 544,-118.4 550,-112.4 556,-112.4"/>
<text xml:space="preserve" text-anchor="start" x="617.75" y="-284.98" font-family="Helvetica,sans-Serif" font-weight="bold" font-size="11.00" fill="#ff6b6b">Fuel Consumption Effect</text>
</g>
<g id="clust3" class="cluster">
<title>cluster_range</title>
<path fill="#1a1a2e" stroke="#ffe66d" d="M319,-8C319,-8 524,-8 524,-8 530,-8 536,-14 536,-20 536,-20 536,-180.07 536,-180.07 536,-186.07 530,-192.07 524,-192.07 524,-192.07 319,-192.07 319,-192.07 313,-192.07 307,-186.07 307,-180.07 307,-180.07 307,-20 307,-20 307,-14 313,-8 319,-8"/>
<text xml:space="preserve" text-anchor="start" x="386.25" y="-178.62" font-family="Helvetica,sans-Serif" font-weight="bold" font-size="11.00" fill="#ffe66d">Range Result</text>
</g>
<g id="clust4" class="cluster">
<title>cluster_guide</title>
<path fill="#1a1a2e" stroke="#4ecdc4" d="M584,-326.18C584,-326.18 738,-326.18 738,-326.18 744,-326.18 750,-332.18 750,-338.18 750,-338.18 750,-436.03 750,-436.03 750,-442.03 744,-448.03 738,-448.03 738,-448.03 584,-448.03 584,-448.03 578,-448.03 572,-442.03 572,-436.03 572,-436.03 572,-338.18 572,-338.18 572,-332.18 578,-326.18 584,-326.18"/>
<text xml:space="preserve" text-anchor="start" x="605.12" y="-435.53" font-family="Helvetica,sans-Serif" font-weight="bold" font-size="10.00" fill="white">Recommended Settings</text>
</g>
<!-- power_mod -->
<g id="node1" class="node">
<title>power_mod</title>
<path fill="#3d3d54" stroke="#4ecdc4" stroke-width="2" d="M378.52,-405.4C378.52,-405.4 271.48,-405.4 271.48,-405.4 265.48,-405.4 259.48,-399.4 259.48,-393.4 259.48,-393.4 259.48,-361.55 259.48,-361.55 259.48,-355.55 265.48,-349.55 271.48,-349.55 271.48,-349.55 378.52,-349.55 378.52,-349.55 384.52,-349.55 390.52,-355.55 390.52,-361.55 390.52,-361.55 390.52,-393.4 390.52,-393.4 390.52,-399.4 384.52,-405.4 378.52,-405.4"/>
<text xml:space="preserve" text-anchor="start" x="275.88" y="-380.3" font-family="Helvetica,sans-Serif" font-weight="bold" font-size="14.00" fill="white">Power Modifier</text>
<text xml:space="preserve" text-anchor="start" x="299.12" y="-364.1" font-family="Helvetica,sans-Serif" font-size="10.00" fill="#95d5b2">0.1x to 5.0x</text>
</g>
<!-- speed_scale -->
<g id="node2" class="node">
<title>speed_scale</title>
<path fill="#2d2d44" stroke="#4ecdc4" stroke-width="2" d="M279.27,-270.43C279.27,-270.43 170.72,-270.43 170.72,-270.43 164.72,-270.43 158.72,-264.43 158.72,-258.43 158.72,-258.43 158.72,-231.07 158.72,-231.07 158.72,-225.07 164.72,-219.07 170.72,-219.07 170.72,-219.07 279.27,-219.07 279.27,-219.07 285.27,-219.07 291.27,-225.07 291.27,-231.07 291.27,-231.07 291.27,-258.43 291.27,-258.43 291.27,-264.43 285.27,-270.43 279.27,-270.43"/>
<text xml:space="preserve" text-anchor="start" x="204" y="-248.18" font-family="Helvetica,sans-Serif" font-weight="bold" font-size="11.00" fill="#4ecdc4">LINEAR</text>
<text xml:space="preserve" text-anchor="start" x="175.12" y="-233.07" font-family="Helvetica,sans-Serif" font-size="9.00" fill="white">Speed = Base x Modifier</text>
</g>
<!-- power_mod&#45;&gt;speed_scale -->
<g id="edge7" class="edge">
<title>power_mod&#45;&gt;speed_scale</title>
<path fill="none" stroke="#4ecdc4" stroke-width="2" d="M303.79,-348.75C288.24,-328.42 267.04,-300.71 250.55,-279.15"/>
<polygon fill="#4ecdc4" stroke="#4ecdc4" stroke-width="2" points="252.52,-277.69 246.32,-273.62 248.63,-280.67 252.52,-277.69"/>
<text xml:space="preserve" text-anchor="middle" x="294.5" y="-307.62" font-family="Helvetica,sans-Serif" font-size="9.00" fill="white"> &#160;Direct &#160;</text>
</g>
<!-- fuel_scale -->
<g id="node5" class="node">
<title>fuel_scale</title>
<path fill="#2d2d44" stroke="#4ecdc4" stroke-width="2" d="M669.77,-270.43C669.77,-270.43 564.23,-270.43 564.23,-270.43 558.23,-270.43 552.23,-264.43 552.23,-258.43 552.23,-258.43 552.23,-231.07 552.23,-231.07 552.23,-225.07 558.23,-219.07 564.23,-219.07 564.23,-219.07 669.77,-219.07 669.77,-219.07 675.77,-219.07 681.77,-225.07 681.77,-231.07 681.77,-231.07 681.77,-258.43 681.77,-258.43 681.77,-264.43 675.77,-270.43 669.77,-270.43"/>
<text xml:space="preserve" text-anchor="start" x="577.25" y="-248.18" font-family="Helvetica,sans-Serif" font-weight="bold" font-size="11.00" fill="#ff6b6b">EXPONENTIAL</text>
<text xml:space="preserve" text-anchor="start" x="568.62" y="-233.07" font-family="Helvetica,sans-Serif" font-size="9.00" fill="white">Each +10% = x1.25 fuel</text>
</g>
<!-- power_mod&#45;&gt;fuel_scale -->
<g id="edge8" class="edge">
<title>power_mod&#45;&gt;fuel_scale</title>
<path fill="none" stroke="#ff6b6b" stroke-width="2" d="M387.28,-348.59C435.38,-327.06 501.77,-297.34 550.82,-275.38"/>
<polygon fill="#ff6b6b" stroke="#ff6b6b" stroke-width="2" points="551.62,-277.71 557,-272.61 549.61,-273.23 551.62,-277.71"/>
<text xml:space="preserve" text-anchor="middle" x="509.38" y="-307.62" font-family="Helvetica,sans-Serif" font-size="9.00" fill="white"> &#160;Compounds &#160;</text>
</g>
<!-- speed_low -->
<g id="node3" class="node">
<title>speed_low</title>
<path fill="#2d4a5a" stroke="#4ecdc4" stroke-width="2" d="M132.28,-156.4C132.28,-156.4 27.72,-156.4 27.72,-156.4 21.72,-156.4 15.72,-150.4 15.72,-144.4 15.72,-144.4 15.72,-132.4 15.72,-132.4 15.72,-126.4 21.72,-120.4 27.72,-120.4 27.72,-120.4 132.28,-120.4 132.28,-120.4 138.28,-120.4 144.28,-126.4 144.28,-132.4 144.28,-132.4 144.28,-144.4 144.28,-144.4 144.28,-150.4 138.28,-156.4 132.28,-156.4"/>
<text xml:space="preserve" text-anchor="start" x="30.12" y="-134.72" font-family="Helvetica,sans-Serif" font-size="9.00" fill="white">0.5x power = 0.5x speed</text>
</g>
<!-- speed_scale&#45;&gt;speed_low -->
<!-- speed_high -->
<g id="node4" class="node">
<title>speed_high</title>
<path fill="#2d5a4a" stroke="#4ecdc4" stroke-width="2" d="M279.27,-156.4C279.27,-156.4 174.72,-156.4 174.72,-156.4 168.72,-156.4 162.72,-150.4 162.72,-144.4 162.72,-144.4 162.72,-132.4 162.72,-132.4 162.72,-126.4 168.72,-120.4 174.72,-120.4 174.72,-120.4 279.27,-120.4 279.27,-120.4 285.27,-120.4 291.27,-126.4 291.27,-132.4 291.27,-132.4 291.27,-144.4 291.27,-144.4 291.27,-150.4 285.27,-156.4 279.27,-156.4"/>
<text xml:space="preserve" text-anchor="start" x="177.12" y="-134.72" font-family="Helvetica,sans-Serif" font-size="9.00" fill="white">2.0x power = 2.0x speed</text>
</g>
<!-- speed_scale&#45;&gt;speed_high -->
<!-- range_formula -->
<g id="node8" class="node">
<title>range_formula</title>
<path fill="#2d2d44" stroke="#4ecdc4" stroke-width="2" d="M515.77,-164.07C515.77,-164.07 398.23,-164.07 398.23,-164.07 392.23,-164.07 386.23,-158.07 386.23,-152.07 386.23,-152.07 386.23,-124.72 386.23,-124.72 386.23,-118.72 392.23,-112.72 398.23,-112.72 398.23,-112.72 515.77,-112.72 515.77,-112.72 521.77,-112.72 527.77,-118.72 527.77,-124.72 527.77,-124.72 527.77,-152.07 527.77,-152.07 527.77,-158.07 521.77,-164.07 515.77,-164.07"/>
<text xml:space="preserve" text-anchor="start" x="436.75" y="-141.82" font-family="Helvetica,sans-Serif" font-weight="bold" font-size="11.00" fill="#ffe66d">RANGE</text>
<text xml:space="preserve" text-anchor="start" x="402.62" y="-126.72" font-family="Helvetica,sans-Serif" font-size="9.00" fill="white">Speed / Fuel Consumption</text>
</g>
<!-- speed_scale&#45;&gt;range_formula -->
<g id="edge9" class="edge">
<title>speed_scale&#45;&gt;range_formula</title>
<path fill="none" stroke="#95d5b2" stroke-width="2" stroke-dasharray="5,2" d="M282.05,-218.09C315.06,-203.24 356.74,-184.5 391.13,-169.03"/>
<polygon fill="#95d5b2" stroke="#95d5b2" stroke-width="2" points="392.03,-171.31 397.41,-166.2 390.02,-166.84 392.03,-171.31"/>
</g>
<!-- fuel_low -->
<g id="node6" class="node">
<title>fuel_low</title>
<path fill="#2d4a5a" stroke="#4ecdc4" stroke-width="2" d="M663.65,-156.4C663.65,-156.4 564.35,-156.4 564.35,-156.4 558.35,-156.4 552.35,-150.4 552.35,-144.4 552.35,-144.4 552.35,-132.4 552.35,-132.4 552.35,-126.4 558.35,-120.4 564.35,-120.4 564.35,-120.4 663.65,-120.4 663.65,-120.4 669.65,-120.4 675.65,-126.4 675.65,-132.4 675.65,-132.4 675.65,-144.4 675.65,-144.4 675.65,-150.4 669.65,-156.4 663.65,-156.4"/>
<text xml:space="preserve" text-anchor="start" x="566.75" y="-134.72" font-family="Helvetica,sans-Serif" font-size="9.00" fill="white">0.5x power = 0.32x fuel</text>
</g>
<!-- fuel_scale&#45;&gt;fuel_low -->
<!-- fuel_high -->
<g id="node7" class="node">
<title>fuel_high</title>
<path fill="#5a2d2d" stroke="#4ecdc4" stroke-width="2" d="M802.15,-156.4C802.15,-156.4 705.85,-156.4 705.85,-156.4 699.85,-156.4 693.85,-150.4 693.85,-144.4 693.85,-144.4 693.85,-132.4 693.85,-132.4 693.85,-126.4 699.85,-120.4 705.85,-120.4 705.85,-120.4 802.15,-120.4 802.15,-120.4 808.15,-120.4 814.15,-126.4 814.15,-132.4 814.15,-132.4 814.15,-144.4 814.15,-144.4 814.15,-150.4 808.15,-156.4 802.15,-156.4"/>
<text xml:space="preserve" text-anchor="start" x="708.25" y="-134.72" font-family="Helvetica,sans-Serif" font-size="9.00" fill="white">2.0x power = 9.5x fuel!</text>
</g>
<!-- fuel_scale&#45;&gt;fuel_high -->
<!-- fuel_scale&#45;&gt;range_formula -->
<g id="edge10" class="edge">
<title>fuel_scale&#45;&gt;range_formula</title>
<path fill="none" stroke="#ff6b6b" stroke-width="2" stroke-dasharray="5,2" d="M577.86,-218.22C555.78,-203.82 528.02,-185.72 504.67,-170.49"/>
<polygon fill="#ff6b6b" stroke="#ff6b6b" stroke-width="2" points="506.03,-168.45 498.83,-166.68 503.35,-172.55 506.03,-168.45"/>
</g>
<!-- range_best -->
<g id="node9" class="node">
<title>range_best</title>
<path fill="#2d5a4a" stroke="#4ecdc4" stroke-width="2" d="M405.27,-66.6C405.27,-66.6 326.73,-66.6 326.73,-66.6 320.73,-66.6 314.73,-60.6 314.73,-54.6 314.73,-54.6 314.73,-28 314.73,-28 314.73,-22 320.73,-16 326.73,-16 326.73,-16 405.27,-16 405.27,-16 411.27,-16 417.27,-22 417.27,-28 417.27,-28 417.27,-54.6 417.27,-54.6 417.27,-60.6 411.27,-66.6 405.27,-66.6"/>
<text xml:space="preserve" text-anchor="start" x="339" y="-45.3" font-family="Helvetica,sans-Serif" font-weight="bold" font-size="10.00" fill="#95d5b2">Best Range</text>
<text xml:space="preserve" text-anchor="start" x="331.12" y="-30" font-family="Helvetica,sans-Serif" font-size="9.00" fill="white">0.1x &#45; 0.5x power</text>
</g>
<!-- range_formula&#45;&gt;range_best -->
<!-- range_worst -->
<g id="node10" class="node">
<title>range_worst</title>
<path fill="#5a2d2d" stroke="#4ecdc4" stroke-width="2" d="M516.4,-66.6C516.4,-66.6 447.6,-66.6 447.6,-66.6 441.6,-66.6 435.6,-60.6 435.6,-54.6 435.6,-54.6 435.6,-28 435.6,-28 435.6,-22 441.6,-16 447.6,-16 447.6,-16 516.4,-16 516.4,-16 522.4,-16 528.4,-22 528.4,-28 528.4,-28 528.4,-54.6 528.4,-54.6 528.4,-60.6 522.4,-66.6 516.4,-66.6"/>
<text xml:space="preserve" text-anchor="start" x="452" y="-45.3" font-family="Helvetica,sans-Serif" font-weight="bold" font-size="10.00" fill="#ff6b6b">Worst Range</text>
<text xml:space="preserve" text-anchor="start" x="456.88" y="-30" font-family="Helvetica,sans-Serif" font-size="9.00" fill="white">3.0x+ power</text>
</g>
<!-- range_formula&#45;&gt;range_worst -->
<!-- insight -->
<g id="node11" class="node">
<title>insight</title>
<polygon fill="#3d3d54" stroke="#ffe66d" stroke-width="2" points="747.4,-75.72 546.6,-75.72 546.6,-6.88 753.4,-6.88 753.4,-69.72 747.4,-75.72"/>
<polyline fill="none" stroke="#ffe66d" stroke-width="2" points="747.4,-75.72 747.4,-69.72"/>
<polyline fill="none" stroke="#ffe66d" stroke-width="2" points="753.4,-69.72 747.4,-69.72"/>
<text xml:space="preserve" text-anchor="start" x="611.38" y="-52.52" font-family="Helvetica,sans-Serif" font-weight="bold" font-size="12.00" fill="#ffe66d">KEY INSIGHT</text>
<text xml:space="preserve" text-anchor="start" x="565.62" y="-36.67" font-family="Helvetica,sans-Serif" font-size="10.00" fill="white">Low power = slower but MUCH farther</text>
<text xml:space="preserve" text-anchor="start" x="563" y="-21.42" font-family="Helvetica,sans-Serif" font-size="10.00" fill="white">High power = faster but range collapses</text>
</g>
<!-- range_formula&#45;&gt;insight -->
<!-- guide -->
<g id="node12" class="node">
<title>guide</title>
<polygon fill="#2d2d44" stroke="#4ecdc4" stroke-width="2" points="735.65,-420.78 580.35,-420.78 580.35,-334.18 741.65,-334.18 741.65,-414.78 735.65,-420.78"/>
<polyline fill="none" stroke="#4ecdc4" stroke-width="2" points="735.65,-420.78 735.65,-414.78"/>
<polyline fill="none" stroke="#4ecdc4" stroke-width="2" points="741.65,-414.78 735.65,-414.78"/>
<text xml:space="preserve" text-anchor="start" x="598.75" y="-397.43" font-family="Helvetica,sans-Serif" font-size="9.00" fill="#95d5b2">Transit:</text>
<text xml:space="preserve" text-anchor="start" x="676" y="-397.43" font-family="Helvetica,sans-Serif" font-size="9.00" fill="white">0.5x</text>
<text xml:space="preserve" text-anchor="start" x="598.75" y="-381.68" font-family="Helvetica,sans-Serif" font-size="9.00" fill="#95d5b2">Patrol:</text>
<text xml:space="preserve" text-anchor="start" x="676" y="-381.68" font-family="Helvetica,sans-Serif" font-size="9.00" fill="white">0.75x &#45; 1.0x</text>
<text xml:space="preserve" text-anchor="start" x="598.75" y="-365.93" font-family="Helvetica,sans-Serif" font-size="9.00" fill="#ffe66d">Rapid Response:</text>
<text xml:space="preserve" text-anchor="start" x="676" y="-365.93" font-family="Helvetica,sans-Serif" font-size="9.00" fill="white">1.5x</text>
<text xml:space="preserve" text-anchor="start" x="598.75" y="-350.18" font-family="Helvetica,sans-Serif" font-size="9.00" fill="#ff6b6b">Combat Sprint:</text>
<text xml:space="preserve" text-anchor="start" x="676" y="-350.18" font-family="Helvetica,sans-Serif" font-size="9.00" fill="white">2.0x &#45; 3.0x</text>
</g>
</g>
</svg>
