<?xml version="1.0" encoding="UTF-8" standalone="no"?>
<!DOCTYPE svg PUBLIC "-//W3C//DTD SVG 1.1//EN"
 "http://www.w3.org/Graphics/SVG/1.1/DTD/svg11.dtd">
<!-- Generated by graphviz version 14.1.2 (20260124.0452)
 -->
<!-- Title: range_coordination Pages: 1 -->
<svg width="556pt" height="785pt"
 viewBox="0.00 0.00 556.00 785.00" xmlns="http://www.w3.org/2000/svg" xmlns:xlink="http://www.w3.org/1999/xlink">
<g id="graph0" class="graph" transform="scale(1 1) rotate(0) translate(4 781)">
<title>range_coordination</title>
<polygon fill="#1a1a2e" stroke="none" points="-4,4 -4,-781 552,-781 552,4 -4,4"/>
<g id="clust1" class="cluster">
<title>cluster_flow</title>
<polygon fill="#1a1a2e" stroke="#1a1a2e" points="208,-277.75 208,-700.5 340,-700.5 340,-277.75 208,-277.75"/>
</g>
<g id="clust2" class="cluster">
<title>cluster_ranges</title>
<polygon fill="#2d2d44" stroke="#4ecdc4" stroke-width="2" points="8,-138.75 8,-258.75 540,-258.75 540,-138.75 8,-138.75"/>
<text xml:space="preserve" text-anchor="start" x="226.75" y="-243.35" font-family="Helvetica Bold" font-size="12.00" fill="white">Range Envelope</text>
</g>
<!-- title -->
<g id="node1" class="node">
<title>title</title>
<polygon fill="lightgrey" stroke="none" points="432.5,-777 115.5,-777 115.5,-729.5 432.5,-729.5 432.5,-777"/>
<text xml:space="preserve" text-anchor="start" x="125.5" y="-753.9" font-family="Helvetica Bold" font-size="18.00" fill="white">Detection&#45;to&#45;Engagement Cascade</text>
<text xml:space="preserve" text-anchor="start" x="154.75" y="-736.85" font-family="Helvetica,sans-Serif" font-size="12.00" fill="#aaaaaa">Sensor and Fire Control Range Coordination</text>
</g>
<!-- detect -->
<g id="node2" class="node">
<title>detect</title>
<polygon fill="#2d2d44" stroke="#4ecdc4" stroke-width="2" points="320.5,-692.5 227.5,-692.5 227.5,-624.75 320.5,-624.75 320.5,-692.5"/>
<text xml:space="preserve" text-anchor="start" x="239.5" y="-671.2" font-family="Helvetica Bold" font-size="14.00" fill="#4ecdc4">1. DETECT</text>
<text xml:space="preserve" text-anchor="start" x="240.62" y="-653.05" font-family="Helvetica,sans-Serif" font-size="11.00" fill="white">Active Sensor</text>
<text xml:space="preserve" text-anchor="start" x="248.88" y="-634.1" font-family="Helvetica Bold" font-size="12.00" fill="#95d5b2">180M km</text>
</g>
<!-- title&#45;&gt;detect -->
<!-- identify -->
<g id="node3" class="node">
<title>identify</title>
<polygon fill="#2d2d44" stroke="#4ecdc4" stroke-width="2" points="327.62,-579 220.38,-579 220.38,-512.75 327.62,-512.75 327.62,-579"/>
<text xml:space="preserve" text-anchor="start" x="235.75" y="-557.7" font-family="Helvetica Bold" font-size="14.00" fill="#4ecdc4">2. IDENTIFY</text>
<text xml:space="preserve" text-anchor="start" x="232.38" y="-539.55" font-family="Helvetica,sans-Serif" font-size="11.00" fill="white">Resolution Match</text>
<text xml:space="preserve" text-anchor="start" x="233.5" y="-522.5" font-family="Helvetica,sans-Serif" font-size="10.00" fill="#aaaaaa">Class/Type known</text>
</g>
<!-- detect&#45;&gt;identify -->
<g id="edge2" class="edge">
<title>detect&#45;&gt;identify</title>
<path fill="none" stroke="#4ecdc4" stroke-width="2" d="M274,-623.88C274,-623.88 274,-592.96 274,-592.96"/>
<polygon fill="#4ecdc4" stroke="#4ecdc4" stroke-width="2" points="277.5,-592.96 274,-582.96 270.5,-592.96 277.5,-592.96"/>
<text xml:space="preserve" text-anchor="start" x="274" y="-598.2" font-family="Helvetica,sans-Serif" font-size="9.00" fill="#aaaaaa">contact</text>
</g>
<!-- lock -->
<g id="node4" class="node">
<title>lock</title>
<polygon fill="#2d2d44" stroke="#ffe66d" stroke-width="2" points="332.12,-467 215.88,-467 215.88,-399.25 332.12,-399.25 332.12,-467"/>
<text xml:space="preserve" text-anchor="start" x="247" y="-445.7" font-family="Helvetica Bold" font-size="14.00" fill="#ffe66d">3. LOCK</text>
<text xml:space="preserve" text-anchor="start" x="227.88" y="-427.55" font-family="Helvetica,sans-Serif" font-size="11.00" fill="white">Missile Fire Control</text>
<text xml:space="preserve" text-anchor="start" x="248.88" y="-408.6" font-family="Helvetica Bold" font-size="12.00" fill="#95d5b2">160M km</text>
</g>
<!-- identify&#45;&gt;lock -->
<g id="edge3" class="edge">
<title>identify&#45;&gt;lock</title>
<path fill="none" stroke="#4ecdc4" stroke-width="2" d="M274,-512.05C274,-512.05 274,-480.74 274,-480.74"/>
<polygon fill="#4ecdc4" stroke="#4ecdc4" stroke-width="2" points="277.5,-480.74 274,-470.74 270.5,-480.74 277.5,-480.74"/>
<text xml:space="preserve" text-anchor="start" x="274" y="-486.2" font-family="Helvetica,sans-Serif" font-size="9.00" fill="#aaaaaa">track</text>
</g>
<!-- engage -->
<g id="node5" class="node">
<title>engage</title>
<polygon fill="#2d2d44" stroke="#ff6b6b" stroke-width="2" points="323.5,-353.5 224.5,-353.5 224.5,-285.75 323.5,-285.75 323.5,-353.5"/>
<text xml:space="preserve" text-anchor="start" x="236.5" y="-332.2" font-family="Helvetica Bold" font-size="14.00" fill="#ff6b6b">4. ENGAGE</text>
<text xml:space="preserve" text-anchor="start" x="238.75" y="-314.05" font-family="Helvetica,sans-Serif" font-size="11.00" fill="white">Missile Launch</text>
<text xml:space="preserve" text-anchor="start" x="248.88" y="-295.1" font-family="Helvetica Bold" font-size="12.00" fill="#95d5b2">140M km</text>
</g>
<!-- lock&#45;&gt;engage -->
<g id="edge4" class="edge">
<title>lock&#45;&gt;engage</title>
<path fill="none" stroke="#4ecdc4" stroke-width="2" d="M274,-398.45C274,-398.45 274,-367.5 274,-367.5"/>
<polygon fill="#4ecdc4" stroke="#4ecdc4" stroke-width="2" points="277.5,-367.5 274,-357.5 270.5,-367.5 277.5,-367.5"/>
<text xml:space="preserve" text-anchor="start" x="274" y="-372.7" font-family="Helvetica,sans-Serif" font-size="9.00" fill="#aaaaaa">fire</text>
</g>
<!-- ranges -->
<g id="node6" class="node">
<title>ranges</title>
<polygon fill="lightgrey" stroke="none" points="532,-230 16,-230 16,-146.75 532,-146.75 532,-230"/>
<text xml:space="preserve" text-anchor="start" x="82.25" y="-216.5" font-family="Helvetica,sans-Serif" font-size="10.00" fill="#aaaaaa">0 km</text>
<text xml:space="preserve" text-anchor="start" x="444" y="-216.5" font-family="Helvetica,sans-Serif" font-size="10.00" fill="#aaaaaa">200M km</text>
<text xml:space="preserve" text-anchor="start" x="73.25" y="-194.88" font-family="Helvetica,sans-Serif" font-size="10.00" fill="#4ecdc4">Sensor</text>
<polygon fill="#4ecdc4" stroke="none" points="134,-190.75 134,-206.75 414,-206.75 414,-190.75 134,-190.75"/>
<text xml:space="preserve" text-anchor="start" x="444" y="-194.88" font-family="Helvetica,sans-Serif" font-size="10.00" fill="#95d5b2">180M</text>
<text xml:space="preserve" text-anchor="start" x="82.25" y="-174.88" font-family="Helvetica,sans-Serif" font-size="10.00" fill="#ffe66d">MFC</text>
<polygon fill="#ffe66d" stroke="none" points="134,-170.75 134,-186.75 414,-186.75 414,-170.75 134,-170.75"/>
<text xml:space="preserve" text-anchor="start" x="444" y="-174.88" font-family="Helvetica,sans-Serif" font-size="10.00" fill="#95d5b2">160M</text>
<text xml:space="preserve" text-anchor="start" x="73.25" y="-154.88" font-family="Helvetica,sans-Serif" font-size="10.00" fill="#ff6b6b">Missile</text>
<polygon fill="#ff6b6b" stroke="none" points="134,-150.75 134,-166.75 414,-166.75 414,-150.75 134,-150.75"/>
<text xml:space="preserve" text-anchor="start" x="444" y="-154.88" font-family="Helvetica,sans-Serif" font-size="10.00" fill="#95d5b2">140M</text>
</g>
<!-- engage&#45;&gt;ranges -->
<!-- principles -->
<g id="node7" class="node">
<title>principles</title>
<polygon fill="lightgrey" stroke="none" points="399.62,-109.75 148.38,-109.75 148.38,0 399.62,0 399.62,-109.75"/>
<polygon fill="#2d2d44" stroke="none" points="156.38,-4 156.38,-105.75 391.62,-105.75 391.62,-4 156.38,-4"/>
<text xml:space="preserve" text-anchor="start" x="223.75" y="-88.35" font-family="Helvetica Bold" font-size="12.00" fill="white">Design Principles</text>
<text xml:space="preserve" text-anchor="start" x="162.38" y="-69.5" font-family="Helvetica,sans-Serif" font-size="10.00" fill="#95d5b2">OK</text>
<text xml:space="preserve" text-anchor="start" x="191.38" y="-69.5" font-family="Helvetica,sans-Serif" font-size="10.00" fill="white">Sensor &gt;= MFC &gt;= Missile range</text>
<text xml:space="preserve" text-anchor="start" x="162.38" y="-50.25" font-family="Helvetica,sans-Serif" font-size="10.00" fill="#ff6b6b">BAD</text>
<text xml:space="preserve" text-anchor="start" x="191.38" y="-50.25" font-family="Helvetica,sans-Serif" font-size="10.00" fill="white">MFC &gt; Sensor (lock targets you cannot see)</text>
<text xml:space="preserve" text-anchor="start" x="162.38" y="-31" font-family="Helvetica,sans-Serif" font-size="10.00" fill="#ff6b6b">BAD</text>
<text xml:space="preserve" text-anchor="start" x="191.38" y="-31" font-family="Helvetica,sans-Serif" font-size="10.00" fill="white">Missile &gt; MFC (missiles go ballistic)</text>
<text xml:space="preserve" text-anchor="start" x="162.38" y="-11.75" font-family="Helvetica,sans-Serif" font-size="10.00" fill="#ffe66d">TIP</text>
<text xml:space="preserve" text-anchor="start" x="191.38" y="-11.75" font-family="Helvetica,sans-Serif" font-size="10.00" fill="white">10&#45;20% overlap between stages</text>
</g>
<!-- ranges&#45;&gt;principles -->
</g>
</svg>
