<?xml version="1.0" encoding="UTF-8" standalone="no"?>
<!DOCTYPE svg PUBLIC "-//W3C//DTD SVG 1.1//EN"
 "http://www.w3.org/Graphics/SVG/1.1/DTD/svg11.dtd">
<!-- Generated by graphviz version 14.1.2 (20260124.0452)
 -->
<!-- Title: meson_retardation Pages: 1 -->
<svg width="338pt" height="759pt"
 viewBox="0.00 0.00 338.00 759.00" xmlns="http://www.w3.org/2000/svg" xmlns:xlink="http://www.w3.org/1999/xlink">
<g id="graph0" class="graph" transform="scale(1 1) rotate(0) translate(4 754.75)">
<title>meson_retardation</title>
<polygon fill="#1a1a2e" stroke="none" points="-4,4 -4,-754.75 334,-754.75 334,4 -4,4"/>
<g id="clust1" class="cluster">
<title>cluster_armor</title>
<polygon fill="#2d2d44" stroke="#4ecdc4" stroke-width="2" points="29,-313.75 29,-695.25 301,-695.25 301,-313.75 29,-313.75"/>
<text xml:space="preserve" text-anchor="start" x="82.12" y="-679.85" font-family="Helvetica Bold" font-size="12.00" fill="white">4&#45;Layer Armor Cross&#45;Section</text>
</g>
<g id="clust2" class="cluster">
<title>cluster_comparison</title>
<polygon fill="#2d2d44" stroke="#4ecdc4" stroke-width="2" points="8,-157 8,-305.75 322,-305.75 322,-157 8,-157"/>
<text xml:space="preserve" text-anchor="start" x="70.12" y="-290.35" font-family="Helvetica Bold" font-size="12.00" fill="white">Penetration Probability (4 Layers)</text>
</g>
<!-- title -->
<g id="node1" class="node">
<title>title</title>
<polygon fill="lightgrey" stroke="none" points="309.25,-750.75 20.75,-750.75 20.75,-703.25 309.25,-703.25 309.25,-750.75"/>
<text xml:space="preserve" text-anchor="start" x="55.12" y="-727.65" font-family="Helvetica Bold" font-size="18.00" fill="white">Meson Armor Retardation</text>
<text xml:space="preserve" text-anchor="start" x="30.75" y="-710.6" font-family="Helvetica,sans-Serif" font-size="12.00" fill="#aaaaaa">Each layer has independent chance to stop meson</text>
</g>
<!-- armor_section -->
<g id="node2" class="node">
<title>armor_section</title>
<polygon fill="lightgrey" stroke="none" points="293,-666.5 37,-666.5 37,-321.75 293,-321.75 293,-666.5"/>
<polygon fill="#1a1a2e" stroke="none" points="45,-633.25 45,-662.5 285,-662.5 285,-633.25 45,-633.25"/>
<polygon fill="none" stroke="black" points="45,-633.25 45,-662.5 285,-662.5 285,-633.25 45,-633.25"/>
<text xml:space="preserve" text-anchor="start" x="129" y="-644" font-family="Helvetica,sans-Serif" font-size="10.00" fill="#aaaaaa">Incoming Meson</text>
<polygon fill="#1a1a2e" stroke="none" points="45,-598.75 45,-633.25 285,-633.25 285,-598.75 45,-598.75"/>
<polygon fill="none" stroke="black" points="45,-598.75 45,-633.25 285,-633.25 285,-598.75 45,-598.75"/>
<text xml:space="preserve" text-anchor="start" x="162.75" y="-609.05" font-family="Helvetica,sans-Serif" font-size="16.00" fill="#4ecdc4">|</text>
<polygon fill="#1a1a2e" stroke="none" points="45,-564.25 45,-598.75 285,-598.75 285,-564.25 45,-564.25"/>
<polygon fill="none" stroke="black" points="45,-564.25 45,-598.75 285,-598.75 285,-564.25 45,-564.25"/>
<text xml:space="preserve" text-anchor="start" x="160.88" y="-574.55" font-family="Helvetica,sans-Serif" font-size="16.00" fill="#4ecdc4">v</text>
<polygon fill="#3d5a3a" stroke="none" points="45,-523.75 45,-564.25 105,-564.25 105,-523.75 45,-523.75"/>
<polygon fill="none" stroke="black" points="45,-523.75 45,-564.25 105,-564.25 105,-523.75 45,-523.75"/>
<text xml:space="preserve" text-anchor="start" x="57" y="-539.55" font-family="Helvetica,sans-Serif" font-size="11.00" fill="white">Layer 4</text>
<polygon fill="#3d5a3a" stroke="none" points="105,-523.75 105,-564.25 205,-564.25 205,-523.75 105,-523.75"/>
<polygon fill="none" stroke="black" points="105,-523.75 105,-564.25 205,-564.25 205,-523.75 105,-523.75"/>
<text xml:space="preserve" text-anchor="start" x="126.12" y="-545.75" font-family="Helvetica,sans-Serif" font-size="10.00" fill="#95d5b2">AR% chance</text>
<text xml:space="preserve" text-anchor="start" x="129.12" y="-534.5" font-family="Helvetica,sans-Serif" font-size="10.00" fill="#95d5b2">to stop here</text>
<polygon fill="#3d5a3a" stroke="none" points="205,-523.75 205,-564.25 285,-564.25 285,-523.75 205,-523.75"/>
<polygon fill="none" stroke="black" points="205,-523.75 205,-564.25 285,-564.25 285,-523.75 205,-523.75"/>
<text xml:space="preserve" text-anchor="start" x="227.38" y="-545.75" font-family="Helvetica,sans-Serif" font-size="10.00" fill="#ffe66d">1 dmg if</text>
<text xml:space="preserve" text-anchor="start" x="227.75" y="-534.5" font-family="Helvetica,sans-Serif" font-size="10.00" fill="#ffe66d">stopped</text>
<polygon fill="#4d6a4a" stroke="none" points="45,-483.25 45,-523.75 105,-523.75 105,-483.25 45,-483.25"/>
<polygon fill="none" stroke="black" points="45,-483.25 45,-523.75 105,-523.75 105,-483.25 45,-483.25"/>
<text xml:space="preserve" text-anchor="start" x="57" y="-499.05" font-family="Helvetica,sans-Serif" font-size="11.00" fill="white">Layer 3</text>
<polygon fill="#4d6a4a" stroke="none" points="105,-483.25 105,-523.75 205,-523.75 205,-483.25 105,-483.25"/>
<polygon fill="none" stroke="black" points="105,-483.25 105,-523.75 205,-523.75 205,-483.25 105,-483.25"/>
<text xml:space="preserve" text-anchor="start" x="126.12" y="-505.25" font-family="Helvetica,sans-Serif" font-size="10.00" fill="#95d5b2">AR% chance</text>
<text xml:space="preserve" text-anchor="start" x="129.12" y="-494" font-family="Helvetica,sans-Serif" font-size="10.00" fill="#95d5b2">to stop here</text>
<polygon fill="#4d6a4a" stroke="none" points="205,-483.25 205,-523.75 285,-523.75 285,-483.25 205,-483.25"/>
<polygon fill="none" stroke="black" points="205,-483.25 205,-523.75 285,-523.75 285,-483.25 205,-483.25"/>
<text xml:space="preserve" text-anchor="start" x="227.38" y="-505.25" font-family="Helvetica,sans-Serif" font-size="10.00" fill="#ffe66d">1 dmg if</text>
<text xml:space="preserve" text-anchor="start" x="227.75" y="-494" font-family="Helvetica,sans-Serif" font-size="10.00" fill="#ffe66d">stopped</text>
<polygon fill="#5d7a5a" stroke="none" points="45,-442.75 45,-483.25 105,-483.25 105,-442.75 45,-442.75"/>
<polygon fill="none" stroke="black" points="45,-442.75 45,-483.25 105,-483.25 105,-442.75 45,-442.75"/>
<text xml:space="preserve" text-anchor="start" x="57" y="-458.55" font-family="Helvetica,sans-Serif" font-size="11.00" fill="white">Layer 2</text>
<polygon fill="#5d7a5a" stroke="none" points="105,-442.75 105,-483.25 205,-483.25 205,-442.75 105,-442.75"/>
<polygon fill="none" stroke="black" points="105,-442.75 105,-483.25 205,-483.25 205,-442.75 105,-442.75"/>
<text xml:space="preserve" text-anchor="start" x="126.12" y="-464.75" font-family="Helvetica,sans-Serif" font-size="10.00" fill="#95d5b2">AR% chance</text>
<text xml:space="preserve" text-anchor="start" x="129.12" y="-453.5" font-family="Helvetica,sans-Serif" font-size="10.00" fill="#95d5b2">to stop here</text>
<polygon fill="#5d7a5a" stroke="none" points="205,-442.75 205,-483.25 285,-483.25 285,-442.75 205,-442.75"/>
<polygon fill="none" stroke="black" points="205,-442.75 205,-483.25 285,-483.25 285,-442.75 205,-442.75"/>
<text xml:space="preserve" text-anchor="start" x="227.38" y="-464.75" font-family="Helvetica,sans-Serif" font-size="10.00" fill="#ffe66d">1 dmg if</text>
<text xml:space="preserve" text-anchor="start" x="227.75" y="-453.5" font-family="Helvetica,sans-Serif" font-size="10.00" fill="#ffe66d">stopped</text>
<polygon fill="#6d8a6a" stroke="none" points="45,-402.25 45,-442.75 105,-442.75 105,-402.25 45,-402.25"/>
<polygon fill="none" stroke="black" points="45,-402.25 45,-442.75 105,-442.75 105,-402.25 45,-402.25"/>
<text xml:space="preserve" text-anchor="start" x="57" y="-418.05" font-family="Helvetica,sans-Serif" font-size="11.00" fill="white">Layer 1</text>
<polygon fill="#6d8a6a" stroke="none" points="105,-402.25 105,-442.75 205,-442.75 205,-402.25 105,-402.25"/>
<polygon fill="none" stroke="black" points="105,-402.25 105,-442.75 205,-442.75 205,-402.25 105,-402.25"/>
<text xml:space="preserve" text-anchor="start" x="126.12" y="-424.25" font-family="Helvetica,sans-Serif" font-size="10.00" fill="#95d5b2">AR% chance</text>
<text xml:space="preserve" text-anchor="start" x="129.12" y="-413" font-family="Helvetica,sans-Serif" font-size="10.00" fill="#95d5b2">to stop here</text>
<polygon fill="#6d8a6a" stroke="none" points="205,-402.25 205,-442.75 285,-442.75 285,-402.25 205,-402.25"/>
<polygon fill="none" stroke="black" points="205,-402.25 205,-442.75 285,-442.75 285,-402.25 205,-402.25"/>
<text xml:space="preserve" text-anchor="start" x="227.38" y="-424.25" font-family="Helvetica,sans-Serif" font-size="10.00" fill="#ffe66d">1 dmg if</text>
<text xml:space="preserve" text-anchor="start" x="227.75" y="-413" font-family="Helvetica,sans-Serif" font-size="10.00" fill="#ffe66d">stopped</text>
<polygon fill="#1a1a2e" stroke="none" points="45,-367.75 45,-402.25 285,-402.25 285,-367.75 45,-367.75"/>
<polygon fill="none" stroke="black" points="45,-367.75 45,-402.25 285,-402.25 285,-367.75 45,-367.75"/>
<text xml:space="preserve" text-anchor="start" x="160.88" y="-378.05" font-family="Helvetica,sans-Serif" font-size="16.00" fill="#4ecdc4">v</text>
<polygon fill="#5d2a2a" stroke="none" points="45,-325.75 45,-367.75 285,-367.75 285,-325.75 45,-325.75"/>
<polygon fill="none" stroke="black" points="45,-325.75 45,-367.75 285,-367.75 285,-325.75 45,-325.75"/>
<text xml:space="preserve" text-anchor="start" x="133.5" y="-348.3" font-family="Helvetica,sans-Serif" font-size="11.00" fill="#ff6b6b">INTERNALS</text>
<text xml:space="preserve" text-anchor="start" x="109.12" y="-336.3" font-family="Helvetica,sans-Serif" font-size="11.00" fill="#ff6b6b">(if penetrates all layers)</text>
</g>
<!-- title&#45;&gt;armor_section -->
<!-- comparison -->
<g id="node3" class="node">
<title>comparison</title>
<polygon fill="lightgrey" stroke="none" points="314.25,-277 15.75,-277 15.75,-165 314.25,-165 314.25,-277"/>
<polygon fill="#3d3d5a" stroke="none" points="23.75,-247 23.75,-273 94,-273 94,-247 23.75,-247"/>
<polygon fill="none" stroke="black" points="23.75,-247 23.75,-273 94,-273 94,-247 23.75,-247"/>
<text xml:space="preserve" text-anchor="start" x="30.75" y="-255.55" font-family="Helvetica,sans-Serif" font-size="11.00" fill="white">Meson Size</text>
<polygon fill="#3d3d5a" stroke="none" points="94,-247 94,-273 172.5,-273 172.5,-247 94,-247"/>
<polygon fill="none" stroke="black" points="94,-247 94,-273 172.5,-273 172.5,-247 94,-247"/>
<text xml:space="preserve" text-anchor="start" x="101" y="-255.55" font-family="Helvetica,sans-Serif" font-size="11.00" fill="white">AR per Layer</text>
<polygon fill="#3d3d5a" stroke="none" points="172.5,-247 172.5,-273 236.75,-273 236.75,-247 172.5,-247"/>
<polygon fill="none" stroke="black" points="172.5,-247 172.5,-273 236.75,-273 236.75,-247 172.5,-247"/>
<text xml:space="preserve" text-anchor="start" x="179.5" y="-255.55" font-family="Helvetica,sans-Serif" font-size="11.00" fill="white">Pass Rate</text>
<polygon fill="#3d3d5a" stroke="none" points="236.75,-247 236.75,-273 306.25,-273 306.25,-247 236.75,-247"/>
<polygon fill="none" stroke="black" points="236.75,-247 236.75,-273 306.25,-273 306.25,-247 236.75,-247"/>
<text xml:space="preserve" text-anchor="start" x="243.75" y="-255.55" font-family="Helvetica,sans-Serif" font-size="11.00" fill="white">Penetration</text>
<polygon fill="#2d2d44" stroke="none" points="23.75,-221 23.75,-247 94,-247 94,-221 23.75,-221"/>
<polygon fill="none" stroke="black" points="23.75,-221 23.75,-247 94,-247 94,-221 23.75,-221"/>
<text xml:space="preserve" text-anchor="start" x="45.75" y="-229.55" font-family="Helvetica,sans-Serif" font-size="11.00" fill="#ff6b6b">10cm</text>
<polygon fill="#2d2d44" stroke="none" points="94,-221 94,-247 172.5,-247 172.5,-221 94,-221"/>
<polygon fill="none" stroke="black" points="94,-221 94,-247 172.5,-247 172.5,-221 94,-221"/>
<text xml:space="preserve" text-anchor="start" x="122.38" y="-229.55" font-family="Helvetica,sans-Serif" font-size="11.00" fill="white">40%</text>
<polygon fill="#2d2d44" stroke="none" points="172.5,-221 172.5,-247 236.75,-247 236.75,-221 172.5,-221"/>
<polygon fill="none" stroke="black" points="172.5,-221 172.5,-247 236.75,-247 236.75,-221 172.5,-221"/>
<text xml:space="preserve" text-anchor="start" x="193.75" y="-229.55" font-family="Helvetica,sans-Serif" font-size="11.00" fill="white">60%</text>
<polygon fill="#5d2a2a" stroke="none" points="236.75,-221 236.75,-247 306.25,-247 306.25,-221 236.75,-221"/>
<polygon fill="none" stroke="black" points="236.75,-221 236.75,-247 306.25,-247 306.25,-221 236.75,-221"/>
<text xml:space="preserve" text-anchor="start" x="260.62" y="-229.55" font-family="Helvetica,sans-Serif" font-size="11.00" fill="#ff6b6b">13%</text>
<polygon fill="#2d2d44" stroke="none" points="23.75,-195 23.75,-221 94,-221 94,-195 23.75,-195"/>
<polygon fill="none" stroke="black" points="23.75,-195 23.75,-221 94,-221 94,-195 23.75,-195"/>
<text xml:space="preserve" text-anchor="start" x="45.75" y="-203.55" font-family="Helvetica,sans-Serif" font-size="11.00" fill="#ffe66d">20cm</text>
<polygon fill="#2d2d44" stroke="none" points="94,-195 94,-221 172.5,-221 172.5,-195 94,-195"/>
<polygon fill="none" stroke="black" points="94,-195 94,-221 172.5,-221 172.5,-195 94,-195"/>
<text xml:space="preserve" text-anchor="start" x="122.38" y="-203.55" font-family="Helvetica,sans-Serif" font-size="11.00" fill="white">20%</text>
<polygon fill="#2d2d44" stroke="none" points="172.5,-195 172.5,-221 236.75,-221 236.75,-195 172.5,-195"/>
<polygon fill="none" stroke="black" points="172.5,-195 172.5,-221 236.75,-221 236.75,-195 172.5,-195"/>
<text xml:space="preserve" text-anchor="start" x="193.75" y="-203.55" font-family="Helvetica,sans-Serif" font-size="11.00" fill="white">80%</text>
<polygon fill="#5d4a1a" stroke="none" points="236.75,-195 236.75,-221 306.25,-221 306.25,-195 236.75,-195"/>
<polygon fill="none" stroke="black" points="236.75,-195 236.75,-221 306.25,-221 306.25,-195 236.75,-195"/>
<text xml:space="preserve" text-anchor="start" x="260.62" y="-203.55" font-family="Helvetica,sans-Serif" font-size="11.00" fill="#ffe66d">41%</text>
<polygon fill="#2d2d44" stroke="none" points="23.75,-169 23.75,-195 94,-195 94,-169 23.75,-169"/>
<polygon fill="none" stroke="black" points="23.75,-169 23.75,-195 94,-195 94,-169 23.75,-169"/>
<text xml:space="preserve" text-anchor="start" x="45.75" y="-177.55" font-family="Helvetica,sans-Serif" font-size="11.00" fill="#95d5b2">30cm</text>
<polygon fill="#2d2d44" stroke="none" points="94,-169 94,-195 172.5,-195 172.5,-169 94,-169"/>
<polygon fill="none" stroke="black" points="94,-169 94,-195 172.5,-195 172.5,-169 94,-169"/>
<text xml:space="preserve" text-anchor="start" x="117.88" y="-177.55" font-family="Helvetica,sans-Serif" font-size="11.00" fill="white">12.5%</text>
<polygon fill="#2d2d44" stroke="none" points="172.5,-169 172.5,-195 236.75,-195 236.75,-169 172.5,-169"/>
<polygon fill="none" stroke="black" points="172.5,-169 172.5,-195 236.75,-195 236.75,-169 172.5,-169"/>
<text xml:space="preserve" text-anchor="start" x="189.25" y="-177.55" font-family="Helvetica,sans-Serif" font-size="11.00" fill="white">87.5%</text>
<polygon fill="#3d5a3a" stroke="none" points="236.75,-169 236.75,-195 306.25,-195 306.25,-169 236.75,-169"/>
<polygon fill="none" stroke="black" points="236.75,-169 236.75,-195 306.25,-195 306.25,-169 236.75,-169"/>
<text xml:space="preserve" text-anchor="start" x="260.62" y="-177.55" font-family="Helvetica,sans-Serif" font-size="11.00" fill="#95d5b2">59%</text>
</g>
<!-- armor_section&#45;&gt;comparison -->
<!-- notes -->
<g id="node4" class="node">
<title>notes</title>
<polygon fill="lightgrey" stroke="none" points="275.38,-129 54.62,-129 54.62,0 275.38,0 275.38,-129"/>
<polygon fill="#2d2d44" stroke="none" points="62.62,-4 62.62,-125 267.38,-125 267.38,-4 62.62,-4"/>
<text xml:space="preserve" text-anchor="start" x="121.5" y="-107.6" font-family="Helvetica Bold" font-size="12.00" fill="white">Key Mechanics</text>
<text xml:space="preserve" text-anchor="start" x="68.62" y="-88.75" font-family="Helvetica,sans-Serif" font-size="10.00" fill="#4ecdc4">Penetration = (1 &#45; AR%)^layers</text>
<text xml:space="preserve" text-anchor="start" x="68.62" y="-69.5" font-family="Helvetica,sans-Serif" font-size="10.00" fill="white">Larger mesons = lower AR = harder to stop</text>
<text xml:space="preserve" text-anchor="start" x="68.62" y="-50.25" font-family="Helvetica,sans-Serif" font-size="10.00" fill="white">More layers = more stop chances</text>
<text xml:space="preserve" text-anchor="start" x="68.62" y="-31" font-family="Helvetica,sans-Serif" font-size="10.00" fill="#ffe66d">If stopped: 1 damage to armor at hit location</text>
<text xml:space="preserve" text-anchor="start" x="68.62" y="-11.75" font-family="Helvetica,sans-Serif" font-size="10.00" fill="#ff6b6b">If penetrates: full damage to internals</text>
</g>
<!-- comparison&#45;&gt;notes -->
</g>
</svg>
