<?xml version="1.0" encoding="UTF-8" standalone="no"?>
<!DOCTYPE svg PUBLIC "-//W3C//DTD SVG 1.1//EN"
 "http://www.w3.org/Graphics/SVG/1.1/DTD/svg11.dtd">
<!-- Generated by graphviz version 14.1.2 (20260124.0452)
 -->
<!-- Title: PowerBoostRisk Pages: 1 -->
<svg width="722pt" height="868pt"
 viewBox="0.00 0.00 722.00 868.00" xmlns="http://www.w3.org/2000/svg" xmlns:xlink="http://www.w3.org/1999/xlink">
<g id="graph0" class="graph" transform="scale(1 1) rotate(0) translate(4 864.45)">
<title>PowerBoostRisk</title>
<polygon fill="#1a1a2e" stroke="none" points="-4,4 -4,-864.45 718.4,-864.45 718.4,4 -4,4"/>
<text xml:space="preserve" text-anchor="start" x="224.45" y="-842.25" font-family="Helvetica,sans-Serif" font-weight="bold" font-size="16.00" fill="white">Power Plant Boost: Risk vs Benefit</text>
<g id="clust1" class="cluster">
<title>cluster_boost_levels</title>
<path fill="#1a1a2e" stroke="#4ecdc4" d="M20,-295.7C20,-295.7 142,-295.7 142,-295.7 148,-295.7 154,-301.7 154,-307.7 154,-307.7 154,-815.95 154,-815.95 154,-821.95 148,-827.95 142,-827.95 142,-827.95 20,-827.95 20,-827.95 14,-827.95 8,-821.95 8,-815.95 8,-815.95 8,-307.7 8,-307.7 8,-301.7 14,-295.7 20,-295.7"/>
<text xml:space="preserve" text-anchor="start" x="16.12" y="-814.5" font-family="Helvetica,sans-Serif" font-weight="bold" font-size="11.00" fill="white">Boost Level Progression</text>
</g>
<g id="clust2" class="cluster">
<title>cluster_risk</title>
<path fill="#1a1a2e" stroke="#ff6b6b" d="M174,-169.6C174,-169.6 296,-169.6 296,-169.6 302,-169.6 308,-175.6 308,-181.6 308,-181.6 308,-696.98 308,-696.98 308,-702.97 302,-708.98 296,-708.98 296,-708.98 174,-708.98 174,-708.98 168,-708.98 162,-702.98 162,-696.98 162,-696.98 162,-181.6 162,-181.6 162,-175.6 168,-169.6 174,-169.6"/>
<text xml:space="preserve" text-anchor="start" x="170.12" y="-695.52" font-family="Helvetica,sans-Serif" font-weight="bold" font-size="11.00" fill="#ff6b6b">Explosion Risk When Hit</text>
</g>
<g id="clust3" class="cluster">
<title>cluster_research</title>
<path fill="#1a1a2e" stroke="#ffe66d" d="M328,-18.05C328,-18.05 424,-18.05 424,-18.05 430,-18.05 436,-24.05 436,-30.05 436,-30.05 436,-585.83 436,-585.83 436,-591.83 430,-597.83 424,-597.83 424,-597.83 328,-597.83 328,-597.83 322,-597.83 316,-591.83 316,-585.83 316,-585.83 316,-30.05 316,-30.05 316,-24.05 322,-18.05 328,-18.05"/>
<text xml:space="preserve" text-anchor="start" x="324.25" y="-584.38" font-family="Helvetica,sans-Serif" font-weight="bold" font-size="11.00" fill="#ffe66d">Research Cost (RP)</text>
</g>
<!-- boost_0 -->
<g id="node1" class="node">
<title>boost_0</title>
<path fill="#2d5a4a" stroke="#4ecdc4" stroke-width="2" d="M134.28,-799.95C134.28,-799.95 97.72,-799.95 97.72,-799.95 91.72,-799.95 85.72,-793.95 85.72,-787.95 85.72,-787.95 85.72,-759.1 85.72,-759.1 85.72,-753.1 91.72,-747.1 97.72,-747.1 97.72,-747.1 134.28,-747.1 134.28,-747.1 140.28,-747.1 146.28,-753.1 146.28,-759.1 146.28,-759.1 146.28,-787.95 146.28,-787.95 146.28,-793.95 140.28,-799.95 134.28,-799.95"/>
<text xml:space="preserve" text-anchor="start" x="102.12" y="-777.7" font-family="Helvetica,sans-Serif" font-weight="bold" font-size="11.00" fill="white">None</text>
<text xml:space="preserve" text-anchor="start" x="108.88" y="-761.65" font-family="Helvetica,sans-Serif" font-size="10.00" fill="#95d5b2">0%</text>
</g>
<!-- boost_10 -->
<g id="node2" class="node">
<title>boost_10</title>
<path fill="#2d5a4a" stroke="#4ecdc4" stroke-width="2" d="M131.28,-689.1C131.28,-689.1 100.72,-689.1 100.72,-689.1 94.72,-689.1 88.72,-683.1 88.72,-677.1 88.72,-677.1 88.72,-648.25 88.72,-648.25 88.72,-642.25 94.72,-636.25 100.72,-636.25 100.72,-636.25 131.28,-636.25 131.28,-636.25 137.28,-636.25 143.28,-642.25 143.28,-648.25 143.28,-648.25 143.28,-677.1 143.28,-677.1 143.28,-683.1 137.28,-689.1 131.28,-689.1"/>
<text xml:space="preserve" text-anchor="start" x="105.12" y="-666.85" font-family="Helvetica,sans-Serif" font-weight="bold" font-size="11.00" fill="white">Low</text>
<text xml:space="preserve" text-anchor="start" x="106.25" y="-650.8" font-family="Helvetica,sans-Serif" font-size="10.00" fill="#95d5b2">10%</text>
</g>
<!-- boost_0&#45;&gt;boost_10 -->
<!-- risk_0 -->
<g id="node6" class="node">
<title>risk_0</title>
<path fill="#2d5a4a" stroke="#4ecdc4" stroke-width="2" d="M250,-680.98C250,-680.98 220,-680.98 220,-680.98 214,-680.98 208,-674.98 208,-668.98 208,-668.98 208,-656.38 208,-656.38 208,-650.38 214,-644.38 220,-644.38 220,-644.38 250,-644.38 250,-644.38 256,-644.38 262,-650.38 262,-656.38 262,-656.38 262,-668.98 262,-668.98 262,-674.98 256,-680.98 250,-680.98"/>
<text xml:space="preserve" text-anchor="start" x="224.88" y="-657.88" font-family="Helvetica,sans-Serif" font-weight="bold" font-size="14.00" fill="#95d5b2">5%</text>
</g>
<!-- boost_0&#45;&gt;risk_0 -->
<!-- boost_30 -->
<g id="node3" class="node">
<title>boost_30</title>
<path fill="#4a4a2d" stroke="#4ecdc4" stroke-width="2" d="M134.03,-578.25C134.03,-578.25 83.97,-578.25 83.97,-578.25 77.97,-578.25 71.97,-572.25 71.97,-566.25 71.97,-566.25 71.97,-537.4 71.97,-537.4 71.97,-531.4 77.97,-525.4 83.97,-525.4 83.97,-525.4 134.03,-525.4 134.03,-525.4 140.03,-525.4 146.03,-531.4 146.03,-537.4 146.03,-537.4 146.03,-566.25 146.03,-566.25 146.03,-572.25 140.03,-578.25 134.03,-578.25"/>
<text xml:space="preserve" text-anchor="start" x="88.38" y="-556" font-family="Helvetica,sans-Serif" font-weight="bold" font-size="11.00" fill="white">Medium</text>
<text xml:space="preserve" text-anchor="start" x="99.25" y="-539.95" font-family="Helvetica,sans-Serif" font-size="10.00" fill="#ffe66d">30%</text>
</g>
<!-- boost_10&#45;&gt;boost_30 -->
<!-- risk_10 -->
<g id="node7" class="node">
<title>risk_10</title>
<path fill="#2d5a4a" stroke="#4ecdc4" stroke-width="2" d="M250,-570.12C250,-570.12 220,-570.12 220,-570.12 214,-570.12 208,-564.12 208,-558.12 208,-558.12 208,-545.53 208,-545.53 208,-539.53 214,-533.53 220,-533.53 220,-533.53 250,-533.53 250,-533.53 256,-533.53 262,-539.53 262,-545.53 262,-545.53 262,-558.12 262,-558.12 262,-564.12 256,-570.12 250,-570.12"/>
<text xml:space="preserve" text-anchor="start" x="224.88" y="-547.03" font-family="Helvetica,sans-Serif" font-weight="bold" font-size="14.00" fill="#95d5b2">7%</text>
</g>
<!-- boost_10&#45;&gt;risk_10 -->
<!-- boost_60 -->
<g id="node4" class="node">
<title>boost_60</title>
<path fill="#5a3d2d" stroke="#4ecdc4" stroke-width="2" d="M125.78,-467.4C125.78,-467.4 92.22,-467.4 92.22,-467.4 86.22,-467.4 80.22,-461.4 80.22,-455.4 80.22,-455.4 80.22,-426.55 80.22,-426.55 80.22,-420.55 86.22,-414.55 92.22,-414.55 92.22,-414.55 125.78,-414.55 125.78,-414.55 131.78,-414.55 137.78,-420.55 137.78,-426.55 137.78,-426.55 137.78,-455.4 137.78,-455.4 137.78,-461.4 131.78,-467.4 125.78,-467.4"/>
<text xml:space="preserve" text-anchor="start" x="96.62" y="-445.15" font-family="Helvetica,sans-Serif" font-weight="bold" font-size="11.00" fill="white">High</text>
<text xml:space="preserve" text-anchor="start" x="99.25" y="-429.1" font-family="Helvetica,sans-Serif" font-size="10.00" fill="#ff6b6b">60%</text>
</g>
<!-- boost_30&#45;&gt;boost_60 -->
<!-- risk_30 -->
<g id="node8" class="node">
<title>risk_30</title>
<path fill="#4a4a2d" stroke="#4ecdc4" stroke-width="2" d="M251.27,-459.28C251.27,-459.28 218.72,-459.28 218.72,-459.28 212.72,-459.28 206.72,-453.28 206.72,-447.28 206.72,-447.28 206.72,-434.68 206.72,-434.68 206.72,-428.68 212.72,-422.68 218.72,-422.68 218.72,-422.68 251.27,-422.68 251.27,-422.68 257.27,-422.68 263.27,-428.68 263.27,-434.68 263.27,-434.68 263.27,-447.28 263.27,-447.28 263.27,-453.28 257.27,-459.28 251.27,-459.28"/>
<text xml:space="preserve" text-anchor="start" x="221.12" y="-436.18" font-family="Helvetica,sans-Serif" font-weight="bold" font-size="14.00" fill="#ffe66d">15%</text>
</g>
<!-- boost_30&#45;&gt;risk_30 -->
<!-- boost_100 -->
<g id="node5" class="node">
<title>boost_100</title>
<path fill="#5a2d2d" stroke="#4ecdc4" stroke-width="2" d="M133.53,-356.55C133.53,-356.55 74.47,-356.55 74.47,-356.55 68.47,-356.55 62.48,-350.55 62.48,-344.55 62.48,-344.55 62.48,-315.7 62.48,-315.7 62.48,-309.7 68.48,-303.7 74.48,-303.7 74.48,-303.7 133.53,-303.7 133.53,-303.7 139.53,-303.7 145.53,-309.7 145.53,-315.7 145.53,-315.7 145.53,-344.55 145.53,-344.55 145.53,-350.55 139.53,-356.55 133.53,-356.55"/>
<text xml:space="preserve" text-anchor="start" x="78.88" y="-334.3" font-family="Helvetica,sans-Serif" font-weight="bold" font-size="11.00" fill="white">Maximum</text>
<text xml:space="preserve" text-anchor="start" x="91.62" y="-318.25" font-family="Helvetica,sans-Serif" font-size="10.00" fill="#ff6b6b">100%</text>
</g>
<!-- boost_60&#45;&gt;boost_100 -->
<!-- risk_60 -->
<g id="node9" class="node">
<title>risk_60</title>
<path fill="#5a3d2d" stroke="#4ecdc4" stroke-width="2" d="M251.27,-348.43C251.27,-348.43 218.72,-348.43 218.72,-348.43 212.72,-348.43 206.72,-342.43 206.72,-336.43 206.72,-336.43 206.72,-323.82 206.72,-323.82 206.72,-317.82 212.72,-311.82 218.72,-311.82 218.72,-311.82 251.27,-311.82 251.27,-311.82 257.27,-311.82 263.27,-317.82 263.27,-323.82 263.27,-323.82 263.27,-336.43 263.27,-336.43 263.27,-342.43 257.27,-348.43 251.27,-348.43"/>
<text xml:space="preserve" text-anchor="start" x="221.12" y="-325.32" font-family="Helvetica,sans-Serif" font-weight="bold" font-size="14.00" fill="#ff6b6b">30%</text>
</g>
<!-- boost_60&#45;&gt;risk_60 -->
<!-- risk_100 -->
<g id="node10" class="node">
<title>risk_100</title>
<path fill="#5a2d2d" stroke="#4ecdc4" stroke-width="2" d="M251.27,-214.2C251.27,-214.2 218.72,-214.2 218.72,-214.2 212.72,-214.2 206.72,-208.2 206.72,-202.2 206.72,-202.2 206.72,-189.6 206.72,-189.6 206.72,-183.6 212.72,-177.6 218.72,-177.6 218.72,-177.6 251.27,-177.6 251.27,-177.6 257.27,-177.6 263.27,-183.6 263.27,-189.6 263.27,-189.6 263.27,-202.2 263.27,-202.2 263.27,-208.2 257.27,-214.2 251.27,-214.2"/>
<text xml:space="preserve" text-anchor="start" x="221.12" y="-191.1" font-family="Helvetica,sans-Serif" font-weight="bold" font-size="14.00" fill="#ff6b6b">50%</text>
</g>
<!-- boost_100&#45;&gt;risk_100 -->
<!-- risk_0&#45;&gt;risk_10 -->
<!-- rp_0 -->
<g id="node11" class="node">
<title>rp_0</title>
<path fill="#2d4a5a" stroke="#4ecdc4" stroke-width="2" d="M366,-569.83C366,-569.83 336,-569.83 336,-569.83 330,-569.83 324,-563.83 324,-557.83 324,-557.83 324,-545.83 324,-545.83 324,-539.83 330,-533.83 336,-533.83 336,-533.83 366,-533.83 366,-533.83 372,-533.83 378,-539.83 378,-545.83 378,-545.83 378,-557.83 378,-557.83 378,-563.83 372,-569.83 366,-569.83"/>
<text xml:space="preserve" text-anchor="start" x="342" y="-548.38" font-family="Helvetica,sans-Serif" font-weight="bold" font-size="11.00" fill="white">250</text>
</g>
<!-- risk_0&#45;&gt;rp_0 -->
<!-- risk_10&#45;&gt;risk_30 -->
<!-- rp_10 -->
<g id="node12" class="node">
<title>rp_10</title>
<path fill="#2d4a5a" stroke="#4ecdc4" stroke-width="2" d="M366,-458.98C366,-458.98 336,-458.98 336,-458.98 330,-458.98 324,-452.98 324,-446.98 324,-446.98 324,-434.98 324,-434.98 324,-428.98 330,-422.98 336,-422.98 336,-422.98 366,-422.98 366,-422.98 372,-422.98 378,-428.98 378,-434.98 378,-434.98 378,-446.98 378,-446.98 378,-452.98 372,-458.98 366,-458.98"/>
<text xml:space="preserve" text-anchor="start" x="342" y="-437.53" font-family="Helvetica,sans-Serif" font-weight="bold" font-size="11.00" fill="white">500</text>
</g>
<!-- risk_10&#45;&gt;rp_10 -->
<!-- risk_30&#45;&gt;risk_60 -->
<!-- rp_30 -->
<g id="node13" class="node">
<title>rp_30</title>
<path fill="#3d4a5a" stroke="#4ecdc4" stroke-width="2" d="M367.9,-348.12C367.9,-348.12 336.1,-348.12 336.1,-348.12 330.1,-348.12 324.1,-342.12 324.1,-336.12 324.1,-336.12 324.1,-324.12 324.1,-324.12 324.1,-318.12 330.1,-312.12 336.1,-312.12 336.1,-312.12 367.9,-312.12 367.9,-312.12 373.9,-312.12 379.9,-318.12 379.9,-324.12 379.9,-324.12 379.9,-336.12 379.9,-336.12 379.9,-342.12 373.9,-348.12 367.9,-348.12"/>
<text xml:space="preserve" text-anchor="start" x="338.5" y="-326.68" font-family="Helvetica,sans-Serif" font-weight="bold" font-size="11.00" fill="white">2,000</text>
</g>
<!-- risk_30&#45;&gt;rp_30 -->
<!-- risk_60&#45;&gt;risk_100 -->
<!-- rp_60 -->
<g id="node14" class="node">
<title>rp_60</title>
<path fill="#4a4a5a" stroke="#4ecdc4" stroke-width="2" d="M368.9,-213.9C368.9,-213.9 337.1,-213.9 337.1,-213.9 331.1,-213.9 325.1,-207.9 325.1,-201.9 325.1,-201.9 325.1,-189.9 325.1,-189.9 325.1,-183.9 331.1,-177.9 337.1,-177.9 337.1,-177.9 368.9,-177.9 368.9,-177.9 374.9,-177.9 380.9,-183.9 380.9,-189.9 380.9,-189.9 380.9,-201.9 380.9,-201.9 380.9,-207.9 374.9,-213.9 368.9,-213.9"/>
<text xml:space="preserve" text-anchor="start" x="339.5" y="-192.45" font-family="Helvetica,sans-Serif" font-weight="bold" font-size="11.00" fill="white">8,000</text>
</g>
<!-- risk_60&#45;&gt;rp_60 -->
<!-- rp_100 -->
<g id="node15" class="node">
<title>rp_100</title>
<path fill="#5a4a5a" stroke="#4ecdc4" stroke-width="2" d="M373.9,-62.05C373.9,-62.05 336.1,-62.05 336.1,-62.05 330.1,-62.05 324.1,-56.05 324.1,-50.05 324.1,-50.05 324.1,-38.05 324.1,-38.05 324.1,-32.05 330.1,-26.05 336.1,-26.05 336.1,-26.05 373.9,-26.05 373.9,-26.05 379.9,-26.05 385.9,-32.05 385.9,-38.05 385.9,-38.05 385.9,-50.05 385.9,-50.05 385.9,-56.05 379.9,-62.05 373.9,-62.05"/>
<text xml:space="preserve" text-anchor="start" x="338.5" y="-40.6" font-family="Helvetica,sans-Serif" font-weight="bold" font-size="11.00" fill="white">30,000</text>
</g>
<!-- risk_100&#45;&gt;rp_100 -->
<!-- rp_0&#45;&gt;rp_10 -->
<!-- rp_10&#45;&gt;rp_30 -->
<!-- rp_30&#45;&gt;rp_60 -->
<!-- analysis -->
<g id="node16" class="node">
<title>analysis</title>
<polygon fill="#3d3d54" stroke="#4ecdc4" stroke-width="2" points="708.4,-245.7 443.6,-245.7 443.6,-146.1 714.4,-146.1 714.4,-239.7 708.4,-245.7"/>
<polyline fill="none" stroke="#4ecdc4" stroke-width="2" points="708.4,-245.7 708.4,-239.7"/>
<polyline fill="none" stroke="#4ecdc4" stroke-width="2" points="714.4,-239.7 708.4,-239.7"/>
<text xml:space="preserve" text-anchor="start" x="517.12" y="-218.5" font-family="Helvetica,sans-Serif" font-weight="bold" font-size="12.00" fill="#ffe66d">Cost&#45;Benefit Analysis</text>
<text xml:space="preserve" text-anchor="start" x="464" y="-199.6" font-family="Helvetica,sans-Serif" font-size="9.00" fill="#95d5b2">Sweet Spot:</text>
<text xml:space="preserve" text-anchor="start" x="523" y="-199.6" font-family="Helvetica,sans-Serif" font-size="9.00" fill="white">10&#45;20% boost (low risk, easy research)</text>
<text xml:space="preserve" text-anchor="start" x="464" y="-181.85" font-family="Helvetica,sans-Serif" font-size="9.00" fill="#ffe66d">Diminishing:</text>
<text xml:space="preserve" text-anchor="start" x="523" y="-181.85" font-family="Helvetica,sans-Serif" font-size="9.00" fill="white">30&#45;40% boost (risk doubles, power +30%)</text>
<text xml:space="preserve" text-anchor="start" x="464" y="-164.1" font-family="Helvetica,sans-Serif" font-size="9.00" fill="#ff6b6b">Dangerous:</text>
<text xml:space="preserve" text-anchor="start" x="523" y="-164.1" font-family="Helvetica,sans-Serif" font-size="9.00" fill="white">60%+ boost (1 in 3 hits = explosion)</text>
</g>
<!-- rp_30&#45;&gt;analysis -->
<!-- rp_60&#45;&gt;rp_100 -->
<!-- warning -->
<g id="node17" class="node">
<title>warning</title>
<polygon fill="#4a2d2d" stroke="#ff6b6b" stroke-width="2" points="619.77,-88.1 444.23,-88.1 444.23,0 625.77,0 625.77,-82.1 619.77,-88.1"/>
<polyline fill="none" stroke="#ff6b6b" stroke-width="2" points="619.77,-88.1 619.77,-82.1"/>
<polyline fill="none" stroke="#ff6b6b" stroke-width="2" points="625.77,-82.1 619.77,-82.1"/>
<text xml:space="preserve" text-anchor="start" x="508.38" y="-63.85" font-family="Helvetica,sans-Serif" font-weight="bold" font-size="11.00" fill="#ff6b6b">WARNING</text>
<text xml:space="preserve" text-anchor="start" x="478.75" y="-46.75" font-family="Helvetica,sans-Serif" font-size="9.00" fill="white">100% boost gives 2x power</text>
<text xml:space="preserve" text-anchor="start" x="464.5" y="-31" font-family="Helvetica,sans-Serif" font-size="9.00" fill="white">but 10x explosion risk (5% to 50%)</text>
<text xml:space="preserve" text-anchor="start" x="462.62" y="-16.2" font-family="Helvetica,sans-Serif" font-size="8.00" fill="#95d5b2">Consider: 2 unboosted reactors instead?</text>
</g>
<!-- rp_60&#45;&gt;warning -->
</g>
</svg>
