<?xml version="1.0" encoding="UTF-8" standalone="no"?>
<!DOCTYPE svg PUBLIC "-//W3C//DTD SVG 1.1//EN"
 "http://www.w3.org/Graphics/SVG/1.1/DTD/svg11.dtd">
<!-- Generated by graphviz version 14.1.2 (20260124.0452)
 -->
<!-- Title: SortieCycle Pages: 1 -->
<svg width="1519pt" height="372pt"
 viewBox="0.00 0.00 1519.00 372.00" xmlns="http://www.w3.org/2000/svg" xmlns:xlink="http://www.w3.org/1999/xlink">
<g id="graph0" class="graph" transform="scale(1 1) rotate(0) translate(4 367.5)">
<title>SortieCycle</title>
<polygon fill="#1a1a2e" stroke="none" points="-4,4 -4,-367.5 1514.9,-367.5 1514.9,4 -4,4"/>
<text xml:space="preserve" text-anchor="start" x="681.2" y="-345.3" font-family="Helvetica,sans-Serif" font-weight="bold" font-size="16.00" fill="white">Carrier Sortie Cycle</text>
<g id="clust1" class="cluster">
<title>cluster_cycle</title>
</g>
<g id="clust2" class="cluster">
<title>cluster_legend</title>
<path fill="#1a1a2e" stroke="#4ecdc4" d="M20,-257C20,-257 468.9,-257 468.9,-257 474.9,-257 480.9,-263 480.9,-269 480.9,-269 480.9,-319 480.9,-319 480.9,-325 474.9,-331 468.9,-331 468.9,-331 20,-331 20,-331 14,-331 8,-325 8,-319 8,-319 8,-269 8,-269 8,-263 14,-257 20,-257"/>
<text xml:space="preserve" text-anchor="start" x="195.32" y="-318.5" font-family="Helvetica,sans-Serif" font-weight="bold" font-size="10.00" fill="white">Duration Bottlenecks</text>
</g>
<!-- ready -->
<g id="node1" class="node">
<title>ready</title>
<path fill="#2d5a4a" stroke="#4ecdc4" stroke-width="2" d="M157.95,-206.65C157.95,-206.65 68.75,-206.65 68.75,-206.65 62.75,-206.65 56.75,-200.65 56.75,-194.65 56.75,-194.65 56.75,-159.35 56.75,-159.35 56.75,-153.35 62.75,-147.35 68.75,-147.35 68.75,-147.35 157.95,-147.35 157.95,-147.35 163.95,-147.35 169.95,-153.35 169.95,-159.35 169.95,-159.35 169.95,-194.65 169.95,-194.65 169.95,-200.65 163.95,-206.65 157.95,-206.65"/>
<text xml:space="preserve" text-anchor="start" x="91.6" y="-179.85" font-family="Helvetica,sans-Serif" font-weight="bold" font-size="12.00" fill="white">READY</text>
<text xml:space="preserve" text-anchor="start" x="80.35" y="-164.95" font-family="Helvetica,sans-Serif" font-size="9.00" fill="#95d5b2">Armed &amp; Fueled</text>
</g>
<!-- launch -->
<g id="node2" class="node">
<title>launch</title>
<path fill="#2d2d44" stroke="#4ecdc4" stroke-width="2" d="M429.52,-119.65C429.52,-119.65 341.07,-119.65 341.07,-119.65 335.07,-119.65 329.07,-113.65 329.07,-107.65 329.07,-107.65 329.07,-72.35 329.07,-72.35 329.07,-66.35 335.07,-60.35 341.07,-60.35 341.07,-60.35 429.52,-60.35 429.52,-60.35 435.52,-60.35 441.52,-66.35 441.52,-72.35 441.52,-72.35 441.52,-107.65 441.52,-107.65 441.52,-113.65 435.52,-119.65 429.52,-119.65"/>
<text xml:space="preserve" text-anchor="start" x="352.67" y="-92.85" font-family="Helvetica,sans-Serif" font-weight="bold" font-size="12.00" fill="white">1. LAUNCH</text>
<text xml:space="preserve" text-anchor="start" x="357.55" y="-77.95" font-family="Helvetica,sans-Serif" font-size="9.00" fill="#ffe66d">5&#45;30 seconds</text>
</g>
<!-- ready&#45;&gt;launch -->
<g id="edge1" class="edge">
<title>ready&#45;&gt;launch</title>
<path fill="none" stroke="#4ecdc4" stroke-width="2" d="M170.94,-154.28C250.65,-154.28 384.9,-154.28 384.9,-154.28 384.9,-154.28 384.9,-131.66 384.9,-131.66"/>
<polygon fill="#4ecdc4" stroke="#4ecdc4" stroke-width="2" points="387.7,-131.66 384.9,-123.66 382.1,-131.66 387.7,-131.66"/>
</g>
<!-- transit_out -->
<g id="node3" class="node">
<title>transit_out</title>
<path fill="#2d2d44" stroke="#4ecdc4" stroke-width="2" d="M664.1,-111.15C664.1,-111.15 571.9,-111.15 571.9,-111.15 565.9,-111.15 559.9,-105.15 559.9,-99.15 559.9,-99.15 559.9,-50.85 559.9,-50.85 559.9,-44.85 565.9,-38.85 571.9,-38.85 571.9,-38.85 664.1,-38.85 664.1,-38.85 670.1,-38.85 676.1,-44.85 676.1,-50.85 676.1,-50.85 676.1,-99.15 676.1,-99.15 676.1,-105.15 670.1,-111.15 664.1,-111.15"/>
<text xml:space="preserve" text-anchor="start" x="585" y="-84.35" font-family="Helvetica,sans-Serif" font-weight="bold" font-size="12.00" fill="white">2. TRANSIT</text>
<text xml:space="preserve" text-anchor="start" x="601.12" y="-69.45" font-family="Helvetica,sans-Serif" font-size="9.00" fill="#ffe66d">Variable</text>
<text xml:space="preserve" text-anchor="start" x="583.5" y="-56.65" font-family="Helvetica,sans-Serif" font-size="8.00" fill="#95d5b2">(speed&#45;dependent)</text>
</g>
<!-- launch&#45;&gt;transit_out -->
<g id="edge2" class="edge">
<title>launch&#45;&gt;transit_out</title>
<path fill="none" stroke="#4ecdc4" stroke-width="2" d="M442.52,-85.75C442.52,-85.75 547.94,-85.75 547.94,-85.75"/>
<polygon fill="#4ecdc4" stroke="#4ecdc4" stroke-width="2" points="547.94,-88.55 555.94,-85.75 547.94,-82.95 547.94,-88.55"/>
</g>
<!-- engage -->
<g id="node4" class="node">
<title>engage</title>
<path fill="#4a2d2d" stroke="#4ecdc4" stroke-width="2" d="M863.55,-75.65C863.55,-75.65 775.1,-75.65 775.1,-75.65 769.1,-75.65 763.1,-69.65 763.1,-63.65 763.1,-63.65 763.1,-28.35 763.1,-28.35 763.1,-22.35 769.1,-16.35 775.1,-16.35 775.1,-16.35 863.55,-16.35 863.55,-16.35 869.55,-16.35 875.55,-22.35 875.55,-28.35 875.55,-28.35 875.55,-63.65 875.55,-63.65 875.55,-69.65 869.55,-75.65 863.55,-75.65"/>
<text xml:space="preserve" text-anchor="start" x="786.7" y="-48.85" font-family="Helvetica,sans-Serif" font-weight="bold" font-size="12.00" fill="white">3. ENGAGE</text>
<text xml:space="preserve" text-anchor="start" x="803.2" y="-33.95" font-family="Helvetica,sans-Serif" font-size="9.00" fill="#ff6b6b">Combat</text>
</g>
<!-- transit_out&#45;&gt;engage -->
<g id="edge3" class="edge">
<title>transit_out&#45;&gt;engage</title>
<path fill="none" stroke="#4ecdc4" stroke-width="2" d="M677.04,-57.25C677.04,-57.25 751.33,-57.25 751.33,-57.25"/>
<polygon fill="#4ecdc4" stroke="#4ecdc4" stroke-width="2" points="751.33,-60.05 759.33,-57.25 751.33,-54.45 751.33,-60.05"/>
</g>
<!-- transit_back -->
<g id="node5" class="node">
<title>transit_back</title>
<path fill="#2d2d44" stroke="#4ecdc4" stroke-width="2" d="M1066.75,-111.15C1066.75,-111.15 974.55,-111.15 974.55,-111.15 968.55,-111.15 962.55,-105.15 962.55,-99.15 962.55,-99.15 962.55,-50.85 962.55,-50.85 962.55,-44.85 968.55,-38.85 974.55,-38.85 974.55,-38.85 1066.75,-38.85 1066.75,-38.85 1072.75,-38.85 1078.75,-44.85 1078.75,-50.85 1078.75,-50.85 1078.75,-99.15 1078.75,-99.15 1078.75,-105.15 1072.75,-111.15 1066.75,-111.15"/>
<text xml:space="preserve" text-anchor="start" x="988.4" y="-84.35" font-family="Helvetica,sans-Serif" font-weight="bold" font-size="12.00" fill="white">4. RETURN</text>
<text xml:space="preserve" text-anchor="start" x="1003.77" y="-69.45" font-family="Helvetica,sans-Serif" font-size="9.00" fill="#ffe66d">Variable</text>
<text xml:space="preserve" text-anchor="start" x="986.15" y="-56.65" font-family="Helvetica,sans-Serif" font-size="8.00" fill="#95d5b2">(speed&#45;dependent)</text>
</g>
<!-- engage&#45;&gt;transit_back -->
<g id="edge4" class="edge">
<title>engage&#45;&gt;transit_back</title>
<path fill="none" stroke="#4ecdc4" stroke-width="2" d="M876.48,-57.25C876.48,-57.25 950.57,-57.25 950.57,-57.25"/>
<polygon fill="#4ecdc4" stroke="#4ecdc4" stroke-width="2" points="950.57,-60.05 958.57,-57.25 950.57,-54.45 950.57,-60.05"/>
</g>
<!-- recovery -->
<g id="node6" class="node">
<title>recovery</title>
<path fill="#2d2d44" stroke="#4ecdc4" stroke-width="2" d="M1281.2,-118.65C1281.2,-118.65 1177.75,-118.65 1177.75,-118.65 1171.75,-118.65 1165.75,-112.65 1165.75,-106.65 1165.75,-106.65 1165.75,-71.35 1165.75,-71.35 1165.75,-65.35 1171.75,-59.35 1177.75,-59.35 1177.75,-59.35 1281.2,-59.35 1281.2,-59.35 1287.2,-59.35 1293.2,-65.35 1293.2,-71.35 1293.2,-71.35 1293.2,-106.65 1293.2,-106.65 1293.2,-112.65 1287.2,-118.65 1281.2,-118.65"/>
<text xml:space="preserve" text-anchor="start" x="1189.35" y="-91.85" font-family="Helvetica,sans-Serif" font-weight="bold" font-size="12.00" fill="white">5. RECOVERY</text>
<text xml:space="preserve" text-anchor="start" x="1201.72" y="-76.95" font-family="Helvetica,sans-Serif" font-size="9.00" fill="#ffe66d">5&#45;30 seconds</text>
</g>
<!-- transit_back&#45;&gt;recovery -->
<g id="edge5" class="edge">
<title>transit_back&#45;&gt;recovery</title>
<path fill="none" stroke="#4ecdc4" stroke-width="2" d="M1079.65,-85.25C1079.65,-85.25 1153.73,-85.25 1153.73,-85.25"/>
<polygon fill="#4ecdc4" stroke="#4ecdc4" stroke-width="2" points="1153.73,-88.05 1161.73,-85.25 1153.73,-82.45 1153.73,-88.05"/>
</g>
<!-- rearm -->
<g id="node7" class="node">
<title>rearm</title>
<path fill="#2d2d44" stroke="#4ecdc4" stroke-width="2" d="M1482.9,-168.15C1482.9,-168.15 1392.2,-168.15 1392.2,-168.15 1386.2,-168.15 1380.2,-162.15 1380.2,-156.15 1380.2,-156.15 1380.2,-107.85 1380.2,-107.85 1380.2,-101.85 1386.2,-95.85 1392.2,-95.85 1392.2,-95.85 1482.9,-95.85 1482.9,-95.85 1488.9,-95.85 1494.9,-101.85 1494.9,-107.85 1494.9,-107.85 1494.9,-156.15 1494.9,-156.15 1494.9,-162.15 1488.9,-168.15 1482.9,-168.15"/>
<text xml:space="preserve" text-anchor="start" x="1408.67" y="-141.35" font-family="Helvetica,sans-Serif" font-weight="bold" font-size="12.00" fill="white">6. REARM</text>
<text xml:space="preserve" text-anchor="start" x="1403.8" y="-126.45" font-family="Helvetica,sans-Serif" font-size="9.00" fill="#ffe66d">Minutes to hours</text>
<text xml:space="preserve" text-anchor="start" x="1406.8" y="-113.65" font-family="Helvetica,sans-Serif" font-size="8.00" fill="#95d5b2">(ordnance + fuel)</text>
</g>
<!-- recovery&#45;&gt;rearm -->
<g id="edge6" class="edge">
<title>recovery&#45;&gt;rearm</title>
<path fill="none" stroke="#4ecdc4" stroke-width="2" d="M1294.17,-107.25C1294.17,-107.25 1368.23,-107.25 1368.23,-107.25"/>
<polygon fill="#4ecdc4" stroke="#4ecdc4" stroke-width="2" points="1368.23,-110.05 1376.23,-107.25 1368.23,-104.45 1368.23,-110.05"/>
</g>
<!-- rearm&#45;&gt;ready -->
<g id="edge7" class="edge">
<title>rearm&#45;&gt;ready</title>
<path fill="none" stroke="#4ecdc4" stroke-width="2" d="M1379.37,-161.22C1379.37,-161.22 181.62,-161.22 181.62,-161.22"/>
<polygon fill="#4ecdc4" stroke="#4ecdc4" stroke-width="2" points="181.62,-158.42 173.62,-161.22 181.62,-164.02 181.62,-158.42"/>
<text xml:space="preserve" text-anchor="middle" x="819.32" y="-202.95" font-family="Helvetica,sans-Serif" font-size="9.00" fill="#4ecdc4">Cycle</text>
<text xml:space="preserve" text-anchor="middle" x="819.32" y="-193.2" font-family="Helvetica,sans-Serif" font-size="9.00" fill="#4ecdc4">Repeats</text>
</g>
<!-- legend_transit -->
<g id="node8" class="node">
<title>legend_transit</title>
<polygon fill="#2d2d44" stroke="#4ecdc4" stroke-width="2" points="204.7,-303.27 16,-303.27 16,-264.73 210.7,-264.73 210.7,-297.27 204.7,-303.27"/>
<polyline fill="none" stroke="#4ecdc4" stroke-width="2" points="204.7,-303.27 204.7,-297.27"/>
<polyline fill="none" stroke="#4ecdc4" stroke-width="2" points="210.7,-297.27 204.7,-297.27"/>
<text xml:space="preserve" text-anchor="start" x="37.6" y="-280.32" font-family="Helvetica,sans-Serif" font-size="9.00" fill="white">Transit time = distance / fighter speed</text>
</g>
<!-- legend_rearm -->
<g id="node9" class="node">
<title>legend_rearm</title>
<polygon fill="#2d2d44" stroke="#4ecdc4" stroke-width="2" points="466.9,-303.27 297.7,-303.27 297.7,-264.73 472.9,-264.73 472.9,-297.27 466.9,-303.27"/>
<polyline fill="none" stroke="#4ecdc4" stroke-width="2" points="466.9,-303.27 466.9,-297.27"/>
<polyline fill="none" stroke="#4ecdc4" stroke-width="2" points="472.9,-297.27 466.9,-297.27"/>
<text xml:space="preserve" text-anchor="start" x="319.3" y="-280.32" font-family="Helvetica,sans-Serif" font-size="9.00" fill="white">Rearm time = Carrier Ops bonus</text>
</g>
<!-- legend_transit&#45;&gt;legend_rearm -->
</g>
</svg>
