<?xml version="1.0" encoding="UTF-8" standalone="no"?>
<!DOCTYPE svg PUBLIC "-//W3C//DTD SVG 1.1//EN"
 "http://www.w3.org/Graphics/SVG/1.1/DTD/svg11.dtd">
<!-- Generated by graphviz version 14.1.2 (20260124.0452)
 -->
<!-- Title: AccessibilityDecay Pages: 1 -->
<svg width="1776pt" height="669pt"
 viewBox="0.00 0.00 1776.00 669.00" xmlns="http://www.w3.org/2000/svg" xmlns:xlink="http://www.w3.org/1999/xlink">
<g id="graph0" class="graph" transform="scale(1 1) rotate(0) translate(4 665.25)">
<title>AccessibilityDecay</title>
<polygon fill="#1a1a2e" stroke="none" points="-4,4 -4,-665.25 1772,-665.25 1772,4 -4,4"/>
<g id="clust1" class="cluster">
<title>cluster_phases</title>
<polygon fill="#1a1a2e" stroke="#666666" stroke-dasharray="5,2" points="8,-8 8,-486 346,-486 346,-8 8,-8"/>
<text xml:space="preserve" text-anchor="middle" x="177" y="-468.7" font-family="Helvetica,sans-Serif" font-size="14.00" fill="#888888">Mining Phases</text>
</g>
<g id="clust2" class="cluster">
<title>cluster_example</title>
<polygon fill="#1a1a2e" stroke="#4ecdc4" stroke-dasharray="5,2" points="360,-267.88 360,-623.25 695,-623.25 695,-267.88 360,-267.88"/>
<text xml:space="preserve" text-anchor="middle" x="527.5" y="-605.95" font-family="Helvetica,sans-Serif" font-size="14.00" fill="#4ecdc4">Example: 10 Mines at Base Tech (10 tons/mine/year)</text>
</g>
<g id="clust3" class="cluster">
<title>cluster_implications</title>
<polygon fill="#1a1a2e" stroke="#666666" stroke-dasharray="5,2" points="703,-547.62 703,-622.62 1504,-622.62 1504,-547.62 703,-547.62"/>
<text xml:space="preserve" text-anchor="middle" x="1103.5" y="-605.33" font-family="Helvetica,sans-Serif" font-size="14.00" fill="#888888">Strategic Implications</text>
</g>
<g id="clust4" class="cluster">
<title>cluster_curve</title>
<polygon fill="#1a1a2e" stroke="#666666" stroke-dasharray="5,2" points="1524,-517 1524,-653.25 1760,-653.25 1760,-517 1524,-517"/>
<text xml:space="preserve" text-anchor="middle" x="1642" y="-635.95" font-family="Helvetica,sans-Serif" font-size="14.00" fill="#888888">Accessibility vs Depletion</text>
</g>
<!-- title -->
<g id="node1" class="node">
<title>title</title>
<path fill="#2d2d44" stroke="none" d="M262.62,-592.62C262.62,-592.62 91.38,-592.62 91.38,-592.62 85.38,-592.62 79.38,-586.62 79.38,-580.62 79.38,-580.62 79.38,-566.62 79.38,-566.62 79.38,-560.62 85.38,-554.62 91.38,-554.62 91.38,-554.62 262.62,-554.62 262.62,-554.62 268.62,-554.62 274.62,-560.62 274.62,-566.62 274.62,-566.62 274.62,-580.62 274.62,-580.62 274.62,-586.62 268.62,-592.62 262.62,-592.62"/>
<text xml:space="preserve" text-anchor="middle" x="177" y="-575.33" font-family="Helvetica,sans-Serif" font-size="14.00" fill="#4ecdc4">Accessibility Decay Curve</text>
<text xml:space="preserve" text-anchor="middle" x="177" y="-560.33" font-family="Helvetica,sans-Serif" font-size="14.00" fill="#4ecdc4">(Mining Efficiency Over Time)</text>
</g>
<!-- phase1 -->
<g id="node2" class="node">
<title>phase1</title>
<path fill="#95d5b2" stroke="#4ecdc4" d="M255.88,-455C255.88,-455 98.12,-455 98.12,-455 92.12,-455 86.12,-449 86.12,-443 86.12,-443 86.12,-402 86.12,-402 86.12,-396 92.12,-390 98.12,-390 98.12,-390 255.88,-390 255.88,-390 261.88,-390 267.88,-396 267.88,-402 267.88,-402 267.88,-443 267.88,-443 267.88,-449 261.88,-455 255.88,-455"/>
<text xml:space="preserve" text-anchor="middle" x="177" y="-441.5" font-family="Helvetica,sans-Serif" font-size="10.00" fill="#1a1a2e">Phase 1: 0&#45;50% Mined</text>
<text xml:space="preserve" text-anchor="middle" x="177" y="-418.25" font-family="Helvetica,sans-Serif" font-size="10.00" fill="#1a1a2e">Accessibility: STABLE at initial value</text>
<text xml:space="preserve" text-anchor="middle" x="177" y="-407" font-family="Helvetica,sans-Serif" font-size="10.00" fill="#1a1a2e">Full efficiency extraction</text>
<text xml:space="preserve" text-anchor="middle" x="177" y="-395.75" font-family="Helvetica,sans-Serif" font-size="10.00" fill="#1a1a2e">Output = Mines x Tech x Accessibility</text>
</g>
<!-- title&#45;&gt;phase1 -->
<!-- threshold -->
<g id="node3" class="node">
<title>threshold</title>
<path fill="#ffe66d" stroke="#4ecdc4" d="M165.4,-333.93C165.4,-333.93 27.85,-297.57 27.85,-297.57 22.05,-296.03 22.05,-292.97 27.85,-291.43 27.85,-291.43 165.4,-255.07 165.4,-255.07 171.2,-253.53 182.8,-253.53 188.6,-255.07 188.6,-255.07 326.15,-291.43 326.15,-291.43 331.95,-292.97 331.95,-296.03 326.15,-297.57 326.15,-297.57 188.6,-333.93 188.6,-333.93 182.8,-335.47 171.2,-335.47 165.4,-333.93"/>
<text xml:space="preserve" text-anchor="middle" x="177" y="-302.25" font-family="Helvetica,sans-Serif" font-size="10.00" fill="#1a1a2e">50% DEPLETION THRESHOLD</text>
<text xml:space="preserve" text-anchor="middle" x="177" y="-279" font-family="Helvetica,sans-Serif" font-size="10.00" fill="#1a1a2e">Accessibility begins declining</text>
</g>
<!-- phase1&#45;&gt;threshold -->
<g id="edge1" class="edge">
<title>phase1&#45;&gt;threshold</title>
<path fill="none" stroke="#95d5b2" stroke-width="2" d="M177,-389.7C177,-376.79 177,-361.54 177,-347.11"/>
<polygon fill="#95d5b2" stroke="#95d5b2" stroke-width="2" points="179.45,-347.32 177,-340.32 174.55,-347.32 179.45,-347.32"/>
<text xml:space="preserve" text-anchor="middle" x="196.12" y="-360.4" font-family="Helvetica,sans-Serif" font-size="8.00" fill="#888888">Half mined</text>
</g>
<!-- phase2 -->
<g id="node4" class="node">
<title>phase2</title>
<path fill="#ff6b6b" stroke="#4ecdc4" d="M255.88,-199C255.88,-199 98.12,-199 98.12,-199 92.12,-199 86.12,-193 86.12,-187 86.12,-187 86.12,-146 86.12,-146 86.12,-140 92.12,-134 98.12,-134 98.12,-134 255.88,-134 255.88,-134 261.88,-134 267.88,-140 267.88,-146 267.88,-146 267.88,-187 267.88,-187 267.88,-193 261.88,-199 255.88,-199"/>
<text xml:space="preserve" text-anchor="middle" x="177" y="-185.5" font-family="Helvetica,sans-Serif" font-size="10.00" fill="white">Phase 2: 50&#45;100% Mined</text>
<text xml:space="preserve" text-anchor="middle" x="177" y="-162.25" font-family="Helvetica,sans-Serif" font-size="10.00" fill="white">Accessibility: DECLINING toward 0.1</text>
<text xml:space="preserve" text-anchor="middle" x="177" y="-151" font-family="Helvetica,sans-Serif" font-size="10.00" fill="white">Reduced output per mine</text>
<text xml:space="preserve" text-anchor="middle" x="177" y="-139.75" font-family="Helvetica,sans-Serif" font-size="10.00" fill="white">Efficiency drops significantly</text>
</g>
<!-- threshold&#45;&gt;phase2 -->
<g id="edge2" class="edge">
<title>threshold&#45;&gt;phase2</title>
<path fill="none" stroke="#ffe66d" stroke-width="2" d="M177,-251.54C177,-237.83 177,-222.62 177,-208.95"/>
<polygon fill="#ffe66d" stroke="#ffe66d" stroke-width="2" points="179.45,-209.33 177,-202.33 174.55,-209.33 179.45,-209.33"/>
<text xml:space="preserve" text-anchor="middle" x="202.88" y="-222.4" font-family="Helvetica,sans-Serif" font-size="8.00" fill="#888888">Decline begins</text>
</g>
<!-- exhausted -->
<g id="node5" class="node">
<title>exhausted</title>
<path fill="#2d2d44" stroke="#4ecdc4" d="M234.88,-81C234.88,-81 119.12,-81 119.12,-81 113.12,-81 107.12,-75 107.12,-69 107.12,-69 107.12,-28 107.12,-28 107.12,-22 113.12,-16 119.12,-16 119.12,-16 234.88,-16 234.88,-16 240.88,-16 246.88,-22 246.88,-28 246.88,-28 246.88,-69 246.88,-69 246.88,-75 240.88,-81 234.88,-81"/>
<text xml:space="preserve" text-anchor="middle" x="177" y="-67.5" font-family="Helvetica,sans-Serif" font-size="10.00" fill="#ff6b6b">Deposit Exhausted</text>
<text xml:space="preserve" text-anchor="middle" x="177" y="-44.25" font-family="Helvetica,sans-Serif" font-size="10.00" fill="#ff6b6b">Accessibility: 0.1 (minimum)</text>
<text xml:space="preserve" text-anchor="middle" x="177" y="-33" font-family="Helvetica,sans-Serif" font-size="10.00" fill="#ff6b6b">Deposit reaches zero</text>
<text xml:space="preserve" text-anchor="middle" x="177" y="-21.75" font-family="Helvetica,sans-Serif" font-size="10.00" fill="#ff6b6b">Mines produce nothing</text>
</g>
<!-- phase2&#45;&gt;exhausted -->
<g id="edge3" class="edge">
<title>phase2&#45;&gt;exhausted</title>
<path fill="none" stroke="#ff6b6b" stroke-width="2" d="M177,-133.8C177,-120.63 177,-105.16 177,-91.1"/>
<polygon fill="#ff6b6b" stroke="#ff6b6b" stroke-width="2" points="179.45,-91.19 177,-84.19 174.55,-91.19 179.45,-91.19"/>
<text xml:space="preserve" text-anchor="middle" x="207.38" y="-104.4" font-family="Helvetica,sans-Serif" font-size="8.00" fill="#888888">Approaches zero</text>
</g>
<!-- ex1 -->
<g id="node6" class="node">
<title>ex1</title>
<path fill="#95d5b2" stroke="#4ecdc4" d="M445.62,-592.25C445.62,-592.25 388.38,-592.25 388.38,-592.25 382.38,-592.25 376.38,-586.25 376.38,-580.25 376.38,-580.25 376.38,-567 376.38,-567 376.38,-561 382.38,-555 388.38,-555 388.38,-555 445.62,-555 445.62,-555 451.62,-555 457.62,-561 457.62,-567 457.62,-567 457.62,-580.25 457.62,-580.25 457.62,-586.25 451.62,-592.25 445.62,-592.25"/>
<text xml:space="preserve" text-anchor="middle" x="417" y="-579.7" font-family="Helvetica,sans-Serif" font-size="9.00" fill="#1a1a2e">At 25% mined</text>
<text xml:space="preserve" text-anchor="middle" x="417" y="-569.95" font-family="Helvetica,sans-Serif" font-size="9.00" fill="#1a1a2e">Accessibility 1.0</text>
<text xml:space="preserve" text-anchor="middle" x="417" y="-560.2" font-family="Helvetica,sans-Serif" font-size="9.00" fill="#1a1a2e">100 tons/year</text>
</g>
<!-- ex2 -->
<g id="node7" class="node">
<title>ex2</title>
<path fill="#ffe66d" stroke="#4ecdc4" d="M448.25,-441.12C448.25,-441.12 385.75,-441.12 385.75,-441.12 379.75,-441.12 373.75,-435.12 373.75,-429.12 373.75,-429.12 373.75,-415.88 373.75,-415.88 373.75,-409.88 379.75,-403.88 385.75,-403.88 385.75,-403.88 448.25,-403.88 448.25,-403.88 454.25,-403.88 460.25,-409.88 460.25,-415.88 460.25,-415.88 460.25,-429.12 460.25,-429.12 460.25,-435.12 454.25,-441.12 448.25,-441.12"/>
<text xml:space="preserve" text-anchor="middle" x="417" y="-428.57" font-family="Helvetica,sans-Serif" font-size="9.00" fill="#1a1a2e">At 75% mined</text>
<text xml:space="preserve" text-anchor="middle" x="417" y="-418.82" font-family="Helvetica,sans-Serif" font-size="9.00" fill="#1a1a2e">Accessibility ~0.5</text>
<text xml:space="preserve" text-anchor="middle" x="417" y="-409.07" font-family="Helvetica,sans-Serif" font-size="9.00" fill="#1a1a2e">50 tons/year</text>
</g>
<!-- ex1&#45;&gt;ex2 -->
<g id="edge4" class="edge">
<title>ex1&#45;&gt;ex2</title>
<path fill="none" stroke="#4ecdc4" stroke-dasharray="5,2" d="M417,-554.64C417,-528.55 417,-480.05 417,-449.9"/>
<polygon fill="#4ecdc4" stroke="#4ecdc4" points="419.45,-450.07 417,-443.07 414.55,-450.07 419.45,-450.07"/>
<text xml:space="preserve" text-anchor="middle" x="426.38" y="-495.4" font-family="Helvetica,sans-Serif" font-size="8.00" fill="#888888">&#45;50%</text>
</g>
<!-- ex3 -->
<g id="node8" class="node">
<title>ex3</title>
<path fill="#ff6b6b" stroke="#4ecdc4" d="M448.25,-313.12C448.25,-313.12 385.75,-313.12 385.75,-313.12 379.75,-313.12 373.75,-307.12 373.75,-301.12 373.75,-301.12 373.75,-287.88 373.75,-287.88 373.75,-281.88 379.75,-275.88 385.75,-275.88 385.75,-275.88 448.25,-275.88 448.25,-275.88 454.25,-275.88 460.25,-281.88 460.25,-287.88 460.25,-287.88 460.25,-301.12 460.25,-301.12 460.25,-307.12 454.25,-313.12 448.25,-313.12"/>
<text xml:space="preserve" text-anchor="middle" x="417" y="-300.57" font-family="Helvetica,sans-Serif" font-size="9.00" fill="white">At 95% mined</text>
<text xml:space="preserve" text-anchor="middle" x="417" y="-290.82" font-family="Helvetica,sans-Serif" font-size="9.00" fill="white">Accessibility ~0.1</text>
<text xml:space="preserve" text-anchor="middle" x="417" y="-281.07" font-family="Helvetica,sans-Serif" font-size="9.00" fill="white">10 tons/year</text>
</g>
<!-- ex2&#45;&gt;ex3 -->
<g id="edge5" class="edge">
<title>ex2&#45;&gt;ex3</title>
<path fill="none" stroke="#4ecdc4" stroke-dasharray="5,2" d="M417,-403.45C417,-382.11 417,-346.43 417,-321.98"/>
<polygon fill="#4ecdc4" stroke="#4ecdc4" points="419.45,-322.03 417,-315.03 414.55,-322.03 419.45,-322.03"/>
<text xml:space="preserve" text-anchor="middle" x="426.38" y="-360.4" font-family="Helvetica,sans-Serif" font-size="8.00" fill="#888888">&#45;80%</text>
</g>
<!-- imp1 -->
<g id="node9" class="node">
<title>imp1</title>
<polygon fill="#2d2d44" stroke="#4ecdc4" points="848.75,-591.62 711.25,-591.62 711.25,-555.62 854.75,-555.62 854.75,-585.62 848.75,-591.62"/>
<polyline fill="none" stroke="#4ecdc4" points="848.75,-591.62 848.75,-585.62"/>
<polyline fill="none" stroke="#4ecdc4" points="854.75,-585.62 848.75,-585.62"/>
<text xml:space="preserve" text-anchor="middle" x="783" y="-569.95" font-family="Helvetica,sans-Serif" font-size="9.00" fill="white">Early extraction is most efficient</text>
</g>
<!-- imp2 -->
<g id="node10" class="node">
<title>imp2</title>
<polygon fill="#2d2d44" stroke="#4ecdc4" points="1059.5,-591.62 890.5,-591.62 890.5,-555.62 1065.5,-555.62 1065.5,-585.62 1059.5,-591.62"/>
<polyline fill="none" stroke="#4ecdc4" points="1059.5,-591.62 1059.5,-585.62"/>
<polyline fill="none" stroke="#4ecdc4" points="1065.5,-585.62 1059.5,-585.62"/>
<text xml:space="preserve" text-anchor="middle" x="978" y="-569.95" font-family="Helvetica,sans-Serif" font-size="9.00" fill="white">Survey new sites before 50% depletion</text>
</g>
<!-- imp3 -->
<g id="node11" class="node">
<title>imp3</title>
<polygon fill="#2d2d44" stroke="#4ecdc4" points="1306.12,-591.62 1101.88,-591.62 1101.88,-555.62 1312.12,-555.62 1312.12,-585.62 1306.12,-591.62"/>
<polyline fill="none" stroke="#4ecdc4" points="1306.12,-591.62 1306.12,-585.62"/>
<polyline fill="none" stroke="#4ecdc4" points="1312.12,-585.62 1306.12,-585.62"/>
<text xml:space="preserve" text-anchor="middle" x="1207" y="-569.95" font-family="Helvetica,sans-Serif" font-size="9.00" fill="white">High&#45;accessibility deposits should be prioritized</text>
</g>
<!-- imp4 -->
<g id="node12" class="node">
<title>imp4</title>
<polygon fill="#2d2d44" stroke="#4ecdc4" points="1490,-591.62 1348,-591.62 1348,-555.62 1496,-555.62 1496,-585.62 1490,-591.62"/>
<polyline fill="none" stroke="#4ecdc4" points="1490,-591.62 1490,-585.62"/>
<polyline fill="none" stroke="#4ecdc4" points="1496,-585.62 1490,-585.62"/>
<text xml:space="preserve" text-anchor="middle" x="1422" y="-569.95" font-family="Helvetica,sans-Serif" font-size="9.00" fill="white">&quot;Minerals now&quot; &gt; &quot;Minerals later&quot;</text>
</g>
<!-- curve_text -->
<g id="node13" class="node">
<title>curve_text</title>
<path fill="#2d2d44" stroke="none" d="M1740,-622.25C1740,-622.25 1544,-622.25 1544,-622.25 1538,-622.25 1532,-616.25 1532,-610.25 1532,-610.25 1532,-537 1532,-537 1532,-531 1538,-525 1544,-525 1544,-525 1740,-525 1740,-525 1746,-525 1752,-531 1752,-537 1752,-537 1752,-610.25 1752,-610.25 1752,-616.25 1746,-622.25 1740,-622.25"/>
<text xml:space="preserve" text-anchor="middle" x="1642" y="-608.75" font-family="Courier,monospace" font-size="10.00" fill="white"> &#160;&#160;&#160;0% &#160;&#160;&#160;&#160;&#160;&#160;&#160;&#160;&#160;&#160;50% &#160;&#160;&#160;&#160;&#160;&#160;&#160;&#160;&#160;100%</text>
<text xml:space="preserve" text-anchor="middle" x="1642" y="-596" font-family="Courier,monospace" font-size="10.00" fill="white"> &#160;&#160;&#160;&#160;|&#45;&#45;&#45;&#45;&#45;&#45;&#45;&#45;&#45;&#45;&#45;&#45;&#45;|&#45;&#45;&#45;&#45;&#45;&#45;&#45;&#45;&#45;&#45;&#45;&#45;&#45;|</text>
<text xml:space="preserve" text-anchor="middle" x="1642" y="-583.25" font-family="Courier,monospace" font-size="10.00" fill="white">1.0 &#160;=============|</text>
<text xml:space="preserve" text-anchor="middle" x="1642" y="-570.5" font-family="Courier,monospace" font-size="10.00" fill="white"> &#160;&#160;&#160;&#160;&#160;&#160;&#160;&#160;&#160;&#160;&#160;&#160;&#160;&#160;&#160;&#160;&#160;|\ &#160;&#160;</text>
<text xml:space="preserve" text-anchor="middle" x="1642" y="-557.75" font-family="Courier,monospace" font-size="10.00" fill="white">0.5 &#160;&#160;&#160;&#160;&#160;&#160;&#160;&#160;&#160;&#160;&#160;&#160;&#160;&#160;| \ &#160;&#160;DECLINE</text>
<text xml:space="preserve" text-anchor="middle" x="1642" y="-545" font-family="Courier,monospace" font-size="10.00" fill="white"> &#160;&#160;&#160;&#160;&#160;&#160;&#160;&#160;&#160;&#160;&#160;&#160;&#160;&#160;&#160;&#160;&#160;| &#160;\ &#160;</text>
<text xml:space="preserve" text-anchor="middle" x="1642" y="-532.25" font-family="Courier,monospace" font-size="10.00" fill="white">0.1 &#160;&#160;&#160;&#160;&#160;&#160;&#160;&#160;&#160;&#160;&#160;&#160;&#160;&#160;| &#160;&#160;============</text>
</g>
</g>
</svg>
