<?xml version="1.0" encoding="UTF-8" standalone="no"?>
<!DOCTYPE svg PUBLIC "-//W3C//DTD SVG 1.1//EN"
 "http://www.w3.org/Graphics/SVG/1.1/DTD/svg11.dtd">
<!-- Generated by graphviz version 14.1.2 (20260124.0452)
 -->
<!-- Title: MineralNetwork Pages: 1 -->
<svg width="385pt" height="1256pt"
 viewBox="0.00 0.00 385.00 1256.00" xmlns="http://www.w3.org/2000/svg" xmlns:xlink="http://www.w3.org/1999/xlink">
<g id="graph0" class="graph" transform="scale(1 1) rotate(0) translate(4 1252)">
<title>MineralNetwork</title>
<polygon fill="#1a1a2e" stroke="none" points="-4,4 -4,-1252 380.59,-1252 380.59,4 -4,4"/>
<g id="clust1" class="cluster">
<title>cluster_structural</title>
<polygon fill="#1a1a2e" stroke="#ff6b6b" stroke-dasharray="5,2" points="45.12,-766 45.12,-999 127.38,-999 127.38,-766 45.12,-766"/>
<text xml:space="preserve" text-anchor="middle" x="86.25" y="-981.7" font-family="Helvetica,sans-Serif" font-size="14.00" fill="#888888">Structural</text>
</g>
<g id="clust2" class="cluster">
<title>cluster_power</title>
<polygon fill="#1a1a2e" stroke="#ffe66d" stroke-dasharray="5,2" points="19.5,-470 19.5,-703 154,-703 154,-470 19.5,-470"/>
<text xml:space="preserve" text-anchor="middle" x="86.75" y="-685.7" font-family="Helvetica,sans-Serif" font-size="14.00" fill="#888888">Power &amp; Propulsion</text>
</g>
<g id="clust3" class="cluster">
<title>cluster_offensive</title>
<polygon fill="#1a1a2e" stroke="#4ecdc4" stroke-dasharray="5,2" points="46.62,-273 46.62,-427 125.88,-427 125.88,-273 46.62,-273"/>
<text xml:space="preserve" text-anchor="middle" x="86.25" y="-409.7" font-family="Helvetica,sans-Serif" font-size="14.00" fill="#888888">Offensive</text>
</g>
<g id="clust4" class="cluster">
<title>cluster_defensive</title>
<polygon fill="#1a1a2e" stroke="#95d5b2" stroke-dasharray="5,2" points="15.75,-25 15.75,-258 157.75,-258 157.75,-25 15.75,-25"/>
<text xml:space="preserve" text-anchor="middle" x="86.75" y="-240.7" font-family="Helvetica,sans-Serif" font-size="14.00" fill="#888888">Defensive &amp; Sensors</text>
</g>
<g id="clust5" class="cluster">
<title>cluster_uses</title>
<polygon fill="#1a1a2e" stroke="#666666" stroke-dasharray="5,2" points="234.5,-8 234.5,-1031 368.59,-1031 368.59,-8 234.5,-8"/>
<text xml:space="preserve" text-anchor="middle" x="301.54" y="-1013.7" font-family="Helvetica,sans-Serif" font-size="14.00" fill="#888888">Primary Uses</text>
</g>
<g id="clust6" class="cluster">
<title>cluster_legend</title>
<polygon fill="#1a1a2e" stroke="#666666" stroke-dasharray="5,2" points="8,-1007 8,-1240 164.5,-1240 164.5,-1007 8,-1007"/>
<text xml:space="preserve" text-anchor="middle" x="86.25" y="-1222.7" font-family="Helvetica,sans-Serif" font-size="14.00" fill="#888888">Legend</text>
</g>
<!-- duranium -->
<g id="node1" class="node">
<title>duranium</title>
<path fill="#ff6b6b" stroke="#4ecdc4" d="M103.25,-810C103.25,-810 69.25,-810 69.25,-810 63.25,-810 57.25,-804 57.25,-798 57.25,-798 57.25,-786 57.25,-786 57.25,-780 63.25,-774 69.25,-774 69.25,-774 103.25,-774 103.25,-774 109.25,-774 115.25,-780 115.25,-786 115.25,-786 115.25,-798 115.25,-798 115.25,-804 109.25,-810 103.25,-810"/>
<text xml:space="preserve" text-anchor="middle" x="86.25" y="-788.12" font-family="Helvetica,sans-Serif" font-size="10.00" fill="white">Duranium</text>
</g>
<!-- hulls -->
<g id="node12" class="node">
<title>hulls</title>
<ellipse fill="#2d2d44" stroke="#4ecdc4" cx="301.54" cy="-892" rx="43.13" ry="21.57"/>
<text xml:space="preserve" text-anchor="middle" x="301.54" y="-893.75" font-family="Helvetica,sans-Serif" font-size="10.00" fill="white">Ship Hulls</text>
<text xml:space="preserve" text-anchor="middle" x="301.54" y="-882.5" font-family="Helvetica,sans-Serif" font-size="10.00" fill="white">&amp; Armour</text>
</g>
<!-- duranium&#45;&gt;hulls -->
<g id="edge1" class="edge">
<title>duranium&#45;&gt;hulls</title>
<path fill="none" stroke="#ff6b6b" stroke-width="2" d="M115.57,-805.28C152.74,-822.7 218.18,-853.38 260.42,-873.19"/>
<polygon fill="#ff6b6b" stroke="#ff6b6b" stroke-width="2" points="259.21,-875.33 266.59,-876.08 261.29,-870.89 259.21,-875.33"/>
</g>
<!-- installations -->
<g id="node20" class="node">
<title>installations</title>
<ellipse fill="#2d2d44" stroke="#4ecdc4" cx="301.54" cy="-554" rx="59.04" ry="21.57"/>
<text xml:space="preserve" text-anchor="middle" x="301.54" y="-555.75" font-family="Helvetica,sans-Serif" font-size="10.00" fill="white">Installations</text>
<text xml:space="preserve" text-anchor="middle" x="301.54" y="-544.5" font-family="Helvetica,sans-Serif" font-size="10.00" fill="white">&amp; Infrastructure</text>
</g>
<!-- duranium&#45;&gt;installations -->
<g id="edge2" class="edge">
<title>duranium&#45;&gt;installations</title>
<path fill="none" stroke="#ff6b6b" d="M107.6,-773.65C123.98,-758.32 147.08,-735.42 164.5,-713 201.21,-665.75 193.06,-641.17 234.5,-598 242.1,-590.08 251.37,-582.83 260.53,-576.59"/>
<polygon fill="#ff6b6b" stroke="#ff6b6b" points="261.71,-578.75 266.22,-572.86 259.03,-574.65 261.71,-578.75"/>
</g>
<!-- tritanium -->
<g id="node2" class="node">
<title>tritanium</title>
<path fill="#ff6b6b" stroke="#4ecdc4" d="M102.5,-968C102.5,-968 70,-968 70,-968 64,-968 58,-962 58,-956 58,-956 58,-944 58,-944 58,-938 64,-932 70,-932 70,-932 102.5,-932 102.5,-932 108.5,-932 114.5,-938 114.5,-944 114.5,-944 114.5,-956 114.5,-956 114.5,-962 108.5,-968 102.5,-968"/>
<text xml:space="preserve" text-anchor="middle" x="86.25" y="-946.12" font-family="Helvetica,sans-Serif" font-size="10.00" fill="white">Tritanium</text>
</g>
<!-- weapons_missile -->
<g id="node16" class="node">
<title>weapons_missile</title>
<ellipse fill="#2d2d44" stroke="#4ecdc4" cx="301.54" cy="-978" rx="38.89" ry="21.57"/>
<text xml:space="preserve" text-anchor="middle" x="301.54" y="-979.75" font-family="Helvetica,sans-Serif" font-size="10.00" fill="white">Missile</text>
<text xml:space="preserve" text-anchor="middle" x="301.54" y="-968.5" font-family="Helvetica,sans-Serif" font-size="10.00" fill="white">Systems</text>
</g>
<!-- tritanium&#45;&gt;weapons_missile -->
<g id="edge3" class="edge">
<title>tritanium&#45;&gt;weapons_missile</title>
<path fill="none" stroke="#ff6b6b" stroke-width="2" d="M114.7,-953.6C149.7,-958.2 210.77,-966.21 253.31,-971.8"/>
<polygon fill="#ff6b6b" stroke="#ff6b6b" stroke-width="2" points="252.9,-974.22 260.16,-972.7 253.54,-969.36 252.9,-974.22"/>
</g>
<!-- neutronium -->
<g id="node3" class="node">
<title>neutronium</title>
<path fill="#ff6b6b" stroke="#4ecdc4" d="M107.38,-889C107.38,-889 65.12,-889 65.12,-889 59.12,-889 53.12,-883 53.12,-877 53.12,-877 53.12,-865 53.12,-865 53.12,-859 59.12,-853 65.12,-853 65.12,-853 107.38,-853 107.38,-853 113.38,-853 119.38,-859 119.38,-865 119.38,-865 119.38,-877 119.38,-877 119.38,-883 113.38,-889 107.38,-889"/>
<text xml:space="preserve" text-anchor="middle" x="86.25" y="-867.12" font-family="Helvetica,sans-Serif" font-size="10.00" fill="white">Neutronium</text>
</g>
<!-- weapons_kinetic -->
<g id="node17" class="node">
<title>weapons_kinetic</title>
<ellipse fill="#2d2d44" stroke="#4ecdc4" cx="301.54" cy="-720" rx="45.25" ry="21.57"/>
<text xml:space="preserve" text-anchor="middle" x="301.54" y="-721.75" font-family="Helvetica,sans-Serif" font-size="10.00" fill="white">Railguns &amp;</text>
<text xml:space="preserve" text-anchor="middle" x="301.54" y="-710.5" font-family="Helvetica,sans-Serif" font-size="10.00" fill="white">Gauss</text>
</g>
<!-- neutronium&#45;&gt;weapons_kinetic -->
<g id="edge4" class="edge">
<title>neutronium&#45;&gt;weapons_kinetic</title>
<path fill="none" stroke="#ff6b6b" stroke-width="2" d="M119.73,-857.36C134.04,-850.66 150.71,-841.9 164.5,-832 199.98,-806.52 200.47,-790.39 234.5,-763 243.57,-755.7 253.9,-748.51 263.66,-742.15"/>
<polygon fill="#ff6b6b" stroke="#ff6b6b" stroke-width="2" points="264.91,-744.26 269.49,-738.43 262.27,-740.13 264.91,-744.26"/>
</g>
<!-- boronide -->
<g id="node4" class="node">
<title>boronide</title>
<path fill="#ffe66d" stroke="#4ecdc4" d="M101.38,-514C101.38,-514 71.12,-514 71.12,-514 65.12,-514 59.12,-508 59.12,-502 59.12,-502 59.12,-490 59.12,-490 59.12,-484 65.12,-478 71.12,-478 71.12,-478 101.38,-478 101.38,-478 107.38,-478 113.38,-484 113.38,-490 113.38,-490 113.38,-502 113.38,-502 113.38,-508 107.38,-514 101.38,-514"/>
<text xml:space="preserve" text-anchor="middle" x="86.25" y="-492.12" font-family="Helvetica,sans-Serif" font-size="10.00" fill="#1a1a2e">Boronide</text>
</g>
<!-- reactors -->
<g id="node14" class="node">
<title>reactors</title>
<ellipse fill="#2d2d44" stroke="#4ecdc4" cx="301.54" cy="-468" rx="52.68" ry="21.57"/>
<text xml:space="preserve" text-anchor="middle" x="301.54" y="-469.75" font-family="Helvetica,sans-Serif" font-size="10.00" fill="white">Reactors &amp;</text>
<text xml:space="preserve" text-anchor="middle" x="301.54" y="-458.5" font-family="Helvetica,sans-Serif" font-size="10.00" fill="white">Power Plants</text>
</g>
<!-- boronide&#45;&gt;reactors -->
<g id="edge5" class="edge">
<title>boronide&#45;&gt;reactors</title>
<path fill="none" stroke="#ffe66d" stroke-width="2" d="M113.83,-492.51C145.47,-488.36 199.26,-481.3 241,-475.82"/>
<polygon fill="#ffe66d" stroke="#ffe66d" stroke-width="2" points="241.16,-478.27 247.78,-474.93 240.53,-473.41 241.16,-478.27"/>
</g>
<!-- weapons_beam -->
<g id="node15" class="node">
<title>weapons_beam</title>
<ellipse fill="#2d2d44" stroke="#4ecdc4" cx="301.54" cy="-296" rx="39.95" ry="21.57"/>
<text xml:space="preserve" text-anchor="middle" x="301.54" y="-297.75" font-family="Helvetica,sans-Serif" font-size="10.00" fill="white">Energy</text>
<text xml:space="preserve" text-anchor="middle" x="301.54" y="-286.5" font-family="Helvetica,sans-Serif" font-size="10.00" fill="white">Weapons</text>
</g>
<!-- boronide&#45;&gt;weapons_beam -->
<g id="edge6" class="edge">
<title>boronide&#45;&gt;weapons_beam</title>
<path fill="none" stroke="#ffe66d" d="M113.52,-478.9C129.25,-467.96 149.12,-452.88 164.5,-437 201.74,-398.55 195.84,-376.02 234.5,-339 243.65,-330.23 254.83,-322.18 265.36,-315.48"/>
<polygon fill="#ffe66d" stroke="#ffe66d" points="266.57,-317.61 271.24,-311.85 263.99,-313.44 266.57,-317.61"/>
</g>
<!-- gallicite -->
<g id="node5" class="node">
<title>gallicite</title>
<path fill="#ffe66d" stroke="#4ecdc4" d="M101.25,-593C101.25,-593 71.25,-593 71.25,-593 65.25,-593 59.25,-587 59.25,-581 59.25,-581 59.25,-569 59.25,-569 59.25,-563 65.25,-557 71.25,-557 71.25,-557 101.25,-557 101.25,-557 107.25,-557 113.25,-563 113.25,-569 113.25,-569 113.25,-581 113.25,-581 113.25,-587 107.25,-593 101.25,-593"/>
<text xml:space="preserve" text-anchor="middle" x="86.25" y="-571.12" font-family="Helvetica,sans-Serif" font-size="10.00" fill="#1a1a2e">Gallicite</text>
</g>
<!-- engines -->
<g id="node13" class="node">
<title>engines</title>
<ellipse fill="#2d2d44" stroke="#4ecdc4" cx="301.54" cy="-637" rx="30.32" ry="18"/>
<text xml:space="preserve" text-anchor="middle" x="301.54" y="-633.12" font-family="Helvetica,sans-Serif" font-size="10.00" fill="white">Engines</text>
</g>
<!-- gallicite&#45;&gt;engines -->
<g id="edge7" class="edge">
<title>gallicite&#45;&gt;engines</title>
<path fill="none" stroke="#ffe66d" stroke-width="2" d="M113.4,-582.6C151.28,-593.61 221.54,-614.03 264.36,-626.48"/>
<polygon fill="#ffe66d" stroke="#ffe66d" stroke-width="2" points="263.53,-628.79 270.93,-628.39 264.9,-624.09 263.53,-628.79"/>
</g>
<!-- sorium -->
<g id="node6" class="node">
<title>sorium</title>
<path fill="#ffe66d" stroke="#4ecdc4" d="M101.25,-672C101.25,-672 71.25,-672 71.25,-672 65.25,-672 59.25,-666 59.25,-660 59.25,-660 59.25,-648 59.25,-648 59.25,-642 65.25,-636 71.25,-636 71.25,-636 101.25,-636 101.25,-636 107.25,-636 113.25,-642 113.25,-648 113.25,-648 113.25,-660 113.25,-660 113.25,-666 107.25,-672 101.25,-672"/>
<text xml:space="preserve" text-anchor="middle" x="86.25" y="-650.12" font-family="Helvetica,sans-Serif" font-size="10.00" fill="#1a1a2e">Sorium</text>
</g>
<!-- fuel -->
<g id="node22" class="node">
<title>fuel</title>
<ellipse fill="#2d2d44" stroke="#4ecdc4" cx="301.54" cy="-806" rx="50.56" ry="21.57"/>
<text xml:space="preserve" text-anchor="middle" x="301.54" y="-807.75" font-family="Helvetica,sans-Serif" font-size="10.00" fill="white">Fuel &amp;</text>
<text xml:space="preserve" text-anchor="middle" x="301.54" y="-796.5" font-family="Helvetica,sans-Serif" font-size="10.00" fill="white">Jump Drives</text>
</g>
<!-- sorium&#45;&gt;fuel -->
<g id="edge8" class="edge">
<title>sorium&#45;&gt;fuel</title>
<path fill="none" stroke="#ffe66d" stroke-width="2" d="M111.16,-672.39C140.03,-694.43 190.22,-732.24 234.5,-763 243.97,-769.58 254.37,-776.49 264.05,-782.8"/>
<polygon fill="#ffe66d" stroke="#ffe66d" stroke-width="2" points="262.59,-784.77 269.8,-786.52 265.25,-780.66 262.59,-784.77"/>
</g>
<!-- corundium -->
<g id="node7" class="node">
<title>corundium</title>
<path fill="#4ecdc4" stroke="#4ecdc4" d="M105.88,-317C105.88,-317 66.62,-317 66.62,-317 60.62,-317 54.62,-311 54.62,-305 54.62,-305 54.62,-293 54.62,-293 54.62,-287 60.62,-281 66.62,-281 66.62,-281 105.88,-281 105.88,-281 111.88,-281 117.88,-287 117.88,-293 117.88,-293 117.88,-305 117.88,-305 117.88,-311 111.88,-317 105.88,-317"/>
<text xml:space="preserve" text-anchor="middle" x="86.25" y="-295.12" font-family="Helvetica,sans-Serif" font-size="10.00" fill="#1a1a2e">Corundium</text>
</g>
<!-- corundium&#45;&gt;weapons_beam -->
<g id="edge9" class="edge">
<title>corundium&#45;&gt;weapons_beam</title>
<path fill="none" stroke="#4ecdc4" stroke-width="2" d="M118.26,-298.56C153.17,-298.07 210.34,-297.27 251.35,-296.69"/>
<polygon fill="#4ecdc4" stroke="#4ecdc4" stroke-width="2" points="251.15,-299.15 258.12,-296.6 251.08,-294.25 251.15,-299.15"/>
</g>
<!-- mines -->
<g id="node23" class="node">
<title>mines</title>
<ellipse fill="#2d2d44" stroke="#4ecdc4" cx="301.54" cy="-210" rx="44.72" ry="21.57"/>
<text xml:space="preserve" text-anchor="middle" x="301.54" y="-211.75" font-family="Helvetica,sans-Serif" font-size="10.00" fill="white">Mining</text>
<text xml:space="preserve" text-anchor="middle" x="301.54" y="-200.5" font-family="Helvetica,sans-Serif" font-size="10.00" fill="white">Operations</text>
</g>
<!-- corundium&#45;&gt;mines -->
<g id="edge10" class="edge">
<title>corundium&#45;&gt;mines</title>
<path fill="none" stroke="#4ecdc4" stroke-width="2" d="M118.14,-286.78C132.29,-281.13 149.28,-274.3 164.5,-268 196.02,-254.96 231.45,-239.84 258.26,-228.3"/>
<polygon fill="#4ecdc4" stroke="#4ecdc4" stroke-width="2" points="259.12,-230.6 264.58,-225.58 257.18,-226.1 259.12,-230.6"/>
</g>
<!-- vendarite -->
<g id="node8" class="node">
<title>vendarite</title>
<path fill="#4ecdc4" stroke="#4ecdc4" d="M102.88,-396C102.88,-396 69.62,-396 69.62,-396 63.62,-396 57.62,-390 57.62,-384 57.62,-384 57.62,-372 57.62,-372 57.62,-366 63.62,-360 69.62,-360 69.62,-360 102.88,-360 102.88,-360 108.88,-360 114.88,-366 114.88,-372 114.88,-372 114.88,-384 114.88,-384 114.88,-390 108.88,-396 102.88,-396"/>
<text xml:space="preserve" text-anchor="middle" x="86.25" y="-374.12" font-family="Helvetica,sans-Serif" font-size="10.00" fill="#1a1a2e">Vendarite</text>
</g>
<!-- vendarite&#45;&gt;weapons_kinetic -->
<g id="edge12" class="edge">
<title>vendarite&#45;&gt;weapons_kinetic</title>
<path fill="none" stroke="#4ecdc4" d="M109.38,-396.48C126.57,-411.89 149.87,-435.25 164.5,-460 216.06,-547.24 172.94,-596.5 234.5,-677 241.66,-686.36 251.47,-694.29 261.34,-700.69"/>
<polygon fill="#4ecdc4" stroke="#4ecdc4" points="259.97,-702.72 267.22,-704.28 262.53,-698.54 259.97,-702.72"/>
</g>
<!-- ground -->
<g id="node21" class="node">
<title>ground</title>
<ellipse fill="#2d2d44" stroke="#4ecdc4" cx="301.54" cy="-382" rx="33.59" ry="21.57"/>
<text xml:space="preserve" text-anchor="middle" x="301.54" y="-383.75" font-family="Helvetica,sans-Serif" font-size="10.00" fill="white">Ground</text>
<text xml:space="preserve" text-anchor="middle" x="301.54" y="-372.5" font-family="Helvetica,sans-Serif" font-size="10.00" fill="white">Forces</text>
</g>
<!-- vendarite&#45;&gt;ground -->
<g id="edge11" class="edge">
<title>vendarite&#45;&gt;ground</title>
<path fill="none" stroke="#4ecdc4" stroke-width="2" d="M115.13,-378.52C151.51,-379.21 215.52,-380.41 257.98,-381.2"/>
<polygon fill="#4ecdc4" stroke="#4ecdc4" stroke-width="2" points="257.69,-383.65 264.73,-381.33 257.78,-378.75 257.69,-383.65"/>
</g>
<!-- corbomite -->
<g id="node9" class="node">
<title>corbomite</title>
<path fill="#95d5b2" stroke="#4ecdc4" d="M104.75,-69C104.75,-69 67.75,-69 67.75,-69 61.75,-69 55.75,-63 55.75,-57 55.75,-57 55.75,-45 55.75,-45 55.75,-39 61.75,-33 67.75,-33 67.75,-33 104.75,-33 104.75,-33 110.75,-33 116.75,-39 116.75,-45 116.75,-45 116.75,-57 116.75,-57 116.75,-63 110.75,-69 104.75,-69"/>
<text xml:space="preserve" text-anchor="middle" x="86.25" y="-47.12" font-family="Helvetica,sans-Serif" font-size="10.00" fill="#1a1a2e">Corbomite</text>
</g>
<!-- sensors -->
<g id="node18" class="node">
<title>sensors</title>
<ellipse fill="#2d2d44" stroke="#4ecdc4" cx="301.54" cy="-124" rx="47.38" ry="21.57"/>
<text xml:space="preserve" text-anchor="middle" x="301.54" y="-125.75" font-family="Helvetica,sans-Serif" font-size="10.00" fill="white">Sensors &amp;</text>
<text xml:space="preserve" text-anchor="middle" x="301.54" y="-114.5" font-family="Helvetica,sans-Serif" font-size="10.00" fill="white">Fire Control</text>
</g>
<!-- corbomite&#45;&gt;sensors -->
<g id="edge14" class="edge">
<title>corbomite&#45;&gt;sensors</title>
<path fill="none" stroke="#95d5b2" d="M116.91,-61.15C152.72,-73.41 213.32,-94.15 255.06,-108.43"/>
<polygon fill="#95d5b2" stroke="#95d5b2" points="254.03,-110.67 261.45,-110.62 255.62,-106.03 254.03,-110.67"/>
</g>
<!-- shields -->
<g id="node19" class="node">
<title>shields</title>
<ellipse fill="#2d2d44" stroke="#4ecdc4" cx="301.54" cy="-38" rx="41.01" ry="21.57"/>
<text xml:space="preserve" text-anchor="middle" x="301.54" y="-39.75" font-family="Helvetica,sans-Serif" font-size="10.00" fill="white">Shields &amp;</text>
<text xml:space="preserve" text-anchor="middle" x="301.54" y="-28.5" font-family="Helvetica,sans-Serif" font-size="10.00" fill="white">Defense</text>
</g>
<!-- corbomite&#45;&gt;shields -->
<g id="edge13" class="edge">
<title>corbomite&#45;&gt;shields</title>
<path fill="none" stroke="#95d5b2" stroke-width="2" d="M116.91,-49.19C151.49,-47.08 209.19,-43.57 250.69,-41.04"/>
<polygon fill="#95d5b2" stroke="#95d5b2" stroke-width="2" points="250.75,-43.49 257.58,-40.62 250.45,-38.6 250.75,-43.49"/>
</g>
<!-- uridium -->
<g id="node10" class="node">
<title>uridium</title>
<path fill="#95d5b2" stroke="#4ecdc4" d="M101.25,-148C101.25,-148 71.25,-148 71.25,-148 65.25,-148 59.25,-142 59.25,-136 59.25,-136 59.25,-124 59.25,-124 59.25,-118 65.25,-112 71.25,-112 71.25,-112 101.25,-112 101.25,-112 107.25,-112 113.25,-118 113.25,-124 113.25,-124 113.25,-136 113.25,-136 113.25,-142 107.25,-148 101.25,-148"/>
<text xml:space="preserve" text-anchor="middle" x="86.25" y="-126.12" font-family="Helvetica,sans-Serif" font-size="10.00" fill="#1a1a2e">Uridium</text>
</g>
<!-- uridium&#45;&gt;sensors -->
<g id="edge15" class="edge">
<title>uridium&#45;&gt;sensors</title>
<path fill="none" stroke="#95d5b2" stroke-width="2" d="M113.4,-129.26C145.74,-128.35 201.68,-126.78 244,-125.59"/>
<polygon fill="#95d5b2" stroke="#95d5b2" stroke-width="2" points="243.95,-128.04 250.87,-125.4 243.81,-123.15 243.95,-128.04"/>
</g>
<!-- mercassium -->
<g id="node11" class="node">
<title>mercassium</title>
<path fill="#95d5b2" stroke="#4ecdc4" d="M108.88,-227C108.88,-227 63.62,-227 63.62,-227 57.62,-227 51.62,-221 51.62,-215 51.62,-215 51.62,-203 51.62,-203 51.62,-197 57.62,-191 63.62,-191 63.62,-191 108.88,-191 108.88,-191 114.88,-191 120.88,-197 120.88,-203 120.88,-203 120.88,-215 120.88,-215 120.88,-221 114.88,-227 108.88,-227"/>
<text xml:space="preserve" text-anchor="middle" x="86.25" y="-205.12" font-family="Helvetica,sans-Serif" font-size="10.00" fill="#1a1a2e">Mercassium</text>
</g>
<!-- mercassium&#45;&gt;installations -->
<g id="edge16" class="edge">
<title>mercassium&#45;&gt;installations</title>
<path fill="none" stroke="#95d5b2" stroke-width="2" d="M121.03,-225.67C136.32,-234.77 153.41,-247.4 164.5,-263 230.85,-356.35 166.62,-418.75 234.5,-511 240.34,-518.93 248.12,-525.81 256.28,-531.59"/>
<polygon fill="#95d5b2" stroke="#95d5b2" stroke-width="2" points="254.79,-533.54 261.99,-535.34 257.49,-529.45 254.79,-533.54"/>
</g>
<!-- leg1 -->
<g id="node24" class="node">
<title>leg1</title>
<path fill="#2d2d44" stroke="none" d="M131,-1051C131,-1051 41.5,-1051 41.5,-1051 35.5,-1051 29.5,-1045 29.5,-1039 29.5,-1039 29.5,-1027 29.5,-1027 29.5,-1021 35.5,-1015 41.5,-1015 41.5,-1015 131,-1015 131,-1015 137,-1015 143,-1021 143,-1027 143,-1027 143,-1039 143,-1039 143,-1045 137,-1051 131,-1051"/>
<text xml:space="preserve" text-anchor="middle" x="86.25" y="-1029.33" font-family="Helvetica,sans-Serif" font-size="9.00" fill="white">Thick line = Primary use</text>
</g>
<!-- leg2 -->
<g id="node25" class="node">
<title>leg2</title>
<path fill="#2d2d44" stroke="none" d="M135.5,-1130C135.5,-1130 37,-1130 37,-1130 31,-1130 25,-1124 25,-1118 25,-1118 25,-1106 25,-1106 25,-1100 31,-1094 37,-1094 37,-1094 135.5,-1094 135.5,-1094 141.5,-1094 147.5,-1100 147.5,-1106 147.5,-1106 147.5,-1118 147.5,-1118 147.5,-1124 141.5,-1130 135.5,-1130"/>
<text xml:space="preserve" text-anchor="middle" x="86.25" y="-1108.33" font-family="Helvetica,sans-Serif" font-size="9.00" fill="white">Thin line = Secondary use</text>
</g>
<!-- leg3 -->
<g id="node26" class="node">
<title>leg3</title>
<path fill="#2d2d44" stroke="none" d="M144.5,-1209C144.5,-1209 28,-1209 28,-1209 22,-1209 16,-1203 16,-1197 16,-1197 16,-1185 16,-1185 16,-1179 22,-1173 28,-1173 28,-1173 144.5,-1173 144.5,-1173 150.5,-1173 156.5,-1179 156.5,-1185 156.5,-1185 156.5,-1197 156.5,-1197 156.5,-1203 150.5,-1209 144.5,-1209"/>
<text xml:space="preserve" text-anchor="middle" x="86.25" y="-1187.33" font-family="Helvetica,sans-Serif" font-size="9.00" fill="white">Colors match mineral category</text>
</g>
</g>
</svg>
