<?xml version="1.0" encoding="UTF-8" standalone="no"?>
<!DOCTYPE svg PUBLIC "-//W3C//DTD SVG 1.1//EN"
 "http://www.w3.org/Graphics/SVG/1.1/DTD/svg11.dtd">
<!-- Generated by graphviz version 14.1.2 (20260124.0452)
 -->
<!-- Title: MassDriverDynamics Pages: 1 -->
<svg width="939pt" height="573pt"
 viewBox="0.00 0.00 939.00 573.00" xmlns="http://www.w3.org/2000/svg" xmlns:xlink="http://www.w3.org/1999/xlink">
<g id="graph0" class="graph" transform="scale(1 1) rotate(0) translate(4 569)">
<title>MassDriverDynamics</title>
<polygon fill="#1a1a2e" stroke="none" points="-4,4 -4,-569 935.17,-569 935.17,4 -4,4"/>
<g id="clust1" class="cluster">
<title>cluster_inner</title>
<polygon fill="#1a1a2e" stroke="#95d5b2" stroke-dasharray="5,2" points="659.5,-142 659.5,-338 770,-338 770,-142 659.5,-142"/>
<text xml:space="preserve" text-anchor="middle" x="714.75" y="-320.7" font-family="Helvetica,sans-Serif" font-size="14.00" fill="#95d5b2">Inner System</text>
<text xml:space="preserve" text-anchor="middle" x="714.75" y="-305.7" font-family="Helvetica,sans-Serif" font-size="14.00" fill="#95d5b2">(Hours to Days)</text>
</g>
<g id="clust2" class="cluster">
<title>cluster_mid</title>
<polygon fill="#1a1a2e" stroke="#ffe66d" stroke-dasharray="5,2" points="19.5,-141 19.5,-337 135.25,-337 135.25,-141 19.5,-141"/>
<text xml:space="preserve" text-anchor="middle" x="77.38" y="-319.7" font-family="Helvetica,sans-Serif" font-size="14.00" fill="#ffe66d">Mid System</text>
<text xml:space="preserve" text-anchor="middle" x="77.38" y="-304.7" font-family="Helvetica,sans-Serif" font-size="14.00" fill="#ffe66d">(Days to Weeks)</text>
</g>
<g id="clust3" class="cluster">
<title>cluster_outer</title>
<polygon fill="#1a1a2e" stroke="#ff6b6b" stroke-dasharray="5,2" points="246,-8 246,-104 346,-104 346,-8 246,-8"/>
<text xml:space="preserve" text-anchor="middle" x="296" y="-86.7" font-family="Helvetica,sans-Serif" font-size="14.00" fill="#ff6b6b">Outer System</text>
<text xml:space="preserve" text-anchor="middle" x="296" y="-71.7" font-family="Helvetica,sans-Serif" font-size="14.00" fill="#ff6b6b">(Weeks)</text>
</g>
<g id="clust4" class="cluster">
<title>cluster_speed</title>
<polygon fill="#1a1a2e" stroke="#666666" stroke-dasharray="5,2" points="37.62,-345 37.62,-451 540.5,-451 540.5,-345 37.62,-345"/>
<text xml:space="preserve" text-anchor="middle" x="289.06" y="-433.7" font-family="Helvetica,sans-Serif" font-size="14.00" fill="#888888">Packet Speed Reference</text>
</g>
<g id="clust5" class="cluster">
<title>cluster_warning</title>
<polygon fill="#1a1a2e" stroke="#ff6b6b" stroke-dasharray="5,2" points="8,-470 8,-557 145.75,-557 145.75,-470 8,-470"/>
<text xml:space="preserve" text-anchor="middle" x="76.88" y="-539.7" font-family="Helvetica,sans-Serif" font-size="14.00" fill="#ff6b6b">WARNING</text>
</g>
<!-- star -->
<g id="node1" class="node">
<title>star</title>
<ellipse fill="#ffe66d" stroke="#4ecdc4" cx="76.88" cy="-62" rx="28.8" ry="28.8"/>
<text xml:space="preserve" text-anchor="middle" x="76.88" y="-58.12" font-family="Helvetica,sans-Serif" font-size="10.00" fill="#1a1a2e">Star</text>
</g>
<!-- homeworld -->
<g id="node2" class="node">
<title>homeworld</title>
<path fill="#4ecdc4" stroke="#4ecdc4" d="M736.88,-191.88C736.88,-191.88 691.62,-191.88 691.62,-191.88 685.62,-191.88 679.62,-185.88 679.62,-179.88 679.62,-179.88 679.62,-162.12 679.62,-162.12 679.62,-156.12 685.62,-150.12 691.62,-150.12 691.62,-150.12 736.88,-150.12 736.88,-150.12 742.88,-150.12 748.88,-156.12 748.88,-162.12 748.88,-162.12 748.88,-179.88 748.88,-179.88 748.88,-185.88 742.88,-191.88 736.88,-191.88"/>
<text xml:space="preserve" text-anchor="middle" x="714.25" y="-178.38" font-family="Helvetica,sans-Serif" font-size="10.00" fill="#1a1a2e">Homeworld</text>
<text xml:space="preserve" text-anchor="middle" x="714.25" y="-167.12" font-family="Helvetica,sans-Serif" font-size="10.00" fill="#1a1a2e">(Receiving)</text>
<text xml:space="preserve" text-anchor="middle" x="714.25" y="-155.88" font-family="Helvetica,sans-Serif" font-size="10.00" fill="#1a1a2e">Mass Driver</text>
</g>
<!-- moon1 -->
<g id="node3" class="node">
<title>moon1</title>
<path fill="#ff6b6b" stroke="#4ecdc4" d="M739.12,-291.88C739.12,-291.88 689.38,-291.88 689.38,-291.88 683.38,-291.88 677.38,-285.88 677.38,-279.88 677.38,-279.88 677.38,-262.12 677.38,-262.12 677.38,-256.12 683.38,-250.12 689.38,-250.12 689.38,-250.12 739.12,-250.12 739.12,-250.12 745.12,-250.12 751.12,-256.12 751.12,-262.12 751.12,-262.12 751.12,-279.88 751.12,-279.88 751.12,-285.88 745.12,-291.88 739.12,-291.88"/>
<text xml:space="preserve" text-anchor="middle" x="714.25" y="-278.38" font-family="Helvetica,sans-Serif" font-size="10.00" fill="white">Moon Colony</text>
<text xml:space="preserve" text-anchor="middle" x="714.25" y="-267.12" font-family="Helvetica,sans-Serif" font-size="10.00" fill="white">(Mining)</text>
<text xml:space="preserve" text-anchor="middle" x="714.25" y="-255.88" font-family="Helvetica,sans-Serif" font-size="10.00" fill="white">Mass Driver</text>
</g>
<!-- packet1 -->
<g id="node7" class="node">
<title>packet1</title>
<ellipse fill="#95d5b2" stroke="#4ecdc4" cx="912.96" cy="-228" rx="18.21" ry="18.21"/>
<text xml:space="preserve" text-anchor="middle" x="912.96" y="-224.9" font-family="Helvetica,sans-Serif" font-size="8.00" fill="#1a1a2e">[P]</text>
</g>
<!-- moon1&#45;&gt;packet1 -->
<g id="edge1" class="edge">
<title>moon1&#45;&gt;packet1</title>
<path fill="none" stroke="#95d5b2" stroke-dasharray="5,2" d="M751.33,-263.11C790.59,-254.53 852.35,-241.03 886.73,-233.52"/>
<polygon fill="#95d5b2" stroke="#95d5b2" points="887.05,-235.95 893.37,-232.06 886.01,-231.17 887.05,-235.95"/>
</g>
<!-- asteroid_belt -->
<g id="node4" class="node">
<title>asteroid_belt</title>
<path fill="#ff6b6b" stroke="#4ecdc4" d="M99.88,-290.88C99.88,-290.88 53.88,-290.88 53.88,-290.88 47.88,-290.88 41.88,-284.88 41.88,-278.88 41.88,-278.88 41.88,-261.12 41.88,-261.12 41.88,-255.12 47.88,-249.12 53.88,-249.12 53.88,-249.12 99.88,-249.12 99.88,-249.12 105.88,-249.12 111.88,-255.12 111.88,-261.12 111.88,-261.12 111.88,-278.88 111.88,-278.88 111.88,-284.88 105.88,-290.88 99.88,-290.88"/>
<text xml:space="preserve" text-anchor="middle" x="76.88" y="-277.38" font-family="Helvetica,sans-Serif" font-size="10.00" fill="white">Asteroid</text>
<text xml:space="preserve" text-anchor="middle" x="76.88" y="-266.12" font-family="Helvetica,sans-Serif" font-size="10.00" fill="white">Mining Base</text>
<text xml:space="preserve" text-anchor="middle" x="76.88" y="-254.88" font-family="Helvetica,sans-Serif" font-size="10.00" fill="white">Mass Driver</text>
</g>
<!-- packet2 -->
<g id="node8" class="node">
<title>packet2</title>
<ellipse fill="#95d5b2" stroke="#4ecdc4" cx="295.5" cy="-268" rx="18.21" ry="18.21"/>
<text xml:space="preserve" text-anchor="middle" x="295.5" y="-264.9" font-family="Helvetica,sans-Serif" font-size="8.00" fill="#1a1a2e">[P]</text>
</g>
<!-- asteroid_belt&#45;&gt;packet2 -->
<g id="edge3" class="edge">
<title>asteroid_belt&#45;&gt;packet2</title>
<path fill="none" stroke="#ffe66d" stroke-dasharray="5,2" d="M112.2,-269.68C155.68,-269.28 229.62,-268.6 268.64,-268.24"/>
<polygon fill="#ffe66d" stroke="#ffe66d" points="268.37,-270.69 275.35,-268.18 268.32,-265.79 268.37,-270.69"/>
</g>
<!-- mars -->
<g id="node5" class="node">
<title>mars</title>
<path fill="#ff6b6b" stroke="#4ecdc4" d="M100.62,-190.88C100.62,-190.88 53.12,-190.88 53.12,-190.88 47.12,-190.88 41.12,-184.88 41.12,-178.88 41.12,-178.88 41.12,-161.12 41.12,-161.12 41.12,-155.12 47.12,-149.12 53.12,-149.12 53.12,-149.12 100.62,-149.12 100.62,-149.12 106.62,-149.12 112.62,-155.12 112.62,-161.12 112.62,-161.12 112.62,-178.88 112.62,-178.88 112.62,-184.88 106.62,-190.88 100.62,-190.88"/>
<text xml:space="preserve" text-anchor="middle" x="76.88" y="-177.38" font-family="Helvetica,sans-Serif" font-size="10.00" fill="white">Mars Colony</text>
<text xml:space="preserve" text-anchor="middle" x="76.88" y="-166.12" font-family="Helvetica,sans-Serif" font-size="10.00" fill="white">(Mining)</text>
<text xml:space="preserve" text-anchor="middle" x="76.88" y="-154.88" font-family="Helvetica,sans-Serif" font-size="10.00" fill="white">Mass Driver</text>
</g>
<!-- packet4 -->
<g id="node10" class="node">
<title>packet4</title>
<ellipse fill="#95d5b2" stroke="#4ecdc4" cx="295.5" cy="-170" rx="18.21" ry="18.21"/>
<text xml:space="preserve" text-anchor="middle" x="295.5" y="-166.9" font-family="Helvetica,sans-Serif" font-size="8.00" fill="#1a1a2e">[P]</text>
</g>
<!-- mars&#45;&gt;packet4 -->
<g id="edge6" class="edge">
<title>mars&#45;&gt;packet4</title>
<path fill="none" stroke="#ffe66d" stroke-dasharray="5,2" d="M112.68,-170C156.27,-170 229.92,-170 268.76,-170"/>
<polygon fill="#ffe66d" stroke="#ffe66d" points="268.43,-172.45 275.43,-170 268.43,-167.55 268.43,-172.45"/>
</g>
<!-- jovian -->
<g id="node6" class="node">
<title>jovian</title>
<path fill="#ff6b6b" stroke="#4ecdc4" d="M319.25,-57.88C319.25,-57.88 271.75,-57.88 271.75,-57.88 265.75,-57.88 259.75,-51.88 259.75,-45.88 259.75,-45.88 259.75,-28.13 259.75,-28.13 259.75,-22.12 265.75,-16.12 271.75,-16.12 271.75,-16.12 319.25,-16.12 319.25,-16.12 325.25,-16.12 331.25,-22.12 331.25,-28.12 331.25,-28.12 331.25,-45.88 331.25,-45.88 331.25,-51.88 325.25,-57.88 319.25,-57.88"/>
<text xml:space="preserve" text-anchor="middle" x="295.5" y="-44.38" font-family="Helvetica,sans-Serif" font-size="10.00" fill="white">Jovian Moon</text>
<text xml:space="preserve" text-anchor="middle" x="295.5" y="-33.12" font-family="Helvetica,sans-Serif" font-size="10.00" fill="white">(Mining)</text>
<text xml:space="preserve" text-anchor="middle" x="295.5" y="-21.88" font-family="Helvetica,sans-Serif" font-size="10.00" fill="white">Mass Driver</text>
</g>
<!-- packet5 -->
<g id="node11" class="node">
<title>packet5</title>
<ellipse fill="#95d5b2" stroke="#4ecdc4" cx="493.38" cy="-37" rx="18.21" ry="18.21"/>
<text xml:space="preserve" text-anchor="middle" x="493.38" y="-33.9" font-family="Helvetica,sans-Serif" font-size="8.00" fill="#1a1a2e">[P]</text>
</g>
<!-- jovian&#45;&gt;packet5 -->
<g id="edge8" class="edge">
<title>jovian&#45;&gt;packet5</title>
<path fill="none" stroke="#ff6b6b" stroke-dasharray="5,2" d="M331.52,-37C370.37,-37 432.13,-37 466.73,-37"/>
<polygon fill="#ff6b6b" stroke="#ff6b6b" points="466.4,-39.45 473.4,-37 466.4,-34.55 466.4,-39.45"/>
</g>
<!-- packet1&#45;&gt;homeworld -->
<g id="edge2" class="edge">
<title>packet1&#45;&gt;homeworld</title>
<path fill="none" stroke="#95d5b2" d="M894.92,-223.06C864.48,-214.24 799.93,-195.54 757.07,-183.12"/>
<polygon fill="#95d5b2" stroke="#95d5b2" points="757.92,-180.82 750.52,-181.22 756.56,-185.52 757.92,-180.82"/>
<text xml:space="preserve" text-anchor="middle" x="828.38" y="-207.68" font-family="Helvetica,sans-Serif" font-size="8.00" fill="#888888">~hours</text>
</g>
<!-- packet3 -->
<g id="node9" class="node">
<title>packet3</title>
<ellipse fill="#95d5b2" stroke="#4ecdc4" cx="493.38" cy="-267" rx="18.21" ry="18.21"/>
<text xml:space="preserve" text-anchor="middle" x="493.38" y="-263.9" font-family="Helvetica,sans-Serif" font-size="8.00" fill="#1a1a2e">[P]</text>
</g>
<!-- packet2&#45;&gt;packet3 -->
<!-- packet3&#45;&gt;homeworld -->
<g id="edge5" class="edge">
<title>packet3&#45;&gt;homeworld</title>
<path fill="none" stroke="#ffe66d" d="M510.47,-259.94C544.11,-245.19 622.8,-210.67 671.67,-189.24"/>
<polygon fill="#ffe66d" stroke="#ffe66d" points="672.43,-191.58 677.86,-186.52 670.46,-187.09 672.43,-191.58"/>
<text xml:space="preserve" text-anchor="middle" x="600" y="-226.15" font-family="Helvetica,sans-Serif" font-size="8.00" fill="#888888">~days</text>
</g>
<!-- packet4&#45;&gt;homeworld -->
<g id="edge7" class="edge">
<title>packet4&#45;&gt;homeworld</title>
<path fill="none" stroke="#ffe66d" d="M314.14,-170.04C375.6,-170.19 581.42,-170.68 671,-170.9"/>
<polygon fill="#ffe66d" stroke="#ffe66d" points="670.78,-173.35 677.78,-170.91 670.79,-168.45 670.78,-173.35"/>
<text xml:space="preserve" text-anchor="middle" x="493.38" y="-171.98" font-family="Helvetica,sans-Serif" font-size="8.00" fill="#888888">~days</text>
</g>
<!-- packet5&#45;&gt;homeworld -->
<g id="edge9" class="edge">
<title>packet5&#45;&gt;homeworld</title>
<path fill="none" stroke="#ff6b6b" d="M509.42,-46.21C542.56,-66.5 622.83,-115.64 672.17,-145.85"/>
<polygon fill="#ff6b6b" stroke="#ff6b6b" points="670.68,-147.81 677.93,-149.37 673.23,-143.63 670.68,-147.81"/>
<text xml:space="preserve" text-anchor="middle" x="600" y="-109.42" font-family="Helvetica,sans-Serif" font-size="8.00" fill="#888888">~weeks</text>
</g>
<!-- speed_full -->
<g id="node12" class="node">
<title>speed_full</title>
<path fill="#2d2d44" stroke="#4ecdc4" d="M96.12,-420C96.12,-420 57.62,-420 57.62,-420 51.62,-420 45.62,-414 45.62,-408 45.62,-408 45.62,-396 45.62,-396 45.62,-390 51.62,-384 57.62,-384 57.62,-384 96.12,-384 96.12,-384 102.12,-384 108.12,-390 108.12,-396 108.12,-396 108.12,-408 108.12,-408 108.12,-414 102.12,-420 96.12,-420"/>
<text xml:space="preserve" text-anchor="middle" x="76.88" y="-403.2" font-family="Helvetica,sans-Serif" font-size="9.00" fill="white">Full packet:</text>
<text xml:space="preserve" text-anchor="middle" x="76.88" y="-393.45" font-family="Helvetica,sans-Serif" font-size="9.00" fill="white">1,000 km/s</text>
</g>
<!-- speed_half -->
<g id="node13" class="node">
<title>speed_half</title>
<path fill="#2d2d44" stroke="#4ecdc4" d="M315.5,-420C315.5,-420 275.5,-420 275.5,-420 269.5,-420 263.5,-414 263.5,-408 263.5,-408 263.5,-396 263.5,-396 263.5,-390 269.5,-384 275.5,-384 275.5,-384 315.5,-384 315.5,-384 321.5,-384 327.5,-390 327.5,-396 327.5,-396 327.5,-408 327.5,-408 327.5,-414 321.5,-420 315.5,-420"/>
<text xml:space="preserve" text-anchor="middle" x="295.5" y="-403.2" font-family="Helvetica,sans-Serif" font-size="9.00" fill="white">Half packet:</text>
<text xml:space="preserve" text-anchor="middle" x="295.5" y="-393.45" font-family="Helvetica,sans-Serif" font-size="9.00" fill="white">2,000 km/s</text>
</g>
<!-- speed_full&#45;&gt;speed_half -->
<g id="edge10" class="edge">
<title>speed_full&#45;&gt;speed_half</title>
<path fill="none" stroke="#4ecdc4" stroke-dasharray="1,5" d="M108.45,-402C146.75,-402 212.45,-402 254.65,-402"/>
<polygon fill="#4ecdc4" stroke="#4ecdc4" points="254.51,-404.45 261.51,-402 254.51,-399.55 254.51,-404.45"/>
<text xml:space="preserve" text-anchor="middle" x="195.88" y="-403.4" font-family="Helvetica,sans-Serif" font-size="8.00" fill="#888888">2x</text>
</g>
<!-- speed_quarter -->
<g id="node14" class="node">
<title>speed_quarter</title>
<path fill="#2d2d44" stroke="#4ecdc4" d="M520.5,-420C520.5,-420 466.25,-420 466.25,-420 460.25,-420 454.25,-414 454.25,-408 454.25,-408 454.25,-396 454.25,-396 454.25,-390 460.25,-384 466.25,-384 466.25,-384 520.5,-384 520.5,-384 526.5,-384 532.5,-390 532.5,-396 532.5,-396 532.5,-408 532.5,-408 532.5,-414 526.5,-420 520.5,-420"/>
<text xml:space="preserve" text-anchor="middle" x="493.38" y="-403.2" font-family="Helvetica,sans-Serif" font-size="9.00" fill="white">Quarter packet:</text>
<text xml:space="preserve" text-anchor="middle" x="493.38" y="-393.45" font-family="Helvetica,sans-Serif" font-size="9.00" fill="white">4,000 km/s</text>
</g>
<!-- speed_half&#45;&gt;speed_quarter -->
<g id="edge11" class="edge">
<title>speed_half&#45;&gt;speed_quarter</title>
<path fill="none" stroke="#4ecdc4" stroke-dasharray="1,5" d="M327.97,-402C359.71,-402 409.08,-402 445.44,-402"/>
<polygon fill="#4ecdc4" stroke="#4ecdc4" points="445.4,-404.45 452.4,-402 445.4,-399.55 445.4,-404.45"/>
<text xml:space="preserve" text-anchor="middle" x="396.12" y="-403.4" font-family="Helvetica,sans-Serif" font-size="8.00" fill="#888888">2x</text>
</g>
<!-- warning -->
<g id="node15" class="node">
<title>warning</title>
<path fill="#ff6b6b" stroke="#4ecdc4" d="M125.75,-525.5C125.75,-525.5 28,-525.5 28,-525.5 22,-525.5 16,-519.5 16,-513.5 16,-513.5 16,-490.5 16,-490.5 16,-484.5 22,-478.5 28,-478.5 28,-478.5 125.75,-478.5 125.75,-478.5 131.75,-478.5 137.75,-484.5 137.75,-490.5 137.75,-490.5 137.75,-513.5 137.75,-513.5 137.75,-519.5 131.75,-525.5 125.75,-525.5"/>
<text xml:space="preserve" text-anchor="middle" x="76.88" y="-512.95" font-family="Helvetica,sans-Serif" font-size="9.00" fill="white">If receiving mass driver</text>
<text xml:space="preserve" text-anchor="middle" x="76.88" y="-503.2" font-family="Helvetica,sans-Serif" font-size="9.00" fill="white">is removed while packets</text>
<text xml:space="preserve" text-anchor="middle" x="76.88" y="-493.45" font-family="Helvetica,sans-Serif" font-size="9.00" fill="white">are in transit:</text>
<text xml:space="preserve" text-anchor="middle" x="76.88" y="-483.7" font-family="Helvetica,sans-Serif" font-size="9.00" fill="white">CATASTROPHIC IMPACT</text>
</g>
</g>
</svg>
