<?xml version="1.0" encoding="UTF-8" standalone="no"?>
<!DOCTYPE svg PUBLIC "-//W3C//DTD SVG 1.1//EN"
 "http://www.w3.org/Graphics/SVG/1.1/DTD/svg11.dtd">
<!-- Generated by graphviz version 14.1.2 (20260124.0452)
 -->
<!-- Title: FactoryGrowthLoop Pages: 1 -->
<svg width="960pt" height="690pt"
 viewBox="0.00 0.00 960.00 690.00" xmlns="http://www.w3.org/2000/svg" xmlns:xlink="http://www.w3.org/1999/xlink">
<g id="graph0" class="graph" transform="scale(1 1) rotate(0) translate(4 686.19)">
<title>FactoryGrowthLoop</title>
<polygon fill="#1a1a2e" stroke="none" points="-4,4 -4,-686.19 956,-686.19 956,4 -4,4"/>
<g id="clust1" class="cluster">
<title>cluster_loop</title>
<polygon fill="#1a1a2e" stroke="#95d5b2" stroke-dasharray="5,2" points="577,-8 577,-534.34 944,-534.34 944,-8 577,-8"/>
<text xml:space="preserve" text-anchor="middle" x="760.5" y="-517.04" font-family="Helvetica,sans-Serif" font-size="14.00" fill="#95d5b2">Exponential Growth Loop</text>
</g>
<g id="clust2" class="cluster">
<title>cluster_workforce</title>
<polygon fill="#1a1a2e" stroke="#666666" stroke-dasharray="5,2" points="410,-456.47 410,-663.81 569,-663.81 569,-456.47 410,-456.47"/>
<text xml:space="preserve" text-anchor="middle" x="489.5" y="-646.51" font-family="Helvetica,sans-Serif" font-size="14.00" fill="#888888">Workforce Requirement</text>
</g>
<g id="clust3" class="cluster">
<title>cluster_constraints</title>
<polygon fill="#1a1a2e" stroke="#ff6b6b" stroke-dasharray="5,2" points="8,-454 8,-539.69 402,-539.69 402,-454 8,-454"/>
<text xml:space="preserve" text-anchor="middle" x="205" y="-522.39" font-family="Helvetica,sans-Serif" font-size="14.00" fill="#ff6b6b">Growth Constraints</text>
</g>
<g id="clust4" class="cluster">
<title>cluster_strategy</title>
<polygon fill="#1a1a2e" stroke="#95d5b2" stroke-dasharray="5,2" points="695,-578.44 695,-674.19 838,-674.19 838,-578.44 695,-578.44"/>
<text xml:space="preserve" text-anchor="middle" x="766.5" y="-656.89" font-family="Helvetica,sans-Serif" font-size="14.00" fill="#95d5b2">Early Game Strategy</text>
</g>
<!-- minerals -->
<g id="node1" class="node">
<title>minerals</title>
<path fill="#ff6b6b" stroke="#4ecdc4" d="M752.25,-503.34C752.25,-503.34 719.75,-503.34 719.75,-503.34 713.75,-503.34 707.75,-497.34 707.75,-491.34 707.75,-491.34 707.75,-479.34 707.75,-479.34 707.75,-473.34 713.75,-467.34 719.75,-467.34 719.75,-467.34 752.25,-467.34 752.25,-467.34 758.25,-467.34 764.25,-473.34 764.25,-479.34 764.25,-479.34 764.25,-491.34 764.25,-491.34 764.25,-497.34 758.25,-503.34 752.25,-503.34"/>
<text xml:space="preserve" text-anchor="middle" x="736" y="-487.09" font-family="Helvetica,sans-Serif" font-size="10.00" fill="white">Mineral</text>
<text xml:space="preserve" text-anchor="middle" x="736" y="-475.84" font-family="Helvetica,sans-Serif" font-size="10.00" fill="white">Stockpile</text>
</g>
<!-- factories -->
<g id="node2" class="node">
<title>factories</title>
<path fill="#4ecdc4" stroke="#4ecdc4" d="M665.12,-384.5C665.12,-384.5 604.88,-384.5 604.88,-384.5 598.88,-384.5 592.88,-378.5 592.88,-372.5 592.88,-372.5 592.88,-354.75 592.88,-354.75 592.88,-348.75 598.88,-342.75 604.88,-342.75 604.88,-342.75 665.12,-342.75 665.12,-342.75 671.12,-342.75 677.12,-348.75 677.12,-354.75 677.12,-354.75 677.12,-372.5 677.12,-372.5 677.12,-378.5 671.12,-384.5 665.12,-384.5"/>
<text xml:space="preserve" text-anchor="middle" x="635" y="-371" font-family="Helvetica,sans-Serif" font-size="10.00" fill="#1a1a2e">Construction</text>
<text xml:space="preserve" text-anchor="middle" x="635" y="-359.75" font-family="Helvetica,sans-Serif" font-size="10.00" fill="#1a1a2e">Factories</text>
<text xml:space="preserve" text-anchor="middle" x="635" y="-348.5" font-family="Helvetica,sans-Serif" font-size="10.00" fill="#1a1a2e">(10 BP/yr each)</text>
</g>
<!-- minerals&#45;&gt;factories -->
<g id="edge1" class="edge">
<title>minerals&#45;&gt;factories</title>
<path fill="none" stroke="#4ecdc4" stroke-width="1.5" d="M721.31,-466.94C704.87,-447.44 677.99,-415.58 658.59,-392.59"/>
<polygon fill="#4ecdc4" stroke="#4ecdc4" stroke-width="1.5" points="660.83,-390.9 653.53,-386.59 656.55,-394.51 660.83,-390.9"/>
<text xml:space="preserve" text-anchor="middle" x="714.05" y="-419.57" font-family="Helvetica,sans-Serif" font-size="9.00" fill="#888888">Consumed</text>
</g>
<!-- bp_output -->
<g id="node3" class="node">
<title>bp_output</title>
<path fill="#ffe66d" stroke="#4ecdc4" d="M641.25,-265.25C641.25,-265.25 596.75,-265.25 596.75,-265.25 590.75,-265.25 584.75,-259.25 584.75,-253.25 584.75,-253.25 584.75,-241.25 584.75,-241.25 584.75,-235.25 590.75,-229.25 596.75,-229.25 596.75,-229.25 641.25,-229.25 641.25,-229.25 647.25,-229.25 653.25,-235.25 653.25,-241.25 653.25,-241.25 653.25,-253.25 653.25,-253.25 653.25,-259.25 647.25,-265.25 641.25,-265.25"/>
<text xml:space="preserve" text-anchor="middle" x="619" y="-249" font-family="Helvetica,sans-Serif" font-size="10.00" fill="#1a1a2e">Build Points</text>
<text xml:space="preserve" text-anchor="middle" x="619" y="-237.75" font-family="Helvetica,sans-Serif" font-size="10.00" fill="#1a1a2e">Output</text>
</g>
<!-- factories&#45;&gt;bp_output -->
<g id="edge2" class="edge">
<title>factories&#45;&gt;bp_output</title>
<path fill="none" stroke="#4ecdc4" stroke-width="1.5" d="M632.18,-342.44C629.58,-323.87 625.71,-296.18 622.83,-275.63"/>
<polygon fill="#4ecdc4" stroke="#4ecdc4" stroke-width="1.5" points="625.63,-275.4 621.74,-267.86 620.08,-276.17 625.63,-275.4"/>
<text xml:space="preserve" text-anchor="middle" x="647.46" y="-300.32" font-family="Helvetica,sans-Serif" font-size="9.00" fill="#888888">Produces</text>
</g>
<!-- new_factories -->
<g id="node4" class="node">
<title>new_factories</title>
<path fill="#4ecdc4" stroke="#4ecdc4" d="M756.25,-161.5C756.25,-161.5 723.75,-161.5 723.75,-161.5 717.75,-161.5 711.75,-155.5 711.75,-149.5 711.75,-149.5 711.75,-137.5 711.75,-137.5 711.75,-131.5 717.75,-125.5 723.75,-125.5 723.75,-125.5 756.25,-125.5 756.25,-125.5 762.25,-125.5 768.25,-131.5 768.25,-137.5 768.25,-137.5 768.25,-149.5 768.25,-149.5 768.25,-155.5 762.25,-161.5 756.25,-161.5"/>
<text xml:space="preserve" text-anchor="middle" x="740" y="-145.25" font-family="Helvetica,sans-Serif" font-size="10.00" fill="#1a1a2e">More</text>
<text xml:space="preserve" text-anchor="middle" x="740" y="-134" font-family="Helvetica,sans-Serif" font-size="10.00" fill="#1a1a2e">Factories</text>
</g>
<!-- bp_output&#45;&gt;new_factories -->
<g id="edge3" class="edge">
<title>bp_output&#45;&gt;new_factories</title>
<path fill="none" stroke="#4ecdc4" stroke-width="1.5" d="M639.8,-228.76C659.66,-212.06 689.74,-186.77 711.76,-168.25"/>
<polygon fill="#4ecdc4" stroke="#4ecdc4" stroke-width="1.5" points="713.41,-170.52 717.73,-163.22 709.81,-166.23 713.41,-170.52"/>
<text xml:space="preserve" text-anchor="middle" x="695.88" y="-191.7" font-family="Helvetica,sans-Serif" font-size="9.00" fill="#888888">Builds</text>
</g>
<!-- new_mines -->
<g id="node5" class="node">
<title>new_mines</title>
<path fill="#ff6b6b" stroke="#4ecdc4" d="M650,-161.5C650,-161.5 620,-161.5 620,-161.5 614,-161.5 608,-155.5 608,-149.5 608,-149.5 608,-137.5 608,-137.5 608,-131.5 614,-125.5 620,-125.5 620,-125.5 650,-125.5 650,-125.5 656,-125.5 662,-131.5 662,-137.5 662,-137.5 662,-149.5 662,-149.5 662,-155.5 656,-161.5 650,-161.5"/>
<text xml:space="preserve" text-anchor="middle" x="635" y="-145.25" font-family="Helvetica,sans-Serif" font-size="10.00" fill="white">More</text>
<text xml:space="preserve" text-anchor="middle" x="635" y="-134" font-family="Helvetica,sans-Serif" font-size="10.00" fill="white">Mines</text>
</g>
<!-- bp_output&#45;&gt;new_mines -->
<g id="edge4" class="edge">
<title>bp_output&#45;&gt;new_mines</title>
<path fill="none" stroke="#4ecdc4" stroke-width="1.5" d="M621.71,-228.99C624.17,-213.35 627.84,-190.04 630.7,-171.86"/>
<polygon fill="#4ecdc4" stroke="#4ecdc4" stroke-width="1.5" points="633.44,-172.43 631.92,-164.09 627.91,-171.56 633.44,-172.43"/>
<text xml:space="preserve" text-anchor="middle" x="640.23" y="-191.7" font-family="Helvetica,sans-Serif" font-size="9.00" fill="#888888">Builds</text>
</g>
<!-- new_factories&#45;&gt;factories -->
<g id="edge5" class="edge">
<title>new_factories&#45;&gt;factories</title>
<path fill="none" stroke="#95d5b2" stroke-width="1.5" d="M736.17,-161.82C728.63,-193.61 709.86,-262.7 679,-313.75 674.5,-321.19 668.78,-328.54 662.97,-335.18"/>
<polygon fill="#95d5b2" stroke="#95d5b2" stroke-width="1.5" points="661.03,-333.15 657.7,-340.94 665.16,-336.93 661.03,-333.15"/>
<text xml:space="preserve" text-anchor="middle" x="732.06" y="-243.57" font-family="Helvetica,sans-Serif" font-size="9.00" fill="#888888">Adds to</text>
</g>
<!-- more_minerals -->
<g id="node6" class="node">
<title>more_minerals</title>
<path fill="#ff6b6b" stroke="#4ecdc4" d="M831.25,-57.75C831.25,-57.75 792.75,-57.75 792.75,-57.75 786.75,-57.75 780.75,-51.75 780.75,-45.75 780.75,-45.75 780.75,-28 780.75,-28 780.75,-22 786.75,-16 792.75,-16 792.75,-16 831.25,-16 831.25,-16 837.25,-16 843.25,-22 843.25,-28 843.25,-28 843.25,-45.75 843.25,-45.75 843.25,-51.75 837.25,-57.75 831.25,-57.75"/>
<text xml:space="preserve" text-anchor="middle" x="812" y="-44.25" font-family="Helvetica,sans-Serif" font-size="10.00" fill="white">Increased</text>
<text xml:space="preserve" text-anchor="middle" x="812" y="-33" font-family="Helvetica,sans-Serif" font-size="10.00" fill="white">Mineral</text>
<text xml:space="preserve" text-anchor="middle" x="812" y="-21.75" font-family="Helvetica,sans-Serif" font-size="10.00" fill="white">Production</text>
</g>
<!-- new_mines&#45;&gt;more_minerals -->
<g id="edge6" class="edge">
<title>new_mines&#45;&gt;more_minerals</title>
<path fill="none" stroke="#4ecdc4" stroke-width="1.5" d="M662.27,-126.38C691.56,-109.07 738.39,-81.39 771.88,-61.59"/>
<polygon fill="#4ecdc4" stroke="#4ecdc4" stroke-width="1.5" points="773.1,-64.12 778.56,-57.64 770.25,-59.3 773.1,-64.12"/>
<text xml:space="preserve" text-anchor="middle" x="744.93" y="-87.95" font-family="Helvetica,sans-Serif" font-size="9.00" fill="#888888">Extracts</text>
</g>
<!-- more_minerals&#45;&gt;minerals -->
<g id="edge7" class="edge">
<title>more_minerals&#45;&gt;minerals</title>
<path fill="none" stroke="#95d5b2" stroke-width="1.5" d="M836.78,-57.92C857.61,-77.18 884,-108.32 884,-142.5 884,-364.62 884,-364.62 884,-364.62 884,-421.16 817.92,-455.59 774.07,-472.22"/>
<polygon fill="#95d5b2" stroke="#95d5b2" stroke-width="1.5" points="773.23,-469.55 766.67,-474.91 775.14,-474.81 773.23,-469.55"/>
<text xml:space="preserve" text-anchor="middle" x="909.88" y="-243.57" font-family="Helvetica,sans-Serif" font-size="9.00" fill="#888888">Replenishes</text>
</g>
<!-- population -->
<g id="node7" class="node">
<title>population</title>
<path fill="#2d2d44" stroke="#4ecdc4" d="M549.12,-506.22C549.12,-506.22 500.88,-506.22 500.88,-506.22 494.88,-506.22 488.88,-500.22 488.88,-494.22 488.88,-494.22 488.88,-476.47 488.88,-476.47 488.88,-470.47 494.88,-464.47 500.88,-464.47 500.88,-464.47 549.12,-464.47 549.12,-464.47 555.12,-464.47 561.12,-470.47 561.12,-476.47 561.12,-476.47 561.12,-494.22 561.12,-494.22 561.12,-500.22 555.12,-506.22 549.12,-506.22"/>
<text xml:space="preserve" text-anchor="middle" x="525" y="-492.72" font-family="Helvetica,sans-Serif" font-size="10.00" fill="white">Population</text>
<text xml:space="preserve" text-anchor="middle" x="525" y="-481.47" font-family="Helvetica,sans-Serif" font-size="10.00" fill="white">(50k workers</text>
<text xml:space="preserve" text-anchor="middle" x="525" y="-470.22" font-family="Helvetica,sans-Serif" font-size="10.00" fill="white">per factory)</text>
</g>
<!-- population&#45;&gt;factories -->
<g id="edge8" class="edge">
<title>population&#45;&gt;factories</title>
<path fill="none" stroke="#4ecdc4" stroke-width="1.5" stroke-dasharray="5,2" d="M543.66,-464.04C561.86,-444.22 589.68,-413.95 609.83,-392.01"/>
<polygon fill="#4ecdc4" stroke="#4ecdc4" stroke-width="1.5" points="611.73,-394.09 615.08,-386.31 607.6,-390.3 611.73,-394.09"/>
<text xml:space="preserve" text-anchor="middle" x="598.85" y="-419.57" font-family="Helvetica,sans-Serif" font-size="9.00" fill="#888888">Staff</text>
</g>
<!-- pop_growth -->
<g id="node8" class="node">
<title>pop_growth</title>
<path fill="#2d2d44" stroke="#4ecdc4" d="M543.88,-632.81C543.88,-632.81 506.12,-632.81 506.12,-632.81 500.12,-632.81 494.12,-626.81 494.12,-620.81 494.12,-620.81 494.12,-608.81 494.12,-608.81 494.12,-602.81 500.12,-596.81 506.12,-596.81 506.12,-596.81 543.88,-596.81 543.88,-596.81 549.88,-596.81 555.88,-602.81 555.88,-608.81 555.88,-608.81 555.88,-620.81 555.88,-620.81 555.88,-626.81 549.88,-632.81 543.88,-632.81"/>
<text xml:space="preserve" text-anchor="middle" x="525" y="-616.56" font-family="Helvetica,sans-Serif" font-size="10.00" fill="white">Population</text>
<text xml:space="preserve" text-anchor="middle" x="525" y="-605.31" font-family="Helvetica,sans-Serif" font-size="10.00" fill="white">Growth</text>
</g>
<!-- pop_growth&#45;&gt;population -->
<g id="edge9" class="edge">
<title>pop_growth&#45;&gt;population</title>
<path fill="none" stroke="#4ecdc4" stroke-width="1.5" stroke-dasharray="5,2" d="M525,-596.36C525,-575.83 525,-541.42 525,-516.54"/>
<polygon fill="#4ecdc4" stroke="#4ecdc4" stroke-width="1.5" points="527.8,-516.8 525,-508.8 522.2,-516.8 527.8,-516.8"/>
<text xml:space="preserve" text-anchor="middle" x="543" y="-548.89" font-family="Helvetica,sans-Serif" font-size="9.00" fill="#888888">Expands</text>
</g>
<!-- constraint_minerals -->
<g id="node9" class="node">
<title>constraint_minerals</title>
<path fill="#ff6b6b" stroke="#4ecdc4" d="M260.1,-482.12C260.1,-482.12 260.1,-488.57 260.1,-488.57 260.1,-491.79 257.28,-496.58 254.46,-498.14 254.46,-498.14 241.07,-505.56 241.07,-505.56 238.26,-507.12 232.21,-508.69 228.99,-508.69 228.99,-508.69 207.01,-508.69 207.01,-508.69 203.79,-508.69 197.74,-507.12 194.93,-505.56 194.93,-505.56 181.54,-498.14 181.54,-498.14 178.72,-496.58 175.9,-491.79 175.9,-488.57 175.9,-488.57 175.9,-482.12 175.9,-482.12 175.9,-478.9 178.72,-474.11 181.54,-472.55 181.54,-472.55 194.93,-465.13 194.93,-465.13 197.74,-463.56 203.79,-462 207.01,-462 207.01,-462 228.99,-462 228.99,-462 232.21,-462 238.26,-463.56 241.07,-465.13 241.07,-465.13 254.46,-472.55 254.46,-472.55 257.28,-474.11 260.1,-478.9 260.1,-482.12"/>
<text xml:space="preserve" text-anchor="middle" x="218" y="-487.09" font-family="Helvetica,sans-Serif" font-size="10.00" fill="white">Mineral</text>
<text xml:space="preserve" text-anchor="middle" x="218" y="-475.84" font-family="Helvetica,sans-Serif" font-size="10.00" fill="white">Shortage</text>
</g>
<!-- constraint_minerals&#45;&gt;bp_output -->
<g id="edge10" class="edge">
<title>constraint_minerals&#45;&gt;bp_output</title>
<path fill="none" stroke="#ff6b6b" stroke-width="1.5" stroke-dasharray="5,2" d="M246.2,-467.74C316.66,-426.25 500.52,-318.01 580.69,-270.81"/>
<polygon fill="#ff6b6b" stroke="#ff6b6b" stroke-width="1.5" points="582.05,-273.25 587.53,-266.78 579.21,-268.43 582.05,-273.25"/>
<text xml:space="preserve" text-anchor="middle" x="480.11" y="-364.82" font-family="Helvetica,sans-Serif" font-size="9.00" fill="#888888">Pauses</text>
<text xml:space="preserve" text-anchor="middle" x="480.11" y="-355.07" font-family="Helvetica,sans-Serif" font-size="9.00" fill="#888888">production</text>
</g>
<!-- constraint_workers -->
<g id="node10" class="node">
<title>constraint_workers</title>
<path fill="#ff6b6b" stroke="#4ecdc4" d="M394.1,-482.12C394.1,-482.12 394.1,-488.57 394.1,-488.57 394.1,-491.79 391.28,-496.58 388.46,-498.14 388.46,-498.14 375.07,-505.56 375.07,-505.56 372.26,-507.12 366.21,-508.69 362.99,-508.69 362.99,-508.69 341.01,-508.69 341.01,-508.69 337.79,-508.69 331.74,-507.12 328.93,-505.56 328.93,-505.56 315.54,-498.14 315.54,-498.14 312.72,-496.58 309.9,-491.79 309.9,-488.57 309.9,-488.57 309.9,-482.12 309.9,-482.12 309.9,-478.9 312.72,-474.11 315.54,-472.55 315.54,-472.55 328.93,-465.13 328.93,-465.13 331.74,-463.56 337.79,-462 341.01,-462 341.01,-462 362.99,-462 362.99,-462 366.21,-462 372.26,-463.56 375.07,-465.13 375.07,-465.13 388.46,-472.55 388.46,-472.55 391.28,-474.11 394.1,-478.9 394.1,-482.12"/>
<text xml:space="preserve" text-anchor="middle" x="352" y="-487.09" font-family="Helvetica,sans-Serif" font-size="10.00" fill="white">Worker</text>
<text xml:space="preserve" text-anchor="middle" x="352" y="-475.84" font-family="Helvetica,sans-Serif" font-size="10.00" fill="white">Shortage</text>
</g>
<!-- constraint_workers&#45;&gt;factories -->
<g id="edge11" class="edge">
<title>constraint_workers&#45;&gt;factories</title>
<path fill="none" stroke="#ff6b6b" stroke-width="1.5" stroke-dasharray="5,2" d="M377.18,-466.29C383.78,-461.96 391.01,-457.57 398,-454 459.2,-422.77 533.97,-396.37 582.96,-380.54"/>
<polygon fill="#ff6b6b" stroke="#ff6b6b" stroke-width="1.5" points="583.77,-383.22 590.54,-378.11 582.07,-377.88 583.77,-383.22"/>
<text xml:space="preserve" text-anchor="middle" x="504.25" y="-424.45" font-family="Helvetica,sans-Serif" font-size="9.00" fill="#888888">Idles</text>
<text xml:space="preserve" text-anchor="middle" x="504.25" y="-414.7" font-family="Helvetica,sans-Serif" font-size="9.00" fill="#888888">factories</text>
</g>
<!-- constraint_bp -->
<g id="node11" class="node">
<title>constraint_bp</title>
<path fill="#ff6b6b" stroke="#4ecdc4" d="M125.72,-482.12C125.72,-482.12 125.72,-488.57 125.72,-488.57 125.72,-491.79 122.76,-496.28 119.79,-497.54 119.79,-497.54 99.6,-506.16 99.6,-506.16 96.63,-507.42 90.44,-508.69 87.22,-508.69 87.22,-508.69 54.78,-508.69 54.78,-508.69 51.56,-508.69 45.37,-507.42 42.4,-506.16 42.4,-506.16 22.21,-497.54 22.21,-497.54 19.24,-496.28 16.28,-491.79 16.28,-488.57 16.28,-488.57 16.28,-482.12 16.28,-482.12 16.28,-478.9 19.24,-474.41 22.21,-473.15 22.21,-473.15 42.4,-464.53 42.4,-464.53 45.37,-463.26 51.56,-462 54.78,-462 54.78,-462 87.22,-462 87.22,-462 90.44,-462 96.63,-463.26 99.6,-464.53 99.6,-464.53 119.79,-473.15 119.79,-473.15 122.76,-474.41 125.72,-478.9 125.72,-482.12"/>
<text xml:space="preserve" text-anchor="middle" x="71" y="-487.09" font-family="Helvetica,sans-Serif" font-size="10.00" fill="white">BP Capacity</text>
<text xml:space="preserve" text-anchor="middle" x="71" y="-475.84" font-family="Helvetica,sans-Serif" font-size="10.00" fill="white">Limit</text>
</g>
<!-- constraint_bp&#45;&gt;new_factories -->
<g id="edge12" class="edge">
<title>constraint_bp&#45;&gt;new_factories</title>
<path fill="none" stroke="#ff6b6b" stroke-width="1.5" stroke-dasharray="5,2" d="M102.38,-465.32C184.57,-415.97 413.7,-281.35 615,-190.5 643.56,-177.61 676.91,-165.48 701.98,-156.91"/>
<polygon fill="#ff6b6b" stroke="#ff6b6b" stroke-width="1.5" points="702.66,-159.64 709.34,-154.42 700.86,-154.33 702.66,-159.64"/>
<text xml:space="preserve" text-anchor="middle" x="425.53" y="-305.2" font-family="Helvetica,sans-Serif" font-size="9.00" fill="#888888">Slows</text>
<text xml:space="preserve" text-anchor="middle" x="425.53" y="-295.45" font-family="Helvetica,sans-Serif" font-size="9.00" fill="#888888">expansion</text>
</g>
<!-- strategy -->
<g id="node12" class="node">
<title>strategy</title>
<polygon fill="#2d2d44" stroke="#4ecdc4" points="819.38,-643.19 706.62,-643.19 706.62,-586.44 825.38,-586.44 825.38,-637.19 819.38,-643.19"/>
<polyline fill="none" stroke="#4ecdc4" points="819.38,-643.19 819.38,-637.19"/>
<polyline fill="none" stroke="#4ecdc4" points="825.38,-637.19 819.38,-637.19"/>
<text xml:space="preserve" text-anchor="middle" x="766" y="-630.64" font-family="Helvetica,sans-Serif" font-size="9.00" fill="white">Prioritize:</text>
<text xml:space="preserve" text-anchor="middle" x="766" y="-620.89" font-family="Helvetica,sans-Serif" font-size="9.00" fill="white">1. Convert CI to Factories</text>
<text xml:space="preserve" text-anchor="middle" x="766" y="-611.14" font-family="Helvetica,sans-Serif" font-size="9.00" fill="white">2. Build more Factories</text>
<text xml:space="preserve" text-anchor="middle" x="766" y="-601.39" font-family="Helvetica,sans-Serif" font-size="9.00" fill="white">3. Build Mines</text>
<text xml:space="preserve" text-anchor="middle" x="766" y="-591.64" font-family="Helvetica,sans-Serif" font-size="9.00" fill="white">4. Then Research Labs</text>
</g>
</g>
</svg>
