<?xml version="1.0" encoding="UTF-8" standalone="no"?>
<!DOCTYPE svg PUBLIC "-//W3C//DTD SVG 1.1//EN"
 "http://www.w3.org/Graphics/SVG/1.1/DTD/svg11.dtd">
<!-- Generated by graphviz version 14.1.2 (20260124.0452)
 -->
<!-- Title: WorkforceAllocation Pages: 1 -->
<svg width="451pt" height="699pt"
 viewBox="0.00 0.00 451.00 699.00" xmlns="http://www.w3.org/2000/svg" xmlns:xlink="http://www.w3.org/1999/xlink">
<g id="graph0" class="graph" transform="scale(1 1) rotate(0) translate(4 694.88)">
<title>WorkforceAllocation</title>
<polygon fill="#1a1a2e" stroke="none" points="-4,4 -4,-694.88 447.38,-694.88 447.38,4 -4,4"/>
<!-- total -->
<g id="node1" class="node">
<title>total</title>
<ellipse fill="#ffe66d" stroke="#4ecdc4" cx="91.12" cy="-669.32" rx="72" ry="21.57"/>
<text xml:space="preserve" text-anchor="middle" x="91.12" y="-671.07" font-family="Helvetica,sans-Serif" font-size="10.00" fill="#1a1a2e">Total Population</text>
<text xml:space="preserve" text-anchor="middle" x="91.12" y="-659.82" font-family="Helvetica,sans-Serif" font-size="10.00" fill="#1a1a2e">10,000,000</text>
</g>
<!-- nonworkers -->
<g id="node2" class="node">
<title>nonworkers</title>
<path fill="#888888" stroke="#4ecdc4" d="M93.12,-580C93.12,-580 23.12,-580 23.12,-580 17.12,-580 11.12,-574 11.12,-568 11.12,-568 11.12,-550.25 11.12,-550.25 11.12,-544.25 17.12,-538.25 23.12,-538.25 23.12,-538.25 93.12,-538.25 93.12,-538.25 99.12,-538.25 105.12,-544.25 105.12,-550.25 105.12,-550.25 105.12,-568 105.12,-568 105.12,-574 99.12,-580 93.12,-580"/>
<text xml:space="preserve" text-anchor="middle" x="58.12" y="-566.5" font-family="Helvetica,sans-Serif" font-size="10.00" fill="white">Non&#45;Workers</text>
<text xml:space="preserve" text-anchor="middle" x="58.12" y="-555.25" font-family="Helvetica,sans-Serif" font-size="10.00" fill="white">(Children, Elderly)</text>
<text xml:space="preserve" text-anchor="middle" x="58.12" y="-544" font-family="Helvetica,sans-Serif" font-size="10.00" fill="white">4,000,000 (40%)</text>
</g>
<!-- total&#45;&gt;nonworkers -->
<g id="edge1" class="edge">
<title>total&#45;&gt;nonworkers</title>
<path fill="none" stroke="#4ecdc4" d="M84.76,-647.46C79.63,-630.63 72.36,-606.8 66.71,-588.28"/>
<polygon fill="#4ecdc4" stroke="#4ecdc4" points="69.07,-587.62 64.69,-581.64 64.39,-589.05 69.07,-587.62"/>
<text xml:space="preserve" text-anchor="middle" x="84.99" y="-610.2" font-family="Helvetica,sans-Serif" font-size="9.00" fill="#888888">40%</text>
</g>
<!-- workers -->
<g id="node3" class="node">
<title>workers</title>
<path fill="#95d5b2" stroke="#4ecdc4" d="M230.5,-577.12C230.5,-577.12 159.75,-577.12 159.75,-577.12 153.75,-577.12 147.75,-571.12 147.75,-565.12 147.75,-565.12 147.75,-553.12 147.75,-553.12 147.75,-547.12 153.75,-541.12 159.75,-541.12 159.75,-541.12 230.5,-541.12 230.5,-541.12 236.5,-541.12 242.5,-547.12 242.5,-553.12 242.5,-553.12 242.5,-565.12 242.5,-565.12 242.5,-571.12 236.5,-577.12 230.5,-577.12"/>
<text xml:space="preserve" text-anchor="middle" x="195.12" y="-560.88" font-family="Helvetica,sans-Serif" font-size="10.00" fill="#1a1a2e">Available Workers</text>
<text xml:space="preserve" text-anchor="middle" x="195.12" y="-549.62" font-family="Helvetica,sans-Serif" font-size="10.00" fill="#1a1a2e">6,000,000 (60%)</text>
</g>
<!-- total&#45;&gt;workers -->
<g id="edge2" class="edge">
<title>total&#45;&gt;workers</title>
<path fill="none" stroke="#4ecdc4" d="M110.44,-648.22C128.04,-629.91 154.04,-602.87 172.58,-583.58"/>
<polygon fill="#4ecdc4" stroke="#4ecdc4" points="174.18,-585.45 177.27,-578.7 170.65,-582.05 174.18,-585.45"/>
<text xml:space="preserve" text-anchor="middle" x="155.62" y="-610.2" font-family="Helvetica,sans-Serif" font-size="9.00" fill="#888888">60%</text>
</g>
<!-- service -->
<g id="node4" class="node">
<title>service</title>
<path fill="#2d2d44" stroke="#4ecdc4" d="M152.38,-460.75C152.38,-460.75 95.88,-460.75 95.88,-460.75 89.88,-460.75 83.88,-454.75 83.88,-448.75 83.88,-448.75 83.88,-431 83.88,-431 83.88,-425 89.88,-419 95.88,-419 95.88,-419 152.38,-419 152.38,-419 158.38,-419 164.38,-425 164.38,-431 164.38,-431 164.38,-448.75 164.38,-448.75 164.38,-454.75 158.38,-460.75 152.38,-460.75"/>
<text xml:space="preserve" text-anchor="middle" x="124.12" y="-447.25" font-family="Helvetica,sans-Serif" font-size="10.00" fill="white">Service Sector</text>
<text xml:space="preserve" text-anchor="middle" x="124.12" y="-436" font-family="Helvetica,sans-Serif" font-size="10.00" fill="white">4,200,000</text>
<text xml:space="preserve" text-anchor="middle" x="124.12" y="-424.75" font-family="Helvetica,sans-Serif" font-size="10.00" fill="white">(70% cap)</text>
</g>
<!-- workers&#45;&gt;service -->
<g id="edge3" class="edge">
<title>workers&#45;&gt;service</title>
<path fill="none" stroke="#4ecdc4" d="M184.19,-541.01C178.26,-531.67 170.84,-519.87 164.38,-509.25 156.17,-495.77 147.25,-480.67 139.9,-468.1"/>
<polygon fill="#4ecdc4" stroke="#4ecdc4" points="142.18,-467.13 136.53,-462.32 137.94,-469.6 142.18,-467.13"/>
<text xml:space="preserve" text-anchor="middle" x="173.75" y="-500.7" font-family="Helvetica,sans-Serif" font-size="9.00" fill="#888888">70%</text>
<text xml:space="preserve" text-anchor="middle" x="173.75" y="-490.95" font-family="Helvetica,sans-Serif" font-size="9.00" fill="#888888">max</text>
</g>
<!-- manufacturing -->
<g id="node5" class="node">
<title>manufacturing</title>
<path fill="#4ecdc4" stroke="#4ecdc4" d="M298.75,-460.75C298.75,-460.75 235.5,-460.75 235.5,-460.75 229.5,-460.75 223.5,-454.75 223.5,-448.75 223.5,-448.75 223.5,-431 223.5,-431 223.5,-425 229.5,-419 235.5,-419 235.5,-419 298.75,-419 298.75,-419 304.75,-419 310.75,-425 310.75,-431 310.75,-431 310.75,-448.75 310.75,-448.75 310.75,-454.75 304.75,-460.75 298.75,-460.75"/>
<text xml:space="preserve" text-anchor="middle" x="267.12" y="-447.25" font-family="Helvetica,sans-Serif" font-size="10.00" fill="#1a1a2e">Manufacturing</text>
<text xml:space="preserve" text-anchor="middle" x="267.12" y="-436" font-family="Helvetica,sans-Serif" font-size="10.00" fill="#1a1a2e">Sector</text>
<text xml:space="preserve" text-anchor="middle" x="267.12" y="-424.75" font-family="Helvetica,sans-Serif" font-size="10.00" fill="#1a1a2e">1,800,000 (30%)</text>
</g>
<!-- workers&#45;&gt;manufacturing -->
<g id="edge4" class="edge">
<title>workers&#45;&gt;manufacturing</title>
<path fill="none" stroke="#4ecdc4" d="M205.75,-540.82C217.49,-521.71 236.55,-490.67 250.32,-468.25"/>
<polygon fill="#4ecdc4" stroke="#4ecdc4" points="252.4,-469.54 253.97,-462.29 248.22,-466.97 252.4,-469.54"/>
<text xml:space="preserve" text-anchor="middle" x="244.81" y="-500.7" font-family="Helvetica,sans-Serif" font-size="9.00" fill="#888888">30%</text>
<text xml:space="preserve" text-anchor="middle" x="244.81" y="-490.95" font-family="Helvetica,sans-Serif" font-size="9.00" fill="#888888">min</text>
</g>
<!-- note1 -->
<g id="node14" class="node">
<title>note1</title>
<polygon fill="#2d2d44" stroke="#4ecdc4" points="149.62,-360 28.62,-360 28.62,-313 155.62,-313 155.62,-354 149.62,-360"/>
<polyline fill="none" stroke="#4ecdc4" points="149.62,-360 149.62,-354"/>
<polyline fill="none" stroke="#4ecdc4" points="155.62,-354 149.62,-354"/>
<text xml:space="preserve" text-anchor="middle" x="92.12" y="-347.45" font-family="Helvetica,sans-Serif" font-size="9.00" fill="white">30% Manufacturing Sector</text>
<text xml:space="preserve" text-anchor="middle" x="92.12" y="-337.7" font-family="Helvetica,sans-Serif" font-size="9.00" fill="white">is the minimum guaranteed</text>
<text xml:space="preserve" text-anchor="middle" x="92.12" y="-327.95" font-family="Helvetica,sans-Serif" font-size="9.00" fill="white">for industry (70% service</text>
<text xml:space="preserve" text-anchor="middle" x="92.12" y="-318.2" font-family="Helvetica,sans-Serif" font-size="9.00" fill="white">sector cap in C# Aurora)</text>
</g>
<!-- service&#45;&gt;note1 -->
<g id="edge13" class="edge">
<title>service&#45;&gt;note1</title>
<path fill="none" stroke="#666666" stroke-dasharray="1,5" d="M117.8,-418.85C112.48,-402 104.88,-377.91 99.33,-360.32"/>
</g>
<!-- agri_header -->
<g id="node6" class="node">
<title>agri_header</title>
<path fill="#ffe66d" stroke="#4ecdc4" d="M356,-354.5C356,-354.5 210.25,-354.5 210.25,-354.5 204.25,-354.5 198.25,-348.5 198.25,-342.5 198.25,-342.5 198.25,-330.5 198.25,-330.5 198.25,-324.5 204.25,-318.5 210.25,-318.5 210.25,-318.5 356,-318.5 356,-318.5 362,-318.5 368,-324.5 368,-330.5 368,-330.5 368,-342.5 368,-342.5 368,-348.5 362,-354.5 356,-354.5"/>
<text xml:space="preserve" text-anchor="middle" x="283.12" y="-338.25" font-family="Helvetica,sans-Serif" font-size="10.00" fill="#1a1a2e">Agriculture &amp; Environment</text>
<text xml:space="preserve" text-anchor="middle" x="283.12" y="-327" font-family="Helvetica,sans-Serif" font-size="10.00" fill="#1a1a2e">Formula: 5% + (5% x Colony Cost)</text>
</g>
<!-- manufacturing&#45;&gt;agri_header -->
<g id="edge5" class="edge">
<title>manufacturing&#45;&gt;agri_header</title>
<path fill="none" stroke="#4ecdc4" d="M270.29,-418.85C272.82,-402.78 276.4,-380.13 279.13,-362.81"/>
<polygon fill="#4ecdc4" stroke="#4ecdc4" points="281.49,-363.58 280.16,-356.28 276.65,-362.81 281.49,-363.58"/>
</g>
<!-- cc0 -->
<g id="node7" class="node">
<title>cc0</title>
<path fill="#95d5b2" stroke="#4ecdc4" d="M198.5,-254C198.5,-254 163.75,-254 163.75,-254 157.75,-254 151.75,-248 151.75,-242 151.75,-242 151.75,-213 151.75,-213 151.75,-207 157.75,-201 163.75,-201 163.75,-201 198.5,-201 198.5,-201 204.5,-201 210.5,-207 210.5,-213 210.5,-213 210.5,-242 210.5,-242 210.5,-248 204.5,-254 198.5,-254"/>
<text xml:space="preserve" text-anchor="middle" x="181.12" y="-240.5" font-family="Helvetica,sans-Serif" font-size="10.00" fill="#1a1a2e">CC 0.0</text>
<text xml:space="preserve" text-anchor="middle" x="181.12" y="-229.25" font-family="Helvetica,sans-Serif" font-size="10.00" fill="#1a1a2e">Agri: 5%</text>
<text xml:space="preserve" text-anchor="middle" x="181.12" y="-218" font-family="Helvetica,sans-Serif" font-size="10.00" fill="#1a1a2e">Industrial:</text>
<text xml:space="preserve" text-anchor="middle" x="181.12" y="-206.75" font-family="Helvetica,sans-Serif" font-size="10.00" fill="#1a1a2e">1,710,000</text>
</g>
<!-- agri_header&#45;&gt;cc0 -->
<g id="edge6" class="edge">
<title>agri_header&#45;&gt;cc0</title>
<path fill="none" stroke="#4ecdc4" d="M266.74,-318.31C251.83,-302.68 229.47,-279.21 211.33,-260.19"/>
<polygon fill="#4ecdc4" stroke="#4ecdc4" points="213.5,-258.91 206.9,-255.54 209.95,-262.29 213.5,-258.91"/>
</g>
<!-- cc2 -->
<g id="node8" class="node">
<title>cc2</title>
<path fill="#ffe66d" stroke="#4ecdc4" d="M300.5,-254C300.5,-254 265.75,-254 265.75,-254 259.75,-254 253.75,-248 253.75,-242 253.75,-242 253.75,-213 253.75,-213 253.75,-207 259.75,-201 265.75,-201 265.75,-201 300.5,-201 300.5,-201 306.5,-201 312.5,-207 312.5,-213 312.5,-213 312.5,-242 312.5,-242 312.5,-248 306.5,-254 300.5,-254"/>
<text xml:space="preserve" text-anchor="middle" x="283.12" y="-240.5" font-family="Helvetica,sans-Serif" font-size="10.00" fill="#1a1a2e">CC 2.0</text>
<text xml:space="preserve" text-anchor="middle" x="283.12" y="-229.25" font-family="Helvetica,sans-Serif" font-size="10.00" fill="#1a1a2e">Agri: 15%</text>
<text xml:space="preserve" text-anchor="middle" x="283.12" y="-218" font-family="Helvetica,sans-Serif" font-size="10.00" fill="#1a1a2e">Industrial:</text>
<text xml:space="preserve" text-anchor="middle" x="283.12" y="-206.75" font-family="Helvetica,sans-Serif" font-size="10.00" fill="#1a1a2e">1,530,000</text>
</g>
<!-- agri_header&#45;&gt;cc2 -->
<g id="edge7" class="edge">
<title>agri_header&#45;&gt;cc2</title>
<path fill="none" stroke="#4ecdc4" d="M283.12,-318.31C283.12,-303.42 283.12,-281.42 283.12,-262.92"/>
<polygon fill="#4ecdc4" stroke="#4ecdc4" points="285.58,-262.95 283.13,-255.95 280.68,-262.95 285.58,-262.95"/>
</g>
<!-- cc4 -->
<g id="node9" class="node">
<title>cc4</title>
<path fill="#ff6b6b" stroke="#4ecdc4" d="M402.5,-254C402.5,-254 367.75,-254 367.75,-254 361.75,-254 355.75,-248 355.75,-242 355.75,-242 355.75,-213 355.75,-213 355.75,-207 361.75,-201 367.75,-201 367.75,-201 402.5,-201 402.5,-201 408.5,-201 414.5,-207 414.5,-213 414.5,-213 414.5,-242 414.5,-242 414.5,-248 408.5,-254 402.5,-254"/>
<text xml:space="preserve" text-anchor="middle" x="385.12" y="-240.5" font-family="Helvetica,sans-Serif" font-size="10.00" fill="white">CC 4.0</text>
<text xml:space="preserve" text-anchor="middle" x="385.12" y="-229.25" font-family="Helvetica,sans-Serif" font-size="10.00" fill="white">Agri: 25%</text>
<text xml:space="preserve" text-anchor="middle" x="385.12" y="-218" font-family="Helvetica,sans-Serif" font-size="10.00" fill="white">Industrial:</text>
<text xml:space="preserve" text-anchor="middle" x="385.12" y="-206.75" font-family="Helvetica,sans-Serif" font-size="10.00" fill="white">1,350,000</text>
</g>
<!-- agri_header&#45;&gt;cc4 -->
<g id="edge8" class="edge">
<title>agri_header&#45;&gt;cc4</title>
<path fill="none" stroke="#4ecdc4" d="M299.51,-318.31C314.42,-302.68 336.78,-279.21 354.92,-260.19"/>
<polygon fill="#4ecdc4" stroke="#4ecdc4" points="356.3,-262.29 359.35,-255.54 352.75,-258.91 356.3,-262.29"/>
</g>
<!-- install_header -->
<g id="node10" class="node">
<title>install_header</title>
<path fill="#4ecdc4" stroke="#4ecdc4" d="M249.5,-136.5C249.5,-136.5 112.75,-136.5 112.75,-136.5 106.75,-136.5 100.75,-130.5 100.75,-124.5 100.75,-124.5 100.75,-112.5 100.75,-112.5 100.75,-106.5 106.75,-100.5 112.75,-100.5 112.75,-100.5 249.5,-100.5 249.5,-100.5 255.5,-100.5 261.5,-106.5 261.5,-112.5 261.5,-112.5 261.5,-124.5 261.5,-124.5 261.5,-130.5 255.5,-136.5 249.5,-136.5"/>
<text xml:space="preserve" text-anchor="middle" x="181.12" y="-114.62" font-family="Helvetica,sans-Serif" font-size="10.00" fill="#1a1a2e">Installation Worker Requirements</text>
</g>
<!-- cc0&#45;&gt;install_header -->
<g id="edge9" class="edge">
<title>cc0&#45;&gt;install_header</title>
<path fill="none" stroke="#666666" stroke-dasharray="5,2" d="M181.12,-200.6C181.12,-183.74 181.12,-161.86 181.12,-145.07"/>
<polygon fill="#666666" stroke="#666666" points="183.58,-145.32 181.13,-138.32 178.68,-145.32 183.58,-145.32"/>
</g>
<!-- note2 -->
<g id="node15" class="node">
<title>note2</title>
<polygon fill="#ff6b6b" stroke="#4ecdc4" points="437.38,-142 326.88,-142 326.88,-95 443.38,-95 443.38,-136 437.38,-142"/>
<polyline fill="none" stroke="#4ecdc4" points="437.38,-142 437.38,-136"/>
<polyline fill="none" stroke="#4ecdc4" points="443.38,-136 437.38,-136"/>
<text xml:space="preserve" text-anchor="middle" x="385.12" y="-129.45" font-family="Helvetica,sans-Serif" font-size="9.00" fill="white">At CC 5.0+:</text>
<text xml:space="preserve" text-anchor="middle" x="385.12" y="-119.7" font-family="Helvetica,sans-Serif" font-size="9.00" fill="white">Manufacturing workforce</text>
<text xml:space="preserve" text-anchor="middle" x="385.12" y="-109.95" font-family="Helvetica,sans-Serif" font-size="9.00" fill="white">progressively reduced</text>
<text xml:space="preserve" text-anchor="middle" x="385.12" y="-100.2" font-family="Helvetica,sans-Serif" font-size="9.00" fill="white">toward zero</text>
</g>
<!-- cc4&#45;&gt;note2 -->
<g id="edge14" class="edge">
<title>cc4&#45;&gt;note2</title>
<path fill="none" stroke="#666666" stroke-dasharray="1,5" d="M385.12,-200.6C385.12,-182.79 385.12,-159.35 385.12,-142.26"/>
</g>
<!-- i1 -->
<g id="node11" class="node">
<title>i1</title>
<path fill="#2d2d44" stroke="#4ecdc4" d="M84.25,-36C84.25,-36 12,-36 12,-36 6,-36 0,-30 0,-24 0,-24 0,-12 0,-12 0,-6 6,0 12,0 12,0 84.25,0 84.25,0 90.25,0 96.25,-6 96.25,-12 96.25,-12 96.25,-24 96.25,-24 96.25,-30 90.25,-36 84.25,-36"/>
<text xml:space="preserve" text-anchor="middle" x="48.12" y="-19.75" font-family="Helvetica,sans-Serif" font-size="10.00" fill="white">Research Facility</text>
<text xml:space="preserve" text-anchor="middle" x="48.12" y="-8.5" font-family="Helvetica,sans-Serif" font-size="10.00" fill="white">1,000,000 workers</text>
</g>
<!-- install_header&#45;&gt;i1 -->
<g id="edge10" class="edge">
<title>install_header&#45;&gt;i1</title>
<path fill="none" stroke="#4ecdc4" d="M157.65,-100.12C135.53,-83.73 102.26,-59.09 78.2,-41.27"/>
<polygon fill="#4ecdc4" stroke="#4ecdc4" points="79.66,-39.31 72.58,-37.11 76.75,-43.25 79.66,-39.31"/>
</g>
<!-- i2 -->
<g id="node12" class="node">
<title>i2</title>
<path fill="#2d2d44" stroke="#4ecdc4" d="M210.5,-36C210.5,-36 151.75,-36 151.75,-36 145.75,-36 139.75,-30 139.75,-24 139.75,-24 139.75,-12 139.75,-12 139.75,-6 145.75,0 151.75,0 151.75,0 210.5,0 210.5,0 216.5,0 222.5,-6 222.5,-12 222.5,-12 222.5,-24 222.5,-24 222.5,-30 216.5,-36 210.5,-36"/>
<text xml:space="preserve" text-anchor="middle" x="181.12" y="-19.75" font-family="Helvetica,sans-Serif" font-size="10.00" fill="white">Mine / Factory</text>
<text xml:space="preserve" text-anchor="middle" x="181.12" y="-8.5" font-family="Helvetica,sans-Serif" font-size="10.00" fill="white">50,000 workers</text>
</g>
<!-- install_header&#45;&gt;i2 -->
<g id="edge11" class="edge">
<title>install_header&#45;&gt;i2</title>
<path fill="none" stroke="#4ecdc4" d="M181.12,-100.34C181.12,-84.9 181.12,-62 181.12,-44.43"/>
<polygon fill="#4ecdc4" stroke="#4ecdc4" points="183.58,-44.8 181.13,-37.8 178.68,-44.8 183.58,-44.8"/>
</g>
<!-- i3 -->
<g id="node13" class="node">
<title>i3</title>
<path fill="#95d5b2" stroke="#4ecdc4" d="M340.75,-36C340.75,-36 277.5,-36 277.5,-36 271.5,-36 265.5,-30 265.5,-24 265.5,-24 265.5,-12 265.5,-12 265.5,-6 271.5,0 277.5,0 277.5,0 340.75,0 340.75,0 346.75,0 352.75,-6 352.75,-12 352.75,-12 352.75,-24 352.75,-24 352.75,-30 346.75,-36 340.75,-36"/>
<text xml:space="preserve" text-anchor="middle" x="309.12" y="-19.75" font-family="Helvetica,sans-Serif" font-size="10.00" fill="#1a1a2e">Automated Mine</text>
<text xml:space="preserve" text-anchor="middle" x="309.12" y="-8.5" font-family="Helvetica,sans-Serif" font-size="10.00" fill="#1a1a2e">0 workers</text>
</g>
<!-- install_header&#45;&gt;i3 -->
<g id="edge12" class="edge">
<title>install_header&#45;&gt;i3</title>
<path fill="none" stroke="#4ecdc4" d="M203.71,-100.12C225.01,-83.73 257.02,-59.09 280.18,-41.27"/>
<polygon fill="#4ecdc4" stroke="#4ecdc4" points="281.51,-43.34 285.56,-37.13 278.52,-39.46 281.51,-43.34"/>
</g>
</g>
</svg>
