<?xml version="1.0" encoding="UTF-8" standalone="no"?>
<!DOCTYPE svg PUBLIC "-//W3C//DTD SVG 1.1//EN"
 "http://www.w3.org/Graphics/SVG/1.1/DTD/svg11.dtd">
<!-- Generated by graphviz version 14.1.2 (20260124.0452)
 -->
<!-- Title: GreenhouseFeedback Pages: 1 -->
<svg width="1222pt" height="683pt"
 viewBox="0.00 0.00 1222.00 683.00" xmlns="http://www.w3.org/2000/svg" xmlns:xlink="http://www.w3.org/1999/xlink">
<g id="graph0" class="graph" transform="scale(1 1) rotate(0) translate(4 679.13)">
<title>GreenhouseFeedback</title>
<polygon fill="#1a1a2e" stroke="none" points="-4,4 -4,-679.13 1217.78,-679.13 1217.78,4 -4,4"/>
<g id="clust1" class="cluster">
<title>cluster_formula</title>
<polygon fill="#1a1a2e" stroke="#4ecdc4" stroke-dasharray="5,2" points="278.03,-311.75 278.03,-538.25 885.03,-538.25 885.03,-311.75 278.03,-311.75"/>
<text xml:space="preserve" text-anchor="middle" x="581.53" y="-520.95" font-family="Helvetica,sans-Serif" font-size="14.00" fill="#888888">Temperature Formula</text>
</g>
<g id="clust2" class="cluster">
<title>cluster_gh_gases</title>
<polygon fill="#1a1a2e" stroke="#ff6b6b" stroke-dasharray="5,2" points="200.03,-572.25 200.03,-647.25 597.03,-647.25 597.03,-572.25 200.03,-572.25"/>
<text xml:space="preserve" text-anchor="middle" x="398.53" y="-629.95" font-family="Helvetica,sans-Serif" font-size="14.00" fill="#888888">Greenhouse Gases (+)</text>
</g>
<g id="clust3" class="cluster">
<title>cluster_anti_gases</title>
<polygon fill="#1a1a2e" stroke="#4ecdc4" stroke-dasharray="5,2" points="624.03,-568.25 624.03,-651.25 828.03,-651.25 828.03,-568.25 624.03,-568.25"/>
<text xml:space="preserve" text-anchor="middle" x="726.03" y="-633.95" font-family="Helvetica,sans-Serif" font-size="14.00" fill="#888888">Anti&#45;Greenhouse (&#45;)</text>
</g>
<g id="clust4" class="cluster">
<title>cluster_feedback</title>
<polygon fill="#1a1a2e" stroke="#ffe66d" stroke-dasharray="5,2" points="18.03,-8 18.03,-647.25 192.03,-647.25 192.03,-8 18.03,-8"/>
<text xml:space="preserve" text-anchor="middle" x="105.03" y="-629.95" font-family="Helvetica,sans-Serif" font-size="14.00" fill="#ffe66d">Ice Melt Feedback Loop</text>
</g>
<!-- title -->
<g id="node1" class="node">
<title>title</title>
<path fill="#2d2d44" stroke="none" d="M1063.66,-616.25C1063.66,-616.25 874.41,-616.25 874.41,-616.25 868.41,-616.25 862.41,-610.25 862.41,-604.25 862.41,-604.25 862.41,-592.25 862.41,-592.25 862.41,-586.25 868.41,-580.25 874.41,-580.25 874.41,-580.25 1063.66,-580.25 1063.66,-580.25 1069.66,-580.25 1075.66,-586.25 1075.66,-592.25 1075.66,-592.25 1075.66,-604.25 1075.66,-604.25 1075.66,-610.25 1069.66,-616.25 1063.66,-616.25"/>
<text xml:space="preserve" text-anchor="middle" x="969.03" y="-592.45" font-family="Helvetica,sans-Serif" font-size="14.00" fill="#4ecdc4">Surface Temperature Calculation</text>
</g>
<!-- base_temp -->
<g id="node2" class="node">
<title>base_temp</title>
<path fill="#2d2d44" stroke="#4ecdc4" d="M864.66,-501.25C864.66,-501.25 783.41,-501.25 783.41,-501.25 777.41,-501.25 771.41,-495.25 771.41,-489.25 771.41,-489.25 771.41,-469.25 771.41,-469.25 771.41,-463.25 777.41,-457.25 783.41,-457.25 783.41,-457.25 864.66,-457.25 864.66,-457.25 870.66,-457.25 876.66,-463.25 876.66,-469.25 876.66,-469.25 876.66,-489.25 876.66,-489.25 876.66,-495.25 870.66,-501.25 864.66,-501.25"/>
<text xml:space="preserve" text-anchor="middle" x="824.03" y="-486.8" font-family="Helvetica,sans-Serif" font-size="11.00" fill="white">Base Temperature</text>
<text xml:space="preserve" text-anchor="middle" x="824.03" y="-474.8" font-family="Helvetica,sans-Serif" font-size="11.00" fill="white">(from star distance</text>
<text xml:space="preserve" text-anchor="middle" x="824.03" y="-462.8" font-family="Helvetica,sans-Serif" font-size="11.00" fill="white">&amp; luminosity)</text>
</g>
<!-- title&#45;&gt;base_temp -->
<!-- result -->
<g id="node6" class="node">
<title>result</title>
<path fill="#95d5b2" stroke="#4ecdc4" d="M628.03,-363.75C628.03,-363.75 522.03,-363.75 522.03,-363.75 516.03,-363.75 510.03,-357.75 510.03,-351.75 510.03,-351.75 510.03,-331.75 510.03,-331.75 510.03,-325.75 516.03,-319.75 522.03,-319.75 522.03,-319.75 628.03,-319.75 628.03,-319.75 634.03,-319.75 640.03,-325.75 640.03,-331.75 640.03,-331.75 640.03,-351.75 640.03,-351.75 640.03,-357.75 634.03,-363.75 628.03,-363.75"/>
<text xml:space="preserve" text-anchor="middle" x="575.03" y="-349.3" font-family="Helvetica,sans-Serif" font-size="11.00" fill="#1a1a2e">Surface Temp (K)</text>
<text xml:space="preserve" text-anchor="middle" x="575.03" y="-337.3" font-family="Helvetica,sans-Serif" font-size="11.00" fill="#1a1a2e">= (Base x GH x Albedo)</text>
<text xml:space="preserve" text-anchor="middle" x="575.03" y="-325.3" font-family="Helvetica,sans-Serif" font-size="11.00" fill="#1a1a2e">/ Anti&#45;GH</text>
</g>
<!-- base_temp&#45;&gt;result -->
<g id="edge2" class="edge">
<title>base_temp&#45;&gt;result</title>
<path fill="none" stroke="#4ecdc4" d="M784.58,-456.78C740.59,-432.84 669.48,-394.15 622.49,-368.58"/>
<polygon fill="#4ecdc4" stroke="#4ecdc4" points="624,-366.21 615.63,-364.84 621.32,-371.13 624,-366.21"/>
<text xml:space="preserve" text-anchor="middle" x="724.57" y="-408.82" font-family="Helvetica,sans-Serif" font-size="9.00" fill="#888888">x GH</text>
</g>
<!-- greenhouse -->
<g id="node3" class="node">
<title>greenhouse</title>
<path fill="#ff6b6b" stroke="#4ecdc4" d="M544.66,-507.25C544.66,-507.25 457.41,-507.25 457.41,-507.25 451.41,-507.25 445.41,-501.25 445.41,-495.25 445.41,-495.25 445.41,-463.25 445.41,-463.25 445.41,-457.25 451.41,-451.25 457.41,-451.25 457.41,-451.25 544.66,-451.25 544.66,-451.25 550.66,-451.25 556.66,-457.25 556.66,-463.25 556.66,-463.25 556.66,-495.25 556.66,-495.25 556.66,-501.25 550.66,-507.25 544.66,-507.25"/>
<text xml:space="preserve" text-anchor="middle" x="501.03" y="-492.8" font-family="Helvetica,sans-Serif" font-size="11.00" fill="white">Greenhouse Factor</text>
<text xml:space="preserve" text-anchor="middle" x="501.03" y="-480.8" font-family="Helvetica,sans-Serif" font-size="11.00" fill="white">= 1 + (Pressure/10)</text>
<text xml:space="preserve" text-anchor="middle" x="501.03" y="-468.8" font-family="Helvetica,sans-Serif" font-size="11.00" fill="white">+ GH Gas Pressure</text>
<text xml:space="preserve" text-anchor="middle" x="501.03" y="-456.8" font-family="Helvetica,sans-Serif" font-size="11.00" fill="white">(max 3.0)</text>
</g>
<!-- greenhouse&#45;&gt;result -->
<g id="edge3" class="edge">
<title>greenhouse&#45;&gt;result</title>
<path fill="none" stroke="#4ecdc4" d="M516.01,-450.83C528.49,-427.96 546.25,-395.46 559.01,-372.08"/>
<polygon fill="#4ecdc4" stroke="#4ecdc4" points="561.37,-373.6 562.75,-365.24 556.46,-370.92 561.37,-373.6"/>
<text xml:space="preserve" text-anchor="middle" x="542.5" y="-408.82" font-family="Helvetica,sans-Serif" font-size="9.00" fill="#888888">x</text>
</g>
<!-- note_cap -->
<g id="node19" class="node">
<title>note_cap</title>
<polygon fill="#2d2d44" stroke="#4ecdc4" points="992.66,-360.38 893.41,-360.38 893.41,-323.12 998.66,-323.12 998.66,-354.38 992.66,-360.38"/>
<polyline fill="none" stroke="#4ecdc4" points="992.66,-360.38 992.66,-354.38"/>
<polyline fill="none" stroke="#4ecdc4" points="998.66,-354.38 992.66,-354.38"/>
<text xml:space="preserve" text-anchor="middle" x="946.03" y="-347.82" font-family="Helvetica,sans-Serif" font-size="9.00" fill="white">Both GH and Anti&#45;GH</text>
<text xml:space="preserve" text-anchor="middle" x="946.03" y="-338.07" font-family="Helvetica,sans-Serif" font-size="9.00" fill="white">factors capped at 3.0</text>
<text xml:space="preserve" text-anchor="middle" x="946.03" y="-328.32" font-family="Helvetica,sans-Serif" font-size="9.00" fill="white">(3x or 1/3x max effect)</text>
</g>
<!-- greenhouse&#45;&gt;note_cap -->
<g id="edge19" class="edge">
<title>greenhouse&#45;&gt;note_cap</title>
<path fill="none" stroke="#666666" stroke-dasharray="1,5" d="M556.93,-456.9C563.96,-454.74 571.12,-452.78 578.03,-451.25 707.54,-422.66 756.76,-482.27 875.03,-422.25 902.1,-408.52 923.62,-379.75 935.6,-360.85"/>
</g>
<!-- albedo -->
<g id="node4" class="node">
<title>albedo</title>
<path fill="#2d2d44" stroke="#4ecdc4" d="M390.28,-507.25C390.28,-507.25 297.78,-507.25 297.78,-507.25 291.78,-507.25 285.78,-501.25 285.78,-495.25 285.78,-495.25 285.78,-463.25 285.78,-463.25 285.78,-457.25 291.78,-451.25 297.78,-451.25 297.78,-451.25 390.28,-451.25 390.28,-451.25 396.28,-451.25 402.28,-457.25 402.28,-463.25 402.28,-463.25 402.28,-495.25 402.28,-495.25 402.28,-501.25 396.28,-507.25 390.28,-507.25"/>
<text xml:space="preserve" text-anchor="middle" x="344.03" y="-492.8" font-family="Helvetica,sans-Serif" font-size="11.00" fill="white">Albedo Factor</text>
<text xml:space="preserve" text-anchor="middle" x="344.03" y="-480.8" font-family="Helvetica,sans-Serif" font-size="11.00" fill="white">= Base Albedo</text>
<text xml:space="preserve" text-anchor="middle" x="344.03" y="-468.8" font-family="Helvetica,sans-Serif" font-size="11.00" fill="white">+ (0.0015 x Hydro%)</text>
<text xml:space="preserve" text-anchor="middle" x="344.03" y="-456.8" font-family="Helvetica,sans-Serif" font-size="11.00" fill="white">(max +0.15)</text>
</g>
<!-- albedo&#45;&gt;result -->
<g id="edge4" class="edge">
<title>albedo&#45;&gt;result</title>
<path fill="none" stroke="#4ecdc4" d="M390.78,-450.83C431.6,-426.88 490.45,-392.37 530.58,-368.83"/>
<polygon fill="#4ecdc4" stroke="#4ecdc4" points="531.8,-371.35 537.29,-364.89 528.97,-366.52 531.8,-371.35"/>
<text xml:space="preserve" text-anchor="middle" x="468.71" y="-408.82" font-family="Helvetica,sans-Serif" font-size="9.00" fill="#888888">x</text>
</g>
<!-- anti_gh -->
<g id="node5" class="node">
<title>anti_gh</title>
<path fill="#4ecdc4" stroke="#4ecdc4" d="M716.66,-501.25C716.66,-501.25 611.41,-501.25 611.41,-501.25 605.41,-501.25 599.41,-495.25 599.41,-489.25 599.41,-489.25 599.41,-469.25 599.41,-469.25 599.41,-463.25 605.41,-457.25 611.41,-457.25 611.41,-457.25 716.66,-457.25 716.66,-457.25 722.66,-457.25 728.66,-463.25 728.66,-469.25 728.66,-469.25 728.66,-489.25 728.66,-489.25 728.66,-495.25 722.66,-501.25 716.66,-501.25"/>
<text xml:space="preserve" text-anchor="middle" x="664.03" y="-486.8" font-family="Helvetica,sans-Serif" font-size="11.00" fill="#1a1a2e">Anti&#45;GH Factor</text>
<text xml:space="preserve" text-anchor="middle" x="664.03" y="-474.8" font-family="Helvetica,sans-Serif" font-size="11.00" fill="#1a1a2e">= 1 + Anti&#45;GH Pressure</text>
<text xml:space="preserve" text-anchor="middle" x="664.03" y="-462.8" font-family="Helvetica,sans-Serif" font-size="11.00" fill="#1a1a2e">(max 3.0)</text>
</g>
<!-- anti_gh&#45;&gt;result -->
<g id="edge5" class="edge">
<title>anti_gh&#45;&gt;result</title>
<path fill="none" stroke="#4ecdc4" d="M649.93,-456.78C634.89,-433.89 610.98,-397.49 594.23,-371.99"/>
<polygon fill="#4ecdc4" stroke="#4ecdc4" points="596.63,-370.53 589.9,-365.38 591.95,-373.61 596.63,-370.53"/>
<text xml:space="preserve" text-anchor="middle" x="625.99" y="-408.82" font-family="Helvetica,sans-Serif" font-size="9.00" fill="#888888">/</text>
</g>
<!-- co2 -->
<g id="node7" class="node">
<title>co2</title>
<path fill="#ff6b6b" stroke="#4ecdc4" d="M250.03,-616.25C250.03,-616.25 220.03,-616.25 220.03,-616.25 214.03,-616.25 208.03,-610.25 208.03,-604.25 208.03,-604.25 208.03,-592.25 208.03,-592.25 208.03,-586.25 214.03,-580.25 220.03,-580.25 220.03,-580.25 250.03,-580.25 250.03,-580.25 256.03,-580.25 262.03,-586.25 262.03,-592.25 262.03,-592.25 262.03,-604.25 262.03,-604.25 262.03,-610.25 256.03,-616.25 250.03,-616.25"/>
<text xml:space="preserve" text-anchor="middle" x="235.03" y="-593.8" font-family="Helvetica,sans-Serif" font-size="11.00" fill="white">CO2</text>
</g>
<!-- co2&#45;&gt;greenhouse -->
<g id="edge6" class="edge">
<title>co2&#45;&gt;greenhouse</title>
<path fill="none" stroke="#ff6b6b" stroke-dasharray="5,2" d="M260.94,-579.81C268.18,-575.53 276.21,-571.31 284.03,-568.25 313.66,-556.66 395.09,-551.47 424.03,-538.25 438.03,-531.86 451.9,-522.58 463.93,-513.31"/>
<polygon fill="#ff6b6b" stroke="#ff6b6b" points="465.46,-515.67 469.99,-508.51 461.98,-511.29 465.46,-515.67"/>
</g>
<!-- note_water -->
<g id="node20" class="node">
<title>note_water</title>
<polygon fill="#ffe66d" stroke="#4ecdc4" points="1207.78,-616.88 1118.28,-616.88 1118.28,-579.62 1213.78,-579.62 1213.78,-610.88 1207.78,-616.88"/>
<polyline fill="none" stroke="#4ecdc4" points="1207.78,-616.88 1207.78,-610.88"/>
<polyline fill="none" stroke="#4ecdc4" points="1213.78,-610.88 1207.78,-610.88"/>
<text xml:space="preserve" text-anchor="middle" x="1166.03" y="-604.33" font-family="Helvetica,sans-Serif" font-size="9.00" fill="#1a1a2e">Water Vapor is NOT</text>
<text xml:space="preserve" text-anchor="middle" x="1166.03" y="-594.58" font-family="Helvetica,sans-Serif" font-size="9.00" fill="#1a1a2e">a greenhouse gas</text>
<text xml:space="preserve" text-anchor="middle" x="1166.03" y="-584.83" font-family="Helvetica,sans-Serif" font-size="9.00" fill="#1a1a2e">in Aurora C#</text>
</g>
<!-- co2&#45;&gt;note_water -->
<g id="edge20" class="edge">
<title>co2&#45;&gt;note_water</title>
<path fill="none" stroke="#666666" stroke-dasharray="1,5" d="M246.63,-616.59C258.81,-633.74 279.77,-657.87 305.53,-665.75 346.44,-678.26 1034.62,-678.26 1075.53,-665.75 1104.59,-656.87 1131.63,-634 1148.45,-617.33"/>
</g>
<!-- methane -->
<g id="node8" class="node">
<title>methane</title>
<path fill="#ff6b6b" stroke="#4ecdc4" d="M358.78,-616.25C358.78,-616.25 317.28,-616.25 317.28,-616.25 311.28,-616.25 305.28,-610.25 305.28,-604.25 305.28,-604.25 305.28,-592.25 305.28,-592.25 305.28,-586.25 311.28,-580.25 317.28,-580.25 317.28,-580.25 358.78,-580.25 358.78,-580.25 364.78,-580.25 370.78,-586.25 370.78,-592.25 370.78,-592.25 370.78,-604.25 370.78,-604.25 370.78,-610.25 364.78,-616.25 358.78,-616.25"/>
<text xml:space="preserve" text-anchor="middle" x="338.03" y="-599.8" font-family="Helvetica,sans-Serif" font-size="11.00" fill="white">CH4</text>
<text xml:space="preserve" text-anchor="middle" x="338.03" y="-587.8" font-family="Helvetica,sans-Serif" font-size="11.00" fill="white">(Methane)</text>
</g>
<!-- methane&#45;&gt;greenhouse -->
<g id="edge7" class="edge">
<title>methane&#45;&gt;greenhouse</title>
<path fill="none" stroke="#ff6b6b" stroke-dasharray="5,2" d="M363.83,-579.99C381.02,-568.38 404.04,-552.63 424.03,-538.25 435.07,-530.31 446.86,-521.57 457.81,-513.33"/>
<polygon fill="#ff6b6b" stroke="#ff6b6b" points="459.33,-515.69 464.03,-508.64 455.96,-511.22 459.33,-515.69"/>
</g>
<!-- aestusium -->
<g id="node9" class="node">
<title>aestusium</title>
<path fill="#ff6b6b" stroke="#4ecdc4" d="M468.16,-616.25C468.16,-616.25 425.91,-616.25 425.91,-616.25 419.91,-616.25 413.91,-610.25 413.91,-604.25 413.91,-604.25 413.91,-592.25 413.91,-592.25 413.91,-586.25 419.91,-580.25 425.91,-580.25 425.91,-580.25 468.16,-580.25 468.16,-580.25 474.16,-580.25 480.16,-586.25 480.16,-592.25 480.16,-592.25 480.16,-604.25 480.16,-604.25 480.16,-610.25 474.16,-616.25 468.16,-616.25"/>
<text xml:space="preserve" text-anchor="middle" x="447.03" y="-599.8" font-family="Helvetica,sans-Serif" font-size="11.00" fill="white">Aestusium</text>
<text xml:space="preserve" text-anchor="middle" x="447.03" y="-587.8" font-family="Helvetica,sans-Serif" font-size="11.00" fill="white">(safe)</text>
</g>
<!-- aestusium&#45;&gt;greenhouse -->
<g id="edge8" class="edge">
<title>aestusium&#45;&gt;greenhouse</title>
<path fill="none" stroke="#ff6b6b" stroke-dasharray="5,2" d="M455,-579.99C462.74,-563.23 474.71,-537.28 484.51,-516.05"/>
<polygon fill="#ff6b6b" stroke="#ff6b6b" points="486.97,-517.39 487.78,-508.95 481.89,-515.04 486.97,-517.39"/>
</g>
<!-- no2 -->
<g id="node10" class="node">
<title>no2</title>
<path fill="#ff6b6b" stroke="#4ecdc4" d="M577.16,-616.25C577.16,-616.25 534.91,-616.25 534.91,-616.25 528.91,-616.25 522.91,-610.25 522.91,-604.25 522.91,-604.25 522.91,-592.25 522.91,-592.25 522.91,-586.25 528.91,-580.25 534.91,-580.25 534.91,-580.25 577.16,-580.25 577.16,-580.25 583.16,-580.25 589.16,-586.25 589.16,-592.25 589.16,-592.25 589.16,-604.25 589.16,-604.25 589.16,-610.25 583.16,-616.25 577.16,-616.25"/>
<text xml:space="preserve" text-anchor="middle" x="556.03" y="-593.8" font-family="Helvetica,sans-Serif" font-size="11.00" fill="white">NO2, SO2</text>
</g>
<!-- no2&#45;&gt;greenhouse -->
<g id="edge9" class="edge">
<title>no2&#45;&gt;greenhouse</title>
<path fill="none" stroke="#ff6b6b" stroke-dasharray="5,2" d="M547.92,-579.99C540.04,-563.23 527.84,-537.28 517.86,-516.05"/>
<polygon fill="#ff6b6b" stroke="#ff6b6b" points="520.46,-515 514.52,-508.95 515.39,-517.38 520.46,-515"/>
</g>
<!-- frigusium -->
<g id="node11" class="node">
<title>frigusium</title>
<path fill="#4ecdc4" stroke="#4ecdc4" d="M683.66,-616.25C683.66,-616.25 644.41,-616.25 644.41,-616.25 638.41,-616.25 632.41,-610.25 632.41,-604.25 632.41,-604.25 632.41,-592.25 632.41,-592.25 632.41,-586.25 638.41,-580.25 644.41,-580.25 644.41,-580.25 683.66,-580.25 683.66,-580.25 689.66,-580.25 695.66,-586.25 695.66,-592.25 695.66,-592.25 695.66,-604.25 695.66,-604.25 695.66,-610.25 689.66,-616.25 683.66,-616.25"/>
<text xml:space="preserve" text-anchor="middle" x="664.03" y="-599.8" font-family="Helvetica,sans-Serif" font-size="11.00" fill="#1a1a2e">Frigusium</text>
<text xml:space="preserve" text-anchor="middle" x="664.03" y="-587.8" font-family="Helvetica,sans-Serif" font-size="11.00" fill="#1a1a2e">(safe)</text>
</g>
<!-- frigusium&#45;&gt;anti_gh -->
<g id="edge10" class="edge">
<title>frigusium&#45;&gt;anti_gh</title>
<path fill="none" stroke="#4ecdc4" stroke-dasharray="5,2" d="M664.03,-579.99C664.03,-561.82 664.03,-532.87 664.03,-510.83"/>
<polygon fill="#4ecdc4" stroke="#4ecdc4" points="666.83,-511.07 664.03,-503.07 661.23,-511.07 666.83,-511.07"/>
</g>
<!-- dust -->
<g id="node12" class="node">
<title>dust</title>
<path fill="#4ecdc4" stroke="#4ecdc4" d="M807.66,-620.25C807.66,-620.25 750.41,-620.25 750.41,-620.25 744.41,-620.25 738.41,-614.25 738.41,-608.25 738.41,-608.25 738.41,-588.25 738.41,-588.25 738.41,-582.25 744.41,-576.25 750.41,-576.25 750.41,-576.25 807.66,-576.25 807.66,-576.25 813.66,-576.25 819.66,-582.25 819.66,-588.25 819.66,-588.25 819.66,-608.25 819.66,-608.25 819.66,-614.25 813.66,-620.25 807.66,-620.25"/>
<text xml:space="preserve" text-anchor="middle" x="779.03" y="-605.8" font-family="Helvetica,sans-Serif" font-size="11.00" fill="#1a1a2e">Dust</text>
<text xml:space="preserve" text-anchor="middle" x="779.03" y="-593.8" font-family="Helvetica,sans-Serif" font-size="11.00" fill="#1a1a2e">(temporary)</text>
<text xml:space="preserve" text-anchor="middle" x="779.03" y="-581.8" font-family="Helvetica,sans-Serif" font-size="11.00" fill="#1a1a2e">= Dust/20000</text>
</g>
<!-- dust&#45;&gt;anti_gh -->
<g id="edge11" class="edge">
<title>dust&#45;&gt;anti_gh</title>
<path fill="none" stroke="#4ecdc4" stroke-dasharray="5,2" d="M757.94,-575.79C739.3,-556.82 711.98,-529.03 691.61,-508.31"/>
<polygon fill="#4ecdc4" stroke="#4ecdc4" points="693.66,-506.4 686.05,-502.65 689.66,-510.32 693.66,-506.4"/>
</g>
<!-- cold_world -->
<g id="node13" class="node">
<title>cold_world</title>
<path fill="#2d2d44" stroke="#4ecdc4" d="M128.16,-616.25C128.16,-616.25 67.91,-616.25 67.91,-616.25 61.91,-616.25 55.91,-610.25 55.91,-604.25 55.91,-604.25 55.91,-592.25 55.91,-592.25 55.91,-586.25 61.91,-580.25 67.91,-580.25 67.91,-580.25 128.16,-580.25 128.16,-580.25 134.16,-580.25 140.16,-586.25 140.16,-592.25 140.16,-592.25 140.16,-604.25 140.16,-604.25 140.16,-610.25 134.16,-616.25 128.16,-616.25"/>
<text xml:space="preserve" text-anchor="middle" x="98.03" y="-599.8" font-family="Helvetica,sans-Serif" font-size="11.00" fill="white">Cold World</text>
<text xml:space="preserve" text-anchor="middle" x="98.03" y="-587.8" font-family="Helvetica,sans-Serif" font-size="11.00" fill="white">with Ice Sheet</text>
</g>
<!-- add_heat -->
<g id="node14" class="node">
<title>add_heat</title>
<path fill="#ff6b6b" stroke="#4ecdc4" d="M134.91,-497.25C134.91,-497.25 61.16,-497.25 61.16,-497.25 55.16,-497.25 49.16,-491.25 49.16,-485.25 49.16,-485.25 49.16,-473.25 49.16,-473.25 49.16,-467.25 55.16,-461.25 61.16,-461.25 61.16,-461.25 134.91,-461.25 134.91,-461.25 140.91,-461.25 146.91,-467.25 146.91,-473.25 146.91,-473.25 146.91,-485.25 146.91,-485.25 146.91,-491.25 140.91,-497.25 134.91,-497.25"/>
<text xml:space="preserve" text-anchor="middle" x="98.03" y="-480.8" font-family="Helvetica,sans-Serif" font-size="11.00" fill="white">Add Greenhouse</text>
<text xml:space="preserve" text-anchor="middle" x="98.03" y="-468.8" font-family="Helvetica,sans-Serif" font-size="11.00" fill="white">Gases</text>
</g>
<!-- cold_world&#45;&gt;add_heat -->
<g id="edge12" class="edge">
<title>cold_world&#45;&gt;add_heat</title>
<path fill="none" stroke="#4ecdc4" d="M98.03,-579.99C98.03,-560.72 98.03,-529.3 98.03,-506.88"/>
<polygon fill="#4ecdc4" stroke="#4ecdc4" points="100.83,-507.1 98.03,-499.1 95.23,-507.1 100.83,-507.1"/>
</g>
<!-- threshold -->
<g id="node15" class="node">
<title>threshold</title>
<path fill="#ffe66d" stroke="#4ecdc4" d="M93.91,-369.24C93.91,-369.24 37.15,-346.26 37.15,-346.26 31.59,-344 31.59,-339.5 37.15,-337.24 37.15,-337.24 93.91,-314.26 93.91,-314.26 99.47,-312 110.59,-312 116.15,-314.26 116.15,-314.26 172.91,-337.24 172.91,-337.24 178.47,-339.5 178.47,-344 172.91,-346.26 172.91,-346.26 116.15,-369.24 116.15,-369.24 110.59,-371.5 99.47,-371.5 93.91,-369.24"/>
<text xml:space="preserve" text-anchor="middle" x="105.03" y="-343.3" font-family="Helvetica,sans-Serif" font-size="11.00" fill="#1a1a2e">Temp &gt; &#45;27C</text>
<text xml:space="preserve" text-anchor="middle" x="105.03" y="-331.3" font-family="Helvetica,sans-Serif" font-size="11.00" fill="#1a1a2e">(246K)?</text>
</g>
<!-- add_heat&#45;&gt;threshold -->
<g id="edge13" class="edge">
<title>add_heat&#45;&gt;threshold</title>
<path fill="none" stroke="#4ecdc4" d="M98.93,-460.81C99.95,-441.21 101.62,-408.72 102.96,-382.78"/>
<polygon fill="#4ecdc4" stroke="#4ecdc4" points="105.75,-383.2 103.36,-375.07 100.15,-382.91 105.75,-383.2"/>
</g>
<!-- threshold&#45;&gt;add_heat -->
<g id="edge15" class="edge">
<title>threshold&#45;&gt;add_heat</title>
<path fill="none" stroke="#4ecdc4" d="M103.44,-373.56C102.23,-397.07 100.57,-429.12 99.41,-451.55"/>
<polygon fill="#4ecdc4" stroke="#4ecdc4" points="96.63,-451.17 99.01,-459.3 102.22,-451.46 96.63,-451.17"/>
<text xml:space="preserve" text-anchor="middle" x="120.12" y="-413.7" font-family="Helvetica,sans-Serif" font-size="9.00" fill="#ff6b6b">No, keep</text>
<text xml:space="preserve" text-anchor="middle" x="120.12" y="-403.95" font-family="Helvetica,sans-Serif" font-size="9.00" fill="#ff6b6b">heating</text>
</g>
<!-- ice_melts -->
<g id="node16" class="node">
<title>ice_melts</title>
<path fill="#2d2d44" stroke="#4ecdc4" d="M129.16,-242C129.16,-242 80.91,-242 80.91,-242 74.91,-242 68.91,-236 68.91,-230 68.91,-230 68.91,-218 68.91,-218 68.91,-212 74.91,-206 80.91,-206 80.91,-206 129.16,-206 129.16,-206 135.16,-206 141.16,-212 141.16,-218 141.16,-218 141.16,-230 141.16,-230 141.16,-236 135.16,-242 129.16,-242"/>
<text xml:space="preserve" text-anchor="middle" x="105.03" y="-225.55" font-family="Helvetica,sans-Serif" font-size="11.00" fill="white">Ice Sheet</text>
<text xml:space="preserve" text-anchor="middle" x="105.03" y="-213.55" font-family="Helvetica,sans-Serif" font-size="11.00" fill="white">Melts Event</text>
</g>
<!-- threshold&#45;&gt;ice_melts -->
<g id="edge14" class="edge">
<title>threshold&#45;&gt;ice_melts</title>
<path fill="none" stroke="#4ecdc4" d="M105.03,-309.43C105.03,-291.4 105.03,-269 105.03,-251.8"/>
<polygon fill="#4ecdc4" stroke="#4ecdc4" points="107.83,-251.86 105.03,-243.86 102.23,-251.86 107.83,-251.86"/>
<text xml:space="preserve" text-anchor="middle" x="112.16" y="-272.2" font-family="Helvetica,sans-Serif" font-size="9.00" fill="#95d5b2">Yes</text>
</g>
<!-- albedo_boost -->
<g id="node17" class="node">
<title>albedo_boost</title>
<path fill="#2d2d44" stroke="#4ecdc4" d="M146.03,-147C146.03,-147 64.03,-147 64.03,-147 58.03,-147 52.03,-141 52.03,-135 52.03,-135 52.03,-123 52.03,-123 52.03,-117 58.03,-111 64.03,-111 64.03,-111 146.03,-111 146.03,-111 152.03,-111 158.03,-117 158.03,-123 158.03,-123 158.03,-135 158.03,-135 158.03,-141 152.03,-147 146.03,-147"/>
<text xml:space="preserve" text-anchor="middle" x="105.03" y="-130.55" font-family="Helvetica,sans-Serif" font-size="11.00" fill="white">Albedo Increases</text>
<text xml:space="preserve" text-anchor="middle" x="105.03" y="-118.55" font-family="Helvetica,sans-Serif" font-size="11.00" fill="white">+0.0015 x Hydro%</text>
</g>
<!-- ice_melts&#45;&gt;albedo_boost -->
<g id="edge16" class="edge">
<title>ice_melts&#45;&gt;albedo_boost</title>
<path fill="none" stroke="#4ecdc4" d="M105.03,-205.51C105.03,-191.74 105.03,-172.32 105.03,-156.62"/>
<polygon fill="#4ecdc4" stroke="#4ecdc4" points="107.83,-156.93 105.03,-148.93 102.23,-156.93 107.83,-156.93"/>
</g>
<!-- extra_warm -->
<g id="node18" class="node">
<title>extra_warm</title>
<path fill="#95d5b2" stroke="#4ecdc4" d="M124.66,-52C124.66,-52 85.41,-52 85.41,-52 79.41,-52 73.41,-46 73.41,-40 73.41,-40 73.41,-28 73.41,-28 73.41,-22 79.41,-16 85.41,-16 85.41,-16 124.66,-16 124.66,-16 130.66,-16 136.66,-22 136.66,-28 136.66,-28 136.66,-40 136.66,-40 136.66,-46 130.66,-52 124.66,-52"/>
<text xml:space="preserve" text-anchor="middle" x="105.03" y="-35.55" font-family="Helvetica,sans-Serif" font-size="11.00" fill="#1a1a2e">Additional</text>
<text xml:space="preserve" text-anchor="middle" x="105.03" y="-23.55" font-family="Helvetica,sans-Serif" font-size="11.00" fill="#1a1a2e">Warming!</text>
</g>
<!-- albedo_boost&#45;&gt;extra_warm -->
<g id="edge17" class="edge">
<title>albedo_boost&#45;&gt;extra_warm</title>
<path fill="none" stroke="#4ecdc4" d="M105.03,-110.51C105.03,-96.74 105.03,-77.32 105.03,-61.62"/>
<polygon fill="#4ecdc4" stroke="#4ecdc4" points="107.83,-61.93 105.03,-53.93 102.23,-61.93 107.83,-61.93"/>
</g>
<!-- extra_warm&#45;&gt;albedo -->
<g id="edge18" class="edge">
<title>extra_warm&#45;&gt;albedo</title>
<path fill="none" stroke="#ffe66d" stroke-dasharray="5,2" d="M82.37,-52.25C65.49,-66.28 43.17,-87.55 30.03,-111 14.13,-139.39 -12.26,-213.26 6.53,-242 86.67,-364.57 529.95,-246.5 662.03,-309.75 712,-333.68 725.29,-350.99 745.03,-402.75 748.12,-410.85 750.88,-415.85 745.03,-422.25 696.72,-475.13 494.12,-436.47 424.03,-451.25 419.97,-452.11 415.83,-453.1 411.67,-454.2"/>
<polygon fill="#ffe66d" stroke="#ffe66d" points="410.98,-451.49 404.03,-456.34 412.49,-456.88 410.98,-451.49"/>
<text xml:space="preserve" text-anchor="middle" x="26.78" y="-225.2" font-family="Helvetica,sans-Serif" font-size="9.00" fill="#888888">Positive</text>
<text xml:space="preserve" text-anchor="middle" x="26.78" y="-215.45" font-family="Helvetica,sans-Serif" font-size="9.00" fill="#888888">Feedback</text>
</g>
</g>
</svg>
