<?xml version="1.0" encoding="UTF-8" standalone="no"?>
<!DOCTYPE svg PUBLIC "-//W3C//DTD SVG 1.1//EN"
 "http://www.w3.org/Graphics/SVG/1.1/DTD/svg11.dtd">
<!-- Generated by graphviz version 14.1.2 (20260124.0452)
 -->
<!-- Title: HabitabilityZones Pages: 1 -->
<svg width="698pt" height="686pt"
 viewBox="0.00 0.00 698.00 686.00" xmlns="http://www.w3.org/2000/svg" xmlns:xlink="http://www.w3.org/1999/xlink">
<g id="graph0" class="graph" transform="scale(1 1) rotate(0) translate(4 682)">
<title>HabitabilityZones</title>
<polygon fill="#1a1a2e" stroke="none" points="-4,4 -4,-682 693.62,-682 693.62,4 -4,4"/>
<!-- title -->
<g id="node1" class="node">
<title>title</title>
<path fill="#2d2d44" stroke="none" d="M181,-678C181,-678 12,-678 12,-678 6,-678 0,-672 0,-666 0,-666 0,-654 0,-654 0,-648 6,-642 12,-642 12,-642 181,-642 181,-642 187,-642 193,-648 193,-654 193,-654 193,-666 193,-666 193,-672 187,-678 181,-678"/>
<text xml:space="preserve" text-anchor="middle" x="96.5" y="-654.2" font-family="Helvetica,sans-Serif" font-size="14.00" fill="#4ecdc4">Colony Cost Habitability Tiers</text>
</g>
<!-- t1 -->
<g id="node2" class="node">
<title>t1</title>
<path fill="#95d5b2" stroke="#4ecdc4" d="M149.5,-591C149.5,-591 43.5,-591 43.5,-591 37.5,-591 31.5,-585 31.5,-579 31.5,-579 31.5,-561.25 31.5,-561.25 31.5,-555.25 37.5,-549.25 43.5,-549.25 43.5,-549.25 149.5,-549.25 149.5,-549.25 155.5,-549.25 161.5,-555.25 161.5,-561.25 161.5,-561.25 161.5,-579 161.5,-579 161.5,-585 155.5,-591 149.5,-591"/>
<text xml:space="preserve" text-anchor="middle" x="96.5" y="-577.5" font-family="Helvetica,sans-Serif" font-size="10.00" fill="#1a1a2e">Tier 1: Naturally Habitable</text>
<text xml:space="preserve" text-anchor="middle" x="96.5" y="-566.25" font-family="Helvetica,sans-Serif" font-size="10.00" fill="#1a1a2e">CC 0.00</text>
<text xml:space="preserve" text-anchor="middle" x="96.5" y="-555" font-family="Helvetica,sans-Serif" font-size="10.00" fill="#1a1a2e">No infrastructure required</text>
</g>
<!-- title&#45;&gt;t1 -->
<!-- earth -->
<g id="node3" class="node">
<title>earth</title>
<path fill="#95d5b2" stroke="#4ecdc4" d="M94.75,-479.75C94.75,-479.75 38.25,-479.75 38.25,-479.75 32.25,-479.75 26.25,-473.75 26.25,-467.75 26.25,-467.75 26.25,-438.75 26.25,-438.75 26.25,-432.75 32.25,-426.75 38.25,-426.75 38.25,-426.75 94.75,-426.75 94.75,-426.75 100.75,-426.75 106.75,-432.75 106.75,-438.75 106.75,-438.75 106.75,-467.75 106.75,-467.75 106.75,-473.75 100.75,-479.75 94.75,-479.75"/>
<text xml:space="preserve" text-anchor="middle" x="66.5" y="-466.25" font-family="Helvetica,sans-Serif" font-size="10.00" fill="#1a1a2e">Earth</text>
<text xml:space="preserve" text-anchor="middle" x="66.5" y="-455" font-family="Helvetica,sans-Serif" font-size="10.00" fill="#1a1a2e">Temp: 15C</text>
<text xml:space="preserve" text-anchor="middle" x="66.5" y="-443.75" font-family="Helvetica,sans-Serif" font-size="10.00" fill="#1a1a2e">Press: 1.0 atm</text>
<text xml:space="preserve" text-anchor="middle" x="66.5" y="-432.5" font-family="Helvetica,sans-Serif" font-size="10.00" fill="#1a1a2e">O2: 0.21 atm</text>
</g>
<!-- t1&#45;&gt;earth -->
<g id="edge6" class="edge">
<title>t1&#45;&gt;earth</title>
<path fill="none" stroke="#4ecdc4" stroke-dasharray="5,2" d="M91.21,-548.85C86.19,-529.66 78.65,-500.76 73.21,-479.96"/>
</g>
<!-- t2 -->
<g id="node4" class="node">
<title>t2</title>
<path fill="#4ecdc4" stroke="#4ecdc4" d="M250.25,-474.12C250.25,-474.12 154.75,-474.12 154.75,-474.12 148.75,-474.12 142.75,-468.12 142.75,-462.12 142.75,-462.12 142.75,-444.38 142.75,-444.38 142.75,-438.38 148.75,-432.38 154.75,-432.38 154.75,-432.38 250.25,-432.38 250.25,-432.38 256.25,-432.38 262.25,-438.38 262.25,-444.38 262.25,-444.38 262.25,-462.12 262.25,-462.12 262.25,-468.12 256.25,-474.12 250.25,-474.12"/>
<text xml:space="preserve" text-anchor="middle" x="202.5" y="-460.62" font-family="Helvetica,sans-Serif" font-size="10.00" fill="#1a1a2e">Tier 2: Nearly Habitable</text>
<text xml:space="preserve" text-anchor="middle" x="202.5" y="-449.38" font-family="Helvetica,sans-Serif" font-size="10.00" fill="#1a1a2e">CC 0.01&#45;1.00</text>
<text xml:space="preserve" text-anchor="middle" x="202.5" y="-438.12" font-family="Helvetica,sans-Serif" font-size="10.00" fill="#1a1a2e">Minor challenges</text>
</g>
<!-- t1&#45;&gt;t2 -->
<g id="edge2" class="edge">
<title>t1&#45;&gt;t2</title>
<path fill="none" stroke="#4ecdc4" d="M115.21,-548.85C132.77,-529.82 159.13,-501.26 178.28,-480.49"/>
<polygon fill="#4ecdc4" stroke="#4ecdc4" points="180.01,-482.24 182.95,-475.43 176.41,-478.92 180.01,-482.24"/>
<text xml:space="preserve" text-anchor="middle" x="177.22" y="-515.7" font-family="Helvetica,sans-Serif" font-size="9.00" fill="#888888">Increasing</text>
<text xml:space="preserve" text-anchor="middle" x="177.22" y="-505.95" font-family="Helvetica,sans-Serif" font-size="9.00" fill="#888888">Hostility</text>
</g>
<!-- mars_tf -->
<g id="node5" class="node">
<title>mars_tf</title>
<path fill="#4ecdc4" stroke="#4ecdc4" d="M182.38,-375.75C182.38,-375.75 132.62,-375.75 132.62,-375.75 126.62,-375.75 120.62,-369.75 120.62,-363.75 120.62,-363.75 120.62,-346 120.62,-346 120.62,-340 126.62,-334 132.62,-334 132.62,-334 182.38,-334 182.38,-334 188.38,-334 194.38,-340 194.38,-346 194.38,-346 194.38,-363.75 194.38,-363.75 194.38,-369.75 188.38,-375.75 182.38,-375.75"/>
<text xml:space="preserve" text-anchor="middle" x="157.5" y="-362.25" font-family="Helvetica,sans-Serif" font-size="10.00" fill="#1a1a2e">Mars</text>
<text xml:space="preserve" text-anchor="middle" x="157.5" y="-351" font-family="Helvetica,sans-Serif" font-size="10.00" fill="#1a1a2e">(Terraformed)</text>
<text xml:space="preserve" text-anchor="middle" x="157.5" y="-339.75" font-family="Helvetica,sans-Serif" font-size="10.00" fill="#1a1a2e">CC ~0.5</text>
</g>
<!-- t2&#45;&gt;mars_tf -->
<g id="edge7" class="edge">
<title>t2&#45;&gt;mars_tf</title>
<path fill="none" stroke="#4ecdc4" stroke-dasharray="5,2" d="M193.18,-432.28C185.5,-415.85 174.68,-392.66 166.97,-376.15"/>
</g>
<!-- t3 -->
<g id="node6" class="node">
<title>t3</title>
<path fill="#ffe66d" stroke="#4ecdc4" d="M342.88,-375.75C342.88,-375.75 242.12,-375.75 242.12,-375.75 236.12,-375.75 230.12,-369.75 230.12,-363.75 230.12,-363.75 230.12,-346 230.12,-346 230.12,-340 236.12,-334 242.12,-334 242.12,-334 342.88,-334 342.88,-334 348.88,-334 354.88,-340 354.88,-346 354.88,-346 354.88,-363.75 354.88,-363.75 354.88,-369.75 348.88,-375.75 342.88,-375.75"/>
<text xml:space="preserve" text-anchor="middle" x="292.5" y="-362.25" font-family="Helvetica,sans-Serif" font-size="10.00" fill="#1a1a2e">Tier 3: Colonizable</text>
<text xml:space="preserve" text-anchor="middle" x="292.5" y="-351" font-family="Helvetica,sans-Serif" font-size="10.00" fill="#1a1a2e">CC 1.01&#45;3.00</text>
<text xml:space="preserve" text-anchor="middle" x="292.5" y="-339.75" font-family="Helvetica,sans-Serif" font-size="10.00" fill="#1a1a2e">Substantial infrastructure</text>
</g>
<!-- t2&#45;&gt;t3 -->
<g id="edge3" class="edge">
<title>t2&#45;&gt;t3</title>
<path fill="none" stroke="#4ecdc4" d="M221.15,-432.28C234.69,-417.78 253.16,-398.01 267.91,-382.21"/>
<polygon fill="#4ecdc4" stroke="#4ecdc4" points="269.55,-384.04 272.53,-377.26 265.96,-380.7 269.55,-384.04"/>
</g>
<!-- mars -->
<g id="node7" class="node">
<title>mars</title>
<path fill="#ffe66d" stroke="#4ecdc4" d="M175,-260.75C175,-260.75 132,-260.75 132,-260.75 126,-260.75 120,-254.75 120,-248.75 120,-248.75 120,-231 120,-231 120,-225 126,-219 132,-219 132,-219 175,-219 175,-219 181,-219 187,-225 187,-231 187,-231 187,-248.75 187,-248.75 187,-254.75 181,-260.75 175,-260.75"/>
<text xml:space="preserve" text-anchor="middle" x="153.5" y="-247.25" font-family="Helvetica,sans-Serif" font-size="10.00" fill="#1a1a2e">Mars</text>
<text xml:space="preserve" text-anchor="middle" x="153.5" y="-236" font-family="Helvetica,sans-Serif" font-size="10.00" fill="#1a1a2e">CC ~2.5</text>
<text xml:space="preserve" text-anchor="middle" x="153.5" y="-224.75" font-family="Helvetica,sans-Serif" font-size="10.00" fill="#1a1a2e">Temp: &#45;65C</text>
</g>
<!-- t3&#45;&gt;mars -->
<g id="edge8" class="edge">
<title>t3&#45;&gt;mars</title>
<path fill="none" stroke="#4ecdc4" stroke-dasharray="5,2" d="M267.65,-333.67C242.35,-313.1 203.36,-281.41 178.14,-260.9"/>
</g>
<!-- luna -->
<g id="node8" class="node">
<title>luna</title>
<path fill="#ffe66d" stroke="#4ecdc4" d="M265.5,-260.75C265.5,-260.75 235.5,-260.75 235.5,-260.75 229.5,-260.75 223.5,-254.75 223.5,-248.75 223.5,-248.75 223.5,-231 223.5,-231 223.5,-225 229.5,-219 235.5,-219 235.5,-219 265.5,-219 265.5,-219 271.5,-219 277.5,-225 277.5,-231 277.5,-231 277.5,-248.75 277.5,-248.75 277.5,-254.75 271.5,-260.75 265.5,-260.75"/>
<text xml:space="preserve" text-anchor="middle" x="250.5" y="-247.25" font-family="Helvetica,sans-Serif" font-size="10.00" fill="#1a1a2e">Luna</text>
<text xml:space="preserve" text-anchor="middle" x="250.5" y="-236" font-family="Helvetica,sans-Serif" font-size="10.00" fill="#1a1a2e">CC ~2.0</text>
<text xml:space="preserve" text-anchor="middle" x="250.5" y="-224.75" font-family="Helvetica,sans-Serif" font-size="10.00" fill="#1a1a2e">No atmo</text>
</g>
<!-- t3&#45;&gt;luna -->
<g id="edge9" class="edge">
<title>t3&#45;&gt;luna</title>
<path fill="none" stroke="#4ecdc4" stroke-dasharray="5,2" d="M284.99,-333.67C277.35,-313.1 265.57,-281.41 257.94,-260.9"/>
</g>
<!-- t4 -->
<g id="node9" class="node">
<title>t4</title>
<path fill="#ff6b6b" stroke="#4ecdc4" d="M419.12,-260.75C419.12,-260.75 325.88,-260.75 325.88,-260.75 319.88,-260.75 313.88,-254.75 313.88,-248.75 313.88,-248.75 313.88,-231 313.88,-231 313.88,-225 319.88,-219 325.88,-219 325.88,-219 419.12,-219 419.12,-219 425.12,-219 431.12,-225 431.12,-231 431.12,-231 431.12,-248.75 431.12,-248.75 431.12,-254.75 425.12,-260.75 419.12,-260.75"/>
<text xml:space="preserve" text-anchor="middle" x="372.5" y="-247.25" font-family="Helvetica,sans-Serif" font-size="10.00" fill="white">Tier 4: Hostile</text>
<text xml:space="preserve" text-anchor="middle" x="372.5" y="-236" font-family="Helvetica,sans-Serif" font-size="10.00" fill="white">CC 3.01&#45;6.00</text>
<text xml:space="preserve" text-anchor="middle" x="372.5" y="-224.75" font-family="Helvetica,sans-Serif" font-size="10.00" fill="white">Very high infrastructure</text>
</g>
<!-- t3&#45;&gt;t4 -->
<g id="edge4" class="edge">
<title>t3&#45;&gt;t4</title>
<path fill="none" stroke="#4ecdc4" d="M306.8,-333.67C319.83,-315.27 339.16,-287.97 353.48,-267.74"/>
<polygon fill="#4ecdc4" stroke="#4ecdc4" points="355.4,-269.27 357.45,-262.14 351.4,-266.44 355.4,-269.27"/>
</g>
<!-- factors -->
<g id="node15" class="node">
<title>factors</title>
<path fill="#2d2d44" stroke="#4ecdc4" d="M677.62,-283C677.62,-283 479.38,-283 479.38,-283 473.38,-283 467.38,-277 467.38,-271 467.38,-271 467.38,-208.75 467.38,-208.75 467.38,-202.75 473.38,-196.75 479.38,-196.75 479.38,-196.75 677.62,-196.75 677.62,-196.75 683.62,-196.75 689.62,-202.75 689.62,-208.75 689.62,-208.75 689.62,-271 689.62,-271 689.62,-277 683.62,-283 677.62,-283"/>
<text xml:space="preserve" text-anchor="middle" x="578.5" y="-270.45" font-family="Helvetica,sans-Serif" font-size="9.00" fill="white">Colony Cost Factors</text>
<text xml:space="preserve" text-anchor="middle" x="578.5" y="-260.7" font-family="Helvetica,sans-Serif" font-size="9.00" fill="white">(Highest Single Factor Applies)</text>
<text xml:space="preserve" text-anchor="middle" x="578.5" y="-240.95" font-family="Helvetica,sans-Serif" font-size="9.00" fill="white">Temperature: +1 CC per (range/2) degrees outside</text>
<text xml:space="preserve" text-anchor="middle" x="578.5" y="-231.2" font-family="Helvetica,sans-Serif" font-size="9.00" fill="white">Dangerous Gas: +2 or +3 CC</text>
<text xml:space="preserve" text-anchor="middle" x="578.5" y="-221.45" font-family="Helvetica,sans-Serif" font-size="9.00" fill="white">No Breathable O2: +2 CC</text>
<text xml:space="preserve" text-anchor="middle" x="578.5" y="-211.7" font-family="Helvetica,sans-Serif" font-size="9.00" fill="white">Low Gravity: +1 CC (2x infrastructure)</text>
<text xml:space="preserve" text-anchor="middle" x="578.5" y="-201.95" font-family="Helvetica,sans-Serif" font-size="9.00" fill="white">Low Water: up to +2 CC at 0% hydro</text>
</g>
<!-- t3&#45;&gt;factors -->
<g id="edge14" class="edge">
<title>t3&#45;&gt;factors</title>
<path fill="none" stroke="#666666" stroke-dasharray="1,5" d="M343.96,-333.54C379.26,-319.59 427.4,-300.57 470.88,-283.39"/>
</g>
<!-- titan -->
<g id="node10" class="node">
<title>titan</title>
<path fill="#ff6b6b" stroke="#4ecdc4" d="M242.62,-145.75C242.62,-145.75 194.38,-145.75 194.38,-145.75 188.38,-145.75 182.38,-139.75 182.38,-133.75 182.38,-133.75 182.38,-116 182.38,-116 182.38,-110 188.38,-104 194.38,-104 194.38,-104 242.62,-104 242.62,-104 248.62,-104 254.62,-110 254.62,-116 254.62,-116 254.62,-133.75 254.62,-133.75 254.62,-139.75 248.62,-145.75 242.62,-145.75"/>
<text xml:space="preserve" text-anchor="middle" x="218.5" y="-132.25" font-family="Helvetica,sans-Serif" font-size="10.00" fill="white">Titan</text>
<text xml:space="preserve" text-anchor="middle" x="218.5" y="-121" font-family="Helvetica,sans-Serif" font-size="10.00" fill="white">CC ~3.5</text>
<text xml:space="preserve" text-anchor="middle" x="218.5" y="-109.75" font-family="Helvetica,sans-Serif" font-size="10.00" fill="white">Temp: &#45;179C</text>
</g>
<!-- t4&#45;&gt;titan -->
<g id="edge10" class="edge">
<title>t4&#45;&gt;titan</title>
<path fill="none" stroke="#4ecdc4" stroke-dasharray="5,2" d="M344.97,-218.67C317.02,-198.17 274,-166.6 246.05,-146.09"/>
</g>
<!-- ganymede -->
<g id="node11" class="node">
<title>ganymede</title>
<path fill="#ff6b6b" stroke="#4ecdc4" d="M350.62,-145.75C350.62,-145.75 302.38,-145.75 302.38,-145.75 296.38,-145.75 290.38,-139.75 290.38,-133.75 290.38,-133.75 290.38,-116 290.38,-116 290.38,-110 296.38,-104 302.38,-104 302.38,-104 350.62,-104 350.62,-104 356.62,-104 362.62,-110 362.62,-116 362.62,-116 362.62,-133.75 362.62,-133.75 362.62,-139.75 356.62,-145.75 350.62,-145.75"/>
<text xml:space="preserve" text-anchor="middle" x="326.5" y="-132.25" font-family="Helvetica,sans-Serif" font-size="10.00" fill="white">Ganymede</text>
<text xml:space="preserve" text-anchor="middle" x="326.5" y="-121" font-family="Helvetica,sans-Serif" font-size="10.00" fill="white">CC ~4.0</text>
<text xml:space="preserve" text-anchor="middle" x="326.5" y="-109.75" font-family="Helvetica,sans-Serif" font-size="10.00" fill="white">Temp: &#45;163C</text>
</g>
<!-- t4&#45;&gt;ganymede -->
<g id="edge11" class="edge">
<title>t4&#45;&gt;ganymede</title>
<path fill="none" stroke="#4ecdc4" stroke-dasharray="5,2" d="M364.28,-218.67C355.9,-198.1 343,-166.41 334.65,-145.9"/>
</g>
<!-- t5 -->
<g id="node12" class="node">
<title>t5</title>
<path fill="#2d2d44" stroke="#4ecdc4" d="M522.5,-145.75C522.5,-145.75 410.5,-145.75 410.5,-145.75 404.5,-145.75 398.5,-139.75 398.5,-133.75 398.5,-133.75 398.5,-116 398.5,-116 398.5,-110 404.5,-104 410.5,-104 410.5,-104 522.5,-104 522.5,-104 528.5,-104 534.5,-110 534.5,-116 534.5,-116 534.5,-133.75 534.5,-133.75 534.5,-139.75 528.5,-145.75 522.5,-145.75"/>
<text xml:space="preserve" text-anchor="middle" x="466.5" y="-132.25" font-family="Helvetica,sans-Serif" font-size="10.00" fill="white">Tier 5: Extreme</text>
<text xml:space="preserve" text-anchor="middle" x="466.5" y="-121" font-family="Helvetica,sans-Serif" font-size="10.00" fill="white">CC 6.00+</text>
<text xml:space="preserve" text-anchor="middle" x="466.5" y="-109.75" font-family="Helvetica,sans-Serif" font-size="10.00" fill="white">Automated mining preferred</text>
</g>
<!-- t4&#45;&gt;t5 -->
<g id="edge5" class="edge">
<title>t4&#45;&gt;t5</title>
<path fill="none" stroke="#4ecdc4" d="M389.31,-218.67C404.74,-200.11 427.72,-172.49 444.59,-152.21"/>
<polygon fill="#4ecdc4" stroke="#4ecdc4" points="446.28,-154.01 448.87,-147.07 442.51,-150.88 446.28,-154.01"/>
</g>
<!-- note1 -->
<g id="node16" class="node">
<title>note1</title>
<polygon fill="#2d2d44" stroke="#4ecdc4" points="680.75,-143.5 570.25,-143.5 570.25,-106.25 686.75,-106.25 686.75,-137.5 680.75,-143.5"/>
<polyline fill="none" stroke="#4ecdc4" points="680.75,-143.5 680.75,-137.5"/>
<polyline fill="none" stroke="#4ecdc4" points="686.75,-137.5 680.75,-137.5"/>
<text xml:space="preserve" text-anchor="middle" x="628.5" y="-130.95" font-family="Helvetica,sans-Serif" font-size="9.00" fill="white">Tide&#45;locked planets:</text>
<text xml:space="preserve" text-anchor="middle" x="628.5" y="-121.2" font-family="Helvetica,sans-Serif" font-size="9.00" fill="white">20% population capacity</text>
<text xml:space="preserve" text-anchor="middle" x="628.5" y="-111.45" font-family="Helvetica,sans-Serif" font-size="9.00" fill="white">80% temp cost reduction</text>
</g>
<!-- t4&#45;&gt;note1 -->
<g id="edge15" class="edge">
<title>t4&#45;&gt;note1</title>
<path fill="none" stroke="#666666" stroke-dasharray="1,5" d="M407.29,-218.65C420.35,-211.38 435.43,-203.35 449.5,-196.75 492.01,-176.8 541.78,-157.4 578.03,-143.95"/>
</g>
<!-- venus -->
<g id="node13" class="node">
<title>venus</title>
<path fill="#2d2d44" stroke="#4ecdc4" d="M384.12,-53C384.12,-53 338.88,-53 338.88,-53 332.88,-53 326.88,-47 326.88,-41 326.88,-41 326.88,-12 326.88,-12 326.88,-6 332.88,0 338.88,0 338.88,0 384.12,0 384.12,0 390.12,0 396.12,-6 396.12,-12 396.12,-12 396.12,-41 396.12,-41 396.12,-47 390.12,-53 384.12,-53"/>
<text xml:space="preserve" text-anchor="middle" x="361.5" y="-39.5" font-family="Helvetica,sans-Serif" font-size="10.00" fill="white">Venus</text>
<text xml:space="preserve" text-anchor="middle" x="361.5" y="-28.25" font-family="Helvetica,sans-Serif" font-size="10.00" fill="white">CC ~8.0+</text>
<text xml:space="preserve" text-anchor="middle" x="361.5" y="-17" font-family="Helvetica,sans-Serif" font-size="10.00" fill="white">Temp: 464C</text>
<text xml:space="preserve" text-anchor="middle" x="361.5" y="-5.75" font-family="Helvetica,sans-Serif" font-size="10.00" fill="white">92 atm</text>
</g>
<!-- t5&#45;&gt;venus -->
<g id="edge12" class="edge">
<title>t5&#45;&gt;venus</title>
<path fill="none" stroke="#4ecdc4" stroke-dasharray="5,2" d="M444.49,-103.67C428.49,-88.99 406.72,-69 389.49,-53.19"/>
</g>
<!-- mercury -->
<g id="node14" class="node">
<title>mercury</title>
<path fill="#2d2d44" stroke="#4ecdc4" d="M489.12,-53C489.12,-53 443.88,-53 443.88,-53 437.88,-53 431.88,-47 431.88,-41 431.88,-41 431.88,-12 431.88,-12 431.88,-6 437.88,0 443.88,0 443.88,0 489.12,0 489.12,0 495.12,0 501.12,-6 501.12,-12 501.12,-12 501.12,-41 501.12,-41 501.12,-47 495.12,-53 489.12,-53"/>
<text xml:space="preserve" text-anchor="middle" x="466.5" y="-39.5" font-family="Helvetica,sans-Serif" font-size="10.00" fill="white">Mercury</text>
<text xml:space="preserve" text-anchor="middle" x="466.5" y="-28.25" font-family="Helvetica,sans-Serif" font-size="10.00" fill="white">CC ~7.0+</text>
<text xml:space="preserve" text-anchor="middle" x="466.5" y="-17" font-family="Helvetica,sans-Serif" font-size="10.00" fill="white">Temp: 167C</text>
<text xml:space="preserve" text-anchor="middle" x="466.5" y="-5.75" font-family="Helvetica,sans-Serif" font-size="10.00" fill="white">No atmo</text>
</g>
<!-- t5&#45;&gt;mercury -->
<g id="edge13" class="edge">
<title>t5&#45;&gt;mercury</title>
<path fill="none" stroke="#4ecdc4" stroke-dasharray="5,2" d="M466.5,-103.91C466.5,-89.24 466.5,-69.19 466.5,-53.31"/>
</g>
<!-- note2 -->
<g id="node17" class="node">
<title>note2</title>
<polygon fill="#ff6b6b" stroke="#4ecdc4" points="618.12,-45.12 536.88,-45.12 536.88,-7.88 624.12,-7.88 624.12,-39.12 618.12,-45.12"/>
<polyline fill="none" stroke="#4ecdc4" points="618.12,-45.12 618.12,-39.12"/>
<polyline fill="none" stroke="#4ecdc4" points="624.12,-39.12 618.12,-39.12"/>
<text xml:space="preserve" text-anchor="middle" x="580.5" y="-32.58" font-family="Helvetica,sans-Serif" font-size="9.00" fill="white">Gravity cannot be</text>
<text xml:space="preserve" text-anchor="middle" x="580.5" y="-22.82" font-family="Helvetica,sans-Serif" font-size="9.00" fill="white">terraformed &#45;</text>
<text xml:space="preserve" text-anchor="middle" x="580.5" y="-13.07" font-family="Helvetica,sans-Serif" font-size="9.00" fill="white">permanent factor</text>
</g>
<!-- t5&#45;&gt;note2 -->
<g id="edge16" class="edge">
<title>t5&#45;&gt;note2</title>
<path fill="none" stroke="#666666" stroke-dasharray="1,5" d="M490.4,-103.67C510.77,-86.45 539.77,-61.93 559.32,-45.41"/>
</g>
</g>
</svg>
