<?xml version="1.0" encoding="UTF-8" standalone="no"?>
<!DOCTYPE svg PUBLIC "-//W3C//DTD SVG 1.1//EN"
 "http://www.w3.org/Graphics/SVG/1.1/DTD/svg11.dtd">
<!-- Generated by graphviz version 14.1.2 (20260124.0452)
 -->
<!-- Title: InstallationDependencies Pages: 1 -->
<svg width="1237pt" height="444pt"
 viewBox="0.00 0.00 1237.00 444.00" xmlns="http://www.w3.org/2000/svg" xmlns:xlink="http://www.w3.org/1999/xlink">
<g id="graph0" class="graph" transform="scale(1 1) rotate(0) translate(4 439.75)">
<title>InstallationDependencies</title>
<polygon fill="#1a1a2e" stroke="none" points="-4,4 -4,-439.75 1233,-439.75 1233,4 -4,4"/>
<g id="clust1" class="cluster">
<title>cluster_extraction</title>
<polygon fill="#1a1a2e" stroke="#ff6b6b" stroke-dasharray="5,2" points="8,-171.62 8,-427.75 344,-427.75 344,-171.62 8,-171.62"/>
<text xml:space="preserve" text-anchor="middle" x="176" y="-410.45" font-family="Helvetica,sans-Serif" font-size="14.00" fill="#888888">Resource Extraction</text>
</g>
<g id="clust2" class="cluster">
<title>cluster_manufacturing</title>
<polygon fill="#1a1a2e" stroke="#4ecdc4" stroke-dasharray="5,2" points="352,-166 352,-281 746,-281 746,-166 352,-166"/>
<text xml:space="preserve" text-anchor="middle" x="549" y="-263.7" font-family="Helvetica,sans-Serif" font-size="14.00" fill="#888888">Manufacturing</text>
</g>
<g id="clust3" class="cluster">
<title>cluster_economy</title>
<polygon fill="#1a1a2e" stroke="#95d5b2" stroke-dasharray="5,2" points="786,-8 786,-123 1085,-123 1085,-8 786,-8"/>
<text xml:space="preserve" text-anchor="middle" x="935.5" y="-105.7" font-family="Helvetica,sans-Serif" font-size="14.00" fill="#888888">Economy &amp; Research</text>
</g>
<g id="clust4" class="cluster">
<title>cluster_logistics</title>
<polygon fill="#1a1a2e" stroke="#ffe66d" stroke-dasharray="5,2" points="766,-171.62 766,-275.38 1221,-275.38 1221,-171.62 766,-171.62"/>
<text xml:space="preserve" text-anchor="middle" x="993.5" y="-258.07" font-family="Helvetica,sans-Serif" font-size="14.00" fill="#888888">Logistics &amp; Support</text>
</g>
<g id="clust5" class="cluster">
<title>cluster_military</title>
<polygon fill="#1a1a2e" stroke="#9b59b6" stroke-dasharray="5,2" points="327,-13.62 327,-117.38 635,-117.38 635,-13.62 327,-13.62"/>
<text xml:space="preserve" text-anchor="middle" x="481" y="-100.08" font-family="Helvetica,sans-Serif" font-size="14.00" fill="#888888">Military &amp; Defense</text>
</g>
<g id="clust6" class="cluster">
<title>cluster_legend</title>
<polygon fill="#1a1a2e" stroke="#666666" stroke-dasharray="5,2" points="557,-326.88 557,-424.88 1029,-424.88 1029,-326.88 557,-326.88"/>
<text xml:space="preserve" text-anchor="middle" x="793" y="-407.57" font-family="Helvetica,sans-Serif" font-size="14.00" fill="#888888">Legend</text>
</g>
<!-- mines -->
<g id="node1" class="node">
<title>mines</title>
<path fill="#ff6b6b" stroke="#4ecdc4" d="M195.62,-373.75C195.62,-373.75 150.38,-373.75 150.38,-373.75 144.38,-373.75 138.38,-367.75 138.38,-361.75 138.38,-361.75 138.38,-344 138.38,-344 138.38,-338 144.38,-332 150.38,-332 150.38,-332 195.62,-332 195.62,-332 201.62,-332 207.62,-338 207.62,-344 207.62,-344 207.62,-361.75 207.62,-361.75 207.62,-367.75 201.62,-373.75 195.62,-373.75"/>
<text xml:space="preserve" text-anchor="middle" x="173" y="-360.25" font-family="Helvetica,sans-Serif" font-size="10.00" fill="white">Mines</text>
<text xml:space="preserve" text-anchor="middle" x="173" y="-349" font-family="Helvetica,sans-Serif" font-size="10.00" fill="white">50k workers</text>
<text xml:space="preserve" text-anchor="middle" x="173" y="-337.75" font-family="Helvetica,sans-Serif" font-size="10.00" fill="white">120 BP</text>
</g>
<!-- const_fact -->
<g id="node5" class="node">
<title>const_fact</title>
<path fill="#4ecdc4" stroke="#4ecdc4" d="M515.75,-227C515.75,-227 468.25,-227 468.25,-227 462.25,-227 456.25,-221 456.25,-215 456.25,-215 456.25,-186 456.25,-186 456.25,-180 462.25,-174 468.25,-174 468.25,-174 515.75,-174 515.75,-174 521.75,-174 527.75,-180 527.75,-186 527.75,-186 527.75,-215 527.75,-215 527.75,-221 521.75,-227 515.75,-227"/>
<text xml:space="preserve" text-anchor="middle" x="492" y="-213.5" font-family="Helvetica,sans-Serif" font-size="10.00" fill="#1a1a2e">Construction</text>
<text xml:space="preserve" text-anchor="middle" x="492" y="-202.25" font-family="Helvetica,sans-Serif" font-size="10.00" fill="#1a1a2e">Factories</text>
<text xml:space="preserve" text-anchor="middle" x="492" y="-191" font-family="Helvetica,sans-Serif" font-size="10.00" fill="#1a1a2e">50k workers</text>
<text xml:space="preserve" text-anchor="middle" x="492" y="-179.75" font-family="Helvetica,sans-Serif" font-size="10.00" fill="#1a1a2e">120 BP</text>
</g>
<!-- mines&#45;&gt;const_fact -->
<g id="edge1" class="edge">
<title>mines&#45;&gt;const_fact</title>
<path fill="none" stroke="#4ecdc4" d="M208.03,-333.48C213.91,-330.94 220.04,-328.61 226,-326.88 293.53,-307.21 315.7,-327.43 383,-307 400.12,-301.8 402.75,-296.47 419,-289 427.32,-285.17 430.91,-286.81 438,-281 453.45,-268.35 466.25,-250.15 475.51,-234.36"/>
<polygon fill="#4ecdc4" stroke="#4ecdc4" points="477.44,-235.92 478.76,-228.62 473.18,-233.5 477.44,-235.92"/>
<text xml:space="preserve" text-anchor="middle" x="434" y="-294.9" font-family="Helvetica,sans-Serif" font-size="8.00" fill="#888888">Minerals</text>
</g>
<!-- ord_fact -->
<g id="node6" class="node">
<title>ord_fact</title>
<path fill="#4ecdc4" stroke="#4ecdc4" d="M620.62,-227C620.62,-227 575.38,-227 575.38,-227 569.38,-227 563.38,-221 563.38,-215 563.38,-215 563.38,-186 563.38,-186 563.38,-180 569.38,-174 575.38,-174 575.38,-174 620.62,-174 620.62,-174 626.62,-174 632.62,-180 632.62,-186 632.62,-186 632.62,-215 632.62,-215 632.62,-221 626.62,-227 620.62,-227"/>
<text xml:space="preserve" text-anchor="middle" x="598" y="-213.5" font-family="Helvetica,sans-Serif" font-size="10.00" fill="#1a1a2e">Ordnance</text>
<text xml:space="preserve" text-anchor="middle" x="598" y="-202.25" font-family="Helvetica,sans-Serif" font-size="10.00" fill="#1a1a2e">Factories</text>
<text xml:space="preserve" text-anchor="middle" x="598" y="-191" font-family="Helvetica,sans-Serif" font-size="10.00" fill="#1a1a2e">50k workers</text>
<text xml:space="preserve" text-anchor="middle" x="598" y="-179.75" font-family="Helvetica,sans-Serif" font-size="10.00" fill="#1a1a2e">120 BP</text>
</g>
<!-- mines&#45;&gt;ord_fact -->
<g id="edge2" class="edge">
<title>mines&#45;&gt;ord_fact</title>
<path fill="none" stroke="#4ecdc4" d="M207.93,-333.11C213.83,-330.61 219.98,-328.4 226,-326.88 264.84,-317.04 556.86,-334.49 586,-307 604.87,-289.2 606.62,-259.09 604.37,-235.58"/>
<polygon fill="#4ecdc4" stroke="#4ecdc4" points="606.82,-235.42 603.56,-228.76 601.95,-236 606.82,-235.42"/>
<text xml:space="preserve" text-anchor="middle" x="612.3" y="-294.9" font-family="Helvetica,sans-Serif" font-size="8.00" fill="#888888">Minerals</text>
</g>
<!-- fighter_fact -->
<g id="node7" class="node">
<title>fighter_fact</title>
<path fill="#4ecdc4" stroke="#4ecdc4" d="M725.62,-227C725.62,-227 680.38,-227 680.38,-227 674.38,-227 668.38,-221 668.38,-215 668.38,-215 668.38,-186 668.38,-186 668.38,-180 674.38,-174 680.38,-174 680.38,-174 725.62,-174 725.62,-174 731.62,-174 737.62,-180 737.62,-186 737.62,-186 737.62,-215 737.62,-215 737.62,-221 731.62,-227 725.62,-227"/>
<text xml:space="preserve" text-anchor="middle" x="703" y="-213.5" font-family="Helvetica,sans-Serif" font-size="10.00" fill="#1a1a2e">Fighter</text>
<text xml:space="preserve" text-anchor="middle" x="703" y="-202.25" font-family="Helvetica,sans-Serif" font-size="10.00" fill="#1a1a2e">Factories</text>
<text xml:space="preserve" text-anchor="middle" x="703" y="-191" font-family="Helvetica,sans-Serif" font-size="10.00" fill="#1a1a2e">50k workers</text>
<text xml:space="preserve" text-anchor="middle" x="703" y="-179.75" font-family="Helvetica,sans-Serif" font-size="10.00" fill="#1a1a2e">120 BP</text>
</g>
<!-- mines&#45;&gt;fighter_fact -->
<g id="edge3" class="edge">
<title>mines&#45;&gt;fighter_fact</title>
<path fill="none" stroke="#4ecdc4" d="M207.93,-333.07C213.82,-330.58 219.98,-328.38 226,-326.88 270.25,-315.83 596.57,-329.93 636,-307 663.25,-291.15 681.15,-259.32 691.53,-234.74"/>
<polygon fill="#4ecdc4" stroke="#4ecdc4" points="693.72,-235.86 694.08,-228.45 689.18,-234.02 693.72,-235.86"/>
<text xml:space="preserve" text-anchor="middle" x="671.86" y="-294.9" font-family="Helvetica,sans-Serif" font-size="8.00" fill="#888888">Minerals</text>
</g>
<!-- shipyards -->
<g id="node8" class="node">
<title>shipyards</title>
<path fill="#4ecdc4" stroke="#4ecdc4" d="M407.75,-218.5C407.75,-218.5 372.25,-218.5 372.25,-218.5 366.25,-218.5 360.25,-212.5 360.25,-206.5 360.25,-206.5 360.25,-194.5 360.25,-194.5 360.25,-188.5 366.25,-182.5 372.25,-182.5 372.25,-182.5 407.75,-182.5 407.75,-182.5 413.75,-182.5 419.75,-188.5 419.75,-194.5 419.75,-194.5 419.75,-206.5 419.75,-206.5 419.75,-212.5 413.75,-218.5 407.75,-218.5"/>
<text xml:space="preserve" text-anchor="middle" x="390" y="-202.25" font-family="Helvetica,sans-Serif" font-size="10.00" fill="#1a1a2e">Naval</text>
<text xml:space="preserve" text-anchor="middle" x="390" y="-191" font-family="Helvetica,sans-Serif" font-size="10.00" fill="#1a1a2e">Shipyards</text>
</g>
<!-- mines&#45;&gt;shipyards -->
<g id="edge4" class="edge">
<title>mines&#45;&gt;shipyards</title>
<path fill="none" stroke="#4ecdc4" d="M207.91,-334.13C213.86,-331.47 220.04,-328.94 226,-326.88 282.7,-307.2 313.4,-326.09 353,-281 366.81,-265.27 376.46,-243.5 382.43,-226.72"/>
<polygon fill="#4ecdc4" stroke="#4ecdc4" points="384.66,-227.78 384.59,-220.37 380.02,-226.21 384.66,-227.78"/>
<text xml:space="preserve" text-anchor="middle" x="358.65" y="-294.9" font-family="Helvetica,sans-Serif" font-size="8.00" fill="#888888">Minerals</text>
</g>
<!-- auto_mines -->
<g id="node2" class="node">
<title>auto_mines</title>
<path fill="#ff6b6b" stroke="#4ecdc4" d="M324.25,-373.75C324.25,-373.75 255.75,-373.75 255.75,-373.75 249.75,-373.75 243.75,-367.75 243.75,-361.75 243.75,-361.75 243.75,-344 243.75,-344 243.75,-338 249.75,-332 255.75,-332 255.75,-332 324.25,-332 324.25,-332 330.25,-332 336.25,-338 336.25,-344 336.25,-344 336.25,-361.75 336.25,-361.75 336.25,-367.75 330.25,-373.75 324.25,-373.75"/>
<text xml:space="preserve" text-anchor="middle" x="290" y="-360.25" font-family="Helvetica,sans-Serif" font-size="10.00" fill="white">Automated Mines</text>
<text xml:space="preserve" text-anchor="middle" x="290" y="-349" font-family="Helvetica,sans-Serif" font-size="10.00" fill="white">0 workers</text>
<text xml:space="preserve" text-anchor="middle" x="290" y="-337.75" font-family="Helvetica,sans-Serif" font-size="10.00" fill="white">240 BP</text>
</g>
<!-- mass_driver -->
<g id="node12" class="node">
<title>mass_driver</title>
<path fill="#ffe66d" stroke="#4ecdc4" d="M836.25,-221.38C836.25,-221.38 785.75,-221.38 785.75,-221.38 779.75,-221.38 773.75,-215.38 773.75,-209.38 773.75,-209.38 773.75,-191.62 773.75,-191.62 773.75,-185.62 779.75,-179.62 785.75,-179.62 785.75,-179.62 836.25,-179.62 836.25,-179.62 842.25,-179.62 848.25,-185.62 848.25,-191.62 848.25,-191.62 848.25,-209.38 848.25,-209.38 848.25,-215.38 842.25,-221.38 836.25,-221.38"/>
<text xml:space="preserve" text-anchor="middle" x="811" y="-207.88" font-family="Helvetica,sans-Serif" font-size="10.00" fill="#1a1a2e">Mass Drivers</text>
<text xml:space="preserve" text-anchor="middle" x="811" y="-196.62" font-family="Helvetica,sans-Serif" font-size="10.00" fill="#1a1a2e">0 workers</text>
<text xml:space="preserve" text-anchor="middle" x="811" y="-185.38" font-family="Helvetica,sans-Serif" font-size="10.00" fill="#1a1a2e">300 BP</text>
</g>
<!-- auto_mines&#45;&gt;mass_driver -->
<g id="edge5" class="edge">
<title>auto_mines&#45;&gt;mass_driver</title>
<path fill="none" stroke="#4ecdc4" d="M336.58,-347.08C388.23,-341.83 474.03,-333.3 548,-326.88 576.75,-324.38 786.99,-327.8 807,-307 826.32,-286.91 824.1,-253.46 819.11,-229.61"/>
<polygon fill="#4ecdc4" stroke="#4ecdc4" points="821.57,-229.36 817.6,-223.09 816.79,-230.46 821.57,-229.36"/>
<text xml:space="preserve" text-anchor="middle" x="833.07" y="-299.4" font-family="Helvetica,sans-Serif" font-size="8.00" fill="#888888">Minerals</text>
<text xml:space="preserve" text-anchor="middle" x="833.07" y="-290.4" font-family="Helvetica,sans-Serif" font-size="8.00" fill="#888888">(remote)</text>
</g>
<!-- fuel_ref -->
<g id="node3" class="node">
<title>fuel_ref</title>
<path fill="#ff6b6b" stroke="#4ecdc4" d="M241,-221.38C241,-221.38 183,-221.38 183,-221.38 177,-221.38 171,-215.38 171,-209.38 171,-209.38 171,-191.62 171,-191.62 171,-185.62 177,-179.62 183,-179.62 183,-179.62 241,-179.62 241,-179.62 247,-179.62 253,-185.62 253,-191.62 253,-191.62 253,-209.38 253,-209.38 253,-215.38 247,-221.38 241,-221.38"/>
<text xml:space="preserve" text-anchor="middle" x="212" y="-207.88" font-family="Helvetica,sans-Serif" font-size="10.00" fill="white">Fuel Refineries</text>
<text xml:space="preserve" text-anchor="middle" x="212" y="-196.62" font-family="Helvetica,sans-Serif" font-size="10.00" fill="white">50k workers</text>
<text xml:space="preserve" text-anchor="middle" x="212" y="-185.38" font-family="Helvetica,sans-Serif" font-size="10.00" fill="white">120 BP</text>
</g>
<!-- fuel_ref&#45;&gt;shipyards -->
<g id="edge6" class="edge">
<title>fuel_ref&#45;&gt;shipyards</title>
<path fill="none" stroke="#4ecdc4" stroke-dasharray="5,2" d="M253.28,-200.5C282.92,-200.5 322.57,-200.5 351.53,-200.5"/>
<polygon fill="#4ecdc4" stroke="#4ecdc4" points="351.27,-202.95 358.27,-200.5 351.27,-198.05 351.27,-202.95"/>
<text xml:space="preserve" text-anchor="middle" x="306.62" y="-204.9" font-family="Helvetica,sans-Serif" font-size="8.00" fill="#888888">Fuel</text>
</g>
<!-- harvesters -->
<g id="node4" class="node">
<title>harvesters</title>
<path fill="#ff6b6b" stroke="#4ecdc4" d="M90.25,-373.75C90.25,-373.75 27.75,-373.75 27.75,-373.75 21.75,-373.75 15.75,-367.75 15.75,-361.75 15.75,-361.75 15.75,-344 15.75,-344 15.75,-338 21.75,-332 27.75,-332 27.75,-332 90.25,-332 90.25,-332 96.25,-332 102.25,-338 102.25,-344 102.25,-344 102.25,-361.75 102.25,-361.75 102.25,-367.75 96.25,-373.75 90.25,-373.75"/>
<text xml:space="preserve" text-anchor="middle" x="59" y="-360.25" font-family="Helvetica,sans-Serif" font-size="10.00" fill="white">Fuel Harvesters</text>
<text xml:space="preserve" text-anchor="middle" x="59" y="-349" font-family="Helvetica,sans-Serif" font-size="10.00" fill="white">(Ship Module)</text>
<text xml:space="preserve" text-anchor="middle" x="59" y="-337.75" font-family="Helvetica,sans-Serif" font-size="10.00" fill="white">Gas Giants only</text>
</g>
<!-- harvesters&#45;&gt;fuel_ref -->
<g id="edge7" class="edge">
<title>harvesters&#45;&gt;fuel_ref</title>
<path fill="none" stroke="#4ecdc4" stroke-dasharray="5,2" d="M73.2,-331.77C82.61,-318.99 95.57,-302.39 108.5,-289 130.33,-266.4 157.55,-243.56 178.59,-226.89"/>
<polygon fill="#4ecdc4" stroke="#4ecdc4" points="180.02,-228.89 184.01,-222.64 176.99,-225.04 180.02,-228.89"/>
<text xml:space="preserve" text-anchor="middle" x="121.25" y="-294.9" font-family="Helvetica,sans-Serif" font-size="8.00" fill="#888888">Sorium</text>
</g>
<!-- const_fact&#45;&gt;mines -->
<g id="edge8" class="edge">
<title>const_fact&#45;&gt;mines</title>
<path fill="none" stroke="#95d5b2" stroke-width="2" d="M490.33,-227.33C487.25,-251.99 478.53,-288.12 454,-307 413.7,-338.02 275.1,-313.61 226,-326.88 222.63,-327.79 219.21,-328.9 215.82,-330.15"/>
<polygon fill="#95d5b2" stroke="#95d5b2" stroke-width="2" points="216.39,-327.29 210.79,-332.15 218.2,-331.84 216.39,-327.29"/>
<text xml:space="preserve" text-anchor="middle" x="480.48" y="-294.9" font-family="Helvetica,sans-Serif" font-size="8.00" fill="#888888">Builds</text>
</g>
<!-- const_fact&#45;&gt;fuel_ref -->
<g id="edge9" class="edge">
<title>const_fact&#45;&gt;fuel_ref</title>
<path fill="none" stroke="#95d5b2" stroke-width="2" d="M481.37,-227.47C472.67,-245.52 458.44,-267.87 438,-278.58 400.61,-298.19 383.71,-289.79 343,-278.58 306.37,-268.49 269.64,-245.18 244.43,-226.64"/>
<polygon fill="#95d5b2" stroke="#95d5b2" stroke-width="2" points="247.14,-225.6 240.06,-223.36 244.2,-229.52 247.14,-225.6"/>
<text xml:space="preserve" text-anchor="middle" x="300" y="-294.9" font-family="Helvetica,sans-Serif" font-size="8.00" fill="#888888">Builds</text>
</g>
<!-- research -->
<g id="node10" class="node">
<title>research</title>
<path fill="#95d5b2" stroke="#4ecdc4" d="M849.5,-69C849.5,-69 806.5,-69 806.5,-69 800.5,-69 794.5,-63 794.5,-57 794.5,-57 794.5,-28 794.5,-28 794.5,-22 800.5,-16 806.5,-16 806.5,-16 849.5,-16 849.5,-16 855.5,-16 861.5,-22 861.5,-28 861.5,-28 861.5,-57 861.5,-57 861.5,-63 855.5,-69 849.5,-69"/>
<text xml:space="preserve" text-anchor="middle" x="828" y="-55.5" font-family="Helvetica,sans-Serif" font-size="10.00" fill="#1a1a2e">Research</text>
<text xml:space="preserve" text-anchor="middle" x="828" y="-44.25" font-family="Helvetica,sans-Serif" font-size="10.00" fill="#1a1a2e">Labs</text>
<text xml:space="preserve" text-anchor="middle" x="828" y="-33" font-family="Helvetica,sans-Serif" font-size="10.00" fill="#1a1a2e">1M workers</text>
<text xml:space="preserve" text-anchor="middle" x="828" y="-21.75" font-family="Helvetica,sans-Serif" font-size="10.00" fill="#1a1a2e">200 RP/yr</text>
</g>
<!-- const_fact&#45;&gt;research -->
<g id="edge12" class="edge">
<title>const_fact&#45;&gt;research</title>
<path fill="none" stroke="#95d5b2" stroke-width="2" d="M528.05,-175.67C533.64,-172.28 539.42,-168.95 545,-166 547.86,-164.49 708.25,-95.2 786.27,-61.52"/>
<polygon fill="#95d5b2" stroke="#95d5b2" stroke-width="2" points="785.77,-64.4 791.22,-59.38 783.83,-59.9 785.77,-64.4"/>
<text xml:space="preserve" text-anchor="middle" x="633.08" y="-136.9" font-family="Helvetica,sans-Serif" font-size="8.00" fill="#888888">Builds</text>
</g>
<!-- infra -->
<g id="node15" class="node">
<title>infra</title>
<path fill="#ffe66d" stroke="#4ecdc4" d="M1200.88,-221.38C1200.88,-221.38 1151.12,-221.38 1151.12,-221.38 1145.12,-221.38 1139.12,-215.38 1139.12,-209.38 1139.12,-209.38 1139.12,-191.62 1139.12,-191.62 1139.12,-185.62 1145.12,-179.62 1151.12,-179.62 1151.12,-179.62 1200.88,-179.62 1200.88,-179.62 1206.88,-179.62 1212.88,-185.62 1212.88,-191.62 1212.88,-191.62 1212.88,-209.38 1212.88,-209.38 1212.88,-215.38 1206.88,-221.38 1200.88,-221.38"/>
<text xml:space="preserve" text-anchor="middle" x="1176" y="-207.88" font-family="Helvetica,sans-Serif" font-size="10.00" fill="#1a1a2e">Infrastructure</text>
<text xml:space="preserve" text-anchor="middle" x="1176" y="-196.62" font-family="Helvetica,sans-Serif" font-size="10.00" fill="#1a1a2e">(Colony Cost</text>
<text xml:space="preserve" text-anchor="middle" x="1176" y="-185.38" font-family="Helvetica,sans-Serif" font-size="10.00" fill="#1a1a2e">Support)</text>
</g>
<!-- const_fact&#45;&gt;infra -->
<g id="edge10" class="edge">
<title>const_fact&#45;&gt;infra</title>
<path fill="none" stroke="#95d5b2" stroke-width="2" d="M502.3,-227.45C510.78,-245.5 524.73,-267.84 545,-278.58 601.55,-308.55 1064.19,-308.06 1121,-278.58 1140.96,-268.23 1155.21,-246.93 1164.2,-229.19"/>
<polygon fill="#95d5b2" stroke="#95d5b2" stroke-width="2" points="1165.59,-231.94 1166.41,-224.57 1161.17,-229.82 1165.59,-231.94"/>
<text xml:space="preserve" text-anchor="middle" x="574" y="-294.9" font-family="Helvetica,sans-Serif" font-size="8.00" fill="#888888">Builds</text>
</g>
<!-- gf_training -->
<g id="node16" class="node">
<title>gf_training</title>
<path fill="#9b59b6" stroke="#4ecdc4" d="M398.62,-63.38C398.62,-63.38 347.38,-63.38 347.38,-63.38 341.38,-63.38 335.38,-57.38 335.38,-51.38 335.38,-51.38 335.38,-33.62 335.38,-33.62 335.38,-27.62 341.38,-21.62 347.38,-21.62 347.38,-21.62 398.62,-21.62 398.62,-21.62 404.62,-21.62 410.62,-27.62 410.62,-33.62 410.62,-33.62 410.62,-51.38 410.62,-51.38 410.62,-57.38 404.62,-63.38 398.62,-63.38"/>
<text xml:space="preserve" text-anchor="middle" x="373" y="-49.88" font-family="Helvetica,sans-Serif" font-size="10.00" fill="white">Ground Force</text>
<text xml:space="preserve" text-anchor="middle" x="373" y="-38.62" font-family="Helvetica,sans-Serif" font-size="10.00" fill="white">Training</text>
<text xml:space="preserve" text-anchor="middle" x="373" y="-27.38" font-family="Helvetica,sans-Serif" font-size="10.00" fill="white">1M workers</text>
</g>
<!-- const_fact&#45;&gt;gf_training -->
<g id="edge13" class="edge">
<title>const_fact&#45;&gt;gf_training</title>
<path fill="none" stroke="#95d5b2" stroke-width="2" d="M469.93,-173.69C457.61,-159.04 442.14,-140.24 429,-123 415.95,-105.88 402.01,-86.1 391.31,-70.55"/>
<polygon fill="#95d5b2" stroke="#95d5b2" stroke-width="2" points="394.32,-70.61 388.34,-66.23 390.28,-73.39 394.32,-70.61"/>
<text xml:space="preserve" text-anchor="middle" x="459.75" y="-136.9" font-family="Helvetica,sans-Serif" font-size="8.00" fill="#888888">Builds</text>
</g>
<!-- terraform -->
<g id="node18" class="node">
<title>terraform</title>
<path fill="#9b59b6" stroke="#4ecdc4" d="M615.25,-63.38C615.25,-63.38 564.75,-63.38 564.75,-63.38 558.75,-63.38 552.75,-57.38 552.75,-51.38 552.75,-51.38 552.75,-33.62 552.75,-33.62 552.75,-27.62 558.75,-21.62 564.75,-21.62 564.75,-21.62 615.25,-21.62 615.25,-21.62 621.25,-21.62 627.25,-27.62 627.25,-33.62 627.25,-33.62 627.25,-51.38 627.25,-51.38 627.25,-57.38 621.25,-63.38 615.25,-63.38"/>
<text xml:space="preserve" text-anchor="middle" x="590" y="-49.88" font-family="Helvetica,sans-Serif" font-size="10.00" fill="white">Terraforming</text>
<text xml:space="preserve" text-anchor="middle" x="590" y="-38.62" font-family="Helvetica,sans-Serif" font-size="10.00" fill="white">125k workers</text>
<text xml:space="preserve" text-anchor="middle" x="590" y="-27.38" font-family="Helvetica,sans-Serif" font-size="10.00" fill="white">300 BP</text>
</g>
<!-- const_fact&#45;&gt;terraform -->
<g id="edge11" class="edge">
<title>const_fact&#45;&gt;terraform</title>
<path fill="none" stroke="#95d5b2" stroke-width="2" d="M508.18,-173.74C526.02,-145.34 554.61,-99.84 572.83,-70.82"/>
<polygon fill="#95d5b2" stroke="#95d5b2" stroke-width="2" points="573.97,-73.62 575.62,-66.39 569.82,-71.01 573.97,-73.62"/>
<text xml:space="preserve" text-anchor="middle" x="542.72" y="-136.9" font-family="Helvetica,sans-Serif" font-size="8.00" fill="#888888">Builds</text>
</g>
<!-- shipyards&#45;&gt;harvesters -->
<g id="edge14" class="edge">
<title>shipyards&#45;&gt;harvesters</title>
<path fill="none" stroke="#4ecdc4" stroke-dasharray="5,2" d="M387.24,-218.79C383.23,-237.56 373.87,-266.75 353,-281 341.28,-289 239.4,-286.13 225.5,-289 176.71,-299.08 166.5,-309.01 120,-326.88 116.81,-328.1 113.54,-329.38 110.25,-330.68"/>
<polygon fill="#4ecdc4" stroke="#4ecdc4" points="109.56,-328.32 103.96,-333.19 111.37,-332.87 109.56,-328.32"/>
<text xml:space="preserve" text-anchor="middle" x="253.25" y="-299.4" font-family="Helvetica,sans-Serif" font-size="8.00" fill="#888888">Builds Ships</text>
<text xml:space="preserve" text-anchor="middle" x="253.25" y="-290.4" font-family="Helvetica,sans-Serif" font-size="8.00" fill="#888888">with Harvesters</text>
</g>
<!-- financial -->
<g id="node9" class="node">
<title>financial</title>
<path fill="#95d5b2" stroke="#4ecdc4" d="M954.62,-63.38C954.62,-63.38 909.38,-63.38 909.38,-63.38 903.38,-63.38 897.38,-57.38 897.38,-51.38 897.38,-51.38 897.38,-33.62 897.38,-33.62 897.38,-27.62 903.38,-21.62 909.38,-21.62 909.38,-21.62 954.62,-21.62 954.62,-21.62 960.62,-21.62 966.62,-27.62 966.62,-33.62 966.62,-33.62 966.62,-51.38 966.62,-51.38 966.62,-57.38 960.62,-63.38 954.62,-63.38"/>
<text xml:space="preserve" text-anchor="middle" x="932" y="-49.88" font-family="Helvetica,sans-Serif" font-size="10.00" fill="#1a1a2e">Financial</text>
<text xml:space="preserve" text-anchor="middle" x="932" y="-38.62" font-family="Helvetica,sans-Serif" font-size="10.00" fill="#1a1a2e">Centres</text>
<text xml:space="preserve" text-anchor="middle" x="932" y="-27.38" font-family="Helvetica,sans-Serif" font-size="10.00" fill="#1a1a2e">50k workers</text>
</g>
<!-- gm_centre -->
<g id="node11" class="node">
<title>gm_centre</title>
<path fill="#95d5b2" stroke="#4ecdc4" d="M1065.25,-63.38C1065.25,-63.38 1014.75,-63.38 1014.75,-63.38 1008.75,-63.38 1002.75,-57.38 1002.75,-51.38 1002.75,-51.38 1002.75,-33.62 1002.75,-33.62 1002.75,-27.62 1008.75,-21.62 1014.75,-21.62 1014.75,-21.62 1065.25,-21.62 1065.25,-21.62 1071.25,-21.62 1077.25,-27.62 1077.25,-33.62 1077.25,-33.62 1077.25,-51.38 1077.25,-51.38 1077.25,-57.38 1071.25,-63.38 1065.25,-63.38"/>
<text xml:space="preserve" text-anchor="middle" x="1040" y="-49.88" font-family="Helvetica,sans-Serif" font-size="10.00" fill="#1a1a2e">Genetic Mod</text>
<text xml:space="preserve" text-anchor="middle" x="1040" y="-38.62" font-family="Helvetica,sans-Serif" font-size="10.00" fill="#1a1a2e">Centres</text>
<text xml:space="preserve" text-anchor="middle" x="1040" y="-27.38" font-family="Helvetica,sans-Serif" font-size="10.00" fill="#1a1a2e">250k workers</text>
</g>
<!-- mass_driver&#45;&gt;mass_driver -->
<g id="edge15" class="edge">
<title>mass_driver&#45;&gt;mass_driver</title>
<path fill="none" stroke="#4ecdc4" stroke-dasharray="1,5" d="M848.69,-211.51C867.48,-213.03 884.25,-209.36 884.25,-200.5 884.25,-192.95 872.09,-189.17 856.88,-189.16"/>
<polygon fill="#4ecdc4" stroke="#4ecdc4" points="857.09,-186.7 850.2,-189.43 857.3,-191.59 857.09,-186.7"/>
<text xml:space="preserve" text-anchor="middle" x="900.38" y="-201.9" font-family="Helvetica,sans-Serif" font-size="8.00" fill="#888888">Requires</text>
<text xml:space="preserve" text-anchor="middle" x="900.38" y="-192.9" font-family="Helvetica,sans-Serif" font-size="8.00" fill="#888888">pair</text>
</g>
<!-- spaceport -->
<g id="node13" class="node">
<title>spaceport</title>
<path fill="#ffe66d" stroke="#4ecdc4" d="M983.12,-221.38C983.12,-221.38 946.88,-221.38 946.88,-221.38 940.88,-221.38 934.88,-215.38 934.88,-209.38 934.88,-209.38 934.88,-191.62 934.88,-191.62 934.88,-185.62 940.88,-179.62 946.88,-179.62 946.88,-179.62 983.12,-179.62 983.12,-179.62 989.12,-179.62 995.12,-185.62 995.12,-191.62 995.12,-191.62 995.12,-209.38 995.12,-209.38 995.12,-215.38 989.12,-221.38 983.12,-221.38"/>
<text xml:space="preserve" text-anchor="middle" x="965" y="-207.88" font-family="Helvetica,sans-Serif" font-size="10.00" fill="#1a1a2e">Spaceport</text>
<text xml:space="preserve" text-anchor="middle" x="965" y="-196.62" font-family="Helvetica,sans-Serif" font-size="10.00" fill="#1a1a2e">0 workers</text>
<text xml:space="preserve" text-anchor="middle" x="965" y="-185.38" font-family="Helvetica,sans-Serif" font-size="10.00" fill="#1a1a2e">3000 BP</text>
</g>
<!-- spaceport&#45;&gt;financial -->
<g id="edge16" class="edge">
<title>spaceport&#45;&gt;financial</title>
<path fill="none" stroke="#4ecdc4" stroke-dasharray="5,2" d="M960.75,-179.43C954.96,-152.05 944.55,-102.85 937.98,-71.76"/>
<polygon fill="#4ecdc4" stroke="#4ecdc4" points="940.39,-71.32 936.54,-64.98 935.6,-72.33 940.39,-71.32"/>
<text xml:space="preserve" text-anchor="middle" x="977.01" y="-141.4" font-family="Helvetica,sans-Serif" font-size="8.00" fill="#888888">Enables</text>
<text xml:space="preserve" text-anchor="middle" x="977.01" y="-132.4" font-family="Helvetica,sans-Serif" font-size="8.00" fill="#888888">Civilian Trade</text>
</g>
<!-- maintenance -->
<g id="node14" class="node">
<title>maintenance</title>
<path fill="#ffe66d" stroke="#4ecdc4" d="M1090.75,-221.38C1090.75,-221.38 1043.25,-221.38 1043.25,-221.38 1037.25,-221.38 1031.25,-215.38 1031.25,-209.38 1031.25,-209.38 1031.25,-191.62 1031.25,-191.62 1031.25,-185.62 1037.25,-179.62 1043.25,-179.62 1043.25,-179.62 1090.75,-179.62 1090.75,-179.62 1096.75,-179.62 1102.75,-185.62 1102.75,-191.62 1102.75,-191.62 1102.75,-209.38 1102.75,-209.38 1102.75,-215.38 1096.75,-221.38 1090.75,-221.38"/>
<text xml:space="preserve" text-anchor="middle" x="1067" y="-207.88" font-family="Helvetica,sans-Serif" font-size="10.00" fill="#1a1a2e">Maintenance</text>
<text xml:space="preserve" text-anchor="middle" x="1067" y="-196.62" font-family="Helvetica,sans-Serif" font-size="10.00" fill="#1a1a2e">Facilities</text>
<text xml:space="preserve" text-anchor="middle" x="1067" y="-185.38" font-family="Helvetica,sans-Serif" font-size="10.00" fill="#1a1a2e">50k workers</text>
</g>
<!-- maintenance&#45;&gt;shipyards -->
<g id="edge17" class="edge">
<title>maintenance&#45;&gt;shipyards</title>
<path fill="none" stroke="#4ecdc4" d="M1058.98,-221.83C1050.65,-240.6 1035.63,-266.72 1013,-278.58 956.42,-308.25 493.76,-309.76 438,-278.58 418.37,-267.61 405.78,-244.95 398.45,-226.85"/>
<polygon fill="#4ecdc4" stroke="#4ecdc4" points="400.75,-226.01 395.97,-220.33 396.16,-227.75 400.75,-226.01"/>
<text xml:space="preserve" text-anchor="middle" x="540" y="-294.9" font-family="Helvetica,sans-Serif" font-size="8.00" fill="#888888">Supplies</text>
</g>
<!-- infra&#45;&gt;mines -->
<g id="edge18" class="edge">
<title>infra&#45;&gt;mines</title>
<path fill="none" stroke="#4ecdc4" stroke-dasharray="1,5" d="M1168.41,-221.64C1160.02,-240.75 1144.5,-268.35 1121,-281 1103.36,-290.5 780.32,-286.06 760.5,-289 731.06,-293.36 725.4,-302.34 696,-307 592.75,-323.37 327.5,-301.87 226,-326.88 222.61,-327.71 219.18,-328.77 215.77,-329.98"/>
<polygon fill="#4ecdc4" stroke="#4ecdc4" points="214.96,-327.67 209.33,-332.49 216.74,-332.23 214.96,-327.67"/>
<text xml:space="preserve" text-anchor="middle" x="779.25" y="-299.4" font-family="Helvetica,sans-Serif" font-size="8.00" fill="#888888">Population</text>
<text xml:space="preserve" text-anchor="middle" x="779.25" y="-290.4" font-family="Helvetica,sans-Serif" font-size="8.00" fill="#888888">Support</text>
</g>
<!-- tracking -->
<g id="node17" class="node">
<title>tracking</title>
<path fill="#9b59b6" stroke="#4ecdc4" d="M505,-63.38C505,-63.38 459,-63.38 459,-63.38 453,-63.38 447,-57.38 447,-51.38 447,-51.38 447,-33.62 447,-33.62 447,-27.62 453,-21.62 459,-21.62 459,-21.62 505,-21.62 505,-21.62 511,-21.62 517,-27.62 517,-33.62 517,-33.62 517,-51.38 517,-51.38 517,-57.38 511,-63.38 505,-63.38"/>
<text xml:space="preserve" text-anchor="middle" x="482" y="-49.88" font-family="Helvetica,sans-Serif" font-size="10.00" fill="white">Deep Space</text>
<text xml:space="preserve" text-anchor="middle" x="482" y="-38.62" font-family="Helvetica,sans-Serif" font-size="10.00" fill="white">Tracking</text>
<text xml:space="preserve" text-anchor="middle" x="482" y="-27.38" font-family="Helvetica,sans-Serif" font-size="10.00" fill="white">Sensor 200</text>
</g>
<!-- leg1 -->
<g id="node19" class="node">
<title>leg1</title>
<path fill="#2d2d44" stroke="none" d="M671.38,-370.88C671.38,-370.88 576.62,-370.88 576.62,-370.88 570.62,-370.88 564.62,-364.88 564.62,-358.88 564.62,-358.88 564.62,-346.88 564.62,-346.88 564.62,-340.88 570.62,-334.88 576.62,-334.88 576.62,-334.88 671.38,-334.88 671.38,-334.88 677.38,-334.88 683.38,-340.88 683.38,-346.88 683.38,-346.88 683.38,-358.88 683.38,-358.88 683.38,-364.88 677.38,-370.88 671.38,-370.88"/>
<text xml:space="preserve" text-anchor="middle" x="624" y="-349.2" font-family="Helvetica,sans-Serif" font-size="9.00" fill="white">Solid: Direct dependency</text>
</g>
<!-- leg2 -->
<g id="node20" class="node">
<title>leg2</title>
<path fill="#2d2d44" stroke="none" d="M826.75,-370.88C826.75,-370.88 731.25,-370.88 731.25,-370.88 725.25,-370.88 719.25,-364.88 719.25,-358.88 719.25,-358.88 719.25,-346.88 719.25,-346.88 719.25,-340.88 725.25,-334.88 731.25,-334.88 731.25,-334.88 826.75,-334.88 826.75,-334.88 832.75,-334.88 838.75,-340.88 838.75,-346.88 838.75,-346.88 838.75,-358.88 838.75,-358.88 838.75,-364.88 832.75,-370.88 826.75,-370.88"/>
<text xml:space="preserve" text-anchor="middle" x="779" y="-349.2" font-family="Helvetica,sans-Serif" font-size="9.00" fill="white">Dashed: Indirect/Optional</text>
</g>
<!-- leg3 -->
<g id="node21" class="node">
<title>leg3</title>
<path fill="#2d2d44" stroke="none" d="M1009.25,-370.88C1009.25,-370.88 886.75,-370.88 886.75,-370.88 880.75,-370.88 874.75,-364.88 874.75,-358.88 874.75,-358.88 874.75,-346.88 874.75,-346.88 874.75,-340.88 880.75,-334.88 886.75,-334.88 886.75,-334.88 1009.25,-334.88 1009.25,-334.88 1015.25,-334.88 1021.25,-340.88 1021.25,-346.88 1021.25,-346.88 1021.25,-358.88 1021.25,-358.88 1021.25,-364.88 1015.25,-370.88 1009.25,-370.88"/>
<text xml:space="preserve" text-anchor="middle" x="948" y="-349.2" font-family="Helvetica,sans-Serif" font-size="9.00" fill="white">Bold Green: Construction output</text>
</g>
</g>
</svg>
