<?xml version="1.0" encoding="UTF-8" standalone="no"?>
<!DOCTYPE svg PUBLIC "-//W3C//DTD SVG 1.1//EN"
 "http://www.w3.org/Graphics/SVG/1.1/DTD/svg11.dtd">
<!-- Generated by graphviz version 14.1.2 (20260124.0452)
 -->
<!-- Title: TerraformingDecisionTree Pages: 1 -->
<svg width="1055pt" height="934pt"
 viewBox="0.00 0.00 1055.00 934.00" xmlns="http://www.w3.org/2000/svg" xmlns:xlink="http://www.w3.org/1999/xlink">
<g id="graph0" class="graph" transform="scale(1 1) rotate(0) translate(4 929.77)">
<title>TerraformingDecisionTree</title>
<polygon fill="#1a1a2e" stroke="none" points="-4,4 -4,-929.77 1050.75,-929.77 1050.75,4 -4,4"/>
<g id="clust1" class="cluster">
<title>cluster_cold_airless</title>
<polygon fill="#1a1a2e" stroke="#4ecdc4" stroke-dasharray="5,2" points="627.75,-203.76 627.75,-639.63 801.75,-639.63 801.75,-203.76 627.75,-203.76"/>
<text xml:space="preserve" text-anchor="middle" x="714.75" y="-622.33" font-family="Helvetica,sans-Serif" font-size="14.00" fill="#4ecdc4">Cold &amp; Airless (Mars&#45;type)</text>
</g>
<g id="clust2" class="cluster">
<title>cluster_hot_dense</title>
<polygon fill="#1a1a2e" stroke="#ff6b6b" stroke-dasharray="5,2" points="404.75,-203.76 404.75,-639.63 619.75,-639.63 619.75,-203.76 404.75,-203.76"/>
<text xml:space="preserve" text-anchor="middle" x="512.25" y="-622.33" font-family="Helvetica,sans-Serif" font-size="14.00" fill="#ff6b6b">Hot &amp; Dense (Venus&#45;type)</text>
</g>
<g id="clust3" class="cluster">
<title>cluster_cold_toxic</title>
<polygon fill="#1a1a2e" stroke="#9b59b6" stroke-dasharray="5,2" points="73.75,-203.76 73.75,-639.63 256.75,-639.63 256.75,-203.76 73.75,-203.76"/>
<text xml:space="preserve" text-anchor="middle" x="165.25" y="-622.33" font-family="Helvetica,sans-Serif" font-size="14.00" fill="#9b59b6">Cold with Toxic Atmosphere</text>
</g>
<g id="clust4" class="cluster">
<title>cluster_ice_sheet</title>
<polygon fill="#1a1a2e" stroke="#95d5b2" stroke-dasharray="5,2" points="264.75,-203.76 264.75,-639.63 396.75,-639.63 396.75,-203.76 264.75,-203.76"/>
<text xml:space="preserve" text-anchor="middle" x="330.75" y="-622.33" font-family="Helvetica,sans-Serif" font-size="14.00" fill="#95d5b2">Cold with Ice Sheet</text>
</g>
<g id="clust5" class="cluster">
<title>cluster_near_hab</title>
<polygon fill="#1a1a2e" stroke="#ffe66d" stroke-dasharray="5,2" points="922.75,-109.63 922.75,-360.38 1038.75,-360.38 1038.75,-109.63 922.75,-109.63"/>
<text xml:space="preserve" text-anchor="middle" x="980.75" y="-343.08" font-family="Helvetica,sans-Serif" font-size="14.00" fill="#ffe66d">Near&#45;Habitable</text>
</g>
<!-- start -->
<g id="node1" class="node">
<title>start</title>
<ellipse fill="#4ecdc4" stroke="#4ecdc4" cx="260.75" cy="-904.2" rx="63.82" ry="21.57"/>
<text xml:space="preserve" text-anchor="middle" x="260.75" y="-905.95" font-family="Helvetica,sans-Serif" font-size="10.00" fill="#1a1a2e">New Colonizable</text>
<text xml:space="preserve" text-anchor="middle" x="260.75" y="-894.7" font-family="Helvetica,sans-Serif" font-size="10.00" fill="#1a1a2e">World</text>
</g>
<!-- can_atm -->
<g id="node2" class="node">
<title>can_atm</title>
<path fill="#ffe66d" stroke="#4ecdc4" d="M249.08,-834.83C249.08,-834.83 197.53,-822.44 197.53,-822.44 191.69,-821.04 191.69,-818.23 197.53,-816.83 197.53,-816.83 249.08,-804.44 249.08,-804.44 254.92,-803.04 266.58,-803.04 272.42,-804.44 272.42,-804.44 323.97,-816.83 323.97,-816.83 329.81,-818.23 329.81,-821.04 323.97,-822.44 323.97,-822.44 272.42,-834.83 272.42,-834.83 266.58,-836.23 254.92,-836.23 249.08,-834.83"/>
<text xml:space="preserve" text-anchor="middle" x="260.75" y="-815.76" font-family="Helvetica,sans-Serif" font-size="10.00" fill="#1a1a2e">Gravity &gt;= 0.1g?</text>
</g>
<!-- start&#45;&gt;can_atm -->
<g id="edge1" class="edge">
<title>start&#45;&gt;can_atm</title>
<path fill="none" stroke="#4ecdc4" d="M260.75,-882.37C260.75,-871.48 260.75,-858.05 260.75,-846.5"/>
<polygon fill="#4ecdc4" stroke="#4ecdc4" points="263.2,-846.63 260.75,-839.63 258.3,-846.63 263.2,-846.63"/>
</g>
<!-- no_terraform -->
<g id="node3" class="node">
<title>no_terraform</title>
<path fill="#ff6b6b" stroke="#4ecdc4" d="M226,-739.01C226,-739.01 157.5,-739.01 157.5,-739.01 151.5,-739.01 145.5,-733.01 145.5,-727.01 145.5,-727.01 145.5,-709.26 145.5,-709.26 145.5,-703.26 151.5,-697.26 157.5,-697.26 157.5,-697.26 226,-697.26 226,-697.26 232,-697.26 238,-703.26 238,-709.26 238,-709.26 238,-727.01 238,-727.01 238,-733.01 232,-739.01 226,-739.01"/>
<text xml:space="preserve" text-anchor="middle" x="191.75" y="-725.51" font-family="Helvetica,sans-Serif" font-size="10.00" fill="white">Cannot</text>
<text xml:space="preserve" text-anchor="middle" x="191.75" y="-714.26" font-family="Helvetica,sans-Serif" font-size="10.00" fill="white">Terraform</text>
<text xml:space="preserve" text-anchor="middle" x="191.75" y="-703.01" font-family="Helvetica,sans-Serif" font-size="10.00" fill="white">(no atm retention)</text>
</g>
<!-- can_atm&#45;&gt;no_terraform -->
<g id="edge2" class="edge">
<title>can_atm&#45;&gt;no_terraform</title>
<path fill="none" stroke="#4ecdc4" d="M250.57,-803.95C240.02,-788.74 223.29,-764.62 210.37,-745.99"/>
<polygon fill="#4ecdc4" stroke="#4ecdc4" points="212.67,-745 206.66,-740.64 208.64,-747.79 212.67,-745"/>
<text xml:space="preserve" text-anchor="middle" x="237.68" y="-772.03" font-family="Helvetica,sans-Serif" font-size="8.00" fill="#888888">No</text>
</g>
<!-- world_type -->
<g id="node5" class="node">
<title>world_type</title>
<path fill="#ffe66d" stroke="#4ecdc4" d="M464.89,-743.52C464.89,-743.52 421.86,-723.25 421.86,-723.25 416.43,-720.69 416.43,-715.58 421.86,-713.02 421.86,-713.02 464.89,-692.75 464.89,-692.75 470.32,-690.19 481.18,-690.19 486.61,-692.75 486.61,-692.75 529.64,-713.02 529.64,-713.02 535.07,-715.58 535.07,-720.69 529.64,-723.25 529.64,-723.25 486.61,-743.52 486.61,-743.52 481.18,-746.08 470.32,-746.08 464.89,-743.52"/>
<text xml:space="preserve" text-anchor="middle" x="475.75" y="-719.88" font-family="Helvetica,sans-Serif" font-size="10.00" fill="#1a1a2e">Identify</text>
<text xml:space="preserve" text-anchor="middle" x="475.75" y="-708.63" font-family="Helvetica,sans-Serif" font-size="10.00" fill="#1a1a2e">World Type</text>
</g>
<!-- can_atm&#45;&gt;world_type -->
<g id="edge3" class="edge">
<title>can_atm&#45;&gt;world_type</title>
<path fill="none" stroke="#4ecdc4" d="M285.41,-807.22C322.25,-790.17 392.01,-757.89 436.07,-737.5"/>
<polygon fill="#4ecdc4" stroke="#4ecdc4" points="437.02,-739.76 442.34,-734.59 434.96,-735.31 437.02,-739.76"/>
<text xml:space="preserve" text-anchor="middle" x="368.18" y="-772.03" font-family="Helvetica,sans-Serif" font-size="8.00" fill="#888888">Yes</text>
</g>
<!-- auto_only -->
<g id="node4" class="node">
<title>auto_only</title>
<path fill="#2d2d44" stroke="#4ecdc4" d="M53.5,-608.63C53.5,-608.63 12,-608.63 12,-608.63 6,-608.63 0,-602.63 0,-596.63 0,-596.63 0,-584.63 0,-584.63 0,-578.63 6,-572.63 12,-572.63 12,-572.63 53.5,-572.63 53.5,-572.63 59.5,-572.63 65.5,-578.63 65.5,-584.63 65.5,-584.63 65.5,-596.63 65.5,-596.63 65.5,-602.63 59.5,-608.63 53.5,-608.63"/>
<text xml:space="preserve" text-anchor="middle" x="32.75" y="-592.38" font-family="Helvetica,sans-Serif" font-size="10.00" fill="white">Automated</text>
<text xml:space="preserve" text-anchor="middle" x="32.75" y="-581.13" font-family="Helvetica,sans-Serif" font-size="10.00" fill="white">Mines Only</text>
</g>
<!-- no_terraform&#45;&gt;auto_only -->
<g id="edge4" class="edge">
<title>no_terraform&#45;&gt;auto_only</title>
<path fill="none" stroke="#4ecdc4" d="M152.51,-696.87C127.32,-682.78 94.77,-662.48 69.75,-639.63 61.98,-632.54 54.63,-623.66 48.57,-615.48"/>
<polygon fill="#4ecdc4" stroke="#4ecdc4" points="50.75,-614.31 44.67,-610.05 46.76,-617.17 50.75,-614.31"/>
</g>
<!-- ca1 -->
<g id="node6" class="node">
<title>ca1</title>
<path fill="#2d2d44" stroke="#4ecdc4" d="M747.5,-608.63C747.5,-608.63 670,-608.63 670,-608.63 664,-608.63 658,-602.63 658,-596.63 658,-596.63 658,-584.63 658,-584.63 658,-578.63 664,-572.63 670,-572.63 670,-572.63 747.5,-572.63 747.5,-572.63 753.5,-572.63 759.5,-578.63 759.5,-584.63 759.5,-584.63 759.5,-596.63 759.5,-596.63 759.5,-602.63 753.5,-608.63 747.5,-608.63"/>
<text xml:space="preserve" text-anchor="middle" x="708.75" y="-592.38" font-family="Helvetica,sans-Serif" font-size="10.00" fill="white">1. Add CO2 or CH4</text>
<text xml:space="preserve" text-anchor="middle" x="708.75" y="-581.13" font-family="Helvetica,sans-Serif" font-size="10.00" fill="white">for greenhouse</text>
</g>
<!-- world_type&#45;&gt;ca1 -->
<g id="edge5" class="edge">
<title>world_type&#45;&gt;ca1</title>
<path fill="none" stroke="#4ecdc4" d="M506.67,-701.89C537.37,-686.61 585.68,-662.17 626.75,-639.63 642.02,-631.25 658.64,-621.62 672.91,-613.19"/>
<polygon fill="#4ecdc4" stroke="#4ecdc4" points="674.06,-615.36 678.83,-609.68 671.56,-611.14 674.06,-615.36"/>
<text xml:space="preserve" text-anchor="middle" x="622.2" y="-658.03" font-family="Helvetica,sans-Serif" font-size="8.00" fill="#888888">Cold</text>
<text xml:space="preserve" text-anchor="middle" x="622.2" y="-649.03" font-family="Helvetica,sans-Serif" font-size="8.00" fill="#888888">Airless</text>
</g>
<!-- hd1 -->
<g id="node11" class="node">
<title>hd1</title>
<path fill="#2d2d44" stroke="#4ecdc4" d="M507.38,-608.63C507.38,-608.63 444.12,-608.63 444.12,-608.63 438.12,-608.63 432.12,-602.63 432.12,-596.63 432.12,-596.63 432.12,-584.63 432.12,-584.63 432.12,-578.63 438.12,-572.63 444.12,-572.63 444.12,-572.63 507.38,-572.63 507.38,-572.63 513.38,-572.63 519.38,-578.63 519.38,-584.63 519.38,-584.63 519.38,-596.63 519.38,-596.63 519.38,-602.63 513.38,-608.63 507.38,-608.63"/>
<text xml:space="preserve" text-anchor="middle" x="475.75" y="-592.38" font-family="Helvetica,sans-Serif" font-size="10.00" fill="white">1. Remove CO2</text>
<text xml:space="preserve" text-anchor="middle" x="475.75" y="-581.13" font-family="Helvetica,sans-Serif" font-size="10.00" fill="white">to reduce GH</text>
</g>
<!-- world_type&#45;&gt;hd1 -->
<g id="edge6" class="edge">
<title>world_type&#45;&gt;hd1</title>
<path fill="none" stroke="#4ecdc4" d="M475.75,-687.39C475.75,-666.05 475.75,-637.59 475.75,-617.25"/>
<polygon fill="#4ecdc4" stroke="#4ecdc4" points="478.2,-617.32 475.75,-610.32 473.3,-617.32 478.2,-617.32"/>
<text xml:space="preserve" text-anchor="middle" x="487.38" y="-658.03" font-family="Helvetica,sans-Serif" font-size="8.00" fill="#888888">Hot</text>
<text xml:space="preserve" text-anchor="middle" x="487.38" y="-649.03" font-family="Helvetica,sans-Serif" font-size="8.00" fill="#888888">Dense</text>
</g>
<!-- ct1 -->
<g id="node17" class="node">
<title>ct1</title>
<path fill="#2d2d44" stroke="#4ecdc4" d="M236.62,-608.63C236.62,-608.63 156.88,-608.63 156.88,-608.63 150.88,-608.63 144.88,-602.63 144.88,-596.63 144.88,-596.63 144.88,-584.63 144.88,-584.63 144.88,-578.63 150.88,-572.63 156.88,-572.63 156.88,-572.63 236.62,-572.63 236.62,-572.63 242.62,-572.63 248.62,-578.63 248.62,-584.63 248.62,-584.63 248.62,-596.63 248.62,-596.63 248.62,-602.63 242.62,-608.63 236.62,-608.63"/>
<text xml:space="preserve" text-anchor="middle" x="196.75" y="-592.38" font-family="Helvetica,sans-Serif" font-size="10.00" fill="white">1. Remove toxics</text>
<text xml:space="preserve" text-anchor="middle" x="196.75" y="-581.13" font-family="Helvetica,sans-Serif" font-size="10.00" fill="white">(highest CC impact)</text>
</g>
<!-- world_type&#45;&gt;ct1 -->
<g id="edge7" class="edge">
<title>world_type&#45;&gt;ct1</title>
<path fill="none" stroke="#4ecdc4" d="M434.28,-706.74C389.12,-694.45 315.61,-671.55 257.75,-639.63 245.05,-632.63 232.24,-623.02 221.66,-614.25"/>
<polygon fill="#4ecdc4" stroke="#4ecdc4" points="223.46,-612.56 216.54,-609.9 220.29,-616.3 223.46,-612.56"/>
<text xml:space="preserve" text-anchor="middle" x="317.71" y="-658.03" font-family="Helvetica,sans-Serif" font-size="8.00" fill="#888888">Cold</text>
<text xml:space="preserve" text-anchor="middle" x="317.71" y="-649.03" font-family="Helvetica,sans-Serif" font-size="8.00" fill="#888888">Toxic</text>
</g>
<!-- is1 -->
<g id="node22" class="node">
<title>is1</title>
<path fill="#95d5b2" stroke="#4ecdc4" d="M375.75,-608.63C375.75,-608.63 299.75,-608.63 299.75,-608.63 293.75,-608.63 287.75,-602.63 287.75,-596.63 287.75,-596.63 287.75,-584.63 287.75,-584.63 287.75,-578.63 293.75,-572.63 299.75,-572.63 299.75,-572.63 375.75,-572.63 375.75,-572.63 381.75,-572.63 387.75,-578.63 387.75,-584.63 387.75,-584.63 387.75,-596.63 387.75,-596.63 387.75,-602.63 381.75,-608.63 375.75,-608.63"/>
<text xml:space="preserve" text-anchor="middle" x="337.75" y="-592.38" font-family="Helvetica,sans-Serif" font-size="10.00" fill="#1a1a2e">1. Add water vapor</text>
<text xml:space="preserve" text-anchor="middle" x="337.75" y="-581.13" font-family="Helvetica,sans-Serif" font-size="10.00" fill="#1a1a2e">(maximize hydro%)</text>
</g>
<!-- world_type&#45;&gt;is1 -->
<g id="edge8" class="edge">
<title>world_type&#45;&gt;is1</title>
<path fill="none" stroke="#4ecdc4" d="M454.19,-697.52C429.48,-675.06 389.06,-638.29 362.93,-614.53"/>
<polygon fill="#4ecdc4" stroke="#4ecdc4" points="364.89,-613 358.06,-610.1 361.59,-616.62 364.89,-613"/>
<text xml:space="preserve" text-anchor="middle" x="429.61" y="-658.03" font-family="Helvetica,sans-Serif" font-size="8.00" fill="#888888">Ice</text>
<text xml:space="preserve" text-anchor="middle" x="429.61" y="-649.03" font-family="Helvetica,sans-Serif" font-size="8.00" fill="#888888">Sheet</text>
</g>
<!-- nh1 -->
<g id="node27" class="node">
<title>nh1</title>
<path fill="#2d2d44" stroke="#4ecdc4" d="M1015.88,-329.38C1015.88,-329.38 943.62,-329.38 943.62,-329.38 937.62,-329.38 931.62,-323.38 931.62,-317.38 931.62,-317.38 931.62,-305.38 931.62,-305.38 931.62,-299.38 937.62,-293.38 943.62,-293.38 943.62,-293.38 1015.88,-293.38 1015.88,-293.38 1021.88,-293.38 1027.88,-299.38 1027.88,-305.38 1027.88,-305.38 1027.88,-317.38 1027.88,-317.38 1027.88,-323.38 1021.88,-329.38 1015.88,-329.38"/>
<text xml:space="preserve" text-anchor="middle" x="979.75" y="-313.13" font-family="Helvetica,sans-Serif" font-size="10.00" fill="white">1. Identify specific</text>
<text xml:space="preserve" text-anchor="middle" x="979.75" y="-301.88" font-family="Helvetica,sans-Serif" font-size="10.00" fill="white">issue</text>
</g>
<!-- world_type&#45;&gt;nh1 -->
<g id="edge9" class="edge">
<title>world_type&#45;&gt;nh1</title>
<path fill="none" stroke="#4ecdc4" d="M533.88,-714.47C663.68,-706.92 965.75,-679.89 965.75,-591.63 965.75,-591.63 965.75,-591.63 965.75,-408.38 965.75,-384.28 970.12,-357.13 973.98,-337.87"/>
<polygon fill="#4ecdc4" stroke="#4ecdc4" points="976.36,-338.45 975.39,-331.1 971.57,-337.45 976.36,-338.45"/>
<text xml:space="preserve" text-anchor="middle" x="982.62" y="-494.66" font-family="Helvetica,sans-Serif" font-size="8.00" fill="#888888">Near&#45;</text>
<text xml:space="preserve" text-anchor="middle" x="982.62" y="-485.66" font-family="Helvetica,sans-Serif" font-size="8.00" fill="#888888">Habitable</text>
</g>
<!-- note_priority -->
<g id="node33" class="node">
<title>note_priority</title>
<polygon fill="#2d2d44" stroke="#4ecdc4" points="897.38,-614.13 810.12,-614.13 810.12,-567.13 903.38,-567.13 903.38,-608.13 897.38,-614.13"/>
<polyline fill="none" stroke="#4ecdc4" points="897.38,-614.13 897.38,-608.13"/>
<polyline fill="none" stroke="#4ecdc4" points="903.38,-608.13 897.38,-608.13"/>
<text xml:space="preserve" text-anchor="middle" x="856.75" y="-601.58" font-family="Helvetica,sans-Serif" font-size="9.00" fill="white">Priority Order:</text>
<text xml:space="preserve" text-anchor="middle" x="856.75" y="-591.83" font-family="Helvetica,sans-Serif" font-size="9.00" fill="white">1. Remove toxics</text>
<text xml:space="preserve" text-anchor="middle" x="856.75" y="-582.08" font-family="Helvetica,sans-Serif" font-size="9.00" fill="white">2. Adjust temp</text>
<text xml:space="preserve" text-anchor="middle" x="856.75" y="-572.33" font-family="Helvetica,sans-Serif" font-size="9.00" fill="white">3. Add breathables</text>
</g>
<!-- world_type&#45;&gt;note_priority -->
<g id="edge37" class="edge">
<title>world_type&#45;&gt;note_priority</title>
<path fill="none" stroke="#666666" stroke-dasharray="1,5" d="M530.52,-713.02C598.61,-706 716.71,-687.46 805.75,-639.63 817.53,-633.3 828.61,-623.55 837.4,-614.49"/>
</g>
<!-- ca2 -->
<g id="node7" class="node">
<title>ca2</title>
<path fill="#2d2d44" stroke="#4ecdc4" d="M739.62,-511.26C739.62,-511.26 677.88,-511.26 677.88,-511.26 671.88,-511.26 665.88,-505.26 665.88,-499.26 665.88,-499.26 665.88,-487.26 665.88,-487.26 665.88,-481.26 671.88,-475.26 677.88,-475.26 677.88,-475.26 739.62,-475.26 739.62,-475.26 745.62,-475.26 751.62,-481.26 751.62,-487.26 751.62,-487.26 751.62,-499.26 751.62,-499.26 751.62,-505.26 745.62,-511.26 739.62,-511.26"/>
<text xml:space="preserve" text-anchor="middle" x="708.75" y="-495.01" font-family="Helvetica,sans-Serif" font-size="10.00" fill="white">2. Wait for temp</text>
<text xml:space="preserve" text-anchor="middle" x="708.75" y="-483.76" font-family="Helvetica,sans-Serif" font-size="10.00" fill="white">to rise</text>
</g>
<!-- ca1&#45;&gt;ca2 -->
<g id="edge10" class="edge">
<title>ca1&#45;&gt;ca2</title>
<path fill="none" stroke="#4ecdc4" d="M708.75,-572.14C708.75,-557.49 708.75,-536.37 708.75,-519.82"/>
<polygon fill="#4ecdc4" stroke="#4ecdc4" points="711.2,-520.15 708.75,-513.15 706.3,-520.15 711.2,-520.15"/>
</g>
<!-- note_size -->
<g id="node34" class="node">
<title>note_size</title>
<polygon fill="#2d2d44" stroke="#4ecdc4" points="889.62,-511.88 809.88,-511.88 809.88,-474.63 895.62,-474.63 895.62,-505.88 889.62,-511.88"/>
<polyline fill="none" stroke="#4ecdc4" points="889.62,-511.88 889.62,-505.88"/>
<polyline fill="none" stroke="#4ecdc4" points="895.62,-505.88 889.62,-505.88"/>
<text xml:space="preserve" text-anchor="middle" x="852.75" y="-499.33" font-family="Helvetica,sans-Serif" font-size="9.00" fill="white">Smaller worlds</text>
<text xml:space="preserve" text-anchor="middle" x="852.75" y="-489.58" font-family="Helvetica,sans-Serif" font-size="9.00" fill="white">terraform faster:</text>
<text xml:space="preserve" text-anchor="middle" x="852.75" y="-479.83" font-family="Helvetica,sans-Serif" font-size="9.00" fill="white">Luna = 14x Earth</text>
</g>
<!-- ca1&#45;&gt;note_size -->
<g id="edge38" class="edge">
<title>ca1&#45;&gt;note_size</title>
<path fill="none" stroke="#666666" stroke-dasharray="1,5" d="M735.16,-572.14C760.82,-555.15 799.6,-529.46 825.53,-512.29"/>
</g>
<!-- ca3 -->
<g id="node8" class="node">
<title>ca3</title>
<path fill="#2d2d44" stroke="#4ecdc4" d="M733.62,-427.38C733.62,-427.38 683.88,-427.38 683.88,-427.38 677.88,-427.38 671.88,-421.38 671.88,-415.38 671.88,-415.38 671.88,-403.38 671.88,-403.38 671.88,-397.38 677.88,-391.38 683.88,-391.38 683.88,-391.38 733.62,-391.38 733.62,-391.38 739.62,-391.38 745.62,-397.38 745.62,-403.38 745.62,-403.38 745.62,-415.38 745.62,-415.38 745.62,-421.38 739.62,-427.38 733.62,-427.38"/>
<text xml:space="preserve" text-anchor="middle" x="708.75" y="-411.13" font-family="Helvetica,sans-Serif" font-size="10.00" fill="white">3. Add N2 for</text>
<text xml:space="preserve" text-anchor="middle" x="708.75" y="-399.88" font-family="Helvetica,sans-Serif" font-size="10.00" fill="white">pressure</text>
</g>
<!-- ca2&#45;&gt;ca3 -->
<g id="edge11" class="edge">
<title>ca2&#45;&gt;ca3</title>
<path fill="none" stroke="#4ecdc4" d="M708.75,-474.89C708.75,-463.61 708.75,-448.69 708.75,-436.04"/>
<polygon fill="#4ecdc4" stroke="#4ecdc4" points="711.2,-436.24 708.75,-429.24 706.3,-436.24 711.2,-436.24"/>
</g>
<!-- ca4 -->
<g id="node9" class="node">
<title>ca4</title>
<path fill="#2d2d44" stroke="#4ecdc4" d="M736.25,-329.38C736.25,-329.38 681.25,-329.38 681.25,-329.38 675.25,-329.38 669.25,-323.38 669.25,-317.38 669.25,-317.38 669.25,-305.38 669.25,-305.38 669.25,-299.38 675.25,-293.38 681.25,-293.38 681.25,-293.38 736.25,-293.38 736.25,-293.38 742.25,-293.38 748.25,-299.38 748.25,-305.38 748.25,-305.38 748.25,-317.38 748.25,-317.38 748.25,-323.38 742.25,-329.38 736.25,-329.38"/>
<text xml:space="preserve" text-anchor="middle" x="708.75" y="-313.13" font-family="Helvetica,sans-Serif" font-size="10.00" fill="white">4. Add O2 to</text>
<text xml:space="preserve" text-anchor="middle" x="708.75" y="-301.88" font-family="Helvetica,sans-Serif" font-size="10.00" fill="white">breathing level</text>
</g>
<!-- ca3&#45;&gt;ca4 -->
<g id="edge12" class="edge">
<title>ca3&#45;&gt;ca4</title>
<path fill="none" stroke="#4ecdc4" d="M708.75,-391.22C708.75,-376.43 708.75,-354.87 708.75,-338.03"/>
<polygon fill="#4ecdc4" stroke="#4ecdc4" points="711.2,-338.23 708.75,-331.24 706.3,-338.24 711.2,-338.23"/>
</g>
<!-- ca5 -->
<g id="node10" class="node">
<title>ca5</title>
<path fill="#2d2d44" stroke="#4ecdc4" d="M725.38,-247.76C725.38,-247.76 662.12,-247.76 662.12,-247.76 656.12,-247.76 650.12,-241.76 650.12,-235.76 650.12,-235.76 650.12,-223.76 650.12,-223.76 650.12,-217.76 656.12,-211.76 662.12,-211.76 662.12,-211.76 725.38,-211.76 725.38,-211.76 731.38,-211.76 737.38,-217.76 737.38,-223.76 737.38,-223.76 737.38,-235.76 737.38,-235.76 737.38,-241.76 731.38,-247.76 725.38,-247.76"/>
<text xml:space="preserve" text-anchor="middle" x="693.75" y="-231.51" font-family="Helvetica,sans-Serif" font-size="10.00" fill="white">5. Remove CH4</text>
<text xml:space="preserve" text-anchor="middle" x="693.75" y="-220.26" font-family="Helvetica,sans-Serif" font-size="10.00" fill="white">if overshot</text>
</g>
<!-- ca4&#45;&gt;ca5 -->
<g id="edge13" class="edge">
<title>ca4&#45;&gt;ca5</title>
<path fill="none" stroke="#4ecdc4" d="M705.5,-293.11C703.47,-282.36 700.83,-268.34 698.57,-256.33"/>
<polygon fill="#4ecdc4" stroke="#4ecdc4" points="700.98,-255.92 697.28,-249.49 696.17,-256.82 700.98,-255.92"/>
</g>
<!-- note_danger -->
<g id="node35" class="node">
<title>note_danger</title>
<polygon fill="#ff6b6b" stroke="#4ecdc4" points="895.62,-248.38 809.88,-248.38 809.88,-211.13 901.62,-211.13 901.62,-242.38 895.62,-248.38"/>
<polyline fill="none" stroke="#4ecdc4" points="895.62,-248.38 895.62,-242.38"/>
<polyline fill="none" stroke="#4ecdc4" points="901.62,-242.38 895.62,-242.38"/>
<text xml:space="preserve" text-anchor="middle" x="855.75" y="-235.83" font-family="Helvetica,sans-Serif" font-size="9.00" fill="white">Add O2 LAST!</text>
<text xml:space="preserve" text-anchor="middle" x="855.75" y="-226.08" font-family="Helvetica,sans-Serif" font-size="9.00" fill="white">Danger: O2 + CH4</text>
<text xml:space="preserve" text-anchor="middle" x="855.75" y="-216.33" font-family="Helvetica,sans-Serif" font-size="9.00" fill="white">= explosive</text>
</g>
<!-- ca4&#45;&gt;note_danger -->
<g id="edge39" class="edge">
<title>ca4&#45;&gt;note_danger</title>
<path fill="none" stroke="#666666" stroke-dasharray="1,5" d="M741.01,-292.91C765.1,-279.86 797.92,-262.08 822.29,-248.88"/>
</g>
<!-- practical -->
<g id="node32" class="node">
<title>practical</title>
<path fill="#ffe66d" stroke="#4ecdc4" d="M476.89,-161.02C476.89,-161.02 433.86,-140.75 433.86,-140.75 428.43,-138.19 428.43,-133.08 433.86,-130.52 433.86,-130.52 476.89,-110.25 476.89,-110.25 482.32,-107.69 493.18,-107.69 498.61,-110.25 498.61,-110.25 541.64,-130.52 541.64,-130.52 547.07,-133.08 547.07,-138.19 541.64,-140.75 541.64,-140.75 498.61,-161.02 498.61,-161.02 493.18,-163.58 482.32,-163.58 476.89,-161.02"/>
<text xml:space="preserve" text-anchor="middle" x="487.75" y="-137.38" font-family="Helvetica,sans-Serif" font-size="10.00" fill="#1a1a2e">Practical</text>
<text xml:space="preserve" text-anchor="middle" x="487.75" y="-126.13" font-family="Helvetica,sans-Serif" font-size="10.00" fill="#1a1a2e">timeframe?</text>
</g>
<!-- ca5&#45;&gt;practical -->
<g id="edge14" class="edge">
<title>ca5&#45;&gt;practical</title>
<path fill="none" stroke="#4ecdc4" d="M655,-211.43C618.66,-195.18 564.55,-170.98 527.79,-154.54"/>
<polygon fill="#4ecdc4" stroke="#4ecdc4" points="529,-152.4 521.61,-151.77 527,-156.87 529,-152.4"/>
</g>
<!-- hd2 -->
<g id="node12" class="node">
<title>hd2</title>
<path fill="#2d2d44" stroke="#4ecdc4" d="M488.75,-511.26C488.75,-511.26 424.75,-511.26 424.75,-511.26 418.75,-511.26 412.75,-505.26 412.75,-499.26 412.75,-499.26 412.75,-487.26 412.75,-487.26 412.75,-481.26 418.75,-475.26 424.75,-475.26 424.75,-475.26 488.75,-475.26 488.75,-475.26 494.75,-475.26 500.75,-481.26 500.75,-487.26 500.75,-487.26 500.75,-499.26 500.75,-499.26 500.75,-505.26 494.75,-511.26 488.75,-511.26"/>
<text xml:space="preserve" text-anchor="middle" x="456.75" y="-495.01" font-family="Helvetica,sans-Serif" font-size="10.00" fill="white">2. Remove toxic</text>
<text xml:space="preserve" text-anchor="middle" x="456.75" y="-483.76" font-family="Helvetica,sans-Serif" font-size="10.00" fill="white">gases</text>
</g>
<!-- hd1&#45;&gt;hd2 -->
<g id="edge15" class="edge">
<title>hd1&#45;&gt;hd2</title>
<path fill="none" stroke="#4ecdc4" d="M472.27,-572.14C469.35,-557.49 465.14,-536.37 461.84,-519.82"/>
<polygon fill="#4ecdc4" stroke="#4ecdc4" points="464.28,-519.51 460.51,-513.13 459.47,-520.47 464.28,-519.51"/>
</g>
<!-- hd_alt -->
<g id="node15" class="node">
<title>hd_alt</title>
<path fill="#ff6b6b" stroke="#4ecdc4" d="M600.12,-514.13C600.12,-514.13 541.38,-514.13 541.38,-514.13 535.38,-514.13 529.38,-508.13 529.38,-502.13 529.38,-502.13 529.38,-484.38 529.38,-484.38 529.38,-478.38 535.38,-472.38 541.38,-472.38 541.38,-472.38 600.12,-472.38 600.12,-472.38 606.12,-472.38 612.12,-478.38 612.12,-484.38 612.12,-484.38 612.12,-502.13 612.12,-502.13 612.12,-508.13 606.12,-514.13 600.12,-514.13"/>
<text xml:space="preserve" text-anchor="middle" x="570.75" y="-500.63" font-family="Helvetica,sans-Serif" font-size="10.00" fill="white">Alt: Nuclear</text>
<text xml:space="preserve" text-anchor="middle" x="570.75" y="-489.38" font-family="Helvetica,sans-Serif" font-size="10.00" fill="white">bombardment</text>
<text xml:space="preserve" text-anchor="middle" x="570.75" y="-478.13" font-family="Helvetica,sans-Serif" font-size="10.00" fill="white">for dust cooling</text>
</g>
<!-- hd1&#45;&gt;hd_alt -->
<g id="edge18" class="edge">
<title>hd1&#45;&gt;hd_alt</title>
<path fill="none" stroke="#4ecdc4" stroke-dasharray="5,2" d="M493.17,-572.14C507.58,-557.68 528.26,-536.92 544.65,-520.47"/>
<polygon fill="#4ecdc4" stroke="#4ecdc4" points="546.2,-522.38 549.4,-515.69 542.72,-518.92 546.2,-522.38"/>
<text xml:space="preserve" text-anchor="middle" x="543.56" y="-537.53" font-family="Helvetica,sans-Serif" font-size="8.00" fill="#888888">Optional</text>
</g>
<!-- hd3 -->
<g id="node13" class="node">
<title>hd3</title>
<path fill="#2d2d44" stroke="#4ecdc4" d="M520.5,-427.38C520.5,-427.38 455,-427.38 455,-427.38 449,-427.38 443,-421.38 443,-415.38 443,-415.38 443,-403.38 443,-403.38 443,-397.38 449,-391.38 455,-391.38 455,-391.38 520.5,-391.38 520.5,-391.38 526.5,-391.38 532.5,-397.38 532.5,-403.38 532.5,-403.38 532.5,-415.38 532.5,-415.38 532.5,-421.38 526.5,-427.38 520.5,-427.38"/>
<text xml:space="preserve" text-anchor="middle" x="487.75" y="-411.13" font-family="Helvetica,sans-Serif" font-size="10.00" fill="white">3. Continue CO2</text>
<text xml:space="preserve" text-anchor="middle" x="487.75" y="-399.88" font-family="Helvetica,sans-Serif" font-size="10.00" fill="white">removal</text>
</g>
<!-- hd2&#45;&gt;hd3 -->
<g id="edge16" class="edge">
<title>hd2&#45;&gt;hd3</title>
<path fill="none" stroke="#4ecdc4" d="M463.32,-474.89C467.64,-463.5 473.36,-448.4 478.17,-435.68"/>
<polygon fill="#4ecdc4" stroke="#4ecdc4" points="480.46,-436.55 480.65,-429.14 475.88,-434.82 480.46,-436.55"/>
</g>
<!-- hd4 -->
<g id="node14" class="node">
<title>hd4</title>
<path fill="#2d2d44" stroke="#4ecdc4" d="M510,-329.38C510,-329.38 465.5,-329.38 465.5,-329.38 459.5,-329.38 453.5,-323.38 453.5,-317.38 453.5,-317.38 453.5,-305.38 453.5,-305.38 453.5,-299.38 459.5,-293.38 465.5,-293.38 465.5,-293.38 510,-293.38 510,-293.38 516,-293.38 522,-299.38 522,-305.38 522,-305.38 522,-317.38 522,-317.38 522,-323.38 516,-329.38 510,-329.38"/>
<text xml:space="preserve" text-anchor="middle" x="487.75" y="-313.13" font-family="Helvetica,sans-Serif" font-size="10.00" fill="white">4. Very long</text>
<text xml:space="preserve" text-anchor="middle" x="487.75" y="-301.88" font-family="Helvetica,sans-Serif" font-size="10.00" fill="white">process!</text>
</g>
<!-- hd3&#45;&gt;hd4 -->
<g id="edge17" class="edge">
<title>hd3&#45;&gt;hd4</title>
<path fill="none" stroke="#4ecdc4" d="M487.75,-391.22C487.75,-376.43 487.75,-354.87 487.75,-338.03"/>
<polygon fill="#4ecdc4" stroke="#4ecdc4" points="490.2,-338.23 487.75,-331.24 485.3,-338.24 490.2,-338.23"/>
</g>
<!-- hd5 -->
<g id="node16" class="node">
<title>hd5</title>
<path fill="#2d2d44" stroke="#4ecdc4" d="M523.12,-247.76C523.12,-247.76 452.38,-247.76 452.38,-247.76 446.38,-247.76 440.38,-241.76 440.38,-235.76 440.38,-235.76 440.38,-223.76 440.38,-223.76 440.38,-217.76 446.38,-211.76 452.38,-211.76 452.38,-211.76 523.12,-211.76 523.12,-211.76 529.12,-211.76 535.12,-217.76 535.12,-223.76 535.12,-223.76 535.12,-235.76 535.12,-235.76 535.12,-241.76 529.12,-247.76 523.12,-247.76"/>
<text xml:space="preserve" text-anchor="middle" x="487.75" y="-231.51" font-family="Helvetica,sans-Serif" font-size="10.00" fill="white">5. Add N2/O2</text>
<text xml:space="preserve" text-anchor="middle" x="487.75" y="-220.26" font-family="Helvetica,sans-Serif" font-size="10.00" fill="white">when manageable</text>
</g>
<!-- hd4&#45;&gt;hd5 -->
<g id="edge20" class="edge">
<title>hd4&#45;&gt;hd5</title>
<path fill="none" stroke="#4ecdc4" d="M487.75,-293.11C487.75,-282.36 487.75,-268.34 487.75,-256.33"/>
<polygon fill="#4ecdc4" stroke="#4ecdc4" points="490.2,-256.52 487.75,-249.52 485.3,-256.52 490.2,-256.52"/>
</g>
<!-- hd_alt&#45;&gt;hd3 -->
<g id="edge19" class="edge">
<title>hd_alt&#45;&gt;hd3</title>
<path fill="none" stroke="#4ecdc4" d="M550.23,-472.02C538.35,-460.3 523.36,-445.51 511.03,-433.35"/>
<polygon fill="#4ecdc4" stroke="#4ecdc4" points="513.01,-431.86 506.3,-428.68 509.57,-435.35 513.01,-431.86"/>
</g>
<!-- hd5&#45;&gt;practical -->
<g id="edge21" class="edge">
<title>hd5&#45;&gt;practical</title>
<path fill="none" stroke="#4ecdc4" d="M487.75,-211.43C487.75,-201.08 487.75,-187.52 487.75,-174.78"/>
<polygon fill="#4ecdc4" stroke="#4ecdc4" points="490.2,-175.09 487.75,-168.09 485.3,-175.09 490.2,-175.09"/>
</g>
<!-- ct2 -->
<g id="node18" class="node">
<title>ct2</title>
<path fill="#2d2d44" stroke="#4ecdc4" d="M233.25,-511.26C233.25,-511.26 166.25,-511.26 166.25,-511.26 160.25,-511.26 154.25,-505.26 154.25,-499.26 154.25,-499.26 154.25,-487.26 154.25,-487.26 154.25,-481.26 160.25,-475.26 166.25,-475.26 166.25,-475.26 233.25,-475.26 233.25,-475.26 239.25,-475.26 245.25,-481.26 245.25,-487.26 245.25,-487.26 245.25,-499.26 245.25,-499.26 245.25,-505.26 239.25,-511.26 233.25,-511.26"/>
<text xml:space="preserve" text-anchor="middle" x="199.75" y="-495.01" font-family="Helvetica,sans-Serif" font-size="10.00" fill="white">2. Add GH gases</text>
<text xml:space="preserve" text-anchor="middle" x="199.75" y="-483.76" font-family="Helvetica,sans-Serif" font-size="10.00" fill="white">to warm</text>
</g>
<!-- ct1&#45;&gt;ct2 -->
<g id="edge22" class="edge">
<title>ct1&#45;&gt;ct2</title>
<path fill="none" stroke="#4ecdc4" d="M197.3,-572.14C197.76,-557.49 198.43,-536.37 198.95,-519.82"/>
<polygon fill="#4ecdc4" stroke="#4ecdc4" points="201.38,-520.23 199.16,-513.15 196.49,-520.07 201.38,-520.23"/>
</g>
<!-- ct3 -->
<g id="node19" class="node">
<title>ct3</title>
<path fill="#2d2d44" stroke="#4ecdc4" d="M234.5,-427.38C234.5,-427.38 169,-427.38 169,-427.38 163,-427.38 157,-421.38 157,-415.38 157,-415.38 157,-403.38 157,-403.38 157,-397.38 163,-391.38 169,-391.38 169,-391.38 234.5,-391.38 234.5,-391.38 240.5,-391.38 246.5,-397.38 246.5,-403.38 246.5,-403.38 246.5,-415.38 246.5,-415.38 246.5,-421.38 240.5,-427.38 234.5,-427.38"/>
<text xml:space="preserve" text-anchor="middle" x="201.75" y="-411.13" font-family="Helvetica,sans-Serif" font-size="10.00" fill="white">3. Build pressure</text>
<text xml:space="preserve" text-anchor="middle" x="201.75" y="-399.88" font-family="Helvetica,sans-Serif" font-size="10.00" fill="white">with N2</text>
</g>
<!-- ct2&#45;&gt;ct3 -->
<g id="edge23" class="edge">
<title>ct2&#45;&gt;ct3</title>
<path fill="none" stroke="#4ecdc4" d="M200.17,-474.89C200.45,-463.61 200.81,-448.69 201.12,-436.04"/>
<polygon fill="#4ecdc4" stroke="#4ecdc4" points="203.57,-436.29 201.29,-429.24 198.67,-436.17 203.57,-436.29"/>
</g>
<!-- ct4 -->
<g id="node20" class="node">
<title>ct4</title>
<path fill="#2d2d44" stroke="#4ecdc4" d="M229.88,-329.38C229.88,-329.38 175.62,-329.38 175.62,-329.38 169.62,-329.38 163.62,-323.38 163.62,-317.38 163.62,-317.38 163.62,-305.38 163.62,-305.38 163.62,-299.38 169.62,-293.38 175.62,-293.38 175.62,-293.38 229.88,-293.38 229.88,-293.38 235.88,-293.38 241.88,-299.38 241.88,-305.38 241.88,-305.38 241.88,-317.38 241.88,-317.38 241.88,-323.38 235.88,-329.38 229.88,-329.38"/>
<text xml:space="preserve" text-anchor="middle" x="202.75" y="-307.51" font-family="Helvetica,sans-Serif" font-size="10.00" fill="white">4. Add O2 last</text>
</g>
<!-- ct3&#45;&gt;ct4 -->
<g id="edge24" class="edge">
<title>ct3&#45;&gt;ct4</title>
<path fill="none" stroke="#4ecdc4" d="M201.93,-391.22C202.08,-376.43 202.31,-354.87 202.48,-338.03"/>
<polygon fill="#4ecdc4" stroke="#4ecdc4" points="204.93,-338.26 202.55,-331.23 200.03,-338.21 204.93,-338.26"/>
</g>
<!-- ct5 -->
<g id="node21" class="node">
<title>ct5</title>
<path fill="#2d2d44" stroke="#4ecdc4" d="M236.12,-247.76C236.12,-247.76 171.38,-247.76 171.38,-247.76 165.38,-247.76 159.38,-241.76 159.38,-235.76 159.38,-235.76 159.38,-223.76 159.38,-223.76 159.38,-217.76 165.38,-211.76 171.38,-211.76 171.38,-211.76 236.12,-211.76 236.12,-211.76 242.12,-211.76 248.12,-217.76 248.12,-223.76 248.12,-223.76 248.12,-235.76 248.12,-235.76 248.12,-241.76 242.12,-247.76 236.12,-247.76"/>
<text xml:space="preserve" text-anchor="middle" x="203.75" y="-231.51" font-family="Helvetica,sans-Serif" font-size="10.00" fill="white">5. Remove temp</text>
<text xml:space="preserve" text-anchor="middle" x="203.75" y="-220.26" font-family="Helvetica,sans-Serif" font-size="10.00" fill="white">GH if overshoot</text>
</g>
<!-- ct4&#45;&gt;ct5 -->
<g id="edge25" class="edge">
<title>ct4&#45;&gt;ct5</title>
<path fill="none" stroke="#4ecdc4" d="M202.97,-293.11C203.1,-282.36 203.28,-268.34 203.43,-256.33"/>
<polygon fill="#4ecdc4" stroke="#4ecdc4" points="205.88,-256.55 203.51,-249.52 200.98,-256.48 205.88,-256.55"/>
</g>
<!-- ct5&#45;&gt;practical -->
<g id="edge26" class="edge">
<title>ct5&#45;&gt;practical</title>
<path fill="none" stroke="#4ecdc4" d="M239.45,-211.32C245.49,-208.63 251.75,-206.01 257.75,-203.76 318.56,-180.96 390.74,-161 437.81,-148.9"/>
<polygon fill="#4ecdc4" stroke="#4ecdc4" points="438.37,-151.29 444.54,-147.18 437.15,-146.54 438.37,-151.29"/>
</g>
<!-- is2 -->
<g id="node23" class="node">
<title>is2</title>
<path fill="#2d2d44" stroke="#4ecdc4" d="M372,-511.26C372,-511.26 303.5,-511.26 303.5,-511.26 297.5,-511.26 291.5,-505.26 291.5,-499.26 291.5,-499.26 291.5,-487.26 291.5,-487.26 291.5,-481.26 297.5,-475.26 303.5,-475.26 303.5,-475.26 372,-475.26 372,-475.26 378,-475.26 384,-481.26 384,-487.26 384,-487.26 384,-499.26 384,-499.26 384,-505.26 378,-511.26 372,-511.26"/>
<text xml:space="preserve" text-anchor="middle" x="337.75" y="-495.01" font-family="Helvetica,sans-Serif" font-size="10.00" fill="white">2. Add Aestusium</text>
<text xml:space="preserve" text-anchor="middle" x="337.75" y="-483.76" font-family="Helvetica,sans-Serif" font-size="10.00" fill="white">(safe GH gas)</text>
</g>
<!-- is1&#45;&gt;is2 -->
<g id="edge27" class="edge">
<title>is1&#45;&gt;is2</title>
<path fill="none" stroke="#4ecdc4" d="M337.75,-572.14C337.75,-557.49 337.75,-536.37 337.75,-519.82"/>
<polygon fill="#4ecdc4" stroke="#4ecdc4" points="340.2,-520.15 337.75,-513.15 335.3,-520.15 340.2,-520.15"/>
</g>
<!-- is3 -->
<g id="node24" class="node">
<title>is3</title>
<path fill="#2d2d44" stroke="#4ecdc4" d="M365.88,-427.38C365.88,-427.38 311.62,-427.38 311.62,-427.38 305.62,-427.38 299.62,-421.38 299.62,-415.38 299.62,-415.38 299.62,-403.38 299.62,-403.38 299.62,-397.38 305.62,-391.38 311.62,-391.38 311.62,-391.38 365.88,-391.38 365.88,-391.38 371.88,-391.38 377.88,-397.38 377.88,-403.38 377.88,-403.38 377.88,-415.38 377.88,-415.38 377.88,-421.38 371.88,-427.38 365.88,-427.38"/>
<text xml:space="preserve" text-anchor="middle" x="338.75" y="-411.13" font-family="Helvetica,sans-Serif" font-size="10.00" fill="white">3. Target &#45;27C</text>
<text xml:space="preserve" text-anchor="middle" x="338.75" y="-399.88" font-family="Helvetica,sans-Serif" font-size="10.00" fill="white">threshold</text>
</g>
<!-- is2&#45;&gt;is3 -->
<g id="edge28" class="edge">
<title>is2&#45;&gt;is3</title>
<path fill="none" stroke="#4ecdc4" d="M337.96,-474.89C338.1,-463.61 338.28,-448.69 338.44,-436.04"/>
<polygon fill="#4ecdc4" stroke="#4ecdc4" points="340.88,-436.26 338.52,-429.24 335.98,-436.21 340.88,-436.26"/>
</g>
<!-- is4 -->
<g id="node25" class="node">
<title>is4</title>
<path fill="#2d2d44" stroke="#4ecdc4" d="M366.12,-329.38C366.12,-329.38 313.38,-329.38 313.38,-329.38 307.38,-329.38 301.38,-323.38 301.38,-317.38 301.38,-317.38 301.38,-305.38 301.38,-305.38 301.38,-299.38 307.38,-293.38 313.38,-293.38 313.38,-293.38 366.12,-293.38 366.12,-293.38 372.12,-293.38 378.12,-299.38 378.12,-305.38 378.12,-305.38 378.12,-317.38 378.12,-317.38 378.12,-323.38 372.12,-329.38 366.12,-329.38"/>
<text xml:space="preserve" text-anchor="middle" x="339.75" y="-313.13" font-family="Helvetica,sans-Serif" font-size="10.00" fill="white">4. Ice melts =</text>
<text xml:space="preserve" text-anchor="middle" x="339.75" y="-301.88" font-family="Helvetica,sans-Serif" font-size="10.00" fill="white">Albedo boost!</text>
</g>
<!-- is3&#45;&gt;is4 -->
<g id="edge29" class="edge">
<title>is3&#45;&gt;is4</title>
<path fill="none" stroke="#4ecdc4" d="M338.93,-391.22C339.08,-376.43 339.31,-354.87 339.48,-338.03"/>
<polygon fill="#4ecdc4" stroke="#4ecdc4" points="341.93,-338.26 339.55,-331.23 337.03,-338.21 341.93,-338.26"/>
</g>
<!-- is5 -->
<g id="node26" class="node">
<title>is5</title>
<path fill="#95d5b2" stroke="#4ecdc4" d="M375.88,-247.76C375.88,-247.76 309.62,-247.76 309.62,-247.76 303.62,-247.76 297.62,-241.76 297.62,-235.76 297.62,-235.76 297.62,-223.76 297.62,-223.76 297.62,-217.76 303.62,-211.76 309.62,-211.76 309.62,-211.76 375.88,-211.76 375.88,-211.76 381.88,-211.76 387.88,-217.76 387.88,-223.76 387.88,-223.76 387.88,-235.76 387.88,-235.76 387.88,-241.76 381.88,-247.76 375.88,-247.76"/>
<text xml:space="preserve" text-anchor="middle" x="342.75" y="-231.51" font-family="Helvetica,sans-Serif" font-size="10.00" fill="#1a1a2e">5. Extra warming</text>
<text xml:space="preserve" text-anchor="middle" x="342.75" y="-220.26" font-family="Helvetica,sans-Serif" font-size="10.00" fill="#1a1a2e">from feedback</text>
</g>
<!-- is4&#45;&gt;is5 -->
<g id="edge30" class="edge">
<title>is4&#45;&gt;is5</title>
<path fill="none" stroke="#4ecdc4" d="M340.4,-293.11C340.81,-282.36 341.33,-268.34 341.79,-256.33"/>
<polygon fill="#4ecdc4" stroke="#4ecdc4" points="344.23,-256.6 342.04,-249.51 339.33,-256.42 344.23,-256.6"/>
</g>
<!-- is5&#45;&gt;practical -->
<g id="edge31" class="edge">
<title>is5&#45;&gt;practical</title>
<path fill="none" stroke="#4ecdc4" d="M370.02,-211.43C393.72,-196.38 428.15,-174.5 453.66,-158.29"/>
<polygon fill="#4ecdc4" stroke="#4ecdc4" points="454.73,-160.52 459.32,-154.7 452.1,-156.38 454.73,-160.52"/>
</g>
<!-- nh2 -->
<g id="node28" class="node">
<title>nh2</title>
<path fill="#2d2d44" stroke="#4ecdc4" d="M1019.12,-247.76C1019.12,-247.76 942.38,-247.76 942.38,-247.76 936.38,-247.76 930.38,-241.76 930.38,-235.76 930.38,-235.76 930.38,-223.76 930.38,-223.76 930.38,-217.76 936.38,-211.76 942.38,-211.76 942.38,-211.76 1019.12,-211.76 1019.12,-211.76 1025.12,-211.76 1031.12,-217.76 1031.12,-223.76 1031.12,-223.76 1031.12,-235.76 1031.12,-235.76 1031.12,-241.76 1025.12,-247.76 1019.12,-247.76"/>
<text xml:space="preserve" text-anchor="middle" x="980.75" y="-231.51" font-family="Helvetica,sans-Serif" font-size="10.00" fill="white">2. Targeted fix</text>
<text xml:space="preserve" text-anchor="middle" x="980.75" y="-220.26" font-family="Helvetica,sans-Serif" font-size="10.00" fill="white">(trace toxics, temp)</text>
</g>
<!-- nh1&#45;&gt;nh2 -->
<g id="edge32" class="edge">
<title>nh1&#45;&gt;nh2</title>
<path fill="none" stroke="#4ecdc4" d="M979.97,-293.11C980.1,-282.36 980.28,-268.34 980.43,-256.33"/>
<polygon fill="#4ecdc4" stroke="#4ecdc4" points="982.88,-256.55 980.51,-249.52 977.98,-256.48 982.88,-256.55"/>
</g>
<!-- nh3 -->
<g id="node29" class="node">
<title>nh3</title>
<path fill="#95d5b2" stroke="#4ecdc4" d="M998.62,-153.63C998.62,-153.63 948.88,-153.63 948.88,-153.63 942.88,-153.63 936.88,-147.63 936.88,-141.63 936.88,-141.63 936.88,-129.63 936.88,-129.63 936.88,-123.63 942.88,-117.63 948.88,-117.63 948.88,-117.63 998.62,-117.63 998.62,-117.63 1004.62,-117.63 1010.62,-123.63 1010.62,-129.63 1010.62,-129.63 1010.62,-141.63 1010.62,-141.63 1010.62,-147.63 1004.62,-153.63 998.62,-153.63"/>
<text xml:space="preserve" text-anchor="middle" x="973.75" y="-131.76" font-family="Helvetica,sans-Serif" font-size="10.00" fill="#1a1a2e">3. Quick win!</text>
</g>
<!-- nh2&#45;&gt;nh3 -->
<g id="edge33" class="edge">
<title>nh2&#45;&gt;nh3</title>
<path fill="none" stroke="#4ecdc4" d="M979.43,-211.43C978.38,-197.53 976.88,-177.83 975.69,-162.13"/>
<polygon fill="#4ecdc4" stroke="#4ecdc4" points="978.15,-162.19 975.18,-155.39 973.26,-162.56 978.15,-162.19"/>
</g>
<!-- ready -->
<g id="node30" class="node">
<title>ready</title>
<ellipse fill="#95d5b2" stroke="#4ecdc4" cx="799.75" cy="-21.57" rx="40.48" ry="21.57"/>
<text xml:space="preserve" text-anchor="middle" x="799.75" y="-23.32" font-family="Helvetica,sans-Serif" font-size="10.00" fill="#1a1a2e">Ready to</text>
<text xml:space="preserve" text-anchor="middle" x="799.75" y="-12.07" font-family="Helvetica,sans-Serif" font-size="10.00" fill="#1a1a2e">Colonize!</text>
</g>
<!-- nh3&#45;&gt;ready -->
<g id="edge34" class="edge">
<title>nh3&#45;&gt;ready</title>
<path fill="none" stroke="#4ecdc4" d="M946.94,-117.37C915.88,-97.36 864.75,-64.43 831.66,-43.12"/>
<polygon fill="#4ecdc4" stroke="#4ecdc4" points="833.37,-41.31 826.16,-39.58 830.72,-45.43 833.37,-41.31"/>
</g>
<!-- impractical -->
<g id="node31" class="node">
<title>impractical</title>
<ellipse fill="#ff6b6b" stroke="#4ecdc4" cx="487.75" cy="-21.57" rx="69.12" ry="21.57"/>
<text xml:space="preserve" text-anchor="middle" x="487.75" y="-23.32" font-family="Helvetica,sans-Serif" font-size="10.00" fill="white">Impractical</text>
<text xml:space="preserve" text-anchor="middle" x="487.75" y="-12.07" font-family="Helvetica,sans-Serif" font-size="10.00" fill="white">(too large/extreme)</text>
</g>
<!-- practical&#45;&gt;ready -->
<g id="edge35" class="edge">
<title>practical&#45;&gt;ready</title>
<path fill="none" stroke="#4ecdc4" d="M523.85,-121.67C582.33,-100.66 697.45,-59.31 758.87,-37.25"/>
<polygon fill="#4ecdc4" stroke="#4ecdc4" points="759.63,-39.58 765.39,-34.91 757.97,-34.97 759.63,-39.58"/>
<text xml:space="preserve" text-anchor="middle" x="687.25" y="-71.03" font-family="Helvetica,sans-Serif" font-size="8.00" fill="#888888">Yes</text>
</g>
<!-- practical&#45;&gt;impractical -->
<g id="edge36" class="edge">
<title>practical&#45;&gt;impractical</title>
<path fill="none" stroke="#4ecdc4" d="M487.75,-104.6C487.75,-88.15 487.75,-67.85 487.75,-51.57"/>
<polygon fill="#4ecdc4" stroke="#4ecdc4" points="490.2,-51.97 487.75,-44.97 485.3,-51.97 490.2,-51.97"/>
<text xml:space="preserve" text-anchor="middle" x="509.12" y="-75.53" font-family="Helvetica,sans-Serif" font-size="8.00" fill="#888888">No</text>
<text xml:space="preserve" text-anchor="middle" x="509.12" y="-66.53" font-family="Helvetica,sans-Serif" font-size="8.00" fill="#888888">(centuries+)</text>
</g>
</g>
</svg>
