<?xml version="1.0" encoding="UTF-8" standalone="no"?>
<!DOCTYPE svg PUBLIC "-//W3C//DTD SVG 1.1//EN"
 "http://www.w3.org/Graphics/SVG/1.1/DTD/svg11.dtd">
<!-- Generated by graphviz version 14.1.2 (20260124.0452)
 -->
<!-- Title: FeatureScope Pages: 1 -->
<svg width="1323pt" height="335pt"
 viewBox="0.00 0.00 1323.00 335.00" xmlns="http://www.w3.org/2000/svg" xmlns:xlink="http://www.w3.org/1999/xlink">
<g id="graph0" class="graph" transform="scale(1 1) rotate(0) translate(4 331.4)">
<title>FeatureScope</title>
<polygon fill="#1a1a2e" stroke="none" points="-4,4 -4,-331.4 1318.62,-331.4 1318.62,4 -4,4"/>
<!-- aurora -->
<g id="node1" class="node">
<title>aurora</title>
<ellipse fill="#4ecdc4" stroke="#4ecdc4" cx="656.12" cy="-284.2" rx="72" ry="43.2"/>
<text xml:space="preserve" text-anchor="middle" x="656.12" y="-285.9" font-family="Helvetica,sans-Serif" font-size="14.00" fill="#1a1a2e">Aurora 4X</text>
<text xml:space="preserve" text-anchor="middle" x="656.12" y="-270.9" font-family="Helvetica,sans-Serif" font-size="14.00" fill="#1a1a2e">Core Simulation</text>
</g>
<!-- research -->
<g id="node2" class="node">
<title>research</title>
<path fill="#95d5b2" stroke="#4ecdc4" d="M166.62,-183C166.62,-183 117.62,-183 117.62,-183 111.62,-183 105.62,-177 105.62,-171 105.62,-171 105.62,-159 105.62,-159 105.62,-153 111.62,-147 117.62,-147 117.62,-147 166.62,-147 166.62,-147 172.62,-147 178.62,-153 178.62,-159 178.62,-159 178.62,-171 178.62,-171 178.62,-177 172.62,-183 166.62,-183"/>
<text xml:space="preserve" text-anchor="middle" x="142.12" y="-166.55" font-family="Helvetica,sans-Serif" font-size="11.00" fill="#1a1a2e">Research &amp;</text>
<text xml:space="preserve" text-anchor="middle" x="142.12" y="-154.55" font-family="Helvetica,sans-Serif" font-size="11.00" fill="#1a1a2e">Technology</text>
</g>
<!-- aurora&#45;&gt;research -->
<g id="edge1" class="edge">
<title>aurora&#45;&gt;research</title>
<path fill="none" stroke="#4ecdc4" d="M593.36,-306C456.24,-306 142.12,-306 142.12,-306 142.12,-306 142.12,-221.65 142.12,-183.43"/>
</g>
<!-- ship_design -->
<g id="node3" class="node">
<title>ship_design</title>
<path fill="#95d5b2" stroke="#4ecdc4" d="M301.12,-183C301.12,-183 271.12,-183 271.12,-183 265.12,-183 259.12,-177 259.12,-171 259.12,-171 259.12,-159 259.12,-159 259.12,-153 265.12,-147 271.12,-147 271.12,-147 301.12,-147 301.12,-147 307.12,-147 313.12,-153 313.12,-159 313.12,-159 313.12,-171 313.12,-171 313.12,-177 307.12,-183 301.12,-183"/>
<text xml:space="preserve" text-anchor="middle" x="286.12" y="-166.55" font-family="Helvetica,sans-Serif" font-size="11.00" fill="#1a1a2e">Ship</text>
<text xml:space="preserve" text-anchor="middle" x="286.12" y="-154.55" font-family="Helvetica,sans-Serif" font-size="11.00" fill="#1a1a2e">Design</text>
</g>
<!-- aurora&#45;&gt;ship_design -->
<g id="edge2" class="edge">
<title>aurora&#45;&gt;ship_design</title>
<path fill="none" stroke="#4ecdc4" d="M583.91,-284C476.23,-284 286.12,-284 286.12,-284 286.12,-284 286.12,-216.71 286.12,-183.33"/>
</g>
<!-- ground_forces -->
<g id="node4" class="node">
<title>ground_forces</title>
<path fill="#95d5b2" stroke="#4ecdc4" d="M463.12,-183C463.12,-183 433.12,-183 433.12,-183 427.12,-183 421.12,-177 421.12,-171 421.12,-171 421.12,-159 421.12,-159 421.12,-153 427.12,-147 433.12,-147 433.12,-147 463.12,-147 463.12,-147 469.12,-147 475.12,-153 475.12,-159 475.12,-159 475.12,-171 475.12,-171 475.12,-177 469.12,-183 463.12,-183"/>
<text xml:space="preserve" text-anchor="middle" x="448.12" y="-166.55" font-family="Helvetica,sans-Serif" font-size="11.00" fill="#1a1a2e">Ground</text>
<text xml:space="preserve" text-anchor="middle" x="448.12" y="-154.55" font-family="Helvetica,sans-Serif" font-size="11.00" fill="#1a1a2e">Forces</text>
</g>
<!-- aurora&#45;&gt;ground_forces -->
<g id="edge3" class="edge">
<title>aurora&#45;&gt;ground_forces</title>
<path fill="none" stroke="#4ecdc4" d="M592.87,-263C531.68,-263 448.12,-263 448.12,-263 448.12,-263 448.12,-211.82 448.12,-183.43"/>
</g>
<!-- colonization -->
<g id="node5" class="node">
<title>colonization</title>
<path fill="#95d5b2" stroke="#4ecdc4" d="M623.75,-183C623.75,-183 572.5,-183 572.5,-183 566.5,-183 560.5,-177 560.5,-171 560.5,-171 560.5,-159 560.5,-159 560.5,-153 566.5,-147 572.5,-147 572.5,-147 623.75,-147 623.75,-147 629.75,-147 635.75,-153 635.75,-159 635.75,-159 635.75,-171 635.75,-171 635.75,-177 629.75,-183 623.75,-183"/>
<text xml:space="preserve" text-anchor="middle" x="598.12" y="-160.55" font-family="Helvetica,sans-Serif" font-size="11.00" fill="#1a1a2e">Colonization</text>
</g>
<!-- aurora&#45;&gt;colonization -->
<g id="edge4" class="edge">
<title>aurora&#45;&gt;colonization</title>
<path fill="none" stroke="#4ecdc4" d="M609.94,-250.68C609.94,-228.92 609.94,-201.38 609.94,-183.49"/>
</g>
<!-- exploration -->
<g id="node6" class="node">
<title>exploration</title>
<path fill="#95d5b2" stroke="#4ecdc4" d="M763.12,-183C763.12,-183 717.12,-183 717.12,-183 711.12,-183 705.12,-177 705.12,-171 705.12,-171 705.12,-159 705.12,-159 705.12,-153 711.12,-147 717.12,-147 717.12,-147 763.12,-147 763.12,-147 769.12,-147 775.12,-153 775.12,-159 775.12,-159 775.12,-171 775.12,-171 775.12,-177 769.12,-183 763.12,-183"/>
<text xml:space="preserve" text-anchor="middle" x="740.12" y="-160.55" font-family="Helvetica,sans-Serif" font-size="11.00" fill="#1a1a2e">Exploration</text>
</g>
<!-- aurora&#45;&gt;exploration -->
<g id="edge5" class="edge">
<title>aurora&#45;&gt;exploration</title>
<path fill="none" stroke="#4ecdc4" d="M716.62,-260.36C716.62,-237.67 716.62,-204 716.62,-183.34"/>
</g>
<!-- diplomacy -->
<g id="node7" class="node">
<title>diplomacy</title>
<path fill="#95d5b2" stroke="#4ecdc4" d="M916.5,-183C916.5,-183 863.75,-183 863.75,-183 857.75,-183 851.75,-177 851.75,-171 851.75,-171 851.75,-159 851.75,-159 851.75,-153 857.75,-147 863.75,-147 863.75,-147 916.5,-147 916.5,-147 922.5,-147 928.5,-153 928.5,-159 928.5,-159 928.5,-171 928.5,-171 928.5,-177 922.5,-183 916.5,-183"/>
<text xml:space="preserve" text-anchor="middle" x="890.12" y="-166.55" font-family="Helvetica,sans-Serif" font-size="11.00" fill="#1a1a2e">Diplomacy &amp;</text>
<text xml:space="preserve" text-anchor="middle" x="890.12" y="-154.55" font-family="Helvetica,sans-Serif" font-size="11.00" fill="#1a1a2e">Espionage</text>
</g>
<!-- aurora&#45;&gt;diplomacy -->
<g id="edge6" class="edge">
<title>aurora&#45;&gt;diplomacy</title>
<path fill="none" stroke="#4ecdc4" d="M719.45,-263C788.75,-263 890.12,-263 890.12,-263 890.12,-263 890.12,-211.82 890.12,-183.43"/>
</g>
<!-- tactical_combat -->
<g id="node8" class="node">
<title>tactical_combat</title>
<path fill="#95d5b2" stroke="#4ecdc4" d="M1061.25,-183C1061.25,-183 1031,-183 1031,-183 1025,-183 1019,-177 1019,-171 1019,-171 1019,-159 1019,-159 1019,-153 1025,-147 1031,-147 1031,-147 1061.25,-147 1061.25,-147 1067.25,-147 1073.25,-153 1073.25,-159 1073.25,-159 1073.25,-171 1073.25,-171 1073.25,-177 1067.25,-183 1061.25,-183"/>
<text xml:space="preserve" text-anchor="middle" x="1046.12" y="-166.55" font-family="Helvetica,sans-Serif" font-size="11.00" fill="#1a1a2e">Tactical</text>
<text xml:space="preserve" text-anchor="middle" x="1046.12" y="-154.55" font-family="Helvetica,sans-Serif" font-size="11.00" fill="#1a1a2e">Combat</text>
</g>
<!-- aurora&#45;&gt;tactical_combat -->
<g id="edge7" class="edge">
<title>aurora&#45;&gt;tactical_combat</title>
<path fill="none" stroke="#4ecdc4" d="M728.57,-284C841.35,-284 1046.12,-284 1046.12,-284 1046.12,-284 1046.12,-216.71 1046.12,-183.33"/>
</g>
<!-- terraforming -->
<g id="node9" class="node">
<title>terraforming</title>
<path fill="#95d5b2" stroke="#4ecdc4" d="M1237.5,-183C1237.5,-183 1184.75,-183 1184.75,-183 1178.75,-183 1172.75,-177 1172.75,-171 1172.75,-171 1172.75,-159 1172.75,-159 1172.75,-153 1178.75,-147 1184.75,-147 1184.75,-147 1237.5,-147 1237.5,-147 1243.5,-147 1249.5,-153 1249.5,-159 1249.5,-159 1249.5,-171 1249.5,-171 1249.5,-177 1243.5,-183 1237.5,-183"/>
<text xml:space="preserve" text-anchor="middle" x="1211.12" y="-160.55" font-family="Helvetica,sans-Serif" font-size="11.00" fill="#1a1a2e">Terraforming</text>
</g>
<!-- aurora&#45;&gt;terraforming -->
<g id="edge8" class="edge">
<title>aurora&#45;&gt;terraforming</title>
<path fill="none" stroke="#4ecdc4" d="M718.71,-306C863.86,-306 1211.12,-306 1211.12,-306 1211.12,-306 1211.12,-221.65 1211.12,-183.43"/>
</g>
<!-- research_features -->
<g id="node10" class="node">
<title>research_features</title>
<path fill="#252545" stroke="#4ecdc4" d="M126.25,-89C126.25,-89 12,-89 12,-89 6,-89 0,-83 0,-77 0,-77 0,-12 0,-12 0,-6 6,0 12,0 12,0 126.25,0 126.25,0 132.25,0 138.25,-6 138.25,-12 138.25,-12 138.25,-77 138.25,-77 138.25,-83 132.25,-89 126.25,-89"/>
<polygon fill="#4ecdc4" stroke="none" points="10,-65.25 10,-83 128.25,-83 128.25,-65.25 10,-65.25"/>
<text xml:space="preserve" text-anchor="start" x="50" y="-71.45" font-family="Helvetica,sans-Serif" font-weight="bold" font-size="9.00" fill="#1a1a2e">Features</text>
<text xml:space="preserve" text-anchor="start" x="14" y="-50.7" font-family="Helvetica,sans-Serif" font-size="9.00" fill="white">• Hundreds of technologies</text>
<text xml:space="preserve" text-anchor="start" x="14" y="-30.95" font-family="Helvetica,sans-Serif" font-size="9.00" fill="white">• Dozens of research fields</text>
<text xml:space="preserve" text-anchor="start" x="14" y="-11.2" font-family="Helvetica,sans-Serif" font-size="9.00" fill="white">• Component unlocks</text>
</g>
<!-- research&#45;&gt;research_features -->
<g id="edge9" class="edge">
<title>research&#45;&gt;research_features</title>
<path fill="none" stroke="#666666" stroke-dasharray="5,2" d="M121.94,-146.7C121.94,-146.7 121.94,-95.83 121.94,-95.83"/>
<polygon fill="#666666" stroke="#666666" points="123.69,-95.83 121.94,-90.83 120.19,-95.83 123.69,-95.83"/>
</g>
<!-- ship_features -->
<g id="node11" class="node">
<title>ship_features</title>
<path fill="#252545" stroke="#4ecdc4" d="M306.88,-89C306.88,-89 193.38,-89 193.38,-89 187.38,-89 181.38,-83 181.38,-77 181.38,-77 181.38,-12 181.38,-12 181.38,-6 187.38,0 193.38,0 193.38,0 306.88,0 306.88,0 312.88,0 318.88,-6 318.88,-12 318.88,-12 318.88,-77 318.88,-77 318.88,-83 312.88,-89 306.88,-89"/>
<polygon fill="#4ecdc4" stroke="none" points="191.38,-65.25 191.38,-83 308.88,-83 308.88,-65.25 191.38,-65.25"/>
<text xml:space="preserve" text-anchor="start" x="231" y="-71.45" font-family="Helvetica,sans-Serif" font-weight="bold" font-size="9.00" fill="#1a1a2e">Features</text>
<text xml:space="preserve" text-anchor="start" x="195.38" y="-50.7" font-family="Helvetica,sans-Serif" font-size="9.00" fill="white">• Component&#45;level design</text>
<text xml:space="preserve" text-anchor="start" x="195.38" y="-30.95" font-family="Helvetica,sans-Serif" font-size="9.00" fill="white">• Engines, armor, weapons</text>
<text xml:space="preserve" text-anchor="start" x="195.38" y="-11.2" font-family="Helvetica,sans-Serif" font-size="9.00" fill="white">• Crew and life support</text>
</g>
<!-- ship_design&#45;&gt;ship_features -->
<g id="edge10" class="edge">
<title>ship_design&#45;&gt;ship_features</title>
<path fill="none" stroke="#666666" stroke-dasharray="5,2" d="M286.12,-146.7C286.12,-146.7 286.12,-95.83 286.12,-95.83"/>
<polygon fill="#666666" stroke="#666666" points="287.88,-95.83 286.13,-90.83 284.38,-95.83 287.88,-95.83"/>
</g>
<!-- ground_features -->
<g id="node12" class="node">
<title>ground_features</title>
<path fill="#252545" stroke="#ff6b6b" d="M463.88,-89C463.88,-89 374.38,-89 374.38,-89 368.38,-89 362.38,-83 362.38,-77 362.38,-77 362.38,-12 362.38,-12 362.38,-6 368.38,0 374.38,0 374.38,0 463.88,0 463.88,0 469.88,0 475.88,-6 475.88,-12 475.88,-12 475.88,-77 475.88,-77 475.88,-83 469.88,-89 463.88,-89"/>
<polygon fill="#ff6b6b" stroke="none" points="372.38,-65.25 372.38,-83 465.88,-83 465.88,-65.25 372.38,-65.25"/>
<text xml:space="preserve" text-anchor="start" x="400" y="-71.45" font-family="Helvetica,sans-Serif" font-weight="bold" font-size="9.00" fill="#1a1a2e">Features</text>
<text xml:space="preserve" text-anchor="start" x="376.38" y="-50.7" font-family="Helvetica,sans-Serif" font-size="9.00" fill="white">• Infantry and armor</text>
<text xml:space="preserve" text-anchor="start" x="376.38" y="-30.95" font-family="Helvetica,sans-Serif" font-size="9.00" fill="white">• Unit design system</text>
<text xml:space="preserve" text-anchor="start" x="376.38" y="-11.2" font-family="Helvetica,sans-Serif" font-size="9.00" fill="white">• Planetary invasions</text>
</g>
<!-- ground_forces&#45;&gt;ground_features -->
<g id="edge11" class="edge">
<title>ground_forces&#45;&gt;ground_features</title>
<path fill="none" stroke="#666666" stroke-dasharray="5,2" d="M448.12,-146.7C448.12,-146.7 448.12,-95.83 448.12,-95.83"/>
<polygon fill="#666666" stroke="#666666" points="449.88,-95.83 448.13,-90.83 446.38,-95.83 449.88,-95.83"/>
</g>
<!-- colony_features -->
<g id="node13" class="node">
<title>colony_features</title>
<path fill="#252545" stroke="#ffe66d" d="M638.88,-89C638.88,-89 531.38,-89 531.38,-89 525.38,-89 519.38,-83 519.38,-77 519.38,-77 519.38,-12 519.38,-12 519.38,-6 525.38,0 531.38,0 531.38,0 638.88,0 638.88,0 644.88,0 650.88,-6 650.88,-12 650.88,-12 650.88,-77 650.88,-77 650.88,-83 644.88,-89 638.88,-89"/>
<polygon fill="#ffe66d" stroke="none" points="529.38,-65.25 529.38,-83 640.88,-83 640.88,-65.25 529.38,-65.25"/>
<text xml:space="preserve" text-anchor="start" x="566" y="-71.45" font-family="Helvetica,sans-Serif" font-weight="bold" font-size="9.00" fill="#1a1a2e">Features</text>
<text xml:space="preserve" text-anchor="start" x="533.38" y="-50.7" font-family="Helvetica,sans-Serif" font-size="9.00" fill="white">• Atmospheric modeling</text>
<text xml:space="preserve" text-anchor="start" x="533.38" y="-30.95" font-family="Helvetica,sans-Serif" font-size="9.00" fill="white">• Gravity and temperature</text>
<text xml:space="preserve" text-anchor="start" x="533.38" y="-11.2" font-family="Helvetica,sans-Serif" font-size="9.00" fill="white">• Infrastructure building</text>
</g>
<!-- colonization&#45;&gt;colony_features -->
<g id="edge12" class="edge">
<title>colonization&#45;&gt;colony_features</title>
<path fill="none" stroke="#666666" stroke-dasharray="5,2" d="M598.12,-146.7C598.12,-146.7 598.12,-95.83 598.12,-95.83"/>
<polygon fill="#666666" stroke="#666666" points="599.88,-95.83 598.13,-90.83 596.38,-95.83 599.88,-95.83"/>
</g>
<!-- explore_features -->
<g id="node14" class="node">
<title>explore_features</title>
<path fill="#252545" stroke="#4ecdc4" d="M800.12,-89C800.12,-89 706.12,-89 706.12,-89 700.12,-89 694.12,-83 694.12,-77 694.12,-77 694.12,-12 694.12,-12 694.12,-6 700.12,0 706.12,0 706.12,0 800.12,0 800.12,0 806.12,0 812.12,-6 812.12,-12 812.12,-12 812.12,-77 812.12,-77 812.12,-83 806.12,-89 800.12,-89"/>
<polygon fill="#4ecdc4" stroke="none" points="704.12,-65.25 704.12,-83 802.12,-83 802.12,-65.25 704.12,-65.25"/>
<text xml:space="preserve" text-anchor="start" x="734" y="-71.45" font-family="Helvetica,sans-Serif" font-weight="bold" font-size="9.00" fill="#1a1a2e">Features</text>
<text xml:space="preserve" text-anchor="start" x="708.12" y="-50.7" font-family="Helvetica,sans-Serif" font-size="9.00" fill="white">• Jump point networks</text>
<text xml:space="preserve" text-anchor="start" x="708.12" y="-30.95" font-family="Helvetica,sans-Serif" font-size="9.00" fill="white">• Survey vessels</text>
<text xml:space="preserve" text-anchor="start" x="708.12" y="-11.2" font-family="Helvetica,sans-Serif" font-size="9.00" fill="white">• Alien ruins discovery</text>
</g>
<!-- exploration&#45;&gt;explore_features -->
<g id="edge13" class="edge">
<title>exploration&#45;&gt;explore_features</title>
<path fill="none" stroke="#666666" stroke-dasharray="5,2" d="M740.12,-146.7C740.12,-146.7 740.12,-95.83 740.12,-95.83"/>
<polygon fill="#666666" stroke="#666666" points="741.88,-95.83 740.13,-90.83 738.38,-95.83 741.88,-95.83"/>
</g>
<!-- diplo_features -->
<g id="node15" class="node">
<title>diplo_features</title>
<path fill="#252545" stroke="#95d5b2" d="M954.75,-89C954.75,-89 867.5,-89 867.5,-89 861.5,-89 855.5,-83 855.5,-77 855.5,-77 855.5,-12 855.5,-12 855.5,-6 861.5,0 867.5,0 867.5,0 954.75,0 954.75,0 960.75,0 966.75,-6 966.75,-12 966.75,-12 966.75,-77 966.75,-77 966.75,-83 960.75,-89 954.75,-89"/>
<polygon fill="#95d5b2" stroke="none" points="865.5,-65.25 865.5,-83 956.75,-83 956.75,-65.25 865.5,-65.25"/>
<text xml:space="preserve" text-anchor="start" x="892" y="-71.45" font-family="Helvetica,sans-Serif" font-weight="bold" font-size="9.00" fill="#1a1a2e">Features</text>
<text xml:space="preserve" text-anchor="start" x="869.5" y="-50.7" font-family="Helvetica,sans-Serif" font-size="9.00" fill="white">• Trade agreements</text>
<text xml:space="preserve" text-anchor="start" x="869.5" y="-30.95" font-family="Helvetica,sans-Serif" font-size="9.00" fill="white">• Treaty negotiations</text>
<text xml:space="preserve" text-anchor="start" x="869.5" y="-11.2" font-family="Helvetica,sans-Serif" font-size="9.00" fill="white">• Intelligence ops</text>
</g>
<!-- diplomacy&#45;&gt;diplo_features -->
<g id="edge14" class="edge">
<title>diplomacy&#45;&gt;diplo_features</title>
<path fill="none" stroke="#666666" stroke-dasharray="5,2" d="M892,-146.7C892,-146.7 892,-95.83 892,-95.83"/>
<polygon fill="#666666" stroke="#666666" points="893.75,-95.83 892,-90.83 890.25,-95.83 893.75,-95.83"/>
</g>
<!-- combat_features -->
<g id="node16" class="node">
<title>combat_features</title>
<path fill="#252545" stroke="#ff6b6b" d="M1138.38,-89C1138.38,-89 1021.88,-89 1021.88,-89 1015.88,-89 1009.88,-83 1009.88,-77 1009.88,-77 1009.88,-12 1009.88,-12 1009.88,-6 1015.88,0 1021.88,0 1021.88,0 1138.38,0 1138.38,0 1144.38,0 1150.38,-6 1150.38,-12 1150.38,-12 1150.38,-77 1150.38,-77 1150.38,-83 1144.38,-89 1138.38,-89"/>
<polygon fill="#ff6b6b" stroke="none" points="1019.88,-65.25 1019.88,-83 1140.38,-83 1140.38,-65.25 1019.88,-65.25"/>
<text xml:space="preserve" text-anchor="start" x="1061" y="-71.45" font-family="Helvetica,sans-Serif" font-weight="bold" font-size="9.00" fill="#1a1a2e">Features</text>
<text xml:space="preserve" text-anchor="start" x="1023.88" y="-50.7" font-family="Helvetica,sans-Serif" font-size="9.00" fill="white">• Individual weapon mounts</text>
<text xml:space="preserve" text-anchor="start" x="1023.88" y="-30.95" font-family="Helvetica,sans-Serif" font-size="9.00" fill="white">• Missile and beam combat</text>
<text xml:space="preserve" text-anchor="start" x="1023.88" y="-11.2" font-family="Helvetica,sans-Serif" font-size="9.00" fill="white">• Point defense layers</text>
</g>
<!-- tactical_combat&#45;&gt;combat_features -->
<g id="edge15" class="edge">
<title>tactical_combat&#45;&gt;combat_features</title>
<path fill="none" stroke="#666666" stroke-dasharray="5,2" d="M1046.12,-146.7C1046.12,-146.7 1046.12,-95.83 1046.12,-95.83"/>
<polygon fill="#666666" stroke="#666666" points="1047.88,-95.83 1046.13,-90.83 1044.38,-95.83 1047.88,-95.83"/>
</g>
<!-- terra_features -->
<g id="node17" class="node">
<title>terra_features</title>
<path fill="#252545" stroke="#ffe66d" d="M1302.62,-89C1302.62,-89 1205.62,-89 1205.62,-89 1199.62,-89 1193.62,-83 1193.62,-77 1193.62,-77 1193.62,-12 1193.62,-12 1193.62,-6 1199.62,0 1205.62,0 1205.62,0 1302.62,0 1302.62,0 1308.62,0 1314.62,-6 1314.62,-12 1314.62,-12 1314.62,-77 1314.62,-77 1314.62,-83 1308.62,-89 1302.62,-89"/>
<polygon fill="#ffe66d" stroke="none" points="1203.62,-65.25 1203.62,-83 1304.62,-83 1304.62,-65.25 1203.62,-65.25"/>
<text xml:space="preserve" text-anchor="start" x="1235" y="-71.45" font-family="Helvetica,sans-Serif" font-weight="bold" font-size="9.00" fill="#1a1a2e">Features</text>
<text xml:space="preserve" text-anchor="start" x="1207.62" y="-50.7" font-family="Helvetica,sans-Serif" font-size="9.00" fill="white">• Multi&#45;decade projects</text>
<text xml:space="preserve" text-anchor="start" x="1207.62" y="-30.95" font-family="Helvetica,sans-Serif" font-size="9.00" fill="white">• Gas modification</text>
<text xml:space="preserve" text-anchor="start" x="1207.62" y="-11.2" font-family="Helvetica,sans-Serif" font-size="9.00" fill="white">• Habitability scoring</text>
</g>
<!-- terraforming&#45;&gt;terra_features -->
<g id="edge16" class="edge">
<title>terraforming&#45;&gt;terra_features</title>
<path fill="none" stroke="#666666" stroke-dasharray="5,2" d="M1221.56,-146.7C1221.56,-146.7 1221.56,-95.83 1221.56,-95.83"/>
<polygon fill="#666666" stroke="#666666" points="1223.31,-95.83 1221.56,-90.83 1219.81,-95.83 1223.31,-95.83"/>
</g>
</g>
</svg>
