<?xml version="1.0" encoding="UTF-8" standalone="no"?>
<!DOCTYPE svg PUBLIC "-//W3C//DTD SVG 1.1//EN"
 "http://www.w3.org/Graphics/SVG/1.1/DTD/svg11.dtd">
<!-- Generated by graphviz version 14.1.2 (20260124.0452)
 -->
<!-- Title: PromptingWorkflow Pages: 1 -->
<svg width="439pt" height="1188pt"
 viewBox="0.00 0.00 439.00 1188.00" xmlns="http://www.w3.org/2000/svg" xmlns:xlink="http://www.w3.org/1999/xlink">
<g id="graph0" class="graph" transform="scale(1 1) rotate(0) translate(4 1184.01)">
<title>PromptingWorkflow</title>
<polygon fill="#1a1a2e" stroke="none" points="-4,4 -4,-1184.01 434.75,-1184.01 434.75,4 -4,4"/>
<text xml:space="preserve" text-anchor="middle" x="215.38" y="-1160.81" font-family="Helvetica,sans-Serif" font-size="16.00" fill="white">AI Coaching Workflow</text>
<!-- start -->
<g id="node1" class="node">
<title>start</title>
<ellipse fill="#2d2d44" stroke="#4ecdc4" cx="316.38" cy="-1132.89" rx="63.82" ry="22.63"/>
<text xml:space="preserve" text-anchor="middle" x="316.38" y="-1134.44" font-family="Helvetica,sans-Serif" font-size="11.00" fill="white">Game Situation</text>
<text xml:space="preserve" text-anchor="middle" x="316.38" y="-1122.44" font-family="Helvetica,sans-Serif" font-size="11.00" fill="white">Arises</text>
</g>
<!-- urgent -->
<g id="node2" class="node">
<title>urgent</title>
<path fill="#2d2d44" stroke="#ffe66d" d="M305.18,-1054.95C305.18,-1054.95 280.8,-1045.57 280.8,-1045.57 275.2,-1043.41 275.2,-1039.1 280.8,-1036.95 280.8,-1036.95 305.18,-1027.57 305.18,-1027.57 310.78,-1025.41 321.97,-1025.41 327.57,-1027.57 327.57,-1027.57 351.95,-1036.95 351.95,-1036.95 357.55,-1039.1 357.55,-1043.41 351.95,-1045.57 351.95,-1045.57 327.57,-1054.95 327.57,-1054.95 321.97,-1057.1 310.78,-1057.1 305.18,-1054.95"/>
<text xml:space="preserve" text-anchor="middle" x="316.38" y="-1036.81" font-family="Helvetica,sans-Serif" font-size="11.00" fill="white">Urgent?</text>
</g>
<!-- start&#45;&gt;urgent -->
<g id="edge1" class="edge">
<title>start&#45;&gt;urgent</title>
<path fill="none" stroke="#4ecdc4" d="M316.38,-1110.19C316.38,-1097.81 316.38,-1082.18 316.38,-1069.03"/>
<polygon fill="#4ecdc4" stroke="#4ecdc4" points="319.18,-1069.07 316.38,-1061.07 313.58,-1069.07 319.18,-1069.07"/>
</g>
<!-- know_system -->
<g id="node3" class="node">
<title>know_system</title>
<path fill="#2d2d44" stroke="#ffe66d" d="M234.32,-958.85C234.32,-958.85 180.43,-936.17 180.43,-936.17 174.9,-933.84 174.9,-929.18 180.43,-926.85 180.43,-926.85 234.32,-904.17 234.32,-904.17 239.85,-901.84 250.9,-901.84 256.43,-904.17 256.43,-904.17 310.32,-926.85 310.32,-926.85 315.85,-929.18 315.85,-933.84 310.32,-936.17 310.32,-936.17 256.43,-958.85 256.43,-958.85 250.9,-961.18 239.85,-961.18 234.32,-958.85"/>
<text xml:space="preserve" text-anchor="middle" x="245.38" y="-933.06" font-family="Helvetica,sans-Serif" font-size="11.00" fill="white">Understand</text>
<text xml:space="preserve" text-anchor="middle" x="245.38" y="-921.06" font-family="Helvetica,sans-Serif" font-size="11.00" fill="white">the System?</text>
</g>
<!-- urgent&#45;&gt;know_system -->
<g id="edge3" class="edge">
<title>urgent&#45;&gt;know_system</title>
<path fill="none" stroke="#4ecdc4" d="M307.38,-1026.61C297.24,-1011.22 280.38,-985.63 266.8,-965.02"/>
<polygon fill="#4ecdc4" stroke="#4ecdc4" points="269.16,-963.52 262.42,-958.38 264.49,-966.6 269.16,-963.52"/>
<text xml:space="preserve" text-anchor="middle" x="293.23" y="-989.71" font-family="Helvetica,sans-Serif" font-size="9.00" fill="#888888">No</text>
</g>
<!-- ask_quick -->
<g id="node6" class="node">
<title>ask_quick</title>
<path fill="#2d2d44" stroke="#4ecdc4" d="M418.75,-874.51C418.75,-874.51 354,-874.51 354,-874.51 348,-874.51 342,-868.51 342,-862.51 342,-862.51 342,-850.51 342,-850.51 342,-844.51 348,-838.51 354,-838.51 354,-838.51 418.75,-838.51 418.75,-838.51 424.75,-838.51 430.75,-844.51 430.75,-850.51 430.75,-850.51 430.75,-862.51 430.75,-862.51 430.75,-868.51 424.75,-874.51 418.75,-874.51"/>
<text xml:space="preserve" text-anchor="middle" x="386.38" y="-858.06" font-family="Helvetica,sans-Serif" font-size="11.00" fill="white">Quick Question</text>
<text xml:space="preserve" text-anchor="middle" x="386.38" y="-846.06" font-family="Helvetica,sans-Serif" font-size="11.00" fill="white">(Crisis Mode)</text>
</g>
<!-- urgent&#45;&gt;ask_quick -->
<g id="edge2" class="edge">
<title>urgent&#45;&gt;ask_quick</title>
<path fill="none" stroke="#4ecdc4" d="M322.22,-1024.99C334.18,-993.78 361.54,-922.35 376.37,-883.63"/>
<polygon fill="#4ecdc4" stroke="#4ecdc4" points="378.89,-884.87 379.14,-876.4 373.66,-882.87 378.89,-884.87"/>
<text xml:space="preserve" text-anchor="middle" x="342.54" y="-989.71" font-family="Helvetica,sans-Serif" font-size="9.00" fill="#888888">Yes</text>
</g>
<!-- describe -->
<g id="node5" class="node">
<title>describe</title>
<path fill="#2d2d44" stroke="#4ecdc4" d="M196.25,-621.5C196.25,-621.5 116.5,-621.5 116.5,-621.5 110.5,-621.5 104.5,-615.5 104.5,-609.5 104.5,-609.5 104.5,-597.5 104.5,-597.5 104.5,-591.5 110.5,-585.5 116.5,-585.5 116.5,-585.5 196.25,-585.5 196.25,-585.5 202.25,-585.5 208.25,-591.5 208.25,-597.5 208.25,-597.5 208.25,-609.5 208.25,-609.5 208.25,-615.5 202.25,-621.5 196.25,-621.5"/>
<text xml:space="preserve" text-anchor="middle" x="156.38" y="-605.05" font-family="Helvetica,sans-Serif" font-size="11.00" fill="white">Describe Situation</text>
<text xml:space="preserve" text-anchor="middle" x="156.38" y="-593.05" font-family="Helvetica,sans-Serif" font-size="11.00" fill="white">to AI</text>
</g>
<!-- know_system&#45;&gt;describe -->
<g id="edge5" class="edge">
<title>know_system&#45;&gt;describe</title>
<path fill="none" stroke="#4ecdc4" d="M228.77,-906.15C214.05,-883.28 193.24,-847.58 182.38,-813.51 162.19,-750.25 157.56,-671.56 156.57,-631.17"/>
<polygon fill="#4ecdc4" stroke="#4ecdc4" points="159.37,-631.22 156.42,-623.27 153.77,-631.32 159.37,-631.22"/>
<text xml:space="preserve" text-anchor="middle" x="174.89" y="-743.96" font-family="Helvetica,sans-Serif" font-size="9.00" fill="#888888">Yes</text>
</g>
<!-- ask_explain -->
<g id="node7" class="node">
<title>ask_explain</title>
<path fill="#2d2d44" stroke="#4ecdc4" d="M290.62,-813.51C290.62,-813.51 216.12,-813.51 216.12,-813.51 210.12,-813.51 204.12,-807.51 204.12,-801.51 204.12,-801.51 204.12,-789.51 204.12,-789.51 204.12,-783.51 210.12,-777.51 216.12,-777.51 216.12,-777.51 290.62,-777.51 290.62,-777.51 296.62,-777.51 302.62,-783.51 302.62,-789.51 302.62,-789.51 302.62,-801.51 302.62,-801.51 302.62,-807.51 296.62,-813.51 290.62,-813.51"/>
<text xml:space="preserve" text-anchor="middle" x="253.38" y="-797.06" font-family="Helvetica,sans-Serif" font-size="11.00" fill="white">Ask for Mechanic</text>
<text xml:space="preserve" text-anchor="middle" x="253.38" y="-785.06" font-family="Helvetica,sans-Serif" font-size="11.00" fill="white">Explanation</text>
</g>
<!-- know_system&#45;&gt;ask_explain -->
<g id="edge4" class="edge">
<title>know_system&#45;&gt;ask_explain</title>
<path fill="none" stroke="#4ecdc4" d="M247.21,-899.77C248.59,-876.72 250.45,-845.47 251.77,-823.41"/>
<polygon fill="#4ecdc4" stroke="#4ecdc4" points="254.56,-823.64 252.24,-815.49 248.97,-823.31 254.56,-823.64"/>
<text xml:space="preserve" text-anchor="middle" x="256.79" y="-852.83" font-family="Helvetica,sans-Serif" font-size="9.00" fill="#888888">No</text>
</g>
<!-- ai_confident -->
<g id="node4" class="node">
<title>ai_confident</title>
<path fill="#2d2d44" stroke="#ffe66d" d="M145.27,-442.96C145.27,-442.96 89.23,-420.05 89.23,-420.05 83.68,-417.78 83.68,-413.23 89.23,-410.96 89.23,-410.96 145.27,-388.05 145.27,-388.05 150.82,-385.78 161.93,-385.78 167.48,-388.05 167.48,-388.05 223.52,-410.96 223.52,-410.96 229.07,-413.23 229.07,-417.78 223.52,-420.05 223.52,-420.05 167.48,-442.96 167.48,-442.96 161.93,-445.23 150.82,-445.23 145.27,-442.96"/>
<text xml:space="preserve" text-anchor="middle" x="156.38" y="-417.05" font-family="Helvetica,sans-Serif" font-size="11.00" fill="white">AI Response</text>
<text xml:space="preserve" text-anchor="middle" x="156.38" y="-405.05" font-family="Helvetica,sans-Serif" font-size="11.00" fill="white">Cited?</text>
</g>
<!-- verify -->
<g id="node9" class="node">
<title>verify</title>
<path fill="#2d2d44" stroke="#4ecdc4" d="M88.75,-323.75C88.75,-323.75 12,-323.75 12,-323.75 6,-323.75 0,-317.75 0,-311.75 0,-311.75 0,-299.75 0,-299.75 0,-293.75 6,-287.75 12,-287.75 12,-287.75 88.75,-287.75 88.75,-287.75 94.75,-287.75 100.75,-293.75 100.75,-299.75 100.75,-299.75 100.75,-311.75 100.75,-311.75 100.75,-317.75 94.75,-323.75 88.75,-323.75"/>
<text xml:space="preserve" text-anchor="middle" x="50.38" y="-307.3" font-family="Helvetica,sans-Serif" font-size="11.00" fill="white">Verify Against</text>
<text xml:space="preserve" text-anchor="middle" x="50.38" y="-295.3" font-family="Helvetica,sans-Serif" font-size="11.00" fill="white">Manual/Database</text>
</g>
<!-- ai_confident&#45;&gt;verify -->
<g id="edge11" class="edge">
<title>ai_confident&#45;&gt;verify</title>
<path fill="none" stroke="#4ecdc4" d="M134.41,-392.18C116.7,-374.17 91.84,-348.9 73.76,-330.52"/>
<polygon fill="#4ecdc4" stroke="#4ecdc4" points="76.1,-328.91 68.49,-325.17 72.1,-332.83 76.1,-328.91"/>
<text xml:space="preserve" text-anchor="middle" x="121.95" y="-349.95" font-family="Helvetica,sans-Serif" font-size="9.00" fill="#888888">No citation</text>
</g>
<!-- test_small -->
<g id="node11" class="node">
<title>test_small</title>
<path fill="#2d2d44" stroke="#4ecdc4" d="M259.88,-228C259.88,-228 210.88,-228 210.88,-228 204.88,-228 198.88,-222 198.88,-216 198.88,-216 198.88,-204 198.88,-204 198.88,-198 204.88,-192 210.88,-192 210.88,-192 259.88,-192 259.88,-192 265.88,-192 271.88,-198 271.88,-204 271.88,-204 271.88,-216 271.88,-216 271.88,-222 265.88,-228 259.88,-228"/>
<text xml:space="preserve" text-anchor="middle" x="235.38" y="-211.55" font-family="Helvetica,sans-Serif" font-size="11.00" fill="white">Test on</text>
<text xml:space="preserve" text-anchor="middle" x="235.38" y="-199.55" font-family="Helvetica,sans-Serif" font-size="11.00" fill="white">Small Scale</text>
</g>
<!-- ai_confident&#45;&gt;test_small -->
<g id="edge12" class="edge">
<title>ai_confident&#45;&gt;test_small</title>
<path fill="none" stroke="#4ecdc4" d="M166.87,-387.48C182.14,-348.15 210.3,-275.6 225.32,-236.91"/>
<polygon fill="#4ecdc4" stroke="#4ecdc4" points="227.83,-238.17 228.12,-229.7 222.61,-236.14 227.83,-238.17"/>
<text xml:space="preserve" text-anchor="middle" x="229.02" y="-302.08" font-family="Helvetica,sans-Serif" font-size="9.00" fill="#888888">Has citation</text>
</g>
<!-- ask_advice -->
<g id="node8" class="node">
<title>ask_advice</title>
<path fill="#2d2d44" stroke="#4ecdc4" d="M192.12,-534.5C192.12,-534.5 120.62,-534.5 120.62,-534.5 114.62,-534.5 108.62,-528.5 108.62,-522.5 108.62,-522.5 108.62,-510.5 108.62,-510.5 108.62,-504.5 114.62,-498.5 120.62,-498.5 120.62,-498.5 192.12,-498.5 192.12,-498.5 198.12,-498.5 204.12,-504.5 204.12,-510.5 204.12,-510.5 204.12,-522.5 204.12,-522.5 204.12,-528.5 198.12,-534.5 192.12,-534.5"/>
<text xml:space="preserve" text-anchor="middle" x="156.38" y="-518.05" font-family="Helvetica,sans-Serif" font-size="11.00" fill="white">Ask for Strategic</text>
<text xml:space="preserve" text-anchor="middle" x="156.38" y="-506.05" font-family="Helvetica,sans-Serif" font-size="11.00" fill="white">Advice</text>
</g>
<!-- describe&#45;&gt;ask_advice -->
<g id="edge9" class="edge">
<title>describe&#45;&gt;ask_advice</title>
<path fill="none" stroke="#4ecdc4" d="M156.38,-585.3C156.38,-573.52 156.38,-557.64 156.38,-544.22"/>
<polygon fill="#4ecdc4" stroke="#4ecdc4" points="159.18,-544.49 156.38,-536.49 153.58,-544.49 159.18,-544.49"/>
</g>
<!-- implement -->
<g id="node10" class="node">
<title>implement</title>
<path fill="#2d2d44" stroke="#4ecdc4" d="M373.75,-132.25C373.75,-132.25 297,-132.25 297,-132.25 291,-132.25 285,-126.25 285,-120.25 285,-120.25 285,-108.25 285,-108.25 285,-102.25 291,-96.25 297,-96.25 297,-96.25 373.75,-96.25 373.75,-96.25 379.75,-96.25 385.75,-102.25 385.75,-108.25 385.75,-108.25 385.75,-120.25 385.75,-120.25 385.75,-126.25 379.75,-132.25 373.75,-132.25"/>
<text xml:space="preserve" text-anchor="middle" x="335.38" y="-115.8" font-family="Helvetica,sans-Serif" font-size="11.00" fill="white">Implement</text>
<text xml:space="preserve" text-anchor="middle" x="335.38" y="-103.8" font-family="Helvetica,sans-Serif" font-size="11.00" fill="white">Recommendation</text>
</g>
<!-- ask_quick&#45;&gt;implement -->
<g id="edge6" class="edge">
<title>ask_quick&#45;&gt;implement</title>
<path fill="none" stroke="#4ecdc4" d="M386.38,-838.11C386.38,-816.96 386.38,-780.18 386.38,-748.63 386.38,-748.63 386.38,-748.63 386.38,-209 386.38,-183.23 371.31,-157.78 357.56,-139.92"/>
<polygon fill="#4ecdc4" stroke="#4ecdc4" points="359.94,-138.4 352.74,-133.92 355.57,-141.91 359.94,-138.4"/>
<text xml:space="preserve" text-anchor="middle" x="401" y="-512.83" font-family="Helvetica,sans-Serif" font-size="9.00" fill="#888888">Act fast</text>
</g>
<!-- learn -->
<g id="node13" class="node">
<title>learn</title>
<ellipse fill="#2d4d2d" stroke="#95d5b2" cx="258.38" cy="-695.13" rx="61.16" ry="22.63"/>
<text xml:space="preserve" text-anchor="middle" x="258.38" y="-696.68" font-family="Helvetica,sans-Serif" font-size="11.00" fill="white">Update Your</text>
<text xml:space="preserve" text-anchor="middle" x="258.38" y="-684.68" font-family="Helvetica,sans-Serif" font-size="11.00" fill="white">Understanding</text>
</g>
<!-- ask_explain&#45;&gt;learn -->
<g id="edge7" class="edge">
<title>ask_explain&#45;&gt;learn</title>
<path fill="none" stroke="#4ecdc4" d="M254.25,-777.37C254.94,-763.66 255.94,-744.06 256.78,-727.55"/>
<polygon fill="#4ecdc4" stroke="#4ecdc4" points="259.56,-727.89 257.17,-719.76 253.97,-727.61 259.56,-727.89"/>
</g>
<!-- ask_advice&#45;&gt;ai_confident -->
<g id="edge10" class="edge">
<title>ask_advice&#45;&gt;ai_confident</title>
<path fill="none" stroke="#4ecdc4" d="M156.38,-498.26C156.38,-486.9 156.38,-471.52 156.38,-457.17"/>
<polygon fill="#4ecdc4" stroke="#4ecdc4" points="159.18,-457.45 156.38,-449.45 153.58,-457.45 159.18,-457.45"/>
</g>
<!-- verify&#45;&gt;ask_advice -->
<g id="edge13" class="edge">
<title>verify&#45;&gt;ask_advice</title>
<path fill="none" stroke="#4ecdc4" d="M39.28,-324.16C22.96,-352.2 -3.11,-408.2 21.12,-447.5 38.31,-475.38 70.81,-492.23 99.65,-502.18"/>
<polygon fill="#4ecdc4" stroke="#4ecdc4" points="98.54,-504.77 107.02,-504.59 100.28,-499.45 98.54,-504.77"/>
<text xml:space="preserve" text-anchor="middle" x="38.75" y="-411.83" font-family="Helvetica,sans-Serif" font-size="9.00" fill="#888888">Incorrect</text>
</g>
<!-- verify&#45;&gt;test_small -->
<g id="edge14" class="edge">
<title>verify&#45;&gt;test_small</title>
<path fill="none" stroke="#4ecdc4" d="M71.87,-287.35C85.98,-276.5 105.19,-262.77 123.62,-253 144.52,-241.93 169,-232.38 189.7,-225.2"/>
<polygon fill="#4ecdc4" stroke="#4ecdc4" points="190.52,-227.88 197.19,-222.66 188.71,-222.58 190.52,-227.88"/>
<text xml:space="preserve" text-anchor="middle" x="139" y="-254.2" font-family="Helvetica,sans-Serif" font-size="9.00" fill="#888888">Verified</text>
</g>
<!-- success -->
<g id="node12" class="node">
<title>success</title>
<ellipse fill="#2d4d2d" stroke="#95d5b2" cx="335.38" cy="-22.63" rx="42.07" ry="22.63"/>
<text xml:space="preserve" text-anchor="middle" x="335.38" y="-24.18" font-family="Helvetica,sans-Serif" font-size="11.00" fill="white">Continue</text>
<text xml:space="preserve" text-anchor="middle" x="335.38" y="-12.18" font-family="Helvetica,sans-Serif" font-size="11.00" fill="white">Playing</text>
</g>
<!-- implement&#45;&gt;success -->
<g id="edge17" class="edge">
<title>implement&#45;&gt;success</title>
<path fill="none" stroke="#4ecdc4" d="M335.38,-95.97C335.38,-84.32 335.38,-68.61 335.38,-54.8"/>
<polygon fill="#4ecdc4" stroke="#4ecdc4" points="338.18,-55.14 335.38,-47.14 332.58,-55.14 338.18,-55.14"/>
</g>
<!-- test_small&#45;&gt;ask_advice -->
<g id="edge16" class="edge">
<title>test_small&#45;&gt;ask_advice</title>
<path fill="none" stroke="#4ecdc4" d="M243.26,-228.46C260.6,-269.69 297.39,-375.04 256.38,-447.5 245.16,-467.32 225.5,-482.55 206.56,-493.52"/>
<polygon fill="#4ecdc4" stroke="#4ecdc4" points="205.21,-491.07 199.56,-497.39 207.92,-495.97 205.21,-491.07"/>
<text xml:space="preserve" text-anchor="middle" x="294.37" y="-349.95" font-family="Helvetica,sans-Serif" font-size="9.00" fill="#888888">Problems</text>
</g>
<!-- test_small&#45;&gt;implement -->
<g id="edge15" class="edge">
<title>test_small&#45;&gt;implement</title>
<path fill="none" stroke="#4ecdc4" d="M253.72,-191.81C269.55,-176.97 292.57,-155.39 310.13,-138.92"/>
<polygon fill="#4ecdc4" stroke="#4ecdc4" points="311.79,-141.21 315.71,-133.69 307.96,-137.12 311.79,-141.21"/>
<text xml:space="preserve" text-anchor="middle" x="301.12" y="-158.45" font-family="Helvetica,sans-Serif" font-size="9.00" fill="#888888">Works</text>
</g>
<!-- learn&#45;&gt;describe -->
<g id="edge8" class="edge">
<title>learn&#45;&gt;describe</title>
<path fill="none" stroke="#4ecdc4" d="M235.23,-673.79C219.73,-660.18 199.29,-642.21 183.1,-627.99"/>
<polygon fill="#4ecdc4" stroke="#4ecdc4" points="184.99,-625.92 177.13,-622.75 181.29,-630.13 184.99,-625.92"/>
</g>
</g>
</svg>
