<?xml version="1.0" encoding="UTF-8" standalone="no"?>
<!DOCTYPE svg PUBLIC "-//W3C//DTD SVG 1.1//EN"
 "http://www.w3.org/Graphics/SVG/1.1/DTD/svg11.dtd">
<!-- Generated by graphviz version 14.1.2 (20260124.0452)
 -->
<!-- Title: MineralDependencies Pages: 1 -->
<svg width="731pt" height="793pt"
 viewBox="0.00 0.00 731.00 793.00" xmlns="http://www.w3.org/2000/svg" xmlns:xlink="http://www.w3.org/1999/xlink">
<g id="graph0" class="graph" transform="scale(1 1) rotate(0) translate(4 789)">
<title>MineralDependencies</title>
<polygon fill="#1a1a2e" stroke="none" points="-4,4 -4,-789 727,-789 727,4 -4,4"/>
<g id="clust1" class="cluster">
<title>cluster_minerals</title>
<polygon fill="#1a1a2e" stroke="#4ecdc4" stroke-dasharray="5,2" points="359.5,-124 359.5,-777 515.75,-777 515.75,-124 359.5,-124"/>
<text xml:space="preserve" text-anchor="middle" x="437.62" y="-761.6" font-family="Helvetica,sans-Serif" font-size="12.00" fill="#95d5b2">Trans&#45;Newtonian Minerals</text>
</g>
<g id="clust2" class="cluster">
<title>cluster_installations</title>
<polygon fill="#1a1a2e" stroke="#4ecdc4" stroke-dasharray="5,2" points="585.75,-8 585.75,-777 719.5,-777 719.5,-8 585.75,-8"/>
<text xml:space="preserve" text-anchor="middle" x="652.62" y="-761.6" font-family="Helvetica,sans-Serif" font-size="12.00" fill="#95d5b2">Planetary Installations</text>
</g>
<!-- title -->
<g id="node1" class="node">
<title>title</title>
<path fill="none" stroke="none" d="M269.5,-226C269.5,-226 12,-226 12,-226 6,-226 0,-220 0,-214 0,-214 0,-202 0,-202 0,-196 6,-190 12,-190 12,-190 269.5,-190 269.5,-190 275.5,-190 281.5,-196 281.5,-202 281.5,-202 281.5,-214 281.5,-214 281.5,-220 275.5,-226 269.5,-226"/>
<text xml:space="preserve" text-anchor="middle" x="140.75" y="-201.05" font-family="Helvetica,sans-Serif" font-size="16.00" fill="#ffe66d">Mineral Dependencies by Installation</text>
</g>
<!-- duranium -->
<g id="node2" class="node">
<title>duranium</title>
<path fill="#442d2d" stroke="#ff6b6b" d="M454.12,-226C454.12,-226 420.12,-226 420.12,-226 414.12,-226 408.12,-220 408.12,-214 408.12,-214 408.12,-202 408.12,-202 408.12,-196 414.12,-190 420.12,-190 420.12,-190 454.12,-190 454.12,-190 460.12,-190 466.12,-196 466.12,-202 466.12,-202 466.12,-214 466.12,-214 466.12,-220 460.12,-226 454.12,-226"/>
<text xml:space="preserve" text-anchor="middle" x="437.12" y="-204.12" font-family="Helvetica,sans-Serif" font-size="10.00" fill="white">Duranium</text>
</g>
<!-- title&#45;&gt;duranium -->
<!-- infrastructure -->
<g id="node13" class="node">
<title>infrastructure</title>
<path fill="#2d2d44" stroke="#4ecdc4" d="M677,-226C677,-226 627.25,-226 627.25,-226 621.25,-226 615.25,-220 615.25,-214 615.25,-214 615.25,-202 615.25,-202 615.25,-196 621.25,-190 627.25,-190 627.25,-190 677,-190 677,-190 683,-190 689,-196 689,-202 689,-202 689,-214 689,-214 689,-220 683,-226 677,-226"/>
<text xml:space="preserve" text-anchor="middle" x="652.12" y="-209.75" font-family="Helvetica,sans-Serif" font-size="10.00" fill="white">Infrastructure</text>
<text xml:space="preserve" text-anchor="middle" x="652.12" y="-198.5" font-family="Helvetica,sans-Serif" font-size="10.00" fill="white">(2 BP)</text>
</g>
<!-- duranium&#45;&gt;infrastructure -->
<g id="edge1" class="edge">
<title>duranium&#45;&gt;infrastructure</title>
<path fill="none" stroke="#ff6b6b" stroke-width="2" d="M466.41,-208C500.92,-208 559.86,-208 601.88,-208"/>
<polygon fill="#ff6b6b" stroke="#ff6b6b" stroke-width="2" points="601.85,-211.5 611.85,-208 601.85,-204.5 601.85,-211.5"/>
</g>
<!-- maintenance -->
<g id="node14" class="node">
<title>maintenance</title>
<path fill="#2d2d44" stroke="#4ecdc4" d="M693.12,-52C693.12,-52 611.12,-52 611.12,-52 605.12,-52 599.12,-46 599.12,-40 599.12,-40 599.12,-28 599.12,-28 599.12,-22 605.12,-16 611.12,-16 611.12,-16 693.12,-16 693.12,-16 699.12,-16 705.12,-22 705.12,-28 705.12,-28 705.12,-40 705.12,-40 705.12,-46 699.12,-52 693.12,-52"/>
<text xml:space="preserve" text-anchor="middle" x="652.12" y="-35.75" font-family="Helvetica,sans-Serif" font-size="10.00" fill="white">Maintenance Facility</text>
<text xml:space="preserve" text-anchor="middle" x="652.12" y="-24.5" font-family="Helvetica,sans-Serif" font-size="10.00" fill="white">(60 BP)</text>
</g>
<!-- duranium&#45;&gt;maintenance -->
<g id="edge2" class="edge">
<title>duranium&#45;&gt;maintenance</title>
<path fill="none" stroke="#ff6b6b" stroke-width="3" d="M466.31,-202.32C482.17,-198.01 501.58,-190.76 515.75,-179 562.09,-140.55 540.59,-102.83 585.75,-63 586.89,-61.99 588.07,-61.02 589.29,-60.07"/>
<polygon fill="#ff6b6b" stroke="#ff6b6b" stroke-width="3" points="590.78,-63.28 597.18,-54.84 586.92,-57.44 590.78,-63.28"/>
</g>
<!-- construction -->
<g id="node16" class="node">
<title>construction</title>
<path fill="#2d2d44" stroke="#4ecdc4" d="M693.88,-110C693.88,-110 610.38,-110 610.38,-110 604.38,-110 598.38,-104 598.38,-98 598.38,-98 598.38,-86 598.38,-86 598.38,-80 604.38,-74 610.38,-74 610.38,-74 693.88,-74 693.88,-74 699.88,-74 705.88,-80 705.88,-86 705.88,-86 705.88,-98 705.88,-98 705.88,-104 699.88,-110 693.88,-110"/>
<text xml:space="preserve" text-anchor="middle" x="652.12" y="-93.75" font-family="Helvetica,sans-Serif" font-size="10.00" fill="white">Construction Factory</text>
<text xml:space="preserve" text-anchor="middle" x="652.12" y="-82.5" font-family="Helvetica,sans-Serif" font-size="10.00" fill="white">(120 BP)</text>
</g>
<!-- duranium&#45;&gt;construction -->
<g id="edge3" class="edge">
<title>duranium&#45;&gt;construction</title>
<path fill="none" stroke="#ff6b6b" stroke-width="3" d="M466.44,-199.95C481.62,-195.02 500.31,-187.94 515.75,-179 550.72,-158.76 551.41,-142.28 585.75,-121 587.95,-119.64 590.23,-118.3 592.55,-117"/>
<polygon fill="#ff6b6b" stroke="#ff6b6b" stroke-width="3" points="593.98,-120.2 601.25,-112.49 590.76,-113.99 593.98,-120.2"/>
</g>
<!-- terraform -->
<g id="node22" class="node">
<title>terraform</title>
<path fill="#2d2d44" stroke="#4ecdc4" d="M675.12,-342C675.12,-342 629.12,-342 629.12,-342 623.12,-342 617.12,-336 617.12,-330 617.12,-330 617.12,-318 617.12,-318 617.12,-312 623.12,-306 629.12,-306 629.12,-306 675.12,-306 675.12,-306 681.12,-306 687.12,-312 687.12,-318 687.12,-318 687.12,-330 687.12,-330 687.12,-336 681.12,-342 675.12,-342"/>
<text xml:space="preserve" text-anchor="middle" x="652.12" y="-325.75" font-family="Helvetica,sans-Serif" font-size="10.00" fill="white">Terraforming</text>
<text xml:space="preserve" text-anchor="middle" x="652.12" y="-314.5" font-family="Helvetica,sans-Serif" font-size="10.00" fill="white">(300 BP)</text>
</g>
<!-- duranium&#45;&gt;terraform -->
<g id="edge4" class="edge">
<title>duranium&#45;&gt;terraform</title>
<path fill="none" stroke="#ff6b6b" stroke-width="3" d="M466.44,-216.05C481.62,-220.98 500.31,-228.06 515.75,-237 550.72,-257.24 551.41,-273.72 585.75,-295 591.45,-298.53 597.66,-301.87 603.91,-304.93"/>
<polygon fill="#ff6b6b" stroke="#ff6b6b" stroke-width="3" points="601.96,-307.89 612.51,-308.9 604.9,-301.53 601.96,-307.89"/>
</g>
<!-- massdriver -->
<g id="node23" class="node">
<title>massdriver</title>
<path fill="#2d2d44" stroke="#4ecdc4" d="M674.75,-168C674.75,-168 629.5,-168 629.5,-168 623.5,-168 617.5,-162 617.5,-156 617.5,-156 617.5,-144 617.5,-144 617.5,-138 623.5,-132 629.5,-132 629.5,-132 674.75,-132 674.75,-132 680.75,-132 686.75,-138 686.75,-144 686.75,-144 686.75,-156 686.75,-156 686.75,-162 680.75,-168 674.75,-168"/>
<text xml:space="preserve" text-anchor="middle" x="652.12" y="-151.75" font-family="Helvetica,sans-Serif" font-size="10.00" fill="white">Mass Driver</text>
<text xml:space="preserve" text-anchor="middle" x="652.12" y="-140.5" font-family="Helvetica,sans-Serif" font-size="10.00" fill="white">(300 BP)</text>
</g>
<!-- duranium&#45;&gt;massdriver -->
<g id="edge5" class="edge">
<title>duranium&#45;&gt;massdriver</title>
<path fill="none" stroke="#ff6b6b" stroke-width="2" d="M466.41,-200.3C501.69,-190.69 562.49,-174.14 604.65,-162.66"/>
<polygon fill="#ff6b6b" stroke="#ff6b6b" stroke-width="2" points="605.44,-166.07 614.17,-160.06 603.6,-159.31 605.44,-166.07"/>
</g>
<!-- research -->
<g id="node25" class="node">
<title>research</title>
<path fill="#2d2d44" stroke="#4ecdc4" d="M686.38,-284C686.38,-284 617.88,-284 617.88,-284 611.88,-284 605.88,-278 605.88,-272 605.88,-272 605.88,-260 605.88,-260 605.88,-254 611.88,-248 617.88,-248 617.88,-248 686.38,-248 686.38,-248 692.38,-248 698.38,-254 698.38,-260 698.38,-260 698.38,-272 698.38,-272 698.38,-278 692.38,-284 686.38,-284"/>
<text xml:space="preserve" text-anchor="middle" x="652.12" y="-267.75" font-family="Helvetica,sans-Serif" font-size="10.00" fill="white">Research Facility</text>
<text xml:space="preserve" text-anchor="middle" x="652.12" y="-256.5" font-family="Helvetica,sans-Serif" font-size="10.00" fill="white">(2,400 BP)</text>
</g>
<!-- duranium&#45;&gt;research -->
<g id="edge6" class="edge">
<title>duranium&#45;&gt;research</title>
<path fill="none" stroke="#ff6b6b" stroke-width="4" d="M466.41,-215.7C497.85,-224.26 549.55,-238.34 590.28,-249.43"/>
<polygon fill="#ff6b6b" stroke="#ff6b6b" stroke-width="4" points="589.15,-252.75 599.72,-252 590.99,-246 589.15,-252.75"/>
</g>
<!-- neutronium -->
<g id="node3" class="node">
<title>neutronium</title>
<path fill="#44442d" stroke="#ffe66d" d="M458.25,-168C458.25,-168 416,-168 416,-168 410,-168 404,-162 404,-156 404,-156 404,-144 404,-144 404,-138 410,-132 416,-132 416,-132 458.25,-132 458.25,-132 464.25,-132 470.25,-138 470.25,-144 470.25,-144 470.25,-156 470.25,-156 470.25,-162 464.25,-168 458.25,-168"/>
<text xml:space="preserve" text-anchor="middle" x="437.12" y="-146.12" font-family="Helvetica,sans-Serif" font-size="10.00" fill="white">Neutronium</text>
</g>
<!-- neutronium&#45;&gt;maintenance -->
<g id="edge7" class="edge">
<title>neutronium&#45;&gt;maintenance</title>
<path fill="none" stroke="#ffe66d" stroke-width="3" d="M466.98,-131.66C496.34,-113.31 543.42,-84.77 585.75,-63 588.58,-61.55 591.49,-60.09 594.45,-58.66"/>
<polygon fill="#ffe66d" stroke="#ffe66d" stroke-width="3" points="595.87,-61.85 603.43,-54.43 592.89,-55.52 595.87,-61.85"/>
</g>
<!-- neutronium&#45;&gt;construction -->
<g id="edge8" class="edge">
<title>neutronium&#45;&gt;construction</title>
<path fill="none" stroke="#ffe66d" stroke-width="3" d="M470.48,-141.19C500.57,-133 546.35,-120.53 584.29,-110.2"/>
<polygon fill="#ffe66d" stroke="#ffe66d" stroke-width="3" points="585.03,-113.63 593.76,-107.62 583.19,-106.87 585.03,-113.63"/>
</g>
<!-- neutronium&#45;&gt;massdriver -->
<g id="edge9" class="edge">
<title>neutronium&#45;&gt;massdriver</title>
<path fill="none" stroke="#ffe66d" stroke-width="2" d="M470.48,-150C506.1,-150 563.71,-150 604.27,-150"/>
<polygon fill="#ffe66d" stroke="#ffe66d" stroke-width="2" points="604.03,-153.5 614.03,-150 604.03,-146.5 604.03,-153.5"/>
</g>
<!-- mercassium -->
<g id="node4" class="node">
<title>mercassium</title>
<path fill="#44442d" stroke="#ffe66d" d="M459.75,-284C459.75,-284 414.5,-284 414.5,-284 408.5,-284 402.5,-278 402.5,-272 402.5,-272 402.5,-260 402.5,-260 402.5,-254 408.5,-248 414.5,-248 414.5,-248 459.75,-248 459.75,-248 465.75,-248 471.75,-254 471.75,-260 471.75,-260 471.75,-272 471.75,-272 471.75,-278 465.75,-284 459.75,-284"/>
<text xml:space="preserve" text-anchor="middle" x="437.12" y="-262.12" font-family="Helvetica,sans-Serif" font-size="10.00" fill="white">Mercassium</text>
</g>
<!-- mercassium&#45;&gt;infrastructure -->
<g id="edge10" class="edge">
<title>mercassium&#45;&gt;infrastructure</title>
<path fill="none" stroke="#ffe66d" stroke-width="2" d="M471.88,-256.81C507.12,-247.21 562.74,-232.07 602.67,-221.19"/>
<polygon fill="#ffe66d" stroke="#ffe66d" stroke-width="2" points="603.39,-224.63 612.12,-218.62 601.55,-217.87 603.39,-224.63"/>
</g>
<!-- mercassium&#45;&gt;research -->
<g id="edge11" class="edge">
<title>mercassium&#45;&gt;research</title>
<path fill="none" stroke="#ffe66d" stroke-width="4" d="M471.88,-266C503.42,-266 551.27,-266 589.6,-266"/>
<polygon fill="#ffe66d" stroke="#ffe66d" stroke-width="4" points="589.59,-269.5 599.59,-266 589.59,-262.5 589.59,-269.5"/>
</g>
<!-- boronide -->
<g id="node5" class="node">
<title>boronide</title>
<path fill="#44442d" stroke="#ffe66d" d="M452.25,-342C452.25,-342 422,-342 422,-342 416,-342 410,-336 410,-330 410,-330 410,-318 410,-318 410,-312 416,-306 422,-306 422,-306 452.25,-306 452.25,-306 458.25,-306 464.25,-312 464.25,-318 464.25,-318 464.25,-330 464.25,-330 464.25,-336 458.25,-342 452.25,-342"/>
<text xml:space="preserve" text-anchor="middle" x="437.12" y="-320.12" font-family="Helvetica,sans-Serif" font-size="10.00" fill="white">Boronide</text>
</g>
<!-- refinery -->
<g id="node19" class="node">
<title>refinery</title>
<path fill="#2d2d44" stroke="#4ecdc4" d="M677.38,-400C677.38,-400 626.88,-400 626.88,-400 620.88,-400 614.88,-394 614.88,-388 614.88,-388 614.88,-376 614.88,-376 614.88,-370 620.88,-364 626.88,-364 626.88,-364 677.38,-364 677.38,-364 683.38,-364 689.38,-370 689.38,-376 689.38,-376 689.38,-388 689.38,-388 689.38,-394 683.38,-400 677.38,-400"/>
<text xml:space="preserve" text-anchor="middle" x="652.12" y="-383.75" font-family="Helvetica,sans-Serif" font-size="10.00" fill="white">Fuel Refinery</text>
<text xml:space="preserve" text-anchor="middle" x="652.12" y="-372.5" font-family="Helvetica,sans-Serif" font-size="10.00" fill="white">(120 BP)</text>
</g>
<!-- boronide&#45;&gt;refinery -->
<g id="edge12" class="edge">
<title>boronide&#45;&gt;refinery</title>
<path fill="none" stroke="#ffe66d" stroke-width="3" d="M464.67,-331.23C498.64,-340.48 558.17,-356.69 600.84,-368.31"/>
<polygon fill="#ffe66d" stroke="#ffe66d" stroke-width="3" points="599.65,-371.61 610.22,-370.86 601.49,-364.86 599.65,-371.61"/>
</g>
<!-- boronide&#45;&gt;terraform -->
<g id="edge13" class="edge">
<title>boronide&#45;&gt;terraform</title>
<path fill="none" stroke="#ffe66d" stroke-width="3" d="M464.67,-324C499.09,-324 559.76,-324 602.53,-324"/>
<polygon fill="#ffe66d" stroke="#ffe66d" stroke-width="3" points="602.29,-327.5 612.29,-324 602.29,-320.5 602.29,-327.5"/>
</g>
<!-- boronide&#45;&gt;massdriver -->
<g id="edge14" class="edge">
<title>boronide&#45;&gt;massdriver</title>
<path fill="none" stroke="#ffe66d" stroke-width="2" d="M464.47,-318.81C480.65,-314.57 501.03,-307.22 515.75,-295 562.09,-256.55 540.59,-218.83 585.75,-179 591.61,-173.83 598.53,-169.46 605.65,-165.79"/>
<polygon fill="#ffe66d" stroke="#ffe66d" stroke-width="2" points="606.88,-169.08 614.5,-161.71 603.95,-162.72 606.88,-169.08"/>
</g>
<!-- corundium -->
<g id="node6" class="node">
<title>corundium</title>
<path fill="#2d442d" stroke="#95d5b2" d="M456.75,-400C456.75,-400 417.5,-400 417.5,-400 411.5,-400 405.5,-394 405.5,-388 405.5,-388 405.5,-376 405.5,-376 405.5,-370 411.5,-364 417.5,-364 417.5,-364 456.75,-364 456.75,-364 462.75,-364 468.75,-370 468.75,-376 468.75,-376 468.75,-388 468.75,-388 468.75,-394 462.75,-400 456.75,-400"/>
<text xml:space="preserve" text-anchor="middle" x="437.12" y="-378.12" font-family="Helvetica,sans-Serif" font-size="10.00" fill="white">Corundium</text>
</g>
<!-- mine -->
<g id="node15" class="node">
<title>mine</title>
<path fill="#2d2d44" stroke="#4ecdc4" d="M667.25,-516C667.25,-516 637,-516 637,-516 631,-516 625,-510 625,-504 625,-504 625,-492 625,-492 625,-486 631,-480 637,-480 637,-480 667.25,-480 667.25,-480 673.25,-480 679.25,-486 679.25,-492 679.25,-492 679.25,-504 679.25,-504 679.25,-510 673.25,-516 667.25,-516"/>
<text xml:space="preserve" text-anchor="middle" x="652.12" y="-499.75" font-family="Helvetica,sans-Serif" font-size="10.00" fill="white">Mine</text>
<text xml:space="preserve" text-anchor="middle" x="652.12" y="-488.5" font-family="Helvetica,sans-Serif" font-size="10.00" fill="white">(120 BP)</text>
</g>
<!-- corundium&#45;&gt;mine -->
<g id="edge15" class="edge">
<title>corundium&#45;&gt;mine</title>
<path fill="none" stroke="#95d5b2" stroke-width="3" d="M469.04,-390.91C483.72,-395.79 501.18,-402.57 515.75,-411 550.72,-431.24 551.41,-447.72 585.75,-469 593.72,-473.94 602.67,-478.48 611.33,-482.44"/>
<polygon fill="#95d5b2" stroke="#95d5b2" stroke-width="3" points="609.79,-485.58 620.35,-486.34 612.56,-479.16 609.79,-485.58"/>
</g>
<!-- automine -->
<g id="node21" class="node">
<title>automine</title>
<path fill="#2d2d44" stroke="#4ecdc4" d="M683.75,-458C683.75,-458 620.5,-458 620.5,-458 614.5,-458 608.5,-452 608.5,-446 608.5,-446 608.5,-434 608.5,-434 608.5,-428 614.5,-422 620.5,-422 620.5,-422 683.75,-422 683.75,-422 689.75,-422 695.75,-428 695.75,-434 695.75,-434 695.75,-446 695.75,-446 695.75,-452 689.75,-458 683.75,-458"/>
<text xml:space="preserve" text-anchor="middle" x="652.12" y="-441.75" font-family="Helvetica,sans-Serif" font-size="10.00" fill="white">Automated Mine</text>
<text xml:space="preserve" text-anchor="middle" x="652.12" y="-430.5" font-family="Helvetica,sans-Serif" font-size="10.00" fill="white">(240 BP)</text>
</g>
<!-- corundium&#45;&gt;automine -->
<g id="edge16" class="edge">
<title>corundium&#45;&gt;automine</title>
<path fill="none" stroke="#95d5b2" stroke-width="3" d="M469.1,-390.43C501.85,-399.35 554.23,-413.61 594.41,-424.56"/>
<polygon fill="#95d5b2" stroke="#95d5b2" stroke-width="3" points="593.38,-427.9 603.95,-427.15 595.22,-421.15 593.38,-427.9"/>
</g>
<!-- vendarite -->
<g id="node7" class="node">
<title>vendarite</title>
<path fill="#2d442d" stroke="#95d5b2" d="M453.75,-458C453.75,-458 420.5,-458 420.5,-458 414.5,-458 408.5,-452 408.5,-446 408.5,-446 408.5,-434 408.5,-434 408.5,-428 414.5,-422 420.5,-422 420.5,-422 453.75,-422 453.75,-422 459.75,-422 465.75,-428 465.75,-434 465.75,-434 465.75,-446 465.75,-446 465.75,-452 459.75,-458 453.75,-458"/>
<text xml:space="preserve" text-anchor="middle" x="437.12" y="-436.12" font-family="Helvetica,sans-Serif" font-size="10.00" fill="white">Vendarite</text>
</g>
<!-- fighter -->
<g id="node18" class="node">
<title>fighter</title>
<path fill="#2d2d44" stroke="#4ecdc4" d="M681.12,-574C681.12,-574 623.12,-574 623.12,-574 617.12,-574 611.12,-568 611.12,-562 611.12,-562 611.12,-550 611.12,-550 611.12,-544 617.12,-538 623.12,-538 623.12,-538 681.12,-538 681.12,-538 687.12,-538 693.12,-544 693.12,-550 693.12,-550 693.12,-562 693.12,-562 693.12,-568 687.12,-574 681.12,-574"/>
<text xml:space="preserve" text-anchor="middle" x="652.12" y="-557.75" font-family="Helvetica,sans-Serif" font-size="10.00" fill="white">Fighter Factory</text>
<text xml:space="preserve" text-anchor="middle" x="652.12" y="-546.5" font-family="Helvetica,sans-Serif" font-size="10.00" fill="white">(120 BP)</text>
</g>
<!-- vendarite&#45;&gt;fighter -->
<g id="edge17" class="edge">
<title>vendarite&#45;&gt;fighter</title>
<path fill="none" stroke="#95d5b2" stroke-width="3" d="M466.08,-447.93C481.31,-452.87 500.19,-459.99 515.75,-469 550.72,-489.24 551.41,-505.72 585.75,-527 589.66,-529.42 593.8,-531.75 598.03,-533.95"/>
<polygon fill="#95d5b2" stroke="#95d5b2" stroke-width="3" points="596.22,-536.97 606.74,-538.21 599.29,-530.68 596.22,-536.97"/>
</g>
<!-- gfcc -->
<g id="node24" class="node">
<title>gfcc</title>
<path fill="#2d2d44" stroke="#4ecdc4" d="M695,-632C695,-632 609.25,-632 609.25,-632 603.25,-632 597.25,-626 597.25,-620 597.25,-620 597.25,-608 597.25,-608 597.25,-602 603.25,-596 609.25,-596 609.25,-596 695,-596 695,-596 701,-596 707,-602 707,-608 707,-608 707,-620 707,-620 707,-626 701,-632 695,-632"/>
<text xml:space="preserve" text-anchor="middle" x="652.12" y="-615.75" font-family="Helvetica,sans-Serif" font-size="10.00" fill="white">Ground Force Constr.</text>
<text xml:space="preserve" text-anchor="middle" x="652.12" y="-604.5" font-family="Helvetica,sans-Serif" font-size="10.00" fill="white">(2,400 BP)</text>
</g>
<!-- vendarite&#45;&gt;gfcc -->
<g id="edge18" class="edge">
<title>vendarite&#45;&gt;gfcc</title>
<path fill="none" stroke="#95d5b2" stroke-width="4" d="M465.94,-445.58C481.87,-449.88 501.47,-457.15 515.75,-469 562.09,-507.45 540.59,-545.17 585.75,-585 586.46,-585.63 587.19,-586.25 587.93,-586.85"/>
<polygon fill="#95d5b2" stroke="#95d5b2" stroke-width="4" points="585.71,-589.57 595.96,-592.28 589.64,-583.78 585.71,-589.57"/>
</g>
<!-- tritanium -->
<g id="node8" class="node">
<title>tritanium</title>
<path fill="#2d442d" stroke="#95d5b2" d="M453.38,-516C453.38,-516 420.88,-516 420.88,-516 414.88,-516 408.88,-510 408.88,-504 408.88,-504 408.88,-492 408.88,-492 408.88,-486 414.88,-480 420.88,-480 420.88,-480 453.38,-480 453.38,-480 459.38,-480 465.38,-486 465.38,-492 465.38,-492 465.38,-504 465.38,-504 465.38,-510 459.38,-516 453.38,-516"/>
<text xml:space="preserve" text-anchor="middle" x="437.12" y="-494.12" font-family="Helvetica,sans-Serif" font-size="10.00" fill="white">Tritanium</text>
</g>
<!-- ordnance -->
<g id="node17" class="node">
<title>ordnance</title>
<path fill="#2d2d44" stroke="#4ecdc4" d="M687.12,-690C687.12,-690 617.12,-690 617.12,-690 611.12,-690 605.12,-684 605.12,-678 605.12,-678 605.12,-666 605.12,-666 605.12,-660 611.12,-654 617.12,-654 617.12,-654 687.12,-654 687.12,-654 693.12,-654 699.12,-660 699.12,-666 699.12,-666 699.12,-678 699.12,-678 699.12,-684 693.12,-690 687.12,-690"/>
<text xml:space="preserve" text-anchor="middle" x="652.12" y="-673.75" font-family="Helvetica,sans-Serif" font-size="10.00" fill="white">Ordnance Factory</text>
<text xml:space="preserve" text-anchor="middle" x="652.12" y="-662.5" font-family="Helvetica,sans-Serif" font-size="10.00" fill="white">(120 BP)</text>
</g>
<!-- tritanium&#45;&gt;ordnance -->
<g id="edge19" class="edge">
<title>tritanium&#45;&gt;ordnance</title>
<path fill="none" stroke="#95d5b2" stroke-width="3" d="M465.57,-503.48C481.57,-507.76 501.36,-515.06 515.75,-527 562.09,-565.45 540.59,-603.17 585.75,-643 587.85,-644.85 590.08,-646.59 592.41,-648.24"/>
<polygon fill="#95d5b2" stroke="#95d5b2" stroke-width="3" points="590.42,-651.13 600.79,-653.34 594.06,-645.15 590.42,-651.13"/>
</g>
<!-- corbomite -->
<g id="node9" class="node">
<title>corbomite</title>
<path fill="#2d442d" stroke="#95d5b2" d="M455.62,-574C455.62,-574 418.62,-574 418.62,-574 412.62,-574 406.62,-568 406.62,-562 406.62,-562 406.62,-550 406.62,-550 406.62,-544 412.62,-538 418.62,-538 418.62,-538 455.62,-538 455.62,-538 461.62,-538 467.62,-544 467.62,-550 467.62,-550 467.62,-562 467.62,-562 467.62,-568 461.62,-574 455.62,-574"/>
<text xml:space="preserve" text-anchor="middle" x="437.12" y="-552.12" font-family="Helvetica,sans-Serif" font-size="10.00" fill="white">Corbomite</text>
</g>
<!-- financial -->
<g id="node20" class="node">
<title>financial</title>
<path fill="#2d2d44" stroke="#4ecdc4" d="M683.75,-748C683.75,-748 620.5,-748 620.5,-748 614.5,-748 608.5,-742 608.5,-736 608.5,-736 608.5,-724 608.5,-724 608.5,-718 614.5,-712 620.5,-712 620.5,-712 683.75,-712 683.75,-712 689.75,-712 695.75,-718 695.75,-724 695.75,-724 695.75,-736 695.75,-736 695.75,-742 689.75,-748 683.75,-748"/>
<text xml:space="preserve" text-anchor="middle" x="652.12" y="-731.75" font-family="Helvetica,sans-Serif" font-size="10.00" fill="white">Financial Centre</text>
<text xml:space="preserve" text-anchor="middle" x="652.12" y="-720.5" font-family="Helvetica,sans-Serif" font-size="10.00" fill="white">(120 BP)</text>
</g>
<!-- corbomite&#45;&gt;financial -->
<g id="edge20" class="edge">
<title>corbomite&#45;&gt;financial</title>
<path fill="none" stroke="#95d5b2" stroke-width="3" d="M467.81,-562.09C483.38,-566.45 502.02,-573.61 515.75,-585 562.09,-623.45 540.59,-661.17 585.75,-701 588.81,-703.69 592.15,-706.17 595.66,-708.45"/>
<polygon fill="#95d5b2" stroke="#95d5b2" stroke-width="3" points="593.67,-711.35 604.11,-713.2 597.11,-705.25 593.67,-711.35"/>
</g>
<!-- sorium -->
<g id="node10" class="node">
<title>sorium</title>
<path fill="#2d3d44" stroke="#4ecdc4" d="M452.12,-632C452.12,-632 422.12,-632 422.12,-632 416.12,-632 410.12,-626 410.12,-620 410.12,-620 410.12,-608 410.12,-608 410.12,-602 416.12,-596 422.12,-596 422.12,-596 452.12,-596 452.12,-596 458.12,-596 464.12,-602 464.12,-608 464.12,-608 464.12,-620 464.12,-620 464.12,-626 458.12,-632 452.12,-632"/>
<text xml:space="preserve" text-anchor="middle" x="437.12" y="-615.75" font-family="Helvetica,sans-Serif" font-size="10.00" fill="white">Sorium</text>
<text xml:space="preserve" text-anchor="middle" x="437.12" y="-604.5" font-family="Helvetica,sans-Serif" font-size="10.00" fill="white">(&#45;&gt; Fuel)</text>
</g>
<!-- uridium -->
<g id="node11" class="node">
<title>uridium</title>
<path fill="#2d3d44" stroke="#4ecdc4" d="M452.12,-690C452.12,-690 422.12,-690 422.12,-690 416.12,-690 410.12,-684 410.12,-678 410.12,-678 410.12,-666 410.12,-666 410.12,-660 416.12,-654 422.12,-654 422.12,-654 452.12,-654 452.12,-654 458.12,-654 464.12,-660 464.12,-666 464.12,-666 464.12,-678 464.12,-678 464.12,-684 458.12,-690 452.12,-690"/>
<text xml:space="preserve" text-anchor="middle" x="437.12" y="-668.12" font-family="Helvetica,sans-Serif" font-size="10.00" fill="white">Uridium</text>
</g>
<!-- gallicite -->
<g id="node12" class="node">
<title>gallicite</title>
<path fill="#2d3d44" stroke="#4ecdc4" d="M452.12,-748C452.12,-748 422.12,-748 422.12,-748 416.12,-748 410.12,-742 410.12,-736 410.12,-736 410.12,-724 410.12,-724 410.12,-718 416.12,-712 422.12,-712 422.12,-712 452.12,-712 452.12,-712 458.12,-712 464.12,-718 464.12,-724 464.12,-724 464.12,-736 464.12,-736 464.12,-742 458.12,-748 452.12,-748"/>
<text xml:space="preserve" text-anchor="middle" x="437.12" y="-726.12" font-family="Helvetica,sans-Serif" font-size="10.00" fill="white">Gallicite</text>
</g>
<!-- legend -->
<g id="node26" class="node">
<title>legend</title>
<path fill="none" stroke="none" d="M197.88,-344.12C197.88,-344.12 83.62,-344.12 83.62,-344.12 77.62,-344.12 71.62,-338.12 71.62,-332.12 71.62,-332.12 71.62,-259.88 71.62,-259.88 71.62,-253.88 77.62,-247.88 83.62,-247.88 83.62,-247.88 197.88,-247.88 197.88,-247.88 203.88,-247.88 209.88,-253.88 209.88,-259.88 209.88,-259.88 209.88,-332.12 209.88,-332.12 209.88,-338.12 203.88,-344.12 197.88,-344.12"/>
<text xml:space="preserve" text-anchor="start" x="87.5" y="-327.62" font-family="Helvetica,sans-Serif" font-weight="bold" font-size="10.00" fill="white">Line Weight = Quantity</text>
<polygon fill="#ff6b6b" stroke="none" points="81.62,-305.62 81.62,-320.88 101.62,-320.88 101.62,-305.62 81.62,-305.62"/>
<text xml:space="preserve" text-anchor="start" x="105.62" y="-309.38" font-family="Helvetica,sans-Serif" font-size="10.00" fill="white">High demand mineral</text>
<polygon fill="#ffe66d" stroke="none" points="81.62,-288.38 81.62,-303.62 101.62,-303.62 101.62,-288.38 81.62,-288.38"/>
<text xml:space="preserve" text-anchor="start" x="105.62" y="-292.12" font-family="Helvetica,sans-Serif" font-size="10.00" fill="white">Medium demand</text>
<polygon fill="#95d5b2" stroke="none" points="81.62,-271.12 81.62,-286.38 101.62,-286.38 101.62,-271.12 81.62,-271.12"/>
<text xml:space="preserve" text-anchor="start" x="105.62" y="-274.88" font-family="Helvetica,sans-Serif" font-size="10.00" fill="white">Specialized use</text>
<polygon fill="#4ecdc4" stroke="none" points="81.62,-253.88 81.62,-269.12 101.62,-269.12 101.62,-253.88 81.62,-253.88"/>
<text xml:space="preserve" text-anchor="start" x="105.62" y="-257.62" font-family="Helvetica,sans-Serif" font-size="10.00" fill="white">Limited/Ship&#45;only</text>
</g>
</g>
</svg>
