<?xml version="1.0" encoding="UTF-8" standalone="no"?>
<!DOCTYPE svg PUBLIC "-//W3C//DTD SVG 1.1//EN"
 "http://www.w3.org/Graphics/SVG/1.1/DTD/svg11.dtd">
<!-- Generated by graphviz version 14.1.2 (20260124.0452)
 -->
<!-- Title: diplomatic_points_flow Pages: 1 -->
<svg width="1407pt" height="515pt"
 viewBox="0.00 0.00 1407.00 515.00" xmlns="http://www.w3.org/2000/svg" xmlns:xlink="http://www.w3.org/1999/xlink">
<g id="graph0" class="graph" transform="scale(1 1) rotate(0) translate(4 510.98)">
<title>diplomatic_points_flow</title>
<polygon fill="#1a1a2e" stroke="none" points="-4,4 -4,-510.98 1403,-510.98 1403,4 -4,4"/>
<text xml:space="preserve" text-anchor="start" x="593.38" y="-488.78" font-family="Times,serif" font-weight="bold" font-size="16.00" fill="white">Diplomatic Points Flow System</text>
<g id="clust1" class="cluster">
<title>cluster_center</title>
</g>
<g id="clust2" class="cluster">
<title>cluster_positive</title>
<polygon fill="#1a1a2e" stroke="#95d5b2" stroke-dasharray="5,2" points="8,-387.73 8,-472.23 809,-472.23 809,-387.73 8,-387.73"/>
<text xml:space="preserve" text-anchor="start" x="361.62" y="-455.93" font-family="Times,serif" font-weight="bold" font-size="14.00" fill="#95d5b2">Positive Sources</text>
</g>
<g id="clust3" class="cluster">
<title>cluster_negative</title>
<polygon fill="#1a1a2e" stroke="#ff6b6b" stroke-dasharray="5,2" points="528,-288.73 528,-365.23 1391,-365.23 1391,-288.73 528,-288.73"/>
<text xml:space="preserve" text-anchor="start" x="910" y="-348.93" font-family="Times,serif" font-weight="bold" font-size="14.00" fill="#ff6b6b">Negative Sources</text>
</g>
<g id="clust4" class="cluster">
<title>cluster_decay</title>
<polygon fill="#1a1a2e" stroke="#ffe66d" stroke-dasharray="5,2" points="643,-8 643,-92.5 955,-92.5 955,-8 643,-8"/>
<text xml:space="preserve" text-anchor="start" x="758.5" y="-76.2" font-family="Times,serif" font-weight="bold" font-size="14.00" fill="#ffe66d">Passive Decay</text>
</g>
<!-- diplomatic_points -->
<g id="node1" class="node">
<title>diplomatic_points</title>
<ellipse fill="#4ecdc4" stroke="#4ecdc4" cx="800" cy="-159.36" rx="72" ry="31.11"/>
<text xml:space="preserve" text-anchor="middle" x="800" y="-166.91" font-family="Helvetica,sans-Serif" font-size="11.00" fill="#1a1a2e">Diplomatic</text>
<text xml:space="preserve" text-anchor="middle" x="800" y="-154.91" font-family="Helvetica,sans-Serif" font-size="11.00" fill="#1a1a2e">Points</text>
<text xml:space="preserve" text-anchor="middle" x="800" y="-142.91" font-family="Helvetica,sans-Serif" font-size="11.00" fill="#1a1a2e">(&#45;100 to +100+)</text>
</g>
<!-- pos_decay -->
<g id="node16" class="node">
<title>pos_decay</title>
<path fill="#4d4d2d" stroke="#4ecdc4" d="M772.88,-60C772.88,-60 663.12,-60 663.12,-60 657.12,-60 651.12,-54 651.12,-48 651.12,-48 651.12,-28 651.12,-28 651.12,-22 657.12,-16 663.12,-16 663.12,-16 772.88,-16 772.88,-16 778.88,-16 784.88,-22 784.88,-28 784.88,-28 784.88,-48 784.88,-48 784.88,-54 778.88,-60 772.88,-60"/>
<text xml:space="preserve" text-anchor="middle" x="718" y="-45.55" font-family="Helvetica,sans-Serif" font-size="11.00" fill="white">Positive Decay</text>
<text xml:space="preserve" text-anchor="middle" x="718" y="-33.55" font-family="Helvetica,sans-Serif" font-size="11.00" fill="white">Rate = Xenophobia</text>
<text xml:space="preserve" text-anchor="middle" x="718" y="-21.55" font-family="Helvetica,sans-Serif" font-size="11.00" fill="white">(High xeno = fast decay)</text>
</g>
<!-- diplomatic_points&#45;&gt;pos_decay -->
<g id="edge16" class="edge">
<title>diplomatic_points&#45;&gt;pos_decay</title>
<path fill="none" stroke="#ffe66d" stroke-dasharray="5,2" d="M765.92,-131.52C765.92,-131.52 765.92,-71.96 765.92,-71.96"/>
<polygon fill="#ffe66d" stroke="#ffe66d" points="769.42,-71.96 765.92,-61.96 762.42,-71.96 769.42,-71.96"/>
<text xml:space="preserve" text-anchor="middle" x="733.75" y="-101.7" font-family="Helvetica,sans-Serif" font-size="9.00" fill="white">if &gt; 0</text>
</g>
<!-- neg_decay -->
<g id="node17" class="node">
<title>neg_decay</title>
<path fill="#4d4d2d" stroke="#4ecdc4" d="M935.12,-60C935.12,-60 814.88,-60 814.88,-60 808.88,-60 802.88,-54 802.88,-48 802.88,-48 802.88,-28 802.88,-28 802.88,-22 808.88,-16 814.88,-16 814.88,-16 935.12,-16 935.12,-16 941.12,-16 947.12,-22 947.12,-28 947.12,-28 947.12,-48 947.12,-48 947.12,-54 941.12,-60 935.12,-60"/>
<text xml:space="preserve" text-anchor="middle" x="875" y="-45.55" font-family="Helvetica,sans-Serif" font-size="11.00" fill="white">Negative Decay</text>
<text xml:space="preserve" text-anchor="middle" x="875" y="-33.55" font-family="Helvetica,sans-Serif" font-size="11.00" fill="white">Rate = 100 &#45; Xenophobia</text>
<text xml:space="preserve" text-anchor="middle" x="875" y="-21.55" font-family="Helvetica,sans-Serif" font-size="11.00" fill="white">(Low xeno = fast recovery)</text>
</g>
<!-- diplomatic_points&#45;&gt;neg_decay -->
<g id="edge17" class="edge">
<title>diplomatic_points&#45;&gt;neg_decay</title>
<path fill="none" stroke="#ffe66d" stroke-dasharray="5,2" d="M825.92,-129.98C825.92,-129.98 825.92,-71.78 825.92,-71.78"/>
<polygon fill="#ffe66d" stroke="#ffe66d" points="829.42,-71.78 825.92,-61.78 822.42,-71.78 829.42,-71.78"/>
<text xml:space="preserve" text-anchor="middle" x="839.75" y="-101.7" font-family="Helvetica,sans-Serif" font-size="9.00" fill="white">if &lt; 0</text>
</g>
<!-- active_diplomacy -->
<g id="node2" class="node">
<title>active_diplomacy</title>
<path fill="#2d4d3d" stroke="#4ecdc4" d="M125.5,-439.73C125.5,-439.73 28.5,-439.73 28.5,-439.73 22.5,-439.73 16.5,-433.73 16.5,-427.73 16.5,-427.73 16.5,-407.73 16.5,-407.73 16.5,-401.73 22.5,-395.73 28.5,-395.73 28.5,-395.73 125.5,-395.73 125.5,-395.73 131.5,-395.73 137.5,-401.73 137.5,-407.73 137.5,-407.73 137.5,-427.73 137.5,-427.73 137.5,-433.73 131.5,-439.73 125.5,-439.73"/>
<text xml:space="preserve" text-anchor="middle" x="77" y="-425.28" font-family="Helvetica,sans-Serif" font-size="11.00" fill="white">Active Diplomacy</text>
<text xml:space="preserve" text-anchor="middle" x="77" y="-413.28" font-family="Helvetica,sans-Serif" font-size="11.00" fill="white">((Bonus x 4)+1) x 100</text>
<text xml:space="preserve" text-anchor="middle" x="77" y="-401.28" font-family="Helvetica,sans-Serif" font-size="11.00" fill="white">x (1 &#45; Xeno/100)/yr</text>
</g>
<!-- active_diplomacy&#45;&gt;diplomatic_points -->
<g id="edge1" class="edge">
<title>active_diplomacy&#45;&gt;diplomatic_points</title>
<path fill="none" stroke="#95d5b2" d="M77,-395.28C77,-330.69 77,-149 77,-149 77,-149 720.14,-149 720.14,-149"/>
<polygon fill="#95d5b2" stroke="#95d5b2" points="720.14,-152.5 730.14,-149 720.14,-145.5 720.14,-152.5"/>
<text xml:space="preserve" text-anchor="middle" x="124.12" y="-311.05" font-family="Helvetica,sans-Serif" font-size="9.00" fill="white"> </text>
</g>
<!-- trade_treaty -->
<g id="node3" class="node">
<title>trade_treaty</title>
<path fill="#2d4d3d" stroke="#4ecdc4" d="M222.12,-435.73C222.12,-435.73 167.88,-435.73 167.88,-435.73 161.88,-435.73 155.88,-429.73 155.88,-423.73 155.88,-423.73 155.88,-411.73 155.88,-411.73 155.88,-405.73 161.88,-399.73 167.88,-399.73 167.88,-399.73 222.12,-399.73 222.12,-399.73 228.12,-399.73 234.12,-405.73 234.12,-411.73 234.12,-411.73 234.12,-423.73 234.12,-423.73 234.12,-429.73 228.12,-435.73 222.12,-435.73"/>
<text xml:space="preserve" text-anchor="middle" x="195" y="-419.28" font-family="Helvetica,sans-Serif" font-size="11.00" fill="white">Trade Treaty</text>
<text xml:space="preserve" text-anchor="middle" x="195" y="-407.28" font-family="Helvetica,sans-Serif" font-size="11.00" fill="white">100 pts/yr</text>
</g>
<!-- xeno_modifier -->
<g id="node18" class="node">
<title>xeno_modifier</title>
<path fill="#ffe66d" stroke="#4ecdc4" d="M421.32,-353.25C421.32,-353.25 356.93,-320.2 356.93,-320.2 351.59,-317.46 351.59,-311.99 356.93,-309.25 356.93,-309.25 421.32,-276.2 421.32,-276.2 426.66,-273.46 437.34,-273.46 442.68,-276.2 442.68,-276.2 507.07,-309.25 507.07,-309.25 512.41,-311.99 512.41,-317.46 507.07,-320.2 507.07,-320.2 442.68,-353.25 442.68,-353.25 437.34,-355.99 426.66,-355.99 421.32,-353.25"/>
<text xml:space="preserve" text-anchor="middle" x="432" y="-322.28" font-family="Helvetica,sans-Serif" font-size="11.00" fill="#1a1a2e">Xenophobia</text>
<text xml:space="preserve" text-anchor="middle" x="432" y="-310.28" font-family="Helvetica,sans-Serif" font-size="11.00" fill="#1a1a2e">Modifier</text>
<text xml:space="preserve" text-anchor="middle" x="432" y="-298.28" font-family="Helvetica,sans-Serif" font-size="11.00" fill="#1a1a2e">(1 &#45; Xeno/100)</text>
</g>
<!-- trade_treaty&#45;&gt;xeno_modifier -->
<g id="edge2" class="edge">
<title>trade_treaty&#45;&gt;xeno_modifier</title>
<path fill="none" stroke="#95d5b2" d="M195,-399.36C195,-369.81 195,-315 195,-315 195,-315 334.25,-315 334.25,-315"/>
<polygon fill="#95d5b2" stroke="#95d5b2" points="334.25,-318.5 344.25,-315 334.25,-311.5 334.25,-318.5"/>
</g>
<!-- geo_treaty -->
<g id="node4" class="node">
<title>geo_treaty</title>
<path fill="#2d4d3d" stroke="#4ecdc4" d="M347.38,-435.73C347.38,-435.73 264.62,-435.73 264.62,-435.73 258.62,-435.73 252.62,-429.73 252.62,-423.73 252.62,-423.73 252.62,-411.73 252.62,-411.73 252.62,-405.73 258.62,-399.73 264.62,-399.73 264.62,-399.73 347.38,-399.73 347.38,-399.73 353.38,-399.73 359.38,-405.73 359.38,-411.73 359.38,-411.73 359.38,-423.73 359.38,-423.73 359.38,-429.73 353.38,-435.73 347.38,-435.73"/>
<text xml:space="preserve" text-anchor="middle" x="306" y="-419.28" font-family="Helvetica,sans-Serif" font-size="11.00" fill="white">Geo Survey Treaty</text>
<text xml:space="preserve" text-anchor="middle" x="306" y="-407.28" font-family="Helvetica,sans-Serif" font-size="11.00" fill="white">100 pts/yr</text>
</g>
<!-- geo_treaty&#45;&gt;xeno_modifier -->
<g id="edge3" class="edge">
<title>geo_treaty&#45;&gt;xeno_modifier</title>
<path fill="none" stroke="#95d5b2" d="M352.81,-399.31C352.81,-399.31 352.81,-329.96 352.81,-329.96"/>
<polygon fill="#95d5b2" stroke="#95d5b2" points="356.31,-329.96 352.81,-319.96 349.31,-329.96 356.31,-329.96"/>
</g>
<!-- grav_treaty -->
<g id="node5" class="node">
<title>grav_treaty</title>
<path fill="#2d4d3d" stroke="#4ecdc4" d="M474.88,-435.73C474.88,-435.73 389.12,-435.73 389.12,-435.73 383.12,-435.73 377.12,-429.73 377.12,-423.73 377.12,-423.73 377.12,-411.73 377.12,-411.73 377.12,-405.73 383.12,-399.73 389.12,-399.73 389.12,-399.73 474.88,-399.73 474.88,-399.73 480.88,-399.73 486.88,-405.73 486.88,-411.73 486.88,-411.73 486.88,-423.73 486.88,-423.73 486.88,-429.73 480.88,-435.73 474.88,-435.73"/>
<text xml:space="preserve" text-anchor="middle" x="432" y="-419.28" font-family="Helvetica,sans-Serif" font-size="11.00" fill="white">Grav Survey Treaty</text>
<text xml:space="preserve" text-anchor="middle" x="432" y="-407.28" font-family="Helvetica,sans-Serif" font-size="11.00" fill="white">100 pts/yr</text>
</g>
<!-- grav_treaty&#45;&gt;xeno_modifier -->
<g id="edge4" class="edge">
<title>grav_treaty&#45;&gt;xeno_modifier</title>
<path fill="none" stroke="#95d5b2" d="M432,-399.31C432,-399.31 432,-370.6 432,-370.6"/>
<polygon fill="#95d5b2" stroke="#95d5b2" points="435.5,-370.6 432,-360.6 428.5,-370.6 435.5,-370.6"/>
</g>
<!-- research_treaty -->
<g id="node6" class="node">
<title>research_treaty</title>
<path fill="#2d4d3d" stroke="#4ecdc4" d="M589.12,-435.73C589.12,-435.73 516.88,-435.73 516.88,-435.73 510.88,-435.73 504.88,-429.73 504.88,-423.73 504.88,-423.73 504.88,-411.73 504.88,-411.73 504.88,-405.73 510.88,-399.73 516.88,-399.73 516.88,-399.73 589.12,-399.73 589.12,-399.73 595.12,-399.73 601.12,-405.73 601.12,-411.73 601.12,-411.73 601.12,-423.73 601.12,-423.73 601.12,-429.73 595.12,-435.73 589.12,-435.73"/>
<text xml:space="preserve" text-anchor="middle" x="553" y="-419.28" font-family="Helvetica,sans-Serif" font-size="11.00" fill="white">Research Treaty</text>
<text xml:space="preserve" text-anchor="middle" x="553" y="-407.28" font-family="Helvetica,sans-Serif" font-size="11.00" fill="white">200 pts/yr</text>
</g>
<!-- research_treaty&#45;&gt;xeno_modifier -->
<g id="edge5" class="edge">
<title>research_treaty&#45;&gt;xeno_modifier</title>
<path fill="none" stroke="#95d5b2" d="M511.31,-399.31C511.31,-399.31 511.31,-329.96 511.31,-329.96"/>
<polygon fill="#95d5b2" stroke="#95d5b2" points="514.81,-329.96 511.31,-319.96 507.81,-329.96 514.81,-329.96"/>
</g>
<!-- friendly_status -->
<g id="node7" class="node">
<title>friendly_status</title>
<path fill="#2d4d3d" stroke="#4ecdc4" d="M695,-435.73C695,-435.73 631,-435.73 631,-435.73 625,-435.73 619,-429.73 619,-423.73 619,-423.73 619,-411.73 619,-411.73 619,-405.73 625,-399.73 631,-399.73 631,-399.73 695,-399.73 695,-399.73 701,-399.73 707,-405.73 707,-411.73 707,-411.73 707,-423.73 707,-423.73 707,-429.73 701,-435.73 695,-435.73"/>
<text xml:space="preserve" text-anchor="middle" x="663" y="-419.28" font-family="Helvetica,sans-Serif" font-size="11.00" fill="white">Friendly Status</text>
<text xml:space="preserve" text-anchor="middle" x="663" y="-407.28" font-family="Helvetica,sans-Serif" font-size="11.00" fill="white">100 pts/yr</text>
</g>
<!-- friendly_status&#45;&gt;xeno_modifier -->
<g id="edge6" class="edge">
<title>friendly_status&#45;&gt;xeno_modifier</title>
<path fill="none" stroke="#95d5b2" d="M622.56,-399.58C622.56,-379.52 622.56,-350 622.56,-350 622.56,-350 461.44,-350 461.44,-350"/>
<polygon fill="#95d5b2" stroke="#95d5b2" points="461.44,-346.5 451.44,-350 461.44,-353.5 461.44,-346.5"/>
</g>
<!-- allied_status -->
<g id="node8" class="node">
<title>allied_status</title>
<path fill="#2d4d3d" stroke="#4ecdc4" d="M789,-435.73C789,-435.73 737,-435.73 737,-435.73 731,-435.73 725,-429.73 725,-423.73 725,-423.73 725,-411.73 725,-411.73 725,-405.73 731,-399.73 737,-399.73 737,-399.73 789,-399.73 789,-399.73 795,-399.73 801,-405.73 801,-411.73 801,-411.73 801,-423.73 801,-423.73 801,-429.73 795,-435.73 789,-435.73"/>
<text xml:space="preserve" text-anchor="middle" x="763" y="-419.28" font-family="Helvetica,sans-Serif" font-size="11.00" fill="white">Allied Status</text>
<text xml:space="preserve" text-anchor="middle" x="763" y="-407.28" font-family="Helvetica,sans-Serif" font-size="11.00" fill="white">200 pts/yr</text>
</g>
<!-- allied_status&#45;&gt;xeno_modifier -->
<g id="edge7" class="edge">
<title>allied_status&#45;&gt;xeno_modifier</title>
<path fill="none" stroke="#95d5b2" d="M729.56,-399.54C729.56,-376.85 729.56,-341 729.56,-341 729.56,-341 479.11,-341 479.11,-341"/>
<polygon fill="#95d5b2" stroke="#95d5b2" points="479.11,-337.5 469.11,-341 479.11,-344.5 479.11,-337.5"/>
</g>
<!-- shield_damage -->
<g id="node9" class="node">
<title>shield_damage</title>
<path fill="#4d2d2d" stroke="#4ecdc4" d="M614.12,-332.73C614.12,-332.73 547.88,-332.73 547.88,-332.73 541.88,-332.73 535.88,-326.73 535.88,-320.73 535.88,-320.73 535.88,-308.73 535.88,-308.73 535.88,-302.73 541.88,-296.73 547.88,-296.73 547.88,-296.73 614.12,-296.73 614.12,-296.73 620.12,-296.73 626.12,-302.73 626.12,-308.73 626.12,-308.73 626.12,-320.73 626.12,-320.73 626.12,-326.73 620.12,-332.73 614.12,-332.73"/>
<text xml:space="preserve" text-anchor="middle" x="581" y="-316.28" font-family="Helvetica,sans-Serif" font-size="11.00" fill="white">Shield Damage</text>
<text xml:space="preserve" text-anchor="middle" x="581" y="-304.28" font-family="Helvetica,sans-Serif" font-size="11.00" fill="white">&#45;0.1 per point</text>
</g>
<!-- shield_damage&#45;&gt;diplomatic_points -->
<g id="edge9" class="edge">
<title>shield_damage&#45;&gt;diplomatic_points</title>
<path fill="none" stroke="#ff6b6b" d="M581,-296.4C581,-257.45 581,-170 581,-170 581,-170 720.39,-170 720.39,-170"/>
<polygon fill="#ff6b6b" stroke="#ff6b6b" points="720.39,-173.5 730.39,-170 720.39,-166.5 720.39,-173.5"/>
</g>
<!-- armor_damage -->
<g id="node10" class="node">
<title>armor_damage</title>
<path fill="#4d2d2d" stroke="#4ecdc4" d="M722.12,-332.73C722.12,-332.73 655.88,-332.73 655.88,-332.73 649.88,-332.73 643.88,-326.73 643.88,-320.73 643.88,-320.73 643.88,-308.73 643.88,-308.73 643.88,-302.73 649.88,-296.73 655.88,-296.73 655.88,-296.73 722.12,-296.73 722.12,-296.73 728.12,-296.73 734.12,-302.73 734.12,-308.73 734.12,-308.73 734.12,-320.73 734.12,-320.73 734.12,-326.73 728.12,-332.73 722.12,-332.73"/>
<text xml:space="preserve" text-anchor="middle" x="689" y="-316.28" font-family="Helvetica,sans-Serif" font-size="11.00" fill="white">Armor Damage</text>
<text xml:space="preserve" text-anchor="middle" x="689" y="-304.28" font-family="Helvetica,sans-Serif" font-size="11.00" fill="white">&#45;0.25 per point</text>
</g>
<!-- armor_damage&#45;&gt;diplomatic_points -->
<g id="edge10" class="edge">
<title>armor_damage&#45;&gt;diplomatic_points</title>
<path fill="none" stroke="#ff6b6b" d="M734.43,-315C741.2,-315 745.96,-315 745.96,-315 745.96,-315 745.96,-191.87 745.96,-191.87"/>
<polygon fill="#ff6b6b" stroke="#ff6b6b" points="749.46,-191.87 745.96,-181.87 742.46,-191.87 749.46,-191.87"/>
</g>
<!-- internal_damage -->
<g id="node11" class="node">
<title>internal_damage</title>
<path fill="#4d2d2d" stroke="#4ecdc4" d="M836.12,-332.73C836.12,-332.73 763.88,-332.73 763.88,-332.73 757.88,-332.73 751.88,-326.73 751.88,-320.73 751.88,-320.73 751.88,-308.73 751.88,-308.73 751.88,-302.73 757.88,-296.73 763.88,-296.73 763.88,-296.73 836.12,-296.73 836.12,-296.73 842.12,-296.73 848.12,-302.73 848.12,-308.73 848.12,-308.73 848.12,-320.73 848.12,-320.73 848.12,-326.73 842.12,-332.73 836.12,-332.73"/>
<text xml:space="preserve" text-anchor="middle" x="800" y="-316.28" font-family="Helvetica,sans-Serif" font-size="11.00" fill="white">Internal Damage</text>
<text xml:space="preserve" text-anchor="middle" x="800" y="-304.28" font-family="Helvetica,sans-Serif" font-size="11.00" fill="white">&#45;1.0 per point</text>
</g>
<!-- internal_damage&#45;&gt;diplomatic_points -->
<g id="edge11" class="edge">
<title>internal_damage&#45;&gt;diplomatic_points</title>
<path fill="none" stroke="#ff6b6b" d="M800,-296.29C800,-296.29 800,-202.46 800,-202.46"/>
<polygon fill="#ff6b6b" stroke="#ff6b6b" points="803.5,-202.46 800,-192.46 796.5,-202.46 803.5,-202.46"/>
</g>
<!-- pop_damage -->
<g id="node12" class="node">
<title>pop_damage</title>
<path fill="#4d2d2d" stroke="#4ecdc4" d="M967.38,-332.73C967.38,-332.73 878.62,-332.73 878.62,-332.73 872.62,-332.73 866.62,-326.73 866.62,-320.73 866.62,-320.73 866.62,-308.73 866.62,-308.73 866.62,-302.73 872.62,-296.73 878.62,-296.73 878.62,-296.73 967.38,-296.73 967.38,-296.73 973.38,-296.73 979.38,-302.73 979.38,-308.73 979.38,-308.73 979.38,-320.73 979.38,-320.73 979.38,-326.73 973.38,-332.73 967.38,-332.73"/>
<text xml:space="preserve" text-anchor="middle" x="923" y="-316.28" font-family="Helvetica,sans-Serif" font-size="11.00" fill="white">Population/Shipyard</text>
<text xml:space="preserve" text-anchor="middle" x="923" y="-304.28" font-family="Helvetica,sans-Serif" font-size="11.00" fill="white">&#45;1.0 per point</text>
</g>
<!-- pop_damage&#45;&gt;diplomatic_points -->
<g id="edge12" class="edge">
<title>pop_damage&#45;&gt;diplomatic_points</title>
<path fill="none" stroke="#ff6b6b" d="M866.23,-315C860.86,-315 857.38,-315 857.38,-315 857.38,-315 857.38,-189.96 857.38,-189.96"/>
<polygon fill="#ff6b6b" stroke="#ff6b6b" points="860.88,-189.96 857.38,-179.96 853.88,-189.96 860.88,-189.96"/>
</g>
<!-- ground_combat -->
<g id="node13" class="node">
<title>ground_combat</title>
<path fill="#4d2d2d" stroke="#4ecdc4" d="M1078.62,-332.73C1078.62,-332.73 1009.38,-332.73 1009.38,-332.73 1003.38,-332.73 997.38,-326.73 997.38,-320.73 997.38,-320.73 997.38,-308.73 997.38,-308.73 997.38,-302.73 1003.38,-296.73 1009.38,-296.73 1009.38,-296.73 1078.62,-296.73 1078.62,-296.73 1084.62,-296.73 1090.62,-302.73 1090.62,-308.73 1090.62,-308.73 1090.62,-320.73 1090.62,-320.73 1090.62,-326.73 1084.62,-332.73 1078.62,-332.73"/>
<text xml:space="preserve" text-anchor="middle" x="1044" y="-316.28" font-family="Helvetica,sans-Serif" font-size="11.00" fill="white">Ground Combat</text>
<text xml:space="preserve" text-anchor="middle" x="1044" y="-304.28" font-family="Helvetica,sans-Serif" font-size="11.00" fill="white">&#45;0.01 per ton</text>
</g>
<!-- ground_combat&#45;&gt;diplomatic_points -->
<g id="edge13" class="edge">
<title>ground_combat&#45;&gt;diplomatic_points</title>
<path fill="none" stroke="#ff6b6b" d="M1044,-296.46C1044,-258.58 1044,-175 1044,-175 1044,-175 874.35,-175 874.35,-175"/>
<polygon fill="#ff6b6b" stroke="#ff6b6b" points="874.35,-171.5 864.35,-175 874.35,-178.5 874.35,-171.5"/>
</g>
<!-- diplo_ship_attack -->
<g id="node14" class="node">
<title>diplo_ship_attack</title>
<path fill="#4d2d2d" stroke="#4ecdc4" d="M1221,-332.73C1221,-332.73 1121,-332.73 1121,-332.73 1115,-332.73 1109,-326.73 1109,-320.73 1109,-320.73 1109,-308.73 1109,-308.73 1109,-302.73 1115,-296.73 1121,-296.73 1121,-296.73 1221,-296.73 1221,-296.73 1227,-296.73 1233,-302.73 1233,-308.73 1233,-308.73 1233,-320.73 1233,-320.73 1233,-326.73 1227,-332.73 1221,-332.73"/>
<text xml:space="preserve" text-anchor="middle" x="1171" y="-316.28" font-family="Helvetica,sans-Serif" font-size="11.00" fill="white">Attack Diplomatic Ship</text>
<text xml:space="preserve" text-anchor="middle" x="1171" y="-304.28" font-family="Helvetica,sans-Serif" font-size="11.00" fill="white">&#45;300 (3x multiplier)</text>
</g>
<!-- diplo_ship_attack&#45;&gt;diplomatic_points -->
<g id="edge14" class="edge">
<title>diplo_ship_attack&#45;&gt;diplomatic_points</title>
<path fill="none" stroke="#ff6b6b" d="M1171,-296.25C1171,-255 1171,-159 1171,-159 1171,-159 883.93,-159 883.93,-159"/>
<polygon fill="#ff6b6b" stroke="#ff6b6b" points="883.93,-155.5 873.93,-159 883.93,-162.5 883.93,-155.5"/>
</g>
<!-- intrusion -->
<g id="node15" class="node">
<title>intrusion</title>
<path fill="#4d2d2d" stroke="#4ecdc4" d="M1370.75,-332.73C1370.75,-332.73 1263.25,-332.73 1263.25,-332.73 1257.25,-332.73 1251.25,-326.73 1251.25,-320.73 1251.25,-320.73 1251.25,-308.73 1251.25,-308.73 1251.25,-302.73 1257.25,-296.73 1263.25,-296.73 1263.25,-296.73 1370.75,-296.73 1370.75,-296.73 1376.75,-296.73 1382.75,-302.73 1382.75,-308.73 1382.75,-308.73 1382.75,-320.73 1382.75,-320.73 1382.75,-326.73 1376.75,-332.73 1370.75,-332.73"/>
<text xml:space="preserve" text-anchor="middle" x="1317" y="-316.28" font-family="Helvetica,sans-Serif" font-size="11.00" fill="white">Territory Intrusion</text>
<text xml:space="preserve" text-anchor="middle" x="1317" y="-304.28" font-family="Helvetica,sans-Serif" font-size="11.00" fill="white">SQRT(tonnage) x threat</text>
</g>
<!-- intrusion&#45;&gt;diplomatic_points -->
<g id="edge15" class="edge">
<title>intrusion&#45;&gt;diplomatic_points</title>
<path fill="none" stroke="#ff6b6b" d="M1317,-296.45C1317,-252.41 1317,-144 1317,-144 1317,-144 874.65,-144 874.65,-144"/>
<polygon fill="#ff6b6b" stroke="#ff6b6b" points="874.65,-140.5 864.65,-144 874.65,-147.5 874.65,-140.5"/>
</g>
<!-- pos_decay&#45;&gt;diplomatic_points -->
<g id="edge18" class="edge">
<title>pos_decay&#45;&gt;diplomatic_points</title>
<path fill="none" stroke="#ffe66d" stroke-dasharray="5,2" d="M746.96,-60.26C746.96,-60.26 746.96,-126.54 746.96,-126.54"/>
<polygon fill="#ffe66d" stroke="#ffe66d" points="743.46,-126.54 746.96,-136.54 750.46,-126.54 743.46,-126.54"/>
<text xml:space="preserve" text-anchor="middle" x="787.62" y="-101.7" font-family="Helvetica,sans-Serif" font-size="9.00" fill="white">toward 0</text>
</g>
<!-- neg_decay&#45;&gt;diplomatic_points -->
<g id="edge19" class="edge">
<title>neg_decay&#45;&gt;diplomatic_points</title>
<path fill="none" stroke="#ffe66d" stroke-dasharray="5,2" d="M848.96,-60.26C848.96,-60.26 848.96,-124.91 848.96,-124.91"/>
<polygon fill="#ffe66d" stroke="#ffe66d" points="845.46,-124.91 848.96,-134.91 852.46,-124.91 845.46,-124.91"/>
<text xml:space="preserve" text-anchor="middle" x="891.62" y="-101.7" font-family="Helvetica,sans-Serif" font-size="9.00" fill="white">toward 0</text>
</g>
<!-- xeno_modifier&#45;&gt;diplomatic_points -->
<g id="edge8" class="edge">
<title>xeno_modifier&#45;&gt;diplomatic_points</title>
<path fill="none" stroke="#95d5b2" d="M458.8,-284C533.74,-284 740.04,-284 740.04,-284 740.04,-284 740.04,-188.47 740.04,-188.47"/>
<polygon fill="#95d5b2" stroke="#95d5b2" points="743.54,-188.47 740.04,-178.47 736.54,-188.47 743.54,-188.47"/>
<text xml:space="preserve" text-anchor="middle" x="519.62" y="-244.18" font-family="Helvetica,sans-Serif" font-size="9.00" fill="white">modified</text>
<text xml:space="preserve" text-anchor="middle" x="519.62" y="-234.43" font-family="Helvetica,sans-Serif" font-size="9.00" fill="white">points</text>
</g>
</g>
</svg>
