<?xml version="1.0" encoding="UTF-8" standalone="no"?>
<!DOCTYPE svg PUBLIC "-//W3C//DTD SVG 1.1//EN"
 "http://www.w3.org/Graphics/SVG/1.1/DTD/svg11.dtd">
<!-- Generated by graphviz version 14.1.2 (20260124.0452)
 -->
<!-- Title: claim_acceptance Pages: 1 -->
<svg width="756pt" height="632pt"
 viewBox="0.00 0.00 756.00 632.00" xmlns="http://www.w3.org/2000/svg" xmlns:xlink="http://www.w3.org/1999/xlink">
<g id="graph0" class="graph" transform="scale(1 1) rotate(0) translate(4 628.05)">
<title>claim_acceptance</title>
<polygon fill="#1a1a2e" stroke="none" points="-4,4 -4,-628.05 752,-628.05 752,4 -4,4"/>
<text xml:space="preserve" text-anchor="start" x="281" y="-605.85" font-family="Times,serif" font-weight="bold" font-size="16.00" fill="white">Claim Acceptance Formula</text>
<g id="clust1" class="cluster">
<title>cluster_player</title>
<polygon fill="#1a1a2e" stroke="#95d5b2" stroke-dasharray="5,2" points="63,-227.05 63,-354.3 377,-354.3 377,-227.05 63,-227.05"/>
<text xml:space="preserve" text-anchor="start" x="146.5" y="-338" font-family="Times,serif" font-weight="bold" font-size="14.00" fill="#95d5b2">Player Factors (Pressure)</text>
</g>
<g id="clust2" class="cluster">
<title>cluster_pop</title>
<polygon fill="#1a1a2e" stroke="#ffe66d" stroke-dasharray="5,2" points="8,-389.55 8,-589.3 199,-589.3 199,-389.55 8,-389.55"/>
<text xml:space="preserve" text-anchor="start" x="16.12" y="-573" font-family="Times,serif" font-weight="bold" font-size="14.00" fill="#ffe66d">Population Factor Calculation</text>
</g>
<g id="clust3" class="cluster">
<title>cluster_npr</title>
<polygon fill="#1a1a2e" stroke="#ff6b6b" stroke-dasharray="5,2" points="385,-243.93 385,-337.43 597,-337.43 597,-243.93 385,-243.93"/>
<text xml:space="preserve" text-anchor="start" x="416.75" y="-321.12" font-family="Times,serif" font-weight="bold" font-size="14.00" fill="#ff6b6b">NPR Factors (Resistance)</text>
</g>
<g id="clust4" class="cluster">
<title>cluster_traits</title>
<polygon fill="#1a1a2e" stroke="#4ecdc4" stroke-dasharray="5,2" points="488,-403.68 488,-480.18 740,-480.18 740,-403.68 488,-403.68"/>
<text xml:space="preserve" text-anchor="start" x="554.38" y="-463.88" font-family="Times,serif" font-weight="bold" font-size="14.00" fill="#4ecdc4">NPR Characteristics</text>
</g>
<!-- formula -->
<g id="node1" class="node">
<title>formula</title>
<path fill="#2d2d44" stroke="none" d="M466.38,-478.05C466.38,-478.05 219.62,-478.05 219.62,-478.05 213.62,-478.05 207.62,-472.05 207.62,-466.05 207.62,-466.05 207.62,-393.3 207.62,-393.3 207.62,-387.3 213.62,-381.3 219.62,-381.3 219.62,-381.3 466.38,-381.3 466.38,-381.3 472.38,-381.3 478.38,-387.3 478.38,-393.3 478.38,-393.3 478.38,-466.05 478.38,-466.05 478.38,-472.05 472.38,-478.05 466.38,-478.05"/>
<polygon fill="#4ecdc4" stroke="none" points="215.62,-441.3 215.62,-474.05 470.38,-474.05 470.38,-441.3 215.62,-441.3"/>
<text xml:space="preserve" text-anchor="start" x="226.75" y="-453.65" font-family="Helvetica,sans-Serif" font-weight="bold" font-size="12.00" fill="#1a1a2e">NPR Accepts Withdrawal Demand When:</text>
<polygon fill="#2d2d44" stroke="none" points="215.62,-385.3 215.62,-441.3 470.38,-441.3 470.38,-385.3 215.62,-385.3"/>
<text xml:space="preserve" text-anchor="start" x="225.62" y="-420.85" font-family="Helvetica,sans-Serif" font-size="11.00" fill="white">Military Advantage x Demand Value x Pop Factor</text>
<text xml:space="preserve" text-anchor="start" x="339.62" y="-408.85" font-family="Helvetica,sans-Serif" font-size="11.00" fill="white">&gt;</text>
<text xml:space="preserve" text-anchor="start" x="250.75" y="-396.85" font-family="Helvetica,sans-Serif" font-size="11.00" fill="white">Accessible System Value x Resistance</text>
</g>
<!-- military_adv -->
<g id="node2" class="node">
<title>military_adv</title>
<path fill="#2d4d3d" stroke="#4ecdc4" d="M357.25,-304.93C357.25,-304.93 288.75,-304.93 288.75,-304.93 282.75,-304.93 276.75,-298.93 276.75,-292.93 276.75,-292.93 276.75,-263.93 276.75,-263.93 276.75,-257.93 282.75,-251.93 288.75,-251.93 288.75,-251.93 357.25,-251.93 357.25,-251.93 363.25,-251.93 369.25,-257.93 369.25,-263.93 369.25,-263.93 369.25,-292.93 369.25,-292.93 369.25,-298.93 363.25,-304.93 357.25,-304.93"/>
<text xml:space="preserve" text-anchor="middle" x="323" y="-291.43" font-family="Helvetica,sans-Serif" font-size="10.00" fill="white">Military</text>
<text xml:space="preserve" text-anchor="middle" x="323" y="-280.18" font-family="Helvetica,sans-Serif" font-size="10.00" fill="white">Advantage</text>
<text xml:space="preserve" text-anchor="middle" x="323" y="-268.93" font-family="Helvetica,sans-Serif" font-size="10.00" fill="white">(Player fleet</text>
<text xml:space="preserve" text-anchor="middle" x="323" y="-257.68" font-family="Helvetica,sans-Serif" font-size="10.00" fill="white">strength vs NPR)</text>
</g>
<!-- formula&#45;&gt;military_adv -->
<!-- system_value -->
<g id="node8" class="node">
<title>system_value</title>
<path fill="#4d2d2d" stroke="#4ecdc4" d="M457.38,-304.93C457.38,-304.93 404.62,-304.93 404.62,-304.93 398.62,-304.93 392.62,-298.93 392.62,-292.93 392.62,-292.93 392.62,-263.93 392.62,-263.93 392.62,-257.93 398.62,-251.93 404.62,-251.93 404.62,-251.93 457.38,-251.93 457.38,-251.93 463.38,-251.93 469.38,-257.93 469.38,-263.93 469.38,-263.93 469.38,-292.93 469.38,-292.93 469.38,-298.93 463.38,-304.93 457.38,-304.93"/>
<text xml:space="preserve" text-anchor="middle" x="431" y="-291.43" font-family="Helvetica,sans-Serif" font-size="10.00" fill="white">Accessible</text>
<text xml:space="preserve" text-anchor="middle" x="431" y="-280.18" font-family="Helvetica,sans-Serif" font-size="10.00" fill="white">System Value</text>
<text xml:space="preserve" text-anchor="middle" x="431" y="-268.93" font-family="Helvetica,sans-Serif" font-size="10.00" fill="white">(1=Neutral to</text>
<text xml:space="preserve" text-anchor="middle" x="431" y="-257.68" font-family="Helvetica,sans-Serif" font-size="10.00" fill="white">6=Capital)</text>
</g>
<!-- formula&#45;&gt;system_value -->
<!-- mult_left -->
<g id="node13" class="node">
<title>mult_left</title>
<ellipse fill="#4ecdc4" stroke="#4ecdc4" cx="258" cy="-183.65" rx="14.4" ry="14.4"/>
<text xml:space="preserve" text-anchor="middle" x="258" y="-179.78" font-family="Helvetica,sans-Serif" font-size="10.00" fill="#1a1a2e">x</text>
</g>
<!-- military_adv&#45;&gt;mult_left -->
<g id="edge1" class="edge">
<title>military_adv&#45;&gt;mult_left</title>
<path fill="none" stroke="#4ecdc4" d="M276.43,-256C270.05,-256 265.64,-256 265.64,-256 265.64,-256 265.64,-207.77 265.64,-207.77"/>
<polygon fill="#4ecdc4" stroke="#4ecdc4" points="269.14,-207.77 265.64,-197.77 262.14,-207.77 269.14,-207.77"/>
</g>
<!-- demand_value -->
<g id="node3" class="node">
<title>demand_value</title>
<path fill="#2d4d3d" stroke="#4ecdc4" d="M167.12,-321.8C167.12,-321.8 82.88,-321.8 82.88,-321.8 76.88,-321.8 70.88,-315.8 70.88,-309.8 70.88,-309.8 70.88,-247.05 70.88,-247.05 70.88,-241.05 76.88,-235.05 82.88,-235.05 82.88,-235.05 167.12,-235.05 167.12,-235.05 173.12,-235.05 179.12,-241.05 179.12,-247.05 179.12,-247.05 179.12,-309.8 179.12,-309.8 179.12,-315.8 173.12,-321.8 167.12,-321.8"/>
<text xml:space="preserve" text-anchor="middle" x="125" y="-308.3" font-family="Helvetica,sans-Serif" font-size="10.00" fill="white">Demand Value</text>
<text xml:space="preserve" text-anchor="middle" x="125" y="-297.05" font-family="Helvetica,sans-Serif" font-size="10.00" fill="white">(Demand Strength^2)</text>
<text xml:space="preserve" text-anchor="middle" x="125" y="-285.8" font-family="Helvetica,sans-Serif" font-size="10.00" fill="white">Suggest: 1.0</text>
<text xml:space="preserve" text-anchor="middle" x="125" y="-274.55" font-family="Helvetica,sans-Serif" font-size="10.00" fill="white">Request: 1.41</text>
<text xml:space="preserve" text-anchor="middle" x="125" y="-263.3" font-family="Helvetica,sans-Serif" font-size="10.00" fill="white">Urgent: 1.73</text>
<text xml:space="preserve" text-anchor="middle" x="125" y="-252.05" font-family="Helvetica,sans-Serif" font-size="10.00" fill="white">Demand: 2.0</text>
<text xml:space="preserve" text-anchor="middle" x="125" y="-240.8" font-family="Helvetica,sans-Serif" font-size="10.00" fill="white">Threat: 2.24</text>
</g>
<!-- demand_value&#45;&gt;mult_left -->
<g id="edge2" class="edge">
<title>demand_value&#45;&gt;mult_left</title>
<path fill="none" stroke="#4ecdc4" d="M179.61,-243C212.75,-243 248.69,-243 248.69,-243 248.69,-243 248.69,-206.61 248.69,-206.61"/>
<polygon fill="#4ecdc4" stroke="#4ecdc4" points="252.19,-206.61 248.69,-196.61 245.19,-206.61 252.19,-206.61"/>
</g>
<!-- pop_factor -->
<g id="node4" class="node">
<title>pop_factor</title>
<path fill="#2d4d3d" stroke="#4ecdc4" d="M246.88,-296.43C246.88,-296.43 209.12,-296.43 209.12,-296.43 203.12,-296.43 197.12,-290.43 197.12,-284.43 197.12,-284.43 197.12,-272.43 197.12,-272.43 197.12,-266.43 203.12,-260.43 209.12,-260.43 209.12,-260.43 246.88,-260.43 246.88,-260.43 252.88,-260.43 258.88,-266.43 258.88,-272.43 258.88,-272.43 258.88,-284.43 258.88,-284.43 258.88,-290.43 252.88,-296.43 246.88,-296.43"/>
<text xml:space="preserve" text-anchor="middle" x="228" y="-280.18" font-family="Helvetica,sans-Serif" font-size="10.00" fill="white">Population</text>
<text xml:space="preserve" text-anchor="middle" x="228" y="-268.93" font-family="Helvetica,sans-Serif" font-size="10.00" fill="white">Factor</text>
</g>
<!-- pop_factor&#45;&gt;mult_left -->
<g id="edge3" class="edge">
<title>pop_factor&#45;&gt;mult_left</title>
<path fill="none" stroke="#4ecdc4" d="M253.78,-260.15C253.78,-260.15 253.78,-209.37 253.78,-209.37"/>
<polygon fill="#4ecdc4" stroke="#4ecdc4" points="257.28,-209.37 253.78,-199.37 250.28,-209.37 257.28,-209.37"/>
</g>
<!-- pop_calc -->
<g id="node5" class="node">
<title>pop_calc</title>
<path fill="#4d4d2d" stroke="#4ecdc4" d="M177.25,-461.8C177.25,-461.8 102.75,-461.8 102.75,-461.8 96.75,-461.8 90.75,-455.8 90.75,-449.8 90.75,-449.8 90.75,-409.55 90.75,-409.55 90.75,-403.55 96.75,-397.55 102.75,-397.55 102.75,-397.55 177.25,-397.55 177.25,-397.55 183.25,-397.55 189.25,-403.55 189.25,-409.55 189.25,-409.55 189.25,-449.8 189.25,-449.8 189.25,-455.8 183.25,-461.8 177.25,-461.8"/>
<text xml:space="preserve" text-anchor="middle" x="140" y="-448.3" font-family="Helvetica,sans-Serif" font-size="10.00" fill="white">SQRT(Player EM /</text>
<text xml:space="preserve" text-anchor="middle" x="140" y="-437.05" font-family="Helvetica,sans-Serif" font-size="10.00" fill="white">NPC EM)</text>
<text xml:space="preserve" text-anchor="middle" x="140" y="-425.8" font-family="Helvetica,sans-Serif" font-size="10.00" fill="white">Capped by:</text>
<text xml:space="preserve" text-anchor="middle" x="140" y="-414.55" font-family="Helvetica,sans-Serif" font-size="10.00" fill="white">4th root of</text>
<text xml:space="preserve" text-anchor="middle" x="140" y="-403.3" font-family="Helvetica,sans-Serif" font-size="10.00" fill="white">(Player EM / 100)</text>
</g>
<!-- pop_calc&#45;&gt;pop_factor -->
<g id="edge6" class="edge">
<title>pop_calc&#45;&gt;pop_factor</title>
<path fill="none" stroke="#4ecdc4" d="M184.19,-397.14C184.19,-352.57 184.19,-278 184.19,-278 184.19,-278 185.43,-278 185.43,-278"/>
<polygon fill="#4ecdc4" stroke="#4ecdc4" points="185.11,-281.5 195.11,-278 185.11,-274.5 185.11,-281.5"/>
</g>
<!-- player_em -->
<g id="node6" class="node">
<title>player_em</title>
<path fill="#4d4d2d" stroke="#4ecdc4" d="M82.62,-556.8C82.62,-556.8 31.37,-556.8 31.37,-556.8 25.37,-556.8 19.38,-550.8 19.38,-544.8 19.38,-544.8 19.38,-527.05 19.38,-527.05 19.38,-521.05 25.38,-515.05 31.38,-515.05 31.38,-515.05 82.62,-515.05 82.62,-515.05 88.62,-515.05 94.62,-521.05 94.62,-527.05 94.62,-527.05 94.62,-544.8 94.62,-544.8 94.62,-550.8 88.62,-556.8 82.62,-556.8"/>
<text xml:space="preserve" text-anchor="middle" x="57" y="-543.3" font-family="Helvetica,sans-Serif" font-size="10.00" fill="white">Player</text>
<text xml:space="preserve" text-anchor="middle" x="57" y="-532.05" font-family="Helvetica,sans-Serif" font-size="10.00" fill="white">Population</text>
<text xml:space="preserve" text-anchor="middle" x="57" y="-520.8" font-family="Helvetica,sans-Serif" font-size="10.00" fill="white">EM Signature</text>
</g>
<!-- player_em&#45;&gt;pop_calc -->
<g id="edge4" class="edge">
<title>player_em&#45;&gt;pop_calc</title>
<path fill="none" stroke="#4ecdc4" d="M94.97,-536C100.02,-536 103.5,-536 103.5,-536 103.5,-536 103.5,-473.67 103.5,-473.67"/>
<polygon fill="#4ecdc4" stroke="#4ecdc4" points="107,-473.67 103.5,-463.67 100,-473.67 107,-473.67"/>
</g>
<!-- npc_em -->
<g id="node7" class="node">
<title>npc_em</title>
<path fill="#4d4d2d" stroke="#4ecdc4" d="M175.62,-556.8C175.62,-556.8 124.38,-556.8 124.38,-556.8 118.38,-556.8 112.38,-550.8 112.38,-544.8 112.38,-544.8 112.38,-527.05 112.38,-527.05 112.38,-521.05 118.38,-515.05 124.38,-515.05 124.38,-515.05 175.62,-515.05 175.62,-515.05 181.62,-515.05 187.62,-521.05 187.62,-527.05 187.62,-527.05 187.62,-544.8 187.62,-544.8 187.62,-550.8 181.62,-556.8 175.62,-556.8"/>
<text xml:space="preserve" text-anchor="middle" x="150" y="-543.3" font-family="Helvetica,sans-Serif" font-size="10.00" fill="white">NPC</text>
<text xml:space="preserve" text-anchor="middle" x="150" y="-532.05" font-family="Helvetica,sans-Serif" font-size="10.00" fill="white">Population</text>
<text xml:space="preserve" text-anchor="middle" x="150" y="-520.8" font-family="Helvetica,sans-Serif" font-size="10.00" fill="white">EM Signature</text>
</g>
<!-- npc_em&#45;&gt;pop_calc -->
<g id="edge5" class="edge">
<title>npc_em&#45;&gt;pop_calc</title>
<path fill="none" stroke="#4ecdc4" d="M150,-514.68C150,-514.68 150,-473.7 150,-473.7"/>
<polygon fill="#4ecdc4" stroke="#4ecdc4" points="153.5,-473.7 150,-463.7 146.5,-473.7 153.5,-473.7"/>
</g>
<!-- mult_right -->
<g id="node14" class="node">
<title>mult_right</title>
<ellipse fill="#ff6b6b" stroke="#4ecdc4" cx="431" cy="-183.65" rx="14.4" ry="14.4"/>
<text xml:space="preserve" text-anchor="middle" x="431" y="-179.78" font-family="Helvetica,sans-Serif" font-size="10.00" fill="white">x</text>
</g>
<!-- system_value&#45;&gt;mult_right -->
<g id="edge10" class="edge">
<title>system_value&#45;&gt;mult_right</title>
<path fill="none" stroke="#4ecdc4" d="M431,-251.52C431,-251.52 431,-210.05 431,-210.05"/>
<polygon fill="#4ecdc4" stroke="#4ecdc4" points="434.5,-210.05 431,-200.05 427.5,-210.05 434.5,-210.05"/>
</g>
<!-- resistance -->
<g id="node9" class="node">
<title>resistance</title>
<path fill="#4d2d2d" stroke="#4ecdc4" d="M576.75,-304.93C576.75,-304.93 499.25,-304.93 499.25,-304.93 493.25,-304.93 487.25,-298.93 487.25,-292.93 487.25,-292.93 487.25,-263.93 487.25,-263.93 487.25,-257.93 493.25,-251.93 499.25,-251.93 499.25,-251.93 576.75,-251.93 576.75,-251.93 582.75,-251.93 588.75,-257.93 588.75,-263.93 588.75,-263.93 588.75,-292.93 588.75,-292.93 588.75,-298.93 582.75,-304.93 576.75,-304.93"/>
<text xml:space="preserve" text-anchor="middle" x="538" y="-291.43" font-family="Helvetica,sans-Serif" font-size="10.00" fill="white">Resistance</text>
<text xml:space="preserve" text-anchor="middle" x="538" y="-280.18" font-family="Helvetica,sans-Serif" font-size="10.00" fill="white">(Xeno + Militancy +</text>
<text xml:space="preserve" text-anchor="middle" x="538" y="-268.93" font-family="Helvetica,sans-Serif" font-size="10.00" fill="white">Determination)</text>
<text xml:space="preserve" text-anchor="middle" x="538" y="-257.68" font-family="Helvetica,sans-Serif" font-size="10.00" fill="white">/ 150</text>
</g>
<!-- resistance&#45;&gt;mult_right -->
<g id="edge11" class="edge">
<title>resistance&#45;&gt;mult_right</title>
<path fill="none" stroke="#4ecdc4" d="M538,-251.62C538,-223.7 538,-184 538,-184 538,-184 457.39,-184 457.39,-184"/>
<polygon fill="#4ecdc4" stroke="#4ecdc4" points="457.39,-180.5 447.39,-184 457.39,-187.5 457.39,-180.5"/>
</g>
<!-- xenophobia -->
<g id="node10" class="node">
<title>xenophobia</title>
<path fill="#2d2d44" stroke="#4ecdc4" d="M719.5,-447.68C719.5,-447.68 676.5,-447.68 676.5,-447.68 670.5,-447.68 664.5,-441.68 664.5,-435.68 664.5,-435.68 664.5,-423.68 664.5,-423.68 664.5,-417.68 670.5,-411.68 676.5,-411.68 676.5,-411.68 719.5,-411.68 719.5,-411.68 725.5,-411.68 731.5,-417.68 731.5,-423.68 731.5,-423.68 731.5,-435.68 731.5,-435.68 731.5,-441.68 725.5,-447.68 719.5,-447.68"/>
<text xml:space="preserve" text-anchor="middle" x="698" y="-431.43" font-family="Helvetica,sans-Serif" font-size="10.00" fill="white">Xenophobia</text>
<text xml:space="preserve" text-anchor="middle" x="698" y="-420.18" font-family="Helvetica,sans-Serif" font-size="10.00" fill="white">(1&#45;100)</text>
</g>
<!-- xenophobia&#45;&gt;resistance -->
<g id="edge7" class="edge">
<title>xenophobia&#45;&gt;resistance</title>
<path fill="none" stroke="#4ecdc4" d="M698,-411.38C698,-371.04 698,-278 698,-278 698,-278 600.58,-278 600.58,-278"/>
<polygon fill="#4ecdc4" stroke="#4ecdc4" points="600.58,-274.5 590.58,-278 600.58,-281.5 600.58,-274.5"/>
</g>
<!-- militancy -->
<g id="node11" class="node">
<title>militancy</title>
<path fill="#2d2d44" stroke="#4ecdc4" d="M539.5,-447.68C539.5,-447.68 508.5,-447.68 508.5,-447.68 502.5,-447.68 496.5,-441.68 496.5,-435.68 496.5,-435.68 496.5,-423.68 496.5,-423.68 496.5,-417.68 502.5,-411.68 508.5,-411.68 508.5,-411.68 539.5,-411.68 539.5,-411.68 545.5,-411.68 551.5,-417.68 551.5,-423.68 551.5,-423.68 551.5,-435.68 551.5,-435.68 551.5,-441.68 545.5,-447.68 539.5,-447.68"/>
<text xml:space="preserve" text-anchor="middle" x="524" y="-431.43" font-family="Helvetica,sans-Serif" font-size="10.00" fill="white">Militancy</text>
<text xml:space="preserve" text-anchor="middle" x="524" y="-420.18" font-family="Helvetica,sans-Serif" font-size="10.00" fill="white">(1&#45;100)</text>
</g>
<!-- militancy&#45;&gt;resistance -->
<g id="edge8" class="edge">
<title>militancy&#45;&gt;resistance</title>
<path fill="none" stroke="#4ecdc4" d="M524,-411.43C524,-411.43 524,-316.92 524,-316.92"/>
<polygon fill="#4ecdc4" stroke="#4ecdc4" points="527.5,-316.92 524,-306.92 520.5,-316.92 527.5,-316.92"/>
</g>
<!-- determination -->
<g id="node12" class="node">
<title>determination</title>
<path fill="#2d2d44" stroke="#4ecdc4" d="M634.38,-447.68C634.38,-447.68 581.62,-447.68 581.62,-447.68 575.62,-447.68 569.62,-441.68 569.62,-435.68 569.62,-435.68 569.62,-423.68 569.62,-423.68 569.62,-417.68 575.62,-411.68 581.62,-411.68 581.62,-411.68 634.38,-411.68 634.38,-411.68 640.38,-411.68 646.38,-417.68 646.38,-423.68 646.38,-423.68 646.38,-435.68 646.38,-435.68 646.38,-441.68 640.38,-447.68 634.38,-447.68"/>
<text xml:space="preserve" text-anchor="middle" x="608" y="-431.43" font-family="Helvetica,sans-Serif" font-size="10.00" fill="white">Determination</text>
<text xml:space="preserve" text-anchor="middle" x="608" y="-420.18" font-family="Helvetica,sans-Serif" font-size="10.00" fill="white">(1&#45;100)</text>
</g>
<!-- determination&#45;&gt;resistance -->
<g id="edge9" class="edge">
<title>determination&#45;&gt;resistance</title>
<path fill="none" stroke="#4ecdc4" d="M579.19,-411.43C579.19,-411.43 579.19,-316.92 579.19,-316.92"/>
<polygon fill="#4ecdc4" stroke="#4ecdc4" points="582.69,-316.92 579.19,-306.92 575.69,-316.92 582.69,-316.92"/>
</g>
<!-- compare -->
<g id="node15" class="node">
<title>compare</title>
<path fill="#ffe66d" stroke="#4ecdc4" d="M313.27,-118.13C313.27,-118.13 298.73,-110.87 298.73,-110.87 293.37,-108.18 293.37,-102.82 298.73,-100.13 298.73,-100.13 313.27,-92.87 313.27,-92.87 318.63,-90.18 329.37,-90.18 334.73,-92.87 334.73,-92.87 349.27,-100.13 349.27,-100.13 354.63,-102.82 354.63,-108.18 349.27,-110.87 349.27,-110.87 334.73,-118.13 334.73,-118.13 329.37,-120.82 318.63,-120.82 313.27,-118.13"/>
<text xml:space="preserve" text-anchor="middle" x="324" y="-101.62" font-family="Helvetica,sans-Serif" font-size="10.00" fill="#1a1a2e">&gt;?</text>
</g>
<!-- mult_left&#45;&gt;compare -->
<g id="edge12" class="edge">
<title>mult_left&#45;&gt;compare</title>
<path fill="none" stroke="#4ecdc4" d="M258,-169.04C258,-146.55 258,-106 258,-106 258,-106 276.4,-106 276.4,-106"/>
<polygon fill="#4ecdc4" stroke="#4ecdc4" points="276.4,-109.5 286.4,-106 276.4,-102.5 276.4,-109.5"/>
<text xml:space="preserve" text-anchor="middle" x="312.38" y="-142.7" font-family="Helvetica,sans-Serif" font-size="9.00" fill="white">Pressure</text>
</g>
<!-- mult_right&#45;&gt;compare -->
<g id="edge13" class="edge">
<title>mult_right&#45;&gt;compare</title>
<path fill="none" stroke="#4ecdc4" d="M420.36,-173.5C420.36,-152.45 420.36,-106 420.36,-106 420.36,-106 371.4,-106 371.4,-106"/>
<polygon fill="#4ecdc4" stroke="#4ecdc4" points="371.4,-102.5 361.4,-106 371.4,-109.5 371.4,-102.5"/>
<text xml:space="preserve" text-anchor="middle" x="423.5" y="-142.7" font-family="Helvetica,sans-Serif" font-size="9.00" fill="white">Stubbornness</text>
</g>
<!-- accept -->
<g id="node16" class="node">
<title>accept</title>
<path fill="#2d4d3d" stroke="#4ecdc4" d="M304,-41.75C304,-41.75 234,-41.75 234,-41.75 228,-41.75 222,-35.75 222,-29.75 222,-29.75 222,-12 222,-12 222,-6 228,0 234,0 234,0 304,0 304,0 310,0 316,-6 316,-12 316,-12 316,-29.75 316,-29.75 316,-35.75 310,-41.75 304,-41.75"/>
<text xml:space="preserve" text-anchor="middle" x="269" y="-28.25" font-family="Helvetica,sans-Serif" font-size="10.00" fill="white">NPR ACCEPTS</text>
<text xml:space="preserve" text-anchor="middle" x="269" y="-17" font-family="Helvetica,sans-Serif" font-size="10.00" fill="white">Withdraws from</text>
<text xml:space="preserve" text-anchor="middle" x="269" y="-5.75" font-family="Helvetica,sans-Serif" font-size="10.00" fill="white">contested system</text>
</g>
<!-- compare&#45;&gt;accept -->
<g id="edge14" class="edge">
<title>compare&#45;&gt;accept</title>
<path fill="none" stroke="#95d5b2" d="M302,-97.99C302,-97.99 302,-53.43 302,-53.43"/>
<polygon fill="#95d5b2" stroke="#95d5b2" points="305.5,-53.43 302,-43.43 298.5,-53.43 305.5,-53.43"/>
<text xml:space="preserve" text-anchor="middle" x="278" y="-60.95" font-family="Helvetica,sans-Serif" font-size="9.00" fill="white">YES</text>
</g>
<!-- reject -->
<g id="node17" class="node">
<title>reject</title>
<path fill="#4d2d2d" stroke="#4ecdc4" d="M412.12,-41.75C412.12,-41.75 345.88,-41.75 345.88,-41.75 339.88,-41.75 333.88,-35.75 333.88,-29.75 333.88,-29.75 333.88,-12 333.88,-12 333.88,-6 339.88,0 345.88,0 345.88,0 412.12,0 412.12,0 418.12,0 424.12,-6 424.12,-12 424.12,-12 424.12,-29.75 424.12,-29.75 424.12,-35.75 418.12,-41.75 412.12,-41.75"/>
<text xml:space="preserve" text-anchor="middle" x="379" y="-28.25" font-family="Helvetica,sans-Serif" font-size="10.00" fill="white">NPR REJECTS</text>
<text xml:space="preserve" text-anchor="middle" x="379" y="-17" font-family="Helvetica,sans-Serif" font-size="10.00" fill="white">Protection status</text>
<text xml:space="preserve" text-anchor="middle" x="379" y="-5.75" font-family="Helvetica,sans-Serif" font-size="10.00" fill="white">resets to &#39;None&#39;</text>
</g>
<!-- compare&#45;&gt;reject -->
<g id="edge15" class="edge">
<title>compare&#45;&gt;reject</title>
<path fill="none" stroke="#ff6b6b" d="M346.94,-98.57C346.94,-98.57 346.94,-53.41 346.94,-53.41"/>
<polygon fill="#ff6b6b" stroke="#ff6b6b" points="350.44,-53.41 346.94,-43.41 343.44,-53.41 350.44,-53.41"/>
<text xml:space="preserve" text-anchor="middle" x="385.75" y="-60.95" font-family="Helvetica,sans-Serif" font-size="9.00" fill="white">NO</text>
</g>
</g>
</svg>
