<?xml version="1.0" encoding="UTF-8" standalone="no"?>
<!DOCTYPE svg PUBLIC "-//W3C//DTD SVG 1.1//EN"
 "http://www.w3.org/Graphics/SVG/1.1/DTD/svg11.dtd">
<!-- Generated by graphviz version 14.1.2 (20260124.0452)
 -->
<!-- Title: intrusion_threat Pages: 1 -->
<svg width="494pt" height="1060pt"
 viewBox="0.00 0.00 494.00 1060.00" xmlns="http://www.w3.org/2000/svg" xmlns:xlink="http://www.w3.org/1999/xlink">
<g id="graph0" class="graph" transform="scale(1 1) rotate(0) translate(4 1056.25)">
<title>intrusion_threat</title>
<polygon fill="#1a1a2e" stroke="none" points="-4,4 -4,-1056.25 490.38,-1056.25 490.38,4 -4,4"/>
<text xml:space="preserve" text-anchor="start" x="102.94" y="-1034.05" font-family="Times,serif" font-weight="bold" font-size="16.00" fill="white">Territory Intrusion &amp; Threat Calculation</text>
<g id="clust1" class="cluster">
<title>cluster_detection</title>
<polygon fill="#1a1a2e" stroke="#4ecdc4" stroke-dasharray="5,2" points="149.5,-843 149.5,-1017.5 327.5,-1017.5 327.5,-843 149.5,-843"/>
<text xml:space="preserve" text-anchor="start" x="189" y="-1001.2" font-family="Times,serif" font-weight="bold" font-size="14.00" fill="#4ecdc4">Step 1: Detection</text>
</g>
<g id="clust2" class="cluster">
<title>cluster_threat</title>
<polygon fill="#1a1a2e" stroke="#ffe66d" stroke-dasharray="5,2" points="149.5,-480.25 149.5,-742.25 445.5,-742.25 445.5,-480.25 149.5,-480.25"/>
<text xml:space="preserve" text-anchor="start" x="203" y="-725.95" font-family="Times,serif" font-weight="bold" font-size="14.00" fill="#ffe66d">Step 2: Threat Level Calculation</text>
</g>
<g id="clust3" class="cluster">
<title>cluster_penalty</title>
<polygon fill="#1a1a2e" stroke="#ff6b6b" stroke-dasharray="5,2" points="203.5,-216 203.5,-461.25 375.5,-461.25 375.5,-216 203.5,-216"/>
<text xml:space="preserve" text-anchor="start" x="211.5" y="-444.95" font-family="Times,serif" font-weight="bold" font-size="14.00" fill="#ff6b6b">Step 3: Diplomatic Penalty</text>
</g>
<g id="clust4" class="cluster">
<title>cluster_warning</title>
<polygon fill="#1a1a2e" stroke="#95d5b2" stroke-dasharray="5,2" points="177.5,-8 177.5,-197 401.5,-197 401.5,-8 177.5,-8"/>
<text xml:space="preserve" text-anchor="start" x="219" y="-180.7" font-family="Times,serif" font-weight="bold" font-size="14.00" fill="#95d5b2">Step 4: Warning System</text>
</g>
<!-- player_forces -->
<g id="node1" class="node">
<title>player_forces</title>
<path fill="#2d2d44" stroke="#4ecdc4" d="M276.88,-985C276.88,-985 200.12,-985 200.12,-985 194.12,-985 188.12,-979 188.12,-973 188.12,-973 188.12,-961 188.12,-961 188.12,-955 194.12,-949 200.12,-949 200.12,-949 276.88,-949 276.88,-949 282.88,-949 288.88,-955 288.88,-961 288.88,-961 288.88,-973 288.88,-973 288.88,-979 282.88,-985 276.88,-985"/>
<text xml:space="preserve" text-anchor="middle" x="238.5" y="-968.75" font-family="Helvetica,sans-Serif" font-size="10.00" fill="white">Player Forces</text>
<text xml:space="preserve" text-anchor="middle" x="238.5" y="-957.5" font-family="Helvetica,sans-Serif" font-size="10.00" fill="white">Enter NPR System</text>
</g>
<!-- check_value -->
<g id="node2" class="node">
<title>check_value</title>
<path fill="#2d2d44" stroke="#4ecdc4" d="M227.27,-907.78C227.27,-907.78 168.48,-885.72 168.48,-885.72 162.87,-883.61 162.87,-879.39 168.48,-877.28 168.48,-877.28 227.27,-855.22 227.27,-855.22 232.88,-853.11 244.12,-853.11 249.73,-855.22 249.73,-855.22 308.52,-877.28 308.52,-877.28 314.13,-879.39 314.13,-883.61 308.52,-885.72 308.52,-885.72 249.73,-907.78 249.73,-907.78 244.12,-909.89 232.88,-909.89 227.27,-907.78"/>
<text xml:space="preserve" text-anchor="middle" x="238.5" y="-883.25" font-family="Helvetica,sans-Serif" font-size="10.00" fill="white">Check System</text>
<text xml:space="preserve" text-anchor="middle" x="238.5" y="-872" font-family="Helvetica,sans-Serif" font-size="10.00" fill="white">Value Level</text>
</g>
<!-- player_forces&#45;&gt;check_value -->
<g id="edge1" class="edge">
<title>player_forces&#45;&gt;check_value</title>
<path fill="none" stroke="#4ecdc4" d="M238.5,-948.87C238.5,-948.87 238.5,-923.91 238.5,-923.91"/>
<polygon fill="#4ecdc4" stroke="#4ecdc4" points="242,-923.91 238.5,-913.91 235,-923.91 242,-923.91"/>
</g>
<!-- neutral_claimed -->
<g id="node3" class="node">
<title>neutral_claimed</title>
<path fill="#2d4d3d" stroke="#4ecdc4" d="M61,-805.25C61,-805.25 12,-805.25 12,-805.25 6,-805.25 0,-799.25 0,-793.25 0,-793.25 0,-781.25 0,-781.25 0,-775.25 6,-769.25 12,-769.25 12,-769.25 61,-769.25 61,-769.25 67,-769.25 73,-775.25 73,-781.25 73,-781.25 73,-793.25 73,-793.25 73,-799.25 67,-805.25 61,-805.25"/>
<text xml:space="preserve" text-anchor="middle" x="36.5" y="-789" font-family="Helvetica,sans-Serif" font-size="10.00" fill="white">Neutral (1) or</text>
<text xml:space="preserve" text-anchor="middle" x="36.5" y="-777.75" font-family="Helvetica,sans-Serif" font-size="10.00" fill="white">Claimed (2)</text>
</g>
<!-- check_value&#45;&gt;neutral_claimed -->
<g id="edge2" class="edge">
<title>check_value&#45;&gt;neutral_claimed</title>
<path fill="none" stroke="#4ecdc4" d="M157.21,-882C101.08,-882 36.5,-882 36.5,-882 36.5,-882 36.5,-817.03 36.5,-817.03"/>
<polygon fill="#4ecdc4" stroke="#4ecdc4" points="40,-817.03 36.5,-807.03 33,-817.03 40,-817.03"/>
<text xml:space="preserve" text-anchor="middle" x="76.88" y="-824.45" font-family="Helvetica,sans-Serif" font-size="9.00" fill="white">value &lt;= 2</text>
</g>
<!-- secondary -->
<g id="node4" class="node">
<title>secondary</title>
<path fill="#4d4d2d" stroke="#4ecdc4" d="M167.88,-805.25C167.88,-805.25 103.12,-805.25 103.12,-805.25 97.12,-805.25 91.12,-799.25 91.12,-793.25 91.12,-793.25 91.12,-781.25 91.12,-781.25 91.12,-775.25 97.12,-769.25 103.12,-769.25 103.12,-769.25 167.88,-769.25 167.88,-769.25 173.88,-769.25 179.88,-775.25 179.88,-781.25 179.88,-781.25 179.88,-793.25 179.88,-793.25 179.88,-799.25 173.88,-805.25 167.88,-805.25"/>
<text xml:space="preserve" text-anchor="middle" x="135.5" y="-789" font-family="Helvetica,sans-Serif" font-size="10.00" fill="white">Secondary (3)</text>
<text xml:space="preserve" text-anchor="middle" x="135.5" y="-777.75" font-family="Helvetica,sans-Serif" font-size="10.00" fill="white">Base Threat: 2.5</text>
</g>
<!-- check_value&#45;&gt;secondary -->
<g id="edge3" class="edge">
<title>check_value&#45;&gt;secondary</title>
<path fill="none" stroke="#4ecdc4" d="M168.56,-876.95C168.56,-876.95 168.56,-816.93 168.56,-816.93"/>
<polygon fill="#4ecdc4" stroke="#4ecdc4" points="172.06,-816.93 168.56,-806.93 165.06,-816.93 172.06,-816.93"/>
<text xml:space="preserve" text-anchor="middle" x="177.25" y="-824.45" font-family="Helvetica,sans-Serif" font-size="9.00" fill="white">value = 3</text>
</g>
<!-- primary -->
<g id="node5" class="node">
<title>primary</title>
<path fill="#4d4d2d" stroke="#4ecdc4" d="M266.75,-805.25C266.75,-805.25 210.25,-805.25 210.25,-805.25 204.25,-805.25 198.25,-799.25 198.25,-793.25 198.25,-793.25 198.25,-781.25 198.25,-781.25 198.25,-775.25 204.25,-769.25 210.25,-769.25 210.25,-769.25 266.75,-769.25 266.75,-769.25 272.75,-769.25 278.75,-775.25 278.75,-781.25 278.75,-781.25 278.75,-793.25 278.75,-793.25 278.75,-799.25 272.75,-805.25 266.75,-805.25"/>
<text xml:space="preserve" text-anchor="middle" x="238.5" y="-789" font-family="Helvetica,sans-Serif" font-size="10.00" fill="white">Primary (4)</text>
<text xml:space="preserve" text-anchor="middle" x="238.5" y="-777.75" font-family="Helvetica,sans-Serif" font-size="10.00" fill="white">Base Threat: 5</text>
</g>
<!-- check_value&#45;&gt;primary -->
<g id="edge4" class="edge">
<title>check_value&#45;&gt;primary</title>
<path fill="none" stroke="#4ecdc4" d="M238.5,-850.64C238.5,-850.64 238.5,-817.03 238.5,-817.03"/>
<polygon fill="#4ecdc4" stroke="#4ecdc4" points="242,-817.03 238.5,-807.03 235,-817.03 242,-817.03"/>
<text xml:space="preserve" text-anchor="middle" x="257.25" y="-824.45" font-family="Helvetica,sans-Serif" font-size="9.00" fill="white">value = 4</text>
</g>
<!-- core -->
<g id="node6" class="node">
<title>core</title>
<path fill="#4d3d2d" stroke="#4ecdc4" d="M370.38,-805.25C370.38,-805.25 308.62,-805.25 308.62,-805.25 302.62,-805.25 296.62,-799.25 296.62,-793.25 296.62,-793.25 296.62,-781.25 296.62,-781.25 296.62,-775.25 302.62,-769.25 308.62,-769.25 308.62,-769.25 370.38,-769.25 370.38,-769.25 376.38,-769.25 382.38,-775.25 382.38,-781.25 382.38,-781.25 382.38,-793.25 382.38,-793.25 382.38,-799.25 376.38,-805.25 370.38,-805.25"/>
<text xml:space="preserve" text-anchor="middle" x="339.5" y="-789" font-family="Helvetica,sans-Serif" font-size="10.00" fill="white">Core (5)</text>
<text xml:space="preserve" text-anchor="middle" x="339.5" y="-777.75" font-family="Helvetica,sans-Serif" font-size="10.00" fill="white">Base Threat: 10</text>
</g>
<!-- check_value&#45;&gt;core -->
<g id="edge5" class="edge">
<title>check_value&#45;&gt;core</title>
<path fill="none" stroke="#4ecdc4" d="M308.19,-876.7C308.19,-876.7 308.19,-817.17 308.19,-817.17"/>
<polygon fill="#4ecdc4" stroke="#4ecdc4" points="311.69,-817.17 308.19,-807.17 304.69,-817.17 311.69,-817.17"/>
<text xml:space="preserve" text-anchor="middle" x="338.25" y="-824.45" font-family="Helvetica,sans-Serif" font-size="9.00" fill="white">value = 5</text>
</g>
<!-- capital -->
<g id="node7" class="node">
<title>capital</title>
<path fill="#4d2d2d" stroke="#4ecdc4" d="M474.38,-805.25C474.38,-805.25 412.62,-805.25 412.62,-805.25 406.62,-805.25 400.62,-799.25 400.62,-793.25 400.62,-793.25 400.62,-781.25 400.62,-781.25 400.62,-775.25 406.62,-769.25 412.62,-769.25 412.62,-769.25 474.38,-769.25 474.38,-769.25 480.38,-769.25 486.38,-775.25 486.38,-781.25 486.38,-781.25 486.38,-793.25 486.38,-793.25 486.38,-799.25 480.38,-805.25 474.38,-805.25"/>
<text xml:space="preserve" text-anchor="middle" x="443.5" y="-789" font-family="Helvetica,sans-Serif" font-size="10.00" fill="white">Capital (6)</text>
<text xml:space="preserve" text-anchor="middle" x="443.5" y="-777.75" font-family="Helvetica,sans-Serif" font-size="10.00" fill="white">Base Threat: 20</text>
</g>
<!-- check_value&#45;&gt;capital -->
<g id="edge6" class="edge">
<title>check_value&#45;&gt;capital</title>
<path fill="none" stroke="#4ecdc4" d="M319.82,-882C377.05,-882 443.5,-882 443.5,-882 443.5,-882 443.5,-817.03 443.5,-817.03"/>
<polygon fill="#4ecdc4" stroke="#4ecdc4" points="447,-817.03 443.5,-807.03 440,-817.03 447,-817.03"/>
<text xml:space="preserve" text-anchor="middle" x="430.25" y="-824.45" font-family="Helvetica,sans-Serif" font-size="9.00" fill="white">value = 6</text>
</g>
<!-- no_intrusion -->
<g id="node8" class="node">
<title>no_intrusion</title>
<path fill="#2d4d3d" stroke="#4ecdc4" d="M59.12,-697.25C59.12,-697.25 13.88,-697.25 13.88,-697.25 7.88,-697.25 1.88,-691.25 1.88,-685.25 1.88,-685.25 1.88,-673.25 1.88,-673.25 1.88,-667.25 7.88,-661.25 13.88,-661.25 13.88,-661.25 59.12,-661.25 59.12,-661.25 65.12,-661.25 71.12,-667.25 71.12,-673.25 71.12,-673.25 71.12,-685.25 71.12,-685.25 71.12,-691.25 65.12,-697.25 59.12,-697.25"/>
<text xml:space="preserve" text-anchor="middle" x="36.5" y="-681" font-family="Helvetica,sans-Serif" font-size="10.00" fill="white">No Intrusion</text>
<text xml:space="preserve" text-anchor="middle" x="36.5" y="-669.75" font-family="Helvetica,sans-Serif" font-size="10.00" fill="white">Penalty</text>
</g>
<!-- neutral_claimed&#45;&gt;no_intrusion -->
<g id="edge7" class="edge">
<title>neutral_claimed&#45;&gt;no_intrusion</title>
<path fill="none" stroke="#4ecdc4" d="M36.5,-768.93C36.5,-768.93 36.5,-709.17 36.5,-709.17"/>
<polygon fill="#4ecdc4" stroke="#4ecdc4" points="40,-709.17 36.5,-699.17 33,-709.17 40,-709.17"/>
</g>
<!-- get_modifier -->
<g id="node9" class="node">
<title>get_modifier</title>
<path fill="#2d2d44" stroke="#4ecdc4" d="M278.15,-705.85C278.15,-705.85 212.1,-683.15 212.1,-683.15 206.42,-681.2 206.42,-677.3 212.1,-675.35 212.1,-675.35 278.15,-652.65 278.15,-652.65 283.83,-650.7 295.17,-650.7 300.85,-652.65 300.85,-652.65 366.9,-675.35 366.9,-675.35 372.58,-677.3 372.58,-681.2 366.9,-683.15 366.9,-683.15 300.85,-705.85 300.85,-705.85 295.17,-707.8 283.83,-707.8 278.15,-705.85"/>
<text xml:space="preserve" text-anchor="middle" x="289.5" y="-681" font-family="Helvetica,sans-Serif" font-size="10.00" fill="white">Get Relationship</text>
<text xml:space="preserve" text-anchor="middle" x="289.5" y="-669.75" font-family="Helvetica,sans-Serif" font-size="10.00" fill="white">Status Modifier</text>
</g>
<!-- secondary&#45;&gt;get_modifier -->
<g id="edge8" class="edge">
<title>secondary&#45;&gt;get_modifier</title>
<path fill="none" stroke="#4ecdc4" d="M168.69,-768.77C168.69,-744.25 168.69,-704 168.69,-704 168.69,-704 259.9,-704 259.9,-704"/>
<polygon fill="#4ecdc4" stroke="#4ecdc4" points="259.9,-707.5 269.9,-704 259.9,-700.5 259.9,-707.5"/>
</g>
<!-- primary&#45;&gt;get_modifier -->
<g id="edge9" class="edge">
<title>primary&#45;&gt;get_modifier</title>
<path fill="none" stroke="#4ecdc4" d="M239.75,-768.93C239.75,-768.93 239.75,-704.38 239.75,-704.38"/>
<polygon fill="#4ecdc4" stroke="#4ecdc4" points="243.25,-704.38 239.75,-694.38 236.25,-704.38 243.25,-704.38"/>
</g>
<!-- core&#45;&gt;get_modifier -->
<g id="edge10" class="edge">
<title>core&#45;&gt;get_modifier</title>
<path fill="none" stroke="#4ecdc4" d="M337.44,-768.93C337.44,-768.93 337.44,-705.03 337.44,-705.03"/>
<polygon fill="#4ecdc4" stroke="#4ecdc4" points="340.94,-705.03 337.44,-695.03 333.94,-705.03 340.94,-705.03"/>
</g>
<!-- capital&#45;&gt;get_modifier -->
<g id="edge11" class="edge">
<title>capital&#45;&gt;get_modifier</title>
<path fill="none" stroke="#4ecdc4" d="M419,-768.89C419,-738 419,-679 419,-679 419,-679 390.25,-679 390.25,-679"/>
<polygon fill="#4ecdc4" stroke="#4ecdc4" points="390.25,-675.5 380.25,-679 390.25,-682.5 390.25,-675.5"/>
</g>
<!-- friendly_mod -->
<g id="node10" class="node">
<title>friendly_mod</title>
<path fill="#2d4d3d" stroke="#4ecdc4" d="M215.5,-603C215.5,-603 169.5,-603 169.5,-603 163.5,-603 157.5,-597 157.5,-591 157.5,-591 157.5,-579 157.5,-579 157.5,-573 163.5,-567 169.5,-567 169.5,-567 215.5,-567 215.5,-567 221.5,-567 227.5,-573 227.5,-579 227.5,-579 227.5,-591 227.5,-591 227.5,-597 221.5,-603 215.5,-603"/>
<text xml:space="preserve" text-anchor="middle" x="192.5" y="-586.75" font-family="Helvetica,sans-Serif" font-size="10.00" fill="white">Friendly</text>
<text xml:space="preserve" text-anchor="middle" x="192.5" y="-575.5" font-family="Helvetica,sans-Serif" font-size="10.00" fill="white">Modifier: 0.5</text>
</g>
<!-- get_modifier&#45;&gt;friendly_mod -->
<g id="edge12" class="edge">
<title>get_modifier&#45;&gt;friendly_mod</title>
<path fill="none" stroke="#4ecdc4" d="M214.12,-674.18C214.12,-674.18 214.12,-614.77 214.12,-614.77"/>
<polygon fill="#4ecdc4" stroke="#4ecdc4" points="217.63,-614.77 214.13,-604.77 210.63,-614.77 217.63,-614.77"/>
<text xml:space="preserve" text-anchor="middle" x="229.5" y="-622.2" font-family="Helvetica,sans-Serif" font-size="9.00" fill="white">friendly</text>
</g>
<!-- neutral_pos_mod -->
<g id="node11" class="node">
<title>neutral_pos_mod</title>
<path fill="#4d4d2d" stroke="#4ecdc4" d="M321.88,-603C321.88,-603 257.12,-603 257.12,-603 251.12,-603 245.12,-597 245.12,-591 245.12,-591 245.12,-579 245.12,-579 245.12,-573 251.12,-567 257.12,-567 257.12,-567 321.88,-567 321.88,-567 327.88,-567 333.88,-573 333.88,-579 333.88,-579 333.88,-591 333.88,-591 333.88,-597 327.88,-603 321.88,-603"/>
<text xml:space="preserve" text-anchor="middle" x="289.5" y="-586.75" font-family="Helvetica,sans-Serif" font-size="10.00" fill="white">Neutral (+points)</text>
<text xml:space="preserve" text-anchor="middle" x="289.5" y="-575.5" font-family="Helvetica,sans-Serif" font-size="10.00" fill="white">Modifier: 1.0</text>
</g>
<!-- get_modifier&#45;&gt;neutral_pos_mod -->
<g id="edge13" class="edge">
<title>get_modifier&#45;&gt;neutral_pos_mod</title>
<path fill="none" stroke="#4ecdc4" d="M289.5,-648.39C289.5,-648.39 289.5,-614.78 289.5,-614.78"/>
<polygon fill="#4ecdc4" stroke="#4ecdc4" points="293,-614.78 289.5,-604.78 286,-614.78 293,-614.78"/>
<text xml:space="preserve" text-anchor="middle" x="306.38" y="-622.2" font-family="Helvetica,sans-Serif" font-size="9.00" fill="white">neutral+</text>
</g>
<!-- neutral_neg_mod -->
<g id="node12" class="node">
<title>neutral_neg_mod</title>
<path fill="#4d3d2d" stroke="#4ecdc4" d="M425.38,-603C425.38,-603 363.62,-603 363.62,-603 357.62,-603 351.62,-597 351.62,-591 351.62,-591 351.62,-579 351.62,-579 351.62,-573 357.62,-567 363.62,-567 363.62,-567 425.38,-567 425.38,-567 431.38,-567 437.38,-573 437.38,-579 437.38,-579 437.38,-591 437.38,-591 437.38,-597 431.38,-603 425.38,-603"/>
<text xml:space="preserve" text-anchor="middle" x="394.5" y="-586.75" font-family="Helvetica,sans-Serif" font-size="10.00" fill="white">Neutral (&#45;points)</text>
<text xml:space="preserve" text-anchor="middle" x="394.5" y="-575.5" font-family="Helvetica,sans-Serif" font-size="10.00" fill="white">Modifier: 2.0</text>
</g>
<!-- get_modifier&#45;&gt;neutral_neg_mod -->
<g id="edge14" class="edge">
<title>get_modifier&#45;&gt;neutral_neg_mod</title>
<path fill="none" stroke="#4ecdc4" d="M364.94,-674.18C364.94,-674.18 364.94,-614.77 364.94,-614.77"/>
<polygon fill="#4ecdc4" stroke="#4ecdc4" points="368.44,-614.77 364.94,-604.77 361.44,-614.77 368.44,-614.77"/>
<text xml:space="preserve" text-anchor="middle" x="386.25" y="-622.2" font-family="Helvetica,sans-Serif" font-size="9.00" fill="white">neutral&#45;</text>
</g>
<!-- calc_threat -->
<g id="node13" class="node">
<title>calc_threat</title>
<path fill="#ffe66d" stroke="#4ecdc4" d="M326.38,-530C326.38,-530 252.62,-530 252.62,-530 246.62,-530 240.62,-524 240.62,-518 240.62,-518 240.62,-500.25 240.62,-500.25 240.62,-494.25 246.62,-488.25 252.62,-488.25 252.62,-488.25 326.38,-488.25 326.38,-488.25 332.38,-488.25 338.38,-494.25 338.38,-500.25 338.38,-500.25 338.38,-518 338.38,-518 338.38,-524 332.38,-530 326.38,-530"/>
<text xml:space="preserve" text-anchor="middle" x="289.5" y="-516.5" font-family="Helvetica,sans-Serif" font-size="10.00" fill="#1a1a2e">Threat Level =</text>
<text xml:space="preserve" text-anchor="middle" x="289.5" y="-505.25" font-family="Helvetica,sans-Serif" font-size="10.00" fill="#1a1a2e">Base x Modifier x</text>
<text xml:space="preserve" text-anchor="middle" x="289.5" y="-494" font-family="Helvetica,sans-Serif" font-size="10.00" fill="#1a1a2e">(Xenophobia / 100)</text>
</g>
<!-- friendly_mod&#45;&gt;calc_threat -->
<g id="edge15" class="edge">
<title>friendly_mod&#45;&gt;calc_threat</title>
<path fill="none" stroke="#4ecdc4" d="M220.38,-566.6C220.38,-544.11 220.38,-509 220.38,-509 220.38,-509 228.86,-509 228.86,-509"/>
<polygon fill="#4ecdc4" stroke="#4ecdc4" points="228.86,-512.5 238.86,-509 228.86,-505.5 228.86,-512.5"/>
</g>
<!-- neutral_pos_mod&#45;&gt;calc_threat -->
<g id="edge16" class="edge">
<title>neutral_pos_mod&#45;&gt;calc_threat</title>
<path fill="none" stroke="#4ecdc4" d="M289.5,-566.63C289.5,-566.63 289.5,-541.79 289.5,-541.79"/>
<polygon fill="#4ecdc4" stroke="#4ecdc4" points="293,-541.79 289.5,-531.79 286,-541.79 293,-541.79"/>
</g>
<!-- neutral_neg_mod&#45;&gt;calc_threat -->
<g id="edge17" class="edge">
<title>neutral_neg_mod&#45;&gt;calc_threat</title>
<path fill="none" stroke="#4ecdc4" d="M358.69,-566.6C358.69,-544.11 358.69,-509 358.69,-509 358.69,-509 350.19,-509 350.19,-509"/>
<polygon fill="#4ecdc4" stroke="#4ecdc4" points="350.19,-505.5 340.19,-509 350.19,-512.5 350.19,-505.5"/>
</g>
<!-- calc_tonnage -->
<g id="node14" class="node">
<title>calc_tonnage</title>
<path fill="#2d2d44" stroke="#4ecdc4" d="M330.5,-428.75C330.5,-428.75 248.5,-428.75 248.5,-428.75 242.5,-428.75 236.5,-422.75 236.5,-416.75 236.5,-416.75 236.5,-387.75 236.5,-387.75 236.5,-381.75 242.5,-375.75 248.5,-375.75 248.5,-375.75 330.5,-375.75 330.5,-375.75 336.5,-375.75 342.5,-381.75 342.5,-387.75 342.5,-387.75 342.5,-416.75 342.5,-416.75 342.5,-422.75 336.5,-428.75 330.5,-428.75"/>
<text xml:space="preserve" text-anchor="middle" x="289.5" y="-415.25" font-family="Helvetica,sans-Serif" font-size="10.00" fill="white">Calculate Detected</text>
<text xml:space="preserve" text-anchor="middle" x="289.5" y="-404" font-family="Helvetica,sans-Serif" font-size="10.00" fill="white">Tonnage</text>
<text xml:space="preserve" text-anchor="middle" x="289.5" y="-392.75" font-family="Helvetica,sans-Serif" font-size="10.00" fill="white">(non&#45;military at 10%,</text>
<text xml:space="preserve" text-anchor="middle" x="289.5" y="-381.5" font-family="Helvetica,sans-Serif" font-size="10.00" fill="white">diplo ships &#45;10,000)</text>
</g>
<!-- calc_threat&#45;&gt;calc_tonnage -->
<g id="edge18" class="edge">
<title>calc_threat&#45;&gt;calc_tonnage</title>
<path fill="none" stroke="#4ecdc4" d="M289.5,-487.75C289.5,-487.75 289.5,-440.41 289.5,-440.41"/>
<polygon fill="#4ecdc4" stroke="#4ecdc4" points="293,-440.41 289.5,-430.41 286,-440.41 293,-440.41"/>
</g>
<!-- calc_penalty -->
<g id="node15" class="node">
<title>calc_penalty</title>
<path fill="#ff6b6b" stroke="#4ecdc4" d="M353.75,-338.75C353.75,-338.75 225.25,-338.75 225.25,-338.75 219.25,-338.75 213.25,-332.75 213.25,-326.75 213.25,-326.75 213.25,-309 213.25,-309 213.25,-303 219.25,-297 225.25,-297 225.25,-297 353.75,-297 353.75,-297 359.75,-297 365.75,-303 365.75,-309 365.75,-309 365.75,-326.75 365.75,-326.75 365.75,-332.75 359.75,-338.75 353.75,-338.75"/>
<text xml:space="preserve" text-anchor="middle" x="289.5" y="-325.25" font-family="Helvetica,sans-Serif" font-size="10.00" fill="white">Penalty =</text>
<text xml:space="preserve" text-anchor="middle" x="289.5" y="-314" font-family="Helvetica,sans-Serif" font-size="10.00" fill="white">SQRT(Tonnage + PopEM x 10)</text>
<text xml:space="preserve" text-anchor="middle" x="289.5" y="-302.75" font-family="Helvetica,sans-Serif" font-size="10.00" fill="white">x Threat Level</text>
</g>
<!-- calc_tonnage&#45;&gt;calc_penalty -->
<g id="edge19" class="edge">
<title>calc_tonnage&#45;&gt;calc_penalty</title>
<path fill="none" stroke="#4ecdc4" d="M289.5,-375.55C289.5,-375.55 289.5,-350.57 289.5,-350.57"/>
<polygon fill="#4ecdc4" stroke="#4ecdc4" points="293,-350.57 289.5,-340.57 286,-350.57 293,-350.57"/>
</g>
<!-- apply_penalty -->
<g id="node16" class="node">
<title>apply_penalty</title>
<path fill="#2d2d44" stroke="#4ecdc4" d="M324.12,-260C324.12,-260 254.88,-260 254.88,-260 248.88,-260 242.88,-254 242.88,-248 242.88,-248 242.88,-236 242.88,-236 242.88,-230 248.88,-224 254.88,-224 254.88,-224 324.12,-224 324.12,-224 330.12,-224 336.12,-230 336.12,-236 336.12,-236 336.12,-248 336.12,-248 336.12,-254 330.12,-260 324.12,-260"/>
<text xml:space="preserve" text-anchor="middle" x="289.5" y="-243.75" font-family="Helvetica,sans-Serif" font-size="10.00" fill="white">Apply Negative</text>
<text xml:space="preserve" text-anchor="middle" x="289.5" y="-232.5" font-family="Helvetica,sans-Serif" font-size="10.00" fill="white">Diplomatic Points</text>
</g>
<!-- calc_penalty&#45;&gt;apply_penalty -->
<g id="edge20" class="edge">
<title>calc_penalty&#45;&gt;apply_penalty</title>
<path fill="none" stroke="#4ecdc4" d="M289.5,-296.74C289.5,-296.74 289.5,-271.96 289.5,-271.96"/>
<polygon fill="#4ecdc4" stroke="#4ecdc4" points="293,-271.96 289.5,-261.96 286,-271.96 293,-271.96"/>
</g>
<!-- check_hostility -->
<g id="node17" class="node">
<title>check_hostility</title>
<path fill="#2d2d44" stroke="#4ecdc4" d="M277.99,-161.12C277.99,-161.12 197.26,-137.38 197.26,-137.38 191.51,-135.69 191.51,-132.31 197.26,-130.62 197.26,-130.62 277.99,-106.88 277.99,-106.88 283.74,-105.19 295.26,-105.19 301.01,-106.88 301.01,-106.88 381.74,-130.62 381.74,-130.62 387.49,-132.31 387.49,-135.69 381.74,-137.38 381.74,-137.38 301.01,-161.12 301.01,-161.12 295.26,-162.81 283.74,-162.81 277.99,-161.12"/>
<text xml:space="preserve" text-anchor="middle" x="289.5" y="-135.75" font-family="Helvetica,sans-Serif" font-size="10.00" fill="white">NPR Views Player</text>
<text xml:space="preserve" text-anchor="middle" x="289.5" y="-124.5" font-family="Helvetica,sans-Serif" font-size="10.00" fill="white">as Neutral/Friendly?</text>
</g>
<!-- apply_penalty&#45;&gt;check_hostility -->
<g id="edge21" class="edge">
<title>apply_penalty&#45;&gt;check_hostility</title>
<path fill="none" stroke="#4ecdc4" d="M289.5,-223.68C289.5,-223.68 289.5,-176.21 289.5,-176.21"/>
<polygon fill="#4ecdc4" stroke="#4ecdc4" points="293,-176.21 289.5,-166.21 286,-176.21 293,-176.21"/>
</g>
<!-- issue_warning -->
<g id="node18" class="node">
<title>issue_warning</title>
<path fill="#2d2d44" stroke="#4ecdc4" d="M275.5,-57.75C275.5,-57.75 199.5,-57.75 199.5,-57.75 193.5,-57.75 187.5,-51.75 187.5,-45.75 187.5,-45.75 187.5,-28 187.5,-28 187.5,-22 193.5,-16 199.5,-16 199.5,-16 275.5,-16 275.5,-16 281.5,-16 287.5,-22 287.5,-28 287.5,-28 287.5,-45.75 287.5,-45.75 287.5,-51.75 281.5,-57.75 275.5,-57.75"/>
<text xml:space="preserve" text-anchor="middle" x="237.5" y="-44.25" font-family="Helvetica,sans-Serif" font-size="10.00" fill="white">Issue Warning</text>
<text xml:space="preserve" text-anchor="middle" x="237.5" y="-33" font-family="Helvetica,sans-Serif" font-size="10.00" fill="white">(5 escalating levels</text>
<text xml:space="preserve" text-anchor="middle" x="237.5" y="-21.75" font-family="Helvetica,sans-Serif" font-size="10.00" fill="white">based on threat)</text>
</g>
<!-- check_hostility&#45;&gt;issue_warning -->
<g id="edge22" class="edge">
<title>check_hostility&#45;&gt;issue_warning</title>
<path fill="none" stroke="#4ecdc4" d="M237.5,-118.4C237.5,-118.4 237.5,-69.75 237.5,-69.75"/>
<polygon fill="#4ecdc4" stroke="#4ecdc4" points="241,-69.75 237.5,-59.75 234,-69.75 241,-69.75"/>
<text xml:space="preserve" text-anchor="middle" x="251.62" y="-76.95" font-family="Helvetica,sans-Serif" font-size="9.00" fill="white">yes</text>
</g>
<!-- no_warning -->
<g id="node19" class="node">
<title>no_warning</title>
<path fill="#2d2d44" stroke="#4ecdc4" d="M379,-54.88C379,-54.88 318,-54.88 318,-54.88 312,-54.88 306,-48.88 306,-42.88 306,-42.88 306,-30.87 306,-30.87 306,-24.88 312,-18.88 318,-18.88 318,-18.88 379,-18.88 379,-18.88 385,-18.88 391,-24.88 391,-30.88 391,-30.88 391,-42.88 391,-42.88 391,-48.88 385,-54.88 379,-54.88"/>
<text xml:space="preserve" text-anchor="middle" x="348.5" y="-38.62" font-family="Helvetica,sans-Serif" font-size="10.00" fill="white">No Warning</text>
<text xml:space="preserve" text-anchor="middle" x="348.5" y="-27.38" font-family="Helvetica,sans-Serif" font-size="10.00" fill="white">(already hostile)</text>
</g>
<!-- check_hostility&#45;&gt;no_warning -->
<g id="edge23" class="edge">
<title>check_hostility&#45;&gt;no_warning</title>
<path fill="none" stroke="#4ecdc4" d="M348.5,-120.5C348.5,-120.5 348.5,-66.75 348.5,-66.75"/>
<polygon fill="#4ecdc4" stroke="#4ecdc4" points="352,-66.75 348.5,-56.75 345,-66.75 352,-66.75"/>
<text xml:space="preserve" text-anchor="middle" x="323.75" y="-76.95" font-family="Helvetica,sans-Serif" font-size="9.00" fill="white">no</text>
</g>
</g>
</svg>
