<?xml version="1.0" encoding="UTF-8" standalone="no"?>
<!DOCTYPE svg PUBLIC "-//W3C//DTD SVG 1.1//EN"
 "http://www.w3.org/Graphics/SVG/1.1/DTD/svg11.dtd">
<!-- Generated by graphviz version 14.1.2 (20260124.0452)
 -->
<!-- Title: npr_behavior_tree Pages: 1 -->
<svg width="1479pt" height="416pt"
 viewBox="0.00 0.00 1479.00 416.00" xmlns="http://www.w3.org/2000/svg" xmlns:xlink="http://www.w3.org/1999/xlink">
<g id="graph0" class="graph" transform="scale(1 1) rotate(0) translate(4 411.51)">
<title>npr_behavior_tree</title>
<polygon fill="#1a1a2e" stroke="none" points="-4,4 -4,-411.51 1474.88,-411.51 1474.88,4 -4,4"/>
<text xml:space="preserve" text-anchor="start" x="639.44" y="-389.31" font-family="Times,serif" font-weight="bold" font-size="16.00" fill="white">NPR Behavior Decision Tree</text>
<g id="clust1" class="cluster">
<title>cluster_traits</title>
<polygon fill="#1a1a2e" stroke="#ffe66d" stroke-dasharray="5,2" points="8,-174.88 8,-292.88 472,-292.88 472,-174.88 8,-174.88"/>
<text xml:space="preserve" text-anchor="start" x="180.38" y="-276.58" font-family="Times,serif" font-weight="bold" font-size="14.00" fill="#ffe66d">NPR Characteristics</text>
</g>
<g id="clust2" class="cluster">
<title>cluster_p1</title>
<polygon fill="#1a1a2e" stroke="#ff6b6b" stroke-dasharray="5,2" points="885,-77.76 885,-296.88 1041,-296.88 1041,-77.76 885,-77.76"/>
<text xml:space="preserve" text-anchor="start" x="897" y="-280.58" font-family="Times,serif" font-weight="bold" font-size="14.00" fill="#ff6b6b">Priority 1: CRITICAL</text>
</g>
<g id="clust3" class="cluster">
<title>cluster_p2</title>
<polygon fill="#1a1a2e" stroke="#ff9966" stroke-dasharray="5,2" points="480,-72.13 480,-296.88 636,-296.88 636,-72.13 480,-72.13"/>
<text xml:space="preserve" text-anchor="start" x="506.25" y="-280.58" font-family="Times,serif" font-weight="bold" font-size="14.00" fill="#ff9966">Priority 2: HIGH</text>
</g>
<g id="clust4" class="cluster">
<title>cluster_p3</title>
<polygon fill="#1a1a2e" stroke="#ffe66d" stroke-dasharray="5,2" points="1049,-72.13 1049,-296.88 1209,-296.88 1209,-72.13 1049,-72.13"/>
<text xml:space="preserve" text-anchor="start" x="1059.25" y="-280.58" font-family="Times,serif" font-weight="bold" font-size="14.00" fill="#ffe66d">Priority 3: STANDARD</text>
</g>
<g id="clust5" class="cluster">
<title>cluster_p4</title>
<polygon fill="#1a1a2e" stroke="#95d5b2" stroke-dasharray="5,2" points="644,-72.13 644,-296.88 832,-296.88 832,-72.13 644,-72.13"/>
<text xml:space="preserve" text-anchor="start" x="669" y="-280.58" font-family="Times,serif" font-weight="bold" font-size="14.00" fill="#95d5b2">Priority 4: OPTIONAL</text>
</g>
<g id="clust6" class="cluster">
<title>cluster_p5</title>
<polygon fill="#1a1a2e" stroke="#4ecdc4" stroke-dasharray="5,2" points="1217,-72.13 1217,-296.88 1389,-296.88 1389,-72.13 1217,-72.13"/>
<text xml:space="preserve" text-anchor="start" x="1226.12" y="-280.58" font-family="Times,serif" font-weight="bold" font-size="14.00" fill="#4ecdc4">Priority 5: AGGRESSIVE</text>
</g>
<!-- xenophobia -->
<g id="node1" class="node">
<title>xenophobia</title>
<path fill="#4d2d2d" stroke="#4ecdc4" d="M94.12,-230.26C94.12,-230.26 27.88,-230.26 27.88,-230.26 21.88,-230.26 15.88,-224.26 15.88,-218.26 15.88,-218.26 15.88,-200.51 15.88,-200.51 15.88,-194.51 21.88,-188.51 27.88,-188.51 27.88,-188.51 94.12,-188.51 94.12,-188.51 100.12,-188.51 106.12,-194.51 106.12,-200.51 106.12,-200.51 106.12,-218.26 106.12,-218.26 106.12,-224.26 100.12,-230.26 94.12,-230.26"/>
<text xml:space="preserve" text-anchor="middle" x="61" y="-216.76" font-family="Helvetica,sans-Serif" font-size="10.00" fill="white">Xenophobia</text>
<text xml:space="preserve" text-anchor="middle" x="61" y="-205.51" font-family="Helvetica,sans-Serif" font-size="10.00" fill="white">(1&#45;100)</text>
<text xml:space="preserve" text-anchor="middle" x="61" y="-194.26" font-family="Helvetica,sans-Serif" font-size="10.00" fill="white">Distrust of aliens</text>
</g>
<!-- check_home -->
<g id="node7" class="node">
<title>check_home</title>
<path fill="#2d2d44" stroke="#4ecdc4" d="M952,-235.09C952,-235.09 904,-214.18 904,-214.18 898.5,-211.78 898.5,-206.99 904,-204.59 904,-204.59 952,-183.68 952,-183.68 957.5,-181.28 968.5,-181.28 974,-183.68 974,-183.68 1022,-204.59 1022,-204.59 1027.5,-206.99 1027.5,-211.78 1022,-214.18 1022,-214.18 974,-235.09 974,-235.09 968.5,-237.49 957.5,-237.49 952,-235.09"/>
<text xml:space="preserve" text-anchor="middle" x="963" y="-211.13" font-family="Helvetica,sans-Serif" font-size="10.00" fill="white">Homeworld</text>
<text xml:space="preserve" text-anchor="middle" x="963" y="-199.88" font-family="Helvetica,sans-Serif" font-size="10.00" fill="white">Threatened?</text>
</g>
<!-- xenophobia&#45;&gt;check_home -->
<g id="edge12" class="edge">
<title>xenophobia&#45;&gt;check_home</title>
<path fill="none" stroke="#666666" stroke-dasharray="5,2" d="M66.91,-230.33C75.11,-254.58 92.58,-292.87 124,-305.88 142.04,-313.36 808.39,-311.81 827,-305.88 868.39,-292.69 907.98,-261.82 933.66,-238.52"/>
<polygon fill="#666666" stroke="#666666" points="935.76,-241.34 940.71,-231.97 931,-236.21 935.76,-241.34"/>
</g>
<!-- militancy -->
<g id="node2" class="node">
<title>militancy</title>
<path fill="#4d3d2d" stroke="#4ecdc4" d="M189.75,-235.88C189.75,-235.88 136.25,-235.88 136.25,-235.88 130.25,-235.88 124.25,-229.88 124.25,-223.88 124.25,-223.88 124.25,-194.88 124.25,-194.88 124.25,-188.88 130.25,-182.88 136.25,-182.88 136.25,-182.88 189.75,-182.88 189.75,-182.88 195.75,-182.88 201.75,-188.88 201.75,-194.88 201.75,-194.88 201.75,-223.88 201.75,-223.88 201.75,-229.88 195.75,-235.88 189.75,-235.88"/>
<text xml:space="preserve" text-anchor="middle" x="163" y="-222.38" font-family="Helvetica,sans-Serif" font-size="10.00" fill="white">Militancy</text>
<text xml:space="preserve" text-anchor="middle" x="163" y="-211.13" font-family="Helvetica,sans-Serif" font-size="10.00" fill="white">(1&#45;100)</text>
<text xml:space="preserve" text-anchor="middle" x="163" y="-199.88" font-family="Helvetica,sans-Serif" font-size="10.00" fill="white">Willingness to</text>
<text xml:space="preserve" text-anchor="middle" x="163" y="-188.63" font-family="Helvetica,sans-Serif" font-size="10.00" fill="white">use force</text>
</g>
<!-- protect_colonies -->
<g id="node10" class="node">
<title>protect_colonies</title>
<path fill="#b22222" stroke="#4ecdc4" d="M599.38,-133.13C599.38,-133.13 552.62,-133.13 552.62,-133.13 546.62,-133.13 540.62,-127.13 540.62,-121.13 540.62,-121.13 540.62,-92.13 540.62,-92.13 540.62,-86.13 546.62,-80.13 552.62,-80.13 552.62,-80.13 599.38,-80.13 599.38,-80.13 605.38,-80.13 611.38,-86.13 611.38,-92.13 611.38,-92.13 611.38,-121.13 611.38,-121.13 611.38,-127.13 605.38,-133.13 599.38,-133.13"/>
<text xml:space="preserve" text-anchor="middle" x="576" y="-119.63" font-family="Helvetica,sans-Serif" font-size="10.00" fill="white">PROTECT</text>
<text xml:space="preserve" text-anchor="middle" x="576" y="-108.38" font-family="Helvetica,sans-Serif" font-size="10.00" fill="white">COLONIES</text>
<text xml:space="preserve" text-anchor="middle" x="576" y="-97.13" font-family="Helvetica,sans-Serif" font-size="10.00" fill="white">(Proportional</text>
<text xml:space="preserve" text-anchor="middle" x="576" y="-85.88" font-family="Helvetica,sans-Serif" font-size="10.00" fill="white">to value)</text>
</g>
<!-- militancy&#45;&gt;protect_colonies -->
<g id="edge14" class="edge">
<title>militancy&#45;&gt;protect_colonies</title>
<path fill="none" stroke="#666666" stroke-dasharray="5,2" d="M196.31,-182.51C201.06,-179.61 206.03,-176.96 211,-174.88 319.13,-129.7 457.85,-114.78 529.11,-109.92"/>
<polygon fill="#666666" stroke="#666666" points="529.11,-113.43 538.86,-109.3 528.66,-106.44 529.11,-113.43"/>
</g>
<!-- check_power -->
<g id="node15" class="node">
<title>check_power</title>
<path fill="#2d2d44" stroke="#4ecdc4" d="M1291.82,-235.53C1291.82,-235.53 1235.93,-213.74 1235.93,-213.74 1230.34,-211.56 1230.34,-207.2 1235.93,-205.03 1235.93,-205.03 1291.82,-183.24 1291.82,-183.24 1297.41,-181.06 1308.59,-181.06 1314.18,-183.24 1314.18,-183.24 1370.07,-205.03 1370.07,-205.03 1375.66,-207.2 1375.66,-211.56 1370.07,-213.74 1370.07,-213.74 1314.18,-235.53 1314.18,-235.53 1308.59,-237.7 1297.41,-237.7 1291.82,-235.53"/>
<text xml:space="preserve" text-anchor="middle" x="1303" y="-211.13" font-family="Helvetica,sans-Serif" font-size="10.00" fill="white">High Militancy</text>
<text xml:space="preserve" text-anchor="middle" x="1303" y="-199.88" font-family="Helvetica,sans-Serif" font-size="10.00" fill="white">&amp; Strength?</text>
</g>
<!-- militancy&#45;&gt;check_power -->
<g id="edge13" class="edge">
<title>militancy&#45;&gt;check_power</title>
<path fill="none" stroke="#666666" stroke-dasharray="5,2" d="M169.32,-236.27C176.73,-260.55 191.78,-294.19 220,-305.88 245.25,-316.34 1178.68,-316.18 1204,-305.88 1235.27,-293.17 1262.05,-265.3 1279.85,-242.77"/>
<polygon fill="#666666" stroke="#666666" points="1282.48,-245.09 1285.77,-235.02 1276.92,-240.84 1282.48,-245.09"/>
</g>
<!-- determination -->
<g id="node3" class="node">
<title>determination</title>
<path fill="#4d4d2d" stroke="#4ecdc4" d="M284.38,-235.88C284.38,-235.88 231.62,-235.88 231.62,-235.88 225.62,-235.88 219.62,-229.88 219.62,-223.88 219.62,-223.88 219.62,-194.88 219.62,-194.88 219.62,-188.88 225.62,-182.88 231.62,-182.88 231.62,-182.88 284.38,-182.88 284.38,-182.88 290.38,-182.88 296.38,-188.88 296.38,-194.88 296.38,-194.88 296.38,-223.88 296.38,-223.88 296.38,-229.88 290.38,-235.88 284.38,-235.88"/>
<text xml:space="preserve" text-anchor="middle" x="258" y="-222.38" font-family="Helvetica,sans-Serif" font-size="10.00" fill="white">Determination</text>
<text xml:space="preserve" text-anchor="middle" x="258" y="-211.13" font-family="Helvetica,sans-Serif" font-size="10.00" fill="white">(1&#45;100)</text>
<text xml:space="preserve" text-anchor="middle" x="258" y="-199.88" font-family="Helvetica,sans-Serif" font-size="10.00" fill="white">Refusal to</text>
<text xml:space="preserve" text-anchor="middle" x="258" y="-188.63" font-family="Helvetica,sans-Serif" font-size="10.00" fill="white">yield claims</text>
</g>
<!-- check_expand -->
<g id="node11" class="node">
<title>check_expand</title>
<path fill="#2d2d44" stroke="#4ecdc4" d="M1117.96,-235.18C1117.96,-235.18 1068.54,-214.09 1068.54,-214.09 1063.02,-211.74 1063.02,-207.03 1068.54,-204.68 1068.54,-204.68 1117.96,-183.59 1117.96,-183.59 1123.48,-181.24 1134.52,-181.24 1140.04,-183.59 1140.04,-183.59 1189.46,-204.68 1189.46,-204.68 1194.98,-207.03 1194.98,-211.74 1189.46,-214.09 1189.46,-214.09 1140.04,-235.18 1140.04,-235.18 1134.52,-237.53 1123.48,-237.53 1117.96,-235.18"/>
<text xml:space="preserve" text-anchor="middle" x="1129" y="-211.13" font-family="Helvetica,sans-Serif" font-size="10.00" fill="white">Expansion</text>
<text xml:space="preserve" text-anchor="middle" x="1129" y="-199.88" font-family="Helvetica,sans-Serif" font-size="10.00" fill="white">Opportunity?</text>
</g>
<!-- determination&#45;&gt;check_expand -->
<g id="edge15" class="edge">
<title>determination&#45;&gt;check_expand</title>
<path fill="none" stroke="#666666" stroke-dasharray="5,2" d="M264.04,-236.3C271.21,-260.59 285.9,-294.25 314,-305.88 332.53,-313.56 1017.47,-313.56 1036,-305.88 1066.09,-293.42 1091.09,-265.73 1107.56,-243.19"/>
<polygon fill="#666666" stroke="#666666" points="1110.33,-245.34 1113.21,-235.14 1104.6,-241.31 1110.33,-245.34"/>
</g>
<!-- diplomacy -->
<g id="node4" class="node">
<title>diplomacy</title>
<path fill="#2d4d3d" stroke="#4ecdc4" d="M367.75,-235.88C367.75,-235.88 326.25,-235.88 326.25,-235.88 320.25,-235.88 314.25,-229.88 314.25,-223.88 314.25,-223.88 314.25,-194.88 314.25,-194.88 314.25,-188.88 320.25,-182.88 326.25,-182.88 326.25,-182.88 367.75,-182.88 367.75,-182.88 373.75,-182.88 379.75,-188.88 379.75,-194.88 379.75,-194.88 379.75,-223.88 379.75,-223.88 379.75,-229.88 373.75,-235.88 367.75,-235.88"/>
<text xml:space="preserve" text-anchor="middle" x="347" y="-222.38" font-family="Helvetica,sans-Serif" font-size="10.00" fill="white">Diplomacy</text>
<text xml:space="preserve" text-anchor="middle" x="347" y="-211.13" font-family="Helvetica,sans-Serif" font-size="10.00" fill="white">(1&#45;100)</text>
<text xml:space="preserve" text-anchor="middle" x="347" y="-199.88" font-family="Helvetica,sans-Serif" font-size="10.00" fill="white">Negotiation</text>
<text xml:space="preserve" text-anchor="middle" x="347" y="-188.63" font-family="Helvetica,sans-Serif" font-size="10.00" fill="white">willingness</text>
</g>
<!-- check_diplo -->
<g id="node13" class="node">
<title>check_diplo</title>
<path fill="#2d2d44" stroke="#4ecdc4" d="M726.69,-235.86C726.69,-235.86 663.56,-213.4 663.56,-213.4 657.9,-211.39 657.9,-207.37 663.56,-205.36 663.56,-205.36 726.69,-182.9 726.69,-182.9 732.35,-180.89 743.65,-180.89 749.31,-182.9 749.31,-182.9 812.44,-205.36 812.44,-205.36 818.1,-207.37 818.1,-211.39 812.44,-213.4 812.44,-213.4 749.31,-235.86 749.31,-235.86 743.65,-237.87 732.35,-237.87 726.69,-235.86"/>
<text xml:space="preserve" text-anchor="middle" x="738" y="-211.13" font-family="Helvetica,sans-Serif" font-size="10.00" fill="white">High Diplomacy</text>
<text xml:space="preserve" text-anchor="middle" x="738" y="-199.88" font-family="Helvetica,sans-Serif" font-size="10.00" fill="white">&amp; Trade?</text>
</g>
<!-- diplomacy&#45;&gt;check_diplo -->
<g id="edge16" class="edge">
<title>diplomacy&#45;&gt;check_diplo</title>
<path fill="none" stroke="#666666" stroke-dasharray="5,2" d="M351.54,-235.94C357.4,-260.35 370.34,-294.43 398,-305.88 421.92,-315.79 606.83,-315.17 631,-305.88 663.98,-293.21 693.14,-265.14 712.66,-242.53"/>
<polygon fill="#666666" stroke="#666666" points="715.21,-244.94 718.93,-235.02 709.84,-240.45 715.21,-244.94"/>
</g>
<!-- trade -->
<g id="node5" class="node">
<title>trade</title>
<path fill="#2d4d4d" stroke="#4ecdc4" d="M452.12,-235.88C452.12,-235.88 409.88,-235.88 409.88,-235.88 403.88,-235.88 397.88,-229.88 397.88,-223.88 397.88,-223.88 397.88,-194.88 397.88,-194.88 397.88,-188.88 403.88,-182.88 409.88,-182.88 409.88,-182.88 452.12,-182.88 452.12,-182.88 458.12,-182.88 464.12,-188.88 464.12,-194.88 464.12,-194.88 464.12,-223.88 464.12,-223.88 464.12,-229.88 458.12,-235.88 452.12,-235.88"/>
<text xml:space="preserve" text-anchor="middle" x="431" y="-222.38" font-family="Helvetica,sans-Serif" font-size="10.00" fill="white">Trade</text>
<text xml:space="preserve" text-anchor="middle" x="431" y="-211.13" font-family="Helvetica,sans-Serif" font-size="10.00" fill="white">(1&#45;100)</text>
<text xml:space="preserve" text-anchor="middle" x="431" y="-199.88" font-family="Helvetica,sans-Serif" font-size="10.00" fill="white">Economic</text>
<text xml:space="preserve" text-anchor="middle" x="431" y="-188.63" font-family="Helvetica,sans-Serif" font-size="10.00" fill="white">cooperation</text>
</g>
<!-- pursue_diplo -->
<g id="node14" class="node">
<title>pursue_diplo</title>
<path fill="#2d4d3d" stroke="#4ecdc4" d="M790.5,-133.13C790.5,-133.13 729.5,-133.13 729.5,-133.13 723.5,-133.13 717.5,-127.13 717.5,-121.13 717.5,-121.13 717.5,-92.13 717.5,-92.13 717.5,-86.13 723.5,-80.13 729.5,-80.13 729.5,-80.13 790.5,-80.13 790.5,-80.13 796.5,-80.13 802.5,-86.13 802.5,-92.13 802.5,-92.13 802.5,-121.13 802.5,-121.13 802.5,-127.13 796.5,-133.13 790.5,-133.13"/>
<text xml:space="preserve" text-anchor="middle" x="760" y="-119.63" font-family="Helvetica,sans-Serif" font-size="10.00" fill="white">PURSUE</text>
<text xml:space="preserve" text-anchor="middle" x="760" y="-108.38" font-family="Helvetica,sans-Serif" font-size="10.00" fill="white">DIPLOMACY</text>
<text xml:space="preserve" text-anchor="middle" x="760" y="-97.13" font-family="Helvetica,sans-Serif" font-size="10.00" fill="white">(Treaties,</text>
<text xml:space="preserve" text-anchor="middle" x="760" y="-85.88" font-family="Helvetica,sans-Serif" font-size="10.00" fill="white">communication)</text>
</g>
<!-- trade&#45;&gt;pursue_diplo -->
<g id="edge17" class="edge">
<title>trade&#45;&gt;pursue_diplo</title>
<path fill="none" stroke="#666666" stroke-dasharray="5,2" d="M444.96,-182.43C452.56,-170.89 463.07,-158.32 476,-151.13 508.05,-133.33 603.8,-138.95 640,-133.13 661.74,-129.64 685.48,-124.81 706.07,-120.29"/>
<polygon fill="#666666" stroke="#666666" points="706.67,-123.75 715.67,-118.16 705.15,-116.91 706.67,-123.75"/>
</g>
<!-- npr_decision -->
<g id="node6" class="node">
<title>npr_decision</title>
<ellipse fill="#4ecdc4" stroke="#4ecdc4" cx="1031" cy="-21.57" rx="55.86" ry="21.57"/>
<text xml:space="preserve" text-anchor="middle" x="1031" y="-23.32" font-family="Helvetica,sans-Serif" font-size="10.00" fill="#1a1a2e">NPR Decision</text>
<text xml:space="preserve" text-anchor="middle" x="1031" y="-12.07" font-family="Helvetica,sans-Serif" font-size="10.00" fill="#1a1a2e">Cycle</text>
</g>
<!-- npr_decision&#45;&gt;check_home -->
<g id="edge1" class="edge">
<title>npr_decision&#45;&gt;check_home</title>
<path fill="none" stroke="#4ecdc4" d="M1029.92,-43.62C1028.18,-66.38 1023.66,-103.4 1012,-133.13 1005.97,-148.52 996.53,-164.06 987.54,-176.99"/>
<polygon fill="#4ecdc4" stroke="#4ecdc4" points="984.71,-174.94 981.71,-185.1 990.39,-179.03 984.71,-174.94"/>
</g>
<!-- defend_home -->
<g id="node8" class="node">
<title>defend_home</title>
<path fill="#8b0000" stroke="#4ecdc4" d="M990.75,-127.51C990.75,-127.51 931.25,-127.51 931.25,-127.51 925.25,-127.51 919.25,-121.51 919.25,-115.51 919.25,-115.51 919.25,-97.76 919.25,-97.76 919.25,-91.76 925.25,-85.76 931.25,-85.76 931.25,-85.76 990.75,-85.76 990.75,-85.76 996.75,-85.76 1002.75,-91.76 1002.75,-97.76 1002.75,-97.76 1002.75,-115.51 1002.75,-115.51 1002.75,-121.51 996.75,-127.51 990.75,-127.51"/>
<text xml:space="preserve" text-anchor="middle" x="961" y="-114.01" font-family="Helvetica,sans-Serif" font-size="10.00" fill="white">DEFEND</text>
<text xml:space="preserve" text-anchor="middle" x="961" y="-102.76" font-family="Helvetica,sans-Serif" font-size="10.00" fill="white">HOMEWORLD</text>
<text xml:space="preserve" text-anchor="middle" x="961" y="-91.51" font-family="Helvetica,sans-Serif" font-size="10.00" fill="white">(All resources)</text>
</g>
<!-- check_home&#45;&gt;defend_home -->
<g id="edge2" class="edge">
<title>check_home&#45;&gt;defend_home</title>
<path fill="none" stroke="#ff6b6b" d="M962.41,-178.7C962.16,-166.3 961.88,-151.87 961.63,-139.26"/>
<polygon fill="#ff6b6b" stroke="#ff6b6b" points="965.13,-139.3 961.43,-129.38 958.13,-139.44 965.13,-139.3"/>
<text xml:space="preserve" text-anchor="middle" x="971" y="-152.33" font-family="Helvetica,sans-Serif" font-size="9.00" fill="white">YES</text>
</g>
<!-- check_colonies -->
<g id="node9" class="node">
<title>check_colonies</title>
<path fill="#2d2d44" stroke="#4ecdc4" d="M547,-235.09C547,-235.09 499,-214.18 499,-214.18 493.5,-211.78 493.5,-206.99 499,-204.59 499,-204.59 547,-183.68 547,-183.68 552.5,-181.28 563.5,-181.28 569,-183.68 569,-183.68 617,-204.59 617,-204.59 622.5,-206.99 622.5,-211.78 617,-214.18 617,-214.18 569,-235.09 569,-235.09 563.5,-237.49 552.5,-237.49 547,-235.09"/>
<text xml:space="preserve" text-anchor="middle" x="558" y="-211.13" font-family="Helvetica,sans-Serif" font-size="10.00" fill="white">Colonies</text>
<text xml:space="preserve" text-anchor="middle" x="558" y="-199.88" font-family="Helvetica,sans-Serif" font-size="10.00" fill="white">Threatened?</text>
</g>
<!-- check_home&#45;&gt;check_colonies -->
<g id="edge3" class="edge">
<title>check_home&#45;&gt;check_colonies</title>
<path fill="none" stroke="#4ecdc4" d="M939.7,-229.74C915.63,-249.31 876.02,-277.55 836,-289.07 752.29,-313.16 720.72,-321.83 640,-289.07 616.5,-279.54 596.04,-259.68 581.43,-242.17"/>
<polygon fill="#4ecdc4" stroke="#4ecdc4" points="584.26,-240.11 575.29,-234.48 578.8,-244.48 584.26,-240.11"/>
<text xml:space="preserve" text-anchor="middle" x="868" y="-306.08" font-family="Helvetica,sans-Serif" font-size="9.00" fill="white">NO</text>
</g>
<!-- defend_home&#45;&gt;npr_decision -->
<g id="edge18" class="edge">
<title>defend_home&#45;&gt;npr_decision</title>
<path fill="none" stroke="#666666" stroke-dasharray="5,2" d="M977.95,-85.53C986.63,-75.22 997.36,-62.49 1006.89,-51.18"/>
<polygon fill="#666666" stroke="#666666" points="1009.47,-53.55 1013.24,-43.65 1004.12,-49.04 1009.47,-53.55"/>
</g>
<!-- check_colonies&#45;&gt;protect_colonies -->
<g id="edge4" class="edge">
<title>check_colonies&#45;&gt;protect_colonies</title>
<path fill="none" stroke="#ff9966" d="M562.97,-180.59C564.95,-169.46 567.27,-156.49 569.4,-144.59"/>
<polygon fill="#ff9966" stroke="#ff9966" points="572.78,-145.56 571.09,-135.1 565.89,-144.33 572.78,-145.56"/>
<text xml:space="preserve" text-anchor="middle" x="577.08" y="-152.33" font-family="Helvetica,sans-Serif" font-size="9.00" fill="white">YES</text>
</g>
<!-- check_colonies&#45;&gt;check_expand -->
<g id="edge5" class="edge">
<title>check_colonies&#45;&gt;check_expand</title>
<path fill="none" stroke="#4ecdc4" d="M574.34,-233.3C589,-252.44 612.41,-277.87 640,-289.07 723.39,-322.92 961.4,-322.41 1045,-289.07 1069.23,-279.41 1090.48,-259.07 1105.54,-241.35"/>
<polygon fill="#4ecdc4" stroke="#4ecdc4" points="1107.85,-244.06 1111.47,-234.1 1102.43,-239.63 1107.85,-244.06"/>
<text xml:space="preserve" text-anchor="middle" x="960" y="-306.08" font-family="Helvetica,sans-Serif" font-size="9.00" fill="white">NO</text>
</g>
<!-- protect_colonies&#45;&gt;npr_decision -->
<g id="edge19" class="edge">
<title>protect_colonies&#45;&gt;npr_decision</title>
<path fill="none" stroke="#666666" stroke-dasharray="5,2" d="M611.58,-84.16C620.59,-79.54 630.43,-75.14 640,-72.13 749.98,-37.61 884.54,-27.06 963.69,-23.88"/>
<polygon fill="#666666" stroke="#666666" points="963.59,-27.39 973.45,-23.52 963.33,-20.39 963.59,-27.39"/>
</g>
<!-- expand -->
<g id="node12" class="node">
<title>expand</title>
<path fill="#4d4d2d" stroke="#4ecdc4" d="M1137.25,-133.13C1137.25,-133.13 1086.75,-133.13 1086.75,-133.13 1080.75,-133.13 1074.75,-127.13 1074.75,-121.13 1074.75,-121.13 1074.75,-92.13 1074.75,-92.13 1074.75,-86.13 1080.75,-80.13 1086.75,-80.13 1086.75,-80.13 1137.25,-80.13 1137.25,-80.13 1143.25,-80.13 1149.25,-86.13 1149.25,-92.13 1149.25,-92.13 1149.25,-121.13 1149.25,-121.13 1149.25,-127.13 1143.25,-133.13 1137.25,-133.13"/>
<text xml:space="preserve" text-anchor="middle" x="1112" y="-119.63" font-family="Helvetica,sans-Serif" font-size="10.00" fill="white">EXPAND</text>
<text xml:space="preserve" text-anchor="middle" x="1112" y="-108.38" font-family="Helvetica,sans-Serif" font-size="10.00" fill="white">TERRITORY</text>
<text xml:space="preserve" text-anchor="middle" x="1112" y="-97.13" font-family="Helvetica,sans-Serif" font-size="10.00" fill="white">(Colonize,</text>
<text xml:space="preserve" text-anchor="middle" x="1112" y="-85.88" font-family="Helvetica,sans-Serif" font-size="10.00" fill="white">control JPs)</text>
</g>
<!-- check_expand&#45;&gt;expand -->
<g id="edge6" class="edge">
<title>check_expand&#45;&gt;expand</title>
<path fill="none" stroke="#ffe66d" d="M1124.31,-180.59C1122.45,-169.58 1120.29,-156.76 1118.3,-144.96"/>
<polygon fill="#ffe66d" stroke="#ffe66d" points="1121.75,-144.38 1116.63,-135.1 1114.85,-145.55 1121.75,-144.38"/>
<text xml:space="preserve" text-anchor="middle" x="1129.5" y="-152.33" font-family="Helvetica,sans-Serif" font-size="9.00" fill="white">YES</text>
</g>
<!-- check_expand&#45;&gt;check_diplo -->
<g id="edge7" class="edge">
<title>check_expand&#45;&gt;check_diplo</title>
<path fill="none" stroke="#4ecdc4" d="M1112.43,-232.93C1097.35,-252.12 1073.19,-277.83 1045,-289.07 977.3,-316.08 951.55,-307.4 881,-289.07 842.12,-278.97 802.59,-255.73 774.97,-236.94"/>
<polygon fill="#4ecdc4" stroke="#4ecdc4" points="777.17,-234.21 766.96,-231.38 773.17,-239.96 777.17,-234.21"/>
<text xml:space="preserve" text-anchor="middle" x="849" y="-306.08" font-family="Helvetica,sans-Serif" font-size="9.00" fill="white">NO</text>
</g>
<!-- expand&#45;&gt;npr_decision -->
<g id="edge20" class="edge">
<title>expand&#45;&gt;npr_decision</title>
<path fill="none" stroke="#666666" stroke-dasharray="5,2" d="M1086.82,-79.81C1077.62,-70.38 1067.19,-59.68 1057.85,-50.11"/>
<polygon fill="#666666" stroke="#666666" points="1060.53,-47.84 1051.05,-43.13 1055.52,-52.73 1060.53,-47.84"/>
</g>
<!-- check_diplo&#45;&gt;pursue_diplo -->
<g id="edge8" class="edge">
<title>check_diplo&#45;&gt;pursue_diplo</title>
<path fill="none" stroke="#95d5b2" d="M744.07,-180.59C746.5,-169.46 749.33,-156.49 751.93,-144.59"/>
<polygon fill="#95d5b2" stroke="#95d5b2" points="755.29,-145.61 754,-135.09 748.45,-144.11 755.29,-145.61"/>
<text xml:space="preserve" text-anchor="middle" x="759.32" y="-152.33" font-family="Helvetica,sans-Serif" font-size="9.00" fill="white">YES</text>
</g>
<!-- check_diplo&#45;&gt;check_power -->
<g id="edge9" class="edge">
<title>check_diplo&#45;&gt;check_power</title>
<path fill="none" stroke="#4ecdc4" d="M765.72,-230.51C793.25,-250.07 837.54,-277.78 881,-289.07 952.41,-307.62 1144.01,-315.22 1213,-289.07 1238.32,-279.47 1261.1,-259.13 1277.4,-241.4"/>
<polygon fill="#4ecdc4" stroke="#4ecdc4" points="1279.86,-243.91 1283.87,-234.1 1274.62,-239.27 1279.86,-243.91"/>
<text xml:space="preserve" text-anchor="middle" x="1089" y="-306.08" font-family="Helvetica,sans-Serif" font-size="9.00" fill="white">NO</text>
</g>
<!-- pursue_diplo&#45;&gt;npr_decision -->
<g id="edge21" class="edge">
<title>pursue_diplo&#45;&gt;npr_decision</title>
<path fill="none" stroke="#666666" stroke-dasharray="5,2" d="M802.94,-92.47C850.22,-77.98 926.29,-54.66 977.43,-38.99"/>
<polygon fill="#666666" stroke="#666666" points="978.28,-42.39 986.81,-36.11 976.23,-35.7 978.28,-42.39"/>
</g>
<!-- project_power -->
<g id="node16" class="node">
<title>project_power</title>
<path fill="#2d2d44" stroke="#4ecdc4" d="M1279,-133.13C1279,-133.13 1239,-133.13 1239,-133.13 1233,-133.13 1227,-127.13 1227,-121.13 1227,-121.13 1227,-92.13 1227,-92.13 1227,-86.13 1233,-80.13 1239,-80.13 1239,-80.13 1279,-80.13 1279,-80.13 1285,-80.13 1291,-86.13 1291,-92.13 1291,-92.13 1291,-121.13 1291,-121.13 1291,-127.13 1285,-133.13 1279,-133.13"/>
<text xml:space="preserve" text-anchor="middle" x="1259" y="-119.63" font-family="Helvetica,sans-Serif" font-size="10.00" fill="white">PROJECT</text>
<text xml:space="preserve" text-anchor="middle" x="1259" y="-108.38" font-family="Helvetica,sans-Serif" font-size="10.00" fill="white">POWER</text>
<text xml:space="preserve" text-anchor="middle" x="1259" y="-97.13" font-family="Helvetica,sans-Serif" font-size="10.00" fill="white">(Offensive</text>
<text xml:space="preserve" text-anchor="middle" x="1259" y="-85.88" font-family="Helvetica,sans-Serif" font-size="10.00" fill="white">operations)</text>
</g>
<!-- check_power&#45;&gt;project_power -->
<g id="edge10" class="edge">
<title>check_power&#45;&gt;project_power</title>
<path fill="none" stroke="#4ecdc4" d="M1291.9,-182.96C1286.73,-171.12 1280.48,-156.82 1274.83,-143.87"/>
<polygon fill="#4ecdc4" stroke="#4ecdc4" points="1278.07,-142.55 1270.86,-134.79 1271.65,-145.35 1278.07,-142.55"/>
<text xml:space="preserve" text-anchor="middle" x="1290" y="-152.33" font-family="Helvetica,sans-Serif" font-size="9.00" fill="white">YES</text>
</g>
<!-- idle -->
<g id="node17" class="node">
<title>idle</title>
<path fill="#2d2d44" stroke="#4ecdc4" d="M1458.88,-127.51C1458.88,-127.51 1409.12,-127.51 1409.12,-127.51 1403.12,-127.51 1397.12,-121.51 1397.12,-115.51 1397.12,-115.51 1397.12,-97.76 1397.12,-97.76 1397.12,-91.76 1403.12,-85.76 1409.12,-85.76 1409.12,-85.76 1458.88,-85.76 1458.88,-85.76 1464.88,-85.76 1470.88,-91.76 1470.88,-97.76 1470.88,-97.76 1470.88,-115.51 1470.88,-115.51 1470.88,-121.51 1464.88,-127.51 1458.88,-127.51"/>
<text xml:space="preserve" text-anchor="middle" x="1434" y="-114.01" font-family="Helvetica,sans-Serif" font-size="10.00" fill="white">Maintain</text>
<text xml:space="preserve" text-anchor="middle" x="1434" y="-102.76" font-family="Helvetica,sans-Serif" font-size="10.00" fill="white">Status Quo</text>
<text xml:space="preserve" text-anchor="middle" x="1434" y="-91.51" font-family="Helvetica,sans-Serif" font-size="10.00" fill="white">(Patrol, build)</text>
</g>
<!-- check_power&#45;&gt;idle -->
<g id="edge11" class="edge">
<title>check_power&#45;&gt;idle</title>
<path fill="none" stroke="#4ecdc4" d="M1328.88,-188.48C1348.85,-173.12 1376.68,-151.72 1398.69,-134.79"/>
<polygon fill="#4ecdc4" stroke="#4ecdc4" points="1400.73,-137.64 1406.52,-128.76 1396.46,-132.09 1400.73,-137.64"/>
<text xml:space="preserve" text-anchor="middle" x="1383.09" y="-152.33" font-family="Helvetica,sans-Serif" font-size="9.00" fill="white">NO</text>
</g>
<!-- project_power&#45;&gt;npr_decision -->
<g id="edge22" class="edge">
<title>project_power&#45;&gt;npr_decision</title>
<path fill="none" stroke="#666666" stroke-dasharray="5,2" d="M1226.75,-79.95C1222.28,-77.06 1217.63,-74.36 1213,-72.13 1174.74,-53.76 1128.58,-41.29 1092.32,-33.45"/>
<polygon fill="#666666" stroke="#666666" points="1093.39,-30.1 1082.88,-31.48 1091.95,-36.95 1093.39,-30.1"/>
</g>
<!-- idle&#45;&gt;npr_decision -->
<g id="edge23" class="edge">
<title>idle&#45;&gt;npr_decision</title>
<path fill="none" stroke="#666666" stroke-dasharray="5,2" d="M1413.79,-85.46C1407.58,-80.33 1400.42,-75.36 1393,-72.13 1341.32,-49.64 1186.95,-34.49 1097.36,-27.33"/>
<polygon fill="#666666" stroke="#666666" points="1097.72,-23.84 1087.48,-26.55 1097.17,-30.82 1097.72,-23.84"/>
</g>
</g>
</svg>
