<?xml version="1.0" encoding="UTF-8" standalone="no"?>
<!DOCTYPE svg PUBLIC "-//W3C//DTD SVG 1.1//EN"
 "http://www.w3.org/Graphics/SVG/1.1/DTD/svg11.dtd">
<!-- Generated by graphviz version 14.1.2 (20260124.0452)
 -->
<!-- Title: relationship_thresholds Pages: 1 -->
<svg width="952pt" height="594pt"
 viewBox="0.00 0.00 952.00 594.00" xmlns="http://www.w3.org/2000/svg" xmlns:xlink="http://www.w3.org/1999/xlink">
<g id="graph0" class="graph" transform="scale(1 1) rotate(0) translate(4 589.75)">
<title>relationship_thresholds</title>
<polygon fill="#1a1a2e" stroke="none" points="-4,4 -4,-589.75 947.75,-589.75 947.75,4 -4,4"/>
<text xml:space="preserve" text-anchor="start" x="349.25" y="-567.55" font-family="Times,serif" font-weight="bold" font-size="16.00" fill="white">Diplomatic Relationship Thresholds</text>
<g id="clust1" class="cluster">
<title>cluster_scale</title>
</g>
<g id="clust2" class="cluster">
<title>cluster_thresholds</title>
</g>
<g id="clust3" class="cluster">
<title>cluster_actions</title>
<polygon fill="#1a1a2e" stroke="#4ecdc4" stroke-dasharray="5,2" points="799.5,-8 799.5,-312 943.75,-312 943.75,-8 799.5,-8"/>
<text xml:space="preserve" text-anchor="start" x="807.5" y="-295.7" font-family="Times,serif" font-weight="bold" font-size="14.00" fill="white">Key Actions by Status</text>
</g>
<!-- hostile -->
<g id="node1" class="node">
<title>hostile</title>
<path fill="#2d2d44" stroke="none" d="M138,-320.75C138,-320.75 28,-320.75 28,-320.75 22,-320.75 16,-314.75 16,-308.75 16,-308.75 16,-209.25 16,-209.25 16,-203.25 22,-197.25 28,-197.25 28,-197.25 138,-197.25 138,-197.25 144,-197.25 150,-203.25 150,-209.25 150,-209.25 150,-308.75 150,-308.75 150,-314.75 144,-320.75 138,-320.75"/>
<polygon fill="#8b0000" stroke="none" points="24,-289.5 24,-316.75 142,-316.75 142,-289.5 24,-289.5"/>
<text xml:space="preserve" text-anchor="start" x="61.25" y="-300.25" font-family="Helvetica,sans-Serif" font-weight="bold" font-size="10.00" fill="white">HOSTILE</text>
<polygon fill="#4d2d2d" stroke="none" points="24,-262.25 24,-289.5 142,-289.5 142,-262.25 24,-262.25"/>
<text xml:space="preserve" text-anchor="start" x="58.62" y="-272" font-family="Helvetica,sans-Serif" font-size="10.00" fill="white">Below &#45;100</text>
<polygon fill="#4d2d2d" stroke="none" points="24,-201.25 24,-262.25 142,-262.25 142,-201.25 24,-201.25"/>
<text xml:space="preserve" text-anchor="start" x="35.75" y="-244.75" font-family="Helvetica,sans-Serif" font-size="10.00" fill="#ff6b6b">NPR attacks on sight</text>
<text xml:space="preserve" text-anchor="start" x="33.5" y="-233.5" font-family="Helvetica,sans-Serif" font-size="10.00" fill="#ff6b6b">No diplomacy possible</text>
<text xml:space="preserve" text-anchor="start" x="46.25" y="-222.25" font-family="Helvetica,sans-Serif" font-size="10.00" fill="#ff6b6b">No trade allowed</text>
<text xml:space="preserve" text-anchor="start" x="32" y="-211" font-family="Helvetica,sans-Serif" font-size="10.00" fill="#ff6b6b">Full intel from prisoners</text>
</g>
<!-- unfriendly -->
<g id="node2" class="node">
<title>unfriendly</title>
<path fill="#2d2d44" stroke="none" d="M293.75,-320.75C293.75,-320.75 198,-320.75 198,-320.75 192,-320.75 186,-314.75 186,-308.75 186,-308.75 186,-209.25 186,-209.25 186,-203.25 192,-197.25 198,-197.25 198,-197.25 293.75,-197.25 293.75,-197.25 299.75,-197.25 305.75,-203.25 305.75,-209.25 305.75,-209.25 305.75,-308.75 305.75,-308.75 305.75,-314.75 299.75,-320.75 293.75,-320.75"/>
<polygon fill="#b22222" stroke="none" points="194,-289.5 194,-316.75 297.75,-316.75 297.75,-289.5 194,-289.5"/>
<text xml:space="preserve" text-anchor="start" x="213.25" y="-300.25" font-family="Helvetica,sans-Serif" font-weight="bold" font-size="10.00" fill="white">UNFRIENDLY</text>
<polygon fill="#4d3d2d" stroke="none" points="194,-262.25 194,-289.5 297.75,-289.5 297.75,-262.25 194,-262.25"/>
<text xml:space="preserve" text-anchor="start" x="222.62" y="-272" font-family="Helvetica,sans-Serif" font-size="10.00" fill="white">&#45;100 to &#45;25</text>
<polygon fill="#4d3d2d" stroke="none" points="194,-201.25 194,-262.25 297.75,-262.25 297.75,-201.25 194,-201.25"/>
<text xml:space="preserve" text-anchor="start" x="218.5" y="-244.75" font-family="Helvetica,sans-Serif" font-size="10.00" fill="#ff9966">High tension</text>
<text xml:space="preserve" text-anchor="start" x="206.5" y="-233.5" font-family="Helvetica,sans-Serif" font-size="10.00" fill="#ff9966">Limited diplomacy</text>
<text xml:space="preserve" text-anchor="start" x="221.88" y="-222.25" font-family="Helvetica,sans-Serif" font-size="10.00" fill="#ff9966">No treaties</text>
<text xml:space="preserve" text-anchor="start" x="202" y="-211" font-family="Helvetica,sans-Serif" font-size="10.00" fill="#ff9966">2x intrusion modifier</text>
</g>
<!-- hostile&#45;&gt;unfriendly -->
<!-- action_hostile -->
<g id="node10" class="node">
<title>action_hostile</title>
<path fill="#4d2d2d" stroke="#4ecdc4" d="M899.38,-52C899.38,-52 842.88,-52 842.88,-52 836.88,-52 830.88,-46 830.88,-40 830.88,-40 830.88,-28 830.88,-28 830.88,-22 836.88,-16 842.88,-16 842.88,-16 899.38,-16 899.38,-16 905.38,-16 911.38,-22 911.38,-28 911.38,-28 911.38,-40 911.38,-40 911.38,-46 905.38,-52 899.38,-52"/>
<text xml:space="preserve" text-anchor="middle" x="871.12" y="-35.75" font-family="Helvetica,sans-Serif" font-size="10.00" fill="white">Declare Peace</text>
<text xml:space="preserve" text-anchor="middle" x="871.12" y="-24.5" font-family="Helvetica,sans-Serif" font-size="10.00" fill="white">Military Action</text>
</g>
<!-- hostile&#45;&gt;action_hostile -->
<g id="edge5" class="edge">
<title>hostile&#45;&gt;action_hostile</title>
<path fill="none" stroke="#666666" stroke-dasharray="1,5" d="M133.36,-197.39C190.23,-133.86 290.09,-44 399.88,-44 399.88,-44 399.88,-44 565.5,-44 654.79,-44 758.73,-39.65 819.21,-36.69"/>
<polygon fill="#666666" stroke="#666666" points="819.38,-40.19 829.19,-36.2 819.03,-33.2 819.38,-40.19"/>
</g>
<!-- neutral -->
<g id="node3" class="node">
<title>neutral</title>
<path fill="#2d2d44" stroke="none" d="M448,-320.75C448,-320.75 353.75,-320.75 353.75,-320.75 347.75,-320.75 341.75,-314.75 341.75,-308.75 341.75,-308.75 341.75,-209.25 341.75,-209.25 341.75,-203.25 347.75,-197.25 353.75,-197.25 353.75,-197.25 448,-197.25 448,-197.25 454,-197.25 460,-203.25 460,-209.25 460,-209.25 460,-308.75 460,-308.75 460,-314.75 454,-320.75 448,-320.75"/>
<polygon fill="#808080" stroke="none" points="349.75,-289.5 349.75,-316.75 452,-316.75 452,-289.5 349.75,-289.5"/>
<text xml:space="preserve" text-anchor="start" x="376.5" y="-300.25" font-family="Helvetica,sans-Serif" font-weight="bold" font-size="10.00" fill="white">NEUTRAL</text>
<polygon fill="#4d4d4d" stroke="none" points="349.75,-262.25 349.75,-289.5 452,-289.5 452,-262.25 349.75,-262.25"/>
<text xml:space="preserve" text-anchor="start" x="378.75" y="-272" font-family="Helvetica,sans-Serif" font-size="10.00" fill="white">&#45;25 to +25</text>
<polygon fill="#4d4d4d" stroke="none" points="349.75,-201.25 349.75,-262.25 452,-262.25 452,-201.25 349.75,-201.25"/>
<text xml:space="preserve" text-anchor="start" x="357.75" y="-244.75" font-family="Helvetica,sans-Serif" font-size="10.00" fill="#cccccc">Standard diplomacy</text>
<text xml:space="preserve" text-anchor="start" x="362.62" y="-233.5" font-family="Helvetica,sans-Serif" font-size="10.00" fill="#cccccc">Treaties available</text>
<text xml:space="preserve" text-anchor="start" x="365.25" y="-222.25" font-family="Helvetica,sans-Serif" font-size="10.00" fill="#cccccc">Normal intrusion</text>
<text xml:space="preserve" text-anchor="start" x="362.62" y="-211" font-family="Helvetica,sans-Serif" font-size="10.00" fill="#cccccc">Intel gains halved</text>
</g>
<!-- unfriendly&#45;&gt;neutral -->
<!-- action_unfriendly -->
<g id="node11" class="node">
<title>action_unfriendly</title>
<path fill="#4d3d2d" stroke="#4ecdc4" d="M903.5,-106C903.5,-106 838.75,-106 838.75,-106 832.75,-106 826.75,-100 826.75,-94 826.75,-94 826.75,-82 826.75,-82 826.75,-76 832.75,-70 838.75,-70 838.75,-70 903.5,-70 903.5,-70 909.5,-70 915.5,-76 915.5,-82 915.5,-82 915.5,-94 915.5,-94 915.5,-100 909.5,-106 903.5,-106"/>
<text xml:space="preserve" text-anchor="middle" x="871.12" y="-89.75" font-family="Helvetica,sans-Serif" font-size="10.00" fill="white">Peace Offers</text>
<text xml:space="preserve" text-anchor="middle" x="871.12" y="-78.5" font-family="Helvetica,sans-Serif" font-size="10.00" fill="white">Deter with Force</text>
</g>
<!-- unfriendly&#45;&gt;action_unfriendly -->
<g id="edge6" class="edge">
<title>unfriendly&#45;&gt;action_unfriendly</title>
<path fill="none" stroke="#666666" stroke-dasharray="1,5" d="M305.57,-209.57C317.07,-201.51 329.4,-193.89 341.75,-188 502.04,-111.55 715.85,-93.5 815.14,-89.27"/>
<polygon fill="#666666" stroke="#666666" points="815.02,-92.78 824.88,-88.89 814.75,-85.78 815.02,-92.78"/>
</g>
<!-- friendly -->
<g id="node4" class="node">
<title>friendly</title>
<path fill="#2d2d44" stroke="none" d="M621,-320.75C621,-320.75 508,-320.75 508,-320.75 502,-320.75 496,-314.75 496,-308.75 496,-308.75 496,-209.25 496,-209.25 496,-203.25 502,-197.25 508,-197.25 508,-197.25 621,-197.25 621,-197.25 627,-197.25 633,-203.25 633,-209.25 633,-209.25 633,-308.75 633,-308.75 633,-314.75 627,-320.75 621,-320.75"/>
<polygon fill="#228b22" stroke="none" points="504,-289.5 504,-316.75 625,-316.75 625,-289.5 504,-289.5"/>
<text xml:space="preserve" text-anchor="start" x="539.38" y="-300.25" font-family="Helvetica,sans-Serif" font-weight="bold" font-size="10.00" fill="white">FRIENDLY</text>
<polygon fill="#2d4d3d" stroke="none" points="504,-262.25 504,-289.5 625,-289.5 625,-262.25 504,-262.25"/>
<text xml:space="preserve" text-anchor="start" x="540.88" y="-272" font-family="Helvetica,sans-Serif" font-size="10.00" fill="white">+25 to +75</text>
<polygon fill="#2d4d3d" stroke="none" points="504,-201.25 504,-262.25 625,-262.25 625,-201.25 504,-201.25"/>
<text xml:space="preserve" text-anchor="start" x="524.38" y="-244.75" font-family="Helvetica,sans-Serif" font-size="10.00" fill="#95d5b2">Most options open</text>
<text xml:space="preserve" text-anchor="start" x="512" y="-233.5" font-family="Helvetica,sans-Serif" font-size="10.00" fill="#95d5b2">Trade/Research treaties</text>
<text xml:space="preserve" text-anchor="start" x="516.5" y="-222.25" font-family="Helvetica,sans-Serif" font-size="10.00" fill="#95d5b2">0.5x intrusion modifier</text>
<text xml:space="preserve" text-anchor="start" x="529.25" y="-211" font-family="Helvetica,sans-Serif" font-size="10.00" fill="#95d5b2">Intel gains &#45;80%</text>
</g>
<!-- neutral&#45;&gt;friendly -->
<!-- action_neutral -->
<g id="node12" class="node">
<title>action_neutral</title>
<path fill="#4d4d4d" stroke="#4ecdc4" d="M913.62,-160C913.62,-160 828.62,-160 828.62,-160 822.62,-160 816.62,-154 816.62,-148 816.62,-148 816.62,-136 816.62,-136 816.62,-130 822.62,-124 828.62,-124 828.62,-124 913.62,-124 913.62,-124 919.62,-124 925.62,-130 925.62,-136 925.62,-136 925.62,-148 925.62,-148 925.62,-154 919.62,-160 913.62,-160"/>
<text xml:space="preserve" text-anchor="middle" x="871.12" y="-143.75" font-family="Helvetica,sans-Serif" font-size="10.00" fill="white">Propose Treaties</text>
<text xml:space="preserve" text-anchor="middle" x="871.12" y="-132.5" font-family="Helvetica,sans-Serif" font-size="10.00" fill="white">Build Communication</text>
</g>
<!-- neutral&#45;&gt;action_neutral -->
<g id="edge7" class="edge">
<title>neutral&#45;&gt;action_neutral</title>
<path fill="none" stroke="#666666" stroke-dasharray="1,5" d="M459.76,-208.09C471.15,-200.24 483.48,-193.06 496,-188 598.28,-146.64 728.11,-139.8 804.84,-139.96"/>
<polygon fill="#666666" stroke="#666666" points="804.69,-143.46 814.71,-140.03 804.73,-136.46 804.69,-143.46"/>
</g>
<!-- allied -->
<g id="node5" class="node">
<title>allied</title>
<path fill="#2d2d44" stroke="none" d="M759.5,-320.75C759.5,-320.75 681,-320.75 681,-320.75 675,-320.75 669,-314.75 669,-308.75 669,-308.75 669,-209.25 669,-209.25 669,-203.25 675,-197.25 681,-197.25 681,-197.25 759.5,-197.25 759.5,-197.25 765.5,-197.25 771.5,-203.25 771.5,-209.25 771.5,-209.25 771.5,-308.75 771.5,-308.75 771.5,-314.75 765.5,-320.75 759.5,-320.75"/>
<polygon fill="#006400" stroke="none" points="677,-289.5 677,-316.75 763.5,-316.75 763.5,-289.5 677,-289.5"/>
<text xml:space="preserve" text-anchor="start" x="701.88" y="-300.25" font-family="Helvetica,sans-Serif" font-weight="bold" font-size="10.00" fill="white">ALLIED</text>
<polygon fill="#1d3d2d" stroke="none" points="677,-262.25 677,-289.5 763.5,-289.5 763.5,-262.25 677,-262.25"/>
<text xml:space="preserve" text-anchor="start" x="696.62" y="-272" font-family="Helvetica,sans-Serif" font-size="10.00" fill="white">Above +75</text>
<polygon fill="#1d3d2d" stroke="none" points="677,-201.25 677,-262.25 763.5,-262.25 763.5,-201.25 677,-201.25"/>
<text xml:space="preserve" text-anchor="start" x="685.75" y="-244.75" font-family="Helvetica,sans-Serif" font-size="10.00" fill="#95d5b2">Full cooperation</text>
<text xml:space="preserve" text-anchor="start" x="686.12" y="-233.5" font-family="Helvetica,sans-Serif" font-size="10.00" fill="#95d5b2">Shared sensors</text>
<text xml:space="preserve" text-anchor="start" x="691" y="-222.25" font-family="Helvetica,sans-Serif" font-size="10.00" fill="#95d5b2">Joint defense</text>
<text xml:space="preserve" text-anchor="start" x="685" y="-211" font-family="Helvetica,sans-Serif" font-size="10.00" fill="#95d5b2">Intel gains &#45;90%</text>
</g>
<!-- friendly&#45;&gt;allied -->
<!-- action_friendly -->
<g id="node13" class="node">
<title>action_friendly</title>
<path fill="#2d4d3d" stroke="#4ecdc4" d="M904.25,-219.88C904.25,-219.88 838,-219.88 838,-219.88 832,-219.88 826,-213.88 826,-207.88 826,-207.88 826,-190.12 826,-190.12 826,-184.12 832,-178.12 838,-178.12 838,-178.12 904.25,-178.12 904.25,-178.12 910.25,-178.12 916.25,-184.12 916.25,-190.12 916.25,-190.12 916.25,-207.88 916.25,-207.88 916.25,-213.88 910.25,-219.88 904.25,-219.88"/>
<text xml:space="preserve" text-anchor="middle" x="871.12" y="-206.38" font-family="Helvetica,sans-Serif" font-size="10.00" fill="white">Trade Agreement</text>
<text xml:space="preserve" text-anchor="middle" x="871.12" y="-195.12" font-family="Helvetica,sans-Serif" font-size="10.00" fill="white">Research Treaty</text>
<text xml:space="preserve" text-anchor="middle" x="871.12" y="-183.88" font-family="Helvetica,sans-Serif" font-size="10.00" fill="white">Transit Rights</text>
</g>
<!-- friendly&#45;&gt;action_friendly -->
<g id="edge8" class="edge">
<title>friendly&#45;&gt;action_friendly</title>
<path fill="none" stroke="#666666" stroke-dasharray="1,5" d="M632.94,-204.51C644.4,-197.73 656.62,-191.84 669,-188 716.63,-173.23 773.6,-178.33 814.73,-185.74"/>
<polygon fill="#666666" stroke="#666666" points="813.92,-189.15 824.4,-187.6 815.24,-182.28 813.92,-189.15"/>
</g>
<!-- action_allied -->
<g id="node14" class="node">
<title>action_allied</title>
<path fill="#1d3d2d" stroke="#4ecdc4" d="M902.75,-279.88C902.75,-279.88 839.5,-279.88 839.5,-279.88 833.5,-279.88 827.5,-273.88 827.5,-267.88 827.5,-267.88 827.5,-250.12 827.5,-250.12 827.5,-244.12 833.5,-238.12 839.5,-238.12 839.5,-238.12 902.75,-238.12 902.75,-238.12 908.75,-238.12 914.75,-244.12 914.75,-250.12 914.75,-250.12 914.75,-267.88 914.75,-267.88 914.75,-273.88 908.75,-279.88 902.75,-279.88"/>
<text xml:space="preserve" text-anchor="middle" x="871.12" y="-266.38" font-family="Helvetica,sans-Serif" font-size="10.00" fill="white">Military Coord</text>
<text xml:space="preserve" text-anchor="middle" x="871.12" y="-255.12" font-family="Helvetica,sans-Serif" font-size="10.00" fill="white">Shared Intel</text>
<text xml:space="preserve" text-anchor="middle" x="871.12" y="-243.88" font-family="Helvetica,sans-Serif" font-size="10.00" fill="white">Joint Operations</text>
</g>
<!-- allied&#45;&gt;action_allied -->
<g id="edge9" class="edge">
<title>allied&#45;&gt;action_allied</title>
<path fill="none" stroke="#666666" stroke-dasharray="1,5" d="M771.24,-259C785.63,-259 801.4,-259 816.04,-259"/>
<polygon fill="#666666" stroke="#666666" points="815.97,-262.5 825.97,-259 815.97,-255.5 815.97,-262.5"/>
</g>
<!-- t1 -->
<g id="node6" class="node">
<title>t1</title>
<path fill="#2d2d44" stroke="none" d="M98,-381C98,-381 68,-381 68,-381 62,-381 56,-375 56,-369 56,-369 56,-357 56,-357 56,-351 62,-345 68,-345 68,-345 98,-345 98,-345 104,-345 110,-351 110,-357 110,-357 110,-369 110,-369 110,-375 104,-381 98,-381"/>
<text xml:space="preserve" text-anchor="middle" x="83" y="-357.98" font-family="Helvetica,sans-Serif" font-size="12.00" fill="#ff6b6b">&#45;100</text>
</g>
<!-- t2 -->
<g id="node7" class="node">
<title>t2</title>
<path fill="#2d2d44" stroke="none" d="M98,-435C98,-435 68,-435 68,-435 62,-435 56,-429 56,-423 56,-423 56,-411 56,-411 56,-405 62,-399 68,-399 68,-399 98,-399 98,-399 104,-399 110,-405 110,-411 110,-411 110,-423 110,-423 110,-429 104,-435 98,-435"/>
<text xml:space="preserve" text-anchor="middle" x="83" y="-411.98" font-family="Helvetica,sans-Serif" font-size="12.00" fill="#ffe66d">&#45;25</text>
</g>
<!-- t3 -->
<g id="node8" class="node">
<title>t3</title>
<path fill="#2d2d44" stroke="none" d="M98,-489C98,-489 68,-489 68,-489 62,-489 56,-483 56,-477 56,-477 56,-465 56,-465 56,-459 62,-453 68,-453 68,-453 98,-453 98,-453 104,-453 110,-459 110,-465 110,-465 110,-477 110,-477 110,-483 104,-489 98,-489"/>
<text xml:space="preserve" text-anchor="middle" x="83" y="-465.98" font-family="Helvetica,sans-Serif" font-size="12.00" fill="#ffe66d">+25</text>
</g>
<!-- t4 -->
<g id="node9" class="node">
<title>t4</title>
<path fill="#2d2d44" stroke="none" d="M98,-543C98,-543 68,-543 68,-543 62,-543 56,-537 56,-531 56,-531 56,-519 56,-519 56,-513 62,-507 68,-507 68,-507 98,-507 98,-507 104,-507 110,-513 110,-519 110,-519 110,-531 110,-531 110,-537 104,-543 98,-543"/>
<text xml:space="preserve" text-anchor="middle" x="83" y="-519.98" font-family="Helvetica,sans-Serif" font-size="12.00" fill="#95d5b2">+75</text>
</g>
</g>
</svg>
