<?xml version="1.0" encoding="UTF-8" standalone="no"?>
<!DOCTYPE svg PUBLIC "-//W3C//DTD SVG 1.1//EN"
 "http://www.w3.org/Graphics/SVG/1.1/DTD/svg11.dtd">
<!-- Generated by graphviz version 14.1.2 (20260124.0452)
 -->
<!-- Title: TechTree Pages: 1 -->
<svg width="122pt" height="652pt"
 viewBox="0.00 0.00 122.00 652.00" xmlns="http://www.w3.org/2000/svg" xmlns:xlink="http://www.w3.org/1999/xlink">
<g id="graph0" class="graph" transform="scale(1 1) rotate(0) translate(4 648)">
<title>TechTree</title>
<polygon fill="white" stroke="none" points="-4,4 -4,-648 117.5,-648 117.5,4 -4,4"/>
<text xml:space="preserve" text-anchor="middle" x="56.75" y="-626.7" font-family="Helvetica,sans-Serif" font-weight="bold" font-size="14.00">Active Jammer</text>
<!-- Sensor_Jammer_1 -->
<g id="node1" class="node">
<title>Sensor_Jammer_1</title>
<path fill="#cce5ff" stroke="black" d="M91.38,-621C91.38,-621 22.12,-621 22.12,-621 16.13,-621 10.12,-615 10.12,-609 10.12,-609 10.12,-597 10.12,-597 10.12,-591 16.12,-585 22.12,-585 22.12,-585 91.38,-585 91.38,-585 97.38,-585 103.38,-591 103.38,-597 103.38,-597 103.38,-609 103.38,-609 103.38,-615 97.38,-621 91.38,-621"/>
<text xml:space="preserve" text-anchor="middle" x="56.75" y="-604.75" font-family="Helvetica,sans-Serif" font-size="10.00">Sensor Jammer 1</text>
<text xml:space="preserve" text-anchor="middle" x="56.75" y="-593.5" font-family="Helvetica,sans-Serif" font-size="10.00">2K RP</text>
</g>
<!-- Sensor_Jammer_2 -->
<g id="node2" class="node">
<title>Sensor_Jammer_2</title>
<path fill="#cce5ff" stroke="black" d="M91.38,-556C91.38,-556 22.12,-556 22.12,-556 16.13,-556 10.12,-550 10.12,-544 10.12,-544 10.12,-532 10.12,-532 10.12,-526 16.12,-520 22.12,-520 22.12,-520 91.38,-520 91.38,-520 97.38,-520 103.38,-526 103.38,-532 103.38,-532 103.38,-544 103.38,-544 103.38,-550 97.38,-556 91.38,-556"/>
<text xml:space="preserve" text-anchor="middle" x="56.75" y="-539.75" font-family="Helvetica,sans-Serif" font-size="10.00">Sensor Jammer 2</text>
<text xml:space="preserve" text-anchor="middle" x="56.75" y="-528.5" font-family="Helvetica,sans-Serif" font-size="10.00">5K RP</text>
</g>
<!-- Sensor_Jammer_1&#45;&gt;Sensor_Jammer_2 -->
<g id="edge1" class="edge">
<title>Sensor_Jammer_1&#45;&gt;Sensor_Jammer_2</title>
<path fill="none" stroke="black" d="M56.75,-584.78C56.75,-578.53 56.75,-571.33 56.75,-564.52"/>
<polygon fill="black" stroke="black" points="59.2,-564.71 56.75,-557.71 54.3,-564.71 59.2,-564.71"/>
</g>
<!-- Sensor_Jammer_3 -->
<g id="node3" class="node">
<title>Sensor_Jammer_3</title>
<path fill="#cce5ff" stroke="black" d="M91.38,-491C91.38,-491 22.12,-491 22.12,-491 16.13,-491 10.12,-485 10.12,-479 10.12,-479 10.12,-467 10.12,-467 10.12,-461 16.12,-455 22.12,-455 22.12,-455 91.38,-455 91.38,-455 97.38,-455 103.38,-461 103.38,-467 103.38,-467 103.38,-479 103.38,-479 103.38,-485 97.38,-491 91.38,-491"/>
<text xml:space="preserve" text-anchor="middle" x="56.75" y="-474.75" font-family="Helvetica,sans-Serif" font-size="10.00">Sensor Jammer 3</text>
<text xml:space="preserve" text-anchor="middle" x="56.75" y="-463.5" font-family="Helvetica,sans-Serif" font-size="10.00">10K RP</text>
</g>
<!-- Sensor_Jammer_2&#45;&gt;Sensor_Jammer_3 -->
<g id="edge2" class="edge">
<title>Sensor_Jammer_2&#45;&gt;Sensor_Jammer_3</title>
<path fill="none" stroke="black" d="M56.75,-519.78C56.75,-513.53 56.75,-506.33 56.75,-499.52"/>
<polygon fill="black" stroke="black" points="59.2,-499.71 56.75,-492.71 54.3,-499.71 59.2,-499.71"/>
</g>
<!-- Sensor_Jammer_4 -->
<g id="node4" class="node">
<title>Sensor_Jammer_4</title>
<path fill="#fff3cd" stroke="black" d="M91.38,-426C91.38,-426 22.12,-426 22.12,-426 16.13,-426 10.12,-420 10.12,-414 10.12,-414 10.12,-402 10.12,-402 10.12,-396 16.12,-390 22.12,-390 22.12,-390 91.38,-390 91.38,-390 97.38,-390 103.38,-396 103.38,-402 103.38,-402 103.38,-414 103.38,-414 103.38,-420 97.38,-426 91.38,-426"/>
<text xml:space="preserve" text-anchor="middle" x="56.75" y="-409.75" font-family="Helvetica,sans-Serif" font-size="10.00">Sensor Jammer 4</text>
<text xml:space="preserve" text-anchor="middle" x="56.75" y="-398.5" font-family="Helvetica,sans-Serif" font-size="10.00">20K RP</text>
</g>
<!-- Sensor_Jammer_3&#45;&gt;Sensor_Jammer_4 -->
<g id="edge3" class="edge">
<title>Sensor_Jammer_3&#45;&gt;Sensor_Jammer_4</title>
<path fill="none" stroke="black" d="M56.75,-454.78C56.75,-448.53 56.75,-441.33 56.75,-434.52"/>
<polygon fill="black" stroke="black" points="59.2,-434.71 56.75,-427.71 54.3,-434.71 59.2,-434.71"/>
</g>
<!-- Sensor_Jammer_5 -->
<g id="node5" class="node">
<title>Sensor_Jammer_5</title>
<path fill="#fff3cd" stroke="black" d="M91.38,-361C91.38,-361 22.12,-361 22.12,-361 16.13,-361 10.12,-355 10.12,-349 10.12,-349 10.12,-337 10.12,-337 10.12,-331 16.12,-325 22.12,-325 22.12,-325 91.38,-325 91.38,-325 97.38,-325 103.38,-331 103.38,-337 103.38,-337 103.38,-349 103.38,-349 103.38,-355 97.38,-361 91.38,-361"/>
<text xml:space="preserve" text-anchor="middle" x="56.75" y="-344.75" font-family="Helvetica,sans-Serif" font-size="10.00">Sensor Jammer 5</text>
<text xml:space="preserve" text-anchor="middle" x="56.75" y="-333.5" font-family="Helvetica,sans-Serif" font-size="10.00">40K RP</text>
</g>
<!-- Sensor_Jammer_4&#45;&gt;Sensor_Jammer_5 -->
<g id="edge4" class="edge">
<title>Sensor_Jammer_4&#45;&gt;Sensor_Jammer_5</title>
<path fill="none" stroke="black" d="M56.75,-389.78C56.75,-383.53 56.75,-376.33 56.75,-369.52"/>
<polygon fill="black" stroke="black" points="59.2,-369.71 56.75,-362.71 54.3,-369.71 59.2,-369.71"/>
</g>
<!-- Sensor_Jammer_6 -->
<g id="node6" class="node">
<title>Sensor_Jammer_6</title>
<path fill="#fff3cd" stroke="black" d="M91.38,-296C91.38,-296 22.12,-296 22.12,-296 16.13,-296 10.12,-290 10.12,-284 10.12,-284 10.12,-272 10.12,-272 10.12,-266 16.12,-260 22.12,-260 22.12,-260 91.38,-260 91.38,-260 97.38,-260 103.38,-266 103.38,-272 103.38,-272 103.38,-284 103.38,-284 103.38,-290 97.38,-296 91.38,-296"/>
<text xml:space="preserve" text-anchor="middle" x="56.75" y="-279.75" font-family="Helvetica,sans-Serif" font-size="10.00">Sensor Jammer 6</text>
<text xml:space="preserve" text-anchor="middle" x="56.75" y="-268.5" font-family="Helvetica,sans-Serif" font-size="10.00">80K RP</text>
</g>
<!-- Sensor_Jammer_5&#45;&gt;Sensor_Jammer_6 -->
<g id="edge5" class="edge">
<title>Sensor_Jammer_5&#45;&gt;Sensor_Jammer_6</title>
<path fill="none" stroke="black" d="M56.75,-324.78C56.75,-318.53 56.75,-311.33 56.75,-304.52"/>
<polygon fill="black" stroke="black" points="59.2,-304.71 56.75,-297.71 54.3,-304.71 59.2,-304.71"/>
</g>
<!-- Sensor_Jammer_7 -->
<g id="node7" class="node">
<title>Sensor_Jammer_7</title>
<path fill="#d4c4fb" stroke="black" d="M91.38,-231C91.38,-231 22.12,-231 22.12,-231 16.13,-231 10.12,-225 10.12,-219 10.12,-219 10.12,-207 10.12,-207 10.12,-201 16.12,-195 22.12,-195 22.12,-195 91.38,-195 91.38,-195 97.38,-195 103.38,-201 103.38,-207 103.38,-207 103.38,-219 103.38,-219 103.38,-225 97.38,-231 91.38,-231"/>
<text xml:space="preserve" text-anchor="middle" x="56.75" y="-214.75" font-family="Helvetica,sans-Serif" font-size="10.00">Sensor Jammer 7</text>
<text xml:space="preserve" text-anchor="middle" x="56.75" y="-203.5" font-family="Helvetica,sans-Serif" font-size="10.00">150K RP</text>
</g>
<!-- Sensor_Jammer_6&#45;&gt;Sensor_Jammer_7 -->
<g id="edge6" class="edge">
<title>Sensor_Jammer_6&#45;&gt;Sensor_Jammer_7</title>
<path fill="none" stroke="black" d="M56.75,-259.78C56.75,-253.53 56.75,-246.33 56.75,-239.52"/>
<polygon fill="black" stroke="black" points="59.2,-239.71 56.75,-232.71 54.3,-239.71 59.2,-239.71"/>
</g>
<!-- Sensor_Jammer_8 -->
<g id="node8" class="node">
<title>Sensor_Jammer_8</title>
<path fill="#d4c4fb" stroke="black" d="M91.38,-166C91.38,-166 22.12,-166 22.12,-166 16.13,-166 10.12,-160 10.12,-154 10.12,-154 10.12,-142 10.12,-142 10.12,-136 16.12,-130 22.12,-130 22.12,-130 91.38,-130 91.38,-130 97.38,-130 103.38,-136 103.38,-142 103.38,-142 103.38,-154 103.38,-154 103.38,-160 97.38,-166 91.38,-166"/>
<text xml:space="preserve" text-anchor="middle" x="56.75" y="-149.75" font-family="Helvetica,sans-Serif" font-size="10.00">Sensor Jammer 8</text>
<text xml:space="preserve" text-anchor="middle" x="56.75" y="-138.5" font-family="Helvetica,sans-Serif" font-size="10.00">300K RP</text>
</g>
<!-- Sensor_Jammer_7&#45;&gt;Sensor_Jammer_8 -->
<g id="edge7" class="edge">
<title>Sensor_Jammer_7&#45;&gt;Sensor_Jammer_8</title>
<path fill="none" stroke="black" d="M56.75,-194.78C56.75,-188.53 56.75,-181.33 56.75,-174.52"/>
<polygon fill="black" stroke="black" points="59.2,-174.71 56.75,-167.71 54.3,-174.71 59.2,-174.71"/>
</g>
<!-- Sensor_Jammer_9 -->
<g id="node9" class="node">
<title>Sensor_Jammer_9</title>
<path fill="#d4c4fb" stroke="black" d="M91.38,-101C91.38,-101 22.12,-101 22.12,-101 16.13,-101 10.12,-95 10.12,-89 10.12,-89 10.12,-77 10.12,-77 10.12,-71 16.12,-65 22.12,-65 22.12,-65 91.38,-65 91.38,-65 97.38,-65 103.38,-71 103.38,-77 103.38,-77 103.38,-89 103.38,-89 103.38,-95 97.38,-101 91.38,-101"/>
<text xml:space="preserve" text-anchor="middle" x="56.75" y="-84.75" font-family="Helvetica,sans-Serif" font-size="10.00">Sensor Jammer 9</text>
<text xml:space="preserve" text-anchor="middle" x="56.75" y="-73.5" font-family="Helvetica,sans-Serif" font-size="10.00">600K RP</text>
</g>
<!-- Sensor_Jammer_8&#45;&gt;Sensor_Jammer_9 -->
<g id="edge8" class="edge">
<title>Sensor_Jammer_8&#45;&gt;Sensor_Jammer_9</title>
<path fill="none" stroke="black" d="M56.75,-129.78C56.75,-123.53 56.75,-116.33 56.75,-109.52"/>
<polygon fill="black" stroke="black" points="59.2,-109.71 56.75,-102.71 54.3,-109.71 59.2,-109.71"/>
</g>
<!-- Sensor_Jammer_10 -->
<g id="node10" class="node">
<title>Sensor_Jammer_10</title>
<path fill="#f8d7da" stroke="black" d="M94,-36C94,-36 19.5,-36 19.5,-36 13.5,-36 7.5,-30 7.5,-24 7.5,-24 7.5,-12 7.5,-12 7.5,-6 13.5,0 19.5,0 19.5,0 94,0 94,0 100,0 106,-6 106,-12 106,-12 106,-24 106,-24 106,-30 100,-36 94,-36"/>
<text xml:space="preserve" text-anchor="middle" x="56.75" y="-19.75" font-family="Helvetica,sans-Serif" font-size="10.00">Sensor Jammer 10</text>
<text xml:space="preserve" text-anchor="middle" x="56.75" y="-8.5" font-family="Helvetica,sans-Serif" font-size="10.00">1.2M RP</text>
</g>
<!-- Sensor_Jammer_9&#45;&gt;Sensor_Jammer_10 -->
<g id="edge9" class="edge">
<title>Sensor_Jammer_9&#45;&gt;Sensor_Jammer_10</title>
<path fill="none" stroke="black" d="M56.75,-64.78C56.75,-58.53 56.75,-51.33 56.75,-44.52"/>
<polygon fill="black" stroke="black" points="59.2,-44.71 56.75,-37.71 54.3,-44.71 59.2,-44.71"/>
</g>
</g>
</svg>
