<?xml version="1.0" encoding="UTF-8" standalone="no"?>
<!DOCTYPE svg PUBLIC "-//W3C//DTD SVG 1.1//EN"
 "http://www.w3.org/Graphics/SVG/1.1/DTD/svg11.dtd">
<!-- Generated by graphviz version 14.1.2 (20260124.0452)
 -->
<!-- Title: TechTree Pages: 1 -->
<svg width="424pt" height="587pt"
 viewBox="0.00 0.00 424.00 587.00" xmlns="http://www.w3.org/2000/svg" xmlns:xlink="http://www.w3.org/1999/xlink">
<g id="graph0" class="graph" transform="scale(1 1) rotate(0) translate(4 583)">
<title>TechTree</title>
<polygon fill="white" stroke="none" points="-4,4 -4,-583 419.75,-583 419.75,4 -4,4"/>
<text xml:space="preserve" text-anchor="middle" x="207.88" y="-561.7" font-family="Helvetica,sans-Serif" font-weight="bold" font-size="14.00">Active Sensor Strength</text>
<!-- Conventional_Active_Sensor_Str -->
<g id="node1" class="node">
<title>Conventional_Active_Sensor_Str</title>
<path fill="#d4edda" stroke="black" d="M172.75,-556C172.75,-556 12,-556 12,-556 6,-556 0,-550 0,-544 0,-544 0,-532 0,-532 0,-526 6,-520 12,-520 12,-520 172.75,-520 172.75,-520 178.75,-520 184.75,-526 184.75,-532 184.75,-532 184.75,-544 184.75,-544 184.75,-550 178.75,-556 172.75,-556"/>
<text xml:space="preserve" text-anchor="middle" x="92.38" y="-539.75" font-family="Helvetica,sans-Serif" font-size="10.00">Conventional Active Sensor Strength 2</text>
<text xml:space="preserve" text-anchor="middle" x="92.38" y="-528.5" font-family="Helvetica,sans-Serif" font-size="10.00">500 RP</text>
</g>
<!-- Active_Grav_Sensor_Strength_10 -->
<g id="node2" class="node">
<title>Active_Grav_Sensor_Strength_10</title>
<path fill="#d4c4fb" stroke="black" d="M354.38,-556C354.38,-556 218.38,-556 218.38,-556 212.38,-556 206.38,-550 206.38,-544 206.38,-544 206.38,-532 206.38,-532 206.38,-526 212.38,-520 218.38,-520 218.38,-520 354.38,-520 354.38,-520 360.38,-520 366.38,-526 366.38,-532 366.38,-532 366.38,-544 366.38,-544 366.38,-550 360.38,-556 354.38,-556"/>
<text xml:space="preserve" text-anchor="middle" x="286.38" y="-539.75" font-family="Helvetica,sans-Serif" font-size="10.00">Active Grav Sensor Strength 100</text>
<text xml:space="preserve" text-anchor="middle" x="286.38" y="-528.5" font-family="Helvetica,sans-Serif" font-size="10.00">500K RP</text>
</g>
<!-- Active_Grav_Sensor_Strength_12 -->
<g id="node3" class="node">
<title>Active_Grav_Sensor_Strength_12</title>
<path fill="#cce5ff" stroke="black" d="M172.75,-491C172.75,-491 42,-491 42,-491 36,-491 30,-485 30,-479 30,-479 30,-467 30,-467 30,-461 36,-455 42,-455 42,-455 172.75,-455 172.75,-455 178.75,-455 184.75,-461 184.75,-467 184.75,-467 184.75,-479 184.75,-479 184.75,-485 178.75,-491 172.75,-491"/>
<text xml:space="preserve" text-anchor="middle" x="107.38" y="-474.75" font-family="Helvetica,sans-Serif" font-size="10.00">Active Grav Sensor Strength 12</text>
<text xml:space="preserve" text-anchor="middle" x="107.38" y="-463.5" font-family="Helvetica,sans-Serif" font-size="10.00">2K RP</text>
</g>
<!-- Active_Grav_Sensor_Strength_10&#45;&gt;Active_Grav_Sensor_Strength_12 -->
<g id="edge1" class="edge">
<title>Active_Grav_Sensor_Strength_10&#45;&gt;Active_Grav_Sensor_Strength_12</title>
<path fill="none" stroke="black" d="M236.99,-519.62C214.58,-511.73 187.95,-502.36 164.67,-494.16"/>
<polygon fill="black" stroke="black" points="165.75,-491.95 158.34,-491.94 164.13,-496.57 165.75,-491.95"/>
</g>
<!-- Active_Grav_Sensor_Strength_13 -->
<g id="node11" class="node">
<title>Active_Grav_Sensor_Strength_13</title>
<path fill="#d4c4fb" stroke="black" d="M354.38,-491C354.38,-491 218.38,-491 218.38,-491 212.38,-491 206.38,-485 206.38,-479 206.38,-479 206.38,-467 206.38,-467 206.38,-461 212.38,-455 218.38,-455 218.38,-455 354.38,-455 354.38,-455 360.38,-455 366.38,-461 366.38,-467 366.38,-467 366.38,-479 366.38,-479 366.38,-485 360.38,-491 354.38,-491"/>
<text xml:space="preserve" text-anchor="middle" x="286.38" y="-474.75" font-family="Helvetica,sans-Serif" font-size="10.00">Active Grav Sensor Strength 135</text>
<text xml:space="preserve" text-anchor="middle" x="286.38" y="-463.5" font-family="Helvetica,sans-Serif" font-size="10.00">1.0M RP</text>
</g>
<!-- Active_Grav_Sensor_Strength_10&#45;&gt;Active_Grav_Sensor_Strength_13 -->
<g id="edge10" class="edge">
<title>Active_Grav_Sensor_Strength_10&#45;&gt;Active_Grav_Sensor_Strength_13</title>
<path fill="none" stroke="black" d="M286.38,-519.78C286.38,-513.53 286.38,-506.33 286.38,-499.52"/>
<polygon fill="black" stroke="black" points="288.83,-499.71 286.38,-492.71 283.93,-499.71 288.83,-499.71"/>
</g>
<!-- Active_Grav_Sensor_Strength_16 -->
<g id="node4" class="node">
<title>Active_Grav_Sensor_Strength_16</title>
<path fill="#cce5ff" stroke="black" d="M172.75,-426C172.75,-426 42,-426 42,-426 36,-426 30,-420 30,-414 30,-414 30,-402 30,-402 30,-396 36,-390 42,-390 42,-390 172.75,-390 172.75,-390 178.75,-390 184.75,-396 184.75,-402 184.75,-402 184.75,-414 184.75,-414 184.75,-420 178.75,-426 172.75,-426"/>
<text xml:space="preserve" text-anchor="middle" x="107.38" y="-409.75" font-family="Helvetica,sans-Serif" font-size="10.00">Active Grav Sensor Strength 16</text>
<text xml:space="preserve" text-anchor="middle" x="107.38" y="-398.5" font-family="Helvetica,sans-Serif" font-size="10.00">4K RP</text>
</g>
<!-- Active_Grav_Sensor_Strength_12&#45;&gt;Active_Grav_Sensor_Strength_16 -->
<g id="edge2" class="edge">
<title>Active_Grav_Sensor_Strength_12&#45;&gt;Active_Grav_Sensor_Strength_16</title>
<path fill="none" stroke="black" d="M107.38,-454.78C107.38,-448.53 107.38,-441.33 107.38,-434.52"/>
<polygon fill="black" stroke="black" points="109.83,-434.71 107.38,-427.71 104.93,-434.71 109.83,-434.71"/>
</g>
<!-- Active_Grav_Sensor_Strength_21 -->
<g id="node5" class="node">
<title>Active_Grav_Sensor_Strength_21</title>
<path fill="#cce5ff" stroke="black" d="M178.75,-361C178.75,-361 48,-361 48,-361 42,-361 36,-355 36,-349 36,-349 36,-337 36,-337 36,-331 42,-325 48,-325 48,-325 178.75,-325 178.75,-325 184.75,-325 190.75,-331 190.75,-337 190.75,-337 190.75,-349 190.75,-349 190.75,-355 184.75,-361 178.75,-361"/>
<text xml:space="preserve" text-anchor="middle" x="113.38" y="-344.75" font-family="Helvetica,sans-Serif" font-size="10.00">Active Grav Sensor Strength 21</text>
<text xml:space="preserve" text-anchor="middle" x="113.38" y="-333.5" font-family="Helvetica,sans-Serif" font-size="10.00">8K RP</text>
</g>
<!-- Active_Grav_Sensor_Strength_16&#45;&gt;Active_Grav_Sensor_Strength_21 -->
<g id="edge3" class="edge">
<title>Active_Grav_Sensor_Strength_16&#45;&gt;Active_Grav_Sensor_Strength_21</title>
<path fill="none" stroke="black" d="M109.01,-389.78C109.61,-383.53 110.3,-376.33 110.94,-369.52"/>
<polygon fill="black" stroke="black" points="113.37,-369.9 111.59,-362.7 108.49,-369.44 113.37,-369.9"/>
</g>
<!-- Active_Grav_Sensor_Strength_28 -->
<g id="node6" class="node">
<title>Active_Grav_Sensor_Strength_28</title>
<path fill="#fff3cd" stroke="black" d="M269.75,-296C269.75,-296 139,-296 139,-296 133,-296 127,-290 127,-284 127,-284 127,-272 127,-272 127,-266 133,-260 139,-260 139,-260 269.75,-260 269.75,-260 275.75,-260 281.75,-266 281.75,-272 281.75,-272 281.75,-284 281.75,-284 281.75,-290 275.75,-296 269.75,-296"/>
<text xml:space="preserve" text-anchor="middle" x="204.38" y="-279.75" font-family="Helvetica,sans-Serif" font-size="10.00">Active Grav Sensor Strength 28</text>
<text xml:space="preserve" text-anchor="middle" x="204.38" y="-268.5" font-family="Helvetica,sans-Serif" font-size="10.00">15K RP</text>
</g>
<!-- Active_Grav_Sensor_Strength_21&#45;&gt;Active_Grav_Sensor_Strength_28 -->
<g id="edge4" class="edge">
<title>Active_Grav_Sensor_Strength_21&#45;&gt;Active_Grav_Sensor_Strength_28</title>
<path fill="none" stroke="black" d="M138.24,-324.78C148.79,-317.48 161.21,-308.88 172.42,-301.12"/>
<polygon fill="black" stroke="black" points="173.62,-303.27 177.98,-297.27 170.83,-299.24 173.62,-303.27"/>
</g>
<!-- Active_Grav_Sensor_Strength_36 -->
<g id="node7" class="node">
<title>Active_Grav_Sensor_Strength_36</title>
<path fill="#fff3cd" stroke="black" d="M314.75,-231C314.75,-231 184,-231 184,-231 178,-231 172,-225 172,-219 172,-219 172,-207 172,-207 172,-201 178,-195 184,-195 184,-195 314.75,-195 314.75,-195 320.75,-195 326.75,-201 326.75,-207 326.75,-207 326.75,-219 326.75,-219 326.75,-225 320.75,-231 314.75,-231"/>
<text xml:space="preserve" text-anchor="middle" x="249.38" y="-214.75" font-family="Helvetica,sans-Serif" font-size="10.00">Active Grav Sensor Strength 36</text>
<text xml:space="preserve" text-anchor="middle" x="249.38" y="-203.5" font-family="Helvetica,sans-Serif" font-size="10.00">30K RP</text>
</g>
<!-- Active_Grav_Sensor_Strength_28&#45;&gt;Active_Grav_Sensor_Strength_36 -->
<g id="edge5" class="edge">
<title>Active_Grav_Sensor_Strength_28&#45;&gt;Active_Grav_Sensor_Strength_36</title>
<path fill="none" stroke="black" d="M216.67,-259.78C221.53,-252.98 227.2,-245.04 232.44,-237.71"/>
<polygon fill="black" stroke="black" points="234.14,-239.55 236.21,-232.43 230.15,-236.7 234.14,-239.55"/>
</g>
<!-- Active_Grav_Sensor_Strength_48 -->
<g id="node8" class="node">
<title>Active_Grav_Sensor_Strength_48</title>
<path fill="#fff3cd" stroke="black" d="M337.75,-166C337.75,-166 207,-166 207,-166 201,-166 195,-160 195,-154 195,-154 195,-142 195,-142 195,-136 201,-130 207,-130 207,-130 337.75,-130 337.75,-130 343.75,-130 349.75,-136 349.75,-142 349.75,-142 349.75,-154 349.75,-154 349.75,-160 343.75,-166 337.75,-166"/>
<text xml:space="preserve" text-anchor="middle" x="272.38" y="-149.75" font-family="Helvetica,sans-Serif" font-size="10.00">Active Grav Sensor Strength 48</text>
<text xml:space="preserve" text-anchor="middle" x="272.38" y="-138.5" font-family="Helvetica,sans-Serif" font-size="10.00">60K RP</text>
</g>
<!-- Active_Grav_Sensor_Strength_36&#45;&gt;Active_Grav_Sensor_Strength_48 -->
<g id="edge6" class="edge">
<title>Active_Grav_Sensor_Strength_36&#45;&gt;Active_Grav_Sensor_Strength_48</title>
<path fill="none" stroke="black" d="M255.66,-194.78C257.99,-188.4 260.69,-181.01 263.22,-174.06"/>
<polygon fill="black" stroke="black" points="265.48,-175.03 265.58,-167.62 260.88,-173.35 265.48,-175.03"/>
</g>
<!-- Active_Grav_Sensor_Strength_60 -->
<g id="node9" class="node">
<title>Active_Grav_Sensor_Strength_60</title>
<path fill="#d4c4fb" stroke="black" d="M348.75,-101C348.75,-101 218,-101 218,-101 212,-101 206,-95 206,-89 206,-89 206,-77 206,-77 206,-71 212,-65 218,-65 218,-65 348.75,-65 348.75,-65 354.75,-65 360.75,-71 360.75,-77 360.75,-77 360.75,-89 360.75,-89 360.75,-95 354.75,-101 348.75,-101"/>
<text xml:space="preserve" text-anchor="middle" x="283.38" y="-84.75" font-family="Helvetica,sans-Serif" font-size="10.00">Active Grav Sensor Strength 60</text>
<text xml:space="preserve" text-anchor="middle" x="283.38" y="-73.5" font-family="Helvetica,sans-Serif" font-size="10.00">125K RP</text>
</g>
<!-- Active_Grav_Sensor_Strength_48&#45;&gt;Active_Grav_Sensor_Strength_60 -->
<g id="edge7" class="edge">
<title>Active_Grav_Sensor_Strength_48&#45;&gt;Active_Grav_Sensor_Strength_60</title>
<path fill="none" stroke="black" d="M275.38,-129.78C276.47,-123.53 277.73,-116.33 278.92,-109.52"/>
<polygon fill="black" stroke="black" points="281.32,-110 280.11,-102.69 276.49,-109.16 281.32,-110"/>
</g>
<!-- Active_Grav_Sensor_Strength_80 -->
<g id="node10" class="node">
<title>Active_Grav_Sensor_Strength_80</title>
<path fill="#d4c4fb" stroke="black" d="M403.75,-36C403.75,-36 273,-36 273,-36 267,-36 261,-30 261,-24 261,-24 261,-12 261,-12 261,-6 267,0 273,0 273,0 403.75,0 403.75,0 409.75,0 415.75,-6 415.75,-12 415.75,-12 415.75,-24 415.75,-24 415.75,-30 409.75,-36 403.75,-36"/>
<text xml:space="preserve" text-anchor="middle" x="338.38" y="-19.75" font-family="Helvetica,sans-Serif" font-size="10.00">Active Grav Sensor Strength 80</text>
<text xml:space="preserve" text-anchor="middle" x="338.38" y="-8.5" font-family="Helvetica,sans-Serif" font-size="10.00">250K RP</text>
</g>
<!-- Active_Grav_Sensor_Strength_60&#45;&gt;Active_Grav_Sensor_Strength_80 -->
<g id="edge8" class="edge">
<title>Active_Grav_Sensor_Strength_60&#45;&gt;Active_Grav_Sensor_Strength_80</title>
<path fill="none" stroke="black" d="M298.4,-64.78C304.47,-57.84 311.56,-49.72 318.07,-42.26"/>
<polygon fill="black" stroke="black" points="319.61,-44.22 322.37,-37.33 315.92,-41 319.61,-44.22"/>
</g>
<!-- Active_Grav_Sensor_Strength_80&#45;&gt;Active_Grav_Sensor_Strength_10 -->
<g id="edge9" class="edge">
<title>Active_Grav_Sensor_Strength_80&#45;&gt;Active_Grav_Sensor_Strength_10</title>
<path fill="none" stroke="black" d="M353.07,-36.36C371.4,-59.84 400.38,-103.79 400.38,-147 400.38,-409 400.38,-409 400.38,-409 400.38,-446.85 401.41,-461.76 377.38,-491 369,-501.19 357.78,-509.35 346.1,-515.79"/>
<polygon fill="black" stroke="black" points="345.21,-513.49 340.12,-518.89 347.46,-517.84 345.21,-513.49"/>
</g>
<!-- Active_Grav_Sensor_Strength_18 -->
<g id="node12" class="node">
<title>Active_Grav_Sensor_Strength_18</title>
<path fill="#f8d7da" stroke="black" d="M354.38,-426C354.38,-426 218.38,-426 218.38,-426 212.38,-426 206.38,-420 206.38,-414 206.38,-414 206.38,-402 206.38,-402 206.38,-396 212.38,-390 218.38,-390 218.38,-390 354.38,-390 354.38,-390 360.38,-390 366.38,-396 366.38,-402 366.38,-402 366.38,-414 366.38,-414 366.38,-420 360.38,-426 354.38,-426"/>
<text xml:space="preserve" text-anchor="middle" x="286.38" y="-409.75" font-family="Helvetica,sans-Serif" font-size="10.00">Active Grav Sensor Strength 180</text>
<text xml:space="preserve" text-anchor="middle" x="286.38" y="-398.5" font-family="Helvetica,sans-Serif" font-size="10.00">2.0M RP</text>
</g>
<!-- Active_Grav_Sensor_Strength_13&#45;&gt;Active_Grav_Sensor_Strength_18 -->
<g id="edge11" class="edge">
<title>Active_Grav_Sensor_Strength_13&#45;&gt;Active_Grav_Sensor_Strength_18</title>
<path fill="none" stroke="black" d="M286.38,-454.78C286.38,-448.53 286.38,-441.33 286.38,-434.52"/>
<polygon fill="black" stroke="black" points="288.83,-434.71 286.38,-427.71 283.93,-434.71 288.83,-434.71"/>
</g>
</g>
</svg>
