<?xml version="1.0" encoding="UTF-8" standalone="no"?>
<!DOCTYPE svg PUBLIC "-//W3C//DTD SVG 1.1//EN"
 "http://www.w3.org/Graphics/SVG/1.1/DTD/svg11.dtd">
<!-- Generated by graphviz version 14.1.2 (20260124.0452)
 -->
<!-- Title: TechTree Pages: 1 -->
<svg width="198pt" height="65pt"
 viewBox="0.00 0.00 198.00 65.00" xmlns="http://www.w3.org/2000/svg" xmlns:xlink="http://www.w3.org/1999/xlink">
<g id="graph0" class="graph" transform="scale(1 1) rotate(0) translate(4 60.75)">
<title>TechTree</title>
<polygon fill="white" stroke="none" points="-4,4 -4,-60.75 193.75,-60.75 193.75,4 -4,4"/>
<text xml:space="preserve" text-anchor="middle" x="94.88" y="-41.35" font-family="Helvetica,sans-Serif" font-weight="bold" font-size="12.00">Active Sensor Type</text>
<!-- Search_Sensor -->
<g id="node1" class="node">
<title>Search_Sensor</title>
<path fill="#d4edda" stroke="black" d="M64.75,-36C64.75,-36 12,-36 12,-36 6,-36 0,-30 0,-24 0,-24 0,-12 0,-12 0,-6 6,0 12,0 12,0 64.75,0 64.75,0 70.75,0 76.75,-6 76.75,-12 76.75,-12 76.75,-24 76.75,-24 76.75,-30 70.75,-36 64.75,-36"/>
<text xml:space="preserve" text-anchor="middle" x="38.38" y="-19.2" font-family="Helvetica,sans-Serif" font-size="9.00">Search Sensor</text>
<text xml:space="preserve" text-anchor="middle" x="38.38" y="-9.45" font-family="Helvetica,sans-Serif" font-size="9.00">1 RP</text>
</g>
<!-- Missile_Fire_Control -->
<g id="node2" class="node">
<title>Missile_Fire_Control</title>
<path fill="#d4edda" stroke="black" d="M177.75,-36C177.75,-36 107,-36 107,-36 101,-36 95,-30 95,-24 95,-24 95,-12 95,-12 95,-6 101,0 107,0 107,0 177.75,0 177.75,0 183.75,0 189.75,-6 189.75,-12 189.75,-12 189.75,-24 189.75,-24 189.75,-30 183.75,-36 177.75,-36"/>
<text xml:space="preserve" text-anchor="middle" x="142.38" y="-19.2" font-family="Helvetica,sans-Serif" font-size="9.00">Missile Fire Control</text>
<text xml:space="preserve" text-anchor="middle" x="142.38" y="-9.45" font-family="Helvetica,sans-Serif" font-size="9.00">2 RP</text>
</g>
</g>
</svg>
