<?xml version="1.0" encoding="UTF-8" standalone="no"?>
<!DOCTYPE svg PUBLIC "-//W3C//DTD SVG 1.1//EN"
 "http://www.w3.org/Graphics/SVG/1.1/DTD/svg11.dtd">
<!-- Generated by graphviz version 14.1.2 (20260124.0452)
 -->
<!-- Title: TechTree Pages: 1 -->
<svg width="109pt" height="785pt"
 viewBox="0.00 0.00 109.00 785.00" xmlns="http://www.w3.org/2000/svg" xmlns:xlink="http://www.w3.org/1999/xlink">
<g id="graph0" class="graph" transform="scale(1 1) rotate(0) translate(4 780.75)">
<title>TechTree</title>
<polygon fill="white" stroke="none" points="-4,4 -4,-780.75 104.75,-780.75 104.75,4 -4,4"/>
<text xml:space="preserve" text-anchor="middle" x="50.38" y="-761.35" font-family="Helvetica,sans-Serif" font-weight="bold" font-size="12.00">Active Jammer</text>
<!-- Sensor_Jammer_1 -->
<g id="node1" class="node">
<title>Sensor_Jammer_1</title>
<path fill="#cce5ff" stroke="black" d="M82.38,-684C82.38,-684 18.38,-684 18.38,-684 12.37,-684 6.38,-678 6.38,-672 6.38,-672 6.38,-660 6.38,-660 6.38,-654 12.38,-648 18.38,-648 18.38,-648 82.38,-648 82.38,-648 88.38,-648 94.38,-654 94.38,-660 94.38,-660 94.38,-672 94.38,-672 94.38,-678 88.38,-684 82.38,-684"/>
<text xml:space="preserve" text-anchor="middle" x="50.38" y="-667.2" font-family="Helvetica,sans-Serif" font-size="9.00">Sensor Jammer 1</text>
<text xml:space="preserve" text-anchor="middle" x="50.38" y="-657.45" font-family="Helvetica,sans-Serif" font-size="9.00">2K RP</text>
</g>
<!-- Sensor_Jammer_2 -->
<g id="node2" class="node">
<title>Sensor_Jammer_2</title>
<path fill="#cce5ff" stroke="black" d="M82.38,-612C82.38,-612 18.38,-612 18.38,-612 12.37,-612 6.38,-606 6.38,-600 6.38,-600 6.38,-588 6.38,-588 6.38,-582 12.38,-576 18.38,-576 18.38,-576 82.38,-576 82.38,-576 88.38,-576 94.38,-582 94.38,-588 94.38,-588 94.38,-600 94.38,-600 94.38,-606 88.38,-612 82.38,-612"/>
<text xml:space="preserve" text-anchor="middle" x="50.38" y="-595.2" font-family="Helvetica,sans-Serif" font-size="9.00">Sensor Jammer 2</text>
<text xml:space="preserve" text-anchor="middle" x="50.38" y="-585.45" font-family="Helvetica,sans-Serif" font-size="9.00">5K RP</text>
</g>
<!-- Sensor_Jammer_1&#45;&gt;Sensor_Jammer_2 -->
<g id="edge2" class="edge">
<title>Sensor_Jammer_1&#45;&gt;Sensor_Jammer_2</title>
<path fill="none" stroke="black" d="M50.38,-647.7C50.38,-639.22 50.38,-628.86 50.38,-619.58"/>
<polygon fill="black" stroke="black" points="52.48,-619.62 50.38,-613.62 48.28,-619.62 52.48,-619.62"/>
</g>
<!-- Sensor_Jammer_3 -->
<g id="node3" class="node">
<title>Sensor_Jammer_3</title>
<path fill="#cce5ff" stroke="black" d="M82.38,-540C82.38,-540 18.38,-540 18.38,-540 12.37,-540 6.38,-534 6.38,-528 6.38,-528 6.38,-516 6.38,-516 6.38,-510 12.38,-504 18.38,-504 18.38,-504 82.38,-504 82.38,-504 88.38,-504 94.38,-510 94.38,-516 94.38,-516 94.38,-528 94.38,-528 94.38,-534 88.38,-540 82.38,-540"/>
<text xml:space="preserve" text-anchor="middle" x="50.38" y="-523.2" font-family="Helvetica,sans-Serif" font-size="9.00">Sensor Jammer 3</text>
<text xml:space="preserve" text-anchor="middle" x="50.38" y="-513.45" font-family="Helvetica,sans-Serif" font-size="9.00">10K RP</text>
</g>
<!-- Sensor_Jammer_2&#45;&gt;Sensor_Jammer_3 -->
<g id="edge3" class="edge">
<title>Sensor_Jammer_2&#45;&gt;Sensor_Jammer_3</title>
<path fill="none" stroke="black" d="M50.38,-575.7C50.38,-567.22 50.38,-556.86 50.38,-547.58"/>
<polygon fill="black" stroke="black" points="52.48,-547.62 50.38,-541.62 48.28,-547.62 52.48,-547.62"/>
</g>
<!-- Sensor_Jammer_4 -->
<g id="node4" class="node">
<title>Sensor_Jammer_4</title>
<path fill="#fff3cd" stroke="black" d="M82.38,-468C82.38,-468 18.38,-468 18.38,-468 12.37,-468 6.38,-462 6.38,-456 6.38,-456 6.38,-444 6.38,-444 6.38,-438 12.38,-432 18.38,-432 18.38,-432 82.38,-432 82.38,-432 88.38,-432 94.38,-438 94.38,-444 94.38,-444 94.38,-456 94.38,-456 94.38,-462 88.38,-468 82.38,-468"/>
<text xml:space="preserve" text-anchor="middle" x="50.38" y="-451.2" font-family="Helvetica,sans-Serif" font-size="9.00">Sensor Jammer 4</text>
<text xml:space="preserve" text-anchor="middle" x="50.38" y="-441.45" font-family="Helvetica,sans-Serif" font-size="9.00">20K RP</text>
</g>
<!-- Sensor_Jammer_3&#45;&gt;Sensor_Jammer_4 -->
<g id="edge4" class="edge">
<title>Sensor_Jammer_3&#45;&gt;Sensor_Jammer_4</title>
<path fill="none" stroke="black" d="M50.38,-503.7C50.38,-495.22 50.38,-484.86 50.38,-475.58"/>
<polygon fill="black" stroke="black" points="52.48,-475.62 50.38,-469.62 48.28,-475.62 52.48,-475.62"/>
</g>
<!-- Sensor_Jammer_5 -->
<g id="node5" class="node">
<title>Sensor_Jammer_5</title>
<path fill="#fff3cd" stroke="black" d="M82.38,-396C82.38,-396 18.38,-396 18.38,-396 12.37,-396 6.38,-390 6.38,-384 6.38,-384 6.38,-372 6.38,-372 6.38,-366 12.38,-360 18.38,-360 18.38,-360 82.38,-360 82.38,-360 88.38,-360 94.38,-366 94.38,-372 94.38,-372 94.38,-384 94.38,-384 94.38,-390 88.38,-396 82.38,-396"/>
<text xml:space="preserve" text-anchor="middle" x="50.38" y="-379.2" font-family="Helvetica,sans-Serif" font-size="9.00">Sensor Jammer 5</text>
<text xml:space="preserve" text-anchor="middle" x="50.38" y="-369.45" font-family="Helvetica,sans-Serif" font-size="9.00">40K RP</text>
</g>
<!-- Sensor_Jammer_4&#45;&gt;Sensor_Jammer_5 -->
<g id="edge5" class="edge">
<title>Sensor_Jammer_4&#45;&gt;Sensor_Jammer_5</title>
<path fill="none" stroke="black" d="M50.38,-431.7C50.38,-423.22 50.38,-412.86 50.38,-403.58"/>
<polygon fill="black" stroke="black" points="52.48,-403.62 50.38,-397.62 48.28,-403.62 52.48,-403.62"/>
</g>
<!-- Sensor_Jammer_6 -->
<g id="node6" class="node">
<title>Sensor_Jammer_6</title>
<path fill="#fff3cd" stroke="black" d="M82.38,-324C82.38,-324 18.38,-324 18.38,-324 12.37,-324 6.38,-318 6.38,-312 6.38,-312 6.38,-300 6.38,-300 6.38,-294 12.38,-288 18.38,-288 18.38,-288 82.38,-288 82.38,-288 88.38,-288 94.38,-294 94.38,-300 94.38,-300 94.38,-312 94.38,-312 94.38,-318 88.38,-324 82.38,-324"/>
<text xml:space="preserve" text-anchor="middle" x="50.38" y="-307.2" font-family="Helvetica,sans-Serif" font-size="9.00">Sensor Jammer 6</text>
<text xml:space="preserve" text-anchor="middle" x="50.38" y="-297.45" font-family="Helvetica,sans-Serif" font-size="9.00">80K RP</text>
</g>
<!-- Sensor_Jammer_5&#45;&gt;Sensor_Jammer_6 -->
<g id="edge6" class="edge">
<title>Sensor_Jammer_5&#45;&gt;Sensor_Jammer_6</title>
<path fill="none" stroke="black" d="M50.38,-359.7C50.38,-351.22 50.38,-340.86 50.38,-331.58"/>
<polygon fill="black" stroke="black" points="52.48,-331.62 50.38,-325.62 48.28,-331.62 52.48,-331.62"/>
</g>
<!-- Sensor_Jammer_7 -->
<g id="node7" class="node">
<title>Sensor_Jammer_7</title>
<path fill="#d4c4fb" stroke="black" d="M82.38,-252C82.38,-252 18.38,-252 18.38,-252 12.37,-252 6.38,-246 6.38,-240 6.38,-240 6.38,-228 6.38,-228 6.38,-222 12.38,-216 18.38,-216 18.38,-216 82.38,-216 82.38,-216 88.38,-216 94.38,-222 94.38,-228 94.38,-228 94.38,-240 94.38,-240 94.38,-246 88.38,-252 82.38,-252"/>
<text xml:space="preserve" text-anchor="middle" x="50.38" y="-235.2" font-family="Helvetica,sans-Serif" font-size="9.00">Sensor Jammer 7</text>
<text xml:space="preserve" text-anchor="middle" x="50.38" y="-225.45" font-family="Helvetica,sans-Serif" font-size="9.00">150K RP</text>
</g>
<!-- Sensor_Jammer_6&#45;&gt;Sensor_Jammer_7 -->
<g id="edge7" class="edge">
<title>Sensor_Jammer_6&#45;&gt;Sensor_Jammer_7</title>
<path fill="none" stroke="black" d="M50.38,-287.7C50.38,-279.22 50.38,-268.86 50.38,-259.58"/>
<polygon fill="black" stroke="black" points="52.48,-259.62 50.38,-253.62 48.28,-259.62 52.48,-259.62"/>
</g>
<!-- Sensor_Jammer_8 -->
<g id="node8" class="node">
<title>Sensor_Jammer_8</title>
<path fill="#d4c4fb" stroke="black" d="M82.38,-180C82.38,-180 18.38,-180 18.38,-180 12.37,-180 6.38,-174 6.38,-168 6.38,-168 6.38,-156 6.38,-156 6.38,-150 12.38,-144 18.38,-144 18.38,-144 82.38,-144 82.38,-144 88.38,-144 94.38,-150 94.38,-156 94.38,-156 94.38,-168 94.38,-168 94.38,-174 88.38,-180 82.38,-180"/>
<text xml:space="preserve" text-anchor="middle" x="50.38" y="-163.2" font-family="Helvetica,sans-Serif" font-size="9.00">Sensor Jammer 8</text>
<text xml:space="preserve" text-anchor="middle" x="50.38" y="-153.45" font-family="Helvetica,sans-Serif" font-size="9.00">300K RP</text>
</g>
<!-- Sensor_Jammer_7&#45;&gt;Sensor_Jammer_8 -->
<g id="edge8" class="edge">
<title>Sensor_Jammer_7&#45;&gt;Sensor_Jammer_8</title>
<path fill="none" stroke="black" d="M50.38,-215.7C50.38,-207.22 50.38,-196.86 50.38,-187.58"/>
<polygon fill="black" stroke="black" points="52.48,-187.62 50.38,-181.62 48.28,-187.62 52.48,-187.62"/>
</g>
<!-- Sensor_Jammer_9 -->
<g id="node9" class="node">
<title>Sensor_Jammer_9</title>
<path fill="#d4c4fb" stroke="black" d="M82.38,-108C82.38,-108 18.38,-108 18.38,-108 12.37,-108 6.38,-102 6.38,-96 6.38,-96 6.38,-84 6.38,-84 6.38,-78 12.38,-72 18.38,-72 18.38,-72 82.38,-72 82.38,-72 88.38,-72 94.38,-78 94.38,-84 94.38,-84 94.38,-96 94.38,-96 94.38,-102 88.38,-108 82.38,-108"/>
<text xml:space="preserve" text-anchor="middle" x="50.38" y="-91.2" font-family="Helvetica,sans-Serif" font-size="9.00">Sensor Jammer 9</text>
<text xml:space="preserve" text-anchor="middle" x="50.38" y="-81.45" font-family="Helvetica,sans-Serif" font-size="9.00">600K RP</text>
</g>
<!-- Sensor_Jammer_8&#45;&gt;Sensor_Jammer_9 -->
<g id="edge9" class="edge">
<title>Sensor_Jammer_8&#45;&gt;Sensor_Jammer_9</title>
<path fill="none" stroke="black" d="M50.38,-143.7C50.38,-135.22 50.38,-124.86 50.38,-115.58"/>
<polygon fill="black" stroke="black" points="52.48,-115.62 50.38,-109.62 48.28,-115.62 52.48,-115.62"/>
</g>
<!-- Sensor_Jammer_10 -->
<g id="node10" class="node">
<title>Sensor_Jammer_10</title>
<path fill="#f8d7da" stroke="black" d="M85,-36C85,-36 15.75,-36 15.75,-36 9.75,-36 3.75,-30 3.75,-24 3.75,-24 3.75,-12 3.75,-12 3.75,-6 9.75,0 15.75,0 15.75,0 85,0 85,0 91,0 97,-6 97,-12 97,-12 97,-24 97,-24 97,-30 91,-36 85,-36"/>
<text xml:space="preserve" text-anchor="middle" x="50.38" y="-19.2" font-family="Helvetica,sans-Serif" font-size="9.00">Sensor Jammer 10</text>
<text xml:space="preserve" text-anchor="middle" x="50.38" y="-9.45" font-family="Helvetica,sans-Serif" font-size="9.00">1.2M RP</text>
</g>
<!-- Sensor_Jammer_9&#45;&gt;Sensor_Jammer_10 -->
<g id="edge10" class="edge">
<title>Sensor_Jammer_9&#45;&gt;Sensor_Jammer_10</title>
<path fill="none" stroke="black" d="M50.38,-71.7C50.38,-63.22 50.38,-52.86 50.38,-43.58"/>
<polygon fill="black" stroke="black" points="52.48,-43.62 50.38,-37.62 48.28,-43.62 52.48,-43.62"/>
</g>
<!-- ext_Electronic_Warfare -->
<g id="node11" class="node">
<title>ext_Electronic_Warfare</title>
<path fill="#f0f0f0" stroke="black" stroke-dasharray="5,2" d="M83.5,-756C83.5,-756 17.25,-756 17.25,-756 11.25,-756 5.25,-750 5.25,-744 5.25,-744 5.25,-732 5.25,-732 5.25,-726 11.25,-720 17.25,-720 17.25,-720 83.5,-720 83.5,-720 89.5,-720 95.5,-726 95.5,-732 95.5,-732 95.5,-744 95.5,-744 95.5,-750 89.5,-756 83.5,-756"/>
<text xml:space="preserve" text-anchor="middle" x="50.38" y="-734.33" font-family="Helvetica,sans-Serif" font-size="9.00">Electronic Warfare</text>
</g>
<!-- ext_Electronic_Warfare&#45;&gt;Sensor_Jammer_1 -->
<g id="edge1" class="edge">
<title>ext_Electronic_Warfare&#45;&gt;Sensor_Jammer_1</title>
<path fill="none" stroke="black" d="M50.38,-719.7C50.38,-711.22 50.38,-700.86 50.38,-691.58"/>
<polygon fill="black" stroke="black" points="52.48,-691.62 50.38,-685.62 48.28,-691.62 52.48,-691.62"/>
</g>
</g>
</svg>
