<?xml version="1.0" encoding="UTF-8" standalone="no"?>
<!DOCTYPE svg PUBLIC "-//W3C//DTD SVG 1.1//EN"
 "http://www.w3.org/Graphics/SVG/1.1/DTD/svg11.dtd">
<!-- Generated by graphviz version 14.1.2 (20260124.0452)
 -->
<!-- Title: TechTree Pages: 1 -->
<svg width="149pt" height="125pt"
 viewBox="0.00 0.00 149.00 125.00" xmlns="http://www.w3.org/2000/svg" xmlns:xlink="http://www.w3.org/1999/xlink">
<g id="graph0" class="graph" transform="scale(1 1) rotate(0) translate(4 121)">
<title>TechTree</title>
<polygon fill="white" stroke="none" points="-4,4 -4,-121 145.25,-121 145.25,4 -4,4"/>
<text xml:space="preserve" text-anchor="middle" x="70.62" y="-99.7" font-family="Helvetica,sans-Serif" font-weight="bold" font-size="14.00">Active Sensor Type</text>
<!-- Search_Sensor -->
<g id="node1" class="node">
<title>Search_Sensor</title>
<path fill="#d4edda" stroke="black" d="M98.88,-36C98.88,-36 42.38,-36 42.38,-36 36.38,-36 30.38,-30 30.38,-24 30.38,-24 30.38,-12 30.38,-12 30.38,-6 36.38,0 42.38,0 42.38,0 98.88,0 98.88,0 104.88,0 110.88,-6 110.88,-12 110.88,-12 110.88,-24 110.88,-24 110.88,-30 104.88,-36 98.88,-36"/>
<text xml:space="preserve" text-anchor="middle" x="70.62" y="-19.75" font-family="Helvetica,sans-Serif" font-size="10.00">Search Sensor</text>
<text xml:space="preserve" text-anchor="middle" x="70.62" y="-8.5" font-family="Helvetica,sans-Serif" font-size="10.00">1 RP</text>
</g>
<!-- Missile_Fire_Control -->
<g id="node2" class="node">
<title>Missile_Fire_Control</title>
<path fill="#d4edda" stroke="black" d="M109,-94C109,-94 32.25,-94 32.25,-94 26.25,-94 20.25,-88 20.25,-82 20.25,-82 20.25,-70 20.25,-70 20.25,-64 26.25,-58 32.25,-58 32.25,-58 109,-58 109,-58 115,-58 121,-64 121,-70 121,-70 121,-82 121,-82 121,-88 115,-94 109,-94"/>
<text xml:space="preserve" text-anchor="middle" x="70.62" y="-77.75" font-family="Helvetica,sans-Serif" font-size="10.00">Missile Fire Control</text>
<text xml:space="preserve" text-anchor="middle" x="70.62" y="-66.5" font-family="Helvetica,sans-Serif" font-size="10.00">2 RP</text>
</g>
</g>
</svg>
