<?xml version="1.0" encoding="UTF-8" standalone="no"?>
<!DOCTYPE svg PUBLIC "-//W3C//DTD SVG 1.1//EN"
 "http://www.w3.org/Graphics/SVG/1.1/DTD/svg11.dtd">
<!-- Generated by graphviz version 14.1.2 (20260124.0452)
 -->
<!-- Title: TechTree Pages: 1 -->
<svg width="332pt" height="457pt"
 viewBox="0.00 0.00 332.00 457.00" xmlns="http://www.w3.org/2000/svg" xmlns:xlink="http://www.w3.org/1999/xlink">
<g id="graph0" class="graph" transform="scale(1 1) rotate(0) translate(4 453)">
<title>TechTree</title>
<polygon fill="white" stroke="none" points="-4,4 -4,-453 327.62,-453 327.62,4 -4,4"/>
<text xml:space="preserve" text-anchor="middle" x="161.81" y="-431.7" font-family="Helvetica,sans-Serif" font-weight="bold" font-size="14.00">Active Terminal Guidance</text>
<!-- Active_Terminal_Guidance_0_ -->
<g id="node1" class="node">
<title>Active_Terminal_Guidance_0_</title>
<path fill="#d4edda" stroke="black" d="M133,-426C133,-426 12,-426 12,-426 6,-426 0,-420 0,-414 0,-414 0,-402 0,-402 0,-396 6,-390 12,-390 12,-390 133,-390 133,-390 139,-390 145,-396 145,-402 145,-402 145,-414 145,-414 145,-420 139,-426 133,-426"/>
<text xml:space="preserve" text-anchor="middle" x="72.5" y="-409.75" font-family="Helvetica,sans-Serif" font-size="10.00">Active Terminal Guidance 0%</text>
<text xml:space="preserve" text-anchor="middle" x="72.5" y="-398.5" font-family="Helvetica,sans-Serif" font-size="10.00">1 RP</text>
</g>
<!-- Active_Terminal_Guidance__15_ -->
<g id="node2" class="node">
<title>Active_Terminal_Guidance__15_</title>
<path fill="#cce5ff" stroke="black" d="M311.62,-426C311.62,-426 179.38,-426 179.38,-426 173.38,-426 167.38,-420 167.38,-414 167.38,-414 167.38,-402 167.38,-402 167.38,-396 173.38,-390 179.38,-390 179.38,-390 311.62,-390 311.62,-390 317.62,-390 323.62,-396 323.62,-402 323.62,-402 323.62,-414 323.62,-414 323.62,-420 317.62,-426 311.62,-426"/>
<text xml:space="preserve" text-anchor="middle" x="245.5" y="-409.75" font-family="Helvetica,sans-Serif" font-size="10.00">Active Terminal Guidance +15%</text>
<text xml:space="preserve" text-anchor="middle" x="245.5" y="-398.5" font-family="Helvetica,sans-Serif" font-size="10.00">1K RP</text>
</g>
<!-- Active_Terminal_Guidance__20_ -->
<g id="node3" class="node">
<title>Active_Terminal_Guidance__20_</title>
<path fill="#cce5ff" stroke="black" d="M311.62,-361C311.62,-361 179.38,-361 179.38,-361 173.38,-361 167.38,-355 167.38,-349 167.38,-349 167.38,-337 167.38,-337 167.38,-331 173.38,-325 179.38,-325 179.38,-325 311.62,-325 311.62,-325 317.62,-325 323.62,-331 323.62,-337 323.62,-337 323.62,-349 323.62,-349 323.62,-355 317.62,-361 311.62,-361"/>
<text xml:space="preserve" text-anchor="middle" x="245.5" y="-344.75" font-family="Helvetica,sans-Serif" font-size="10.00">Active Terminal Guidance +20%</text>
<text xml:space="preserve" text-anchor="middle" x="245.5" y="-333.5" font-family="Helvetica,sans-Serif" font-size="10.00">2K RP</text>
</g>
<!-- Active_Terminal_Guidance__15_&#45;&gt;Active_Terminal_Guidance__20_ -->
<g id="edge1" class="edge">
<title>Active_Terminal_Guidance__15_&#45;&gt;Active_Terminal_Guidance__20_</title>
<path fill="none" stroke="black" d="M245.5,-389.78C245.5,-383.53 245.5,-376.33 245.5,-369.52"/>
<polygon fill="black" stroke="black" points="247.95,-369.71 245.5,-362.71 243.05,-369.71 247.95,-369.71"/>
</g>
<!-- Active_Terminal_Guidance__25_ -->
<g id="node4" class="node">
<title>Active_Terminal_Guidance__25_</title>
<path fill="#cce5ff" stroke="black" d="M311.62,-296C311.62,-296 179.38,-296 179.38,-296 173.38,-296 167.38,-290 167.38,-284 167.38,-284 167.38,-272 167.38,-272 167.38,-266 173.38,-260 179.38,-260 179.38,-260 311.62,-260 311.62,-260 317.62,-260 323.62,-266 323.62,-272 323.62,-272 323.62,-284 323.62,-284 323.62,-290 317.62,-296 311.62,-296"/>
<text xml:space="preserve" text-anchor="middle" x="245.5" y="-279.75" font-family="Helvetica,sans-Serif" font-size="10.00">Active Terminal Guidance +25%</text>
<text xml:space="preserve" text-anchor="middle" x="245.5" y="-268.5" font-family="Helvetica,sans-Serif" font-size="10.00">4K RP</text>
</g>
<!-- Active_Terminal_Guidance__20_&#45;&gt;Active_Terminal_Guidance__25_ -->
<g id="edge2" class="edge">
<title>Active_Terminal_Guidance__20_&#45;&gt;Active_Terminal_Guidance__25_</title>
<path fill="none" stroke="black" d="M245.5,-324.78C245.5,-318.53 245.5,-311.33 245.5,-304.52"/>
<polygon fill="black" stroke="black" points="247.95,-304.71 245.5,-297.71 243.05,-304.71 247.95,-304.71"/>
</g>
<!-- Active_Terminal_Guidance__32_ -->
<g id="node5" class="node">
<title>Active_Terminal_Guidance__32_</title>
<path fill="#cce5ff" stroke="black" d="M311.62,-231C311.62,-231 179.38,-231 179.38,-231 173.38,-231 167.38,-225 167.38,-219 167.38,-219 167.38,-207 167.38,-207 167.38,-201 173.38,-195 179.38,-195 179.38,-195 311.62,-195 311.62,-195 317.62,-195 323.62,-201 323.62,-207 323.62,-207 323.62,-219 323.62,-219 323.62,-225 317.62,-231 311.62,-231"/>
<text xml:space="preserve" text-anchor="middle" x="245.5" y="-214.75" font-family="Helvetica,sans-Serif" font-size="10.00">Active Terminal Guidance +32%</text>
<text xml:space="preserve" text-anchor="middle" x="245.5" y="-203.5" font-family="Helvetica,sans-Serif" font-size="10.00">8K RP</text>
</g>
<!-- Active_Terminal_Guidance__25_&#45;&gt;Active_Terminal_Guidance__32_ -->
<g id="edge3" class="edge">
<title>Active_Terminal_Guidance__25_&#45;&gt;Active_Terminal_Guidance__32_</title>
<path fill="none" stroke="black" d="M245.5,-259.78C245.5,-253.53 245.5,-246.33 245.5,-239.52"/>
<polygon fill="black" stroke="black" points="247.95,-239.71 245.5,-232.71 243.05,-239.71 247.95,-239.71"/>
</g>
<!-- Active_Terminal_Guidance__40_ -->
<g id="node6" class="node">
<title>Active_Terminal_Guidance__40_</title>
<path fill="#fff3cd" stroke="black" d="M311.62,-166C311.62,-166 179.38,-166 179.38,-166 173.38,-166 167.38,-160 167.38,-154 167.38,-154 167.38,-142 167.38,-142 167.38,-136 173.38,-130 179.38,-130 179.38,-130 311.62,-130 311.62,-130 317.62,-130 323.62,-136 323.62,-142 323.62,-142 323.62,-154 323.62,-154 323.62,-160 317.62,-166 311.62,-166"/>
<text xml:space="preserve" text-anchor="middle" x="245.5" y="-149.75" font-family="Helvetica,sans-Serif" font-size="10.00">Active Terminal Guidance +40%</text>
<text xml:space="preserve" text-anchor="middle" x="245.5" y="-138.5" font-family="Helvetica,sans-Serif" font-size="10.00">16K RP</text>
</g>
<!-- Active_Terminal_Guidance__32_&#45;&gt;Active_Terminal_Guidance__40_ -->
<g id="edge4" class="edge">
<title>Active_Terminal_Guidance__32_&#45;&gt;Active_Terminal_Guidance__40_</title>
<path fill="none" stroke="black" d="M245.5,-194.78C245.5,-188.53 245.5,-181.33 245.5,-174.52"/>
<polygon fill="black" stroke="black" points="247.95,-174.71 245.5,-167.71 243.05,-174.71 247.95,-174.71"/>
</g>
<!-- Active_Terminal_Guidance__50_ -->
<g id="node7" class="node">
<title>Active_Terminal_Guidance__50_</title>
<path fill="#fff3cd" stroke="black" d="M311.62,-101C311.62,-101 179.38,-101 179.38,-101 173.38,-101 167.38,-95 167.38,-89 167.38,-89 167.38,-77 167.38,-77 167.38,-71 173.38,-65 179.38,-65 179.38,-65 311.62,-65 311.62,-65 317.62,-65 323.62,-71 323.62,-77 323.62,-77 323.62,-89 323.62,-89 323.62,-95 317.62,-101 311.62,-101"/>
<text xml:space="preserve" text-anchor="middle" x="245.5" y="-84.75" font-family="Helvetica,sans-Serif" font-size="10.00">Active Terminal Guidance +50%</text>
<text xml:space="preserve" text-anchor="middle" x="245.5" y="-73.5" font-family="Helvetica,sans-Serif" font-size="10.00">32K RP</text>
</g>
<!-- Active_Terminal_Guidance__40_&#45;&gt;Active_Terminal_Guidance__50_ -->
<g id="edge5" class="edge">
<title>Active_Terminal_Guidance__40_&#45;&gt;Active_Terminal_Guidance__50_</title>
<path fill="none" stroke="black" d="M245.5,-129.78C245.5,-123.53 245.5,-116.33 245.5,-109.52"/>
<polygon fill="black" stroke="black" points="247.95,-109.71 245.5,-102.71 243.05,-109.71 247.95,-109.71"/>
</g>
<!-- Active_Terminal_Guidance__60_ -->
<g id="node8" class="node">
<title>Active_Terminal_Guidance__60_</title>
<path fill="#fff3cd" stroke="black" d="M311.62,-36C311.62,-36 179.38,-36 179.38,-36 173.38,-36 167.38,-30 167.38,-24 167.38,-24 167.38,-12 167.38,-12 167.38,-6 173.38,0 179.38,0 179.38,0 311.62,0 311.62,0 317.62,0 323.62,-6 323.62,-12 323.62,-12 323.62,-24 323.62,-24 323.62,-30 317.62,-36 311.62,-36"/>
<text xml:space="preserve" text-anchor="middle" x="245.5" y="-19.75" font-family="Helvetica,sans-Serif" font-size="10.00">Active Terminal Guidance +60%</text>
<text xml:space="preserve" text-anchor="middle" x="245.5" y="-8.5" font-family="Helvetica,sans-Serif" font-size="10.00">64K RP</text>
</g>
<!-- Active_Terminal_Guidance__50_&#45;&gt;Active_Terminal_Guidance__60_ -->
<g id="edge6" class="edge">
<title>Active_Terminal_Guidance__50_&#45;&gt;Active_Terminal_Guidance__60_</title>
<path fill="none" stroke="black" d="M245.5,-64.78C245.5,-58.53 245.5,-51.33 245.5,-44.52"/>
<polygon fill="black" stroke="black" points="247.95,-44.71 245.5,-37.71 243.05,-44.71 247.95,-44.71"/>
</g>
</g>
</svg>
