<?xml version="1.0" encoding="UTF-8" standalone="no"?>
<!DOCTYPE svg PUBLIC "-//W3C//DTD SVG 1.1//EN"
 "http://www.w3.org/Graphics/SVG/1.1/DTD/svg11.dtd">
<!-- Generated by graphviz version 14.1.2 (20260124.0452)
 -->
<!-- Title: TechTree Pages: 1 -->
<svg width="387pt" height="713pt"
 viewBox="0.00 0.00 387.00 713.00" xmlns="http://www.w3.org/2000/svg" xmlns:xlink="http://www.w3.org/1999/xlink">
<g id="graph0" class="graph" transform="scale(1 1) rotate(0) translate(4 708.75)">
<title>TechTree</title>
<polygon fill="white" stroke="none" points="-4,4 -4,-708.75 382.5,-708.75 382.5,4 -4,4"/>
<text xml:space="preserve" text-anchor="middle" x="189.25" y="-689.35" font-family="Helvetica,sans-Serif" font-weight="bold" font-size="12.00">Active Sensor Strength</text>
<!-- Conventional_Active_Sensor_Str -->
<g id="node1" class="node">
<title>Conventional_Active_Sensor_Str</title>
<path fill="#d4edda" stroke="black" d="M161.5,-684C161.5,-684 12,-684 12,-684 6,-684 0,-678 0,-672 0,-672 0,-660 0,-660 0,-654 6,-648 12,-648 12,-648 161.5,-648 161.5,-648 167.5,-648 173.5,-654 173.5,-660 173.5,-660 173.5,-672 173.5,-672 173.5,-678 167.5,-684 161.5,-684"/>
<text xml:space="preserve" text-anchor="middle" x="86.75" y="-667.2" font-family="Helvetica,sans-Serif" font-size="9.00">Conventional Active Sensor Strength 2</text>
<text xml:space="preserve" text-anchor="middle" x="86.75" y="-657.45" font-family="Helvetica,sans-Serif" font-size="9.00">500 RP</text>
</g>
<!-- Active_Grav_Sensor_Strength_10 -->
<g id="node2" class="node">
<title>Active_Grav_Sensor_Strength_10</title>
<path fill="#d4c4fb" stroke="black" d="M322.12,-612C322.12,-612 197.38,-612 197.38,-612 191.38,-612 185.38,-606 185.38,-600 185.38,-600 185.38,-588 185.38,-588 185.38,-582 191.38,-576 197.38,-576 197.38,-576 322.12,-576 322.12,-576 328.12,-576 334.12,-582 334.12,-588 334.12,-588 334.12,-600 334.12,-600 334.12,-606 328.12,-612 322.12,-612"/>
<text xml:space="preserve" text-anchor="middle" x="259.75" y="-595.2" font-family="Helvetica,sans-Serif" font-size="9.00">Active Grav Sensor Strength 100</text>
<text xml:space="preserve" text-anchor="middle" x="259.75" y="-585.45" font-family="Helvetica,sans-Serif" font-size="9.00">500K RP</text>
</g>
<!-- Active_Grav_Sensor_Strength_12 -->
<g id="node3" class="node">
<title>Active_Grav_Sensor_Strength_12</title>
<path fill="#cce5ff" stroke="black" d="M155.5,-540C155.5,-540 36,-540 36,-540 30,-540 24,-534 24,-528 24,-528 24,-516 24,-516 24,-510 30,-504 36,-504 36,-504 155.5,-504 155.5,-504 161.5,-504 167.5,-510 167.5,-516 167.5,-516 167.5,-528 167.5,-528 167.5,-534 161.5,-540 155.5,-540"/>
<text xml:space="preserve" text-anchor="middle" x="95.75" y="-523.2" font-family="Helvetica,sans-Serif" font-size="9.00">Active Grav Sensor Strength 12</text>
<text xml:space="preserve" text-anchor="middle" x="95.75" y="-513.45" font-family="Helvetica,sans-Serif" font-size="9.00">2K RP</text>
</g>
<!-- Active_Grav_Sensor_Strength_10&#45;&gt;Active_Grav_Sensor_Strength_12 -->
<g id="edge2" class="edge">
<title>Active_Grav_Sensor_Strength_10&#45;&gt;Active_Grav_Sensor_Strength_12</title>
<path fill="none" stroke="black" d="M218.79,-575.52C195.81,-565.71 167.03,-553.43 143.09,-543.21"/>
<polygon fill="black" stroke="black" points="144.21,-541.4 137.86,-540.98 142.56,-545.26 144.21,-541.4"/>
</g>
<!-- Active_Grav_Sensor_Strength_13 -->
<g id="node11" class="node">
<title>Active_Grav_Sensor_Strength_13</title>
<path fill="#d4c4fb" stroke="black" d="M322.12,-540C322.12,-540 197.38,-540 197.38,-540 191.38,-540 185.38,-534 185.38,-528 185.38,-528 185.38,-516 185.38,-516 185.38,-510 191.38,-504 197.38,-504 197.38,-504 322.12,-504 322.12,-504 328.12,-504 334.12,-510 334.12,-516 334.12,-516 334.12,-528 334.12,-528 334.12,-534 328.12,-540 322.12,-540"/>
<text xml:space="preserve" text-anchor="middle" x="259.75" y="-523.2" font-family="Helvetica,sans-Serif" font-size="9.00">Active Grav Sensor Strength 135</text>
<text xml:space="preserve" text-anchor="middle" x="259.75" y="-513.45" font-family="Helvetica,sans-Serif" font-size="9.00">1.0M RP</text>
</g>
<!-- Active_Grav_Sensor_Strength_10&#45;&gt;Active_Grav_Sensor_Strength_13 -->
<g id="edge11" class="edge">
<title>Active_Grav_Sensor_Strength_10&#45;&gt;Active_Grav_Sensor_Strength_13</title>
<path fill="none" stroke="black" d="M259.75,-575.7C259.75,-567.22 259.75,-556.86 259.75,-547.58"/>
<polygon fill="black" stroke="black" points="261.85,-547.62 259.75,-541.62 257.65,-547.62 261.85,-547.62"/>
</g>
<!-- Active_Grav_Sensor_Strength_16 -->
<g id="node4" class="node">
<title>Active_Grav_Sensor_Strength_16</title>
<path fill="#cce5ff" stroke="black" d="M155.5,-468C155.5,-468 36,-468 36,-468 30,-468 24,-462 24,-456 24,-456 24,-444 24,-444 24,-438 30,-432 36,-432 36,-432 155.5,-432 155.5,-432 161.5,-432 167.5,-438 167.5,-444 167.5,-444 167.5,-456 167.5,-456 167.5,-462 161.5,-468 155.5,-468"/>
<text xml:space="preserve" text-anchor="middle" x="95.75" y="-451.2" font-family="Helvetica,sans-Serif" font-size="9.00">Active Grav Sensor Strength 16</text>
<text xml:space="preserve" text-anchor="middle" x="95.75" y="-441.45" font-family="Helvetica,sans-Serif" font-size="9.00">4K RP</text>
</g>
<!-- Active_Grav_Sensor_Strength_12&#45;&gt;Active_Grav_Sensor_Strength_16 -->
<g id="edge3" class="edge">
<title>Active_Grav_Sensor_Strength_12&#45;&gt;Active_Grav_Sensor_Strength_16</title>
<path fill="none" stroke="black" d="M95.75,-503.7C95.75,-495.22 95.75,-484.86 95.75,-475.58"/>
<polygon fill="black" stroke="black" points="97.85,-475.62 95.75,-469.62 93.65,-475.62 97.85,-475.62"/>
</g>
<!-- Active_Grav_Sensor_Strength_21 -->
<g id="node5" class="node">
<title>Active_Grav_Sensor_Strength_21</title>
<path fill="#cce5ff" stroke="black" d="M161.5,-396C161.5,-396 42,-396 42,-396 36,-396 30,-390 30,-384 30,-384 30,-372 30,-372 30,-366 36,-360 42,-360 42,-360 161.5,-360 161.5,-360 167.5,-360 173.5,-366 173.5,-372 173.5,-372 173.5,-384 173.5,-384 173.5,-390 167.5,-396 161.5,-396"/>
<text xml:space="preserve" text-anchor="middle" x="101.75" y="-379.2" font-family="Helvetica,sans-Serif" font-size="9.00">Active Grav Sensor Strength 21</text>
<text xml:space="preserve" text-anchor="middle" x="101.75" y="-369.45" font-family="Helvetica,sans-Serif" font-size="9.00">8K RP</text>
</g>
<!-- Active_Grav_Sensor_Strength_16&#45;&gt;Active_Grav_Sensor_Strength_21 -->
<g id="edge4" class="edge">
<title>Active_Grav_Sensor_Strength_16&#45;&gt;Active_Grav_Sensor_Strength_21</title>
<path fill="none" stroke="black" d="M97.23,-431.7C97.96,-423.22 98.85,-412.86 99.64,-403.58"/>
<polygon fill="black" stroke="black" points="101.73,-403.77 100.15,-397.61 97.55,-403.41 101.73,-403.77"/>
</g>
<!-- Active_Grav_Sensor_Strength_28 -->
<g id="node6" class="node">
<title>Active_Grav_Sensor_Strength_28</title>
<path fill="#fff3cd" stroke="black" d="M244.5,-324C244.5,-324 125,-324 125,-324 119,-324 113,-318 113,-312 113,-312 113,-300 113,-300 113,-294 119,-288 125,-288 125,-288 244.5,-288 244.5,-288 250.5,-288 256.5,-294 256.5,-300 256.5,-300 256.5,-312 256.5,-312 256.5,-318 250.5,-324 244.5,-324"/>
<text xml:space="preserve" text-anchor="middle" x="184.75" y="-307.2" font-family="Helvetica,sans-Serif" font-size="9.00">Active Grav Sensor Strength 28</text>
<text xml:space="preserve" text-anchor="middle" x="184.75" y="-297.45" font-family="Helvetica,sans-Serif" font-size="9.00">15K RP</text>
</g>
<!-- Active_Grav_Sensor_Strength_21&#45;&gt;Active_Grav_Sensor_Strength_28 -->
<g id="edge5" class="edge">
<title>Active_Grav_Sensor_Strength_21&#45;&gt;Active_Grav_Sensor_Strength_28</title>
<path fill="none" stroke="black" d="M122.27,-359.7C133.24,-350.44 146.87,-338.95 158.6,-329.06"/>
<polygon fill="black" stroke="black" points="159.79,-330.8 163.02,-325.32 157.08,-327.59 159.79,-330.8"/>
</g>
<!-- Active_Grav_Sensor_Strength_36 -->
<g id="node7" class="node">
<title>Active_Grav_Sensor_Strength_36</title>
<path fill="#fff3cd" stroke="black" d="M285.5,-252C285.5,-252 166,-252 166,-252 160,-252 154,-246 154,-240 154,-240 154,-228 154,-228 154,-222 160,-216 166,-216 166,-216 285.5,-216 285.5,-216 291.5,-216 297.5,-222 297.5,-228 297.5,-228 297.5,-240 297.5,-240 297.5,-246 291.5,-252 285.5,-252"/>
<text xml:space="preserve" text-anchor="middle" x="225.75" y="-235.2" font-family="Helvetica,sans-Serif" font-size="9.00">Active Grav Sensor Strength 36</text>
<text xml:space="preserve" text-anchor="middle" x="225.75" y="-225.45" font-family="Helvetica,sans-Serif" font-size="9.00">30K RP</text>
</g>
<!-- Active_Grav_Sensor_Strength_28&#45;&gt;Active_Grav_Sensor_Strength_36 -->
<g id="edge6" class="edge">
<title>Active_Grav_Sensor_Strength_28&#45;&gt;Active_Grav_Sensor_Strength_36</title>
<path fill="none" stroke="black" d="M194.88,-287.7C200.05,-278.88 206.4,-268.03 212,-258.47"/>
<polygon fill="black" stroke="black" points="213.75,-259.65 214.97,-253.41 210.12,-257.53 213.75,-259.65"/>
</g>
<!-- Active_Grav_Sensor_Strength_48 -->
<g id="node8" class="node">
<title>Active_Grav_Sensor_Strength_48</title>
<path fill="#fff3cd" stroke="black" d="M306.5,-180C306.5,-180 187,-180 187,-180 181,-180 175,-174 175,-168 175,-168 175,-156 175,-156 175,-150 181,-144 187,-144 187,-144 306.5,-144 306.5,-144 312.5,-144 318.5,-150 318.5,-156 318.5,-156 318.5,-168 318.5,-168 318.5,-174 312.5,-180 306.5,-180"/>
<text xml:space="preserve" text-anchor="middle" x="246.75" y="-163.2" font-family="Helvetica,sans-Serif" font-size="9.00">Active Grav Sensor Strength 48</text>
<text xml:space="preserve" text-anchor="middle" x="246.75" y="-153.45" font-family="Helvetica,sans-Serif" font-size="9.00">60K RP</text>
</g>
<!-- Active_Grav_Sensor_Strength_36&#45;&gt;Active_Grav_Sensor_Strength_48 -->
<g id="edge7" class="edge">
<title>Active_Grav_Sensor_Strength_36&#45;&gt;Active_Grav_Sensor_Strength_48</title>
<path fill="none" stroke="black" d="M230.94,-215.7C233.53,-207.05 236.72,-196.45 239.54,-187.03"/>
<polygon fill="black" stroke="black" points="241.47,-187.9 241.18,-181.55 237.45,-186.7 241.47,-187.9"/>
</g>
<!-- Active_Grav_Sensor_Strength_60 -->
<g id="node9" class="node">
<title>Active_Grav_Sensor_Strength_60</title>
<path fill="#d4c4fb" stroke="black" d="M316.5,-108C316.5,-108 197,-108 197,-108 191,-108 185,-102 185,-96 185,-96 185,-84 185,-84 185,-78 191,-72 197,-72 197,-72 316.5,-72 316.5,-72 322.5,-72 328.5,-78 328.5,-84 328.5,-84 328.5,-96 328.5,-96 328.5,-102 322.5,-108 316.5,-108"/>
<text xml:space="preserve" text-anchor="middle" x="256.75" y="-91.2" font-family="Helvetica,sans-Serif" font-size="9.00">Active Grav Sensor Strength 60</text>
<text xml:space="preserve" text-anchor="middle" x="256.75" y="-81.45" font-family="Helvetica,sans-Serif" font-size="9.00">125K RP</text>
</g>
<!-- Active_Grav_Sensor_Strength_48&#45;&gt;Active_Grav_Sensor_Strength_60 -->
<g id="edge8" class="edge">
<title>Active_Grav_Sensor_Strength_48&#45;&gt;Active_Grav_Sensor_Strength_60</title>
<path fill="none" stroke="black" d="M249.22,-143.7C250.44,-135.14 251.94,-124.66 253.28,-115.3"/>
<polygon fill="black" stroke="black" points="255.32,-115.84 254.09,-109.6 251.16,-115.25 255.32,-115.84"/>
</g>
<!-- Active_Grav_Sensor_Strength_80 -->
<g id="node10" class="node">
<title>Active_Grav_Sensor_Strength_80</title>
<path fill="#d4c4fb" stroke="black" d="M366.5,-36C366.5,-36 247,-36 247,-36 241,-36 235,-30 235,-24 235,-24 235,-12 235,-12 235,-6 241,0 247,0 247,0 366.5,0 366.5,0 372.5,0 378.5,-6 378.5,-12 378.5,-12 378.5,-24 378.5,-24 378.5,-30 372.5,-36 366.5,-36"/>
<text xml:space="preserve" text-anchor="middle" x="306.75" y="-19.2" font-family="Helvetica,sans-Serif" font-size="9.00">Active Grav Sensor Strength 80</text>
<text xml:space="preserve" text-anchor="middle" x="306.75" y="-9.45" font-family="Helvetica,sans-Serif" font-size="9.00">250K RP</text>
</g>
<!-- Active_Grav_Sensor_Strength_60&#45;&gt;Active_Grav_Sensor_Strength_80 -->
<g id="edge9" class="edge">
<title>Active_Grav_Sensor_Strength_60&#45;&gt;Active_Grav_Sensor_Strength_80</title>
<path fill="none" stroke="black" d="M269.11,-71.7C275.47,-62.8 283.3,-51.82 290.18,-42.2"/>
<polygon fill="black" stroke="black" points="291.87,-43.44 293.65,-37.34 288.46,-41 291.87,-43.44"/>
</g>
<!-- Active_Grav_Sensor_Strength_80&#45;&gt;Active_Grav_Sensor_Strength_10 -->
<g id="edge10" class="edge">
<title>Active_Grav_Sensor_Strength_80&#45;&gt;Active_Grav_Sensor_Strength_10</title>
<path fill="none" stroke="black" d="M318.15,-36.1C334.26,-61.98 361.75,-113.15 361.75,-161 361.75,-451 361.75,-451 361.75,-451 361.75,-491.45 365.8,-506.76 342.75,-540 333.62,-553.16 320.07,-563.78 306.54,-571.96"/>
<polygon fill="black" stroke="black" points="305.79,-569.97 301.66,-574.79 307.9,-573.6 305.79,-569.97"/>
</g>
<!-- Active_Grav_Sensor_Strength_18 -->
<g id="node12" class="node">
<title>Active_Grav_Sensor_Strength_18</title>
<path fill="#f8d7da" stroke="black" d="M322.12,-468C322.12,-468 197.38,-468 197.38,-468 191.38,-468 185.38,-462 185.38,-456 185.38,-456 185.38,-444 185.38,-444 185.38,-438 191.38,-432 197.38,-432 197.38,-432 322.12,-432 322.12,-432 328.12,-432 334.12,-438 334.12,-444 334.12,-444 334.12,-456 334.12,-456 334.12,-462 328.12,-468 322.12,-468"/>
<text xml:space="preserve" text-anchor="middle" x="259.75" y="-451.2" font-family="Helvetica,sans-Serif" font-size="9.00">Active Grav Sensor Strength 180</text>
<text xml:space="preserve" text-anchor="middle" x="259.75" y="-441.45" font-family="Helvetica,sans-Serif" font-size="9.00">2.0M RP</text>
</g>
<!-- Active_Grav_Sensor_Strength_13&#45;&gt;Active_Grav_Sensor_Strength_18 -->
<g id="edge12" class="edge">
<title>Active_Grav_Sensor_Strength_13&#45;&gt;Active_Grav_Sensor_Strength_18</title>
<path fill="none" stroke="black" d="M259.75,-503.7C259.75,-495.22 259.75,-484.86 259.75,-475.58"/>
<polygon fill="black" stroke="black" points="261.85,-475.62 259.75,-469.62 257.65,-475.62 261.85,-475.62"/>
</g>
<!-- ext_Trans_Newtonian_Technology -->
<g id="node13" class="node">
<title>ext_Trans_Newtonian_Technology</title>
<path fill="#f0f0f0" stroke="black" stroke-dasharray="5,2" d="M315.75,-684C315.75,-684 203.75,-684 203.75,-684 197.75,-684 191.75,-678 191.75,-672 191.75,-672 191.75,-660 191.75,-660 191.75,-654 197.75,-648 203.75,-648 203.75,-648 315.75,-648 315.75,-648 321.75,-648 327.75,-654 327.75,-660 327.75,-660 327.75,-672 327.75,-672 327.75,-678 321.75,-684 315.75,-684"/>
<text xml:space="preserve" text-anchor="middle" x="259.75" y="-662.33" font-family="Helvetica,sans-Serif" font-size="9.00">Trans&#45;Newtonian Technology</text>
</g>
<!-- ext_Trans_Newtonian_Technology&#45;&gt;Active_Grav_Sensor_Strength_10 -->
<g id="edge1" class="edge">
<title>ext_Trans_Newtonian_Technology&#45;&gt;Active_Grav_Sensor_Strength_10</title>
<path fill="none" stroke="black" d="M259.75,-647.7C259.75,-639.22 259.75,-628.86 259.75,-619.58"/>
<polygon fill="black" stroke="black" points="261.85,-619.62 259.75,-613.62 257.65,-619.62 261.85,-619.62"/>
</g>
</g>
</svg>
