<?xml version="1.0" encoding="UTF-8" standalone="no"?>
<!DOCTYPE svg PUBLIC "-//W3C//DTD SVG 1.1//EN"
 "http://www.w3.org/Graphics/SVG/1.1/DTD/svg11.dtd">
<!-- Generated by graphviz version 14.1.2 (20260124.0452)
 -->
<!-- Title: TechTree Pages: 1 -->
<svg width="303pt" height="569pt"
 viewBox="0.00 0.00 303.00 569.00" xmlns="http://www.w3.org/2000/svg" xmlns:xlink="http://www.w3.org/1999/xlink">
<g id="graph0" class="graph" transform="scale(1 1) rotate(0) translate(4 564.75)">
<title>TechTree</title>
<polygon fill="white" stroke="none" points="-4,4 -4,-564.75 299.25,-564.75 299.25,4 -4,4"/>
<text xml:space="preserve" text-anchor="middle" x="147.62" y="-545.35" font-family="Helvetica,sans-Serif" font-weight="bold" font-size="12.00">Active Terminal Guidance</text>
<!-- Active_Terminal_Guidance_0_ -->
<g id="node1" class="node">
<title>Active_Terminal_Guidance_0_</title>
<path fill="#d4edda" stroke="black" d="M124,-540C124,-540 12,-540 12,-540 6,-540 0,-534 0,-528 0,-528 0,-516 0,-516 0,-510 6,-504 12,-504 12,-504 124,-504 124,-504 130,-504 136,-510 136,-516 136,-516 136,-528 136,-528 136,-534 130,-540 124,-540"/>
<text xml:space="preserve" text-anchor="middle" x="68" y="-523.2" font-family="Helvetica,sans-Serif" font-size="9.00">Active Terminal Guidance 0%</text>
<text xml:space="preserve" text-anchor="middle" x="68" y="-513.45" font-family="Helvetica,sans-Serif" font-size="9.00">1 RP</text>
</g>
<!-- Active_Terminal_Guidance__15_ -->
<g id="node2" class="node">
<title>Active_Terminal_Guidance__15_</title>
<path fill="#cce5ff" stroke="black" d="M283.25,-468C283.25,-468 160.75,-468 160.75,-468 154.75,-468 148.75,-462 148.75,-456 148.75,-456 148.75,-444 148.75,-444 148.75,-438 154.75,-432 160.75,-432 160.75,-432 283.25,-432 283.25,-432 289.25,-432 295.25,-438 295.25,-444 295.25,-444 295.25,-456 295.25,-456 295.25,-462 289.25,-468 283.25,-468"/>
<text xml:space="preserve" text-anchor="middle" x="222" y="-451.2" font-family="Helvetica,sans-Serif" font-size="9.00">Active Terminal Guidance +15%</text>
<text xml:space="preserve" text-anchor="middle" x="222" y="-441.45" font-family="Helvetica,sans-Serif" font-size="9.00">1K RP</text>
</g>
<!-- Active_Terminal_Guidance__20_ -->
<g id="node3" class="node">
<title>Active_Terminal_Guidance__20_</title>
<path fill="#cce5ff" stroke="black" d="M283.25,-396C283.25,-396 160.75,-396 160.75,-396 154.75,-396 148.75,-390 148.75,-384 148.75,-384 148.75,-372 148.75,-372 148.75,-366 154.75,-360 160.75,-360 160.75,-360 283.25,-360 283.25,-360 289.25,-360 295.25,-366 295.25,-372 295.25,-372 295.25,-384 295.25,-384 295.25,-390 289.25,-396 283.25,-396"/>
<text xml:space="preserve" text-anchor="middle" x="222" y="-379.2" font-family="Helvetica,sans-Serif" font-size="9.00">Active Terminal Guidance +20%</text>
<text xml:space="preserve" text-anchor="middle" x="222" y="-369.45" font-family="Helvetica,sans-Serif" font-size="9.00">2K RP</text>
</g>
<!-- Active_Terminal_Guidance__15_&#45;&gt;Active_Terminal_Guidance__20_ -->
<g id="edge2" class="edge">
<title>Active_Terminal_Guidance__15_&#45;&gt;Active_Terminal_Guidance__20_</title>
<path fill="none" stroke="black" d="M222,-431.7C222,-423.22 222,-412.86 222,-403.58"/>
<polygon fill="black" stroke="black" points="224.1,-403.62 222,-397.62 219.9,-403.62 224.1,-403.62"/>
</g>
<!-- Active_Terminal_Guidance__25_ -->
<g id="node4" class="node">
<title>Active_Terminal_Guidance__25_</title>
<path fill="#cce5ff" stroke="black" d="M283.25,-324C283.25,-324 160.75,-324 160.75,-324 154.75,-324 148.75,-318 148.75,-312 148.75,-312 148.75,-300 148.75,-300 148.75,-294 154.75,-288 160.75,-288 160.75,-288 283.25,-288 283.25,-288 289.25,-288 295.25,-294 295.25,-300 295.25,-300 295.25,-312 295.25,-312 295.25,-318 289.25,-324 283.25,-324"/>
<text xml:space="preserve" text-anchor="middle" x="222" y="-307.2" font-family="Helvetica,sans-Serif" font-size="9.00">Active Terminal Guidance +25%</text>
<text xml:space="preserve" text-anchor="middle" x="222" y="-297.45" font-family="Helvetica,sans-Serif" font-size="9.00">4K RP</text>
</g>
<!-- Active_Terminal_Guidance__20_&#45;&gt;Active_Terminal_Guidance__25_ -->
<g id="edge3" class="edge">
<title>Active_Terminal_Guidance__20_&#45;&gt;Active_Terminal_Guidance__25_</title>
<path fill="none" stroke="black" d="M222,-359.7C222,-351.22 222,-340.86 222,-331.58"/>
<polygon fill="black" stroke="black" points="224.1,-331.62 222,-325.62 219.9,-331.62 224.1,-331.62"/>
</g>
<!-- Active_Terminal_Guidance__32_ -->
<g id="node5" class="node">
<title>Active_Terminal_Guidance__32_</title>
<path fill="#cce5ff" stroke="black" d="M283.25,-252C283.25,-252 160.75,-252 160.75,-252 154.75,-252 148.75,-246 148.75,-240 148.75,-240 148.75,-228 148.75,-228 148.75,-222 154.75,-216 160.75,-216 160.75,-216 283.25,-216 283.25,-216 289.25,-216 295.25,-222 295.25,-228 295.25,-228 295.25,-240 295.25,-240 295.25,-246 289.25,-252 283.25,-252"/>
<text xml:space="preserve" text-anchor="middle" x="222" y="-235.2" font-family="Helvetica,sans-Serif" font-size="9.00">Active Terminal Guidance +32%</text>
<text xml:space="preserve" text-anchor="middle" x="222" y="-225.45" font-family="Helvetica,sans-Serif" font-size="9.00">8K RP</text>
</g>
<!-- Active_Terminal_Guidance__25_&#45;&gt;Active_Terminal_Guidance__32_ -->
<g id="edge4" class="edge">
<title>Active_Terminal_Guidance__25_&#45;&gt;Active_Terminal_Guidance__32_</title>
<path fill="none" stroke="black" d="M222,-287.7C222,-279.22 222,-268.86 222,-259.58"/>
<polygon fill="black" stroke="black" points="224.1,-259.62 222,-253.62 219.9,-259.62 224.1,-259.62"/>
</g>
<!-- Active_Terminal_Guidance__40_ -->
<g id="node6" class="node">
<title>Active_Terminal_Guidance__40_</title>
<path fill="#fff3cd" stroke="black" d="M283.25,-180C283.25,-180 160.75,-180 160.75,-180 154.75,-180 148.75,-174 148.75,-168 148.75,-168 148.75,-156 148.75,-156 148.75,-150 154.75,-144 160.75,-144 160.75,-144 283.25,-144 283.25,-144 289.25,-144 295.25,-150 295.25,-156 295.25,-156 295.25,-168 295.25,-168 295.25,-174 289.25,-180 283.25,-180"/>
<text xml:space="preserve" text-anchor="middle" x="222" y="-163.2" font-family="Helvetica,sans-Serif" font-size="9.00">Active Terminal Guidance +40%</text>
<text xml:space="preserve" text-anchor="middle" x="222" y="-153.45" font-family="Helvetica,sans-Serif" font-size="9.00">16K RP</text>
</g>
<!-- Active_Terminal_Guidance__32_&#45;&gt;Active_Terminal_Guidance__40_ -->
<g id="edge5" class="edge">
<title>Active_Terminal_Guidance__32_&#45;&gt;Active_Terminal_Guidance__40_</title>
<path fill="none" stroke="black" d="M222,-215.7C222,-207.22 222,-196.86 222,-187.58"/>
<polygon fill="black" stroke="black" points="224.1,-187.62 222,-181.62 219.9,-187.62 224.1,-187.62"/>
</g>
<!-- Active_Terminal_Guidance__50_ -->
<g id="node7" class="node">
<title>Active_Terminal_Guidance__50_</title>
<path fill="#fff3cd" stroke="black" d="M283.25,-108C283.25,-108 160.75,-108 160.75,-108 154.75,-108 148.75,-102 148.75,-96 148.75,-96 148.75,-84 148.75,-84 148.75,-78 154.75,-72 160.75,-72 160.75,-72 283.25,-72 283.25,-72 289.25,-72 295.25,-78 295.25,-84 295.25,-84 295.25,-96 295.25,-96 295.25,-102 289.25,-108 283.25,-108"/>
<text xml:space="preserve" text-anchor="middle" x="222" y="-91.2" font-family="Helvetica,sans-Serif" font-size="9.00">Active Terminal Guidance +50%</text>
<text xml:space="preserve" text-anchor="middle" x="222" y="-81.45" font-family="Helvetica,sans-Serif" font-size="9.00">32K RP</text>
</g>
<!-- Active_Terminal_Guidance__40_&#45;&gt;Active_Terminal_Guidance__50_ -->
<g id="edge6" class="edge">
<title>Active_Terminal_Guidance__40_&#45;&gt;Active_Terminal_Guidance__50_</title>
<path fill="none" stroke="black" d="M222,-143.7C222,-135.22 222,-124.86 222,-115.58"/>
<polygon fill="black" stroke="black" points="224.1,-115.62 222,-109.62 219.9,-115.62 224.1,-115.62"/>
</g>
<!-- Active_Terminal_Guidance__60_ -->
<g id="node8" class="node">
<title>Active_Terminal_Guidance__60_</title>
<path fill="#fff3cd" stroke="black" d="M283.25,-36C283.25,-36 160.75,-36 160.75,-36 154.75,-36 148.75,-30 148.75,-24 148.75,-24 148.75,-12 148.75,-12 148.75,-6 154.75,0 160.75,0 160.75,0 283.25,0 283.25,0 289.25,0 295.25,-6 295.25,-12 295.25,-12 295.25,-24 295.25,-24 295.25,-30 289.25,-36 283.25,-36"/>
<text xml:space="preserve" text-anchor="middle" x="222" y="-19.2" font-family="Helvetica,sans-Serif" font-size="9.00">Active Terminal Guidance +60%</text>
<text xml:space="preserve" text-anchor="middle" x="222" y="-9.45" font-family="Helvetica,sans-Serif" font-size="9.00">64K RP</text>
</g>
<!-- Active_Terminal_Guidance__50_&#45;&gt;Active_Terminal_Guidance__60_ -->
<g id="edge7" class="edge">
<title>Active_Terminal_Guidance__50_&#45;&gt;Active_Terminal_Guidance__60_</title>
<path fill="none" stroke="black" d="M222,-71.7C222,-63.22 222,-52.86 222,-43.58"/>
<polygon fill="black" stroke="black" points="224.1,-43.62 222,-37.62 219.9,-43.62 224.1,-43.62"/>
</g>
<!-- ext_Trans_Newtonian_Technology -->
<g id="node9" class="node">
<title>ext_Trans_Newtonian_Technology</title>
<path fill="#f0f0f0" stroke="black" stroke-dasharray="5,2" d="M278,-540C278,-540 166,-540 166,-540 160,-540 154,-534 154,-528 154,-528 154,-516 154,-516 154,-510 160,-504 166,-504 166,-504 278,-504 278,-504 284,-504 290,-510 290,-516 290,-516 290,-528 290,-528 290,-534 284,-540 278,-540"/>
<text xml:space="preserve" text-anchor="middle" x="222" y="-518.33" font-family="Helvetica,sans-Serif" font-size="9.00">Trans&#45;Newtonian Technology</text>
</g>
<!-- ext_Trans_Newtonian_Technology&#45;&gt;Active_Terminal_Guidance__15_ -->
<g id="edge1" class="edge">
<title>ext_Trans_Newtonian_Technology&#45;&gt;Active_Terminal_Guidance__15_</title>
<path fill="none" stroke="black" d="M222,-503.7C222,-495.22 222,-484.86 222,-475.58"/>
<polygon fill="black" stroke="black" points="224.1,-475.62 222,-469.62 219.9,-475.62 224.1,-475.62"/>
</g>
</g>
</svg>
