<?xml version="1.0" encoding="UTF-8" standalone="no"?>
<!DOCTYPE svg PUBLIC "-//W3C//DTD SVG 1.1//EN"
 "http://www.w3.org/Graphics/SVG/1.1/DTD/svg11.dtd">
<!-- Generated by graphviz version 14.1.2 (20260124.0452)
 -->
<!-- Title: TechTree Pages: 1 -->
<svg width="822pt" height="132pt"
 viewBox="0.00 0.00 822.00 132.00" xmlns="http://www.w3.org/2000/svg" xmlns:xlink="http://www.w3.org/1999/xlink">
<g id="graph0" class="graph" transform="scale(1 1) rotate(0) translate(4 128)">
<title>TechTree</title>
<polygon fill="white" stroke="none" points="-4,4 -4,-128 818,-128 818,4 -4,4"/>
<text xml:space="preserve" text-anchor="middle" x="407" y="-106.7" font-family="Helvetica,sans-Serif" font-weight="bold" font-size="14.00">Advanced Laser</text>
<!-- 10 -->
<g id="node1" class="node">
<title>10</title>
<path fill="lightgrey" stroke="black" d="M292,-101C292,-101 262,-101 262,-101 256,-101 250,-95 250,-89 250,-89 250,-77 250,-77 250,-71 256,-65 262,-65 262,-65 292,-65 292,-65 298,-65 304,-71 304,-77 304,-77 304,-89 304,-89 304,-95 298,-101 292,-101"/>
<text xml:space="preserve" text-anchor="middle" x="277" y="-79.12" font-family="Helvetica,sans-Serif" font-size="10.00">10</text>
</g>
<!-- cm_Advanced_Laser_Focal_Size -->
<g id="node2" class="node">
<title>cm_Advanced_Laser_Focal_Size</title>
<path fill="#f8d7da" stroke="black" d="M476.12,-101C476.12,-101 337.88,-101 337.88,-101 331.88,-101 325.88,-95 325.88,-89 325.88,-89 325.88,-77 325.88,-77 325.88,-71 331.88,-65 337.88,-65 337.88,-65 476.12,-65 476.12,-65 482.12,-65 488.12,-71 488.12,-77 488.12,-77 488.12,-89 488.12,-89 488.12,-95 482.12,-101 476.12,-101"/>
<text xml:space="preserve" text-anchor="middle" x="407" y="-84.75" font-family="Helvetica,sans-Serif" font-size="10.00">80cm Advanced Laser Focal Size</text>
<text xml:space="preserve" text-anchor="middle" x="407" y="-73.5" font-family="Helvetica,sans-Serif" font-size="10.00">2.4M RP</text>
</g>
<!-- 12 -->
<g id="node3" class="node">
<title>12</title>
<path fill="lightgrey" stroke="black" d="M42,-36C42,-36 12,-36 12,-36 6,-36 0,-30 0,-24 0,-24 0,-12 0,-12 0,-6 6,0 12,0 12,0 42,0 42,0 48,0 54,-6 54,-12 54,-12 54,-24 54,-24 54,-30 48,-36 42,-36"/>
<text xml:space="preserve" text-anchor="middle" x="27" y="-14.12" font-family="Helvetica,sans-Serif" font-size="10.00">12</text>
</g>
<!-- cm_Advanced_Laser_Focal_Size&#45;&gt;12 -->
<g id="edge1" class="edge">
<title>cm_Advanced_Laser_Focal_Size&#45;&gt;12</title>
<path fill="none" stroke="black" d="M325.78,-66.69C322.14,-66.1 318.53,-65.53 315,-65 204.38,-48.38 172.86,-65.63 65,-36 64.13,-35.76 63.25,-35.5 62.37,-35.23"/>
<polygon fill="black" stroke="black" points="63.29,-32.96 55.88,-32.95 61.67,-37.58 63.29,-32.96"/>
</g>
<!-- 15 -->
<g id="node4" class="node">
<title>15</title>
<path fill="lightgrey" stroke="black" d="M118,-36C118,-36 88,-36 88,-36 82,-36 76,-30 76,-24 76,-24 76,-12 76,-12 76,-6 82,0 88,0 88,0 118,0 118,0 124,0 130,-6 130,-12 130,-12 130,-24 130,-24 130,-30 124,-36 118,-36"/>
<text xml:space="preserve" text-anchor="middle" x="103" y="-14.12" font-family="Helvetica,sans-Serif" font-size="10.00">15</text>
</g>
<!-- cm_Advanced_Laser_Focal_Size&#45;&gt;15 -->
<g id="edge2" class="edge">
<title>cm_Advanced_Laser_Focal_Size&#45;&gt;15</title>
<path fill="none" stroke="black" d="M325.74,-66.91C322.11,-66.26 318.52,-65.62 315,-65 237.78,-51.43 216.06,-58.64 141,-36 140.14,-35.74 139.26,-35.46 138.39,-35.17"/>
<polygon fill="black" stroke="black" points="139.33,-32.91 131.92,-32.8 137.65,-37.51 139.33,-32.91"/>
</g>
<!-- 20 -->
<g id="node5" class="node">
<title>20</title>
<path fill="lightgrey" stroke="black" d="M194,-36C194,-36 164,-36 164,-36 158,-36 152,-30 152,-24 152,-24 152,-12 152,-12 152,-6 158,0 164,0 164,0 194,0 194,0 200,0 206,-6 206,-12 206,-12 206,-24 206,-24 206,-30 200,-36 194,-36"/>
<text xml:space="preserve" text-anchor="middle" x="179" y="-14.12" font-family="Helvetica,sans-Serif" font-size="10.00">20</text>
</g>
<!-- cm_Advanced_Laser_Focal_Size&#45;&gt;20 -->
<g id="edge3" class="edge">
<title>cm_Advanced_Laser_Focal_Size&#45;&gt;20</title>
<path fill="none" stroke="black" d="M325.63,-65.74C291.65,-58.07 252.01,-47.96 217,-36 216,-35.66 214.99,-35.3 213.97,-34.93"/>
<polygon fill="black" stroke="black" points="214.98,-32.69 207.57,-32.42 213.19,-37.25 214.98,-32.69"/>
</g>
<!-- 25 -->
<g id="node6" class="node">
<title>25</title>
<path fill="lightgrey" stroke="black" d="M270,-36C270,-36 240,-36 240,-36 234,-36 228,-30 228,-24 228,-24 228,-12 228,-12 228,-6 234,0 240,0 240,0 270,0 270,0 276,0 282,-6 282,-12 282,-12 282,-24 282,-24 282,-30 276,-36 270,-36"/>
<text xml:space="preserve" text-anchor="middle" x="255" y="-14.12" font-family="Helvetica,sans-Serif" font-size="10.00">25</text>
</g>
<!-- cm_Advanced_Laser_Focal_Size&#45;&gt;25 -->
<g id="edge4" class="edge">
<title>cm_Advanced_Laser_Focal_Size&#45;&gt;25</title>
<path fill="none" stroke="black" d="M362.72,-64.58C341.55,-56.13 315.88,-45.73 293,-36 292.03,-35.59 291.04,-35.16 290.05,-34.74"/>
<polygon fill="black" stroke="black" points="291.13,-32.53 283.73,-31.98 289.17,-37.03 291.13,-32.53"/>
</g>
<!-- 30 -->
<g id="node7" class="node">
<title>30</title>
<path fill="lightgrey" stroke="black" d="M346,-36C346,-36 316,-36 316,-36 310,-36 304,-30 304,-24 304,-24 304,-12 304,-12 304,-6 310,0 316,0 316,0 346,0 346,0 352,0 358,-6 358,-12 358,-12 358,-24 358,-24 358,-30 352,-36 346,-36"/>
<text xml:space="preserve" text-anchor="middle" x="331" y="-14.12" font-family="Helvetica,sans-Serif" font-size="10.00">30</text>
</g>
<!-- cm_Advanced_Laser_Focal_Size&#45;&gt;30 -->
<g id="edge5" class="edge">
<title>cm_Advanced_Laser_Focal_Size&#45;&gt;30</title>
<path fill="none" stroke="black" d="M386.23,-64.78C377.67,-57.69 367.64,-49.37 358.48,-41.78"/>
<polygon fill="black" stroke="black" points="360.12,-39.96 353.17,-37.38 357,-43.73 360.12,-39.96"/>
</g>
<!-- 35 -->
<g id="node8" class="node">
<title>35</title>
<path fill="lightgrey" stroke="black" d="M422,-36C422,-36 392,-36 392,-36 386,-36 380,-30 380,-24 380,-24 380,-12 380,-12 380,-6 386,0 392,0 392,0 422,0 422,0 428,0 434,-6 434,-12 434,-12 434,-24 434,-24 434,-30 428,-36 422,-36"/>
<text xml:space="preserve" text-anchor="middle" x="407" y="-14.12" font-family="Helvetica,sans-Serif" font-size="10.00">35</text>
</g>
<!-- cm_Advanced_Laser_Focal_Size&#45;&gt;35 -->
<g id="edge6" class="edge">
<title>cm_Advanced_Laser_Focal_Size&#45;&gt;35</title>
<path fill="none" stroke="black" d="M407,-64.78C407,-58.53 407,-51.33 407,-44.52"/>
<polygon fill="black" stroke="black" points="409.45,-44.71 407,-37.71 404.55,-44.71 409.45,-44.71"/>
</g>
<!-- 40 -->
<g id="node9" class="node">
<title>40</title>
<path fill="lightgrey" stroke="black" d="M498,-36C498,-36 468,-36 468,-36 462,-36 456,-30 456,-24 456,-24 456,-12 456,-12 456,-6 462,0 468,0 468,0 498,0 498,0 504,0 510,-6 510,-12 510,-12 510,-24 510,-24 510,-30 504,-36 498,-36"/>
<text xml:space="preserve" text-anchor="middle" x="483" y="-14.12" font-family="Helvetica,sans-Serif" font-size="10.00">40</text>
</g>
<!-- cm_Advanced_Laser_Focal_Size&#45;&gt;40 -->
<g id="edge7" class="edge">
<title>cm_Advanced_Laser_Focal_Size&#45;&gt;40</title>
<path fill="none" stroke="black" d="M427.77,-64.78C436.33,-57.69 446.36,-49.37 455.52,-41.78"/>
<polygon fill="black" stroke="black" points="457,-43.73 460.83,-37.38 453.88,-39.96 457,-43.73"/>
</g>
<!-- 50 -->
<g id="node10" class="node">
<title>50</title>
<path fill="lightgrey" stroke="black" d="M574,-36C574,-36 544,-36 544,-36 538,-36 532,-30 532,-24 532,-24 532,-12 532,-12 532,-6 538,0 544,0 544,0 574,0 574,0 580,0 586,-6 586,-12 586,-12 586,-24 586,-24 586,-30 580,-36 574,-36"/>
<text xml:space="preserve" text-anchor="middle" x="559" y="-14.12" font-family="Helvetica,sans-Serif" font-size="10.00">50</text>
</g>
<!-- cm_Advanced_Laser_Focal_Size&#45;&gt;50 -->
<g id="edge8" class="edge">
<title>cm_Advanced_Laser_Focal_Size&#45;&gt;50</title>
<path fill="none" stroke="black" d="M451.28,-64.58C472.45,-56.13 498.12,-45.73 521,-36 521.97,-35.59 522.96,-35.16 523.95,-34.74"/>
<polygon fill="black" stroke="black" points="524.83,-37.03 530.27,-31.98 522.87,-32.53 524.83,-37.03"/>
</g>
<!-- 60 -->
<g id="node11" class="node">
<title>60</title>
<path fill="lightgrey" stroke="black" d="M650,-36C650,-36 620,-36 620,-36 614,-36 608,-30 608,-24 608,-24 608,-12 608,-12 608,-6 614,0 620,0 620,0 650,0 650,0 656,0 662,-6 662,-12 662,-12 662,-24 662,-24 662,-30 656,-36 650,-36"/>
<text xml:space="preserve" text-anchor="middle" x="635" y="-14.12" font-family="Helvetica,sans-Serif" font-size="10.00">60</text>
</g>
<!-- cm_Advanced_Laser_Focal_Size&#45;&gt;60 -->
<g id="edge9" class="edge">
<title>cm_Advanced_Laser_Focal_Size&#45;&gt;60</title>
<path fill="none" stroke="black" d="M488.37,-65.74C522.35,-58.07 561.99,-47.96 597,-36 598,-35.66 599.01,-35.3 600.03,-34.93"/>
<polygon fill="black" stroke="black" points="600.81,-37.25 606.43,-32.42 599.02,-32.69 600.81,-37.25"/>
</g>
<!-- 70 -->
<g id="node12" class="node">
<title>70</title>
<path fill="lightgrey" stroke="black" d="M726,-36C726,-36 696,-36 696,-36 690,-36 684,-30 684,-24 684,-24 684,-12 684,-12 684,-6 690,0 696,0 696,0 726,0 726,0 732,0 738,-6 738,-12 738,-12 738,-24 738,-24 738,-30 732,-36 726,-36"/>
<text xml:space="preserve" text-anchor="middle" x="711" y="-14.12" font-family="Helvetica,sans-Serif" font-size="10.00">70</text>
</g>
<!-- cm_Advanced_Laser_Focal_Size&#45;&gt;70 -->
<g id="edge10" class="edge">
<title>cm_Advanced_Laser_Focal_Size&#45;&gt;70</title>
<path fill="none" stroke="black" d="M488.54,-73.25C541.82,-66.24 612.48,-54.45 673,-36 674.01,-35.69 675.03,-35.36 676.05,-35.02"/>
<polygon fill="black" stroke="black" points="676.79,-37.36 682.5,-32.62 675.08,-32.77 676.79,-37.36"/>
</g>
<!-- 80 -->
<g id="node13" class="node">
<title>80</title>
<path fill="lightgrey" stroke="black" d="M802,-36C802,-36 772,-36 772,-36 766,-36 760,-30 760,-24 760,-24 760,-12 760,-12 760,-6 766,0 772,0 772,0 802,0 802,0 808,0 814,-6 814,-12 814,-12 814,-24 814,-24 814,-30 808,-36 802,-36"/>
<text xml:space="preserve" text-anchor="middle" x="787" y="-14.12" font-family="Helvetica,sans-Serif" font-size="10.00">80</text>
</g>
<!-- cm_Advanced_Laser_Focal_Size&#45;&gt;80 -->
<g id="edge11" class="edge">
<title>cm_Advanced_Laser_Focal_Size&#45;&gt;80</title>
<path fill="none" stroke="black" d="M488.49,-77.63C558.64,-72.31 661.99,-60.76 749,-36 749.87,-35.75 750.74,-35.49 751.62,-35.21"/>
<polygon fill="black" stroke="black" points="752.34,-37.56 758.11,-32.9 750.69,-32.94 752.34,-37.56"/>
</g>
</g>
</svg>
