<?xml version="1.0" encoding="UTF-8" standalone="no"?>
<!DOCTYPE svg PUBLIC "-//W3C//DTD SVG 1.1//EN"
 "http://www.w3.org/Graphics/SVG/1.1/DTD/svg11.dtd">
<!-- Generated by graphviz version 14.1.2 (20260124.0452)
 -->
<!-- Title: TechTree Pages: 1 -->
<svg width="407pt" height="67pt"
 viewBox="0.00 0.00 407.00 67.00" xmlns="http://www.w3.org/2000/svg" xmlns:xlink="http://www.w3.org/1999/xlink">
<g id="graph0" class="graph" transform="scale(1 1) rotate(0) translate(4 63)">
<title>TechTree</title>
<polygon fill="white" stroke="none" points="-4,4 -4,-63 402.75,-63 402.75,4 -4,4"/>
<text xml:space="preserve" text-anchor="middle" x="199.38" y="-41.7" font-family="Helvetica,sans-Serif" font-weight="bold" font-size="14.00">Advanced Particle Beam</text>
<!-- Advanced_Particle_Beam_Warhead -->
<g id="node1" class="node">
<title>Advanced_Particle_Beam_Warhead</title>
<path fill="#f8d7da" stroke="black" d="M166.75,-36C166.75,-36 12,-36 12,-36 6,-36 0,-30 0,-24 0,-24 0,-12 0,-12 0,-6 6,0 12,0 12,0 166.75,0 166.75,0 172.75,0 178.75,-6 178.75,-12 178.75,-12 178.75,-24 178.75,-24 178.75,-30 172.75,-36 166.75,-36"/>
<text xml:space="preserve" text-anchor="middle" x="89.38" y="-19.75" font-family="Helvetica,sans-Serif" font-size="10.00">Advanced Particle Beam Warhead 64</text>
<text xml:space="preserve" text-anchor="middle" x="89.38" y="-8.5" font-family="Helvetica,sans-Serif" font-size="10.00">2.0M RP</text>
</g>
<!-- Advanced_Particle_Beam_Warhead&#45;&gt;Advanced_Particle_Beam_Warhead -->
<g id="edge1" class="edge">
<title>Advanced_Particle_Beam_Warhead&#45;&gt;Advanced_Particle_Beam_Warhead</title>
<path fill="none" stroke="black" d="M178.95,-19.35C191.98,-19.14 200.75,-18.69 200.75,-18 200.75,-17.47 195.61,-17.09 187.35,-16.84"/>
<polygon fill="black" stroke="black" points="187.52,-14.39 180.47,-16.68 187.41,-19.29 187.52,-14.39"/>
</g>
<!-- Advanced_Particle_Beam_Warhead&#45;&gt;Advanced_Particle_Beam_Warhead -->
<g id="edge2" class="edge">
<title>Advanced_Particle_Beam_Warhead&#45;&gt;Advanced_Particle_Beam_Warhead</title>
<path fill="none" stroke="black" d="M179.14,-20.98C203.86,-20.84 222.75,-19.84 222.75,-18 222.75,-16.37 208.03,-15.41 187.57,-15.1"/>
<polygon fill="black" stroke="black" points="187.68,-12.66 180.65,-15.03 187.63,-17.55 187.68,-12.66"/>
</g>
<!-- Advanced_Particle_Beam_Warhead&#45;&gt;Advanced_Particle_Beam_Warhead -->
<g id="edge3" class="edge">
<title>Advanced_Particle_Beam_Warhead&#45;&gt;Advanced_Particle_Beam_Warhead</title>
<path fill="none" stroke="black" d="M179.18,-22.48C214.87,-22.71 244.75,-21.22 244.75,-18 244.75,-15.03 219.35,-13.53 187.42,-13.5"/>
<polygon fill="black" stroke="black" points="187.68,-11.05 180.69,-13.52 187.7,-15.95 187.68,-11.05"/>
</g>
<!-- Advanced_Particle_Beam_Warhead&#45;&gt;Advanced_Particle_Beam_Warhead -->
<g id="edge4" class="edge">
<title>Advanced_Particle_Beam_Warhead&#45;&gt;Advanced_Particle_Beam_Warhead</title>
<path fill="none" stroke="black" d="M178.81,-23.79C225.06,-24.68 266.75,-22.75 266.75,-18 266.75,-13.54 229.96,-11.56 187.16,-12.08"/>
<polygon fill="black" stroke="black" points="187.29,-9.63 180.33,-12.19 187.37,-14.53 187.29,-9.63"/>
</g>
<!-- Advanced_Particle_Beam_Warhead&#45;&gt;Advanced_Particle_Beam_Warhead -->
<g id="edge5" class="edge">
<title>Advanced_Particle_Beam_Warhead&#45;&gt;Advanced_Particle_Beam_Warhead</title>
<path fill="none" stroke="black" d="M179.08,-24.96C235.19,-26.67 288.75,-24.35 288.75,-18 288.75,-11.96 240.3,-9.57 187.27,-10.82"/>
<polygon fill="black" stroke="black" points="187.52,-8.37 180.59,-11 187.65,-13.26 187.52,-8.37"/>
</g>
<!-- Advanced_Particle_Beam_Warhead&#45;&gt;Advanced_Particle_Beam_Warhead -->
<g id="edge6" class="edge">
<title>Advanced_Particle_Beam_Warhead&#45;&gt;Advanced_Particle_Beam_Warhead</title>
<path fill="none" stroke="black" d="M179.18,-25.98C244.9,-28.68 310.75,-26.02 310.75,-18 310.75,-10.33 250.44,-7.56 187.65,-9.7"/>
<polygon fill="black" stroke="black" points="187.6,-7.25 180.69,-9.96 187.78,-12.14 187.6,-7.25"/>
</g>
<!-- Advanced_Particle_Beam_Warhead&#45;&gt;Advanced_Particle_Beam_Warhead -->
<g id="edge7" class="edge">
<title>Advanced_Particle_Beam_Warhead&#45;&gt;Advanced_Particle_Beam_Warhead</title>
<path fill="none" stroke="black" d="M179.24,-26.9C254.31,-30.7 332.75,-27.73 332.75,-18 332.75,-8.63 260.02,-5.53 187.61,-8.71"/>
<polygon fill="black" stroke="black" points="187.63,-6.25 180.75,-9.03 187.86,-11.15 187.63,-6.25"/>
</g>
<!-- Advanced_Particle_Beam_Warhead&#45;&gt;Advanced_Particle_Beam_Warhead -->
<g id="edge8" class="edge">
<title>Advanced_Particle_Beam_Warhead&#45;&gt;Advanced_Particle_Beam_Warhead</title>
<path fill="none" stroke="black" d="M179.1,-27.7C263.35,-32.73 354.75,-29.5 354.75,-18 354.75,-6.88 269.32,-3.49 187.51,-7.82"/>
<polygon fill="black" stroke="black" points="187.46,-5.37 180.61,-8.21 187.74,-10.26 187.46,-5.37"/>
</g>
<!-- Advanced_Particle_Beam_Warhead&#45;&gt;Advanced_Particle_Beam_Warhead -->
<g id="edge9" class="edge">
<title>Advanced_Particle_Beam_Warhead&#45;&gt;Advanced_Particle_Beam_Warhead</title>
<path fill="none" stroke="black" d="M179.12,-28.43C272.33,-34.77 376.75,-31.29 376.75,-18 376.75,-5.11 278.55,-1.45 187.61,-7.02"/>
<polygon fill="black" stroke="black" points="187.46,-4.57 180.63,-7.47 187.77,-9.46 187.46,-4.57"/>
</g>
<!-- Advanced_Particle_Beam_Warhead&#45;&gt;Advanced_Particle_Beam_Warhead -->
<g id="edge10" class="edge">
<title>Advanced_Particle_Beam_Warhead&#45;&gt;Advanced_Particle_Beam_Warhead</title>
<path fill="none" stroke="black" d="M179.24,-29.1C281.22,-36.8 398.75,-33.1 398.75,-18 398.75,-3.32 287.56,0.59 187.64,-6.29"/>
<polygon fill="black" stroke="black" points="187.56,-3.84 180.75,-6.79 187.91,-8.73 187.56,-3.84"/>
</g>
</g>
</svg>
