<?xml version="1.0" encoding="UTF-8" standalone="no"?>
<!DOCTYPE svg PUBLIC "-//W3C//DTD SVG 1.1//EN"
 "http://www.w3.org/Graphics/SVG/1.1/DTD/svg11.dtd">
<!-- Generated by graphviz version 14.1.2 (20260124.0452)
 -->
<!-- Title: TechTree Pages: 1 -->
<svg width="638pt" height="137pt"
 viewBox="0.00 0.00 638.00 137.00" xmlns="http://www.w3.org/2000/svg" xmlns:xlink="http://www.w3.org/1999/xlink">
<g id="graph0" class="graph" transform="scale(1 1) rotate(0) translate(4 132.75)">
<title>TechTree</title>
<polygon fill="white" stroke="none" points="-4,4 -4,-132.75 634,-132.75 634,4 -4,4"/>
<text xml:space="preserve" text-anchor="middle" x="315" y="-113.35" font-family="Helvetica,sans-Serif" font-weight="bold" font-size="12.00">Advanced Carronade</text>
<!-- 15 -->
<g id="node1" class="node">
<title>15</title>
<path fill="lightgrey" stroke="black" d="M221,-108C221,-108 191,-108 191,-108 185,-108 179,-102 179,-96 179,-96 179,-84 179,-84 179,-78 185,-72 191,-72 191,-72 221,-72 221,-72 227,-72 233,-78 233,-84 233,-84 233,-96 233,-96 233,-102 227,-108 221,-108"/>
<text xml:space="preserve" text-anchor="middle" x="206" y="-86.33" font-family="Helvetica,sans-Serif" font-size="9.00">15</text>
</g>
<!-- cm_Advanced_Carronade -->
<g id="node2" class="node">
<title>cm_Advanced_Carronade</title>
<path fill="#d4c4fb" stroke="black" d="M367.25,-108C367.25,-108 262.75,-108 262.75,-108 256.75,-108 250.75,-102 250.75,-96 250.75,-96 250.75,-84 250.75,-84 250.75,-78 256.75,-72 262.75,-72 262.75,-72 367.25,-72 367.25,-72 373.25,-72 379.25,-78 379.25,-84 379.25,-84 379.25,-96 379.25,-96 379.25,-102 373.25,-108 367.25,-108"/>
<text xml:space="preserve" text-anchor="middle" x="315" y="-91.2" font-family="Helvetica,sans-Serif" font-size="9.00">80cm Advanced Carronade</text>
<text xml:space="preserve" text-anchor="middle" x="315" y="-81.45" font-family="Helvetica,sans-Serif" font-size="9.00">500K RP</text>
</g>
<!-- 20 -->
<g id="node3" class="node">
<title>20</title>
<path fill="lightgrey" stroke="black" d="M42,-36C42,-36 12,-36 12,-36 6,-36 0,-30 0,-24 0,-24 0,-12 0,-12 0,-6 6,0 12,0 12,0 42,0 42,0 48,0 54,-6 54,-12 54,-12 54,-24 54,-24 54,-30 48,-36 42,-36"/>
<text xml:space="preserve" text-anchor="middle" x="27" y="-14.32" font-family="Helvetica,sans-Serif" font-size="9.00">20</text>
</g>
<!-- cm_Advanced_Carronade&#45;&gt;20 -->
<g id="edge1" class="edge">
<title>cm_Advanced_Carronade&#45;&gt;20</title>
<path fill="none" stroke="black" d="M250.54,-73.88C247.65,-73.24 244.8,-72.61 242,-72 162.7,-54.8 140.03,-61.51 63,-36 62.37,-35.79 61.73,-35.57 61.1,-35.35"/>
<polygon fill="black" stroke="black" points="62,-33.45 55.65,-33.24 60.49,-37.36 62,-33.45"/>
</g>
<!-- 25 -->
<g id="node4" class="node">
<title>25</title>
<path fill="lightgrey" stroke="black" d="M114,-36C114,-36 84,-36 84,-36 78,-36 72,-30 72,-24 72,-24 72,-12 72,-12 72,-6 78,0 84,0 84,0 114,0 114,0 120,0 126,-6 126,-12 126,-12 126,-24 126,-24 126,-30 120,-36 114,-36"/>
<text xml:space="preserve" text-anchor="middle" x="99" y="-14.32" font-family="Helvetica,sans-Serif" font-size="9.00">25</text>
</g>
<!-- cm_Advanced_Carronade&#45;&gt;25 -->
<g id="edge2" class="edge">
<title>cm_Advanced_Carronade&#45;&gt;25</title>
<path fill="none" stroke="black" d="M250.47,-72.61C215.81,-63.15 172.6,-50.31 135,-36 134.38,-35.76 133.75,-35.52 133.12,-35.27"/>
<polygon fill="black" stroke="black" points="134.07,-33.39 127.72,-33.02 132.46,-37.27 134.07,-33.39"/>
</g>
<!-- 30 -->
<g id="node5" class="node">
<title>30</title>
<path fill="lightgrey" stroke="black" d="M186,-36C186,-36 156,-36 156,-36 150,-36 144,-30 144,-24 144,-24 144,-12 144,-12 144,-6 150,0 156,0 156,0 186,0 186,0 192,0 198,-6 198,-12 198,-12 198,-24 198,-24 198,-30 192,-36 186,-36"/>
<text xml:space="preserve" text-anchor="middle" x="171" y="-14.32" font-family="Helvetica,sans-Serif" font-size="9.00">30</text>
</g>
<!-- cm_Advanced_Carronade&#45;&gt;30 -->
<g id="edge3" class="edge">
<title>cm_Advanced_Carronade&#45;&gt;30</title>
<path fill="none" stroke="black" d="M279.03,-71.52C256.39,-60.51 227.33,-46.38 205.05,-35.55"/>
<polygon fill="black" stroke="black" points="206.05,-33.7 199.74,-32.97 204.21,-37.48 206.05,-33.7"/>
</g>
<!-- 35 -->
<g id="node6" class="node">
<title>35</title>
<path fill="lightgrey" stroke="black" d="M258,-36C258,-36 228,-36 228,-36 222,-36 216,-30 216,-24 216,-24 216,-12 216,-12 216,-6 222,0 228,0 228,0 258,0 258,0 264,0 270,-6 270,-12 270,-12 270,-24 270,-24 270,-30 264,-36 258,-36"/>
<text xml:space="preserve" text-anchor="middle" x="243" y="-14.32" font-family="Helvetica,sans-Serif" font-size="9.00">35</text>
</g>
<!-- cm_Advanced_Carronade&#45;&gt;35 -->
<g id="edge4" class="edge">
<title>cm_Advanced_Carronade&#45;&gt;35</title>
<path fill="none" stroke="black" d="M297.2,-71.7C287.77,-62.53 276.07,-51.16 265.96,-41.33"/>
<polygon fill="black" stroke="black" points="267.69,-40.08 261.93,-37.4 264.77,-43.09 267.69,-40.08"/>
</g>
<!-- 40 -->
<g id="node7" class="node">
<title>40</title>
<path fill="lightgrey" stroke="black" d="M330,-36C330,-36 300,-36 300,-36 294,-36 288,-30 288,-24 288,-24 288,-12 288,-12 288,-6 294,0 300,0 300,0 330,0 330,0 336,0 342,-6 342,-12 342,-12 342,-24 342,-24 342,-30 336,-36 330,-36"/>
<text xml:space="preserve" text-anchor="middle" x="315" y="-14.32" font-family="Helvetica,sans-Serif" font-size="9.00">40</text>
</g>
<!-- cm_Advanced_Carronade&#45;&gt;40 -->
<g id="edge5" class="edge">
<title>cm_Advanced_Carronade&#45;&gt;40</title>
<path fill="none" stroke="black" d="M315,-71.7C315,-63.22 315,-52.86 315,-43.58"/>
<polygon fill="black" stroke="black" points="317.1,-43.62 315,-37.62 312.9,-43.62 317.1,-43.62"/>
</g>
<!-- 50 -->
<g id="node8" class="node">
<title>50</title>
<path fill="lightgrey" stroke="black" d="M402,-36C402,-36 372,-36 372,-36 366,-36 360,-30 360,-24 360,-24 360,-12 360,-12 360,-6 366,0 372,0 372,0 402,0 402,0 408,0 414,-6 414,-12 414,-12 414,-24 414,-24 414,-30 408,-36 402,-36"/>
<text xml:space="preserve" text-anchor="middle" x="387" y="-14.32" font-family="Helvetica,sans-Serif" font-size="9.00">50</text>
</g>
<!-- cm_Advanced_Carronade&#45;&gt;50 -->
<g id="edge6" class="edge">
<title>cm_Advanced_Carronade&#45;&gt;50</title>
<path fill="none" stroke="black" d="M332.8,-71.7C342.23,-62.53 353.93,-51.16 364.04,-41.33"/>
<polygon fill="black" stroke="black" points="365.23,-43.09 368.07,-37.4 362.31,-40.08 365.23,-43.09"/>
</g>
<!-- 60 -->
<g id="node9" class="node">
<title>60</title>
<path fill="lightgrey" stroke="black" d="M474,-36C474,-36 444,-36 444,-36 438,-36 432,-30 432,-24 432,-24 432,-12 432,-12 432,-6 438,0 444,0 444,0 474,0 474,0 480,0 486,-6 486,-12 486,-12 486,-24 486,-24 486,-30 480,-36 474,-36"/>
<text xml:space="preserve" text-anchor="middle" x="459" y="-14.32" font-family="Helvetica,sans-Serif" font-size="9.00">60</text>
</g>
<!-- cm_Advanced_Carronade&#45;&gt;60 -->
<g id="edge7" class="edge">
<title>cm_Advanced_Carronade&#45;&gt;60</title>
<path fill="none" stroke="black" d="M350.97,-71.52C373.61,-60.51 402.67,-46.38 424.95,-35.55"/>
<polygon fill="black" stroke="black" points="425.79,-37.48 430.26,-32.97 423.95,-33.7 425.79,-37.48"/>
</g>
<!-- 70 -->
<g id="node10" class="node">
<title>70</title>
<path fill="lightgrey" stroke="black" d="M546,-36C546,-36 516,-36 516,-36 510,-36 504,-30 504,-24 504,-24 504,-12 504,-12 504,-6 510,0 516,0 516,0 546,0 546,0 552,0 558,-6 558,-12 558,-12 558,-24 558,-24 558,-30 552,-36 546,-36"/>
<text xml:space="preserve" text-anchor="middle" x="531" y="-14.32" font-family="Helvetica,sans-Serif" font-size="9.00">70</text>
</g>
<!-- cm_Advanced_Carronade&#45;&gt;70 -->
<g id="edge8" class="edge">
<title>cm_Advanced_Carronade&#45;&gt;70</title>
<path fill="none" stroke="black" d="M379.53,-72.61C414.19,-63.15 457.4,-50.31 495,-36 495.62,-35.76 496.25,-35.52 496.88,-35.27"/>
<polygon fill="black" stroke="black" points="497.54,-37.27 502.28,-33.02 495.93,-33.39 497.54,-37.27"/>
</g>
<!-- 80 -->
<g id="node11" class="node">
<title>80</title>
<path fill="lightgrey" stroke="black" d="M618,-36C618,-36 588,-36 588,-36 582,-36 576,-30 576,-24 576,-24 576,-12 576,-12 576,-6 582,0 588,0 588,0 618,0 618,0 624,0 630,-6 630,-12 630,-12 630,-24 630,-24 630,-30 624,-36 618,-36"/>
<text xml:space="preserve" text-anchor="middle" x="603" y="-14.32" font-family="Helvetica,sans-Serif" font-size="9.00">80</text>
</g>
<!-- cm_Advanced_Carronade&#45;&gt;80 -->
<g id="edge9" class="edge">
<title>cm_Advanced_Carronade&#45;&gt;80</title>
<path fill="none" stroke="black" d="M379.53,-79.7C431.11,-71.26 504.81,-56.9 567,-36 567.63,-35.79 568.26,-35.57 568.9,-35.34"/>
<polygon fill="black" stroke="black" points="569.52,-37.36 574.35,-33.22 567.99,-33.44 569.52,-37.36"/>
</g>
</g>
</svg>
