<?xml version="1.0" encoding="UTF-8" standalone="no"?>
<!DOCTYPE svg PUBLIC "-//W3C//DTD SVG 1.1//EN"
 "http://www.w3.org/Graphics/SVG/1.1/DTD/svg11.dtd">
<!-- Generated by graphviz version 14.1.2 (20260124.0452)
 -->
<!-- Title: TechTree Pages: 1 -->
<svg width="782pt" height="137pt"
 viewBox="0.00 0.00 782.00 137.00" xmlns="http://www.w3.org/2000/svg" xmlns:xlink="http://www.w3.org/1999/xlink">
<g id="graph0" class="graph" transform="scale(1 1) rotate(0) translate(4 132.75)">
<title>TechTree</title>
<polygon fill="white" stroke="none" points="-4,4 -4,-132.75 778,-132.75 778,4 -4,4"/>
<text xml:space="preserve" text-anchor="middle" x="387" y="-113.35" font-family="Helvetica,sans-Serif" font-weight="bold" font-size="12.00">Advanced Laser</text>
<!-- 10 -->
<g id="node1" class="node">
<title>10</title>
<path fill="lightgrey" stroke="black" d="M281,-108C281,-108 251,-108 251,-108 245,-108 239,-102 239,-96 239,-96 239,-84 239,-84 239,-78 245,-72 251,-72 251,-72 281,-72 281,-72 287,-72 293,-78 293,-84 293,-84 293,-96 293,-96 293,-102 287,-108 281,-108"/>
<text xml:space="preserve" text-anchor="middle" x="266" y="-86.33" font-family="Helvetica,sans-Serif" font-size="9.00">10</text>
</g>
<!-- cm_Advanced_Laser_Focal_Size -->
<g id="node2" class="node">
<title>cm_Advanced_Laser_Focal_Size</title>
<path fill="#f8d7da" stroke="black" d="M451.25,-108C451.25,-108 322.75,-108 322.75,-108 316.75,-108 310.75,-102 310.75,-96 310.75,-96 310.75,-84 310.75,-84 310.75,-78 316.75,-72 322.75,-72 322.75,-72 451.25,-72 451.25,-72 457.25,-72 463.25,-78 463.25,-84 463.25,-84 463.25,-96 463.25,-96 463.25,-102 457.25,-108 451.25,-108"/>
<text xml:space="preserve" text-anchor="middle" x="387" y="-91.2" font-family="Helvetica,sans-Serif" font-size="9.00">80cm Advanced Laser Focal Size</text>
<text xml:space="preserve" text-anchor="middle" x="387" y="-81.45" font-family="Helvetica,sans-Serif" font-size="9.00">2.4M RP</text>
</g>
<!-- 12 -->
<g id="node3" class="node">
<title>12</title>
<path fill="lightgrey" stroke="black" d="M42,-36C42,-36 12,-36 12,-36 6,-36 0,-30 0,-24 0,-24 0,-12 0,-12 0,-6 6,0 12,0 12,0 42,0 42,0 48,0 54,-6 54,-12 54,-12 54,-24 54,-24 54,-30 48,-36 42,-36"/>
<text xml:space="preserve" text-anchor="middle" x="27" y="-14.32" font-family="Helvetica,sans-Serif" font-size="9.00">12</text>
</g>
<!-- cm_Advanced_Laser_Focal_Size&#45;&gt;12 -->
<g id="edge1" class="edge">
<title>cm_Advanced_Laser_Focal_Size&#45;&gt;12</title>
<path fill="none" stroke="black" d="M310.58,-73.54C307.68,-73.01 304.82,-72.49 302,-72 196.19,-53.46 165.77,-67.27 63,-36 62.36,-35.81 61.72,-35.6 61.08,-35.39"/>
<polygon fill="black" stroke="black" points="61.96,-33.48 55.61,-33.37 60.51,-37.42 61.96,-33.48"/>
</g>
<!-- 15 -->
<g id="node4" class="node">
<title>15</title>
<path fill="lightgrey" stroke="black" d="M114,-36C114,-36 84,-36 84,-36 78,-36 72,-30 72,-24 72,-24 72,-12 72,-12 72,-6 78,0 84,0 84,0 114,0 114,0 120,0 126,-6 126,-12 126,-12 126,-24 126,-24 126,-30 120,-36 114,-36"/>
<text xml:space="preserve" text-anchor="middle" x="99" y="-14.32" font-family="Helvetica,sans-Serif" font-size="9.00">15</text>
</g>
<!-- cm_Advanced_Laser_Focal_Size&#45;&gt;15 -->
<g id="edge2" class="edge">
<title>cm_Advanced_Laser_Focal_Size&#45;&gt;15</title>
<path fill="none" stroke="black" d="M310.51,-73.36C239.49,-58.78 143.46,-38.84 135,-36 134.37,-35.79 133.74,-35.57 133.1,-35.34"/>
<polygon fill="black" stroke="black" points="134.01,-33.44 127.65,-33.22 132.48,-37.36 134.01,-33.44"/>
</g>
<!-- 20 -->
<g id="node5" class="node">
<title>20</title>
<path fill="lightgrey" stroke="black" d="M186,-36C186,-36 156,-36 156,-36 150,-36 144,-30 144,-24 144,-24 144,-12 144,-12 144,-6 150,0 156,0 156,0 186,0 186,0 192,0 198,-6 198,-12 198,-12 198,-24 198,-24 198,-30 192,-36 186,-36"/>
<text xml:space="preserve" text-anchor="middle" x="171" y="-14.32" font-family="Helvetica,sans-Serif" font-size="9.00">20</text>
</g>
<!-- cm_Advanced_Laser_Focal_Size&#45;&gt;20 -->
<g id="edge3" class="edge">
<title>cm_Advanced_Laser_Focal_Size&#45;&gt;20</title>
<path fill="none" stroke="black" d="M318.65,-71.56C284.67,-62.21 243.23,-49.79 207,-36 206.38,-35.76 205.75,-35.52 205.12,-35.27"/>
<polygon fill="black" stroke="black" points="206.07,-33.39 199.72,-33.02 204.46,-37.27 206.07,-33.39"/>
</g>
<!-- 25 -->
<g id="node6" class="node">
<title>25</title>
<path fill="lightgrey" stroke="black" d="M258,-36C258,-36 228,-36 228,-36 222,-36 216,-30 216,-24 216,-24 216,-12 216,-12 216,-6 222,0 228,0 228,0 258,0 258,0 264,0 270,-6 270,-12 270,-12 270,-24 270,-24 270,-30 264,-36 258,-36"/>
<text xml:space="preserve" text-anchor="middle" x="243" y="-14.32" font-family="Helvetica,sans-Serif" font-size="9.00">25</text>
</g>
<!-- cm_Advanced_Laser_Focal_Size&#45;&gt;25 -->
<g id="edge4" class="edge">
<title>cm_Advanced_Laser_Focal_Size&#45;&gt;25</title>
<path fill="none" stroke="black" d="M351.03,-71.52C328.39,-60.51 299.33,-46.38 277.05,-35.55"/>
<polygon fill="black" stroke="black" points="278.05,-33.7 271.74,-32.97 276.21,-37.48 278.05,-33.7"/>
</g>
<!-- 30 -->
<g id="node7" class="node">
<title>30</title>
<path fill="lightgrey" stroke="black" d="M330,-36C330,-36 300,-36 300,-36 294,-36 288,-30 288,-24 288,-24 288,-12 288,-12 288,-6 294,0 300,0 300,0 330,0 330,0 336,0 342,-6 342,-12 342,-12 342,-24 342,-24 342,-30 336,-36 330,-36"/>
<text xml:space="preserve" text-anchor="middle" x="315" y="-14.32" font-family="Helvetica,sans-Serif" font-size="9.00">30</text>
</g>
<!-- cm_Advanced_Laser_Focal_Size&#45;&gt;30 -->
<g id="edge5" class="edge">
<title>cm_Advanced_Laser_Focal_Size&#45;&gt;30</title>
<path fill="none" stroke="black" d="M369.2,-71.7C359.77,-62.53 348.07,-51.16 337.96,-41.33"/>
<polygon fill="black" stroke="black" points="339.69,-40.08 333.93,-37.4 336.77,-43.09 339.69,-40.08"/>
</g>
<!-- 35 -->
<g id="node8" class="node">
<title>35</title>
<path fill="lightgrey" stroke="black" d="M402,-36C402,-36 372,-36 372,-36 366,-36 360,-30 360,-24 360,-24 360,-12 360,-12 360,-6 366,0 372,0 372,0 402,0 402,0 408,0 414,-6 414,-12 414,-12 414,-24 414,-24 414,-30 408,-36 402,-36"/>
<text xml:space="preserve" text-anchor="middle" x="387" y="-14.32" font-family="Helvetica,sans-Serif" font-size="9.00">35</text>
</g>
<!-- cm_Advanced_Laser_Focal_Size&#45;&gt;35 -->
<g id="edge6" class="edge">
<title>cm_Advanced_Laser_Focal_Size&#45;&gt;35</title>
<path fill="none" stroke="black" d="M387,-71.7C387,-63.22 387,-52.86 387,-43.58"/>
<polygon fill="black" stroke="black" points="389.1,-43.62 387,-37.62 384.9,-43.62 389.1,-43.62"/>
</g>
<!-- 40 -->
<g id="node9" class="node">
<title>40</title>
<path fill="lightgrey" stroke="black" d="M474,-36C474,-36 444,-36 444,-36 438,-36 432,-30 432,-24 432,-24 432,-12 432,-12 432,-6 438,0 444,0 444,0 474,0 474,0 480,0 486,-6 486,-12 486,-12 486,-24 486,-24 486,-30 480,-36 474,-36"/>
<text xml:space="preserve" text-anchor="middle" x="459" y="-14.32" font-family="Helvetica,sans-Serif" font-size="9.00">40</text>
</g>
<!-- cm_Advanced_Laser_Focal_Size&#45;&gt;40 -->
<g id="edge7" class="edge">
<title>cm_Advanced_Laser_Focal_Size&#45;&gt;40</title>
<path fill="none" stroke="black" d="M404.8,-71.7C414.23,-62.53 425.93,-51.16 436.04,-41.33"/>
<polygon fill="black" stroke="black" points="437.23,-43.09 440.07,-37.4 434.31,-40.08 437.23,-43.09"/>
</g>
<!-- 50 -->
<g id="node10" class="node">
<title>50</title>
<path fill="lightgrey" stroke="black" d="M546,-36C546,-36 516,-36 516,-36 510,-36 504,-30 504,-24 504,-24 504,-12 504,-12 504,-6 510,0 516,0 516,0 546,0 546,0 552,0 558,-6 558,-12 558,-12 558,-24 558,-24 558,-30 552,-36 546,-36"/>
<text xml:space="preserve" text-anchor="middle" x="531" y="-14.32" font-family="Helvetica,sans-Serif" font-size="9.00">50</text>
</g>
<!-- cm_Advanced_Laser_Focal_Size&#45;&gt;50 -->
<g id="edge8" class="edge">
<title>cm_Advanced_Laser_Focal_Size&#45;&gt;50</title>
<path fill="none" stroke="black" d="M422.97,-71.52C445.61,-60.51 474.67,-46.38 496.95,-35.55"/>
<polygon fill="black" stroke="black" points="497.79,-37.48 502.26,-32.97 495.95,-33.7 497.79,-37.48"/>
</g>
<!-- 60 -->
<g id="node11" class="node">
<title>60</title>
<path fill="lightgrey" stroke="black" d="M618,-36C618,-36 588,-36 588,-36 582,-36 576,-30 576,-24 576,-24 576,-12 576,-12 576,-6 582,0 588,0 588,0 618,0 618,0 624,0 630,-6 630,-12 630,-12 630,-24 630,-24 630,-30 624,-36 618,-36"/>
<text xml:space="preserve" text-anchor="middle" x="603" y="-14.32" font-family="Helvetica,sans-Serif" font-size="9.00">60</text>
</g>
<!-- cm_Advanced_Laser_Focal_Size&#45;&gt;60 -->
<g id="edge9" class="edge">
<title>cm_Advanced_Laser_Focal_Size&#45;&gt;60</title>
<path fill="none" stroke="black" d="M455.35,-71.56C489.33,-62.21 530.77,-49.79 567,-36 567.62,-35.76 568.25,-35.52 568.88,-35.27"/>
<polygon fill="black" stroke="black" points="569.54,-37.27 574.28,-33.02 567.93,-33.39 569.54,-37.27"/>
</g>
<!-- 70 -->
<g id="node12" class="node">
<title>70</title>
<path fill="lightgrey" stroke="black" d="M690,-36C690,-36 660,-36 660,-36 654,-36 648,-30 648,-24 648,-24 648,-12 648,-12 648,-6 654,0 660,0 660,0 690,0 690,0 696,0 702,-6 702,-12 702,-12 702,-24 702,-24 702,-30 696,-36 690,-36"/>
<text xml:space="preserve" text-anchor="middle" x="675" y="-14.32" font-family="Helvetica,sans-Serif" font-size="9.00">70</text>
</g>
<!-- cm_Advanced_Laser_Focal_Size&#45;&gt;70 -->
<g id="edge10" class="edge">
<title>cm_Advanced_Laser_Focal_Size&#45;&gt;70</title>
<path fill="none" stroke="black" d="M463.49,-77.7C514.1,-69.07 581.47,-55.33 639,-36 639.63,-35.79 640.26,-35.57 640.9,-35.34"/>
<polygon fill="black" stroke="black" points="641.52,-37.36 646.35,-33.22 639.99,-33.44 641.52,-37.36"/>
</g>
<!-- 80 -->
<g id="node13" class="node">
<title>80</title>
<path fill="lightgrey" stroke="black" d="M762,-36C762,-36 732,-36 732,-36 726,-36 720,-30 720,-24 720,-24 720,-12 720,-12 720,-6 726,0 732,0 732,0 762,0 762,0 768,0 774,-6 774,-12 774,-12 774,-24 774,-24 774,-30 768,-36 762,-36"/>
<text xml:space="preserve" text-anchor="middle" x="747" y="-14.32" font-family="Helvetica,sans-Serif" font-size="9.00">80</text>
</g>
<!-- cm_Advanced_Laser_Focal_Size&#45;&gt;80 -->
<g id="edge11" class="edge">
<title>cm_Advanced_Laser_Focal_Size&#45;&gt;80</title>
<path fill="none" stroke="black" d="M463.67,-82.54C530.21,-75.51 628.55,-61.66 711,-36 711.64,-35.8 712.27,-35.6 712.91,-35.38"/>
<polygon fill="black" stroke="black" points="713.5,-37.4 718.38,-33.34 712.03,-33.47 713.5,-37.4"/>
</g>
</g>
</svg>
