<?xml version="1.0" encoding="UTF-8" standalone="no"?>
<!DOCTYPE svg PUBLIC "-//W3C//DTD SVG 1.1//EN"
 "http://www.w3.org/Graphics/SVG/1.1/DTD/svg11.dtd">
<!-- Generated by graphviz version 14.1.2 (20260124.0452)
 -->
<!-- Title: TechTree Pages: 1 -->
<svg width="875pt" height="125pt"
 viewBox="0.00 0.00 875.00 125.00" xmlns="http://www.w3.org/2000/svg" xmlns:xlink="http://www.w3.org/1999/xlink">
<g id="graph0" class="graph" transform="scale(1 1) rotate(0) translate(4 121)">
<title>TechTree</title>
<polygon fill="white" stroke="none" points="-4,4 -4,-121 870.5,-121 870.5,4 -4,4"/>
<text xml:space="preserve" text-anchor="middle" x="433.25" y="-99.7" font-family="Helvetica,sans-Serif" font-weight="bold" font-size="14.00">Anti&#45;Infantry Weapon</text>
<!-- Light_Personal_Weapon__AP_0_5_ -->
<g id="node1" class="node">
<title>Light_Personal_Weapon__AP_0_5_</title>
<path fill="#d4edda" stroke="black" d="M227.5,-65C227.5,-65 12,-65 12,-65 6,-65 0,-59 0,-53 0,-53 0,-41 0,-41 0,-35 6,-29 12,-29 12,-29 227.5,-29 227.5,-29 233.5,-29 239.5,-35 239.5,-41 239.5,-41 239.5,-53 239.5,-53 239.5,-59 233.5,-65 227.5,-65"/>
<text xml:space="preserve" text-anchor="middle" x="119.75" y="-48.75" font-family="Helvetica,sans-Serif" font-size="10.00">Light Personal Weapon: AP 0.5 DAM 0.5 SHOTS 1</text>
<text xml:space="preserve" text-anchor="middle" x="119.75" y="-37.5" font-family="Helvetica,sans-Serif" font-size="10.00">500 RP</text>
</g>
<!-- Personal_Weapon__AP_1_DAM_1_SH -->
<g id="node2" class="node">
<title>Personal_Weapon__AP_1_DAM_1_SH</title>
<path fill="#cce5ff" stroke="black" d="M497.88,-94C497.88,-94 322.88,-94 322.88,-94 316.88,-94 310.88,-88 310.88,-82 310.88,-82 310.88,-70 310.88,-70 310.88,-64 316.88,-58 322.88,-58 322.88,-58 497.88,-58 497.88,-58 503.88,-58 509.88,-64 509.88,-70 509.88,-70 509.88,-82 509.88,-82 509.88,-88 503.88,-94 497.88,-94"/>
<text xml:space="preserve" text-anchor="middle" x="410.38" y="-77.75" font-family="Helvetica,sans-Serif" font-size="10.00">Personal Weapon: AP 1 DAM 1 SHOTS 1</text>
<text xml:space="preserve" text-anchor="middle" x="410.38" y="-66.5" font-family="Helvetica,sans-Serif" font-size="10.00">1K RP</text>
</g>
<!-- Light_Personal_Weapon__AP_0_5_&#45;&gt;Personal_Weapon__AP_1_DAM_1_SH -->
<g id="edge1" class="edge">
<title>Light_Personal_Weapon__AP_0_5_&#45;&gt;Personal_Weapon__AP_1_DAM_1_SH</title>
<path fill="none" stroke="black" d="M239.81,-58.96C260.56,-61.05 282.02,-63.2 302.41,-65.25"/>
<polygon fill="black" stroke="black" points="302.06,-67.68 309.27,-65.94 302.55,-62.8 302.06,-67.68"/>
</g>
<!-- Crew_Served_Anti_Personnel_Wea -->
<g id="node3" class="node">
<title>Crew_Served_Anti_Personnel_Wea</title>
<path fill="#cce5ff" stroke="black" d="M540.25,-36C540.25,-36 280.5,-36 280.5,-36 274.5,-36 268.5,-30 268.5,-24 268.5,-24 268.5,-12 268.5,-12 268.5,-6 274.5,0 280.5,0 280.5,0 540.25,0 540.25,0 546.25,0 552.25,-6 552.25,-12 552.25,-12 552.25,-24 552.25,-24 552.25,-30 546.25,-36 540.25,-36"/>
<text xml:space="preserve" text-anchor="middle" x="410.38" y="-19.75" font-family="Helvetica,sans-Serif" font-size="10.00">Crew&#45;Served Anti&#45;Personnel Weapon: AP 1 DAM 1 SHOTS 6</text>
<text xml:space="preserve" text-anchor="middle" x="410.38" y="-8.5" font-family="Helvetica,sans-Serif" font-size="10.00">2K RP</text>
</g>
<!-- Light_Personal_Weapon__AP_0_5_&#45;&gt;Crew_Served_Anti_Personnel_Wea -->
<g id="edge2" class="edge">
<title>Light_Personal_Weapon__AP_0_5_&#45;&gt;Crew_Served_Anti_Personnel_Wea</title>
<path fill="none" stroke="black" d="M239.81,-35.04C246.36,-34.38 252.98,-33.71 259.62,-33.05"/>
<polygon fill="black" stroke="black" points="259.81,-35.49 266.53,-32.35 259.32,-30.61 259.81,-35.49"/>
</g>
<!-- Improved_Personal_Weapon__AP_1 -->
<g id="node4" class="node">
<title>Improved_Personal_Weapon__AP_1</title>
<path fill="#cce5ff" stroke="black" d="M846.62,-94C846.62,-94 601.12,-94 601.12,-94 595.12,-94 589.12,-88 589.12,-82 589.12,-82 589.12,-70 589.12,-70 589.12,-64 595.12,-58 601.12,-58 601.12,-58 846.62,-58 846.62,-58 852.62,-58 858.62,-64 858.62,-70 858.62,-70 858.62,-82 858.62,-82 858.62,-88 852.62,-94 846.62,-94"/>
<text xml:space="preserve" text-anchor="middle" x="723.88" y="-77.75" font-family="Helvetica,sans-Serif" font-size="10.00">Improved Personal Weapon: AP 1.25 DAM 1.25 SHOTS 1</text>
<text xml:space="preserve" text-anchor="middle" x="723.88" y="-66.5" font-family="Helvetica,sans-Serif" font-size="10.00">2K RP</text>
</g>
<!-- Personal_Weapon__AP_1_DAM_1_SH&#45;&gt;Improved_Personal_Weapon__AP_1 -->
<g id="edge3" class="edge">
<title>Personal_Weapon__AP_1_DAM_1_SH&#45;&gt;Improved_Personal_Weapon__AP_1</title>
<path fill="none" stroke="black" d="M510.36,-76C532.67,-76 556.78,-76 580.48,-76"/>
<polygon fill="black" stroke="black" points="580.33,-78.45 587.33,-76 580.33,-73.55 580.33,-78.45"/>
</g>
<!-- Heavy_Crew_Served_Anti_Personn -->
<g id="node5" class="node">
<title>Heavy_Crew_Served_Anti_Personn</title>
<path fill="#cce5ff" stroke="black" d="M854.5,-36C854.5,-36 593.25,-36 593.25,-36 587.25,-36 581.25,-30 581.25,-24 581.25,-24 581.25,-12 581.25,-12 581.25,-6 587.25,0 593.25,0 593.25,0 854.5,0 854.5,0 860.5,0 866.5,-6 866.5,-12 866.5,-12 866.5,-24 866.5,-24 866.5,-30 860.5,-36 854.5,-36"/>
<text xml:space="preserve" text-anchor="middle" x="723.88" y="-19.75" font-family="Helvetica,sans-Serif" font-size="10.00">Heavy Crew&#45;Served Anti&#45;Personnel: AP 1.5 DAM 1 SHOTS 6</text>
<text xml:space="preserve" text-anchor="middle" x="723.88" y="-8.5" font-family="Helvetica,sans-Serif" font-size="10.00">2K RP</text>
</g>
<!-- Crew_Served_Anti_Personnel_Wea&#45;&gt;Heavy_Crew_Served_Anti_Personn -->
<g id="edge4" class="edge">
<title>Crew_Served_Anti_Personnel_Wea&#45;&gt;Heavy_Crew_Served_Anti_Personn</title>
<path fill="none" stroke="black" d="M552.54,-18C559.22,-18 565.93,-18 572.63,-18"/>
<polygon fill="black" stroke="black" points="572.6,-20.45 579.6,-18 572.6,-15.55 572.6,-20.45"/>
</g>
</g>
</svg>
