<?xml version="1.0" encoding="UTF-8" standalone="no"?>
<!DOCTYPE svg PUBLIC "-//W3C//DTD SVG 1.1//EN"
 "http://www.w3.org/Graphics/SVG/1.1/DTD/svg11.dtd">
<!-- Generated by graphviz version 14.1.2 (20260124.0452)
 -->
<!-- Title: TechTree Pages: 1 -->
<svg width="254pt" height="281pt"
 viewBox="0.00 0.00 254.00 281.00" xmlns="http://www.w3.org/2000/svg" xmlns:xlink="http://www.w3.org/1999/xlink">
<g id="graph0" class="graph" transform="scale(1 1) rotate(0) translate(4 276.75)">
<title>TechTree</title>
<polygon fill="white" stroke="none" points="-4,4 -4,-276.75 250.25,-276.75 250.25,4 -4,4"/>
<text xml:space="preserve" text-anchor="middle" x="123.12" y="-257.35" font-family="Helvetica,sans-Serif" font-weight="bold" font-size="12.00">Anti&#45;Vehicle Weapon</text>
<!-- Light_Anti_Vehicle_Weapon__AP_ -->
<g id="node1" class="node">
<title>Light_Anti_Vehicle_Weapon__AP_</title>
<path fill="#cce5ff" stroke="black" d="M217.38,-252C217.38,-252 28.88,-252 28.88,-252 22.87,-252 16.88,-246 16.88,-240 16.88,-240 16.88,-228 16.88,-228 16.88,-222 22.88,-216 28.88,-216 28.88,-216 217.38,-216 217.38,-216 223.38,-216 229.38,-222 229.38,-228 229.38,-228 229.38,-240 229.38,-240 229.38,-246 223.38,-252 217.38,-252"/>
<text xml:space="preserve" text-anchor="middle" x="123.12" y="-235.2" font-family="Helvetica,sans-Serif" font-size="9.00">Light Anti&#45;Vehicle Weapon: AP 2 DAM 6 SHOT 1</text>
<text xml:space="preserve" text-anchor="middle" x="123.12" y="-225.45" font-family="Helvetica,sans-Serif" font-size="9.00">600 RP</text>
</g>
<!-- Medium_Anti_Vehicle_Weapon__AP -->
<g id="node2" class="node">
<title>Medium_Anti_Vehicle_Weapon__AP</title>
<path fill="#cce5ff" stroke="black" d="M223.75,-180C223.75,-180 22.5,-180 22.5,-180 16.5,-180 10.5,-174 10.5,-168 10.5,-168 10.5,-156 10.5,-156 10.5,-150 16.5,-144 22.5,-144 22.5,-144 223.75,-144 223.75,-144 229.75,-144 235.75,-150 235.75,-156 235.75,-156 235.75,-168 235.75,-168 235.75,-174 229.75,-180 223.75,-180"/>
<text xml:space="preserve" text-anchor="middle" x="123.12" y="-163.2" font-family="Helvetica,sans-Serif" font-size="9.00">Medium Anti&#45;Vehicle Weapon: AP 4 DAM 4 SHOT 1</text>
<text xml:space="preserve" text-anchor="middle" x="123.12" y="-153.45" font-family="Helvetica,sans-Serif" font-size="9.00">1K RP</text>
</g>
<!-- Light_Anti_Vehicle_Weapon__AP_&#45;&gt;Medium_Anti_Vehicle_Weapon__AP -->
<g id="edge1" class="edge">
<title>Light_Anti_Vehicle_Weapon__AP_&#45;&gt;Medium_Anti_Vehicle_Weapon__AP</title>
<path fill="none" stroke="black" d="M123.12,-215.7C123.12,-207.22 123.12,-196.86 123.12,-187.58"/>
<polygon fill="black" stroke="black" points="125.23,-187.62 123.13,-181.62 121.03,-187.62 125.23,-187.62"/>
</g>
<!-- Heavy_Anti_Vehicle_Weapon__AP_ -->
<g id="node3" class="node">
<title>Heavy_Anti_Vehicle_Weapon__AP_</title>
<path fill="#cce5ff" stroke="black" d="M220.38,-108C220.38,-108 25.88,-108 25.88,-108 19.88,-108 13.87,-102 13.87,-96 13.87,-96 13.87,-84 13.87,-84 13.87,-78 19.87,-72 25.87,-72 25.87,-72 220.37,-72 220.37,-72 226.37,-72 232.38,-78 232.38,-84 232.38,-84 232.38,-96 232.38,-96 232.38,-102 226.38,-108 220.38,-108"/>
<text xml:space="preserve" text-anchor="middle" x="123.12" y="-91.2" font-family="Helvetica,sans-Serif" font-size="9.00">Heavy Anti&#45;Vehicle Weapon: AP 6 DAM 6 SHOT 1</text>
<text xml:space="preserve" text-anchor="middle" x="123.12" y="-81.45" font-family="Helvetica,sans-Serif" font-size="9.00">2K RP</text>
</g>
<!-- Medium_Anti_Vehicle_Weapon__AP&#45;&gt;Heavy_Anti_Vehicle_Weapon__AP_ -->
<g id="edge2" class="edge">
<title>Medium_Anti_Vehicle_Weapon__AP&#45;&gt;Heavy_Anti_Vehicle_Weapon__AP_</title>
<path fill="none" stroke="black" d="M123.12,-143.7C123.12,-135.22 123.12,-124.86 123.12,-115.58"/>
<polygon fill="black" stroke="black" points="125.23,-115.62 123.13,-109.62 121.03,-115.62 125.23,-115.62"/>
</g>
<!-- Super_Heavy_Anti_Vehicle_Weapo -->
<g id="node4" class="node">
<title>Super_Heavy_Anti_Vehicle_Weapo</title>
<path fill="#cce5ff" stroke="black" d="M234.25,-36C234.25,-36 12,-36 12,-36 6,-36 0,-30 0,-24 0,-24 0,-12 0,-12 0,-6 6,0 12,0 12,0 234.25,0 234.25,0 240.25,0 246.25,-6 246.25,-12 246.25,-12 246.25,-24 246.25,-24 246.25,-30 240.25,-36 234.25,-36"/>
<text xml:space="preserve" text-anchor="middle" x="123.12" y="-19.2" font-family="Helvetica,sans-Serif" font-size="9.00">Super&#45;Heavy Anti&#45;Vehicle Weapon: AP 9 DAM 9 SHOT 1</text>
<text xml:space="preserve" text-anchor="middle" x="123.12" y="-9.45" font-family="Helvetica,sans-Serif" font-size="9.00">5K RP</text>
</g>
<!-- Heavy_Anti_Vehicle_Weapon__AP_&#45;&gt;Super_Heavy_Anti_Vehicle_Weapo -->
<g id="edge3" class="edge">
<title>Heavy_Anti_Vehicle_Weapon__AP_&#45;&gt;Super_Heavy_Anti_Vehicle_Weapo</title>
<path fill="none" stroke="black" d="M123.12,-71.7C123.12,-63.22 123.12,-52.86 123.12,-43.58"/>
<polygon fill="black" stroke="black" points="125.23,-43.62 123.13,-37.62 121.03,-43.62 125.23,-43.62"/>
</g>
</g>
</svg>
