<?xml version="1.0" encoding="UTF-8" standalone="no"?>
<!DOCTYPE svg PUBLIC "-//W3C//DTD SVG 1.1//EN"
 "http://www.w3.org/Graphics/SVG/1.1/DTD/svg11.dtd">
<!-- Generated by graphviz version 14.1.2 (20260124.0452)
 -->
<!-- Title: TechTree Pages: 1 -->
<svg width="540pt" height="209pt"
 viewBox="0.00 0.00 540.00 209.00" xmlns="http://www.w3.org/2000/svg" xmlns:xlink="http://www.w3.org/1999/xlink">
<g id="graph0" class="graph" transform="scale(1 1) rotate(0) translate(4 204.75)">
<title>TechTree</title>
<polygon fill="white" stroke="none" points="-4,4 -4,-204.75 535.75,-204.75 535.75,4 -4,4"/>
<text xml:space="preserve" text-anchor="middle" x="265.88" y="-185.35" font-family="Helvetica,sans-Serif" font-weight="bold" font-size="12.00">Anti&#45;Infantry Weapon</text>
<!-- Light_Personal_Weapon__AP_0_5_ -->
<g id="node1" class="node">
<title>Light_Personal_Weapon__AP_0_5_</title>
<path fill="#d4edda" stroke="black" d="M360.75,-180C360.75,-180 163.25,-180 163.25,-180 157.25,-180 151.25,-174 151.25,-168 151.25,-168 151.25,-156 151.25,-156 151.25,-150 157.25,-144 163.25,-144 163.25,-144 360.75,-144 360.75,-144 366.75,-144 372.75,-150 372.75,-156 372.75,-156 372.75,-168 372.75,-168 372.75,-174 366.75,-180 360.75,-180"/>
<text xml:space="preserve" text-anchor="middle" x="262" y="-163.2" font-family="Helvetica,sans-Serif" font-size="9.00">Light Personal Weapon: AP 0.5 DAM 0.5 SHOTS 1</text>
<text xml:space="preserve" text-anchor="middle" x="262" y="-153.45" font-family="Helvetica,sans-Serif" font-size="9.00">500 RP</text>
</g>
<!-- Personal_Weapon__AP_1_DAM_1_SH -->
<g id="node2" class="node">
<title>Personal_Weapon__AP_1_DAM_1_SH</title>
<path fill="#cce5ff" stroke="black" d="M221,-108C221,-108 61,-108 61,-108 55,-108 49,-102 49,-96 49,-96 49,-84 49,-84 49,-78 55,-72 61,-72 61,-72 221,-72 221,-72 227,-72 233,-78 233,-84 233,-84 233,-96 233,-96 233,-102 227,-108 221,-108"/>
<text xml:space="preserve" text-anchor="middle" x="141" y="-91.2" font-family="Helvetica,sans-Serif" font-size="9.00">Personal Weapon: AP 1 DAM 1 SHOTS 1</text>
<text xml:space="preserve" text-anchor="middle" x="141" y="-81.45" font-family="Helvetica,sans-Serif" font-size="9.00">1K RP</text>
</g>
<!-- Light_Personal_Weapon__AP_0_5_&#45;&gt;Personal_Weapon__AP_1_DAM_1_SH -->
<g id="edge1" class="edge">
<title>Light_Personal_Weapon__AP_0_5_&#45;&gt;Personal_Weapon__AP_1_DAM_1_SH</title>
<path fill="none" stroke="black" d="M231.78,-143.52C215.2,-133.92 194.52,-121.96 177.1,-111.88"/>
<polygon fill="black" stroke="black" points="178.39,-110.21 172.15,-109.02 176.29,-113.84 178.39,-110.21"/>
</g>
<!-- Crew_Served_Anti_Personnel_Wea -->
<g id="node3" class="node">
<title>Crew_Served_Anti_Personnel_Wea</title>
<path fill="#cce5ff" stroke="black" d="M511.12,-108C511.12,-108 270.88,-108 270.88,-108 264.88,-108 258.88,-102 258.88,-96 258.88,-96 258.88,-84 258.88,-84 258.88,-78 264.88,-72 270.88,-72 270.88,-72 511.12,-72 511.12,-72 517.12,-72 523.12,-78 523.12,-84 523.12,-84 523.12,-96 523.12,-96 523.12,-102 517.12,-108 511.12,-108"/>
<text xml:space="preserve" text-anchor="middle" x="391" y="-91.2" font-family="Helvetica,sans-Serif" font-size="9.00">Crew&#45;Served Anti&#45;Personnel Weapon: AP 1 DAM 1 SHOTS 6</text>
<text xml:space="preserve" text-anchor="middle" x="391" y="-81.45" font-family="Helvetica,sans-Serif" font-size="9.00">2K RP</text>
</g>
<!-- Light_Personal_Weapon__AP_0_5_&#45;&gt;Crew_Served_Anti_Personnel_Wea -->
<g id="edge2" class="edge">
<title>Light_Personal_Weapon__AP_0_5_&#45;&gt;Crew_Served_Anti_Personnel_Wea</title>
<path fill="none" stroke="black" d="M294.22,-143.52C312.05,-133.84 334.33,-121.75 353.01,-111.62"/>
<polygon fill="black" stroke="black" points="353.59,-113.69 357.86,-108.98 351.59,-110 353.59,-113.69"/>
</g>
<!-- Improved_Personal_Weapon__AP_1 -->
<g id="node4" class="node">
<title>Improved_Personal_Weapon__AP_1</title>
<path fill="#cce5ff" stroke="black" d="M238,-36C238,-36 12,-36 12,-36 6,-36 0,-30 0,-24 0,-24 0,-12 0,-12 0,-6 6,0 12,0 12,0 238,0 238,0 244,0 250,-6 250,-12 250,-12 250,-24 250,-24 250,-30 244,-36 238,-36"/>
<text xml:space="preserve" text-anchor="middle" x="125" y="-19.2" font-family="Helvetica,sans-Serif" font-size="9.00">Improved Personal Weapon: AP 1.25 DAM 1.25 SHOTS 1</text>
<text xml:space="preserve" text-anchor="middle" x="125" y="-9.45" font-family="Helvetica,sans-Serif" font-size="9.00">2K RP</text>
</g>
<!-- Personal_Weapon__AP_1_DAM_1_SH&#45;&gt;Improved_Personal_Weapon__AP_1 -->
<g id="edge3" class="edge">
<title>Personal_Weapon__AP_1_DAM_1_SH&#45;&gt;Improved_Personal_Weapon__AP_1</title>
<path fill="none" stroke="black" d="M137.04,-71.7C135.09,-63.14 132.69,-52.66 130.56,-43.3"/>
<polygon fill="black" stroke="black" points="132.63,-42.96 129.25,-37.58 128.54,-43.9 132.63,-42.96"/>
</g>
<!-- Heavy_Crew_Served_Anti_Personn -->
<g id="node5" class="node">
<title>Heavy_Crew_Served_Anti_Personn</title>
<path fill="#cce5ff" stroke="black" d="M519.75,-36C519.75,-36 280.25,-36 280.25,-36 274.25,-36 268.25,-30 268.25,-24 268.25,-24 268.25,-12 268.25,-12 268.25,-6 274.25,0 280.25,0 280.25,0 519.75,0 519.75,0 525.75,0 531.75,-6 531.75,-12 531.75,-12 531.75,-24 531.75,-24 531.75,-30 525.75,-36 519.75,-36"/>
<text xml:space="preserve" text-anchor="middle" x="400" y="-19.2" font-family="Helvetica,sans-Serif" font-size="9.00">Heavy Crew&#45;Served Anti&#45;Personnel: AP 1.5 DAM 1 SHOTS 6</text>
<text xml:space="preserve" text-anchor="middle" x="400" y="-9.45" font-family="Helvetica,sans-Serif" font-size="9.00">2K RP</text>
</g>
<!-- Crew_Served_Anti_Personnel_Wea&#45;&gt;Heavy_Crew_Served_Anti_Personn -->
<g id="edge4" class="edge">
<title>Crew_Served_Anti_Personnel_Wea&#45;&gt;Heavy_Crew_Served_Anti_Personn</title>
<path fill="none" stroke="black" d="M393.22,-71.7C394.33,-63.14 395.67,-52.66 396.88,-43.3"/>
<polygon fill="black" stroke="black" points="398.93,-43.82 397.61,-37.61 394.76,-43.29 398.93,-43.82"/>
</g>
</g>
</svg>
