<?xml version="1.0" encoding="UTF-8" standalone="no"?>
<!DOCTYPE svg PUBLIC "-//W3C//DTD SVG 1.1//EN"
 "http://www.w3.org/Graphics/SVG/1.1/DTD/svg11.dtd">
<!-- Generated by graphviz version 14.1.2 (20260124.0452)
 -->
<!-- Title: TechTree Pages: 1 -->
<svg width="1071pt" height="67pt"
 viewBox="0.00 0.00 1071.00 67.00" xmlns="http://www.w3.org/2000/svg" xmlns:xlink="http://www.w3.org/1999/xlink">
<g id="graph0" class="graph" transform="scale(1 1) rotate(0) translate(4 63)">
<title>TechTree</title>
<polygon fill="white" stroke="none" points="-4,4 -4,-63 1067,-63 1067,4 -4,4"/>
<text xml:space="preserve" text-anchor="middle" x="531.5" y="-41.7" font-family="Helvetica,sans-Serif" font-weight="bold" font-size="14.00">Anti&#45;Vehicle Weapon</text>
<!-- Light_Anti_Vehicle_Weapon__AP_ -->
<g id="node1" class="node">
<title>Light_Anti_Vehicle_Weapon__AP_</title>
<path fill="#cce5ff" stroke="black" d="M217.75,-36C217.75,-36 12,-36 12,-36 6,-36 0,-30 0,-24 0,-24 0,-12 0,-12 0,-6 6,0 12,0 12,0 217.75,0 217.75,0 223.75,0 229.75,-6 229.75,-12 229.75,-12 229.75,-24 229.75,-24 229.75,-30 223.75,-36 217.75,-36"/>
<text xml:space="preserve" text-anchor="middle" x="114.88" y="-19.75" font-family="Helvetica,sans-Serif" font-size="10.00">Light Anti&#45;Vehicle Weapon: AP 2 DAM 6 SHOT 1</text>
<text xml:space="preserve" text-anchor="middle" x="114.88" y="-8.5" font-family="Helvetica,sans-Serif" font-size="10.00">600 RP</text>
</g>
<!-- Medium_Anti_Vehicle_Weapon__AP -->
<g id="node2" class="node">
<title>Medium_Anti_Vehicle_Weapon__AP</title>
<path fill="#cce5ff" stroke="black" d="M490,-36C490,-36 270.75,-36 270.75,-36 264.75,-36 258.75,-30 258.75,-24 258.75,-24 258.75,-12 258.75,-12 258.75,-6 264.75,0 270.75,0 270.75,0 490,0 490,0 496,0 502,-6 502,-12 502,-12 502,-24 502,-24 502,-30 496,-36 490,-36"/>
<text xml:space="preserve" text-anchor="middle" x="380.38" y="-19.75" font-family="Helvetica,sans-Serif" font-size="10.00">Medium Anti&#45;Vehicle Weapon: AP 4 DAM 4 SHOT 1</text>
<text xml:space="preserve" text-anchor="middle" x="380.38" y="-8.5" font-family="Helvetica,sans-Serif" font-size="10.00">1K RP</text>
</g>
<!-- Light_Anti_Vehicle_Weapon__AP_&#45;&gt;Medium_Anti_Vehicle_Weapon__AP -->
<g id="edge1" class="edge">
<title>Light_Anti_Vehicle_Weapon__AP_&#45;&gt;Medium_Anti_Vehicle_Weapon__AP</title>
<path fill="none" stroke="black" d="M229.92,-18C236.57,-18 243.28,-18 249.98,-18"/>
<polygon fill="black" stroke="black" points="249.95,-20.45 256.95,-18 249.95,-15.55 249.95,-20.45"/>
</g>
<!-- Heavy_Anti_Vehicle_Weapon__AP_ -->
<g id="node3" class="node">
<title>Heavy_Anti_Vehicle_Weapon__AP_</title>
<path fill="#cce5ff" stroke="black" d="M756.25,-36C756.25,-36 543,-36 543,-36 537,-36 531,-30 531,-24 531,-24 531,-12 531,-12 531,-6 537,0 543,0 543,0 756.25,0 756.25,0 762.25,0 768.25,-6 768.25,-12 768.25,-12 768.25,-24 768.25,-24 768.25,-30 762.25,-36 756.25,-36"/>
<text xml:space="preserve" text-anchor="middle" x="649.62" y="-19.75" font-family="Helvetica,sans-Serif" font-size="10.00">Heavy Anti&#45;Vehicle Weapon: AP 6 DAM 6 SHOT 1</text>
<text xml:space="preserve" text-anchor="middle" x="649.62" y="-8.5" font-family="Helvetica,sans-Serif" font-size="10.00">2K RP</text>
</g>
<!-- Medium_Anti_Vehicle_Weapon__AP&#45;&gt;Heavy_Anti_Vehicle_Weapon__AP_ -->
<g id="edge2" class="edge">
<title>Medium_Anti_Vehicle_Weapon__AP&#45;&gt;Heavy_Anti_Vehicle_Weapon__AP_</title>
<path fill="none" stroke="black" d="M502.49,-18C509.09,-18 515.74,-18 522.36,-18"/>
<polygon fill="black" stroke="black" points="522.21,-20.45 529.21,-18 522.21,-15.55 522.21,-20.45"/>
</g>
<!-- Super_Heavy_Anti_Vehicle_Weapo -->
<g id="node4" class="node">
<title>Super_Heavy_Anti_Vehicle_Weapo</title>
<path fill="#cce5ff" stroke="black" d="M1051,-36C1051,-36 809.25,-36 809.25,-36 803.25,-36 797.25,-30 797.25,-24 797.25,-24 797.25,-12 797.25,-12 797.25,-6 803.25,0 809.25,0 809.25,0 1051,0 1051,0 1057,0 1063,-6 1063,-12 1063,-12 1063,-24 1063,-24 1063,-30 1057,-36 1051,-36"/>
<text xml:space="preserve" text-anchor="middle" x="930.12" y="-19.75" font-family="Helvetica,sans-Serif" font-size="10.00">Super&#45;Heavy Anti&#45;Vehicle Weapon: AP 9 DAM 9 SHOT 1</text>
<text xml:space="preserve" text-anchor="middle" x="930.12" y="-8.5" font-family="Helvetica,sans-Serif" font-size="10.00">5K RP</text>
</g>
<!-- Heavy_Anti_Vehicle_Weapon__AP_&#45;&gt;Super_Heavy_Anti_Vehicle_Weapo -->
<g id="edge3" class="edge">
<title>Heavy_Anti_Vehicle_Weapon__AP_&#45;&gt;Super_Heavy_Anti_Vehicle_Weapo</title>
<path fill="none" stroke="black" d="M768.73,-18C775.3,-18 781.93,-18 788.57,-18"/>
<polygon fill="black" stroke="black" points="788.46,-20.45 795.46,-18 788.46,-15.55 788.46,-20.45"/>
</g>
</g>
</svg>
