<?xml version="1.0" encoding="UTF-8" standalone="no"?>
<!DOCTYPE svg PUBLIC "-//W3C//DTD SVG 1.1//EN"
 "http://www.w3.org/Graphics/SVG/1.1/DTD/svg11.dtd">
<!-- Generated by graphviz version 14.1.2 (20260124.0452)
 -->
<!-- Title: TechTree Pages: 1 -->
<svg width="281pt" height="977pt"
 viewBox="0.00 0.00 281.00 977.00" xmlns="http://www.w3.org/2000/svg" xmlns:xlink="http://www.w3.org/1999/xlink">
<g id="graph0" class="graph" transform="scale(1 1) rotate(0) translate(4 973)">
<title>TechTree</title>
<polygon fill="white" stroke="none" points="-4,4 -4,-973 276.75,-973 276.75,4 -4,4"/>
<text xml:space="preserve" text-anchor="middle" x="136.38" y="-951.7" font-family="Helvetica,sans-Serif" font-weight="bold" font-size="14.00">Armour</text>
<!-- Structural_Shell -->
<g id="node1" class="node">
<title>Structural_Shell</title>
<path fill="#d4edda" stroke="black" d="M70.75,-946C70.75,-946 12,-946 12,-946 6,-946 0,-940 0,-934 0,-934 0,-922 0,-922 0,-916 6,-910 12,-910 12,-910 70.75,-910 70.75,-910 76.75,-910 82.75,-916 82.75,-922 82.75,-922 82.75,-934 82.75,-934 82.75,-940 76.75,-946 70.75,-946"/>
<text xml:space="preserve" text-anchor="middle" x="41.38" y="-929.75" font-family="Helvetica,sans-Serif" font-size="10.00">Structural Shell</text>
<text xml:space="preserve" text-anchor="middle" x="41.38" y="-918.5" font-family="Helvetica,sans-Serif" font-size="10.00">50 RP</text>
</g>
<!-- Conventional_Steel_Armour -->
<g id="node2" class="node">
<title>Conventional_Steel_Armour</title>
<path fill="#d4edda" stroke="black" d="M225.5,-946C225.5,-946 117.25,-946 117.25,-946 111.25,-946 105.25,-940 105.25,-934 105.25,-934 105.25,-922 105.25,-922 105.25,-916 111.25,-910 117.25,-910 117.25,-910 225.5,-910 225.5,-910 231.5,-910 237.5,-916 237.5,-922 237.5,-922 237.5,-934 237.5,-934 237.5,-940 231.5,-946 225.5,-946"/>
<text xml:space="preserve" text-anchor="middle" x="171.38" y="-929.75" font-family="Helvetica,sans-Serif" font-size="10.00">Conventional Steel Armour</text>
<text xml:space="preserve" text-anchor="middle" x="171.38" y="-918.5" font-family="Helvetica,sans-Serif" font-size="10.00">125 RP</text>
</g>
<!-- Conventional_Composite_Armour -->
<g id="node3" class="node">
<title>Conventional_Composite_Armour</title>
<path fill="#d4edda" stroke="black" d="M237.88,-881C237.88,-881 104.88,-881 104.88,-881 98.88,-881 92.88,-875 92.88,-869 92.88,-869 92.88,-857 92.88,-857 92.88,-851 98.88,-845 104.88,-845 104.88,-845 237.88,-845 237.88,-845 243.88,-845 249.88,-851 249.88,-857 249.88,-857 249.88,-869 249.88,-869 249.88,-875 243.88,-881 237.88,-881"/>
<text xml:space="preserve" text-anchor="middle" x="171.38" y="-864.75" font-family="Helvetica,sans-Serif" font-size="10.00">Conventional Composite Armour</text>
<text xml:space="preserve" text-anchor="middle" x="171.38" y="-853.5" font-family="Helvetica,sans-Serif" font-size="10.00">250 RP</text>
</g>
<!-- Conventional_Steel_Armour&#45;&gt;Conventional_Composite_Armour -->
<g id="edge1" class="edge">
<title>Conventional_Steel_Armour&#45;&gt;Conventional_Composite_Armour</title>
<path fill="none" stroke="black" d="M171.38,-909.78C171.38,-903.53 171.38,-896.33 171.38,-889.52"/>
<polygon fill="black" stroke="black" points="173.83,-889.71 171.38,-882.71 168.93,-889.71 173.83,-889.71"/>
</g>
<!-- Conventional_Advanced_Composit -->
<g id="node4" class="node">
<title>Conventional_Advanced_Composit</title>
<path fill="#d4edda" stroke="black" d="M260.75,-816C260.75,-816 82,-816 82,-816 76,-816 70,-810 70,-804 70,-804 70,-792 70,-792 70,-786 76,-780 82,-780 82,-780 260.75,-780 260.75,-780 266.75,-780 272.75,-786 272.75,-792 272.75,-792 272.75,-804 272.75,-804 272.75,-810 266.75,-816 260.75,-816"/>
<text xml:space="preserve" text-anchor="middle" x="171.38" y="-799.75" font-family="Helvetica,sans-Serif" font-size="10.00">Conventional Advanced Composite Armour</text>
<text xml:space="preserve" text-anchor="middle" x="171.38" y="-788.5" font-family="Helvetica,sans-Serif" font-size="10.00">375 RP</text>
</g>
<!-- Conventional_Composite_Armour&#45;&gt;Conventional_Advanced_Composit -->
<g id="edge2" class="edge">
<title>Conventional_Composite_Armour&#45;&gt;Conventional_Advanced_Composit</title>
<path fill="none" stroke="black" d="M171.38,-844.78C171.38,-838.53 171.38,-831.33 171.38,-824.52"/>
<polygon fill="black" stroke="black" points="173.83,-824.71 171.38,-817.71 168.93,-824.71 173.83,-824.71"/>
</g>
<!-- Duranium_Armour -->
<g id="node5" class="node">
<title>Duranium_Armour</title>
<path fill="#d4edda" stroke="black" d="M205.25,-751C205.25,-751 137.5,-751 137.5,-751 131.5,-751 125.5,-745 125.5,-739 125.5,-739 125.5,-727 125.5,-727 125.5,-721 131.5,-715 137.5,-715 137.5,-715 205.25,-715 205.25,-715 211.25,-715 217.25,-721 217.25,-727 217.25,-727 217.25,-739 217.25,-739 217.25,-745 211.25,-751 205.25,-751"/>
<text xml:space="preserve" text-anchor="middle" x="171.38" y="-734.75" font-family="Helvetica,sans-Serif" font-size="10.00">Duranium Armour</text>
<text xml:space="preserve" text-anchor="middle" x="171.38" y="-723.5" font-family="Helvetica,sans-Serif" font-size="10.00">500 RP</text>
</g>
<!-- Conventional_Advanced_Composit&#45;&gt;Duranium_Armour -->
<g id="edge3" class="edge">
<title>Conventional_Advanced_Composit&#45;&gt;Duranium_Armour</title>
<path fill="none" stroke="black" d="M171.38,-779.78C171.38,-773.53 171.38,-766.33 171.38,-759.52"/>
<polygon fill="black" stroke="black" points="173.83,-759.71 171.38,-752.71 168.93,-759.71 173.83,-759.71"/>
</g>
<!-- High_Density_Duranium_Armour -->
<g id="node6" class="node">
<title>High_Density_Duranium_Armour</title>
<path fill="#cce5ff" stroke="black" d="M235.25,-686C235.25,-686 107.5,-686 107.5,-686 101.5,-686 95.5,-680 95.5,-674 95.5,-674 95.5,-662 95.5,-662 95.5,-656 101.5,-650 107.5,-650 107.5,-650 235.25,-650 235.25,-650 241.25,-650 247.25,-656 247.25,-662 247.25,-662 247.25,-674 247.25,-674 247.25,-680 241.25,-686 235.25,-686"/>
<text xml:space="preserve" text-anchor="middle" x="171.38" y="-669.75" font-family="Helvetica,sans-Serif" font-size="10.00">High Density Duranium Armour</text>
<text xml:space="preserve" text-anchor="middle" x="171.38" y="-658.5" font-family="Helvetica,sans-Serif" font-size="10.00">2K RP</text>
</g>
<!-- Duranium_Armour&#45;&gt;High_Density_Duranium_Armour -->
<g id="edge4" class="edge">
<title>Duranium_Armour&#45;&gt;High_Density_Duranium_Armour</title>
<path fill="none" stroke="black" d="M163.93,-714.78C163.17,-708.53 162.95,-701.33 163.26,-694.52"/>
<polygon fill="black" stroke="black" points="165.69,-694.88 163.81,-687.7 160.8,-694.48 165.69,-694.88"/>
</g>
<!-- Duranium_Armour&#45;&gt;High_Density_Duranium_Armour -->
<g id="edge5" class="edge">
<title>Duranium_Armour&#45;&gt;High_Density_Duranium_Armour</title>
<path fill="none" stroke="black" d="M178.82,-714.78C179.58,-708.53 179.8,-701.33 179.49,-694.52"/>
<polygon fill="black" stroke="black" points="181.95,-694.48 178.94,-687.7 177.06,-694.88 181.95,-694.48"/>
</g>
<!-- Composite_Armour -->
<g id="node7" class="node">
<title>Composite_Armour</title>
<path fill="#cce5ff" stroke="black" d="M207.88,-621C207.88,-621 134.88,-621 134.88,-621 128.88,-621 122.88,-615 122.88,-609 122.88,-609 122.88,-597 122.88,-597 122.88,-591 128.88,-585 134.88,-585 134.88,-585 207.88,-585 207.88,-585 213.88,-585 219.88,-591 219.88,-597 219.88,-597 219.88,-609 219.88,-609 219.88,-615 213.88,-621 207.88,-621"/>
<text xml:space="preserve" text-anchor="middle" x="171.38" y="-604.75" font-family="Helvetica,sans-Serif" font-size="10.00">Composite Armour</text>
<text xml:space="preserve" text-anchor="middle" x="171.38" y="-593.5" font-family="Helvetica,sans-Serif" font-size="10.00">5K RP</text>
</g>
<!-- High_Density_Duranium_Armour&#45;&gt;Composite_Armour -->
<g id="edge6" class="edge">
<title>High_Density_Duranium_Armour&#45;&gt;Composite_Armour</title>
<path fill="none" stroke="black" d="M171.38,-649.78C171.38,-643.53 171.38,-636.33 171.38,-629.52"/>
<polygon fill="black" stroke="black" points="173.83,-629.71 171.38,-622.71 168.93,-629.71 173.83,-629.71"/>
</g>
<!-- Ceramic_Composite_Armour -->
<g id="node8" class="node">
<title>Ceramic_Composite_Armour</title>
<path fill="#cce5ff" stroke="black" d="M227.75,-556C227.75,-556 115,-556 115,-556 109,-556 103,-550 103,-544 103,-544 103,-532 103,-532 103,-526 109,-520 115,-520 115,-520 227.75,-520 227.75,-520 233.75,-520 239.75,-526 239.75,-532 239.75,-532 239.75,-544 239.75,-544 239.75,-550 233.75,-556 227.75,-556"/>
<text xml:space="preserve" text-anchor="middle" x="171.38" y="-539.75" font-family="Helvetica,sans-Serif" font-size="10.00">Ceramic Composite Armour</text>
<text xml:space="preserve" text-anchor="middle" x="171.38" y="-528.5" font-family="Helvetica,sans-Serif" font-size="10.00">10K RP</text>
</g>
<!-- Composite_Armour&#45;&gt;Ceramic_Composite_Armour -->
<g id="edge7" class="edge">
<title>Composite_Armour&#45;&gt;Ceramic_Composite_Armour</title>
<path fill="none" stroke="black" d="M171.38,-584.78C171.38,-578.53 171.38,-571.33 171.38,-564.52"/>
<polygon fill="black" stroke="black" points="173.83,-564.71 171.38,-557.71 168.93,-564.71 173.83,-564.71"/>
</g>
<!-- Laminate_Composite_Armour -->
<g id="node9" class="node">
<title>Laminate_Composite_Armour</title>
<path fill="#fff3cd" stroke="black" d="M229.25,-491C229.25,-491 113.5,-491 113.5,-491 107.5,-491 101.5,-485 101.5,-479 101.5,-479 101.5,-467 101.5,-467 101.5,-461 107.5,-455 113.5,-455 113.5,-455 229.25,-455 229.25,-455 235.25,-455 241.25,-461 241.25,-467 241.25,-467 241.25,-479 241.25,-479 241.25,-485 235.25,-491 229.25,-491"/>
<text xml:space="preserve" text-anchor="middle" x="171.38" y="-474.75" font-family="Helvetica,sans-Serif" font-size="10.00">Laminate Composite Armour</text>
<text xml:space="preserve" text-anchor="middle" x="171.38" y="-463.5" font-family="Helvetica,sans-Serif" font-size="10.00">20K RP</text>
</g>
<!-- Ceramic_Composite_Armour&#45;&gt;Laminate_Composite_Armour -->
<g id="edge8" class="edge">
<title>Ceramic_Composite_Armour&#45;&gt;Laminate_Composite_Armour</title>
<path fill="none" stroke="black" d="M171.38,-519.78C171.38,-513.53 171.38,-506.33 171.38,-499.52"/>
<polygon fill="black" stroke="black" points="173.83,-499.71 171.38,-492.71 168.93,-499.71 173.83,-499.71"/>
</g>
<!-- Compressed_Carbon_Armour -->
<g id="node10" class="node">
<title>Compressed_Carbon_Armour</title>
<path fill="#fff3cd" stroke="black" d="M229.25,-426C229.25,-426 113.5,-426 113.5,-426 107.5,-426 101.5,-420 101.5,-414 101.5,-414 101.5,-402 101.5,-402 101.5,-396 107.5,-390 113.5,-390 113.5,-390 229.25,-390 229.25,-390 235.25,-390 241.25,-396 241.25,-402 241.25,-402 241.25,-414 241.25,-414 241.25,-420 235.25,-426 229.25,-426"/>
<text xml:space="preserve" text-anchor="middle" x="171.38" y="-409.75" font-family="Helvetica,sans-Serif" font-size="10.00">Compressed Carbon Armour</text>
<text xml:space="preserve" text-anchor="middle" x="171.38" y="-398.5" font-family="Helvetica,sans-Serif" font-size="10.00">40K RP</text>
</g>
<!-- Laminate_Composite_Armour&#45;&gt;Compressed_Carbon_Armour -->
<g id="edge9" class="edge">
<title>Laminate_Composite_Armour&#45;&gt;Compressed_Carbon_Armour</title>
<path fill="none" stroke="black" d="M171.38,-454.78C171.38,-448.53 171.38,-441.33 171.38,-434.52"/>
<polygon fill="black" stroke="black" points="173.83,-434.71 171.38,-427.71 168.93,-434.71 173.83,-434.71"/>
</g>
<!-- Biphase_Carbide_Armour -->
<g id="node11" class="node">
<title>Biphase_Carbide_Armour</title>
<path fill="#fff3cd" stroke="black" d="M220.25,-361C220.25,-361 122.5,-361 122.5,-361 116.5,-361 110.5,-355 110.5,-349 110.5,-349 110.5,-337 110.5,-337 110.5,-331 116.5,-325 122.5,-325 122.5,-325 220.25,-325 220.25,-325 226.25,-325 232.25,-331 232.25,-337 232.25,-337 232.25,-349 232.25,-349 232.25,-355 226.25,-361 220.25,-361"/>
<text xml:space="preserve" text-anchor="middle" x="171.38" y="-344.75" font-family="Helvetica,sans-Serif" font-size="10.00">Biphase Carbide Armour</text>
<text xml:space="preserve" text-anchor="middle" x="171.38" y="-333.5" font-family="Helvetica,sans-Serif" font-size="10.00">80K RP</text>
</g>
<!-- Compressed_Carbon_Armour&#45;&gt;Biphase_Carbide_Armour -->
<g id="edge10" class="edge">
<title>Compressed_Carbon_Armour&#45;&gt;Biphase_Carbide_Armour</title>
<path fill="none" stroke="black" d="M171.38,-389.78C171.38,-383.53 171.38,-376.33 171.38,-369.52"/>
<polygon fill="black" stroke="black" points="173.83,-369.71 171.38,-362.71 168.93,-369.71 173.83,-369.71"/>
</g>
<!-- Crystalline_Composite_Armour -->
<g id="node12" class="node">
<title>Crystalline_Composite_Armour</title>
<path fill="#d4c4fb" stroke="black" d="M232.62,-296C232.62,-296 110.12,-296 110.12,-296 104.12,-296 98.12,-290 98.12,-284 98.12,-284 98.12,-272 98.12,-272 98.12,-266 104.12,-260 110.12,-260 110.12,-260 232.62,-260 232.62,-260 238.62,-260 244.62,-266 244.62,-272 244.62,-272 244.62,-284 244.62,-284 244.62,-290 238.62,-296 232.62,-296"/>
<text xml:space="preserve" text-anchor="middle" x="171.38" y="-279.75" font-family="Helvetica,sans-Serif" font-size="10.00">Crystalline Composite Armour</text>
<text xml:space="preserve" text-anchor="middle" x="171.38" y="-268.5" font-family="Helvetica,sans-Serif" font-size="10.00">150K RP</text>
</g>
<!-- Biphase_Carbide_Armour&#45;&gt;Crystalline_Composite_Armour -->
<g id="edge11" class="edge">
<title>Biphase_Carbide_Armour&#45;&gt;Crystalline_Composite_Armour</title>
<path fill="none" stroke="black" d="M171.38,-324.78C171.38,-318.53 171.38,-311.33 171.38,-304.52"/>
<polygon fill="black" stroke="black" points="173.83,-304.71 171.38,-297.71 168.93,-304.71 173.83,-304.71"/>
</g>
<!-- Superdense_Armour -->
<g id="node13" class="node">
<title>Superdense_Armour</title>
<path fill="#d4c4fb" stroke="black" d="M210.12,-231C210.12,-231 132.62,-231 132.62,-231 126.62,-231 120.62,-225 120.62,-219 120.62,-219 120.62,-207 120.62,-207 120.62,-201 126.62,-195 132.62,-195 132.62,-195 210.12,-195 210.12,-195 216.12,-195 222.12,-201 222.12,-207 222.12,-207 222.12,-219 222.12,-219 222.12,-225 216.12,-231 210.12,-231"/>
<text xml:space="preserve" text-anchor="middle" x="171.38" y="-214.75" font-family="Helvetica,sans-Serif" font-size="10.00">Superdense Armour</text>
<text xml:space="preserve" text-anchor="middle" x="171.38" y="-203.5" font-family="Helvetica,sans-Serif" font-size="10.00">300K RP</text>
</g>
<!-- Crystalline_Composite_Armour&#45;&gt;Superdense_Armour -->
<g id="edge12" class="edge">
<title>Crystalline_Composite_Armour&#45;&gt;Superdense_Armour</title>
<path fill="none" stroke="black" d="M171.38,-259.78C171.38,-253.53 171.38,-246.33 171.38,-239.52"/>
<polygon fill="black" stroke="black" points="173.83,-239.71 171.38,-232.71 168.93,-239.71 173.83,-239.71"/>
</g>
<!-- Bonded_Superdense_Armour -->
<g id="node14" class="node">
<title>Bonded_Superdense_Armour</title>
<path fill="#d4c4fb" stroke="black" d="M228.12,-166C228.12,-166 114.62,-166 114.62,-166 108.63,-166 102.62,-160 102.62,-154 102.62,-154 102.62,-142 102.62,-142 102.62,-136 108.62,-130 114.62,-130 114.62,-130 228.12,-130 228.12,-130 234.12,-130 240.12,-136 240.12,-142 240.12,-142 240.12,-154 240.12,-154 240.12,-160 234.12,-166 228.12,-166"/>
<text xml:space="preserve" text-anchor="middle" x="171.38" y="-149.75" font-family="Helvetica,sans-Serif" font-size="10.00">Bonded Superdense Armour</text>
<text xml:space="preserve" text-anchor="middle" x="171.38" y="-138.5" font-family="Helvetica,sans-Serif" font-size="10.00">600K RP</text>
</g>
<!-- Superdense_Armour&#45;&gt;Bonded_Superdense_Armour -->
<g id="edge13" class="edge">
<title>Superdense_Armour&#45;&gt;Bonded_Superdense_Armour</title>
<path fill="none" stroke="black" d="M171.38,-194.78C171.38,-188.53 171.38,-181.33 171.38,-174.52"/>
<polygon fill="black" stroke="black" points="173.83,-174.71 171.38,-167.71 168.93,-174.71 173.83,-174.71"/>
</g>
<!-- Coherent_Superdense_Armour -->
<g id="node15" class="node">
<title>Coherent_Superdense_Armour</title>
<path fill="#f8d7da" stroke="black" d="M231.5,-101C231.5,-101 111.25,-101 111.25,-101 105.25,-101 99.25,-95 99.25,-89 99.25,-89 99.25,-77 99.25,-77 99.25,-71 105.25,-65 111.25,-65 111.25,-65 231.5,-65 231.5,-65 237.5,-65 243.5,-71 243.5,-77 243.5,-77 243.5,-89 243.5,-89 243.5,-95 237.5,-101 231.5,-101"/>
<text xml:space="preserve" text-anchor="middle" x="171.38" y="-84.75" font-family="Helvetica,sans-Serif" font-size="10.00">Coherent Superdense Armour</text>
<text xml:space="preserve" text-anchor="middle" x="171.38" y="-73.5" font-family="Helvetica,sans-Serif" font-size="10.00">1.2M RP</text>
</g>
<!-- Bonded_Superdense_Armour&#45;&gt;Coherent_Superdense_Armour -->
<g id="edge14" class="edge">
<title>Bonded_Superdense_Armour&#45;&gt;Coherent_Superdense_Armour</title>
<path fill="none" stroke="black" d="M171.38,-129.78C171.38,-123.53 171.38,-116.33 171.38,-109.52"/>
<polygon fill="black" stroke="black" points="173.83,-109.71 171.38,-102.71 168.93,-109.71 173.83,-109.71"/>
</g>
<!-- Collapsium_Armour -->
<g id="node16" class="node">
<title>Collapsium_Armour</title>
<path fill="#f8d7da" stroke="black" d="M208.62,-36C208.62,-36 134.12,-36 134.12,-36 128.12,-36 122.12,-30 122.12,-24 122.12,-24 122.12,-12 122.12,-12 122.12,-6 128.12,0 134.12,0 134.12,0 208.62,0 208.62,0 214.62,0 220.62,-6 220.62,-12 220.62,-12 220.62,-24 220.62,-24 220.62,-30 214.62,-36 208.62,-36"/>
<text xml:space="preserve" text-anchor="middle" x="171.38" y="-19.75" font-family="Helvetica,sans-Serif" font-size="10.00">Collapsium Armour</text>
<text xml:space="preserve" text-anchor="middle" x="171.38" y="-8.5" font-family="Helvetica,sans-Serif" font-size="10.00">2.5M RP</text>
</g>
<!-- Coherent_Superdense_Armour&#45;&gt;Collapsium_Armour -->
<g id="edge15" class="edge">
<title>Coherent_Superdense_Armour&#45;&gt;Collapsium_Armour</title>
<path fill="none" stroke="black" d="M171.38,-64.78C171.38,-58.53 171.38,-51.33 171.38,-44.52"/>
<polygon fill="black" stroke="black" points="173.83,-44.71 171.38,-37.71 168.93,-44.71 173.83,-44.71"/>
</g>
</g>
</svg>
