<?xml version="1.0" encoding="UTF-8" standalone="no"?>
<!DOCTYPE svg PUBLIC "-//W3C//DTD SVG 1.1//EN"
 "http://www.w3.org/Graphics/SVG/1.1/DTD/svg11.dtd">
<!-- Generated by graphviz version 14.1.2 (20260124.0452)
 -->
<!-- Title: TechTree Pages: 1 -->
<svg width="418pt" height="1073pt"
 viewBox="0.00 0.00 418.00 1073.00" xmlns="http://www.w3.org/2000/svg" xmlns:xlink="http://www.w3.org/1999/xlink">
<g id="graph0" class="graph" transform="scale(1 1) rotate(0) translate(4 1068.75)">
<title>TechTree</title>
<polygon fill="white" stroke="none" points="-4,4 -4,-1068.75 414.12,-1068.75 414.12,4 -4,4"/>
<text xml:space="preserve" text-anchor="middle" x="205.06" y="-1049.35" font-family="Helvetica,sans-Serif" font-weight="bold" font-size="12.00">Armour</text>
<!-- Structural_Shell -->
<g id="node1" class="node">
<title>Structural_Shell</title>
<path fill="#d4edda" stroke="black" d="M66.25,-1044C66.25,-1044 12,-1044 12,-1044 6,-1044 0,-1038 0,-1032 0,-1032 0,-1020 0,-1020 0,-1014 6,-1008 12,-1008 12,-1008 66.25,-1008 66.25,-1008 72.25,-1008 78.25,-1014 78.25,-1020 78.25,-1020 78.25,-1032 78.25,-1032 78.25,-1038 72.25,-1044 66.25,-1044"/>
<text xml:space="preserve" text-anchor="middle" x="39.12" y="-1027.2" font-family="Helvetica,sans-Serif" font-size="9.00">Structural Shell</text>
<text xml:space="preserve" text-anchor="middle" x="39.12" y="-1017.45" font-family="Helvetica,sans-Serif" font-size="9.00">50 RP</text>
</g>
<!-- Conventional_Steel_Armour -->
<g id="node2" class="node">
<title>Conventional_Steel_Armour</title>
<path fill="#d4edda" stroke="black" d="M210.25,-1044C210.25,-1044 108,-1044 108,-1044 102,-1044 96,-1038 96,-1032 96,-1032 96,-1020 96,-1020 96,-1014 102,-1008 108,-1008 108,-1008 210.25,-1008 210.25,-1008 216.25,-1008 222.25,-1014 222.25,-1020 222.25,-1020 222.25,-1032 222.25,-1032 222.25,-1038 216.25,-1044 210.25,-1044"/>
<text xml:space="preserve" text-anchor="middle" x="159.12" y="-1027.2" font-family="Helvetica,sans-Serif" font-size="9.00">Conventional Steel Armour</text>
<text xml:space="preserve" text-anchor="middle" x="159.12" y="-1017.45" font-family="Helvetica,sans-Serif" font-size="9.00">125 RP</text>
</g>
<!-- Conventional_Composite_Armour -->
<g id="node3" class="node">
<title>Conventional_Composite_Armour</title>
<path fill="#d4edda" stroke="black" d="M221.88,-972C221.88,-972 96.37,-972 96.37,-972 90.38,-972 84.38,-966 84.38,-960 84.38,-960 84.38,-948 84.38,-948 84.38,-942 90.38,-936 96.38,-936 96.38,-936 221.88,-936 221.88,-936 227.88,-936 233.88,-942 233.88,-948 233.88,-948 233.88,-960 233.88,-960 233.88,-966 227.88,-972 221.88,-972"/>
<text xml:space="preserve" text-anchor="middle" x="159.12" y="-955.2" font-family="Helvetica,sans-Serif" font-size="9.00">Conventional Composite Armour</text>
<text xml:space="preserve" text-anchor="middle" x="159.12" y="-945.45" font-family="Helvetica,sans-Serif" font-size="9.00">250 RP</text>
</g>
<!-- Conventional_Steel_Armour&#45;&gt;Conventional_Composite_Armour -->
<g id="edge1" class="edge">
<title>Conventional_Steel_Armour&#45;&gt;Conventional_Composite_Armour</title>
<path fill="none" stroke="black" d="M159.12,-1007.7C159.12,-999.22 159.12,-988.86 159.12,-979.58"/>
<polygon fill="black" stroke="black" points="161.23,-979.62 159.13,-973.62 157.03,-979.62 161.23,-979.62"/>
</g>
<!-- Conventional_Advanced_Composit -->
<g id="node4" class="node">
<title>Conventional_Advanced_Composit</title>
<path fill="#d4edda" stroke="black" d="M243.62,-900C243.62,-900 74.62,-900 74.62,-900 68.62,-900 62.62,-894 62.62,-888 62.62,-888 62.62,-876 62.62,-876 62.62,-870 68.62,-864 74.62,-864 74.62,-864 243.62,-864 243.62,-864 249.62,-864 255.62,-870 255.62,-876 255.62,-876 255.62,-888 255.62,-888 255.62,-894 249.62,-900 243.62,-900"/>
<text xml:space="preserve" text-anchor="middle" x="159.12" y="-883.2" font-family="Helvetica,sans-Serif" font-size="9.00">Conventional Advanced Composite Armour</text>
<text xml:space="preserve" text-anchor="middle" x="159.12" y="-873.45" font-family="Helvetica,sans-Serif" font-size="9.00">375 RP</text>
</g>
<!-- Conventional_Composite_Armour&#45;&gt;Conventional_Advanced_Composit -->
<g id="edge2" class="edge">
<title>Conventional_Composite_Armour&#45;&gt;Conventional_Advanced_Composit</title>
<path fill="none" stroke="black" d="M159.12,-935.7C159.12,-927.22 159.12,-916.86 159.12,-907.58"/>
<polygon fill="black" stroke="black" points="161.23,-907.62 159.13,-901.62 157.03,-907.62 161.23,-907.62"/>
</g>
<!-- Duranium_Armour -->
<g id="node5" class="node">
<title>Duranium_Armour</title>
<path fill="#d4edda" stroke="black" d="M282.5,-828C282.5,-828 217.75,-828 217.75,-828 211.75,-828 205.75,-822 205.75,-816 205.75,-816 205.75,-804 205.75,-804 205.75,-798 211.75,-792 217.75,-792 217.75,-792 282.5,-792 282.5,-792 288.5,-792 294.5,-798 294.5,-804 294.5,-804 294.5,-816 294.5,-816 294.5,-822 288.5,-828 282.5,-828"/>
<text xml:space="preserve" text-anchor="middle" x="250.12" y="-811.2" font-family="Helvetica,sans-Serif" font-size="9.00">Duranium Armour</text>
<text xml:space="preserve" text-anchor="middle" x="250.12" y="-801.45" font-family="Helvetica,sans-Serif" font-size="9.00">500 RP</text>
</g>
<!-- Conventional_Advanced_Composit&#45;&gt;Duranium_Armour -->
<g id="edge3" class="edge">
<title>Conventional_Advanced_Composit&#45;&gt;Duranium_Armour</title>
<path fill="none" stroke="black" d="M181.62,-863.7C193.76,-854.36 208.87,-842.74 221.8,-832.79"/>
<polygon fill="black" stroke="black" points="222.9,-834.59 226.37,-829.27 220.34,-831.26 222.9,-834.59"/>
</g>
<!-- High_Density_Duranium_Armour -->
<g id="node6" class="node">
<title>High_Density_Duranium_Armour</title>
<path fill="#cce5ff" stroke="black" d="M309.88,-756C309.88,-756 190.38,-756 190.38,-756 184.38,-756 178.38,-750 178.38,-744 178.38,-744 178.38,-732 178.38,-732 178.38,-726 184.38,-720 190.38,-720 190.38,-720 309.88,-720 309.88,-720 315.88,-720 321.88,-726 321.88,-732 321.88,-732 321.88,-744 321.88,-744 321.88,-750 315.88,-756 309.88,-756"/>
<text xml:space="preserve" text-anchor="middle" x="250.12" y="-739.2" font-family="Helvetica,sans-Serif" font-size="9.00">High Density Duranium Armour</text>
<text xml:space="preserve" text-anchor="middle" x="250.12" y="-729.45" font-family="Helvetica,sans-Serif" font-size="9.00">2K RP</text>
</g>
<!-- Duranium_Armour&#45;&gt;High_Density_Duranium_Armour -->
<g id="edge5" class="edge">
<title>Duranium_Armour&#45;&gt;High_Density_Duranium_Armour</title>
<path fill="none" stroke="black" d="M244.21,-791.7C243.33,-783.22 243.15,-772.86 243.65,-763.58"/>
<polygon fill="black" stroke="black" points="245.74,-763.76 244.11,-757.61 241.55,-763.43 245.74,-763.76"/>
</g>
<!-- Duranium_Armour&#45;&gt;High_Density_Duranium_Armour -->
<g id="edge6" class="edge">
<title>Duranium_Armour&#45;&gt;High_Density_Duranium_Armour</title>
<path fill="none" stroke="black" d="M256.04,-791.7C256.92,-783.22 257.1,-772.86 256.6,-763.58"/>
<polygon fill="black" stroke="black" points="258.7,-763.43 256.14,-757.61 254.51,-763.76 258.7,-763.43"/>
</g>
<!-- Composite_Armour -->
<g id="node7" class="node">
<title>Composite_Armour</title>
<path fill="#cce5ff" stroke="black" d="M284.38,-684C284.38,-684 215.88,-684 215.88,-684 209.88,-684 203.88,-678 203.88,-672 203.88,-672 203.88,-660 203.88,-660 203.88,-654 209.88,-648 215.88,-648 215.88,-648 284.38,-648 284.38,-648 290.38,-648 296.38,-654 296.38,-660 296.38,-660 296.38,-672 296.38,-672 296.38,-678 290.38,-684 284.38,-684"/>
<text xml:space="preserve" text-anchor="middle" x="250.12" y="-667.2" font-family="Helvetica,sans-Serif" font-size="9.00">Composite Armour</text>
<text xml:space="preserve" text-anchor="middle" x="250.12" y="-657.45" font-family="Helvetica,sans-Serif" font-size="9.00">5K RP</text>
</g>
<!-- High_Density_Duranium_Armour&#45;&gt;Composite_Armour -->
<g id="edge7" class="edge">
<title>High_Density_Duranium_Armour&#45;&gt;Composite_Armour</title>
<path fill="none" stroke="black" d="M250.12,-719.7C250.12,-711.22 250.12,-700.86 250.12,-691.58"/>
<polygon fill="black" stroke="black" points="252.23,-691.62 250.13,-685.62 248.03,-691.62 252.23,-691.62"/>
</g>
<!-- Ceramic_Composite_Armour -->
<g id="node8" class="node">
<title>Ceramic_Composite_Armour</title>
<path fill="#cce5ff" stroke="black" d="M302.75,-612C302.75,-612 197.5,-612 197.5,-612 191.5,-612 185.5,-606 185.5,-600 185.5,-600 185.5,-588 185.5,-588 185.5,-582 191.5,-576 197.5,-576 197.5,-576 302.75,-576 302.75,-576 308.75,-576 314.75,-582 314.75,-588 314.75,-588 314.75,-600 314.75,-600 314.75,-606 308.75,-612 302.75,-612"/>
<text xml:space="preserve" text-anchor="middle" x="250.12" y="-595.2" font-family="Helvetica,sans-Serif" font-size="9.00">Ceramic Composite Armour</text>
<text xml:space="preserve" text-anchor="middle" x="250.12" y="-585.45" font-family="Helvetica,sans-Serif" font-size="9.00">10K RP</text>
</g>
<!-- Composite_Armour&#45;&gt;Ceramic_Composite_Armour -->
<g id="edge8" class="edge">
<title>Composite_Armour&#45;&gt;Ceramic_Composite_Armour</title>
<path fill="none" stroke="black" d="M250.12,-647.7C250.12,-639.22 250.12,-628.86 250.12,-619.58"/>
<polygon fill="black" stroke="black" points="252.23,-619.62 250.13,-613.62 248.03,-619.62 252.23,-619.62"/>
</g>
<!-- Laminate_Composite_Armour -->
<g id="node9" class="node">
<title>Laminate_Composite_Armour</title>
<path fill="#fff3cd" stroke="black" d="M304.62,-540C304.62,-540 195.62,-540 195.62,-540 189.62,-540 183.62,-534 183.62,-528 183.62,-528 183.62,-516 183.62,-516 183.62,-510 189.62,-504 195.62,-504 195.62,-504 304.62,-504 304.62,-504 310.62,-504 316.62,-510 316.62,-516 316.62,-516 316.62,-528 316.62,-528 316.62,-534 310.62,-540 304.62,-540"/>
<text xml:space="preserve" text-anchor="middle" x="250.12" y="-523.2" font-family="Helvetica,sans-Serif" font-size="9.00">Laminate Composite Armour</text>
<text xml:space="preserve" text-anchor="middle" x="250.12" y="-513.45" font-family="Helvetica,sans-Serif" font-size="9.00">20K RP</text>
</g>
<!-- Ceramic_Composite_Armour&#45;&gt;Laminate_Composite_Armour -->
<g id="edge9" class="edge">
<title>Ceramic_Composite_Armour&#45;&gt;Laminate_Composite_Armour</title>
<path fill="none" stroke="black" d="M250.12,-575.7C250.12,-567.22 250.12,-556.86 250.12,-547.58"/>
<polygon fill="black" stroke="black" points="252.23,-547.62 250.13,-541.62 248.03,-547.62 252.23,-547.62"/>
</g>
<!-- Compressed_Carbon_Armour -->
<g id="node10" class="node">
<title>Compressed_Carbon_Armour</title>
<path fill="#fff3cd" stroke="black" d="M305,-468C305,-468 195.25,-468 195.25,-468 189.25,-468 183.25,-462 183.25,-456 183.25,-456 183.25,-444 183.25,-444 183.25,-438 189.25,-432 195.25,-432 195.25,-432 305,-432 305,-432 311,-432 317,-438 317,-444 317,-444 317,-456 317,-456 317,-462 311,-468 305,-468"/>
<text xml:space="preserve" text-anchor="middle" x="250.12" y="-451.2" font-family="Helvetica,sans-Serif" font-size="9.00">Compressed Carbon Armour</text>
<text xml:space="preserve" text-anchor="middle" x="250.12" y="-441.45" font-family="Helvetica,sans-Serif" font-size="9.00">40K RP</text>
</g>
<!-- Laminate_Composite_Armour&#45;&gt;Compressed_Carbon_Armour -->
<g id="edge10" class="edge">
<title>Laminate_Composite_Armour&#45;&gt;Compressed_Carbon_Armour</title>
<path fill="none" stroke="black" d="M250.12,-503.7C250.12,-495.22 250.12,-484.86 250.12,-475.58"/>
<polygon fill="black" stroke="black" points="252.23,-475.62 250.13,-469.62 248.03,-475.62 252.23,-475.62"/>
</g>
<!-- Biphase_Carbide_Armour -->
<g id="node11" class="node">
<title>Biphase_Carbide_Armour</title>
<path fill="#fff3cd" stroke="black" d="M296.75,-396C296.75,-396 203.5,-396 203.5,-396 197.5,-396 191.5,-390 191.5,-384 191.5,-384 191.5,-372 191.5,-372 191.5,-366 197.5,-360 203.5,-360 203.5,-360 296.75,-360 296.75,-360 302.75,-360 308.75,-366 308.75,-372 308.75,-372 308.75,-384 308.75,-384 308.75,-390 302.75,-396 296.75,-396"/>
<text xml:space="preserve" text-anchor="middle" x="250.12" y="-379.2" font-family="Helvetica,sans-Serif" font-size="9.00">Biphase Carbide Armour</text>
<text xml:space="preserve" text-anchor="middle" x="250.12" y="-369.45" font-family="Helvetica,sans-Serif" font-size="9.00">80K RP</text>
</g>
<!-- Compressed_Carbon_Armour&#45;&gt;Biphase_Carbide_Armour -->
<g id="edge11" class="edge">
<title>Compressed_Carbon_Armour&#45;&gt;Biphase_Carbide_Armour</title>
<path fill="none" stroke="black" d="M250.12,-431.7C250.12,-423.22 250.12,-412.86 250.12,-403.58"/>
<polygon fill="black" stroke="black" points="252.23,-403.62 250.13,-397.62 248.03,-403.62 252.23,-403.62"/>
</g>
<!-- Crystalline_Composite_Armour -->
<g id="node12" class="node">
<title>Crystalline_Composite_Armour</title>
<path fill="#d4c4fb" stroke="black" d="M307.25,-324C307.25,-324 193,-324 193,-324 187,-324 181,-318 181,-312 181,-312 181,-300 181,-300 181,-294 187,-288 193,-288 193,-288 307.25,-288 307.25,-288 313.25,-288 319.25,-294 319.25,-300 319.25,-300 319.25,-312 319.25,-312 319.25,-318 313.25,-324 307.25,-324"/>
<text xml:space="preserve" text-anchor="middle" x="250.12" y="-307.2" font-family="Helvetica,sans-Serif" font-size="9.00">Crystalline Composite Armour</text>
<text xml:space="preserve" text-anchor="middle" x="250.12" y="-297.45" font-family="Helvetica,sans-Serif" font-size="9.00">150K RP</text>
</g>
<!-- Biphase_Carbide_Armour&#45;&gt;Crystalline_Composite_Armour -->
<g id="edge12" class="edge">
<title>Biphase_Carbide_Armour&#45;&gt;Crystalline_Composite_Armour</title>
<path fill="none" stroke="black" d="M250.12,-359.7C250.12,-351.22 250.12,-340.86 250.12,-331.58"/>
<polygon fill="black" stroke="black" points="252.23,-331.62 250.13,-325.62 248.03,-331.62 252.23,-331.62"/>
</g>
<!-- Superdense_Armour -->
<g id="node13" class="node">
<title>Superdense_Armour</title>
<path fill="#d4c4fb" stroke="black" d="M287.38,-252C287.38,-252 212.88,-252 212.88,-252 206.88,-252 200.88,-246 200.88,-240 200.88,-240 200.88,-228 200.88,-228 200.88,-222 206.88,-216 212.88,-216 212.88,-216 287.38,-216 287.38,-216 293.38,-216 299.38,-222 299.38,-228 299.38,-228 299.38,-240 299.38,-240 299.38,-246 293.38,-252 287.38,-252"/>
<text xml:space="preserve" text-anchor="middle" x="250.12" y="-235.2" font-family="Helvetica,sans-Serif" font-size="9.00">Superdense Armour</text>
<text xml:space="preserve" text-anchor="middle" x="250.12" y="-225.45" font-family="Helvetica,sans-Serif" font-size="9.00">300K RP</text>
</g>
<!-- Crystalline_Composite_Armour&#45;&gt;Superdense_Armour -->
<g id="edge13" class="edge">
<title>Crystalline_Composite_Armour&#45;&gt;Superdense_Armour</title>
<path fill="none" stroke="black" d="M250.12,-287.7C250.12,-279.22 250.12,-268.86 250.12,-259.58"/>
<polygon fill="black" stroke="black" points="252.23,-259.62 250.13,-253.62 248.03,-259.62 252.23,-259.62"/>
</g>
<!-- Bonded_Superdense_Armour -->
<g id="node14" class="node">
<title>Bonded_Superdense_Armour</title>
<path fill="#d4c4fb" stroke="black" d="M304.62,-180C304.62,-180 195.62,-180 195.62,-180 189.62,-180 183.62,-174 183.62,-168 183.62,-168 183.62,-156 183.62,-156 183.62,-150 189.62,-144 195.62,-144 195.62,-144 304.62,-144 304.62,-144 310.62,-144 316.62,-150 316.62,-156 316.62,-156 316.62,-168 316.62,-168 316.62,-174 310.62,-180 304.62,-180"/>
<text xml:space="preserve" text-anchor="middle" x="250.12" y="-163.2" font-family="Helvetica,sans-Serif" font-size="9.00">Bonded Superdense Armour</text>
<text xml:space="preserve" text-anchor="middle" x="250.12" y="-153.45" font-family="Helvetica,sans-Serif" font-size="9.00">600K RP</text>
</g>
<!-- Superdense_Armour&#45;&gt;Bonded_Superdense_Armour -->
<g id="edge14" class="edge">
<title>Superdense_Armour&#45;&gt;Bonded_Superdense_Armour</title>
<path fill="none" stroke="black" d="M250.12,-215.7C250.12,-207.22 250.12,-196.86 250.12,-187.58"/>
<polygon fill="black" stroke="black" points="252.23,-187.62 250.13,-181.62 248.03,-187.62 252.23,-187.62"/>
</g>
<!-- Coherent_Superdense_Armour -->
<g id="node15" class="node">
<title>Coherent_Superdense_Armour</title>
<path fill="#f8d7da" stroke="black" d="M307.62,-108C307.62,-108 192.62,-108 192.62,-108 186.62,-108 180.62,-102 180.62,-96 180.62,-96 180.62,-84 180.62,-84 180.62,-78 186.62,-72 192.62,-72 192.62,-72 307.62,-72 307.62,-72 313.62,-72 319.62,-78 319.62,-84 319.62,-84 319.62,-96 319.62,-96 319.62,-102 313.62,-108 307.62,-108"/>
<text xml:space="preserve" text-anchor="middle" x="250.12" y="-91.2" font-family="Helvetica,sans-Serif" font-size="9.00">Coherent Superdense Armour</text>
<text xml:space="preserve" text-anchor="middle" x="250.12" y="-81.45" font-family="Helvetica,sans-Serif" font-size="9.00">1.2M RP</text>
</g>
<!-- Bonded_Superdense_Armour&#45;&gt;Coherent_Superdense_Armour -->
<g id="edge15" class="edge">
<title>Bonded_Superdense_Armour&#45;&gt;Coherent_Superdense_Armour</title>
<path fill="none" stroke="black" d="M250.12,-143.7C250.12,-135.22 250.12,-124.86 250.12,-115.58"/>
<polygon fill="black" stroke="black" points="252.23,-115.62 250.13,-109.62 248.03,-115.62 252.23,-115.62"/>
</g>
<!-- Collapsium_Armour -->
<g id="node16" class="node">
<title>Collapsium_Armour</title>
<path fill="#f8d7da" stroke="black" d="M285.5,-36C285.5,-36 214.75,-36 214.75,-36 208.75,-36 202.75,-30 202.75,-24 202.75,-24 202.75,-12 202.75,-12 202.75,-6 208.75,0 214.75,0 214.75,0 285.5,0 285.5,0 291.5,0 297.5,-6 297.5,-12 297.5,-12 297.5,-24 297.5,-24 297.5,-30 291.5,-36 285.5,-36"/>
<text xml:space="preserve" text-anchor="middle" x="250.12" y="-19.2" font-family="Helvetica,sans-Serif" font-size="9.00">Collapsium Armour</text>
<text xml:space="preserve" text-anchor="middle" x="250.12" y="-9.45" font-family="Helvetica,sans-Serif" font-size="9.00">2.5M RP</text>
</g>
<!-- Coherent_Superdense_Armour&#45;&gt;Collapsium_Armour -->
<g id="edge16" class="edge">
<title>Coherent_Superdense_Armour&#45;&gt;Collapsium_Armour</title>
<path fill="none" stroke="black" d="M250.12,-71.7C250.12,-63.22 250.12,-52.86 250.12,-43.58"/>
<polygon fill="black" stroke="black" points="252.23,-43.62 250.13,-37.62 248.03,-43.62 252.23,-43.62"/>
</g>
<!-- ext_Trans_Newtonian_Technology -->
<g id="node17" class="node">
<title>ext_Trans_Newtonian_Technology</title>
<path fill="#f0f0f0" stroke="black" stroke-dasharray="5,2" d="M398.12,-900C398.12,-900 286.12,-900 286.12,-900 280.12,-900 274.12,-894 274.12,-888 274.12,-888 274.12,-876 274.12,-876 274.12,-870 280.12,-864 286.12,-864 286.12,-864 398.12,-864 398.12,-864 404.12,-864 410.12,-870 410.12,-876 410.12,-876 410.12,-888 410.12,-888 410.12,-894 404.12,-900 398.12,-900"/>
<text xml:space="preserve" text-anchor="middle" x="342.12" y="-878.33" font-family="Helvetica,sans-Serif" font-size="9.00">Trans&#45;Newtonian Technology</text>
</g>
<!-- ext_Trans_Newtonian_Technology&#45;&gt;Duranium_Armour -->
<g id="edge4" class="edge">
<title>ext_Trans_Newtonian_Technology&#45;&gt;Duranium_Armour</title>
<path fill="none" stroke="black" d="M319.38,-863.7C307.11,-854.36 291.84,-842.74 278.76,-832.79"/>
<polygon fill="black" stroke="black" points="280.17,-831.23 274.13,-829.26 277.63,-834.57 280.17,-831.23"/>
</g>
</g>
</svg>
