<?xml version="1.0" encoding="UTF-8" standalone="no"?>
<!DOCTYPE svg PUBLIC "-//W3C//DTD SVG 1.1//EN"
 "http://www.w3.org/Graphics/SVG/1.1/DTD/svg11.dtd">
<!-- Generated by graphviz version 14.1.2 (20260124.0452)
 -->
<!-- Title: ArmourTechTree Pages: 1 -->
<svg width="234pt" height="1124pt"
 viewBox="0.00 0.00 234.00 1124.00" xmlns="http://www.w3.org/2000/svg" xmlns:xlink="http://www.w3.org/1999/xlink">
<g id="graph0" class="graph" transform="scale(1 1) rotate(0) translate(4 1120)">
<title>ArmourTechTree</title>
<polygon fill="white" stroke="none" points="-4,4 -4,-1120 229.75,-1120 229.75,4 -4,4"/>
<!-- start -->
<g id="node1" class="node">
<title>start</title>
<path fill="#f0f0f0" stroke="black" stroke-dasharray="5,2" d="M86.5,-1116C86.5,-1116 36.75,-1116 36.75,-1116 30.75,-1116 24.75,-1110 24.75,-1104 24.75,-1104 24.75,-1092 24.75,-1092 24.75,-1086 30.75,-1080 36.75,-1080 36.75,-1080 86.5,-1080 86.5,-1080 92.5,-1080 98.5,-1086 98.5,-1092 98.5,-1092 98.5,-1104 98.5,-1104 98.5,-1110 92.5,-1116 86.5,-1116"/>
<text xml:space="preserve" text-anchor="middle" x="61.62" y="-1094.12" font-family="Helvetica,sans-Serif" font-size="10.00">Starting Tech</text>
</g>
<!-- steel -->
<g id="node3" class="node">
<title>steel</title>
<path fill="#d4edda" stroke="black" d="M98.88,-1044C98.88,-1044 24.38,-1044 24.38,-1044 18.37,-1044 12.37,-1038 12.37,-1032 12.37,-1032 12.37,-1020 12.37,-1020 12.37,-1014 18.37,-1008 24.37,-1008 24.37,-1008 98.87,-1008 98.87,-1008 104.88,-1008 110.88,-1014 110.88,-1020 110.88,-1020 110.88,-1032 110.88,-1032 110.88,-1038 104.88,-1044 98.88,-1044"/>
<text xml:space="preserve" text-anchor="middle" x="61.62" y="-1027.75" font-family="Helvetica,sans-Serif" font-size="10.00">Conventional Steel</text>
<text xml:space="preserve" text-anchor="middle" x="61.62" y="-1016.5" font-family="Helvetica,sans-Serif" font-size="10.00">125 RP</text>
</g>
<!-- start&#45;&gt;steel -->
<g id="edge1" class="edge">
<title>start&#45;&gt;steel</title>
<path fill="none" stroke="black" d="M61.62,-1079.7C61.62,-1071.47 61.62,-1061.48 61.62,-1052.42"/>
<polygon fill="black" stroke="black" points="64.08,-1052.62 61.63,-1045.62 59.18,-1052.62 64.08,-1052.62"/>
</g>
<!-- tn -->
<g id="node2" class="node">
<title>tn</title>
<path fill="#fff3cd" stroke="black" stroke-dasharray="5,2" d="M213.75,-900C213.75,-900 147.5,-900 147.5,-900 141.5,-900 135.5,-894 135.5,-888 135.5,-888 135.5,-876 135.5,-876 135.5,-870 141.5,-864 147.5,-864 147.5,-864 213.75,-864 213.75,-864 219.75,-864 225.75,-870 225.75,-876 225.75,-876 225.75,-888 225.75,-888 225.75,-894 219.75,-900 213.75,-900"/>
<text xml:space="preserve" text-anchor="middle" x="180.62" y="-883.75" font-family="Helvetica,sans-Serif" font-size="10.00">Trans&#45;Newtonian</text>
<text xml:space="preserve" text-anchor="middle" x="180.62" y="-872.5" font-family="Helvetica,sans-Serif" font-size="10.00">Technology</text>
</g>
<!-- duranium -->
<g id="node6" class="node">
<title>duranium</title>
<path fill="#cce5ff" stroke="black" d="M154.5,-828C154.5,-828 86.75,-828 86.75,-828 80.75,-828 74.75,-822 74.75,-816 74.75,-816 74.75,-804 74.75,-804 74.75,-798 80.75,-792 86.75,-792 86.75,-792 154.5,-792 154.5,-792 160.5,-792 166.5,-798 166.5,-804 166.5,-804 166.5,-816 166.5,-816 166.5,-822 160.5,-828 154.5,-828"/>
<text xml:space="preserve" text-anchor="middle" x="120.62" y="-811.75" font-family="Helvetica,sans-Serif" font-size="10.00">Duranium Armour</text>
<text xml:space="preserve" text-anchor="middle" x="120.62" y="-800.5" font-family="Helvetica,sans-Serif" font-size="10.00">500 RP</text>
</g>
<!-- tn&#45;&gt;duranium -->
<g id="edge5" class="edge">
<title>tn&#45;&gt;duranium</title>
<path fill="none" stroke="black" d="M165.79,-863.7C158.24,-854.88 148.94,-844.03 140.75,-834.47"/>
<polygon fill="black" stroke="black" points="142.69,-832.97 136.27,-829.25 138.97,-836.16 142.69,-832.97"/>
</g>
<!-- comp -->
<g id="node4" class="node">
<title>comp</title>
<path fill="#d4edda" stroke="black" d="M111.25,-972C111.25,-972 12,-972 12,-972 6,-972 0,-966 0,-960 0,-960 0,-948 0,-948 0,-942 6,-936 12,-936 12,-936 111.25,-936 111.25,-936 117.25,-936 123.25,-942 123.25,-948 123.25,-948 123.25,-960 123.25,-960 123.25,-966 117.25,-972 111.25,-972"/>
<text xml:space="preserve" text-anchor="middle" x="61.62" y="-955.75" font-family="Helvetica,sans-Serif" font-size="10.00">Conventional Composite</text>
<text xml:space="preserve" text-anchor="middle" x="61.62" y="-944.5" font-family="Helvetica,sans-Serif" font-size="10.00">250 RP</text>
</g>
<!-- steel&#45;&gt;comp -->
<g id="edge2" class="edge">
<title>steel&#45;&gt;comp</title>
<path fill="none" stroke="black" d="M61.62,-1007.7C61.62,-999.47 61.62,-989.48 61.62,-980.42"/>
<polygon fill="black" stroke="black" points="64.08,-980.62 61.63,-973.62 59.18,-980.62 64.08,-980.62"/>
</g>
<!-- advcomp -->
<g id="node5" class="node">
<title>advcomp</title>
<path fill="#d4edda" stroke="black" d="M105.62,-900C105.62,-900 17.62,-900 17.62,-900 11.63,-900 5.63,-894 5.63,-888 5.63,-888 5.63,-876 5.63,-876 5.63,-870 11.63,-864 17.63,-864 17.63,-864 105.63,-864 105.63,-864 111.62,-864 117.62,-870 117.62,-876 117.62,-876 117.62,-888 117.62,-888 117.62,-894 111.62,-900 105.62,-900"/>
<text xml:space="preserve" text-anchor="middle" x="61.62" y="-883.75" font-family="Helvetica,sans-Serif" font-size="10.00">Conv. Adv. Composite</text>
<text xml:space="preserve" text-anchor="middle" x="61.62" y="-872.5" font-family="Helvetica,sans-Serif" font-size="10.00">375 RP</text>
</g>
<!-- comp&#45;&gt;advcomp -->
<g id="edge3" class="edge">
<title>comp&#45;&gt;advcomp</title>
<path fill="none" stroke="black" d="M61.62,-935.7C61.62,-927.47 61.62,-917.48 61.62,-908.42"/>
<polygon fill="black" stroke="black" points="64.08,-908.62 61.63,-901.62 59.18,-908.62 64.08,-908.62"/>
</g>
<!-- advcomp&#45;&gt;duranium -->
<g id="edge4" class="edge">
<title>advcomp&#45;&gt;duranium</title>
<path fill="none" stroke="black" d="M76.21,-863.7C83.64,-854.88 92.78,-844.03 100.84,-834.47"/>
<polygon fill="black" stroke="black" points="102.6,-836.19 105.23,-829.26 98.85,-833.04 102.6,-836.19"/>
</g>
<!-- hdduranium -->
<g id="node7" class="node">
<title>hdduranium</title>
<path fill="#cce5ff" stroke="black" d="M167.62,-756C167.62,-756 73.62,-756 73.62,-756 67.62,-756 61.62,-750 61.62,-744 61.62,-744 61.62,-732 61.62,-732 61.62,-726 67.62,-720 73.62,-720 73.62,-720 167.62,-720 167.62,-720 173.62,-720 179.62,-726 179.62,-732 179.62,-732 179.62,-744 179.62,-744 179.62,-750 173.62,-756 167.62,-756"/>
<text xml:space="preserve" text-anchor="middle" x="120.62" y="-739.75" font-family="Helvetica,sans-Serif" font-size="10.00">High Density Duranium</text>
<text xml:space="preserve" text-anchor="middle" x="120.62" y="-728.5" font-family="Helvetica,sans-Serif" font-size="10.00">2,500 RP</text>
</g>
<!-- duranium&#45;&gt;hdduranium -->
<g id="edge6" class="edge">
<title>duranium&#45;&gt;hdduranium</title>
<path fill="none" stroke="black" d="M120.62,-791.7C120.62,-783.47 120.62,-773.48 120.62,-764.42"/>
<polygon fill="black" stroke="black" points="123.08,-764.62 120.63,-757.62 118.18,-764.62 123.08,-764.62"/>
</g>
<!-- composite -->
<g id="node8" class="node">
<title>composite</title>
<path fill="#cce5ff" stroke="black" d="M157.12,-684C157.12,-684 84.12,-684 84.12,-684 78.12,-684 72.12,-678 72.12,-672 72.12,-672 72.12,-660 72.12,-660 72.12,-654 78.12,-648 84.12,-648 84.12,-648 157.12,-648 157.12,-648 163.12,-648 169.12,-654 169.12,-660 169.12,-660 169.12,-672 169.12,-672 169.12,-678 163.12,-684 157.12,-684"/>
<text xml:space="preserve" text-anchor="middle" x="120.62" y="-667.75" font-family="Helvetica,sans-Serif" font-size="10.00">Composite Armour</text>
<text xml:space="preserve" text-anchor="middle" x="120.62" y="-656.5" font-family="Helvetica,sans-Serif" font-size="10.00">5,000 RP</text>
</g>
<!-- hdduranium&#45;&gt;composite -->
<g id="edge7" class="edge">
<title>hdduranium&#45;&gt;composite</title>
<path fill="none" stroke="black" d="M120.62,-719.7C120.62,-711.47 120.62,-701.48 120.62,-692.42"/>
<polygon fill="black" stroke="black" points="123.08,-692.62 120.63,-685.62 118.18,-692.62 123.08,-692.62"/>
</g>
<!-- ceramic -->
<g id="node9" class="node">
<title>ceramic</title>
<path fill="#cce5ff" stroke="black" d="M160.12,-612C160.12,-612 81.12,-612 81.12,-612 75.12,-612 69.12,-606 69.12,-600 69.12,-600 69.12,-588 69.12,-588 69.12,-582 75.12,-576 81.12,-576 81.12,-576 160.12,-576 160.12,-576 166.12,-576 172.12,-582 172.12,-588 172.12,-588 172.12,-600 172.12,-600 172.12,-606 166.12,-612 160.12,-612"/>
<text xml:space="preserve" text-anchor="middle" x="120.62" y="-595.75" font-family="Helvetica,sans-Serif" font-size="10.00">Ceramic Composite</text>
<text xml:space="preserve" text-anchor="middle" x="120.62" y="-584.5" font-family="Helvetica,sans-Serif" font-size="10.00">10,000 RP</text>
</g>
<!-- composite&#45;&gt;ceramic -->
<g id="edge8" class="edge">
<title>composite&#45;&gt;ceramic</title>
<path fill="none" stroke="black" d="M120.62,-647.7C120.62,-639.47 120.62,-629.48 120.62,-620.42"/>
<polygon fill="black" stroke="black" points="123.08,-620.62 120.63,-613.62 118.18,-620.62 123.08,-620.62"/>
</g>
<!-- laminate -->
<g id="node10" class="node">
<title>laminate</title>
<path fill="#cce5ff" stroke="black" d="M161.62,-540C161.62,-540 79.62,-540 79.62,-540 73.62,-540 67.62,-534 67.62,-528 67.62,-528 67.62,-516 67.62,-516 67.62,-510 73.62,-504 79.62,-504 79.62,-504 161.62,-504 161.62,-504 167.62,-504 173.62,-510 173.62,-516 173.62,-516 173.62,-528 173.62,-528 173.62,-534 167.62,-540 161.62,-540"/>
<text xml:space="preserve" text-anchor="middle" x="120.62" y="-523.75" font-family="Helvetica,sans-Serif" font-size="10.00">Laminate Composite</text>
<text xml:space="preserve" text-anchor="middle" x="120.62" y="-512.5" font-family="Helvetica,sans-Serif" font-size="10.00">20,000 RP</text>
</g>
<!-- ceramic&#45;&gt;laminate -->
<g id="edge9" class="edge">
<title>ceramic&#45;&gt;laminate</title>
<path fill="none" stroke="black" d="M120.62,-575.7C120.62,-567.47 120.62,-557.48 120.62,-548.42"/>
<polygon fill="black" stroke="black" points="123.08,-548.62 120.63,-541.62 118.18,-548.62 123.08,-548.62"/>
</g>
<!-- carbon -->
<g id="node11" class="node">
<title>carbon</title>
<path fill="#cce5ff" stroke="black" d="M161.62,-468C161.62,-468 79.62,-468 79.62,-468 73.62,-468 67.62,-462 67.62,-456 67.62,-456 67.62,-444 67.62,-444 67.62,-438 73.62,-432 79.62,-432 79.62,-432 161.62,-432 161.62,-432 167.62,-432 173.62,-438 173.62,-444 173.62,-444 173.62,-456 173.62,-456 173.62,-462 167.62,-468 161.62,-468"/>
<text xml:space="preserve" text-anchor="middle" x="120.62" y="-451.75" font-family="Helvetica,sans-Serif" font-size="10.00">Compressed Carbon</text>
<text xml:space="preserve" text-anchor="middle" x="120.62" y="-440.5" font-family="Helvetica,sans-Serif" font-size="10.00">40,000 RP</text>
</g>
<!-- laminate&#45;&gt;carbon -->
<g id="edge10" class="edge">
<title>laminate&#45;&gt;carbon</title>
<path fill="none" stroke="black" d="M120.62,-503.7C120.62,-495.47 120.62,-485.48 120.62,-476.42"/>
<polygon fill="black" stroke="black" points="123.08,-476.62 120.63,-469.62 118.18,-476.62 123.08,-476.62"/>
</g>
<!-- biphase -->
<g id="node12" class="node">
<title>biphase</title>
<path fill="#cce5ff" stroke="black" d="M152.62,-396C152.62,-396 88.62,-396 88.62,-396 82.62,-396 76.62,-390 76.62,-384 76.62,-384 76.62,-372 76.62,-372 76.62,-366 82.62,-360 88.62,-360 88.62,-360 152.62,-360 152.62,-360 158.62,-360 164.62,-366 164.62,-372 164.62,-372 164.62,-384 164.62,-384 164.62,-390 158.62,-396 152.62,-396"/>
<text xml:space="preserve" text-anchor="middle" x="120.62" y="-379.75" font-family="Helvetica,sans-Serif" font-size="10.00">Biphase Carbide</text>
<text xml:space="preserve" text-anchor="middle" x="120.62" y="-368.5" font-family="Helvetica,sans-Serif" font-size="10.00">80,000 RP</text>
</g>
<!-- carbon&#45;&gt;biphase -->
<g id="edge11" class="edge">
<title>carbon&#45;&gt;biphase</title>
<path fill="none" stroke="black" d="M120.62,-431.7C120.62,-423.47 120.62,-413.48 120.62,-404.42"/>
<polygon fill="black" stroke="black" points="123.08,-404.62 120.63,-397.62 118.18,-404.62 123.08,-404.62"/>
</g>
<!-- crystal -->
<g id="node13" class="node">
<title>crystal</title>
<path fill="#cce5ff" stroke="black" d="M165,-324C165,-324 76.25,-324 76.25,-324 70.25,-324 64.25,-318 64.25,-312 64.25,-312 64.25,-300 64.25,-300 64.25,-294 70.25,-288 76.25,-288 76.25,-288 165,-288 165,-288 171,-288 177,-294 177,-300 177,-300 177,-312 177,-312 177,-318 171,-324 165,-324"/>
<text xml:space="preserve" text-anchor="middle" x="120.62" y="-307.75" font-family="Helvetica,sans-Serif" font-size="10.00">Crystalline Composite</text>
<text xml:space="preserve" text-anchor="middle" x="120.62" y="-296.5" font-family="Helvetica,sans-Serif" font-size="10.00">150,000 RP</text>
</g>
<!-- biphase&#45;&gt;crystal -->
<g id="edge12" class="edge">
<title>biphase&#45;&gt;crystal</title>
<path fill="none" stroke="black" d="M120.62,-359.7C120.62,-351.47 120.62,-341.48 120.62,-332.42"/>
<polygon fill="black" stroke="black" points="123.08,-332.62 120.63,-325.62 118.18,-332.62 123.08,-332.62"/>
</g>
<!-- superdense -->
<g id="node14" class="node">
<title>superdense</title>
<path fill="#cce5ff" stroke="black" d="M159.38,-252C159.38,-252 81.88,-252 81.88,-252 75.88,-252 69.88,-246 69.88,-240 69.88,-240 69.88,-228 69.88,-228 69.88,-222 75.88,-216 81.88,-216 81.88,-216 159.38,-216 159.38,-216 165.38,-216 171.38,-222 171.38,-228 171.38,-228 171.38,-240 171.38,-240 171.38,-246 165.38,-252 159.38,-252"/>
<text xml:space="preserve" text-anchor="middle" x="120.62" y="-235.75" font-family="Helvetica,sans-Serif" font-size="10.00">Superdense Armour</text>
<text xml:space="preserve" text-anchor="middle" x="120.62" y="-224.5" font-family="Helvetica,sans-Serif" font-size="10.00">300,000 RP</text>
</g>
<!-- crystal&#45;&gt;superdense -->
<g id="edge13" class="edge">
<title>crystal&#45;&gt;superdense</title>
<path fill="none" stroke="black" d="M120.62,-287.7C120.62,-279.47 120.62,-269.48 120.62,-260.42"/>
<polygon fill="black" stroke="black" points="123.08,-260.62 120.63,-253.62 118.18,-260.62 123.08,-260.62"/>
</g>
<!-- bonded -->
<g id="node15" class="node">
<title>bonded</title>
<path fill="#cce5ff" stroke="black" d="M160.5,-180C160.5,-180 80.75,-180 80.75,-180 74.75,-180 68.75,-174 68.75,-168 68.75,-168 68.75,-156 68.75,-156 68.75,-150 74.75,-144 80.75,-144 80.75,-144 160.5,-144 160.5,-144 166.5,-144 172.5,-150 172.5,-156 172.5,-156 172.5,-168 172.5,-168 172.5,-174 166.5,-180 160.5,-180"/>
<text xml:space="preserve" text-anchor="middle" x="120.62" y="-163.75" font-family="Helvetica,sans-Serif" font-size="10.00">Bonded Superdense</text>
<text xml:space="preserve" text-anchor="middle" x="120.62" y="-152.5" font-family="Helvetica,sans-Serif" font-size="10.00">600,000 RP</text>
</g>
<!-- superdense&#45;&gt;bonded -->
<g id="edge14" class="edge">
<title>superdense&#45;&gt;bonded</title>
<path fill="none" stroke="black" d="M120.62,-215.7C120.62,-207.47 120.62,-197.48 120.62,-188.42"/>
<polygon fill="black" stroke="black" points="123.08,-188.62 120.63,-181.62 118.18,-188.62 123.08,-188.62"/>
</g>
<!-- coherent -->
<g id="node16" class="node">
<title>coherent</title>
<path fill="#cce5ff" stroke="black" d="M163.88,-108C163.88,-108 77.38,-108 77.38,-108 71.38,-108 65.38,-102 65.38,-96 65.38,-96 65.38,-84 65.38,-84 65.38,-78 71.38,-72 77.38,-72 77.38,-72 163.88,-72 163.88,-72 169.88,-72 175.88,-78 175.88,-84 175.88,-84 175.88,-96 175.88,-96 175.88,-102 169.88,-108 163.88,-108"/>
<text xml:space="preserve" text-anchor="middle" x="120.62" y="-91.75" font-family="Helvetica,sans-Serif" font-size="10.00">Coherent Superdense</text>
<text xml:space="preserve" text-anchor="middle" x="120.62" y="-80.5" font-family="Helvetica,sans-Serif" font-size="10.00">1,250,000 RP</text>
</g>
<!-- bonded&#45;&gt;coherent -->
<g id="edge15" class="edge">
<title>bonded&#45;&gt;coherent</title>
<path fill="none" stroke="black" d="M120.62,-143.7C120.62,-135.47 120.62,-125.48 120.62,-116.42"/>
<polygon fill="black" stroke="black" points="123.08,-116.62 120.63,-109.62 118.18,-116.62 123.08,-116.62"/>
</g>
<!-- collapsium -->
<g id="node17" class="node">
<title>collapsium</title>
<path fill="#cce5ff" stroke="black" d="M157.88,-36C157.88,-36 83.38,-36 83.38,-36 77.38,-36 71.38,-30 71.38,-24 71.38,-24 71.38,-12 71.38,-12 71.38,-6 77.38,0 83.38,0 83.38,0 157.88,0 157.88,0 163.88,0 169.88,-6 169.88,-12 169.88,-12 169.88,-24 169.88,-24 169.88,-30 163.88,-36 157.88,-36"/>
<text xml:space="preserve" text-anchor="middle" x="120.62" y="-19.75" font-family="Helvetica,sans-Serif" font-size="10.00">Collapsium Armour</text>
<text xml:space="preserve" text-anchor="middle" x="120.62" y="-8.5" font-family="Helvetica,sans-Serif" font-size="10.00">2,500,000 RP</text>
</g>
<!-- coherent&#45;&gt;collapsium -->
<g id="edge16" class="edge">
<title>coherent&#45;&gt;collapsium</title>
<path fill="none" stroke="black" d="M120.62,-71.7C120.62,-63.47 120.62,-53.48 120.62,-44.42"/>
<polygon fill="black" stroke="black" points="123.08,-44.62 120.63,-37.62 118.18,-44.62 123.08,-44.62"/>
</g>
</g>
</svg>
