<?xml version="1.0" encoding="UTF-8" standalone="no"?>
<!DOCTYPE svg PUBLIC "-//W3C//DTD SVG 1.1//EN"
 "http://www.w3.org/Graphics/SVG/1.1/DTD/svg11.dtd">
<!-- Generated by graphviz version 14.1.2 (20260124.0452)
 -->
<!-- Title: TechTree Pages: 1 -->
<svg width="282pt" height="137pt"
 viewBox="0.00 0.00 282.00 137.00" xmlns="http://www.w3.org/2000/svg" xmlns:xlink="http://www.w3.org/1999/xlink">
<g id="graph0" class="graph" transform="scale(1 1) rotate(0) translate(4 132.75)">
<title>TechTree</title>
<polygon fill="white" stroke="none" points="-4,4 -4,-132.75 278.12,-132.75 278.12,4 -4,4"/>
<text xml:space="preserve" text-anchor="middle" x="137.06" y="-113.35" font-family="Helvetica,sans-Serif" font-weight="bold" font-size="12.00">Asteroid Mining Module</text>
<!-- Orbital_Mining_Module -->
<g id="node1" class="node">
<title>Orbital_Mining_Module</title>
<path fill="#cce5ff" stroke="black" d="M109,-36C109,-36 27,-36 27,-36 21,-36 15,-30 15,-24 15,-24 15,-12 15,-12 15,-6 21,0 27,0 27,0 109,0 109,0 115,0 121,-6 121,-12 121,-12 121,-24 121,-24 121,-30 115,-36 109,-36"/>
<text xml:space="preserve" text-anchor="middle" x="68" y="-19.2" font-family="Helvetica,sans-Serif" font-size="9.00">Orbital Mining Module</text>
<text xml:space="preserve" text-anchor="middle" x="68" y="-9.45" font-family="Helvetica,sans-Serif" font-size="9.00">5K RP</text>
</g>
<!-- Swarm_Extraction_Module -->
<g id="node2" class="node">
<title>Swarm_Extraction_Module</title>
<path fill="#fff3cd" stroke="black" d="M262.12,-108C262.12,-108 165.88,-108 165.88,-108 159.88,-108 153.88,-102 153.88,-96 153.88,-96 153.88,-84 153.88,-84 153.88,-78 159.88,-72 165.88,-72 165.88,-72 262.12,-72 262.12,-72 268.12,-72 274.12,-78 274.12,-84 274.12,-84 274.12,-96 274.12,-96 274.12,-102 268.12,-108 262.12,-108"/>
<text xml:space="preserve" text-anchor="middle" x="214" y="-91.2" font-family="Helvetica,sans-Serif" font-size="9.00">Swarm Extraction Module</text>
<text xml:space="preserve" text-anchor="middle" x="214" y="-81.45" font-family="Helvetica,sans-Serif" font-size="9.00">100K RP</text>
</g>
<!-- ext_Trans_Newtonian_Technology -->
<g id="node3" class="node">
<title>ext_Trans_Newtonian_Technology</title>
<path fill="#f0f0f0" stroke="black" stroke-dasharray="5,2" d="M124,-108C124,-108 12,-108 12,-108 6,-108 0,-102 0,-96 0,-96 0,-84 0,-84 0,-78 6,-72 12,-72 12,-72 124,-72 124,-72 130,-72 136,-78 136,-84 136,-84 136,-96 136,-96 136,-102 130,-108 124,-108"/>
<text xml:space="preserve" text-anchor="middle" x="68" y="-86.33" font-family="Helvetica,sans-Serif" font-size="9.00">Trans&#45;Newtonian Technology</text>
</g>
<!-- ext_Trans_Newtonian_Technology&#45;&gt;Orbital_Mining_Module -->
<g id="edge1" class="edge">
<title>ext_Trans_Newtonian_Technology&#45;&gt;Orbital_Mining_Module</title>
<path fill="none" stroke="black" d="M68,-71.7C68,-63.22 68,-52.86 68,-43.58"/>
<polygon fill="black" stroke="black" points="70.1,-43.62 68,-37.62 65.9,-43.62 70.1,-43.62"/>
</g>
</g>
</svg>
