<?xml version="1.0" encoding="UTF-8" standalone="no"?>
<!DOCTYPE svg PUBLIC "-//W3C//DTD SVG 1.1//EN"
 "http://www.w3.org/Graphics/SVG/1.1/DTD/svg11.dtd">
<!-- Generated by graphviz version 14.1.2 (20260124.0452)
 -->
<!-- Title: TechTree Pages: 1 -->
<svg width="179pt" height="125pt"
 viewBox="0.00 0.00 179.00 125.00" xmlns="http://www.w3.org/2000/svg" xmlns:xlink="http://www.w3.org/1999/xlink">
<g id="graph0" class="graph" transform="scale(1 1) rotate(0) translate(4 121)">
<title>TechTree</title>
<polygon fill="white" stroke="none" points="-4,4 -4,-121 174.5,-121 174.5,4 -4,4"/>
<text xml:space="preserve" text-anchor="middle" x="85.25" y="-99.7" font-family="Helvetica,sans-Serif" font-weight="bold" font-size="14.00">Asteroid Mining Module</text>
<!-- Orbital_Mining_Module -->
<g id="node1" class="node">
<title>Orbital_Mining_Module</title>
<path fill="#cce5ff" stroke="black" d="M128.5,-36C128.5,-36 42,-36 42,-36 36,-36 30,-30 30,-24 30,-24 30,-12 30,-12 30,-6 36,0 42,0 42,0 128.5,0 128.5,0 134.5,0 140.5,-6 140.5,-12 140.5,-12 140.5,-24 140.5,-24 140.5,-30 134.5,-36 128.5,-36"/>
<text xml:space="preserve" text-anchor="middle" x="85.25" y="-19.75" font-family="Helvetica,sans-Serif" font-size="10.00">Orbital Mining Module</text>
<text xml:space="preserve" text-anchor="middle" x="85.25" y="-8.5" font-family="Helvetica,sans-Serif" font-size="10.00">5K RP</text>
</g>
<!-- Swarm_Extraction_Module -->
<g id="node2" class="node">
<title>Swarm_Extraction_Module</title>
<path fill="#fff3cd" stroke="black" d="M137.5,-94C137.5,-94 33,-94 33,-94 27,-94 21,-88 21,-82 21,-82 21,-70 21,-70 21,-64 27,-58 33,-58 33,-58 137.5,-58 137.5,-58 143.5,-58 149.5,-64 149.5,-70 149.5,-70 149.5,-82 149.5,-82 149.5,-88 143.5,-94 137.5,-94"/>
<text xml:space="preserve" text-anchor="middle" x="85.25" y="-77.75" font-family="Helvetica,sans-Serif" font-size="10.00">Swarm Extraction Module</text>
<text xml:space="preserve" text-anchor="middle" x="85.25" y="-66.5" font-family="Helvetica,sans-Serif" font-size="10.00">100K RP</text>
</g>
</g>
</svg>
