<?xml version="1.0" encoding="UTF-8" standalone="no"?>
<!DOCTYPE svg PUBLIC "-//W3C//DTD SVG 1.1//EN"
 "http://www.w3.org/Graphics/SVG/1.1/DTD/svg11.dtd">
<!-- Generated by graphviz version 14.1.2 (20260124.0452)
 -->
<!-- Title: TechTree Pages: 1 -->
<svg width="593pt" height="65pt"
 viewBox="0.00 0.00 593.00 65.00" xmlns="http://www.w3.org/2000/svg" xmlns:xlink="http://www.w3.org/1999/xlink">
<g id="graph0" class="graph" transform="scale(1 1) rotate(0) translate(4 60.75)">
<title>TechTree</title>
<polygon fill="white" stroke="none" points="-4,4 -4,-60.75 588.5,-60.75 588.5,4 -4,4"/>
<text xml:space="preserve" text-anchor="middle" x="292.25" y="-41.35" font-family="Helvetica,sans-Serif" font-weight="bold" font-size="12.00">Autocannon Weapon</text>
<!-- Light_Autocannon__AP_2_DAM_2_S -->
<g id="node1" class="node">
<title>Light_Autocannon__AP_2_DAM_2_S</title>
<path fill="#cce5ff" stroke="black" d="M164.5,-36C164.5,-36 12,-36 12,-36 6,-36 0,-30 0,-24 0,-24 0,-12 0,-12 0,-6 6,0 12,0 12,0 164.5,0 164.5,0 170.5,0 176.5,-6 176.5,-12 176.5,-12 176.5,-24 176.5,-24 176.5,-30 170.5,-36 164.5,-36"/>
<text xml:space="preserve" text-anchor="middle" x="88.25" y="-19.2" font-family="Helvetica,sans-Serif" font-size="9.00">Light Autocannon: AP 2 DAM 2 SHOT 3</text>
<text xml:space="preserve" text-anchor="middle" x="88.25" y="-9.45" font-family="Helvetica,sans-Serif" font-size="9.00">600 RP</text>
</g>
<!-- Medium_Autocannon__AP_3_DAM_2_ -->
<g id="node2" class="node">
<title>Medium_Autocannon__AP_3_DAM_2_</title>
<path fill="#cce5ff" stroke="black" d="M371.88,-36C371.88,-36 206.62,-36 206.62,-36 200.62,-36 194.62,-30 194.62,-24 194.62,-24 194.62,-12 194.62,-12 194.62,-6 200.62,0 206.62,0 206.62,0 371.88,0 371.88,0 377.88,0 383.88,-6 383.88,-12 383.88,-12 383.88,-24 383.88,-24 383.88,-30 377.88,-36 371.88,-36"/>
<text xml:space="preserve" text-anchor="middle" x="289.25" y="-19.2" font-family="Helvetica,sans-Serif" font-size="9.00">Medium Autocannon: AP 3 DAM 2 SHOT 3</text>
<text xml:space="preserve" text-anchor="middle" x="289.25" y="-9.45" font-family="Helvetica,sans-Serif" font-size="9.00">1K RP</text>
</g>
<!-- Heavy_Autocannon__AP_5_DAM_2_S -->
<g id="node3" class="node">
<title>Heavy_Autocannon__AP_5_DAM_2_S</title>
<path fill="#cce5ff" stroke="black" d="M572.5,-36C572.5,-36 414,-36 414,-36 408,-36 402,-30 402,-24 402,-24 402,-12 402,-12 402,-6 408,0 414,0 414,0 572.5,0 572.5,0 578.5,0 584.5,-6 584.5,-12 584.5,-12 584.5,-24 584.5,-24 584.5,-30 578.5,-36 572.5,-36"/>
<text xml:space="preserve" text-anchor="middle" x="493.25" y="-19.2" font-family="Helvetica,sans-Serif" font-size="9.00">Heavy Autocannon: AP 5 DAM 2 SHOT 3</text>
<text xml:space="preserve" text-anchor="middle" x="493.25" y="-9.45" font-family="Helvetica,sans-Serif" font-size="9.00">2K RP</text>
</g>
</g>
</svg>
