<?xml version="1.0" encoding="UTF-8" standalone="no"?>
<!DOCTYPE svg PUBLIC "-//W3C//DTD SVG 1.1//EN"
 "http://www.w3.org/Graphics/SVG/1.1/DTD/svg11.dtd">
<!-- Generated by graphviz version 14.1.2 (20260124.0452)
 -->
<!-- Title: TechTree Pages: 1 -->
<svg width="212pt" height="183pt"
 viewBox="0.00 0.00 212.00 183.00" xmlns="http://www.w3.org/2000/svg" xmlns:xlink="http://www.w3.org/1999/xlink">
<g id="graph0" class="graph" transform="scale(1 1) rotate(0) translate(4 179)">
<title>TechTree</title>
<polygon fill="white" stroke="none" points="-4,4 -4,-179 208.25,-179 208.25,4 -4,4"/>
<text xml:space="preserve" text-anchor="middle" x="102.12" y="-157.7" font-family="Helvetica,sans-Serif" font-weight="bold" font-size="14.00">Autocannon Weapon</text>
<!-- Light_Autocannon__AP_2_DAM_2_S -->
<g id="node1" class="node">
<title>Light_Autocannon__AP_2_DAM_2_S</title>
<path fill="#cce5ff" stroke="black" d="M185.5,-36C185.5,-36 18.75,-36 18.75,-36 12.75,-36 6.75,-30 6.75,-24 6.75,-24 6.75,-12 6.75,-12 6.75,-6 12.75,0 18.75,0 18.75,0 185.5,0 185.5,0 191.5,0 197.5,-6 197.5,-12 197.5,-12 197.5,-24 197.5,-24 197.5,-30 191.5,-36 185.5,-36"/>
<text xml:space="preserve" text-anchor="middle" x="102.12" y="-19.75" font-family="Helvetica,sans-Serif" font-size="10.00">Light Autocannon: AP 2 DAM 2 SHOT 3</text>
<text xml:space="preserve" text-anchor="middle" x="102.12" y="-8.5" font-family="Helvetica,sans-Serif" font-size="10.00">600 RP</text>
</g>
<!-- Medium_Autocannon__AP_3_DAM_2_ -->
<g id="node2" class="node">
<title>Medium_Autocannon__AP_3_DAM_2_</title>
<path fill="#cce5ff" stroke="black" d="M192.25,-94C192.25,-94 12,-94 12,-94 6,-94 0,-88 0,-82 0,-82 0,-70 0,-70 0,-64 6,-58 12,-58 12,-58 192.25,-58 192.25,-58 198.25,-58 204.25,-64 204.25,-70 204.25,-70 204.25,-82 204.25,-82 204.25,-88 198.25,-94 192.25,-94"/>
<text xml:space="preserve" text-anchor="middle" x="102.12" y="-77.75" font-family="Helvetica,sans-Serif" font-size="10.00">Medium Autocannon: AP 3 DAM 2 SHOT 3</text>
<text xml:space="preserve" text-anchor="middle" x="102.12" y="-66.5" font-family="Helvetica,sans-Serif" font-size="10.00">1K RP</text>
</g>
<!-- Heavy_Autocannon__AP_5_DAM_2_S -->
<g id="node3" class="node">
<title>Heavy_Autocannon__AP_5_DAM_2_S</title>
<path fill="#cce5ff" stroke="black" d="M189.25,-152C189.25,-152 15,-152 15,-152 9,-152 3,-146 3,-140 3,-140 3,-128 3,-128 3,-122 9,-116 15,-116 15,-116 189.25,-116 189.25,-116 195.25,-116 201.25,-122 201.25,-128 201.25,-128 201.25,-140 201.25,-140 201.25,-146 195.25,-152 189.25,-152"/>
<text xml:space="preserve" text-anchor="middle" x="102.12" y="-135.75" font-family="Helvetica,sans-Serif" font-size="10.00">Heavy Autocannon: AP 5 DAM 2 SHOT 3</text>
<text xml:space="preserve" text-anchor="middle" x="102.12" y="-124.5" font-family="Helvetica,sans-Serif" font-size="10.00">2K RP</text>
</g>
</g>
</svg>
