<?xml version="1.0" encoding="UTF-8" standalone="no"?>
<!DOCTYPE svg PUBLIC "-//W3C//DTD SVG 1.1//EN"
 "http://www.w3.org/Graphics/SVG/1.1/DTD/svg11.dtd">
<!-- Generated by graphviz version 14.1.2 (20260124.0452)
 -->
<!-- Title: TechTree Pages: 1 -->
<svg width="191pt" height="65pt"
 viewBox="0.00 0.00 191.00 65.00" xmlns="http://www.w3.org/2000/svg" xmlns:xlink="http://www.w3.org/1999/xlink">
<g id="graph0" class="graph" transform="scale(1 1) rotate(0) translate(4 60.75)">
<title>TechTree</title>
<polygon fill="white" stroke="none" points="-4,4 -4,-60.75 187.25,-60.75 187.25,4 -4,4"/>
<text xml:space="preserve" text-anchor="middle" x="91.62" y="-41.35" font-family="Helvetica,sans-Serif" font-weight="bold" font-size="12.00">Background TNC Knowledge</text>
<!-- Trans_Newtonian_Technology -->
<g id="node1" class="node">
<title>Trans_Newtonian_Technology</title>
<path fill="#cce5ff" stroke="black" d="M147.62,-36C147.62,-36 35.62,-36 35.62,-36 29.62,-36 23.62,-30 23.62,-24 23.62,-24 23.62,-12 23.62,-12 23.62,-6 29.62,0 35.62,0 35.62,0 147.62,0 147.62,0 153.62,0 159.62,-6 159.62,-12 159.62,-12 159.62,-24 159.62,-24 159.62,-30 153.62,-36 147.62,-36"/>
<text xml:space="preserve" text-anchor="middle" x="91.62" y="-19.2" font-family="Helvetica,sans-Serif" font-size="9.00">Trans&#45;Newtonian Technology</text>
<text xml:space="preserve" text-anchor="middle" x="91.62" y="-9.45" font-family="Helvetica,sans-Serif" font-size="9.00">5K RP</text>
</g>
</g>
</svg>
