<?xml version="1.0" encoding="UTF-8" standalone="no"?>
<!DOCTYPE svg PUBLIC "-//W3C//DTD SVG 1.1//EN"
 "http://www.w3.org/Graphics/SVG/1.1/DTD/svg11.dtd">
<!-- Generated by graphviz version 14.1.2 (20260124.0452)
 -->
<!-- Title: TechTree Pages: 1 -->
<svg width="211pt" height="67pt"
 viewBox="0.00 0.00 211.00 67.00" xmlns="http://www.w3.org/2000/svg" xmlns:xlink="http://www.w3.org/1999/xlink">
<g id="graph0" class="graph" transform="scale(1 1) rotate(0) translate(4 63)">
<title>TechTree</title>
<polygon fill="white" stroke="none" points="-4,4 -4,-63 206.75,-63 206.75,4 -4,4"/>
<text xml:space="preserve" text-anchor="middle" x="101.38" y="-41.7" font-family="Helvetica,sans-Serif" font-weight="bold" font-size="14.00">Background TNC Knowledge</text>
<!-- Trans_Newtonian_Technology -->
<g id="node1" class="node">
<title>Trans_Newtonian_Technology</title>
<path fill="#cce5ff" stroke="black" d="M160.75,-36C160.75,-36 42,-36 42,-36 36,-36 30,-30 30,-24 30,-24 30,-12 30,-12 30,-6 36,0 42,0 42,0 160.75,0 160.75,0 166.75,0 172.75,-6 172.75,-12 172.75,-12 172.75,-24 172.75,-24 172.75,-30 166.75,-36 160.75,-36"/>
<text xml:space="preserve" text-anchor="middle" x="101.38" y="-19.75" font-family="Helvetica,sans-Serif" font-size="10.00">Trans&#45;Newtonian Technology</text>
<text xml:space="preserve" text-anchor="middle" x="101.38" y="-8.5" font-family="Helvetica,sans-Serif" font-size="10.00">5K RP</text>
</g>
</g>
</svg>
