<?xml version="1.0" encoding="UTF-8" standalone="no"?>
<!DOCTYPE svg PUBLIC "-//W3C//DTD SVG 1.1//EN"
 "http://www.w3.org/Graphics/SVG/1.1/DTD/svg11.dtd">
<!-- Generated by graphviz version 14.1.2 (20260124.0452)
 -->
<!-- Title: TechTree Pages: 1 -->
<svg width="565pt" height="137pt"
 viewBox="0.00 0.00 565.00 137.00" xmlns="http://www.w3.org/2000/svg" xmlns:xlink="http://www.w3.org/1999/xlink">
<g id="graph0" class="graph" transform="scale(1 1) rotate(0) translate(4 132.75)">
<title>TechTree</title>
<polygon fill="white" stroke="none" points="-4,4 -4,-132.75 561,-132.75 561,4 -4,4"/>
<text xml:space="preserve" text-anchor="middle" x="278.5" y="-113.35" font-family="Helvetica,sans-Serif" font-weight="bold" font-size="12.00">Base Oxygen Level</text>
<!-- Genome_Sequence__Normal_Oxygen -->
<g id="node1" class="node">
<title>Genome_Sequence__Normal_Oxygen</title>
<path fill="#d4edda" stroke="black" d="M176.5,-108C176.5,-108 12,-108 12,-108 6,-108 0,-102 0,-96 0,-96 0,-84 0,-84 0,-78 6,-72 12,-72 12,-72 176.5,-72 176.5,-72 182.5,-72 188.5,-78 188.5,-84 188.5,-84 188.5,-96 188.5,-96 188.5,-102 182.5,-108 176.5,-108"/>
<text xml:space="preserve" text-anchor="middle" x="94.25" y="-91.2" font-family="Helvetica,sans-Serif" font-size="9.00">Genome Sequence: Normal Oxygen Level</text>
<text xml:space="preserve" text-anchor="middle" x="94.25" y="-81.45" font-family="Helvetica,sans-Serif" font-size="9.00">1 RP</text>
</g>
<!-- Genome_Sequence__Base_Oxygen_L -->
<g id="node2" class="node">
<title>Genome_Sequence__Base_Oxygen_L</title>
<path fill="#fff3cd" stroke="black" d="M365,-36C365,-36 185.5,-36 185.5,-36 179.5,-36 173.5,-30 173.5,-24 173.5,-24 173.5,-12 173.5,-12 173.5,-6 179.5,0 185.5,0 185.5,0 365,0 365,0 371,0 377,-6 377,-12 377,-12 377,-24 377,-24 377,-30 371,-36 365,-36"/>
<text xml:space="preserve" text-anchor="middle" x="275.25" y="-19.2" font-family="Helvetica,sans-Serif" font-size="9.00">Genome Sequence: Base Oxygen Level &#45;75%</text>
<text xml:space="preserve" text-anchor="middle" x="275.25" y="-9.45" font-family="Helvetica,sans-Serif" font-size="9.00">64K RP</text>
</g>
<!-- Genome_Sequence__Base_Oxygen_L&#45;&gt;Genome_Sequence__Base_Oxygen_L -->
<g id="edge3" class="edge">
<title>Genome_Sequence__Base_Oxygen_L&#45;&gt;Genome_Sequence__Base_Oxygen_L</title>
<path fill="none" stroke="black" d="M377.45,-19.24C388.15,-19 395,-18.59 395,-18 395,-17.56 391.15,-17.22 384.71,-16.97"/>
<polygon fill="black" stroke="black" points="385.03,-14.88 378.97,-16.8 384.9,-19.08 385.03,-14.88"/>
</g>
<!-- Genome_Sequence__Base_Oxygen_L&#45;&gt;Genome_Sequence__Base_Oxygen_L -->
<g id="edge4" class="edge">
<title>Genome_Sequence__Base_Oxygen_L&#45;&gt;Genome_Sequence__Base_Oxygen_L</title>
<path fill="none" stroke="black" d="M377.37,-20.89C398.13,-20.57 413,-19.61 413,-18 413,-16.59 401.62,-15.68 384.87,-15.26"/>
<polygon fill="black" stroke="black" points="384.93,-13.16 378.89,-15.14 384.84,-17.36 384.93,-13.16"/>
</g>
<!-- Genome_Sequence__Base_Oxygen_L&#45;&gt;Genome_Sequence__Base_Oxygen_L -->
<g id="edge5" class="edge">
<title>Genome_Sequence__Base_Oxygen_L&#45;&gt;Genome_Sequence__Base_Oxygen_L</title>
<path fill="none" stroke="black" d="M377.48,-22.49C407.61,-22.34 431,-20.85 431,-18 431,-15.39 411.29,-13.91 384.75,-13.57"/>
<polygon fill="black" stroke="black" points="385.02,-11.48 379,-13.52 384.98,-15.68 385.02,-11.48"/>
</g>
<!-- Genome_Sequence__Base_Oxygen_L&#45;&gt;Genome_Sequence__Base_Oxygen_L -->
<g id="edge6" class="edge">
<title>Genome_Sequence__Base_Oxygen_L&#45;&gt;Genome_Sequence__Base_Oxygen_L</title>
<path fill="none" stroke="black" d="M377.41,-23.98C416.55,-24.23 449,-22.23 449,-18 449,-14.03 420.48,-12.03 384.66,-12"/>
<polygon fill="black" stroke="black" points="384.92,-9.9 378.92,-12.02 384.93,-14.1 384.92,-9.9"/>
</g>
<!-- Genome_Sequence__Base_Oxygen_L&#45;&gt;Genome_Sequence__Base_Oxygen_L -->
<g id="edge7" class="edge">
<title>Genome_Sequence__Base_Oxygen_L&#45;&gt;Genome_Sequence__Base_Oxygen_L</title>
<path fill="none" stroke="black" d="M377.34,-25.34C425.14,-26.17 467,-23.72 467,-18 467,-12.58 429.44,-10.1 384.85,-10.55"/>
<polygon fill="black" stroke="black" points="384.83,-8.45 378.86,-10.64 384.89,-12.65 384.83,-8.45"/>
</g>
<!-- Genome_Sequence__Base_Oxygen_L&#45;&gt;Genome_Sequence__Base_Oxygen_L -->
<g id="edge8" class="edge">
<title>Genome_Sequence__Base_Oxygen_L&#45;&gt;Genome_Sequence__Base_Oxygen_L</title>
<path fill="none" stroke="black" d="M377.5,-26.59C433.57,-28.14 485,-25.28 485,-18 485,-11.04 437.9,-8.11 384.7,-9.23"/>
<polygon fill="black" stroke="black" points="384.96,-7.13 379.01,-9.37 385.06,-11.32 384.96,-7.13"/>
</g>
<!-- Genome_Sequence__Base_Oxygen_L&#45;&gt;Genome_Sequence__Base_Oxygen_L -->
<g id="edge9" class="edge">
<title>Genome_Sequence__Base_Oxygen_L&#45;&gt;Genome_Sequence__Base_Oxygen_L</title>
<path fill="none" stroke="black" d="M377.42,-27.73C441.63,-30.14 503,-26.9 503,-18 503,-9.45 446.33,-6.12 384.93,-8.02"/>
<polygon fill="black" stroke="black" points="384.86,-5.92 378.93,-8.22 385,-10.12 384.86,-5.92"/>
</g>
<!-- Genome_Sequence__Base_Oxygen_L&#45;&gt;Genome_Sequence__Base_Oxygen_L -->
<g id="edge10" class="edge">
<title>Genome_Sequence__Base_Oxygen_L&#45;&gt;Genome_Sequence__Base_Oxygen_L</title>
<path fill="none" stroke="black" d="M377.18,-28.75C449.39,-32.16 521,-28.58 521,-18 521,-7.77 454.07,-4.08 384.37,-6.93"/>
<polygon fill="black" stroke="black" points="384.6,-4.82 378.7,-7.18 384.78,-9.01 384.6,-4.82"/>
</g>
<!-- Genome_Sequence__Base_Oxygen_L&#45;&gt;Genome_Sequence__Base_Oxygen_L -->
<g id="edge11" class="edge">
<title>Genome_Sequence__Base_Oxygen_L&#45;&gt;Genome_Sequence__Base_Oxygen_L</title>
<path fill="none" stroke="black" d="M377.44,-29.72C457.3,-34.18 539,-30.27 539,-18 539,-6.11 462.33,-2.08 384.93,-5.89"/>
<polygon fill="black" stroke="black" points="384.83,-3.79 378.95,-6.2 385.05,-7.98 384.83,-3.79"/>
</g>
<!-- Genome_Sequence__Base_Oxygen_L&#45;&gt;Genome_Sequence__Base_Oxygen_L -->
<g id="edge12" class="edge">
<title>Genome_Sequence__Base_Oxygen_L&#45;&gt;Genome_Sequence__Base_Oxygen_L</title>
<path fill="none" stroke="black" d="M377.45,-30.6C464.91,-36.2 557,-32 557,-18 557,-4.39 470.05,-0.04 384.89,-4.95"/>
<polygon fill="black" stroke="black" points="384.82,-2.85 378.96,-5.31 385.08,-7.04 384.82,-2.85"/>
</g>
<!-- ext_Genome_Sequence_Research -->
<g id="node3" class="node">
<title>ext_Genome_Sequence_Research</title>
<path fill="#f0f0f0" stroke="black" stroke-dasharray="5,2" d="M332,-108C332,-108 218.5,-108 218.5,-108 212.5,-108 206.5,-102 206.5,-96 206.5,-96 206.5,-84 206.5,-84 206.5,-78 212.5,-72 218.5,-72 218.5,-72 332,-72 332,-72 338,-72 344,-78 344,-84 344,-84 344,-96 344,-96 344,-102 338,-108 332,-108"/>
<text xml:space="preserve" text-anchor="middle" x="275.25" y="-86.33" font-family="Helvetica,sans-Serif" font-size="9.00">Genome Sequence Research</text>
</g>
<!-- ext_Genome_Sequence_Research&#45;&gt;Genome_Sequence__Base_Oxygen_L -->
<g id="edge1" class="edge">
<title>ext_Genome_Sequence_Research&#45;&gt;Genome_Sequence__Base_Oxygen_L</title>
<path fill="none" stroke="black" d="M269.33,-71.7C268.46,-63.22 268.27,-52.86 268.77,-43.58"/>
<polygon fill="black" stroke="black" points="270.87,-43.76 269.24,-37.61 266.68,-43.43 270.87,-43.76"/>
</g>
<!-- ext_Genome_Sequence_Research&#45;&gt;Genome_Sequence__Base_Oxygen_L -->
<g id="edge2" class="edge">
<title>ext_Genome_Sequence_Research&#45;&gt;Genome_Sequence__Base_Oxygen_L</title>
<path fill="none" stroke="black" d="M281.17,-71.7C282.04,-63.22 282.23,-52.86 281.73,-43.58"/>
<polygon fill="black" stroke="black" points="283.82,-43.43 281.26,-37.61 279.63,-43.76 283.82,-43.43"/>
</g>
</g>
</svg>
