<?xml version="1.0" encoding="UTF-8" standalone="no"?>
<!DOCTYPE svg PUBLIC "-//W3C//DTD SVG 1.1//EN"
 "http://www.w3.org/Graphics/SVG/1.1/DTD/svg11.dtd">
<!-- Generated by graphviz version 14.1.2 (20260124.0452)
 -->
<!-- Title: TechTree Pages: 1 -->
<svg width="618pt" height="137pt"
 viewBox="0.00 0.00 618.00 137.00" xmlns="http://www.w3.org/2000/svg" xmlns:xlink="http://www.w3.org/1999/xlink">
<g id="graph0" class="graph" transform="scale(1 1) rotate(0) translate(4 132.97)">
<title>TechTree</title>
<polygon fill="white" stroke="none" points="-4,4 -4,-132.97 613.5,-132.97 613.5,4 -4,4"/>
<text xml:space="preserve" text-anchor="middle" x="304.75" y="-113.57" font-family="Helvetica,sans-Serif" font-weight="bold" font-size="12.00">Base Temperature</text>
<!-- Genome_Sequence__Normal_Base_T -->
<g id="node1" class="node">
<title>Genome_Sequence__Normal_Base_T</title>
<path fill="#d4edda" stroke="black" d="M195.25,-108.22C195.25,-108.22 12,-108.22 12,-108.22 6,-108.22 0,-102.22 0,-96.22 0,-96.22 0,-84.22 0,-84.22 0,-78.22 6,-72.22 12,-72.22 12,-72.22 195.25,-72.22 195.25,-72.22 201.25,-72.22 207.25,-78.22 207.25,-84.22 207.25,-84.22 207.25,-96.22 207.25,-96.22 207.25,-102.22 201.25,-108.22 195.25,-108.22"/>
<text xml:space="preserve" text-anchor="middle" x="103.63" y="-91.42" font-family="Helvetica,sans-Serif" font-size="9.00">Genome Sequence: Normal Base Temperature</text>
<text xml:space="preserve" text-anchor="middle" x="103.63" y="-81.67" font-family="Helvetica,sans-Serif" font-size="9.00">1 RP</text>
</g>
<!-- Genome_Sequence__Base_Temperat -->
<g id="node2" class="node">
<title>Genome_Sequence__Base_Temperat</title>
<path fill="#d4c4fb" stroke="black" d="M381.5,-36.22C381.5,-36.22 205.75,-36.22 205.75,-36.22 199.75,-36.22 193.75,-30.22 193.75,-24.22 193.75,-24.22 193.75,-12.22 193.75,-12.22 193.75,-6.22 199.75,-0.22 205.75,-0.22 205.75,-0.22 381.5,-0.22 381.5,-0.22 387.5,-0.22 393.5,-6.22 393.5,-12.22 393.5,-12.22 393.5,-24.22 393.5,-24.22 393.5,-30.22 387.5,-36.22 381.5,-36.22"/>
<text xml:space="preserve" text-anchor="middle" x="293.62" y="-19.42" font-family="Helvetica,sans-Serif" font-size="9.00">Genome Sequence: Base Temperature +90C</text>
<text xml:space="preserve" text-anchor="middle" x="293.62" y="-9.67" font-family="Helvetica,sans-Serif" font-size="9.00">128K RP</text>
</g>
<!-- Genome_Sequence__Base_Temperat&#45;&gt;Genome_Sequence__Base_Temperat -->
<g id="edge3" class="edge">
<title>Genome_Sequence__Base_Temperat&#45;&gt;Genome_Sequence__Base_Temperat</title>
<path fill="none" stroke="black" d="M393.81,-19.48C404.57,-19.23 411.5,-18.82 411.5,-18.22 411.5,-17.78 407.6,-17.43 401.11,-17.18"/>
<polygon fill="black" stroke="black" points="401.38,-15.09 395.32,-17.01 401.26,-19.29 401.38,-15.09"/>
</g>
<!-- Genome_Sequence__Base_Temperat&#45;&gt;Genome_Sequence__Base_Temperat -->
<g id="edge4" class="edge">
<title>Genome_Sequence__Base_Temperat&#45;&gt;Genome_Sequence__Base_Temperat</title>
<path fill="none" stroke="black" d="M393.76,-21.12C414.55,-20.81 429.5,-19.85 429.5,-18.22 429.5,-16.8 418.05,-15.88 401.27,-15.47"/>
<polygon fill="black" stroke="black" points="401.31,-13.37 395.27,-15.36 401.23,-17.57 401.31,-13.37"/>
</g>
<!-- Genome_Sequence__Base_Temperat&#45;&gt;Genome_Sequence__Base_Temperat -->
<g id="edge5" class="edge">
<title>Genome_Sequence__Base_Temperat&#45;&gt;Genome_Sequence__Base_Temperat</title>
<path fill="none" stroke="black" d="M393.89,-22.71C424.01,-22.59 447.5,-21.09 447.5,-18.22 447.5,-15.59 427.71,-14.11 401.16,-13.79"/>
<polygon fill="black" stroke="black" points="401.42,-11.69 395.41,-13.74 401.39,-15.89 401.42,-11.69"/>
</g>
<!-- Genome_Sequence__Base_Temperat&#45;&gt;Genome_Sequence__Base_Temperat -->
<g id="edge6" class="edge">
<title>Genome_Sequence__Base_Temperat&#45;&gt;Genome_Sequence__Base_Temperat</title>
<path fill="none" stroke="black" d="M393.82,-24.2C432.92,-24.48 465.5,-22.49 465.5,-18.22 465.5,-14.22 436.87,-12.22 401.07,-12.22"/>
<polygon fill="black" stroke="black" points="401.33,-10.12 395.34,-12.24 401.35,-14.32 401.33,-10.12"/>
</g>
<!-- Genome_Sequence__Base_Temperat&#45;&gt;Genome_Sequence__Base_Temperat -->
<g id="edge7" class="edge">
<title>Genome_Sequence__Base_Temperat&#45;&gt;Genome_Sequence__Base_Temperat</title>
<path fill="none" stroke="black" d="M393.75,-25.55C441.48,-26.43 483.5,-23.98 483.5,-18.22 483.5,-12.76 445.79,-10.29 401.25,-10.79"/>
<polygon fill="black" stroke="black" points="401.23,-8.69 395.26,-10.87 401.29,-12.88 401.23,-8.69"/>
</g>
<!-- Genome_Sequence__Base_Temperat&#45;&gt;Genome_Sequence__Base_Temperat -->
<g id="edge8" class="edge">
<title>Genome_Sequence__Base_Temperat&#45;&gt;Genome_Sequence__Base_Temperat</title>
<path fill="none" stroke="black" d="M393.89,-26.78C449.87,-28.4 501.5,-25.55 501.5,-18.22 501.5,-11.21 454.22,-8.3 401.08,-9.48"/>
<polygon fill="black" stroke="black" points="401.34,-7.37 395.4,-9.62 401.45,-11.57 401.34,-7.37"/>
</g>
<!-- Genome_Sequence__Base_Temperat&#45;&gt;Genome_Sequence__Base_Temperat -->
<g id="edge9" class="edge">
<title>Genome_Sequence__Base_Temperat&#45;&gt;Genome_Sequence__Base_Temperat</title>
<path fill="none" stroke="black" d="M393.78,-27.9C457.89,-30.4 519.5,-27.18 519.5,-18.22 519.5,-9.62 462.61,-6.3 401.28,-8.27"/>
<polygon fill="black" stroke="black" points="401.21,-6.18 395.29,-8.49 401.36,-10.37 401.21,-6.18"/>
</g>
<!-- Genome_Sequence__Base_Temperat&#45;&gt;Genome_Sequence__Base_Temperat -->
<g id="edge10" class="edge">
<title>Genome_Sequence__Base_Temperat&#45;&gt;Genome_Sequence__Base_Temperat</title>
<path fill="none" stroke="black" d="M393.83,-28.93C465.8,-32.42 537.5,-28.85 537.5,-18.22 537.5,-7.95 470.49,-4.27 400.99,-7.19"/>
<polygon fill="black" stroke="black" points="401.24,-5.08 395.34,-7.45 401.43,-9.27 401.24,-5.08"/>
</g>
<!-- Genome_Sequence__Base_Temperat&#45;&gt;Genome_Sequence__Base_Temperat -->
<g id="edge11" class="edge">
<title>Genome_Sequence__Base_Temperat&#45;&gt;Genome_Sequence__Base_Temperat</title>
<path fill="none" stroke="black" d="M393.72,-29.86C473.45,-34.44 555.5,-30.56 555.5,-18.22 555.5,-6.27 478.5,-2.25 401.2,-6.18"/>
<polygon fill="black" stroke="black" points="401.11,-4.08 395.24,-6.5 401.34,-8.27 401.11,-4.08"/>
</g>
<!-- Genome_Sequence__Base_Temperat&#45;&gt;Genome_Sequence__Base_Temperat -->
<g id="edge12" class="edge">
<title>Genome_Sequence__Base_Temperat&#45;&gt;Genome_Sequence__Base_Temperat</title>
<path fill="none" stroke="black" d="M393.69,-30.72C481,-36.47 573.5,-32.3 573.5,-18.22 573.5,-4.54 486.16,-0.22 401.12,-5.26"/>
<polygon fill="black" stroke="black" points="401.06,-3.16 395.2,-5.63 401.32,-7.35 401.06,-3.16"/>
</g>
<!-- Genome_Sequence__Base_Temperat&#45;&gt;Genome_Sequence__Base_Temperat -->
<g id="edge13" class="edge">
<title>Genome_Sequence__Base_Temperat&#45;&gt;Genome_Sequence__Base_Temperat</title>
<path fill="none" stroke="black" d="M393.95,-31.54C488.63,-38.49 591.5,-34.06 591.5,-18.22 591.5,-2.79 493.79,1.82 401.18,-4.4"/>
<polygon fill="black" stroke="black" points="401.3,-2.29 395.46,-4.8 401.59,-6.48 401.3,-2.29"/>
</g>
<!-- Genome_Sequence__Base_Temperat&#45;&gt;Genome_Sequence__Base_Temperat -->
<g id="edge14" class="edge">
<title>Genome_Sequence__Base_Temperat&#45;&gt;Genome_Sequence__Base_Temperat</title>
<path fill="none" stroke="black" d="M393.9,-32.27C495.93,-40.53 609.5,-35.85 609.5,-18.22 609.5,-1.01 501.19,3.86 401.09,-3.62"/>
<polygon fill="black" stroke="black" points="401.22,-1.5 395.41,-4.06 401.55,-5.69 401.22,-1.5"/>
</g>
<!-- ext_Genome_Sequence_Research -->
<g id="node3" class="node">
<title>ext_Genome_Sequence_Research</title>
<path fill="#f0f0f0" stroke="black" stroke-dasharray="5,2" d="M350.38,-108.22C350.38,-108.22 236.88,-108.22 236.88,-108.22 230.88,-108.22 224.88,-102.22 224.88,-96.22 224.88,-96.22 224.88,-84.22 224.88,-84.22 224.88,-78.22 230.88,-72.22 236.88,-72.22 236.88,-72.22 350.38,-72.22 350.38,-72.22 356.38,-72.22 362.38,-78.22 362.38,-84.22 362.38,-84.22 362.38,-96.22 362.38,-96.22 362.38,-102.22 356.38,-108.22 350.38,-108.22"/>
<text xml:space="preserve" text-anchor="middle" x="293.62" y="-86.55" font-family="Helvetica,sans-Serif" font-size="9.00">Genome Sequence Research</text>
</g>
<!-- ext_Genome_Sequence_Research&#45;&gt;Genome_Sequence__Base_Temperat -->
<g id="edge1" class="edge">
<title>ext_Genome_Sequence_Research&#45;&gt;Genome_Sequence__Base_Temperat</title>
<path fill="none" stroke="black" d="M287.71,-71.92C286.83,-63.44 286.65,-53.09 287.15,-43.81"/>
<polygon fill="black" stroke="black" points="289.24,-43.98 287.61,-37.84 285.05,-43.65 289.24,-43.98"/>
</g>
<!-- ext_Genome_Sequence_Research&#45;&gt;Genome_Sequence__Base_Temperat -->
<g id="edge2" class="edge">
<title>ext_Genome_Sequence_Research&#45;&gt;Genome_Sequence__Base_Temperat</title>
<path fill="none" stroke="black" d="M299.54,-71.92C300.42,-63.44 300.6,-53.09 300.1,-43.81"/>
<polygon fill="black" stroke="black" points="302.2,-43.65 299.64,-37.84 298.01,-43.98 302.2,-43.65"/>
</g>
</g>
</svg>
