<?xml version="1.0" encoding="UTF-8" standalone="no"?>
<!DOCTYPE svg PUBLIC "-//W3C//DTD SVG 1.1//EN"
 "http://www.w3.org/Graphics/SVG/1.1/DTD/svg11.dtd">
<!-- Generated by graphviz version 14.1.2 (20260124.0452)
 -->
<!-- Title: TechTree Pages: 1 -->
<svg width="610pt" height="67pt"
 viewBox="0.00 0.00 610.00 67.00" xmlns="http://www.w3.org/2000/svg" xmlns:xlink="http://www.w3.org/1999/xlink">
<g id="graph0" class="graph" transform="scale(1 1) rotate(0) translate(4 63)">
<title>TechTree</title>
<polygon fill="white" stroke="none" points="-4,4 -4,-63 605.5,-63 605.5,4 -4,4"/>
<text xml:space="preserve" text-anchor="middle" x="300.75" y="-41.7" font-family="Helvetica,sans-Serif" font-weight="bold" font-size="14.00">Base Gravity</text>
<!-- Genome_Sequence__Normal_Gravit -->
<g id="node1" class="node">
<title>Genome_Sequence__Normal_Gravit</title>
<path fill="#d4edda" stroke="black" d="M159.25,-36C159.25,-36 12,-36 12,-36 6,-36 0,-30 0,-24 0,-24 0,-12 0,-12 0,-6 6,0 12,0 12,0 159.25,0 159.25,0 165.25,0 171.25,-6 171.25,-12 171.25,-12 171.25,-24 171.25,-24 171.25,-30 165.25,-36 159.25,-36"/>
<text xml:space="preserve" text-anchor="middle" x="85.62" y="-19.75" font-family="Helvetica,sans-Serif" font-size="10.00">Genome Sequence: Normal Gravity</text>
<text xml:space="preserve" text-anchor="middle" x="85.62" y="-8.5" font-family="Helvetica,sans-Serif" font-size="10.00">1 RP</text>
</g>
<!-- Genome_Sequence__Base_Gravity_ -->
<g id="node2" class="node">
<title>Genome_Sequence__Base_Gravity_</title>
<path fill="#fff3cd" stroke="black" d="M369.5,-36C369.5,-36 205.75,-36 205.75,-36 199.75,-36 193.75,-30 193.75,-24 193.75,-24 193.75,-12 193.75,-12 193.75,-6 199.75,0 205.75,0 205.75,0 369.5,0 369.5,0 375.5,0 381.5,-6 381.5,-12 381.5,-12 381.5,-24 381.5,-24 381.5,-30 375.5,-36 369.5,-36"/>
<text xml:space="preserve" text-anchor="middle" x="287.62" y="-19.75" font-family="Helvetica,sans-Serif" font-size="10.00">Genome Sequence: Base Gravity &#45;90%</text>
<text xml:space="preserve" text-anchor="middle" x="287.62" y="-8.5" font-family="Helvetica,sans-Serif" font-size="10.00">64K RP</text>
</g>
<!-- Genome_Sequence__Base_Gravity_&#45;&gt;Genome_Sequence__Base_Gravity_ -->
<g id="edge1" class="edge">
<title>Genome_Sequence__Base_Gravity_&#45;&gt;Genome_Sequence__Base_Gravity_</title>
<path fill="none" stroke="black" d="M381.74,-19.34C394.78,-19.12 403.5,-18.67 403.5,-18 403.5,-17.49 398.39,-17.1 390.14,-16.85"/>
<polygon fill="black" stroke="black" points="390.31,-14.41 383.25,-16.7 390.19,-19.31 390.31,-14.41"/>
</g>
<!-- Genome_Sequence__Base_Gravity_&#45;&gt;Genome_Sequence__Base_Gravity_ -->
<g id="edge2" class="edge">
<title>Genome_Sequence__Base_Gravity_&#45;&gt;Genome_Sequence__Base_Gravity_</title>
<path fill="none" stroke="black" d="M381.71,-20.97C406.63,-20.8 425.5,-19.81 425.5,-18 425.5,-16.4 410.79,-15.44 390.2,-15.12"/>
<polygon fill="black" stroke="black" points="390.25,-12.67 383.22,-15.04 390.2,-17.57 390.25,-12.67"/>
</g>
<!-- Genome_Sequence__Base_Gravity_&#45;&gt;Genome_Sequence__Base_Gravity_ -->
<g id="edge3" class="edge">
<title>Genome_Sequence__Base_Gravity_&#45;&gt;Genome_Sequence__Base_Gravity_</title>
<path fill="none" stroke="black" d="M381.63,-22.48C417.64,-22.67 447.5,-21.18 447.5,-18 447.5,-15.07 422.12,-13.57 389.94,-13.5"/>
<polygon fill="black" stroke="black" points="390.14,-11.05 383.14,-13.51 390.14,-15.95 390.14,-11.05"/>
</g>
<!-- Genome_Sequence__Base_Gravity_&#45;&gt;Genome_Sequence__Base_Gravity_ -->
<g id="edge4" class="edge">
<title>Genome_Sequence__Base_Gravity_&#45;&gt;Genome_Sequence__Base_Gravity_</title>
<path fill="none" stroke="black" d="M381.67,-23.83C428.15,-24.62 469.5,-22.67 469.5,-18 469.5,-13.61 433,-11.63 390.05,-12.06"/>
<polygon fill="black" stroke="black" points="390.15,-9.61 383.18,-12.15 390.22,-14.5 390.15,-9.61"/>
</g>
<!-- Genome_Sequence__Base_Gravity_&#45;&gt;Genome_Sequence__Base_Gravity_ -->
<g id="edge5" class="edge">
<title>Genome_Sequence__Base_Gravity_&#45;&gt;Genome_Sequence__Base_Gravity_</title>
<path fill="none" stroke="black" d="M382,-25.03C438.41,-26.59 491.5,-24.25 491.5,-18 491.5,-12.06 443.47,-9.64 390.23,-10.77"/>
<polygon fill="black" stroke="black" points="390.45,-8.31 383.51,-10.93 390.57,-13.21 390.45,-8.31"/>
</g>
<!-- Genome_Sequence__Base_Gravity_&#45;&gt;Genome_Sequence__Base_Gravity_ -->
<g id="edge6" class="edge">
<title>Genome_Sequence__Base_Gravity_&#45;&gt;Genome_Sequence__Base_Gravity_</title>
<path fill="none" stroke="black" d="M381.9,-26.09C448.07,-28.61 513.5,-25.91 513.5,-18 513.5,-10.41 453.33,-7.62 390.04,-9.63"/>
<polygon fill="black" stroke="black" points="390.33,-7.17 383.42,-9.86 390.5,-12.06 390.33,-7.17"/>
</g>
<!-- Genome_Sequence__Base_Gravity_&#45;&gt;Genome_Sequence__Base_Gravity_ -->
<g id="edge7" class="edge">
<title>Genome_Sequence__Base_Gravity_&#45;&gt;Genome_Sequence__Base_Gravity_</title>
<path fill="none" stroke="black" d="M381.73,-27.02C457.39,-30.63 535.5,-27.62 535.5,-18 535.5,-8.73 463.08,-5.6 390.16,-8.6"/>
<polygon fill="black" stroke="black" points="390.12,-6.15 383.24,-8.91 390.34,-11.05 390.12,-6.15"/>
</g>
<!-- Genome_Sequence__Base_Gravity_&#45;&gt;Genome_Sequence__Base_Gravity_ -->
<g id="edge8" class="edge">
<title>Genome_Sequence__Base_Gravity_&#45;&gt;Genome_Sequence__Base_Gravity_</title>
<path fill="none" stroke="black" d="M381.67,-27.86C466.56,-32.66 557.5,-29.38 557.5,-18 557.5,-7 472.5,-3.56 390.14,-7.68"/>
<polygon fill="black" stroke="black" points="390.04,-5.24 383.18,-8.06 390.3,-10.13 390.04,-5.24"/>
</g>
<!-- Genome_Sequence__Base_Gravity_&#45;&gt;Genome_Sequence__Base_Gravity_ -->
<g id="edge9" class="edge">
<title>Genome_Sequence__Base_Gravity_&#45;&gt;Genome_Sequence__Base_Gravity_</title>
<path fill="none" stroke="black" d="M381.78,-28.63C475.67,-34.69 579.5,-31.15 579.5,-18 579.5,-5.24 481.67,-1.52 390.06,-6.86"/>
<polygon fill="black" stroke="black" points="390.13,-4.4 383.29,-7.28 390.43,-9.29 390.13,-4.4"/>
</g>
<!-- Genome_Sequence__Base_Gravity_&#45;&gt;Genome_Sequence__Base_Gravity_ -->
<g id="edge10" class="edge">
<title>Genome_Sequence__Base_Gravity_&#45;&gt;Genome_Sequence__Base_Gravity_</title>
<path fill="none" stroke="black" d="M381.61,-29.31C484.41,-36.73 601.5,-32.96 601.5,-18 601.5,-3.45 490.72,0.52 390.07,-6.11"/>
<polygon fill="black" stroke="black" points="389.94,-3.66 383.12,-6.59 390.27,-8.55 389.94,-3.66"/>
</g>
</g>
</svg>
