<?xml version="1.0" encoding="UTF-8" standalone="no"?>
<!DOCTYPE svg PUBLIC "-//W3C//DTD SVG 1.1//EN"
 "http://www.w3.org/Graphics/SVG/1.1/DTD/svg11.dtd">
<!-- Generated by graphviz version 14.1.2 (20260124.0452)
 -->
<!-- Title: TechTree Pages: 1 -->
<svg width="666pt" height="67pt"
 viewBox="0.00 0.00 666.00 67.00" xmlns="http://www.w3.org/2000/svg" xmlns:xlink="http://www.w3.org/1999/xlink">
<g id="graph0" class="graph" transform="scale(1 1) rotate(0) translate(4 63)">
<title>TechTree</title>
<polygon fill="white" stroke="none" points="-4,4 -4,-63 662,-63 662,4 -4,4"/>
<text xml:space="preserve" text-anchor="middle" x="329" y="-41.7" font-family="Helvetica,sans-Serif" font-weight="bold" font-size="14.00">Base Oxygen Level</text>
<!-- Genome_Sequence__Normal_Oxygen -->
<g id="node1" class="node">
<title>Genome_Sequence__Normal_Oxygen</title>
<path fill="#d4edda" stroke="black" d="M187.75,-36C187.75,-36 12,-36 12,-36 6,-36 0,-30 0,-24 0,-24 0,-12 0,-12 0,-6 6,0 12,0 12,0 187.75,0 187.75,0 193.75,0 199.75,-6 199.75,-12 199.75,-12 199.75,-24 199.75,-24 199.75,-30 193.75,-36 187.75,-36"/>
<text xml:space="preserve" text-anchor="middle" x="99.88" y="-19.75" font-family="Helvetica,sans-Serif" font-size="10.00">Genome Sequence: Normal Oxygen Level</text>
<text xml:space="preserve" text-anchor="middle" x="99.88" y="-8.5" font-family="Helvetica,sans-Serif" font-size="10.00">1 RP</text>
</g>
<!-- Genome_Sequence__Base_Oxygen_L -->
<g id="node2" class="node">
<title>Genome_Sequence__Base_Oxygen_L</title>
<path fill="#fff3cd" stroke="black" d="M426,-36C426,-36 233.75,-36 233.75,-36 227.75,-36 221.75,-30 221.75,-24 221.75,-24 221.75,-12 221.75,-12 221.75,-6 227.75,0 233.75,0 233.75,0 426,0 426,0 432,0 438,-6 438,-12 438,-12 438,-24 438,-24 438,-30 432,-36 426,-36"/>
<text xml:space="preserve" text-anchor="middle" x="329.88" y="-19.75" font-family="Helvetica,sans-Serif" font-size="10.00">Genome Sequence: Base Oxygen Level &#45;75%</text>
<text xml:space="preserve" text-anchor="middle" x="329.88" y="-8.5" font-family="Helvetica,sans-Serif" font-size="10.00">64K RP</text>
</g>
<!-- Genome_Sequence__Base_Oxygen_L&#45;&gt;Genome_Sequence__Base_Oxygen_L -->
<g id="edge1" class="edge">
<title>Genome_Sequence__Base_Oxygen_L&#45;&gt;Genome_Sequence__Base_Oxygen_L</title>
<path fill="none" stroke="black" d="M438.07,-19.3C451.32,-19.07 460,-18.63 460,-18 460,-17.52 454.91,-17.15 446.58,-16.9"/>
<polygon fill="black" stroke="black" points="446.64,-14.45 439.58,-16.74 446.52,-19.35 446.64,-14.45"/>
</g>
<!-- Genome_Sequence__Base_Oxygen_L&#45;&gt;Genome_Sequence__Base_Oxygen_L -->
<g id="edge2" class="edge">
<title>Genome_Sequence__Base_Oxygen_L&#45;&gt;Genome_Sequence__Base_Oxygen_L</title>
<path fill="none" stroke="black" d="M438.24,-20.94C463.45,-20.69 482,-19.71 482,-18 482,-16.48 467.41,-15.54 446.53,-15.17"/>
<polygon fill="black" stroke="black" points="446.79,-12.73 439.75,-15.08 446.72,-17.63 446.79,-12.73"/>
</g>
<!-- Genome_Sequence__Base_Oxygen_L&#45;&gt;Genome_Sequence__Base_Oxygen_L -->
<g id="edge3" class="edge">
<title>Genome_Sequence__Base_Oxygen_L&#45;&gt;Genome_Sequence__Base_Oxygen_L</title>
<path fill="none" stroke="black" d="M438.28,-22.5C474.75,-22.51 504,-21.01 504,-18 504,-15.22 479.14,-13.73 446.68,-13.52"/>
<polygon fill="black" stroke="black" points="446.8,-11.08 439.79,-13.5 446.78,-15.98 446.8,-11.08"/>
</g>
<!-- Genome_Sequence__Base_Oxygen_L&#45;&gt;Genome_Sequence__Base_Oxygen_L -->
<g id="edge4" class="edge">
<title>Genome_Sequence__Base_Oxygen_L&#45;&gt;Genome_Sequence__Base_Oxygen_L</title>
<path fill="none" stroke="black" d="M438.29,-23.92C485.49,-24.43 526,-22.45 526,-18 526,-13.82 490.24,-11.82 446.78,-12.01"/>
<polygon fill="black" stroke="black" points="446.78,-9.56 439.8,-12.07 446.82,-14.46 446.78,-9.56"/>
</g>
<!-- Genome_Sequence__Base_Oxygen_L&#45;&gt;Genome_Sequence__Base_Oxygen_L -->
<g id="edge5" class="edge">
<title>Genome_Sequence__Base_Oxygen_L&#45;&gt;Genome_Sequence__Base_Oxygen_L</title>
<path fill="none" stroke="black" d="M438.46,-25.21C495.89,-26.39 548,-23.99 548,-18 548,-12.31 500.85,-9.85 446.83,-10.64"/>
<polygon fill="black" stroke="black" points="446.93,-8.19 439.97,-10.77 447.01,-13.09 446.93,-8.19"/>
</g>
<!-- Genome_Sequence__Base_Oxygen_L&#45;&gt;Genome_Sequence__Base_Oxygen_L -->
<g id="edge6" class="edge">
<title>Genome_Sequence__Base_Oxygen_L&#45;&gt;Genome_Sequence__Base_Oxygen_L</title>
<path fill="none" stroke="black" d="M438.22,-26.36C505.7,-28.39 570,-25.61 570,-18 570,-10.71 510.86,-7.85 446.5,-9.42"/>
<polygon fill="black" stroke="black" points="446.66,-6.96 439.73,-9.6 446.8,-11.86 446.66,-6.96"/>
</g>
<!-- Genome_Sequence__Base_Oxygen_L&#45;&gt;Genome_Sequence__Base_Oxygen_L -->
<g id="edge7" class="edge">
<title>Genome_Sequence__Base_Oxygen_L&#45;&gt;Genome_Sequence__Base_Oxygen_L</title>
<path fill="none" stroke="black" d="M438.26,-27.4C515.39,-30.4 592,-27.27 592,-18 592,-9.06 520.68,-5.83 446.39,-8.31"/>
<polygon fill="black" stroke="black" points="446.68,-5.85 439.77,-8.55 446.86,-10.74 446.68,-5.85"/>
</g>
<!-- Genome_Sequence__Base_Oxygen_L&#45;&gt;Genome_Sequence__Base_Oxygen_L -->
<g id="edge8" class="edge">
<title>Genome_Sequence__Base_Oxygen_L&#45;&gt;Genome_Sequence__Base_Oxygen_L</title>
<path fill="none" stroke="black" d="M438.48,-28.35C524.98,-32.42 614,-28.97 614,-18 614,-7.38 530.62,-3.81 446.85,-7.28"/>
<polygon fill="black" stroke="black" points="446.88,-4.83 439.99,-7.59 447.09,-9.72 446.88,-4.83"/>
</g>
<!-- Genome_Sequence__Base_Oxygen_L&#45;&gt;Genome_Sequence__Base_Oxygen_L -->
<g id="edge9" class="edge">
<title>Genome_Sequence__Base_Oxygen_L&#45;&gt;Genome_Sequence__Base_Oxygen_L</title>
<path fill="none" stroke="black" d="M438.14,-29.19C533.98,-34.46 636,-30.73 636,-18 636,-5.65 539.87,-1.77 446.57,-6.37"/>
<polygon fill="black" stroke="black" points="446.51,-3.92 439.65,-6.74 446.77,-8.82 446.51,-3.92"/>
</g>
<!-- Genome_Sequence__Base_Oxygen_L&#45;&gt;Genome_Sequence__Base_Oxygen_L -->
<g id="edge10" class="edge">
<title>Genome_Sequence__Base_Oxygen_L&#45;&gt;Genome_Sequence__Base_Oxygen_L</title>
<path fill="none" stroke="black" d="M438.27,-29.97C543.14,-36.48 658,-32.49 658,-18 658,-3.89 549.12,0.27 446.58,-5.53"/>
<polygon fill="black" stroke="black" points="446.62,-3.08 439.78,-5.94 446.91,-7.97 446.62,-3.08"/>
</g>
</g>
</svg>
