<?xml version="1.0" encoding="UTF-8" standalone="no"?>
<!DOCTYPE svg PUBLIC "-//W3C//DTD SVG 1.1//EN"
 "http://www.w3.org/Graphics/SVG/1.1/DTD/svg11.dtd">
<!-- Generated by graphviz version 14.1.2 (20260124.0452)
 -->
<!-- Title: TechTree Pages: 1 -->
<svg width="523pt" height="137pt"
 viewBox="0.00 0.00 523.00 137.00" xmlns="http://www.w3.org/2000/svg" xmlns:xlink="http://www.w3.org/1999/xlink">
<g id="graph0" class="graph" transform="scale(1 1) rotate(0) translate(4 132.75)">
<title>TechTree</title>
<polygon fill="white" stroke="none" points="-4,4 -4,-132.75 519.25,-132.75 519.25,4 -4,4"/>
<text xml:space="preserve" text-anchor="middle" x="257.62" y="-113.35" font-family="Helvetica,sans-Serif" font-weight="bold" font-size="12.00">Base Gravity</text>
<!-- Genome_Sequence__Normal_Gravit -->
<g id="node1" class="node">
<title>Genome_Sequence__Normal_Gravit</title>
<path fill="#d4edda" stroke="black" d="M148.75,-108C148.75,-108 12,-108 12,-108 6,-108 0,-102 0,-96 0,-96 0,-84 0,-84 0,-78 6,-72 12,-72 12,-72 148.75,-72 148.75,-72 154.75,-72 160.75,-78 160.75,-84 160.75,-84 160.75,-96 160.75,-96 160.75,-102 154.75,-108 148.75,-108"/>
<text xml:space="preserve" text-anchor="middle" x="80.38" y="-91.2" font-family="Helvetica,sans-Serif" font-size="9.00">Genome Sequence: Normal Gravity</text>
<text xml:space="preserve" text-anchor="middle" x="80.38" y="-81.45" font-family="Helvetica,sans-Serif" font-size="9.00">1 RP</text>
</g>
<!-- Genome_Sequence__Base_Gravity_ -->
<g id="node2" class="node">
<title>Genome_Sequence__Base_Gravity_</title>
<path fill="#fff3cd" stroke="black" d="M323.25,-36C323.25,-36 171.5,-36 171.5,-36 165.5,-36 159.5,-30 159.5,-24 159.5,-24 159.5,-12 159.5,-12 159.5,-6 165.5,0 171.5,0 171.5,0 323.25,0 323.25,0 329.25,0 335.25,-6 335.25,-12 335.25,-12 335.25,-24 335.25,-24 335.25,-30 329.25,-36 323.25,-36"/>
<text xml:space="preserve" text-anchor="middle" x="247.38" y="-19.2" font-family="Helvetica,sans-Serif" font-size="9.00">Genome Sequence: Base Gravity &#45;90%</text>
<text xml:space="preserve" text-anchor="middle" x="247.38" y="-9.45" font-family="Helvetica,sans-Serif" font-size="9.00">64K RP</text>
</g>
<!-- Genome_Sequence__Base_Gravity_&#45;&gt;Genome_Sequence__Base_Gravity_ -->
<g id="edge3" class="edge">
<title>Genome_Sequence__Base_Gravity_&#45;&gt;Genome_Sequence__Base_Gravity_</title>
<path fill="none" stroke="black" d="M335.4,-19.3C346.18,-19.07 353.25,-18.63 353.25,-18 353.25,-17.53 349.28,-17.16 342.74,-16.91"/>
<polygon fill="black" stroke="black" points="342.98,-14.82 336.92,-16.75 342.85,-19.02 342.98,-14.82"/>
</g>
<!-- Genome_Sequence__Base_Gravity_&#45;&gt;Genome_Sequence__Base_Gravity_ -->
<g id="edge4" class="edge">
<title>Genome_Sequence__Base_Gravity_&#45;&gt;Genome_Sequence__Base_Gravity_</title>
<path fill="none" stroke="black" d="M335.62,-20.94C356.14,-20.69 371.25,-19.71 371.25,-18 371.25,-16.5 359.68,-15.57 343.04,-15.19"/>
<polygon fill="black" stroke="black" points="343.16,-13.09 337.13,-15.09 343.09,-17.29 343.16,-13.09"/>
</g>
<!-- Genome_Sequence__Base_Gravity_&#45;&gt;Genome_Sequence__Base_Gravity_ -->
<g id="edge5" class="edge">
<title>Genome_Sequence__Base_Gravity_&#45;&gt;Genome_Sequence__Base_Gravity_</title>
<path fill="none" stroke="black" d="M335.7,-22.5C365.42,-22.51 389.25,-21.01 389.25,-18 389.25,-15.24 369.17,-13.74 342.89,-13.53"/>
<polygon fill="black" stroke="black" points="343.22,-11.43 337.21,-13.51 343.21,-15.63 343.22,-11.43"/>
</g>
<!-- Genome_Sequence__Base_Gravity_&#45;&gt;Genome_Sequence__Base_Gravity_ -->
<g id="edge6" class="edge">
<title>Genome_Sequence__Base_Gravity_&#45;&gt;Genome_Sequence__Base_Gravity_</title>
<path fill="none" stroke="black" d="M335.34,-23.92C373.99,-24.44 407.25,-22.47 407.25,-18 407.25,-13.81 378.02,-11.82 342.52,-12.01"/>
<polygon fill="black" stroke="black" points="342.84,-9.91 336.86,-12.07 342.88,-14.11 342.84,-9.91"/>
</g>
<!-- Genome_Sequence__Base_Gravity_&#45;&gt;Genome_Sequence__Base_Gravity_ -->
<g id="edge7" class="edge">
<title>Genome_Sequence__Base_Gravity_&#45;&gt;Genome_Sequence__Base_Gravity_</title>
<path fill="none" stroke="black" d="M335.69,-25.2C382.62,-26.4 425.25,-24 425.25,-18 425.25,-12.32 386.99,-9.87 343.07,-10.64"/>
<polygon fill="black" stroke="black" points="343.16,-8.54 337.21,-10.77 343.25,-12.74 343.16,-8.54"/>
</g>
<!-- Genome_Sequence__Base_Gravity_&#45;&gt;Genome_Sequence__Base_Gravity_ -->
<g id="edge8" class="edge">
<title>Genome_Sequence__Base_Gravity_&#45;&gt;Genome_Sequence__Base_Gravity_</title>
<path fill="none" stroke="black" d="M335.5,-26.35C390.63,-28.4 443.25,-25.62 443.25,-18 443.25,-10.72 395.26,-7.86 342.91,-9.41"/>
<polygon fill="black" stroke="black" points="342.94,-7.3 337.01,-9.6 343.08,-11.5 342.94,-7.3"/>
</g>
<!-- Genome_Sequence__Base_Gravity_&#45;&gt;Genome_Sequence__Base_Gravity_ -->
<g id="edge9" class="edge">
<title>Genome_Sequence__Base_Gravity_&#45;&gt;Genome_Sequence__Base_Gravity_</title>
<path fill="none" stroke="black" d="M335.53,-27.38C398.56,-30.41 461.25,-27.28 461.25,-18 461.25,-9.08 403.36,-5.84 342.91,-8.29"/>
<polygon fill="black" stroke="black" points="342.94,-6.19 337.04,-8.55 343.13,-10.38 342.94,-6.19"/>
</g>
<!-- Genome_Sequence__Base_Gravity_&#45;&gt;Genome_Sequence__Base_Gravity_ -->
<g id="edge10" class="edge">
<title>Genome_Sequence__Base_Gravity_&#45;&gt;Genome_Sequence__Base_Gravity_</title>
<path fill="none" stroke="black" d="M335.71,-28.33C406.39,-32.43 479.25,-28.98 479.25,-18 479.25,-7.4 411.43,-3.82 343.17,-7.27"/>
<polygon fill="black" stroke="black" points="343.09,-5.17 337.22,-7.59 343.32,-9.36 343.09,-5.17"/>
</g>
<!-- Genome_Sequence__Base_Gravity_&#45;&gt;Genome_Sequence__Base_Gravity_ -->
<g id="edge11" class="edge">
<title>Genome_Sequence__Base_Gravity_&#45;&gt;Genome_Sequence__Base_Gravity_</title>
<path fill="none" stroke="black" d="M335.74,-29.19C413.98,-34.46 497.25,-30.73 497.25,-18 497.25,-5.67 419.1,-1.79 343.09,-6.35"/>
<polygon fill="black" stroke="black" points="343.11,-4.24 337.25,-6.72 343.38,-8.43 343.11,-4.24"/>
</g>
<!-- Genome_Sequence__Base_Gravity_&#45;&gt;Genome_Sequence__Base_Gravity_ -->
<g id="edge12" class="edge">
<title>Genome_Sequence__Base_Gravity_&#45;&gt;Genome_Sequence__Base_Gravity_</title>
<path fill="none" stroke="black" d="M335.52,-29.95C421.23,-36.49 515.25,-32.51 515.25,-18 515.25,-3.9 426.48,0.26 342.82,-5.52"/>
<polygon fill="black" stroke="black" points="342.86,-3.41 337.03,-5.94 343.17,-7.6 342.86,-3.41"/>
</g>
<!-- ext_Genome_Sequence_Research -->
<g id="node3" class="node">
<title>ext_Genome_Sequence_Research</title>
<path fill="#f0f0f0" stroke="black" stroke-dasharray="5,2" d="M304.12,-108C304.12,-108 190.62,-108 190.62,-108 184.62,-108 178.62,-102 178.62,-96 178.62,-96 178.62,-84 178.62,-84 178.62,-78 184.62,-72 190.62,-72 190.62,-72 304.12,-72 304.12,-72 310.12,-72 316.12,-78 316.12,-84 316.12,-84 316.12,-96 316.12,-96 316.12,-102 310.12,-108 304.12,-108"/>
<text xml:space="preserve" text-anchor="middle" x="247.38" y="-86.33" font-family="Helvetica,sans-Serif" font-size="9.00">Genome Sequence Research</text>
</g>
<!-- ext_Genome_Sequence_Research&#45;&gt;Genome_Sequence__Base_Gravity_ -->
<g id="edge1" class="edge">
<title>ext_Genome_Sequence_Research&#45;&gt;Genome_Sequence__Base_Gravity_</title>
<path fill="none" stroke="black" d="M241.46,-71.7C240.58,-63.22 240.4,-52.86 240.9,-43.58"/>
<polygon fill="black" stroke="black" points="242.99,-43.76 241.36,-37.61 238.8,-43.43 242.99,-43.76"/>
</g>
<!-- ext_Genome_Sequence_Research&#45;&gt;Genome_Sequence__Base_Gravity_ -->
<g id="edge2" class="edge">
<title>ext_Genome_Sequence_Research&#45;&gt;Genome_Sequence__Base_Gravity_</title>
<path fill="none" stroke="black" d="M253.29,-71.7C254.17,-63.22 254.35,-52.86 253.85,-43.58"/>
<polygon fill="black" stroke="black" points="255.95,-43.43 253.39,-37.61 251.76,-43.76 255.95,-43.43"/>
</g>
</g>
</svg>
