<?xml version="1.0" encoding="UTF-8" standalone="no"?>
<!DOCTYPE svg PUBLIC "-//W3C//DTD SVG 1.1//EN"
 "http://www.w3.org/Graphics/SVG/1.1/DTD/svg11.dtd">
<!-- Generated by graphviz version 14.1.2 (20260124.0452)
 -->
<!-- Title: TechTree Pages: 1 -->
<svg width="726pt" height="68pt"
 viewBox="0.00 0.00 726.00 68.00" xmlns="http://www.w3.org/2000/svg" xmlns:xlink="http://www.w3.org/1999/xlink">
<g id="graph0" class="graph" transform="scale(1 1) rotate(0) translate(4 63.56)">
<title>TechTree</title>
<polygon fill="white" stroke="none" points="-4,4 -4,-63.56 721.5,-63.56 721.5,4 -4,4"/>
<text xml:space="preserve" text-anchor="middle" x="358.75" y="-42.26" font-family="Helvetica,sans-Serif" font-weight="bold" font-size="14.00">Base Temperature</text>
<!-- Genome_Sequence__Normal_Base_T -->
<g id="node1" class="node">
<title>Genome_Sequence__Normal_Base_T</title>
<path fill="#d4edda" stroke="black" d="M207.25,-36.27C207.25,-36.27 12,-36.27 12,-36.27 6,-36.27 0,-30.27 0,-24.27 0,-24.27 0,-12.27 0,-12.27 0,-6.27 6,-0.27 12,-0.27 12,-0.27 207.25,-0.27 207.25,-0.27 213.25,-0.27 219.25,-6.27 219.25,-12.27 219.25,-12.27 219.25,-24.27 219.25,-24.27 219.25,-30.27 213.25,-36.27 207.25,-36.27"/>
<text xml:space="preserve" text-anchor="middle" x="109.62" y="-20.02" font-family="Helvetica,sans-Serif" font-size="10.00">Genome Sequence: Normal Base Temperature</text>
<text xml:space="preserve" text-anchor="middle" x="109.62" y="-8.77" font-family="Helvetica,sans-Serif" font-size="10.00">1 RP</text>
</g>
<!-- Genome_Sequence__Base_Temperat -->
<g id="node2" class="node">
<title>Genome_Sequence__Base_Temperat</title>
<path fill="#d4c4fb" stroke="black" d="M441.5,-36.27C441.5,-36.27 253.75,-36.27 253.75,-36.27 247.75,-36.27 241.75,-30.27 241.75,-24.27 241.75,-24.27 241.75,-12.27 241.75,-12.27 241.75,-6.27 247.75,-0.27 253.75,-0.27 253.75,-0.27 441.5,-0.27 441.5,-0.27 447.5,-0.27 453.5,-6.27 453.5,-12.27 453.5,-12.27 453.5,-24.27 453.5,-24.27 453.5,-30.27 447.5,-36.27 441.5,-36.27"/>
<text xml:space="preserve" text-anchor="middle" x="347.62" y="-20.02" font-family="Helvetica,sans-Serif" font-size="10.00">Genome Sequence: Base Temperature +90C</text>
<text xml:space="preserve" text-anchor="middle" x="347.62" y="-8.77" font-family="Helvetica,sans-Serif" font-size="10.00">128K RP</text>
</g>
<!-- Genome_Sequence__Base_Temperat&#45;&gt;Genome_Sequence__Base_Temperat -->
<g id="edge1" class="edge">
<title>Genome_Sequence__Base_Temperat&#45;&gt;Genome_Sequence__Base_Temperat</title>
<path fill="none" stroke="black" d="M453.95,-19.57C466.97,-19.34 475.5,-18.9 475.5,-18.27 475.5,-17.79 470.5,-17.42 462.31,-17.17"/>
<polygon fill="black" stroke="black" points="462.52,-14.72 455.46,-17.01 462.4,-19.62 462.52,-14.72"/>
</g>
<!-- Genome_Sequence__Base_Temperat&#45;&gt;Genome_Sequence__Base_Temperat -->
<g id="edge2" class="edge">
<title>Genome_Sequence__Base_Temperat&#45;&gt;Genome_Sequence__Base_Temperat</title>
<path fill="none" stroke="black" d="M453.71,-21.22C478.88,-20.98 497.5,-20 497.5,-18.27 497.5,-16.74 482.86,-15.8 461.99,-15.44"/>
<polygon fill="black" stroke="black" points="462.25,-12.99 455.22,-15.35 462.19,-17.89 462.25,-12.99"/>
</g>
<!-- Genome_Sequence__Base_Temperat&#45;&gt;Genome_Sequence__Base_Temperat -->
<g id="edge3" class="edge">
<title>Genome_Sequence__Base_Temperat&#45;&gt;Genome_Sequence__Base_Temperat</title>
<path fill="none" stroke="black" d="M453.79,-22.77C490.18,-22.81 519.5,-21.31 519.5,-18.27 519.5,-15.47 494.58,-13.98 462.17,-13.79"/>
<polygon fill="black" stroke="black" points="462.3,-11.34 455.3,-13.78 462.29,-16.24 462.3,-11.34"/>
</g>
<!-- Genome_Sequence__Base_Temperat&#45;&gt;Genome_Sequence__Base_Temperat -->
<g id="edge4" class="edge">
<title>Genome_Sequence__Base_Temperat&#45;&gt;Genome_Sequence__Base_Temperat</title>
<path fill="none" stroke="black" d="M453.81,-24.18C500.89,-24.73 541.5,-22.76 541.5,-18.27 541.5,-14.06 505.66,-12.06 462.28,-12.29"/>
<polygon fill="black" stroke="black" points="462.3,-9.84 455.32,-12.35 462.35,-14.74 462.3,-9.84"/>
</g>
<!-- Genome_Sequence__Base_Temperat&#45;&gt;Genome_Sequence__Base_Temperat -->
<g id="edge5" class="edge">
<title>Genome_Sequence__Base_Temperat&#45;&gt;Genome_Sequence__Base_Temperat</title>
<path fill="none" stroke="black" d="M453.98,-25.46C511.25,-26.69 563.5,-24.3 563.5,-18.27 563.5,-12.54 516.23,-10.09 462.32,-10.93"/>
<polygon fill="black" stroke="black" points="462.44,-8.48 455.49,-11.06 462.53,-13.38 462.44,-8.48"/>
</g>
<!-- Genome_Sequence__Base_Temperat&#45;&gt;Genome_Sequence__Base_Temperat -->
<g id="edge6" class="edge">
<title>Genome_Sequence__Base_Temperat&#45;&gt;Genome_Sequence__Base_Temperat</title>
<path fill="none" stroke="black" d="M453.72,-26.59C521.01,-28.7 585.5,-25.92 585.5,-18.27 585.5,-10.93 526.19,-8.08 461.98,-9.72"/>
<polygon fill="black" stroke="black" points="462.16,-7.26 455.23,-9.91 462.3,-12.16 462.16,-7.26"/>
</g>
<!-- Genome_Sequence__Base_Temperat&#45;&gt;Genome_Sequence__Base_Temperat -->
<g id="edge7" class="edge">
<title>Genome_Sequence__Base_Temperat&#45;&gt;Genome_Sequence__Base_Temperat</title>
<path fill="none" stroke="black" d="M453.73,-27.61C530.65,-30.71 607.5,-27.6 607.5,-18.27 607.5,-9.28 535.96,-6.06 461.84,-8.63"/>
<polygon fill="black" stroke="black" points="462.14,-6.16 455.24,-8.87 462.32,-11.06 462.14,-6.16"/>
</g>
<!-- Genome_Sequence__Base_Temperat&#45;&gt;Genome_Sequence__Base_Temperat -->
<g id="edge8" class="edge">
<title>Genome_Sequence__Base_Temperat&#45;&gt;Genome_Sequence__Base_Temperat</title>
<path fill="none" stroke="black" d="M453.9,-28.55C540.17,-32.73 629.5,-29.3 629.5,-18.27 629.5,-7.6 545.84,-4.04 462.25,-7.61"/>
<polygon fill="black" stroke="black" points="462.3,-5.16 455.41,-7.93 462.52,-10.05 462.3,-5.16"/>
</g>
<!-- Genome_Sequence__Base_Temperat&#45;&gt;Genome_Sequence__Base_Temperat -->
<g id="edge9" class="edge">
<title>Genome_Sequence__Base_Temperat&#45;&gt;Genome_Sequence__Base_Temperat</title>
<path fill="none" stroke="black" d="M453.91,-29.39C549.39,-34.76 651.5,-31.05 651.5,-18.27 651.5,-5.87 555.28,-2.01 462.32,-6.7"/>
<polygon fill="black" stroke="black" points="462.28,-4.25 455.42,-7.07 462.54,-9.15 462.28,-4.25"/>
</g>
<!-- Genome_Sequence__Base_Temperat&#45;&gt;Genome_Sequence__Base_Temperat -->
<g id="edge10" class="edge">
<title>Genome_Sequence__Base_Temperat&#45;&gt;Genome_Sequence__Base_Temperat</title>
<path fill="none" stroke="black" d="M453.59,-30.14C558.2,-36.8 673.5,-32.84 673.5,-18.27 673.5,-4.09 564.2,0.04 461.89,-5.9"/>
<polygon fill="black" stroke="black" points="461.94,-3.44 455.1,-6.31 462.24,-8.33 461.94,-3.44"/>
</g>
<!-- Genome_Sequence__Base_Temperat&#45;&gt;Genome_Sequence__Base_Temperat -->
<g id="edge11" class="edge">
<title>Genome_Sequence__Base_Temperat&#45;&gt;Genome_Sequence__Base_Temperat</title>
<path fill="none" stroke="black" d="M453.58,-30.84C567.08,-38.83 695.5,-34.64 695.5,-18.27 695.5,-2.3 573.27,2.08 461.92,-5.14"/>
<polygon fill="black" stroke="black" points="461.91,-2.69 455.09,-5.6 462.24,-7.58 461.91,-2.69"/>
</g>
<!-- Genome_Sequence__Base_Temperat&#45;&gt;Genome_Sequence__Base_Temperat -->
<g id="edge12" class="edge">
<title>Genome_Sequence__Base_Temperat&#45;&gt;Genome_Sequence__Base_Temperat</title>
<path fill="none" stroke="black" d="M453.64,-31.49C575.89,-40.86 717.5,-36.46 717.5,-18.27 717.5,-0.49 582.18,4.12 461.91,-4.45"/>
<polygon fill="black" stroke="black" points="461.95,-1.99 455.15,-4.95 462.32,-6.87 461.95,-1.99"/>
</g>
</g>
</svg>
