<?xml version="1.0" encoding="UTF-8" standalone="no"?>
<!DOCTYPE svg PUBLIC "-//W3C//DTD SVG 1.1//EN"
 "http://www.w3.org/Graphics/SVG/1.1/DTD/svg11.dtd">
<!-- Generated by graphviz version 14.1.2 (20260124.0452)
 -->
<!-- Title: TechTree Pages: 1 -->
<svg width="162pt" height="183pt"
 viewBox="0.00 0.00 162.00 183.00" xmlns="http://www.w3.org/2000/svg" xmlns:xlink="http://www.w3.org/1999/xlink">
<g id="graph0" class="graph" transform="scale(1 1) rotate(0) translate(4 179)">
<title>TechTree</title>
<polygon fill="white" stroke="none" points="-4,4 -4,-179 158,-179 158,4 -4,4"/>
<text xml:space="preserve" text-anchor="middle" x="77" y="-157.7" font-family="Helvetica,sans-Serif" font-weight="bold" font-size="14.00">BioEnergyStorage</text>
<!-- BioEnergy_Storage -->
<g id="node1" class="node">
<title>BioEnergy_Storage</title>
<path fill="#cce5ff" stroke="black" d="M113.88,-36C113.88,-36 40.12,-36 40.12,-36 34.12,-36 28.12,-30 28.12,-24 28.12,-24 28.12,-12 28.12,-12 28.12,-6 34.12,0 40.12,0 40.12,0 113.88,0 113.88,0 119.88,0 125.88,-6 125.88,-12 125.88,-12 125.88,-24 125.88,-24 125.88,-30 119.88,-36 113.88,-36"/>
<text xml:space="preserve" text-anchor="middle" x="77" y="-19.75" font-family="Helvetica,sans-Serif" font-size="10.00">BioEnergy Storage</text>
<text xml:space="preserve" text-anchor="middle" x="77" y="-8.5" font-family="Helvetica,sans-Serif" font-size="10.00">1K RP</text>
</g>
<!-- BioEnergy_Storage___Large -->
<g id="node2" class="node">
<title>BioEnergy_Storage___Large</title>
<path fill="#cce5ff" stroke="black" d="M130.38,-94C130.38,-94 23.62,-94 23.62,-94 17.63,-94 11.62,-88 11.62,-82 11.62,-82 11.62,-70 11.62,-70 11.62,-64 17.62,-58 23.62,-58 23.62,-58 130.38,-58 130.38,-58 136.38,-58 142.38,-64 142.38,-70 142.38,-70 142.38,-82 142.38,-82 142.38,-88 136.38,-94 130.38,-94"/>
<text xml:space="preserve" text-anchor="middle" x="77" y="-77.75" font-family="Helvetica,sans-Serif" font-size="10.00">BioEnergy Storage &#45; Large</text>
<text xml:space="preserve" text-anchor="middle" x="77" y="-66.5" font-family="Helvetica,sans-Serif" font-size="10.00">2K RP</text>
</g>
<!-- BioEnergy_Storage___Very_Large -->
<g id="node3" class="node">
<title>BioEnergy_Storage___Very_Large</title>
<path fill="#cce5ff" stroke="black" d="M142,-152C142,-152 12,-152 12,-152 6,-152 0,-146 0,-140 0,-140 0,-128 0,-128 0,-122 6,-116 12,-116 12,-116 142,-116 142,-116 148,-116 154,-122 154,-128 154,-128 154,-140 154,-140 154,-146 148,-152 142,-152"/>
<text xml:space="preserve" text-anchor="middle" x="77" y="-135.75" font-family="Helvetica,sans-Serif" font-size="10.00">BioEnergy Storage &#45; Very Large</text>
<text xml:space="preserve" text-anchor="middle" x="77" y="-124.5" font-family="Helvetica,sans-Serif" font-size="10.00">4K RP</text>
</g>
</g>
</svg>
