<?xml version="1.0" encoding="UTF-8" standalone="no"?>
<!DOCTYPE svg PUBLIC "-//W3C//DTD SVG 1.1//EN"
 "http://www.w3.org/Graphics/SVG/1.1/DTD/svg11.dtd">
<!-- Generated by graphviz version 14.1.2 (20260124.0452)
 -->
<!-- Title: TechTree Pages: 1 -->
<svg width="407pt" height="65pt"
 viewBox="0.00 0.00 407.00 65.00" xmlns="http://www.w3.org/2000/svg" xmlns:xlink="http://www.w3.org/1999/xlink">
<g id="graph0" class="graph" transform="scale(1 1) rotate(0) translate(4 60.75)">
<title>TechTree</title>
<polygon fill="white" stroke="none" points="-4,4 -4,-60.75 403.12,-60.75 403.12,4 -4,4"/>
<text xml:space="preserve" text-anchor="middle" x="199.56" y="-41.35" font-family="Helvetica,sans-Serif" font-weight="bold" font-size="12.00">BioEnergyStorage</text>
<!-- BioEnergy_Storage -->
<g id="node1" class="node">
<title>BioEnergy_Storage</title>
<path fill="#cce5ff" stroke="black" d="M81.25,-36C81.25,-36 12,-36 12,-36 6,-36 0,-30 0,-24 0,-24 0,-12 0,-12 0,-6 6,0 12,0 12,0 81.25,0 81.25,0 87.25,0 93.25,-6 93.25,-12 93.25,-12 93.25,-24 93.25,-24 93.25,-30 87.25,-36 81.25,-36"/>
<text xml:space="preserve" text-anchor="middle" x="46.62" y="-19.2" font-family="Helvetica,sans-Serif" font-size="9.00">BioEnergy Storage</text>
<text xml:space="preserve" text-anchor="middle" x="46.62" y="-9.45" font-family="Helvetica,sans-Serif" font-size="9.00">1K RP</text>
</g>
<!-- BioEnergy_Storage___Large -->
<g id="node2" class="node">
<title>BioEnergy_Storage___Large</title>
<path fill="#cce5ff" stroke="black" d="M224,-36C224,-36 123.25,-36 123.25,-36 117.25,-36 111.25,-30 111.25,-24 111.25,-24 111.25,-12 111.25,-12 111.25,-6 117.25,0 123.25,0 123.25,0 224,0 224,0 230,0 236,-6 236,-12 236,-12 236,-24 236,-24 236,-30 230,-36 224,-36"/>
<text xml:space="preserve" text-anchor="middle" x="173.62" y="-19.2" font-family="Helvetica,sans-Serif" font-size="9.00">BioEnergy Storage &#45; Large</text>
<text xml:space="preserve" text-anchor="middle" x="173.62" y="-9.45" font-family="Helvetica,sans-Serif" font-size="9.00">2K RP</text>
</g>
<!-- BioEnergy_Storage___Very_Large -->
<g id="node3" class="node">
<title>BioEnergy_Storage___Very_Large</title>
<path fill="#cce5ff" stroke="black" d="M387.12,-36C387.12,-36 266.12,-36 266.12,-36 260.12,-36 254.12,-30 254.12,-24 254.12,-24 254.12,-12 254.12,-12 254.12,-6 260.12,0 266.12,0 266.12,0 387.12,0 387.12,0 393.12,0 399.12,-6 399.12,-12 399.12,-12 399.12,-24 399.12,-24 399.12,-30 393.12,-36 387.12,-36"/>
<text xml:space="preserve" text-anchor="middle" x="326.62" y="-19.2" font-family="Helvetica,sans-Serif" font-size="9.00">BioEnergy Storage &#45; Very Large</text>
<text xml:space="preserve" text-anchor="middle" x="326.62" y="-9.45" font-family="Helvetica,sans-Serif" font-size="9.00">4K RP</text>
</g>
</g>
</svg>
