<?xml version="1.0" encoding="UTF-8" standalone="no"?>
<!DOCTYPE svg PUBLIC "-//W3C//DTD SVG 1.1//EN"
 "http://www.w3.org/Graphics/SVG/1.1/DTD/svg11.dtd">
<!-- Generated by graphviz version 14.1.2 (20260124.0452)
 -->
<!-- Title: TechTree Pages: 1 -->
<svg width="1199pt" height="125pt"
 viewBox="0.00 0.00 1199.00 125.00" xmlns="http://www.w3.org/2000/svg" xmlns:xlink="http://www.w3.org/1999/xlink">
<g id="graph0" class="graph" transform="scale(1 1) rotate(0) translate(4 121)">
<title>TechTree</title>
<polygon fill="white" stroke="none" points="-4,4 -4,-121 1194.5,-121 1194.5,4 -4,4"/>
<text xml:space="preserve" text-anchor="middle" x="595.25" y="-99.7" font-family="Helvetica,sans-Serif" font-weight="bold" font-size="14.00">Bombardment Weapon</text>
<!-- Light_Bombardment_Weapon__AP_1 -->
<g id="node1" class="node">
<title>Light_Bombardment_Weapon__AP_1</title>
<path fill="#cce5ff" stroke="black" d="M239.5,-65C239.5,-65 12,-65 12,-65 6,-65 0,-59 0,-53 0,-53 0,-41 0,-41 0,-35 6,-29 12,-29 12,-29 239.5,-29 239.5,-29 245.5,-29 251.5,-35 251.5,-41 251.5,-41 251.5,-53 251.5,-53 251.5,-59 245.5,-65 239.5,-65"/>
<text xml:space="preserve" text-anchor="middle" x="125.75" y="-48.75" font-family="Helvetica,sans-Serif" font-size="10.00">Light Bombardment Weapon: AP 1, DAM 2, SHOTS 3</text>
<text xml:space="preserve" text-anchor="middle" x="125.75" y="-37.5" font-family="Helvetica,sans-Serif" font-size="10.00">600 RP</text>
</g>
<!-- Medium_Bombardment_Weapon__AP_ -->
<g id="node2" class="node">
<title>Medium_Bombardment_Weapon__AP_</title>
<path fill="#cce5ff" stroke="black" d="M541.75,-65C541.75,-65 292.5,-65 292.5,-65 286.5,-65 280.5,-59 280.5,-53 280.5,-53 280.5,-41 280.5,-41 280.5,-35 286.5,-29 292.5,-29 292.5,-29 541.75,-29 541.75,-29 547.75,-29 553.75,-35 553.75,-41 553.75,-41 553.75,-53 553.75,-53 553.75,-59 547.75,-65 541.75,-65"/>
<text xml:space="preserve" text-anchor="middle" x="417.12" y="-48.75" font-family="Helvetica,sans-Serif" font-size="10.00">Medium Bombardment Weapon: AP 1.5, DAM 4, SHOTS 3</text>
<text xml:space="preserve" text-anchor="middle" x="417.12" y="-37.5" font-family="Helvetica,sans-Serif" font-size="10.00">1K RP</text>
</g>
<!-- Light_Bombardment_Weapon__AP_1&#45;&gt;Medium_Bombardment_Weapon__AP_ -->
<g id="edge1" class="edge">
<title>Light_Bombardment_Weapon__AP_1&#45;&gt;Medium_Bombardment_Weapon__AP_</title>
<path fill="none" stroke="black" d="M251.99,-47C258.54,-47 265.15,-47 271.75,-47"/>
<polygon fill="black" stroke="black" points="271.6,-49.45 278.6,-47 271.6,-44.55 271.6,-49.45"/>
</g>
<!-- Heavy_Bombardment_Weapon__AP_2 -->
<g id="node3" class="node">
<title>Heavy_Bombardment_Weapon__AP_2</title>
<path fill="#cce5ff" stroke="black" d="M845.88,-94C845.88,-94 610.88,-94 610.88,-94 604.88,-94 598.88,-88 598.88,-82 598.88,-82 598.88,-70 598.88,-70 598.88,-64 604.88,-58 610.88,-58 610.88,-58 845.88,-58 845.88,-58 851.88,-58 857.88,-64 857.88,-70 857.88,-70 857.88,-82 857.88,-82 857.88,-88 851.88,-94 845.88,-94"/>
<text xml:space="preserve" text-anchor="middle" x="728.38" y="-77.75" font-family="Helvetica,sans-Serif" font-size="10.00">Heavy Bombardment Weapon: AP 2, DAM 6, SHOTS 3</text>
<text xml:space="preserve" text-anchor="middle" x="728.38" y="-66.5" font-family="Helvetica,sans-Serif" font-size="10.00">2K RP</text>
</g>
<!-- Medium_Bombardment_Weapon__AP_&#45;&gt;Heavy_Bombardment_Weapon__AP_2 -->
<g id="edge2" class="edge">
<title>Medium_Bombardment_Weapon__AP_&#45;&gt;Heavy_Bombardment_Weapon__AP_2</title>
<path fill="none" stroke="black" d="M554.22,-59.76C566.2,-60.89 578.33,-62.02 590.32,-63.15"/>
<polygon fill="black" stroke="black" points="589.89,-65.57 597.09,-63.78 590.35,-60.69 589.89,-65.57"/>
</g>
<!-- Long_Range_Bombardment_Weapon_ -->
<g id="node4" class="node">
<title>Long_Range_Bombardment_Weapon_</title>
<path fill="#cce5ff" stroke="black" d="M862,-36C862,-36 594.75,-36 594.75,-36 588.75,-36 582.75,-30 582.75,-24 582.75,-24 582.75,-12 582.75,-12 582.75,-6 588.75,0 594.75,0 594.75,0 862,0 862,0 868,0 874,-6 874,-12 874,-12 874,-24 874,-24 874,-30 868,-36 862,-36"/>
<text xml:space="preserve" text-anchor="middle" x="728.38" y="-19.75" font-family="Helvetica,sans-Serif" font-size="10.00">Long Range Bombardment Weapon: AP 1.5, DAM 4, SHOTS 3</text>
<text xml:space="preserve" text-anchor="middle" x="728.38" y="-8.5" font-family="Helvetica,sans-Serif" font-size="10.00">2K RP</text>
</g>
<!-- Medium_Bombardment_Weapon__AP_&#45;&gt;Long_Range_Bombardment_Weapon_ -->
<g id="edge3" class="edge">
<title>Medium_Bombardment_Weapon__AP_&#45;&gt;Long_Range_Bombardment_Weapon_</title>
<path fill="none" stroke="black" d="M554.22,-34.24C560.83,-33.62 567.48,-32.99 574.13,-32.37"/>
<polygon fill="black" stroke="black" points="574.3,-34.82 581.04,-31.72 573.84,-29.94 574.3,-34.82"/>
</g>
<!-- Super_Heavy_Bombardment_Weapon -->
<g id="node5" class="node">
<title>Super_Heavy_Bombardment_Weapon</title>
<path fill="#cce5ff" stroke="black" d="M1178.5,-94C1178.5,-94 915,-94 915,-94 909,-94 903,-88 903,-82 903,-82 903,-70 903,-70 903,-64 909,-58 915,-58 915,-58 1178.5,-58 1178.5,-58 1184.5,-58 1190.5,-64 1190.5,-70 1190.5,-70 1190.5,-82 1190.5,-82 1190.5,-88 1184.5,-94 1178.5,-94"/>
<text xml:space="preserve" text-anchor="middle" x="1046.75" y="-77.75" font-family="Helvetica,sans-Serif" font-size="10.00">Super&#45;Heavy Bombardment Weapon: AP 3, DAM 9, SHOTS 3</text>
<text xml:space="preserve" text-anchor="middle" x="1046.75" y="-66.5" font-family="Helvetica,sans-Serif" font-size="10.00">5K RP</text>
</g>
<!-- Heavy_Bombardment_Weapon__AP_2&#45;&gt;Super_Heavy_Bombardment_Weapon -->
<g id="edge4" class="edge">
<title>Heavy_Bombardment_Weapon__AP_2&#45;&gt;Super_Heavy_Bombardment_Weapon</title>
<path fill="none" stroke="black" d="M858.06,-76C870.01,-76 882.2,-76 894.33,-76"/>
<polygon fill="black" stroke="black" points="894.21,-78.45 901.21,-76 894.21,-73.55 894.21,-78.45"/>
</g>
</g>
</svg>
