<?xml version="1.0" encoding="UTF-8" standalone="no"?>
<!DOCTYPE svg PUBLIC "-//W3C//DTD SVG 1.1//EN"
 "http://www.w3.org/Graphics/SVG/1.1/DTD/svg11.dtd">
<!-- Generated by graphviz version 14.1.2 (20260124.0452)
 -->
<!-- Title: TechTree Pages: 1 -->
<svg width="548pt" height="281pt"
 viewBox="0.00 0.00 548.00 281.00" xmlns="http://www.w3.org/2000/svg" xmlns:xlink="http://www.w3.org/1999/xlink">
<g id="graph0" class="graph" transform="scale(1 1) rotate(0) translate(4 276.75)">
<title>TechTree</title>
<polygon fill="white" stroke="none" points="-4,4 -4,-276.75 544,-276.75 544,4 -4,4"/>
<text xml:space="preserve" text-anchor="middle" x="270" y="-257.35" font-family="Helvetica,sans-Serif" font-weight="bold" font-size="12.00">Bombardment Weapon</text>
<!-- Light_Bombardment_Weapon__AP_1 -->
<g id="node1" class="node">
<title>Light_Bombardment_Weapon__AP_1</title>
<path fill="#cce5ff" stroke="black" d="M372.88,-252C372.88,-252 164.88,-252 164.88,-252 158.88,-252 152.88,-246 152.88,-240 152.88,-240 152.88,-228 152.88,-228 152.88,-222 158.88,-216 164.88,-216 164.88,-216 372.88,-216 372.88,-216 378.88,-216 384.88,-222 384.88,-228 384.88,-228 384.88,-240 384.88,-240 384.88,-246 378.88,-252 372.88,-252"/>
<text xml:space="preserve" text-anchor="middle" x="268.88" y="-235.2" font-family="Helvetica,sans-Serif" font-size="9.00">Light Bombardment Weapon: AP 1, DAM 2, SHOTS 3</text>
<text xml:space="preserve" text-anchor="middle" x="268.88" y="-225.45" font-family="Helvetica,sans-Serif" font-size="9.00">600 RP</text>
</g>
<!-- Medium_Bombardment_Weapon__AP_ -->
<g id="node2" class="node">
<title>Medium_Bombardment_Weapon__AP_</title>
<path fill="#cce5ff" stroke="black" d="M383,-180C383,-180 154.75,-180 154.75,-180 148.75,-180 142.75,-174 142.75,-168 142.75,-168 142.75,-156 142.75,-156 142.75,-150 148.75,-144 154.75,-144 154.75,-144 383,-144 383,-144 389,-144 395,-150 395,-156 395,-156 395,-168 395,-168 395,-174 389,-180 383,-180"/>
<text xml:space="preserve" text-anchor="middle" x="268.88" y="-163.2" font-family="Helvetica,sans-Serif" font-size="9.00">Medium Bombardment Weapon: AP 1.5, DAM 4, SHOTS 3</text>
<text xml:space="preserve" text-anchor="middle" x="268.88" y="-153.45" font-family="Helvetica,sans-Serif" font-size="9.00">1K RP</text>
</g>
<!-- Light_Bombardment_Weapon__AP_1&#45;&gt;Medium_Bombardment_Weapon__AP_ -->
<g id="edge1" class="edge">
<title>Light_Bombardment_Weapon__AP_1&#45;&gt;Medium_Bombardment_Weapon__AP_</title>
<path fill="none" stroke="black" d="M268.88,-215.7C268.88,-207.22 268.88,-196.86 268.88,-187.58"/>
<polygon fill="black" stroke="black" points="270.98,-187.62 268.88,-181.62 266.78,-187.62 270.98,-187.62"/>
</g>
<!-- Heavy_Bombardment_Weapon__AP_2 -->
<g id="node3" class="node">
<title>Heavy_Bombardment_Weapon__AP_2</title>
<path fill="#cce5ff" stroke="black" d="M239.88,-108C239.88,-108 25.88,-108 25.88,-108 19.88,-108 13.87,-102 13.87,-96 13.87,-96 13.87,-84 13.87,-84 13.87,-78 19.87,-72 25.87,-72 25.87,-72 239.87,-72 239.87,-72 245.87,-72 251.88,-78 251.88,-84 251.88,-84 251.88,-96 251.88,-96 251.88,-102 245.88,-108 239.88,-108"/>
<text xml:space="preserve" text-anchor="middle" x="132.88" y="-91.2" font-family="Helvetica,sans-Serif" font-size="9.00">Heavy Bombardment Weapon: AP 2, DAM 6, SHOTS 3</text>
<text xml:space="preserve" text-anchor="middle" x="132.88" y="-81.45" font-family="Helvetica,sans-Serif" font-size="9.00">2K RP</text>
</g>
<!-- Medium_Bombardment_Weapon__AP_&#45;&gt;Heavy_Bombardment_Weapon__AP_2 -->
<g id="edge2" class="edge">
<title>Medium_Bombardment_Weapon__AP_&#45;&gt;Heavy_Bombardment_Weapon__AP_2</title>
<path fill="none" stroke="black" d="M234.91,-143.52C216.1,-133.84 192.63,-121.75 172.93,-111.62"/>
<polygon fill="black" stroke="black" points="174.05,-109.83 167.76,-108.95 172.13,-113.57 174.05,-109.83"/>
</g>
<!-- Long_Range_Bombardment_Weapon_ -->
<g id="node4" class="node">
<title>Long_Range_Bombardment_Weapon_</title>
<path fill="#cce5ff" stroke="black" d="M528,-108C528,-108 281.75,-108 281.75,-108 275.75,-108 269.75,-102 269.75,-96 269.75,-96 269.75,-84 269.75,-84 269.75,-78 275.75,-72 281.75,-72 281.75,-72 528,-72 528,-72 534,-72 540,-78 540,-84 540,-84 540,-96 540,-96 540,-102 534,-108 528,-108"/>
<text xml:space="preserve" text-anchor="middle" x="404.88" y="-91.2" font-family="Helvetica,sans-Serif" font-size="9.00">Long Range Bombardment Weapon: AP 1.5, DAM 4, SHOTS 3</text>
<text xml:space="preserve" text-anchor="middle" x="404.88" y="-81.45" font-family="Helvetica,sans-Serif" font-size="9.00">2K RP</text>
</g>
<!-- Medium_Bombardment_Weapon__AP_&#45;&gt;Long_Range_Bombardment_Weapon_ -->
<g id="edge3" class="edge">
<title>Medium_Bombardment_Weapon__AP_&#45;&gt;Long_Range_Bombardment_Weapon_</title>
<path fill="none" stroke="black" d="M302.84,-143.52C321.65,-133.84 345.12,-121.75 364.82,-111.62"/>
<polygon fill="black" stroke="black" points="365.62,-113.57 369.99,-108.95 363.7,-109.83 365.62,-113.57"/>
</g>
<!-- Super_Heavy_Bombardment_Weapon -->
<g id="node5" class="node">
<title>Super_Heavy_Bombardment_Weapon</title>
<path fill="#cce5ff" stroke="black" d="M253.75,-36C253.75,-36 12,-36 12,-36 6,-36 0,-30 0,-24 0,-24 0,-12 0,-12 0,-6 6,0 12,0 12,0 253.75,0 253.75,0 259.75,0 265.75,-6 265.75,-12 265.75,-12 265.75,-24 265.75,-24 265.75,-30 259.75,-36 253.75,-36"/>
<text xml:space="preserve" text-anchor="middle" x="132.88" y="-19.2" font-family="Helvetica,sans-Serif" font-size="9.00">Super&#45;Heavy Bombardment Weapon: AP 3, DAM 9, SHOTS 3</text>
<text xml:space="preserve" text-anchor="middle" x="132.88" y="-9.45" font-family="Helvetica,sans-Serif" font-size="9.00">5K RP</text>
</g>
<!-- Heavy_Bombardment_Weapon__AP_2&#45;&gt;Super_Heavy_Bombardment_Weapon -->
<g id="edge4" class="edge">
<title>Heavy_Bombardment_Weapon__AP_2&#45;&gt;Super_Heavy_Bombardment_Weapon</title>
<path fill="none" stroke="black" d="M132.88,-71.7C132.88,-63.22 132.88,-52.86 132.88,-43.58"/>
<polygon fill="black" stroke="black" points="134.98,-43.62 132.88,-37.62 130.78,-43.62 134.98,-43.62"/>
</g>
</g>
</svg>
