<?xml version="1.0" encoding="UTF-8" standalone="no"?>
<!DOCTYPE svg PUBLIC "-//W3C//DTD SVG 1.1//EN"
 "http://www.w3.org/Graphics/SVG/1.1/DTD/svg11.dtd">
<!-- Generated by graphviz version 14.1.2 (20260124.0452)
 -->
<!-- Title: TechTree Pages: 1 -->
<svg width="323pt" height="65pt"
 viewBox="0.00 0.00 323.00 65.00" xmlns="http://www.w3.org/2000/svg" xmlns:xlink="http://www.w3.org/1999/xlink">
<g id="graph0" class="graph" transform="scale(1 1) rotate(0) translate(4 60.75)">
<title>TechTree</title>
<polygon fill="white" stroke="none" points="-4,4 -4,-60.75 319.25,-60.75 319.25,4 -4,4"/>
<text xml:space="preserve" text-anchor="middle" x="157.62" y="-41.35" font-family="Helvetica,sans-Serif" font-weight="bold" font-size="12.00">Box Launcher Explosion Chance</text>
<!-- Box_Launcher_Explosion_Chance_ -->
<g id="node1" class="node">
<title>Box_Launcher_Explosion_Chance_</title>
<path fill="#d4c4fb" stroke="black" d="M159.25,-36C159.25,-36 12,-36 12,-36 6,-36 0,-30 0,-24 0,-24 0,-12 0,-12 0,-6 6,0 12,0 12,0 159.25,0 159.25,0 165.25,0 171.25,-6 171.25,-12 171.25,-12 171.25,-24 171.25,-24 171.25,-30 165.25,-36 159.25,-36"/>
<text xml:space="preserve" text-anchor="middle" x="85.62" y="-19.2" font-family="Helvetica,sans-Serif" font-size="9.00">Box Launcher Explosion Chance &#45; 5%</text>
<text xml:space="preserve" text-anchor="middle" x="85.62" y="-9.45" font-family="Helvetica,sans-Serif" font-size="9.00">120K RP</text>
</g>
<!-- Box_Launcher_Explosion_Chance_&#45;&gt;Box_Launcher_Explosion_Chance_ -->
<g id="edge1" class="edge">
<title>Box_Launcher_Explosion_Chance_&#45;&gt;Box_Launcher_Explosion_Chance_</title>
<path fill="none" stroke="black" d="M171.39,-19.31C182.16,-19.08 189.25,-18.64 189.25,-18 189.25,-17.52 185.26,-17.15 178.73,-16.9"/>
<polygon fill="black" stroke="black" points="178.96,-14.81 172.9,-16.74 178.84,-19.01 178.96,-14.81"/>
</g>
<!-- Box_Launcher_Explosion_Chance_&#45;&gt;Box_Launcher_Explosion_Chance_ -->
<g id="edge2" class="edge">
<title>Box_Launcher_Explosion_Chance_&#45;&gt;Box_Launcher_Explosion_Chance_</title>
<path fill="none" stroke="black" d="M171.71,-20.94C192.14,-20.71 207.25,-19.73 207.25,-18 207.25,-16.49 195.68,-15.55 179.1,-15.18"/>
<polygon fill="black" stroke="black" points="179.26,-13.08 173.22,-15.08 179.19,-17.28 179.26,-13.08"/>
</g>
<!-- Box_Launcher_Explosion_Chance_&#45;&gt;Box_Launcher_Explosion_Chance_ -->
<g id="edge3" class="edge">
<title>Box_Launcher_Explosion_Chance_&#45;&gt;Box_Launcher_Explosion_Chance_</title>
<path fill="none" stroke="black" d="M171.52,-22.5C201.25,-22.55 225.25,-21.05 225.25,-18 225.25,-15.2 205.02,-13.71 178.71,-13.52"/>
<polygon fill="black" stroke="black" points="179.04,-11.42 173.04,-13.51 179.03,-15.62 179.04,-11.42"/>
</g>
<!-- Box_Launcher_Explosion_Chance_&#45;&gt;Box_Launcher_Explosion_Chance_ -->
<g id="edge4" class="edge">
<title>Box_Launcher_Explosion_Chance_&#45;&gt;Box_Launcher_Explosion_Chance_</title>
<path fill="none" stroke="black" d="M171.56,-23.91C210,-24.47 243.25,-22.5 243.25,-18 243.25,-13.78 214.03,-11.79 178.7,-12.02"/>
<polygon fill="black" stroke="black" points="179.05,-9.91 173.07,-12.08 179.09,-14.11 179.05,-9.91"/>
</g>
<!-- Box_Launcher_Explosion_Chance_&#45;&gt;Box_Launcher_Explosion_Chance_ -->
<g id="edge5" class="edge">
<title>Box_Launcher_Explosion_Chance_&#45;&gt;Box_Launcher_Explosion_Chance_</title>
<path fill="none" stroke="black" d="M171.47,-25.17C218.33,-26.44 261.25,-24.05 261.25,-18 261.25,-12.26 222.74,-9.82 178.84,-10.66"/>
<polygon fill="black" stroke="black" points="178.93,-8.56 172.98,-10.8 179.03,-12.76 178.93,-8.56"/>
</g>
<!-- Box_Launcher_Explosion_Chance_&#45;&gt;Box_Launcher_Explosion_Chance_ -->
<g id="edge6" class="edge">
<title>Box_Launcher_Explosion_Chance_&#45;&gt;Box_Launcher_Explosion_Chance_</title>
<path fill="none" stroke="black" d="M171.73,-26.31C226.6,-28.43 279.25,-25.66 279.25,-18 279.25,-10.68 231.22,-7.83 179.11,-9.44"/>
<polygon fill="black" stroke="black" points="179.17,-7.33 173.24,-9.64 179.31,-11.53 179.17,-7.33"/>
</g>
<!-- Box_Launcher_Explosion_Chance_&#45;&gt;Box_Launcher_Explosion_Chance_ -->
<g id="edge7" class="edge">
<title>Box_Launcher_Explosion_Chance_&#45;&gt;Box_Launcher_Explosion_Chance_</title>
<path fill="none" stroke="black" d="M171.48,-27.32C234.3,-30.46 297.25,-27.35 297.25,-18 297.25,-9.01 239.12,-5.8 178.83,-8.35"/>
<polygon fill="black" stroke="black" points="178.88,-6.24 172.99,-8.62 179.08,-10.44 178.88,-6.24"/>
</g>
<!-- Box_Launcher_Explosion_Chance_&#45;&gt;Box_Launcher_Explosion_Chance_ -->
<g id="edge8" class="edge">
<title>Box_Launcher_Explosion_Chance_&#45;&gt;Box_Launcher_Explosion_Chance_</title>
<path fill="none" stroke="black" d="M171.6,-28.24C242.07,-32.48 315.25,-29.06 315.25,-18 315.25,-7.33 247.12,-3.77 179.04,-7.34"/>
<polygon fill="black" stroke="black" points="178.99,-5.24 173.12,-7.67 179.22,-9.43 178.99,-5.24"/>
</g>
</g>
</svg>
