<?xml version="1.0" encoding="UTF-8" standalone="no"?>
<!DOCTYPE svg PUBLIC "-//W3C//DTD SVG 1.1//EN"
 "http://www.w3.org/Graphics/SVG/1.1/DTD/svg11.dtd">
<!-- Generated by graphviz version 14.1.2 (20260124.0452)
 -->
<!-- Title: TechTree Pages: 1 -->
<svg width="366pt" height="67pt"
 viewBox="0.00 0.00 366.00 67.00" xmlns="http://www.w3.org/2000/svg" xmlns:xlink="http://www.w3.org/1999/xlink">
<g id="graph0" class="graph" transform="scale(1 1) rotate(0) translate(4 63)">
<title>TechTree</title>
<polygon fill="white" stroke="none" points="-4,4 -4,-63 361.75,-63 361.75,4 -4,4"/>
<text xml:space="preserve" text-anchor="middle" x="178.88" y="-41.7" font-family="Helvetica,sans-Serif" font-weight="bold" font-size="14.00">Box Launcher Explosion Chance</text>
<!-- Box_Launcher_Explosion_Chance_ -->
<g id="node1" class="node">
<title>Box_Launcher_Explosion_Chance_</title>
<path fill="#d4c4fb" stroke="black" d="M169.75,-36C169.75,-36 12,-36 12,-36 6,-36 0,-30 0,-24 0,-24 0,-12 0,-12 0,-6 6,0 12,0 12,0 169.75,0 169.75,0 175.75,0 181.75,-6 181.75,-12 181.75,-12 181.75,-24 181.75,-24 181.75,-30 175.75,-36 169.75,-36"/>
<text xml:space="preserve" text-anchor="middle" x="90.88" y="-19.75" font-family="Helvetica,sans-Serif" font-size="10.00">Box Launcher Explosion Chance &#45; 5%</text>
<text xml:space="preserve" text-anchor="middle" x="90.88" y="-8.5" font-family="Helvetica,sans-Serif" font-size="10.00">120K RP</text>
</g>
<!-- Box_Launcher_Explosion_Chance_&#45;&gt;Box_Launcher_Explosion_Chance_ -->
<g id="edge1" class="edge">
<title>Box_Launcher_Explosion_Chance_&#45;&gt;Box_Launcher_Explosion_Chance_</title>
<path fill="none" stroke="black" d="M182.11,-19.35C195.06,-19.13 203.75,-18.68 203.75,-18 203.75,-17.48 198.66,-17.09 190.45,-16.85"/>
<polygon fill="black" stroke="black" points="190.68,-14.4 183.62,-16.69 190.56,-19.3 190.68,-14.4"/>
</g>
<!-- Box_Launcher_Explosion_Chance_&#45;&gt;Box_Launcher_Explosion_Chance_ -->
<g id="edge2" class="edge">
<title>Box_Launcher_Explosion_Chance_&#45;&gt;Box_Launcher_Explosion_Chance_</title>
<path fill="none" stroke="black" d="M181.96,-20.98C206.81,-20.83 225.75,-19.84 225.75,-18 225.75,-16.38 210.99,-15.42 190.43,-15.11"/>
<polygon fill="black" stroke="black" points="190.5,-12.66 183.48,-15.04 190.45,-17.56 190.5,-12.66"/>
</g>
<!-- Box_Launcher_Explosion_Chance_&#45;&gt;Box_Launcher_Explosion_Chance_ -->
<g id="edge3" class="edge">
<title>Box_Launcher_Explosion_Chance_&#45;&gt;Box_Launcher_Explosion_Chance_</title>
<path fill="none" stroke="black" d="M181.94,-22.48C217.8,-22.7 247.75,-21.21 247.75,-18 247.75,-15.04 222.3,-13.54 190.22,-13.5"/>
<polygon fill="black" stroke="black" points="190.44,-11.05 183.45,-13.52 190.46,-15.95 190.44,-11.05"/>
</g>
<!-- Box_Launcher_Explosion_Chance_&#45;&gt;Box_Launcher_Explosion_Chance_ -->
<g id="edge4" class="edge">
<title>Box_Launcher_Explosion_Chance_&#45;&gt;Box_Launcher_Explosion_Chance_</title>
<path fill="none" stroke="black" d="M181.99,-23.81C228.26,-24.65 269.75,-22.72 269.75,-18 269.75,-13.57 233.13,-11.59 190.33,-12.07"/>
<polygon fill="black" stroke="black" points="190.47,-9.62 183.5,-12.17 190.54,-14.52 190.47,-9.62"/>
</g>
<!-- Box_Launcher_Explosion_Chance_&#45;&gt;Box_Launcher_Explosion_Chance_ -->
<g id="edge5" class="edge">
<title>Box_Launcher_Explosion_Chance_&#45;&gt;Box_Launcher_Explosion_Chance_</title>
<path fill="none" stroke="black" d="M182.03,-24.98C238.29,-26.64 291.75,-24.32 291.75,-18 291.75,-11.99 243.38,-9.59 190.25,-10.81"/>
<polygon fill="black" stroke="black" points="190.48,-8.35 183.55,-10.98 190.61,-13.25 190.48,-8.35"/>
</g>
<!-- Box_Launcher_Explosion_Chance_&#45;&gt;Box_Launcher_Explosion_Chance_ -->
<g id="edge6" class="edge">
<title>Box_Launcher_Explosion_Chance_&#45;&gt;Box_Launcher_Explosion_Chance_</title>
<path fill="none" stroke="black" d="M182.16,-26.02C248.04,-28.65 313.75,-25.98 313.75,-18 313.75,-10.36 253.56,-7.59 190.65,-9.67"/>
<polygon fill="black" stroke="black" points="190.58,-7.22 183.67,-9.93 190.76,-12.12 190.58,-7.22"/>
</g>
<!-- Box_Launcher_Explosion_Chance_&#45;&gt;Box_Launcher_Explosion_Chance_ -->
<g id="edge7" class="edge">
<title>Box_Launcher_Explosion_Chance_&#45;&gt;Box_Launcher_Explosion_Chance_</title>
<path fill="none" stroke="black" d="M182.25,-26.95C257.49,-30.68 335.75,-27.69 335.75,-18 335.75,-8.67 263.19,-5.56 190.63,-8.67"/>
<polygon fill="black" stroke="black" points="190.64,-6.21 183.76,-8.98 190.86,-11.11 190.64,-6.21"/>
</g>
<!-- Box_Launcher_Explosion_Chance_&#45;&gt;Box_Launcher_Explosion_Chance_ -->
<g id="edge8" class="edge">
<title>Box_Launcher_Explosion_Chance_&#45;&gt;Box_Launcher_Explosion_Chance_</title>
<path fill="none" stroke="black" d="M182.14,-27.76C266.59,-32.71 357.75,-29.45 357.75,-18 357.75,-6.93 272.54,-3.52 190.57,-7.77"/>
<polygon fill="black" stroke="black" points="190.51,-5.32 183.65,-8.15 190.78,-10.21 190.51,-5.32"/>
</g>
</g>
</svg>
