<?xml version="1.0" encoding="UTF-8" standalone="no"?>
<!DOCTYPE svg PUBLIC "-//W3C//DTD SVG 1.1//EN"
 "http://www.w3.org/Graphics/SVG/1.1/DTD/svg11.dtd">
<!-- Generated by graphviz version 14.1.2 (20260124.0452)
 -->
<!-- Title: TechTree Pages: 1 -->
<svg width="1795pt" height="782pt"
 viewBox="0.00 0.00 1795.00 782.00" xmlns="http://www.w3.org/2000/svg" xmlns:xlink="http://www.w3.org/1999/xlink">
<g id="graph0" class="graph" transform="scale(1 1) rotate(0) translate(4 778)">
<title>TechTree</title>
<polygon fill="white" stroke="none" points="-4,4 -4,-778 1790.62,-778 1790.62,4 -4,4"/>
<text xml:space="preserve" text-anchor="middle" x="893.31" y="-756.7" font-family="Helvetica,sans-Serif" font-weight="bold" font-size="14.00">Capacitor Recharge Rate</text>
<!-- Capacitor_Recharge_Rate_1 -->
<g id="node1" class="node">
<title>Capacitor_Recharge_Rate_1</title>
<path fill="#cce5ff" stroke="black" d="M382,-751C382,-751 270.75,-751 270.75,-751 264.75,-751 258.75,-745 258.75,-739 258.75,-739 258.75,-727 258.75,-727 258.75,-721 264.75,-715 270.75,-715 270.75,-715 382,-715 382,-715 388,-715 394,-721 394,-727 394,-727 394,-739 394,-739 394,-745 388,-751 382,-751"/>
<text xml:space="preserve" text-anchor="middle" x="326.38" y="-734.75" font-family="Helvetica,sans-Serif" font-size="10.00">Capacitor Recharge Rate 1</text>
<text xml:space="preserve" text-anchor="middle" x="326.38" y="-723.5" font-family="Helvetica,sans-Serif" font-size="10.00">1K RP</text>
</g>
<!-- Capacitor_Recharge_Rate_2 -->
<g id="node5" class="node">
<title>Capacitor_Recharge_Rate_2</title>
<path fill="#cce5ff" stroke="black" d="M382,-686C382,-686 270.75,-686 270.75,-686 264.75,-686 258.75,-680 258.75,-674 258.75,-674 258.75,-662 258.75,-662 258.75,-656 264.75,-650 270.75,-650 270.75,-650 382,-650 382,-650 388,-650 394,-656 394,-662 394,-662 394,-674 394,-674 394,-680 388,-686 382,-686"/>
<text xml:space="preserve" text-anchor="middle" x="326.38" y="-669.75" font-family="Helvetica,sans-Serif" font-size="10.00">Capacitor Recharge Rate 2</text>
<text xml:space="preserve" text-anchor="middle" x="326.38" y="-658.5" font-family="Helvetica,sans-Serif" font-size="10.00">2K RP</text>
</g>
<!-- Capacitor_Recharge_Rate_1&#45;&gt;Capacitor_Recharge_Rate_2 -->
<g id="edge4" class="edge">
<title>Capacitor_Recharge_Rate_1&#45;&gt;Capacitor_Recharge_Rate_2</title>
<path fill="none" stroke="black" d="M326.38,-714.78C326.38,-708.53 326.38,-701.33 326.38,-694.52"/>
<polygon fill="black" stroke="black" points="328.83,-694.71 326.38,-687.71 323.93,-694.71 328.83,-694.71"/>
</g>
<!-- Capacitor_Recharge_Rate_1_25 -->
<g id="node2" class="node">
<title>Capacitor_Recharge_Rate_1_25</title>
<path fill="#cce5ff" stroke="black" d="M136.75,-621C136.75,-621 12,-621 12,-621 6,-621 0,-615 0,-609 0,-609 0,-597 0,-597 0,-591 6,-585 12,-585 12,-585 136.75,-585 136.75,-585 142.75,-585 148.75,-591 148.75,-597 148.75,-597 148.75,-609 148.75,-609 148.75,-615 142.75,-621 136.75,-621"/>
<text xml:space="preserve" text-anchor="middle" x="74.38" y="-604.75" font-family="Helvetica,sans-Serif" font-size="10.00">Capacitor Recharge Rate 1.25</text>
<text xml:space="preserve" text-anchor="middle" x="74.38" y="-593.5" font-family="Helvetica,sans-Serif" font-size="10.00">1K RP</text>
</g>
<!-- Capacitor_Recharge_Rate_1_5 -->
<g id="node3" class="node">
<title>Capacitor_Recharge_Rate_1_5</title>
<path fill="#cce5ff" stroke="black" d="M302.12,-621C302.12,-621 182.62,-621 182.62,-621 176.62,-621 170.62,-615 170.62,-609 170.62,-609 170.62,-597 170.62,-597 170.62,-591 176.62,-585 182.62,-585 182.62,-585 302.12,-585 302.12,-585 308.12,-585 314.12,-591 314.12,-597 314.12,-597 314.12,-609 314.12,-609 314.12,-615 308.12,-621 302.12,-621"/>
<text xml:space="preserve" text-anchor="middle" x="242.38" y="-604.75" font-family="Helvetica,sans-Serif" font-size="10.00">Capacitor Recharge Rate 1.5</text>
<text xml:space="preserve" text-anchor="middle" x="242.38" y="-593.5" font-family="Helvetica,sans-Serif" font-size="10.00">2K RP</text>
</g>
<!-- Capacitor_Recharge_Rate_1_75 -->
<g id="node4" class="node">
<title>Capacitor_Recharge_Rate_1_75</title>
<path fill="#cce5ff" stroke="black" d="M472.75,-621C472.75,-621 348,-621 348,-621 342,-621 336,-615 336,-609 336,-609 336,-597 336,-597 336,-591 342,-585 348,-585 348,-585 472.75,-585 472.75,-585 478.75,-585 484.75,-591 484.75,-597 484.75,-597 484.75,-609 484.75,-609 484.75,-615 478.75,-621 472.75,-621"/>
<text xml:space="preserve" text-anchor="middle" x="410.38" y="-604.75" font-family="Helvetica,sans-Serif" font-size="10.00">Capacitor Recharge Rate 1.75</text>
<text xml:space="preserve" text-anchor="middle" x="410.38" y="-593.5" font-family="Helvetica,sans-Serif" font-size="10.00">2K RP</text>
</g>
<!-- Capacitor_Recharge_Rate_2&#45;&gt;Capacitor_Recharge_Rate_1_25 -->
<g id="edge1" class="edge">
<title>Capacitor_Recharge_Rate_2&#45;&gt;Capacitor_Recharge_Rate_1_25</title>
<path fill="none" stroke="black" d="M258.51,-650.03C225.72,-641.84 186.19,-631.95 152.18,-623.45"/>
<polygon fill="black" stroke="black" points="152.97,-621.12 145.58,-621.8 151.78,-625.88 152.97,-621.12"/>
</g>
<!-- Capacitor_Recharge_Rate_2&#45;&gt;Capacitor_Recharge_Rate_1_5 -->
<g id="edge2" class="edge">
<title>Capacitor_Recharge_Rate_2&#45;&gt;Capacitor_Recharge_Rate_1_5</title>
<path fill="none" stroke="black" d="M303.42,-649.78C293.78,-642.55 282.44,-634.05 272.16,-626.34"/>
<polygon fill="black" stroke="black" points="273.87,-624.56 266.8,-622.32 270.93,-628.48 273.87,-624.56"/>
</g>
<!-- Capacitor_Recharge_Rate_2&#45;&gt;Capacitor_Recharge_Rate_1_75 -->
<g id="edge3" class="edge">
<title>Capacitor_Recharge_Rate_2&#45;&gt;Capacitor_Recharge_Rate_1_75</title>
<path fill="none" stroke="black" d="M349.33,-649.78C358.97,-642.55 370.31,-634.05 380.59,-626.34"/>
<polygon fill="black" stroke="black" points="381.82,-628.48 385.95,-622.32 378.88,-624.56 381.82,-628.48"/>
</g>
<!-- Capacitor_Recharge_Rate_3 -->
<g id="node9" class="node">
<title>Capacitor_Recharge_Rate_3</title>
<path fill="#cce5ff" stroke="black" d="M630,-621C630,-621 518.75,-621 518.75,-621 512.75,-621 506.75,-615 506.75,-609 506.75,-609 506.75,-597 506.75,-597 506.75,-591 512.75,-585 518.75,-585 518.75,-585 630,-585 630,-585 636,-585 642,-591 642,-597 642,-597 642,-609 642,-609 642,-615 636,-621 630,-621"/>
<text xml:space="preserve" text-anchor="middle" x="574.38" y="-604.75" font-family="Helvetica,sans-Serif" font-size="10.00">Capacitor Recharge Rate 3</text>
<text xml:space="preserve" text-anchor="middle" x="574.38" y="-593.5" font-family="Helvetica,sans-Serif" font-size="10.00">4K RP</text>
</g>
<!-- Capacitor_Recharge_Rate_2&#45;&gt;Capacitor_Recharge_Rate_3 -->
<g id="edge8" class="edge">
<title>Capacitor_Recharge_Rate_2&#45;&gt;Capacitor_Recharge_Rate_3</title>
<path fill="none" stroke="black" d="M394.47,-649.7C426.73,-641.51 465.37,-631.69 498.56,-623.26"/>
<polygon fill="black" stroke="black" points="498.78,-625.73 504.96,-621.63 497.58,-620.98 498.78,-625.73"/>
</g>
<!-- Capacitor_Recharge_Rate_2_25 -->
<g id="node6" class="node">
<title>Capacitor_Recharge_Rate_2_25</title>
<path fill="#cce5ff" stroke="black" d="M384.75,-556C384.75,-556 260,-556 260,-556 254,-556 248,-550 248,-544 248,-544 248,-532 248,-532 248,-526 254,-520 260,-520 260,-520 384.75,-520 384.75,-520 390.75,-520 396.75,-526 396.75,-532 396.75,-532 396.75,-544 396.75,-544 396.75,-550 390.75,-556 384.75,-556"/>
<text xml:space="preserve" text-anchor="middle" x="322.38" y="-539.75" font-family="Helvetica,sans-Serif" font-size="10.00">Capacitor Recharge Rate 2.25</text>
<text xml:space="preserve" text-anchor="middle" x="322.38" y="-528.5" font-family="Helvetica,sans-Serif" font-size="10.00">2K RP</text>
</g>
<!-- Capacitor_Recharge_Rate_2_5 -->
<g id="node7" class="node">
<title>Capacitor_Recharge_Rate_2_5</title>
<path fill="#cce5ff" stroke="black" d="M550.12,-556C550.12,-556 430.62,-556 430.62,-556 424.62,-556 418.62,-550 418.62,-544 418.62,-544 418.62,-532 418.62,-532 418.62,-526 424.62,-520 430.62,-520 430.62,-520 550.12,-520 550.12,-520 556.12,-520 562.12,-526 562.12,-532 562.12,-532 562.12,-544 562.12,-544 562.12,-550 556.12,-556 550.12,-556"/>
<text xml:space="preserve" text-anchor="middle" x="490.38" y="-539.75" font-family="Helvetica,sans-Serif" font-size="10.00">Capacitor Recharge Rate 2.5</text>
<text xml:space="preserve" text-anchor="middle" x="490.38" y="-528.5" font-family="Helvetica,sans-Serif" font-size="10.00">2K RP</text>
</g>
<!-- Capacitor_Recharge_Rate_2_75 -->
<g id="node8" class="node">
<title>Capacitor_Recharge_Rate_2_75</title>
<path fill="#cce5ff" stroke="black" d="M720.75,-556C720.75,-556 596,-556 596,-556 590,-556 584,-550 584,-544 584,-544 584,-532 584,-532 584,-526 590,-520 596,-520 596,-520 720.75,-520 720.75,-520 726.75,-520 732.75,-526 732.75,-532 732.75,-532 732.75,-544 732.75,-544 732.75,-550 726.75,-556 720.75,-556"/>
<text xml:space="preserve" text-anchor="middle" x="658.38" y="-539.75" font-family="Helvetica,sans-Serif" font-size="10.00">Capacitor Recharge Rate 2.75</text>
<text xml:space="preserve" text-anchor="middle" x="658.38" y="-528.5" font-family="Helvetica,sans-Serif" font-size="10.00">3K RP</text>
</g>
<!-- Capacitor_Recharge_Rate_3&#45;&gt;Capacitor_Recharge_Rate_2_25 -->
<g id="edge5" class="edge">
<title>Capacitor_Recharge_Rate_3&#45;&gt;Capacitor_Recharge_Rate_2_25</title>
<path fill="none" stroke="black" d="M506.51,-585.03C473.72,-576.84 434.19,-566.95 400.18,-558.45"/>
<polygon fill="black" stroke="black" points="400.97,-556.12 393.58,-556.8 399.78,-560.88 400.97,-556.12"/>
</g>
<!-- Capacitor_Recharge_Rate_3&#45;&gt;Capacitor_Recharge_Rate_2_5 -->
<g id="edge6" class="edge">
<title>Capacitor_Recharge_Rate_3&#45;&gt;Capacitor_Recharge_Rate_2_5</title>
<path fill="none" stroke="black" d="M551.42,-584.78C541.78,-577.55 530.44,-569.05 520.16,-561.34"/>
<polygon fill="black" stroke="black" points="521.87,-559.56 514.8,-557.32 518.93,-563.48 521.87,-559.56"/>
</g>
<!-- Capacitor_Recharge_Rate_3&#45;&gt;Capacitor_Recharge_Rate_2_75 -->
<g id="edge7" class="edge">
<title>Capacitor_Recharge_Rate_3&#45;&gt;Capacitor_Recharge_Rate_2_75</title>
<path fill="none" stroke="black" d="M597.33,-584.78C606.97,-577.55 618.31,-569.05 628.59,-561.34"/>
<polygon fill="black" stroke="black" points="629.82,-563.48 633.95,-557.32 626.88,-559.56 629.82,-563.48"/>
</g>
<!-- Capacitor_Recharge_Rate_4 -->
<g id="node13" class="node">
<title>Capacitor_Recharge_Rate_4</title>
<path fill="#cce5ff" stroke="black" d="M878,-556C878,-556 766.75,-556 766.75,-556 760.75,-556 754.75,-550 754.75,-544 754.75,-544 754.75,-532 754.75,-532 754.75,-526 760.75,-520 766.75,-520 766.75,-520 878,-520 878,-520 884,-520 890,-526 890,-532 890,-532 890,-544 890,-544 890,-550 884,-556 878,-556"/>
<text xml:space="preserve" text-anchor="middle" x="822.38" y="-539.75" font-family="Helvetica,sans-Serif" font-size="10.00">Capacitor Recharge Rate 4</text>
<text xml:space="preserve" text-anchor="middle" x="822.38" y="-528.5" font-family="Helvetica,sans-Serif" font-size="10.00">8K RP</text>
</g>
<!-- Capacitor_Recharge_Rate_3&#45;&gt;Capacitor_Recharge_Rate_4 -->
<g id="edge12" class="edge">
<title>Capacitor_Recharge_Rate_3&#45;&gt;Capacitor_Recharge_Rate_4</title>
<path fill="none" stroke="black" d="M642.47,-584.7C674.73,-576.51 713.37,-566.69 746.56,-558.26"/>
<polygon fill="black" stroke="black" points="746.78,-560.73 752.96,-556.63 745.58,-555.98 746.78,-560.73"/>
</g>
<!-- Capacitor_Recharge_Rate_3_25 -->
<g id="node10" class="node">
<title>Capacitor_Recharge_Rate_3_25</title>
<path fill="#cce5ff" stroke="black" d="M632.75,-491C632.75,-491 508,-491 508,-491 502,-491 496,-485 496,-479 496,-479 496,-467 496,-467 496,-461 502,-455 508,-455 508,-455 632.75,-455 632.75,-455 638.75,-455 644.75,-461 644.75,-467 644.75,-467 644.75,-479 644.75,-479 644.75,-485 638.75,-491 632.75,-491"/>
<text xml:space="preserve" text-anchor="middle" x="570.38" y="-474.75" font-family="Helvetica,sans-Serif" font-size="10.00">Capacitor Recharge Rate 3.25</text>
<text xml:space="preserve" text-anchor="middle" x="570.38" y="-463.5" font-family="Helvetica,sans-Serif" font-size="10.00">5K RP</text>
</g>
<!-- Capacitor_Recharge_Rate_3_5 -->
<g id="node11" class="node">
<title>Capacitor_Recharge_Rate_3_5</title>
<path fill="#cce5ff" stroke="black" d="M798.12,-491C798.12,-491 678.62,-491 678.62,-491 672.62,-491 666.62,-485 666.62,-479 666.62,-479 666.62,-467 666.62,-467 666.62,-461 672.62,-455 678.62,-455 678.62,-455 798.12,-455 798.12,-455 804.12,-455 810.12,-461 810.12,-467 810.12,-467 810.12,-479 810.12,-479 810.12,-485 804.12,-491 798.12,-491"/>
<text xml:space="preserve" text-anchor="middle" x="738.38" y="-474.75" font-family="Helvetica,sans-Serif" font-size="10.00">Capacitor Recharge Rate 3.5</text>
<text xml:space="preserve" text-anchor="middle" x="738.38" y="-463.5" font-family="Helvetica,sans-Serif" font-size="10.00">6K RP</text>
</g>
<!-- Capacitor_Recharge_Rate_3_75 -->
<g id="node12" class="node">
<title>Capacitor_Recharge_Rate_3_75</title>
<path fill="#cce5ff" stroke="black" d="M968.75,-491C968.75,-491 844,-491 844,-491 838,-491 832,-485 832,-479 832,-479 832,-467 832,-467 832,-461 838,-455 844,-455 844,-455 968.75,-455 968.75,-455 974.75,-455 980.75,-461 980.75,-467 980.75,-467 980.75,-479 980.75,-479 980.75,-485 974.75,-491 968.75,-491"/>
<text xml:space="preserve" text-anchor="middle" x="906.38" y="-474.75" font-family="Helvetica,sans-Serif" font-size="10.00">Capacitor Recharge Rate 3.75</text>
<text xml:space="preserve" text-anchor="middle" x="906.38" y="-463.5" font-family="Helvetica,sans-Serif" font-size="10.00">7K RP</text>
</g>
<!-- Capacitor_Recharge_Rate_4&#45;&gt;Capacitor_Recharge_Rate_3_25 -->
<g id="edge9" class="edge">
<title>Capacitor_Recharge_Rate_4&#45;&gt;Capacitor_Recharge_Rate_3_25</title>
<path fill="none" stroke="black" d="M754.51,-520.03C721.72,-511.84 682.19,-501.95 648.18,-493.45"/>
<polygon fill="black" stroke="black" points="648.97,-491.12 641.58,-491.8 647.78,-495.88 648.97,-491.12"/>
</g>
<!-- Capacitor_Recharge_Rate_4&#45;&gt;Capacitor_Recharge_Rate_3_5 -->
<g id="edge10" class="edge">
<title>Capacitor_Recharge_Rate_4&#45;&gt;Capacitor_Recharge_Rate_3_5</title>
<path fill="none" stroke="black" d="M799.42,-519.78C789.78,-512.55 778.44,-504.05 768.16,-496.34"/>
<polygon fill="black" stroke="black" points="769.87,-494.56 762.8,-492.32 766.93,-498.48 769.87,-494.56"/>
</g>
<!-- Capacitor_Recharge_Rate_4&#45;&gt;Capacitor_Recharge_Rate_3_75 -->
<g id="edge11" class="edge">
<title>Capacitor_Recharge_Rate_4&#45;&gt;Capacitor_Recharge_Rate_3_75</title>
<path fill="none" stroke="black" d="M845.33,-519.78C854.97,-512.55 866.31,-504.05 876.59,-496.34"/>
<polygon fill="black" stroke="black" points="877.82,-498.48 881.95,-492.32 874.88,-494.56 877.82,-498.48"/>
</g>
<!-- Capacitor_Recharge_Rate_5 -->
<g id="node15" class="node">
<title>Capacitor_Recharge_Rate_5</title>
<path fill="#fff3cd" stroke="black" d="M1126,-491C1126,-491 1014.75,-491 1014.75,-491 1008.75,-491 1002.75,-485 1002.75,-479 1002.75,-479 1002.75,-467 1002.75,-467 1002.75,-461 1008.75,-455 1014.75,-455 1014.75,-455 1126,-455 1126,-455 1132,-455 1138,-461 1138,-467 1138,-467 1138,-479 1138,-479 1138,-485 1132,-491 1126,-491"/>
<text xml:space="preserve" text-anchor="middle" x="1070.38" y="-474.75" font-family="Helvetica,sans-Serif" font-size="10.00">Capacitor Recharge Rate 5</text>
<text xml:space="preserve" text-anchor="middle" x="1070.38" y="-463.5" font-family="Helvetica,sans-Serif" font-size="10.00">15K RP</text>
</g>
<!-- Capacitor_Recharge_Rate_4&#45;&gt;Capacitor_Recharge_Rate_5 -->
<g id="edge14" class="edge">
<title>Capacitor_Recharge_Rate_4&#45;&gt;Capacitor_Recharge_Rate_5</title>
<path fill="none" stroke="black" d="M890.47,-519.7C922.73,-511.51 961.37,-501.69 994.56,-493.26"/>
<polygon fill="black" stroke="black" points="994.78,-495.73 1000.96,-491.63 993.58,-490.98 994.78,-495.73"/>
</g>
<!-- Capacitor_Recharge_Rate_4_5 -->
<g id="node14" class="node">
<title>Capacitor_Recharge_Rate_4_5</title>
<path fill="#fff3cd" stroke="black" d="M1049.12,-426C1049.12,-426 929.62,-426 929.62,-426 923.62,-426 917.62,-420 917.62,-414 917.62,-414 917.62,-402 917.62,-402 917.62,-396 923.62,-390 929.62,-390 929.62,-390 1049.12,-390 1049.12,-390 1055.12,-390 1061.12,-396 1061.12,-402 1061.12,-402 1061.12,-414 1061.12,-414 1061.12,-420 1055.12,-426 1049.12,-426"/>
<text xml:space="preserve" text-anchor="middle" x="989.38" y="-409.75" font-family="Helvetica,sans-Serif" font-size="10.00">Capacitor Recharge Rate 4.5</text>
<text xml:space="preserve" text-anchor="middle" x="989.38" y="-398.5" font-family="Helvetica,sans-Serif" font-size="10.00">12K RP</text>
</g>
<!-- Capacitor_Recharge_Rate_5&#45;&gt;Capacitor_Recharge_Rate_4_5 -->
<g id="edge13" class="edge">
<title>Capacitor_Recharge_Rate_5&#45;&gt;Capacitor_Recharge_Rate_4_5</title>
<path fill="none" stroke="black" d="M1048.24,-454.78C1039.03,-447.62 1028.21,-439.21 1018.38,-431.56"/>
<polygon fill="black" stroke="black" points="1019.99,-429.71 1012.96,-427.34 1016.98,-433.57 1019.99,-429.71"/>
</g>
<!-- Capacitor_Recharge_Rate_6 -->
<g id="node17" class="node">
<title>Capacitor_Recharge_Rate_6</title>
<path fill="#fff3cd" stroke="black" d="M1206,-426C1206,-426 1094.75,-426 1094.75,-426 1088.75,-426 1082.75,-420 1082.75,-414 1082.75,-414 1082.75,-402 1082.75,-402 1082.75,-396 1088.75,-390 1094.75,-390 1094.75,-390 1206,-390 1206,-390 1212,-390 1218,-396 1218,-402 1218,-402 1218,-414 1218,-414 1218,-420 1212,-426 1206,-426"/>
<text xml:space="preserve" text-anchor="middle" x="1150.38" y="-409.75" font-family="Helvetica,sans-Serif" font-size="10.00">Capacitor Recharge Rate 6</text>
<text xml:space="preserve" text-anchor="middle" x="1150.38" y="-398.5" font-family="Helvetica,sans-Serif" font-size="10.00">30K RP</text>
</g>
<!-- Capacitor_Recharge_Rate_5&#45;&gt;Capacitor_Recharge_Rate_6 -->
<g id="edge16" class="edge">
<title>Capacitor_Recharge_Rate_5&#45;&gt;Capacitor_Recharge_Rate_6</title>
<path fill="none" stroke="black" d="M1092.24,-454.78C1101.33,-447.62 1112.02,-439.21 1121.73,-431.56"/>
<polygon fill="black" stroke="black" points="1123.09,-433.61 1127.07,-427.35 1120.06,-429.76 1123.09,-433.61"/>
</g>
<!-- Capacitor_Recharge_Rate_5_5 -->
<g id="node16" class="node">
<title>Capacitor_Recharge_Rate_5_5</title>
<path fill="#fff3cd" stroke="black" d="M1129.12,-361C1129.12,-361 1009.62,-361 1009.62,-361 1003.62,-361 997.62,-355 997.62,-349 997.62,-349 997.62,-337 997.62,-337 997.62,-331 1003.62,-325 1009.62,-325 1009.62,-325 1129.12,-325 1129.12,-325 1135.12,-325 1141.12,-331 1141.12,-337 1141.12,-337 1141.12,-349 1141.12,-349 1141.12,-355 1135.12,-361 1129.12,-361"/>
<text xml:space="preserve" text-anchor="middle" x="1069.38" y="-344.75" font-family="Helvetica,sans-Serif" font-size="10.00">Capacitor Recharge Rate 5.5</text>
<text xml:space="preserve" text-anchor="middle" x="1069.38" y="-333.5" font-family="Helvetica,sans-Serif" font-size="10.00">22K RP</text>
</g>
<!-- Capacitor_Recharge_Rate_6&#45;&gt;Capacitor_Recharge_Rate_5_5 -->
<g id="edge15" class="edge">
<title>Capacitor_Recharge_Rate_6&#45;&gt;Capacitor_Recharge_Rate_5_5</title>
<path fill="none" stroke="black" d="M1128.24,-389.78C1119.03,-382.62 1108.21,-374.21 1098.38,-366.56"/>
<polygon fill="black" stroke="black" points="1099.99,-364.71 1092.96,-362.34 1096.98,-368.57 1099.99,-364.71"/>
</g>
<!-- Capacitor_Recharge_Rate_8 -->
<g id="node19" class="node">
<title>Capacitor_Recharge_Rate_8</title>
<path fill="#fff3cd" stroke="black" d="M1286,-361C1286,-361 1174.75,-361 1174.75,-361 1168.75,-361 1162.75,-355 1162.75,-349 1162.75,-349 1162.75,-337 1162.75,-337 1162.75,-331 1168.75,-325 1174.75,-325 1174.75,-325 1286,-325 1286,-325 1292,-325 1298,-331 1298,-337 1298,-337 1298,-349 1298,-349 1298,-355 1292,-361 1286,-361"/>
<text xml:space="preserve" text-anchor="middle" x="1230.38" y="-344.75" font-family="Helvetica,sans-Serif" font-size="10.00">Capacitor Recharge Rate 8</text>
<text xml:space="preserve" text-anchor="middle" x="1230.38" y="-333.5" font-family="Helvetica,sans-Serif" font-size="10.00">60K RP</text>
</g>
<!-- Capacitor_Recharge_Rate_6&#45;&gt;Capacitor_Recharge_Rate_8 -->
<g id="edge18" class="edge">
<title>Capacitor_Recharge_Rate_6&#45;&gt;Capacitor_Recharge_Rate_8</title>
<path fill="none" stroke="black" d="M1172.24,-389.78C1181.33,-382.62 1192.02,-374.21 1201.73,-366.56"/>
<polygon fill="black" stroke="black" points="1203.09,-368.61 1207.07,-362.35 1200.06,-364.76 1203.09,-368.61"/>
</g>
<!-- Capacitor_Recharge_Rate_7 -->
<g id="node18" class="node">
<title>Capacitor_Recharge_Rate_7</title>
<path fill="#fff3cd" stroke="black" d="M1206,-296C1206,-296 1094.75,-296 1094.75,-296 1088.75,-296 1082.75,-290 1082.75,-284 1082.75,-284 1082.75,-272 1082.75,-272 1082.75,-266 1088.75,-260 1094.75,-260 1094.75,-260 1206,-260 1206,-260 1212,-260 1218,-266 1218,-272 1218,-272 1218,-284 1218,-284 1218,-290 1212,-296 1206,-296"/>
<text xml:space="preserve" text-anchor="middle" x="1150.38" y="-279.75" font-family="Helvetica,sans-Serif" font-size="10.00">Capacitor Recharge Rate 7</text>
<text xml:space="preserve" text-anchor="middle" x="1150.38" y="-268.5" font-family="Helvetica,sans-Serif" font-size="10.00">45K RP</text>
</g>
<!-- Capacitor_Recharge_Rate_8&#45;&gt;Capacitor_Recharge_Rate_7 -->
<g id="edge17" class="edge">
<title>Capacitor_Recharge_Rate_8&#45;&gt;Capacitor_Recharge_Rate_7</title>
<path fill="none" stroke="black" d="M1208.51,-324.78C1199.42,-317.62 1188.73,-309.21 1179.02,-301.56"/>
<polygon fill="black" stroke="black" points="1180.69,-299.76 1173.68,-297.35 1177.66,-303.61 1180.69,-299.76"/>
</g>
<!-- Capacitor_Recharge_Rate_10 -->
<g id="node21" class="node">
<title>Capacitor_Recharge_Rate_10</title>
<path fill="#d4c4fb" stroke="black" d="M1368.62,-296C1368.62,-296 1252.12,-296 1252.12,-296 1246.12,-296 1240.12,-290 1240.12,-284 1240.12,-284 1240.12,-272 1240.12,-272 1240.12,-266 1246.12,-260 1252.12,-260 1252.12,-260 1368.62,-260 1368.62,-260 1374.62,-260 1380.62,-266 1380.62,-272 1380.62,-272 1380.62,-284 1380.62,-284 1380.62,-290 1374.62,-296 1368.62,-296"/>
<text xml:space="preserve" text-anchor="middle" x="1310.38" y="-279.75" font-family="Helvetica,sans-Serif" font-size="10.00">Capacitor Recharge Rate 10</text>
<text xml:space="preserve" text-anchor="middle" x="1310.38" y="-268.5" font-family="Helvetica,sans-Serif" font-size="10.00">125K RP</text>
</g>
<!-- Capacitor_Recharge_Rate_8&#45;&gt;Capacitor_Recharge_Rate_10 -->
<g id="edge20" class="edge">
<title>Capacitor_Recharge_Rate_8&#45;&gt;Capacitor_Recharge_Rate_10</title>
<path fill="none" stroke="black" d="M1252.24,-324.78C1261.33,-317.62 1272.02,-309.21 1281.73,-301.56"/>
<polygon fill="black" stroke="black" points="1283.09,-303.61 1287.07,-297.35 1280.06,-299.76 1283.09,-303.61"/>
</g>
<!-- Capacitor_Recharge_Rate_9 -->
<g id="node20" class="node">
<title>Capacitor_Recharge_Rate_9</title>
<path fill="#fff3cd" stroke="black" d="M1286,-231C1286,-231 1174.75,-231 1174.75,-231 1168.75,-231 1162.75,-225 1162.75,-219 1162.75,-219 1162.75,-207 1162.75,-207 1162.75,-201 1168.75,-195 1174.75,-195 1174.75,-195 1286,-195 1286,-195 1292,-195 1298,-201 1298,-207 1298,-207 1298,-219 1298,-219 1298,-225 1292,-231 1286,-231"/>
<text xml:space="preserve" text-anchor="middle" x="1230.38" y="-214.75" font-family="Helvetica,sans-Serif" font-size="10.00">Capacitor Recharge Rate 9</text>
<text xml:space="preserve" text-anchor="middle" x="1230.38" y="-203.5" font-family="Helvetica,sans-Serif" font-size="10.00">92K RP</text>
</g>
<!-- Capacitor_Recharge_Rate_10&#45;&gt;Capacitor_Recharge_Rate_9 -->
<g id="edge19" class="edge">
<title>Capacitor_Recharge_Rate_10&#45;&gt;Capacitor_Recharge_Rate_9</title>
<path fill="none" stroke="black" d="M1288.51,-259.78C1279.42,-252.62 1268.73,-244.21 1259.02,-236.56"/>
<polygon fill="black" stroke="black" points="1260.69,-234.76 1253.68,-232.35 1257.66,-238.61 1260.69,-234.76"/>
</g>
<!-- Capacitor_Recharge_Rate_12 -->
<g id="node23" class="node">
<title>Capacitor_Recharge_Rate_12</title>
<path fill="#d4c4fb" stroke="black" d="M1448.62,-231C1448.62,-231 1332.12,-231 1332.12,-231 1326.12,-231 1320.12,-225 1320.12,-219 1320.12,-219 1320.12,-207 1320.12,-207 1320.12,-201 1326.12,-195 1332.12,-195 1332.12,-195 1448.62,-195 1448.62,-195 1454.62,-195 1460.62,-201 1460.62,-207 1460.62,-207 1460.62,-219 1460.62,-219 1460.62,-225 1454.62,-231 1448.62,-231"/>
<text xml:space="preserve" text-anchor="middle" x="1390.38" y="-214.75" font-family="Helvetica,sans-Serif" font-size="10.00">Capacitor Recharge Rate 12</text>
<text xml:space="preserve" text-anchor="middle" x="1390.38" y="-203.5" font-family="Helvetica,sans-Serif" font-size="10.00">250K RP</text>
</g>
<!-- Capacitor_Recharge_Rate_10&#45;&gt;Capacitor_Recharge_Rate_12 -->
<g id="edge22" class="edge">
<title>Capacitor_Recharge_Rate_10&#45;&gt;Capacitor_Recharge_Rate_12</title>
<path fill="none" stroke="black" d="M1332.24,-259.78C1341.33,-252.62 1352.02,-244.21 1361.73,-236.56"/>
<polygon fill="black" stroke="black" points="1363.09,-238.61 1367.07,-232.35 1360.06,-234.76 1363.09,-238.61"/>
</g>
<!-- Capacitor_Recharge_Rate_11 -->
<g id="node22" class="node">
<title>Capacitor_Recharge_Rate_11</title>
<path fill="#d4c4fb" stroke="black" d="M1366.62,-166C1366.62,-166 1250.12,-166 1250.12,-166 1244.12,-166 1238.12,-160 1238.12,-154 1238.12,-154 1238.12,-142 1238.12,-142 1238.12,-136 1244.12,-130 1250.12,-130 1250.12,-130 1366.62,-130 1366.62,-130 1372.62,-130 1378.62,-136 1378.62,-142 1378.62,-142 1378.62,-154 1378.62,-154 1378.62,-160 1372.62,-166 1366.62,-166"/>
<text xml:space="preserve" text-anchor="middle" x="1308.38" y="-149.75" font-family="Helvetica,sans-Serif" font-size="10.00">Capacitor Recharge Rate 11</text>
<text xml:space="preserve" text-anchor="middle" x="1308.38" y="-138.5" font-family="Helvetica,sans-Serif" font-size="10.00">188K RP</text>
</g>
<!-- Capacitor_Recharge_Rate_12&#45;&gt;Capacitor_Recharge_Rate_11 -->
<g id="edge21" class="edge">
<title>Capacitor_Recharge_Rate_12&#45;&gt;Capacitor_Recharge_Rate_11</title>
<path fill="none" stroke="black" d="M1367.97,-194.78C1358.64,-187.62 1347.69,-179.21 1337.74,-171.56"/>
<polygon fill="black" stroke="black" points="1339.28,-169.66 1332.24,-167.34 1336.3,-173.54 1339.28,-169.66"/>
</g>
<!-- Capacitor_Recharge_Rate_16 -->
<g id="node27" class="node">
<title>Capacitor_Recharge_Rate_16</title>
<path fill="#d4c4fb" stroke="black" d="M1529.62,-166C1529.62,-166 1413.12,-166 1413.12,-166 1407.12,-166 1401.12,-160 1401.12,-154 1401.12,-154 1401.12,-142 1401.12,-142 1401.12,-136 1407.12,-130 1413.12,-130 1413.12,-130 1529.62,-130 1529.62,-130 1535.62,-130 1541.62,-136 1541.62,-142 1541.62,-142 1541.62,-154 1541.62,-154 1541.62,-160 1535.62,-166 1529.62,-166"/>
<text xml:space="preserve" text-anchor="middle" x="1471.38" y="-149.75" font-family="Helvetica,sans-Serif" font-size="10.00">Capacitor Recharge Rate 16</text>
<text xml:space="preserve" text-anchor="middle" x="1471.38" y="-138.5" font-family="Helvetica,sans-Serif" font-size="10.00">500K RP</text>
</g>
<!-- Capacitor_Recharge_Rate_12&#45;&gt;Capacitor_Recharge_Rate_16 -->
<g id="edge26" class="edge">
<title>Capacitor_Recharge_Rate_12&#45;&gt;Capacitor_Recharge_Rate_16</title>
<path fill="none" stroke="black" d="M1412.51,-194.78C1421.72,-187.62 1432.54,-179.21 1442.37,-171.56"/>
<polygon fill="black" stroke="black" points="1443.77,-173.57 1447.79,-167.34 1440.76,-169.71 1443.77,-173.57"/>
</g>
<!-- Capacitor_Recharge_Rate_13 -->
<g id="node24" class="node">
<title>Capacitor_Recharge_Rate_13</title>
<path fill="#d4c4fb" stroke="black" d="M1285.62,-101C1285.62,-101 1169.12,-101 1169.12,-101 1163.12,-101 1157.12,-95 1157.12,-89 1157.12,-89 1157.12,-77 1157.12,-77 1157.12,-71 1163.12,-65 1169.12,-65 1169.12,-65 1285.62,-65 1285.62,-65 1291.62,-65 1297.62,-71 1297.62,-77 1297.62,-77 1297.62,-89 1297.62,-89 1297.62,-95 1291.62,-101 1285.62,-101"/>
<text xml:space="preserve" text-anchor="middle" x="1227.38" y="-84.75" font-family="Helvetica,sans-Serif" font-size="10.00">Capacitor Recharge Rate 13</text>
<text xml:space="preserve" text-anchor="middle" x="1227.38" y="-73.5" font-family="Helvetica,sans-Serif" font-size="10.00">312K RP</text>
</g>
<!-- Capacitor_Recharge_Rate_14 -->
<g id="node25" class="node">
<title>Capacitor_Recharge_Rate_14</title>
<path fill="#d4c4fb" stroke="black" d="M1448.62,-101C1448.62,-101 1332.12,-101 1332.12,-101 1326.12,-101 1320.12,-95 1320.12,-89 1320.12,-89 1320.12,-77 1320.12,-77 1320.12,-71 1326.12,-65 1332.12,-65 1332.12,-65 1448.62,-65 1448.62,-65 1454.62,-65 1460.62,-71 1460.62,-77 1460.62,-77 1460.62,-89 1460.62,-89 1460.62,-95 1454.62,-101 1448.62,-101"/>
<text xml:space="preserve" text-anchor="middle" x="1390.38" y="-84.75" font-family="Helvetica,sans-Serif" font-size="10.00">Capacitor Recharge Rate 14</text>
<text xml:space="preserve" text-anchor="middle" x="1390.38" y="-73.5" font-family="Helvetica,sans-Serif" font-size="10.00">375K RP</text>
</g>
<!-- Capacitor_Recharge_Rate_15 -->
<g id="node26" class="node">
<title>Capacitor_Recharge_Rate_15</title>
<path fill="#d4c4fb" stroke="black" d="M1611.62,-101C1611.62,-101 1495.12,-101 1495.12,-101 1489.12,-101 1483.12,-95 1483.12,-89 1483.12,-89 1483.12,-77 1483.12,-77 1483.12,-71 1489.12,-65 1495.12,-65 1495.12,-65 1611.62,-65 1611.62,-65 1617.62,-65 1623.62,-71 1623.62,-77 1623.62,-77 1623.62,-89 1623.62,-89 1623.62,-95 1617.62,-101 1611.62,-101"/>
<text xml:space="preserve" text-anchor="middle" x="1553.38" y="-84.75" font-family="Helvetica,sans-Serif" font-size="10.00">Capacitor Recharge Rate 15</text>
<text xml:space="preserve" text-anchor="middle" x="1553.38" y="-73.5" font-family="Helvetica,sans-Serif" font-size="10.00">438K RP</text>
</g>
<!-- Capacitor_Recharge_Rate_16&#45;&gt;Capacitor_Recharge_Rate_13 -->
<g id="edge23" class="edge">
<title>Capacitor_Recharge_Rate_16&#45;&gt;Capacitor_Recharge_Rate_13</title>
<path fill="none" stroke="black" d="M1403.73,-129.53C1372.53,-121.48 1335.36,-111.88 1303.21,-103.58"/>
<polygon fill="black" stroke="black" points="1304.01,-101.26 1296.62,-101.88 1302.78,-106 1304.01,-101.26"/>
</g>
<!-- Capacitor_Recharge_Rate_16&#45;&gt;Capacitor_Recharge_Rate_14 -->
<g id="edge24" class="edge">
<title>Capacitor_Recharge_Rate_16&#45;&gt;Capacitor_Recharge_Rate_14</title>
<path fill="none" stroke="black" d="M1449.24,-129.78C1440.03,-122.62 1429.21,-114.21 1419.38,-106.56"/>
<polygon fill="black" stroke="black" points="1420.99,-104.71 1413.96,-102.34 1417.98,-108.57 1420.99,-104.71"/>
</g>
<!-- Capacitor_Recharge_Rate_16&#45;&gt;Capacitor_Recharge_Rate_15 -->
<g id="edge25" class="edge">
<title>Capacitor_Recharge_Rate_16&#45;&gt;Capacitor_Recharge_Rate_15</title>
<path fill="none" stroke="black" d="M1493.78,-129.78C1503.11,-122.62 1514.06,-114.21 1524.01,-106.56"/>
<polygon fill="black" stroke="black" points="1525.45,-108.54 1529.51,-102.34 1522.47,-104.66 1525.45,-108.54"/>
</g>
<!-- Capacitor_Recharge_Rate_20 -->
<g id="node28" class="node">
<title>Capacitor_Recharge_Rate_20</title>
<path fill="#d4c4fb" stroke="black" d="M1774.62,-101C1774.62,-101 1658.12,-101 1658.12,-101 1652.12,-101 1646.12,-95 1646.12,-89 1646.12,-89 1646.12,-77 1646.12,-77 1646.12,-71 1652.12,-65 1658.12,-65 1658.12,-65 1774.62,-65 1774.62,-65 1780.62,-65 1786.62,-71 1786.62,-77 1786.62,-77 1786.62,-89 1786.62,-89 1786.62,-95 1780.62,-101 1774.62,-101"/>
<text xml:space="preserve" text-anchor="middle" x="1716.38" y="-84.75" font-family="Helvetica,sans-Serif" font-size="10.00">Capacitor Recharge Rate 20</text>
<text xml:space="preserve" text-anchor="middle" x="1716.38" y="-73.5" font-family="Helvetica,sans-Serif" font-size="10.00">1.0M RP</text>
</g>
<!-- Capacitor_Recharge_Rate_16&#45;&gt;Capacitor_Recharge_Rate_20 -->
<g id="edge27" class="edge">
<title>Capacitor_Recharge_Rate_16&#45;&gt;Capacitor_Recharge_Rate_20</title>
<path fill="none" stroke="black" d="M1539.3,-129.53C1570.63,-121.48 1607.95,-111.88 1640.23,-103.58"/>
<polygon fill="black" stroke="black" points="1640.69,-105.99 1646.86,-101.88 1639.47,-101.25 1640.69,-105.99"/>
</g>
<!-- Capacitor_Recharge_Rate_25 -->
<g id="node29" class="node">
<title>Capacitor_Recharge_Rate_25</title>
<path fill="#f8d7da" stroke="black" d="M1774.62,-36C1774.62,-36 1658.12,-36 1658.12,-36 1652.12,-36 1646.12,-30 1646.12,-24 1646.12,-24 1646.12,-12 1646.12,-12 1646.12,-6 1652.12,0 1658.12,0 1658.12,0 1774.62,0 1774.62,0 1780.62,0 1786.62,-6 1786.62,-12 1786.62,-12 1786.62,-24 1786.62,-24 1786.62,-30 1780.62,-36 1774.62,-36"/>
<text xml:space="preserve" text-anchor="middle" x="1716.38" y="-19.75" font-family="Helvetica,sans-Serif" font-size="10.00">Capacitor Recharge Rate 25</text>
<text xml:space="preserve" text-anchor="middle" x="1716.38" y="-8.5" font-family="Helvetica,sans-Serif" font-size="10.00">2.0M RP</text>
</g>
<!-- Capacitor_Recharge_Rate_20&#45;&gt;Capacitor_Recharge_Rate_25 -->
<g id="edge28" class="edge">
<title>Capacitor_Recharge_Rate_20&#45;&gt;Capacitor_Recharge_Rate_25</title>
<path fill="none" stroke="black" d="M1716.38,-64.78C1716.38,-58.53 1716.38,-51.33 1716.38,-44.52"/>
<polygon fill="black" stroke="black" points="1718.83,-44.71 1716.38,-37.71 1713.93,-44.71 1718.83,-44.71"/>
</g>
</g>
</svg>
