<?xml version="1.0" encoding="UTF-8" standalone="no"?>
<!DOCTYPE svg PUBLIC "-//W3C//DTD SVG 1.1//EN"
 "http://www.w3.org/Graphics/SVG/1.1/DTD/svg11.dtd">
<!-- Generated by graphviz version 14.1.2 (20260124.0452)
 -->
<!-- Title: TechTree Pages: 1 -->
<svg width="1669pt" height="857pt"
 viewBox="0.00 0.00 1669.00 857.00" xmlns="http://www.w3.org/2000/svg" xmlns:xlink="http://www.w3.org/1999/xlink">
<g id="graph0" class="graph" transform="scale(1 1) rotate(0) translate(4 852.75)">
<title>TechTree</title>
<polygon fill="white" stroke="none" points="-4,4 -4,-852.75 1664.75,-852.75 1664.75,4 -4,4"/>
<text xml:space="preserve" text-anchor="middle" x="830.38" y="-833.35" font-family="Helvetica,sans-Serif" font-weight="bold" font-size="12.00">Capacitor Recharge Rate</text>
<!-- Capacitor_Recharge_Rate_1 -->
<g id="node1" class="node">
<title>Capacitor_Recharge_Rate_1</title>
<path fill="#cce5ff" stroke="black" d="M281.12,-828C281.12,-828 177.38,-828 177.38,-828 171.38,-828 165.38,-822 165.38,-816 165.38,-816 165.38,-804 165.38,-804 165.38,-798 171.38,-792 177.38,-792 177.38,-792 281.12,-792 281.12,-792 287.12,-792 293.12,-798 293.12,-804 293.12,-804 293.12,-816 293.12,-816 293.12,-822 287.12,-828 281.12,-828"/>
<text xml:space="preserve" text-anchor="middle" x="229.25" y="-811.2" font-family="Helvetica,sans-Serif" font-size="9.00">Capacitor Recharge Rate 1</text>
<text xml:space="preserve" text-anchor="middle" x="229.25" y="-801.45" font-family="Helvetica,sans-Serif" font-size="9.00">1K RP</text>
</g>
<!-- Capacitor_Recharge_Rate_2 -->
<g id="node5" class="node">
<title>Capacitor_Recharge_Rate_2</title>
<path fill="#cce5ff" stroke="black" d="M356.12,-756C356.12,-756 252.38,-756 252.38,-756 246.38,-756 240.38,-750 240.38,-744 240.38,-744 240.38,-732 240.38,-732 240.38,-726 246.38,-720 252.38,-720 252.38,-720 356.12,-720 356.12,-720 362.12,-720 368.12,-726 368.12,-732 368.12,-732 368.12,-744 368.12,-744 368.12,-750 362.12,-756 356.12,-756"/>
<text xml:space="preserve" text-anchor="middle" x="304.25" y="-739.2" font-family="Helvetica,sans-Serif" font-size="9.00">Capacitor Recharge Rate 2</text>
<text xml:space="preserve" text-anchor="middle" x="304.25" y="-729.45" font-family="Helvetica,sans-Serif" font-size="9.00">2K RP</text>
</g>
<!-- Capacitor_Recharge_Rate_1&#45;&gt;Capacitor_Recharge_Rate_2 -->
<g id="edge4" class="edge">
<title>Capacitor_Recharge_Rate_1&#45;&gt;Capacitor_Recharge_Rate_2</title>
<path fill="none" stroke="black" d="M247.79,-791.7C257.62,-782.53 269.8,-771.16 280.33,-761.33"/>
<polygon fill="black" stroke="black" points="281.6,-763.01 284.56,-757.38 278.74,-759.94 281.6,-763.01"/>
</g>
<!-- Capacitor_Recharge_Rate_1_25 -->
<g id="node2" class="node">
<title>Capacitor_Recharge_Rate_1_25</title>
<path fill="#cce5ff" stroke="black" d="M128.5,-684C128.5,-684 12,-684 12,-684 6,-684 0,-678 0,-672 0,-672 0,-660 0,-660 0,-654 6,-648 12,-648 12,-648 128.5,-648 128.5,-648 134.5,-648 140.5,-654 140.5,-660 140.5,-660 140.5,-672 140.5,-672 140.5,-678 134.5,-684 128.5,-684"/>
<text xml:space="preserve" text-anchor="middle" x="70.25" y="-667.2" font-family="Helvetica,sans-Serif" font-size="9.00">Capacitor Recharge Rate 1.25</text>
<text xml:space="preserve" text-anchor="middle" x="70.25" y="-657.45" font-family="Helvetica,sans-Serif" font-size="9.00">1K RP</text>
</g>
<!-- Capacitor_Recharge_Rate_1_5 -->
<g id="node3" class="node">
<title>Capacitor_Recharge_Rate_1_5</title>
<path fill="#cce5ff" stroke="black" d="M281.88,-684C281.88,-684 170.62,-684 170.62,-684 164.62,-684 158.62,-678 158.62,-672 158.62,-672 158.62,-660 158.62,-660 158.62,-654 164.62,-648 170.62,-648 170.62,-648 281.88,-648 281.88,-648 287.88,-648 293.88,-654 293.88,-660 293.88,-660 293.88,-672 293.88,-672 293.88,-678 287.88,-684 281.88,-684"/>
<text xml:space="preserve" text-anchor="middle" x="226.25" y="-667.2" font-family="Helvetica,sans-Serif" font-size="9.00">Capacitor Recharge Rate 1.5</text>
<text xml:space="preserve" text-anchor="middle" x="226.25" y="-657.45" font-family="Helvetica,sans-Serif" font-size="9.00">2K RP</text>
</g>
<!-- Capacitor_Recharge_Rate_1_75 -->
<g id="node4" class="node">
<title>Capacitor_Recharge_Rate_1_75</title>
<path fill="#cce5ff" stroke="black" d="M440.5,-684C440.5,-684 324,-684 324,-684 318,-684 312,-678 312,-672 312,-672 312,-660 312,-660 312,-654 318,-648 324,-648 324,-648 440.5,-648 440.5,-648 446.5,-648 452.5,-654 452.5,-660 452.5,-660 452.5,-672 452.5,-672 452.5,-678 446.5,-684 440.5,-684"/>
<text xml:space="preserve" text-anchor="middle" x="382.25" y="-667.2" font-family="Helvetica,sans-Serif" font-size="9.00">Capacitor Recharge Rate 1.75</text>
<text xml:space="preserve" text-anchor="middle" x="382.25" y="-657.45" font-family="Helvetica,sans-Serif" font-size="9.00">2K RP</text>
</g>
<!-- Capacitor_Recharge_Rate_2&#45;&gt;Capacitor_Recharge_Rate_1_25 -->
<g id="edge1" class="edge">
<title>Capacitor_Recharge_Rate_2&#45;&gt;Capacitor_Recharge_Rate_1_25</title>
<path fill="none" stroke="black" d="M245.81,-719.52C212.17,-709.46 169.85,-696.79 135.18,-686.42"/>
<polygon fill="black" stroke="black" points="136.15,-684.52 129.8,-684.82 134.95,-688.55 136.15,-684.52"/>
</g>
<!-- Capacitor_Recharge_Rate_2&#45;&gt;Capacitor_Recharge_Rate_1_5 -->
<g id="edge2" class="edge">
<title>Capacitor_Recharge_Rate_2&#45;&gt;Capacitor_Recharge_Rate_1_5</title>
<path fill="none" stroke="black" d="M284.97,-719.7C274.75,-710.53 262.08,-699.16 251.13,-689.33"/>
<polygon fill="black" stroke="black" points="252.57,-687.8 246.71,-685.36 249.77,-690.93 252.57,-687.8"/>
</g>
<!-- Capacitor_Recharge_Rate_2&#45;&gt;Capacitor_Recharge_Rate_1_75 -->
<g id="edge3" class="edge">
<title>Capacitor_Recharge_Rate_2&#45;&gt;Capacitor_Recharge_Rate_1_75</title>
<path fill="none" stroke="black" d="M323.53,-719.7C333.75,-710.53 346.42,-699.16 357.37,-689.33"/>
<polygon fill="black" stroke="black" points="358.73,-690.93 361.79,-685.36 355.93,-687.8 358.73,-690.93"/>
</g>
<!-- Capacitor_Recharge_Rate_3 -->
<g id="node9" class="node">
<title>Capacitor_Recharge_Rate_3</title>
<path fill="#cce5ff" stroke="black" d="M586.12,-684C586.12,-684 482.38,-684 482.38,-684 476.38,-684 470.38,-678 470.38,-672 470.38,-672 470.38,-660 470.38,-660 470.38,-654 476.38,-648 482.38,-648 482.38,-648 586.12,-648 586.12,-648 592.12,-648 598.12,-654 598.12,-660 598.12,-660 598.12,-672 598.12,-672 598.12,-678 592.12,-684 586.12,-684"/>
<text xml:space="preserve" text-anchor="middle" x="534.25" y="-667.2" font-family="Helvetica,sans-Serif" font-size="9.00">Capacitor Recharge Rate 3</text>
<text xml:space="preserve" text-anchor="middle" x="534.25" y="-657.45" font-family="Helvetica,sans-Serif" font-size="9.00">4K RP</text>
</g>
<!-- Capacitor_Recharge_Rate_2&#45;&gt;Capacitor_Recharge_Rate_3 -->
<g id="edge9" class="edge">
<title>Capacitor_Recharge_Rate_2&#45;&gt;Capacitor_Recharge_Rate_3</title>
<path fill="none" stroke="black" d="M361.7,-719.52C394.61,-709.5 436.01,-696.9 470,-686.55"/>
<polygon fill="black" stroke="black" points="470.56,-688.58 475.69,-684.82 469.34,-684.56 470.56,-688.58"/>
</g>
<!-- Capacitor_Recharge_Rate_2_25 -->
<g id="node6" class="node">
<title>Capacitor_Recharge_Rate_2_25</title>
<path fill="#cce5ff" stroke="black" d="M358.5,-612C358.5,-612 242,-612 242,-612 236,-612 230,-606 230,-600 230,-600 230,-588 230,-588 230,-582 236,-576 242,-576 242,-576 358.5,-576 358.5,-576 364.5,-576 370.5,-582 370.5,-588 370.5,-588 370.5,-600 370.5,-600 370.5,-606 364.5,-612 358.5,-612"/>
<text xml:space="preserve" text-anchor="middle" x="300.25" y="-595.2" font-family="Helvetica,sans-Serif" font-size="9.00">Capacitor Recharge Rate 2.25</text>
<text xml:space="preserve" text-anchor="middle" x="300.25" y="-585.45" font-family="Helvetica,sans-Serif" font-size="9.00">2K RP</text>
</g>
<!-- Capacitor_Recharge_Rate_2_5 -->
<g id="node7" class="node">
<title>Capacitor_Recharge_Rate_2_5</title>
<path fill="#cce5ff" stroke="black" d="M511.88,-612C511.88,-612 400.62,-612 400.62,-612 394.62,-612 388.62,-606 388.62,-600 388.62,-600 388.62,-588 388.62,-588 388.62,-582 394.62,-576 400.62,-576 400.62,-576 511.88,-576 511.88,-576 517.88,-576 523.88,-582 523.88,-588 523.88,-588 523.88,-600 523.88,-600 523.88,-606 517.88,-612 511.88,-612"/>
<text xml:space="preserve" text-anchor="middle" x="456.25" y="-595.2" font-family="Helvetica,sans-Serif" font-size="9.00">Capacitor Recharge Rate 2.5</text>
<text xml:space="preserve" text-anchor="middle" x="456.25" y="-585.45" font-family="Helvetica,sans-Serif" font-size="9.00">2K RP</text>
</g>
<!-- Capacitor_Recharge_Rate_2_75 -->
<g id="node8" class="node">
<title>Capacitor_Recharge_Rate_2_75</title>
<path fill="#cce5ff" stroke="black" d="M670.5,-612C670.5,-612 554,-612 554,-612 548,-612 542,-606 542,-600 542,-600 542,-588 542,-588 542,-582 548,-576 554,-576 554,-576 670.5,-576 670.5,-576 676.5,-576 682.5,-582 682.5,-588 682.5,-588 682.5,-600 682.5,-600 682.5,-606 676.5,-612 670.5,-612"/>
<text xml:space="preserve" text-anchor="middle" x="612.25" y="-595.2" font-family="Helvetica,sans-Serif" font-size="9.00">Capacitor Recharge Rate 2.75</text>
<text xml:space="preserve" text-anchor="middle" x="612.25" y="-585.45" font-family="Helvetica,sans-Serif" font-size="9.00">3K RP</text>
</g>
<!-- Capacitor_Recharge_Rate_3&#45;&gt;Capacitor_Recharge_Rate_2_25 -->
<g id="edge6" class="edge">
<title>Capacitor_Recharge_Rate_3&#45;&gt;Capacitor_Recharge_Rate_2_25</title>
<path fill="none" stroke="black" d="M475.81,-647.52C442.17,-637.46 399.85,-624.79 365.18,-614.42"/>
<polygon fill="black" stroke="black" points="366.15,-612.52 359.8,-612.82 364.95,-616.55 366.15,-612.52"/>
</g>
<!-- Capacitor_Recharge_Rate_3&#45;&gt;Capacitor_Recharge_Rate_2_5 -->
<g id="edge7" class="edge">
<title>Capacitor_Recharge_Rate_3&#45;&gt;Capacitor_Recharge_Rate_2_5</title>
<path fill="none" stroke="black" d="M514.97,-647.7C504.75,-638.53 492.08,-627.16 481.13,-617.33"/>
<polygon fill="black" stroke="black" points="482.57,-615.8 476.71,-613.36 479.77,-618.93 482.57,-615.8"/>
</g>
<!-- Capacitor_Recharge_Rate_3&#45;&gt;Capacitor_Recharge_Rate_2_75 -->
<g id="edge8" class="edge">
<title>Capacitor_Recharge_Rate_3&#45;&gt;Capacitor_Recharge_Rate_2_75</title>
<path fill="none" stroke="black" d="M553.53,-647.7C563.75,-638.53 576.42,-627.16 587.37,-617.33"/>
<polygon fill="black" stroke="black" points="588.73,-618.93 591.79,-613.36 585.93,-615.8 588.73,-618.93"/>
</g>
<!-- Capacitor_Recharge_Rate_4 -->
<g id="node13" class="node">
<title>Capacitor_Recharge_Rate_4</title>
<path fill="#cce5ff" stroke="black" d="M816.12,-612C816.12,-612 712.38,-612 712.38,-612 706.38,-612 700.38,-606 700.38,-600 700.38,-600 700.38,-588 700.38,-588 700.38,-582 706.38,-576 712.38,-576 712.38,-576 816.12,-576 816.12,-576 822.12,-576 828.12,-582 828.12,-588 828.12,-588 828.12,-600 828.12,-600 828.12,-606 822.12,-612 816.12,-612"/>
<text xml:space="preserve" text-anchor="middle" x="764.25" y="-595.2" font-family="Helvetica,sans-Serif" font-size="9.00">Capacitor Recharge Rate 4</text>
<text xml:space="preserve" text-anchor="middle" x="764.25" y="-585.45" font-family="Helvetica,sans-Serif" font-size="9.00">8K RP</text>
</g>
<!-- Capacitor_Recharge_Rate_3&#45;&gt;Capacitor_Recharge_Rate_4 -->
<g id="edge13" class="edge">
<title>Capacitor_Recharge_Rate_3&#45;&gt;Capacitor_Recharge_Rate_4</title>
<path fill="none" stroke="black" d="M591.7,-647.52C624.61,-637.5 666.01,-624.9 700,-614.55"/>
<polygon fill="black" stroke="black" points="700.56,-616.58 705.69,-612.82 699.34,-612.56 700.56,-616.58"/>
</g>
<!-- Capacitor_Recharge_Rate_3_25 -->
<g id="node10" class="node">
<title>Capacitor_Recharge_Rate_3_25</title>
<path fill="#cce5ff" stroke="black" d="M588.5,-540C588.5,-540 472,-540 472,-540 466,-540 460,-534 460,-528 460,-528 460,-516 460,-516 460,-510 466,-504 472,-504 472,-504 588.5,-504 588.5,-504 594.5,-504 600.5,-510 600.5,-516 600.5,-516 600.5,-528 600.5,-528 600.5,-534 594.5,-540 588.5,-540"/>
<text xml:space="preserve" text-anchor="middle" x="530.25" y="-523.2" font-family="Helvetica,sans-Serif" font-size="9.00">Capacitor Recharge Rate 3.25</text>
<text xml:space="preserve" text-anchor="middle" x="530.25" y="-513.45" font-family="Helvetica,sans-Serif" font-size="9.00">5K RP</text>
</g>
<!-- Capacitor_Recharge_Rate_3_5 -->
<g id="node11" class="node">
<title>Capacitor_Recharge_Rate_3_5</title>
<path fill="#cce5ff" stroke="black" d="M741.88,-540C741.88,-540 630.62,-540 630.62,-540 624.62,-540 618.62,-534 618.62,-528 618.62,-528 618.62,-516 618.62,-516 618.62,-510 624.62,-504 630.62,-504 630.62,-504 741.88,-504 741.88,-504 747.88,-504 753.88,-510 753.88,-516 753.88,-516 753.88,-528 753.88,-528 753.88,-534 747.88,-540 741.88,-540"/>
<text xml:space="preserve" text-anchor="middle" x="686.25" y="-523.2" font-family="Helvetica,sans-Serif" font-size="9.00">Capacitor Recharge Rate 3.5</text>
<text xml:space="preserve" text-anchor="middle" x="686.25" y="-513.45" font-family="Helvetica,sans-Serif" font-size="9.00">6K RP</text>
</g>
<!-- Capacitor_Recharge_Rate_3_75 -->
<g id="node12" class="node">
<title>Capacitor_Recharge_Rate_3_75</title>
<path fill="#cce5ff" stroke="black" d="M900.5,-540C900.5,-540 784,-540 784,-540 778,-540 772,-534 772,-528 772,-528 772,-516 772,-516 772,-510 778,-504 784,-504 784,-504 900.5,-504 900.5,-504 906.5,-504 912.5,-510 912.5,-516 912.5,-516 912.5,-528 912.5,-528 912.5,-534 906.5,-540 900.5,-540"/>
<text xml:space="preserve" text-anchor="middle" x="842.25" y="-523.2" font-family="Helvetica,sans-Serif" font-size="9.00">Capacitor Recharge Rate 3.75</text>
<text xml:space="preserve" text-anchor="middle" x="842.25" y="-513.45" font-family="Helvetica,sans-Serif" font-size="9.00">7K RP</text>
</g>
<!-- Capacitor_Recharge_Rate_4&#45;&gt;Capacitor_Recharge_Rate_3_25 -->
<g id="edge10" class="edge">
<title>Capacitor_Recharge_Rate_4&#45;&gt;Capacitor_Recharge_Rate_3_25</title>
<path fill="none" stroke="black" d="M705.81,-575.52C672.17,-565.46 629.85,-552.79 595.18,-542.42"/>
<polygon fill="black" stroke="black" points="596.15,-540.52 589.8,-540.82 594.95,-544.55 596.15,-540.52"/>
</g>
<!-- Capacitor_Recharge_Rate_4&#45;&gt;Capacitor_Recharge_Rate_3_5 -->
<g id="edge11" class="edge">
<title>Capacitor_Recharge_Rate_4&#45;&gt;Capacitor_Recharge_Rate_3_5</title>
<path fill="none" stroke="black" d="M744.97,-575.7C734.75,-566.53 722.08,-555.16 711.13,-545.33"/>
<polygon fill="black" stroke="black" points="712.57,-543.8 706.71,-541.36 709.77,-546.93 712.57,-543.8"/>
</g>
<!-- Capacitor_Recharge_Rate_4&#45;&gt;Capacitor_Recharge_Rate_3_75 -->
<g id="edge12" class="edge">
<title>Capacitor_Recharge_Rate_4&#45;&gt;Capacitor_Recharge_Rate_3_75</title>
<path fill="none" stroke="black" d="M783.53,-575.7C793.75,-566.53 806.42,-555.16 817.37,-545.33"/>
<polygon fill="black" stroke="black" points="818.73,-546.93 821.79,-541.36 815.93,-543.8 818.73,-546.93"/>
</g>
<!-- Capacitor_Recharge_Rate_5 -->
<g id="node15" class="node">
<title>Capacitor_Recharge_Rate_5</title>
<path fill="#fff3cd" stroke="black" d="M1046.12,-540C1046.12,-540 942.38,-540 942.38,-540 936.38,-540 930.38,-534 930.38,-528 930.38,-528 930.38,-516 930.38,-516 930.38,-510 936.38,-504 942.38,-504 942.38,-504 1046.12,-504 1046.12,-504 1052.12,-504 1058.12,-510 1058.12,-516 1058.12,-516 1058.12,-528 1058.12,-528 1058.12,-534 1052.12,-540 1046.12,-540"/>
<text xml:space="preserve" text-anchor="middle" x="994.25" y="-523.2" font-family="Helvetica,sans-Serif" font-size="9.00">Capacitor Recharge Rate 5</text>
<text xml:space="preserve" text-anchor="middle" x="994.25" y="-513.45" font-family="Helvetica,sans-Serif" font-size="9.00">15K RP</text>
</g>
<!-- Capacitor_Recharge_Rate_4&#45;&gt;Capacitor_Recharge_Rate_5 -->
<g id="edge15" class="edge">
<title>Capacitor_Recharge_Rate_4&#45;&gt;Capacitor_Recharge_Rate_5</title>
<path fill="none" stroke="black" d="M821.7,-575.52C854.61,-565.5 896.01,-552.9 930,-542.55"/>
<polygon fill="black" stroke="black" points="930.56,-544.58 935.69,-540.82 929.34,-540.56 930.56,-544.58"/>
</g>
<!-- Capacitor_Recharge_Rate_4_5 -->
<g id="node14" class="node">
<title>Capacitor_Recharge_Rate_4_5</title>
<path fill="#fff3cd" stroke="black" d="M974.88,-468C974.88,-468 863.62,-468 863.62,-468 857.62,-468 851.62,-462 851.62,-456 851.62,-456 851.62,-444 851.62,-444 851.62,-438 857.62,-432 863.62,-432 863.62,-432 974.88,-432 974.88,-432 980.88,-432 986.88,-438 986.88,-444 986.88,-444 986.88,-456 986.88,-456 986.88,-462 980.88,-468 974.88,-468"/>
<text xml:space="preserve" text-anchor="middle" x="919.25" y="-451.2" font-family="Helvetica,sans-Serif" font-size="9.00">Capacitor Recharge Rate 4.5</text>
<text xml:space="preserve" text-anchor="middle" x="919.25" y="-441.45" font-family="Helvetica,sans-Serif" font-size="9.00">12K RP</text>
</g>
<!-- Capacitor_Recharge_Rate_5&#45;&gt;Capacitor_Recharge_Rate_4_5 -->
<g id="edge14" class="edge">
<title>Capacitor_Recharge_Rate_5&#45;&gt;Capacitor_Recharge_Rate_4_5</title>
<path fill="none" stroke="black" d="M975.71,-503.7C965.88,-494.53 953.7,-483.16 943.17,-473.33"/>
<polygon fill="black" stroke="black" points="944.76,-471.94 938.94,-469.38 941.9,-475.01 944.76,-471.94"/>
</g>
<!-- Capacitor_Recharge_Rate_6 -->
<g id="node17" class="node">
<title>Capacitor_Recharge_Rate_6</title>
<path fill="#fff3cd" stroke="black" d="M1121.12,-468C1121.12,-468 1017.38,-468 1017.38,-468 1011.38,-468 1005.38,-462 1005.38,-456 1005.38,-456 1005.38,-444 1005.38,-444 1005.38,-438 1011.38,-432 1017.38,-432 1017.38,-432 1121.12,-432 1121.12,-432 1127.12,-432 1133.12,-438 1133.12,-444 1133.12,-444 1133.12,-456 1133.12,-456 1133.12,-462 1127.12,-468 1121.12,-468"/>
<text xml:space="preserve" text-anchor="middle" x="1069.25" y="-451.2" font-family="Helvetica,sans-Serif" font-size="9.00">Capacitor Recharge Rate 6</text>
<text xml:space="preserve" text-anchor="middle" x="1069.25" y="-441.45" font-family="Helvetica,sans-Serif" font-size="9.00">30K RP</text>
</g>
<!-- Capacitor_Recharge_Rate_5&#45;&gt;Capacitor_Recharge_Rate_6 -->
<g id="edge17" class="edge">
<title>Capacitor_Recharge_Rate_5&#45;&gt;Capacitor_Recharge_Rate_6</title>
<path fill="none" stroke="black" d="M1012.79,-503.7C1022.62,-494.53 1034.8,-483.16 1045.33,-473.33"/>
<polygon fill="black" stroke="black" points="1046.6,-475.01 1049.56,-469.38 1043.74,-471.94 1046.6,-475.01"/>
</g>
<!-- Capacitor_Recharge_Rate_5_5 -->
<g id="node16" class="node">
<title>Capacitor_Recharge_Rate_5_5</title>
<path fill="#fff3cd" stroke="black" d="M1049.88,-396C1049.88,-396 938.62,-396 938.62,-396 932.62,-396 926.62,-390 926.62,-384 926.62,-384 926.62,-372 926.62,-372 926.62,-366 932.62,-360 938.62,-360 938.62,-360 1049.88,-360 1049.88,-360 1055.88,-360 1061.88,-366 1061.88,-372 1061.88,-372 1061.88,-384 1061.88,-384 1061.88,-390 1055.88,-396 1049.88,-396"/>
<text xml:space="preserve" text-anchor="middle" x="994.25" y="-379.2" font-family="Helvetica,sans-Serif" font-size="9.00">Capacitor Recharge Rate 5.5</text>
<text xml:space="preserve" text-anchor="middle" x="994.25" y="-369.45" font-family="Helvetica,sans-Serif" font-size="9.00">22K RP</text>
</g>
<!-- Capacitor_Recharge_Rate_6&#45;&gt;Capacitor_Recharge_Rate_5_5 -->
<g id="edge16" class="edge">
<title>Capacitor_Recharge_Rate_6&#45;&gt;Capacitor_Recharge_Rate_5_5</title>
<path fill="none" stroke="black" d="M1050.71,-431.7C1040.88,-422.53 1028.7,-411.16 1018.17,-401.33"/>
<polygon fill="black" stroke="black" points="1019.76,-399.94 1013.94,-397.38 1016.9,-403.01 1019.76,-399.94"/>
</g>
<!-- Capacitor_Recharge_Rate_8 -->
<g id="node19" class="node">
<title>Capacitor_Recharge_Rate_8</title>
<path fill="#fff3cd" stroke="black" d="M1196.12,-396C1196.12,-396 1092.38,-396 1092.38,-396 1086.38,-396 1080.38,-390 1080.38,-384 1080.38,-384 1080.38,-372 1080.38,-372 1080.38,-366 1086.38,-360 1092.38,-360 1092.38,-360 1196.12,-360 1196.12,-360 1202.12,-360 1208.12,-366 1208.12,-372 1208.12,-372 1208.12,-384 1208.12,-384 1208.12,-390 1202.12,-396 1196.12,-396"/>
<text xml:space="preserve" text-anchor="middle" x="1144.25" y="-379.2" font-family="Helvetica,sans-Serif" font-size="9.00">Capacitor Recharge Rate 8</text>
<text xml:space="preserve" text-anchor="middle" x="1144.25" y="-369.45" font-family="Helvetica,sans-Serif" font-size="9.00">60K RP</text>
</g>
<!-- Capacitor_Recharge_Rate_6&#45;&gt;Capacitor_Recharge_Rate_8 -->
<g id="edge19" class="edge">
<title>Capacitor_Recharge_Rate_6&#45;&gt;Capacitor_Recharge_Rate_8</title>
<path fill="none" stroke="black" d="M1087.79,-431.7C1097.62,-422.53 1109.8,-411.16 1120.33,-401.33"/>
<polygon fill="black" stroke="black" points="1121.6,-403.01 1124.56,-397.38 1118.74,-399.94 1121.6,-403.01"/>
</g>
<!-- Capacitor_Recharge_Rate_7 -->
<g id="node18" class="node">
<title>Capacitor_Recharge_Rate_7</title>
<path fill="#fff3cd" stroke="black" d="M1122.12,-324C1122.12,-324 1018.38,-324 1018.38,-324 1012.38,-324 1006.38,-318 1006.38,-312 1006.38,-312 1006.38,-300 1006.38,-300 1006.38,-294 1012.38,-288 1018.38,-288 1018.38,-288 1122.12,-288 1122.12,-288 1128.12,-288 1134.12,-294 1134.12,-300 1134.12,-300 1134.12,-312 1134.12,-312 1134.12,-318 1128.12,-324 1122.12,-324"/>
<text xml:space="preserve" text-anchor="middle" x="1070.25" y="-307.2" font-family="Helvetica,sans-Serif" font-size="9.00">Capacitor Recharge Rate 7</text>
<text xml:space="preserve" text-anchor="middle" x="1070.25" y="-297.45" font-family="Helvetica,sans-Serif" font-size="9.00">45K RP</text>
</g>
<!-- Capacitor_Recharge_Rate_8&#45;&gt;Capacitor_Recharge_Rate_7 -->
<g id="edge18" class="edge">
<title>Capacitor_Recharge_Rate_8&#45;&gt;Capacitor_Recharge_Rate_7</title>
<path fill="none" stroke="black" d="M1125.96,-359.7C1116.26,-350.53 1104.24,-339.16 1093.85,-329.33"/>
<polygon fill="black" stroke="black" points="1095.49,-327.98 1089.69,-325.39 1092.6,-331.04 1095.49,-327.98"/>
</g>
<!-- Capacitor_Recharge_Rate_10 -->
<g id="node21" class="node">
<title>Capacitor_Recharge_Rate_10</title>
<path fill="#d4c4fb" stroke="black" d="M1272.75,-324C1272.75,-324 1163.75,-324 1163.75,-324 1157.75,-324 1151.75,-318 1151.75,-312 1151.75,-312 1151.75,-300 1151.75,-300 1151.75,-294 1157.75,-288 1163.75,-288 1163.75,-288 1272.75,-288 1272.75,-288 1278.75,-288 1284.75,-294 1284.75,-300 1284.75,-300 1284.75,-312 1284.75,-312 1284.75,-318 1278.75,-324 1272.75,-324"/>
<text xml:space="preserve" text-anchor="middle" x="1218.25" y="-307.2" font-family="Helvetica,sans-Serif" font-size="9.00">Capacitor Recharge Rate 10</text>
<text xml:space="preserve" text-anchor="middle" x="1218.25" y="-297.45" font-family="Helvetica,sans-Serif" font-size="9.00">125K RP</text>
</g>
<!-- Capacitor_Recharge_Rate_8&#45;&gt;Capacitor_Recharge_Rate_10 -->
<g id="edge21" class="edge">
<title>Capacitor_Recharge_Rate_8&#45;&gt;Capacitor_Recharge_Rate_10</title>
<path fill="none" stroke="black" d="M1162.54,-359.7C1172.24,-350.53 1184.26,-339.16 1194.65,-329.33"/>
<polygon fill="black" stroke="black" points="1195.9,-331.04 1198.81,-325.39 1193.01,-327.98 1195.9,-331.04"/>
</g>
<!-- Capacitor_Recharge_Rate_9 -->
<g id="node20" class="node">
<title>Capacitor_Recharge_Rate_9</title>
<path fill="#fff3cd" stroke="black" d="M1196.12,-252C1196.12,-252 1092.38,-252 1092.38,-252 1086.38,-252 1080.38,-246 1080.38,-240 1080.38,-240 1080.38,-228 1080.38,-228 1080.38,-222 1086.38,-216 1092.38,-216 1092.38,-216 1196.12,-216 1196.12,-216 1202.12,-216 1208.12,-222 1208.12,-228 1208.12,-228 1208.12,-240 1208.12,-240 1208.12,-246 1202.12,-252 1196.12,-252"/>
<text xml:space="preserve" text-anchor="middle" x="1144.25" y="-235.2" font-family="Helvetica,sans-Serif" font-size="9.00">Capacitor Recharge Rate 9</text>
<text xml:space="preserve" text-anchor="middle" x="1144.25" y="-225.45" font-family="Helvetica,sans-Serif" font-size="9.00">92K RP</text>
</g>
<!-- Capacitor_Recharge_Rate_10&#45;&gt;Capacitor_Recharge_Rate_9 -->
<g id="edge20" class="edge">
<title>Capacitor_Recharge_Rate_10&#45;&gt;Capacitor_Recharge_Rate_9</title>
<path fill="none" stroke="black" d="M1199.96,-287.7C1190.26,-278.53 1178.24,-267.16 1167.85,-257.33"/>
<polygon fill="black" stroke="black" points="1169.49,-255.98 1163.69,-253.39 1166.6,-259.04 1169.49,-255.98"/>
</g>
<!-- Capacitor_Recharge_Rate_12 -->
<g id="node23" class="node">
<title>Capacitor_Recharge_Rate_12</title>
<path fill="#d4c4fb" stroke="black" d="M1346.75,-252C1346.75,-252 1237.75,-252 1237.75,-252 1231.75,-252 1225.75,-246 1225.75,-240 1225.75,-240 1225.75,-228 1225.75,-228 1225.75,-222 1231.75,-216 1237.75,-216 1237.75,-216 1346.75,-216 1346.75,-216 1352.75,-216 1358.75,-222 1358.75,-228 1358.75,-228 1358.75,-240 1358.75,-240 1358.75,-246 1352.75,-252 1346.75,-252"/>
<text xml:space="preserve" text-anchor="middle" x="1292.25" y="-235.2" font-family="Helvetica,sans-Serif" font-size="9.00">Capacitor Recharge Rate 12</text>
<text xml:space="preserve" text-anchor="middle" x="1292.25" y="-225.45" font-family="Helvetica,sans-Serif" font-size="9.00">250K RP</text>
</g>
<!-- Capacitor_Recharge_Rate_10&#45;&gt;Capacitor_Recharge_Rate_12 -->
<g id="edge23" class="edge">
<title>Capacitor_Recharge_Rate_10&#45;&gt;Capacitor_Recharge_Rate_12</title>
<path fill="none" stroke="black" d="M1236.54,-287.7C1246.24,-278.53 1258.26,-267.16 1268.65,-257.33"/>
<polygon fill="black" stroke="black" points="1269.9,-259.04 1272.81,-253.39 1267.01,-255.98 1269.9,-259.04"/>
</g>
<!-- Capacitor_Recharge_Rate_11 -->
<g id="node22" class="node">
<title>Capacitor_Recharge_Rate_11</title>
<path fill="#d4c4fb" stroke="black" d="M1271,-180C1271,-180 1163.5,-180 1163.5,-180 1157.5,-180 1151.5,-174 1151.5,-168 1151.5,-168 1151.5,-156 1151.5,-156 1151.5,-150 1157.5,-144 1163.5,-144 1163.5,-144 1271,-144 1271,-144 1277,-144 1283,-150 1283,-156 1283,-156 1283,-168 1283,-168 1283,-174 1277,-180 1271,-180"/>
<text xml:space="preserve" text-anchor="middle" x="1217.25" y="-163.2" font-family="Helvetica,sans-Serif" font-size="9.00">Capacitor Recharge Rate 11</text>
<text xml:space="preserve" text-anchor="middle" x="1217.25" y="-153.45" font-family="Helvetica,sans-Serif" font-size="9.00">188K RP</text>
</g>
<!-- Capacitor_Recharge_Rate_12&#45;&gt;Capacitor_Recharge_Rate_11 -->
<g id="edge22" class="edge">
<title>Capacitor_Recharge_Rate_12&#45;&gt;Capacitor_Recharge_Rate_11</title>
<path fill="none" stroke="black" d="M1273.71,-215.7C1263.88,-206.53 1251.7,-195.16 1241.17,-185.33"/>
<polygon fill="black" stroke="black" points="1242.76,-183.94 1236.94,-181.38 1239.9,-187.01 1242.76,-183.94"/>
</g>
<!-- Capacitor_Recharge_Rate_16 -->
<g id="node27" class="node">
<title>Capacitor_Recharge_Rate_16</title>
<path fill="#d4c4fb" stroke="black" d="M1421.75,-180C1421.75,-180 1312.75,-180 1312.75,-180 1306.75,-180 1300.75,-174 1300.75,-168 1300.75,-168 1300.75,-156 1300.75,-156 1300.75,-150 1306.75,-144 1312.75,-144 1312.75,-144 1421.75,-144 1421.75,-144 1427.75,-144 1433.75,-150 1433.75,-156 1433.75,-156 1433.75,-168 1433.75,-168 1433.75,-174 1427.75,-180 1421.75,-180"/>
<text xml:space="preserve" text-anchor="middle" x="1367.25" y="-163.2" font-family="Helvetica,sans-Serif" font-size="9.00">Capacitor Recharge Rate 16</text>
<text xml:space="preserve" text-anchor="middle" x="1367.25" y="-153.45" font-family="Helvetica,sans-Serif" font-size="9.00">500K RP</text>
</g>
<!-- Capacitor_Recharge_Rate_12&#45;&gt;Capacitor_Recharge_Rate_16 -->
<g id="edge27" class="edge">
<title>Capacitor_Recharge_Rate_12&#45;&gt;Capacitor_Recharge_Rate_16</title>
<path fill="none" stroke="black" d="M1310.79,-215.7C1320.62,-206.53 1332.8,-195.16 1343.33,-185.33"/>
<polygon fill="black" stroke="black" points="1344.6,-187.01 1347.56,-181.38 1341.74,-183.94 1344.6,-187.01"/>
</g>
<!-- Capacitor_Recharge_Rate_13 -->
<g id="node24" class="node">
<title>Capacitor_Recharge_Rate_13</title>
<path fill="#d4c4fb" stroke="black" d="M1195.75,-108C1195.75,-108 1086.75,-108 1086.75,-108 1080.75,-108 1074.75,-102 1074.75,-96 1074.75,-96 1074.75,-84 1074.75,-84 1074.75,-78 1080.75,-72 1086.75,-72 1086.75,-72 1195.75,-72 1195.75,-72 1201.75,-72 1207.75,-78 1207.75,-84 1207.75,-84 1207.75,-96 1207.75,-96 1207.75,-102 1201.75,-108 1195.75,-108"/>
<text xml:space="preserve" text-anchor="middle" x="1141.25" y="-91.2" font-family="Helvetica,sans-Serif" font-size="9.00">Capacitor Recharge Rate 13</text>
<text xml:space="preserve" text-anchor="middle" x="1141.25" y="-81.45" font-family="Helvetica,sans-Serif" font-size="9.00">312K RP</text>
</g>
<!-- Capacitor_Recharge_Rate_14 -->
<g id="node25" class="node">
<title>Capacitor_Recharge_Rate_14</title>
<path fill="#d4c4fb" stroke="black" d="M1346.75,-108C1346.75,-108 1237.75,-108 1237.75,-108 1231.75,-108 1225.75,-102 1225.75,-96 1225.75,-96 1225.75,-84 1225.75,-84 1225.75,-78 1231.75,-72 1237.75,-72 1237.75,-72 1346.75,-72 1346.75,-72 1352.75,-72 1358.75,-78 1358.75,-84 1358.75,-84 1358.75,-96 1358.75,-96 1358.75,-102 1352.75,-108 1346.75,-108"/>
<text xml:space="preserve" text-anchor="middle" x="1292.25" y="-91.2" font-family="Helvetica,sans-Serif" font-size="9.00">Capacitor Recharge Rate 14</text>
<text xml:space="preserve" text-anchor="middle" x="1292.25" y="-81.45" font-family="Helvetica,sans-Serif" font-size="9.00">375K RP</text>
</g>
<!-- Capacitor_Recharge_Rate_15 -->
<g id="node26" class="node">
<title>Capacitor_Recharge_Rate_15</title>
<path fill="#d4c4fb" stroke="black" d="M1497.75,-108C1497.75,-108 1388.75,-108 1388.75,-108 1382.75,-108 1376.75,-102 1376.75,-96 1376.75,-96 1376.75,-84 1376.75,-84 1376.75,-78 1382.75,-72 1388.75,-72 1388.75,-72 1497.75,-72 1497.75,-72 1503.75,-72 1509.75,-78 1509.75,-84 1509.75,-84 1509.75,-96 1509.75,-96 1509.75,-102 1503.75,-108 1497.75,-108"/>
<text xml:space="preserve" text-anchor="middle" x="1443.25" y="-91.2" font-family="Helvetica,sans-Serif" font-size="9.00">Capacitor Recharge Rate 15</text>
<text xml:space="preserve" text-anchor="middle" x="1443.25" y="-81.45" font-family="Helvetica,sans-Serif" font-size="9.00">438K RP</text>
</g>
<!-- Capacitor_Recharge_Rate_16&#45;&gt;Capacitor_Recharge_Rate_13 -->
<g id="edge24" class="edge">
<title>Capacitor_Recharge_Rate_16&#45;&gt;Capacitor_Recharge_Rate_13</title>
<path fill="none" stroke="black" d="M1310.8,-143.52C1278.46,-133.5 1237.78,-120.9 1204.38,-110.55"/>
<polygon fill="black" stroke="black" points="1205.17,-108.6 1198.81,-108.83 1203.92,-112.61 1205.17,-108.6"/>
</g>
<!-- Capacitor_Recharge_Rate_16&#45;&gt;Capacitor_Recharge_Rate_14 -->
<g id="edge25" class="edge">
<title>Capacitor_Recharge_Rate_16&#45;&gt;Capacitor_Recharge_Rate_14</title>
<path fill="none" stroke="black" d="M1348.71,-143.7C1338.88,-134.53 1326.7,-123.16 1316.17,-113.33"/>
<polygon fill="black" stroke="black" points="1317.76,-111.94 1311.94,-109.38 1314.9,-115.01 1317.76,-111.94"/>
</g>
<!-- Capacitor_Recharge_Rate_16&#45;&gt;Capacitor_Recharge_Rate_15 -->
<g id="edge26" class="edge">
<title>Capacitor_Recharge_Rate_16&#45;&gt;Capacitor_Recharge_Rate_15</title>
<path fill="none" stroke="black" d="M1386.04,-143.7C1395.99,-134.53 1408.34,-123.16 1419.01,-113.33"/>
<polygon fill="black" stroke="black" points="1420.31,-114.98 1423.3,-109.37 1417.47,-111.89 1420.31,-114.98"/>
</g>
<!-- Capacitor_Recharge_Rate_20 -->
<g id="node28" class="node">
<title>Capacitor_Recharge_Rate_20</title>
<path fill="#d4c4fb" stroke="black" d="M1648.75,-108C1648.75,-108 1539.75,-108 1539.75,-108 1533.75,-108 1527.75,-102 1527.75,-96 1527.75,-96 1527.75,-84 1527.75,-84 1527.75,-78 1533.75,-72 1539.75,-72 1539.75,-72 1648.75,-72 1648.75,-72 1654.75,-72 1660.75,-78 1660.75,-84 1660.75,-84 1660.75,-96 1660.75,-96 1660.75,-102 1654.75,-108 1648.75,-108"/>
<text xml:space="preserve" text-anchor="middle" x="1594.25" y="-91.2" font-family="Helvetica,sans-Serif" font-size="9.00">Capacitor Recharge Rate 20</text>
<text xml:space="preserve" text-anchor="middle" x="1594.25" y="-81.45" font-family="Helvetica,sans-Serif" font-size="9.00">1.0M RP</text>
</g>
<!-- Capacitor_Recharge_Rate_16&#45;&gt;Capacitor_Recharge_Rate_20 -->
<g id="edge28" class="edge">
<title>Capacitor_Recharge_Rate_16&#45;&gt;Capacitor_Recharge_Rate_20</title>
<path fill="none" stroke="black" d="M1423.95,-143.52C1456.43,-133.5 1497.29,-120.9 1530.84,-110.55"/>
<polygon fill="black" stroke="black" points="1531.32,-112.6 1536.44,-108.83 1530.08,-108.59 1531.32,-112.6"/>
</g>
<!-- Capacitor_Recharge_Rate_25 -->
<g id="node29" class="node">
<title>Capacitor_Recharge_Rate_25</title>
<path fill="#f8d7da" stroke="black" d="M1648.75,-36C1648.75,-36 1539.75,-36 1539.75,-36 1533.75,-36 1527.75,-30 1527.75,-24 1527.75,-24 1527.75,-12 1527.75,-12 1527.75,-6 1533.75,0 1539.75,0 1539.75,0 1648.75,0 1648.75,0 1654.75,0 1660.75,-6 1660.75,-12 1660.75,-12 1660.75,-24 1660.75,-24 1660.75,-30 1654.75,-36 1648.75,-36"/>
<text xml:space="preserve" text-anchor="middle" x="1594.25" y="-19.2" font-family="Helvetica,sans-Serif" font-size="9.00">Capacitor Recharge Rate 25</text>
<text xml:space="preserve" text-anchor="middle" x="1594.25" y="-9.45" font-family="Helvetica,sans-Serif" font-size="9.00">2.0M RP</text>
</g>
<!-- Capacitor_Recharge_Rate_20&#45;&gt;Capacitor_Recharge_Rate_25 -->
<g id="edge29" class="edge">
<title>Capacitor_Recharge_Rate_20&#45;&gt;Capacitor_Recharge_Rate_25</title>
<path fill="none" stroke="black" d="M1594.25,-71.7C1594.25,-63.22 1594.25,-52.86 1594.25,-43.58"/>
<polygon fill="black" stroke="black" points="1596.35,-43.62 1594.25,-37.62 1592.15,-43.62 1596.35,-43.62"/>
</g>
<!-- ext_Trans_Newtonian_Technology -->
<g id="node30" class="node">
<title>ext_Trans_Newtonian_Technology</title>
<path fill="#f0f0f0" stroke="black" stroke-dasharray="5,2" d="M435.25,-828C435.25,-828 323.25,-828 323.25,-828 317.25,-828 311.25,-822 311.25,-816 311.25,-816 311.25,-804 311.25,-804 311.25,-798 317.25,-792 323.25,-792 323.25,-792 435.25,-792 435.25,-792 441.25,-792 447.25,-798 447.25,-804 447.25,-804 447.25,-816 447.25,-816 447.25,-822 441.25,-828 435.25,-828"/>
<text xml:space="preserve" text-anchor="middle" x="379.25" y="-806.33" font-family="Helvetica,sans-Serif" font-size="9.00">Trans&#45;Newtonian Technology</text>
</g>
<!-- ext_Trans_Newtonian_Technology&#45;&gt;Capacitor_Recharge_Rate_2 -->
<g id="edge5" class="edge">
<title>ext_Trans_Newtonian_Technology&#45;&gt;Capacitor_Recharge_Rate_2</title>
<path fill="none" stroke="black" d="M360.71,-791.7C350.88,-782.53 338.7,-771.16 328.17,-761.33"/>
<polygon fill="black" stroke="black" points="329.76,-759.94 323.94,-757.38 326.9,-763.01 329.76,-759.94"/>
</g>
</g>
</svg>
