<?xml version="1.0" encoding="UTF-8" standalone="no"?>
<!DOCTYPE svg PUBLIC "-//W3C//DTD SVG 1.1//EN"
 "http://www.w3.org/Graphics/SVG/1.1/DTD/svg11.dtd">
<!-- Generated by graphviz version 14.1.2 (20260124.0452)
 -->
<!-- Title: TechTree Pages: 1 -->
<svg width="122pt" height="299pt"
 viewBox="0.00 0.00 122.00 299.00" xmlns="http://www.w3.org/2000/svg" xmlns:xlink="http://www.w3.org/1999/xlink">
<g id="graph0" class="graph" transform="scale(1 1) rotate(0) translate(4 295)">
<title>TechTree</title>
<polygon fill="white" stroke="none" points="-4,4 -4,-295 117.5,-295 117.5,4 -4,4"/>
<text xml:space="preserve" text-anchor="middle" x="56.75" y="-273.7" font-family="Helvetica,sans-Serif" font-weight="bold" font-size="14.00">Cargo Hold</text>
<!-- Cargo_Hold___Shuttle -->
<g id="node1" class="node">
<title>Cargo_Hold___Shuttle</title>
<path fill="#d4edda" stroke="black" d="M97.38,-36C97.38,-36 16.13,-36 16.13,-36 10.12,-36 4.12,-30 4.12,-24 4.12,-24 4.12,-12 4.12,-12 4.12,-6 10.12,0 16.12,0 16.12,0 97.38,0 97.38,0 103.38,0 109.38,-6 109.38,-12 109.38,-12 109.38,-24 109.38,-24 109.38,-30 103.38,-36 97.38,-36"/>
<text xml:space="preserve" text-anchor="middle" x="56.75" y="-19.75" font-family="Helvetica,sans-Serif" font-size="10.00">Cargo Hold &#45; Shuttle</text>
<text xml:space="preserve" text-anchor="middle" x="56.75" y="-8.5" font-family="Helvetica,sans-Serif" font-size="10.00">250 RP</text>
</g>
<!-- Cargo_Hold___Small -->
<g id="node2" class="node">
<title>Cargo_Hold___Small</title>
<path fill="#d4edda" stroke="black" d="M94.38,-94C94.38,-94 19.12,-94 19.12,-94 13.12,-94 7.12,-88 7.12,-82 7.12,-82 7.12,-70 7.12,-70 7.12,-64 13.12,-58 19.12,-58 19.12,-58 94.38,-58 94.38,-58 100.38,-58 106.38,-64 106.38,-70 106.38,-70 106.38,-82 106.38,-82 106.38,-88 100.38,-94 94.38,-94"/>
<text xml:space="preserve" text-anchor="middle" x="56.75" y="-77.75" font-family="Helvetica,sans-Serif" font-size="10.00">Cargo Hold &#45; Small</text>
<text xml:space="preserve" text-anchor="middle" x="56.75" y="-66.5" font-family="Helvetica,sans-Serif" font-size="10.00">500 RP</text>
</g>
<!-- Cargo_Hold___Tiny -->
<g id="node3" class="node">
<title>Cargo_Hold___Tiny</title>
<path fill="#d4edda" stroke="black" d="M91.38,-152C91.38,-152 22.12,-152 22.12,-152 16.13,-152 10.12,-146 10.12,-140 10.12,-140 10.12,-128 10.12,-128 10.12,-122 16.12,-116 22.12,-116 22.12,-116 91.38,-116 91.38,-116 97.38,-116 103.38,-122 103.38,-128 103.38,-128 103.38,-140 103.38,-140 103.38,-146 97.38,-152 91.38,-152"/>
<text xml:space="preserve" text-anchor="middle" x="56.75" y="-135.75" font-family="Helvetica,sans-Serif" font-size="10.00">Cargo Hold &#45; Tiny</text>
<text xml:space="preserve" text-anchor="middle" x="56.75" y="-124.5" font-family="Helvetica,sans-Serif" font-size="10.00">500 RP</text>
</g>
<!-- Cargo_Hold___Standard -->
<g id="node4" class="node">
<title>Cargo_Hold___Standard</title>
<path fill="#cce5ff" stroke="black" d="M101.5,-210C101.5,-210 12,-210 12,-210 6,-210 0,-204 0,-198 0,-198 0,-186 0,-186 0,-180 6,-174 12,-174 12,-174 101.5,-174 101.5,-174 107.5,-174 113.5,-180 113.5,-186 113.5,-186 113.5,-198 113.5,-198 113.5,-204 107.5,-210 101.5,-210"/>
<text xml:space="preserve" text-anchor="middle" x="56.75" y="-193.75" font-family="Helvetica,sans-Serif" font-size="10.00">Cargo Hold &#45; Standard</text>
<text xml:space="preserve" text-anchor="middle" x="56.75" y="-182.5" font-family="Helvetica,sans-Serif" font-size="10.00">1K RP</text>
</g>
<!-- Cargo_Hold___Large -->
<g id="node5" class="node">
<title>Cargo_Hold___Large</title>
<path fill="#cce5ff" stroke="black" d="M94,-268C94,-268 19.5,-268 19.5,-268 13.5,-268 7.5,-262 7.5,-256 7.5,-256 7.5,-244 7.5,-244 7.5,-238 13.5,-232 19.5,-232 19.5,-232 94,-232 94,-232 100,-232 106,-238 106,-244 106,-244 106,-256 106,-256 106,-262 100,-268 94,-268"/>
<text xml:space="preserve" text-anchor="middle" x="56.75" y="-251.75" font-family="Helvetica,sans-Serif" font-size="10.00">Cargo Hold &#45; Large</text>
<text xml:space="preserve" text-anchor="middle" x="56.75" y="-240.5" font-family="Helvetica,sans-Serif" font-size="10.00">2K RP</text>
</g>
</g>
</svg>
