<?xml version="1.0" encoding="UTF-8" standalone="no"?>
<!DOCTYPE svg PUBLIC "-//W3C//DTD SVG 1.1//EN"
 "http://www.w3.org/Graphics/SVG/1.1/DTD/svg11.dtd">
<!-- Generated by graphviz version 14.1.2 (20260124.0452)
 -->
<!-- Title: TechTree Pages: 1 -->
<svg width="650pt" height="67pt"
 viewBox="0.00 0.00 650.00 67.00" xmlns="http://www.w3.org/2000/svg" xmlns:xlink="http://www.w3.org/1999/xlink">
<g id="graph0" class="graph" transform="scale(1 1) rotate(0) translate(4 63)">
<title>TechTree</title>
<polygon fill="white" stroke="none" points="-4,4 -4,-63 646.25,-63 646.25,4 -4,4"/>
<text xml:space="preserve" text-anchor="middle" x="321.12" y="-41.7" font-family="Helvetica,sans-Serif" font-weight="bold" font-size="14.00">Cargo Shuttle Capability</text>
<!-- Conventional_Cargo_Shuttles_ -->
<g id="node1" class="node">
<title>Conventional_Cargo_Shuttles_</title>
<path fill="#cce5ff" stroke="black" d="M132.25,-36C132.25,-36 12,-36 12,-36 6,-36 0,-30 0,-24 0,-24 0,-12 0,-12 0,-6 6,0 12,0 12,0 132.25,0 132.25,0 138.25,0 144.25,-6 144.25,-12 144.25,-12 144.25,-24 144.25,-24 144.25,-30 138.25,-36 132.25,-36"/>
<text xml:space="preserve" text-anchor="middle" x="72.12" y="-19.75" font-family="Helvetica,sans-Serif" font-size="10.00">Conventional Cargo Shuttles:</text>
<text xml:space="preserve" text-anchor="middle" x="72.12" y="-8.5" font-family="Helvetica,sans-Serif" font-size="10.00">1K RP</text>
</g>
<!-- Trans_Newtonian_Cargo_Shuttles -->
<g id="node2" class="node">
<title>Trans_Newtonian_Cargo_Shuttles</title>
<path fill="#cce5ff" stroke="black" d="M319.75,-36C319.75,-36 185.25,-36 185.25,-36 179.25,-36 173.25,-30 173.25,-24 173.25,-24 173.25,-12 173.25,-12 173.25,-6 179.25,0 185.25,0 185.25,0 319.75,0 319.75,0 325.75,0 331.75,-6 331.75,-12 331.75,-12 331.75,-24 331.75,-24 331.75,-30 325.75,-36 319.75,-36"/>
<text xml:space="preserve" text-anchor="middle" x="252.5" y="-19.75" font-family="Helvetica,sans-Serif" font-size="10.00">Trans&#45;Newtonian Cargo Shuttles</text>
<text xml:space="preserve" text-anchor="middle" x="252.5" y="-8.5" font-family="Helvetica,sans-Serif" font-size="10.00">5K RP</text>
</g>
<!-- Conventional_Cargo_Shuttles_&#45;&gt;Trans_Newtonian_Cargo_Shuttles -->
<g id="edge1" class="edge">
<title>Conventional_Cargo_Shuttles_&#45;&gt;Trans_Newtonian_Cargo_Shuttles</title>
<path fill="none" stroke="black" d="M144.65,-18C151.19,-18 157.87,-18 164.52,-18"/>
<polygon fill="black" stroke="black" points="164.42,-20.45 171.42,-18 164.42,-15.55 164.42,-20.45"/>
</g>
<!-- Improved_Cargo_Shuttles -->
<g id="node3" class="node">
<title>Improved_Cargo_Shuttles</title>
<path fill="#fff3cd" stroke="black" d="M473.5,-36C473.5,-36 372.75,-36 372.75,-36 366.75,-36 360.75,-30 360.75,-24 360.75,-24 360.75,-12 360.75,-12 360.75,-6 366.75,0 372.75,0 372.75,0 473.5,0 473.5,0 479.5,0 485.5,-6 485.5,-12 485.5,-12 485.5,-24 485.5,-24 485.5,-30 479.5,-36 473.5,-36"/>
<text xml:space="preserve" text-anchor="middle" x="423.12" y="-19.75" font-family="Helvetica,sans-Serif" font-size="10.00">Improved Cargo Shuttles</text>
<text xml:space="preserve" text-anchor="middle" x="423.12" y="-8.5" font-family="Helvetica,sans-Serif" font-size="10.00">12K RP</text>
</g>
<!-- Trans_Newtonian_Cargo_Shuttles&#45;&gt;Improved_Cargo_Shuttles -->
<g id="edge2" class="edge">
<title>Trans_Newtonian_Cargo_Shuttles&#45;&gt;Improved_Cargo_Shuttles</title>
<path fill="none" stroke="black" d="M331.89,-18C338.6,-18 345.36,-18 352.01,-18"/>
<polygon fill="black" stroke="black" points="351.83,-20.45 358.83,-18 351.83,-15.55 351.83,-20.45"/>
</g>
<!-- Advanced_Cargo_Shuttles -->
<g id="node4" class="node">
<title>Advanced_Cargo_Shuttles</title>
<path fill="#fff3cd" stroke="black" d="M630.25,-36C630.25,-36 526.5,-36 526.5,-36 520.5,-36 514.5,-30 514.5,-24 514.5,-24 514.5,-12 514.5,-12 514.5,-6 520.5,0 526.5,0 526.5,0 630.25,0 630.25,0 636.25,0 642.25,-6 642.25,-12 642.25,-12 642.25,-24 642.25,-24 642.25,-30 636.25,-36 630.25,-36"/>
<text xml:space="preserve" text-anchor="middle" x="578.38" y="-19.75" font-family="Helvetica,sans-Serif" font-size="10.00">Advanced Cargo Shuttles</text>
<text xml:space="preserve" text-anchor="middle" x="578.38" y="-8.5" font-family="Helvetica,sans-Serif" font-size="10.00">40K RP</text>
</g>
<!-- Improved_Cargo_Shuttles&#45;&gt;Advanced_Cargo_Shuttles -->
<g id="edge3" class="edge">
<title>Improved_Cargo_Shuttles&#45;&gt;Advanced_Cargo_Shuttles</title>
<path fill="none" stroke="black" d="M485.57,-18C492.19,-18 498.96,-18 505.69,-18"/>
<polygon fill="black" stroke="black" points="505.65,-20.45 512.65,-18 505.65,-15.55 505.65,-20.45"/>
</g>
</g>
</svg>
