<?xml version="1.0" encoding="UTF-8" standalone="no"?>
<!DOCTYPE svg PUBLIC "-//W3C//DTD SVG 1.1//EN"
 "http://www.w3.org/Graphics/SVG/1.1/DTD/svg11.dtd">
<!-- Generated by graphviz version 14.1.2 (20260124.0452)
 -->
<!-- Title: TechTree Pages: 1 -->
<svg width="298pt" height="281pt"
 viewBox="0.00 0.00 298.00 281.00" xmlns="http://www.w3.org/2000/svg" xmlns:xlink="http://www.w3.org/1999/xlink">
<g id="graph0" class="graph" transform="scale(1 1) rotate(0) translate(4 276.75)">
<title>TechTree</title>
<polygon fill="white" stroke="none" points="-4,4 -4,-276.75 294,-276.75 294,4 -4,4"/>
<text xml:space="preserve" text-anchor="middle" x="145" y="-257.35" font-family="Helvetica,sans-Serif" font-weight="bold" font-size="12.00">Cargo Shuttle Capability</text>
<!-- Conventional_Cargo_Shuttles_ -->
<g id="node1" class="node">
<title>Conventional_Cargo_Shuttles_</title>
<path fill="#cce5ff" stroke="black" d="M124,-252C124,-252 12,-252 12,-252 6,-252 0,-246 0,-240 0,-240 0,-228 0,-228 0,-222 6,-216 12,-216 12,-216 124,-216 124,-216 130,-216 136,-222 136,-228 136,-228 136,-240 136,-240 136,-246 130,-252 124,-252"/>
<text xml:space="preserve" text-anchor="middle" x="68" y="-235.2" font-family="Helvetica,sans-Serif" font-size="9.00">Conventional Cargo Shuttles:</text>
<text xml:space="preserve" text-anchor="middle" x="68" y="-225.45" font-family="Helvetica,sans-Serif" font-size="9.00">1K RP</text>
</g>
<!-- Trans_Newtonian_Cargo_Shuttles -->
<g id="node2" class="node">
<title>Trans_Newtonian_Cargo_Shuttles</title>
<path fill="#cce5ff" stroke="black" d="M207.75,-180C207.75,-180 82.25,-180 82.25,-180 76.25,-180 70.25,-174 70.25,-168 70.25,-168 70.25,-156 70.25,-156 70.25,-150 76.25,-144 82.25,-144 82.25,-144 207.75,-144 207.75,-144 213.75,-144 219.75,-150 219.75,-156 219.75,-156 219.75,-168 219.75,-168 219.75,-174 213.75,-180 207.75,-180"/>
<text xml:space="preserve" text-anchor="middle" x="145" y="-163.2" font-family="Helvetica,sans-Serif" font-size="9.00">Trans&#45;Newtonian Cargo Shuttles</text>
<text xml:space="preserve" text-anchor="middle" x="145" y="-153.45" font-family="Helvetica,sans-Serif" font-size="9.00">5K RP</text>
</g>
<!-- Conventional_Cargo_Shuttles_&#45;&gt;Trans_Newtonian_Cargo_Shuttles -->
<g id="edge1" class="edge">
<title>Conventional_Cargo_Shuttles_&#45;&gt;Trans_Newtonian_Cargo_Shuttles</title>
<path fill="none" stroke="black" d="M87.03,-215.7C97.12,-206.53 109.63,-195.16 120.44,-185.33"/>
<polygon fill="black" stroke="black" points="121.77,-186.95 124.8,-181.37 118.95,-183.85 121.77,-186.95"/>
</g>
<!-- Improved_Cargo_Shuttles -->
<g id="node3" class="node">
<title>Improved_Cargo_Shuttles</title>
<path fill="#fff3cd" stroke="black" d="M191.62,-108C191.62,-108 98.38,-108 98.38,-108 92.38,-108 86.38,-102 86.38,-96 86.38,-96 86.38,-84 86.38,-84 86.38,-78 92.38,-72 98.38,-72 98.38,-72 191.62,-72 191.62,-72 197.62,-72 203.62,-78 203.62,-84 203.62,-84 203.62,-96 203.62,-96 203.62,-102 197.62,-108 191.62,-108"/>
<text xml:space="preserve" text-anchor="middle" x="145" y="-91.2" font-family="Helvetica,sans-Serif" font-size="9.00">Improved Cargo Shuttles</text>
<text xml:space="preserve" text-anchor="middle" x="145" y="-81.45" font-family="Helvetica,sans-Serif" font-size="9.00">12K RP</text>
</g>
<!-- Trans_Newtonian_Cargo_Shuttles&#45;&gt;Improved_Cargo_Shuttles -->
<g id="edge3" class="edge">
<title>Trans_Newtonian_Cargo_Shuttles&#45;&gt;Improved_Cargo_Shuttles</title>
<path fill="none" stroke="black" d="M145,-143.7C145,-135.22 145,-124.86 145,-115.58"/>
<polygon fill="black" stroke="black" points="147.1,-115.62 145,-109.62 142.9,-115.62 147.1,-115.62"/>
</g>
<!-- Advanced_Cargo_Shuttles -->
<g id="node4" class="node">
<title>Advanced_Cargo_Shuttles</title>
<path fill="#fff3cd" stroke="black" d="M193.12,-36C193.12,-36 96.88,-36 96.88,-36 90.88,-36 84.88,-30 84.88,-24 84.88,-24 84.88,-12 84.88,-12 84.88,-6 90.88,0 96.88,0 96.88,0 193.12,0 193.12,0 199.12,0 205.12,-6 205.12,-12 205.12,-12 205.12,-24 205.12,-24 205.12,-30 199.12,-36 193.12,-36"/>
<text xml:space="preserve" text-anchor="middle" x="145" y="-19.2" font-family="Helvetica,sans-Serif" font-size="9.00">Advanced Cargo Shuttles</text>
<text xml:space="preserve" text-anchor="middle" x="145" y="-9.45" font-family="Helvetica,sans-Serif" font-size="9.00">40K RP</text>
</g>
<!-- Improved_Cargo_Shuttles&#45;&gt;Advanced_Cargo_Shuttles -->
<g id="edge4" class="edge">
<title>Improved_Cargo_Shuttles&#45;&gt;Advanced_Cargo_Shuttles</title>
<path fill="none" stroke="black" d="M145,-71.7C145,-63.22 145,-52.86 145,-43.58"/>
<polygon fill="black" stroke="black" points="147.1,-43.62 145,-37.62 142.9,-43.62 147.1,-43.62"/>
</g>
<!-- ext_Trans_Newtonian_Technology -->
<g id="node5" class="node">
<title>ext_Trans_Newtonian_Technology</title>
<path fill="#f0f0f0" stroke="black" stroke-dasharray="5,2" d="M278,-252C278,-252 166,-252 166,-252 160,-252 154,-246 154,-240 154,-240 154,-228 154,-228 154,-222 160,-216 166,-216 166,-216 278,-216 278,-216 284,-216 290,-222 290,-228 290,-228 290,-240 290,-240 290,-246 284,-252 278,-252"/>
<text xml:space="preserve" text-anchor="middle" x="222" y="-230.32" font-family="Helvetica,sans-Serif" font-size="9.00">Trans&#45;Newtonian Technology</text>
</g>
<!-- ext_Trans_Newtonian_Technology&#45;&gt;Trans_Newtonian_Cargo_Shuttles -->
<g id="edge2" class="edge">
<title>ext_Trans_Newtonian_Technology&#45;&gt;Trans_Newtonian_Cargo_Shuttles</title>
<path fill="none" stroke="black" d="M202.97,-215.7C192.88,-206.53 180.37,-195.16 169.56,-185.33"/>
<polygon fill="black" stroke="black" points="171.05,-183.85 165.2,-181.37 168.23,-186.95 171.05,-183.85"/>
</g>
</g>
</svg>
