<?xml version="1.0" encoding="UTF-8" standalone="no"?>
<!DOCTYPE svg PUBLIC "-//W3C//DTD SVG 1.1//EN"
 "http://www.w3.org/Graphics/SVG/1.1/DTD/svg11.dtd">
<!-- Generated by graphviz version 14.1.2 (20260124.0452)
 -->
<!-- Title: TechTree Pages: 1 -->
<svg width="565pt" height="65pt"
 viewBox="0.00 0.00 565.00 65.00" xmlns="http://www.w3.org/2000/svg" xmlns:xlink="http://www.w3.org/1999/xlink">
<g id="graph0" class="graph" transform="scale(1 1) rotate(0) translate(4 60.75)">
<title>TechTree</title>
<polygon fill="white" stroke="none" points="-4,4 -4,-60.75 561,-60.75 561,4 -4,4"/>
<text xml:space="preserve" text-anchor="middle" x="278.5" y="-41.35" font-family="Helvetica,sans-Serif" font-weight="bold" font-size="12.00">Cargo Hold</text>
<!-- Cargo_Hold___Shuttle -->
<g id="node1" class="node">
<title>Cargo_Hold___Shuttle</title>
<path fill="#d4edda" stroke="black" d="M87.25,-36C87.25,-36 12,-36 12,-36 6,-36 0,-30 0,-24 0,-24 0,-12 0,-12 0,-6 6,0 12,0 12,0 87.25,0 87.25,0 93.25,0 99.25,-6 99.25,-12 99.25,-12 99.25,-24 99.25,-24 99.25,-30 93.25,-36 87.25,-36"/>
<text xml:space="preserve" text-anchor="middle" x="49.62" y="-19.2" font-family="Helvetica,sans-Serif" font-size="9.00">Cargo Hold &#45; Shuttle</text>
<text xml:space="preserve" text-anchor="middle" x="49.62" y="-9.45" font-family="Helvetica,sans-Serif" font-size="9.00">250 RP</text>
</g>
<!-- Cargo_Hold___Small -->
<g id="node2" class="node">
<title>Cargo_Hold___Small</title>
<path fill="#d4edda" stroke="black" d="M199.62,-36C199.62,-36 129.62,-36 129.62,-36 123.62,-36 117.62,-30 117.62,-24 117.62,-24 117.62,-12 117.62,-12 117.62,-6 123.62,0 129.62,0 129.62,0 199.62,0 199.62,0 205.62,0 211.62,-6 211.62,-12 211.62,-12 211.62,-24 211.62,-24 211.62,-30 205.62,-36 199.62,-36"/>
<text xml:space="preserve" text-anchor="middle" x="164.62" y="-19.2" font-family="Helvetica,sans-Serif" font-size="9.00">Cargo Hold &#45; Small</text>
<text xml:space="preserve" text-anchor="middle" x="164.62" y="-9.45" font-family="Helvetica,sans-Serif" font-size="9.00">500 RP</text>
</g>
<!-- Cargo_Hold___Tiny -->
<g id="node3" class="node">
<title>Cargo_Hold___Tiny</title>
<path fill="#d4edda" stroke="black" d="M305.25,-36C305.25,-36 242,-36 242,-36 236,-36 230,-30 230,-24 230,-24 230,-12 230,-12 230,-6 236,0 242,0 242,0 305.25,0 305.25,0 311.25,0 317.25,-6 317.25,-12 317.25,-12 317.25,-24 317.25,-24 317.25,-30 311.25,-36 305.25,-36"/>
<text xml:space="preserve" text-anchor="middle" x="273.62" y="-19.2" font-family="Helvetica,sans-Serif" font-size="9.00">Cargo Hold &#45; Tiny</text>
<text xml:space="preserve" text-anchor="middle" x="273.62" y="-9.45" font-family="Helvetica,sans-Serif" font-size="9.00">500 RP</text>
</g>
<!-- Cargo_Hold___Standard -->
<g id="node4" class="node">
<title>Cargo_Hold___Standard</title>
<path fill="#cce5ff" stroke="black" d="M431.75,-36C431.75,-36 347.5,-36 347.5,-36 341.5,-36 335.5,-30 335.5,-24 335.5,-24 335.5,-12 335.5,-12 335.5,-6 341.5,0 347.5,0 347.5,0 431.75,0 431.75,0 437.75,0 443.75,-6 443.75,-12 443.75,-12 443.75,-24 443.75,-24 443.75,-30 437.75,-36 431.75,-36"/>
<text xml:space="preserve" text-anchor="middle" x="389.62" y="-19.2" font-family="Helvetica,sans-Serif" font-size="9.00">Cargo Hold &#45; Standard</text>
<text xml:space="preserve" text-anchor="middle" x="389.62" y="-9.45" font-family="Helvetica,sans-Serif" font-size="9.00">1K RP</text>
</g>
<!-- Cargo_Hold___Large -->
<g id="node5" class="node">
<title>Cargo_Hold___Large</title>
<path fill="#cce5ff" stroke="black" d="M545,-36C545,-36 474.25,-36 474.25,-36 468.25,-36 462.25,-30 462.25,-24 462.25,-24 462.25,-12 462.25,-12 462.25,-6 468.25,0 474.25,0 474.25,0 545,0 545,0 551,0 557,-6 557,-12 557,-12 557,-24 557,-24 557,-30 551,-36 545,-36"/>
<text xml:space="preserve" text-anchor="middle" x="509.62" y="-19.2" font-family="Helvetica,sans-Serif" font-size="9.00">Cargo Hold &#45; Large</text>
<text xml:space="preserve" text-anchor="middle" x="509.62" y="-9.45" font-family="Helvetica,sans-Serif" font-size="9.00">2K RP</text>
</g>
</g>
</svg>
