<?xml version="1.0" encoding="UTF-8" standalone="no"?>
<!DOCTYPE svg PUBLIC "-//W3C//DTD SVG 1.1//EN"
 "http://www.w3.org/Graphics/SVG/1.1/DTD/svg11.dtd">
<!-- Generated by graphviz version 14.1.2 (20260124.0452)
 -->
<!-- Title: TechTree Pages: 1 -->
<svg width="670pt" height="132pt"
 viewBox="0.00 0.00 670.00 132.00" xmlns="http://www.w3.org/2000/svg" xmlns:xlink="http://www.w3.org/1999/xlink">
<g id="graph0" class="graph" transform="scale(1 1) rotate(0) translate(4 128)">
<title>TechTree</title>
<polygon fill="white" stroke="none" points="-4,4 -4,-128 666,-128 666,4 -4,4"/>
<text xml:space="preserve" text-anchor="middle" x="331" y="-106.7" font-family="Helvetica,sans-Serif" font-weight="bold" font-size="14.00">Carronade Calibre</text>
<!-- 15 -->
<g id="node1" class="node">
<title>15</title>
<path fill="lightgrey" stroke="black" d="M250,-101C250,-101 220,-101 220,-101 214,-101 208,-95 208,-89 208,-89 208,-77 208,-77 208,-71 214,-65 220,-65 220,-65 250,-65 250,-65 256,-65 262,-71 262,-77 262,-77 262,-89 262,-89 262,-95 256,-101 250,-101"/>
<text xml:space="preserve" text-anchor="middle" x="235" y="-79.12" font-family="Helvetica,sans-Serif" font-size="10.00">15</text>
</g>
<!-- cm_Carronade -->
<g id="node2" class="node">
<title>cm_Carronade</title>
<path fill="#f8d7da" stroke="black" d="M365.62,-101C365.62,-101 296.38,-101 296.38,-101 290.38,-101 284.38,-95 284.38,-89 284.38,-89 284.38,-77 284.38,-77 284.38,-71 290.38,-65 296.38,-65 296.38,-65 365.62,-65 365.62,-65 371.62,-65 377.62,-71 377.62,-77 377.62,-77 377.62,-89 377.62,-89 377.62,-95 371.62,-101 365.62,-101"/>
<text xml:space="preserve" text-anchor="middle" x="331" y="-84.75" font-family="Helvetica,sans-Serif" font-size="10.00">100cm Carronade</text>
<text xml:space="preserve" text-anchor="middle" x="331" y="-73.5" font-family="Helvetica,sans-Serif" font-size="10.00">2.0M RP</text>
</g>
<!-- 25 -->
<g id="node4" class="node">
<title>25</title>
<path fill="lightgrey" stroke="black" d="M42,-36C42,-36 12,-36 12,-36 6,-36 0,-30 0,-24 0,-24 0,-12 0,-12 0,-6 6,0 12,0 12,0 42,0 42,0 48,0 54,-6 54,-12 54,-12 54,-24 54,-24 54,-30 48,-36 42,-36"/>
<text xml:space="preserve" text-anchor="middle" x="27" y="-14.12" font-family="Helvetica,sans-Serif" font-size="10.00">25</text>
</g>
<!-- cm_Carronade&#45;&gt;25 -->
<g id="edge1" class="edge">
<title>cm_Carronade&#45;&gt;25</title>
<path fill="none" stroke="black" d="M283.98,-67.59C280.28,-66.65 276.59,-65.77 273,-65 181.75,-45.38 154.71,-61.76 65,-36 64.13,-35.75 63.26,-35.49 62.38,-35.21"/>
<polygon fill="black" stroke="black" points="63.31,-32.94 55.9,-32.88 61.66,-37.55 63.31,-32.94"/>
</g>
<!-- 30 -->
<g id="node5" class="node">
<title>30</title>
<path fill="lightgrey" stroke="black" d="M118,-36C118,-36 88,-36 88,-36 82,-36 76,-30 76,-24 76,-24 76,-12 76,-12 76,-6 82,0 88,0 88,0 118,0 118,0 124,0 130,-6 130,-12 130,-12 130,-24 130,-24 130,-30 124,-36 118,-36"/>
<text xml:space="preserve" text-anchor="middle" x="103" y="-14.12" font-family="Helvetica,sans-Serif" font-size="10.00">30</text>
</g>
<!-- cm_Carronade&#45;&gt;30 -->
<g id="edge2" class="edge">
<title>cm_Carronade&#45;&gt;30</title>
<path fill="none" stroke="black" d="M283.91,-67.9C280.23,-66.89 276.56,-65.91 273,-65 214.81,-50.1 198.05,-54.81 141,-36 140,-35.67 138.98,-35.32 137.96,-34.96"/>
<polygon fill="black" stroke="black" points="138.96,-32.71 131.55,-32.48 137.2,-37.29 138.96,-32.71"/>
</g>
<!-- 35 -->
<g id="node6" class="node">
<title>35</title>
<path fill="lightgrey" stroke="black" d="M194,-36C194,-36 164,-36 164,-36 158,-36 152,-30 152,-24 152,-24 152,-12 152,-12 152,-6 158,0 164,0 164,0 194,0 194,0 200,0 206,-6 206,-12 206,-12 206,-24 206,-24 206,-30 200,-36 194,-36"/>
<text xml:space="preserve" text-anchor="middle" x="179" y="-14.12" font-family="Helvetica,sans-Serif" font-size="10.00">35</text>
</g>
<!-- cm_Carronade&#45;&gt;35 -->
<g id="edge3" class="edge">
<title>cm_Carronade&#45;&gt;35</title>
<path fill="none" stroke="black" d="M286.72,-64.58C265.55,-56.13 239.88,-45.73 217,-36 216.03,-35.59 215.04,-35.16 214.05,-34.74"/>
<polygon fill="black" stroke="black" points="215.13,-32.53 207.73,-31.98 213.17,-37.03 215.13,-32.53"/>
</g>
<!-- 40 -->
<g id="node7" class="node">
<title>40</title>
<path fill="lightgrey" stroke="black" d="M270,-36C270,-36 240,-36 240,-36 234,-36 228,-30 228,-24 228,-24 228,-12 228,-12 228,-6 234,0 240,0 240,0 270,0 270,0 276,0 282,-6 282,-12 282,-12 282,-24 282,-24 282,-30 276,-36 270,-36"/>
<text xml:space="preserve" text-anchor="middle" x="255" y="-14.12" font-family="Helvetica,sans-Serif" font-size="10.00">40</text>
</g>
<!-- cm_Carronade&#45;&gt;40 -->
<g id="edge4" class="edge">
<title>cm_Carronade&#45;&gt;40</title>
<path fill="none" stroke="black" d="M310.23,-64.78C301.67,-57.69 291.64,-49.37 282.48,-41.78"/>
<polygon fill="black" stroke="black" points="284.12,-39.96 277.17,-37.38 281,-43.73 284.12,-39.96"/>
</g>
<!-- 50 -->
<g id="node8" class="node">
<title>50</title>
<path fill="lightgrey" stroke="black" d="M346,-36C346,-36 316,-36 316,-36 310,-36 304,-30 304,-24 304,-24 304,-12 304,-12 304,-6 310,0 316,0 316,0 346,0 346,0 352,0 358,-6 358,-12 358,-12 358,-24 358,-24 358,-30 352,-36 346,-36"/>
<text xml:space="preserve" text-anchor="middle" x="331" y="-14.12" font-family="Helvetica,sans-Serif" font-size="10.00">50</text>
</g>
<!-- cm_Carronade&#45;&gt;50 -->
<g id="edge5" class="edge">
<title>cm_Carronade&#45;&gt;50</title>
<path fill="none" stroke="black" d="M331,-64.78C331,-58.53 331,-51.33 331,-44.52"/>
<polygon fill="black" stroke="black" points="333.45,-44.71 331,-37.71 328.55,-44.71 333.45,-44.71"/>
</g>
<!-- 60 -->
<g id="node9" class="node">
<title>60</title>
<path fill="lightgrey" stroke="black" d="M422,-36C422,-36 392,-36 392,-36 386,-36 380,-30 380,-24 380,-24 380,-12 380,-12 380,-6 386,0 392,0 392,0 422,0 422,0 428,0 434,-6 434,-12 434,-12 434,-24 434,-24 434,-30 428,-36 422,-36"/>
<text xml:space="preserve" text-anchor="middle" x="407" y="-14.12" font-family="Helvetica,sans-Serif" font-size="10.00">60</text>
</g>
<!-- cm_Carronade&#45;&gt;60 -->
<g id="edge6" class="edge">
<title>cm_Carronade&#45;&gt;60</title>
<path fill="none" stroke="black" d="M351.77,-64.78C360.33,-57.69 370.36,-49.37 379.52,-41.78"/>
<polygon fill="black" stroke="black" points="381,-43.73 384.83,-37.38 377.88,-39.96 381,-43.73"/>
</g>
<!-- 70 -->
<g id="node10" class="node">
<title>70</title>
<path fill="lightgrey" stroke="black" d="M498,-36C498,-36 468,-36 468,-36 462,-36 456,-30 456,-24 456,-24 456,-12 456,-12 456,-6 462,0 468,0 468,0 498,0 498,0 504,0 510,-6 510,-12 510,-12 510,-24 510,-24 510,-30 504,-36 498,-36"/>
<text xml:space="preserve" text-anchor="middle" x="483" y="-14.12" font-family="Helvetica,sans-Serif" font-size="10.00">70</text>
</g>
<!-- cm_Carronade&#45;&gt;70 -->
<g id="edge7" class="edge">
<title>cm_Carronade&#45;&gt;70</title>
<path fill="none" stroke="black" d="M375.28,-64.58C396.45,-56.13 422.12,-45.73 445,-36 445.97,-35.59 446.96,-35.16 447.95,-34.74"/>
<polygon fill="black" stroke="black" points="448.83,-37.03 454.27,-31.98 446.87,-32.53 448.83,-37.03"/>
</g>
<!-- 80 -->
<g id="node11" class="node">
<title>80</title>
<path fill="lightgrey" stroke="black" d="M574,-36C574,-36 544,-36 544,-36 538,-36 532,-30 532,-24 532,-24 532,-12 532,-12 532,-6 538,0 544,0 544,0 574,0 574,0 580,0 586,-6 586,-12 586,-12 586,-24 586,-24 586,-30 580,-36 574,-36"/>
<text xml:space="preserve" text-anchor="middle" x="559" y="-14.12" font-family="Helvetica,sans-Serif" font-size="10.00">80</text>
</g>
<!-- cm_Carronade&#45;&gt;80 -->
<g id="edge8" class="edge">
<title>cm_Carronade&#45;&gt;80</title>
<path fill="none" stroke="black" d="M378.09,-67.9C381.77,-66.89 385.44,-65.91 389,-65 447.19,-50.1 463.95,-54.81 521,-36 522,-35.67 523.02,-35.32 524.04,-34.96"/>
<polygon fill="black" stroke="black" points="524.8,-37.29 530.45,-32.48 523.04,-32.71 524.8,-37.29"/>
</g>
<!-- 100 -->
<g id="node12" class="node">
<title>100</title>
<path fill="lightgrey" stroke="black" d="M650,-36C650,-36 620,-36 620,-36 614,-36 608,-30 608,-24 608,-24 608,-12 608,-12 608,-6 614,0 620,0 620,0 650,0 650,0 656,0 662,-6 662,-12 662,-12 662,-24 662,-24 662,-30 656,-36 650,-36"/>
<text xml:space="preserve" text-anchor="middle" x="635" y="-14.12" font-family="Helvetica,sans-Serif" font-size="10.00">100</text>
</g>
<!-- cm_Carronade&#45;&gt;100 -->
<g id="edge9" class="edge">
<title>cm_Carronade&#45;&gt;100</title>
<path fill="none" stroke="black" d="M378.02,-67.59C381.72,-66.65 385.41,-65.77 389,-65 480.25,-45.38 507.29,-61.76 597,-36 597.87,-35.75 598.74,-35.49 599.62,-35.21"/>
<polygon fill="black" stroke="black" points="600.34,-37.55 606.1,-32.88 598.69,-32.94 600.34,-37.55"/>
</g>
<!-- 20 -->
<g id="node3" class="node">
<title>20</title>
<path fill="lightgrey" stroke="black" d="M442,-101C442,-101 412,-101 412,-101 406,-101 400,-95 400,-89 400,-89 400,-77 400,-77 400,-71 406,-65 412,-65 412,-65 442,-65 442,-65 448,-65 454,-71 454,-77 454,-77 454,-89 454,-89 454,-95 448,-101 442,-101"/>
<text xml:space="preserve" text-anchor="middle" x="427" y="-79.12" font-family="Helvetica,sans-Serif" font-size="10.00">20</text>
</g>
</g>
</svg>
