<?xml version="1.0" encoding="UTF-8" standalone="no"?>
<!DOCTYPE svg PUBLIC "-//W3C//DTD SVG 1.1//EN"
 "http://www.w3.org/Graphics/SVG/1.1/DTD/svg11.dtd">
<!-- Generated by graphviz version 14.1.2 (20260124.0452)
 -->
<!-- Title: TechTree Pages: 1 -->
<svg width="200pt" height="652pt"
 viewBox="0.00 0.00 200.00 652.00" xmlns="http://www.w3.org/2000/svg" xmlns:xlink="http://www.w3.org/1999/xlink">
<g id="graph0" class="graph" transform="scale(1 1) rotate(0) translate(4 648)">
<title>TechTree</title>
<polygon fill="white" stroke="none" points="-4,4 -4,-648 196.25,-648 196.25,4 -4,4"/>
<text xml:space="preserve" text-anchor="middle" x="96.12" y="-626.7" font-family="Helvetica,sans-Serif" font-weight="bold" font-size="14.00">Cloaking Sensor Reduction</text>
<!-- Cloak_Sensor_Reduction_75_ -->
<g id="node1" class="node">
<title>Cloak_Sensor_Reduction_75_</title>
<path fill="#cce5ff" stroke="black" d="M156.62,-621C156.62,-621 35.62,-621 35.62,-621 29.62,-621 23.62,-615 23.62,-609 23.62,-609 23.62,-597 23.62,-597 23.62,-591 29.62,-585 35.62,-585 35.62,-585 156.62,-585 156.62,-585 162.62,-585 168.62,-591 168.62,-597 168.62,-597 168.62,-609 168.62,-609 168.62,-615 162.62,-621 156.62,-621"/>
<text xml:space="preserve" text-anchor="middle" x="96.12" y="-604.75" font-family="Helvetica,sans-Serif" font-size="10.00">Cloak Sensor Reduction 75%</text>
<text xml:space="preserve" text-anchor="middle" x="96.12" y="-593.5" font-family="Helvetica,sans-Serif" font-size="10.00">4K RP</text>
</g>
<!-- Cloak_Sensor_Reduction_80_ -->
<g id="node2" class="node">
<title>Cloak_Sensor_Reduction_80_</title>
<path fill="#cce5ff" stroke="black" d="M156.62,-556C156.62,-556 35.62,-556 35.62,-556 29.62,-556 23.62,-550 23.62,-544 23.62,-544 23.62,-532 23.62,-532 23.62,-526 29.62,-520 35.62,-520 35.62,-520 156.62,-520 156.62,-520 162.62,-520 168.62,-526 168.62,-532 168.62,-532 168.62,-544 168.62,-544 168.62,-550 162.62,-556 156.62,-556"/>
<text xml:space="preserve" text-anchor="middle" x="96.12" y="-539.75" font-family="Helvetica,sans-Serif" font-size="10.00">Cloak Sensor Reduction 80%</text>
<text xml:space="preserve" text-anchor="middle" x="96.12" y="-528.5" font-family="Helvetica,sans-Serif" font-size="10.00">8K RP</text>
</g>
<!-- Cloak_Sensor_Reduction_75_&#45;&gt;Cloak_Sensor_Reduction_80_ -->
<g id="edge1" class="edge">
<title>Cloak_Sensor_Reduction_75_&#45;&gt;Cloak_Sensor_Reduction_80_</title>
<path fill="none" stroke="black" d="M96.12,-584.78C96.12,-578.53 96.12,-571.33 96.12,-564.52"/>
<polygon fill="black" stroke="black" points="98.58,-564.71 96.13,-557.71 93.68,-564.71 98.58,-564.71"/>
</g>
<!-- Cloak_Sensor_Reduction_85_ -->
<g id="node3" class="node">
<title>Cloak_Sensor_Reduction_85_</title>
<path fill="#fff3cd" stroke="black" d="M156.62,-491C156.62,-491 35.62,-491 35.62,-491 29.62,-491 23.62,-485 23.62,-479 23.62,-479 23.62,-467 23.62,-467 23.62,-461 29.62,-455 35.62,-455 35.62,-455 156.62,-455 156.62,-455 162.62,-455 168.62,-461 168.62,-467 168.62,-467 168.62,-479 168.62,-479 168.62,-485 162.62,-491 156.62,-491"/>
<text xml:space="preserve" text-anchor="middle" x="96.12" y="-474.75" font-family="Helvetica,sans-Serif" font-size="10.00">Cloak Sensor Reduction 85%</text>
<text xml:space="preserve" text-anchor="middle" x="96.12" y="-463.5" font-family="Helvetica,sans-Serif" font-size="10.00">15K RP</text>
</g>
<!-- Cloak_Sensor_Reduction_80_&#45;&gt;Cloak_Sensor_Reduction_85_ -->
<g id="edge2" class="edge">
<title>Cloak_Sensor_Reduction_80_&#45;&gt;Cloak_Sensor_Reduction_85_</title>
<path fill="none" stroke="black" d="M96.12,-519.78C96.12,-513.53 96.12,-506.33 96.12,-499.52"/>
<polygon fill="black" stroke="black" points="98.58,-499.71 96.13,-492.71 93.68,-499.71 98.58,-499.71"/>
</g>
<!-- Cloak_Sensor_Reduction_90_ -->
<g id="node4" class="node">
<title>Cloak_Sensor_Reduction_90_</title>
<path fill="#fff3cd" stroke="black" d="M156.62,-426C156.62,-426 35.62,-426 35.62,-426 29.62,-426 23.62,-420 23.62,-414 23.62,-414 23.62,-402 23.62,-402 23.62,-396 29.62,-390 35.62,-390 35.62,-390 156.62,-390 156.62,-390 162.62,-390 168.62,-396 168.62,-402 168.62,-402 168.62,-414 168.62,-414 168.62,-420 162.62,-426 156.62,-426"/>
<text xml:space="preserve" text-anchor="middle" x="96.12" y="-409.75" font-family="Helvetica,sans-Serif" font-size="10.00">Cloak Sensor Reduction 90%</text>
<text xml:space="preserve" text-anchor="middle" x="96.12" y="-398.5" font-family="Helvetica,sans-Serif" font-size="10.00">30K RP</text>
</g>
<!-- Cloak_Sensor_Reduction_85_&#45;&gt;Cloak_Sensor_Reduction_90_ -->
<g id="edge3" class="edge">
<title>Cloak_Sensor_Reduction_85_&#45;&gt;Cloak_Sensor_Reduction_90_</title>
<path fill="none" stroke="black" d="M96.12,-454.78C96.12,-448.53 96.12,-441.33 96.12,-434.52"/>
<polygon fill="black" stroke="black" points="98.58,-434.71 96.13,-427.71 93.68,-434.71 98.58,-434.71"/>
</g>
<!-- Cloak_Sensor_Reduction_93_ -->
<g id="node5" class="node">
<title>Cloak_Sensor_Reduction_93_</title>
<path fill="#fff3cd" stroke="black" d="M156.62,-361C156.62,-361 35.62,-361 35.62,-361 29.62,-361 23.62,-355 23.62,-349 23.62,-349 23.62,-337 23.62,-337 23.62,-331 29.62,-325 35.62,-325 35.62,-325 156.62,-325 156.62,-325 162.62,-325 168.62,-331 168.62,-337 168.62,-337 168.62,-349 168.62,-349 168.62,-355 162.62,-361 156.62,-361"/>
<text xml:space="preserve" text-anchor="middle" x="96.12" y="-344.75" font-family="Helvetica,sans-Serif" font-size="10.00">Cloak Sensor Reduction 93%</text>
<text xml:space="preserve" text-anchor="middle" x="96.12" y="-333.5" font-family="Helvetica,sans-Serif" font-size="10.00">60K RP</text>
</g>
<!-- Cloak_Sensor_Reduction_90_&#45;&gt;Cloak_Sensor_Reduction_93_ -->
<g id="edge4" class="edge">
<title>Cloak_Sensor_Reduction_90_&#45;&gt;Cloak_Sensor_Reduction_93_</title>
<path fill="none" stroke="black" d="M96.12,-389.78C96.12,-383.53 96.12,-376.33 96.12,-369.52"/>
<polygon fill="black" stroke="black" points="98.58,-369.71 96.13,-362.71 93.68,-369.71 98.58,-369.71"/>
</g>
<!-- Cloak_Sensor_Reduction_95_ -->
<g id="node6" class="node">
<title>Cloak_Sensor_Reduction_95_</title>
<path fill="#d4c4fb" stroke="black" d="M156.62,-296C156.62,-296 35.62,-296 35.62,-296 29.62,-296 23.62,-290 23.62,-284 23.62,-284 23.62,-272 23.62,-272 23.62,-266 29.62,-260 35.62,-260 35.62,-260 156.62,-260 156.62,-260 162.62,-260 168.62,-266 168.62,-272 168.62,-272 168.62,-284 168.62,-284 168.62,-290 162.62,-296 156.62,-296"/>
<text xml:space="preserve" text-anchor="middle" x="96.12" y="-279.75" font-family="Helvetica,sans-Serif" font-size="10.00">Cloak Sensor Reduction 95%</text>
<text xml:space="preserve" text-anchor="middle" x="96.12" y="-268.5" font-family="Helvetica,sans-Serif" font-size="10.00">125K RP</text>
</g>
<!-- Cloak_Sensor_Reduction_93_&#45;&gt;Cloak_Sensor_Reduction_95_ -->
<g id="edge5" class="edge">
<title>Cloak_Sensor_Reduction_93_&#45;&gt;Cloak_Sensor_Reduction_95_</title>
<path fill="none" stroke="black" d="M96.12,-324.78C96.12,-318.53 96.12,-311.33 96.12,-304.52"/>
<polygon fill="black" stroke="black" points="98.58,-304.71 96.13,-297.71 93.68,-304.71 98.58,-304.71"/>
</g>
<!-- Cloak_Sensor_Reduction_97_ -->
<g id="node7" class="node">
<title>Cloak_Sensor_Reduction_97_</title>
<path fill="#d4c4fb" stroke="black" d="M156.62,-231C156.62,-231 35.62,-231 35.62,-231 29.62,-231 23.62,-225 23.62,-219 23.62,-219 23.62,-207 23.62,-207 23.62,-201 29.62,-195 35.62,-195 35.62,-195 156.62,-195 156.62,-195 162.62,-195 168.62,-201 168.62,-207 168.62,-207 168.62,-219 168.62,-219 168.62,-225 162.62,-231 156.62,-231"/>
<text xml:space="preserve" text-anchor="middle" x="96.12" y="-214.75" font-family="Helvetica,sans-Serif" font-size="10.00">Cloak Sensor Reduction 97%</text>
<text xml:space="preserve" text-anchor="middle" x="96.12" y="-203.5" font-family="Helvetica,sans-Serif" font-size="10.00">250K RP</text>
</g>
<!-- Cloak_Sensor_Reduction_95_&#45;&gt;Cloak_Sensor_Reduction_97_ -->
<g id="edge6" class="edge">
<title>Cloak_Sensor_Reduction_95_&#45;&gt;Cloak_Sensor_Reduction_97_</title>
<path fill="none" stroke="black" d="M96.12,-259.78C96.12,-253.53 96.12,-246.33 96.12,-239.52"/>
<polygon fill="black" stroke="black" points="98.58,-239.71 96.13,-232.71 93.68,-239.71 98.58,-239.71"/>
</g>
<!-- Cloak_Sensor_Reduction_98_ -->
<g id="node8" class="node">
<title>Cloak_Sensor_Reduction_98_</title>
<path fill="#d4c4fb" stroke="black" d="M156.62,-166C156.62,-166 35.62,-166 35.62,-166 29.62,-166 23.62,-160 23.62,-154 23.62,-154 23.62,-142 23.62,-142 23.62,-136 29.62,-130 35.62,-130 35.62,-130 156.62,-130 156.62,-130 162.62,-130 168.62,-136 168.62,-142 168.62,-142 168.62,-154 168.62,-154 168.62,-160 162.62,-166 156.62,-166"/>
<text xml:space="preserve" text-anchor="middle" x="96.12" y="-149.75" font-family="Helvetica,sans-Serif" font-size="10.00">Cloak Sensor Reduction 98%</text>
<text xml:space="preserve" text-anchor="middle" x="96.12" y="-138.5" font-family="Helvetica,sans-Serif" font-size="10.00">500K RP</text>
</g>
<!-- Cloak_Sensor_Reduction_97_&#45;&gt;Cloak_Sensor_Reduction_98_ -->
<g id="edge7" class="edge">
<title>Cloak_Sensor_Reduction_97_&#45;&gt;Cloak_Sensor_Reduction_98_</title>
<path fill="none" stroke="black" d="M96.12,-194.78C96.12,-188.53 96.12,-181.33 96.12,-174.52"/>
<polygon fill="black" stroke="black" points="98.58,-174.71 96.13,-167.71 93.68,-174.71 98.58,-174.71"/>
</g>
<!-- Cloak_Sensor_Reduction_99_ -->
<g id="node9" class="node">
<title>Cloak_Sensor_Reduction_99_</title>
<path fill="#d4c4fb" stroke="black" d="M156.62,-101C156.62,-101 35.62,-101 35.62,-101 29.62,-101 23.62,-95 23.62,-89 23.62,-89 23.62,-77 23.62,-77 23.62,-71 29.62,-65 35.62,-65 35.62,-65 156.62,-65 156.62,-65 162.62,-65 168.62,-71 168.62,-77 168.62,-77 168.62,-89 168.62,-89 168.62,-95 162.62,-101 156.62,-101"/>
<text xml:space="preserve" text-anchor="middle" x="96.12" y="-84.75" font-family="Helvetica,sans-Serif" font-size="10.00">Cloak Sensor Reduction 99%</text>
<text xml:space="preserve" text-anchor="middle" x="96.12" y="-73.5" font-family="Helvetica,sans-Serif" font-size="10.00">1.0M RP</text>
</g>
<!-- Cloak_Sensor_Reduction_98_&#45;&gt;Cloak_Sensor_Reduction_99_ -->
<g id="edge8" class="edge">
<title>Cloak_Sensor_Reduction_98_&#45;&gt;Cloak_Sensor_Reduction_99_</title>
<path fill="none" stroke="black" d="M96.12,-129.78C96.12,-123.53 96.12,-116.33 96.12,-109.52"/>
<polygon fill="black" stroke="black" points="98.58,-109.71 96.13,-102.71 93.68,-109.71 98.58,-109.71"/>
</g>
<!-- Cloak_Sensor_Reduction_99_5_ -->
<g id="node10" class="node">
<title>Cloak_Sensor_Reduction_99_5_</title>
<path fill="#f8d7da" stroke="black" d="M160.75,-36C160.75,-36 31.5,-36 31.5,-36 25.5,-36 19.5,-30 19.5,-24 19.5,-24 19.5,-12 19.5,-12 19.5,-6 25.5,0 31.5,0 31.5,0 160.75,0 160.75,0 166.75,0 172.75,-6 172.75,-12 172.75,-12 172.75,-24 172.75,-24 172.75,-30 166.75,-36 160.75,-36"/>
<text xml:space="preserve" text-anchor="middle" x="96.12" y="-19.75" font-family="Helvetica,sans-Serif" font-size="10.00">Cloak Sensor Reduction 99.5%</text>
<text xml:space="preserve" text-anchor="middle" x="96.12" y="-8.5" font-family="Helvetica,sans-Serif" font-size="10.00">2.0M RP</text>
</g>
<!-- Cloak_Sensor_Reduction_99_&#45;&gt;Cloak_Sensor_Reduction_99_5_ -->
<g id="edge9" class="edge">
<title>Cloak_Sensor_Reduction_99_&#45;&gt;Cloak_Sensor_Reduction_99_5_</title>
<path fill="none" stroke="black" d="M96.12,-64.78C96.12,-58.53 96.12,-51.33 96.12,-44.52"/>
<polygon fill="black" stroke="black" points="98.58,-44.71 96.13,-37.71 93.68,-44.71 98.58,-44.71"/>
</g>
</g>
</svg>
