<?xml version="1.0" encoding="UTF-8" standalone="no"?>
<!DOCTYPE svg PUBLIC "-//W3C//DTD SVG 1.1//EN"
 "http://www.w3.org/Graphics/SVG/1.1/DTD/svg11.dtd">
<!-- Generated by graphviz version 14.1.2 (20260124.0452)
 -->
<!-- Title: TechTree Pages: 1 -->
<svg width="182pt" height="785pt"
 viewBox="0.00 0.00 182.00 785.00" xmlns="http://www.w3.org/2000/svg" xmlns:xlink="http://www.w3.org/1999/xlink">
<g id="graph0" class="graph" transform="scale(1 1) rotate(0) translate(4 780.75)">
<title>TechTree</title>
<polygon fill="white" stroke="none" points="-4,4 -4,-780.75 177.5,-780.75 177.5,4 -4,4"/>
<text xml:space="preserve" text-anchor="middle" x="86.75" y="-761.35" font-family="Helvetica,sans-Serif" font-weight="bold" font-size="12.00">Cloaking Sensor Reduction</text>
<!-- Cloak_Sensor_Reduction_75_ -->
<g id="node1" class="node">
<title>Cloak_Sensor_Reduction_75_</title>
<path fill="#cce5ff" stroke="black" d="M143.12,-684C143.12,-684 30.37,-684 30.37,-684 24.37,-684 18.38,-678 18.38,-672 18.38,-672 18.38,-660 18.38,-660 18.38,-654 24.38,-648 30.38,-648 30.38,-648 143.12,-648 143.12,-648 149.12,-648 155.12,-654 155.12,-660 155.12,-660 155.12,-672 155.12,-672 155.12,-678 149.12,-684 143.12,-684"/>
<text xml:space="preserve" text-anchor="middle" x="86.75" y="-667.2" font-family="Helvetica,sans-Serif" font-size="9.00">Cloak Sensor Reduction 75%</text>
<text xml:space="preserve" text-anchor="middle" x="86.75" y="-657.45" font-family="Helvetica,sans-Serif" font-size="9.00">4K RP</text>
</g>
<!-- Cloak_Sensor_Reduction_80_ -->
<g id="node2" class="node">
<title>Cloak_Sensor_Reduction_80_</title>
<path fill="#cce5ff" stroke="black" d="M143.12,-612C143.12,-612 30.37,-612 30.37,-612 24.37,-612 18.38,-606 18.38,-600 18.38,-600 18.38,-588 18.38,-588 18.38,-582 24.38,-576 30.38,-576 30.38,-576 143.12,-576 143.12,-576 149.12,-576 155.12,-582 155.12,-588 155.12,-588 155.12,-600 155.12,-600 155.12,-606 149.12,-612 143.12,-612"/>
<text xml:space="preserve" text-anchor="middle" x="86.75" y="-595.2" font-family="Helvetica,sans-Serif" font-size="9.00">Cloak Sensor Reduction 80%</text>
<text xml:space="preserve" text-anchor="middle" x="86.75" y="-585.45" font-family="Helvetica,sans-Serif" font-size="9.00">8K RP</text>
</g>
<!-- Cloak_Sensor_Reduction_75_&#45;&gt;Cloak_Sensor_Reduction_80_ -->
<g id="edge2" class="edge">
<title>Cloak_Sensor_Reduction_75_&#45;&gt;Cloak_Sensor_Reduction_80_</title>
<path fill="none" stroke="black" d="M86.75,-647.7C86.75,-639.22 86.75,-628.86 86.75,-619.58"/>
<polygon fill="black" stroke="black" points="88.85,-619.62 86.75,-613.62 84.65,-619.62 88.85,-619.62"/>
</g>
<!-- Cloak_Sensor_Reduction_85_ -->
<g id="node3" class="node">
<title>Cloak_Sensor_Reduction_85_</title>
<path fill="#fff3cd" stroke="black" d="M143.12,-540C143.12,-540 30.37,-540 30.37,-540 24.37,-540 18.38,-534 18.38,-528 18.38,-528 18.38,-516 18.38,-516 18.38,-510 24.38,-504 30.38,-504 30.38,-504 143.12,-504 143.12,-504 149.12,-504 155.12,-510 155.12,-516 155.12,-516 155.12,-528 155.12,-528 155.12,-534 149.12,-540 143.12,-540"/>
<text xml:space="preserve" text-anchor="middle" x="86.75" y="-523.2" font-family="Helvetica,sans-Serif" font-size="9.00">Cloak Sensor Reduction 85%</text>
<text xml:space="preserve" text-anchor="middle" x="86.75" y="-513.45" font-family="Helvetica,sans-Serif" font-size="9.00">15K RP</text>
</g>
<!-- Cloak_Sensor_Reduction_80_&#45;&gt;Cloak_Sensor_Reduction_85_ -->
<g id="edge3" class="edge">
<title>Cloak_Sensor_Reduction_80_&#45;&gt;Cloak_Sensor_Reduction_85_</title>
<path fill="none" stroke="black" d="M86.75,-575.7C86.75,-567.22 86.75,-556.86 86.75,-547.58"/>
<polygon fill="black" stroke="black" points="88.85,-547.62 86.75,-541.62 84.65,-547.62 88.85,-547.62"/>
</g>
<!-- Cloak_Sensor_Reduction_90_ -->
<g id="node4" class="node">
<title>Cloak_Sensor_Reduction_90_</title>
<path fill="#fff3cd" stroke="black" d="M143.12,-468C143.12,-468 30.37,-468 30.37,-468 24.37,-468 18.38,-462 18.38,-456 18.38,-456 18.38,-444 18.38,-444 18.38,-438 24.38,-432 30.38,-432 30.38,-432 143.12,-432 143.12,-432 149.12,-432 155.12,-438 155.12,-444 155.12,-444 155.12,-456 155.12,-456 155.12,-462 149.12,-468 143.12,-468"/>
<text xml:space="preserve" text-anchor="middle" x="86.75" y="-451.2" font-family="Helvetica,sans-Serif" font-size="9.00">Cloak Sensor Reduction 90%</text>
<text xml:space="preserve" text-anchor="middle" x="86.75" y="-441.45" font-family="Helvetica,sans-Serif" font-size="9.00">30K RP</text>
</g>
<!-- Cloak_Sensor_Reduction_85_&#45;&gt;Cloak_Sensor_Reduction_90_ -->
<g id="edge4" class="edge">
<title>Cloak_Sensor_Reduction_85_&#45;&gt;Cloak_Sensor_Reduction_90_</title>
<path fill="none" stroke="black" d="M86.75,-503.7C86.75,-495.22 86.75,-484.86 86.75,-475.58"/>
<polygon fill="black" stroke="black" points="88.85,-475.62 86.75,-469.62 84.65,-475.62 88.85,-475.62"/>
</g>
<!-- Cloak_Sensor_Reduction_93_ -->
<g id="node5" class="node">
<title>Cloak_Sensor_Reduction_93_</title>
<path fill="#fff3cd" stroke="black" d="M143.12,-396C143.12,-396 30.37,-396 30.37,-396 24.37,-396 18.38,-390 18.38,-384 18.38,-384 18.38,-372 18.38,-372 18.38,-366 24.38,-360 30.38,-360 30.38,-360 143.12,-360 143.12,-360 149.12,-360 155.12,-366 155.12,-372 155.12,-372 155.12,-384 155.12,-384 155.12,-390 149.12,-396 143.12,-396"/>
<text xml:space="preserve" text-anchor="middle" x="86.75" y="-379.2" font-family="Helvetica,sans-Serif" font-size="9.00">Cloak Sensor Reduction 93%</text>
<text xml:space="preserve" text-anchor="middle" x="86.75" y="-369.45" font-family="Helvetica,sans-Serif" font-size="9.00">60K RP</text>
</g>
<!-- Cloak_Sensor_Reduction_90_&#45;&gt;Cloak_Sensor_Reduction_93_ -->
<g id="edge5" class="edge">
<title>Cloak_Sensor_Reduction_90_&#45;&gt;Cloak_Sensor_Reduction_93_</title>
<path fill="none" stroke="black" d="M86.75,-431.7C86.75,-423.22 86.75,-412.86 86.75,-403.58"/>
<polygon fill="black" stroke="black" points="88.85,-403.62 86.75,-397.62 84.65,-403.62 88.85,-403.62"/>
</g>
<!-- Cloak_Sensor_Reduction_95_ -->
<g id="node6" class="node">
<title>Cloak_Sensor_Reduction_95_</title>
<path fill="#d4c4fb" stroke="black" d="M143.12,-324C143.12,-324 30.37,-324 30.37,-324 24.37,-324 18.38,-318 18.38,-312 18.38,-312 18.38,-300 18.38,-300 18.38,-294 24.38,-288 30.38,-288 30.38,-288 143.12,-288 143.12,-288 149.12,-288 155.12,-294 155.12,-300 155.12,-300 155.12,-312 155.12,-312 155.12,-318 149.12,-324 143.12,-324"/>
<text xml:space="preserve" text-anchor="middle" x="86.75" y="-307.2" font-family="Helvetica,sans-Serif" font-size="9.00">Cloak Sensor Reduction 95%</text>
<text xml:space="preserve" text-anchor="middle" x="86.75" y="-297.45" font-family="Helvetica,sans-Serif" font-size="9.00">125K RP</text>
</g>
<!-- Cloak_Sensor_Reduction_93_&#45;&gt;Cloak_Sensor_Reduction_95_ -->
<g id="edge6" class="edge">
<title>Cloak_Sensor_Reduction_93_&#45;&gt;Cloak_Sensor_Reduction_95_</title>
<path fill="none" stroke="black" d="M86.75,-359.7C86.75,-351.22 86.75,-340.86 86.75,-331.58"/>
<polygon fill="black" stroke="black" points="88.85,-331.62 86.75,-325.62 84.65,-331.62 88.85,-331.62"/>
</g>
<!-- Cloak_Sensor_Reduction_97_ -->
<g id="node7" class="node">
<title>Cloak_Sensor_Reduction_97_</title>
<path fill="#d4c4fb" stroke="black" d="M143.12,-252C143.12,-252 30.37,-252 30.37,-252 24.37,-252 18.38,-246 18.38,-240 18.38,-240 18.38,-228 18.38,-228 18.38,-222 24.38,-216 30.38,-216 30.38,-216 143.12,-216 143.12,-216 149.12,-216 155.12,-222 155.12,-228 155.12,-228 155.12,-240 155.12,-240 155.12,-246 149.12,-252 143.12,-252"/>
<text xml:space="preserve" text-anchor="middle" x="86.75" y="-235.2" font-family="Helvetica,sans-Serif" font-size="9.00">Cloak Sensor Reduction 97%</text>
<text xml:space="preserve" text-anchor="middle" x="86.75" y="-225.45" font-family="Helvetica,sans-Serif" font-size="9.00">250K RP</text>
</g>
<!-- Cloak_Sensor_Reduction_95_&#45;&gt;Cloak_Sensor_Reduction_97_ -->
<g id="edge7" class="edge">
<title>Cloak_Sensor_Reduction_95_&#45;&gt;Cloak_Sensor_Reduction_97_</title>
<path fill="none" stroke="black" d="M86.75,-287.7C86.75,-279.22 86.75,-268.86 86.75,-259.58"/>
<polygon fill="black" stroke="black" points="88.85,-259.62 86.75,-253.62 84.65,-259.62 88.85,-259.62"/>
</g>
<!-- Cloak_Sensor_Reduction_98_ -->
<g id="node8" class="node">
<title>Cloak_Sensor_Reduction_98_</title>
<path fill="#d4c4fb" stroke="black" d="M143.12,-180C143.12,-180 30.37,-180 30.37,-180 24.37,-180 18.38,-174 18.38,-168 18.38,-168 18.38,-156 18.38,-156 18.38,-150 24.38,-144 30.38,-144 30.38,-144 143.12,-144 143.12,-144 149.12,-144 155.12,-150 155.12,-156 155.12,-156 155.12,-168 155.12,-168 155.12,-174 149.12,-180 143.12,-180"/>
<text xml:space="preserve" text-anchor="middle" x="86.75" y="-163.2" font-family="Helvetica,sans-Serif" font-size="9.00">Cloak Sensor Reduction 98%</text>
<text xml:space="preserve" text-anchor="middle" x="86.75" y="-153.45" font-family="Helvetica,sans-Serif" font-size="9.00">500K RP</text>
</g>
<!-- Cloak_Sensor_Reduction_97_&#45;&gt;Cloak_Sensor_Reduction_98_ -->
<g id="edge8" class="edge">
<title>Cloak_Sensor_Reduction_97_&#45;&gt;Cloak_Sensor_Reduction_98_</title>
<path fill="none" stroke="black" d="M86.75,-215.7C86.75,-207.22 86.75,-196.86 86.75,-187.58"/>
<polygon fill="black" stroke="black" points="88.85,-187.62 86.75,-181.62 84.65,-187.62 88.85,-187.62"/>
</g>
<!-- Cloak_Sensor_Reduction_99_ -->
<g id="node9" class="node">
<title>Cloak_Sensor_Reduction_99_</title>
<path fill="#d4c4fb" stroke="black" d="M143.12,-108C143.12,-108 30.37,-108 30.37,-108 24.37,-108 18.38,-102 18.38,-96 18.38,-96 18.38,-84 18.38,-84 18.38,-78 24.38,-72 30.38,-72 30.38,-72 143.12,-72 143.12,-72 149.12,-72 155.12,-78 155.12,-84 155.12,-84 155.12,-96 155.12,-96 155.12,-102 149.12,-108 143.12,-108"/>
<text xml:space="preserve" text-anchor="middle" x="86.75" y="-91.2" font-family="Helvetica,sans-Serif" font-size="9.00">Cloak Sensor Reduction 99%</text>
<text xml:space="preserve" text-anchor="middle" x="86.75" y="-81.45" font-family="Helvetica,sans-Serif" font-size="9.00">1.0M RP</text>
</g>
<!-- Cloak_Sensor_Reduction_98_&#45;&gt;Cloak_Sensor_Reduction_99_ -->
<g id="edge9" class="edge">
<title>Cloak_Sensor_Reduction_98_&#45;&gt;Cloak_Sensor_Reduction_99_</title>
<path fill="none" stroke="black" d="M86.75,-143.7C86.75,-135.22 86.75,-124.86 86.75,-115.58"/>
<polygon fill="black" stroke="black" points="88.85,-115.62 86.75,-109.62 84.65,-115.62 88.85,-115.62"/>
</g>
<!-- Cloak_Sensor_Reduction_99_5_ -->
<g id="node10" class="node">
<title>Cloak_Sensor_Reduction_99_5_</title>
<path fill="#f8d7da" stroke="black" d="M146.88,-36C146.88,-36 26.62,-36 26.62,-36 20.62,-36 14.62,-30 14.62,-24 14.62,-24 14.62,-12 14.62,-12 14.62,-6 20.62,0 26.62,0 26.62,0 146.88,0 146.88,0 152.88,0 158.88,-6 158.88,-12 158.88,-12 158.88,-24 158.88,-24 158.88,-30 152.88,-36 146.88,-36"/>
<text xml:space="preserve" text-anchor="middle" x="86.75" y="-19.2" font-family="Helvetica,sans-Serif" font-size="9.00">Cloak Sensor Reduction 99.5%</text>
<text xml:space="preserve" text-anchor="middle" x="86.75" y="-9.45" font-family="Helvetica,sans-Serif" font-size="9.00">2.0M RP</text>
</g>
<!-- Cloak_Sensor_Reduction_99_&#45;&gt;Cloak_Sensor_Reduction_99_5_ -->
<g id="edge10" class="edge">
<title>Cloak_Sensor_Reduction_99_&#45;&gt;Cloak_Sensor_Reduction_99_5_</title>
<path fill="none" stroke="black" d="M86.75,-71.7C86.75,-63.22 86.75,-52.86 86.75,-43.58"/>
<polygon fill="black" stroke="black" points="88.85,-43.62 86.75,-37.62 84.65,-43.62 88.85,-43.62"/>
</g>
<!-- ext_Cloaking_Theory -->
<g id="node11" class="node">
<title>ext_Cloaking_Theory</title>
<path fill="#f0f0f0" stroke="black" stroke-dasharray="5,2" d="M116.5,-756C116.5,-756 57,-756 57,-756 51,-756 45,-750 45,-744 45,-744 45,-732 45,-732 45,-726 51,-720 57,-720 57,-720 116.5,-720 116.5,-720 122.5,-720 128.5,-726 128.5,-732 128.5,-732 128.5,-744 128.5,-744 128.5,-750 122.5,-756 116.5,-756"/>
<text xml:space="preserve" text-anchor="middle" x="86.75" y="-734.33" font-family="Helvetica,sans-Serif" font-size="9.00">Cloaking Theory</text>
</g>
<!-- ext_Cloaking_Theory&#45;&gt;Cloak_Sensor_Reduction_75_ -->
<g id="edge1" class="edge">
<title>ext_Cloaking_Theory&#45;&gt;Cloak_Sensor_Reduction_75_</title>
<path fill="none" stroke="black" d="M86.75,-719.7C86.75,-711.22 86.75,-700.86 86.75,-691.58"/>
<polygon fill="black" stroke="black" points="88.85,-691.62 86.75,-685.62 84.65,-691.62 88.85,-691.62"/>
</g>
</g>
</svg>
