<?xml version="1.0" encoding="UTF-8" standalone="no"?>
<!DOCTYPE svg PUBLIC "-//W3C//DTD SVG 1.1//EN"
 "http://www.w3.org/Graphics/SVG/1.1/DTD/svg11.dtd">
<!-- Generated by graphviz version 14.1.2 (20260124.0452)
 -->
<!-- Title: TechTree Pages: 1 -->
<svg width="149pt" height="522pt"
 viewBox="0.00 0.00 149.00 522.00" xmlns="http://www.w3.org/2000/svg" xmlns:xlink="http://www.w3.org/1999/xlink">
<g id="graph0" class="graph" transform="scale(1 1) rotate(0) translate(4 518)">
<title>TechTree</title>
<polygon fill="white" stroke="none" points="-4,4 -4,-518 144.5,-518 144.5,4 -4,4"/>
<text xml:space="preserve" text-anchor="middle" x="70.25" y="-496.7" font-family="Helvetica,sans-Serif" font-weight="bold" font-size="14.00">Cloaking Efficiency</text>
<!-- Cloaking_Efficiency_3 -->
<g id="node1" class="node">
<title>Cloaking_Efficiency_3</title>
<path fill="#cce5ff" stroke="black" d="M112.75,-491C112.75,-491 27.75,-491 27.75,-491 21.75,-491 15.75,-485 15.75,-479 15.75,-479 15.75,-467 15.75,-467 15.75,-461 21.75,-455 27.75,-455 27.75,-455 112.75,-455 112.75,-455 118.75,-455 124.75,-461 124.75,-467 124.75,-467 124.75,-479 124.75,-479 124.75,-485 118.75,-491 112.75,-491"/>
<text xml:space="preserve" text-anchor="middle" x="70.25" y="-474.75" font-family="Helvetica,sans-Serif" font-size="10.00">Cloaking Efficiency 3</text>
<text xml:space="preserve" text-anchor="middle" x="70.25" y="-463.5" font-family="Helvetica,sans-Serif" font-size="10.00">4K RP</text>
</g>
<!-- Cloaking_Efficiency_4 -->
<g id="node2" class="node">
<title>Cloaking_Efficiency_4</title>
<path fill="#cce5ff" stroke="black" d="M112.75,-426C112.75,-426 27.75,-426 27.75,-426 21.75,-426 15.75,-420 15.75,-414 15.75,-414 15.75,-402 15.75,-402 15.75,-396 21.75,-390 27.75,-390 27.75,-390 112.75,-390 112.75,-390 118.75,-390 124.75,-396 124.75,-402 124.75,-402 124.75,-414 124.75,-414 124.75,-420 118.75,-426 112.75,-426"/>
<text xml:space="preserve" text-anchor="middle" x="70.25" y="-409.75" font-family="Helvetica,sans-Serif" font-size="10.00">Cloaking Efficiency 4</text>
<text xml:space="preserve" text-anchor="middle" x="70.25" y="-398.5" font-family="Helvetica,sans-Serif" font-size="10.00">8K RP</text>
</g>
<!-- Cloaking_Efficiency_3&#45;&gt;Cloaking_Efficiency_4 -->
<g id="edge1" class="edge">
<title>Cloaking_Efficiency_3&#45;&gt;Cloaking_Efficiency_4</title>
<path fill="none" stroke="black" d="M70.25,-454.78C70.25,-448.53 70.25,-441.33 70.25,-434.52"/>
<polygon fill="black" stroke="black" points="72.7,-434.71 70.25,-427.71 67.8,-434.71 72.7,-434.71"/>
</g>
<!-- Cloaking_Efficiency_5 -->
<g id="node3" class="node">
<title>Cloaking_Efficiency_5</title>
<path fill="#fff3cd" stroke="black" d="M112.75,-361C112.75,-361 27.75,-361 27.75,-361 21.75,-361 15.75,-355 15.75,-349 15.75,-349 15.75,-337 15.75,-337 15.75,-331 21.75,-325 27.75,-325 27.75,-325 112.75,-325 112.75,-325 118.75,-325 124.75,-331 124.75,-337 124.75,-337 124.75,-349 124.75,-349 124.75,-355 118.75,-361 112.75,-361"/>
<text xml:space="preserve" text-anchor="middle" x="70.25" y="-344.75" font-family="Helvetica,sans-Serif" font-size="10.00">Cloaking Efficiency 5</text>
<text xml:space="preserve" text-anchor="middle" x="70.25" y="-333.5" font-family="Helvetica,sans-Serif" font-size="10.00">15K RP</text>
</g>
<!-- Cloaking_Efficiency_4&#45;&gt;Cloaking_Efficiency_5 -->
<g id="edge2" class="edge">
<title>Cloaking_Efficiency_4&#45;&gt;Cloaking_Efficiency_5</title>
<path fill="none" stroke="black" d="M70.25,-389.78C70.25,-383.53 70.25,-376.33 70.25,-369.52"/>
<polygon fill="black" stroke="black" points="72.7,-369.71 70.25,-362.71 67.8,-369.71 72.7,-369.71"/>
</g>
<!-- Cloaking_Efficiency_6 -->
<g id="node4" class="node">
<title>Cloaking_Efficiency_6</title>
<path fill="#fff3cd" stroke="black" d="M112.75,-296C112.75,-296 27.75,-296 27.75,-296 21.75,-296 15.75,-290 15.75,-284 15.75,-284 15.75,-272 15.75,-272 15.75,-266 21.75,-260 27.75,-260 27.75,-260 112.75,-260 112.75,-260 118.75,-260 124.75,-266 124.75,-272 124.75,-272 124.75,-284 124.75,-284 124.75,-290 118.75,-296 112.75,-296"/>
<text xml:space="preserve" text-anchor="middle" x="70.25" y="-279.75" font-family="Helvetica,sans-Serif" font-size="10.00">Cloaking Efficiency 6</text>
<text xml:space="preserve" text-anchor="middle" x="70.25" y="-268.5" font-family="Helvetica,sans-Serif" font-size="10.00">30K RP</text>
</g>
<!-- Cloaking_Efficiency_5&#45;&gt;Cloaking_Efficiency_6 -->
<g id="edge3" class="edge">
<title>Cloaking_Efficiency_5&#45;&gt;Cloaking_Efficiency_6</title>
<path fill="none" stroke="black" d="M70.25,-324.78C70.25,-318.53 70.25,-311.33 70.25,-304.52"/>
<polygon fill="black" stroke="black" points="72.7,-304.71 70.25,-297.71 67.8,-304.71 72.7,-304.71"/>
</g>
<!-- Cloaking_Efficiency_8 -->
<g id="node5" class="node">
<title>Cloaking_Efficiency_8</title>
<path fill="#fff3cd" stroke="black" d="M112.75,-231C112.75,-231 27.75,-231 27.75,-231 21.75,-231 15.75,-225 15.75,-219 15.75,-219 15.75,-207 15.75,-207 15.75,-201 21.75,-195 27.75,-195 27.75,-195 112.75,-195 112.75,-195 118.75,-195 124.75,-201 124.75,-207 124.75,-207 124.75,-219 124.75,-219 124.75,-225 118.75,-231 112.75,-231"/>
<text xml:space="preserve" text-anchor="middle" x="70.25" y="-214.75" font-family="Helvetica,sans-Serif" font-size="10.00">Cloaking Efficiency 8</text>
<text xml:space="preserve" text-anchor="middle" x="70.25" y="-203.5" font-family="Helvetica,sans-Serif" font-size="10.00">60K RP</text>
</g>
<!-- Cloaking_Efficiency_6&#45;&gt;Cloaking_Efficiency_8 -->
<g id="edge4" class="edge">
<title>Cloaking_Efficiency_6&#45;&gt;Cloaking_Efficiency_8</title>
<path fill="none" stroke="black" d="M70.25,-259.78C70.25,-253.53 70.25,-246.33 70.25,-239.52"/>
<polygon fill="black" stroke="black" points="72.7,-239.71 70.25,-232.71 67.8,-239.71 72.7,-239.71"/>
</g>
<!-- Cloaking_Efficiency_10 -->
<g id="node6" class="node">
<title>Cloaking_Efficiency_10</title>
<path fill="#d4c4fb" stroke="black" d="M115.38,-166C115.38,-166 25.12,-166 25.12,-166 19.12,-166 13.12,-160 13.12,-154 13.12,-154 13.12,-142 13.12,-142 13.12,-136 19.12,-130 25.12,-130 25.12,-130 115.38,-130 115.38,-130 121.38,-130 127.38,-136 127.38,-142 127.38,-142 127.38,-154 127.38,-154 127.38,-160 121.38,-166 115.38,-166"/>
<text xml:space="preserve" text-anchor="middle" x="70.25" y="-149.75" font-family="Helvetica,sans-Serif" font-size="10.00">Cloaking Efficiency 10</text>
<text xml:space="preserve" text-anchor="middle" x="70.25" y="-138.5" font-family="Helvetica,sans-Serif" font-size="10.00">125K RP</text>
</g>
<!-- Cloaking_Efficiency_8&#45;&gt;Cloaking_Efficiency_10 -->
<g id="edge5" class="edge">
<title>Cloaking_Efficiency_8&#45;&gt;Cloaking_Efficiency_10</title>
<path fill="none" stroke="black" d="M70.25,-194.78C70.25,-188.53 70.25,-181.33 70.25,-174.52"/>
<polygon fill="black" stroke="black" points="72.7,-174.71 70.25,-167.71 67.8,-174.71 72.7,-174.71"/>
</g>
<!-- Cloaking_Efficiency_12 -->
<g id="node7" class="node">
<title>Cloaking_Efficiency_12</title>
<path fill="#d4c4fb" stroke="black" d="M115.38,-101C115.38,-101 25.12,-101 25.12,-101 19.12,-101 13.12,-95 13.12,-89 13.12,-89 13.12,-77 13.12,-77 13.12,-71 19.12,-65 25.12,-65 25.12,-65 115.38,-65 115.38,-65 121.38,-65 127.38,-71 127.38,-77 127.38,-77 127.38,-89 127.38,-89 127.38,-95 121.38,-101 115.38,-101"/>
<text xml:space="preserve" text-anchor="middle" x="70.25" y="-84.75" font-family="Helvetica,sans-Serif" font-size="10.00">Cloaking Efficiency 12</text>
<text xml:space="preserve" text-anchor="middle" x="70.25" y="-73.5" font-family="Helvetica,sans-Serif" font-size="10.00">250K RP</text>
</g>
<!-- Cloaking_Efficiency_10&#45;&gt;Cloaking_Efficiency_12 -->
<g id="edge6" class="edge">
<title>Cloaking_Efficiency_10&#45;&gt;Cloaking_Efficiency_12</title>
<path fill="none" stroke="black" d="M70.25,-129.78C70.25,-123.53 70.25,-116.33 70.25,-109.52"/>
<polygon fill="black" stroke="black" points="72.7,-109.71 70.25,-102.71 67.8,-109.71 72.7,-109.71"/>
</g>
<!-- Cloaking_Efficiency_15 -->
<g id="node8" class="node">
<title>Cloaking_Efficiency_15</title>
<path fill="#d4c4fb" stroke="black" d="M115.38,-36C115.38,-36 25.12,-36 25.12,-36 19.12,-36 13.12,-30 13.12,-24 13.12,-24 13.12,-12 13.12,-12 13.12,-6 19.12,0 25.12,0 25.12,0 115.38,0 115.38,0 121.38,0 127.38,-6 127.38,-12 127.38,-12 127.38,-24 127.38,-24 127.38,-30 121.38,-36 115.38,-36"/>
<text xml:space="preserve" text-anchor="middle" x="70.25" y="-19.75" font-family="Helvetica,sans-Serif" font-size="10.00">Cloaking Efficiency 15</text>
<text xml:space="preserve" text-anchor="middle" x="70.25" y="-8.5" font-family="Helvetica,sans-Serif" font-size="10.00">500K RP</text>
</g>
<!-- Cloaking_Efficiency_12&#45;&gt;Cloaking_Efficiency_15 -->
<g id="edge7" class="edge">
<title>Cloaking_Efficiency_12&#45;&gt;Cloaking_Efficiency_15</title>
<path fill="none" stroke="black" d="M70.25,-64.78C70.25,-58.53 70.25,-51.33 70.25,-44.52"/>
<polygon fill="black" stroke="black" points="72.7,-44.71 70.25,-37.71 67.8,-44.71 72.7,-44.71"/>
</g>
</g>
</svg>
