<?xml version="1.0" encoding="UTF-8" standalone="no"?>
<!DOCTYPE svg PUBLIC "-//W3C//DTD SVG 1.1//EN"
 "http://www.w3.org/Graphics/SVG/1.1/DTD/svg11.dtd">
<!-- Generated by graphviz version 14.1.2 (20260124.0452)
 -->
<!-- Title: TechTree Pages: 1 -->
<svg width="130pt" height="67pt"
 viewBox="0.00 0.00 130.00 67.00" xmlns="http://www.w3.org/2000/svg" xmlns:xlink="http://www.w3.org/1999/xlink">
<g id="graph0" class="graph" transform="scale(1 1) rotate(0) translate(4 63)">
<title>TechTree</title>
<polygon fill="white" stroke="none" points="-4,4 -4,-63 125.75,-63 125.75,4 -4,4"/>
<text xml:space="preserve" text-anchor="middle" x="60.88" y="-41.7" font-family="Helvetica,sans-Serif" font-weight="bold" font-size="14.00">Cloaking Theory</text>
<!-- Cloaking_Theory -->
<g id="node1" class="node">
<title>Cloaking_Theory</title>
<path fill="#cce5ff" stroke="black" d="M92.5,-36C92.5,-36 29.25,-36 29.25,-36 23.25,-36 17.25,-30 17.25,-24 17.25,-24 17.25,-12 17.25,-12 17.25,-6 23.25,0 29.25,0 29.25,0 92.5,0 92.5,0 98.5,0 104.5,-6 104.5,-12 104.5,-12 104.5,-24 104.5,-24 104.5,-30 98.5,-36 92.5,-36"/>
<text xml:space="preserve" text-anchor="middle" x="60.88" y="-19.75" font-family="Helvetica,sans-Serif" font-size="10.00">Cloaking Theory</text>
<text xml:space="preserve" text-anchor="middle" x="60.88" y="-8.5" font-family="Helvetica,sans-Serif" font-size="10.00">10K RP</text>
</g>
</g>
</svg>
