<?xml version="1.0" encoding="UTF-8" standalone="no"?>
<!DOCTYPE svg PUBLIC "-//W3C//DTD SVG 1.1//EN"
 "http://www.w3.org/Graphics/SVG/1.1/DTD/svg11.dtd">
<!-- Generated by graphviz version 14.1.2 (20260124.0452)
 -->
<!-- Title: TechTree Pages: 1 -->
<svg width="135pt" height="641pt"
 viewBox="0.00 0.00 135.00 641.00" xmlns="http://www.w3.org/2000/svg" xmlns:xlink="http://www.w3.org/1999/xlink">
<g id="graph0" class="graph" transform="scale(1 1) rotate(0) translate(4 636.75)">
<title>TechTree</title>
<polygon fill="white" stroke="none" points="-4,4 -4,-636.75 131,-636.75 131,4 -4,4"/>
<text xml:space="preserve" text-anchor="middle" x="63.5" y="-617.35" font-family="Helvetica,sans-Serif" font-weight="bold" font-size="12.00">Cloaking Efficiency</text>
<!-- Cloaking_Efficiency_3 -->
<g id="node1" class="node">
<title>Cloaking_Efficiency_3</title>
<path fill="#cce5ff" stroke="black" d="M102.25,-540C102.25,-540 24.75,-540 24.75,-540 18.75,-540 12.75,-534 12.75,-528 12.75,-528 12.75,-516 12.75,-516 12.75,-510 18.75,-504 24.75,-504 24.75,-504 102.25,-504 102.25,-504 108.25,-504 114.25,-510 114.25,-516 114.25,-516 114.25,-528 114.25,-528 114.25,-534 108.25,-540 102.25,-540"/>
<text xml:space="preserve" text-anchor="middle" x="63.5" y="-523.2" font-family="Helvetica,sans-Serif" font-size="9.00">Cloaking Efficiency 3</text>
<text xml:space="preserve" text-anchor="middle" x="63.5" y="-513.45" font-family="Helvetica,sans-Serif" font-size="9.00">4K RP</text>
</g>
<!-- Cloaking_Efficiency_4 -->
<g id="node2" class="node">
<title>Cloaking_Efficiency_4</title>
<path fill="#cce5ff" stroke="black" d="M102.25,-468C102.25,-468 24.75,-468 24.75,-468 18.75,-468 12.75,-462 12.75,-456 12.75,-456 12.75,-444 12.75,-444 12.75,-438 18.75,-432 24.75,-432 24.75,-432 102.25,-432 102.25,-432 108.25,-432 114.25,-438 114.25,-444 114.25,-444 114.25,-456 114.25,-456 114.25,-462 108.25,-468 102.25,-468"/>
<text xml:space="preserve" text-anchor="middle" x="63.5" y="-451.2" font-family="Helvetica,sans-Serif" font-size="9.00">Cloaking Efficiency 4</text>
<text xml:space="preserve" text-anchor="middle" x="63.5" y="-441.45" font-family="Helvetica,sans-Serif" font-size="9.00">8K RP</text>
</g>
<!-- Cloaking_Efficiency_3&#45;&gt;Cloaking_Efficiency_4 -->
<g id="edge2" class="edge">
<title>Cloaking_Efficiency_3&#45;&gt;Cloaking_Efficiency_4</title>
<path fill="none" stroke="black" d="M63.5,-503.7C63.5,-495.22 63.5,-484.86 63.5,-475.58"/>
<polygon fill="black" stroke="black" points="65.6,-475.62 63.5,-469.62 61.4,-475.62 65.6,-475.62"/>
</g>
<!-- Cloaking_Efficiency_5 -->
<g id="node3" class="node">
<title>Cloaking_Efficiency_5</title>
<path fill="#fff3cd" stroke="black" d="M102.25,-396C102.25,-396 24.75,-396 24.75,-396 18.75,-396 12.75,-390 12.75,-384 12.75,-384 12.75,-372 12.75,-372 12.75,-366 18.75,-360 24.75,-360 24.75,-360 102.25,-360 102.25,-360 108.25,-360 114.25,-366 114.25,-372 114.25,-372 114.25,-384 114.25,-384 114.25,-390 108.25,-396 102.25,-396"/>
<text xml:space="preserve" text-anchor="middle" x="63.5" y="-379.2" font-family="Helvetica,sans-Serif" font-size="9.00">Cloaking Efficiency 5</text>
<text xml:space="preserve" text-anchor="middle" x="63.5" y="-369.45" font-family="Helvetica,sans-Serif" font-size="9.00">15K RP</text>
</g>
<!-- Cloaking_Efficiency_4&#45;&gt;Cloaking_Efficiency_5 -->
<g id="edge3" class="edge">
<title>Cloaking_Efficiency_4&#45;&gt;Cloaking_Efficiency_5</title>
<path fill="none" stroke="black" d="M63.5,-431.7C63.5,-423.22 63.5,-412.86 63.5,-403.58"/>
<polygon fill="black" stroke="black" points="65.6,-403.62 63.5,-397.62 61.4,-403.62 65.6,-403.62"/>
</g>
<!-- Cloaking_Efficiency_6 -->
<g id="node4" class="node">
<title>Cloaking_Efficiency_6</title>
<path fill="#fff3cd" stroke="black" d="M102.25,-324C102.25,-324 24.75,-324 24.75,-324 18.75,-324 12.75,-318 12.75,-312 12.75,-312 12.75,-300 12.75,-300 12.75,-294 18.75,-288 24.75,-288 24.75,-288 102.25,-288 102.25,-288 108.25,-288 114.25,-294 114.25,-300 114.25,-300 114.25,-312 114.25,-312 114.25,-318 108.25,-324 102.25,-324"/>
<text xml:space="preserve" text-anchor="middle" x="63.5" y="-307.2" font-family="Helvetica,sans-Serif" font-size="9.00">Cloaking Efficiency 6</text>
<text xml:space="preserve" text-anchor="middle" x="63.5" y="-297.45" font-family="Helvetica,sans-Serif" font-size="9.00">30K RP</text>
</g>
<!-- Cloaking_Efficiency_5&#45;&gt;Cloaking_Efficiency_6 -->
<g id="edge4" class="edge">
<title>Cloaking_Efficiency_5&#45;&gt;Cloaking_Efficiency_6</title>
<path fill="none" stroke="black" d="M63.5,-359.7C63.5,-351.22 63.5,-340.86 63.5,-331.58"/>
<polygon fill="black" stroke="black" points="65.6,-331.62 63.5,-325.62 61.4,-331.62 65.6,-331.62"/>
</g>
<!-- Cloaking_Efficiency_8 -->
<g id="node5" class="node">
<title>Cloaking_Efficiency_8</title>
<path fill="#fff3cd" stroke="black" d="M102.25,-252C102.25,-252 24.75,-252 24.75,-252 18.75,-252 12.75,-246 12.75,-240 12.75,-240 12.75,-228 12.75,-228 12.75,-222 18.75,-216 24.75,-216 24.75,-216 102.25,-216 102.25,-216 108.25,-216 114.25,-222 114.25,-228 114.25,-228 114.25,-240 114.25,-240 114.25,-246 108.25,-252 102.25,-252"/>
<text xml:space="preserve" text-anchor="middle" x="63.5" y="-235.2" font-family="Helvetica,sans-Serif" font-size="9.00">Cloaking Efficiency 8</text>
<text xml:space="preserve" text-anchor="middle" x="63.5" y="-225.45" font-family="Helvetica,sans-Serif" font-size="9.00">60K RP</text>
</g>
<!-- Cloaking_Efficiency_6&#45;&gt;Cloaking_Efficiency_8 -->
<g id="edge5" class="edge">
<title>Cloaking_Efficiency_6&#45;&gt;Cloaking_Efficiency_8</title>
<path fill="none" stroke="black" d="M63.5,-287.7C63.5,-279.22 63.5,-268.86 63.5,-259.58"/>
<polygon fill="black" stroke="black" points="65.6,-259.62 63.5,-253.62 61.4,-259.62 65.6,-259.62"/>
</g>
<!-- Cloaking_Efficiency_10 -->
<g id="node6" class="node">
<title>Cloaking_Efficiency_10</title>
<path fill="#d4c4fb" stroke="black" d="M104.88,-180C104.88,-180 22.12,-180 22.12,-180 16.12,-180 10.13,-174 10.13,-168 10.13,-168 10.13,-156 10.13,-156 10.13,-150 16.13,-144 22.13,-144 22.13,-144 104.88,-144 104.88,-144 110.88,-144 116.88,-150 116.88,-156 116.88,-156 116.88,-168 116.88,-168 116.88,-174 110.88,-180 104.88,-180"/>
<text xml:space="preserve" text-anchor="middle" x="63.5" y="-163.2" font-family="Helvetica,sans-Serif" font-size="9.00">Cloaking Efficiency 10</text>
<text xml:space="preserve" text-anchor="middle" x="63.5" y="-153.45" font-family="Helvetica,sans-Serif" font-size="9.00">125K RP</text>
</g>
<!-- Cloaking_Efficiency_8&#45;&gt;Cloaking_Efficiency_10 -->
<g id="edge6" class="edge">
<title>Cloaking_Efficiency_8&#45;&gt;Cloaking_Efficiency_10</title>
<path fill="none" stroke="black" d="M63.5,-215.7C63.5,-207.22 63.5,-196.86 63.5,-187.58"/>
<polygon fill="black" stroke="black" points="65.6,-187.62 63.5,-181.62 61.4,-187.62 65.6,-187.62"/>
</g>
<!-- Cloaking_Efficiency_12 -->
<g id="node7" class="node">
<title>Cloaking_Efficiency_12</title>
<path fill="#d4c4fb" stroke="black" d="M104.88,-108C104.88,-108 22.12,-108 22.12,-108 16.12,-108 10.13,-102 10.13,-96 10.13,-96 10.13,-84 10.13,-84 10.13,-78 16.13,-72 22.13,-72 22.13,-72 104.88,-72 104.88,-72 110.88,-72 116.88,-78 116.88,-84 116.88,-84 116.88,-96 116.88,-96 116.88,-102 110.88,-108 104.88,-108"/>
<text xml:space="preserve" text-anchor="middle" x="63.5" y="-91.2" font-family="Helvetica,sans-Serif" font-size="9.00">Cloaking Efficiency 12</text>
<text xml:space="preserve" text-anchor="middle" x="63.5" y="-81.45" font-family="Helvetica,sans-Serif" font-size="9.00">250K RP</text>
</g>
<!-- Cloaking_Efficiency_10&#45;&gt;Cloaking_Efficiency_12 -->
<g id="edge7" class="edge">
<title>Cloaking_Efficiency_10&#45;&gt;Cloaking_Efficiency_12</title>
<path fill="none" stroke="black" d="M63.5,-143.7C63.5,-135.22 63.5,-124.86 63.5,-115.58"/>
<polygon fill="black" stroke="black" points="65.6,-115.62 63.5,-109.62 61.4,-115.62 65.6,-115.62"/>
</g>
<!-- Cloaking_Efficiency_15 -->
<g id="node8" class="node">
<title>Cloaking_Efficiency_15</title>
<path fill="#d4c4fb" stroke="black" d="M104.88,-36C104.88,-36 22.12,-36 22.12,-36 16.12,-36 10.13,-30 10.13,-24 10.13,-24 10.13,-12 10.13,-12 10.13,-6 16.13,0 22.13,0 22.13,0 104.88,0 104.88,0 110.88,0 116.88,-6 116.88,-12 116.88,-12 116.88,-24 116.88,-24 116.88,-30 110.88,-36 104.88,-36"/>
<text xml:space="preserve" text-anchor="middle" x="63.5" y="-19.2" font-family="Helvetica,sans-Serif" font-size="9.00">Cloaking Efficiency 15</text>
<text xml:space="preserve" text-anchor="middle" x="63.5" y="-9.45" font-family="Helvetica,sans-Serif" font-size="9.00">500K RP</text>
</g>
<!-- Cloaking_Efficiency_12&#45;&gt;Cloaking_Efficiency_15 -->
<g id="edge8" class="edge">
<title>Cloaking_Efficiency_12&#45;&gt;Cloaking_Efficiency_15</title>
<path fill="none" stroke="black" d="M63.5,-71.7C63.5,-63.22 63.5,-52.86 63.5,-43.58"/>
<polygon fill="black" stroke="black" points="65.6,-43.62 63.5,-37.62 61.4,-43.62 65.6,-43.62"/>
</g>
<!-- ext_Cloaking_Theory -->
<g id="node9" class="node">
<title>ext_Cloaking_Theory</title>
<path fill="#f0f0f0" stroke="black" stroke-dasharray="5,2" d="M93.25,-612C93.25,-612 33.75,-612 33.75,-612 27.75,-612 21.75,-606 21.75,-600 21.75,-600 21.75,-588 21.75,-588 21.75,-582 27.75,-576 33.75,-576 33.75,-576 93.25,-576 93.25,-576 99.25,-576 105.25,-582 105.25,-588 105.25,-588 105.25,-600 105.25,-600 105.25,-606 99.25,-612 93.25,-612"/>
<text xml:space="preserve" text-anchor="middle" x="63.5" y="-590.33" font-family="Helvetica,sans-Serif" font-size="9.00">Cloaking Theory</text>
</g>
<!-- ext_Cloaking_Theory&#45;&gt;Cloaking_Efficiency_3 -->
<g id="edge1" class="edge">
<title>ext_Cloaking_Theory&#45;&gt;Cloaking_Efficiency_3</title>
<path fill="none" stroke="black" d="M63.5,-575.7C63.5,-567.22 63.5,-556.86 63.5,-547.58"/>
<polygon fill="black" stroke="black" points="65.6,-547.62 63.5,-541.62 61.4,-547.62 65.6,-547.62"/>
</g>
</g>
</svg>
