<?xml version="1.0" encoding="UTF-8" standalone="no"?>
<!DOCTYPE svg PUBLIC "-//W3C//DTD SVG 1.1//EN"
 "http://www.w3.org/Graphics/SVG/1.1/DTD/svg11.dtd">
<!-- Generated by graphviz version 14.1.2 (20260124.0452)
 -->
<!-- Title: TechTree Pages: 1 -->
<svg width="188pt" height="713pt"
 viewBox="0.00 0.00 188.00 713.00" xmlns="http://www.w3.org/2000/svg" xmlns:xlink="http://www.w3.org/1999/xlink">
<g id="graph0" class="graph" transform="scale(1 1) rotate(0) translate(4 708.75)">
<title>TechTree</title>
<polygon fill="white" stroke="none" points="-4,4 -4,-708.75 184.25,-708.75 184.25,4 -4,4"/>
<text xml:space="preserve" text-anchor="middle" x="90.12" y="-689.35" font-family="Helvetica,sans-Serif" font-weight="bold" font-size="12.00">Colonization Cost Reduction</text>
<!-- Colonization_Cost_Reduction_5_ -->
<g id="node1" class="node">
<title>Colonization_Cost_Reduction_5_</title>
<path fill="#cce5ff" stroke="black" d="M152.5,-612C152.5,-612 27.75,-612 27.75,-612 21.75,-612 15.75,-606 15.75,-600 15.75,-600 15.75,-588 15.75,-588 15.75,-582 21.75,-576 27.75,-576 27.75,-576 152.5,-576 152.5,-576 158.5,-576 164.5,-582 164.5,-588 164.5,-588 164.5,-600 164.5,-600 164.5,-606 158.5,-612 152.5,-612"/>
<text xml:space="preserve" text-anchor="middle" x="90.12" y="-595.2" font-family="Helvetica,sans-Serif" font-size="9.00">Colonization Cost Reduction 5%</text>
<text xml:space="preserve" text-anchor="middle" x="90.12" y="-585.45" font-family="Helvetica,sans-Serif" font-size="9.00">5K RP</text>
</g>
<!-- Colonization_Cost_Reduction_10 -->
<g id="node2" class="node">
<title>Colonization_Cost_Reduction_10</title>
<path fill="#cce5ff" stroke="black" d="M155.12,-540C155.12,-540 25.13,-540 25.13,-540 19.13,-540 13.12,-534 13.12,-528 13.12,-528 13.12,-516 13.12,-516 13.12,-510 19.12,-504 25.12,-504 25.12,-504 155.12,-504 155.12,-504 161.12,-504 167.12,-510 167.12,-516 167.12,-516 167.12,-528 167.12,-528 167.12,-534 161.12,-540 155.12,-540"/>
<text xml:space="preserve" text-anchor="middle" x="90.12" y="-523.2" font-family="Helvetica,sans-Serif" font-size="9.00">Colonization Cost Reduction 10%</text>
<text xml:space="preserve" text-anchor="middle" x="90.12" y="-513.45" font-family="Helvetica,sans-Serif" font-size="9.00">10K RP</text>
</g>
<!-- Colonization_Cost_Reduction_5_&#45;&gt;Colonization_Cost_Reduction_10 -->
<g id="edge2" class="edge">
<title>Colonization_Cost_Reduction_5_&#45;&gt;Colonization_Cost_Reduction_10</title>
<path fill="none" stroke="black" d="M90.12,-575.7C90.12,-567.22 90.12,-556.86 90.12,-547.58"/>
<polygon fill="black" stroke="black" points="92.23,-547.62 90.13,-541.62 88.03,-547.62 92.23,-547.62"/>
</g>
<!-- Colonization_Cost_Reduction_15 -->
<g id="node3" class="node">
<title>Colonization_Cost_Reduction_15</title>
<path fill="#fff3cd" stroke="black" d="M155.12,-468C155.12,-468 25.13,-468 25.13,-468 19.13,-468 13.12,-462 13.12,-456 13.12,-456 13.12,-444 13.12,-444 13.12,-438 19.12,-432 25.12,-432 25.12,-432 155.12,-432 155.12,-432 161.12,-432 167.12,-438 167.12,-444 167.12,-444 167.12,-456 167.12,-456 167.12,-462 161.12,-468 155.12,-468"/>
<text xml:space="preserve" text-anchor="middle" x="90.12" y="-451.2" font-family="Helvetica,sans-Serif" font-size="9.00">Colonization Cost Reduction 15%</text>
<text xml:space="preserve" text-anchor="middle" x="90.12" y="-441.45" font-family="Helvetica,sans-Serif" font-size="9.00">20K RP</text>
</g>
<!-- Colonization_Cost_Reduction_10&#45;&gt;Colonization_Cost_Reduction_15 -->
<g id="edge3" class="edge">
<title>Colonization_Cost_Reduction_10&#45;&gt;Colonization_Cost_Reduction_15</title>
<path fill="none" stroke="black" d="M90.12,-503.7C90.12,-495.22 90.12,-484.86 90.12,-475.58"/>
<polygon fill="black" stroke="black" points="92.23,-475.62 90.13,-469.62 88.03,-475.62 92.23,-475.62"/>
</g>
<!-- Colonization_Cost_Reduction_20 -->
<g id="node4" class="node">
<title>Colonization_Cost_Reduction_20</title>
<path fill="#fff3cd" stroke="black" d="M155.12,-396C155.12,-396 25.13,-396 25.13,-396 19.13,-396 13.12,-390 13.12,-384 13.12,-384 13.12,-372 13.12,-372 13.12,-366 19.12,-360 25.12,-360 25.12,-360 155.12,-360 155.12,-360 161.12,-360 167.12,-366 167.12,-372 167.12,-372 167.12,-384 167.12,-384 167.12,-390 161.12,-396 155.12,-396"/>
<text xml:space="preserve" text-anchor="middle" x="90.12" y="-379.2" font-family="Helvetica,sans-Serif" font-size="9.00">Colonization Cost Reduction 20%</text>
<text xml:space="preserve" text-anchor="middle" x="90.12" y="-369.45" font-family="Helvetica,sans-Serif" font-size="9.00">40K RP</text>
</g>
<!-- Colonization_Cost_Reduction_15&#45;&gt;Colonization_Cost_Reduction_20 -->
<g id="edge4" class="edge">
<title>Colonization_Cost_Reduction_15&#45;&gt;Colonization_Cost_Reduction_20</title>
<path fill="none" stroke="black" d="M90.12,-431.7C90.12,-423.22 90.12,-412.86 90.12,-403.58"/>
<polygon fill="black" stroke="black" points="92.23,-403.62 90.13,-397.62 88.03,-403.62 92.23,-403.62"/>
</g>
<!-- Colonization_Cost_Reduction_25 -->
<g id="node5" class="node">
<title>Colonization_Cost_Reduction_25</title>
<path fill="#fff3cd" stroke="black" d="M155.12,-324C155.12,-324 25.13,-324 25.13,-324 19.13,-324 13.12,-318 13.12,-312 13.12,-312 13.12,-300 13.12,-300 13.12,-294 19.12,-288 25.12,-288 25.12,-288 155.12,-288 155.12,-288 161.12,-288 167.12,-294 167.12,-300 167.12,-300 167.12,-312 167.12,-312 167.12,-318 161.12,-324 155.12,-324"/>
<text xml:space="preserve" text-anchor="middle" x="90.12" y="-307.2" font-family="Helvetica,sans-Serif" font-size="9.00">Colonization Cost Reduction 25%</text>
<text xml:space="preserve" text-anchor="middle" x="90.12" y="-297.45" font-family="Helvetica,sans-Serif" font-size="9.00">80K RP</text>
</g>
<!-- Colonization_Cost_Reduction_20&#45;&gt;Colonization_Cost_Reduction_25 -->
<g id="edge5" class="edge">
<title>Colonization_Cost_Reduction_20&#45;&gt;Colonization_Cost_Reduction_25</title>
<path fill="none" stroke="black" d="M90.12,-359.7C90.12,-351.22 90.12,-340.86 90.12,-331.58"/>
<polygon fill="black" stroke="black" points="92.23,-331.62 90.13,-325.62 88.03,-331.62 92.23,-331.62"/>
</g>
<!-- Colonization_Cost_Reduction_30 -->
<g id="node6" class="node">
<title>Colonization_Cost_Reduction_30</title>
<path fill="#d4c4fb" stroke="black" d="M155.12,-252C155.12,-252 25.13,-252 25.13,-252 19.13,-252 13.12,-246 13.12,-240 13.12,-240 13.12,-228 13.12,-228 13.12,-222 19.12,-216 25.12,-216 25.12,-216 155.12,-216 155.12,-216 161.12,-216 167.12,-222 167.12,-228 167.12,-228 167.12,-240 167.12,-240 167.12,-246 161.12,-252 155.12,-252"/>
<text xml:space="preserve" text-anchor="middle" x="90.12" y="-235.2" font-family="Helvetica,sans-Serif" font-size="9.00">Colonization Cost Reduction 30%</text>
<text xml:space="preserve" text-anchor="middle" x="90.12" y="-225.45" font-family="Helvetica,sans-Serif" font-size="9.00">150K RP</text>
</g>
<!-- Colonization_Cost_Reduction_25&#45;&gt;Colonization_Cost_Reduction_30 -->
<g id="edge6" class="edge">
<title>Colonization_Cost_Reduction_25&#45;&gt;Colonization_Cost_Reduction_30</title>
<path fill="none" stroke="black" d="M90.12,-287.7C90.12,-279.22 90.12,-268.86 90.12,-259.58"/>
<polygon fill="black" stroke="black" points="92.23,-259.62 90.13,-253.62 88.03,-259.62 92.23,-259.62"/>
</g>
<!-- Colonization_Cost_Reduction_35 -->
<g id="node7" class="node">
<title>Colonization_Cost_Reduction_35</title>
<path fill="#d4c4fb" stroke="black" d="M155.12,-180C155.12,-180 25.13,-180 25.13,-180 19.13,-180 13.12,-174 13.12,-168 13.12,-168 13.12,-156 13.12,-156 13.12,-150 19.12,-144 25.12,-144 25.12,-144 155.12,-144 155.12,-144 161.12,-144 167.12,-150 167.12,-156 167.12,-156 167.12,-168 167.12,-168 167.12,-174 161.12,-180 155.12,-180"/>
<text xml:space="preserve" text-anchor="middle" x="90.12" y="-163.2" font-family="Helvetica,sans-Serif" font-size="9.00">Colonization Cost Reduction 35%</text>
<text xml:space="preserve" text-anchor="middle" x="90.12" y="-153.45" font-family="Helvetica,sans-Serif" font-size="9.00">300K RP</text>
</g>
<!-- Colonization_Cost_Reduction_30&#45;&gt;Colonization_Cost_Reduction_35 -->
<g id="edge7" class="edge">
<title>Colonization_Cost_Reduction_30&#45;&gt;Colonization_Cost_Reduction_35</title>
<path fill="none" stroke="black" d="M90.12,-215.7C90.12,-207.22 90.12,-196.86 90.12,-187.58"/>
<polygon fill="black" stroke="black" points="92.23,-187.62 90.13,-181.62 88.03,-187.62 92.23,-187.62"/>
</g>
<!-- Colonization_Cost_Reduction_40 -->
<g id="node8" class="node">
<title>Colonization_Cost_Reduction_40</title>
<path fill="#d4c4fb" stroke="black" d="M155.12,-108C155.12,-108 25.13,-108 25.13,-108 19.13,-108 13.12,-102 13.12,-96 13.12,-96 13.12,-84 13.12,-84 13.12,-78 19.12,-72 25.12,-72 25.12,-72 155.12,-72 155.12,-72 161.12,-72 167.12,-78 167.12,-84 167.12,-84 167.12,-96 167.12,-96 167.12,-102 161.12,-108 155.12,-108"/>
<text xml:space="preserve" text-anchor="middle" x="90.12" y="-91.2" font-family="Helvetica,sans-Serif" font-size="9.00">Colonization Cost Reduction 40%</text>
<text xml:space="preserve" text-anchor="middle" x="90.12" y="-81.45" font-family="Helvetica,sans-Serif" font-size="9.00">600K RP</text>
</g>
<!-- Colonization_Cost_Reduction_35&#45;&gt;Colonization_Cost_Reduction_40 -->
<g id="edge8" class="edge">
<title>Colonization_Cost_Reduction_35&#45;&gt;Colonization_Cost_Reduction_40</title>
<path fill="none" stroke="black" d="M90.12,-143.7C90.12,-135.22 90.12,-124.86 90.12,-115.58"/>
<polygon fill="black" stroke="black" points="92.23,-115.62 90.13,-109.62 88.03,-115.62 92.23,-115.62"/>
</g>
<!-- Colonization_Cost_Reduction_50 -->
<g id="node9" class="node">
<title>Colonization_Cost_Reduction_50</title>
<path fill="#f8d7da" stroke="black" d="M155.12,-36C155.12,-36 25.13,-36 25.13,-36 19.13,-36 13.12,-30 13.12,-24 13.12,-24 13.12,-12 13.12,-12 13.12,-6 19.12,0 25.12,0 25.12,0 155.12,0 155.12,0 161.12,0 167.12,-6 167.12,-12 167.12,-12 167.12,-24 167.12,-24 167.12,-30 161.12,-36 155.12,-36"/>
<text xml:space="preserve" text-anchor="middle" x="90.12" y="-19.2" font-family="Helvetica,sans-Serif" font-size="9.00">Colonization Cost Reduction 50%</text>
<text xml:space="preserve" text-anchor="middle" x="90.12" y="-9.45" font-family="Helvetica,sans-Serif" font-size="9.00">1.2M RP</text>
</g>
<!-- Colonization_Cost_Reduction_40&#45;&gt;Colonization_Cost_Reduction_50 -->
<g id="edge9" class="edge">
<title>Colonization_Cost_Reduction_40&#45;&gt;Colonization_Cost_Reduction_50</title>
<path fill="none" stroke="black" d="M90.12,-71.7C90.12,-63.22 90.12,-52.86 90.12,-43.58"/>
<polygon fill="black" stroke="black" points="92.23,-43.62 90.13,-37.62 88.03,-43.62 92.23,-43.62"/>
</g>
<!-- ext_Trans_Newtonian_Technology -->
<g id="node10" class="node">
<title>ext_Trans_Newtonian_Technology</title>
<path fill="#f0f0f0" stroke="black" stroke-dasharray="5,2" d="M146.12,-684C146.12,-684 34.12,-684 34.12,-684 28.12,-684 22.12,-678 22.12,-672 22.12,-672 22.12,-660 22.12,-660 22.12,-654 28.12,-648 34.12,-648 34.12,-648 146.12,-648 146.12,-648 152.12,-648 158.12,-654 158.12,-660 158.12,-660 158.12,-672 158.12,-672 158.12,-678 152.12,-684 146.12,-684"/>
<text xml:space="preserve" text-anchor="middle" x="90.12" y="-662.33" font-family="Helvetica,sans-Serif" font-size="9.00">Trans&#45;Newtonian Technology</text>
</g>
<!-- ext_Trans_Newtonian_Technology&#45;&gt;Colonization_Cost_Reduction_5_ -->
<g id="edge1" class="edge">
<title>ext_Trans_Newtonian_Technology&#45;&gt;Colonization_Cost_Reduction_5_</title>
<path fill="none" stroke="black" d="M90.12,-647.7C90.12,-639.22 90.12,-628.86 90.12,-619.58"/>
<polygon fill="black" stroke="black" points="92.23,-619.62 90.13,-613.62 88.03,-619.62 92.23,-619.62"/>
</g>
</g>
</svg>
