<?xml version="1.0" encoding="UTF-8" standalone="no"?>
<!DOCTYPE svg PUBLIC "-//W3C//DTD SVG 1.1//EN"
 "http://www.w3.org/Graphics/SVG/1.1/DTD/svg11.dtd">
<!-- Generated by graphviz version 14.1.2 (20260124.0452)
 -->
<!-- Title: TechTree Pages: 1 -->
<svg width="209pt" height="587pt"
 viewBox="0.00 0.00 209.00 587.00" xmlns="http://www.w3.org/2000/svg" xmlns:xlink="http://www.w3.org/1999/xlink">
<g id="graph0" class="graph" transform="scale(1 1) rotate(0) translate(4 583)">
<title>TechTree</title>
<polygon fill="white" stroke="none" points="-4,4 -4,-583 204.5,-583 204.5,4 -4,4"/>
<text xml:space="preserve" text-anchor="middle" x="100.25" y="-561.7" font-family="Helvetica,sans-Serif" font-weight="bold" font-size="14.00">Colonization Cost Reduction</text>
<!-- Colonization_Cost_Reduction_5_ -->
<g id="node1" class="node">
<title>Colonization_Cost_Reduction_5_</title>
<path fill="#cce5ff" stroke="black" d="M167.5,-556C167.5,-556 33,-556 33,-556 27,-556 21,-550 21,-544 21,-544 21,-532 21,-532 21,-526 27,-520 33,-520 33,-520 167.5,-520 167.5,-520 173.5,-520 179.5,-526 179.5,-532 179.5,-532 179.5,-544 179.5,-544 179.5,-550 173.5,-556 167.5,-556"/>
<text xml:space="preserve" text-anchor="middle" x="100.25" y="-539.75" font-family="Helvetica,sans-Serif" font-size="10.00">Colonization Cost Reduction 5%</text>
<text xml:space="preserve" text-anchor="middle" x="100.25" y="-528.5" font-family="Helvetica,sans-Serif" font-size="10.00">5K RP</text>
</g>
<!-- Colonization_Cost_Reduction_10 -->
<g id="node2" class="node">
<title>Colonization_Cost_Reduction_10</title>
<path fill="#cce5ff" stroke="black" d="M170.12,-491C170.12,-491 30.37,-491 30.37,-491 24.38,-491 18.38,-485 18.38,-479 18.38,-479 18.38,-467 18.38,-467 18.38,-461 24.38,-455 30.38,-455 30.38,-455 170.12,-455 170.12,-455 176.12,-455 182.12,-461 182.12,-467 182.12,-467 182.12,-479 182.12,-479 182.12,-485 176.12,-491 170.12,-491"/>
<text xml:space="preserve" text-anchor="middle" x="100.25" y="-474.75" font-family="Helvetica,sans-Serif" font-size="10.00">Colonization Cost Reduction 10%</text>
<text xml:space="preserve" text-anchor="middle" x="100.25" y="-463.5" font-family="Helvetica,sans-Serif" font-size="10.00">10K RP</text>
</g>
<!-- Colonization_Cost_Reduction_5_&#45;&gt;Colonization_Cost_Reduction_10 -->
<g id="edge1" class="edge">
<title>Colonization_Cost_Reduction_5_&#45;&gt;Colonization_Cost_Reduction_10</title>
<path fill="none" stroke="black" d="M100.25,-519.78C100.25,-513.53 100.25,-506.33 100.25,-499.52"/>
<polygon fill="black" stroke="black" points="102.7,-499.71 100.25,-492.71 97.8,-499.71 102.7,-499.71"/>
</g>
<!-- Colonization_Cost_Reduction_15 -->
<g id="node3" class="node">
<title>Colonization_Cost_Reduction_15</title>
<path fill="#fff3cd" stroke="black" d="M170.12,-426C170.12,-426 30.37,-426 30.37,-426 24.38,-426 18.38,-420 18.38,-414 18.38,-414 18.38,-402 18.38,-402 18.38,-396 24.38,-390 30.38,-390 30.38,-390 170.12,-390 170.12,-390 176.12,-390 182.12,-396 182.12,-402 182.12,-402 182.12,-414 182.12,-414 182.12,-420 176.12,-426 170.12,-426"/>
<text xml:space="preserve" text-anchor="middle" x="100.25" y="-409.75" font-family="Helvetica,sans-Serif" font-size="10.00">Colonization Cost Reduction 15%</text>
<text xml:space="preserve" text-anchor="middle" x="100.25" y="-398.5" font-family="Helvetica,sans-Serif" font-size="10.00">20K RP</text>
</g>
<!-- Colonization_Cost_Reduction_10&#45;&gt;Colonization_Cost_Reduction_15 -->
<g id="edge2" class="edge">
<title>Colonization_Cost_Reduction_10&#45;&gt;Colonization_Cost_Reduction_15</title>
<path fill="none" stroke="black" d="M100.25,-454.78C100.25,-448.53 100.25,-441.33 100.25,-434.52"/>
<polygon fill="black" stroke="black" points="102.7,-434.71 100.25,-427.71 97.8,-434.71 102.7,-434.71"/>
</g>
<!-- Colonization_Cost_Reduction_20 -->
<g id="node4" class="node">
<title>Colonization_Cost_Reduction_20</title>
<path fill="#fff3cd" stroke="black" d="M170.12,-361C170.12,-361 30.37,-361 30.37,-361 24.38,-361 18.38,-355 18.38,-349 18.38,-349 18.38,-337 18.38,-337 18.38,-331 24.38,-325 30.38,-325 30.38,-325 170.12,-325 170.12,-325 176.12,-325 182.12,-331 182.12,-337 182.12,-337 182.12,-349 182.12,-349 182.12,-355 176.12,-361 170.12,-361"/>
<text xml:space="preserve" text-anchor="middle" x="100.25" y="-344.75" font-family="Helvetica,sans-Serif" font-size="10.00">Colonization Cost Reduction 20%</text>
<text xml:space="preserve" text-anchor="middle" x="100.25" y="-333.5" font-family="Helvetica,sans-Serif" font-size="10.00">40K RP</text>
</g>
<!-- Colonization_Cost_Reduction_15&#45;&gt;Colonization_Cost_Reduction_20 -->
<g id="edge3" class="edge">
<title>Colonization_Cost_Reduction_15&#45;&gt;Colonization_Cost_Reduction_20</title>
<path fill="none" stroke="black" d="M100.25,-389.78C100.25,-383.53 100.25,-376.33 100.25,-369.52"/>
<polygon fill="black" stroke="black" points="102.7,-369.71 100.25,-362.71 97.8,-369.71 102.7,-369.71"/>
</g>
<!-- Colonization_Cost_Reduction_25 -->
<g id="node5" class="node">
<title>Colonization_Cost_Reduction_25</title>
<path fill="#fff3cd" stroke="black" d="M170.12,-296C170.12,-296 30.37,-296 30.37,-296 24.38,-296 18.38,-290 18.38,-284 18.38,-284 18.38,-272 18.38,-272 18.38,-266 24.38,-260 30.38,-260 30.38,-260 170.12,-260 170.12,-260 176.12,-260 182.12,-266 182.12,-272 182.12,-272 182.12,-284 182.12,-284 182.12,-290 176.12,-296 170.12,-296"/>
<text xml:space="preserve" text-anchor="middle" x="100.25" y="-279.75" font-family="Helvetica,sans-Serif" font-size="10.00">Colonization Cost Reduction 25%</text>
<text xml:space="preserve" text-anchor="middle" x="100.25" y="-268.5" font-family="Helvetica,sans-Serif" font-size="10.00">80K RP</text>
</g>
<!-- Colonization_Cost_Reduction_20&#45;&gt;Colonization_Cost_Reduction_25 -->
<g id="edge4" class="edge">
<title>Colonization_Cost_Reduction_20&#45;&gt;Colonization_Cost_Reduction_25</title>
<path fill="none" stroke="black" d="M100.25,-324.78C100.25,-318.53 100.25,-311.33 100.25,-304.52"/>
<polygon fill="black" stroke="black" points="102.7,-304.71 100.25,-297.71 97.8,-304.71 102.7,-304.71"/>
</g>
<!-- Colonization_Cost_Reduction_30 -->
<g id="node6" class="node">
<title>Colonization_Cost_Reduction_30</title>
<path fill="#d4c4fb" stroke="black" d="M170.12,-231C170.12,-231 30.37,-231 30.37,-231 24.38,-231 18.38,-225 18.38,-219 18.38,-219 18.38,-207 18.38,-207 18.38,-201 24.38,-195 30.38,-195 30.38,-195 170.12,-195 170.12,-195 176.12,-195 182.12,-201 182.12,-207 182.12,-207 182.12,-219 182.12,-219 182.12,-225 176.12,-231 170.12,-231"/>
<text xml:space="preserve" text-anchor="middle" x="100.25" y="-214.75" font-family="Helvetica,sans-Serif" font-size="10.00">Colonization Cost Reduction 30%</text>
<text xml:space="preserve" text-anchor="middle" x="100.25" y="-203.5" font-family="Helvetica,sans-Serif" font-size="10.00">150K RP</text>
</g>
<!-- Colonization_Cost_Reduction_25&#45;&gt;Colonization_Cost_Reduction_30 -->
<g id="edge5" class="edge">
<title>Colonization_Cost_Reduction_25&#45;&gt;Colonization_Cost_Reduction_30</title>
<path fill="none" stroke="black" d="M100.25,-259.78C100.25,-253.53 100.25,-246.33 100.25,-239.52"/>
<polygon fill="black" stroke="black" points="102.7,-239.71 100.25,-232.71 97.8,-239.71 102.7,-239.71"/>
</g>
<!-- Colonization_Cost_Reduction_35 -->
<g id="node7" class="node">
<title>Colonization_Cost_Reduction_35</title>
<path fill="#d4c4fb" stroke="black" d="M170.12,-166C170.12,-166 30.37,-166 30.37,-166 24.38,-166 18.38,-160 18.38,-154 18.38,-154 18.38,-142 18.38,-142 18.38,-136 24.38,-130 30.38,-130 30.38,-130 170.12,-130 170.12,-130 176.12,-130 182.12,-136 182.12,-142 182.12,-142 182.12,-154 182.12,-154 182.12,-160 176.12,-166 170.12,-166"/>
<text xml:space="preserve" text-anchor="middle" x="100.25" y="-149.75" font-family="Helvetica,sans-Serif" font-size="10.00">Colonization Cost Reduction 35%</text>
<text xml:space="preserve" text-anchor="middle" x="100.25" y="-138.5" font-family="Helvetica,sans-Serif" font-size="10.00">300K RP</text>
</g>
<!-- Colonization_Cost_Reduction_30&#45;&gt;Colonization_Cost_Reduction_35 -->
<g id="edge6" class="edge">
<title>Colonization_Cost_Reduction_30&#45;&gt;Colonization_Cost_Reduction_35</title>
<path fill="none" stroke="black" d="M100.25,-194.78C100.25,-188.53 100.25,-181.33 100.25,-174.52"/>
<polygon fill="black" stroke="black" points="102.7,-174.71 100.25,-167.71 97.8,-174.71 102.7,-174.71"/>
</g>
<!-- Colonization_Cost_Reduction_40 -->
<g id="node8" class="node">
<title>Colonization_Cost_Reduction_40</title>
<path fill="#d4c4fb" stroke="black" d="M170.12,-101C170.12,-101 30.37,-101 30.37,-101 24.38,-101 18.38,-95 18.38,-89 18.38,-89 18.38,-77 18.38,-77 18.38,-71 24.38,-65 30.38,-65 30.38,-65 170.12,-65 170.12,-65 176.12,-65 182.12,-71 182.12,-77 182.12,-77 182.12,-89 182.12,-89 182.12,-95 176.12,-101 170.12,-101"/>
<text xml:space="preserve" text-anchor="middle" x="100.25" y="-84.75" font-family="Helvetica,sans-Serif" font-size="10.00">Colonization Cost Reduction 40%</text>
<text xml:space="preserve" text-anchor="middle" x="100.25" y="-73.5" font-family="Helvetica,sans-Serif" font-size="10.00">600K RP</text>
</g>
<!-- Colonization_Cost_Reduction_35&#45;&gt;Colonization_Cost_Reduction_40 -->
<g id="edge7" class="edge">
<title>Colonization_Cost_Reduction_35&#45;&gt;Colonization_Cost_Reduction_40</title>
<path fill="none" stroke="black" d="M100.25,-129.78C100.25,-123.53 100.25,-116.33 100.25,-109.52"/>
<polygon fill="black" stroke="black" points="102.7,-109.71 100.25,-102.71 97.8,-109.71 102.7,-109.71"/>
</g>
<!-- Colonization_Cost_Reduction_50 -->
<g id="node9" class="node">
<title>Colonization_Cost_Reduction_50</title>
<path fill="#f8d7da" stroke="black" d="M170.12,-36C170.12,-36 30.37,-36 30.37,-36 24.38,-36 18.38,-30 18.38,-24 18.38,-24 18.38,-12 18.38,-12 18.38,-6 24.38,0 30.38,0 30.38,0 170.12,0 170.12,0 176.12,0 182.12,-6 182.12,-12 182.12,-12 182.12,-24 182.12,-24 182.12,-30 176.12,-36 170.12,-36"/>
<text xml:space="preserve" text-anchor="middle" x="100.25" y="-19.75" font-family="Helvetica,sans-Serif" font-size="10.00">Colonization Cost Reduction 50%</text>
<text xml:space="preserve" text-anchor="middle" x="100.25" y="-8.5" font-family="Helvetica,sans-Serif" font-size="10.00">1.2M RP</text>
</g>
<!-- Colonization_Cost_Reduction_40&#45;&gt;Colonization_Cost_Reduction_50 -->
<g id="edge8" class="edge">
<title>Colonization_Cost_Reduction_40&#45;&gt;Colonization_Cost_Reduction_50</title>
<path fill="none" stroke="black" d="M100.25,-64.78C100.25,-58.53 100.25,-51.33 100.25,-44.52"/>
<polygon fill="black" stroke="black" points="102.7,-44.71 100.25,-37.71 97.8,-44.71 102.7,-44.71"/>
</g>
</g>
</svg>
