<?xml version="1.0" encoding="UTF-8" standalone="no"?>
<!DOCTYPE svg PUBLIC "-//W3C//DTD SVG 1.1//EN"
 "http://www.w3.org/Graphics/SVG/1.1/DTD/svg11.dtd">
<!-- Generated by graphviz version 14.1.2 (20260124.0452)
 -->
<!-- Title: TechTree Pages: 1 -->
<svg width="201pt" height="137pt"
 viewBox="0.00 0.00 201.00 137.00" xmlns="http://www.w3.org/2000/svg" xmlns:xlink="http://www.w3.org/1999/xlink">
<g id="graph0" class="graph" transform="scale(1 1) rotate(0) translate(4 132.75)">
<title>TechTree</title>
<polygon fill="white" stroke="none" points="-4,4 -4,-132.75 196.62,-132.75 196.62,4 -4,4"/>
<text xml:space="preserve" text-anchor="middle" x="96.31" y="-113.35" font-family="Helvetica,sans-Serif" font-weight="bold" font-size="12.00">Commercial Magazine</text>
<!-- Commercial_Magazine___Capacity -->
<g id="node1" class="node">
<title>Commercial_Magazine___Capacity</title>
<path fill="#cce5ff" stroke="black" d="M162.62,-36C162.62,-36 16.87,-36 16.87,-36 10.87,-36 4.88,-30 4.88,-24 4.88,-24 4.88,-12 4.88,-12 4.88,-6 10.88,0 16.88,0 16.88,0 162.62,0 162.62,0 168.62,0 174.62,-6 174.62,-12 174.62,-12 174.62,-24 174.62,-24 174.62,-30 168.62,-36 162.62,-36"/>
<text xml:space="preserve" text-anchor="middle" x="89.75" y="-19.2" font-family="Helvetica,sans-Serif" font-size="9.00">Commercial Magazine &#45; Capacity 500</text>
<text xml:space="preserve" text-anchor="middle" x="89.75" y="-9.45" font-family="Helvetica,sans-Serif" font-size="9.00">5K RP</text>
</g>
<!-- Commercial_Magazine___Capacity&#45;&gt;Commercial_Magazine___Capacity -->
<g id="edge2" class="edge">
<title>Commercial_Magazine___Capacity&#45;&gt;Commercial_Magazine___Capacity</title>
<path fill="none" stroke="black" d="M174.9,-29.76C185.59,-27.68 192.62,-23.77 192.62,-18 192.62,-13.59 188.5,-10.25 181.77,-8"/>
<polygon fill="black" stroke="black" points="182.7,-6.07 176.36,-6.62 181.65,-10.14 182.7,-6.07"/>
</g>
<!-- ext_Magazine_Feed_System_Efficienc -->
<g id="node2" class="node">
<title>ext_Magazine_Feed_System_Efficienc</title>
<path fill="#f0f0f0" stroke="black" stroke-dasharray="5,2" d="M167.5,-108C167.5,-108 12,-108 12,-108 6,-108 0,-102 0,-96 0,-96 0,-84 0,-84 0,-78 6,-72 12,-72 12,-72 167.5,-72 167.5,-72 173.5,-72 179.5,-78 179.5,-84 179.5,-84 179.5,-96 179.5,-96 179.5,-102 173.5,-108 167.5,-108"/>
<text xml:space="preserve" text-anchor="middle" x="89.75" y="-86.33" font-family="Helvetica,sans-Serif" font-size="9.00">Magazine Feed System Efficiency &#45; 75%</text>
</g>
<!-- ext_Magazine_Feed_System_Efficienc&#45;&gt;Commercial_Magazine___Capacity -->
<g id="edge1" class="edge">
<title>ext_Magazine_Feed_System_Efficienc&#45;&gt;Commercial_Magazine___Capacity</title>
<path fill="none" stroke="black" d="M89.75,-71.7C89.75,-63.22 89.75,-52.86 89.75,-43.58"/>
<polygon fill="black" stroke="black" points="91.85,-43.62 89.75,-37.62 87.65,-43.62 91.85,-43.62"/>
</g>
</g>
</svg>
