<?xml version="1.0" encoding="UTF-8" standalone="no"?>
<!DOCTYPE svg PUBLIC "-//W3C//DTD SVG 1.1//EN"
 "http://www.w3.org/Graphics/SVG/1.1/DTD/svg11.dtd">
<!-- Generated by graphviz version 14.1.2 (20260124.0452)
 -->
<!-- Title: TechTree Pages: 1 -->
<svg width="663pt" height="137pt"
 viewBox="0.00 0.00 663.00 137.00" xmlns="http://www.w3.org/2000/svg" xmlns:xlink="http://www.w3.org/1999/xlink">
<g id="graph0" class="graph" transform="scale(1 1) rotate(0) translate(4 132.75)">
<title>TechTree</title>
<polygon fill="white" stroke="none" points="-4,4 -4,-132.75 659,-132.75 659,4 -4,4"/>
<text xml:space="preserve" text-anchor="middle" x="327.5" y="-113.35" font-family="Helvetica,sans-Serif" font-weight="bold" font-size="12.00">Command and Control</text>
<!-- Bridge -->
<g id="node1" class="node">
<title>Bridge</title>
<path fill="#d4edda" stroke="black" d="M302.75,-108C302.75,-108 272.75,-108 272.75,-108 266.75,-108 260.75,-102 260.75,-96 260.75,-96 260.75,-84 260.75,-84 260.75,-78 266.75,-72 272.75,-72 272.75,-72 302.75,-72 302.75,-72 308.75,-72 314.75,-78 314.75,-84 314.75,-84 314.75,-96 314.75,-96 314.75,-102 308.75,-108 302.75,-108"/>
<text xml:space="preserve" text-anchor="middle" x="287.75" y="-91.2" font-family="Helvetica,sans-Serif" font-size="9.00">Bridge</text>
<text xml:space="preserve" text-anchor="middle" x="287.75" y="-81.45" font-family="Helvetica,sans-Serif" font-size="9.00">100 RP</text>
</g>
<!-- Auxiliary_Control -->
<g id="node2" class="node">
<title>Auxiliary_Control</title>
<path fill="#cce5ff" stroke="black" d="M71.5,-36C71.5,-36 12,-36 12,-36 6,-36 0,-30 0,-24 0,-24 0,-12 0,-12 0,-6 6,0 12,0 12,0 71.5,0 71.5,0 77.5,0 83.5,-6 83.5,-12 83.5,-12 83.5,-24 83.5,-24 83.5,-30 77.5,-36 71.5,-36"/>
<text xml:space="preserve" text-anchor="middle" x="41.75" y="-19.2" font-family="Helvetica,sans-Serif" font-size="9.00">Auxiliary Control</text>
<text xml:space="preserve" text-anchor="middle" x="41.75" y="-9.45" font-family="Helvetica,sans-Serif" font-size="9.00">1K RP</text>
</g>
<!-- Bridge&#45;&gt;Auxiliary_Control -->
<g id="edge1" class="edge">
<title>Bridge&#45;&gt;Auxiliary_Control</title>
<path fill="none" stroke="black" d="M260.32,-82.17C222.28,-72.57 151.43,-54.19 91.75,-36 91.43,-35.9 91.11,-35.81 90.79,-35.71"/>
<polygon fill="black" stroke="black" points="91.77,-33.81 85.42,-34.02 90.51,-37.82 91.77,-33.81"/>
</g>
<!-- Flag_Bridge -->
<g id="node3" class="node">
<title>Flag_Bridge</title>
<path fill="#cce5ff" stroke="black" d="M152.38,-36C152.38,-36 113.12,-36 113.12,-36 107.12,-36 101.12,-30 101.12,-24 101.12,-24 101.12,-12 101.12,-12 101.12,-6 107.12,0 113.12,0 113.12,0 152.38,0 152.38,0 158.38,0 164.38,-6 164.38,-12 164.38,-12 164.38,-24 164.38,-24 164.38,-30 158.38,-36 152.38,-36"/>
<text xml:space="preserve" text-anchor="middle" x="132.75" y="-19.2" font-family="Helvetica,sans-Serif" font-size="9.00">Flag Bridge</text>
<text xml:space="preserve" text-anchor="middle" x="132.75" y="-9.45" font-family="Helvetica,sans-Serif" font-size="9.00">2K RP</text>
</g>
<!-- Bridge&#45;&gt;Flag_Bridge -->
<g id="edge2" class="edge">
<title>Bridge&#45;&gt;Flag_Bridge</title>
<path fill="none" stroke="black" d="M260.4,-76.65C235.72,-65.5 199.16,-48.99 171.48,-36.49"/>
<polygon fill="black" stroke="black" points="172.36,-34.58 166.03,-34.03 170.63,-38.41 172.36,-34.58"/>
</g>
<!-- Science_Department -->
<g id="node4" class="node">
<title>Science_Department</title>
<path fill="#cce5ff" stroke="black" d="M269.38,-36C269.38,-36 194.12,-36 194.12,-36 188.12,-36 182.12,-30 182.12,-24 182.12,-24 182.12,-12 182.12,-12 182.12,-6 188.12,0 194.12,0 194.12,0 269.38,0 269.38,0 275.38,0 281.38,-6 281.38,-12 281.38,-12 281.38,-24 281.38,-24 281.38,-30 275.38,-36 269.38,-36"/>
<text xml:space="preserve" text-anchor="middle" x="231.75" y="-19.2" font-family="Helvetica,sans-Serif" font-size="9.00">Science Department</text>
<text xml:space="preserve" text-anchor="middle" x="231.75" y="-9.45" font-family="Helvetica,sans-Serif" font-size="9.00">4K RP</text>
</g>
<!-- Bridge&#45;&gt;Science_Department -->
<g id="edge3" class="edge">
<title>Bridge&#45;&gt;Science_Department</title>
<path fill="none" stroke="black" d="M273.91,-71.7C266.72,-62.71 257.84,-51.61 250.09,-41.92"/>
<polygon fill="black" stroke="black" points="251.77,-40.66 246.38,-37.29 248.49,-43.28 251.77,-40.66"/>
</g>
<!-- Main_Engineering -->
<g id="node5" class="node">
<title>Main_Engineering</title>
<path fill="#cce5ff" stroke="black" d="M376.12,-36C376.12,-36 311.38,-36 311.38,-36 305.38,-36 299.38,-30 299.38,-24 299.38,-24 299.38,-12 299.38,-12 299.38,-6 305.38,0 311.38,0 311.38,0 376.12,0 376.12,0 382.12,0 388.12,-6 388.12,-12 388.12,-12 388.12,-24 388.12,-24 388.12,-30 382.12,-36 376.12,-36"/>
<text xml:space="preserve" text-anchor="middle" x="343.75" y="-19.2" font-family="Helvetica,sans-Serif" font-size="9.00">Main Engineering</text>
<text xml:space="preserve" text-anchor="middle" x="343.75" y="-9.45" font-family="Helvetica,sans-Serif" font-size="9.00">6K RP</text>
</g>
<!-- Bridge&#45;&gt;Main_Engineering -->
<g id="edge4" class="edge">
<title>Bridge&#45;&gt;Main_Engineering</title>
<path fill="none" stroke="black" d="M301.59,-71.7C308.78,-62.71 317.66,-51.61 325.41,-41.92"/>
<polygon fill="black" stroke="black" points="327.01,-43.28 329.12,-37.29 323.73,-40.66 327.01,-43.28"/>
</g>
<!-- Combat_Information_Centre -->
<g id="node6" class="node">
<title>Combat_Information_Centre</title>
<path fill="#cce5ff" stroke="black" d="M520.88,-36C520.88,-36 418.62,-36 418.62,-36 412.62,-36 406.62,-30 406.62,-24 406.62,-24 406.62,-12 406.62,-12 406.62,-6 412.62,0 418.62,0 418.62,0 520.88,0 520.88,0 526.88,0 532.88,-6 532.88,-12 532.88,-12 532.88,-24 532.88,-24 532.88,-30 526.88,-36 520.88,-36"/>
<text xml:space="preserve" text-anchor="middle" x="469.75" y="-19.2" font-family="Helvetica,sans-Serif" font-size="9.00">Combat Information Centre</text>
<text xml:space="preserve" text-anchor="middle" x="469.75" y="-9.45" font-family="Helvetica,sans-Serif" font-size="9.00">8K RP</text>
</g>
<!-- Bridge&#45;&gt;Combat_Information_Centre -->
<g id="edge5" class="edge">
<title>Bridge&#45;&gt;Combat_Information_Centre</title>
<path fill="none" stroke="black" d="M315,-78.52C341.94,-68.16 383.86,-52.03 417.28,-39.18"/>
<polygon fill="black" stroke="black" points="418.01,-41.15 422.86,-37.03 416.51,-37.23 418.01,-41.15"/>
</g>
<!-- Primary_Flight_Control -->
<g id="node7" class="node">
<title>Primary_Flight_Control</title>
<path fill="#cce5ff" stroke="black" d="M643,-36C643,-36 562.5,-36 562.5,-36 556.5,-36 550.5,-30 550.5,-24 550.5,-24 550.5,-12 550.5,-12 550.5,-6 556.5,0 562.5,0 562.5,0 643,0 643,0 649,0 655,-6 655,-12 655,-12 655,-24 655,-24 655,-30 649,-36 643,-36"/>
<text xml:space="preserve" text-anchor="middle" x="602.75" y="-19.2" font-family="Helvetica,sans-Serif" font-size="9.00">Primary Flight Control</text>
<text xml:space="preserve" text-anchor="middle" x="602.75" y="-9.45" font-family="Helvetica,sans-Serif" font-size="9.00">10K RP</text>
</g>
<!-- Bridge&#45;&gt;Primary_Flight_Control -->
<g id="edge6" class="edge">
<title>Bridge&#45;&gt;Primary_Flight_Control</title>
<path fill="none" stroke="black" d="M314.95,-83.94C361.57,-75.12 459.68,-55.97 541.75,-36 542.18,-35.89 542.62,-35.79 543.06,-35.68"/>
<polygon fill="black" stroke="black" points="543.46,-37.74 548.77,-34.24 542.44,-33.67 543.46,-37.74"/>
</g>
</g>
</svg>
