<?xml version="1.0" encoding="UTF-8" standalone="no"?>
<!DOCTYPE svg PUBLIC "-//W3C//DTD SVG 1.1//EN"
 "http://www.w3.org/Graphics/SVG/1.1/DTD/svg11.dtd">
<!-- Generated by graphviz version 14.1.2 (20260124.0452)
 -->
<!-- Title: TechTree Pages: 1 -->
<svg width="714pt" height="132pt"
 viewBox="0.00 0.00 714.00 132.00" xmlns="http://www.w3.org/2000/svg" xmlns:xlink="http://www.w3.org/1999/xlink">
<g id="graph0" class="graph" transform="scale(1 1) rotate(0) translate(4 128)">
<title>TechTree</title>
<polygon fill="white" stroke="none" points="-4,4 -4,-128 709.62,-128 709.62,4 -4,4"/>
<text xml:space="preserve" text-anchor="middle" x="352.81" y="-106.7" font-family="Helvetica,sans-Serif" font-weight="bold" font-size="14.00">Command and Control</text>
<!-- Bridge -->
<g id="node1" class="node">
<title>Bridge</title>
<path fill="#d4edda" stroke="black" d="M325,-101C325,-101 295,-101 295,-101 289,-101 283,-95 283,-89 283,-89 283,-77 283,-77 283,-71 289,-65 295,-65 295,-65 325,-65 325,-65 331,-65 337,-71 337,-77 337,-77 337,-89 337,-89 337,-95 331,-101 325,-101"/>
<text xml:space="preserve" text-anchor="middle" x="310" y="-84.75" font-family="Helvetica,sans-Serif" font-size="10.00">Bridge</text>
<text xml:space="preserve" text-anchor="middle" x="310" y="-73.5" font-family="Helvetica,sans-Serif" font-size="10.00">100 RP</text>
</g>
<!-- Auxiliary_Control -->
<g id="node2" class="node">
<title>Auxiliary_Control</title>
<path fill="#cce5ff" stroke="black" d="M76,-36C76,-36 12,-36 12,-36 6,-36 0,-30 0,-24 0,-24 0,-12 0,-12 0,-6 6,0 12,0 12,0 76,0 76,0 82,0 88,-6 88,-12 88,-12 88,-24 88,-24 88,-30 82,-36 76,-36"/>
<text xml:space="preserve" text-anchor="middle" x="44" y="-19.75" font-family="Helvetica,sans-Serif" font-size="10.00">Auxiliary Control</text>
<text xml:space="preserve" text-anchor="middle" x="44" y="-8.5" font-family="Helvetica,sans-Serif" font-size="10.00">1K RP</text>
</g>
<!-- Bridge&#45;&gt;Auxiliary_Control -->
<g id="edge1" class="edge">
<title>Bridge&#45;&gt;Auxiliary_Control</title>
<path fill="none" stroke="black" d="M282.51,-76.78C242.07,-68.93 164.27,-53.17 99,-36 98.13,-35.77 97.25,-35.54 96.37,-35.3"/>
<polygon fill="black" stroke="black" points="97.19,-32.98 89.79,-33.46 95.88,-37.7 97.19,-32.98"/>
</g>
<!-- Flag_Bridge -->
<g id="node3" class="node">
<title>Flag_Bridge</title>
<path fill="#cce5ff" stroke="black" d="M163.75,-36C163.75,-36 122.25,-36 122.25,-36 116.25,-36 110.25,-30 110.25,-24 110.25,-24 110.25,-12 110.25,-12 110.25,-6 116.25,0 122.25,0 122.25,0 163.75,0 163.75,0 169.75,0 175.75,-6 175.75,-12 175.75,-12 175.75,-24 175.75,-24 175.75,-30 169.75,-36 163.75,-36"/>
<text xml:space="preserve" text-anchor="middle" x="143" y="-19.75" font-family="Helvetica,sans-Serif" font-size="10.00">Flag Bridge</text>
<text xml:space="preserve" text-anchor="middle" x="143" y="-8.5" font-family="Helvetica,sans-Serif" font-size="10.00">2K RP</text>
</g>
<!-- Bridge&#45;&gt;Flag_Bridge -->
<g id="edge2" class="edge">
<title>Bridge&#45;&gt;Flag_Bridge</title>
<path fill="none" stroke="black" d="M282.85,-72.12C257.68,-62.91 219.23,-48.73 186,-36 185.18,-35.68 184.34,-35.36 183.5,-35.04"/>
<polygon fill="black" stroke="black" points="184.66,-32.86 177.25,-32.61 182.89,-37.43 184.66,-32.86"/>
</g>
<!-- Science_Department -->
<g id="node4" class="node">
<title>Science_Department</title>
<path fill="#cce5ff" stroke="black" d="M290.62,-36C290.62,-36 209.38,-36 209.38,-36 203.38,-36 197.38,-30 197.38,-24 197.38,-24 197.38,-12 197.38,-12 197.38,-6 203.38,0 209.38,0 209.38,0 290.62,0 290.62,0 296.62,0 302.62,-6 302.62,-12 302.62,-12 302.62,-24 302.62,-24 302.62,-30 296.62,-36 290.62,-36"/>
<text xml:space="preserve" text-anchor="middle" x="250" y="-19.75" font-family="Helvetica,sans-Serif" font-size="10.00">Science Department</text>
<text xml:space="preserve" text-anchor="middle" x="250" y="-8.5" font-family="Helvetica,sans-Serif" font-size="10.00">4K RP</text>
</g>
<!-- Bridge&#45;&gt;Science_Department -->
<g id="edge3" class="edge">
<title>Bridge&#45;&gt;Science_Department</title>
<path fill="none" stroke="black" d="M293.6,-64.78C286.99,-57.84 279.26,-49.72 272.15,-42.26"/>
<polygon fill="black" stroke="black" points="274.02,-40.67 267.42,-37.29 270.47,-44.05 274.02,-40.67"/>
</g>
<!-- Main_Engineering -->
<g id="node5" class="node">
<title>Main_Engineering</title>
<path fill="#cce5ff" stroke="black" d="M403.5,-36C403.5,-36 336.5,-36 336.5,-36 330.5,-36 324.5,-30 324.5,-24 324.5,-24 324.5,-12 324.5,-12 324.5,-6 330.5,0 336.5,0 336.5,0 403.5,0 403.5,0 409.5,0 415.5,-6 415.5,-12 415.5,-12 415.5,-24 415.5,-24 415.5,-30 409.5,-36 403.5,-36"/>
<text xml:space="preserve" text-anchor="middle" x="370" y="-19.75" font-family="Helvetica,sans-Serif" font-size="10.00">Main Engineering</text>
<text xml:space="preserve" text-anchor="middle" x="370" y="-8.5" font-family="Helvetica,sans-Serif" font-size="10.00">6K RP</text>
</g>
<!-- Bridge&#45;&gt;Main_Engineering -->
<g id="edge4" class="edge">
<title>Bridge&#45;&gt;Main_Engineering</title>
<path fill="none" stroke="black" d="M326.4,-64.78C333.01,-57.84 340.74,-49.72 347.85,-42.26"/>
<polygon fill="black" stroke="black" points="349.53,-44.05 352.58,-37.29 345.98,-40.67 349.53,-44.05"/>
</g>
<!-- Combat_Information_Centre -->
<g id="node6" class="node">
<title>Combat_Information_Centre</title>
<path fill="#cce5ff" stroke="black" d="M560.25,-36C560.25,-36 449.75,-36 449.75,-36 443.75,-36 437.75,-30 437.75,-24 437.75,-24 437.75,-12 437.75,-12 437.75,-6 443.75,0 449.75,0 449.75,0 560.25,0 560.25,0 566.25,0 572.25,-6 572.25,-12 572.25,-12 572.25,-24 572.25,-24 572.25,-30 566.25,-36 560.25,-36"/>
<text xml:space="preserve" text-anchor="middle" x="505" y="-19.75" font-family="Helvetica,sans-Serif" font-size="10.00">Combat Information Centre</text>
<text xml:space="preserve" text-anchor="middle" x="505" y="-8.5" font-family="Helvetica,sans-Serif" font-size="10.00">8K RP</text>
</g>
<!-- Bridge&#45;&gt;Combat_Information_Centre -->
<g id="edge5" class="edge">
<title>Bridge&#45;&gt;Combat_Information_Centre</title>
<path fill="none" stroke="black" d="M337.11,-73.24C364.36,-64.44 407.29,-50.57 442.93,-39.05"/>
<polygon fill="black" stroke="black" points="443.53,-41.43 449.44,-36.95 442.02,-36.77 443.53,-41.43"/>
</g>
<!-- Primary_Flight_Control -->
<g id="node7" class="node">
<title>Primary_Flight_Control</title>
<path fill="#cce5ff" stroke="black" d="M693.62,-36C693.62,-36 606.38,-36 606.38,-36 600.38,-36 594.38,-30 594.38,-24 594.38,-24 594.38,-12 594.38,-12 594.38,-6 600.38,0 606.38,0 606.38,0 693.62,0 693.62,0 699.62,0 705.62,-6 705.62,-12 705.62,-12 705.62,-24 705.62,-24 705.62,-30 699.62,-36 693.62,-36"/>
<text xml:space="preserve" text-anchor="middle" x="650" y="-19.75" font-family="Helvetica,sans-Serif" font-size="10.00">Primary Flight Control</text>
<text xml:space="preserve" text-anchor="middle" x="650" y="-8.5" font-family="Helvetica,sans-Serif" font-size="10.00">10K RP</text>
</g>
<!-- Bridge&#45;&gt;Primary_Flight_Control -->
<g id="edge6" class="edge">
<title>Bridge&#45;&gt;Primary_Flight_Control</title>
<path fill="none" stroke="black" d="M337.26,-78.16C386.54,-71.05 493.64,-54.83 583,-36 584.02,-35.78 585.06,-35.56 586.09,-35.34"/>
<polygon fill="black" stroke="black" points="586.37,-37.79 592.67,-33.87 585.3,-33 586.37,-37.79"/>
</g>
</g>
</svg>
