<?xml version="1.0" encoding="UTF-8" standalone="no"?>
<!DOCTYPE svg PUBLIC "-//W3C//DTD SVG 1.1//EN"
 "http://www.w3.org/Graphics/SVG/1.1/DTD/svg11.dtd">
<!-- Generated by graphviz version 14.1.2 (20260124.0452)
 -->
<!-- Title: TechTree Pages: 1 -->
<svg width="137pt" height="137pt"
 viewBox="0.00 0.00 137.00 137.00" xmlns="http://www.w3.org/2000/svg" xmlns:xlink="http://www.w3.org/1999/xlink">
<g id="graph0" class="graph" transform="scale(1 1) rotate(0) translate(4 132.75)">
<title>TechTree</title>
<polygon fill="white" stroke="none" points="-4,4 -4,-132.75 133.25,-132.75 133.25,4 -4,4"/>
<text xml:space="preserve" text-anchor="middle" x="64.62" y="-113.35" font-family="Helvetica,sans-Serif" font-weight="bold" font-size="12.00">Commercial Hangar</text>
<!-- Commercial_Hangar_Deck -->
<g id="node1" class="node">
<title>Commercial_Hangar_Deck</title>
<path fill="#cce5ff" stroke="black" d="M113.5,-36C113.5,-36 15.75,-36 15.75,-36 9.75,-36 3.75,-30 3.75,-24 3.75,-24 3.75,-12 3.75,-12 3.75,-6 9.75,0 15.75,0 15.75,0 113.5,0 113.5,0 119.5,0 125.5,-6 125.5,-12 125.5,-12 125.5,-24 125.5,-24 125.5,-30 119.5,-36 113.5,-36"/>
<text xml:space="preserve" text-anchor="middle" x="64.62" y="-19.2" font-family="Helvetica,sans-Serif" font-size="9.00">Commercial Hangar Deck</text>
<text xml:space="preserve" text-anchor="middle" x="64.62" y="-9.45" font-family="Helvetica,sans-Serif" font-size="9.00">4K RP</text>
</g>
<!-- ext_Hangar_Deck___Small -->
<g id="node2" class="node">
<title>ext_Hangar_Deck___Small</title>
<path fill="#f0f0f0" stroke="black" stroke-dasharray="5,2" d="M103,-108C103,-108 26.25,-108 26.25,-108 20.25,-108 14.25,-102 14.25,-96 14.25,-96 14.25,-84 14.25,-84 14.25,-78 20.25,-72 26.25,-72 26.25,-72 103,-72 103,-72 109,-72 115,-78 115,-84 115,-84 115,-96 115,-96 115,-102 109,-108 103,-108"/>
<text xml:space="preserve" text-anchor="middle" x="64.62" y="-86.33" font-family="Helvetica,sans-Serif" font-size="9.00">Hangar Deck &#45; Small</text>
</g>
<!-- ext_Hangar_Deck___Small&#45;&gt;Commercial_Hangar_Deck -->
<g id="edge1" class="edge">
<title>ext_Hangar_Deck___Small&#45;&gt;Commercial_Hangar_Deck</title>
<path fill="none" stroke="black" d="M64.62,-71.7C64.62,-63.22 64.62,-52.86 64.62,-43.58"/>
<polygon fill="black" stroke="black" points="66.73,-43.62 64.63,-37.62 62.53,-43.62 66.73,-43.62"/>
</g>
</g>
</svg>
