<?xml version="1.0" encoding="UTF-8" standalone="no"?>
<!DOCTYPE svg PUBLIC "-//W3C//DTD SVG 1.1//EN"
 "http://www.w3.org/Graphics/SVG/1.1/DTD/svg11.dtd">
<!-- Generated by graphviz version 14.1.2 (20260124.0452)
 -->
<!-- Title: TechTree Pages: 1 -->
<svg width="188pt" height="137pt"
 viewBox="0.00 0.00 188.00 137.00" xmlns="http://www.w3.org/2000/svg" xmlns:xlink="http://www.w3.org/1999/xlink">
<g id="graph0" class="graph" transform="scale(1 1) rotate(0) translate(4 132.75)">
<title>TechTree</title>
<polygon fill="white" stroke="none" points="-4,4 -4,-132.75 184.25,-132.75 184.25,4 -4,4"/>
<text xml:space="preserve" text-anchor="middle" x="90.12" y="-113.35" font-family="Helvetica,sans-Serif" font-weight="bold" font-size="12.00">Commercial Damage Control</text>
<!-- Commercial_Damage_Control -->
<g id="node1" class="node">
<title>Commercial_Damage_Control</title>
<path fill="#cce5ff" stroke="black" d="M145.75,-36C145.75,-36 34.5,-36 34.5,-36 28.5,-36 22.5,-30 22.5,-24 22.5,-24 22.5,-12 22.5,-12 22.5,-6 28.5,0 34.5,0 34.5,0 145.75,0 145.75,0 151.75,0 157.75,-6 157.75,-12 157.75,-12 157.75,-24 157.75,-24 157.75,-30 151.75,-36 145.75,-36"/>
<text xml:space="preserve" text-anchor="middle" x="90.12" y="-19.2" font-family="Helvetica,sans-Serif" font-size="9.00">Commercial Damage Control</text>
<text xml:space="preserve" text-anchor="middle" x="90.12" y="-9.45" font-family="Helvetica,sans-Serif" font-size="9.00">5K RP</text>
</g>
<!-- ext_Damage_Control -->
<g id="node2" class="node">
<title>ext_Damage_Control</title>
<path fill="#f0f0f0" stroke="black" stroke-dasharray="5,2" d="M119.88,-108C119.88,-108 60.38,-108 60.38,-108 54.38,-108 48.38,-102 48.38,-96 48.38,-96 48.38,-84 48.38,-84 48.38,-78 54.38,-72 60.38,-72 60.38,-72 119.88,-72 119.88,-72 125.88,-72 131.88,-78 131.88,-84 131.88,-84 131.88,-96 131.88,-96 131.88,-102 125.88,-108 119.88,-108"/>
<text xml:space="preserve" text-anchor="middle" x="90.12" y="-86.33" font-family="Helvetica,sans-Serif" font-size="9.00">Damage Control</text>
</g>
<!-- ext_Damage_Control&#45;&gt;Commercial_Damage_Control -->
<g id="edge1" class="edge">
<title>ext_Damage_Control&#45;&gt;Commercial_Damage_Control</title>
<path fill="none" stroke="black" d="M90.12,-71.7C90.12,-63.22 90.12,-52.86 90.12,-43.58"/>
<polygon fill="black" stroke="black" points="92.23,-43.62 90.13,-37.62 88.03,-43.62 92.23,-43.62"/>
</g>
</g>
</svg>
