<?xml version="1.0" encoding="UTF-8" standalone="no"?>
<!DOCTYPE svg PUBLIC "-//W3C//DTD SVG 1.1//EN"
 "http://www.w3.org/Graphics/SVG/1.1/DTD/svg11.dtd">
<!-- Generated by graphviz version 14.1.2 (20260124.0452)
 -->
<!-- Title: TechTree Pages: 1 -->
<svg width="188pt" height="89pt"
 viewBox="0.00 0.00 188.00 89.00" xmlns="http://www.w3.org/2000/svg" xmlns:xlink="http://www.w3.org/1999/xlink">
<g id="graph0" class="graph" transform="scale(1 1) rotate(0) translate(4 85)">
<title>TechTree</title>
<polygon fill="white" stroke="none" points="-4,4 -4,-85 184.25,-85 184.25,4 -4,4"/>
<text xml:space="preserve" text-anchor="middle" x="90.12" y="-63.7" font-family="Helvetica,sans-Serif" font-weight="bold" font-size="14.00">Commercial Magazine</text>
<!-- Commercial_Magazine___Capacity -->
<g id="node1" class="node">
<title>Commercial_Magazine___Capacity</title>
<path fill="#cce5ff" stroke="black" d="M168.25,-36C168.25,-36 12,-36 12,-36 6,-36 0,-30 0,-24 0,-24 0,-12 0,-12 0,-6 6,0 12,0 12,0 168.25,0 168.25,0 174.25,0 180.25,-6 180.25,-12 180.25,-12 180.25,-24 180.25,-24 180.25,-30 174.25,-36 168.25,-36"/>
<text xml:space="preserve" text-anchor="middle" x="90.12" y="-19.75" font-family="Helvetica,sans-Serif" font-size="10.00">Commercial Magazine &#45; Capacity 500</text>
<text xml:space="preserve" text-anchor="middle" x="90.12" y="-8.5" font-family="Helvetica,sans-Serif" font-size="10.00">5K RP</text>
</g>
<!-- Commercial_Magazine___Capacity&#45;&gt;Commercial_Magazine___Capacity -->
<g id="edge1" class="edge">
<title>Commercial_Magazine___Capacity&#45;&gt;Commercial_Magazine___Capacity</title>
<path fill="none" stroke="black" d="M58.71,-36.1C51.14,-47.32 61.61,-58 90.12,-58 111.51,-58 122.75,-51.99 123.83,-44.26"/>
<polygon fill="black" stroke="black" points="126.2,-43.63 121.95,-37.56 121.49,-44.96 126.2,-43.63"/>
</g>
</g>
</svg>
