<?xml version="1.0" encoding="UTF-8" standalone="no"?>
<!DOCTYPE svg PUBLIC "-//W3C//DTD SVG 1.1//EN"
 "http://www.w3.org/Graphics/SVG/1.1/DTD/svg11.dtd">
<!-- Generated by graphviz version 14.1.2 (20260124.0452)
 -->
<!-- Title: TechTree Pages: 1 -->
<svg width="212pt" height="67pt"
 viewBox="0.00 0.00 212.00 67.00" xmlns="http://www.w3.org/2000/svg" xmlns:xlink="http://www.w3.org/1999/xlink">
<g id="graph0" class="graph" transform="scale(1 1) rotate(0) translate(4 63)">
<title>TechTree</title>
<polygon fill="white" stroke="none" points="-4,4 -4,-63 207.5,-63 207.5,4 -4,4"/>
<text xml:space="preserve" text-anchor="middle" x="101.75" y="-41.7" font-family="Helvetica,sans-Serif" font-weight="bold" font-size="14.00">Commercial Damage Control</text>
<!-- Commercial_Damage_Control -->
<g id="node1" class="node">
<title>Commercial_Damage_Control</title>
<path fill="#cce5ff" stroke="black" d="M161.12,-36C161.12,-36 42.38,-36 42.38,-36 36.37,-36 30.38,-30 30.38,-24 30.38,-24 30.38,-12 30.38,-12 30.38,-6 36.38,0 42.38,0 42.38,0 161.12,0 161.12,0 167.12,0 173.12,-6 173.12,-12 173.12,-12 173.12,-24 173.12,-24 173.12,-30 167.12,-36 161.12,-36"/>
<text xml:space="preserve" text-anchor="middle" x="101.75" y="-19.75" font-family="Helvetica,sans-Serif" font-size="10.00">Commercial Damage Control</text>
<text xml:space="preserve" text-anchor="middle" x="101.75" y="-8.5" font-family="Helvetica,sans-Serif" font-size="10.00">5K RP</text>
</g>
</g>
</svg>
