<?xml version="1.0" encoding="UTF-8" standalone="no"?>
<!DOCTYPE svg PUBLIC "-//W3C//DTD SVG 1.1//EN"
 "http://www.w3.org/Graphics/SVG/1.1/DTD/svg11.dtd">
<!-- Generated by graphviz version 14.1.2 (20260124.0452)
 -->
<!-- Title: TechTree Pages: 1 -->
<svg width="200pt" height="641pt"
 viewBox="0.00 0.00 200.00 641.00" xmlns="http://www.w3.org/2000/svg" xmlns:xlink="http://www.w3.org/1999/xlink">
<g id="graph0" class="graph" transform="scale(1 1) rotate(0) translate(4 636.75)">
<title>TechTree</title>
<polygon fill="white" stroke="none" points="-4,4 -4,-636.75 196.25,-636.75 196.25,4 -4,4"/>
<text xml:space="preserve" text-anchor="middle" x="96.12" y="-617.35" font-family="Helvetica,sans-Serif" font-weight="bold" font-size="12.00">Crew Quarter Design</text>
<!-- Crew_Quarters_Design___Standar -->
<g id="node1" class="node">
<title>Crew_Quarters_Design___Standar</title>
<path fill="#d4edda" stroke="black" d="M160,-612C160,-612 32.25,-612 32.25,-612 26.25,-612 20.25,-606 20.25,-600 20.25,-600 20.25,-588 20.25,-588 20.25,-582 26.25,-576 32.25,-576 32.25,-576 160,-576 160,-576 166,-576 172,-582 172,-588 172,-588 172,-600 172,-600 172,-606 166,-612 160,-612"/>
<text xml:space="preserve" text-anchor="middle" x="96.12" y="-595.2" font-family="Helvetica,sans-Serif" font-size="9.00">Crew Quarters Design &#45; Standard</text>
<text xml:space="preserve" text-anchor="middle" x="96.12" y="-585.45" font-family="Helvetica,sans-Serif" font-size="9.00">500 RP</text>
</g>
<!-- Crew_Quarters_Design___10__HS_ -->
<g id="node2" class="node">
<title>Crew_Quarters_Design___10__HS_</title>
<path fill="#cce5ff" stroke="black" d="M180.25,-540C180.25,-540 12,-540 12,-540 6,-540 0,-534 0,-528 0,-528 0,-516 0,-516 0,-510 6,-504 12,-504 12,-504 180.25,-504 180.25,-504 186.25,-504 192.25,-510 192.25,-516 192.25,-516 192.25,-528 192.25,-528 192.25,-534 186.25,-540 180.25,-540"/>
<text xml:space="preserve" text-anchor="middle" x="96.12" y="-523.2" font-family="Helvetica,sans-Serif" font-size="9.00">Crew Quarters Design &#45; 10% HS Reduction</text>
<text xml:space="preserve" text-anchor="middle" x="96.12" y="-513.45" font-family="Helvetica,sans-Serif" font-size="9.00">1K RP</text>
</g>
<!-- Crew_Quarters_Design___Standar&#45;&gt;Crew_Quarters_Design___10__HS_ -->
<g id="edge1" class="edge">
<title>Crew_Quarters_Design___Standar&#45;&gt;Crew_Quarters_Design___10__HS_</title>
<path fill="none" stroke="black" d="M96.12,-575.7C96.12,-567.22 96.12,-556.86 96.12,-547.58"/>
<polygon fill="black" stroke="black" points="98.23,-547.62 96.13,-541.62 94.03,-547.62 98.23,-547.62"/>
</g>
<!-- Crew_Quarters_Design___20__HS_ -->
<g id="node3" class="node">
<title>Crew_Quarters_Design___20__HS_</title>
<path fill="#cce5ff" stroke="black" d="M180.25,-468C180.25,-468 12,-468 12,-468 6,-468 0,-462 0,-456 0,-456 0,-444 0,-444 0,-438 6,-432 12,-432 12,-432 180.25,-432 180.25,-432 186.25,-432 192.25,-438 192.25,-444 192.25,-444 192.25,-456 192.25,-456 192.25,-462 186.25,-468 180.25,-468"/>
<text xml:space="preserve" text-anchor="middle" x="96.12" y="-451.2" font-family="Helvetica,sans-Serif" font-size="9.00">Crew Quarters Design &#45; 20% HS Reduction</text>
<text xml:space="preserve" text-anchor="middle" x="96.12" y="-441.45" font-family="Helvetica,sans-Serif" font-size="9.00">2K RP</text>
</g>
<!-- Crew_Quarters_Design___10__HS_&#45;&gt;Crew_Quarters_Design___20__HS_ -->
<g id="edge2" class="edge">
<title>Crew_Quarters_Design___10__HS_&#45;&gt;Crew_Quarters_Design___20__HS_</title>
<path fill="none" stroke="black" d="M96.12,-503.7C96.12,-495.22 96.12,-484.86 96.12,-475.58"/>
<polygon fill="black" stroke="black" points="98.23,-475.62 96.13,-469.62 94.03,-475.62 98.23,-475.62"/>
</g>
<!-- Crew_Quarters_Design___30__HS_ -->
<g id="node4" class="node">
<title>Crew_Quarters_Design___30__HS_</title>
<path fill="#cce5ff" stroke="black" d="M180.25,-396C180.25,-396 12,-396 12,-396 6,-396 0,-390 0,-384 0,-384 0,-372 0,-372 0,-366 6,-360 12,-360 12,-360 180.25,-360 180.25,-360 186.25,-360 192.25,-366 192.25,-372 192.25,-372 192.25,-384 192.25,-384 192.25,-390 186.25,-396 180.25,-396"/>
<text xml:space="preserve" text-anchor="middle" x="96.12" y="-379.2" font-family="Helvetica,sans-Serif" font-size="9.00">Crew Quarters Design &#45; 30% HS Reduction</text>
<text xml:space="preserve" text-anchor="middle" x="96.12" y="-369.45" font-family="Helvetica,sans-Serif" font-size="9.00">4K RP</text>
</g>
<!-- Crew_Quarters_Design___20__HS_&#45;&gt;Crew_Quarters_Design___30__HS_ -->
<g id="edge3" class="edge">
<title>Crew_Quarters_Design___20__HS_&#45;&gt;Crew_Quarters_Design___30__HS_</title>
<path fill="none" stroke="black" d="M96.12,-431.7C96.12,-423.22 96.12,-412.86 96.12,-403.58"/>
<polygon fill="black" stroke="black" points="98.23,-403.62 96.13,-397.62 94.03,-403.62 98.23,-403.62"/>
</g>
<!-- Crew_Quarters_Design___40__HS_ -->
<g id="node5" class="node">
<title>Crew_Quarters_Design___40__HS_</title>
<path fill="#cce5ff" stroke="black" d="M180.25,-324C180.25,-324 12,-324 12,-324 6,-324 0,-318 0,-312 0,-312 0,-300 0,-300 0,-294 6,-288 12,-288 12,-288 180.25,-288 180.25,-288 186.25,-288 192.25,-294 192.25,-300 192.25,-300 192.25,-312 192.25,-312 192.25,-318 186.25,-324 180.25,-324"/>
<text xml:space="preserve" text-anchor="middle" x="96.12" y="-307.2" font-family="Helvetica,sans-Serif" font-size="9.00">Crew Quarters Design &#45; 40% HS Reduction</text>
<text xml:space="preserve" text-anchor="middle" x="96.12" y="-297.45" font-family="Helvetica,sans-Serif" font-size="9.00">8K RP</text>
</g>
<!-- Crew_Quarters_Design___30__HS_&#45;&gt;Crew_Quarters_Design___40__HS_ -->
<g id="edge4" class="edge">
<title>Crew_Quarters_Design___30__HS_&#45;&gt;Crew_Quarters_Design___40__HS_</title>
<path fill="none" stroke="black" d="M96.12,-359.7C96.12,-351.22 96.12,-340.86 96.12,-331.58"/>
<polygon fill="black" stroke="black" points="98.23,-331.62 96.13,-325.62 94.03,-331.62 98.23,-331.62"/>
</g>
<!-- Crew_Quarters_Design___50__HS_ -->
<g id="node6" class="node">
<title>Crew_Quarters_Design___50__HS_</title>
<path fill="#fff3cd" stroke="black" d="M180.25,-252C180.25,-252 12,-252 12,-252 6,-252 0,-246 0,-240 0,-240 0,-228 0,-228 0,-222 6,-216 12,-216 12,-216 180.25,-216 180.25,-216 186.25,-216 192.25,-222 192.25,-228 192.25,-228 192.25,-240 192.25,-240 192.25,-246 186.25,-252 180.25,-252"/>
<text xml:space="preserve" text-anchor="middle" x="96.12" y="-235.2" font-family="Helvetica,sans-Serif" font-size="9.00">Crew Quarters Design &#45; 50% HS Reduction</text>
<text xml:space="preserve" text-anchor="middle" x="96.12" y="-225.45" font-family="Helvetica,sans-Serif" font-size="9.00">15K RP</text>
</g>
<!-- Crew_Quarters_Design___40__HS_&#45;&gt;Crew_Quarters_Design___50__HS_ -->
<g id="edge5" class="edge">
<title>Crew_Quarters_Design___40__HS_&#45;&gt;Crew_Quarters_Design___50__HS_</title>
<path fill="none" stroke="black" d="M96.12,-287.7C96.12,-279.22 96.12,-268.86 96.12,-259.58"/>
<polygon fill="black" stroke="black" points="98.23,-259.62 96.13,-253.62 94.03,-259.62 98.23,-259.62"/>
</g>
<!-- Crew_Quarters_Design___60__HS_ -->
<g id="node7" class="node">
<title>Crew_Quarters_Design___60__HS_</title>
<path fill="#fff3cd" stroke="black" d="M180.25,-180C180.25,-180 12,-180 12,-180 6,-180 0,-174 0,-168 0,-168 0,-156 0,-156 0,-150 6,-144 12,-144 12,-144 180.25,-144 180.25,-144 186.25,-144 192.25,-150 192.25,-156 192.25,-156 192.25,-168 192.25,-168 192.25,-174 186.25,-180 180.25,-180"/>
<text xml:space="preserve" text-anchor="middle" x="96.12" y="-163.2" font-family="Helvetica,sans-Serif" font-size="9.00">Crew Quarters Design &#45; 60% HS Reduction</text>
<text xml:space="preserve" text-anchor="middle" x="96.12" y="-153.45" font-family="Helvetica,sans-Serif" font-size="9.00">30K RP</text>
</g>
<!-- Crew_Quarters_Design___50__HS_&#45;&gt;Crew_Quarters_Design___60__HS_ -->
<g id="edge6" class="edge">
<title>Crew_Quarters_Design___50__HS_&#45;&gt;Crew_Quarters_Design___60__HS_</title>
<path fill="none" stroke="black" d="M96.12,-215.7C96.12,-207.22 96.12,-196.86 96.12,-187.58"/>
<polygon fill="black" stroke="black" points="98.23,-187.62 96.13,-181.62 94.03,-187.62 98.23,-187.62"/>
</g>
<!-- Crew_Quarters_Design___68__HS_ -->
<g id="node8" class="node">
<title>Crew_Quarters_Design___68__HS_</title>
<path fill="#fff3cd" stroke="black" d="M180.25,-108C180.25,-108 12,-108 12,-108 6,-108 0,-102 0,-96 0,-96 0,-84 0,-84 0,-78 6,-72 12,-72 12,-72 180.25,-72 180.25,-72 186.25,-72 192.25,-78 192.25,-84 192.25,-84 192.25,-96 192.25,-96 192.25,-102 186.25,-108 180.25,-108"/>
<text xml:space="preserve" text-anchor="middle" x="96.12" y="-91.2" font-family="Helvetica,sans-Serif" font-size="9.00">Crew Quarters Design &#45; 68% HS Reduction</text>
<text xml:space="preserve" text-anchor="middle" x="96.12" y="-81.45" font-family="Helvetica,sans-Serif" font-size="9.00">60K RP</text>
</g>
<!-- Crew_Quarters_Design___60__HS_&#45;&gt;Crew_Quarters_Design___68__HS_ -->
<g id="edge7" class="edge">
<title>Crew_Quarters_Design___60__HS_&#45;&gt;Crew_Quarters_Design___68__HS_</title>
<path fill="none" stroke="black" d="M96.12,-143.7C96.12,-135.22 96.12,-124.86 96.12,-115.58"/>
<polygon fill="black" stroke="black" points="98.23,-115.62 96.13,-109.62 94.03,-115.62 98.23,-115.62"/>
</g>
<!-- Crew_Quarters_Design___75__HS_ -->
<g id="node9" class="node">
<title>Crew_Quarters_Design___75__HS_</title>
<path fill="#d4c4fb" stroke="black" d="M180.25,-36C180.25,-36 12,-36 12,-36 6,-36 0,-30 0,-24 0,-24 0,-12 0,-12 0,-6 6,0 12,0 12,0 180.25,0 180.25,0 186.25,0 192.25,-6 192.25,-12 192.25,-12 192.25,-24 192.25,-24 192.25,-30 186.25,-36 180.25,-36"/>
<text xml:space="preserve" text-anchor="middle" x="96.12" y="-19.2" font-family="Helvetica,sans-Serif" font-size="9.00">Crew Quarters Design &#45; 75% HS Reduction</text>
<text xml:space="preserve" text-anchor="middle" x="96.12" y="-9.45" font-family="Helvetica,sans-Serif" font-size="9.00">120K RP</text>
</g>
<!-- Crew_Quarters_Design___68__HS_&#45;&gt;Crew_Quarters_Design___75__HS_ -->
<g id="edge8" class="edge">
<title>Crew_Quarters_Design___68__HS_&#45;&gt;Crew_Quarters_Design___75__HS_</title>
<path fill="none" stroke="black" d="M96.12,-71.7C96.12,-63.22 96.12,-52.86 96.12,-43.58"/>
<polygon fill="black" stroke="black" points="98.23,-43.62 96.13,-37.62 94.03,-43.62 98.23,-43.62"/>
</g>
</g>
</svg>
