<?xml version="1.0" encoding="UTF-8" standalone="no"?>
<!DOCTYPE svg PUBLIC "-//W3C//DTD SVG 1.1//EN"
 "http://www.w3.org/Graphics/SVG/1.1/DTD/svg11.dtd">
<!-- Generated by graphviz version 14.1.2 (20260124.0452)
 -->
<!-- Title: TechTree Pages: 1 -->
<svg width="454pt" height="65pt"
 viewBox="0.00 0.00 454.00 65.00" xmlns="http://www.w3.org/2000/svg" xmlns:xlink="http://www.w3.org/1999/xlink">
<g id="graph0" class="graph" transform="scale(1 1) rotate(0) translate(4 60.75)">
<title>TechTree</title>
<polygon fill="white" stroke="none" points="-4,4 -4,-60.75 450.25,-60.75 450.25,4 -4,4"/>
<text xml:space="preserve" text-anchor="middle" x="223.12" y="-41.35" font-family="Helvetica,sans-Serif" font-weight="bold" font-size="12.00">Crew Quarters</text>
<!-- Crew_Quarters -->
<g id="node1" class="node">
<title>Crew_Quarters</title>
<path fill="#cce5ff" stroke="black" d="M63.25,-36C63.25,-36 12,-36 12,-36 6,-36 0,-30 0,-24 0,-24 0,-12 0,-12 0,-6 6,0 12,0 12,0 63.25,0 63.25,0 69.25,0 75.25,-6 75.25,-12 75.25,-12 75.25,-24 75.25,-24 75.25,-30 69.25,-36 63.25,-36"/>
<text xml:space="preserve" text-anchor="middle" x="37.62" y="-19.2" font-family="Helvetica,sans-Serif" font-size="9.00">Crew Quarters</text>
<text xml:space="preserve" text-anchor="middle" x="37.62" y="-9.45" font-family="Helvetica,sans-Serif" font-size="9.00">1K RP</text>
</g>
<!-- Crew_Quarters___Small -->
<g id="node2" class="node">
<title>Crew_Quarters___Small</title>
<path fill="#cce5ff" stroke="black" d="M187.62,-36C187.62,-36 105.62,-36 105.62,-36 99.62,-36 93.62,-30 93.62,-24 93.62,-24 93.62,-12 93.62,-12 93.62,-6 99.62,0 105.62,0 105.62,0 187.62,0 187.62,0 193.62,0 199.62,-6 199.62,-12 199.62,-12 199.62,-24 199.62,-24 199.62,-30 193.62,-36 187.62,-36"/>
<text xml:space="preserve" text-anchor="middle" x="146.62" y="-19.2" font-family="Helvetica,sans-Serif" font-size="9.00">Crew Quarters &#45; Small</text>
<text xml:space="preserve" text-anchor="middle" x="146.62" y="-9.45" font-family="Helvetica,sans-Serif" font-size="9.00">1K RP</text>
</g>
<!-- Crew_Quarters___Tiny -->
<g id="node3" class="node">
<title>Crew_Quarters___Tiny</title>
<path fill="#cce5ff" stroke="black" d="M305.25,-36C305.25,-36 230,-36 230,-36 224,-36 218,-30 218,-24 218,-24 218,-12 218,-12 218,-6 224,0 230,0 230,0 305.25,0 305.25,0 311.25,0 317.25,-6 317.25,-12 317.25,-12 317.25,-24 317.25,-24 317.25,-30 311.25,-36 305.25,-36"/>
<text xml:space="preserve" text-anchor="middle" x="267.62" y="-19.2" font-family="Helvetica,sans-Serif" font-size="9.00">Crew Quarters &#45; Tiny</text>
<text xml:space="preserve" text-anchor="middle" x="267.62" y="-9.45" font-family="Helvetica,sans-Serif" font-size="9.00">2K RP</text>
</g>
<!-- Crew_Quarters___Fighter -->
<g id="node4" class="node">
<title>Crew_Quarters___Fighter</title>
<path fill="#cce5ff" stroke="black" d="M434.25,-36C434.25,-36 347,-36 347,-36 341,-36 335,-30 335,-24 335,-24 335,-12 335,-12 335,-6 341,0 347,0 347,0 434.25,0 434.25,0 440.25,0 446.25,-6 446.25,-12 446.25,-12 446.25,-24 446.25,-24 446.25,-30 440.25,-36 434.25,-36"/>
<text xml:space="preserve" text-anchor="middle" x="390.62" y="-19.2" font-family="Helvetica,sans-Serif" font-size="9.00">Crew Quarters &#45; Fighter</text>
<text xml:space="preserve" text-anchor="middle" x="390.62" y="-9.45" font-family="Helvetica,sans-Serif" font-size="9.00">2K RP</text>
</g>
</g>
</svg>
