<?xml version="1.0" encoding="UTF-8" standalone="no"?>
<!DOCTYPE svg PUBLIC "-//W3C//DTD SVG 1.1//EN"
 "http://www.w3.org/Graphics/SVG/1.1/DTD/svg11.dtd">
<!-- Generated by graphviz version 14.1.2 (20260124.0452)
 -->
<!-- Title: TechTree Pages: 1 -->
<svg width="215pt" height="587pt"
 viewBox="0.00 0.00 215.00 587.00" xmlns="http://www.w3.org/2000/svg" xmlns:xlink="http://www.w3.org/1999/xlink">
<g id="graph0" class="graph" transform="scale(1 1) rotate(0) translate(4 583)">
<title>TechTree</title>
<polygon fill="white" stroke="none" points="-4,4 -4,-583 210.5,-583 210.5,4 -4,4"/>
<text xml:space="preserve" text-anchor="middle" x="103.25" y="-561.7" font-family="Helvetica,sans-Serif" font-weight="bold" font-size="14.00">Crew Quarter Design</text>
<!-- Crew_Quarters_Design___Standar -->
<g id="node1" class="node">
<title>Crew_Quarters_Design___Standar</title>
<path fill="#d4edda" stroke="black" d="M172,-556C172,-556 34.5,-556 34.5,-556 28.5,-556 22.5,-550 22.5,-544 22.5,-544 22.5,-532 22.5,-532 22.5,-526 28.5,-520 34.5,-520 34.5,-520 172,-520 172,-520 178,-520 184,-526 184,-532 184,-532 184,-544 184,-544 184,-550 178,-556 172,-556"/>
<text xml:space="preserve" text-anchor="middle" x="103.25" y="-539.75" font-family="Helvetica,sans-Serif" font-size="10.00">Crew Quarters Design &#45; Standard</text>
<text xml:space="preserve" text-anchor="middle" x="103.25" y="-528.5" font-family="Helvetica,sans-Serif" font-size="10.00">500 RP</text>
</g>
<!-- Crew_Quarters_Design___10__HS_ -->
<g id="node2" class="node">
<title>Crew_Quarters_Design___10__HS_</title>
<path fill="#cce5ff" stroke="black" d="M194.5,-491C194.5,-491 12,-491 12,-491 6,-491 0,-485 0,-479 0,-479 0,-467 0,-467 0,-461 6,-455 12,-455 12,-455 194.5,-455 194.5,-455 200.5,-455 206.5,-461 206.5,-467 206.5,-467 206.5,-479 206.5,-479 206.5,-485 200.5,-491 194.5,-491"/>
<text xml:space="preserve" text-anchor="middle" x="103.25" y="-474.75" font-family="Helvetica,sans-Serif" font-size="10.00">Crew Quarters Design &#45; 10% HS Reduction</text>
<text xml:space="preserve" text-anchor="middle" x="103.25" y="-463.5" font-family="Helvetica,sans-Serif" font-size="10.00">1K RP</text>
</g>
<!-- Crew_Quarters_Design___Standar&#45;&gt;Crew_Quarters_Design___10__HS_ -->
<g id="edge1" class="edge">
<title>Crew_Quarters_Design___Standar&#45;&gt;Crew_Quarters_Design___10__HS_</title>
<path fill="none" stroke="black" d="M103.25,-519.78C103.25,-513.53 103.25,-506.33 103.25,-499.52"/>
<polygon fill="black" stroke="black" points="105.7,-499.71 103.25,-492.71 100.8,-499.71 105.7,-499.71"/>
</g>
<!-- Crew_Quarters_Design___20__HS_ -->
<g id="node3" class="node">
<title>Crew_Quarters_Design___20__HS_</title>
<path fill="#cce5ff" stroke="black" d="M194.5,-426C194.5,-426 12,-426 12,-426 6,-426 0,-420 0,-414 0,-414 0,-402 0,-402 0,-396 6,-390 12,-390 12,-390 194.5,-390 194.5,-390 200.5,-390 206.5,-396 206.5,-402 206.5,-402 206.5,-414 206.5,-414 206.5,-420 200.5,-426 194.5,-426"/>
<text xml:space="preserve" text-anchor="middle" x="103.25" y="-409.75" font-family="Helvetica,sans-Serif" font-size="10.00">Crew Quarters Design &#45; 20% HS Reduction</text>
<text xml:space="preserve" text-anchor="middle" x="103.25" y="-398.5" font-family="Helvetica,sans-Serif" font-size="10.00">2K RP</text>
</g>
<!-- Crew_Quarters_Design___10__HS_&#45;&gt;Crew_Quarters_Design___20__HS_ -->
<g id="edge2" class="edge">
<title>Crew_Quarters_Design___10__HS_&#45;&gt;Crew_Quarters_Design___20__HS_</title>
<path fill="none" stroke="black" d="M103.25,-454.78C103.25,-448.53 103.25,-441.33 103.25,-434.52"/>
<polygon fill="black" stroke="black" points="105.7,-434.71 103.25,-427.71 100.8,-434.71 105.7,-434.71"/>
</g>
<!-- Crew_Quarters_Design___30__HS_ -->
<g id="node4" class="node">
<title>Crew_Quarters_Design___30__HS_</title>
<path fill="#cce5ff" stroke="black" d="M194.5,-361C194.5,-361 12,-361 12,-361 6,-361 0,-355 0,-349 0,-349 0,-337 0,-337 0,-331 6,-325 12,-325 12,-325 194.5,-325 194.5,-325 200.5,-325 206.5,-331 206.5,-337 206.5,-337 206.5,-349 206.5,-349 206.5,-355 200.5,-361 194.5,-361"/>
<text xml:space="preserve" text-anchor="middle" x="103.25" y="-344.75" font-family="Helvetica,sans-Serif" font-size="10.00">Crew Quarters Design &#45; 30% HS Reduction</text>
<text xml:space="preserve" text-anchor="middle" x="103.25" y="-333.5" font-family="Helvetica,sans-Serif" font-size="10.00">4K RP</text>
</g>
<!-- Crew_Quarters_Design___20__HS_&#45;&gt;Crew_Quarters_Design___30__HS_ -->
<g id="edge3" class="edge">
<title>Crew_Quarters_Design___20__HS_&#45;&gt;Crew_Quarters_Design___30__HS_</title>
<path fill="none" stroke="black" d="M103.25,-389.78C103.25,-383.53 103.25,-376.33 103.25,-369.52"/>
<polygon fill="black" stroke="black" points="105.7,-369.71 103.25,-362.71 100.8,-369.71 105.7,-369.71"/>
</g>
<!-- Crew_Quarters_Design___40__HS_ -->
<g id="node5" class="node">
<title>Crew_Quarters_Design___40__HS_</title>
<path fill="#cce5ff" stroke="black" d="M194.5,-296C194.5,-296 12,-296 12,-296 6,-296 0,-290 0,-284 0,-284 0,-272 0,-272 0,-266 6,-260 12,-260 12,-260 194.5,-260 194.5,-260 200.5,-260 206.5,-266 206.5,-272 206.5,-272 206.5,-284 206.5,-284 206.5,-290 200.5,-296 194.5,-296"/>
<text xml:space="preserve" text-anchor="middle" x="103.25" y="-279.75" font-family="Helvetica,sans-Serif" font-size="10.00">Crew Quarters Design &#45; 40% HS Reduction</text>
<text xml:space="preserve" text-anchor="middle" x="103.25" y="-268.5" font-family="Helvetica,sans-Serif" font-size="10.00">8K RP</text>
</g>
<!-- Crew_Quarters_Design___30__HS_&#45;&gt;Crew_Quarters_Design___40__HS_ -->
<g id="edge4" class="edge">
<title>Crew_Quarters_Design___30__HS_&#45;&gt;Crew_Quarters_Design___40__HS_</title>
<path fill="none" stroke="black" d="M103.25,-324.78C103.25,-318.53 103.25,-311.33 103.25,-304.52"/>
<polygon fill="black" stroke="black" points="105.7,-304.71 103.25,-297.71 100.8,-304.71 105.7,-304.71"/>
</g>
<!-- Crew_Quarters_Design___50__HS_ -->
<g id="node6" class="node">
<title>Crew_Quarters_Design___50__HS_</title>
<path fill="#fff3cd" stroke="black" d="M194.5,-231C194.5,-231 12,-231 12,-231 6,-231 0,-225 0,-219 0,-219 0,-207 0,-207 0,-201 6,-195 12,-195 12,-195 194.5,-195 194.5,-195 200.5,-195 206.5,-201 206.5,-207 206.5,-207 206.5,-219 206.5,-219 206.5,-225 200.5,-231 194.5,-231"/>
<text xml:space="preserve" text-anchor="middle" x="103.25" y="-214.75" font-family="Helvetica,sans-Serif" font-size="10.00">Crew Quarters Design &#45; 50% HS Reduction</text>
<text xml:space="preserve" text-anchor="middle" x="103.25" y="-203.5" font-family="Helvetica,sans-Serif" font-size="10.00">15K RP</text>
</g>
<!-- Crew_Quarters_Design___40__HS_&#45;&gt;Crew_Quarters_Design___50__HS_ -->
<g id="edge5" class="edge">
<title>Crew_Quarters_Design___40__HS_&#45;&gt;Crew_Quarters_Design___50__HS_</title>
<path fill="none" stroke="black" d="M103.25,-259.78C103.25,-253.53 103.25,-246.33 103.25,-239.52"/>
<polygon fill="black" stroke="black" points="105.7,-239.71 103.25,-232.71 100.8,-239.71 105.7,-239.71"/>
</g>
<!-- Crew_Quarters_Design___60__HS_ -->
<g id="node7" class="node">
<title>Crew_Quarters_Design___60__HS_</title>
<path fill="#fff3cd" stroke="black" d="M194.5,-166C194.5,-166 12,-166 12,-166 6,-166 0,-160 0,-154 0,-154 0,-142 0,-142 0,-136 6,-130 12,-130 12,-130 194.5,-130 194.5,-130 200.5,-130 206.5,-136 206.5,-142 206.5,-142 206.5,-154 206.5,-154 206.5,-160 200.5,-166 194.5,-166"/>
<text xml:space="preserve" text-anchor="middle" x="103.25" y="-149.75" font-family="Helvetica,sans-Serif" font-size="10.00">Crew Quarters Design &#45; 60% HS Reduction</text>
<text xml:space="preserve" text-anchor="middle" x="103.25" y="-138.5" font-family="Helvetica,sans-Serif" font-size="10.00">30K RP</text>
</g>
<!-- Crew_Quarters_Design___50__HS_&#45;&gt;Crew_Quarters_Design___60__HS_ -->
<g id="edge6" class="edge">
<title>Crew_Quarters_Design___50__HS_&#45;&gt;Crew_Quarters_Design___60__HS_</title>
<path fill="none" stroke="black" d="M103.25,-194.78C103.25,-188.53 103.25,-181.33 103.25,-174.52"/>
<polygon fill="black" stroke="black" points="105.7,-174.71 103.25,-167.71 100.8,-174.71 105.7,-174.71"/>
</g>
<!-- Crew_Quarters_Design___68__HS_ -->
<g id="node8" class="node">
<title>Crew_Quarters_Design___68__HS_</title>
<path fill="#fff3cd" stroke="black" d="M194.5,-101C194.5,-101 12,-101 12,-101 6,-101 0,-95 0,-89 0,-89 0,-77 0,-77 0,-71 6,-65 12,-65 12,-65 194.5,-65 194.5,-65 200.5,-65 206.5,-71 206.5,-77 206.5,-77 206.5,-89 206.5,-89 206.5,-95 200.5,-101 194.5,-101"/>
<text xml:space="preserve" text-anchor="middle" x="103.25" y="-84.75" font-family="Helvetica,sans-Serif" font-size="10.00">Crew Quarters Design &#45; 68% HS Reduction</text>
<text xml:space="preserve" text-anchor="middle" x="103.25" y="-73.5" font-family="Helvetica,sans-Serif" font-size="10.00">60K RP</text>
</g>
<!-- Crew_Quarters_Design___60__HS_&#45;&gt;Crew_Quarters_Design___68__HS_ -->
<g id="edge7" class="edge">
<title>Crew_Quarters_Design___60__HS_&#45;&gt;Crew_Quarters_Design___68__HS_</title>
<path fill="none" stroke="black" d="M103.25,-129.78C103.25,-123.53 103.25,-116.33 103.25,-109.52"/>
<polygon fill="black" stroke="black" points="105.7,-109.71 103.25,-102.71 100.8,-109.71 105.7,-109.71"/>
</g>
<!-- Crew_Quarters_Design___75__HS_ -->
<g id="node9" class="node">
<title>Crew_Quarters_Design___75__HS_</title>
<path fill="#d4c4fb" stroke="black" d="M194.5,-36C194.5,-36 12,-36 12,-36 6,-36 0,-30 0,-24 0,-24 0,-12 0,-12 0,-6 6,0 12,0 12,0 194.5,0 194.5,0 200.5,0 206.5,-6 206.5,-12 206.5,-12 206.5,-24 206.5,-24 206.5,-30 200.5,-36 194.5,-36"/>
<text xml:space="preserve" text-anchor="middle" x="103.25" y="-19.75" font-family="Helvetica,sans-Serif" font-size="10.00">Crew Quarters Design &#45; 75% HS Reduction</text>
<text xml:space="preserve" text-anchor="middle" x="103.25" y="-8.5" font-family="Helvetica,sans-Serif" font-size="10.00">120K RP</text>
</g>
<!-- Crew_Quarters_Design___68__HS_&#45;&gt;Crew_Quarters_Design___75__HS_ -->
<g id="edge8" class="edge">
<title>Crew_Quarters_Design___68__HS_&#45;&gt;Crew_Quarters_Design___75__HS_</title>
<path fill="none" stroke="black" d="M103.25,-64.78C103.25,-58.53 103.25,-51.33 103.25,-44.52"/>
<polygon fill="black" stroke="black" points="105.7,-44.71 103.25,-37.71 100.8,-44.71 105.7,-44.71"/>
</g>
</g>
</svg>
