<?xml version="1.0" encoding="UTF-8" standalone="no"?>
<!DOCTYPE svg PUBLIC "-//W3C//DTD SVG 1.1//EN"
 "http://www.w3.org/Graphics/SVG/1.1/DTD/svg11.dtd">
<!-- Generated by graphviz version 14.1.2 (20260124.0452)
 -->
<!-- Title: TechTree Pages: 1 -->
<svg width="127pt" height="241pt"
 viewBox="0.00 0.00 127.00 241.00" xmlns="http://www.w3.org/2000/svg" xmlns:xlink="http://www.w3.org/1999/xlink">
<g id="graph0" class="graph" transform="scale(1 1) rotate(0) translate(4 237)">
<title>TechTree</title>
<polygon fill="white" stroke="none" points="-4,4 -4,-237 122.75,-237 122.75,4 -4,4"/>
<text xml:space="preserve" text-anchor="middle" x="59.38" y="-215.7" font-family="Helvetica,sans-Serif" font-weight="bold" font-size="14.00">Crew Quarters</text>
<!-- Crew_Quarters -->
<g id="node1" class="node">
<title>Crew_Quarters</title>
<path fill="#cce5ff" stroke="black" d="M87.25,-36C87.25,-36 31.5,-36 31.5,-36 25.5,-36 19.5,-30 19.5,-24 19.5,-24 19.5,-12 19.5,-12 19.5,-6 25.5,0 31.5,0 31.5,0 87.25,0 87.25,0 93.25,0 99.25,-6 99.25,-12 99.25,-12 99.25,-24 99.25,-24 99.25,-30 93.25,-36 87.25,-36"/>
<text xml:space="preserve" text-anchor="middle" x="59.38" y="-19.75" font-family="Helvetica,sans-Serif" font-size="10.00">Crew Quarters</text>
<text xml:space="preserve" text-anchor="middle" x="59.38" y="-8.5" font-family="Helvetica,sans-Serif" font-size="10.00">1K RP</text>
</g>
<!-- Crew_Quarters___Small -->
<g id="node2" class="node">
<title>Crew_Quarters___Small</title>
<path fill="#cce5ff" stroke="black" d="M104.12,-94C104.12,-94 14.63,-94 14.63,-94 8.62,-94 2.62,-88 2.62,-82 2.62,-82 2.62,-70 2.62,-70 2.62,-64 8.62,-58 14.62,-58 14.62,-58 104.12,-58 104.12,-58 110.12,-58 116.12,-64 116.12,-70 116.12,-70 116.12,-82 116.12,-82 116.12,-88 110.12,-94 104.12,-94"/>
<text xml:space="preserve" text-anchor="middle" x="59.38" y="-77.75" font-family="Helvetica,sans-Serif" font-size="10.00">Crew Quarters &#45; Small</text>
<text xml:space="preserve" text-anchor="middle" x="59.38" y="-66.5" font-family="Helvetica,sans-Serif" font-size="10.00">1K RP</text>
</g>
<!-- Crew_Quarters___Tiny -->
<g id="node3" class="node">
<title>Crew_Quarters___Tiny</title>
<path fill="#cce5ff" stroke="black" d="M101.12,-152C101.12,-152 17.62,-152 17.62,-152 11.63,-152 5.62,-146 5.62,-140 5.62,-140 5.62,-128 5.62,-128 5.62,-122 11.62,-116 17.62,-116 17.62,-116 101.12,-116 101.12,-116 107.12,-116 113.12,-122 113.12,-128 113.12,-128 113.12,-140 113.12,-140 113.12,-146 107.12,-152 101.12,-152"/>
<text xml:space="preserve" text-anchor="middle" x="59.38" y="-135.75" font-family="Helvetica,sans-Serif" font-size="10.00">Crew Quarters &#45; Tiny</text>
<text xml:space="preserve" text-anchor="middle" x="59.38" y="-124.5" font-family="Helvetica,sans-Serif" font-size="10.00">2K RP</text>
</g>
<!-- Crew_Quarters___Fighter -->
<g id="node4" class="node">
<title>Crew_Quarters___Fighter</title>
<path fill="#cce5ff" stroke="black" d="M106.75,-210C106.75,-210 12,-210 12,-210 6,-210 0,-204 0,-198 0,-198 0,-186 0,-186 0,-180 6,-174 12,-174 12,-174 106.75,-174 106.75,-174 112.75,-174 118.75,-180 118.75,-186 118.75,-186 118.75,-198 118.75,-198 118.75,-204 112.75,-210 106.75,-210"/>
<text xml:space="preserve" text-anchor="middle" x="59.38" y="-193.75" font-family="Helvetica,sans-Serif" font-size="10.00">Crew Quarters &#45; Fighter</text>
<text xml:space="preserve" text-anchor="middle" x="59.38" y="-182.5" font-family="Helvetica,sans-Serif" font-size="10.00">2K RP</text>
</g>
</g>
</svg>
