<?xml version="1.0" encoding="UTF-8" standalone="no"?>
<!DOCTYPE svg PUBLIC "-//W3C//DTD SVG 1.1//EN"
 "http://www.w3.org/Graphics/SVG/1.1/DTD/svg11.dtd">
<!-- Generated by graphviz version 14.1.2 (20260124.0452)
 -->
<!-- Title: TechTree Pages: 1 -->
<svg width="371pt" height="241pt"
 viewBox="0.00 0.00 371.00 241.00" xmlns="http://www.w3.org/2000/svg" xmlns:xlink="http://www.w3.org/1999/xlink">
<g id="graph0" class="graph" transform="scale(1 1) rotate(0) translate(4 237)">
<title>TechTree</title>
<polygon fill="white" stroke="none" points="-4,4 -4,-237 366.5,-237 366.5,4 -4,4"/>
<text xml:space="preserve" text-anchor="middle" x="181.25" y="-215.7" font-family="Helvetica,sans-Serif" font-weight="bold" font-size="14.00">Cryogenic Transport</text>
<!-- Cryogenic_Transport___Emergenc -->
<g id="node1" class="node">
<title>Cryogenic_Transport___Emergenc</title>
<path fill="#d4edda" stroke="black" d="M350.5,-152C350.5,-152 211.5,-152 211.5,-152 205.5,-152 199.5,-146 199.5,-140 199.5,-140 199.5,-128 199.5,-128 199.5,-122 205.5,-116 211.5,-116 211.5,-116 350.5,-116 350.5,-116 356.5,-116 362.5,-122 362.5,-128 362.5,-128 362.5,-140 362.5,-140 362.5,-146 356.5,-152 350.5,-152"/>
<text xml:space="preserve" text-anchor="middle" x="281" y="-135.75" font-family="Helvetica,sans-Serif" font-size="10.00">Cryogenic Transport &#45; Emergency</text>
<text xml:space="preserve" text-anchor="middle" x="281" y="-124.5" font-family="Helvetica,sans-Serif" font-size="10.00">100 RP</text>
</g>
<!-- Cryogenic_Transport___Small -->
<g id="node2" class="node">
<title>Cryogenic_Transport___Small</title>
<path fill="#d4edda" stroke="black" d="M338.12,-94C338.12,-94 223.88,-94 223.88,-94 217.88,-94 211.88,-88 211.88,-82 211.88,-82 211.88,-70 211.88,-70 211.88,-64 217.88,-58 223.88,-58 223.88,-58 338.12,-58 338.12,-58 344.12,-58 350.12,-64 350.12,-70 350.12,-70 350.12,-82 350.12,-82 350.12,-88 344.12,-94 338.12,-94"/>
<text xml:space="preserve" text-anchor="middle" x="281" y="-77.75" font-family="Helvetica,sans-Serif" font-size="10.00">Cryogenic Transport &#45; Small</text>
<text xml:space="preserve" text-anchor="middle" x="281" y="-66.5" font-family="Helvetica,sans-Serif" font-size="10.00">100 RP</text>
</g>
<!-- Cryogenic_Transport___Large -->
<g id="node3" class="node">
<title>Cryogenic_Transport___Large</title>
<path fill="#d4edda" stroke="black" d="M337.75,-36C337.75,-36 224.25,-36 224.25,-36 218.25,-36 212.25,-30 212.25,-24 212.25,-24 212.25,-12 212.25,-12 212.25,-6 218.25,0 224.25,0 224.25,0 337.75,0 337.75,0 343.75,0 349.75,-6 349.75,-12 349.75,-12 349.75,-24 349.75,-24 349.75,-30 343.75,-36 337.75,-36"/>
<text xml:space="preserve" text-anchor="middle" x="281" y="-19.75" font-family="Helvetica,sans-Serif" font-size="10.00">Cryogenic Transport &#45; Large</text>
<text xml:space="preserve" text-anchor="middle" x="281" y="-8.5" font-family="Helvetica,sans-Serif" font-size="10.00">100 RP</text>
</g>
<!-- Cryogenic_Transport___Conventi -->
<g id="node4" class="node">
<title>Cryogenic_Transport___Conventi</title>
<path fill="#d4edda" stroke="black" d="M158.5,-152C158.5,-152 12,-152 12,-152 6,-152 0,-146 0,-140 0,-140 0,-128 0,-128 0,-122 6,-116 12,-116 12,-116 158.5,-116 158.5,-116 164.5,-116 170.5,-122 170.5,-128 170.5,-128 170.5,-140 170.5,-140 170.5,-146 164.5,-152 158.5,-152"/>
<text xml:space="preserve" text-anchor="middle" x="85.25" y="-135.75" font-family="Helvetica,sans-Serif" font-size="10.00">Cryogenic Transport &#45; Conventional</text>
<text xml:space="preserve" text-anchor="middle" x="85.25" y="-124.5" font-family="Helvetica,sans-Serif" font-size="10.00">500 RP</text>
</g>
<!-- Cryogenic_Transport -->
<g id="node5" class="node">
<title>Cryogenic_Transport</title>
<path fill="#cce5ff" stroke="black" d="M125.5,-94C125.5,-94 45,-94 45,-94 39,-94 33,-88 33,-82 33,-82 33,-70 33,-70 33,-64 39,-58 45,-58 45,-58 125.5,-58 125.5,-58 131.5,-58 137.5,-64 137.5,-70 137.5,-70 137.5,-82 137.5,-82 137.5,-88 131.5,-94 125.5,-94"/>
<text xml:space="preserve" text-anchor="middle" x="85.25" y="-77.75" font-family="Helvetica,sans-Serif" font-size="10.00">Cryogenic Transport</text>
<text xml:space="preserve" text-anchor="middle" x="85.25" y="-66.5" font-family="Helvetica,sans-Serif" font-size="10.00">2K RP</text>
</g>
<!-- Cryogenic_Transport&#45;&gt;Cryogenic_Transport___Emergenc -->
<g id="edge1" class="edge">
<title>Cryogenic_Transport&#45;&gt;Cryogenic_Transport___Emergenc</title>
<path fill="none" stroke="black" d="M137.92,-91.47C160.18,-98.13 186.54,-106.02 210.47,-113.19"/>
<polygon fill="black" stroke="black" points="209.63,-115.49 217.04,-115.15 211.04,-110.8 209.63,-115.49"/>
</g>
<!-- Cryogenic_Transport&#45;&gt;Cryogenic_Transport___Small -->
<g id="edge2" class="edge">
<title>Cryogenic_Transport&#45;&gt;Cryogenic_Transport___Small</title>
<path fill="none" stroke="black" d="M137.92,-76C158,-76 181.42,-76 203.38,-76"/>
<polygon fill="black" stroke="black" points="203.2,-78.45 210.2,-76 203.2,-73.55 203.2,-78.45"/>
</g>
<!-- Cryogenic_Transport&#45;&gt;Cryogenic_Transport___Large -->
<g id="edge3" class="edge">
<title>Cryogenic_Transport&#45;&gt;Cryogenic_Transport___Large</title>
<path fill="none" stroke="black" d="M137.92,-60.53C160.18,-53.87 186.54,-45.98 210.47,-38.81"/>
<polygon fill="black" stroke="black" points="211.04,-41.2 217.04,-36.85 209.63,-36.51 211.04,-41.2"/>
</g>
<!-- Ark_Module -->
<g id="node6" class="node">
<title>Ark_Module</title>
<path fill="#cce5ff" stroke="black" d="M106,-210C106,-210 64.5,-210 64.5,-210 58.5,-210 52.5,-204 52.5,-198 52.5,-198 52.5,-186 52.5,-186 52.5,-180 58.5,-174 64.5,-174 64.5,-174 106,-174 106,-174 112,-174 118,-180 118,-186 118,-186 118,-198 118,-198 118,-204 112,-210 106,-210"/>
<text xml:space="preserve" text-anchor="middle" x="85.25" y="-193.75" font-family="Helvetica,sans-Serif" font-size="10.00">Ark Module</text>
<text xml:space="preserve" text-anchor="middle" x="85.25" y="-182.5" font-family="Helvetica,sans-Serif" font-size="10.00">5K RP</text>
</g>
</g>
</svg>
