<?xml version="1.0" encoding="UTF-8" standalone="no"?>
<!DOCTYPE svg PUBLIC "-//W3C//DTD SVG 1.1//EN"
 "http://www.w3.org/Graphics/SVG/1.1/DTD/svg11.dtd">
<!-- Generated by graphviz version 14.1.2 (20260124.0452)
 -->
<!-- Title: TechTree Pages: 1 -->
<svg width="573pt" height="209pt"
 viewBox="0.00 0.00 573.00 209.00" xmlns="http://www.w3.org/2000/svg" xmlns:xlink="http://www.w3.org/1999/xlink">
<g id="graph0" class="graph" transform="scale(1 1) rotate(0) translate(4 204.75)">
<title>TechTree</title>
<polygon fill="white" stroke="none" points="-4,4 -4,-204.75 568.88,-204.75 568.88,4 -4,4"/>
<text xml:space="preserve" text-anchor="middle" x="282.44" y="-185.35" font-family="Helvetica,sans-Serif" font-weight="bold" font-size="12.00">Cryogenic Transport</text>
<!-- Cryogenic_Transport___Emergenc -->
<g id="node1" class="node">
<title>Cryogenic_Transport___Emergenc</title>
<path fill="#d4edda" stroke="black" d="M141.25,-36C141.25,-36 12,-36 12,-36 6,-36 0,-30 0,-24 0,-24 0,-12 0,-12 0,-6 6,0 12,0 12,0 141.25,0 141.25,0 147.25,0 153.25,-6 153.25,-12 153.25,-12 153.25,-24 153.25,-24 153.25,-30 147.25,-36 141.25,-36"/>
<text xml:space="preserve" text-anchor="middle" x="76.62" y="-19.2" font-family="Helvetica,sans-Serif" font-size="9.00">Cryogenic Transport &#45; Emergency</text>
<text xml:space="preserve" text-anchor="middle" x="76.62" y="-9.45" font-family="Helvetica,sans-Serif" font-size="9.00">100 RP</text>
</g>
<!-- Cryogenic_Transport___Small -->
<g id="node2" class="node">
<title>Cryogenic_Transport___Small</title>
<path fill="#d4edda" stroke="black" d="M289.62,-36C289.62,-36 183.62,-36 183.62,-36 177.62,-36 171.62,-30 171.62,-24 171.62,-24 171.62,-12 171.62,-12 171.62,-6 177.62,0 183.62,0 183.62,0 289.62,0 289.62,0 295.62,0 301.62,-6 301.62,-12 301.62,-12 301.62,-24 301.62,-24 301.62,-30 295.62,-36 289.62,-36"/>
<text xml:space="preserve" text-anchor="middle" x="236.62" y="-19.2" font-family="Helvetica,sans-Serif" font-size="9.00">Cryogenic Transport &#45; Small</text>
<text xml:space="preserve" text-anchor="middle" x="236.62" y="-9.45" font-family="Helvetica,sans-Serif" font-size="9.00">100 RP</text>
</g>
<!-- Cryogenic_Transport___Large -->
<g id="node3" class="node">
<title>Cryogenic_Transport___Large</title>
<path fill="#d4edda" stroke="black" d="M438,-36C438,-36 331.25,-36 331.25,-36 325.25,-36 319.25,-30 319.25,-24 319.25,-24 319.25,-12 319.25,-12 319.25,-6 325.25,0 331.25,0 331.25,0 438,0 438,0 444,0 450,-6 450,-12 450,-12 450,-24 450,-24 450,-30 444,-36 438,-36"/>
<text xml:space="preserve" text-anchor="middle" x="384.62" y="-19.2" font-family="Helvetica,sans-Serif" font-size="9.00">Cryogenic Transport &#45; Large</text>
<text xml:space="preserve" text-anchor="middle" x="384.62" y="-9.45" font-family="Helvetica,sans-Serif" font-size="9.00">100 RP</text>
</g>
<!-- Cryogenic_Transport___Conventi -->
<g id="node4" class="node">
<title>Cryogenic_Transport___Conventi</title>
<path fill="#d4edda" stroke="black" d="M472.38,-180C472.38,-180 334.88,-180 334.88,-180 328.88,-180 322.88,-174 322.88,-168 322.88,-168 322.88,-156 322.88,-156 322.88,-150 328.88,-144 334.88,-144 334.88,-144 472.38,-144 472.38,-144 478.38,-144 484.38,-150 484.38,-156 484.38,-156 484.38,-168 484.38,-168 484.38,-174 478.38,-180 472.38,-180"/>
<text xml:space="preserve" text-anchor="middle" x="403.62" y="-163.2" font-family="Helvetica,sans-Serif" font-size="9.00">Cryogenic Transport &#45; Conventional</text>
<text xml:space="preserve" text-anchor="middle" x="403.62" y="-153.45" font-family="Helvetica,sans-Serif" font-size="9.00">500 RP</text>
</g>
<!-- Cryogenic_Transport -->
<g id="node5" class="node">
<title>Cryogenic_Transport</title>
<path fill="#cce5ff" stroke="black" d="M274.25,-108C274.25,-108 199,-108 199,-108 193,-108 187,-102 187,-96 187,-96 187,-84 187,-84 187,-78 193,-72 199,-72 199,-72 274.25,-72 274.25,-72 280.25,-72 286.25,-78 286.25,-84 286.25,-84 286.25,-96 286.25,-96 286.25,-102 280.25,-108 274.25,-108"/>
<text xml:space="preserve" text-anchor="middle" x="236.62" y="-91.2" font-family="Helvetica,sans-Serif" font-size="9.00">Cryogenic Transport</text>
<text xml:space="preserve" text-anchor="middle" x="236.62" y="-81.45" font-family="Helvetica,sans-Serif" font-size="9.00">2K RP</text>
</g>
<!-- Cryogenic_Transport&#45;&gt;Cryogenic_Transport___Emergenc -->
<g id="edge1" class="edge">
<title>Cryogenic_Transport&#45;&gt;Cryogenic_Transport___Emergenc</title>
<path fill="none" stroke="black" d="M196.66,-71.52C174.34,-61.75 146.41,-49.53 123.11,-39.34"/>
<polygon fill="black" stroke="black" points="124.08,-37.47 117.74,-36.99 122.4,-41.32 124.08,-37.47"/>
</g>
<!-- Cryogenic_Transport&#45;&gt;Cryogenic_Transport___Small -->
<g id="edge2" class="edge">
<title>Cryogenic_Transport&#45;&gt;Cryogenic_Transport___Small</title>
<path fill="none" stroke="black" d="M236.62,-71.7C236.62,-63.22 236.62,-52.86 236.62,-43.58"/>
<polygon fill="black" stroke="black" points="238.73,-43.62 236.63,-37.62 234.53,-43.62 238.73,-43.62"/>
</g>
<!-- Cryogenic_Transport&#45;&gt;Cryogenic_Transport___Large -->
<g id="edge3" class="edge">
<title>Cryogenic_Transport&#45;&gt;Cryogenic_Transport___Large</title>
<path fill="none" stroke="black" d="M273.59,-71.52C294.15,-61.79 319.85,-49.64 341.35,-39.47"/>
<polygon fill="black" stroke="black" points="341.98,-41.49 346.51,-37.03 340.19,-37.7 341.98,-41.49"/>
</g>
<!-- Ark_Module -->
<g id="node6" class="node">
<title>Ark_Module</title>
<path fill="#cce5ff" stroke="black" d="M552.88,-180C552.88,-180 514.38,-180 514.38,-180 508.38,-180 502.38,-174 502.38,-168 502.38,-168 502.38,-156 502.38,-156 502.38,-150 508.38,-144 514.38,-144 514.38,-144 552.88,-144 552.88,-144 558.88,-144 564.88,-150 564.88,-156 564.88,-156 564.88,-168 564.88,-168 564.88,-174 558.88,-180 552.88,-180"/>
<text xml:space="preserve" text-anchor="middle" x="533.62" y="-163.2" font-family="Helvetica,sans-Serif" font-size="9.00">Ark Module</text>
<text xml:space="preserve" text-anchor="middle" x="533.62" y="-153.45" font-family="Helvetica,sans-Serif" font-size="9.00">5K RP</text>
</g>
<!-- ext_Trans_Newtonian_Technology -->
<g id="node7" class="node">
<title>ext_Trans_Newtonian_Technology</title>
<path fill="#f0f0f0" stroke="black" stroke-dasharray="5,2" d="M292.62,-180C292.62,-180 180.62,-180 180.62,-180 174.62,-180 168.62,-174 168.62,-168 168.62,-168 168.62,-156 168.62,-156 168.62,-150 174.62,-144 180.62,-144 180.62,-144 292.62,-144 292.62,-144 298.62,-144 304.62,-150 304.62,-156 304.62,-156 304.62,-168 304.62,-168 304.62,-174 298.62,-180 292.62,-180"/>
<text xml:space="preserve" text-anchor="middle" x="236.62" y="-158.32" font-family="Helvetica,sans-Serif" font-size="9.00">Trans&#45;Newtonian Technology</text>
</g>
<!-- ext_Trans_Newtonian_Technology&#45;&gt;Cryogenic_Transport -->
<g id="edge4" class="edge">
<title>ext_Trans_Newtonian_Technology&#45;&gt;Cryogenic_Transport</title>
<path fill="none" stroke="black" d="M236.62,-143.7C236.62,-135.22 236.62,-124.86 236.62,-115.58"/>
<polygon fill="black" stroke="black" points="238.73,-115.62 236.63,-109.62 234.53,-115.62 238.73,-115.62"/>
</g>
</g>
</svg>
