<?xml version="1.0" encoding="UTF-8" standalone="no"?>
<!DOCTYPE svg PUBLIC "-//W3C//DTD SVG 1.1//EN"
 "http://www.w3.org/Graphics/SVG/1.1/DTD/svg11.dtd">
<!-- Generated by graphviz version 14.1.2 (20260124.0452)
 -->
<!-- Title: TechTree Pages: 1 -->
<svg width="216pt" height="281pt"
 viewBox="0.00 0.00 216.00 281.00" xmlns="http://www.w3.org/2000/svg" xmlns:xlink="http://www.w3.org/1999/xlink">
<g id="graph0" class="graph" transform="scale(1 1) rotate(0) translate(4 276.75)">
<title>TechTree</title>
<polygon fill="white" stroke="none" points="-4,4 -4,-276.75 212,-276.75 212,4 -4,4"/>
<text xml:space="preserve" text-anchor="middle" x="104" y="-257.35" font-family="Helvetica,sans-Serif" font-weight="bold" font-size="12.00">Damage Control</text>
<!-- Damage_Control -->
<g id="node1" class="node">
<title>Damage_Control</title>
<path fill="#cce5ff" stroke="black" d="M112.75,-180C112.75,-180 53.25,-180 53.25,-180 47.25,-180 41.25,-174 41.25,-168 41.25,-168 41.25,-156 41.25,-156 41.25,-150 47.25,-144 53.25,-144 53.25,-144 112.75,-144 112.75,-144 118.75,-144 124.75,-150 124.75,-156 124.75,-156 124.75,-168 124.75,-168 124.75,-174 118.75,-180 112.75,-180"/>
<text xml:space="preserve" text-anchor="middle" x="83" y="-163.2" font-family="Helvetica,sans-Serif" font-size="9.00">Damage Control</text>
<text xml:space="preserve" text-anchor="middle" x="83" y="-153.45" font-family="Helvetica,sans-Serif" font-size="9.00">5K RP</text>
</g>
<!-- Improved_Damage_Control -->
<g id="node2" class="node">
<title>Improved_Damage_Control</title>
<path fill="#fff3cd" stroke="black" d="M133,-108C133,-108 33,-108 33,-108 27,-108 21,-102 21,-96 21,-96 21,-84 21,-84 21,-78 27,-72 33,-72 33,-72 133,-72 133,-72 139,-72 145,-78 145,-84 145,-84 145,-96 145,-96 145,-102 139,-108 133,-108"/>
<text xml:space="preserve" text-anchor="middle" x="83" y="-91.2" font-family="Helvetica,sans-Serif" font-size="9.00">Improved Damage Control</text>
<text xml:space="preserve" text-anchor="middle" x="83" y="-81.45" font-family="Helvetica,sans-Serif" font-size="9.00">15K RP</text>
</g>
<!-- Damage_Control&#45;&gt;Improved_Damage_Control -->
<g id="edge3" class="edge">
<title>Damage_Control&#45;&gt;Improved_Damage_Control</title>
<path fill="none" stroke="black" d="M83,-143.7C83,-135.22 83,-124.86 83,-115.58"/>
<polygon fill="black" stroke="black" points="85.1,-115.62 83,-109.62 80.9,-115.62 85.1,-115.62"/>
</g>
<!-- Advanced_Damage_Control -->
<g id="node3" class="node">
<title>Advanced_Damage_Control</title>
<path fill="#fff3cd" stroke="black" d="M134.5,-36C134.5,-36 31.5,-36 31.5,-36 25.5,-36 19.5,-30 19.5,-24 19.5,-24 19.5,-12 19.5,-12 19.5,-6 25.5,0 31.5,0 31.5,0 134.5,0 134.5,0 140.5,0 146.5,-6 146.5,-12 146.5,-12 146.5,-24 146.5,-24 146.5,-30 140.5,-36 134.5,-36"/>
<text xml:space="preserve" text-anchor="middle" x="83" y="-19.2" font-family="Helvetica,sans-Serif" font-size="9.00">Advanced Damage Control</text>
<text xml:space="preserve" text-anchor="middle" x="83" y="-9.45" font-family="Helvetica,sans-Serif" font-size="9.00">45K RP</text>
</g>
<!-- Improved_Damage_Control&#45;&gt;Advanced_Damage_Control -->
<g id="edge4" class="edge">
<title>Improved_Damage_Control&#45;&gt;Advanced_Damage_Control</title>
<path fill="none" stroke="black" d="M83,-71.7C83,-63.22 83,-52.86 83,-43.58"/>
<polygon fill="black" stroke="black" points="85.1,-43.62 83,-37.62 80.9,-43.62 85.1,-43.62"/>
</g>
<!-- ext_Bridge -->
<g id="node4" class="node">
<title>ext_Bridge</title>
<path fill="#f0f0f0" stroke="black" stroke-dasharray="5,2" d="M42,-252C42,-252 12,-252 12,-252 6,-252 0,-246 0,-240 0,-240 0,-228 0,-228 0,-222 6,-216 12,-216 12,-216 42,-216 42,-216 48,-216 54,-222 54,-228 54,-228 54,-240 54,-240 54,-246 48,-252 42,-252"/>
<text xml:space="preserve" text-anchor="middle" x="27" y="-230.32" font-family="Helvetica,sans-Serif" font-size="9.00">Bridge</text>
</g>
<!-- ext_Bridge&#45;&gt;Damage_Control -->
<g id="edge1" class="edge">
<title>ext_Bridge&#45;&gt;Damage_Control</title>
<path fill="none" stroke="black" d="M40.84,-215.7C48.03,-206.71 56.91,-195.61 64.66,-185.92"/>
<polygon fill="black" stroke="black" points="66.26,-187.28 68.37,-181.29 62.98,-184.66 66.26,-187.28"/>
</g>
<!-- ext_Trans_Newtonian_Technology -->
<g id="node5" class="node">
<title>ext_Trans_Newtonian_Technology</title>
<path fill="#f0f0f0" stroke="black" stroke-dasharray="5,2" d="M196,-252C196,-252 84,-252 84,-252 78,-252 72,-246 72,-240 72,-240 72,-228 72,-228 72,-222 78,-216 84,-216 84,-216 196,-216 196,-216 202,-216 208,-222 208,-228 208,-228 208,-240 208,-240 208,-246 202,-252 196,-252"/>
<text xml:space="preserve" text-anchor="middle" x="140" y="-230.32" font-family="Helvetica,sans-Serif" font-size="9.00">Trans&#45;Newtonian Technology</text>
</g>
<!-- ext_Trans_Newtonian_Technology&#45;&gt;Damage_Control -->
<g id="edge2" class="edge">
<title>ext_Trans_Newtonian_Technology&#45;&gt;Damage_Control</title>
<path fill="none" stroke="black" d="M125.91,-215.7C118.59,-206.71 109.56,-195.61 101.67,-185.92"/>
<polygon fill="black" stroke="black" points="103.3,-184.6 97.88,-181.28 100.04,-187.26 103.3,-184.6"/>
</g>
</g>
</svg>
