<?xml version="1.0" encoding="UTF-8" standalone="no"?>
<!DOCTYPE svg PUBLIC "-//W3C//DTD SVG 1.1//EN"
 "http://www.w3.org/Graphics/SVG/1.1/DTD/svg11.dtd">
<!-- Generated by graphviz version 14.1.2 (20260124.0452)
 -->
<!-- Title: TechTree Pages: 1 -->
<svg width="418pt" height="67pt"
 viewBox="0.00 0.00 418.00 67.00" xmlns="http://www.w3.org/2000/svg" xmlns:xlink="http://www.w3.org/1999/xlink">
<g id="graph0" class="graph" transform="scale(1 1) rotate(0) translate(4 63)">
<title>TechTree</title>
<polygon fill="white" stroke="none" points="-4,4 -4,-63 413.75,-63 413.75,4 -4,4"/>
<text xml:space="preserve" text-anchor="middle" x="204.88" y="-41.7" font-family="Helvetica,sans-Serif" font-weight="bold" font-size="14.00">Damage Control</text>
<!-- Damage_Control -->
<g id="node1" class="node">
<title>Damage_Control</title>
<path fill="#cce5ff" stroke="black" d="M75.25,-36C75.25,-36 12,-36 12,-36 6,-36 0,-30 0,-24 0,-24 0,-12 0,-12 0,-6 6,0 12,0 12,0 75.25,0 75.25,0 81.25,0 87.25,-6 87.25,-12 87.25,-12 87.25,-24 87.25,-24 87.25,-30 81.25,-36 75.25,-36"/>
<text xml:space="preserve" text-anchor="middle" x="43.62" y="-19.75" font-family="Helvetica,sans-Serif" font-size="10.00">Damage Control</text>
<text xml:space="preserve" text-anchor="middle" x="43.62" y="-8.5" font-family="Helvetica,sans-Serif" font-size="10.00">5K RP</text>
</g>
<!-- Improved_Damage_Control -->
<g id="node2" class="node">
<title>Improved_Damage_Control</title>
<path fill="#fff3cd" stroke="black" d="M235,-36C235,-36 128.25,-36 128.25,-36 122.25,-36 116.25,-30 116.25,-24 116.25,-24 116.25,-12 116.25,-12 116.25,-6 122.25,0 128.25,0 128.25,0 235,0 235,0 241,0 247,-6 247,-12 247,-12 247,-24 247,-24 247,-30 241,-36 235,-36"/>
<text xml:space="preserve" text-anchor="middle" x="181.62" y="-19.75" font-family="Helvetica,sans-Serif" font-size="10.00">Improved Damage Control</text>
<text xml:space="preserve" text-anchor="middle" x="181.62" y="-8.5" font-family="Helvetica,sans-Serif" font-size="10.00">15K RP</text>
</g>
<!-- Damage_Control&#45;&gt;Improved_Damage_Control -->
<g id="edge1" class="edge">
<title>Damage_Control&#45;&gt;Improved_Damage_Control</title>
<path fill="none" stroke="black" d="M87.66,-18C94.14,-18 100.98,-18 107.89,-18"/>
<polygon fill="black" stroke="black" points="107.5,-20.45 114.5,-18 107.5,-15.55 107.5,-20.45"/>
</g>
<!-- Advanced_Damage_Control -->
<g id="node3" class="node">
<title>Advanced_Damage_Control</title>
<path fill="#fff3cd" stroke="black" d="M397.75,-36C397.75,-36 288,-36 288,-36 282,-36 276,-30 276,-24 276,-24 276,-12 276,-12 276,-6 282,0 288,0 288,0 397.75,0 397.75,0 403.75,0 409.75,-6 409.75,-12 409.75,-12 409.75,-24 409.75,-24 409.75,-30 403.75,-36 397.75,-36"/>
<text xml:space="preserve" text-anchor="middle" x="342.88" y="-19.75" font-family="Helvetica,sans-Serif" font-size="10.00">Advanced Damage Control</text>
<text xml:space="preserve" text-anchor="middle" x="342.88" y="-8.5" font-family="Helvetica,sans-Serif" font-size="10.00">45K RP</text>
</g>
<!-- Improved_Damage_Control&#45;&gt;Advanced_Damage_Control -->
<g id="edge2" class="edge">
<title>Improved_Damage_Control&#45;&gt;Advanced_Damage_Control</title>
<path fill="none" stroke="black" d="M247.4,-18C253.94,-18 260.61,-18 267.25,-18"/>
<polygon fill="black" stroke="black" points="267.09,-20.45 274.09,-18 267.09,-15.55 267.09,-20.45"/>
</g>
</g>
</svg>
