<?xml version="1.0" encoding="UTF-8" standalone="no"?>
<!DOCTYPE svg PUBLIC "-//W3C//DTD SVG 1.1//EN"
 "http://www.w3.org/Graphics/SVG/1.1/DTD/svg11.dtd">
<!-- Generated by graphviz version 14.1.2 (20260124.0452)
 -->
<!-- Title: TechTree Pages: 1 -->
<svg width="187pt" height="137pt"
 viewBox="0.00 0.00 187.00 137.00" xmlns="http://www.w3.org/2000/svg" xmlns:xlink="http://www.w3.org/1999/xlink">
<g id="graph0" class="graph" transform="scale(1 1) rotate(0) translate(4 132.75)">
<title>TechTree</title>
<polygon fill="white" stroke="none" points="-4,4 -4,-132.75 182.75,-132.75 182.75,4 -4,4"/>
<text xml:space="preserve" text-anchor="middle" x="89.38" y="-113.35" font-family="Helvetica,sans-Serif" font-weight="bold" font-size="12.00">Decontamination Equipment</text>
<!-- Decontamination_Equipment -->
<g id="node1" class="node">
<title>Decontamination_Equipment</title>
<path fill="#cce5ff" stroke="black" d="M143.5,-36C143.5,-36 35.25,-36 35.25,-36 29.25,-36 23.25,-30 23.25,-24 23.25,-24 23.25,-12 23.25,-12 23.25,-6 29.25,0 35.25,0 35.25,0 143.5,0 143.5,0 149.5,0 155.5,-6 155.5,-12 155.5,-12 155.5,-24 155.5,-24 155.5,-30 149.5,-36 143.5,-36"/>
<text xml:space="preserve" text-anchor="middle" x="89.38" y="-19.2" font-family="Helvetica,sans-Serif" font-size="9.00">Decontamination Equipment</text>
<text xml:space="preserve" text-anchor="middle" x="89.38" y="-9.45" font-family="Helvetica,sans-Serif" font-size="9.00">2K RP</text>
</g>
<!-- ext_Light_Vehicle_Armour___ARM_2 -->
<g id="node2" class="node">
<title>ext_Light_Vehicle_Armour___ARM_2</title>
<path fill="#f0f0f0" stroke="black" stroke-dasharray="5,2" d="M145.38,-108C145.38,-108 33.38,-108 33.38,-108 27.37,-108 21.38,-102 21.38,-96 21.38,-96 21.38,-84 21.38,-84 21.38,-78 27.38,-72 33.38,-72 33.38,-72 145.38,-72 145.38,-72 151.38,-72 157.38,-78 157.38,-84 157.38,-84 157.38,-96 157.38,-96 157.38,-102 151.38,-108 145.38,-108"/>
<text xml:space="preserve" text-anchor="middle" x="89.38" y="-86.33" font-family="Helvetica,sans-Serif" font-size="9.00">Light Vehicle Armour &#45; ARM 2</text>
</g>
<!-- ext_Light_Vehicle_Armour___ARM_2&#45;&gt;Decontamination_Equipment -->
<g id="edge1" class="edge">
<title>ext_Light_Vehicle_Armour___ARM_2&#45;&gt;Decontamination_Equipment</title>
<path fill="none" stroke="black" d="M89.38,-71.7C89.38,-63.22 89.38,-52.86 89.38,-43.58"/>
<polygon fill="black" stroke="black" points="91.48,-43.62 89.38,-37.62 87.28,-43.62 91.48,-43.62"/>
</g>
</g>
</svg>
