<?xml version="1.0" encoding="UTF-8" standalone="no"?>
<!DOCTYPE svg PUBLIC "-//W3C//DTD SVG 1.1//EN"
 "http://www.w3.org/Graphics/SVG/1.1/DTD/svg11.dtd">
<!-- Generated by graphviz version 14.1.2 (20260124.0452)
 -->
<!-- Title: TechTree Pages: 1 -->
<svg width="209pt" height="67pt"
 viewBox="0.00 0.00 209.00 67.00" xmlns="http://www.w3.org/2000/svg" xmlns:xlink="http://www.w3.org/1999/xlink">
<g id="graph0" class="graph" transform="scale(1 1) rotate(0) translate(4 63)">
<title>TechTree</title>
<polygon fill="white" stroke="none" points="-4,4 -4,-63 204.5,-63 204.5,4 -4,4"/>
<text xml:space="preserve" text-anchor="middle" x="100.25" y="-41.7" font-family="Helvetica,sans-Serif" font-weight="bold" font-size="14.00">Decontamination Equipment</text>
<!-- Decontamination_Equipment -->
<g id="node1" class="node">
<title>Decontamination_Equipment</title>
<path fill="#cce5ff" stroke="black" d="M157.75,-36C157.75,-36 42.75,-36 42.75,-36 36.75,-36 30.75,-30 30.75,-24 30.75,-24 30.75,-12 30.75,-12 30.75,-6 36.75,0 42.75,0 42.75,0 157.75,0 157.75,0 163.75,0 169.75,-6 169.75,-12 169.75,-12 169.75,-24 169.75,-24 169.75,-30 163.75,-36 157.75,-36"/>
<text xml:space="preserve" text-anchor="middle" x="100.25" y="-19.75" font-family="Helvetica,sans-Serif" font-size="10.00">Decontamination Equipment</text>
<text xml:space="preserve" text-anchor="middle" x="100.25" y="-8.5" font-family="Helvetica,sans-Serif" font-size="10.00">2K RP</text>
</g>
</g>
</svg>
