<?xml version="1.0" encoding="UTF-8" standalone="no"?>
<!DOCTYPE svg PUBLIC "-//W3C//DTD SVG 1.1//EN"
 "http://www.w3.org/Graphics/SVG/1.1/DTD/svg11.dtd">
<!-- Generated by graphviz version 14.1.2 (20260124.0452)
 -->
<!-- Title: TechTree Pages: 1 -->
<svg width="130pt" height="65pt"
 viewBox="0.00 0.00 130.00 65.00" xmlns="http://www.w3.org/2000/svg" xmlns:xlink="http://www.w3.org/1999/xlink">
<g id="graph0" class="graph" transform="scale(1 1) rotate(0) translate(4 60.75)">
<title>TechTree</title>
<polygon fill="white" stroke="none" points="-4,4 -4,-60.75 125.75,-60.75 125.75,4 -4,4"/>
<text xml:space="preserve" text-anchor="middle" x="60.88" y="-41.35" font-family="Helvetica,sans-Serif" font-weight="bold" font-size="12.00">Diplomacy Module</text>
<!-- Diplomacy_Module -->
<g id="node1" class="node">
<title>Diplomacy_Module</title>
<path fill="#d4edda" stroke="black" d="M95.12,-36C95.12,-36 26.62,-36 26.62,-36 20.62,-36 14.62,-30 14.62,-24 14.62,-24 14.62,-12 14.62,-12 14.62,-6 20.62,0 26.62,0 26.62,0 95.12,0 95.12,0 101.12,0 107.12,-6 107.12,-12 107.12,-12 107.12,-24 107.12,-24 107.12,-30 101.12,-36 95.12,-36"/>
<text xml:space="preserve" text-anchor="middle" x="60.88" y="-19.2" font-family="Helvetica,sans-Serif" font-size="9.00">Diplomacy Module</text>
<text xml:space="preserve" text-anchor="middle" x="60.88" y="-9.45" font-family="Helvetica,sans-Serif" font-size="9.00">10 RP</text>
</g>
</g>
</svg>
