<?xml version="1.0" encoding="UTF-8" standalone="no"?>
<!DOCTYPE svg PUBLIC "-//W3C//DTD SVG 1.1//EN"
 "http://www.w3.org/Graphics/SVG/1.1/DTD/svg11.dtd">
<!-- Generated by graphviz version 14.1.2 (20260124.0452)
 -->
<!-- Title: TechTree Pages: 1 -->
<svg width="145pt" height="67pt"
 viewBox="0.00 0.00 145.00 67.00" xmlns="http://www.w3.org/2000/svg" xmlns:xlink="http://www.w3.org/1999/xlink">
<g id="graph0" class="graph" transform="scale(1 1) rotate(0) translate(4 63)">
<title>TechTree</title>
<polygon fill="white" stroke="none" points="-4,4 -4,-63 140.75,-63 140.75,4 -4,4"/>
<text xml:space="preserve" text-anchor="middle" x="68.38" y="-41.7" font-family="Helvetica,sans-Serif" font-weight="bold" font-size="14.00">Diplomacy Module</text>
<!-- Diplomacy_Module -->
<g id="node1" class="node">
<title>Diplomacy_Module</title>
<path fill="#d4edda" stroke="black" d="M104.88,-36C104.88,-36 31.88,-36 31.88,-36 25.88,-36 19.88,-30 19.88,-24 19.88,-24 19.88,-12 19.88,-12 19.88,-6 25.88,0 31.88,0 31.88,0 104.88,0 104.88,0 110.88,0 116.88,-6 116.88,-12 116.88,-12 116.88,-24 116.88,-24 116.88,-30 110.88,-36 104.88,-36"/>
<text xml:space="preserve" text-anchor="middle" x="68.38" y="-19.75" font-family="Helvetica,sans-Serif" font-size="10.00">Diplomacy Module</text>
<text xml:space="preserve" text-anchor="middle" x="68.38" y="-8.5" font-family="Helvetica,sans-Serif" font-size="10.00">10 RP</text>
</g>
</g>
</svg>
