<?xml version="1.0" encoding="UTF-8" standalone="no"?>
<!DOCTYPE svg PUBLIC "-//W3C//DTD SVG 1.1//EN"
 "http://www.w3.org/Graphics/SVG/1.1/DTD/svg11.dtd">
<!-- Generated by graphviz version 14.1.2 (20260124.0452)
 -->
<!-- Title: TechTree Pages: 1 -->
<svg width="354pt" height="137pt"
 viewBox="0.00 0.00 354.00 137.00" xmlns="http://www.w3.org/2000/svg" xmlns:xlink="http://www.w3.org/1999/xlink">
<g id="graph0" class="graph" transform="scale(1 1) rotate(0) translate(4 132.75)">
<title>TechTree</title>
<polygon fill="white" stroke="none" points="-4,4 -4,-132.75 350,-132.75 350,4 -4,4"/>
<text xml:space="preserve" text-anchor="middle" x="173" y="-113.35" font-family="Helvetica,sans-Serif" font-weight="bold" font-size="12.00">ECCM</text>
<!-- Electronic_Counter_countermeas -->
<g id="node1" class="node">
<title>Electronic_Counter_countermeas</title>
<path fill="#f8d7da" stroke="black" d="M172,-36C172,-36 12,-36 12,-36 6,-36 0,-30 0,-24 0,-24 0,-12 0,-12 0,-6 6,0 12,0 12,0 172,0 172,0 178,0 184,-6 184,-12 184,-12 184,-24 184,-24 184,-30 178,-36 172,-36"/>
<text xml:space="preserve" text-anchor="middle" x="92" y="-19.2" font-family="Helvetica,sans-Serif" font-size="9.00">Electronic Counter&#45;countermeasures &#45; 10</text>
<text xml:space="preserve" text-anchor="middle" x="92" y="-9.45" font-family="Helvetica,sans-Serif" font-size="9.00">2.5M RP</text>
</g>
<!-- Electronic_Counter_countermeas&#45;&gt;Electronic_Counter_countermeas -->
<g id="edge2" class="edge">
<title>Electronic_Counter_countermeas&#45;&gt;Electronic_Counter_countermeas</title>
<path fill="none" stroke="black" d="M184.28,-19.28C195.02,-19.04 202,-18.62 202,-18 202,-17.54 198.07,-17.18 191.58,-16.93"/>
<polygon fill="black" stroke="black" points="191.85,-14.84 185.79,-16.76 191.73,-19.04 191.85,-14.84"/>
</g>
<!-- Electronic_Counter_countermeas&#45;&gt;Electronic_Counter_countermeas -->
<g id="edge3" class="edge">
<title>Electronic_Counter_countermeas&#45;&gt;Electronic_Counter_countermeas</title>
<path fill="none" stroke="black" d="M184.34,-20.92C204.95,-20.65 220,-19.68 220,-18 220,-16.53 208.48,-15.6 191.79,-15.21"/>
<polygon fill="black" stroke="black" points="191.89,-13.11 185.85,-15.1 191.81,-17.31 191.89,-13.11"/>
</g>
<!-- Electronic_Counter_countermeas&#45;&gt;Electronic_Counter_countermeas -->
<g id="edge4" class="edge">
<title>Electronic_Counter_countermeas&#45;&gt;Electronic_Counter_countermeas</title>
<path fill="none" stroke="black" d="M184.32,-22.5C214.23,-22.46 238,-20.96 238,-18 238,-15.28 217.97,-13.79 191.55,-13.54"/>
<polygon fill="black" stroke="black" points="191.84,-11.44 185.83,-13.51 191.82,-15.64 191.84,-11.44"/>
</g>
<!-- Electronic_Counter_countermeas&#45;&gt;Electronic_Counter_countermeas -->
<g id="edge5" class="edge">
<title>Electronic_Counter_countermeas&#45;&gt;Electronic_Counter_countermeas</title>
<path fill="none" stroke="black" d="M184.31,-23.94C223.07,-24.37 256,-22.39 256,-18 256,-13.88 227.06,-11.89 191.51,-12.01"/>
<polygon fill="black" stroke="black" points="191.81,-9.9 185.83,-12.05 191.84,-14.1 191.81,-9.9"/>
</g>
<!-- Electronic_Counter_countermeas&#45;&gt;Electronic_Counter_countermeas -->
<g id="edge6" class="edge">
<title>Electronic_Counter_countermeas&#45;&gt;Electronic_Counter_countermeas</title>
<path fill="none" stroke="black" d="M184.24,-25.25C231.51,-26.33 274,-23.92 274,-18 274,-12.39 235.87,-9.93 191.67,-10.61"/>
<polygon fill="black" stroke="black" points="191.71,-8.51 185.75,-10.72 191.79,-12.71 191.71,-8.51"/>
</g>
<!-- Electronic_Counter_countermeas&#45;&gt;Electronic_Counter_countermeas -->
<g id="edge7" class="edge">
<title>Electronic_Counter_countermeas&#45;&gt;Electronic_Counter_countermeas</title>
<path fill="none" stroke="black" d="M184.32,-26.43C239.75,-28.32 292,-25.51 292,-18 292,-10.83 244.34,-7.94 191.77,-9.34"/>
<polygon fill="black" stroke="black" points="191.76,-7.24 185.83,-9.53 191.89,-11.44 191.76,-7.24"/>
</g>
<!-- Electronic_Counter_countermeas&#45;&gt;Electronic_Counter_countermeas -->
<g id="edge8" class="edge">
<title>Electronic_Counter_countermeas&#45;&gt;Electronic_Counter_countermeas</title>
<path fill="none" stroke="black" d="M184.41,-27.5C247.78,-30.33 310,-27.16 310,-18 310,-9.2 252.55,-5.93 191.83,-8.2"/>
<polygon fill="black" stroke="black" points="191.83,-6.09 185.92,-8.44 192,-10.29 191.83,-6.09"/>
</g>
<!-- Electronic_Counter_countermeas&#45;&gt;Electronic_Counter_countermeas -->
<g id="edge9" class="edge">
<title>Electronic_Counter_countermeas&#45;&gt;Electronic_Counter_countermeas</title>
<path fill="none" stroke="black" d="M184.36,-28.47C255.52,-32.35 328,-28.86 328,-18 328,-7.5 260.26,-3.89 191.45,-7.17"/>
<polygon fill="black" stroke="black" points="191.76,-5.05 185.87,-7.46 191.97,-9.25 191.76,-5.05"/>
</g>
<!-- Electronic_Counter_countermeas&#45;&gt;Electronic_Counter_countermeas -->
<g id="edge10" class="edge">
<title>Electronic_Counter_countermeas&#45;&gt;Electronic_Counter_countermeas</title>
<path fill="none" stroke="black" d="M184.47,-29.36C263.21,-34.37 346,-30.59 346,-18 346,-5.81 268.31,-1.87 191.86,-6.2"/>
<polygon fill="black" stroke="black" points="191.84,-4.1 185.98,-6.55 192.09,-8.29 191.84,-4.1"/>
</g>
<!-- ext_Electronic_Warfare -->
<g id="node2" class="node">
<title>ext_Electronic_Warfare</title>
<path fill="#f0f0f0" stroke="black" stroke-dasharray="5,2" d="M125.12,-108C125.12,-108 58.88,-108 58.88,-108 52.88,-108 46.88,-102 46.88,-96 46.88,-96 46.88,-84 46.88,-84 46.88,-78 52.88,-72 58.88,-72 58.88,-72 125.12,-72 125.12,-72 131.12,-72 137.12,-78 137.12,-84 137.12,-84 137.12,-96 137.12,-96 137.12,-102 131.12,-108 125.12,-108"/>
<text xml:space="preserve" text-anchor="middle" x="92" y="-86.33" font-family="Helvetica,sans-Serif" font-size="9.00">Electronic Warfare</text>
</g>
<!-- ext_Electronic_Warfare&#45;&gt;Electronic_Counter_countermeas -->
<g id="edge1" class="edge">
<title>ext_Electronic_Warfare&#45;&gt;Electronic_Counter_countermeas</title>
<path fill="none" stroke="black" d="M92,-71.7C92,-63.22 92,-52.86 92,-43.58"/>
<polygon fill="black" stroke="black" points="94.1,-43.62 92,-37.62 89.9,-43.62 94.1,-43.62"/>
</g>
</g>
</svg>
