<?xml version="1.0" encoding="UTF-8" standalone="no"?>
<!DOCTYPE svg PUBLIC "-//W3C//DTD SVG 1.1//EN"
 "http://www.w3.org/Graphics/SVG/1.1/DTD/svg11.dtd">
<!-- Generated by graphviz version 14.1.2 (20260124.0452)
 -->
<!-- Title: TechTree Pages: 1 -->
<svg width="272pt" height="155pt"
 viewBox="0.00 0.00 272.00 155.00" xmlns="http://www.w3.org/2000/svg" xmlns:xlink="http://www.w3.org/1999/xlink">
<g id="graph0" class="graph" transform="scale(1 1) rotate(0) translate(4 151)">
<title>TechTree</title>
<polygon fill="white" stroke="none" points="-4,4 -4,-151 268.25,-151 268.25,4 -4,4"/>
<text xml:space="preserve" text-anchor="middle" x="132.12" y="-129.7" font-family="Helvetica,sans-Serif" font-weight="bold" font-size="14.00">ELINT</text>
<!-- Electronic_Intelligence_and_An -->
<g id="node1" class="node">
<title>Electronic_Intelligence_and_An</title>
<path fill="#fff3cd" stroke="black" d="M252.25,-36C252.25,-36 12,-36 12,-36 6,-36 0,-30 0,-24 0,-24 0,-12 0,-12 0,-6 6,0 12,0 12,0 252.25,0 252.25,0 258.25,0 264.25,-6 264.25,-12 264.25,-12 264.25,-24 264.25,-24 264.25,-30 258.25,-36 252.25,-36"/>
<text xml:space="preserve" text-anchor="middle" x="132.12" y="-19.75" font-family="Helvetica,sans-Serif" font-size="10.00">Electronic Intelligence and Analysis Module &#45; Strength 14</text>
<text xml:space="preserve" text-anchor="middle" x="132.12" y="-8.5" font-family="Helvetica,sans-Serif" font-size="10.00">30K RP</text>
</g>
<!-- Electronic_Intelligence_and_An&#45;&gt;Electronic_Intelligence_and_An -->
<g id="edge1" class="edge">
<title>Electronic_Intelligence_and_An&#45;&gt;Electronic_Intelligence_and_An</title>
<path fill="none" stroke="black" d="M120.61,-36.1C117.84,-47.32 121.67,-58 132.12,-58 139.96,-58 144.08,-51.99 144.48,-44.26"/>
<polygon fill="black" stroke="black" points="146.95,-44.32 143.79,-37.61 142.08,-44.82 146.95,-44.32"/>
</g>
<!-- Electronic_Intelligence_and_An&#45;&gt;Electronic_Intelligence_and_An -->
<g id="edge2" class="edge">
<title>Electronic_Intelligence_and_An&#45;&gt;Electronic_Intelligence_and_An</title>
<path fill="none" stroke="black" d="M113.54,-36.41C101.16,-56.75 107.35,-80 132.12,-80 154,-80 161.39,-61.88 154.29,-43.64"/>
<polygon fill="black" stroke="black" points="156.69,-42.94 151.38,-37.76 152.3,-45.12 156.69,-42.94"/>
</g>
<!-- Electronic_Intelligence_and_An&#45;&gt;Electronic_Intelligence_and_An -->
<g id="edge3" class="edge">
<title>Electronic_Intelligence_and_An&#45;&gt;Electronic_Intelligence_and_An</title>
<path fill="none" stroke="black" d="M109.48,-36.15C84.32,-65.03 91.87,-102 132.12,-102 169.39,-102 178.63,-70.32 159.83,-42.7"/>
<polygon fill="black" stroke="black" points="161.92,-41.39 155.7,-37.35 158.04,-44.38 161.92,-41.39"/>
</g>
<!-- Electronic_Intelligence_and_An&#45;&gt;Electronic_Intelligence_and_An -->
<g id="edge4" class="edge">
<title>Electronic_Intelligence_and_An&#45;&gt;Electronic_Intelligence_and_An</title>
<path fill="none" stroke="black" d="M106.26,-36.49C67.64,-73.46 76.26,-124 132.12,-124 185.16,-124 195.62,-78.46 163.51,-42.22"/>
<polygon fill="black" stroke="black" points="165.66,-40.92 159.04,-37.58 162.13,-44.32 165.66,-40.92"/>
</g>
</g>
</svg>
