<?xml version="1.0" encoding="UTF-8" standalone="no"?>
<!DOCTYPE svg PUBLIC "-//W3C//DTD SVG 1.1//EN"
 "http://www.w3.org/Graphics/SVG/1.1/DTD/svg11.dtd">
<!-- Generated by graphviz version 14.1.2 (20260124.0452)
 -->
<!-- Title: TechTree Pages: 1 -->
<svg width="650pt" height="137pt"
 viewBox="0.00 0.00 650.00 137.00" xmlns="http://www.w3.org/2000/svg" xmlns:xlink="http://www.w3.org/1999/xlink">
<g id="graph0" class="graph" transform="scale(1 1) rotate(0) translate(4 132.75)">
<title>TechTree</title>
<polygon fill="white" stroke="none" points="-4,4 -4,-132.75 645.62,-132.75 645.62,4 -4,4"/>
<text xml:space="preserve" text-anchor="middle" x="320.81" y="-113.35" font-family="Helvetica,sans-Serif" font-weight="bold" font-size="12.00">ELINT</text>
<!-- Electronic_Intelligence_and_An -->
<g id="node1" class="node">
<title>Electronic_Intelligence_and_An</title>
<path fill="#fff3cd" stroke="black" d="M428.25,-36C428.25,-36 203.75,-36 203.75,-36 197.75,-36 191.75,-30 191.75,-24 191.75,-24 191.75,-12 191.75,-12 191.75,-6 197.75,0 203.75,0 203.75,0 428.25,0 428.25,0 434.25,0 440.25,-6 440.25,-12 440.25,-12 440.25,-24 440.25,-24 440.25,-30 434.25,-36 428.25,-36"/>
<text xml:space="preserve" text-anchor="middle" x="316" y="-19.2" font-family="Helvetica,sans-Serif" font-size="9.00">Electronic Intelligence and Analysis Module &#45; Strength 14</text>
<text xml:space="preserve" text-anchor="middle" x="316" y="-9.45" font-family="Helvetica,sans-Serif" font-size="9.00">30K RP</text>
</g>
<!-- Electronic_Intelligence_and_An&#45;&gt;Electronic_Intelligence_and_An -->
<g id="edge2" class="edge">
<title>Electronic_Intelligence_and_An&#45;&gt;Electronic_Intelligence_and_An</title>
<path fill="none" stroke="black" d="M440.37,-20.66C451.36,-20.1 458.25,-19.21 458.25,-18 458.25,-17.09 454.37,-16.36 447.8,-15.82"/>
<polygon fill="black" stroke="black" points="448,-13.73 441.88,-15.44 447.73,-17.92 448,-13.73"/>
</g>
<!-- Electronic_Intelligence_and_An&#45;&gt;Electronic_Intelligence_and_An -->
<g id="edge4" class="edge">
<title>Electronic_Intelligence_and_An&#45;&gt;Electronic_Intelligence_and_An</title>
<path fill="none" stroke="black" d="M440.64,-24.29C461.69,-23.42 476.25,-21.32 476.25,-18 476.25,-15.07 464.9,-13.09 447.76,-12.07"/>
<polygon fill="black" stroke="black" points="448.25,-9.99 442.15,-11.79 448.04,-14.19 448.25,-9.99"/>
</g>
<!-- Electronic_Intelligence_and_An&#45;&gt;Electronic_Intelligence_and_An -->
<g id="edge6" class="edge">
<title>Electronic_Intelligence_and_An&#45;&gt;Electronic_Intelligence_and_An</title>
<path fill="none" stroke="black" d="M440.53,-27.98C471.3,-27.26 494.25,-23.93 494.25,-18 494.25,-12.55 474.91,-9.31 447.94,-8.25"/>
<polygon fill="black" stroke="black" points="448.11,-6.16 442.04,-8.07 447.98,-10.36 448.11,-6.16"/>
</g>
<!-- Electronic_Intelligence_and_An&#45;&gt;Electronic_Intelligence_and_An -->
<g id="edge8" class="edge">
<title>Electronic_Intelligence_and_An&#45;&gt;Electronic_Intelligence_and_An</title>
<path fill="none" stroke="black" d="M440.57,-31.5C480.56,-31.36 512.25,-26.86 512.25,-18 512.25,-9.69 484.39,-5.22 447.96,-4.58"/>
<polygon fill="black" stroke="black" points="448.1,-2.48 442.08,-4.52 448.06,-6.68 448.1,-2.48"/>
</g>
<!-- ext_EM_Sensor_Sensitivity_5 -->
<g id="node2" class="node">
<title>ext_EM_Sensor_Sensitivity_5</title>
<path fill="#f0f0f0" stroke="black" stroke-dasharray="5,2" d="M100,-108C100,-108 12,-108 12,-108 6,-108 0,-102 0,-96 0,-96 0,-84 0,-84 0,-78 6,-72 12,-72 12,-72 100,-72 100,-72 106,-72 112,-78 112,-84 112,-84 112,-96 112,-96 112,-102 106,-108 100,-108"/>
<text xml:space="preserve" text-anchor="middle" x="56" y="-86.33" font-family="Helvetica,sans-Serif" font-size="9.00">EM Sensor Sensitivity 5</text>
</g>
<!-- ext_EM_Sensor_Sensitivity_5&#45;&gt;Electronic_Intelligence_and_An -->
<g id="edge1" class="edge">
<title>ext_EM_Sensor_Sensitivity_5&#45;&gt;Electronic_Intelligence_and_An</title>
<path fill="none" stroke="black" d="M112.42,-73.81C151.1,-63.4 202.75,-49.49 244.34,-38.29"/>
<polygon fill="black" stroke="black" points="244.74,-40.36 249.99,-36.77 243.65,-36.3 244.74,-40.36"/>
</g>
<!-- ext_EM_Sensor_Sensitivity_6 -->
<g id="node3" class="node">
<title>ext_EM_Sensor_Sensitivity_6</title>
<path fill="#f0f0f0" stroke="black" stroke-dasharray="5,2" d="M230,-108C230,-108 142,-108 142,-108 136,-108 130,-102 130,-96 130,-96 130,-84 130,-84 130,-78 136,-72 142,-72 142,-72 230,-72 230,-72 236,-72 242,-78 242,-84 242,-84 242,-96 242,-96 242,-102 236,-108 230,-108"/>
<text xml:space="preserve" text-anchor="middle" x="186" y="-86.33" font-family="Helvetica,sans-Serif" font-size="9.00">EM Sensor Sensitivity 6</text>
</g>
<!-- ext_EM_Sensor_Sensitivity_6&#45;&gt;Electronic_Intelligence_and_An -->
<g id="edge3" class="edge">
<title>ext_EM_Sensor_Sensitivity_6&#45;&gt;Electronic_Intelligence_and_An</title>
<path fill="none" stroke="black" d="M218.47,-71.52C236.44,-61.84 258.89,-49.75 277.71,-39.62"/>
<polygon fill="black" stroke="black" points="278.32,-41.67 282.61,-36.98 276.33,-37.97 278.32,-41.67"/>
</g>
<!-- ext_EM_Sensor_Sensitivity_8 -->
<g id="node4" class="node">
<title>ext_EM_Sensor_Sensitivity_8</title>
<path fill="#f0f0f0" stroke="black" stroke-dasharray="5,2" d="M360,-108C360,-108 272,-108 272,-108 266,-108 260,-102 260,-96 260,-96 260,-84 260,-84 260,-78 266,-72 272,-72 272,-72 360,-72 360,-72 366,-72 372,-78 372,-84 372,-84 372,-96 372,-96 372,-102 366,-108 360,-108"/>
<text xml:space="preserve" text-anchor="middle" x="316" y="-86.33" font-family="Helvetica,sans-Serif" font-size="9.00">EM Sensor Sensitivity 8</text>
</g>
<!-- ext_EM_Sensor_Sensitivity_8&#45;&gt;Electronic_Intelligence_and_An -->
<g id="edge5" class="edge">
<title>ext_EM_Sensor_Sensitivity_8&#45;&gt;Electronic_Intelligence_and_An</title>
<path fill="none" stroke="black" d="M316,-71.7C316,-63.22 316,-52.86 316,-43.58"/>
<polygon fill="black" stroke="black" points="318.1,-43.62 316,-37.62 313.9,-43.62 318.1,-43.62"/>
</g>
<!-- ext_EM_Sensor_Sensitivity_11 -->
<g id="node5" class="node">
<title>ext_EM_Sensor_Sensitivity_11</title>
<path fill="#f0f0f0" stroke="black" stroke-dasharray="5,2" d="M493.88,-108C493.88,-108 402.12,-108 402.12,-108 396.12,-108 390.12,-102 390.12,-96 390.12,-96 390.12,-84 390.12,-84 390.12,-78 396.12,-72 402.12,-72 402.12,-72 493.88,-72 493.88,-72 499.88,-72 505.88,-78 505.88,-84 505.88,-84 505.88,-96 505.88,-96 505.88,-102 499.88,-108 493.88,-108"/>
<text xml:space="preserve" text-anchor="middle" x="448" y="-86.33" font-family="Helvetica,sans-Serif" font-size="9.00">EM Sensor Sensitivity 11</text>
</g>
<!-- ext_EM_Sensor_Sensitivity_11&#45;&gt;Electronic_Intelligence_and_An -->
<g id="edge7" class="edge">
<title>ext_EM_Sensor_Sensitivity_11&#45;&gt;Electronic_Intelligence_and_An</title>
<path fill="none" stroke="black" d="M415.03,-71.52C396.78,-61.84 373.99,-49.75 354.88,-39.62"/>
<polygon fill="black" stroke="black" points="356.17,-37.93 349.89,-36.97 354.2,-41.64 356.17,-37.93"/>
</g>
<!-- ext_EM_Sensor_Sensitivity_14 -->
<g id="node6" class="node">
<title>ext_EM_Sensor_Sensitivity_14</title>
<path fill="#f0f0f0" stroke="black" stroke-dasharray="5,2" d="M629.62,-108C629.62,-108 536.38,-108 536.38,-108 530.38,-108 524.38,-102 524.38,-96 524.38,-96 524.38,-84 524.38,-84 524.38,-78 530.38,-72 536.38,-72 536.38,-72 629.62,-72 629.62,-72 635.62,-72 641.62,-78 641.62,-84 641.62,-84 641.62,-96 641.62,-96 641.62,-102 635.62,-108 629.62,-108"/>
<text xml:space="preserve" text-anchor="middle" x="583" y="-86.33" font-family="Helvetica,sans-Serif" font-size="9.00">EM Sensor Sensitivity 14</text>
</g>
<!-- ext_EM_Sensor_Sensitivity_14&#45;&gt;Electronic_Intelligence_and_An -->
<g id="edge9" class="edge">
<title>ext_EM_Sensor_Sensitivity_14&#45;&gt;Electronic_Intelligence_and_An</title>
<path fill="none" stroke="black" d="M524.08,-73.55C484.44,-63.16 431.9,-49.39 389.53,-38.28"/>
<polygon fill="black" stroke="black" points="390.08,-36.25 383.75,-36.76 389.02,-40.31 390.08,-36.25"/>
</g>
</g>
</svg>
