<?xml version="1.0" encoding="UTF-8" standalone="no"?>
<!DOCTYPE svg PUBLIC "-//W3C//DTD SVG 1.1//EN"
 "http://www.w3.org/Graphics/SVG/1.1/DTD/svg11.dtd">
<!-- Generated by graphviz version 14.1.2 (20260124.0452)
 -->
<!-- Title: TechTree Pages: 1 -->
<svg width="166pt" height="782pt"
 viewBox="0.00 0.00 166.00 782.00" xmlns="http://www.w3.org/2000/svg" xmlns:xlink="http://www.w3.org/1999/xlink">
<g id="graph0" class="graph" transform="scale(1 1) rotate(0) translate(4 778)">
<title>TechTree</title>
<polygon fill="white" stroke="none" points="-4,4 -4,-778 161.75,-778 161.75,4 -4,4"/>
<text xml:space="preserve" text-anchor="middle" x="78.88" y="-756.7" font-family="Helvetica,sans-Serif" font-weight="bold" font-size="14.00">EM Sensor Sensitivity</text>
<!-- EM_Sensor_Sensitivity_5 -->
<g id="node1" class="node">
<title>EM_Sensor_Sensitivity_5</title>
<path fill="#cce5ff" stroke="black" d="M127.75,-751C127.75,-751 30,-751 30,-751 24,-751 18,-745 18,-739 18,-739 18,-727 18,-727 18,-721 24,-715 30,-715 30,-715 127.75,-715 127.75,-715 133.75,-715 139.75,-721 139.75,-727 139.75,-727 139.75,-739 139.75,-739 139.75,-745 133.75,-751 127.75,-751"/>
<text xml:space="preserve" text-anchor="middle" x="78.88" y="-734.75" font-family="Helvetica,sans-Serif" font-size="10.00">EM Sensor Sensitivity 5</text>
<text xml:space="preserve" text-anchor="middle" x="78.88" y="-723.5" font-family="Helvetica,sans-Serif" font-size="10.00">1K RP</text>
</g>
<!-- EM_Sensor_Sensitivity_6 -->
<g id="node2" class="node">
<title>EM_Sensor_Sensitivity_6</title>
<path fill="#cce5ff" stroke="black" d="M127.75,-686C127.75,-686 30,-686 30,-686 24,-686 18,-680 18,-674 18,-674 18,-662 18,-662 18,-656 24,-650 30,-650 30,-650 127.75,-650 127.75,-650 133.75,-650 139.75,-656 139.75,-662 139.75,-662 139.75,-674 139.75,-674 139.75,-680 133.75,-686 127.75,-686"/>
<text xml:space="preserve" text-anchor="middle" x="78.88" y="-669.75" font-family="Helvetica,sans-Serif" font-size="10.00">EM Sensor Sensitivity 6</text>
<text xml:space="preserve" text-anchor="middle" x="78.88" y="-658.5" font-family="Helvetica,sans-Serif" font-size="10.00">2K RP</text>
</g>
<!-- EM_Sensor_Sensitivity_5&#45;&gt;EM_Sensor_Sensitivity_6 -->
<g id="edge1" class="edge">
<title>EM_Sensor_Sensitivity_5&#45;&gt;EM_Sensor_Sensitivity_6</title>
<path fill="none" stroke="black" d="M78.88,-714.78C78.88,-708.53 78.88,-701.33 78.88,-694.52"/>
<polygon fill="black" stroke="black" points="81.33,-694.71 78.88,-687.71 76.43,-694.71 81.33,-694.71"/>
</g>
<!-- EM_Sensor_Sensitivity_8 -->
<g id="node3" class="node">
<title>EM_Sensor_Sensitivity_8</title>
<path fill="#cce5ff" stroke="black" d="M127.75,-621C127.75,-621 30,-621 30,-621 24,-621 18,-615 18,-609 18,-609 18,-597 18,-597 18,-591 24,-585 30,-585 30,-585 127.75,-585 127.75,-585 133.75,-585 139.75,-591 139.75,-597 139.75,-597 139.75,-609 139.75,-609 139.75,-615 133.75,-621 127.75,-621"/>
<text xml:space="preserve" text-anchor="middle" x="78.88" y="-604.75" font-family="Helvetica,sans-Serif" font-size="10.00">EM Sensor Sensitivity 8</text>
<text xml:space="preserve" text-anchor="middle" x="78.88" y="-593.5" font-family="Helvetica,sans-Serif" font-size="10.00">4K RP</text>
</g>
<!-- EM_Sensor_Sensitivity_6&#45;&gt;EM_Sensor_Sensitivity_8 -->
<g id="edge2" class="edge">
<title>EM_Sensor_Sensitivity_6&#45;&gt;EM_Sensor_Sensitivity_8</title>
<path fill="none" stroke="black" d="M78.88,-649.78C78.88,-643.53 78.88,-636.33 78.88,-629.52"/>
<polygon fill="black" stroke="black" points="81.33,-629.71 78.88,-622.71 76.43,-629.71 81.33,-629.71"/>
</g>
<!-- EM_Sensor_Sensitivity_11 -->
<g id="node4" class="node">
<title>EM_Sensor_Sensitivity_11</title>
<path fill="#cce5ff" stroke="black" d="M130.38,-556C130.38,-556 27.38,-556 27.38,-556 21.38,-556 15.37,-550 15.37,-544 15.37,-544 15.37,-532 15.37,-532 15.37,-526 21.37,-520 27.37,-520 27.37,-520 130.38,-520 130.38,-520 136.38,-520 142.38,-526 142.38,-532 142.38,-532 142.38,-544 142.38,-544 142.38,-550 136.38,-556 130.38,-556"/>
<text xml:space="preserve" text-anchor="middle" x="78.88" y="-539.75" font-family="Helvetica,sans-Serif" font-size="10.00">EM Sensor Sensitivity 11</text>
<text xml:space="preserve" text-anchor="middle" x="78.88" y="-528.5" font-family="Helvetica,sans-Serif" font-size="10.00">8K RP</text>
</g>
<!-- EM_Sensor_Sensitivity_8&#45;&gt;EM_Sensor_Sensitivity_11 -->
<g id="edge3" class="edge">
<title>EM_Sensor_Sensitivity_8&#45;&gt;EM_Sensor_Sensitivity_11</title>
<path fill="none" stroke="black" d="M78.88,-584.78C78.88,-578.53 78.88,-571.33 78.88,-564.52"/>
<polygon fill="black" stroke="black" points="81.33,-564.71 78.88,-557.71 76.43,-564.71 81.33,-564.71"/>
</g>
<!-- EM_Sensor_Sensitivity_14 -->
<g id="node5" class="node">
<title>EM_Sensor_Sensitivity_14</title>
<path fill="#fff3cd" stroke="black" d="M130.38,-491C130.38,-491 27.38,-491 27.38,-491 21.38,-491 15.37,-485 15.37,-479 15.37,-479 15.37,-467 15.37,-467 15.37,-461 21.37,-455 27.37,-455 27.37,-455 130.38,-455 130.38,-455 136.38,-455 142.38,-461 142.38,-467 142.38,-467 142.38,-479 142.38,-479 142.38,-485 136.38,-491 130.38,-491"/>
<text xml:space="preserve" text-anchor="middle" x="78.88" y="-474.75" font-family="Helvetica,sans-Serif" font-size="10.00">EM Sensor Sensitivity 14</text>
<text xml:space="preserve" text-anchor="middle" x="78.88" y="-463.5" font-family="Helvetica,sans-Serif" font-size="10.00">15K RP</text>
</g>
<!-- EM_Sensor_Sensitivity_11&#45;&gt;EM_Sensor_Sensitivity_14 -->
<g id="edge4" class="edge">
<title>EM_Sensor_Sensitivity_11&#45;&gt;EM_Sensor_Sensitivity_14</title>
<path fill="none" stroke="black" d="M78.88,-519.78C78.88,-513.53 78.88,-506.33 78.88,-499.52"/>
<polygon fill="black" stroke="black" points="81.33,-499.71 78.88,-492.71 76.43,-499.71 81.33,-499.71"/>
</g>
<!-- EM_Sensor_Sensitivity_18 -->
<g id="node6" class="node">
<title>EM_Sensor_Sensitivity_18</title>
<path fill="#fff3cd" stroke="black" d="M130.38,-426C130.38,-426 27.38,-426 27.38,-426 21.38,-426 15.37,-420 15.37,-414 15.37,-414 15.37,-402 15.37,-402 15.37,-396 21.37,-390 27.37,-390 27.37,-390 130.38,-390 130.38,-390 136.38,-390 142.38,-396 142.38,-402 142.38,-402 142.38,-414 142.38,-414 142.38,-420 136.38,-426 130.38,-426"/>
<text xml:space="preserve" text-anchor="middle" x="78.88" y="-409.75" font-family="Helvetica,sans-Serif" font-size="10.00">EM Sensor Sensitivity 18</text>
<text xml:space="preserve" text-anchor="middle" x="78.88" y="-398.5" font-family="Helvetica,sans-Serif" font-size="10.00">30K RP</text>
</g>
<!-- EM_Sensor_Sensitivity_14&#45;&gt;EM_Sensor_Sensitivity_18 -->
<g id="edge5" class="edge">
<title>EM_Sensor_Sensitivity_14&#45;&gt;EM_Sensor_Sensitivity_18</title>
<path fill="none" stroke="black" d="M78.88,-454.78C78.88,-448.53 78.88,-441.33 78.88,-434.52"/>
<polygon fill="black" stroke="black" points="81.33,-434.71 78.88,-427.71 76.43,-434.71 81.33,-434.71"/>
</g>
<!-- EM_Sensor_Sensitivity_24 -->
<g id="node7" class="node">
<title>EM_Sensor_Sensitivity_24</title>
<path fill="#fff3cd" stroke="black" d="M130.38,-361C130.38,-361 27.38,-361 27.38,-361 21.38,-361 15.37,-355 15.37,-349 15.37,-349 15.37,-337 15.37,-337 15.37,-331 21.37,-325 27.37,-325 27.37,-325 130.38,-325 130.38,-325 136.38,-325 142.38,-331 142.38,-337 142.38,-337 142.38,-349 142.38,-349 142.38,-355 136.38,-361 130.38,-361"/>
<text xml:space="preserve" text-anchor="middle" x="78.88" y="-344.75" font-family="Helvetica,sans-Serif" font-size="10.00">EM Sensor Sensitivity 24</text>
<text xml:space="preserve" text-anchor="middle" x="78.88" y="-333.5" font-family="Helvetica,sans-Serif" font-size="10.00">60K RP</text>
</g>
<!-- EM_Sensor_Sensitivity_18&#45;&gt;EM_Sensor_Sensitivity_24 -->
<g id="edge6" class="edge">
<title>EM_Sensor_Sensitivity_18&#45;&gt;EM_Sensor_Sensitivity_24</title>
<path fill="none" stroke="black" d="M78.88,-389.78C78.88,-383.53 78.88,-376.33 78.88,-369.52"/>
<polygon fill="black" stroke="black" points="81.33,-369.71 78.88,-362.71 76.43,-369.71 81.33,-369.71"/>
</g>
<!-- EM_Sensor_Sensitivity_32 -->
<g id="node8" class="node">
<title>EM_Sensor_Sensitivity_32</title>
<path fill="#d4c4fb" stroke="black" d="M130.38,-296C130.38,-296 27.38,-296 27.38,-296 21.38,-296 15.37,-290 15.37,-284 15.37,-284 15.37,-272 15.37,-272 15.37,-266 21.37,-260 27.37,-260 27.37,-260 130.38,-260 130.38,-260 136.38,-260 142.38,-266 142.38,-272 142.38,-272 142.38,-284 142.38,-284 142.38,-290 136.38,-296 130.38,-296"/>
<text xml:space="preserve" text-anchor="middle" x="78.88" y="-279.75" font-family="Helvetica,sans-Serif" font-size="10.00">EM Sensor Sensitivity 32</text>
<text xml:space="preserve" text-anchor="middle" x="78.88" y="-268.5" font-family="Helvetica,sans-Serif" font-size="10.00">120K RP</text>
</g>
<!-- EM_Sensor_Sensitivity_24&#45;&gt;EM_Sensor_Sensitivity_32 -->
<g id="edge7" class="edge">
<title>EM_Sensor_Sensitivity_24&#45;&gt;EM_Sensor_Sensitivity_32</title>
<path fill="none" stroke="black" d="M78.88,-324.78C78.88,-318.53 78.88,-311.33 78.88,-304.52"/>
<polygon fill="black" stroke="black" points="81.33,-304.71 78.88,-297.71 76.43,-304.71 81.33,-304.71"/>
</g>
<!-- EM_Sensor_Sensitivity_40 -->
<g id="node9" class="node">
<title>EM_Sensor_Sensitivity_40</title>
<path fill="#d4c4fb" stroke="black" d="M130.38,-231C130.38,-231 27.38,-231 27.38,-231 21.38,-231 15.37,-225 15.37,-219 15.37,-219 15.37,-207 15.37,-207 15.37,-201 21.37,-195 27.37,-195 27.37,-195 130.38,-195 130.38,-195 136.38,-195 142.38,-201 142.38,-207 142.38,-207 142.38,-219 142.38,-219 142.38,-225 136.38,-231 130.38,-231"/>
<text xml:space="preserve" text-anchor="middle" x="78.88" y="-214.75" font-family="Helvetica,sans-Serif" font-size="10.00">EM Sensor Sensitivity 40</text>
<text xml:space="preserve" text-anchor="middle" x="78.88" y="-203.5" font-family="Helvetica,sans-Serif" font-size="10.00">250K RP</text>
</g>
<!-- EM_Sensor_Sensitivity_32&#45;&gt;EM_Sensor_Sensitivity_40 -->
<g id="edge8" class="edge">
<title>EM_Sensor_Sensitivity_32&#45;&gt;EM_Sensor_Sensitivity_40</title>
<path fill="none" stroke="black" d="M78.88,-259.78C78.88,-253.53 78.88,-246.33 78.88,-239.52"/>
<polygon fill="black" stroke="black" points="81.33,-239.71 78.88,-232.71 76.43,-239.71 81.33,-239.71"/>
</g>
<!-- EM_Sensor_Sensitivity_50 -->
<g id="node10" class="node">
<title>EM_Sensor_Sensitivity_50</title>
<path fill="#d4c4fb" stroke="black" d="M130.38,-166C130.38,-166 27.38,-166 27.38,-166 21.38,-166 15.37,-160 15.37,-154 15.37,-154 15.37,-142 15.37,-142 15.37,-136 21.37,-130 27.37,-130 27.37,-130 130.38,-130 130.38,-130 136.38,-130 142.38,-136 142.38,-142 142.38,-142 142.38,-154 142.38,-154 142.38,-160 136.38,-166 130.38,-166"/>
<text xml:space="preserve" text-anchor="middle" x="78.88" y="-149.75" font-family="Helvetica,sans-Serif" font-size="10.00">EM Sensor Sensitivity 50</text>
<text xml:space="preserve" text-anchor="middle" x="78.88" y="-138.5" font-family="Helvetica,sans-Serif" font-size="10.00">500K RP</text>
</g>
<!-- EM_Sensor_Sensitivity_40&#45;&gt;EM_Sensor_Sensitivity_50 -->
<g id="edge9" class="edge">
<title>EM_Sensor_Sensitivity_40&#45;&gt;EM_Sensor_Sensitivity_50</title>
<path fill="none" stroke="black" d="M78.88,-194.78C78.88,-188.53 78.88,-181.33 78.88,-174.52"/>
<polygon fill="black" stroke="black" points="81.33,-174.71 78.88,-167.71 76.43,-174.71 81.33,-174.71"/>
</g>
<!-- EM_Sensor_Sensitivity_60 -->
<g id="node11" class="node">
<title>EM_Sensor_Sensitivity_60</title>
<path fill="#d4c4fb" stroke="black" d="M130.38,-101C130.38,-101 27.38,-101 27.38,-101 21.38,-101 15.37,-95 15.37,-89 15.37,-89 15.37,-77 15.37,-77 15.37,-71 21.37,-65 27.37,-65 27.37,-65 130.38,-65 130.38,-65 136.38,-65 142.38,-71 142.38,-77 142.38,-77 142.38,-89 142.38,-89 142.38,-95 136.38,-101 130.38,-101"/>
<text xml:space="preserve" text-anchor="middle" x="78.88" y="-84.75" font-family="Helvetica,sans-Serif" font-size="10.00">EM Sensor Sensitivity 60</text>
<text xml:space="preserve" text-anchor="middle" x="78.88" y="-73.5" font-family="Helvetica,sans-Serif" font-size="10.00">1.0M RP</text>
</g>
<!-- EM_Sensor_Sensitivity_50&#45;&gt;EM_Sensor_Sensitivity_60 -->
<g id="edge10" class="edge">
<title>EM_Sensor_Sensitivity_50&#45;&gt;EM_Sensor_Sensitivity_60</title>
<path fill="none" stroke="black" d="M78.88,-129.78C78.88,-123.53 78.88,-116.33 78.88,-109.52"/>
<polygon fill="black" stroke="black" points="81.33,-109.71 78.88,-102.71 76.43,-109.71 81.33,-109.71"/>
</g>
<!-- EM_Sensor_Sensitivity_75 -->
<g id="node12" class="node">
<title>EM_Sensor_Sensitivity_75</title>
<path fill="#f8d7da" stroke="black" d="M130.38,-36C130.38,-36 27.38,-36 27.38,-36 21.38,-36 15.37,-30 15.37,-24 15.37,-24 15.37,-12 15.37,-12 15.37,-6 21.37,0 27.37,0 27.37,0 130.38,0 130.38,0 136.38,0 142.38,-6 142.38,-12 142.38,-12 142.38,-24 142.38,-24 142.38,-30 136.38,-36 130.38,-36"/>
<text xml:space="preserve" text-anchor="middle" x="78.88" y="-19.75" font-family="Helvetica,sans-Serif" font-size="10.00">EM Sensor Sensitivity 75</text>
<text xml:space="preserve" text-anchor="middle" x="78.88" y="-8.5" font-family="Helvetica,sans-Serif" font-size="10.00">2.0M RP</text>
</g>
<!-- EM_Sensor_Sensitivity_60&#45;&gt;EM_Sensor_Sensitivity_75 -->
<g id="edge11" class="edge">
<title>EM_Sensor_Sensitivity_60&#45;&gt;EM_Sensor_Sensitivity_75</title>
<path fill="none" stroke="black" d="M78.88,-64.78C78.88,-58.53 78.88,-51.33 78.88,-44.52"/>
<polygon fill="black" stroke="black" points="81.33,-44.71 78.88,-37.71 76.43,-44.71 81.33,-44.71"/>
</g>
</g>
</svg>
