<?xml version="1.0" encoding="UTF-8" standalone="no"?>
<!DOCTYPE svg PUBLIC "-//W3C//DTD SVG 1.1//EN"
 "http://www.w3.org/Graphics/SVG/1.1/DTD/svg11.dtd">
<!-- Generated by graphviz version 14.1.2 (20260124.0452)
 -->
<!-- Title: TechTree Pages: 1 -->
<svg width="274pt" height="857pt"
 viewBox="0.00 0.00 274.00 857.00" xmlns="http://www.w3.org/2000/svg" xmlns:xlink="http://www.w3.org/1999/xlink">
<g id="graph0" class="graph" transform="scale(1 1) rotate(0) translate(4 852.75)">
<title>TechTree</title>
<polygon fill="white" stroke="none" points="-4,4 -4,-852.75 270,-852.75 270,4 -4,4"/>
<text xml:space="preserve" text-anchor="middle" x="133" y="-833.35" font-family="Helvetica,sans-Serif" font-weight="bold" font-size="12.00">EM Sensor Sensitivity</text>
<!-- EM_Sensor_Sensitivity_5 -->
<g id="node1" class="node">
<title>EM_Sensor_Sensitivity_5</title>
<path fill="#cce5ff" stroke="black" d="M100,-828C100,-828 12,-828 12,-828 6,-828 0,-822 0,-816 0,-816 0,-804 0,-804 0,-798 6,-792 12,-792 12,-792 100,-792 100,-792 106,-792 112,-798 112,-804 112,-804 112,-816 112,-816 112,-822 106,-828 100,-828"/>
<text xml:space="preserve" text-anchor="middle" x="56" y="-811.2" font-family="Helvetica,sans-Serif" font-size="9.00">EM Sensor Sensitivity 5</text>
<text xml:space="preserve" text-anchor="middle" x="56" y="-801.45" font-family="Helvetica,sans-Serif" font-size="9.00">1K RP</text>
</g>
<!-- EM_Sensor_Sensitivity_6 -->
<g id="node2" class="node">
<title>EM_Sensor_Sensitivity_6</title>
<path fill="#cce5ff" stroke="black" d="M171,-756C171,-756 83,-756 83,-756 77,-756 71,-750 71,-744 71,-744 71,-732 71,-732 71,-726 77,-720 83,-720 83,-720 171,-720 171,-720 177,-720 183,-726 183,-732 183,-732 183,-744 183,-744 183,-750 177,-756 171,-756"/>
<text xml:space="preserve" text-anchor="middle" x="127" y="-739.2" font-family="Helvetica,sans-Serif" font-size="9.00">EM Sensor Sensitivity 6</text>
<text xml:space="preserve" text-anchor="middle" x="127" y="-729.45" font-family="Helvetica,sans-Serif" font-size="9.00">2K RP</text>
</g>
<!-- EM_Sensor_Sensitivity_5&#45;&gt;EM_Sensor_Sensitivity_6 -->
<g id="edge1" class="edge">
<title>EM_Sensor_Sensitivity_5&#45;&gt;EM_Sensor_Sensitivity_6</title>
<path fill="none" stroke="black" d="M73.55,-791.7C82.84,-782.54 94.35,-771.19 104.3,-761.38"/>
<polygon fill="black" stroke="black" points="105.78,-762.87 108.57,-757.17 102.83,-759.88 105.78,-762.87"/>
</g>
<!-- EM_Sensor_Sensitivity_8 -->
<g id="node3" class="node">
<title>EM_Sensor_Sensitivity_8</title>
<path fill="#cce5ff" stroke="black" d="M171,-684C171,-684 83,-684 83,-684 77,-684 71,-678 71,-672 71,-672 71,-660 71,-660 71,-654 77,-648 83,-648 83,-648 171,-648 171,-648 177,-648 183,-654 183,-660 183,-660 183,-672 183,-672 183,-678 177,-684 171,-684"/>
<text xml:space="preserve" text-anchor="middle" x="127" y="-667.2" font-family="Helvetica,sans-Serif" font-size="9.00">EM Sensor Sensitivity 8</text>
<text xml:space="preserve" text-anchor="middle" x="127" y="-657.45" font-family="Helvetica,sans-Serif" font-size="9.00">4K RP</text>
</g>
<!-- EM_Sensor_Sensitivity_6&#45;&gt;EM_Sensor_Sensitivity_8 -->
<g id="edge3" class="edge">
<title>EM_Sensor_Sensitivity_6&#45;&gt;EM_Sensor_Sensitivity_8</title>
<path fill="none" stroke="black" d="M127,-719.7C127,-711.22 127,-700.86 127,-691.58"/>
<polygon fill="black" stroke="black" points="129.1,-691.62 127,-685.62 124.9,-691.62 129.1,-691.62"/>
</g>
<!-- EM_Sensor_Sensitivity_11 -->
<g id="node4" class="node">
<title>EM_Sensor_Sensitivity_11</title>
<path fill="#cce5ff" stroke="black" d="M172.88,-612C172.88,-612 81.12,-612 81.12,-612 75.12,-612 69.12,-606 69.12,-600 69.12,-600 69.12,-588 69.12,-588 69.12,-582 75.12,-576 81.12,-576 81.12,-576 172.88,-576 172.88,-576 178.88,-576 184.88,-582 184.88,-588 184.88,-588 184.88,-600 184.88,-600 184.88,-606 178.88,-612 172.88,-612"/>
<text xml:space="preserve" text-anchor="middle" x="127" y="-595.2" font-family="Helvetica,sans-Serif" font-size="9.00">EM Sensor Sensitivity 11</text>
<text xml:space="preserve" text-anchor="middle" x="127" y="-585.45" font-family="Helvetica,sans-Serif" font-size="9.00">8K RP</text>
</g>
<!-- EM_Sensor_Sensitivity_8&#45;&gt;EM_Sensor_Sensitivity_11 -->
<g id="edge4" class="edge">
<title>EM_Sensor_Sensitivity_8&#45;&gt;EM_Sensor_Sensitivity_11</title>
<path fill="none" stroke="black" d="M127,-647.7C127,-639.22 127,-628.86 127,-619.58"/>
<polygon fill="black" stroke="black" points="129.1,-619.62 127,-613.62 124.9,-619.62 129.1,-619.62"/>
</g>
<!-- EM_Sensor_Sensitivity_14 -->
<g id="node5" class="node">
<title>EM_Sensor_Sensitivity_14</title>
<path fill="#fff3cd" stroke="black" d="M173.62,-540C173.62,-540 80.38,-540 80.38,-540 74.38,-540 68.38,-534 68.38,-528 68.38,-528 68.38,-516 68.38,-516 68.38,-510 74.38,-504 80.38,-504 80.38,-504 173.62,-504 173.62,-504 179.62,-504 185.62,-510 185.62,-516 185.62,-516 185.62,-528 185.62,-528 185.62,-534 179.62,-540 173.62,-540"/>
<text xml:space="preserve" text-anchor="middle" x="127" y="-523.2" font-family="Helvetica,sans-Serif" font-size="9.00">EM Sensor Sensitivity 14</text>
<text xml:space="preserve" text-anchor="middle" x="127" y="-513.45" font-family="Helvetica,sans-Serif" font-size="9.00">15K RP</text>
</g>
<!-- EM_Sensor_Sensitivity_11&#45;&gt;EM_Sensor_Sensitivity_14 -->
<g id="edge5" class="edge">
<title>EM_Sensor_Sensitivity_11&#45;&gt;EM_Sensor_Sensitivity_14</title>
<path fill="none" stroke="black" d="M127,-575.7C127,-567.22 127,-556.86 127,-547.58"/>
<polygon fill="black" stroke="black" points="129.1,-547.62 127,-541.62 124.9,-547.62 129.1,-547.62"/>
</g>
<!-- EM_Sensor_Sensitivity_18 -->
<g id="node6" class="node">
<title>EM_Sensor_Sensitivity_18</title>
<path fill="#fff3cd" stroke="black" d="M173.62,-468C173.62,-468 80.38,-468 80.38,-468 74.38,-468 68.38,-462 68.38,-456 68.38,-456 68.38,-444 68.38,-444 68.38,-438 74.38,-432 80.38,-432 80.38,-432 173.62,-432 173.62,-432 179.62,-432 185.62,-438 185.62,-444 185.62,-444 185.62,-456 185.62,-456 185.62,-462 179.62,-468 173.62,-468"/>
<text xml:space="preserve" text-anchor="middle" x="127" y="-451.2" font-family="Helvetica,sans-Serif" font-size="9.00">EM Sensor Sensitivity 18</text>
<text xml:space="preserve" text-anchor="middle" x="127" y="-441.45" font-family="Helvetica,sans-Serif" font-size="9.00">30K RP</text>
</g>
<!-- EM_Sensor_Sensitivity_14&#45;&gt;EM_Sensor_Sensitivity_18 -->
<g id="edge6" class="edge">
<title>EM_Sensor_Sensitivity_14&#45;&gt;EM_Sensor_Sensitivity_18</title>
<path fill="none" stroke="black" d="M127,-503.7C127,-495.22 127,-484.86 127,-475.58"/>
<polygon fill="black" stroke="black" points="129.1,-475.62 127,-469.62 124.9,-475.62 129.1,-475.62"/>
</g>
<!-- EM_Sensor_Sensitivity_24 -->
<g id="node7" class="node">
<title>EM_Sensor_Sensitivity_24</title>
<path fill="#fff3cd" stroke="black" d="M173.62,-396C173.62,-396 80.38,-396 80.38,-396 74.38,-396 68.38,-390 68.38,-384 68.38,-384 68.38,-372 68.38,-372 68.38,-366 74.38,-360 80.38,-360 80.38,-360 173.62,-360 173.62,-360 179.62,-360 185.62,-366 185.62,-372 185.62,-372 185.62,-384 185.62,-384 185.62,-390 179.62,-396 173.62,-396"/>
<text xml:space="preserve" text-anchor="middle" x="127" y="-379.2" font-family="Helvetica,sans-Serif" font-size="9.00">EM Sensor Sensitivity 24</text>
<text xml:space="preserve" text-anchor="middle" x="127" y="-369.45" font-family="Helvetica,sans-Serif" font-size="9.00">60K RP</text>
</g>
<!-- EM_Sensor_Sensitivity_18&#45;&gt;EM_Sensor_Sensitivity_24 -->
<g id="edge7" class="edge">
<title>EM_Sensor_Sensitivity_18&#45;&gt;EM_Sensor_Sensitivity_24</title>
<path fill="none" stroke="black" d="M127,-431.7C127,-423.22 127,-412.86 127,-403.58"/>
<polygon fill="black" stroke="black" points="129.1,-403.62 127,-397.62 124.9,-403.62 129.1,-403.62"/>
</g>
<!-- EM_Sensor_Sensitivity_32 -->
<g id="node8" class="node">
<title>EM_Sensor_Sensitivity_32</title>
<path fill="#d4c4fb" stroke="black" d="M173.62,-324C173.62,-324 80.38,-324 80.38,-324 74.38,-324 68.38,-318 68.38,-312 68.38,-312 68.38,-300 68.38,-300 68.38,-294 74.38,-288 80.38,-288 80.38,-288 173.62,-288 173.62,-288 179.62,-288 185.62,-294 185.62,-300 185.62,-300 185.62,-312 185.62,-312 185.62,-318 179.62,-324 173.62,-324"/>
<text xml:space="preserve" text-anchor="middle" x="127" y="-307.2" font-family="Helvetica,sans-Serif" font-size="9.00">EM Sensor Sensitivity 32</text>
<text xml:space="preserve" text-anchor="middle" x="127" y="-297.45" font-family="Helvetica,sans-Serif" font-size="9.00">120K RP</text>
</g>
<!-- EM_Sensor_Sensitivity_24&#45;&gt;EM_Sensor_Sensitivity_32 -->
<g id="edge8" class="edge">
<title>EM_Sensor_Sensitivity_24&#45;&gt;EM_Sensor_Sensitivity_32</title>
<path fill="none" stroke="black" d="M127,-359.7C127,-351.22 127,-340.86 127,-331.58"/>
<polygon fill="black" stroke="black" points="129.1,-331.62 127,-325.62 124.9,-331.62 129.1,-331.62"/>
</g>
<!-- EM_Sensor_Sensitivity_40 -->
<g id="node9" class="node">
<title>EM_Sensor_Sensitivity_40</title>
<path fill="#d4c4fb" stroke="black" d="M173.62,-252C173.62,-252 80.38,-252 80.38,-252 74.38,-252 68.38,-246 68.38,-240 68.38,-240 68.38,-228 68.38,-228 68.38,-222 74.38,-216 80.38,-216 80.38,-216 173.62,-216 173.62,-216 179.62,-216 185.62,-222 185.62,-228 185.62,-228 185.62,-240 185.62,-240 185.62,-246 179.62,-252 173.62,-252"/>
<text xml:space="preserve" text-anchor="middle" x="127" y="-235.2" font-family="Helvetica,sans-Serif" font-size="9.00">EM Sensor Sensitivity 40</text>
<text xml:space="preserve" text-anchor="middle" x="127" y="-225.45" font-family="Helvetica,sans-Serif" font-size="9.00">250K RP</text>
</g>
<!-- EM_Sensor_Sensitivity_32&#45;&gt;EM_Sensor_Sensitivity_40 -->
<g id="edge9" class="edge">
<title>EM_Sensor_Sensitivity_32&#45;&gt;EM_Sensor_Sensitivity_40</title>
<path fill="none" stroke="black" d="M127,-287.7C127,-279.22 127,-268.86 127,-259.58"/>
<polygon fill="black" stroke="black" points="129.1,-259.62 127,-253.62 124.9,-259.62 129.1,-259.62"/>
</g>
<!-- EM_Sensor_Sensitivity_50 -->
<g id="node10" class="node">
<title>EM_Sensor_Sensitivity_50</title>
<path fill="#d4c4fb" stroke="black" d="M173.62,-180C173.62,-180 80.38,-180 80.38,-180 74.38,-180 68.38,-174 68.38,-168 68.38,-168 68.38,-156 68.38,-156 68.38,-150 74.38,-144 80.38,-144 80.38,-144 173.62,-144 173.62,-144 179.62,-144 185.62,-150 185.62,-156 185.62,-156 185.62,-168 185.62,-168 185.62,-174 179.62,-180 173.62,-180"/>
<text xml:space="preserve" text-anchor="middle" x="127" y="-163.2" font-family="Helvetica,sans-Serif" font-size="9.00">EM Sensor Sensitivity 50</text>
<text xml:space="preserve" text-anchor="middle" x="127" y="-153.45" font-family="Helvetica,sans-Serif" font-size="9.00">500K RP</text>
</g>
<!-- EM_Sensor_Sensitivity_40&#45;&gt;EM_Sensor_Sensitivity_50 -->
<g id="edge10" class="edge">
<title>EM_Sensor_Sensitivity_40&#45;&gt;EM_Sensor_Sensitivity_50</title>
<path fill="none" stroke="black" d="M127,-215.7C127,-207.22 127,-196.86 127,-187.58"/>
<polygon fill="black" stroke="black" points="129.1,-187.62 127,-181.62 124.9,-187.62 129.1,-187.62"/>
</g>
<!-- EM_Sensor_Sensitivity_60 -->
<g id="node11" class="node">
<title>EM_Sensor_Sensitivity_60</title>
<path fill="#d4c4fb" stroke="black" d="M173.62,-108C173.62,-108 80.38,-108 80.38,-108 74.38,-108 68.38,-102 68.38,-96 68.38,-96 68.38,-84 68.38,-84 68.38,-78 74.38,-72 80.38,-72 80.38,-72 173.62,-72 173.62,-72 179.62,-72 185.62,-78 185.62,-84 185.62,-84 185.62,-96 185.62,-96 185.62,-102 179.62,-108 173.62,-108"/>
<text xml:space="preserve" text-anchor="middle" x="127" y="-91.2" font-family="Helvetica,sans-Serif" font-size="9.00">EM Sensor Sensitivity 60</text>
<text xml:space="preserve" text-anchor="middle" x="127" y="-81.45" font-family="Helvetica,sans-Serif" font-size="9.00">1.0M RP</text>
</g>
<!-- EM_Sensor_Sensitivity_50&#45;&gt;EM_Sensor_Sensitivity_60 -->
<g id="edge11" class="edge">
<title>EM_Sensor_Sensitivity_50&#45;&gt;EM_Sensor_Sensitivity_60</title>
<path fill="none" stroke="black" d="M127,-143.7C127,-135.22 127,-124.86 127,-115.58"/>
<polygon fill="black" stroke="black" points="129.1,-115.62 127,-109.62 124.9,-115.62 129.1,-115.62"/>
</g>
<!-- EM_Sensor_Sensitivity_75 -->
<g id="node12" class="node">
<title>EM_Sensor_Sensitivity_75</title>
<path fill="#f8d7da" stroke="black" d="M173.62,-36C173.62,-36 80.38,-36 80.38,-36 74.38,-36 68.38,-30 68.38,-24 68.38,-24 68.38,-12 68.38,-12 68.38,-6 74.38,0 80.38,0 80.38,0 173.62,0 173.62,0 179.62,0 185.62,-6 185.62,-12 185.62,-12 185.62,-24 185.62,-24 185.62,-30 179.62,-36 173.62,-36"/>
<text xml:space="preserve" text-anchor="middle" x="127" y="-19.2" font-family="Helvetica,sans-Serif" font-size="9.00">EM Sensor Sensitivity 75</text>
<text xml:space="preserve" text-anchor="middle" x="127" y="-9.45" font-family="Helvetica,sans-Serif" font-size="9.00">2.0M RP</text>
</g>
<!-- EM_Sensor_Sensitivity_60&#45;&gt;EM_Sensor_Sensitivity_75 -->
<g id="edge12" class="edge">
<title>EM_Sensor_Sensitivity_60&#45;&gt;EM_Sensor_Sensitivity_75</title>
<path fill="none" stroke="black" d="M127,-71.7C127,-63.22 127,-52.86 127,-43.58"/>
<polygon fill="black" stroke="black" points="129.1,-43.62 127,-37.62 124.9,-43.62 129.1,-43.62"/>
</g>
<!-- ext_Trans_Newtonian_Technology -->
<g id="node13" class="node">
<title>ext_Trans_Newtonian_Technology</title>
<path fill="#f0f0f0" stroke="black" stroke-dasharray="5,2" d="M254,-828C254,-828 142,-828 142,-828 136,-828 130,-822 130,-816 130,-816 130,-804 130,-804 130,-798 136,-792 142,-792 142,-792 254,-792 254,-792 260,-792 266,-798 266,-804 266,-804 266,-816 266,-816 266,-822 260,-828 254,-828"/>
<text xml:space="preserve" text-anchor="middle" x="198" y="-806.33" font-family="Helvetica,sans-Serif" font-size="9.00">Trans&#45;Newtonian Technology</text>
</g>
<!-- ext_Trans_Newtonian_Technology&#45;&gt;EM_Sensor_Sensitivity_6 -->
<g id="edge2" class="edge">
<title>ext_Trans_Newtonian_Technology&#45;&gt;EM_Sensor_Sensitivity_6</title>
<path fill="none" stroke="black" d="M180.45,-791.7C171.16,-782.54 159.65,-771.19 149.7,-761.38"/>
<polygon fill="black" stroke="black" points="151.17,-759.88 145.43,-757.17 148.22,-762.87 151.17,-759.88"/>
</g>
</g>
</svg>
