<?xml version="1.0" encoding="UTF-8" standalone="no"?>
<!DOCTYPE svg PUBLIC "-//W3C//DTD SVG 1.1//EN"
 "http://www.w3.org/Graphics/SVG/1.1/DTD/svg11.dtd">
<!-- Generated by graphviz version 14.1.2 (20260124.0452)
 -->
<!-- Title: TechTree Pages: 1 -->
<svg width="247pt" height="125pt"
 viewBox="0.00 0.00 247.00 125.00" xmlns="http://www.w3.org/2000/svg" xmlns:xlink="http://www.w3.org/1999/xlink">
<g id="graph0" class="graph" transform="scale(1 1) rotate(0) translate(4 121)">
<title>TechTree</title>
<polygon fill="white" stroke="none" points="-4,4 -4,-121 242.75,-121 242.75,4 -4,4"/>
<text xml:space="preserve" text-anchor="middle" x="119.38" y="-99.7" font-family="Helvetica,sans-Serif" font-weight="bold" font-size="14.00">Energy Weapon Mount</text>
<!-- Standard_Mount -->
<g id="node1" class="node">
<title>Standard_Mount</title>
<path fill="#d4edda" stroke="black" d="M73,-36C73,-36 12,-36 12,-36 6,-36 0,-30 0,-24 0,-24 0,-12 0,-12 0,-6 6,0 12,0 12,0 73,0 73,0 79,0 85,-6 85,-12 85,-12 85,-24 85,-24 85,-30 79,-36 73,-36"/>
<text xml:space="preserve" text-anchor="middle" x="42.5" y="-19.75" font-family="Helvetica,sans-Serif" font-size="10.00">Standard Mount</text>
<text xml:space="preserve" text-anchor="middle" x="42.5" y="-8.5" font-family="Helvetica,sans-Serif" font-size="10.00">1 RP</text>
</g>
<!-- Spinal_Mount -->
<g id="node2" class="node">
<title>Spinal_Mount</title>
<path fill="#cce5ff" stroke="black" d="M67,-94C67,-94 18,-94 18,-94 12,-94 6,-88 6,-82 6,-82 6,-70 6,-70 6,-64 12,-58 18,-58 18,-58 67,-58 67,-58 73,-58 79,-64 79,-70 79,-70 79,-82 79,-82 79,-88 73,-94 67,-94"/>
<text xml:space="preserve" text-anchor="middle" x="42.5" y="-77.75" font-family="Helvetica,sans-Serif" font-size="10.00">Spinal Mount</text>
<text xml:space="preserve" text-anchor="middle" x="42.5" y="-66.5" font-family="Helvetica,sans-Serif" font-size="10.00">5K RP</text>
</g>
<!-- Spinal_Mount___Advanced -->
<g id="node3" class="node">
<title>Spinal_Mount___Advanced</title>
<path fill="#fff3cd" stroke="black" d="M226.75,-94C226.75,-94 126,-94 126,-94 120,-94 114,-88 114,-82 114,-82 114,-70 114,-70 114,-64 120,-58 126,-58 126,-58 226.75,-58 226.75,-58 232.75,-58 238.75,-64 238.75,-70 238.75,-70 238.75,-82 238.75,-82 238.75,-88 232.75,-94 226.75,-94"/>
<text xml:space="preserve" text-anchor="middle" x="176.38" y="-77.75" font-family="Helvetica,sans-Serif" font-size="10.00">Spinal Mount &#45; Advanced</text>
<text xml:space="preserve" text-anchor="middle" x="176.38" y="-66.5" font-family="Helvetica,sans-Serif" font-size="10.00">20K RP</text>
</g>
<!-- Spinal_Mount&#45;&gt;Spinal_Mount___Advanced -->
<g id="edge1" class="edge">
<title>Spinal_Mount&#45;&gt;Spinal_Mount___Advanced</title>
<path fill="none" stroke="black" d="M79.19,-76C87.36,-76 96.33,-76 105.4,-76"/>
<polygon fill="black" stroke="black" points="105.23,-78.45 112.23,-76 105.23,-73.55 105.23,-78.45"/>
</g>
</g>
</svg>
