<?xml version="1.0" encoding="UTF-8" standalone="no"?>
<!DOCTYPE svg PUBLIC "-//W3C//DTD SVG 1.1//EN"
 "http://www.w3.org/Graphics/SVG/1.1/DTD/svg11.dtd">
<!-- Generated by graphviz version 14.1.2 (20260124.0452)
 -->
<!-- Title: TechTree Pages: 1 -->
<svg width="244pt" height="209pt"
 viewBox="0.00 0.00 244.00 209.00" xmlns="http://www.w3.org/2000/svg" xmlns:xlink="http://www.w3.org/1999/xlink">
<g id="graph0" class="graph" transform="scale(1 1) rotate(0) translate(4 204.75)">
<title>TechTree</title>
<polygon fill="white" stroke="none" points="-4,4 -4,-204.75 239.62,-204.75 239.62,4 -4,4"/>
<text xml:space="preserve" text-anchor="middle" x="117.81" y="-185.35" font-family="Helvetica,sans-Serif" font-weight="bold" font-size="12.00">Energy Weapon Mount</text>
<!-- Standard_Mount -->
<g id="node1" class="node">
<title>Standard_Mount</title>
<path fill="#d4edda" stroke="black" d="M69.25,-180C69.25,-180 12,-180 12,-180 6,-180 0,-174 0,-168 0,-168 0,-156 0,-156 0,-150 6,-144 12,-144 12,-144 69.25,-144 69.25,-144 75.25,-144 81.25,-150 81.25,-156 81.25,-156 81.25,-168 81.25,-168 81.25,-174 75.25,-180 69.25,-180"/>
<text xml:space="preserve" text-anchor="middle" x="40.62" y="-163.2" font-family="Helvetica,sans-Serif" font-size="9.00">Standard Mount</text>
<text xml:space="preserve" text-anchor="middle" x="40.62" y="-153.45" font-family="Helvetica,sans-Serif" font-size="9.00">1 RP</text>
</g>
<!-- Spinal_Mount -->
<g id="node2" class="node">
<title>Spinal_Mount</title>
<path fill="#cce5ff" stroke="black" d="M190.62,-108C190.62,-108 144.62,-108 144.62,-108 138.62,-108 132.62,-102 132.62,-96 132.62,-96 132.62,-84 132.62,-84 132.62,-78 138.62,-72 144.62,-72 144.62,-72 190.62,-72 190.62,-72 196.62,-72 202.62,-78 202.62,-84 202.62,-84 202.62,-96 202.62,-96 202.62,-102 196.62,-108 190.62,-108"/>
<text xml:space="preserve" text-anchor="middle" x="167.62" y="-91.2" font-family="Helvetica,sans-Serif" font-size="9.00">Spinal Mount</text>
<text xml:space="preserve" text-anchor="middle" x="167.62" y="-81.45" font-family="Helvetica,sans-Serif" font-size="9.00">5K RP</text>
</g>
<!-- Spinal_Mount___Advanced -->
<g id="node3" class="node">
<title>Spinal_Mount___Advanced</title>
<path fill="#fff3cd" stroke="black" d="M215,-36C215,-36 120.25,-36 120.25,-36 114.25,-36 108.25,-30 108.25,-24 108.25,-24 108.25,-12 108.25,-12 108.25,-6 114.25,0 120.25,0 120.25,0 215,0 215,0 221,0 227,-6 227,-12 227,-12 227,-24 227,-24 227,-30 221,-36 215,-36"/>
<text xml:space="preserve" text-anchor="middle" x="167.62" y="-19.2" font-family="Helvetica,sans-Serif" font-size="9.00">Spinal Mount &#45; Advanced</text>
<text xml:space="preserve" text-anchor="middle" x="167.62" y="-9.45" font-family="Helvetica,sans-Serif" font-size="9.00">20K RP</text>
</g>
<!-- Spinal_Mount&#45;&gt;Spinal_Mount___Advanced -->
<g id="edge2" class="edge">
<title>Spinal_Mount&#45;&gt;Spinal_Mount___Advanced</title>
<path fill="none" stroke="black" d="M167.62,-71.7C167.62,-63.22 167.62,-52.86 167.62,-43.58"/>
<polygon fill="black" stroke="black" points="169.73,-43.62 167.63,-37.62 165.53,-43.62 169.73,-43.62"/>
</g>
<!-- ext_Trans_Newtonian_Technology -->
<g id="node4" class="node">
<title>ext_Trans_Newtonian_Technology</title>
<path fill="#f0f0f0" stroke="black" stroke-dasharray="5,2" d="M223.62,-180C223.62,-180 111.62,-180 111.62,-180 105.62,-180 99.62,-174 99.62,-168 99.62,-168 99.62,-156 99.62,-156 99.62,-150 105.62,-144 111.62,-144 111.62,-144 223.62,-144 223.62,-144 229.62,-144 235.62,-150 235.62,-156 235.62,-156 235.62,-168 235.62,-168 235.62,-174 229.62,-180 223.62,-180"/>
<text xml:space="preserve" text-anchor="middle" x="167.62" y="-158.32" font-family="Helvetica,sans-Serif" font-size="9.00">Trans&#45;Newtonian Technology</text>
</g>
<!-- ext_Trans_Newtonian_Technology&#45;&gt;Spinal_Mount -->
<g id="edge1" class="edge">
<title>ext_Trans_Newtonian_Technology&#45;&gt;Spinal_Mount</title>
<path fill="none" stroke="black" d="M167.62,-143.7C167.62,-135.22 167.62,-124.86 167.62,-115.58"/>
<polygon fill="black" stroke="black" points="169.73,-115.62 167.63,-109.62 165.53,-115.62 169.73,-115.62"/>
</g>
</g>
</svg>
