<?xml version="1.0" encoding="UTF-8" standalone="no"?>
<!DOCTYPE svg PUBLIC "-//W3C//DTD SVG 1.1//EN"
 "http://www.w3.org/Graphics/SVG/1.1/DTD/svg11.dtd">
<!-- Generated by graphviz version 14.1.2 (20260124.0452)
 -->
<!-- Title: TechTree Pages: 1 -->
<svg width="1182pt" height="1073pt"
 viewBox="0.00 0.00 1182.00 1073.00" xmlns="http://www.w3.org/2000/svg" xmlns:xlink="http://www.w3.org/1999/xlink">
<g id="graph0" class="graph" transform="scale(1 1) rotate(0) translate(4 1068.75)">
<title>TechTree</title>
<polygon fill="white" stroke="none" points="-4,4 -4,-1068.75 1177.75,-1068.75 1177.75,4 -4,4"/>
<text xml:space="preserve" text-anchor="middle" x="586.88" y="-1049.35" font-family="Helvetica,sans-Serif" font-weight="bold" font-size="12.00">Engine Technology</text>
<!-- Conventional_Engine -->
<g id="node1" class="node">
<title>Conventional_Engine</title>
<path fill="#d4edda" stroke="black" d="M991.62,-1044C991.62,-1044 913.38,-1044 913.38,-1044 907.38,-1044 901.38,-1038 901.38,-1032 901.38,-1032 901.38,-1020 901.38,-1020 901.38,-1014 907.38,-1008 913.38,-1008 913.38,-1008 991.62,-1008 991.62,-1008 997.62,-1008 1003.62,-1014 1003.62,-1020 1003.62,-1020 1003.62,-1032 1003.62,-1032 1003.62,-1038 997.62,-1044 991.62,-1044"/>
<text xml:space="preserve" text-anchor="middle" x="952.5" y="-1027.2" font-family="Helvetica,sans-Serif" font-size="9.00">Conventional Engine</text>
<text xml:space="preserve" text-anchor="middle" x="952.5" y="-1017.45" font-family="Helvetica,sans-Serif" font-size="9.00">500 RP</text>
</g>
<!-- Nuclear_Radioisotope_Engine -->
<g id="node2" class="node">
<title>Nuclear_Radioisotope_Engine</title>
<path fill="#cce5ff" stroke="black" d="M1153.88,-972C1153.88,-972 1041.12,-972 1041.12,-972 1035.12,-972 1029.12,-966 1029.12,-960 1029.12,-960 1029.12,-948 1029.12,-948 1029.12,-942 1035.12,-936 1041.12,-936 1041.12,-936 1153.88,-936 1153.88,-936 1159.88,-936 1165.88,-942 1165.88,-948 1165.88,-948 1165.88,-960 1165.88,-960 1165.88,-966 1159.88,-972 1153.88,-972"/>
<text xml:space="preserve" text-anchor="middle" x="1097.5" y="-955.2" font-family="Helvetica,sans-Serif" font-size="9.00">Nuclear Radioisotope Engine</text>
<text xml:space="preserve" text-anchor="middle" x="1097.5" y="-945.45" font-family="Helvetica,sans-Serif" font-size="9.00">1K RP</text>
</g>
<!-- Nuclear_Thermal_Engine -->
<g id="node3" class="node">
<title>Nuclear_Thermal_Engine</title>
<path fill="#cce5ff" stroke="black" d="M1069.38,-900C1069.38,-900 977.62,-900 977.62,-900 971.62,-900 965.62,-894 965.62,-888 965.62,-888 965.62,-876 965.62,-876 965.62,-870 971.62,-864 977.62,-864 977.62,-864 1069.38,-864 1069.38,-864 1075.38,-864 1081.38,-870 1081.38,-876 1081.38,-876 1081.38,-888 1081.38,-888 1081.38,-894 1075.38,-900 1069.38,-900"/>
<text xml:space="preserve" text-anchor="middle" x="1023.5" y="-883.2" font-family="Helvetica,sans-Serif" font-size="9.00">Nuclear Thermal Engine</text>
<text xml:space="preserve" text-anchor="middle" x="1023.5" y="-873.45" font-family="Helvetica,sans-Serif" font-size="9.00">2K RP</text>
</g>
<!-- Nuclear_Radioisotope_Engine&#45;&gt;Nuclear_Thermal_Engine -->
<g id="edge2" class="edge">
<title>Nuclear_Radioisotope_Engine&#45;&gt;Nuclear_Thermal_Engine</title>
<path fill="none" stroke="black" d="M1079.21,-935.7C1069.51,-926.53 1057.49,-915.16 1047.1,-905.33"/>
<polygon fill="black" stroke="black" points="1048.74,-903.98 1042.94,-901.39 1045.85,-907.04 1048.74,-903.98"/>
</g>
<!-- Nuclear_Pulse_Engine -->
<g id="node4" class="node">
<title>Nuclear_Pulse_Engine</title>
<path fill="#cce5ff" stroke="black" d="M1002.12,-828C1002.12,-828 920.88,-828 920.88,-828 914.88,-828 908.88,-822 908.88,-816 908.88,-816 908.88,-804 908.88,-804 908.88,-798 914.88,-792 920.88,-792 920.88,-792 1002.12,-792 1002.12,-792 1008.12,-792 1014.12,-798 1014.12,-804 1014.12,-804 1014.12,-816 1014.12,-816 1014.12,-822 1008.12,-828 1002.12,-828"/>
<text xml:space="preserve" text-anchor="middle" x="961.5" y="-811.2" font-family="Helvetica,sans-Serif" font-size="9.00">Nuclear Pulse Engine</text>
<text xml:space="preserve" text-anchor="middle" x="961.5" y="-801.45" font-family="Helvetica,sans-Serif" font-size="9.00">4K RP</text>
</g>
<!-- Nuclear_Thermal_Engine&#45;&gt;Nuclear_Pulse_Engine -->
<g id="edge4" class="edge">
<title>Nuclear_Thermal_Engine&#45;&gt;Nuclear_Pulse_Engine</title>
<path fill="none" stroke="black" d="M1008.17,-863.7C1000.14,-854.63 990.2,-843.4 981.56,-833.65"/>
<polygon fill="black" stroke="black" points="983.2,-832.34 977.65,-829.24 980.06,-835.12 983.2,-832.34"/>
</g>
<!-- Nuclear_Gas_Core_Engine -->
<g id="node5" class="node">
<title>Nuclear_Gas_Core_Engine</title>
<path fill="#cce5ff" stroke="black" d="M945.38,-756C945.38,-756 847.62,-756 847.62,-756 841.62,-756 835.62,-750 835.62,-744 835.62,-744 835.62,-732 835.62,-732 835.62,-726 841.62,-720 847.62,-720 847.62,-720 945.38,-720 945.38,-720 951.38,-720 957.38,-726 957.38,-732 957.38,-732 957.38,-744 957.38,-744 957.38,-750 951.38,-756 945.38,-756"/>
<text xml:space="preserve" text-anchor="middle" x="896.5" y="-739.2" font-family="Helvetica,sans-Serif" font-size="9.00">Nuclear Gas&#45;Core Engine</text>
<text xml:space="preserve" text-anchor="middle" x="896.5" y="-729.45" font-family="Helvetica,sans-Serif" font-size="9.00">6K RP</text>
</g>
<!-- Nuclear_Pulse_Engine&#45;&gt;Nuclear_Gas_Core_Engine -->
<g id="edge6" class="edge">
<title>Nuclear_Pulse_Engine&#45;&gt;Nuclear_Gas_Core_Engine</title>
<path fill="none" stroke="black" d="M945.43,-791.7C936.93,-782.54 926.39,-771.19 917.28,-761.38"/>
<polygon fill="black" stroke="black" points="919.03,-760.18 913.41,-757.21 915.96,-763.04 919.03,-760.18"/>
</g>
<!-- Ion_Drive -->
<g id="node6" class="node">
<title>Ion_Drive</title>
<path fill="#cce5ff" stroke="black" d="M836.5,-684C836.5,-684 806.5,-684 806.5,-684 800.5,-684 794.5,-678 794.5,-672 794.5,-672 794.5,-660 794.5,-660 794.5,-654 800.5,-648 806.5,-648 806.5,-648 836.5,-648 836.5,-648 842.5,-648 848.5,-654 848.5,-660 848.5,-660 848.5,-672 848.5,-672 848.5,-678 842.5,-684 836.5,-684"/>
<text xml:space="preserve" text-anchor="middle" x="821.5" y="-667.2" font-family="Helvetica,sans-Serif" font-size="9.00">Ion Drive</text>
<text xml:space="preserve" text-anchor="middle" x="821.5" y="-657.45" font-family="Helvetica,sans-Serif" font-size="9.00">10K RP</text>
</g>
<!-- Nuclear_Gas_Core_Engine&#45;&gt;Ion_Drive -->
<g id="edge8" class="edge">
<title>Nuclear_Gas_Core_Engine&#45;&gt;Ion_Drive</title>
<path fill="none" stroke="black" d="M877.96,-719.7C868.13,-710.53 855.95,-699.16 845.42,-689.33"/>
<polygon fill="black" stroke="black" points="847.01,-687.94 841.19,-685.38 844.15,-691.01 847.01,-687.94"/>
</g>
<!-- Magneto_plasma_Drive -->
<g id="node7" class="node">
<title>Magneto_plasma_Drive</title>
<path fill="#fff3cd" stroke="black" d="M811,-612C811,-612 726,-612 726,-612 720,-612 714,-606 714,-600 714,-600 714,-588 714,-588 714,-582 720,-576 726,-576 726,-576 811,-576 811,-576 817,-576 823,-582 823,-588 823,-588 823,-600 823,-600 823,-606 817,-612 811,-612"/>
<text xml:space="preserve" text-anchor="middle" x="768.5" y="-595.2" font-family="Helvetica,sans-Serif" font-size="9.00">Magneto&#45;plasma Drive</text>
<text xml:space="preserve" text-anchor="middle" x="768.5" y="-585.45" font-family="Helvetica,sans-Serif" font-size="9.00">20K RP</text>
</g>
<!-- Ion_Drive&#45;&gt;Magneto_plasma_Drive -->
<g id="edge10" class="edge">
<title>Ion_Drive&#45;&gt;Magneto_plasma_Drive</title>
<path fill="none" stroke="black" d="M808.4,-647.7C801.6,-638.71 793.19,-627.61 785.86,-617.92"/>
<polygon fill="black" stroke="black" points="787.66,-616.83 782.36,-613.31 784.31,-619.36 787.66,-616.83"/>
</g>
<!-- Magnetic_Confinement_Fusion_Dr -->
<g id="node8" class="node">
<title>Magnetic_Confinement_Fusion_Dr</title>
<path fill="#fff3cd" stroke="black" d="M772.62,-540C772.62,-540 634.38,-540 634.38,-540 628.38,-540 622.38,-534 622.38,-528 622.38,-528 622.38,-516 622.38,-516 622.38,-510 628.38,-504 634.38,-504 634.38,-504 772.62,-504 772.62,-504 778.62,-504 784.62,-510 784.62,-516 784.62,-516 784.62,-528 784.62,-528 784.62,-534 778.62,-540 772.62,-540"/>
<text xml:space="preserve" text-anchor="middle" x="703.5" y="-523.2" font-family="Helvetica,sans-Serif" font-size="9.00">Magnetic Confinement Fusion Drive</text>
<text xml:space="preserve" text-anchor="middle" x="703.5" y="-513.45" font-family="Helvetica,sans-Serif" font-size="9.00">40K RP</text>
</g>
<!-- Magneto_plasma_Drive&#45;&gt;Magnetic_Confinement_Fusion_Dr -->
<g id="edge12" class="edge">
<title>Magneto_plasma_Drive&#45;&gt;Magnetic_Confinement_Fusion_Dr</title>
<path fill="none" stroke="black" d="M752.43,-575.7C743.93,-566.54 733.39,-555.19 724.28,-545.38"/>
<polygon fill="black" stroke="black" points="726.03,-544.18 720.41,-541.21 722.96,-547.04 726.03,-544.18"/>
</g>
<!-- Inertial_Confinement_Fusion_Dr -->
<g id="node9" class="node">
<title>Inertial_Confinement_Fusion_Dr</title>
<path fill="#fff3cd" stroke="black" d="M677.75,-468C677.75,-468 549.25,-468 549.25,-468 543.25,-468 537.25,-462 537.25,-456 537.25,-456 537.25,-444 537.25,-444 537.25,-438 543.25,-432 549.25,-432 549.25,-432 677.75,-432 677.75,-432 683.75,-432 689.75,-438 689.75,-444 689.75,-444 689.75,-456 689.75,-456 689.75,-462 683.75,-468 677.75,-468"/>
<text xml:space="preserve" text-anchor="middle" x="613.5" y="-451.2" font-family="Helvetica,sans-Serif" font-size="9.00">Inertial Confinement Fusion Drive</text>
<text xml:space="preserve" text-anchor="middle" x="613.5" y="-441.45" font-family="Helvetica,sans-Serif" font-size="9.00">80K RP</text>
</g>
<!-- Magnetic_Confinement_Fusion_Dr&#45;&gt;Inertial_Confinement_Fusion_Dr -->
<g id="edge14" class="edge">
<title>Magnetic_Confinement_Fusion_Dr&#45;&gt;Inertial_Confinement_Fusion_Dr</title>
<path fill="none" stroke="black" d="M681.25,-503.7C669.25,-494.36 654.31,-482.74 641.51,-472.79"/>
<polygon fill="black" stroke="black" points="643.02,-471.3 637,-469.28 640.44,-474.62 643.02,-471.3"/>
</g>
<!-- Solid_Core_Anti_matter_Drive -->
<g id="node10" class="node">
<title>Solid_Core_Anti_matter_Drive</title>
<path fill="#d4c4fb" stroke="black" d="M580.5,-396C580.5,-396 474.5,-396 474.5,-396 468.5,-396 462.5,-390 462.5,-384 462.5,-384 462.5,-372 462.5,-372 462.5,-366 468.5,-360 474.5,-360 474.5,-360 580.5,-360 580.5,-360 586.5,-360 592.5,-366 592.5,-372 592.5,-372 592.5,-384 592.5,-384 592.5,-390 586.5,-396 580.5,-396"/>
<text xml:space="preserve" text-anchor="middle" x="527.5" y="-379.2" font-family="Helvetica,sans-Serif" font-size="9.00">Solid Core Anti&#45;matter Drive</text>
<text xml:space="preserve" text-anchor="middle" x="527.5" y="-369.45" font-family="Helvetica,sans-Serif" font-size="9.00">150K RP</text>
</g>
<!-- Inertial_Confinement_Fusion_Dr&#45;&gt;Solid_Core_Anti_matter_Drive -->
<g id="edge16" class="edge">
<title>Inertial_Confinement_Fusion_Dr&#45;&gt;Solid_Core_Anti_matter_Drive</title>
<path fill="none" stroke="black" d="M592.24,-431.7C580.87,-422.44 566.75,-410.95 554.6,-401.06"/>
<polygon fill="black" stroke="black" points="555.96,-399.46 549.99,-397.3 553.31,-402.72 555.96,-399.46"/>
</g>
<!-- Gas_Core_Anti_matter_Drive -->
<g id="node11" class="node">
<title>Gas_Core_Anti_matter_Drive</title>
<path fill="#d4c4fb" stroke="black" d="M499.25,-324C499.25,-324 397.75,-324 397.75,-324 391.75,-324 385.75,-318 385.75,-312 385.75,-312 385.75,-300 385.75,-300 385.75,-294 391.75,-288 397.75,-288 397.75,-288 499.25,-288 499.25,-288 505.25,-288 511.25,-294 511.25,-300 511.25,-300 511.25,-312 511.25,-312 511.25,-318 505.25,-324 499.25,-324"/>
<text xml:space="preserve" text-anchor="middle" x="448.5" y="-307.2" font-family="Helvetica,sans-Serif" font-size="9.00">Gas Core Anti&#45;matter Drive</text>
<text xml:space="preserve" text-anchor="middle" x="448.5" y="-297.45" font-family="Helvetica,sans-Serif" font-size="9.00">300K RP</text>
</g>
<!-- Solid_Core_Anti_matter_Drive&#45;&gt;Gas_Core_Anti_matter_Drive -->
<g id="edge18" class="edge">
<title>Solid_Core_Anti_matter_Drive&#45;&gt;Gas_Core_Anti_matter_Drive</title>
<path fill="none" stroke="black" d="M507.97,-359.7C497.62,-350.53 484.79,-339.16 473.7,-329.33"/>
<polygon fill="black" stroke="black" points="475.09,-327.76 469.21,-325.35 472.31,-330.9 475.09,-327.76"/>
</g>
<!-- Plasma_Core_Anti_matter_Drive -->
<g id="node12" class="node">
<title>Plasma_Core_Anti_matter_Drive</title>
<path fill="#d4c4fb" stroke="black" d="M424.38,-252C424.38,-252 308.62,-252 308.62,-252 302.62,-252 296.62,-246 296.62,-240 296.62,-240 296.62,-228 296.62,-228 296.62,-222 302.62,-216 308.62,-216 308.62,-216 424.38,-216 424.38,-216 430.38,-216 436.38,-222 436.38,-228 436.38,-228 436.38,-240 436.38,-240 436.38,-246 430.38,-252 424.38,-252"/>
<text xml:space="preserve" text-anchor="middle" x="366.5" y="-235.2" font-family="Helvetica,sans-Serif" font-size="9.00">Plasma Core Anti&#45;matter Drive</text>
<text xml:space="preserve" text-anchor="middle" x="366.5" y="-225.45" font-family="Helvetica,sans-Serif" font-size="9.00">600K RP</text>
</g>
<!-- Gas_Core_Anti_matter_Drive&#45;&gt;Plasma_Core_Anti_matter_Drive -->
<g id="edge20" class="edge">
<title>Gas_Core_Anti_matter_Drive&#45;&gt;Plasma_Core_Anti_matter_Drive</title>
<path fill="none" stroke="black" d="M428.23,-287.7C417.39,-278.44 403.92,-266.95 392.34,-257.06"/>
<polygon fill="black" stroke="black" points="393.9,-255.63 387.97,-253.33 391.17,-258.82 393.9,-255.63"/>
</g>
<!-- Beam_Core_Anti_matter_Drive -->
<g id="node13" class="node">
<title>Beam_Core_Anti_matter_Drive</title>
<path fill="#f8d7da" stroke="black" d="M337,-180C337,-180 228,-180 228,-180 222,-180 216,-174 216,-168 216,-168 216,-156 216,-156 216,-150 222,-144 228,-144 228,-144 337,-144 337,-144 343,-144 349,-150 349,-156 349,-156 349,-168 349,-168 349,-174 343,-180 337,-180"/>
<text xml:space="preserve" text-anchor="middle" x="282.5" y="-163.2" font-family="Helvetica,sans-Serif" font-size="9.00">Beam Core Anti&#45;matter Drive</text>
<text xml:space="preserve" text-anchor="middle" x="282.5" y="-153.45" font-family="Helvetica,sans-Serif" font-size="9.00">1.2M RP</text>
</g>
<!-- Plasma_Core_Anti_matter_Drive&#45;&gt;Beam_Core_Anti_matter_Drive -->
<g id="edge22" class="edge">
<title>Plasma_Core_Anti_matter_Drive&#45;&gt;Beam_Core_Anti_matter_Drive</title>
<path fill="none" stroke="black" d="M345.74,-215.7C334.63,-206.44 320.84,-194.95 308.97,-185.06"/>
<polygon fill="black" stroke="black" points="310.43,-183.54 304.48,-181.32 307.74,-186.77 310.43,-183.54"/>
</g>
<!-- Photonic_Drive -->
<g id="node14" class="node">
<title>Photonic_Drive</title>
<path fill="#f8d7da" stroke="black" d="M233.5,-108C233.5,-108 181.5,-108 181.5,-108 175.5,-108 169.5,-102 169.5,-96 169.5,-96 169.5,-84 169.5,-84 169.5,-78 175.5,-72 181.5,-72 181.5,-72 233.5,-72 233.5,-72 239.5,-72 245.5,-78 245.5,-84 245.5,-84 245.5,-96 245.5,-96 245.5,-102 239.5,-108 233.5,-108"/>
<text xml:space="preserve" text-anchor="middle" x="207.5" y="-91.2" font-family="Helvetica,sans-Serif" font-size="9.00">Photonic Drive</text>
<text xml:space="preserve" text-anchor="middle" x="207.5" y="-81.45" font-family="Helvetica,sans-Serif" font-size="9.00">2.5M RP</text>
</g>
<!-- Beam_Core_Anti_matter_Drive&#45;&gt;Photonic_Drive -->
<g id="edge24" class="edge">
<title>Beam_Core_Anti_matter_Drive&#45;&gt;Photonic_Drive</title>
<path fill="none" stroke="black" d="M263.96,-143.7C254.13,-134.53 241.95,-123.16 231.42,-113.33"/>
<polygon fill="black" stroke="black" points="233.01,-111.94 227.19,-109.38 230.15,-115.01 233.01,-111.94"/>
</g>
<!-- Quantum_Singularity_Drive -->
<g id="node15" class="node">
<title>Quantum_Singularity_Drive</title>
<path fill="#f8d7da" stroke="black" d="M191.12,-36C191.12,-36 91.88,-36 91.88,-36 85.88,-36 79.88,-30 79.88,-24 79.88,-24 79.88,-12 79.88,-12 79.88,-6 85.88,0 91.88,0 91.88,0 191.12,0 191.12,0 197.12,0 203.12,-6 203.12,-12 203.12,-12 203.12,-24 203.12,-24 203.12,-30 197.12,-36 191.12,-36"/>
<text xml:space="preserve" text-anchor="middle" x="141.5" y="-19.2" font-family="Helvetica,sans-Serif" font-size="9.00">Quantum Singularity Drive</text>
<text xml:space="preserve" text-anchor="middle" x="141.5" y="-9.45" font-family="Helvetica,sans-Serif" font-size="9.00">5.0M RP</text>
</g>
<!-- Photonic_Drive&#45;&gt;Quantum_Singularity_Drive -->
<g id="edge26" class="edge">
<title>Photonic_Drive&#45;&gt;Quantum_Singularity_Drive</title>
<path fill="none" stroke="black" d="M191.19,-71.7C182.55,-62.54 171.85,-51.19 162.6,-41.38"/>
<polygon fill="black" stroke="black" points="164.31,-40.13 158.67,-37.21 161.25,-43.01 164.31,-40.13"/>
</g>
<!-- ext_Radioisotope_Thermal_Generator -->
<g id="node16" class="node">
<title>ext_Radioisotope_Thermal_Generator</title>
<path fill="#f0f0f0" stroke="black" stroke-dasharray="5,2" d="M1161.75,-1044C1161.75,-1044 1033.25,-1044 1033.25,-1044 1027.25,-1044 1021.25,-1038 1021.25,-1032 1021.25,-1032 1021.25,-1020 1021.25,-1020 1021.25,-1014 1027.25,-1008 1033.25,-1008 1033.25,-1008 1161.75,-1008 1161.75,-1008 1167.75,-1008 1173.75,-1014 1173.75,-1020 1173.75,-1020 1173.75,-1032 1173.75,-1032 1173.75,-1038 1167.75,-1044 1161.75,-1044"/>
<text xml:space="preserve" text-anchor="middle" x="1097.5" y="-1022.33" font-family="Helvetica,sans-Serif" font-size="9.00">Radioisotope Thermal Generator </text>
</g>
<!-- ext_Radioisotope_Thermal_Generator&#45;&gt;Nuclear_Radioisotope_Engine -->
<g id="edge1" class="edge">
<title>ext_Radioisotope_Thermal_Generator&#45;&gt;Nuclear_Radioisotope_Engine</title>
<path fill="none" stroke="black" d="M1097.5,-1007.7C1097.5,-999.22 1097.5,-988.86 1097.5,-979.58"/>
<polygon fill="black" stroke="black" points="1099.6,-979.62 1097.5,-973.62 1095.4,-979.62 1099.6,-979.62"/>
</g>
<!-- ext_Pebble_Bed_Reactor -->
<g id="node17" class="node">
<title>ext_Pebble_Bed_Reactor</title>
<path fill="#f0f0f0" stroke="black" stroke-dasharray="5,2" d="M935.75,-900C935.75,-900 861.25,-900 861.25,-900 855.25,-900 849.25,-894 849.25,-888 849.25,-888 849.25,-876 849.25,-876 849.25,-870 855.25,-864 861.25,-864 861.25,-864 935.75,-864 935.75,-864 941.75,-864 947.75,-870 947.75,-876 947.75,-876 947.75,-888 947.75,-888 947.75,-894 941.75,-900 935.75,-900"/>
<text xml:space="preserve" text-anchor="middle" x="898.5" y="-878.33" font-family="Helvetica,sans-Serif" font-size="9.00">Pebble Bed Reactor</text>
</g>
<!-- ext_Pebble_Bed_Reactor&#45;&gt;Nuclear_Pulse_Engine -->
<g id="edge5" class="edge">
<title>ext_Pebble_Bed_Reactor&#45;&gt;Nuclear_Pulse_Engine</title>
<path fill="none" stroke="black" d="M914.07,-863.7C922.24,-854.63 932.34,-843.4 941.11,-833.65"/>
<polygon fill="black" stroke="black" points="942.64,-835.09 945.09,-829.23 939.52,-832.28 942.64,-835.09"/>
</g>
<!-- ext_Magnetic_Mirror_Fusion_Reactor -->
<g id="node18" class="node">
<title>ext_Magnetic_Mirror_Fusion_Reactor</title>
<path fill="#f0f0f0" stroke="black" stroke-dasharray="5,2" d="M805.62,-756C805.62,-756 685.38,-756 685.38,-756 679.38,-756 673.38,-750 673.38,-744 673.38,-744 673.38,-732 673.38,-732 673.38,-726 679.38,-720 685.38,-720 685.38,-720 805.62,-720 805.62,-720 811.62,-720 817.62,-726 817.62,-732 817.62,-732 817.62,-744 817.62,-744 817.62,-750 811.62,-756 805.62,-756"/>
<text xml:space="preserve" text-anchor="middle" x="745.5" y="-734.33" font-family="Helvetica,sans-Serif" font-size="9.00">Magnetic Mirror Fusion Reactor</text>
</g>
<!-- ext_Magnetic_Mirror_Fusion_Reactor&#45;&gt;Ion_Drive -->
<g id="edge9" class="edge">
<title>ext_Magnetic_Mirror_Fusion_Reactor&#45;&gt;Ion_Drive</title>
<path fill="none" stroke="black" d="M764.29,-719.7C774.24,-710.53 786.59,-699.16 797.26,-689.33"/>
<polygon fill="black" stroke="black" points="798.56,-690.98 801.55,-685.37 795.72,-687.89 798.56,-690.98"/>
</g>
<!-- ext_Stellarator_Fusion_Reactor -->
<g id="node19" class="node">
<title>ext_Stellarator_Fusion_Reactor</title>
<path fill="#f0f0f0" stroke="black" stroke-dasharray="5,2" d="M764.75,-684C764.75,-684 666.25,-684 666.25,-684 660.25,-684 654.25,-678 654.25,-672 654.25,-672 654.25,-660 654.25,-660 654.25,-654 660.25,-648 666.25,-648 666.25,-648 764.75,-648 764.75,-648 770.75,-648 776.75,-654 776.75,-660 776.75,-660 776.75,-672 776.75,-672 776.75,-678 770.75,-684 764.75,-684"/>
<text xml:space="preserve" text-anchor="middle" x="715.5" y="-662.33" font-family="Helvetica,sans-Serif" font-size="9.00">Stellarator Fusion Reactor</text>
</g>
<!-- ext_Stellarator_Fusion_Reactor&#45;&gt;Magneto_plasma_Drive -->
<g id="edge11" class="edge">
<title>ext_Stellarator_Fusion_Reactor&#45;&gt;Magneto_plasma_Drive</title>
<path fill="none" stroke="black" d="M728.6,-647.7C735.4,-638.71 743.81,-627.61 751.14,-617.92"/>
<polygon fill="black" stroke="black" points="752.69,-619.36 754.64,-613.31 749.34,-616.83 752.69,-619.36"/>
</g>
<!-- ext_Tokamak_Fusion_Reactor -->
<g id="node20" class="node">
<title>ext_Tokamak_Fusion_Reactor</title>
<path fill="#f0f0f0" stroke="black" stroke-dasharray="5,2" d="M684.12,-612C684.12,-612 590.88,-612 590.88,-612 584.88,-612 578.88,-606 578.88,-600 578.88,-600 578.88,-588 578.88,-588 578.88,-582 584.88,-576 590.88,-576 590.88,-576 684.12,-576 684.12,-576 690.12,-576 696.12,-582 696.12,-588 696.12,-588 696.12,-600 696.12,-600 696.12,-606 690.12,-612 684.12,-612"/>
<text xml:space="preserve" text-anchor="middle" x="637.5" y="-590.33" font-family="Helvetica,sans-Serif" font-size="9.00">Tokamak Fusion Reactor</text>
</g>
<!-- ext_Tokamak_Fusion_Reactor&#45;&gt;Magnetic_Confinement_Fusion_Dr -->
<g id="edge13" class="edge">
<title>ext_Tokamak_Fusion_Reactor&#45;&gt;Magnetic_Confinement_Fusion_Dr</title>
<path fill="none" stroke="black" d="M653.81,-575.7C662.45,-566.54 673.15,-555.19 682.4,-545.38"/>
<polygon fill="black" stroke="black" points="683.75,-547.01 686.33,-541.21 680.69,-544.13 683.75,-547.01"/>
</g>
<!-- ext_Inertial_Confinement_Fusion_Re -->
<g id="node21" class="node">
<title>ext_Inertial_Confinement_Fusion_Re</title>
<path fill="#f0f0f0" stroke="black" stroke-dasharray="5,2" d="M592,-540C592,-540 453,-540 453,-540 447,-540 441,-534 441,-528 441,-528 441,-516 441,-516 441,-510 447,-504 453,-504 453,-504 592,-504 592,-504 598,-504 604,-510 604,-516 604,-516 604,-528 604,-528 604,-534 598,-540 592,-540"/>
<text xml:space="preserve" text-anchor="middle" x="522.5" y="-518.33" font-family="Helvetica,sans-Serif" font-size="9.00">Inertial Confinement Fusion Reactor</text>
</g>
<!-- ext_Inertial_Confinement_Fusion_Re&#45;&gt;Inertial_Confinement_Fusion_Dr -->
<g id="edge15" class="edge">
<title>ext_Inertial_Confinement_Fusion_Re&#45;&gt;Inertial_Confinement_Fusion_Dr</title>
<path fill="none" stroke="black" d="M544.99,-503.7C557.14,-494.36 572.24,-482.74 585.18,-472.79"/>
<polygon fill="black" stroke="black" points="586.27,-474.59 589.75,-469.27 583.71,-471.26 586.27,-474.59"/>
</g>
<!-- ext_Solid_core_Anti_matter_Power_P -->
<g id="node22" class="node">
<title>ext_Solid_core_Anti_matter_Power_P</title>
<path fill="#f0f0f0" stroke="black" stroke-dasharray="5,2" d="M507.62,-468C507.62,-468 375.38,-468 375.38,-468 369.38,-468 363.38,-462 363.38,-456 363.38,-456 363.38,-444 363.38,-444 363.38,-438 369.38,-432 375.38,-432 375.38,-432 507.62,-432 507.62,-432 513.62,-432 519.62,-438 519.62,-444 519.62,-444 519.62,-456 519.62,-456 519.62,-462 513.62,-468 507.62,-468"/>
<text xml:space="preserve" text-anchor="middle" x="441.5" y="-446.32" font-family="Helvetica,sans-Serif" font-size="9.00">Solid&#45;core Anti&#45;matter Power Plant</text>
</g>
<!-- ext_Solid_core_Anti_matter_Power_P&#45;&gt;Solid_Core_Anti_matter_Drive -->
<g id="edge17" class="edge">
<title>ext_Solid_core_Anti_matter_Power_P&#45;&gt;Solid_Core_Anti_matter_Drive</title>
<path fill="none" stroke="black" d="M462.76,-431.7C474.13,-422.44 488.25,-410.95 500.4,-401.06"/>
<polygon fill="black" stroke="black" points="501.69,-402.72 505.01,-397.3 499.04,-399.46 501.69,-402.72"/>
</g>
<!-- ext_Gas_core_Anti_matter_Power_Pla -->
<g id="node23" class="node">
<title>ext_Gas_core_Anti_matter_Power_Pla</title>
<path fill="#f0f0f0" stroke="black" stroke-dasharray="5,2" d="M432.38,-396C432.38,-396 304.62,-396 304.62,-396 298.62,-396 292.62,-390 292.62,-384 292.62,-384 292.62,-372 292.62,-372 292.62,-366 298.62,-360 304.62,-360 304.62,-360 432.38,-360 432.38,-360 438.38,-360 444.38,-366 444.38,-372 444.38,-372 444.38,-384 444.38,-384 444.38,-390 438.38,-396 432.38,-396"/>
<text xml:space="preserve" text-anchor="middle" x="368.5" y="-374.32" font-family="Helvetica,sans-Serif" font-size="9.00">Gas&#45;core Anti&#45;matter Power Plant</text>
</g>
<!-- ext_Gas_core_Anti_matter_Power_Pla&#45;&gt;Gas_Core_Anti_matter_Drive -->
<g id="edge19" class="edge">
<title>ext_Gas_core_Anti_matter_Power_Pla&#45;&gt;Gas_Core_Anti_matter_Drive</title>
<path fill="none" stroke="black" d="M388.28,-359.7C398.85,-350.44 411.99,-338.95 423.29,-329.06"/>
<polygon fill="black" stroke="black" points="424.4,-330.88 427.54,-325.34 421.64,-327.71 424.4,-330.88"/>
</g>
<!-- ext_Plasma_core_Anti_matter_Power_ -->
<g id="node24" class="node">
<title>ext_Plasma_core_Anti_matter_Power_</title>
<path fill="#f0f0f0" stroke="black" stroke-dasharray="5,2" d="M355.5,-324C355.5,-324 213.5,-324 213.5,-324 207.5,-324 201.5,-318 201.5,-312 201.5,-312 201.5,-300 201.5,-300 201.5,-294 207.5,-288 213.5,-288 213.5,-288 355.5,-288 355.5,-288 361.5,-288 367.5,-294 367.5,-300 367.5,-300 367.5,-312 367.5,-312 367.5,-318 361.5,-324 355.5,-324"/>
<text xml:space="preserve" text-anchor="middle" x="284.5" y="-302.32" font-family="Helvetica,sans-Serif" font-size="9.00">Plasma&#45;core Anti&#45;matter Power Plant</text>
</g>
<!-- ext_Plasma_core_Anti_matter_Power_&#45;&gt;Plasma_Core_Anti_matter_Drive -->
<g id="edge21" class="edge">
<title>ext_Plasma_core_Anti_matter_Power_&#45;&gt;Plasma_Core_Anti_matter_Drive</title>
<path fill="none" stroke="black" d="M304.77,-287.7C315.61,-278.44 329.08,-266.95 340.66,-257.06"/>
<polygon fill="black" stroke="black" points="341.83,-258.82 345.03,-253.33 339.1,-255.63 341.83,-258.82"/>
</g>
<!-- ext_Beam_Core_Anti_matter_Power_Pl -->
<g id="node25" class="node">
<title>ext_Beam_Core_Anti_matter_Power_Pl</title>
<path fill="#f0f0f0" stroke="black" stroke-dasharray="5,2" d="M266.88,-252C266.88,-252 130.12,-252 130.12,-252 124.12,-252 118.12,-246 118.12,-240 118.12,-240 118.12,-228 118.12,-228 118.12,-222 124.12,-216 130.12,-216 130.12,-216 266.88,-216 266.88,-216 272.88,-216 278.88,-222 278.88,-228 278.88,-228 278.88,-240 278.88,-240 278.88,-246 272.88,-252 266.88,-252"/>
<text xml:space="preserve" text-anchor="middle" x="198.5" y="-230.32" font-family="Helvetica,sans-Serif" font-size="9.00">Beam Core Anti&#45;matter Power Plant</text>
</g>
<!-- ext_Beam_Core_Anti_matter_Power_Pl&#45;&gt;Beam_Core_Anti_matter_Drive -->
<g id="edge23" class="edge">
<title>ext_Beam_Core_Anti_matter_Power_Pl&#45;&gt;Beam_Core_Anti_matter_Drive</title>
<path fill="none" stroke="black" d="M219.26,-215.7C230.37,-206.44 244.16,-194.95 256.03,-185.06"/>
<polygon fill="black" stroke="black" points="257.26,-186.77 260.52,-181.32 254.57,-183.54 257.26,-186.77"/>
</g>
<!-- ext_Vacuum_Energy_Power_Plant -->
<g id="node26" class="node">
<title>ext_Vacuum_Energy_Power_Plant</title>
<path fill="#f0f0f0" stroke="black" stroke-dasharray="5,2" d="M185.62,-180C185.62,-180 77.38,-180 77.38,-180 71.38,-180 65.38,-174 65.38,-168 65.38,-168 65.38,-156 65.38,-156 65.38,-150 71.38,-144 77.38,-144 77.38,-144 185.62,-144 185.62,-144 191.62,-144 197.62,-150 197.62,-156 197.62,-156 197.62,-168 197.62,-168 197.62,-174 191.62,-180 185.62,-180"/>
<text xml:space="preserve" text-anchor="middle" x="131.5" y="-158.32" font-family="Helvetica,sans-Serif" font-size="9.00">Vacuum Energy Power Plant</text>
</g>
<!-- ext_Vacuum_Energy_Power_Plant&#45;&gt;Photonic_Drive -->
<g id="edge25" class="edge">
<title>ext_Vacuum_Energy_Power_Plant&#45;&gt;Photonic_Drive</title>
<path fill="none" stroke="black" d="M150.29,-143.7C160.24,-134.53 172.59,-123.16 183.26,-113.33"/>
<polygon fill="black" stroke="black" points="184.56,-114.98 187.55,-109.37 181.72,-111.89 184.56,-114.98"/>
</g>
<!-- ext_Quantum_Singularity_Power_Plan -->
<g id="node27" class="node">
<title>ext_Quantum_Singularity_Power_Plan</title>
<path fill="#f0f0f0" stroke="black" stroke-dasharray="5,2" d="M139,-108C139,-108 12,-108 12,-108 6,-108 0,-102 0,-96 0,-96 0,-84 0,-84 0,-78 6,-72 12,-72 12,-72 139,-72 139,-72 145,-72 151,-78 151,-84 151,-84 151,-96 151,-96 151,-102 145,-108 139,-108"/>
<text xml:space="preserve" text-anchor="middle" x="75.5" y="-86.33" font-family="Helvetica,sans-Serif" font-size="9.00">Quantum Singularity Power Plant</text>
</g>
<!-- ext_Quantum_Singularity_Power_Plan&#45;&gt;Quantum_Singularity_Drive -->
<g id="edge27" class="edge">
<title>ext_Quantum_Singularity_Power_Plan&#45;&gt;Quantum_Singularity_Drive</title>
<path fill="none" stroke="black" d="M91.81,-71.7C100.45,-62.54 111.15,-51.19 120.4,-41.38"/>
<polygon fill="black" stroke="black" points="121.75,-43.01 124.33,-37.21 118.69,-40.13 121.75,-43.01"/>
</g>
<!-- ext_Pressurised_Water_Reactor -->
<g id="node28" class="node">
<title>ext_Pressurised_Water_Reactor</title>
<path fill="#f0f0f0" stroke="black" stroke-dasharray="5,2" d="M998.88,-972C998.88,-972 898.12,-972 898.12,-972 892.12,-972 886.12,-966 886.12,-960 886.12,-960 886.12,-948 886.12,-948 886.12,-942 892.12,-936 898.12,-936 898.12,-936 998.88,-936 998.88,-936 1004.88,-936 1010.88,-942 1010.88,-948 1010.88,-948 1010.88,-960 1010.88,-960 1010.88,-966 1004.88,-972 998.88,-972"/>
<text xml:space="preserve" text-anchor="middle" x="948.5" y="-950.33" font-family="Helvetica,sans-Serif" font-size="9.00">Pressurised Water Reactor</text>
</g>
<!-- ext_Pressurised_Water_Reactor&#45;&gt;Nuclear_Thermal_Engine -->
<g id="edge3" class="edge">
<title>ext_Pressurised_Water_Reactor&#45;&gt;Nuclear_Thermal_Engine</title>
<path fill="none" stroke="black" d="M967.04,-935.7C976.87,-926.53 989.05,-915.16 999.58,-905.33"/>
<polygon fill="black" stroke="black" points="1000.85,-907.01 1003.81,-901.38 997.99,-903.94 1000.85,-907.01"/>
</g>
<!-- ext_Gaseous_Fission_Reactor -->
<g id="node29" class="node">
<title>ext_Gaseous_Fission_Reactor</title>
<path fill="#f0f0f0" stroke="black" stroke-dasharray="5,2" d="M878.88,-828C878.88,-828 784.12,-828 784.12,-828 778.12,-828 772.12,-822 772.12,-816 772.12,-816 772.12,-804 772.12,-804 772.12,-798 778.12,-792 784.12,-792 784.12,-792 878.88,-792 878.88,-792 884.88,-792 890.88,-798 890.88,-804 890.88,-804 890.88,-816 890.88,-816 890.88,-822 884.88,-828 878.88,-828"/>
<text xml:space="preserve" text-anchor="middle" x="831.5" y="-806.33" font-family="Helvetica,sans-Serif" font-size="9.00">Gaseous Fission Reactor</text>
</g>
<!-- ext_Gaseous_Fission_Reactor&#45;&gt;Nuclear_Gas_Core_Engine -->
<g id="edge7" class="edge">
<title>ext_Gaseous_Fission_Reactor&#45;&gt;Nuclear_Gas_Core_Engine</title>
<path fill="none" stroke="black" d="M847.57,-791.7C856.07,-782.54 866.61,-771.19 875.72,-761.38"/>
<polygon fill="black" stroke="black" points="877.04,-763.04 879.59,-757.21 873.97,-760.18 877.04,-763.04"/>
</g>
</g>
</svg>
