<?xml version="1.0" encoding="UTF-8" standalone="no"?>
<!DOCTYPE svg PUBLIC "-//W3C//DTD SVG 1.1//EN"
 "http://www.w3.org/Graphics/SVG/1.1/DTD/svg11.dtd">
<!-- Generated by graphviz version 14.1.2 (20260124.0452)
 -->
<!-- Title: TechTree Pages: 1 -->
<svg width="550pt" height="65pt"
 viewBox="0.00 0.00 550.00 65.00" xmlns="http://www.w3.org/2000/svg" xmlns:xlink="http://www.w3.org/1999/xlink">
<g id="graph0" class="graph" transform="scale(1 1) rotate(0) translate(4 60.75)">
<title>TechTree</title>
<polygon fill="white" stroke="none" points="-4,4 -4,-60.75 546.25,-60.75 546.25,4 -4,4"/>
<text xml:space="preserve" text-anchor="middle" x="271.12" y="-41.35" font-family="Helvetica,sans-Serif" font-weight="bold" font-size="12.00">Engineering</text>
<!-- Engineering_Section -->
<g id="node1" class="node">
<title>Engineering_Section</title>
<path fill="#d4edda" stroke="black" d="M87.25,-36C87.25,-36 12,-36 12,-36 6,-36 0,-30 0,-24 0,-24 0,-12 0,-12 0,-6 6,0 12,0 12,0 87.25,0 87.25,0 93.25,0 99.25,-6 99.25,-12 99.25,-12 99.25,-24 99.25,-24 99.25,-30 93.25,-36 87.25,-36"/>
<text xml:space="preserve" text-anchor="middle" x="49.62" y="-19.2" font-family="Helvetica,sans-Serif" font-size="9.00">Engineering Section</text>
<text xml:space="preserve" text-anchor="middle" x="49.62" y="-9.45" font-family="Helvetica,sans-Serif" font-size="9.00">1 RP</text>
</g>
<!-- Engineering_Section___Small -->
<g id="node2" class="node">
<title>Engineering_Section___Small</title>
<path fill="#d4edda" stroke="black" d="M235.62,-36C235.62,-36 129.62,-36 129.62,-36 123.63,-36 117.62,-30 117.62,-24 117.62,-24 117.62,-12 117.62,-12 117.62,-6 123.62,0 129.62,0 129.62,0 235.62,0 235.62,0 241.62,0 247.62,-6 247.62,-12 247.62,-12 247.62,-24 247.62,-24 247.62,-30 241.62,-36 235.62,-36"/>
<text xml:space="preserve" text-anchor="middle" x="182.62" y="-19.2" font-family="Helvetica,sans-Serif" font-size="9.00">Engineering Section &#45; Small</text>
<text xml:space="preserve" text-anchor="middle" x="182.62" y="-9.45" font-family="Helvetica,sans-Serif" font-size="9.00">2 RP</text>
</g>
<!-- Engineering_Section___Tiny -->
<g id="node3" class="node">
<title>Engineering_Section___Tiny</title>
<path fill="#d4edda" stroke="black" d="M377.25,-36C377.25,-36 278,-36 278,-36 272,-36 266,-30 266,-24 266,-24 266,-12 266,-12 266,-6 272,0 278,0 278,0 377.25,0 377.25,0 383.25,0 389.25,-6 389.25,-12 389.25,-12 389.25,-24 389.25,-24 389.25,-30 383.25,-36 377.25,-36"/>
<text xml:space="preserve" text-anchor="middle" x="327.62" y="-19.2" font-family="Helvetica,sans-Serif" font-size="9.00">Engineering Section &#45; Tiny</text>
<text xml:space="preserve" text-anchor="middle" x="327.62" y="-9.45" font-family="Helvetica,sans-Serif" font-size="9.00">3 RP</text>
</g>
<!-- Engineering_Section___Fighter -->
<g id="node4" class="node">
<title>Engineering_Section___Fighter</title>
<path fill="#d4edda" stroke="black" d="M530.25,-36C530.25,-36 419,-36 419,-36 413,-36 407,-30 407,-24 407,-24 407,-12 407,-12 407,-6 413,0 419,0 419,0 530.25,0 530.25,0 536.25,0 542.25,-6 542.25,-12 542.25,-12 542.25,-24 542.25,-24 542.25,-30 536.25,-36 530.25,-36"/>
<text xml:space="preserve" text-anchor="middle" x="474.62" y="-19.2" font-family="Helvetica,sans-Serif" font-size="9.00">Engineering Section &#45; Fighter</text>
<text xml:space="preserve" text-anchor="middle" x="474.62" y="-9.45" font-family="Helvetica,sans-Serif" font-size="9.00">4 RP</text>
</g>
</g>
</svg>
