<?xml version="1.0" encoding="UTF-8" standalone="no"?>
<!DOCTYPE svg PUBLIC "-//W3C//DTD SVG 1.1//EN"
 "http://www.w3.org/Graphics/SVG/1.1/DTD/svg11.dtd">
<!-- Generated by graphviz version 14.1.2 (20260124.0452)
 -->
<!-- Title: EngineTechTree Pages: 1 -->
<svg width="1595pt" height="1060pt"
 viewBox="0.00 0.00 1595.00 1060.00" xmlns="http://www.w3.org/2000/svg" xmlns:xlink="http://www.w3.org/1999/xlink">
<g id="graph0" class="graph" transform="scale(1 1) rotate(0) translate(4 1056.25)">
<title>EngineTechTree</title>
<polygon fill="white" stroke="none" points="-4,4 -4,-1056.25 1590.62,-1056.25 1590.62,4 -4,4"/>
<g id="clust1" class="cluster">
<title>cluster_power</title>
<polygon fill="none" stroke="#999999" stroke-dasharray="5,2" points="115.62,-930.5 115.62,-1008.25 1578.62,-1008.25 1578.62,-930.5 115.62,-930.5"/>
<text xml:space="preserve" text-anchor="middle" x="847.12" y="-990.95" font-family="Times,serif" font-size="14.00" fill="#666666">Power Plant Prerequisites</text>
</g>
<!-- rtg -->
<g id="node1" class="node">
<title>rtg</title>
<path fill="#fff3cd" stroke="black" d="M218,-975.75C218,-975.75 135.25,-975.75 135.25,-975.75 129.25,-975.75 123.25,-969.75 123.25,-963.75 123.25,-963.75 123.25,-950.5 123.25,-950.5 123.25,-944.5 129.25,-938.5 135.25,-938.5 135.25,-938.5 218,-938.5 218,-938.5 224,-938.5 230,-944.5 230,-950.5 230,-950.5 230,-963.75 230,-963.75 230,-969.75 224,-975.75 218,-975.75"/>
<text xml:space="preserve" text-anchor="middle" x="176.62" y="-963.2" font-family="Helvetica,sans-Serif" font-size="9.00">Radioisotope Thermal</text>
<text xml:space="preserve" text-anchor="middle" x="176.62" y="-953.45" font-family="Helvetica,sans-Serif" font-size="9.00">Generator</text>
<text xml:space="preserve" text-anchor="middle" x="176.62" y="-943.7" font-family="Helvetica,sans-Serif" font-size="9.00">600 RP</text>
</g>
<!-- nre -->
<g id="node16" class="node">
<title>nre</title>
<path fill="#cce5ff" stroke="black" d="M93.25,-975.12C93.25,-975.12 12,-975.12 12,-975.12 6,-975.12 0,-969.12 0,-963.12 0,-963.12 0,-951.12 0,-951.12 0,-945.12 6,-939.12 12,-939.12 12,-939.12 93.25,-939.12 93.25,-939.12 99.25,-939.12 105.25,-945.12 105.25,-951.12 105.25,-951.12 105.25,-963.12 105.25,-963.12 105.25,-969.12 99.25,-975.12 93.25,-975.12"/>
<text xml:space="preserve" text-anchor="middle" x="52.62" y="-958.33" font-family="Helvetica,sans-Serif" font-size="9.00">Nuclear Radioisotope</text>
<text xml:space="preserve" text-anchor="middle" x="52.62" y="-948.58" font-family="Helvetica,sans-Serif" font-size="9.00">1,000 RP</text>
</g>
<!-- rtg&#45;&gt;nre -->
<g id="edge15" class="edge">
<title>rtg&#45;&gt;nre</title>
<path fill="none" stroke="black" d="M122.94,-957.12C119.57,-957.12 116.19,-957.12 112.81,-957.12"/>
<polygon fill="black" stroke="black" points="112.94,-955.03 106.94,-957.13 112.94,-959.23 112.94,-955.03"/>
</g>
<!-- pwr -->
<g id="node2" class="node">
<title>pwr</title>
<path fill="#fff3cd" stroke="black" d="M326.75,-975.75C326.75,-975.75 260.5,-975.75 260.5,-975.75 254.5,-975.75 248.5,-969.75 248.5,-963.75 248.5,-963.75 248.5,-950.5 248.5,-950.5 248.5,-944.5 254.5,-938.5 260.5,-938.5 260.5,-938.5 326.75,-938.5 326.75,-938.5 332.75,-938.5 338.75,-944.5 338.75,-950.5 338.75,-950.5 338.75,-963.75 338.75,-963.75 338.75,-969.75 332.75,-975.75 326.75,-975.75"/>
<text xml:space="preserve" text-anchor="middle" x="293.62" y="-963.2" font-family="Helvetica,sans-Serif" font-size="9.00">Pressurised Water</text>
<text xml:space="preserve" text-anchor="middle" x="293.62" y="-953.45" font-family="Helvetica,sans-Serif" font-size="9.00">Reactor</text>
<text xml:space="preserve" text-anchor="middle" x="293.62" y="-943.7" font-family="Helvetica,sans-Serif" font-size="9.00">1,200 RP</text>
</g>
<!-- nte -->
<g id="node17" class="node">
<title>nte</title>
<path fill="#cce5ff" stroke="black" d="M323.75,-902.5C323.75,-902.5 263.5,-902.5 263.5,-902.5 257.5,-902.5 251.5,-896.5 251.5,-890.5 251.5,-890.5 251.5,-878.5 251.5,-878.5 251.5,-872.5 257.5,-866.5 263.5,-866.5 263.5,-866.5 323.75,-866.5 323.75,-866.5 329.75,-866.5 335.75,-872.5 335.75,-878.5 335.75,-878.5 335.75,-890.5 335.75,-890.5 335.75,-896.5 329.75,-902.5 323.75,-902.5"/>
<text xml:space="preserve" text-anchor="middle" x="293.62" y="-885.7" font-family="Helvetica,sans-Serif" font-size="9.00">Nuclear Thermal</text>
<text xml:space="preserve" text-anchor="middle" x="293.62" y="-875.95" font-family="Helvetica,sans-Serif" font-size="9.00">2,000 RP</text>
</g>
<!-- pwr&#45;&gt;nte -->
<g id="edge16" class="edge">
<title>pwr&#45;&gt;nte</title>
<path fill="none" stroke="black" d="M293.62,-938.3C293.62,-929.75 293.62,-919.36 293.62,-910.07"/>
<polygon fill="black" stroke="black" points="295.73,-910.1 293.63,-904.1 291.53,-910.1 295.73,-910.1"/>
</g>
<!-- pbr -->
<g id="node3" class="node">
<title>pbr</title>
<path fill="#fff3cd" stroke="black" d="M442.88,-975.12C442.88,-975.12 368.38,-975.12 368.38,-975.12 362.38,-975.12 356.38,-969.12 356.38,-963.12 356.38,-963.12 356.38,-951.12 356.38,-951.12 356.38,-945.12 362.38,-939.12 368.38,-939.12 368.38,-939.12 442.88,-939.12 442.88,-939.12 448.88,-939.12 454.88,-945.12 454.88,-951.12 454.88,-951.12 454.88,-963.12 454.88,-963.12 454.88,-969.12 448.88,-975.12 442.88,-975.12"/>
<text xml:space="preserve" text-anchor="middle" x="405.62" y="-958.33" font-family="Helvetica,sans-Serif" font-size="9.00">Pebble Bed Reactor</text>
<text xml:space="preserve" text-anchor="middle" x="405.62" y="-948.58" font-family="Helvetica,sans-Serif" font-size="9.00">2,400 RP</text>
</g>
<!-- npe -->
<g id="node18" class="node">
<title>npe</title>
<path fill="#cce5ff" stroke="black" d="M430.5,-830.5C430.5,-830.5 380.75,-830.5 380.75,-830.5 374.75,-830.5 368.75,-824.5 368.75,-818.5 368.75,-818.5 368.75,-806.5 368.75,-806.5 368.75,-800.5 374.75,-794.5 380.75,-794.5 380.75,-794.5 430.5,-794.5 430.5,-794.5 436.5,-794.5 442.5,-800.5 442.5,-806.5 442.5,-806.5 442.5,-818.5 442.5,-818.5 442.5,-824.5 436.5,-830.5 430.5,-830.5"/>
<text xml:space="preserve" text-anchor="middle" x="405.62" y="-813.7" font-family="Helvetica,sans-Serif" font-size="9.00">Nuclear Pulse</text>
<text xml:space="preserve" text-anchor="middle" x="405.62" y="-803.95" font-family="Helvetica,sans-Serif" font-size="9.00">4,000 RP</text>
</g>
<!-- pbr&#45;&gt;npe -->
<g id="edge17" class="edge">
<title>pbr&#45;&gt;npe</title>
<path fill="none" stroke="black" d="M405.62,-938.64C405.62,-913.37 405.62,-866.56 405.62,-837.9"/>
<polygon fill="black" stroke="black" points="407.73,-838.2 405.63,-832.2 403.53,-838.2 407.73,-838.2"/>
</g>
<!-- gfr -->
<g id="node4" class="node">
<title>gfr</title>
<path fill="#fff3cd" stroke="black" d="M544.75,-975.75C544.75,-975.75 484.5,-975.75 484.5,-975.75 478.5,-975.75 472.5,-969.75 472.5,-963.75 472.5,-963.75 472.5,-950.5 472.5,-950.5 472.5,-944.5 478.5,-938.5 484.5,-938.5 484.5,-938.5 544.75,-938.5 544.75,-938.5 550.75,-938.5 556.75,-944.5 556.75,-950.5 556.75,-950.5 556.75,-963.75 556.75,-963.75 556.75,-969.75 550.75,-975.75 544.75,-975.75"/>
<text xml:space="preserve" text-anchor="middle" x="514.62" y="-963.2" font-family="Helvetica,sans-Serif" font-size="9.00">Gaseous Fission</text>
<text xml:space="preserve" text-anchor="middle" x="514.62" y="-953.45" font-family="Helvetica,sans-Serif" font-size="9.00">Reactor</text>
<text xml:space="preserve" text-anchor="middle" x="514.62" y="-943.7" font-family="Helvetica,sans-Serif" font-size="9.00">3,600 RP</text>
</g>
<!-- ngc -->
<g id="node19" class="node">
<title>ngc</title>
<path fill="#cce5ff" stroke="black" d="M547.75,-758.5C547.75,-758.5 481.5,-758.5 481.5,-758.5 475.5,-758.5 469.5,-752.5 469.5,-746.5 469.5,-746.5 469.5,-734.5 469.5,-734.5 469.5,-728.5 475.5,-722.5 481.5,-722.5 481.5,-722.5 547.75,-722.5 547.75,-722.5 553.75,-722.5 559.75,-728.5 559.75,-734.5 559.75,-734.5 559.75,-746.5 559.75,-746.5 559.75,-752.5 553.75,-758.5 547.75,-758.5"/>
<text xml:space="preserve" text-anchor="middle" x="514.62" y="-741.7" font-family="Helvetica,sans-Serif" font-size="9.00">Nuclear Gas&#45;Core</text>
<text xml:space="preserve" text-anchor="middle" x="514.62" y="-731.95" font-family="Helvetica,sans-Serif" font-size="9.00">6,000 RP</text>
</g>
<!-- gfr&#45;&gt;ngc -->
<g id="edge18" class="edge">
<title>gfr&#45;&gt;ngc</title>
<path fill="none" stroke="black" d="M514.62,-938.2C514.62,-899.89 514.62,-810.02 514.62,-766.29"/>
<polygon fill="black" stroke="black" points="516.73,-766.44 514.63,-760.44 512.53,-766.44 516.73,-766.44"/>
</g>
<!-- mmf -->
<g id="node5" class="node">
<title>mmf</title>
<path fill="#fff3cd" stroke="black" d="M642.5,-975.75C642.5,-975.75 586.75,-975.75 586.75,-975.75 580.75,-975.75 574.75,-969.75 574.75,-963.75 574.75,-963.75 574.75,-950.5 574.75,-950.5 574.75,-944.5 580.75,-938.5 586.75,-938.5 586.75,-938.5 642.5,-938.5 642.5,-938.5 648.5,-938.5 654.5,-944.5 654.5,-950.5 654.5,-950.5 654.5,-963.75 654.5,-963.75 654.5,-969.75 648.5,-975.75 642.5,-975.75"/>
<text xml:space="preserve" text-anchor="middle" x="614.62" y="-963.2" font-family="Helvetica,sans-Serif" font-size="9.00">Magnetic Mirror</text>
<text xml:space="preserve" text-anchor="middle" x="614.62" y="-953.45" font-family="Helvetica,sans-Serif" font-size="9.00">Fusion</text>
<text xml:space="preserve" text-anchor="middle" x="614.62" y="-943.7" font-family="Helvetica,sans-Serif" font-size="9.00">6,000 RP</text>
</g>
<!-- ion -->
<g id="node20" class="node">
<title>ion</title>
<path fill="#cce5ff" stroke="black" d="M632.38,-686.5C632.38,-686.5 596.88,-686.5 596.88,-686.5 590.88,-686.5 584.88,-680.5 584.88,-674.5 584.88,-674.5 584.88,-662.5 584.88,-662.5 584.88,-656.5 590.88,-650.5 596.88,-650.5 596.88,-650.5 632.38,-650.5 632.38,-650.5 638.38,-650.5 644.38,-656.5 644.38,-662.5 644.38,-662.5 644.38,-674.5 644.38,-674.5 644.38,-680.5 638.38,-686.5 632.38,-686.5"/>
<text xml:space="preserve" text-anchor="middle" x="614.62" y="-669.7" font-family="Helvetica,sans-Serif" font-size="9.00">Ion Drive</text>
<text xml:space="preserve" text-anchor="middle" x="614.62" y="-659.95" font-family="Helvetica,sans-Serif" font-size="9.00">10,000 RP</text>
</g>
<!-- mmf&#45;&gt;ion -->
<g id="edge19" class="edge">
<title>mmf&#45;&gt;ion</title>
<path fill="none" stroke="black" d="M614.62,-938.2C614.62,-888.8 614.62,-750.67 614.62,-694.12"/>
<polygon fill="black" stroke="black" points="616.73,-694.21 614.63,-688.21 612.53,-694.21 616.73,-694.21"/>
</g>
<!-- stl -->
<g id="node6" class="node">
<title>stl</title>
<path fill="#fff3cd" stroke="black" d="M748.62,-975.12C748.62,-975.12 684.62,-975.12 684.62,-975.12 678.62,-975.12 672.62,-969.12 672.62,-963.12 672.62,-963.12 672.62,-951.12 672.62,-951.12 672.62,-945.12 678.62,-939.12 684.62,-939.12 684.62,-939.12 748.62,-939.12 748.62,-939.12 754.62,-939.12 760.62,-945.12 760.62,-951.12 760.62,-951.12 760.62,-963.12 760.62,-963.12 760.62,-969.12 754.62,-975.12 748.62,-975.12"/>
<text xml:space="preserve" text-anchor="middle" x="716.62" y="-958.33" font-family="Helvetica,sans-Serif" font-size="9.00">Stellarator Fusion</text>
<text xml:space="preserve" text-anchor="middle" x="716.62" y="-948.58" font-family="Helvetica,sans-Serif" font-size="9.00">12,000 RP</text>
</g>
<!-- mpd -->
<g id="node21" class="node">
<title>mpd</title>
<path fill="#cce5ff" stroke="black" d="M747.12,-614.5C747.12,-614.5 686.12,-614.5 686.12,-614.5 680.12,-614.5 674.12,-608.5 674.12,-602.5 674.12,-602.5 674.12,-590.5 674.12,-590.5 674.12,-584.5 680.12,-578.5 686.12,-578.5 686.12,-578.5 747.12,-578.5 747.12,-578.5 753.12,-578.5 759.12,-584.5 759.12,-590.5 759.12,-590.5 759.12,-602.5 759.12,-602.5 759.12,-608.5 753.12,-614.5 747.12,-614.5"/>
<text xml:space="preserve" text-anchor="middle" x="716.62" y="-597.7" font-family="Helvetica,sans-Serif" font-size="9.00">Magneto&#45;plasma</text>
<text xml:space="preserve" text-anchor="middle" x="716.62" y="-587.95" font-family="Helvetica,sans-Serif" font-size="9.00">20,000 RP</text>
</g>
<!-- stl&#45;&gt;mpd -->
<g id="edge20" class="edge">
<title>stl&#45;&gt;mpd</title>
<path fill="none" stroke="black" d="M716.62,-939C716.62,-912.22 716.62,-858.81 716.62,-813.5 716.62,-813.5 716.62,-813.5 716.62,-739.5 716.62,-698.49 716.62,-650.81 716.62,-622.45"/>
<polygon fill="black" stroke="black" points="718.73,-622.5 716.63,-616.5 714.53,-622.5 718.73,-622.5"/>
</g>
<!-- tok -->
<g id="node7" class="node">
<title>tok</title>
<path fill="#fff3cd" stroke="black" d="M849,-975.12C849,-975.12 790.25,-975.12 790.25,-975.12 784.25,-975.12 778.25,-969.12 778.25,-963.12 778.25,-963.12 778.25,-951.12 778.25,-951.12 778.25,-945.12 784.25,-939.12 790.25,-939.12 790.25,-939.12 849,-939.12 849,-939.12 855,-939.12 861,-945.12 861,-951.12 861,-951.12 861,-963.12 861,-963.12 861,-969.12 855,-975.12 849,-975.12"/>
<text xml:space="preserve" text-anchor="middle" x="819.62" y="-958.33" font-family="Helvetica,sans-Serif" font-size="9.00">Tokamak Fusion</text>
<text xml:space="preserve" text-anchor="middle" x="819.62" y="-948.58" font-family="Helvetica,sans-Serif" font-size="9.00">24,000 RP</text>
</g>
<!-- mcf -->
<g id="node22" class="node">
<title>mcf</title>
<path fill="#cce5ff" stroke="black" d="M861.75,-542.5C861.75,-542.5 777.5,-542.5 777.5,-542.5 771.5,-542.5 765.5,-536.5 765.5,-530.5 765.5,-530.5 765.5,-517.25 765.5,-517.25 765.5,-511.25 771.5,-505.25 777.5,-505.25 777.5,-505.25 861.75,-505.25 861.75,-505.25 867.75,-505.25 873.75,-511.25 873.75,-517.25 873.75,-517.25 873.75,-530.5 873.75,-530.5 873.75,-536.5 867.75,-542.5 861.75,-542.5"/>
<text xml:space="preserve" text-anchor="middle" x="819.62" y="-529.95" font-family="Helvetica,sans-Serif" font-size="9.00">Magnetic Confinement</text>
<text xml:space="preserve" text-anchor="middle" x="819.62" y="-520.2" font-family="Helvetica,sans-Serif" font-size="9.00">Fusion</text>
<text xml:space="preserve" text-anchor="middle" x="819.62" y="-510.45" font-family="Helvetica,sans-Serif" font-size="9.00">40,000 RP</text>
</g>
<!-- tok&#45;&gt;mcf -->
<g id="edge21" class="edge">
<title>tok&#45;&gt;mcf</title>
<path fill="none" stroke="black" d="M819.62,-939C819.62,-912.22 819.62,-858.81 819.62,-813.5 819.62,-813.5 819.62,-813.5 819.62,-667.5 819.62,-626.36 819.62,-578.54 819.62,-550.04"/>
<polygon fill="black" stroke="black" points="821.73,-550.4 819.63,-544.4 817.53,-550.4 821.73,-550.4"/>
</g>
<!-- icf -->
<g id="node8" class="node">
<title>icf</title>
<path fill="#fff3cd" stroke="black" d="M965.88,-975.75C965.88,-975.75 891.38,-975.75 891.38,-975.75 885.38,-975.75 879.38,-969.75 879.38,-963.75 879.38,-963.75 879.38,-950.5 879.38,-950.5 879.38,-944.5 885.38,-938.5 891.38,-938.5 891.38,-938.5 965.88,-938.5 965.88,-938.5 971.88,-938.5 977.88,-944.5 977.88,-950.5 977.88,-950.5 977.88,-963.75 977.88,-963.75 977.88,-969.75 971.88,-975.75 965.88,-975.75"/>
<text xml:space="preserve" text-anchor="middle" x="928.62" y="-963.2" font-family="Helvetica,sans-Serif" font-size="9.00">Inertial Confinement</text>
<text xml:space="preserve" text-anchor="middle" x="928.62" y="-953.45" font-family="Helvetica,sans-Serif" font-size="9.00">Fusion</text>
<text xml:space="preserve" text-anchor="middle" x="928.62" y="-943.7" font-family="Helvetica,sans-Serif" font-size="9.00">45,000 RP</text>
</g>
<!-- icfe -->
<g id="node23" class="node">
<title>icfe</title>
<path fill="#cce5ff" stroke="black" d="M965.88,-469.25C965.88,-469.25 891.38,-469.25 891.38,-469.25 885.38,-469.25 879.38,-463.25 879.38,-457.25 879.38,-457.25 879.38,-444 879.38,-444 879.38,-438 885.38,-432 891.38,-432 891.38,-432 965.88,-432 965.88,-432 971.88,-432 977.88,-438 977.88,-444 977.88,-444 977.88,-457.25 977.88,-457.25 977.88,-463.25 971.88,-469.25 965.88,-469.25"/>
<text xml:space="preserve" text-anchor="middle" x="928.62" y="-456.7" font-family="Helvetica,sans-Serif" font-size="9.00">Inertial Confinement</text>
<text xml:space="preserve" text-anchor="middle" x="928.62" y="-446.95" font-family="Helvetica,sans-Serif" font-size="9.00">Fusion</text>
<text xml:space="preserve" text-anchor="middle" x="928.62" y="-437.2" font-family="Helvetica,sans-Serif" font-size="9.00">80,000 RP</text>
</g>
<!-- icf&#45;&gt;icfe -->
<g id="edge22" class="edge">
<title>icf&#45;&gt;icfe</title>
<path fill="none" stroke="black" d="M928.62,-938.11C928.62,-911.06 928.62,-858.32 928.62,-813.5 928.62,-813.5 928.62,-813.5 928.62,-595.5 928.62,-553.77 928.62,-505.23 928.62,-476.54"/>
<polygon fill="black" stroke="black" points="930.73,-476.86 928.63,-470.86 926.53,-476.86 930.73,-476.86"/>
</g>
<!-- sam -->
<g id="node9" class="node">
<title>sam</title>
<path fill="#fff3cd" stroke="black" d="M1057.5,-975.12C1057.5,-975.12 1007.75,-975.12 1007.75,-975.12 1001.75,-975.12 995.75,-969.12 995.75,-963.12 995.75,-963.12 995.75,-951.12 995.75,-951.12 995.75,-945.12 1001.75,-939.12 1007.75,-939.12 1007.75,-939.12 1057.5,-939.12 1057.5,-939.12 1063.5,-939.12 1069.5,-945.12 1069.5,-951.12 1069.5,-951.12 1069.5,-963.12 1069.5,-963.12 1069.5,-969.12 1063.5,-975.12 1057.5,-975.12"/>
<text xml:space="preserve" text-anchor="middle" x="1032.62" y="-958.33" font-family="Helvetica,sans-Serif" font-size="9.00">Solid&#45;core AM</text>
<text xml:space="preserve" text-anchor="middle" x="1032.62" y="-948.58" font-family="Helvetica,sans-Serif" font-size="9.00">90,000 RP</text>
</g>
<!-- scam -->
<g id="node24" class="node">
<title>scam</title>
<path fill="#cce5ff" stroke="black" d="M1058.25,-396C1058.25,-396 1007,-396 1007,-396 1001,-396 995,-390 995,-384 995,-384 995,-372 995,-372 995,-366 1001,-360 1007,-360 1007,-360 1058.25,-360 1058.25,-360 1064.25,-360 1070.25,-366 1070.25,-372 1070.25,-372 1070.25,-384 1070.25,-384 1070.25,-390 1064.25,-396 1058.25,-396"/>
<text xml:space="preserve" text-anchor="middle" x="1032.62" y="-379.2" font-family="Helvetica,sans-Serif" font-size="9.00">Solid Core AM</text>
<text xml:space="preserve" text-anchor="middle" x="1032.62" y="-369.45" font-family="Helvetica,sans-Serif" font-size="9.00">150,000 RP</text>
</g>
<!-- sam&#45;&gt;scam -->
<g id="edge23" class="edge">
<title>sam&#45;&gt;scam</title>
<path fill="none" stroke="black" d="M1032.62,-939C1032.62,-912.22 1032.62,-858.81 1032.62,-813.5 1032.62,-813.5 1032.62,-813.5 1032.62,-522.88 1032.62,-480.91 1032.62,-432.07 1032.62,-403.44"/>
<polygon fill="black" stroke="black" points="1034.73,-403.79 1032.63,-397.79 1030.53,-403.79 1034.73,-403.79"/>
</g>
<!-- gam -->
<g id="node10" class="node">
<title>gam</title>
<path fill="#fff3cd" stroke="black" d="M1145.25,-975.12C1145.25,-975.12 1100,-975.12 1100,-975.12 1094,-975.12 1088,-969.12 1088,-963.12 1088,-963.12 1088,-951.12 1088,-951.12 1088,-945.12 1094,-939.12 1100,-939.12 1100,-939.12 1145.25,-939.12 1145.25,-939.12 1151.25,-939.12 1157.25,-945.12 1157.25,-951.12 1157.25,-951.12 1157.25,-963.12 1157.25,-963.12 1157.25,-969.12 1151.25,-975.12 1145.25,-975.12"/>
<text xml:space="preserve" text-anchor="middle" x="1122.62" y="-958.33" font-family="Helvetica,sans-Serif" font-size="9.00">Gas&#45;core AM</text>
<text xml:space="preserve" text-anchor="middle" x="1122.62" y="-948.58" font-family="Helvetica,sans-Serif" font-size="9.00">180,000 RP</text>
</g>
<!-- gcam -->
<g id="node25" class="node">
<title>gcam</title>
<path fill="#cce5ff" stroke="black" d="M1146,-324C1146,-324 1099.25,-324 1099.25,-324 1093.25,-324 1087.25,-318 1087.25,-312 1087.25,-312 1087.25,-300 1087.25,-300 1087.25,-294 1093.25,-288 1099.25,-288 1099.25,-288 1146,-288 1146,-288 1152,-288 1158,-294 1158,-300 1158,-300 1158,-312 1158,-312 1158,-318 1152,-324 1146,-324"/>
<text xml:space="preserve" text-anchor="middle" x="1122.62" y="-307.2" font-family="Helvetica,sans-Serif" font-size="9.00">Gas Core AM</text>
<text xml:space="preserve" text-anchor="middle" x="1122.62" y="-297.45" font-family="Helvetica,sans-Serif" font-size="9.00">300,000 RP</text>
</g>
<!-- gam&#45;&gt;gcam -->
<g id="edge24" class="edge">
<title>gam&#45;&gt;gcam</title>
<path fill="none" stroke="black" d="M1122.62,-939C1122.62,-912.22 1122.62,-858.81 1122.62,-813.5 1122.62,-813.5 1122.62,-813.5 1122.62,-449.62 1122.62,-408.21 1122.62,-360.02 1122.62,-331.6"/>
<polygon fill="black" stroke="black" points="1124.73,-331.64 1122.63,-325.64 1120.53,-331.64 1124.73,-331.64"/>
</g>
<!-- pam -->
<g id="node11" class="node">
<title>pam</title>
<path fill="#fff3cd" stroke="black" d="M1246.38,-975.12C1246.38,-975.12 1186.88,-975.12 1186.88,-975.12 1180.88,-975.12 1174.88,-969.12 1174.88,-963.12 1174.88,-963.12 1174.88,-951.12 1174.88,-951.12 1174.88,-945.12 1180.88,-939.12 1186.88,-939.12 1186.88,-939.12 1246.38,-939.12 1246.38,-939.12 1252.38,-939.12 1258.38,-945.12 1258.38,-951.12 1258.38,-951.12 1258.38,-963.12 1258.38,-963.12 1258.38,-969.12 1252.38,-975.12 1246.38,-975.12"/>
<text xml:space="preserve" text-anchor="middle" x="1216.62" y="-958.33" font-family="Helvetica,sans-Serif" font-size="9.00">Plasma&#45;core AM</text>
<text xml:space="preserve" text-anchor="middle" x="1216.62" y="-948.58" font-family="Helvetica,sans-Serif" font-size="9.00">375,000 RP</text>
</g>
<!-- pcam -->
<g id="node26" class="node">
<title>pcam</title>
<path fill="#cce5ff" stroke="black" d="M1247.12,-252C1247.12,-252 1186.12,-252 1186.12,-252 1180.12,-252 1174.12,-246 1174.12,-240 1174.12,-240 1174.12,-228 1174.12,-228 1174.12,-222 1180.12,-216 1186.12,-216 1186.12,-216 1247.12,-216 1247.12,-216 1253.12,-216 1259.12,-222 1259.12,-228 1259.12,-228 1259.12,-240 1259.12,-240 1259.12,-246 1253.12,-252 1247.12,-252"/>
<text xml:space="preserve" text-anchor="middle" x="1216.62" y="-235.2" font-family="Helvetica,sans-Serif" font-size="9.00">Plasma Core AM</text>
<text xml:space="preserve" text-anchor="middle" x="1216.62" y="-225.45" font-family="Helvetica,sans-Serif" font-size="9.00">600,000 RP</text>
</g>
<!-- pam&#45;&gt;pcam -->
<g id="edge25" class="edge">
<title>pam&#45;&gt;pcam</title>
<path fill="none" stroke="black" d="M1216.62,-939C1216.62,-912.22 1216.62,-858.81 1216.62,-813.5 1216.62,-813.5 1216.62,-813.5 1216.62,-377 1216.62,-335.99 1216.62,-288.31 1216.62,-259.95"/>
<polygon fill="black" stroke="black" points="1218.73,-260 1216.63,-254 1214.53,-260 1218.73,-260"/>
</g>
<!-- bam -->
<g id="node12" class="node">
<title>bam</title>
<path fill="#fff3cd" stroke="black" d="M1342.75,-975.12C1342.75,-975.12 1288.5,-975.12 1288.5,-975.12 1282.5,-975.12 1276.5,-969.12 1276.5,-963.12 1276.5,-963.12 1276.5,-951.12 1276.5,-951.12 1276.5,-945.12 1282.5,-939.12 1288.5,-939.12 1288.5,-939.12 1342.75,-939.12 1342.75,-939.12 1348.75,-939.12 1354.75,-945.12 1354.75,-951.12 1354.75,-951.12 1354.75,-963.12 1354.75,-963.12 1354.75,-969.12 1348.75,-975.12 1342.75,-975.12"/>
<text xml:space="preserve" text-anchor="middle" x="1315.62" y="-958.33" font-family="Helvetica,sans-Serif" font-size="9.00">Beam Core AM</text>
<text xml:space="preserve" text-anchor="middle" x="1315.62" y="-948.58" font-family="Helvetica,sans-Serif" font-size="9.00">750,000 RP</text>
</g>
<!-- bcam -->
<g id="node27" class="node">
<title>bcam</title>
<path fill="#cce5ff" stroke="black" d="M1342.75,-180C1342.75,-180 1288.5,-180 1288.5,-180 1282.5,-180 1276.5,-174 1276.5,-168 1276.5,-168 1276.5,-156 1276.5,-156 1276.5,-150 1282.5,-144 1288.5,-144 1288.5,-144 1342.75,-144 1342.75,-144 1348.75,-144 1354.75,-150 1354.75,-156 1354.75,-156 1354.75,-168 1354.75,-168 1354.75,-174 1348.75,-180 1342.75,-180"/>
<text xml:space="preserve" text-anchor="middle" x="1315.62" y="-163.2" font-family="Helvetica,sans-Serif" font-size="9.00">Beam Core AM</text>
<text xml:space="preserve" text-anchor="middle" x="1315.62" y="-153.45" font-family="Helvetica,sans-Serif" font-size="9.00">1,250,000 RP</text>
</g>
<!-- bam&#45;&gt;bcam -->
<g id="edge26" class="edge">
<title>bam&#45;&gt;bcam</title>
<path fill="none" stroke="black" d="M1315.62,-939C1315.62,-912.22 1315.62,-858.81 1315.62,-813.5 1315.62,-813.5 1315.62,-813.5 1315.62,-305 1315.62,-263.99 1315.62,-216.31 1315.62,-187.95"/>
<polygon fill="black" stroke="black" points="1317.73,-188 1315.63,-182 1313.53,-188 1317.73,-188"/>
</g>
<!-- vac -->
<g id="node13" class="node">
<title>vac</title>
<path fill="#fff3cd" stroke="black" d="M1440.88,-975.12C1440.88,-975.12 1384.38,-975.12 1384.38,-975.12 1378.38,-975.12 1372.38,-969.12 1372.38,-963.12 1372.38,-963.12 1372.38,-951.12 1372.38,-951.12 1372.38,-945.12 1378.38,-939.12 1384.38,-939.12 1384.38,-939.12 1440.88,-939.12 1440.88,-939.12 1446.88,-939.12 1452.88,-945.12 1452.88,-951.12 1452.88,-951.12 1452.88,-963.12 1452.88,-963.12 1452.88,-969.12 1446.88,-975.12 1440.88,-975.12"/>
<text xml:space="preserve" text-anchor="middle" x="1412.62" y="-958.33" font-family="Helvetica,sans-Serif" font-size="9.00">Vacuum Energy</text>
<text xml:space="preserve" text-anchor="middle" x="1412.62" y="-948.58" font-family="Helvetica,sans-Serif" font-size="9.00">1,500,000 RP</text>
</g>
<!-- phot -->
<g id="node28" class="node">
<title>phot</title>
<path fill="#cce5ff" stroke="black" d="M1438.62,-108C1438.62,-108 1386.62,-108 1386.62,-108 1380.62,-108 1374.62,-102 1374.62,-96 1374.62,-96 1374.62,-84 1374.62,-84 1374.62,-78 1380.62,-72 1386.62,-72 1386.62,-72 1438.62,-72 1438.62,-72 1444.62,-72 1450.62,-78 1450.62,-84 1450.62,-84 1450.62,-96 1450.62,-96 1450.62,-102 1444.62,-108 1438.62,-108"/>
<text xml:space="preserve" text-anchor="middle" x="1412.62" y="-91.2" font-family="Helvetica,sans-Serif" font-size="9.00">Photonic Drive</text>
<text xml:space="preserve" text-anchor="middle" x="1412.62" y="-81.45" font-family="Helvetica,sans-Serif" font-size="9.00">2,500,000 RP</text>
</g>
<!-- vac&#45;&gt;phot -->
<g id="edge27" class="edge">
<title>vac&#45;&gt;phot</title>
<path fill="none" stroke="black" d="M1412.62,-939C1412.62,-912.22 1412.62,-858.81 1412.62,-813.5 1412.62,-813.5 1412.62,-813.5 1412.62,-233 1412.62,-191.99 1412.62,-144.31 1412.62,-115.95"/>
<polygon fill="black" stroke="black" points="1414.73,-116 1412.63,-110 1410.53,-116 1414.73,-116"/>
</g>
<!-- qsp -->
<g id="node14" class="node">
<title>qsp</title>
<path fill="#fff3cd" stroke="black" d="M1558.25,-975.75C1558.25,-975.75 1483,-975.75 1483,-975.75 1477,-975.75 1471,-969.75 1471,-963.75 1471,-963.75 1471,-950.5 1471,-950.5 1471,-944.5 1477,-938.5 1483,-938.5 1483,-938.5 1558.25,-938.5 1558.25,-938.5 1564.25,-938.5 1570.25,-944.5 1570.25,-950.5 1570.25,-950.5 1570.25,-963.75 1570.25,-963.75 1570.25,-969.75 1564.25,-975.75 1558.25,-975.75"/>
<text xml:space="preserve" text-anchor="middle" x="1520.62" y="-963.2" font-family="Helvetica,sans-Serif" font-size="9.00">Quantum Singularity</text>
<text xml:space="preserve" text-anchor="middle" x="1520.62" y="-953.45" font-family="Helvetica,sans-Serif" font-size="9.00">Power</text>
<text xml:space="preserve" text-anchor="middle" x="1520.62" y="-943.7" font-family="Helvetica,sans-Serif" font-size="9.00">3,000,000 RP</text>
</g>
<!-- qse -->
<g id="node29" class="node">
<title>qse</title>
<path fill="#cce5ff" stroke="black" d="M1483.25,-36C1483.25,-36 1408,-36 1408,-36 1402,-36 1396,-30 1396,-24 1396,-24 1396,-12 1396,-12 1396,-6 1402,0 1408,0 1408,0 1483.25,0 1483.25,0 1489.25,0 1495.25,-6 1495.25,-12 1495.25,-12 1495.25,-24 1495.25,-24 1495.25,-30 1489.25,-36 1483.25,-36"/>
<text xml:space="preserve" text-anchor="middle" x="1445.62" y="-19.2" font-family="Helvetica,sans-Serif" font-size="9.00">Quantum Singularity</text>
<text xml:space="preserve" text-anchor="middle" x="1445.62" y="-9.45" font-family="Helvetica,sans-Serif" font-size="9.00">5,000,000 RP</text>
</g>
<!-- qsp&#45;&gt;qse -->
<g id="edge28" class="edge">
<title>qsp&#45;&gt;qse</title>
<path fill="none" stroke="black" d="M1516.27,-938.24C1510.12,-911.34 1499.62,-858.8 1499.62,-813.5 1499.62,-813.5 1499.62,-813.5 1499.62,-161 1499.62,-116.8 1476.49,-69.63 1460.5,-42.31"/>
<polygon fill="black" stroke="black" points="1462.47,-41.5 1457.59,-37.43 1458.87,-43.66 1462.47,-41.5"/>
</g>
<!-- conv -->
<g id="node15" class="node">
<title>conv</title>
<path fill="#d4edda" stroke="black" d="M91.75,-1052.25C91.75,-1052.25 13.5,-1052.25 13.5,-1052.25 7.5,-1052.25 1.5,-1046.25 1.5,-1040.25 1.5,-1040.25 1.5,-1028.25 1.5,-1028.25 1.5,-1022.25 7.5,-1016.25 13.5,-1016.25 13.5,-1016.25 91.75,-1016.25 91.75,-1016.25 97.75,-1016.25 103.75,-1022.25 103.75,-1028.25 103.75,-1028.25 103.75,-1040.25 103.75,-1040.25 103.75,-1046.25 97.75,-1052.25 91.75,-1052.25"/>
<text xml:space="preserve" text-anchor="middle" x="52.62" y="-1035.45" font-family="Helvetica,sans-Serif" font-size="9.00">Conventional Engine</text>
<text xml:space="preserve" text-anchor="middle" x="52.62" y="-1025.7" font-family="Helvetica,sans-Serif" font-size="9.00">500 RP</text>
</g>
<!-- conv&#45;&gt;nre -->
<!-- nre&#45;&gt;nte -->
<g id="edge2" class="edge">
<title>nre&#45;&gt;nte</title>
<path fill="none" stroke="black" d="M90.34,-938.63C97.34,-935.71 104.64,-932.86 111.62,-930.5 155.56,-915.64 206.98,-903.38 243.93,-895.43"/>
<polygon fill="black" stroke="black" points="244.21,-897.52 249.64,-894.22 243.34,-893.41 244.21,-897.52"/>
</g>
<!-- nte&#45;&gt;npe -->
<g id="edge3" class="edge">
<title>nte&#45;&gt;npe</title>
<path fill="none" stroke="black" d="M321.6,-866.02C336.81,-856.51 355.75,-844.67 371.79,-834.65"/>
<polygon fill="black" stroke="black" points="372.75,-836.52 376.72,-831.56 370.52,-832.96 372.75,-836.52"/>
</g>
<!-- npe&#45;&gt;ngc -->
<g id="edge4" class="edge">
<title>npe&#45;&gt;ngc</title>
<path fill="none" stroke="black" d="M432.85,-794.02C447.66,-784.51 466.08,-772.67 481.69,-762.65"/>
<polygon fill="black" stroke="black" points="482.56,-764.59 486.47,-759.58 480.29,-761.05 482.56,-764.59"/>
</g>
<!-- ngc&#45;&gt;ion -->
<g id="edge5" class="edge">
<title>ngc&#45;&gt;ion</title>
<path fill="none" stroke="black" d="M539.6,-722.02C553.07,-712.59 569.79,-700.88 584.03,-690.91"/>
<polygon fill="black" stroke="black" points="585.02,-692.79 588.73,-687.63 582.61,-689.35 585.02,-692.79"/>
</g>
<!-- ion&#45;&gt;mpd -->
<g id="edge6" class="edge">
<title>ion&#45;&gt;mpd</title>
<path fill="none" stroke="black" d="M640.1,-650.02C653.83,-640.59 670.9,-628.88 685.42,-618.91"/>
<polygon fill="black" stroke="black" points="686.47,-620.74 690.23,-615.62 684.09,-617.28 686.47,-620.74"/>
</g>
<!-- mpd&#45;&gt;mcf -->
<g id="edge7" class="edge">
<title>mpd&#45;&gt;mcf</title>
<path fill="none" stroke="black" d="M742.09,-578.04C755.74,-568.68 772.72,-557.04 787.3,-547.04"/>
<polygon fill="black" stroke="black" points="788.37,-548.85 792.13,-543.73 786,-545.39 788.37,-548.85"/>
</g>
<!-- mcf&#45;&gt;icfe -->
<g id="edge8" class="edge">
<title>mcf&#45;&gt;icfe</title>
<path fill="none" stroke="black" d="M847.13,-504.9C861.72,-495.36 879.76,-483.57 895.15,-473.51"/>
<polygon fill="black" stroke="black" points="895.99,-475.47 899.86,-470.43 893.69,-471.95 895.99,-475.47"/>
</g>
<!-- icfe&#45;&gt;scam -->
<g id="edge9" class="edge">
<title>icfe&#45;&gt;scam</title>
<path fill="none" stroke="black" d="M955.14,-431.62C969.04,-422.18 986.17,-410.55 1000.79,-400.62"/>
<polygon fill="black" stroke="black" points="1001.84,-402.44 1005.63,-397.33 999.48,-398.97 1001.84,-402.44"/>
</g>
<!-- scam&#45;&gt;gcam -->
<g id="edge10" class="edge">
<title>scam&#45;&gt;gcam</title>
<path fill="none" stroke="black" d="M1054.87,-359.7C1066.88,-350.36 1081.82,-338.74 1094.61,-328.79"/>
<polygon fill="black" stroke="black" points="1095.68,-330.62 1099.13,-325.28 1093.1,-327.3 1095.68,-330.62"/>
</g>
<!-- gcam&#45;&gt;pcam -->
<g id="edge11" class="edge">
<title>gcam&#45;&gt;pcam</title>
<path fill="none" stroke="black" d="M1145.86,-287.7C1158.4,-278.36 1174.01,-266.74 1187.37,-256.79"/>
<polygon fill="black" stroke="black" points="1188.56,-258.52 1192.12,-253.25 1186.05,-255.15 1188.56,-258.52"/>
</g>
<!-- pcam&#45;&gt;bcam -->
<g id="edge12" class="edge">
<title>pcam&#45;&gt;bcam</title>
<path fill="none" stroke="black" d="M1241.35,-215.52C1254.68,-206.09 1271.24,-194.38 1285.34,-184.41"/>
<polygon fill="black" stroke="black" points="1286.29,-186.31 1289.98,-181.13 1283.87,-182.88 1286.29,-186.31"/>
</g>
<!-- bcam&#45;&gt;phot -->
<g id="edge13" class="edge">
<title>bcam&#45;&gt;phot</title>
<path fill="none" stroke="black" d="M1339.6,-143.7C1352.66,-134.27 1368.94,-122.53 1382.81,-112.52"/>
<polygon fill="black" stroke="black" points="1383.72,-114.45 1387.36,-109.23 1381.27,-111.04 1383.72,-114.45"/>
</g>
<!-- phot&#45;&gt;qse -->
<g id="edge14" class="edge">
<title>phot&#45;&gt;qse</title>
<path fill="none" stroke="black" d="M1420.78,-71.7C1424.9,-62.97 1429.95,-52.24 1434.43,-42.75"/>
<polygon fill="black" stroke="black" points="1436.26,-43.8 1436.92,-37.47 1432.46,-42.01 1436.26,-43.8"/>
</g>
</g>
</svg>
