<?xml version="1.0" encoding="UTF-8" standalone="no"?>
<!DOCTYPE svg PUBLIC "-//W3C//DTD SVG 1.1//EN"
 "http://www.w3.org/Graphics/SVG/1.1/DTD/svg11.dtd">
<!-- Generated by graphviz version 14.1.2 (20260124.0452)
 -->
<!-- Title: TechTree Pages: 1 -->
<svg width="150pt" height="241pt"
 viewBox="0.00 0.00 150.00 241.00" xmlns="http://www.w3.org/2000/svg" xmlns:xlink="http://www.w3.org/1999/xlink">
<g id="graph0" class="graph" transform="scale(1 1) rotate(0) translate(4 237)">
<title>TechTree</title>
<polygon fill="white" stroke="none" points="-4,4 -4,-237 146,-237 146,4 -4,4"/>
<text xml:space="preserve" text-anchor="middle" x="71" y="-215.7" font-family="Helvetica,sans-Serif" font-weight="bold" font-size="14.00">Engineering</text>
<!-- Engineering_Section -->
<g id="node1" class="node">
<title>Engineering_Section</title>
<path fill="#d4edda" stroke="black" d="M110.5,-36C110.5,-36 31.5,-36 31.5,-36 25.5,-36 19.5,-30 19.5,-24 19.5,-24 19.5,-12 19.5,-12 19.5,-6 25.5,0 31.5,0 31.5,0 110.5,0 110.5,0 116.5,0 122.5,-6 122.5,-12 122.5,-12 122.5,-24 122.5,-24 122.5,-30 116.5,-36 110.5,-36"/>
<text xml:space="preserve" text-anchor="middle" x="71" y="-19.75" font-family="Helvetica,sans-Serif" font-size="10.00">Engineering Section</text>
<text xml:space="preserve" text-anchor="middle" x="71" y="-8.5" font-family="Helvetica,sans-Serif" font-size="10.00">1 RP</text>
</g>
<!-- Engineering_Section___Small -->
<g id="node2" class="node">
<title>Engineering_Section___Small</title>
<path fill="#d4edda" stroke="black" d="M127.38,-94C127.38,-94 14.62,-94 14.62,-94 8.62,-94 2.62,-88 2.62,-82 2.62,-82 2.62,-70 2.62,-70 2.62,-64 8.62,-58 14.62,-58 14.62,-58 127.38,-58 127.38,-58 133.38,-58 139.38,-64 139.38,-70 139.38,-70 139.38,-82 139.38,-82 139.38,-88 133.38,-94 127.38,-94"/>
<text xml:space="preserve" text-anchor="middle" x="71" y="-77.75" font-family="Helvetica,sans-Serif" font-size="10.00">Engineering Section &#45; Small</text>
<text xml:space="preserve" text-anchor="middle" x="71" y="-66.5" font-family="Helvetica,sans-Serif" font-size="10.00">2 RP</text>
</g>
<!-- Engineering_Section___Tiny -->
<g id="node3" class="node">
<title>Engineering_Section___Tiny</title>
<path fill="#d4edda" stroke="black" d="M124.38,-152C124.38,-152 17.62,-152 17.62,-152 11.63,-152 5.62,-146 5.62,-140 5.62,-140 5.62,-128 5.62,-128 5.62,-122 11.62,-116 17.62,-116 17.62,-116 124.38,-116 124.38,-116 130.38,-116 136.38,-122 136.38,-128 136.38,-128 136.38,-140 136.38,-140 136.38,-146 130.38,-152 124.38,-152"/>
<text xml:space="preserve" text-anchor="middle" x="71" y="-135.75" font-family="Helvetica,sans-Serif" font-size="10.00">Engineering Section &#45; Tiny</text>
<text xml:space="preserve" text-anchor="middle" x="71" y="-124.5" font-family="Helvetica,sans-Serif" font-size="10.00">3 RP</text>
</g>
<!-- Engineering_Section___Fighter -->
<g id="node4" class="node">
<title>Engineering_Section___Fighter</title>
<path fill="#d4edda" stroke="black" d="M130,-210C130,-210 12,-210 12,-210 6,-210 0,-204 0,-198 0,-198 0,-186 0,-186 0,-180 6,-174 12,-174 12,-174 130,-174 130,-174 136,-174 142,-180 142,-186 142,-186 142,-198 142,-198 142,-204 136,-210 130,-210"/>
<text xml:space="preserve" text-anchor="middle" x="71" y="-193.75" font-family="Helvetica,sans-Serif" font-size="10.00">Engineering Section &#45; Fighter</text>
<text xml:space="preserve" text-anchor="middle" x="71" y="-182.5" font-family="Helvetica,sans-Serif" font-size="10.00">4 RP</text>
</g>
</g>
</svg>
