<?xml version="1.0" encoding="UTF-8" standalone="no"?>
<!DOCTYPE svg PUBLIC "-//W3C//DTD SVG 1.1//EN"
 "http://www.w3.org/Graphics/SVG/1.1/DTD/svg11.dtd">
<!-- Generated by graphviz version 14.1.2 (20260124.0452)
 -->
<!-- Title: TechTree Pages: 1 -->
<svg width="293pt" height="912pt"
 viewBox="0.00 0.00 293.00 912.00" xmlns="http://www.w3.org/2000/svg" xmlns:xlink="http://www.w3.org/1999/xlink">
<g id="graph0" class="graph" transform="scale(1 1) rotate(0) translate(4 908)">
<title>TechTree</title>
<polygon fill="white" stroke="none" points="-4,4 -4,-908 289.38,-908 289.38,4 -4,4"/>
<text xml:space="preserve" text-anchor="middle" x="142.69" y="-886.7" font-family="Helvetica,sans-Serif" font-weight="bold" font-size="14.00">Engine Technology</text>
<!-- Conventional_Engine -->
<g id="node1" class="node">
<title>Conventional_Engine</title>
<path fill="#d4edda" stroke="black" d="M94,-881C94,-881 12,-881 12,-881 6,-881 0,-875 0,-869 0,-869 0,-857 0,-857 0,-851 6,-845 12,-845 12,-845 94,-845 94,-845 100,-845 106,-851 106,-857 106,-857 106,-869 106,-869 106,-875 100,-881 94,-881"/>
<text xml:space="preserve" text-anchor="middle" x="53" y="-864.75" font-family="Helvetica,sans-Serif" font-size="10.00">Conventional Engine</text>
<text xml:space="preserve" text-anchor="middle" x="53" y="-853.5" font-family="Helvetica,sans-Serif" font-size="10.00">500 RP</text>
</g>
<!-- Nuclear_Radioisotope_Engine -->
<g id="node2" class="node">
<title>Nuclear_Radioisotope_Engine</title>
<path fill="#cce5ff" stroke="black" d="M258.38,-881C258.38,-881 139.62,-881 139.62,-881 133.62,-881 127.62,-875 127.62,-869 127.62,-869 127.62,-857 127.62,-857 127.62,-851 133.62,-845 139.62,-845 139.62,-845 258.38,-845 258.38,-845 264.38,-845 270.38,-851 270.38,-857 270.38,-857 270.38,-869 270.38,-869 270.38,-875 264.38,-881 258.38,-881"/>
<text xml:space="preserve" text-anchor="middle" x="199" y="-864.75" font-family="Helvetica,sans-Serif" font-size="10.00">Nuclear Radioisotope Engine</text>
<text xml:space="preserve" text-anchor="middle" x="199" y="-853.5" font-family="Helvetica,sans-Serif" font-size="10.00">1K RP</text>
</g>
<!-- Nuclear_Thermal_Engine -->
<g id="node3" class="node">
<title>Nuclear_Thermal_Engine</title>
<path fill="#cce5ff" stroke="black" d="M247.5,-816C247.5,-816 150.5,-816 150.5,-816 144.5,-816 138.5,-810 138.5,-804 138.5,-804 138.5,-792 138.5,-792 138.5,-786 144.5,-780 150.5,-780 150.5,-780 247.5,-780 247.5,-780 253.5,-780 259.5,-786 259.5,-792 259.5,-792 259.5,-804 259.5,-804 259.5,-810 253.5,-816 247.5,-816"/>
<text xml:space="preserve" text-anchor="middle" x="199" y="-799.75" font-family="Helvetica,sans-Serif" font-size="10.00">Nuclear Thermal Engine</text>
<text xml:space="preserve" text-anchor="middle" x="199" y="-788.5" font-family="Helvetica,sans-Serif" font-size="10.00">2K RP</text>
</g>
<!-- Nuclear_Radioisotope_Engine&#45;&gt;Nuclear_Thermal_Engine -->
<g id="edge1" class="edge">
<title>Nuclear_Radioisotope_Engine&#45;&gt;Nuclear_Thermal_Engine</title>
<path fill="none" stroke="black" d="M199,-844.78C199,-838.53 199,-831.33 199,-824.52"/>
<polygon fill="black" stroke="black" points="201.45,-824.71 199,-817.71 196.55,-824.71 201.45,-824.71"/>
</g>
<!-- Nuclear_Pulse_Engine -->
<g id="node4" class="node">
<title>Nuclear_Pulse_Engine</title>
<path fill="#cce5ff" stroke="black" d="M242.25,-751C242.25,-751 155.75,-751 155.75,-751 149.75,-751 143.75,-745 143.75,-739 143.75,-739 143.75,-727 143.75,-727 143.75,-721 149.75,-715 155.75,-715 155.75,-715 242.25,-715 242.25,-715 248.25,-715 254.25,-721 254.25,-727 254.25,-727 254.25,-739 254.25,-739 254.25,-745 248.25,-751 242.25,-751"/>
<text xml:space="preserve" text-anchor="middle" x="199" y="-734.75" font-family="Helvetica,sans-Serif" font-size="10.00">Nuclear Pulse Engine</text>
<text xml:space="preserve" text-anchor="middle" x="199" y="-723.5" font-family="Helvetica,sans-Serif" font-size="10.00">4K RP</text>
</g>
<!-- Nuclear_Thermal_Engine&#45;&gt;Nuclear_Pulse_Engine -->
<g id="edge2" class="edge">
<title>Nuclear_Thermal_Engine&#45;&gt;Nuclear_Pulse_Engine</title>
<path fill="none" stroke="black" d="M199,-779.78C199,-773.53 199,-766.33 199,-759.52"/>
<polygon fill="black" stroke="black" points="201.45,-759.71 199,-752.71 196.55,-759.71 201.45,-759.71"/>
</g>
<!-- Nuclear_Gas_Core_Engine -->
<g id="node5" class="node">
<title>Nuclear_Gas_Core_Engine</title>
<path fill="#cce5ff" stroke="black" d="M250.88,-686C250.88,-686 147.12,-686 147.12,-686 141.12,-686 135.12,-680 135.12,-674 135.12,-674 135.12,-662 135.12,-662 135.12,-656 141.12,-650 147.12,-650 147.12,-650 250.88,-650 250.88,-650 256.88,-650 262.88,-656 262.88,-662 262.88,-662 262.88,-674 262.88,-674 262.88,-680 256.88,-686 250.88,-686"/>
<text xml:space="preserve" text-anchor="middle" x="199" y="-669.75" font-family="Helvetica,sans-Serif" font-size="10.00">Nuclear Gas&#45;Core Engine</text>
<text xml:space="preserve" text-anchor="middle" x="199" y="-658.5" font-family="Helvetica,sans-Serif" font-size="10.00">6K RP</text>
</g>
<!-- Nuclear_Pulse_Engine&#45;&gt;Nuclear_Gas_Core_Engine -->
<g id="edge3" class="edge">
<title>Nuclear_Pulse_Engine&#45;&gt;Nuclear_Gas_Core_Engine</title>
<path fill="none" stroke="black" d="M199,-714.78C199,-708.53 199,-701.33 199,-694.52"/>
<polygon fill="black" stroke="black" points="201.45,-694.71 199,-687.71 196.55,-694.71 201.45,-694.71"/>
</g>
<!-- Ion_Drive -->
<g id="node6" class="node">
<title>Ion_Drive</title>
<path fill="#cce5ff" stroke="black" d="M214.88,-621C214.88,-621 183.12,-621 183.12,-621 177.12,-621 171.12,-615 171.12,-609 171.12,-609 171.12,-597 171.12,-597 171.12,-591 177.12,-585 183.12,-585 183.12,-585 214.88,-585 214.88,-585 220.88,-585 226.88,-591 226.88,-597 226.88,-597 226.88,-609 226.88,-609 226.88,-615 220.88,-621 214.88,-621"/>
<text xml:space="preserve" text-anchor="middle" x="199" y="-604.75" font-family="Helvetica,sans-Serif" font-size="10.00">Ion Drive</text>
<text xml:space="preserve" text-anchor="middle" x="199" y="-593.5" font-family="Helvetica,sans-Serif" font-size="10.00">10K RP</text>
</g>
<!-- Nuclear_Gas_Core_Engine&#45;&gt;Ion_Drive -->
<g id="edge4" class="edge">
<title>Nuclear_Gas_Core_Engine&#45;&gt;Ion_Drive</title>
<path fill="none" stroke="black" d="M199,-649.78C199,-643.53 199,-636.33 199,-629.52"/>
<polygon fill="black" stroke="black" points="201.45,-629.71 199,-622.71 196.55,-629.71 201.45,-629.71"/>
</g>
<!-- Magneto_plasma_Drive -->
<g id="node7" class="node">
<title>Magneto_plasma_Drive</title>
<path fill="#fff3cd" stroke="black" d="M244.12,-556C244.12,-556 153.88,-556 153.88,-556 147.88,-556 141.88,-550 141.88,-544 141.88,-544 141.88,-532 141.88,-532 141.88,-526 147.88,-520 153.88,-520 153.88,-520 244.12,-520 244.12,-520 250.12,-520 256.12,-526 256.12,-532 256.12,-532 256.12,-544 256.12,-544 256.12,-550 250.12,-556 244.12,-556"/>
<text xml:space="preserve" text-anchor="middle" x="199" y="-539.75" font-family="Helvetica,sans-Serif" font-size="10.00">Magneto&#45;plasma Drive</text>
<text xml:space="preserve" text-anchor="middle" x="199" y="-528.5" font-family="Helvetica,sans-Serif" font-size="10.00">20K RP</text>
</g>
<!-- Ion_Drive&#45;&gt;Magneto_plasma_Drive -->
<g id="edge5" class="edge">
<title>Ion_Drive&#45;&gt;Magneto_plasma_Drive</title>
<path fill="none" stroke="black" d="M199,-584.78C199,-578.53 199,-571.33 199,-564.52"/>
<polygon fill="black" stroke="black" points="201.45,-564.71 199,-557.71 196.55,-564.71 201.45,-564.71"/>
</g>
<!-- Magnetic_Confinement_Fusion_Dr -->
<g id="node8" class="node">
<title>Magnetic_Confinement_Fusion_Dr</title>
<path fill="#fff3cd" stroke="black" d="M273.38,-491C273.38,-491 124.62,-491 124.62,-491 118.62,-491 112.62,-485 112.62,-479 112.62,-479 112.62,-467 112.62,-467 112.62,-461 118.62,-455 124.62,-455 124.62,-455 273.38,-455 273.38,-455 279.38,-455 285.38,-461 285.38,-467 285.38,-467 285.38,-479 285.38,-479 285.38,-485 279.38,-491 273.38,-491"/>
<text xml:space="preserve" text-anchor="middle" x="199" y="-474.75" font-family="Helvetica,sans-Serif" font-size="10.00">Magnetic Confinement Fusion Drive</text>
<text xml:space="preserve" text-anchor="middle" x="199" y="-463.5" font-family="Helvetica,sans-Serif" font-size="10.00">40K RP</text>
</g>
<!-- Magneto_plasma_Drive&#45;&gt;Magnetic_Confinement_Fusion_Dr -->
<g id="edge6" class="edge">
<title>Magneto_plasma_Drive&#45;&gt;Magnetic_Confinement_Fusion_Dr</title>
<path fill="none" stroke="black" d="M199,-519.78C199,-513.53 199,-506.33 199,-499.52"/>
<polygon fill="black" stroke="black" points="201.45,-499.71 199,-492.71 196.55,-499.71 201.45,-499.71"/>
</g>
<!-- Inertial_Confinement_Fusion_Dr -->
<g id="node9" class="node">
<title>Inertial_Confinement_Fusion_Dr</title>
<path fill="#fff3cd" stroke="black" d="M268.12,-426C268.12,-426 129.88,-426 129.88,-426 123.88,-426 117.88,-420 117.88,-414 117.88,-414 117.88,-402 117.88,-402 117.88,-396 123.88,-390 129.88,-390 129.88,-390 268.12,-390 268.12,-390 274.12,-390 280.12,-396 280.12,-402 280.12,-402 280.12,-414 280.12,-414 280.12,-420 274.12,-426 268.12,-426"/>
<text xml:space="preserve" text-anchor="middle" x="199" y="-409.75" font-family="Helvetica,sans-Serif" font-size="10.00">Inertial Confinement Fusion Drive</text>
<text xml:space="preserve" text-anchor="middle" x="199" y="-398.5" font-family="Helvetica,sans-Serif" font-size="10.00">80K RP</text>
</g>
<!-- Magnetic_Confinement_Fusion_Dr&#45;&gt;Inertial_Confinement_Fusion_Dr -->
<g id="edge7" class="edge">
<title>Magnetic_Confinement_Fusion_Dr&#45;&gt;Inertial_Confinement_Fusion_Dr</title>
<path fill="none" stroke="black" d="M199,-454.78C199,-448.53 199,-441.33 199,-434.52"/>
<polygon fill="black" stroke="black" points="201.45,-434.71 199,-427.71 196.55,-434.71 201.45,-434.71"/>
</g>
<!-- Solid_Core_Anti_matter_Drive -->
<g id="node10" class="node">
<title>Solid_Core_Anti_matter_Drive</title>
<path fill="#d4c4fb" stroke="black" d="M256.12,-361C256.12,-361 141.88,-361 141.88,-361 135.88,-361 129.88,-355 129.88,-349 129.88,-349 129.88,-337 129.88,-337 129.88,-331 135.88,-325 141.88,-325 141.88,-325 256.12,-325 256.12,-325 262.12,-325 268.12,-331 268.12,-337 268.12,-337 268.12,-349 268.12,-349 268.12,-355 262.12,-361 256.12,-361"/>
<text xml:space="preserve" text-anchor="middle" x="199" y="-344.75" font-family="Helvetica,sans-Serif" font-size="10.00">Solid Core Anti&#45;matter Drive</text>
<text xml:space="preserve" text-anchor="middle" x="199" y="-333.5" font-family="Helvetica,sans-Serif" font-size="10.00">150K RP</text>
</g>
<!-- Inertial_Confinement_Fusion_Dr&#45;&gt;Solid_Core_Anti_matter_Drive -->
<g id="edge8" class="edge">
<title>Inertial_Confinement_Fusion_Dr&#45;&gt;Solid_Core_Anti_matter_Drive</title>
<path fill="none" stroke="black" d="M199,-389.78C199,-383.53 199,-376.33 199,-369.52"/>
<polygon fill="black" stroke="black" points="201.45,-369.71 199,-362.71 196.55,-369.71 201.45,-369.71"/>
</g>
<!-- Gas_Core_Anti_matter_Drive -->
<g id="node11" class="node">
<title>Gas_Core_Anti_matter_Drive</title>
<path fill="#d4c4fb" stroke="black" d="M254.25,-296C254.25,-296 143.75,-296 143.75,-296 137.75,-296 131.75,-290 131.75,-284 131.75,-284 131.75,-272 131.75,-272 131.75,-266 137.75,-260 143.75,-260 143.75,-260 254.25,-260 254.25,-260 260.25,-260 266.25,-266 266.25,-272 266.25,-272 266.25,-284 266.25,-284 266.25,-290 260.25,-296 254.25,-296"/>
<text xml:space="preserve" text-anchor="middle" x="199" y="-279.75" font-family="Helvetica,sans-Serif" font-size="10.00">Gas Core Anti&#45;matter Drive</text>
<text xml:space="preserve" text-anchor="middle" x="199" y="-268.5" font-family="Helvetica,sans-Serif" font-size="10.00">300K RP</text>
</g>
<!-- Solid_Core_Anti_matter_Drive&#45;&gt;Gas_Core_Anti_matter_Drive -->
<g id="edge9" class="edge">
<title>Solid_Core_Anti_matter_Drive&#45;&gt;Gas_Core_Anti_matter_Drive</title>
<path fill="none" stroke="black" d="M199,-324.78C199,-318.53 199,-311.33 199,-304.52"/>
<polygon fill="black" stroke="black" points="201.45,-304.71 199,-297.71 196.55,-304.71 201.45,-304.71"/>
</g>
<!-- Plasma_Core_Anti_matter_Drive -->
<g id="node12" class="node">
<title>Plasma_Core_Anti_matter_Drive</title>
<path fill="#d4c4fb" stroke="black" d="M261.75,-231C261.75,-231 136.25,-231 136.25,-231 130.25,-231 124.25,-225 124.25,-219 124.25,-219 124.25,-207 124.25,-207 124.25,-201 130.25,-195 136.25,-195 136.25,-195 261.75,-195 261.75,-195 267.75,-195 273.75,-201 273.75,-207 273.75,-207 273.75,-219 273.75,-219 273.75,-225 267.75,-231 261.75,-231"/>
<text xml:space="preserve" text-anchor="middle" x="199" y="-214.75" font-family="Helvetica,sans-Serif" font-size="10.00">Plasma Core Anti&#45;matter Drive</text>
<text xml:space="preserve" text-anchor="middle" x="199" y="-203.5" font-family="Helvetica,sans-Serif" font-size="10.00">600K RP</text>
</g>
<!-- Gas_Core_Anti_matter_Drive&#45;&gt;Plasma_Core_Anti_matter_Drive -->
<g id="edge10" class="edge">
<title>Gas_Core_Anti_matter_Drive&#45;&gt;Plasma_Core_Anti_matter_Drive</title>
<path fill="none" stroke="black" d="M199,-259.78C199,-253.53 199,-246.33 199,-239.52"/>
<polygon fill="black" stroke="black" points="201.45,-239.71 199,-232.71 196.55,-239.71 201.45,-239.71"/>
</g>
<!-- Beam_Core_Anti_matter_Drive -->
<g id="node13" class="node">
<title>Beam_Core_Anti_matter_Drive</title>
<path fill="#f8d7da" stroke="black" d="M258,-166C258,-166 140,-166 140,-166 134,-166 128,-160 128,-154 128,-154 128,-142 128,-142 128,-136 134,-130 140,-130 140,-130 258,-130 258,-130 264,-130 270,-136 270,-142 270,-142 270,-154 270,-154 270,-160 264,-166 258,-166"/>
<text xml:space="preserve" text-anchor="middle" x="199" y="-149.75" font-family="Helvetica,sans-Serif" font-size="10.00">Beam Core Anti&#45;matter Drive</text>
<text xml:space="preserve" text-anchor="middle" x="199" y="-138.5" font-family="Helvetica,sans-Serif" font-size="10.00">1.2M RP</text>
</g>
<!-- Plasma_Core_Anti_matter_Drive&#45;&gt;Beam_Core_Anti_matter_Drive -->
<g id="edge11" class="edge">
<title>Plasma_Core_Anti_matter_Drive&#45;&gt;Beam_Core_Anti_matter_Drive</title>
<path fill="none" stroke="black" d="M199,-194.78C199,-188.53 199,-181.33 199,-174.52"/>
<polygon fill="black" stroke="black" points="201.45,-174.71 199,-167.71 196.55,-174.71 201.45,-174.71"/>
</g>
<!-- Photonic_Drive -->
<g id="node14" class="node">
<title>Photonic_Drive</title>
<path fill="#f8d7da" stroke="black" d="M227.25,-101C227.25,-101 170.75,-101 170.75,-101 164.75,-101 158.75,-95 158.75,-89 158.75,-89 158.75,-77 158.75,-77 158.75,-71 164.75,-65 170.75,-65 170.75,-65 227.25,-65 227.25,-65 233.25,-65 239.25,-71 239.25,-77 239.25,-77 239.25,-89 239.25,-89 239.25,-95 233.25,-101 227.25,-101"/>
<text xml:space="preserve" text-anchor="middle" x="199" y="-84.75" font-family="Helvetica,sans-Serif" font-size="10.00">Photonic Drive</text>
<text xml:space="preserve" text-anchor="middle" x="199" y="-73.5" font-family="Helvetica,sans-Serif" font-size="10.00">2.5M RP</text>
</g>
<!-- Beam_Core_Anti_matter_Drive&#45;&gt;Photonic_Drive -->
<g id="edge12" class="edge">
<title>Beam_Core_Anti_matter_Drive&#45;&gt;Photonic_Drive</title>
<path fill="none" stroke="black" d="M199,-129.78C199,-123.53 199,-116.33 199,-109.52"/>
<polygon fill="black" stroke="black" points="201.45,-109.71 199,-102.71 196.55,-109.71 201.45,-109.71"/>
</g>
<!-- Quantum_Singularity_Drive -->
<g id="node15" class="node">
<title>Quantum_Singularity_Drive</title>
<path fill="#f8d7da" stroke="black" d="M252.38,-36C252.38,-36 145.62,-36 145.62,-36 139.62,-36 133.62,-30 133.62,-24 133.62,-24 133.62,-12 133.62,-12 133.62,-6 139.62,0 145.62,0 145.62,0 252.38,0 252.38,0 258.38,0 264.38,-6 264.38,-12 264.38,-12 264.38,-24 264.38,-24 264.38,-30 258.38,-36 252.38,-36"/>
<text xml:space="preserve" text-anchor="middle" x="199" y="-19.75" font-family="Helvetica,sans-Serif" font-size="10.00">Quantum Singularity Drive</text>
<text xml:space="preserve" text-anchor="middle" x="199" y="-8.5" font-family="Helvetica,sans-Serif" font-size="10.00">5.0M RP</text>
</g>
<!-- Photonic_Drive&#45;&gt;Quantum_Singularity_Drive -->
<g id="edge13" class="edge">
<title>Photonic_Drive&#45;&gt;Quantum_Singularity_Drive</title>
<path fill="none" stroke="black" d="M199,-64.78C199,-58.53 199,-51.33 199,-44.52"/>
<polygon fill="black" stroke="black" points="201.45,-44.71 199,-37.71 196.55,-44.71 201.45,-44.71"/>
</g>
</g>
</svg>
