<?xml version="1.0" encoding="UTF-8" standalone="no"?>
<!DOCTYPE svg PUBLIC "-//W3C//DTD SVG 1.1//EN"
 "http://www.w3.org/Graphics/SVG/1.1/DTD/svg11.dtd">
<!-- Generated by graphviz version 14.1.2 (20260124.0452)
 -->
<!-- Title: TechTree Pages: 1 -->
<svg width="1038pt" height="67pt"
 viewBox="0.00 0.00 1038.00 67.00" xmlns="http://www.w3.org/2000/svg" xmlns:xlink="http://www.w3.org/1999/xlink">
<g id="graph0" class="graph" transform="scale(1 1) rotate(0) translate(4 63)">
<title>TechTree</title>
<polygon fill="white" stroke="none" points="-4,4 -4,-63 1034,-63 1034,4 -4,4"/>
<text xml:space="preserve" text-anchor="middle" x="515" y="-41.7" font-family="Helvetica,sans-Serif" font-weight="bold" font-size="14.00">Enhanced Radiation Warhead</text>
<!-- Enhanced_Radiation_Warhead__50 -->
<g id="node1" class="node">
<title>Enhanced_Radiation_Warhead__50</title>
<path fill="#cce5ff" stroke="black" d="M223.75,-36C223.75,-36 12,-36 12,-36 6,-36 0,-30 0,-24 0,-24 0,-12 0,-12 0,-6 6,0 12,0 12,0 223.75,0 223.75,0 229.75,0 235.75,-6 235.75,-12 235.75,-12 235.75,-24 235.75,-24 235.75,-30 229.75,-36 223.75,-36"/>
<text xml:space="preserve" text-anchor="middle" x="117.88" y="-19.75" font-family="Helvetica,sans-Serif" font-size="10.00">Enhanced Radiation Warhead (50% Yield, 2x Rad)</text>
<text xml:space="preserve" text-anchor="middle" x="117.88" y="-8.5" font-family="Helvetica,sans-Serif" font-size="10.00">1K RP</text>
</g>
<!-- Enhanced_Radiation_Warhead__33 -->
<g id="node2" class="node">
<title>Enhanced_Radiation_Warhead__33</title>
<path fill="#cce5ff" stroke="black" d="M488.5,-36C488.5,-36 276.75,-36 276.75,-36 270.75,-36 264.75,-30 264.75,-24 264.75,-24 264.75,-12 264.75,-12 264.75,-6 270.75,0 276.75,0 276.75,0 488.5,0 488.5,0 494.5,0 500.5,-6 500.5,-12 500.5,-12 500.5,-24 500.5,-24 500.5,-30 494.5,-36 488.5,-36"/>
<text xml:space="preserve" text-anchor="middle" x="382.62" y="-19.75" font-family="Helvetica,sans-Serif" font-size="10.00">Enhanced Radiation Warhead (33% Yield, 3x Rad)</text>
<text xml:space="preserve" text-anchor="middle" x="382.62" y="-8.5" font-family="Helvetica,sans-Serif" font-size="10.00">2K RP</text>
</g>
<!-- Enhanced_Radiation_Warhead__50&#45;&gt;Enhanced_Radiation_Warhead__33 -->
<g id="edge1" class="edge">
<title>Enhanced_Radiation_Warhead__50&#45;&gt;Enhanced_Radiation_Warhead__33</title>
<path fill="none" stroke="black" d="M236.03,-18C242.67,-18 249.36,-18 256.03,-18"/>
<polygon fill="black" stroke="black" points="255.95,-20.45 262.95,-18 255.95,-15.55 255.95,-20.45"/>
</g>
<!-- Enhanced_Radiation_Warhead__25 -->
<g id="node3" class="node">
<title>Enhanced_Radiation_Warhead__25</title>
<path fill="#cce5ff" stroke="black" d="M753.25,-36C753.25,-36 541.5,-36 541.5,-36 535.5,-36 529.5,-30 529.5,-24 529.5,-24 529.5,-12 529.5,-12 529.5,-6 535.5,0 541.5,0 541.5,0 753.25,0 753.25,0 759.25,0 765.25,-6 765.25,-12 765.25,-12 765.25,-24 765.25,-24 765.25,-30 759.25,-36 753.25,-36"/>
<text xml:space="preserve" text-anchor="middle" x="647.38" y="-19.75" font-family="Helvetica,sans-Serif" font-size="10.00">Enhanced Radiation Warhead (25% Yield, 4x Rad)</text>
<text xml:space="preserve" text-anchor="middle" x="647.38" y="-8.5" font-family="Helvetica,sans-Serif" font-size="10.00">5K RP</text>
</g>
<!-- Enhanced_Radiation_Warhead__33&#45;&gt;Enhanced_Radiation_Warhead__25 -->
<g id="edge2" class="edge">
<title>Enhanced_Radiation_Warhead__33&#45;&gt;Enhanced_Radiation_Warhead__25</title>
<path fill="none" stroke="black" d="M500.78,-18C507.42,-18 514.11,-18 520.78,-18"/>
<polygon fill="black" stroke="black" points="520.7,-20.45 527.7,-18 520.7,-15.55 520.7,-20.45"/>
</g>
<!-- Enhanced_Radiation_Warhead__20 -->
<g id="node4" class="node">
<title>Enhanced_Radiation_Warhead__20</title>
<path fill="#cce5ff" stroke="black" d="M1018,-36C1018,-36 806.25,-36 806.25,-36 800.25,-36 794.25,-30 794.25,-24 794.25,-24 794.25,-12 794.25,-12 794.25,-6 800.25,0 806.25,0 806.25,0 1018,0 1018,0 1024,0 1030,-6 1030,-12 1030,-12 1030,-24 1030,-24 1030,-30 1024,-36 1018,-36"/>
<text xml:space="preserve" text-anchor="middle" x="912.12" y="-19.75" font-family="Helvetica,sans-Serif" font-size="10.00">Enhanced Radiation Warhead (20% Yield, 5x Rad)</text>
<text xml:space="preserve" text-anchor="middle" x="912.12" y="-8.5" font-family="Helvetica,sans-Serif" font-size="10.00">10K RP</text>
</g>
<!-- Enhanced_Radiation_Warhead__25&#45;&gt;Enhanced_Radiation_Warhead__20 -->
<g id="edge3" class="edge">
<title>Enhanced_Radiation_Warhead__25&#45;&gt;Enhanced_Radiation_Warhead__20</title>
<path fill="none" stroke="black" d="M765.53,-18C772.17,-18 778.86,-18 785.53,-18"/>
<polygon fill="black" stroke="black" points="785.45,-20.45 792.45,-18 785.45,-15.55 785.45,-20.45"/>
</g>
</g>
</svg>
