<?xml version="1.0" encoding="UTF-8" standalone="no"?>
<!DOCTYPE svg PUBLIC "-//W3C//DTD SVG 1.1//EN"
 "http://www.w3.org/Graphics/SVG/1.1/DTD/svg11.dtd">
<!-- Generated by graphviz version 14.1.2 (20260124.0452)
 -->
<!-- Title: TechTree Pages: 1 -->
<svg width="230pt" height="353pt"
 viewBox="0.00 0.00 230.00 353.00" xmlns="http://www.w3.org/2000/svg" xmlns:xlink="http://www.w3.org/1999/xlink">
<g id="graph0" class="graph" transform="scale(1 1) rotate(0) translate(4 348.75)">
<title>TechTree</title>
<polygon fill="white" stroke="none" points="-4,4 -4,-348.75 226.25,-348.75 226.25,4 -4,4"/>
<text xml:space="preserve" text-anchor="middle" x="111.12" y="-329.35" font-family="Helvetica,sans-Serif" font-weight="bold" font-size="12.00">Enhanced Radiation Warhead</text>
<!-- Enhanced_Radiation_Warhead__50 -->
<g id="node1" class="node">
<title>Enhanced_Radiation_Warhead__50</title>
<path fill="#cce5ff" stroke="black" d="M210.25,-252C210.25,-252 12,-252 12,-252 6,-252 0,-246 0,-240 0,-240 0,-228 0,-228 0,-222 6,-216 12,-216 12,-216 210.25,-216 210.25,-216 216.25,-216 222.25,-222 222.25,-228 222.25,-228 222.25,-240 222.25,-240 222.25,-246 216.25,-252 210.25,-252"/>
<text xml:space="preserve" text-anchor="middle" x="111.12" y="-235.2" font-family="Helvetica,sans-Serif" font-size="9.00">Enhanced Radiation Warhead (50% Yield, 2x Rad)</text>
<text xml:space="preserve" text-anchor="middle" x="111.12" y="-225.45" font-family="Helvetica,sans-Serif" font-size="9.00">1K RP</text>
</g>
<!-- Enhanced_Radiation_Warhead__33 -->
<g id="node2" class="node">
<title>Enhanced_Radiation_Warhead__33</title>
<path fill="#cce5ff" stroke="black" d="M210.25,-180C210.25,-180 12,-180 12,-180 6,-180 0,-174 0,-168 0,-168 0,-156 0,-156 0,-150 6,-144 12,-144 12,-144 210.25,-144 210.25,-144 216.25,-144 222.25,-150 222.25,-156 222.25,-156 222.25,-168 222.25,-168 222.25,-174 216.25,-180 210.25,-180"/>
<text xml:space="preserve" text-anchor="middle" x="111.12" y="-163.2" font-family="Helvetica,sans-Serif" font-size="9.00">Enhanced Radiation Warhead (33% Yield, 3x Rad)</text>
<text xml:space="preserve" text-anchor="middle" x="111.12" y="-153.45" font-family="Helvetica,sans-Serif" font-size="9.00">2K RP</text>
</g>
<!-- Enhanced_Radiation_Warhead__50&#45;&gt;Enhanced_Radiation_Warhead__33 -->
<g id="edge2" class="edge">
<title>Enhanced_Radiation_Warhead__50&#45;&gt;Enhanced_Radiation_Warhead__33</title>
<path fill="none" stroke="black" d="M111.12,-215.7C111.12,-207.22 111.12,-196.86 111.12,-187.58"/>
<polygon fill="black" stroke="black" points="113.23,-187.62 111.13,-181.62 109.03,-187.62 113.23,-187.62"/>
</g>
<!-- Enhanced_Radiation_Warhead__25 -->
<g id="node3" class="node">
<title>Enhanced_Radiation_Warhead__25</title>
<path fill="#cce5ff" stroke="black" d="M210.25,-108C210.25,-108 12,-108 12,-108 6,-108 0,-102 0,-96 0,-96 0,-84 0,-84 0,-78 6,-72 12,-72 12,-72 210.25,-72 210.25,-72 216.25,-72 222.25,-78 222.25,-84 222.25,-84 222.25,-96 222.25,-96 222.25,-102 216.25,-108 210.25,-108"/>
<text xml:space="preserve" text-anchor="middle" x="111.12" y="-91.2" font-family="Helvetica,sans-Serif" font-size="9.00">Enhanced Radiation Warhead (25% Yield, 4x Rad)</text>
<text xml:space="preserve" text-anchor="middle" x="111.12" y="-81.45" font-family="Helvetica,sans-Serif" font-size="9.00">5K RP</text>
</g>
<!-- Enhanced_Radiation_Warhead__33&#45;&gt;Enhanced_Radiation_Warhead__25 -->
<g id="edge3" class="edge">
<title>Enhanced_Radiation_Warhead__33&#45;&gt;Enhanced_Radiation_Warhead__25</title>
<path fill="none" stroke="black" d="M111.12,-143.7C111.12,-135.22 111.12,-124.86 111.12,-115.58"/>
<polygon fill="black" stroke="black" points="113.23,-115.62 111.13,-109.62 109.03,-115.62 113.23,-115.62"/>
</g>
<!-- Enhanced_Radiation_Warhead__20 -->
<g id="node4" class="node">
<title>Enhanced_Radiation_Warhead__20</title>
<path fill="#cce5ff" stroke="black" d="M210.25,-36C210.25,-36 12,-36 12,-36 6,-36 0,-30 0,-24 0,-24 0,-12 0,-12 0,-6 6,0 12,0 12,0 210.25,0 210.25,0 216.25,0 222.25,-6 222.25,-12 222.25,-12 222.25,-24 222.25,-24 222.25,-30 216.25,-36 210.25,-36"/>
<text xml:space="preserve" text-anchor="middle" x="111.12" y="-19.2" font-family="Helvetica,sans-Serif" font-size="9.00">Enhanced Radiation Warhead (20% Yield, 5x Rad)</text>
<text xml:space="preserve" text-anchor="middle" x="111.12" y="-9.45" font-family="Helvetica,sans-Serif" font-size="9.00">10K RP</text>
</g>
<!-- Enhanced_Radiation_Warhead__25&#45;&gt;Enhanced_Radiation_Warhead__20 -->
<g id="edge4" class="edge">
<title>Enhanced_Radiation_Warhead__25&#45;&gt;Enhanced_Radiation_Warhead__20</title>
<path fill="none" stroke="black" d="M111.12,-71.7C111.12,-63.22 111.12,-52.86 111.12,-43.58"/>
<polygon fill="black" stroke="black" points="113.23,-43.62 111.13,-37.62 109.03,-43.62 113.23,-43.62"/>
</g>
<!-- ext_Trans_Newtonian_Technology -->
<g id="node5" class="node">
<title>ext_Trans_Newtonian_Technology</title>
<path fill="#f0f0f0" stroke="black" stroke-dasharray="5,2" d="M167.12,-324C167.12,-324 55.12,-324 55.12,-324 49.12,-324 43.12,-318 43.12,-312 43.12,-312 43.12,-300 43.12,-300 43.12,-294 49.12,-288 55.12,-288 55.12,-288 167.12,-288 167.12,-288 173.12,-288 179.12,-294 179.12,-300 179.12,-300 179.12,-312 179.12,-312 179.12,-318 173.12,-324 167.12,-324"/>
<text xml:space="preserve" text-anchor="middle" x="111.12" y="-302.32" font-family="Helvetica,sans-Serif" font-size="9.00">Trans&#45;Newtonian Technology</text>
</g>
<!-- ext_Trans_Newtonian_Technology&#45;&gt;Enhanced_Radiation_Warhead__50 -->
<g id="edge1" class="edge">
<title>ext_Trans_Newtonian_Technology&#45;&gt;Enhanced_Radiation_Warhead__50</title>
<path fill="none" stroke="black" d="M111.12,-287.7C111.12,-279.22 111.12,-268.86 111.12,-259.58"/>
<polygon fill="black" stroke="black" points="113.23,-259.62 111.13,-253.62 109.03,-259.62 113.23,-259.62"/>
</g>
</g>
</svg>
