<?xml version="1.0" encoding="UTF-8" standalone="no"?>
<!DOCTYPE svg PUBLIC "-//W3C//DTD SVG 1.1//EN"
 "http://www.w3.org/Graphics/SVG/1.1/DTD/svg11.dtd">
<!-- Generated by graphviz version 14.1.2 (20260124.0452)
 -->
<!-- Title: TechTree Pages: 1 -->
<svg width="128pt" height="67pt"
 viewBox="0.00 0.00 128.00 67.00" xmlns="http://www.w3.org/2000/svg" xmlns:xlink="http://www.w3.org/1999/xlink">
<g id="graph0" class="graph" transform="scale(1 1) rotate(0) translate(4 63)">
<title>TechTree</title>
<polygon fill="white" stroke="none" points="-4,4 -4,-63 123.5,-63 123.5,4 -4,4"/>
<text xml:space="preserve" text-anchor="middle" x="59.75" y="-41.7" font-family="Helvetica,sans-Serif" font-weight="bold" font-size="14.00">Fighter Pod Bay</text>
<!-- Fighter_Pod_Bay -->
<g id="node1" class="node">
<title>Fighter_Pod_Bay</title>
<path fill="#cce5ff" stroke="black" d="M91,-36C91,-36 28.5,-36 28.5,-36 22.5,-36 16.5,-30 16.5,-24 16.5,-24 16.5,-12 16.5,-12 16.5,-6 22.5,0 28.5,0 28.5,0 91,0 91,0 97,0 103,-6 103,-12 103,-12 103,-24 103,-24 103,-30 97,-36 91,-36"/>
<text xml:space="preserve" text-anchor="middle" x="59.75" y="-19.75" font-family="Helvetica,sans-Serif" font-size="10.00">Fighter Pod Bay</text>
<text xml:space="preserve" text-anchor="middle" x="59.75" y="-8.5" font-family="Helvetica,sans-Serif" font-size="10.00">2K RP</text>
</g>
</g>
</svg>
