<?xml version="1.0" encoding="UTF-8" standalone="no"?>
<!DOCTYPE svg PUBLIC "-//W3C//DTD SVG 1.1//EN"
 "http://www.w3.org/Graphics/SVG/1.1/DTD/svg11.dtd">
<!-- Generated by graphviz version 14.1.2 (20260124.0452)
 -->
<!-- Title: TechTree Pages: 1 -->
<svg width="383pt" height="137pt"
 viewBox="0.00 0.00 383.00 137.00" xmlns="http://www.w3.org/2000/svg" xmlns:xlink="http://www.w3.org/1999/xlink">
<g id="graph0" class="graph" transform="scale(1 1) rotate(0) translate(4 132.75)">
<title>TechTree</title>
<polygon fill="white" stroke="none" points="-4,4 -4,-132.75 379.38,-132.75 379.38,4 -4,4"/>
<text xml:space="preserve" text-anchor="middle" x="187.69" y="-113.35" font-family="Helvetica,sans-Serif" font-weight="bold" font-size="12.00">Fighter Pod Capability</text>
<!-- Fighter_Bombardment_Pod -->
<g id="node1" class="node">
<title>Fighter_Bombardment_Pod</title>
<path fill="#cce5ff" stroke="black" d="M111.25,-36C111.25,-36 12,-36 12,-36 6,-36 0,-30 0,-24 0,-24 0,-12 0,-12 0,-6 6,0 12,0 12,0 111.25,0 111.25,0 117.25,0 123.25,-6 123.25,-12 123.25,-12 123.25,-24 123.25,-24 123.25,-30 117.25,-36 111.25,-36"/>
<text xml:space="preserve" text-anchor="middle" x="61.62" y="-19.2" font-family="Helvetica,sans-Serif" font-size="9.00">Fighter Bombardment Pod</text>
<text xml:space="preserve" text-anchor="middle" x="61.62" y="-9.45" font-family="Helvetica,sans-Serif" font-size="9.00">2K RP</text>
</g>
<!-- Fighter_Autocannon_Pod -->
<g id="node2" class="node">
<title>Fighter_Autocannon_Pod</title>
<path fill="#cce5ff" stroke="black" d="M244.12,-36C244.12,-36 153.12,-36 153.12,-36 147.12,-36 141.12,-30 141.12,-24 141.12,-24 141.12,-12 141.12,-12 141.12,-6 147.12,0 153.12,0 153.12,0 244.12,0 244.12,0 250.12,0 256.12,-6 256.12,-12 256.12,-12 256.12,-24 256.12,-24 256.12,-30 250.12,-36 244.12,-36"/>
<text xml:space="preserve" text-anchor="middle" x="198.62" y="-19.2" font-family="Helvetica,sans-Serif" font-size="9.00">Fighter Autocannon Pod</text>
<text xml:space="preserve" text-anchor="middle" x="198.62" y="-9.45" font-family="Helvetica,sans-Serif" font-size="9.00">2K RP</text>
</g>
<!-- Fighter_Air_to_Air_Pod -->
<g id="node3" class="node">
<title>Fighter_Air_to_Air_Pod</title>
<path fill="#cce5ff" stroke="black" d="M363.38,-36C363.38,-36 285.88,-36 285.88,-36 279.88,-36 273.88,-30 273.88,-24 273.88,-24 273.88,-12 273.88,-12 273.88,-6 279.88,0 285.88,0 285.88,0 363.38,0 363.38,0 369.38,0 375.38,-6 375.38,-12 375.38,-12 375.38,-24 375.38,-24 375.38,-30 369.38,-36 363.38,-36"/>
<text xml:space="preserve" text-anchor="middle" x="324.62" y="-19.2" font-family="Helvetica,sans-Serif" font-size="9.00">Fighter Air&#45;to&#45;Air Pod</text>
<text xml:space="preserve" text-anchor="middle" x="324.62" y="-9.45" font-family="Helvetica,sans-Serif" font-size="9.00">2K RP</text>
</g>
<!-- ext_Fighter_Pod_Bay -->
<g id="node4" class="node">
<title>ext_Fighter_Pod_Bay</title>
<path fill="#f0f0f0" stroke="black" stroke-dasharray="5,2" d="M227.25,-108C227.25,-108 170,-108 170,-108 164,-108 158,-102 158,-96 158,-96 158,-84 158,-84 158,-78 164,-72 170,-72 170,-72 227.25,-72 227.25,-72 233.25,-72 239.25,-78 239.25,-84 239.25,-84 239.25,-96 239.25,-96 239.25,-102 233.25,-108 227.25,-108"/>
<text xml:space="preserve" text-anchor="middle" x="198.62" y="-86.33" font-family="Helvetica,sans-Serif" font-size="9.00">Fighter Pod Bay</text>
</g>
<!-- ext_Fighter_Pod_Bay&#45;&gt;Fighter_Bombardment_Pod -->
<g id="edge1" class="edge">
<title>ext_Fighter_Pod_Bay&#45;&gt;Fighter_Bombardment_Pod</title>
<path fill="none" stroke="black" d="M164.41,-71.52C145.47,-61.84 121.81,-49.75 101.98,-39.62"/>
<polygon fill="black" stroke="black" points="103.05,-37.81 96.75,-36.95 101.14,-41.55 103.05,-37.81"/>
</g>
<!-- ext_Fighter_Pod_Bay&#45;&gt;Fighter_Autocannon_Pod -->
<g id="edge2" class="edge">
<title>ext_Fighter_Pod_Bay&#45;&gt;Fighter_Autocannon_Pod</title>
<path fill="none" stroke="black" d="M198.62,-71.7C198.62,-63.22 198.62,-52.86 198.62,-43.58"/>
<polygon fill="black" stroke="black" points="200.73,-43.62 198.63,-37.62 196.53,-43.62 200.73,-43.62"/>
</g>
<!-- ext_Fighter_Pod_Bay&#45;&gt;Fighter_Air_to_Air_Pod -->
<g id="edge3" class="edge">
<title>ext_Fighter_Pod_Bay&#45;&gt;Fighter_Air_to_Air_Pod</title>
<path fill="none" stroke="black" d="M230.1,-71.52C247.36,-61.92 268.89,-49.96 287.04,-39.88"/>
<polygon fill="black" stroke="black" points="288.01,-41.75 292.23,-37 285.97,-38.07 288.01,-41.75"/>
</g>
</g>
</svg>
