<?xml version="1.0" encoding="UTF-8" standalone="no"?>
<!DOCTYPE svg PUBLIC "-//W3C//DTD SVG 1.1//EN"
 "http://www.w3.org/Graphics/SVG/1.1/DTD/svg11.dtd">
<!-- Generated by graphviz version 14.1.2 (20260124.0452)
 -->
<!-- Title: TechTree Pages: 1 -->
<svg width="116pt" height="65pt"
 viewBox="0.00 0.00 116.00 65.00" xmlns="http://www.w3.org/2000/svg" xmlns:xlink="http://www.w3.org/1999/xlink">
<g id="graph0" class="graph" transform="scale(1 1) rotate(0) translate(4 60.75)">
<title>TechTree</title>
<polygon fill="white" stroke="none" points="-4,4 -4,-60.75 112.25,-60.75 112.25,4 -4,4"/>
<text xml:space="preserve" text-anchor="middle" x="54.12" y="-41.35" font-family="Helvetica,sans-Serif" font-weight="bold" font-size="12.00">Fighter Pod Bay</text>
<!-- Fighter_Pod_Bay -->
<g id="node1" class="node">
<title>Fighter_Pod_Bay</title>
<path fill="#cce5ff" stroke="black" d="M82.75,-36C82.75,-36 25.5,-36 25.5,-36 19.5,-36 13.5,-30 13.5,-24 13.5,-24 13.5,-12 13.5,-12 13.5,-6 19.5,0 25.5,0 25.5,0 82.75,0 82.75,0 88.75,0 94.75,-6 94.75,-12 94.75,-12 94.75,-24 94.75,-24 94.75,-30 88.75,-36 82.75,-36"/>
<text xml:space="preserve" text-anchor="middle" x="54.12" y="-19.2" font-family="Helvetica,sans-Serif" font-size="9.00">Fighter Pod Bay</text>
<text xml:space="preserve" text-anchor="middle" x="54.12" y="-9.45" font-family="Helvetica,sans-Serif" font-size="9.00">2K RP</text>
</g>
</g>
</svg>
