<?xml version="1.0" encoding="UTF-8" standalone="no"?>
<!DOCTYPE svg PUBLIC "-//W3C//DTD SVG 1.1//EN"
 "http://www.w3.org/Graphics/SVG/1.1/DTD/svg11.dtd">
<!-- Generated by graphviz version 14.1.2 (20260124.0452)
 -->
<!-- Title: TechTree Pages: 1 -->
<svg width="167pt" height="183pt"
 viewBox="0.00 0.00 167.00 183.00" xmlns="http://www.w3.org/2000/svg" xmlns:xlink="http://www.w3.org/1999/xlink">
<g id="graph0" class="graph" transform="scale(1 1) rotate(0) translate(4 179)">
<title>TechTree</title>
<polygon fill="white" stroke="none" points="-4,4 -4,-179 163.25,-179 163.25,4 -4,4"/>
<text xml:space="preserve" text-anchor="middle" x="79.62" y="-157.7" font-family="Helvetica,sans-Serif" font-weight="bold" font-size="14.00">Fighter Pod Capability</text>
<!-- Fighter_Bombardment_Pod -->
<g id="node1" class="node">
<title>Fighter_Bombardment_Pod</title>
<path fill="#cce5ff" stroke="black" d="M132.62,-36C132.62,-36 26.62,-36 26.62,-36 20.63,-36 14.62,-30 14.62,-24 14.62,-24 14.62,-12 14.62,-12 14.62,-6 20.62,0 26.62,0 26.62,0 132.62,0 132.62,0 138.62,0 144.62,-6 144.62,-12 144.62,-12 144.62,-24 144.62,-24 144.62,-30 138.62,-36 132.62,-36"/>
<text xml:space="preserve" text-anchor="middle" x="79.62" y="-19.75" font-family="Helvetica,sans-Serif" font-size="10.00">Fighter Bombardment Pod</text>
<text xml:space="preserve" text-anchor="middle" x="79.62" y="-8.5" font-family="Helvetica,sans-Serif" font-size="10.00">2K RP</text>
</g>
<!-- Fighter_Autocannon_Pod -->
<g id="node2" class="node">
<title>Fighter_Autocannon_Pod</title>
<path fill="#cce5ff" stroke="black" d="M127.75,-94C127.75,-94 31.5,-94 31.5,-94 25.5,-94 19.5,-88 19.5,-82 19.5,-82 19.5,-70 19.5,-70 19.5,-64 25.5,-58 31.5,-58 31.5,-58 127.75,-58 127.75,-58 133.75,-58 139.75,-64 139.75,-70 139.75,-70 139.75,-82 139.75,-82 139.75,-88 133.75,-94 127.75,-94"/>
<text xml:space="preserve" text-anchor="middle" x="79.62" y="-77.75" font-family="Helvetica,sans-Serif" font-size="10.00">Fighter Autocannon Pod</text>
<text xml:space="preserve" text-anchor="middle" x="79.62" y="-66.5" font-family="Helvetica,sans-Serif" font-size="10.00">2K RP</text>
</g>
<!-- Fighter_Air_to_Air_Pod -->
<g id="node3" class="node">
<title>Fighter_Air_to_Air_Pod</title>
<path fill="#cce5ff" stroke="black" d="M121,-152C121,-152 38.25,-152 38.25,-152 32.25,-152 26.25,-146 26.25,-140 26.25,-140 26.25,-128 26.25,-128 26.25,-122 32.25,-116 38.25,-116 38.25,-116 121,-116 121,-116 127,-116 133,-122 133,-128 133,-128 133,-140 133,-140 133,-146 127,-152 121,-152"/>
<text xml:space="preserve" text-anchor="middle" x="79.62" y="-135.75" font-family="Helvetica,sans-Serif" font-size="10.00">Fighter Air&#45;to&#45;Air Pod</text>
<text xml:space="preserve" text-anchor="middle" x="79.62" y="-124.5" font-family="Helvetica,sans-Serif" font-size="10.00">2K RP</text>
</g>
</g>
</svg>
