<?xml version="1.0" encoding="UTF-8" standalone="no"?>
<!DOCTYPE svg PUBLIC "-//W3C//DTD SVG 1.1//EN"
 "http://www.w3.org/Graphics/SVG/1.1/DTD/svg11.dtd">
<!-- Generated by graphviz version 14.1.2 (20260124.0452)
 -->
<!-- Title: TechTree Pages: 1 -->
<svg width="3400pt" height="65pt"
 viewBox="0.00 0.00 3400.00 65.00" xmlns="http://www.w3.org/2000/svg" xmlns:xlink="http://www.w3.org/1999/xlink">
<g id="graph0" class="graph" transform="scale(1 1) rotate(0) translate(4 60.75)">
<title>TechTree</title>
<polygon fill="white" stroke="none" points="-4,4 -4,-60.75 3395.88,-60.75 3395.88,4 -4,4"/>
<text xml:space="preserve" text-anchor="middle" x="1695.94" y="-41.35" font-family="Helvetica,sans-Serif" font-weight="bold" font-size="12.00">Fire Control Size vs Range</text>
<!-- Normal_Size_Normal_Range -->
<g id="node1" class="node">
<title>Normal_Size_Normal_Range</title>
<path fill="#d4edda" stroke="black" d="M116.5,-36C116.5,-36 12,-36 12,-36 6,-36 0,-30 0,-24 0,-24 0,-12 0,-12 0,-6 6,0 12,0 12,0 116.5,0 116.5,0 122.5,0 128.5,-6 128.5,-12 128.5,-12 128.5,-24 128.5,-24 128.5,-30 122.5,-36 116.5,-36"/>
<text xml:space="preserve" text-anchor="middle" x="64.25" y="-19.2" font-family="Helvetica,sans-Serif" font-size="9.00">Normal Size Normal Range</text>
<text xml:space="preserve" text-anchor="middle" x="64.25" y="-9.45" font-family="Helvetica,sans-Serif" font-size="9.00">1 RP</text>
</g>
<!-- Fire_Control_1_25x_Size_1_25x_ -->
<g id="node2" class="node">
<title>Fire_Control_1_25x_Size_1_25x_</title>
<path fill="#d4edda" stroke="black" d="M298.12,-36C298.12,-36 158.38,-36 158.38,-36 152.38,-36 146.38,-30 146.38,-24 146.38,-24 146.38,-12 146.38,-12 146.38,-6 152.38,0 158.38,0 158.38,0 298.12,0 298.12,0 304.12,0 310.12,-6 310.12,-12 310.12,-12 310.12,-24 310.12,-24 310.12,-30 304.12,-36 298.12,-36"/>
<text xml:space="preserve" text-anchor="middle" x="228.25" y="-19.2" font-family="Helvetica,sans-Serif" font-size="9.00">Fire Control 1.25x Size 1.25x Range</text>
<text xml:space="preserve" text-anchor="middle" x="228.25" y="-9.45" font-family="Helvetica,sans-Serif" font-size="9.00">2 RP</text>
</g>
<!-- Fire_Control_1_5x_Size_1_5x_Ra -->
<g id="node3" class="node">
<title>Fire_Control_1_5x_Size_1_5x_Ra</title>
<path fill="#d4edda" stroke="black" d="M469.88,-36C469.88,-36 340.62,-36 340.62,-36 334.62,-36 328.62,-30 328.62,-24 328.62,-24 328.62,-12 328.62,-12 328.62,-6 334.62,0 340.62,0 340.62,0 469.88,0 469.88,0 475.88,0 481.88,-6 481.88,-12 481.88,-12 481.88,-24 481.88,-24 481.88,-30 475.88,-36 469.88,-36"/>
<text xml:space="preserve" text-anchor="middle" x="405.25" y="-19.2" font-family="Helvetica,sans-Serif" font-size="9.00">Fire Control 1.5x Size 1.5x Range</text>
<text xml:space="preserve" text-anchor="middle" x="405.25" y="-9.45" font-family="Helvetica,sans-Serif" font-size="9.00">3 RP</text>
</g>
<!-- Fire_Control_1_75x_Size_1_75x_ -->
<g id="node4" class="node">
<title>Fire_Control_1_75x_Size_1_75x_</title>
<path fill="#d4edda" stroke="black" d="M652.12,-36C652.12,-36 512.38,-36 512.38,-36 506.38,-36 500.38,-30 500.38,-24 500.38,-24 500.38,-12 500.38,-12 500.38,-6 506.38,0 512.38,0 512.38,0 652.12,0 652.12,0 658.12,0 664.12,-6 664.12,-12 664.12,-12 664.12,-24 664.12,-24 664.12,-30 658.12,-36 652.12,-36"/>
<text xml:space="preserve" text-anchor="middle" x="582.25" y="-19.2" font-family="Helvetica,sans-Serif" font-size="9.00">Fire Control 1.75x Size 1.75x Range</text>
<text xml:space="preserve" text-anchor="middle" x="582.25" y="-9.45" font-family="Helvetica,sans-Serif" font-size="9.00">4 RP</text>
</g>
<!-- Fire_Control_2x_Size_2x_Range -->
<g id="node5" class="node">
<title>Fire_Control_2x_Size_2x_Range</title>
<path fill="#d4edda" stroke="black" d="M808.38,-36C808.38,-36 694.12,-36 694.12,-36 688.12,-36 682.12,-30 682.12,-24 682.12,-24 682.12,-12 682.12,-12 682.12,-6 688.12,0 694.12,0 694.12,0 808.38,0 808.38,0 814.38,0 820.38,-6 820.38,-12 820.38,-12 820.38,-24 820.38,-24 820.38,-30 814.38,-36 808.38,-36"/>
<text xml:space="preserve" text-anchor="middle" x="751.25" y="-19.2" font-family="Helvetica,sans-Serif" font-size="9.00">Fire Control 2x Size 2x Range</text>
<text xml:space="preserve" text-anchor="middle" x="751.25" y="-9.45" font-family="Helvetica,sans-Serif" font-size="9.00">5 RP</text>
</g>
<!-- Fire_Control_2_25x_Size_2_25x_ -->
<g id="node6" class="node">
<title>Fire_Control_2_25x_Size_2_25x_</title>
<path fill="#d4edda" stroke="black" d="M990.12,-36C990.12,-36 850.38,-36 850.38,-36 844.38,-36 838.38,-30 838.38,-24 838.38,-24 838.38,-12 838.38,-12 838.38,-6 844.38,0 850.38,0 850.38,0 990.12,0 990.12,0 996.12,0 1002.12,-6 1002.12,-12 1002.12,-12 1002.12,-24 1002.12,-24 1002.12,-30 996.12,-36 990.12,-36"/>
<text xml:space="preserve" text-anchor="middle" x="920.25" y="-19.2" font-family="Helvetica,sans-Serif" font-size="9.00">Fire Control 2.25x Size 2.25x Range</text>
<text xml:space="preserve" text-anchor="middle" x="920.25" y="-9.45" font-family="Helvetica,sans-Serif" font-size="9.00">6 RP</text>
</g>
<!-- Fire_Control_2_5x_Size_2_5x_Ra -->
<g id="node7" class="node">
<title>Fire_Control_2_5x_Size_2_5x_Ra</title>
<path fill="#d4edda" stroke="black" d="M1161.88,-36C1161.88,-36 1032.62,-36 1032.62,-36 1026.62,-36 1020.62,-30 1020.62,-24 1020.62,-24 1020.62,-12 1020.62,-12 1020.62,-6 1026.62,0 1032.62,0 1032.62,0 1161.88,0 1161.88,0 1167.88,0 1173.88,-6 1173.88,-12 1173.88,-12 1173.88,-24 1173.88,-24 1173.88,-30 1167.88,-36 1161.88,-36"/>
<text xml:space="preserve" text-anchor="middle" x="1097.25" y="-19.2" font-family="Helvetica,sans-Serif" font-size="9.00">Fire Control 2.5x Size 2.5x Range</text>
<text xml:space="preserve" text-anchor="middle" x="1097.25" y="-9.45" font-family="Helvetica,sans-Serif" font-size="9.00">7 RP</text>
</g>
<!-- Fire_Control_2_75x_Size_2_75x_ -->
<g id="node8" class="node">
<title>Fire_Control_2_75x_Size_2_75x_</title>
<path fill="#d4edda" stroke="black" d="M1344.12,-36C1344.12,-36 1204.38,-36 1204.38,-36 1198.38,-36 1192.38,-30 1192.38,-24 1192.38,-24 1192.38,-12 1192.38,-12 1192.38,-6 1198.38,0 1204.38,0 1204.38,0 1344.12,0 1344.12,0 1350.12,0 1356.12,-6 1356.12,-12 1356.12,-12 1356.12,-24 1356.12,-24 1356.12,-30 1350.12,-36 1344.12,-36"/>
<text xml:space="preserve" text-anchor="middle" x="1274.25" y="-19.2" font-family="Helvetica,sans-Serif" font-size="9.00">Fire Control 2.75x Size 2.75x Range</text>
<text xml:space="preserve" text-anchor="middle" x="1274.25" y="-9.45" font-family="Helvetica,sans-Serif" font-size="9.00">8 RP</text>
</g>
<!-- Fire_Control_3x_Size_3x_Range -->
<g id="node9" class="node">
<title>Fire_Control_3x_Size_3x_Range</title>
<path fill="#d4edda" stroke="black" d="M1500.38,-36C1500.38,-36 1386.12,-36 1386.12,-36 1380.12,-36 1374.12,-30 1374.12,-24 1374.12,-24 1374.12,-12 1374.12,-12 1374.12,-6 1380.12,0 1386.12,0 1386.12,0 1500.38,0 1500.38,0 1506.38,0 1512.38,-6 1512.38,-12 1512.38,-12 1512.38,-24 1512.38,-24 1512.38,-30 1506.38,-36 1500.38,-36"/>
<text xml:space="preserve" text-anchor="middle" x="1443.25" y="-19.2" font-family="Helvetica,sans-Serif" font-size="9.00">Fire Control 3x Size 3x Range</text>
<text xml:space="preserve" text-anchor="middle" x="1443.25" y="-9.45" font-family="Helvetica,sans-Serif" font-size="9.00">9 RP</text>
</g>
<!-- Fire_Control_3_5x_Size_3_5x_Ra -->
<g id="node10" class="node">
<title>Fire_Control_3_5x_Size_3_5x_Ra</title>
<path fill="#d4edda" stroke="black" d="M1671.88,-36C1671.88,-36 1542.62,-36 1542.62,-36 1536.62,-36 1530.62,-30 1530.62,-24 1530.62,-24 1530.62,-12 1530.62,-12 1530.62,-6 1536.62,0 1542.62,0 1542.62,0 1671.88,0 1671.88,0 1677.88,0 1683.88,-6 1683.88,-12 1683.88,-12 1683.88,-24 1683.88,-24 1683.88,-30 1677.88,-36 1671.88,-36"/>
<text xml:space="preserve" text-anchor="middle" x="1607.25" y="-19.2" font-family="Helvetica,sans-Serif" font-size="9.00">Fire Control 3.5x Size 3.5x Range</text>
<text xml:space="preserve" text-anchor="middle" x="1607.25" y="-9.45" font-family="Helvetica,sans-Serif" font-size="9.00">10 RP</text>
</g>
<!-- Fire_Control_4x_Size_4x_Range -->
<g id="node11" class="node">
<title>Fire_Control_4x_Size_4x_Range</title>
<path fill="#d4edda" stroke="black" d="M1828.38,-36C1828.38,-36 1714.12,-36 1714.12,-36 1708.12,-36 1702.12,-30 1702.12,-24 1702.12,-24 1702.12,-12 1702.12,-12 1702.12,-6 1708.12,0 1714.12,0 1714.12,0 1828.38,0 1828.38,0 1834.38,0 1840.38,-6 1840.38,-12 1840.38,-12 1840.38,-24 1840.38,-24 1840.38,-30 1834.38,-36 1828.38,-36"/>
<text xml:space="preserve" text-anchor="middle" x="1771.25" y="-19.2" font-family="Helvetica,sans-Serif" font-size="9.00">Fire Control 4x Size 4x Range</text>
<text xml:space="preserve" text-anchor="middle" x="1771.25" y="-9.45" font-family="Helvetica,sans-Serif" font-size="9.00">11 RP</text>
</g>
<!-- Fire_Control_0_2x_Size_0_2x_Ra -->
<g id="node12" class="node">
<title>Fire_Control_0_2x_Size_0_2x_Ra</title>
<path fill="#d4edda" stroke="black" d="M1999.88,-36C1999.88,-36 1870.62,-36 1870.62,-36 1864.62,-36 1858.62,-30 1858.62,-24 1858.62,-24 1858.62,-12 1858.62,-12 1858.62,-6 1864.62,0 1870.62,0 1870.62,0 1999.88,0 1999.88,0 2005.88,0 2011.88,-6 2011.88,-12 2011.88,-12 2011.88,-24 2011.88,-24 2011.88,-30 2005.88,-36 1999.88,-36"/>
<text xml:space="preserve" text-anchor="middle" x="1935.25" y="-19.2" font-family="Helvetica,sans-Serif" font-size="9.00">Fire Control 0.2x Size 0.2x Range</text>
<text xml:space="preserve" text-anchor="middle" x="1935.25" y="-9.45" font-family="Helvetica,sans-Serif" font-size="9.00">12 RP</text>
</g>
<!-- Fire_Control_0_25x_Size_0_25x_ -->
<g id="node13" class="node">
<title>Fire_Control_0_25x_Size_0_25x_</title>
<path fill="#d4edda" stroke="black" d="M2182.12,-36C2182.12,-36 2042.38,-36 2042.38,-36 2036.38,-36 2030.38,-30 2030.38,-24 2030.38,-24 2030.38,-12 2030.38,-12 2030.38,-6 2036.38,0 2042.38,0 2042.38,0 2182.12,0 2182.12,0 2188.12,0 2194.12,-6 2194.12,-12 2194.12,-12 2194.12,-24 2194.12,-24 2194.12,-30 2188.12,-36 2182.12,-36"/>
<text xml:space="preserve" text-anchor="middle" x="2112.25" y="-19.2" font-family="Helvetica,sans-Serif" font-size="9.00">Fire Control 0.25x Size 0.25x Range</text>
<text xml:space="preserve" text-anchor="middle" x="2112.25" y="-9.45" font-family="Helvetica,sans-Serif" font-size="9.00">13 RP</text>
</g>
<!-- Fire_Control_0_3x_Size_0_3x_Ra -->
<g id="node14" class="node">
<title>Fire_Control_0_3x_Size_0_3x_Ra</title>
<path fill="#d4edda" stroke="black" d="M2353.88,-36C2353.88,-36 2224.62,-36 2224.62,-36 2218.62,-36 2212.62,-30 2212.62,-24 2212.62,-24 2212.62,-12 2212.62,-12 2212.62,-6 2218.62,0 2224.62,0 2224.62,0 2353.88,0 2353.88,0 2359.88,0 2365.88,-6 2365.88,-12 2365.88,-12 2365.88,-24 2365.88,-24 2365.88,-30 2359.88,-36 2353.88,-36"/>
<text xml:space="preserve" text-anchor="middle" x="2289.25" y="-19.2" font-family="Helvetica,sans-Serif" font-size="9.00">Fire Control 0.3x Size 0.3x Range</text>
<text xml:space="preserve" text-anchor="middle" x="2289.25" y="-9.45" font-family="Helvetica,sans-Serif" font-size="9.00">14 RP</text>
</g>
<!-- Fire_Control_0_4x_Size_0_4x_Ra -->
<g id="node15" class="node">
<title>Fire_Control_0_4x_Size_0_4x_Ra</title>
<path fill="#d4edda" stroke="black" d="M2524.88,-36C2524.88,-36 2395.62,-36 2395.62,-36 2389.62,-36 2383.62,-30 2383.62,-24 2383.62,-24 2383.62,-12 2383.62,-12 2383.62,-6 2389.62,0 2395.62,0 2395.62,0 2524.88,0 2524.88,0 2530.88,0 2536.88,-6 2536.88,-12 2536.88,-12 2536.88,-24 2536.88,-24 2536.88,-30 2530.88,-36 2524.88,-36"/>
<text xml:space="preserve" text-anchor="middle" x="2460.25" y="-19.2" font-family="Helvetica,sans-Serif" font-size="9.00">Fire Control 0.4x Size 0.4x Range</text>
<text xml:space="preserve" text-anchor="middle" x="2460.25" y="-9.45" font-family="Helvetica,sans-Serif" font-size="9.00">15 RP</text>
</g>
<!-- Fire_Control_0_5x_Size_0_5x_Ra -->
<g id="node16" class="node">
<title>Fire_Control_0_5x_Size_0_5x_Ra</title>
<path fill="#d4edda" stroke="black" d="M2695.88,-36C2695.88,-36 2566.62,-36 2566.62,-36 2560.62,-36 2554.62,-30 2554.62,-24 2554.62,-24 2554.62,-12 2554.62,-12 2554.62,-6 2560.62,0 2566.62,0 2566.62,0 2695.88,0 2695.88,0 2701.88,0 2707.88,-6 2707.88,-12 2707.88,-12 2707.88,-24 2707.88,-24 2707.88,-30 2701.88,-36 2695.88,-36"/>
<text xml:space="preserve" text-anchor="middle" x="2631.25" y="-19.2" font-family="Helvetica,sans-Serif" font-size="9.00">Fire Control 0.5x Size 0.5x Range</text>
<text xml:space="preserve" text-anchor="middle" x="2631.25" y="-9.45" font-family="Helvetica,sans-Serif" font-size="9.00">16 RP</text>
</g>
<!-- Fire_Control_0_6x_Size_0_6x_Ra -->
<g id="node17" class="node">
<title>Fire_Control_0_6x_Size_0_6x_Ra</title>
<path fill="#d4edda" stroke="black" d="M2866.88,-36C2866.88,-36 2737.62,-36 2737.62,-36 2731.62,-36 2725.62,-30 2725.62,-24 2725.62,-24 2725.62,-12 2725.62,-12 2725.62,-6 2731.62,0 2737.62,0 2737.62,0 2866.88,0 2866.88,0 2872.88,0 2878.88,-6 2878.88,-12 2878.88,-12 2878.88,-24 2878.88,-24 2878.88,-30 2872.88,-36 2866.88,-36"/>
<text xml:space="preserve" text-anchor="middle" x="2802.25" y="-19.2" font-family="Helvetica,sans-Serif" font-size="9.00">Fire Control 0.6x Size 0.6x Range</text>
<text xml:space="preserve" text-anchor="middle" x="2802.25" y="-9.45" font-family="Helvetica,sans-Serif" font-size="9.00">17 RP</text>
</g>
<!-- Fire_Control_0_7x_Size_0_7x_Ra -->
<g id="node18" class="node">
<title>Fire_Control_0_7x_Size_0_7x_Ra</title>
<path fill="#d4edda" stroke="black" d="M3037.88,-36C3037.88,-36 2908.62,-36 2908.62,-36 2902.62,-36 2896.62,-30 2896.62,-24 2896.62,-24 2896.62,-12 2896.62,-12 2896.62,-6 2902.62,0 2908.62,0 2908.62,0 3037.88,0 3037.88,0 3043.88,0 3049.88,-6 3049.88,-12 3049.88,-12 3049.88,-24 3049.88,-24 3049.88,-30 3043.88,-36 3037.88,-36"/>
<text xml:space="preserve" text-anchor="middle" x="2973.25" y="-19.2" font-family="Helvetica,sans-Serif" font-size="9.00">Fire Control 0.7x Size 0.7x Range</text>
<text xml:space="preserve" text-anchor="middle" x="2973.25" y="-9.45" font-family="Helvetica,sans-Serif" font-size="9.00">18 RP</text>
</g>
<!-- Fire_Control_0_8x_Size_0_8x_Ra -->
<g id="node19" class="node">
<title>Fire_Control_0_8x_Size_0_8x_Ra</title>
<path fill="#d4edda" stroke="black" d="M3208.88,-36C3208.88,-36 3079.62,-36 3079.62,-36 3073.62,-36 3067.62,-30 3067.62,-24 3067.62,-24 3067.62,-12 3067.62,-12 3067.62,-6 3073.62,0 3079.62,0 3079.62,0 3208.88,0 3208.88,0 3214.88,0 3220.88,-6 3220.88,-12 3220.88,-12 3220.88,-24 3220.88,-24 3220.88,-30 3214.88,-36 3208.88,-36"/>
<text xml:space="preserve" text-anchor="middle" x="3144.25" y="-19.2" font-family="Helvetica,sans-Serif" font-size="9.00">Fire Control 0.8x Size 0.8x Range</text>
<text xml:space="preserve" text-anchor="middle" x="3144.25" y="-9.45" font-family="Helvetica,sans-Serif" font-size="9.00">19 RP</text>
</g>
<!-- Fire_Control_0_9x_Size_0_9x_Ra -->
<g id="node20" class="node">
<title>Fire_Control_0_9x_Size_0_9x_Ra</title>
<path fill="#d4edda" stroke="black" d="M3379.88,-36C3379.88,-36 3250.62,-36 3250.62,-36 3244.62,-36 3238.62,-30 3238.62,-24 3238.62,-24 3238.62,-12 3238.62,-12 3238.62,-6 3244.62,0 3250.62,0 3250.62,0 3379.88,0 3379.88,0 3385.88,0 3391.88,-6 3391.88,-12 3391.88,-12 3391.88,-24 3391.88,-24 3391.88,-30 3385.88,-36 3379.88,-36"/>
<text xml:space="preserve" text-anchor="middle" x="3315.25" y="-19.2" font-family="Helvetica,sans-Serif" font-size="9.00">Fire Control 0.9x Size 0.9x Range</text>
<text xml:space="preserve" text-anchor="middle" x="3315.25" y="-9.45" font-family="Helvetica,sans-Serif" font-size="9.00">20 RP</text>
</g>
</g>
</svg>
