<?xml version="1.0" encoding="UTF-8" standalone="no"?>
<!DOCTYPE svg PUBLIC "-//W3C//DTD SVG 1.1//EN"
 "http://www.w3.org/Graphics/SVG/1.1/DTD/svg11.dtd">
<!-- Generated by graphviz version 14.1.2 (20260124.0452)
 -->
<!-- Title: TechTree Pages: 1 -->
<svg width="3696pt" height="67pt"
 viewBox="0.00 0.00 3696.00 67.00" xmlns="http://www.w3.org/2000/svg" xmlns:xlink="http://www.w3.org/1999/xlink">
<g id="graph0" class="graph" transform="scale(1 1) rotate(0) translate(4 63)">
<title>TechTree</title>
<polygon fill="white" stroke="none" points="-4,4 -4,-63 3692.25,-63 3692.25,4 -4,4"/>
<text xml:space="preserve" text-anchor="middle" x="1844.12" y="-41.7" font-family="Helvetica,sans-Serif" font-weight="bold" font-size="14.00">Fire Control Size vs Range</text>
<!-- Normal_Size_Normal_Range -->
<g id="node1" class="node">
<title>Normal_Size_Normal_Range</title>
<path fill="#d4edda" stroke="black" d="M124,-36C124,-36 12,-36 12,-36 6,-36 0,-30 0,-24 0,-24 0,-12 0,-12 0,-6 6,0 12,0 12,0 124,0 124,0 130,0 136,-6 136,-12 136,-12 136,-24 136,-24 136,-30 130,-36 124,-36"/>
<text xml:space="preserve" text-anchor="middle" x="68" y="-19.75" font-family="Helvetica,sans-Serif" font-size="10.00">Normal Size Normal Range</text>
<text xml:space="preserve" text-anchor="middle" x="68" y="-8.5" font-family="Helvetica,sans-Serif" font-size="10.00">1 RP</text>
</g>
<!-- Fire_Control_1_25x_Size_1_25x_ -->
<g id="node2" class="node">
<title>Fire_Control_1_25x_Size_1_25x_</title>
<path fill="#d4edda" stroke="black" d="M321.5,-36C321.5,-36 170.5,-36 170.5,-36 164.5,-36 158.5,-30 158.5,-24 158.5,-24 158.5,-12 158.5,-12 158.5,-6 164.5,0 170.5,0 170.5,0 321.5,0 321.5,0 327.5,0 333.5,-6 333.5,-12 333.5,-12 333.5,-24 333.5,-24 333.5,-30 327.5,-36 321.5,-36"/>
<text xml:space="preserve" text-anchor="middle" x="246" y="-19.75" font-family="Helvetica,sans-Serif" font-size="10.00">Fire Control 1.25x Size 1.25x Range</text>
<text xml:space="preserve" text-anchor="middle" x="246" y="-8.5" font-family="Helvetica,sans-Serif" font-size="10.00">2 RP</text>
</g>
<!-- Fire_Control_1_5x_Size_1_5x_Ra -->
<g id="node3" class="node">
<title>Fire_Control_1_5x_Size_1_5x_Ra</title>
<path fill="#d4edda" stroke="black" d="M508.25,-36C508.25,-36 367.75,-36 367.75,-36 361.75,-36 355.75,-30 355.75,-24 355.75,-24 355.75,-12 355.75,-12 355.75,-6 361.75,0 367.75,0 367.75,0 508.25,0 508.25,0 514.25,0 520.25,-6 520.25,-12 520.25,-12 520.25,-24 520.25,-24 520.25,-30 514.25,-36 508.25,-36"/>
<text xml:space="preserve" text-anchor="middle" x="438" y="-19.75" font-family="Helvetica,sans-Serif" font-size="10.00">Fire Control 1.5x Size 1.5x Range</text>
<text xml:space="preserve" text-anchor="middle" x="438" y="-8.5" font-family="Helvetica,sans-Serif" font-size="10.00">3 RP</text>
</g>
<!-- Fire_Control_1_75x_Size_1_75x_ -->
<g id="node4" class="node">
<title>Fire_Control_1_75x_Size_1_75x_</title>
<path fill="#d4edda" stroke="black" d="M705.5,-36C705.5,-36 554.5,-36 554.5,-36 548.5,-36 542.5,-30 542.5,-24 542.5,-24 542.5,-12 542.5,-12 542.5,-6 548.5,0 554.5,0 554.5,0 705.5,0 705.5,0 711.5,0 717.5,-6 717.5,-12 717.5,-12 717.5,-24 717.5,-24 717.5,-30 711.5,-36 705.5,-36"/>
<text xml:space="preserve" text-anchor="middle" x="630" y="-19.75" font-family="Helvetica,sans-Serif" font-size="10.00">Fire Control 1.75x Size 1.75x Range</text>
<text xml:space="preserve" text-anchor="middle" x="630" y="-8.5" font-family="Helvetica,sans-Serif" font-size="10.00">4 RP</text>
</g>
<!-- Fire_Control_2x_Size_2x_Range -->
<g id="node5" class="node">
<title>Fire_Control_2x_Size_2x_Range</title>
<path fill="#d4edda" stroke="black" d="M876,-36C876,-36 752,-36 752,-36 746,-36 740,-30 740,-24 740,-24 740,-12 740,-12 740,-6 746,0 752,0 752,0 876,0 876,0 882,0 888,-6 888,-12 888,-12 888,-24 888,-24 888,-30 882,-36 876,-36"/>
<text xml:space="preserve" text-anchor="middle" x="814" y="-19.75" font-family="Helvetica,sans-Serif" font-size="10.00">Fire Control 2x Size 2x Range</text>
<text xml:space="preserve" text-anchor="middle" x="814" y="-8.5" font-family="Helvetica,sans-Serif" font-size="10.00">5 RP</text>
</g>
<!-- Fire_Control_2_25x_Size_2_25x_ -->
<g id="node6" class="node">
<title>Fire_Control_2_25x_Size_2_25x_</title>
<path fill="#d4edda" stroke="black" d="M1073.5,-36C1073.5,-36 922.5,-36 922.5,-36 916.5,-36 910.5,-30 910.5,-24 910.5,-24 910.5,-12 910.5,-12 910.5,-6 916.5,0 922.5,0 922.5,0 1073.5,0 1073.5,0 1079.5,0 1085.5,-6 1085.5,-12 1085.5,-12 1085.5,-24 1085.5,-24 1085.5,-30 1079.5,-36 1073.5,-36"/>
<text xml:space="preserve" text-anchor="middle" x="998" y="-19.75" font-family="Helvetica,sans-Serif" font-size="10.00">Fire Control 2.25x Size 2.25x Range</text>
<text xml:space="preserve" text-anchor="middle" x="998" y="-8.5" font-family="Helvetica,sans-Serif" font-size="10.00">6 RP</text>
</g>
<!-- Fire_Control_2_5x_Size_2_5x_Ra -->
<g id="node7" class="node">
<title>Fire_Control_2_5x_Size_2_5x_Ra</title>
<path fill="#d4edda" stroke="black" d="M1260.25,-36C1260.25,-36 1119.75,-36 1119.75,-36 1113.75,-36 1107.75,-30 1107.75,-24 1107.75,-24 1107.75,-12 1107.75,-12 1107.75,-6 1113.75,0 1119.75,0 1119.75,0 1260.25,0 1260.25,0 1266.25,0 1272.25,-6 1272.25,-12 1272.25,-12 1272.25,-24 1272.25,-24 1272.25,-30 1266.25,-36 1260.25,-36"/>
<text xml:space="preserve" text-anchor="middle" x="1190" y="-19.75" font-family="Helvetica,sans-Serif" font-size="10.00">Fire Control 2.5x Size 2.5x Range</text>
<text xml:space="preserve" text-anchor="middle" x="1190" y="-8.5" font-family="Helvetica,sans-Serif" font-size="10.00">7 RP</text>
</g>
<!-- Fire_Control_2_75x_Size_2_75x_ -->
<g id="node8" class="node">
<title>Fire_Control_2_75x_Size_2_75x_</title>
<path fill="#d4edda" stroke="black" d="M1457.5,-36C1457.5,-36 1306.5,-36 1306.5,-36 1300.5,-36 1294.5,-30 1294.5,-24 1294.5,-24 1294.5,-12 1294.5,-12 1294.5,-6 1300.5,0 1306.5,0 1306.5,0 1457.5,0 1457.5,0 1463.5,0 1469.5,-6 1469.5,-12 1469.5,-12 1469.5,-24 1469.5,-24 1469.5,-30 1463.5,-36 1457.5,-36"/>
<text xml:space="preserve" text-anchor="middle" x="1382" y="-19.75" font-family="Helvetica,sans-Serif" font-size="10.00">Fire Control 2.75x Size 2.75x Range</text>
<text xml:space="preserve" text-anchor="middle" x="1382" y="-8.5" font-family="Helvetica,sans-Serif" font-size="10.00">8 RP</text>
</g>
<!-- Fire_Control_3x_Size_3x_Range -->
<g id="node9" class="node">
<title>Fire_Control_3x_Size_3x_Range</title>
<path fill="#d4edda" stroke="black" d="M1628,-36C1628,-36 1504,-36 1504,-36 1498,-36 1492,-30 1492,-24 1492,-24 1492,-12 1492,-12 1492,-6 1498,0 1504,0 1504,0 1628,0 1628,0 1634,0 1640,-6 1640,-12 1640,-12 1640,-24 1640,-24 1640,-30 1634,-36 1628,-36"/>
<text xml:space="preserve" text-anchor="middle" x="1566" y="-19.75" font-family="Helvetica,sans-Serif" font-size="10.00">Fire Control 3x Size 3x Range</text>
<text xml:space="preserve" text-anchor="middle" x="1566" y="-8.5" font-family="Helvetica,sans-Serif" font-size="10.00">9 RP</text>
</g>
<!-- Fire_Control_3_5x_Size_3_5x_Ra -->
<g id="node10" class="node">
<title>Fire_Control_3_5x_Size_3_5x_Ra</title>
<path fill="#d4edda" stroke="black" d="M1814.25,-36C1814.25,-36 1673.75,-36 1673.75,-36 1667.75,-36 1661.75,-30 1661.75,-24 1661.75,-24 1661.75,-12 1661.75,-12 1661.75,-6 1667.75,0 1673.75,0 1673.75,0 1814.25,0 1814.25,0 1820.25,0 1826.25,-6 1826.25,-12 1826.25,-12 1826.25,-24 1826.25,-24 1826.25,-30 1820.25,-36 1814.25,-36"/>
<text xml:space="preserve" text-anchor="middle" x="1744" y="-19.75" font-family="Helvetica,sans-Serif" font-size="10.00">Fire Control 3.5x Size 3.5x Range</text>
<text xml:space="preserve" text-anchor="middle" x="1744" y="-8.5" font-family="Helvetica,sans-Serif" font-size="10.00">10 RP</text>
</g>
<!-- Fire_Control_4x_Size_4x_Range -->
<g id="node11" class="node">
<title>Fire_Control_4x_Size_4x_Range</title>
<path fill="#d4edda" stroke="black" d="M1984,-36C1984,-36 1860,-36 1860,-36 1854,-36 1848,-30 1848,-24 1848,-24 1848,-12 1848,-12 1848,-6 1854,0 1860,0 1860,0 1984,0 1984,0 1990,0 1996,-6 1996,-12 1996,-12 1996,-24 1996,-24 1996,-30 1990,-36 1984,-36"/>
<text xml:space="preserve" text-anchor="middle" x="1922" y="-19.75" font-family="Helvetica,sans-Serif" font-size="10.00">Fire Control 4x Size 4x Range</text>
<text xml:space="preserve" text-anchor="middle" x="1922" y="-8.5" font-family="Helvetica,sans-Serif" font-size="10.00">11 RP</text>
</g>
<!-- Fire_Control_0_2x_Size_0_2x_Ra -->
<g id="node12" class="node">
<title>Fire_Control_0_2x_Size_0_2x_Ra</title>
<path fill="#d4edda" stroke="black" d="M2170.25,-36C2170.25,-36 2029.75,-36 2029.75,-36 2023.75,-36 2017.75,-30 2017.75,-24 2017.75,-24 2017.75,-12 2017.75,-12 2017.75,-6 2023.75,0 2029.75,0 2029.75,0 2170.25,0 2170.25,0 2176.25,0 2182.25,-6 2182.25,-12 2182.25,-12 2182.25,-24 2182.25,-24 2182.25,-30 2176.25,-36 2170.25,-36"/>
<text xml:space="preserve" text-anchor="middle" x="2100" y="-19.75" font-family="Helvetica,sans-Serif" font-size="10.00">Fire Control 0.2x Size 0.2x Range</text>
<text xml:space="preserve" text-anchor="middle" x="2100" y="-8.5" font-family="Helvetica,sans-Serif" font-size="10.00">12 RP</text>
</g>
<!-- Fire_Control_0_25x_Size_0_25x_ -->
<g id="node13" class="node">
<title>Fire_Control_0_25x_Size_0_25x_</title>
<path fill="#d4edda" stroke="black" d="M2367.5,-36C2367.5,-36 2216.5,-36 2216.5,-36 2210.5,-36 2204.5,-30 2204.5,-24 2204.5,-24 2204.5,-12 2204.5,-12 2204.5,-6 2210.5,0 2216.5,0 2216.5,0 2367.5,0 2367.5,0 2373.5,0 2379.5,-6 2379.5,-12 2379.5,-12 2379.5,-24 2379.5,-24 2379.5,-30 2373.5,-36 2367.5,-36"/>
<text xml:space="preserve" text-anchor="middle" x="2292" y="-19.75" font-family="Helvetica,sans-Serif" font-size="10.00">Fire Control 0.25x Size 0.25x Range</text>
<text xml:space="preserve" text-anchor="middle" x="2292" y="-8.5" font-family="Helvetica,sans-Serif" font-size="10.00">13 RP</text>
</g>
<!-- Fire_Control_0_3x_Size_0_3x_Ra -->
<g id="node14" class="node">
<title>Fire_Control_0_3x_Size_0_3x_Ra</title>
<path fill="#d4edda" stroke="black" d="M2554.25,-36C2554.25,-36 2413.75,-36 2413.75,-36 2407.75,-36 2401.75,-30 2401.75,-24 2401.75,-24 2401.75,-12 2401.75,-12 2401.75,-6 2407.75,0 2413.75,0 2413.75,0 2554.25,0 2554.25,0 2560.25,0 2566.25,-6 2566.25,-12 2566.25,-12 2566.25,-24 2566.25,-24 2566.25,-30 2560.25,-36 2554.25,-36"/>
<text xml:space="preserve" text-anchor="middle" x="2484" y="-19.75" font-family="Helvetica,sans-Serif" font-size="10.00">Fire Control 0.3x Size 0.3x Range</text>
<text xml:space="preserve" text-anchor="middle" x="2484" y="-8.5" font-family="Helvetica,sans-Serif" font-size="10.00">14 RP</text>
</g>
<!-- Fire_Control_0_4x_Size_0_4x_Ra -->
<g id="node15" class="node">
<title>Fire_Control_0_4x_Size_0_4x_Ra</title>
<path fill="#d4edda" stroke="black" d="M2741.25,-36C2741.25,-36 2600.75,-36 2600.75,-36 2594.75,-36 2588.75,-30 2588.75,-24 2588.75,-24 2588.75,-12 2588.75,-12 2588.75,-6 2594.75,0 2600.75,0 2600.75,0 2741.25,0 2741.25,0 2747.25,0 2753.25,-6 2753.25,-12 2753.25,-12 2753.25,-24 2753.25,-24 2753.25,-30 2747.25,-36 2741.25,-36"/>
<text xml:space="preserve" text-anchor="middle" x="2671" y="-19.75" font-family="Helvetica,sans-Serif" font-size="10.00">Fire Control 0.4x Size 0.4x Range</text>
<text xml:space="preserve" text-anchor="middle" x="2671" y="-8.5" font-family="Helvetica,sans-Serif" font-size="10.00">15 RP</text>
</g>
<!-- Fire_Control_0_5x_Size_0_5x_Ra -->
<g id="node16" class="node">
<title>Fire_Control_0_5x_Size_0_5x_Ra</title>
<path fill="#d4edda" stroke="black" d="M2928.25,-36C2928.25,-36 2787.75,-36 2787.75,-36 2781.75,-36 2775.75,-30 2775.75,-24 2775.75,-24 2775.75,-12 2775.75,-12 2775.75,-6 2781.75,0 2787.75,0 2787.75,0 2928.25,0 2928.25,0 2934.25,0 2940.25,-6 2940.25,-12 2940.25,-12 2940.25,-24 2940.25,-24 2940.25,-30 2934.25,-36 2928.25,-36"/>
<text xml:space="preserve" text-anchor="middle" x="2858" y="-19.75" font-family="Helvetica,sans-Serif" font-size="10.00">Fire Control 0.5x Size 0.5x Range</text>
<text xml:space="preserve" text-anchor="middle" x="2858" y="-8.5" font-family="Helvetica,sans-Serif" font-size="10.00">16 RP</text>
</g>
<!-- Fire_Control_0_6x_Size_0_6x_Ra -->
<g id="node17" class="node">
<title>Fire_Control_0_6x_Size_0_6x_Ra</title>
<path fill="#d4edda" stroke="black" d="M3115.25,-36C3115.25,-36 2974.75,-36 2974.75,-36 2968.75,-36 2962.75,-30 2962.75,-24 2962.75,-24 2962.75,-12 2962.75,-12 2962.75,-6 2968.75,0 2974.75,0 2974.75,0 3115.25,0 3115.25,0 3121.25,0 3127.25,-6 3127.25,-12 3127.25,-12 3127.25,-24 3127.25,-24 3127.25,-30 3121.25,-36 3115.25,-36"/>
<text xml:space="preserve" text-anchor="middle" x="3045" y="-19.75" font-family="Helvetica,sans-Serif" font-size="10.00">Fire Control 0.6x Size 0.6x Range</text>
<text xml:space="preserve" text-anchor="middle" x="3045" y="-8.5" font-family="Helvetica,sans-Serif" font-size="10.00">17 RP</text>
</g>
<!-- Fire_Control_0_7x_Size_0_7x_Ra -->
<g id="node18" class="node">
<title>Fire_Control_0_7x_Size_0_7x_Ra</title>
<path fill="#d4edda" stroke="black" d="M3302.25,-36C3302.25,-36 3161.75,-36 3161.75,-36 3155.75,-36 3149.75,-30 3149.75,-24 3149.75,-24 3149.75,-12 3149.75,-12 3149.75,-6 3155.75,0 3161.75,0 3161.75,0 3302.25,0 3302.25,0 3308.25,0 3314.25,-6 3314.25,-12 3314.25,-12 3314.25,-24 3314.25,-24 3314.25,-30 3308.25,-36 3302.25,-36"/>
<text xml:space="preserve" text-anchor="middle" x="3232" y="-19.75" font-family="Helvetica,sans-Serif" font-size="10.00">Fire Control 0.7x Size 0.7x Range</text>
<text xml:space="preserve" text-anchor="middle" x="3232" y="-8.5" font-family="Helvetica,sans-Serif" font-size="10.00">18 RP</text>
</g>
<!-- Fire_Control_0_8x_Size_0_8x_Ra -->
<g id="node19" class="node">
<title>Fire_Control_0_8x_Size_0_8x_Ra</title>
<path fill="#d4edda" stroke="black" d="M3489.25,-36C3489.25,-36 3348.75,-36 3348.75,-36 3342.75,-36 3336.75,-30 3336.75,-24 3336.75,-24 3336.75,-12 3336.75,-12 3336.75,-6 3342.75,0 3348.75,0 3348.75,0 3489.25,0 3489.25,0 3495.25,0 3501.25,-6 3501.25,-12 3501.25,-12 3501.25,-24 3501.25,-24 3501.25,-30 3495.25,-36 3489.25,-36"/>
<text xml:space="preserve" text-anchor="middle" x="3419" y="-19.75" font-family="Helvetica,sans-Serif" font-size="10.00">Fire Control 0.8x Size 0.8x Range</text>
<text xml:space="preserve" text-anchor="middle" x="3419" y="-8.5" font-family="Helvetica,sans-Serif" font-size="10.00">19 RP</text>
</g>
<!-- Fire_Control_0_9x_Size_0_9x_Ra -->
<g id="node20" class="node">
<title>Fire_Control_0_9x_Size_0_9x_Ra</title>
<path fill="#d4edda" stroke="black" d="M3676.25,-36C3676.25,-36 3535.75,-36 3535.75,-36 3529.75,-36 3523.75,-30 3523.75,-24 3523.75,-24 3523.75,-12 3523.75,-12 3523.75,-6 3529.75,0 3535.75,0 3535.75,0 3676.25,0 3676.25,0 3682.25,0 3688.25,-6 3688.25,-12 3688.25,-12 3688.25,-24 3688.25,-24 3688.25,-30 3682.25,-36 3676.25,-36"/>
<text xml:space="preserve" text-anchor="middle" x="3606" y="-19.75" font-family="Helvetica,sans-Serif" font-size="10.00">Fire Control 0.9x Size 0.9x Range</text>
<text xml:space="preserve" text-anchor="middle" x="3606" y="-8.5" font-family="Helvetica,sans-Serif" font-size="10.00">20 RP</text>
</g>
</g>
</svg>
