<?xml version="1.0" encoding="UTF-8" standalone="no"?>
<!DOCTYPE svg PUBLIC "-//W3C//DTD SVG 1.1//EN"
 "http://www.w3.org/Graphics/SVG/1.1/DTD/svg11.dtd">
<!-- Generated by graphviz version 14.1.2 (20260124.0452)
 -->
<!-- Title: TechTree Pages: 1 -->
<svg width="158pt" height="652pt"
 viewBox="0.00 0.00 158.00 652.00" xmlns="http://www.w3.org/2000/svg" xmlns:xlink="http://www.w3.org/1999/xlink">
<g id="graph0" class="graph" transform="scale(1 1) rotate(0) translate(4 648)">
<title>TechTree</title>
<polygon fill="white" stroke="none" points="-4,4 -4,-648 153.5,-648 153.5,4 -4,4"/>
<text xml:space="preserve" text-anchor="middle" x="74.75" y="-626.7" font-family="Helvetica,sans-Serif" font-weight="bold" font-size="14.00">Fire Control Jammer</text>
<!-- Fire_Control_Jammer_1 -->
<g id="node1" class="node">
<title>Fire_Control_Jammer_1</title>
<path fill="#cce5ff" stroke="black" d="M119.5,-621C119.5,-621 30,-621 30,-621 24,-621 18,-615 18,-609 18,-609 18,-597 18,-597 18,-591 24,-585 30,-585 30,-585 119.5,-585 119.5,-585 125.5,-585 131.5,-591 131.5,-597 131.5,-597 131.5,-609 131.5,-609 131.5,-615 125.5,-621 119.5,-621"/>
<text xml:space="preserve" text-anchor="middle" x="74.75" y="-604.75" font-family="Helvetica,sans-Serif" font-size="10.00">Fire Control Jammer 1</text>
<text xml:space="preserve" text-anchor="middle" x="74.75" y="-593.5" font-family="Helvetica,sans-Serif" font-size="10.00">2K RP</text>
</g>
<!-- Fire_Control_Jammer_2 -->
<g id="node2" class="node">
<title>Fire_Control_Jammer_2</title>
<path fill="#cce5ff" stroke="black" d="M119.5,-556C119.5,-556 30,-556 30,-556 24,-556 18,-550 18,-544 18,-544 18,-532 18,-532 18,-526 24,-520 30,-520 30,-520 119.5,-520 119.5,-520 125.5,-520 131.5,-526 131.5,-532 131.5,-532 131.5,-544 131.5,-544 131.5,-550 125.5,-556 119.5,-556"/>
<text xml:space="preserve" text-anchor="middle" x="74.75" y="-539.75" font-family="Helvetica,sans-Serif" font-size="10.00">Fire Control Jammer 2</text>
<text xml:space="preserve" text-anchor="middle" x="74.75" y="-528.5" font-family="Helvetica,sans-Serif" font-size="10.00">5K RP</text>
</g>
<!-- Fire_Control_Jammer_1&#45;&gt;Fire_Control_Jammer_2 -->
<g id="edge1" class="edge">
<title>Fire_Control_Jammer_1&#45;&gt;Fire_Control_Jammer_2</title>
<path fill="none" stroke="black" d="M74.75,-584.78C74.75,-578.53 74.75,-571.33 74.75,-564.52"/>
<polygon fill="black" stroke="black" points="77.2,-564.71 74.75,-557.71 72.3,-564.71 77.2,-564.71"/>
</g>
<!-- Fire_Control_Jammer_3 -->
<g id="node3" class="node">
<title>Fire_Control_Jammer_3</title>
<path fill="#cce5ff" stroke="black" d="M119.5,-491C119.5,-491 30,-491 30,-491 24,-491 18,-485 18,-479 18,-479 18,-467 18,-467 18,-461 24,-455 30,-455 30,-455 119.5,-455 119.5,-455 125.5,-455 131.5,-461 131.5,-467 131.5,-467 131.5,-479 131.5,-479 131.5,-485 125.5,-491 119.5,-491"/>
<text xml:space="preserve" text-anchor="middle" x="74.75" y="-474.75" font-family="Helvetica,sans-Serif" font-size="10.00">Fire Control Jammer 3</text>
<text xml:space="preserve" text-anchor="middle" x="74.75" y="-463.5" font-family="Helvetica,sans-Serif" font-size="10.00">10K RP</text>
</g>
<!-- Fire_Control_Jammer_2&#45;&gt;Fire_Control_Jammer_3 -->
<g id="edge2" class="edge">
<title>Fire_Control_Jammer_2&#45;&gt;Fire_Control_Jammer_3</title>
<path fill="none" stroke="black" d="M74.75,-519.78C74.75,-513.53 74.75,-506.33 74.75,-499.52"/>
<polygon fill="black" stroke="black" points="77.2,-499.71 74.75,-492.71 72.3,-499.71 77.2,-499.71"/>
</g>
<!-- Fire_Control_Jammer_4 -->
<g id="node4" class="node">
<title>Fire_Control_Jammer_4</title>
<path fill="#fff3cd" stroke="black" d="M119.5,-426C119.5,-426 30,-426 30,-426 24,-426 18,-420 18,-414 18,-414 18,-402 18,-402 18,-396 24,-390 30,-390 30,-390 119.5,-390 119.5,-390 125.5,-390 131.5,-396 131.5,-402 131.5,-402 131.5,-414 131.5,-414 131.5,-420 125.5,-426 119.5,-426"/>
<text xml:space="preserve" text-anchor="middle" x="74.75" y="-409.75" font-family="Helvetica,sans-Serif" font-size="10.00">Fire Control Jammer 4</text>
<text xml:space="preserve" text-anchor="middle" x="74.75" y="-398.5" font-family="Helvetica,sans-Serif" font-size="10.00">20K RP</text>
</g>
<!-- Fire_Control_Jammer_3&#45;&gt;Fire_Control_Jammer_4 -->
<g id="edge3" class="edge">
<title>Fire_Control_Jammer_3&#45;&gt;Fire_Control_Jammer_4</title>
<path fill="none" stroke="black" d="M74.75,-454.78C74.75,-448.53 74.75,-441.33 74.75,-434.52"/>
<polygon fill="black" stroke="black" points="77.2,-434.71 74.75,-427.71 72.3,-434.71 77.2,-434.71"/>
</g>
<!-- Fire_Control_Jammer_5 -->
<g id="node5" class="node">
<title>Fire_Control_Jammer_5</title>
<path fill="#fff3cd" stroke="black" d="M119.5,-361C119.5,-361 30,-361 30,-361 24,-361 18,-355 18,-349 18,-349 18,-337 18,-337 18,-331 24,-325 30,-325 30,-325 119.5,-325 119.5,-325 125.5,-325 131.5,-331 131.5,-337 131.5,-337 131.5,-349 131.5,-349 131.5,-355 125.5,-361 119.5,-361"/>
<text xml:space="preserve" text-anchor="middle" x="74.75" y="-344.75" font-family="Helvetica,sans-Serif" font-size="10.00">Fire Control Jammer 5</text>
<text xml:space="preserve" text-anchor="middle" x="74.75" y="-333.5" font-family="Helvetica,sans-Serif" font-size="10.00">40K RP</text>
</g>
<!-- Fire_Control_Jammer_4&#45;&gt;Fire_Control_Jammer_5 -->
<g id="edge4" class="edge">
<title>Fire_Control_Jammer_4&#45;&gt;Fire_Control_Jammer_5</title>
<path fill="none" stroke="black" d="M74.75,-389.78C74.75,-383.53 74.75,-376.33 74.75,-369.52"/>
<polygon fill="black" stroke="black" points="77.2,-369.71 74.75,-362.71 72.3,-369.71 77.2,-369.71"/>
</g>
<!-- Fire_Control_Jammer_6 -->
<g id="node6" class="node">
<title>Fire_Control_Jammer_6</title>
<path fill="#fff3cd" stroke="black" d="M119.5,-296C119.5,-296 30,-296 30,-296 24,-296 18,-290 18,-284 18,-284 18,-272 18,-272 18,-266 24,-260 30,-260 30,-260 119.5,-260 119.5,-260 125.5,-260 131.5,-266 131.5,-272 131.5,-272 131.5,-284 131.5,-284 131.5,-290 125.5,-296 119.5,-296"/>
<text xml:space="preserve" text-anchor="middle" x="74.75" y="-279.75" font-family="Helvetica,sans-Serif" font-size="10.00">Fire Control Jammer 6</text>
<text xml:space="preserve" text-anchor="middle" x="74.75" y="-268.5" font-family="Helvetica,sans-Serif" font-size="10.00">80K RP</text>
</g>
<!-- Fire_Control_Jammer_5&#45;&gt;Fire_Control_Jammer_6 -->
<g id="edge5" class="edge">
<title>Fire_Control_Jammer_5&#45;&gt;Fire_Control_Jammer_6</title>
<path fill="none" stroke="black" d="M74.75,-324.78C74.75,-318.53 74.75,-311.33 74.75,-304.52"/>
<polygon fill="black" stroke="black" points="77.2,-304.71 74.75,-297.71 72.3,-304.71 77.2,-304.71"/>
</g>
<!-- Fire_Control_Jammer_7 -->
<g id="node7" class="node">
<title>Fire_Control_Jammer_7</title>
<path fill="#d4c4fb" stroke="black" d="M119.5,-231C119.5,-231 30,-231 30,-231 24,-231 18,-225 18,-219 18,-219 18,-207 18,-207 18,-201 24,-195 30,-195 30,-195 119.5,-195 119.5,-195 125.5,-195 131.5,-201 131.5,-207 131.5,-207 131.5,-219 131.5,-219 131.5,-225 125.5,-231 119.5,-231"/>
<text xml:space="preserve" text-anchor="middle" x="74.75" y="-214.75" font-family="Helvetica,sans-Serif" font-size="10.00">Fire Control Jammer 7</text>
<text xml:space="preserve" text-anchor="middle" x="74.75" y="-203.5" font-family="Helvetica,sans-Serif" font-size="10.00">150K RP</text>
</g>
<!-- Fire_Control_Jammer_6&#45;&gt;Fire_Control_Jammer_7 -->
<g id="edge6" class="edge">
<title>Fire_Control_Jammer_6&#45;&gt;Fire_Control_Jammer_7</title>
<path fill="none" stroke="black" d="M74.75,-259.78C74.75,-253.53 74.75,-246.33 74.75,-239.52"/>
<polygon fill="black" stroke="black" points="77.2,-239.71 74.75,-232.71 72.3,-239.71 77.2,-239.71"/>
</g>
<!-- Fire_Control_Jammer_8 -->
<g id="node8" class="node">
<title>Fire_Control_Jammer_8</title>
<path fill="#d4c4fb" stroke="black" d="M119.5,-166C119.5,-166 30,-166 30,-166 24,-166 18,-160 18,-154 18,-154 18,-142 18,-142 18,-136 24,-130 30,-130 30,-130 119.5,-130 119.5,-130 125.5,-130 131.5,-136 131.5,-142 131.5,-142 131.5,-154 131.5,-154 131.5,-160 125.5,-166 119.5,-166"/>
<text xml:space="preserve" text-anchor="middle" x="74.75" y="-149.75" font-family="Helvetica,sans-Serif" font-size="10.00">Fire Control Jammer 8</text>
<text xml:space="preserve" text-anchor="middle" x="74.75" y="-138.5" font-family="Helvetica,sans-Serif" font-size="10.00">300K RP</text>
</g>
<!-- Fire_Control_Jammer_7&#45;&gt;Fire_Control_Jammer_8 -->
<g id="edge7" class="edge">
<title>Fire_Control_Jammer_7&#45;&gt;Fire_Control_Jammer_8</title>
<path fill="none" stroke="black" d="M74.75,-194.78C74.75,-188.53 74.75,-181.33 74.75,-174.52"/>
<polygon fill="black" stroke="black" points="77.2,-174.71 74.75,-167.71 72.3,-174.71 77.2,-174.71"/>
</g>
<!-- Fire_Control_Jammer_9 -->
<g id="node9" class="node">
<title>Fire_Control_Jammer_9</title>
<path fill="#d4c4fb" stroke="black" d="M119.5,-101C119.5,-101 30,-101 30,-101 24,-101 18,-95 18,-89 18,-89 18,-77 18,-77 18,-71 24,-65 30,-65 30,-65 119.5,-65 119.5,-65 125.5,-65 131.5,-71 131.5,-77 131.5,-77 131.5,-89 131.5,-89 131.5,-95 125.5,-101 119.5,-101"/>
<text xml:space="preserve" text-anchor="middle" x="74.75" y="-84.75" font-family="Helvetica,sans-Serif" font-size="10.00">Fire Control Jammer 9</text>
<text xml:space="preserve" text-anchor="middle" x="74.75" y="-73.5" font-family="Helvetica,sans-Serif" font-size="10.00">600K RP</text>
</g>
<!-- Fire_Control_Jammer_8&#45;&gt;Fire_Control_Jammer_9 -->
<g id="edge8" class="edge">
<title>Fire_Control_Jammer_8&#45;&gt;Fire_Control_Jammer_9</title>
<path fill="none" stroke="black" d="M74.75,-129.78C74.75,-123.53 74.75,-116.33 74.75,-109.52"/>
<polygon fill="black" stroke="black" points="77.2,-109.71 74.75,-102.71 72.3,-109.71 77.2,-109.71"/>
</g>
<!-- Fire_Control_Jammer_10 -->
<g id="node10" class="node">
<title>Fire_Control_Jammer_10</title>
<path fill="#f8d7da" stroke="black" d="M122.12,-36C122.12,-36 27.38,-36 27.38,-36 21.37,-36 15.38,-30 15.38,-24 15.38,-24 15.38,-12 15.38,-12 15.38,-6 21.38,0 27.38,0 27.38,0 122.12,0 122.12,0 128.12,0 134.12,-6 134.12,-12 134.12,-12 134.12,-24 134.12,-24 134.12,-30 128.12,-36 122.12,-36"/>
<text xml:space="preserve" text-anchor="middle" x="74.75" y="-19.75" font-family="Helvetica,sans-Serif" font-size="10.00">Fire Control Jammer 10</text>
<text xml:space="preserve" text-anchor="middle" x="74.75" y="-8.5" font-family="Helvetica,sans-Serif" font-size="10.00">1.2M RP</text>
</g>
<!-- Fire_Control_Jammer_9&#45;&gt;Fire_Control_Jammer_10 -->
<g id="edge9" class="edge">
<title>Fire_Control_Jammer_9&#45;&gt;Fire_Control_Jammer_10</title>
<path fill="none" stroke="black" d="M74.75,-64.78C74.75,-58.53 74.75,-51.33 74.75,-44.52"/>
<polygon fill="black" stroke="black" points="77.2,-44.71 74.75,-37.71 72.3,-44.71 77.2,-44.71"/>
</g>
</g>
</svg>
