<?xml version="1.0" encoding="UTF-8" standalone="no"?>
<!DOCTYPE svg PUBLIC "-//W3C//DTD SVG 1.1//EN"
 "http://www.w3.org/Graphics/SVG/1.1/DTD/svg11.dtd">
<!-- Generated by graphviz version 14.1.2 (20260124.0452)
 -->
<!-- Title: TechTree Pages: 1 -->
<svg width="194pt" height="782pt"
 viewBox="0.00 0.00 194.00 782.00" xmlns="http://www.w3.org/2000/svg" xmlns:xlink="http://www.w3.org/1999/xlink">
<g id="graph0" class="graph" transform="scale(1 1) rotate(0) translate(4 778)">
<title>TechTree</title>
<polygon fill="white" stroke="none" points="-4,4 -4,-778 190.25,-778 190.25,4 -4,4"/>
<text xml:space="preserve" text-anchor="middle" x="93.12" y="-756.7" font-family="Helvetica,sans-Serif" font-weight="bold" font-size="14.00">Fire Control Speed Rating</text>
<!-- Fire_Control_Speed_Rating_1250 -->
<g id="node1" class="node">
<title>Fire_Control_Speed_Rating_1250</title>
<path fill="#cce5ff" stroke="black" d="M170.12,-751C170.12,-751 16.12,-751 16.12,-751 10.12,-751 4.12,-745 4.12,-739 4.12,-739 4.12,-727 4.12,-727 4.12,-721 10.12,-715 16.12,-715 16.12,-715 170.12,-715 170.12,-715 176.12,-715 182.12,-721 182.12,-727 182.12,-727 182.12,-739 182.12,-739 182.12,-745 176.12,-751 170.12,-751"/>
<text xml:space="preserve" text-anchor="middle" x="93.12" y="-734.75" font-family="Helvetica,sans-Serif" font-size="10.00">Fire Control Speed Rating 1250 km/s</text>
<text xml:space="preserve" text-anchor="middle" x="93.12" y="-723.5" font-family="Helvetica,sans-Serif" font-size="10.00">1K RP</text>
</g>
<!-- Fire_Control_Speed_Rating_2000 -->
<g id="node2" class="node">
<title>Fire_Control_Speed_Rating_2000</title>
<path fill="#cce5ff" stroke="black" d="M170.12,-686C170.12,-686 16.12,-686 16.12,-686 10.12,-686 4.12,-680 4.12,-674 4.12,-674 4.12,-662 4.12,-662 4.12,-656 10.12,-650 16.12,-650 16.12,-650 170.12,-650 170.12,-650 176.12,-650 182.12,-656 182.12,-662 182.12,-662 182.12,-674 182.12,-674 182.12,-680 176.12,-686 170.12,-686"/>
<text xml:space="preserve" text-anchor="middle" x="93.12" y="-669.75" font-family="Helvetica,sans-Serif" font-size="10.00">Fire Control Speed Rating 2000 km/s</text>
<text xml:space="preserve" text-anchor="middle" x="93.12" y="-658.5" font-family="Helvetica,sans-Serif" font-size="10.00">2K RP</text>
</g>
<!-- Fire_Control_Speed_Rating_1250&#45;&gt;Fire_Control_Speed_Rating_2000 -->
<g id="edge1" class="edge">
<title>Fire_Control_Speed_Rating_1250&#45;&gt;Fire_Control_Speed_Rating_2000</title>
<path fill="none" stroke="black" d="M93.12,-714.78C93.12,-708.53 93.12,-701.33 93.12,-694.52"/>
<polygon fill="black" stroke="black" points="95.58,-694.71 93.13,-687.71 90.68,-694.71 95.58,-694.71"/>
</g>
<!-- Fire_Control_Speed_Rating_3000 -->
<g id="node3" class="node">
<title>Fire_Control_Speed_Rating_3000</title>
<path fill="#cce5ff" stroke="black" d="M170.12,-621C170.12,-621 16.12,-621 16.12,-621 10.12,-621 4.12,-615 4.12,-609 4.12,-609 4.12,-597 4.12,-597 4.12,-591 10.12,-585 16.12,-585 16.12,-585 170.12,-585 170.12,-585 176.12,-585 182.12,-591 182.12,-597 182.12,-597 182.12,-609 182.12,-609 182.12,-615 176.12,-621 170.12,-621"/>
<text xml:space="preserve" text-anchor="middle" x="93.12" y="-604.75" font-family="Helvetica,sans-Serif" font-size="10.00">Fire Control Speed Rating 3000 km/s</text>
<text xml:space="preserve" text-anchor="middle" x="93.12" y="-593.5" font-family="Helvetica,sans-Serif" font-size="10.00">4K RP</text>
</g>
<!-- Fire_Control_Speed_Rating_2000&#45;&gt;Fire_Control_Speed_Rating_3000 -->
<g id="edge2" class="edge">
<title>Fire_Control_Speed_Rating_2000&#45;&gt;Fire_Control_Speed_Rating_3000</title>
<path fill="none" stroke="black" d="M93.12,-649.78C93.12,-643.53 93.12,-636.33 93.12,-629.52"/>
<polygon fill="black" stroke="black" points="95.58,-629.71 93.13,-622.71 90.68,-629.71 95.58,-629.71"/>
</g>
<!-- Fire_Control_Speed_Rating_4000 -->
<g id="node4" class="node">
<title>Fire_Control_Speed_Rating_4000</title>
<path fill="#cce5ff" stroke="black" d="M170.12,-556C170.12,-556 16.12,-556 16.12,-556 10.12,-556 4.12,-550 4.12,-544 4.12,-544 4.12,-532 4.12,-532 4.12,-526 10.12,-520 16.12,-520 16.12,-520 170.12,-520 170.12,-520 176.12,-520 182.12,-526 182.12,-532 182.12,-532 182.12,-544 182.12,-544 182.12,-550 176.12,-556 170.12,-556"/>
<text xml:space="preserve" text-anchor="middle" x="93.12" y="-539.75" font-family="Helvetica,sans-Serif" font-size="10.00">Fire Control Speed Rating 4000 km/s</text>
<text xml:space="preserve" text-anchor="middle" x="93.12" y="-528.5" font-family="Helvetica,sans-Serif" font-size="10.00">8K RP</text>
</g>
<!-- Fire_Control_Speed_Rating_3000&#45;&gt;Fire_Control_Speed_Rating_4000 -->
<g id="edge3" class="edge">
<title>Fire_Control_Speed_Rating_3000&#45;&gt;Fire_Control_Speed_Rating_4000</title>
<path fill="none" stroke="black" d="M93.12,-584.78C93.12,-578.53 93.12,-571.33 93.12,-564.52"/>
<polygon fill="black" stroke="black" points="95.58,-564.71 93.13,-557.71 90.68,-564.71 95.58,-564.71"/>
</g>
<!-- Fire_Control_Speed_Rating_5000 -->
<g id="node5" class="node">
<title>Fire_Control_Speed_Rating_5000</title>
<path fill="#fff3cd" stroke="black" d="M170.12,-491C170.12,-491 16.12,-491 16.12,-491 10.12,-491 4.12,-485 4.12,-479 4.12,-479 4.12,-467 4.12,-467 4.12,-461 10.12,-455 16.12,-455 16.12,-455 170.12,-455 170.12,-455 176.12,-455 182.12,-461 182.12,-467 182.12,-467 182.12,-479 182.12,-479 182.12,-485 176.12,-491 170.12,-491"/>
<text xml:space="preserve" text-anchor="middle" x="93.12" y="-474.75" font-family="Helvetica,sans-Serif" font-size="10.00">Fire Control Speed Rating 5000 km/s</text>
<text xml:space="preserve" text-anchor="middle" x="93.12" y="-463.5" font-family="Helvetica,sans-Serif" font-size="10.00">16K RP</text>
</g>
<!-- Fire_Control_Speed_Rating_4000&#45;&gt;Fire_Control_Speed_Rating_5000 -->
<g id="edge4" class="edge">
<title>Fire_Control_Speed_Rating_4000&#45;&gt;Fire_Control_Speed_Rating_5000</title>
<path fill="none" stroke="black" d="M93.12,-519.78C93.12,-513.53 93.12,-506.33 93.12,-499.52"/>
<polygon fill="black" stroke="black" points="95.58,-499.71 93.13,-492.71 90.68,-499.71 95.58,-499.71"/>
</g>
<!-- Fire_Control_Speed_Rating_6250 -->
<g id="node6" class="node">
<title>Fire_Control_Speed_Rating_6250</title>
<path fill="#fff3cd" stroke="black" d="M170.12,-426C170.12,-426 16.12,-426 16.12,-426 10.12,-426 4.12,-420 4.12,-414 4.12,-414 4.12,-402 4.12,-402 4.12,-396 10.12,-390 16.12,-390 16.12,-390 170.12,-390 170.12,-390 176.12,-390 182.12,-396 182.12,-402 182.12,-402 182.12,-414 182.12,-414 182.12,-420 176.12,-426 170.12,-426"/>
<text xml:space="preserve" text-anchor="middle" x="93.12" y="-409.75" font-family="Helvetica,sans-Serif" font-size="10.00">Fire Control Speed Rating 6250 km/s</text>
<text xml:space="preserve" text-anchor="middle" x="93.12" y="-398.5" font-family="Helvetica,sans-Serif" font-size="10.00">30K RP</text>
</g>
<!-- Fire_Control_Speed_Rating_5000&#45;&gt;Fire_Control_Speed_Rating_6250 -->
<g id="edge5" class="edge">
<title>Fire_Control_Speed_Rating_5000&#45;&gt;Fire_Control_Speed_Rating_6250</title>
<path fill="none" stroke="black" d="M93.12,-454.78C93.12,-448.53 93.12,-441.33 93.12,-434.52"/>
<polygon fill="black" stroke="black" points="95.58,-434.71 93.13,-427.71 90.68,-434.71 95.58,-434.71"/>
</g>
<!-- Fire_Control_Speed_Rating_8000 -->
<g id="node7" class="node">
<title>Fire_Control_Speed_Rating_8000</title>
<path fill="#fff3cd" stroke="black" d="M170.12,-361C170.12,-361 16.12,-361 16.12,-361 10.12,-361 4.12,-355 4.12,-349 4.12,-349 4.12,-337 4.12,-337 4.12,-331 10.12,-325 16.12,-325 16.12,-325 170.12,-325 170.12,-325 176.12,-325 182.12,-331 182.12,-337 182.12,-337 182.12,-349 182.12,-349 182.12,-355 176.12,-361 170.12,-361"/>
<text xml:space="preserve" text-anchor="middle" x="93.12" y="-344.75" font-family="Helvetica,sans-Serif" font-size="10.00">Fire Control Speed Rating 8000 km/s</text>
<text xml:space="preserve" text-anchor="middle" x="93.12" y="-333.5" font-family="Helvetica,sans-Serif" font-size="10.00">60K RP</text>
</g>
<!-- Fire_Control_Speed_Rating_6250&#45;&gt;Fire_Control_Speed_Rating_8000 -->
<g id="edge6" class="edge">
<title>Fire_Control_Speed_Rating_6250&#45;&gt;Fire_Control_Speed_Rating_8000</title>
<path fill="none" stroke="black" d="M93.12,-389.78C93.12,-383.53 93.12,-376.33 93.12,-369.52"/>
<polygon fill="black" stroke="black" points="95.58,-369.71 93.13,-362.71 90.68,-369.71 95.58,-369.71"/>
</g>
<!-- Fire_Control_Speed_Rating_10_0 -->
<g id="node8" class="node">
<title>Fire_Control_Speed_Rating_10_0</title>
<path fill="#d4c4fb" stroke="black" d="M174.25,-296C174.25,-296 12,-296 12,-296 6,-296 0,-290 0,-284 0,-284 0,-272 0,-272 0,-266 6,-260 12,-260 12,-260 174.25,-260 174.25,-260 180.25,-260 186.25,-266 186.25,-272 186.25,-272 186.25,-284 186.25,-284 186.25,-290 180.25,-296 174.25,-296"/>
<text xml:space="preserve" text-anchor="middle" x="93.12" y="-279.75" font-family="Helvetica,sans-Serif" font-size="10.00">Fire Control Speed Rating 10,000 km/s</text>
<text xml:space="preserve" text-anchor="middle" x="93.12" y="-268.5" font-family="Helvetica,sans-Serif" font-size="10.00">125K RP</text>
</g>
<!-- Fire_Control_Speed_Rating_8000&#45;&gt;Fire_Control_Speed_Rating_10_0 -->
<g id="edge7" class="edge">
<title>Fire_Control_Speed_Rating_8000&#45;&gt;Fire_Control_Speed_Rating_10_0</title>
<path fill="none" stroke="black" d="M93.12,-324.78C93.12,-318.53 93.12,-311.33 93.12,-304.52"/>
<polygon fill="black" stroke="black" points="95.58,-304.71 93.13,-297.71 90.68,-304.71 95.58,-304.71"/>
</g>
<!-- Fire_Control_Speed_Rating_12_5 -->
<g id="node9" class="node">
<title>Fire_Control_Speed_Rating_12_5</title>
<path fill="#d4c4fb" stroke="black" d="M174.25,-231C174.25,-231 12,-231 12,-231 6,-231 0,-225 0,-219 0,-219 0,-207 0,-207 0,-201 6,-195 12,-195 12,-195 174.25,-195 174.25,-195 180.25,-195 186.25,-201 186.25,-207 186.25,-207 186.25,-219 186.25,-219 186.25,-225 180.25,-231 174.25,-231"/>
<text xml:space="preserve" text-anchor="middle" x="93.12" y="-214.75" font-family="Helvetica,sans-Serif" font-size="10.00">Fire Control Speed Rating 12,500 km/s</text>
<text xml:space="preserve" text-anchor="middle" x="93.12" y="-203.5" font-family="Helvetica,sans-Serif" font-size="10.00">250K RP</text>
</g>
<!-- Fire_Control_Speed_Rating_10_0&#45;&gt;Fire_Control_Speed_Rating_12_5 -->
<g id="edge8" class="edge">
<title>Fire_Control_Speed_Rating_10_0&#45;&gt;Fire_Control_Speed_Rating_12_5</title>
<path fill="none" stroke="black" d="M93.12,-259.78C93.12,-253.53 93.12,-246.33 93.12,-239.52"/>
<polygon fill="black" stroke="black" points="95.58,-239.71 93.13,-232.71 90.68,-239.71 95.58,-239.71"/>
</g>
<!-- Fire_Control_Speed_Rating_15_0 -->
<g id="node10" class="node">
<title>Fire_Control_Speed_Rating_15_0</title>
<path fill="#d4c4fb" stroke="black" d="M174.25,-166C174.25,-166 12,-166 12,-166 6,-166 0,-160 0,-154 0,-154 0,-142 0,-142 0,-136 6,-130 12,-130 12,-130 174.25,-130 174.25,-130 180.25,-130 186.25,-136 186.25,-142 186.25,-142 186.25,-154 186.25,-154 186.25,-160 180.25,-166 174.25,-166"/>
<text xml:space="preserve" text-anchor="middle" x="93.12" y="-149.75" font-family="Helvetica,sans-Serif" font-size="10.00">Fire Control Speed Rating 15,000 km/s</text>
<text xml:space="preserve" text-anchor="middle" x="93.12" y="-138.5" font-family="Helvetica,sans-Serif" font-size="10.00">500K RP</text>
</g>
<!-- Fire_Control_Speed_Rating_12_5&#45;&gt;Fire_Control_Speed_Rating_15_0 -->
<g id="edge9" class="edge">
<title>Fire_Control_Speed_Rating_12_5&#45;&gt;Fire_Control_Speed_Rating_15_0</title>
<path fill="none" stroke="black" d="M93.12,-194.78C93.12,-188.53 93.12,-181.33 93.12,-174.52"/>
<polygon fill="black" stroke="black" points="95.58,-174.71 93.13,-167.71 90.68,-174.71 95.58,-174.71"/>
</g>
<!-- Fire_Control_Speed_Rating_20_0 -->
<g id="node11" class="node">
<title>Fire_Control_Speed_Rating_20_0</title>
<path fill="#d4c4fb" stroke="black" d="M174.25,-101C174.25,-101 12,-101 12,-101 6,-101 0,-95 0,-89 0,-89 0,-77 0,-77 0,-71 6,-65 12,-65 12,-65 174.25,-65 174.25,-65 180.25,-65 186.25,-71 186.25,-77 186.25,-77 186.25,-89 186.25,-89 186.25,-95 180.25,-101 174.25,-101"/>
<text xml:space="preserve" text-anchor="middle" x="93.12" y="-84.75" font-family="Helvetica,sans-Serif" font-size="10.00">Fire Control Speed Rating 20,000 km/s</text>
<text xml:space="preserve" text-anchor="middle" x="93.12" y="-73.5" font-family="Helvetica,sans-Serif" font-size="10.00">1.0M RP</text>
</g>
<!-- Fire_Control_Speed_Rating_15_0&#45;&gt;Fire_Control_Speed_Rating_20_0 -->
<g id="edge10" class="edge">
<title>Fire_Control_Speed_Rating_15_0&#45;&gt;Fire_Control_Speed_Rating_20_0</title>
<path fill="none" stroke="black" d="M93.12,-129.78C93.12,-123.53 93.12,-116.33 93.12,-109.52"/>
<polygon fill="black" stroke="black" points="95.58,-109.71 93.13,-102.71 90.68,-109.71 95.58,-109.71"/>
</g>
<!-- Fire_Control_Speed_Rating_25_0 -->
<g id="node12" class="node">
<title>Fire_Control_Speed_Rating_25_0</title>
<path fill="#f8d7da" stroke="black" d="M174.25,-36C174.25,-36 12,-36 12,-36 6,-36 0,-30 0,-24 0,-24 0,-12 0,-12 0,-6 6,0 12,0 12,0 174.25,0 174.25,0 180.25,0 186.25,-6 186.25,-12 186.25,-12 186.25,-24 186.25,-24 186.25,-30 180.25,-36 174.25,-36"/>
<text xml:space="preserve" text-anchor="middle" x="93.12" y="-19.75" font-family="Helvetica,sans-Serif" font-size="10.00">Fire Control Speed Rating 25,000 km/s</text>
<text xml:space="preserve" text-anchor="middle" x="93.12" y="-8.5" font-family="Helvetica,sans-Serif" font-size="10.00">2.0M RP</text>
</g>
<!-- Fire_Control_Speed_Rating_20_0&#45;&gt;Fire_Control_Speed_Rating_25_0 -->
<g id="edge11" class="edge">
<title>Fire_Control_Speed_Rating_20_0&#45;&gt;Fire_Control_Speed_Rating_25_0</title>
<path fill="none" stroke="black" d="M93.12,-64.78C93.12,-58.53 93.12,-51.33 93.12,-44.52"/>
<polygon fill="black" stroke="black" points="95.58,-44.71 93.13,-37.71 90.68,-44.71 95.58,-44.71"/>
</g>
</g>
</svg>
