<?xml version="1.0" encoding="UTF-8" standalone="no"?>
<!DOCTYPE svg PUBLIC "-//W3C//DTD SVG 1.1//EN"
 "http://www.w3.org/Graphics/SVG/1.1/DTD/svg11.dtd">
<!-- Generated by graphviz version 14.1.2 (20260124.0452)
 -->
<!-- Title: TechTree Pages: 1 -->
<svg width="328pt" height="857pt"
 viewBox="0.00 0.00 328.00 857.00" xmlns="http://www.w3.org/2000/svg" xmlns:xlink="http://www.w3.org/1999/xlink">
<g id="graph0" class="graph" transform="scale(1 1) rotate(0) translate(4 852.75)">
<title>TechTree</title>
<polygon fill="white" stroke="none" points="-4,4 -4,-852.75 324.38,-852.75 324.38,4 -4,4"/>
<text xml:space="preserve" text-anchor="middle" x="160.19" y="-833.35" font-family="Helvetica,sans-Serif" font-weight="bold" font-size="12.00">Fire Control Speed Rating</text>
<!-- Fire_Control_Speed_Rating_1250 -->
<g id="node1" class="node">
<title>Fire_Control_Speed_Rating_1250</title>
<path fill="#cce5ff" stroke="black" d="M154.75,-828C154.75,-828 12,-828 12,-828 6,-828 0,-822 0,-816 0,-816 0,-804 0,-804 0,-798 6,-792 12,-792 12,-792 154.75,-792 154.75,-792 160.75,-792 166.75,-798 166.75,-804 166.75,-804 166.75,-816 166.75,-816 166.75,-822 160.75,-828 154.75,-828"/>
<text xml:space="preserve" text-anchor="middle" x="83.38" y="-811.2" font-family="Helvetica,sans-Serif" font-size="9.00">Fire Control Speed Rating 1250 km/s</text>
<text xml:space="preserve" text-anchor="middle" x="83.38" y="-801.45" font-family="Helvetica,sans-Serif" font-size="9.00">1K RP</text>
</g>
<!-- Fire_Control_Speed_Rating_2000 -->
<g id="node2" class="node">
<title>Fire_Control_Speed_Rating_2000</title>
<path fill="#cce5ff" stroke="black" d="M238.75,-756C238.75,-756 96,-756 96,-756 90,-756 84,-750 84,-744 84,-744 84,-732 84,-732 84,-726 90,-720 96,-720 96,-720 238.75,-720 238.75,-720 244.75,-720 250.75,-726 250.75,-732 250.75,-732 250.75,-744 250.75,-744 250.75,-750 244.75,-756 238.75,-756"/>
<text xml:space="preserve" text-anchor="middle" x="167.38" y="-739.2" font-family="Helvetica,sans-Serif" font-size="9.00">Fire Control Speed Rating 2000 km/s</text>
<text xml:space="preserve" text-anchor="middle" x="167.38" y="-729.45" font-family="Helvetica,sans-Serif" font-size="9.00">2K RP</text>
</g>
<!-- Fire_Control_Speed_Rating_1250&#45;&gt;Fire_Control_Speed_Rating_2000 -->
<g id="edge1" class="edge">
<title>Fire_Control_Speed_Rating_1250&#45;&gt;Fire_Control_Speed_Rating_2000</title>
<path fill="none" stroke="black" d="M104.14,-791.7C115.24,-782.44 129.04,-770.95 140.91,-761.06"/>
<polygon fill="black" stroke="black" points="142.13,-762.77 145.4,-757.32 139.44,-759.54 142.13,-762.77"/>
</g>
<!-- Fire_Control_Speed_Rating_3000 -->
<g id="node3" class="node">
<title>Fire_Control_Speed_Rating_3000</title>
<path fill="#cce5ff" stroke="black" d="M238.75,-684C238.75,-684 96,-684 96,-684 90,-684 84,-678 84,-672 84,-672 84,-660 84,-660 84,-654 90,-648 96,-648 96,-648 238.75,-648 238.75,-648 244.75,-648 250.75,-654 250.75,-660 250.75,-660 250.75,-672 250.75,-672 250.75,-678 244.75,-684 238.75,-684"/>
<text xml:space="preserve" text-anchor="middle" x="167.38" y="-667.2" font-family="Helvetica,sans-Serif" font-size="9.00">Fire Control Speed Rating 3000 km/s</text>
<text xml:space="preserve" text-anchor="middle" x="167.38" y="-657.45" font-family="Helvetica,sans-Serif" font-size="9.00">4K RP</text>
</g>
<!-- Fire_Control_Speed_Rating_2000&#45;&gt;Fire_Control_Speed_Rating_3000 -->
<g id="edge3" class="edge">
<title>Fire_Control_Speed_Rating_2000&#45;&gt;Fire_Control_Speed_Rating_3000</title>
<path fill="none" stroke="black" d="M167.38,-719.7C167.38,-711.22 167.38,-700.86 167.38,-691.58"/>
<polygon fill="black" stroke="black" points="169.48,-691.62 167.38,-685.62 165.28,-691.62 169.48,-691.62"/>
</g>
<!-- Fire_Control_Speed_Rating_4000 -->
<g id="node4" class="node">
<title>Fire_Control_Speed_Rating_4000</title>
<path fill="#cce5ff" stroke="black" d="M238.75,-612C238.75,-612 96,-612 96,-612 90,-612 84,-606 84,-600 84,-600 84,-588 84,-588 84,-582 90,-576 96,-576 96,-576 238.75,-576 238.75,-576 244.75,-576 250.75,-582 250.75,-588 250.75,-588 250.75,-600 250.75,-600 250.75,-606 244.75,-612 238.75,-612"/>
<text xml:space="preserve" text-anchor="middle" x="167.38" y="-595.2" font-family="Helvetica,sans-Serif" font-size="9.00">Fire Control Speed Rating 4000 km/s</text>
<text xml:space="preserve" text-anchor="middle" x="167.38" y="-585.45" font-family="Helvetica,sans-Serif" font-size="9.00">8K RP</text>
</g>
<!-- Fire_Control_Speed_Rating_3000&#45;&gt;Fire_Control_Speed_Rating_4000 -->
<g id="edge4" class="edge">
<title>Fire_Control_Speed_Rating_3000&#45;&gt;Fire_Control_Speed_Rating_4000</title>
<path fill="none" stroke="black" d="M167.38,-647.7C167.38,-639.22 167.38,-628.86 167.38,-619.58"/>
<polygon fill="black" stroke="black" points="169.48,-619.62 167.38,-613.62 165.28,-619.62 169.48,-619.62"/>
</g>
<!-- Fire_Control_Speed_Rating_5000 -->
<g id="node5" class="node">
<title>Fire_Control_Speed_Rating_5000</title>
<path fill="#fff3cd" stroke="black" d="M238.75,-540C238.75,-540 96,-540 96,-540 90,-540 84,-534 84,-528 84,-528 84,-516 84,-516 84,-510 90,-504 96,-504 96,-504 238.75,-504 238.75,-504 244.75,-504 250.75,-510 250.75,-516 250.75,-516 250.75,-528 250.75,-528 250.75,-534 244.75,-540 238.75,-540"/>
<text xml:space="preserve" text-anchor="middle" x="167.38" y="-523.2" font-family="Helvetica,sans-Serif" font-size="9.00">Fire Control Speed Rating 5000 km/s</text>
<text xml:space="preserve" text-anchor="middle" x="167.38" y="-513.45" font-family="Helvetica,sans-Serif" font-size="9.00">16K RP</text>
</g>
<!-- Fire_Control_Speed_Rating_4000&#45;&gt;Fire_Control_Speed_Rating_5000 -->
<g id="edge5" class="edge">
<title>Fire_Control_Speed_Rating_4000&#45;&gt;Fire_Control_Speed_Rating_5000</title>
<path fill="none" stroke="black" d="M167.38,-575.7C167.38,-567.22 167.38,-556.86 167.38,-547.58"/>
<polygon fill="black" stroke="black" points="169.48,-547.62 167.38,-541.62 165.28,-547.62 169.48,-547.62"/>
</g>
<!-- Fire_Control_Speed_Rating_6250 -->
<g id="node6" class="node">
<title>Fire_Control_Speed_Rating_6250</title>
<path fill="#fff3cd" stroke="black" d="M238.75,-468C238.75,-468 96,-468 96,-468 90,-468 84,-462 84,-456 84,-456 84,-444 84,-444 84,-438 90,-432 96,-432 96,-432 238.75,-432 238.75,-432 244.75,-432 250.75,-438 250.75,-444 250.75,-444 250.75,-456 250.75,-456 250.75,-462 244.75,-468 238.75,-468"/>
<text xml:space="preserve" text-anchor="middle" x="167.38" y="-451.2" font-family="Helvetica,sans-Serif" font-size="9.00">Fire Control Speed Rating 6250 km/s</text>
<text xml:space="preserve" text-anchor="middle" x="167.38" y="-441.45" font-family="Helvetica,sans-Serif" font-size="9.00">30K RP</text>
</g>
<!-- Fire_Control_Speed_Rating_5000&#45;&gt;Fire_Control_Speed_Rating_6250 -->
<g id="edge6" class="edge">
<title>Fire_Control_Speed_Rating_5000&#45;&gt;Fire_Control_Speed_Rating_6250</title>
<path fill="none" stroke="black" d="M167.38,-503.7C167.38,-495.22 167.38,-484.86 167.38,-475.58"/>
<polygon fill="black" stroke="black" points="169.48,-475.62 167.38,-469.62 165.28,-475.62 169.48,-475.62"/>
</g>
<!-- Fire_Control_Speed_Rating_8000 -->
<g id="node7" class="node">
<title>Fire_Control_Speed_Rating_8000</title>
<path fill="#fff3cd" stroke="black" d="M238.75,-396C238.75,-396 96,-396 96,-396 90,-396 84,-390 84,-384 84,-384 84,-372 84,-372 84,-366 90,-360 96,-360 96,-360 238.75,-360 238.75,-360 244.75,-360 250.75,-366 250.75,-372 250.75,-372 250.75,-384 250.75,-384 250.75,-390 244.75,-396 238.75,-396"/>
<text xml:space="preserve" text-anchor="middle" x="167.38" y="-379.2" font-family="Helvetica,sans-Serif" font-size="9.00">Fire Control Speed Rating 8000 km/s</text>
<text xml:space="preserve" text-anchor="middle" x="167.38" y="-369.45" font-family="Helvetica,sans-Serif" font-size="9.00">60K RP</text>
</g>
<!-- Fire_Control_Speed_Rating_6250&#45;&gt;Fire_Control_Speed_Rating_8000 -->
<g id="edge7" class="edge">
<title>Fire_Control_Speed_Rating_6250&#45;&gt;Fire_Control_Speed_Rating_8000</title>
<path fill="none" stroke="black" d="M167.38,-431.7C167.38,-423.22 167.38,-412.86 167.38,-403.58"/>
<polygon fill="black" stroke="black" points="169.48,-403.62 167.38,-397.62 165.28,-403.62 169.48,-403.62"/>
</g>
<!-- Fire_Control_Speed_Rating_10_0 -->
<g id="node8" class="node">
<title>Fire_Control_Speed_Rating_10_0</title>
<path fill="#d4c4fb" stroke="black" d="M242.5,-324C242.5,-324 92.25,-324 92.25,-324 86.25,-324 80.25,-318 80.25,-312 80.25,-312 80.25,-300 80.25,-300 80.25,-294 86.25,-288 92.25,-288 92.25,-288 242.5,-288 242.5,-288 248.5,-288 254.5,-294 254.5,-300 254.5,-300 254.5,-312 254.5,-312 254.5,-318 248.5,-324 242.5,-324"/>
<text xml:space="preserve" text-anchor="middle" x="167.38" y="-307.2" font-family="Helvetica,sans-Serif" font-size="9.00">Fire Control Speed Rating 10,000 km/s</text>
<text xml:space="preserve" text-anchor="middle" x="167.38" y="-297.45" font-family="Helvetica,sans-Serif" font-size="9.00">125K RP</text>
</g>
<!-- Fire_Control_Speed_Rating_8000&#45;&gt;Fire_Control_Speed_Rating_10_0 -->
<g id="edge8" class="edge">
<title>Fire_Control_Speed_Rating_8000&#45;&gt;Fire_Control_Speed_Rating_10_0</title>
<path fill="none" stroke="black" d="M167.38,-359.7C167.38,-351.22 167.38,-340.86 167.38,-331.58"/>
<polygon fill="black" stroke="black" points="169.48,-331.62 167.38,-325.62 165.28,-331.62 169.48,-331.62"/>
</g>
<!-- Fire_Control_Speed_Rating_12_5 -->
<g id="node9" class="node">
<title>Fire_Control_Speed_Rating_12_5</title>
<path fill="#d4c4fb" stroke="black" d="M242.5,-252C242.5,-252 92.25,-252 92.25,-252 86.25,-252 80.25,-246 80.25,-240 80.25,-240 80.25,-228 80.25,-228 80.25,-222 86.25,-216 92.25,-216 92.25,-216 242.5,-216 242.5,-216 248.5,-216 254.5,-222 254.5,-228 254.5,-228 254.5,-240 254.5,-240 254.5,-246 248.5,-252 242.5,-252"/>
<text xml:space="preserve" text-anchor="middle" x="167.38" y="-235.2" font-family="Helvetica,sans-Serif" font-size="9.00">Fire Control Speed Rating 12,500 km/s</text>
<text xml:space="preserve" text-anchor="middle" x="167.38" y="-225.45" font-family="Helvetica,sans-Serif" font-size="9.00">250K RP</text>
</g>
<!-- Fire_Control_Speed_Rating_10_0&#45;&gt;Fire_Control_Speed_Rating_12_5 -->
<g id="edge9" class="edge">
<title>Fire_Control_Speed_Rating_10_0&#45;&gt;Fire_Control_Speed_Rating_12_5</title>
<path fill="none" stroke="black" d="M167.38,-287.7C167.38,-279.22 167.38,-268.86 167.38,-259.58"/>
<polygon fill="black" stroke="black" points="169.48,-259.62 167.38,-253.62 165.28,-259.62 169.48,-259.62"/>
</g>
<!-- Fire_Control_Speed_Rating_15_0 -->
<g id="node10" class="node">
<title>Fire_Control_Speed_Rating_15_0</title>
<path fill="#d4c4fb" stroke="black" d="M242.5,-180C242.5,-180 92.25,-180 92.25,-180 86.25,-180 80.25,-174 80.25,-168 80.25,-168 80.25,-156 80.25,-156 80.25,-150 86.25,-144 92.25,-144 92.25,-144 242.5,-144 242.5,-144 248.5,-144 254.5,-150 254.5,-156 254.5,-156 254.5,-168 254.5,-168 254.5,-174 248.5,-180 242.5,-180"/>
<text xml:space="preserve" text-anchor="middle" x="167.38" y="-163.2" font-family="Helvetica,sans-Serif" font-size="9.00">Fire Control Speed Rating 15,000 km/s</text>
<text xml:space="preserve" text-anchor="middle" x="167.38" y="-153.45" font-family="Helvetica,sans-Serif" font-size="9.00">500K RP</text>
</g>
<!-- Fire_Control_Speed_Rating_12_5&#45;&gt;Fire_Control_Speed_Rating_15_0 -->
<g id="edge10" class="edge">
<title>Fire_Control_Speed_Rating_12_5&#45;&gt;Fire_Control_Speed_Rating_15_0</title>
<path fill="none" stroke="black" d="M167.38,-215.7C167.38,-207.22 167.38,-196.86 167.38,-187.58"/>
<polygon fill="black" stroke="black" points="169.48,-187.62 167.38,-181.62 165.28,-187.62 169.48,-187.62"/>
</g>
<!-- Fire_Control_Speed_Rating_20_0 -->
<g id="node11" class="node">
<title>Fire_Control_Speed_Rating_20_0</title>
<path fill="#d4c4fb" stroke="black" d="M242.5,-108C242.5,-108 92.25,-108 92.25,-108 86.25,-108 80.25,-102 80.25,-96 80.25,-96 80.25,-84 80.25,-84 80.25,-78 86.25,-72 92.25,-72 92.25,-72 242.5,-72 242.5,-72 248.5,-72 254.5,-78 254.5,-84 254.5,-84 254.5,-96 254.5,-96 254.5,-102 248.5,-108 242.5,-108"/>
<text xml:space="preserve" text-anchor="middle" x="167.38" y="-91.2" font-family="Helvetica,sans-Serif" font-size="9.00">Fire Control Speed Rating 20,000 km/s</text>
<text xml:space="preserve" text-anchor="middle" x="167.38" y="-81.45" font-family="Helvetica,sans-Serif" font-size="9.00">1.0M RP</text>
</g>
<!-- Fire_Control_Speed_Rating_15_0&#45;&gt;Fire_Control_Speed_Rating_20_0 -->
<g id="edge11" class="edge">
<title>Fire_Control_Speed_Rating_15_0&#45;&gt;Fire_Control_Speed_Rating_20_0</title>
<path fill="none" stroke="black" d="M167.38,-143.7C167.38,-135.22 167.38,-124.86 167.38,-115.58"/>
<polygon fill="black" stroke="black" points="169.48,-115.62 167.38,-109.62 165.28,-115.62 169.48,-115.62"/>
</g>
<!-- Fire_Control_Speed_Rating_25_0 -->
<g id="node12" class="node">
<title>Fire_Control_Speed_Rating_25_0</title>
<path fill="#f8d7da" stroke="black" d="M242.5,-36C242.5,-36 92.25,-36 92.25,-36 86.25,-36 80.25,-30 80.25,-24 80.25,-24 80.25,-12 80.25,-12 80.25,-6 86.25,0 92.25,0 92.25,0 242.5,0 242.5,0 248.5,0 254.5,-6 254.5,-12 254.5,-12 254.5,-24 254.5,-24 254.5,-30 248.5,-36 242.5,-36"/>
<text xml:space="preserve" text-anchor="middle" x="167.38" y="-19.2" font-family="Helvetica,sans-Serif" font-size="9.00">Fire Control Speed Rating 25,000 km/s</text>
<text xml:space="preserve" text-anchor="middle" x="167.38" y="-9.45" font-family="Helvetica,sans-Serif" font-size="9.00">2.0M RP</text>
</g>
<!-- Fire_Control_Speed_Rating_20_0&#45;&gt;Fire_Control_Speed_Rating_25_0 -->
<g id="edge12" class="edge">
<title>Fire_Control_Speed_Rating_20_0&#45;&gt;Fire_Control_Speed_Rating_25_0</title>
<path fill="none" stroke="black" d="M167.38,-71.7C167.38,-63.22 167.38,-52.86 167.38,-43.58"/>
<polygon fill="black" stroke="black" points="169.48,-43.62 167.38,-37.62 165.28,-43.62 169.48,-43.62"/>
</g>
<!-- ext_Trans_Newtonian_Technology -->
<g id="node13" class="node">
<title>ext_Trans_Newtonian_Technology</title>
<path fill="#f0f0f0" stroke="black" stroke-dasharray="5,2" d="M308.38,-828C308.38,-828 196.38,-828 196.38,-828 190.38,-828 184.38,-822 184.38,-816 184.38,-816 184.38,-804 184.38,-804 184.38,-798 190.38,-792 196.38,-792 196.38,-792 308.38,-792 308.38,-792 314.38,-792 320.38,-798 320.38,-804 320.38,-804 320.38,-816 320.38,-816 320.38,-822 314.38,-828 308.38,-828"/>
<text xml:space="preserve" text-anchor="middle" x="252.38" y="-806.33" font-family="Helvetica,sans-Serif" font-size="9.00">Trans&#45;Newtonian Technology</text>
</g>
<!-- ext_Trans_Newtonian_Technology&#45;&gt;Fire_Control_Speed_Rating_2000 -->
<g id="edge2" class="edge">
<title>ext_Trans_Newtonian_Technology&#45;&gt;Fire_Control_Speed_Rating_2000</title>
<path fill="none" stroke="black" d="M231.36,-791.7C220.13,-782.44 206.17,-770.95 194.16,-761.06"/>
<polygon fill="black" stroke="black" points="195.57,-759.5 189.61,-757.31 192.9,-762.74 195.57,-759.5"/>
</g>
</g>
</svg>
