<?xml version="1.0" encoding="UTF-8" standalone="no"?>
<!DOCTYPE svg PUBLIC "-//W3C//DTD SVG 1.1//EN"
 "http://www.w3.org/Graphics/SVG/1.1/DTD/svg11.dtd">
<!-- Generated by graphviz version 14.1.2 (20260124.0452)
 -->
<!-- Title: TechTree Pages: 1 -->
<svg width="8529pt" height="67pt"
 viewBox="0.00 0.00 8529.00 67.00" xmlns="http://www.w3.org/2000/svg" xmlns:xlink="http://www.w3.org/1999/xlink">
<g id="graph0" class="graph" transform="scale(1 1) rotate(0) translate(4 63)">
<title>TechTree</title>
<polygon fill="white" stroke="none" points="-4,4 -4,-63 8524.5,-63 8524.5,4 -4,4"/>
<text xml:space="preserve" text-anchor="middle" x="4260.25" y="-41.7" font-family="Helvetica,sans-Serif" font-weight="bold" font-size="14.00">Fire Control Size vs Tracking Speed</text>
<!-- Normal_Size_Normal_Speed -->
<g id="node1" class="node">
<title>Normal_Size_Normal_Speed</title>
<path fill="#d4edda" stroke="black" d="M123.25,-36C123.25,-36 12,-36 12,-36 6,-36 0,-30 0,-24 0,-24 0,-12 0,-12 0,-6 6,0 12,0 12,0 123.25,0 123.25,0 129.25,0 135.25,-6 135.25,-12 135.25,-12 135.25,-24 135.25,-24 135.25,-30 129.25,-36 123.25,-36"/>
<text xml:space="preserve" text-anchor="middle" x="67.62" y="-19.75" font-family="Helvetica,sans-Serif" font-size="10.00">Normal Size Normal Speed</text>
<text xml:space="preserve" text-anchor="middle" x="67.62" y="-8.5" font-family="Helvetica,sans-Serif" font-size="10.00">1 RP</text>
</g>
<!-- Fire_Control_0_5x_Size_0_5x_Tr -->
<g id="node2" class="node">
<title>Fire_Control_0_5x_Size_0_5x_Tr</title>
<path fill="#d4edda" stroke="black" d="M349.75,-36C349.75,-36 169.5,-36 169.5,-36 163.5,-36 157.5,-30 157.5,-24 157.5,-24 157.5,-12 157.5,-12 157.5,-6 163.5,0 169.5,0 169.5,0 349.75,0 349.75,0 355.75,0 361.75,-6 361.75,-12 361.75,-12 361.75,-24 361.75,-24 361.75,-30 355.75,-36 349.75,-36"/>
<text xml:space="preserve" text-anchor="middle" x="259.62" y="-19.75" font-family="Helvetica,sans-Serif" font-size="10.00">Fire Control 0.5x Size 0.5x Tracking Speed</text>
<text xml:space="preserve" text-anchor="middle" x="259.62" y="-8.5" font-family="Helvetica,sans-Serif" font-size="10.00">2 RP</text>
</g>
<!-- Fire_Control_0_75x_Size_0_75x_ -->
<g id="node3" class="node">
<title>Fire_Control_0_75x_Size_0_75x_</title>
<path fill="#d4edda" stroke="black" d="M587,-36C587,-36 396.25,-36 396.25,-36 390.25,-36 384.25,-30 384.25,-24 384.25,-24 384.25,-12 384.25,-12 384.25,-6 390.25,0 396.25,0 396.25,0 587,0 587,0 593,0 599,-6 599,-12 599,-12 599,-24 599,-24 599,-30 593,-36 587,-36"/>
<text xml:space="preserve" text-anchor="middle" x="491.62" y="-19.75" font-family="Helvetica,sans-Serif" font-size="10.00">Fire Control 0.75x Size 0.75x Tracking Speed</text>
<text xml:space="preserve" text-anchor="middle" x="491.62" y="-8.5" font-family="Helvetica,sans-Serif" font-size="10.00">3 RP</text>
</g>
<!-- Fire_Control_1_05x_Size_1_05x_ -->
<g id="node4" class="node">
<title>Fire_Control_1_05x_Size_1_05x_</title>
<path fill="#d4edda" stroke="black" d="M824,-36C824,-36 633.25,-36 633.25,-36 627.25,-36 621.25,-30 621.25,-24 621.25,-24 621.25,-12 621.25,-12 621.25,-6 627.25,0 633.25,0 633.25,0 824,0 824,0 830,0 836,-6 836,-12 836,-12 836,-24 836,-24 836,-30 830,-36 824,-36"/>
<text xml:space="preserve" text-anchor="middle" x="728.62" y="-19.75" font-family="Helvetica,sans-Serif" font-size="10.00">Fire Control 1.05x Size 1.05x Tracking Speed</text>
<text xml:space="preserve" text-anchor="middle" x="728.62" y="-8.5" font-family="Helvetica,sans-Serif" font-size="10.00">4 RP</text>
</g>
<!-- Fire_Control_1_1x_Size_1_1x_Tr -->
<g id="node5" class="node">
<title>Fire_Control_1_1x_Size_1_1x_Tr</title>
<path fill="#d4edda" stroke="black" d="M1050.75,-36C1050.75,-36 870.5,-36 870.5,-36 864.5,-36 858.5,-30 858.5,-24 858.5,-24 858.5,-12 858.5,-12 858.5,-6 864.5,0 870.5,0 870.5,0 1050.75,0 1050.75,0 1056.75,0 1062.75,-6 1062.75,-12 1062.75,-12 1062.75,-24 1062.75,-24 1062.75,-30 1056.75,-36 1050.75,-36"/>
<text xml:space="preserve" text-anchor="middle" x="960.62" y="-19.75" font-family="Helvetica,sans-Serif" font-size="10.00">Fire Control 1.1x Size 1.1x Tracking Speed</text>
<text xml:space="preserve" text-anchor="middle" x="960.62" y="-8.5" font-family="Helvetica,sans-Serif" font-size="10.00">5 RP</text>
</g>
<!-- Fire_Control_1_15x_Size_1_15x_ -->
<g id="node6" class="node">
<title>Fire_Control_1_15x_Size_1_15x_</title>
<path fill="#d4edda" stroke="black" d="M1288,-36C1288,-36 1097.25,-36 1097.25,-36 1091.25,-36 1085.25,-30 1085.25,-24 1085.25,-24 1085.25,-12 1085.25,-12 1085.25,-6 1091.25,0 1097.25,0 1097.25,0 1288,0 1288,0 1294,0 1300,-6 1300,-12 1300,-12 1300,-24 1300,-24 1300,-30 1294,-36 1288,-36"/>
<text xml:space="preserve" text-anchor="middle" x="1192.62" y="-19.75" font-family="Helvetica,sans-Serif" font-size="10.00">Fire Control 1.15x Size 1.15x Tracking Speed</text>
<text xml:space="preserve" text-anchor="middle" x="1192.62" y="-8.5" font-family="Helvetica,sans-Serif" font-size="10.00">6 RP</text>
</g>
<!-- Fire_Control_1_2x_Size_1_2x_Tr -->
<g id="node7" class="node">
<title>Fire_Control_1_2x_Size_1_2x_Tr</title>
<path fill="#d4edda" stroke="black" d="M1514.75,-36C1514.75,-36 1334.5,-36 1334.5,-36 1328.5,-36 1322.5,-30 1322.5,-24 1322.5,-24 1322.5,-12 1322.5,-12 1322.5,-6 1328.5,0 1334.5,0 1334.5,0 1514.75,0 1514.75,0 1520.75,0 1526.75,-6 1526.75,-12 1526.75,-12 1526.75,-24 1526.75,-24 1526.75,-30 1520.75,-36 1514.75,-36"/>
<text xml:space="preserve" text-anchor="middle" x="1424.62" y="-19.75" font-family="Helvetica,sans-Serif" font-size="10.00">Fire Control 1.2x Size 1.2x Tracking Speed</text>
<text xml:space="preserve" text-anchor="middle" x="1424.62" y="-8.5" font-family="Helvetica,sans-Serif" font-size="10.00">7 RP</text>
</g>
<!-- Fire_Control_1_25x_Size_1_25x_ -->
<g id="node8" class="node">
<title>Fire_Control_1_25x_Size_1_25x_</title>
<path fill="#d4edda" stroke="black" d="M1752,-36C1752,-36 1561.25,-36 1561.25,-36 1555.25,-36 1549.25,-30 1549.25,-24 1549.25,-24 1549.25,-12 1549.25,-12 1549.25,-6 1555.25,0 1561.25,0 1561.25,0 1752,0 1752,0 1758,0 1764,-6 1764,-12 1764,-12 1764,-24 1764,-24 1764,-30 1758,-36 1752,-36"/>
<text xml:space="preserve" text-anchor="middle" x="1656.62" y="-19.75" font-family="Helvetica,sans-Serif" font-size="10.00">Fire Control 1.25x Size 1.25x Tracking Speed</text>
<text xml:space="preserve" text-anchor="middle" x="1656.62" y="-8.5" font-family="Helvetica,sans-Serif" font-size="10.00">8 RP</text>
</g>
<!-- Fire_Control_1_3x_Size_1_3x_Tr -->
<g id="node9" class="node">
<title>Fire_Control_1_3x_Size_1_3x_Tr</title>
<path fill="#d4edda" stroke="black" d="M1978.75,-36C1978.75,-36 1798.5,-36 1798.5,-36 1792.5,-36 1786.5,-30 1786.5,-24 1786.5,-24 1786.5,-12 1786.5,-12 1786.5,-6 1792.5,0 1798.5,0 1798.5,0 1978.75,0 1978.75,0 1984.75,0 1990.75,-6 1990.75,-12 1990.75,-12 1990.75,-24 1990.75,-24 1990.75,-30 1984.75,-36 1978.75,-36"/>
<text xml:space="preserve" text-anchor="middle" x="1888.62" y="-19.75" font-family="Helvetica,sans-Serif" font-size="10.00">Fire Control 1.3x Size 1.3x Tracking Speed</text>
<text xml:space="preserve" text-anchor="middle" x="1888.62" y="-8.5" font-family="Helvetica,sans-Serif" font-size="10.00">9 RP</text>
</g>
<!-- Fire_Control_1_35x_Size_1_35x_ -->
<g id="node10" class="node">
<title>Fire_Control_1_35x_Size_1_35x_</title>
<path fill="#d4edda" stroke="black" d="M2216,-36C2216,-36 2025.25,-36 2025.25,-36 2019.25,-36 2013.25,-30 2013.25,-24 2013.25,-24 2013.25,-12 2013.25,-12 2013.25,-6 2019.25,0 2025.25,0 2025.25,0 2216,0 2216,0 2222,0 2228,-6 2228,-12 2228,-12 2228,-24 2228,-24 2228,-30 2222,-36 2216,-36"/>
<text xml:space="preserve" text-anchor="middle" x="2120.62" y="-19.75" font-family="Helvetica,sans-Serif" font-size="10.00">Fire Control 1.35x Size 1.35x Tracking Speed</text>
<text xml:space="preserve" text-anchor="middle" x="2120.62" y="-8.5" font-family="Helvetica,sans-Serif" font-size="10.00">10 RP</text>
</g>
<!-- Fire_Control_1_4x_Size_1_4x_Tr -->
<g id="node11" class="node">
<title>Fire_Control_1_4x_Size_1_4x_Tr</title>
<path fill="#d4edda" stroke="black" d="M2442.75,-36C2442.75,-36 2262.5,-36 2262.5,-36 2256.5,-36 2250.5,-30 2250.5,-24 2250.5,-24 2250.5,-12 2250.5,-12 2250.5,-6 2256.5,0 2262.5,0 2262.5,0 2442.75,0 2442.75,0 2448.75,0 2454.75,-6 2454.75,-12 2454.75,-12 2454.75,-24 2454.75,-24 2454.75,-30 2448.75,-36 2442.75,-36"/>
<text xml:space="preserve" text-anchor="middle" x="2352.62" y="-19.75" font-family="Helvetica,sans-Serif" font-size="10.00">Fire Control 1.4x Size 1.4x Tracking Speed</text>
<text xml:space="preserve" text-anchor="middle" x="2352.62" y="-8.5" font-family="Helvetica,sans-Serif" font-size="10.00">11 RP</text>
</g>
<!-- Fire_Control_1_45x_Size_1_45x_ -->
<g id="node12" class="node">
<title>Fire_Control_1_45x_Size_1_45x_</title>
<path fill="#d4edda" stroke="black" d="M2680,-36C2680,-36 2489.25,-36 2489.25,-36 2483.25,-36 2477.25,-30 2477.25,-24 2477.25,-24 2477.25,-12 2477.25,-12 2477.25,-6 2483.25,0 2489.25,0 2489.25,0 2680,0 2680,0 2686,0 2692,-6 2692,-12 2692,-12 2692,-24 2692,-24 2692,-30 2686,-36 2680,-36"/>
<text xml:space="preserve" text-anchor="middle" x="2584.62" y="-19.75" font-family="Helvetica,sans-Serif" font-size="10.00">Fire Control 1.45x Size 1.45x Tracking Speed</text>
<text xml:space="preserve" text-anchor="middle" x="2584.62" y="-8.5" font-family="Helvetica,sans-Serif" font-size="10.00">12 RP</text>
</g>
<!-- Fire_Control_1_5x_Size_1_5x_Tr -->
<g id="node13" class="node">
<title>Fire_Control_1_5x_Size_1_5x_Tr</title>
<path fill="#d4edda" stroke="black" d="M2906.75,-36C2906.75,-36 2726.5,-36 2726.5,-36 2720.5,-36 2714.5,-30 2714.5,-24 2714.5,-24 2714.5,-12 2714.5,-12 2714.5,-6 2720.5,0 2726.5,0 2726.5,0 2906.75,0 2906.75,0 2912.75,0 2918.75,-6 2918.75,-12 2918.75,-12 2918.75,-24 2918.75,-24 2918.75,-30 2912.75,-36 2906.75,-36"/>
<text xml:space="preserve" text-anchor="middle" x="2816.62" y="-19.75" font-family="Helvetica,sans-Serif" font-size="10.00">Fire Control 1.5x Size 1.5x Tracking Speed</text>
<text xml:space="preserve" text-anchor="middle" x="2816.62" y="-8.5" font-family="Helvetica,sans-Serif" font-size="10.00">13 RP</text>
</g>
<!-- Fire_Control_1_6x_Size_1_6x_Tr -->
<g id="node14" class="node">
<title>Fire_Control_1_6x_Size_1_6x_Tr</title>
<path fill="#d4edda" stroke="black" d="M3132.75,-36C3132.75,-36 2952.5,-36 2952.5,-36 2946.5,-36 2940.5,-30 2940.5,-24 2940.5,-24 2940.5,-12 2940.5,-12 2940.5,-6 2946.5,0 2952.5,0 2952.5,0 3132.75,0 3132.75,0 3138.75,0 3144.75,-6 3144.75,-12 3144.75,-12 3144.75,-24 3144.75,-24 3144.75,-30 3138.75,-36 3132.75,-36"/>
<text xml:space="preserve" text-anchor="middle" x="3042.62" y="-19.75" font-family="Helvetica,sans-Serif" font-size="10.00">Fire Control 1.6x Size 1.6x Tracking Speed</text>
<text xml:space="preserve" text-anchor="middle" x="3042.62" y="-8.5" font-family="Helvetica,sans-Serif" font-size="10.00">14 RP</text>
</g>
<!-- Fire_Control_1_7x_Size_1_7x_Tr -->
<g id="node15" class="node">
<title>Fire_Control_1_7x_Size_1_7x_Tr</title>
<path fill="#d4edda" stroke="black" d="M3358.75,-36C3358.75,-36 3178.5,-36 3178.5,-36 3172.5,-36 3166.5,-30 3166.5,-24 3166.5,-24 3166.5,-12 3166.5,-12 3166.5,-6 3172.5,0 3178.5,0 3178.5,0 3358.75,0 3358.75,0 3364.75,0 3370.75,-6 3370.75,-12 3370.75,-12 3370.75,-24 3370.75,-24 3370.75,-30 3364.75,-36 3358.75,-36"/>
<text xml:space="preserve" text-anchor="middle" x="3268.62" y="-19.75" font-family="Helvetica,sans-Serif" font-size="10.00">Fire Control 1.7x Size 1.7x Tracking Speed</text>
<text xml:space="preserve" text-anchor="middle" x="3268.62" y="-8.5" font-family="Helvetica,sans-Serif" font-size="10.00">15 RP</text>
</g>
<!-- Fire_Control_1_8x_Size_1_8x_Tr -->
<g id="node16" class="node">
<title>Fire_Control_1_8x_Size_1_8x_Tr</title>
<path fill="#d4edda" stroke="black" d="M3584.75,-36C3584.75,-36 3404.5,-36 3404.5,-36 3398.5,-36 3392.5,-30 3392.5,-24 3392.5,-24 3392.5,-12 3392.5,-12 3392.5,-6 3398.5,0 3404.5,0 3404.5,0 3584.75,0 3584.75,0 3590.75,0 3596.75,-6 3596.75,-12 3596.75,-12 3596.75,-24 3596.75,-24 3596.75,-30 3590.75,-36 3584.75,-36"/>
<text xml:space="preserve" text-anchor="middle" x="3494.62" y="-19.75" font-family="Helvetica,sans-Serif" font-size="10.00">Fire Control 1.8x Size 1.8x Tracking Speed</text>
<text xml:space="preserve" text-anchor="middle" x="3494.62" y="-8.5" font-family="Helvetica,sans-Serif" font-size="10.00">16 RP</text>
</g>
<!-- Fire_Control_1_9x_Size_1_9x_Tr -->
<g id="node17" class="node">
<title>Fire_Control_1_9x_Size_1_9x_Tr</title>
<path fill="#d4edda" stroke="black" d="M3810.75,-36C3810.75,-36 3630.5,-36 3630.5,-36 3624.5,-36 3618.5,-30 3618.5,-24 3618.5,-24 3618.5,-12 3618.5,-12 3618.5,-6 3624.5,0 3630.5,0 3630.5,0 3810.75,0 3810.75,0 3816.75,0 3822.75,-6 3822.75,-12 3822.75,-12 3822.75,-24 3822.75,-24 3822.75,-30 3816.75,-36 3810.75,-36"/>
<text xml:space="preserve" text-anchor="middle" x="3720.62" y="-19.75" font-family="Helvetica,sans-Serif" font-size="10.00">Fire Control 1.9x Size 1.9x Tracking Speed</text>
<text xml:space="preserve" text-anchor="middle" x="3720.62" y="-8.5" font-family="Helvetica,sans-Serif" font-size="10.00">17 RP</text>
</g>
<!-- Fire_Control_2x_Size_2x_Tracki -->
<g id="node18" class="node">
<title>Fire_Control_2x_Size_2x_Tracki</title>
<path fill="#d4edda" stroke="black" d="M4020.5,-36C4020.5,-36 3856.75,-36 3856.75,-36 3850.75,-36 3844.75,-30 3844.75,-24 3844.75,-24 3844.75,-12 3844.75,-12 3844.75,-6 3850.75,0 3856.75,0 3856.75,0 4020.5,0 4020.5,0 4026.5,0 4032.5,-6 4032.5,-12 4032.5,-12 4032.5,-24 4032.5,-24 4032.5,-30 4026.5,-36 4020.5,-36"/>
<text xml:space="preserve" text-anchor="middle" x="3938.62" y="-19.75" font-family="Helvetica,sans-Serif" font-size="10.00">Fire Control 2x Size 2x Tracking Speed</text>
<text xml:space="preserve" text-anchor="middle" x="3938.62" y="-8.5" font-family="Helvetica,sans-Serif" font-size="10.00">18 RP</text>
</g>
<!-- Fire_Control_2_1x_Size_2_1x_Tr -->
<g id="node19" class="node">
<title>Fire_Control_2_1x_Size_2_1x_Tr</title>
<path fill="#d4edda" stroke="black" d="M4246.75,-36C4246.75,-36 4066.5,-36 4066.5,-36 4060.5,-36 4054.5,-30 4054.5,-24 4054.5,-24 4054.5,-12 4054.5,-12 4054.5,-6 4060.5,0 4066.5,0 4066.5,0 4246.75,0 4246.75,0 4252.75,0 4258.75,-6 4258.75,-12 4258.75,-12 4258.75,-24 4258.75,-24 4258.75,-30 4252.75,-36 4246.75,-36"/>
<text xml:space="preserve" text-anchor="middle" x="4156.62" y="-19.75" font-family="Helvetica,sans-Serif" font-size="10.00">Fire Control 2.1x Size 2.1x Tracking Speed</text>
<text xml:space="preserve" text-anchor="middle" x="4156.62" y="-8.5" font-family="Helvetica,sans-Serif" font-size="10.00">19 RP</text>
</g>
<!-- Fire_Control_2_2x_Size_2_2x_Tr -->
<g id="node20" class="node">
<title>Fire_Control_2_2x_Size_2_2x_Tr</title>
<path fill="#d4edda" stroke="black" d="M4472.75,-36C4472.75,-36 4292.5,-36 4292.5,-36 4286.5,-36 4280.5,-30 4280.5,-24 4280.5,-24 4280.5,-12 4280.5,-12 4280.5,-6 4286.5,0 4292.5,0 4292.5,0 4472.75,0 4472.75,0 4478.75,0 4484.75,-6 4484.75,-12 4484.75,-12 4484.75,-24 4484.75,-24 4484.75,-30 4478.75,-36 4472.75,-36"/>
<text xml:space="preserve" text-anchor="middle" x="4382.62" y="-19.75" font-family="Helvetica,sans-Serif" font-size="10.00">Fire Control 2.2x Size 2.2x Tracking Speed</text>
<text xml:space="preserve" text-anchor="middle" x="4382.62" y="-8.5" font-family="Helvetica,sans-Serif" font-size="10.00">20 RP</text>
</g>
<!-- Fire_Control_2_3x_Size_2_3x_Tr -->
<g id="node21" class="node">
<title>Fire_Control_2_3x_Size_2_3x_Tr</title>
<path fill="#d4edda" stroke="black" d="M4698.75,-36C4698.75,-36 4518.5,-36 4518.5,-36 4512.5,-36 4506.5,-30 4506.5,-24 4506.5,-24 4506.5,-12 4506.5,-12 4506.5,-6 4512.5,0 4518.5,0 4518.5,0 4698.75,0 4698.75,0 4704.75,0 4710.75,-6 4710.75,-12 4710.75,-12 4710.75,-24 4710.75,-24 4710.75,-30 4704.75,-36 4698.75,-36"/>
<text xml:space="preserve" text-anchor="middle" x="4608.62" y="-19.75" font-family="Helvetica,sans-Serif" font-size="10.00">Fire Control 2.3x Size 2.3x Tracking Speed</text>
<text xml:space="preserve" text-anchor="middle" x="4608.62" y="-8.5" font-family="Helvetica,sans-Serif" font-size="10.00">21 RP</text>
</g>
<!-- Fire_Control_2_4x_Size_2_4x_Tr -->
<g id="node22" class="node">
<title>Fire_Control_2_4x_Size_2_4x_Tr</title>
<path fill="#d4edda" stroke="black" d="M4924.75,-36C4924.75,-36 4744.5,-36 4744.5,-36 4738.5,-36 4732.5,-30 4732.5,-24 4732.5,-24 4732.5,-12 4732.5,-12 4732.5,-6 4738.5,0 4744.5,0 4744.5,0 4924.75,0 4924.75,0 4930.75,0 4936.75,-6 4936.75,-12 4936.75,-12 4936.75,-24 4936.75,-24 4936.75,-30 4930.75,-36 4924.75,-36"/>
<text xml:space="preserve" text-anchor="middle" x="4834.62" y="-19.75" font-family="Helvetica,sans-Serif" font-size="10.00">Fire Control 2.4x Size 2.4x Tracking Speed</text>
<text xml:space="preserve" text-anchor="middle" x="4834.62" y="-8.5" font-family="Helvetica,sans-Serif" font-size="10.00">22 RP</text>
</g>
<!-- Fire_Control_2_5x_Size_2_5x_Tr -->
<g id="node23" class="node">
<title>Fire_Control_2_5x_Size_2_5x_Tr</title>
<path fill="#d4edda" stroke="black" d="M5150.75,-36C5150.75,-36 4970.5,-36 4970.5,-36 4964.5,-36 4958.5,-30 4958.5,-24 4958.5,-24 4958.5,-12 4958.5,-12 4958.5,-6 4964.5,0 4970.5,0 4970.5,0 5150.75,0 5150.75,0 5156.75,0 5162.75,-6 5162.75,-12 5162.75,-12 5162.75,-24 5162.75,-24 5162.75,-30 5156.75,-36 5150.75,-36"/>
<text xml:space="preserve" text-anchor="middle" x="5060.62" y="-19.75" font-family="Helvetica,sans-Serif" font-size="10.00">Fire Control 2.5x Size 2.5x Tracking Speed</text>
<text xml:space="preserve" text-anchor="middle" x="5060.62" y="-8.5" font-family="Helvetica,sans-Serif" font-size="10.00">23 RP</text>
</g>
<!-- Fire_Control_2_6x_Size_2_6x_Tr -->
<g id="node24" class="node">
<title>Fire_Control_2_6x_Size_2_6x_Tr</title>
<path fill="#d4edda" stroke="black" d="M5376.75,-36C5376.75,-36 5196.5,-36 5196.5,-36 5190.5,-36 5184.5,-30 5184.5,-24 5184.5,-24 5184.5,-12 5184.5,-12 5184.5,-6 5190.5,0 5196.5,0 5196.5,0 5376.75,0 5376.75,0 5382.75,0 5388.75,-6 5388.75,-12 5388.75,-12 5388.75,-24 5388.75,-24 5388.75,-30 5382.75,-36 5376.75,-36"/>
<text xml:space="preserve" text-anchor="middle" x="5286.62" y="-19.75" font-family="Helvetica,sans-Serif" font-size="10.00">Fire Control 2.6x Size 2.6x Tracking Speed</text>
<text xml:space="preserve" text-anchor="middle" x="5286.62" y="-8.5" font-family="Helvetica,sans-Serif" font-size="10.00">24 RP</text>
</g>
<!-- Fire_Control_2_7x_Size_2_7x_Tr -->
<g id="node25" class="node">
<title>Fire_Control_2_7x_Size_2_7x_Tr</title>
<path fill="#d4edda" stroke="black" d="M5602.75,-36C5602.75,-36 5422.5,-36 5422.5,-36 5416.5,-36 5410.5,-30 5410.5,-24 5410.5,-24 5410.5,-12 5410.5,-12 5410.5,-6 5416.5,0 5422.5,0 5422.5,0 5602.75,0 5602.75,0 5608.75,0 5614.75,-6 5614.75,-12 5614.75,-12 5614.75,-24 5614.75,-24 5614.75,-30 5608.75,-36 5602.75,-36"/>
<text xml:space="preserve" text-anchor="middle" x="5512.62" y="-19.75" font-family="Helvetica,sans-Serif" font-size="10.00">Fire Control 2.7x Size 2.7x Tracking Speed</text>
<text xml:space="preserve" text-anchor="middle" x="5512.62" y="-8.5" font-family="Helvetica,sans-Serif" font-size="10.00">25 RP</text>
</g>
<!-- Fire_Control_2_8x_Size_2_8x_Tr -->
<g id="node26" class="node">
<title>Fire_Control_2_8x_Size_2_8x_Tr</title>
<path fill="#d4edda" stroke="black" d="M5828.75,-36C5828.75,-36 5648.5,-36 5648.5,-36 5642.5,-36 5636.5,-30 5636.5,-24 5636.5,-24 5636.5,-12 5636.5,-12 5636.5,-6 5642.5,0 5648.5,0 5648.5,0 5828.75,0 5828.75,0 5834.75,0 5840.75,-6 5840.75,-12 5840.75,-12 5840.75,-24 5840.75,-24 5840.75,-30 5834.75,-36 5828.75,-36"/>
<text xml:space="preserve" text-anchor="middle" x="5738.62" y="-19.75" font-family="Helvetica,sans-Serif" font-size="10.00">Fire Control 2.8x Size 2.8x Tracking Speed</text>
<text xml:space="preserve" text-anchor="middle" x="5738.62" y="-8.5" font-family="Helvetica,sans-Serif" font-size="10.00">27 RP</text>
</g>
<!-- Fire_Control_2_9x_Size_2_9x_Tr -->
<g id="node27" class="node">
<title>Fire_Control_2_9x_Size_2_9x_Tr</title>
<path fill="#d4edda" stroke="black" d="M6054.75,-36C6054.75,-36 5874.5,-36 5874.5,-36 5868.5,-36 5862.5,-30 5862.5,-24 5862.5,-24 5862.5,-12 5862.5,-12 5862.5,-6 5868.5,0 5874.5,0 5874.5,0 6054.75,0 6054.75,0 6060.75,0 6066.75,-6 6066.75,-12 6066.75,-12 6066.75,-24 6066.75,-24 6066.75,-30 6060.75,-36 6054.75,-36"/>
<text xml:space="preserve" text-anchor="middle" x="5964.62" y="-19.75" font-family="Helvetica,sans-Serif" font-size="10.00">Fire Control 2.9x Size 2.9x Tracking Speed</text>
<text xml:space="preserve" text-anchor="middle" x="5964.62" y="-8.5" font-family="Helvetica,sans-Serif" font-size="10.00">28 RP</text>
</g>
<!-- Fire_Control_3x_Size_3x_Tracki -->
<g id="node28" class="node">
<title>Fire_Control_3x_Size_3x_Tracki</title>
<path fill="#d4edda" stroke="black" d="M6264.5,-36C6264.5,-36 6100.75,-36 6100.75,-36 6094.75,-36 6088.75,-30 6088.75,-24 6088.75,-24 6088.75,-12 6088.75,-12 6088.75,-6 6094.75,0 6100.75,0 6100.75,0 6264.5,0 6264.5,0 6270.5,0 6276.5,-6 6276.5,-12 6276.5,-12 6276.5,-24 6276.5,-24 6276.5,-30 6270.5,-36 6264.5,-36"/>
<text xml:space="preserve" text-anchor="middle" x="6182.62" y="-19.75" font-family="Helvetica,sans-Serif" font-size="10.00">Fire Control 3x Size 3x Tracking Speed</text>
<text xml:space="preserve" text-anchor="middle" x="6182.62" y="-8.5" font-family="Helvetica,sans-Serif" font-size="10.00">29 RP</text>
</g>
<!-- Fire_Control_3_1x_Size_3_1x_Tr -->
<g id="node29" class="node">
<title>Fire_Control_3_1x_Size_3_1x_Tr</title>
<path fill="#d4edda" stroke="black" d="M6490.75,-36C6490.75,-36 6310.5,-36 6310.5,-36 6304.5,-36 6298.5,-30 6298.5,-24 6298.5,-24 6298.5,-12 6298.5,-12 6298.5,-6 6304.5,0 6310.5,0 6310.5,0 6490.75,0 6490.75,0 6496.75,0 6502.75,-6 6502.75,-12 6502.75,-12 6502.75,-24 6502.75,-24 6502.75,-30 6496.75,-36 6490.75,-36"/>
<text xml:space="preserve" text-anchor="middle" x="6400.62" y="-19.75" font-family="Helvetica,sans-Serif" font-size="10.00">Fire Control 3.1x Size 3.1x Tracking Speed</text>
<text xml:space="preserve" text-anchor="middle" x="6400.62" y="-8.5" font-family="Helvetica,sans-Serif" font-size="10.00">30 RP</text>
</g>
<!-- Fire_Control_3_2x_Size_3_2x_Tr -->
<g id="node30" class="node">
<title>Fire_Control_3_2x_Size_3_2x_Tr</title>
<path fill="#d4edda" stroke="black" d="M6716.75,-36C6716.75,-36 6536.5,-36 6536.5,-36 6530.5,-36 6524.5,-30 6524.5,-24 6524.5,-24 6524.5,-12 6524.5,-12 6524.5,-6 6530.5,0 6536.5,0 6536.5,0 6716.75,0 6716.75,0 6722.75,0 6728.75,-6 6728.75,-12 6728.75,-12 6728.75,-24 6728.75,-24 6728.75,-30 6722.75,-36 6716.75,-36"/>
<text xml:space="preserve" text-anchor="middle" x="6626.62" y="-19.75" font-family="Helvetica,sans-Serif" font-size="10.00">Fire Control 3.2x Size 3.2x Tracking Speed</text>
<text xml:space="preserve" text-anchor="middle" x="6626.62" y="-8.5" font-family="Helvetica,sans-Serif" font-size="10.00">31 RP</text>
</g>
<!-- Fire_Control_3_3x_Size_3_3x_Tr -->
<g id="node31" class="node">
<title>Fire_Control_3_3x_Size_3_3x_Tr</title>
<path fill="#d4edda" stroke="black" d="M6942.75,-36C6942.75,-36 6762.5,-36 6762.5,-36 6756.5,-36 6750.5,-30 6750.5,-24 6750.5,-24 6750.5,-12 6750.5,-12 6750.5,-6 6756.5,0 6762.5,0 6762.5,0 6942.75,0 6942.75,0 6948.75,0 6954.75,-6 6954.75,-12 6954.75,-12 6954.75,-24 6954.75,-24 6954.75,-30 6948.75,-36 6942.75,-36"/>
<text xml:space="preserve" text-anchor="middle" x="6852.62" y="-19.75" font-family="Helvetica,sans-Serif" font-size="10.00">Fire Control 3.3x Size 3.3x Tracking Speed</text>
<text xml:space="preserve" text-anchor="middle" x="6852.62" y="-8.5" font-family="Helvetica,sans-Serif" font-size="10.00">32 RP</text>
</g>
<!-- Fire_Control_3_4x_Size_3_4x_Tr -->
<g id="node32" class="node">
<title>Fire_Control_3_4x_Size_3_4x_Tr</title>
<path fill="#d4edda" stroke="black" d="M7168.75,-36C7168.75,-36 6988.5,-36 6988.5,-36 6982.5,-36 6976.5,-30 6976.5,-24 6976.5,-24 6976.5,-12 6976.5,-12 6976.5,-6 6982.5,0 6988.5,0 6988.5,0 7168.75,0 7168.75,0 7174.75,0 7180.75,-6 7180.75,-12 7180.75,-12 7180.75,-24 7180.75,-24 7180.75,-30 7174.75,-36 7168.75,-36"/>
<text xml:space="preserve" text-anchor="middle" x="7078.62" y="-19.75" font-family="Helvetica,sans-Serif" font-size="10.00">Fire Control 3.4x Size 3.4x Tracking Speed</text>
<text xml:space="preserve" text-anchor="middle" x="7078.62" y="-8.5" font-family="Helvetica,sans-Serif" font-size="10.00">33 RP</text>
</g>
<!-- Fire_Control_3_5x_Size_3_5x_Tr -->
<g id="node33" class="node">
<title>Fire_Control_3_5x_Size_3_5x_Tr</title>
<path fill="#d4edda" stroke="black" d="M7394.75,-36C7394.75,-36 7214.5,-36 7214.5,-36 7208.5,-36 7202.5,-30 7202.5,-24 7202.5,-24 7202.5,-12 7202.5,-12 7202.5,-6 7208.5,0 7214.5,0 7214.5,0 7394.75,0 7394.75,0 7400.75,0 7406.75,-6 7406.75,-12 7406.75,-12 7406.75,-24 7406.75,-24 7406.75,-30 7400.75,-36 7394.75,-36"/>
<text xml:space="preserve" text-anchor="middle" x="7304.62" y="-19.75" font-family="Helvetica,sans-Serif" font-size="10.00">Fire Control 3.5x Size 3.5x Tracking Speed</text>
<text xml:space="preserve" text-anchor="middle" x="7304.62" y="-8.5" font-family="Helvetica,sans-Serif" font-size="10.00">34 RP</text>
</g>
<!-- Fire_Control_3_6x_Size_3_6x_Tr -->
<g id="node34" class="node">
<title>Fire_Control_3_6x_Size_3_6x_Tr</title>
<path fill="#d4edda" stroke="black" d="M7620.75,-36C7620.75,-36 7440.5,-36 7440.5,-36 7434.5,-36 7428.5,-30 7428.5,-24 7428.5,-24 7428.5,-12 7428.5,-12 7428.5,-6 7434.5,0 7440.5,0 7440.5,0 7620.75,0 7620.75,0 7626.75,0 7632.75,-6 7632.75,-12 7632.75,-12 7632.75,-24 7632.75,-24 7632.75,-30 7626.75,-36 7620.75,-36"/>
<text xml:space="preserve" text-anchor="middle" x="7530.62" y="-19.75" font-family="Helvetica,sans-Serif" font-size="10.00">Fire Control 3.6x Size 3.6x Tracking Speed</text>
<text xml:space="preserve" text-anchor="middle" x="7530.62" y="-8.5" font-family="Helvetica,sans-Serif" font-size="10.00">35 RP</text>
</g>
<!-- Fire_Control_3_7x_Size_3_7x_Tr -->
<g id="node35" class="node">
<title>Fire_Control_3_7x_Size_3_7x_Tr</title>
<path fill="#d4edda" stroke="black" d="M7846.75,-36C7846.75,-36 7666.5,-36 7666.5,-36 7660.5,-36 7654.5,-30 7654.5,-24 7654.5,-24 7654.5,-12 7654.5,-12 7654.5,-6 7660.5,0 7666.5,0 7666.5,0 7846.75,0 7846.75,0 7852.75,0 7858.75,-6 7858.75,-12 7858.75,-12 7858.75,-24 7858.75,-24 7858.75,-30 7852.75,-36 7846.75,-36"/>
<text xml:space="preserve" text-anchor="middle" x="7756.62" y="-19.75" font-family="Helvetica,sans-Serif" font-size="10.00">Fire Control 3.7x Size 3.7x Tracking Speed</text>
<text xml:space="preserve" text-anchor="middle" x="7756.62" y="-8.5" font-family="Helvetica,sans-Serif" font-size="10.00">36 RP</text>
</g>
<!-- Fire_Control_3_8x_Size_3_8x_Tr -->
<g id="node36" class="node">
<title>Fire_Control_3_8x_Size_3_8x_Tr</title>
<path fill="#d4edda" stroke="black" d="M8072.75,-36C8072.75,-36 7892.5,-36 7892.5,-36 7886.5,-36 7880.5,-30 7880.5,-24 7880.5,-24 7880.5,-12 7880.5,-12 7880.5,-6 7886.5,0 7892.5,0 7892.5,0 8072.75,0 8072.75,0 8078.75,0 8084.75,-6 8084.75,-12 8084.75,-12 8084.75,-24 8084.75,-24 8084.75,-30 8078.75,-36 8072.75,-36"/>
<text xml:space="preserve" text-anchor="middle" x="7982.62" y="-19.75" font-family="Helvetica,sans-Serif" font-size="10.00">Fire Control 3.8x Size 3.8x Tracking Speed</text>
<text xml:space="preserve" text-anchor="middle" x="7982.62" y="-8.5" font-family="Helvetica,sans-Serif" font-size="10.00">37 RP</text>
</g>
<!-- Fire_Control_3_9x_Size_3_9x_Tr -->
<g id="node37" class="node">
<title>Fire_Control_3_9x_Size_3_9x_Tr</title>
<path fill="#d4edda" stroke="black" d="M8298.75,-36C8298.75,-36 8118.5,-36 8118.5,-36 8112.5,-36 8106.5,-30 8106.5,-24 8106.5,-24 8106.5,-12 8106.5,-12 8106.5,-6 8112.5,0 8118.5,0 8118.5,0 8298.75,0 8298.75,0 8304.75,0 8310.75,-6 8310.75,-12 8310.75,-12 8310.75,-24 8310.75,-24 8310.75,-30 8304.75,-36 8298.75,-36"/>
<text xml:space="preserve" text-anchor="middle" x="8208.62" y="-19.75" font-family="Helvetica,sans-Serif" font-size="10.00">Fire Control 3.9x Size 3.9x Tracking Speed</text>
<text xml:space="preserve" text-anchor="middle" x="8208.62" y="-8.5" font-family="Helvetica,sans-Serif" font-size="10.00">38 RP</text>
</g>
<!-- Fire_Control_4x_Size_4x_Tracki -->
<g id="node38" class="node">
<title>Fire_Control_4x_Size_4x_Tracki</title>
<path fill="#d4edda" stroke="black" d="M8508.5,-36C8508.5,-36 8344.75,-36 8344.75,-36 8338.75,-36 8332.75,-30 8332.75,-24 8332.75,-24 8332.75,-12 8332.75,-12 8332.75,-6 8338.75,0 8344.75,0 8344.75,0 8508.5,0 8508.5,0 8514.5,0 8520.5,-6 8520.5,-12 8520.5,-12 8520.5,-24 8520.5,-24 8520.5,-30 8514.5,-36 8508.5,-36"/>
<text xml:space="preserve" text-anchor="middle" x="8426.62" y="-19.75" font-family="Helvetica,sans-Serif" font-size="10.00">Fire Control 4x Size 4x Tracking Speed</text>
<text xml:space="preserve" text-anchor="middle" x="8426.62" y="-8.5" font-family="Helvetica,sans-Serif" font-size="10.00">39 RP</text>
</g>
</g>
</svg>
