<?xml version="1.0" encoding="UTF-8" standalone="no"?>
<!DOCTYPE svg PUBLIC "-//W3C//DTD SVG 1.1//EN"
 "http://www.w3.org/Graphics/SVG/1.1/DTD/svg11.dtd">
<!-- Generated by graphviz version 14.1.2 (20260124.0452)
 -->
<!-- Title: TechTree Pages: 1 -->
<svg width="185pt" height="929pt"
 viewBox="0.00 0.00 185.00 929.00" xmlns="http://www.w3.org/2000/svg" xmlns:xlink="http://www.w3.org/1999/xlink">
<g id="graph0" class="graph" transform="scale(1 1) rotate(0) translate(4 924.75)">
<title>TechTree</title>
<polygon fill="white" stroke="none" points="-4,4 -4,-924.75 181.25,-924.75 181.25,4 -4,4"/>
<text xml:space="preserve" text-anchor="middle" x="88.62" y="-905.35" font-family="Helvetica,sans-Serif" font-weight="bold" font-size="12.00">Fire Control Distance Rating</text>
<!-- Fire_Control_Range_20_000_km -->
<g id="node1" class="node">
<title>Fire_Control_Range_20_000_km</title>
<path fill="#cce5ff" stroke="black" d="M146.12,-828C146.12,-828 31.13,-828 31.13,-828 25.12,-828 19.12,-822 19.12,-816 19.12,-816 19.12,-804 19.12,-804 19.12,-798 25.12,-792 31.12,-792 31.12,-792 146.12,-792 146.12,-792 152.12,-792 158.12,-798 158.12,-804 158.12,-804 158.12,-816 158.12,-816 158.12,-822 152.12,-828 146.12,-828"/>
<text xml:space="preserve" text-anchor="middle" x="88.62" y="-811.2" font-family="Helvetica,sans-Serif" font-size="9.00">Fire Control Range 20,000 km</text>
<text xml:space="preserve" text-anchor="middle" x="88.62" y="-801.45" font-family="Helvetica,sans-Serif" font-size="9.00">1K RP</text>
</g>
<!-- Fire_Control_Range_32_000_km -->
<g id="node2" class="node">
<title>Fire_Control_Range_32_000_km</title>
<path fill="#cce5ff" stroke="black" d="M146.12,-756C146.12,-756 31.13,-756 31.13,-756 25.12,-756 19.12,-750 19.12,-744 19.12,-744 19.12,-732 19.12,-732 19.12,-726 25.12,-720 31.12,-720 31.12,-720 146.12,-720 146.12,-720 152.12,-720 158.12,-726 158.12,-732 158.12,-732 158.12,-744 158.12,-744 158.12,-750 152.12,-756 146.12,-756"/>
<text xml:space="preserve" text-anchor="middle" x="88.62" y="-739.2" font-family="Helvetica,sans-Serif" font-size="9.00">Fire Control Range 32,000 km</text>
<text xml:space="preserve" text-anchor="middle" x="88.62" y="-729.45" font-family="Helvetica,sans-Serif" font-size="9.00">2K RP</text>
</g>
<!-- Fire_Control_Range_20_000_km&#45;&gt;Fire_Control_Range_32_000_km -->
<g id="edge2" class="edge">
<title>Fire_Control_Range_20_000_km&#45;&gt;Fire_Control_Range_32_000_km</title>
<path fill="none" stroke="black" d="M88.62,-791.7C88.62,-783.22 88.62,-772.86 88.62,-763.58"/>
<polygon fill="black" stroke="black" points="90.73,-763.62 88.63,-757.62 86.53,-763.62 90.73,-763.62"/>
</g>
<!-- Fire_Control_Range_48_000_km -->
<g id="node3" class="node">
<title>Fire_Control_Range_48_000_km</title>
<path fill="#cce5ff" stroke="black" d="M146.12,-684C146.12,-684 31.13,-684 31.13,-684 25.12,-684 19.12,-678 19.12,-672 19.12,-672 19.12,-660 19.12,-660 19.12,-654 25.12,-648 31.12,-648 31.12,-648 146.12,-648 146.12,-648 152.12,-648 158.12,-654 158.12,-660 158.12,-660 158.12,-672 158.12,-672 158.12,-678 152.12,-684 146.12,-684"/>
<text xml:space="preserve" text-anchor="middle" x="88.62" y="-667.2" font-family="Helvetica,sans-Serif" font-size="9.00">Fire Control Range 48,000 km</text>
<text xml:space="preserve" text-anchor="middle" x="88.62" y="-657.45" font-family="Helvetica,sans-Serif" font-size="9.00">4K RP</text>
</g>
<!-- Fire_Control_Range_32_000_km&#45;&gt;Fire_Control_Range_48_000_km -->
<g id="edge3" class="edge">
<title>Fire_Control_Range_32_000_km&#45;&gt;Fire_Control_Range_48_000_km</title>
<path fill="none" stroke="black" d="M88.62,-719.7C88.62,-711.22 88.62,-700.86 88.62,-691.58"/>
<polygon fill="black" stroke="black" points="90.73,-691.62 88.63,-685.62 86.53,-691.62 90.73,-691.62"/>
</g>
<!-- Fire_Control_Range_64_000_km -->
<g id="node4" class="node">
<title>Fire_Control_Range_64_000_km</title>
<path fill="#cce5ff" stroke="black" d="M146.12,-612C146.12,-612 31.13,-612 31.13,-612 25.12,-612 19.12,-606 19.12,-600 19.12,-600 19.12,-588 19.12,-588 19.12,-582 25.12,-576 31.12,-576 31.12,-576 146.12,-576 146.12,-576 152.12,-576 158.12,-582 158.12,-588 158.12,-588 158.12,-600 158.12,-600 158.12,-606 152.12,-612 146.12,-612"/>
<text xml:space="preserve" text-anchor="middle" x="88.62" y="-595.2" font-family="Helvetica,sans-Serif" font-size="9.00">Fire Control Range 64,000 km</text>
<text xml:space="preserve" text-anchor="middle" x="88.62" y="-585.45" font-family="Helvetica,sans-Serif" font-size="9.00">8K RP</text>
</g>
<!-- Fire_Control_Range_48_000_km&#45;&gt;Fire_Control_Range_64_000_km -->
<g id="edge4" class="edge">
<title>Fire_Control_Range_48_000_km&#45;&gt;Fire_Control_Range_64_000_km</title>
<path fill="none" stroke="black" d="M88.62,-647.7C88.62,-639.22 88.62,-628.86 88.62,-619.58"/>
<polygon fill="black" stroke="black" points="90.73,-619.62 88.63,-613.62 86.53,-619.62 90.73,-619.62"/>
</g>
<!-- Fire_Control_Range_80_000_km -->
<g id="node5" class="node">
<title>Fire_Control_Range_80_000_km</title>
<path fill="#fff3cd" stroke="black" d="M146.12,-540C146.12,-540 31.13,-540 31.13,-540 25.12,-540 19.12,-534 19.12,-528 19.12,-528 19.12,-516 19.12,-516 19.12,-510 25.12,-504 31.12,-504 31.12,-504 146.12,-504 146.12,-504 152.12,-504 158.12,-510 158.12,-516 158.12,-516 158.12,-528 158.12,-528 158.12,-534 152.12,-540 146.12,-540"/>
<text xml:space="preserve" text-anchor="middle" x="88.62" y="-523.2" font-family="Helvetica,sans-Serif" font-size="9.00">Fire Control Range 80,000 km</text>
<text xml:space="preserve" text-anchor="middle" x="88.62" y="-513.45" font-family="Helvetica,sans-Serif" font-size="9.00">16K RP</text>
</g>
<!-- Fire_Control_Range_64_000_km&#45;&gt;Fire_Control_Range_80_000_km -->
<g id="edge5" class="edge">
<title>Fire_Control_Range_64_000_km&#45;&gt;Fire_Control_Range_80_000_km</title>
<path fill="none" stroke="black" d="M88.62,-575.7C88.62,-567.22 88.62,-556.86 88.62,-547.58"/>
<polygon fill="black" stroke="black" points="90.73,-547.62 88.63,-541.62 86.53,-547.62 90.73,-547.62"/>
</g>
<!-- Fire_Control_Range_96_000_km -->
<g id="node6" class="node">
<title>Fire_Control_Range_96_000_km</title>
<path fill="#fff3cd" stroke="black" d="M146.12,-468C146.12,-468 31.13,-468 31.13,-468 25.12,-468 19.12,-462 19.12,-456 19.12,-456 19.12,-444 19.12,-444 19.12,-438 25.12,-432 31.12,-432 31.12,-432 146.12,-432 146.12,-432 152.12,-432 158.12,-438 158.12,-444 158.12,-444 158.12,-456 158.12,-456 158.12,-462 152.12,-468 146.12,-468"/>
<text xml:space="preserve" text-anchor="middle" x="88.62" y="-451.2" font-family="Helvetica,sans-Serif" font-size="9.00">Fire Control Range 96,000 km</text>
<text xml:space="preserve" text-anchor="middle" x="88.62" y="-441.45" font-family="Helvetica,sans-Serif" font-size="9.00">30K RP</text>
</g>
<!-- Fire_Control_Range_80_000_km&#45;&gt;Fire_Control_Range_96_000_km -->
<g id="edge6" class="edge">
<title>Fire_Control_Range_80_000_km&#45;&gt;Fire_Control_Range_96_000_km</title>
<path fill="none" stroke="black" d="M88.62,-503.7C88.62,-495.22 88.62,-484.86 88.62,-475.58"/>
<polygon fill="black" stroke="black" points="90.73,-475.62 88.63,-469.62 86.53,-475.62 90.73,-475.62"/>
</g>
<!-- Fire_Control_Range_120_000_km -->
<g id="node7" class="node">
<title>Fire_Control_Range_120_000_km</title>
<path fill="#fff3cd" stroke="black" d="M148.75,-396C148.75,-396 28.5,-396 28.5,-396 22.5,-396 16.5,-390 16.5,-384 16.5,-384 16.5,-372 16.5,-372 16.5,-366 22.5,-360 28.5,-360 28.5,-360 148.75,-360 148.75,-360 154.75,-360 160.75,-366 160.75,-372 160.75,-372 160.75,-384 160.75,-384 160.75,-390 154.75,-396 148.75,-396"/>
<text xml:space="preserve" text-anchor="middle" x="88.62" y="-379.2" font-family="Helvetica,sans-Serif" font-size="9.00">Fire Control Range 120,000 km</text>
<text xml:space="preserve" text-anchor="middle" x="88.62" y="-369.45" font-family="Helvetica,sans-Serif" font-size="9.00">60K RP</text>
</g>
<!-- Fire_Control_Range_96_000_km&#45;&gt;Fire_Control_Range_120_000_km -->
<g id="edge7" class="edge">
<title>Fire_Control_Range_96_000_km&#45;&gt;Fire_Control_Range_120_000_km</title>
<path fill="none" stroke="black" d="M88.62,-431.7C88.62,-423.22 88.62,-412.86 88.62,-403.58"/>
<polygon fill="black" stroke="black" points="90.73,-403.62 88.63,-397.62 86.53,-403.62 90.73,-403.62"/>
</g>
<!-- Fire_Control_Range_150_000_km -->
<g id="node8" class="node">
<title>Fire_Control_Range_150_000_km</title>
<path fill="#d4c4fb" stroke="black" d="M148.75,-324C148.75,-324 28.5,-324 28.5,-324 22.5,-324 16.5,-318 16.5,-312 16.5,-312 16.5,-300 16.5,-300 16.5,-294 22.5,-288 28.5,-288 28.5,-288 148.75,-288 148.75,-288 154.75,-288 160.75,-294 160.75,-300 160.75,-300 160.75,-312 160.75,-312 160.75,-318 154.75,-324 148.75,-324"/>
<text xml:space="preserve" text-anchor="middle" x="88.62" y="-307.2" font-family="Helvetica,sans-Serif" font-size="9.00">Fire Control Range 150,000 km</text>
<text xml:space="preserve" text-anchor="middle" x="88.62" y="-297.45" font-family="Helvetica,sans-Serif" font-size="9.00">125K RP</text>
</g>
<!-- Fire_Control_Range_120_000_km&#45;&gt;Fire_Control_Range_150_000_km -->
<g id="edge8" class="edge">
<title>Fire_Control_Range_120_000_km&#45;&gt;Fire_Control_Range_150_000_km</title>
<path fill="none" stroke="black" d="M88.62,-359.7C88.62,-351.22 88.62,-340.86 88.62,-331.58"/>
<polygon fill="black" stroke="black" points="90.73,-331.62 88.63,-325.62 86.53,-331.62 90.73,-331.62"/>
</g>
<!-- Fire_Control_Range_200_000_km -->
<g id="node9" class="node">
<title>Fire_Control_Range_200_000_km</title>
<path fill="#d4c4fb" stroke="black" d="M148.75,-252C148.75,-252 28.5,-252 28.5,-252 22.5,-252 16.5,-246 16.5,-240 16.5,-240 16.5,-228 16.5,-228 16.5,-222 22.5,-216 28.5,-216 28.5,-216 148.75,-216 148.75,-216 154.75,-216 160.75,-222 160.75,-228 160.75,-228 160.75,-240 160.75,-240 160.75,-246 154.75,-252 148.75,-252"/>
<text xml:space="preserve" text-anchor="middle" x="88.62" y="-235.2" font-family="Helvetica,sans-Serif" font-size="9.00">Fire Control Range 200,000 km</text>
<text xml:space="preserve" text-anchor="middle" x="88.62" y="-225.45" font-family="Helvetica,sans-Serif" font-size="9.00">250K RP</text>
</g>
<!-- Fire_Control_Range_150_000_km&#45;&gt;Fire_Control_Range_200_000_km -->
<g id="edge9" class="edge">
<title>Fire_Control_Range_150_000_km&#45;&gt;Fire_Control_Range_200_000_km</title>
<path fill="none" stroke="black" d="M88.62,-287.7C88.62,-279.22 88.62,-268.86 88.62,-259.58"/>
<polygon fill="black" stroke="black" points="90.73,-259.62 88.63,-253.62 86.53,-259.62 90.73,-259.62"/>
</g>
<!-- Fire_Control_Range_250_000_km -->
<g id="node10" class="node">
<title>Fire_Control_Range_250_000_km</title>
<path fill="#d4c4fb" stroke="black" d="M148.75,-180C148.75,-180 28.5,-180 28.5,-180 22.5,-180 16.5,-174 16.5,-168 16.5,-168 16.5,-156 16.5,-156 16.5,-150 22.5,-144 28.5,-144 28.5,-144 148.75,-144 148.75,-144 154.75,-144 160.75,-150 160.75,-156 160.75,-156 160.75,-168 160.75,-168 160.75,-174 154.75,-180 148.75,-180"/>
<text xml:space="preserve" text-anchor="middle" x="88.62" y="-163.2" font-family="Helvetica,sans-Serif" font-size="9.00">Fire Control Range 250,000 km</text>
<text xml:space="preserve" text-anchor="middle" x="88.62" y="-153.45" font-family="Helvetica,sans-Serif" font-size="9.00">500K RP</text>
</g>
<!-- Fire_Control_Range_200_000_km&#45;&gt;Fire_Control_Range_250_000_km -->
<g id="edge10" class="edge">
<title>Fire_Control_Range_200_000_km&#45;&gt;Fire_Control_Range_250_000_km</title>
<path fill="none" stroke="black" d="M88.62,-215.7C88.62,-207.22 88.62,-196.86 88.62,-187.58"/>
<polygon fill="black" stroke="black" points="90.73,-187.62 88.63,-181.62 86.53,-187.62 90.73,-187.62"/>
</g>
<!-- Fire_Control_Range_300_000_km -->
<g id="node11" class="node">
<title>Fire_Control_Range_300_000_km</title>
<path fill="#d4c4fb" stroke="black" d="M148.75,-108C148.75,-108 28.5,-108 28.5,-108 22.5,-108 16.5,-102 16.5,-96 16.5,-96 16.5,-84 16.5,-84 16.5,-78 22.5,-72 28.5,-72 28.5,-72 148.75,-72 148.75,-72 154.75,-72 160.75,-78 160.75,-84 160.75,-84 160.75,-96 160.75,-96 160.75,-102 154.75,-108 148.75,-108"/>
<text xml:space="preserve" text-anchor="middle" x="88.62" y="-91.2" font-family="Helvetica,sans-Serif" font-size="9.00">Fire Control Range 300,000 km</text>
<text xml:space="preserve" text-anchor="middle" x="88.62" y="-81.45" font-family="Helvetica,sans-Serif" font-size="9.00">1.0M RP</text>
</g>
<!-- Fire_Control_Range_250_000_km&#45;&gt;Fire_Control_Range_300_000_km -->
<g id="edge11" class="edge">
<title>Fire_Control_Range_250_000_km&#45;&gt;Fire_Control_Range_300_000_km</title>
<path fill="none" stroke="black" d="M88.62,-143.7C88.62,-135.22 88.62,-124.86 88.62,-115.58"/>
<polygon fill="black" stroke="black" points="90.73,-115.62 88.63,-109.62 86.53,-115.62 90.73,-115.62"/>
</g>
<!-- Fire_Control_Range_350_000_km -->
<g id="node12" class="node">
<title>Fire_Control_Range_350_000_km</title>
<path fill="#f8d7da" stroke="black" d="M148.75,-36C148.75,-36 28.5,-36 28.5,-36 22.5,-36 16.5,-30 16.5,-24 16.5,-24 16.5,-12 16.5,-12 16.5,-6 22.5,0 28.5,0 28.5,0 148.75,0 148.75,0 154.75,0 160.75,-6 160.75,-12 160.75,-12 160.75,-24 160.75,-24 160.75,-30 154.75,-36 148.75,-36"/>
<text xml:space="preserve" text-anchor="middle" x="88.62" y="-19.2" font-family="Helvetica,sans-Serif" font-size="9.00">Fire Control Range 350,000 km</text>
<text xml:space="preserve" text-anchor="middle" x="88.62" y="-9.45" font-family="Helvetica,sans-Serif" font-size="9.00">2.0M RP</text>
</g>
<!-- Fire_Control_Range_300_000_km&#45;&gt;Fire_Control_Range_350_000_km -->
<g id="edge12" class="edge">
<title>Fire_Control_Range_300_000_km&#45;&gt;Fire_Control_Range_350_000_km</title>
<path fill="none" stroke="black" d="M88.62,-71.7C88.62,-63.22 88.62,-52.86 88.62,-43.58"/>
<polygon fill="black" stroke="black" points="90.73,-43.62 88.63,-37.62 86.53,-43.62 90.73,-43.62"/>
</g>
<!-- ext_Trans_Newtonian_Technology -->
<g id="node13" class="node">
<title>ext_Trans_Newtonian_Technology</title>
<path fill="#f0f0f0" stroke="black" stroke-dasharray="5,2" d="M144.62,-900C144.62,-900 32.62,-900 32.62,-900 26.62,-900 20.62,-894 20.62,-888 20.62,-888 20.62,-876 20.62,-876 20.62,-870 26.62,-864 32.62,-864 32.62,-864 144.62,-864 144.62,-864 150.62,-864 156.62,-870 156.62,-876 156.62,-876 156.62,-888 156.62,-888 156.62,-894 150.62,-900 144.62,-900"/>
<text xml:space="preserve" text-anchor="middle" x="88.62" y="-878.33" font-family="Helvetica,sans-Serif" font-size="9.00">Trans&#45;Newtonian Technology</text>
</g>
<!-- ext_Trans_Newtonian_Technology&#45;&gt;Fire_Control_Range_20_000_km -->
<g id="edge1" class="edge">
<title>ext_Trans_Newtonian_Technology&#45;&gt;Fire_Control_Range_20_000_km</title>
<path fill="none" stroke="black" d="M88.62,-863.7C88.62,-855.22 88.62,-844.86 88.62,-835.58"/>
<polygon fill="black" stroke="black" points="90.73,-835.62 88.63,-829.62 86.53,-835.62 90.73,-835.62"/>
</g>
</g>
</svg>
