<?xml version="1.0" encoding="UTF-8" standalone="no"?>
<!DOCTYPE svg PUBLIC "-//W3C//DTD SVG 1.1//EN"
 "http://www.w3.org/Graphics/SVG/1.1/DTD/svg11.dtd">
<!-- Generated by graphviz version 14.1.2 (20260124.0452)
 -->
<!-- Title: TechTree Pages: 1 -->
<svg width="140pt" height="785pt"
 viewBox="0.00 0.00 140.00 785.00" xmlns="http://www.w3.org/2000/svg" xmlns:xlink="http://www.w3.org/1999/xlink">
<g id="graph0" class="graph" transform="scale(1 1) rotate(0) translate(4 780.75)">
<title>TechTree</title>
<polygon fill="white" stroke="none" points="-4,4 -4,-780.75 136.25,-780.75 136.25,4 -4,4"/>
<text xml:space="preserve" text-anchor="middle" x="66.12" y="-761.35" font-family="Helvetica,sans-Serif" font-weight="bold" font-size="12.00">Fire Control Jammer</text>
<!-- Fire_Control_Jammer_1 -->
<g id="node1" class="node">
<title>Fire_Control_Jammer_1</title>
<path fill="#cce5ff" stroke="black" d="M107.5,-684C107.5,-684 24.75,-684 24.75,-684 18.75,-684 12.75,-678 12.75,-672 12.75,-672 12.75,-660 12.75,-660 12.75,-654 18.75,-648 24.75,-648 24.75,-648 107.5,-648 107.5,-648 113.5,-648 119.5,-654 119.5,-660 119.5,-660 119.5,-672 119.5,-672 119.5,-678 113.5,-684 107.5,-684"/>
<text xml:space="preserve" text-anchor="middle" x="66.12" y="-667.2" font-family="Helvetica,sans-Serif" font-size="9.00">Fire Control Jammer 1</text>
<text xml:space="preserve" text-anchor="middle" x="66.12" y="-657.45" font-family="Helvetica,sans-Serif" font-size="9.00">2K RP</text>
</g>
<!-- Fire_Control_Jammer_2 -->
<g id="node2" class="node">
<title>Fire_Control_Jammer_2</title>
<path fill="#cce5ff" stroke="black" d="M107.5,-612C107.5,-612 24.75,-612 24.75,-612 18.75,-612 12.75,-606 12.75,-600 12.75,-600 12.75,-588 12.75,-588 12.75,-582 18.75,-576 24.75,-576 24.75,-576 107.5,-576 107.5,-576 113.5,-576 119.5,-582 119.5,-588 119.5,-588 119.5,-600 119.5,-600 119.5,-606 113.5,-612 107.5,-612"/>
<text xml:space="preserve" text-anchor="middle" x="66.12" y="-595.2" font-family="Helvetica,sans-Serif" font-size="9.00">Fire Control Jammer 2</text>
<text xml:space="preserve" text-anchor="middle" x="66.12" y="-585.45" font-family="Helvetica,sans-Serif" font-size="9.00">5K RP</text>
</g>
<!-- Fire_Control_Jammer_1&#45;&gt;Fire_Control_Jammer_2 -->
<g id="edge2" class="edge">
<title>Fire_Control_Jammer_1&#45;&gt;Fire_Control_Jammer_2</title>
<path fill="none" stroke="black" d="M66.12,-647.7C66.12,-639.22 66.12,-628.86 66.12,-619.58"/>
<polygon fill="black" stroke="black" points="68.23,-619.62 66.13,-613.62 64.03,-619.62 68.23,-619.62"/>
</g>
<!-- Fire_Control_Jammer_3 -->
<g id="node3" class="node">
<title>Fire_Control_Jammer_3</title>
<path fill="#cce5ff" stroke="black" d="M107.5,-540C107.5,-540 24.75,-540 24.75,-540 18.75,-540 12.75,-534 12.75,-528 12.75,-528 12.75,-516 12.75,-516 12.75,-510 18.75,-504 24.75,-504 24.75,-504 107.5,-504 107.5,-504 113.5,-504 119.5,-510 119.5,-516 119.5,-516 119.5,-528 119.5,-528 119.5,-534 113.5,-540 107.5,-540"/>
<text xml:space="preserve" text-anchor="middle" x="66.12" y="-523.2" font-family="Helvetica,sans-Serif" font-size="9.00">Fire Control Jammer 3</text>
<text xml:space="preserve" text-anchor="middle" x="66.12" y="-513.45" font-family="Helvetica,sans-Serif" font-size="9.00">10K RP</text>
</g>
<!-- Fire_Control_Jammer_2&#45;&gt;Fire_Control_Jammer_3 -->
<g id="edge3" class="edge">
<title>Fire_Control_Jammer_2&#45;&gt;Fire_Control_Jammer_3</title>
<path fill="none" stroke="black" d="M66.12,-575.7C66.12,-567.22 66.12,-556.86 66.12,-547.58"/>
<polygon fill="black" stroke="black" points="68.23,-547.62 66.13,-541.62 64.03,-547.62 68.23,-547.62"/>
</g>
<!-- Fire_Control_Jammer_4 -->
<g id="node4" class="node">
<title>Fire_Control_Jammer_4</title>
<path fill="#fff3cd" stroke="black" d="M107.5,-468C107.5,-468 24.75,-468 24.75,-468 18.75,-468 12.75,-462 12.75,-456 12.75,-456 12.75,-444 12.75,-444 12.75,-438 18.75,-432 24.75,-432 24.75,-432 107.5,-432 107.5,-432 113.5,-432 119.5,-438 119.5,-444 119.5,-444 119.5,-456 119.5,-456 119.5,-462 113.5,-468 107.5,-468"/>
<text xml:space="preserve" text-anchor="middle" x="66.12" y="-451.2" font-family="Helvetica,sans-Serif" font-size="9.00">Fire Control Jammer 4</text>
<text xml:space="preserve" text-anchor="middle" x="66.12" y="-441.45" font-family="Helvetica,sans-Serif" font-size="9.00">20K RP</text>
</g>
<!-- Fire_Control_Jammer_3&#45;&gt;Fire_Control_Jammer_4 -->
<g id="edge4" class="edge">
<title>Fire_Control_Jammer_3&#45;&gt;Fire_Control_Jammer_4</title>
<path fill="none" stroke="black" d="M66.12,-503.7C66.12,-495.22 66.12,-484.86 66.12,-475.58"/>
<polygon fill="black" stroke="black" points="68.23,-475.62 66.13,-469.62 64.03,-475.62 68.23,-475.62"/>
</g>
<!-- Fire_Control_Jammer_5 -->
<g id="node5" class="node">
<title>Fire_Control_Jammer_5</title>
<path fill="#fff3cd" stroke="black" d="M107.5,-396C107.5,-396 24.75,-396 24.75,-396 18.75,-396 12.75,-390 12.75,-384 12.75,-384 12.75,-372 12.75,-372 12.75,-366 18.75,-360 24.75,-360 24.75,-360 107.5,-360 107.5,-360 113.5,-360 119.5,-366 119.5,-372 119.5,-372 119.5,-384 119.5,-384 119.5,-390 113.5,-396 107.5,-396"/>
<text xml:space="preserve" text-anchor="middle" x="66.12" y="-379.2" font-family="Helvetica,sans-Serif" font-size="9.00">Fire Control Jammer 5</text>
<text xml:space="preserve" text-anchor="middle" x="66.12" y="-369.45" font-family="Helvetica,sans-Serif" font-size="9.00">40K RP</text>
</g>
<!-- Fire_Control_Jammer_4&#45;&gt;Fire_Control_Jammer_5 -->
<g id="edge5" class="edge">
<title>Fire_Control_Jammer_4&#45;&gt;Fire_Control_Jammer_5</title>
<path fill="none" stroke="black" d="M66.12,-431.7C66.12,-423.22 66.12,-412.86 66.12,-403.58"/>
<polygon fill="black" stroke="black" points="68.23,-403.62 66.13,-397.62 64.03,-403.62 68.23,-403.62"/>
</g>
<!-- Fire_Control_Jammer_6 -->
<g id="node6" class="node">
<title>Fire_Control_Jammer_6</title>
<path fill="#fff3cd" stroke="black" d="M107.5,-324C107.5,-324 24.75,-324 24.75,-324 18.75,-324 12.75,-318 12.75,-312 12.75,-312 12.75,-300 12.75,-300 12.75,-294 18.75,-288 24.75,-288 24.75,-288 107.5,-288 107.5,-288 113.5,-288 119.5,-294 119.5,-300 119.5,-300 119.5,-312 119.5,-312 119.5,-318 113.5,-324 107.5,-324"/>
<text xml:space="preserve" text-anchor="middle" x="66.12" y="-307.2" font-family="Helvetica,sans-Serif" font-size="9.00">Fire Control Jammer 6</text>
<text xml:space="preserve" text-anchor="middle" x="66.12" y="-297.45" font-family="Helvetica,sans-Serif" font-size="9.00">80K RP</text>
</g>
<!-- Fire_Control_Jammer_5&#45;&gt;Fire_Control_Jammer_6 -->
<g id="edge6" class="edge">
<title>Fire_Control_Jammer_5&#45;&gt;Fire_Control_Jammer_6</title>
<path fill="none" stroke="black" d="M66.12,-359.7C66.12,-351.22 66.12,-340.86 66.12,-331.58"/>
<polygon fill="black" stroke="black" points="68.23,-331.62 66.13,-325.62 64.03,-331.62 68.23,-331.62"/>
</g>
<!-- Fire_Control_Jammer_7 -->
<g id="node7" class="node">
<title>Fire_Control_Jammer_7</title>
<path fill="#d4c4fb" stroke="black" d="M107.5,-252C107.5,-252 24.75,-252 24.75,-252 18.75,-252 12.75,-246 12.75,-240 12.75,-240 12.75,-228 12.75,-228 12.75,-222 18.75,-216 24.75,-216 24.75,-216 107.5,-216 107.5,-216 113.5,-216 119.5,-222 119.5,-228 119.5,-228 119.5,-240 119.5,-240 119.5,-246 113.5,-252 107.5,-252"/>
<text xml:space="preserve" text-anchor="middle" x="66.12" y="-235.2" font-family="Helvetica,sans-Serif" font-size="9.00">Fire Control Jammer 7</text>
<text xml:space="preserve" text-anchor="middle" x="66.12" y="-225.45" font-family="Helvetica,sans-Serif" font-size="9.00">150K RP</text>
</g>
<!-- Fire_Control_Jammer_6&#45;&gt;Fire_Control_Jammer_7 -->
<g id="edge7" class="edge">
<title>Fire_Control_Jammer_6&#45;&gt;Fire_Control_Jammer_7</title>
<path fill="none" stroke="black" d="M66.12,-287.7C66.12,-279.22 66.12,-268.86 66.12,-259.58"/>
<polygon fill="black" stroke="black" points="68.23,-259.62 66.13,-253.62 64.03,-259.62 68.23,-259.62"/>
</g>
<!-- Fire_Control_Jammer_8 -->
<g id="node8" class="node">
<title>Fire_Control_Jammer_8</title>
<path fill="#d4c4fb" stroke="black" d="M107.5,-180C107.5,-180 24.75,-180 24.75,-180 18.75,-180 12.75,-174 12.75,-168 12.75,-168 12.75,-156 12.75,-156 12.75,-150 18.75,-144 24.75,-144 24.75,-144 107.5,-144 107.5,-144 113.5,-144 119.5,-150 119.5,-156 119.5,-156 119.5,-168 119.5,-168 119.5,-174 113.5,-180 107.5,-180"/>
<text xml:space="preserve" text-anchor="middle" x="66.12" y="-163.2" font-family="Helvetica,sans-Serif" font-size="9.00">Fire Control Jammer 8</text>
<text xml:space="preserve" text-anchor="middle" x="66.12" y="-153.45" font-family="Helvetica,sans-Serif" font-size="9.00">300K RP</text>
</g>
<!-- Fire_Control_Jammer_7&#45;&gt;Fire_Control_Jammer_8 -->
<g id="edge8" class="edge">
<title>Fire_Control_Jammer_7&#45;&gt;Fire_Control_Jammer_8</title>
<path fill="none" stroke="black" d="M66.12,-215.7C66.12,-207.22 66.12,-196.86 66.12,-187.58"/>
<polygon fill="black" stroke="black" points="68.23,-187.62 66.13,-181.62 64.03,-187.62 68.23,-187.62"/>
</g>
<!-- Fire_Control_Jammer_9 -->
<g id="node9" class="node">
<title>Fire_Control_Jammer_9</title>
<path fill="#d4c4fb" stroke="black" d="M107.5,-108C107.5,-108 24.75,-108 24.75,-108 18.75,-108 12.75,-102 12.75,-96 12.75,-96 12.75,-84 12.75,-84 12.75,-78 18.75,-72 24.75,-72 24.75,-72 107.5,-72 107.5,-72 113.5,-72 119.5,-78 119.5,-84 119.5,-84 119.5,-96 119.5,-96 119.5,-102 113.5,-108 107.5,-108"/>
<text xml:space="preserve" text-anchor="middle" x="66.12" y="-91.2" font-family="Helvetica,sans-Serif" font-size="9.00">Fire Control Jammer 9</text>
<text xml:space="preserve" text-anchor="middle" x="66.12" y="-81.45" font-family="Helvetica,sans-Serif" font-size="9.00">600K RP</text>
</g>
<!-- Fire_Control_Jammer_8&#45;&gt;Fire_Control_Jammer_9 -->
<g id="edge9" class="edge">
<title>Fire_Control_Jammer_8&#45;&gt;Fire_Control_Jammer_9</title>
<path fill="none" stroke="black" d="M66.12,-143.7C66.12,-135.22 66.12,-124.86 66.12,-115.58"/>
<polygon fill="black" stroke="black" points="68.23,-115.62 66.13,-109.62 64.03,-115.62 68.23,-115.62"/>
</g>
<!-- Fire_Control_Jammer_10 -->
<g id="node10" class="node">
<title>Fire_Control_Jammer_10</title>
<path fill="#f8d7da" stroke="black" d="M110.12,-36C110.12,-36 22.12,-36 22.12,-36 16.13,-36 10.13,-30 10.13,-24 10.13,-24 10.13,-12 10.13,-12 10.13,-6 16.13,0 22.13,0 22.13,0 110.13,0 110.13,0 116.12,0 122.12,-6 122.12,-12 122.12,-12 122.12,-24 122.12,-24 122.12,-30 116.12,-36 110.12,-36"/>
<text xml:space="preserve" text-anchor="middle" x="66.12" y="-19.2" font-family="Helvetica,sans-Serif" font-size="9.00">Fire Control Jammer 10</text>
<text xml:space="preserve" text-anchor="middle" x="66.12" y="-9.45" font-family="Helvetica,sans-Serif" font-size="9.00">1.2M RP</text>
</g>
<!-- Fire_Control_Jammer_9&#45;&gt;Fire_Control_Jammer_10 -->
<g id="edge10" class="edge">
<title>Fire_Control_Jammer_9&#45;&gt;Fire_Control_Jammer_10</title>
<path fill="none" stroke="black" d="M66.12,-71.7C66.12,-63.22 66.12,-52.86 66.12,-43.58"/>
<polygon fill="black" stroke="black" points="68.23,-43.62 66.13,-37.62 64.03,-43.62 68.23,-43.62"/>
</g>
<!-- ext_Electronic_Warfare -->
<g id="node11" class="node">
<title>ext_Electronic_Warfare</title>
<path fill="#f0f0f0" stroke="black" stroke-dasharray="5,2" d="M99.25,-756C99.25,-756 33,-756 33,-756 27,-756 21,-750 21,-744 21,-744 21,-732 21,-732 21,-726 27,-720 33,-720 33,-720 99.25,-720 99.25,-720 105.25,-720 111.25,-726 111.25,-732 111.25,-732 111.25,-744 111.25,-744 111.25,-750 105.25,-756 99.25,-756"/>
<text xml:space="preserve" text-anchor="middle" x="66.12" y="-734.33" font-family="Helvetica,sans-Serif" font-size="9.00">Electronic Warfare</text>
</g>
<!-- ext_Electronic_Warfare&#45;&gt;Fire_Control_Jammer_1 -->
<g id="edge1" class="edge">
<title>ext_Electronic_Warfare&#45;&gt;Fire_Control_Jammer_1</title>
<path fill="none" stroke="black" d="M66.12,-719.7C66.12,-711.22 66.12,-700.86 66.12,-691.58"/>
<polygon fill="black" stroke="black" points="68.23,-691.62 66.13,-685.62 64.03,-691.62 68.23,-691.62"/>
</g>
</g>
</svg>
