<?xml version="1.0" encoding="UTF-8" standalone="no"?>
<!DOCTYPE svg PUBLIC "-//W3C//DTD SVG 1.1//EN"
 "http://www.w3.org/Graphics/SVG/1.1/DTD/svg11.dtd">
<!-- Generated by graphviz version 14.1.2 (20260124.0452)
 -->
<!-- Title: TechTree Pages: 1 -->
<svg width="206pt" height="782pt"
 viewBox="0.00 0.00 206.00 782.00" xmlns="http://www.w3.org/2000/svg" xmlns:xlink="http://www.w3.org/1999/xlink">
<g id="graph0" class="graph" transform="scale(1 1) rotate(0) translate(4 778)">
<title>TechTree</title>
<polygon fill="white" stroke="none" points="-4,4 -4,-778 202.25,-778 202.25,4 -4,4"/>
<text xml:space="preserve" text-anchor="middle" x="99.12" y="-756.7" font-family="Helvetica,sans-Serif" font-weight="bold" font-size="14.00">Fire Control Distance Rating</text>
<!-- Fire_Control_Range_20_000_km -->
<g id="node1" class="node">
<title>Fire_Control_Range_20_000_km</title>
<path fill="#cce5ff" stroke="black" d="M160.75,-751C160.75,-751 37.5,-751 37.5,-751 31.5,-751 25.5,-745 25.5,-739 25.5,-739 25.5,-727 25.5,-727 25.5,-721 31.5,-715 37.5,-715 37.5,-715 160.75,-715 160.75,-715 166.75,-715 172.75,-721 172.75,-727 172.75,-727 172.75,-739 172.75,-739 172.75,-745 166.75,-751 160.75,-751"/>
<text xml:space="preserve" text-anchor="middle" x="99.12" y="-734.75" font-family="Helvetica,sans-Serif" font-size="10.00">Fire Control Range 20,000 km</text>
<text xml:space="preserve" text-anchor="middle" x="99.12" y="-723.5" font-family="Helvetica,sans-Serif" font-size="10.00">1K RP</text>
</g>
<!-- Fire_Control_Range_32_000_km -->
<g id="node2" class="node">
<title>Fire_Control_Range_32_000_km</title>
<path fill="#cce5ff" stroke="black" d="M160.75,-686C160.75,-686 37.5,-686 37.5,-686 31.5,-686 25.5,-680 25.5,-674 25.5,-674 25.5,-662 25.5,-662 25.5,-656 31.5,-650 37.5,-650 37.5,-650 160.75,-650 160.75,-650 166.75,-650 172.75,-656 172.75,-662 172.75,-662 172.75,-674 172.75,-674 172.75,-680 166.75,-686 160.75,-686"/>
<text xml:space="preserve" text-anchor="middle" x="99.12" y="-669.75" font-family="Helvetica,sans-Serif" font-size="10.00">Fire Control Range 32,000 km</text>
<text xml:space="preserve" text-anchor="middle" x="99.12" y="-658.5" font-family="Helvetica,sans-Serif" font-size="10.00">2K RP</text>
</g>
<!-- Fire_Control_Range_20_000_km&#45;&gt;Fire_Control_Range_32_000_km -->
<g id="edge1" class="edge">
<title>Fire_Control_Range_20_000_km&#45;&gt;Fire_Control_Range_32_000_km</title>
<path fill="none" stroke="black" d="M99.12,-714.78C99.12,-708.53 99.12,-701.33 99.12,-694.52"/>
<polygon fill="black" stroke="black" points="101.58,-694.71 99.13,-687.71 96.68,-694.71 101.58,-694.71"/>
</g>
<!-- Fire_Control_Range_48_000_km -->
<g id="node3" class="node">
<title>Fire_Control_Range_48_000_km</title>
<path fill="#cce5ff" stroke="black" d="M160.75,-621C160.75,-621 37.5,-621 37.5,-621 31.5,-621 25.5,-615 25.5,-609 25.5,-609 25.5,-597 25.5,-597 25.5,-591 31.5,-585 37.5,-585 37.5,-585 160.75,-585 160.75,-585 166.75,-585 172.75,-591 172.75,-597 172.75,-597 172.75,-609 172.75,-609 172.75,-615 166.75,-621 160.75,-621"/>
<text xml:space="preserve" text-anchor="middle" x="99.12" y="-604.75" font-family="Helvetica,sans-Serif" font-size="10.00">Fire Control Range 48,000 km</text>
<text xml:space="preserve" text-anchor="middle" x="99.12" y="-593.5" font-family="Helvetica,sans-Serif" font-size="10.00">4K RP</text>
</g>
<!-- Fire_Control_Range_32_000_km&#45;&gt;Fire_Control_Range_48_000_km -->
<g id="edge2" class="edge">
<title>Fire_Control_Range_32_000_km&#45;&gt;Fire_Control_Range_48_000_km</title>
<path fill="none" stroke="black" d="M99.12,-649.78C99.12,-643.53 99.12,-636.33 99.12,-629.52"/>
<polygon fill="black" stroke="black" points="101.58,-629.71 99.13,-622.71 96.68,-629.71 101.58,-629.71"/>
</g>
<!-- Fire_Control_Range_64_000_km -->
<g id="node4" class="node">
<title>Fire_Control_Range_64_000_km</title>
<path fill="#cce5ff" stroke="black" d="M160.75,-556C160.75,-556 37.5,-556 37.5,-556 31.5,-556 25.5,-550 25.5,-544 25.5,-544 25.5,-532 25.5,-532 25.5,-526 31.5,-520 37.5,-520 37.5,-520 160.75,-520 160.75,-520 166.75,-520 172.75,-526 172.75,-532 172.75,-532 172.75,-544 172.75,-544 172.75,-550 166.75,-556 160.75,-556"/>
<text xml:space="preserve" text-anchor="middle" x="99.12" y="-539.75" font-family="Helvetica,sans-Serif" font-size="10.00">Fire Control Range 64,000 km</text>
<text xml:space="preserve" text-anchor="middle" x="99.12" y="-528.5" font-family="Helvetica,sans-Serif" font-size="10.00">8K RP</text>
</g>
<!-- Fire_Control_Range_48_000_km&#45;&gt;Fire_Control_Range_64_000_km -->
<g id="edge3" class="edge">
<title>Fire_Control_Range_48_000_km&#45;&gt;Fire_Control_Range_64_000_km</title>
<path fill="none" stroke="black" d="M99.12,-584.78C99.12,-578.53 99.12,-571.33 99.12,-564.52"/>
<polygon fill="black" stroke="black" points="101.58,-564.71 99.13,-557.71 96.68,-564.71 101.58,-564.71"/>
</g>
<!-- Fire_Control_Range_80_000_km -->
<g id="node5" class="node">
<title>Fire_Control_Range_80_000_km</title>
<path fill="#fff3cd" stroke="black" d="M160.75,-491C160.75,-491 37.5,-491 37.5,-491 31.5,-491 25.5,-485 25.5,-479 25.5,-479 25.5,-467 25.5,-467 25.5,-461 31.5,-455 37.5,-455 37.5,-455 160.75,-455 160.75,-455 166.75,-455 172.75,-461 172.75,-467 172.75,-467 172.75,-479 172.75,-479 172.75,-485 166.75,-491 160.75,-491"/>
<text xml:space="preserve" text-anchor="middle" x="99.12" y="-474.75" font-family="Helvetica,sans-Serif" font-size="10.00">Fire Control Range 80,000 km</text>
<text xml:space="preserve" text-anchor="middle" x="99.12" y="-463.5" font-family="Helvetica,sans-Serif" font-size="10.00">16K RP</text>
</g>
<!-- Fire_Control_Range_64_000_km&#45;&gt;Fire_Control_Range_80_000_km -->
<g id="edge4" class="edge">
<title>Fire_Control_Range_64_000_km&#45;&gt;Fire_Control_Range_80_000_km</title>
<path fill="none" stroke="black" d="M99.12,-519.78C99.12,-513.53 99.12,-506.33 99.12,-499.52"/>
<polygon fill="black" stroke="black" points="101.58,-499.71 99.13,-492.71 96.68,-499.71 101.58,-499.71"/>
</g>
<!-- Fire_Control_Range_96_000_km -->
<g id="node6" class="node">
<title>Fire_Control_Range_96_000_km</title>
<path fill="#fff3cd" stroke="black" d="M160.75,-426C160.75,-426 37.5,-426 37.5,-426 31.5,-426 25.5,-420 25.5,-414 25.5,-414 25.5,-402 25.5,-402 25.5,-396 31.5,-390 37.5,-390 37.5,-390 160.75,-390 160.75,-390 166.75,-390 172.75,-396 172.75,-402 172.75,-402 172.75,-414 172.75,-414 172.75,-420 166.75,-426 160.75,-426"/>
<text xml:space="preserve" text-anchor="middle" x="99.12" y="-409.75" font-family="Helvetica,sans-Serif" font-size="10.00">Fire Control Range 96,000 km</text>
<text xml:space="preserve" text-anchor="middle" x="99.12" y="-398.5" font-family="Helvetica,sans-Serif" font-size="10.00">30K RP</text>
</g>
<!-- Fire_Control_Range_80_000_km&#45;&gt;Fire_Control_Range_96_000_km -->
<g id="edge5" class="edge">
<title>Fire_Control_Range_80_000_km&#45;&gt;Fire_Control_Range_96_000_km</title>
<path fill="none" stroke="black" d="M99.12,-454.78C99.12,-448.53 99.12,-441.33 99.12,-434.52"/>
<polygon fill="black" stroke="black" points="101.58,-434.71 99.13,-427.71 96.68,-434.71 101.58,-434.71"/>
</g>
<!-- Fire_Control_Range_120_000_km -->
<g id="node7" class="node">
<title>Fire_Control_Range_120_000_km</title>
<path fill="#fff3cd" stroke="black" d="M163.38,-361C163.38,-361 34.88,-361 34.88,-361 28.87,-361 22.88,-355 22.88,-349 22.88,-349 22.88,-337 22.88,-337 22.88,-331 28.88,-325 34.88,-325 34.88,-325 163.38,-325 163.38,-325 169.38,-325 175.38,-331 175.38,-337 175.38,-337 175.38,-349 175.38,-349 175.38,-355 169.38,-361 163.38,-361"/>
<text xml:space="preserve" text-anchor="middle" x="99.12" y="-344.75" font-family="Helvetica,sans-Serif" font-size="10.00">Fire Control Range 120,000 km</text>
<text xml:space="preserve" text-anchor="middle" x="99.12" y="-333.5" font-family="Helvetica,sans-Serif" font-size="10.00">60K RP</text>
</g>
<!-- Fire_Control_Range_96_000_km&#45;&gt;Fire_Control_Range_120_000_km -->
<g id="edge6" class="edge">
<title>Fire_Control_Range_96_000_km&#45;&gt;Fire_Control_Range_120_000_km</title>
<path fill="none" stroke="black" d="M99.12,-389.78C99.12,-383.53 99.12,-376.33 99.12,-369.52"/>
<polygon fill="black" stroke="black" points="101.58,-369.71 99.13,-362.71 96.68,-369.71 101.58,-369.71"/>
</g>
<!-- Fire_Control_Range_150_000_km -->
<g id="node8" class="node">
<title>Fire_Control_Range_150_000_km</title>
<path fill="#d4c4fb" stroke="black" d="M163.38,-296C163.38,-296 34.88,-296 34.88,-296 28.87,-296 22.88,-290 22.88,-284 22.88,-284 22.88,-272 22.88,-272 22.88,-266 28.88,-260 34.88,-260 34.88,-260 163.38,-260 163.38,-260 169.38,-260 175.38,-266 175.38,-272 175.38,-272 175.38,-284 175.38,-284 175.38,-290 169.38,-296 163.38,-296"/>
<text xml:space="preserve" text-anchor="middle" x="99.12" y="-279.75" font-family="Helvetica,sans-Serif" font-size="10.00">Fire Control Range 150,000 km</text>
<text xml:space="preserve" text-anchor="middle" x="99.12" y="-268.5" font-family="Helvetica,sans-Serif" font-size="10.00">125K RP</text>
</g>
<!-- Fire_Control_Range_120_000_km&#45;&gt;Fire_Control_Range_150_000_km -->
<g id="edge7" class="edge">
<title>Fire_Control_Range_120_000_km&#45;&gt;Fire_Control_Range_150_000_km</title>
<path fill="none" stroke="black" d="M99.12,-324.78C99.12,-318.53 99.12,-311.33 99.12,-304.52"/>
<polygon fill="black" stroke="black" points="101.58,-304.71 99.13,-297.71 96.68,-304.71 101.58,-304.71"/>
</g>
<!-- Fire_Control_Range_200_000_km -->
<g id="node9" class="node">
<title>Fire_Control_Range_200_000_km</title>
<path fill="#d4c4fb" stroke="black" d="M163.38,-231C163.38,-231 34.88,-231 34.88,-231 28.87,-231 22.88,-225 22.88,-219 22.88,-219 22.88,-207 22.88,-207 22.88,-201 28.88,-195 34.88,-195 34.88,-195 163.38,-195 163.38,-195 169.38,-195 175.38,-201 175.38,-207 175.38,-207 175.38,-219 175.38,-219 175.38,-225 169.38,-231 163.38,-231"/>
<text xml:space="preserve" text-anchor="middle" x="99.12" y="-214.75" font-family="Helvetica,sans-Serif" font-size="10.00">Fire Control Range 200,000 km</text>
<text xml:space="preserve" text-anchor="middle" x="99.12" y="-203.5" font-family="Helvetica,sans-Serif" font-size="10.00">250K RP</text>
</g>
<!-- Fire_Control_Range_150_000_km&#45;&gt;Fire_Control_Range_200_000_km -->
<g id="edge8" class="edge">
<title>Fire_Control_Range_150_000_km&#45;&gt;Fire_Control_Range_200_000_km</title>
<path fill="none" stroke="black" d="M99.12,-259.78C99.12,-253.53 99.12,-246.33 99.12,-239.52"/>
<polygon fill="black" stroke="black" points="101.58,-239.71 99.13,-232.71 96.68,-239.71 101.58,-239.71"/>
</g>
<!-- Fire_Control_Range_250_000_km -->
<g id="node10" class="node">
<title>Fire_Control_Range_250_000_km</title>
<path fill="#d4c4fb" stroke="black" d="M163.38,-166C163.38,-166 34.88,-166 34.88,-166 28.87,-166 22.88,-160 22.88,-154 22.88,-154 22.88,-142 22.88,-142 22.88,-136 28.88,-130 34.88,-130 34.88,-130 163.38,-130 163.38,-130 169.38,-130 175.38,-136 175.38,-142 175.38,-142 175.38,-154 175.38,-154 175.38,-160 169.38,-166 163.38,-166"/>
<text xml:space="preserve" text-anchor="middle" x="99.12" y="-149.75" font-family="Helvetica,sans-Serif" font-size="10.00">Fire Control Range 250,000 km</text>
<text xml:space="preserve" text-anchor="middle" x="99.12" y="-138.5" font-family="Helvetica,sans-Serif" font-size="10.00">500K RP</text>
</g>
<!-- Fire_Control_Range_200_000_km&#45;&gt;Fire_Control_Range_250_000_km -->
<g id="edge9" class="edge">
<title>Fire_Control_Range_200_000_km&#45;&gt;Fire_Control_Range_250_000_km</title>
<path fill="none" stroke="black" d="M99.12,-194.78C99.12,-188.53 99.12,-181.33 99.12,-174.52"/>
<polygon fill="black" stroke="black" points="101.58,-174.71 99.13,-167.71 96.68,-174.71 101.58,-174.71"/>
</g>
<!-- Fire_Control_Range_300_000_km -->
<g id="node11" class="node">
<title>Fire_Control_Range_300_000_km</title>
<path fill="#d4c4fb" stroke="black" d="M163.38,-101C163.38,-101 34.88,-101 34.88,-101 28.87,-101 22.88,-95 22.88,-89 22.88,-89 22.88,-77 22.88,-77 22.88,-71 28.88,-65 34.88,-65 34.88,-65 163.38,-65 163.38,-65 169.38,-65 175.38,-71 175.38,-77 175.38,-77 175.38,-89 175.38,-89 175.38,-95 169.38,-101 163.38,-101"/>
<text xml:space="preserve" text-anchor="middle" x="99.12" y="-84.75" font-family="Helvetica,sans-Serif" font-size="10.00">Fire Control Range 300,000 km</text>
<text xml:space="preserve" text-anchor="middle" x="99.12" y="-73.5" font-family="Helvetica,sans-Serif" font-size="10.00">1.0M RP</text>
</g>
<!-- Fire_Control_Range_250_000_km&#45;&gt;Fire_Control_Range_300_000_km -->
<g id="edge10" class="edge">
<title>Fire_Control_Range_250_000_km&#45;&gt;Fire_Control_Range_300_000_km</title>
<path fill="none" stroke="black" d="M99.12,-129.78C99.12,-123.53 99.12,-116.33 99.12,-109.52"/>
<polygon fill="black" stroke="black" points="101.58,-109.71 99.13,-102.71 96.68,-109.71 101.58,-109.71"/>
</g>
<!-- Fire_Control_Range_350_000_km -->
<g id="node12" class="node">
<title>Fire_Control_Range_350_000_km</title>
<path fill="#f8d7da" stroke="black" d="M163.38,-36C163.38,-36 34.88,-36 34.88,-36 28.87,-36 22.88,-30 22.88,-24 22.88,-24 22.88,-12 22.88,-12 22.88,-6 28.88,0 34.88,0 34.88,0 163.38,0 163.38,0 169.38,0 175.38,-6 175.38,-12 175.38,-12 175.38,-24 175.38,-24 175.38,-30 169.38,-36 163.38,-36"/>
<text xml:space="preserve" text-anchor="middle" x="99.12" y="-19.75" font-family="Helvetica,sans-Serif" font-size="10.00">Fire Control Range 350,000 km</text>
<text xml:space="preserve" text-anchor="middle" x="99.12" y="-8.5" font-family="Helvetica,sans-Serif" font-size="10.00">2.0M RP</text>
</g>
<!-- Fire_Control_Range_300_000_km&#45;&gt;Fire_Control_Range_350_000_km -->
<g id="edge11" class="edge">
<title>Fire_Control_Range_300_000_km&#45;&gt;Fire_Control_Range_350_000_km</title>
<path fill="none" stroke="black" d="M99.12,-64.78C99.12,-58.53 99.12,-51.33 99.12,-44.52"/>
<polygon fill="black" stroke="black" points="101.58,-44.71 99.13,-37.71 96.68,-44.71 101.58,-44.71"/>
</g>
</g>
</svg>
