<?xml version="1.0" encoding="UTF-8" standalone="no"?>
<!DOCTYPE svg PUBLIC "-//W3C//DTD SVG 1.1//EN"
 "http://www.w3.org/Graphics/SVG/1.1/DTD/svg11.dtd">
<!-- Generated by graphviz version 14.1.2 (20260124.0452)
 -->
<!-- Title: TechTree Pages: 1 -->
<svg width="7850pt" height="65pt"
 viewBox="0.00 0.00 7850.00 65.00" xmlns="http://www.w3.org/2000/svg" xmlns:xlink="http://www.w3.org/1999/xlink">
<g id="graph0" class="graph" transform="scale(1 1) rotate(0) translate(4 60.75)">
<title>TechTree</title>
<polygon fill="white" stroke="none" points="-4,4 -4,-60.75 7846.38,-60.75 7846.38,4 -4,4"/>
<text xml:space="preserve" text-anchor="middle" x="3921.19" y="-41.35" font-family="Helvetica,sans-Serif" font-weight="bold" font-size="12.00">Fire Control Size vs Tracking Speed</text>
<!-- Normal_Size_Normal_Speed -->
<g id="node1" class="node">
<title>Normal_Size_Normal_Speed</title>
<path fill="#d4edda" stroke="black" d="M115.75,-36C115.75,-36 12,-36 12,-36 6,-36 0,-30 0,-24 0,-24 0,-12 0,-12 0,-6 6,0 12,0 12,0 115.75,0 115.75,0 121.75,0 127.75,-6 127.75,-12 127.75,-12 127.75,-24 127.75,-24 127.75,-30 121.75,-36 115.75,-36"/>
<text xml:space="preserve" text-anchor="middle" x="63.88" y="-19.2" font-family="Helvetica,sans-Serif" font-size="9.00">Normal Size Normal Speed</text>
<text xml:space="preserve" text-anchor="middle" x="63.88" y="-9.45" font-family="Helvetica,sans-Serif" font-size="9.00">1 RP</text>
</g>
<!-- Fire_Control_0_5x_Size_0_5x_Tr -->
<g id="node2" class="node">
<title>Fire_Control_0_5x_Size_0_5x_Tr</title>
<path fill="#d4edda" stroke="black" d="M323.88,-36C323.88,-36 157.88,-36 157.88,-36 151.88,-36 145.88,-30 145.88,-24 145.88,-24 145.88,-12 145.88,-12 145.88,-6 151.88,0 157.88,0 157.88,0 323.88,0 323.88,0 329.88,0 335.88,-6 335.88,-12 335.88,-12 335.88,-24 335.88,-24 335.88,-30 329.88,-36 323.88,-36"/>
<text xml:space="preserve" text-anchor="middle" x="240.88" y="-19.2" font-family="Helvetica,sans-Serif" font-size="9.00">Fire Control 0.5x Size 0.5x Tracking Speed</text>
<text xml:space="preserve" text-anchor="middle" x="240.88" y="-9.45" font-family="Helvetica,sans-Serif" font-size="9.00">2 RP</text>
</g>
<!-- Fire_Control_0_75x_Size_0_75x_ -->
<g id="node3" class="node">
<title>Fire_Control_0_75x_Size_0_75x_</title>
<path fill="#d4edda" stroke="black" d="M542.12,-36C542.12,-36 365.62,-36 365.62,-36 359.62,-36 353.62,-30 353.62,-24 353.62,-24 353.62,-12 353.62,-12 353.62,-6 359.62,0 365.62,0 365.62,0 542.12,0 542.12,0 548.12,0 554.12,-6 554.12,-12 554.12,-12 554.12,-24 554.12,-24 554.12,-30 548.12,-36 542.12,-36"/>
<text xml:space="preserve" text-anchor="middle" x="453.88" y="-19.2" font-family="Helvetica,sans-Serif" font-size="9.00">Fire Control 0.75x Size 0.75x Tracking Speed</text>
<text xml:space="preserve" text-anchor="middle" x="453.88" y="-9.45" font-family="Helvetica,sans-Serif" font-size="9.00">3 RP</text>
</g>
<!-- Fire_Control_1_05x_Size_1_05x_ -->
<g id="node4" class="node">
<title>Fire_Control_1_05x_Size_1_05x_</title>
<path fill="#d4edda" stroke="black" d="M761.12,-36C761.12,-36 584.62,-36 584.62,-36 578.62,-36 572.62,-30 572.62,-24 572.62,-24 572.62,-12 572.62,-12 572.62,-6 578.62,0 584.62,0 584.62,0 761.12,0 761.12,0 767.12,0 773.12,-6 773.12,-12 773.12,-12 773.12,-24 773.12,-24 773.12,-30 767.12,-36 761.12,-36"/>
<text xml:space="preserve" text-anchor="middle" x="672.88" y="-19.2" font-family="Helvetica,sans-Serif" font-size="9.00">Fire Control 1.05x Size 1.05x Tracking Speed</text>
<text xml:space="preserve" text-anchor="middle" x="672.88" y="-9.45" font-family="Helvetica,sans-Serif" font-size="9.00">4 RP</text>
</g>
<!-- Fire_Control_1_1x_Size_1_1x_Tr -->
<g id="node5" class="node">
<title>Fire_Control_1_1x_Size_1_1x_Tr</title>
<path fill="#d4edda" stroke="black" d="M968.88,-36C968.88,-36 802.88,-36 802.88,-36 796.88,-36 790.88,-30 790.88,-24 790.88,-24 790.88,-12 790.88,-12 790.88,-6 796.88,0 802.88,0 802.88,0 968.88,0 968.88,0 974.88,0 980.88,-6 980.88,-12 980.88,-12 980.88,-24 980.88,-24 980.88,-30 974.88,-36 968.88,-36"/>
<text xml:space="preserve" text-anchor="middle" x="885.88" y="-19.2" font-family="Helvetica,sans-Serif" font-size="9.00">Fire Control 1.1x Size 1.1x Tracking Speed</text>
<text xml:space="preserve" text-anchor="middle" x="885.88" y="-9.45" font-family="Helvetica,sans-Serif" font-size="9.00">5 RP</text>
</g>
<!-- Fire_Control_1_15x_Size_1_15x_ -->
<g id="node6" class="node">
<title>Fire_Control_1_15x_Size_1_15x_</title>
<path fill="#d4edda" stroke="black" d="M1187.12,-36C1187.12,-36 1010.62,-36 1010.62,-36 1004.62,-36 998.62,-30 998.62,-24 998.62,-24 998.62,-12 998.62,-12 998.62,-6 1004.62,0 1010.62,0 1010.62,0 1187.12,0 1187.12,0 1193.12,0 1199.12,-6 1199.12,-12 1199.12,-12 1199.12,-24 1199.12,-24 1199.12,-30 1193.12,-36 1187.12,-36"/>
<text xml:space="preserve" text-anchor="middle" x="1098.88" y="-19.2" font-family="Helvetica,sans-Serif" font-size="9.00">Fire Control 1.15x Size 1.15x Tracking Speed</text>
<text xml:space="preserve" text-anchor="middle" x="1098.88" y="-9.45" font-family="Helvetica,sans-Serif" font-size="9.00">6 RP</text>
</g>
<!-- Fire_Control_1_2x_Size_1_2x_Tr -->
<g id="node7" class="node">
<title>Fire_Control_1_2x_Size_1_2x_Tr</title>
<path fill="#d4edda" stroke="black" d="M1394.88,-36C1394.88,-36 1228.88,-36 1228.88,-36 1222.88,-36 1216.88,-30 1216.88,-24 1216.88,-24 1216.88,-12 1216.88,-12 1216.88,-6 1222.88,0 1228.88,0 1228.88,0 1394.88,0 1394.88,0 1400.88,0 1406.88,-6 1406.88,-12 1406.88,-12 1406.88,-24 1406.88,-24 1406.88,-30 1400.88,-36 1394.88,-36"/>
<text xml:space="preserve" text-anchor="middle" x="1311.88" y="-19.2" font-family="Helvetica,sans-Serif" font-size="9.00">Fire Control 1.2x Size 1.2x Tracking Speed</text>
<text xml:space="preserve" text-anchor="middle" x="1311.88" y="-9.45" font-family="Helvetica,sans-Serif" font-size="9.00">7 RP</text>
</g>
<!-- Fire_Control_1_25x_Size_1_25x_ -->
<g id="node8" class="node">
<title>Fire_Control_1_25x_Size_1_25x_</title>
<path fill="#d4edda" stroke="black" d="M1613.12,-36C1613.12,-36 1436.62,-36 1436.62,-36 1430.62,-36 1424.62,-30 1424.62,-24 1424.62,-24 1424.62,-12 1424.62,-12 1424.62,-6 1430.62,0 1436.62,0 1436.62,0 1613.12,0 1613.12,0 1619.12,0 1625.12,-6 1625.12,-12 1625.12,-12 1625.12,-24 1625.12,-24 1625.12,-30 1619.12,-36 1613.12,-36"/>
<text xml:space="preserve" text-anchor="middle" x="1524.88" y="-19.2" font-family="Helvetica,sans-Serif" font-size="9.00">Fire Control 1.25x Size 1.25x Tracking Speed</text>
<text xml:space="preserve" text-anchor="middle" x="1524.88" y="-9.45" font-family="Helvetica,sans-Serif" font-size="9.00">8 RP</text>
</g>
<!-- Fire_Control_1_3x_Size_1_3x_Tr -->
<g id="node9" class="node">
<title>Fire_Control_1_3x_Size_1_3x_Tr</title>
<path fill="#d4edda" stroke="black" d="M1820.88,-36C1820.88,-36 1654.88,-36 1654.88,-36 1648.88,-36 1642.88,-30 1642.88,-24 1642.88,-24 1642.88,-12 1642.88,-12 1642.88,-6 1648.88,0 1654.88,0 1654.88,0 1820.88,0 1820.88,0 1826.88,0 1832.88,-6 1832.88,-12 1832.88,-12 1832.88,-24 1832.88,-24 1832.88,-30 1826.88,-36 1820.88,-36"/>
<text xml:space="preserve" text-anchor="middle" x="1737.88" y="-19.2" font-family="Helvetica,sans-Serif" font-size="9.00">Fire Control 1.3x Size 1.3x Tracking Speed</text>
<text xml:space="preserve" text-anchor="middle" x="1737.88" y="-9.45" font-family="Helvetica,sans-Serif" font-size="9.00">9 RP</text>
</g>
<!-- Fire_Control_1_35x_Size_1_35x_ -->
<g id="node10" class="node">
<title>Fire_Control_1_35x_Size_1_35x_</title>
<path fill="#d4edda" stroke="black" d="M2039.12,-36C2039.12,-36 1862.62,-36 1862.62,-36 1856.62,-36 1850.62,-30 1850.62,-24 1850.62,-24 1850.62,-12 1850.62,-12 1850.62,-6 1856.62,0 1862.62,0 1862.62,0 2039.12,0 2039.12,0 2045.12,0 2051.12,-6 2051.12,-12 2051.12,-12 2051.12,-24 2051.12,-24 2051.12,-30 2045.12,-36 2039.12,-36"/>
<text xml:space="preserve" text-anchor="middle" x="1950.88" y="-19.2" font-family="Helvetica,sans-Serif" font-size="9.00">Fire Control 1.35x Size 1.35x Tracking Speed</text>
<text xml:space="preserve" text-anchor="middle" x="1950.88" y="-9.45" font-family="Helvetica,sans-Serif" font-size="9.00">10 RP</text>
</g>
<!-- Fire_Control_1_4x_Size_1_4x_Tr -->
<g id="node11" class="node">
<title>Fire_Control_1_4x_Size_1_4x_Tr</title>
<path fill="#d4edda" stroke="black" d="M2246.88,-36C2246.88,-36 2080.88,-36 2080.88,-36 2074.88,-36 2068.88,-30 2068.88,-24 2068.88,-24 2068.88,-12 2068.88,-12 2068.88,-6 2074.88,0 2080.88,0 2080.88,0 2246.88,0 2246.88,0 2252.88,0 2258.88,-6 2258.88,-12 2258.88,-12 2258.88,-24 2258.88,-24 2258.88,-30 2252.88,-36 2246.88,-36"/>
<text xml:space="preserve" text-anchor="middle" x="2163.88" y="-19.2" font-family="Helvetica,sans-Serif" font-size="9.00">Fire Control 1.4x Size 1.4x Tracking Speed</text>
<text xml:space="preserve" text-anchor="middle" x="2163.88" y="-9.45" font-family="Helvetica,sans-Serif" font-size="9.00">11 RP</text>
</g>
<!-- Fire_Control_1_45x_Size_1_45x_ -->
<g id="node12" class="node">
<title>Fire_Control_1_45x_Size_1_45x_</title>
<path fill="#d4edda" stroke="black" d="M2465.12,-36C2465.12,-36 2288.62,-36 2288.62,-36 2282.62,-36 2276.62,-30 2276.62,-24 2276.62,-24 2276.62,-12 2276.62,-12 2276.62,-6 2282.62,0 2288.62,0 2288.62,0 2465.12,0 2465.12,0 2471.12,0 2477.12,-6 2477.12,-12 2477.12,-12 2477.12,-24 2477.12,-24 2477.12,-30 2471.12,-36 2465.12,-36"/>
<text xml:space="preserve" text-anchor="middle" x="2376.88" y="-19.2" font-family="Helvetica,sans-Serif" font-size="9.00">Fire Control 1.45x Size 1.45x Tracking Speed</text>
<text xml:space="preserve" text-anchor="middle" x="2376.88" y="-9.45" font-family="Helvetica,sans-Serif" font-size="9.00">12 RP</text>
</g>
<!-- Fire_Control_1_5x_Size_1_5x_Tr -->
<g id="node13" class="node">
<title>Fire_Control_1_5x_Size_1_5x_Tr</title>
<path fill="#d4edda" stroke="black" d="M2672.88,-36C2672.88,-36 2506.88,-36 2506.88,-36 2500.88,-36 2494.88,-30 2494.88,-24 2494.88,-24 2494.88,-12 2494.88,-12 2494.88,-6 2500.88,0 2506.88,0 2506.88,0 2672.88,0 2672.88,0 2678.88,0 2684.88,-6 2684.88,-12 2684.88,-12 2684.88,-24 2684.88,-24 2684.88,-30 2678.88,-36 2672.88,-36"/>
<text xml:space="preserve" text-anchor="middle" x="2589.88" y="-19.2" font-family="Helvetica,sans-Serif" font-size="9.00">Fire Control 1.5x Size 1.5x Tracking Speed</text>
<text xml:space="preserve" text-anchor="middle" x="2589.88" y="-9.45" font-family="Helvetica,sans-Serif" font-size="9.00">13 RP</text>
</g>
<!-- Fire_Control_1_6x_Size_1_6x_Tr -->
<g id="node14" class="node">
<title>Fire_Control_1_6x_Size_1_6x_Tr</title>
<path fill="#d4edda" stroke="black" d="M2880.88,-36C2880.88,-36 2714.88,-36 2714.88,-36 2708.88,-36 2702.88,-30 2702.88,-24 2702.88,-24 2702.88,-12 2702.88,-12 2702.88,-6 2708.88,0 2714.88,0 2714.88,0 2880.88,0 2880.88,0 2886.88,0 2892.88,-6 2892.88,-12 2892.88,-12 2892.88,-24 2892.88,-24 2892.88,-30 2886.88,-36 2880.88,-36"/>
<text xml:space="preserve" text-anchor="middle" x="2797.88" y="-19.2" font-family="Helvetica,sans-Serif" font-size="9.00">Fire Control 1.6x Size 1.6x Tracking Speed</text>
<text xml:space="preserve" text-anchor="middle" x="2797.88" y="-9.45" font-family="Helvetica,sans-Serif" font-size="9.00">14 RP</text>
</g>
<!-- Fire_Control_1_7x_Size_1_7x_Tr -->
<g id="node15" class="node">
<title>Fire_Control_1_7x_Size_1_7x_Tr</title>
<path fill="#d4edda" stroke="black" d="M3088.88,-36C3088.88,-36 2922.88,-36 2922.88,-36 2916.88,-36 2910.88,-30 2910.88,-24 2910.88,-24 2910.88,-12 2910.88,-12 2910.88,-6 2916.88,0 2922.88,0 2922.88,0 3088.88,0 3088.88,0 3094.88,0 3100.88,-6 3100.88,-12 3100.88,-12 3100.88,-24 3100.88,-24 3100.88,-30 3094.88,-36 3088.88,-36"/>
<text xml:space="preserve" text-anchor="middle" x="3005.88" y="-19.2" font-family="Helvetica,sans-Serif" font-size="9.00">Fire Control 1.7x Size 1.7x Tracking Speed</text>
<text xml:space="preserve" text-anchor="middle" x="3005.88" y="-9.45" font-family="Helvetica,sans-Serif" font-size="9.00">15 RP</text>
</g>
<!-- Fire_Control_1_8x_Size_1_8x_Tr -->
<g id="node16" class="node">
<title>Fire_Control_1_8x_Size_1_8x_Tr</title>
<path fill="#d4edda" stroke="black" d="M3296.88,-36C3296.88,-36 3130.88,-36 3130.88,-36 3124.88,-36 3118.88,-30 3118.88,-24 3118.88,-24 3118.88,-12 3118.88,-12 3118.88,-6 3124.88,0 3130.88,0 3130.88,0 3296.88,0 3296.88,0 3302.88,0 3308.88,-6 3308.88,-12 3308.88,-12 3308.88,-24 3308.88,-24 3308.88,-30 3302.88,-36 3296.88,-36"/>
<text xml:space="preserve" text-anchor="middle" x="3213.88" y="-19.2" font-family="Helvetica,sans-Serif" font-size="9.00">Fire Control 1.8x Size 1.8x Tracking Speed</text>
<text xml:space="preserve" text-anchor="middle" x="3213.88" y="-9.45" font-family="Helvetica,sans-Serif" font-size="9.00">16 RP</text>
</g>
<!-- Fire_Control_1_9x_Size_1_9x_Tr -->
<g id="node17" class="node">
<title>Fire_Control_1_9x_Size_1_9x_Tr</title>
<path fill="#d4edda" stroke="black" d="M3504.88,-36C3504.88,-36 3338.88,-36 3338.88,-36 3332.88,-36 3326.88,-30 3326.88,-24 3326.88,-24 3326.88,-12 3326.88,-12 3326.88,-6 3332.88,0 3338.88,0 3338.88,0 3504.88,0 3504.88,0 3510.88,0 3516.88,-6 3516.88,-12 3516.88,-12 3516.88,-24 3516.88,-24 3516.88,-30 3510.88,-36 3504.88,-36"/>
<text xml:space="preserve" text-anchor="middle" x="3421.88" y="-19.2" font-family="Helvetica,sans-Serif" font-size="9.00">Fire Control 1.9x Size 1.9x Tracking Speed</text>
<text xml:space="preserve" text-anchor="middle" x="3421.88" y="-9.45" font-family="Helvetica,sans-Serif" font-size="9.00">17 RP</text>
</g>
<!-- Fire_Control_2x_Size_2x_Tracki -->
<g id="node18" class="node">
<title>Fire_Control_2x_Size_2x_Tracki</title>
<path fill="#d4edda" stroke="black" d="M3698.38,-36C3698.38,-36 3547.38,-36 3547.38,-36 3541.38,-36 3535.38,-30 3535.38,-24 3535.38,-24 3535.38,-12 3535.38,-12 3535.38,-6 3541.38,0 3547.38,0 3547.38,0 3698.38,0 3698.38,0 3704.38,0 3710.38,-6 3710.38,-12 3710.38,-12 3710.38,-24 3710.38,-24 3710.38,-30 3704.38,-36 3698.38,-36"/>
<text xml:space="preserve" text-anchor="middle" x="3622.88" y="-19.2" font-family="Helvetica,sans-Serif" font-size="9.00">Fire Control 2x Size 2x Tracking Speed</text>
<text xml:space="preserve" text-anchor="middle" x="3622.88" y="-9.45" font-family="Helvetica,sans-Serif" font-size="9.00">18 RP</text>
</g>
<!-- Fire_Control_2_1x_Size_2_1x_Tr -->
<g id="node19" class="node">
<title>Fire_Control_2_1x_Size_2_1x_Tr</title>
<path fill="#d4edda" stroke="black" d="M3906.88,-36C3906.88,-36 3740.88,-36 3740.88,-36 3734.88,-36 3728.88,-30 3728.88,-24 3728.88,-24 3728.88,-12 3728.88,-12 3728.88,-6 3734.88,0 3740.88,0 3740.88,0 3906.88,0 3906.88,0 3912.88,0 3918.88,-6 3918.88,-12 3918.88,-12 3918.88,-24 3918.88,-24 3918.88,-30 3912.88,-36 3906.88,-36"/>
<text xml:space="preserve" text-anchor="middle" x="3823.88" y="-19.2" font-family="Helvetica,sans-Serif" font-size="9.00">Fire Control 2.1x Size 2.1x Tracking Speed</text>
<text xml:space="preserve" text-anchor="middle" x="3823.88" y="-9.45" font-family="Helvetica,sans-Serif" font-size="9.00">19 RP</text>
</g>
<!-- Fire_Control_2_2x_Size_2_2x_Tr -->
<g id="node20" class="node">
<title>Fire_Control_2_2x_Size_2_2x_Tr</title>
<path fill="#d4edda" stroke="black" d="M4114.88,-36C4114.88,-36 3948.88,-36 3948.88,-36 3942.88,-36 3936.88,-30 3936.88,-24 3936.88,-24 3936.88,-12 3936.88,-12 3936.88,-6 3942.88,0 3948.88,0 3948.88,0 4114.88,0 4114.88,0 4120.88,0 4126.88,-6 4126.88,-12 4126.88,-12 4126.88,-24 4126.88,-24 4126.88,-30 4120.88,-36 4114.88,-36"/>
<text xml:space="preserve" text-anchor="middle" x="4031.88" y="-19.2" font-family="Helvetica,sans-Serif" font-size="9.00">Fire Control 2.2x Size 2.2x Tracking Speed</text>
<text xml:space="preserve" text-anchor="middle" x="4031.88" y="-9.45" font-family="Helvetica,sans-Serif" font-size="9.00">20 RP</text>
</g>
<!-- Fire_Control_2_3x_Size_2_3x_Tr -->
<g id="node21" class="node">
<title>Fire_Control_2_3x_Size_2_3x_Tr</title>
<path fill="#d4edda" stroke="black" d="M4322.88,-36C4322.88,-36 4156.88,-36 4156.88,-36 4150.88,-36 4144.88,-30 4144.88,-24 4144.88,-24 4144.88,-12 4144.88,-12 4144.88,-6 4150.88,0 4156.88,0 4156.88,0 4322.88,0 4322.88,0 4328.88,0 4334.88,-6 4334.88,-12 4334.88,-12 4334.88,-24 4334.88,-24 4334.88,-30 4328.88,-36 4322.88,-36"/>
<text xml:space="preserve" text-anchor="middle" x="4239.88" y="-19.2" font-family="Helvetica,sans-Serif" font-size="9.00">Fire Control 2.3x Size 2.3x Tracking Speed</text>
<text xml:space="preserve" text-anchor="middle" x="4239.88" y="-9.45" font-family="Helvetica,sans-Serif" font-size="9.00">21 RP</text>
</g>
<!-- Fire_Control_2_4x_Size_2_4x_Tr -->
<g id="node22" class="node">
<title>Fire_Control_2_4x_Size_2_4x_Tr</title>
<path fill="#d4edda" stroke="black" d="M4530.88,-36C4530.88,-36 4364.88,-36 4364.88,-36 4358.88,-36 4352.88,-30 4352.88,-24 4352.88,-24 4352.88,-12 4352.88,-12 4352.88,-6 4358.88,0 4364.88,0 4364.88,0 4530.88,0 4530.88,0 4536.88,0 4542.88,-6 4542.88,-12 4542.88,-12 4542.88,-24 4542.88,-24 4542.88,-30 4536.88,-36 4530.88,-36"/>
<text xml:space="preserve" text-anchor="middle" x="4447.88" y="-19.2" font-family="Helvetica,sans-Serif" font-size="9.00">Fire Control 2.4x Size 2.4x Tracking Speed</text>
<text xml:space="preserve" text-anchor="middle" x="4447.88" y="-9.45" font-family="Helvetica,sans-Serif" font-size="9.00">22 RP</text>
</g>
<!-- Fire_Control_2_5x_Size_2_5x_Tr -->
<g id="node23" class="node">
<title>Fire_Control_2_5x_Size_2_5x_Tr</title>
<path fill="#d4edda" stroke="black" d="M4738.88,-36C4738.88,-36 4572.88,-36 4572.88,-36 4566.88,-36 4560.88,-30 4560.88,-24 4560.88,-24 4560.88,-12 4560.88,-12 4560.88,-6 4566.88,0 4572.88,0 4572.88,0 4738.88,0 4738.88,0 4744.88,0 4750.88,-6 4750.88,-12 4750.88,-12 4750.88,-24 4750.88,-24 4750.88,-30 4744.88,-36 4738.88,-36"/>
<text xml:space="preserve" text-anchor="middle" x="4655.88" y="-19.2" font-family="Helvetica,sans-Serif" font-size="9.00">Fire Control 2.5x Size 2.5x Tracking Speed</text>
<text xml:space="preserve" text-anchor="middle" x="4655.88" y="-9.45" font-family="Helvetica,sans-Serif" font-size="9.00">23 RP</text>
</g>
<!-- Fire_Control_2_6x_Size_2_6x_Tr -->
<g id="node24" class="node">
<title>Fire_Control_2_6x_Size_2_6x_Tr</title>
<path fill="#d4edda" stroke="black" d="M4946.88,-36C4946.88,-36 4780.88,-36 4780.88,-36 4774.88,-36 4768.88,-30 4768.88,-24 4768.88,-24 4768.88,-12 4768.88,-12 4768.88,-6 4774.88,0 4780.88,0 4780.88,0 4946.88,0 4946.88,0 4952.88,0 4958.88,-6 4958.88,-12 4958.88,-12 4958.88,-24 4958.88,-24 4958.88,-30 4952.88,-36 4946.88,-36"/>
<text xml:space="preserve" text-anchor="middle" x="4863.88" y="-19.2" font-family="Helvetica,sans-Serif" font-size="9.00">Fire Control 2.6x Size 2.6x Tracking Speed</text>
<text xml:space="preserve" text-anchor="middle" x="4863.88" y="-9.45" font-family="Helvetica,sans-Serif" font-size="9.00">24 RP</text>
</g>
<!-- Fire_Control_2_7x_Size_2_7x_Tr -->
<g id="node25" class="node">
<title>Fire_Control_2_7x_Size_2_7x_Tr</title>
<path fill="#d4edda" stroke="black" d="M5154.88,-36C5154.88,-36 4988.88,-36 4988.88,-36 4982.88,-36 4976.88,-30 4976.88,-24 4976.88,-24 4976.88,-12 4976.88,-12 4976.88,-6 4982.88,0 4988.88,0 4988.88,0 5154.88,0 5154.88,0 5160.88,0 5166.88,-6 5166.88,-12 5166.88,-12 5166.88,-24 5166.88,-24 5166.88,-30 5160.88,-36 5154.88,-36"/>
<text xml:space="preserve" text-anchor="middle" x="5071.88" y="-19.2" font-family="Helvetica,sans-Serif" font-size="9.00">Fire Control 2.7x Size 2.7x Tracking Speed</text>
<text xml:space="preserve" text-anchor="middle" x="5071.88" y="-9.45" font-family="Helvetica,sans-Serif" font-size="9.00">25 RP</text>
</g>
<!-- Fire_Control_2_8x_Size_2_8x_Tr -->
<g id="node26" class="node">
<title>Fire_Control_2_8x_Size_2_8x_Tr</title>
<path fill="#d4edda" stroke="black" d="M5362.88,-36C5362.88,-36 5196.88,-36 5196.88,-36 5190.88,-36 5184.88,-30 5184.88,-24 5184.88,-24 5184.88,-12 5184.88,-12 5184.88,-6 5190.88,0 5196.88,0 5196.88,0 5362.88,0 5362.88,0 5368.88,0 5374.88,-6 5374.88,-12 5374.88,-12 5374.88,-24 5374.88,-24 5374.88,-30 5368.88,-36 5362.88,-36"/>
<text xml:space="preserve" text-anchor="middle" x="5279.88" y="-19.2" font-family="Helvetica,sans-Serif" font-size="9.00">Fire Control 2.8x Size 2.8x Tracking Speed</text>
<text xml:space="preserve" text-anchor="middle" x="5279.88" y="-9.45" font-family="Helvetica,sans-Serif" font-size="9.00">27 RP</text>
</g>
<!-- Fire_Control_2_9x_Size_2_9x_Tr -->
<g id="node27" class="node">
<title>Fire_Control_2_9x_Size_2_9x_Tr</title>
<path fill="#d4edda" stroke="black" d="M5570.88,-36C5570.88,-36 5404.88,-36 5404.88,-36 5398.88,-36 5392.88,-30 5392.88,-24 5392.88,-24 5392.88,-12 5392.88,-12 5392.88,-6 5398.88,0 5404.88,0 5404.88,0 5570.88,0 5570.88,0 5576.88,0 5582.88,-6 5582.88,-12 5582.88,-12 5582.88,-24 5582.88,-24 5582.88,-30 5576.88,-36 5570.88,-36"/>
<text xml:space="preserve" text-anchor="middle" x="5487.88" y="-19.2" font-family="Helvetica,sans-Serif" font-size="9.00">Fire Control 2.9x Size 2.9x Tracking Speed</text>
<text xml:space="preserve" text-anchor="middle" x="5487.88" y="-9.45" font-family="Helvetica,sans-Serif" font-size="9.00">28 RP</text>
</g>
<!-- Fire_Control_3x_Size_3x_Tracki -->
<g id="node28" class="node">
<title>Fire_Control_3x_Size_3x_Tracki</title>
<path fill="#d4edda" stroke="black" d="M5764.38,-36C5764.38,-36 5613.38,-36 5613.38,-36 5607.38,-36 5601.38,-30 5601.38,-24 5601.38,-24 5601.38,-12 5601.38,-12 5601.38,-6 5607.38,0 5613.38,0 5613.38,0 5764.38,0 5764.38,0 5770.38,0 5776.38,-6 5776.38,-12 5776.38,-12 5776.38,-24 5776.38,-24 5776.38,-30 5770.38,-36 5764.38,-36"/>
<text xml:space="preserve" text-anchor="middle" x="5688.88" y="-19.2" font-family="Helvetica,sans-Serif" font-size="9.00">Fire Control 3x Size 3x Tracking Speed</text>
<text xml:space="preserve" text-anchor="middle" x="5688.88" y="-9.45" font-family="Helvetica,sans-Serif" font-size="9.00">29 RP</text>
</g>
<!-- Fire_Control_3_1x_Size_3_1x_Tr -->
<g id="node29" class="node">
<title>Fire_Control_3_1x_Size_3_1x_Tr</title>
<path fill="#d4edda" stroke="black" d="M5972.88,-36C5972.88,-36 5806.88,-36 5806.88,-36 5800.88,-36 5794.88,-30 5794.88,-24 5794.88,-24 5794.88,-12 5794.88,-12 5794.88,-6 5800.88,0 5806.88,0 5806.88,0 5972.88,0 5972.88,0 5978.88,0 5984.88,-6 5984.88,-12 5984.88,-12 5984.88,-24 5984.88,-24 5984.88,-30 5978.88,-36 5972.88,-36"/>
<text xml:space="preserve" text-anchor="middle" x="5889.88" y="-19.2" font-family="Helvetica,sans-Serif" font-size="9.00">Fire Control 3.1x Size 3.1x Tracking Speed</text>
<text xml:space="preserve" text-anchor="middle" x="5889.88" y="-9.45" font-family="Helvetica,sans-Serif" font-size="9.00">30 RP</text>
</g>
<!-- Fire_Control_3_2x_Size_3_2x_Tr -->
<g id="node30" class="node">
<title>Fire_Control_3_2x_Size_3_2x_Tr</title>
<path fill="#d4edda" stroke="black" d="M6180.88,-36C6180.88,-36 6014.88,-36 6014.88,-36 6008.88,-36 6002.88,-30 6002.88,-24 6002.88,-24 6002.88,-12 6002.88,-12 6002.88,-6 6008.88,0 6014.88,0 6014.88,0 6180.88,0 6180.88,0 6186.88,0 6192.88,-6 6192.88,-12 6192.88,-12 6192.88,-24 6192.88,-24 6192.88,-30 6186.88,-36 6180.88,-36"/>
<text xml:space="preserve" text-anchor="middle" x="6097.88" y="-19.2" font-family="Helvetica,sans-Serif" font-size="9.00">Fire Control 3.2x Size 3.2x Tracking Speed</text>
<text xml:space="preserve" text-anchor="middle" x="6097.88" y="-9.45" font-family="Helvetica,sans-Serif" font-size="9.00">31 RP</text>
</g>
<!-- Fire_Control_3_3x_Size_3_3x_Tr -->
<g id="node31" class="node">
<title>Fire_Control_3_3x_Size_3_3x_Tr</title>
<path fill="#d4edda" stroke="black" d="M6388.88,-36C6388.88,-36 6222.88,-36 6222.88,-36 6216.88,-36 6210.88,-30 6210.88,-24 6210.88,-24 6210.88,-12 6210.88,-12 6210.88,-6 6216.88,0 6222.88,0 6222.88,0 6388.88,0 6388.88,0 6394.88,0 6400.88,-6 6400.88,-12 6400.88,-12 6400.88,-24 6400.88,-24 6400.88,-30 6394.88,-36 6388.88,-36"/>
<text xml:space="preserve" text-anchor="middle" x="6305.88" y="-19.2" font-family="Helvetica,sans-Serif" font-size="9.00">Fire Control 3.3x Size 3.3x Tracking Speed</text>
<text xml:space="preserve" text-anchor="middle" x="6305.88" y="-9.45" font-family="Helvetica,sans-Serif" font-size="9.00">32 RP</text>
</g>
<!-- Fire_Control_3_4x_Size_3_4x_Tr -->
<g id="node32" class="node">
<title>Fire_Control_3_4x_Size_3_4x_Tr</title>
<path fill="#d4edda" stroke="black" d="M6596.88,-36C6596.88,-36 6430.88,-36 6430.88,-36 6424.88,-36 6418.88,-30 6418.88,-24 6418.88,-24 6418.88,-12 6418.88,-12 6418.88,-6 6424.88,0 6430.88,0 6430.88,0 6596.88,0 6596.88,0 6602.88,0 6608.88,-6 6608.88,-12 6608.88,-12 6608.88,-24 6608.88,-24 6608.88,-30 6602.88,-36 6596.88,-36"/>
<text xml:space="preserve" text-anchor="middle" x="6513.88" y="-19.2" font-family="Helvetica,sans-Serif" font-size="9.00">Fire Control 3.4x Size 3.4x Tracking Speed</text>
<text xml:space="preserve" text-anchor="middle" x="6513.88" y="-9.45" font-family="Helvetica,sans-Serif" font-size="9.00">33 RP</text>
</g>
<!-- Fire_Control_3_5x_Size_3_5x_Tr -->
<g id="node33" class="node">
<title>Fire_Control_3_5x_Size_3_5x_Tr</title>
<path fill="#d4edda" stroke="black" d="M6804.88,-36C6804.88,-36 6638.88,-36 6638.88,-36 6632.88,-36 6626.88,-30 6626.88,-24 6626.88,-24 6626.88,-12 6626.88,-12 6626.88,-6 6632.88,0 6638.88,0 6638.88,0 6804.88,0 6804.88,0 6810.88,0 6816.88,-6 6816.88,-12 6816.88,-12 6816.88,-24 6816.88,-24 6816.88,-30 6810.88,-36 6804.88,-36"/>
<text xml:space="preserve" text-anchor="middle" x="6721.88" y="-19.2" font-family="Helvetica,sans-Serif" font-size="9.00">Fire Control 3.5x Size 3.5x Tracking Speed</text>
<text xml:space="preserve" text-anchor="middle" x="6721.88" y="-9.45" font-family="Helvetica,sans-Serif" font-size="9.00">34 RP</text>
</g>
<!-- Fire_Control_3_6x_Size_3_6x_Tr -->
<g id="node34" class="node">
<title>Fire_Control_3_6x_Size_3_6x_Tr</title>
<path fill="#d4edda" stroke="black" d="M7012.88,-36C7012.88,-36 6846.88,-36 6846.88,-36 6840.88,-36 6834.88,-30 6834.88,-24 6834.88,-24 6834.88,-12 6834.88,-12 6834.88,-6 6840.88,0 6846.88,0 6846.88,0 7012.88,0 7012.88,0 7018.88,0 7024.88,-6 7024.88,-12 7024.88,-12 7024.88,-24 7024.88,-24 7024.88,-30 7018.88,-36 7012.88,-36"/>
<text xml:space="preserve" text-anchor="middle" x="6929.88" y="-19.2" font-family="Helvetica,sans-Serif" font-size="9.00">Fire Control 3.6x Size 3.6x Tracking Speed</text>
<text xml:space="preserve" text-anchor="middle" x="6929.88" y="-9.45" font-family="Helvetica,sans-Serif" font-size="9.00">35 RP</text>
</g>
<!-- Fire_Control_3_7x_Size_3_7x_Tr -->
<g id="node35" class="node">
<title>Fire_Control_3_7x_Size_3_7x_Tr</title>
<path fill="#d4edda" stroke="black" d="M7220.88,-36C7220.88,-36 7054.88,-36 7054.88,-36 7048.88,-36 7042.88,-30 7042.88,-24 7042.88,-24 7042.88,-12 7042.88,-12 7042.88,-6 7048.88,0 7054.88,0 7054.88,0 7220.88,0 7220.88,0 7226.88,0 7232.88,-6 7232.88,-12 7232.88,-12 7232.88,-24 7232.88,-24 7232.88,-30 7226.88,-36 7220.88,-36"/>
<text xml:space="preserve" text-anchor="middle" x="7137.88" y="-19.2" font-family="Helvetica,sans-Serif" font-size="9.00">Fire Control 3.7x Size 3.7x Tracking Speed</text>
<text xml:space="preserve" text-anchor="middle" x="7137.88" y="-9.45" font-family="Helvetica,sans-Serif" font-size="9.00">36 RP</text>
</g>
<!-- Fire_Control_3_8x_Size_3_8x_Tr -->
<g id="node36" class="node">
<title>Fire_Control_3_8x_Size_3_8x_Tr</title>
<path fill="#d4edda" stroke="black" d="M7428.88,-36C7428.88,-36 7262.88,-36 7262.88,-36 7256.88,-36 7250.88,-30 7250.88,-24 7250.88,-24 7250.88,-12 7250.88,-12 7250.88,-6 7256.88,0 7262.88,0 7262.88,0 7428.88,0 7428.88,0 7434.88,0 7440.88,-6 7440.88,-12 7440.88,-12 7440.88,-24 7440.88,-24 7440.88,-30 7434.88,-36 7428.88,-36"/>
<text xml:space="preserve" text-anchor="middle" x="7345.88" y="-19.2" font-family="Helvetica,sans-Serif" font-size="9.00">Fire Control 3.8x Size 3.8x Tracking Speed</text>
<text xml:space="preserve" text-anchor="middle" x="7345.88" y="-9.45" font-family="Helvetica,sans-Serif" font-size="9.00">37 RP</text>
</g>
<!-- Fire_Control_3_9x_Size_3_9x_Tr -->
<g id="node37" class="node">
<title>Fire_Control_3_9x_Size_3_9x_Tr</title>
<path fill="#d4edda" stroke="black" d="M7636.88,-36C7636.88,-36 7470.88,-36 7470.88,-36 7464.88,-36 7458.88,-30 7458.88,-24 7458.88,-24 7458.88,-12 7458.88,-12 7458.88,-6 7464.88,0 7470.88,0 7470.88,0 7636.88,0 7636.88,0 7642.88,0 7648.88,-6 7648.88,-12 7648.88,-12 7648.88,-24 7648.88,-24 7648.88,-30 7642.88,-36 7636.88,-36"/>
<text xml:space="preserve" text-anchor="middle" x="7553.88" y="-19.2" font-family="Helvetica,sans-Serif" font-size="9.00">Fire Control 3.9x Size 3.9x Tracking Speed</text>
<text xml:space="preserve" text-anchor="middle" x="7553.88" y="-9.45" font-family="Helvetica,sans-Serif" font-size="9.00">38 RP</text>
</g>
<!-- Fire_Control_4x_Size_4x_Tracki -->
<g id="node38" class="node">
<title>Fire_Control_4x_Size_4x_Tracki</title>
<path fill="#d4edda" stroke="black" d="M7830.38,-36C7830.38,-36 7679.38,-36 7679.38,-36 7673.38,-36 7667.38,-30 7667.38,-24 7667.38,-24 7667.38,-12 7667.38,-12 7667.38,-6 7673.38,0 7679.38,0 7679.38,0 7830.38,0 7830.38,0 7836.38,0 7842.38,-6 7842.38,-12 7842.38,-12 7842.38,-24 7842.38,-24 7842.38,-30 7836.38,-36 7830.38,-36"/>
<text xml:space="preserve" text-anchor="middle" x="7754.88" y="-19.2" font-family="Helvetica,sans-Serif" font-size="9.00">Fire Control 4x Size 4x Tracking Speed</text>
<text xml:space="preserve" text-anchor="middle" x="7754.88" y="-9.45" font-family="Helvetica,sans-Serif" font-size="9.00">39 RP</text>
</g>
</g>
</svg>
