<?xml version="1.0" encoding="UTF-8" standalone="no"?>
<!DOCTYPE svg PUBLIC "-//W3C//DTD SVG 1.1//EN"
 "http://www.w3.org/Graphics/SVG/1.1/DTD/svg11.dtd">
<!-- Generated by graphviz version 14.1.2 (20260124.0452)
 -->
<!-- Title: TechTree Pages: 1 -->
<svg width="151pt" height="65pt"
 viewBox="0.00 0.00 151.00 65.00" xmlns="http://www.w3.org/2000/svg" xmlns:xlink="http://www.w3.org/1999/xlink">
<g id="graph0" class="graph" transform="scale(1 1) rotate(0) translate(4 60.75)">
<title>TechTree</title>
<polygon fill="white" stroke="none" points="-4,4 -4,-60.75 146.75,-60.75 146.75,4 -4,4"/>
<text xml:space="preserve" text-anchor="middle" x="71.38" y="-41.35" font-family="Helvetica,sans-Serif" font-weight="bold" font-size="12.00">Forward Fire Direction</text>
<!-- Forward_Fire_Direction -->
<g id="node1" class="node">
<title>Forward_Fire_Direction</title>
<path fill="#cce5ff" stroke="black" d="M112.75,-36C112.75,-36 30,-36 30,-36 24,-36 18,-30 18,-24 18,-24 18,-12 18,-12 18,-6 24,0 30,0 30,0 112.75,0 112.75,0 118.75,0 124.75,-6 124.75,-12 124.75,-12 124.75,-24 124.75,-24 124.75,-30 118.75,-36 112.75,-36"/>
<text xml:space="preserve" text-anchor="middle" x="71.38" y="-19.2" font-family="Helvetica,sans-Serif" font-size="9.00">Forward Fire Direction</text>
<text xml:space="preserve" text-anchor="middle" x="71.38" y="-9.45" font-family="Helvetica,sans-Serif" font-size="9.00">1K RP</text>
</g>
</g>
</svg>
