<?xml version="1.0" encoding="UTF-8" standalone="no"?>
<!DOCTYPE svg PUBLIC "-//W3C//DTD SVG 1.1//EN"
 "http://www.w3.org/Graphics/SVG/1.1/DTD/svg11.dtd">
<!-- Generated by graphviz version 14.1.2 (20260124.0452)
 -->
<!-- Title: TechTree Pages: 1 -->
<svg width="169pt" height="67pt"
 viewBox="0.00 0.00 169.00 67.00" xmlns="http://www.w3.org/2000/svg" xmlns:xlink="http://www.w3.org/1999/xlink">
<g id="graph0" class="graph" transform="scale(1 1) rotate(0) translate(4 63)">
<title>TechTree</title>
<polygon fill="white" stroke="none" points="-4,4 -4,-63 164.75,-63 164.75,4 -4,4"/>
<text xml:space="preserve" text-anchor="middle" x="80.38" y="-41.7" font-family="Helvetica,sans-Serif" font-weight="bold" font-size="14.00">Forward Fire Direction</text>
<!-- Forward_Fire_Direction -->
<g id="node1" class="node">
<title>Forward_Fire_Direction</title>
<path fill="#cce5ff" stroke="black" d="M124.75,-36C124.75,-36 36,-36 36,-36 30,-36 24,-30 24,-24 24,-24 24,-12 24,-12 24,-6 30,0 36,0 36,0 124.75,0 124.75,0 130.75,0 136.75,-6 136.75,-12 136.75,-12 136.75,-24 136.75,-24 136.75,-30 130.75,-36 124.75,-36"/>
<text xml:space="preserve" text-anchor="middle" x="80.38" y="-19.75" font-family="Helvetica,sans-Serif" font-size="10.00">Forward Fire Direction</text>
<text xml:space="preserve" text-anchor="middle" x="80.38" y="-8.5" font-family="Helvetica,sans-Serif" font-size="10.00">1K RP</text>
</g>
</g>
</svg>
