<?xml version="1.0" encoding="UTF-8" standalone="no"?>
<!DOCTYPE svg PUBLIC "-//W3C//DTD SVG 1.1//EN"
 "http://www.w3.org/Graphics/SVG/1.1/DTD/svg11.dtd">
<!-- Generated by graphviz version 14.1.2 (20260124.0452)
 -->
<!-- Title: TechTree Pages: 1 -->
<svg width="949pt" height="65pt"
 viewBox="0.00 0.00 949.00 65.00" xmlns="http://www.w3.org/2000/svg" xmlns:xlink="http://www.w3.org/1999/xlink">
<g id="graph0" class="graph" transform="scale(1 1) rotate(0) translate(4 60.75)">
<title>TechTree</title>
<polygon fill="white" stroke="none" points="-4,4 -4,-60.75 945.38,-60.75 945.38,4 -4,4"/>
<text xml:space="preserve" text-anchor="middle" x="470.69" y="-41.35" font-family="Helvetica,sans-Serif" font-weight="bold" font-size="12.00">Fuel Storage</text>
<!-- Fuel_Storage -->
<g id="node1" class="node">
<title>Fuel_Storage</title>
<path fill="#d4edda" stroke="black" d="M56.5,-36C56.5,-36 12,-36 12,-36 6,-36 0,-30 0,-24 0,-24 0,-12 0,-12 0,-6 6,0 12,0 12,0 56.5,0 56.5,0 62.5,0 68.5,-6 68.5,-12 68.5,-12 68.5,-24 68.5,-24 68.5,-30 62.5,-36 56.5,-36"/>
<text xml:space="preserve" text-anchor="middle" x="34.25" y="-19.2" font-family="Helvetica,sans-Serif" font-size="9.00">Fuel Storage</text>
<text xml:space="preserve" text-anchor="middle" x="34.25" y="-9.45" font-family="Helvetica,sans-Serif" font-size="9.00">1 RP</text>
</g>
<!-- Fuel_Storage___Large -->
<g id="node2" class="node">
<title>Fuel_Storage___Large</title>
<path fill="#d4edda" stroke="black" d="M174.25,-36C174.25,-36 98.25,-36 98.25,-36 92.25,-36 86.25,-30 86.25,-24 86.25,-24 86.25,-12 86.25,-12 86.25,-6 92.25,0 98.25,0 98.25,0 174.25,0 174.25,0 180.25,0 186.25,-6 186.25,-12 186.25,-12 186.25,-24 186.25,-24 186.25,-30 180.25,-36 174.25,-36"/>
<text xml:space="preserve" text-anchor="middle" x="136.25" y="-19.2" font-family="Helvetica,sans-Serif" font-size="9.00">Fuel Storage &#45; Large</text>
<text xml:space="preserve" text-anchor="middle" x="136.25" y="-9.45" font-family="Helvetica,sans-Serif" font-size="9.00">2 RP</text>
</g>
<!-- Fuel_Storage___Very_Large -->
<g id="node3" class="node">
<title>Fuel_Storage___Very_Large</title>
<path fill="#d4edda" stroke="black" d="M312.38,-36C312.38,-36 216.12,-36 216.12,-36 210.12,-36 204.12,-30 204.12,-24 204.12,-24 204.12,-12 204.12,-12 204.12,-6 210.12,0 216.12,0 216.12,0 312.38,0 312.38,0 318.38,0 324.38,-6 324.38,-12 324.38,-12 324.38,-24 324.38,-24 324.38,-30 318.38,-36 312.38,-36"/>
<text xml:space="preserve" text-anchor="middle" x="264.25" y="-19.2" font-family="Helvetica,sans-Serif" font-size="9.00">Fuel Storage &#45; Very Large</text>
<text xml:space="preserve" text-anchor="middle" x="264.25" y="-9.45" font-family="Helvetica,sans-Serif" font-size="9.00">3 RP</text>
</g>
<!-- Fuel_Storage___Ultra_Large -->
<g id="node4" class="node">
<title>Fuel_Storage___Ultra_Large</title>
<path fill="#d4edda" stroke="black" d="M452.12,-36C452.12,-36 354.38,-36 354.38,-36 348.38,-36 342.38,-30 342.38,-24 342.38,-24 342.38,-12 342.38,-12 342.38,-6 348.38,0 354.38,0 354.38,0 452.12,0 452.12,0 458.12,0 464.12,-6 464.12,-12 464.12,-12 464.12,-24 464.12,-24 464.12,-30 458.12,-36 452.12,-36"/>
<text xml:space="preserve" text-anchor="middle" x="403.25" y="-19.2" font-family="Helvetica,sans-Serif" font-size="9.00">Fuel Storage &#45; Ultra Large</text>
<text xml:space="preserve" text-anchor="middle" x="403.25" y="-9.45" font-family="Helvetica,sans-Serif" font-size="9.00">4 RP</text>
</g>
<!-- Fuel_Storage___Small -->
<g id="node5" class="node">
<title>Fuel_Storage___Small</title>
<path fill="#d4edda" stroke="black" d="M569.88,-36C569.88,-36 494.62,-36 494.62,-36 488.62,-36 482.62,-30 482.62,-24 482.62,-24 482.62,-12 482.62,-12 482.62,-6 488.62,0 494.62,0 494.62,0 569.88,0 569.88,0 575.88,0 581.88,-6 581.88,-12 581.88,-12 581.88,-24 581.88,-24 581.88,-30 575.88,-36 569.88,-36"/>
<text xml:space="preserve" text-anchor="middle" x="532.25" y="-19.2" font-family="Helvetica,sans-Serif" font-size="9.00">Fuel Storage &#45; Small</text>
<text xml:space="preserve" text-anchor="middle" x="532.25" y="-9.45" font-family="Helvetica,sans-Serif" font-size="9.00">5 RP</text>
</g>
<!-- Fuel_Storage___Tiny -->
<g id="node6" class="node">
<title>Fuel_Storage___Tiny</title>
<path fill="#d4edda" stroke="black" d="M680.5,-36C680.5,-36 612,-36 612,-36 606,-36 600,-30 600,-24 600,-24 600,-12 600,-12 600,-6 606,0 612,0 612,0 680.5,0 680.5,0 686.5,0 692.5,-6 692.5,-12 692.5,-12 692.5,-24 692.5,-24 692.5,-30 686.5,-36 680.5,-36"/>
<text xml:space="preserve" text-anchor="middle" x="646.25" y="-19.2" font-family="Helvetica,sans-Serif" font-size="9.00">Fuel Storage &#45; Tiny</text>
<text xml:space="preserve" text-anchor="middle" x="646.25" y="-9.45" font-family="Helvetica,sans-Serif" font-size="9.00">6 RP</text>
</g>
<!-- Fuel_Storage___Fighter -->
<g id="node7" class="node">
<title>Fuel_Storage___Fighter</title>
<path fill="#d4edda" stroke="black" d="M803.5,-36C803.5,-36 723,-36 723,-36 717,-36 711,-30 711,-24 711,-24 711,-12 711,-12 711,-6 717,0 723,0 723,0 803.5,0 803.5,0 809.5,0 815.5,-6 815.5,-12 815.5,-12 815.5,-24 815.5,-24 815.5,-30 809.5,-36 803.5,-36"/>
<text xml:space="preserve" text-anchor="middle" x="763.25" y="-19.2" font-family="Helvetica,sans-Serif" font-size="9.00">Fuel Storage &#45; Fighter</text>
<text xml:space="preserve" text-anchor="middle" x="763.25" y="-9.45" font-family="Helvetica,sans-Serif" font-size="9.00">7 RP</text>
</g>
<!-- Fuel_Storage___Minimal -->
<g id="node8" class="node">
<title>Fuel_Storage___Minimal</title>
<path fill="#d4edda" stroke="black" d="M929.38,-36C929.38,-36 845.12,-36 845.12,-36 839.12,-36 833.12,-30 833.12,-24 833.12,-24 833.12,-12 833.12,-12 833.12,-6 839.12,0 845.12,0 845.12,0 929.38,0 929.38,0 935.38,0 941.38,-6 941.38,-12 941.38,-12 941.38,-24 941.38,-24 941.38,-30 935.38,-36 929.38,-36"/>
<text xml:space="preserve" text-anchor="middle" x="887.25" y="-19.2" font-family="Helvetica,sans-Serif" font-size="9.00">Fuel Storage &#45; Minimal</text>
<text xml:space="preserve" text-anchor="middle" x="887.25" y="-9.45" font-family="Helvetica,sans-Serif" font-size="9.00">8 RP</text>
</g>
</g>
</svg>
