<?xml version="1.0" encoding="UTF-8" standalone="no"?>
<!DOCTYPE svg PUBLIC "-//W3C//DTD SVG 1.1//EN"
 "http://www.w3.org/Graphics/SVG/1.1/DTD/svg11.dtd">
<!-- Generated by graphviz version 14.1.2 (20260124.0452)
 -->
<!-- Title: TechTree Pages: 1 -->
<svg width="435pt" height="929pt"
 viewBox="0.00 0.00 435.00 929.00" xmlns="http://www.w3.org/2000/svg" xmlns:xlink="http://www.w3.org/1999/xlink">
<g id="graph0" class="graph" transform="scale(1 1) rotate(0) translate(4 924.75)">
<title>TechTree</title>
<polygon fill="white" stroke="none" points="-4,4 -4,-924.75 430.5,-924.75 430.5,4 -4,4"/>
<text xml:space="preserve" text-anchor="middle" x="213.25" y="-905.35" font-family="Helvetica,sans-Serif" font-weight="bold" font-size="12.00">Fuel Consumption</text>
<!-- Fuel_Consumption__1_Litre_per_ -->
<g id="node1" class="node">
<title>Fuel_Consumption__1_Litre_per_</title>
<path fill="#d4edda" stroke="black" d="M207.25,-900C207.25,-900 12,-900 12,-900 6,-900 0,-894 0,-888 0,-888 0,-876 0,-876 0,-870 6,-864 12,-864 12,-864 207.25,-864 207.25,-864 213.25,-864 219.25,-870 219.25,-876 219.25,-876 219.25,-888 219.25,-888 219.25,-894 213.25,-900 207.25,-900"/>
<text xml:space="preserve" text-anchor="middle" x="109.62" y="-883.2" font-family="Helvetica,sans-Serif" font-size="9.00">Fuel Consumption: 1 Litre per Engine Power Hour</text>
<text xml:space="preserve" text-anchor="middle" x="109.62" y="-873.45" font-family="Helvetica,sans-Serif" font-size="9.00">1 RP</text>
</g>
<!-- Fuel_Consumption__0_9_Litres_p -->
<g id="node2" class="node">
<title>Fuel_Consumption__0_9_Litres_p</title>
<path fill="#cce5ff" stroke="black" d="M409.25,-828C409.25,-828 202,-828 202,-828 196,-828 190,-822 190,-816 190,-816 190,-804 190,-804 190,-798 196,-792 202,-792 202,-792 409.25,-792 409.25,-792 415.25,-792 421.25,-798 421.25,-804 421.25,-804 421.25,-816 421.25,-816 421.25,-822 415.25,-828 409.25,-828"/>
<text xml:space="preserve" text-anchor="middle" x="305.62" y="-811.2" font-family="Helvetica,sans-Serif" font-size="9.00">Fuel Consumption: 0.9 Litres per Engine Power Hour</text>
<text xml:space="preserve" text-anchor="middle" x="305.62" y="-801.45" font-family="Helvetica,sans-Serif" font-size="9.00">1K RP</text>
</g>
<!-- Fuel_Consumption__0_8_Litres_p -->
<g id="node3" class="node">
<title>Fuel_Consumption__0_8_Litres_p</title>
<path fill="#cce5ff" stroke="black" d="M409.25,-756C409.25,-756 202,-756 202,-756 196,-756 190,-750 190,-744 190,-744 190,-732 190,-732 190,-726 196,-720 202,-720 202,-720 409.25,-720 409.25,-720 415.25,-720 421.25,-726 421.25,-732 421.25,-732 421.25,-744 421.25,-744 421.25,-750 415.25,-756 409.25,-756"/>
<text xml:space="preserve" text-anchor="middle" x="305.62" y="-739.2" font-family="Helvetica,sans-Serif" font-size="9.00">Fuel Consumption: 0.8 Litres per Engine Power Hour</text>
<text xml:space="preserve" text-anchor="middle" x="305.62" y="-729.45" font-family="Helvetica,sans-Serif" font-size="9.00">2K RP</text>
</g>
<!-- Fuel_Consumption__0_9_Litres_p&#45;&gt;Fuel_Consumption__0_8_Litres_p -->
<g id="edge2" class="edge">
<title>Fuel_Consumption__0_9_Litres_p&#45;&gt;Fuel_Consumption__0_8_Litres_p</title>
<path fill="none" stroke="black" d="M305.62,-791.7C305.62,-783.22 305.62,-772.86 305.62,-763.58"/>
<polygon fill="black" stroke="black" points="307.73,-763.62 305.63,-757.62 303.53,-763.62 307.73,-763.62"/>
</g>
<!-- Fuel_Consumption__0_7_Litres_p -->
<g id="node4" class="node">
<title>Fuel_Consumption__0_7_Litres_p</title>
<path fill="#cce5ff" stroke="black" d="M409.25,-684C409.25,-684 202,-684 202,-684 196,-684 190,-678 190,-672 190,-672 190,-660 190,-660 190,-654 196,-648 202,-648 202,-648 409.25,-648 409.25,-648 415.25,-648 421.25,-654 421.25,-660 421.25,-660 421.25,-672 421.25,-672 421.25,-678 415.25,-684 409.25,-684"/>
<text xml:space="preserve" text-anchor="middle" x="305.62" y="-667.2" font-family="Helvetica,sans-Serif" font-size="9.00">Fuel Consumption: 0.7 Litres per Engine Power Hour</text>
<text xml:space="preserve" text-anchor="middle" x="305.62" y="-657.45" font-family="Helvetica,sans-Serif" font-size="9.00">4K RP</text>
</g>
<!-- Fuel_Consumption__0_8_Litres_p&#45;&gt;Fuel_Consumption__0_7_Litres_p -->
<g id="edge3" class="edge">
<title>Fuel_Consumption__0_8_Litres_p&#45;&gt;Fuel_Consumption__0_7_Litres_p</title>
<path fill="none" stroke="black" d="M305.62,-719.7C305.62,-711.22 305.62,-700.86 305.62,-691.58"/>
<polygon fill="black" stroke="black" points="307.73,-691.62 305.63,-685.62 303.53,-691.62 307.73,-691.62"/>
</g>
<!-- Fuel_Consumption__0_6_Litres_p -->
<g id="node5" class="node">
<title>Fuel_Consumption__0_6_Litres_p</title>
<path fill="#cce5ff" stroke="black" d="M409.25,-612C409.25,-612 202,-612 202,-612 196,-612 190,-606 190,-600 190,-600 190,-588 190,-588 190,-582 196,-576 202,-576 202,-576 409.25,-576 409.25,-576 415.25,-576 421.25,-582 421.25,-588 421.25,-588 421.25,-600 421.25,-600 421.25,-606 415.25,-612 409.25,-612"/>
<text xml:space="preserve" text-anchor="middle" x="305.62" y="-595.2" font-family="Helvetica,sans-Serif" font-size="9.00">Fuel Consumption: 0.6 Litres per Engine Power Hour</text>
<text xml:space="preserve" text-anchor="middle" x="305.62" y="-585.45" font-family="Helvetica,sans-Serif" font-size="9.00">8K RP</text>
</g>
<!-- Fuel_Consumption__0_7_Litres_p&#45;&gt;Fuel_Consumption__0_6_Litres_p -->
<g id="edge4" class="edge">
<title>Fuel_Consumption__0_7_Litres_p&#45;&gt;Fuel_Consumption__0_6_Litres_p</title>
<path fill="none" stroke="black" d="M305.62,-647.7C305.62,-639.22 305.62,-628.86 305.62,-619.58"/>
<polygon fill="black" stroke="black" points="307.73,-619.62 305.63,-613.62 303.53,-619.62 307.73,-619.62"/>
</g>
<!-- Fuel_Consumption__0_5_Litres_p -->
<g id="node6" class="node">
<title>Fuel_Consumption__0_5_Litres_p</title>
<path fill="#fff3cd" stroke="black" d="M409.25,-540C409.25,-540 202,-540 202,-540 196,-540 190,-534 190,-528 190,-528 190,-516 190,-516 190,-510 196,-504 202,-504 202,-504 409.25,-504 409.25,-504 415.25,-504 421.25,-510 421.25,-516 421.25,-516 421.25,-528 421.25,-528 421.25,-534 415.25,-540 409.25,-540"/>
<text xml:space="preserve" text-anchor="middle" x="305.62" y="-523.2" font-family="Helvetica,sans-Serif" font-size="9.00">Fuel Consumption: 0.5 Litres per Engine Power Hour</text>
<text xml:space="preserve" text-anchor="middle" x="305.62" y="-513.45" font-family="Helvetica,sans-Serif" font-size="9.00">15K RP</text>
</g>
<!-- Fuel_Consumption__0_6_Litres_p&#45;&gt;Fuel_Consumption__0_5_Litres_p -->
<g id="edge5" class="edge">
<title>Fuel_Consumption__0_6_Litres_p&#45;&gt;Fuel_Consumption__0_5_Litres_p</title>
<path fill="none" stroke="black" d="M305.62,-575.7C305.62,-567.22 305.62,-556.86 305.62,-547.58"/>
<polygon fill="black" stroke="black" points="307.73,-547.62 305.63,-541.62 303.53,-547.62 307.73,-547.62"/>
</g>
<!-- Fuel_Consumption__0_4_Litres_p -->
<g id="node7" class="node">
<title>Fuel_Consumption__0_4_Litres_p</title>
<path fill="#fff3cd" stroke="black" d="M409.25,-468C409.25,-468 202,-468 202,-468 196,-468 190,-462 190,-456 190,-456 190,-444 190,-444 190,-438 196,-432 202,-432 202,-432 409.25,-432 409.25,-432 415.25,-432 421.25,-438 421.25,-444 421.25,-444 421.25,-456 421.25,-456 421.25,-462 415.25,-468 409.25,-468"/>
<text xml:space="preserve" text-anchor="middle" x="305.62" y="-451.2" font-family="Helvetica,sans-Serif" font-size="9.00">Fuel Consumption: 0.4 Litres per Engine Power Hour</text>
<text xml:space="preserve" text-anchor="middle" x="305.62" y="-441.45" font-family="Helvetica,sans-Serif" font-size="9.00">30K RP</text>
</g>
<!-- Fuel_Consumption__0_5_Litres_p&#45;&gt;Fuel_Consumption__0_4_Litres_p -->
<g id="edge6" class="edge">
<title>Fuel_Consumption__0_5_Litres_p&#45;&gt;Fuel_Consumption__0_4_Litres_p</title>
<path fill="none" stroke="black" d="M305.62,-503.7C305.62,-495.22 305.62,-484.86 305.62,-475.58"/>
<polygon fill="black" stroke="black" points="307.73,-475.62 305.63,-469.62 303.53,-475.62 307.73,-475.62"/>
</g>
<!-- Fuel_Consumption__0_3_Litres_p -->
<g id="node8" class="node">
<title>Fuel_Consumption__0_3_Litres_p</title>
<path fill="#fff3cd" stroke="black" d="M409.25,-396C409.25,-396 202,-396 202,-396 196,-396 190,-390 190,-384 190,-384 190,-372 190,-372 190,-366 196,-360 202,-360 202,-360 409.25,-360 409.25,-360 415.25,-360 421.25,-366 421.25,-372 421.25,-372 421.25,-384 421.25,-384 421.25,-390 415.25,-396 409.25,-396"/>
<text xml:space="preserve" text-anchor="middle" x="305.62" y="-379.2" font-family="Helvetica,sans-Serif" font-size="9.00">Fuel Consumption: 0.3 Litres per Engine Power Hour</text>
<text xml:space="preserve" text-anchor="middle" x="305.62" y="-369.45" font-family="Helvetica,sans-Serif" font-size="9.00">60K RP</text>
</g>
<!-- Fuel_Consumption__0_4_Litres_p&#45;&gt;Fuel_Consumption__0_3_Litres_p -->
<g id="edge7" class="edge">
<title>Fuel_Consumption__0_4_Litres_p&#45;&gt;Fuel_Consumption__0_3_Litres_p</title>
<path fill="none" stroke="black" d="M305.62,-431.7C305.62,-423.22 305.62,-412.86 305.62,-403.58"/>
<polygon fill="black" stroke="black" points="307.73,-403.62 305.63,-397.62 303.53,-403.62 307.73,-403.62"/>
</g>
<!-- Fuel_Consumption__0_25_Litres_ -->
<g id="node9" class="node">
<title>Fuel_Consumption__0_25_Litres_</title>
<path fill="#d4c4fb" stroke="black" d="M411.88,-324C411.88,-324 199.38,-324 199.38,-324 193.38,-324 187.38,-318 187.38,-312 187.38,-312 187.38,-300 187.38,-300 187.38,-294 193.38,-288 199.38,-288 199.38,-288 411.88,-288 411.88,-288 417.88,-288 423.88,-294 423.88,-300 423.88,-300 423.88,-312 423.88,-312 423.88,-318 417.88,-324 411.88,-324"/>
<text xml:space="preserve" text-anchor="middle" x="305.62" y="-307.2" font-family="Helvetica,sans-Serif" font-size="9.00">Fuel Consumption: 0.25 Litres per Engine Power Hour</text>
<text xml:space="preserve" text-anchor="middle" x="305.62" y="-297.45" font-family="Helvetica,sans-Serif" font-size="9.00">120K RP</text>
</g>
<!-- Fuel_Consumption__0_3_Litres_p&#45;&gt;Fuel_Consumption__0_25_Litres_ -->
<g id="edge8" class="edge">
<title>Fuel_Consumption__0_3_Litres_p&#45;&gt;Fuel_Consumption__0_25_Litres_</title>
<path fill="none" stroke="black" d="M305.62,-359.7C305.62,-351.22 305.62,-340.86 305.62,-331.58"/>
<polygon fill="black" stroke="black" points="307.73,-331.62 305.63,-325.62 303.53,-331.62 307.73,-331.62"/>
</g>
<!-- Fuel_Consumption__0_2_Litres_p -->
<g id="node10" class="node">
<title>Fuel_Consumption__0_2_Litres_p</title>
<path fill="#d4c4fb" stroke="black" d="M409.25,-252C409.25,-252 202,-252 202,-252 196,-252 190,-246 190,-240 190,-240 190,-228 190,-228 190,-222 196,-216 202,-216 202,-216 409.25,-216 409.25,-216 415.25,-216 421.25,-222 421.25,-228 421.25,-228 421.25,-240 421.25,-240 421.25,-246 415.25,-252 409.25,-252"/>
<text xml:space="preserve" text-anchor="middle" x="305.62" y="-235.2" font-family="Helvetica,sans-Serif" font-size="9.00">Fuel Consumption: 0.2 Litres per Engine Power Hour</text>
<text xml:space="preserve" text-anchor="middle" x="305.62" y="-225.45" font-family="Helvetica,sans-Serif" font-size="9.00">250K RP</text>
</g>
<!-- Fuel_Consumption__0_25_Litres_&#45;&gt;Fuel_Consumption__0_2_Litres_p -->
<g id="edge9" class="edge">
<title>Fuel_Consumption__0_25_Litres_&#45;&gt;Fuel_Consumption__0_2_Litres_p</title>
<path fill="none" stroke="black" d="M305.62,-287.7C305.62,-279.22 305.62,-268.86 305.62,-259.58"/>
<polygon fill="black" stroke="black" points="307.73,-259.62 305.63,-253.62 303.53,-259.62 307.73,-259.62"/>
</g>
<!-- Fuel_Consumption__0_16_Litres_ -->
<g id="node11" class="node">
<title>Fuel_Consumption__0_16_Litres_</title>
<path fill="#d4c4fb" stroke="black" d="M411.88,-180C411.88,-180 199.38,-180 199.38,-180 193.38,-180 187.38,-174 187.38,-168 187.38,-168 187.38,-156 187.38,-156 187.38,-150 193.38,-144 199.38,-144 199.38,-144 411.88,-144 411.88,-144 417.88,-144 423.88,-150 423.88,-156 423.88,-156 423.88,-168 423.88,-168 423.88,-174 417.88,-180 411.88,-180"/>
<text xml:space="preserve" text-anchor="middle" x="305.62" y="-163.2" font-family="Helvetica,sans-Serif" font-size="9.00">Fuel Consumption: 0.16 Litres per Engine Power Hour</text>
<text xml:space="preserve" text-anchor="middle" x="305.62" y="-153.45" font-family="Helvetica,sans-Serif" font-size="9.00">500K RP</text>
</g>
<!-- Fuel_Consumption__0_2_Litres_p&#45;&gt;Fuel_Consumption__0_16_Litres_ -->
<g id="edge10" class="edge">
<title>Fuel_Consumption__0_2_Litres_p&#45;&gt;Fuel_Consumption__0_16_Litres_</title>
<path fill="none" stroke="black" d="M305.62,-215.7C305.62,-207.22 305.62,-196.86 305.62,-187.58"/>
<polygon fill="black" stroke="black" points="307.73,-187.62 305.63,-181.62 303.53,-187.62 307.73,-187.62"/>
</g>
<!-- Fuel_Consumption__0_125_Litres -->
<g id="node12" class="node">
<title>Fuel_Consumption__0_125_Litres</title>
<path fill="#d4c4fb" stroke="black" d="M414.5,-108C414.5,-108 196.75,-108 196.75,-108 190.75,-108 184.75,-102 184.75,-96 184.75,-96 184.75,-84 184.75,-84 184.75,-78 190.75,-72 196.75,-72 196.75,-72 414.5,-72 414.5,-72 420.5,-72 426.5,-78 426.5,-84 426.5,-84 426.5,-96 426.5,-96 426.5,-102 420.5,-108 414.5,-108"/>
<text xml:space="preserve" text-anchor="middle" x="305.62" y="-91.2" font-family="Helvetica,sans-Serif" font-size="9.00">Fuel Consumption: 0.125 Litres per Engine Power Hour</text>
<text xml:space="preserve" text-anchor="middle" x="305.62" y="-81.45" font-family="Helvetica,sans-Serif" font-size="9.00">1.0M RP</text>
</g>
<!-- Fuel_Consumption__0_16_Litres_&#45;&gt;Fuel_Consumption__0_125_Litres -->
<g id="edge11" class="edge">
<title>Fuel_Consumption__0_16_Litres_&#45;&gt;Fuel_Consumption__0_125_Litres</title>
<path fill="none" stroke="black" d="M305.62,-143.7C305.62,-135.22 305.62,-124.86 305.62,-115.58"/>
<polygon fill="black" stroke="black" points="307.73,-115.62 305.63,-109.62 303.53,-115.62 307.73,-115.62"/>
</g>
<!-- Fuel_Consumption__0_1_Litres_p -->
<g id="node13" class="node">
<title>Fuel_Consumption__0_1_Litres_p</title>
<path fill="#f8d7da" stroke="black" d="M409.25,-36C409.25,-36 202,-36 202,-36 196,-36 190,-30 190,-24 190,-24 190,-12 190,-12 190,-6 196,0 202,0 202,0 409.25,0 409.25,0 415.25,0 421.25,-6 421.25,-12 421.25,-12 421.25,-24 421.25,-24 421.25,-30 415.25,-36 409.25,-36"/>
<text xml:space="preserve" text-anchor="middle" x="305.62" y="-19.2" font-family="Helvetica,sans-Serif" font-size="9.00">Fuel Consumption: 0.1 Litres per Engine Power Hour</text>
<text xml:space="preserve" text-anchor="middle" x="305.62" y="-9.45" font-family="Helvetica,sans-Serif" font-size="9.00">2.0M RP</text>
</g>
<!-- Fuel_Consumption__0_125_Litres&#45;&gt;Fuel_Consumption__0_1_Litres_p -->
<g id="edge12" class="edge">
<title>Fuel_Consumption__0_125_Litres&#45;&gt;Fuel_Consumption__0_1_Litres_p</title>
<path fill="none" stroke="black" d="M305.62,-71.7C305.62,-63.22 305.62,-52.86 305.62,-43.58"/>
<polygon fill="black" stroke="black" points="307.73,-43.62 305.63,-37.62 303.53,-43.62 307.73,-43.62"/>
</g>
<!-- ext_Trans_Newtonian_Technology -->
<g id="node14" class="node">
<title>ext_Trans_Newtonian_Technology</title>
<path fill="#f0f0f0" stroke="black" stroke-dasharray="5,2" d="M361.62,-900C361.62,-900 249.62,-900 249.62,-900 243.62,-900 237.62,-894 237.62,-888 237.62,-888 237.62,-876 237.62,-876 237.62,-870 243.62,-864 249.62,-864 249.62,-864 361.62,-864 361.62,-864 367.62,-864 373.62,-870 373.62,-876 373.62,-876 373.62,-888 373.62,-888 373.62,-894 367.62,-900 361.62,-900"/>
<text xml:space="preserve" text-anchor="middle" x="305.62" y="-878.33" font-family="Helvetica,sans-Serif" font-size="9.00">Trans&#45;Newtonian Technology</text>
</g>
<!-- ext_Trans_Newtonian_Technology&#45;&gt;Fuel_Consumption__0_9_Litres_p -->
<g id="edge1" class="edge">
<title>ext_Trans_Newtonian_Technology&#45;&gt;Fuel_Consumption__0_9_Litres_p</title>
<path fill="none" stroke="black" d="M305.62,-863.7C305.62,-855.22 305.62,-844.86 305.62,-835.58"/>
<polygon fill="black" stroke="black" points="307.73,-835.62 305.63,-829.62 303.53,-835.62 307.73,-835.62"/>
</g>
</g>
</svg>
