<?xml version="1.0" encoding="UTF-8" standalone="no"?>
<!DOCTYPE svg PUBLIC "-//W3C//DTD SVG 1.1//EN"
 "http://www.w3.org/Graphics/SVG/1.1/DTD/svg11.dtd">
<!-- Generated by graphviz version 14.1.2 (20260124.0452)
 -->
<!-- Title: TechTree Pages: 1 -->
<svg width="515pt" height="782pt"
 viewBox="0.00 0.00 515.00 782.00" xmlns="http://www.w3.org/2000/svg" xmlns:xlink="http://www.w3.org/1999/xlink">
<g id="graph0" class="graph" transform="scale(1 1) rotate(0) translate(4 778)">
<title>TechTree</title>
<polygon fill="white" stroke="none" points="-4,4 -4,-778 510.75,-778 510.75,4 -4,4"/>
<text xml:space="preserve" text-anchor="middle" x="253.38" y="-756.7" font-family="Helvetica,sans-Serif" font-weight="bold" font-size="14.00">Fuel Consumption</text>
<!-- Fuel_Consumption__1_Litre_per_ -->
<g id="node1" class="node">
<title>Fuel_Consumption__1_Litre_per_</title>
<path fill="#d4edda" stroke="black" d="M220.75,-751C220.75,-751 12,-751 12,-751 6,-751 0,-745 0,-739 0,-739 0,-727 0,-727 0,-721 6,-715 12,-715 12,-715 220.75,-715 220.75,-715 226.75,-715 232.75,-721 232.75,-727 232.75,-727 232.75,-739 232.75,-739 232.75,-745 226.75,-751 220.75,-751"/>
<text xml:space="preserve" text-anchor="middle" x="116.38" y="-734.75" font-family="Helvetica,sans-Serif" font-size="10.00">Fuel Consumption: 1 Litre per Engine Power Hour</text>
<text xml:space="preserve" text-anchor="middle" x="116.38" y="-723.5" font-family="Helvetica,sans-Serif" font-size="10.00">1 RP</text>
</g>
<!-- Fuel_Consumption__0_9_Litres_p -->
<g id="node2" class="node">
<title>Fuel_Consumption__0_9_Litres_p</title>
<path fill="#cce5ff" stroke="black" d="M489.5,-751C489.5,-751 267.25,-751 267.25,-751 261.25,-751 255.25,-745 255.25,-739 255.25,-739 255.25,-727 255.25,-727 255.25,-721 261.25,-715 267.25,-715 267.25,-715 489.5,-715 489.5,-715 495.5,-715 501.5,-721 501.5,-727 501.5,-727 501.5,-739 501.5,-739 501.5,-745 495.5,-751 489.5,-751"/>
<text xml:space="preserve" text-anchor="middle" x="378.38" y="-734.75" font-family="Helvetica,sans-Serif" font-size="10.00">Fuel Consumption: 0.9 Litres per Engine Power Hour</text>
<text xml:space="preserve" text-anchor="middle" x="378.38" y="-723.5" font-family="Helvetica,sans-Serif" font-size="10.00">1K RP</text>
</g>
<!-- Fuel_Consumption__0_8_Litres_p -->
<g id="node3" class="node">
<title>Fuel_Consumption__0_8_Litres_p</title>
<path fill="#cce5ff" stroke="black" d="M489.5,-686C489.5,-686 267.25,-686 267.25,-686 261.25,-686 255.25,-680 255.25,-674 255.25,-674 255.25,-662 255.25,-662 255.25,-656 261.25,-650 267.25,-650 267.25,-650 489.5,-650 489.5,-650 495.5,-650 501.5,-656 501.5,-662 501.5,-662 501.5,-674 501.5,-674 501.5,-680 495.5,-686 489.5,-686"/>
<text xml:space="preserve" text-anchor="middle" x="378.38" y="-669.75" font-family="Helvetica,sans-Serif" font-size="10.00">Fuel Consumption: 0.8 Litres per Engine Power Hour</text>
<text xml:space="preserve" text-anchor="middle" x="378.38" y="-658.5" font-family="Helvetica,sans-Serif" font-size="10.00">2K RP</text>
</g>
<!-- Fuel_Consumption__0_9_Litres_p&#45;&gt;Fuel_Consumption__0_8_Litres_p -->
<g id="edge1" class="edge">
<title>Fuel_Consumption__0_9_Litres_p&#45;&gt;Fuel_Consumption__0_8_Litres_p</title>
<path fill="none" stroke="black" d="M378.38,-714.78C378.38,-708.53 378.38,-701.33 378.38,-694.52"/>
<polygon fill="black" stroke="black" points="380.83,-694.71 378.38,-687.71 375.93,-694.71 380.83,-694.71"/>
</g>
<!-- Fuel_Consumption__0_7_Litres_p -->
<g id="node4" class="node">
<title>Fuel_Consumption__0_7_Litres_p</title>
<path fill="#cce5ff" stroke="black" d="M489.5,-621C489.5,-621 267.25,-621 267.25,-621 261.25,-621 255.25,-615 255.25,-609 255.25,-609 255.25,-597 255.25,-597 255.25,-591 261.25,-585 267.25,-585 267.25,-585 489.5,-585 489.5,-585 495.5,-585 501.5,-591 501.5,-597 501.5,-597 501.5,-609 501.5,-609 501.5,-615 495.5,-621 489.5,-621"/>
<text xml:space="preserve" text-anchor="middle" x="378.38" y="-604.75" font-family="Helvetica,sans-Serif" font-size="10.00">Fuel Consumption: 0.7 Litres per Engine Power Hour</text>
<text xml:space="preserve" text-anchor="middle" x="378.38" y="-593.5" font-family="Helvetica,sans-Serif" font-size="10.00">4K RP</text>
</g>
<!-- Fuel_Consumption__0_8_Litres_p&#45;&gt;Fuel_Consumption__0_7_Litres_p -->
<g id="edge2" class="edge">
<title>Fuel_Consumption__0_8_Litres_p&#45;&gt;Fuel_Consumption__0_7_Litres_p</title>
<path fill="none" stroke="black" d="M378.38,-649.78C378.38,-643.53 378.38,-636.33 378.38,-629.52"/>
<polygon fill="black" stroke="black" points="380.83,-629.71 378.38,-622.71 375.93,-629.71 380.83,-629.71"/>
</g>
<!-- Fuel_Consumption__0_6_Litres_p -->
<g id="node5" class="node">
<title>Fuel_Consumption__0_6_Litres_p</title>
<path fill="#cce5ff" stroke="black" d="M489.5,-556C489.5,-556 267.25,-556 267.25,-556 261.25,-556 255.25,-550 255.25,-544 255.25,-544 255.25,-532 255.25,-532 255.25,-526 261.25,-520 267.25,-520 267.25,-520 489.5,-520 489.5,-520 495.5,-520 501.5,-526 501.5,-532 501.5,-532 501.5,-544 501.5,-544 501.5,-550 495.5,-556 489.5,-556"/>
<text xml:space="preserve" text-anchor="middle" x="378.38" y="-539.75" font-family="Helvetica,sans-Serif" font-size="10.00">Fuel Consumption: 0.6 Litres per Engine Power Hour</text>
<text xml:space="preserve" text-anchor="middle" x="378.38" y="-528.5" font-family="Helvetica,sans-Serif" font-size="10.00">8K RP</text>
</g>
<!-- Fuel_Consumption__0_7_Litres_p&#45;&gt;Fuel_Consumption__0_6_Litres_p -->
<g id="edge3" class="edge">
<title>Fuel_Consumption__0_7_Litres_p&#45;&gt;Fuel_Consumption__0_6_Litres_p</title>
<path fill="none" stroke="black" d="M378.38,-584.78C378.38,-578.53 378.38,-571.33 378.38,-564.52"/>
<polygon fill="black" stroke="black" points="380.83,-564.71 378.38,-557.71 375.93,-564.71 380.83,-564.71"/>
</g>
<!-- Fuel_Consumption__0_5_Litres_p -->
<g id="node6" class="node">
<title>Fuel_Consumption__0_5_Litres_p</title>
<path fill="#fff3cd" stroke="black" d="M489.5,-491C489.5,-491 267.25,-491 267.25,-491 261.25,-491 255.25,-485 255.25,-479 255.25,-479 255.25,-467 255.25,-467 255.25,-461 261.25,-455 267.25,-455 267.25,-455 489.5,-455 489.5,-455 495.5,-455 501.5,-461 501.5,-467 501.5,-467 501.5,-479 501.5,-479 501.5,-485 495.5,-491 489.5,-491"/>
<text xml:space="preserve" text-anchor="middle" x="378.38" y="-474.75" font-family="Helvetica,sans-Serif" font-size="10.00">Fuel Consumption: 0.5 Litres per Engine Power Hour</text>
<text xml:space="preserve" text-anchor="middle" x="378.38" y="-463.5" font-family="Helvetica,sans-Serif" font-size="10.00">15K RP</text>
</g>
<!-- Fuel_Consumption__0_6_Litres_p&#45;&gt;Fuel_Consumption__0_5_Litres_p -->
<g id="edge4" class="edge">
<title>Fuel_Consumption__0_6_Litres_p&#45;&gt;Fuel_Consumption__0_5_Litres_p</title>
<path fill="none" stroke="black" d="M378.38,-519.78C378.38,-513.53 378.38,-506.33 378.38,-499.52"/>
<polygon fill="black" stroke="black" points="380.83,-499.71 378.38,-492.71 375.93,-499.71 380.83,-499.71"/>
</g>
<!-- Fuel_Consumption__0_4_Litres_p -->
<g id="node7" class="node">
<title>Fuel_Consumption__0_4_Litres_p</title>
<path fill="#fff3cd" stroke="black" d="M489.5,-426C489.5,-426 267.25,-426 267.25,-426 261.25,-426 255.25,-420 255.25,-414 255.25,-414 255.25,-402 255.25,-402 255.25,-396 261.25,-390 267.25,-390 267.25,-390 489.5,-390 489.5,-390 495.5,-390 501.5,-396 501.5,-402 501.5,-402 501.5,-414 501.5,-414 501.5,-420 495.5,-426 489.5,-426"/>
<text xml:space="preserve" text-anchor="middle" x="378.38" y="-409.75" font-family="Helvetica,sans-Serif" font-size="10.00">Fuel Consumption: 0.4 Litres per Engine Power Hour</text>
<text xml:space="preserve" text-anchor="middle" x="378.38" y="-398.5" font-family="Helvetica,sans-Serif" font-size="10.00">30K RP</text>
</g>
<!-- Fuel_Consumption__0_5_Litres_p&#45;&gt;Fuel_Consumption__0_4_Litres_p -->
<g id="edge5" class="edge">
<title>Fuel_Consumption__0_5_Litres_p&#45;&gt;Fuel_Consumption__0_4_Litres_p</title>
<path fill="none" stroke="black" d="M378.38,-454.78C378.38,-448.53 378.38,-441.33 378.38,-434.52"/>
<polygon fill="black" stroke="black" points="380.83,-434.71 378.38,-427.71 375.93,-434.71 380.83,-434.71"/>
</g>
<!-- Fuel_Consumption__0_3_Litres_p -->
<g id="node8" class="node">
<title>Fuel_Consumption__0_3_Litres_p</title>
<path fill="#fff3cd" stroke="black" d="M489.5,-361C489.5,-361 267.25,-361 267.25,-361 261.25,-361 255.25,-355 255.25,-349 255.25,-349 255.25,-337 255.25,-337 255.25,-331 261.25,-325 267.25,-325 267.25,-325 489.5,-325 489.5,-325 495.5,-325 501.5,-331 501.5,-337 501.5,-337 501.5,-349 501.5,-349 501.5,-355 495.5,-361 489.5,-361"/>
<text xml:space="preserve" text-anchor="middle" x="378.38" y="-344.75" font-family="Helvetica,sans-Serif" font-size="10.00">Fuel Consumption: 0.3 Litres per Engine Power Hour</text>
<text xml:space="preserve" text-anchor="middle" x="378.38" y="-333.5" font-family="Helvetica,sans-Serif" font-size="10.00">60K RP</text>
</g>
<!-- Fuel_Consumption__0_4_Litres_p&#45;&gt;Fuel_Consumption__0_3_Litres_p -->
<g id="edge6" class="edge">
<title>Fuel_Consumption__0_4_Litres_p&#45;&gt;Fuel_Consumption__0_3_Litres_p</title>
<path fill="none" stroke="black" d="M378.38,-389.78C378.38,-383.53 378.38,-376.33 378.38,-369.52"/>
<polygon fill="black" stroke="black" points="380.83,-369.71 378.38,-362.71 375.93,-369.71 380.83,-369.71"/>
</g>
<!-- Fuel_Consumption__0_25_Litres_ -->
<g id="node9" class="node">
<title>Fuel_Consumption__0_25_Litres_</title>
<path fill="#d4c4fb" stroke="black" d="M492.12,-296C492.12,-296 264.62,-296 264.62,-296 258.62,-296 252.62,-290 252.62,-284 252.62,-284 252.62,-272 252.62,-272 252.62,-266 258.62,-260 264.62,-260 264.62,-260 492.12,-260 492.12,-260 498.12,-260 504.12,-266 504.12,-272 504.12,-272 504.12,-284 504.12,-284 504.12,-290 498.12,-296 492.12,-296"/>
<text xml:space="preserve" text-anchor="middle" x="378.38" y="-279.75" font-family="Helvetica,sans-Serif" font-size="10.00">Fuel Consumption: 0.25 Litres per Engine Power Hour</text>
<text xml:space="preserve" text-anchor="middle" x="378.38" y="-268.5" font-family="Helvetica,sans-Serif" font-size="10.00">120K RP</text>
</g>
<!-- Fuel_Consumption__0_3_Litres_p&#45;&gt;Fuel_Consumption__0_25_Litres_ -->
<g id="edge7" class="edge">
<title>Fuel_Consumption__0_3_Litres_p&#45;&gt;Fuel_Consumption__0_25_Litres_</title>
<path fill="none" stroke="black" d="M378.38,-324.78C378.38,-318.53 378.38,-311.33 378.38,-304.52"/>
<polygon fill="black" stroke="black" points="380.83,-304.71 378.38,-297.71 375.93,-304.71 380.83,-304.71"/>
</g>
<!-- Fuel_Consumption__0_2_Litres_p -->
<g id="node10" class="node">
<title>Fuel_Consumption__0_2_Litres_p</title>
<path fill="#d4c4fb" stroke="black" d="M489.5,-231C489.5,-231 267.25,-231 267.25,-231 261.25,-231 255.25,-225 255.25,-219 255.25,-219 255.25,-207 255.25,-207 255.25,-201 261.25,-195 267.25,-195 267.25,-195 489.5,-195 489.5,-195 495.5,-195 501.5,-201 501.5,-207 501.5,-207 501.5,-219 501.5,-219 501.5,-225 495.5,-231 489.5,-231"/>
<text xml:space="preserve" text-anchor="middle" x="378.38" y="-214.75" font-family="Helvetica,sans-Serif" font-size="10.00">Fuel Consumption: 0.2 Litres per Engine Power Hour</text>
<text xml:space="preserve" text-anchor="middle" x="378.38" y="-203.5" font-family="Helvetica,sans-Serif" font-size="10.00">250K RP</text>
</g>
<!-- Fuel_Consumption__0_25_Litres_&#45;&gt;Fuel_Consumption__0_2_Litres_p -->
<g id="edge8" class="edge">
<title>Fuel_Consumption__0_25_Litres_&#45;&gt;Fuel_Consumption__0_2_Litres_p</title>
<path fill="none" stroke="black" d="M378.38,-259.78C378.38,-253.53 378.38,-246.33 378.38,-239.52"/>
<polygon fill="black" stroke="black" points="380.83,-239.71 378.38,-232.71 375.93,-239.71 380.83,-239.71"/>
</g>
<!-- Fuel_Consumption__0_16_Litres_ -->
<g id="node11" class="node">
<title>Fuel_Consumption__0_16_Litres_</title>
<path fill="#d4c4fb" stroke="black" d="M492.12,-166C492.12,-166 264.62,-166 264.62,-166 258.62,-166 252.62,-160 252.62,-154 252.62,-154 252.62,-142 252.62,-142 252.62,-136 258.62,-130 264.62,-130 264.62,-130 492.12,-130 492.12,-130 498.12,-130 504.12,-136 504.12,-142 504.12,-142 504.12,-154 504.12,-154 504.12,-160 498.12,-166 492.12,-166"/>
<text xml:space="preserve" text-anchor="middle" x="378.38" y="-149.75" font-family="Helvetica,sans-Serif" font-size="10.00">Fuel Consumption: 0.16 Litres per Engine Power Hour</text>
<text xml:space="preserve" text-anchor="middle" x="378.38" y="-138.5" font-family="Helvetica,sans-Serif" font-size="10.00">500K RP</text>
</g>
<!-- Fuel_Consumption__0_2_Litres_p&#45;&gt;Fuel_Consumption__0_16_Litres_ -->
<g id="edge9" class="edge">
<title>Fuel_Consumption__0_2_Litres_p&#45;&gt;Fuel_Consumption__0_16_Litres_</title>
<path fill="none" stroke="black" d="M378.38,-194.78C378.38,-188.53 378.38,-181.33 378.38,-174.52"/>
<polygon fill="black" stroke="black" points="380.83,-174.71 378.38,-167.71 375.93,-174.71 380.83,-174.71"/>
</g>
<!-- Fuel_Consumption__0_125_Litres -->
<g id="node12" class="node">
<title>Fuel_Consumption__0_125_Litres</title>
<path fill="#d4c4fb" stroke="black" d="M494.75,-101C494.75,-101 262,-101 262,-101 256,-101 250,-95 250,-89 250,-89 250,-77 250,-77 250,-71 256,-65 262,-65 262,-65 494.75,-65 494.75,-65 500.75,-65 506.75,-71 506.75,-77 506.75,-77 506.75,-89 506.75,-89 506.75,-95 500.75,-101 494.75,-101"/>
<text xml:space="preserve" text-anchor="middle" x="378.38" y="-84.75" font-family="Helvetica,sans-Serif" font-size="10.00">Fuel Consumption: 0.125 Litres per Engine Power Hour</text>
<text xml:space="preserve" text-anchor="middle" x="378.38" y="-73.5" font-family="Helvetica,sans-Serif" font-size="10.00">1.0M RP</text>
</g>
<!-- Fuel_Consumption__0_16_Litres_&#45;&gt;Fuel_Consumption__0_125_Litres -->
<g id="edge10" class="edge">
<title>Fuel_Consumption__0_16_Litres_&#45;&gt;Fuel_Consumption__0_125_Litres</title>
<path fill="none" stroke="black" d="M378.38,-129.78C378.38,-123.53 378.38,-116.33 378.38,-109.52"/>
<polygon fill="black" stroke="black" points="380.83,-109.71 378.38,-102.71 375.93,-109.71 380.83,-109.71"/>
</g>
<!-- Fuel_Consumption__0_1_Litres_p -->
<g id="node13" class="node">
<title>Fuel_Consumption__0_1_Litres_p</title>
<path fill="#f8d7da" stroke="black" d="M489.5,-36C489.5,-36 267.25,-36 267.25,-36 261.25,-36 255.25,-30 255.25,-24 255.25,-24 255.25,-12 255.25,-12 255.25,-6 261.25,0 267.25,0 267.25,0 489.5,0 489.5,0 495.5,0 501.5,-6 501.5,-12 501.5,-12 501.5,-24 501.5,-24 501.5,-30 495.5,-36 489.5,-36"/>
<text xml:space="preserve" text-anchor="middle" x="378.38" y="-19.75" font-family="Helvetica,sans-Serif" font-size="10.00">Fuel Consumption: 0.1 Litres per Engine Power Hour</text>
<text xml:space="preserve" text-anchor="middle" x="378.38" y="-8.5" font-family="Helvetica,sans-Serif" font-size="10.00">2.0M RP</text>
</g>
<!-- Fuel_Consumption__0_125_Litres&#45;&gt;Fuel_Consumption__0_1_Litres_p -->
<g id="edge11" class="edge">
<title>Fuel_Consumption__0_125_Litres&#45;&gt;Fuel_Consumption__0_1_Litres_p</title>
<path fill="none" stroke="black" d="M378.38,-64.78C378.38,-58.53 378.38,-51.33 378.38,-44.52"/>
<polygon fill="black" stroke="black" points="380.83,-44.71 378.38,-37.71 375.93,-44.71 380.83,-44.71"/>
</g>
</g>
</svg>
