<?xml version="1.0" encoding="UTF-8" standalone="no"?>
<!DOCTYPE svg PUBLIC "-//W3C//DTD SVG 1.1//EN"
 "http://www.w3.org/Graphics/SVG/1.1/DTD/svg11.dtd">
<!-- Generated by graphviz version 14.1.2 (20260124.0452)
 -->
<!-- Title: TechTree Pages: 1 -->
<svg width="1023pt" height="67pt"
 viewBox="0.00 0.00 1023.00 67.00" xmlns="http://www.w3.org/2000/svg" xmlns:xlink="http://www.w3.org/1999/xlink">
<g id="graph0" class="graph" transform="scale(1 1) rotate(0) translate(4 63)">
<title>TechTree</title>
<polygon fill="white" stroke="none" points="-4,4 -4,-63 1018.88,-63 1018.88,4 -4,4"/>
<text xml:space="preserve" text-anchor="middle" x="507.44" y="-41.7" font-family="Helvetica,sans-Serif" font-weight="bold" font-size="14.00">Fuel Storage</text>
<!-- Fuel_Storage -->
<g id="node1" class="node">
<title>Fuel_Storage</title>
<path fill="#d4edda" stroke="black" d="M59.5,-36C59.5,-36 12,-36 12,-36 6,-36 0,-30 0,-24 0,-24 0,-12 0,-12 0,-6 6,0 12,0 12,0 59.5,0 59.5,0 65.5,0 71.5,-6 71.5,-12 71.5,-12 71.5,-24 71.5,-24 71.5,-30 65.5,-36 59.5,-36"/>
<text xml:space="preserve" text-anchor="middle" x="35.75" y="-19.75" font-family="Helvetica,sans-Serif" font-size="10.00">Fuel Storage</text>
<text xml:space="preserve" text-anchor="middle" x="35.75" y="-8.5" font-family="Helvetica,sans-Serif" font-size="10.00">1 RP</text>
</g>
<!-- Fuel_Storage___Large -->
<g id="node2" class="node">
<title>Fuel_Storage___Large</title>
<path fill="#d4edda" stroke="black" d="M186,-36C186,-36 105.5,-36 105.5,-36 99.5,-36 93.5,-30 93.5,-24 93.5,-24 93.5,-12 93.5,-12 93.5,-6 99.5,0 105.5,0 105.5,0 186,0 186,0 192,0 198,-6 198,-12 198,-12 198,-24 198,-24 198,-30 192,-36 186,-36"/>
<text xml:space="preserve" text-anchor="middle" x="145.75" y="-19.75" font-family="Helvetica,sans-Serif" font-size="10.00">Fuel Storage &#45; Large</text>
<text xml:space="preserve" text-anchor="middle" x="145.75" y="-8.5" font-family="Helvetica,sans-Serif" font-size="10.00">2 RP</text>
</g>
<!-- Fuel_Storage___Very_Large -->
<g id="node3" class="node">
<title>Fuel_Storage___Very_Large</title>
<path fill="#d4edda" stroke="black" d="M335.62,-36C335.62,-36 231.88,-36 231.88,-36 225.88,-36 219.88,-30 219.88,-24 219.88,-24 219.88,-12 219.88,-12 219.88,-6 225.88,0 231.88,0 231.88,0 335.62,0 335.62,0 341.62,0 347.62,-6 347.62,-12 347.62,-12 347.62,-24 347.62,-24 347.62,-30 341.62,-36 335.62,-36"/>
<text xml:space="preserve" text-anchor="middle" x="283.75" y="-19.75" font-family="Helvetica,sans-Serif" font-size="10.00">Fuel Storage &#45; Very Large</text>
<text xml:space="preserve" text-anchor="middle" x="283.75" y="-8.5" font-family="Helvetica,sans-Serif" font-size="10.00">3 RP</text>
</g>
<!-- Fuel_Storage___Ultra_Large -->
<g id="node4" class="node">
<title>Fuel_Storage___Ultra_Large</title>
<path fill="#d4edda" stroke="black" d="M486,-36C486,-36 381.5,-36 381.5,-36 375.5,-36 369.5,-30 369.5,-24 369.5,-24 369.5,-12 369.5,-12 369.5,-6 375.5,0 381.5,0 381.5,0 486,0 486,0 492,0 498,-6 498,-12 498,-12 498,-24 498,-24 498,-30 492,-36 486,-36"/>
<text xml:space="preserve" text-anchor="middle" x="433.75" y="-19.75" font-family="Helvetica,sans-Serif" font-size="10.00">Fuel Storage &#45; Ultra Large</text>
<text xml:space="preserve" text-anchor="middle" x="433.75" y="-8.5" font-family="Helvetica,sans-Serif" font-size="10.00">4 RP</text>
</g>
<!-- Fuel_Storage___Small -->
<g id="node5" class="node">
<title>Fuel_Storage___Small</title>
<path fill="#d4edda" stroke="black" d="M613.38,-36C613.38,-36 532.12,-36 532.12,-36 526.12,-36 520.12,-30 520.12,-24 520.12,-24 520.12,-12 520.12,-12 520.12,-6 526.12,0 532.12,0 532.12,0 613.38,0 613.38,0 619.38,0 625.38,-6 625.38,-12 625.38,-12 625.38,-24 625.38,-24 625.38,-30 619.38,-36 613.38,-36"/>
<text xml:space="preserve" text-anchor="middle" x="572.75" y="-19.75" font-family="Helvetica,sans-Serif" font-size="10.00">Fuel Storage &#45; Small</text>
<text xml:space="preserve" text-anchor="middle" x="572.75" y="-8.5" font-family="Helvetica,sans-Serif" font-size="10.00">5 RP</text>
</g>
<!-- Fuel_Storage___Tiny -->
<g id="node6" class="node">
<title>Fuel_Storage___Tiny</title>
<path fill="#d4edda" stroke="black" d="M734.38,-36C734.38,-36 659.12,-36 659.12,-36 653.12,-36 647.12,-30 647.12,-24 647.12,-24 647.12,-12 647.12,-12 647.12,-6 653.12,0 659.12,0 659.12,0 734.38,0 734.38,0 740.38,0 746.38,-6 746.38,-12 746.38,-12 746.38,-24 746.38,-24 746.38,-30 740.38,-36 734.38,-36"/>
<text xml:space="preserve" text-anchor="middle" x="696.75" y="-19.75" font-family="Helvetica,sans-Serif" font-size="10.00">Fuel Storage &#45; Tiny</text>
<text xml:space="preserve" text-anchor="middle" x="696.75" y="-8.5" font-family="Helvetica,sans-Serif" font-size="10.00">6 RP</text>
</g>
<!-- Fuel_Storage___Fighter -->
<g id="node7" class="node">
<title>Fuel_Storage___Fighter</title>
<path fill="#d4edda" stroke="black" d="M867,-36C867,-36 780.5,-36 780.5,-36 774.5,-36 768.5,-30 768.5,-24 768.5,-24 768.5,-12 768.5,-12 768.5,-6 774.5,0 780.5,0 780.5,0 867,0 867,0 873,0 879,-6 879,-12 879,-12 879,-24 879,-24 879,-30 873,-36 867,-36"/>
<text xml:space="preserve" text-anchor="middle" x="823.75" y="-19.75" font-family="Helvetica,sans-Serif" font-size="10.00">Fuel Storage &#45; Fighter</text>
<text xml:space="preserve" text-anchor="middle" x="823.75" y="-8.5" font-family="Helvetica,sans-Serif" font-size="10.00">7 RP</text>
</g>
<!-- Fuel_Storage___Minimal -->
<g id="node8" class="node">
<title>Fuel_Storage___Minimal</title>
<path fill="#d4edda" stroke="black" d="M1002.88,-36C1002.88,-36 912.62,-36 912.62,-36 906.62,-36 900.62,-30 900.62,-24 900.62,-24 900.62,-12 900.62,-12 900.62,-6 906.62,0 912.62,0 912.62,0 1002.88,0 1002.88,0 1008.88,0 1014.88,-6 1014.88,-12 1014.88,-12 1014.88,-24 1014.88,-24 1014.88,-30 1008.88,-36 1002.88,-36"/>
<text xml:space="preserve" text-anchor="middle" x="957.75" y="-19.75" font-family="Helvetica,sans-Serif" font-size="10.00">Fuel Storage &#45; Minimal</text>
<text xml:space="preserve" text-anchor="middle" x="957.75" y="-8.5" font-family="Helvetica,sans-Serif" font-size="10.00">8 RP</text>
</g>
</g>
</svg>
