<?xml version="1.0" encoding="UTF-8" standalone="no"?>
<!DOCTYPE svg PUBLIC "-//W3C//DTD SVG 1.1//EN"
 "http://www.w3.org/Graphics/SVG/1.1/DTD/svg11.dtd">
<!-- Generated by graphviz version 14.1.2 (20260124.0452)
 -->
<!-- Title: TechTree Pages: 1 -->
<svg width="183pt" height="497pt"
 viewBox="0.00 0.00 183.00 497.00" xmlns="http://www.w3.org/2000/svg" xmlns:xlink="http://www.w3.org/1999/xlink">
<g id="graph0" class="graph" transform="scale(1 1) rotate(0) translate(4 492.75)">
<title>TechTree</title>
<polygon fill="white" stroke="none" points="-4,4 -4,-492.75 179,-492.75 179,4 -4,4"/>
<text xml:space="preserve" text-anchor="middle" x="87.5" y="-473.35" font-family="Helvetica,sans-Serif" font-weight="bold" font-size="12.00">Gauss Cannon Velocity</text>
<!-- Gauss_Cannon_Launch_Velocity_1 -->
<g id="node1" class="node">
<title>Gauss_Cannon_Launch_Velocity_1</title>
<path fill="#d4edda" stroke="black" d="M163,-396C163,-396 12,-396 12,-396 6,-396 0,-390 0,-384 0,-384 0,-372 0,-372 0,-366 6,-360 12,-360 12,-360 163,-360 163,-360 169,-360 175,-366 175,-372 175,-372 175,-384 175,-384 175,-390 169,-396 163,-396"/>
<text xml:space="preserve" text-anchor="middle" x="87.5" y="-379.2" font-family="Helvetica,sans-Serif" font-size="9.00">Gauss Cannon Launch Velocity 10,000</text>
<text xml:space="preserve" text-anchor="middle" x="87.5" y="-369.45" font-family="Helvetica,sans-Serif" font-size="9.00">500 RP</text>
</g>
<!-- Gauss_Cannon_Launch_Velocity_2 -->
<g id="node2" class="node">
<title>Gauss_Cannon_Launch_Velocity_2</title>
<path fill="#cce5ff" stroke="black" d="M163,-324C163,-324 12,-324 12,-324 6,-324 0,-318 0,-312 0,-312 0,-300 0,-300 0,-294 6,-288 12,-288 12,-288 163,-288 163,-288 169,-288 175,-294 175,-300 175,-300 175,-312 175,-312 175,-318 169,-324 163,-324"/>
<text xml:space="preserve" text-anchor="middle" x="87.5" y="-307.2" font-family="Helvetica,sans-Serif" font-size="9.00">Gauss Cannon Launch Velocity 20,000</text>
<text xml:space="preserve" text-anchor="middle" x="87.5" y="-297.45" font-family="Helvetica,sans-Serif" font-size="9.00">2K RP</text>
</g>
<!-- Gauss_Cannon_Launch_Velocity_1&#45;&gt;Gauss_Cannon_Launch_Velocity_2 -->
<g id="edge2" class="edge">
<title>Gauss_Cannon_Launch_Velocity_1&#45;&gt;Gauss_Cannon_Launch_Velocity_2</title>
<path fill="none" stroke="black" d="M87.5,-359.7C87.5,-351.22 87.5,-340.86 87.5,-331.58"/>
<polygon fill="black" stroke="black" points="89.6,-331.62 87.5,-325.62 85.4,-331.62 89.6,-331.62"/>
</g>
<!-- Gauss_Cannon_Launch_Velocity_3 -->
<g id="node3" class="node">
<title>Gauss_Cannon_Launch_Velocity_3</title>
<path fill="#cce5ff" stroke="black" d="M163,-252C163,-252 12,-252 12,-252 6,-252 0,-246 0,-240 0,-240 0,-228 0,-228 0,-222 6,-216 12,-216 12,-216 163,-216 163,-216 169,-216 175,-222 175,-228 175,-228 175,-240 175,-240 175,-246 169,-252 163,-252"/>
<text xml:space="preserve" text-anchor="middle" x="87.5" y="-235.2" font-family="Helvetica,sans-Serif" font-size="9.00">Gauss Cannon Launch Velocity 30,000</text>
<text xml:space="preserve" text-anchor="middle" x="87.5" y="-225.45" font-family="Helvetica,sans-Serif" font-size="9.00">5K RP</text>
</g>
<!-- Gauss_Cannon_Launch_Velocity_2&#45;&gt;Gauss_Cannon_Launch_Velocity_3 -->
<g id="edge3" class="edge">
<title>Gauss_Cannon_Launch_Velocity_2&#45;&gt;Gauss_Cannon_Launch_Velocity_3</title>
<path fill="none" stroke="black" d="M87.5,-287.7C87.5,-279.22 87.5,-268.86 87.5,-259.58"/>
<polygon fill="black" stroke="black" points="89.6,-259.62 87.5,-253.62 85.4,-259.62 89.6,-259.62"/>
</g>
<!-- Gauss_Cannon_Launch_Velocity_4 -->
<g id="node4" class="node">
<title>Gauss_Cannon_Launch_Velocity_4</title>
<path fill="#fff3cd" stroke="black" d="M163,-180C163,-180 12,-180 12,-180 6,-180 0,-174 0,-168 0,-168 0,-156 0,-156 0,-150 6,-144 12,-144 12,-144 163,-144 163,-144 169,-144 175,-150 175,-156 175,-156 175,-168 175,-168 175,-174 169,-180 163,-180"/>
<text xml:space="preserve" text-anchor="middle" x="87.5" y="-163.2" font-family="Helvetica,sans-Serif" font-size="9.00">Gauss Cannon Launch Velocity 40,000</text>
<text xml:space="preserve" text-anchor="middle" x="87.5" y="-153.45" font-family="Helvetica,sans-Serif" font-size="9.00">15K RP</text>
</g>
<!-- Gauss_Cannon_Launch_Velocity_3&#45;&gt;Gauss_Cannon_Launch_Velocity_4 -->
<g id="edge4" class="edge">
<title>Gauss_Cannon_Launch_Velocity_3&#45;&gt;Gauss_Cannon_Launch_Velocity_4</title>
<path fill="none" stroke="black" d="M87.5,-215.7C87.5,-207.22 87.5,-196.86 87.5,-187.58"/>
<polygon fill="black" stroke="black" points="89.6,-187.62 87.5,-181.62 85.4,-187.62 89.6,-187.62"/>
</g>
<!-- Gauss_Cannon_Launch_Velocity_5 -->
<g id="node5" class="node">
<title>Gauss_Cannon_Launch_Velocity_5</title>
<path fill="#fff3cd" stroke="black" d="M163,-108C163,-108 12,-108 12,-108 6,-108 0,-102 0,-96 0,-96 0,-84 0,-84 0,-78 6,-72 12,-72 12,-72 163,-72 163,-72 169,-72 175,-78 175,-84 175,-84 175,-96 175,-96 175,-102 169,-108 163,-108"/>
<text xml:space="preserve" text-anchor="middle" x="87.5" y="-91.2" font-family="Helvetica,sans-Serif" font-size="9.00">Gauss Cannon Launch Velocity 50,000</text>
<text xml:space="preserve" text-anchor="middle" x="87.5" y="-81.45" font-family="Helvetica,sans-Serif" font-size="9.00">45K RP</text>
</g>
<!-- Gauss_Cannon_Launch_Velocity_4&#45;&gt;Gauss_Cannon_Launch_Velocity_5 -->
<g id="edge5" class="edge">
<title>Gauss_Cannon_Launch_Velocity_4&#45;&gt;Gauss_Cannon_Launch_Velocity_5</title>
<path fill="none" stroke="black" d="M87.5,-143.7C87.5,-135.22 87.5,-124.86 87.5,-115.58"/>
<polygon fill="black" stroke="black" points="89.6,-115.62 87.5,-109.62 85.4,-115.62 89.6,-115.62"/>
</g>
<!-- Gauss_Cannon_Launch_Velocity_6 -->
<g id="node6" class="node">
<title>Gauss_Cannon_Launch_Velocity_6</title>
<path fill="#d4c4fb" stroke="black" d="M163,-36C163,-36 12,-36 12,-36 6,-36 0,-30 0,-24 0,-24 0,-12 0,-12 0,-6 6,0 12,0 12,0 163,0 163,0 169,0 175,-6 175,-12 175,-12 175,-24 175,-24 175,-30 169,-36 163,-36"/>
<text xml:space="preserve" text-anchor="middle" x="87.5" y="-19.2" font-family="Helvetica,sans-Serif" font-size="9.00">Gauss Cannon Launch Velocity 60,000</text>
<text xml:space="preserve" text-anchor="middle" x="87.5" y="-9.45" font-family="Helvetica,sans-Serif" font-size="9.00">135K RP</text>
</g>
<!-- Gauss_Cannon_Launch_Velocity_5&#45;&gt;Gauss_Cannon_Launch_Velocity_6 -->
<g id="edge6" class="edge">
<title>Gauss_Cannon_Launch_Velocity_5&#45;&gt;Gauss_Cannon_Launch_Velocity_6</title>
<path fill="none" stroke="black" d="M87.5,-71.7C87.5,-63.22 87.5,-52.86 87.5,-43.58"/>
<polygon fill="black" stroke="black" points="89.6,-43.62 87.5,-37.62 85.4,-43.62 89.6,-43.62"/>
</g>
<!-- ext_Trans_Newtonian_Technology -->
<g id="node7" class="node">
<title>ext_Trans_Newtonian_Technology</title>
<path fill="#f0f0f0" stroke="black" stroke-dasharray="5,2" d="M143.5,-468C143.5,-468 31.5,-468 31.5,-468 25.5,-468 19.5,-462 19.5,-456 19.5,-456 19.5,-444 19.5,-444 19.5,-438 25.5,-432 31.5,-432 31.5,-432 143.5,-432 143.5,-432 149.5,-432 155.5,-438 155.5,-444 155.5,-444 155.5,-456 155.5,-456 155.5,-462 149.5,-468 143.5,-468"/>
<text xml:space="preserve" text-anchor="middle" x="87.5" y="-446.32" font-family="Helvetica,sans-Serif" font-size="9.00">Trans&#45;Newtonian Technology</text>
</g>
<!-- ext_Trans_Newtonian_Technology&#45;&gt;Gauss_Cannon_Launch_Velocity_1 -->
<g id="edge1" class="edge">
<title>ext_Trans_Newtonian_Technology&#45;&gt;Gauss_Cannon_Launch_Velocity_1</title>
<path fill="none" stroke="black" d="M87.5,-431.7C87.5,-423.22 87.5,-412.86 87.5,-403.58"/>
<polygon fill="black" stroke="black" points="89.6,-403.62 87.5,-397.62 85.4,-403.62 89.6,-403.62"/>
</g>
</g>
</svg>
