<?xml version="1.0" encoding="UTF-8" standalone="no"?>
<!DOCTYPE svg PUBLIC "-//W3C//DTD SVG 1.1//EN"
 "http://www.w3.org/Graphics/SVG/1.1/DTD/svg11.dtd">
<!-- Generated by graphviz version 14.1.2 (20260124.0452)
 -->
<!-- Title: TechTree Pages: 1 -->
<svg width="1271pt" height="67pt"
 viewBox="0.00 0.00 1271.00 67.00" xmlns="http://www.w3.org/2000/svg" xmlns:xlink="http://www.w3.org/1999/xlink">
<g id="graph0" class="graph" transform="scale(1 1) rotate(0) translate(4 63)">
<title>TechTree</title>
<polygon fill="white" stroke="none" points="-4,4 -4,-63 1266.5,-63 1266.5,4 -4,4"/>
<text xml:space="preserve" text-anchor="middle" x="631.25" y="-41.7" font-family="Helvetica,sans-Serif" font-weight="bold" font-size="14.00">Gauss Cannon Velocity</text>
<!-- Gauss_Cannon_Launch_Velocity_1 -->
<g id="node1" class="node">
<title>Gauss_Cannon_Launch_Velocity_1</title>
<path fill="#d4edda" stroke="black" d="M174.25,-36C174.25,-36 12,-36 12,-36 6,-36 0,-30 0,-24 0,-24 0,-12 0,-12 0,-6 6,0 12,0 12,0 174.25,0 174.25,0 180.25,0 186.25,-6 186.25,-12 186.25,-12 186.25,-24 186.25,-24 186.25,-30 180.25,-36 174.25,-36"/>
<text xml:space="preserve" text-anchor="middle" x="93.12" y="-19.75" font-family="Helvetica,sans-Serif" font-size="10.00">Gauss Cannon Launch Velocity 10,000</text>
<text xml:space="preserve" text-anchor="middle" x="93.12" y="-8.5" font-family="Helvetica,sans-Serif" font-size="10.00">500 RP</text>
</g>
<!-- Gauss_Cannon_Launch_Velocity_2 -->
<g id="node2" class="node">
<title>Gauss_Cannon_Launch_Velocity_2</title>
<path fill="#cce5ff" stroke="black" d="M389.5,-36C389.5,-36 227.25,-36 227.25,-36 221.25,-36 215.25,-30 215.25,-24 215.25,-24 215.25,-12 215.25,-12 215.25,-6 221.25,0 227.25,0 227.25,0 389.5,0 389.5,0 395.5,0 401.5,-6 401.5,-12 401.5,-12 401.5,-24 401.5,-24 401.5,-30 395.5,-36 389.5,-36"/>
<text xml:space="preserve" text-anchor="middle" x="308.38" y="-19.75" font-family="Helvetica,sans-Serif" font-size="10.00">Gauss Cannon Launch Velocity 20,000</text>
<text xml:space="preserve" text-anchor="middle" x="308.38" y="-8.5" font-family="Helvetica,sans-Serif" font-size="10.00">2K RP</text>
</g>
<!-- Gauss_Cannon_Launch_Velocity_1&#45;&gt;Gauss_Cannon_Launch_Velocity_2 -->
<g id="edge1" class="edge">
<title>Gauss_Cannon_Launch_Velocity_1&#45;&gt;Gauss_Cannon_Launch_Velocity_2</title>
<path fill="none" stroke="black" d="M186.73,-18C193.29,-18 199.92,-18 206.52,-18"/>
<polygon fill="black" stroke="black" points="206.35,-20.45 213.35,-18 206.35,-15.55 206.35,-20.45"/>
</g>
<!-- Gauss_Cannon_Launch_Velocity_3 -->
<g id="node3" class="node">
<title>Gauss_Cannon_Launch_Velocity_3</title>
<path fill="#cce5ff" stroke="black" d="M604.75,-36C604.75,-36 442.5,-36 442.5,-36 436.5,-36 430.5,-30 430.5,-24 430.5,-24 430.5,-12 430.5,-12 430.5,-6 436.5,0 442.5,0 442.5,0 604.75,0 604.75,0 610.75,0 616.75,-6 616.75,-12 616.75,-12 616.75,-24 616.75,-24 616.75,-30 610.75,-36 604.75,-36"/>
<text xml:space="preserve" text-anchor="middle" x="523.62" y="-19.75" font-family="Helvetica,sans-Serif" font-size="10.00">Gauss Cannon Launch Velocity 30,000</text>
<text xml:space="preserve" text-anchor="middle" x="523.62" y="-8.5" font-family="Helvetica,sans-Serif" font-size="10.00">5K RP</text>
</g>
<!-- Gauss_Cannon_Launch_Velocity_2&#45;&gt;Gauss_Cannon_Launch_Velocity_3 -->
<g id="edge2" class="edge">
<title>Gauss_Cannon_Launch_Velocity_2&#45;&gt;Gauss_Cannon_Launch_Velocity_3</title>
<path fill="none" stroke="black" d="M401.98,-18C408.54,-18 415.17,-18 421.77,-18"/>
<polygon fill="black" stroke="black" points="421.6,-20.45 428.6,-18 421.6,-15.55 421.6,-20.45"/>
</g>
<!-- Gauss_Cannon_Launch_Velocity_4 -->
<g id="node4" class="node">
<title>Gauss_Cannon_Launch_Velocity_4</title>
<path fill="#fff3cd" stroke="black" d="M820,-36C820,-36 657.75,-36 657.75,-36 651.75,-36 645.75,-30 645.75,-24 645.75,-24 645.75,-12 645.75,-12 645.75,-6 651.75,0 657.75,0 657.75,0 820,0 820,0 826,0 832,-6 832,-12 832,-12 832,-24 832,-24 832,-30 826,-36 820,-36"/>
<text xml:space="preserve" text-anchor="middle" x="738.88" y="-19.75" font-family="Helvetica,sans-Serif" font-size="10.00">Gauss Cannon Launch Velocity 40,000</text>
<text xml:space="preserve" text-anchor="middle" x="738.88" y="-8.5" font-family="Helvetica,sans-Serif" font-size="10.00">15K RP</text>
</g>
<!-- Gauss_Cannon_Launch_Velocity_3&#45;&gt;Gauss_Cannon_Launch_Velocity_4 -->
<g id="edge3" class="edge">
<title>Gauss_Cannon_Launch_Velocity_3&#45;&gt;Gauss_Cannon_Launch_Velocity_4</title>
<path fill="none" stroke="black" d="M617.23,-18C623.79,-18 630.42,-18 637.02,-18"/>
<polygon fill="black" stroke="black" points="636.85,-20.45 643.85,-18 636.85,-15.55 636.85,-20.45"/>
</g>
<!-- Gauss_Cannon_Launch_Velocity_5 -->
<g id="node5" class="node">
<title>Gauss_Cannon_Launch_Velocity_5</title>
<path fill="#fff3cd" stroke="black" d="M1035.25,-36C1035.25,-36 873,-36 873,-36 867,-36 861,-30 861,-24 861,-24 861,-12 861,-12 861,-6 867,0 873,0 873,0 1035.25,0 1035.25,0 1041.25,0 1047.25,-6 1047.25,-12 1047.25,-12 1047.25,-24 1047.25,-24 1047.25,-30 1041.25,-36 1035.25,-36"/>
<text xml:space="preserve" text-anchor="middle" x="954.12" y="-19.75" font-family="Helvetica,sans-Serif" font-size="10.00">Gauss Cannon Launch Velocity 50,000</text>
<text xml:space="preserve" text-anchor="middle" x="954.12" y="-8.5" font-family="Helvetica,sans-Serif" font-size="10.00">45K RP</text>
</g>
<!-- Gauss_Cannon_Launch_Velocity_4&#45;&gt;Gauss_Cannon_Launch_Velocity_5 -->
<g id="edge4" class="edge">
<title>Gauss_Cannon_Launch_Velocity_4&#45;&gt;Gauss_Cannon_Launch_Velocity_5</title>
<path fill="none" stroke="black" d="M832.48,-18C839.04,-18 845.67,-18 852.27,-18"/>
<polygon fill="black" stroke="black" points="852.1,-20.45 859.1,-18 852.1,-15.55 852.1,-20.45"/>
</g>
<!-- Gauss_Cannon_Launch_Velocity_6 -->
<g id="node6" class="node">
<title>Gauss_Cannon_Launch_Velocity_6</title>
<path fill="#d4c4fb" stroke="black" d="M1250.5,-36C1250.5,-36 1088.25,-36 1088.25,-36 1082.25,-36 1076.25,-30 1076.25,-24 1076.25,-24 1076.25,-12 1076.25,-12 1076.25,-6 1082.25,0 1088.25,0 1088.25,0 1250.5,0 1250.5,0 1256.5,0 1262.5,-6 1262.5,-12 1262.5,-12 1262.5,-24 1262.5,-24 1262.5,-30 1256.5,-36 1250.5,-36"/>
<text xml:space="preserve" text-anchor="middle" x="1169.38" y="-19.75" font-family="Helvetica,sans-Serif" font-size="10.00">Gauss Cannon Launch Velocity 60,000</text>
<text xml:space="preserve" text-anchor="middle" x="1169.38" y="-8.5" font-family="Helvetica,sans-Serif" font-size="10.00">135K RP</text>
</g>
<!-- Gauss_Cannon_Launch_Velocity_5&#45;&gt;Gauss_Cannon_Launch_Velocity_6 -->
<g id="edge5" class="edge">
<title>Gauss_Cannon_Launch_Velocity_5&#45;&gt;Gauss_Cannon_Launch_Velocity_6</title>
<path fill="none" stroke="black" d="M1047.73,-18C1054.29,-18 1060.92,-18 1067.52,-18"/>
<polygon fill="black" stroke="black" points="1067.35,-20.45 1074.35,-18 1067.35,-15.55 1067.35,-20.45"/>
</g>
</g>
</svg>
