<?xml version="1.0" encoding="UTF-8" standalone="no"?>
<!DOCTYPE svg PUBLIC "-//W3C//DTD SVG 1.1//EN"
 "http://www.w3.org/Graphics/SVG/1.1/DTD/svg11.dtd">
<!-- Generated by graphviz version 14.1.2 (20260124.0452)
 -->
<!-- Title: TechTree Pages: 1 -->
<svg width="178pt" height="497pt"
 viewBox="0.00 0.00 178.00 497.00" xmlns="http://www.w3.org/2000/svg" xmlns:xlink="http://www.w3.org/1999/xlink">
<g id="graph0" class="graph" transform="scale(1 1) rotate(0) translate(4 492.75)">
<title>TechTree</title>
<polygon fill="white" stroke="none" points="-4,4 -4,-492.75 173.75,-492.75 173.75,4 -4,4"/>
<text xml:space="preserve" text-anchor="middle" x="84.88" y="-473.35" font-family="Helvetica,sans-Serif" font-weight="bold" font-size="12.00">Gauss Cannon Rate of Fire</text>
<!-- Gauss_Cannon_Rate_of_Fire_2 -->
<g id="node1" class="node">
<title>Gauss_Cannon_Rate_of_Fire_2</title>
<path fill="#cce5ff" stroke="black" d="M140.12,-396C140.12,-396 29.62,-396 29.62,-396 23.63,-396 17.62,-390 17.62,-384 17.62,-384 17.62,-372 17.62,-372 17.62,-366 23.62,-360 29.62,-360 29.62,-360 140.12,-360 140.12,-360 146.12,-360 152.12,-366 152.12,-372 152.12,-372 152.12,-384 152.12,-384 152.12,-390 146.12,-396 140.12,-396"/>
<text xml:space="preserve" text-anchor="middle" x="84.88" y="-379.2" font-family="Helvetica,sans-Serif" font-size="9.00">Gauss Cannon Rate of Fire 2</text>
<text xml:space="preserve" text-anchor="middle" x="84.88" y="-369.45" font-family="Helvetica,sans-Serif" font-size="9.00">2K RP</text>
</g>
<!-- Gauss_Cannon_Rate_of_Fire_3 -->
<g id="node2" class="node">
<title>Gauss_Cannon_Rate_of_Fire_3</title>
<path fill="#cce5ff" stroke="black" d="M140.12,-324C140.12,-324 29.62,-324 29.62,-324 23.63,-324 17.62,-318 17.62,-312 17.62,-312 17.62,-300 17.62,-300 17.62,-294 23.62,-288 29.62,-288 29.62,-288 140.12,-288 140.12,-288 146.12,-288 152.12,-294 152.12,-300 152.12,-300 152.12,-312 152.12,-312 152.12,-318 146.12,-324 140.12,-324"/>
<text xml:space="preserve" text-anchor="middle" x="84.88" y="-307.2" font-family="Helvetica,sans-Serif" font-size="9.00">Gauss Cannon Rate of Fire 3</text>
<text xml:space="preserve" text-anchor="middle" x="84.88" y="-297.45" font-family="Helvetica,sans-Serif" font-size="9.00">5K RP</text>
</g>
<!-- Gauss_Cannon_Rate_of_Fire_2&#45;&gt;Gauss_Cannon_Rate_of_Fire_3 -->
<g id="edge2" class="edge">
<title>Gauss_Cannon_Rate_of_Fire_2&#45;&gt;Gauss_Cannon_Rate_of_Fire_3</title>
<path fill="none" stroke="black" d="M84.88,-359.7C84.88,-351.22 84.88,-340.86 84.88,-331.58"/>
<polygon fill="black" stroke="black" points="86.98,-331.62 84.88,-325.62 82.78,-331.62 86.98,-331.62"/>
</g>
<!-- Gauss_Cannon_Rate_of_Fire_4 -->
<g id="node3" class="node">
<title>Gauss_Cannon_Rate_of_Fire_4</title>
<path fill="#fff3cd" stroke="black" d="M140.12,-252C140.12,-252 29.62,-252 29.62,-252 23.63,-252 17.62,-246 17.62,-240 17.62,-240 17.62,-228 17.62,-228 17.62,-222 23.62,-216 29.62,-216 29.62,-216 140.12,-216 140.12,-216 146.12,-216 152.12,-222 152.12,-228 152.12,-228 152.12,-240 152.12,-240 152.12,-246 146.12,-252 140.12,-252"/>
<text xml:space="preserve" text-anchor="middle" x="84.88" y="-235.2" font-family="Helvetica,sans-Serif" font-size="9.00">Gauss Cannon Rate of Fire 4</text>
<text xml:space="preserve" text-anchor="middle" x="84.88" y="-225.45" font-family="Helvetica,sans-Serif" font-size="9.00">15K RP</text>
</g>
<!-- Gauss_Cannon_Rate_of_Fire_3&#45;&gt;Gauss_Cannon_Rate_of_Fire_4 -->
<g id="edge3" class="edge">
<title>Gauss_Cannon_Rate_of_Fire_3&#45;&gt;Gauss_Cannon_Rate_of_Fire_4</title>
<path fill="none" stroke="black" d="M84.88,-287.7C84.88,-279.22 84.88,-268.86 84.88,-259.58"/>
<polygon fill="black" stroke="black" points="86.98,-259.62 84.88,-253.62 82.78,-259.62 86.98,-259.62"/>
</g>
<!-- Gauss_Cannon_Rate_of_Fire_5 -->
<g id="node4" class="node">
<title>Gauss_Cannon_Rate_of_Fire_5</title>
<path fill="#fff3cd" stroke="black" d="M140.12,-180C140.12,-180 29.62,-180 29.62,-180 23.63,-180 17.62,-174 17.62,-168 17.62,-168 17.62,-156 17.62,-156 17.62,-150 23.62,-144 29.62,-144 29.62,-144 140.12,-144 140.12,-144 146.12,-144 152.12,-150 152.12,-156 152.12,-156 152.12,-168 152.12,-168 152.12,-174 146.12,-180 140.12,-180"/>
<text xml:space="preserve" text-anchor="middle" x="84.88" y="-163.2" font-family="Helvetica,sans-Serif" font-size="9.00">Gauss Cannon Rate of Fire 5</text>
<text xml:space="preserve" text-anchor="middle" x="84.88" y="-153.45" font-family="Helvetica,sans-Serif" font-size="9.00">45K RP</text>
</g>
<!-- Gauss_Cannon_Rate_of_Fire_4&#45;&gt;Gauss_Cannon_Rate_of_Fire_5 -->
<g id="edge4" class="edge">
<title>Gauss_Cannon_Rate_of_Fire_4&#45;&gt;Gauss_Cannon_Rate_of_Fire_5</title>
<path fill="none" stroke="black" d="M84.88,-215.7C84.88,-207.22 84.88,-196.86 84.88,-187.58"/>
<polygon fill="black" stroke="black" points="86.98,-187.62 84.88,-181.62 82.78,-187.62 86.98,-187.62"/>
</g>
<!-- Gauss_Cannon_Rate_of_Fire_6 -->
<g id="node5" class="node">
<title>Gauss_Cannon_Rate_of_Fire_6</title>
<path fill="#d4c4fb" stroke="black" d="M140.12,-108C140.12,-108 29.62,-108 29.62,-108 23.63,-108 17.62,-102 17.62,-96 17.62,-96 17.62,-84 17.62,-84 17.62,-78 23.62,-72 29.62,-72 29.62,-72 140.12,-72 140.12,-72 146.12,-72 152.12,-78 152.12,-84 152.12,-84 152.12,-96 152.12,-96 152.12,-102 146.12,-108 140.12,-108"/>
<text xml:space="preserve" text-anchor="middle" x="84.88" y="-91.2" font-family="Helvetica,sans-Serif" font-size="9.00">Gauss Cannon Rate of Fire 6</text>
<text xml:space="preserve" text-anchor="middle" x="84.88" y="-81.45" font-family="Helvetica,sans-Serif" font-size="9.00">135K RP</text>
</g>
<!-- Gauss_Cannon_Rate_of_Fire_5&#45;&gt;Gauss_Cannon_Rate_of_Fire_6 -->
<g id="edge5" class="edge">
<title>Gauss_Cannon_Rate_of_Fire_5&#45;&gt;Gauss_Cannon_Rate_of_Fire_6</title>
<path fill="none" stroke="black" d="M84.88,-143.7C84.88,-135.22 84.88,-124.86 84.88,-115.58"/>
<polygon fill="black" stroke="black" points="86.98,-115.62 84.88,-109.62 82.78,-115.62 86.98,-115.62"/>
</g>
<!-- Gauss_Cannon_Rate_of_Fire_8 -->
<g id="node6" class="node">
<title>Gauss_Cannon_Rate_of_Fire_8</title>
<path fill="#d4c4fb" stroke="black" d="M140.12,-36C140.12,-36 29.62,-36 29.62,-36 23.63,-36 17.62,-30 17.62,-24 17.62,-24 17.62,-12 17.62,-12 17.62,-6 23.62,0 29.62,0 29.62,0 140.12,0 140.12,0 146.12,0 152.12,-6 152.12,-12 152.12,-12 152.12,-24 152.12,-24 152.12,-30 146.12,-36 140.12,-36"/>
<text xml:space="preserve" text-anchor="middle" x="84.88" y="-19.2" font-family="Helvetica,sans-Serif" font-size="9.00">Gauss Cannon Rate of Fire 8</text>
<text xml:space="preserve" text-anchor="middle" x="84.88" y="-9.45" font-family="Helvetica,sans-Serif" font-size="9.00">750K RP</text>
</g>
<!-- Gauss_Cannon_Rate_of_Fire_6&#45;&gt;Gauss_Cannon_Rate_of_Fire_8 -->
<g id="edge6" class="edge">
<title>Gauss_Cannon_Rate_of_Fire_6&#45;&gt;Gauss_Cannon_Rate_of_Fire_8</title>
<path fill="none" stroke="black" d="M84.88,-71.7C84.88,-63.22 84.88,-52.86 84.88,-43.58"/>
<polygon fill="black" stroke="black" points="86.98,-43.62 84.88,-37.62 82.78,-43.62 86.98,-43.62"/>
</g>
<!-- ext_Trans_Newtonian_Technology -->
<g id="node7" class="node">
<title>ext_Trans_Newtonian_Technology</title>
<path fill="#f0f0f0" stroke="black" stroke-dasharray="5,2" d="M140.88,-468C140.88,-468 28.88,-468 28.88,-468 22.87,-468 16.88,-462 16.88,-456 16.88,-456 16.88,-444 16.88,-444 16.88,-438 22.88,-432 28.88,-432 28.88,-432 140.88,-432 140.88,-432 146.88,-432 152.88,-438 152.88,-444 152.88,-444 152.88,-456 152.88,-456 152.88,-462 146.88,-468 140.88,-468"/>
<text xml:space="preserve" text-anchor="middle" x="84.88" y="-446.32" font-family="Helvetica,sans-Serif" font-size="9.00">Trans&#45;Newtonian Technology</text>
</g>
<!-- ext_Trans_Newtonian_Technology&#45;&gt;Gauss_Cannon_Rate_of_Fire_2 -->
<g id="edge1" class="edge">
<title>ext_Trans_Newtonian_Technology&#45;&gt;Gauss_Cannon_Rate_of_Fire_2</title>
<path fill="none" stroke="black" d="M84.88,-431.7C84.88,-423.22 84.88,-412.86 84.88,-403.58"/>
<polygon fill="black" stroke="black" points="86.98,-403.62 84.88,-397.62 82.78,-403.62 86.98,-403.62"/>
</g>
</g>
</svg>
