<?xml version="1.0" encoding="UTF-8" standalone="no"?>
<!DOCTYPE svg PUBLIC "-//W3C//DTD SVG 1.1//EN"
 "http://www.w3.org/Graphics/SVG/1.1/DTD/svg11.dtd">
<!-- Generated by graphviz version 14.1.2 (20260124.0452)
 -->
<!-- Title: TechTree Pages: 1 -->
<svg width="238pt" height="67pt"
 viewBox="0.00 0.00 238.00 67.00" xmlns="http://www.w3.org/2000/svg" xmlns:xlink="http://www.w3.org/1999/xlink">
<g id="graph0" class="graph" transform="scale(1 1) rotate(0) translate(4 63)">
<title>TechTree</title>
<polygon fill="white" stroke="none" points="-4,4 -4,-63 233.75,-63 233.75,4 -4,4"/>
<text xml:space="preserve" text-anchor="middle" x="114.88" y="-41.7" font-family="Helvetica,sans-Serif" font-weight="bold" font-size="14.00">Gauss Cannon Size vs Accuracy</text>
<!-- Gauss_Cannon_Size_vs_Accuracy_ -->
<g id="node1" class="node">
<title>Gauss_Cannon_Size_vs_Accuracy_</title>
<path fill="#d4edda" stroke="black" d="M217.75,-36C217.75,-36 12,-36 12,-36 6,-36 0,-30 0,-24 0,-24 0,-12 0,-12 0,-6 6,0 12,0 12,0 217.75,0 217.75,0 223.75,0 229.75,-6 229.75,-12 229.75,-12 229.75,-24 229.75,-24 229.75,-30 223.75,-36 217.75,-36"/>
<text xml:space="preserve" text-anchor="middle" x="114.88" y="-19.75" font-family="Helvetica,sans-Serif" font-size="10.00">Gauss Cannon Size vs Accuracy 6HS and 100%</text>
<text xml:space="preserve" text-anchor="middle" x="114.88" y="-8.5" font-family="Helvetica,sans-Serif" font-size="10.00">10 RP</text>
</g>
</g>
</svg>
