<?xml version="1.0" encoding="UTF-8" standalone="no"?>
<!DOCTYPE svg PUBLIC "-//W3C//DTD SVG 1.1//EN"
 "http://www.w3.org/Graphics/SVG/1.1/DTD/svg11.dtd">
<!-- Generated by graphviz version 14.1.2 (20260124.0452)
 -->
<!-- Title: TechTree Pages: 1 -->
<svg width="1019pt" height="67pt"
 viewBox="0.00 0.00 1019.00 67.00" xmlns="http://www.w3.org/2000/svg" xmlns:xlink="http://www.w3.org/1999/xlink">
<g id="graph0" class="graph" transform="scale(1 1) rotate(0) translate(4 63)">
<title>TechTree</title>
<polygon fill="white" stroke="none" points="-4,4 -4,-63 1014.5,-63 1014.5,4 -4,4"/>
<text xml:space="preserve" text-anchor="middle" x="505.25" y="-41.7" font-family="Helvetica,sans-Serif" font-weight="bold" font-size="14.00">Gauss Cannon Rate of Fire</text>
<!-- Gauss_Cannon_Rate_of_Fire_2 -->
<g id="node1" class="node">
<title>Gauss_Cannon_Rate_of_Fire_2</title>
<path fill="#cce5ff" stroke="black" d="M132.25,-36C132.25,-36 12,-36 12,-36 6,-36 0,-30 0,-24 0,-24 0,-12 0,-12 0,-6 6,0 12,0 12,0 132.25,0 132.25,0 138.25,0 144.25,-6 144.25,-12 144.25,-12 144.25,-24 144.25,-24 144.25,-30 138.25,-36 132.25,-36"/>
<text xml:space="preserve" text-anchor="middle" x="72.12" y="-19.75" font-family="Helvetica,sans-Serif" font-size="10.00">Gauss Cannon Rate of Fire 2</text>
<text xml:space="preserve" text-anchor="middle" x="72.12" y="-8.5" font-family="Helvetica,sans-Serif" font-size="10.00">2K RP</text>
</g>
<!-- Gauss_Cannon_Rate_of_Fire_3 -->
<g id="node2" class="node">
<title>Gauss_Cannon_Rate_of_Fire_3</title>
<path fill="#cce5ff" stroke="black" d="M305.5,-36C305.5,-36 185.25,-36 185.25,-36 179.25,-36 173.25,-30 173.25,-24 173.25,-24 173.25,-12 173.25,-12 173.25,-6 179.25,0 185.25,0 185.25,0 305.5,0 305.5,0 311.5,0 317.5,-6 317.5,-12 317.5,-12 317.5,-24 317.5,-24 317.5,-30 311.5,-36 305.5,-36"/>
<text xml:space="preserve" text-anchor="middle" x="245.38" y="-19.75" font-family="Helvetica,sans-Serif" font-size="10.00">Gauss Cannon Rate of Fire 3</text>
<text xml:space="preserve" text-anchor="middle" x="245.38" y="-8.5" font-family="Helvetica,sans-Serif" font-size="10.00">5K RP</text>
</g>
<!-- Gauss_Cannon_Rate_of_Fire_2&#45;&gt;Gauss_Cannon_Rate_of_Fire_3 -->
<g id="edge1" class="edge">
<title>Gauss_Cannon_Rate_of_Fire_2&#45;&gt;Gauss_Cannon_Rate_of_Fire_3</title>
<path fill="none" stroke="black" d="M144.26,-18C150.92,-18 157.69,-18 164.42,-18"/>
<polygon fill="black" stroke="black" points="164.39,-20.45 171.39,-18 164.39,-15.55 164.39,-20.45"/>
</g>
<!-- Gauss_Cannon_Rate_of_Fire_4 -->
<g id="node3" class="node">
<title>Gauss_Cannon_Rate_of_Fire_4</title>
<path fill="#fff3cd" stroke="black" d="M478.75,-36C478.75,-36 358.5,-36 358.5,-36 352.5,-36 346.5,-30 346.5,-24 346.5,-24 346.5,-12 346.5,-12 346.5,-6 352.5,0 358.5,0 358.5,0 478.75,0 478.75,0 484.75,0 490.75,-6 490.75,-12 490.75,-12 490.75,-24 490.75,-24 490.75,-30 484.75,-36 478.75,-36"/>
<text xml:space="preserve" text-anchor="middle" x="418.62" y="-19.75" font-family="Helvetica,sans-Serif" font-size="10.00">Gauss Cannon Rate of Fire 4</text>
<text xml:space="preserve" text-anchor="middle" x="418.62" y="-8.5" font-family="Helvetica,sans-Serif" font-size="10.00">15K RP</text>
</g>
<!-- Gauss_Cannon_Rate_of_Fire_3&#45;&gt;Gauss_Cannon_Rate_of_Fire_4 -->
<g id="edge2" class="edge">
<title>Gauss_Cannon_Rate_of_Fire_3&#45;&gt;Gauss_Cannon_Rate_of_Fire_4</title>
<path fill="none" stroke="black" d="M317.51,-18C324.17,-18 330.94,-18 337.67,-18"/>
<polygon fill="black" stroke="black" points="337.64,-20.45 344.64,-18 337.64,-15.55 337.64,-20.45"/>
</g>
<!-- Gauss_Cannon_Rate_of_Fire_5 -->
<g id="node4" class="node">
<title>Gauss_Cannon_Rate_of_Fire_5</title>
<path fill="#fff3cd" stroke="black" d="M652,-36C652,-36 531.75,-36 531.75,-36 525.75,-36 519.75,-30 519.75,-24 519.75,-24 519.75,-12 519.75,-12 519.75,-6 525.75,0 531.75,0 531.75,0 652,0 652,0 658,0 664,-6 664,-12 664,-12 664,-24 664,-24 664,-30 658,-36 652,-36"/>
<text xml:space="preserve" text-anchor="middle" x="591.88" y="-19.75" font-family="Helvetica,sans-Serif" font-size="10.00">Gauss Cannon Rate of Fire 5</text>
<text xml:space="preserve" text-anchor="middle" x="591.88" y="-8.5" font-family="Helvetica,sans-Serif" font-size="10.00">45K RP</text>
</g>
<!-- Gauss_Cannon_Rate_of_Fire_4&#45;&gt;Gauss_Cannon_Rate_of_Fire_5 -->
<g id="edge3" class="edge">
<title>Gauss_Cannon_Rate_of_Fire_4&#45;&gt;Gauss_Cannon_Rate_of_Fire_5</title>
<path fill="none" stroke="black" d="M490.76,-18C497.42,-18 504.19,-18 510.92,-18"/>
<polygon fill="black" stroke="black" points="510.89,-20.45 517.89,-18 510.89,-15.55 510.89,-20.45"/>
</g>
<!-- Gauss_Cannon_Rate_of_Fire_6 -->
<g id="node5" class="node">
<title>Gauss_Cannon_Rate_of_Fire_6</title>
<path fill="#d4c4fb" stroke="black" d="M825.25,-36C825.25,-36 705,-36 705,-36 699,-36 693,-30 693,-24 693,-24 693,-12 693,-12 693,-6 699,0 705,0 705,0 825.25,0 825.25,0 831.25,0 837.25,-6 837.25,-12 837.25,-12 837.25,-24 837.25,-24 837.25,-30 831.25,-36 825.25,-36"/>
<text xml:space="preserve" text-anchor="middle" x="765.12" y="-19.75" font-family="Helvetica,sans-Serif" font-size="10.00">Gauss Cannon Rate of Fire 6</text>
<text xml:space="preserve" text-anchor="middle" x="765.12" y="-8.5" font-family="Helvetica,sans-Serif" font-size="10.00">135K RP</text>
</g>
<!-- Gauss_Cannon_Rate_of_Fire_5&#45;&gt;Gauss_Cannon_Rate_of_Fire_6 -->
<g id="edge4" class="edge">
<title>Gauss_Cannon_Rate_of_Fire_5&#45;&gt;Gauss_Cannon_Rate_of_Fire_6</title>
<path fill="none" stroke="black" d="M664.01,-18C670.67,-18 677.44,-18 684.17,-18"/>
<polygon fill="black" stroke="black" points="684.14,-20.45 691.14,-18 684.14,-15.55 684.14,-20.45"/>
</g>
<!-- Gauss_Cannon_Rate_of_Fire_8 -->
<g id="node6" class="node">
<title>Gauss_Cannon_Rate_of_Fire_8</title>
<path fill="#d4c4fb" stroke="black" d="M998.5,-36C998.5,-36 878.25,-36 878.25,-36 872.25,-36 866.25,-30 866.25,-24 866.25,-24 866.25,-12 866.25,-12 866.25,-6 872.25,0 878.25,0 878.25,0 998.5,0 998.5,0 1004.5,0 1010.5,-6 1010.5,-12 1010.5,-12 1010.5,-24 1010.5,-24 1010.5,-30 1004.5,-36 998.5,-36"/>
<text xml:space="preserve" text-anchor="middle" x="938.38" y="-19.75" font-family="Helvetica,sans-Serif" font-size="10.00">Gauss Cannon Rate of Fire 8</text>
<text xml:space="preserve" text-anchor="middle" x="938.38" y="-8.5" font-family="Helvetica,sans-Serif" font-size="10.00">750K RP</text>
</g>
<!-- Gauss_Cannon_Rate_of_Fire_6&#45;&gt;Gauss_Cannon_Rate_of_Fire_8 -->
<g id="edge5" class="edge">
<title>Gauss_Cannon_Rate_of_Fire_6&#45;&gt;Gauss_Cannon_Rate_of_Fire_8</title>
<path fill="none" stroke="black" d="M837.26,-18C843.92,-18 850.69,-18 857.42,-18"/>
<polygon fill="black" stroke="black" points="857.39,-20.45 864.39,-18 857.39,-15.55 857.39,-20.45"/>
</g>
</g>
</svg>
