<?xml version="1.0" encoding="UTF-8" standalone="no"?>
<!DOCTYPE svg PUBLIC "-//W3C//DTD SVG 1.1//EN"
 "http://www.w3.org/Graphics/SVG/1.1/DTD/svg11.dtd">
<!-- Generated by graphviz version 14.1.2 (20260124.0452)
 -->
<!-- Title: TechTree Pages: 1 -->
<svg width="348pt" height="353pt"
 viewBox="0.00 0.00 348.00 353.00" xmlns="http://www.w3.org/2000/svg" xmlns:xlink="http://www.w3.org/1999/xlink">
<g id="graph0" class="graph" transform="scale(1 1) rotate(0) translate(4 348.75)">
<title>TechTree</title>
<polygon fill="white" stroke="none" points="-4,4 -4,-348.75 343.88,-348.75 343.88,4 -4,4"/>
<text xml:space="preserve" text-anchor="middle" x="169.94" y="-329.35" font-family="Helvetica,sans-Serif" font-weight="bold" font-size="12.00">Geo Survey Sensors</text>
<!-- Conventional_Geological_Survey -->
<g id="node1" class="node">
<title>Conventional_Geological_Survey</title>
<path fill="#d4edda" stroke="black" d="M172,-324C172,-324 12,-324 12,-324 6,-324 0,-318 0,-312 0,-312 0,-300 0,-300 0,-294 6,-288 12,-288 12,-288 172,-288 172,-288 178,-288 184,-294 184,-300 184,-300 184,-312 184,-312 184,-318 178,-324 172,-324"/>
<text xml:space="preserve" text-anchor="middle" x="92" y="-307.2" font-family="Helvetica,sans-Serif" font-size="9.00">Conventional Geological Survey Sensors</text>
<text xml:space="preserve" text-anchor="middle" x="92" y="-297.45" font-family="Helvetica,sans-Serif" font-size="9.00">500 RP</text>
</g>
<!-- Geological_Survey_Sensors -->
<g id="node2" class="node">
<title>Geological_Survey_Sensors</title>
<path fill="#cce5ff" stroke="black" d="M321.5,-252C321.5,-252 218.5,-252 218.5,-252 212.5,-252 206.5,-246 206.5,-240 206.5,-240 206.5,-228 206.5,-228 206.5,-222 212.5,-216 218.5,-216 218.5,-216 321.5,-216 321.5,-216 327.5,-216 333.5,-222 333.5,-228 333.5,-228 333.5,-240 333.5,-240 333.5,-246 327.5,-252 321.5,-252"/>
<text xml:space="preserve" text-anchor="middle" x="270" y="-235.2" font-family="Helvetica,sans-Serif" font-size="9.00">Geological Survey Sensors</text>
<text xml:space="preserve" text-anchor="middle" x="270" y="-225.45" font-family="Helvetica,sans-Serif" font-size="9.00">1K RP</text>
</g>
<!-- Improved_Geological_Sensors -->
<g id="node3" class="node">
<title>Improved_Geological_Sensors</title>
<path fill="#cce5ff" stroke="black" d="M326.38,-180C326.38,-180 213.62,-180 213.62,-180 207.62,-180 201.62,-174 201.62,-168 201.62,-168 201.62,-156 201.62,-156 201.62,-150 207.62,-144 213.62,-144 213.62,-144 326.38,-144 326.38,-144 332.38,-144 338.38,-150 338.38,-156 338.38,-156 338.38,-168 338.38,-168 338.38,-174 332.38,-180 326.38,-180"/>
<text xml:space="preserve" text-anchor="middle" x="270" y="-163.2" font-family="Helvetica,sans-Serif" font-size="9.00">Improved Geological Sensors</text>
<text xml:space="preserve" text-anchor="middle" x="270" y="-153.45" font-family="Helvetica,sans-Serif" font-size="9.00">10K RP</text>
</g>
<!-- Geological_Survey_Sensors&#45;&gt;Improved_Geological_Sensors -->
<g id="edge2" class="edge">
<title>Geological_Survey_Sensors&#45;&gt;Improved_Geological_Sensors</title>
<path fill="none" stroke="black" d="M270,-215.7C270,-207.22 270,-196.86 270,-187.58"/>
<polygon fill="black" stroke="black" points="272.1,-187.62 270,-181.62 267.9,-187.62 272.1,-187.62"/>
</g>
<!-- Advanced_Geological_Sensors -->
<g id="node4" class="node">
<title>Advanced_Geological_Sensors</title>
<path fill="#fff3cd" stroke="black" d="M327.88,-108C327.88,-108 212.12,-108 212.12,-108 206.12,-108 200.12,-102 200.12,-96 200.12,-96 200.12,-84 200.12,-84 200.12,-78 206.12,-72 212.12,-72 212.12,-72 327.88,-72 327.88,-72 333.88,-72 339.88,-78 339.88,-84 339.88,-84 339.88,-96 339.88,-96 339.88,-102 333.88,-108 327.88,-108"/>
<text xml:space="preserve" text-anchor="middle" x="270" y="-91.2" font-family="Helvetica,sans-Serif" font-size="9.00">Advanced Geological Sensors</text>
<text xml:space="preserve" text-anchor="middle" x="270" y="-81.45" font-family="Helvetica,sans-Serif" font-size="9.00">35K RP</text>
</g>
<!-- Improved_Geological_Sensors&#45;&gt;Advanced_Geological_Sensors -->
<g id="edge3" class="edge">
<title>Improved_Geological_Sensors&#45;&gt;Advanced_Geological_Sensors</title>
<path fill="none" stroke="black" d="M270,-143.7C270,-135.22 270,-124.86 270,-115.58"/>
<polygon fill="black" stroke="black" points="272.1,-115.62 270,-109.62 267.9,-115.62 272.1,-115.62"/>
</g>
<!-- Phased_Geological_Sensors -->
<g id="node5" class="node">
<title>Phased_Geological_Sensors</title>
<path fill="#fff3cd" stroke="black" d="M323,-36C323,-36 217,-36 217,-36 211,-36 205,-30 205,-24 205,-24 205,-12 205,-12 205,-6 211,0 217,0 217,0 323,0 323,0 329,0 335,-6 335,-12 335,-12 335,-24 335,-24 335,-30 329,-36 323,-36"/>
<text xml:space="preserve" text-anchor="middle" x="270" y="-19.2" font-family="Helvetica,sans-Serif" font-size="9.00">Phased Geological Sensors</text>
<text xml:space="preserve" text-anchor="middle" x="270" y="-9.45" font-family="Helvetica,sans-Serif" font-size="9.00">100K RP</text>
</g>
<!-- Advanced_Geological_Sensors&#45;&gt;Phased_Geological_Sensors -->
<g id="edge4" class="edge">
<title>Advanced_Geological_Sensors&#45;&gt;Phased_Geological_Sensors</title>
<path fill="none" stroke="black" d="M270,-71.7C270,-63.22 270,-52.86 270,-43.58"/>
<polygon fill="black" stroke="black" points="272.1,-43.62 270,-37.62 267.9,-43.62 272.1,-43.62"/>
</g>
<!-- ext_Trans_Newtonian_Technology -->
<g id="node6" class="node">
<title>ext_Trans_Newtonian_Technology</title>
<path fill="#f0f0f0" stroke="black" stroke-dasharray="5,2" d="M326,-324C326,-324 214,-324 214,-324 208,-324 202,-318 202,-312 202,-312 202,-300 202,-300 202,-294 208,-288 214,-288 214,-288 326,-288 326,-288 332,-288 338,-294 338,-300 338,-300 338,-312 338,-312 338,-318 332,-324 326,-324"/>
<text xml:space="preserve" text-anchor="middle" x="270" y="-302.32" font-family="Helvetica,sans-Serif" font-size="9.00">Trans&#45;Newtonian Technology</text>
</g>
<!-- ext_Trans_Newtonian_Technology&#45;&gt;Geological_Survey_Sensors -->
<g id="edge1" class="edge">
<title>ext_Trans_Newtonian_Technology&#45;&gt;Geological_Survey_Sensors</title>
<path fill="none" stroke="black" d="M270,-287.7C270,-279.22 270,-268.86 270,-259.58"/>
<polygon fill="black" stroke="black" points="272.1,-259.62 270,-253.62 267.9,-259.62 272.1,-259.62"/>
</g>
</g>
</svg>
