<?xml version="1.0" encoding="UTF-8" standalone="no"?>
<!DOCTYPE svg PUBLIC "-//W3C//DTD SVG 1.1//EN"
 "http://www.w3.org/Graphics/SVG/1.1/DTD/svg11.dtd">
<!-- Generated by graphviz version 14.1.2 (20260124.0452)
 -->
<!-- Title: TechTree Pages: 1 -->
<svg width="718pt" height="125pt"
 viewBox="0.00 0.00 718.00 125.00" xmlns="http://www.w3.org/2000/svg" xmlns:xlink="http://www.w3.org/1999/xlink">
<g id="graph0" class="graph" transform="scale(1 1) rotate(0) translate(4 121)">
<title>TechTree</title>
<polygon fill="white" stroke="none" points="-4,4 -4,-121 713.75,-121 713.75,4 -4,4"/>
<text xml:space="preserve" text-anchor="middle" x="354.88" y="-99.7" font-family="Helvetica,sans-Serif" font-weight="bold" font-size="14.00">Geo Survey Sensors</text>
<!-- Conventional_Geological_Survey -->
<g id="node1" class="node">
<title>Conventional_Geological_Survey</title>
<path fill="#d4edda" stroke="black" d="M182.5,-36C182.5,-36 12,-36 12,-36 6,-36 0,-30 0,-24 0,-24 0,-12 0,-12 0,-6 6,0 12,0 12,0 182.5,0 182.5,0 188.5,0 194.5,-6 194.5,-12 194.5,-12 194.5,-24 194.5,-24 194.5,-30 188.5,-36 182.5,-36"/>
<text xml:space="preserve" text-anchor="middle" x="97.25" y="-19.75" font-family="Helvetica,sans-Serif" font-size="10.00">Conventional Geological Survey Sensors</text>
<text xml:space="preserve" text-anchor="middle" x="97.25" y="-8.5" font-family="Helvetica,sans-Serif" font-size="10.00">500 RP</text>
</g>
<!-- Geological_Survey_Sensors -->
<g id="node2" class="node">
<title>Geological_Survey_Sensors</title>
<path fill="#cce5ff" stroke="black" d="M152.5,-94C152.5,-94 42,-94 42,-94 36,-94 30,-88 30,-82 30,-82 30,-70 30,-70 30,-64 36,-58 42,-58 42,-58 152.5,-58 152.5,-58 158.5,-58 164.5,-64 164.5,-70 164.5,-70 164.5,-82 164.5,-82 164.5,-88 158.5,-94 152.5,-94"/>
<text xml:space="preserve" text-anchor="middle" x="97.25" y="-77.75" font-family="Helvetica,sans-Serif" font-size="10.00">Geological Survey Sensors</text>
<text xml:space="preserve" text-anchor="middle" x="97.25" y="-66.5" font-family="Helvetica,sans-Serif" font-size="10.00">1K RP</text>
</g>
<!-- Improved_Geological_Sensors -->
<g id="node3" class="node">
<title>Improved_Geological_Sensors</title>
<path fill="#cce5ff" stroke="black" d="M355.75,-94C355.75,-94 235.5,-94 235.5,-94 229.5,-94 223.5,-88 223.5,-82 223.5,-82 223.5,-70 223.5,-70 223.5,-64 229.5,-58 235.5,-58 235.5,-58 355.75,-58 355.75,-58 361.75,-58 367.75,-64 367.75,-70 367.75,-70 367.75,-82 367.75,-82 367.75,-88 361.75,-94 355.75,-94"/>
<text xml:space="preserve" text-anchor="middle" x="295.62" y="-77.75" font-family="Helvetica,sans-Serif" font-size="10.00">Improved Geological Sensors</text>
<text xml:space="preserve" text-anchor="middle" x="295.62" y="-66.5" font-family="Helvetica,sans-Serif" font-size="10.00">10K RP</text>
</g>
<!-- Geological_Survey_Sensors&#45;&gt;Improved_Geological_Sensors -->
<g id="edge1" class="edge">
<title>Geological_Survey_Sensors&#45;&gt;Improved_Geological_Sensors</title>
<path fill="none" stroke="black" d="M164.73,-76C180.89,-76 198.34,-76 215.04,-76"/>
<polygon fill="black" stroke="black" points="214.65,-78.45 221.65,-76 214.65,-73.55 214.65,-78.45"/>
</g>
<!-- Advanced_Geological_Sensors -->
<g id="node4" class="node">
<title>Advanced_Geological_Sensors</title>
<path fill="#fff3cd" stroke="black" d="M532,-94C532,-94 408.75,-94 408.75,-94 402.75,-94 396.75,-88 396.75,-82 396.75,-82 396.75,-70 396.75,-70 396.75,-64 402.75,-58 408.75,-58 408.75,-58 532,-58 532,-58 538,-58 544,-64 544,-70 544,-70 544,-82 544,-82 544,-88 538,-94 532,-94"/>
<text xml:space="preserve" text-anchor="middle" x="470.38" y="-77.75" font-family="Helvetica,sans-Serif" font-size="10.00">Advanced Geological Sensors</text>
<text xml:space="preserve" text-anchor="middle" x="470.38" y="-66.5" font-family="Helvetica,sans-Serif" font-size="10.00">35K RP</text>
</g>
<!-- Improved_Geological_Sensors&#45;&gt;Advanced_Geological_Sensors -->
<g id="edge2" class="edge">
<title>Improved_Geological_Sensors&#45;&gt;Advanced_Geological_Sensors</title>
<path fill="none" stroke="black" d="M367.89,-76C374.49,-76 381.21,-76 387.89,-76"/>
<polygon fill="black" stroke="black" points="387.81,-78.45 394.81,-76 387.81,-73.55 387.81,-78.45"/>
</g>
<!-- Phased_Geological_Sensors -->
<g id="node5" class="node">
<title>Phased_Geological_Sensors</title>
<path fill="#fff3cd" stroke="black" d="M697.75,-94C697.75,-94 585,-94 585,-94 579,-94 573,-88 573,-82 573,-82 573,-70 573,-70 573,-64 579,-58 585,-58 585,-58 697.75,-58 697.75,-58 703.75,-58 709.75,-64 709.75,-70 709.75,-70 709.75,-82 709.75,-82 709.75,-88 703.75,-94 697.75,-94"/>
<text xml:space="preserve" text-anchor="middle" x="641.38" y="-77.75" font-family="Helvetica,sans-Serif" font-size="10.00">Phased Geological Sensors</text>
<text xml:space="preserve" text-anchor="middle" x="641.38" y="-66.5" font-family="Helvetica,sans-Serif" font-size="10.00">100K RP</text>
</g>
<!-- Advanced_Geological_Sensors&#45;&gt;Phased_Geological_Sensors -->
<g id="edge3" class="edge">
<title>Advanced_Geological_Sensors&#45;&gt;Phased_Geological_Sensors</title>
<path fill="none" stroke="black" d="M544.03,-76C550.69,-76 557.46,-76 564.16,-76"/>
<polygon fill="black" stroke="black" points="564.08,-78.45 571.08,-76 564.08,-73.55 564.08,-78.45"/>
</g>
</g>
</svg>
