<?xml version="1.0" encoding="UTF-8" standalone="no"?>
<!DOCTYPE svg PUBLIC "-//W3C//DTD SVG 1.1//EN"
 "http://www.w3.org/Graphics/SVG/1.1/DTD/svg11.dtd">
<!-- Generated by graphviz version 14.1.2 (20260124.0452)
 -->
<!-- Title: TechTree Pages: 1 -->
<svg width="694pt" height="67pt"
 viewBox="0.00 0.00 694.00 67.00" xmlns="http://www.w3.org/2000/svg" xmlns:xlink="http://www.w3.org/1999/xlink">
<g id="graph0" class="graph" transform="scale(1 1) rotate(0) translate(4 63)">
<title>TechTree</title>
<polygon fill="white" stroke="none" points="-4,4 -4,-63 689.75,-63 689.75,4 -4,4"/>
<text xml:space="preserve" text-anchor="middle" x="342.88" y="-41.7" font-family="Helvetica,sans-Serif" font-weight="bold" font-size="14.00">Grav Survey Sensors</text>
<!-- Gravitational_Survey_Sensors -->
<g id="node1" class="node">
<title>Gravitational_Survey_Sensors</title>
<path fill="#cce5ff" stroke="black" d="M131.5,-36C131.5,-36 12,-36 12,-36 6,-36 0,-30 0,-24 0,-24 0,-12 0,-12 0,-6 6,0 12,0 12,0 131.5,0 131.5,0 137.5,0 143.5,-6 143.5,-12 143.5,-12 143.5,-24 143.5,-24 143.5,-30 137.5,-36 131.5,-36"/>
<text xml:space="preserve" text-anchor="middle" x="71.75" y="-19.75" font-family="Helvetica,sans-Serif" font-size="10.00">Gravitational Survey Sensors</text>
<text xml:space="preserve" text-anchor="middle" x="71.75" y="-8.5" font-family="Helvetica,sans-Serif" font-size="10.00">2K RP</text>
</g>
<!-- Improved_Gravitational_Sensors -->
<g id="node2" class="node">
<title>Improved_Gravitational_Sensors</title>
<path fill="#cce5ff" stroke="black" d="M313.75,-36C313.75,-36 184.5,-36 184.5,-36 178.5,-36 172.5,-30 172.5,-24 172.5,-24 172.5,-12 172.5,-12 172.5,-6 178.5,0 184.5,0 184.5,0 313.75,0 313.75,0 319.75,0 325.75,-6 325.75,-12 325.75,-12 325.75,-24 325.75,-24 325.75,-30 319.75,-36 313.75,-36"/>
<text xml:space="preserve" text-anchor="middle" x="249.12" y="-19.75" font-family="Helvetica,sans-Serif" font-size="10.00">Improved Gravitational Sensors</text>
<text xml:space="preserve" text-anchor="middle" x="249.12" y="-8.5" font-family="Helvetica,sans-Serif" font-size="10.00">10K RP</text>
</g>
<!-- Gravitational_Survey_Sensors&#45;&gt;Improved_Gravitational_Sensors -->
<g id="edge1" class="edge">
<title>Gravitational_Survey_Sensors&#45;&gt;Improved_Gravitational_Sensors</title>
<path fill="none" stroke="black" d="M143.83,-18C150.37,-18 157.04,-18 163.69,-18"/>
<polygon fill="black" stroke="black" points="163.57,-20.45 170.57,-18 163.57,-15.55 163.57,-20.45"/>
</g>
<!-- Advanced_Gravitational_Sensors -->
<g id="node3" class="node">
<title>Advanced_Gravitational_Sensors</title>
<path fill="#fff3cd" stroke="black" d="M499,-36C499,-36 366.75,-36 366.75,-36 360.75,-36 354.75,-30 354.75,-24 354.75,-24 354.75,-12 354.75,-12 354.75,-6 360.75,0 366.75,0 366.75,0 499,0 499,0 505,0 511,-6 511,-12 511,-12 511,-24 511,-24 511,-30 505,-36 499,-36"/>
<text xml:space="preserve" text-anchor="middle" x="432.88" y="-19.75" font-family="Helvetica,sans-Serif" font-size="10.00">Advanced Gravitational Sensors</text>
<text xml:space="preserve" text-anchor="middle" x="432.88" y="-8.5" font-family="Helvetica,sans-Serif" font-size="10.00">35K RP</text>
</g>
<!-- Improved_Gravitational_Sensors&#45;&gt;Advanced_Gravitational_Sensors -->
<g id="edge2" class="edge">
<title>Improved_Gravitational_Sensors&#45;&gt;Advanced_Gravitational_Sensors</title>
<path fill="none" stroke="black" d="M326.15,-18C332.72,-18 339.39,-18 346.02,-18"/>
<polygon fill="black" stroke="black" points="345.89,-20.45 352.89,-18 345.89,-15.55 345.89,-20.45"/>
</g>
<!-- Phased_Gravitational_Sensors -->
<g id="node4" class="node">
<title>Phased_Gravitational_Sensors</title>
<path fill="#fff3cd" stroke="black" d="M673.75,-36C673.75,-36 552,-36 552,-36 546,-36 540,-30 540,-24 540,-24 540,-12 540,-12 540,-6 546,0 552,0 552,0 673.75,0 673.75,0 679.75,0 685.75,-6 685.75,-12 685.75,-12 685.75,-24 685.75,-24 685.75,-30 679.75,-36 673.75,-36"/>
<text xml:space="preserve" text-anchor="middle" x="612.88" y="-19.75" font-family="Helvetica,sans-Serif" font-size="10.00">Phased Gravitational Sensors</text>
<text xml:space="preserve" text-anchor="middle" x="612.88" y="-8.5" font-family="Helvetica,sans-Serif" font-size="10.00">100K RP</text>
</g>
<!-- Advanced_Gravitational_Sensors&#45;&gt;Phased_Gravitational_Sensors -->
<g id="edge3" class="edge">
<title>Advanced_Gravitational_Sensors&#45;&gt;Phased_Gravitational_Sensors</title>
<path fill="none" stroke="black" d="M511.43,-18C518.02,-18 524.69,-18 531.3,-18"/>
<polygon fill="black" stroke="black" points="531.11,-20.45 538.11,-18 531.11,-15.55 531.11,-20.45"/>
</g>
</g>
</svg>
