<?xml version="1.0" encoding="UTF-8" standalone="no"?>
<!DOCTYPE svg PUBLIC "-//W3C//DTD SVG 1.1//EN"
 "http://www.w3.org/Graphics/SVG/1.1/DTD/svg11.dtd">
<!-- Generated by graphviz version 14.1.2 (20260124.0452)
 -->
<!-- Title: TechTree Pages: 1 -->
<svg width="155pt" height="353pt"
 viewBox="0.00 0.00 155.00 353.00" xmlns="http://www.w3.org/2000/svg" xmlns:xlink="http://www.w3.org/1999/xlink">
<g id="graph0" class="graph" transform="scale(1 1) rotate(0) translate(4 348.75)">
<title>TechTree</title>
<polygon fill="white" stroke="none" points="-4,4 -4,-348.75 151.25,-348.75 151.25,4 -4,4"/>
<text xml:space="preserve" text-anchor="middle" x="73.62" y="-329.35" font-family="Helvetica,sans-Serif" font-weight="bold" font-size="12.00">Grav Survey Sensors</text>
<!-- Gravitational_Survey_Sensors -->
<g id="node1" class="node">
<title>Gravitational_Survey_Sensors</title>
<path fill="#cce5ff" stroke="black" d="M128.88,-252C128.88,-252 18.37,-252 18.37,-252 12.38,-252 6.38,-246 6.38,-240 6.38,-240 6.38,-228 6.38,-228 6.38,-222 12.38,-216 18.38,-216 18.38,-216 128.88,-216 128.88,-216 134.88,-216 140.88,-222 140.88,-228 140.88,-228 140.88,-240 140.88,-240 140.88,-246 134.88,-252 128.88,-252"/>
<text xml:space="preserve" text-anchor="middle" x="73.62" y="-235.2" font-family="Helvetica,sans-Serif" font-size="9.00">Gravitational Survey Sensors</text>
<text xml:space="preserve" text-anchor="middle" x="73.62" y="-225.45" font-family="Helvetica,sans-Serif" font-size="9.00">2K RP</text>
</g>
<!-- Improved_Gravitational_Sensors -->
<g id="node2" class="node">
<title>Improved_Gravitational_Sensors</title>
<path fill="#cce5ff" stroke="black" d="M133.75,-180C133.75,-180 13.5,-180 13.5,-180 7.5,-180 1.5,-174 1.5,-168 1.5,-168 1.5,-156 1.5,-156 1.5,-150 7.5,-144 13.5,-144 13.5,-144 133.75,-144 133.75,-144 139.75,-144 145.75,-150 145.75,-156 145.75,-156 145.75,-168 145.75,-168 145.75,-174 139.75,-180 133.75,-180"/>
<text xml:space="preserve" text-anchor="middle" x="73.62" y="-163.2" font-family="Helvetica,sans-Serif" font-size="9.00">Improved Gravitational Sensors</text>
<text xml:space="preserve" text-anchor="middle" x="73.62" y="-153.45" font-family="Helvetica,sans-Serif" font-size="9.00">10K RP</text>
</g>
<!-- Gravitational_Survey_Sensors&#45;&gt;Improved_Gravitational_Sensors -->
<g id="edge2" class="edge">
<title>Gravitational_Survey_Sensors&#45;&gt;Improved_Gravitational_Sensors</title>
<path fill="none" stroke="black" d="M73.62,-215.7C73.62,-207.22 73.62,-196.86 73.62,-187.58"/>
<polygon fill="black" stroke="black" points="75.73,-187.62 73.63,-181.62 71.53,-187.62 75.73,-187.62"/>
</g>
<!-- Advanced_Gravitational_Sensors -->
<g id="node3" class="node">
<title>Advanced_Gravitational_Sensors</title>
<path fill="#fff3cd" stroke="black" d="M135.25,-108C135.25,-108 12,-108 12,-108 6,-108 0,-102 0,-96 0,-96 0,-84 0,-84 0,-78 6,-72 12,-72 12,-72 135.25,-72 135.25,-72 141.25,-72 147.25,-78 147.25,-84 147.25,-84 147.25,-96 147.25,-96 147.25,-102 141.25,-108 135.25,-108"/>
<text xml:space="preserve" text-anchor="middle" x="73.62" y="-91.2" font-family="Helvetica,sans-Serif" font-size="9.00">Advanced Gravitational Sensors</text>
<text xml:space="preserve" text-anchor="middle" x="73.62" y="-81.45" font-family="Helvetica,sans-Serif" font-size="9.00">35K RP</text>
</g>
<!-- Improved_Gravitational_Sensors&#45;&gt;Advanced_Gravitational_Sensors -->
<g id="edge3" class="edge">
<title>Improved_Gravitational_Sensors&#45;&gt;Advanced_Gravitational_Sensors</title>
<path fill="none" stroke="black" d="M73.62,-143.7C73.62,-135.22 73.62,-124.86 73.62,-115.58"/>
<polygon fill="black" stroke="black" points="75.73,-115.62 73.63,-109.62 71.53,-115.62 75.73,-115.62"/>
</g>
<!-- Phased_Gravitational_Sensors -->
<g id="node4" class="node">
<title>Phased_Gravitational_Sensors</title>
<path fill="#fff3cd" stroke="black" d="M130.38,-36C130.38,-36 16.88,-36 16.88,-36 10.88,-36 4.88,-30 4.88,-24 4.88,-24 4.88,-12 4.88,-12 4.88,-6 10.88,0 16.88,0 16.88,0 130.38,0 130.38,0 136.38,0 142.38,-6 142.38,-12 142.38,-12 142.38,-24 142.38,-24 142.38,-30 136.38,-36 130.38,-36"/>
<text xml:space="preserve" text-anchor="middle" x="73.62" y="-19.2" font-family="Helvetica,sans-Serif" font-size="9.00">Phased Gravitational Sensors</text>
<text xml:space="preserve" text-anchor="middle" x="73.62" y="-9.45" font-family="Helvetica,sans-Serif" font-size="9.00">100K RP</text>
</g>
<!-- Advanced_Gravitational_Sensors&#45;&gt;Phased_Gravitational_Sensors -->
<g id="edge4" class="edge">
<title>Advanced_Gravitational_Sensors&#45;&gt;Phased_Gravitational_Sensors</title>
<path fill="none" stroke="black" d="M73.62,-71.7C73.62,-63.22 73.62,-52.86 73.62,-43.58"/>
<polygon fill="black" stroke="black" points="75.73,-43.62 73.63,-37.62 71.53,-43.62 75.73,-43.62"/>
</g>
<!-- ext_Jump_Point_Theory -->
<g id="node5" class="node">
<title>ext_Jump_Point_Theory</title>
<path fill="#f0f0f0" stroke="black" stroke-dasharray="5,2" d="M107.88,-324C107.88,-324 39.38,-324 39.38,-324 33.38,-324 27.38,-318 27.38,-312 27.38,-312 27.38,-300 27.38,-300 27.38,-294 33.38,-288 39.38,-288 39.38,-288 107.88,-288 107.88,-288 113.88,-288 119.88,-294 119.88,-300 119.88,-300 119.88,-312 119.88,-312 119.88,-318 113.88,-324 107.88,-324"/>
<text xml:space="preserve" text-anchor="middle" x="73.62" y="-302.32" font-family="Helvetica,sans-Serif" font-size="9.00">Jump Point Theory</text>
</g>
<!-- ext_Jump_Point_Theory&#45;&gt;Gravitational_Survey_Sensors -->
<g id="edge1" class="edge">
<title>ext_Jump_Point_Theory&#45;&gt;Gravitational_Survey_Sensors</title>
<path fill="none" stroke="black" d="M73.62,-287.7C73.62,-279.22 73.62,-268.86 73.62,-259.58"/>
<polygon fill="black" stroke="black" points="75.73,-259.62 73.63,-253.62 71.53,-259.62 75.73,-259.62"/>
</g>
</g>
</svg>
