<?xml version="1.0" encoding="UTF-8" standalone="no"?>
<!DOCTYPE svg PUBLIC "-//W3C//DTD SVG 1.1//EN"
 "http://www.w3.org/Graphics/SVG/1.1/DTD/svg11.dtd">
<!-- Generated by graphviz version 14.1.2 (20260124.0452)
 -->
<!-- Title: TechTree Pages: 1 -->
<svg width="344pt" height="65pt"
 viewBox="0.00 0.00 344.00 65.00" xmlns="http://www.w3.org/2000/svg" xmlns:xlink="http://www.w3.org/1999/xlink">
<g id="graph0" class="graph" transform="scale(1 1) rotate(0) translate(4 60.75)">
<title>TechTree</title>
<polygon fill="white" stroke="none" points="-4,4 -4,-60.75 339.88,-60.75 339.88,4 -4,4"/>
<text xml:space="preserve" text-anchor="middle" x="167.94" y="-41.35" font-family="Helvetica,sans-Serif" font-weight="bold" font-size="12.00">Ground Force Logistics</text>
<!-- Ground_Force_Logistics_Module_ -->
<g id="node1" class="node">
<title>Ground_Force_Logistics_Module_</title>
<path fill="#d4edda" stroke="black" d="M162.25,-36C162.25,-36 12,-36 12,-36 6,-36 0,-30 0,-24 0,-24 0,-12 0,-12 0,-6 6,0 12,0 12,0 162.25,0 162.25,0 168.25,0 174.25,-6 174.25,-12 174.25,-12 174.25,-24 174.25,-24 174.25,-30 168.25,-36 162.25,-36"/>
<text xml:space="preserve" text-anchor="middle" x="87.12" y="-19.2" font-family="Helvetica,sans-Serif" font-size="9.00">Ground Force Logistics Module &#45; Small</text>
<text xml:space="preserve" text-anchor="middle" x="87.12" y="-9.45" font-family="Helvetica,sans-Serif" font-size="9.00">500 RP</text>
</g>
<!-- Ground_Force_Logistics_Module -->
<g id="node2" class="node">
<title>Ground_Force_Logistics_Module</title>
<path fill="#cce5ff" stroke="black" d="M323.88,-36C323.88,-36 204.38,-36 204.38,-36 198.38,-36 192.38,-30 192.38,-24 192.38,-24 192.38,-12 192.38,-12 192.38,-6 198.38,0 204.38,0 204.38,0 323.88,0 323.88,0 329.88,0 335.88,-6 335.88,-12 335.88,-12 335.88,-24 335.88,-24 335.88,-30 329.88,-36 323.88,-36"/>
<text xml:space="preserve" text-anchor="middle" x="264.12" y="-19.2" font-family="Helvetica,sans-Serif" font-size="9.00">Ground Force Logistics Module</text>
<text xml:space="preserve" text-anchor="middle" x="264.12" y="-9.45" font-family="Helvetica,sans-Serif" font-size="9.00">1K RP</text>
</g>
</g>
</svg>
