<?xml version="1.0" encoding="UTF-8" standalone="no"?>
<!DOCTYPE svg PUBLIC "-//W3C//DTD SVG 1.1//EN"
 "http://www.w3.org/Graphics/SVG/1.1/DTD/svg11.dtd">
<!-- Generated by graphviz version 14.1.2 (20260124.0452)
 -->
<!-- Title: TechTree Pages: 1 -->
<svg width="164pt" height="67pt"
 viewBox="0.00 0.00 164.00 67.00" xmlns="http://www.w3.org/2000/svg" xmlns:xlink="http://www.w3.org/1999/xlink">
<g id="graph0" class="graph" transform="scale(1 1) rotate(0) translate(4 63)">
<title>TechTree</title>
<polygon fill="white" stroke="none" points="-4,4 -4,-63 160.25,-63 160.25,4 -4,4"/>
<text xml:space="preserve" text-anchor="middle" x="78.12" y="-41.7" font-family="Helvetica,sans-Serif" font-weight="bold" font-size="14.00">Ground Headquarters</text>
<!-- Ground_Forces_Headquarters -->
<g id="node1" class="node">
<title>Ground_Forces_Headquarters</title>
<path fill="#cce5ff" stroke="black" d="M137.12,-36C137.12,-36 19.12,-36 19.12,-36 13.12,-36 7.12,-30 7.12,-24 7.12,-24 7.12,-12 7.12,-12 7.12,-6 13.12,0 19.12,0 19.12,0 137.12,0 137.12,0 143.12,0 149.12,-6 149.12,-12 149.12,-12 149.12,-24 149.12,-24 149.12,-30 143.12,-36 137.12,-36"/>
<text xml:space="preserve" text-anchor="middle" x="78.12" y="-19.75" font-family="Helvetica,sans-Serif" font-size="10.00">Ground Forces Headquarters</text>
<text xml:space="preserve" text-anchor="middle" x="78.12" y="-8.5" font-family="Helvetica,sans-Serif" font-size="10.00">1K RP</text>
</g>
</g>
</svg>
