<?xml version="1.0" encoding="UTF-8" standalone="no"?>
<!DOCTYPE svg PUBLIC "-//W3C//DTD SVG 1.1//EN"
 "http://www.w3.org/Graphics/SVG/1.1/DTD/svg11.dtd">
<!-- Generated by graphviz version 14.1.2 (20260124.0452)
 -->
<!-- Title: TechTree Pages: 1 -->
<svg width="365pt" height="65pt"
 viewBox="0.00 0.00 365.00 65.00" xmlns="http://www.w3.org/2000/svg" xmlns:xlink="http://www.w3.org/1999/xlink">
<g id="graph0" class="graph" transform="scale(1 1) rotate(0) translate(4 60.75)">
<title>TechTree</title>
<polygon fill="white" stroke="none" points="-4,4 -4,-60.75 360.5,-60.75 360.5,4 -4,4"/>
<text xml:space="preserve" text-anchor="middle" x="178.25" y="-41.35" font-family="Helvetica,sans-Serif" font-weight="bold" font-size="12.00">Ground Formation Construction Rate</text>
<!-- Ground_Formation_Construction_ -->
<g id="node1" class="node">
<title>Ground_Formation_Construction_</title>
<path fill="#d4c4fb" stroke="black" d="M182.5,-36C182.5,-36 12,-36 12,-36 6,-36 0,-30 0,-24 0,-24 0,-12 0,-12 0,-6 6,0 12,0 12,0 182.5,0 182.5,0 188.5,0 194.5,-6 194.5,-12 194.5,-12 194.5,-24 194.5,-24 194.5,-30 188.5,-36 182.5,-36"/>
<text xml:space="preserve" text-anchor="middle" x="97.25" y="-19.2" font-family="Helvetica,sans-Serif" font-size="9.00">Ground Formation Construction Rate &#45; 2000</text>
<text xml:space="preserve" text-anchor="middle" x="97.25" y="-9.45" font-family="Helvetica,sans-Serif" font-size="9.00">500K RP</text>
</g>
<!-- Ground_Formation_Construction_&#45;&gt;Ground_Formation_Construction_ -->
<g id="edge1" class="edge">
<title>Ground_Formation_Construction_&#45;&gt;Ground_Formation_Construction_</title>
<path fill="none" stroke="black" d="M194.78,-19.26C205.55,-19.02 212.5,-18.6 212.5,-18 212.5,-17.55 208.59,-17.2 202.09,-16.95"/>
<polygon fill="black" stroke="black" points="202.35,-14.86 196.3,-16.78 202.23,-19.06 202.35,-14.86"/>
</g>
<!-- Ground_Formation_Construction_&#45;&gt;Ground_Formation_Construction_ -->
<g id="edge2" class="edge">
<title>Ground_Formation_Construction_&#45;&gt;Ground_Formation_Construction_</title>
<path fill="none" stroke="black" d="M194.86,-20.9C215.56,-20.61 230.5,-19.64 230.5,-18 230.5,-16.56 219.06,-15.64 202.33,-15.24"/>
<polygon fill="black" stroke="black" points="202.41,-13.14 196.37,-15.13 202.33,-17.34 202.41,-13.14"/>
</g>
<!-- Ground_Formation_Construction_&#45;&gt;Ground_Formation_Construction_ -->
<g id="edge3" class="edge">
<title>Ground_Formation_Construction_&#45;&gt;Ground_Formation_Construction_</title>
<path fill="none" stroke="black" d="M194.72,-22.5C224.84,-22.4 248.5,-20.91 248.5,-18 248.5,-15.33 228.56,-13.85 201.99,-13.56"/>
<polygon fill="black" stroke="black" points="202.24,-11.46 196.23,-13.51 202.21,-15.66 202.24,-11.46"/>
</g>
<!-- Ground_Formation_Construction_&#45;&gt;Ground_Formation_Construction_ -->
<g id="edge4" class="edge">
<title>Ground_Formation_Construction_&#45;&gt;Ground_Formation_Construction_</title>
<path fill="none" stroke="black" d="M194.65,-23.96C233.71,-24.3 266.5,-22.31 266.5,-18 266.5,-13.96 237.68,-11.96 201.89,-12"/>
<polygon fill="black" stroke="black" points="202.15,-9.9 196.16,-12.03 202.17,-14.1 202.15,-9.9"/>
</g>
<!-- Ground_Formation_Construction_&#45;&gt;Ground_Formation_Construction_ -->
<g id="edge5" class="edge">
<title>Ground_Formation_Construction_&#45;&gt;Ground_Formation_Construction_</title>
<path fill="none" stroke="black" d="M194.55,-25.3C242.21,-26.25 284.5,-23.82 284.5,-18 284.5,-12.49 246.55,-10.01 202.04,-10.58"/>
<polygon fill="black" stroke="black" points="202.03,-8.48 196.07,-10.68 202.1,-12.68 202.03,-8.48"/>
</g>
<!-- Ground_Formation_Construction_&#45;&gt;Ground_Formation_Construction_ -->
<g id="edge6" class="edge">
<title>Ground_Formation_Construction_&#45;&gt;Ground_Formation_Construction_</title>
<path fill="none" stroke="black" d="M194.92,-26.52C250.71,-28.22 302.5,-25.38 302.5,-18 302.5,-10.95 255.26,-8.04 202.41,-9.28"/>
<polygon fill="black" stroke="black" points="202.37,-7.18 196.43,-9.44 202.49,-11.37 202.37,-7.18"/>
</g>
<!-- Ground_Formation_Construction_&#45;&gt;Ground_Formation_Construction_ -->
<g id="edge7" class="edge">
<title>Ground_Formation_Construction_&#45;&gt;Ground_Formation_Construction_</title>
<path fill="none" stroke="black" d="M194.79,-27.62C258.67,-30.23 320.5,-27.02 320.5,-18 320.5,-9.33 263.41,-6.03 202.26,-8.1"/>
<polygon fill="black" stroke="black" points="202.22,-6 196.3,-8.32 202.38,-10.2 202.22,-6"/>
</g>
<!-- Ground_Formation_Construction_&#45;&gt;Ground_Formation_Construction_ -->
<g id="edge8" class="edge">
<title>Ground_Formation_Construction_&#45;&gt;Ground_Formation_Construction_</title>
<path fill="none" stroke="black" d="M194.8,-28.63C266.53,-32.25 338.5,-28.7 338.5,-18 338.5,-7.65 271.23,-4 201.95,-7.03"/>
<polygon fill="black" stroke="black" points="202.21,-4.92 196.32,-7.3 202.41,-9.11 202.21,-4.92"/>
</g>
<!-- Ground_Formation_Construction_&#45;&gt;Ground_Formation_Construction_ -->
<g id="edge9" class="edge">
<title>Ground_Formation_Construction_&#45;&gt;Ground_Formation_Construction_</title>
<path fill="none" stroke="black" d="M195,-29.56C274.34,-34.26 356.5,-30.41 356.5,-18 356.5,-5.98 279.4,-1.99 202.44,-6.02"/>
<polygon fill="black" stroke="black" points="202.38,-3.92 196.51,-6.35 202.62,-8.12 202.38,-3.92"/>
</g>
</g>
</svg>
