<?xml version="1.0" encoding="UTF-8" standalone="no"?>
<!DOCTYPE svg PUBLIC "-//W3C//DTD SVG 1.1//EN"
 "http://www.w3.org/Graphics/SVG/1.1/DTD/svg11.dtd">
<!-- Generated by graphviz version 14.1.2 (20260124.0452)
 -->
<!-- Title: TechTree Pages: 1 -->
<svg width="146pt" height="137pt"
 viewBox="0.00 0.00 146.00 137.00" xmlns="http://www.w3.org/2000/svg" xmlns:xlink="http://www.w3.org/1999/xlink">
<g id="graph0" class="graph" transform="scale(1 1) rotate(0) translate(4 132.75)">
<title>TechTree</title>
<polygon fill="white" stroke="none" points="-4,4 -4,-132.75 141.5,-132.75 141.5,4 -4,4"/>
<text xml:space="preserve" text-anchor="middle" x="68.75" y="-113.35" font-family="Helvetica,sans-Serif" font-weight="bold" font-size="12.00">Ground Construction</text>
<!-- Construction_Equipment -->
<g id="node1" class="node">
<title>Construction_Equipment</title>
<path fill="#cce5ff" stroke="black" d="M113.88,-36C113.88,-36 23.62,-36 23.62,-36 17.62,-36 11.62,-30 11.62,-24 11.62,-24 11.62,-12 11.62,-12 11.62,-6 17.62,0 23.62,0 23.62,0 113.88,0 113.88,0 119.88,0 125.88,-6 125.88,-12 125.88,-12 125.88,-24 125.88,-24 125.88,-30 119.88,-36 113.88,-36"/>
<text xml:space="preserve" text-anchor="middle" x="68.75" y="-19.2" font-family="Helvetica,sans-Serif" font-size="9.00">Construction Equipment</text>
<text xml:space="preserve" text-anchor="middle" x="68.75" y="-9.45" font-family="Helvetica,sans-Serif" font-size="9.00">2K RP</text>
</g>
<!-- ext_Light_Vehicle_Armour___ARM_2 -->
<g id="node2" class="node">
<title>ext_Light_Vehicle_Armour___ARM_2</title>
<path fill="#f0f0f0" stroke="black" stroke-dasharray="5,2" d="M124.75,-108C124.75,-108 12.75,-108 12.75,-108 6.75,-108 0.75,-102 0.75,-96 0.75,-96 0.75,-84 0.75,-84 0.75,-78 6.75,-72 12.75,-72 12.75,-72 124.75,-72 124.75,-72 130.75,-72 136.75,-78 136.75,-84 136.75,-84 136.75,-96 136.75,-96 136.75,-102 130.75,-108 124.75,-108"/>
<text xml:space="preserve" text-anchor="middle" x="68.75" y="-86.33" font-family="Helvetica,sans-Serif" font-size="9.00">Light Vehicle Armour &#45; ARM 2</text>
</g>
<!-- ext_Light_Vehicle_Armour___ARM_2&#45;&gt;Construction_Equipment -->
<g id="edge1" class="edge">
<title>ext_Light_Vehicle_Armour___ARM_2&#45;&gt;Construction_Equipment</title>
<path fill="none" stroke="black" d="M68.75,-71.7C68.75,-63.22 68.75,-52.86 68.75,-43.58"/>
<polygon fill="black" stroke="black" points="70.85,-43.62 68.75,-37.62 66.65,-43.62 70.85,-43.62"/>
</g>
</g>
</svg>
