<?xml version="1.0" encoding="UTF-8" standalone="no"?>
<!DOCTYPE svg PUBLIC "-//W3C//DTD SVG 1.1//EN"
 "http://www.w3.org/Graphics/SVG/1.1/DTD/svg11.dtd">
<!-- Generated by graphviz version 14.1.2 (20260124.0452)
 -->
<!-- Title: TechTree Pages: 1 -->
<svg width="700pt" height="281pt"
 viewBox="0.00 0.00 700.00 281.00" xmlns="http://www.w3.org/2000/svg" xmlns:xlink="http://www.w3.org/1999/xlink">
<g id="graph0" class="graph" transform="scale(1 1) rotate(0) translate(4 276.75)">
<title>TechTree</title>
<polygon fill="white" stroke="none" points="-4,4 -4,-276.75 695.88,-276.75 695.88,4 -4,4"/>
<text xml:space="preserve" text-anchor="middle" x="345.94" y="-257.35" font-family="Helvetica,sans-Serif" font-weight="bold" font-size="12.00">Ground Unit Base Type</text>
<!-- Ground_Unit_Base_Type___Infant -->
<g id="node1" class="node">
<title>Ground_Unit_Base_Type___Infant</title>
<path fill="#cce5ff" stroke="black" d="M136.75,-252C136.75,-252 12,-252 12,-252 6,-252 0,-246 0,-240 0,-240 0,-228 0,-228 0,-222 6,-216 12,-216 12,-216 136.75,-216 136.75,-216 142.75,-216 148.75,-222 148.75,-228 148.75,-228 148.75,-240 148.75,-240 148.75,-246 142.75,-252 136.75,-252"/>
<text xml:space="preserve" text-anchor="middle" x="74.38" y="-235.2" font-family="Helvetica,sans-Serif" font-size="9.00">Ground Unit Base Type &#45; Infantry</text>
<text xml:space="preserve" text-anchor="middle" x="74.38" y="-225.45" font-family="Helvetica,sans-Serif" font-size="9.00">1K RP</text>
</g>
<!-- Ground_Unit_Base_Type___Static -->
<g id="node2" class="node">
<title>Ground_Unit_Base_Type___Static</title>
<path fill="#cce5ff" stroke="black" d="M296,-252C296,-252 178.75,-252 178.75,-252 172.75,-252 166.75,-246 166.75,-240 166.75,-240 166.75,-228 166.75,-228 166.75,-222 172.75,-216 178.75,-216 178.75,-216 296,-216 296,-216 302,-216 308,-222 308,-228 308,-228 308,-240 308,-240 308,-246 302,-252 296,-252"/>
<text xml:space="preserve" text-anchor="middle" x="237.38" y="-235.2" font-family="Helvetica,sans-Serif" font-size="9.00">Ground Unit Base Type &#45; Static</text>
<text xml:space="preserve" text-anchor="middle" x="237.38" y="-225.45" font-family="Helvetica,sans-Serif" font-size="9.00">2K RP</text>
</g>
<!-- Ground_Unit_Base_Type___Light_ -->
<g id="node3" class="node">
<title>Ground_Unit_Base_Type___Light_</title>
<path fill="#cce5ff" stroke="black" d="M485,-252C485,-252 337.75,-252 337.75,-252 331.75,-252 325.75,-246 325.75,-240 325.75,-240 325.75,-228 325.75,-228 325.75,-222 331.75,-216 337.75,-216 337.75,-216 485,-216 485,-216 491,-216 497,-222 497,-228 497,-228 497,-240 497,-240 497,-246 491,-252 485,-252"/>
<text xml:space="preserve" text-anchor="middle" x="411.38" y="-235.2" font-family="Helvetica,sans-Serif" font-size="9.00">Ground Unit Base Type &#45; Light Vehicle</text>
<text xml:space="preserve" text-anchor="middle" x="411.38" y="-225.45" font-family="Helvetica,sans-Serif" font-size="9.00">2K RP</text>
</g>
<!-- Ground_Unit_Base_Type___Heavy_ -->
<g id="node4" class="node">
<title>Ground_Unit_Base_Type___Heavy_</title>
<path fill="#cce5ff" stroke="black" d="M666,-180C666,-180 512.75,-180 512.75,-180 506.75,-180 500.75,-174 500.75,-168 500.75,-168 500.75,-156 500.75,-156 500.75,-150 506.75,-144 512.75,-144 512.75,-144 666,-144 666,-144 672,-144 678,-150 678,-156 678,-156 678,-168 678,-168 678,-174 672,-180 666,-180"/>
<text xml:space="preserve" text-anchor="middle" x="589.38" y="-163.2" font-family="Helvetica,sans-Serif" font-size="9.00">Ground Unit Base Type &#45; Heavy Vehicle</text>
<text xml:space="preserve" text-anchor="middle" x="589.38" y="-153.45" font-family="Helvetica,sans-Serif" font-size="9.00">2K RP</text>
</g>
<!-- Ground_Unit_Base_Type___Super_ -->
<g id="node6" class="node">
<title>Ground_Unit_Base_Type___Super_</title>
<path fill="#cce5ff" stroke="black" d="M679.88,-108C679.88,-108 498.88,-108 498.88,-108 492.88,-108 486.88,-102 486.88,-96 486.88,-96 486.88,-84 486.88,-84 486.88,-78 492.88,-72 498.88,-72 498.88,-72 679.88,-72 679.88,-72 685.88,-72 691.88,-78 691.88,-84 691.88,-84 691.88,-96 691.88,-96 691.88,-102 685.88,-108 679.88,-108"/>
<text xml:space="preserve" text-anchor="middle" x="589.38" y="-91.2" font-family="Helvetica,sans-Serif" font-size="9.00">Ground Unit Base Type &#45; Super&#45;Heavy Vehicle</text>
<text xml:space="preserve" text-anchor="middle" x="589.38" y="-81.45" font-family="Helvetica,sans-Serif" font-size="9.00">5K RP</text>
</g>
<!-- Ground_Unit_Base_Type___Heavy_&#45;&gt;Ground_Unit_Base_Type___Super_ -->
<g id="edge2" class="edge">
<title>Ground_Unit_Base_Type___Heavy_&#45;&gt;Ground_Unit_Base_Type___Super_</title>
<path fill="none" stroke="black" d="M589.38,-143.7C589.38,-135.22 589.38,-124.86 589.38,-115.58"/>
<polygon fill="black" stroke="black" points="591.48,-115.62 589.38,-109.62 587.28,-115.62 591.48,-115.62"/>
</g>
<!-- Ground_Unit_Base_Type___Vehicl -->
<g id="node5" class="node">
<title>Ground_Unit_Base_Type___Vehicl</title>
<path fill="#cce5ff" stroke="black" d="M651.75,-252C651.75,-252 527,-252 527,-252 521,-252 515,-246 515,-240 515,-240 515,-228 515,-228 515,-222 521,-216 527,-216 527,-216 651.75,-216 651.75,-216 657.75,-216 663.75,-222 663.75,-228 663.75,-228 663.75,-240 663.75,-240 663.75,-246 657.75,-252 651.75,-252"/>
<text xml:space="preserve" text-anchor="middle" x="589.38" y="-235.2" font-family="Helvetica,sans-Serif" font-size="9.00">Ground Unit Base Type &#45; Vehicle</text>
<text xml:space="preserve" text-anchor="middle" x="589.38" y="-225.45" font-family="Helvetica,sans-Serif" font-size="9.00">3K RP</text>
</g>
<!-- Ground_Unit_Base_Type___Vehicl&#45;&gt;Ground_Unit_Base_Type___Heavy_ -->
<g id="edge1" class="edge">
<title>Ground_Unit_Base_Type___Vehicl&#45;&gt;Ground_Unit_Base_Type___Heavy_</title>
<path fill="none" stroke="black" d="M589.38,-215.7C589.38,-207.22 589.38,-196.86 589.38,-187.58"/>
<polygon fill="black" stroke="black" points="591.48,-187.62 589.38,-181.62 587.28,-187.62 591.48,-187.62"/>
</g>
<!-- Ground_Unit_Base_Type___Ultra_ -->
<g id="node7" class="node">
<title>Ground_Unit_Base_Type___Ultra_</title>
<path fill="#cce5ff" stroke="black" d="M677.25,-36C677.25,-36 501.5,-36 501.5,-36 495.5,-36 489.5,-30 489.5,-24 489.5,-24 489.5,-12 489.5,-12 489.5,-6 495.5,0 501.5,0 501.5,0 677.25,0 677.25,0 683.25,0 689.25,-6 689.25,-12 689.25,-12 689.25,-24 689.25,-24 689.25,-30 683.25,-36 677.25,-36"/>
<text xml:space="preserve" text-anchor="middle" x="589.38" y="-19.2" font-family="Helvetica,sans-Serif" font-size="9.00">Ground Unit Base Type &#45; Ultra&#45;Heavy Vehicle</text>
<text xml:space="preserve" text-anchor="middle" x="589.38" y="-9.45" font-family="Helvetica,sans-Serif" font-size="9.00">10K RP</text>
</g>
<!-- Ground_Unit_Base_Type___Super_&#45;&gt;Ground_Unit_Base_Type___Ultra_ -->
<g id="edge3" class="edge">
<title>Ground_Unit_Base_Type___Super_&#45;&gt;Ground_Unit_Base_Type___Ultra_</title>
<path fill="none" stroke="black" d="M589.38,-71.7C589.38,-63.22 589.38,-52.86 589.38,-43.58"/>
<polygon fill="black" stroke="black" points="591.48,-43.62 589.38,-37.62 587.28,-43.62 591.48,-43.62"/>
</g>
</g>
</svg>
