<?xml version="1.0" encoding="UTF-8" standalone="no"?>
<!DOCTYPE svg PUBLIC "-//W3C//DTD SVG 1.1//EN"
 "http://www.w3.org/Graphics/SVG/1.1/DTD/svg11.dtd">
<!-- Generated by graphviz version 14.1.2 (20260124.0452)
 -->
<!-- Title: TechTree Pages: 1 -->
<svg width="1490pt" height="67pt"
 viewBox="0.00 0.00 1490.00 67.00" xmlns="http://www.w3.org/2000/svg" xmlns:xlink="http://www.w3.org/1999/xlink">
<g id="graph0" class="graph" transform="scale(1 1) rotate(0) translate(4 63)">
<title>TechTree</title>
<polygon fill="white" stroke="none" points="-4,4 -4,-63 1485.75,-63 1485.75,4 -4,4"/>
<text xml:space="preserve" text-anchor="middle" x="740.88" y="-41.7" font-family="Helvetica,sans-Serif" font-weight="bold" font-size="14.00">Ground Unit Capability</text>
<!-- No_Capability -->
<g id="node1" class="node">
<title>No_Capability</title>
<path fill="#d4edda" stroke="black" d="M63.25,-36C63.25,-36 12,-36 12,-36 6,-36 0,-30 0,-24 0,-24 0,-12 0,-12 0,-6 6,0 12,0 12,0 63.25,0 63.25,0 69.25,0 75.25,-6 75.25,-12 75.25,-12 75.25,-24 75.25,-24 75.25,-30 69.25,-36 63.25,-36"/>
<text xml:space="preserve" text-anchor="middle" x="37.62" y="-19.75" font-family="Helvetica,sans-Serif" font-size="10.00">No Capability</text>
<text xml:space="preserve" text-anchor="middle" x="37.62" y="-8.5" font-family="Helvetica,sans-Serif" font-size="10.00">1 RP</text>
</g>
<!-- Boarding_Combat_Capability -->
<g id="node2" class="node">
<title>Boarding_Combat_Capability</title>
<path fill="#cce5ff" stroke="black" d="M223.75,-36C223.75,-36 109.5,-36 109.5,-36 103.5,-36 97.5,-30 97.5,-24 97.5,-24 97.5,-12 97.5,-12 97.5,-6 103.5,0 109.5,0 109.5,0 223.75,0 223.75,0 229.75,0 235.75,-6 235.75,-12 235.75,-12 235.75,-24 235.75,-24 235.75,-30 229.75,-36 223.75,-36"/>
<text xml:space="preserve" text-anchor="middle" x="166.62" y="-19.75" font-family="Helvetica,sans-Serif" font-size="10.00">Boarding Combat Capability</text>
<text xml:space="preserve" text-anchor="middle" x="166.62" y="-8.5" font-family="Helvetica,sans-Serif" font-size="10.00">2K RP</text>
</g>
<!-- High_Gravity_Capability -->
<g id="node3" class="node">
<title>High_Gravity_Capability</title>
<path fill="#cce5ff" stroke="black" d="M363.25,-36C363.25,-36 270,-36 270,-36 264,-36 258,-30 258,-24 258,-24 258,-12 258,-12 258,-6 264,0 270,0 270,0 363.25,0 363.25,0 369.25,0 375.25,-6 375.25,-12 375.25,-12 375.25,-24 375.25,-24 375.25,-30 369.25,-36 363.25,-36"/>
<text xml:space="preserve" text-anchor="middle" x="316.62" y="-19.75" font-family="Helvetica,sans-Serif" font-size="10.00">High Gravity Capability</text>
<text xml:space="preserve" text-anchor="middle" x="316.62" y="-8.5" font-family="Helvetica,sans-Serif" font-size="10.00">2K RP</text>
</g>
<!-- Low_Gravity_Capability -->
<g id="node4" class="node">
<title>Low_Gravity_Capability</title>
<path fill="#cce5ff" stroke="black" d="M500.12,-36C500.12,-36 409.12,-36 409.12,-36 403.12,-36 397.12,-30 397.12,-24 397.12,-24 397.12,-12 397.12,-12 397.12,-6 403.12,0 409.12,0 409.12,0 500.12,0 500.12,0 506.12,0 512.12,-6 512.12,-12 512.12,-12 512.12,-24 512.12,-24 512.12,-30 506.12,-36 500.12,-36"/>
<text xml:space="preserve" text-anchor="middle" x="454.62" y="-19.75" font-family="Helvetica,sans-Serif" font-size="10.00">Low Gravity Capability</text>
<text xml:space="preserve" text-anchor="middle" x="454.62" y="-8.5" font-family="Helvetica,sans-Serif" font-size="10.00">2K RP</text>
</g>
<!-- Extreme_Temperature_Capability -->
<g id="node5" class="node">
<title>Extreme_Temperature_Capability</title>
<path fill="#cce5ff" stroke="black" d="M678.75,-36C678.75,-36 546.5,-36 546.5,-36 540.5,-36 534.5,-30 534.5,-24 534.5,-24 534.5,-12 534.5,-12 534.5,-6 540.5,0 546.5,0 546.5,0 678.75,0 678.75,0 684.75,0 690.75,-6 690.75,-12 690.75,-12 690.75,-24 690.75,-24 690.75,-30 684.75,-36 678.75,-36"/>
<text xml:space="preserve" text-anchor="middle" x="612.62" y="-19.75" font-family="Helvetica,sans-Serif" font-size="10.00">Extreme Temperature Capability</text>
<text xml:space="preserve" text-anchor="middle" x="612.62" y="-8.5" font-family="Helvetica,sans-Serif" font-size="10.00">2K RP</text>
</g>
<!-- Jungle_Warfare_Capability -->
<g id="node6" class="node">
<title>Jungle_Warfare_Capability</title>
<path fill="#cce5ff" stroke="black" d="M828.5,-36C828.5,-36 724.75,-36 724.75,-36 718.75,-36 712.75,-30 712.75,-24 712.75,-24 712.75,-12 712.75,-12 712.75,-6 718.75,0 724.75,0 724.75,0 828.5,0 828.5,0 834.5,0 840.5,-6 840.5,-12 840.5,-12 840.5,-24 840.5,-24 840.5,-30 834.5,-36 828.5,-36"/>
<text xml:space="preserve" text-anchor="middle" x="776.62" y="-19.75" font-family="Helvetica,sans-Serif" font-size="10.00">Jungle Warfare Capability</text>
<text xml:space="preserve" text-anchor="middle" x="776.62" y="-8.5" font-family="Helvetica,sans-Serif" font-size="10.00">2K RP</text>
</g>
<!-- Mountain_Warfare_Capability -->
<g id="node7" class="node">
<title>Mountain_Warfare_Capability</title>
<path fill="#cce5ff" stroke="black" d="M989.12,-36C989.12,-36 874.12,-36 874.12,-36 868.12,-36 862.12,-30 862.12,-24 862.12,-24 862.12,-12 862.12,-12 862.12,-6 868.12,0 874.12,0 874.12,0 989.12,0 989.12,0 995.12,0 1001.12,-6 1001.12,-12 1001.12,-12 1001.12,-24 1001.12,-24 1001.12,-30 995.12,-36 989.12,-36"/>
<text xml:space="preserve" text-anchor="middle" x="931.62" y="-19.75" font-family="Helvetica,sans-Serif" font-size="10.00">Mountain Warfare Capability</text>
<text xml:space="preserve" text-anchor="middle" x="931.62" y="-8.5" font-family="Helvetica,sans-Serif" font-size="10.00">2K RP</text>
</g>
<!-- Desert_Warfare_Capability -->
<g id="node8" class="node">
<title>Desert_Warfare_Capability</title>
<path fill="#cce5ff" stroke="black" d="M1139.88,-36C1139.88,-36 1035.38,-36 1035.38,-36 1029.38,-36 1023.38,-30 1023.38,-24 1023.38,-24 1023.38,-12 1023.38,-12 1023.38,-6 1029.38,0 1035.38,0 1035.38,0 1139.88,0 1139.88,0 1145.88,0 1151.88,-6 1151.88,-12 1151.88,-12 1151.88,-24 1151.88,-24 1151.88,-30 1145.88,-36 1139.88,-36"/>
<text xml:space="preserve" text-anchor="middle" x="1087.62" y="-19.75" font-family="Helvetica,sans-Serif" font-size="10.00">Desert Warfare Capability</text>
<text xml:space="preserve" text-anchor="middle" x="1087.62" y="-8.5" font-family="Helvetica,sans-Serif" font-size="10.00">2K RP</text>
</g>
<!-- Extreme_Pressure_Capability -->
<g id="node9" class="node">
<title>Extreme_Pressure_Capability</title>
<path fill="#cce5ff" stroke="black" d="M1303.25,-36C1303.25,-36 1186,-36 1186,-36 1180,-36 1174,-30 1174,-24 1174,-24 1174,-12 1174,-12 1174,-6 1180,0 1186,0 1186,0 1303.25,0 1303.25,0 1309.25,0 1315.25,-6 1315.25,-12 1315.25,-12 1315.25,-24 1315.25,-24 1315.25,-30 1309.25,-36 1303.25,-36"/>
<text xml:space="preserve" text-anchor="middle" x="1244.62" y="-19.75" font-family="Helvetica,sans-Serif" font-size="10.00">Extreme Pressure Capability</text>
<text xml:space="preserve" text-anchor="middle" x="1244.62" y="-8.5" font-family="Helvetica,sans-Serif" font-size="10.00">2K RP</text>
</g>
<!-- Rift_Valley_Warfare_Capability -->
<g id="node10" class="node">
<title>Rift_Valley_Warfare_Capability</title>
<path fill="#cce5ff" stroke="black" d="M1469.75,-36C1469.75,-36 1349.5,-36 1349.5,-36 1343.5,-36 1337.5,-30 1337.5,-24 1337.5,-24 1337.5,-12 1337.5,-12 1337.5,-6 1343.5,0 1349.5,0 1349.5,0 1469.75,0 1469.75,0 1475.75,0 1481.75,-6 1481.75,-12 1481.75,-12 1481.75,-24 1481.75,-24 1481.75,-30 1475.75,-36 1469.75,-36"/>
<text xml:space="preserve" text-anchor="middle" x="1409.62" y="-19.75" font-family="Helvetica,sans-Serif" font-size="10.00">Rift Valley Warfare Capability</text>
<text xml:space="preserve" text-anchor="middle" x="1409.62" y="-8.5" font-family="Helvetica,sans-Serif" font-size="10.00">2K RP</text>
</g>
</g>
</svg>
