<?xml version="1.0" encoding="UTF-8" standalone="no"?>
<!DOCTYPE svg PUBLIC "-//W3C//DTD SVG 1.1//EN"
 "http://www.w3.org/Graphics/SVG/1.1/DTD/svg11.dtd">
<!-- Generated by graphviz version 14.1.2 (20260124.0452)
 -->
<!-- Title: TechTree Pages: 1 -->
<svg width="413pt" height="67pt"
 viewBox="0.00 0.00 413.00 67.00" xmlns="http://www.w3.org/2000/svg" xmlns:xlink="http://www.w3.org/1999/xlink">
<g id="graph0" class="graph" transform="scale(1 1) rotate(0) translate(4 63)">
<title>TechTree</title>
<polygon fill="white" stroke="none" points="-4,4 -4,-63 408.5,-63 408.5,4 -4,4"/>
<text xml:space="preserve" text-anchor="middle" x="202.25" y="-41.7" font-family="Helvetica,sans-Serif" font-weight="bold" font-size="14.00">Ground Formation Construction Rate</text>
<!-- Ground_Formation_Construction_ -->
<g id="node1" class="node">
<title>Ground_Formation_Construction_</title>
<path fill="#d4c4fb" stroke="black" d="M194.5,-36C194.5,-36 12,-36 12,-36 6,-36 0,-30 0,-24 0,-24 0,-12 0,-12 0,-6 6,0 12,0 12,0 194.5,0 194.5,0 200.5,0 206.5,-6 206.5,-12 206.5,-12 206.5,-24 206.5,-24 206.5,-30 200.5,-36 194.5,-36"/>
<text xml:space="preserve" text-anchor="middle" x="103.25" y="-19.75" font-family="Helvetica,sans-Serif" font-size="10.00">Ground Formation Construction Rate &#45; 2000</text>
<text xml:space="preserve" text-anchor="middle" x="103.25" y="-8.5" font-family="Helvetica,sans-Serif" font-size="10.00">500K RP</text>
</g>
<!-- Ground_Formation_Construction_&#45;&gt;Ground_Formation_Construction_ -->
<g id="edge1" class="edge">
<title>Ground_Formation_Construction_&#45;&gt;Ground_Formation_Construction_</title>
<path fill="none" stroke="black" d="M206.91,-19.31C219.93,-19.08 228.5,-18.64 228.5,-18 228.5,-17.51 223.48,-17.14 215.28,-16.89"/>
<polygon fill="black" stroke="black" points="215.48,-14.44 208.43,-16.73 215.37,-19.34 215.48,-14.44"/>
</g>
<!-- Ground_Formation_Construction_&#45;&gt;Ground_Formation_Construction_ -->
<g id="edge2" class="edge">
<title>Ground_Formation_Construction_&#45;&gt;Ground_Formation_Construction_</title>
<path fill="none" stroke="black" d="M206.8,-20.95C231.88,-20.73 250.5,-19.74 250.5,-18 250.5,-16.46 235.86,-15.51 215.06,-15.16"/>
<polygon fill="black" stroke="black" points="215.34,-12.71 208.31,-15.07 215.28,-17.61 215.34,-12.71"/>
</g>
<!-- Ground_Formation_Construction_&#45;&gt;Ground_Formation_Construction_ -->
<g id="edge3" class="edge">
<title>Ground_Formation_Construction_&#45;&gt;Ground_Formation_Construction_</title>
<path fill="none" stroke="black" d="M206.96,-22.5C243.18,-22.56 272.5,-21.06 272.5,-18 272.5,-15.18 247.58,-13.69 215.31,-13.52"/>
<polygon fill="black" stroke="black" points="215.48,-11.07 208.47,-13.5 215.47,-15.97 215.48,-11.07"/>
</g>
<!-- Ground_Formation_Construction_&#45;&gt;Ground_Formation_Construction_ -->
<g id="edge4" class="edge">
<title>Ground_Formation_Construction_&#45;&gt;Ground_Formation_Construction_</title>
<path fill="none" stroke="black" d="M206.54,-23.89C253.6,-24.5 294.5,-22.53 294.5,-18 294.5,-13.74 258.4,-11.75 215.01,-12.02"/>
<polygon fill="black" stroke="black" points="215.03,-9.57 208.05,-12.09 215.08,-14.47 215.03,-9.57"/>
</g>
<!-- Ground_Formation_Construction_&#45;&gt;Ground_Formation_Construction_ -->
<g id="edge5" class="edge">
<title>Ground_Formation_Construction_&#45;&gt;Ground_Formation_Construction_</title>
<path fill="none" stroke="black" d="M206.93,-25.15C264.05,-26.46 316.5,-24.07 316.5,-18 316.5,-12.22 269.04,-9.78 215.26,-10.68"/>
<polygon fill="black" stroke="black" points="215.39,-8.23 208.44,-10.82 215.49,-13.13 215.39,-8.23"/>
</g>
<!-- Ground_Formation_Construction_&#45;&gt;Ground_Formation_Construction_ -->
<g id="edge6" class="edge">
<title>Ground_Formation_Construction_&#45;&gt;Ground_Formation_Construction_</title>
<path fill="none" stroke="black" d="M206.95,-26.28C273.94,-28.46 338.5,-25.7 338.5,-18 338.5,-10.62 279.13,-7.78 215.18,-9.48"/>
<polygon fill="black" stroke="black" points="215.39,-7.02 208.46,-9.68 215.53,-11.92 215.39,-7.02"/>
</g>
<!-- Ground_Formation_Construction_&#45;&gt;Ground_Formation_Construction_ -->
<g id="edge7" class="edge">
<title>Ground_Formation_Construction_&#45;&gt;Ground_Formation_Construction_</title>
<path fill="none" stroke="black" d="M206.94,-27.29C283.53,-30.47 360.5,-27.38 360.5,-18 360.5,-8.95 288.85,-5.75 215.02,-8.4"/>
<polygon fill="black" stroke="black" points="215.35,-5.93 208.45,-8.65 215.54,-10.83 215.35,-5.93"/>
</g>
<!-- Ground_Formation_Construction_&#45;&gt;Ground_Formation_Construction_ -->
<g id="edge8" class="edge">
<title>Ground_Formation_Construction_&#45;&gt;Ground_Formation_Construction_</title>
<path fill="none" stroke="black" d="M206.72,-28.19C292.75,-32.51 382.5,-29.11 382.5,-18 382.5,-7.25 298.44,-3.72 215.05,-7.42"/>
<polygon fill="black" stroke="black" points="215.11,-4.96 208.23,-7.74 215.34,-9.86 215.11,-4.96"/>
</g>
<!-- Ground_Formation_Construction_&#45;&gt;Ground_Formation_Construction_ -->
<g id="edge9" class="edge">
<title>Ground_Formation_Construction_&#45;&gt;Ground_Formation_Construction_</title>
<path fill="none" stroke="black" d="M206.66,-29.01C301.87,-34.54 404.5,-30.87 404.5,-18 404.5,-5.51 307.8,-1.69 215.05,-6.53"/>
<polygon fill="black" stroke="black" points="215.03,-4.08 208.18,-6.91 215.3,-8.97 215.03,-4.08"/>
</g>
</g>
</svg>
