<?xml version="1.0" encoding="UTF-8" standalone="no"?>
<!DOCTYPE svg PUBLIC "-//W3C//DTD SVG 1.1//EN"
 "http://www.w3.org/Graphics/SVG/1.1/DTD/svg11.dtd">
<!-- Generated by graphviz version 14.1.2 (20260124.0452)
 -->
<!-- Title: TechTree Pages: 1 -->
<svg width="175pt" height="137pt"
 viewBox="0.00 0.00 175.00 137.00" xmlns="http://www.w3.org/2000/svg" xmlns:xlink="http://www.w3.org/1999/xlink">
<g id="graph0" class="graph" transform="scale(1 1) rotate(0) translate(4 132.75)">
<title>TechTree</title>
<polygon fill="white" stroke="none" points="-4,4 -4,-132.75 170.75,-132.75 170.75,4 -4,4"/>
<text xml:space="preserve" text-anchor="middle" x="83.38" y="-113.35" font-family="Helvetica,sans-Serif" font-weight="bold" font-size="12.00">Ground Geological Survey</text>
<!-- Geosurvey_Equipment -->
<g id="node1" class="node">
<title>Geosurvey_Equipment</title>
<path fill="#cce5ff" stroke="black" d="M124.75,-36C124.75,-36 42,-36 42,-36 36,-36 30,-30 30,-24 30,-24 30,-12 30,-12 30,-6 36,0 42,0 42,0 124.75,0 124.75,0 130.75,0 136.75,-6 136.75,-12 136.75,-12 136.75,-24 136.75,-24 136.75,-30 130.75,-36 124.75,-36"/>
<text xml:space="preserve" text-anchor="middle" x="83.38" y="-19.2" font-family="Helvetica,sans-Serif" font-size="9.00">Geosurvey Equipment</text>
<text xml:space="preserve" text-anchor="middle" x="83.38" y="-9.45" font-family="Helvetica,sans-Serif" font-size="9.00">2K RP</text>
</g>
<!-- ext_Light_Vehicle_Armour___ARM_2 -->
<g id="node2" class="node">
<title>ext_Light_Vehicle_Armour___ARM_2</title>
<path fill="#f0f0f0" stroke="black" stroke-dasharray="5,2" d="M139.38,-108C139.38,-108 27.38,-108 27.38,-108 21.37,-108 15.38,-102 15.38,-96 15.38,-96 15.38,-84 15.38,-84 15.38,-78 21.38,-72 27.38,-72 27.38,-72 139.38,-72 139.38,-72 145.38,-72 151.38,-78 151.38,-84 151.38,-84 151.38,-96 151.38,-96 151.38,-102 145.38,-108 139.38,-108"/>
<text xml:space="preserve" text-anchor="middle" x="83.38" y="-86.33" font-family="Helvetica,sans-Serif" font-size="9.00">Light Vehicle Armour &#45; ARM 2</text>
</g>
<!-- ext_Light_Vehicle_Armour___ARM_2&#45;&gt;Geosurvey_Equipment -->
<g id="edge1" class="edge">
<title>ext_Light_Vehicle_Armour___ARM_2&#45;&gt;Geosurvey_Equipment</title>
<path fill="none" stroke="black" d="M83.38,-71.7C83.38,-63.22 83.38,-52.86 83.38,-43.58"/>
<polygon fill="black" stroke="black" points="85.48,-43.62 83.38,-37.62 81.28,-43.62 85.48,-43.62"/>
</g>
</g>
</svg>
