<?xml version="1.0" encoding="UTF-8" standalone="no"?>
<!DOCTYPE svg PUBLIC "-//W3C//DTD SVG 1.1//EN"
 "http://www.w3.org/Graphics/SVG/1.1/DTD/svg11.dtd">
<!-- Generated by graphviz version 14.1.2 (20260124.0452)
 -->
<!-- Title: TechTree Pages: 1 -->
<svg width="1405pt" height="137pt"
 viewBox="0.00 0.00 1405.00 137.00" xmlns="http://www.w3.org/2000/svg" xmlns:xlink="http://www.w3.org/1999/xlink">
<g id="graph0" class="graph" transform="scale(1 1) rotate(0) translate(4 132.75)">
<title>TechTree</title>
<polygon fill="white" stroke="none" points="-4,4 -4,-132.75 1400.62,-132.75 1400.62,4 -4,4"/>
<text xml:space="preserve" text-anchor="middle" x="698.31" y="-113.35" font-family="Helvetica,sans-Serif" font-weight="bold" font-size="12.00">Ground Unit Capability</text>
<!-- No_Capability -->
<g id="node1" class="node">
<title>No_Capability</title>
<path fill="#d4edda" stroke="black" d="M59.5,-108C59.5,-108 12,-108 12,-108 6,-108 0,-102 0,-96 0,-96 0,-84 0,-84 0,-78 6,-72 12,-72 12,-72 59.5,-72 59.5,-72 65.5,-72 71.5,-78 71.5,-84 71.5,-84 71.5,-96 71.5,-96 71.5,-102 65.5,-108 59.5,-108"/>
<text xml:space="preserve" text-anchor="middle" x="35.75" y="-91.2" font-family="Helvetica,sans-Serif" font-size="9.00">No Capability</text>
<text xml:space="preserve" text-anchor="middle" x="35.75" y="-81.45" font-family="Helvetica,sans-Serif" font-size="9.00">1 RP</text>
</g>
<!-- Boarding_Combat_Capability -->
<g id="node2" class="node">
<title>Boarding_Combat_Capability</title>
<path fill="#cce5ff" stroke="black" d="M223.5,-36C223.5,-36 116,-36 116,-36 110,-36 104,-30 104,-24 104,-24 104,-12 104,-12 104,-6 110,0 116,0 116,0 223.5,0 223.5,0 229.5,0 235.5,-6 235.5,-12 235.5,-12 235.5,-24 235.5,-24 235.5,-30 229.5,-36 223.5,-36"/>
<text xml:space="preserve" text-anchor="middle" x="169.75" y="-19.2" font-family="Helvetica,sans-Serif" font-size="9.00">Boarding Combat Capability</text>
<text xml:space="preserve" text-anchor="middle" x="169.75" y="-9.45" font-family="Helvetica,sans-Serif" font-size="9.00">2K RP</text>
</g>
<!-- High_Gravity_Capability -->
<g id="node3" class="node">
<title>High_Gravity_Capability</title>
<path fill="#cce5ff" stroke="black" d="M365.62,-108C365.62,-108 279.88,-108 279.88,-108 273.88,-108 267.88,-102 267.88,-96 267.88,-96 267.88,-84 267.88,-84 267.88,-78 273.88,-72 279.88,-72 279.88,-72 365.62,-72 365.62,-72 371.62,-72 377.62,-78 377.62,-84 377.62,-84 377.62,-96 377.62,-96 377.62,-102 371.62,-108 365.62,-108"/>
<text xml:space="preserve" text-anchor="middle" x="322.75" y="-91.2" font-family="Helvetica,sans-Serif" font-size="9.00">High Gravity Capability</text>
<text xml:space="preserve" text-anchor="middle" x="322.75" y="-81.45" font-family="Helvetica,sans-Serif" font-size="9.00">2K RP</text>
</g>
<!-- Low_Gravity_Capability -->
<g id="node4" class="node">
<title>Low_Gravity_Capability</title>
<path fill="#cce5ff" stroke="black" d="M491.5,-108C491.5,-108 408,-108 408,-108 402,-108 396,-102 396,-96 396,-96 396,-84 396,-84 396,-78 402,-72 408,-72 408,-72 491.5,-72 491.5,-72 497.5,-72 503.5,-78 503.5,-84 503.5,-84 503.5,-96 503.5,-96 503.5,-102 497.5,-108 491.5,-108"/>
<text xml:space="preserve" text-anchor="middle" x="449.75" y="-91.2" font-family="Helvetica,sans-Serif" font-size="9.00">Low Gravity Capability</text>
<text xml:space="preserve" text-anchor="middle" x="449.75" y="-81.45" font-family="Helvetica,sans-Serif" font-size="9.00">2K RP</text>
</g>
<!-- Extreme_Temperature_Capability -->
<g id="node5" class="node">
<title>Extreme_Temperature_Capability</title>
<path fill="#cce5ff" stroke="black" d="M656.38,-108C656.38,-108 533.12,-108 533.12,-108 527.12,-108 521.12,-102 521.12,-96 521.12,-96 521.12,-84 521.12,-84 521.12,-78 527.12,-72 533.12,-72 533.12,-72 656.38,-72 656.38,-72 662.38,-72 668.38,-78 668.38,-84 668.38,-84 668.38,-96 668.38,-96 668.38,-102 662.38,-108 656.38,-108"/>
<text xml:space="preserve" text-anchor="middle" x="594.75" y="-91.2" font-family="Helvetica,sans-Serif" font-size="9.00">Extreme Temperature Capability</text>
<text xml:space="preserve" text-anchor="middle" x="594.75" y="-81.45" font-family="Helvetica,sans-Serif" font-size="9.00">2K RP</text>
</g>
<!-- Jungle_Warfare_Capability -->
<g id="node6" class="node">
<title>Jungle_Warfare_Capability</title>
<path fill="#cce5ff" stroke="black" d="M795.25,-108C795.25,-108 698.25,-108 698.25,-108 692.25,-108 686.25,-102 686.25,-96 686.25,-96 686.25,-84 686.25,-84 686.25,-78 692.25,-72 698.25,-72 698.25,-72 795.25,-72 795.25,-72 801.25,-72 807.25,-78 807.25,-84 807.25,-84 807.25,-96 807.25,-96 807.25,-102 801.25,-108 795.25,-108"/>
<text xml:space="preserve" text-anchor="middle" x="746.75" y="-91.2" font-family="Helvetica,sans-Serif" font-size="9.00">Jungle Warfare Capability</text>
<text xml:space="preserve" text-anchor="middle" x="746.75" y="-81.45" font-family="Helvetica,sans-Serif" font-size="9.00">2K RP</text>
</g>
<!-- Mountain_Warfare_Capability -->
<g id="node7" class="node">
<title>Mountain_Warfare_Capability</title>
<path fill="#cce5ff" stroke="black" d="M944.5,-108C944.5,-108 837,-108 837,-108 831,-108 825,-102 825,-96 825,-96 825,-84 825,-84 825,-78 831,-72 837,-72 837,-72 944.5,-72 944.5,-72 950.5,-72 956.5,-78 956.5,-84 956.5,-84 956.5,-96 956.5,-96 956.5,-102 950.5,-108 944.5,-108"/>
<text xml:space="preserve" text-anchor="middle" x="890.75" y="-91.2" font-family="Helvetica,sans-Serif" font-size="9.00">Mountain Warfare Capability</text>
<text xml:space="preserve" text-anchor="middle" x="890.75" y="-81.45" font-family="Helvetica,sans-Serif" font-size="9.00">2K RP</text>
</g>
<!-- Desert_Warfare_Capability -->
<g id="node8" class="node">
<title>Desert_Warfare_Capability</title>
<path fill="#cce5ff" stroke="black" d="M1082.88,-108C1082.88,-108 986.62,-108 986.62,-108 980.62,-108 974.62,-102 974.62,-96 974.62,-96 974.62,-84 974.62,-84 974.62,-78 980.62,-72 986.62,-72 986.62,-72 1082.88,-72 1082.88,-72 1088.88,-72 1094.88,-78 1094.88,-84 1094.88,-84 1094.88,-96 1094.88,-96 1094.88,-102 1088.88,-108 1082.88,-108"/>
<text xml:space="preserve" text-anchor="middle" x="1034.75" y="-91.2" font-family="Helvetica,sans-Serif" font-size="9.00">Desert Warfare Capability</text>
<text xml:space="preserve" text-anchor="middle" x="1034.75" y="-81.45" font-family="Helvetica,sans-Serif" font-size="9.00">2K RP</text>
</g>
<!-- Extreme_Pressure_Capability -->
<g id="node9" class="node">
<title>Extreme_Pressure_Capability</title>
<path fill="#cce5ff" stroke="black" d="M1232.88,-108C1232.88,-108 1124.62,-108 1124.62,-108 1118.62,-108 1112.62,-102 1112.62,-96 1112.62,-96 1112.62,-84 1112.62,-84 1112.62,-78 1118.62,-72 1124.62,-72 1124.62,-72 1232.88,-72 1232.88,-72 1238.88,-72 1244.88,-78 1244.88,-84 1244.88,-84 1244.88,-96 1244.88,-96 1244.88,-102 1238.88,-108 1232.88,-108"/>
<text xml:space="preserve" text-anchor="middle" x="1178.75" y="-91.2" font-family="Helvetica,sans-Serif" font-size="9.00">Extreme Pressure Capability</text>
<text xml:space="preserve" text-anchor="middle" x="1178.75" y="-81.45" font-family="Helvetica,sans-Serif" font-size="9.00">2K RP</text>
</g>
<!-- Rift_Valley_Warfare_Capability -->
<g id="node10" class="node">
<title>Rift_Valley_Warfare_Capability</title>
<path fill="#cce5ff" stroke="black" d="M1384.62,-108C1384.62,-108 1274.88,-108 1274.88,-108 1268.88,-108 1262.88,-102 1262.88,-96 1262.88,-96 1262.88,-84 1262.88,-84 1262.88,-78 1268.88,-72 1274.88,-72 1274.88,-72 1384.62,-72 1384.62,-72 1390.62,-72 1396.62,-78 1396.62,-84 1396.62,-84 1396.62,-96 1396.62,-96 1396.62,-102 1390.62,-108 1384.62,-108"/>
<text xml:space="preserve" text-anchor="middle" x="1329.75" y="-91.2" font-family="Helvetica,sans-Serif" font-size="9.00">Rift Valley Warfare Capability</text>
<text xml:space="preserve" text-anchor="middle" x="1329.75" y="-81.45" font-family="Helvetica,sans-Serif" font-size="9.00">2K RP</text>
</g>
<!-- ext_Powered_Infantry_Armour___ARM_ -->
<g id="node11" class="node">
<title>ext_Powered_Infantry_Armour___ARM_</title>
<path fill="#f0f0f0" stroke="black" stroke-dasharray="5,2" d="M237.75,-108C237.75,-108 101.75,-108 101.75,-108 95.75,-108 89.75,-102 89.75,-96 89.75,-96 89.75,-84 89.75,-84 89.75,-78 95.75,-72 101.75,-72 101.75,-72 237.75,-72 237.75,-72 243.75,-72 249.75,-78 249.75,-84 249.75,-84 249.75,-96 249.75,-96 249.75,-102 243.75,-108 237.75,-108"/>
<text xml:space="preserve" text-anchor="middle" x="169.75" y="-86.33" font-family="Helvetica,sans-Serif" font-size="9.00">Powered Infantry Armour &#45; ARM 1.5</text>
</g>
<!-- ext_Powered_Infantry_Armour___ARM_&#45;&gt;Boarding_Combat_Capability -->
<g id="edge1" class="edge">
<title>ext_Powered_Infantry_Armour___ARM_&#45;&gt;Boarding_Combat_Capability</title>
<path fill="none" stroke="black" d="M169.75,-71.7C169.75,-63.22 169.75,-52.86 169.75,-43.58"/>
<polygon fill="black" stroke="black" points="171.85,-43.62 169.75,-37.62 167.65,-43.62 171.85,-43.62"/>
</g>
</g>
</svg>
