<?xml version="1.0" encoding="UTF-8" standalone="no"?>
<!DOCTYPE svg PUBLIC "-//W3C//DTD SVG 1.1//EN"
 "http://www.w3.org/Graphics/SVG/1.1/DTD/svg11.dtd">
<!-- Generated by graphviz version 14.1.2 (20260124.0452)
 -->
<!-- Title: TechTree Pages: 1 -->
<svg width="228pt" height="137pt"
 viewBox="0.00 0.00 228.00 137.00" xmlns="http://www.w3.org/2000/svg" xmlns:xlink="http://www.w3.org/1999/xlink">
<g id="graph0" class="graph" transform="scale(1 1) rotate(0) translate(4 132.75)">
<title>TechTree</title>
<polygon fill="white" stroke="none" points="-4,4 -4,-132.75 224,-132.75 224,4 -4,4"/>
<text xml:space="preserve" text-anchor="middle" x="110" y="-113.35" font-family="Helvetica,sans-Serif" font-weight="bold" font-size="12.00">Ground Xenoarchaeological Survey</text>
<!-- Xenoarchaeology_Equipment -->
<g id="node1" class="node">
<title>Xenoarchaeology_Equipment</title>
<path fill="#cce5ff" stroke="black" d="M165.62,-36C165.62,-36 54.38,-36 54.38,-36 48.38,-36 42.38,-30 42.38,-24 42.38,-24 42.38,-12 42.38,-12 42.38,-6 48.38,0 54.38,0 54.38,0 165.62,0 165.62,0 171.62,0 177.62,-6 177.62,-12 177.62,-12 177.62,-24 177.62,-24 177.62,-30 171.62,-36 165.62,-36"/>
<text xml:space="preserve" text-anchor="middle" x="110" y="-19.2" font-family="Helvetica,sans-Serif" font-size="9.00">Xenoarchaeology Equipment</text>
<text xml:space="preserve" text-anchor="middle" x="110" y="-9.45" font-family="Helvetica,sans-Serif" font-size="9.00">2K RP</text>
</g>
<!-- ext_Light_Vehicle_Armour___ARM_2 -->
<g id="node2" class="node">
<title>ext_Light_Vehicle_Armour___ARM_2</title>
<path fill="#f0f0f0" stroke="black" stroke-dasharray="5,2" d="M166,-108C166,-108 54,-108 54,-108 48,-108 42,-102 42,-96 42,-96 42,-84 42,-84 42,-78 48,-72 54,-72 54,-72 166,-72 166,-72 172,-72 178,-78 178,-84 178,-84 178,-96 178,-96 178,-102 172,-108 166,-108"/>
<text xml:space="preserve" text-anchor="middle" x="110" y="-86.33" font-family="Helvetica,sans-Serif" font-size="9.00">Light Vehicle Armour &#45; ARM 2</text>
</g>
<!-- ext_Light_Vehicle_Armour___ARM_2&#45;&gt;Xenoarchaeology_Equipment -->
<g id="edge1" class="edge">
<title>ext_Light_Vehicle_Armour___ARM_2&#45;&gt;Xenoarchaeology_Equipment</title>
<path fill="none" stroke="black" d="M110,-71.7C110,-63.22 110,-52.86 110,-43.58"/>
<polygon fill="black" stroke="black" points="112.1,-43.62 110,-37.62 107.9,-43.62 112.1,-43.62"/>
</g>
</g>
</svg>
