<?xml version="1.0" encoding="UTF-8" standalone="no"?>
<!DOCTYPE svg PUBLIC "-//W3C//DTD SVG 1.1//EN"
 "http://www.w3.org/Graphics/SVG/1.1/DTD/svg11.dtd">
<!-- Generated by graphviz version 14.1.2 (20260124.0452)
 -->
<!-- Title: TechTree Pages: 1 -->
<svg width="194pt" height="125pt"
 viewBox="0.00 0.00 194.00 125.00" xmlns="http://www.w3.org/2000/svg" xmlns:xlink="http://www.w3.org/1999/xlink">
<g id="graph0" class="graph" transform="scale(1 1) rotate(0) translate(4 121)">
<title>TechTree</title>
<polygon fill="white" stroke="none" points="-4,4 -4,-121 189.5,-121 189.5,4 -4,4"/>
<text xml:space="preserve" text-anchor="middle" x="92.75" y="-99.7" font-family="Helvetica,sans-Serif" font-weight="bold" font-size="14.00">Ground Force Logistics</text>
<!-- Ground_Force_Logistics_Module_ -->
<g id="node1" class="node">
<title>Ground_Force_Logistics_Module_</title>
<path fill="#d4edda" stroke="black" d="M173.5,-36C173.5,-36 12,-36 12,-36 6,-36 0,-30 0,-24 0,-24 0,-12 0,-12 0,-6 6,0 12,0 12,0 173.5,0 173.5,0 179.5,0 185.5,-6 185.5,-12 185.5,-12 185.5,-24 185.5,-24 185.5,-30 179.5,-36 173.5,-36"/>
<text xml:space="preserve" text-anchor="middle" x="92.75" y="-19.75" font-family="Helvetica,sans-Serif" font-size="10.00">Ground Force Logistics Module &#45; Small</text>
<text xml:space="preserve" text-anchor="middle" x="92.75" y="-8.5" font-family="Helvetica,sans-Serif" font-size="10.00">500 RP</text>
</g>
<!-- Ground_Force_Logistics_Module -->
<g id="node2" class="node">
<title>Ground_Force_Logistics_Module</title>
<path fill="#cce5ff" stroke="black" d="M156.62,-94C156.62,-94 28.87,-94 28.87,-94 22.88,-94 16.88,-88 16.88,-82 16.88,-82 16.88,-70 16.88,-70 16.88,-64 22.88,-58 28.88,-58 28.88,-58 156.62,-58 156.62,-58 162.62,-58 168.62,-64 168.62,-70 168.62,-70 168.62,-82 168.62,-82 168.62,-88 162.62,-94 156.62,-94"/>
<text xml:space="preserve" text-anchor="middle" x="92.75" y="-77.75" font-family="Helvetica,sans-Serif" font-size="10.00">Ground Force Logistics Module</text>
<text xml:space="preserve" text-anchor="middle" x="92.75" y="-66.5" font-family="Helvetica,sans-Serif" font-size="10.00">1K RP</text>
</g>
</g>
</svg>
