<?xml version="1.0" encoding="UTF-8" standalone="no"?>
<!DOCTYPE svg PUBLIC "-//W3C//DTD SVG 1.1//EN"
 "http://www.w3.org/Graphics/SVG/1.1/DTD/svg11.dtd">
<!-- Generated by graphviz version 14.1.2 (20260124.0452)
 -->
<!-- Title: TechTree Pages: 1 -->
<svg width="149pt" height="65pt"
 viewBox="0.00 0.00 149.00 65.00" xmlns="http://www.w3.org/2000/svg" xmlns:xlink="http://www.w3.org/1999/xlink">
<g id="graph0" class="graph" transform="scale(1 1) rotate(0) translate(4 60.75)">
<title>TechTree</title>
<polygon fill="white" stroke="none" points="-4,4 -4,-60.75 144.5,-60.75 144.5,4 -4,4"/>
<text xml:space="preserve" text-anchor="middle" x="70.25" y="-41.35" font-family="Helvetica,sans-Serif" font-weight="bold" font-size="12.00">Ground Headquarters</text>
<!-- Ground_Forces_Headquarters -->
<g id="node1" class="node">
<title>Ground_Forces_Headquarters</title>
<path fill="#cce5ff" stroke="black" d="M125.88,-36C125.88,-36 14.63,-36 14.63,-36 8.62,-36 2.62,-30 2.62,-24 2.62,-24 2.62,-12 2.62,-12 2.62,-6 8.62,0 14.62,0 14.62,0 125.88,0 125.88,0 131.88,0 137.88,-6 137.88,-12 137.88,-12 137.88,-24 137.88,-24 137.88,-30 131.88,-36 125.88,-36"/>
<text xml:space="preserve" text-anchor="middle" x="70.25" y="-19.2" font-family="Helvetica,sans-Serif" font-size="9.00">Ground Forces Headquarters</text>
<text xml:space="preserve" text-anchor="middle" x="70.25" y="-9.45" font-family="Helvetica,sans-Serif" font-size="9.00">1K RP</text>
</g>
</g>
</svg>
