<?xml version="1.0" encoding="UTF-8" standalone="no"?>
<!DOCTYPE svg PUBLIC "-//W3C//DTD SVG 1.1//EN"
 "http://www.w3.org/Graphics/SVG/1.1/DTD/svg11.dtd">
<!-- Generated by graphviz version 14.1.2 (20260124.0452)
 -->
<!-- Title: TechTree Pages: 1 -->
<svg width="254pt" height="67pt"
 viewBox="0.00 0.00 254.00 67.00" xmlns="http://www.w3.org/2000/svg" xmlns:xlink="http://www.w3.org/1999/xlink">
<g id="graph0" class="graph" transform="scale(1 1) rotate(0) translate(4 63)">
<title>TechTree</title>
<polygon fill="white" stroke="none" points="-4,4 -4,-63 249.5,-63 249.5,4 -4,4"/>
<text xml:space="preserve" text-anchor="middle" x="122.75" y="-41.7" font-family="Helvetica,sans-Serif" font-weight="bold" font-size="14.00">Ground Xenoarchaeological Survey</text>
<!-- Xenoarchaeology_Equipment -->
<g id="node1" class="node">
<title>Xenoarchaeology_Equipment</title>
<path fill="#cce5ff" stroke="black" d="M181,-36C181,-36 64.5,-36 64.5,-36 58.5,-36 52.5,-30 52.5,-24 52.5,-24 52.5,-12 52.5,-12 52.5,-6 58.5,0 64.5,0 64.5,0 181,0 181,0 187,0 193,-6 193,-12 193,-12 193,-24 193,-24 193,-30 187,-36 181,-36"/>
<text xml:space="preserve" text-anchor="middle" x="122.75" y="-19.75" font-family="Helvetica,sans-Serif" font-size="10.00">Xenoarchaeology Equipment</text>
<text xml:space="preserve" text-anchor="middle" x="122.75" y="-8.5" font-family="Helvetica,sans-Serif" font-size="10.00">2K RP</text>
</g>
</g>
</svg>
