<?xml version="1.0" encoding="UTF-8" standalone="no"?>
<!DOCTYPE svg PUBLIC "-//W3C//DTD SVG 1.1//EN"
 "http://www.w3.org/Graphics/SVG/1.1/DTD/svg11.dtd">
<!-- Generated by graphviz version 14.1.2 (20260124.0452)
 -->
<!-- Title: TechTree Pages: 1 -->
<svg width="759pt" height="262pt"
 viewBox="0.00 0.00 759.00 262.00" xmlns="http://www.w3.org/2000/svg" xmlns:xlink="http://www.w3.org/1999/xlink">
<g id="graph0" class="graph" transform="scale(1 1) rotate(0) translate(4 258)">
<title>TechTree</title>
<polygon fill="white" stroke="none" points="-4,4 -4,-258 754.62,-258 754.62,4 -4,4"/>
<text xml:space="preserve" text-anchor="middle" x="375.31" y="-236.7" font-family="Helvetica,sans-Serif" font-weight="bold" font-size="14.00">Ground Unit Base Type</text>
<!-- Ground_Unit_Base_Type___Infant -->
<g id="node1" class="node">
<title>Ground_Unit_Base_Type___Infant</title>
<path fill="#cce5ff" stroke="black" d="M148,-231C148,-231 12,-231 12,-231 6,-231 0,-225 0,-219 0,-219 0,-207 0,-207 0,-201 6,-195 12,-195 12,-195 148,-195 148,-195 154,-195 160,-201 160,-207 160,-207 160,-219 160,-219 160,-225 154,-231 148,-231"/>
<text xml:space="preserve" text-anchor="middle" x="80" y="-214.75" font-family="Helvetica,sans-Serif" font-size="10.00">Ground Unit Base Type &#45; Infantry</text>
<text xml:space="preserve" text-anchor="middle" x="80" y="-203.5" font-family="Helvetica,sans-Serif" font-size="10.00">1K RP</text>
</g>
<!-- Ground_Unit_Base_Type___Static -->
<g id="node2" class="node">
<title>Ground_Unit_Base_Type___Static</title>
<path fill="#cce5ff" stroke="black" d="M322.25,-231C322.25,-231 193.75,-231 193.75,-231 187.75,-231 181.75,-225 181.75,-219 181.75,-219 181.75,-207 181.75,-207 181.75,-201 187.75,-195 193.75,-195 193.75,-195 322.25,-195 322.25,-195 328.25,-195 334.25,-201 334.25,-207 334.25,-207 334.25,-219 334.25,-219 334.25,-225 328.25,-231 322.25,-231"/>
<text xml:space="preserve" text-anchor="middle" x="258" y="-214.75" font-family="Helvetica,sans-Serif" font-size="10.00">Ground Unit Base Type &#45; Static</text>
<text xml:space="preserve" text-anchor="middle" x="258" y="-203.5" font-family="Helvetica,sans-Serif" font-size="10.00">2K RP</text>
</g>
<!-- Ground_Unit_Base_Type___Light_ -->
<g id="node3" class="node">
<title>Ground_Unit_Base_Type___Light_</title>
<path fill="#cce5ff" stroke="black" d="M527.62,-231C527.62,-231 368.38,-231 368.38,-231 362.38,-231 356.38,-225 356.38,-219 356.38,-219 356.38,-207 356.38,-207 356.38,-201 362.38,-195 368.38,-195 368.38,-195 527.62,-195 527.62,-195 533.62,-195 539.62,-201 539.62,-207 539.62,-207 539.62,-219 539.62,-219 539.62,-225 533.62,-231 527.62,-231"/>
<text xml:space="preserve" text-anchor="middle" x="448" y="-214.75" font-family="Helvetica,sans-Serif" font-size="10.00">Ground Unit Base Type &#45; Light Vehicle</text>
<text xml:space="preserve" text-anchor="middle" x="448" y="-203.5" font-family="Helvetica,sans-Serif" font-size="10.00">2K RP</text>
</g>
<!-- Ground_Unit_Base_Type___Heavy_ -->
<g id="node4" class="node">
<title>Ground_Unit_Base_Type___Heavy_</title>
<path fill="#cce5ff" stroke="black" d="M724.38,-166C724.38,-166 557.62,-166 557.62,-166 551.62,-166 545.62,-160 545.62,-154 545.62,-154 545.62,-142 545.62,-142 545.62,-136 551.62,-130 557.62,-130 557.62,-130 724.38,-130 724.38,-130 730.38,-130 736.38,-136 736.38,-142 736.38,-142 736.38,-154 736.38,-154 736.38,-160 730.38,-166 724.38,-166"/>
<text xml:space="preserve" text-anchor="middle" x="641" y="-149.75" font-family="Helvetica,sans-Serif" font-size="10.00">Ground Unit Base Type &#45; Heavy Vehicle</text>
<text xml:space="preserve" text-anchor="middle" x="641" y="-138.5" font-family="Helvetica,sans-Serif" font-size="10.00">2K RP</text>
</g>
<!-- Ground_Unit_Base_Type___Super_ -->
<g id="node6" class="node">
<title>Ground_Unit_Base_Type___Super_</title>
<path fill="#cce5ff" stroke="black" d="M738.62,-101C738.62,-101 543.38,-101 543.38,-101 537.38,-101 531.38,-95 531.38,-89 531.38,-89 531.38,-77 531.38,-77 531.38,-71 537.38,-65 543.38,-65 543.38,-65 738.62,-65 738.62,-65 744.62,-65 750.62,-71 750.62,-77 750.62,-77 750.62,-89 750.62,-89 750.62,-95 744.62,-101 738.62,-101"/>
<text xml:space="preserve" text-anchor="middle" x="641" y="-84.75" font-family="Helvetica,sans-Serif" font-size="10.00">Ground Unit Base Type &#45; Super&#45;Heavy Vehicle</text>
<text xml:space="preserve" text-anchor="middle" x="641" y="-73.5" font-family="Helvetica,sans-Serif" font-size="10.00">5K RP</text>
</g>
<!-- Ground_Unit_Base_Type___Heavy_&#45;&gt;Ground_Unit_Base_Type___Super_ -->
<g id="edge2" class="edge">
<title>Ground_Unit_Base_Type___Heavy_&#45;&gt;Ground_Unit_Base_Type___Super_</title>
<path fill="none" stroke="black" d="M641,-129.78C641,-123.53 641,-116.33 641,-109.52"/>
<polygon fill="black" stroke="black" points="643.45,-109.71 641,-102.71 638.55,-109.71 643.45,-109.71"/>
</g>
<!-- Ground_Unit_Base_Type___Vehicl -->
<g id="node5" class="node">
<title>Ground_Unit_Base_Type___Vehicl</title>
<path fill="#cce5ff" stroke="black" d="M708.62,-231C708.62,-231 573.38,-231 573.38,-231 567.38,-231 561.38,-225 561.38,-219 561.38,-219 561.38,-207 561.38,-207 561.38,-201 567.38,-195 573.38,-195 573.38,-195 708.62,-195 708.62,-195 714.62,-195 720.62,-201 720.62,-207 720.62,-207 720.62,-219 720.62,-219 720.62,-225 714.62,-231 708.62,-231"/>
<text xml:space="preserve" text-anchor="middle" x="641" y="-214.75" font-family="Helvetica,sans-Serif" font-size="10.00">Ground Unit Base Type &#45; Vehicle</text>
<text xml:space="preserve" text-anchor="middle" x="641" y="-203.5" font-family="Helvetica,sans-Serif" font-size="10.00">3K RP</text>
</g>
<!-- Ground_Unit_Base_Type___Vehicl&#45;&gt;Ground_Unit_Base_Type___Heavy_ -->
<g id="edge1" class="edge">
<title>Ground_Unit_Base_Type___Vehicl&#45;&gt;Ground_Unit_Base_Type___Heavy_</title>
<path fill="none" stroke="black" d="M641,-194.78C641,-188.53 641,-181.33 641,-174.52"/>
<polygon fill="black" stroke="black" points="643.45,-174.71 641,-167.71 638.55,-174.71 643.45,-174.71"/>
</g>
<!-- Ground_Unit_Base_Type___Ultra_ -->
<g id="node7" class="node">
<title>Ground_Unit_Base_Type___Ultra_</title>
<path fill="#cce5ff" stroke="black" d="M736.38,-36C736.38,-36 545.62,-36 545.62,-36 539.62,-36 533.62,-30 533.62,-24 533.62,-24 533.62,-12 533.62,-12 533.62,-6 539.62,0 545.62,0 545.62,0 736.38,0 736.38,0 742.38,0 748.38,-6 748.38,-12 748.38,-12 748.38,-24 748.38,-24 748.38,-30 742.38,-36 736.38,-36"/>
<text xml:space="preserve" text-anchor="middle" x="641" y="-19.75" font-family="Helvetica,sans-Serif" font-size="10.00">Ground Unit Base Type &#45; Ultra&#45;Heavy Vehicle</text>
<text xml:space="preserve" text-anchor="middle" x="641" y="-8.5" font-family="Helvetica,sans-Serif" font-size="10.00">10K RP</text>
</g>
<!-- Ground_Unit_Base_Type___Super_&#45;&gt;Ground_Unit_Base_Type___Ultra_ -->
<g id="edge3" class="edge">
<title>Ground_Unit_Base_Type___Super_&#45;&gt;Ground_Unit_Base_Type___Ultra_</title>
<path fill="none" stroke="black" d="M641,-64.78C641,-58.53 641,-51.33 641,-44.52"/>
<polygon fill="black" stroke="black" points="643.45,-44.71 641,-37.71 638.55,-44.71 643.45,-44.71"/>
</g>
</g>
</svg>
