<?xml version="1.0" encoding="UTF-8" standalone="no"?>
<!DOCTYPE svg PUBLIC "-//W3C//DTD SVG 1.1//EN"
 "http://www.w3.org/Graphics/SVG/1.1/DTD/svg11.dtd">
<!-- Generated by graphviz version 14.1.2 (20260124.0452)
 -->
<!-- Title: TechTree Pages: 1 -->
<svg width="220pt" height="137pt"
 viewBox="0.00 0.00 220.00 137.00" xmlns="http://www.w3.org/2000/svg" xmlns:xlink="http://www.w3.org/1999/xlink">
<g id="graph0" class="graph" transform="scale(1 1) rotate(0) translate(4 132.75)">
<title>TechTree</title>
<polygon fill="white" stroke="none" points="-4,4 -4,-132.75 216.38,-132.75 216.38,4 -4,4"/>
<text xml:space="preserve" text-anchor="middle" x="106.19" y="-113.35" font-family="Helvetica,sans-Serif" font-weight="bold" font-size="12.00">Hangar Deck</text>
<!-- Hangar_Deck___Tiny -->
<g id="node1" class="node">
<title>Hangar_Deck___Tiny</title>
<path fill="#d4edda" stroke="black" d="M82,-36C82,-36 12,-36 12,-36 6,-36 0,-30 0,-24 0,-24 0,-12 0,-12 0,-6 6,0 12,0 12,0 82,0 82,0 88,0 94,-6 94,-12 94,-12 94,-24 94,-24 94,-30 88,-36 82,-36"/>
<text xml:space="preserve" text-anchor="middle" x="47" y="-19.2" font-family="Helvetica,sans-Serif" font-size="9.00">Hangar Deck &#45; Tiny</text>
<text xml:space="preserve" text-anchor="middle" x="47" y="-9.45" font-family="Helvetica,sans-Serif" font-size="9.00">500 RP</text>
</g>
<!-- Hangar_Deck___Small -->
<g id="node2" class="node">
<title>Hangar_Deck___Small</title>
<path fill="#cce5ff" stroke="black" d="M200.38,-36C200.38,-36 123.62,-36 123.62,-36 117.62,-36 111.62,-30 111.62,-24 111.62,-24 111.62,-12 111.62,-12 111.62,-6 117.62,0 123.62,0 123.62,0 200.38,0 200.38,0 206.38,0 212.38,-6 212.38,-12 212.38,-12 212.38,-24 212.38,-24 212.38,-30 206.38,-36 200.38,-36"/>
<text xml:space="preserve" text-anchor="middle" x="162" y="-19.2" font-family="Helvetica,sans-Serif" font-size="9.00">Hangar Deck &#45; Small</text>
<text xml:space="preserve" text-anchor="middle" x="162" y="-9.45" font-family="Helvetica,sans-Serif" font-size="9.00">1K RP</text>
</g>
<!-- Hangar_Deck -->
<g id="node3" class="node">
<title>Hangar_Deck</title>
<path fill="#cce5ff" stroke="black" d="M127,-108C127,-108 81,-108 81,-108 75,-108 69,-102 69,-96 69,-96 69,-84 69,-84 69,-78 75,-72 81,-72 81,-72 127,-72 127,-72 133,-72 139,-78 139,-84 139,-84 139,-96 139,-96 139,-102 133,-108 127,-108"/>
<text xml:space="preserve" text-anchor="middle" x="104" y="-91.2" font-family="Helvetica,sans-Serif" font-size="9.00">Hangar Deck</text>
<text xml:space="preserve" text-anchor="middle" x="104" y="-81.45" font-family="Helvetica,sans-Serif" font-size="9.00">4K RP</text>
</g>
<!-- Hangar_Deck&#45;&gt;Hangar_Deck___Tiny -->
<g id="edge1" class="edge">
<title>Hangar_Deck&#45;&gt;Hangar_Deck___Tiny</title>
<path fill="none" stroke="black" d="M89.91,-71.7C82.59,-62.71 73.56,-51.61 65.67,-41.92"/>
<polygon fill="black" stroke="black" points="67.3,-40.6 61.88,-37.28 64.04,-43.26 67.3,-40.6"/>
</g>
<!-- Hangar_Deck&#45;&gt;Hangar_Deck___Small -->
<g id="edge2" class="edge">
<title>Hangar_Deck&#45;&gt;Hangar_Deck___Small</title>
<path fill="none" stroke="black" d="M118.34,-71.7C125.85,-62.63 135.15,-51.4 143.23,-41.65"/>
<polygon fill="black" stroke="black" points="144.65,-43.23 146.86,-37.27 141.42,-40.55 144.65,-43.23"/>
</g>
</g>
</svg>
