<?xml version="1.0" encoding="UTF-8" standalone="no"?>
<!DOCTYPE svg PUBLIC "-//W3C//DTD SVG 1.1//EN"
 "http://www.w3.org/Graphics/SVG/1.1/DTD/svg11.dtd">
<!-- Generated by graphviz version 14.1.2 (20260124.0452)
 -->
<!-- Title: TechTree Pages: 1 -->
<svg width="218pt" height="125pt"
 viewBox="0.00 0.00 218.00 125.00" xmlns="http://www.w3.org/2000/svg" xmlns:xlink="http://www.w3.org/1999/xlink">
<g id="graph0" class="graph" transform="scale(1 1) rotate(0) translate(4 121)">
<title>TechTree</title>
<polygon fill="white" stroke="none" points="-4,4 -4,-121 214.25,-121 214.25,4 -4,4"/>
<text xml:space="preserve" text-anchor="middle" x="105.12" y="-99.7" font-family="Helvetica,sans-Serif" font-weight="bold" font-size="14.00">Hangar Deck</text>
<!-- Hangar_Deck___Tiny -->
<g id="node1" class="node">
<title>Hangar_Deck___Tiny</title>
<path fill="#d4edda" stroke="black" d="M195.25,-94C195.25,-94 117.75,-94 117.75,-94 111.75,-94 105.75,-88 105.75,-82 105.75,-82 105.75,-70 105.75,-70 105.75,-64 111.75,-58 117.75,-58 117.75,-58 195.25,-58 195.25,-58 201.25,-58 207.25,-64 207.25,-70 207.25,-70 207.25,-82 207.25,-82 207.25,-88 201.25,-94 195.25,-94"/>
<text xml:space="preserve" text-anchor="middle" x="156.5" y="-77.75" font-family="Helvetica,sans-Serif" font-size="10.00">Hangar Deck &#45; Tiny</text>
<text xml:space="preserve" text-anchor="middle" x="156.5" y="-66.5" font-family="Helvetica,sans-Serif" font-size="10.00">500 RP</text>
</g>
<!-- Hangar_Deck___Small -->
<g id="node2" class="node">
<title>Hangar_Deck___Small</title>
<path fill="#cce5ff" stroke="black" d="M198.25,-36C198.25,-36 114.75,-36 114.75,-36 108.75,-36 102.75,-30 102.75,-24 102.75,-24 102.75,-12 102.75,-12 102.75,-6 108.75,0 114.75,0 114.75,0 198.25,0 198.25,0 204.25,0 210.25,-6 210.25,-12 210.25,-12 210.25,-24 210.25,-24 210.25,-30 204.25,-36 198.25,-36"/>
<text xml:space="preserve" text-anchor="middle" x="156.5" y="-19.75" font-family="Helvetica,sans-Serif" font-size="10.00">Hangar Deck &#45; Small</text>
<text xml:space="preserve" text-anchor="middle" x="156.5" y="-8.5" font-family="Helvetica,sans-Serif" font-size="10.00">1K RP</text>
</g>
<!-- Hangar_Deck -->
<g id="node3" class="node">
<title>Hangar_Deck</title>
<path fill="#cce5ff" stroke="black" d="M61.75,-65C61.75,-65 12,-65 12,-65 6,-65 0,-59 0,-53 0,-53 0,-41 0,-41 0,-35 6,-29 12,-29 12,-29 61.75,-29 61.75,-29 67.75,-29 73.75,-35 73.75,-41 73.75,-41 73.75,-53 73.75,-53 73.75,-59 67.75,-65 61.75,-65"/>
<text xml:space="preserve" text-anchor="middle" x="36.88" y="-48.75" font-family="Helvetica,sans-Serif" font-size="10.00">Hangar Deck</text>
<text xml:space="preserve" text-anchor="middle" x="36.88" y="-37.5" font-family="Helvetica,sans-Serif" font-size="10.00">4K RP</text>
</g>
<!-- Hangar_Deck&#45;&gt;Hangar_Deck___Tiny -->
<g id="edge1" class="edge">
<title>Hangar_Deck&#45;&gt;Hangar_Deck___Tiny</title>
<path fill="none" stroke="black" d="M74.13,-55.94C81.52,-57.76 89.47,-59.72 97.4,-61.68"/>
<polygon fill="black" stroke="black" points="96.46,-63.97 103.84,-63.26 97.63,-59.21 96.46,-63.97"/>
</g>
<!-- Hangar_Deck&#45;&gt;Hangar_Deck___Small -->
<g id="edge2" class="edge">
<title>Hangar_Deck&#45;&gt;Hangar_Deck___Small</title>
<path fill="none" stroke="black" d="M74.13,-38.06C80.53,-36.48 87.36,-34.8 94.23,-33.11"/>
<polygon fill="black" stroke="black" points="94.61,-35.54 100.82,-31.48 93.44,-30.78 94.61,-35.54"/>
</g>
</g>
</svg>
