<?xml version="1.0" encoding="UTF-8" standalone="no"?>
<!DOCTYPE svg PUBLIC "-//W3C//DTD SVG 1.1//EN"
 "http://www.w3.org/Graphics/SVG/1.1/DTD/svg11.dtd">
<!-- Generated by graphviz version 14.1.2 (20260124.0452)
 -->
<!-- Title: TechTree Pages: 1 -->
<svg width="312pt" height="392pt"
 viewBox="0.00 0.00 312.00 392.00" xmlns="http://www.w3.org/2000/svg" xmlns:xlink="http://www.w3.org/1999/xlink">
<g id="graph0" class="graph" transform="scale(1 1) rotate(0) translate(4 388)">
<title>TechTree</title>
<polygon fill="white" stroke="none" points="-4,4 -4,-388 308.25,-388 308.25,4 -4,4"/>
<text xml:space="preserve" text-anchor="middle" x="152.12" y="-366.7" font-family="Helvetica,sans-Serif" font-weight="bold" font-size="14.00">Hardening</text>
<!-- Electronic_Hardening_Level_0 -->
<g id="node1" class="node">
<title>Electronic_Hardening_Level_0</title>
<path fill="#cce5ff" stroke="black" d="M129.25,-361C129.25,-361 12,-361 12,-361 6,-361 0,-355 0,-349 0,-349 0,-337 0,-337 0,-331 6,-325 12,-325 12,-325 129.25,-325 129.25,-325 135.25,-325 141.25,-331 141.25,-337 141.25,-337 141.25,-349 141.25,-349 141.25,-355 135.25,-361 129.25,-361"/>
<text xml:space="preserve" text-anchor="middle" x="70.62" y="-344.75" font-family="Helvetica,sans-Serif" font-size="10.00">Electronic Hardening Level 0</text>
<text xml:space="preserve" text-anchor="middle" x="70.62" y="-333.5" font-family="Helvetica,sans-Serif" font-size="10.00">1K RP</text>
</g>
<!-- Electronic_Hardening_Level_1 -->
<g id="node2" class="node">
<title>Electronic_Hardening_Level_1</title>
<path fill="#cce5ff" stroke="black" d="M292.25,-361C292.25,-361 175,-361 175,-361 169,-361 163,-355 163,-349 163,-349 163,-337 163,-337 163,-331 169,-325 175,-325 175,-325 292.25,-325 292.25,-325 298.25,-325 304.25,-331 304.25,-337 304.25,-337 304.25,-349 304.25,-349 304.25,-355 298.25,-361 292.25,-361"/>
<text xml:space="preserve" text-anchor="middle" x="233.62" y="-344.75" font-family="Helvetica,sans-Serif" font-size="10.00">Electronic Hardening Level 1</text>
<text xml:space="preserve" text-anchor="middle" x="233.62" y="-333.5" font-family="Helvetica,sans-Serif" font-size="10.00">2K RP</text>
</g>
<!-- Electronic_Hardening_Level_2 -->
<g id="node3" class="node">
<title>Electronic_Hardening_Level_2</title>
<path fill="#cce5ff" stroke="black" d="M292.25,-296C292.25,-296 175,-296 175,-296 169,-296 163,-290 163,-284 163,-284 163,-272 163,-272 163,-266 169,-260 175,-260 175,-260 292.25,-260 292.25,-260 298.25,-260 304.25,-266 304.25,-272 304.25,-272 304.25,-284 304.25,-284 304.25,-290 298.25,-296 292.25,-296"/>
<text xml:space="preserve" text-anchor="middle" x="233.62" y="-279.75" font-family="Helvetica,sans-Serif" font-size="10.00">Electronic Hardening Level 2</text>
<text xml:space="preserve" text-anchor="middle" x="233.62" y="-268.5" font-family="Helvetica,sans-Serif" font-size="10.00">5K RP</text>
</g>
<!-- Electronic_Hardening_Level_1&#45;&gt;Electronic_Hardening_Level_2 -->
<g id="edge1" class="edge">
<title>Electronic_Hardening_Level_1&#45;&gt;Electronic_Hardening_Level_2</title>
<path fill="none" stroke="black" d="M233.62,-324.78C233.62,-318.53 233.62,-311.33 233.62,-304.52"/>
<polygon fill="black" stroke="black" points="236.08,-304.71 233.63,-297.71 231.18,-304.71 236.08,-304.71"/>
</g>
<!-- Electronic_Hardening_Level_3 -->
<g id="node4" class="node">
<title>Electronic_Hardening_Level_3</title>
<path fill="#cce5ff" stroke="black" d="M292.25,-231C292.25,-231 175,-231 175,-231 169,-231 163,-225 163,-219 163,-219 163,-207 163,-207 163,-201 169,-195 175,-195 175,-195 292.25,-195 292.25,-195 298.25,-195 304.25,-201 304.25,-207 304.25,-207 304.25,-219 304.25,-219 304.25,-225 298.25,-231 292.25,-231"/>
<text xml:space="preserve" text-anchor="middle" x="233.62" y="-214.75" font-family="Helvetica,sans-Serif" font-size="10.00">Electronic Hardening Level 3</text>
<text xml:space="preserve" text-anchor="middle" x="233.62" y="-203.5" font-family="Helvetica,sans-Serif" font-size="10.00">10K RP</text>
</g>
<!-- Electronic_Hardening_Level_2&#45;&gt;Electronic_Hardening_Level_3 -->
<g id="edge2" class="edge">
<title>Electronic_Hardening_Level_2&#45;&gt;Electronic_Hardening_Level_3</title>
<path fill="none" stroke="black" d="M233.62,-259.78C233.62,-253.53 233.62,-246.33 233.62,-239.52"/>
<polygon fill="black" stroke="black" points="236.08,-239.71 233.63,-232.71 231.18,-239.71 236.08,-239.71"/>
</g>
<!-- Electronic_Hardening_Level_4 -->
<g id="node5" class="node">
<title>Electronic_Hardening_Level_4</title>
<path fill="#fff3cd" stroke="black" d="M292.25,-166C292.25,-166 175,-166 175,-166 169,-166 163,-160 163,-154 163,-154 163,-142 163,-142 163,-136 169,-130 175,-130 175,-130 292.25,-130 292.25,-130 298.25,-130 304.25,-136 304.25,-142 304.25,-142 304.25,-154 304.25,-154 304.25,-160 298.25,-166 292.25,-166"/>
<text xml:space="preserve" text-anchor="middle" x="233.62" y="-149.75" font-family="Helvetica,sans-Serif" font-size="10.00">Electronic Hardening Level 4</text>
<text xml:space="preserve" text-anchor="middle" x="233.62" y="-138.5" font-family="Helvetica,sans-Serif" font-size="10.00">20K RP</text>
</g>
<!-- Electronic_Hardening_Level_3&#45;&gt;Electronic_Hardening_Level_4 -->
<g id="edge3" class="edge">
<title>Electronic_Hardening_Level_3&#45;&gt;Electronic_Hardening_Level_4</title>
<path fill="none" stroke="black" d="M233.62,-194.78C233.62,-188.53 233.62,-181.33 233.62,-174.52"/>
<polygon fill="black" stroke="black" points="236.08,-174.71 233.63,-167.71 231.18,-174.71 236.08,-174.71"/>
</g>
<!-- Electronic_Hardening_Level_5 -->
<g id="node6" class="node">
<title>Electronic_Hardening_Level_5</title>
<path fill="#fff3cd" stroke="black" d="M292.25,-101C292.25,-101 175,-101 175,-101 169,-101 163,-95 163,-89 163,-89 163,-77 163,-77 163,-71 169,-65 175,-65 175,-65 292.25,-65 292.25,-65 298.25,-65 304.25,-71 304.25,-77 304.25,-77 304.25,-89 304.25,-89 304.25,-95 298.25,-101 292.25,-101"/>
<text xml:space="preserve" text-anchor="middle" x="233.62" y="-84.75" font-family="Helvetica,sans-Serif" font-size="10.00">Electronic Hardening Level 5</text>
<text xml:space="preserve" text-anchor="middle" x="233.62" y="-73.5" font-family="Helvetica,sans-Serif" font-size="10.00">40K RP</text>
</g>
<!-- Electronic_Hardening_Level_4&#45;&gt;Electronic_Hardening_Level_5 -->
<g id="edge4" class="edge">
<title>Electronic_Hardening_Level_4&#45;&gt;Electronic_Hardening_Level_5</title>
<path fill="none" stroke="black" d="M233.62,-129.78C233.62,-123.53 233.62,-116.33 233.62,-109.52"/>
<polygon fill="black" stroke="black" points="236.08,-109.71 233.63,-102.71 231.18,-109.71 236.08,-109.71"/>
</g>
<!-- Electronic_Hardening_Level_6 -->
<g id="node7" class="node">
<title>Electronic_Hardening_Level_6</title>
<path fill="#fff3cd" stroke="black" d="M292.25,-36C292.25,-36 175,-36 175,-36 169,-36 163,-30 163,-24 163,-24 163,-12 163,-12 163,-6 169,0 175,0 175,0 292.25,0 292.25,0 298.25,0 304.25,-6 304.25,-12 304.25,-12 304.25,-24 304.25,-24 304.25,-30 298.25,-36 292.25,-36"/>
<text xml:space="preserve" text-anchor="middle" x="233.62" y="-19.75" font-family="Helvetica,sans-Serif" font-size="10.00">Electronic Hardening Level 6</text>
<text xml:space="preserve" text-anchor="middle" x="233.62" y="-8.5" font-family="Helvetica,sans-Serif" font-size="10.00">80K RP</text>
</g>
<!-- Electronic_Hardening_Level_5&#45;&gt;Electronic_Hardening_Level_6 -->
<g id="edge5" class="edge">
<title>Electronic_Hardening_Level_5&#45;&gt;Electronic_Hardening_Level_6</title>
<path fill="none" stroke="black" d="M233.62,-64.78C233.62,-58.53 233.62,-51.33 233.62,-44.52"/>
<polygon fill="black" stroke="black" points="236.08,-44.71 233.63,-37.71 231.18,-44.71 236.08,-44.71"/>
</g>
</g>
</svg>
