<?xml version="1.0" encoding="UTF-8" standalone="no"?>
<!DOCTYPE svg PUBLIC "-//W3C//DTD SVG 1.1//EN"
 "http://www.w3.org/Graphics/SVG/1.1/DTD/svg11.dtd">
<!-- Generated by graphviz version 14.1.2 (20260124.0452)
 -->
<!-- Title: TechTree Pages: 1 -->
<svg width="296pt" height="497pt"
 viewBox="0.00 0.00 296.00 497.00" xmlns="http://www.w3.org/2000/svg" xmlns:xlink="http://www.w3.org/1999/xlink">
<g id="graph0" class="graph" transform="scale(1 1) rotate(0) translate(4 492.75)">
<title>TechTree</title>
<polygon fill="white" stroke="none" points="-4,4 -4,-492.75 292.25,-492.75 292.25,4 -4,4"/>
<text xml:space="preserve" text-anchor="middle" x="144.12" y="-473.35" font-family="Helvetica,sans-Serif" font-weight="bold" font-size="12.00">Hardening</text>
<!-- Electronic_Hardening_Level_0 -->
<g id="node1" class="node">
<title>Electronic_Hardening_Level_0</title>
<path fill="#cce5ff" stroke="black" d="M122.5,-468C122.5,-468 12,-468 12,-468 6,-468 0,-462 0,-456 0,-456 0,-444 0,-444 0,-438 6,-432 12,-432 12,-432 122.5,-432 122.5,-432 128.5,-432 134.5,-438 134.5,-444 134.5,-444 134.5,-456 134.5,-456 134.5,-462 128.5,-468 122.5,-468"/>
<text xml:space="preserve" text-anchor="middle" x="67.25" y="-451.2" font-family="Helvetica,sans-Serif" font-size="9.00">Electronic Hardening Level 0</text>
<text xml:space="preserve" text-anchor="middle" x="67.25" y="-441.45" font-family="Helvetica,sans-Serif" font-size="9.00">1K RP</text>
</g>
<!-- Electronic_Hardening_Level_1 -->
<g id="node2" class="node">
<title>Electronic_Hardening_Level_1</title>
<path fill="#cce5ff" stroke="black" d="M275.5,-396C275.5,-396 165,-396 165,-396 159,-396 153,-390 153,-384 153,-384 153,-372 153,-372 153,-366 159,-360 165,-360 165,-360 275.5,-360 275.5,-360 281.5,-360 287.5,-366 287.5,-372 287.5,-372 287.5,-384 287.5,-384 287.5,-390 281.5,-396 275.5,-396"/>
<text xml:space="preserve" text-anchor="middle" x="220.25" y="-379.2" font-family="Helvetica,sans-Serif" font-size="9.00">Electronic Hardening Level 1</text>
<text xml:space="preserve" text-anchor="middle" x="220.25" y="-369.45" font-family="Helvetica,sans-Serif" font-size="9.00">2K RP</text>
</g>
<!-- Electronic_Hardening_Level_2 -->
<g id="node3" class="node">
<title>Electronic_Hardening_Level_2</title>
<path fill="#cce5ff" stroke="black" d="M275.5,-324C275.5,-324 165,-324 165,-324 159,-324 153,-318 153,-312 153,-312 153,-300 153,-300 153,-294 159,-288 165,-288 165,-288 275.5,-288 275.5,-288 281.5,-288 287.5,-294 287.5,-300 287.5,-300 287.5,-312 287.5,-312 287.5,-318 281.5,-324 275.5,-324"/>
<text xml:space="preserve" text-anchor="middle" x="220.25" y="-307.2" font-family="Helvetica,sans-Serif" font-size="9.00">Electronic Hardening Level 2</text>
<text xml:space="preserve" text-anchor="middle" x="220.25" y="-297.45" font-family="Helvetica,sans-Serif" font-size="9.00">5K RP</text>
</g>
<!-- Electronic_Hardening_Level_1&#45;&gt;Electronic_Hardening_Level_2 -->
<g id="edge2" class="edge">
<title>Electronic_Hardening_Level_1&#45;&gt;Electronic_Hardening_Level_2</title>
<path fill="none" stroke="black" d="M220.25,-359.7C220.25,-351.22 220.25,-340.86 220.25,-331.58"/>
<polygon fill="black" stroke="black" points="222.35,-331.62 220.25,-325.62 218.15,-331.62 222.35,-331.62"/>
</g>
<!-- Electronic_Hardening_Level_3 -->
<g id="node4" class="node">
<title>Electronic_Hardening_Level_3</title>
<path fill="#cce5ff" stroke="black" d="M275.5,-252C275.5,-252 165,-252 165,-252 159,-252 153,-246 153,-240 153,-240 153,-228 153,-228 153,-222 159,-216 165,-216 165,-216 275.5,-216 275.5,-216 281.5,-216 287.5,-222 287.5,-228 287.5,-228 287.5,-240 287.5,-240 287.5,-246 281.5,-252 275.5,-252"/>
<text xml:space="preserve" text-anchor="middle" x="220.25" y="-235.2" font-family="Helvetica,sans-Serif" font-size="9.00">Electronic Hardening Level 3</text>
<text xml:space="preserve" text-anchor="middle" x="220.25" y="-225.45" font-family="Helvetica,sans-Serif" font-size="9.00">10K RP</text>
</g>
<!-- Electronic_Hardening_Level_2&#45;&gt;Electronic_Hardening_Level_3 -->
<g id="edge3" class="edge">
<title>Electronic_Hardening_Level_2&#45;&gt;Electronic_Hardening_Level_3</title>
<path fill="none" stroke="black" d="M220.25,-287.7C220.25,-279.22 220.25,-268.86 220.25,-259.58"/>
<polygon fill="black" stroke="black" points="222.35,-259.62 220.25,-253.62 218.15,-259.62 222.35,-259.62"/>
</g>
<!-- Electronic_Hardening_Level_4 -->
<g id="node5" class="node">
<title>Electronic_Hardening_Level_4</title>
<path fill="#fff3cd" stroke="black" d="M275.5,-180C275.5,-180 165,-180 165,-180 159,-180 153,-174 153,-168 153,-168 153,-156 153,-156 153,-150 159,-144 165,-144 165,-144 275.5,-144 275.5,-144 281.5,-144 287.5,-150 287.5,-156 287.5,-156 287.5,-168 287.5,-168 287.5,-174 281.5,-180 275.5,-180"/>
<text xml:space="preserve" text-anchor="middle" x="220.25" y="-163.2" font-family="Helvetica,sans-Serif" font-size="9.00">Electronic Hardening Level 4</text>
<text xml:space="preserve" text-anchor="middle" x="220.25" y="-153.45" font-family="Helvetica,sans-Serif" font-size="9.00">20K RP</text>
</g>
<!-- Electronic_Hardening_Level_3&#45;&gt;Electronic_Hardening_Level_4 -->
<g id="edge4" class="edge">
<title>Electronic_Hardening_Level_3&#45;&gt;Electronic_Hardening_Level_4</title>
<path fill="none" stroke="black" d="M220.25,-215.7C220.25,-207.22 220.25,-196.86 220.25,-187.58"/>
<polygon fill="black" stroke="black" points="222.35,-187.62 220.25,-181.62 218.15,-187.62 222.35,-187.62"/>
</g>
<!-- Electronic_Hardening_Level_5 -->
<g id="node6" class="node">
<title>Electronic_Hardening_Level_5</title>
<path fill="#fff3cd" stroke="black" d="M275.5,-108C275.5,-108 165,-108 165,-108 159,-108 153,-102 153,-96 153,-96 153,-84 153,-84 153,-78 159,-72 165,-72 165,-72 275.5,-72 275.5,-72 281.5,-72 287.5,-78 287.5,-84 287.5,-84 287.5,-96 287.5,-96 287.5,-102 281.5,-108 275.5,-108"/>
<text xml:space="preserve" text-anchor="middle" x="220.25" y="-91.2" font-family="Helvetica,sans-Serif" font-size="9.00">Electronic Hardening Level 5</text>
<text xml:space="preserve" text-anchor="middle" x="220.25" y="-81.45" font-family="Helvetica,sans-Serif" font-size="9.00">40K RP</text>
</g>
<!-- Electronic_Hardening_Level_4&#45;&gt;Electronic_Hardening_Level_5 -->
<g id="edge5" class="edge">
<title>Electronic_Hardening_Level_4&#45;&gt;Electronic_Hardening_Level_5</title>
<path fill="none" stroke="black" d="M220.25,-143.7C220.25,-135.22 220.25,-124.86 220.25,-115.58"/>
<polygon fill="black" stroke="black" points="222.35,-115.62 220.25,-109.62 218.15,-115.62 222.35,-115.62"/>
</g>
<!-- Electronic_Hardening_Level_6 -->
<g id="node7" class="node">
<title>Electronic_Hardening_Level_6</title>
<path fill="#fff3cd" stroke="black" d="M275.5,-36C275.5,-36 165,-36 165,-36 159,-36 153,-30 153,-24 153,-24 153,-12 153,-12 153,-6 159,0 165,0 165,0 275.5,0 275.5,0 281.5,0 287.5,-6 287.5,-12 287.5,-12 287.5,-24 287.5,-24 287.5,-30 281.5,-36 275.5,-36"/>
<text xml:space="preserve" text-anchor="middle" x="220.25" y="-19.2" font-family="Helvetica,sans-Serif" font-size="9.00">Electronic Hardening Level 6</text>
<text xml:space="preserve" text-anchor="middle" x="220.25" y="-9.45" font-family="Helvetica,sans-Serif" font-size="9.00">80K RP</text>
</g>
<!-- Electronic_Hardening_Level_5&#45;&gt;Electronic_Hardening_Level_6 -->
<g id="edge6" class="edge">
<title>Electronic_Hardening_Level_5&#45;&gt;Electronic_Hardening_Level_6</title>
<path fill="none" stroke="black" d="M220.25,-71.7C220.25,-63.22 220.25,-52.86 220.25,-43.58"/>
<polygon fill="black" stroke="black" points="222.35,-43.62 220.25,-37.62 218.15,-43.62 222.35,-43.62"/>
</g>
<!-- ext_Trans_Newtonian_Technology -->
<g id="node8" class="node">
<title>ext_Trans_Newtonian_Technology</title>
<path fill="#f0f0f0" stroke="black" stroke-dasharray="5,2" d="M276.25,-468C276.25,-468 164.25,-468 164.25,-468 158.25,-468 152.25,-462 152.25,-456 152.25,-456 152.25,-444 152.25,-444 152.25,-438 158.25,-432 164.25,-432 164.25,-432 276.25,-432 276.25,-432 282.25,-432 288.25,-438 288.25,-444 288.25,-444 288.25,-456 288.25,-456 288.25,-462 282.25,-468 276.25,-468"/>
<text xml:space="preserve" text-anchor="middle" x="220.25" y="-446.32" font-family="Helvetica,sans-Serif" font-size="9.00">Trans&#45;Newtonian Technology</text>
</g>
<!-- ext_Trans_Newtonian_Technology&#45;&gt;Electronic_Hardening_Level_1 -->
<g id="edge1" class="edge">
<title>ext_Trans_Newtonian_Technology&#45;&gt;Electronic_Hardening_Level_1</title>
<path fill="none" stroke="black" d="M220.25,-431.7C220.25,-423.22 220.25,-412.86 220.25,-403.58"/>
<polygon fill="black" stroke="black" points="222.35,-403.62 220.25,-397.62 218.15,-403.62 222.35,-403.62"/>
</g>
</g>
</svg>
