<?xml version="1.0" encoding="UTF-8" standalone="no"?>
<!DOCTYPE svg PUBLIC "-//W3C//DTD SVG 1.1//EN"
 "http://www.w3.org/Graphics/SVG/1.1/DTD/svg11.dtd">
<!-- Generated by graphviz version 14.1.2 (20260124.0452)
 -->
<!-- Title: TechTree Pages: 1 -->
<svg width="152pt" height="65pt"
 viewBox="0.00 0.00 152.00 65.00" xmlns="http://www.w3.org/2000/svg" xmlns:xlink="http://www.w3.org/1999/xlink">
<g id="graph0" class="graph" transform="scale(1 1) rotate(0) translate(4 60.75)">
<title>TechTree</title>
<polygon fill="white" stroke="none" points="-4,4 -4,-60.75 147.5,-60.75 147.5,4 -4,4"/>
<text xml:space="preserve" text-anchor="middle" x="71.75" y="-41.35" font-family="Helvetica,sans-Serif" font-weight="bold" font-size="12.00">Hyper Drive Efficiency</text>
<!-- No_Hyper_Drive_Capability -->
<g id="node1" class="node">
<title>No_Hyper_Drive_Capability</title>
<path fill="#d4edda" stroke="black" d="M121,-36C121,-36 22.5,-36 22.5,-36 16.5,-36 10.5,-30 10.5,-24 10.5,-24 10.5,-12 10.5,-12 10.5,-6 16.5,0 22.5,0 22.5,0 121,0 121,0 127,0 133,-6 133,-12 133,-12 133,-24 133,-24 133,-30 127,-36 121,-36"/>
<text xml:space="preserve" text-anchor="middle" x="71.75" y="-19.2" font-family="Helvetica,sans-Serif" font-size="9.00">No Hyper Drive Capability</text>
<text xml:space="preserve" text-anchor="middle" x="71.75" y="-9.45" font-family="Helvetica,sans-Serif" font-size="9.00">1 RP</text>
</g>
</g>
</svg>
