<?xml version="1.0" encoding="UTF-8" standalone="no"?>
<!DOCTYPE svg PUBLIC "-//W3C//DTD SVG 1.1//EN"
 "http://www.w3.org/Graphics/SVG/1.1/DTD/svg11.dtd">
<!-- Generated by graphviz version 14.1.2 (20260124.0452)
 -->
<!-- Title: TechTree Pages: 1 -->
<svg width="188pt" height="857pt"
 viewBox="0.00 0.00 188.00 857.00" xmlns="http://www.w3.org/2000/svg" xmlns:xlink="http://www.w3.org/1999/xlink">
<g id="graph0" class="graph" transform="scale(1 1) rotate(0) translate(4 852.75)">
<title>TechTree</title>
<polygon fill="white" stroke="none" points="-4,4 -4,-852.75 184.25,-852.75 184.25,4 -4,4"/>
<text xml:space="preserve" text-anchor="middle" x="90.12" y="-833.35" font-family="Helvetica,sans-Serif" font-weight="bold" font-size="12.00">Improved Fighter Production</text>
<!-- Fighter_Production_Rate_12_BP -->
<g id="node1" class="node">
<title>Fighter_Production_Rate_12_BP</title>
<path fill="#cce5ff" stroke="black" d="M148,-756C148,-756 32.25,-756 32.25,-756 26.25,-756 20.25,-750 20.25,-744 20.25,-744 20.25,-732 20.25,-732 20.25,-726 26.25,-720 32.25,-720 32.25,-720 148,-720 148,-720 154,-720 160,-726 160,-732 160,-732 160,-744 160,-744 160,-750 154,-756 148,-756"/>
<text xml:space="preserve" text-anchor="middle" x="90.12" y="-739.2" font-family="Helvetica,sans-Serif" font-size="9.00">Fighter Production Rate 12 BP</text>
<text xml:space="preserve" text-anchor="middle" x="90.12" y="-729.45" font-family="Helvetica,sans-Serif" font-size="9.00">3K RP</text>
</g>
<!-- Fighter_Production_Rate_14_BP -->
<g id="node2" class="node">
<title>Fighter_Production_Rate_14_BP</title>
<path fill="#cce5ff" stroke="black" d="M148,-684C148,-684 32.25,-684 32.25,-684 26.25,-684 20.25,-678 20.25,-672 20.25,-672 20.25,-660 20.25,-660 20.25,-654 26.25,-648 32.25,-648 32.25,-648 148,-648 148,-648 154,-648 160,-654 160,-660 160,-660 160,-672 160,-672 160,-678 154,-684 148,-684"/>
<text xml:space="preserve" text-anchor="middle" x="90.12" y="-667.2" font-family="Helvetica,sans-Serif" font-size="9.00">Fighter Production Rate 14 BP</text>
<text xml:space="preserve" text-anchor="middle" x="90.12" y="-657.45" font-family="Helvetica,sans-Serif" font-size="9.00">5K RP</text>
</g>
<!-- Fighter_Production_Rate_12_BP&#45;&gt;Fighter_Production_Rate_14_BP -->
<g id="edge2" class="edge">
<title>Fighter_Production_Rate_12_BP&#45;&gt;Fighter_Production_Rate_14_BP</title>
<path fill="none" stroke="black" d="M90.12,-719.7C90.12,-711.22 90.12,-700.86 90.12,-691.58"/>
<polygon fill="black" stroke="black" points="92.23,-691.62 90.13,-685.62 88.03,-691.62 92.23,-691.62"/>
</g>
<!-- Fighter_Production_Rate_16_BP -->
<g id="node3" class="node">
<title>Fighter_Production_Rate_16_BP</title>
<path fill="#cce5ff" stroke="black" d="M148,-612C148,-612 32.25,-612 32.25,-612 26.25,-612 20.25,-606 20.25,-600 20.25,-600 20.25,-588 20.25,-588 20.25,-582 26.25,-576 32.25,-576 32.25,-576 148,-576 148,-576 154,-576 160,-582 160,-588 160,-588 160,-600 160,-600 160,-606 154,-612 148,-612"/>
<text xml:space="preserve" text-anchor="middle" x="90.12" y="-595.2" font-family="Helvetica,sans-Serif" font-size="9.00">Fighter Production Rate 16 BP</text>
<text xml:space="preserve" text-anchor="middle" x="90.12" y="-585.45" font-family="Helvetica,sans-Serif" font-size="9.00">10K RP</text>
</g>
<!-- Fighter_Production_Rate_14_BP&#45;&gt;Fighter_Production_Rate_16_BP -->
<g id="edge3" class="edge">
<title>Fighter_Production_Rate_14_BP&#45;&gt;Fighter_Production_Rate_16_BP</title>
<path fill="none" stroke="black" d="M90.12,-647.7C90.12,-639.22 90.12,-628.86 90.12,-619.58"/>
<polygon fill="black" stroke="black" points="92.23,-619.62 90.13,-613.62 88.03,-619.62 92.23,-619.62"/>
</g>
<!-- Fighter_Production_Rate_20_BP -->
<g id="node4" class="node">
<title>Fighter_Production_Rate_20_BP</title>
<path fill="#fff3cd" stroke="black" d="M148,-540C148,-540 32.25,-540 32.25,-540 26.25,-540 20.25,-534 20.25,-528 20.25,-528 20.25,-516 20.25,-516 20.25,-510 26.25,-504 32.25,-504 32.25,-504 148,-504 148,-504 154,-504 160,-510 160,-516 160,-516 160,-528 160,-528 160,-534 154,-540 148,-540"/>
<text xml:space="preserve" text-anchor="middle" x="90.12" y="-523.2" font-family="Helvetica,sans-Serif" font-size="9.00">Fighter Production Rate 20 BP</text>
<text xml:space="preserve" text-anchor="middle" x="90.12" y="-513.45" font-family="Helvetica,sans-Serif" font-size="9.00">20K RP</text>
</g>
<!-- Fighter_Production_Rate_16_BP&#45;&gt;Fighter_Production_Rate_20_BP -->
<g id="edge4" class="edge">
<title>Fighter_Production_Rate_16_BP&#45;&gt;Fighter_Production_Rate_20_BP</title>
<path fill="none" stroke="black" d="M90.12,-575.7C90.12,-567.22 90.12,-556.86 90.12,-547.58"/>
<polygon fill="black" stroke="black" points="92.23,-547.62 90.13,-541.62 88.03,-547.62 92.23,-547.62"/>
</g>
<!-- Fighter_Production_Rate_25_BP -->
<g id="node5" class="node">
<title>Fighter_Production_Rate_25_BP</title>
<path fill="#fff3cd" stroke="black" d="M148,-468C148,-468 32.25,-468 32.25,-468 26.25,-468 20.25,-462 20.25,-456 20.25,-456 20.25,-444 20.25,-444 20.25,-438 26.25,-432 32.25,-432 32.25,-432 148,-432 148,-432 154,-432 160,-438 160,-444 160,-444 160,-456 160,-456 160,-462 154,-468 148,-468"/>
<text xml:space="preserve" text-anchor="middle" x="90.12" y="-451.2" font-family="Helvetica,sans-Serif" font-size="9.00">Fighter Production Rate 25 BP</text>
<text xml:space="preserve" text-anchor="middle" x="90.12" y="-441.45" font-family="Helvetica,sans-Serif" font-size="9.00">40K RP</text>
</g>
<!-- Fighter_Production_Rate_20_BP&#45;&gt;Fighter_Production_Rate_25_BP -->
<g id="edge5" class="edge">
<title>Fighter_Production_Rate_20_BP&#45;&gt;Fighter_Production_Rate_25_BP</title>
<path fill="none" stroke="black" d="M90.12,-503.7C90.12,-495.22 90.12,-484.86 90.12,-475.58"/>
<polygon fill="black" stroke="black" points="92.23,-475.62 90.13,-469.62 88.03,-475.62 92.23,-475.62"/>
</g>
<!-- Fighter_Production_Rate_30_BP -->
<g id="node6" class="node">
<title>Fighter_Production_Rate_30_BP</title>
<path fill="#fff3cd" stroke="black" d="M148,-396C148,-396 32.25,-396 32.25,-396 26.25,-396 20.25,-390 20.25,-384 20.25,-384 20.25,-372 20.25,-372 20.25,-366 26.25,-360 32.25,-360 32.25,-360 148,-360 148,-360 154,-360 160,-366 160,-372 160,-372 160,-384 160,-384 160,-390 154,-396 148,-396"/>
<text xml:space="preserve" text-anchor="middle" x="90.12" y="-379.2" font-family="Helvetica,sans-Serif" font-size="9.00">Fighter Production Rate 30 BP</text>
<text xml:space="preserve" text-anchor="middle" x="90.12" y="-369.45" font-family="Helvetica,sans-Serif" font-size="9.00">80K RP</text>
</g>
<!-- Fighter_Production_Rate_25_BP&#45;&gt;Fighter_Production_Rate_30_BP -->
<g id="edge6" class="edge">
<title>Fighter_Production_Rate_25_BP&#45;&gt;Fighter_Production_Rate_30_BP</title>
<path fill="none" stroke="black" d="M90.12,-431.7C90.12,-423.22 90.12,-412.86 90.12,-403.58"/>
<polygon fill="black" stroke="black" points="92.23,-403.62 90.13,-397.62 88.03,-403.62 92.23,-403.62"/>
</g>
<!-- Fighter_Production_Rate_35_BP -->
<g id="node7" class="node">
<title>Fighter_Production_Rate_35_BP</title>
<path fill="#d4c4fb" stroke="black" d="M148,-324C148,-324 32.25,-324 32.25,-324 26.25,-324 20.25,-318 20.25,-312 20.25,-312 20.25,-300 20.25,-300 20.25,-294 26.25,-288 32.25,-288 32.25,-288 148,-288 148,-288 154,-288 160,-294 160,-300 160,-300 160,-312 160,-312 160,-318 154,-324 148,-324"/>
<text xml:space="preserve" text-anchor="middle" x="90.12" y="-307.2" font-family="Helvetica,sans-Serif" font-size="9.00">Fighter Production Rate 35 BP</text>
<text xml:space="preserve" text-anchor="middle" x="90.12" y="-297.45" font-family="Helvetica,sans-Serif" font-size="9.00">150K RP</text>
</g>
<!-- Fighter_Production_Rate_30_BP&#45;&gt;Fighter_Production_Rate_35_BP -->
<g id="edge7" class="edge">
<title>Fighter_Production_Rate_30_BP&#45;&gt;Fighter_Production_Rate_35_BP</title>
<path fill="none" stroke="black" d="M90.12,-359.7C90.12,-351.22 90.12,-340.86 90.12,-331.58"/>
<polygon fill="black" stroke="black" points="92.23,-331.62 90.13,-325.62 88.03,-331.62 92.23,-331.62"/>
</g>
<!-- Fighter_Production_Rate_40_BP -->
<g id="node8" class="node">
<title>Fighter_Production_Rate_40_BP</title>
<path fill="#d4c4fb" stroke="black" d="M148,-252C148,-252 32.25,-252 32.25,-252 26.25,-252 20.25,-246 20.25,-240 20.25,-240 20.25,-228 20.25,-228 20.25,-222 26.25,-216 32.25,-216 32.25,-216 148,-216 148,-216 154,-216 160,-222 160,-228 160,-228 160,-240 160,-240 160,-246 154,-252 148,-252"/>
<text xml:space="preserve" text-anchor="middle" x="90.12" y="-235.2" font-family="Helvetica,sans-Serif" font-size="9.00">Fighter Production Rate 40 BP</text>
<text xml:space="preserve" text-anchor="middle" x="90.12" y="-225.45" font-family="Helvetica,sans-Serif" font-size="9.00">300K RP</text>
</g>
<!-- Fighter_Production_Rate_35_BP&#45;&gt;Fighter_Production_Rate_40_BP -->
<g id="edge8" class="edge">
<title>Fighter_Production_Rate_35_BP&#45;&gt;Fighter_Production_Rate_40_BP</title>
<path fill="none" stroke="black" d="M90.12,-287.7C90.12,-279.22 90.12,-268.86 90.12,-259.58"/>
<polygon fill="black" stroke="black" points="92.23,-259.62 90.13,-253.62 88.03,-259.62 92.23,-259.62"/>
</g>
<!-- Fighter_Production_Rate_50_BP -->
<g id="node9" class="node">
<title>Fighter_Production_Rate_50_BP</title>
<path fill="#d4c4fb" stroke="black" d="M148,-180C148,-180 32.25,-180 32.25,-180 26.25,-180 20.25,-174 20.25,-168 20.25,-168 20.25,-156 20.25,-156 20.25,-150 26.25,-144 32.25,-144 32.25,-144 148,-144 148,-144 154,-144 160,-150 160,-156 160,-156 160,-168 160,-168 160,-174 154,-180 148,-180"/>
<text xml:space="preserve" text-anchor="middle" x="90.12" y="-163.2" font-family="Helvetica,sans-Serif" font-size="9.00">Fighter Production Rate 50 BP</text>
<text xml:space="preserve" text-anchor="middle" x="90.12" y="-153.45" font-family="Helvetica,sans-Serif" font-size="9.00">600K RP</text>
</g>
<!-- Fighter_Production_Rate_40_BP&#45;&gt;Fighter_Production_Rate_50_BP -->
<g id="edge9" class="edge">
<title>Fighter_Production_Rate_40_BP&#45;&gt;Fighter_Production_Rate_50_BP</title>
<path fill="none" stroke="black" d="M90.12,-215.7C90.12,-207.22 90.12,-196.86 90.12,-187.58"/>
<polygon fill="black" stroke="black" points="92.23,-187.62 90.13,-181.62 88.03,-187.62 92.23,-187.62"/>
</g>
<!-- Fighter_Production_Rate_60_BP -->
<g id="node10" class="node">
<title>Fighter_Production_Rate_60_BP</title>
<path fill="#f8d7da" stroke="black" d="M148,-108C148,-108 32.25,-108 32.25,-108 26.25,-108 20.25,-102 20.25,-96 20.25,-96 20.25,-84 20.25,-84 20.25,-78 26.25,-72 32.25,-72 32.25,-72 148,-72 148,-72 154,-72 160,-78 160,-84 160,-84 160,-96 160,-96 160,-102 154,-108 148,-108"/>
<text xml:space="preserve" text-anchor="middle" x="90.12" y="-91.2" font-family="Helvetica,sans-Serif" font-size="9.00">Fighter Production Rate 60 BP</text>
<text xml:space="preserve" text-anchor="middle" x="90.12" y="-81.45" font-family="Helvetica,sans-Serif" font-size="9.00">1.2M RP</text>
</g>
<!-- Fighter_Production_Rate_50_BP&#45;&gt;Fighter_Production_Rate_60_BP -->
<g id="edge10" class="edge">
<title>Fighter_Production_Rate_50_BP&#45;&gt;Fighter_Production_Rate_60_BP</title>
<path fill="none" stroke="black" d="M90.12,-143.7C90.12,-135.22 90.12,-124.86 90.12,-115.58"/>
<polygon fill="black" stroke="black" points="92.23,-115.62 90.13,-109.62 88.03,-115.62 92.23,-115.62"/>
</g>
<!-- Fighter_Production_Rate_70_BP -->
<g id="node11" class="node">
<title>Fighter_Production_Rate_70_BP</title>
<path fill="#f8d7da" stroke="black" d="M148,-36C148,-36 32.25,-36 32.25,-36 26.25,-36 20.25,-30 20.25,-24 20.25,-24 20.25,-12 20.25,-12 20.25,-6 26.25,0 32.25,0 32.25,0 148,0 148,0 154,0 160,-6 160,-12 160,-12 160,-24 160,-24 160,-30 154,-36 148,-36"/>
<text xml:space="preserve" text-anchor="middle" x="90.12" y="-19.2" font-family="Helvetica,sans-Serif" font-size="9.00">Fighter Production Rate 70 BP</text>
<text xml:space="preserve" text-anchor="middle" x="90.12" y="-9.45" font-family="Helvetica,sans-Serif" font-size="9.00">2.5M RP</text>
</g>
<!-- Fighter_Production_Rate_60_BP&#45;&gt;Fighter_Production_Rate_70_BP -->
<g id="edge11" class="edge">
<title>Fighter_Production_Rate_60_BP&#45;&gt;Fighter_Production_Rate_70_BP</title>
<path fill="none" stroke="black" d="M90.12,-71.7C90.12,-63.22 90.12,-52.86 90.12,-43.58"/>
<polygon fill="black" stroke="black" points="92.23,-43.62 90.13,-37.62 88.03,-43.62 92.23,-43.62"/>
</g>
<!-- ext_Trans_Newtonian_Technology -->
<g id="node12" class="node">
<title>ext_Trans_Newtonian_Technology</title>
<path fill="#f0f0f0" stroke="black" stroke-dasharray="5,2" d="M146.12,-828C146.12,-828 34.12,-828 34.12,-828 28.12,-828 22.12,-822 22.12,-816 22.12,-816 22.12,-804 22.12,-804 22.12,-798 28.12,-792 34.12,-792 34.12,-792 146.12,-792 146.12,-792 152.12,-792 158.12,-798 158.12,-804 158.12,-804 158.12,-816 158.12,-816 158.12,-822 152.12,-828 146.12,-828"/>
<text xml:space="preserve" text-anchor="middle" x="90.12" y="-806.33" font-family="Helvetica,sans-Serif" font-size="9.00">Trans&#45;Newtonian Technology</text>
</g>
<!-- ext_Trans_Newtonian_Technology&#45;&gt;Fighter_Production_Rate_12_BP -->
<g id="edge1" class="edge">
<title>ext_Trans_Newtonian_Technology&#45;&gt;Fighter_Production_Rate_12_BP</title>
<path fill="none" stroke="black" d="M90.12,-791.7C90.12,-783.22 90.12,-772.86 90.12,-763.58"/>
<polygon fill="black" stroke="black" points="92.23,-763.62 90.13,-757.62 88.03,-763.62 92.23,-763.62"/>
</g>
</g>
</svg>
