<?xml version="1.0" encoding="UTF-8" standalone="no"?>
<!DOCTYPE svg PUBLIC "-//W3C//DTD SVG 1.1//EN"
 "http://www.w3.org/Graphics/SVG/1.1/DTD/svg11.dtd">
<!-- Generated by graphviz version 14.1.2 (20260124.0452)
 -->
<!-- Title: TechTree Pages: 1 -->
<svg width="304pt" height="857pt"
 viewBox="0.00 0.00 304.00 857.00" xmlns="http://www.w3.org/2000/svg" xmlns:xlink="http://www.w3.org/1999/xlink">
<g id="graph0" class="graph" transform="scale(1 1) rotate(0) translate(4 852.75)">
<title>TechTree</title>
<polygon fill="white" stroke="none" points="-4,4 -4,-852.75 299.62,-852.75 299.62,4 -4,4"/>
<text xml:space="preserve" text-anchor="middle" x="147.81" y="-833.35" font-family="Helvetica,sans-Serif" font-weight="bold" font-size="12.00">Improved Planetary Sensor Strength</text>
<!-- Planetary_Sensor_Strength_250 -->
<g id="node1" class="node">
<title>Planetary_Sensor_Strength_250</title>
<path fill="#cce5ff" stroke="black" d="M129.25,-828C129.25,-828 12,-828 12,-828 6,-828 0,-822 0,-816 0,-816 0,-804 0,-804 0,-798 6,-792 12,-792 12,-792 129.25,-792 129.25,-792 135.25,-792 141.25,-798 141.25,-804 141.25,-804 141.25,-816 141.25,-816 141.25,-822 135.25,-828 129.25,-828"/>
<text xml:space="preserve" text-anchor="middle" x="70.62" y="-811.2" font-family="Helvetica,sans-Serif" font-size="9.00">Planetary Sensor Strength 250</text>
<text xml:space="preserve" text-anchor="middle" x="70.62" y="-801.45" font-family="Helvetica,sans-Serif" font-size="9.00">1K RP</text>
</g>
<!-- Planetary_Sensor_Strength_300 -->
<g id="node2" class="node">
<title>Planetary_Sensor_Strength_300</title>
<path fill="#cce5ff" stroke="black" d="M207.25,-756C207.25,-756 90,-756 90,-756 84,-756 78,-750 78,-744 78,-744 78,-732 78,-732 78,-726 84,-720 90,-720 90,-720 207.25,-720 207.25,-720 213.25,-720 219.25,-726 219.25,-732 219.25,-732 219.25,-744 219.25,-744 219.25,-750 213.25,-756 207.25,-756"/>
<text xml:space="preserve" text-anchor="middle" x="148.62" y="-739.2" font-family="Helvetica,sans-Serif" font-size="9.00">Planetary Sensor Strength 300</text>
<text xml:space="preserve" text-anchor="middle" x="148.62" y="-729.45" font-family="Helvetica,sans-Serif" font-size="9.00">3K RP</text>
</g>
<!-- Planetary_Sensor_Strength_250&#45;&gt;Planetary_Sensor_Strength_300 -->
<g id="edge1" class="edge">
<title>Planetary_Sensor_Strength_250&#45;&gt;Planetary_Sensor_Strength_300</title>
<path fill="none" stroke="black" d="M89.91,-791.7C100.12,-782.53 112.79,-771.16 123.75,-761.33"/>
<polygon fill="black" stroke="black" points="125.11,-762.93 128.17,-757.36 122.3,-759.8 125.11,-762.93"/>
</g>
<!-- Planetary_Sensor_Strength_400 -->
<g id="node3" class="node">
<title>Planetary_Sensor_Strength_400</title>
<path fill="#cce5ff" stroke="black" d="M207.25,-684C207.25,-684 90,-684 90,-684 84,-684 78,-678 78,-672 78,-672 78,-660 78,-660 78,-654 84,-648 90,-648 90,-648 207.25,-648 207.25,-648 213.25,-648 219.25,-654 219.25,-660 219.25,-660 219.25,-672 219.25,-672 219.25,-678 213.25,-684 207.25,-684"/>
<text xml:space="preserve" text-anchor="middle" x="148.62" y="-667.2" font-family="Helvetica,sans-Serif" font-size="9.00">Planetary Sensor Strength 400</text>
<text xml:space="preserve" text-anchor="middle" x="148.62" y="-657.45" font-family="Helvetica,sans-Serif" font-size="9.00">5K RP</text>
</g>
<!-- Planetary_Sensor_Strength_300&#45;&gt;Planetary_Sensor_Strength_400 -->
<g id="edge3" class="edge">
<title>Planetary_Sensor_Strength_300&#45;&gt;Planetary_Sensor_Strength_400</title>
<path fill="none" stroke="black" d="M148.62,-719.7C148.62,-711.22 148.62,-700.86 148.62,-691.58"/>
<polygon fill="black" stroke="black" points="150.73,-691.62 148.63,-685.62 146.53,-691.62 150.73,-691.62"/>
</g>
<!-- Planetary_Sensor_Strength_550 -->
<g id="node4" class="node">
<title>Planetary_Sensor_Strength_550</title>
<path fill="#cce5ff" stroke="black" d="M207.25,-612C207.25,-612 90,-612 90,-612 84,-612 78,-606 78,-600 78,-600 78,-588 78,-588 78,-582 84,-576 90,-576 90,-576 207.25,-576 207.25,-576 213.25,-576 219.25,-582 219.25,-588 219.25,-588 219.25,-600 219.25,-600 219.25,-606 213.25,-612 207.25,-612"/>
<text xml:space="preserve" text-anchor="middle" x="148.62" y="-595.2" font-family="Helvetica,sans-Serif" font-size="9.00">Planetary Sensor Strength 550</text>
<text xml:space="preserve" text-anchor="middle" x="148.62" y="-585.45" font-family="Helvetica,sans-Serif" font-size="9.00">10K RP</text>
</g>
<!-- Planetary_Sensor_Strength_400&#45;&gt;Planetary_Sensor_Strength_550 -->
<g id="edge4" class="edge">
<title>Planetary_Sensor_Strength_400&#45;&gt;Planetary_Sensor_Strength_550</title>
<path fill="none" stroke="black" d="M148.62,-647.7C148.62,-639.22 148.62,-628.86 148.62,-619.58"/>
<polygon fill="black" stroke="black" points="150.73,-619.62 148.63,-613.62 146.53,-619.62 150.73,-619.62"/>
</g>
<!-- Planetary_Sensor_Strength_700 -->
<g id="node5" class="node">
<title>Planetary_Sensor_Strength_700</title>
<path fill="#fff3cd" stroke="black" d="M207.25,-540C207.25,-540 90,-540 90,-540 84,-540 78,-534 78,-528 78,-528 78,-516 78,-516 78,-510 84,-504 90,-504 90,-504 207.25,-504 207.25,-504 213.25,-504 219.25,-510 219.25,-516 219.25,-516 219.25,-528 219.25,-528 219.25,-534 213.25,-540 207.25,-540"/>
<text xml:space="preserve" text-anchor="middle" x="148.62" y="-523.2" font-family="Helvetica,sans-Serif" font-size="9.00">Planetary Sensor Strength 700</text>
<text xml:space="preserve" text-anchor="middle" x="148.62" y="-513.45" font-family="Helvetica,sans-Serif" font-size="9.00">20K RP</text>
</g>
<!-- Planetary_Sensor_Strength_550&#45;&gt;Planetary_Sensor_Strength_700 -->
<g id="edge5" class="edge">
<title>Planetary_Sensor_Strength_550&#45;&gt;Planetary_Sensor_Strength_700</title>
<path fill="none" stroke="black" d="M148.62,-575.7C148.62,-567.22 148.62,-556.86 148.62,-547.58"/>
<polygon fill="black" stroke="black" points="150.73,-547.62 148.63,-541.62 146.53,-547.62 150.73,-547.62"/>
</g>
<!-- Planetary_Sensor_Strength_900 -->
<g id="node6" class="node">
<title>Planetary_Sensor_Strength_900</title>
<path fill="#fff3cd" stroke="black" d="M207.25,-468C207.25,-468 90,-468 90,-468 84,-468 78,-462 78,-456 78,-456 78,-444 78,-444 78,-438 84,-432 90,-432 90,-432 207.25,-432 207.25,-432 213.25,-432 219.25,-438 219.25,-444 219.25,-444 219.25,-456 219.25,-456 219.25,-462 213.25,-468 207.25,-468"/>
<text xml:space="preserve" text-anchor="middle" x="148.62" y="-451.2" font-family="Helvetica,sans-Serif" font-size="9.00">Planetary Sensor Strength 900</text>
<text xml:space="preserve" text-anchor="middle" x="148.62" y="-441.45" font-family="Helvetica,sans-Serif" font-size="9.00">40K RP</text>
</g>
<!-- Planetary_Sensor_Strength_700&#45;&gt;Planetary_Sensor_Strength_900 -->
<g id="edge6" class="edge">
<title>Planetary_Sensor_Strength_700&#45;&gt;Planetary_Sensor_Strength_900</title>
<path fill="none" stroke="black" d="M148.62,-503.7C148.62,-495.22 148.62,-484.86 148.62,-475.58"/>
<polygon fill="black" stroke="black" points="150.73,-475.62 148.63,-469.62 146.53,-475.62 150.73,-475.62"/>
</g>
<!-- Planetary_Sensor_Strength_1200 -->
<g id="node7" class="node">
<title>Planetary_Sensor_Strength_1200</title>
<path fill="#fff3cd" stroke="black" d="M209.88,-396C209.88,-396 87.38,-396 87.38,-396 81.37,-396 75.38,-390 75.38,-384 75.38,-384 75.38,-372 75.38,-372 75.38,-366 81.38,-360 87.38,-360 87.38,-360 209.88,-360 209.88,-360 215.88,-360 221.88,-366 221.88,-372 221.88,-372 221.88,-384 221.88,-384 221.88,-390 215.88,-396 209.88,-396"/>
<text xml:space="preserve" text-anchor="middle" x="148.62" y="-379.2" font-family="Helvetica,sans-Serif" font-size="9.00">Planetary Sensor Strength 1200</text>
<text xml:space="preserve" text-anchor="middle" x="148.62" y="-369.45" font-family="Helvetica,sans-Serif" font-size="9.00">80K RP</text>
</g>
<!-- Planetary_Sensor_Strength_900&#45;&gt;Planetary_Sensor_Strength_1200 -->
<g id="edge7" class="edge">
<title>Planetary_Sensor_Strength_900&#45;&gt;Planetary_Sensor_Strength_1200</title>
<path fill="none" stroke="black" d="M148.62,-431.7C148.62,-423.22 148.62,-412.86 148.62,-403.58"/>
<polygon fill="black" stroke="black" points="150.73,-403.62 148.63,-397.62 146.53,-403.62 150.73,-403.62"/>
</g>
<!-- Planetary_Sensor_Strength_1600 -->
<g id="node8" class="node">
<title>Planetary_Sensor_Strength_1600</title>
<path fill="#d4c4fb" stroke="black" d="M209.88,-324C209.88,-324 87.38,-324 87.38,-324 81.37,-324 75.38,-318 75.38,-312 75.38,-312 75.38,-300 75.38,-300 75.38,-294 81.38,-288 87.38,-288 87.38,-288 209.88,-288 209.88,-288 215.88,-288 221.88,-294 221.88,-300 221.88,-300 221.88,-312 221.88,-312 221.88,-318 215.88,-324 209.88,-324"/>
<text xml:space="preserve" text-anchor="middle" x="148.62" y="-307.2" font-family="Helvetica,sans-Serif" font-size="9.00">Planetary Sensor Strength 1600</text>
<text xml:space="preserve" text-anchor="middle" x="148.62" y="-297.45" font-family="Helvetica,sans-Serif" font-size="9.00">150K RP</text>
</g>
<!-- Planetary_Sensor_Strength_1200&#45;&gt;Planetary_Sensor_Strength_1600 -->
<g id="edge8" class="edge">
<title>Planetary_Sensor_Strength_1200&#45;&gt;Planetary_Sensor_Strength_1600</title>
<path fill="none" stroke="black" d="M148.62,-359.7C148.62,-351.22 148.62,-340.86 148.62,-331.58"/>
<polygon fill="black" stroke="black" points="150.73,-331.62 148.63,-325.62 146.53,-331.62 150.73,-331.62"/>
</g>
<!-- Planetary_Sensor_Strength_2000 -->
<g id="node9" class="node">
<title>Planetary_Sensor_Strength_2000</title>
<path fill="#d4c4fb" stroke="black" d="M209.88,-252C209.88,-252 87.38,-252 87.38,-252 81.37,-252 75.38,-246 75.38,-240 75.38,-240 75.38,-228 75.38,-228 75.38,-222 81.38,-216 87.38,-216 87.38,-216 209.88,-216 209.88,-216 215.88,-216 221.88,-222 221.88,-228 221.88,-228 221.88,-240 221.88,-240 221.88,-246 215.88,-252 209.88,-252"/>
<text xml:space="preserve" text-anchor="middle" x="148.62" y="-235.2" font-family="Helvetica,sans-Serif" font-size="9.00">Planetary Sensor Strength 2000</text>
<text xml:space="preserve" text-anchor="middle" x="148.62" y="-225.45" font-family="Helvetica,sans-Serif" font-size="9.00">300K RP</text>
</g>
<!-- Planetary_Sensor_Strength_1600&#45;&gt;Planetary_Sensor_Strength_2000 -->
<g id="edge9" class="edge">
<title>Planetary_Sensor_Strength_1600&#45;&gt;Planetary_Sensor_Strength_2000</title>
<path fill="none" stroke="black" d="M148.62,-287.7C148.62,-279.22 148.62,-268.86 148.62,-259.58"/>
<polygon fill="black" stroke="black" points="150.73,-259.62 148.63,-253.62 146.53,-259.62 150.73,-259.62"/>
</g>
<!-- Planetary_Sensor_Strength_2500 -->
<g id="node10" class="node">
<title>Planetary_Sensor_Strength_2500</title>
<path fill="#d4c4fb" stroke="black" d="M209.88,-180C209.88,-180 87.38,-180 87.38,-180 81.37,-180 75.38,-174 75.38,-168 75.38,-168 75.38,-156 75.38,-156 75.38,-150 81.38,-144 87.38,-144 87.38,-144 209.88,-144 209.88,-144 215.88,-144 221.88,-150 221.88,-156 221.88,-156 221.88,-168 221.88,-168 221.88,-174 215.88,-180 209.88,-180"/>
<text xml:space="preserve" text-anchor="middle" x="148.62" y="-163.2" font-family="Helvetica,sans-Serif" font-size="9.00">Planetary Sensor Strength 2500</text>
<text xml:space="preserve" text-anchor="middle" x="148.62" y="-153.45" font-family="Helvetica,sans-Serif" font-size="9.00">600K RP</text>
</g>
<!-- Planetary_Sensor_Strength_2000&#45;&gt;Planetary_Sensor_Strength_2500 -->
<g id="edge10" class="edge">
<title>Planetary_Sensor_Strength_2000&#45;&gt;Planetary_Sensor_Strength_2500</title>
<path fill="none" stroke="black" d="M148.62,-215.7C148.62,-207.22 148.62,-196.86 148.62,-187.58"/>
<polygon fill="black" stroke="black" points="150.73,-187.62 148.63,-181.62 146.53,-187.62 150.73,-187.62"/>
</g>
<!-- Planetary_Sensor_Strength_3000 -->
<g id="node11" class="node">
<title>Planetary_Sensor_Strength_3000</title>
<path fill="#f8d7da" stroke="black" d="M209.88,-108C209.88,-108 87.38,-108 87.38,-108 81.37,-108 75.38,-102 75.38,-96 75.38,-96 75.38,-84 75.38,-84 75.38,-78 81.38,-72 87.38,-72 87.38,-72 209.88,-72 209.88,-72 215.88,-72 221.88,-78 221.88,-84 221.88,-84 221.88,-96 221.88,-96 221.88,-102 215.88,-108 209.88,-108"/>
<text xml:space="preserve" text-anchor="middle" x="148.62" y="-91.2" font-family="Helvetica,sans-Serif" font-size="9.00">Planetary Sensor Strength 3000</text>
<text xml:space="preserve" text-anchor="middle" x="148.62" y="-81.45" font-family="Helvetica,sans-Serif" font-size="9.00">1.2M RP</text>
</g>
<!-- Planetary_Sensor_Strength_2500&#45;&gt;Planetary_Sensor_Strength_3000 -->
<g id="edge11" class="edge">
<title>Planetary_Sensor_Strength_2500&#45;&gt;Planetary_Sensor_Strength_3000</title>
<path fill="none" stroke="black" d="M148.62,-143.7C148.62,-135.22 148.62,-124.86 148.62,-115.58"/>
<polygon fill="black" stroke="black" points="150.73,-115.62 148.63,-109.62 146.53,-115.62 150.73,-115.62"/>
</g>
<!-- Planetary_Sensor_Strength_3750 -->
<g id="node12" class="node">
<title>Planetary_Sensor_Strength_3750</title>
<path fill="#f8d7da" stroke="black" d="M209.88,-36C209.88,-36 87.38,-36 87.38,-36 81.37,-36 75.38,-30 75.38,-24 75.38,-24 75.38,-12 75.38,-12 75.38,-6 81.38,0 87.38,0 87.38,0 209.88,0 209.88,0 215.88,0 221.88,-6 221.88,-12 221.88,-12 221.88,-24 221.88,-24 221.88,-30 215.88,-36 209.88,-36"/>
<text xml:space="preserve" text-anchor="middle" x="148.62" y="-19.2" font-family="Helvetica,sans-Serif" font-size="9.00">Planetary Sensor Strength 3750</text>
<text xml:space="preserve" text-anchor="middle" x="148.62" y="-9.45" font-family="Helvetica,sans-Serif" font-size="9.00">2.5M RP</text>
</g>
<!-- Planetary_Sensor_Strength_3000&#45;&gt;Planetary_Sensor_Strength_3750 -->
<g id="edge12" class="edge">
<title>Planetary_Sensor_Strength_3000&#45;&gt;Planetary_Sensor_Strength_3750</title>
<path fill="none" stroke="black" d="M148.62,-71.7C148.62,-63.22 148.62,-52.86 148.62,-43.58"/>
<polygon fill="black" stroke="black" points="150.73,-43.62 148.63,-37.62 146.53,-43.62 150.73,-43.62"/>
</g>
<!-- ext_Trans_Newtonian_Technology -->
<g id="node13" class="node">
<title>ext_Trans_Newtonian_Technology</title>
<path fill="#f0f0f0" stroke="black" stroke-dasharray="5,2" d="M283.62,-828C283.62,-828 171.62,-828 171.62,-828 165.62,-828 159.62,-822 159.62,-816 159.62,-816 159.62,-804 159.62,-804 159.62,-798 165.62,-792 171.62,-792 171.62,-792 283.62,-792 283.62,-792 289.62,-792 295.62,-798 295.62,-804 295.62,-804 295.62,-816 295.62,-816 295.62,-822 289.62,-828 283.62,-828"/>
<text xml:space="preserve" text-anchor="middle" x="227.62" y="-806.33" font-family="Helvetica,sans-Serif" font-size="9.00">Trans&#45;Newtonian Technology</text>
</g>
<!-- ext_Trans_Newtonian_Technology&#45;&gt;Planetary_Sensor_Strength_300 -->
<g id="edge2" class="edge">
<title>ext_Trans_Newtonian_Technology&#45;&gt;Planetary_Sensor_Strength_300</title>
<path fill="none" stroke="black" d="M208.1,-791.7C197.75,-782.53 184.91,-771.16 173.82,-761.33"/>
<polygon fill="black" stroke="black" points="175.22,-759.76 169.34,-757.35 172.43,-762.9 175.22,-759.76"/>
</g>
</g>
</svg>
