<?xml version="1.0" encoding="UTF-8" standalone="no"?>
<!DOCTYPE svg PUBLIC "-//W3C//DTD SVG 1.1//EN"
 "http://www.w3.org/Graphics/SVG/1.1/DTD/svg11.dtd">
<!-- Generated by graphviz version 14.1.2 (20260124.0452)
 -->
<!-- Title: TechTree Pages: 1 -->
<svg width="204pt" height="857pt"
 viewBox="0.00 0.00 204.00 857.00" xmlns="http://www.w3.org/2000/svg" xmlns:xlink="http://www.w3.org/1999/xlink">
<g id="graph0" class="graph" transform="scale(1 1) rotate(0) translate(4 852.75)">
<title>TechTree</title>
<polygon fill="white" stroke="none" points="-4,4 -4,-852.75 200,-852.75 200,4 -4,4"/>
<text xml:space="preserve" text-anchor="middle" x="98" y="-833.35" font-family="Helvetica,sans-Serif" font-weight="bold" font-size="12.00">Improved Ordnance Production</text>
<!-- Ordnance_Production_12_BP -->
<g id="node1" class="node">
<title>Ordnance_Production_12_BP</title>
<path fill="#cce5ff" stroke="black" d="M151,-756C151,-756 45,-756 45,-756 39,-756 33,-750 33,-744 33,-744 33,-732 33,-732 33,-726 39,-720 45,-720 45,-720 151,-720 151,-720 157,-720 163,-726 163,-732 163,-732 163,-744 163,-744 163,-750 157,-756 151,-756"/>
<text xml:space="preserve" text-anchor="middle" x="98" y="-739.2" font-family="Helvetica,sans-Serif" font-size="9.00">Ordnance Production 12 BP</text>
<text xml:space="preserve" text-anchor="middle" x="98" y="-729.45" font-family="Helvetica,sans-Serif" font-size="9.00">3K RP</text>
</g>
<!-- Ordnance_Production_14_BP -->
<g id="node2" class="node">
<title>Ordnance_Production_14_BP</title>
<path fill="#cce5ff" stroke="black" d="M151,-684C151,-684 45,-684 45,-684 39,-684 33,-678 33,-672 33,-672 33,-660 33,-660 33,-654 39,-648 45,-648 45,-648 151,-648 151,-648 157,-648 163,-654 163,-660 163,-660 163,-672 163,-672 163,-678 157,-684 151,-684"/>
<text xml:space="preserve" text-anchor="middle" x="98" y="-667.2" font-family="Helvetica,sans-Serif" font-size="9.00">Ordnance Production 14 BP</text>
<text xml:space="preserve" text-anchor="middle" x="98" y="-657.45" font-family="Helvetica,sans-Serif" font-size="9.00">5K RP</text>
</g>
<!-- Ordnance_Production_12_BP&#45;&gt;Ordnance_Production_14_BP -->
<g id="edge2" class="edge">
<title>Ordnance_Production_12_BP&#45;&gt;Ordnance_Production_14_BP</title>
<path fill="none" stroke="black" d="M98,-719.7C98,-711.22 98,-700.86 98,-691.58"/>
<polygon fill="black" stroke="black" points="100.1,-691.62 98,-685.62 95.9,-691.62 100.1,-691.62"/>
</g>
<!-- Ordnance_Production_16_BP -->
<g id="node3" class="node">
<title>Ordnance_Production_16_BP</title>
<path fill="#cce5ff" stroke="black" d="M151,-612C151,-612 45,-612 45,-612 39,-612 33,-606 33,-600 33,-600 33,-588 33,-588 33,-582 39,-576 45,-576 45,-576 151,-576 151,-576 157,-576 163,-582 163,-588 163,-588 163,-600 163,-600 163,-606 157,-612 151,-612"/>
<text xml:space="preserve" text-anchor="middle" x="98" y="-595.2" font-family="Helvetica,sans-Serif" font-size="9.00">Ordnance Production 16 BP</text>
<text xml:space="preserve" text-anchor="middle" x="98" y="-585.45" font-family="Helvetica,sans-Serif" font-size="9.00">10K RP</text>
</g>
<!-- Ordnance_Production_14_BP&#45;&gt;Ordnance_Production_16_BP -->
<g id="edge3" class="edge">
<title>Ordnance_Production_14_BP&#45;&gt;Ordnance_Production_16_BP</title>
<path fill="none" stroke="black" d="M98,-647.7C98,-639.22 98,-628.86 98,-619.58"/>
<polygon fill="black" stroke="black" points="100.1,-619.62 98,-613.62 95.9,-619.62 100.1,-619.62"/>
</g>
<!-- Ordnance_Production_20_BP -->
<g id="node4" class="node">
<title>Ordnance_Production_20_BP</title>
<path fill="#fff3cd" stroke="black" d="M151,-540C151,-540 45,-540 45,-540 39,-540 33,-534 33,-528 33,-528 33,-516 33,-516 33,-510 39,-504 45,-504 45,-504 151,-504 151,-504 157,-504 163,-510 163,-516 163,-516 163,-528 163,-528 163,-534 157,-540 151,-540"/>
<text xml:space="preserve" text-anchor="middle" x="98" y="-523.2" font-family="Helvetica,sans-Serif" font-size="9.00">Ordnance Production 20 BP</text>
<text xml:space="preserve" text-anchor="middle" x="98" y="-513.45" font-family="Helvetica,sans-Serif" font-size="9.00">20K RP</text>
</g>
<!-- Ordnance_Production_16_BP&#45;&gt;Ordnance_Production_20_BP -->
<g id="edge4" class="edge">
<title>Ordnance_Production_16_BP&#45;&gt;Ordnance_Production_20_BP</title>
<path fill="none" stroke="black" d="M98,-575.7C98,-567.22 98,-556.86 98,-547.58"/>
<polygon fill="black" stroke="black" points="100.1,-547.62 98,-541.62 95.9,-547.62 100.1,-547.62"/>
</g>
<!-- Ordnance_Production_25_BP -->
<g id="node5" class="node">
<title>Ordnance_Production_25_BP</title>
<path fill="#fff3cd" stroke="black" d="M151,-468C151,-468 45,-468 45,-468 39,-468 33,-462 33,-456 33,-456 33,-444 33,-444 33,-438 39,-432 45,-432 45,-432 151,-432 151,-432 157,-432 163,-438 163,-444 163,-444 163,-456 163,-456 163,-462 157,-468 151,-468"/>
<text xml:space="preserve" text-anchor="middle" x="98" y="-451.2" font-family="Helvetica,sans-Serif" font-size="9.00">Ordnance Production 25 BP</text>
<text xml:space="preserve" text-anchor="middle" x="98" y="-441.45" font-family="Helvetica,sans-Serif" font-size="9.00">40K RP</text>
</g>
<!-- Ordnance_Production_20_BP&#45;&gt;Ordnance_Production_25_BP -->
<g id="edge5" class="edge">
<title>Ordnance_Production_20_BP&#45;&gt;Ordnance_Production_25_BP</title>
<path fill="none" stroke="black" d="M98,-503.7C98,-495.22 98,-484.86 98,-475.58"/>
<polygon fill="black" stroke="black" points="100.1,-475.62 98,-469.62 95.9,-475.62 100.1,-475.62"/>
</g>
<!-- Ordnance_Production_30_BP -->
<g id="node6" class="node">
<title>Ordnance_Production_30_BP</title>
<path fill="#fff3cd" stroke="black" d="M151,-396C151,-396 45,-396 45,-396 39,-396 33,-390 33,-384 33,-384 33,-372 33,-372 33,-366 39,-360 45,-360 45,-360 151,-360 151,-360 157,-360 163,-366 163,-372 163,-372 163,-384 163,-384 163,-390 157,-396 151,-396"/>
<text xml:space="preserve" text-anchor="middle" x="98" y="-379.2" font-family="Helvetica,sans-Serif" font-size="9.00">Ordnance Production 30 BP</text>
<text xml:space="preserve" text-anchor="middle" x="98" y="-369.45" font-family="Helvetica,sans-Serif" font-size="9.00">80K RP</text>
</g>
<!-- Ordnance_Production_25_BP&#45;&gt;Ordnance_Production_30_BP -->
<g id="edge6" class="edge">
<title>Ordnance_Production_25_BP&#45;&gt;Ordnance_Production_30_BP</title>
<path fill="none" stroke="black" d="M98,-431.7C98,-423.22 98,-412.86 98,-403.58"/>
<polygon fill="black" stroke="black" points="100.1,-403.62 98,-397.62 95.9,-403.62 100.1,-403.62"/>
</g>
<!-- Ordnance_Production_35_BP -->
<g id="node7" class="node">
<title>Ordnance_Production_35_BP</title>
<path fill="#d4c4fb" stroke="black" d="M151,-324C151,-324 45,-324 45,-324 39,-324 33,-318 33,-312 33,-312 33,-300 33,-300 33,-294 39,-288 45,-288 45,-288 151,-288 151,-288 157,-288 163,-294 163,-300 163,-300 163,-312 163,-312 163,-318 157,-324 151,-324"/>
<text xml:space="preserve" text-anchor="middle" x="98" y="-307.2" font-family="Helvetica,sans-Serif" font-size="9.00">Ordnance Production 35 BP</text>
<text xml:space="preserve" text-anchor="middle" x="98" y="-297.45" font-family="Helvetica,sans-Serif" font-size="9.00">150K RP</text>
</g>
<!-- Ordnance_Production_30_BP&#45;&gt;Ordnance_Production_35_BP -->
<g id="edge7" class="edge">
<title>Ordnance_Production_30_BP&#45;&gt;Ordnance_Production_35_BP</title>
<path fill="none" stroke="black" d="M98,-359.7C98,-351.22 98,-340.86 98,-331.58"/>
<polygon fill="black" stroke="black" points="100.1,-331.62 98,-325.62 95.9,-331.62 100.1,-331.62"/>
</g>
<!-- Ordnance_Production_40_BP -->
<g id="node8" class="node">
<title>Ordnance_Production_40_BP</title>
<path fill="#d4c4fb" stroke="black" d="M151,-252C151,-252 45,-252 45,-252 39,-252 33,-246 33,-240 33,-240 33,-228 33,-228 33,-222 39,-216 45,-216 45,-216 151,-216 151,-216 157,-216 163,-222 163,-228 163,-228 163,-240 163,-240 163,-246 157,-252 151,-252"/>
<text xml:space="preserve" text-anchor="middle" x="98" y="-235.2" font-family="Helvetica,sans-Serif" font-size="9.00">Ordnance Production 40 BP</text>
<text xml:space="preserve" text-anchor="middle" x="98" y="-225.45" font-family="Helvetica,sans-Serif" font-size="9.00">300K RP</text>
</g>
<!-- Ordnance_Production_35_BP&#45;&gt;Ordnance_Production_40_BP -->
<g id="edge8" class="edge">
<title>Ordnance_Production_35_BP&#45;&gt;Ordnance_Production_40_BP</title>
<path fill="none" stroke="black" d="M98,-287.7C98,-279.22 98,-268.86 98,-259.58"/>
<polygon fill="black" stroke="black" points="100.1,-259.62 98,-253.62 95.9,-259.62 100.1,-259.62"/>
</g>
<!-- Ordnance_Production_50_BP -->
<g id="node9" class="node">
<title>Ordnance_Production_50_BP</title>
<path fill="#d4c4fb" stroke="black" d="M151,-180C151,-180 45,-180 45,-180 39,-180 33,-174 33,-168 33,-168 33,-156 33,-156 33,-150 39,-144 45,-144 45,-144 151,-144 151,-144 157,-144 163,-150 163,-156 163,-156 163,-168 163,-168 163,-174 157,-180 151,-180"/>
<text xml:space="preserve" text-anchor="middle" x="98" y="-163.2" font-family="Helvetica,sans-Serif" font-size="9.00">Ordnance Production 50 BP</text>
<text xml:space="preserve" text-anchor="middle" x="98" y="-153.45" font-family="Helvetica,sans-Serif" font-size="9.00">600K RP</text>
</g>
<!-- Ordnance_Production_40_BP&#45;&gt;Ordnance_Production_50_BP -->
<g id="edge9" class="edge">
<title>Ordnance_Production_40_BP&#45;&gt;Ordnance_Production_50_BP</title>
<path fill="none" stroke="black" d="M98,-215.7C98,-207.22 98,-196.86 98,-187.58"/>
<polygon fill="black" stroke="black" points="100.1,-187.62 98,-181.62 95.9,-187.62 100.1,-187.62"/>
</g>
<!-- Ordnance_Production_60_BP -->
<g id="node10" class="node">
<title>Ordnance_Production_60_BP</title>
<path fill="#f8d7da" stroke="black" d="M151,-108C151,-108 45,-108 45,-108 39,-108 33,-102 33,-96 33,-96 33,-84 33,-84 33,-78 39,-72 45,-72 45,-72 151,-72 151,-72 157,-72 163,-78 163,-84 163,-84 163,-96 163,-96 163,-102 157,-108 151,-108"/>
<text xml:space="preserve" text-anchor="middle" x="98" y="-91.2" font-family="Helvetica,sans-Serif" font-size="9.00">Ordnance Production 60 BP</text>
<text xml:space="preserve" text-anchor="middle" x="98" y="-81.45" font-family="Helvetica,sans-Serif" font-size="9.00">1.2M RP</text>
</g>
<!-- Ordnance_Production_50_BP&#45;&gt;Ordnance_Production_60_BP -->
<g id="edge10" class="edge">
<title>Ordnance_Production_50_BP&#45;&gt;Ordnance_Production_60_BP</title>
<path fill="none" stroke="black" d="M98,-143.7C98,-135.22 98,-124.86 98,-115.58"/>
<polygon fill="black" stroke="black" points="100.1,-115.62 98,-109.62 95.9,-115.62 100.1,-115.62"/>
</g>
<!-- Ordnance_Production_70_BP -->
<g id="node11" class="node">
<title>Ordnance_Production_70_BP</title>
<path fill="#f8d7da" stroke="black" d="M151,-36C151,-36 45,-36 45,-36 39,-36 33,-30 33,-24 33,-24 33,-12 33,-12 33,-6 39,0 45,0 45,0 151,0 151,0 157,0 163,-6 163,-12 163,-12 163,-24 163,-24 163,-30 157,-36 151,-36"/>
<text xml:space="preserve" text-anchor="middle" x="98" y="-19.2" font-family="Helvetica,sans-Serif" font-size="9.00">Ordnance Production 70 BP</text>
<text xml:space="preserve" text-anchor="middle" x="98" y="-9.45" font-family="Helvetica,sans-Serif" font-size="9.00">2.5M RP</text>
</g>
<!-- Ordnance_Production_60_BP&#45;&gt;Ordnance_Production_70_BP -->
<g id="edge11" class="edge">
<title>Ordnance_Production_60_BP&#45;&gt;Ordnance_Production_70_BP</title>
<path fill="none" stroke="black" d="M98,-71.7C98,-63.22 98,-52.86 98,-43.58"/>
<polygon fill="black" stroke="black" points="100.1,-43.62 98,-37.62 95.9,-43.62 100.1,-43.62"/>
</g>
<!-- ext_Trans_Newtonian_Technology -->
<g id="node12" class="node">
<title>ext_Trans_Newtonian_Technology</title>
<path fill="#f0f0f0" stroke="black" stroke-dasharray="5,2" d="M154,-828C154,-828 42,-828 42,-828 36,-828 30,-822 30,-816 30,-816 30,-804 30,-804 30,-798 36,-792 42,-792 42,-792 154,-792 154,-792 160,-792 166,-798 166,-804 166,-804 166,-816 166,-816 166,-822 160,-828 154,-828"/>
<text xml:space="preserve" text-anchor="middle" x="98" y="-806.33" font-family="Helvetica,sans-Serif" font-size="9.00">Trans&#45;Newtonian Technology</text>
</g>
<!-- ext_Trans_Newtonian_Technology&#45;&gt;Ordnance_Production_12_BP -->
<g id="edge1" class="edge">
<title>ext_Trans_Newtonian_Technology&#45;&gt;Ordnance_Production_12_BP</title>
<path fill="none" stroke="black" d="M98,-791.7C98,-783.22 98,-772.86 98,-763.58"/>
<polygon fill="black" stroke="black" points="100.1,-763.62 98,-757.62 95.9,-763.62 100.1,-763.62"/>
</g>
</g>
</svg>
