<?xml version="1.0" encoding="UTF-8" standalone="no"?>
<!DOCTYPE svg PUBLIC "-//W3C//DTD SVG 1.1//EN"
 "http://www.w3.org/Graphics/SVG/1.1/DTD/svg11.dtd">
<!-- Generated by graphviz version 14.1.2 (20260124.0452)
 -->
<!-- Title: TechTree Pages: 1 -->
<svg width="209pt" height="717pt"
 viewBox="0.00 0.00 209.00 717.00" xmlns="http://www.w3.org/2000/svg" xmlns:xlink="http://www.w3.org/1999/xlink">
<g id="graph0" class="graph" transform="scale(1 1) rotate(0) translate(4 713)">
<title>TechTree</title>
<polygon fill="white" stroke="none" points="-4,4 -4,-713 204.5,-713 204.5,4 -4,4"/>
<text xml:space="preserve" text-anchor="middle" x="100.25" y="-691.7" font-family="Helvetica,sans-Serif" font-weight="bold" font-size="14.00">Improved Mining Production</text>
<!-- Mining_Production_12_tons -->
<g id="node1" class="node">
<title>Mining_Production_12_tons</title>
<path fill="#cce5ff" stroke="black" d="M152.88,-686C152.88,-686 47.62,-686 47.62,-686 41.63,-686 35.62,-680 35.62,-674 35.62,-674 35.62,-662 35.62,-662 35.62,-656 41.62,-650 47.62,-650 47.62,-650 152.88,-650 152.88,-650 158.88,-650 164.88,-656 164.88,-662 164.88,-662 164.88,-674 164.88,-674 164.88,-680 158.88,-686 152.88,-686"/>
<text xml:space="preserve" text-anchor="middle" x="100.25" y="-669.75" font-family="Helvetica,sans-Serif" font-size="10.00">Mining Production 12 tons</text>
<text xml:space="preserve" text-anchor="middle" x="100.25" y="-658.5" font-family="Helvetica,sans-Serif" font-size="10.00">3K RP</text>
</g>
<!-- Mining_Production_14_tons -->
<g id="node2" class="node">
<title>Mining_Production_14_tons</title>
<path fill="#cce5ff" stroke="black" d="M152.88,-621C152.88,-621 47.62,-621 47.62,-621 41.63,-621 35.62,-615 35.62,-609 35.62,-609 35.62,-597 35.62,-597 35.62,-591 41.62,-585 47.62,-585 47.62,-585 152.88,-585 152.88,-585 158.88,-585 164.88,-591 164.88,-597 164.88,-597 164.88,-609 164.88,-609 164.88,-615 158.88,-621 152.88,-621"/>
<text xml:space="preserve" text-anchor="middle" x="100.25" y="-604.75" font-family="Helvetica,sans-Serif" font-size="10.00">Mining Production 14 tons</text>
<text xml:space="preserve" text-anchor="middle" x="100.25" y="-593.5" font-family="Helvetica,sans-Serif" font-size="10.00">5K RP</text>
</g>
<!-- Mining_Production_12_tons&#45;&gt;Mining_Production_14_tons -->
<g id="edge1" class="edge">
<title>Mining_Production_12_tons&#45;&gt;Mining_Production_14_tons</title>
<path fill="none" stroke="black" d="M100.25,-649.78C100.25,-643.53 100.25,-636.33 100.25,-629.52"/>
<polygon fill="black" stroke="black" points="102.7,-629.71 100.25,-622.71 97.8,-629.71 102.7,-629.71"/>
</g>
<!-- Mining_Production_16_tons -->
<g id="node3" class="node">
<title>Mining_Production_16_tons</title>
<path fill="#cce5ff" stroke="black" d="M152.88,-556C152.88,-556 47.62,-556 47.62,-556 41.63,-556 35.62,-550 35.62,-544 35.62,-544 35.62,-532 35.62,-532 35.62,-526 41.62,-520 47.62,-520 47.62,-520 152.88,-520 152.88,-520 158.88,-520 164.88,-526 164.88,-532 164.88,-532 164.88,-544 164.88,-544 164.88,-550 158.88,-556 152.88,-556"/>
<text xml:space="preserve" text-anchor="middle" x="100.25" y="-539.75" font-family="Helvetica,sans-Serif" font-size="10.00">Mining Production 16 tons</text>
<text xml:space="preserve" text-anchor="middle" x="100.25" y="-528.5" font-family="Helvetica,sans-Serif" font-size="10.00">10K RP</text>
</g>
<!-- Mining_Production_14_tons&#45;&gt;Mining_Production_16_tons -->
<g id="edge2" class="edge">
<title>Mining_Production_14_tons&#45;&gt;Mining_Production_16_tons</title>
<path fill="none" stroke="black" d="M100.25,-584.78C100.25,-578.53 100.25,-571.33 100.25,-564.52"/>
<polygon fill="black" stroke="black" points="102.7,-564.71 100.25,-557.71 97.8,-564.71 102.7,-564.71"/>
</g>
<!-- Mining_Production_20_tons -->
<g id="node4" class="node">
<title>Mining_Production_20_tons</title>
<path fill="#fff3cd" stroke="black" d="M152.88,-491C152.88,-491 47.62,-491 47.62,-491 41.63,-491 35.62,-485 35.62,-479 35.62,-479 35.62,-467 35.62,-467 35.62,-461 41.62,-455 47.62,-455 47.62,-455 152.88,-455 152.88,-455 158.88,-455 164.88,-461 164.88,-467 164.88,-467 164.88,-479 164.88,-479 164.88,-485 158.88,-491 152.88,-491"/>
<text xml:space="preserve" text-anchor="middle" x="100.25" y="-474.75" font-family="Helvetica,sans-Serif" font-size="10.00">Mining Production 20 tons</text>
<text xml:space="preserve" text-anchor="middle" x="100.25" y="-463.5" font-family="Helvetica,sans-Serif" font-size="10.00">20K RP</text>
</g>
<!-- Mining_Production_16_tons&#45;&gt;Mining_Production_20_tons -->
<g id="edge3" class="edge">
<title>Mining_Production_16_tons&#45;&gt;Mining_Production_20_tons</title>
<path fill="none" stroke="black" d="M100.25,-519.78C100.25,-513.53 100.25,-506.33 100.25,-499.52"/>
<polygon fill="black" stroke="black" points="102.7,-499.71 100.25,-492.71 97.8,-499.71 102.7,-499.71"/>
</g>
<!-- Mining_Production_25_tons -->
<g id="node5" class="node">
<title>Mining_Production_25_tons</title>
<path fill="#fff3cd" stroke="black" d="M152.88,-426C152.88,-426 47.62,-426 47.62,-426 41.63,-426 35.62,-420 35.62,-414 35.62,-414 35.62,-402 35.62,-402 35.62,-396 41.62,-390 47.62,-390 47.62,-390 152.88,-390 152.88,-390 158.88,-390 164.88,-396 164.88,-402 164.88,-402 164.88,-414 164.88,-414 164.88,-420 158.88,-426 152.88,-426"/>
<text xml:space="preserve" text-anchor="middle" x="100.25" y="-409.75" font-family="Helvetica,sans-Serif" font-size="10.00">Mining Production 25 tons</text>
<text xml:space="preserve" text-anchor="middle" x="100.25" y="-398.5" font-family="Helvetica,sans-Serif" font-size="10.00">40K RP</text>
</g>
<!-- Mining_Production_20_tons&#45;&gt;Mining_Production_25_tons -->
<g id="edge4" class="edge">
<title>Mining_Production_20_tons&#45;&gt;Mining_Production_25_tons</title>
<path fill="none" stroke="black" d="M100.25,-454.78C100.25,-448.53 100.25,-441.33 100.25,-434.52"/>
<polygon fill="black" stroke="black" points="102.7,-434.71 100.25,-427.71 97.8,-434.71 102.7,-434.71"/>
</g>
<!-- Mining_Production_30_tons -->
<g id="node6" class="node">
<title>Mining_Production_30_tons</title>
<path fill="#fff3cd" stroke="black" d="M152.88,-361C152.88,-361 47.62,-361 47.62,-361 41.63,-361 35.62,-355 35.62,-349 35.62,-349 35.62,-337 35.62,-337 35.62,-331 41.62,-325 47.62,-325 47.62,-325 152.88,-325 152.88,-325 158.88,-325 164.88,-331 164.88,-337 164.88,-337 164.88,-349 164.88,-349 164.88,-355 158.88,-361 152.88,-361"/>
<text xml:space="preserve" text-anchor="middle" x="100.25" y="-344.75" font-family="Helvetica,sans-Serif" font-size="10.00">Mining Production 30 tons</text>
<text xml:space="preserve" text-anchor="middle" x="100.25" y="-333.5" font-family="Helvetica,sans-Serif" font-size="10.00">80K RP</text>
</g>
<!-- Mining_Production_25_tons&#45;&gt;Mining_Production_30_tons -->
<g id="edge5" class="edge">
<title>Mining_Production_25_tons&#45;&gt;Mining_Production_30_tons</title>
<path fill="none" stroke="black" d="M100.25,-389.78C100.25,-383.53 100.25,-376.33 100.25,-369.52"/>
<polygon fill="black" stroke="black" points="102.7,-369.71 100.25,-362.71 97.8,-369.71 102.7,-369.71"/>
</g>
<!-- Mining_Production_36_tons -->
<g id="node7" class="node">
<title>Mining_Production_36_tons</title>
<path fill="#d4c4fb" stroke="black" d="M152.88,-296C152.88,-296 47.62,-296 47.62,-296 41.63,-296 35.62,-290 35.62,-284 35.62,-284 35.62,-272 35.62,-272 35.62,-266 41.62,-260 47.62,-260 47.62,-260 152.88,-260 152.88,-260 158.88,-260 164.88,-266 164.88,-272 164.88,-272 164.88,-284 164.88,-284 164.88,-290 158.88,-296 152.88,-296"/>
<text xml:space="preserve" text-anchor="middle" x="100.25" y="-279.75" font-family="Helvetica,sans-Serif" font-size="10.00">Mining Production 36 tons</text>
<text xml:space="preserve" text-anchor="middle" x="100.25" y="-268.5" font-family="Helvetica,sans-Serif" font-size="10.00">150K RP</text>
</g>
<!-- Mining_Production_30_tons&#45;&gt;Mining_Production_36_tons -->
<g id="edge6" class="edge">
<title>Mining_Production_30_tons&#45;&gt;Mining_Production_36_tons</title>
<path fill="none" stroke="black" d="M100.25,-324.78C100.25,-318.53 100.25,-311.33 100.25,-304.52"/>
<polygon fill="black" stroke="black" points="102.7,-304.71 100.25,-297.71 97.8,-304.71 102.7,-304.71"/>
</g>
<!-- Mining_Production_42_tons -->
<g id="node8" class="node">
<title>Mining_Production_42_tons</title>
<path fill="#d4c4fb" stroke="black" d="M152.88,-231C152.88,-231 47.62,-231 47.62,-231 41.63,-231 35.62,-225 35.62,-219 35.62,-219 35.62,-207 35.62,-207 35.62,-201 41.62,-195 47.62,-195 47.62,-195 152.88,-195 152.88,-195 158.88,-195 164.88,-201 164.88,-207 164.88,-207 164.88,-219 164.88,-219 164.88,-225 158.88,-231 152.88,-231"/>
<text xml:space="preserve" text-anchor="middle" x="100.25" y="-214.75" font-family="Helvetica,sans-Serif" font-size="10.00">Mining Production 42 tons</text>
<text xml:space="preserve" text-anchor="middle" x="100.25" y="-203.5" font-family="Helvetica,sans-Serif" font-size="10.00">300K RP</text>
</g>
<!-- Mining_Production_36_tons&#45;&gt;Mining_Production_42_tons -->
<g id="edge7" class="edge">
<title>Mining_Production_36_tons&#45;&gt;Mining_Production_42_tons</title>
<path fill="none" stroke="black" d="M100.25,-259.78C100.25,-253.53 100.25,-246.33 100.25,-239.52"/>
<polygon fill="black" stroke="black" points="102.7,-239.71 100.25,-232.71 97.8,-239.71 102.7,-239.71"/>
</g>
<!-- Mining_Production_50_tons -->
<g id="node9" class="node">
<title>Mining_Production_50_tons</title>
<path fill="#d4c4fb" stroke="black" d="M152.88,-166C152.88,-166 47.62,-166 47.62,-166 41.63,-166 35.62,-160 35.62,-154 35.62,-154 35.62,-142 35.62,-142 35.62,-136 41.62,-130 47.62,-130 47.62,-130 152.88,-130 152.88,-130 158.88,-130 164.88,-136 164.88,-142 164.88,-142 164.88,-154 164.88,-154 164.88,-160 158.88,-166 152.88,-166"/>
<text xml:space="preserve" text-anchor="middle" x="100.25" y="-149.75" font-family="Helvetica,sans-Serif" font-size="10.00">Mining Production 50 tons</text>
<text xml:space="preserve" text-anchor="middle" x="100.25" y="-138.5" font-family="Helvetica,sans-Serif" font-size="10.00">600K RP</text>
</g>
<!-- Mining_Production_42_tons&#45;&gt;Mining_Production_50_tons -->
<g id="edge8" class="edge">
<title>Mining_Production_42_tons&#45;&gt;Mining_Production_50_tons</title>
<path fill="none" stroke="black" d="M100.25,-194.78C100.25,-188.53 100.25,-181.33 100.25,-174.52"/>
<polygon fill="black" stroke="black" points="102.7,-174.71 100.25,-167.71 97.8,-174.71 102.7,-174.71"/>
</g>
<!-- Mining_Production_60_tons -->
<g id="node10" class="node">
<title>Mining_Production_60_tons</title>
<path fill="#f8d7da" stroke="black" d="M152.88,-101C152.88,-101 47.62,-101 47.62,-101 41.63,-101 35.62,-95 35.62,-89 35.62,-89 35.62,-77 35.62,-77 35.62,-71 41.62,-65 47.62,-65 47.62,-65 152.88,-65 152.88,-65 158.88,-65 164.88,-71 164.88,-77 164.88,-77 164.88,-89 164.88,-89 164.88,-95 158.88,-101 152.88,-101"/>
<text xml:space="preserve" text-anchor="middle" x="100.25" y="-84.75" font-family="Helvetica,sans-Serif" font-size="10.00">Mining Production 60 tons</text>
<text xml:space="preserve" text-anchor="middle" x="100.25" y="-73.5" font-family="Helvetica,sans-Serif" font-size="10.00">1.2M RP</text>
</g>
<!-- Mining_Production_50_tons&#45;&gt;Mining_Production_60_tons -->
<g id="edge9" class="edge">
<title>Mining_Production_50_tons&#45;&gt;Mining_Production_60_tons</title>
<path fill="none" stroke="black" d="M100.25,-129.78C100.25,-123.53 100.25,-116.33 100.25,-109.52"/>
<polygon fill="black" stroke="black" points="102.7,-109.71 100.25,-102.71 97.8,-109.71 102.7,-109.71"/>
</g>
<!-- Mining_Production_70_tons -->
<g id="node11" class="node">
<title>Mining_Production_70_tons</title>
<path fill="#f8d7da" stroke="black" d="M152.88,-36C152.88,-36 47.62,-36 47.62,-36 41.63,-36 35.62,-30 35.62,-24 35.62,-24 35.62,-12 35.62,-12 35.62,-6 41.62,0 47.62,0 47.62,0 152.88,0 152.88,0 158.88,0 164.88,-6 164.88,-12 164.88,-12 164.88,-24 164.88,-24 164.88,-30 158.88,-36 152.88,-36"/>
<text xml:space="preserve" text-anchor="middle" x="100.25" y="-19.75" font-family="Helvetica,sans-Serif" font-size="10.00">Mining Production 70 tons</text>
<text xml:space="preserve" text-anchor="middle" x="100.25" y="-8.5" font-family="Helvetica,sans-Serif" font-size="10.00">2.5M RP</text>
</g>
<!-- Mining_Production_60_tons&#45;&gt;Mining_Production_70_tons -->
<g id="edge10" class="edge">
<title>Mining_Production_60_tons&#45;&gt;Mining_Production_70_tons</title>
<path fill="none" stroke="black" d="M100.25,-64.78C100.25,-58.53 100.25,-51.33 100.25,-44.52"/>
<polygon fill="black" stroke="black" points="102.7,-44.71 100.25,-37.71 97.8,-44.71 102.7,-44.71"/>
</g>
</g>
</svg>
