<?xml version="1.0" encoding="UTF-8" standalone="no"?>
<!DOCTYPE svg PUBLIC "-//W3C//DTD SVG 1.1//EN"
 "http://www.w3.org/Graphics/SVG/1.1/DTD/svg11.dtd">
<!-- Generated by graphviz version 14.1.2 (20260124.0452)
 -->
<!-- Title: TechTree Pages: 1 -->
<svg width="185pt" height="857pt"
 viewBox="0.00 0.00 185.00 857.00" xmlns="http://www.w3.org/2000/svg" xmlns:xlink="http://www.w3.org/1999/xlink">
<g id="graph0" class="graph" transform="scale(1 1) rotate(0) translate(4 852.75)">
<title>TechTree</title>
<polygon fill="white" stroke="none" points="-4,4 -4,-852.75 181.25,-852.75 181.25,4 -4,4"/>
<text xml:space="preserve" text-anchor="middle" x="88.62" y="-833.35" font-family="Helvetica,sans-Serif" font-weight="bold" font-size="12.00">Improved Construction Rate</text>
<!-- Construction_Rate_12_BP -->
<g id="node1" class="node">
<title>Construction_Rate_12_BP</title>
<path fill="#cce5ff" stroke="black" d="M134.88,-756C134.88,-756 42.38,-756 42.38,-756 36.38,-756 30.38,-750 30.38,-744 30.38,-744 30.38,-732 30.38,-732 30.38,-726 36.38,-720 42.38,-720 42.38,-720 134.88,-720 134.88,-720 140.88,-720 146.88,-726 146.88,-732 146.88,-732 146.88,-744 146.88,-744 146.88,-750 140.88,-756 134.88,-756"/>
<text xml:space="preserve" text-anchor="middle" x="88.62" y="-739.2" font-family="Helvetica,sans-Serif" font-size="9.00">Construction Rate 12 BP</text>
<text xml:space="preserve" text-anchor="middle" x="88.62" y="-729.45" font-family="Helvetica,sans-Serif" font-size="9.00">3K RP</text>
</g>
<!-- Construction_Rate_14_BP -->
<g id="node2" class="node">
<title>Construction_Rate_14_BP</title>
<path fill="#cce5ff" stroke="black" d="M134.88,-684C134.88,-684 42.38,-684 42.38,-684 36.38,-684 30.38,-678 30.38,-672 30.38,-672 30.38,-660 30.38,-660 30.38,-654 36.38,-648 42.38,-648 42.38,-648 134.88,-648 134.88,-648 140.88,-648 146.88,-654 146.88,-660 146.88,-660 146.88,-672 146.88,-672 146.88,-678 140.88,-684 134.88,-684"/>
<text xml:space="preserve" text-anchor="middle" x="88.62" y="-667.2" font-family="Helvetica,sans-Serif" font-size="9.00">Construction Rate 14 BP</text>
<text xml:space="preserve" text-anchor="middle" x="88.62" y="-657.45" font-family="Helvetica,sans-Serif" font-size="9.00">5K RP</text>
</g>
<!-- Construction_Rate_12_BP&#45;&gt;Construction_Rate_14_BP -->
<g id="edge2" class="edge">
<title>Construction_Rate_12_BP&#45;&gt;Construction_Rate_14_BP</title>
<path fill="none" stroke="black" d="M88.62,-719.7C88.62,-711.22 88.62,-700.86 88.62,-691.58"/>
<polygon fill="black" stroke="black" points="90.73,-691.62 88.63,-685.62 86.53,-691.62 90.73,-691.62"/>
</g>
<!-- Construction_Rate_16_BP -->
<g id="node3" class="node">
<title>Construction_Rate_16_BP</title>
<path fill="#cce5ff" stroke="black" d="M134.88,-612C134.88,-612 42.38,-612 42.38,-612 36.38,-612 30.38,-606 30.38,-600 30.38,-600 30.38,-588 30.38,-588 30.38,-582 36.38,-576 42.38,-576 42.38,-576 134.88,-576 134.88,-576 140.88,-576 146.88,-582 146.88,-588 146.88,-588 146.88,-600 146.88,-600 146.88,-606 140.88,-612 134.88,-612"/>
<text xml:space="preserve" text-anchor="middle" x="88.62" y="-595.2" font-family="Helvetica,sans-Serif" font-size="9.00">Construction Rate 16 BP</text>
<text xml:space="preserve" text-anchor="middle" x="88.62" y="-585.45" font-family="Helvetica,sans-Serif" font-size="9.00">10K RP</text>
</g>
<!-- Construction_Rate_14_BP&#45;&gt;Construction_Rate_16_BP -->
<g id="edge3" class="edge">
<title>Construction_Rate_14_BP&#45;&gt;Construction_Rate_16_BP</title>
<path fill="none" stroke="black" d="M88.62,-647.7C88.62,-639.22 88.62,-628.86 88.62,-619.58"/>
<polygon fill="black" stroke="black" points="90.73,-619.62 88.63,-613.62 86.53,-619.62 90.73,-619.62"/>
</g>
<!-- Construction_Rate_20_BP -->
<g id="node4" class="node">
<title>Construction_Rate_20_BP</title>
<path fill="#fff3cd" stroke="black" d="M134.88,-540C134.88,-540 42.38,-540 42.38,-540 36.38,-540 30.38,-534 30.38,-528 30.38,-528 30.38,-516 30.38,-516 30.38,-510 36.38,-504 42.38,-504 42.38,-504 134.88,-504 134.88,-504 140.88,-504 146.88,-510 146.88,-516 146.88,-516 146.88,-528 146.88,-528 146.88,-534 140.88,-540 134.88,-540"/>
<text xml:space="preserve" text-anchor="middle" x="88.62" y="-523.2" font-family="Helvetica,sans-Serif" font-size="9.00">Construction Rate 20 BP</text>
<text xml:space="preserve" text-anchor="middle" x="88.62" y="-513.45" font-family="Helvetica,sans-Serif" font-size="9.00">20K RP</text>
</g>
<!-- Construction_Rate_16_BP&#45;&gt;Construction_Rate_20_BP -->
<g id="edge4" class="edge">
<title>Construction_Rate_16_BP&#45;&gt;Construction_Rate_20_BP</title>
<path fill="none" stroke="black" d="M88.62,-575.7C88.62,-567.22 88.62,-556.86 88.62,-547.58"/>
<polygon fill="black" stroke="black" points="90.73,-547.62 88.63,-541.62 86.53,-547.62 90.73,-547.62"/>
</g>
<!-- Construction_Rate_25_BP -->
<g id="node5" class="node">
<title>Construction_Rate_25_BP</title>
<path fill="#fff3cd" stroke="black" d="M134.88,-468C134.88,-468 42.38,-468 42.38,-468 36.38,-468 30.38,-462 30.38,-456 30.38,-456 30.38,-444 30.38,-444 30.38,-438 36.38,-432 42.38,-432 42.38,-432 134.88,-432 134.88,-432 140.88,-432 146.88,-438 146.88,-444 146.88,-444 146.88,-456 146.88,-456 146.88,-462 140.88,-468 134.88,-468"/>
<text xml:space="preserve" text-anchor="middle" x="88.62" y="-451.2" font-family="Helvetica,sans-Serif" font-size="9.00">Construction Rate 25 BP</text>
<text xml:space="preserve" text-anchor="middle" x="88.62" y="-441.45" font-family="Helvetica,sans-Serif" font-size="9.00">40K RP</text>
</g>
<!-- Construction_Rate_20_BP&#45;&gt;Construction_Rate_25_BP -->
<g id="edge5" class="edge">
<title>Construction_Rate_20_BP&#45;&gt;Construction_Rate_25_BP</title>
<path fill="none" stroke="black" d="M88.62,-503.7C88.62,-495.22 88.62,-484.86 88.62,-475.58"/>
<polygon fill="black" stroke="black" points="90.73,-475.62 88.63,-469.62 86.53,-475.62 90.73,-475.62"/>
</g>
<!-- Construction_Rate_30_BP -->
<g id="node6" class="node">
<title>Construction_Rate_30_BP</title>
<path fill="#fff3cd" stroke="black" d="M134.88,-396C134.88,-396 42.38,-396 42.38,-396 36.38,-396 30.38,-390 30.38,-384 30.38,-384 30.38,-372 30.38,-372 30.38,-366 36.38,-360 42.38,-360 42.38,-360 134.88,-360 134.88,-360 140.88,-360 146.88,-366 146.88,-372 146.88,-372 146.88,-384 146.88,-384 146.88,-390 140.88,-396 134.88,-396"/>
<text xml:space="preserve" text-anchor="middle" x="88.62" y="-379.2" font-family="Helvetica,sans-Serif" font-size="9.00">Construction Rate 30 BP</text>
<text xml:space="preserve" text-anchor="middle" x="88.62" y="-369.45" font-family="Helvetica,sans-Serif" font-size="9.00">80K RP</text>
</g>
<!-- Construction_Rate_25_BP&#45;&gt;Construction_Rate_30_BP -->
<g id="edge6" class="edge">
<title>Construction_Rate_25_BP&#45;&gt;Construction_Rate_30_BP</title>
<path fill="none" stroke="black" d="M88.62,-431.7C88.62,-423.22 88.62,-412.86 88.62,-403.58"/>
<polygon fill="black" stroke="black" points="90.73,-403.62 88.63,-397.62 86.53,-403.62 90.73,-403.62"/>
</g>
<!-- Construction_Rate_36_BP -->
<g id="node7" class="node">
<title>Construction_Rate_36_BP</title>
<path fill="#d4c4fb" stroke="black" d="M134.88,-324C134.88,-324 42.38,-324 42.38,-324 36.38,-324 30.38,-318 30.38,-312 30.38,-312 30.38,-300 30.38,-300 30.38,-294 36.38,-288 42.38,-288 42.38,-288 134.88,-288 134.88,-288 140.88,-288 146.88,-294 146.88,-300 146.88,-300 146.88,-312 146.88,-312 146.88,-318 140.88,-324 134.88,-324"/>
<text xml:space="preserve" text-anchor="middle" x="88.62" y="-307.2" font-family="Helvetica,sans-Serif" font-size="9.00">Construction Rate 36 BP</text>
<text xml:space="preserve" text-anchor="middle" x="88.62" y="-297.45" font-family="Helvetica,sans-Serif" font-size="9.00">150K RP</text>
</g>
<!-- Construction_Rate_30_BP&#45;&gt;Construction_Rate_36_BP -->
<g id="edge7" class="edge">
<title>Construction_Rate_30_BP&#45;&gt;Construction_Rate_36_BP</title>
<path fill="none" stroke="black" d="M88.62,-359.7C88.62,-351.22 88.62,-340.86 88.62,-331.58"/>
<polygon fill="black" stroke="black" points="90.73,-331.62 88.63,-325.62 86.53,-331.62 90.73,-331.62"/>
</g>
<!-- Construction_Rate_42_BP -->
<g id="node8" class="node">
<title>Construction_Rate_42_BP</title>
<path fill="#d4c4fb" stroke="black" d="M134.88,-252C134.88,-252 42.38,-252 42.38,-252 36.38,-252 30.38,-246 30.38,-240 30.38,-240 30.38,-228 30.38,-228 30.38,-222 36.38,-216 42.38,-216 42.38,-216 134.88,-216 134.88,-216 140.88,-216 146.88,-222 146.88,-228 146.88,-228 146.88,-240 146.88,-240 146.88,-246 140.88,-252 134.88,-252"/>
<text xml:space="preserve" text-anchor="middle" x="88.62" y="-235.2" font-family="Helvetica,sans-Serif" font-size="9.00">Construction Rate 42 BP</text>
<text xml:space="preserve" text-anchor="middle" x="88.62" y="-225.45" font-family="Helvetica,sans-Serif" font-size="9.00">300K RP</text>
</g>
<!-- Construction_Rate_36_BP&#45;&gt;Construction_Rate_42_BP -->
<g id="edge8" class="edge">
<title>Construction_Rate_36_BP&#45;&gt;Construction_Rate_42_BP</title>
<path fill="none" stroke="black" d="M88.62,-287.7C88.62,-279.22 88.62,-268.86 88.62,-259.58"/>
<polygon fill="black" stroke="black" points="90.73,-259.62 88.63,-253.62 86.53,-259.62 90.73,-259.62"/>
</g>
<!-- Construction_Rate_50_BP -->
<g id="node9" class="node">
<title>Construction_Rate_50_BP</title>
<path fill="#d4c4fb" stroke="black" d="M134.88,-180C134.88,-180 42.38,-180 42.38,-180 36.38,-180 30.38,-174 30.38,-168 30.38,-168 30.38,-156 30.38,-156 30.38,-150 36.38,-144 42.38,-144 42.38,-144 134.88,-144 134.88,-144 140.88,-144 146.88,-150 146.88,-156 146.88,-156 146.88,-168 146.88,-168 146.88,-174 140.88,-180 134.88,-180"/>
<text xml:space="preserve" text-anchor="middle" x="88.62" y="-163.2" font-family="Helvetica,sans-Serif" font-size="9.00">Construction Rate 50 BP</text>
<text xml:space="preserve" text-anchor="middle" x="88.62" y="-153.45" font-family="Helvetica,sans-Serif" font-size="9.00">600K RP</text>
</g>
<!-- Construction_Rate_42_BP&#45;&gt;Construction_Rate_50_BP -->
<g id="edge9" class="edge">
<title>Construction_Rate_42_BP&#45;&gt;Construction_Rate_50_BP</title>
<path fill="none" stroke="black" d="M88.62,-215.7C88.62,-207.22 88.62,-196.86 88.62,-187.58"/>
<polygon fill="black" stroke="black" points="90.73,-187.62 88.63,-181.62 86.53,-187.62 90.73,-187.62"/>
</g>
<!-- Construction_Rate_60_BP -->
<g id="node10" class="node">
<title>Construction_Rate_60_BP</title>
<path fill="#f8d7da" stroke="black" d="M134.88,-108C134.88,-108 42.38,-108 42.38,-108 36.38,-108 30.38,-102 30.38,-96 30.38,-96 30.38,-84 30.38,-84 30.38,-78 36.38,-72 42.38,-72 42.38,-72 134.88,-72 134.88,-72 140.88,-72 146.88,-78 146.88,-84 146.88,-84 146.88,-96 146.88,-96 146.88,-102 140.88,-108 134.88,-108"/>
<text xml:space="preserve" text-anchor="middle" x="88.62" y="-91.2" font-family="Helvetica,sans-Serif" font-size="9.00">Construction Rate 60 BP</text>
<text xml:space="preserve" text-anchor="middle" x="88.62" y="-81.45" font-family="Helvetica,sans-Serif" font-size="9.00">1.2M RP</text>
</g>
<!-- Construction_Rate_50_BP&#45;&gt;Construction_Rate_60_BP -->
<g id="edge10" class="edge">
<title>Construction_Rate_50_BP&#45;&gt;Construction_Rate_60_BP</title>
<path fill="none" stroke="black" d="M88.62,-143.7C88.62,-135.22 88.62,-124.86 88.62,-115.58"/>
<polygon fill="black" stroke="black" points="90.73,-115.62 88.63,-109.62 86.53,-115.62 90.73,-115.62"/>
</g>
<!-- Construction_Rate_70_BP -->
<g id="node11" class="node">
<title>Construction_Rate_70_BP</title>
<path fill="#f8d7da" stroke="black" d="M134.88,-36C134.88,-36 42.38,-36 42.38,-36 36.38,-36 30.38,-30 30.38,-24 30.38,-24 30.38,-12 30.38,-12 30.38,-6 36.38,0 42.38,0 42.38,0 134.88,0 134.88,0 140.88,0 146.88,-6 146.88,-12 146.88,-12 146.88,-24 146.88,-24 146.88,-30 140.88,-36 134.88,-36"/>
<text xml:space="preserve" text-anchor="middle" x="88.62" y="-19.2" font-family="Helvetica,sans-Serif" font-size="9.00">Construction Rate 70 BP</text>
<text xml:space="preserve" text-anchor="middle" x="88.62" y="-9.45" font-family="Helvetica,sans-Serif" font-size="9.00">2.5M RP</text>
</g>
<!-- Construction_Rate_60_BP&#45;&gt;Construction_Rate_70_BP -->
<g id="edge11" class="edge">
<title>Construction_Rate_60_BP&#45;&gt;Construction_Rate_70_BP</title>
<path fill="none" stroke="black" d="M88.62,-71.7C88.62,-63.22 88.62,-52.86 88.62,-43.58"/>
<polygon fill="black" stroke="black" points="90.73,-43.62 88.63,-37.62 86.53,-43.62 90.73,-43.62"/>
</g>
<!-- ext_Trans_Newtonian_Technology -->
<g id="node12" class="node">
<title>ext_Trans_Newtonian_Technology</title>
<path fill="#f0f0f0" stroke="black" stroke-dasharray="5,2" d="M144.62,-828C144.62,-828 32.62,-828 32.62,-828 26.62,-828 20.62,-822 20.62,-816 20.62,-816 20.62,-804 20.62,-804 20.62,-798 26.62,-792 32.62,-792 32.62,-792 144.62,-792 144.62,-792 150.62,-792 156.62,-798 156.62,-804 156.62,-804 156.62,-816 156.62,-816 156.62,-822 150.62,-828 144.62,-828"/>
<text xml:space="preserve" text-anchor="middle" x="88.62" y="-806.33" font-family="Helvetica,sans-Serif" font-size="9.00">Trans&#45;Newtonian Technology</text>
</g>
<!-- ext_Trans_Newtonian_Technology&#45;&gt;Construction_Rate_12_BP -->
<g id="edge1" class="edge">
<title>ext_Trans_Newtonian_Technology&#45;&gt;Construction_Rate_12_BP</title>
<path fill="none" stroke="black" d="M88.62,-791.7C88.62,-783.22 88.62,-772.86 88.62,-763.58"/>
<polygon fill="black" stroke="black" points="90.73,-763.62 88.63,-757.62 86.53,-763.62 90.73,-763.62"/>
</g>
</g>
</svg>
