<?xml version="1.0" encoding="UTF-8" standalone="no"?>
<!DOCTYPE svg PUBLIC "-//W3C//DTD SVG 1.1//EN"
 "http://www.w3.org/Graphics/SVG/1.1/DTD/svg11.dtd">
<!-- Generated by graphviz version 14.1.2 (20260124.0452)
 -->
<!-- Title: TechTree Pages: 1 -->
<svg width="192pt" height="717pt"
 viewBox="0.00 0.00 192.00 717.00" xmlns="http://www.w3.org/2000/svg" xmlns:xlink="http://www.w3.org/1999/xlink">
<g id="graph0" class="graph" transform="scale(1 1) rotate(0) translate(4 713)">
<title>TechTree</title>
<polygon fill="white" stroke="none" points="-4,4 -4,-713 188,-713 188,4 -4,4"/>
<text xml:space="preserve" text-anchor="middle" x="92" y="-691.7" font-family="Helvetica,sans-Serif" font-weight="bold" font-size="14.00">Improved Fuel Production</text>
<!-- Fuel_Production_48_000_Litres -->
<g id="node1" class="node">
<title>Fuel_Production_48_000_Litres</title>
<path fill="#cce5ff" stroke="black" d="M151.75,-686C151.75,-686 32.25,-686 32.25,-686 26.25,-686 20.25,-680 20.25,-674 20.25,-674 20.25,-662 20.25,-662 20.25,-656 26.25,-650 32.25,-650 32.25,-650 151.75,-650 151.75,-650 157.75,-650 163.75,-656 163.75,-662 163.75,-662 163.75,-674 163.75,-674 163.75,-680 157.75,-686 151.75,-686"/>
<text xml:space="preserve" text-anchor="middle" x="92" y="-669.75" font-family="Helvetica,sans-Serif" font-size="10.00">Fuel Production 48,000 Litres</text>
<text xml:space="preserve" text-anchor="middle" x="92" y="-658.5" font-family="Helvetica,sans-Serif" font-size="10.00">3K RP</text>
</g>
<!-- Fuel_Production_56_000_Litres -->
<g id="node2" class="node">
<title>Fuel_Production_56_000_Litres</title>
<path fill="#cce5ff" stroke="black" d="M151.75,-621C151.75,-621 32.25,-621 32.25,-621 26.25,-621 20.25,-615 20.25,-609 20.25,-609 20.25,-597 20.25,-597 20.25,-591 26.25,-585 32.25,-585 32.25,-585 151.75,-585 151.75,-585 157.75,-585 163.75,-591 163.75,-597 163.75,-597 163.75,-609 163.75,-609 163.75,-615 157.75,-621 151.75,-621"/>
<text xml:space="preserve" text-anchor="middle" x="92" y="-604.75" font-family="Helvetica,sans-Serif" font-size="10.00">Fuel Production 56,000 Litres</text>
<text xml:space="preserve" text-anchor="middle" x="92" y="-593.5" font-family="Helvetica,sans-Serif" font-size="10.00">5K RP</text>
</g>
<!-- Fuel_Production_48_000_Litres&#45;&gt;Fuel_Production_56_000_Litres -->
<g id="edge1" class="edge">
<title>Fuel_Production_48_000_Litres&#45;&gt;Fuel_Production_56_000_Litres</title>
<path fill="none" stroke="black" d="M92,-649.78C92,-643.53 92,-636.33 92,-629.52"/>
<polygon fill="black" stroke="black" points="94.45,-629.71 92,-622.71 89.55,-629.71 94.45,-629.71"/>
</g>
<!-- Fuel_Production_64_000_Litres -->
<g id="node3" class="node">
<title>Fuel_Production_64_000_Litres</title>
<path fill="#cce5ff" stroke="black" d="M151.75,-556C151.75,-556 32.25,-556 32.25,-556 26.25,-556 20.25,-550 20.25,-544 20.25,-544 20.25,-532 20.25,-532 20.25,-526 26.25,-520 32.25,-520 32.25,-520 151.75,-520 151.75,-520 157.75,-520 163.75,-526 163.75,-532 163.75,-532 163.75,-544 163.75,-544 163.75,-550 157.75,-556 151.75,-556"/>
<text xml:space="preserve" text-anchor="middle" x="92" y="-539.75" font-family="Helvetica,sans-Serif" font-size="10.00">Fuel Production 64,000 Litres</text>
<text xml:space="preserve" text-anchor="middle" x="92" y="-528.5" font-family="Helvetica,sans-Serif" font-size="10.00">10K RP</text>
</g>
<!-- Fuel_Production_56_000_Litres&#45;&gt;Fuel_Production_64_000_Litres -->
<g id="edge2" class="edge">
<title>Fuel_Production_56_000_Litres&#45;&gt;Fuel_Production_64_000_Litres</title>
<path fill="none" stroke="black" d="M92,-584.78C92,-578.53 92,-571.33 92,-564.52"/>
<polygon fill="black" stroke="black" points="94.45,-564.71 92,-557.71 89.55,-564.71 94.45,-564.71"/>
</g>
<!-- Fuel_Production_80_000_Litres -->
<g id="node4" class="node">
<title>Fuel_Production_80_000_Litres</title>
<path fill="#fff3cd" stroke="black" d="M151.75,-491C151.75,-491 32.25,-491 32.25,-491 26.25,-491 20.25,-485 20.25,-479 20.25,-479 20.25,-467 20.25,-467 20.25,-461 26.25,-455 32.25,-455 32.25,-455 151.75,-455 151.75,-455 157.75,-455 163.75,-461 163.75,-467 163.75,-467 163.75,-479 163.75,-479 163.75,-485 157.75,-491 151.75,-491"/>
<text xml:space="preserve" text-anchor="middle" x="92" y="-474.75" font-family="Helvetica,sans-Serif" font-size="10.00">Fuel Production 80,000 Litres</text>
<text xml:space="preserve" text-anchor="middle" x="92" y="-463.5" font-family="Helvetica,sans-Serif" font-size="10.00">20K RP</text>
</g>
<!-- Fuel_Production_64_000_Litres&#45;&gt;Fuel_Production_80_000_Litres -->
<g id="edge3" class="edge">
<title>Fuel_Production_64_000_Litres&#45;&gt;Fuel_Production_80_000_Litres</title>
<path fill="none" stroke="black" d="M92,-519.78C92,-513.53 92,-506.33 92,-499.52"/>
<polygon fill="black" stroke="black" points="94.45,-499.71 92,-492.71 89.55,-499.71 94.45,-499.71"/>
</g>
<!-- Fuel_Production_100_000_Litres -->
<g id="node5" class="node">
<title>Fuel_Production_100_000_Litres</title>
<path fill="#fff3cd" stroke="black" d="M154.38,-426C154.38,-426 29.63,-426 29.63,-426 23.62,-426 17.62,-420 17.62,-414 17.62,-414 17.62,-402 17.62,-402 17.62,-396 23.62,-390 29.62,-390 29.62,-390 154.38,-390 154.38,-390 160.38,-390 166.38,-396 166.38,-402 166.38,-402 166.38,-414 166.38,-414 166.38,-420 160.38,-426 154.38,-426"/>
<text xml:space="preserve" text-anchor="middle" x="92" y="-409.75" font-family="Helvetica,sans-Serif" font-size="10.00">Fuel Production 100,000 Litres</text>
<text xml:space="preserve" text-anchor="middle" x="92" y="-398.5" font-family="Helvetica,sans-Serif" font-size="10.00">40K RP</text>
</g>
<!-- Fuel_Production_80_000_Litres&#45;&gt;Fuel_Production_100_000_Litres -->
<g id="edge4" class="edge">
<title>Fuel_Production_80_000_Litres&#45;&gt;Fuel_Production_100_000_Litres</title>
<path fill="none" stroke="black" d="M92,-454.78C92,-448.53 92,-441.33 92,-434.52"/>
<polygon fill="black" stroke="black" points="94.45,-434.71 92,-427.71 89.55,-434.71 94.45,-434.71"/>
</g>
<!-- Fuel_Production_120_000_Litres -->
<g id="node6" class="node">
<title>Fuel_Production_120_000_Litres</title>
<path fill="#fff3cd" stroke="black" d="M154.38,-361C154.38,-361 29.63,-361 29.63,-361 23.62,-361 17.62,-355 17.62,-349 17.62,-349 17.62,-337 17.62,-337 17.62,-331 23.62,-325 29.62,-325 29.62,-325 154.38,-325 154.38,-325 160.38,-325 166.38,-331 166.38,-337 166.38,-337 166.38,-349 166.38,-349 166.38,-355 160.38,-361 154.38,-361"/>
<text xml:space="preserve" text-anchor="middle" x="92" y="-344.75" font-family="Helvetica,sans-Serif" font-size="10.00">Fuel Production 120,000 Litres</text>
<text xml:space="preserve" text-anchor="middle" x="92" y="-333.5" font-family="Helvetica,sans-Serif" font-size="10.00">80K RP</text>
</g>
<!-- Fuel_Production_100_000_Litres&#45;&gt;Fuel_Production_120_000_Litres -->
<g id="edge5" class="edge">
<title>Fuel_Production_100_000_Litres&#45;&gt;Fuel_Production_120_000_Litres</title>
<path fill="none" stroke="black" d="M92,-389.78C92,-383.53 92,-376.33 92,-369.52"/>
<polygon fill="black" stroke="black" points="94.45,-369.71 92,-362.71 89.55,-369.71 94.45,-369.71"/>
</g>
<!-- Fuel_Production_144_000_Litres -->
<g id="node7" class="node">
<title>Fuel_Production_144_000_Litres</title>
<path fill="#d4c4fb" stroke="black" d="M154.38,-296C154.38,-296 29.63,-296 29.63,-296 23.62,-296 17.62,-290 17.62,-284 17.62,-284 17.62,-272 17.62,-272 17.62,-266 23.62,-260 29.62,-260 29.62,-260 154.38,-260 154.38,-260 160.38,-260 166.38,-266 166.38,-272 166.38,-272 166.38,-284 166.38,-284 166.38,-290 160.38,-296 154.38,-296"/>
<text xml:space="preserve" text-anchor="middle" x="92" y="-279.75" font-family="Helvetica,sans-Serif" font-size="10.00">Fuel Production 144,000 Litres</text>
<text xml:space="preserve" text-anchor="middle" x="92" y="-268.5" font-family="Helvetica,sans-Serif" font-size="10.00">150K RP</text>
</g>
<!-- Fuel_Production_120_000_Litres&#45;&gt;Fuel_Production_144_000_Litres -->
<g id="edge6" class="edge">
<title>Fuel_Production_120_000_Litres&#45;&gt;Fuel_Production_144_000_Litres</title>
<path fill="none" stroke="black" d="M92,-324.78C92,-318.53 92,-311.33 92,-304.52"/>
<polygon fill="black" stroke="black" points="94.45,-304.71 92,-297.71 89.55,-304.71 94.45,-304.71"/>
</g>
<!-- Fuel_Production_168_000_Litres -->
<g id="node8" class="node">
<title>Fuel_Production_168_000_Litres</title>
<path fill="#d4c4fb" stroke="black" d="M154.38,-231C154.38,-231 29.63,-231 29.63,-231 23.62,-231 17.62,-225 17.62,-219 17.62,-219 17.62,-207 17.62,-207 17.62,-201 23.62,-195 29.62,-195 29.62,-195 154.38,-195 154.38,-195 160.38,-195 166.38,-201 166.38,-207 166.38,-207 166.38,-219 166.38,-219 166.38,-225 160.38,-231 154.38,-231"/>
<text xml:space="preserve" text-anchor="middle" x="92" y="-214.75" font-family="Helvetica,sans-Serif" font-size="10.00">Fuel Production 168,000 Litres</text>
<text xml:space="preserve" text-anchor="middle" x="92" y="-203.5" font-family="Helvetica,sans-Serif" font-size="10.00">300K RP</text>
</g>
<!-- Fuel_Production_144_000_Litres&#45;&gt;Fuel_Production_168_000_Litres -->
<g id="edge7" class="edge">
<title>Fuel_Production_144_000_Litres&#45;&gt;Fuel_Production_168_000_Litres</title>
<path fill="none" stroke="black" d="M92,-259.78C92,-253.53 92,-246.33 92,-239.52"/>
<polygon fill="black" stroke="black" points="94.45,-239.71 92,-232.71 89.55,-239.71 94.45,-239.71"/>
</g>
<!-- Fuel_Production_200_000_Litres -->
<g id="node9" class="node">
<title>Fuel_Production_200_000_Litres</title>
<path fill="#d4c4fb" stroke="black" d="M154.38,-166C154.38,-166 29.63,-166 29.63,-166 23.62,-166 17.62,-160 17.62,-154 17.62,-154 17.62,-142 17.62,-142 17.62,-136 23.62,-130 29.62,-130 29.62,-130 154.38,-130 154.38,-130 160.38,-130 166.38,-136 166.38,-142 166.38,-142 166.38,-154 166.38,-154 166.38,-160 160.38,-166 154.38,-166"/>
<text xml:space="preserve" text-anchor="middle" x="92" y="-149.75" font-family="Helvetica,sans-Serif" font-size="10.00">Fuel Production 200,000 Litres</text>
<text xml:space="preserve" text-anchor="middle" x="92" y="-138.5" font-family="Helvetica,sans-Serif" font-size="10.00">600K RP</text>
</g>
<!-- Fuel_Production_168_000_Litres&#45;&gt;Fuel_Production_200_000_Litres -->
<g id="edge8" class="edge">
<title>Fuel_Production_168_000_Litres&#45;&gt;Fuel_Production_200_000_Litres</title>
<path fill="none" stroke="black" d="M92,-194.78C92,-188.53 92,-181.33 92,-174.52"/>
<polygon fill="black" stroke="black" points="94.45,-174.71 92,-167.71 89.55,-174.71 94.45,-174.71"/>
</g>
<!-- Fuel_Production_240_000_Litres -->
<g id="node10" class="node">
<title>Fuel_Production_240_000_Litres</title>
<path fill="#f8d7da" stroke="black" d="M154.38,-101C154.38,-101 29.63,-101 29.63,-101 23.62,-101 17.62,-95 17.62,-89 17.62,-89 17.62,-77 17.62,-77 17.62,-71 23.62,-65 29.62,-65 29.62,-65 154.38,-65 154.38,-65 160.38,-65 166.38,-71 166.38,-77 166.38,-77 166.38,-89 166.38,-89 166.38,-95 160.38,-101 154.38,-101"/>
<text xml:space="preserve" text-anchor="middle" x="92" y="-84.75" font-family="Helvetica,sans-Serif" font-size="10.00">Fuel Production 240,000 Litres</text>
<text xml:space="preserve" text-anchor="middle" x="92" y="-73.5" font-family="Helvetica,sans-Serif" font-size="10.00">1.2M RP</text>
</g>
<!-- Fuel_Production_200_000_Litres&#45;&gt;Fuel_Production_240_000_Litres -->
<g id="edge9" class="edge">
<title>Fuel_Production_200_000_Litres&#45;&gt;Fuel_Production_240_000_Litres</title>
<path fill="none" stroke="black" d="M92,-129.78C92,-123.53 92,-116.33 92,-109.52"/>
<polygon fill="black" stroke="black" points="94.45,-109.71 92,-102.71 89.55,-109.71 94.45,-109.71"/>
</g>
<!-- Fuel_Production_280_000_Litres -->
<g id="node11" class="node">
<title>Fuel_Production_280_000_Litres</title>
<path fill="#f8d7da" stroke="black" d="M154.38,-36C154.38,-36 29.63,-36 29.63,-36 23.62,-36 17.62,-30 17.62,-24 17.62,-24 17.62,-12 17.62,-12 17.62,-6 23.62,0 29.62,0 29.62,0 154.38,0 154.38,0 160.38,0 166.38,-6 166.38,-12 166.38,-12 166.38,-24 166.38,-24 166.38,-30 160.38,-36 154.38,-36"/>
<text xml:space="preserve" text-anchor="middle" x="92" y="-19.75" font-family="Helvetica,sans-Serif" font-size="10.00">Fuel Production 280,000 Litres</text>
<text xml:space="preserve" text-anchor="middle" x="92" y="-8.5" font-family="Helvetica,sans-Serif" font-size="10.00">2.5M RP</text>
</g>
<!-- Fuel_Production_240_000_Litres&#45;&gt;Fuel_Production_280_000_Litres -->
<g id="edge10" class="edge">
<title>Fuel_Production_240_000_Litres&#45;&gt;Fuel_Production_280_000_Litres</title>
<path fill="none" stroke="black" d="M92,-64.78C92,-58.53 92,-51.33 92,-44.52"/>
<polygon fill="black" stroke="black" points="94.45,-44.71 92,-37.71 89.55,-44.71 94.45,-44.71"/>
</g>
</g>
</svg>
