<?xml version="1.0" encoding="UTF-8" standalone="no"?>
<!DOCTYPE svg PUBLIC "-//W3C//DTD SVG 1.1//EN"
 "http://www.w3.org/Graphics/SVG/1.1/DTD/svg11.dtd">
<!-- Generated by graphviz version 14.1.2 (20260124.0452)
 -->
<!-- Title: TechTree Pages: 1 -->
<svg width="228pt" height="717pt"
 viewBox="0.00 0.00 228.00 717.00" xmlns="http://www.w3.org/2000/svg" xmlns:xlink="http://www.w3.org/1999/xlink">
<g id="graph0" class="graph" transform="scale(1 1) rotate(0) translate(4 713)">
<title>TechTree</title>
<polygon fill="white" stroke="none" points="-4,4 -4,-713 224,-713 224,4 -4,4"/>
<text xml:space="preserve" text-anchor="middle" x="110" y="-691.7" font-family="Helvetica,sans-Serif" font-weight="bold" font-size="14.00">Improved Ordnance Production</text>
<!-- Ordnance_Production_12_BP -->
<g id="node1" class="node">
<title>Ordnance_Production_12_BP</title>
<path fill="#cce5ff" stroke="black" d="M166.75,-686C166.75,-686 53.25,-686 53.25,-686 47.25,-686 41.25,-680 41.25,-674 41.25,-674 41.25,-662 41.25,-662 41.25,-656 47.25,-650 53.25,-650 53.25,-650 166.75,-650 166.75,-650 172.75,-650 178.75,-656 178.75,-662 178.75,-662 178.75,-674 178.75,-674 178.75,-680 172.75,-686 166.75,-686"/>
<text xml:space="preserve" text-anchor="middle" x="110" y="-669.75" font-family="Helvetica,sans-Serif" font-size="10.00">Ordnance Production 12 BP</text>
<text xml:space="preserve" text-anchor="middle" x="110" y="-658.5" font-family="Helvetica,sans-Serif" font-size="10.00">3K RP</text>
</g>
<!-- Ordnance_Production_14_BP -->
<g id="node2" class="node">
<title>Ordnance_Production_14_BP</title>
<path fill="#cce5ff" stroke="black" d="M166.75,-621C166.75,-621 53.25,-621 53.25,-621 47.25,-621 41.25,-615 41.25,-609 41.25,-609 41.25,-597 41.25,-597 41.25,-591 47.25,-585 53.25,-585 53.25,-585 166.75,-585 166.75,-585 172.75,-585 178.75,-591 178.75,-597 178.75,-597 178.75,-609 178.75,-609 178.75,-615 172.75,-621 166.75,-621"/>
<text xml:space="preserve" text-anchor="middle" x="110" y="-604.75" font-family="Helvetica,sans-Serif" font-size="10.00">Ordnance Production 14 BP</text>
<text xml:space="preserve" text-anchor="middle" x="110" y="-593.5" font-family="Helvetica,sans-Serif" font-size="10.00">5K RP</text>
</g>
<!-- Ordnance_Production_12_BP&#45;&gt;Ordnance_Production_14_BP -->
<g id="edge1" class="edge">
<title>Ordnance_Production_12_BP&#45;&gt;Ordnance_Production_14_BP</title>
<path fill="none" stroke="black" d="M110,-649.78C110,-643.53 110,-636.33 110,-629.52"/>
<polygon fill="black" stroke="black" points="112.45,-629.71 110,-622.71 107.55,-629.71 112.45,-629.71"/>
</g>
<!-- Ordnance_Production_16_BP -->
<g id="node3" class="node">
<title>Ordnance_Production_16_BP</title>
<path fill="#cce5ff" stroke="black" d="M166.75,-556C166.75,-556 53.25,-556 53.25,-556 47.25,-556 41.25,-550 41.25,-544 41.25,-544 41.25,-532 41.25,-532 41.25,-526 47.25,-520 53.25,-520 53.25,-520 166.75,-520 166.75,-520 172.75,-520 178.75,-526 178.75,-532 178.75,-532 178.75,-544 178.75,-544 178.75,-550 172.75,-556 166.75,-556"/>
<text xml:space="preserve" text-anchor="middle" x="110" y="-539.75" font-family="Helvetica,sans-Serif" font-size="10.00">Ordnance Production 16 BP</text>
<text xml:space="preserve" text-anchor="middle" x="110" y="-528.5" font-family="Helvetica,sans-Serif" font-size="10.00">10K RP</text>
</g>
<!-- Ordnance_Production_14_BP&#45;&gt;Ordnance_Production_16_BP -->
<g id="edge2" class="edge">
<title>Ordnance_Production_14_BP&#45;&gt;Ordnance_Production_16_BP</title>
<path fill="none" stroke="black" d="M110,-584.78C110,-578.53 110,-571.33 110,-564.52"/>
<polygon fill="black" stroke="black" points="112.45,-564.71 110,-557.71 107.55,-564.71 112.45,-564.71"/>
</g>
<!-- Ordnance_Production_20_BP -->
<g id="node4" class="node">
<title>Ordnance_Production_20_BP</title>
<path fill="#fff3cd" stroke="black" d="M166.75,-491C166.75,-491 53.25,-491 53.25,-491 47.25,-491 41.25,-485 41.25,-479 41.25,-479 41.25,-467 41.25,-467 41.25,-461 47.25,-455 53.25,-455 53.25,-455 166.75,-455 166.75,-455 172.75,-455 178.75,-461 178.75,-467 178.75,-467 178.75,-479 178.75,-479 178.75,-485 172.75,-491 166.75,-491"/>
<text xml:space="preserve" text-anchor="middle" x="110" y="-474.75" font-family="Helvetica,sans-Serif" font-size="10.00">Ordnance Production 20 BP</text>
<text xml:space="preserve" text-anchor="middle" x="110" y="-463.5" font-family="Helvetica,sans-Serif" font-size="10.00">20K RP</text>
</g>
<!-- Ordnance_Production_16_BP&#45;&gt;Ordnance_Production_20_BP -->
<g id="edge3" class="edge">
<title>Ordnance_Production_16_BP&#45;&gt;Ordnance_Production_20_BP</title>
<path fill="none" stroke="black" d="M110,-519.78C110,-513.53 110,-506.33 110,-499.52"/>
<polygon fill="black" stroke="black" points="112.45,-499.71 110,-492.71 107.55,-499.71 112.45,-499.71"/>
</g>
<!-- Ordnance_Production_25_BP -->
<g id="node5" class="node">
<title>Ordnance_Production_25_BP</title>
<path fill="#fff3cd" stroke="black" d="M166.75,-426C166.75,-426 53.25,-426 53.25,-426 47.25,-426 41.25,-420 41.25,-414 41.25,-414 41.25,-402 41.25,-402 41.25,-396 47.25,-390 53.25,-390 53.25,-390 166.75,-390 166.75,-390 172.75,-390 178.75,-396 178.75,-402 178.75,-402 178.75,-414 178.75,-414 178.75,-420 172.75,-426 166.75,-426"/>
<text xml:space="preserve" text-anchor="middle" x="110" y="-409.75" font-family="Helvetica,sans-Serif" font-size="10.00">Ordnance Production 25 BP</text>
<text xml:space="preserve" text-anchor="middle" x="110" y="-398.5" font-family="Helvetica,sans-Serif" font-size="10.00">40K RP</text>
</g>
<!-- Ordnance_Production_20_BP&#45;&gt;Ordnance_Production_25_BP -->
<g id="edge4" class="edge">
<title>Ordnance_Production_20_BP&#45;&gt;Ordnance_Production_25_BP</title>
<path fill="none" stroke="black" d="M110,-454.78C110,-448.53 110,-441.33 110,-434.52"/>
<polygon fill="black" stroke="black" points="112.45,-434.71 110,-427.71 107.55,-434.71 112.45,-434.71"/>
</g>
<!-- Ordnance_Production_30_BP -->
<g id="node6" class="node">
<title>Ordnance_Production_30_BP</title>
<path fill="#fff3cd" stroke="black" d="M166.75,-361C166.75,-361 53.25,-361 53.25,-361 47.25,-361 41.25,-355 41.25,-349 41.25,-349 41.25,-337 41.25,-337 41.25,-331 47.25,-325 53.25,-325 53.25,-325 166.75,-325 166.75,-325 172.75,-325 178.75,-331 178.75,-337 178.75,-337 178.75,-349 178.75,-349 178.75,-355 172.75,-361 166.75,-361"/>
<text xml:space="preserve" text-anchor="middle" x="110" y="-344.75" font-family="Helvetica,sans-Serif" font-size="10.00">Ordnance Production 30 BP</text>
<text xml:space="preserve" text-anchor="middle" x="110" y="-333.5" font-family="Helvetica,sans-Serif" font-size="10.00">80K RP</text>
</g>
<!-- Ordnance_Production_25_BP&#45;&gt;Ordnance_Production_30_BP -->
<g id="edge5" class="edge">
<title>Ordnance_Production_25_BP&#45;&gt;Ordnance_Production_30_BP</title>
<path fill="none" stroke="black" d="M110,-389.78C110,-383.53 110,-376.33 110,-369.52"/>
<polygon fill="black" stroke="black" points="112.45,-369.71 110,-362.71 107.55,-369.71 112.45,-369.71"/>
</g>
<!-- Ordnance_Production_35_BP -->
<g id="node7" class="node">
<title>Ordnance_Production_35_BP</title>
<path fill="#d4c4fb" stroke="black" d="M166.75,-296C166.75,-296 53.25,-296 53.25,-296 47.25,-296 41.25,-290 41.25,-284 41.25,-284 41.25,-272 41.25,-272 41.25,-266 47.25,-260 53.25,-260 53.25,-260 166.75,-260 166.75,-260 172.75,-260 178.75,-266 178.75,-272 178.75,-272 178.75,-284 178.75,-284 178.75,-290 172.75,-296 166.75,-296"/>
<text xml:space="preserve" text-anchor="middle" x="110" y="-279.75" font-family="Helvetica,sans-Serif" font-size="10.00">Ordnance Production 35 BP</text>
<text xml:space="preserve" text-anchor="middle" x="110" y="-268.5" font-family="Helvetica,sans-Serif" font-size="10.00">150K RP</text>
</g>
<!-- Ordnance_Production_30_BP&#45;&gt;Ordnance_Production_35_BP -->
<g id="edge6" class="edge">
<title>Ordnance_Production_30_BP&#45;&gt;Ordnance_Production_35_BP</title>
<path fill="none" stroke="black" d="M110,-324.78C110,-318.53 110,-311.33 110,-304.52"/>
<polygon fill="black" stroke="black" points="112.45,-304.71 110,-297.71 107.55,-304.71 112.45,-304.71"/>
</g>
<!-- Ordnance_Production_40_BP -->
<g id="node8" class="node">
<title>Ordnance_Production_40_BP</title>
<path fill="#d4c4fb" stroke="black" d="M166.75,-231C166.75,-231 53.25,-231 53.25,-231 47.25,-231 41.25,-225 41.25,-219 41.25,-219 41.25,-207 41.25,-207 41.25,-201 47.25,-195 53.25,-195 53.25,-195 166.75,-195 166.75,-195 172.75,-195 178.75,-201 178.75,-207 178.75,-207 178.75,-219 178.75,-219 178.75,-225 172.75,-231 166.75,-231"/>
<text xml:space="preserve" text-anchor="middle" x="110" y="-214.75" font-family="Helvetica,sans-Serif" font-size="10.00">Ordnance Production 40 BP</text>
<text xml:space="preserve" text-anchor="middle" x="110" y="-203.5" font-family="Helvetica,sans-Serif" font-size="10.00">300K RP</text>
</g>
<!-- Ordnance_Production_35_BP&#45;&gt;Ordnance_Production_40_BP -->
<g id="edge7" class="edge">
<title>Ordnance_Production_35_BP&#45;&gt;Ordnance_Production_40_BP</title>
<path fill="none" stroke="black" d="M110,-259.78C110,-253.53 110,-246.33 110,-239.52"/>
<polygon fill="black" stroke="black" points="112.45,-239.71 110,-232.71 107.55,-239.71 112.45,-239.71"/>
</g>
<!-- Ordnance_Production_50_BP -->
<g id="node9" class="node">
<title>Ordnance_Production_50_BP</title>
<path fill="#d4c4fb" stroke="black" d="M166.75,-166C166.75,-166 53.25,-166 53.25,-166 47.25,-166 41.25,-160 41.25,-154 41.25,-154 41.25,-142 41.25,-142 41.25,-136 47.25,-130 53.25,-130 53.25,-130 166.75,-130 166.75,-130 172.75,-130 178.75,-136 178.75,-142 178.75,-142 178.75,-154 178.75,-154 178.75,-160 172.75,-166 166.75,-166"/>
<text xml:space="preserve" text-anchor="middle" x="110" y="-149.75" font-family="Helvetica,sans-Serif" font-size="10.00">Ordnance Production 50 BP</text>
<text xml:space="preserve" text-anchor="middle" x="110" y="-138.5" font-family="Helvetica,sans-Serif" font-size="10.00">600K RP</text>
</g>
<!-- Ordnance_Production_40_BP&#45;&gt;Ordnance_Production_50_BP -->
<g id="edge8" class="edge">
<title>Ordnance_Production_40_BP&#45;&gt;Ordnance_Production_50_BP</title>
<path fill="none" stroke="black" d="M110,-194.78C110,-188.53 110,-181.33 110,-174.52"/>
<polygon fill="black" stroke="black" points="112.45,-174.71 110,-167.71 107.55,-174.71 112.45,-174.71"/>
</g>
<!-- Ordnance_Production_60_BP -->
<g id="node10" class="node">
<title>Ordnance_Production_60_BP</title>
<path fill="#f8d7da" stroke="black" d="M166.75,-101C166.75,-101 53.25,-101 53.25,-101 47.25,-101 41.25,-95 41.25,-89 41.25,-89 41.25,-77 41.25,-77 41.25,-71 47.25,-65 53.25,-65 53.25,-65 166.75,-65 166.75,-65 172.75,-65 178.75,-71 178.75,-77 178.75,-77 178.75,-89 178.75,-89 178.75,-95 172.75,-101 166.75,-101"/>
<text xml:space="preserve" text-anchor="middle" x="110" y="-84.75" font-family="Helvetica,sans-Serif" font-size="10.00">Ordnance Production 60 BP</text>
<text xml:space="preserve" text-anchor="middle" x="110" y="-73.5" font-family="Helvetica,sans-Serif" font-size="10.00">1.2M RP</text>
</g>
<!-- Ordnance_Production_50_BP&#45;&gt;Ordnance_Production_60_BP -->
<g id="edge9" class="edge">
<title>Ordnance_Production_50_BP&#45;&gt;Ordnance_Production_60_BP</title>
<path fill="none" stroke="black" d="M110,-129.78C110,-123.53 110,-116.33 110,-109.52"/>
<polygon fill="black" stroke="black" points="112.45,-109.71 110,-102.71 107.55,-109.71 112.45,-109.71"/>
</g>
<!-- Ordnance_Production_70_BP -->
<g id="node11" class="node">
<title>Ordnance_Production_70_BP</title>
<path fill="#f8d7da" stroke="black" d="M166.75,-36C166.75,-36 53.25,-36 53.25,-36 47.25,-36 41.25,-30 41.25,-24 41.25,-24 41.25,-12 41.25,-12 41.25,-6 47.25,0 53.25,0 53.25,0 166.75,0 166.75,0 172.75,0 178.75,-6 178.75,-12 178.75,-12 178.75,-24 178.75,-24 178.75,-30 172.75,-36 166.75,-36"/>
<text xml:space="preserve" text-anchor="middle" x="110" y="-19.75" font-family="Helvetica,sans-Serif" font-size="10.00">Ordnance Production 70 BP</text>
<text xml:space="preserve" text-anchor="middle" x="110" y="-8.5" font-family="Helvetica,sans-Serif" font-size="10.00">2.5M RP</text>
</g>
<!-- Ordnance_Production_60_BP&#45;&gt;Ordnance_Production_70_BP -->
<g id="edge10" class="edge">
<title>Ordnance_Production_60_BP&#45;&gt;Ordnance_Production_70_BP</title>
<path fill="none" stroke="black" d="M110,-64.78C110,-58.53 110,-51.33 110,-44.52"/>
<polygon fill="black" stroke="black" points="112.45,-44.71 110,-37.71 107.55,-44.71 112.45,-44.71"/>
</g>
</g>
</svg>
