<?xml version="1.0" encoding="UTF-8" standalone="no"?>
<!DOCTYPE svg PUBLIC "-//W3C//DTD SVG 1.1//EN"
 "http://www.w3.org/Graphics/SVG/1.1/DTD/svg11.dtd">
<!-- Generated by graphviz version 14.1.2 (20260124.0452)
 -->
<!-- Title: TechTree Pages: 1 -->
<svg width="183pt" height="717pt"
 viewBox="0.00 0.00 183.00 717.00" xmlns="http://www.w3.org/2000/svg" xmlns:xlink="http://www.w3.org/1999/xlink">
<g id="graph0" class="graph" transform="scale(1 1) rotate(0) translate(4 713)">
<title>TechTree</title>
<polygon fill="white" stroke="none" points="-4,4 -4,-713 179,-713 179,4 -4,4"/>
<text xml:space="preserve" text-anchor="middle" x="87.5" y="-691.7" font-family="Helvetica,sans-Serif" font-weight="bold" font-size="14.00">Improved Research Rate</text>
<!-- Research_Rate_240_RP -->
<g id="node1" class="node">
<title>Research_Rate_240_RP</title>
<path fill="#cce5ff" stroke="black" d="M134.5,-686C134.5,-686 40.5,-686 40.5,-686 34.5,-686 28.5,-680 28.5,-674 28.5,-674 28.5,-662 28.5,-662 28.5,-656 34.5,-650 40.5,-650 40.5,-650 134.5,-650 134.5,-650 140.5,-650 146.5,-656 146.5,-662 146.5,-662 146.5,-674 146.5,-674 146.5,-680 140.5,-686 134.5,-686"/>
<text xml:space="preserve" text-anchor="middle" x="87.5" y="-669.75" font-family="Helvetica,sans-Serif" font-size="10.00">Research Rate 240 RP</text>
<text xml:space="preserve" text-anchor="middle" x="87.5" y="-658.5" font-family="Helvetica,sans-Serif" font-size="10.00">5K RP</text>
</g>
<!-- Research_Rate_280_RP -->
<g id="node2" class="node">
<title>Research_Rate_280_RP</title>
<path fill="#cce5ff" stroke="black" d="M134.5,-621C134.5,-621 40.5,-621 40.5,-621 34.5,-621 28.5,-615 28.5,-609 28.5,-609 28.5,-597 28.5,-597 28.5,-591 34.5,-585 40.5,-585 40.5,-585 134.5,-585 134.5,-585 140.5,-585 146.5,-591 146.5,-597 146.5,-597 146.5,-609 146.5,-609 146.5,-615 140.5,-621 134.5,-621"/>
<text xml:space="preserve" text-anchor="middle" x="87.5" y="-604.75" font-family="Helvetica,sans-Serif" font-size="10.00">Research Rate 280 RP</text>
<text xml:space="preserve" text-anchor="middle" x="87.5" y="-593.5" font-family="Helvetica,sans-Serif" font-size="10.00">10K RP</text>
</g>
<!-- Research_Rate_240_RP&#45;&gt;Research_Rate_280_RP -->
<g id="edge1" class="edge">
<title>Research_Rate_240_RP&#45;&gt;Research_Rate_280_RP</title>
<path fill="none" stroke="black" d="M87.5,-649.78C87.5,-643.53 87.5,-636.33 87.5,-629.52"/>
<polygon fill="black" stroke="black" points="89.95,-629.71 87.5,-622.71 85.05,-629.71 89.95,-629.71"/>
</g>
<!-- Research_Rate_320_RP -->
<g id="node3" class="node">
<title>Research_Rate_320_RP</title>
<path fill="#fff3cd" stroke="black" d="M134.5,-556C134.5,-556 40.5,-556 40.5,-556 34.5,-556 28.5,-550 28.5,-544 28.5,-544 28.5,-532 28.5,-532 28.5,-526 34.5,-520 40.5,-520 40.5,-520 134.5,-520 134.5,-520 140.5,-520 146.5,-526 146.5,-532 146.5,-532 146.5,-544 146.5,-544 146.5,-550 140.5,-556 134.5,-556"/>
<text xml:space="preserve" text-anchor="middle" x="87.5" y="-539.75" font-family="Helvetica,sans-Serif" font-size="10.00">Research Rate 320 RP</text>
<text xml:space="preserve" text-anchor="middle" x="87.5" y="-528.5" font-family="Helvetica,sans-Serif" font-size="10.00">20K RP</text>
</g>
<!-- Research_Rate_280_RP&#45;&gt;Research_Rate_320_RP -->
<g id="edge2" class="edge">
<title>Research_Rate_280_RP&#45;&gt;Research_Rate_320_RP</title>
<path fill="none" stroke="black" d="M87.5,-584.78C87.5,-578.53 87.5,-571.33 87.5,-564.52"/>
<polygon fill="black" stroke="black" points="89.95,-564.71 87.5,-557.71 85.05,-564.71 89.95,-564.71"/>
</g>
<!-- Research_Rate_400_RP -->
<g id="node4" class="node">
<title>Research_Rate_400_RP</title>
<path fill="#fff3cd" stroke="black" d="M134.5,-491C134.5,-491 40.5,-491 40.5,-491 34.5,-491 28.5,-485 28.5,-479 28.5,-479 28.5,-467 28.5,-467 28.5,-461 34.5,-455 40.5,-455 40.5,-455 134.5,-455 134.5,-455 140.5,-455 146.5,-461 146.5,-467 146.5,-467 146.5,-479 146.5,-479 146.5,-485 140.5,-491 134.5,-491"/>
<text xml:space="preserve" text-anchor="middle" x="87.5" y="-474.75" font-family="Helvetica,sans-Serif" font-size="10.00">Research Rate 400 RP</text>
<text xml:space="preserve" text-anchor="middle" x="87.5" y="-463.5" font-family="Helvetica,sans-Serif" font-size="10.00">40K RP</text>
</g>
<!-- Research_Rate_320_RP&#45;&gt;Research_Rate_400_RP -->
<g id="edge3" class="edge">
<title>Research_Rate_320_RP&#45;&gt;Research_Rate_400_RP</title>
<path fill="none" stroke="black" d="M87.5,-519.78C87.5,-513.53 87.5,-506.33 87.5,-499.52"/>
<polygon fill="black" stroke="black" points="89.95,-499.71 87.5,-492.71 85.05,-499.71 89.95,-499.71"/>
</g>
<!-- Research_Rate_500_RP -->
<g id="node5" class="node">
<title>Research_Rate_500_RP</title>
<path fill="#fff3cd" stroke="black" d="M134.5,-426C134.5,-426 40.5,-426 40.5,-426 34.5,-426 28.5,-420 28.5,-414 28.5,-414 28.5,-402 28.5,-402 28.5,-396 34.5,-390 40.5,-390 40.5,-390 134.5,-390 134.5,-390 140.5,-390 146.5,-396 146.5,-402 146.5,-402 146.5,-414 146.5,-414 146.5,-420 140.5,-426 134.5,-426"/>
<text xml:space="preserve" text-anchor="middle" x="87.5" y="-409.75" font-family="Helvetica,sans-Serif" font-size="10.00">Research Rate 500 RP</text>
<text xml:space="preserve" text-anchor="middle" x="87.5" y="-398.5" font-family="Helvetica,sans-Serif" font-size="10.00">80K RP</text>
</g>
<!-- Research_Rate_400_RP&#45;&gt;Research_Rate_500_RP -->
<g id="edge4" class="edge">
<title>Research_Rate_400_RP&#45;&gt;Research_Rate_500_RP</title>
<path fill="none" stroke="black" d="M87.5,-454.78C87.5,-448.53 87.5,-441.33 87.5,-434.52"/>
<polygon fill="black" stroke="black" points="89.95,-434.71 87.5,-427.71 85.05,-434.71 89.95,-434.71"/>
</g>
<!-- Research_Rate_600_RP -->
<g id="node6" class="node">
<title>Research_Rate_600_RP</title>
<path fill="#d4c4fb" stroke="black" d="M134.5,-361C134.5,-361 40.5,-361 40.5,-361 34.5,-361 28.5,-355 28.5,-349 28.5,-349 28.5,-337 28.5,-337 28.5,-331 34.5,-325 40.5,-325 40.5,-325 134.5,-325 134.5,-325 140.5,-325 146.5,-331 146.5,-337 146.5,-337 146.5,-349 146.5,-349 146.5,-355 140.5,-361 134.5,-361"/>
<text xml:space="preserve" text-anchor="middle" x="87.5" y="-344.75" font-family="Helvetica,sans-Serif" font-size="10.00">Research Rate 600 RP</text>
<text xml:space="preserve" text-anchor="middle" x="87.5" y="-333.5" font-family="Helvetica,sans-Serif" font-size="10.00">150K RP</text>
</g>
<!-- Research_Rate_500_RP&#45;&gt;Research_Rate_600_RP -->
<g id="edge5" class="edge">
<title>Research_Rate_500_RP&#45;&gt;Research_Rate_600_RP</title>
<path fill="none" stroke="black" d="M87.5,-389.78C87.5,-383.53 87.5,-376.33 87.5,-369.52"/>
<polygon fill="black" stroke="black" points="89.95,-369.71 87.5,-362.71 85.05,-369.71 89.95,-369.71"/>
</g>
<!-- Research_Rate_720_RP -->
<g id="node7" class="node">
<title>Research_Rate_720_RP</title>
<path fill="#d4c4fb" stroke="black" d="M134.5,-296C134.5,-296 40.5,-296 40.5,-296 34.5,-296 28.5,-290 28.5,-284 28.5,-284 28.5,-272 28.5,-272 28.5,-266 34.5,-260 40.5,-260 40.5,-260 134.5,-260 134.5,-260 140.5,-260 146.5,-266 146.5,-272 146.5,-272 146.5,-284 146.5,-284 146.5,-290 140.5,-296 134.5,-296"/>
<text xml:space="preserve" text-anchor="middle" x="87.5" y="-279.75" font-family="Helvetica,sans-Serif" font-size="10.00">Research Rate 720 RP</text>
<text xml:space="preserve" text-anchor="middle" x="87.5" y="-268.5" font-family="Helvetica,sans-Serif" font-size="10.00">300K RP</text>
</g>
<!-- Research_Rate_600_RP&#45;&gt;Research_Rate_720_RP -->
<g id="edge6" class="edge">
<title>Research_Rate_600_RP&#45;&gt;Research_Rate_720_RP</title>
<path fill="none" stroke="black" d="M87.5,-324.78C87.5,-318.53 87.5,-311.33 87.5,-304.52"/>
<polygon fill="black" stroke="black" points="89.95,-304.71 87.5,-297.71 85.05,-304.71 89.95,-304.71"/>
</g>
<!-- Research_Rate_840_RP -->
<g id="node8" class="node">
<title>Research_Rate_840_RP</title>
<path fill="#d4c4fb" stroke="black" d="M134.5,-231C134.5,-231 40.5,-231 40.5,-231 34.5,-231 28.5,-225 28.5,-219 28.5,-219 28.5,-207 28.5,-207 28.5,-201 34.5,-195 40.5,-195 40.5,-195 134.5,-195 134.5,-195 140.5,-195 146.5,-201 146.5,-207 146.5,-207 146.5,-219 146.5,-219 146.5,-225 140.5,-231 134.5,-231"/>
<text xml:space="preserve" text-anchor="middle" x="87.5" y="-214.75" font-family="Helvetica,sans-Serif" font-size="10.00">Research Rate 840 RP</text>
<text xml:space="preserve" text-anchor="middle" x="87.5" y="-203.5" font-family="Helvetica,sans-Serif" font-size="10.00">600K RP</text>
</g>
<!-- Research_Rate_720_RP&#45;&gt;Research_Rate_840_RP -->
<g id="edge7" class="edge">
<title>Research_Rate_720_RP&#45;&gt;Research_Rate_840_RP</title>
<path fill="none" stroke="black" d="M87.5,-259.78C87.5,-253.53 87.5,-246.33 87.5,-239.52"/>
<polygon fill="black" stroke="black" points="89.95,-239.71 87.5,-232.71 85.05,-239.71 89.95,-239.71"/>
</g>
<!-- Research_Rate_1000_RP -->
<g id="node9" class="node">
<title>Research_Rate_1000_RP</title>
<path fill="#f8d7da" stroke="black" d="M137.12,-166C137.12,-166 37.88,-166 37.88,-166 31.88,-166 25.88,-160 25.88,-154 25.88,-154 25.88,-142 25.88,-142 25.88,-136 31.88,-130 37.88,-130 37.88,-130 137.12,-130 137.12,-130 143.12,-130 149.12,-136 149.12,-142 149.12,-142 149.12,-154 149.12,-154 149.12,-160 143.12,-166 137.12,-166"/>
<text xml:space="preserve" text-anchor="middle" x="87.5" y="-149.75" font-family="Helvetica,sans-Serif" font-size="10.00">Research Rate 1000 RP</text>
<text xml:space="preserve" text-anchor="middle" x="87.5" y="-138.5" font-family="Helvetica,sans-Serif" font-size="10.00">1.2M RP</text>
</g>
<!-- Research_Rate_840_RP&#45;&gt;Research_Rate_1000_RP -->
<g id="edge8" class="edge">
<title>Research_Rate_840_RP&#45;&gt;Research_Rate_1000_RP</title>
<path fill="none" stroke="black" d="M87.5,-194.78C87.5,-188.53 87.5,-181.33 87.5,-174.52"/>
<polygon fill="black" stroke="black" points="89.95,-174.71 87.5,-167.71 85.05,-174.71 89.95,-174.71"/>
</g>
<!-- Research_Rate_1200_RP -->
<g id="node10" class="node">
<title>Research_Rate_1200_RP</title>
<path fill="#f8d7da" stroke="black" d="M137.12,-101C137.12,-101 37.88,-101 37.88,-101 31.88,-101 25.88,-95 25.88,-89 25.88,-89 25.88,-77 25.88,-77 25.88,-71 31.88,-65 37.88,-65 37.88,-65 137.12,-65 137.12,-65 143.12,-65 149.12,-71 149.12,-77 149.12,-77 149.12,-89 149.12,-89 149.12,-95 143.12,-101 137.12,-101"/>
<text xml:space="preserve" text-anchor="middle" x="87.5" y="-84.75" font-family="Helvetica,sans-Serif" font-size="10.00">Research Rate 1200 RP</text>
<text xml:space="preserve" text-anchor="middle" x="87.5" y="-73.5" font-family="Helvetica,sans-Serif" font-size="10.00">2.5M RP</text>
</g>
<!-- Research_Rate_1000_RP&#45;&gt;Research_Rate_1200_RP -->
<g id="edge9" class="edge">
<title>Research_Rate_1000_RP&#45;&gt;Research_Rate_1200_RP</title>
<path fill="none" stroke="black" d="M87.5,-129.78C87.5,-123.53 87.5,-116.33 87.5,-109.52"/>
<polygon fill="black" stroke="black" points="89.95,-109.71 87.5,-102.71 85.05,-109.71 89.95,-109.71"/>
</g>
<!-- Research_Rate_1500_RP -->
<g id="node11" class="node">
<title>Research_Rate_1500_RP</title>
<path fill="#f8d7da" stroke="black" d="M137.12,-36C137.12,-36 37.88,-36 37.88,-36 31.88,-36 25.88,-30 25.88,-24 25.88,-24 25.88,-12 25.88,-12 25.88,-6 31.88,0 37.88,0 37.88,0 137.12,0 137.12,0 143.12,0 149.12,-6 149.12,-12 149.12,-12 149.12,-24 149.12,-24 149.12,-30 143.12,-36 137.12,-36"/>
<text xml:space="preserve" text-anchor="middle" x="87.5" y="-19.75" font-family="Helvetica,sans-Serif" font-size="10.00">Research Rate 1500 RP</text>
<text xml:space="preserve" text-anchor="middle" x="87.5" y="-8.5" font-family="Helvetica,sans-Serif" font-size="10.00">5.0M RP</text>
</g>
<!-- Research_Rate_1200_RP&#45;&gt;Research_Rate_1500_RP -->
<g id="edge10" class="edge">
<title>Research_Rate_1200_RP&#45;&gt;Research_Rate_1500_RP</title>
<path fill="none" stroke="black" d="M87.5,-64.78C87.5,-58.53 87.5,-51.33 87.5,-44.52"/>
<polygon fill="black" stroke="black" points="89.95,-44.71 87.5,-37.71 85.05,-44.71 89.95,-44.71"/>
</g>
</g>
</svg>
