<?xml version="1.0" encoding="UTF-8" standalone="no"?>
<!DOCTYPE svg PUBLIC "-//W3C//DTD SVG 1.1//EN"
 "http://www.w3.org/Graphics/SVG/1.1/DTD/svg11.dtd">
<!-- Generated by graphviz version 14.1.2 (20260124.0452)
 -->
<!-- Title: TechTree Pages: 1 -->
<svg width="165pt" height="857pt"
 viewBox="0.00 0.00 165.00 857.00" xmlns="http://www.w3.org/2000/svg" xmlns:xlink="http://www.w3.org/1999/xlink">
<g id="graph0" class="graph" transform="scale(1 1) rotate(0) translate(4 852.75)">
<title>TechTree</title>
<polygon fill="white" stroke="none" points="-4,4 -4,-852.75 161,-852.75 161,4 -4,4"/>
<text xml:space="preserve" text-anchor="middle" x="78.5" y="-833.35" font-family="Helvetica,sans-Serif" font-weight="bold" font-size="12.00">Improved Research Rate</text>
<!-- Research_Rate_240_RP -->
<g id="node1" class="node">
<title>Research_Rate_240_RP</title>
<path fill="#cce5ff" stroke="black" d="M121.75,-756C121.75,-756 35.25,-756 35.25,-756 29.25,-756 23.25,-750 23.25,-744 23.25,-744 23.25,-732 23.25,-732 23.25,-726 29.25,-720 35.25,-720 35.25,-720 121.75,-720 121.75,-720 127.75,-720 133.75,-726 133.75,-732 133.75,-732 133.75,-744 133.75,-744 133.75,-750 127.75,-756 121.75,-756"/>
<text xml:space="preserve" text-anchor="middle" x="78.5" y="-739.2" font-family="Helvetica,sans-Serif" font-size="9.00">Research Rate 240 RP</text>
<text xml:space="preserve" text-anchor="middle" x="78.5" y="-729.45" font-family="Helvetica,sans-Serif" font-size="9.00">5K RP</text>
</g>
<!-- Research_Rate_280_RP -->
<g id="node2" class="node">
<title>Research_Rate_280_RP</title>
<path fill="#cce5ff" stroke="black" d="M121.75,-684C121.75,-684 35.25,-684 35.25,-684 29.25,-684 23.25,-678 23.25,-672 23.25,-672 23.25,-660 23.25,-660 23.25,-654 29.25,-648 35.25,-648 35.25,-648 121.75,-648 121.75,-648 127.75,-648 133.75,-654 133.75,-660 133.75,-660 133.75,-672 133.75,-672 133.75,-678 127.75,-684 121.75,-684"/>
<text xml:space="preserve" text-anchor="middle" x="78.5" y="-667.2" font-family="Helvetica,sans-Serif" font-size="9.00">Research Rate 280 RP</text>
<text xml:space="preserve" text-anchor="middle" x="78.5" y="-657.45" font-family="Helvetica,sans-Serif" font-size="9.00">10K RP</text>
</g>
<!-- Research_Rate_240_RP&#45;&gt;Research_Rate_280_RP -->
<g id="edge2" class="edge">
<title>Research_Rate_240_RP&#45;&gt;Research_Rate_280_RP</title>
<path fill="none" stroke="black" d="M78.5,-719.7C78.5,-711.22 78.5,-700.86 78.5,-691.58"/>
<polygon fill="black" stroke="black" points="80.6,-691.62 78.5,-685.62 76.4,-691.62 80.6,-691.62"/>
</g>
<!-- Research_Rate_320_RP -->
<g id="node3" class="node">
<title>Research_Rate_320_RP</title>
<path fill="#fff3cd" stroke="black" d="M121.75,-612C121.75,-612 35.25,-612 35.25,-612 29.25,-612 23.25,-606 23.25,-600 23.25,-600 23.25,-588 23.25,-588 23.25,-582 29.25,-576 35.25,-576 35.25,-576 121.75,-576 121.75,-576 127.75,-576 133.75,-582 133.75,-588 133.75,-588 133.75,-600 133.75,-600 133.75,-606 127.75,-612 121.75,-612"/>
<text xml:space="preserve" text-anchor="middle" x="78.5" y="-595.2" font-family="Helvetica,sans-Serif" font-size="9.00">Research Rate 320 RP</text>
<text xml:space="preserve" text-anchor="middle" x="78.5" y="-585.45" font-family="Helvetica,sans-Serif" font-size="9.00">20K RP</text>
</g>
<!-- Research_Rate_280_RP&#45;&gt;Research_Rate_320_RP -->
<g id="edge3" class="edge">
<title>Research_Rate_280_RP&#45;&gt;Research_Rate_320_RP</title>
<path fill="none" stroke="black" d="M78.5,-647.7C78.5,-639.22 78.5,-628.86 78.5,-619.58"/>
<polygon fill="black" stroke="black" points="80.6,-619.62 78.5,-613.62 76.4,-619.62 80.6,-619.62"/>
</g>
<!-- Research_Rate_400_RP -->
<g id="node4" class="node">
<title>Research_Rate_400_RP</title>
<path fill="#fff3cd" stroke="black" d="M121.75,-540C121.75,-540 35.25,-540 35.25,-540 29.25,-540 23.25,-534 23.25,-528 23.25,-528 23.25,-516 23.25,-516 23.25,-510 29.25,-504 35.25,-504 35.25,-504 121.75,-504 121.75,-504 127.75,-504 133.75,-510 133.75,-516 133.75,-516 133.75,-528 133.75,-528 133.75,-534 127.75,-540 121.75,-540"/>
<text xml:space="preserve" text-anchor="middle" x="78.5" y="-523.2" font-family="Helvetica,sans-Serif" font-size="9.00">Research Rate 400 RP</text>
<text xml:space="preserve" text-anchor="middle" x="78.5" y="-513.45" font-family="Helvetica,sans-Serif" font-size="9.00">40K RP</text>
</g>
<!-- Research_Rate_320_RP&#45;&gt;Research_Rate_400_RP -->
<g id="edge4" class="edge">
<title>Research_Rate_320_RP&#45;&gt;Research_Rate_400_RP</title>
<path fill="none" stroke="black" d="M78.5,-575.7C78.5,-567.22 78.5,-556.86 78.5,-547.58"/>
<polygon fill="black" stroke="black" points="80.6,-547.62 78.5,-541.62 76.4,-547.62 80.6,-547.62"/>
</g>
<!-- Research_Rate_500_RP -->
<g id="node5" class="node">
<title>Research_Rate_500_RP</title>
<path fill="#fff3cd" stroke="black" d="M121.75,-468C121.75,-468 35.25,-468 35.25,-468 29.25,-468 23.25,-462 23.25,-456 23.25,-456 23.25,-444 23.25,-444 23.25,-438 29.25,-432 35.25,-432 35.25,-432 121.75,-432 121.75,-432 127.75,-432 133.75,-438 133.75,-444 133.75,-444 133.75,-456 133.75,-456 133.75,-462 127.75,-468 121.75,-468"/>
<text xml:space="preserve" text-anchor="middle" x="78.5" y="-451.2" font-family="Helvetica,sans-Serif" font-size="9.00">Research Rate 500 RP</text>
<text xml:space="preserve" text-anchor="middle" x="78.5" y="-441.45" font-family="Helvetica,sans-Serif" font-size="9.00">80K RP</text>
</g>
<!-- Research_Rate_400_RP&#45;&gt;Research_Rate_500_RP -->
<g id="edge5" class="edge">
<title>Research_Rate_400_RP&#45;&gt;Research_Rate_500_RP</title>
<path fill="none" stroke="black" d="M78.5,-503.7C78.5,-495.22 78.5,-484.86 78.5,-475.58"/>
<polygon fill="black" stroke="black" points="80.6,-475.62 78.5,-469.62 76.4,-475.62 80.6,-475.62"/>
</g>
<!-- Research_Rate_600_RP -->
<g id="node6" class="node">
<title>Research_Rate_600_RP</title>
<path fill="#d4c4fb" stroke="black" d="M121.75,-396C121.75,-396 35.25,-396 35.25,-396 29.25,-396 23.25,-390 23.25,-384 23.25,-384 23.25,-372 23.25,-372 23.25,-366 29.25,-360 35.25,-360 35.25,-360 121.75,-360 121.75,-360 127.75,-360 133.75,-366 133.75,-372 133.75,-372 133.75,-384 133.75,-384 133.75,-390 127.75,-396 121.75,-396"/>
<text xml:space="preserve" text-anchor="middle" x="78.5" y="-379.2" font-family="Helvetica,sans-Serif" font-size="9.00">Research Rate 600 RP</text>
<text xml:space="preserve" text-anchor="middle" x="78.5" y="-369.45" font-family="Helvetica,sans-Serif" font-size="9.00">150K RP</text>
</g>
<!-- Research_Rate_500_RP&#45;&gt;Research_Rate_600_RP -->
<g id="edge6" class="edge">
<title>Research_Rate_500_RP&#45;&gt;Research_Rate_600_RP</title>
<path fill="none" stroke="black" d="M78.5,-431.7C78.5,-423.22 78.5,-412.86 78.5,-403.58"/>
<polygon fill="black" stroke="black" points="80.6,-403.62 78.5,-397.62 76.4,-403.62 80.6,-403.62"/>
</g>
<!-- Research_Rate_720_RP -->
<g id="node7" class="node">
<title>Research_Rate_720_RP</title>
<path fill="#d4c4fb" stroke="black" d="M121.75,-324C121.75,-324 35.25,-324 35.25,-324 29.25,-324 23.25,-318 23.25,-312 23.25,-312 23.25,-300 23.25,-300 23.25,-294 29.25,-288 35.25,-288 35.25,-288 121.75,-288 121.75,-288 127.75,-288 133.75,-294 133.75,-300 133.75,-300 133.75,-312 133.75,-312 133.75,-318 127.75,-324 121.75,-324"/>
<text xml:space="preserve" text-anchor="middle" x="78.5" y="-307.2" font-family="Helvetica,sans-Serif" font-size="9.00">Research Rate 720 RP</text>
<text xml:space="preserve" text-anchor="middle" x="78.5" y="-297.45" font-family="Helvetica,sans-Serif" font-size="9.00">300K RP</text>
</g>
<!-- Research_Rate_600_RP&#45;&gt;Research_Rate_720_RP -->
<g id="edge7" class="edge">
<title>Research_Rate_600_RP&#45;&gt;Research_Rate_720_RP</title>
<path fill="none" stroke="black" d="M78.5,-359.7C78.5,-351.22 78.5,-340.86 78.5,-331.58"/>
<polygon fill="black" stroke="black" points="80.6,-331.62 78.5,-325.62 76.4,-331.62 80.6,-331.62"/>
</g>
<!-- Research_Rate_840_RP -->
<g id="node8" class="node">
<title>Research_Rate_840_RP</title>
<path fill="#d4c4fb" stroke="black" d="M121.75,-252C121.75,-252 35.25,-252 35.25,-252 29.25,-252 23.25,-246 23.25,-240 23.25,-240 23.25,-228 23.25,-228 23.25,-222 29.25,-216 35.25,-216 35.25,-216 121.75,-216 121.75,-216 127.75,-216 133.75,-222 133.75,-228 133.75,-228 133.75,-240 133.75,-240 133.75,-246 127.75,-252 121.75,-252"/>
<text xml:space="preserve" text-anchor="middle" x="78.5" y="-235.2" font-family="Helvetica,sans-Serif" font-size="9.00">Research Rate 840 RP</text>
<text xml:space="preserve" text-anchor="middle" x="78.5" y="-225.45" font-family="Helvetica,sans-Serif" font-size="9.00">600K RP</text>
</g>
<!-- Research_Rate_720_RP&#45;&gt;Research_Rate_840_RP -->
<g id="edge8" class="edge">
<title>Research_Rate_720_RP&#45;&gt;Research_Rate_840_RP</title>
<path fill="none" stroke="black" d="M78.5,-287.7C78.5,-279.22 78.5,-268.86 78.5,-259.58"/>
<polygon fill="black" stroke="black" points="80.6,-259.62 78.5,-253.62 76.4,-259.62 80.6,-259.62"/>
</g>
<!-- Research_Rate_1000_RP -->
<g id="node9" class="node">
<title>Research_Rate_1000_RP</title>
<path fill="#f8d7da" stroke="black" d="M124.38,-180C124.38,-180 32.62,-180 32.62,-180 26.62,-180 20.62,-174 20.62,-168 20.62,-168 20.62,-156 20.62,-156 20.62,-150 26.62,-144 32.62,-144 32.62,-144 124.38,-144 124.38,-144 130.38,-144 136.38,-150 136.38,-156 136.38,-156 136.38,-168 136.38,-168 136.38,-174 130.38,-180 124.38,-180"/>
<text xml:space="preserve" text-anchor="middle" x="78.5" y="-163.2" font-family="Helvetica,sans-Serif" font-size="9.00">Research Rate 1000 RP</text>
<text xml:space="preserve" text-anchor="middle" x="78.5" y="-153.45" font-family="Helvetica,sans-Serif" font-size="9.00">1.2M RP</text>
</g>
<!-- Research_Rate_840_RP&#45;&gt;Research_Rate_1000_RP -->
<g id="edge9" class="edge">
<title>Research_Rate_840_RP&#45;&gt;Research_Rate_1000_RP</title>
<path fill="none" stroke="black" d="M78.5,-215.7C78.5,-207.22 78.5,-196.86 78.5,-187.58"/>
<polygon fill="black" stroke="black" points="80.6,-187.62 78.5,-181.62 76.4,-187.62 80.6,-187.62"/>
</g>
<!-- Research_Rate_1200_RP -->
<g id="node10" class="node">
<title>Research_Rate_1200_RP</title>
<path fill="#f8d7da" stroke="black" d="M124.38,-108C124.38,-108 32.62,-108 32.62,-108 26.62,-108 20.62,-102 20.62,-96 20.62,-96 20.62,-84 20.62,-84 20.62,-78 26.62,-72 32.62,-72 32.62,-72 124.38,-72 124.38,-72 130.38,-72 136.38,-78 136.38,-84 136.38,-84 136.38,-96 136.38,-96 136.38,-102 130.38,-108 124.38,-108"/>
<text xml:space="preserve" text-anchor="middle" x="78.5" y="-91.2" font-family="Helvetica,sans-Serif" font-size="9.00">Research Rate 1200 RP</text>
<text xml:space="preserve" text-anchor="middle" x="78.5" y="-81.45" font-family="Helvetica,sans-Serif" font-size="9.00">2.5M RP</text>
</g>
<!-- Research_Rate_1000_RP&#45;&gt;Research_Rate_1200_RP -->
<g id="edge10" class="edge">
<title>Research_Rate_1000_RP&#45;&gt;Research_Rate_1200_RP</title>
<path fill="none" stroke="black" d="M78.5,-143.7C78.5,-135.22 78.5,-124.86 78.5,-115.58"/>
<polygon fill="black" stroke="black" points="80.6,-115.62 78.5,-109.62 76.4,-115.62 80.6,-115.62"/>
</g>
<!-- Research_Rate_1500_RP -->
<g id="node11" class="node">
<title>Research_Rate_1500_RP</title>
<path fill="#f8d7da" stroke="black" d="M124.38,-36C124.38,-36 32.62,-36 32.62,-36 26.62,-36 20.62,-30 20.62,-24 20.62,-24 20.62,-12 20.62,-12 20.62,-6 26.62,0 32.62,0 32.62,0 124.38,0 124.38,0 130.38,0 136.38,-6 136.38,-12 136.38,-12 136.38,-24 136.38,-24 136.38,-30 130.38,-36 124.38,-36"/>
<text xml:space="preserve" text-anchor="middle" x="78.5" y="-19.2" font-family="Helvetica,sans-Serif" font-size="9.00">Research Rate 1500 RP</text>
<text xml:space="preserve" text-anchor="middle" x="78.5" y="-9.45" font-family="Helvetica,sans-Serif" font-size="9.00">5.0M RP</text>
</g>
<!-- Research_Rate_1200_RP&#45;&gt;Research_Rate_1500_RP -->
<g id="edge11" class="edge">
<title>Research_Rate_1200_RP&#45;&gt;Research_Rate_1500_RP</title>
<path fill="none" stroke="black" d="M78.5,-71.7C78.5,-63.22 78.5,-52.86 78.5,-43.58"/>
<polygon fill="black" stroke="black" points="80.6,-43.62 78.5,-37.62 76.4,-43.62 80.6,-43.62"/>
</g>
<!-- ext_Trans_Newtonian_Technology -->
<g id="node12" class="node">
<title>ext_Trans_Newtonian_Technology</title>
<path fill="#f0f0f0" stroke="black" stroke-dasharray="5,2" d="M134.5,-828C134.5,-828 22.5,-828 22.5,-828 16.5,-828 10.5,-822 10.5,-816 10.5,-816 10.5,-804 10.5,-804 10.5,-798 16.5,-792 22.5,-792 22.5,-792 134.5,-792 134.5,-792 140.5,-792 146.5,-798 146.5,-804 146.5,-804 146.5,-816 146.5,-816 146.5,-822 140.5,-828 134.5,-828"/>
<text xml:space="preserve" text-anchor="middle" x="78.5" y="-806.33" font-family="Helvetica,sans-Serif" font-size="9.00">Trans&#45;Newtonian Technology</text>
</g>
<!-- ext_Trans_Newtonian_Technology&#45;&gt;Research_Rate_240_RP -->
<g id="edge1" class="edge">
<title>ext_Trans_Newtonian_Technology&#45;&gt;Research_Rate_240_RP</title>
<path fill="none" stroke="black" d="M78.5,-791.7C78.5,-783.22 78.5,-772.86 78.5,-763.58"/>
<polygon fill="black" stroke="black" points="80.6,-763.62 78.5,-757.62 76.4,-763.62 80.6,-763.62"/>
</g>
</g>
</svg>
