<?xml version="1.0" encoding="UTF-8" standalone="no"?>
<!DOCTYPE svg PUBLIC "-//W3C//DTD SVG 1.1//EN"
 "http://www.w3.org/Graphics/SVG/1.1/DTD/svg11.dtd">
<!-- Generated by graphviz version 14.1.2 (20260124.0452)
 -->
<!-- Title: TechTree Pages: 1 -->
<svg width="204pt" height="717pt"
 viewBox="0.00 0.00 204.00 717.00" xmlns="http://www.w3.org/2000/svg" xmlns:xlink="http://www.w3.org/1999/xlink">
<g id="graph0" class="graph" transform="scale(1 1) rotate(0) translate(4 713)">
<title>TechTree</title>
<polygon fill="white" stroke="none" points="-4,4 -4,-713 200,-713 200,4 -4,4"/>
<text xml:space="preserve" text-anchor="middle" x="98" y="-691.7" font-family="Helvetica,sans-Serif" font-weight="bold" font-size="14.00">Improved Shipbuilding Rate</text>
<!-- Shipbuilding_Rate_560_BP -->
<g id="node1" class="node">
<title>Shipbuilding_Rate_560_BP</title>
<path fill="#cce5ff" stroke="black" d="M149.88,-686C149.88,-686 46.12,-686 46.12,-686 40.12,-686 34.12,-680 34.12,-674 34.12,-674 34.12,-662 34.12,-662 34.12,-656 40.12,-650 46.12,-650 46.12,-650 149.88,-650 149.88,-650 155.88,-650 161.88,-656 161.88,-662 161.88,-662 161.88,-674 161.88,-674 161.88,-680 155.88,-686 149.88,-686"/>
<text xml:space="preserve" text-anchor="middle" x="98" y="-669.75" font-family="Helvetica,sans-Serif" font-size="10.00">Shipbuilding Rate 560 BP</text>
<text xml:space="preserve" text-anchor="middle" x="98" y="-658.5" font-family="Helvetica,sans-Serif" font-size="10.00">5K RP</text>
</g>
<!-- Shipbuilding_Rate_750_BP -->
<g id="node2" class="node">
<title>Shipbuilding_Rate_750_BP</title>
<path fill="#cce5ff" stroke="black" d="M149.88,-621C149.88,-621 46.12,-621 46.12,-621 40.12,-621 34.12,-615 34.12,-609 34.12,-609 34.12,-597 34.12,-597 34.12,-591 40.12,-585 46.12,-585 46.12,-585 149.88,-585 149.88,-585 155.88,-585 161.88,-591 161.88,-597 161.88,-597 161.88,-609 161.88,-609 161.88,-615 155.88,-621 149.88,-621"/>
<text xml:space="preserve" text-anchor="middle" x="98" y="-604.75" font-family="Helvetica,sans-Serif" font-size="10.00">Shipbuilding Rate 750 BP</text>
<text xml:space="preserve" text-anchor="middle" x="98" y="-593.5" font-family="Helvetica,sans-Serif" font-size="10.00">10K RP</text>
</g>
<!-- Shipbuilding_Rate_560_BP&#45;&gt;Shipbuilding_Rate_750_BP -->
<g id="edge1" class="edge">
<title>Shipbuilding_Rate_560_BP&#45;&gt;Shipbuilding_Rate_750_BP</title>
<path fill="none" stroke="black" d="M98,-649.78C98,-643.53 98,-636.33 98,-629.52"/>
<polygon fill="black" stroke="black" points="100.45,-629.71 98,-622.71 95.55,-629.71 100.45,-629.71"/>
</g>
<!-- Shipbuilding_Rate_1000_BP -->
<g id="node3" class="node">
<title>Shipbuilding_Rate_1000_BP</title>
<path fill="#fff3cd" stroke="black" d="M152.5,-556C152.5,-556 43.5,-556 43.5,-556 37.5,-556 31.5,-550 31.5,-544 31.5,-544 31.5,-532 31.5,-532 31.5,-526 37.5,-520 43.5,-520 43.5,-520 152.5,-520 152.5,-520 158.5,-520 164.5,-526 164.5,-532 164.5,-532 164.5,-544 164.5,-544 164.5,-550 158.5,-556 152.5,-556"/>
<text xml:space="preserve" text-anchor="middle" x="98" y="-539.75" font-family="Helvetica,sans-Serif" font-size="10.00">Shipbuilding Rate 1000 BP</text>
<text xml:space="preserve" text-anchor="middle" x="98" y="-528.5" font-family="Helvetica,sans-Serif" font-size="10.00">20K RP</text>
</g>
<!-- Shipbuilding_Rate_750_BP&#45;&gt;Shipbuilding_Rate_1000_BP -->
<g id="edge2" class="edge">
<title>Shipbuilding_Rate_750_BP&#45;&gt;Shipbuilding_Rate_1000_BP</title>
<path fill="none" stroke="black" d="M98,-584.78C98,-578.53 98,-571.33 98,-564.52"/>
<polygon fill="black" stroke="black" points="100.45,-564.71 98,-557.71 95.55,-564.71 100.45,-564.71"/>
</g>
<!-- Shipbuilding_Rate_1300_BP -->
<g id="node4" class="node">
<title>Shipbuilding_Rate_1300_BP</title>
<path fill="#fff3cd" stroke="black" d="M152.5,-491C152.5,-491 43.5,-491 43.5,-491 37.5,-491 31.5,-485 31.5,-479 31.5,-479 31.5,-467 31.5,-467 31.5,-461 37.5,-455 43.5,-455 43.5,-455 152.5,-455 152.5,-455 158.5,-455 164.5,-461 164.5,-467 164.5,-467 164.5,-479 164.5,-479 164.5,-485 158.5,-491 152.5,-491"/>
<text xml:space="preserve" text-anchor="middle" x="98" y="-474.75" font-family="Helvetica,sans-Serif" font-size="10.00">Shipbuilding Rate 1300 BP</text>
<text xml:space="preserve" text-anchor="middle" x="98" y="-463.5" font-family="Helvetica,sans-Serif" font-size="10.00">40K RP</text>
</g>
<!-- Shipbuilding_Rate_1000_BP&#45;&gt;Shipbuilding_Rate_1300_BP -->
<g id="edge3" class="edge">
<title>Shipbuilding_Rate_1000_BP&#45;&gt;Shipbuilding_Rate_1300_BP</title>
<path fill="none" stroke="black" d="M98,-519.78C98,-513.53 98,-506.33 98,-499.52"/>
<polygon fill="black" stroke="black" points="100.45,-499.71 98,-492.71 95.55,-499.71 100.45,-499.71"/>
</g>
<!-- Shipbuilding_Rate_1600_BP -->
<g id="node5" class="node">
<title>Shipbuilding_Rate_1600_BP</title>
<path fill="#fff3cd" stroke="black" d="M152.5,-426C152.5,-426 43.5,-426 43.5,-426 37.5,-426 31.5,-420 31.5,-414 31.5,-414 31.5,-402 31.5,-402 31.5,-396 37.5,-390 43.5,-390 43.5,-390 152.5,-390 152.5,-390 158.5,-390 164.5,-396 164.5,-402 164.5,-402 164.5,-414 164.5,-414 164.5,-420 158.5,-426 152.5,-426"/>
<text xml:space="preserve" text-anchor="middle" x="98" y="-409.75" font-family="Helvetica,sans-Serif" font-size="10.00">Shipbuilding Rate 1600 BP</text>
<text xml:space="preserve" text-anchor="middle" x="98" y="-398.5" font-family="Helvetica,sans-Serif" font-size="10.00">80K RP</text>
</g>
<!-- Shipbuilding_Rate_1300_BP&#45;&gt;Shipbuilding_Rate_1600_BP -->
<g id="edge4" class="edge">
<title>Shipbuilding_Rate_1300_BP&#45;&gt;Shipbuilding_Rate_1600_BP</title>
<path fill="none" stroke="black" d="M98,-454.78C98,-448.53 98,-441.33 98,-434.52"/>
<polygon fill="black" stroke="black" points="100.45,-434.71 98,-427.71 95.55,-434.71 100.45,-434.71"/>
</g>
<!-- Shipbuilding_Rate_2100_BP -->
<g id="node6" class="node">
<title>Shipbuilding_Rate_2100_BP</title>
<path fill="#d4c4fb" stroke="black" d="M152.5,-361C152.5,-361 43.5,-361 43.5,-361 37.5,-361 31.5,-355 31.5,-349 31.5,-349 31.5,-337 31.5,-337 31.5,-331 37.5,-325 43.5,-325 43.5,-325 152.5,-325 152.5,-325 158.5,-325 164.5,-331 164.5,-337 164.5,-337 164.5,-349 164.5,-349 164.5,-355 158.5,-361 152.5,-361"/>
<text xml:space="preserve" text-anchor="middle" x="98" y="-344.75" font-family="Helvetica,sans-Serif" font-size="10.00">Shipbuilding Rate 2100 BP</text>
<text xml:space="preserve" text-anchor="middle" x="98" y="-333.5" font-family="Helvetica,sans-Serif" font-size="10.00">150K RP</text>
</g>
<!-- Shipbuilding_Rate_1600_BP&#45;&gt;Shipbuilding_Rate_2100_BP -->
<g id="edge5" class="edge">
<title>Shipbuilding_Rate_1600_BP&#45;&gt;Shipbuilding_Rate_2100_BP</title>
<path fill="none" stroke="black" d="M98,-389.78C98,-383.53 98,-376.33 98,-369.52"/>
<polygon fill="black" stroke="black" points="100.45,-369.71 98,-362.71 95.55,-369.71 100.45,-369.71"/>
</g>
<!-- Shipbuilding_Rate_2750_BP -->
<g id="node7" class="node">
<title>Shipbuilding_Rate_2750_BP</title>
<path fill="#d4c4fb" stroke="black" d="M152.5,-296C152.5,-296 43.5,-296 43.5,-296 37.5,-296 31.5,-290 31.5,-284 31.5,-284 31.5,-272 31.5,-272 31.5,-266 37.5,-260 43.5,-260 43.5,-260 152.5,-260 152.5,-260 158.5,-260 164.5,-266 164.5,-272 164.5,-272 164.5,-284 164.5,-284 164.5,-290 158.5,-296 152.5,-296"/>
<text xml:space="preserve" text-anchor="middle" x="98" y="-279.75" font-family="Helvetica,sans-Serif" font-size="10.00">Shipbuilding Rate 2750 BP</text>
<text xml:space="preserve" text-anchor="middle" x="98" y="-268.5" font-family="Helvetica,sans-Serif" font-size="10.00">300K RP</text>
</g>
<!-- Shipbuilding_Rate_2100_BP&#45;&gt;Shipbuilding_Rate_2750_BP -->
<g id="edge6" class="edge">
<title>Shipbuilding_Rate_2100_BP&#45;&gt;Shipbuilding_Rate_2750_BP</title>
<path fill="none" stroke="black" d="M98,-324.78C98,-318.53 98,-311.33 98,-304.52"/>
<polygon fill="black" stroke="black" points="100.45,-304.71 98,-297.71 95.55,-304.71 100.45,-304.71"/>
</g>
<!-- Shipbuilding_Rate_3500_BP -->
<g id="node8" class="node">
<title>Shipbuilding_Rate_3500_BP</title>
<path fill="#d4c4fb" stroke="black" d="M152.5,-231C152.5,-231 43.5,-231 43.5,-231 37.5,-231 31.5,-225 31.5,-219 31.5,-219 31.5,-207 31.5,-207 31.5,-201 37.5,-195 43.5,-195 43.5,-195 152.5,-195 152.5,-195 158.5,-195 164.5,-201 164.5,-207 164.5,-207 164.5,-219 164.5,-219 164.5,-225 158.5,-231 152.5,-231"/>
<text xml:space="preserve" text-anchor="middle" x="98" y="-214.75" font-family="Helvetica,sans-Serif" font-size="10.00">Shipbuilding Rate 3500 BP</text>
<text xml:space="preserve" text-anchor="middle" x="98" y="-203.5" font-family="Helvetica,sans-Serif" font-size="10.00">600K RP</text>
</g>
<!-- Shipbuilding_Rate_2750_BP&#45;&gt;Shipbuilding_Rate_3500_BP -->
<g id="edge7" class="edge">
<title>Shipbuilding_Rate_2750_BP&#45;&gt;Shipbuilding_Rate_3500_BP</title>
<path fill="none" stroke="black" d="M98,-259.78C98,-253.53 98,-246.33 98,-239.52"/>
<polygon fill="black" stroke="black" points="100.45,-239.71 98,-232.71 95.55,-239.71 100.45,-239.71"/>
</g>
<!-- Shipbuilding_Rate_4600_BP -->
<g id="node9" class="node">
<title>Shipbuilding_Rate_4600_BP</title>
<path fill="#f8d7da" stroke="black" d="M152.5,-166C152.5,-166 43.5,-166 43.5,-166 37.5,-166 31.5,-160 31.5,-154 31.5,-154 31.5,-142 31.5,-142 31.5,-136 37.5,-130 43.5,-130 43.5,-130 152.5,-130 152.5,-130 158.5,-130 164.5,-136 164.5,-142 164.5,-142 164.5,-154 164.5,-154 164.5,-160 158.5,-166 152.5,-166"/>
<text xml:space="preserve" text-anchor="middle" x="98" y="-149.75" font-family="Helvetica,sans-Serif" font-size="10.00">Shipbuilding Rate 4600 BP</text>
<text xml:space="preserve" text-anchor="middle" x="98" y="-138.5" font-family="Helvetica,sans-Serif" font-size="10.00">1.2M RP</text>
</g>
<!-- Shipbuilding_Rate_3500_BP&#45;&gt;Shipbuilding_Rate_4600_BP -->
<g id="edge8" class="edge">
<title>Shipbuilding_Rate_3500_BP&#45;&gt;Shipbuilding_Rate_4600_BP</title>
<path fill="none" stroke="black" d="M98,-194.78C98,-188.53 98,-181.33 98,-174.52"/>
<polygon fill="black" stroke="black" points="100.45,-174.71 98,-167.71 95.55,-174.71 100.45,-174.71"/>
</g>
<!-- Shipbuilding_Rate_6000_BP -->
<g id="node10" class="node">
<title>Shipbuilding_Rate_6000_BP</title>
<path fill="#f8d7da" stroke="black" d="M152.5,-101C152.5,-101 43.5,-101 43.5,-101 37.5,-101 31.5,-95 31.5,-89 31.5,-89 31.5,-77 31.5,-77 31.5,-71 37.5,-65 43.5,-65 43.5,-65 152.5,-65 152.5,-65 158.5,-65 164.5,-71 164.5,-77 164.5,-77 164.5,-89 164.5,-89 164.5,-95 158.5,-101 152.5,-101"/>
<text xml:space="preserve" text-anchor="middle" x="98" y="-84.75" font-family="Helvetica,sans-Serif" font-size="10.00">Shipbuilding Rate 6000 BP</text>
<text xml:space="preserve" text-anchor="middle" x="98" y="-73.5" font-family="Helvetica,sans-Serif" font-size="10.00">2.5M RP</text>
</g>
<!-- Shipbuilding_Rate_4600_BP&#45;&gt;Shipbuilding_Rate_6000_BP -->
<g id="edge9" class="edge">
<title>Shipbuilding_Rate_4600_BP&#45;&gt;Shipbuilding_Rate_6000_BP</title>
<path fill="none" stroke="black" d="M98,-129.78C98,-123.53 98,-116.33 98,-109.52"/>
<polygon fill="black" stroke="black" points="100.45,-109.71 98,-102.71 95.55,-109.71 100.45,-109.71"/>
</g>
<!-- Shipbuilding_Rate_8000_BP -->
<g id="node11" class="node">
<title>Shipbuilding_Rate_8000_BP</title>
<path fill="#f8d7da" stroke="black" d="M152.5,-36C152.5,-36 43.5,-36 43.5,-36 37.5,-36 31.5,-30 31.5,-24 31.5,-24 31.5,-12 31.5,-12 31.5,-6 37.5,0 43.5,0 43.5,0 152.5,0 152.5,0 158.5,0 164.5,-6 164.5,-12 164.5,-12 164.5,-24 164.5,-24 164.5,-30 158.5,-36 152.5,-36"/>
<text xml:space="preserve" text-anchor="middle" x="98" y="-19.75" font-family="Helvetica,sans-Serif" font-size="10.00">Shipbuilding Rate 8000 BP</text>
<text xml:space="preserve" text-anchor="middle" x="98" y="-8.5" font-family="Helvetica,sans-Serif" font-size="10.00">5.0M RP</text>
</g>
<!-- Shipbuilding_Rate_6000_BP&#45;&gt;Shipbuilding_Rate_8000_BP -->
<g id="edge10" class="edge">
<title>Shipbuilding_Rate_6000_BP&#45;&gt;Shipbuilding_Rate_8000_BP</title>
<path fill="none" stroke="black" d="M98,-64.78C98,-58.53 98,-51.33 98,-44.52"/>
<polygon fill="black" stroke="black" points="100.45,-44.71 98,-37.71 95.55,-44.71 100.45,-44.71"/>
</g>
</g>
</svg>
