<?xml version="1.0" encoding="UTF-8" standalone="no"?>
<!DOCTYPE svg PUBLIC "-//W3C//DTD SVG 1.1//EN"
 "http://www.w3.org/Graphics/SVG/1.1/DTD/svg11.dtd">
<!-- Generated by graphviz version 14.1.2 (20260124.0452)
 -->
<!-- Title: TechTree Pages: 1 -->
<svg width="186pt" height="857pt"
 viewBox="0.00 0.00 186.00 857.00" xmlns="http://www.w3.org/2000/svg" xmlns:xlink="http://www.w3.org/1999/xlink">
<g id="graph0" class="graph" transform="scale(1 1) rotate(0) translate(4 852.75)">
<title>TechTree</title>
<polygon fill="white" stroke="none" points="-4,4 -4,-852.75 182,-852.75 182,4 -4,4"/>
<text xml:space="preserve" text-anchor="middle" x="89" y="-833.35" font-family="Helvetica,sans-Serif" font-weight="bold" font-size="12.00">Improved Mining Production</text>
<!-- Mining_Production_12_tons -->
<g id="node1" class="node">
<title>Mining_Production_12_tons</title>
<path fill="#cce5ff" stroke="black" d="M138.25,-756C138.25,-756 39.75,-756 39.75,-756 33.75,-756 27.75,-750 27.75,-744 27.75,-744 27.75,-732 27.75,-732 27.75,-726 33.75,-720 39.75,-720 39.75,-720 138.25,-720 138.25,-720 144.25,-720 150.25,-726 150.25,-732 150.25,-732 150.25,-744 150.25,-744 150.25,-750 144.25,-756 138.25,-756"/>
<text xml:space="preserve" text-anchor="middle" x="89" y="-739.2" font-family="Helvetica,sans-Serif" font-size="9.00">Mining Production 12 tons</text>
<text xml:space="preserve" text-anchor="middle" x="89" y="-729.45" font-family="Helvetica,sans-Serif" font-size="9.00">3K RP</text>
</g>
<!-- Mining_Production_14_tons -->
<g id="node2" class="node">
<title>Mining_Production_14_tons</title>
<path fill="#cce5ff" stroke="black" d="M138.25,-684C138.25,-684 39.75,-684 39.75,-684 33.75,-684 27.75,-678 27.75,-672 27.75,-672 27.75,-660 27.75,-660 27.75,-654 33.75,-648 39.75,-648 39.75,-648 138.25,-648 138.25,-648 144.25,-648 150.25,-654 150.25,-660 150.25,-660 150.25,-672 150.25,-672 150.25,-678 144.25,-684 138.25,-684"/>
<text xml:space="preserve" text-anchor="middle" x="89" y="-667.2" font-family="Helvetica,sans-Serif" font-size="9.00">Mining Production 14 tons</text>
<text xml:space="preserve" text-anchor="middle" x="89" y="-657.45" font-family="Helvetica,sans-Serif" font-size="9.00">5K RP</text>
</g>
<!-- Mining_Production_12_tons&#45;&gt;Mining_Production_14_tons -->
<g id="edge2" class="edge">
<title>Mining_Production_12_tons&#45;&gt;Mining_Production_14_tons</title>
<path fill="none" stroke="black" d="M89,-719.7C89,-711.22 89,-700.86 89,-691.58"/>
<polygon fill="black" stroke="black" points="91.1,-691.62 89,-685.62 86.9,-691.62 91.1,-691.62"/>
</g>
<!-- Mining_Production_16_tons -->
<g id="node3" class="node">
<title>Mining_Production_16_tons</title>
<path fill="#cce5ff" stroke="black" d="M138.25,-612C138.25,-612 39.75,-612 39.75,-612 33.75,-612 27.75,-606 27.75,-600 27.75,-600 27.75,-588 27.75,-588 27.75,-582 33.75,-576 39.75,-576 39.75,-576 138.25,-576 138.25,-576 144.25,-576 150.25,-582 150.25,-588 150.25,-588 150.25,-600 150.25,-600 150.25,-606 144.25,-612 138.25,-612"/>
<text xml:space="preserve" text-anchor="middle" x="89" y="-595.2" font-family="Helvetica,sans-Serif" font-size="9.00">Mining Production 16 tons</text>
<text xml:space="preserve" text-anchor="middle" x="89" y="-585.45" font-family="Helvetica,sans-Serif" font-size="9.00">10K RP</text>
</g>
<!-- Mining_Production_14_tons&#45;&gt;Mining_Production_16_tons -->
<g id="edge3" class="edge">
<title>Mining_Production_14_tons&#45;&gt;Mining_Production_16_tons</title>
<path fill="none" stroke="black" d="M89,-647.7C89,-639.22 89,-628.86 89,-619.58"/>
<polygon fill="black" stroke="black" points="91.1,-619.62 89,-613.62 86.9,-619.62 91.1,-619.62"/>
</g>
<!-- Mining_Production_20_tons -->
<g id="node4" class="node">
<title>Mining_Production_20_tons</title>
<path fill="#fff3cd" stroke="black" d="M138.25,-540C138.25,-540 39.75,-540 39.75,-540 33.75,-540 27.75,-534 27.75,-528 27.75,-528 27.75,-516 27.75,-516 27.75,-510 33.75,-504 39.75,-504 39.75,-504 138.25,-504 138.25,-504 144.25,-504 150.25,-510 150.25,-516 150.25,-516 150.25,-528 150.25,-528 150.25,-534 144.25,-540 138.25,-540"/>
<text xml:space="preserve" text-anchor="middle" x="89" y="-523.2" font-family="Helvetica,sans-Serif" font-size="9.00">Mining Production 20 tons</text>
<text xml:space="preserve" text-anchor="middle" x="89" y="-513.45" font-family="Helvetica,sans-Serif" font-size="9.00">20K RP</text>
</g>
<!-- Mining_Production_16_tons&#45;&gt;Mining_Production_20_tons -->
<g id="edge4" class="edge">
<title>Mining_Production_16_tons&#45;&gt;Mining_Production_20_tons</title>
<path fill="none" stroke="black" d="M89,-575.7C89,-567.22 89,-556.86 89,-547.58"/>
<polygon fill="black" stroke="black" points="91.1,-547.62 89,-541.62 86.9,-547.62 91.1,-547.62"/>
</g>
<!-- Mining_Production_25_tons -->
<g id="node5" class="node">
<title>Mining_Production_25_tons</title>
<path fill="#fff3cd" stroke="black" d="M138.25,-468C138.25,-468 39.75,-468 39.75,-468 33.75,-468 27.75,-462 27.75,-456 27.75,-456 27.75,-444 27.75,-444 27.75,-438 33.75,-432 39.75,-432 39.75,-432 138.25,-432 138.25,-432 144.25,-432 150.25,-438 150.25,-444 150.25,-444 150.25,-456 150.25,-456 150.25,-462 144.25,-468 138.25,-468"/>
<text xml:space="preserve" text-anchor="middle" x="89" y="-451.2" font-family="Helvetica,sans-Serif" font-size="9.00">Mining Production 25 tons</text>
<text xml:space="preserve" text-anchor="middle" x="89" y="-441.45" font-family="Helvetica,sans-Serif" font-size="9.00">40K RP</text>
</g>
<!-- Mining_Production_20_tons&#45;&gt;Mining_Production_25_tons -->
<g id="edge5" class="edge">
<title>Mining_Production_20_tons&#45;&gt;Mining_Production_25_tons</title>
<path fill="none" stroke="black" d="M89,-503.7C89,-495.22 89,-484.86 89,-475.58"/>
<polygon fill="black" stroke="black" points="91.1,-475.62 89,-469.62 86.9,-475.62 91.1,-475.62"/>
</g>
<!-- Mining_Production_30_tons -->
<g id="node6" class="node">
<title>Mining_Production_30_tons</title>
<path fill="#fff3cd" stroke="black" d="M138.25,-396C138.25,-396 39.75,-396 39.75,-396 33.75,-396 27.75,-390 27.75,-384 27.75,-384 27.75,-372 27.75,-372 27.75,-366 33.75,-360 39.75,-360 39.75,-360 138.25,-360 138.25,-360 144.25,-360 150.25,-366 150.25,-372 150.25,-372 150.25,-384 150.25,-384 150.25,-390 144.25,-396 138.25,-396"/>
<text xml:space="preserve" text-anchor="middle" x="89" y="-379.2" font-family="Helvetica,sans-Serif" font-size="9.00">Mining Production 30 tons</text>
<text xml:space="preserve" text-anchor="middle" x="89" y="-369.45" font-family="Helvetica,sans-Serif" font-size="9.00">80K RP</text>
</g>
<!-- Mining_Production_25_tons&#45;&gt;Mining_Production_30_tons -->
<g id="edge6" class="edge">
<title>Mining_Production_25_tons&#45;&gt;Mining_Production_30_tons</title>
<path fill="none" stroke="black" d="M89,-431.7C89,-423.22 89,-412.86 89,-403.58"/>
<polygon fill="black" stroke="black" points="91.1,-403.62 89,-397.62 86.9,-403.62 91.1,-403.62"/>
</g>
<!-- Mining_Production_36_tons -->
<g id="node7" class="node">
<title>Mining_Production_36_tons</title>
<path fill="#d4c4fb" stroke="black" d="M138.25,-324C138.25,-324 39.75,-324 39.75,-324 33.75,-324 27.75,-318 27.75,-312 27.75,-312 27.75,-300 27.75,-300 27.75,-294 33.75,-288 39.75,-288 39.75,-288 138.25,-288 138.25,-288 144.25,-288 150.25,-294 150.25,-300 150.25,-300 150.25,-312 150.25,-312 150.25,-318 144.25,-324 138.25,-324"/>
<text xml:space="preserve" text-anchor="middle" x="89" y="-307.2" font-family="Helvetica,sans-Serif" font-size="9.00">Mining Production 36 tons</text>
<text xml:space="preserve" text-anchor="middle" x="89" y="-297.45" font-family="Helvetica,sans-Serif" font-size="9.00">150K RP</text>
</g>
<!-- Mining_Production_30_tons&#45;&gt;Mining_Production_36_tons -->
<g id="edge7" class="edge">
<title>Mining_Production_30_tons&#45;&gt;Mining_Production_36_tons</title>
<path fill="none" stroke="black" d="M89,-359.7C89,-351.22 89,-340.86 89,-331.58"/>
<polygon fill="black" stroke="black" points="91.1,-331.62 89,-325.62 86.9,-331.62 91.1,-331.62"/>
</g>
<!-- Mining_Production_42_tons -->
<g id="node8" class="node">
<title>Mining_Production_42_tons</title>
<path fill="#d4c4fb" stroke="black" d="M138.25,-252C138.25,-252 39.75,-252 39.75,-252 33.75,-252 27.75,-246 27.75,-240 27.75,-240 27.75,-228 27.75,-228 27.75,-222 33.75,-216 39.75,-216 39.75,-216 138.25,-216 138.25,-216 144.25,-216 150.25,-222 150.25,-228 150.25,-228 150.25,-240 150.25,-240 150.25,-246 144.25,-252 138.25,-252"/>
<text xml:space="preserve" text-anchor="middle" x="89" y="-235.2" font-family="Helvetica,sans-Serif" font-size="9.00">Mining Production 42 tons</text>
<text xml:space="preserve" text-anchor="middle" x="89" y="-225.45" font-family="Helvetica,sans-Serif" font-size="9.00">300K RP</text>
</g>
<!-- Mining_Production_36_tons&#45;&gt;Mining_Production_42_tons -->
<g id="edge8" class="edge">
<title>Mining_Production_36_tons&#45;&gt;Mining_Production_42_tons</title>
<path fill="none" stroke="black" d="M89,-287.7C89,-279.22 89,-268.86 89,-259.58"/>
<polygon fill="black" stroke="black" points="91.1,-259.62 89,-253.62 86.9,-259.62 91.1,-259.62"/>
</g>
<!-- Mining_Production_50_tons -->
<g id="node9" class="node">
<title>Mining_Production_50_tons</title>
<path fill="#d4c4fb" stroke="black" d="M138.25,-180C138.25,-180 39.75,-180 39.75,-180 33.75,-180 27.75,-174 27.75,-168 27.75,-168 27.75,-156 27.75,-156 27.75,-150 33.75,-144 39.75,-144 39.75,-144 138.25,-144 138.25,-144 144.25,-144 150.25,-150 150.25,-156 150.25,-156 150.25,-168 150.25,-168 150.25,-174 144.25,-180 138.25,-180"/>
<text xml:space="preserve" text-anchor="middle" x="89" y="-163.2" font-family="Helvetica,sans-Serif" font-size="9.00">Mining Production 50 tons</text>
<text xml:space="preserve" text-anchor="middle" x="89" y="-153.45" font-family="Helvetica,sans-Serif" font-size="9.00">600K RP</text>
</g>
<!-- Mining_Production_42_tons&#45;&gt;Mining_Production_50_tons -->
<g id="edge9" class="edge">
<title>Mining_Production_42_tons&#45;&gt;Mining_Production_50_tons</title>
<path fill="none" stroke="black" d="M89,-215.7C89,-207.22 89,-196.86 89,-187.58"/>
<polygon fill="black" stroke="black" points="91.1,-187.62 89,-181.62 86.9,-187.62 91.1,-187.62"/>
</g>
<!-- Mining_Production_60_tons -->
<g id="node10" class="node">
<title>Mining_Production_60_tons</title>
<path fill="#f8d7da" stroke="black" d="M138.25,-108C138.25,-108 39.75,-108 39.75,-108 33.75,-108 27.75,-102 27.75,-96 27.75,-96 27.75,-84 27.75,-84 27.75,-78 33.75,-72 39.75,-72 39.75,-72 138.25,-72 138.25,-72 144.25,-72 150.25,-78 150.25,-84 150.25,-84 150.25,-96 150.25,-96 150.25,-102 144.25,-108 138.25,-108"/>
<text xml:space="preserve" text-anchor="middle" x="89" y="-91.2" font-family="Helvetica,sans-Serif" font-size="9.00">Mining Production 60 tons</text>
<text xml:space="preserve" text-anchor="middle" x="89" y="-81.45" font-family="Helvetica,sans-Serif" font-size="9.00">1.2M RP</text>
</g>
<!-- Mining_Production_50_tons&#45;&gt;Mining_Production_60_tons -->
<g id="edge10" class="edge">
<title>Mining_Production_50_tons&#45;&gt;Mining_Production_60_tons</title>
<path fill="none" stroke="black" d="M89,-143.7C89,-135.22 89,-124.86 89,-115.58"/>
<polygon fill="black" stroke="black" points="91.1,-115.62 89,-109.62 86.9,-115.62 91.1,-115.62"/>
</g>
<!-- Mining_Production_70_tons -->
<g id="node11" class="node">
<title>Mining_Production_70_tons</title>
<path fill="#f8d7da" stroke="black" d="M138.25,-36C138.25,-36 39.75,-36 39.75,-36 33.75,-36 27.75,-30 27.75,-24 27.75,-24 27.75,-12 27.75,-12 27.75,-6 33.75,0 39.75,0 39.75,0 138.25,0 138.25,0 144.25,0 150.25,-6 150.25,-12 150.25,-12 150.25,-24 150.25,-24 150.25,-30 144.25,-36 138.25,-36"/>
<text xml:space="preserve" text-anchor="middle" x="89" y="-19.2" font-family="Helvetica,sans-Serif" font-size="9.00">Mining Production 70 tons</text>
<text xml:space="preserve" text-anchor="middle" x="89" y="-9.45" font-family="Helvetica,sans-Serif" font-size="9.00">2.5M RP</text>
</g>
<!-- Mining_Production_60_tons&#45;&gt;Mining_Production_70_tons -->
<g id="edge11" class="edge">
<title>Mining_Production_60_tons&#45;&gt;Mining_Production_70_tons</title>
<path fill="none" stroke="black" d="M89,-71.7C89,-63.22 89,-52.86 89,-43.58"/>
<polygon fill="black" stroke="black" points="91.1,-43.62 89,-37.62 86.9,-43.62 91.1,-43.62"/>
</g>
<!-- ext_Trans_Newtonian_Technology -->
<g id="node12" class="node">
<title>ext_Trans_Newtonian_Technology</title>
<path fill="#f0f0f0" stroke="black" stroke-dasharray="5,2" d="M145,-828C145,-828 33,-828 33,-828 27,-828 21,-822 21,-816 21,-816 21,-804 21,-804 21,-798 27,-792 33,-792 33,-792 145,-792 145,-792 151,-792 157,-798 157,-804 157,-804 157,-816 157,-816 157,-822 151,-828 145,-828"/>
<text xml:space="preserve" text-anchor="middle" x="89" y="-806.33" font-family="Helvetica,sans-Serif" font-size="9.00">Trans&#45;Newtonian Technology</text>
</g>
<!-- ext_Trans_Newtonian_Technology&#45;&gt;Mining_Production_12_tons -->
<g id="edge1" class="edge">
<title>ext_Trans_Newtonian_Technology&#45;&gt;Mining_Production_12_tons</title>
<path fill="none" stroke="black" d="M89,-791.7C89,-783.22 89,-772.86 89,-763.58"/>
<polygon fill="black" stroke="black" points="91.1,-763.62 89,-757.62 86.9,-763.62 91.1,-763.62"/>
</g>
</g>
</svg>
