<?xml version="1.0" encoding="UTF-8" standalone="no"?>
<!DOCTYPE svg PUBLIC "-//W3C//DTD SVG 1.1//EN"
 "http://www.w3.org/Graphics/SVG/1.1/DTD/svg11.dtd">
<!-- Generated by graphviz version 14.1.2 (20260124.0452)
 -->
<!-- Title: TechTree Pages: 1 -->
<svg width="259pt" height="782pt"
 viewBox="0.00 0.00 259.00 782.00" xmlns="http://www.w3.org/2000/svg" xmlns:xlink="http://www.w3.org/1999/xlink">
<g id="graph0" class="graph" transform="scale(1 1) rotate(0) translate(4 778)">
<title>TechTree</title>
<polygon fill="white" stroke="none" points="-4,4 -4,-778 254.75,-778 254.75,4 -4,4"/>
<text xml:space="preserve" text-anchor="middle" x="125.38" y="-756.7" font-family="Helvetica,sans-Serif" font-weight="bold" font-size="14.00">Improved Planetary Sensor Strength</text>
<!-- Planetary_Sensor_Strength_250 -->
<g id="node1" class="node">
<title>Planetary_Sensor_Strength_250</title>
<path fill="#cce5ff" stroke="black" d="M188.12,-751C188.12,-751 62.62,-751 62.62,-751 56.62,-751 50.62,-745 50.62,-739 50.62,-739 50.62,-727 50.62,-727 50.62,-721 56.62,-715 62.62,-715 62.62,-715 188.12,-715 188.12,-715 194.12,-715 200.12,-721 200.12,-727 200.12,-727 200.12,-739 200.12,-739 200.12,-745 194.12,-751 188.12,-751"/>
<text xml:space="preserve" text-anchor="middle" x="125.38" y="-734.75" font-family="Helvetica,sans-Serif" font-size="10.00">Planetary Sensor Strength 250</text>
<text xml:space="preserve" text-anchor="middle" x="125.38" y="-723.5" font-family="Helvetica,sans-Serif" font-size="10.00">1K RP</text>
</g>
<!-- Planetary_Sensor_Strength_300 -->
<g id="node2" class="node">
<title>Planetary_Sensor_Strength_300</title>
<path fill="#cce5ff" stroke="black" d="M188.12,-686C188.12,-686 62.62,-686 62.62,-686 56.62,-686 50.62,-680 50.62,-674 50.62,-674 50.62,-662 50.62,-662 50.62,-656 56.62,-650 62.62,-650 62.62,-650 188.12,-650 188.12,-650 194.12,-650 200.12,-656 200.12,-662 200.12,-662 200.12,-674 200.12,-674 200.12,-680 194.12,-686 188.12,-686"/>
<text xml:space="preserve" text-anchor="middle" x="125.38" y="-669.75" font-family="Helvetica,sans-Serif" font-size="10.00">Planetary Sensor Strength 300</text>
<text xml:space="preserve" text-anchor="middle" x="125.38" y="-658.5" font-family="Helvetica,sans-Serif" font-size="10.00">3K RP</text>
</g>
<!-- Planetary_Sensor_Strength_250&#45;&gt;Planetary_Sensor_Strength_300 -->
<g id="edge1" class="edge">
<title>Planetary_Sensor_Strength_250&#45;&gt;Planetary_Sensor_Strength_300</title>
<path fill="none" stroke="black" d="M125.38,-714.78C125.38,-708.53 125.38,-701.33 125.38,-694.52"/>
<polygon fill="black" stroke="black" points="127.83,-694.71 125.38,-687.71 122.93,-694.71 127.83,-694.71"/>
</g>
<!-- Planetary_Sensor_Strength_400 -->
<g id="node3" class="node">
<title>Planetary_Sensor_Strength_400</title>
<path fill="#cce5ff" stroke="black" d="M188.12,-621C188.12,-621 62.62,-621 62.62,-621 56.62,-621 50.62,-615 50.62,-609 50.62,-609 50.62,-597 50.62,-597 50.62,-591 56.62,-585 62.62,-585 62.62,-585 188.12,-585 188.12,-585 194.12,-585 200.12,-591 200.12,-597 200.12,-597 200.12,-609 200.12,-609 200.12,-615 194.12,-621 188.12,-621"/>
<text xml:space="preserve" text-anchor="middle" x="125.38" y="-604.75" font-family="Helvetica,sans-Serif" font-size="10.00">Planetary Sensor Strength 400</text>
<text xml:space="preserve" text-anchor="middle" x="125.38" y="-593.5" font-family="Helvetica,sans-Serif" font-size="10.00">5K RP</text>
</g>
<!-- Planetary_Sensor_Strength_300&#45;&gt;Planetary_Sensor_Strength_400 -->
<g id="edge2" class="edge">
<title>Planetary_Sensor_Strength_300&#45;&gt;Planetary_Sensor_Strength_400</title>
<path fill="none" stroke="black" d="M125.38,-649.78C125.38,-643.53 125.38,-636.33 125.38,-629.52"/>
<polygon fill="black" stroke="black" points="127.83,-629.71 125.38,-622.71 122.93,-629.71 127.83,-629.71"/>
</g>
<!-- Planetary_Sensor_Strength_550 -->
<g id="node4" class="node">
<title>Planetary_Sensor_Strength_550</title>
<path fill="#cce5ff" stroke="black" d="M188.12,-556C188.12,-556 62.62,-556 62.62,-556 56.62,-556 50.62,-550 50.62,-544 50.62,-544 50.62,-532 50.62,-532 50.62,-526 56.62,-520 62.62,-520 62.62,-520 188.12,-520 188.12,-520 194.12,-520 200.12,-526 200.12,-532 200.12,-532 200.12,-544 200.12,-544 200.12,-550 194.12,-556 188.12,-556"/>
<text xml:space="preserve" text-anchor="middle" x="125.38" y="-539.75" font-family="Helvetica,sans-Serif" font-size="10.00">Planetary Sensor Strength 550</text>
<text xml:space="preserve" text-anchor="middle" x="125.38" y="-528.5" font-family="Helvetica,sans-Serif" font-size="10.00">10K RP</text>
</g>
<!-- Planetary_Sensor_Strength_400&#45;&gt;Planetary_Sensor_Strength_550 -->
<g id="edge3" class="edge">
<title>Planetary_Sensor_Strength_400&#45;&gt;Planetary_Sensor_Strength_550</title>
<path fill="none" stroke="black" d="M125.38,-584.78C125.38,-578.53 125.38,-571.33 125.38,-564.52"/>
<polygon fill="black" stroke="black" points="127.83,-564.71 125.38,-557.71 122.93,-564.71 127.83,-564.71"/>
</g>
<!-- Planetary_Sensor_Strength_700 -->
<g id="node5" class="node">
<title>Planetary_Sensor_Strength_700</title>
<path fill="#fff3cd" stroke="black" d="M188.12,-491C188.12,-491 62.62,-491 62.62,-491 56.62,-491 50.62,-485 50.62,-479 50.62,-479 50.62,-467 50.62,-467 50.62,-461 56.62,-455 62.62,-455 62.62,-455 188.12,-455 188.12,-455 194.12,-455 200.12,-461 200.12,-467 200.12,-467 200.12,-479 200.12,-479 200.12,-485 194.12,-491 188.12,-491"/>
<text xml:space="preserve" text-anchor="middle" x="125.38" y="-474.75" font-family="Helvetica,sans-Serif" font-size="10.00">Planetary Sensor Strength 700</text>
<text xml:space="preserve" text-anchor="middle" x="125.38" y="-463.5" font-family="Helvetica,sans-Serif" font-size="10.00">20K RP</text>
</g>
<!-- Planetary_Sensor_Strength_550&#45;&gt;Planetary_Sensor_Strength_700 -->
<g id="edge4" class="edge">
<title>Planetary_Sensor_Strength_550&#45;&gt;Planetary_Sensor_Strength_700</title>
<path fill="none" stroke="black" d="M125.38,-519.78C125.38,-513.53 125.38,-506.33 125.38,-499.52"/>
<polygon fill="black" stroke="black" points="127.83,-499.71 125.38,-492.71 122.93,-499.71 127.83,-499.71"/>
</g>
<!-- Planetary_Sensor_Strength_900 -->
<g id="node6" class="node">
<title>Planetary_Sensor_Strength_900</title>
<path fill="#fff3cd" stroke="black" d="M188.12,-426C188.12,-426 62.62,-426 62.62,-426 56.62,-426 50.62,-420 50.62,-414 50.62,-414 50.62,-402 50.62,-402 50.62,-396 56.62,-390 62.62,-390 62.62,-390 188.12,-390 188.12,-390 194.12,-390 200.12,-396 200.12,-402 200.12,-402 200.12,-414 200.12,-414 200.12,-420 194.12,-426 188.12,-426"/>
<text xml:space="preserve" text-anchor="middle" x="125.38" y="-409.75" font-family="Helvetica,sans-Serif" font-size="10.00">Planetary Sensor Strength 900</text>
<text xml:space="preserve" text-anchor="middle" x="125.38" y="-398.5" font-family="Helvetica,sans-Serif" font-size="10.00">40K RP</text>
</g>
<!-- Planetary_Sensor_Strength_700&#45;&gt;Planetary_Sensor_Strength_900 -->
<g id="edge5" class="edge">
<title>Planetary_Sensor_Strength_700&#45;&gt;Planetary_Sensor_Strength_900</title>
<path fill="none" stroke="black" d="M125.38,-454.78C125.38,-448.53 125.38,-441.33 125.38,-434.52"/>
<polygon fill="black" stroke="black" points="127.83,-434.71 125.38,-427.71 122.93,-434.71 127.83,-434.71"/>
</g>
<!-- Planetary_Sensor_Strength_1200 -->
<g id="node7" class="node">
<title>Planetary_Sensor_Strength_1200</title>
<path fill="#fff3cd" stroke="black" d="M190.75,-361C190.75,-361 60,-361 60,-361 54,-361 48,-355 48,-349 48,-349 48,-337 48,-337 48,-331 54,-325 60,-325 60,-325 190.75,-325 190.75,-325 196.75,-325 202.75,-331 202.75,-337 202.75,-337 202.75,-349 202.75,-349 202.75,-355 196.75,-361 190.75,-361"/>
<text xml:space="preserve" text-anchor="middle" x="125.38" y="-344.75" font-family="Helvetica,sans-Serif" font-size="10.00">Planetary Sensor Strength 1200</text>
<text xml:space="preserve" text-anchor="middle" x="125.38" y="-333.5" font-family="Helvetica,sans-Serif" font-size="10.00">80K RP</text>
</g>
<!-- Planetary_Sensor_Strength_900&#45;&gt;Planetary_Sensor_Strength_1200 -->
<g id="edge6" class="edge">
<title>Planetary_Sensor_Strength_900&#45;&gt;Planetary_Sensor_Strength_1200</title>
<path fill="none" stroke="black" d="M125.38,-389.78C125.38,-383.53 125.38,-376.33 125.38,-369.52"/>
<polygon fill="black" stroke="black" points="127.83,-369.71 125.38,-362.71 122.93,-369.71 127.83,-369.71"/>
</g>
<!-- Planetary_Sensor_Strength_1600 -->
<g id="node8" class="node">
<title>Planetary_Sensor_Strength_1600</title>
<path fill="#d4c4fb" stroke="black" d="M190.75,-296C190.75,-296 60,-296 60,-296 54,-296 48,-290 48,-284 48,-284 48,-272 48,-272 48,-266 54,-260 60,-260 60,-260 190.75,-260 190.75,-260 196.75,-260 202.75,-266 202.75,-272 202.75,-272 202.75,-284 202.75,-284 202.75,-290 196.75,-296 190.75,-296"/>
<text xml:space="preserve" text-anchor="middle" x="125.38" y="-279.75" font-family="Helvetica,sans-Serif" font-size="10.00">Planetary Sensor Strength 1600</text>
<text xml:space="preserve" text-anchor="middle" x="125.38" y="-268.5" font-family="Helvetica,sans-Serif" font-size="10.00">150K RP</text>
</g>
<!-- Planetary_Sensor_Strength_1200&#45;&gt;Planetary_Sensor_Strength_1600 -->
<g id="edge7" class="edge">
<title>Planetary_Sensor_Strength_1200&#45;&gt;Planetary_Sensor_Strength_1600</title>
<path fill="none" stroke="black" d="M125.38,-324.78C125.38,-318.53 125.38,-311.33 125.38,-304.52"/>
<polygon fill="black" stroke="black" points="127.83,-304.71 125.38,-297.71 122.93,-304.71 127.83,-304.71"/>
</g>
<!-- Planetary_Sensor_Strength_2000 -->
<g id="node9" class="node">
<title>Planetary_Sensor_Strength_2000</title>
<path fill="#d4c4fb" stroke="black" d="M190.75,-231C190.75,-231 60,-231 60,-231 54,-231 48,-225 48,-219 48,-219 48,-207 48,-207 48,-201 54,-195 60,-195 60,-195 190.75,-195 190.75,-195 196.75,-195 202.75,-201 202.75,-207 202.75,-207 202.75,-219 202.75,-219 202.75,-225 196.75,-231 190.75,-231"/>
<text xml:space="preserve" text-anchor="middle" x="125.38" y="-214.75" font-family="Helvetica,sans-Serif" font-size="10.00">Planetary Sensor Strength 2000</text>
<text xml:space="preserve" text-anchor="middle" x="125.38" y="-203.5" font-family="Helvetica,sans-Serif" font-size="10.00">300K RP</text>
</g>
<!-- Planetary_Sensor_Strength_1600&#45;&gt;Planetary_Sensor_Strength_2000 -->
<g id="edge8" class="edge">
<title>Planetary_Sensor_Strength_1600&#45;&gt;Planetary_Sensor_Strength_2000</title>
<path fill="none" stroke="black" d="M125.38,-259.78C125.38,-253.53 125.38,-246.33 125.38,-239.52"/>
<polygon fill="black" stroke="black" points="127.83,-239.71 125.38,-232.71 122.93,-239.71 127.83,-239.71"/>
</g>
<!-- Planetary_Sensor_Strength_2500 -->
<g id="node10" class="node">
<title>Planetary_Sensor_Strength_2500</title>
<path fill="#d4c4fb" stroke="black" d="M190.75,-166C190.75,-166 60,-166 60,-166 54,-166 48,-160 48,-154 48,-154 48,-142 48,-142 48,-136 54,-130 60,-130 60,-130 190.75,-130 190.75,-130 196.75,-130 202.75,-136 202.75,-142 202.75,-142 202.75,-154 202.75,-154 202.75,-160 196.75,-166 190.75,-166"/>
<text xml:space="preserve" text-anchor="middle" x="125.38" y="-149.75" font-family="Helvetica,sans-Serif" font-size="10.00">Planetary Sensor Strength 2500</text>
<text xml:space="preserve" text-anchor="middle" x="125.38" y="-138.5" font-family="Helvetica,sans-Serif" font-size="10.00">600K RP</text>
</g>
<!-- Planetary_Sensor_Strength_2000&#45;&gt;Planetary_Sensor_Strength_2500 -->
<g id="edge9" class="edge">
<title>Planetary_Sensor_Strength_2000&#45;&gt;Planetary_Sensor_Strength_2500</title>
<path fill="none" stroke="black" d="M125.38,-194.78C125.38,-188.53 125.38,-181.33 125.38,-174.52"/>
<polygon fill="black" stroke="black" points="127.83,-174.71 125.38,-167.71 122.93,-174.71 127.83,-174.71"/>
</g>
<!-- Planetary_Sensor_Strength_3000 -->
<g id="node11" class="node">
<title>Planetary_Sensor_Strength_3000</title>
<path fill="#f8d7da" stroke="black" d="M190.75,-101C190.75,-101 60,-101 60,-101 54,-101 48,-95 48,-89 48,-89 48,-77 48,-77 48,-71 54,-65 60,-65 60,-65 190.75,-65 190.75,-65 196.75,-65 202.75,-71 202.75,-77 202.75,-77 202.75,-89 202.75,-89 202.75,-95 196.75,-101 190.75,-101"/>
<text xml:space="preserve" text-anchor="middle" x="125.38" y="-84.75" font-family="Helvetica,sans-Serif" font-size="10.00">Planetary Sensor Strength 3000</text>
<text xml:space="preserve" text-anchor="middle" x="125.38" y="-73.5" font-family="Helvetica,sans-Serif" font-size="10.00">1.2M RP</text>
</g>
<!-- Planetary_Sensor_Strength_2500&#45;&gt;Planetary_Sensor_Strength_3000 -->
<g id="edge10" class="edge">
<title>Planetary_Sensor_Strength_2500&#45;&gt;Planetary_Sensor_Strength_3000</title>
<path fill="none" stroke="black" d="M125.38,-129.78C125.38,-123.53 125.38,-116.33 125.38,-109.52"/>
<polygon fill="black" stroke="black" points="127.83,-109.71 125.38,-102.71 122.93,-109.71 127.83,-109.71"/>
</g>
<!-- Planetary_Sensor_Strength_3750 -->
<g id="node12" class="node">
<title>Planetary_Sensor_Strength_3750</title>
<path fill="#f8d7da" stroke="black" d="M190.75,-36C190.75,-36 60,-36 60,-36 54,-36 48,-30 48,-24 48,-24 48,-12 48,-12 48,-6 54,0 60,0 60,0 190.75,0 190.75,0 196.75,0 202.75,-6 202.75,-12 202.75,-12 202.75,-24 202.75,-24 202.75,-30 196.75,-36 190.75,-36"/>
<text xml:space="preserve" text-anchor="middle" x="125.38" y="-19.75" font-family="Helvetica,sans-Serif" font-size="10.00">Planetary Sensor Strength 3750</text>
<text xml:space="preserve" text-anchor="middle" x="125.38" y="-8.5" font-family="Helvetica,sans-Serif" font-size="10.00">2.5M RP</text>
</g>
<!-- Planetary_Sensor_Strength_3000&#45;&gt;Planetary_Sensor_Strength_3750 -->
<g id="edge11" class="edge">
<title>Planetary_Sensor_Strength_3000&#45;&gt;Planetary_Sensor_Strength_3750</title>
<path fill="none" stroke="black" d="M125.38,-64.78C125.38,-58.53 125.38,-51.33 125.38,-44.52"/>
<polygon fill="black" stroke="black" points="127.83,-44.71 125.38,-37.71 122.93,-44.71 127.83,-44.71"/>
</g>
</g>
</svg>
