<?xml version="1.0" encoding="UTF-8" standalone="no"?>
<!DOCTYPE svg PUBLIC "-//W3C//DTD SVG 1.1//EN"
 "http://www.w3.org/Graphics/SVG/1.1/DTD/svg11.dtd">
<!-- Generated by graphviz version 14.1.2 (20260124.0452)
 -->
<!-- Title: TechTree Pages: 1 -->
<svg width="173pt" height="857pt"
 viewBox="0.00 0.00 173.00 857.00" xmlns="http://www.w3.org/2000/svg" xmlns:xlink="http://www.w3.org/1999/xlink">
<g id="graph0" class="graph" transform="scale(1 1) rotate(0) translate(4 852.75)">
<title>TechTree</title>
<polygon fill="white" stroke="none" points="-4,4 -4,-852.75 168.5,-852.75 168.5,4 -4,4"/>
<text xml:space="preserve" text-anchor="middle" x="82.25" y="-833.35" font-family="Helvetica,sans-Serif" font-weight="bold" font-size="12.00">Improved Fuel Production</text>
<!-- Fuel_Production_48_000_Litres -->
<g id="node1" class="node">
<title>Fuel_Production_48_000_Litres</title>
<path fill="#cce5ff" stroke="black" d="M138.25,-756C138.25,-756 26.25,-756 26.25,-756 20.25,-756 14.25,-750 14.25,-744 14.25,-744 14.25,-732 14.25,-732 14.25,-726 20.25,-720 26.25,-720 26.25,-720 138.25,-720 138.25,-720 144.25,-720 150.25,-726 150.25,-732 150.25,-732 150.25,-744 150.25,-744 150.25,-750 144.25,-756 138.25,-756"/>
<text xml:space="preserve" text-anchor="middle" x="82.25" y="-739.2" font-family="Helvetica,sans-Serif" font-size="9.00">Fuel Production 48,000 Litres</text>
<text xml:space="preserve" text-anchor="middle" x="82.25" y="-729.45" font-family="Helvetica,sans-Serif" font-size="9.00">3K RP</text>
</g>
<!-- Fuel_Production_56_000_Litres -->
<g id="node2" class="node">
<title>Fuel_Production_56_000_Litres</title>
<path fill="#cce5ff" stroke="black" d="M138.25,-684C138.25,-684 26.25,-684 26.25,-684 20.25,-684 14.25,-678 14.25,-672 14.25,-672 14.25,-660 14.25,-660 14.25,-654 20.25,-648 26.25,-648 26.25,-648 138.25,-648 138.25,-648 144.25,-648 150.25,-654 150.25,-660 150.25,-660 150.25,-672 150.25,-672 150.25,-678 144.25,-684 138.25,-684"/>
<text xml:space="preserve" text-anchor="middle" x="82.25" y="-667.2" font-family="Helvetica,sans-Serif" font-size="9.00">Fuel Production 56,000 Litres</text>
<text xml:space="preserve" text-anchor="middle" x="82.25" y="-657.45" font-family="Helvetica,sans-Serif" font-size="9.00">5K RP</text>
</g>
<!-- Fuel_Production_48_000_Litres&#45;&gt;Fuel_Production_56_000_Litres -->
<g id="edge2" class="edge">
<title>Fuel_Production_48_000_Litres&#45;&gt;Fuel_Production_56_000_Litres</title>
<path fill="none" stroke="black" d="M82.25,-719.7C82.25,-711.22 82.25,-700.86 82.25,-691.58"/>
<polygon fill="black" stroke="black" points="84.35,-691.62 82.25,-685.62 80.15,-691.62 84.35,-691.62"/>
</g>
<!-- Fuel_Production_64_000_Litres -->
<g id="node3" class="node">
<title>Fuel_Production_64_000_Litres</title>
<path fill="#cce5ff" stroke="black" d="M138.25,-612C138.25,-612 26.25,-612 26.25,-612 20.25,-612 14.25,-606 14.25,-600 14.25,-600 14.25,-588 14.25,-588 14.25,-582 20.25,-576 26.25,-576 26.25,-576 138.25,-576 138.25,-576 144.25,-576 150.25,-582 150.25,-588 150.25,-588 150.25,-600 150.25,-600 150.25,-606 144.25,-612 138.25,-612"/>
<text xml:space="preserve" text-anchor="middle" x="82.25" y="-595.2" font-family="Helvetica,sans-Serif" font-size="9.00">Fuel Production 64,000 Litres</text>
<text xml:space="preserve" text-anchor="middle" x="82.25" y="-585.45" font-family="Helvetica,sans-Serif" font-size="9.00">10K RP</text>
</g>
<!-- Fuel_Production_56_000_Litres&#45;&gt;Fuel_Production_64_000_Litres -->
<g id="edge3" class="edge">
<title>Fuel_Production_56_000_Litres&#45;&gt;Fuel_Production_64_000_Litres</title>
<path fill="none" stroke="black" d="M82.25,-647.7C82.25,-639.22 82.25,-628.86 82.25,-619.58"/>
<polygon fill="black" stroke="black" points="84.35,-619.62 82.25,-613.62 80.15,-619.62 84.35,-619.62"/>
</g>
<!-- Fuel_Production_80_000_Litres -->
<g id="node4" class="node">
<title>Fuel_Production_80_000_Litres</title>
<path fill="#fff3cd" stroke="black" d="M138.25,-540C138.25,-540 26.25,-540 26.25,-540 20.25,-540 14.25,-534 14.25,-528 14.25,-528 14.25,-516 14.25,-516 14.25,-510 20.25,-504 26.25,-504 26.25,-504 138.25,-504 138.25,-504 144.25,-504 150.25,-510 150.25,-516 150.25,-516 150.25,-528 150.25,-528 150.25,-534 144.25,-540 138.25,-540"/>
<text xml:space="preserve" text-anchor="middle" x="82.25" y="-523.2" font-family="Helvetica,sans-Serif" font-size="9.00">Fuel Production 80,000 Litres</text>
<text xml:space="preserve" text-anchor="middle" x="82.25" y="-513.45" font-family="Helvetica,sans-Serif" font-size="9.00">20K RP</text>
</g>
<!-- Fuel_Production_64_000_Litres&#45;&gt;Fuel_Production_80_000_Litres -->
<g id="edge4" class="edge">
<title>Fuel_Production_64_000_Litres&#45;&gt;Fuel_Production_80_000_Litres</title>
<path fill="none" stroke="black" d="M82.25,-575.7C82.25,-567.22 82.25,-556.86 82.25,-547.58"/>
<polygon fill="black" stroke="black" points="84.35,-547.62 82.25,-541.62 80.15,-547.62 84.35,-547.62"/>
</g>
<!-- Fuel_Production_100_000_Litres -->
<g id="node5" class="node">
<title>Fuel_Production_100_000_Litres</title>
<path fill="#fff3cd" stroke="black" d="M140.88,-468C140.88,-468 23.62,-468 23.62,-468 17.62,-468 11.62,-462 11.62,-456 11.62,-456 11.62,-444 11.62,-444 11.62,-438 17.62,-432 23.62,-432 23.62,-432 140.88,-432 140.88,-432 146.88,-432 152.88,-438 152.88,-444 152.88,-444 152.88,-456 152.88,-456 152.88,-462 146.88,-468 140.88,-468"/>
<text xml:space="preserve" text-anchor="middle" x="82.25" y="-451.2" font-family="Helvetica,sans-Serif" font-size="9.00">Fuel Production 100,000 Litres</text>
<text xml:space="preserve" text-anchor="middle" x="82.25" y="-441.45" font-family="Helvetica,sans-Serif" font-size="9.00">40K RP</text>
</g>
<!-- Fuel_Production_80_000_Litres&#45;&gt;Fuel_Production_100_000_Litres -->
<g id="edge5" class="edge">
<title>Fuel_Production_80_000_Litres&#45;&gt;Fuel_Production_100_000_Litres</title>
<path fill="none" stroke="black" d="M82.25,-503.7C82.25,-495.22 82.25,-484.86 82.25,-475.58"/>
<polygon fill="black" stroke="black" points="84.35,-475.62 82.25,-469.62 80.15,-475.62 84.35,-475.62"/>
</g>
<!-- Fuel_Production_120_000_Litres -->
<g id="node6" class="node">
<title>Fuel_Production_120_000_Litres</title>
<path fill="#fff3cd" stroke="black" d="M140.88,-396C140.88,-396 23.62,-396 23.62,-396 17.62,-396 11.62,-390 11.62,-384 11.62,-384 11.62,-372 11.62,-372 11.62,-366 17.62,-360 23.62,-360 23.62,-360 140.88,-360 140.88,-360 146.88,-360 152.88,-366 152.88,-372 152.88,-372 152.88,-384 152.88,-384 152.88,-390 146.88,-396 140.88,-396"/>
<text xml:space="preserve" text-anchor="middle" x="82.25" y="-379.2" font-family="Helvetica,sans-Serif" font-size="9.00">Fuel Production 120,000 Litres</text>
<text xml:space="preserve" text-anchor="middle" x="82.25" y="-369.45" font-family="Helvetica,sans-Serif" font-size="9.00">80K RP</text>
</g>
<!-- Fuel_Production_100_000_Litres&#45;&gt;Fuel_Production_120_000_Litres -->
<g id="edge6" class="edge">
<title>Fuel_Production_100_000_Litres&#45;&gt;Fuel_Production_120_000_Litres</title>
<path fill="none" stroke="black" d="M82.25,-431.7C82.25,-423.22 82.25,-412.86 82.25,-403.58"/>
<polygon fill="black" stroke="black" points="84.35,-403.62 82.25,-397.62 80.15,-403.62 84.35,-403.62"/>
</g>
<!-- Fuel_Production_144_000_Litres -->
<g id="node7" class="node">
<title>Fuel_Production_144_000_Litres</title>
<path fill="#d4c4fb" stroke="black" d="M140.88,-324C140.88,-324 23.62,-324 23.62,-324 17.62,-324 11.62,-318 11.62,-312 11.62,-312 11.62,-300 11.62,-300 11.62,-294 17.62,-288 23.62,-288 23.62,-288 140.88,-288 140.88,-288 146.88,-288 152.88,-294 152.88,-300 152.88,-300 152.88,-312 152.88,-312 152.88,-318 146.88,-324 140.88,-324"/>
<text xml:space="preserve" text-anchor="middle" x="82.25" y="-307.2" font-family="Helvetica,sans-Serif" font-size="9.00">Fuel Production 144,000 Litres</text>
<text xml:space="preserve" text-anchor="middle" x="82.25" y="-297.45" font-family="Helvetica,sans-Serif" font-size="9.00">150K RP</text>
</g>
<!-- Fuel_Production_120_000_Litres&#45;&gt;Fuel_Production_144_000_Litres -->
<g id="edge7" class="edge">
<title>Fuel_Production_120_000_Litres&#45;&gt;Fuel_Production_144_000_Litres</title>
<path fill="none" stroke="black" d="M82.25,-359.7C82.25,-351.22 82.25,-340.86 82.25,-331.58"/>
<polygon fill="black" stroke="black" points="84.35,-331.62 82.25,-325.62 80.15,-331.62 84.35,-331.62"/>
</g>
<!-- Fuel_Production_168_000_Litres -->
<g id="node8" class="node">
<title>Fuel_Production_168_000_Litres</title>
<path fill="#d4c4fb" stroke="black" d="M140.88,-252C140.88,-252 23.62,-252 23.62,-252 17.62,-252 11.62,-246 11.62,-240 11.62,-240 11.62,-228 11.62,-228 11.62,-222 17.62,-216 23.62,-216 23.62,-216 140.88,-216 140.88,-216 146.88,-216 152.88,-222 152.88,-228 152.88,-228 152.88,-240 152.88,-240 152.88,-246 146.88,-252 140.88,-252"/>
<text xml:space="preserve" text-anchor="middle" x="82.25" y="-235.2" font-family="Helvetica,sans-Serif" font-size="9.00">Fuel Production 168,000 Litres</text>
<text xml:space="preserve" text-anchor="middle" x="82.25" y="-225.45" font-family="Helvetica,sans-Serif" font-size="9.00">300K RP</text>
</g>
<!-- Fuel_Production_144_000_Litres&#45;&gt;Fuel_Production_168_000_Litres -->
<g id="edge8" class="edge">
<title>Fuel_Production_144_000_Litres&#45;&gt;Fuel_Production_168_000_Litres</title>
<path fill="none" stroke="black" d="M82.25,-287.7C82.25,-279.22 82.25,-268.86 82.25,-259.58"/>
<polygon fill="black" stroke="black" points="84.35,-259.62 82.25,-253.62 80.15,-259.62 84.35,-259.62"/>
</g>
<!-- Fuel_Production_200_000_Litres -->
<g id="node9" class="node">
<title>Fuel_Production_200_000_Litres</title>
<path fill="#d4c4fb" stroke="black" d="M140.88,-180C140.88,-180 23.62,-180 23.62,-180 17.62,-180 11.62,-174 11.62,-168 11.62,-168 11.62,-156 11.62,-156 11.62,-150 17.62,-144 23.62,-144 23.62,-144 140.88,-144 140.88,-144 146.88,-144 152.88,-150 152.88,-156 152.88,-156 152.88,-168 152.88,-168 152.88,-174 146.88,-180 140.88,-180"/>
<text xml:space="preserve" text-anchor="middle" x="82.25" y="-163.2" font-family="Helvetica,sans-Serif" font-size="9.00">Fuel Production 200,000 Litres</text>
<text xml:space="preserve" text-anchor="middle" x="82.25" y="-153.45" font-family="Helvetica,sans-Serif" font-size="9.00">600K RP</text>
</g>
<!-- Fuel_Production_168_000_Litres&#45;&gt;Fuel_Production_200_000_Litres -->
<g id="edge9" class="edge">
<title>Fuel_Production_168_000_Litres&#45;&gt;Fuel_Production_200_000_Litres</title>
<path fill="none" stroke="black" d="M82.25,-215.7C82.25,-207.22 82.25,-196.86 82.25,-187.58"/>
<polygon fill="black" stroke="black" points="84.35,-187.62 82.25,-181.62 80.15,-187.62 84.35,-187.62"/>
</g>
<!-- Fuel_Production_240_000_Litres -->
<g id="node10" class="node">
<title>Fuel_Production_240_000_Litres</title>
<path fill="#f8d7da" stroke="black" d="M140.88,-108C140.88,-108 23.62,-108 23.62,-108 17.62,-108 11.62,-102 11.62,-96 11.62,-96 11.62,-84 11.62,-84 11.62,-78 17.62,-72 23.62,-72 23.62,-72 140.88,-72 140.88,-72 146.88,-72 152.88,-78 152.88,-84 152.88,-84 152.88,-96 152.88,-96 152.88,-102 146.88,-108 140.88,-108"/>
<text xml:space="preserve" text-anchor="middle" x="82.25" y="-91.2" font-family="Helvetica,sans-Serif" font-size="9.00">Fuel Production 240,000 Litres</text>
<text xml:space="preserve" text-anchor="middle" x="82.25" y="-81.45" font-family="Helvetica,sans-Serif" font-size="9.00">1.2M RP</text>
</g>
<!-- Fuel_Production_200_000_Litres&#45;&gt;Fuel_Production_240_000_Litres -->
<g id="edge10" class="edge">
<title>Fuel_Production_200_000_Litres&#45;&gt;Fuel_Production_240_000_Litres</title>
<path fill="none" stroke="black" d="M82.25,-143.7C82.25,-135.22 82.25,-124.86 82.25,-115.58"/>
<polygon fill="black" stroke="black" points="84.35,-115.62 82.25,-109.62 80.15,-115.62 84.35,-115.62"/>
</g>
<!-- Fuel_Production_280_000_Litres -->
<g id="node11" class="node">
<title>Fuel_Production_280_000_Litres</title>
<path fill="#f8d7da" stroke="black" d="M140.88,-36C140.88,-36 23.62,-36 23.62,-36 17.62,-36 11.62,-30 11.62,-24 11.62,-24 11.62,-12 11.62,-12 11.62,-6 17.62,0 23.62,0 23.62,0 140.88,0 140.88,0 146.88,0 152.88,-6 152.88,-12 152.88,-12 152.88,-24 152.88,-24 152.88,-30 146.88,-36 140.88,-36"/>
<text xml:space="preserve" text-anchor="middle" x="82.25" y="-19.2" font-family="Helvetica,sans-Serif" font-size="9.00">Fuel Production 280,000 Litres</text>
<text xml:space="preserve" text-anchor="middle" x="82.25" y="-9.45" font-family="Helvetica,sans-Serif" font-size="9.00">2.5M RP</text>
</g>
<!-- Fuel_Production_240_000_Litres&#45;&gt;Fuel_Production_280_000_Litres -->
<g id="edge11" class="edge">
<title>Fuel_Production_240_000_Litres&#45;&gt;Fuel_Production_280_000_Litres</title>
<path fill="none" stroke="black" d="M82.25,-71.7C82.25,-63.22 82.25,-52.86 82.25,-43.58"/>
<polygon fill="black" stroke="black" points="84.35,-43.62 82.25,-37.62 80.15,-43.62 84.35,-43.62"/>
</g>
<!-- ext_Trans_Newtonian_Technology -->
<g id="node12" class="node">
<title>ext_Trans_Newtonian_Technology</title>
<path fill="#f0f0f0" stroke="black" stroke-dasharray="5,2" d="M138.25,-828C138.25,-828 26.25,-828 26.25,-828 20.25,-828 14.25,-822 14.25,-816 14.25,-816 14.25,-804 14.25,-804 14.25,-798 20.25,-792 26.25,-792 26.25,-792 138.25,-792 138.25,-792 144.25,-792 150.25,-798 150.25,-804 150.25,-804 150.25,-816 150.25,-816 150.25,-822 144.25,-828 138.25,-828"/>
<text xml:space="preserve" text-anchor="middle" x="82.25" y="-806.33" font-family="Helvetica,sans-Serif" font-size="9.00">Trans&#45;Newtonian Technology</text>
</g>
<!-- ext_Trans_Newtonian_Technology&#45;&gt;Fuel_Production_48_000_Litres -->
<g id="edge1" class="edge">
<title>ext_Trans_Newtonian_Technology&#45;&gt;Fuel_Production_48_000_Litres</title>
<path fill="none" stroke="black" d="M82.25,-791.7C82.25,-783.22 82.25,-772.86 82.25,-763.58"/>
<polygon fill="black" stroke="black" points="84.35,-763.62 82.25,-757.62 80.15,-763.62 84.35,-763.62"/>
</g>
</g>
</svg>
