<?xml version="1.0" encoding="UTF-8" standalone="no"?>
<!DOCTYPE svg PUBLIC "-//W3C//DTD SVG 1.1//EN"
 "http://www.w3.org/Graphics/SVG/1.1/DTD/svg11.dtd">
<!-- Generated by graphviz version 14.1.2 (20260124.0452)
 -->
<!-- Title: TechTree Pages: 1 -->
<svg width="206pt" height="717pt"
 viewBox="0.00 0.00 206.00 717.00" xmlns="http://www.w3.org/2000/svg" xmlns:xlink="http://www.w3.org/1999/xlink">
<g id="graph0" class="graph" transform="scale(1 1) rotate(0) translate(4 713)">
<title>TechTree</title>
<polygon fill="white" stroke="none" points="-4,4 -4,-713 202.25,-713 202.25,4 -4,4"/>
<text xml:space="preserve" text-anchor="middle" x="99.12" y="-691.7" font-family="Helvetica,sans-Serif" font-weight="bold" font-size="14.00">Improved Construction Rate</text>
<!-- Construction_Rate_12_BP -->
<g id="node1" class="node">
<title>Construction_Rate_12_BP</title>
<path fill="#cce5ff" stroke="black" d="M149.88,-686C149.88,-686 48.38,-686 48.38,-686 42.37,-686 36.38,-680 36.38,-674 36.38,-674 36.38,-662 36.38,-662 36.38,-656 42.38,-650 48.38,-650 48.38,-650 149.88,-650 149.88,-650 155.88,-650 161.88,-656 161.88,-662 161.88,-662 161.88,-674 161.88,-674 161.88,-680 155.88,-686 149.88,-686"/>
<text xml:space="preserve" text-anchor="middle" x="99.12" y="-669.75" font-family="Helvetica,sans-Serif" font-size="10.00">Construction Rate 12 BP</text>
<text xml:space="preserve" text-anchor="middle" x="99.12" y="-658.5" font-family="Helvetica,sans-Serif" font-size="10.00">3K RP</text>
</g>
<!-- Construction_Rate_14_BP -->
<g id="node2" class="node">
<title>Construction_Rate_14_BP</title>
<path fill="#cce5ff" stroke="black" d="M149.88,-621C149.88,-621 48.38,-621 48.38,-621 42.37,-621 36.38,-615 36.38,-609 36.38,-609 36.38,-597 36.38,-597 36.38,-591 42.38,-585 48.38,-585 48.38,-585 149.88,-585 149.88,-585 155.88,-585 161.88,-591 161.88,-597 161.88,-597 161.88,-609 161.88,-609 161.88,-615 155.88,-621 149.88,-621"/>
<text xml:space="preserve" text-anchor="middle" x="99.12" y="-604.75" font-family="Helvetica,sans-Serif" font-size="10.00">Construction Rate 14 BP</text>
<text xml:space="preserve" text-anchor="middle" x="99.12" y="-593.5" font-family="Helvetica,sans-Serif" font-size="10.00">5K RP</text>
</g>
<!-- Construction_Rate_12_BP&#45;&gt;Construction_Rate_14_BP -->
<g id="edge1" class="edge">
<title>Construction_Rate_12_BP&#45;&gt;Construction_Rate_14_BP</title>
<path fill="none" stroke="black" d="M99.12,-649.78C99.12,-643.53 99.12,-636.33 99.12,-629.52"/>
<polygon fill="black" stroke="black" points="101.58,-629.71 99.13,-622.71 96.68,-629.71 101.58,-629.71"/>
</g>
<!-- Construction_Rate_16_BP -->
<g id="node3" class="node">
<title>Construction_Rate_16_BP</title>
<path fill="#cce5ff" stroke="black" d="M149.88,-556C149.88,-556 48.38,-556 48.38,-556 42.37,-556 36.38,-550 36.38,-544 36.38,-544 36.38,-532 36.38,-532 36.38,-526 42.38,-520 48.38,-520 48.38,-520 149.88,-520 149.88,-520 155.88,-520 161.88,-526 161.88,-532 161.88,-532 161.88,-544 161.88,-544 161.88,-550 155.88,-556 149.88,-556"/>
<text xml:space="preserve" text-anchor="middle" x="99.12" y="-539.75" font-family="Helvetica,sans-Serif" font-size="10.00">Construction Rate 16 BP</text>
<text xml:space="preserve" text-anchor="middle" x="99.12" y="-528.5" font-family="Helvetica,sans-Serif" font-size="10.00">10K RP</text>
</g>
<!-- Construction_Rate_14_BP&#45;&gt;Construction_Rate_16_BP -->
<g id="edge2" class="edge">
<title>Construction_Rate_14_BP&#45;&gt;Construction_Rate_16_BP</title>
<path fill="none" stroke="black" d="M99.12,-584.78C99.12,-578.53 99.12,-571.33 99.12,-564.52"/>
<polygon fill="black" stroke="black" points="101.58,-564.71 99.13,-557.71 96.68,-564.71 101.58,-564.71"/>
</g>
<!-- Construction_Rate_20_BP -->
<g id="node4" class="node">
<title>Construction_Rate_20_BP</title>
<path fill="#fff3cd" stroke="black" d="M149.88,-491C149.88,-491 48.38,-491 48.38,-491 42.37,-491 36.38,-485 36.38,-479 36.38,-479 36.38,-467 36.38,-467 36.38,-461 42.38,-455 48.38,-455 48.38,-455 149.88,-455 149.88,-455 155.88,-455 161.88,-461 161.88,-467 161.88,-467 161.88,-479 161.88,-479 161.88,-485 155.88,-491 149.88,-491"/>
<text xml:space="preserve" text-anchor="middle" x="99.12" y="-474.75" font-family="Helvetica,sans-Serif" font-size="10.00">Construction Rate 20 BP</text>
<text xml:space="preserve" text-anchor="middle" x="99.12" y="-463.5" font-family="Helvetica,sans-Serif" font-size="10.00">20K RP</text>
</g>
<!-- Construction_Rate_16_BP&#45;&gt;Construction_Rate_20_BP -->
<g id="edge3" class="edge">
<title>Construction_Rate_16_BP&#45;&gt;Construction_Rate_20_BP</title>
<path fill="none" stroke="black" d="M99.12,-519.78C99.12,-513.53 99.12,-506.33 99.12,-499.52"/>
<polygon fill="black" stroke="black" points="101.58,-499.71 99.13,-492.71 96.68,-499.71 101.58,-499.71"/>
</g>
<!-- Construction_Rate_25_BP -->
<g id="node5" class="node">
<title>Construction_Rate_25_BP</title>
<path fill="#fff3cd" stroke="black" d="M149.88,-426C149.88,-426 48.38,-426 48.38,-426 42.37,-426 36.38,-420 36.38,-414 36.38,-414 36.38,-402 36.38,-402 36.38,-396 42.38,-390 48.38,-390 48.38,-390 149.88,-390 149.88,-390 155.88,-390 161.88,-396 161.88,-402 161.88,-402 161.88,-414 161.88,-414 161.88,-420 155.88,-426 149.88,-426"/>
<text xml:space="preserve" text-anchor="middle" x="99.12" y="-409.75" font-family="Helvetica,sans-Serif" font-size="10.00">Construction Rate 25 BP</text>
<text xml:space="preserve" text-anchor="middle" x="99.12" y="-398.5" font-family="Helvetica,sans-Serif" font-size="10.00">40K RP</text>
</g>
<!-- Construction_Rate_20_BP&#45;&gt;Construction_Rate_25_BP -->
<g id="edge4" class="edge">
<title>Construction_Rate_20_BP&#45;&gt;Construction_Rate_25_BP</title>
<path fill="none" stroke="black" d="M99.12,-454.78C99.12,-448.53 99.12,-441.33 99.12,-434.52"/>
<polygon fill="black" stroke="black" points="101.58,-434.71 99.13,-427.71 96.68,-434.71 101.58,-434.71"/>
</g>
<!-- Construction_Rate_30_BP -->
<g id="node6" class="node">
<title>Construction_Rate_30_BP</title>
<path fill="#fff3cd" stroke="black" d="M149.88,-361C149.88,-361 48.38,-361 48.38,-361 42.37,-361 36.38,-355 36.38,-349 36.38,-349 36.38,-337 36.38,-337 36.38,-331 42.38,-325 48.38,-325 48.38,-325 149.88,-325 149.88,-325 155.88,-325 161.88,-331 161.88,-337 161.88,-337 161.88,-349 161.88,-349 161.88,-355 155.88,-361 149.88,-361"/>
<text xml:space="preserve" text-anchor="middle" x="99.12" y="-344.75" font-family="Helvetica,sans-Serif" font-size="10.00">Construction Rate 30 BP</text>
<text xml:space="preserve" text-anchor="middle" x="99.12" y="-333.5" font-family="Helvetica,sans-Serif" font-size="10.00">80K RP</text>
</g>
<!-- Construction_Rate_25_BP&#45;&gt;Construction_Rate_30_BP -->
<g id="edge5" class="edge">
<title>Construction_Rate_25_BP&#45;&gt;Construction_Rate_30_BP</title>
<path fill="none" stroke="black" d="M99.12,-389.78C99.12,-383.53 99.12,-376.33 99.12,-369.52"/>
<polygon fill="black" stroke="black" points="101.58,-369.71 99.13,-362.71 96.68,-369.71 101.58,-369.71"/>
</g>
<!-- Construction_Rate_36_BP -->
<g id="node7" class="node">
<title>Construction_Rate_36_BP</title>
<path fill="#d4c4fb" stroke="black" d="M149.88,-296C149.88,-296 48.38,-296 48.38,-296 42.37,-296 36.38,-290 36.38,-284 36.38,-284 36.38,-272 36.38,-272 36.38,-266 42.38,-260 48.38,-260 48.38,-260 149.88,-260 149.88,-260 155.88,-260 161.88,-266 161.88,-272 161.88,-272 161.88,-284 161.88,-284 161.88,-290 155.88,-296 149.88,-296"/>
<text xml:space="preserve" text-anchor="middle" x="99.12" y="-279.75" font-family="Helvetica,sans-Serif" font-size="10.00">Construction Rate 36 BP</text>
<text xml:space="preserve" text-anchor="middle" x="99.12" y="-268.5" font-family="Helvetica,sans-Serif" font-size="10.00">150K RP</text>
</g>
<!-- Construction_Rate_30_BP&#45;&gt;Construction_Rate_36_BP -->
<g id="edge6" class="edge">
<title>Construction_Rate_30_BP&#45;&gt;Construction_Rate_36_BP</title>
<path fill="none" stroke="black" d="M99.12,-324.78C99.12,-318.53 99.12,-311.33 99.12,-304.52"/>
<polygon fill="black" stroke="black" points="101.58,-304.71 99.13,-297.71 96.68,-304.71 101.58,-304.71"/>
</g>
<!-- Construction_Rate_42_BP -->
<g id="node8" class="node">
<title>Construction_Rate_42_BP</title>
<path fill="#d4c4fb" stroke="black" d="M149.88,-231C149.88,-231 48.38,-231 48.38,-231 42.37,-231 36.38,-225 36.38,-219 36.38,-219 36.38,-207 36.38,-207 36.38,-201 42.38,-195 48.38,-195 48.38,-195 149.88,-195 149.88,-195 155.88,-195 161.88,-201 161.88,-207 161.88,-207 161.88,-219 161.88,-219 161.88,-225 155.88,-231 149.88,-231"/>
<text xml:space="preserve" text-anchor="middle" x="99.12" y="-214.75" font-family="Helvetica,sans-Serif" font-size="10.00">Construction Rate 42 BP</text>
<text xml:space="preserve" text-anchor="middle" x="99.12" y="-203.5" font-family="Helvetica,sans-Serif" font-size="10.00">300K RP</text>
</g>
<!-- Construction_Rate_36_BP&#45;&gt;Construction_Rate_42_BP -->
<g id="edge7" class="edge">
<title>Construction_Rate_36_BP&#45;&gt;Construction_Rate_42_BP</title>
<path fill="none" stroke="black" d="M99.12,-259.78C99.12,-253.53 99.12,-246.33 99.12,-239.52"/>
<polygon fill="black" stroke="black" points="101.58,-239.71 99.13,-232.71 96.68,-239.71 101.58,-239.71"/>
</g>
<!-- Construction_Rate_50_BP -->
<g id="node9" class="node">
<title>Construction_Rate_50_BP</title>
<path fill="#d4c4fb" stroke="black" d="M149.88,-166C149.88,-166 48.38,-166 48.38,-166 42.37,-166 36.38,-160 36.38,-154 36.38,-154 36.38,-142 36.38,-142 36.38,-136 42.38,-130 48.38,-130 48.38,-130 149.88,-130 149.88,-130 155.88,-130 161.88,-136 161.88,-142 161.88,-142 161.88,-154 161.88,-154 161.88,-160 155.88,-166 149.88,-166"/>
<text xml:space="preserve" text-anchor="middle" x="99.12" y="-149.75" font-family="Helvetica,sans-Serif" font-size="10.00">Construction Rate 50 BP</text>
<text xml:space="preserve" text-anchor="middle" x="99.12" y="-138.5" font-family="Helvetica,sans-Serif" font-size="10.00">600K RP</text>
</g>
<!-- Construction_Rate_42_BP&#45;&gt;Construction_Rate_50_BP -->
<g id="edge8" class="edge">
<title>Construction_Rate_42_BP&#45;&gt;Construction_Rate_50_BP</title>
<path fill="none" stroke="black" d="M99.12,-194.78C99.12,-188.53 99.12,-181.33 99.12,-174.52"/>
<polygon fill="black" stroke="black" points="101.58,-174.71 99.13,-167.71 96.68,-174.71 101.58,-174.71"/>
</g>
<!-- Construction_Rate_60_BP -->
<g id="node10" class="node">
<title>Construction_Rate_60_BP</title>
<path fill="#f8d7da" stroke="black" d="M149.88,-101C149.88,-101 48.38,-101 48.38,-101 42.37,-101 36.38,-95 36.38,-89 36.38,-89 36.38,-77 36.38,-77 36.38,-71 42.38,-65 48.38,-65 48.38,-65 149.88,-65 149.88,-65 155.88,-65 161.88,-71 161.88,-77 161.88,-77 161.88,-89 161.88,-89 161.88,-95 155.88,-101 149.88,-101"/>
<text xml:space="preserve" text-anchor="middle" x="99.12" y="-84.75" font-family="Helvetica,sans-Serif" font-size="10.00">Construction Rate 60 BP</text>
<text xml:space="preserve" text-anchor="middle" x="99.12" y="-73.5" font-family="Helvetica,sans-Serif" font-size="10.00">1.2M RP</text>
</g>
<!-- Construction_Rate_50_BP&#45;&gt;Construction_Rate_60_BP -->
<g id="edge9" class="edge">
<title>Construction_Rate_50_BP&#45;&gt;Construction_Rate_60_BP</title>
<path fill="none" stroke="black" d="M99.12,-129.78C99.12,-123.53 99.12,-116.33 99.12,-109.52"/>
<polygon fill="black" stroke="black" points="101.58,-109.71 99.13,-102.71 96.68,-109.71 101.58,-109.71"/>
</g>
<!-- Construction_Rate_70_BP -->
<g id="node11" class="node">
<title>Construction_Rate_70_BP</title>
<path fill="#f8d7da" stroke="black" d="M149.88,-36C149.88,-36 48.38,-36 48.38,-36 42.37,-36 36.38,-30 36.38,-24 36.38,-24 36.38,-12 36.38,-12 36.38,-6 42.38,0 48.38,0 48.38,0 149.88,0 149.88,0 155.88,0 161.88,-6 161.88,-12 161.88,-12 161.88,-24 161.88,-24 161.88,-30 155.88,-36 149.88,-36"/>
<text xml:space="preserve" text-anchor="middle" x="99.12" y="-19.75" font-family="Helvetica,sans-Serif" font-size="10.00">Construction Rate 70 BP</text>
<text xml:space="preserve" text-anchor="middle" x="99.12" y="-8.5" font-family="Helvetica,sans-Serif" font-size="10.00">2.5M RP</text>
</g>
<!-- Construction_Rate_60_BP&#45;&gt;Construction_Rate_70_BP -->
<g id="edge10" class="edge">
<title>Construction_Rate_60_BP&#45;&gt;Construction_Rate_70_BP</title>
<path fill="none" stroke="black" d="M99.12,-64.78C99.12,-58.53 99.12,-51.33 99.12,-44.52"/>
<polygon fill="black" stroke="black" points="101.58,-44.71 99.13,-37.71 96.68,-44.71 101.58,-44.71"/>
</g>
</g>
</svg>
