<?xml version="1.0" encoding="UTF-8" standalone="no"?>
<!DOCTYPE svg PUBLIC "-//W3C//DTD SVG 1.1//EN"
 "http://www.w3.org/Graphics/SVG/1.1/DTD/svg11.dtd">
<!-- Generated by graphviz version 14.1.2 (20260124.0452)
 -->
<!-- Title: TechTree Pages: 1 -->
<svg width="210pt" height="717pt"
 viewBox="0.00 0.00 210.00 717.00" xmlns="http://www.w3.org/2000/svg" xmlns:xlink="http://www.w3.org/1999/xlink">
<g id="graph0" class="graph" transform="scale(1 1) rotate(0) translate(4 713)">
<title>TechTree</title>
<polygon fill="white" stroke="none" points="-4,4 -4,-713 206,-713 206,4 -4,4"/>
<text xml:space="preserve" text-anchor="middle" x="101" y="-691.7" font-family="Helvetica,sans-Serif" font-weight="bold" font-size="14.00">Improved Fighter Production</text>
<!-- Fighter_Production_Rate_12_BP -->
<g id="node1" class="node">
<title>Fighter_Production_Rate_12_BP</title>
<path fill="#cce5ff" stroke="black" d="M163.75,-686C163.75,-686 38.25,-686 38.25,-686 32.25,-686 26.25,-680 26.25,-674 26.25,-674 26.25,-662 26.25,-662 26.25,-656 32.25,-650 38.25,-650 38.25,-650 163.75,-650 163.75,-650 169.75,-650 175.75,-656 175.75,-662 175.75,-662 175.75,-674 175.75,-674 175.75,-680 169.75,-686 163.75,-686"/>
<text xml:space="preserve" text-anchor="middle" x="101" y="-669.75" font-family="Helvetica,sans-Serif" font-size="10.00">Fighter Production Rate 12 BP</text>
<text xml:space="preserve" text-anchor="middle" x="101" y="-658.5" font-family="Helvetica,sans-Serif" font-size="10.00">3K RP</text>
</g>
<!-- Fighter_Production_Rate_14_BP -->
<g id="node2" class="node">
<title>Fighter_Production_Rate_14_BP</title>
<path fill="#cce5ff" stroke="black" d="M163.75,-621C163.75,-621 38.25,-621 38.25,-621 32.25,-621 26.25,-615 26.25,-609 26.25,-609 26.25,-597 26.25,-597 26.25,-591 32.25,-585 38.25,-585 38.25,-585 163.75,-585 163.75,-585 169.75,-585 175.75,-591 175.75,-597 175.75,-597 175.75,-609 175.75,-609 175.75,-615 169.75,-621 163.75,-621"/>
<text xml:space="preserve" text-anchor="middle" x="101" y="-604.75" font-family="Helvetica,sans-Serif" font-size="10.00">Fighter Production Rate 14 BP</text>
<text xml:space="preserve" text-anchor="middle" x="101" y="-593.5" font-family="Helvetica,sans-Serif" font-size="10.00">5K RP</text>
</g>
<!-- Fighter_Production_Rate_12_BP&#45;&gt;Fighter_Production_Rate_14_BP -->
<g id="edge1" class="edge">
<title>Fighter_Production_Rate_12_BP&#45;&gt;Fighter_Production_Rate_14_BP</title>
<path fill="none" stroke="black" d="M101,-649.78C101,-643.53 101,-636.33 101,-629.52"/>
<polygon fill="black" stroke="black" points="103.45,-629.71 101,-622.71 98.55,-629.71 103.45,-629.71"/>
</g>
<!-- Fighter_Production_Rate_16_BP -->
<g id="node3" class="node">
<title>Fighter_Production_Rate_16_BP</title>
<path fill="#cce5ff" stroke="black" d="M163.75,-556C163.75,-556 38.25,-556 38.25,-556 32.25,-556 26.25,-550 26.25,-544 26.25,-544 26.25,-532 26.25,-532 26.25,-526 32.25,-520 38.25,-520 38.25,-520 163.75,-520 163.75,-520 169.75,-520 175.75,-526 175.75,-532 175.75,-532 175.75,-544 175.75,-544 175.75,-550 169.75,-556 163.75,-556"/>
<text xml:space="preserve" text-anchor="middle" x="101" y="-539.75" font-family="Helvetica,sans-Serif" font-size="10.00">Fighter Production Rate 16 BP</text>
<text xml:space="preserve" text-anchor="middle" x="101" y="-528.5" font-family="Helvetica,sans-Serif" font-size="10.00">10K RP</text>
</g>
<!-- Fighter_Production_Rate_14_BP&#45;&gt;Fighter_Production_Rate_16_BP -->
<g id="edge2" class="edge">
<title>Fighter_Production_Rate_14_BP&#45;&gt;Fighter_Production_Rate_16_BP</title>
<path fill="none" stroke="black" d="M101,-584.78C101,-578.53 101,-571.33 101,-564.52"/>
<polygon fill="black" stroke="black" points="103.45,-564.71 101,-557.71 98.55,-564.71 103.45,-564.71"/>
</g>
<!-- Fighter_Production_Rate_20_BP -->
<g id="node4" class="node">
<title>Fighter_Production_Rate_20_BP</title>
<path fill="#fff3cd" stroke="black" d="M163.75,-491C163.75,-491 38.25,-491 38.25,-491 32.25,-491 26.25,-485 26.25,-479 26.25,-479 26.25,-467 26.25,-467 26.25,-461 32.25,-455 38.25,-455 38.25,-455 163.75,-455 163.75,-455 169.75,-455 175.75,-461 175.75,-467 175.75,-467 175.75,-479 175.75,-479 175.75,-485 169.75,-491 163.75,-491"/>
<text xml:space="preserve" text-anchor="middle" x="101" y="-474.75" font-family="Helvetica,sans-Serif" font-size="10.00">Fighter Production Rate 20 BP</text>
<text xml:space="preserve" text-anchor="middle" x="101" y="-463.5" font-family="Helvetica,sans-Serif" font-size="10.00">20K RP</text>
</g>
<!-- Fighter_Production_Rate_16_BP&#45;&gt;Fighter_Production_Rate_20_BP -->
<g id="edge3" class="edge">
<title>Fighter_Production_Rate_16_BP&#45;&gt;Fighter_Production_Rate_20_BP</title>
<path fill="none" stroke="black" d="M101,-519.78C101,-513.53 101,-506.33 101,-499.52"/>
<polygon fill="black" stroke="black" points="103.45,-499.71 101,-492.71 98.55,-499.71 103.45,-499.71"/>
</g>
<!-- Fighter_Production_Rate_25_BP -->
<g id="node5" class="node">
<title>Fighter_Production_Rate_25_BP</title>
<path fill="#fff3cd" stroke="black" d="M163.75,-426C163.75,-426 38.25,-426 38.25,-426 32.25,-426 26.25,-420 26.25,-414 26.25,-414 26.25,-402 26.25,-402 26.25,-396 32.25,-390 38.25,-390 38.25,-390 163.75,-390 163.75,-390 169.75,-390 175.75,-396 175.75,-402 175.75,-402 175.75,-414 175.75,-414 175.75,-420 169.75,-426 163.75,-426"/>
<text xml:space="preserve" text-anchor="middle" x="101" y="-409.75" font-family="Helvetica,sans-Serif" font-size="10.00">Fighter Production Rate 25 BP</text>
<text xml:space="preserve" text-anchor="middle" x="101" y="-398.5" font-family="Helvetica,sans-Serif" font-size="10.00">40K RP</text>
</g>
<!-- Fighter_Production_Rate_20_BP&#45;&gt;Fighter_Production_Rate_25_BP -->
<g id="edge4" class="edge">
<title>Fighter_Production_Rate_20_BP&#45;&gt;Fighter_Production_Rate_25_BP</title>
<path fill="none" stroke="black" d="M101,-454.78C101,-448.53 101,-441.33 101,-434.52"/>
<polygon fill="black" stroke="black" points="103.45,-434.71 101,-427.71 98.55,-434.71 103.45,-434.71"/>
</g>
<!-- Fighter_Production_Rate_30_BP -->
<g id="node6" class="node">
<title>Fighter_Production_Rate_30_BP</title>
<path fill="#fff3cd" stroke="black" d="M163.75,-361C163.75,-361 38.25,-361 38.25,-361 32.25,-361 26.25,-355 26.25,-349 26.25,-349 26.25,-337 26.25,-337 26.25,-331 32.25,-325 38.25,-325 38.25,-325 163.75,-325 163.75,-325 169.75,-325 175.75,-331 175.75,-337 175.75,-337 175.75,-349 175.75,-349 175.75,-355 169.75,-361 163.75,-361"/>
<text xml:space="preserve" text-anchor="middle" x="101" y="-344.75" font-family="Helvetica,sans-Serif" font-size="10.00">Fighter Production Rate 30 BP</text>
<text xml:space="preserve" text-anchor="middle" x="101" y="-333.5" font-family="Helvetica,sans-Serif" font-size="10.00">80K RP</text>
</g>
<!-- Fighter_Production_Rate_25_BP&#45;&gt;Fighter_Production_Rate_30_BP -->
<g id="edge5" class="edge">
<title>Fighter_Production_Rate_25_BP&#45;&gt;Fighter_Production_Rate_30_BP</title>
<path fill="none" stroke="black" d="M101,-389.78C101,-383.53 101,-376.33 101,-369.52"/>
<polygon fill="black" stroke="black" points="103.45,-369.71 101,-362.71 98.55,-369.71 103.45,-369.71"/>
</g>
<!-- Fighter_Production_Rate_35_BP -->
<g id="node7" class="node">
<title>Fighter_Production_Rate_35_BP</title>
<path fill="#d4c4fb" stroke="black" d="M163.75,-296C163.75,-296 38.25,-296 38.25,-296 32.25,-296 26.25,-290 26.25,-284 26.25,-284 26.25,-272 26.25,-272 26.25,-266 32.25,-260 38.25,-260 38.25,-260 163.75,-260 163.75,-260 169.75,-260 175.75,-266 175.75,-272 175.75,-272 175.75,-284 175.75,-284 175.75,-290 169.75,-296 163.75,-296"/>
<text xml:space="preserve" text-anchor="middle" x="101" y="-279.75" font-family="Helvetica,sans-Serif" font-size="10.00">Fighter Production Rate 35 BP</text>
<text xml:space="preserve" text-anchor="middle" x="101" y="-268.5" font-family="Helvetica,sans-Serif" font-size="10.00">150K RP</text>
</g>
<!-- Fighter_Production_Rate_30_BP&#45;&gt;Fighter_Production_Rate_35_BP -->
<g id="edge6" class="edge">
<title>Fighter_Production_Rate_30_BP&#45;&gt;Fighter_Production_Rate_35_BP</title>
<path fill="none" stroke="black" d="M101,-324.78C101,-318.53 101,-311.33 101,-304.52"/>
<polygon fill="black" stroke="black" points="103.45,-304.71 101,-297.71 98.55,-304.71 103.45,-304.71"/>
</g>
<!-- Fighter_Production_Rate_40_BP -->
<g id="node8" class="node">
<title>Fighter_Production_Rate_40_BP</title>
<path fill="#d4c4fb" stroke="black" d="M163.75,-231C163.75,-231 38.25,-231 38.25,-231 32.25,-231 26.25,-225 26.25,-219 26.25,-219 26.25,-207 26.25,-207 26.25,-201 32.25,-195 38.25,-195 38.25,-195 163.75,-195 163.75,-195 169.75,-195 175.75,-201 175.75,-207 175.75,-207 175.75,-219 175.75,-219 175.75,-225 169.75,-231 163.75,-231"/>
<text xml:space="preserve" text-anchor="middle" x="101" y="-214.75" font-family="Helvetica,sans-Serif" font-size="10.00">Fighter Production Rate 40 BP</text>
<text xml:space="preserve" text-anchor="middle" x="101" y="-203.5" font-family="Helvetica,sans-Serif" font-size="10.00">300K RP</text>
</g>
<!-- Fighter_Production_Rate_35_BP&#45;&gt;Fighter_Production_Rate_40_BP -->
<g id="edge7" class="edge">
<title>Fighter_Production_Rate_35_BP&#45;&gt;Fighter_Production_Rate_40_BP</title>
<path fill="none" stroke="black" d="M101,-259.78C101,-253.53 101,-246.33 101,-239.52"/>
<polygon fill="black" stroke="black" points="103.45,-239.71 101,-232.71 98.55,-239.71 103.45,-239.71"/>
</g>
<!-- Fighter_Production_Rate_50_BP -->
<g id="node9" class="node">
<title>Fighter_Production_Rate_50_BP</title>
<path fill="#d4c4fb" stroke="black" d="M163.75,-166C163.75,-166 38.25,-166 38.25,-166 32.25,-166 26.25,-160 26.25,-154 26.25,-154 26.25,-142 26.25,-142 26.25,-136 32.25,-130 38.25,-130 38.25,-130 163.75,-130 163.75,-130 169.75,-130 175.75,-136 175.75,-142 175.75,-142 175.75,-154 175.75,-154 175.75,-160 169.75,-166 163.75,-166"/>
<text xml:space="preserve" text-anchor="middle" x="101" y="-149.75" font-family="Helvetica,sans-Serif" font-size="10.00">Fighter Production Rate 50 BP</text>
<text xml:space="preserve" text-anchor="middle" x="101" y="-138.5" font-family="Helvetica,sans-Serif" font-size="10.00">600K RP</text>
</g>
<!-- Fighter_Production_Rate_40_BP&#45;&gt;Fighter_Production_Rate_50_BP -->
<g id="edge8" class="edge">
<title>Fighter_Production_Rate_40_BP&#45;&gt;Fighter_Production_Rate_50_BP</title>
<path fill="none" stroke="black" d="M101,-194.78C101,-188.53 101,-181.33 101,-174.52"/>
<polygon fill="black" stroke="black" points="103.45,-174.71 101,-167.71 98.55,-174.71 103.45,-174.71"/>
</g>
<!-- Fighter_Production_Rate_60_BP -->
<g id="node10" class="node">
<title>Fighter_Production_Rate_60_BP</title>
<path fill="#f8d7da" stroke="black" d="M163.75,-101C163.75,-101 38.25,-101 38.25,-101 32.25,-101 26.25,-95 26.25,-89 26.25,-89 26.25,-77 26.25,-77 26.25,-71 32.25,-65 38.25,-65 38.25,-65 163.75,-65 163.75,-65 169.75,-65 175.75,-71 175.75,-77 175.75,-77 175.75,-89 175.75,-89 175.75,-95 169.75,-101 163.75,-101"/>
<text xml:space="preserve" text-anchor="middle" x="101" y="-84.75" font-family="Helvetica,sans-Serif" font-size="10.00">Fighter Production Rate 60 BP</text>
<text xml:space="preserve" text-anchor="middle" x="101" y="-73.5" font-family="Helvetica,sans-Serif" font-size="10.00">1.2M RP</text>
</g>
<!-- Fighter_Production_Rate_50_BP&#45;&gt;Fighter_Production_Rate_60_BP -->
<g id="edge9" class="edge">
<title>Fighter_Production_Rate_50_BP&#45;&gt;Fighter_Production_Rate_60_BP</title>
<path fill="none" stroke="black" d="M101,-129.78C101,-123.53 101,-116.33 101,-109.52"/>
<polygon fill="black" stroke="black" points="103.45,-109.71 101,-102.71 98.55,-109.71 103.45,-109.71"/>
</g>
<!-- Fighter_Production_Rate_70_BP -->
<g id="node11" class="node">
<title>Fighter_Production_Rate_70_BP</title>
<path fill="#f8d7da" stroke="black" d="M163.75,-36C163.75,-36 38.25,-36 38.25,-36 32.25,-36 26.25,-30 26.25,-24 26.25,-24 26.25,-12 26.25,-12 26.25,-6 32.25,0 38.25,0 38.25,0 163.75,0 163.75,0 169.75,0 175.75,-6 175.75,-12 175.75,-12 175.75,-24 175.75,-24 175.75,-30 169.75,-36 163.75,-36"/>
<text xml:space="preserve" text-anchor="middle" x="101" y="-19.75" font-family="Helvetica,sans-Serif" font-size="10.00">Fighter Production Rate 70 BP</text>
<text xml:space="preserve" text-anchor="middle" x="101" y="-8.5" font-family="Helvetica,sans-Serif" font-size="10.00">2.5M RP</text>
</g>
<!-- Fighter_Production_Rate_60_BP&#45;&gt;Fighter_Production_Rate_70_BP -->
<g id="edge10" class="edge">
<title>Fighter_Production_Rate_60_BP&#45;&gt;Fighter_Production_Rate_70_BP</title>
<path fill="none" stroke="black" d="M101,-64.78C101,-58.53 101,-51.33 101,-44.52"/>
<polygon fill="black" stroke="black" points="103.45,-44.71 101,-37.71 98.55,-44.71 103.45,-44.71"/>
</g>
</g>
</svg>
