<?xml version="1.0" encoding="UTF-8" standalone="no"?>
<!DOCTYPE svg PUBLIC "-//W3C//DTD SVG 1.1//EN"
 "http://www.w3.org/Graphics/SVG/1.1/DTD/svg11.dtd">
<!-- Generated by graphviz version 14.1.2 (20260124.0452)
 -->
<!-- Title: TechTree Pages: 1 -->
<svg width="296pt" height="209pt"
 viewBox="0.00 0.00 296.00 209.00" xmlns="http://www.w3.org/2000/svg" xmlns:xlink="http://www.w3.org/1999/xlink">
<g id="graph0" class="graph" transform="scale(1 1) rotate(0) translate(4 204.75)">
<title>TechTree</title>
<polygon fill="white" stroke="none" points="-4,4 -4,-204.75 291.88,-204.75 291.88,4 -4,4"/>
<text xml:space="preserve" text-anchor="middle" x="143.94" y="-185.35" font-family="Helvetica,sans-Serif" font-weight="bold" font-size="12.00">Infantry Armour Type</text>
<!-- Light_Infantry_Armour__ARM_1 -->
<g id="node1" class="node">
<title>Light_Infantry_Armour__ARM_1</title>
<path fill="#d4edda" stroke="black" d="M121.75,-180C121.75,-180 12,-180 12,-180 6,-180 0,-174 0,-168 0,-168 0,-156 0,-156 0,-150 6,-144 12,-144 12,-144 121.75,-144 121.75,-144 127.75,-144 133.75,-150 133.75,-156 133.75,-156 133.75,-168 133.75,-168 133.75,-174 127.75,-180 121.75,-180"/>
<text xml:space="preserve" text-anchor="middle" x="66.88" y="-163.2" font-family="Helvetica,sans-Serif" font-size="9.00">Light Infantry Armour&#45; ARM 1</text>
<text xml:space="preserve" text-anchor="middle" x="66.88" y="-153.45" font-family="Helvetica,sans-Serif" font-size="9.00">500 RP</text>
</g>
<!-- Powered_Infantry_Armour___ARM_ -->
<g id="node2" class="node">
<title>Powered_Infantry_Armour___ARM_</title>
<path fill="#cce5ff" stroke="black" d="M210.88,-108C210.88,-108 74.88,-108 74.88,-108 68.88,-108 62.88,-102 62.88,-96 62.88,-96 62.88,-84 62.88,-84 62.88,-78 68.88,-72 74.88,-72 74.88,-72 210.88,-72 210.88,-72 216.88,-72 222.88,-78 222.88,-84 222.88,-84 222.88,-96 222.88,-96 222.88,-102 216.88,-108 210.88,-108"/>
<text xml:space="preserve" text-anchor="middle" x="142.88" y="-91.2" font-family="Helvetica,sans-Serif" font-size="9.00">Powered Infantry Armour &#45; ARM 1.5</text>
<text xml:space="preserve" text-anchor="middle" x="142.88" y="-81.45" font-family="Helvetica,sans-Serif" font-size="9.00">1K RP</text>
</g>
<!-- Light_Infantry_Armour__ARM_1&#45;&gt;Powered_Infantry_Armour___ARM_ -->
<g id="edge1" class="edge">
<title>Light_Infantry_Armour__ARM_1&#45;&gt;Powered_Infantry_Armour___ARM_</title>
<path fill="none" stroke="black" d="M85.66,-143.7C95.62,-134.53 107.96,-123.16 118.63,-113.33"/>
<polygon fill="black" stroke="black" points="119.94,-114.98 122.93,-109.37 117.09,-111.89 119.94,-114.98"/>
</g>
<!-- Heavy_Powered_Infantry_Armour_ -->
<g id="node3" class="node">
<title>Heavy_Powered_Infantry_Armour_</title>
<path fill="#cce5ff" stroke="black" d="M221.38,-36C221.38,-36 64.38,-36 64.38,-36 58.38,-36 52.38,-30 52.38,-24 52.38,-24 52.38,-12 52.38,-12 52.38,-6 58.38,0 64.38,0 64.38,0 221.38,0 221.38,0 227.38,0 233.38,-6 233.38,-12 233.38,-12 233.38,-24 233.38,-24 233.38,-30 227.38,-36 221.38,-36"/>
<text xml:space="preserve" text-anchor="middle" x="142.88" y="-19.2" font-family="Helvetica,sans-Serif" font-size="9.00">Heavy Powered Infantry Armour &#45; ARM 2</text>
<text xml:space="preserve" text-anchor="middle" x="142.88" y="-9.45" font-family="Helvetica,sans-Serif" font-size="9.00">2K RP</text>
</g>
<!-- Powered_Infantry_Armour___ARM_&#45;&gt;Heavy_Powered_Infantry_Armour_ -->
<g id="edge3" class="edge">
<title>Powered_Infantry_Armour___ARM_&#45;&gt;Heavy_Powered_Infantry_Armour_</title>
<path fill="none" stroke="black" d="M142.88,-71.7C142.88,-63.22 142.88,-52.86 142.88,-43.58"/>
<polygon fill="black" stroke="black" points="144.98,-43.62 142.88,-37.62 140.78,-43.62 144.98,-43.62"/>
</g>
<!-- ext_Trans_Newtonian_Technology -->
<g id="node4" class="node">
<title>ext_Trans_Newtonian_Technology</title>
<path fill="#f0f0f0" stroke="black" stroke-dasharray="5,2" d="M275.88,-180C275.88,-180 163.88,-180 163.88,-180 157.88,-180 151.88,-174 151.88,-168 151.88,-168 151.88,-156 151.88,-156 151.88,-150 157.88,-144 163.88,-144 163.88,-144 275.88,-144 275.88,-144 281.88,-144 287.88,-150 287.88,-156 287.88,-156 287.88,-168 287.88,-168 287.88,-174 281.88,-180 275.88,-180"/>
<text xml:space="preserve" text-anchor="middle" x="219.88" y="-158.32" font-family="Helvetica,sans-Serif" font-size="9.00">Trans&#45;Newtonian Technology</text>
</g>
<!-- ext_Trans_Newtonian_Technology&#45;&gt;Powered_Infantry_Armour___ARM_ -->
<g id="edge2" class="edge">
<title>ext_Trans_Newtonian_Technology&#45;&gt;Powered_Infantry_Armour___ARM_</title>
<path fill="none" stroke="black" d="M200.84,-143.7C190.75,-134.53 178.25,-123.16 167.43,-113.33"/>
<polygon fill="black" stroke="black" points="168.93,-111.85 163.08,-109.37 166.1,-114.95 168.93,-111.85"/>
</g>
</g>
</svg>
