<?xml version="1.0" encoding="UTF-8" standalone="no"?>
<!DOCTYPE svg PUBLIC "-//W3C//DTD SVG 1.1//EN"
 "http://www.w3.org/Graphics/SVG/1.1/DTD/svg11.dtd">
<!-- Generated by graphviz version 14.1.2 (20260124.0452)
 -->
<!-- Title: TechTree Pages: 1 -->
<svg width="575pt" height="67pt"
 viewBox="0.00 0.00 575.00 67.00" xmlns="http://www.w3.org/2000/svg" xmlns:xlink="http://www.w3.org/1999/xlink">
<g id="graph0" class="graph" transform="scale(1 1) rotate(0) translate(4 63)">
<title>TechTree</title>
<polygon fill="white" stroke="none" points="-4,4 -4,-63 570.5,-63 570.5,4 -4,4"/>
<text xml:space="preserve" text-anchor="middle" x="283.25" y="-41.7" font-family="Helvetica,sans-Serif" font-weight="bold" font-size="14.00">Infantry Armour Type</text>
<!-- Light_Infantry_Armour__ARM_1 -->
<g id="node1" class="node">
<title>Light_Infantry_Armour__ARM_1</title>
<path fill="#d4edda" stroke="black" d="M130.75,-36C130.75,-36 12,-36 12,-36 6,-36 0,-30 0,-24 0,-24 0,-12 0,-12 0,-6 6,0 12,0 12,0 130.75,0 130.75,0 136.75,0 142.75,-6 142.75,-12 142.75,-12 142.75,-24 142.75,-24 142.75,-30 136.75,-36 130.75,-36"/>
<text xml:space="preserve" text-anchor="middle" x="71.38" y="-19.75" font-family="Helvetica,sans-Serif" font-size="10.00">Light Infantry Armour&#45; ARM 1</text>
<text xml:space="preserve" text-anchor="middle" x="71.38" y="-8.5" font-family="Helvetica,sans-Serif" font-size="10.00">500 RP</text>
</g>
<!-- Powered_Infantry_Armour___ARM_ -->
<g id="node2" class="node">
<title>Powered_Infantry_Armour___ARM_</title>
<path fill="#cce5ff" stroke="black" d="M331,-36C331,-36 183.75,-36 183.75,-36 177.75,-36 171.75,-30 171.75,-24 171.75,-24 171.75,-12 171.75,-12 171.75,-6 177.75,0 183.75,0 183.75,0 331,0 331,0 337,0 343,-6 343,-12 343,-12 343,-24 343,-24 343,-30 337,-36 331,-36"/>
<text xml:space="preserve" text-anchor="middle" x="257.38" y="-19.75" font-family="Helvetica,sans-Serif" font-size="10.00">Powered Infantry Armour &#45; ARM 1.5</text>
<text xml:space="preserve" text-anchor="middle" x="257.38" y="-8.5" font-family="Helvetica,sans-Serif" font-size="10.00">1K RP</text>
</g>
<!-- Light_Infantry_Armour__ARM_1&#45;&gt;Powered_Infantry_Armour___ARM_ -->
<g id="edge1" class="edge">
<title>Light_Infantry_Armour__ARM_1&#45;&gt;Powered_Infantry_Armour___ARM_</title>
<path fill="none" stroke="black" d="M142.99,-18C149.54,-18 156.25,-18 162.97,-18"/>
<polygon fill="black" stroke="black" points="162.96,-20.45 169.96,-18 162.96,-15.55 162.96,-20.45"/>
</g>
<!-- Heavy_Powered_Infantry_Armour_ -->
<g id="node3" class="node">
<title>Heavy_Powered_Infantry_Armour_</title>
<path fill="#cce5ff" stroke="black" d="M554.5,-36C554.5,-36 384,-36 384,-36 378,-36 372,-30 372,-24 372,-24 372,-12 372,-12 372,-6 378,0 384,0 384,0 554.5,0 554.5,0 560.5,0 566.5,-6 566.5,-12 566.5,-12 566.5,-24 566.5,-24 566.5,-30 560.5,-36 554.5,-36"/>
<text xml:space="preserve" text-anchor="middle" x="469.25" y="-19.75" font-family="Helvetica,sans-Serif" font-size="10.00">Heavy Powered Infantry Armour &#45; ARM 2</text>
<text xml:space="preserve" text-anchor="middle" x="469.25" y="-8.5" font-family="Helvetica,sans-Serif" font-size="10.00">2K RP</text>
</g>
<!-- Powered_Infantry_Armour___ARM_&#45;&gt;Heavy_Powered_Infantry_Armour_ -->
<g id="edge2" class="edge">
<title>Powered_Infantry_Armour___ARM_&#45;&gt;Heavy_Powered_Infantry_Armour_</title>
<path fill="none" stroke="black" d="M343.44,-18C349.99,-18 356.65,-18 363.31,-18"/>
<polygon fill="black" stroke="black" points="363.22,-20.45 370.22,-18 363.22,-15.55 363.22,-20.45"/>
</g>
</g>
</svg>
