<?xml version="1.0" encoding="UTF-8" standalone="no"?>
<!DOCTYPE svg PUBLIC "-//W3C//DTD SVG 1.1//EN"
 "http://www.w3.org/Graphics/SVG/1.1/DTD/svg11.dtd">
<!-- Generated by graphviz version 14.1.2 (20260124.0452)
 -->
<!-- Title: TechTree Pages: 1 -->
<svg width="166pt" height="652pt"
 viewBox="0.00 0.00 166.00 652.00" xmlns="http://www.w3.org/2000/svg" xmlns:xlink="http://www.w3.org/1999/xlink">
<g id="graph0" class="graph" transform="scale(1 1) rotate(0) translate(4 648)">
<title>TechTree</title>
<polygon fill="white" stroke="none" points="-4,4 -4,-648 161.75,-648 161.75,4 -4,4"/>
<text xml:space="preserve" text-anchor="middle" x="78.88" y="-626.7" font-family="Helvetica,sans-Serif" font-weight="bold" font-size="14.00">Jump Drive Efficiency</text>
<!-- Base_Jump_Drive_Efficiency_4 -->
<g id="node1" class="node">
<title>Base_Jump_Drive_Efficiency_4</title>
<path fill="#cce5ff" stroke="black" d="M140.12,-621C140.12,-621 17.62,-621 17.62,-621 11.62,-621 5.62,-615 5.62,-609 5.62,-609 5.62,-597 5.62,-597 5.62,-591 11.62,-585 17.62,-585 17.62,-585 140.12,-585 140.12,-585 146.12,-585 152.12,-591 152.12,-597 152.12,-597 152.12,-609 152.12,-609 152.12,-615 146.12,-621 140.12,-621"/>
<text xml:space="preserve" text-anchor="middle" x="78.88" y="-604.75" font-family="Helvetica,sans-Serif" font-size="10.00">Base Jump Drive Efficiency 4</text>
<text xml:space="preserve" text-anchor="middle" x="78.88" y="-593.5" font-family="Helvetica,sans-Serif" font-size="10.00">1K RP</text>
</g>
<!-- Base_Jump_Drive_Efficiency_5 -->
<g id="node2" class="node">
<title>Base_Jump_Drive_Efficiency_5</title>
<path fill="#cce5ff" stroke="black" d="M140.12,-556C140.12,-556 17.62,-556 17.62,-556 11.62,-556 5.62,-550 5.62,-544 5.62,-544 5.62,-532 5.62,-532 5.62,-526 11.62,-520 17.62,-520 17.62,-520 140.12,-520 140.12,-520 146.12,-520 152.12,-526 152.12,-532 152.12,-532 152.12,-544 152.12,-544 152.12,-550 146.12,-556 140.12,-556"/>
<text xml:space="preserve" text-anchor="middle" x="78.88" y="-539.75" font-family="Helvetica,sans-Serif" font-size="10.00">Base Jump Drive Efficiency 5</text>
<text xml:space="preserve" text-anchor="middle" x="78.88" y="-528.5" font-family="Helvetica,sans-Serif" font-size="10.00">2K RP</text>
</g>
<!-- Base_Jump_Drive_Efficiency_4&#45;&gt;Base_Jump_Drive_Efficiency_5 -->
<g id="edge1" class="edge">
<title>Base_Jump_Drive_Efficiency_4&#45;&gt;Base_Jump_Drive_Efficiency_5</title>
<path fill="none" stroke="black" d="M78.88,-584.78C78.88,-578.53 78.88,-571.33 78.88,-564.52"/>
<polygon fill="black" stroke="black" points="81.33,-564.71 78.88,-557.71 76.43,-564.71 81.33,-564.71"/>
</g>
<!-- Base_Jump_Drive_Efficiency_6 -->
<g id="node3" class="node">
<title>Base_Jump_Drive_Efficiency_6</title>
<path fill="#cce5ff" stroke="black" d="M140.12,-491C140.12,-491 17.62,-491 17.62,-491 11.62,-491 5.62,-485 5.62,-479 5.62,-479 5.62,-467 5.62,-467 5.62,-461 11.62,-455 17.62,-455 17.62,-455 140.12,-455 140.12,-455 146.12,-455 152.12,-461 152.12,-467 152.12,-467 152.12,-479 152.12,-479 152.12,-485 146.12,-491 140.12,-491"/>
<text xml:space="preserve" text-anchor="middle" x="78.88" y="-474.75" font-family="Helvetica,sans-Serif" font-size="10.00">Base Jump Drive Efficiency 6</text>
<text xml:space="preserve" text-anchor="middle" x="78.88" y="-463.5" font-family="Helvetica,sans-Serif" font-size="10.00">4K RP</text>
</g>
<!-- Base_Jump_Drive_Efficiency_5&#45;&gt;Base_Jump_Drive_Efficiency_6 -->
<g id="edge2" class="edge">
<title>Base_Jump_Drive_Efficiency_5&#45;&gt;Base_Jump_Drive_Efficiency_6</title>
<path fill="none" stroke="black" d="M78.88,-519.78C78.88,-513.53 78.88,-506.33 78.88,-499.52"/>
<polygon fill="black" stroke="black" points="81.33,-499.71 78.88,-492.71 76.43,-499.71 81.33,-499.71"/>
</g>
<!-- Base_Jump_Drive_Efficiency_8 -->
<g id="node4" class="node">
<title>Base_Jump_Drive_Efficiency_8</title>
<path fill="#cce5ff" stroke="black" d="M140.12,-426C140.12,-426 17.62,-426 17.62,-426 11.62,-426 5.62,-420 5.62,-414 5.62,-414 5.62,-402 5.62,-402 5.62,-396 11.62,-390 17.62,-390 17.62,-390 140.12,-390 140.12,-390 146.12,-390 152.12,-396 152.12,-402 152.12,-402 152.12,-414 152.12,-414 152.12,-420 146.12,-426 140.12,-426"/>
<text xml:space="preserve" text-anchor="middle" x="78.88" y="-409.75" font-family="Helvetica,sans-Serif" font-size="10.00">Base Jump Drive Efficiency 8</text>
<text xml:space="preserve" text-anchor="middle" x="78.88" y="-398.5" font-family="Helvetica,sans-Serif" font-size="10.00">8K RP</text>
</g>
<!-- Base_Jump_Drive_Efficiency_6&#45;&gt;Base_Jump_Drive_Efficiency_8 -->
<g id="edge3" class="edge">
<title>Base_Jump_Drive_Efficiency_6&#45;&gt;Base_Jump_Drive_Efficiency_8</title>
<path fill="none" stroke="black" d="M78.88,-454.78C78.88,-448.53 78.88,-441.33 78.88,-434.52"/>
<polygon fill="black" stroke="black" points="81.33,-434.71 78.88,-427.71 76.43,-434.71 81.33,-434.71"/>
</g>
<!-- Base_Jump_Drive_Efficiency_10 -->
<g id="node5" class="node">
<title>Base_Jump_Drive_Efficiency_10</title>
<path fill="#fff3cd" stroke="black" d="M142.75,-361C142.75,-361 15,-361 15,-361 9,-361 3,-355 3,-349 3,-349 3,-337 3,-337 3,-331 9,-325 15,-325 15,-325 142.75,-325 142.75,-325 148.75,-325 154.75,-331 154.75,-337 154.75,-337 154.75,-349 154.75,-349 154.75,-355 148.75,-361 142.75,-361"/>
<text xml:space="preserve" text-anchor="middle" x="78.88" y="-344.75" font-family="Helvetica,sans-Serif" font-size="10.00">Base Jump Drive Efficiency 10</text>
<text xml:space="preserve" text-anchor="middle" x="78.88" y="-333.5" font-family="Helvetica,sans-Serif" font-size="10.00">15K RP</text>
</g>
<!-- Base_Jump_Drive_Efficiency_8&#45;&gt;Base_Jump_Drive_Efficiency_10 -->
<g id="edge4" class="edge">
<title>Base_Jump_Drive_Efficiency_8&#45;&gt;Base_Jump_Drive_Efficiency_10</title>
<path fill="none" stroke="black" d="M78.88,-389.78C78.88,-383.53 78.88,-376.33 78.88,-369.52"/>
<polygon fill="black" stroke="black" points="81.33,-369.71 78.88,-362.71 76.43,-369.71 81.33,-369.71"/>
</g>
<!-- Base_Jump_Drive_Efficiency_12 -->
<g id="node6" class="node">
<title>Base_Jump_Drive_Efficiency_12</title>
<path fill="#fff3cd" stroke="black" d="M142.75,-296C142.75,-296 15,-296 15,-296 9,-296 3,-290 3,-284 3,-284 3,-272 3,-272 3,-266 9,-260 15,-260 15,-260 142.75,-260 142.75,-260 148.75,-260 154.75,-266 154.75,-272 154.75,-272 154.75,-284 154.75,-284 154.75,-290 148.75,-296 142.75,-296"/>
<text xml:space="preserve" text-anchor="middle" x="78.88" y="-279.75" font-family="Helvetica,sans-Serif" font-size="10.00">Base Jump Drive Efficiency 12</text>
<text xml:space="preserve" text-anchor="middle" x="78.88" y="-268.5" font-family="Helvetica,sans-Serif" font-size="10.00">30K RP</text>
</g>
<!-- Base_Jump_Drive_Efficiency_10&#45;&gt;Base_Jump_Drive_Efficiency_12 -->
<g id="edge5" class="edge">
<title>Base_Jump_Drive_Efficiency_10&#45;&gt;Base_Jump_Drive_Efficiency_12</title>
<path fill="none" stroke="black" d="M78.88,-324.78C78.88,-318.53 78.88,-311.33 78.88,-304.52"/>
<polygon fill="black" stroke="black" points="81.33,-304.71 78.88,-297.71 76.43,-304.71 81.33,-304.71"/>
</g>
<!-- Base_Jump_Drive_Efficiency_15 -->
<g id="node7" class="node">
<title>Base_Jump_Drive_Efficiency_15</title>
<path fill="#fff3cd" stroke="black" d="M142.75,-231C142.75,-231 15,-231 15,-231 9,-231 3,-225 3,-219 3,-219 3,-207 3,-207 3,-201 9,-195 15,-195 15,-195 142.75,-195 142.75,-195 148.75,-195 154.75,-201 154.75,-207 154.75,-207 154.75,-219 154.75,-219 154.75,-225 148.75,-231 142.75,-231"/>
<text xml:space="preserve" text-anchor="middle" x="78.88" y="-214.75" font-family="Helvetica,sans-Serif" font-size="10.00">Base Jump Drive Efficiency 15</text>
<text xml:space="preserve" text-anchor="middle" x="78.88" y="-203.5" font-family="Helvetica,sans-Serif" font-size="10.00">60K RP</text>
</g>
<!-- Base_Jump_Drive_Efficiency_12&#45;&gt;Base_Jump_Drive_Efficiency_15 -->
<g id="edge6" class="edge">
<title>Base_Jump_Drive_Efficiency_12&#45;&gt;Base_Jump_Drive_Efficiency_15</title>
<path fill="none" stroke="black" d="M78.88,-259.78C78.88,-253.53 78.88,-246.33 78.88,-239.52"/>
<polygon fill="black" stroke="black" points="81.33,-239.71 78.88,-232.71 76.43,-239.71 81.33,-239.71"/>
</g>
<!-- Base_Jump_Drive_Efficiency_18 -->
<g id="node8" class="node">
<title>Base_Jump_Drive_Efficiency_18</title>
<path fill="#d4c4fb" stroke="black" d="M142.75,-166C142.75,-166 15,-166 15,-166 9,-166 3,-160 3,-154 3,-154 3,-142 3,-142 3,-136 9,-130 15,-130 15,-130 142.75,-130 142.75,-130 148.75,-130 154.75,-136 154.75,-142 154.75,-142 154.75,-154 154.75,-154 154.75,-160 148.75,-166 142.75,-166"/>
<text xml:space="preserve" text-anchor="middle" x="78.88" y="-149.75" font-family="Helvetica,sans-Serif" font-size="10.00">Base Jump Drive Efficiency 18</text>
<text xml:space="preserve" text-anchor="middle" x="78.88" y="-138.5" font-family="Helvetica,sans-Serif" font-size="10.00">120K RP</text>
</g>
<!-- Base_Jump_Drive_Efficiency_15&#45;&gt;Base_Jump_Drive_Efficiency_18 -->
<g id="edge7" class="edge">
<title>Base_Jump_Drive_Efficiency_15&#45;&gt;Base_Jump_Drive_Efficiency_18</title>
<path fill="none" stroke="black" d="M78.88,-194.78C78.88,-188.53 78.88,-181.33 78.88,-174.52"/>
<polygon fill="black" stroke="black" points="81.33,-174.71 78.88,-167.71 76.43,-174.71 81.33,-174.71"/>
</g>
<!-- Base_Jump_Drive_Efficiency_21 -->
<g id="node9" class="node">
<title>Base_Jump_Drive_Efficiency_21</title>
<path fill="#d4c4fb" stroke="black" d="M142.75,-101C142.75,-101 15,-101 15,-101 9,-101 3,-95 3,-89 3,-89 3,-77 3,-77 3,-71 9,-65 15,-65 15,-65 142.75,-65 142.75,-65 148.75,-65 154.75,-71 154.75,-77 154.75,-77 154.75,-89 154.75,-89 154.75,-95 148.75,-101 142.75,-101"/>
<text xml:space="preserve" text-anchor="middle" x="78.88" y="-84.75" font-family="Helvetica,sans-Serif" font-size="10.00">Base Jump Drive Efficiency 21</text>
<text xml:space="preserve" text-anchor="middle" x="78.88" y="-73.5" font-family="Helvetica,sans-Serif" font-size="10.00">240K RP</text>
</g>
<!-- Base_Jump_Drive_Efficiency_18&#45;&gt;Base_Jump_Drive_Efficiency_21 -->
<g id="edge8" class="edge">
<title>Base_Jump_Drive_Efficiency_18&#45;&gt;Base_Jump_Drive_Efficiency_21</title>
<path fill="none" stroke="black" d="M78.88,-129.78C78.88,-123.53 78.88,-116.33 78.88,-109.52"/>
<polygon fill="black" stroke="black" points="81.33,-109.71 78.88,-102.71 76.43,-109.71 81.33,-109.71"/>
</g>
<!-- Base_Jump_Drive_Efficiency_25 -->
<g id="node10" class="node">
<title>Base_Jump_Drive_Efficiency_25</title>
<path fill="#d4c4fb" stroke="black" d="M142.75,-36C142.75,-36 15,-36 15,-36 9,-36 3,-30 3,-24 3,-24 3,-12 3,-12 3,-6 9,0 15,0 15,0 142.75,0 142.75,0 148.75,0 154.75,-6 154.75,-12 154.75,-12 154.75,-24 154.75,-24 154.75,-30 148.75,-36 142.75,-36"/>
<text xml:space="preserve" text-anchor="middle" x="78.88" y="-19.75" font-family="Helvetica,sans-Serif" font-size="10.00">Base Jump Drive Efficiency 25</text>
<text xml:space="preserve" text-anchor="middle" x="78.88" y="-8.5" font-family="Helvetica,sans-Serif" font-size="10.00">500K RP</text>
</g>
<!-- Base_Jump_Drive_Efficiency_21&#45;&gt;Base_Jump_Drive_Efficiency_25 -->
<g id="edge9" class="edge">
<title>Base_Jump_Drive_Efficiency_21&#45;&gt;Base_Jump_Drive_Efficiency_25</title>
<path fill="none" stroke="black" d="M78.88,-64.78C78.88,-58.53 78.88,-51.33 78.88,-44.52"/>
<polygon fill="black" stroke="black" points="81.33,-44.71 78.88,-37.71 76.43,-44.71 81.33,-44.71"/>
</g>
</g>
</svg>
