<?xml version="1.0" encoding="UTF-8" standalone="no"?>
<!DOCTYPE svg PUBLIC "-//W3C//DTD SVG 1.1//EN"
 "http://www.w3.org/Graphics/SVG/1.1/DTD/svg11.dtd">
<!-- Generated by graphviz version 14.1.2 (20260124.0452)
 -->
<!-- Title: TechTree Pages: 1 -->
<svg width="339pt" height="132pt"
 viewBox="0.00 0.00 339.00 132.00" xmlns="http://www.w3.org/2000/svg" xmlns:xlink="http://www.w3.org/1999/xlink">
<g id="graph0" class="graph" transform="scale(1 1) rotate(0) translate(4 128)">
<title>TechTree</title>
<polygon fill="white" stroke="none" points="-4,4 -4,-128 334.88,-128 334.88,4 -4,4"/>
<text xml:space="preserve" text-anchor="middle" x="165.44" y="-106.7" font-family="Helvetica,sans-Serif" font-weight="bold" font-size="14.00">Jump Gate Construction Module</text>
<!-- Jump_Point_Stabilisation_Modul -->
<g id="node1" class="node">
<title>Jump_Point_Stabilisation_Modul</title>
<path fill="#d4c4fb" stroke="black" d="M164.88,-101C164.88,-101 19.12,-101 19.12,-101 13.12,-101 7.12,-95 7.12,-89 7.12,-89 7.12,-77 7.12,-77 7.12,-71 13.12,-65 19.12,-65 19.12,-65 164.88,-65 164.88,-65 170.88,-65 176.88,-71 176.88,-77 176.88,-77 176.88,-89 176.88,-89 176.88,-95 170.88,-101 164.88,-101"/>
<text xml:space="preserve" text-anchor="middle" x="92" y="-84.75" font-family="Helvetica,sans-Serif" font-size="10.00">Jump Point Stabilisation Module 20</text>
<text xml:space="preserve" text-anchor="middle" x="92" y="-73.5" font-family="Helvetica,sans-Serif" font-size="10.00">600K RP</text>
</g>
<!-- Jump_Point_Stabilisation_Modul&#45;&gt;Jump_Point_Stabilisation_Modul -->
<g id="edge2" class="edge">
<title>Jump_Point_Stabilisation_Modul&#45;&gt;Jump_Point_Stabilisation_Modul</title>
<path fill="none" stroke="black" d="M177.1,-84.59C190.07,-84.35 198.88,-83.82 198.88,-83 198.88,-82.38 193.71,-81.92 185.47,-81.63"/>
<polygon fill="black" stroke="black" points="185.67,-79.18 178.61,-81.45 185.55,-84.08 185.67,-79.18"/>
</g>
<!-- Jump_Point_Stabilisation_Modul&#45;&gt;Jump_Point_Stabilisation_Modul -->
<g id="edge3" class="edge">
<title>Jump_Point_Stabilisation_Modul&#45;&gt;Jump_Point_Stabilisation_Modul</title>
<path fill="none" stroke="black" d="M177.21,-86.47C201.84,-86.34 220.88,-85.19 220.88,-83 220.88,-81.07 206.04,-79.94 185.62,-79.62"/>
<polygon fill="black" stroke="black" points="185.75,-77.17 178.72,-79.55 185.7,-82.07 185.75,-77.17"/>
</g>
<!-- Jump_Point_Stabilisation_Modul&#45;&gt;Jump_Point_Stabilisation_Modul -->
<g id="edge4" class="edge">
<title>Jump_Point_Stabilisation_Modul&#45;&gt;Jump_Point_Stabilisation_Modul</title>
<path fill="none" stroke="black" d="M177.31,-88.18C212.79,-88.53 242.88,-86.81 242.88,-83 242.88,-79.49 217.31,-77.75 185.51,-77.78"/>
<polygon fill="black" stroke="black" points="185.81,-75.33 178.82,-77.81 185.83,-80.23 185.81,-75.33"/>
</g>
<!-- Jump_Point_Stabilisation_Modul&#45;&gt;Jump_Point_Stabilisation_Modul -->
<g id="edge5" class="edge">
<title>Jump_Point_Stabilisation_Modul&#45;&gt;Jump_Point_Stabilisation_Modul</title>
<path fill="none" stroke="black" d="M176.94,-89.67C222.9,-90.83 264.88,-88.6 264.88,-83 264.88,-77.74 227.83,-75.46 185.24,-76.16"/>
<polygon fill="black" stroke="black" points="185.4,-73.71 178.46,-76.3 185.51,-78.61 185.4,-73.71"/>
</g>
<!-- Jump_Point_Stabilisation_Modul&#45;&gt;Jump_Point_Stabilisation_Modul -->
<g id="edge6" class="edge">
<title>Jump_Point_Stabilisation_Modul&#45;&gt;Jump_Point_Stabilisation_Modul</title>
<path fill="none" stroke="black" d="M177.14,-90.98C232.9,-93.14 286.88,-90.48 286.88,-83 286.88,-75.9 238.25,-73.14 185.62,-74.73"/>
<polygon fill="black" stroke="black" points="185.57,-72.28 178.66,-74.97 185.74,-77.18 185.57,-72.28"/>
</g>
<!-- Jump_Point_Stabilisation_Modul&#45;&gt;Jump_Point_Stabilisation_Modul -->
<g id="edge7" class="edge">
<title>Jump_Point_Stabilisation_Modul&#45;&gt;Jump_Point_Stabilisation_Modul</title>
<path fill="none" stroke="black" d="M177.16,-92.13C242.46,-95.48 308.88,-92.44 308.88,-83 308.88,-73.97 248.05,-70.79 185.58,-73.48"/>
<polygon fill="black" stroke="black" points="185.54,-71.03 178.67,-73.8 185.78,-75.92 185.54,-71.03"/>
</g>
<!-- Jump_Point_Stabilisation_Modul&#45;&gt;Jump_Point_Stabilisation_Modul -->
<g id="edge8" class="edge">
<title>Jump_Point_Stabilisation_Modul&#45;&gt;Jump_Point_Stabilisation_Modul</title>
<path fill="none" stroke="black" d="M177.1,-93.14C251.71,-97.84 330.88,-94.46 330.88,-83 330.88,-71.97 257.47,-68.43 185.42,-72.37"/>
<polygon fill="black" stroke="black" points="185.45,-69.92 178.61,-72.77 185.74,-74.81 185.45,-69.92"/>
</g>
<!-- Small_Jump_Point_Stabilisation -->
<g id="node2" class="node">
<title>Small_Jump_Point_Stabilisation</title>
<path fill="#cce5ff" stroke="black" d="M172,-36C172,-36 12,-36 12,-36 6,-36 0,-30 0,-24 0,-24 0,-12 0,-12 0,-6 6,0 12,0 12,0 172,0 172,0 178,0 184,-6 184,-12 184,-12 184,-24 184,-24 184,-30 178,-36 172,-36"/>
<text xml:space="preserve" text-anchor="middle" x="92" y="-19.75" font-family="Helvetica,sans-Serif" font-size="10.00">Small Jump Point Stabilisation Module</text>
<text xml:space="preserve" text-anchor="middle" x="92" y="-8.5" font-family="Helvetica,sans-Serif" font-size="10.00">8K RP</text>
</g>
<!-- Jump_Point_Stabilisation_Modul&#45;&gt;Small_Jump_Point_Stabilisation -->
<g id="edge1" class="edge">
<title>Jump_Point_Stabilisation_Modul&#45;&gt;Small_Jump_Point_Stabilisation</title>
<path fill="none" stroke="black" d="M92,-64.78C92,-58.53 92,-51.33 92,-44.52"/>
<polygon fill="black" stroke="black" points="94.45,-44.71 92,-37.71 89.55,-44.71 94.45,-44.71"/>
</g>
</g>
</svg>
