<?xml version="1.0" encoding="UTF-8" standalone="no"?>
<!DOCTYPE svg PUBLIC "-//W3C//DTD SVG 1.1//EN"
 "http://www.w3.org/Graphics/SVG/1.1/DTD/svg11.dtd">
<!-- Generated by graphviz version 14.1.2 (20260124.0452)
 -->
<!-- Title: TechTree Pages: 1 -->
<svg width="234pt" height="65pt"
 viewBox="0.00 0.00 234.00 65.00" xmlns="http://www.w3.org/2000/svg" xmlns:xlink="http://www.w3.org/1999/xlink">
<g id="graph0" class="graph" transform="scale(1 1) rotate(0) translate(4 60.75)">
<title>TechTree</title>
<polygon fill="white" stroke="none" points="-4,4 -4,-60.75 230.12,-60.75 230.12,4 -4,4"/>
<text xml:space="preserve" text-anchor="middle" x="113.06" y="-41.35" font-family="Helvetica,sans-Serif" font-weight="bold" font-size="12.00">Jump Drive Type</text>
<!-- Commercial_Jump_Drive -->
<g id="node1" class="node">
<title>Commercial_Jump_Drive</title>
<path fill="#d4edda" stroke="black" d="M102.25,-36C102.25,-36 12,-36 12,-36 6,-36 0,-30 0,-24 0,-24 0,-12 0,-12 0,-6 6,0 12,0 12,0 102.25,0 102.25,0 108.25,0 114.25,-6 114.25,-12 114.25,-12 114.25,-24 114.25,-24 114.25,-30 108.25,-36 102.25,-36"/>
<text xml:space="preserve" text-anchor="middle" x="57.13" y="-19.2" font-family="Helvetica,sans-Serif" font-size="9.00">Commercial Jump Drive</text>
<text xml:space="preserve" text-anchor="middle" x="57.13" y="-9.45" font-family="Helvetica,sans-Serif" font-size="9.00">1 RP</text>
</g>
<!-- Military_Jump_Drive -->
<g id="node2" class="node">
<title>Military_Jump_Drive</title>
<path fill="#d4edda" stroke="black" d="M214.12,-36C214.12,-36 144.12,-36 144.12,-36 138.12,-36 132.12,-30 132.12,-24 132.12,-24 132.12,-12 132.12,-12 132.12,-6 138.12,0 144.12,0 144.12,0 214.12,0 214.12,0 220.12,0 226.12,-6 226.12,-12 226.12,-12 226.12,-24 226.12,-24 226.12,-30 220.12,-36 214.12,-36"/>
<text xml:space="preserve" text-anchor="middle" x="179.12" y="-19.2" font-family="Helvetica,sans-Serif" font-size="9.00">Military Jump Drive</text>
<text xml:space="preserve" text-anchor="middle" x="179.12" y="-9.45" font-family="Helvetica,sans-Serif" font-size="9.00">2 RP</text>
</g>
</g>
</svg>
