<?xml version="1.0" encoding="UTF-8" standalone="no"?>
<!DOCTYPE svg PUBLIC "-//W3C//DTD SVG 1.1//EN"
 "http://www.w3.org/Graphics/SVG/1.1/DTD/svg11.dtd">
<!-- Generated by graphviz version 14.1.2 (20260124.0452)
 -->
<!-- Title: TechTree Pages: 1 -->
<svg width="134pt" height="125pt"
 viewBox="0.00 0.00 134.00 125.00" xmlns="http://www.w3.org/2000/svg" xmlns:xlink="http://www.w3.org/1999/xlink">
<g id="graph0" class="graph" transform="scale(1 1) rotate(0) translate(4 121)">
<title>TechTree</title>
<polygon fill="white" stroke="none" points="-4,4 -4,-121 129.5,-121 129.5,4 -4,4"/>
<text xml:space="preserve" text-anchor="middle" x="62.75" y="-99.7" font-family="Helvetica,sans-Serif" font-weight="bold" font-size="14.00">Jump Drive Type</text>
<!-- Commercial_Jump_Drive -->
<g id="node1" class="node">
<title>Commercial_Jump_Drive</title>
<path fill="#d4edda" stroke="black" d="M111.62,-36C111.62,-36 13.88,-36 13.88,-36 7.87,-36 1.87,-30 1.87,-24 1.87,-24 1.87,-12 1.87,-12 1.87,-6 7.87,0 13.87,0 13.87,0 111.62,0 111.62,0 117.62,0 123.62,-6 123.62,-12 123.62,-12 123.62,-24 123.62,-24 123.62,-30 117.62,-36 111.62,-36"/>
<text xml:space="preserve" text-anchor="middle" x="62.75" y="-19.75" font-family="Helvetica,sans-Serif" font-size="10.00">Commercial Jump Drive</text>
<text xml:space="preserve" text-anchor="middle" x="62.75" y="-8.5" font-family="Helvetica,sans-Serif" font-size="10.00">1 RP</text>
</g>
<!-- Military_Jump_Drive -->
<g id="node2" class="node">
<title>Military_Jump_Drive</title>
<path fill="#d4edda" stroke="black" d="M101.12,-94C101.12,-94 24.38,-94 24.38,-94 18.38,-94 12.38,-88 12.38,-82 12.38,-82 12.38,-70 12.38,-70 12.38,-64 18.38,-58 24.38,-58 24.38,-58 101.12,-58 101.12,-58 107.12,-58 113.12,-64 113.12,-70 113.12,-70 113.12,-82 113.12,-82 113.12,-88 107.12,-94 101.12,-94"/>
<text xml:space="preserve" text-anchor="middle" x="62.75" y="-77.75" font-family="Helvetica,sans-Serif" font-size="10.00">Military Jump Drive</text>
<text xml:space="preserve" text-anchor="middle" x="62.75" y="-66.5" font-family="Helvetica,sans-Serif" font-size="10.00">2 RP</text>
</g>
</g>
</svg>
