<?xml version="1.0" encoding="UTF-8" standalone="no"?>
<!DOCTYPE svg PUBLIC "-//W3C//DTD SVG 1.1//EN"
 "http://www.w3.org/Graphics/SVG/1.1/DTD/svg11.dtd">
<!-- Generated by graphviz version 14.1.2 (20260124.0452)
 -->
<!-- Title: TechTree Pages: 1 -->
<svg width="300pt" height="209pt"
 viewBox="0.00 0.00 300.00 209.00" xmlns="http://www.w3.org/2000/svg" xmlns:xlink="http://www.w3.org/1999/xlink">
<g id="graph0" class="graph" transform="scale(1 1) rotate(0) translate(4 204.75)">
<title>TechTree</title>
<polygon fill="white" stroke="none" points="-4,4 -4,-204.75 296.38,-204.75 296.38,4 -4,4"/>
<text xml:space="preserve" text-anchor="middle" x="146.19" y="-185.35" font-family="Helvetica,sans-Serif" font-weight="bold" font-size="12.00">Jump Gate Construction Module</text>
<!-- Jump_Point_Stabilisation_Modul -->
<g id="node1" class="node">
<title>Jump_Point_Stabilisation_Modul</title>
<path fill="#d4c4fb" stroke="black" d="M154.38,-108C154.38,-108 18.37,-108 18.37,-108 12.37,-108 6.38,-102 6.38,-96 6.38,-96 6.38,-84 6.38,-84 6.38,-78 12.38,-72 18.38,-72 18.38,-72 154.38,-72 154.38,-72 160.38,-72 166.38,-78 166.38,-84 166.38,-84 166.38,-96 166.38,-96 166.38,-102 160.38,-108 154.38,-108"/>
<text xml:space="preserve" text-anchor="middle" x="86.38" y="-91.2" font-family="Helvetica,sans-Serif" font-size="9.00">Jump Point Stabilisation Module 20</text>
<text xml:space="preserve" text-anchor="middle" x="86.38" y="-81.45" font-family="Helvetica,sans-Serif" font-size="9.00">600K RP</text>
</g>
<!-- Jump_Point_Stabilisation_Modul&#45;&gt;Jump_Point_Stabilisation_Modul -->
<g id="edge3" class="edge">
<title>Jump_Point_Stabilisation_Modul&#45;&gt;Jump_Point_Stabilisation_Modul</title>
<path fill="none" stroke="black" d="M166.73,-91.7C177.34,-91.41 184.38,-90.84 184.38,-90 184.38,-89.37 180.42,-88.89 173.97,-88.57"/>
<polygon fill="black" stroke="black" points="174.32,-86.48 168.25,-88.36 174.16,-90.68 174.32,-86.48"/>
</g>
<!-- Jump_Point_Stabilisation_Modul&#45;&gt;Jump_Point_Stabilisation_Modul -->
<g id="edge4" class="edge">
<title>Jump_Point_Stabilisation_Modul&#45;&gt;Jump_Point_Stabilisation_Modul</title>
<path fill="none" stroke="black" d="M166.61,-93.81C187.04,-93.56 202.38,-92.29 202.38,-90 202.38,-88 190.63,-86.77 174.01,-86.33"/>
<polygon fill="black" stroke="black" points="174.16,-84.23 168.13,-86.22 174.08,-88.43 174.16,-84.23"/>
</g>
<!-- Jump_Point_Stabilisation_Modul&#45;&gt;Jump_Point_Stabilisation_Modul -->
<g id="edge5" class="edge">
<title>Jump_Point_Stabilisation_Modul&#45;&gt;Jump_Point_Stabilisation_Modul</title>
<path fill="none" stroke="black" d="M166.83,-95.78C196.26,-95.93 220.38,-94.01 220.38,-90 220.38,-86.34 200.23,-84.41 174.29,-84.23"/>
<polygon fill="black" stroke="black" points="174.34,-82.13 168.34,-84.22 174.34,-86.33 174.34,-82.13"/>
</g>
<!-- Jump_Point_Stabilisation_Modul&#45;&gt;Jump_Point_Stabilisation_Modul -->
<g id="edge6" class="edge">
<title>Jump_Point_Stabilisation_Modul&#45;&gt;Jump_Point_Stabilisation_Modul</title>
<path fill="none" stroke="black" d="M166.53,-97.54C204.73,-98.44 238.38,-95.93 238.38,-90 238.38,-84.44 208.81,-81.89 173.63,-82.34"/>
<polygon fill="black" stroke="black" points="174,-80.23 168.04,-82.44 174.08,-84.43 174,-80.23"/>
</g>
<!-- Jump_Point_Stabilisation_Modul&#45;&gt;Jump_Point_Stabilisation_Modul -->
<g id="edge7" class="edge">
<title>Jump_Point_Stabilisation_Modul&#45;&gt;Jump_Point_Stabilisation_Modul</title>
<path fill="none" stroke="black" d="M166.83,-99.11C213.2,-100.97 256.38,-97.94 256.38,-90 256.38,-82.48 217.64,-79.36 174.13,-80.63"/>
<polygon fill="black" stroke="black" points="174.27,-78.53 168.34,-80.83 174.41,-82.72 174.27,-78.53"/>
</g>
<!-- Jump_Point_Stabilisation_Modul&#45;&gt;Jump_Point_Stabilisation_Modul -->
<g id="edge8" class="edge">
<title>Jump_Point_Stabilisation_Modul&#45;&gt;Jump_Point_Stabilisation_Modul</title>
<path fill="none" stroke="black" d="M166.56,-100.5C221.04,-103.56 274.38,-100.06 274.38,-90 274.38,-80.39 225.72,-76.76 173.89,-79.13"/>
<polygon fill="black" stroke="black" points="173.95,-77.02 168.07,-79.43 174.17,-81.22 173.95,-77.02"/>
</g>
<!-- Jump_Point_Stabilisation_Modul&#45;&gt;Jump_Point_Stabilisation_Modul -->
<g id="edge9" class="edge">
<title>Jump_Point_Stabilisation_Modul&#45;&gt;Jump_Point_Stabilisation_Modul</title>
<path fill="none" stroke="black" d="M166.72,-101.76C228.93,-106.15 292.38,-102.23 292.38,-90 292.38,-78.24 233.79,-74.17 174.02,-77.77"/>
<polygon fill="black" stroke="black" points="174.09,-75.66 168.24,-78.14 174.36,-79.85 174.09,-75.66"/>
</g>
<!-- Small_Jump_Point_Stabilisation -->
<g id="node2" class="node">
<title>Small_Jump_Point_Stabilisation</title>
<path fill="#cce5ff" stroke="black" d="M160.75,-36C160.75,-36 12,-36 12,-36 6,-36 0,-30 0,-24 0,-24 0,-12 0,-12 0,-6 6,0 12,0 12,0 160.75,0 160.75,0 166.75,0 172.75,-6 172.75,-12 172.75,-12 172.75,-24 172.75,-24 172.75,-30 166.75,-36 160.75,-36"/>
<text xml:space="preserve" text-anchor="middle" x="86.38" y="-19.2" font-family="Helvetica,sans-Serif" font-size="9.00">Small Jump Point Stabilisation Module</text>
<text xml:space="preserve" text-anchor="middle" x="86.38" y="-9.45" font-family="Helvetica,sans-Serif" font-size="9.00">8K RP</text>
</g>
<!-- Jump_Point_Stabilisation_Modul&#45;&gt;Small_Jump_Point_Stabilisation -->
<g id="edge2" class="edge">
<title>Jump_Point_Stabilisation_Modul&#45;&gt;Small_Jump_Point_Stabilisation</title>
<path fill="none" stroke="black" d="M86.38,-71.7C86.38,-63.22 86.38,-52.86 86.38,-43.58"/>
<polygon fill="black" stroke="black" points="88.48,-43.62 86.38,-37.62 84.28,-43.62 88.48,-43.62"/>
</g>
<!-- ext_Jump_Point_Theory -->
<g id="node3" class="node">
<title>ext_Jump_Point_Theory</title>
<path fill="#f0f0f0" stroke="black" stroke-dasharray="5,2" d="M120.62,-180C120.62,-180 52.12,-180 52.12,-180 46.12,-180 40.12,-174 40.12,-168 40.12,-168 40.12,-156 40.12,-156 40.12,-150 46.12,-144 52.12,-144 52.12,-144 120.62,-144 120.62,-144 126.62,-144 132.62,-150 132.62,-156 132.62,-156 132.62,-168 132.62,-168 132.62,-174 126.62,-180 120.62,-180"/>
<text xml:space="preserve" text-anchor="middle" x="86.38" y="-158.32" font-family="Helvetica,sans-Serif" font-size="9.00">Jump Point Theory</text>
</g>
<!-- ext_Jump_Point_Theory&#45;&gt;Jump_Point_Stabilisation_Modul -->
<g id="edge1" class="edge">
<title>ext_Jump_Point_Theory&#45;&gt;Jump_Point_Stabilisation_Modul</title>
<path fill="none" stroke="black" d="M86.38,-143.7C86.38,-135.22 86.38,-124.86 86.38,-115.58"/>
<polygon fill="black" stroke="black" points="88.48,-115.62 86.38,-109.62 84.28,-115.62 88.48,-115.62"/>
</g>
</g>
</svg>
