<?xml version="1.0" encoding="UTF-8" standalone="no"?>
<!DOCTYPE svg PUBLIC "-//W3C//DTD SVG 1.1//EN"
 "http://www.w3.org/Graphics/SVG/1.1/DTD/svg11.dtd">
<!-- Generated by graphviz version 14.1.2 (20260124.0452)
 -->
<!-- Title: TechTree Pages: 1 -->
<svg width="236pt" height="857pt"
 viewBox="0.00 0.00 236.00 857.00" xmlns="http://www.w3.org/2000/svg" xmlns:xlink="http://www.w3.org/1999/xlink">
<g id="graph0" class="graph" transform="scale(1 1) rotate(0) translate(4 852.75)">
<title>TechTree</title>
<polygon fill="white" stroke="none" points="-4,4 -4,-852.75 231.5,-852.75 231.5,4 -4,4"/>
<text xml:space="preserve" text-anchor="middle" x="113.75" y="-833.35" font-family="Helvetica,sans-Serif" font-weight="bold" font-size="12.00">Laser Wavelength</text>
<!-- Infrared_Laser -->
<g id="node1" class="node">
<title>Infrared_Laser</title>
<path fill="#d4edda" stroke="black" d="M61,-828C61,-828 12,-828 12,-828 6,-828 0,-822 0,-816 0,-816 0,-804 0,-804 0,-798 6,-792 12,-792 12,-792 61,-792 61,-792 67,-792 73,-798 73,-804 73,-804 73,-816 73,-816 73,-822 67,-828 61,-828"/>
<text xml:space="preserve" text-anchor="middle" x="36.5" y="-811.2" font-family="Helvetica,sans-Serif" font-size="9.00">Infrared Laser</text>
<text xml:space="preserve" text-anchor="middle" x="36.5" y="-801.45" font-family="Helvetica,sans-Serif" font-size="9.00">500 RP</text>
</g>
<!-- Visible_Light_Laser -->
<g id="node2" class="node">
<title>Visible_Light_Laser</title>
<path fill="#cce5ff" stroke="black" d="M193.38,-756C193.38,-756 125.62,-756 125.62,-756 119.62,-756 113.62,-750 113.62,-744 113.62,-744 113.62,-732 113.62,-732 113.62,-726 119.62,-720 125.62,-720 125.62,-720 193.38,-720 193.38,-720 199.38,-720 205.38,-726 205.38,-732 205.38,-732 205.38,-744 205.38,-744 205.38,-750 199.38,-756 193.38,-756"/>
<text xml:space="preserve" text-anchor="middle" x="159.5" y="-739.2" font-family="Helvetica,sans-Serif" font-size="9.00">Visible Light Laser</text>
<text xml:space="preserve" text-anchor="middle" x="159.5" y="-729.45" font-family="Helvetica,sans-Serif" font-size="9.00">2K RP</text>
</g>
<!-- Near_Ultraviolet_Laser -->
<g id="node3" class="node">
<title>Near_Ultraviolet_Laser</title>
<path fill="#cce5ff" stroke="black" d="M200.12,-684C200.12,-684 118.88,-684 118.88,-684 112.88,-684 106.88,-678 106.88,-672 106.88,-672 106.88,-660 106.88,-660 106.88,-654 112.88,-648 118.88,-648 118.88,-648 200.12,-648 200.12,-648 206.12,-648 212.12,-654 212.12,-660 212.12,-660 212.12,-672 212.12,-672 212.12,-678 206.12,-684 200.12,-684"/>
<text xml:space="preserve" text-anchor="middle" x="159.5" y="-667.2" font-family="Helvetica,sans-Serif" font-size="9.00">Near Ultraviolet Laser</text>
<text xml:space="preserve" text-anchor="middle" x="159.5" y="-657.45" font-family="Helvetica,sans-Serif" font-size="9.00">4K RP</text>
</g>
<!-- Visible_Light_Laser&#45;&gt;Near_Ultraviolet_Laser -->
<g id="edge2" class="edge">
<title>Visible_Light_Laser&#45;&gt;Near_Ultraviolet_Laser</title>
<path fill="none" stroke="black" d="M159.5,-719.7C159.5,-711.22 159.5,-700.86 159.5,-691.58"/>
<polygon fill="black" stroke="black" points="161.6,-691.62 159.5,-685.62 157.4,-691.62 161.6,-691.62"/>
</g>
<!-- Ultraviolet_Laser -->
<g id="node4" class="node">
<title>Ultraviolet_Laser</title>
<path fill="#cce5ff" stroke="black" d="M188.88,-612C188.88,-612 130.12,-612 130.12,-612 124.12,-612 118.12,-606 118.12,-600 118.12,-600 118.12,-588 118.12,-588 118.12,-582 124.12,-576 130.12,-576 130.12,-576 188.88,-576 188.88,-576 194.88,-576 200.88,-582 200.88,-588 200.88,-588 200.88,-600 200.88,-600 200.88,-606 194.88,-612 188.88,-612"/>
<text xml:space="preserve" text-anchor="middle" x="159.5" y="-595.2" font-family="Helvetica,sans-Serif" font-size="9.00">Ultraviolet Laser</text>
<text xml:space="preserve" text-anchor="middle" x="159.5" y="-585.45" font-family="Helvetica,sans-Serif" font-size="9.00">8K RP</text>
</g>
<!-- Near_Ultraviolet_Laser&#45;&gt;Ultraviolet_Laser -->
<g id="edge3" class="edge">
<title>Near_Ultraviolet_Laser&#45;&gt;Ultraviolet_Laser</title>
<path fill="none" stroke="black" d="M159.5,-647.7C159.5,-639.22 159.5,-628.86 159.5,-619.58"/>
<polygon fill="black" stroke="black" points="161.6,-619.62 159.5,-613.62 157.4,-619.62 161.6,-619.62"/>
</g>
<!-- Far_Ultraviolet_Laser -->
<g id="node5" class="node">
<title>Far_Ultraviolet_Laser</title>
<path fill="#fff3cd" stroke="black" d="M196.75,-540C196.75,-540 122.25,-540 122.25,-540 116.25,-540 110.25,-534 110.25,-528 110.25,-528 110.25,-516 110.25,-516 110.25,-510 116.25,-504 122.25,-504 122.25,-504 196.75,-504 196.75,-504 202.75,-504 208.75,-510 208.75,-516 208.75,-516 208.75,-528 208.75,-528 208.75,-534 202.75,-540 196.75,-540"/>
<text xml:space="preserve" text-anchor="middle" x="159.5" y="-523.2" font-family="Helvetica,sans-Serif" font-size="9.00">Far Ultraviolet Laser</text>
<text xml:space="preserve" text-anchor="middle" x="159.5" y="-513.45" font-family="Helvetica,sans-Serif" font-size="9.00">16K RP</text>
</g>
<!-- Ultraviolet_Laser&#45;&gt;Far_Ultraviolet_Laser -->
<g id="edge4" class="edge">
<title>Ultraviolet_Laser&#45;&gt;Far_Ultraviolet_Laser</title>
<path fill="none" stroke="black" d="M159.5,-575.7C159.5,-567.22 159.5,-556.86 159.5,-547.58"/>
<polygon fill="black" stroke="black" points="161.6,-547.62 159.5,-541.62 157.4,-547.62 161.6,-547.62"/>
</g>
<!-- Soft_X_ray_Laser -->
<g id="node6" class="node">
<title>Soft_X_ray_Laser</title>
<path fill="#fff3cd" stroke="black" d="M188.12,-468C188.12,-468 130.88,-468 130.88,-468 124.88,-468 118.88,-462 118.88,-456 118.88,-456 118.88,-444 118.88,-444 118.88,-438 124.88,-432 130.88,-432 130.88,-432 188.12,-432 188.12,-432 194.12,-432 200.12,-438 200.12,-444 200.12,-444 200.12,-456 200.12,-456 200.12,-462 194.12,-468 188.12,-468"/>
<text xml:space="preserve" text-anchor="middle" x="159.5" y="-451.2" font-family="Helvetica,sans-Serif" font-size="9.00">Soft X&#45;ray Laser</text>
<text xml:space="preserve" text-anchor="middle" x="159.5" y="-441.45" font-family="Helvetica,sans-Serif" font-size="9.00">30K RP</text>
</g>
<!-- Far_Ultraviolet_Laser&#45;&gt;Soft_X_ray_Laser -->
<g id="edge5" class="edge">
<title>Far_Ultraviolet_Laser&#45;&gt;Soft_X_ray_Laser</title>
<path fill="none" stroke="black" d="M159.5,-503.7C159.5,-495.22 159.5,-484.86 159.5,-475.58"/>
<polygon fill="black" stroke="black" points="161.6,-475.62 159.5,-469.62 157.4,-475.62 161.6,-475.62"/>
</g>
<!-- X_Ray_Laser -->
<g id="node7" class="node">
<title>X_Ray_Laser</title>
<path fill="#fff3cd" stroke="black" d="M181,-396C181,-396 138,-396 138,-396 132,-396 126,-390 126,-384 126,-384 126,-372 126,-372 126,-366 132,-360 138,-360 138,-360 181,-360 181,-360 187,-360 193,-366 193,-372 193,-372 193,-384 193,-384 193,-390 187,-396 181,-396"/>
<text xml:space="preserve" text-anchor="middle" x="159.5" y="-379.2" font-family="Helvetica,sans-Serif" font-size="9.00">X&#45;Ray Laser</text>
<text xml:space="preserve" text-anchor="middle" x="159.5" y="-369.45" font-family="Helvetica,sans-Serif" font-size="9.00">60K RP</text>
</g>
<!-- Soft_X_ray_Laser&#45;&gt;X_Ray_Laser -->
<g id="edge6" class="edge">
<title>Soft_X_ray_Laser&#45;&gt;X_Ray_Laser</title>
<path fill="none" stroke="black" d="M159.5,-431.7C159.5,-423.22 159.5,-412.86 159.5,-403.58"/>
<polygon fill="black" stroke="black" points="161.6,-403.62 159.5,-397.62 157.4,-403.62 161.6,-403.62"/>
</g>
<!-- Far_X_Ray_Laser -->
<g id="node8" class="node">
<title>Far_X_Ray_Laser</title>
<path fill="#d4c4fb" stroke="black" d="M188.88,-324C188.88,-324 130.12,-324 130.12,-324 124.12,-324 118.12,-318 118.12,-312 118.12,-312 118.12,-300 118.12,-300 118.12,-294 124.12,-288 130.12,-288 130.12,-288 188.88,-288 188.88,-288 194.88,-288 200.88,-294 200.88,-300 200.88,-300 200.88,-312 200.88,-312 200.88,-318 194.88,-324 188.88,-324"/>
<text xml:space="preserve" text-anchor="middle" x="159.5" y="-307.2" font-family="Helvetica,sans-Serif" font-size="9.00">Far X&#45;Ray Laser</text>
<text xml:space="preserve" text-anchor="middle" x="159.5" y="-297.45" font-family="Helvetica,sans-Serif" font-size="9.00">125K RP</text>
</g>
<!-- X_Ray_Laser&#45;&gt;Far_X_Ray_Laser -->
<g id="edge7" class="edge">
<title>X_Ray_Laser&#45;&gt;Far_X_Ray_Laser</title>
<path fill="none" stroke="black" d="M159.5,-359.7C159.5,-351.22 159.5,-340.86 159.5,-331.58"/>
<polygon fill="black" stroke="black" points="161.6,-331.62 159.5,-325.62 157.4,-331.62 161.6,-331.62"/>
</g>
<!-- Extreme_X_ray_Laser -->
<g id="node9" class="node">
<title>Extreme_X_ray_Laser</title>
<path fill="#d4c4fb" stroke="black" d="M197.12,-252C197.12,-252 121.88,-252 121.88,-252 115.88,-252 109.88,-246 109.88,-240 109.88,-240 109.88,-228 109.88,-228 109.88,-222 115.88,-216 121.88,-216 121.88,-216 197.12,-216 197.12,-216 203.12,-216 209.12,-222 209.12,-228 209.12,-228 209.12,-240 209.12,-240 209.12,-246 203.12,-252 197.12,-252"/>
<text xml:space="preserve" text-anchor="middle" x="159.5" y="-235.2" font-family="Helvetica,sans-Serif" font-size="9.00">Extreme X&#45;ray Laser</text>
<text xml:space="preserve" text-anchor="middle" x="159.5" y="-225.45" font-family="Helvetica,sans-Serif" font-size="9.00">250K RP</text>
</g>
<!-- Far_X_Ray_Laser&#45;&gt;Extreme_X_ray_Laser -->
<g id="edge8" class="edge">
<title>Far_X_Ray_Laser&#45;&gt;Extreme_X_ray_Laser</title>
<path fill="none" stroke="black" d="M159.5,-287.7C159.5,-279.22 159.5,-268.86 159.5,-259.58"/>
<polygon fill="black" stroke="black" points="161.6,-259.62 159.5,-253.62 157.4,-259.62 161.6,-259.62"/>
</g>
<!-- Near_Gamma_Ray_Laser -->
<g id="node10" class="node">
<title>Near_Gamma_Ray_Laser</title>
<path fill="#d4c4fb" stroke="black" d="M205,-180C205,-180 114,-180 114,-180 108,-180 102,-174 102,-168 102,-168 102,-156 102,-156 102,-150 108,-144 114,-144 114,-144 205,-144 205,-144 211,-144 217,-150 217,-156 217,-156 217,-168 217,-168 217,-174 211,-180 205,-180"/>
<text xml:space="preserve" text-anchor="middle" x="159.5" y="-163.2" font-family="Helvetica,sans-Serif" font-size="9.00">Near Gamma Ray Laser</text>
<text xml:space="preserve" text-anchor="middle" x="159.5" y="-153.45" font-family="Helvetica,sans-Serif" font-size="9.00">500K RP</text>
</g>
<!-- Extreme_X_ray_Laser&#45;&gt;Near_Gamma_Ray_Laser -->
<g id="edge9" class="edge">
<title>Extreme_X_ray_Laser&#45;&gt;Near_Gamma_Ray_Laser</title>
<path fill="none" stroke="black" d="M159.5,-215.7C159.5,-207.22 159.5,-196.86 159.5,-187.58"/>
<polygon fill="black" stroke="black" points="161.6,-187.62 159.5,-181.62 157.4,-187.62 161.6,-187.62"/>
</g>
<!-- Gamma_Ray_Laser -->
<g id="node11" class="node">
<title>Gamma_Ray_Laser</title>
<path fill="#d4c4fb" stroke="black" d="M193.75,-108C193.75,-108 125.25,-108 125.25,-108 119.25,-108 113.25,-102 113.25,-96 113.25,-96 113.25,-84 113.25,-84 113.25,-78 119.25,-72 125.25,-72 125.25,-72 193.75,-72 193.75,-72 199.75,-72 205.75,-78 205.75,-84 205.75,-84 205.75,-96 205.75,-96 205.75,-102 199.75,-108 193.75,-108"/>
<text xml:space="preserve" text-anchor="middle" x="159.5" y="-91.2" font-family="Helvetica,sans-Serif" font-size="9.00">Gamma Ray Laser</text>
<text xml:space="preserve" text-anchor="middle" x="159.5" y="-81.45" font-family="Helvetica,sans-Serif" font-size="9.00">1.0M RP</text>
</g>
<!-- Near_Gamma_Ray_Laser&#45;&gt;Gamma_Ray_Laser -->
<g id="edge10" class="edge">
<title>Near_Gamma_Ray_Laser&#45;&gt;Gamma_Ray_Laser</title>
<path fill="none" stroke="black" d="M159.5,-143.7C159.5,-135.22 159.5,-124.86 159.5,-115.58"/>
<polygon fill="black" stroke="black" points="161.6,-115.62 159.5,-109.62 157.4,-115.62 161.6,-115.62"/>
</g>
<!-- Far_Gamma_Ray_Laser -->
<g id="node12" class="node">
<title>Far_Gamma_Ray_Laser</title>
<path fill="#f8d7da" stroke="black" d="M201.62,-36C201.62,-36 117.38,-36 117.38,-36 111.38,-36 105.38,-30 105.38,-24 105.38,-24 105.38,-12 105.38,-12 105.38,-6 111.38,0 117.38,0 117.38,0 201.62,0 201.62,0 207.62,0 213.62,-6 213.62,-12 213.62,-12 213.62,-24 213.62,-24 213.62,-30 207.62,-36 201.62,-36"/>
<text xml:space="preserve" text-anchor="middle" x="159.5" y="-19.2" font-family="Helvetica,sans-Serif" font-size="9.00">Far Gamma Ray Laser</text>
<text xml:space="preserve" text-anchor="middle" x="159.5" y="-9.45" font-family="Helvetica,sans-Serif" font-size="9.00">2.0M RP</text>
</g>
<!-- Gamma_Ray_Laser&#45;&gt;Far_Gamma_Ray_Laser -->
<g id="edge11" class="edge">
<title>Gamma_Ray_Laser&#45;&gt;Far_Gamma_Ray_Laser</title>
<path fill="none" stroke="black" d="M159.5,-71.7C159.5,-63.22 159.5,-52.86 159.5,-43.58"/>
<polygon fill="black" stroke="black" points="161.6,-43.62 159.5,-37.62 157.4,-43.62 161.6,-43.62"/>
</g>
<!-- ext_Trans_Newtonian_Technology -->
<g id="node13" class="node">
<title>ext_Trans_Newtonian_Technology</title>
<path fill="#f0f0f0" stroke="black" stroke-dasharray="5,2" d="M215.5,-828C215.5,-828 103.5,-828 103.5,-828 97.5,-828 91.5,-822 91.5,-816 91.5,-816 91.5,-804 91.5,-804 91.5,-798 97.5,-792 103.5,-792 103.5,-792 215.5,-792 215.5,-792 221.5,-792 227.5,-798 227.5,-804 227.5,-804 227.5,-816 227.5,-816 227.5,-822 221.5,-828 215.5,-828"/>
<text xml:space="preserve" text-anchor="middle" x="159.5" y="-806.33" font-family="Helvetica,sans-Serif" font-size="9.00">Trans&#45;Newtonian Technology</text>
</g>
<!-- ext_Trans_Newtonian_Technology&#45;&gt;Visible_Light_Laser -->
<g id="edge1" class="edge">
<title>ext_Trans_Newtonian_Technology&#45;&gt;Visible_Light_Laser</title>
<path fill="none" stroke="black" d="M159.5,-791.7C159.5,-783.22 159.5,-772.86 159.5,-763.58"/>
<polygon fill="black" stroke="black" points="161.6,-763.62 159.5,-757.62 157.4,-763.62 161.6,-763.62"/>
</g>
</g>
</svg>
