<?xml version="1.0" encoding="UTF-8" standalone="no"?>
<!DOCTYPE svg PUBLIC "-//W3C//DTD SVG 1.1//EN"
 "http://www.w3.org/Graphics/SVG/1.1/DTD/svg11.dtd">
<!-- Generated by graphviz version 14.1.2 (20260124.0452)
 -->
<!-- Title: TechTree Pages: 1 -->
<svg width="352pt" height="67pt"
 viewBox="0.00 0.00 352.00 67.00" xmlns="http://www.w3.org/2000/svg" xmlns:xlink="http://www.w3.org/1999/xlink">
<g id="graph0" class="graph" transform="scale(1 1) rotate(0) translate(4 63)">
<title>TechTree</title>
<polygon fill="white" stroke="none" points="-4,4 -4,-63 348,-63 348,4 -4,4"/>
<text xml:space="preserve" text-anchor="middle" x="172" y="-41.7" font-family="Helvetica,sans-Serif" font-weight="bold" font-size="14.00">Laser Warhead Damage Efficiency</text>
<!-- Laser_Warhead_Damage_Efficienc -->
<g id="node1" class="node">
<title>Laser_Warhead_Damage_Efficienc</title>
<path fill="#d4c4fb" stroke="black" d="M178,-36C178,-36 12,-36 12,-36 6,-36 0,-30 0,-24 0,-24 0,-12 0,-12 0,-6 6,0 12,0 12,0 178,0 178,0 184,0 190,-6 190,-12 190,-12 190,-24 190,-24 190,-30 184,-36 178,-36"/>
<text xml:space="preserve" text-anchor="middle" x="95" y="-19.75" font-family="Helvetica,sans-Serif" font-size="10.00">Laser Warhead Damage Efficiency 90%</text>
<text xml:space="preserve" text-anchor="middle" x="95" y="-8.5" font-family="Helvetica,sans-Serif" font-size="10.00">128K RP</text>
</g>
<!-- Laser_Warhead_Damage_Efficienc&#45;&gt;Laser_Warhead_Damage_Efficienc -->
<g id="edge1" class="edge">
<title>Laser_Warhead_Damage_Efficienc&#45;&gt;Laser_Warhead_Damage_Efficienc</title>
<path fill="none" stroke="black" d="M190.49,-19.33C203.4,-19.11 212,-18.66 212,-18 212,-17.49 206.96,-17.11 198.8,-16.86"/>
<polygon fill="black" stroke="black" points="199.05,-14.42 192,-16.7 198.94,-19.32 199.05,-14.42"/>
</g>
<!-- Laser_Warhead_Damage_Efficienc&#45;&gt;Laser_Warhead_Damage_Efficienc -->
<g id="edge2" class="edge">
<title>Laser_Warhead_Damage_Efficienc&#45;&gt;Laser_Warhead_Damage_Efficienc</title>
<path fill="none" stroke="black" d="M190.18,-20.97C215.14,-20.8 234,-19.8 234,-18 234,-16.41 219.3,-15.45 198.68,-15.12"/>
<polygon fill="black" stroke="black" points="198.72,-12.67 191.69,-15.05 198.66,-17.57 198.72,-12.67"/>
</g>
<!-- Laser_Warhead_Damage_Efficienc&#45;&gt;Laser_Warhead_Damage_Efficienc -->
<g id="edge3" class="edge">
<title>Laser_Warhead_Damage_Efficienc&#45;&gt;Laser_Warhead_Damage_Efficienc</title>
<path fill="none" stroke="black" d="M190.47,-22.49C226.37,-22.65 256,-21.15 256,-18 256,-15.09 230.82,-13.6 198.76,-13.5"/>
<polygon fill="black" stroke="black" points="198.98,-11.05 191.98,-13.51 198.98,-15.95 198.98,-11.05"/>
</g>
<!-- Laser_Warhead_Damage_Efficienc&#45;&gt;Laser_Warhead_Damage_Efficienc -->
<g id="edge4" class="edge">
<title>Laser_Warhead_Damage_Efficienc&#45;&gt;Laser_Warhead_Damage_Efficienc</title>
<path fill="none" stroke="black" d="M190.1,-23.84C236.67,-24.6 278,-22.66 278,-18 278,-13.63 241.52,-11.64 198.49,-12.05"/>
<polygon fill="black" stroke="black" points="198.58,-9.6 191.61,-12.14 198.64,-14.5 198.58,-9.6"/>
</g>
<!-- Laser_Warhead_Damage_Efficienc&#45;&gt;Laser_Warhead_Damage_Efficienc -->
<g id="edge5" class="edge">
<title>Laser_Warhead_Damage_Efficienc&#45;&gt;Laser_Warhead_Damage_Efficienc</title>
<path fill="none" stroke="black" d="M190.42,-25.05C246.95,-26.58 300,-24.23 300,-18 300,-12.07 252,-9.66 198.67,-10.76"/>
<polygon fill="black" stroke="black" points="198.88,-8.3 191.94,-10.92 198.99,-13.2 198.88,-8.3"/>
</g>
<!-- Laser_Warhead_Damage_Efficienc&#45;&gt;Laser_Warhead_Damage_Efficienc -->
<g id="edge6" class="edge">
<title>Laser_Warhead_Damage_Efficienc&#45;&gt;Laser_Warhead_Damage_Efficienc</title>
<path fill="none" stroke="black" d="M190.34,-26.11C256.63,-28.59 322,-25.89 322,-18 322,-10.44 261.88,-7.64 198.49,-9.61"/>
<polygon fill="black" stroke="black" points="198.76,-7.15 191.85,-9.84 198.93,-12.05 198.76,-7.15"/>
</g>
<!-- Laser_Warhead_Damage_Efficienc&#45;&gt;Laser_Warhead_Damage_Efficienc -->
<g id="edge7" class="edge">
<title>Laser_Warhead_Damage_Efficienc&#45;&gt;Laser_Warhead_Damage_Efficienc</title>
<path fill="none" stroke="black" d="M190.18,-27.05C265.98,-30.62 344,-27.6 344,-18 344,-8.76 271.67,-5.62 198.62,-8.58"/>
<polygon fill="black" stroke="black" points="198.58,-6.13 191.69,-8.88 198.79,-11.02 198.58,-6.13"/>
</g>
</g>
</svg>
