<?xml version="1.0" encoding="UTF-8" standalone="no"?>
<!DOCTYPE svg PUBLIC "-//W3C//DTD SVG 1.1//EN"
 "http://www.w3.org/Graphics/SVG/1.1/DTD/svg11.dtd">
<!-- Generated by graphviz version 14.1.2 (20260124.0452)
 -->
<!-- Title: TechTree Pages: 1 -->
<svg width="149pt" height="569pt"
 viewBox="0.00 0.00 149.00 569.00" xmlns="http://www.w3.org/2000/svg" xmlns:xlink="http://www.w3.org/1999/xlink">
<g id="graph0" class="graph" transform="scale(1 1) rotate(0) translate(4 564.75)">
<title>TechTree</title>
<polygon fill="white" stroke="none" points="-4,4 -4,-564.75 145.25,-564.75 145.25,4 -4,4"/>
<text xml:space="preserve" text-anchor="middle" x="70.62" y="-545.35" font-family="Helvetica,sans-Serif" font-weight="bold" font-size="12.00">Laser Warhead Focus</text>
<!-- Laser_Warhead_Focus___10K -->
<g id="node1" class="node">
<title>Laser_Warhead_Focus___10K</title>
<path fill="#cce5ff" stroke="black" d="M123.25,-540C123.25,-540 18,-540 18,-540 12,-540 6,-534 6,-528 6,-528 6,-516 6,-516 6,-510 12,-504 18,-504 18,-504 123.25,-504 123.25,-504 129.25,-504 135.25,-510 135.25,-516 135.25,-516 135.25,-528 135.25,-528 135.25,-534 129.25,-540 123.25,-540"/>
<text xml:space="preserve" text-anchor="middle" x="70.62" y="-523.2" font-family="Helvetica,sans-Serif" font-size="9.00">Laser Warhead Focus &#45; 10K</text>
<text xml:space="preserve" text-anchor="middle" x="70.62" y="-513.45" font-family="Helvetica,sans-Serif" font-size="9.00">1K RP</text>
</g>
<!-- Laser_Warhead_Focus___20K -->
<g id="node2" class="node">
<title>Laser_Warhead_Focus___20K</title>
<path fill="#cce5ff" stroke="black" d="M123.25,-468C123.25,-468 18,-468 18,-468 12,-468 6,-462 6,-456 6,-456 6,-444 6,-444 6,-438 12,-432 18,-432 18,-432 123.25,-432 123.25,-432 129.25,-432 135.25,-438 135.25,-444 135.25,-444 135.25,-456 135.25,-456 135.25,-462 129.25,-468 123.25,-468"/>
<text xml:space="preserve" text-anchor="middle" x="70.62" y="-451.2" font-family="Helvetica,sans-Serif" font-size="9.00">Laser Warhead Focus &#45; 20K</text>
<text xml:space="preserve" text-anchor="middle" x="70.62" y="-441.45" font-family="Helvetica,sans-Serif" font-size="9.00">2K RP</text>
</g>
<!-- Laser_Warhead_Focus___10K&#45;&gt;Laser_Warhead_Focus___20K -->
<g id="edge1" class="edge">
<title>Laser_Warhead_Focus___10K&#45;&gt;Laser_Warhead_Focus___20K</title>
<path fill="none" stroke="black" d="M70.62,-503.7C70.62,-495.22 70.62,-484.86 70.62,-475.58"/>
<polygon fill="black" stroke="black" points="72.73,-475.62 70.63,-469.62 68.53,-475.62 72.73,-475.62"/>
</g>
<!-- Laser_Warhead_Focus___30K -->
<g id="node3" class="node">
<title>Laser_Warhead_Focus___30K</title>
<path fill="#cce5ff" stroke="black" d="M123.25,-396C123.25,-396 18,-396 18,-396 12,-396 6,-390 6,-384 6,-384 6,-372 6,-372 6,-366 12,-360 18,-360 18,-360 123.25,-360 123.25,-360 129.25,-360 135.25,-366 135.25,-372 135.25,-372 135.25,-384 135.25,-384 135.25,-390 129.25,-396 123.25,-396"/>
<text xml:space="preserve" text-anchor="middle" x="70.62" y="-379.2" font-family="Helvetica,sans-Serif" font-size="9.00">Laser Warhead Focus &#45; 30K</text>
<text xml:space="preserve" text-anchor="middle" x="70.62" y="-369.45" font-family="Helvetica,sans-Serif" font-size="9.00">4K RP</text>
</g>
<!-- Laser_Warhead_Focus___20K&#45;&gt;Laser_Warhead_Focus___30K -->
<g id="edge2" class="edge">
<title>Laser_Warhead_Focus___20K&#45;&gt;Laser_Warhead_Focus___30K</title>
<path fill="none" stroke="black" d="M70.62,-431.7C70.62,-423.22 70.62,-412.86 70.62,-403.58"/>
<polygon fill="black" stroke="black" points="72.73,-403.62 70.63,-397.62 68.53,-403.62 72.73,-403.62"/>
</g>
<!-- Laser_Warhead_Focus___40K -->
<g id="node4" class="node">
<title>Laser_Warhead_Focus___40K</title>
<path fill="#cce5ff" stroke="black" d="M123.25,-324C123.25,-324 18,-324 18,-324 12,-324 6,-318 6,-312 6,-312 6,-300 6,-300 6,-294 12,-288 18,-288 18,-288 123.25,-288 123.25,-288 129.25,-288 135.25,-294 135.25,-300 135.25,-300 135.25,-312 135.25,-312 135.25,-318 129.25,-324 123.25,-324"/>
<text xml:space="preserve" text-anchor="middle" x="70.62" y="-307.2" font-family="Helvetica,sans-Serif" font-size="9.00">Laser Warhead Focus &#45; 40K</text>
<text xml:space="preserve" text-anchor="middle" x="70.62" y="-297.45" font-family="Helvetica,sans-Serif" font-size="9.00">8K RP</text>
</g>
<!-- Laser_Warhead_Focus___30K&#45;&gt;Laser_Warhead_Focus___40K -->
<g id="edge3" class="edge">
<title>Laser_Warhead_Focus___30K&#45;&gt;Laser_Warhead_Focus___40K</title>
<path fill="none" stroke="black" d="M70.62,-359.7C70.62,-351.22 70.62,-340.86 70.62,-331.58"/>
<polygon fill="black" stroke="black" points="72.73,-331.62 70.63,-325.62 68.53,-331.62 72.73,-331.62"/>
</g>
<!-- Laser_Warhead_Focus___50K -->
<g id="node5" class="node">
<title>Laser_Warhead_Focus___50K</title>
<path fill="#fff3cd" stroke="black" d="M123.25,-252C123.25,-252 18,-252 18,-252 12,-252 6,-246 6,-240 6,-240 6,-228 6,-228 6,-222 12,-216 18,-216 18,-216 123.25,-216 123.25,-216 129.25,-216 135.25,-222 135.25,-228 135.25,-228 135.25,-240 135.25,-240 135.25,-246 129.25,-252 123.25,-252"/>
<text xml:space="preserve" text-anchor="middle" x="70.62" y="-235.2" font-family="Helvetica,sans-Serif" font-size="9.00">Laser Warhead Focus &#45; 50K</text>
<text xml:space="preserve" text-anchor="middle" x="70.62" y="-225.45" font-family="Helvetica,sans-Serif" font-size="9.00">16K RP</text>
</g>
<!-- Laser_Warhead_Focus___40K&#45;&gt;Laser_Warhead_Focus___50K -->
<g id="edge4" class="edge">
<title>Laser_Warhead_Focus___40K&#45;&gt;Laser_Warhead_Focus___50K</title>
<path fill="none" stroke="black" d="M70.62,-287.7C70.62,-279.22 70.62,-268.86 70.62,-259.58"/>
<polygon fill="black" stroke="black" points="72.73,-259.62 70.63,-253.62 68.53,-259.62 72.73,-259.62"/>
</g>
<!-- Laser_Warhead_Focus___60K -->
<g id="node6" class="node">
<title>Laser_Warhead_Focus___60K</title>
<path fill="#fff3cd" stroke="black" d="M123.25,-180C123.25,-180 18,-180 18,-180 12,-180 6,-174 6,-168 6,-168 6,-156 6,-156 6,-150 12,-144 18,-144 18,-144 123.25,-144 123.25,-144 129.25,-144 135.25,-150 135.25,-156 135.25,-156 135.25,-168 135.25,-168 135.25,-174 129.25,-180 123.25,-180"/>
<text xml:space="preserve" text-anchor="middle" x="70.62" y="-163.2" font-family="Helvetica,sans-Serif" font-size="9.00">Laser Warhead Focus &#45; 60K</text>
<text xml:space="preserve" text-anchor="middle" x="70.62" y="-153.45" font-family="Helvetica,sans-Serif" font-size="9.00">32K RP</text>
</g>
<!-- Laser_Warhead_Focus___50K&#45;&gt;Laser_Warhead_Focus___60K -->
<g id="edge5" class="edge">
<title>Laser_Warhead_Focus___50K&#45;&gt;Laser_Warhead_Focus___60K</title>
<path fill="none" stroke="black" d="M70.62,-215.7C70.62,-207.22 70.62,-196.86 70.62,-187.58"/>
<polygon fill="black" stroke="black" points="72.73,-187.62 70.63,-181.62 68.53,-187.62 72.73,-187.62"/>
</g>
<!-- Laser_Warhead_Focus___70K -->
<g id="node7" class="node">
<title>Laser_Warhead_Focus___70K</title>
<path fill="#fff3cd" stroke="black" d="M123.25,-108C123.25,-108 18,-108 18,-108 12,-108 6,-102 6,-96 6,-96 6,-84 6,-84 6,-78 12,-72 18,-72 18,-72 123.25,-72 123.25,-72 129.25,-72 135.25,-78 135.25,-84 135.25,-84 135.25,-96 135.25,-96 135.25,-102 129.25,-108 123.25,-108"/>
<text xml:space="preserve" text-anchor="middle" x="70.62" y="-91.2" font-family="Helvetica,sans-Serif" font-size="9.00">Laser Warhead Focus &#45; 70K</text>
<text xml:space="preserve" text-anchor="middle" x="70.62" y="-81.45" font-family="Helvetica,sans-Serif" font-size="9.00">64K RP</text>
</g>
<!-- Laser_Warhead_Focus___60K&#45;&gt;Laser_Warhead_Focus___70K -->
<g id="edge6" class="edge">
<title>Laser_Warhead_Focus___60K&#45;&gt;Laser_Warhead_Focus___70K</title>
<path fill="none" stroke="black" d="M70.62,-143.7C70.62,-135.22 70.62,-124.86 70.62,-115.58"/>
<polygon fill="black" stroke="black" points="72.73,-115.62 70.63,-109.62 68.53,-115.62 72.73,-115.62"/>
</g>
<!-- Laser_Warhead_Focus___80K -->
<g id="node8" class="node">
<title>Laser_Warhead_Focus___80K</title>
<path fill="#d4c4fb" stroke="black" d="M123.25,-36C123.25,-36 18,-36 18,-36 12,-36 6,-30 6,-24 6,-24 6,-12 6,-12 6,-6 12,0 18,0 18,0 123.25,0 123.25,0 129.25,0 135.25,-6 135.25,-12 135.25,-12 135.25,-24 135.25,-24 135.25,-30 129.25,-36 123.25,-36"/>
<text xml:space="preserve" text-anchor="middle" x="70.62" y="-19.2" font-family="Helvetica,sans-Serif" font-size="9.00">Laser Warhead Focus &#45; 80K</text>
<text xml:space="preserve" text-anchor="middle" x="70.62" y="-9.45" font-family="Helvetica,sans-Serif" font-size="9.00">128K RP</text>
</g>
<!-- Laser_Warhead_Focus___70K&#45;&gt;Laser_Warhead_Focus___80K -->
<g id="edge7" class="edge">
<title>Laser_Warhead_Focus___70K&#45;&gt;Laser_Warhead_Focus___80K</title>
<path fill="none" stroke="black" d="M70.62,-71.7C70.62,-63.22 70.62,-52.86 70.62,-43.58"/>
<polygon fill="black" stroke="black" points="72.73,-43.62 70.63,-37.62 68.53,-43.62 72.73,-43.62"/>
</g>
</g>
</svg>
