<?xml version="1.0" encoding="UTF-8" standalone="no"?>
<!DOCTYPE svg PUBLIC "-//W3C//DTD SVG 1.1//EN"
 "http://www.w3.org/Graphics/SVG/1.1/DTD/svg11.dtd">
<!-- Generated by graphviz version 14.1.2 (20260124.0452)
 -->
<!-- Title: TechTree Pages: 1 -->
<svg width="746pt" height="132pt"
 viewBox="0.00 0.00 746.00 132.00" xmlns="http://www.w3.org/2000/svg" xmlns:xlink="http://www.w3.org/1999/xlink">
<g id="graph0" class="graph" transform="scale(1 1) rotate(0) translate(4 128)">
<title>TechTree</title>
<polygon fill="white" stroke="none" points="-4,4 -4,-128 742,-128 742,4 -4,4"/>
<text xml:space="preserve" text-anchor="middle" x="369" y="-106.7" font-family="Helvetica,sans-Serif" font-weight="bold" font-size="14.00">Laser Focal Size</text>
<!-- 10 -->
<g id="node1" class="node">
<title>10</title>
<path fill="lightgrey" stroke="black" d="M277,-101C277,-101 247,-101 247,-101 241,-101 235,-95 235,-89 235,-89 235,-77 235,-77 235,-71 241,-65 247,-65 247,-65 277,-65 277,-65 283,-65 289,-71 289,-77 289,-77 289,-89 289,-89 289,-95 283,-101 277,-101"/>
<text xml:space="preserve" text-anchor="middle" x="262" y="-79.12" font-family="Helvetica,sans-Serif" font-size="10.00">10</text>
</g>
<!-- cm_Laser_Focal_Size -->
<g id="node2" class="node">
<title>cm_Laser_Focal_Size</title>
<path fill="#f8d7da" stroke="black" d="M415.25,-101C415.25,-101 322.75,-101 322.75,-101 316.75,-101 310.75,-95 310.75,-89 310.75,-89 310.75,-77 310.75,-77 310.75,-71 316.75,-65 322.75,-65 322.75,-65 415.25,-65 415.25,-65 421.25,-65 427.25,-71 427.25,-77 427.25,-77 427.25,-89 427.25,-89 427.25,-95 421.25,-101 415.25,-101"/>
<text xml:space="preserve" text-anchor="middle" x="369" y="-84.75" font-family="Helvetica,sans-Serif" font-size="10.00">80cm Laser Focal Size</text>
<text xml:space="preserve" text-anchor="middle" x="369" y="-73.5" font-family="Helvetica,sans-Serif" font-size="10.00">2.0M RP</text>
</g>
<!-- 15 -->
<g id="node4" class="node">
<title>15</title>
<path fill="lightgrey" stroke="black" d="M42,-36C42,-36 12,-36 12,-36 6,-36 0,-30 0,-24 0,-24 0,-12 0,-12 0,-6 6,0 12,0 12,0 42,0 42,0 48,0 54,-6 54,-12 54,-12 54,-24 54,-24 54,-30 48,-36 42,-36"/>
<text xml:space="preserve" text-anchor="middle" x="27" y="-14.12" font-family="Helvetica,sans-Serif" font-size="10.00">15</text>
</g>
<!-- cm_Laser_Focal_Size&#45;&gt;15 -->
<g id="edge1" class="edge">
<title>cm_Laser_Focal_Size&#45;&gt;15</title>
<path fill="none" stroke="black" d="M310.38,-67.05C306.88,-66.32 303.4,-65.63 300,-65 196.5,-45.93 166.38,-64.24 65,-36 64.13,-35.76 63.25,-35.5 62.37,-35.22"/>
<polygon fill="black" stroke="black" points="63.3,-32.95 55.88,-32.93 61.66,-37.57 63.3,-32.95"/>
</g>
<!-- 20 -->
<g id="node5" class="node">
<title>20</title>
<path fill="lightgrey" stroke="black" d="M118,-36C118,-36 88,-36 88,-36 82,-36 76,-30 76,-24 76,-24 76,-12 76,-12 76,-6 82,0 88,0 88,0 118,0 118,0 124,0 130,-6 130,-12 130,-12 130,-24 130,-24 130,-30 124,-36 118,-36"/>
<text xml:space="preserve" text-anchor="middle" x="103" y="-14.12" font-family="Helvetica,sans-Serif" font-size="10.00">20</text>
</g>
<!-- cm_Laser_Focal_Size&#45;&gt;20 -->
<g id="edge2" class="edge">
<title>cm_Laser_Focal_Size&#45;&gt;20</title>
<path fill="none" stroke="black" d="M310.33,-67.29C306.84,-66.49 303.38,-65.72 300,-65 229.76,-49.96 209.61,-57.26 141,-36 139.99,-35.69 138.97,-35.35 137.95,-35.01"/>
<polygon fill="black" stroke="black" points="138.93,-32.76 131.51,-32.59 137.21,-37.34 138.93,-32.76"/>
</g>
<!-- 25 -->
<g id="node6" class="node">
<title>25</title>
<path fill="lightgrey" stroke="black" d="M194,-36C194,-36 164,-36 164,-36 158,-36 152,-30 152,-24 152,-24 152,-12 152,-12 152,-6 158,0 164,0 164,0 194,0 194,0 200,0 206,-6 206,-12 206,-12 206,-24 206,-24 206,-30 200,-36 194,-36"/>
<text xml:space="preserve" text-anchor="middle" x="179" y="-14.12" font-family="Helvetica,sans-Serif" font-size="10.00">25</text>
</g>
<!-- cm_Laser_Focal_Size&#45;&gt;25 -->
<g id="edge3" class="edge">
<title>cm_Laser_Focal_Size&#45;&gt;25</title>
<path fill="none" stroke="black" d="M310.32,-66.12C281.86,-57.95 247.35,-47.33 217,-36 216.01,-35.63 215.01,-35.25 214,-34.85"/>
<polygon fill="black" stroke="black" points="215.03,-32.63 207.63,-32.25 213.18,-37.17 215.03,-32.63"/>
</g>
<!-- 30 -->
<g id="node7" class="node">
<title>30</title>
<path fill="lightgrey" stroke="black" d="M270,-36C270,-36 240,-36 240,-36 234,-36 228,-30 228,-24 228,-24 228,-12 228,-12 228,-6 234,0 240,0 240,0 270,0 270,0 276,0 282,-6 282,-12 282,-12 282,-24 282,-24 282,-30 276,-36 270,-36"/>
<text xml:space="preserve" text-anchor="middle" x="255" y="-14.12" font-family="Helvetica,sans-Serif" font-size="10.00">30</text>
</g>
<!-- cm_Laser_Focal_Size&#45;&gt;30 -->
<g id="edge4" class="edge">
<title>cm_Laser_Focal_Size&#45;&gt;30</title>
<path fill="none" stroke="black" d="M337.55,-64.62C322.71,-56.42 304.96,-46.61 289.72,-38.19"/>
<polygon fill="black" stroke="black" points="291.11,-36.16 283.8,-34.91 288.74,-40.44 291.11,-36.16"/>
</g>
<!-- 35 -->
<g id="node8" class="node">
<title>35</title>
<path fill="lightgrey" stroke="black" d="M346,-36C346,-36 316,-36 316,-36 310,-36 304,-30 304,-24 304,-24 304,-12 304,-12 304,-6 310,0 316,0 316,0 346,0 346,0 352,0 358,-6 358,-12 358,-12 358,-24 358,-24 358,-30 352,-36 346,-36"/>
<text xml:space="preserve" text-anchor="middle" x="331" y="-14.12" font-family="Helvetica,sans-Serif" font-size="10.00">35</text>
</g>
<!-- cm_Laser_Focal_Size&#45;&gt;35 -->
<g id="edge5" class="edge">
<title>cm_Laser_Focal_Size&#45;&gt;35</title>
<path fill="none" stroke="black" d="M358.62,-64.78C354.59,-58.12 349.92,-50.37 345.57,-43.16"/>
<polygon fill="black" stroke="black" points="347.87,-42.22 342.15,-37.49 343.67,-44.75 347.87,-42.22"/>
</g>
<!-- 40 -->
<g id="node9" class="node">
<title>40</title>
<path fill="lightgrey" stroke="black" d="M422,-36C422,-36 392,-36 392,-36 386,-36 380,-30 380,-24 380,-24 380,-12 380,-12 380,-6 386,0 392,0 392,0 422,0 422,0 428,0 434,-6 434,-12 434,-12 434,-24 434,-24 434,-30 428,-36 422,-36"/>
<text xml:space="preserve" text-anchor="middle" x="407" y="-14.12" font-family="Helvetica,sans-Serif" font-size="10.00">40</text>
</g>
<!-- cm_Laser_Focal_Size&#45;&gt;40 -->
<g id="edge6" class="edge">
<title>cm_Laser_Focal_Size&#45;&gt;40</title>
<path fill="none" stroke="black" d="M379.38,-64.78C383.41,-58.12 388.08,-50.37 392.43,-43.16"/>
<polygon fill="black" stroke="black" points="394.33,-44.75 395.85,-37.49 390.13,-42.22 394.33,-44.75"/>
</g>
<!-- 50 -->
<g id="node10" class="node">
<title>50</title>
<path fill="lightgrey" stroke="black" d="M498,-36C498,-36 468,-36 468,-36 462,-36 456,-30 456,-24 456,-24 456,-12 456,-12 456,-6 462,0 468,0 468,0 498,0 498,0 504,0 510,-6 510,-12 510,-12 510,-24 510,-24 510,-30 504,-36 498,-36"/>
<text xml:space="preserve" text-anchor="middle" x="483" y="-14.12" font-family="Helvetica,sans-Serif" font-size="10.00">50</text>
</g>
<!-- cm_Laser_Focal_Size&#45;&gt;50 -->
<g id="edge7" class="edge">
<title>cm_Laser_Focal_Size&#45;&gt;50</title>
<path fill="none" stroke="black" d="M400.45,-64.62C415.29,-56.42 433.04,-46.61 448.28,-38.19"/>
<polygon fill="black" stroke="black" points="449.26,-40.44 454.2,-34.91 446.89,-36.16 449.26,-40.44"/>
</g>
<!-- 60 -->
<g id="node11" class="node">
<title>60</title>
<path fill="lightgrey" stroke="black" d="M574,-36C574,-36 544,-36 544,-36 538,-36 532,-30 532,-24 532,-24 532,-12 532,-12 532,-6 538,0 544,0 544,0 574,0 574,0 580,0 586,-6 586,-12 586,-12 586,-24 586,-24 586,-30 580,-36 574,-36"/>
<text xml:space="preserve" text-anchor="middle" x="559" y="-14.12" font-family="Helvetica,sans-Serif" font-size="10.00">60</text>
</g>
<!-- cm_Laser_Focal_Size&#45;&gt;60 -->
<g id="edge8" class="edge">
<title>cm_Laser_Focal_Size&#45;&gt;60</title>
<path fill="none" stroke="black" d="M427.68,-66.12C456.14,-57.95 490.65,-47.33 521,-36 521.99,-35.63 522.99,-35.25 524,-34.85"/>
<polygon fill="black" stroke="black" points="524.82,-37.17 530.37,-32.25 522.97,-32.63 524.82,-37.17"/>
</g>
<!-- 70 -->
<g id="node12" class="node">
<title>70</title>
<path fill="lightgrey" stroke="black" d="M650,-36C650,-36 620,-36 620,-36 614,-36 608,-30 608,-24 608,-24 608,-12 608,-12 608,-6 614,0 620,0 620,0 650,0 650,0 656,0 662,-6 662,-12 662,-12 662,-24 662,-24 662,-30 656,-36 650,-36"/>
<text xml:space="preserve" text-anchor="middle" x="635" y="-14.12" font-family="Helvetica,sans-Serif" font-size="10.00">70</text>
</g>
<!-- cm_Laser_Focal_Size&#45;&gt;70 -->
<g id="edge9" class="edge">
<title>cm_Laser_Focal_Size&#45;&gt;70</title>
<path fill="none" stroke="black" d="M427.67,-67.29C431.16,-66.49 434.62,-65.72 438,-65 508.24,-49.96 528.39,-57.26 597,-36 598.01,-35.69 599.03,-35.35 600.05,-35.01"/>
<polygon fill="black" stroke="black" points="600.79,-37.34 606.49,-32.59 599.07,-32.76 600.79,-37.34"/>
</g>
<!-- 80 -->
<g id="node13" class="node">
<title>80</title>
<path fill="lightgrey" stroke="black" d="M726,-36C726,-36 696,-36 696,-36 690,-36 684,-30 684,-24 684,-24 684,-12 684,-12 684,-6 690,0 696,0 696,0 726,0 726,0 732,0 738,-6 738,-12 738,-12 738,-24 738,-24 738,-30 732,-36 726,-36"/>
<text xml:space="preserve" text-anchor="middle" x="711" y="-14.12" font-family="Helvetica,sans-Serif" font-size="10.00">80</text>
</g>
<!-- cm_Laser_Focal_Size&#45;&gt;80 -->
<g id="edge10" class="edge">
<title>cm_Laser_Focal_Size&#45;&gt;80</title>
<path fill="none" stroke="black" d="M427.62,-67.05C431.12,-66.32 434.6,-65.63 438,-65 541.5,-45.93 571.62,-64.24 673,-36 673.87,-35.76 674.75,-35.5 675.63,-35.22"/>
<polygon fill="black" stroke="black" points="676.34,-37.57 682.12,-32.93 674.7,-32.95 676.34,-37.57"/>
</g>
<!-- 12 -->
<g id="node3" class="node">
<title>12</title>
<path fill="lightgrey" stroke="black" d="M491,-101C491,-101 461,-101 461,-101 455,-101 449,-95 449,-89 449,-89 449,-77 449,-77 449,-71 455,-65 461,-65 461,-65 491,-65 491,-65 497,-65 503,-71 503,-77 503,-77 503,-89 503,-89 503,-95 497,-101 491,-101"/>
<text xml:space="preserve" text-anchor="middle" x="476" y="-79.12" font-family="Helvetica,sans-Serif" font-size="10.00">12</text>
</g>
</g>
</svg>
