<?xml version="1.0" encoding="UTF-8" standalone="no"?>
<!DOCTYPE svg PUBLIC "-//W3C//DTD SVG 1.1//EN"
 "http://www.w3.org/Graphics/SVG/1.1/DTD/svg11.dtd">
<!-- Generated by graphviz version 14.1.2 (20260124.0452)
 -->
<!-- Title: TechTree Pages: 1 -->
<svg width="823pt" height="137pt"
 viewBox="0.00 0.00 823.00 137.00" xmlns="http://www.w3.org/2000/svg" xmlns:xlink="http://www.w3.org/1999/xlink">
<g id="graph0" class="graph" transform="scale(1 1) rotate(0) translate(4 132.75)">
<title>TechTree</title>
<polygon fill="white" stroke="none" points="-4,4 -4,-132.75 819,-132.75 819,4 -4,4"/>
<text xml:space="preserve" text-anchor="middle" x="407.5" y="-113.35" font-family="Helvetica,sans-Serif" font-weight="bold" font-size="12.00">Laser Focal Size</text>
<!-- 10 -->
<g id="node1" class="node">
<title>10</title>
<path fill="lightgrey" stroke="black" d="M266,-108C266,-108 236,-108 236,-108 230,-108 224,-102 224,-96 224,-96 224,-84 224,-84 224,-78 230,-72 236,-72 236,-72 266,-72 266,-72 272,-72 278,-78 278,-84 278,-84 278,-96 278,-96 278,-102 272,-108 266,-108"/>
<text xml:space="preserve" text-anchor="middle" x="251" y="-86.33" font-family="Helvetica,sans-Serif" font-size="9.00">10</text>
</g>
<!-- cm_Laser_Focal_Size -->
<g id="node2" class="node">
<title>cm_Laser_Focal_Size</title>
<path fill="#f8d7da" stroke="black" d="M393.5,-108C393.5,-108 308.5,-108 308.5,-108 302.5,-108 296.5,-102 296.5,-96 296.5,-96 296.5,-84 296.5,-84 296.5,-78 302.5,-72 308.5,-72 308.5,-72 393.5,-72 393.5,-72 399.5,-72 405.5,-78 405.5,-84 405.5,-84 405.5,-96 405.5,-96 405.5,-102 399.5,-108 393.5,-108"/>
<text xml:space="preserve" text-anchor="middle" x="351" y="-91.2" font-family="Helvetica,sans-Serif" font-size="9.00">80cm Laser Focal Size</text>
<text xml:space="preserve" text-anchor="middle" x="351" y="-81.45" font-family="Helvetica,sans-Serif" font-size="9.00">2.0M RP</text>
</g>
<!-- 15 -->
<g id="node4" class="node">
<title>15</title>
<path fill="lightgrey" stroke="black" d="M42,-36C42,-36 12,-36 12,-36 6,-36 0,-30 0,-24 0,-24 0,-12 0,-12 0,-6 6,0 12,0 12,0 42,0 42,0 48,0 54,-6 54,-12 54,-12 54,-24 54,-24 54,-30 48,-36 42,-36"/>
<text xml:space="preserve" text-anchor="middle" x="27" y="-14.32" font-family="Helvetica,sans-Serif" font-size="9.00">15</text>
</g>
<!-- cm_Laser_Focal_Size&#45;&gt;15 -->
<g id="edge2" class="edge">
<title>cm_Laser_Focal_Size&#45;&gt;15</title>
<path fill="none" stroke="black" d="M296.27,-74.08C293.14,-73.34 290.04,-72.65 287,-72 188.37,-51.03 159.32,-65.82 63,-36 62.36,-35.8 61.73,-35.6 61.09,-35.38"/>
<polygon fill="black" stroke="black" points="61.97,-33.47 55.62,-33.34 60.5,-37.41 61.97,-33.47"/>
</g>
<!-- 20 -->
<g id="node5" class="node">
<title>20</title>
<path fill="lightgrey" stroke="black" d="M114,-36C114,-36 84,-36 84,-36 78,-36 72,-30 72,-24 72,-24 72,-12 72,-12 72,-6 78,0 84,0 84,0 114,0 114,0 120,0 126,-6 126,-12 126,-12 126,-24 126,-24 126,-30 120,-36 114,-36"/>
<text xml:space="preserve" text-anchor="middle" x="99" y="-14.32" font-family="Helvetica,sans-Serif" font-size="9.00">20</text>
</g>
<!-- cm_Laser_Focal_Size&#45;&gt;20 -->
<g id="edge3" class="edge">
<title>cm_Laser_Focal_Size&#45;&gt;20</title>
<path fill="none" stroke="black" d="M296.21,-74.34C293.1,-73.54 290.01,-72.76 287,-72 219.67,-55.09 200.52,-58.95 135,-36 134.37,-35.78 133.74,-35.55 133.11,-35.32"/>
<polygon fill="black" stroke="black" points="134.03,-33.43 127.68,-33.16 132.47,-37.33 134.03,-33.43"/>
</g>
<!-- 25 -->
<g id="node6" class="node">
<title>25</title>
<path fill="lightgrey" stroke="black" d="M186,-36C186,-36 156,-36 156,-36 150,-36 144,-30 144,-24 144,-24 144,-12 144,-12 144,-6 150,0 156,0 156,0 186,0 186,0 192,0 198,-6 198,-12 198,-12 198,-24 198,-24 198,-30 192,-36 186,-36"/>
<text xml:space="preserve" text-anchor="middle" x="171" y="-14.32" font-family="Helvetica,sans-Serif" font-size="9.00">25</text>
</g>
<!-- cm_Laser_Focal_Size&#45;&gt;25 -->
<g id="edge4" class="edge">
<title>cm_Laser_Focal_Size&#45;&gt;25</title>
<path fill="none" stroke="black" d="M300.26,-71.56C272.48,-61.71 237.59,-48.82 207,-36 206.39,-35.74 205.77,-35.48 205.15,-35.22"/>
<polygon fill="black" stroke="black" points="206.13,-33.35 199.79,-32.86 204.44,-37.2 206.13,-33.35"/>
</g>
<!-- 30 -->
<g id="node7" class="node">
<title>30</title>
<path fill="lightgrey" stroke="black" d="M258,-36C258,-36 228,-36 228,-36 222,-36 216,-30 216,-24 216,-24 216,-12 216,-12 216,-6 222,0 228,0 228,0 258,0 258,0 264,0 270,-6 270,-12 270,-12 270,-24 270,-24 270,-30 264,-36 258,-36"/>
<text xml:space="preserve" text-anchor="middle" x="243" y="-14.32" font-family="Helvetica,sans-Serif" font-size="9.00">30</text>
</g>
<!-- cm_Laser_Focal_Size&#45;&gt;30 -->
<g id="edge5" class="edge">
<title>cm_Laser_Focal_Size&#45;&gt;30</title>
<path fill="none" stroke="black" d="M324.03,-71.52C309.35,-62.01 291.1,-50.17 275.63,-40.15"/>
<polygon fill="black" stroke="black" points="277.08,-38.58 270.9,-37.08 274.79,-42.11 277.08,-38.58"/>
</g>
<!-- 35 -->
<g id="node8" class="node">
<title>35</title>
<path fill="lightgrey" stroke="black" d="M330,-36C330,-36 300,-36 300,-36 294,-36 288,-30 288,-24 288,-24 288,-12 288,-12 288,-6 294,0 300,0 300,0 330,0 330,0 336,0 342,-6 342,-12 342,-12 342,-24 342,-24 342,-30 336,-36 330,-36"/>
<text xml:space="preserve" text-anchor="middle" x="315" y="-14.32" font-family="Helvetica,sans-Serif" font-size="9.00">35</text>
</g>
<!-- cm_Laser_Focal_Size&#45;&gt;35 -->
<g id="edge6" class="edge">
<title>cm_Laser_Focal_Size&#45;&gt;35</title>
<path fill="none" stroke="black" d="M342.1,-71.7C337.61,-62.97 332.1,-52.24 327.21,-42.75"/>
<polygon fill="black" stroke="black" points="329.1,-41.83 324.49,-37.45 325.37,-43.75 329.1,-41.83"/>
</g>
<!-- 40 -->
<g id="node9" class="node">
<title>40</title>
<path fill="lightgrey" stroke="black" d="M402,-36C402,-36 372,-36 372,-36 366,-36 360,-30 360,-24 360,-24 360,-12 360,-12 360,-6 366,0 372,0 372,0 402,0 402,0 408,0 414,-6 414,-12 414,-12 414,-24 414,-24 414,-30 408,-36 402,-36"/>
<text xml:space="preserve" text-anchor="middle" x="387" y="-14.32" font-family="Helvetica,sans-Serif" font-size="9.00">40</text>
</g>
<!-- cm_Laser_Focal_Size&#45;&gt;40 -->
<g id="edge7" class="edge">
<title>cm_Laser_Focal_Size&#45;&gt;40</title>
<path fill="none" stroke="black" d="M359.9,-71.7C364.39,-62.97 369.9,-52.24 374.79,-42.75"/>
<polygon fill="black" stroke="black" points="376.63,-43.75 377.51,-37.45 372.9,-41.83 376.63,-43.75"/>
</g>
<!-- 50 -->
<g id="node10" class="node">
<title>50</title>
<path fill="lightgrey" stroke="black" d="M474,-36C474,-36 444,-36 444,-36 438,-36 432,-30 432,-24 432,-24 432,-12 432,-12 432,-6 438,0 444,0 444,0 474,0 474,0 480,0 486,-6 486,-12 486,-12 486,-24 486,-24 486,-30 480,-36 474,-36"/>
<text xml:space="preserve" text-anchor="middle" x="459" y="-14.32" font-family="Helvetica,sans-Serif" font-size="9.00">50</text>
</g>
<!-- cm_Laser_Focal_Size&#45;&gt;50 -->
<g id="edge8" class="edge">
<title>cm_Laser_Focal_Size&#45;&gt;50</title>
<path fill="none" stroke="black" d="M377.97,-71.52C392.65,-62.01 410.9,-50.17 426.37,-40.15"/>
<polygon fill="black" stroke="black" points="427.21,-42.11 431.1,-37.08 424.92,-38.58 427.21,-42.11"/>
</g>
<!-- 60 -->
<g id="node11" class="node">
<title>60</title>
<path fill="lightgrey" stroke="black" d="M546,-36C546,-36 516,-36 516,-36 510,-36 504,-30 504,-24 504,-24 504,-12 504,-12 504,-6 510,0 516,0 516,0 546,0 546,0 552,0 558,-6 558,-12 558,-12 558,-24 558,-24 558,-30 552,-36 546,-36"/>
<text xml:space="preserve" text-anchor="middle" x="531" y="-14.32" font-family="Helvetica,sans-Serif" font-size="9.00">60</text>
</g>
<!-- cm_Laser_Focal_Size&#45;&gt;60 -->
<g id="edge9" class="edge">
<title>cm_Laser_Focal_Size&#45;&gt;60</title>
<path fill="none" stroke="black" d="M401.74,-71.56C429.52,-61.71 464.41,-48.82 495,-36 495.61,-35.74 496.23,-35.48 496.85,-35.22"/>
<polygon fill="black" stroke="black" points="497.56,-37.2 502.21,-32.86 495.87,-33.35 497.56,-37.2"/>
</g>
<!-- 70 -->
<g id="node12" class="node">
<title>70</title>
<path fill="lightgrey" stroke="black" d="M618,-36C618,-36 588,-36 588,-36 582,-36 576,-30 576,-24 576,-24 576,-12 576,-12 576,-6 582,0 588,0 588,0 618,0 618,0 624,0 630,-6 630,-12 630,-12 630,-24 630,-24 630,-30 624,-36 618,-36"/>
<text xml:space="preserve" text-anchor="middle" x="603" y="-14.32" font-family="Helvetica,sans-Serif" font-size="9.00">70</text>
</g>
<!-- cm_Laser_Focal_Size&#45;&gt;70 -->
<g id="edge10" class="edge">
<title>cm_Laser_Focal_Size&#45;&gt;70</title>
<path fill="none" stroke="black" d="M405.59,-78.77C449.79,-69.74 513.32,-55.04 567,-36 567.63,-35.78 568.26,-35.55 568.89,-35.31"/>
<polygon fill="black" stroke="black" points="569.53,-37.32 574.32,-33.14 567.97,-33.42 569.53,-37.32"/>
</g>
<!-- 80 -->
<g id="node13" class="node">
<title>80</title>
<path fill="lightgrey" stroke="black" d="M690,-36C690,-36 660,-36 660,-36 654,-36 648,-30 648,-24 648,-24 648,-12 648,-12 648,-6 654,0 660,0 660,0 690,0 690,0 696,0 702,-6 702,-12 702,-12 702,-24 702,-24 702,-30 696,-36 690,-36"/>
<text xml:space="preserve" text-anchor="middle" x="675" y="-14.32" font-family="Helvetica,sans-Serif" font-size="9.00">80</text>
</g>
<!-- cm_Laser_Focal_Size&#45;&gt;80 -->
<g id="edge11" class="edge">
<title>cm_Laser_Focal_Size&#45;&gt;80</title>
<path fill="none" stroke="black" d="M405.91,-83.19C464.64,-75.99 560,-61.44 639,-36 639.63,-35.8 640.27,-35.58 640.91,-35.36"/>
<polygon fill="black" stroke="black" points="641.51,-37.38 646.37,-33.29 640.01,-33.46 641.51,-37.38"/>
</g>
<!-- 12 -->
<g id="node3" class="node">
<title>12</title>
<path fill="lightgrey" stroke="black" d="M762,-36C762,-36 732,-36 732,-36 726,-36 720,-30 720,-24 720,-24 720,-12 720,-12 720,-6 726,0 732,0 732,0 762,0 762,0 768,0 774,-6 774,-12 774,-12 774,-24 774,-24 774,-30 768,-36 762,-36"/>
<text xml:space="preserve" text-anchor="middle" x="747" y="-14.32" font-family="Helvetica,sans-Serif" font-size="9.00">12</text>
</g>
<!-- ext_Trans_Newtonian_Technology -->
<g id="node14" class="node">
<title>ext_Trans_Newtonian_Technology</title>
<path fill="#f0f0f0" stroke="black" stroke-dasharray="5,2" d="M803,-108C803,-108 691,-108 691,-108 685,-108 679,-102 679,-96 679,-96 679,-84 679,-84 679,-78 685,-72 691,-72 691,-72 803,-72 803,-72 809,-72 815,-78 815,-84 815,-84 815,-96 815,-96 815,-102 809,-108 803,-108"/>
<text xml:space="preserve" text-anchor="middle" x="747" y="-86.33" font-family="Helvetica,sans-Serif" font-size="9.00">Trans&#45;Newtonian Technology</text>
</g>
<!-- ext_Trans_Newtonian_Technology&#45;&gt;12 -->
<g id="edge1" class="edge">
<title>ext_Trans_Newtonian_Technology&#45;&gt;12</title>
<path fill="none" stroke="black" d="M747,-71.7C747,-63.22 747,-52.86 747,-43.58"/>
<polygon fill="black" stroke="black" points="749.1,-43.62 747,-37.62 744.9,-43.62 749.1,-43.62"/>
</g>
</g>
</svg>
