<?xml version="1.0" encoding="UTF-8" standalone="no"?>
<!DOCTYPE svg PUBLIC "-//W3C//DTD SVG 1.1//EN"
 "http://www.w3.org/Graphics/SVG/1.1/DTD/svg11.dtd">
<!-- Generated by graphviz version 14.1.2 (20260124.0452)
 -->
<!-- Title: TechTree Pages: 1 -->
<svg width="312pt" height="137pt"
 viewBox="0.00 0.00 312.00 137.00" xmlns="http://www.w3.org/2000/svg" xmlns:xlink="http://www.w3.org/1999/xlink">
<g id="graph0" class="graph" transform="scale(1 1) rotate(0) translate(4 132.75)">
<title>TechTree</title>
<polygon fill="white" stroke="none" points="-4,4 -4,-132.75 308,-132.75 308,4 -4,4"/>
<text xml:space="preserve" text-anchor="middle" x="152" y="-113.35" font-family="Helvetica,sans-Serif" font-weight="bold" font-size="12.00">Laser Warhead Damage Efficiency</text>
<!-- Laser_Warhead_Damage_Efficienc -->
<g id="node1" class="node">
<title>Laser_Warhead_Damage_Efficienc</title>
<path fill="#d4c4fb" stroke="black" d="M166,-36C166,-36 12,-36 12,-36 6,-36 0,-30 0,-24 0,-24 0,-12 0,-12 0,-6 6,0 12,0 12,0 166,0 166,0 172,0 178,-6 178,-12 178,-12 178,-24 178,-24 178,-30 172,-36 166,-36"/>
<text xml:space="preserve" text-anchor="middle" x="89" y="-19.2" font-family="Helvetica,sans-Serif" font-size="9.00">Laser Warhead Damage Efficiency 90%</text>
<text xml:space="preserve" text-anchor="middle" x="89" y="-9.45" font-family="Helvetica,sans-Serif" font-size="9.00">128K RP</text>
</g>
<!-- Laser_Warhead_Damage_Efficienc&#45;&gt;Laser_Warhead_Damage_Efficienc -->
<g id="edge2" class="edge">
<title>Laser_Warhead_Damage_Efficienc&#45;&gt;Laser_Warhead_Damage_Efficienc</title>
<path fill="none" stroke="black" d="M178.37,-19.66C189.03,-19.36 196,-18.8 196,-18 196,-17.4 192.08,-16.94 185.62,-16.62"/>
<polygon fill="black" stroke="black" points="185.95,-14.53 179.88,-16.4 185.8,-18.72 185.95,-14.53"/>
</g>
<!-- Laser_Warhead_Damage_Efficienc&#45;&gt;Laser_Warhead_Damage_Efficienc -->
<g id="edge3" class="edge">
<title>Laser_Warhead_Damage_Efficienc&#45;&gt;Laser_Warhead_Damage_Efficienc</title>
<path fill="none" stroke="black" d="M178.33,-21.77C198.89,-21.45 214,-20.19 214,-18 214,-16.08 202.43,-14.88 185.76,-14.39"/>
<polygon fill="black" stroke="black" points="185.88,-12.3 179.84,-14.26 185.79,-16.49 185.88,-12.3"/>
</g>
<!-- Laser_Warhead_Damage_Efficienc&#45;&gt;Laser_Warhead_Damage_Efficienc -->
<g id="edge4" class="edge">
<title>Laser_Warhead_Damage_Efficienc&#45;&gt;Laser_Warhead_Damage_Efficienc</title>
<path fill="none" stroke="black" d="M178.38,-23.79C208.17,-23.79 232,-21.86 232,-18 232,-14.46 211.92,-12.54 185.58,-12.25"/>
<polygon fill="black" stroke="black" points="185.9,-10.16 179.89,-12.22 185.88,-14.35 185.9,-10.16"/>
</g>
<!-- Laser_Warhead_Damage_Efficienc&#45;&gt;Laser_Warhead_Damage_Efficienc -->
<g id="edge5" class="edge">
<title>Laser_Warhead_Damage_Efficienc&#45;&gt;Laser_Warhead_Damage_Efficienc</title>
<path fill="none" stroke="black" d="M178.4,-25.62C216.98,-26.25 250,-23.71 250,-18 250,-12.65 220.97,-10.08 185.57,-10.3"/>
<polygon fill="black" stroke="black" points="185.89,-8.19 179.92,-10.36 185.94,-12.39 185.89,-8.19"/>
</g>
<!-- Laser_Warhead_Damage_Efficienc&#45;&gt;Laser_Warhead_Damage_Efficienc -->
<g id="edge6" class="edge">
<title>Laser_Warhead_Damage_Efficienc&#45;&gt;Laser_Warhead_Damage_Efficienc</title>
<path fill="none" stroke="black" d="M178.34,-27.28C225.37,-28.78 268,-25.68 268,-18 268,-10.72 229.75,-7.56 185.74,-8.53"/>
<polygon fill="black" stroke="black" points="185.79,-6.42 179.85,-8.68 185.9,-10.62 185.79,-6.42"/>
</g>
<!-- Laser_Warhead_Damage_Efficienc&#45;&gt;Laser_Warhead_Damage_Efficienc -->
<g id="edge7" class="edge">
<title>Laser_Warhead_Damage_Efficienc&#45;&gt;Laser_Warhead_Damage_Efficienc</title>
<path fill="none" stroke="black" d="M178.4,-28.77C233.57,-31.34 286,-27.75 286,-18 286,-8.69 238.17,-5 185.81,-6.92"/>
<polygon fill="black" stroke="black" points="185.82,-4.82 179.91,-7.17 185.99,-9.02 185.82,-4.82"/>
</g>
<!-- Laser_Warhead_Damage_Efficienc&#45;&gt;Laser_Warhead_Damage_Efficienc -->
<g id="edge8" class="edge">
<title>Laser_Warhead_Damage_Efficienc&#45;&gt;Laser_Warhead_Damage_Efficienc</title>
<path fill="none" stroke="black" d="M178.46,-30.11C241.53,-33.92 304,-29.88 304,-18 304,-6.58 246.32,-2.41 185.84,-5.47"/>
<polygon fill="black" stroke="black" points="185.84,-3.37 179.97,-5.8 186.08,-7.57 185.84,-3.37"/>
</g>
<!-- ext_Trans_Newtonian_Technology -->
<g id="node2" class="node">
<title>ext_Trans_Newtonian_Technology</title>
<path fill="#f0f0f0" stroke="black" stroke-dasharray="5,2" d="M145,-108C145,-108 33,-108 33,-108 27,-108 21,-102 21,-96 21,-96 21,-84 21,-84 21,-78 27,-72 33,-72 33,-72 145,-72 145,-72 151,-72 157,-78 157,-84 157,-84 157,-96 157,-96 157,-102 151,-108 145,-108"/>
<text xml:space="preserve" text-anchor="middle" x="89" y="-86.33" font-family="Helvetica,sans-Serif" font-size="9.00">Trans&#45;Newtonian Technology</text>
</g>
<!-- ext_Trans_Newtonian_Technology&#45;&gt;Laser_Warhead_Damage_Efficienc -->
<g id="edge1" class="edge">
<title>ext_Trans_Newtonian_Technology&#45;&gt;Laser_Warhead_Damage_Efficienc</title>
<path fill="none" stroke="black" d="M89,-71.7C89,-63.22 89,-52.86 89,-43.58"/>
<polygon fill="black" stroke="black" points="91.1,-43.62 89,-37.62 86.9,-43.62 91.1,-43.62"/>
</g>
</g>
</svg>
