<?xml version="1.0" encoding="UTF-8" standalone="no"?>
<!DOCTYPE svg PUBLIC "-//W3C//DTD SVG 1.1//EN"
 "http://www.w3.org/Graphics/SVG/1.1/DTD/svg11.dtd">
<!-- Generated by graphviz version 14.1.2 (20260124.0452)
 -->
<!-- Title: TechTree Pages: 1 -->
<svg width="164pt" height="522pt"
 viewBox="0.00 0.00 164.00 522.00" xmlns="http://www.w3.org/2000/svg" xmlns:xlink="http://www.w3.org/1999/xlink">
<g id="graph0" class="graph" transform="scale(1 1) rotate(0) translate(4 518)">
<title>TechTree</title>
<polygon fill="white" stroke="none" points="-4,4 -4,-518 160.25,-518 160.25,4 -4,4"/>
<text xml:space="preserve" text-anchor="middle" x="78.12" y="-496.7" font-family="Helvetica,sans-Serif" font-weight="bold" font-size="14.00">Laser Warhead Focus</text>
<!-- Laser_Warhead_Focus___10K -->
<g id="node1" class="node">
<title>Laser_Warhead_Focus___10K</title>
<path fill="#cce5ff" stroke="black" d="M134.88,-491C134.88,-491 21.38,-491 21.38,-491 15.38,-491 9.38,-485 9.38,-479 9.38,-479 9.38,-467 9.38,-467 9.38,-461 15.38,-455 21.38,-455 21.38,-455 134.88,-455 134.88,-455 140.88,-455 146.88,-461 146.88,-467 146.88,-467 146.88,-479 146.88,-479 146.88,-485 140.88,-491 134.88,-491"/>
<text xml:space="preserve" text-anchor="middle" x="78.12" y="-474.75" font-family="Helvetica,sans-Serif" font-size="10.00">Laser Warhead Focus &#45; 10K</text>
<text xml:space="preserve" text-anchor="middle" x="78.12" y="-463.5" font-family="Helvetica,sans-Serif" font-size="10.00">1K RP</text>
</g>
<!-- Laser_Warhead_Focus___20K -->
<g id="node2" class="node">
<title>Laser_Warhead_Focus___20K</title>
<path fill="#cce5ff" stroke="black" d="M134.88,-426C134.88,-426 21.38,-426 21.38,-426 15.38,-426 9.38,-420 9.38,-414 9.38,-414 9.38,-402 9.38,-402 9.38,-396 15.38,-390 21.38,-390 21.38,-390 134.88,-390 134.88,-390 140.88,-390 146.88,-396 146.88,-402 146.88,-402 146.88,-414 146.88,-414 146.88,-420 140.88,-426 134.88,-426"/>
<text xml:space="preserve" text-anchor="middle" x="78.12" y="-409.75" font-family="Helvetica,sans-Serif" font-size="10.00">Laser Warhead Focus &#45; 20K</text>
<text xml:space="preserve" text-anchor="middle" x="78.12" y="-398.5" font-family="Helvetica,sans-Serif" font-size="10.00">2K RP</text>
</g>
<!-- Laser_Warhead_Focus___10K&#45;&gt;Laser_Warhead_Focus___20K -->
<g id="edge1" class="edge">
<title>Laser_Warhead_Focus___10K&#45;&gt;Laser_Warhead_Focus___20K</title>
<path fill="none" stroke="black" d="M78.12,-454.78C78.12,-448.53 78.12,-441.33 78.12,-434.52"/>
<polygon fill="black" stroke="black" points="80.58,-434.71 78.13,-427.71 75.68,-434.71 80.58,-434.71"/>
</g>
<!-- Laser_Warhead_Focus___30K -->
<g id="node3" class="node">
<title>Laser_Warhead_Focus___30K</title>
<path fill="#cce5ff" stroke="black" d="M134.88,-361C134.88,-361 21.38,-361 21.38,-361 15.38,-361 9.38,-355 9.38,-349 9.38,-349 9.38,-337 9.38,-337 9.38,-331 15.38,-325 21.38,-325 21.38,-325 134.88,-325 134.88,-325 140.88,-325 146.88,-331 146.88,-337 146.88,-337 146.88,-349 146.88,-349 146.88,-355 140.88,-361 134.88,-361"/>
<text xml:space="preserve" text-anchor="middle" x="78.12" y="-344.75" font-family="Helvetica,sans-Serif" font-size="10.00">Laser Warhead Focus &#45; 30K</text>
<text xml:space="preserve" text-anchor="middle" x="78.12" y="-333.5" font-family="Helvetica,sans-Serif" font-size="10.00">4K RP</text>
</g>
<!-- Laser_Warhead_Focus___20K&#45;&gt;Laser_Warhead_Focus___30K -->
<g id="edge2" class="edge">
<title>Laser_Warhead_Focus___20K&#45;&gt;Laser_Warhead_Focus___30K</title>
<path fill="none" stroke="black" d="M78.12,-389.78C78.12,-383.53 78.12,-376.33 78.12,-369.52"/>
<polygon fill="black" stroke="black" points="80.58,-369.71 78.13,-362.71 75.68,-369.71 80.58,-369.71"/>
</g>
<!-- Laser_Warhead_Focus___40K -->
<g id="node4" class="node">
<title>Laser_Warhead_Focus___40K</title>
<path fill="#cce5ff" stroke="black" d="M134.88,-296C134.88,-296 21.38,-296 21.38,-296 15.38,-296 9.38,-290 9.38,-284 9.38,-284 9.38,-272 9.38,-272 9.38,-266 15.38,-260 21.38,-260 21.38,-260 134.88,-260 134.88,-260 140.88,-260 146.88,-266 146.88,-272 146.88,-272 146.88,-284 146.88,-284 146.88,-290 140.88,-296 134.88,-296"/>
<text xml:space="preserve" text-anchor="middle" x="78.12" y="-279.75" font-family="Helvetica,sans-Serif" font-size="10.00">Laser Warhead Focus &#45; 40K</text>
<text xml:space="preserve" text-anchor="middle" x="78.12" y="-268.5" font-family="Helvetica,sans-Serif" font-size="10.00">8K RP</text>
</g>
<!-- Laser_Warhead_Focus___30K&#45;&gt;Laser_Warhead_Focus___40K -->
<g id="edge3" class="edge">
<title>Laser_Warhead_Focus___30K&#45;&gt;Laser_Warhead_Focus___40K</title>
<path fill="none" stroke="black" d="M78.12,-324.78C78.12,-318.53 78.12,-311.33 78.12,-304.52"/>
<polygon fill="black" stroke="black" points="80.58,-304.71 78.13,-297.71 75.68,-304.71 80.58,-304.71"/>
</g>
<!-- Laser_Warhead_Focus___50K -->
<g id="node5" class="node">
<title>Laser_Warhead_Focus___50K</title>
<path fill="#fff3cd" stroke="black" d="M134.88,-231C134.88,-231 21.38,-231 21.38,-231 15.38,-231 9.38,-225 9.38,-219 9.38,-219 9.38,-207 9.38,-207 9.38,-201 15.38,-195 21.38,-195 21.38,-195 134.88,-195 134.88,-195 140.88,-195 146.88,-201 146.88,-207 146.88,-207 146.88,-219 146.88,-219 146.88,-225 140.88,-231 134.88,-231"/>
<text xml:space="preserve" text-anchor="middle" x="78.12" y="-214.75" font-family="Helvetica,sans-Serif" font-size="10.00">Laser Warhead Focus &#45; 50K</text>
<text xml:space="preserve" text-anchor="middle" x="78.12" y="-203.5" font-family="Helvetica,sans-Serif" font-size="10.00">16K RP</text>
</g>
<!-- Laser_Warhead_Focus___40K&#45;&gt;Laser_Warhead_Focus___50K -->
<g id="edge4" class="edge">
<title>Laser_Warhead_Focus___40K&#45;&gt;Laser_Warhead_Focus___50K</title>
<path fill="none" stroke="black" d="M78.12,-259.78C78.12,-253.53 78.12,-246.33 78.12,-239.52"/>
<polygon fill="black" stroke="black" points="80.58,-239.71 78.13,-232.71 75.68,-239.71 80.58,-239.71"/>
</g>
<!-- Laser_Warhead_Focus___60K -->
<g id="node6" class="node">
<title>Laser_Warhead_Focus___60K</title>
<path fill="#fff3cd" stroke="black" d="M134.88,-166C134.88,-166 21.38,-166 21.38,-166 15.38,-166 9.38,-160 9.38,-154 9.38,-154 9.38,-142 9.38,-142 9.38,-136 15.38,-130 21.38,-130 21.38,-130 134.88,-130 134.88,-130 140.88,-130 146.88,-136 146.88,-142 146.88,-142 146.88,-154 146.88,-154 146.88,-160 140.88,-166 134.88,-166"/>
<text xml:space="preserve" text-anchor="middle" x="78.12" y="-149.75" font-family="Helvetica,sans-Serif" font-size="10.00">Laser Warhead Focus &#45; 60K</text>
<text xml:space="preserve" text-anchor="middle" x="78.12" y="-138.5" font-family="Helvetica,sans-Serif" font-size="10.00">32K RP</text>
</g>
<!-- Laser_Warhead_Focus___50K&#45;&gt;Laser_Warhead_Focus___60K -->
<g id="edge5" class="edge">
<title>Laser_Warhead_Focus___50K&#45;&gt;Laser_Warhead_Focus___60K</title>
<path fill="none" stroke="black" d="M78.12,-194.78C78.12,-188.53 78.12,-181.33 78.12,-174.52"/>
<polygon fill="black" stroke="black" points="80.58,-174.71 78.13,-167.71 75.68,-174.71 80.58,-174.71"/>
</g>
<!-- Laser_Warhead_Focus___70K -->
<g id="node7" class="node">
<title>Laser_Warhead_Focus___70K</title>
<path fill="#fff3cd" stroke="black" d="M134.88,-101C134.88,-101 21.38,-101 21.38,-101 15.38,-101 9.38,-95 9.38,-89 9.38,-89 9.38,-77 9.38,-77 9.38,-71 15.38,-65 21.38,-65 21.38,-65 134.88,-65 134.88,-65 140.88,-65 146.88,-71 146.88,-77 146.88,-77 146.88,-89 146.88,-89 146.88,-95 140.88,-101 134.88,-101"/>
<text xml:space="preserve" text-anchor="middle" x="78.12" y="-84.75" font-family="Helvetica,sans-Serif" font-size="10.00">Laser Warhead Focus &#45; 70K</text>
<text xml:space="preserve" text-anchor="middle" x="78.12" y="-73.5" font-family="Helvetica,sans-Serif" font-size="10.00">64K RP</text>
</g>
<!-- Laser_Warhead_Focus___60K&#45;&gt;Laser_Warhead_Focus___70K -->
<g id="edge6" class="edge">
<title>Laser_Warhead_Focus___60K&#45;&gt;Laser_Warhead_Focus___70K</title>
<path fill="none" stroke="black" d="M78.12,-129.78C78.12,-123.53 78.12,-116.33 78.12,-109.52"/>
<polygon fill="black" stroke="black" points="80.58,-109.71 78.13,-102.71 75.68,-109.71 80.58,-109.71"/>
</g>
<!-- Laser_Warhead_Focus___80K -->
<g id="node8" class="node">
<title>Laser_Warhead_Focus___80K</title>
<path fill="#d4c4fb" stroke="black" d="M134.88,-36C134.88,-36 21.38,-36 21.38,-36 15.38,-36 9.38,-30 9.38,-24 9.38,-24 9.38,-12 9.38,-12 9.38,-6 15.38,0 21.38,0 21.38,0 134.88,0 134.88,0 140.88,0 146.88,-6 146.88,-12 146.88,-12 146.88,-24 146.88,-24 146.88,-30 140.88,-36 134.88,-36"/>
<text xml:space="preserve" text-anchor="middle" x="78.12" y="-19.75" font-family="Helvetica,sans-Serif" font-size="10.00">Laser Warhead Focus &#45; 80K</text>
<text xml:space="preserve" text-anchor="middle" x="78.12" y="-8.5" font-family="Helvetica,sans-Serif" font-size="10.00">128K RP</text>
</g>
<!-- Laser_Warhead_Focus___70K&#45;&gt;Laser_Warhead_Focus___80K -->
<g id="edge7" class="edge">
<title>Laser_Warhead_Focus___70K&#45;&gt;Laser_Warhead_Focus___80K</title>
<path fill="none" stroke="black" d="M78.12,-64.78C78.12,-58.53 78.12,-51.33 78.12,-44.52"/>
<polygon fill="black" stroke="black" points="80.58,-44.71 78.13,-37.71 75.68,-44.71 80.58,-44.71"/>
</g>
</g>
</svg>
