<?xml version="1.0" encoding="UTF-8" standalone="no"?>
<!DOCTYPE svg PUBLIC "-//W3C//DTD SVG 1.1//EN"
 "http://www.w3.org/Graphics/SVG/1.1/DTD/svg11.dtd">
<!-- Generated by graphviz version 14.1.2 (20260124.0452)
 -->
<!-- Title: TechTree Pages: 1 -->
<svg width="361pt" height="137pt"
 viewBox="0.00 0.00 361.00 137.00" xmlns="http://www.w3.org/2000/svg" xmlns:xlink="http://www.w3.org/1999/xlink">
<g id="graph0" class="graph" transform="scale(1 1) rotate(0) translate(4 132.75)">
<title>TechTree</title>
<polygon fill="white" stroke="none" points="-4,4 -4,-132.75 356.75,-132.75 356.75,4 -4,4"/>
<text xml:space="preserve" text-anchor="middle" x="176.38" y="-113.35" font-family="Helvetica,sans-Serif" font-weight="bold" font-size="12.00">Magazine Ejection System</text>
<!-- Magazine_Neutralization_System -->
<g id="node1" class="node">
<title>Magazine_Neutralization_System</title>
<path fill="#d4c4fb" stroke="black" d="M196.75,-36C196.75,-36 12,-36 12,-36 6,-36 0,-30 0,-24 0,-24 0,-12 0,-12 0,-6 6,0 12,0 12,0 196.75,0 196.75,0 202.75,0 208.75,-6 208.75,-12 208.75,-12 208.75,-24 208.75,-24 208.75,-30 202.75,-36 196.75,-36"/>
<text xml:space="preserve" text-anchor="middle" x="104.38" y="-19.2" font-family="Helvetica,sans-Serif" font-size="9.00">Magazine Neutralization System &#45; 99% Chance</text>
<text xml:space="preserve" text-anchor="middle" x="104.38" y="-9.45" font-family="Helvetica,sans-Serif" font-size="9.00">120K RP</text>
</g>
<!-- Magazine_Neutralization_System&#45;&gt;Magazine_Neutralization_System -->
<g id="edge2" class="edge">
<title>Magazine_Neutralization_System&#45;&gt;Magazine_Neutralization_System</title>
<path fill="none" stroke="black" d="M208.82,-19.4C219.75,-19.13 226.75,-18.66 226.75,-18 226.75,-17.51 222.81,-17.12 216.23,-16.84"/>
<polygon fill="black" stroke="black" points="216.4,-14.75 210.33,-16.65 216.26,-18.94 216.4,-14.75"/>
</g>
<!-- Magazine_Neutralization_System&#45;&gt;Magazine_Neutralization_System -->
<g id="edge3" class="edge">
<title>Magazine_Neutralization_System&#45;&gt;Magazine_Neutralization_System</title>
<path fill="none" stroke="black" d="M209.06,-21.24C229.89,-20.87 244.75,-19.79 244.75,-18 244.75,-16.42 233.17,-15.39 216.12,-14.92"/>
<polygon fill="black" stroke="black" points="216.62,-12.83 210.57,-14.8 216.52,-17.03 216.62,-12.83"/>
</g>
<!-- Magazine_Neutralization_System&#45;&gt;Magazine_Neutralization_System -->
<g id="edge4" class="edge">
<title>Magazine_Neutralization_System&#45;&gt;Magazine_Neutralization_System</title>
<path fill="none" stroke="black" d="M209.09,-23.05C239.36,-22.86 262.75,-21.18 262.75,-18 262.75,-15.08 243.04,-13.43 216.39,-13.03"/>
<polygon fill="black" stroke="black" points="216.62,-10.93 210.6,-12.97 216.58,-15.13 216.62,-10.93"/>
</g>
<!-- Magazine_Neutralization_System&#45;&gt;Magazine_Neutralization_System -->
<g id="edge5" class="edge">
<title>Magazine_Neutralization_System&#45;&gt;Magazine_Neutralization_System</title>
<path fill="none" stroke="black" d="M208.96,-24.73C248.29,-24.97 280.75,-22.73 280.75,-18 280.75,-13.57 252.22,-11.32 216.25,-11.25"/>
<polygon fill="black" stroke="black" points="216.47,-9.15 210.47,-11.26 216.48,-13.35 216.47,-9.15"/>
</g>
<!-- Magazine_Neutralization_System&#45;&gt;Magazine_Neutralization_System -->
<g id="edge6" class="edge">
<title>Magazine_Neutralization_System&#45;&gt;Magazine_Neutralization_System</title>
<path fill="none" stroke="black" d="M208.86,-26.28C256.89,-27.15 298.75,-24.39 298.75,-18 298.75,-11.93 261.03,-9.14 216.12,-9.62"/>
<polygon fill="black" stroke="black" points="216.34,-7.51 210.37,-9.7 216.4,-11.71 216.34,-7.51"/>
</g>
<!-- Magazine_Neutralization_System&#45;&gt;Magazine_Neutralization_System -->
<g id="edge7" class="edge">
<title>Magazine_Neutralization_System&#45;&gt;Magazine_Neutralization_System</title>
<path fill="none" stroke="black" d="M209,-27.7C265.35,-29.37 316.75,-26.13 316.75,-18 316.75,-10.22 269.67,-6.92 216.23,-8.11"/>
<polygon fill="black" stroke="black" points="216.46,-6.01 210.51,-8.26 216.57,-10.2 216.46,-6.01"/>
</g>
<!-- Magazine_Neutralization_System&#45;&gt;Magazine_Neutralization_System -->
<g id="edge8" class="edge">
<title>Magazine_Neutralization_System&#45;&gt;Magazine_Neutralization_System</title>
<path fill="none" stroke="black" d="M209.22,-29C273.63,-31.6 334.75,-27.94 334.75,-18 334.75,-8.43 278.08,-4.68 216.37,-6.73"/>
<polygon fill="black" stroke="black" points="216.65,-4.62 210.73,-6.94 216.81,-8.82 216.65,-4.62"/>
</g>
<!-- Magazine_Neutralization_System&#45;&gt;Magazine_Neutralization_System -->
<g id="edge9" class="edge">
<title>Magazine_Neutralization_System&#45;&gt;Magazine_Neutralization_System</title>
<path fill="none" stroke="black" d="M209.01,-30.18C281.44,-33.87 352.75,-29.81 352.75,-18 352.75,-6.58 286.1,-2.41 216.22,-5.48"/>
<polygon fill="black" stroke="black" points="216.42,-3.36 210.53,-5.75 216.62,-7.56 216.42,-3.36"/>
</g>
<!-- ext_Trans_Newtonian_Technology -->
<g id="node2" class="node">
<title>ext_Trans_Newtonian_Technology</title>
<path fill="#f0f0f0" stroke="black" stroke-dasharray="5,2" d="M160.38,-108C160.38,-108 48.38,-108 48.38,-108 42.37,-108 36.38,-102 36.38,-96 36.38,-96 36.38,-84 36.38,-84 36.38,-78 42.38,-72 48.38,-72 48.38,-72 160.38,-72 160.38,-72 166.38,-72 172.38,-78 172.38,-84 172.38,-84 172.38,-96 172.38,-96 172.38,-102 166.38,-108 160.38,-108"/>
<text xml:space="preserve" text-anchor="middle" x="104.38" y="-86.33" font-family="Helvetica,sans-Serif" font-size="9.00">Trans&#45;Newtonian Technology</text>
</g>
<!-- ext_Trans_Newtonian_Technology&#45;&gt;Magazine_Neutralization_System -->
<g id="edge1" class="edge">
<title>ext_Trans_Newtonian_Technology&#45;&gt;Magazine_Neutralization_System</title>
<path fill="none" stroke="black" d="M104.38,-71.7C104.38,-63.22 104.38,-52.86 104.38,-43.58"/>
<polygon fill="black" stroke="black" points="106.48,-43.62 104.38,-37.62 102.28,-43.62 106.48,-43.62"/>
</g>
</g>
</svg>
