<?xml version="1.0" encoding="UTF-8" standalone="no"?>
<!DOCTYPE svg PUBLIC "-//W3C//DTD SVG 1.1//EN"
 "http://www.w3.org/Graphics/SVG/1.1/DTD/svg11.dtd">
<!-- Generated by graphviz version 14.1.2 (20260124.0452)
 -->
<!-- Title: TechTree Pages: 1 -->
<svg width="407pt" height="67pt"
 viewBox="0.00 0.00 407.00 67.00" xmlns="http://www.w3.org/2000/svg" xmlns:xlink="http://www.w3.org/1999/xlink">
<g id="graph0" class="graph" transform="scale(1 1) rotate(0) translate(4 63)">
<title>TechTree</title>
<polygon fill="white" stroke="none" points="-4,4 -4,-63 403,-63 403,4 -4,4"/>
<text xml:space="preserve" text-anchor="middle" x="199.5" y="-41.7" font-family="Helvetica,sans-Serif" font-weight="bold" font-size="14.00">Magazine Ejection System</text>
<!-- Magazine_Neutralization_System -->
<g id="node1" class="node">
<title>Magazine_Neutralization_System</title>
<path fill="#d4c4fb" stroke="black" d="M211,-36C211,-36 12,-36 12,-36 6,-36 0,-30 0,-24 0,-24 0,-12 0,-12 0,-6 6,0 12,0 12,0 211,0 211,0 217,0 223,-6 223,-12 223,-12 223,-24 223,-24 223,-30 217,-36 211,-36"/>
<text xml:space="preserve" text-anchor="middle" x="111.5" y="-19.75" font-family="Helvetica,sans-Serif" font-size="10.00">Magazine Neutralization System &#45; 99% Chance</text>
<text xml:space="preserve" text-anchor="middle" x="111.5" y="-8.5" font-family="Helvetica,sans-Serif" font-size="10.00">120K RP</text>
</g>
<!-- Magazine_Neutralization_System&#45;&gt;Magazine_Neutralization_System -->
<g id="edge1" class="edge">
<title>Magazine_Neutralization_System&#45;&gt;Magazine_Neutralization_System</title>
<path fill="none" stroke="black" d="M223.5,-19.28C236.52,-19.04 245,-18.62 245,-18 245,-17.53 240.03,-17.17 231.86,-16.92"/>
<polygon fill="black" stroke="black" points="232.07,-14.47 225.01,-16.76 231.95,-19.37 232.07,-14.47"/>
</g>
<!-- Magazine_Neutralization_System&#45;&gt;Magazine_Neutralization_System -->
<g id="edge2" class="edge">
<title>Magazine_Neutralization_System&#45;&gt;Magazine_Neutralization_System</title>
<path fill="none" stroke="black" d="M223.32,-20.93C248.55,-20.66 267,-19.69 267,-18 267,-16.5 252.49,-15.57 231.62,-15.19"/>
<polygon fill="black" stroke="black" points="231.87,-12.74 224.84,-15.09 231.8,-17.64 231.87,-12.74"/>
</g>
<!-- Magazine_Neutralization_System&#45;&gt;Magazine_Neutralization_System -->
<g id="edge3" class="edge">
<title>Magazine_Neutralization_System&#45;&gt;Magazine_Neutralization_System</title>
<path fill="none" stroke="black" d="M223.3,-22.5C259.88,-22.48 289,-20.98 289,-18 289,-15.26 264.25,-13.77 231.73,-13.53"/>
<polygon fill="black" stroke="black" points="231.83,-11.08 224.82,-13.51 231.81,-15.98 231.83,-11.08"/>
</g>
<!-- Magazine_Neutralization_System&#45;&gt;Magazine_Neutralization_System -->
<g id="edge4" class="edge">
<title>Magazine_Neutralization_System&#45;&gt;Magazine_Neutralization_System</title>
<path fill="none" stroke="black" d="M223.29,-23.94C270.65,-24.39 311,-22.41 311,-18 311,-13.85 275.24,-11.85 231.54,-12.01"/>
<polygon fill="black" stroke="black" points="231.79,-9.56 224.81,-12.05 231.82,-14.46 231.79,-9.56"/>
</g>
<!-- Magazine_Neutralization_System&#45;&gt;Magazine_Neutralization_System -->
<g id="edge5" class="edge">
<title>Magazine_Neutralization_System&#45;&gt;Magazine_Neutralization_System</title>
<path fill="none" stroke="black" d="M223.47,-25.24C281.11,-26.34 333,-23.93 333,-18 333,-12.36 286.06,-9.9 231.87,-10.62"/>
<polygon fill="black" stroke="black" points="231.95,-8.17 224.99,-10.73 232.03,-13.07 231.95,-8.17"/>
</g>
<!-- Magazine_Neutralization_System&#45;&gt;Magazine_Neutralization_System -->
<g id="edge6" class="edge">
<title>Magazine_Neutralization_System&#45;&gt;Magazine_Neutralization_System</title>
<path fill="none" stroke="black" d="M223.27,-26.41C290.99,-28.34 355,-25.54 355,-18 355,-10.77 296.14,-7.9 231.58,-9.38"/>
<polygon fill="black" stroke="black" points="231.71,-6.92 224.78,-9.55 231.84,-11.82 231.71,-6.92"/>
</g>
<!-- Magazine_Neutralization_System&#45;&gt;Magazine_Neutralization_System -->
<g id="edge7" class="edge">
<title>Magazine_Neutralization_System&#45;&gt;Magazine_Neutralization_System</title>
<path fill="none" stroke="black" d="M223.35,-27.47C300.77,-30.35 377,-27.19 377,-18 377,-9.14 306.04,-5.88 231.51,-8.24"/>
<polygon fill="black" stroke="black" points="231.78,-5.78 224.87,-8.47 231.95,-10.68 231.78,-5.78"/>
</g>
<!-- Magazine_Neutralization_System&#45;&gt;Magazine_Neutralization_System -->
<g id="edge8" class="edge">
<title>Magazine_Neutralization_System&#45;&gt;Magazine_Neutralization_System</title>
<path fill="none" stroke="black" d="M223.26,-28.43C310.2,-32.37 399,-28.89 399,-18 399,-7.46 315.83,-3.86 231.67,-7.21"/>
<polygon fill="black" stroke="black" points="231.67,-4.76 224.78,-7.5 231.87,-9.65 231.67,-4.76"/>
</g>
</g>
</svg>
