<?xml version="1.0" encoding="UTF-8" standalone="no"?>
<!DOCTYPE svg PUBLIC "-//W3C//DTD SVG 1.1//EN"
 "http://www.w3.org/Graphics/SVG/1.1/DTD/svg11.dtd">
<!-- Generated by graphviz version 14.1.2 (20260124.0452)
 -->
<!-- Title: TechTree Pages: 1 -->
<svg width="379pt" height="67pt"
 viewBox="0.00 0.00 379.00 67.00" xmlns="http://www.w3.org/2000/svg" xmlns:xlink="http://www.w3.org/1999/xlink">
<g id="graph0" class="graph" transform="scale(1 1) rotate(0) translate(4 63)">
<title>TechTree</title>
<polygon fill="white" stroke="none" points="-4,4 -4,-63 374.5,-63 374.5,4 -4,4"/>
<text xml:space="preserve" text-anchor="middle" x="185.25" y="-41.7" font-family="Helvetica,sans-Serif" font-weight="bold" font-size="14.00">Magazine Feed System Efficiency</text>
<!-- Magazine_Feed_System_Efficienc -->
<g id="node1" class="node">
<title>Magazine_Feed_System_Efficienc</title>
<path fill="#d4c4fb" stroke="black" d="M182.5,-36C182.5,-36 12,-36 12,-36 6,-36 0,-30 0,-24 0,-24 0,-12 0,-12 0,-6 6,0 12,0 12,0 182.5,0 182.5,0 188.5,0 194.5,-6 194.5,-12 194.5,-12 194.5,-24 194.5,-24 194.5,-30 188.5,-36 182.5,-36"/>
<text xml:space="preserve" text-anchor="middle" x="97.25" y="-19.75" font-family="Helvetica,sans-Serif" font-size="10.00">Magazine Feed System Efficiency &#45; 99%</text>
<text xml:space="preserve" text-anchor="middle" x="97.25" y="-8.5" font-family="Helvetica,sans-Serif" font-size="10.00">250K RP</text>
</g>
<!-- Magazine_Feed_System_Efficienc&#45;&gt;Magazine_Feed_System_Efficienc -->
<g id="edge1" class="edge">
<title>Magazine_Feed_System_Efficienc&#45;&gt;Magazine_Feed_System_Efficienc</title>
<path fill="none" stroke="black" d="M194.57,-19.33C207.74,-19.11 216.5,-18.66 216.5,-18 216.5,-17.49 211.36,-17.11 203.05,-16.86"/>
<polygon fill="black" stroke="black" points="203.14,-14.41 196.08,-16.7 203.03,-19.31 203.14,-14.41"/>
</g>
<!-- Magazine_Feed_System_Efficienc&#45;&gt;Magazine_Feed_System_Efficienc -->
<g id="edge2" class="edge">
<title>Magazine_Feed_System_Efficienc&#45;&gt;Magazine_Feed_System_Efficienc</title>
<path fill="none" stroke="black" d="M194.95,-20.96C219.83,-20.77 238.5,-19.78 238.5,-18 238.5,-16.43 223.95,-15.47 203.42,-15.14"/>
<polygon fill="black" stroke="black" points="203.49,-12.69 196.47,-15.05 203.44,-17.59 203.49,-12.69"/>
</g>
<!-- Magazine_Feed_System_Efficienc&#45;&gt;Magazine_Feed_System_Efficienc -->
<g id="edge3" class="edge">
<title>Magazine_Feed_System_Efficienc&#45;&gt;Magazine_Feed_System_Efficienc</title>
<path fill="none" stroke="black" d="M194.86,-22.49C230.9,-22.63 260.5,-21.13 260.5,-18 260.5,-15.12 235.35,-13.62 203.18,-13.51"/>
<polygon fill="black" stroke="black" points="203.37,-11.06 196.37,-13.51 203.38,-15.96 203.37,-11.06"/>
</g>
<!-- Magazine_Feed_System_Efficienc&#45;&gt;Magazine_Feed_System_Efficienc -->
<g id="edge4" class="edge">
<title>Magazine_Feed_System_Efficienc&#45;&gt;Magazine_Feed_System_Efficienc</title>
<path fill="none" stroke="black" d="M194.94,-23.86C241.5,-24.56 282.5,-22.61 282.5,-18 282.5,-13.67 246.32,-11.68 203.33,-12.04"/>
<polygon fill="black" stroke="black" points="203.42,-9.59 196.45,-12.12 203.48,-14.49 203.42,-9.59"/>
</g>
<!-- Magazine_Feed_System_Efficienc&#45;&gt;Magazine_Feed_System_Efficienc -->
<g id="edge5" class="edge">
<title>Magazine_Feed_System_Efficienc&#45;&gt;Magazine_Feed_System_Efficienc</title>
<path fill="none" stroke="black" d="M194.8,-25.07C251.54,-26.55 304.5,-24.19 304.5,-18 304.5,-12.11 256.58,-9.69 203.07,-10.74"/>
<polygon fill="black" stroke="black" points="203.25,-8.28 196.31,-10.89 203.36,-13.18 203.25,-8.28"/>
</g>
<!-- Magazine_Feed_System_Efficienc&#45;&gt;Magazine_Feed_System_Efficienc -->
<g id="edge6" class="edge">
<title>Magazine_Feed_System_Efficienc&#45;&gt;Magazine_Feed_System_Efficienc</title>
<path fill="none" stroke="black" d="M194.73,-26.15C261.27,-28.56 326.5,-25.84 326.5,-18 326.5,-10.48 266.51,-7.67 202.9,-9.58"/>
<polygon fill="black" stroke="black" points="203.16,-7.12 196.24,-9.8 203.32,-12.01 203.16,-7.12"/>
</g>
<!-- Magazine_Feed_System_Efficienc&#45;&gt;Magazine_Feed_System_Efficienc -->
<g id="edge7" class="edge">
<title>Magazine_Feed_System_Efficienc&#45;&gt;Magazine_Feed_System_Efficienc</title>
<path fill="none" stroke="black" d="M194.92,-27.13C270.9,-30.57 348.5,-27.53 348.5,-18 348.5,-8.82 276.55,-5.66 203.38,-8.51"/>
<polygon fill="black" stroke="black" points="203.33,-6.06 196.43,-8.81 203.53,-10.96 203.33,-6.06"/>
</g>
<!-- Magazine_Feed_System_Efficienc&#45;&gt;Magazine_Feed_System_Efficienc -->
<g id="edge8" class="edge">
<title>Magazine_Feed_System_Efficienc&#45;&gt;Magazine_Feed_System_Efficienc</title>
<path fill="none" stroke="black" d="M194.95,-28C280.19,-32.6 370.5,-29.27 370.5,-18 370.5,-7.1 285.92,-3.62 203.2,-7.58"/>
<polygon fill="black" stroke="black" points="203.33,-5.12 196.46,-7.92 203.58,-10.01 203.33,-5.12"/>
</g>
</g>
</svg>
