<?xml version="1.0" encoding="UTF-8" standalone="no"?>
<!DOCTYPE svg PUBLIC "-//W3C//DTD SVG 1.1//EN"
 "http://www.w3.org/Graphics/SVG/1.1/DTD/svg11.dtd">
<!-- Generated by graphviz version 14.1.2 (20260124.0452)
 -->
<!-- Title: TechTree Pages: 1 -->
<svg width="394pt" height="67pt"
 viewBox="0.00 0.00 394.00 67.00" xmlns="http://www.w3.org/2000/svg" xmlns:xlink="http://www.w3.org/1999/xlink">
<g id="graph0" class="graph" transform="scale(1 1) rotate(0) translate(4 63)">
<title>TechTree</title>
<polygon fill="white" stroke="none" points="-4,4 -4,-63 390.25,-63 390.25,4 -4,4"/>
<text xml:space="preserve" text-anchor="middle" x="193.12" y="-41.7" font-family="Helvetica,sans-Serif" font-weight="bold" font-size="14.00">Maintenance Capacity Per Facility</text>
<!-- Maintenance_Support_per_Facili -->
<g id="node1" class="node">
<title>Maintenance_Support_per_Facili</title>
<path fill="#d4c4fb" stroke="black" d="M198.25,-36C198.25,-36 12,-36 12,-36 6,-36 0,-30 0,-24 0,-24 0,-12 0,-12 0,-6 6,0 12,0 12,0 198.25,0 198.25,0 204.25,0 210.25,-6 210.25,-12 210.25,-12 210.25,-24 210.25,-24 210.25,-30 204.25,-36 198.25,-36"/>
<text xml:space="preserve" text-anchor="middle" x="105.12" y="-19.75" font-family="Helvetica,sans-Serif" font-size="10.00">Maintenance Support per Facility: 6250 Tons</text>
<text xml:space="preserve" text-anchor="middle" x="105.12" y="-8.5" font-family="Helvetica,sans-Serif" font-size="10.00">250K RP</text>
</g>
<!-- Maintenance_Support_per_Facili&#45;&gt;Maintenance_Support_per_Facili -->
<g id="edge1" class="edge">
<title>Maintenance_Support_per_Facili&#45;&gt;Maintenance_Support_per_Facili</title>
<path fill="none" stroke="black" d="M210.34,-19.31C223.55,-19.08 232.25,-18.64 232.25,-18 232.25,-17.51 227.15,-17.14 218.83,-16.89"/>
<polygon fill="black" stroke="black" points="218.91,-14.44 211.85,-16.73 218.8,-19.34 218.91,-14.44"/>
</g>
<!-- Maintenance_Support_per_Facili&#45;&gt;Maintenance_Support_per_Facili -->
<g id="edge2" class="edge">
<title>Maintenance_Support_per_Facili&#45;&gt;Maintenance_Support_per_Facili</title>
<path fill="none" stroke="black" d="M210.67,-20.94C235.73,-20.71 254.25,-19.73 254.25,-18 254.25,-16.47 239.69,-15.52 218.92,-15.16"/>
<polygon fill="black" stroke="black" points="219.22,-12.72 212.19,-15.08 219.16,-17.62 219.22,-12.72"/>
</g>
<!-- Maintenance_Support_per_Facili&#45;&gt;Maintenance_Support_per_Facili -->
<g id="edge3" class="edge">
<title>Maintenance_Support_per_Facili&#45;&gt;Maintenance_Support_per_Facili</title>
<path fill="none" stroke="black" d="M210.4,-22.5C246.83,-22.55 276.25,-21.05 276.25,-18 276.25,-15.19 251.25,-13.7 218.8,-13.52"/>
<polygon fill="black" stroke="black" points="218.92,-11.07 211.92,-13.5 218.91,-15.97 218.92,-11.07"/>
</g>
<!-- Maintenance_Support_per_Facili&#45;&gt;Maintenance_Support_per_Facili -->
<g id="edge4" class="edge">
<title>Maintenance_Support_per_Facili&#45;&gt;Maintenance_Support_per_Facili</title>
<path fill="none" stroke="black" d="M210.41,-23.91C257.51,-24.47 298.25,-22.5 298.25,-18 298.25,-13.77 262.3,-11.78 218.89,-12.02"/>
<polygon fill="black" stroke="black" points="218.9,-9.57 211.92,-12.08 218.94,-14.47 218.9,-9.57"/>
</g>
<!-- Maintenance_Support_per_Facili&#45;&gt;Maintenance_Support_per_Facili -->
<g id="edge5" class="edge">
<title>Maintenance_Support_per_Facili&#45;&gt;Maintenance_Support_per_Facili</title>
<path fill="none" stroke="black" d="M210.55,-25.17C267.84,-26.44 320.25,-24.04 320.25,-18 320.25,-12.25 272.84,-9.81 218.9,-10.67"/>
<polygon fill="black" stroke="black" points="219.02,-8.22 212.06,-10.8 219.11,-13.12 219.02,-8.22"/>
</g>
<!-- Maintenance_Support_per_Facili&#45;&gt;Maintenance_Support_per_Facili -->
<g id="edge6" class="edge">
<title>Maintenance_Support_per_Facili&#45;&gt;Maintenance_Support_per_Facili</title>
<path fill="none" stroke="black" d="M210.58,-26.31C277.77,-28.43 342.25,-25.66 342.25,-18 342.25,-10.65 282.95,-7.8 218.83,-9.46"/>
<polygon fill="black" stroke="black" points="219.02,-7 212.09,-9.65 219.16,-11.9 219.02,-7"/>
</g>
<!-- Maintenance_Support_per_Facili&#45;&gt;Maintenance_Support_per_Facili -->
<g id="edge7" class="edge">
<title>Maintenance_Support_per_Facili&#45;&gt;Maintenance_Support_per_Facili</title>
<path fill="none" stroke="black" d="M210.58,-27.33C287.4,-30.45 364.25,-27.34 364.25,-18 364.25,-8.99 292.71,-5.78 218.68,-8.37"/>
<polygon fill="black" stroke="black" points="219,-5.9 212.09,-8.61 219.18,-10.8 219,-5.9"/>
</g>
<!-- Maintenance_Support_per_Facili&#45;&gt;Maintenance_Support_per_Facili -->
<g id="edge8" class="edge">
<title>Maintenance_Support_per_Facili&#45;&gt;Maintenance_Support_per_Facili</title>
<path fill="none" stroke="black" d="M210.39,-28.24C296.66,-32.48 386.25,-29.06 386.25,-18 386.25,-7.29 302.34,-3.75 218.74,-7.37"/>
<polygon fill="black" stroke="black" points="218.78,-4.92 211.9,-7.69 219.01,-9.81 218.78,-4.92"/>
</g>
</g>
</svg>
