<?xml version="1.0" encoding="UTF-8" standalone="no"?>
<!DOCTYPE svg PUBLIC "-//W3C//DTD SVG 1.1//EN"
 "http://www.w3.org/Graphics/SVG/1.1/DTD/svg11.dtd">
<!-- Generated by graphviz version 14.1.2 (20260124.0452)
 -->
<!-- Title: TechTree Pages: 1 -->
<svg width="144pt" height="137pt"
 viewBox="0.00 0.00 144.00 137.00" xmlns="http://www.w3.org/2000/svg" xmlns:xlink="http://www.w3.org/1999/xlink">
<g id="graph0" class="graph" transform="scale(1 1) rotate(0) translate(4 132.75)">
<title>TechTree</title>
<polygon fill="white" stroke="none" points="-4,4 -4,-132.75 140,-132.75 140,4 -4,4"/>
<text xml:space="preserve" text-anchor="middle" x="68" y="-113.35" font-family="Helvetica,sans-Serif" font-weight="bold" font-size="12.00">Maintenance Module</text>
<!-- Maintenance_Module -->
<g id="node1" class="node">
<title>Maintenance_Module</title>
<path fill="#cce5ff" stroke="black" d="M107.12,-36C107.12,-36 28.88,-36 28.88,-36 22.88,-36 16.88,-30 16.88,-24 16.88,-24 16.88,-12 16.88,-12 16.88,-6 22.88,0 28.88,0 28.88,0 107.12,0 107.12,0 113.12,0 119.12,-6 119.12,-12 119.12,-12 119.12,-24 119.12,-24 119.12,-30 113.12,-36 107.12,-36"/>
<text xml:space="preserve" text-anchor="middle" x="68" y="-19.2" font-family="Helvetica,sans-Serif" font-size="9.00">Maintenance Module</text>
<text xml:space="preserve" text-anchor="middle" x="68" y="-9.45" font-family="Helvetica,sans-Serif" font-size="9.00">5K RP</text>
</g>
<!-- ext_Trans_Newtonian_Technology -->
<g id="node2" class="node">
<title>ext_Trans_Newtonian_Technology</title>
<path fill="#f0f0f0" stroke="black" stroke-dasharray="5,2" d="M124,-108C124,-108 12,-108 12,-108 6,-108 0,-102 0,-96 0,-96 0,-84 0,-84 0,-78 6,-72 12,-72 12,-72 124,-72 124,-72 130,-72 136,-78 136,-84 136,-84 136,-96 136,-96 136,-102 130,-108 124,-108"/>
<text xml:space="preserve" text-anchor="middle" x="68" y="-86.33" font-family="Helvetica,sans-Serif" font-size="9.00">Trans&#45;Newtonian Technology</text>
</g>
<!-- ext_Trans_Newtonian_Technology&#45;&gt;Maintenance_Module -->
<g id="edge1" class="edge">
<title>ext_Trans_Newtonian_Technology&#45;&gt;Maintenance_Module</title>
<path fill="none" stroke="black" d="M68,-71.7C68,-63.22 68,-52.86 68,-43.58"/>
<polygon fill="black" stroke="black" points="70.1,-43.62 68,-37.62 65.9,-43.62 70.1,-43.62"/>
</g>
</g>
</svg>
