<?xml version="1.0" encoding="UTF-8" standalone="no"?>
<!DOCTYPE svg PUBLIC "-//W3C//DTD SVG 1.1//EN"
 "http://www.w3.org/Graphics/SVG/1.1/DTD/svg11.dtd">
<!-- Generated by graphviz version 14.1.2 (20260124.0452)
 -->
<!-- Title: TechTree Pages: 1 -->
<svg width="158pt" height="67pt"
 viewBox="0.00 0.00 158.00 67.00" xmlns="http://www.w3.org/2000/svg" xmlns:xlink="http://www.w3.org/1999/xlink">
<g id="graph0" class="graph" transform="scale(1 1) rotate(0) translate(4 63)">
<title>TechTree</title>
<polygon fill="white" stroke="none" points="-4,4 -4,-63 154.25,-63 154.25,4 -4,4"/>
<text xml:space="preserve" text-anchor="middle" x="75.12" y="-41.7" font-family="Helvetica,sans-Serif" font-weight="bold" font-size="14.00">Maintenance Module</text>
<!-- Maintenance_Module -->
<g id="node1" class="node">
<title>Maintenance_Module</title>
<path fill="#cce5ff" stroke="black" d="M116.12,-36C116.12,-36 34.12,-36 34.12,-36 28.12,-36 22.12,-30 22.12,-24 22.12,-24 22.12,-12 22.12,-12 22.12,-6 28.12,0 34.12,0 34.12,0 116.12,0 116.12,0 122.12,0 128.12,-6 128.12,-12 128.12,-12 128.12,-24 128.12,-24 128.12,-30 122.12,-36 116.12,-36"/>
<text xml:space="preserve" text-anchor="middle" x="75.12" y="-19.75" font-family="Helvetica,sans-Serif" font-size="10.00">Maintenance Module</text>
<text xml:space="preserve" text-anchor="middle" x="75.12" y="-8.5" font-family="Helvetica,sans-Serif" font-size="10.00">5K RP</text>
</g>
</g>
</svg>
