<?xml version="1.0" encoding="UTF-8" standalone="no"?>
<!DOCTYPE svg PUBLIC "-//W3C//DTD SVG 1.1//EN"
 "http://www.w3.org/Graphics/SVG/1.1/DTD/svg11.dtd">
<!-- Generated by graphviz version 14.1.2 (20260124.0452)
 -->
<!-- Title: TechTree Pages: 1 -->
<svg width="161pt" height="299pt"
 viewBox="0.00 0.00 161.00 299.00" xmlns="http://www.w3.org/2000/svg" xmlns:xlink="http://www.w3.org/1999/xlink">
<g id="graph0" class="graph" transform="scale(1 1) rotate(0) translate(4 295)">
<title>TechTree</title>
<polygon fill="white" stroke="none" points="-4,4 -4,-295 156.5,-295 156.5,4 -4,4"/>
<text xml:space="preserve" text-anchor="middle" x="76.25" y="-273.7" font-family="Helvetica,sans-Serif" font-weight="bold" font-size="14.00">Maintenance Storage</text>
<!-- Maintenance_Storage -->
<g id="node1" class="node">
<title>Maintenance_Storage</title>
<path fill="#d4edda" stroke="black" d="M118.38,-36C118.38,-36 34.12,-36 34.12,-36 28.12,-36 22.12,-30 22.12,-24 22.12,-24 22.12,-12 22.12,-12 22.12,-6 28.12,0 34.12,0 34.12,0 118.38,0 118.38,0 124.38,0 130.38,-6 130.38,-12 130.38,-12 130.38,-24 130.38,-24 130.38,-30 124.38,-36 118.38,-36"/>
<text xml:space="preserve" text-anchor="middle" x="76.25" y="-19.75" font-family="Helvetica,sans-Serif" font-size="10.00">Maintenance Storage</text>
<text xml:space="preserve" text-anchor="middle" x="76.25" y="-8.5" font-family="Helvetica,sans-Serif" font-size="10.00">1 RP</text>
</g>
<!-- Large_Maintenance_Storage -->
<g id="node2" class="node">
<title>Large_Maintenance_Storage</title>
<path fill="#d4edda" stroke="black" d="M131.88,-94C131.88,-94 20.62,-94 20.62,-94 14.62,-94 8.62,-88 8.62,-82 8.62,-82 8.62,-70 8.62,-70 8.62,-64 14.62,-58 20.62,-58 20.62,-58 131.88,-58 131.88,-58 137.88,-58 143.88,-64 143.88,-70 143.88,-70 143.88,-82 143.88,-82 143.88,-88 137.88,-94 131.88,-94"/>
<text xml:space="preserve" text-anchor="middle" x="76.25" y="-77.75" font-family="Helvetica,sans-Serif" font-size="10.00">Large Maintenance Storage</text>
<text xml:space="preserve" text-anchor="middle" x="76.25" y="-66.5" font-family="Helvetica,sans-Serif" font-size="10.00">2 RP</text>
</g>
<!-- Small_Maintenance_Storage -->
<g id="node3" class="node">
<title>Small_Maintenance_Storage</title>
<path fill="#d4edda" stroke="black" d="M132.25,-152C132.25,-152 20.25,-152 20.25,-152 14.25,-152 8.25,-146 8.25,-140 8.25,-140 8.25,-128 8.25,-128 8.25,-122 14.25,-116 20.25,-116 20.25,-116 132.25,-116 132.25,-116 138.25,-116 144.25,-122 144.25,-128 144.25,-128 144.25,-140 144.25,-140 144.25,-146 138.25,-152 132.25,-152"/>
<text xml:space="preserve" text-anchor="middle" x="76.25" y="-135.75" font-family="Helvetica,sans-Serif" font-size="10.00">Small Maintenance Storage</text>
<text xml:space="preserve" text-anchor="middle" x="76.25" y="-124.5" font-family="Helvetica,sans-Serif" font-size="10.00">3 RP</text>
</g>
<!-- Tiny_Maintenance_Storage -->
<g id="node4" class="node">
<title>Tiny_Maintenance_Storage</title>
<path fill="#d4edda" stroke="black" d="M129.25,-210C129.25,-210 23.25,-210 23.25,-210 17.25,-210 11.25,-204 11.25,-198 11.25,-198 11.25,-186 11.25,-186 11.25,-180 17.25,-174 23.25,-174 23.25,-174 129.25,-174 129.25,-174 135.25,-174 141.25,-180 141.25,-186 141.25,-186 141.25,-198 141.25,-198 141.25,-204 135.25,-210 129.25,-210"/>
<text xml:space="preserve" text-anchor="middle" x="76.25" y="-193.75" font-family="Helvetica,sans-Serif" font-size="10.00">Tiny Maintenance Storage</text>
<text xml:space="preserve" text-anchor="middle" x="76.25" y="-182.5" font-family="Helvetica,sans-Serif" font-size="10.00">4 RP</text>
</g>
<!-- Fighter_Maintenance_Storage -->
<g id="node5" class="node">
<title>Fighter_Maintenance_Storage</title>
<path fill="#d4edda" stroke="black" d="M134.88,-268C134.88,-268 17.62,-268 17.62,-268 11.62,-268 5.62,-262 5.62,-256 5.62,-256 5.62,-244 5.62,-244 5.62,-238 11.62,-232 17.62,-232 17.62,-232 134.88,-232 134.88,-232 140.88,-232 146.88,-238 146.88,-244 146.88,-244 146.88,-256 146.88,-256 146.88,-262 140.88,-268 134.88,-268"/>
<text xml:space="preserve" text-anchor="middle" x="76.25" y="-251.75" font-family="Helvetica,sans-Serif" font-size="10.00">Fighter Maintenance Storage</text>
<text xml:space="preserve" text-anchor="middle" x="76.25" y="-240.5" font-family="Helvetica,sans-Serif" font-size="10.00">5 RP</text>
</g>
</g>
</svg>
