<?xml version="1.0" encoding="UTF-8" standalone="no"?>
<!DOCTYPE svg PUBLIC "-//W3C//DTD SVG 1.1//EN"
 "http://www.w3.org/Graphics/SVG/1.1/DTD/svg11.dtd">
<!-- Generated by graphviz version 14.1.2 (20260124.0452)
 -->
<!-- Title: TechTree Pages: 1 -->
<svg width="350pt" height="65pt"
 viewBox="0.00 0.00 350.00 65.00" xmlns="http://www.w3.org/2000/svg" xmlns:xlink="http://www.w3.org/1999/xlink">
<g id="graph0" class="graph" transform="scale(1 1) rotate(0) translate(4 60.75)">
<title>TechTree</title>
<polygon fill="white" stroke="none" points="-4,4 -4,-60.75 345.5,-60.75 345.5,4 -4,4"/>
<text xml:space="preserve" text-anchor="middle" x="170.75" y="-41.35" font-family="Helvetica,sans-Serif" font-weight="bold" font-size="12.00">Maintenance Capacity Per Facility</text>
<!-- Maintenance_Support_per_Facili -->
<g id="node1" class="node">
<title>Maintenance_Support_per_Facili</title>
<path fill="#d4c4fb" stroke="black" d="M185.5,-36C185.5,-36 12,-36 12,-36 6,-36 0,-30 0,-24 0,-24 0,-12 0,-12 0,-6 6,0 12,0 12,0 185.5,0 185.5,0 191.5,0 197.5,-6 197.5,-12 197.5,-12 197.5,-24 197.5,-24 197.5,-30 191.5,-36 185.5,-36"/>
<text xml:space="preserve" text-anchor="middle" x="98.75" y="-19.2" font-family="Helvetica,sans-Serif" font-size="9.00">Maintenance Support per Facility: 6250 Tons</text>
<text xml:space="preserve" text-anchor="middle" x="98.75" y="-9.45" font-family="Helvetica,sans-Serif" font-size="9.00">250K RP</text>
</g>
<!-- Maintenance_Support_per_Facili&#45;&gt;Maintenance_Support_per_Facili -->
<g id="edge1" class="edge">
<title>Maintenance_Support_per_Facili&#45;&gt;Maintenance_Support_per_Facili</title>
<path fill="none" stroke="black" d="M197.98,-19.25C208.64,-19.01 215.5,-18.59 215.5,-18 215.5,-17.55 211.64,-17.21 205.21,-16.96"/>
<polygon fill="black" stroke="black" points="205.55,-14.87 199.49,-16.79 205.42,-19.07 205.55,-14.87"/>
</g>
<!-- Maintenance_Support_per_Facili&#45;&gt;Maintenance_Support_per_Facili -->
<g id="edge2" class="edge">
<title>Maintenance_Support_per_Facili&#45;&gt;Maintenance_Support_per_Facili</title>
<path fill="none" stroke="black" d="M197.76,-20.9C218.53,-20.6 233.5,-19.63 233.5,-18 233.5,-16.57 222.04,-15.65 205.26,-15.24"/>
<polygon fill="black" stroke="black" points="205.31,-13.15 199.27,-15.13 205.23,-17.34 205.31,-13.15"/>
</g>
<!-- Maintenance_Support_per_Facili&#45;&gt;Maintenance_Support_per_Facili -->
<g id="edge3" class="edge">
<title>Maintenance_Support_per_Facili&#45;&gt;Maintenance_Support_per_Facili</title>
<path fill="none" stroke="black" d="M197.92,-22.49C227.99,-22.38 251.5,-20.88 251.5,-18 251.5,-15.35 231.69,-13.87 205.18,-13.56"/>
<polygon fill="black" stroke="black" points="205.45,-11.46 199.43,-13.52 205.41,-15.66 205.45,-11.46"/>
</g>
<!-- Maintenance_Support_per_Facili&#45;&gt;Maintenance_Support_per_Facili -->
<g id="edge4" class="edge">
<title>Maintenance_Support_per_Facili&#45;&gt;Maintenance_Support_per_Facili</title>
<path fill="none" stroke="black" d="M197.87,-23.97C236.9,-24.27 269.5,-22.28 269.5,-18 269.5,-13.99 240.85,-11.99 205.1,-12"/>
<polygon fill="black" stroke="black" points="205.37,-9.9 199.38,-12.02 205.39,-14.1 205.37,-9.9"/>
</g>
<!-- Maintenance_Support_per_Facili&#45;&gt;Maintenance_Support_per_Facili -->
<g id="edge5" class="edge">
<title>Maintenance_Support_per_Facili&#45;&gt;Maintenance_Support_per_Facili</title>
<path fill="none" stroke="black" d="M197.8,-25.32C245.44,-26.22 287.5,-23.78 287.5,-18 287.5,-12.52 249.76,-10.05 205.29,-10.57"/>
<polygon fill="black" stroke="black" points="205.28,-8.47 199.31,-10.66 205.35,-12.67 205.28,-8.47"/>
</g>
<!-- Maintenance_Support_per_Facili&#45;&gt;Maintenance_Support_per_Facili -->
<g id="edge6" class="edge">
<title>Maintenance_Support_per_Facili&#45;&gt;Maintenance_Support_per_Facili</title>
<path fill="none" stroke="black" d="M197.93,-26.55C253.82,-28.2 305.5,-25.35 305.5,-18 305.5,-10.98 258.36,-8.07 205.44,-9.26"/>
<polygon fill="black" stroke="black" points="205.39,-7.16 199.45,-9.41 205.5,-11.36 205.39,-7.16"/>
</g>
<!-- Maintenance_Support_per_Facili&#45;&gt;Maintenance_Support_per_Facili -->
<g id="edge7" class="edge">
<title>Maintenance_Support_per_Facili&#45;&gt;Maintenance_Support_per_Facili</title>
<path fill="none" stroke="black" d="M197.82,-27.66C261.82,-30.2 323.5,-26.98 323.5,-18 323.5,-9.37 266.55,-6.06 205.31,-8.07"/>
<polygon fill="black" stroke="black" points="205.25,-5.97 199.33,-8.29 205.41,-10.17 205.25,-5.97"/>
</g>
<!-- Maintenance_Support_per_Facili&#45;&gt;Maintenance_Support_per_Facili -->
<g id="edge8" class="edge">
<title>Maintenance_Support_per_Facili&#45;&gt;Maintenance_Support_per_Facili</title>
<path fill="none" stroke="black" d="M197.86,-28.68C269.71,-32.22 341.5,-28.66 341.5,-18 341.5,-7.7 274.4,-4.03 205.01,-6.99"/>
<polygon fill="black" stroke="black" points="205.27,-4.88 199.37,-7.25 205.46,-9.08 205.27,-4.88"/>
</g>
</g>
</svg>
