<?xml version="1.0" encoding="UTF-8" standalone="no"?>
<!DOCTYPE svg PUBLIC "-//W3C//DTD SVG 1.1//EN"
 "http://www.w3.org/Graphics/SVG/1.1/DTD/svg11.dtd">
<!-- Generated by graphviz version 14.1.2 (20260124.0452)
 -->
<!-- Title: TechTree Pages: 1 -->
<svg width="701pt" height="137pt"
 viewBox="0.00 0.00 701.00 137.00" xmlns="http://www.w3.org/2000/svg" xmlns:xlink="http://www.w3.org/1999/xlink">
<g id="graph0" class="graph" transform="scale(1 1) rotate(0) translate(4 132.75)">
<title>TechTree</title>
<polygon fill="white" stroke="none" points="-4,4 -4,-132.75 697.12,-132.75 697.12,4 -4,4"/>
<text xml:space="preserve" text-anchor="middle" x="346.56" y="-113.35" font-family="Helvetica,sans-Serif" font-weight="bold" font-size="12.00">Maintenance Storage</text>
<!-- Maintenance_Storage -->
<g id="node1" class="node">
<title>Maintenance_Storage</title>
<path fill="#d4edda" stroke="black" d="M91.75,-36C91.75,-36 12,-36 12,-36 6,-36 0,-30 0,-24 0,-24 0,-12 0,-12 0,-6 6,0 12,0 12,0 91.75,0 91.75,0 97.75,0 103.75,-6 103.75,-12 103.75,-12 103.75,-24 103.75,-24 103.75,-30 97.75,-36 91.75,-36"/>
<text xml:space="preserve" text-anchor="middle" x="51.88" y="-19.2" font-family="Helvetica,sans-Serif" font-size="9.00">Maintenance Storage</text>
<text xml:space="preserve" text-anchor="middle" x="51.88" y="-9.45" font-family="Helvetica,sans-Serif" font-size="9.00">1 RP</text>
</g>
<!-- Large_Maintenance_Storage -->
<g id="node2" class="node">
<title>Large_Maintenance_Storage</title>
<path fill="#d4edda" stroke="black" d="M239.88,-36C239.88,-36 133.88,-36 133.88,-36 127.88,-36 121.88,-30 121.88,-24 121.88,-24 121.88,-12 121.88,-12 121.88,-6 127.88,0 133.88,0 133.88,0 239.88,0 239.88,0 245.88,0 251.88,-6 251.88,-12 251.88,-12 251.88,-24 251.88,-24 251.88,-30 245.88,-36 239.88,-36"/>
<text xml:space="preserve" text-anchor="middle" x="186.88" y="-19.2" font-family="Helvetica,sans-Serif" font-size="9.00">Large Maintenance Storage</text>
<text xml:space="preserve" text-anchor="middle" x="186.88" y="-9.45" font-family="Helvetica,sans-Serif" font-size="9.00">2 RP</text>
</g>
<!-- Small_Maintenance_Storage -->
<g id="node3" class="node">
<title>Small_Maintenance_Storage</title>
<path fill="#d4edda" stroke="black" d="M387.5,-36C387.5,-36 282.25,-36 282.25,-36 276.25,-36 270.25,-30 270.25,-24 270.25,-24 270.25,-12 270.25,-12 270.25,-6 276.25,0 282.25,0 282.25,0 387.5,0 387.5,0 393.5,0 399.5,-6 399.5,-12 399.5,-12 399.5,-24 399.5,-24 399.5,-30 393.5,-36 387.5,-36"/>
<text xml:space="preserve" text-anchor="middle" x="334.88" y="-19.2" font-family="Helvetica,sans-Serif" font-size="9.00">Small Maintenance Storage</text>
<text xml:space="preserve" text-anchor="middle" x="334.88" y="-9.45" font-family="Helvetica,sans-Serif" font-size="9.00">3 RP</text>
</g>
<!-- Tiny_Maintenance_Storage -->
<g id="node4" class="node">
<title>Tiny_Maintenance_Storage</title>
<path fill="#d4edda" stroke="black" d="M528.12,-36C528.12,-36 429.62,-36 429.62,-36 423.62,-36 417.62,-30 417.62,-24 417.62,-24 417.62,-12 417.62,-12 417.62,-6 423.62,0 429.62,0 429.62,0 528.12,0 528.12,0 534.12,0 540.12,-6 540.12,-12 540.12,-12 540.12,-24 540.12,-24 540.12,-30 534.12,-36 528.12,-36"/>
<text xml:space="preserve" text-anchor="middle" x="478.88" y="-19.2" font-family="Helvetica,sans-Serif" font-size="9.00">Tiny Maintenance Storage</text>
<text xml:space="preserve" text-anchor="middle" x="478.88" y="-9.45" font-family="Helvetica,sans-Serif" font-size="9.00">4 RP</text>
</g>
<!-- Fighter_Maintenance_Storage -->
<g id="node5" class="node">
<title>Fighter_Maintenance_Storage</title>
<path fill="#d4edda" stroke="black" d="M681.12,-36C681.12,-36 570.62,-36 570.62,-36 564.62,-36 558.62,-30 558.62,-24 558.62,-24 558.62,-12 558.62,-12 558.62,-6 564.62,0 570.62,0 570.62,0 681.12,0 681.12,0 687.12,0 693.12,-6 693.12,-12 693.12,-12 693.12,-24 693.12,-24 693.12,-30 687.12,-36 681.12,-36"/>
<text xml:space="preserve" text-anchor="middle" x="625.88" y="-19.2" font-family="Helvetica,sans-Serif" font-size="9.00">Fighter Maintenance Storage</text>
<text xml:space="preserve" text-anchor="middle" x="625.88" y="-9.45" font-family="Helvetica,sans-Serif" font-size="9.00">5 RP</text>
</g>
<!-- ext_Trans_Newtonian_Technology -->
<g id="node6" class="node">
<title>ext_Trans_Newtonian_Technology</title>
<path fill="#f0f0f0" stroke="black" stroke-dasharray="5,2" d="M390.88,-108C390.88,-108 278.88,-108 278.88,-108 272.88,-108 266.88,-102 266.88,-96 266.88,-96 266.88,-84 266.88,-84 266.88,-78 272.88,-72 278.88,-72 278.88,-72 390.88,-72 390.88,-72 396.88,-72 402.88,-78 402.88,-84 402.88,-84 402.88,-96 402.88,-96 402.88,-102 396.88,-108 390.88,-108"/>
<text xml:space="preserve" text-anchor="middle" x="334.88" y="-86.33" font-family="Helvetica,sans-Serif" font-size="9.00">Trans&#45;Newtonian Technology</text>
</g>
<!-- ext_Trans_Newtonian_Technology&#45;&gt;Maintenance_Storage -->
<g id="edge1" class="edge">
<title>ext_Trans_Newtonian_Technology&#45;&gt;Maintenance_Storage</title>
<path fill="none" stroke="black" d="M266.7,-73.42C222.7,-63.19 164.28,-49.29 112.88,-36 112.34,-35.86 111.79,-35.72 111.25,-35.58"/>
<polygon fill="black" stroke="black" points="111.88,-33.57 105.55,-34.07 110.81,-37.64 111.88,-33.57"/>
</g>
<!-- ext_Trans_Newtonian_Technology&#45;&gt;Large_Maintenance_Storage -->
<g id="edge2" class="edge">
<title>ext_Trans_Newtonian_Technology&#45;&gt;Large_Maintenance_Storage</title>
<path fill="none" stroke="black" d="M297.91,-71.52C277.35,-61.79 251.65,-49.64 230.15,-39.47"/>
<polygon fill="black" stroke="black" points="231.31,-37.7 224.99,-37.03 229.52,-41.49 231.31,-37.7"/>
</g>
<!-- ext_Trans_Newtonian_Technology&#45;&gt;Small_Maintenance_Storage -->
<g id="edge3" class="edge">
<title>ext_Trans_Newtonian_Technology&#45;&gt;Small_Maintenance_Storage</title>
<path fill="none" stroke="black" d="M334.88,-71.7C334.88,-63.22 334.88,-52.86 334.88,-43.58"/>
<polygon fill="black" stroke="black" points="336.98,-43.62 334.88,-37.62 332.78,-43.62 336.98,-43.62"/>
</g>
<!-- ext_Trans_Newtonian_Technology&#45;&gt;Tiny_Maintenance_Storage -->
<g id="edge4" class="edge">
<title>ext_Trans_Newtonian_Technology&#45;&gt;Tiny_Maintenance_Storage</title>
<path fill="none" stroke="black" d="M370.84,-71.52C390.84,-61.8 415.83,-49.65 436.73,-39.49"/>
<polygon fill="black" stroke="black" points="437.53,-41.43 442.01,-36.92 435.69,-37.66 437.53,-41.43"/>
</g>
<!-- ext_Trans_Newtonian_Technology&#45;&gt;Fighter_Maintenance_Storage -->
<g id="edge5" class="edge">
<title>ext_Trans_Newtonian_Technology&#45;&gt;Fighter_Maintenance_Storage</title>
<path fill="none" stroke="black" d="M403.1,-72.59C447.51,-61.91 505.45,-47.97 551.11,-36.99"/>
<polygon fill="black" stroke="black" points="551.51,-39.05 556.86,-35.6 550.53,-34.96 551.51,-39.05"/>
</g>
</g>
</svg>
