<?xml version="1.0" encoding="UTF-8" standalone="no"?>
<!DOCTYPE svg PUBLIC "-//W3C//DTD SVG 1.1//EN"
 "http://www.w3.org/Graphics/SVG/1.1/DTD/svg11.dtd">
<!-- Generated by graphviz version 14.1.2 (20260124.0452)
 -->
<!-- Title: TechTree Pages: 1 -->
<svg width="517pt" height="67pt"
 viewBox="0.00 0.00 517.00 67.00" xmlns="http://www.w3.org/2000/svg" xmlns:xlink="http://www.w3.org/1999/xlink">
<g id="graph0" class="graph" transform="scale(1 1) rotate(0) translate(4 63)">
<title>TechTree</title>
<polygon fill="white" stroke="none" points="-4,4 -4,-63 513,-63 513,4 -4,4"/>
<text xml:space="preserve" text-anchor="middle" x="254.5" y="-41.7" font-family="Helvetica,sans-Serif" font-weight="bold" font-size="14.00">Max Tracking Time Bonus</text>
<!-- Max_Tracking_Time_for_Bonus_vs -->
<g id="node1" class="node">
<title>Max_Tracking_Time_for_Bonus_vs</title>
<path fill="#d4c4fb" stroke="black" d="M277,-36C277,-36 12,-36 12,-36 6,-36 0,-30 0,-24 0,-24 0,-12 0,-12 0,-6 6,0 12,0 12,0 277,0 277,0 283,0 289,-6 289,-12 289,-12 289,-24 289,-24 289,-30 283,-36 277,-36"/>
<text xml:space="preserve" text-anchor="middle" x="144.5" y="-19.75" font-family="Helvetica,sans-Serif" font-size="10.00">Max Tracking Time for Bonus vs Missiles: 400 Seconds (80%)</text>
<text xml:space="preserve" text-anchor="middle" x="144.5" y="-8.5" font-family="Helvetica,sans-Serif" font-size="10.00">480K RP</text>
</g>
<!-- Max_Tracking_Time_for_Bonus_vs&#45;&gt;Max_Tracking_Time_for_Bonus_vs -->
<g id="edge1" class="edge">
<title>Max_Tracking_Time_for_Bonus_vs&#45;&gt;Max_Tracking_Time_for_Bonus_vs</title>
<path fill="none" stroke="black" d="M289.22,-19.2C302.58,-18.95 311,-18.55 311,-18 311,-17.57 305.96,-17.24 297.5,-16.99"/>
<polygon fill="black" stroke="black" points="297.79,-14.55 290.74,-16.84 297.68,-19.45 297.79,-14.55"/>
</g>
<!-- Max_Tracking_Time_for_Bonus_vs&#45;&gt;Max_Tracking_Time_for_Bonus_vs -->
<g id="edge2" class="edge">
<title>Max_Tracking_Time_for_Bonus_vs&#45;&gt;Max_Tracking_Time_for_Bonus_vs</title>
<path fill="none" stroke="black" d="M289.13,-20.82C314.96,-20.46 333,-19.52 333,-18 333,-16.66 318.81,-15.76 297.59,-15.32"/>
<polygon fill="black" stroke="black" points="297.68,-12.87 290.64,-15.2 297.6,-17.77 297.68,-12.87"/>
</g>
<!-- Max_Tracking_Time_for_Bonus_vs&#45;&gt;Max_Tracking_Time_for_Bonus_vs -->
<g id="edge3" class="edge">
<title>Max_Tracking_Time_for_Bonus_vs&#45;&gt;Max_Tracking_Time_for_Bonus_vs</title>
<path fill="none" stroke="black" d="M289.13,-22.45C326.68,-22.18 355,-20.7 355,-18 355,-15.5 330.73,-14.05 297.33,-13.63"/>
<polygon fill="black" stroke="black" points="297.66,-11.18 290.64,-13.56 297.61,-16.08 297.66,-11.18"/>
</g>
<!-- Max_Tracking_Time_for_Bonus_vs&#45;&gt;Max_Tracking_Time_for_Bonus_vs -->
<g id="edge4" class="edge">
<title>Max_Tracking_Time_for_Bonus_vs&#45;&gt;Max_Tracking_Time_for_Bonus_vs</title>
<path fill="none" stroke="black" d="M289.24,-24C337.95,-24.02 377,-22.02 377,-18 377,-14.22 342.39,-12.23 297.7,-12.02"/>
<polygon fill="black" stroke="black" points="297.76,-9.57 290.76,-12 297.75,-14.47 297.76,-9.57"/>
</g>
<!-- Max_Tracking_Time_for_Bonus_vs&#45;&gt;Max_Tracking_Time_for_Bonus_vs -->
<g id="edge5" class="edge">
<title>Max_Tracking_Time_for_Bonus_vs&#45;&gt;Max_Tracking_Time_for_Bonus_vs</title>
<path fill="none" stroke="black" d="M289.36,-25.44C348.8,-25.92 399,-23.44 399,-18 399,-12.82 353.4,-10.32 297.65,-10.51"/>
<polygon fill="black" stroke="black" points="297.86,-8.06 290.87,-10.55 297.89,-12.96 297.86,-8.06"/>
</g>
<!-- Max_Tracking_Time_for_Bonus_vs&#45;&gt;Max_Tracking_Time_for_Bonus_vs -->
<g id="edge6" class="edge">
<title>Max_Tracking_Time_for_Bonus_vs&#45;&gt;Max_Tracking_Time_for_Bonus_vs</title>
<path fill="none" stroke="black" d="M289.24,-26.77C359.18,-27.87 421,-24.95 421,-18 421,-11.32 363.92,-8.36 297.4,-9.11"/>
<polygon fill="black" stroke="black" points="297.72,-6.66 290.76,-9.2 297.79,-11.56 297.72,-6.66"/>
</g>
<!-- Max_Tracking_Time_for_Bonus_vs&#45;&gt;Max_Tracking_Time_for_Bonus_vs -->
<g id="edge7" class="edge">
<title>Max_Tracking_Time_for_Bonus_vs&#45;&gt;Max_Tracking_Time_for_Bonus_vs</title>
<path fill="none" stroke="black" d="M289.24,-28.01C369.34,-29.85 443,-26.52 443,-18 443,-9.78 374.43,-6.39 297.66,-7.82"/>
<polygon fill="black" stroke="black" points="297.7,-5.37 290.76,-7.96 297.81,-10.27 297.7,-5.37"/>
</g>
<!-- Max_Tracking_Time_for_Bonus_vs&#45;&gt;Max_Tracking_Time_for_Bonus_vs -->
<g id="edge8" class="edge">
<title>Max_Tracking_Time_for_Bonus_vs&#45;&gt;Max_Tracking_Time_for_Bonus_vs</title>
<path fill="none" stroke="black" d="M289.11,-29.14C379.17,-31.85 465,-28.14 465,-18 465,-8.18 384.45,-4.38 297.54,-6.62"/>
<polygon fill="black" stroke="black" points="297.55,-4.17 290.63,-6.82 297.69,-9.07 297.55,-4.17"/>
</g>
<!-- Max_Tracking_Time_for_Bonus_vs&#45;&gt;Max_Tracking_Time_for_Bonus_vs -->
<g id="edge9" class="edge">
<title>Max_Tracking_Time_for_Bonus_vs&#45;&gt;Max_Tracking_Time_for_Bonus_vs</title>
<path fill="none" stroke="black" d="M289.24,-30.2C388.96,-33.86 487,-29.79 487,-18 487,-6.54 394.43,-2.38 297.71,-5.51"/>
<polygon fill="black" stroke="black" points="297.66,-3.06 290.75,-5.75 297.83,-7.96 297.66,-3.06"/>
</g>
<!-- Max_Tracking_Time_for_Bonus_vs&#45;&gt;Max_Tracking_Time_for_Bonus_vs -->
<g id="edge10" class="edge">
<title>Max_Tracking_Time_for_Bonus_vs&#45;&gt;Max_Tracking_Time_for_Bonus_vs</title>
<path fill="none" stroke="black" d="M289.05,-31.17C398.35,-35.88 509,-31.5 509,-18 509,-4.85 403.89,-0.34 297.37,-4.49"/>
<polygon fill="black" stroke="black" points="297.45,-2.04 290.56,-4.77 297.65,-6.93 297.45,-2.04"/>
</g>
</g>
</svg>
