<?xml version="1.0" encoding="UTF-8" standalone="no"?>
<!DOCTYPE svg PUBLIC "-//W3C//DTD SVG 1.1//EN"
 "http://www.w3.org/Graphics/SVG/1.1/DTD/svg11.dtd">
<!-- Generated by graphviz version 14.1.2 (20260124.0452)
 -->
<!-- Title: TechTree Pages: 1 -->
<svg width="261pt" height="137pt"
 viewBox="0.00 0.00 261.00 137.00" xmlns="http://www.w3.org/2000/svg" xmlns:xlink="http://www.w3.org/1999/xlink">
<g id="graph0" class="graph" transform="scale(1 1) rotate(0) translate(4 132.75)">
<title>TechTree</title>
<polygon fill="white" stroke="none" points="-4,4 -4,-132.75 257,-132.75 257,4 -4,4"/>
<text xml:space="preserve" text-anchor="middle" x="126.5" y="-113.35" font-family="Helvetica,sans-Serif" font-weight="bold" font-size="12.00">Max Engine Thrust Modifier</text>
<!-- Maximum_Engine_Power_Modifier_ -->
<g id="node1" class="node">
<title>Maximum_Engine_Power_Modifier_</title>
<path fill="#fff3cd" stroke="black" d="M151,-36C151,-36 12,-36 12,-36 6,-36 0,-30 0,-24 0,-24 0,-12 0,-12 0,-6 6,0 12,0 12,0 151,0 151,0 157,0 163,-6 163,-12 163,-12 163,-24 163,-24 163,-30 157,-36 151,-36"/>
<text xml:space="preserve" text-anchor="middle" x="81.5" y="-19.2" font-family="Helvetica,sans-Serif" font-size="9.00">Maximum Engine Power Modifier x3</text>
<text xml:space="preserve" text-anchor="middle" x="81.5" y="-9.45" font-family="Helvetica,sans-Serif" font-size="9.00">15K RP</text>
</g>
<!-- Maximum_Engine_Power_Modifier_&#45;&gt;Maximum_Engine_Power_Modifier_ -->
<g id="edge2" class="edge">
<title>Maximum_Engine_Power_Modifier_&#45;&gt;Maximum_Engine_Power_Modifier_</title>
<path fill="none" stroke="black" d="M163.47,-20.37C174.03,-19.96 181,-19.17 181,-18 181,-17.12 177.08,-16.46 170.66,-16.01"/>
<polygon fill="black" stroke="black" points="171.09,-13.93 164.98,-15.71 170.87,-18.13 171.09,-13.93"/>
</g>
<!-- Maximum_Engine_Power_Modifier_&#45;&gt;Maximum_Engine_Power_Modifier_ -->
<g id="edge3" class="edge">
<title>Maximum_Engine_Power_Modifier_&#45;&gt;Maximum_Engine_Power_Modifier_</title>
<path fill="none" stroke="black" d="M163.32,-23.33C183.74,-22.95 199,-21.18 199,-18 199,-15.22 187.31,-13.51 170.71,-12.88"/>
<polygon fill="black" stroke="black" points="170.89,-10.78 164.83,-12.72 170.77,-14.98 170.89,-10.78"/>
</g>
<!-- Maximum_Engine_Power_Modifier_&#45;&gt;Maximum_Engine_Power_Modifier_ -->
<g id="edge4" class="edge">
<title>Maximum_Engine_Power_Modifier_&#45;&gt;Maximum_Engine_Power_Modifier_</title>
<path fill="none" stroke="black" d="M163.19,-26.09C192.8,-26.29 217,-23.59 217,-18 217,-12.89 196.78,-10.2 170.69,-9.92"/>
<polygon fill="black" stroke="black" points="170.71,-7.82 164.7,-9.91 170.7,-12.02 170.71,-7.82"/>
</g>
<!-- Maximum_Engine_Power_Modifier_&#45;&gt;Maximum_Engine_Power_Modifier_ -->
<g id="edge5" class="edge">
<title>Maximum_Engine_Power_Modifier_&#45;&gt;Maximum_Engine_Power_Modifier_</title>
<path fill="none" stroke="black" d="M163.23,-28.57C201.49,-29.77 235,-26.24 235,-18 235,-10.27 205.55,-6.69 170.34,-7.26"/>
<polygon fill="black" stroke="black" points="170.69,-5.15 164.74,-7.39 170.79,-9.35 170.69,-5.15"/>
</g>
<!-- Maximum_Engine_Power_Modifier_&#45;&gt;Maximum_Engine_Power_Modifier_ -->
<g id="edge6" class="edge">
<title>Maximum_Engine_Power_Modifier_&#45;&gt;Maximum_Engine_Power_Modifier_</title>
<path fill="none" stroke="black" d="M163.11,-30.78C209.72,-33.34 253,-29.07 253,-18 253,-7.51 214.17,-3.13 170.45,-4.87"/>
<polygon fill="black" stroke="black" points="170.51,-2.76 164.62,-5.15 170.71,-6.96 170.51,-2.76"/>
</g>
<!-- ext_Trans_Newtonian_Technology -->
<g id="node2" class="node">
<title>ext_Trans_Newtonian_Technology</title>
<path fill="#f0f0f0" stroke="black" stroke-dasharray="5,2" d="M137.5,-108C137.5,-108 25.5,-108 25.5,-108 19.5,-108 13.5,-102 13.5,-96 13.5,-96 13.5,-84 13.5,-84 13.5,-78 19.5,-72 25.5,-72 25.5,-72 137.5,-72 137.5,-72 143.5,-72 149.5,-78 149.5,-84 149.5,-84 149.5,-96 149.5,-96 149.5,-102 143.5,-108 137.5,-108"/>
<text xml:space="preserve" text-anchor="middle" x="81.5" y="-86.33" font-family="Helvetica,sans-Serif" font-size="9.00">Trans&#45;Newtonian Technology</text>
</g>
<!-- ext_Trans_Newtonian_Technology&#45;&gt;Maximum_Engine_Power_Modifier_ -->
<g id="edge1" class="edge">
<title>ext_Trans_Newtonian_Technology&#45;&gt;Maximum_Engine_Power_Modifier_</title>
<path fill="none" stroke="black" d="M81.5,-71.7C81.5,-63.22 81.5,-52.86 81.5,-43.58"/>
<polygon fill="black" stroke="black" points="83.6,-43.62 81.5,-37.62 79.4,-43.62 83.6,-43.62"/>
</g>
</g>
</svg>
