<?xml version="1.0" encoding="UTF-8" standalone="no"?>
<!DOCTYPE svg PUBLIC "-//W3C//DTD SVG 1.1//EN"
 "http://www.w3.org/Graphics/SVG/1.1/DTD/svg11.dtd">
<!-- Generated by graphviz version 14.1.2 (20260124.0452)
 -->
<!-- Title: TechTree Pages: 1 -->
<svg width="216pt" height="652pt"
 viewBox="0.00 0.00 216.00 652.00" xmlns="http://www.w3.org/2000/svg" xmlns:xlink="http://www.w3.org/1999/xlink">
<g id="graph0" class="graph" transform="scale(1 1) rotate(0) translate(4 648)">
<title>TechTree</title>
<polygon fill="white" stroke="none" points="-4,4 -4,-648 212,-648 212,4 -4,4"/>
<text xml:space="preserve" text-anchor="middle" x="104" y="-626.7" font-family="Helvetica,sans-Serif" font-weight="bold" font-size="14.00">Max Jump Squadron Size</text>
<!-- Max_Jump_Squadron_Size___3__Co -->
<g id="node1" class="node">
<title>Max_Jump_Squadron_Size___3__Co</title>
<path fill="#cce5ff" stroke="black" d="M190.75,-621C190.75,-621 17.25,-621 17.25,-621 11.25,-621 5.25,-615 5.25,-609 5.25,-609 5.25,-597 5.25,-597 5.25,-591 11.25,-585 17.25,-585 17.25,-585 190.75,-585 190.75,-585 196.75,-585 202.75,-591 202.75,-597 202.75,-597 202.75,-609 202.75,-609 202.75,-615 196.75,-621 190.75,-621"/>
<text xml:space="preserve" text-anchor="middle" x="104" y="-604.75" font-family="Helvetica,sans-Serif" font-size="10.00">Max Jump Squadron Size &#45; 3 (Cost x 1.0)</text>
<text xml:space="preserve" text-anchor="middle" x="104" y="-593.5" font-family="Helvetica,sans-Serif" font-size="10.00">1K RP</text>
</g>
<!-- Max_Jump_Squadron_Size___4__Co -->
<g id="node2" class="node">
<title>Max_Jump_Squadron_Size___4__Co</title>
<path fill="#cce5ff" stroke="black" d="M190.75,-556C190.75,-556 17.25,-556 17.25,-556 11.25,-556 5.25,-550 5.25,-544 5.25,-544 5.25,-532 5.25,-532 5.25,-526 11.25,-520 17.25,-520 17.25,-520 190.75,-520 190.75,-520 196.75,-520 202.75,-526 202.75,-532 202.75,-532 202.75,-544 202.75,-544 202.75,-550 196.75,-556 190.75,-556"/>
<text xml:space="preserve" text-anchor="middle" x="104" y="-539.75" font-family="Helvetica,sans-Serif" font-size="10.00">Max Jump Squadron Size &#45; 4 (Cost x 1.1)</text>
<text xml:space="preserve" text-anchor="middle" x="104" y="-528.5" font-family="Helvetica,sans-Serif" font-size="10.00">2K RP</text>
</g>
<!-- Max_Jump_Squadron_Size___3__Co&#45;&gt;Max_Jump_Squadron_Size___4__Co -->
<g id="edge1" class="edge">
<title>Max_Jump_Squadron_Size___3__Co&#45;&gt;Max_Jump_Squadron_Size___4__Co</title>
<path fill="none" stroke="black" d="M104,-584.78C104,-578.53 104,-571.33 104,-564.52"/>
<polygon fill="black" stroke="black" points="106.45,-564.71 104,-557.71 101.55,-564.71 106.45,-564.71"/>
</g>
<!-- Max_Jump_Squadron_Size___5__Co -->
<g id="node3" class="node">
<title>Max_Jump_Squadron_Size___5__Co</title>
<path fill="#cce5ff" stroke="black" d="M190.75,-491C190.75,-491 17.25,-491 17.25,-491 11.25,-491 5.25,-485 5.25,-479 5.25,-479 5.25,-467 5.25,-467 5.25,-461 11.25,-455 17.25,-455 17.25,-455 190.75,-455 190.75,-455 196.75,-455 202.75,-461 202.75,-467 202.75,-467 202.75,-479 202.75,-479 202.75,-485 196.75,-491 190.75,-491"/>
<text xml:space="preserve" text-anchor="middle" x="104" y="-474.75" font-family="Helvetica,sans-Serif" font-size="10.00">Max Jump Squadron Size &#45; 5 (Cost x 1.2)</text>
<text xml:space="preserve" text-anchor="middle" x="104" y="-463.5" font-family="Helvetica,sans-Serif" font-size="10.00">4K RP</text>
</g>
<!-- Max_Jump_Squadron_Size___4__Co&#45;&gt;Max_Jump_Squadron_Size___5__Co -->
<g id="edge2" class="edge">
<title>Max_Jump_Squadron_Size___4__Co&#45;&gt;Max_Jump_Squadron_Size___5__Co</title>
<path fill="none" stroke="black" d="M104,-519.78C104,-513.53 104,-506.33 104,-499.52"/>
<polygon fill="black" stroke="black" points="106.45,-499.71 104,-492.71 101.55,-499.71 106.45,-499.71"/>
</g>
<!-- Max_Jump_Squadron_Size___6__Co -->
<g id="node4" class="node">
<title>Max_Jump_Squadron_Size___6__Co</title>
<path fill="#cce5ff" stroke="black" d="M190.75,-426C190.75,-426 17.25,-426 17.25,-426 11.25,-426 5.25,-420 5.25,-414 5.25,-414 5.25,-402 5.25,-402 5.25,-396 11.25,-390 17.25,-390 17.25,-390 190.75,-390 190.75,-390 196.75,-390 202.75,-396 202.75,-402 202.75,-402 202.75,-414 202.75,-414 202.75,-420 196.75,-426 190.75,-426"/>
<text xml:space="preserve" text-anchor="middle" x="104" y="-409.75" font-family="Helvetica,sans-Serif" font-size="10.00">Max Jump Squadron Size &#45; 6 (Cost x 1.3)</text>
<text xml:space="preserve" text-anchor="middle" x="104" y="-398.5" font-family="Helvetica,sans-Serif" font-size="10.00">8K RP</text>
</g>
<!-- Max_Jump_Squadron_Size___5__Co&#45;&gt;Max_Jump_Squadron_Size___6__Co -->
<g id="edge3" class="edge">
<title>Max_Jump_Squadron_Size___5__Co&#45;&gt;Max_Jump_Squadron_Size___6__Co</title>
<path fill="none" stroke="black" d="M104,-454.78C104,-448.53 104,-441.33 104,-434.52"/>
<polygon fill="black" stroke="black" points="106.45,-434.71 104,-427.71 101.55,-434.71 106.45,-434.71"/>
</g>
<!-- Max_Jump_Squadron_Size___7__Co -->
<g id="node5" class="node">
<title>Max_Jump_Squadron_Size___7__Co</title>
<path fill="#fff3cd" stroke="black" d="M190.75,-361C190.75,-361 17.25,-361 17.25,-361 11.25,-361 5.25,-355 5.25,-349 5.25,-349 5.25,-337 5.25,-337 5.25,-331 11.25,-325 17.25,-325 17.25,-325 190.75,-325 190.75,-325 196.75,-325 202.75,-331 202.75,-337 202.75,-337 202.75,-349 202.75,-349 202.75,-355 196.75,-361 190.75,-361"/>
<text xml:space="preserve" text-anchor="middle" x="104" y="-344.75" font-family="Helvetica,sans-Serif" font-size="10.00">Max Jump Squadron Size &#45; 7 (Cost x 1.5)</text>
<text xml:space="preserve" text-anchor="middle" x="104" y="-333.5" font-family="Helvetica,sans-Serif" font-size="10.00">15K RP</text>
</g>
<!-- Max_Jump_Squadron_Size___6__Co&#45;&gt;Max_Jump_Squadron_Size___7__Co -->
<g id="edge4" class="edge">
<title>Max_Jump_Squadron_Size___6__Co&#45;&gt;Max_Jump_Squadron_Size___7__Co</title>
<path fill="none" stroke="black" d="M104,-389.78C104,-383.53 104,-376.33 104,-369.52"/>
<polygon fill="black" stroke="black" points="106.45,-369.71 104,-362.71 101.55,-369.71 106.45,-369.71"/>
</g>
<!-- Max_Jump_Squadron_Size___8__Co -->
<g id="node6" class="node">
<title>Max_Jump_Squadron_Size___8__Co</title>
<path fill="#fff3cd" stroke="black" d="M193.38,-296C193.38,-296 14.63,-296 14.63,-296 8.62,-296 2.62,-290 2.62,-284 2.62,-284 2.62,-272 2.62,-272 2.62,-266 8.62,-260 14.62,-260 14.62,-260 193.38,-260 193.38,-260 199.38,-260 205.38,-266 205.38,-272 205.38,-272 205.38,-284 205.38,-284 205.38,-290 199.38,-296 193.38,-296"/>
<text xml:space="preserve" text-anchor="middle" x="104" y="-279.75" font-family="Helvetica,sans-Serif" font-size="10.00">Max Jump Squadron Size &#45; 8 (Cost x 1.75)</text>
<text xml:space="preserve" text-anchor="middle" x="104" y="-268.5" font-family="Helvetica,sans-Serif" font-size="10.00">30K RP</text>
</g>
<!-- Max_Jump_Squadron_Size___7__Co&#45;&gt;Max_Jump_Squadron_Size___8__Co -->
<g id="edge5" class="edge">
<title>Max_Jump_Squadron_Size___7__Co&#45;&gt;Max_Jump_Squadron_Size___8__Co</title>
<path fill="none" stroke="black" d="M104,-324.78C104,-318.53 104,-311.33 104,-304.52"/>
<polygon fill="black" stroke="black" points="106.45,-304.71 104,-297.71 101.55,-304.71 106.45,-304.71"/>
</g>
<!-- Max_Jump_Squadron_Size___9__Co -->
<g id="node7" class="node">
<title>Max_Jump_Squadron_Size___9__Co</title>
<path fill="#fff3cd" stroke="black" d="M186.62,-231C186.62,-231 21.38,-231 21.38,-231 15.38,-231 9.38,-225 9.38,-219 9.38,-219 9.38,-207 9.38,-207 9.38,-201 15.38,-195 21.38,-195 21.38,-195 186.62,-195 186.62,-195 192.62,-195 198.62,-201 198.62,-207 198.62,-207 198.62,-219 198.62,-219 198.62,-225 192.62,-231 186.62,-231"/>
<text xml:space="preserve" text-anchor="middle" x="104" y="-214.75" font-family="Helvetica,sans-Serif" font-size="10.00">Max Jump Squadron Size &#45; 9 (Cost x 2)</text>
<text xml:space="preserve" text-anchor="middle" x="104" y="-203.5" font-family="Helvetica,sans-Serif" font-size="10.00">60K RP</text>
</g>
<!-- Max_Jump_Squadron_Size___8__Co&#45;&gt;Max_Jump_Squadron_Size___9__Co -->
<g id="edge6" class="edge">
<title>Max_Jump_Squadron_Size___8__Co&#45;&gt;Max_Jump_Squadron_Size___9__Co</title>
<path fill="none" stroke="black" d="M104,-259.78C104,-253.53 104,-246.33 104,-239.52"/>
<polygon fill="black" stroke="black" points="106.45,-239.71 104,-232.71 101.55,-239.71 106.45,-239.71"/>
</g>
<!-- Max_Jump_Squadron_Size___10__C -->
<g id="node8" class="node">
<title>Max_Jump_Squadron_Size___10__C</title>
<path fill="#d4c4fb" stroke="black" d="M196,-166C196,-166 12,-166 12,-166 6,-166 0,-160 0,-154 0,-154 0,-142 0,-142 0,-136 6,-130 12,-130 12,-130 196,-130 196,-130 202,-130 208,-136 208,-142 208,-142 208,-154 208,-154 208,-160 202,-166 196,-166"/>
<text xml:space="preserve" text-anchor="middle" x="104" y="-149.75" font-family="Helvetica,sans-Serif" font-size="10.00">Max Jump Squadron Size &#45; 10 (Cost x 2.25)</text>
<text xml:space="preserve" text-anchor="middle" x="104" y="-138.5" font-family="Helvetica,sans-Serif" font-size="10.00">125K RP</text>
</g>
<!-- Max_Jump_Squadron_Size___9__Co&#45;&gt;Max_Jump_Squadron_Size___10__C -->
<g id="edge7" class="edge">
<title>Max_Jump_Squadron_Size___9__Co&#45;&gt;Max_Jump_Squadron_Size___10__C</title>
<path fill="none" stroke="black" d="M104,-194.78C104,-188.53 104,-181.33 104,-174.52"/>
<polygon fill="black" stroke="black" points="106.45,-174.71 104,-167.71 101.55,-174.71 106.45,-174.71"/>
</g>
<!-- Max_Jump_Squadron_Size___11__C -->
<g id="node9" class="node">
<title>Max_Jump_Squadron_Size___11__C</title>
<path fill="#d4c4fb" stroke="black" d="M193.38,-101C193.38,-101 14.63,-101 14.63,-101 8.62,-101 2.62,-95 2.62,-89 2.62,-89 2.62,-77 2.62,-77 2.62,-71 8.62,-65 14.62,-65 14.62,-65 193.38,-65 193.38,-65 199.38,-65 205.38,-71 205.38,-77 205.38,-77 205.38,-89 205.38,-89 205.38,-95 199.38,-101 193.38,-101"/>
<text xml:space="preserve" text-anchor="middle" x="104" y="-84.75" font-family="Helvetica,sans-Serif" font-size="10.00">Max Jump Squadron Size &#45; 11 (Cost x 2.5)</text>
<text xml:space="preserve" text-anchor="middle" x="104" y="-73.5" font-family="Helvetica,sans-Serif" font-size="10.00">250K RP</text>
</g>
<!-- Max_Jump_Squadron_Size___10__C&#45;&gt;Max_Jump_Squadron_Size___11__C -->
<g id="edge8" class="edge">
<title>Max_Jump_Squadron_Size___10__C&#45;&gt;Max_Jump_Squadron_Size___11__C</title>
<path fill="none" stroke="black" d="M104,-129.78C104,-123.53 104,-116.33 104,-109.52"/>
<polygon fill="black" stroke="black" points="106.45,-109.71 104,-102.71 101.55,-109.71 106.45,-109.71"/>
</g>
<!-- Max_Jump_Squadron_Size___12__C -->
<g id="node10" class="node">
<title>Max_Jump_Squadron_Size___12__C</title>
<path fill="#d4c4fb" stroke="black" d="M189.25,-36C189.25,-36 18.75,-36 18.75,-36 12.75,-36 6.75,-30 6.75,-24 6.75,-24 6.75,-12 6.75,-12 6.75,-6 12.75,0 18.75,0 18.75,0 189.25,0 189.25,0 195.25,0 201.25,-6 201.25,-12 201.25,-12 201.25,-24 201.25,-24 201.25,-30 195.25,-36 189.25,-36"/>
<text xml:space="preserve" text-anchor="middle" x="104" y="-19.75" font-family="Helvetica,sans-Serif" font-size="10.00">Max Jump Squadron Size &#45; 12 (Cost x 3)</text>
<text xml:space="preserve" text-anchor="middle" x="104" y="-8.5" font-family="Helvetica,sans-Serif" font-size="10.00">500K RP</text>
</g>
<!-- Max_Jump_Squadron_Size___11__C&#45;&gt;Max_Jump_Squadron_Size___12__C -->
<g id="edge9" class="edge">
<title>Max_Jump_Squadron_Size___11__C&#45;&gt;Max_Jump_Squadron_Size___12__C</title>
<path fill="none" stroke="black" d="M104,-64.78C104,-58.53 104,-51.33 104,-44.52"/>
<polygon fill="black" stroke="black" points="106.45,-44.71 104,-37.71 101.55,-44.71 106.45,-44.71"/>
</g>
</g>
</svg>
