<?xml version="1.0" encoding="UTF-8" standalone="no"?>
<!DOCTYPE svg PUBLIC "-//W3C//DTD SVG 1.1//EN"
 "http://www.w3.org/Graphics/SVG/1.1/DTD/svg11.dtd">
<!-- Generated by graphviz version 14.1.2 (20260124.0452)
 -->
<!-- Title: TechTree Pages: 1 -->
<svg width="512pt" height="569pt"
 viewBox="0.00 0.00 512.00 569.00" xmlns="http://www.w3.org/2000/svg" xmlns:xlink="http://www.w3.org/1999/xlink">
<g id="graph0" class="graph" transform="scale(1 1) rotate(0) translate(4 564.75)">
<title>TechTree</title>
<polygon fill="white" stroke="none" points="-4,4 -4,-564.75 508.38,-564.75 508.38,4 -4,4"/>
<text xml:space="preserve" text-anchor="middle" x="252.19" y="-545.35" font-family="Helvetica,sans-Serif" font-weight="bold" font-size="12.00">Max Squadron Jump Radius</text>
<!-- Max_Squadron_Jump_Radius___50k -->
<g id="node1" class="node">
<title>Max_Squadron_Jump_Radius___50k</title>
<path fill="#cce5ff" stroke="black" d="M416.75,-468C416.75,-468 237.25,-468 237.25,-468 231.25,-468 225.25,-462 225.25,-456 225.25,-456 225.25,-444 225.25,-444 225.25,-438 231.25,-432 237.25,-432 237.25,-432 416.75,-432 416.75,-432 422.75,-432 428.75,-438 428.75,-444 428.75,-444 428.75,-456 428.75,-456 428.75,-462 422.75,-468 416.75,-468"/>
<text xml:space="preserve" text-anchor="middle" x="327" y="-451.2" font-family="Helvetica,sans-Serif" font-size="9.00">Max Squadron Jump Radius &#45; 50k (Cost x 1.0)</text>
<text xml:space="preserve" text-anchor="middle" x="327" y="-441.45" font-family="Helvetica,sans-Serif" font-size="9.00">1K RP</text>
</g>
<!-- Max_Squadron_Jump_Radius___100 -->
<g id="node2" class="node">
<title>Max_Squadron_Jump_Radius___100</title>
<path fill="#fff3cd" stroke="black" d="M424.62,-396C424.62,-396 229.38,-396 229.38,-396 223.38,-396 217.38,-390 217.38,-384 217.38,-384 217.38,-372 217.38,-372 217.38,-366 223.38,-360 229.38,-360 229.38,-360 424.62,-360 424.62,-360 430.62,-360 436.62,-366 436.62,-372 436.62,-372 436.62,-384 436.62,-384 436.62,-390 430.62,-396 424.62,-396"/>
<text xml:space="preserve" text-anchor="middle" x="327" y="-379.2" font-family="Helvetica,sans-Serif" font-size="9.00">Max Squadron Jump Radius &#45; 1000k (Cost x 1.75)</text>
<text xml:space="preserve" text-anchor="middle" x="327" y="-369.45" font-family="Helvetica,sans-Serif" font-size="9.00">30K RP</text>
</g>
<!-- Max_Squadron_Jump_Radius___50k&#45;&gt;Max_Squadron_Jump_Radius___100 -->
<g id="edge2" class="edge">
<title>Max_Squadron_Jump_Radius___50k&#45;&gt;Max_Squadron_Jump_Radius___100</title>
<path fill="none" stroke="black" d="M327,-431.7C327,-423.22 327,-412.86 327,-403.58"/>
<polygon fill="black" stroke="black" points="329.1,-403.62 327,-397.62 324.9,-403.62 329.1,-403.62"/>
</g>
<!-- Max_Squadron_Jump_Radius___250 -->
<g id="node3" class="node">
<title>Max_Squadron_Jump_Radius___250</title>
<path fill="#d4c4fb" stroke="black" d="M353,-180C353,-180 163,-180 163,-180 157,-180 151,-174 151,-168 151,-168 151,-156 151,-156 151,-150 157,-144 163,-144 163,-144 353,-144 353,-144 359,-144 365,-150 365,-156 365,-156 365,-168 365,-168 365,-174 359,-180 353,-180"/>
<text xml:space="preserve" text-anchor="middle" x="258" y="-163.2" font-family="Helvetica,sans-Serif" font-size="9.00">Max Squadron Jump Radius &#45; 2500k (Cost x 2.5)</text>
<text xml:space="preserve" text-anchor="middle" x="258" y="-153.45" font-family="Helvetica,sans-Serif" font-size="9.00">250K RP</text>
</g>
<!-- Max_Squadron_Jump_Radius___100&#45;&gt;Max_Squadron_Jump_Radius___250 -->
<g id="edge3" class="edge">
<title>Max_Squadron_Jump_Radius___100&#45;&gt;Max_Squadron_Jump_Radius___250</title>
<path fill="none" stroke="black" d="M262.01,-359.55C244.05,-351.59 226.38,-340.19 215,-324 187.33,-284.65 190.24,-260.7 208,-216 212.6,-204.41 221.07,-193.9 229.75,-185.34"/>
<polygon fill="black" stroke="black" points="231.1,-186.94 234.04,-181.31 228.23,-183.88 231.1,-186.94"/>
</g>
<!-- Max_Squadron_Jump_Radius___150 -->
<g id="node6" class="node">
<title>Max_Squadron_Jump_Radius___150</title>
<path fill="#fff3cd" stroke="black" d="M418.25,-324C418.25,-324 235.75,-324 235.75,-324 229.75,-324 223.75,-318 223.75,-312 223.75,-312 223.75,-300 223.75,-300 223.75,-294 229.75,-288 235.75,-288 235.75,-288 418.25,-288 418.25,-288 424.25,-288 430.25,-294 430.25,-300 430.25,-300 430.25,-312 430.25,-312 430.25,-318 424.25,-324 418.25,-324"/>
<text xml:space="preserve" text-anchor="middle" x="327" y="-307.2" font-family="Helvetica,sans-Serif" font-size="9.00">Max Squadron Jump Radius &#45; 1500k (Cost x 2)</text>
<text xml:space="preserve" text-anchor="middle" x="327" y="-297.45" font-family="Helvetica,sans-Serif" font-size="9.00">60K RP</text>
</g>
<!-- Max_Squadron_Jump_Radius___100&#45;&gt;Max_Squadron_Jump_Radius___150 -->
<g id="edge7" class="edge">
<title>Max_Squadron_Jump_Radius___100&#45;&gt;Max_Squadron_Jump_Radius___150</title>
<path fill="none" stroke="black" d="M327,-359.7C327,-351.22 327,-340.86 327,-331.58"/>
<polygon fill="black" stroke="black" points="329.1,-331.62 327,-325.62 324.9,-331.62 329.1,-331.62"/>
</g>
<!-- Max_Squadron_Jump_Radius___500 -->
<g id="node4" class="node">
<title>Max_Squadron_Jump_Radius___500</title>
<path fill="#cce5ff" stroke="black" d="M425.38,-108C425.38,-108 240.62,-108 240.62,-108 234.62,-108 228.62,-102 228.62,-96 228.62,-96 228.62,-84 228.62,-84 228.62,-78 234.62,-72 240.62,-72 240.62,-72 425.38,-72 425.38,-72 431.38,-72 437.38,-78 437.38,-84 437.38,-84 437.38,-96 437.38,-96 437.38,-102 431.38,-108 425.38,-108"/>
<text xml:space="preserve" text-anchor="middle" x="333" y="-91.2" font-family="Helvetica,sans-Serif" font-size="9.00">Max Squadron Jump Radius &#45; 500k (Cost x 1.3)</text>
<text xml:space="preserve" text-anchor="middle" x="333" y="-81.45" font-family="Helvetica,sans-Serif" font-size="9.00">8K RP</text>
</g>
<!-- Max_Squadron_Jump_Radius___250&#45;&gt;Max_Squadron_Jump_Radius___500 -->
<g id="edge4" class="edge">
<title>Max_Squadron_Jump_Radius___250&#45;&gt;Max_Squadron_Jump_Radius___500</title>
<path fill="none" stroke="black" d="M276.54,-143.7C286.37,-134.53 298.55,-123.16 309.08,-113.33"/>
<polygon fill="black" stroke="black" points="310.35,-115.01 313.31,-109.38 307.49,-111.94 310.35,-115.01"/>
</g>
<!-- Max_Squadron_Jump_Radius___300 -->
<g id="node8" class="node">
<title>Max_Squadron_Jump_Radius___300</title>
<path fill="#d4c4fb" stroke="black" d="M198.25,-108C198.25,-108 15.75,-108 15.75,-108 9.75,-108 3.75,-102 3.75,-96 3.75,-96 3.75,-84 3.75,-84 3.75,-78 9.75,-72 15.75,-72 15.75,-72 198.25,-72 198.25,-72 204.25,-72 210.25,-78 210.25,-84 210.25,-84 210.25,-96 210.25,-96 210.25,-102 204.25,-108 198.25,-108"/>
<text xml:space="preserve" text-anchor="middle" x="107" y="-91.2" font-family="Helvetica,sans-Serif" font-size="9.00">Max Squadron Jump Radius &#45; 3000k (Cost x 3)</text>
<text xml:space="preserve" text-anchor="middle" x="107" y="-81.45" font-family="Helvetica,sans-Serif" font-size="9.00">500K RP</text>
</g>
<!-- Max_Squadron_Jump_Radius___250&#45;&gt;Max_Squadron_Jump_Radius___300 -->
<g id="edge10" class="edge">
<title>Max_Squadron_Jump_Radius___250&#45;&gt;Max_Squadron_Jump_Radius___300</title>
<path fill="none" stroke="black" d="M220.29,-143.52C199.31,-133.79 173.08,-121.64 151.15,-111.47"/>
<polygon fill="black" stroke="black" points="152.19,-109.64 145.87,-109.02 150.43,-113.45 152.19,-109.64"/>
</g>
<!-- Max_Squadron_Jump_Radius___750 -->
<g id="node5" class="node">
<title>Max_Squadron_Jump_Radius___750</title>
<path fill="#fff3cd" stroke="black" d="M492.38,-36C492.38,-36 307.62,-36 307.62,-36 301.62,-36 295.62,-30 295.62,-24 295.62,-24 295.62,-12 295.62,-12 295.62,-6 301.62,0 307.62,0 307.62,0 492.38,0 492.38,0 498.38,0 504.38,-6 504.38,-12 504.38,-12 504.38,-24 504.38,-24 504.38,-30 498.38,-36 492.38,-36"/>
<text xml:space="preserve" text-anchor="middle" x="400" y="-19.2" font-family="Helvetica,sans-Serif" font-size="9.00">Max Squadron Jump Radius &#45; 750k (Cost x 1.5)</text>
<text xml:space="preserve" text-anchor="middle" x="400" y="-9.45" font-family="Helvetica,sans-Serif" font-size="9.00">15K RP</text>
</g>
<!-- Max_Squadron_Jump_Radius___500&#45;&gt;Max_Squadron_Jump_Radius___750 -->
<g id="edge5" class="edge">
<title>Max_Squadron_Jump_Radius___500&#45;&gt;Max_Squadron_Jump_Radius___750</title>
<path fill="none" stroke="black" d="M349.56,-71.7C358.32,-62.54 369.19,-51.19 378.58,-41.38"/>
<polygon fill="black" stroke="black" points="379.95,-42.98 382.58,-37.2 376.92,-40.08 379.95,-42.98"/>
</g>
<!-- Max_Squadron_Jump_Radius___750&#45;&gt;Max_Squadron_Jump_Radius___100 -->
<g id="edge6" class="edge">
<title>Max_Squadron_Jump_Radius___750&#45;&gt;Max_Squadron_Jump_Radius___100</title>
<path fill="none" stroke="black" d="M419.16,-36.43C428.61,-46.04 439.37,-58.7 446,-72 464.05,-108.2 465,-120.55 465,-161 465,-235 465,-235 465,-235 465,-276.21 465.75,-292.66 439,-324 426.98,-338.08 410.38,-348.69 393.64,-356.56"/>
<polygon fill="black" stroke="black" points="392.97,-354.56 388.36,-358.93 394.69,-358.39 392.97,-354.56"/>
</g>
<!-- Max_Squadron_Jump_Radius___200 -->
<g id="node7" class="node">
<title>Max_Squadron_Jump_Radius___200</title>
<path fill="#d4c4fb" stroke="black" d="M424.62,-252C424.62,-252 229.38,-252 229.38,-252 223.38,-252 217.38,-246 217.38,-240 217.38,-240 217.38,-228 217.38,-228 217.38,-222 223.38,-216 229.38,-216 229.38,-216 424.62,-216 424.62,-216 430.62,-216 436.62,-222 436.62,-228 436.62,-228 436.62,-240 436.62,-240 436.62,-246 430.62,-252 424.62,-252"/>
<text xml:space="preserve" text-anchor="middle" x="327" y="-235.2" font-family="Helvetica,sans-Serif" font-size="9.00">Max Squadron Jump Radius &#45; 2000k (Cost x 2.25)</text>
<text xml:space="preserve" text-anchor="middle" x="327" y="-225.45" font-family="Helvetica,sans-Serif" font-size="9.00">125K RP</text>
</g>
<!-- Max_Squadron_Jump_Radius___150&#45;&gt;Max_Squadron_Jump_Radius___200 -->
<g id="edge8" class="edge">
<title>Max_Squadron_Jump_Radius___150&#45;&gt;Max_Squadron_Jump_Radius___200</title>
<path fill="none" stroke="black" d="M327,-287.7C327,-279.22 327,-268.86 327,-259.58"/>
<polygon fill="black" stroke="black" points="329.1,-259.62 327,-253.62 324.9,-259.62 329.1,-259.62"/>
</g>
<!-- Max_Squadron_Jump_Radius___200&#45;&gt;Max_Squadron_Jump_Radius___250 -->
<g id="edge9" class="edge">
<title>Max_Squadron_Jump_Radius___200&#45;&gt;Max_Squadron_Jump_Radius___250</title>
<path fill="none" stroke="black" d="M309.94,-215.7C300.92,-206.54 289.73,-195.19 280.06,-185.38"/>
<polygon fill="black" stroke="black" points="281.63,-183.98 275.92,-181.18 278.64,-186.93 281.63,-183.98"/>
</g>
<!-- Max_Squadron_Jump_Radius___400 -->
<g id="node9" class="node">
<title>Max_Squadron_Jump_Radius___400</title>
<path fill="#d4c4fb" stroke="black" d="M202,-36C202,-36 12,-36 12,-36 6,-36 0,-30 0,-24 0,-24 0,-12 0,-12 0,-6 6,0 12,0 12,0 202,0 202,0 208,0 214,-6 214,-12 214,-12 214,-24 214,-24 214,-30 208,-36 202,-36"/>
<text xml:space="preserve" text-anchor="middle" x="107" y="-19.2" font-family="Helvetica,sans-Serif" font-size="9.00">Max Squadron Jump Radius &#45; 4000k (Cost x 3.6)</text>
<text xml:space="preserve" text-anchor="middle" x="107" y="-9.45" font-family="Helvetica,sans-Serif" font-size="9.00">1.0M RP</text>
</g>
<!-- Max_Squadron_Jump_Radius___300&#45;&gt;Max_Squadron_Jump_Radius___400 -->
<g id="edge11" class="edge">
<title>Max_Squadron_Jump_Radius___300&#45;&gt;Max_Squadron_Jump_Radius___400</title>
<path fill="none" stroke="black" d="M107,-71.7C107,-63.22 107,-52.86 107,-43.58"/>
<polygon fill="black" stroke="black" points="109.1,-43.62 107,-37.62 104.9,-43.62 109.1,-43.62"/>
</g>
<!-- ext_Jump_Point_Theory -->
<g id="node10" class="node">
<title>ext_Jump_Point_Theory</title>
<path fill="#f0f0f0" stroke="black" stroke-dasharray="5,2" d="M361.25,-540C361.25,-540 292.75,-540 292.75,-540 286.75,-540 280.75,-534 280.75,-528 280.75,-528 280.75,-516 280.75,-516 280.75,-510 286.75,-504 292.75,-504 292.75,-504 361.25,-504 361.25,-504 367.25,-504 373.25,-510 373.25,-516 373.25,-516 373.25,-528 373.25,-528 373.25,-534 367.25,-540 361.25,-540"/>
<text xml:space="preserve" text-anchor="middle" x="327" y="-518.33" font-family="Helvetica,sans-Serif" font-size="9.00">Jump Point Theory</text>
</g>
<!-- ext_Jump_Point_Theory&#45;&gt;Max_Squadron_Jump_Radius___50k -->
<g id="edge1" class="edge">
<title>ext_Jump_Point_Theory&#45;&gt;Max_Squadron_Jump_Radius___50k</title>
<path fill="none" stroke="black" d="M327,-503.7C327,-495.22 327,-484.86 327,-475.58"/>
<polygon fill="black" stroke="black" points="329.1,-475.62 327,-469.62 324.9,-475.62 329.1,-475.62"/>
</g>
</g>
</svg>
