<?xml version="1.0" encoding="UTF-8" standalone="no"?>
<!DOCTYPE svg PUBLIC "-//W3C//DTD SVG 1.1//EN"
 "http://www.w3.org/Graphics/SVG/1.1/DTD/svg11.dtd">
<!-- Generated by graphviz version 14.1.2 (20260124.0452)
 -->
<!-- Title: TechTree Pages: 1 -->
<svg width="292pt" height="67pt"
 viewBox="0.00 0.00 292.00 67.00" xmlns="http://www.w3.org/2000/svg" xmlns:xlink="http://www.w3.org/1999/xlink">
<g id="graph0" class="graph" transform="scale(1 1) rotate(0) translate(4 63)">
<title>TechTree</title>
<polygon fill="white" stroke="none" points="-4,4 -4,-63 287.5,-63 287.5,4 -4,4"/>
<text xml:space="preserve" text-anchor="middle" x="141.75" y="-41.7" font-family="Helvetica,sans-Serif" font-weight="bold" font-size="14.00">Max Engine Thrust Modifier</text>
<!-- Maximum_Engine_Power_Modifier_ -->
<g id="node1" class="node">
<title>Maximum_Engine_Power_Modifier_</title>
<path fill="#fff3cd" stroke="black" d="M161.5,-36C161.5,-36 12,-36 12,-36 6,-36 0,-30 0,-24 0,-24 0,-12 0,-12 0,-6 6,0 12,0 12,0 161.5,0 161.5,0 167.5,0 173.5,-6 173.5,-12 173.5,-12 173.5,-24 173.5,-24 173.5,-30 167.5,-36 161.5,-36"/>
<text xml:space="preserve" text-anchor="middle" x="86.75" y="-19.75" font-family="Helvetica,sans-Serif" font-size="10.00">Maximum Engine Power Modifier x3</text>
<text xml:space="preserve" text-anchor="middle" x="86.75" y="-8.5" font-family="Helvetica,sans-Serif" font-size="10.00">15K RP</text>
</g>
<!-- Maximum_Engine_Power_Modifier_&#45;&gt;Maximum_Engine_Power_Modifier_ -->
<g id="edge1" class="edge">
<title>Maximum_Engine_Power_Modifier_&#45;&gt;Maximum_Engine_Power_Modifier_</title>
<path fill="none" stroke="black" d="M173.78,-19.36C186.74,-19.15 195.5,-18.7 195.5,-18 195.5,-17.47 190.36,-17.08 182.14,-16.83"/>
<polygon fill="black" stroke="black" points="182.35,-14.38 175.29,-16.67 182.24,-19.28 182.35,-14.38"/>
</g>
<!-- Maximum_Engine_Power_Modifier_&#45;&gt;Maximum_Engine_Power_Modifier_ -->
<g id="edge2" class="edge">
<title>Maximum_Engine_Power_Modifier_&#45;&gt;Maximum_Engine_Power_Modifier_</title>
<path fill="none" stroke="black" d="M173.82,-20.99C198.51,-20.86 217.5,-19.87 217.5,-18 217.5,-16.35 202.7,-15.38 182.24,-15.09"/>
<polygon fill="black" stroke="black" points="182.35,-12.64 175.33,-15.03 182.31,-17.54 182.35,-12.64"/>
</g>
<!-- Maximum_Engine_Power_Modifier_&#45;&gt;Maximum_Engine_Power_Modifier_ -->
<g id="edge3" class="edge">
<title>Maximum_Engine_Power_Modifier_&#45;&gt;Maximum_Engine_Power_Modifier_</title>
<path fill="none" stroke="black" d="M173.89,-22.47C209.48,-22.75 239.5,-21.26 239.5,-18 239.5,-15 213.99,-13.5 182.11,-13.5"/>
<polygon fill="black" stroke="black" points="182.39,-11.05 175.4,-13.53 182.41,-15.95 182.39,-11.05"/>
</g>
<!-- Maximum_Engine_Power_Modifier_&#45;&gt;Maximum_Engine_Power_Modifier_ -->
<g id="edge4" class="edge">
<title>Maximum_Engine_Power_Modifier_&#45;&gt;Maximum_Engine_Power_Modifier_</title>
<path fill="none" stroke="black" d="M173.97,-23.77C219.89,-24.7 261.5,-22.78 261.5,-18 261.5,-13.51 224.77,-11.54 182.25,-12.09"/>
<polygon fill="black" stroke="black" points="182.44,-9.64 175.48,-12.2 182.52,-14.54 182.44,-9.64"/>
</g>
<!-- Maximum_Engine_Power_Modifier_&#45;&gt;Maximum_Engine_Power_Modifier_ -->
<g id="edge5" class="edge">
<title>Maximum_Engine_Power_Modifier_&#45;&gt;Maximum_Engine_Power_Modifier_</title>
<path fill="none" stroke="black" d="M173.99,-24.91C229.83,-26.7 283.5,-24.4 283.5,-18 283.5,-11.93 235.15,-9.54 182.47,-10.84"/>
<polygon fill="black" stroke="black" points="182.43,-8.39 175.5,-11.04 182.57,-13.29 182.43,-8.39"/>
</g>
</g>
</svg>
