<?xml version="1.0" encoding="UTF-8" standalone="no"?>
<!DOCTYPE svg PUBLIC "-//W3C//DTD SVG 1.1//EN"
 "http://www.w3.org/Graphics/SVG/1.1/DTD/svg11.dtd">
<!-- Generated by graphviz version 14.1.2 (20260124.0452)
 -->
<!-- Title: TechTree Pages: 1 -->
<svg width="454pt" height="137pt"
 viewBox="0.00 0.00 454.00 137.00" xmlns="http://www.w3.org/2000/svg" xmlns:xlink="http://www.w3.org/1999/xlink">
<g id="graph0" class="graph" transform="scale(1 1) rotate(0) translate(4 132.75)">
<title>TechTree</title>
<polygon fill="white" stroke="none" points="-4,4 -4,-132.75 449.75,-132.75 449.75,4 -4,4"/>
<text xml:space="preserve" text-anchor="middle" x="222.88" y="-113.35" font-family="Helvetica,sans-Serif" font-weight="bold" font-size="12.00">Max Tracking Time Bonus</text>
<!-- Max_Tracking_Time_for_Bonus_vs -->
<g id="node1" class="node">
<title>Max_Tracking_Time_for_Bonus_vs</title>
<path fill="#d4c4fb" stroke="black" d="M253.75,-36C253.75,-36 12,-36 12,-36 6,-36 0,-30 0,-24 0,-24 0,-12 0,-12 0,-6 6,0 12,0 12,0 253.75,0 253.75,0 259.75,0 265.75,-6 265.75,-12 265.75,-12 265.75,-24 265.75,-24 265.75,-30 259.75,-36 253.75,-36"/>
<text xml:space="preserve" text-anchor="middle" x="132.88" y="-19.2" font-family="Helvetica,sans-Serif" font-size="9.00">Max Tracking Time for Bonus vs Missiles: 400 Seconds (80%)</text>
<text xml:space="preserve" text-anchor="middle" x="132.88" y="-9.45" font-family="Helvetica,sans-Serif" font-size="9.00">480K RP</text>
</g>
<!-- Max_Tracking_Time_for_Bonus_vs&#45;&gt;Max_Tracking_Time_for_Bonus_vs -->
<g id="edge2" class="edge">
<title>Max_Tracking_Time_for_Bonus_vs&#45;&gt;Max_Tracking_Time_for_Bonus_vs</title>
<path fill="none" stroke="black" d="M265.79,-19.16C276.86,-18.91 283.75,-18.52 283.75,-18 283.75,-17.61 279.87,-17.29 273.26,-17.05"/>
<polygon fill="black" stroke="black" points="273.36,-14.96 267.3,-16.88 273.24,-19.15 273.36,-14.96"/>
</g>
<!-- Max_Tracking_Time_for_Bonus_vs&#45;&gt;Max_Tracking_Time_for_Bonus_vs -->
<g id="edge3" class="edge">
<title>Max_Tracking_Time_for_Bonus_vs&#45;&gt;Max_Tracking_Time_for_Bonus_vs</title>
<path fill="none" stroke="black" d="M265.97,-20.76C287.21,-20.36 301.75,-19.44 301.75,-18 301.75,-16.73 290.42,-15.86 273.15,-15.4"/>
<polygon fill="black" stroke="black" points="273.53,-13.31 267.48,-15.27 273.43,-17.51 273.53,-13.31"/>
</g>
<!-- Max_Tracking_Time_for_Bonus_vs&#45;&gt;Max_Tracking_Time_for_Bonus_vs -->
<g id="edge4" class="edge">
<title>Max_Tracking_Time_for_Bonus_vs&#45;&gt;Max_Tracking_Time_for_Bonus_vs</title>
<path fill="none" stroke="black" d="M265.99,-22.41C296.96,-22.04 319.75,-20.57 319.75,-18 319.75,-15.64 300.54,-14.21 273.44,-13.71"/>
<polygon fill="black" stroke="black" points="273.54,-11.61 267.51,-13.62 273.47,-15.81 273.54,-11.61"/>
</g>
<!-- Max_Tracking_Time_for_Bonus_vs&#45;&gt;Max_Tracking_Time_for_Bonus_vs -->
<g id="edge5" class="edge">
<title>Max_Tracking_Time_for_Bonus_vs&#45;&gt;Max_Tracking_Time_for_Bonus_vs</title>
<path fill="none" stroke="black" d="M265.88,-23.99C306.22,-23.84 337.75,-21.84 337.75,-18 337.75,-14.4 310.04,-12.42 273.34,-12.06"/>
<polygon fill="black" stroke="black" points="273.41,-9.96 267.4,-12.02 273.38,-14.16 273.41,-9.96"/>
</g>
<!-- Max_Tracking_Time_for_Bonus_vs&#45;&gt;Max_Tracking_Time_for_Bonus_vs -->
<g id="edge6" class="edge">
<title>Max_Tracking_Time_for_Bonus_vs&#45;&gt;Max_Tracking_Time_for_Bonus_vs</title>
<path fill="none" stroke="black" d="M266.14,-25.49C315.34,-25.71 355.75,-23.21 355.75,-18 355.75,-13.05 319.34,-10.55 273.56,-10.5"/>
<polygon fill="black" stroke="black" points="273.65,-8.4 267.65,-10.51 273.65,-12.6 273.65,-8.4"/>
</g>
<!-- Max_Tracking_Time_for_Bonus_vs&#45;&gt;Max_Tracking_Time_for_Bonus_vs -->
<g id="edge7" class="edge">
<title>Max_Tracking_Time_for_Bonus_vs&#45;&gt;Max_Tracking_Time_for_Bonus_vs</title>
<path fill="none" stroke="black" d="M266.03,-26.88C323.99,-27.64 373.75,-24.68 373.75,-18 373.75,-11.61 328.18,-8.62 273.45,-9.04"/>
<polygon fill="black" stroke="black" points="273.52,-6.94 267.54,-9.1 273.56,-11.14 273.52,-6.94"/>
</g>
<!-- Max_Tracking_Time_for_Bonus_vs&#45;&gt;Max_Tracking_Time_for_Bonus_vs -->
<g id="edge8" class="edge">
<title>Max_Tracking_Time_for_Bonus_vs&#45;&gt;Max_Tracking_Time_for_Bonus_vs</title>
<path fill="none" stroke="black" d="M266.07,-28.19C332.5,-29.6 391.75,-26.2 391.75,-18 391.75,-10.1 336.81,-6.66 273.43,-7.67"/>
<polygon fill="black" stroke="black" points="273.54,-5.57 267.58,-7.78 273.62,-9.77 273.54,-5.57"/>
</g>
<!-- Max_Tracking_Time_for_Bonus_vs&#45;&gt;Max_Tracking_Time_for_Bonus_vs -->
<g id="edge9" class="edge">
<title>Max_Tracking_Time_for_Bonus_vs&#45;&gt;Max_Tracking_Time_for_Bonus_vs</title>
<path fill="none" stroke="black" d="M266.06,-29.41C340.77,-31.58 409.75,-27.78 409.75,-18 409.75,-8.54 345.27,-4.68 273.48,-6.4"/>
<polygon fill="black" stroke="black" points="273.51,-4.3 267.57,-6.55 273.62,-8.49 273.51,-4.3"/>
</g>
<!-- Max_Tracking_Time_for_Bonus_vs&#45;&gt;Max_Tracking_Time_for_Bonus_vs -->
<g id="edge10" class="edge">
<title>Max_Tracking_Time_for_Bonus_vs&#45;&gt;Max_Tracking_Time_for_Bonus_vs</title>
<path fill="none" stroke="black" d="M265.93,-30.53C348.78,-33.59 427.75,-29.41 427.75,-18 427.75,-6.93 353.34,-2.66 273.2,-5.22"/>
<polygon fill="black" stroke="black" points="273.36,-3.11 267.44,-5.41 273.51,-7.31 273.36,-3.11"/>
</g>
<!-- Max_Tracking_Time_for_Bonus_vs&#45;&gt;Max_Tracking_Time_for_Bonus_vs -->
<g id="edge11" class="edge">
<title>Max_Tracking_Time_for_Bonus_vs&#45;&gt;Max_Tracking_Time_for_Bonus_vs</title>
<path fill="none" stroke="black" d="M265.91,-31.59C356.72,-35.6 445.75,-31.07 445.75,-18 445.75,-5.29 361.52,-0.66 273.35,-4.1"/>
<polygon fill="black" stroke="black" points="273.33,-2 267.42,-4.35 273.5,-6.2 273.33,-2"/>
</g>
<!-- ext_Trans_Newtonian_Technology -->
<g id="node2" class="node">
<title>ext_Trans_Newtonian_Technology</title>
<path fill="#f0f0f0" stroke="black" stroke-dasharray="5,2" d="M188.88,-108C188.88,-108 76.88,-108 76.88,-108 70.88,-108 64.88,-102 64.88,-96 64.88,-96 64.88,-84 64.88,-84 64.88,-78 70.88,-72 76.88,-72 76.88,-72 188.88,-72 188.88,-72 194.88,-72 200.88,-78 200.88,-84 200.88,-84 200.88,-96 200.88,-96 200.88,-102 194.88,-108 188.88,-108"/>
<text xml:space="preserve" text-anchor="middle" x="132.88" y="-86.33" font-family="Helvetica,sans-Serif" font-size="9.00">Trans&#45;Newtonian Technology</text>
</g>
<!-- ext_Trans_Newtonian_Technology&#45;&gt;Max_Tracking_Time_for_Bonus_vs -->
<g id="edge1" class="edge">
<title>ext_Trans_Newtonian_Technology&#45;&gt;Max_Tracking_Time_for_Bonus_vs</title>
<path fill="none" stroke="black" d="M132.88,-71.7C132.88,-63.22 132.88,-52.86 132.88,-43.58"/>
<polygon fill="black" stroke="black" points="134.98,-43.62 132.88,-37.62 130.78,-43.62 134.98,-43.62"/>
</g>
</g>
</svg>
