<?xml version="1.0" encoding="UTF-8" standalone="no"?>
<!DOCTYPE svg PUBLIC "-//W3C//DTD SVG 1.1//EN"
 "http://www.w3.org/Graphics/SVG/1.1/DTD/svg11.dtd">
<!-- Generated by graphviz version 14.1.2 (20260124.0452)
 -->
<!-- Title: TechTree Pages: 1 -->
<svg width="555pt" height="457pt"
 viewBox="0.00 0.00 555.00 457.00" xmlns="http://www.w3.org/2000/svg" xmlns:xlink="http://www.w3.org/1999/xlink">
<g id="graph0" class="graph" transform="scale(1 1) rotate(0) translate(4 453)">
<title>TechTree</title>
<polygon fill="white" stroke="none" points="-4,4 -4,-453 551.12,-453 551.12,4 -4,4"/>
<text xml:space="preserve" text-anchor="middle" x="273.56" y="-431.7" font-family="Helvetica,sans-Serif" font-weight="bold" font-size="14.00">Max Squadron Jump Radius</text>
<!-- Max_Squadron_Jump_Radius___50k -->
<g id="node1" class="node">
<title>Max_Squadron_Jump_Radius___50k</title>
<path fill="#cce5ff" stroke="black" d="M451.5,-426C451.5,-426 256.25,-426 256.25,-426 250.25,-426 244.25,-420 244.25,-414 244.25,-414 244.25,-402 244.25,-402 244.25,-396 250.25,-390 256.25,-390 256.25,-390 451.5,-390 451.5,-390 457.5,-390 463.5,-396 463.5,-402 463.5,-402 463.5,-414 463.5,-414 463.5,-420 457.5,-426 451.5,-426"/>
<text xml:space="preserve" text-anchor="middle" x="353.88" y="-409.75" font-family="Helvetica,sans-Serif" font-size="10.00">Max Squadron Jump Radius &#45; 50k (Cost x 1.0)</text>
<text xml:space="preserve" text-anchor="middle" x="353.88" y="-398.5" font-family="Helvetica,sans-Serif" font-size="10.00">1K RP</text>
</g>
<!-- Max_Squadron_Jump_Radius___100 -->
<g id="node2" class="node">
<title>Max_Squadron_Jump_Radius___100</title>
<path fill="#fff3cd" stroke="black" d="M459.38,-361C459.38,-361 248.38,-361 248.38,-361 242.38,-361 236.38,-355 236.38,-349 236.38,-349 236.38,-337 236.38,-337 236.38,-331 242.38,-325 248.38,-325 248.38,-325 459.38,-325 459.38,-325 465.38,-325 471.38,-331 471.38,-337 471.38,-337 471.38,-349 471.38,-349 471.38,-355 465.38,-361 459.38,-361"/>
<text xml:space="preserve" text-anchor="middle" x="353.88" y="-344.75" font-family="Helvetica,sans-Serif" font-size="10.00">Max Squadron Jump Radius &#45; 1000k (Cost x 1.75)</text>
<text xml:space="preserve" text-anchor="middle" x="353.88" y="-333.5" font-family="Helvetica,sans-Serif" font-size="10.00">30K RP</text>
</g>
<!-- Max_Squadron_Jump_Radius___50k&#45;&gt;Max_Squadron_Jump_Radius___100 -->
<g id="edge1" class="edge">
<title>Max_Squadron_Jump_Radius___50k&#45;&gt;Max_Squadron_Jump_Radius___100</title>
<path fill="none" stroke="black" d="M353.88,-389.78C353.88,-383.53 353.88,-376.33 353.88,-369.52"/>
<polygon fill="black" stroke="black" points="356.33,-369.71 353.88,-362.71 351.43,-369.71 356.33,-369.71"/>
</g>
<!-- Max_Squadron_Jump_Radius___250 -->
<g id="node3" class="node">
<title>Max_Squadron_Jump_Radius___250</title>
<path fill="#d4c4fb" stroke="black" d="M380.75,-166C380.75,-166 175,-166 175,-166 169,-166 163,-160 163,-154 163,-154 163,-142 163,-142 163,-136 169,-130 175,-130 175,-130 380.75,-130 380.75,-130 386.75,-130 392.75,-136 392.75,-142 392.75,-142 392.75,-154 392.75,-154 392.75,-160 386.75,-166 380.75,-166"/>
<text xml:space="preserve" text-anchor="middle" x="277.88" y="-149.75" font-family="Helvetica,sans-Serif" font-size="10.00">Max Squadron Jump Radius &#45; 2500k (Cost x 2.5)</text>
<text xml:space="preserve" text-anchor="middle" x="277.88" y="-138.5" font-family="Helvetica,sans-Serif" font-size="10.00">250K RP</text>
</g>
<!-- Max_Squadron_Jump_Radius___100&#45;&gt;Max_Squadron_Jump_Radius___250 -->
<g id="edge2" class="edge">
<title>Max_Squadron_Jump_Radius___100&#45;&gt;Max_Squadron_Jump_Radius___250</title>
<path fill="none" stroke="black" d="M269.77,-324.54C255.14,-317.88 241.55,-308.69 231.88,-296 204.62,-260.23 207.4,-236 225.88,-195 229.9,-186.07 236.6,-178.18 243.89,-171.56"/>
<polygon fill="black" stroke="black" points="245.18,-173.68 248.94,-167.28 242.01,-169.94 245.18,-173.68"/>
</g>
<!-- Max_Squadron_Jump_Radius___150 -->
<g id="node6" class="node">
<title>Max_Squadron_Jump_Radius___150</title>
<path fill="#fff3cd" stroke="black" d="M452.62,-296C452.62,-296 255.12,-296 255.12,-296 249.12,-296 243.12,-290 243.12,-284 243.12,-284 243.12,-272 243.12,-272 243.12,-266 249.12,-260 255.12,-260 255.12,-260 452.62,-260 452.62,-260 458.62,-260 464.62,-266 464.62,-272 464.62,-272 464.62,-284 464.62,-284 464.62,-290 458.62,-296 452.62,-296"/>
<text xml:space="preserve" text-anchor="middle" x="353.88" y="-279.75" font-family="Helvetica,sans-Serif" font-size="10.00">Max Squadron Jump Radius &#45; 1500k (Cost x 2)</text>
<text xml:space="preserve" text-anchor="middle" x="353.88" y="-268.5" font-family="Helvetica,sans-Serif" font-size="10.00">60K RP</text>
</g>
<!-- Max_Squadron_Jump_Radius___100&#45;&gt;Max_Squadron_Jump_Radius___150 -->
<g id="edge6" class="edge">
<title>Max_Squadron_Jump_Radius___100&#45;&gt;Max_Squadron_Jump_Radius___150</title>
<path fill="none" stroke="black" d="M353.88,-324.78C353.88,-318.53 353.88,-311.33 353.88,-304.52"/>
<polygon fill="black" stroke="black" points="356.33,-304.71 353.88,-297.71 351.43,-304.71 356.33,-304.71"/>
</g>
<!-- Max_Squadron_Jump_Radius___500 -->
<g id="node4" class="node">
<title>Max_Squadron_Jump_Radius___500</title>
<path fill="#cce5ff" stroke="black" d="M460.12,-101C460.12,-101 259.62,-101 259.62,-101 253.62,-101 247.62,-95 247.62,-89 247.62,-89 247.62,-77 247.62,-77 247.62,-71 253.62,-65 259.62,-65 259.62,-65 460.12,-65 460.12,-65 466.12,-65 472.12,-71 472.12,-77 472.12,-77 472.12,-89 472.12,-89 472.12,-95 466.12,-101 460.12,-101"/>
<text xml:space="preserve" text-anchor="middle" x="359.88" y="-84.75" font-family="Helvetica,sans-Serif" font-size="10.00">Max Squadron Jump Radius &#45; 500k (Cost x 1.3)</text>
<text xml:space="preserve" text-anchor="middle" x="359.88" y="-73.5" font-family="Helvetica,sans-Serif" font-size="10.00">8K RP</text>
</g>
<!-- Max_Squadron_Jump_Radius___250&#45;&gt;Max_Squadron_Jump_Radius___500 -->
<g id="edge3" class="edge">
<title>Max_Squadron_Jump_Radius___250&#45;&gt;Max_Squadron_Jump_Radius___500</title>
<path fill="none" stroke="black" d="M300.28,-129.78C309.61,-122.62 320.56,-114.21 330.51,-106.56"/>
<polygon fill="black" stroke="black" points="331.95,-108.54 336.01,-102.34 328.97,-104.66 331.95,-108.54"/>
</g>
<!-- Max_Squadron_Jump_Radius___300 -->
<g id="node8" class="node">
<title>Max_Squadron_Jump_Radius___300</title>
<path fill="#d4c4fb" stroke="black" d="M213.62,-101C213.62,-101 16.12,-101 16.12,-101 10.13,-101 4.12,-95 4.12,-89 4.12,-89 4.12,-77 4.12,-77 4.12,-71 10.12,-65 16.12,-65 16.12,-65 213.62,-65 213.62,-65 219.62,-65 225.62,-71 225.62,-77 225.62,-77 225.62,-89 225.62,-89 225.62,-95 219.62,-101 213.62,-101"/>
<text xml:space="preserve" text-anchor="middle" x="114.88" y="-84.75" font-family="Helvetica,sans-Serif" font-size="10.00">Max Squadron Jump Radius &#45; 3000k (Cost x 3)</text>
<text xml:space="preserve" text-anchor="middle" x="114.88" y="-73.5" font-family="Helvetica,sans-Serif" font-size="10.00">500K RP</text>
</g>
<!-- Max_Squadron_Jump_Radius___250&#45;&gt;Max_Squadron_Jump_Radius___300 -->
<g id="edge9" class="edge">
<title>Max_Squadron_Jump_Radius___250&#45;&gt;Max_Squadron_Jump_Radius___300</title>
<path fill="none" stroke="black" d="M232.9,-129.62C212.77,-121.84 188.88,-112.6 167.88,-104.49"/>
<polygon fill="black" stroke="black" points="168.81,-102.22 161.39,-101.98 167.04,-106.79 168.81,-102.22"/>
</g>
<!-- Max_Squadron_Jump_Radius___750 -->
<g id="node5" class="node">
<title>Max_Squadron_Jump_Radius___750</title>
<path fill="#fff3cd" stroke="black" d="M535.12,-36C535.12,-36 334.62,-36 334.62,-36 328.62,-36 322.62,-30 322.62,-24 322.62,-24 322.62,-12 322.62,-12 322.62,-6 328.62,0 334.62,0 334.62,0 535.12,0 535.12,0 541.12,0 547.12,-6 547.12,-12 547.12,-12 547.12,-24 547.12,-24 547.12,-30 541.12,-36 535.12,-36"/>
<text xml:space="preserve" text-anchor="middle" x="434.88" y="-19.75" font-family="Helvetica,sans-Serif" font-size="10.00">Max Squadron Jump Radius &#45; 750k (Cost x 1.5)</text>
<text xml:space="preserve" text-anchor="middle" x="434.88" y="-8.5" font-family="Helvetica,sans-Serif" font-size="10.00">15K RP</text>
</g>
<!-- Max_Squadron_Jump_Radius___500&#45;&gt;Max_Squadron_Jump_Radius___750 -->
<g id="edge4" class="edge">
<title>Max_Squadron_Jump_Radius___500&#45;&gt;Max_Squadron_Jump_Radius___750</title>
<path fill="none" stroke="black" d="M380.37,-64.78C388.81,-57.69 398.72,-49.37 407.75,-41.78"/>
<polygon fill="black" stroke="black" points="409.2,-43.76 412.99,-37.39 406.05,-40.01 409.2,-43.76"/>
</g>
<!-- Max_Squadron_Jump_Radius___750&#45;&gt;Max_Squadron_Jump_Radius___100 -->
<g id="edge5" class="edge">
<title>Max_Squadron_Jump_Radius___750&#45;&gt;Max_Squadron_Jump_Radius___100</title>
<path fill="none" stroke="black" d="M457.53,-36.19C466.57,-44.09 476.35,-54.11 482.88,-65 502.34,-97.46 505.88,-109.15 505.88,-147 505.88,-214 505.88,-214 505.88,-214 505.88,-252.81 503.18,-268.42 475.88,-296 465.33,-306.65 452.07,-314.87 438.21,-321.21"/>
<polygon fill="black" stroke="black" points="437.32,-318.92 431.85,-323.94 439.25,-323.43 437.32,-318.92"/>
</g>
<!-- Max_Squadron_Jump_Radius___200 -->
<g id="node7" class="node">
<title>Max_Squadron_Jump_Radius___200</title>
<path fill="#d4c4fb" stroke="black" d="M459.38,-231C459.38,-231 248.38,-231 248.38,-231 242.38,-231 236.38,-225 236.38,-219 236.38,-219 236.38,-207 236.38,-207 236.38,-201 242.38,-195 248.38,-195 248.38,-195 459.38,-195 459.38,-195 465.38,-195 471.38,-201 471.38,-207 471.38,-207 471.38,-219 471.38,-219 471.38,-225 465.38,-231 459.38,-231"/>
<text xml:space="preserve" text-anchor="middle" x="353.88" y="-214.75" font-family="Helvetica,sans-Serif" font-size="10.00">Max Squadron Jump Radius &#45; 2000k (Cost x 2.25)</text>
<text xml:space="preserve" text-anchor="middle" x="353.88" y="-203.5" font-family="Helvetica,sans-Serif" font-size="10.00">125K RP</text>
</g>
<!-- Max_Squadron_Jump_Radius___150&#45;&gt;Max_Squadron_Jump_Radius___200 -->
<g id="edge7" class="edge">
<title>Max_Squadron_Jump_Radius___150&#45;&gt;Max_Squadron_Jump_Radius___200</title>
<path fill="none" stroke="black" d="M353.88,-259.78C353.88,-253.53 353.88,-246.33 353.88,-239.52"/>
<polygon fill="black" stroke="black" points="356.33,-239.71 353.88,-232.71 351.43,-239.71 356.33,-239.71"/>
</g>
<!-- Max_Squadron_Jump_Radius___200&#45;&gt;Max_Squadron_Jump_Radius___250 -->
<g id="edge8" class="edge">
<title>Max_Squadron_Jump_Radius___200&#45;&gt;Max_Squadron_Jump_Radius___250</title>
<path fill="none" stroke="black" d="M333.11,-194.78C324.55,-187.69 314.51,-179.37 305.36,-171.78"/>
<polygon fill="black" stroke="black" points="307,-169.96 300.05,-167.38 303.87,-173.73 307,-169.96"/>
</g>
<!-- Max_Squadron_Jump_Radius___400 -->
<g id="node9" class="node">
<title>Max_Squadron_Jump_Radius___400</title>
<path fill="#d4c4fb" stroke="black" d="M217.75,-36C217.75,-36 12,-36 12,-36 6,-36 0,-30 0,-24 0,-24 0,-12 0,-12 0,-6 6,0 12,0 12,0 217.75,0 217.75,0 223.75,0 229.75,-6 229.75,-12 229.75,-12 229.75,-24 229.75,-24 229.75,-30 223.75,-36 217.75,-36"/>
<text xml:space="preserve" text-anchor="middle" x="114.88" y="-19.75" font-family="Helvetica,sans-Serif" font-size="10.00">Max Squadron Jump Radius &#45; 4000k (Cost x 3.6)</text>
<text xml:space="preserve" text-anchor="middle" x="114.88" y="-8.5" font-family="Helvetica,sans-Serif" font-size="10.00">1.0M RP</text>
</g>
<!-- Max_Squadron_Jump_Radius___300&#45;&gt;Max_Squadron_Jump_Radius___400 -->
<g id="edge10" class="edge">
<title>Max_Squadron_Jump_Radius___300&#45;&gt;Max_Squadron_Jump_Radius___400</title>
<path fill="none" stroke="black" d="M114.88,-64.78C114.88,-58.53 114.88,-51.33 114.88,-44.52"/>
<polygon fill="black" stroke="black" points="117.33,-44.71 114.88,-37.71 112.43,-44.71 117.33,-44.71"/>
</g>
</g>
</svg>
