<?xml version="1.0" encoding="UTF-8" standalone="no"?>
<!DOCTYPE svg PUBLIC "-//W3C//DTD SVG 1.1//EN"
 "http://www.w3.org/Graphics/SVG/1.1/DTD/svg11.dtd">
<!-- Generated by graphviz version 14.1.2 (20260124.0452)
 -->
<!-- Title: TechTree Pages: 1 -->
<svg width="201pt" height="785pt"
 viewBox="0.00 0.00 201.00 785.00" xmlns="http://www.w3.org/2000/svg" xmlns:xlink="http://www.w3.org/1999/xlink">
<g id="graph0" class="graph" transform="scale(1 1) rotate(0) translate(4 780.75)">
<title>TechTree</title>
<polygon fill="white" stroke="none" points="-4,4 -4,-780.75 197,-780.75 197,4 -4,4"/>
<text xml:space="preserve" text-anchor="middle" x="96.5" y="-761.35" font-family="Helvetica,sans-Serif" font-weight="bold" font-size="12.00">Max Jump Squadron Size</text>
<!-- Max_Jump_Squadron_Size___3__Co -->
<g id="node1" class="node">
<title>Max_Jump_Squadron_Size___3__Co</title>
<path fill="#cce5ff" stroke="black" d="M175.75,-684C175.75,-684 17.25,-684 17.25,-684 11.25,-684 5.25,-678 5.25,-672 5.25,-672 5.25,-660 5.25,-660 5.25,-654 11.25,-648 17.25,-648 17.25,-648 175.75,-648 175.75,-648 181.75,-648 187.75,-654 187.75,-660 187.75,-660 187.75,-672 187.75,-672 187.75,-678 181.75,-684 175.75,-684"/>
<text xml:space="preserve" text-anchor="middle" x="96.5" y="-667.2" font-family="Helvetica,sans-Serif" font-size="9.00">Max Jump Squadron Size &#45; 3 (Cost x 1.0)</text>
<text xml:space="preserve" text-anchor="middle" x="96.5" y="-657.45" font-family="Helvetica,sans-Serif" font-size="9.00">1K RP</text>
</g>
<!-- Max_Jump_Squadron_Size___4__Co -->
<g id="node2" class="node">
<title>Max_Jump_Squadron_Size___4__Co</title>
<path fill="#cce5ff" stroke="black" d="M175.75,-612C175.75,-612 17.25,-612 17.25,-612 11.25,-612 5.25,-606 5.25,-600 5.25,-600 5.25,-588 5.25,-588 5.25,-582 11.25,-576 17.25,-576 17.25,-576 175.75,-576 175.75,-576 181.75,-576 187.75,-582 187.75,-588 187.75,-588 187.75,-600 187.75,-600 187.75,-606 181.75,-612 175.75,-612"/>
<text xml:space="preserve" text-anchor="middle" x="96.5" y="-595.2" font-family="Helvetica,sans-Serif" font-size="9.00">Max Jump Squadron Size &#45; 4 (Cost x 1.1)</text>
<text xml:space="preserve" text-anchor="middle" x="96.5" y="-585.45" font-family="Helvetica,sans-Serif" font-size="9.00">2K RP</text>
</g>
<!-- Max_Jump_Squadron_Size___3__Co&#45;&gt;Max_Jump_Squadron_Size___4__Co -->
<g id="edge2" class="edge">
<title>Max_Jump_Squadron_Size___3__Co&#45;&gt;Max_Jump_Squadron_Size___4__Co</title>
<path fill="none" stroke="black" d="M96.5,-647.7C96.5,-639.22 96.5,-628.86 96.5,-619.58"/>
<polygon fill="black" stroke="black" points="98.6,-619.62 96.5,-613.62 94.4,-619.62 98.6,-619.62"/>
</g>
<!-- Max_Jump_Squadron_Size___5__Co -->
<g id="node3" class="node">
<title>Max_Jump_Squadron_Size___5__Co</title>
<path fill="#cce5ff" stroke="black" d="M175.75,-540C175.75,-540 17.25,-540 17.25,-540 11.25,-540 5.25,-534 5.25,-528 5.25,-528 5.25,-516 5.25,-516 5.25,-510 11.25,-504 17.25,-504 17.25,-504 175.75,-504 175.75,-504 181.75,-504 187.75,-510 187.75,-516 187.75,-516 187.75,-528 187.75,-528 187.75,-534 181.75,-540 175.75,-540"/>
<text xml:space="preserve" text-anchor="middle" x="96.5" y="-523.2" font-family="Helvetica,sans-Serif" font-size="9.00">Max Jump Squadron Size &#45; 5 (Cost x 1.2)</text>
<text xml:space="preserve" text-anchor="middle" x="96.5" y="-513.45" font-family="Helvetica,sans-Serif" font-size="9.00">4K RP</text>
</g>
<!-- Max_Jump_Squadron_Size___4__Co&#45;&gt;Max_Jump_Squadron_Size___5__Co -->
<g id="edge3" class="edge">
<title>Max_Jump_Squadron_Size___4__Co&#45;&gt;Max_Jump_Squadron_Size___5__Co</title>
<path fill="none" stroke="black" d="M96.5,-575.7C96.5,-567.22 96.5,-556.86 96.5,-547.58"/>
<polygon fill="black" stroke="black" points="98.6,-547.62 96.5,-541.62 94.4,-547.62 98.6,-547.62"/>
</g>
<!-- Max_Jump_Squadron_Size___6__Co -->
<g id="node4" class="node">
<title>Max_Jump_Squadron_Size___6__Co</title>
<path fill="#cce5ff" stroke="black" d="M175.75,-468C175.75,-468 17.25,-468 17.25,-468 11.25,-468 5.25,-462 5.25,-456 5.25,-456 5.25,-444 5.25,-444 5.25,-438 11.25,-432 17.25,-432 17.25,-432 175.75,-432 175.75,-432 181.75,-432 187.75,-438 187.75,-444 187.75,-444 187.75,-456 187.75,-456 187.75,-462 181.75,-468 175.75,-468"/>
<text xml:space="preserve" text-anchor="middle" x="96.5" y="-451.2" font-family="Helvetica,sans-Serif" font-size="9.00">Max Jump Squadron Size &#45; 6 (Cost x 1.3)</text>
<text xml:space="preserve" text-anchor="middle" x="96.5" y="-441.45" font-family="Helvetica,sans-Serif" font-size="9.00">8K RP</text>
</g>
<!-- Max_Jump_Squadron_Size___5__Co&#45;&gt;Max_Jump_Squadron_Size___6__Co -->
<g id="edge4" class="edge">
<title>Max_Jump_Squadron_Size___5__Co&#45;&gt;Max_Jump_Squadron_Size___6__Co</title>
<path fill="none" stroke="black" d="M96.5,-503.7C96.5,-495.22 96.5,-484.86 96.5,-475.58"/>
<polygon fill="black" stroke="black" points="98.6,-475.62 96.5,-469.62 94.4,-475.62 98.6,-475.62"/>
</g>
<!-- Max_Jump_Squadron_Size___7__Co -->
<g id="node5" class="node">
<title>Max_Jump_Squadron_Size___7__Co</title>
<path fill="#fff3cd" stroke="black" d="M175.75,-396C175.75,-396 17.25,-396 17.25,-396 11.25,-396 5.25,-390 5.25,-384 5.25,-384 5.25,-372 5.25,-372 5.25,-366 11.25,-360 17.25,-360 17.25,-360 175.75,-360 175.75,-360 181.75,-360 187.75,-366 187.75,-372 187.75,-372 187.75,-384 187.75,-384 187.75,-390 181.75,-396 175.75,-396"/>
<text xml:space="preserve" text-anchor="middle" x="96.5" y="-379.2" font-family="Helvetica,sans-Serif" font-size="9.00">Max Jump Squadron Size &#45; 7 (Cost x 1.5)</text>
<text xml:space="preserve" text-anchor="middle" x="96.5" y="-369.45" font-family="Helvetica,sans-Serif" font-size="9.00">15K RP</text>
</g>
<!-- Max_Jump_Squadron_Size___6__Co&#45;&gt;Max_Jump_Squadron_Size___7__Co -->
<g id="edge5" class="edge">
<title>Max_Jump_Squadron_Size___6__Co&#45;&gt;Max_Jump_Squadron_Size___7__Co</title>
<path fill="none" stroke="black" d="M96.5,-431.7C96.5,-423.22 96.5,-412.86 96.5,-403.58"/>
<polygon fill="black" stroke="black" points="98.6,-403.62 96.5,-397.62 94.4,-403.62 98.6,-403.62"/>
</g>
<!-- Max_Jump_Squadron_Size___8__Co -->
<g id="node6" class="node">
<title>Max_Jump_Squadron_Size___8__Co</title>
<path fill="#fff3cd" stroke="black" d="M178.38,-324C178.38,-324 14.62,-324 14.62,-324 8.62,-324 2.62,-318 2.62,-312 2.62,-312 2.62,-300 2.62,-300 2.62,-294 8.62,-288 14.62,-288 14.62,-288 178.38,-288 178.38,-288 184.38,-288 190.38,-294 190.38,-300 190.38,-300 190.38,-312 190.38,-312 190.38,-318 184.38,-324 178.38,-324"/>
<text xml:space="preserve" text-anchor="middle" x="96.5" y="-307.2" font-family="Helvetica,sans-Serif" font-size="9.00">Max Jump Squadron Size &#45; 8 (Cost x 1.75)</text>
<text xml:space="preserve" text-anchor="middle" x="96.5" y="-297.45" font-family="Helvetica,sans-Serif" font-size="9.00">30K RP</text>
</g>
<!-- Max_Jump_Squadron_Size___7__Co&#45;&gt;Max_Jump_Squadron_Size___8__Co -->
<g id="edge6" class="edge">
<title>Max_Jump_Squadron_Size___7__Co&#45;&gt;Max_Jump_Squadron_Size___8__Co</title>
<path fill="none" stroke="black" d="M96.5,-359.7C96.5,-351.22 96.5,-340.86 96.5,-331.58"/>
<polygon fill="black" stroke="black" points="98.6,-331.62 96.5,-325.62 94.4,-331.62 98.6,-331.62"/>
</g>
<!-- Max_Jump_Squadron_Size___9__Co -->
<g id="node7" class="node">
<title>Max_Jump_Squadron_Size___9__Co</title>
<path fill="#fff3cd" stroke="black" d="M172,-252C172,-252 21,-252 21,-252 15,-252 9,-246 9,-240 9,-240 9,-228 9,-228 9,-222 15,-216 21,-216 21,-216 172,-216 172,-216 178,-216 184,-222 184,-228 184,-228 184,-240 184,-240 184,-246 178,-252 172,-252"/>
<text xml:space="preserve" text-anchor="middle" x="96.5" y="-235.2" font-family="Helvetica,sans-Serif" font-size="9.00">Max Jump Squadron Size &#45; 9 (Cost x 2)</text>
<text xml:space="preserve" text-anchor="middle" x="96.5" y="-225.45" font-family="Helvetica,sans-Serif" font-size="9.00">60K RP</text>
</g>
<!-- Max_Jump_Squadron_Size___8__Co&#45;&gt;Max_Jump_Squadron_Size___9__Co -->
<g id="edge7" class="edge">
<title>Max_Jump_Squadron_Size___8__Co&#45;&gt;Max_Jump_Squadron_Size___9__Co</title>
<path fill="none" stroke="black" d="M96.5,-287.7C96.5,-279.22 96.5,-268.86 96.5,-259.58"/>
<polygon fill="black" stroke="black" points="98.6,-259.62 96.5,-253.62 94.4,-259.62 98.6,-259.62"/>
</g>
<!-- Max_Jump_Squadron_Size___10__C -->
<g id="node8" class="node">
<title>Max_Jump_Squadron_Size___10__C</title>
<path fill="#d4c4fb" stroke="black" d="M181,-180C181,-180 12,-180 12,-180 6,-180 0,-174 0,-168 0,-168 0,-156 0,-156 0,-150 6,-144 12,-144 12,-144 181,-144 181,-144 187,-144 193,-150 193,-156 193,-156 193,-168 193,-168 193,-174 187,-180 181,-180"/>
<text xml:space="preserve" text-anchor="middle" x="96.5" y="-163.2" font-family="Helvetica,sans-Serif" font-size="9.00">Max Jump Squadron Size &#45; 10 (Cost x 2.25)</text>
<text xml:space="preserve" text-anchor="middle" x="96.5" y="-153.45" font-family="Helvetica,sans-Serif" font-size="9.00">125K RP</text>
</g>
<!-- Max_Jump_Squadron_Size___9__Co&#45;&gt;Max_Jump_Squadron_Size___10__C -->
<g id="edge8" class="edge">
<title>Max_Jump_Squadron_Size___9__Co&#45;&gt;Max_Jump_Squadron_Size___10__C</title>
<path fill="none" stroke="black" d="M96.5,-215.7C96.5,-207.22 96.5,-196.86 96.5,-187.58"/>
<polygon fill="black" stroke="black" points="98.6,-187.62 96.5,-181.62 94.4,-187.62 98.6,-187.62"/>
</g>
<!-- Max_Jump_Squadron_Size___11__C -->
<g id="node9" class="node">
<title>Max_Jump_Squadron_Size___11__C</title>
<path fill="#d4c4fb" stroke="black" d="M177.62,-108C177.62,-108 15.37,-108 15.37,-108 9.37,-108 3.38,-102 3.38,-96 3.38,-96 3.38,-84 3.38,-84 3.38,-78 9.38,-72 15.38,-72 15.38,-72 177.62,-72 177.62,-72 183.62,-72 189.62,-78 189.62,-84 189.62,-84 189.62,-96 189.62,-96 189.62,-102 183.62,-108 177.62,-108"/>
<text xml:space="preserve" text-anchor="middle" x="96.5" y="-91.2" font-family="Helvetica,sans-Serif" font-size="9.00">Max Jump Squadron Size &#45; 11 (Cost x 2.5)</text>
<text xml:space="preserve" text-anchor="middle" x="96.5" y="-81.45" font-family="Helvetica,sans-Serif" font-size="9.00">250K RP</text>
</g>
<!-- Max_Jump_Squadron_Size___10__C&#45;&gt;Max_Jump_Squadron_Size___11__C -->
<g id="edge9" class="edge">
<title>Max_Jump_Squadron_Size___10__C&#45;&gt;Max_Jump_Squadron_Size___11__C</title>
<path fill="none" stroke="black" d="M96.5,-143.7C96.5,-135.22 96.5,-124.86 96.5,-115.58"/>
<polygon fill="black" stroke="black" points="98.6,-115.62 96.5,-109.62 94.4,-115.62 98.6,-115.62"/>
</g>
<!-- Max_Jump_Squadron_Size___12__C -->
<g id="node10" class="node">
<title>Max_Jump_Squadron_Size___12__C</title>
<path fill="#d4c4fb" stroke="black" d="M174.62,-36C174.62,-36 18.37,-36 18.37,-36 12.37,-36 6.38,-30 6.38,-24 6.38,-24 6.38,-12 6.38,-12 6.38,-6 12.38,0 18.38,0 18.38,0 174.62,0 174.62,0 180.62,0 186.62,-6 186.62,-12 186.62,-12 186.62,-24 186.62,-24 186.62,-30 180.62,-36 174.62,-36"/>
<text xml:space="preserve" text-anchor="middle" x="96.5" y="-19.2" font-family="Helvetica,sans-Serif" font-size="9.00">Max Jump Squadron Size &#45; 12 (Cost x 3)</text>
<text xml:space="preserve" text-anchor="middle" x="96.5" y="-9.45" font-family="Helvetica,sans-Serif" font-size="9.00">500K RP</text>
</g>
<!-- Max_Jump_Squadron_Size___11__C&#45;&gt;Max_Jump_Squadron_Size___12__C -->
<g id="edge10" class="edge">
<title>Max_Jump_Squadron_Size___11__C&#45;&gt;Max_Jump_Squadron_Size___12__C</title>
<path fill="none" stroke="black" d="M96.5,-71.7C96.5,-63.22 96.5,-52.86 96.5,-43.58"/>
<polygon fill="black" stroke="black" points="98.6,-43.62 96.5,-37.62 94.4,-43.62 98.6,-43.62"/>
</g>
<!-- ext_Jump_Point_Theory -->
<g id="node11" class="node">
<title>ext_Jump_Point_Theory</title>
<path fill="#f0f0f0" stroke="black" stroke-dasharray="5,2" d="M130.75,-756C130.75,-756 62.25,-756 62.25,-756 56.25,-756 50.25,-750 50.25,-744 50.25,-744 50.25,-732 50.25,-732 50.25,-726 56.25,-720 62.25,-720 62.25,-720 130.75,-720 130.75,-720 136.75,-720 142.75,-726 142.75,-732 142.75,-732 142.75,-744 142.75,-744 142.75,-750 136.75,-756 130.75,-756"/>
<text xml:space="preserve" text-anchor="middle" x="96.5" y="-734.33" font-family="Helvetica,sans-Serif" font-size="9.00">Jump Point Theory</text>
</g>
<!-- ext_Jump_Point_Theory&#45;&gt;Max_Jump_Squadron_Size___3__Co -->
<g id="edge1" class="edge">
<title>ext_Jump_Point_Theory&#45;&gt;Max_Jump_Squadron_Size___3__Co</title>
<path fill="none" stroke="black" d="M96.5,-719.7C96.5,-711.22 96.5,-700.86 96.5,-691.58"/>
<polygon fill="black" stroke="black" points="98.6,-691.62 96.5,-685.62 94.4,-691.62 98.6,-691.62"/>
</g>
</g>
</svg>
