<?xml version="1.0" encoding="UTF-8" standalone="no"?>
<!DOCTYPE svg PUBLIC "-//W3C//DTD SVG 1.1//EN"
 "http://www.w3.org/Graphics/SVG/1.1/DTD/svg11.dtd">
<!-- Generated by graphviz version 14.1.2 (20260124.0452)
 -->
<!-- Title: TechTree Pages: 1 -->
<svg width="321pt" height="137pt"
 viewBox="0.00 0.00 321.00 137.00" xmlns="http://www.w3.org/2000/svg" xmlns:xlink="http://www.w3.org/1999/xlink">
<g id="graph0" class="graph" transform="scale(1 1) rotate(0) translate(4 132.75)">
<title>TechTree</title>
<polygon fill="white" stroke="none" points="-4,4 -4,-132.75 317,-132.75 317,4 -4,4"/>
<text xml:space="preserve" text-anchor="middle" x="156.5" y="-113.35" font-family="Helvetica,sans-Serif" font-weight="bold" font-size="12.00">Maximum Orbital Mining Diameter</text>
<!-- Maximum_Orbital_Mining_Diamete -->
<g id="node1" class="node">
<title>Maximum_Orbital_Mining_Diamete</title>
<path fill="#d4c4fb" stroke="black" d="M175,-36C175,-36 12,-36 12,-36 6,-36 0,-30 0,-24 0,-24 0,-12 0,-12 0,-6 6,0 12,0 12,0 175,0 175,0 181,0 187,-6 187,-12 187,-12 187,-24 187,-24 187,-30 181,-36 175,-36"/>
<text xml:space="preserve" text-anchor="middle" x="93.5" y="-19.2" font-family="Helvetica,sans-Serif" font-size="9.00">Maximum Orbital Mining Diameter 500 km</text>
<text xml:space="preserve" text-anchor="middle" x="93.5" y="-9.45" font-family="Helvetica,sans-Serif" font-size="9.00">125K RP</text>
</g>
<!-- Maximum_Orbital_Mining_Diamete&#45;&gt;Maximum_Orbital_Mining_Diamete -->
<g id="edge2" class="edge">
<title>Maximum_Orbital_Mining_Diamete&#45;&gt;Maximum_Orbital_Mining_Diamete</title>
<path fill="none" stroke="black" d="M187.45,-19.63C198.1,-19.33 205,-18.78 205,-18 205,-17.41 201.12,-16.96 194.69,-16.64"/>
<polygon fill="black" stroke="black" points="195.04,-14.55 188.96,-16.42 194.88,-18.75 195.04,-14.55"/>
</g>
<!-- Maximum_Orbital_Mining_Diamete&#45;&gt;Maximum_Orbital_Mining_Diamete -->
<g id="edge3" class="edge">
<title>Maximum_Orbital_Mining_Diamete&#45;&gt;Maximum_Orbital_Mining_Diamete</title>
<path fill="none" stroke="black" d="M187.5,-21.75C208.06,-21.39 223,-20.14 223,-18 223,-16.13 211.56,-14.94 194.93,-14.43"/>
<polygon fill="black" stroke="black" points="195.06,-12.33 189.01,-14.29 194.96,-16.53 195.06,-12.33"/>
</g>
<!-- Maximum_Orbital_Mining_Diamete&#45;&gt;Maximum_Orbital_Mining_Diamete -->
<g id="edge4" class="edge">
<title>Maximum_Orbital_Mining_Diamete&#45;&gt;Maximum_Orbital_Mining_Diamete</title>
<path fill="none" stroke="black" d="M187.48,-23.78C217.37,-23.71 241,-21.78 241,-18 241,-14.53 221.09,-12.62 194.7,-12.27"/>
<polygon fill="black" stroke="black" points="195.01,-10.17 188.99,-12.23 194.98,-14.37 195.01,-10.17"/>
</g>
<!-- Maximum_Orbital_Mining_Diamete&#45;&gt;Maximum_Orbital_Mining_Diamete -->
<g id="edge5" class="edge">
<title>Maximum_Orbital_Mining_Diamete&#45;&gt;Maximum_Orbital_Mining_Diamete</title>
<path fill="none" stroke="black" d="M187.49,-25.65C226.24,-26.16 259,-23.6 259,-18 259,-12.75 230.2,-10.18 194.68,-10.29"/>
<polygon fill="black" stroke="black" points="194.99,-8.19 189.01,-10.34 195.02,-12.39 194.99,-8.19"/>
</g>
<!-- Maximum_Orbital_Mining_Diamete&#45;&gt;Maximum_Orbital_Mining_Diamete -->
<g id="edge6" class="edge">
<title>Maximum_Orbital_Mining_Diamete&#45;&gt;Maximum_Orbital_Mining_Diamete</title>
<path fill="none" stroke="black" d="M187.44,-27.34C234.72,-28.67 277,-25.56 277,-18 277,-10.84 239.06,-7.67 194.88,-8.48"/>
<polygon fill="black" stroke="black" points="194.91,-6.38 188.96,-8.62 195,-10.58 194.91,-6.38"/>
</g>
<!-- Maximum_Orbital_Mining_Diamete&#45;&gt;Maximum_Orbital_Mining_Diamete -->
<g id="edge7" class="edge">
<title>Maximum_Orbital_Mining_Diamete&#45;&gt;Maximum_Orbital_Mining_Diamete</title>
<path fill="none" stroke="black" d="M187.3,-28.87C242.85,-31.24 295,-27.61 295,-18 295,-8.82 247.43,-5.1 194.76,-6.85"/>
<polygon fill="black" stroke="black" points="194.72,-4.75 188.81,-7.07 194.88,-8.94 194.72,-4.75"/>
</g>
<!-- Maximum_Orbital_Mining_Diamete&#45;&gt;Maximum_Orbital_Mining_Diamete -->
<g id="edge8" class="edge">
<title>Maximum_Orbital_Mining_Diamete&#45;&gt;Maximum_Orbital_Mining_Diamete</title>
<path fill="none" stroke="black" d="M187.4,-30.26C250.91,-33.81 313,-29.72 313,-18 313,-6.73 255.67,-2.52 194.84,-5.36"/>
<polygon fill="black" stroke="black" points="194.8,-3.26 188.91,-5.66 195.01,-7.45 194.8,-3.26"/>
</g>
<!-- ext_Trans_Newtonian_Technology -->
<g id="node2" class="node">
<title>ext_Trans_Newtonian_Technology</title>
<path fill="#f0f0f0" stroke="black" stroke-dasharray="5,2" d="M149.5,-108C149.5,-108 37.5,-108 37.5,-108 31.5,-108 25.5,-102 25.5,-96 25.5,-96 25.5,-84 25.5,-84 25.5,-78 31.5,-72 37.5,-72 37.5,-72 149.5,-72 149.5,-72 155.5,-72 161.5,-78 161.5,-84 161.5,-84 161.5,-96 161.5,-96 161.5,-102 155.5,-108 149.5,-108"/>
<text xml:space="preserve" text-anchor="middle" x="93.5" y="-86.33" font-family="Helvetica,sans-Serif" font-size="9.00">Trans&#45;Newtonian Technology</text>
</g>
<!-- ext_Trans_Newtonian_Technology&#45;&gt;Maximum_Orbital_Mining_Diamete -->
<g id="edge1" class="edge">
<title>ext_Trans_Newtonian_Technology&#45;&gt;Maximum_Orbital_Mining_Diamete</title>
<path fill="none" stroke="black" d="M93.5,-71.7C93.5,-63.22 93.5,-52.86 93.5,-43.58"/>
<polygon fill="black" stroke="black" points="95.6,-43.62 93.5,-37.62 91.4,-43.62 95.6,-43.62"/>
</g>
</g>
</svg>
