<?xml version="1.0" encoding="UTF-8" standalone="no"?>
<!DOCTYPE svg PUBLIC "-//W3C//DTD SVG 1.1//EN"
 "http://www.w3.org/Graphics/SVG/1.1/DTD/svg11.dtd">
<!-- Generated by graphviz version 14.1.2 (20260124.0452)
 -->
<!-- Title: TechTree Pages: 1 -->
<svg width="282pt" height="137pt"
 viewBox="0.00 0.00 282.00 137.00" xmlns="http://www.w3.org/2000/svg" xmlns:xlink="http://www.w3.org/1999/xlink">
<g id="graph0" class="graph" transform="scale(1 1) rotate(0) translate(4 132.75)">
<title>TechTree</title>
<polygon fill="white" stroke="none" points="-4,4 -4,-132.75 278,-132.75 278,4 -4,4"/>
<text xml:space="preserve" text-anchor="middle" x="137" y="-113.35" font-family="Helvetica,sans-Serif" font-weight="bold" font-size="12.00">Maximum Shield Generator Size</text>
<!-- Maximum_Shield_Generator_Size_ -->
<g id="node1" class="node">
<title>Maximum_Shield_Generator_Size_</title>
<path fill="#d4c4fb" stroke="black" d="M154,-36C154,-36 12,-36 12,-36 6,-36 0,-30 0,-24 0,-24 0,-12 0,-12 0,-6 6,0 12,0 12,0 154,0 154,0 160,0 166,-6 166,-12 166,-12 166,-24 166,-24 166,-30 160,-36 154,-36"/>
<text xml:space="preserve" text-anchor="middle" x="83" y="-19.2" font-family="Helvetica,sans-Serif" font-size="9.00">Maximum Shield Generator Size &#45; 50</text>
<text xml:space="preserve" text-anchor="middle" x="83" y="-9.45" font-family="Helvetica,sans-Serif" font-size="9.00">120K RP</text>
</g>
<!-- Maximum_Shield_Generator_Size_&#45;&gt;Maximum_Shield_Generator_Size_ -->
<g id="edge2" class="edge">
<title>Maximum_Shield_Generator_Size_&#45;&gt;Maximum_Shield_Generator_Size_</title>
<path fill="none" stroke="black" d="M166.21,-19.97C176.92,-19.63 184,-18.97 184,-18 184,-17.27 180.02,-16.72 173.51,-16.34"/>
<polygon fill="black" stroke="black" points="173.81,-14.25 167.72,-16.09 173.62,-18.45 173.81,-14.25"/>
</g>
<!-- Maximum_Shield_Generator_Size_&#45;&gt;Maximum_Shield_Generator_Size_ -->
<g id="edge3" class="edge">
<title>Maximum_Shield_Generator_Size_&#45;&gt;Maximum_Shield_Generator_Size_</title>
<path fill="none" stroke="black" d="M166.41,-22.43C186.82,-22.1 202,-20.62 202,-18 202,-15.7 190.37,-14.29 173.8,-13.75"/>
<polygon fill="black" stroke="black" points="173.97,-11.65 167.92,-13.61 173.87,-15.85 173.97,-11.65"/>
</g>
<!-- Maximum_Shield_Generator_Size_&#45;&gt;Maximum_Shield_Generator_Size_ -->
<g id="edge4" class="edge">
<title>Maximum_Shield_Generator_Size_&#45;&gt;Maximum_Shield_Generator_Size_</title>
<path fill="none" stroke="black" d="M166.27,-24.74C195.9,-24.87 220,-22.62 220,-18 220,-13.77 199.86,-11.53 173.78,-11.28"/>
<polygon fill="black" stroke="black" points="173.79,-9.18 167.78,-11.26 173.78,-13.38 173.79,-9.18"/>
</g>
<!-- Maximum_Shield_Generator_Size_&#45;&gt;Maximum_Shield_Generator_Size_ -->
<g id="edge5" class="edge">
<title>Maximum_Shield_Generator_Size_&#45;&gt;Maximum_Shield_Generator_Size_</title>
<path fill="none" stroke="black" d="M166.32,-26.83C204.62,-27.76 238,-24.82 238,-18 238,-11.61 208.66,-8.62 173.43,-9.04"/>
<polygon fill="black" stroke="black" points="173.79,-6.93 167.83,-9.14 173.87,-11.13 173.79,-6.93"/>
</g>
<!-- Maximum_Shield_Generator_Size_&#45;&gt;Maximum_Shield_Generator_Size_ -->
<g id="edge6" class="edge">
<title>Maximum_Shield_Generator_Size_&#45;&gt;Maximum_Shield_Generator_Size_</title>
<path fill="none" stroke="black" d="M166.22,-28.69C212.9,-30.73 256,-27.17 256,-18 256,-9.31 217.32,-5.66 173.57,-7.03"/>
<polygon fill="black" stroke="black" points="173.65,-4.93 167.73,-7.25 173.8,-9.12 173.65,-4.93"/>
</g>
<!-- Maximum_Shield_Generator_Size_&#45;&gt;Maximum_Shield_Generator_Size_ -->
<g id="edge7" class="edge">
<title>Maximum_Shield_Generator_Size_&#45;&gt;Maximum_Shield_Generator_Size_</title>
<path fill="none" stroke="black" d="M166.45,-30.37C221.1,-33.73 274,-29.6 274,-18 274,-6.92 225.75,-2.66 173.8,-5.22"/>
<polygon fill="black" stroke="black" points="173.84,-3.12 167.96,-5.54 174.07,-7.31 173.84,-3.12"/>
</g>
<!-- ext_Trans_Newtonian_Technology -->
<g id="node2" class="node">
<title>ext_Trans_Newtonian_Technology</title>
<path fill="#f0f0f0" stroke="black" stroke-dasharray="5,2" d="M139,-108C139,-108 27,-108 27,-108 21,-108 15,-102 15,-96 15,-96 15,-84 15,-84 15,-78 21,-72 27,-72 27,-72 139,-72 139,-72 145,-72 151,-78 151,-84 151,-84 151,-96 151,-96 151,-102 145,-108 139,-108"/>
<text xml:space="preserve" text-anchor="middle" x="83" y="-86.33" font-family="Helvetica,sans-Serif" font-size="9.00">Trans&#45;Newtonian Technology</text>
</g>
<!-- ext_Trans_Newtonian_Technology&#45;&gt;Maximum_Shield_Generator_Size_ -->
<g id="edge1" class="edge">
<title>ext_Trans_Newtonian_Technology&#45;&gt;Maximum_Shield_Generator_Size_</title>
<path fill="none" stroke="black" d="M83,-71.7C83,-63.22 83,-52.86 83,-43.58"/>
<polygon fill="black" stroke="black" points="85.1,-43.62 83,-37.62 80.9,-43.62 85.1,-43.62"/>
</g>
</g>
</svg>
