<?xml version="1.0" encoding="UTF-8" standalone="no"?>
<!DOCTYPE svg PUBLIC "-//W3C//DTD SVG 1.1//EN"
 "http://www.w3.org/Graphics/SVG/1.1/DTD/svg11.dtd">
<!-- Generated by graphviz version 14.1.2 (20260124.0452)
 -->
<!-- Title: TechTree Pages: 1 -->
<svg width="317pt" height="67pt"
 viewBox="0.00 0.00 317.00 67.00" xmlns="http://www.w3.org/2000/svg" xmlns:xlink="http://www.w3.org/1999/xlink">
<g id="graph0" class="graph" transform="scale(1 1) rotate(0) translate(4 63)">
<title>TechTree</title>
<polygon fill="white" stroke="none" points="-4,4 -4,-63 312.5,-63 312.5,4 -4,4"/>
<text xml:space="preserve" text-anchor="middle" x="154.25" y="-41.7" font-family="Helvetica,sans-Serif" font-weight="bold" font-size="14.00">Maximum Shield Generator Size</text>
<!-- Maximum_Shield_Generator_Size_ -->
<g id="node1" class="node">
<title>Maximum_Shield_Generator_Size_</title>
<path fill="#d4c4fb" stroke="black" d="M164.5,-36C164.5,-36 12,-36 12,-36 6,-36 0,-30 0,-24 0,-24 0,-12 0,-12 0,-6 6,0 12,0 12,0 164.5,0 164.5,0 170.5,0 176.5,-6 176.5,-12 176.5,-12 176.5,-24 176.5,-24 176.5,-30 170.5,-36 164.5,-36"/>
<text xml:space="preserve" text-anchor="middle" x="88.25" y="-19.75" font-family="Helvetica,sans-Serif" font-size="10.00">Maximum Shield Generator Size &#45; 50</text>
<text xml:space="preserve" text-anchor="middle" x="88.25" y="-8.5" font-family="Helvetica,sans-Serif" font-size="10.00">120K RP</text>
</g>
<!-- Maximum_Shield_Generator_Size_&#45;&gt;Maximum_Shield_Generator_Size_ -->
<g id="edge1" class="edge">
<title>Maximum_Shield_Generator_Size_&#45;&gt;Maximum_Shield_Generator_Size_</title>
<path fill="none" stroke="black" d="M176.92,-19.35C189.81,-19.14 198.5,-18.69 198.5,-18 198.5,-17.47 193.41,-17.09 185.24,-16.84"/>
<polygon fill="black" stroke="black" points="185.49,-14.39 178.44,-16.68 185.38,-19.29 185.49,-14.39"/>
</g>
<!-- Maximum_Shield_Generator_Size_&#45;&gt;Maximum_Shield_Generator_Size_ -->
<g id="edge2" class="edge">
<title>Maximum_Shield_Generator_Size_&#45;&gt;Maximum_Shield_Generator_Size_</title>
<path fill="none" stroke="black" d="M176.94,-20.98C201.61,-20.85 220.5,-19.85 220.5,-18 220.5,-16.37 205.78,-15.4 185.36,-15.1"/>
<polygon fill="black" stroke="black" points="185.48,-12.65 178.46,-15.03 185.43,-17.55 185.48,-12.65"/>
</g>
<!-- Maximum_Shield_Generator_Size_&#45;&gt;Maximum_Shield_Generator_Size_ -->
<g id="edge3" class="edge">
<title>Maximum_Shield_Generator_Size_&#45;&gt;Maximum_Shield_Generator_Size_</title>
<path fill="none" stroke="black" d="M176.63,-22.47C212.4,-22.74 242.5,-21.25 242.5,-18 242.5,-15.01 216.92,-13.51 184.9,-13.5"/>
<polygon fill="black" stroke="black" points="185.13,-11.05 178.14,-13.52 185.15,-15.95 185.13,-11.05"/>
</g>
<!-- Maximum_Shield_Generator_Size_&#45;&gt;Maximum_Shield_Generator_Size_ -->
<g id="edge4" class="edge">
<title>Maximum_Shield_Generator_Size_&#45;&gt;Maximum_Shield_Generator_Size_</title>
<path fill="none" stroke="black" d="M176.67,-23.78C222.8,-24.69 264.5,-22.77 264.5,-18 264.5,-13.52 227.7,-11.55 184.99,-12.09"/>
<polygon fill="black" stroke="black" points="185.14,-9.63 178.18,-12.2 185.22,-14.53 185.14,-9.63"/>
</g>
<!-- Maximum_Shield_Generator_Size_&#45;&gt;Maximum_Shield_Generator_Size_ -->
<g id="edge5" class="edge">
<title>Maximum_Shield_Generator_Size_&#45;&gt;Maximum_Shield_Generator_Size_</title>
<path fill="none" stroke="black" d="M176.93,-24.94C232.92,-26.68 286.5,-24.37 286.5,-18 286.5,-11.96 238.22,-9.57 185.43,-10.83"/>
<polygon fill="black" stroke="black" points="185.37,-8.38 178.44,-11.02 185.51,-13.28 185.37,-8.38"/>
</g>
<!-- Maximum_Shield_Generator_Size_&#45;&gt;Maximum_Shield_Generator_Size_ -->
<g id="edge6" class="edge">
<title>Maximum_Shield_Generator_Size_&#45;&gt;Maximum_Shield_Generator_Size_</title>
<path fill="none" stroke="black" d="M176.74,-25.95C242.41,-28.7 308.5,-26.05 308.5,-18 308.5,-10.3 247.97,-7.54 185.2,-9.73"/>
<polygon fill="black" stroke="black" points="185.15,-7.28 178.25,-9.99 185.34,-12.17 185.15,-7.28"/>
</g>
</g>
</svg>
