<?xml version="1.0" encoding="UTF-8" standalone="no"?>
<!DOCTYPE svg PUBLIC "-//W3C//DTD SVG 1.1//EN"
 "http://www.w3.org/Graphics/SVG/1.1/DTD/svg11.dtd">
<!-- Generated by graphviz version 14.1.2 (20260124.0452)
 -->
<!-- Title: TechTree Pages: 1 -->
<svg width="362pt" height="67pt"
 viewBox="0.00 0.00 362.00 67.00" xmlns="http://www.w3.org/2000/svg" xmlns:xlink="http://www.w3.org/1999/xlink">
<g id="graph0" class="graph" transform="scale(1 1) rotate(0) translate(4 63)">
<title>TechTree</title>
<polygon fill="white" stroke="none" points="-4,4 -4,-63 357.75,-63 357.75,4 -4,4"/>
<text xml:space="preserve" text-anchor="middle" x="176.88" y="-41.7" font-family="Helvetica,sans-Serif" font-weight="bold" font-size="14.00">Maximum Orbital Mining Diameter</text>
<!-- Maximum_Orbital_Mining_Diamete -->
<g id="node1" class="node">
<title>Maximum_Orbital_Mining_Diamete</title>
<path fill="#d4c4fb" stroke="black" d="M187.75,-36C187.75,-36 12,-36 12,-36 6,-36 0,-30 0,-24 0,-24 0,-12 0,-12 0,-6 6,0 12,0 12,0 187.75,0 187.75,0 193.75,0 199.75,-6 199.75,-12 199.75,-12 199.75,-24 199.75,-24 199.75,-30 193.75,-36 187.75,-36"/>
<text xml:space="preserve" text-anchor="middle" x="99.88" y="-19.75" font-family="Helvetica,sans-Serif" font-size="10.00">Maximum Orbital Mining Diameter 500 km</text>
<text xml:space="preserve" text-anchor="middle" x="99.88" y="-8.5" font-family="Helvetica,sans-Serif" font-size="10.00">125K RP</text>
</g>
<!-- Maximum_Orbital_Mining_Diamete&#45;&gt;Maximum_Orbital_Mining_Diamete -->
<g id="edge1" class="edge">
<title>Maximum_Orbital_Mining_Diamete&#45;&gt;Maximum_Orbital_Mining_Diamete</title>
<path fill="none" stroke="black" d="M199.81,-19.32C213,-19.1 221.75,-18.66 221.75,-18 221.75,-17.5 216.62,-17.12 208.3,-16.87"/>
<polygon fill="black" stroke="black" points="208.38,-14.42 201.33,-16.71 208.27,-19.32 208.38,-14.42"/>
</g>
<!-- Maximum_Orbital_Mining_Diamete&#45;&gt;Maximum_Orbital_Mining_Diamete -->
<g id="edge2" class="edge">
<title>Maximum_Orbital_Mining_Diamete&#45;&gt;Maximum_Orbital_Mining_Diamete</title>
<path fill="none" stroke="black" d="M200.06,-20.96C225.06,-20.75 243.75,-19.77 243.75,-18 243.75,-16.44 229.19,-15.49 208.57,-15.15"/>
<polygon fill="black" stroke="black" points="208.6,-12.7 201.57,-15.06 208.54,-17.6 208.6,-12.7"/>
</g>
<!-- Maximum_Orbital_Mining_Diamete&#45;&gt;Maximum_Orbital_Mining_Diamete -->
<g id="edge3" class="edge">
<title>Maximum_Orbital_Mining_Diamete&#45;&gt;Maximum_Orbital_Mining_Diamete</title>
<path fill="none" stroke="black" d="M199.88,-22.49C236.13,-22.6 265.75,-21.11 265.75,-18 265.75,-15.14 240.57,-13.64 208.24,-13.51"/>
<polygon fill="black" stroke="black" points="208.39,-11.06 201.39,-13.51 208.39,-15.96 208.39,-11.06"/>
</g>
<!-- Maximum_Orbital_Mining_Diamete&#45;&gt;Maximum_Orbital_Mining_Diamete -->
<g id="edge4" class="edge">
<title>Maximum_Orbital_Mining_Diamete&#45;&gt;Maximum_Orbital_Mining_Diamete</title>
<path fill="none" stroke="black" d="M199.91,-23.87C246.73,-24.54 287.75,-22.58 287.75,-18 287.75,-13.7 251.55,-11.71 208.34,-12.03"/>
<polygon fill="black" stroke="black" points="208.39,-9.58 201.42,-12.11 208.45,-14.48 208.39,-9.58"/>
</g>
<!-- Maximum_Orbital_Mining_Diamete&#45;&gt;Maximum_Orbital_Mining_Diamete -->
<g id="edge5" class="edge">
<title>Maximum_Orbital_Mining_Diamete&#45;&gt;Maximum_Orbital_Mining_Diamete</title>
<path fill="none" stroke="black" d="M200.02,-25.11C256.96,-26.51 309.75,-24.14 309.75,-18 309.75,-12.16 261.99,-9.73 208.32,-10.71"/>
<polygon fill="black" stroke="black" points="208.47,-8.26 201.53,-10.86 208.58,-13.16 208.47,-8.26"/>
</g>
<!-- Maximum_Orbital_Mining_Diamete&#45;&gt;Maximum_Orbital_Mining_Diamete -->
<g id="edge6" class="edge">
<title>Maximum_Orbital_Mining_Diamete&#45;&gt;Maximum_Orbital_Mining_Diamete</title>
<path fill="none" stroke="black" d="M199.98,-26.21C266.75,-28.52 331.75,-25.78 331.75,-18 331.75,-10.54 271.97,-7.72 208.18,-9.53"/>
<polygon fill="black" stroke="black" points="208.41,-7.08 201.49,-9.75 208.56,-11.97 208.41,-7.08"/>
</g>
<!-- Maximum_Orbital_Mining_Diamete&#45;&gt;Maximum_Orbital_Mining_Diamete -->
<g id="edge7" class="edge">
<title>Maximum_Orbital_Mining_Diamete&#45;&gt;Maximum_Orbital_Mining_Diamete</title>
<path fill="none" stroke="black" d="M200.22,-27.2C276.46,-30.53 353.75,-27.46 353.75,-18 353.75,-8.89 282.09,-5.71 208.71,-8.45"/>
<polygon fill="black" stroke="black" points="208.63,-6.01 201.73,-8.74 208.83,-10.9 208.63,-6.01"/>
</g>
</g>
</svg>
