<?xml version="1.0" encoding="UTF-8" standalone="no"?>
<!DOCTYPE svg PUBLIC "-//W3C//DTD SVG 1.1//EN"
 "http://www.w3.org/Graphics/SVG/1.1/DTD/svg11.dtd">
<!-- Generated by graphviz version 14.1.2 (20260124.0452)
 -->
<!-- Title: TechTree Pages: 1 -->
<svg width="322pt" height="857pt"
 viewBox="0.00 0.00 322.00 857.00" xmlns="http://www.w3.org/2000/svg" xmlns:xlink="http://www.w3.org/1999/xlink">
<g id="graph0" class="graph" transform="scale(1 1) rotate(0) translate(4 852.75)">
<title>TechTree</title>
<polygon fill="white" stroke="none" points="-4,4 -4,-852.75 318.38,-852.75 318.38,4 -4,4"/>
<text xml:space="preserve" text-anchor="middle" x="157.19" y="-833.35" font-family="Helvetica,sans-Serif" font-weight="bold" font-size="12.00">Maximum Particle Beam Range</text>
<!-- Particle_Beam_Range_60_000_km -->
<g id="node1" class="node">
<title>Particle_Beam_Range_60_000_km</title>
<path fill="#cce5ff" stroke="black" d="M136,-828C136,-828 12,-828 12,-828 6,-828 0,-822 0,-816 0,-816 0,-804 0,-804 0,-798 6,-792 12,-792 12,-792 136,-792 136,-792 142,-792 148,-798 148,-804 148,-804 148,-816 148,-816 148,-822 142,-828 136,-828"/>
<text xml:space="preserve" text-anchor="middle" x="74" y="-811.2" font-family="Helvetica,sans-Serif" font-size="9.00">Particle Beam Range 60,000 km</text>
<text xml:space="preserve" text-anchor="middle" x="74" y="-801.45" font-family="Helvetica,sans-Serif" font-size="9.00">1K RP</text>
</g>
<!-- Particle_Beam_Range_100_000_km -->
<g id="node2" class="node">
<title>Particle_Beam_Range_100_000_km</title>
<path fill="#cce5ff" stroke="black" d="M298.62,-756C298.62,-756 169.38,-756 169.38,-756 163.38,-756 157.38,-750 157.38,-744 157.38,-744 157.38,-732 157.38,-732 157.38,-726 163.38,-720 169.38,-720 169.38,-720 298.62,-720 298.62,-720 304.62,-720 310.62,-726 310.62,-732 310.62,-732 310.62,-744 310.62,-744 310.62,-750 304.62,-756 298.62,-756"/>
<text xml:space="preserve" text-anchor="middle" x="234" y="-739.2" font-family="Helvetica,sans-Serif" font-size="9.00">Particle Beam Range 100,000 km</text>
<text xml:space="preserve" text-anchor="middle" x="234" y="-729.45" font-family="Helvetica,sans-Serif" font-size="9.00">2K RP</text>
</g>
<!-- Particle_Beam_Range_150_000_km -->
<g id="node3" class="node">
<title>Particle_Beam_Range_150_000_km</title>
<path fill="#cce5ff" stroke="black" d="M298.62,-684C298.62,-684 169.38,-684 169.38,-684 163.38,-684 157.38,-678 157.38,-672 157.38,-672 157.38,-660 157.38,-660 157.38,-654 163.38,-648 169.38,-648 169.38,-648 298.62,-648 298.62,-648 304.62,-648 310.62,-654 310.62,-660 310.62,-660 310.62,-672 310.62,-672 310.62,-678 304.62,-684 298.62,-684"/>
<text xml:space="preserve" text-anchor="middle" x="234" y="-667.2" font-family="Helvetica,sans-Serif" font-size="9.00">Particle Beam Range 150,000 km</text>
<text xml:space="preserve" text-anchor="middle" x="234" y="-657.45" font-family="Helvetica,sans-Serif" font-size="9.00">4K RP</text>
</g>
<!-- Particle_Beam_Range_100_000_km&#45;&gt;Particle_Beam_Range_150_000_km -->
<g id="edge2" class="edge">
<title>Particle_Beam_Range_100_000_km&#45;&gt;Particle_Beam_Range_150_000_km</title>
<path fill="none" stroke="black" d="M234,-719.7C234,-711.22 234,-700.86 234,-691.58"/>
<polygon fill="black" stroke="black" points="236.1,-691.62 234,-685.62 231.9,-691.62 236.1,-691.62"/>
</g>
<!-- Particle_Beam_Range_200_000_km -->
<g id="node4" class="node">
<title>Particle_Beam_Range_200_000_km</title>
<path fill="#cce5ff" stroke="black" d="M298.62,-612C298.62,-612 169.38,-612 169.38,-612 163.38,-612 157.38,-606 157.38,-600 157.38,-600 157.38,-588 157.38,-588 157.38,-582 163.38,-576 169.38,-576 169.38,-576 298.62,-576 298.62,-576 304.62,-576 310.62,-582 310.62,-588 310.62,-588 310.62,-600 310.62,-600 310.62,-606 304.62,-612 298.62,-612"/>
<text xml:space="preserve" text-anchor="middle" x="234" y="-595.2" font-family="Helvetica,sans-Serif" font-size="9.00">Particle Beam Range 200,000 km</text>
<text xml:space="preserve" text-anchor="middle" x="234" y="-585.45" font-family="Helvetica,sans-Serif" font-size="9.00">8K RP</text>
</g>
<!-- Particle_Beam_Range_150_000_km&#45;&gt;Particle_Beam_Range_200_000_km -->
<g id="edge3" class="edge">
<title>Particle_Beam_Range_150_000_km&#45;&gt;Particle_Beam_Range_200_000_km</title>
<path fill="none" stroke="black" d="M234,-647.7C234,-639.22 234,-628.86 234,-619.58"/>
<polygon fill="black" stroke="black" points="236.1,-619.62 234,-613.62 231.9,-619.62 236.1,-619.62"/>
</g>
<!-- Particle_Beam_Range_240_000_km -->
<g id="node5" class="node">
<title>Particle_Beam_Range_240_000_km</title>
<path fill="#fff3cd" stroke="black" d="M298.62,-540C298.62,-540 169.38,-540 169.38,-540 163.38,-540 157.38,-534 157.38,-528 157.38,-528 157.38,-516 157.38,-516 157.38,-510 163.38,-504 169.38,-504 169.38,-504 298.62,-504 298.62,-504 304.62,-504 310.62,-510 310.62,-516 310.62,-516 310.62,-528 310.62,-528 310.62,-534 304.62,-540 298.62,-540"/>
<text xml:space="preserve" text-anchor="middle" x="234" y="-523.2" font-family="Helvetica,sans-Serif" font-size="9.00">Particle Beam Range 240,000 km</text>
<text xml:space="preserve" text-anchor="middle" x="234" y="-513.45" font-family="Helvetica,sans-Serif" font-size="9.00">15K RP</text>
</g>
<!-- Particle_Beam_Range_200_000_km&#45;&gt;Particle_Beam_Range_240_000_km -->
<g id="edge4" class="edge">
<title>Particle_Beam_Range_200_000_km&#45;&gt;Particle_Beam_Range_240_000_km</title>
<path fill="none" stroke="black" d="M234,-575.7C234,-567.22 234,-556.86 234,-547.58"/>
<polygon fill="black" stroke="black" points="236.1,-547.62 234,-541.62 231.9,-547.62 236.1,-547.62"/>
</g>
<!-- Particle_Beam_Range_320_000_km -->
<g id="node6" class="node">
<title>Particle_Beam_Range_320_000_km</title>
<path fill="#fff3cd" stroke="black" d="M298.62,-468C298.62,-468 169.38,-468 169.38,-468 163.38,-468 157.38,-462 157.38,-456 157.38,-456 157.38,-444 157.38,-444 157.38,-438 163.38,-432 169.38,-432 169.38,-432 298.62,-432 298.62,-432 304.62,-432 310.62,-438 310.62,-444 310.62,-444 310.62,-456 310.62,-456 310.62,-462 304.62,-468 298.62,-468"/>
<text xml:space="preserve" text-anchor="middle" x="234" y="-451.2" font-family="Helvetica,sans-Serif" font-size="9.00">Particle Beam Range 320,000 km</text>
<text xml:space="preserve" text-anchor="middle" x="234" y="-441.45" font-family="Helvetica,sans-Serif" font-size="9.00">30K RP</text>
</g>
<!-- Particle_Beam_Range_240_000_km&#45;&gt;Particle_Beam_Range_320_000_km -->
<g id="edge5" class="edge">
<title>Particle_Beam_Range_240_000_km&#45;&gt;Particle_Beam_Range_320_000_km</title>
<path fill="none" stroke="black" d="M234,-503.7C234,-495.22 234,-484.86 234,-475.58"/>
<polygon fill="black" stroke="black" points="236.1,-475.62 234,-469.62 231.9,-475.62 236.1,-475.62"/>
</g>
<!-- Particle_Beam_Range_400_000_km -->
<g id="node7" class="node">
<title>Particle_Beam_Range_400_000_km</title>
<path fill="#fff3cd" stroke="black" d="M298.62,-396C298.62,-396 169.38,-396 169.38,-396 163.38,-396 157.38,-390 157.38,-384 157.38,-384 157.38,-372 157.38,-372 157.38,-366 163.38,-360 169.38,-360 169.38,-360 298.62,-360 298.62,-360 304.62,-360 310.62,-366 310.62,-372 310.62,-372 310.62,-384 310.62,-384 310.62,-390 304.62,-396 298.62,-396"/>
<text xml:space="preserve" text-anchor="middle" x="234" y="-379.2" font-family="Helvetica,sans-Serif" font-size="9.00">Particle Beam Range 400,000 km</text>
<text xml:space="preserve" text-anchor="middle" x="234" y="-369.45" font-family="Helvetica,sans-Serif" font-size="9.00">60K RP</text>
</g>
<!-- Particle_Beam_Range_320_000_km&#45;&gt;Particle_Beam_Range_400_000_km -->
<g id="edge6" class="edge">
<title>Particle_Beam_Range_320_000_km&#45;&gt;Particle_Beam_Range_400_000_km</title>
<path fill="none" stroke="black" d="M234,-431.7C234,-423.22 234,-412.86 234,-403.58"/>
<polygon fill="black" stroke="black" points="236.1,-403.62 234,-397.62 231.9,-403.62 236.1,-403.62"/>
</g>
<!-- Particle_Beam_Range_500_000_km -->
<g id="node8" class="node">
<title>Particle_Beam_Range_500_000_km</title>
<path fill="#d4c4fb" stroke="black" d="M298.62,-324C298.62,-324 169.38,-324 169.38,-324 163.38,-324 157.38,-318 157.38,-312 157.38,-312 157.38,-300 157.38,-300 157.38,-294 163.38,-288 169.38,-288 169.38,-288 298.62,-288 298.62,-288 304.62,-288 310.62,-294 310.62,-300 310.62,-300 310.62,-312 310.62,-312 310.62,-318 304.62,-324 298.62,-324"/>
<text xml:space="preserve" text-anchor="middle" x="234" y="-307.2" font-family="Helvetica,sans-Serif" font-size="9.00">Particle Beam Range 500,000 km</text>
<text xml:space="preserve" text-anchor="middle" x="234" y="-297.45" font-family="Helvetica,sans-Serif" font-size="9.00">120K RP</text>
</g>
<!-- Particle_Beam_Range_400_000_km&#45;&gt;Particle_Beam_Range_500_000_km -->
<g id="edge7" class="edge">
<title>Particle_Beam_Range_400_000_km&#45;&gt;Particle_Beam_Range_500_000_km</title>
<path fill="none" stroke="black" d="M234,-359.7C234,-351.22 234,-340.86 234,-331.58"/>
<polygon fill="black" stroke="black" points="236.1,-331.62 234,-325.62 231.9,-331.62 236.1,-331.62"/>
</g>
<!-- Particle_Beam_Range_640_000_km -->
<g id="node9" class="node">
<title>Particle_Beam_Range_640_000_km</title>
<path fill="#d4c4fb" stroke="black" d="M298.62,-252C298.62,-252 169.38,-252 169.38,-252 163.38,-252 157.38,-246 157.38,-240 157.38,-240 157.38,-228 157.38,-228 157.38,-222 163.38,-216 169.38,-216 169.38,-216 298.62,-216 298.62,-216 304.62,-216 310.62,-222 310.62,-228 310.62,-228 310.62,-240 310.62,-240 310.62,-246 304.62,-252 298.62,-252"/>
<text xml:space="preserve" text-anchor="middle" x="234" y="-235.2" font-family="Helvetica,sans-Serif" font-size="9.00">Particle Beam Range 640,000 km</text>
<text xml:space="preserve" text-anchor="middle" x="234" y="-225.45" font-family="Helvetica,sans-Serif" font-size="9.00">240K RP</text>
</g>
<!-- Particle_Beam_Range_500_000_km&#45;&gt;Particle_Beam_Range_640_000_km -->
<g id="edge8" class="edge">
<title>Particle_Beam_Range_500_000_km&#45;&gt;Particle_Beam_Range_640_000_km</title>
<path fill="none" stroke="black" d="M234,-287.7C234,-279.22 234,-268.86 234,-259.58"/>
<polygon fill="black" stroke="black" points="236.1,-259.62 234,-253.62 231.9,-259.62 236.1,-259.62"/>
</g>
<!-- Particle_Beam_Range_800_000_km -->
<g id="node10" class="node">
<title>Particle_Beam_Range_800_000_km</title>
<path fill="#d4c4fb" stroke="black" d="M298.62,-180C298.62,-180 169.38,-180 169.38,-180 163.38,-180 157.38,-174 157.38,-168 157.38,-168 157.38,-156 157.38,-156 157.38,-150 163.38,-144 169.38,-144 169.38,-144 298.62,-144 298.62,-144 304.62,-144 310.62,-150 310.62,-156 310.62,-156 310.62,-168 310.62,-168 310.62,-174 304.62,-180 298.62,-180"/>
<text xml:space="preserve" text-anchor="middle" x="234" y="-163.2" font-family="Helvetica,sans-Serif" font-size="9.00">Particle Beam Range 800,000 km</text>
<text xml:space="preserve" text-anchor="middle" x="234" y="-153.45" font-family="Helvetica,sans-Serif" font-size="9.00">500K RP</text>
</g>
<!-- Particle_Beam_Range_640_000_km&#45;&gt;Particle_Beam_Range_800_000_km -->
<g id="edge9" class="edge">
<title>Particle_Beam_Range_640_000_km&#45;&gt;Particle_Beam_Range_800_000_km</title>
<path fill="none" stroke="black" d="M234,-215.7C234,-207.22 234,-196.86 234,-187.58"/>
<polygon fill="black" stroke="black" points="236.1,-187.62 234,-181.62 231.9,-187.62 236.1,-187.62"/>
</g>
<!-- Particle_Beam_Range_1_000_000_ -->
<g id="node11" class="node">
<title>Particle_Beam_Range_1_000_000_</title>
<path fill="#d4c4fb" stroke="black" d="M302.38,-108C302.38,-108 165.62,-108 165.62,-108 159.62,-108 153.62,-102 153.62,-96 153.62,-96 153.62,-84 153.62,-84 153.62,-78 159.62,-72 165.62,-72 165.62,-72 302.38,-72 302.38,-72 308.38,-72 314.38,-78 314.38,-84 314.38,-84 314.38,-96 314.38,-96 314.38,-102 308.38,-108 302.38,-108"/>
<text xml:space="preserve" text-anchor="middle" x="234" y="-91.2" font-family="Helvetica,sans-Serif" font-size="9.00">Particle Beam Range 1,000,000 km</text>
<text xml:space="preserve" text-anchor="middle" x="234" y="-81.45" font-family="Helvetica,sans-Serif" font-size="9.00">1.0M RP</text>
</g>
<!-- Particle_Beam_Range_800_000_km&#45;&gt;Particle_Beam_Range_1_000_000_ -->
<g id="edge10" class="edge">
<title>Particle_Beam_Range_800_000_km&#45;&gt;Particle_Beam_Range_1_000_000_</title>
<path fill="none" stroke="black" d="M234,-143.7C234,-135.22 234,-124.86 234,-115.58"/>
<polygon fill="black" stroke="black" points="236.1,-115.62 234,-109.62 231.9,-115.62 236.1,-115.62"/>
</g>
<!-- Particle_Beam_Range_1_200_000_ -->
<g id="node12" class="node">
<title>Particle_Beam_Range_1_200_000_</title>
<path fill="#f8d7da" stroke="black" d="M302.38,-36C302.38,-36 165.62,-36 165.62,-36 159.62,-36 153.62,-30 153.62,-24 153.62,-24 153.62,-12 153.62,-12 153.62,-6 159.62,0 165.62,0 165.62,0 302.38,0 302.38,0 308.38,0 314.38,-6 314.38,-12 314.38,-12 314.38,-24 314.38,-24 314.38,-30 308.38,-36 302.38,-36"/>
<text xml:space="preserve" text-anchor="middle" x="234" y="-19.2" font-family="Helvetica,sans-Serif" font-size="9.00">Particle Beam Range 1,200,000 km</text>
<text xml:space="preserve" text-anchor="middle" x="234" y="-9.45" font-family="Helvetica,sans-Serif" font-size="9.00">2.0M RP</text>
</g>
<!-- Particle_Beam_Range_1_000_000_&#45;&gt;Particle_Beam_Range_1_200_000_ -->
<g id="edge11" class="edge">
<title>Particle_Beam_Range_1_000_000_&#45;&gt;Particle_Beam_Range_1_200_000_</title>
<path fill="none" stroke="black" d="M234,-71.7C234,-63.22 234,-52.86 234,-43.58"/>
<polygon fill="black" stroke="black" points="236.1,-43.62 234,-37.62 231.9,-43.62 236.1,-43.62"/>
</g>
<!-- ext_Trans_Newtonian_Technology -->
<g id="node13" class="node">
<title>ext_Trans_Newtonian_Technology</title>
<path fill="#f0f0f0" stroke="black" stroke-dasharray="5,2" d="M290,-828C290,-828 178,-828 178,-828 172,-828 166,-822 166,-816 166,-816 166,-804 166,-804 166,-798 172,-792 178,-792 178,-792 290,-792 290,-792 296,-792 302,-798 302,-804 302,-804 302,-816 302,-816 302,-822 296,-828 290,-828"/>
<text xml:space="preserve" text-anchor="middle" x="234" y="-806.33" font-family="Helvetica,sans-Serif" font-size="9.00">Trans&#45;Newtonian Technology</text>
</g>
<!-- ext_Trans_Newtonian_Technology&#45;&gt;Particle_Beam_Range_100_000_km -->
<g id="edge1" class="edge">
<title>ext_Trans_Newtonian_Technology&#45;&gt;Particle_Beam_Range_100_000_km</title>
<path fill="none" stroke="black" d="M234,-791.7C234,-783.22 234,-772.86 234,-763.58"/>
<polygon fill="black" stroke="black" points="236.1,-763.62 234,-757.62 231.9,-763.62 236.1,-763.62"/>
</g>
</g>
</svg>
