<?xml version="1.0" encoding="UTF-8" standalone="no"?>
<!DOCTYPE svg PUBLIC "-//W3C//DTD SVG 1.1//EN"
 "http://www.w3.org/Graphics/SVG/1.1/DTD/svg11.dtd">
<!-- Generated by graphviz version 14.1.2 (20260124.0452)
 -->
<!-- Title: TechTree Pages: 1 -->
<svg width="168pt" height="457pt"
 viewBox="0.00 0.00 168.00 457.00" xmlns="http://www.w3.org/2000/svg" xmlns:xlink="http://www.w3.org/1999/xlink">
<g id="graph0" class="graph" transform="scale(1 1) rotate(0) translate(4 453)">
<title>TechTree</title>
<polygon fill="white" stroke="none" points="-4,4 -4,-453 164,-453 164,4 -4,4"/>
<text xml:space="preserve" text-anchor="middle" x="80" y="-431.7" font-family="Helvetica,sans-Serif" font-weight="bold" font-size="14.00">Maximum Engine Size</text>
<!-- Maximum_Engine_Size___25 -->
<g id="node1" class="node">
<title>Maximum_Engine_Size___25</title>
<path fill="#cce5ff" stroke="black" d="M134.88,-426C134.88,-426 25.12,-426 25.12,-426 19.12,-426 13.12,-420 13.12,-414 13.12,-414 13.12,-402 13.12,-402 13.12,-396 19.12,-390 25.12,-390 25.12,-390 134.88,-390 134.88,-390 140.88,-390 146.88,-396 146.88,-402 146.88,-402 146.88,-414 146.88,-414 146.88,-420 140.88,-426 134.88,-426"/>
<text xml:space="preserve" text-anchor="middle" x="80" y="-409.75" font-family="Helvetica,sans-Serif" font-size="10.00">Maximum Engine Size &#45; 25</text>
<text xml:space="preserve" text-anchor="middle" x="80" y="-398.5" font-family="Helvetica,sans-Serif" font-size="10.00">1K RP</text>
</g>
<!-- Maximum_Engine_Size___40 -->
<g id="node2" class="node">
<title>Maximum_Engine_Size___40</title>
<path fill="#cce5ff" stroke="black" d="M134.88,-361C134.88,-361 25.12,-361 25.12,-361 19.12,-361 13.12,-355 13.12,-349 13.12,-349 13.12,-337 13.12,-337 13.12,-331 19.12,-325 25.12,-325 25.12,-325 134.88,-325 134.88,-325 140.88,-325 146.88,-331 146.88,-337 146.88,-337 146.88,-349 146.88,-349 146.88,-355 140.88,-361 134.88,-361"/>
<text xml:space="preserve" text-anchor="middle" x="80" y="-344.75" font-family="Helvetica,sans-Serif" font-size="10.00">Maximum Engine Size &#45; 40</text>
<text xml:space="preserve" text-anchor="middle" x="80" y="-333.5" font-family="Helvetica,sans-Serif" font-size="10.00">2K RP</text>
</g>
<!-- Maximum_Engine_Size___25&#45;&gt;Maximum_Engine_Size___40 -->
<g id="edge1" class="edge">
<title>Maximum_Engine_Size___25&#45;&gt;Maximum_Engine_Size___40</title>
<path fill="none" stroke="black" d="M80,-389.78C80,-383.53 80,-376.33 80,-369.52"/>
<polygon fill="black" stroke="black" points="82.45,-369.71 80,-362.71 77.55,-369.71 82.45,-369.71"/>
</g>
<!-- Maximum_Engine_Size___60 -->
<g id="node3" class="node">
<title>Maximum_Engine_Size___60</title>
<path fill="#cce5ff" stroke="black" d="M134.88,-296C134.88,-296 25.12,-296 25.12,-296 19.12,-296 13.12,-290 13.12,-284 13.12,-284 13.12,-272 13.12,-272 13.12,-266 19.12,-260 25.12,-260 25.12,-260 134.88,-260 134.88,-260 140.88,-260 146.88,-266 146.88,-272 146.88,-272 146.88,-284 146.88,-284 146.88,-290 140.88,-296 134.88,-296"/>
<text xml:space="preserve" text-anchor="middle" x="80" y="-279.75" font-family="Helvetica,sans-Serif" font-size="10.00">Maximum Engine Size &#45; 60</text>
<text xml:space="preserve" text-anchor="middle" x="80" y="-268.5" font-family="Helvetica,sans-Serif" font-size="10.00">4K RP</text>
</g>
<!-- Maximum_Engine_Size___40&#45;&gt;Maximum_Engine_Size___60 -->
<g id="edge2" class="edge">
<title>Maximum_Engine_Size___40&#45;&gt;Maximum_Engine_Size___60</title>
<path fill="none" stroke="black" d="M80,-324.78C80,-318.53 80,-311.33 80,-304.52"/>
<polygon fill="black" stroke="black" points="82.45,-304.71 80,-297.71 77.55,-304.71 82.45,-304.71"/>
</g>
<!-- Maximum_Engine_Size___100 -->
<g id="node4" class="node">
<title>Maximum_Engine_Size___100</title>
<path fill="#cce5ff" stroke="black" d="M137.5,-231C137.5,-231 22.5,-231 22.5,-231 16.5,-231 10.5,-225 10.5,-219 10.5,-219 10.5,-207 10.5,-207 10.5,-201 16.5,-195 22.5,-195 22.5,-195 137.5,-195 137.5,-195 143.5,-195 149.5,-201 149.5,-207 149.5,-207 149.5,-219 149.5,-219 149.5,-225 143.5,-231 137.5,-231"/>
<text xml:space="preserve" text-anchor="middle" x="80" y="-214.75" font-family="Helvetica,sans-Serif" font-size="10.00">Maximum Engine Size &#45; 100</text>
<text xml:space="preserve" text-anchor="middle" x="80" y="-203.5" font-family="Helvetica,sans-Serif" font-size="10.00">8K RP</text>
</g>
<!-- Maximum_Engine_Size___60&#45;&gt;Maximum_Engine_Size___100 -->
<g id="edge3" class="edge">
<title>Maximum_Engine_Size___60&#45;&gt;Maximum_Engine_Size___100</title>
<path fill="none" stroke="black" d="M80,-259.78C80,-253.53 80,-246.33 80,-239.52"/>
<polygon fill="black" stroke="black" points="82.45,-239.71 80,-232.71 77.55,-239.71 82.45,-239.71"/>
</g>
<!-- Maximum_Engine_Size___160 -->
<g id="node5" class="node">
<title>Maximum_Engine_Size___160</title>
<path fill="#fff3cd" stroke="black" d="M137.5,-166C137.5,-166 22.5,-166 22.5,-166 16.5,-166 10.5,-160 10.5,-154 10.5,-154 10.5,-142 10.5,-142 10.5,-136 16.5,-130 22.5,-130 22.5,-130 137.5,-130 137.5,-130 143.5,-130 149.5,-136 149.5,-142 149.5,-142 149.5,-154 149.5,-154 149.5,-160 143.5,-166 137.5,-166"/>
<text xml:space="preserve" text-anchor="middle" x="80" y="-149.75" font-family="Helvetica,sans-Serif" font-size="10.00">Maximum Engine Size &#45; 160</text>
<text xml:space="preserve" text-anchor="middle" x="80" y="-138.5" font-family="Helvetica,sans-Serif" font-size="10.00">15K RP</text>
</g>
<!-- Maximum_Engine_Size___100&#45;&gt;Maximum_Engine_Size___160 -->
<g id="edge4" class="edge">
<title>Maximum_Engine_Size___100&#45;&gt;Maximum_Engine_Size___160</title>
<path fill="none" stroke="black" d="M80,-194.78C80,-188.53 80,-181.33 80,-174.52"/>
<polygon fill="black" stroke="black" points="82.45,-174.71 80,-167.71 77.55,-174.71 82.45,-174.71"/>
</g>
<!-- Maximum_Engine_Size___250 -->
<g id="node6" class="node">
<title>Maximum_Engine_Size___250</title>
<path fill="#fff3cd" stroke="black" d="M137.5,-101C137.5,-101 22.5,-101 22.5,-101 16.5,-101 10.5,-95 10.5,-89 10.5,-89 10.5,-77 10.5,-77 10.5,-71 16.5,-65 22.5,-65 22.5,-65 137.5,-65 137.5,-65 143.5,-65 149.5,-71 149.5,-77 149.5,-77 149.5,-89 149.5,-89 149.5,-95 143.5,-101 137.5,-101"/>
<text xml:space="preserve" text-anchor="middle" x="80" y="-84.75" font-family="Helvetica,sans-Serif" font-size="10.00">Maximum Engine Size &#45; 250</text>
<text xml:space="preserve" text-anchor="middle" x="80" y="-73.5" font-family="Helvetica,sans-Serif" font-size="10.00">30K RP</text>
</g>
<!-- Maximum_Engine_Size___160&#45;&gt;Maximum_Engine_Size___250 -->
<g id="edge5" class="edge">
<title>Maximum_Engine_Size___160&#45;&gt;Maximum_Engine_Size___250</title>
<path fill="none" stroke="black" d="M80,-129.78C80,-123.53 80,-116.33 80,-109.52"/>
<polygon fill="black" stroke="black" points="82.45,-109.71 80,-102.71 77.55,-109.71 82.45,-109.71"/>
</g>
<!-- Maximum_Engine_Size___400 -->
<g id="node7" class="node">
<title>Maximum_Engine_Size___400</title>
<path fill="#fff3cd" stroke="black" d="M137.5,-36C137.5,-36 22.5,-36 22.5,-36 16.5,-36 10.5,-30 10.5,-24 10.5,-24 10.5,-12 10.5,-12 10.5,-6 16.5,0 22.5,0 22.5,0 137.5,0 137.5,0 143.5,0 149.5,-6 149.5,-12 149.5,-12 149.5,-24 149.5,-24 149.5,-30 143.5,-36 137.5,-36"/>
<text xml:space="preserve" text-anchor="middle" x="80" y="-19.75" font-family="Helvetica,sans-Serif" font-size="10.00">Maximum Engine Size &#45; 400</text>
<text xml:space="preserve" text-anchor="middle" x="80" y="-8.5" font-family="Helvetica,sans-Serif" font-size="10.00">60K RP</text>
</g>
<!-- Maximum_Engine_Size___250&#45;&gt;Maximum_Engine_Size___400 -->
<g id="edge6" class="edge">
<title>Maximum_Engine_Size___250&#45;&gt;Maximum_Engine_Size___400</title>
<path fill="none" stroke="black" d="M80,-64.78C80,-58.53 80,-51.33 80,-44.52"/>
<polygon fill="black" stroke="black" points="82.45,-44.71 80,-37.71 77.55,-44.71 82.45,-44.71"/>
</g>
</g>
</svg>
