<?xml version="1.0" encoding="UTF-8" standalone="no"?>
<!DOCTYPE svg PUBLIC "-//W3C//DTD SVG 1.1//EN"
 "http://www.w3.org/Graphics/SVG/1.1/DTD/svg11.dtd">
<!-- Generated by graphviz version 14.1.2 (20260124.0452)
 -->
<!-- Title: TechTree Pages: 1 -->
<svg width="355pt" height="717pt"
 viewBox="0.00 0.00 355.00 717.00" xmlns="http://www.w3.org/2000/svg" xmlns:xlink="http://www.w3.org/1999/xlink">
<g id="graph0" class="graph" transform="scale(1 1) rotate(0) translate(4 713)">
<title>TechTree</title>
<polygon fill="white" stroke="none" points="-4,4 -4,-713 350.5,-713 350.5,4 -4,4"/>
<text xml:space="preserve" text-anchor="middle" x="173.25" y="-691.7" font-family="Helvetica,sans-Serif" font-weight="bold" font-size="14.00">Maximum Particle Beam Range</text>
<!-- Particle_Beam_Range_60_000_km -->
<g id="node1" class="node">
<title>Particle_Beam_Range_60_000_km</title>
<path fill="#cce5ff" stroke="black" d="M145.75,-686C145.75,-686 12,-686 12,-686 6,-686 0,-680 0,-674 0,-674 0,-662 0,-662 0,-656 6,-650 12,-650 12,-650 145.75,-650 145.75,-650 151.75,-650 157.75,-656 157.75,-662 157.75,-662 157.75,-674 157.75,-674 157.75,-680 151.75,-686 145.75,-686"/>
<text xml:space="preserve" text-anchor="middle" x="78.88" y="-669.75" font-family="Helvetica,sans-Serif" font-size="10.00">Particle Beam Range 60,000 km</text>
<text xml:space="preserve" text-anchor="middle" x="78.88" y="-658.5" font-family="Helvetica,sans-Serif" font-size="10.00">1K RP</text>
</g>
<!-- Particle_Beam_Range_100_000_km -->
<g id="node2" class="node">
<title>Particle_Beam_Range_100_000_km</title>
<path fill="#cce5ff" stroke="black" d="M330.38,-686C330.38,-686 191.38,-686 191.38,-686 185.38,-686 179.38,-680 179.38,-674 179.38,-674 179.38,-662 179.38,-662 179.38,-656 185.38,-650 191.38,-650 191.38,-650 330.38,-650 330.38,-650 336.38,-650 342.38,-656 342.38,-662 342.38,-662 342.38,-674 342.38,-674 342.38,-680 336.38,-686 330.38,-686"/>
<text xml:space="preserve" text-anchor="middle" x="260.88" y="-669.75" font-family="Helvetica,sans-Serif" font-size="10.00">Particle Beam Range 100,000 km</text>
<text xml:space="preserve" text-anchor="middle" x="260.88" y="-658.5" font-family="Helvetica,sans-Serif" font-size="10.00">2K RP</text>
</g>
<!-- Particle_Beam_Range_150_000_km -->
<g id="node3" class="node">
<title>Particle_Beam_Range_150_000_km</title>
<path fill="#cce5ff" stroke="black" d="M330.38,-621C330.38,-621 191.38,-621 191.38,-621 185.38,-621 179.38,-615 179.38,-609 179.38,-609 179.38,-597 179.38,-597 179.38,-591 185.38,-585 191.38,-585 191.38,-585 330.38,-585 330.38,-585 336.38,-585 342.38,-591 342.38,-597 342.38,-597 342.38,-609 342.38,-609 342.38,-615 336.38,-621 330.38,-621"/>
<text xml:space="preserve" text-anchor="middle" x="260.88" y="-604.75" font-family="Helvetica,sans-Serif" font-size="10.00">Particle Beam Range 150,000 km</text>
<text xml:space="preserve" text-anchor="middle" x="260.88" y="-593.5" font-family="Helvetica,sans-Serif" font-size="10.00">4K RP</text>
</g>
<!-- Particle_Beam_Range_100_000_km&#45;&gt;Particle_Beam_Range_150_000_km -->
<g id="edge1" class="edge">
<title>Particle_Beam_Range_100_000_km&#45;&gt;Particle_Beam_Range_150_000_km</title>
<path fill="none" stroke="black" d="M260.88,-649.78C260.88,-643.53 260.88,-636.33 260.88,-629.52"/>
<polygon fill="black" stroke="black" points="263.33,-629.71 260.88,-622.71 258.43,-629.71 263.33,-629.71"/>
</g>
<!-- Particle_Beam_Range_200_000_km -->
<g id="node4" class="node">
<title>Particle_Beam_Range_200_000_km</title>
<path fill="#cce5ff" stroke="black" d="M330.38,-556C330.38,-556 191.38,-556 191.38,-556 185.38,-556 179.38,-550 179.38,-544 179.38,-544 179.38,-532 179.38,-532 179.38,-526 185.38,-520 191.38,-520 191.38,-520 330.38,-520 330.38,-520 336.38,-520 342.38,-526 342.38,-532 342.38,-532 342.38,-544 342.38,-544 342.38,-550 336.38,-556 330.38,-556"/>
<text xml:space="preserve" text-anchor="middle" x="260.88" y="-539.75" font-family="Helvetica,sans-Serif" font-size="10.00">Particle Beam Range 200,000 km</text>
<text xml:space="preserve" text-anchor="middle" x="260.88" y="-528.5" font-family="Helvetica,sans-Serif" font-size="10.00">8K RP</text>
</g>
<!-- Particle_Beam_Range_150_000_km&#45;&gt;Particle_Beam_Range_200_000_km -->
<g id="edge2" class="edge">
<title>Particle_Beam_Range_150_000_km&#45;&gt;Particle_Beam_Range_200_000_km</title>
<path fill="none" stroke="black" d="M260.88,-584.78C260.88,-578.53 260.88,-571.33 260.88,-564.52"/>
<polygon fill="black" stroke="black" points="263.33,-564.71 260.88,-557.71 258.43,-564.71 263.33,-564.71"/>
</g>
<!-- Particle_Beam_Range_240_000_km -->
<g id="node5" class="node">
<title>Particle_Beam_Range_240_000_km</title>
<path fill="#fff3cd" stroke="black" d="M330.38,-491C330.38,-491 191.38,-491 191.38,-491 185.38,-491 179.38,-485 179.38,-479 179.38,-479 179.38,-467 179.38,-467 179.38,-461 185.38,-455 191.38,-455 191.38,-455 330.38,-455 330.38,-455 336.38,-455 342.38,-461 342.38,-467 342.38,-467 342.38,-479 342.38,-479 342.38,-485 336.38,-491 330.38,-491"/>
<text xml:space="preserve" text-anchor="middle" x="260.88" y="-474.75" font-family="Helvetica,sans-Serif" font-size="10.00">Particle Beam Range 240,000 km</text>
<text xml:space="preserve" text-anchor="middle" x="260.88" y="-463.5" font-family="Helvetica,sans-Serif" font-size="10.00">15K RP</text>
</g>
<!-- Particle_Beam_Range_200_000_km&#45;&gt;Particle_Beam_Range_240_000_km -->
<g id="edge3" class="edge">
<title>Particle_Beam_Range_200_000_km&#45;&gt;Particle_Beam_Range_240_000_km</title>
<path fill="none" stroke="black" d="M260.88,-519.78C260.88,-513.53 260.88,-506.33 260.88,-499.52"/>
<polygon fill="black" stroke="black" points="263.33,-499.71 260.88,-492.71 258.43,-499.71 263.33,-499.71"/>
</g>
<!-- Particle_Beam_Range_320_000_km -->
<g id="node6" class="node">
<title>Particle_Beam_Range_320_000_km</title>
<path fill="#fff3cd" stroke="black" d="M330.38,-426C330.38,-426 191.38,-426 191.38,-426 185.38,-426 179.38,-420 179.38,-414 179.38,-414 179.38,-402 179.38,-402 179.38,-396 185.38,-390 191.38,-390 191.38,-390 330.38,-390 330.38,-390 336.38,-390 342.38,-396 342.38,-402 342.38,-402 342.38,-414 342.38,-414 342.38,-420 336.38,-426 330.38,-426"/>
<text xml:space="preserve" text-anchor="middle" x="260.88" y="-409.75" font-family="Helvetica,sans-Serif" font-size="10.00">Particle Beam Range 320,000 km</text>
<text xml:space="preserve" text-anchor="middle" x="260.88" y="-398.5" font-family="Helvetica,sans-Serif" font-size="10.00">30K RP</text>
</g>
<!-- Particle_Beam_Range_240_000_km&#45;&gt;Particle_Beam_Range_320_000_km -->
<g id="edge4" class="edge">
<title>Particle_Beam_Range_240_000_km&#45;&gt;Particle_Beam_Range_320_000_km</title>
<path fill="none" stroke="black" d="M260.88,-454.78C260.88,-448.53 260.88,-441.33 260.88,-434.52"/>
<polygon fill="black" stroke="black" points="263.33,-434.71 260.88,-427.71 258.43,-434.71 263.33,-434.71"/>
</g>
<!-- Particle_Beam_Range_400_000_km -->
<g id="node7" class="node">
<title>Particle_Beam_Range_400_000_km</title>
<path fill="#fff3cd" stroke="black" d="M330.38,-361C330.38,-361 191.38,-361 191.38,-361 185.38,-361 179.38,-355 179.38,-349 179.38,-349 179.38,-337 179.38,-337 179.38,-331 185.38,-325 191.38,-325 191.38,-325 330.38,-325 330.38,-325 336.38,-325 342.38,-331 342.38,-337 342.38,-337 342.38,-349 342.38,-349 342.38,-355 336.38,-361 330.38,-361"/>
<text xml:space="preserve" text-anchor="middle" x="260.88" y="-344.75" font-family="Helvetica,sans-Serif" font-size="10.00">Particle Beam Range 400,000 km</text>
<text xml:space="preserve" text-anchor="middle" x="260.88" y="-333.5" font-family="Helvetica,sans-Serif" font-size="10.00">60K RP</text>
</g>
<!-- Particle_Beam_Range_320_000_km&#45;&gt;Particle_Beam_Range_400_000_km -->
<g id="edge5" class="edge">
<title>Particle_Beam_Range_320_000_km&#45;&gt;Particle_Beam_Range_400_000_km</title>
<path fill="none" stroke="black" d="M260.88,-389.78C260.88,-383.53 260.88,-376.33 260.88,-369.52"/>
<polygon fill="black" stroke="black" points="263.33,-369.71 260.88,-362.71 258.43,-369.71 263.33,-369.71"/>
</g>
<!-- Particle_Beam_Range_500_000_km -->
<g id="node8" class="node">
<title>Particle_Beam_Range_500_000_km</title>
<path fill="#d4c4fb" stroke="black" d="M330.38,-296C330.38,-296 191.38,-296 191.38,-296 185.38,-296 179.38,-290 179.38,-284 179.38,-284 179.38,-272 179.38,-272 179.38,-266 185.38,-260 191.38,-260 191.38,-260 330.38,-260 330.38,-260 336.38,-260 342.38,-266 342.38,-272 342.38,-272 342.38,-284 342.38,-284 342.38,-290 336.38,-296 330.38,-296"/>
<text xml:space="preserve" text-anchor="middle" x="260.88" y="-279.75" font-family="Helvetica,sans-Serif" font-size="10.00">Particle Beam Range 500,000 km</text>
<text xml:space="preserve" text-anchor="middle" x="260.88" y="-268.5" font-family="Helvetica,sans-Serif" font-size="10.00">120K RP</text>
</g>
<!-- Particle_Beam_Range_400_000_km&#45;&gt;Particle_Beam_Range_500_000_km -->
<g id="edge6" class="edge">
<title>Particle_Beam_Range_400_000_km&#45;&gt;Particle_Beam_Range_500_000_km</title>
<path fill="none" stroke="black" d="M260.88,-324.78C260.88,-318.53 260.88,-311.33 260.88,-304.52"/>
<polygon fill="black" stroke="black" points="263.33,-304.71 260.88,-297.71 258.43,-304.71 263.33,-304.71"/>
</g>
<!-- Particle_Beam_Range_640_000_km -->
<g id="node9" class="node">
<title>Particle_Beam_Range_640_000_km</title>
<path fill="#d4c4fb" stroke="black" d="M330.38,-231C330.38,-231 191.38,-231 191.38,-231 185.38,-231 179.38,-225 179.38,-219 179.38,-219 179.38,-207 179.38,-207 179.38,-201 185.38,-195 191.38,-195 191.38,-195 330.38,-195 330.38,-195 336.38,-195 342.38,-201 342.38,-207 342.38,-207 342.38,-219 342.38,-219 342.38,-225 336.38,-231 330.38,-231"/>
<text xml:space="preserve" text-anchor="middle" x="260.88" y="-214.75" font-family="Helvetica,sans-Serif" font-size="10.00">Particle Beam Range 640,000 km</text>
<text xml:space="preserve" text-anchor="middle" x="260.88" y="-203.5" font-family="Helvetica,sans-Serif" font-size="10.00">240K RP</text>
</g>
<!-- Particle_Beam_Range_500_000_km&#45;&gt;Particle_Beam_Range_640_000_km -->
<g id="edge7" class="edge">
<title>Particle_Beam_Range_500_000_km&#45;&gt;Particle_Beam_Range_640_000_km</title>
<path fill="none" stroke="black" d="M260.88,-259.78C260.88,-253.53 260.88,-246.33 260.88,-239.52"/>
<polygon fill="black" stroke="black" points="263.33,-239.71 260.88,-232.71 258.43,-239.71 263.33,-239.71"/>
</g>
<!-- Particle_Beam_Range_800_000_km -->
<g id="node10" class="node">
<title>Particle_Beam_Range_800_000_km</title>
<path fill="#d4c4fb" stroke="black" d="M330.38,-166C330.38,-166 191.38,-166 191.38,-166 185.38,-166 179.38,-160 179.38,-154 179.38,-154 179.38,-142 179.38,-142 179.38,-136 185.38,-130 191.38,-130 191.38,-130 330.38,-130 330.38,-130 336.38,-130 342.38,-136 342.38,-142 342.38,-142 342.38,-154 342.38,-154 342.38,-160 336.38,-166 330.38,-166"/>
<text xml:space="preserve" text-anchor="middle" x="260.88" y="-149.75" font-family="Helvetica,sans-Serif" font-size="10.00">Particle Beam Range 800,000 km</text>
<text xml:space="preserve" text-anchor="middle" x="260.88" y="-138.5" font-family="Helvetica,sans-Serif" font-size="10.00">500K RP</text>
</g>
<!-- Particle_Beam_Range_640_000_km&#45;&gt;Particle_Beam_Range_800_000_km -->
<g id="edge8" class="edge">
<title>Particle_Beam_Range_640_000_km&#45;&gt;Particle_Beam_Range_800_000_km</title>
<path fill="none" stroke="black" d="M260.88,-194.78C260.88,-188.53 260.88,-181.33 260.88,-174.52"/>
<polygon fill="black" stroke="black" points="263.33,-174.71 260.88,-167.71 258.43,-174.71 263.33,-174.71"/>
</g>
<!-- Particle_Beam_Range_1_000_000_ -->
<g id="node11" class="node">
<title>Particle_Beam_Range_1_000_000_</title>
<path fill="#d4c4fb" stroke="black" d="M334.5,-101C334.5,-101 187.25,-101 187.25,-101 181.25,-101 175.25,-95 175.25,-89 175.25,-89 175.25,-77 175.25,-77 175.25,-71 181.25,-65 187.25,-65 187.25,-65 334.5,-65 334.5,-65 340.5,-65 346.5,-71 346.5,-77 346.5,-77 346.5,-89 346.5,-89 346.5,-95 340.5,-101 334.5,-101"/>
<text xml:space="preserve" text-anchor="middle" x="260.88" y="-84.75" font-family="Helvetica,sans-Serif" font-size="10.00">Particle Beam Range 1,000,000 km</text>
<text xml:space="preserve" text-anchor="middle" x="260.88" y="-73.5" font-family="Helvetica,sans-Serif" font-size="10.00">1.0M RP</text>
</g>
<!-- Particle_Beam_Range_800_000_km&#45;&gt;Particle_Beam_Range_1_000_000_ -->
<g id="edge9" class="edge">
<title>Particle_Beam_Range_800_000_km&#45;&gt;Particle_Beam_Range_1_000_000_</title>
<path fill="none" stroke="black" d="M260.88,-129.78C260.88,-123.53 260.88,-116.33 260.88,-109.52"/>
<polygon fill="black" stroke="black" points="263.33,-109.71 260.88,-102.71 258.43,-109.71 263.33,-109.71"/>
</g>
<!-- Particle_Beam_Range_1_200_000_ -->
<g id="node12" class="node">
<title>Particle_Beam_Range_1_200_000_</title>
<path fill="#f8d7da" stroke="black" d="M334.5,-36C334.5,-36 187.25,-36 187.25,-36 181.25,-36 175.25,-30 175.25,-24 175.25,-24 175.25,-12 175.25,-12 175.25,-6 181.25,0 187.25,0 187.25,0 334.5,0 334.5,0 340.5,0 346.5,-6 346.5,-12 346.5,-12 346.5,-24 346.5,-24 346.5,-30 340.5,-36 334.5,-36"/>
<text xml:space="preserve" text-anchor="middle" x="260.88" y="-19.75" font-family="Helvetica,sans-Serif" font-size="10.00">Particle Beam Range 1,200,000 km</text>
<text xml:space="preserve" text-anchor="middle" x="260.88" y="-8.5" font-family="Helvetica,sans-Serif" font-size="10.00">2.0M RP</text>
</g>
<!-- Particle_Beam_Range_1_000_000_&#45;&gt;Particle_Beam_Range_1_200_000_ -->
<g id="edge10" class="edge">
<title>Particle_Beam_Range_1_000_000_&#45;&gt;Particle_Beam_Range_1_200_000_</title>
<path fill="none" stroke="black" d="M260.88,-64.78C260.88,-58.53 260.88,-51.33 260.88,-44.52"/>
<polygon fill="black" stroke="black" points="263.33,-44.71 260.88,-37.71 258.43,-44.71 263.33,-44.71"/>
</g>
</g>
</svg>
