<?xml version="1.0" encoding="UTF-8" standalone="no"?>
<!DOCTYPE svg PUBLIC "-//W3C//DTD SVG 1.1//EN"
 "http://www.w3.org/Graphics/SVG/1.1/DTD/svg11.dtd">
<!-- Generated by graphviz version 14.1.2 (20260124.0452)
 -->
<!-- Title: TechTree Pages: 1 -->
<svg width="149pt" height="497pt"
 viewBox="0.00 0.00 149.00 497.00" xmlns="http://www.w3.org/2000/svg" xmlns:xlink="http://www.w3.org/1999/xlink">
<g id="graph0" class="graph" transform="scale(1 1) rotate(0) translate(4 492.75)">
<title>TechTree</title>
<polygon fill="white" stroke="none" points="-4,4 -4,-492.75 145.25,-492.75 145.25,4 -4,4"/>
<text xml:space="preserve" text-anchor="middle" x="70.62" y="-473.35" font-family="Helvetica,sans-Serif" font-weight="bold" font-size="12.00">Maximum Engine Size</text>
<!-- Maximum_Engine_Size___25 -->
<g id="node1" class="node">
<title>Maximum_Engine_Size___25</title>
<path fill="#cce5ff" stroke="black" d="M121.38,-468C121.38,-468 19.88,-468 19.88,-468 13.87,-468 7.88,-462 7.88,-456 7.88,-456 7.88,-444 7.88,-444 7.88,-438 13.88,-432 19.88,-432 19.88,-432 121.38,-432 121.38,-432 127.38,-432 133.38,-438 133.38,-444 133.38,-444 133.38,-456 133.38,-456 133.38,-462 127.38,-468 121.38,-468"/>
<text xml:space="preserve" text-anchor="middle" x="70.62" y="-451.2" font-family="Helvetica,sans-Serif" font-size="9.00">Maximum Engine Size &#45; 25</text>
<text xml:space="preserve" text-anchor="middle" x="70.62" y="-441.45" font-family="Helvetica,sans-Serif" font-size="9.00">1K RP</text>
</g>
<!-- Maximum_Engine_Size___40 -->
<g id="node2" class="node">
<title>Maximum_Engine_Size___40</title>
<path fill="#cce5ff" stroke="black" d="M121.38,-396C121.38,-396 19.88,-396 19.88,-396 13.87,-396 7.88,-390 7.88,-384 7.88,-384 7.88,-372 7.88,-372 7.88,-366 13.88,-360 19.88,-360 19.88,-360 121.38,-360 121.38,-360 127.38,-360 133.38,-366 133.38,-372 133.38,-372 133.38,-384 133.38,-384 133.38,-390 127.38,-396 121.38,-396"/>
<text xml:space="preserve" text-anchor="middle" x="70.62" y="-379.2" font-family="Helvetica,sans-Serif" font-size="9.00">Maximum Engine Size &#45; 40</text>
<text xml:space="preserve" text-anchor="middle" x="70.62" y="-369.45" font-family="Helvetica,sans-Serif" font-size="9.00">2K RP</text>
</g>
<!-- Maximum_Engine_Size___25&#45;&gt;Maximum_Engine_Size___40 -->
<g id="edge1" class="edge">
<title>Maximum_Engine_Size___25&#45;&gt;Maximum_Engine_Size___40</title>
<path fill="none" stroke="black" d="M70.62,-431.7C70.62,-423.22 70.62,-412.86 70.62,-403.58"/>
<polygon fill="black" stroke="black" points="72.73,-403.62 70.63,-397.62 68.53,-403.62 72.73,-403.62"/>
</g>
<!-- Maximum_Engine_Size___60 -->
<g id="node3" class="node">
<title>Maximum_Engine_Size___60</title>
<path fill="#cce5ff" stroke="black" d="M121.38,-324C121.38,-324 19.88,-324 19.88,-324 13.87,-324 7.88,-318 7.88,-312 7.88,-312 7.88,-300 7.88,-300 7.88,-294 13.88,-288 19.88,-288 19.88,-288 121.38,-288 121.38,-288 127.38,-288 133.38,-294 133.38,-300 133.38,-300 133.38,-312 133.38,-312 133.38,-318 127.38,-324 121.38,-324"/>
<text xml:space="preserve" text-anchor="middle" x="70.62" y="-307.2" font-family="Helvetica,sans-Serif" font-size="9.00">Maximum Engine Size &#45; 60</text>
<text xml:space="preserve" text-anchor="middle" x="70.62" y="-297.45" font-family="Helvetica,sans-Serif" font-size="9.00">4K RP</text>
</g>
<!-- Maximum_Engine_Size___40&#45;&gt;Maximum_Engine_Size___60 -->
<g id="edge2" class="edge">
<title>Maximum_Engine_Size___40&#45;&gt;Maximum_Engine_Size___60</title>
<path fill="none" stroke="black" d="M70.62,-359.7C70.62,-351.22 70.62,-340.86 70.62,-331.58"/>
<polygon fill="black" stroke="black" points="72.73,-331.62 70.63,-325.62 68.53,-331.62 72.73,-331.62"/>
</g>
<!-- Maximum_Engine_Size___100 -->
<g id="node4" class="node">
<title>Maximum_Engine_Size___100</title>
<path fill="#cce5ff" stroke="black" d="M124,-252C124,-252 17.25,-252 17.25,-252 11.25,-252 5.25,-246 5.25,-240 5.25,-240 5.25,-228 5.25,-228 5.25,-222 11.25,-216 17.25,-216 17.25,-216 124,-216 124,-216 130,-216 136,-222 136,-228 136,-228 136,-240 136,-240 136,-246 130,-252 124,-252"/>
<text xml:space="preserve" text-anchor="middle" x="70.62" y="-235.2" font-family="Helvetica,sans-Serif" font-size="9.00">Maximum Engine Size &#45; 100</text>
<text xml:space="preserve" text-anchor="middle" x="70.62" y="-225.45" font-family="Helvetica,sans-Serif" font-size="9.00">8K RP</text>
</g>
<!-- Maximum_Engine_Size___60&#45;&gt;Maximum_Engine_Size___100 -->
<g id="edge3" class="edge">
<title>Maximum_Engine_Size___60&#45;&gt;Maximum_Engine_Size___100</title>
<path fill="none" stroke="black" d="M70.62,-287.7C70.62,-279.22 70.62,-268.86 70.62,-259.58"/>
<polygon fill="black" stroke="black" points="72.73,-259.62 70.63,-253.62 68.53,-259.62 72.73,-259.62"/>
</g>
<!-- Maximum_Engine_Size___160 -->
<g id="node5" class="node">
<title>Maximum_Engine_Size___160</title>
<path fill="#fff3cd" stroke="black" d="M124,-180C124,-180 17.25,-180 17.25,-180 11.25,-180 5.25,-174 5.25,-168 5.25,-168 5.25,-156 5.25,-156 5.25,-150 11.25,-144 17.25,-144 17.25,-144 124,-144 124,-144 130,-144 136,-150 136,-156 136,-156 136,-168 136,-168 136,-174 130,-180 124,-180"/>
<text xml:space="preserve" text-anchor="middle" x="70.62" y="-163.2" font-family="Helvetica,sans-Serif" font-size="9.00">Maximum Engine Size &#45; 160</text>
<text xml:space="preserve" text-anchor="middle" x="70.62" y="-153.45" font-family="Helvetica,sans-Serif" font-size="9.00">15K RP</text>
</g>
<!-- Maximum_Engine_Size___100&#45;&gt;Maximum_Engine_Size___160 -->
<g id="edge4" class="edge">
<title>Maximum_Engine_Size___100&#45;&gt;Maximum_Engine_Size___160</title>
<path fill="none" stroke="black" d="M70.62,-215.7C70.62,-207.22 70.62,-196.86 70.62,-187.58"/>
<polygon fill="black" stroke="black" points="72.73,-187.62 70.63,-181.62 68.53,-187.62 72.73,-187.62"/>
</g>
<!-- Maximum_Engine_Size___250 -->
<g id="node6" class="node">
<title>Maximum_Engine_Size___250</title>
<path fill="#fff3cd" stroke="black" d="M124,-108C124,-108 17.25,-108 17.25,-108 11.25,-108 5.25,-102 5.25,-96 5.25,-96 5.25,-84 5.25,-84 5.25,-78 11.25,-72 17.25,-72 17.25,-72 124,-72 124,-72 130,-72 136,-78 136,-84 136,-84 136,-96 136,-96 136,-102 130,-108 124,-108"/>
<text xml:space="preserve" text-anchor="middle" x="70.62" y="-91.2" font-family="Helvetica,sans-Serif" font-size="9.00">Maximum Engine Size &#45; 250</text>
<text xml:space="preserve" text-anchor="middle" x="70.62" y="-81.45" font-family="Helvetica,sans-Serif" font-size="9.00">30K RP</text>
</g>
<!-- Maximum_Engine_Size___160&#45;&gt;Maximum_Engine_Size___250 -->
<g id="edge5" class="edge">
<title>Maximum_Engine_Size___160&#45;&gt;Maximum_Engine_Size___250</title>
<path fill="none" stroke="black" d="M70.62,-143.7C70.62,-135.22 70.62,-124.86 70.62,-115.58"/>
<polygon fill="black" stroke="black" points="72.73,-115.62 70.63,-109.62 68.53,-115.62 72.73,-115.62"/>
</g>
<!-- Maximum_Engine_Size___400 -->
<g id="node7" class="node">
<title>Maximum_Engine_Size___400</title>
<path fill="#fff3cd" stroke="black" d="M124,-36C124,-36 17.25,-36 17.25,-36 11.25,-36 5.25,-30 5.25,-24 5.25,-24 5.25,-12 5.25,-12 5.25,-6 11.25,0 17.25,0 17.25,0 124,0 124,0 130,0 136,-6 136,-12 136,-12 136,-24 136,-24 136,-30 130,-36 124,-36"/>
<text xml:space="preserve" text-anchor="middle" x="70.62" y="-19.2" font-family="Helvetica,sans-Serif" font-size="9.00">Maximum Engine Size &#45; 400</text>
<text xml:space="preserve" text-anchor="middle" x="70.62" y="-9.45" font-family="Helvetica,sans-Serif" font-size="9.00">60K RP</text>
</g>
<!-- Maximum_Engine_Size___250&#45;&gt;Maximum_Engine_Size___400 -->
<g id="edge6" class="edge">
<title>Maximum_Engine_Size___250&#45;&gt;Maximum_Engine_Size___400</title>
<path fill="none" stroke="black" d="M70.62,-71.7C70.62,-63.22 70.62,-52.86 70.62,-43.58"/>
<polygon fill="black" stroke="black" points="72.73,-43.62 70.63,-37.62 68.53,-43.62 72.73,-43.62"/>
</g>
</g>
</svg>
