<?xml version="1.0" encoding="UTF-8" standalone="no"?>
<!DOCTYPE svg PUBLIC "-//W3C//DTD SVG 1.1//EN"
 "http://www.w3.org/Graphics/SVG/1.1/DTD/svg11.dtd">
<!-- Generated by graphviz version 14.1.2 (20260124.0452)
 -->
<!-- Title: TechTree Pages: 1 -->
<svg width="154pt" height="929pt"
 viewBox="0.00 0.00 154.00 929.00" xmlns="http://www.w3.org/2000/svg" xmlns:xlink="http://www.w3.org/1999/xlink">
<g id="graph0" class="graph" transform="scale(1 1) rotate(0) translate(4 924.75)">
<title>TechTree</title>
<polygon fill="white" stroke="none" points="-4,4 -4,-924.75 149.75,-924.75 149.75,4 -4,4"/>
<text xml:space="preserve" text-anchor="middle" x="72.88" y="-905.35" font-family="Helvetica,sans-Serif" font-weight="bold" font-size="12.00">Meson Focusing</text>
<!-- Meson_Focusing_Technology_1 -->
<g id="node1" class="node">
<title>Meson_Focusing_Technology_1</title>
<path fill="#cce5ff" stroke="black" d="M131.12,-828C131.12,-828 14.62,-828 14.62,-828 8.62,-828 2.62,-822 2.62,-816 2.62,-816 2.62,-804 2.62,-804 2.62,-798 8.62,-792 14.62,-792 14.62,-792 131.12,-792 131.12,-792 137.12,-792 143.12,-798 143.12,-804 143.12,-804 143.12,-816 143.12,-816 143.12,-822 137.12,-828 131.12,-828"/>
<text xml:space="preserve" text-anchor="middle" x="72.88" y="-811.2" font-family="Helvetica,sans-Serif" font-size="9.00">Meson Focusing Technology 1</text>
<text xml:space="preserve" text-anchor="middle" x="72.88" y="-801.45" font-family="Helvetica,sans-Serif" font-size="9.00">1K RP</text>
</g>
<!-- Meson_Focusing_Technology_2 -->
<g id="node2" class="node">
<title>Meson_Focusing_Technology_2</title>
<path fill="#cce5ff" stroke="black" d="M131.12,-756C131.12,-756 14.62,-756 14.62,-756 8.62,-756 2.62,-750 2.62,-744 2.62,-744 2.62,-732 2.62,-732 2.62,-726 8.62,-720 14.62,-720 14.62,-720 131.12,-720 131.12,-720 137.12,-720 143.12,-726 143.12,-732 143.12,-732 143.12,-744 143.12,-744 143.12,-750 137.12,-756 131.12,-756"/>
<text xml:space="preserve" text-anchor="middle" x="72.88" y="-739.2" font-family="Helvetica,sans-Serif" font-size="9.00">Meson Focusing Technology 2</text>
<text xml:space="preserve" text-anchor="middle" x="72.88" y="-729.45" font-family="Helvetica,sans-Serif" font-size="9.00">2K RP</text>
</g>
<!-- Meson_Focusing_Technology_1&#45;&gt;Meson_Focusing_Technology_2 -->
<g id="edge2" class="edge">
<title>Meson_Focusing_Technology_1&#45;&gt;Meson_Focusing_Technology_2</title>
<path fill="none" stroke="black" d="M72.88,-791.7C72.88,-783.22 72.88,-772.86 72.88,-763.58"/>
<polygon fill="black" stroke="black" points="74.98,-763.62 72.88,-757.62 70.78,-763.62 74.98,-763.62"/>
</g>
<!-- Meson_Focusing_Technology_3 -->
<g id="node3" class="node">
<title>Meson_Focusing_Technology_3</title>
<path fill="#cce5ff" stroke="black" d="M131.12,-684C131.12,-684 14.62,-684 14.62,-684 8.62,-684 2.62,-678 2.62,-672 2.62,-672 2.62,-660 2.62,-660 2.62,-654 8.62,-648 14.62,-648 14.62,-648 131.12,-648 131.12,-648 137.12,-648 143.12,-654 143.12,-660 143.12,-660 143.12,-672 143.12,-672 143.12,-678 137.12,-684 131.12,-684"/>
<text xml:space="preserve" text-anchor="middle" x="72.88" y="-667.2" font-family="Helvetica,sans-Serif" font-size="9.00">Meson Focusing Technology 3</text>
<text xml:space="preserve" text-anchor="middle" x="72.88" y="-657.45" font-family="Helvetica,sans-Serif" font-size="9.00">4K RP</text>
</g>
<!-- Meson_Focusing_Technology_2&#45;&gt;Meson_Focusing_Technology_3 -->
<g id="edge3" class="edge">
<title>Meson_Focusing_Technology_2&#45;&gt;Meson_Focusing_Technology_3</title>
<path fill="none" stroke="black" d="M72.88,-719.7C72.88,-711.22 72.88,-700.86 72.88,-691.58"/>
<polygon fill="black" stroke="black" points="74.98,-691.62 72.88,-685.62 70.78,-691.62 74.98,-691.62"/>
</g>
<!-- Meson_Focusing_Technology_4 -->
<g id="node4" class="node">
<title>Meson_Focusing_Technology_4</title>
<path fill="#cce5ff" stroke="black" d="M131.12,-612C131.12,-612 14.62,-612 14.62,-612 8.62,-612 2.62,-606 2.62,-600 2.62,-600 2.62,-588 2.62,-588 2.62,-582 8.62,-576 14.62,-576 14.62,-576 131.12,-576 131.12,-576 137.12,-576 143.12,-582 143.12,-588 143.12,-588 143.12,-600 143.12,-600 143.12,-606 137.12,-612 131.12,-612"/>
<text xml:space="preserve" text-anchor="middle" x="72.88" y="-595.2" font-family="Helvetica,sans-Serif" font-size="9.00">Meson Focusing Technology 4</text>
<text xml:space="preserve" text-anchor="middle" x="72.88" y="-585.45" font-family="Helvetica,sans-Serif" font-size="9.00">8K RP</text>
</g>
<!-- Meson_Focusing_Technology_3&#45;&gt;Meson_Focusing_Technology_4 -->
<g id="edge4" class="edge">
<title>Meson_Focusing_Technology_3&#45;&gt;Meson_Focusing_Technology_4</title>
<path fill="none" stroke="black" d="M72.88,-647.7C72.88,-639.22 72.88,-628.86 72.88,-619.58"/>
<polygon fill="black" stroke="black" points="74.98,-619.62 72.88,-613.62 70.78,-619.62 74.98,-619.62"/>
</g>
<!-- Meson_Focusing_Technology_5 -->
<g id="node5" class="node">
<title>Meson_Focusing_Technology_5</title>
<path fill="#fff3cd" stroke="black" d="M131.12,-540C131.12,-540 14.62,-540 14.62,-540 8.62,-540 2.62,-534 2.62,-528 2.62,-528 2.62,-516 2.62,-516 2.62,-510 8.62,-504 14.62,-504 14.62,-504 131.12,-504 131.12,-504 137.12,-504 143.12,-510 143.12,-516 143.12,-516 143.12,-528 143.12,-528 143.12,-534 137.12,-540 131.12,-540"/>
<text xml:space="preserve" text-anchor="middle" x="72.88" y="-523.2" font-family="Helvetica,sans-Serif" font-size="9.00">Meson Focusing Technology 5</text>
<text xml:space="preserve" text-anchor="middle" x="72.88" y="-513.45" font-family="Helvetica,sans-Serif" font-size="9.00">15K RP</text>
</g>
<!-- Meson_Focusing_Technology_4&#45;&gt;Meson_Focusing_Technology_5 -->
<g id="edge5" class="edge">
<title>Meson_Focusing_Technology_4&#45;&gt;Meson_Focusing_Technology_5</title>
<path fill="none" stroke="black" d="M72.88,-575.7C72.88,-567.22 72.88,-556.86 72.88,-547.58"/>
<polygon fill="black" stroke="black" points="74.98,-547.62 72.88,-541.62 70.78,-547.62 74.98,-547.62"/>
</g>
<!-- Meson_Focusing_Technology_6 -->
<g id="node6" class="node">
<title>Meson_Focusing_Technology_6</title>
<path fill="#fff3cd" stroke="black" d="M131.12,-468C131.12,-468 14.62,-468 14.62,-468 8.62,-468 2.62,-462 2.62,-456 2.62,-456 2.62,-444 2.62,-444 2.62,-438 8.62,-432 14.62,-432 14.62,-432 131.12,-432 131.12,-432 137.12,-432 143.12,-438 143.12,-444 143.12,-444 143.12,-456 143.12,-456 143.12,-462 137.12,-468 131.12,-468"/>
<text xml:space="preserve" text-anchor="middle" x="72.88" y="-451.2" font-family="Helvetica,sans-Serif" font-size="9.00">Meson Focusing Technology 6</text>
<text xml:space="preserve" text-anchor="middle" x="72.88" y="-441.45" font-family="Helvetica,sans-Serif" font-size="9.00">30K RP</text>
</g>
<!-- Meson_Focusing_Technology_5&#45;&gt;Meson_Focusing_Technology_6 -->
<g id="edge6" class="edge">
<title>Meson_Focusing_Technology_5&#45;&gt;Meson_Focusing_Technology_6</title>
<path fill="none" stroke="black" d="M72.88,-503.7C72.88,-495.22 72.88,-484.86 72.88,-475.58"/>
<polygon fill="black" stroke="black" points="74.98,-475.62 72.88,-469.62 70.78,-475.62 74.98,-475.62"/>
</g>
<!-- Meson_Focusing_Technology_7 -->
<g id="node7" class="node">
<title>Meson_Focusing_Technology_7</title>
<path fill="#fff3cd" stroke="black" d="M131.12,-396C131.12,-396 14.62,-396 14.62,-396 8.62,-396 2.62,-390 2.62,-384 2.62,-384 2.62,-372 2.62,-372 2.62,-366 8.62,-360 14.62,-360 14.62,-360 131.12,-360 131.12,-360 137.12,-360 143.12,-366 143.12,-372 143.12,-372 143.12,-384 143.12,-384 143.12,-390 137.12,-396 131.12,-396"/>
<text xml:space="preserve" text-anchor="middle" x="72.88" y="-379.2" font-family="Helvetica,sans-Serif" font-size="9.00">Meson Focusing Technology 7</text>
<text xml:space="preserve" text-anchor="middle" x="72.88" y="-369.45" font-family="Helvetica,sans-Serif" font-size="9.00">60K RP</text>
</g>
<!-- Meson_Focusing_Technology_6&#45;&gt;Meson_Focusing_Technology_7 -->
<g id="edge7" class="edge">
<title>Meson_Focusing_Technology_6&#45;&gt;Meson_Focusing_Technology_7</title>
<path fill="none" stroke="black" d="M72.88,-431.7C72.88,-423.22 72.88,-412.86 72.88,-403.58"/>
<polygon fill="black" stroke="black" points="74.98,-403.62 72.88,-397.62 70.78,-403.62 74.98,-403.62"/>
</g>
<!-- Meson_Focusing_Technology_8 -->
<g id="node8" class="node">
<title>Meson_Focusing_Technology_8</title>
<path fill="#d4c4fb" stroke="black" d="M131.12,-324C131.12,-324 14.62,-324 14.62,-324 8.62,-324 2.62,-318 2.62,-312 2.62,-312 2.62,-300 2.62,-300 2.62,-294 8.62,-288 14.62,-288 14.62,-288 131.12,-288 131.12,-288 137.12,-288 143.12,-294 143.12,-300 143.12,-300 143.12,-312 143.12,-312 143.12,-318 137.12,-324 131.12,-324"/>
<text xml:space="preserve" text-anchor="middle" x="72.88" y="-307.2" font-family="Helvetica,sans-Serif" font-size="9.00">Meson Focusing Technology 8</text>
<text xml:space="preserve" text-anchor="middle" x="72.88" y="-297.45" font-family="Helvetica,sans-Serif" font-size="9.00">120K RP</text>
</g>
<!-- Meson_Focusing_Technology_7&#45;&gt;Meson_Focusing_Technology_8 -->
<g id="edge8" class="edge">
<title>Meson_Focusing_Technology_7&#45;&gt;Meson_Focusing_Technology_8</title>
<path fill="none" stroke="black" d="M72.88,-359.7C72.88,-351.22 72.88,-340.86 72.88,-331.58"/>
<polygon fill="black" stroke="black" points="74.98,-331.62 72.88,-325.62 70.78,-331.62 74.98,-331.62"/>
</g>
<!-- Meson_Focusing_Technology_9 -->
<g id="node9" class="node">
<title>Meson_Focusing_Technology_9</title>
<path fill="#d4c4fb" stroke="black" d="M131.12,-252C131.12,-252 14.62,-252 14.62,-252 8.62,-252 2.62,-246 2.62,-240 2.62,-240 2.62,-228 2.62,-228 2.62,-222 8.62,-216 14.62,-216 14.62,-216 131.12,-216 131.12,-216 137.12,-216 143.12,-222 143.12,-228 143.12,-228 143.12,-240 143.12,-240 143.12,-246 137.12,-252 131.12,-252"/>
<text xml:space="preserve" text-anchor="middle" x="72.88" y="-235.2" font-family="Helvetica,sans-Serif" font-size="9.00">Meson Focusing Technology 9</text>
<text xml:space="preserve" text-anchor="middle" x="72.88" y="-225.45" font-family="Helvetica,sans-Serif" font-size="9.00">250K RP</text>
</g>
<!-- Meson_Focusing_Technology_8&#45;&gt;Meson_Focusing_Technology_9 -->
<g id="edge9" class="edge">
<title>Meson_Focusing_Technology_8&#45;&gt;Meson_Focusing_Technology_9</title>
<path fill="none" stroke="black" d="M72.88,-287.7C72.88,-279.22 72.88,-268.86 72.88,-259.58"/>
<polygon fill="black" stroke="black" points="74.98,-259.62 72.88,-253.62 70.78,-259.62 74.98,-259.62"/>
</g>
<!-- Meson_Focusing_Technology_10 -->
<g id="node10" class="node">
<title>Meson_Focusing_Technology_10</title>
<path fill="#d4c4fb" stroke="black" d="M133.75,-180C133.75,-180 12,-180 12,-180 6,-180 0,-174 0,-168 0,-168 0,-156 0,-156 0,-150 6,-144 12,-144 12,-144 133.75,-144 133.75,-144 139.75,-144 145.75,-150 145.75,-156 145.75,-156 145.75,-168 145.75,-168 145.75,-174 139.75,-180 133.75,-180"/>
<text xml:space="preserve" text-anchor="middle" x="72.88" y="-163.2" font-family="Helvetica,sans-Serif" font-size="9.00">Meson Focusing Technology 10</text>
<text xml:space="preserve" text-anchor="middle" x="72.88" y="-153.45" font-family="Helvetica,sans-Serif" font-size="9.00">500K RP</text>
</g>
<!-- Meson_Focusing_Technology_9&#45;&gt;Meson_Focusing_Technology_10 -->
<g id="edge10" class="edge">
<title>Meson_Focusing_Technology_9&#45;&gt;Meson_Focusing_Technology_10</title>
<path fill="none" stroke="black" d="M72.88,-215.7C72.88,-207.22 72.88,-196.86 72.88,-187.58"/>
<polygon fill="black" stroke="black" points="74.98,-187.62 72.88,-181.62 70.78,-187.62 74.98,-187.62"/>
</g>
<!-- Meson_Focusing_Technology_11 -->
<g id="node11" class="node">
<title>Meson_Focusing_Technology_11</title>
<path fill="#d4c4fb" stroke="black" d="M133,-108C133,-108 12.75,-108 12.75,-108 6.75,-108 0.75,-102 0.75,-96 0.75,-96 0.75,-84 0.75,-84 0.75,-78 6.75,-72 12.75,-72 12.75,-72 133,-72 133,-72 139,-72 145,-78 145,-84 145,-84 145,-96 145,-96 145,-102 139,-108 133,-108"/>
<text xml:space="preserve" text-anchor="middle" x="72.88" y="-91.2" font-family="Helvetica,sans-Serif" font-size="9.00">Meson Focusing Technology 11</text>
<text xml:space="preserve" text-anchor="middle" x="72.88" y="-81.45" font-family="Helvetica,sans-Serif" font-size="9.00">1.0M RP</text>
</g>
<!-- Meson_Focusing_Technology_10&#45;&gt;Meson_Focusing_Technology_11 -->
<g id="edge11" class="edge">
<title>Meson_Focusing_Technology_10&#45;&gt;Meson_Focusing_Technology_11</title>
<path fill="none" stroke="black" d="M72.88,-143.7C72.88,-135.22 72.88,-124.86 72.88,-115.58"/>
<polygon fill="black" stroke="black" points="74.98,-115.62 72.88,-109.62 70.78,-115.62 74.98,-115.62"/>
</g>
<!-- Meson_Focusing_Technology_12 -->
<g id="node12" class="node">
<title>Meson_Focusing_Technology_12</title>
<path fill="#f8d7da" stroke="black" d="M133.75,-36C133.75,-36 12,-36 12,-36 6,-36 0,-30 0,-24 0,-24 0,-12 0,-12 0,-6 6,0 12,0 12,0 133.75,0 133.75,0 139.75,0 145.75,-6 145.75,-12 145.75,-12 145.75,-24 145.75,-24 145.75,-30 139.75,-36 133.75,-36"/>
<text xml:space="preserve" text-anchor="middle" x="72.88" y="-19.2" font-family="Helvetica,sans-Serif" font-size="9.00">Meson Focusing Technology 12</text>
<text xml:space="preserve" text-anchor="middle" x="72.88" y="-9.45" font-family="Helvetica,sans-Serif" font-size="9.00">2.0M RP</text>
</g>
<!-- Meson_Focusing_Technology_11&#45;&gt;Meson_Focusing_Technology_12 -->
<g id="edge12" class="edge">
<title>Meson_Focusing_Technology_11&#45;&gt;Meson_Focusing_Technology_12</title>
<path fill="none" stroke="black" d="M72.88,-71.7C72.88,-63.22 72.88,-52.86 72.88,-43.58"/>
<polygon fill="black" stroke="black" points="74.98,-43.62 72.88,-37.62 70.78,-43.62 74.98,-43.62"/>
</g>
<!-- ext_Trans_Newtonian_Technology -->
<g id="node13" class="node">
<title>ext_Trans_Newtonian_Technology</title>
<path fill="#f0f0f0" stroke="black" stroke-dasharray="5,2" d="M128.88,-900C128.88,-900 16.88,-900 16.88,-900 10.87,-900 4.88,-894 4.88,-888 4.88,-888 4.88,-876 4.88,-876 4.88,-870 10.88,-864 16.88,-864 16.88,-864 128.88,-864 128.88,-864 134.88,-864 140.88,-870 140.88,-876 140.88,-876 140.88,-888 140.88,-888 140.88,-894 134.88,-900 128.88,-900"/>
<text xml:space="preserve" text-anchor="middle" x="72.88" y="-878.33" font-family="Helvetica,sans-Serif" font-size="9.00">Trans&#45;Newtonian Technology</text>
</g>
<!-- ext_Trans_Newtonian_Technology&#45;&gt;Meson_Focusing_Technology_1 -->
<g id="edge1" class="edge">
<title>ext_Trans_Newtonian_Technology&#45;&gt;Meson_Focusing_Technology_1</title>
<path fill="none" stroke="black" d="M72.88,-863.7C72.88,-855.22 72.88,-844.86 72.88,-835.58"/>
<polygon fill="black" stroke="black" points="74.98,-835.62 72.88,-829.62 70.78,-835.62 74.98,-835.62"/>
</g>
</g>
</svg>
