<?xml version="1.0" encoding="UTF-8" standalone="no"?>
<!DOCTYPE svg PUBLIC "-//W3C//DTD SVG 1.1//EN"
 "http://www.w3.org/Graphics/SVG/1.1/DTD/svg11.dtd">
<!-- Generated by graphviz version 14.1.2 (20260124.0452)
 -->
<!-- Title: TechTree Pages: 1 -->
<svg width="162pt" height="782pt"
 viewBox="0.00 0.00 162.00 782.00" xmlns="http://www.w3.org/2000/svg" xmlns:xlink="http://www.w3.org/1999/xlink">
<g id="graph0" class="graph" transform="scale(1 1) rotate(0) translate(4 778)">
<title>TechTree</title>
<polygon fill="white" stroke="none" points="-4,4 -4,-778 158,-778 158,4 -4,4"/>
<text xml:space="preserve" text-anchor="middle" x="77" y="-756.7" font-family="Helvetica,sans-Serif" font-weight="bold" font-size="14.00">Meson Focusing</text>
<!-- Meson_Focusing_Technology_1 -->
<g id="node1" class="node">
<title>Meson_Focusing_Technology_1</title>
<path fill="#cce5ff" stroke="black" d="M139.38,-751C139.38,-751 14.63,-751 14.63,-751 8.62,-751 2.62,-745 2.62,-739 2.62,-739 2.62,-727 2.62,-727 2.62,-721 8.62,-715 14.62,-715 14.62,-715 139.38,-715 139.38,-715 145.38,-715 151.38,-721 151.38,-727 151.38,-727 151.38,-739 151.38,-739 151.38,-745 145.38,-751 139.38,-751"/>
<text xml:space="preserve" text-anchor="middle" x="77" y="-734.75" font-family="Helvetica,sans-Serif" font-size="10.00">Meson Focusing Technology 1</text>
<text xml:space="preserve" text-anchor="middle" x="77" y="-723.5" font-family="Helvetica,sans-Serif" font-size="10.00">1K RP</text>
</g>
<!-- Meson_Focusing_Technology_2 -->
<g id="node2" class="node">
<title>Meson_Focusing_Technology_2</title>
<path fill="#cce5ff" stroke="black" d="M139.38,-686C139.38,-686 14.63,-686 14.63,-686 8.62,-686 2.62,-680 2.62,-674 2.62,-674 2.62,-662 2.62,-662 2.62,-656 8.62,-650 14.62,-650 14.62,-650 139.38,-650 139.38,-650 145.38,-650 151.38,-656 151.38,-662 151.38,-662 151.38,-674 151.38,-674 151.38,-680 145.38,-686 139.38,-686"/>
<text xml:space="preserve" text-anchor="middle" x="77" y="-669.75" font-family="Helvetica,sans-Serif" font-size="10.00">Meson Focusing Technology 2</text>
<text xml:space="preserve" text-anchor="middle" x="77" y="-658.5" font-family="Helvetica,sans-Serif" font-size="10.00">2K RP</text>
</g>
<!-- Meson_Focusing_Technology_1&#45;&gt;Meson_Focusing_Technology_2 -->
<g id="edge1" class="edge">
<title>Meson_Focusing_Technology_1&#45;&gt;Meson_Focusing_Technology_2</title>
<path fill="none" stroke="black" d="M77,-714.78C77,-708.53 77,-701.33 77,-694.52"/>
<polygon fill="black" stroke="black" points="79.45,-694.71 77,-687.71 74.55,-694.71 79.45,-694.71"/>
</g>
<!-- Meson_Focusing_Technology_3 -->
<g id="node3" class="node">
<title>Meson_Focusing_Technology_3</title>
<path fill="#cce5ff" stroke="black" d="M139.38,-621C139.38,-621 14.63,-621 14.63,-621 8.62,-621 2.62,-615 2.62,-609 2.62,-609 2.62,-597 2.62,-597 2.62,-591 8.62,-585 14.62,-585 14.62,-585 139.38,-585 139.38,-585 145.38,-585 151.38,-591 151.38,-597 151.38,-597 151.38,-609 151.38,-609 151.38,-615 145.38,-621 139.38,-621"/>
<text xml:space="preserve" text-anchor="middle" x="77" y="-604.75" font-family="Helvetica,sans-Serif" font-size="10.00">Meson Focusing Technology 3</text>
<text xml:space="preserve" text-anchor="middle" x="77" y="-593.5" font-family="Helvetica,sans-Serif" font-size="10.00">4K RP</text>
</g>
<!-- Meson_Focusing_Technology_2&#45;&gt;Meson_Focusing_Technology_3 -->
<g id="edge2" class="edge">
<title>Meson_Focusing_Technology_2&#45;&gt;Meson_Focusing_Technology_3</title>
<path fill="none" stroke="black" d="M77,-649.78C77,-643.53 77,-636.33 77,-629.52"/>
<polygon fill="black" stroke="black" points="79.45,-629.71 77,-622.71 74.55,-629.71 79.45,-629.71"/>
</g>
<!-- Meson_Focusing_Technology_4 -->
<g id="node4" class="node">
<title>Meson_Focusing_Technology_4</title>
<path fill="#cce5ff" stroke="black" d="M139.38,-556C139.38,-556 14.63,-556 14.63,-556 8.62,-556 2.62,-550 2.62,-544 2.62,-544 2.62,-532 2.62,-532 2.62,-526 8.62,-520 14.62,-520 14.62,-520 139.38,-520 139.38,-520 145.38,-520 151.38,-526 151.38,-532 151.38,-532 151.38,-544 151.38,-544 151.38,-550 145.38,-556 139.38,-556"/>
<text xml:space="preserve" text-anchor="middle" x="77" y="-539.75" font-family="Helvetica,sans-Serif" font-size="10.00">Meson Focusing Technology 4</text>
<text xml:space="preserve" text-anchor="middle" x="77" y="-528.5" font-family="Helvetica,sans-Serif" font-size="10.00">8K RP</text>
</g>
<!-- Meson_Focusing_Technology_3&#45;&gt;Meson_Focusing_Technology_4 -->
<g id="edge3" class="edge">
<title>Meson_Focusing_Technology_3&#45;&gt;Meson_Focusing_Technology_4</title>
<path fill="none" stroke="black" d="M77,-584.78C77,-578.53 77,-571.33 77,-564.52"/>
<polygon fill="black" stroke="black" points="79.45,-564.71 77,-557.71 74.55,-564.71 79.45,-564.71"/>
</g>
<!-- Meson_Focusing_Technology_5 -->
<g id="node5" class="node">
<title>Meson_Focusing_Technology_5</title>
<path fill="#fff3cd" stroke="black" d="M139.38,-491C139.38,-491 14.63,-491 14.63,-491 8.62,-491 2.62,-485 2.62,-479 2.62,-479 2.62,-467 2.62,-467 2.62,-461 8.62,-455 14.62,-455 14.62,-455 139.38,-455 139.38,-455 145.38,-455 151.38,-461 151.38,-467 151.38,-467 151.38,-479 151.38,-479 151.38,-485 145.38,-491 139.38,-491"/>
<text xml:space="preserve" text-anchor="middle" x="77" y="-474.75" font-family="Helvetica,sans-Serif" font-size="10.00">Meson Focusing Technology 5</text>
<text xml:space="preserve" text-anchor="middle" x="77" y="-463.5" font-family="Helvetica,sans-Serif" font-size="10.00">15K RP</text>
</g>
<!-- Meson_Focusing_Technology_4&#45;&gt;Meson_Focusing_Technology_5 -->
<g id="edge4" class="edge">
<title>Meson_Focusing_Technology_4&#45;&gt;Meson_Focusing_Technology_5</title>
<path fill="none" stroke="black" d="M77,-519.78C77,-513.53 77,-506.33 77,-499.52"/>
<polygon fill="black" stroke="black" points="79.45,-499.71 77,-492.71 74.55,-499.71 79.45,-499.71"/>
</g>
<!-- Meson_Focusing_Technology_6 -->
<g id="node6" class="node">
<title>Meson_Focusing_Technology_6</title>
<path fill="#fff3cd" stroke="black" d="M139.38,-426C139.38,-426 14.63,-426 14.63,-426 8.62,-426 2.62,-420 2.62,-414 2.62,-414 2.62,-402 2.62,-402 2.62,-396 8.62,-390 14.62,-390 14.62,-390 139.38,-390 139.38,-390 145.38,-390 151.38,-396 151.38,-402 151.38,-402 151.38,-414 151.38,-414 151.38,-420 145.38,-426 139.38,-426"/>
<text xml:space="preserve" text-anchor="middle" x="77" y="-409.75" font-family="Helvetica,sans-Serif" font-size="10.00">Meson Focusing Technology 6</text>
<text xml:space="preserve" text-anchor="middle" x="77" y="-398.5" font-family="Helvetica,sans-Serif" font-size="10.00">30K RP</text>
</g>
<!-- Meson_Focusing_Technology_5&#45;&gt;Meson_Focusing_Technology_6 -->
<g id="edge5" class="edge">
<title>Meson_Focusing_Technology_5&#45;&gt;Meson_Focusing_Technology_6</title>
<path fill="none" stroke="black" d="M77,-454.78C77,-448.53 77,-441.33 77,-434.52"/>
<polygon fill="black" stroke="black" points="79.45,-434.71 77,-427.71 74.55,-434.71 79.45,-434.71"/>
</g>
<!-- Meson_Focusing_Technology_7 -->
<g id="node7" class="node">
<title>Meson_Focusing_Technology_7</title>
<path fill="#fff3cd" stroke="black" d="M139.38,-361C139.38,-361 14.63,-361 14.63,-361 8.62,-361 2.62,-355 2.62,-349 2.62,-349 2.62,-337 2.62,-337 2.62,-331 8.62,-325 14.62,-325 14.62,-325 139.38,-325 139.38,-325 145.38,-325 151.38,-331 151.38,-337 151.38,-337 151.38,-349 151.38,-349 151.38,-355 145.38,-361 139.38,-361"/>
<text xml:space="preserve" text-anchor="middle" x="77" y="-344.75" font-family="Helvetica,sans-Serif" font-size="10.00">Meson Focusing Technology 7</text>
<text xml:space="preserve" text-anchor="middle" x="77" y="-333.5" font-family="Helvetica,sans-Serif" font-size="10.00">60K RP</text>
</g>
<!-- Meson_Focusing_Technology_6&#45;&gt;Meson_Focusing_Technology_7 -->
<g id="edge6" class="edge">
<title>Meson_Focusing_Technology_6&#45;&gt;Meson_Focusing_Technology_7</title>
<path fill="none" stroke="black" d="M77,-389.78C77,-383.53 77,-376.33 77,-369.52"/>
<polygon fill="black" stroke="black" points="79.45,-369.71 77,-362.71 74.55,-369.71 79.45,-369.71"/>
</g>
<!-- Meson_Focusing_Technology_8 -->
<g id="node8" class="node">
<title>Meson_Focusing_Technology_8</title>
<path fill="#d4c4fb" stroke="black" d="M139.38,-296C139.38,-296 14.63,-296 14.63,-296 8.62,-296 2.62,-290 2.62,-284 2.62,-284 2.62,-272 2.62,-272 2.62,-266 8.62,-260 14.62,-260 14.62,-260 139.38,-260 139.38,-260 145.38,-260 151.38,-266 151.38,-272 151.38,-272 151.38,-284 151.38,-284 151.38,-290 145.38,-296 139.38,-296"/>
<text xml:space="preserve" text-anchor="middle" x="77" y="-279.75" font-family="Helvetica,sans-Serif" font-size="10.00">Meson Focusing Technology 8</text>
<text xml:space="preserve" text-anchor="middle" x="77" y="-268.5" font-family="Helvetica,sans-Serif" font-size="10.00">120K RP</text>
</g>
<!-- Meson_Focusing_Technology_7&#45;&gt;Meson_Focusing_Technology_8 -->
<g id="edge7" class="edge">
<title>Meson_Focusing_Technology_7&#45;&gt;Meson_Focusing_Technology_8</title>
<path fill="none" stroke="black" d="M77,-324.78C77,-318.53 77,-311.33 77,-304.52"/>
<polygon fill="black" stroke="black" points="79.45,-304.71 77,-297.71 74.55,-304.71 79.45,-304.71"/>
</g>
<!-- Meson_Focusing_Technology_9 -->
<g id="node9" class="node">
<title>Meson_Focusing_Technology_9</title>
<path fill="#d4c4fb" stroke="black" d="M139.38,-231C139.38,-231 14.63,-231 14.63,-231 8.62,-231 2.62,-225 2.62,-219 2.62,-219 2.62,-207 2.62,-207 2.62,-201 8.62,-195 14.62,-195 14.62,-195 139.38,-195 139.38,-195 145.38,-195 151.38,-201 151.38,-207 151.38,-207 151.38,-219 151.38,-219 151.38,-225 145.38,-231 139.38,-231"/>
<text xml:space="preserve" text-anchor="middle" x="77" y="-214.75" font-family="Helvetica,sans-Serif" font-size="10.00">Meson Focusing Technology 9</text>
<text xml:space="preserve" text-anchor="middle" x="77" y="-203.5" font-family="Helvetica,sans-Serif" font-size="10.00">250K RP</text>
</g>
<!-- Meson_Focusing_Technology_8&#45;&gt;Meson_Focusing_Technology_9 -->
<g id="edge8" class="edge">
<title>Meson_Focusing_Technology_8&#45;&gt;Meson_Focusing_Technology_9</title>
<path fill="none" stroke="black" d="M77,-259.78C77,-253.53 77,-246.33 77,-239.52"/>
<polygon fill="black" stroke="black" points="79.45,-239.71 77,-232.71 74.55,-239.71 79.45,-239.71"/>
</g>
<!-- Meson_Focusing_Technology_10 -->
<g id="node10" class="node">
<title>Meson_Focusing_Technology_10</title>
<path fill="#d4c4fb" stroke="black" d="M142,-166C142,-166 12,-166 12,-166 6,-166 0,-160 0,-154 0,-154 0,-142 0,-142 0,-136 6,-130 12,-130 12,-130 142,-130 142,-130 148,-130 154,-136 154,-142 154,-142 154,-154 154,-154 154,-160 148,-166 142,-166"/>
<text xml:space="preserve" text-anchor="middle" x="77" y="-149.75" font-family="Helvetica,sans-Serif" font-size="10.00">Meson Focusing Technology 10</text>
<text xml:space="preserve" text-anchor="middle" x="77" y="-138.5" font-family="Helvetica,sans-Serif" font-size="10.00">500K RP</text>
</g>
<!-- Meson_Focusing_Technology_9&#45;&gt;Meson_Focusing_Technology_10 -->
<g id="edge9" class="edge">
<title>Meson_Focusing_Technology_9&#45;&gt;Meson_Focusing_Technology_10</title>
<path fill="none" stroke="black" d="M77,-194.78C77,-188.53 77,-181.33 77,-174.52"/>
<polygon fill="black" stroke="black" points="79.45,-174.71 77,-167.71 74.55,-174.71 79.45,-174.71"/>
</g>
<!-- Meson_Focusing_Technology_11 -->
<g id="node11" class="node">
<title>Meson_Focusing_Technology_11</title>
<path fill="#d4c4fb" stroke="black" d="M142,-101C142,-101 12,-101 12,-101 6,-101 0,-95 0,-89 0,-89 0,-77 0,-77 0,-71 6,-65 12,-65 12,-65 142,-65 142,-65 148,-65 154,-71 154,-77 154,-77 154,-89 154,-89 154,-95 148,-101 142,-101"/>
<text xml:space="preserve" text-anchor="middle" x="77" y="-84.75" font-family="Helvetica,sans-Serif" font-size="10.00">Meson Focusing Technology 11</text>
<text xml:space="preserve" text-anchor="middle" x="77" y="-73.5" font-family="Helvetica,sans-Serif" font-size="10.00">1.0M RP</text>
</g>
<!-- Meson_Focusing_Technology_10&#45;&gt;Meson_Focusing_Technology_11 -->
<g id="edge10" class="edge">
<title>Meson_Focusing_Technology_10&#45;&gt;Meson_Focusing_Technology_11</title>
<path fill="none" stroke="black" d="M77,-129.78C77,-123.53 77,-116.33 77,-109.52"/>
<polygon fill="black" stroke="black" points="79.45,-109.71 77,-102.71 74.55,-109.71 79.45,-109.71"/>
</g>
<!-- Meson_Focusing_Technology_12 -->
<g id="node12" class="node">
<title>Meson_Focusing_Technology_12</title>
<path fill="#f8d7da" stroke="black" d="M142,-36C142,-36 12,-36 12,-36 6,-36 0,-30 0,-24 0,-24 0,-12 0,-12 0,-6 6,0 12,0 12,0 142,0 142,0 148,0 154,-6 154,-12 154,-12 154,-24 154,-24 154,-30 148,-36 142,-36"/>
<text xml:space="preserve" text-anchor="middle" x="77" y="-19.75" font-family="Helvetica,sans-Serif" font-size="10.00">Meson Focusing Technology 12</text>
<text xml:space="preserve" text-anchor="middle" x="77" y="-8.5" font-family="Helvetica,sans-Serif" font-size="10.00">2.0M RP</text>
</g>
<!-- Meson_Focusing_Technology_11&#45;&gt;Meson_Focusing_Technology_12 -->
<g id="edge11" class="edge">
<title>Meson_Focusing_Technology_11&#45;&gt;Meson_Focusing_Technology_12</title>
<path fill="none" stroke="black" d="M77,-64.78C77,-58.53 77,-51.33 77,-44.52"/>
<polygon fill="black" stroke="black" points="79.45,-44.71 77,-37.71 74.55,-44.71 79.45,-44.71"/>
</g>
</g>
</svg>
