<?xml version="1.0" encoding="UTF-8" standalone="no"?>
<!DOCTYPE svg PUBLIC "-//W3C//DTD SVG 1.1//EN"
 "http://www.w3.org/Graphics/SVG/1.1/DTD/svg11.dtd">
<!-- Generated by graphviz version 14.1.2 (20260124.0452)
 -->
<!-- Title: TechTree Pages: 1 -->
<svg width="2179pt" height="137pt"
 viewBox="0.00 0.00 2179.00 137.00" xmlns="http://www.w3.org/2000/svg" xmlns:xlink="http://www.w3.org/1999/xlink">
<g id="graph0" class="graph" transform="scale(1 1) rotate(0) translate(4 132.75)">
<title>TechTree</title>
<polygon fill="white" stroke="none" points="-4,4 -4,-132.75 2175.38,-132.75 2175.38,4 -4,4"/>
<text xml:space="preserve" text-anchor="middle" x="1085.69" y="-113.35" font-family="Helvetica,sans-Serif" font-weight="bold" font-size="12.00">Meson Focal Size</text>
<!-- 10 -->
<g id="node1" class="node">
<title>10</title>
<path fill="lightgrey" stroke="black" d="M83,-36C83,-36 53,-36 53,-36 47,-36 41,-30 41,-24 41,-24 41,-12 41,-12 41,-6 47,0 53,0 53,0 83,0 83,0 89,0 95,-6 95,-12 95,-12 95,-24 95,-24 95,-30 89,-36 83,-36"/>
<text xml:space="preserve" text-anchor="middle" x="68" y="-14.32" font-family="Helvetica,sans-Serif" font-size="9.00">10</text>
</g>
<!-- cm_Meson_Focal_Size__40__AR_ -->
<g id="node2" class="node">
<title>cm_Meson_Focal_Size__40__AR_</title>
<path fill="#cce5ff" stroke="black" d="M297.75,-108C297.75,-108 166.25,-108 166.25,-108 160.25,-108 154.25,-102 154.25,-96 154.25,-96 154.25,-84 154.25,-84 154.25,-78 160.25,-72 166.25,-72 166.25,-72 297.75,-72 297.75,-72 303.75,-72 309.75,-78 309.75,-84 309.75,-84 309.75,-96 309.75,-96 309.75,-102 303.75,-108 297.75,-108"/>
<text xml:space="preserve" text-anchor="middle" x="232" y="-91.2" font-family="Helvetica,sans-Serif" font-size="9.00">10cm Meson Focal Size (40% AR)</text>
<text xml:space="preserve" text-anchor="middle" x="232" y="-81.45" font-family="Helvetica,sans-Serif" font-size="9.00">1K RP</text>
</g>
<!-- 12 -->
<g id="node3" class="node">
<title>12</title>
<path fill="lightgrey" stroke="black" d="M247,-36C247,-36 217,-36 217,-36 211,-36 205,-30 205,-24 205,-24 205,-12 205,-12 205,-6 211,0 217,0 217,0 247,0 247,0 253,0 259,-6 259,-12 259,-12 259,-24 259,-24 259,-30 253,-36 247,-36"/>
<text xml:space="preserve" text-anchor="middle" x="232" y="-14.32" font-family="Helvetica,sans-Serif" font-size="9.00">12</text>
</g>
<!-- cm_Meson_Focal_Size__40__AR_&#45;&gt;12 -->
<g id="edge2" class="edge">
<title>cm_Meson_Focal_Size__40__AR_&#45;&gt;12</title>
<path fill="none" stroke="black" d="M232,-71.7C232,-63.22 232,-52.86 232,-43.58"/>
<polygon fill="black" stroke="black" points="234.1,-43.62 232,-37.62 229.9,-43.62 234.1,-43.62"/>
</g>
<!-- cm_Meson_Focal_Size__32__AR_ -->
<g id="node4" class="node">
<title>cm_Meson_Focal_Size__32__AR_</title>
<path fill="#cce5ff" stroke="black" d="M471.75,-108C471.75,-108 340.25,-108 340.25,-108 334.25,-108 328.25,-102 328.25,-96 328.25,-96 328.25,-84 328.25,-84 328.25,-78 334.25,-72 340.25,-72 340.25,-72 471.75,-72 471.75,-72 477.75,-72 483.75,-78 483.75,-84 483.75,-84 483.75,-96 483.75,-96 483.75,-102 477.75,-108 471.75,-108"/>
<text xml:space="preserve" text-anchor="middle" x="406" y="-91.2" font-family="Helvetica,sans-Serif" font-size="9.00">12cm Meson Focal Size (32% AR)</text>
<text xml:space="preserve" text-anchor="middle" x="406" y="-81.45" font-family="Helvetica,sans-Serif" font-size="9.00">2K RP</text>
</g>
<!-- 15 -->
<g id="node5" class="node">
<title>15</title>
<path fill="lightgrey" stroke="black" d="M421,-36C421,-36 391,-36 391,-36 385,-36 379,-30 379,-24 379,-24 379,-12 379,-12 379,-6 385,0 391,0 391,0 421,0 421,0 427,0 433,-6 433,-12 433,-12 433,-24 433,-24 433,-30 427,-36 421,-36"/>
<text xml:space="preserve" text-anchor="middle" x="406" y="-14.32" font-family="Helvetica,sans-Serif" font-size="9.00">15</text>
</g>
<!-- cm_Meson_Focal_Size__32__AR_&#45;&gt;15 -->
<g id="edge3" class="edge">
<title>cm_Meson_Focal_Size__32__AR_&#45;&gt;15</title>
<path fill="none" stroke="black" d="M406,-71.7C406,-63.22 406,-52.86 406,-43.58"/>
<polygon fill="black" stroke="black" points="408.1,-43.62 406,-37.62 403.9,-43.62 408.1,-43.62"/>
</g>
<!-- cm_Meson_Focal_Size__25__AR_ -->
<g id="node6" class="node">
<title>cm_Meson_Focal_Size__25__AR_</title>
<path fill="#cce5ff" stroke="black" d="M645.75,-108C645.75,-108 514.25,-108 514.25,-108 508.25,-108 502.25,-102 502.25,-96 502.25,-96 502.25,-84 502.25,-84 502.25,-78 508.25,-72 514.25,-72 514.25,-72 645.75,-72 645.75,-72 651.75,-72 657.75,-78 657.75,-84 657.75,-84 657.75,-96 657.75,-96 657.75,-102 651.75,-108 645.75,-108"/>
<text xml:space="preserve" text-anchor="middle" x="580" y="-91.2" font-family="Helvetica,sans-Serif" font-size="9.00">15cm Meson Focal Size (25% AR)</text>
<text xml:space="preserve" text-anchor="middle" x="580" y="-81.45" font-family="Helvetica,sans-Serif" font-size="9.00">4K RP</text>
</g>
<!-- 20 -->
<g id="node7" class="node">
<title>20</title>
<path fill="lightgrey" stroke="black" d="M595,-36C595,-36 565,-36 565,-36 559,-36 553,-30 553,-24 553,-24 553,-12 553,-12 553,-6 559,0 565,0 565,0 595,0 595,0 601,0 607,-6 607,-12 607,-12 607,-24 607,-24 607,-30 601,-36 595,-36"/>
<text xml:space="preserve" text-anchor="middle" x="580" y="-14.32" font-family="Helvetica,sans-Serif" font-size="9.00">20</text>
</g>
<!-- cm_Meson_Focal_Size__25__AR_&#45;&gt;20 -->
<g id="edge4" class="edge">
<title>cm_Meson_Focal_Size__25__AR_&#45;&gt;20</title>
<path fill="none" stroke="black" d="M580,-71.7C580,-63.22 580,-52.86 580,-43.58"/>
<polygon fill="black" stroke="black" points="582.1,-43.62 580,-37.62 577.9,-43.62 582.1,-43.62"/>
</g>
<!-- cm_Meson_Focal_Size__20__AR_ -->
<g id="node8" class="node">
<title>cm_Meson_Focal_Size__20__AR_</title>
<path fill="#cce5ff" stroke="black" d="M819.75,-108C819.75,-108 688.25,-108 688.25,-108 682.25,-108 676.25,-102 676.25,-96 676.25,-96 676.25,-84 676.25,-84 676.25,-78 682.25,-72 688.25,-72 688.25,-72 819.75,-72 819.75,-72 825.75,-72 831.75,-78 831.75,-84 831.75,-84 831.75,-96 831.75,-96 831.75,-102 825.75,-108 819.75,-108"/>
<text xml:space="preserve" text-anchor="middle" x="754" y="-91.2" font-family="Helvetica,sans-Serif" font-size="9.00">20cm Meson Focal Size (20% AR)</text>
<text xml:space="preserve" text-anchor="middle" x="754" y="-81.45" font-family="Helvetica,sans-Serif" font-size="9.00">8K RP</text>
</g>
<!-- 25 -->
<g id="node9" class="node">
<title>25</title>
<path fill="lightgrey" stroke="black" d="M769,-36C769,-36 739,-36 739,-36 733,-36 727,-30 727,-24 727,-24 727,-12 727,-12 727,-6 733,0 739,0 739,0 769,0 769,0 775,0 781,-6 781,-12 781,-12 781,-24 781,-24 781,-30 775,-36 769,-36"/>
<text xml:space="preserve" text-anchor="middle" x="754" y="-14.32" font-family="Helvetica,sans-Serif" font-size="9.00">25</text>
</g>
<!-- cm_Meson_Focal_Size__20__AR_&#45;&gt;25 -->
<g id="edge5" class="edge">
<title>cm_Meson_Focal_Size__20__AR_&#45;&gt;25</title>
<path fill="none" stroke="black" d="M754,-71.7C754,-63.22 754,-52.86 754,-43.58"/>
<polygon fill="black" stroke="black" points="756.1,-43.62 754,-37.62 751.9,-43.62 756.1,-43.62"/>
</g>
<!-- cm_Meson_Focal_Size__16__AR_ -->
<g id="node10" class="node">
<title>cm_Meson_Focal_Size__16__AR_</title>
<path fill="#fff3cd" stroke="black" d="M993.75,-108C993.75,-108 862.25,-108 862.25,-108 856.25,-108 850.25,-102 850.25,-96 850.25,-96 850.25,-84 850.25,-84 850.25,-78 856.25,-72 862.25,-72 862.25,-72 993.75,-72 993.75,-72 999.75,-72 1005.75,-78 1005.75,-84 1005.75,-84 1005.75,-96 1005.75,-96 1005.75,-102 999.75,-108 993.75,-108"/>
<text xml:space="preserve" text-anchor="middle" x="928" y="-91.2" font-family="Helvetica,sans-Serif" font-size="9.00">25cm Meson Focal Size (16% AR)</text>
<text xml:space="preserve" text-anchor="middle" x="928" y="-81.45" font-family="Helvetica,sans-Serif" font-size="9.00">15K RP</text>
</g>
<!-- 30 -->
<g id="node11" class="node">
<title>30</title>
<path fill="lightgrey" stroke="black" d="M943,-36C943,-36 913,-36 913,-36 907,-36 901,-30 901,-24 901,-24 901,-12 901,-12 901,-6 907,0 913,0 913,0 943,0 943,0 949,0 955,-6 955,-12 955,-12 955,-24 955,-24 955,-30 949,-36 943,-36"/>
<text xml:space="preserve" text-anchor="middle" x="928" y="-14.32" font-family="Helvetica,sans-Serif" font-size="9.00">30</text>
</g>
<!-- cm_Meson_Focal_Size__16__AR_&#45;&gt;30 -->
<g id="edge6" class="edge">
<title>cm_Meson_Focal_Size__16__AR_&#45;&gt;30</title>
<path fill="none" stroke="black" d="M928,-71.7C928,-63.22 928,-52.86 928,-43.58"/>
<polygon fill="black" stroke="black" points="930.1,-43.62 928,-37.62 925.9,-43.62 930.1,-43.62"/>
</g>
<!-- cm_Meson_Focal_Size__12_5__A -->
<g id="node12" class="node">
<title>cm_Meson_Focal_Size__12_5__A</title>
<path fill="#fff3cd" stroke="black" d="M1174.5,-108C1174.5,-108 1035.5,-108 1035.5,-108 1029.5,-108 1023.5,-102 1023.5,-96 1023.5,-96 1023.5,-84 1023.5,-84 1023.5,-78 1029.5,-72 1035.5,-72 1035.5,-72 1174.5,-72 1174.5,-72 1180.5,-72 1186.5,-78 1186.5,-84 1186.5,-84 1186.5,-96 1186.5,-96 1186.5,-102 1180.5,-108 1174.5,-108"/>
<text xml:space="preserve" text-anchor="middle" x="1105" y="-91.2" font-family="Helvetica,sans-Serif" font-size="9.00">30cm Meson Focal Size (12.5% AR)</text>
<text xml:space="preserve" text-anchor="middle" x="1105" y="-81.45" font-family="Helvetica,sans-Serif" font-size="9.00">30K RP</text>
</g>
<!-- 35 -->
<g id="node13" class="node">
<title>35</title>
<path fill="lightgrey" stroke="black" d="M1120,-36C1120,-36 1090,-36 1090,-36 1084,-36 1078,-30 1078,-24 1078,-24 1078,-12 1078,-12 1078,-6 1084,0 1090,0 1090,0 1120,0 1120,0 1126,0 1132,-6 1132,-12 1132,-12 1132,-24 1132,-24 1132,-30 1126,-36 1120,-36"/>
<text xml:space="preserve" text-anchor="middle" x="1105" y="-14.32" font-family="Helvetica,sans-Serif" font-size="9.00">35</text>
</g>
<!-- cm_Meson_Focal_Size__12_5__A&#45;&gt;35 -->
<g id="edge7" class="edge">
<title>cm_Meson_Focal_Size__12_5__A&#45;&gt;35</title>
<path fill="none" stroke="black" d="M1105,-71.7C1105,-63.22 1105,-52.86 1105,-43.58"/>
<polygon fill="black" stroke="black" points="1107.1,-43.62 1105,-37.62 1102.9,-43.62 1107.1,-43.62"/>
</g>
<!-- cm_Meson_Focal_Size__10__AR_ -->
<g id="node14" class="node">
<title>cm_Meson_Focal_Size__10__AR_</title>
<path fill="#fff3cd" stroke="black" d="M1347.75,-108C1347.75,-108 1216.25,-108 1216.25,-108 1210.25,-108 1204.25,-102 1204.25,-96 1204.25,-96 1204.25,-84 1204.25,-84 1204.25,-78 1210.25,-72 1216.25,-72 1216.25,-72 1347.75,-72 1347.75,-72 1353.75,-72 1359.75,-78 1359.75,-84 1359.75,-84 1359.75,-96 1359.75,-96 1359.75,-102 1353.75,-108 1347.75,-108"/>
<text xml:space="preserve" text-anchor="middle" x="1282" y="-91.2" font-family="Helvetica,sans-Serif" font-size="9.00">35cm Meson Focal Size (10% AR)</text>
<text xml:space="preserve" text-anchor="middle" x="1282" y="-81.45" font-family="Helvetica,sans-Serif" font-size="9.00">60K RP</text>
</g>
<!-- 40 -->
<g id="node15" class="node">
<title>40</title>
<path fill="lightgrey" stroke="black" d="M1297,-36C1297,-36 1267,-36 1267,-36 1261,-36 1255,-30 1255,-24 1255,-24 1255,-12 1255,-12 1255,-6 1261,0 1267,0 1267,0 1297,0 1297,0 1303,0 1309,-6 1309,-12 1309,-12 1309,-24 1309,-24 1309,-30 1303,-36 1297,-36"/>
<text xml:space="preserve" text-anchor="middle" x="1282" y="-14.32" font-family="Helvetica,sans-Serif" font-size="9.00">40</text>
</g>
<!-- cm_Meson_Focal_Size__10__AR_&#45;&gt;40 -->
<g id="edge8" class="edge">
<title>cm_Meson_Focal_Size__10__AR_&#45;&gt;40</title>
<path fill="none" stroke="black" d="M1282,-71.7C1282,-63.22 1282,-52.86 1282,-43.58"/>
<polygon fill="black" stroke="black" points="1284.1,-43.62 1282,-37.62 1279.9,-43.62 1284.1,-43.62"/>
</g>
<!-- cm_Meson_Focal_Size__8__AR_ -->
<g id="node16" class="node">
<title>cm_Meson_Focal_Size__8__AR_</title>
<path fill="#d4c4fb" stroke="black" d="M1516.12,-108C1516.12,-108 1389.88,-108 1389.88,-108 1383.88,-108 1377.88,-102 1377.88,-96 1377.88,-96 1377.88,-84 1377.88,-84 1377.88,-78 1383.88,-72 1389.88,-72 1389.88,-72 1516.12,-72 1516.12,-72 1522.12,-72 1528.12,-78 1528.12,-84 1528.12,-84 1528.12,-96 1528.12,-96 1528.12,-102 1522.12,-108 1516.12,-108"/>
<text xml:space="preserve" text-anchor="middle" x="1453" y="-91.2" font-family="Helvetica,sans-Serif" font-size="9.00">40cm Meson Focal Size (8% AR)</text>
<text xml:space="preserve" text-anchor="middle" x="1453" y="-81.45" font-family="Helvetica,sans-Serif" font-size="9.00">125K RP</text>
</g>
<!-- 50 -->
<g id="node17" class="node">
<title>50</title>
<path fill="lightgrey" stroke="black" d="M1468,-36C1468,-36 1438,-36 1438,-36 1432,-36 1426,-30 1426,-24 1426,-24 1426,-12 1426,-12 1426,-6 1432,0 1438,0 1438,0 1468,0 1468,0 1474,0 1480,-6 1480,-12 1480,-12 1480,-24 1480,-24 1480,-30 1474,-36 1468,-36"/>
<text xml:space="preserve" text-anchor="middle" x="1453" y="-14.32" font-family="Helvetica,sans-Serif" font-size="9.00">50</text>
</g>
<!-- cm_Meson_Focal_Size__8__AR_&#45;&gt;50 -->
<g id="edge9" class="edge">
<title>cm_Meson_Focal_Size__8__AR_&#45;&gt;50</title>
<path fill="none" stroke="black" d="M1453,-71.7C1453,-63.22 1453,-52.86 1453,-43.58"/>
<polygon fill="black" stroke="black" points="1455.1,-43.62 1453,-37.62 1450.9,-43.62 1455.1,-43.62"/>
</g>
<!-- cm_Meson_Focal_Size__6_4__AR -->
<g id="node18" class="node">
<title>cm_Meson_Focal_Size__6_4__AR</title>
<path fill="#d4c4fb" stroke="black" d="M1691.88,-108C1691.88,-108 1558.12,-108 1558.12,-108 1552.12,-108 1546.12,-102 1546.12,-96 1546.12,-96 1546.12,-84 1546.12,-84 1546.12,-78 1552.12,-72 1558.12,-72 1558.12,-72 1691.88,-72 1691.88,-72 1697.88,-72 1703.88,-78 1703.88,-84 1703.88,-84 1703.88,-96 1703.88,-96 1703.88,-102 1697.88,-108 1691.88,-108"/>
<text xml:space="preserve" text-anchor="middle" x="1625" y="-91.2" font-family="Helvetica,sans-Serif" font-size="9.00">50cm Meson Focal Size (6.4% AR)</text>
<text xml:space="preserve" text-anchor="middle" x="1625" y="-81.45" font-family="Helvetica,sans-Serif" font-size="9.00">250K RP</text>
</g>
<!-- 60 -->
<g id="node19" class="node">
<title>60</title>
<path fill="lightgrey" stroke="black" d="M1640,-36C1640,-36 1610,-36 1610,-36 1604,-36 1598,-30 1598,-24 1598,-24 1598,-12 1598,-12 1598,-6 1604,0 1610,0 1610,0 1640,0 1640,0 1646,0 1652,-6 1652,-12 1652,-12 1652,-24 1652,-24 1652,-30 1646,-36 1640,-36"/>
<text xml:space="preserve" text-anchor="middle" x="1625" y="-14.32" font-family="Helvetica,sans-Serif" font-size="9.00">60</text>
</g>
<!-- cm_Meson_Focal_Size__6_4__AR&#45;&gt;60 -->
<g id="edge10" class="edge">
<title>cm_Meson_Focal_Size__6_4__AR&#45;&gt;60</title>
<path fill="none" stroke="black" d="M1625,-71.7C1625,-63.22 1625,-52.86 1625,-43.58"/>
<polygon fill="black" stroke="black" points="1627.1,-43.62 1625,-37.62 1622.9,-43.62 1627.1,-43.62"/>
</g>
<!-- cm_Meson_Focal_Size__5__ -->
<g id="node20" class="node">
<title>cm_Meson_Focal_Size__5__</title>
<path fill="#d4c4fb" stroke="black" d="M1845.62,-108C1845.62,-108 1734.38,-108 1734.38,-108 1728.38,-108 1722.38,-102 1722.38,-96 1722.38,-96 1722.38,-84 1722.38,-84 1722.38,-78 1728.38,-72 1734.38,-72 1734.38,-72 1845.62,-72 1845.62,-72 1851.62,-72 1857.62,-78 1857.62,-84 1857.62,-84 1857.62,-96 1857.62,-96 1857.62,-102 1851.62,-108 1845.62,-108"/>
<text xml:space="preserve" text-anchor="middle" x="1790" y="-91.2" font-family="Helvetica,sans-Serif" font-size="9.00">60cm Meson Focal Size (5%)</text>
<text xml:space="preserve" text-anchor="middle" x="1790" y="-81.45" font-family="Helvetica,sans-Serif" font-size="9.00">500K RP</text>
</g>
<!-- 70 -->
<g id="node21" class="node">
<title>70</title>
<path fill="lightgrey" stroke="black" d="M1805,-36C1805,-36 1775,-36 1775,-36 1769,-36 1763,-30 1763,-24 1763,-24 1763,-12 1763,-12 1763,-6 1769,0 1775,0 1775,0 1805,0 1805,0 1811,0 1817,-6 1817,-12 1817,-12 1817,-24 1817,-24 1817,-30 1811,-36 1805,-36"/>
<text xml:space="preserve" text-anchor="middle" x="1790" y="-14.32" font-family="Helvetica,sans-Serif" font-size="9.00">70</text>
</g>
<!-- cm_Meson_Focal_Size__5__&#45;&gt;70 -->
<g id="edge11" class="edge">
<title>cm_Meson_Focal_Size__5__&#45;&gt;70</title>
<path fill="none" stroke="black" d="M1790,-71.7C1790,-63.22 1790,-52.86 1790,-43.58"/>
<polygon fill="black" stroke="black" points="1792.1,-43.62 1790,-37.62 1787.9,-43.62 1792.1,-43.62"/>
</g>
<!-- cm_Meson_Focal_Size__4__ -->
<g id="node22" class="node">
<title>cm_Meson_Focal_Size__4__</title>
<path fill="#d4c4fb" stroke="black" d="M1998.62,-108C1998.62,-108 1887.38,-108 1887.38,-108 1881.38,-108 1875.38,-102 1875.38,-96 1875.38,-96 1875.38,-84 1875.38,-84 1875.38,-78 1881.38,-72 1887.38,-72 1887.38,-72 1998.62,-72 1998.62,-72 2004.62,-72 2010.62,-78 2010.62,-84 2010.62,-84 2010.62,-96 2010.62,-96 2010.62,-102 2004.62,-108 1998.62,-108"/>
<text xml:space="preserve" text-anchor="middle" x="1943" y="-91.2" font-family="Helvetica,sans-Serif" font-size="9.00">70cm Meson Focal Size (4%)</text>
<text xml:space="preserve" text-anchor="middle" x="1943" y="-81.45" font-family="Helvetica,sans-Serif" font-size="9.00">1.0M RP</text>
</g>
<!-- 80 -->
<g id="node23" class="node">
<title>80</title>
<path fill="lightgrey" stroke="black" d="M1958,-36C1958,-36 1928,-36 1928,-36 1922,-36 1916,-30 1916,-24 1916,-24 1916,-12 1916,-12 1916,-6 1922,0 1928,0 1928,0 1958,0 1958,0 1964,0 1970,-6 1970,-12 1970,-12 1970,-24 1970,-24 1970,-30 1964,-36 1958,-36"/>
<text xml:space="preserve" text-anchor="middle" x="1943" y="-14.32" font-family="Helvetica,sans-Serif" font-size="9.00">80</text>
</g>
<!-- cm_Meson_Focal_Size__4__&#45;&gt;80 -->
<g id="edge12" class="edge">
<title>cm_Meson_Focal_Size__4__&#45;&gt;80</title>
<path fill="none" stroke="black" d="M1943,-71.7C1943,-63.22 1943,-52.86 1943,-43.58"/>
<polygon fill="black" stroke="black" points="1945.1,-43.62 1943,-37.62 1940.9,-43.62 1945.1,-43.62"/>
</g>
<!-- cm_Meson_Focal_Size__3_2__ -->
<g id="node24" class="node">
<title>cm_Meson_Focal_Size__3_2__</title>
<path fill="#f8d7da" stroke="black" d="M2159.38,-108C2159.38,-108 2040.62,-108 2040.62,-108 2034.62,-108 2028.62,-102 2028.62,-96 2028.62,-96 2028.62,-84 2028.62,-84 2028.62,-78 2034.62,-72 2040.62,-72 2040.62,-72 2159.38,-72 2159.38,-72 2165.38,-72 2171.38,-78 2171.38,-84 2171.38,-84 2171.38,-96 2171.38,-96 2171.38,-102 2165.38,-108 2159.38,-108"/>
<text xml:space="preserve" text-anchor="middle" x="2100" y="-91.2" font-family="Helvetica,sans-Serif" font-size="9.00">80cm Meson Focal Size (3.2%)</text>
<text xml:space="preserve" text-anchor="middle" x="2100" y="-81.45" font-family="Helvetica,sans-Serif" font-size="9.00">2.0M RP</text>
</g>
<!-- ext_Trans_Newtonian_Technology -->
<g id="node25" class="node">
<title>ext_Trans_Newtonian_Technology</title>
<path fill="#f0f0f0" stroke="black" stroke-dasharray="5,2" d="M124,-108C124,-108 12,-108 12,-108 6,-108 0,-102 0,-96 0,-96 0,-84 0,-84 0,-78 6,-72 12,-72 12,-72 124,-72 124,-72 130,-72 136,-78 136,-84 136,-84 136,-96 136,-96 136,-102 130,-108 124,-108"/>
<text xml:space="preserve" text-anchor="middle" x="68" y="-86.33" font-family="Helvetica,sans-Serif" font-size="9.00">Trans&#45;Newtonian Technology</text>
</g>
<!-- ext_Trans_Newtonian_Technology&#45;&gt;10 -->
<g id="edge1" class="edge">
<title>ext_Trans_Newtonian_Technology&#45;&gt;10</title>
<path fill="none" stroke="black" d="M68,-71.7C68,-63.22 68,-52.86 68,-43.58"/>
<polygon fill="black" stroke="black" points="70.1,-43.62 68,-37.62 65.9,-43.62 70.1,-43.62"/>
</g>
</g>
</svg>
