<?xml version="1.0" encoding="UTF-8" standalone="no"?>
<!DOCTYPE svg PUBLIC "-//W3C//DTD SVG 1.1//EN"
 "http://www.w3.org/Graphics/SVG/1.1/DTD/svg11.dtd">
<!-- Generated by graphviz version 14.1.2 (20260124.0452)
 -->
<!-- Title: TechTree Pages: 1 -->
<svg width="2277pt" height="132pt"
 viewBox="0.00 0.00 2277.00 132.00" xmlns="http://www.w3.org/2000/svg" xmlns:xlink="http://www.w3.org/1999/xlink">
<g id="graph0" class="graph" transform="scale(1 1) rotate(0) translate(4 128)">
<title>TechTree</title>
<polygon fill="white" stroke="none" points="-4,4 -4,-128 2272.62,-128 2272.62,4 -4,4"/>
<text xml:space="preserve" text-anchor="middle" x="1134.31" y="-106.7" font-family="Helvetica,sans-Serif" font-weight="bold" font-size="14.00">Meson Focal Size</text>
<!-- 10 -->
<g id="node1" class="node">
<title>10</title>
<path fill="lightgrey" stroke="black" d="M42,-101C42,-101 12,-101 12,-101 6,-101 0,-95 0,-89 0,-89 0,-77 0,-77 0,-71 6,-65 12,-65 12,-65 42,-65 42,-65 48,-65 54,-71 54,-77 54,-77 54,-89 54,-89 54,-95 48,-101 42,-101"/>
<text xml:space="preserve" text-anchor="middle" x="27" y="-79.12" font-family="Helvetica,sans-Serif" font-size="10.00">10</text>
</g>
<!-- cm_Meson_Focal_Size__40__AR_ -->
<g id="node2" class="node">
<title>cm_Meson_Focal_Size__40__AR_</title>
<path fill="#cce5ff" stroke="black" d="M230.38,-101C230.38,-101 87.62,-101 87.62,-101 81.63,-101 75.62,-95 75.62,-89 75.62,-89 75.62,-77 75.62,-77 75.62,-71 81.62,-65 87.62,-65 87.62,-65 230.38,-65 230.38,-65 236.38,-65 242.38,-71 242.38,-77 242.38,-77 242.38,-89 242.38,-89 242.38,-95 236.38,-101 230.38,-101"/>
<text xml:space="preserve" text-anchor="middle" x="159" y="-84.75" font-family="Helvetica,sans-Serif" font-size="10.00">10cm Meson Focal Size (40% AR)</text>
<text xml:space="preserve" text-anchor="middle" x="159" y="-73.5" font-family="Helvetica,sans-Serif" font-size="10.00">1K RP</text>
</g>
<!-- 12 -->
<g id="node3" class="node">
<title>12</title>
<path fill="lightgrey" stroke="black" d="M174,-36C174,-36 144,-36 144,-36 138,-36 132,-30 132,-24 132,-24 132,-12 132,-12 132,-6 138,0 144,0 144,0 174,0 174,0 180,0 186,-6 186,-12 186,-12 186,-24 186,-24 186,-30 180,-36 174,-36"/>
<text xml:space="preserve" text-anchor="middle" x="159" y="-14.12" font-family="Helvetica,sans-Serif" font-size="10.00">12</text>
</g>
<!-- cm_Meson_Focal_Size__40__AR_&#45;&gt;12 -->
<g id="edge1" class="edge">
<title>cm_Meson_Focal_Size__40__AR_&#45;&gt;12</title>
<path fill="none" stroke="black" d="M159,-64.78C159,-58.53 159,-51.33 159,-44.52"/>
<polygon fill="black" stroke="black" points="161.45,-44.71 159,-37.71 156.55,-44.71 161.45,-44.71"/>
</g>
<!-- cm_Meson_Focal_Size__32__AR_ -->
<g id="node4" class="node">
<title>cm_Meson_Focal_Size__32__AR_</title>
<path fill="#cce5ff" stroke="black" d="M419.38,-101C419.38,-101 276.62,-101 276.62,-101 270.62,-101 264.62,-95 264.62,-89 264.62,-89 264.62,-77 264.62,-77 264.62,-71 270.62,-65 276.62,-65 276.62,-65 419.38,-65 419.38,-65 425.38,-65 431.38,-71 431.38,-77 431.38,-77 431.38,-89 431.38,-89 431.38,-95 425.38,-101 419.38,-101"/>
<text xml:space="preserve" text-anchor="middle" x="348" y="-84.75" font-family="Helvetica,sans-Serif" font-size="10.00">12cm Meson Focal Size (32% AR)</text>
<text xml:space="preserve" text-anchor="middle" x="348" y="-73.5" font-family="Helvetica,sans-Serif" font-size="10.00">2K RP</text>
</g>
<!-- 15 -->
<g id="node5" class="node">
<title>15</title>
<path fill="lightgrey" stroke="black" d="M363,-36C363,-36 333,-36 333,-36 327,-36 321,-30 321,-24 321,-24 321,-12 321,-12 321,-6 327,0 333,0 333,0 363,0 363,0 369,0 375,-6 375,-12 375,-12 375,-24 375,-24 375,-30 369,-36 363,-36"/>
<text xml:space="preserve" text-anchor="middle" x="348" y="-14.12" font-family="Helvetica,sans-Serif" font-size="10.00">15</text>
</g>
<!-- cm_Meson_Focal_Size__32__AR_&#45;&gt;15 -->
<g id="edge2" class="edge">
<title>cm_Meson_Focal_Size__32__AR_&#45;&gt;15</title>
<path fill="none" stroke="black" d="M348,-64.78C348,-58.53 348,-51.33 348,-44.52"/>
<polygon fill="black" stroke="black" points="350.45,-44.71 348,-37.71 345.55,-44.71 350.45,-44.71"/>
</g>
<!-- cm_Meson_Focal_Size__25__AR_ -->
<g id="node6" class="node">
<title>cm_Meson_Focal_Size__25__AR_</title>
<path fill="#cce5ff" stroke="black" d="M608.38,-101C608.38,-101 465.62,-101 465.62,-101 459.62,-101 453.62,-95 453.62,-89 453.62,-89 453.62,-77 453.62,-77 453.62,-71 459.62,-65 465.62,-65 465.62,-65 608.38,-65 608.38,-65 614.38,-65 620.38,-71 620.38,-77 620.38,-77 620.38,-89 620.38,-89 620.38,-95 614.38,-101 608.38,-101"/>
<text xml:space="preserve" text-anchor="middle" x="537" y="-84.75" font-family="Helvetica,sans-Serif" font-size="10.00">15cm Meson Focal Size (25% AR)</text>
<text xml:space="preserve" text-anchor="middle" x="537" y="-73.5" font-family="Helvetica,sans-Serif" font-size="10.00">4K RP</text>
</g>
<!-- 20 -->
<g id="node7" class="node">
<title>20</title>
<path fill="lightgrey" stroke="black" d="M552,-36C552,-36 522,-36 522,-36 516,-36 510,-30 510,-24 510,-24 510,-12 510,-12 510,-6 516,0 522,0 522,0 552,0 552,0 558,0 564,-6 564,-12 564,-12 564,-24 564,-24 564,-30 558,-36 552,-36"/>
<text xml:space="preserve" text-anchor="middle" x="537" y="-14.12" font-family="Helvetica,sans-Serif" font-size="10.00">20</text>
</g>
<!-- cm_Meson_Focal_Size__25__AR_&#45;&gt;20 -->
<g id="edge3" class="edge">
<title>cm_Meson_Focal_Size__25__AR_&#45;&gt;20</title>
<path fill="none" stroke="black" d="M537,-64.78C537,-58.53 537,-51.33 537,-44.52"/>
<polygon fill="black" stroke="black" points="539.45,-44.71 537,-37.71 534.55,-44.71 539.45,-44.71"/>
</g>
<!-- cm_Meson_Focal_Size__20__AR_ -->
<g id="node8" class="node">
<title>cm_Meson_Focal_Size__20__AR_</title>
<path fill="#cce5ff" stroke="black" d="M797.38,-101C797.38,-101 654.62,-101 654.62,-101 648.62,-101 642.62,-95 642.62,-89 642.62,-89 642.62,-77 642.62,-77 642.62,-71 648.62,-65 654.62,-65 654.62,-65 797.38,-65 797.38,-65 803.38,-65 809.38,-71 809.38,-77 809.38,-77 809.38,-89 809.38,-89 809.38,-95 803.38,-101 797.38,-101"/>
<text xml:space="preserve" text-anchor="middle" x="726" y="-84.75" font-family="Helvetica,sans-Serif" font-size="10.00">20cm Meson Focal Size (20% AR)</text>
<text xml:space="preserve" text-anchor="middle" x="726" y="-73.5" font-family="Helvetica,sans-Serif" font-size="10.00">8K RP</text>
</g>
<!-- 25 -->
<g id="node9" class="node">
<title>25</title>
<path fill="lightgrey" stroke="black" d="M741,-36C741,-36 711,-36 711,-36 705,-36 699,-30 699,-24 699,-24 699,-12 699,-12 699,-6 705,0 711,0 711,0 741,0 741,0 747,0 753,-6 753,-12 753,-12 753,-24 753,-24 753,-30 747,-36 741,-36"/>
<text xml:space="preserve" text-anchor="middle" x="726" y="-14.12" font-family="Helvetica,sans-Serif" font-size="10.00">25</text>
</g>
<!-- cm_Meson_Focal_Size__20__AR_&#45;&gt;25 -->
<g id="edge4" class="edge">
<title>cm_Meson_Focal_Size__20__AR_&#45;&gt;25</title>
<path fill="none" stroke="black" d="M726,-64.78C726,-58.53 726,-51.33 726,-44.52"/>
<polygon fill="black" stroke="black" points="728.45,-44.71 726,-37.71 723.55,-44.71 728.45,-44.71"/>
</g>
<!-- cm_Meson_Focal_Size__16__AR_ -->
<g id="node10" class="node">
<title>cm_Meson_Focal_Size__16__AR_</title>
<path fill="#fff3cd" stroke="black" d="M986.38,-101C986.38,-101 843.62,-101 843.62,-101 837.62,-101 831.62,-95 831.62,-89 831.62,-89 831.62,-77 831.62,-77 831.62,-71 837.62,-65 843.62,-65 843.62,-65 986.38,-65 986.38,-65 992.38,-65 998.38,-71 998.38,-77 998.38,-77 998.38,-89 998.38,-89 998.38,-95 992.38,-101 986.38,-101"/>
<text xml:space="preserve" text-anchor="middle" x="915" y="-84.75" font-family="Helvetica,sans-Serif" font-size="10.00">25cm Meson Focal Size (16% AR)</text>
<text xml:space="preserve" text-anchor="middle" x="915" y="-73.5" font-family="Helvetica,sans-Serif" font-size="10.00">15K RP</text>
</g>
<!-- 30 -->
<g id="node11" class="node">
<title>30</title>
<path fill="lightgrey" stroke="black" d="M930,-36C930,-36 900,-36 900,-36 894,-36 888,-30 888,-24 888,-24 888,-12 888,-12 888,-6 894,0 900,0 900,0 930,0 930,0 936,0 942,-6 942,-12 942,-12 942,-24 942,-24 942,-30 936,-36 930,-36"/>
<text xml:space="preserve" text-anchor="middle" x="915" y="-14.12" font-family="Helvetica,sans-Serif" font-size="10.00">30</text>
</g>
<!-- cm_Meson_Focal_Size__16__AR_&#45;&gt;30 -->
<g id="edge5" class="edge">
<title>cm_Meson_Focal_Size__16__AR_&#45;&gt;30</title>
<path fill="none" stroke="black" d="M915,-64.78C915,-58.53 915,-51.33 915,-44.52"/>
<polygon fill="black" stroke="black" points="917.45,-44.71 915,-37.71 912.55,-44.71 917.45,-44.71"/>
</g>
<!-- cm_Meson_Focal_Size__12_5__A -->
<g id="node12" class="node">
<title>cm_Meson_Focal_Size__12_5__A</title>
<path fill="#fff3cd" stroke="black" d="M1183.5,-101C1183.5,-101 1032.5,-101 1032.5,-101 1026.5,-101 1020.5,-95 1020.5,-89 1020.5,-89 1020.5,-77 1020.5,-77 1020.5,-71 1026.5,-65 1032.5,-65 1032.5,-65 1183.5,-65 1183.5,-65 1189.5,-65 1195.5,-71 1195.5,-77 1195.5,-77 1195.5,-89 1195.5,-89 1195.5,-95 1189.5,-101 1183.5,-101"/>
<text xml:space="preserve" text-anchor="middle" x="1108" y="-84.75" font-family="Helvetica,sans-Serif" font-size="10.00">30cm Meson Focal Size (12.5% AR)</text>
<text xml:space="preserve" text-anchor="middle" x="1108" y="-73.5" font-family="Helvetica,sans-Serif" font-size="10.00">30K RP</text>
</g>
<!-- 35 -->
<g id="node13" class="node">
<title>35</title>
<path fill="lightgrey" stroke="black" d="M1123,-36C1123,-36 1093,-36 1093,-36 1087,-36 1081,-30 1081,-24 1081,-24 1081,-12 1081,-12 1081,-6 1087,0 1093,0 1093,0 1123,0 1123,0 1129,0 1135,-6 1135,-12 1135,-12 1135,-24 1135,-24 1135,-30 1129,-36 1123,-36"/>
<text xml:space="preserve" text-anchor="middle" x="1108" y="-14.12" font-family="Helvetica,sans-Serif" font-size="10.00">35</text>
</g>
<!-- cm_Meson_Focal_Size__12_5__A&#45;&gt;35 -->
<g id="edge6" class="edge">
<title>cm_Meson_Focal_Size__12_5__A&#45;&gt;35</title>
<path fill="none" stroke="black" d="M1108,-64.78C1108,-58.53 1108,-51.33 1108,-44.52"/>
<polygon fill="black" stroke="black" points="1110.45,-44.71 1108,-37.71 1105.55,-44.71 1110.45,-44.71"/>
</g>
<!-- cm_Meson_Focal_Size__10__AR_ -->
<g id="node14" class="node">
<title>cm_Meson_Focal_Size__10__AR_</title>
<path fill="#fff3cd" stroke="black" d="M1372.38,-101C1372.38,-101 1229.62,-101 1229.62,-101 1223.62,-101 1217.62,-95 1217.62,-89 1217.62,-89 1217.62,-77 1217.62,-77 1217.62,-71 1223.62,-65 1229.62,-65 1229.62,-65 1372.38,-65 1372.38,-65 1378.38,-65 1384.38,-71 1384.38,-77 1384.38,-77 1384.38,-89 1384.38,-89 1384.38,-95 1378.38,-101 1372.38,-101"/>
<text xml:space="preserve" text-anchor="middle" x="1301" y="-84.75" font-family="Helvetica,sans-Serif" font-size="10.00">35cm Meson Focal Size (10% AR)</text>
<text xml:space="preserve" text-anchor="middle" x="1301" y="-73.5" font-family="Helvetica,sans-Serif" font-size="10.00">60K RP</text>
</g>
<!-- 40 -->
<g id="node15" class="node">
<title>40</title>
<path fill="lightgrey" stroke="black" d="M1316,-36C1316,-36 1286,-36 1286,-36 1280,-36 1274,-30 1274,-24 1274,-24 1274,-12 1274,-12 1274,-6 1280,0 1286,0 1286,0 1316,0 1316,0 1322,0 1328,-6 1328,-12 1328,-12 1328,-24 1328,-24 1328,-30 1322,-36 1316,-36"/>
<text xml:space="preserve" text-anchor="middle" x="1301" y="-14.12" font-family="Helvetica,sans-Serif" font-size="10.00">40</text>
</g>
<!-- cm_Meson_Focal_Size__10__AR_&#45;&gt;40 -->
<g id="edge7" class="edge">
<title>cm_Meson_Focal_Size__10__AR_&#45;&gt;40</title>
<path fill="none" stroke="black" d="M1301,-64.78C1301,-58.53 1301,-51.33 1301,-44.52"/>
<polygon fill="black" stroke="black" points="1303.45,-44.71 1301,-37.71 1298.55,-44.71 1303.45,-44.71"/>
</g>
<!-- cm_Meson_Focal_Size__8__AR_ -->
<g id="node16" class="node">
<title>cm_Meson_Focal_Size__8__AR_</title>
<path fill="#d4c4fb" stroke="black" d="M1555.75,-101C1555.75,-101 1418.25,-101 1418.25,-101 1412.25,-101 1406.25,-95 1406.25,-89 1406.25,-89 1406.25,-77 1406.25,-77 1406.25,-71 1412.25,-65 1418.25,-65 1418.25,-65 1555.75,-65 1555.75,-65 1561.75,-65 1567.75,-71 1567.75,-77 1567.75,-77 1567.75,-89 1567.75,-89 1567.75,-95 1561.75,-101 1555.75,-101"/>
<text xml:space="preserve" text-anchor="middle" x="1487" y="-84.75" font-family="Helvetica,sans-Serif" font-size="10.00">40cm Meson Focal Size (8% AR)</text>
<text xml:space="preserve" text-anchor="middle" x="1487" y="-73.5" font-family="Helvetica,sans-Serif" font-size="10.00">125K RP</text>
</g>
<!-- 50 -->
<g id="node17" class="node">
<title>50</title>
<path fill="lightgrey" stroke="black" d="M1502,-36C1502,-36 1472,-36 1472,-36 1466,-36 1460,-30 1460,-24 1460,-24 1460,-12 1460,-12 1460,-6 1466,0 1472,0 1472,0 1502,0 1502,0 1508,0 1514,-6 1514,-12 1514,-12 1514,-24 1514,-24 1514,-30 1508,-36 1502,-36"/>
<text xml:space="preserve" text-anchor="middle" x="1487" y="-14.12" font-family="Helvetica,sans-Serif" font-size="10.00">50</text>
</g>
<!-- cm_Meson_Focal_Size__8__AR_&#45;&gt;50 -->
<g id="edge8" class="edge">
<title>cm_Meson_Focal_Size__8__AR_&#45;&gt;50</title>
<path fill="none" stroke="black" d="M1487,-64.78C1487,-58.53 1487,-51.33 1487,-44.52"/>
<polygon fill="black" stroke="black" points="1489.45,-44.71 1487,-37.71 1484.55,-44.71 1489.45,-44.71"/>
</g>
<!-- cm_Meson_Focal_Size__6_4__AR -->
<g id="node18" class="node">
<title>cm_Meson_Focal_Size__6_4__AR</title>
<path fill="#d4c4fb" stroke="black" d="M1747.88,-101C1747.88,-101 1602.12,-101 1602.12,-101 1596.12,-101 1590.12,-95 1590.12,-89 1590.12,-89 1590.12,-77 1590.12,-77 1590.12,-71 1596.12,-65 1602.12,-65 1602.12,-65 1747.88,-65 1747.88,-65 1753.88,-65 1759.88,-71 1759.88,-77 1759.88,-77 1759.88,-89 1759.88,-89 1759.88,-95 1753.88,-101 1747.88,-101"/>
<text xml:space="preserve" text-anchor="middle" x="1675" y="-84.75" font-family="Helvetica,sans-Serif" font-size="10.00">50cm Meson Focal Size (6.4% AR)</text>
<text xml:space="preserve" text-anchor="middle" x="1675" y="-73.5" font-family="Helvetica,sans-Serif" font-size="10.00">250K RP</text>
</g>
<!-- 60 -->
<g id="node19" class="node">
<title>60</title>
<path fill="lightgrey" stroke="black" d="M1690,-36C1690,-36 1660,-36 1660,-36 1654,-36 1648,-30 1648,-24 1648,-24 1648,-12 1648,-12 1648,-6 1654,0 1660,0 1660,0 1690,0 1690,0 1696,0 1702,-6 1702,-12 1702,-12 1702,-24 1702,-24 1702,-30 1696,-36 1690,-36"/>
<text xml:space="preserve" text-anchor="middle" x="1675" y="-14.12" font-family="Helvetica,sans-Serif" font-size="10.00">60</text>
</g>
<!-- cm_Meson_Focal_Size__6_4__AR&#45;&gt;60 -->
<g id="edge9" class="edge">
<title>cm_Meson_Focal_Size__6_4__AR&#45;&gt;60</title>
<path fill="none" stroke="black" d="M1675,-64.78C1675,-58.53 1675,-51.33 1675,-44.52"/>
<polygon fill="black" stroke="black" points="1677.45,-44.71 1675,-37.71 1672.55,-44.71 1677.45,-44.71"/>
</g>
<!-- cm_Meson_Focal_Size__5__ -->
<g id="node20" class="node">
<title>cm_Meson_Focal_Size__5__</title>
<path fill="#d4c4fb" stroke="black" d="M1914.5,-101C1914.5,-101 1793.5,-101 1793.5,-101 1787.5,-101 1781.5,-95 1781.5,-89 1781.5,-89 1781.5,-77 1781.5,-77 1781.5,-71 1787.5,-65 1793.5,-65 1793.5,-65 1914.5,-65 1914.5,-65 1920.5,-65 1926.5,-71 1926.5,-77 1926.5,-77 1926.5,-89 1926.5,-89 1926.5,-95 1920.5,-101 1914.5,-101"/>
<text xml:space="preserve" text-anchor="middle" x="1854" y="-84.75" font-family="Helvetica,sans-Serif" font-size="10.00">60cm Meson Focal Size (5%)</text>
<text xml:space="preserve" text-anchor="middle" x="1854" y="-73.5" font-family="Helvetica,sans-Serif" font-size="10.00">500K RP</text>
</g>
<!-- 70 -->
<g id="node21" class="node">
<title>70</title>
<path fill="lightgrey" stroke="black" d="M1869,-36C1869,-36 1839,-36 1839,-36 1833,-36 1827,-30 1827,-24 1827,-24 1827,-12 1827,-12 1827,-6 1833,0 1839,0 1839,0 1869,0 1869,0 1875,0 1881,-6 1881,-12 1881,-12 1881,-24 1881,-24 1881,-30 1875,-36 1869,-36"/>
<text xml:space="preserve" text-anchor="middle" x="1854" y="-14.12" font-family="Helvetica,sans-Serif" font-size="10.00">70</text>
</g>
<!-- cm_Meson_Focal_Size__5__&#45;&gt;70 -->
<g id="edge10" class="edge">
<title>cm_Meson_Focal_Size__5__&#45;&gt;70</title>
<path fill="none" stroke="black" d="M1854,-64.78C1854,-58.53 1854,-51.33 1854,-44.52"/>
<polygon fill="black" stroke="black" points="1856.45,-44.71 1854,-37.71 1851.55,-44.71 1856.45,-44.71"/>
</g>
<!-- cm_Meson_Focal_Size__4__ -->
<g id="node22" class="node">
<title>cm_Meson_Focal_Size__4__</title>
<path fill="#d4c4fb" stroke="black" d="M2081.5,-101C2081.5,-101 1960.5,-101 1960.5,-101 1954.5,-101 1948.5,-95 1948.5,-89 1948.5,-89 1948.5,-77 1948.5,-77 1948.5,-71 1954.5,-65 1960.5,-65 1960.5,-65 2081.5,-65 2081.5,-65 2087.5,-65 2093.5,-71 2093.5,-77 2093.5,-77 2093.5,-89 2093.5,-89 2093.5,-95 2087.5,-101 2081.5,-101"/>
<text xml:space="preserve" text-anchor="middle" x="2021" y="-84.75" font-family="Helvetica,sans-Serif" font-size="10.00">70cm Meson Focal Size (4%)</text>
<text xml:space="preserve" text-anchor="middle" x="2021" y="-73.5" font-family="Helvetica,sans-Serif" font-size="10.00">1.0M RP</text>
</g>
<!-- 80 -->
<g id="node23" class="node">
<title>80</title>
<path fill="lightgrey" stroke="black" d="M2036,-36C2036,-36 2006,-36 2006,-36 2000,-36 1994,-30 1994,-24 1994,-24 1994,-12 1994,-12 1994,-6 2000,0 2006,0 2006,0 2036,0 2036,0 2042,0 2048,-6 2048,-12 2048,-12 2048,-24 2048,-24 2048,-30 2042,-36 2036,-36"/>
<text xml:space="preserve" text-anchor="middle" x="2021" y="-14.12" font-family="Helvetica,sans-Serif" font-size="10.00">80</text>
</g>
<!-- cm_Meson_Focal_Size__4__&#45;&gt;80 -->
<g id="edge11" class="edge">
<title>cm_Meson_Focal_Size__4__&#45;&gt;80</title>
<path fill="none" stroke="black" d="M2021,-64.78C2021,-58.53 2021,-51.33 2021,-44.52"/>
<polygon fill="black" stroke="black" points="2023.45,-44.71 2021,-37.71 2018.55,-44.71 2023.45,-44.71"/>
</g>
<!-- cm_Meson_Focal_Size__3_2__ -->
<g id="node24" class="node">
<title>cm_Meson_Focal_Size__3_2__</title>
<path fill="#f8d7da" stroke="black" d="M2256.62,-101C2256.62,-101 2127.38,-101 2127.38,-101 2121.38,-101 2115.38,-95 2115.38,-89 2115.38,-89 2115.38,-77 2115.38,-77 2115.38,-71 2121.38,-65 2127.38,-65 2127.38,-65 2256.62,-65 2256.62,-65 2262.62,-65 2268.62,-71 2268.62,-77 2268.62,-77 2268.62,-89 2268.62,-89 2268.62,-95 2262.62,-101 2256.62,-101"/>
<text xml:space="preserve" text-anchor="middle" x="2192" y="-84.75" font-family="Helvetica,sans-Serif" font-size="10.00">80cm Meson Focal Size (3.2%)</text>
<text xml:space="preserve" text-anchor="middle" x="2192" y="-73.5" font-family="Helvetica,sans-Serif" font-size="10.00">2.0M RP</text>
</g>
</g>
</svg>
