<?xml version="1.0" encoding="UTF-8" standalone="no"?>
<!DOCTYPE svg PUBLIC "-//W3C//DTD SVG 1.1//EN"
 "http://www.w3.org/Graphics/SVG/1.1/DTD/svg11.dtd">
<!-- Generated by graphviz version 14.1.2 (20260124.0452)
 -->
<!-- Title: TechTree Pages: 1 -->
<svg width="422pt" height="67pt"
 viewBox="0.00 0.00 422.00 67.00" xmlns="http://www.w3.org/2000/svg" xmlns:xlink="http://www.w3.org/1999/xlink">
<g id="graph0" class="graph" transform="scale(1 1) rotate(0) translate(4 63)">
<title>TechTree</title>
<polygon fill="white" stroke="none" points="-4,4 -4,-63 418,-63 418,4 -4,4"/>
<text xml:space="preserve" text-anchor="middle" x="207" y="-41.7" font-family="Helvetica,sans-Serif" font-weight="bold" font-size="14.00">Microwave Focusing</text>
<!-- Microwave_Focusing_Technology_ -->
<g id="node1" class="node">
<title>Microwave_Focusing_Technology_</title>
<path fill="#f8d7da" stroke="black" d="M160,-36C160,-36 12,-36 12,-36 6,-36 0,-30 0,-24 0,-24 0,-12 0,-12 0,-6 6,0 12,0 12,0 160,0 160,0 166,0 172,-6 172,-12 172,-12 172,-24 172,-24 172,-30 166,-36 160,-36"/>
<text xml:space="preserve" text-anchor="middle" x="86" y="-19.75" font-family="Helvetica,sans-Serif" font-size="10.00">Microwave Focusing Technology 12</text>
<text xml:space="preserve" text-anchor="middle" x="86" y="-8.5" font-family="Helvetica,sans-Serif" font-size="10.00">2.0M RP</text>
</g>
<!-- Microwave_Focusing_Technology_&#45;&gt;Microwave_Focusing_Technology_ -->
<g id="edge1" class="edge">
<title>Microwave_Focusing_Technology_&#45;&gt;Microwave_Focusing_Technology_</title>
<path fill="none" stroke="black" d="M172.43,-19.36C185.3,-19.15 194,-18.7 194,-18 194,-17.47 188.9,-17.08 180.73,-16.83"/>
<polygon fill="black" stroke="black" points="181,-14.38 173.94,-16.67 180.89,-19.28 181,-14.38"/>
</g>
<!-- Microwave_Focusing_Technology_&#45;&gt;Microwave_Focusing_Technology_ -->
<g id="edge2" class="edge">
<title>Microwave_Focusing_Technology_&#45;&gt;Microwave_Focusing_Technology_</title>
<path fill="none" stroke="black" d="M172.26,-20.99C196.96,-20.87 216,-19.88 216,-18 216,-16.34 201.16,-15.37 180.69,-15.09"/>
<polygon fill="black" stroke="black" points="180.8,-12.64 173.77,-15.03 180.75,-17.54 180.8,-12.64"/>
</g>
<!-- Microwave_Focusing_Technology_&#45;&gt;Microwave_Focusing_Technology_ -->
<g id="edge3" class="edge">
<title>Microwave_Focusing_Technology_&#45;&gt;Microwave_Focusing_Technology_</title>
<path fill="none" stroke="black" d="M172.33,-22.46C207.91,-22.76 238,-21.27 238,-18 238,-14.99 212.43,-13.49 180.55,-13.5"/>
<polygon fill="black" stroke="black" points="180.83,-11.05 173.84,-13.53 180.85,-15.95 180.83,-11.05"/>
</g>
<!-- Microwave_Focusing_Technology_&#45;&gt;Microwave_Focusing_Technology_ -->
<g id="edge4" class="edge">
<title>Microwave_Focusing_Technology_&#45;&gt;Microwave_Focusing_Technology_</title>
<path fill="none" stroke="black" d="M172.39,-23.76C218.29,-24.72 260,-22.8 260,-18 260,-13.49 223.19,-11.53 180.68,-12.1"/>
<polygon fill="black" stroke="black" points="180.86,-9.64 173.91,-12.21 180.95,-14.54 180.86,-9.64"/>
</g>
<!-- Microwave_Focusing_Technology_&#45;&gt;Microwave_Focusing_Technology_ -->
<g id="edge5" class="edge">
<title>Microwave_Focusing_Technology_&#45;&gt;Microwave_Focusing_Technology_</title>
<path fill="none" stroke="black" d="M172.4,-24.9C228.21,-26.72 282,-24.42 282,-18 282,-11.91 233.53,-9.53 180.88,-10.86"/>
<polygon fill="black" stroke="black" points="180.84,-8.41 173.91,-11.06 180.98,-13.3 180.84,-8.41"/>
</g>
<!-- Microwave_Focusing_Technology_&#45;&gt;Microwave_Focusing_Technology_ -->
<g id="edge6" class="edge">
<title>Microwave_Focusing_Technology_&#45;&gt;Microwave_Focusing_Technology_</title>
<path fill="none" stroke="black" d="M172.45,-25.9C237.82,-28.73 304,-26.1 304,-18 304,-10.25 243.39,-7.51 180.88,-9.77"/>
<polygon fill="black" stroke="black" points="180.86,-7.31 173.96,-10.04 181.05,-12.21 180.86,-7.31"/>
</g>
<!-- Microwave_Focusing_Technology_&#45;&gt;Microwave_Focusing_Technology_ -->
<g id="edge7" class="edge">
<title>Microwave_Focusing_Technology_&#45;&gt;Microwave_Focusing_Technology_</title>
<path fill="none" stroke="black" d="M172.43,-26.78C247.12,-30.76 326,-27.83 326,-18 326,-8.53 252.86,-5.47 180.76,-8.8"/>
<polygon fill="black" stroke="black" points="180.82,-6.35 173.95,-9.14 181.06,-11.24 180.82,-6.35"/>
</g>
<!-- Microwave_Focusing_Technology_&#45;&gt;Microwave_Focusing_Technology_ -->
<g id="edge8" class="edge">
<title>Microwave_Focusing_Technology_&#45;&gt;Microwave_Focusing_Technology_</title>
<path fill="none" stroke="black" d="M172.21,-27.56C256.04,-32.8 348,-29.61 348,-18 348,-6.78 262.05,-3.43 180.59,-7.95"/>
<polygon fill="black" stroke="black" points="180.57,-5.5 173.72,-8.35 180.85,-10.39 180.57,-5.5"/>
</g>
<!-- Microwave_Focusing_Technology_&#45;&gt;Microwave_Focusing_Technology_ -->
<g id="edge9" class="edge">
<title>Microwave_Focusing_Technology_&#45;&gt;Microwave_Focusing_Technology_</title>
<path fill="none" stroke="black" d="M172.5,-28.28C265.16,-34.82 370,-31.39 370,-18 370,-5.01 271.41,-1.39 180.94,-7.15"/>
<polygon fill="black" stroke="black" points="180.83,-4.7 174.01,-7.62 181.16,-9.59 180.83,-4.7"/>
</g>
<!-- Microwave_Focusing_Technology_&#45;&gt;Microwave_Focusing_Technology_ -->
<g id="edge10" class="edge">
<title>Microwave_Focusing_Technology_&#45;&gt;Microwave_Focusing_Technology_</title>
<path fill="none" stroke="black" d="M172.15,-28.89C273.64,-36.86 392,-33.23 392,-18 392,-3.18 280.02,0.66 180.51,-6.48"/>
<polygon fill="black" stroke="black" points="180.45,-4.03 173.66,-7 180.82,-8.91 180.45,-4.03"/>
</g>
<!-- Microwave_Focusing_Technology_&#45;&gt;Microwave_Focusing_Technology_ -->
<g id="edge11" class="edge">
<title>Microwave_Focusing_Technology_&#45;&gt;Microwave_Focusing_Technology_</title>
<path fill="none" stroke="black" d="M172.09,-29.46C282.2,-38.9 414,-35.08 414,-18 414,-1.35 288.81,2.7 180.51,-5.85"/>
<polygon fill="black" stroke="black" points="180.37,-3.4 173.6,-6.42 180.77,-8.28 180.37,-3.4"/>
</g>
</g>
</svg>
