<?xml version="1.0" encoding="UTF-8" standalone="no"?>
<!DOCTYPE svg PUBLIC "-//W3C//DTD SVG 1.1//EN"
 "http://www.w3.org/Graphics/SVG/1.1/DTD/svg11.dtd">
<!-- Generated by graphviz version 14.1.2 (20260124.0452)
 -->
<!-- Title: TechTree Pages: 1 -->
<svg width="895pt" height="137pt"
 viewBox="0.00 0.00 895.00 137.00" xmlns="http://www.w3.org/2000/svg" xmlns:xlink="http://www.w3.org/1999/xlink">
<g id="graph0" class="graph" transform="scale(1 1) rotate(0) translate(4 132.75)">
<title>TechTree</title>
<polygon fill="white" stroke="none" points="-4,4 -4,-132.75 891,-132.75 891,4 -4,4"/>
<text xml:space="preserve" text-anchor="middle" x="443.5" y="-113.35" font-family="Helvetica,sans-Serif" font-weight="bold" font-size="12.00">Microwave Focal Size</text>
<!-- 10 -->
<g id="node1" class="node">
<title>10</title>
<path fill="lightgrey" stroke="black" d="M83,-36C83,-36 53,-36 53,-36 47,-36 41,-30 41,-24 41,-24 41,-12 41,-12 41,-6 47,0 53,0 53,0 83,0 83,0 89,0 95,-6 95,-12 95,-12 95,-24 95,-24 95,-30 89,-36 83,-36"/>
<text xml:space="preserve" text-anchor="middle" x="68" y="-14.32" font-family="Helvetica,sans-Serif" font-size="9.00">10</text>
</g>
<!-- cm_Microwave_Focal_Size -->
<g id="node2" class="node">
<title>cm_Microwave_Focal_Size</title>
<path fill="#f8d7da" stroke="black" d="M553,-108C553,-108 447,-108 447,-108 441,-108 435,-102 435,-96 435,-96 435,-84 435,-84 435,-78 441,-72 447,-72 447,-72 553,-72 553,-72 559,-72 565,-78 565,-84 565,-84 565,-96 565,-96 565,-102 559,-108 553,-108"/>
<text xml:space="preserve" text-anchor="middle" x="500" y="-91.2" font-family="Helvetica,sans-Serif" font-size="9.00">80cm Microwave Focal Size</text>
<text xml:space="preserve" text-anchor="middle" x="500" y="-81.45" font-family="Helvetica,sans-Serif" font-size="9.00">2.0M RP</text>
</g>
<!-- 12 -->
<g id="node3" class="node">
<title>12</title>
<path fill="lightgrey" stroke="black" d="M155,-36C155,-36 125,-36 125,-36 119,-36 113,-30 113,-24 113,-24 113,-12 113,-12 113,-6 119,0 125,0 125,0 155,0 155,0 161,0 167,-6 167,-12 167,-12 167,-24 167,-24 167,-30 161,-36 155,-36"/>
<text xml:space="preserve" text-anchor="middle" x="140" y="-14.32" font-family="Helvetica,sans-Serif" font-size="9.00">12</text>
</g>
<!-- cm_Microwave_Focal_Size&#45;&gt;12 -->
<g id="edge2" class="edge">
<title>cm_Microwave_Focal_Size&#45;&gt;12</title>
<path fill="none" stroke="black" d="M434.53,-83.69C368.2,-77.07 263.21,-63.14 176,-36 175.36,-35.8 174.73,-35.6 174.09,-35.38"/>
<polygon fill="black" stroke="black" points="174.97,-33.47 168.62,-33.34 173.5,-37.4 174.97,-33.47"/>
</g>
<!-- 15 -->
<g id="node4" class="node">
<title>15</title>
<path fill="lightgrey" stroke="black" d="M227,-36C227,-36 197,-36 197,-36 191,-36 185,-30 185,-24 185,-24 185,-12 185,-12 185,-6 191,0 197,0 197,0 227,0 227,0 233,0 239,-6 239,-12 239,-12 239,-24 239,-24 239,-30 233,-36 227,-36"/>
<text xml:space="preserve" text-anchor="middle" x="212" y="-14.32" font-family="Helvetica,sans-Serif" font-size="9.00">15</text>
</g>
<!-- cm_Microwave_Focal_Size&#45;&gt;15 -->
<g id="edge3" class="edge">
<title>cm_Microwave_Focal_Size&#45;&gt;15</title>
<path fill="none" stroke="black" d="M434.67,-79.57C383.14,-71.11 309.87,-56.79 248,-36 247.37,-35.79 246.74,-35.57 246.1,-35.34"/>
<polygon fill="black" stroke="black" points="247.01,-33.44 240.65,-33.22 245.48,-37.36 247.01,-33.44"/>
</g>
<!-- 20 -->
<g id="node5" class="node">
<title>20</title>
<path fill="lightgrey" stroke="black" d="M299,-36C299,-36 269,-36 269,-36 263,-36 257,-30 257,-24 257,-24 257,-12 257,-12 257,-6 263,0 269,0 269,0 299,0 299,0 305,0 311,-6 311,-12 311,-12 311,-24 311,-24 311,-30 305,-36 299,-36"/>
<text xml:space="preserve" text-anchor="middle" x="284" y="-14.32" font-family="Helvetica,sans-Serif" font-size="9.00">20</text>
</g>
<!-- cm_Microwave_Focal_Size&#45;&gt;20 -->
<g id="edge4" class="edge">
<title>cm_Microwave_Focal_Size&#45;&gt;20</title>
<path fill="none" stroke="black" d="M434.63,-72.38C400.11,-62.94 357.29,-50.2 320,-36 319.38,-35.76 318.75,-35.52 318.12,-35.27"/>
<polygon fill="black" stroke="black" points="319.07,-33.39 312.72,-33.02 317.46,-37.27 319.07,-33.39"/>
</g>
<!-- 25 -->
<g id="node6" class="node">
<title>25</title>
<path fill="lightgrey" stroke="black" d="M371,-36C371,-36 341,-36 341,-36 335,-36 329,-30 329,-24 329,-24 329,-12 329,-12 329,-6 335,0 341,0 341,0 371,0 371,0 377,0 383,-6 383,-12 383,-12 383,-24 383,-24 383,-30 377,-36 371,-36"/>
<text xml:space="preserve" text-anchor="middle" x="356" y="-14.32" font-family="Helvetica,sans-Serif" font-size="9.00">25</text>
</g>
<!-- cm_Microwave_Focal_Size&#45;&gt;25 -->
<g id="edge5" class="edge">
<title>cm_Microwave_Focal_Size&#45;&gt;25</title>
<path fill="none" stroke="black" d="M464.03,-71.52C441.39,-60.51 412.33,-46.38 390.05,-35.55"/>
<polygon fill="black" stroke="black" points="391.05,-33.7 384.74,-32.97 389.21,-37.48 391.05,-33.7"/>
</g>
<!-- 30 -->
<g id="node7" class="node">
<title>30</title>
<path fill="lightgrey" stroke="black" d="M443,-36C443,-36 413,-36 413,-36 407,-36 401,-30 401,-24 401,-24 401,-12 401,-12 401,-6 407,0 413,0 413,0 443,0 443,0 449,0 455,-6 455,-12 455,-12 455,-24 455,-24 455,-30 449,-36 443,-36"/>
<text xml:space="preserve" text-anchor="middle" x="428" y="-14.32" font-family="Helvetica,sans-Serif" font-size="9.00">30</text>
</g>
<!-- cm_Microwave_Focal_Size&#45;&gt;30 -->
<g id="edge6" class="edge">
<title>cm_Microwave_Focal_Size&#45;&gt;30</title>
<path fill="none" stroke="black" d="M482.2,-71.7C472.77,-62.53 461.07,-51.16 450.96,-41.33"/>
<polygon fill="black" stroke="black" points="452.69,-40.08 446.93,-37.4 449.77,-43.09 452.69,-40.08"/>
</g>
<!-- 35 -->
<g id="node8" class="node">
<title>35</title>
<path fill="lightgrey" stroke="black" d="M515,-36C515,-36 485,-36 485,-36 479,-36 473,-30 473,-24 473,-24 473,-12 473,-12 473,-6 479,0 485,0 485,0 515,0 515,0 521,0 527,-6 527,-12 527,-12 527,-24 527,-24 527,-30 521,-36 515,-36"/>
<text xml:space="preserve" text-anchor="middle" x="500" y="-14.32" font-family="Helvetica,sans-Serif" font-size="9.00">35</text>
</g>
<!-- cm_Microwave_Focal_Size&#45;&gt;35 -->
<g id="edge7" class="edge">
<title>cm_Microwave_Focal_Size&#45;&gt;35</title>
<path fill="none" stroke="black" d="M500,-71.7C500,-63.22 500,-52.86 500,-43.58"/>
<polygon fill="black" stroke="black" points="502.1,-43.62 500,-37.62 497.9,-43.62 502.1,-43.62"/>
</g>
<!-- 40 -->
<g id="node9" class="node">
<title>40</title>
<path fill="lightgrey" stroke="black" d="M587,-36C587,-36 557,-36 557,-36 551,-36 545,-30 545,-24 545,-24 545,-12 545,-12 545,-6 551,0 557,0 557,0 587,0 587,0 593,0 599,-6 599,-12 599,-12 599,-24 599,-24 599,-30 593,-36 587,-36"/>
<text xml:space="preserve" text-anchor="middle" x="572" y="-14.32" font-family="Helvetica,sans-Serif" font-size="9.00">40</text>
</g>
<!-- cm_Microwave_Focal_Size&#45;&gt;40 -->
<g id="edge8" class="edge">
<title>cm_Microwave_Focal_Size&#45;&gt;40</title>
<path fill="none" stroke="black" d="M517.8,-71.7C527.23,-62.53 538.93,-51.16 549.04,-41.33"/>
<polygon fill="black" stroke="black" points="550.23,-43.09 553.07,-37.4 547.31,-40.08 550.23,-43.09"/>
</g>
<!-- 50 -->
<g id="node10" class="node">
<title>50</title>
<path fill="lightgrey" stroke="black" d="M659,-36C659,-36 629,-36 629,-36 623,-36 617,-30 617,-24 617,-24 617,-12 617,-12 617,-6 623,0 629,0 629,0 659,0 659,0 665,0 671,-6 671,-12 671,-12 671,-24 671,-24 671,-30 665,-36 659,-36"/>
<text xml:space="preserve" text-anchor="middle" x="644" y="-14.32" font-family="Helvetica,sans-Serif" font-size="9.00">50</text>
</g>
<!-- cm_Microwave_Focal_Size&#45;&gt;50 -->
<g id="edge9" class="edge">
<title>cm_Microwave_Focal_Size&#45;&gt;50</title>
<path fill="none" stroke="black" d="M535.97,-71.52C558.61,-60.51 587.67,-46.38 609.95,-35.55"/>
<polygon fill="black" stroke="black" points="610.79,-37.48 615.26,-32.97 608.95,-33.7 610.79,-37.48"/>
</g>
<!-- 60 -->
<g id="node11" class="node">
<title>60</title>
<path fill="lightgrey" stroke="black" d="M731,-36C731,-36 701,-36 701,-36 695,-36 689,-30 689,-24 689,-24 689,-12 689,-12 689,-6 695,0 701,0 701,0 731,0 731,0 737,0 743,-6 743,-12 743,-12 743,-24 743,-24 743,-30 737,-36 731,-36"/>
<text xml:space="preserve" text-anchor="middle" x="716" y="-14.32" font-family="Helvetica,sans-Serif" font-size="9.00">60</text>
</g>
<!-- cm_Microwave_Focal_Size&#45;&gt;60 -->
<g id="edge10" class="edge">
<title>cm_Microwave_Focal_Size&#45;&gt;60</title>
<path fill="none" stroke="black" d="M565.37,-72.38C599.89,-62.94 642.71,-50.2 680,-36 680.62,-35.76 681.25,-35.52 681.88,-35.27"/>
<polygon fill="black" stroke="black" points="682.54,-37.27 687.28,-33.02 680.93,-33.39 682.54,-37.27"/>
</g>
<!-- 70 -->
<g id="node12" class="node">
<title>70</title>
<path fill="lightgrey" stroke="black" d="M803,-36C803,-36 773,-36 773,-36 767,-36 761,-30 761,-24 761,-24 761,-12 761,-12 761,-6 767,0 773,0 773,0 803,0 803,0 809,0 815,-6 815,-12 815,-12 815,-24 815,-24 815,-30 809,-36 803,-36"/>
<text xml:space="preserve" text-anchor="middle" x="788" y="-14.32" font-family="Helvetica,sans-Serif" font-size="9.00">70</text>
</g>
<!-- cm_Microwave_Focal_Size&#45;&gt;70 -->
<g id="edge11" class="edge">
<title>cm_Microwave_Focal_Size&#45;&gt;70</title>
<path fill="none" stroke="black" d="M565.33,-79.57C616.86,-71.11 690.13,-56.79 752,-36 752.63,-35.79 753.26,-35.57 753.9,-35.34"/>
<polygon fill="black" stroke="black" points="754.52,-37.36 759.35,-33.22 752.99,-33.44 754.52,-37.36"/>
</g>
<!-- 80 -->
<g id="node13" class="node">
<title>80</title>
<path fill="lightgrey" stroke="black" d="M875,-36C875,-36 845,-36 845,-36 839,-36 833,-30 833,-24 833,-24 833,-12 833,-12 833,-6 839,0 845,0 845,0 875,0 875,0 881,0 887,-6 887,-12 887,-12 887,-24 887,-24 887,-30 881,-36 875,-36"/>
<text xml:space="preserve" text-anchor="middle" x="860" y="-14.32" font-family="Helvetica,sans-Serif" font-size="9.00">80</text>
</g>
<!-- cm_Microwave_Focal_Size&#45;&gt;80 -->
<g id="edge12" class="edge">
<title>cm_Microwave_Focal_Size&#45;&gt;80</title>
<path fill="none" stroke="black" d="M565.47,-83.69C631.8,-77.07 736.79,-63.14 824,-36 824.64,-35.8 825.27,-35.6 825.91,-35.38"/>
<polygon fill="black" stroke="black" points="826.5,-37.4 831.38,-33.34 825.03,-33.47 826.5,-37.4"/>
</g>
<!-- ext_Trans_Newtonian_Technology -->
<g id="node14" class="node">
<title>ext_Trans_Newtonian_Technology</title>
<path fill="#f0f0f0" stroke="black" stroke-dasharray="5,2" d="M124,-108C124,-108 12,-108 12,-108 6,-108 0,-102 0,-96 0,-96 0,-84 0,-84 0,-78 6,-72 12,-72 12,-72 124,-72 124,-72 130,-72 136,-78 136,-84 136,-84 136,-96 136,-96 136,-102 130,-108 124,-108"/>
<text xml:space="preserve" text-anchor="middle" x="68" y="-86.33" font-family="Helvetica,sans-Serif" font-size="9.00">Trans&#45;Newtonian Technology</text>
</g>
<!-- ext_Trans_Newtonian_Technology&#45;&gt;10 -->
<g id="edge1" class="edge">
<title>ext_Trans_Newtonian_Technology&#45;&gt;10</title>
<path fill="none" stroke="black" d="M68,-71.7C68,-63.22 68,-52.86 68,-43.58"/>
<polygon fill="black" stroke="black" points="70.1,-43.62 68,-37.62 65.9,-43.62 70.1,-43.62"/>
</g>
</g>
</svg>
