<?xml version="1.0" encoding="UTF-8" standalone="no"?>
<!DOCTYPE svg PUBLIC "-//W3C//DTD SVG 1.1//EN"
 "http://www.w3.org/Graphics/SVG/1.1/DTD/svg11.dtd">
<!-- Generated by graphviz version 14.1.2 (20260124.0452)
 -->
<!-- Title: TechTree Pages: 1 -->
<svg width="368pt" height="137pt"
 viewBox="0.00 0.00 368.00 137.00" xmlns="http://www.w3.org/2000/svg" xmlns:xlink="http://www.w3.org/1999/xlink">
<g id="graph0" class="graph" transform="scale(1 1) rotate(0) translate(4 132.75)">
<title>TechTree</title>
<polygon fill="white" stroke="none" points="-4,4 -4,-132.75 364.25,-132.75 364.25,4 -4,4"/>
<text xml:space="preserve" text-anchor="middle" x="180.12" y="-113.35" font-family="Helvetica,sans-Serif" font-weight="bold" font-size="12.00">Microwave Focusing</text>
<!-- Microwave_Focusing_Technology_ -->
<g id="node1" class="node">
<title>Microwave_Focusing_Technology_</title>
<path fill="#f8d7da" stroke="black" d="M150.25,-36C150.25,-36 12,-36 12,-36 6,-36 0,-30 0,-24 0,-24 0,-12 0,-12 0,-6 6,0 12,0 12,0 150.25,0 150.25,0 156.25,0 162.25,-6 162.25,-12 162.25,-12 162.25,-24 162.25,-24 162.25,-30 156.25,-36 150.25,-36"/>
<text xml:space="preserve" text-anchor="middle" x="81.12" y="-19.2" font-family="Helvetica,sans-Serif" font-size="9.00">Microwave Focusing Technology 12</text>
<text xml:space="preserve" text-anchor="middle" x="81.12" y="-9.45" font-family="Helvetica,sans-Serif" font-size="9.00">2.0M RP</text>
</g>
<!-- Microwave_Focusing_Technology_&#45;&gt;Microwave_Focusing_Technology_ -->
<g id="edge2" class="edge">
<title>Microwave_Focusing_Technology_&#45;&gt;Microwave_Focusing_Technology_</title>
<path fill="none" stroke="black" d="M162.41,-19.32C173.14,-19.1 180.25,-18.66 180.25,-18 180.25,-17.51 176.25,-17.14 169.72,-16.89"/>
<polygon fill="black" stroke="black" points="169.98,-14.79 163.92,-16.72 169.86,-18.99 169.98,-14.79"/>
</g>
<!-- Microwave_Focusing_Technology_&#45;&gt;Microwave_Focusing_Technology_ -->
<g id="edge3" class="edge">
<title>Microwave_Focusing_Technology_&#45;&gt;Microwave_Focusing_Technology_</title>
<path fill="none" stroke="black" d="M162.68,-20.96C183.04,-20.75 198.25,-19.77 198.25,-18 198.25,-16.46 186.6,-15.51 170.05,-15.16"/>
<polygon fill="black" stroke="black" points="170.23,-13.06 164.2,-15.06 170.16,-17.26 170.23,-13.06"/>
</g>
<!-- Microwave_Focusing_Technology_&#45;&gt;Microwave_Focusing_Technology_ -->
<g id="edge4" class="edge">
<title>Microwave_Focusing_Technology_&#45;&gt;Microwave_Focusing_Technology_</title>
<path fill="none" stroke="black" d="M162.59,-22.49C192.12,-22.6 216.25,-21.11 216.25,-18 216.25,-15.16 196.09,-13.67 170.07,-13.51"/>
<polygon fill="black" stroke="black" points="170.1,-11.41 164.1,-13.51 170.1,-15.61 170.1,-11.41"/>
</g>
<!-- Microwave_Focusing_Technology_&#45;&gt;Microwave_Focusing_Technology_ -->
<g id="edge5" class="edge">
<title>Microwave_Focusing_Technology_&#45;&gt;Microwave_Focusing_Technology_</title>
<path fill="none" stroke="black" d="M162.65,-23.87C200.82,-24.54 234.25,-22.58 234.25,-18 234.25,-13.71 204.87,-11.72 169.75,-12.03"/>
<polygon fill="black" stroke="black" points="170.14,-9.93 164.17,-12.11 170.19,-14.13 170.14,-9.93"/>
</g>
<!-- Microwave_Focusing_Technology_&#45;&gt;Microwave_Focusing_Technology_ -->
<g id="edge6" class="edge">
<title>Microwave_Focusing_Technology_&#45;&gt;Microwave_Focusing_Technology_</title>
<path fill="none" stroke="black" d="M162.55,-25.1C209.07,-26.52 252.25,-24.15 252.25,-18 252.25,-12.17 213.5,-9.74 169.88,-10.71"/>
<polygon fill="black" stroke="black" points="170.01,-8.6 164.07,-10.86 170.12,-12.8 170.01,-8.6"/>
</g>
<!-- Microwave_Focusing_Technology_&#45;&gt;Microwave_Focusing_Technology_ -->
<g id="edge7" class="edge">
<title>Microwave_Focusing_Technology_&#45;&gt;Microwave_Focusing_Technology_</title>
<path fill="none" stroke="black" d="M162.28,-26.19C216.92,-28.53 270.25,-25.8 270.25,-18 270.25,-10.55 221.6,-7.72 169.63,-9.53"/>
<polygon fill="black" stroke="black" points="169.71,-7.42 163.79,-9.76 169.87,-11.62 169.71,-7.42"/>
</g>
<!-- Microwave_Focusing_Technology_&#45;&gt;Microwave_Focusing_Technology_ -->
<g id="edge8" class="edge">
<title>Microwave_Focusing_Technology_&#45;&gt;Microwave_Focusing_Technology_</title>
<path fill="none" stroke="black" d="M162.72,-27.19C225.01,-30.54 288.25,-27.47 288.25,-18 288.25,-8.9 229.85,-5.71 170.02,-8.45"/>
<polygon fill="black" stroke="black" points="170.12,-6.34 164.23,-8.74 170.33,-10.54 170.12,-6.34"/>
</g>
<!-- Microwave_Focusing_Technology_&#45;&gt;Microwave_Focusing_Technology_ -->
<g id="edge9" class="edge">
<title>Microwave_Focusing_Technology_&#45;&gt;Microwave_Focusing_Technology_</title>
<path fill="none" stroke="black" d="M162.49,-28.06C232.46,-32.57 306.25,-29.22 306.25,-18 306.25,-7.18 237.56,-3.67 169.88,-7.5"/>
<polygon fill="black" stroke="black" points="169.87,-5.39 164.01,-7.85 170.12,-9.59 169.87,-5.39"/>
</g>
<!-- Microwave_Focusing_Technology_&#45;&gt;Microwave_Focusing_Technology_ -->
<g id="edge10" class="edge">
<title>Microwave_Focusing_Technology_&#45;&gt;Microwave_Focusing_Technology_</title>
<path fill="none" stroke="black" d="M162.7,-28.87C240.06,-34.6 324.25,-30.97 324.25,-18 324.25,-5.43 245.24,-1.64 169.97,-6.62"/>
<polygon fill="black" stroke="black" points="170.05,-4.51 164.21,-7.02 170.34,-8.7 170.05,-4.51"/>
</g>
<!-- Microwave_Focusing_Technology_&#45;&gt;Microwave_Focusing_Technology_ -->
<g id="edge11" class="edge">
<title>Microwave_Focusing_Technology_&#45;&gt;Microwave_Focusing_Technology_</title>
<path fill="none" stroke="black" d="M162.67,-29.59C247.36,-36.63 342.25,-32.77 342.25,-18 342.25,-3.67 252.84,0.39 170.14,-5.82"/>
<polygon fill="black" stroke="black" points="170,-3.72 164.18,-6.29 170.33,-7.91 170,-3.72"/>
</g>
<!-- Microwave_Focusing_Technology_&#45;&gt;Microwave_Focusing_Technology_ -->
<g id="edge12" class="edge">
<title>Microwave_Focusing_Technology_&#45;&gt;Microwave_Focusing_Technology_</title>
<path fill="none" stroke="black" d="M162.56,-30.25C254.48,-38.67 360.25,-34.59 360.25,-18 360.25,-1.85 259.99,2.44 169.86,-5.11"/>
<polygon fill="black" stroke="black" points="169.86,-3.01 164.07,-5.62 170.23,-7.19 169.86,-3.01"/>
</g>
<!-- ext_Trans_Newtonian_Technology -->
<g id="node2" class="node">
<title>ext_Trans_Newtonian_Technology</title>
<path fill="#f0f0f0" stroke="black" stroke-dasharray="5,2" d="M137.12,-108C137.12,-108 25.13,-108 25.13,-108 19.12,-108 13.12,-102 13.12,-96 13.12,-96 13.12,-84 13.12,-84 13.12,-78 19.12,-72 25.12,-72 25.12,-72 137.12,-72 137.12,-72 143.12,-72 149.12,-78 149.12,-84 149.12,-84 149.12,-96 149.12,-96 149.12,-102 143.12,-108 137.12,-108"/>
<text xml:space="preserve" text-anchor="middle" x="81.12" y="-86.33" font-family="Helvetica,sans-Serif" font-size="9.00">Trans&#45;Newtonian Technology</text>
</g>
<!-- ext_Trans_Newtonian_Technology&#45;&gt;Microwave_Focusing_Technology_ -->
<g id="edge1" class="edge">
<title>ext_Trans_Newtonian_Technology&#45;&gt;Microwave_Focusing_Technology_</title>
<path fill="none" stroke="black" d="M81.12,-71.7C81.12,-63.22 81.12,-52.86 81.12,-43.58"/>
<polygon fill="black" stroke="black" points="83.23,-43.62 81.13,-37.62 79.03,-43.62 83.23,-43.62"/>
</g>
</g>
</svg>
