<?xml version="1.0" encoding="UTF-8" standalone="no"?>
<!DOCTYPE svg PUBLIC "-//W3C//DTD SVG 1.1//EN"
 "http://www.w3.org/Graphics/SVG/1.1/DTD/svg11.dtd">
<!-- Generated by graphviz version 14.1.2 (20260124.0452)
 -->
<!-- Title: TechTree Pages: 1 -->
<svg width="284pt" height="65pt"
 viewBox="0.00 0.00 284.00 65.00" xmlns="http://www.w3.org/2000/svg" xmlns:xlink="http://www.w3.org/1999/xlink">
<g id="graph0" class="graph" transform="scale(1 1) rotate(0) translate(4 60.75)">
<title>TechTree</title>
<polygon fill="white" stroke="none" points="-4,4 -4,-60.75 280.25,-60.75 280.25,4 -4,4"/>
<text xml:space="preserve" text-anchor="middle" x="138.12" y="-41.35" font-family="Helvetica,sans-Serif" font-weight="bold" font-size="12.00">Min Engine Thrust Modifier</text>
<!-- Minimum_Engine_Power_Modifier_ -->
<g id="node1" class="node">
<title>Minimum_Engine_Power_Modifier_</title>
<path fill="#fff3cd" stroke="black" d="M156.25,-36C156.25,-36 12,-36 12,-36 6,-36 0,-30 0,-24 0,-24 0,-12 0,-12 0,-6 6,0 12,0 12,0 156.25,0 156.25,0 162.25,0 168.25,-6 168.25,-12 168.25,-12 168.25,-24 168.25,-24 168.25,-30 162.25,-36 156.25,-36"/>
<text xml:space="preserve" text-anchor="middle" x="84.12" y="-19.2" font-family="Helvetica,sans-Serif" font-size="9.00">Minimum Engine Power Modifier x0.1</text>
<text xml:space="preserve" text-anchor="middle" x="84.12" y="-9.45" font-family="Helvetica,sans-Serif" font-size="9.00">30K RP</text>
</g>
<!-- Minimum_Engine_Power_Modifier_&#45;&gt;Minimum_Engine_Power_Modifier_ -->
<g id="edge1" class="edge">
<title>Minimum_Engine_Power_Modifier_&#45;&gt;Minimum_Engine_Power_Modifier_</title>
<path fill="none" stroke="black" d="M168.65,-19.31C179.26,-19.08 186.25,-18.64 186.25,-18 186.25,-17.52 182.32,-17.15 175.88,-16.9"/>
<polygon fill="black" stroke="black" points="176.22,-14.81 170.16,-16.74 176.1,-19.01 176.22,-14.81"/>
</g>
<!-- Minimum_Engine_Power_Modifier_&#45;&gt;Minimum_Engine_Power_Modifier_ -->
<g id="edge2" class="edge">
<title>Minimum_Engine_Power_Modifier_&#45;&gt;Minimum_Engine_Power_Modifier_</title>
<path fill="none" stroke="black" d="M168.6,-20.95C189.06,-20.73 204.25,-19.74 204.25,-18 204.25,-16.48 192.62,-15.53 176.01,-15.17"/>
<polygon fill="black" stroke="black" points="176.15,-13.07 170.11,-15.07 176.08,-17.27 176.15,-13.07"/>
</g>
<!-- Minimum_Engine_Power_Modifier_&#45;&gt;Minimum_Engine_Power_Modifier_ -->
<g id="edge3" class="edge">
<title>Minimum_Engine_Power_Modifier_&#45;&gt;Minimum_Engine_Power_Modifier_</title>
<path fill="none" stroke="black" d="M168.42,-22.5C198.14,-22.57 222.25,-21.07 222.25,-18 222.25,-15.18 201.93,-13.69 175.61,-13.52"/>
<polygon fill="black" stroke="black" points="175.94,-11.42 169.93,-13.51 175.93,-15.62 175.94,-11.42"/>
</g>
<!-- Minimum_Engine_Power_Modifier_&#45;&gt;Minimum_Engine_Power_Modifier_ -->
<g id="edge4" class="edge">
<title>Minimum_Engine_Power_Modifier_&#45;&gt;Minimum_Engine_Power_Modifier_</title>
<path fill="none" stroke="black" d="M168.45,-23.89C206.86,-24.5 240.25,-22.53 240.25,-18 240.25,-13.75 210.9,-11.76 175.58,-12.02"/>
<polygon fill="black" stroke="black" points="175.93,-9.92 169.96,-12.09 175.98,-14.12 175.93,-9.92"/>
</g>
<!-- Minimum_Engine_Power_Modifier_&#45;&gt;Minimum_Engine_Power_Modifier_ -->
<g id="edge5" class="edge">
<title>Minimum_Engine_Power_Modifier_&#45;&gt;Minimum_Engine_Power_Modifier_</title>
<path fill="none" stroke="black" d="M168.33,-25.14C215.14,-26.47 258.25,-24.09 258.25,-18 258.25,-12.23 219.57,-9.79 175.7,-10.68"/>
<polygon fill="black" stroke="black" points="175.79,-8.58 169.85,-10.82 175.9,-12.77 175.79,-8.58"/>
</g>
<!-- Minimum_Engine_Power_Modifier_&#45;&gt;Minimum_Engine_Power_Modifier_ -->
<g id="edge6" class="edge">
<title>Minimum_Engine_Power_Modifier_&#45;&gt;Minimum_Engine_Power_Modifier_</title>
<path fill="none" stroke="black" d="M168.57,-26.27C223.36,-28.47 276.25,-25.71 276.25,-18 276.25,-10.64 228.01,-7.79 175.93,-9.47"/>
<polygon fill="black" stroke="black" points="176,-7.36 170.08,-9.68 176.15,-11.56 176,-7.36"/>
</g>
</g>
</svg>
