<?xml version="1.0" encoding="UTF-8" standalone="no"?>
<!DOCTYPE svg PUBLIC "-//W3C//DTD SVG 1.1//EN"
 "http://www.w3.org/Graphics/SVG/1.1/DTD/svg11.dtd">
<!-- Generated by graphviz version 14.1.2 (20260124.0452)
 -->
<!-- Title: TechTree Pages: 1 -->
<svg width="319pt" height="67pt"
 viewBox="0.00 0.00 319.00 67.00" xmlns="http://www.w3.org/2000/svg" xmlns:xlink="http://www.w3.org/1999/xlink">
<g id="graph0" class="graph" transform="scale(1 1) rotate(0) translate(4 63)">
<title>TechTree</title>
<polygon fill="white" stroke="none" points="-4,4 -4,-63 314.75,-63 314.75,4 -4,4"/>
<text xml:space="preserve" text-anchor="middle" x="155.38" y="-41.7" font-family="Helvetica,sans-Serif" font-weight="bold" font-size="14.00">Min Engine Thrust Modifier</text>
<!-- Minimum_Engine_Power_Modifier_ -->
<g id="node1" class="node">
<title>Minimum_Engine_Power_Modifier_</title>
<path fill="#fff3cd" stroke="black" d="M166.75,-36C166.75,-36 12,-36 12,-36 6,-36 0,-30 0,-24 0,-24 0,-12 0,-12 0,-6 6,0 12,0 12,0 166.75,0 166.75,0 172.75,0 178.75,-6 178.75,-12 178.75,-12 178.75,-24 178.75,-24 178.75,-30 172.75,-36 166.75,-36"/>
<text xml:space="preserve" text-anchor="middle" x="89.38" y="-19.75" font-family="Helvetica,sans-Serif" font-size="10.00">Minimum Engine Power Modifier x0.1</text>
<text xml:space="preserve" text-anchor="middle" x="89.38" y="-8.5" font-family="Helvetica,sans-Serif" font-size="10.00">30K RP</text>
</g>
<!-- Minimum_Engine_Power_Modifier_&#45;&gt;Minimum_Engine_Power_Modifier_ -->
<g id="edge1" class="edge">
<title>Minimum_Engine_Power_Modifier_&#45;&gt;Minimum_Engine_Power_Modifier_</title>
<path fill="none" stroke="black" d="M178.95,-19.35C191.98,-19.14 200.75,-18.69 200.75,-18 200.75,-17.47 195.61,-17.09 187.35,-16.84"/>
<polygon fill="black" stroke="black" points="187.52,-14.39 180.47,-16.68 187.41,-19.29 187.52,-14.39"/>
</g>
<!-- Minimum_Engine_Power_Modifier_&#45;&gt;Minimum_Engine_Power_Modifier_ -->
<g id="edge2" class="edge">
<title>Minimum_Engine_Power_Modifier_&#45;&gt;Minimum_Engine_Power_Modifier_</title>
<path fill="none" stroke="black" d="M179.14,-20.98C203.86,-20.84 222.75,-19.84 222.75,-18 222.75,-16.37 208.03,-15.41 187.57,-15.1"/>
<polygon fill="black" stroke="black" points="187.68,-12.66 180.65,-15.03 187.63,-17.55 187.68,-12.66"/>
</g>
<!-- Minimum_Engine_Power_Modifier_&#45;&gt;Minimum_Engine_Power_Modifier_ -->
<g id="edge3" class="edge">
<title>Minimum_Engine_Power_Modifier_&#45;&gt;Minimum_Engine_Power_Modifier_</title>
<path fill="none" stroke="black" d="M179.18,-22.48C214.87,-22.71 244.75,-21.22 244.75,-18 244.75,-15.03 219.35,-13.53 187.42,-13.5"/>
<polygon fill="black" stroke="black" points="187.68,-11.05 180.69,-13.52 187.7,-15.95 187.68,-11.05"/>
</g>
<!-- Minimum_Engine_Power_Modifier_&#45;&gt;Minimum_Engine_Power_Modifier_ -->
<g id="edge4" class="edge">
<title>Minimum_Engine_Power_Modifier_&#45;&gt;Minimum_Engine_Power_Modifier_</title>
<path fill="none" stroke="black" d="M178.81,-23.79C225.06,-24.68 266.75,-22.75 266.75,-18 266.75,-13.54 229.96,-11.56 187.16,-12.08"/>
<polygon fill="black" stroke="black" points="187.29,-9.63 180.33,-12.19 187.37,-14.53 187.29,-9.63"/>
</g>
<!-- Minimum_Engine_Power_Modifier_&#45;&gt;Minimum_Engine_Power_Modifier_ -->
<g id="edge5" class="edge">
<title>Minimum_Engine_Power_Modifier_&#45;&gt;Minimum_Engine_Power_Modifier_</title>
<path fill="none" stroke="black" d="M179.08,-24.96C235.19,-26.67 288.75,-24.35 288.75,-18 288.75,-11.96 240.3,-9.57 187.27,-10.82"/>
<polygon fill="black" stroke="black" points="187.52,-8.37 180.59,-11 187.65,-13.26 187.52,-8.37"/>
</g>
<!-- Minimum_Engine_Power_Modifier_&#45;&gt;Minimum_Engine_Power_Modifier_ -->
<g id="edge6" class="edge">
<title>Minimum_Engine_Power_Modifier_&#45;&gt;Minimum_Engine_Power_Modifier_</title>
<path fill="none" stroke="black" d="M179.18,-25.98C244.9,-28.68 310.75,-26.02 310.75,-18 310.75,-10.33 250.44,-7.56 187.65,-9.7"/>
<polygon fill="black" stroke="black" points="187.6,-7.25 180.69,-9.96 187.78,-12.14 187.6,-7.25"/>
</g>
</g>
</svg>
