<?xml version="1.0" encoding="UTF-8" standalone="no"?>
<!DOCTYPE svg PUBLIC "-//W3C//DTD SVG 1.1//EN"
 "http://www.w3.org/Graphics/SVG/1.1/DTD/svg11.dtd">
<!-- Generated by graphviz version 14.1.2 (20260124.0452)
 -->
<!-- Title: TechTree Pages: 1 -->
<svg width="139pt" height="785pt"
 viewBox="0.00 0.00 139.00 785.00" xmlns="http://www.w3.org/2000/svg" xmlns:xlink="http://www.w3.org/1999/xlink">
<g id="graph0" class="graph" transform="scale(1 1) rotate(0) translate(4 780.75)">
<title>TechTree</title>
<polygon fill="white" stroke="none" points="-4,4 -4,-780.75 134.75,-780.75 134.75,4 -4,4"/>
<text xml:space="preserve" text-anchor="middle" x="65.38" y="-761.35" font-family="Helvetica,sans-Serif" font-weight="bold" font-size="12.00">Minimum Cloak Size</text>
<!-- Minimum_Cloak_Size_25 -->
<g id="node1" class="node">
<title>Minimum_Cloak_Size_25</title>
<path fill="#cce5ff" stroke="black" d="M109.75,-684C109.75,-684 21,-684 21,-684 15,-684 9,-678 9,-672 9,-672 9,-660 9,-660 9,-654 15,-648 21,-648 21,-648 109.75,-648 109.75,-648 115.75,-648 121.75,-654 121.75,-660 121.75,-660 121.75,-672 121.75,-672 121.75,-678 115.75,-684 109.75,-684"/>
<text xml:space="preserve" text-anchor="middle" x="65.38" y="-667.2" font-family="Helvetica,sans-Serif" font-size="9.00">Minimum Cloak Size 25</text>
<text xml:space="preserve" text-anchor="middle" x="65.38" y="-657.45" font-family="Helvetica,sans-Serif" font-size="9.00">1K RP</text>
</g>
<!-- Minimum_Cloak_Size_20 -->
<g id="node2" class="node">
<title>Minimum_Cloak_Size_20</title>
<path fill="#cce5ff" stroke="black" d="M109.75,-612C109.75,-612 21,-612 21,-612 15,-612 9,-606 9,-600 9,-600 9,-588 9,-588 9,-582 15,-576 21,-576 21,-576 109.75,-576 109.75,-576 115.75,-576 121.75,-582 121.75,-588 121.75,-588 121.75,-600 121.75,-600 121.75,-606 115.75,-612 109.75,-612"/>
<text xml:space="preserve" text-anchor="middle" x="65.38" y="-595.2" font-family="Helvetica,sans-Serif" font-size="9.00">Minimum Cloak Size 20</text>
<text xml:space="preserve" text-anchor="middle" x="65.38" y="-585.45" font-family="Helvetica,sans-Serif" font-size="9.00">2K RP</text>
</g>
<!-- Minimum_Cloak_Size_25&#45;&gt;Minimum_Cloak_Size_20 -->
<g id="edge2" class="edge">
<title>Minimum_Cloak_Size_25&#45;&gt;Minimum_Cloak_Size_20</title>
<path fill="none" stroke="black" d="M65.38,-647.7C65.38,-639.22 65.38,-628.86 65.38,-619.58"/>
<polygon fill="black" stroke="black" points="67.48,-619.62 65.38,-613.62 63.28,-619.62 67.48,-619.62"/>
</g>
<!-- Minimum_Cloak_Size_15 -->
<g id="node3" class="node">
<title>Minimum_Cloak_Size_15</title>
<path fill="#cce5ff" stroke="black" d="M109.75,-540C109.75,-540 21,-540 21,-540 15,-540 9,-534 9,-528 9,-528 9,-516 9,-516 9,-510 15,-504 21,-504 21,-504 109.75,-504 109.75,-504 115.75,-504 121.75,-510 121.75,-516 121.75,-516 121.75,-528 121.75,-528 121.75,-534 115.75,-540 109.75,-540"/>
<text xml:space="preserve" text-anchor="middle" x="65.38" y="-523.2" font-family="Helvetica,sans-Serif" font-size="9.00">Minimum Cloak Size 15</text>
<text xml:space="preserve" text-anchor="middle" x="65.38" y="-513.45" font-family="Helvetica,sans-Serif" font-size="9.00">4K RP</text>
</g>
<!-- Minimum_Cloak_Size_20&#45;&gt;Minimum_Cloak_Size_15 -->
<g id="edge3" class="edge">
<title>Minimum_Cloak_Size_20&#45;&gt;Minimum_Cloak_Size_15</title>
<path fill="none" stroke="black" d="M65.38,-575.7C65.38,-567.22 65.38,-556.86 65.38,-547.58"/>
<polygon fill="black" stroke="black" points="67.48,-547.62 65.38,-541.62 63.28,-547.62 67.48,-547.62"/>
</g>
<!-- Minimum_Cloak_Size_12 -->
<g id="node4" class="node">
<title>Minimum_Cloak_Size_12</title>
<path fill="#cce5ff" stroke="black" d="M109.75,-468C109.75,-468 21,-468 21,-468 15,-468 9,-462 9,-456 9,-456 9,-444 9,-444 9,-438 15,-432 21,-432 21,-432 109.75,-432 109.75,-432 115.75,-432 121.75,-438 121.75,-444 121.75,-444 121.75,-456 121.75,-456 121.75,-462 115.75,-468 109.75,-468"/>
<text xml:space="preserve" text-anchor="middle" x="65.38" y="-451.2" font-family="Helvetica,sans-Serif" font-size="9.00">Minimum Cloak Size 12</text>
<text xml:space="preserve" text-anchor="middle" x="65.38" y="-441.45" font-family="Helvetica,sans-Serif" font-size="9.00">8K RP</text>
</g>
<!-- Minimum_Cloak_Size_15&#45;&gt;Minimum_Cloak_Size_12 -->
<g id="edge4" class="edge">
<title>Minimum_Cloak_Size_15&#45;&gt;Minimum_Cloak_Size_12</title>
<path fill="none" stroke="black" d="M65.38,-503.7C65.38,-495.22 65.38,-484.86 65.38,-475.58"/>
<polygon fill="black" stroke="black" points="67.48,-475.62 65.38,-469.62 63.28,-475.62 67.48,-475.62"/>
</g>
<!-- Minimum_Cloak_Size_10 -->
<g id="node5" class="node">
<title>Minimum_Cloak_Size_10</title>
<path fill="#fff3cd" stroke="black" d="M109.75,-396C109.75,-396 21,-396 21,-396 15,-396 9,-390 9,-384 9,-384 9,-372 9,-372 9,-366 15,-360 21,-360 21,-360 109.75,-360 109.75,-360 115.75,-360 121.75,-366 121.75,-372 121.75,-372 121.75,-384 121.75,-384 121.75,-390 115.75,-396 109.75,-396"/>
<text xml:space="preserve" text-anchor="middle" x="65.38" y="-379.2" font-family="Helvetica,sans-Serif" font-size="9.00">Minimum Cloak Size 10</text>
<text xml:space="preserve" text-anchor="middle" x="65.38" y="-369.45" font-family="Helvetica,sans-Serif" font-size="9.00">15K RP</text>
</g>
<!-- Minimum_Cloak_Size_12&#45;&gt;Minimum_Cloak_Size_10 -->
<g id="edge5" class="edge">
<title>Minimum_Cloak_Size_12&#45;&gt;Minimum_Cloak_Size_10</title>
<path fill="none" stroke="black" d="M65.38,-431.7C65.38,-423.22 65.38,-412.86 65.38,-403.58"/>
<polygon fill="black" stroke="black" points="67.48,-403.62 65.38,-397.62 63.28,-403.62 67.48,-403.62"/>
</g>
<!-- Minimum_Cloak_Size_8 -->
<g id="node6" class="node">
<title>Minimum_Cloak_Size_8</title>
<path fill="#fff3cd" stroke="black" d="M107.12,-324C107.12,-324 23.62,-324 23.62,-324 17.63,-324 11.62,-318 11.62,-312 11.62,-312 11.62,-300 11.62,-300 11.62,-294 17.62,-288 23.62,-288 23.62,-288 107.12,-288 107.12,-288 113.12,-288 119.12,-294 119.12,-300 119.12,-300 119.12,-312 119.12,-312 119.12,-318 113.12,-324 107.12,-324"/>
<text xml:space="preserve" text-anchor="middle" x="65.38" y="-307.2" font-family="Helvetica,sans-Serif" font-size="9.00">Minimum Cloak Size 8</text>
<text xml:space="preserve" text-anchor="middle" x="65.38" y="-297.45" font-family="Helvetica,sans-Serif" font-size="9.00">30K RP</text>
</g>
<!-- Minimum_Cloak_Size_10&#45;&gt;Minimum_Cloak_Size_8 -->
<g id="edge6" class="edge">
<title>Minimum_Cloak_Size_10&#45;&gt;Minimum_Cloak_Size_8</title>
<path fill="none" stroke="black" d="M65.38,-359.7C65.38,-351.22 65.38,-340.86 65.38,-331.58"/>
<polygon fill="black" stroke="black" points="67.48,-331.62 65.38,-325.62 63.28,-331.62 67.48,-331.62"/>
</g>
<!-- Minimum_Cloak_Size_6 -->
<g id="node7" class="node">
<title>Minimum_Cloak_Size_6</title>
<path fill="#fff3cd" stroke="black" d="M107.12,-252C107.12,-252 23.62,-252 23.62,-252 17.63,-252 11.62,-246 11.62,-240 11.62,-240 11.62,-228 11.62,-228 11.62,-222 17.62,-216 23.62,-216 23.62,-216 107.12,-216 107.12,-216 113.12,-216 119.12,-222 119.12,-228 119.12,-228 119.12,-240 119.12,-240 119.12,-246 113.12,-252 107.12,-252"/>
<text xml:space="preserve" text-anchor="middle" x="65.38" y="-235.2" font-family="Helvetica,sans-Serif" font-size="9.00">Minimum Cloak Size 6</text>
<text xml:space="preserve" text-anchor="middle" x="65.38" y="-225.45" font-family="Helvetica,sans-Serif" font-size="9.00">60K RP</text>
</g>
<!-- Minimum_Cloak_Size_8&#45;&gt;Minimum_Cloak_Size_6 -->
<g id="edge7" class="edge">
<title>Minimum_Cloak_Size_8&#45;&gt;Minimum_Cloak_Size_6</title>
<path fill="none" stroke="black" d="M65.38,-287.7C65.38,-279.22 65.38,-268.86 65.38,-259.58"/>
<polygon fill="black" stroke="black" points="67.48,-259.62 65.38,-253.62 63.28,-259.62 67.48,-259.62"/>
</g>
<!-- Minimum_Cloak_Size_4 -->
<g id="node8" class="node">
<title>Minimum_Cloak_Size_4</title>
<path fill="#d4c4fb" stroke="black" d="M107.12,-180C107.12,-180 23.62,-180 23.62,-180 17.63,-180 11.62,-174 11.62,-168 11.62,-168 11.62,-156 11.62,-156 11.62,-150 17.62,-144 23.62,-144 23.62,-144 107.12,-144 107.12,-144 113.12,-144 119.12,-150 119.12,-156 119.12,-156 119.12,-168 119.12,-168 119.12,-174 113.12,-180 107.12,-180"/>
<text xml:space="preserve" text-anchor="middle" x="65.38" y="-163.2" font-family="Helvetica,sans-Serif" font-size="9.00">Minimum Cloak Size 4</text>
<text xml:space="preserve" text-anchor="middle" x="65.38" y="-153.45" font-family="Helvetica,sans-Serif" font-size="9.00">125K RP</text>
</g>
<!-- Minimum_Cloak_Size_6&#45;&gt;Minimum_Cloak_Size_4 -->
<g id="edge8" class="edge">
<title>Minimum_Cloak_Size_6&#45;&gt;Minimum_Cloak_Size_4</title>
<path fill="none" stroke="black" d="M65.38,-215.7C65.38,-207.22 65.38,-196.86 65.38,-187.58"/>
<polygon fill="black" stroke="black" points="67.48,-187.62 65.38,-181.62 63.28,-187.62 67.48,-187.62"/>
</g>
<!-- Minimum_Cloak_Size_3 -->
<g id="node9" class="node">
<title>Minimum_Cloak_Size_3</title>
<path fill="#d4c4fb" stroke="black" d="M107.12,-108C107.12,-108 23.62,-108 23.62,-108 17.63,-108 11.62,-102 11.62,-96 11.62,-96 11.62,-84 11.62,-84 11.62,-78 17.62,-72 23.62,-72 23.62,-72 107.12,-72 107.12,-72 113.12,-72 119.12,-78 119.12,-84 119.12,-84 119.12,-96 119.12,-96 119.12,-102 113.12,-108 107.12,-108"/>
<text xml:space="preserve" text-anchor="middle" x="65.38" y="-91.2" font-family="Helvetica,sans-Serif" font-size="9.00">Minimum Cloak Size 3</text>
<text xml:space="preserve" text-anchor="middle" x="65.38" y="-81.45" font-family="Helvetica,sans-Serif" font-size="9.00">250K RP</text>
</g>
<!-- Minimum_Cloak_Size_4&#45;&gt;Minimum_Cloak_Size_3 -->
<g id="edge9" class="edge">
<title>Minimum_Cloak_Size_4&#45;&gt;Minimum_Cloak_Size_3</title>
<path fill="none" stroke="black" d="M65.38,-143.7C65.38,-135.22 65.38,-124.86 65.38,-115.58"/>
<polygon fill="black" stroke="black" points="67.48,-115.62 65.38,-109.62 63.28,-115.62 67.48,-115.62"/>
</g>
<!-- Minimum_Cloak_Size_2 -->
<g id="node10" class="node">
<title>Minimum_Cloak_Size_2</title>
<path fill="#d4c4fb" stroke="black" d="M107.12,-36C107.12,-36 23.62,-36 23.62,-36 17.63,-36 11.62,-30 11.62,-24 11.62,-24 11.62,-12 11.62,-12 11.62,-6 17.62,0 23.62,0 23.62,0 107.12,0 107.12,0 113.12,0 119.12,-6 119.12,-12 119.12,-12 119.12,-24 119.12,-24 119.12,-30 113.12,-36 107.12,-36"/>
<text xml:space="preserve" text-anchor="middle" x="65.38" y="-19.2" font-family="Helvetica,sans-Serif" font-size="9.00">Minimum Cloak Size 2</text>
<text xml:space="preserve" text-anchor="middle" x="65.38" y="-9.45" font-family="Helvetica,sans-Serif" font-size="9.00">500K RP</text>
</g>
<!-- Minimum_Cloak_Size_3&#45;&gt;Minimum_Cloak_Size_2 -->
<g id="edge10" class="edge">
<title>Minimum_Cloak_Size_3&#45;&gt;Minimum_Cloak_Size_2</title>
<path fill="none" stroke="black" d="M65.38,-71.7C65.38,-63.22 65.38,-52.86 65.38,-43.58"/>
<polygon fill="black" stroke="black" points="67.48,-43.62 65.38,-37.62 63.28,-43.62 67.48,-43.62"/>
</g>
<!-- ext_Cloaking_Theory -->
<g id="node11" class="node">
<title>ext_Cloaking_Theory</title>
<path fill="#f0f0f0" stroke="black" stroke-dasharray="5,2" d="M95.12,-756C95.12,-756 35.62,-756 35.62,-756 29.62,-756 23.62,-750 23.62,-744 23.62,-744 23.62,-732 23.62,-732 23.62,-726 29.62,-720 35.62,-720 35.62,-720 95.12,-720 95.12,-720 101.12,-720 107.12,-726 107.12,-732 107.12,-732 107.12,-744 107.12,-744 107.12,-750 101.12,-756 95.12,-756"/>
<text xml:space="preserve" text-anchor="middle" x="65.38" y="-734.33" font-family="Helvetica,sans-Serif" font-size="9.00">Cloaking Theory</text>
</g>
<!-- ext_Cloaking_Theory&#45;&gt;Minimum_Cloak_Size_25 -->
<g id="edge1" class="edge">
<title>ext_Cloaking_Theory&#45;&gt;Minimum_Cloak_Size_25</title>
<path fill="none" stroke="black" d="M65.38,-719.7C65.38,-711.22 65.38,-700.86 65.38,-691.58"/>
<polygon fill="black" stroke="black" points="67.48,-691.62 65.38,-685.62 63.28,-691.62 67.48,-691.62"/>
</g>
</g>
</svg>
