<?xml version="1.0" encoding="UTF-8" standalone="no"?>
<!DOCTYPE svg PUBLIC "-//W3C//DTD SVG 1.1//EN"
 "http://www.w3.org/Graphics/SVG/1.1/DTD/svg11.dtd">
<!-- Generated by graphviz version 14.1.2 (20260124.0452)
 -->
<!-- Title: TechTree Pages: 1 -->
<svg width="2448pt" height="67pt"
 viewBox="0.00 0.00 2448.00 67.00" xmlns="http://www.w3.org/2000/svg" xmlns:xlink="http://www.w3.org/1999/xlink">
<g id="graph0" class="graph" transform="scale(1 1) rotate(0) translate(4 63)">
<title>TechTree</title>
<polygon fill="white" stroke="none" points="-4,4 -4,-63 2443.88,-63 2443.88,4 -4,4"/>
<text xml:space="preserve" text-anchor="middle" x="1219.94" y="-41.7" font-family="Helvetica,sans-Serif" font-weight="bold" font-size="14.00">Missile Launcher Size</text>
<!-- Missile_Launcher_Size_1 -->
<g id="node1" class="node">
<title>Missile_Launcher_Size_1</title>
<path fill="#d4edda" stroke="black" d="M108.25,-36C108.25,-36 12,-36 12,-36 6,-36 0,-30 0,-24 0,-24 0,-12 0,-12 0,-6 6,0 12,0 12,0 108.25,0 108.25,0 114.25,0 120.25,-6 120.25,-12 120.25,-12 120.25,-24 120.25,-24 120.25,-30 114.25,-36 108.25,-36"/>
<text xml:space="preserve" text-anchor="middle" x="60.12" y="-19.75" font-family="Helvetica,sans-Serif" font-size="10.00">Missile Launcher Size 1</text>
<text xml:space="preserve" text-anchor="middle" x="60.12" y="-8.5" font-family="Helvetica,sans-Serif" font-size="10.00">1 RP</text>
</g>
<!-- Missile_Launcher_Size_2 -->
<g id="node2" class="node">
<title>Missile_Launcher_Size_2</title>
<path fill="#d4edda" stroke="black" d="M250.25,-36C250.25,-36 154,-36 154,-36 148,-36 142,-30 142,-24 142,-24 142,-12 142,-12 142,-6 148,0 154,0 154,0 250.25,0 250.25,0 256.25,0 262.25,-6 262.25,-12 262.25,-12 262.25,-24 262.25,-24 262.25,-30 256.25,-36 250.25,-36"/>
<text xml:space="preserve" text-anchor="middle" x="202.12" y="-19.75" font-family="Helvetica,sans-Serif" font-size="10.00">Missile Launcher Size 2</text>
<text xml:space="preserve" text-anchor="middle" x="202.12" y="-8.5" font-family="Helvetica,sans-Serif" font-size="10.00">2 RP</text>
</g>
<!-- Missile_Launcher_Size_3 -->
<g id="node3" class="node">
<title>Missile_Launcher_Size_3</title>
<path fill="#d4edda" stroke="black" d="M392.25,-36C392.25,-36 296,-36 296,-36 290,-36 284,-30 284,-24 284,-24 284,-12 284,-12 284,-6 290,0 296,0 296,0 392.25,0 392.25,0 398.25,0 404.25,-6 404.25,-12 404.25,-12 404.25,-24 404.25,-24 404.25,-30 398.25,-36 392.25,-36"/>
<text xml:space="preserve" text-anchor="middle" x="344.12" y="-19.75" font-family="Helvetica,sans-Serif" font-size="10.00">Missile Launcher Size 3</text>
<text xml:space="preserve" text-anchor="middle" x="344.12" y="-8.5" font-family="Helvetica,sans-Serif" font-size="10.00">3 RP</text>
</g>
<!-- Missile_Launcher_Size_4 -->
<g id="node4" class="node">
<title>Missile_Launcher_Size_4</title>
<path fill="#d4edda" stroke="black" d="M534.25,-36C534.25,-36 438,-36 438,-36 432,-36 426,-30 426,-24 426,-24 426,-12 426,-12 426,-6 432,0 438,0 438,0 534.25,0 534.25,0 540.25,0 546.25,-6 546.25,-12 546.25,-12 546.25,-24 546.25,-24 546.25,-30 540.25,-36 534.25,-36"/>
<text xml:space="preserve" text-anchor="middle" x="486.12" y="-19.75" font-family="Helvetica,sans-Serif" font-size="10.00">Missile Launcher Size 4</text>
<text xml:space="preserve" text-anchor="middle" x="486.12" y="-8.5" font-family="Helvetica,sans-Serif" font-size="10.00">4 RP</text>
</g>
<!-- Missile_Launcher_Size_5 -->
<g id="node5" class="node">
<title>Missile_Launcher_Size_5</title>
<path fill="#d4edda" stroke="black" d="M676.25,-36C676.25,-36 580,-36 580,-36 574,-36 568,-30 568,-24 568,-24 568,-12 568,-12 568,-6 574,0 580,0 580,0 676.25,0 676.25,0 682.25,0 688.25,-6 688.25,-12 688.25,-12 688.25,-24 688.25,-24 688.25,-30 682.25,-36 676.25,-36"/>
<text xml:space="preserve" text-anchor="middle" x="628.12" y="-19.75" font-family="Helvetica,sans-Serif" font-size="10.00">Missile Launcher Size 5</text>
<text xml:space="preserve" text-anchor="middle" x="628.12" y="-8.5" font-family="Helvetica,sans-Serif" font-size="10.00">5 RP</text>
</g>
<!-- Missile_Launcher_Size_6 -->
<g id="node6" class="node">
<title>Missile_Launcher_Size_6</title>
<path fill="#d4edda" stroke="black" d="M818.25,-36C818.25,-36 722,-36 722,-36 716,-36 710,-30 710,-24 710,-24 710,-12 710,-12 710,-6 716,0 722,0 722,0 818.25,0 818.25,0 824.25,0 830.25,-6 830.25,-12 830.25,-12 830.25,-24 830.25,-24 830.25,-30 824.25,-36 818.25,-36"/>
<text xml:space="preserve" text-anchor="middle" x="770.12" y="-19.75" font-family="Helvetica,sans-Serif" font-size="10.00">Missile Launcher Size 6</text>
<text xml:space="preserve" text-anchor="middle" x="770.12" y="-8.5" font-family="Helvetica,sans-Serif" font-size="10.00">6 RP</text>
</g>
<!-- Missile_Launcher_Size_7 -->
<g id="node7" class="node">
<title>Missile_Launcher_Size_7</title>
<path fill="#d4edda" stroke="black" d="M960.25,-36C960.25,-36 864,-36 864,-36 858,-36 852,-30 852,-24 852,-24 852,-12 852,-12 852,-6 858,0 864,0 864,0 960.25,0 960.25,0 966.25,0 972.25,-6 972.25,-12 972.25,-12 972.25,-24 972.25,-24 972.25,-30 966.25,-36 960.25,-36"/>
<text xml:space="preserve" text-anchor="middle" x="912.12" y="-19.75" font-family="Helvetica,sans-Serif" font-size="10.00">Missile Launcher Size 7</text>
<text xml:space="preserve" text-anchor="middle" x="912.12" y="-8.5" font-family="Helvetica,sans-Serif" font-size="10.00">7 RP</text>
</g>
<!-- Missile_Launcher_Size_8 -->
<g id="node8" class="node">
<title>Missile_Launcher_Size_8</title>
<path fill="#d4edda" stroke="black" d="M1102.25,-36C1102.25,-36 1006,-36 1006,-36 1000,-36 994,-30 994,-24 994,-24 994,-12 994,-12 994,-6 1000,0 1006,0 1006,0 1102.25,0 1102.25,0 1108.25,0 1114.25,-6 1114.25,-12 1114.25,-12 1114.25,-24 1114.25,-24 1114.25,-30 1108.25,-36 1102.25,-36"/>
<text xml:space="preserve" text-anchor="middle" x="1054.12" y="-19.75" font-family="Helvetica,sans-Serif" font-size="10.00">Missile Launcher Size 8</text>
<text xml:space="preserve" text-anchor="middle" x="1054.12" y="-8.5" font-family="Helvetica,sans-Serif" font-size="10.00">8 RP</text>
</g>
<!-- Missile_Launcher_Size_9 -->
<g id="node9" class="node">
<title>Missile_Launcher_Size_9</title>
<path fill="#d4edda" stroke="black" d="M1244.25,-36C1244.25,-36 1148,-36 1148,-36 1142,-36 1136,-30 1136,-24 1136,-24 1136,-12 1136,-12 1136,-6 1142,0 1148,0 1148,0 1244.25,0 1244.25,0 1250.25,0 1256.25,-6 1256.25,-12 1256.25,-12 1256.25,-24 1256.25,-24 1256.25,-30 1250.25,-36 1244.25,-36"/>
<text xml:space="preserve" text-anchor="middle" x="1196.12" y="-19.75" font-family="Helvetica,sans-Serif" font-size="10.00">Missile Launcher Size 9</text>
<text xml:space="preserve" text-anchor="middle" x="1196.12" y="-8.5" font-family="Helvetica,sans-Serif" font-size="10.00">9 RP</text>
</g>
<!-- Missile_Launcher_Size_10 -->
<g id="node10" class="node">
<title>Missile_Launcher_Size_10</title>
<path fill="#d4edda" stroke="black" d="M1391.88,-36C1391.88,-36 1290.38,-36 1290.38,-36 1284.38,-36 1278.38,-30 1278.38,-24 1278.38,-24 1278.38,-12 1278.38,-12 1278.38,-6 1284.38,0 1290.38,0 1290.38,0 1391.88,0 1391.88,0 1397.88,0 1403.88,-6 1403.88,-12 1403.88,-12 1403.88,-24 1403.88,-24 1403.88,-30 1397.88,-36 1391.88,-36"/>
<text xml:space="preserve" text-anchor="middle" x="1341.12" y="-19.75" font-family="Helvetica,sans-Serif" font-size="10.00">Missile Launcher Size 10</text>
<text xml:space="preserve" text-anchor="middle" x="1341.12" y="-8.5" font-family="Helvetica,sans-Serif" font-size="10.00">10 RP</text>
</g>
<!-- Missile_Launcher_Size_11 -->
<g id="node11" class="node">
<title>Missile_Launcher_Size_11</title>
<path fill="#d4edda" stroke="black" d="M1539.88,-36C1539.88,-36 1438.38,-36 1438.38,-36 1432.38,-36 1426.38,-30 1426.38,-24 1426.38,-24 1426.38,-12 1426.38,-12 1426.38,-6 1432.38,0 1438.38,0 1438.38,0 1539.88,0 1539.88,0 1545.88,0 1551.88,-6 1551.88,-12 1551.88,-12 1551.88,-24 1551.88,-24 1551.88,-30 1545.88,-36 1539.88,-36"/>
<text xml:space="preserve" text-anchor="middle" x="1489.12" y="-19.75" font-family="Helvetica,sans-Serif" font-size="10.00">Missile Launcher Size 11</text>
<text xml:space="preserve" text-anchor="middle" x="1489.12" y="-8.5" font-family="Helvetica,sans-Serif" font-size="10.00">11 RP</text>
</g>
<!-- Missile_Launcher_Size_12 -->
<g id="node12" class="node">
<title>Missile_Launcher_Size_12</title>
<path fill="#d4edda" stroke="black" d="M1687.88,-36C1687.88,-36 1586.38,-36 1586.38,-36 1580.38,-36 1574.38,-30 1574.38,-24 1574.38,-24 1574.38,-12 1574.38,-12 1574.38,-6 1580.38,0 1586.38,0 1586.38,0 1687.88,0 1687.88,0 1693.88,0 1699.88,-6 1699.88,-12 1699.88,-12 1699.88,-24 1699.88,-24 1699.88,-30 1693.88,-36 1687.88,-36"/>
<text xml:space="preserve" text-anchor="middle" x="1637.12" y="-19.75" font-family="Helvetica,sans-Serif" font-size="10.00">Missile Launcher Size 12</text>
<text xml:space="preserve" text-anchor="middle" x="1637.12" y="-8.5" font-family="Helvetica,sans-Serif" font-size="10.00">12 RP</text>
</g>
<!-- Missile_Launcher_Size_14 -->
<g id="node13" class="node">
<title>Missile_Launcher_Size_14</title>
<path fill="#d4edda" stroke="black" d="M1835.88,-36C1835.88,-36 1734.38,-36 1734.38,-36 1728.38,-36 1722.38,-30 1722.38,-24 1722.38,-24 1722.38,-12 1722.38,-12 1722.38,-6 1728.38,0 1734.38,0 1734.38,0 1835.88,0 1835.88,0 1841.88,0 1847.88,-6 1847.88,-12 1847.88,-12 1847.88,-24 1847.88,-24 1847.88,-30 1841.88,-36 1835.88,-36"/>
<text xml:space="preserve" text-anchor="middle" x="1785.12" y="-19.75" font-family="Helvetica,sans-Serif" font-size="10.00">Missile Launcher Size 14</text>
<text xml:space="preserve" text-anchor="middle" x="1785.12" y="-8.5" font-family="Helvetica,sans-Serif" font-size="10.00">14 RP</text>
</g>
<!-- Missile_Launcher_Size_16 -->
<g id="node14" class="node">
<title>Missile_Launcher_Size_16</title>
<path fill="#d4edda" stroke="black" d="M1983.88,-36C1983.88,-36 1882.38,-36 1882.38,-36 1876.38,-36 1870.38,-30 1870.38,-24 1870.38,-24 1870.38,-12 1870.38,-12 1870.38,-6 1876.38,0 1882.38,0 1882.38,0 1983.88,0 1983.88,0 1989.88,0 1995.88,-6 1995.88,-12 1995.88,-12 1995.88,-24 1995.88,-24 1995.88,-30 1989.88,-36 1983.88,-36"/>
<text xml:space="preserve" text-anchor="middle" x="1933.12" y="-19.75" font-family="Helvetica,sans-Serif" font-size="10.00">Missile Launcher Size 16</text>
<text xml:space="preserve" text-anchor="middle" x="1933.12" y="-8.5" font-family="Helvetica,sans-Serif" font-size="10.00">16 RP</text>
</g>
<!-- Missile_Launcher_Size_18 -->
<g id="node15" class="node">
<title>Missile_Launcher_Size_18</title>
<path fill="#d4edda" stroke="black" d="M2131.88,-36C2131.88,-36 2030.38,-36 2030.38,-36 2024.38,-36 2018.38,-30 2018.38,-24 2018.38,-24 2018.38,-12 2018.38,-12 2018.38,-6 2024.38,0 2030.38,0 2030.38,0 2131.88,0 2131.88,0 2137.88,0 2143.88,-6 2143.88,-12 2143.88,-12 2143.88,-24 2143.88,-24 2143.88,-30 2137.88,-36 2131.88,-36"/>
<text xml:space="preserve" text-anchor="middle" x="2081.12" y="-19.75" font-family="Helvetica,sans-Serif" font-size="10.00">Missile Launcher Size 18</text>
<text xml:space="preserve" text-anchor="middle" x="2081.12" y="-8.5" font-family="Helvetica,sans-Serif" font-size="10.00">18 RP</text>
</g>
<!-- Missile_Launcher_Size_20 -->
<g id="node16" class="node">
<title>Missile_Launcher_Size_20</title>
<path fill="#d4edda" stroke="black" d="M2279.88,-36C2279.88,-36 2178.38,-36 2178.38,-36 2172.38,-36 2166.38,-30 2166.38,-24 2166.38,-24 2166.38,-12 2166.38,-12 2166.38,-6 2172.38,0 2178.38,0 2178.38,0 2279.88,0 2279.88,0 2285.88,0 2291.88,-6 2291.88,-12 2291.88,-12 2291.88,-24 2291.88,-24 2291.88,-30 2285.88,-36 2279.88,-36"/>
<text xml:space="preserve" text-anchor="middle" x="2229.12" y="-19.75" font-family="Helvetica,sans-Serif" font-size="10.00">Missile Launcher Size 20</text>
<text xml:space="preserve" text-anchor="middle" x="2229.12" y="-8.5" font-family="Helvetica,sans-Serif" font-size="10.00">20 RP</text>
</g>
<!-- Missile_Launcher_Size_24 -->
<g id="node17" class="node">
<title>Missile_Launcher_Size_24</title>
<path fill="#d4edda" stroke="black" d="M2427.88,-36C2427.88,-36 2326.38,-36 2326.38,-36 2320.38,-36 2314.38,-30 2314.38,-24 2314.38,-24 2314.38,-12 2314.38,-12 2314.38,-6 2320.38,0 2326.38,0 2326.38,0 2427.88,0 2427.88,0 2433.88,0 2439.88,-6 2439.88,-12 2439.88,-12 2439.88,-24 2439.88,-24 2439.88,-30 2433.88,-36 2427.88,-36"/>
<text xml:space="preserve" text-anchor="middle" x="2377.12" y="-19.75" font-family="Helvetica,sans-Serif" font-size="10.00">Missile Launcher Size 24</text>
<text xml:space="preserve" text-anchor="middle" x="2377.12" y="-8.5" font-family="Helvetica,sans-Serif" font-size="10.00">24 RP</text>
</g>
</g>
</svg>
