<?xml version="1.0" encoding="UTF-8" standalone="no"?>
<!DOCTYPE svg PUBLIC "-//W3C//DTD SVG 1.1//EN"
 "http://www.w3.org/Graphics/SVG/1.1/DTD/svg11.dtd">
<!-- Generated by graphviz version 14.1.2 (20260124.0452)
 -->
<!-- Title: TechTree Pages: 1 -->
<svg width="112pt" height="785pt"
 viewBox="0.00 0.00 112.00 785.00" xmlns="http://www.w3.org/2000/svg" xmlns:xlink="http://www.w3.org/1999/xlink">
<g id="graph0" class="graph" transform="scale(1 1) rotate(0) translate(4 780.75)">
<title>TechTree</title>
<polygon fill="white" stroke="none" points="-4,4 -4,-780.75 107.75,-780.75 107.75,4 -4,4"/>
<text xml:space="preserve" text-anchor="middle" x="51.88" y="-761.35" font-family="Helvetica,sans-Serif" font-weight="bold" font-size="12.00">Missile Jammer</text>
<!-- Missile_Jammer_1 -->
<g id="node1" class="node">
<title>Missile_Jammer_1</title>
<path fill="#cce5ff" stroke="black" d="M83.5,-684C83.5,-684 20.25,-684 20.25,-684 14.25,-684 8.25,-678 8.25,-672 8.25,-672 8.25,-660 8.25,-660 8.25,-654 14.25,-648 20.25,-648 20.25,-648 83.5,-648 83.5,-648 89.5,-648 95.5,-654 95.5,-660 95.5,-660 95.5,-672 95.5,-672 95.5,-678 89.5,-684 83.5,-684"/>
<text xml:space="preserve" text-anchor="middle" x="51.88" y="-667.2" font-family="Helvetica,sans-Serif" font-size="9.00">Missile Jammer 1</text>
<text xml:space="preserve" text-anchor="middle" x="51.88" y="-657.45" font-family="Helvetica,sans-Serif" font-size="9.00">2K RP</text>
</g>
<!-- Missile_Jammer_2 -->
<g id="node2" class="node">
<title>Missile_Jammer_2</title>
<path fill="#cce5ff" stroke="black" d="M83.5,-612C83.5,-612 20.25,-612 20.25,-612 14.25,-612 8.25,-606 8.25,-600 8.25,-600 8.25,-588 8.25,-588 8.25,-582 14.25,-576 20.25,-576 20.25,-576 83.5,-576 83.5,-576 89.5,-576 95.5,-582 95.5,-588 95.5,-588 95.5,-600 95.5,-600 95.5,-606 89.5,-612 83.5,-612"/>
<text xml:space="preserve" text-anchor="middle" x="51.88" y="-595.2" font-family="Helvetica,sans-Serif" font-size="9.00">Missile Jammer 2</text>
<text xml:space="preserve" text-anchor="middle" x="51.88" y="-585.45" font-family="Helvetica,sans-Serif" font-size="9.00">5K RP</text>
</g>
<!-- Missile_Jammer_1&#45;&gt;Missile_Jammer_2 -->
<g id="edge2" class="edge">
<title>Missile_Jammer_1&#45;&gt;Missile_Jammer_2</title>
<path fill="none" stroke="black" d="M51.88,-647.7C51.88,-639.22 51.88,-628.86 51.88,-619.58"/>
<polygon fill="black" stroke="black" points="53.98,-619.62 51.88,-613.62 49.78,-619.62 53.98,-619.62"/>
</g>
<!-- Missile_Jammer_3 -->
<g id="node3" class="node">
<title>Missile_Jammer_3</title>
<path fill="#cce5ff" stroke="black" d="M83.5,-540C83.5,-540 20.25,-540 20.25,-540 14.25,-540 8.25,-534 8.25,-528 8.25,-528 8.25,-516 8.25,-516 8.25,-510 14.25,-504 20.25,-504 20.25,-504 83.5,-504 83.5,-504 89.5,-504 95.5,-510 95.5,-516 95.5,-516 95.5,-528 95.5,-528 95.5,-534 89.5,-540 83.5,-540"/>
<text xml:space="preserve" text-anchor="middle" x="51.88" y="-523.2" font-family="Helvetica,sans-Serif" font-size="9.00">Missile Jammer 3</text>
<text xml:space="preserve" text-anchor="middle" x="51.88" y="-513.45" font-family="Helvetica,sans-Serif" font-size="9.00">10K RP</text>
</g>
<!-- Missile_Jammer_2&#45;&gt;Missile_Jammer_3 -->
<g id="edge3" class="edge">
<title>Missile_Jammer_2&#45;&gt;Missile_Jammer_3</title>
<path fill="none" stroke="black" d="M51.88,-575.7C51.88,-567.22 51.88,-556.86 51.88,-547.58"/>
<polygon fill="black" stroke="black" points="53.98,-547.62 51.88,-541.62 49.78,-547.62 53.98,-547.62"/>
</g>
<!-- Missile_Jammer_4 -->
<g id="node4" class="node">
<title>Missile_Jammer_4</title>
<path fill="#fff3cd" stroke="black" d="M83.5,-468C83.5,-468 20.25,-468 20.25,-468 14.25,-468 8.25,-462 8.25,-456 8.25,-456 8.25,-444 8.25,-444 8.25,-438 14.25,-432 20.25,-432 20.25,-432 83.5,-432 83.5,-432 89.5,-432 95.5,-438 95.5,-444 95.5,-444 95.5,-456 95.5,-456 95.5,-462 89.5,-468 83.5,-468"/>
<text xml:space="preserve" text-anchor="middle" x="51.88" y="-451.2" font-family="Helvetica,sans-Serif" font-size="9.00">Missile Jammer 4</text>
<text xml:space="preserve" text-anchor="middle" x="51.88" y="-441.45" font-family="Helvetica,sans-Serif" font-size="9.00">20K RP</text>
</g>
<!-- Missile_Jammer_3&#45;&gt;Missile_Jammer_4 -->
<g id="edge4" class="edge">
<title>Missile_Jammer_3&#45;&gt;Missile_Jammer_4</title>
<path fill="none" stroke="black" d="M51.88,-503.7C51.88,-495.22 51.88,-484.86 51.88,-475.58"/>
<polygon fill="black" stroke="black" points="53.98,-475.62 51.88,-469.62 49.78,-475.62 53.98,-475.62"/>
</g>
<!-- Missile_Jammer_5 -->
<g id="node5" class="node">
<title>Missile_Jammer_5</title>
<path fill="#fff3cd" stroke="black" d="M83.5,-396C83.5,-396 20.25,-396 20.25,-396 14.25,-396 8.25,-390 8.25,-384 8.25,-384 8.25,-372 8.25,-372 8.25,-366 14.25,-360 20.25,-360 20.25,-360 83.5,-360 83.5,-360 89.5,-360 95.5,-366 95.5,-372 95.5,-372 95.5,-384 95.5,-384 95.5,-390 89.5,-396 83.5,-396"/>
<text xml:space="preserve" text-anchor="middle" x="51.88" y="-379.2" font-family="Helvetica,sans-Serif" font-size="9.00">Missile Jammer 5</text>
<text xml:space="preserve" text-anchor="middle" x="51.88" y="-369.45" font-family="Helvetica,sans-Serif" font-size="9.00">40K RP</text>
</g>
<!-- Missile_Jammer_4&#45;&gt;Missile_Jammer_5 -->
<g id="edge5" class="edge">
<title>Missile_Jammer_4&#45;&gt;Missile_Jammer_5</title>
<path fill="none" stroke="black" d="M51.88,-431.7C51.88,-423.22 51.88,-412.86 51.88,-403.58"/>
<polygon fill="black" stroke="black" points="53.98,-403.62 51.88,-397.62 49.78,-403.62 53.98,-403.62"/>
</g>
<!-- Missile_Jammer_6 -->
<g id="node6" class="node">
<title>Missile_Jammer_6</title>
<path fill="#fff3cd" stroke="black" d="M83.5,-324C83.5,-324 20.25,-324 20.25,-324 14.25,-324 8.25,-318 8.25,-312 8.25,-312 8.25,-300 8.25,-300 8.25,-294 14.25,-288 20.25,-288 20.25,-288 83.5,-288 83.5,-288 89.5,-288 95.5,-294 95.5,-300 95.5,-300 95.5,-312 95.5,-312 95.5,-318 89.5,-324 83.5,-324"/>
<text xml:space="preserve" text-anchor="middle" x="51.88" y="-307.2" font-family="Helvetica,sans-Serif" font-size="9.00">Missile Jammer 6</text>
<text xml:space="preserve" text-anchor="middle" x="51.88" y="-297.45" font-family="Helvetica,sans-Serif" font-size="9.00">80K RP</text>
</g>
<!-- Missile_Jammer_5&#45;&gt;Missile_Jammer_6 -->
<g id="edge6" class="edge">
<title>Missile_Jammer_5&#45;&gt;Missile_Jammer_6</title>
<path fill="none" stroke="black" d="M51.88,-359.7C51.88,-351.22 51.88,-340.86 51.88,-331.58"/>
<polygon fill="black" stroke="black" points="53.98,-331.62 51.88,-325.62 49.78,-331.62 53.98,-331.62"/>
</g>
<!-- Missile_Jammer_7 -->
<g id="node7" class="node">
<title>Missile_Jammer_7</title>
<path fill="#d4c4fb" stroke="black" d="M83.5,-252C83.5,-252 20.25,-252 20.25,-252 14.25,-252 8.25,-246 8.25,-240 8.25,-240 8.25,-228 8.25,-228 8.25,-222 14.25,-216 20.25,-216 20.25,-216 83.5,-216 83.5,-216 89.5,-216 95.5,-222 95.5,-228 95.5,-228 95.5,-240 95.5,-240 95.5,-246 89.5,-252 83.5,-252"/>
<text xml:space="preserve" text-anchor="middle" x="51.88" y="-235.2" font-family="Helvetica,sans-Serif" font-size="9.00">Missile Jammer 7</text>
<text xml:space="preserve" text-anchor="middle" x="51.88" y="-225.45" font-family="Helvetica,sans-Serif" font-size="9.00">150K RP</text>
</g>
<!-- Missile_Jammer_6&#45;&gt;Missile_Jammer_7 -->
<g id="edge7" class="edge">
<title>Missile_Jammer_6&#45;&gt;Missile_Jammer_7</title>
<path fill="none" stroke="black" d="M51.88,-287.7C51.88,-279.22 51.88,-268.86 51.88,-259.58"/>
<polygon fill="black" stroke="black" points="53.98,-259.62 51.88,-253.62 49.78,-259.62 53.98,-259.62"/>
</g>
<!-- Missile_Jammer_8 -->
<g id="node8" class="node">
<title>Missile_Jammer_8</title>
<path fill="#d4c4fb" stroke="black" d="M83.5,-180C83.5,-180 20.25,-180 20.25,-180 14.25,-180 8.25,-174 8.25,-168 8.25,-168 8.25,-156 8.25,-156 8.25,-150 14.25,-144 20.25,-144 20.25,-144 83.5,-144 83.5,-144 89.5,-144 95.5,-150 95.5,-156 95.5,-156 95.5,-168 95.5,-168 95.5,-174 89.5,-180 83.5,-180"/>
<text xml:space="preserve" text-anchor="middle" x="51.88" y="-163.2" font-family="Helvetica,sans-Serif" font-size="9.00">Missile Jammer 8</text>
<text xml:space="preserve" text-anchor="middle" x="51.88" y="-153.45" font-family="Helvetica,sans-Serif" font-size="9.00">300K RP</text>
</g>
<!-- Missile_Jammer_7&#45;&gt;Missile_Jammer_8 -->
<g id="edge8" class="edge">
<title>Missile_Jammer_7&#45;&gt;Missile_Jammer_8</title>
<path fill="none" stroke="black" d="M51.88,-215.7C51.88,-207.22 51.88,-196.86 51.88,-187.58"/>
<polygon fill="black" stroke="black" points="53.98,-187.62 51.88,-181.62 49.78,-187.62 53.98,-187.62"/>
</g>
<!-- Missile_Jammer_9 -->
<g id="node9" class="node">
<title>Missile_Jammer_9</title>
<path fill="#d4c4fb" stroke="black" d="M83.5,-108C83.5,-108 20.25,-108 20.25,-108 14.25,-108 8.25,-102 8.25,-96 8.25,-96 8.25,-84 8.25,-84 8.25,-78 14.25,-72 20.25,-72 20.25,-72 83.5,-72 83.5,-72 89.5,-72 95.5,-78 95.5,-84 95.5,-84 95.5,-96 95.5,-96 95.5,-102 89.5,-108 83.5,-108"/>
<text xml:space="preserve" text-anchor="middle" x="51.88" y="-91.2" font-family="Helvetica,sans-Serif" font-size="9.00">Missile Jammer 9</text>
<text xml:space="preserve" text-anchor="middle" x="51.88" y="-81.45" font-family="Helvetica,sans-Serif" font-size="9.00">600K RP</text>
</g>
<!-- Missile_Jammer_8&#45;&gt;Missile_Jammer_9 -->
<g id="edge9" class="edge">
<title>Missile_Jammer_8&#45;&gt;Missile_Jammer_9</title>
<path fill="none" stroke="black" d="M51.88,-143.7C51.88,-135.22 51.88,-124.86 51.88,-115.58"/>
<polygon fill="black" stroke="black" points="53.98,-115.62 51.88,-109.62 49.78,-115.62 53.98,-115.62"/>
</g>
<!-- Missile_Jammer_10 -->
<g id="node10" class="node">
<title>Missile_Jammer_10</title>
<path fill="#f8d7da" stroke="black" d="M86.12,-36C86.12,-36 17.62,-36 17.62,-36 11.62,-36 5.62,-30 5.62,-24 5.62,-24 5.62,-12 5.62,-12 5.62,-6 11.62,0 17.62,0 17.62,0 86.12,0 86.12,0 92.12,0 98.12,-6 98.12,-12 98.12,-12 98.12,-24 98.12,-24 98.12,-30 92.12,-36 86.12,-36"/>
<text xml:space="preserve" text-anchor="middle" x="51.88" y="-19.2" font-family="Helvetica,sans-Serif" font-size="9.00">Missile Jammer 10</text>
<text xml:space="preserve" text-anchor="middle" x="51.88" y="-9.45" font-family="Helvetica,sans-Serif" font-size="9.00">1.2M RP</text>
</g>
<!-- Missile_Jammer_9&#45;&gt;Missile_Jammer_10 -->
<g id="edge10" class="edge">
<title>Missile_Jammer_9&#45;&gt;Missile_Jammer_10</title>
<path fill="none" stroke="black" d="M51.88,-71.7C51.88,-63.22 51.88,-52.86 51.88,-43.58"/>
<polygon fill="black" stroke="black" points="53.98,-43.62 51.88,-37.62 49.78,-43.62 53.98,-43.62"/>
</g>
<!-- ext_Electronic_Warfare -->
<g id="node11" class="node">
<title>ext_Electronic_Warfare</title>
<path fill="#f0f0f0" stroke="black" stroke-dasharray="5,2" d="M85,-756C85,-756 18.75,-756 18.75,-756 12.75,-756 6.75,-750 6.75,-744 6.75,-744 6.75,-732 6.75,-732 6.75,-726 12.75,-720 18.75,-720 18.75,-720 85,-720 85,-720 91,-720 97,-726 97,-732 97,-732 97,-744 97,-744 97,-750 91,-756 85,-756"/>
<text xml:space="preserve" text-anchor="middle" x="51.88" y="-734.33" font-family="Helvetica,sans-Serif" font-size="9.00">Electronic Warfare</text>
</g>
<!-- ext_Electronic_Warfare&#45;&gt;Missile_Jammer_1 -->
<g id="edge1" class="edge">
<title>ext_Electronic_Warfare&#45;&gt;Missile_Jammer_1</title>
<path fill="none" stroke="black" d="M51.88,-719.7C51.88,-711.22 51.88,-700.86 51.88,-691.58"/>
<polygon fill="black" stroke="black" points="53.98,-691.62 51.88,-685.62 49.78,-691.62 53.98,-691.62"/>
</g>
</g>
</svg>
