<?xml version="1.0" encoding="UTF-8" standalone="no"?>
<!DOCTYPE svg PUBLIC "-//W3C//DTD SVG 1.1//EN"
 "http://www.w3.org/Graphics/SVG/1.1/DTD/svg11.dtd">
<!-- Generated by graphviz version 14.1.2 (20260124.0452)
 -->
<!-- Title: TechTree Pages: 1 -->
<svg width="350pt" height="641pt"
 viewBox="0.00 0.00 350.00 641.00" xmlns="http://www.w3.org/2000/svg" xmlns:xlink="http://www.w3.org/1999/xlink">
<g id="graph0" class="graph" transform="scale(1 1) rotate(0) translate(4 636.75)">
<title>TechTree</title>
<polygon fill="white" stroke="none" points="-4,4 -4,-636.75 346.25,-636.75 346.25,4 -4,4"/>
<text xml:space="preserve" text-anchor="middle" x="171.12" y="-617.35" font-family="Helvetica,sans-Serif" font-weight="bold" font-size="12.00">Missile Launcher Reload Rate</text>
<!-- Missile_Launcher_Reload_Rate_1 -->
<g id="node1" class="node">
<title>Missile_Launcher_Reload_Rate_1</title>
<path fill="#f8d7da" stroke="black" d="M294.25,-612C294.25,-612 165.75,-612 165.75,-612 159.75,-612 153.75,-606 153.75,-600 153.75,-600 153.75,-588 153.75,-588 153.75,-582 159.75,-576 165.75,-576 165.75,-576 294.25,-576 294.25,-576 300.25,-576 306.25,-582 306.25,-588 306.25,-588 306.25,-600 306.25,-600 306.25,-606 300.25,-612 294.25,-612"/>
<text xml:space="preserve" text-anchor="middle" x="230" y="-595.2" font-family="Helvetica,sans-Serif" font-size="9.00">Missile Launcher Reload Rate 12</text>
<text xml:space="preserve" text-anchor="middle" x="230" y="-585.45" font-family="Helvetica,sans-Serif" font-size="9.00">2.0M RP</text>
</g>
<!-- Missile_Launcher_Reload_Rate_1&#45;&gt;Missile_Launcher_Reload_Rate_1 -->
<g id="edge11" class="edge">
<title>Missile_Launcher_Reload_Rate_1&#45;&gt;Missile_Launcher_Reload_Rate_1</title>
<path fill="none" stroke="black" d="M306.55,-600.02C317.16,-599.03 324.25,-597.02 324.25,-594 324.25,-591.73 320.26,-590.04 313.79,-588.91"/>
<polygon fill="black" stroke="black" points="314.27,-586.86 308.05,-588.17 313.73,-591.02 314.27,-586.86"/>
</g>
<!-- Missile_Launcher_Reload_Rate_1&#45;&gt;Missile_Launcher_Reload_Rate_1 -->
<g id="edge12" class="edge">
<title>Missile_Launcher_Reload_Rate_1&#45;&gt;Missile_Launcher_Reload_Rate_1</title>
<path fill="none" stroke="black" d="M306.6,-607.38C326.89,-606.62 342.25,-602.16 342.25,-594 342.25,-586.86 330.49,-582.56 313.95,-581.08"/>
<polygon fill="black" stroke="black" points="314.23,-578.99 308.11,-580.71 313.97,-583.18 314.23,-578.99"/>
</g>
<!-- Missile_Launcher_Reload_Rate_2 -->
<g id="node2" class="node">
<title>Missile_Launcher_Reload_Rate_2</title>
<path fill="#cce5ff" stroke="black" d="M189.62,-540C189.62,-540 66.38,-540 66.38,-540 60.38,-540 54.38,-534 54.38,-528 54.38,-528 54.38,-516 54.38,-516 54.38,-510 60.38,-504 66.38,-504 66.38,-504 189.62,-504 189.62,-504 195.62,-504 201.62,-510 201.62,-516 201.62,-516 201.62,-528 201.62,-528 201.62,-534 195.62,-540 189.62,-540"/>
<text xml:space="preserve" text-anchor="middle" x="128" y="-523.2" font-family="Helvetica,sans-Serif" font-size="9.00">Missile Launcher Reload Rate 2</text>
<text xml:space="preserve" text-anchor="middle" x="128" y="-513.45" font-family="Helvetica,sans-Serif" font-size="9.00">2K RP</text>
</g>
<!-- Missile_Launcher_Reload_Rate_1&#45;&gt;Missile_Launcher_Reload_Rate_2 -->
<g id="edge1" class="edge">
<title>Missile_Launcher_Reload_Rate_1&#45;&gt;Missile_Launcher_Reload_Rate_2</title>
<path fill="none" stroke="black" d="M204.52,-575.52C190.79,-566.09 173.73,-554.38 159.2,-544.41"/>
<polygon fill="black" stroke="black" points="160.53,-542.78 154.4,-541.12 158.16,-546.24 160.53,-542.78"/>
</g>
<!-- Missile_Launcher_Reload_Rate_3 -->
<g id="node3" class="node">
<title>Missile_Launcher_Reload_Rate_3</title>
<path fill="#cce5ff" stroke="black" d="M189.62,-468C189.62,-468 66.38,-468 66.38,-468 60.38,-468 54.38,-462 54.38,-456 54.38,-456 54.38,-444 54.38,-444 54.38,-438 60.38,-432 66.38,-432 66.38,-432 189.62,-432 189.62,-432 195.62,-432 201.62,-438 201.62,-444 201.62,-444 201.62,-456 201.62,-456 201.62,-462 195.62,-468 189.62,-468"/>
<text xml:space="preserve" text-anchor="middle" x="128" y="-451.2" font-family="Helvetica,sans-Serif" font-size="9.00">Missile Launcher Reload Rate 3</text>
<text xml:space="preserve" text-anchor="middle" x="128" y="-441.45" font-family="Helvetica,sans-Serif" font-size="9.00">4K RP</text>
</g>
<!-- Missile_Launcher_Reload_Rate_2&#45;&gt;Missile_Launcher_Reload_Rate_3 -->
<g id="edge3" class="edge">
<title>Missile_Launcher_Reload_Rate_2&#45;&gt;Missile_Launcher_Reload_Rate_3</title>
<path fill="none" stroke="black" d="M128,-503.7C128,-495.22 128,-484.86 128,-475.58"/>
<polygon fill="black" stroke="black" points="130.1,-475.62 128,-469.62 125.9,-475.62 130.1,-475.62"/>
</g>
<!-- Missile_Launcher_Reload_Rate_4 -->
<g id="node4" class="node">
<title>Missile_Launcher_Reload_Rate_4</title>
<path fill="#cce5ff" stroke="black" d="M189.62,-396C189.62,-396 66.38,-396 66.38,-396 60.38,-396 54.38,-390 54.38,-384 54.38,-384 54.38,-372 54.38,-372 54.38,-366 60.38,-360 66.38,-360 66.38,-360 189.62,-360 189.62,-360 195.62,-360 201.62,-366 201.62,-372 201.62,-372 201.62,-384 201.62,-384 201.62,-390 195.62,-396 189.62,-396"/>
<text xml:space="preserve" text-anchor="middle" x="128" y="-379.2" font-family="Helvetica,sans-Serif" font-size="9.00">Missile Launcher Reload Rate 4</text>
<text xml:space="preserve" text-anchor="middle" x="128" y="-369.45" font-family="Helvetica,sans-Serif" font-size="9.00">8K RP</text>
</g>
<!-- Missile_Launcher_Reload_Rate_3&#45;&gt;Missile_Launcher_Reload_Rate_4 -->
<g id="edge4" class="edge">
<title>Missile_Launcher_Reload_Rate_3&#45;&gt;Missile_Launcher_Reload_Rate_4</title>
<path fill="none" stroke="black" d="M128,-431.7C128,-423.22 128,-412.86 128,-403.58"/>
<polygon fill="black" stroke="black" points="130.1,-403.62 128,-397.62 125.9,-403.62 130.1,-403.62"/>
</g>
<!-- Missile_Launcher_Reload_Rate_5 -->
<g id="node5" class="node">
<title>Missile_Launcher_Reload_Rate_5</title>
<path fill="#fff3cd" stroke="black" d="M189.62,-324C189.62,-324 66.38,-324 66.38,-324 60.38,-324 54.38,-318 54.38,-312 54.38,-312 54.38,-300 54.38,-300 54.38,-294 60.38,-288 66.38,-288 66.38,-288 189.62,-288 189.62,-288 195.62,-288 201.62,-294 201.62,-300 201.62,-300 201.62,-312 201.62,-312 201.62,-318 195.62,-324 189.62,-324"/>
<text xml:space="preserve" text-anchor="middle" x="128" y="-307.2" font-family="Helvetica,sans-Serif" font-size="9.00">Missile Launcher Reload Rate 5</text>
<text xml:space="preserve" text-anchor="middle" x="128" y="-297.45" font-family="Helvetica,sans-Serif" font-size="9.00">15K RP</text>
</g>
<!-- Missile_Launcher_Reload_Rate_4&#45;&gt;Missile_Launcher_Reload_Rate_5 -->
<g id="edge5" class="edge">
<title>Missile_Launcher_Reload_Rate_4&#45;&gt;Missile_Launcher_Reload_Rate_5</title>
<path fill="none" stroke="black" d="M128,-359.7C128,-351.22 128,-340.86 128,-331.58"/>
<polygon fill="black" stroke="black" points="130.1,-331.62 128,-325.62 125.9,-331.62 130.1,-331.62"/>
</g>
<!-- Missile_Launcher_Reload_Rate_6 -->
<g id="node6" class="node">
<title>Missile_Launcher_Reload_Rate_6</title>
<path fill="#fff3cd" stroke="black" d="M189.62,-252C189.62,-252 66.38,-252 66.38,-252 60.38,-252 54.38,-246 54.38,-240 54.38,-240 54.38,-228 54.38,-228 54.38,-222 60.38,-216 66.38,-216 66.38,-216 189.62,-216 189.62,-216 195.62,-216 201.62,-222 201.62,-228 201.62,-228 201.62,-240 201.62,-240 201.62,-246 195.62,-252 189.62,-252"/>
<text xml:space="preserve" text-anchor="middle" x="128" y="-235.2" font-family="Helvetica,sans-Serif" font-size="9.00">Missile Launcher Reload Rate 6</text>
<text xml:space="preserve" text-anchor="middle" x="128" y="-225.45" font-family="Helvetica,sans-Serif" font-size="9.00">30K RP</text>
</g>
<!-- Missile_Launcher_Reload_Rate_5&#45;&gt;Missile_Launcher_Reload_Rate_6 -->
<g id="edge6" class="edge">
<title>Missile_Launcher_Reload_Rate_5&#45;&gt;Missile_Launcher_Reload_Rate_6</title>
<path fill="none" stroke="black" d="M128,-287.7C128,-279.22 128,-268.86 128,-259.58"/>
<polygon fill="black" stroke="black" points="130.1,-259.62 128,-253.62 125.9,-259.62 130.1,-259.62"/>
</g>
<!-- Missile_Launcher_Reload_Rate_7 -->
<g id="node7" class="node">
<title>Missile_Launcher_Reload_Rate_7</title>
<path fill="#fff3cd" stroke="black" d="M189.62,-180C189.62,-180 66.38,-180 66.38,-180 60.38,-180 54.38,-174 54.38,-168 54.38,-168 54.38,-156 54.38,-156 54.38,-150 60.38,-144 66.38,-144 66.38,-144 189.62,-144 189.62,-144 195.62,-144 201.62,-150 201.62,-156 201.62,-156 201.62,-168 201.62,-168 201.62,-174 195.62,-180 189.62,-180"/>
<text xml:space="preserve" text-anchor="middle" x="128" y="-163.2" font-family="Helvetica,sans-Serif" font-size="9.00">Missile Launcher Reload Rate 7</text>
<text xml:space="preserve" text-anchor="middle" x="128" y="-153.45" font-family="Helvetica,sans-Serif" font-size="9.00">60K RP</text>
</g>
<!-- Missile_Launcher_Reload_Rate_6&#45;&gt;Missile_Launcher_Reload_Rate_7 -->
<g id="edge7" class="edge">
<title>Missile_Launcher_Reload_Rate_6&#45;&gt;Missile_Launcher_Reload_Rate_7</title>
<path fill="none" stroke="black" d="M128,-215.7C128,-207.22 128,-196.86 128,-187.58"/>
<polygon fill="black" stroke="black" points="130.1,-187.62 128,-181.62 125.9,-187.62 130.1,-187.62"/>
</g>
<!-- Missile_Launcher_Reload_Rate_8 -->
<g id="node8" class="node">
<title>Missile_Launcher_Reload_Rate_8</title>
<path fill="#d4c4fb" stroke="black" d="M189.62,-108C189.62,-108 66.38,-108 66.38,-108 60.38,-108 54.38,-102 54.38,-96 54.38,-96 54.38,-84 54.38,-84 54.38,-78 60.38,-72 66.38,-72 66.38,-72 189.62,-72 189.62,-72 195.62,-72 201.62,-78 201.62,-84 201.62,-84 201.62,-96 201.62,-96 201.62,-102 195.62,-108 189.62,-108"/>
<text xml:space="preserve" text-anchor="middle" x="128" y="-91.2" font-family="Helvetica,sans-Serif" font-size="9.00">Missile Launcher Reload Rate 8</text>
<text xml:space="preserve" text-anchor="middle" x="128" y="-81.45" font-family="Helvetica,sans-Serif" font-size="9.00">125K RP</text>
</g>
<!-- Missile_Launcher_Reload_Rate_7&#45;&gt;Missile_Launcher_Reload_Rate_8 -->
<g id="edge8" class="edge">
<title>Missile_Launcher_Reload_Rate_7&#45;&gt;Missile_Launcher_Reload_Rate_8</title>
<path fill="none" stroke="black" d="M128,-143.7C128,-135.22 128,-124.86 128,-115.58"/>
<polygon fill="black" stroke="black" points="130.1,-115.62 128,-109.62 125.9,-115.62 130.1,-115.62"/>
</g>
<!-- Missile_Launcher_Reload_Rate_9 -->
<g id="node9" class="node">
<title>Missile_Launcher_Reload_Rate_9</title>
<path fill="#d4c4fb" stroke="black" d="M240.62,-36C240.62,-36 117.38,-36 117.38,-36 111.38,-36 105.38,-30 105.38,-24 105.38,-24 105.38,-12 105.38,-12 105.38,-6 111.38,0 117.38,0 117.38,0 240.62,0 240.62,0 246.62,0 252.62,-6 252.62,-12 252.62,-12 252.62,-24 252.62,-24 252.62,-30 246.62,-36 240.62,-36"/>
<text xml:space="preserve" text-anchor="middle" x="179" y="-19.2" font-family="Helvetica,sans-Serif" font-size="9.00">Missile Launcher Reload Rate 9</text>
<text xml:space="preserve" text-anchor="middle" x="179" y="-9.45" font-family="Helvetica,sans-Serif" font-size="9.00">250K RP</text>
</g>
<!-- Missile_Launcher_Reload_Rate_8&#45;&gt;Missile_Launcher_Reload_Rate_9 -->
<g id="edge9" class="edge">
<title>Missile_Launcher_Reload_Rate_8&#45;&gt;Missile_Launcher_Reload_Rate_9</title>
<path fill="none" stroke="black" d="M140.61,-71.7C147.15,-62.71 155.24,-51.61 162.3,-41.92"/>
<polygon fill="black" stroke="black" points="163.81,-43.41 165.65,-37.33 160.42,-40.94 163.81,-43.41"/>
</g>
<!-- Missile_Launcher_Reload_Rate_9&#45;&gt;Missile_Launcher_Reload_Rate_1 -->
<g id="edge10" class="edge">
<title>Missile_Launcher_Reload_Rate_9&#45;&gt;Missile_Launcher_Reload_Rate_1</title>
<path fill="none" stroke="black" d="M191.52,-36.38C198.19,-46.37 206.02,-59.41 211,-72 225.88,-109.61 230,-120.55 230,-161 230,-451 230,-451 230,-451 230,-492.01 230,-539.69 230,-568.05"/>
<polygon fill="black" stroke="black" points="227.9,-568 230,-574 232.1,-568 227.9,-568"/>
</g>
<!-- ext_Trans_Newtonian_Technology -->
<g id="node10" class="node">
<title>ext_Trans_Newtonian_Technology</title>
<path fill="#f0f0f0" stroke="black" stroke-dasharray="5,2" d="M124,-612C124,-612 12,-612 12,-612 6,-612 0,-606 0,-600 0,-600 0,-588 0,-588 0,-582 6,-576 12,-576 12,-576 124,-576 124,-576 130,-576 136,-582 136,-588 136,-588 136,-600 136,-600 136,-606 130,-612 124,-612"/>
<text xml:space="preserve" text-anchor="middle" x="68" y="-590.33" font-family="Helvetica,sans-Serif" font-size="9.00">Trans&#45;Newtonian Technology</text>
</g>
<!-- ext_Trans_Newtonian_Technology&#45;&gt;Missile_Launcher_Reload_Rate_2 -->
<g id="edge2" class="edge">
<title>ext_Trans_Newtonian_Technology&#45;&gt;Missile_Launcher_Reload_Rate_2</title>
<path fill="none" stroke="black" d="M82.83,-575.7C90.61,-566.63 100.22,-555.4 108.59,-545.65"/>
<polygon fill="black" stroke="black" points="110.04,-547.18 112.35,-541.25 106.85,-544.44 110.04,-547.18"/>
</g>
</g>
</svg>
