<?xml version="1.0" encoding="UTF-8" standalone="no"?>
<!DOCTYPE svg PUBLIC "-//W3C//DTD SVG 1.1//EN"
 "http://www.w3.org/Graphics/SVG/1.1/DTD/svg11.dtd">
<!-- Generated by graphviz version 14.1.2 (20260124.0452)
 -->
<!-- Title: TechTree Pages: 1 -->
<svg width="2271pt" height="65pt"
 viewBox="0.00 0.00 2271.00 65.00" xmlns="http://www.w3.org/2000/svg" xmlns:xlink="http://www.w3.org/1999/xlink">
<g id="graph0" class="graph" transform="scale(1 1) rotate(0) translate(4 60.75)">
<title>TechTree</title>
<polygon fill="white" stroke="none" points="-4,4 -4,-60.75 2267.12,-60.75 2267.12,4 -4,4"/>
<text xml:space="preserve" text-anchor="middle" x="1131.56" y="-41.35" font-family="Helvetica,sans-Serif" font-weight="bold" font-size="12.00">Missile Launcher Size</text>
<!-- Missile_Launcher_Size_1 -->
<g id="node1" class="node">
<title>Missile_Launcher_Size_1</title>
<path fill="#d4edda" stroke="black" d="M101.5,-36C101.5,-36 12,-36 12,-36 6,-36 0,-30 0,-24 0,-24 0,-12 0,-12 0,-6 6,0 12,0 12,0 101.5,0 101.5,0 107.5,0 113.5,-6 113.5,-12 113.5,-12 113.5,-24 113.5,-24 113.5,-30 107.5,-36 101.5,-36"/>
<text xml:space="preserve" text-anchor="middle" x="56.75" y="-19.2" font-family="Helvetica,sans-Serif" font-size="9.00">Missile Launcher Size 1</text>
<text xml:space="preserve" text-anchor="middle" x="56.75" y="-9.45" font-family="Helvetica,sans-Serif" font-size="9.00">1 RP</text>
</g>
<!-- Missile_Launcher_Size_2 -->
<g id="node2" class="node">
<title>Missile_Launcher_Size_2</title>
<path fill="#d4edda" stroke="black" d="M233.5,-36C233.5,-36 144,-36 144,-36 138,-36 132,-30 132,-24 132,-24 132,-12 132,-12 132,-6 138,0 144,0 144,0 233.5,0 233.5,0 239.5,0 245.5,-6 245.5,-12 245.5,-12 245.5,-24 245.5,-24 245.5,-30 239.5,-36 233.5,-36"/>
<text xml:space="preserve" text-anchor="middle" x="188.75" y="-19.2" font-family="Helvetica,sans-Serif" font-size="9.00">Missile Launcher Size 2</text>
<text xml:space="preserve" text-anchor="middle" x="188.75" y="-9.45" font-family="Helvetica,sans-Serif" font-size="9.00">2 RP</text>
</g>
<!-- Missile_Launcher_Size_3 -->
<g id="node3" class="node">
<title>Missile_Launcher_Size_3</title>
<path fill="#d4edda" stroke="black" d="M365.5,-36C365.5,-36 276,-36 276,-36 270,-36 264,-30 264,-24 264,-24 264,-12 264,-12 264,-6 270,0 276,0 276,0 365.5,0 365.5,0 371.5,0 377.5,-6 377.5,-12 377.5,-12 377.5,-24 377.5,-24 377.5,-30 371.5,-36 365.5,-36"/>
<text xml:space="preserve" text-anchor="middle" x="320.75" y="-19.2" font-family="Helvetica,sans-Serif" font-size="9.00">Missile Launcher Size 3</text>
<text xml:space="preserve" text-anchor="middle" x="320.75" y="-9.45" font-family="Helvetica,sans-Serif" font-size="9.00">3 RP</text>
</g>
<!-- Missile_Launcher_Size_4 -->
<g id="node4" class="node">
<title>Missile_Launcher_Size_4</title>
<path fill="#d4edda" stroke="black" d="M497.5,-36C497.5,-36 408,-36 408,-36 402,-36 396,-30 396,-24 396,-24 396,-12 396,-12 396,-6 402,0 408,0 408,0 497.5,0 497.5,0 503.5,0 509.5,-6 509.5,-12 509.5,-12 509.5,-24 509.5,-24 509.5,-30 503.5,-36 497.5,-36"/>
<text xml:space="preserve" text-anchor="middle" x="452.75" y="-19.2" font-family="Helvetica,sans-Serif" font-size="9.00">Missile Launcher Size 4</text>
<text xml:space="preserve" text-anchor="middle" x="452.75" y="-9.45" font-family="Helvetica,sans-Serif" font-size="9.00">4 RP</text>
</g>
<!-- Missile_Launcher_Size_5 -->
<g id="node5" class="node">
<title>Missile_Launcher_Size_5</title>
<path fill="#d4edda" stroke="black" d="M629.5,-36C629.5,-36 540,-36 540,-36 534,-36 528,-30 528,-24 528,-24 528,-12 528,-12 528,-6 534,0 540,0 540,0 629.5,0 629.5,0 635.5,0 641.5,-6 641.5,-12 641.5,-12 641.5,-24 641.5,-24 641.5,-30 635.5,-36 629.5,-36"/>
<text xml:space="preserve" text-anchor="middle" x="584.75" y="-19.2" font-family="Helvetica,sans-Serif" font-size="9.00">Missile Launcher Size 5</text>
<text xml:space="preserve" text-anchor="middle" x="584.75" y="-9.45" font-family="Helvetica,sans-Serif" font-size="9.00">5 RP</text>
</g>
<!-- Missile_Launcher_Size_6 -->
<g id="node6" class="node">
<title>Missile_Launcher_Size_6</title>
<path fill="#d4edda" stroke="black" d="M761.5,-36C761.5,-36 672,-36 672,-36 666,-36 660,-30 660,-24 660,-24 660,-12 660,-12 660,-6 666,0 672,0 672,0 761.5,0 761.5,0 767.5,0 773.5,-6 773.5,-12 773.5,-12 773.5,-24 773.5,-24 773.5,-30 767.5,-36 761.5,-36"/>
<text xml:space="preserve" text-anchor="middle" x="716.75" y="-19.2" font-family="Helvetica,sans-Serif" font-size="9.00">Missile Launcher Size 6</text>
<text xml:space="preserve" text-anchor="middle" x="716.75" y="-9.45" font-family="Helvetica,sans-Serif" font-size="9.00">6 RP</text>
</g>
<!-- Missile_Launcher_Size_7 -->
<g id="node7" class="node">
<title>Missile_Launcher_Size_7</title>
<path fill="#d4edda" stroke="black" d="M893.5,-36C893.5,-36 804,-36 804,-36 798,-36 792,-30 792,-24 792,-24 792,-12 792,-12 792,-6 798,0 804,0 804,0 893.5,0 893.5,0 899.5,0 905.5,-6 905.5,-12 905.5,-12 905.5,-24 905.5,-24 905.5,-30 899.5,-36 893.5,-36"/>
<text xml:space="preserve" text-anchor="middle" x="848.75" y="-19.2" font-family="Helvetica,sans-Serif" font-size="9.00">Missile Launcher Size 7</text>
<text xml:space="preserve" text-anchor="middle" x="848.75" y="-9.45" font-family="Helvetica,sans-Serif" font-size="9.00">7 RP</text>
</g>
<!-- Missile_Launcher_Size_8 -->
<g id="node8" class="node">
<title>Missile_Launcher_Size_8</title>
<path fill="#d4edda" stroke="black" d="M1025.5,-36C1025.5,-36 936,-36 936,-36 930,-36 924,-30 924,-24 924,-24 924,-12 924,-12 924,-6 930,0 936,0 936,0 1025.5,0 1025.5,0 1031.5,0 1037.5,-6 1037.5,-12 1037.5,-12 1037.5,-24 1037.5,-24 1037.5,-30 1031.5,-36 1025.5,-36"/>
<text xml:space="preserve" text-anchor="middle" x="980.75" y="-19.2" font-family="Helvetica,sans-Serif" font-size="9.00">Missile Launcher Size 8</text>
<text xml:space="preserve" text-anchor="middle" x="980.75" y="-9.45" font-family="Helvetica,sans-Serif" font-size="9.00">8 RP</text>
</g>
<!-- Missile_Launcher_Size_9 -->
<g id="node9" class="node">
<title>Missile_Launcher_Size_9</title>
<path fill="#d4edda" stroke="black" d="M1157.5,-36C1157.5,-36 1068,-36 1068,-36 1062,-36 1056,-30 1056,-24 1056,-24 1056,-12 1056,-12 1056,-6 1062,0 1068,0 1068,0 1157.5,0 1157.5,0 1163.5,0 1169.5,-6 1169.5,-12 1169.5,-12 1169.5,-24 1169.5,-24 1169.5,-30 1163.5,-36 1157.5,-36"/>
<text xml:space="preserve" text-anchor="middle" x="1112.75" y="-19.2" font-family="Helvetica,sans-Serif" font-size="9.00">Missile Launcher Size 9</text>
<text xml:space="preserve" text-anchor="middle" x="1112.75" y="-9.45" font-family="Helvetica,sans-Serif" font-size="9.00">9 RP</text>
</g>
<!-- Missile_Launcher_Size_10 -->
<g id="node10" class="node">
<title>Missile_Launcher_Size_10</title>
<path fill="#d4edda" stroke="black" d="M1294.12,-36C1294.12,-36 1199.38,-36 1199.38,-36 1193.38,-36 1187.38,-30 1187.38,-24 1187.38,-24 1187.38,-12 1187.38,-12 1187.38,-6 1193.38,0 1199.38,0 1199.38,0 1294.12,0 1294.12,0 1300.12,0 1306.12,-6 1306.12,-12 1306.12,-12 1306.12,-24 1306.12,-24 1306.12,-30 1300.12,-36 1294.12,-36"/>
<text xml:space="preserve" text-anchor="middle" x="1246.75" y="-19.2" font-family="Helvetica,sans-Serif" font-size="9.00">Missile Launcher Size 10</text>
<text xml:space="preserve" text-anchor="middle" x="1246.75" y="-9.45" font-family="Helvetica,sans-Serif" font-size="9.00">10 RP</text>
</g>
<!-- Missile_Launcher_Size_11 -->
<g id="node11" class="node">
<title>Missile_Launcher_Size_11</title>
<path fill="#d4edda" stroke="black" d="M1429.38,-36C1429.38,-36 1336.12,-36 1336.12,-36 1330.12,-36 1324.12,-30 1324.12,-24 1324.12,-24 1324.12,-12 1324.12,-12 1324.12,-6 1330.12,0 1336.12,0 1336.12,0 1429.38,0 1429.38,0 1435.38,0 1441.38,-6 1441.38,-12 1441.38,-12 1441.38,-24 1441.38,-24 1441.38,-30 1435.38,-36 1429.38,-36"/>
<text xml:space="preserve" text-anchor="middle" x="1382.75" y="-19.2" font-family="Helvetica,sans-Serif" font-size="9.00">Missile Launcher Size 11</text>
<text xml:space="preserve" text-anchor="middle" x="1382.75" y="-9.45" font-family="Helvetica,sans-Serif" font-size="9.00">11 RP</text>
</g>
<!-- Missile_Launcher_Size_12 -->
<g id="node12" class="node">
<title>Missile_Launcher_Size_12</title>
<path fill="#d4edda" stroke="black" d="M1566.12,-36C1566.12,-36 1471.38,-36 1471.38,-36 1465.38,-36 1459.38,-30 1459.38,-24 1459.38,-24 1459.38,-12 1459.38,-12 1459.38,-6 1465.38,0 1471.38,0 1471.38,0 1566.12,0 1566.12,0 1572.12,0 1578.12,-6 1578.12,-12 1578.12,-12 1578.12,-24 1578.12,-24 1578.12,-30 1572.12,-36 1566.12,-36"/>
<text xml:space="preserve" text-anchor="middle" x="1518.75" y="-19.2" font-family="Helvetica,sans-Serif" font-size="9.00">Missile Launcher Size 12</text>
<text xml:space="preserve" text-anchor="middle" x="1518.75" y="-9.45" font-family="Helvetica,sans-Serif" font-size="9.00">12 RP</text>
</g>
<!-- Missile_Launcher_Size_14 -->
<g id="node13" class="node">
<title>Missile_Launcher_Size_14</title>
<path fill="#d4edda" stroke="black" d="M1703.12,-36C1703.12,-36 1608.38,-36 1608.38,-36 1602.38,-36 1596.38,-30 1596.38,-24 1596.38,-24 1596.38,-12 1596.38,-12 1596.38,-6 1602.38,0 1608.38,0 1608.38,0 1703.12,0 1703.12,0 1709.12,0 1715.12,-6 1715.12,-12 1715.12,-12 1715.12,-24 1715.12,-24 1715.12,-30 1709.12,-36 1703.12,-36"/>
<text xml:space="preserve" text-anchor="middle" x="1655.75" y="-19.2" font-family="Helvetica,sans-Serif" font-size="9.00">Missile Launcher Size 14</text>
<text xml:space="preserve" text-anchor="middle" x="1655.75" y="-9.45" font-family="Helvetica,sans-Serif" font-size="9.00">14 RP</text>
</g>
<!-- Missile_Launcher_Size_16 -->
<g id="node14" class="node">
<title>Missile_Launcher_Size_16</title>
<path fill="#d4edda" stroke="black" d="M1840.12,-36C1840.12,-36 1745.38,-36 1745.38,-36 1739.38,-36 1733.38,-30 1733.38,-24 1733.38,-24 1733.38,-12 1733.38,-12 1733.38,-6 1739.38,0 1745.38,0 1745.38,0 1840.12,0 1840.12,0 1846.12,0 1852.12,-6 1852.12,-12 1852.12,-12 1852.12,-24 1852.12,-24 1852.12,-30 1846.12,-36 1840.12,-36"/>
<text xml:space="preserve" text-anchor="middle" x="1792.75" y="-19.2" font-family="Helvetica,sans-Serif" font-size="9.00">Missile Launcher Size 16</text>
<text xml:space="preserve" text-anchor="middle" x="1792.75" y="-9.45" font-family="Helvetica,sans-Serif" font-size="9.00">16 RP</text>
</g>
<!-- Missile_Launcher_Size_18 -->
<g id="node15" class="node">
<title>Missile_Launcher_Size_18</title>
<path fill="#d4edda" stroke="black" d="M1977.12,-36C1977.12,-36 1882.38,-36 1882.38,-36 1876.38,-36 1870.38,-30 1870.38,-24 1870.38,-24 1870.38,-12 1870.38,-12 1870.38,-6 1876.38,0 1882.38,0 1882.38,0 1977.12,0 1977.12,0 1983.12,0 1989.12,-6 1989.12,-12 1989.12,-12 1989.12,-24 1989.12,-24 1989.12,-30 1983.12,-36 1977.12,-36"/>
<text xml:space="preserve" text-anchor="middle" x="1929.75" y="-19.2" font-family="Helvetica,sans-Serif" font-size="9.00">Missile Launcher Size 18</text>
<text xml:space="preserve" text-anchor="middle" x="1929.75" y="-9.45" font-family="Helvetica,sans-Serif" font-size="9.00">18 RP</text>
</g>
<!-- Missile_Launcher_Size_20 -->
<g id="node16" class="node">
<title>Missile_Launcher_Size_20</title>
<path fill="#d4edda" stroke="black" d="M2114.12,-36C2114.12,-36 2019.38,-36 2019.38,-36 2013.38,-36 2007.38,-30 2007.38,-24 2007.38,-24 2007.38,-12 2007.38,-12 2007.38,-6 2013.38,0 2019.38,0 2019.38,0 2114.12,0 2114.12,0 2120.12,0 2126.12,-6 2126.12,-12 2126.12,-12 2126.12,-24 2126.12,-24 2126.12,-30 2120.12,-36 2114.12,-36"/>
<text xml:space="preserve" text-anchor="middle" x="2066.75" y="-19.2" font-family="Helvetica,sans-Serif" font-size="9.00">Missile Launcher Size 20</text>
<text xml:space="preserve" text-anchor="middle" x="2066.75" y="-9.45" font-family="Helvetica,sans-Serif" font-size="9.00">20 RP</text>
</g>
<!-- Missile_Launcher_Size_24 -->
<g id="node17" class="node">
<title>Missile_Launcher_Size_24</title>
<path fill="#d4edda" stroke="black" d="M2251.12,-36C2251.12,-36 2156.38,-36 2156.38,-36 2150.38,-36 2144.38,-30 2144.38,-24 2144.38,-24 2144.38,-12 2144.38,-12 2144.38,-6 2150.38,0 2156.38,0 2156.38,0 2251.12,0 2251.12,0 2257.12,0 2263.12,-6 2263.12,-12 2263.12,-12 2263.12,-24 2263.12,-24 2263.12,-30 2257.12,-36 2251.12,-36"/>
<text xml:space="preserve" text-anchor="middle" x="2203.75" y="-19.2" font-family="Helvetica,sans-Serif" font-size="9.00">Missile Launcher Size 24</text>
<text xml:space="preserve" text-anchor="middle" x="2203.75" y="-9.45" font-family="Helvetica,sans-Serif" font-size="9.00">24 RP</text>
</g>
</g>
</svg>
