<?xml version="1.0" encoding="UTF-8" standalone="no"?>
<!DOCTYPE svg PUBLIC "-//W3C//DTD SVG 1.1//EN"
 "http://www.w3.org/Graphics/SVG/1.1/DTD/svg11.dtd">
<!-- Generated by graphviz version 14.1.2 (20260124.0452)
 -->
<!-- Title: TechTree Pages: 1 -->
<svg width="155pt" height="125pt"
 viewBox="0.00 0.00 155.00 125.00" xmlns="http://www.w3.org/2000/svg" xmlns:xlink="http://www.w3.org/1999/xlink">
<g id="graph0" class="graph" transform="scale(1 1) rotate(0) translate(4 121)">
<title>TechTree</title>
<polygon fill="white" stroke="none" points="-4,4 -4,-121 150.5,-121 150.5,4 -4,4"/>
<text xml:space="preserve" text-anchor="middle" x="73.25" y="-99.7" font-family="Helvetica,sans-Serif" font-weight="bold" font-size="14.00">Missile Retargeting</text>
<!-- No_Missile_Retargeting -->
<g id="node1" class="node">
<title>No_Missile_Retargeting</title>
<path fill="#d4edda" stroke="black" d="M119.12,-36C119.12,-36 27.37,-36 27.37,-36 21.37,-36 15.38,-30 15.38,-24 15.38,-24 15.38,-12 15.38,-12 15.38,-6 21.38,0 27.38,0 27.38,0 119.12,0 119.12,0 125.12,0 131.12,-6 131.12,-12 131.12,-12 131.12,-24 131.12,-24 131.12,-30 125.12,-36 119.12,-36"/>
<text xml:space="preserve" text-anchor="middle" x="73.25" y="-19.75" font-family="Helvetica,sans-Serif" font-size="10.00">No Missile Retargeting</text>
<text xml:space="preserve" text-anchor="middle" x="73.25" y="-8.5" font-family="Helvetica,sans-Serif" font-size="10.00">1 RP</text>
</g>
<!-- Missile_Retargeting_Capability -->
<g id="node2" class="node">
<title>Missile_Retargeting_Capability</title>
<path fill="#cce5ff" stroke="black" d="M134.5,-94C134.5,-94 12,-94 12,-94 6,-94 0,-88 0,-82 0,-82 0,-70 0,-70 0,-64 6,-58 12,-58 12,-58 134.5,-58 134.5,-58 140.5,-58 146.5,-64 146.5,-70 146.5,-70 146.5,-82 146.5,-82 146.5,-88 140.5,-94 134.5,-94"/>
<text xml:space="preserve" text-anchor="middle" x="73.25" y="-77.75" font-family="Helvetica,sans-Serif" font-size="10.00">Missile Retargeting Capability</text>
<text xml:space="preserve" text-anchor="middle" x="73.25" y="-66.5" font-family="Helvetica,sans-Serif" font-size="10.00">5K RP</text>
</g>
</g>
</svg>
