<?xml version="1.0" encoding="UTF-8" standalone="no"?>
<!DOCTYPE svg PUBLIC "-//W3C//DTD SVG 1.1//EN"
 "http://www.w3.org/Graphics/SVG/1.1/DTD/svg11.dtd">
<!-- Generated by graphviz version 14.1.2 (20260124.0452)
 -->
<!-- Title: TechTree Pages: 1 -->
<svg width="194pt" height="652pt"
 viewBox="0.00 0.00 194.00 652.00" xmlns="http://www.w3.org/2000/svg" xmlns:xlink="http://www.w3.org/1999/xlink">
<g id="graph0" class="graph" transform="scale(1 1) rotate(0) translate(4 648)">
<title>TechTree</title>
<polygon fill="white" stroke="none" points="-4,4 -4,-648 190.12,-648 190.12,4 -4,4"/>
<text xml:space="preserve" text-anchor="middle" x="93.06" y="-626.7" font-family="Helvetica,sans-Serif" font-weight="bold" font-size="14.00">Missile ECM</text>
<!-- Missile_ECM_0 -->
<g id="node1" class="node">
<title>Missile_ECM_0</title>
<path fill="#d4edda" stroke="black" d="M68.5,-621C68.5,-621 12,-621 12,-621 6,-621 0,-615 0,-609 0,-609 0,-597 0,-597 0,-591 6,-585 12,-585 12,-585 68.5,-585 68.5,-585 74.5,-585 80.5,-591 80.5,-597 80.5,-597 80.5,-609 80.5,-609 80.5,-615 74.5,-621 68.5,-621"/>
<text xml:space="preserve" text-anchor="middle" x="40.25" y="-604.75" font-family="Helvetica,sans-Serif" font-size="10.00">Missile ECM&#45;0</text>
<text xml:space="preserve" text-anchor="middle" x="40.25" y="-593.5" font-family="Helvetica,sans-Serif" font-size="10.00">1 RP</text>
</g>
<!-- Missile_ECM_1 -->
<g id="node2" class="node">
<title>Missile_ECM_1</title>
<path fill="#cce5ff" stroke="black" d="M171.5,-621C171.5,-621 115,-621 115,-621 109,-621 103,-615 103,-609 103,-609 103,-597 103,-597 103,-591 109,-585 115,-585 115,-585 171.5,-585 171.5,-585 177.5,-585 183.5,-591 183.5,-597 183.5,-597 183.5,-609 183.5,-609 183.5,-615 177.5,-621 171.5,-621"/>
<text xml:space="preserve" text-anchor="middle" x="143.25" y="-604.75" font-family="Helvetica,sans-Serif" font-size="10.00">Missile ECM&#45;1</text>
<text xml:space="preserve" text-anchor="middle" x="143.25" y="-593.5" font-family="Helvetica,sans-Serif" font-size="10.00">2K RP</text>
</g>
<!-- Missile_ECM_2 -->
<g id="node3" class="node">
<title>Missile_ECM_2</title>
<path fill="#cce5ff" stroke="black" d="M171.5,-556C171.5,-556 115,-556 115,-556 109,-556 103,-550 103,-544 103,-544 103,-532 103,-532 103,-526 109,-520 115,-520 115,-520 171.5,-520 171.5,-520 177.5,-520 183.5,-526 183.5,-532 183.5,-532 183.5,-544 183.5,-544 183.5,-550 177.5,-556 171.5,-556"/>
<text xml:space="preserve" text-anchor="middle" x="143.25" y="-539.75" font-family="Helvetica,sans-Serif" font-size="10.00">Missile ECM&#45;2</text>
<text xml:space="preserve" text-anchor="middle" x="143.25" y="-528.5" font-family="Helvetica,sans-Serif" font-size="10.00">5K RP</text>
</g>
<!-- Missile_ECM_1&#45;&gt;Missile_ECM_2 -->
<g id="edge1" class="edge">
<title>Missile_ECM_1&#45;&gt;Missile_ECM_2</title>
<path fill="none" stroke="black" d="M143.25,-584.78C143.25,-578.53 143.25,-571.33 143.25,-564.52"/>
<polygon fill="black" stroke="black" points="145.7,-564.71 143.25,-557.71 140.8,-564.71 145.7,-564.71"/>
</g>
<!-- Missile_ECM_3 -->
<g id="node4" class="node">
<title>Missile_ECM_3</title>
<path fill="#cce5ff" stroke="black" d="M171.5,-491C171.5,-491 115,-491 115,-491 109,-491 103,-485 103,-479 103,-479 103,-467 103,-467 103,-461 109,-455 115,-455 115,-455 171.5,-455 171.5,-455 177.5,-455 183.5,-461 183.5,-467 183.5,-467 183.5,-479 183.5,-479 183.5,-485 177.5,-491 171.5,-491"/>
<text xml:space="preserve" text-anchor="middle" x="143.25" y="-474.75" font-family="Helvetica,sans-Serif" font-size="10.00">Missile ECM&#45;3</text>
<text xml:space="preserve" text-anchor="middle" x="143.25" y="-463.5" font-family="Helvetica,sans-Serif" font-size="10.00">10K RP</text>
</g>
<!-- Missile_ECM_2&#45;&gt;Missile_ECM_3 -->
<g id="edge2" class="edge">
<title>Missile_ECM_2&#45;&gt;Missile_ECM_3</title>
<path fill="none" stroke="black" d="M143.25,-519.78C143.25,-513.53 143.25,-506.33 143.25,-499.52"/>
<polygon fill="black" stroke="black" points="145.7,-499.71 143.25,-492.71 140.8,-499.71 145.7,-499.71"/>
</g>
<!-- Missile_ECM_4 -->
<g id="node5" class="node">
<title>Missile_ECM_4</title>
<path fill="#fff3cd" stroke="black" d="M171.5,-426C171.5,-426 115,-426 115,-426 109,-426 103,-420 103,-414 103,-414 103,-402 103,-402 103,-396 109,-390 115,-390 115,-390 171.5,-390 171.5,-390 177.5,-390 183.5,-396 183.5,-402 183.5,-402 183.5,-414 183.5,-414 183.5,-420 177.5,-426 171.5,-426"/>
<text xml:space="preserve" text-anchor="middle" x="143.25" y="-409.75" font-family="Helvetica,sans-Serif" font-size="10.00">Missile ECM&#45;4</text>
<text xml:space="preserve" text-anchor="middle" x="143.25" y="-398.5" font-family="Helvetica,sans-Serif" font-size="10.00">20K RP</text>
</g>
<!-- Missile_ECM_3&#45;&gt;Missile_ECM_4 -->
<g id="edge3" class="edge">
<title>Missile_ECM_3&#45;&gt;Missile_ECM_4</title>
<path fill="none" stroke="black" d="M143.25,-454.78C143.25,-448.53 143.25,-441.33 143.25,-434.52"/>
<polygon fill="black" stroke="black" points="145.7,-434.71 143.25,-427.71 140.8,-434.71 145.7,-434.71"/>
</g>
<!-- Missile_ECM_5 -->
<g id="node6" class="node">
<title>Missile_ECM_5</title>
<path fill="#fff3cd" stroke="black" d="M171.5,-361C171.5,-361 115,-361 115,-361 109,-361 103,-355 103,-349 103,-349 103,-337 103,-337 103,-331 109,-325 115,-325 115,-325 171.5,-325 171.5,-325 177.5,-325 183.5,-331 183.5,-337 183.5,-337 183.5,-349 183.5,-349 183.5,-355 177.5,-361 171.5,-361"/>
<text xml:space="preserve" text-anchor="middle" x="143.25" y="-344.75" font-family="Helvetica,sans-Serif" font-size="10.00">Missile ECM&#45;5</text>
<text xml:space="preserve" text-anchor="middle" x="143.25" y="-333.5" font-family="Helvetica,sans-Serif" font-size="10.00">40K RP</text>
</g>
<!-- Missile_ECM_4&#45;&gt;Missile_ECM_5 -->
<g id="edge4" class="edge">
<title>Missile_ECM_4&#45;&gt;Missile_ECM_5</title>
<path fill="none" stroke="black" d="M143.25,-389.78C143.25,-383.53 143.25,-376.33 143.25,-369.52"/>
<polygon fill="black" stroke="black" points="145.7,-369.71 143.25,-362.71 140.8,-369.71 145.7,-369.71"/>
</g>
<!-- Missile_ECM_6 -->
<g id="node7" class="node">
<title>Missile_ECM_6</title>
<path fill="#fff3cd" stroke="black" d="M171.5,-296C171.5,-296 115,-296 115,-296 109,-296 103,-290 103,-284 103,-284 103,-272 103,-272 103,-266 109,-260 115,-260 115,-260 171.5,-260 171.5,-260 177.5,-260 183.5,-266 183.5,-272 183.5,-272 183.5,-284 183.5,-284 183.5,-290 177.5,-296 171.5,-296"/>
<text xml:space="preserve" text-anchor="middle" x="143.25" y="-279.75" font-family="Helvetica,sans-Serif" font-size="10.00">Missile ECM&#45;6</text>
<text xml:space="preserve" text-anchor="middle" x="143.25" y="-268.5" font-family="Helvetica,sans-Serif" font-size="10.00">80K RP</text>
</g>
<!-- Missile_ECM_5&#45;&gt;Missile_ECM_6 -->
<g id="edge5" class="edge">
<title>Missile_ECM_5&#45;&gt;Missile_ECM_6</title>
<path fill="none" stroke="black" d="M143.25,-324.78C143.25,-318.53 143.25,-311.33 143.25,-304.52"/>
<polygon fill="black" stroke="black" points="145.7,-304.71 143.25,-297.71 140.8,-304.71 145.7,-304.71"/>
</g>
<!-- Missile_ECM_7 -->
<g id="node8" class="node">
<title>Missile_ECM_7</title>
<path fill="#d4c4fb" stroke="black" d="M171.5,-231C171.5,-231 115,-231 115,-231 109,-231 103,-225 103,-219 103,-219 103,-207 103,-207 103,-201 109,-195 115,-195 115,-195 171.5,-195 171.5,-195 177.5,-195 183.5,-201 183.5,-207 183.5,-207 183.5,-219 183.5,-219 183.5,-225 177.5,-231 171.5,-231"/>
<text xml:space="preserve" text-anchor="middle" x="143.25" y="-214.75" font-family="Helvetica,sans-Serif" font-size="10.00">Missile ECM&#45;7</text>
<text xml:space="preserve" text-anchor="middle" x="143.25" y="-203.5" font-family="Helvetica,sans-Serif" font-size="10.00">150K RP</text>
</g>
<!-- Missile_ECM_6&#45;&gt;Missile_ECM_7 -->
<g id="edge6" class="edge">
<title>Missile_ECM_6&#45;&gt;Missile_ECM_7</title>
<path fill="none" stroke="black" d="M143.25,-259.78C143.25,-253.53 143.25,-246.33 143.25,-239.52"/>
<polygon fill="black" stroke="black" points="145.7,-239.71 143.25,-232.71 140.8,-239.71 145.7,-239.71"/>
</g>
<!-- Missile_ECM_8 -->
<g id="node9" class="node">
<title>Missile_ECM_8</title>
<path fill="#d4c4fb" stroke="black" d="M171.5,-166C171.5,-166 115,-166 115,-166 109,-166 103,-160 103,-154 103,-154 103,-142 103,-142 103,-136 109,-130 115,-130 115,-130 171.5,-130 171.5,-130 177.5,-130 183.5,-136 183.5,-142 183.5,-142 183.5,-154 183.5,-154 183.5,-160 177.5,-166 171.5,-166"/>
<text xml:space="preserve" text-anchor="middle" x="143.25" y="-149.75" font-family="Helvetica,sans-Serif" font-size="10.00">Missile ECM&#45;8</text>
<text xml:space="preserve" text-anchor="middle" x="143.25" y="-138.5" font-family="Helvetica,sans-Serif" font-size="10.00">300K RP</text>
</g>
<!-- Missile_ECM_7&#45;&gt;Missile_ECM_8 -->
<g id="edge7" class="edge">
<title>Missile_ECM_7&#45;&gt;Missile_ECM_8</title>
<path fill="none" stroke="black" d="M143.25,-194.78C143.25,-188.53 143.25,-181.33 143.25,-174.52"/>
<polygon fill="black" stroke="black" points="145.7,-174.71 143.25,-167.71 140.8,-174.71 145.7,-174.71"/>
</g>
<!-- Missile_ECM_9 -->
<g id="node10" class="node">
<title>Missile_ECM_9</title>
<path fill="#d4c4fb" stroke="black" d="M171.5,-101C171.5,-101 115,-101 115,-101 109,-101 103,-95 103,-89 103,-89 103,-77 103,-77 103,-71 109,-65 115,-65 115,-65 171.5,-65 171.5,-65 177.5,-65 183.5,-71 183.5,-77 183.5,-77 183.5,-89 183.5,-89 183.5,-95 177.5,-101 171.5,-101"/>
<text xml:space="preserve" text-anchor="middle" x="143.25" y="-84.75" font-family="Helvetica,sans-Serif" font-size="10.00">Missile ECM&#45;9</text>
<text xml:space="preserve" text-anchor="middle" x="143.25" y="-73.5" font-family="Helvetica,sans-Serif" font-size="10.00">600K RP</text>
</g>
<!-- Missile_ECM_8&#45;&gt;Missile_ECM_9 -->
<g id="edge8" class="edge">
<title>Missile_ECM_8&#45;&gt;Missile_ECM_9</title>
<path fill="none" stroke="black" d="M143.25,-129.78C143.25,-123.53 143.25,-116.33 143.25,-109.52"/>
<polygon fill="black" stroke="black" points="145.7,-109.71 143.25,-102.71 140.8,-109.71 145.7,-109.71"/>
</g>
<!-- Missile_ECM_10 -->
<g id="node11" class="node">
<title>Missile_ECM_10</title>
<path fill="#f8d7da" stroke="black" d="M174.12,-36C174.12,-36 112.38,-36 112.38,-36 106.38,-36 100.38,-30 100.38,-24 100.38,-24 100.38,-12 100.38,-12 100.38,-6 106.38,0 112.38,0 112.38,0 174.12,0 174.12,0 180.12,0 186.12,-6 186.12,-12 186.12,-12 186.12,-24 186.12,-24 186.12,-30 180.12,-36 174.12,-36"/>
<text xml:space="preserve" text-anchor="middle" x="143.25" y="-19.75" font-family="Helvetica,sans-Serif" font-size="10.00">Missile ECM&#45;10</text>
<text xml:space="preserve" text-anchor="middle" x="143.25" y="-8.5" font-family="Helvetica,sans-Serif" font-size="10.00">1.2M RP</text>
</g>
<!-- Missile_ECM_9&#45;&gt;Missile_ECM_10 -->
<g id="edge9" class="edge">
<title>Missile_ECM_9&#45;&gt;Missile_ECM_10</title>
<path fill="none" stroke="black" d="M143.25,-64.78C143.25,-58.53 143.25,-51.33 143.25,-44.52"/>
<polygon fill="black" stroke="black" points="145.7,-44.71 143.25,-37.71 140.8,-44.71 145.7,-44.71"/>
</g>
</g>
</svg>
