<?xml version="1.0" encoding="UTF-8" standalone="no"?>
<!DOCTYPE svg PUBLIC "-//W3C//DTD SVG 1.1//EN"
 "http://www.w3.org/Graphics/SVG/1.1/DTD/svg11.dtd">
<!-- Generated by graphviz version 14.1.2 (20260124.0452)
 -->
<!-- Title: TechTree Pages: 1 -->
<svg width="281pt" height="782pt"
 viewBox="0.00 0.00 281.00 782.00" xmlns="http://www.w3.org/2000/svg" xmlns:xlink="http://www.w3.org/1999/xlink">
<g id="graph0" class="graph" transform="scale(1 1) rotate(0) translate(4 778)">
<title>TechTree</title>
<polygon fill="white" stroke="none" points="-4,4 -4,-778 277.25,-778 277.25,4 -4,4"/>
<text xml:space="preserve" text-anchor="middle" x="136.62" y="-756.7" font-family="Helvetica,sans-Serif" font-weight="bold" font-size="14.00">Missile Warhead Strength</text>
<!-- Gun_Type_Fission_Warhead__Stre -->
<g id="node1" class="node">
<title>Gun_Type_Fission_Warhead__Stre</title>
<path fill="#cce5ff" stroke="black" d="M235,-751C235,-751 38.25,-751 38.25,-751 32.25,-751 26.25,-745 26.25,-739 26.25,-739 26.25,-727 26.25,-727 26.25,-721 32.25,-715 38.25,-715 38.25,-715 235,-715 235,-715 241,-715 247,-721 247,-727 247,-727 247,-739 247,-739 247,-745 241,-751 235,-751"/>
<text xml:space="preserve" text-anchor="middle" x="136.62" y="-734.75" font-family="Helvetica,sans-Serif" font-size="10.00">Gun&#45;Type Fission Warhead: Strength: 2 x MSP</text>
<text xml:space="preserve" text-anchor="middle" x="136.62" y="-723.5" font-family="Helvetica,sans-Serif" font-size="10.00">1K RP</text>
</g>
<!-- Implosion_Fission_Warhead__Str -->
<g id="node2" class="node">
<title>Implosion_Fission_Warhead__Str</title>
<path fill="#cce5ff" stroke="black" d="M235,-686C235,-686 38.25,-686 38.25,-686 32.25,-686 26.25,-680 26.25,-674 26.25,-674 26.25,-662 26.25,-662 26.25,-656 32.25,-650 38.25,-650 38.25,-650 235,-650 235,-650 241,-650 247,-656 247,-662 247,-662 247,-674 247,-674 247,-680 241,-686 235,-686"/>
<text xml:space="preserve" text-anchor="middle" x="136.62" y="-669.75" font-family="Helvetica,sans-Serif" font-size="10.00">Implosion Fission Warhead: Strength: 3 x MSP</text>
<text xml:space="preserve" text-anchor="middle" x="136.62" y="-658.5" font-family="Helvetica,sans-Serif" font-size="10.00">2K RP</text>
</g>
<!-- Gun_Type_Fission_Warhead__Stre&#45;&gt;Implosion_Fission_Warhead__Str -->
<g id="edge1" class="edge">
<title>Gun_Type_Fission_Warhead__Stre&#45;&gt;Implosion_Fission_Warhead__Str</title>
<path fill="none" stroke="black" d="M136.62,-714.78C136.62,-708.53 136.62,-701.33 136.62,-694.52"/>
<polygon fill="black" stroke="black" points="139.08,-694.71 136.63,-687.71 134.18,-694.71 139.08,-694.71"/>
</g>
<!-- Levitated_Pit_Implosion_Warhea -->
<g id="node3" class="node">
<title>Levitated_Pit_Implosion_Warhea</title>
<path fill="#cce5ff" stroke="black" d="M246.62,-621C246.62,-621 26.63,-621 26.63,-621 20.63,-621 14.63,-615 14.63,-609 14.63,-609 14.63,-597 14.63,-597 14.63,-591 20.63,-585 26.63,-585 26.63,-585 246.62,-585 246.62,-585 252.62,-585 258.62,-591 258.62,-597 258.62,-597 258.62,-609 258.62,-609 258.62,-615 252.62,-621 246.62,-621"/>
<text xml:space="preserve" text-anchor="middle" x="136.62" y="-604.75" font-family="Helvetica,sans-Serif" font-size="10.00">Levitated&#45;Pit Implosion Warhead: Strength: 4 x MSP</text>
<text xml:space="preserve" text-anchor="middle" x="136.62" y="-593.5" font-family="Helvetica,sans-Serif" font-size="10.00">4K RP</text>
</g>
<!-- Implosion_Fission_Warhead__Str&#45;&gt;Levitated_Pit_Implosion_Warhea -->
<g id="edge2" class="edge">
<title>Implosion_Fission_Warhead__Str&#45;&gt;Levitated_Pit_Implosion_Warhea</title>
<path fill="none" stroke="black" d="M136.62,-649.78C136.62,-643.53 136.62,-636.33 136.62,-629.52"/>
<polygon fill="black" stroke="black" points="139.08,-629.71 136.63,-622.71 134.18,-629.71 139.08,-629.71"/>
</g>
<!-- Fusion_boosted_Fission_Warhead -->
<g id="node4" class="node">
<title>Fusion_boosted_Fission_Warhead</title>
<path fill="#cce5ff" stroke="black" d="M247.38,-556C247.38,-556 25.88,-556 25.88,-556 19.87,-556 13.88,-550 13.88,-544 13.88,-544 13.88,-532 13.88,-532 13.88,-526 19.88,-520 25.88,-520 25.88,-520 247.38,-520 247.38,-520 253.38,-520 259.38,-526 259.38,-532 259.38,-532 259.38,-544 259.38,-544 259.38,-550 253.38,-556 247.38,-556"/>
<text xml:space="preserve" text-anchor="middle" x="136.62" y="-539.75" font-family="Helvetica,sans-Serif" font-size="10.00">Fusion&#45;boosted Fission Warhead: Strength: 5 x MSP</text>
<text xml:space="preserve" text-anchor="middle" x="136.62" y="-528.5" font-family="Helvetica,sans-Serif" font-size="10.00">8K RP</text>
</g>
<!-- Levitated_Pit_Implosion_Warhea&#45;&gt;Fusion_boosted_Fission_Warhead -->
<g id="edge3" class="edge">
<title>Levitated_Pit_Implosion_Warhea&#45;&gt;Fusion_boosted_Fission_Warhead</title>
<path fill="none" stroke="black" d="M136.62,-584.78C136.62,-578.53 136.62,-571.33 136.62,-564.52"/>
<polygon fill="black" stroke="black" points="139.08,-564.71 136.63,-557.71 134.18,-564.71 139.08,-564.71"/>
</g>
<!-- Two_stage_Thermonuclear_Warhea -->
<g id="node5" class="node">
<title>Two_stage_Thermonuclear_Warhea</title>
<path fill="#fff3cd" stroke="black" d="M253,-491C253,-491 20.25,-491 20.25,-491 14.25,-491 8.25,-485 8.25,-479 8.25,-479 8.25,-467 8.25,-467 8.25,-461 14.25,-455 20.25,-455 20.25,-455 253,-455 253,-455 259,-455 265,-461 265,-467 265,-467 265,-479 265,-479 265,-485 259,-491 253,-491"/>
<text xml:space="preserve" text-anchor="middle" x="136.62" y="-474.75" font-family="Helvetica,sans-Serif" font-size="10.00">Two&#45;stage Thermonuclear Warhead: Strength: 6 x MSP</text>
<text xml:space="preserve" text-anchor="middle" x="136.62" y="-463.5" font-family="Helvetica,sans-Serif" font-size="10.00">15K RP</text>
</g>
<!-- Fusion_boosted_Fission_Warhead&#45;&gt;Two_stage_Thermonuclear_Warhea -->
<g id="edge4" class="edge">
<title>Fusion_boosted_Fission_Warhead&#45;&gt;Two_stage_Thermonuclear_Warhea</title>
<path fill="none" stroke="black" d="M136.62,-519.78C136.62,-513.53 136.62,-506.33 136.62,-499.52"/>
<polygon fill="black" stroke="black" points="139.08,-499.71 136.63,-492.71 134.18,-499.71 139.08,-499.71"/>
</g>
<!-- Three_stage_Thermonuclear_Warh -->
<g id="node6" class="node">
<title>Three_stage_Thermonuclear_Warh</title>
<path fill="#fff3cd" stroke="black" d="M256.38,-426C256.38,-426 16.87,-426 16.87,-426 10.88,-426 4.88,-420 4.88,-414 4.88,-414 4.88,-402 4.88,-402 4.88,-396 10.88,-390 16.88,-390 16.88,-390 256.38,-390 256.38,-390 262.38,-390 268.38,-396 268.38,-402 268.38,-402 268.38,-414 268.38,-414 268.38,-420 262.38,-426 256.38,-426"/>
<text xml:space="preserve" text-anchor="middle" x="136.62" y="-409.75" font-family="Helvetica,sans-Serif" font-size="10.00">Three&#45;stage Thermonuclear Warhead: Strength: 8 x MSP</text>
<text xml:space="preserve" text-anchor="middle" x="136.62" y="-398.5" font-family="Helvetica,sans-Serif" font-size="10.00">30K RP</text>
</g>
<!-- Two_stage_Thermonuclear_Warhea&#45;&gt;Three_stage_Thermonuclear_Warh -->
<g id="edge5" class="edge">
<title>Two_stage_Thermonuclear_Warhea&#45;&gt;Three_stage_Thermonuclear_Warh</title>
<path fill="none" stroke="black" d="M136.62,-454.78C136.62,-448.53 136.62,-441.33 136.62,-434.52"/>
<polygon fill="black" stroke="black" points="139.08,-434.71 136.63,-427.71 134.18,-434.71 139.08,-434.71"/>
</g>
<!-- Cobalt_Warhead__Strength__10_x -->
<g id="node7" class="node">
<title>Cobalt_Warhead__Strength__10_x</title>
<path fill="#fff3cd" stroke="black" d="M213.62,-361C213.62,-361 59.62,-361 59.62,-361 53.62,-361 47.62,-355 47.62,-349 47.62,-349 47.62,-337 47.62,-337 47.62,-331 53.62,-325 59.62,-325 59.62,-325 213.62,-325 213.62,-325 219.62,-325 225.62,-331 225.62,-337 225.62,-337 225.62,-349 225.62,-349 225.62,-355 219.62,-361 213.62,-361"/>
<text xml:space="preserve" text-anchor="middle" x="136.62" y="-344.75" font-family="Helvetica,sans-Serif" font-size="10.00">Cobalt Warhead: Strength: 10 x MSP</text>
<text xml:space="preserve" text-anchor="middle" x="136.62" y="-333.5" font-family="Helvetica,sans-Serif" font-size="10.00">60K RP</text>
</g>
<!-- Three_stage_Thermonuclear_Warh&#45;&gt;Cobalt_Warhead__Strength__10_x -->
<g id="edge6" class="edge">
<title>Three_stage_Thermonuclear_Warh&#45;&gt;Cobalt_Warhead__Strength__10_x</title>
<path fill="none" stroke="black" d="M136.62,-389.78C136.62,-383.53 136.62,-376.33 136.62,-369.52"/>
<polygon fill="black" stroke="black" points="139.08,-369.71 136.63,-362.71 134.18,-369.71 139.08,-369.71"/>
</g>
<!-- Tri_Cobalt_Warhead__Strength__ -->
<g id="node8" class="node">
<title>Tri_Cobalt_Warhead__Strength__</title>
<path fill="#d4c4fb" stroke="black" d="M220.75,-296C220.75,-296 52.5,-296 52.5,-296 46.5,-296 40.5,-290 40.5,-284 40.5,-284 40.5,-272 40.5,-272 40.5,-266 46.5,-260 52.5,-260 52.5,-260 220.75,-260 220.75,-260 226.75,-260 232.75,-266 232.75,-272 232.75,-272 232.75,-284 232.75,-284 232.75,-290 226.75,-296 220.75,-296"/>
<text xml:space="preserve" text-anchor="middle" x="136.62" y="-279.75" font-family="Helvetica,sans-Serif" font-size="10.00">Tri&#45;Cobalt Warhead: Strength: 12 x MSP</text>
<text xml:space="preserve" text-anchor="middle" x="136.62" y="-268.5" font-family="Helvetica,sans-Serif" font-size="10.00">125K RP</text>
</g>
<!-- Cobalt_Warhead__Strength__10_x&#45;&gt;Tri_Cobalt_Warhead__Strength__ -->
<g id="edge7" class="edge">
<title>Cobalt_Warhead__Strength__10_x&#45;&gt;Tri_Cobalt_Warhead__Strength__</title>
<path fill="none" stroke="black" d="M136.62,-324.78C136.62,-318.53 136.62,-311.33 136.62,-304.52"/>
<polygon fill="black" stroke="black" points="139.08,-304.71 136.63,-297.71 134.18,-304.71 139.08,-304.71"/>
</g>
<!-- Antimatter_Catalysed_Cobalt_Wa -->
<g id="node9" class="node">
<title>Antimatter_Catalysed_Cobalt_Wa</title>
<path fill="#d4c4fb" stroke="black" d="M261.25,-231C261.25,-231 12,-231 12,-231 6,-231 0,-225 0,-219 0,-219 0,-207 0,-207 0,-201 6,-195 12,-195 12,-195 261.25,-195 261.25,-195 267.25,-195 273.25,-201 273.25,-207 273.25,-207 273.25,-219 273.25,-219 273.25,-225 267.25,-231 261.25,-231"/>
<text xml:space="preserve" text-anchor="middle" x="136.62" y="-214.75" font-family="Helvetica,sans-Serif" font-size="10.00">Antimatter Catalysed Cobalt Warhead: Strength: 16 x MSP</text>
<text xml:space="preserve" text-anchor="middle" x="136.62" y="-203.5" font-family="Helvetica,sans-Serif" font-size="10.00">250K RP</text>
</g>
<!-- Tri_Cobalt_Warhead__Strength__&#45;&gt;Antimatter_Catalysed_Cobalt_Wa -->
<g id="edge8" class="edge">
<title>Tri_Cobalt_Warhead__Strength__&#45;&gt;Antimatter_Catalysed_Cobalt_Wa</title>
<path fill="none" stroke="black" d="M136.62,-259.78C136.62,-253.53 136.62,-246.33 136.62,-239.52"/>
<polygon fill="black" stroke="black" points="139.08,-239.71 136.63,-232.71 134.18,-239.71 139.08,-239.71"/>
</g>
<!-- Antimatter_Warhead__Strength__ -->
<g id="node10" class="node">
<title>Antimatter_Warhead__Strength__</title>
<path fill="#d4c4fb" stroke="black" d="M221.88,-166C221.88,-166 51.37,-166 51.37,-166 45.37,-166 39.38,-160 39.38,-154 39.38,-154 39.38,-142 39.38,-142 39.38,-136 45.38,-130 51.38,-130 51.38,-130 221.88,-130 221.88,-130 227.88,-130 233.88,-136 233.88,-142 233.88,-142 233.88,-154 233.88,-154 233.88,-160 227.88,-166 221.88,-166"/>
<text xml:space="preserve" text-anchor="middle" x="136.62" y="-149.75" font-family="Helvetica,sans-Serif" font-size="10.00">Antimatter Warhead: Strength: 20 x MSP</text>
<text xml:space="preserve" text-anchor="middle" x="136.62" y="-138.5" font-family="Helvetica,sans-Serif" font-size="10.00">500K RP</text>
</g>
<!-- Antimatter_Catalysed_Cobalt_Wa&#45;&gt;Antimatter_Warhead__Strength__ -->
<g id="edge9" class="edge">
<title>Antimatter_Catalysed_Cobalt_Wa&#45;&gt;Antimatter_Warhead__Strength__</title>
<path fill="none" stroke="black" d="M136.62,-194.78C136.62,-188.53 136.62,-181.33 136.62,-174.52"/>
<polygon fill="black" stroke="black" points="139.08,-174.71 136.63,-167.71 134.18,-174.71 139.08,-174.71"/>
</g>
<!-- Advanced_Antimatter_Warhead__S -->
<g id="node11" class="node">
<title>Advanced_Antimatter_Warhead__S</title>
<path fill="#d4c4fb" stroke="black" d="M244.75,-101C244.75,-101 28.5,-101 28.5,-101 22.5,-101 16.5,-95 16.5,-89 16.5,-89 16.5,-77 16.5,-77 16.5,-71 22.5,-65 28.5,-65 28.5,-65 244.75,-65 244.75,-65 250.75,-65 256.75,-71 256.75,-77 256.75,-77 256.75,-89 256.75,-89 256.75,-95 250.75,-101 244.75,-101"/>
<text xml:space="preserve" text-anchor="middle" x="136.62" y="-84.75" font-family="Helvetica,sans-Serif" font-size="10.00">Advanced Antimatter Warhead: Strength: 24 x MSP</text>
<text xml:space="preserve" text-anchor="middle" x="136.62" y="-73.5" font-family="Helvetica,sans-Serif" font-size="10.00">1.0M RP</text>
</g>
<!-- Antimatter_Warhead__Strength__&#45;&gt;Advanced_Antimatter_Warhead__S -->
<g id="edge10" class="edge">
<title>Antimatter_Warhead__Strength__&#45;&gt;Advanced_Antimatter_Warhead__S</title>
<path fill="none" stroke="black" d="M136.62,-129.78C136.62,-123.53 136.62,-116.33 136.62,-109.52"/>
<polygon fill="black" stroke="black" points="139.08,-109.71 136.63,-102.71 134.18,-109.71 139.08,-109.71"/>
</g>
<!-- Gravatonic_Warhead__Strength__ -->
<g id="node12" class="node">
<title>Gravatonic_Warhead__Strength__</title>
<path fill="#f8d7da" stroke="black" d="M223,-36C223,-36 50.25,-36 50.25,-36 44.25,-36 38.25,-30 38.25,-24 38.25,-24 38.25,-12 38.25,-12 38.25,-6 44.25,0 50.25,0 50.25,0 223,0 223,0 229,0 235,-6 235,-12 235,-12 235,-24 235,-24 235,-30 229,-36 223,-36"/>
<text xml:space="preserve" text-anchor="middle" x="136.62" y="-19.75" font-family="Helvetica,sans-Serif" font-size="10.00">Gravatonic Warhead: Strength: 30 x MSP</text>
<text xml:space="preserve" text-anchor="middle" x="136.62" y="-8.5" font-family="Helvetica,sans-Serif" font-size="10.00">2.0M RP</text>
</g>
<!-- Advanced_Antimatter_Warhead__S&#45;&gt;Gravatonic_Warhead__Strength__ -->
<g id="edge11" class="edge">
<title>Advanced_Antimatter_Warhead__S&#45;&gt;Gravatonic_Warhead__Strength__</title>
<path fill="none" stroke="black" d="M136.62,-64.78C136.62,-58.53 136.62,-51.33 136.62,-44.52"/>
<polygon fill="black" stroke="black" points="139.08,-44.71 136.63,-37.71 134.18,-44.71 139.08,-44.71"/>
</g>
</g>
</svg>
