<?xml version="1.0" encoding="UTF-8" standalone="no"?>
<!DOCTYPE svg PUBLIC "-//W3C//DTD SVG 1.1//EN"
 "http://www.w3.org/Graphics/SVG/1.1/DTD/svg11.dtd">
<!-- Generated by graphviz version 14.1.2 (20260124.0452)
 -->
<!-- Title: TechTree Pages: 1 -->
<svg width="127pt" height="652pt"
 viewBox="0.00 0.00 127.00 652.00" xmlns="http://www.w3.org/2000/svg" xmlns:xlink="http://www.w3.org/1999/xlink">
<g id="graph0" class="graph" transform="scale(1 1) rotate(0) translate(4 648)">
<title>TechTree</title>
<polygon fill="white" stroke="none" points="-4,4 -4,-648 122.75,-648 122.75,4 -4,4"/>
<text xml:space="preserve" text-anchor="middle" x="59.38" y="-626.7" font-family="Helvetica,sans-Serif" font-weight="bold" font-size="14.00">Missile Jammer</text>
<!-- Missile_Jammer_1 -->
<g id="node1" class="node">
<title>Missile_Jammer_1</title>
<path fill="#cce5ff" stroke="black" d="M94,-621C94,-621 24.75,-621 24.75,-621 18.75,-621 12.75,-615 12.75,-609 12.75,-609 12.75,-597 12.75,-597 12.75,-591 18.75,-585 24.75,-585 24.75,-585 94,-585 94,-585 100,-585 106,-591 106,-597 106,-597 106,-609 106,-609 106,-615 100,-621 94,-621"/>
<text xml:space="preserve" text-anchor="middle" x="59.38" y="-604.75" font-family="Helvetica,sans-Serif" font-size="10.00">Missile Jammer 1</text>
<text xml:space="preserve" text-anchor="middle" x="59.38" y="-593.5" font-family="Helvetica,sans-Serif" font-size="10.00">2K RP</text>
</g>
<!-- Missile_Jammer_2 -->
<g id="node2" class="node">
<title>Missile_Jammer_2</title>
<path fill="#cce5ff" stroke="black" d="M94,-556C94,-556 24.75,-556 24.75,-556 18.75,-556 12.75,-550 12.75,-544 12.75,-544 12.75,-532 12.75,-532 12.75,-526 18.75,-520 24.75,-520 24.75,-520 94,-520 94,-520 100,-520 106,-526 106,-532 106,-532 106,-544 106,-544 106,-550 100,-556 94,-556"/>
<text xml:space="preserve" text-anchor="middle" x="59.38" y="-539.75" font-family="Helvetica,sans-Serif" font-size="10.00">Missile Jammer 2</text>
<text xml:space="preserve" text-anchor="middle" x="59.38" y="-528.5" font-family="Helvetica,sans-Serif" font-size="10.00">5K RP</text>
</g>
<!-- Missile_Jammer_1&#45;&gt;Missile_Jammer_2 -->
<g id="edge1" class="edge">
<title>Missile_Jammer_1&#45;&gt;Missile_Jammer_2</title>
<path fill="none" stroke="black" d="M59.38,-584.78C59.38,-578.53 59.38,-571.33 59.38,-564.52"/>
<polygon fill="black" stroke="black" points="61.83,-564.71 59.38,-557.71 56.93,-564.71 61.83,-564.71"/>
</g>
<!-- Missile_Jammer_3 -->
<g id="node3" class="node">
<title>Missile_Jammer_3</title>
<path fill="#cce5ff" stroke="black" d="M94,-491C94,-491 24.75,-491 24.75,-491 18.75,-491 12.75,-485 12.75,-479 12.75,-479 12.75,-467 12.75,-467 12.75,-461 18.75,-455 24.75,-455 24.75,-455 94,-455 94,-455 100,-455 106,-461 106,-467 106,-467 106,-479 106,-479 106,-485 100,-491 94,-491"/>
<text xml:space="preserve" text-anchor="middle" x="59.38" y="-474.75" font-family="Helvetica,sans-Serif" font-size="10.00">Missile Jammer 3</text>
<text xml:space="preserve" text-anchor="middle" x="59.38" y="-463.5" font-family="Helvetica,sans-Serif" font-size="10.00">10K RP</text>
</g>
<!-- Missile_Jammer_2&#45;&gt;Missile_Jammer_3 -->
<g id="edge2" class="edge">
<title>Missile_Jammer_2&#45;&gt;Missile_Jammer_3</title>
<path fill="none" stroke="black" d="M59.38,-519.78C59.38,-513.53 59.38,-506.33 59.38,-499.52"/>
<polygon fill="black" stroke="black" points="61.83,-499.71 59.38,-492.71 56.93,-499.71 61.83,-499.71"/>
</g>
<!-- Missile_Jammer_4 -->
<g id="node4" class="node">
<title>Missile_Jammer_4</title>
<path fill="#fff3cd" stroke="black" d="M94,-426C94,-426 24.75,-426 24.75,-426 18.75,-426 12.75,-420 12.75,-414 12.75,-414 12.75,-402 12.75,-402 12.75,-396 18.75,-390 24.75,-390 24.75,-390 94,-390 94,-390 100,-390 106,-396 106,-402 106,-402 106,-414 106,-414 106,-420 100,-426 94,-426"/>
<text xml:space="preserve" text-anchor="middle" x="59.38" y="-409.75" font-family="Helvetica,sans-Serif" font-size="10.00">Missile Jammer 4</text>
<text xml:space="preserve" text-anchor="middle" x="59.38" y="-398.5" font-family="Helvetica,sans-Serif" font-size="10.00">20K RP</text>
</g>
<!-- Missile_Jammer_3&#45;&gt;Missile_Jammer_4 -->
<g id="edge3" class="edge">
<title>Missile_Jammer_3&#45;&gt;Missile_Jammer_4</title>
<path fill="none" stroke="black" d="M59.38,-454.78C59.38,-448.53 59.38,-441.33 59.38,-434.52"/>
<polygon fill="black" stroke="black" points="61.83,-434.71 59.38,-427.71 56.93,-434.71 61.83,-434.71"/>
</g>
<!-- Missile_Jammer_5 -->
<g id="node5" class="node">
<title>Missile_Jammer_5</title>
<path fill="#fff3cd" stroke="black" d="M94,-361C94,-361 24.75,-361 24.75,-361 18.75,-361 12.75,-355 12.75,-349 12.75,-349 12.75,-337 12.75,-337 12.75,-331 18.75,-325 24.75,-325 24.75,-325 94,-325 94,-325 100,-325 106,-331 106,-337 106,-337 106,-349 106,-349 106,-355 100,-361 94,-361"/>
<text xml:space="preserve" text-anchor="middle" x="59.38" y="-344.75" font-family="Helvetica,sans-Serif" font-size="10.00">Missile Jammer 5</text>
<text xml:space="preserve" text-anchor="middle" x="59.38" y="-333.5" font-family="Helvetica,sans-Serif" font-size="10.00">40K RP</text>
</g>
<!-- Missile_Jammer_4&#45;&gt;Missile_Jammer_5 -->
<g id="edge4" class="edge">
<title>Missile_Jammer_4&#45;&gt;Missile_Jammer_5</title>
<path fill="none" stroke="black" d="M59.38,-389.78C59.38,-383.53 59.38,-376.33 59.38,-369.52"/>
<polygon fill="black" stroke="black" points="61.83,-369.71 59.38,-362.71 56.93,-369.71 61.83,-369.71"/>
</g>
<!-- Missile_Jammer_6 -->
<g id="node6" class="node">
<title>Missile_Jammer_6</title>
<path fill="#fff3cd" stroke="black" d="M94,-296C94,-296 24.75,-296 24.75,-296 18.75,-296 12.75,-290 12.75,-284 12.75,-284 12.75,-272 12.75,-272 12.75,-266 18.75,-260 24.75,-260 24.75,-260 94,-260 94,-260 100,-260 106,-266 106,-272 106,-272 106,-284 106,-284 106,-290 100,-296 94,-296"/>
<text xml:space="preserve" text-anchor="middle" x="59.38" y="-279.75" font-family="Helvetica,sans-Serif" font-size="10.00">Missile Jammer 6</text>
<text xml:space="preserve" text-anchor="middle" x="59.38" y="-268.5" font-family="Helvetica,sans-Serif" font-size="10.00">80K RP</text>
</g>
<!-- Missile_Jammer_5&#45;&gt;Missile_Jammer_6 -->
<g id="edge5" class="edge">
<title>Missile_Jammer_5&#45;&gt;Missile_Jammer_6</title>
<path fill="none" stroke="black" d="M59.38,-324.78C59.38,-318.53 59.38,-311.33 59.38,-304.52"/>
<polygon fill="black" stroke="black" points="61.83,-304.71 59.38,-297.71 56.93,-304.71 61.83,-304.71"/>
</g>
<!-- Missile_Jammer_7 -->
<g id="node7" class="node">
<title>Missile_Jammer_7</title>
<path fill="#d4c4fb" stroke="black" d="M94,-231C94,-231 24.75,-231 24.75,-231 18.75,-231 12.75,-225 12.75,-219 12.75,-219 12.75,-207 12.75,-207 12.75,-201 18.75,-195 24.75,-195 24.75,-195 94,-195 94,-195 100,-195 106,-201 106,-207 106,-207 106,-219 106,-219 106,-225 100,-231 94,-231"/>
<text xml:space="preserve" text-anchor="middle" x="59.38" y="-214.75" font-family="Helvetica,sans-Serif" font-size="10.00">Missile Jammer 7</text>
<text xml:space="preserve" text-anchor="middle" x="59.38" y="-203.5" font-family="Helvetica,sans-Serif" font-size="10.00">150K RP</text>
</g>
<!-- Missile_Jammer_6&#45;&gt;Missile_Jammer_7 -->
<g id="edge6" class="edge">
<title>Missile_Jammer_6&#45;&gt;Missile_Jammer_7</title>
<path fill="none" stroke="black" d="M59.38,-259.78C59.38,-253.53 59.38,-246.33 59.38,-239.52"/>
<polygon fill="black" stroke="black" points="61.83,-239.71 59.38,-232.71 56.93,-239.71 61.83,-239.71"/>
</g>
<!-- Missile_Jammer_8 -->
<g id="node8" class="node">
<title>Missile_Jammer_8</title>
<path fill="#d4c4fb" stroke="black" d="M94,-166C94,-166 24.75,-166 24.75,-166 18.75,-166 12.75,-160 12.75,-154 12.75,-154 12.75,-142 12.75,-142 12.75,-136 18.75,-130 24.75,-130 24.75,-130 94,-130 94,-130 100,-130 106,-136 106,-142 106,-142 106,-154 106,-154 106,-160 100,-166 94,-166"/>
<text xml:space="preserve" text-anchor="middle" x="59.38" y="-149.75" font-family="Helvetica,sans-Serif" font-size="10.00">Missile Jammer 8</text>
<text xml:space="preserve" text-anchor="middle" x="59.38" y="-138.5" font-family="Helvetica,sans-Serif" font-size="10.00">300K RP</text>
</g>
<!-- Missile_Jammer_7&#45;&gt;Missile_Jammer_8 -->
<g id="edge7" class="edge">
<title>Missile_Jammer_7&#45;&gt;Missile_Jammer_8</title>
<path fill="none" stroke="black" d="M59.38,-194.78C59.38,-188.53 59.38,-181.33 59.38,-174.52"/>
<polygon fill="black" stroke="black" points="61.83,-174.71 59.38,-167.71 56.93,-174.71 61.83,-174.71"/>
</g>
<!-- Missile_Jammer_9 -->
<g id="node9" class="node">
<title>Missile_Jammer_9</title>
<path fill="#d4c4fb" stroke="black" d="M94,-101C94,-101 24.75,-101 24.75,-101 18.75,-101 12.75,-95 12.75,-89 12.75,-89 12.75,-77 12.75,-77 12.75,-71 18.75,-65 24.75,-65 24.75,-65 94,-65 94,-65 100,-65 106,-71 106,-77 106,-77 106,-89 106,-89 106,-95 100,-101 94,-101"/>
<text xml:space="preserve" text-anchor="middle" x="59.38" y="-84.75" font-family="Helvetica,sans-Serif" font-size="10.00">Missile Jammer 9</text>
<text xml:space="preserve" text-anchor="middle" x="59.38" y="-73.5" font-family="Helvetica,sans-Serif" font-size="10.00">600K RP</text>
</g>
<!-- Missile_Jammer_8&#45;&gt;Missile_Jammer_9 -->
<g id="edge8" class="edge">
<title>Missile_Jammer_8&#45;&gt;Missile_Jammer_9</title>
<path fill="none" stroke="black" d="M59.38,-129.78C59.38,-123.53 59.38,-116.33 59.38,-109.52"/>
<polygon fill="black" stroke="black" points="61.83,-109.71 59.38,-102.71 56.93,-109.71 61.83,-109.71"/>
</g>
<!-- Missile_Jammer_10 -->
<g id="node10" class="node">
<title>Missile_Jammer_10</title>
<path fill="#f8d7da" stroke="black" d="M96.62,-36C96.62,-36 22.13,-36 22.13,-36 16.12,-36 10.12,-30 10.12,-24 10.12,-24 10.12,-12 10.12,-12 10.12,-6 16.12,0 22.12,0 22.12,0 96.62,0 96.62,0 102.62,0 108.62,-6 108.62,-12 108.62,-12 108.62,-24 108.62,-24 108.62,-30 102.62,-36 96.62,-36"/>
<text xml:space="preserve" text-anchor="middle" x="59.38" y="-19.75" font-family="Helvetica,sans-Serif" font-size="10.00">Missile Jammer 10</text>
<text xml:space="preserve" text-anchor="middle" x="59.38" y="-8.5" font-family="Helvetica,sans-Serif" font-size="10.00">1.2M RP</text>
</g>
<!-- Missile_Jammer_9&#45;&gt;Missile_Jammer_10 -->
<g id="edge9" class="edge">
<title>Missile_Jammer_9&#45;&gt;Missile_Jammer_10</title>
<path fill="none" stroke="black" d="M59.38,-64.78C59.38,-58.53 59.38,-51.33 59.38,-44.52"/>
<polygon fill="black" stroke="black" points="61.83,-44.71 59.38,-37.71 56.93,-44.71 61.83,-44.71"/>
</g>
</g>
</svg>
