<?xml version="1.0" encoding="UTF-8" standalone="no"?>
<!DOCTYPE svg PUBLIC "-//W3C//DTD SVG 1.1//EN"
 "http://www.w3.org/Graphics/SVG/1.1/DTD/svg11.dtd">
<!-- Generated by graphviz version 14.1.2 (20260124.0452)
 -->
<!-- Title: TechTree Pages: 1 -->
<svg width="266pt" height="587pt"
 viewBox="0.00 0.00 266.00 587.00" xmlns="http://www.w3.org/2000/svg" xmlns:xlink="http://www.w3.org/1999/xlink">
<g id="graph0" class="graph" transform="scale(1 1) rotate(0) translate(4 583)">
<title>TechTree</title>
<polygon fill="white" stroke="none" points="-4,4 -4,-583 262.12,-583 262.12,4 -4,4"/>
<text xml:space="preserve" text-anchor="middle" x="129.06" y="-561.7" font-family="Helvetica,sans-Serif" font-weight="bold" font-size="14.00">Missile Launcher Reload Rate</text>
<!-- Missile_Launcher_Reload_Rate_1 -->
<g id="node1" class="node">
<title>Missile_Launcher_Reload_Rate_1</title>
<path fill="#f8d7da" stroke="black" d="M202.12,-556C202.12,-556 65.38,-556 65.38,-556 59.38,-556 53.38,-550 53.38,-544 53.38,-544 53.38,-532 53.38,-532 53.38,-526 59.38,-520 65.38,-520 65.38,-520 202.12,-520 202.12,-520 208.12,-520 214.12,-526 214.12,-532 214.12,-532 214.12,-544 214.12,-544 214.12,-550 208.12,-556 202.12,-556"/>
<text xml:space="preserve" text-anchor="middle" x="133.75" y="-539.75" font-family="Helvetica,sans-Serif" font-size="10.00">Missile Launcher Reload Rate 12</text>
<text xml:space="preserve" text-anchor="middle" x="133.75" y="-528.5" font-family="Helvetica,sans-Serif" font-size="10.00">2.0M RP</text>
</g>
<!-- Missile_Launcher_Reload_Rate_1&#45;&gt;Missile_Launcher_Reload_Rate_1 -->
<g id="edge10" class="edge">
<title>Missile_Launcher_Reload_Rate_1&#45;&gt;Missile_Launcher_Reload_Rate_1</title>
<path fill="none" stroke="black" d="M214.43,-543.61C227.31,-542.79 236.12,-540.92 236.12,-538 236.12,-535.76 230.96,-534.14 222.76,-533.14"/>
<polygon fill="black" stroke="black" points="223.13,-530.71 215.94,-532.52 222.69,-535.59 223.13,-530.71"/>
</g>
<!-- Missile_Launcher_Reload_Rate_1&#45;&gt;Missile_Launcher_Reload_Rate_1 -->
<g id="edge11" class="edge">
<title>Missile_Launcher_Reload_Rate_1&#45;&gt;Missile_Launcher_Reload_Rate_1</title>
<path fill="none" stroke="black" d="M214.5,-550.17C238.98,-549.86 258.12,-545.81 258.12,-538 258.12,-531.11 243.21,-527.14 222.86,-526.09"/>
<polygon fill="black" stroke="black" points="223.08,-523.65 216.01,-525.88 222.93,-528.55 223.08,-523.65"/>
</g>
<!-- Missile_Launcher_Reload_Rate_2 -->
<g id="node2" class="node">
<title>Missile_Launcher_Reload_Rate_2</title>
<path fill="#cce5ff" stroke="black" d="M143.5,-491C143.5,-491 12,-491 12,-491 6,-491 0,-485 0,-479 0,-479 0,-467 0,-467 0,-461 6,-455 12,-455 12,-455 143.5,-455 143.5,-455 149.5,-455 155.5,-461 155.5,-467 155.5,-467 155.5,-479 155.5,-479 155.5,-485 149.5,-491 143.5,-491"/>
<text xml:space="preserve" text-anchor="middle" x="77.75" y="-474.75" font-family="Helvetica,sans-Serif" font-size="10.00">Missile Launcher Reload Rate 2</text>
<text xml:space="preserve" text-anchor="middle" x="77.75" y="-463.5" font-family="Helvetica,sans-Serif" font-size="10.00">2K RP</text>
</g>
<!-- Missile_Launcher_Reload_Rate_1&#45;&gt;Missile_Launcher_Reload_Rate_2 -->
<g id="edge1" class="edge">
<title>Missile_Launcher_Reload_Rate_1&#45;&gt;Missile_Launcher_Reload_Rate_2</title>
<path fill="none" stroke="black" d="M118.45,-519.78C112.27,-512.84 105.06,-504.72 98.43,-497.26"/>
<polygon fill="black" stroke="black" points="100.52,-495.93 94.04,-492.33 96.86,-499.19 100.52,-495.93"/>
</g>
<!-- Missile_Launcher_Reload_Rate_3 -->
<g id="node3" class="node">
<title>Missile_Launcher_Reload_Rate_3</title>
<path fill="#cce5ff" stroke="black" d="M143.5,-426C143.5,-426 12,-426 12,-426 6,-426 0,-420 0,-414 0,-414 0,-402 0,-402 0,-396 6,-390 12,-390 12,-390 143.5,-390 143.5,-390 149.5,-390 155.5,-396 155.5,-402 155.5,-402 155.5,-414 155.5,-414 155.5,-420 149.5,-426 143.5,-426"/>
<text xml:space="preserve" text-anchor="middle" x="77.75" y="-409.75" font-family="Helvetica,sans-Serif" font-size="10.00">Missile Launcher Reload Rate 3</text>
<text xml:space="preserve" text-anchor="middle" x="77.75" y="-398.5" font-family="Helvetica,sans-Serif" font-size="10.00">4K RP</text>
</g>
<!-- Missile_Launcher_Reload_Rate_2&#45;&gt;Missile_Launcher_Reload_Rate_3 -->
<g id="edge2" class="edge">
<title>Missile_Launcher_Reload_Rate_2&#45;&gt;Missile_Launcher_Reload_Rate_3</title>
<path fill="none" stroke="black" d="M77.75,-454.78C77.75,-448.53 77.75,-441.33 77.75,-434.52"/>
<polygon fill="black" stroke="black" points="80.2,-434.71 77.75,-427.71 75.3,-434.71 80.2,-434.71"/>
</g>
<!-- Missile_Launcher_Reload_Rate_4 -->
<g id="node4" class="node">
<title>Missile_Launcher_Reload_Rate_4</title>
<path fill="#cce5ff" stroke="black" d="M143.5,-361C143.5,-361 12,-361 12,-361 6,-361 0,-355 0,-349 0,-349 0,-337 0,-337 0,-331 6,-325 12,-325 12,-325 143.5,-325 143.5,-325 149.5,-325 155.5,-331 155.5,-337 155.5,-337 155.5,-349 155.5,-349 155.5,-355 149.5,-361 143.5,-361"/>
<text xml:space="preserve" text-anchor="middle" x="77.75" y="-344.75" font-family="Helvetica,sans-Serif" font-size="10.00">Missile Launcher Reload Rate 4</text>
<text xml:space="preserve" text-anchor="middle" x="77.75" y="-333.5" font-family="Helvetica,sans-Serif" font-size="10.00">8K RP</text>
</g>
<!-- Missile_Launcher_Reload_Rate_3&#45;&gt;Missile_Launcher_Reload_Rate_4 -->
<g id="edge3" class="edge">
<title>Missile_Launcher_Reload_Rate_3&#45;&gt;Missile_Launcher_Reload_Rate_4</title>
<path fill="none" stroke="black" d="M77.75,-389.78C77.75,-383.53 77.75,-376.33 77.75,-369.52"/>
<polygon fill="black" stroke="black" points="80.2,-369.71 77.75,-362.71 75.3,-369.71 80.2,-369.71"/>
</g>
<!-- Missile_Launcher_Reload_Rate_5 -->
<g id="node5" class="node">
<title>Missile_Launcher_Reload_Rate_5</title>
<path fill="#fff3cd" stroke="black" d="M143.5,-296C143.5,-296 12,-296 12,-296 6,-296 0,-290 0,-284 0,-284 0,-272 0,-272 0,-266 6,-260 12,-260 12,-260 143.5,-260 143.5,-260 149.5,-260 155.5,-266 155.5,-272 155.5,-272 155.5,-284 155.5,-284 155.5,-290 149.5,-296 143.5,-296"/>
<text xml:space="preserve" text-anchor="middle" x="77.75" y="-279.75" font-family="Helvetica,sans-Serif" font-size="10.00">Missile Launcher Reload Rate 5</text>
<text xml:space="preserve" text-anchor="middle" x="77.75" y="-268.5" font-family="Helvetica,sans-Serif" font-size="10.00">15K RP</text>
</g>
<!-- Missile_Launcher_Reload_Rate_4&#45;&gt;Missile_Launcher_Reload_Rate_5 -->
<g id="edge4" class="edge">
<title>Missile_Launcher_Reload_Rate_4&#45;&gt;Missile_Launcher_Reload_Rate_5</title>
<path fill="none" stroke="black" d="M77.75,-324.78C77.75,-318.53 77.75,-311.33 77.75,-304.52"/>
<polygon fill="black" stroke="black" points="80.2,-304.71 77.75,-297.71 75.3,-304.71 80.2,-304.71"/>
</g>
<!-- Missile_Launcher_Reload_Rate_6 -->
<g id="node6" class="node">
<title>Missile_Launcher_Reload_Rate_6</title>
<path fill="#fff3cd" stroke="black" d="M143.5,-231C143.5,-231 12,-231 12,-231 6,-231 0,-225 0,-219 0,-219 0,-207 0,-207 0,-201 6,-195 12,-195 12,-195 143.5,-195 143.5,-195 149.5,-195 155.5,-201 155.5,-207 155.5,-207 155.5,-219 155.5,-219 155.5,-225 149.5,-231 143.5,-231"/>
<text xml:space="preserve" text-anchor="middle" x="77.75" y="-214.75" font-family="Helvetica,sans-Serif" font-size="10.00">Missile Launcher Reload Rate 6</text>
<text xml:space="preserve" text-anchor="middle" x="77.75" y="-203.5" font-family="Helvetica,sans-Serif" font-size="10.00">30K RP</text>
</g>
<!-- Missile_Launcher_Reload_Rate_5&#45;&gt;Missile_Launcher_Reload_Rate_6 -->
<g id="edge5" class="edge">
<title>Missile_Launcher_Reload_Rate_5&#45;&gt;Missile_Launcher_Reload_Rate_6</title>
<path fill="none" stroke="black" d="M77.75,-259.78C77.75,-253.53 77.75,-246.33 77.75,-239.52"/>
<polygon fill="black" stroke="black" points="80.2,-239.71 77.75,-232.71 75.3,-239.71 80.2,-239.71"/>
</g>
<!-- Missile_Launcher_Reload_Rate_7 -->
<g id="node7" class="node">
<title>Missile_Launcher_Reload_Rate_7</title>
<path fill="#fff3cd" stroke="black" d="M143.5,-166C143.5,-166 12,-166 12,-166 6,-166 0,-160 0,-154 0,-154 0,-142 0,-142 0,-136 6,-130 12,-130 12,-130 143.5,-130 143.5,-130 149.5,-130 155.5,-136 155.5,-142 155.5,-142 155.5,-154 155.5,-154 155.5,-160 149.5,-166 143.5,-166"/>
<text xml:space="preserve" text-anchor="middle" x="77.75" y="-149.75" font-family="Helvetica,sans-Serif" font-size="10.00">Missile Launcher Reload Rate 7</text>
<text xml:space="preserve" text-anchor="middle" x="77.75" y="-138.5" font-family="Helvetica,sans-Serif" font-size="10.00">60K RP</text>
</g>
<!-- Missile_Launcher_Reload_Rate_6&#45;&gt;Missile_Launcher_Reload_Rate_7 -->
<g id="edge6" class="edge">
<title>Missile_Launcher_Reload_Rate_6&#45;&gt;Missile_Launcher_Reload_Rate_7</title>
<path fill="none" stroke="black" d="M77.75,-194.78C77.75,-188.53 77.75,-181.33 77.75,-174.52"/>
<polygon fill="black" stroke="black" points="80.2,-174.71 77.75,-167.71 75.3,-174.71 80.2,-174.71"/>
</g>
<!-- Missile_Launcher_Reload_Rate_8 -->
<g id="node8" class="node">
<title>Missile_Launcher_Reload_Rate_8</title>
<path fill="#d4c4fb" stroke="black" d="M143.5,-101C143.5,-101 12,-101 12,-101 6,-101 0,-95 0,-89 0,-89 0,-77 0,-77 0,-71 6,-65 12,-65 12,-65 143.5,-65 143.5,-65 149.5,-65 155.5,-71 155.5,-77 155.5,-77 155.5,-89 155.5,-89 155.5,-95 149.5,-101 143.5,-101"/>
<text xml:space="preserve" text-anchor="middle" x="77.75" y="-84.75" font-family="Helvetica,sans-Serif" font-size="10.00">Missile Launcher Reload Rate 8</text>
<text xml:space="preserve" text-anchor="middle" x="77.75" y="-73.5" font-family="Helvetica,sans-Serif" font-size="10.00">125K RP</text>
</g>
<!-- Missile_Launcher_Reload_Rate_7&#45;&gt;Missile_Launcher_Reload_Rate_8 -->
<g id="edge7" class="edge">
<title>Missile_Launcher_Reload_Rate_7&#45;&gt;Missile_Launcher_Reload_Rate_8</title>
<path fill="none" stroke="black" d="M77.75,-129.78C77.75,-123.53 77.75,-116.33 77.75,-109.52"/>
<polygon fill="black" stroke="black" points="80.2,-109.71 77.75,-102.71 75.3,-109.71 80.2,-109.71"/>
</g>
<!-- Missile_Launcher_Reload_Rate_9 -->
<g id="node9" class="node">
<title>Missile_Launcher_Reload_Rate_9</title>
<path fill="#d4c4fb" stroke="black" d="M199.5,-36C199.5,-36 68,-36 68,-36 62,-36 56,-30 56,-24 56,-24 56,-12 56,-12 56,-6 62,0 68,0 68,0 199.5,0 199.5,0 205.5,0 211.5,-6 211.5,-12 211.5,-12 211.5,-24 211.5,-24 211.5,-30 205.5,-36 199.5,-36"/>
<text xml:space="preserve" text-anchor="middle" x="133.75" y="-19.75" font-family="Helvetica,sans-Serif" font-size="10.00">Missile Launcher Reload Rate 9</text>
<text xml:space="preserve" text-anchor="middle" x="133.75" y="-8.5" font-family="Helvetica,sans-Serif" font-size="10.00">250K RP</text>
</g>
<!-- Missile_Launcher_Reload_Rate_8&#45;&gt;Missile_Launcher_Reload_Rate_9 -->
<g id="edge8" class="edge">
<title>Missile_Launcher_Reload_Rate_8&#45;&gt;Missile_Launcher_Reload_Rate_9</title>
<path fill="none" stroke="black" d="M93.05,-64.78C99.23,-57.84 106.44,-49.72 113.07,-42.26"/>
<polygon fill="black" stroke="black" points="114.64,-44.19 117.46,-37.33 110.98,-40.93 114.64,-44.19"/>
</g>
<!-- Missile_Launcher_Reload_Rate_9&#45;&gt;Missile_Launcher_Reload_Rate_1 -->
<g id="edge9" class="edge">
<title>Missile_Launcher_Reload_Rate_9&#45;&gt;Missile_Launcher_Reload_Rate_1</title>
<path fill="none" stroke="black" d="M148.47,-36.44C154.82,-44.67 161.9,-54.9 166.75,-65 183.14,-99.12 189.75,-109.15 189.75,-147 189.75,-409 189.75,-409 189.75,-409 189.75,-446.85 183.14,-456.88 166.75,-491 163.11,-498.57 158.22,-506.22 153.32,-513.05"/>
<polygon fill="black" stroke="black" points="151.59,-511.27 149.37,-518.35 155.52,-514.2 151.59,-511.27"/>
</g>
</g>
</svg>
