<?xml version="1.0" encoding="UTF-8" standalone="no"?>
<!DOCTYPE svg PUBLIC "-//W3C//DTD SVG 1.1//EN"
 "http://www.w3.org/Graphics/SVG/1.1/DTD/svg11.dtd">
<!-- Generated by graphviz version 14.1.2 (20260124.0452)
 -->
<!-- Title: TechTree Pages: 1 -->
<svg width="274pt" height="65pt"
 viewBox="0.00 0.00 274.00 65.00" xmlns="http://www.w3.org/2000/svg" xmlns:xlink="http://www.w3.org/1999/xlink">
<g id="graph0" class="graph" transform="scale(1 1) rotate(0) translate(4 60.75)">
<title>TechTree</title>
<polygon fill="white" stroke="none" points="-4,4 -4,-60.75 269.62,-60.75 269.62,4 -4,4"/>
<text xml:space="preserve" text-anchor="middle" x="132.81" y="-41.35" font-family="Helvetica,sans-Serif" font-weight="bold" font-size="12.00">Missile Retargeting</text>
<!-- No_Missile_Retargeting -->
<g id="node1" class="node">
<title>No_Missile_Retargeting</title>
<path fill="#d4edda" stroke="black" d="M97,-36C97,-36 12,-36 12,-36 6,-36 0,-30 0,-24 0,-24 0,-12 0,-12 0,-6 6,0 12,0 12,0 97,0 97,0 103,0 109,-6 109,-12 109,-12 109,-24 109,-24 109,-30 103,-36 97,-36"/>
<text xml:space="preserve" text-anchor="middle" x="54.5" y="-19.2" font-family="Helvetica,sans-Serif" font-size="9.00">No Missile Retargeting</text>
<text xml:space="preserve" text-anchor="middle" x="54.5" y="-9.45" font-family="Helvetica,sans-Serif" font-size="9.00">1 RP</text>
</g>
<!-- Missile_Retargeting_Capability -->
<g id="node2" class="node">
<title>Missile_Retargeting_Capability</title>
<path fill="#cce5ff" stroke="black" d="M253.62,-36C253.62,-36 139.38,-36 139.38,-36 133.38,-36 127.38,-30 127.38,-24 127.38,-24 127.38,-12 127.38,-12 127.38,-6 133.38,0 139.38,0 139.38,0 253.62,0 253.62,0 259.62,0 265.62,-6 265.62,-12 265.62,-12 265.62,-24 265.62,-24 265.62,-30 259.62,-36 253.62,-36"/>
<text xml:space="preserve" text-anchor="middle" x="196.5" y="-19.2" font-family="Helvetica,sans-Serif" font-size="9.00">Missile Retargeting Capability</text>
<text xml:space="preserve" text-anchor="middle" x="196.5" y="-9.45" font-family="Helvetica,sans-Serif" font-size="9.00">5K RP</text>
</g>
</g>
</svg>
