<?xml version="1.0" encoding="UTF-8" standalone="no"?>
<!DOCTYPE svg PUBLIC "-//W3C//DTD SVG 1.1//EN"
 "http://www.w3.org/Graphics/SVG/1.1/DTD/svg11.dtd">
<!-- Generated by graphviz version 14.1.2 (20260124.0452)
 -->
<!-- Title: TechTree Pages: 1 -->
<svg width="366pt" height="857pt"
 viewBox="0.00 0.00 366.00 857.00" xmlns="http://www.w3.org/2000/svg" xmlns:xlink="http://www.w3.org/1999/xlink">
<g id="graph0" class="graph" transform="scale(1 1) rotate(0) translate(4 852.75)">
<title>TechTree</title>
<polygon fill="white" stroke="none" points="-4,4 -4,-852.75 362.12,-852.75 362.12,4 -4,4"/>
<text xml:space="preserve" text-anchor="middle" x="179.06" y="-833.35" font-family="Helvetica,sans-Serif" font-weight="bold" font-size="12.00">Missile Warhead Strength</text>
<!-- Gun_Type_Fission_Warhead__Stre -->
<g id="node1" class="node">
<title>Gun_Type_Fission_Warhead__Stre</title>
<path fill="#cce5ff" stroke="black" d="M192.25,-828C192.25,-828 12,-828 12,-828 6,-828 0,-822 0,-816 0,-816 0,-804 0,-804 0,-798 6,-792 12,-792 12,-792 192.25,-792 192.25,-792 198.25,-792 204.25,-798 204.25,-804 204.25,-804 204.25,-816 204.25,-816 204.25,-822 198.25,-828 192.25,-828"/>
<text xml:space="preserve" text-anchor="middle" x="102.12" y="-811.2" font-family="Helvetica,sans-Serif" font-size="9.00">Gun&#45;Type Fission Warhead: Strength: 2 x MSP</text>
<text xml:space="preserve" text-anchor="middle" x="102.12" y="-801.45" font-family="Helvetica,sans-Serif" font-size="9.00">1K RP</text>
</g>
<!-- Implosion_Fission_Warhead__Str -->
<g id="node2" class="node">
<title>Implosion_Fission_Warhead__Str</title>
<path fill="#cce5ff" stroke="black" d="M285.88,-756C285.88,-756 106.38,-756 106.38,-756 100.38,-756 94.38,-750 94.38,-744 94.38,-744 94.38,-732 94.38,-732 94.38,-726 100.38,-720 106.38,-720 106.38,-720 285.88,-720 285.88,-720 291.88,-720 297.88,-726 297.88,-732 297.88,-732 297.88,-744 297.88,-744 297.88,-750 291.88,-756 285.88,-756"/>
<text xml:space="preserve" text-anchor="middle" x="196.12" y="-739.2" font-family="Helvetica,sans-Serif" font-size="9.00">Implosion Fission Warhead: Strength: 3 x MSP</text>
<text xml:space="preserve" text-anchor="middle" x="196.12" y="-729.45" font-family="Helvetica,sans-Serif" font-size="9.00">2K RP</text>
</g>
<!-- Gun_Type_Fission_Warhead__Stre&#45;&gt;Implosion_Fission_Warhead__Str -->
<g id="edge1" class="edge">
<title>Gun_Type_Fission_Warhead__Stre&#45;&gt;Implosion_Fission_Warhead__Str</title>
<path fill="none" stroke="black" d="M125.36,-791.7C137.9,-782.36 153.51,-770.74 166.87,-760.79"/>
<polygon fill="black" stroke="black" points="168.06,-762.52 171.62,-757.25 165.55,-759.15 168.06,-762.52"/>
</g>
<!-- Levitated_Pit_Implosion_Warhea -->
<g id="node3" class="node">
<title>Levitated_Pit_Implosion_Warhea</title>
<path fill="#cce5ff" stroke="black" d="M296.75,-684C296.75,-684 95.5,-684 95.5,-684 89.5,-684 83.5,-678 83.5,-672 83.5,-672 83.5,-660 83.5,-660 83.5,-654 89.5,-648 95.5,-648 95.5,-648 296.75,-648 296.75,-648 302.75,-648 308.75,-654 308.75,-660 308.75,-660 308.75,-672 308.75,-672 308.75,-678 302.75,-684 296.75,-684"/>
<text xml:space="preserve" text-anchor="middle" x="196.12" y="-667.2" font-family="Helvetica,sans-Serif" font-size="9.00">Levitated&#45;Pit Implosion Warhead: Strength: 4 x MSP</text>
<text xml:space="preserve" text-anchor="middle" x="196.12" y="-657.45" font-family="Helvetica,sans-Serif" font-size="9.00">4K RP</text>
</g>
<!-- Implosion_Fission_Warhead__Str&#45;&gt;Levitated_Pit_Implosion_Warhea -->
<g id="edge3" class="edge">
<title>Implosion_Fission_Warhead__Str&#45;&gt;Levitated_Pit_Implosion_Warhea</title>
<path fill="none" stroke="black" d="M196.12,-719.7C196.12,-711.22 196.12,-700.86 196.12,-691.58"/>
<polygon fill="black" stroke="black" points="198.23,-691.62 196.13,-685.62 194.03,-691.62 198.23,-691.62"/>
</g>
<!-- Fusion_boosted_Fission_Warhead -->
<g id="node4" class="node">
<title>Fusion_boosted_Fission_Warhead</title>
<path fill="#cce5ff" stroke="black" d="M297.88,-612C297.88,-612 94.38,-612 94.38,-612 88.38,-612 82.38,-606 82.38,-600 82.38,-600 82.38,-588 82.38,-588 82.38,-582 88.38,-576 94.38,-576 94.38,-576 297.88,-576 297.88,-576 303.88,-576 309.88,-582 309.88,-588 309.88,-588 309.88,-600 309.88,-600 309.88,-606 303.88,-612 297.88,-612"/>
<text xml:space="preserve" text-anchor="middle" x="196.12" y="-595.2" font-family="Helvetica,sans-Serif" font-size="9.00">Fusion&#45;boosted Fission Warhead: Strength: 5 x MSP</text>
<text xml:space="preserve" text-anchor="middle" x="196.12" y="-585.45" font-family="Helvetica,sans-Serif" font-size="9.00">8K RP</text>
</g>
<!-- Levitated_Pit_Implosion_Warhea&#45;&gt;Fusion_boosted_Fission_Warhead -->
<g id="edge4" class="edge">
<title>Levitated_Pit_Implosion_Warhea&#45;&gt;Fusion_boosted_Fission_Warhead</title>
<path fill="none" stroke="black" d="M196.12,-647.7C196.12,-639.22 196.12,-628.86 196.12,-619.58"/>
<polygon fill="black" stroke="black" points="198.23,-619.62 196.13,-613.62 194.03,-619.62 198.23,-619.62"/>
</g>
<!-- Two_stage_Thermonuclear_Warhea -->
<g id="node5" class="node">
<title>Two_stage_Thermonuclear_Warhea</title>
<path fill="#fff3cd" stroke="black" d="M303.5,-540C303.5,-540 88.75,-540 88.75,-540 82.75,-540 76.75,-534 76.75,-528 76.75,-528 76.75,-516 76.75,-516 76.75,-510 82.75,-504 88.75,-504 88.75,-504 303.5,-504 303.5,-504 309.5,-504 315.5,-510 315.5,-516 315.5,-516 315.5,-528 315.5,-528 315.5,-534 309.5,-540 303.5,-540"/>
<text xml:space="preserve" text-anchor="middle" x="196.12" y="-523.2" font-family="Helvetica,sans-Serif" font-size="9.00">Two&#45;stage Thermonuclear Warhead: Strength: 6 x MSP</text>
<text xml:space="preserve" text-anchor="middle" x="196.12" y="-513.45" font-family="Helvetica,sans-Serif" font-size="9.00">15K RP</text>
</g>
<!-- Fusion_boosted_Fission_Warhead&#45;&gt;Two_stage_Thermonuclear_Warhea -->
<g id="edge5" class="edge">
<title>Fusion_boosted_Fission_Warhead&#45;&gt;Two_stage_Thermonuclear_Warhea</title>
<path fill="none" stroke="black" d="M196.12,-575.7C196.12,-567.22 196.12,-556.86 196.12,-547.58"/>
<polygon fill="black" stroke="black" points="198.23,-547.62 196.13,-541.62 194.03,-547.62 198.23,-547.62"/>
</g>
<!-- Three_stage_Thermonuclear_Warh -->
<g id="node6" class="node">
<title>Three_stage_Thermonuclear_Warh</title>
<path fill="#fff3cd" stroke="black" d="M307.25,-468C307.25,-468 85,-468 85,-468 79,-468 73,-462 73,-456 73,-456 73,-444 73,-444 73,-438 79,-432 85,-432 85,-432 307.25,-432 307.25,-432 313.25,-432 319.25,-438 319.25,-444 319.25,-444 319.25,-456 319.25,-456 319.25,-462 313.25,-468 307.25,-468"/>
<text xml:space="preserve" text-anchor="middle" x="196.12" y="-451.2" font-family="Helvetica,sans-Serif" font-size="9.00">Three&#45;stage Thermonuclear Warhead: Strength: 8 x MSP</text>
<text xml:space="preserve" text-anchor="middle" x="196.12" y="-441.45" font-family="Helvetica,sans-Serif" font-size="9.00">30K RP</text>
</g>
<!-- Two_stage_Thermonuclear_Warhea&#45;&gt;Three_stage_Thermonuclear_Warh -->
<g id="edge6" class="edge">
<title>Two_stage_Thermonuclear_Warhea&#45;&gt;Three_stage_Thermonuclear_Warh</title>
<path fill="none" stroke="black" d="M196.12,-503.7C196.12,-495.22 196.12,-484.86 196.12,-475.58"/>
<polygon fill="black" stroke="black" points="198.23,-475.62 196.13,-469.62 194.03,-475.62 198.23,-475.62"/>
</g>
<!-- Cobalt_Warhead__Strength__10_x -->
<g id="node7" class="node">
<title>Cobalt_Warhead__Strength__10_x</title>
<path fill="#fff3cd" stroke="black" d="M266.38,-396C266.38,-396 125.88,-396 125.88,-396 119.88,-396 113.88,-390 113.88,-384 113.88,-384 113.88,-372 113.88,-372 113.88,-366 119.88,-360 125.88,-360 125.88,-360 266.38,-360 266.38,-360 272.38,-360 278.38,-366 278.38,-372 278.38,-372 278.38,-384 278.38,-384 278.38,-390 272.38,-396 266.38,-396"/>
<text xml:space="preserve" text-anchor="middle" x="196.12" y="-379.2" font-family="Helvetica,sans-Serif" font-size="9.00">Cobalt Warhead: Strength: 10 x MSP</text>
<text xml:space="preserve" text-anchor="middle" x="196.12" y="-369.45" font-family="Helvetica,sans-Serif" font-size="9.00">60K RP</text>
</g>
<!-- Three_stage_Thermonuclear_Warh&#45;&gt;Cobalt_Warhead__Strength__10_x -->
<g id="edge7" class="edge">
<title>Three_stage_Thermonuclear_Warh&#45;&gt;Cobalt_Warhead__Strength__10_x</title>
<path fill="none" stroke="black" d="M196.12,-431.7C196.12,-423.22 196.12,-412.86 196.12,-403.58"/>
<polygon fill="black" stroke="black" points="198.23,-403.62 196.13,-397.62 194.03,-403.62 198.23,-403.62"/>
</g>
<!-- Tri_Cobalt_Warhead__Strength__ -->
<g id="node8" class="node">
<title>Tri_Cobalt_Warhead__Strength__</title>
<path fill="#d4c4fb" stroke="black" d="M273.12,-324C273.12,-324 119.12,-324 119.12,-324 113.12,-324 107.12,-318 107.12,-312 107.12,-312 107.12,-300 107.12,-300 107.12,-294 113.12,-288 119.12,-288 119.12,-288 273.12,-288 273.12,-288 279.12,-288 285.12,-294 285.12,-300 285.12,-300 285.12,-312 285.12,-312 285.12,-318 279.12,-324 273.12,-324"/>
<text xml:space="preserve" text-anchor="middle" x="196.12" y="-307.2" font-family="Helvetica,sans-Serif" font-size="9.00">Tri&#45;Cobalt Warhead: Strength: 12 x MSP</text>
<text xml:space="preserve" text-anchor="middle" x="196.12" y="-297.45" font-family="Helvetica,sans-Serif" font-size="9.00">125K RP</text>
</g>
<!-- Cobalt_Warhead__Strength__10_x&#45;&gt;Tri_Cobalt_Warhead__Strength__ -->
<g id="edge8" class="edge">
<title>Cobalt_Warhead__Strength__10_x&#45;&gt;Tri_Cobalt_Warhead__Strength__</title>
<path fill="none" stroke="black" d="M196.12,-359.7C196.12,-351.22 196.12,-340.86 196.12,-331.58"/>
<polygon fill="black" stroke="black" points="198.23,-331.62 196.13,-325.62 194.03,-331.62 198.23,-331.62"/>
</g>
<!-- Antimatter_Catalysed_Cobalt_Wa -->
<g id="node9" class="node">
<title>Antimatter_Catalysed_Cobalt_Wa</title>
<path fill="#d4c4fb" stroke="black" d="M309.88,-252C309.88,-252 82.37,-252 82.37,-252 76.37,-252 70.38,-246 70.38,-240 70.38,-240 70.38,-228 70.38,-228 70.38,-222 76.38,-216 82.38,-216 82.38,-216 309.88,-216 309.88,-216 315.88,-216 321.88,-222 321.88,-228 321.88,-228 321.88,-240 321.88,-240 321.88,-246 315.88,-252 309.88,-252"/>
<text xml:space="preserve" text-anchor="middle" x="196.12" y="-235.2" font-family="Helvetica,sans-Serif" font-size="9.00">Antimatter Catalysed Cobalt Warhead: Strength: 16 x MSP</text>
<text xml:space="preserve" text-anchor="middle" x="196.12" y="-225.45" font-family="Helvetica,sans-Serif" font-size="9.00">250K RP</text>
</g>
<!-- Tri_Cobalt_Warhead__Strength__&#45;&gt;Antimatter_Catalysed_Cobalt_Wa -->
<g id="edge9" class="edge">
<title>Tri_Cobalt_Warhead__Strength__&#45;&gt;Antimatter_Catalysed_Cobalt_Wa</title>
<path fill="none" stroke="black" d="M196.12,-287.7C196.12,-279.22 196.12,-268.86 196.12,-259.58"/>
<polygon fill="black" stroke="black" points="198.23,-259.62 196.13,-253.62 194.03,-259.62 198.23,-259.62"/>
</g>
<!-- Antimatter_Warhead__Strength__ -->
<g id="node10" class="node">
<title>Antimatter_Warhead__Strength__</title>
<path fill="#d4c4fb" stroke="black" d="M273.5,-180C273.5,-180 118.75,-180 118.75,-180 112.75,-180 106.75,-174 106.75,-168 106.75,-168 106.75,-156 106.75,-156 106.75,-150 112.75,-144 118.75,-144 118.75,-144 273.5,-144 273.5,-144 279.5,-144 285.5,-150 285.5,-156 285.5,-156 285.5,-168 285.5,-168 285.5,-174 279.5,-180 273.5,-180"/>
<text xml:space="preserve" text-anchor="middle" x="196.12" y="-163.2" font-family="Helvetica,sans-Serif" font-size="9.00">Antimatter Warhead: Strength: 20 x MSP</text>
<text xml:space="preserve" text-anchor="middle" x="196.12" y="-153.45" font-family="Helvetica,sans-Serif" font-size="9.00">500K RP</text>
</g>
<!-- Antimatter_Catalysed_Cobalt_Wa&#45;&gt;Antimatter_Warhead__Strength__ -->
<g id="edge10" class="edge">
<title>Antimatter_Catalysed_Cobalt_Wa&#45;&gt;Antimatter_Warhead__Strength__</title>
<path fill="none" stroke="black" d="M196.12,-215.7C196.12,-207.22 196.12,-196.86 196.12,-187.58"/>
<polygon fill="black" stroke="black" points="198.23,-187.62 196.13,-181.62 194.03,-187.62 198.23,-187.62"/>
</g>
<!-- Advanced_Antimatter_Warhead__S -->
<g id="node11" class="node">
<title>Advanced_Antimatter_Warhead__S</title>
<path fill="#d4c4fb" stroke="black" d="M295.25,-108C295.25,-108 97,-108 97,-108 91,-108 85,-102 85,-96 85,-96 85,-84 85,-84 85,-78 91,-72 97,-72 97,-72 295.25,-72 295.25,-72 301.25,-72 307.25,-78 307.25,-84 307.25,-84 307.25,-96 307.25,-96 307.25,-102 301.25,-108 295.25,-108"/>
<text xml:space="preserve" text-anchor="middle" x="196.12" y="-91.2" font-family="Helvetica,sans-Serif" font-size="9.00">Advanced Antimatter Warhead: Strength: 24 x MSP</text>
<text xml:space="preserve" text-anchor="middle" x="196.12" y="-81.45" font-family="Helvetica,sans-Serif" font-size="9.00">1.0M RP</text>
</g>
<!-- Antimatter_Warhead__Strength__&#45;&gt;Advanced_Antimatter_Warhead__S -->
<g id="edge11" class="edge">
<title>Antimatter_Warhead__Strength__&#45;&gt;Advanced_Antimatter_Warhead__S</title>
<path fill="none" stroke="black" d="M196.12,-143.7C196.12,-135.22 196.12,-124.86 196.12,-115.58"/>
<polygon fill="black" stroke="black" points="198.23,-115.62 196.13,-109.62 194.03,-115.62 198.23,-115.62"/>
</g>
<!-- Gravatonic_Warhead__Strength__ -->
<g id="node12" class="node">
<title>Gravatonic_Warhead__Strength__</title>
<path fill="#f8d7da" stroke="black" d="M275,-36C275,-36 117.25,-36 117.25,-36 111.25,-36 105.25,-30 105.25,-24 105.25,-24 105.25,-12 105.25,-12 105.25,-6 111.25,0 117.25,0 117.25,0 275,0 275,0 281,0 287,-6 287,-12 287,-12 287,-24 287,-24 287,-30 281,-36 275,-36"/>
<text xml:space="preserve" text-anchor="middle" x="196.12" y="-19.2" font-family="Helvetica,sans-Serif" font-size="9.00">Gravatonic Warhead: Strength: 30 x MSP</text>
<text xml:space="preserve" text-anchor="middle" x="196.12" y="-9.45" font-family="Helvetica,sans-Serif" font-size="9.00">2.0M RP</text>
</g>
<!-- Advanced_Antimatter_Warhead__S&#45;&gt;Gravatonic_Warhead__Strength__ -->
<g id="edge12" class="edge">
<title>Advanced_Antimatter_Warhead__S&#45;&gt;Gravatonic_Warhead__Strength__</title>
<path fill="none" stroke="black" d="M196.12,-71.7C196.12,-63.22 196.12,-52.86 196.12,-43.58"/>
<polygon fill="black" stroke="black" points="198.23,-43.62 196.13,-37.62 194.03,-43.62 198.23,-43.62"/>
</g>
<!-- ext_Trans_Newtonian_Technology -->
<g id="node13" class="node">
<title>ext_Trans_Newtonian_Technology</title>
<path fill="#f0f0f0" stroke="black" stroke-dasharray="5,2" d="M346.12,-828C346.12,-828 234.12,-828 234.12,-828 228.12,-828 222.12,-822 222.12,-816 222.12,-816 222.12,-804 222.12,-804 222.12,-798 228.12,-792 234.12,-792 234.12,-792 346.12,-792 346.12,-792 352.12,-792 358.12,-798 358.12,-804 358.12,-804 358.12,-816 358.12,-816 358.12,-822 352.12,-828 346.12,-828"/>
<text xml:space="preserve" text-anchor="middle" x="290.12" y="-806.33" font-family="Helvetica,sans-Serif" font-size="9.00">Trans&#45;Newtonian Technology</text>
</g>
<!-- ext_Trans_Newtonian_Technology&#45;&gt;Implosion_Fission_Warhead__Str -->
<g id="edge2" class="edge">
<title>ext_Trans_Newtonian_Technology&#45;&gt;Implosion_Fission_Warhead__Str</title>
<path fill="none" stroke="black" d="M266.89,-791.7C254.35,-782.36 238.74,-770.74 225.38,-760.79"/>
<polygon fill="black" stroke="black" points="226.7,-759.15 220.63,-757.25 224.19,-762.52 226.7,-759.15"/>
</g>
</g>
</svg>
