<?xml version="1.0" encoding="UTF-8" standalone="no"?>
<!DOCTYPE svg PUBLIC "-//W3C//DTD SVG 1.1//EN"
 "http://www.w3.org/Graphics/SVG/1.1/DTD/svg11.dtd">
<!-- Generated by graphviz version 14.1.2 (20260124.0452)
 -->
<!-- Title: TechTree Pages: 1 -->
<svg width="179pt" height="713pt"
 viewBox="0.00 0.00 179.00 713.00" xmlns="http://www.w3.org/2000/svg" xmlns:xlink="http://www.w3.org/1999/xlink">
<g id="graph0" class="graph" transform="scale(1 1) rotate(0) translate(4 708.75)">
<title>TechTree</title>
<polygon fill="white" stroke="none" points="-4,4 -4,-708.75 174.88,-708.75 174.88,4 -4,4"/>
<text xml:space="preserve" text-anchor="middle" x="85.44" y="-689.35" font-family="Helvetica,sans-Serif" font-weight="bold" font-size="12.00">Missile ECM</text>
<!-- Missile_ECM_0 -->
<g id="node1" class="node">
<title>Missile_ECM_0</title>
<path fill="#d4edda" stroke="black" d="M63.25,-684C63.25,-684 12,-684 12,-684 6,-684 0,-678 0,-672 0,-672 0,-660 0,-660 0,-654 6,-648 12,-648 12,-648 63.25,-648 63.25,-648 69.25,-648 75.25,-654 75.25,-660 75.25,-660 75.25,-672 75.25,-672 75.25,-678 69.25,-684 63.25,-684"/>
<text xml:space="preserve" text-anchor="middle" x="37.62" y="-667.2" font-family="Helvetica,sans-Serif" font-size="9.00">Missile ECM&#45;0</text>
<text xml:space="preserve" text-anchor="middle" x="37.62" y="-657.45" font-family="Helvetica,sans-Serif" font-size="9.00">1 RP</text>
</g>
<!-- Missile_ECM_1 -->
<g id="node2" class="node">
<title>Missile_ECM_1</title>
<path fill="#cce5ff" stroke="black" d="M156.25,-684C156.25,-684 105,-684 105,-684 99,-684 93,-678 93,-672 93,-672 93,-660 93,-660 93,-654 99,-648 105,-648 105,-648 156.25,-648 156.25,-648 162.25,-648 168.25,-654 168.25,-660 168.25,-660 168.25,-672 168.25,-672 168.25,-678 162.25,-684 156.25,-684"/>
<text xml:space="preserve" text-anchor="middle" x="130.62" y="-667.2" font-family="Helvetica,sans-Serif" font-size="9.00">Missile ECM&#45;1</text>
<text xml:space="preserve" text-anchor="middle" x="130.62" y="-657.45" font-family="Helvetica,sans-Serif" font-size="9.00">2K RP</text>
</g>
<!-- Missile_ECM_2 -->
<g id="node3" class="node">
<title>Missile_ECM_2</title>
<path fill="#cce5ff" stroke="black" d="M156.25,-612C156.25,-612 105,-612 105,-612 99,-612 93,-606 93,-600 93,-600 93,-588 93,-588 93,-582 99,-576 105,-576 105,-576 156.25,-576 156.25,-576 162.25,-576 168.25,-582 168.25,-588 168.25,-588 168.25,-600 168.25,-600 168.25,-606 162.25,-612 156.25,-612"/>
<text xml:space="preserve" text-anchor="middle" x="130.62" y="-595.2" font-family="Helvetica,sans-Serif" font-size="9.00">Missile ECM&#45;2</text>
<text xml:space="preserve" text-anchor="middle" x="130.62" y="-585.45" font-family="Helvetica,sans-Serif" font-size="9.00">5K RP</text>
</g>
<!-- Missile_ECM_1&#45;&gt;Missile_ECM_2 -->
<g id="edge1" class="edge">
<title>Missile_ECM_1&#45;&gt;Missile_ECM_2</title>
<path fill="none" stroke="black" d="M130.62,-647.7C130.62,-639.22 130.62,-628.86 130.62,-619.58"/>
<polygon fill="black" stroke="black" points="132.73,-619.62 130.63,-613.62 128.53,-619.62 132.73,-619.62"/>
</g>
<!-- Missile_ECM_3 -->
<g id="node4" class="node">
<title>Missile_ECM_3</title>
<path fill="#cce5ff" stroke="black" d="M156.25,-540C156.25,-540 105,-540 105,-540 99,-540 93,-534 93,-528 93,-528 93,-516 93,-516 93,-510 99,-504 105,-504 105,-504 156.25,-504 156.25,-504 162.25,-504 168.25,-510 168.25,-516 168.25,-516 168.25,-528 168.25,-528 168.25,-534 162.25,-540 156.25,-540"/>
<text xml:space="preserve" text-anchor="middle" x="130.62" y="-523.2" font-family="Helvetica,sans-Serif" font-size="9.00">Missile ECM&#45;3</text>
<text xml:space="preserve" text-anchor="middle" x="130.62" y="-513.45" font-family="Helvetica,sans-Serif" font-size="9.00">10K RP</text>
</g>
<!-- Missile_ECM_2&#45;&gt;Missile_ECM_3 -->
<g id="edge2" class="edge">
<title>Missile_ECM_2&#45;&gt;Missile_ECM_3</title>
<path fill="none" stroke="black" d="M130.62,-575.7C130.62,-567.22 130.62,-556.86 130.62,-547.58"/>
<polygon fill="black" stroke="black" points="132.73,-547.62 130.63,-541.62 128.53,-547.62 132.73,-547.62"/>
</g>
<!-- Missile_ECM_4 -->
<g id="node5" class="node">
<title>Missile_ECM_4</title>
<path fill="#fff3cd" stroke="black" d="M156.25,-468C156.25,-468 105,-468 105,-468 99,-468 93,-462 93,-456 93,-456 93,-444 93,-444 93,-438 99,-432 105,-432 105,-432 156.25,-432 156.25,-432 162.25,-432 168.25,-438 168.25,-444 168.25,-444 168.25,-456 168.25,-456 168.25,-462 162.25,-468 156.25,-468"/>
<text xml:space="preserve" text-anchor="middle" x="130.62" y="-451.2" font-family="Helvetica,sans-Serif" font-size="9.00">Missile ECM&#45;4</text>
<text xml:space="preserve" text-anchor="middle" x="130.62" y="-441.45" font-family="Helvetica,sans-Serif" font-size="9.00">20K RP</text>
</g>
<!-- Missile_ECM_3&#45;&gt;Missile_ECM_4 -->
<g id="edge3" class="edge">
<title>Missile_ECM_3&#45;&gt;Missile_ECM_4</title>
<path fill="none" stroke="black" d="M130.62,-503.7C130.62,-495.22 130.62,-484.86 130.62,-475.58"/>
<polygon fill="black" stroke="black" points="132.73,-475.62 130.63,-469.62 128.53,-475.62 132.73,-475.62"/>
</g>
<!-- Missile_ECM_5 -->
<g id="node6" class="node">
<title>Missile_ECM_5</title>
<path fill="#fff3cd" stroke="black" d="M156.25,-396C156.25,-396 105,-396 105,-396 99,-396 93,-390 93,-384 93,-384 93,-372 93,-372 93,-366 99,-360 105,-360 105,-360 156.25,-360 156.25,-360 162.25,-360 168.25,-366 168.25,-372 168.25,-372 168.25,-384 168.25,-384 168.25,-390 162.25,-396 156.25,-396"/>
<text xml:space="preserve" text-anchor="middle" x="130.62" y="-379.2" font-family="Helvetica,sans-Serif" font-size="9.00">Missile ECM&#45;5</text>
<text xml:space="preserve" text-anchor="middle" x="130.62" y="-369.45" font-family="Helvetica,sans-Serif" font-size="9.00">40K RP</text>
</g>
<!-- Missile_ECM_4&#45;&gt;Missile_ECM_5 -->
<g id="edge4" class="edge">
<title>Missile_ECM_4&#45;&gt;Missile_ECM_5</title>
<path fill="none" stroke="black" d="M130.62,-431.7C130.62,-423.22 130.62,-412.86 130.62,-403.58"/>
<polygon fill="black" stroke="black" points="132.73,-403.62 130.63,-397.62 128.53,-403.62 132.73,-403.62"/>
</g>
<!-- Missile_ECM_6 -->
<g id="node7" class="node">
<title>Missile_ECM_6</title>
<path fill="#fff3cd" stroke="black" d="M156.25,-324C156.25,-324 105,-324 105,-324 99,-324 93,-318 93,-312 93,-312 93,-300 93,-300 93,-294 99,-288 105,-288 105,-288 156.25,-288 156.25,-288 162.25,-288 168.25,-294 168.25,-300 168.25,-300 168.25,-312 168.25,-312 168.25,-318 162.25,-324 156.25,-324"/>
<text xml:space="preserve" text-anchor="middle" x="130.62" y="-307.2" font-family="Helvetica,sans-Serif" font-size="9.00">Missile ECM&#45;6</text>
<text xml:space="preserve" text-anchor="middle" x="130.62" y="-297.45" font-family="Helvetica,sans-Serif" font-size="9.00">80K RP</text>
</g>
<!-- Missile_ECM_5&#45;&gt;Missile_ECM_6 -->
<g id="edge5" class="edge">
<title>Missile_ECM_5&#45;&gt;Missile_ECM_6</title>
<path fill="none" stroke="black" d="M130.62,-359.7C130.62,-351.22 130.62,-340.86 130.62,-331.58"/>
<polygon fill="black" stroke="black" points="132.73,-331.62 130.63,-325.62 128.53,-331.62 132.73,-331.62"/>
</g>
<!-- Missile_ECM_7 -->
<g id="node8" class="node">
<title>Missile_ECM_7</title>
<path fill="#d4c4fb" stroke="black" d="M156.25,-252C156.25,-252 105,-252 105,-252 99,-252 93,-246 93,-240 93,-240 93,-228 93,-228 93,-222 99,-216 105,-216 105,-216 156.25,-216 156.25,-216 162.25,-216 168.25,-222 168.25,-228 168.25,-228 168.25,-240 168.25,-240 168.25,-246 162.25,-252 156.25,-252"/>
<text xml:space="preserve" text-anchor="middle" x="130.62" y="-235.2" font-family="Helvetica,sans-Serif" font-size="9.00">Missile ECM&#45;7</text>
<text xml:space="preserve" text-anchor="middle" x="130.62" y="-225.45" font-family="Helvetica,sans-Serif" font-size="9.00">150K RP</text>
</g>
<!-- Missile_ECM_6&#45;&gt;Missile_ECM_7 -->
<g id="edge6" class="edge">
<title>Missile_ECM_6&#45;&gt;Missile_ECM_7</title>
<path fill="none" stroke="black" d="M130.62,-287.7C130.62,-279.22 130.62,-268.86 130.62,-259.58"/>
<polygon fill="black" stroke="black" points="132.73,-259.62 130.63,-253.62 128.53,-259.62 132.73,-259.62"/>
</g>
<!-- Missile_ECM_8 -->
<g id="node9" class="node">
<title>Missile_ECM_8</title>
<path fill="#d4c4fb" stroke="black" d="M156.25,-180C156.25,-180 105,-180 105,-180 99,-180 93,-174 93,-168 93,-168 93,-156 93,-156 93,-150 99,-144 105,-144 105,-144 156.25,-144 156.25,-144 162.25,-144 168.25,-150 168.25,-156 168.25,-156 168.25,-168 168.25,-168 168.25,-174 162.25,-180 156.25,-180"/>
<text xml:space="preserve" text-anchor="middle" x="130.62" y="-163.2" font-family="Helvetica,sans-Serif" font-size="9.00">Missile ECM&#45;8</text>
<text xml:space="preserve" text-anchor="middle" x="130.62" y="-153.45" font-family="Helvetica,sans-Serif" font-size="9.00">300K RP</text>
</g>
<!-- Missile_ECM_7&#45;&gt;Missile_ECM_8 -->
<g id="edge7" class="edge">
<title>Missile_ECM_7&#45;&gt;Missile_ECM_8</title>
<path fill="none" stroke="black" d="M130.62,-215.7C130.62,-207.22 130.62,-196.86 130.62,-187.58"/>
<polygon fill="black" stroke="black" points="132.73,-187.62 130.63,-181.62 128.53,-187.62 132.73,-187.62"/>
</g>
<!-- Missile_ECM_9 -->
<g id="node10" class="node">
<title>Missile_ECM_9</title>
<path fill="#d4c4fb" stroke="black" d="M156.25,-108C156.25,-108 105,-108 105,-108 99,-108 93,-102 93,-96 93,-96 93,-84 93,-84 93,-78 99,-72 105,-72 105,-72 156.25,-72 156.25,-72 162.25,-72 168.25,-78 168.25,-84 168.25,-84 168.25,-96 168.25,-96 168.25,-102 162.25,-108 156.25,-108"/>
<text xml:space="preserve" text-anchor="middle" x="130.62" y="-91.2" font-family="Helvetica,sans-Serif" font-size="9.00">Missile ECM&#45;9</text>
<text xml:space="preserve" text-anchor="middle" x="130.62" y="-81.45" font-family="Helvetica,sans-Serif" font-size="9.00">600K RP</text>
</g>
<!-- Missile_ECM_8&#45;&gt;Missile_ECM_9 -->
<g id="edge8" class="edge">
<title>Missile_ECM_8&#45;&gt;Missile_ECM_9</title>
<path fill="none" stroke="black" d="M130.62,-143.7C130.62,-135.22 130.62,-124.86 130.62,-115.58"/>
<polygon fill="black" stroke="black" points="132.73,-115.62 130.63,-109.62 128.53,-115.62 132.73,-115.62"/>
</g>
<!-- Missile_ECM_10 -->
<g id="node11" class="node">
<title>Missile_ECM_10</title>
<path fill="#f8d7da" stroke="black" d="M158.88,-36C158.88,-36 102.38,-36 102.38,-36 96.38,-36 90.38,-30 90.38,-24 90.38,-24 90.38,-12 90.38,-12 90.38,-6 96.38,0 102.38,0 102.38,0 158.88,0 158.88,0 164.88,0 170.88,-6 170.88,-12 170.88,-12 170.88,-24 170.88,-24 170.88,-30 164.88,-36 158.88,-36"/>
<text xml:space="preserve" text-anchor="middle" x="130.62" y="-19.2" font-family="Helvetica,sans-Serif" font-size="9.00">Missile ECM&#45;10</text>
<text xml:space="preserve" text-anchor="middle" x="130.62" y="-9.45" font-family="Helvetica,sans-Serif" font-size="9.00">1.2M RP</text>
</g>
<!-- Missile_ECM_9&#45;&gt;Missile_ECM_10 -->
<g id="edge9" class="edge">
<title>Missile_ECM_9&#45;&gt;Missile_ECM_10</title>
<path fill="none" stroke="black" d="M130.62,-71.7C130.62,-63.22 130.62,-52.86 130.62,-43.58"/>
<polygon fill="black" stroke="black" points="132.73,-43.62 130.63,-37.62 128.53,-43.62 132.73,-43.62"/>
</g>
</g>
</svg>
