<?xml version="1.0" encoding="UTF-8" standalone="no"?>
<!DOCTYPE svg PUBLIC "-//W3C//DTD SVG 1.1//EN"
 "http://www.w3.org/Graphics/SVG/1.1/DTD/svg11.dtd">
<!-- Generated by graphviz version 14.1.2 (20260124.0452)
 -->
<!-- Title: TechTree Pages: 1 -->
<svg width="128pt" height="65pt"
 viewBox="0.00 0.00 128.00 65.00" xmlns="http://www.w3.org/2000/svg" xmlns:xlink="http://www.w3.org/1999/xlink">
<g id="graph0" class="graph" transform="scale(1 1) rotate(0) translate(4 60.75)">
<title>TechTree</title>
<polygon fill="white" stroke="none" points="-4,4 -4,-60.75 123.5,-60.75 123.5,4 -4,4"/>
<text xml:space="preserve" text-anchor="middle" x="59.75" y="-41.35" font-family="Helvetica,sans-Serif" font-weight="bold" font-size="12.00">Mobile Repair Bay</text>
<!-- Mobile_Repair_Bay -->
<g id="node1" class="node">
<title>Mobile_Repair_Bay</title>
<path fill="#cce5ff" stroke="black" d="M93.62,-36C93.62,-36 25.87,-36 25.87,-36 19.87,-36 13.88,-30 13.88,-24 13.88,-24 13.88,-12 13.88,-12 13.88,-6 19.88,0 25.88,0 25.88,0 93.62,0 93.62,0 99.62,0 105.62,-6 105.62,-12 105.62,-12 105.62,-24 105.62,-24 105.62,-30 99.62,-36 93.62,-36"/>
<text xml:space="preserve" text-anchor="middle" x="59.75" y="-19.2" font-family="Helvetica,sans-Serif" font-size="9.00">Mobile Repair Bay</text>
<text xml:space="preserve" text-anchor="middle" x="59.75" y="-9.45" font-family="Helvetica,sans-Serif" font-size="9.00">5K RP</text>
</g>
</g>
</svg>
