<?xml version="1.0" encoding="UTF-8" standalone="no"?>
<!DOCTYPE svg PUBLIC "-//W3C//DTD SVG 1.1//EN"
 "http://www.w3.org/Graphics/SVG/1.1/DTD/svg11.dtd">
<!-- Generated by graphviz version 14.1.2 (20260124.0452)
 -->
<!-- Title: TechTree Pages: 1 -->
<svg width="142pt" height="67pt"
 viewBox="0.00 0.00 142.00 67.00" xmlns="http://www.w3.org/2000/svg" xmlns:xlink="http://www.w3.org/1999/xlink">
<g id="graph0" class="graph" transform="scale(1 1) rotate(0) translate(4 63)">
<title>TechTree</title>
<polygon fill="white" stroke="none" points="-4,4 -4,-63 137.75,-63 137.75,4 -4,4"/>
<text xml:space="preserve" text-anchor="middle" x="66.88" y="-41.7" font-family="Helvetica,sans-Serif" font-weight="bold" font-size="14.00">Mobile Repair Bay</text>
<!-- Mobile_Repair_Bay -->
<g id="node1" class="node">
<title>Mobile_Repair_Bay</title>
<path fill="#cce5ff" stroke="black" d="M103,-36C103,-36 30.75,-36 30.75,-36 24.75,-36 18.75,-30 18.75,-24 18.75,-24 18.75,-12 18.75,-12 18.75,-6 24.75,0 30.75,0 30.75,0 103,0 103,0 109,0 115,-6 115,-12 115,-12 115,-24 115,-24 115,-30 109,-36 103,-36"/>
<text xml:space="preserve" text-anchor="middle" x="66.88" y="-19.75" font-family="Helvetica,sans-Serif" font-size="10.00">Mobile Repair Bay</text>
<text xml:space="preserve" text-anchor="middle" x="66.88" y="-8.5" font-family="Helvetica,sans-Serif" font-size="10.00">5K RP</text>
</g>
</g>
</svg>
