<?xml version="1.0" encoding="UTF-8" standalone="no"?>
<!DOCTYPE svg PUBLIC "-//W3C//DTD SVG 1.1//EN"
 "http://www.w3.org/Graphics/SVG/1.1/DTD/svg11.dtd">
<!-- Generated by graphviz version 14.1.2 (20260124.0452)
 -->
<!-- Title: TechTree Pages: 1 -->
<svg width="185pt" height="713pt"
 viewBox="0.00 0.00 185.00 713.00" xmlns="http://www.w3.org/2000/svg" xmlns:xlink="http://www.w3.org/1999/xlink">
<g id="graph0" class="graph" transform="scale(1 1) rotate(0) translate(4 708.75)">
<title>TechTree</title>
<polygon fill="white" stroke="none" points="-4,4 -4,-708.75 181.25,-708.75 181.25,4 -4,4"/>
<text xml:space="preserve" text-anchor="middle" x="88.62" y="-689.35" font-family="Helvetica,sans-Serif" font-weight="bold" font-size="12.00">MSP Production Rate</text>
<!-- Maintenance_Production_Rate_20 -->
<g id="node1" class="node">
<title>Maintenance_Production_Rate_20</title>
<path fill="#cce5ff" stroke="black" d="M162.62,-684C162.62,-684 14.63,-684 14.63,-684 8.62,-684 2.62,-678 2.62,-672 2.62,-672 2.62,-660 2.62,-660 2.62,-654 8.62,-648 14.62,-648 14.62,-648 162.62,-648 162.62,-648 168.62,-648 174.62,-654 174.62,-660 174.62,-660 174.62,-672 174.62,-672 174.62,-678 168.62,-684 162.62,-684"/>
<text xml:space="preserve" text-anchor="middle" x="88.62" y="-667.2" font-family="Helvetica,sans-Serif" font-size="9.00">Maintenance Production Rate 20 MSP</text>
<text xml:space="preserve" text-anchor="middle" x="88.62" y="-657.45" font-family="Helvetica,sans-Serif" font-size="9.00">3K RP</text>
</g>
<!-- Maintenance_Production_Rate_24 -->
<g id="node2" class="node">
<title>Maintenance_Production_Rate_24</title>
<path fill="#cce5ff" stroke="black" d="M162.62,-612C162.62,-612 14.63,-612 14.63,-612 8.62,-612 2.62,-606 2.62,-600 2.62,-600 2.62,-588 2.62,-588 2.62,-582 8.62,-576 14.62,-576 14.62,-576 162.62,-576 162.62,-576 168.62,-576 174.62,-582 174.62,-588 174.62,-588 174.62,-600 174.62,-600 174.62,-606 168.62,-612 162.62,-612"/>
<text xml:space="preserve" text-anchor="middle" x="88.62" y="-595.2" font-family="Helvetica,sans-Serif" font-size="9.00">Maintenance Production Rate 24 MSP</text>
<text xml:space="preserve" text-anchor="middle" x="88.62" y="-585.45" font-family="Helvetica,sans-Serif" font-size="9.00">5K RP</text>
</g>
<!-- Maintenance_Production_Rate_20&#45;&gt;Maintenance_Production_Rate_24 -->
<g id="edge1" class="edge">
<title>Maintenance_Production_Rate_20&#45;&gt;Maintenance_Production_Rate_24</title>
<path fill="none" stroke="black" d="M88.62,-647.7C88.62,-639.22 88.62,-628.86 88.62,-619.58"/>
<polygon fill="black" stroke="black" points="90.73,-619.62 88.63,-613.62 86.53,-619.62 90.73,-619.62"/>
</g>
<!-- Maintenance_Production_Rate_30 -->
<g id="node3" class="node">
<title>Maintenance_Production_Rate_30</title>
<path fill="#cce5ff" stroke="black" d="M162.62,-540C162.62,-540 14.63,-540 14.63,-540 8.62,-540 2.62,-534 2.62,-528 2.62,-528 2.62,-516 2.62,-516 2.62,-510 8.62,-504 14.62,-504 14.62,-504 162.62,-504 162.62,-504 168.62,-504 174.62,-510 174.62,-516 174.62,-516 174.62,-528 174.62,-528 174.62,-534 168.62,-540 162.62,-540"/>
<text xml:space="preserve" text-anchor="middle" x="88.62" y="-523.2" font-family="Helvetica,sans-Serif" font-size="9.00">Maintenance Production Rate 30 MSP</text>
<text xml:space="preserve" text-anchor="middle" x="88.62" y="-513.45" font-family="Helvetica,sans-Serif" font-size="9.00">10K RP</text>
</g>
<!-- Maintenance_Production_Rate_24&#45;&gt;Maintenance_Production_Rate_30 -->
<g id="edge2" class="edge">
<title>Maintenance_Production_Rate_24&#45;&gt;Maintenance_Production_Rate_30</title>
<path fill="none" stroke="black" d="M88.62,-575.7C88.62,-567.22 88.62,-556.86 88.62,-547.58"/>
<polygon fill="black" stroke="black" points="90.73,-547.62 88.63,-541.62 86.53,-547.62 90.73,-547.62"/>
</g>
<!-- Maintenance_Production_Rate_36 -->
<g id="node4" class="node">
<title>Maintenance_Production_Rate_36</title>
<path fill="#fff3cd" stroke="black" d="M162.62,-468C162.62,-468 14.63,-468 14.63,-468 8.62,-468 2.62,-462 2.62,-456 2.62,-456 2.62,-444 2.62,-444 2.62,-438 8.62,-432 14.62,-432 14.62,-432 162.62,-432 162.62,-432 168.62,-432 174.62,-438 174.62,-444 174.62,-444 174.62,-456 174.62,-456 174.62,-462 168.62,-468 162.62,-468"/>
<text xml:space="preserve" text-anchor="middle" x="88.62" y="-451.2" font-family="Helvetica,sans-Serif" font-size="9.00">Maintenance Production Rate 36 MSP</text>
<text xml:space="preserve" text-anchor="middle" x="88.62" y="-441.45" font-family="Helvetica,sans-Serif" font-size="9.00">20K RP</text>
</g>
<!-- Maintenance_Production_Rate_30&#45;&gt;Maintenance_Production_Rate_36 -->
<g id="edge3" class="edge">
<title>Maintenance_Production_Rate_30&#45;&gt;Maintenance_Production_Rate_36</title>
<path fill="none" stroke="black" d="M88.62,-503.7C88.62,-495.22 88.62,-484.86 88.62,-475.58"/>
<polygon fill="black" stroke="black" points="90.73,-475.62 88.63,-469.62 86.53,-475.62 90.73,-475.62"/>
</g>
<!-- Maintenance_Production_Rate_42 -->
<g id="node5" class="node">
<title>Maintenance_Production_Rate_42</title>
<path fill="#fff3cd" stroke="black" d="M162.62,-396C162.62,-396 14.63,-396 14.63,-396 8.62,-396 2.62,-390 2.62,-384 2.62,-384 2.62,-372 2.62,-372 2.62,-366 8.62,-360 14.62,-360 14.62,-360 162.62,-360 162.62,-360 168.62,-360 174.62,-366 174.62,-372 174.62,-372 174.62,-384 174.62,-384 174.62,-390 168.62,-396 162.62,-396"/>
<text xml:space="preserve" text-anchor="middle" x="88.62" y="-379.2" font-family="Helvetica,sans-Serif" font-size="9.00">Maintenance Production Rate 42 MSP</text>
<text xml:space="preserve" text-anchor="middle" x="88.62" y="-369.45" font-family="Helvetica,sans-Serif" font-size="9.00">40K RP</text>
</g>
<!-- Maintenance_Production_Rate_36&#45;&gt;Maintenance_Production_Rate_42 -->
<g id="edge4" class="edge">
<title>Maintenance_Production_Rate_36&#45;&gt;Maintenance_Production_Rate_42</title>
<path fill="none" stroke="black" d="M88.62,-431.7C88.62,-423.22 88.62,-412.86 88.62,-403.58"/>
<polygon fill="black" stroke="black" points="90.73,-403.62 88.63,-397.62 86.53,-403.62 90.73,-403.62"/>
</g>
<!-- Maintenance_Production_Rate_50 -->
<g id="node6" class="node">
<title>Maintenance_Production_Rate_50</title>
<path fill="#fff3cd" stroke="black" d="M162.62,-324C162.62,-324 14.63,-324 14.63,-324 8.62,-324 2.62,-318 2.62,-312 2.62,-312 2.62,-300 2.62,-300 2.62,-294 8.62,-288 14.62,-288 14.62,-288 162.62,-288 162.62,-288 168.62,-288 174.62,-294 174.62,-300 174.62,-300 174.62,-312 174.62,-312 174.62,-318 168.62,-324 162.62,-324"/>
<text xml:space="preserve" text-anchor="middle" x="88.62" y="-307.2" font-family="Helvetica,sans-Serif" font-size="9.00">Maintenance Production Rate 50 MSP</text>
<text xml:space="preserve" text-anchor="middle" x="88.62" y="-297.45" font-family="Helvetica,sans-Serif" font-size="9.00">80K RP</text>
</g>
<!-- Maintenance_Production_Rate_42&#45;&gt;Maintenance_Production_Rate_50 -->
<g id="edge5" class="edge">
<title>Maintenance_Production_Rate_42&#45;&gt;Maintenance_Production_Rate_50</title>
<path fill="none" stroke="black" d="M88.62,-359.7C88.62,-351.22 88.62,-340.86 88.62,-331.58"/>
<polygon fill="black" stroke="black" points="90.73,-331.62 88.63,-325.62 86.53,-331.62 90.73,-331.62"/>
</g>
<!-- Maintenance_Production_Rate_60 -->
<g id="node7" class="node">
<title>Maintenance_Production_Rate_60</title>
<path fill="#d4c4fb" stroke="black" d="M162.62,-252C162.62,-252 14.63,-252 14.63,-252 8.62,-252 2.62,-246 2.62,-240 2.62,-240 2.62,-228 2.62,-228 2.62,-222 8.62,-216 14.62,-216 14.62,-216 162.62,-216 162.62,-216 168.62,-216 174.62,-222 174.62,-228 174.62,-228 174.62,-240 174.62,-240 174.62,-246 168.62,-252 162.62,-252"/>
<text xml:space="preserve" text-anchor="middle" x="88.62" y="-235.2" font-family="Helvetica,sans-Serif" font-size="9.00">Maintenance Production Rate 60 MSP</text>
<text xml:space="preserve" text-anchor="middle" x="88.62" y="-225.45" font-family="Helvetica,sans-Serif" font-size="9.00">150K RP</text>
</g>
<!-- Maintenance_Production_Rate_50&#45;&gt;Maintenance_Production_Rate_60 -->
<g id="edge6" class="edge">
<title>Maintenance_Production_Rate_50&#45;&gt;Maintenance_Production_Rate_60</title>
<path fill="none" stroke="black" d="M88.62,-287.7C88.62,-279.22 88.62,-268.86 88.62,-259.58"/>
<polygon fill="black" stroke="black" points="90.73,-259.62 88.63,-253.62 86.53,-259.62 90.73,-259.62"/>
</g>
<!-- Maintenance_Production_Rate_72 -->
<g id="node8" class="node">
<title>Maintenance_Production_Rate_72</title>
<path fill="#d4c4fb" stroke="black" d="M162.62,-180C162.62,-180 14.63,-180 14.63,-180 8.62,-180 2.62,-174 2.62,-168 2.62,-168 2.62,-156 2.62,-156 2.62,-150 8.62,-144 14.62,-144 14.62,-144 162.62,-144 162.62,-144 168.62,-144 174.62,-150 174.62,-156 174.62,-156 174.62,-168 174.62,-168 174.62,-174 168.62,-180 162.62,-180"/>
<text xml:space="preserve" text-anchor="middle" x="88.62" y="-163.2" font-family="Helvetica,sans-Serif" font-size="9.00">Maintenance Production Rate 72 MSP</text>
<text xml:space="preserve" text-anchor="middle" x="88.62" y="-153.45" font-family="Helvetica,sans-Serif" font-size="9.00">300K RP</text>
</g>
<!-- Maintenance_Production_Rate_60&#45;&gt;Maintenance_Production_Rate_72 -->
<g id="edge7" class="edge">
<title>Maintenance_Production_Rate_60&#45;&gt;Maintenance_Production_Rate_72</title>
<path fill="none" stroke="black" d="M88.62,-215.7C88.62,-207.22 88.62,-196.86 88.62,-187.58"/>
<polygon fill="black" stroke="black" points="90.73,-187.62 88.63,-181.62 86.53,-187.62 90.73,-187.62"/>
</g>
<!-- Maintenance_Production_Rate_85 -->
<g id="node9" class="node">
<title>Maintenance_Production_Rate_85</title>
<path fill="#d4c4fb" stroke="black" d="M162.62,-108C162.62,-108 14.63,-108 14.63,-108 8.62,-108 2.62,-102 2.62,-96 2.62,-96 2.62,-84 2.62,-84 2.62,-78 8.62,-72 14.62,-72 14.62,-72 162.62,-72 162.62,-72 168.62,-72 174.62,-78 174.62,-84 174.62,-84 174.62,-96 174.62,-96 174.62,-102 168.62,-108 162.62,-108"/>
<text xml:space="preserve" text-anchor="middle" x="88.62" y="-91.2" font-family="Helvetica,sans-Serif" font-size="9.00">Maintenance Production Rate 85 MSP</text>
<text xml:space="preserve" text-anchor="middle" x="88.62" y="-81.45" font-family="Helvetica,sans-Serif" font-size="9.00">600K RP</text>
</g>
<!-- Maintenance_Production_Rate_72&#45;&gt;Maintenance_Production_Rate_85 -->
<g id="edge8" class="edge">
<title>Maintenance_Production_Rate_72&#45;&gt;Maintenance_Production_Rate_85</title>
<path fill="none" stroke="black" d="M88.62,-143.7C88.62,-135.22 88.62,-124.86 88.62,-115.58"/>
<polygon fill="black" stroke="black" points="90.73,-115.62 88.63,-109.62 86.53,-115.62 90.73,-115.62"/>
</g>
<!-- Maintenance_Production_Rate_10 -->
<g id="node10" class="node">
<title>Maintenance_Production_Rate_10</title>
<path fill="#f8d7da" stroke="black" d="M165.25,-36C165.25,-36 12,-36 12,-36 6,-36 0,-30 0,-24 0,-24 0,-12 0,-12 0,-6 6,0 12,0 12,0 165.25,0 165.25,0 171.25,0 177.25,-6 177.25,-12 177.25,-12 177.25,-24 177.25,-24 177.25,-30 171.25,-36 165.25,-36"/>
<text xml:space="preserve" text-anchor="middle" x="88.62" y="-19.2" font-family="Helvetica,sans-Serif" font-size="9.00">Maintenance Production Rate 100 MSP</text>
<text xml:space="preserve" text-anchor="middle" x="88.62" y="-9.45" font-family="Helvetica,sans-Serif" font-size="9.00">1.2M RP</text>
</g>
<!-- Maintenance_Production_Rate_85&#45;&gt;Maintenance_Production_Rate_10 -->
<g id="edge9" class="edge">
<title>Maintenance_Production_Rate_85&#45;&gt;Maintenance_Production_Rate_10</title>
<path fill="none" stroke="black" d="M88.62,-71.7C88.62,-63.22 88.62,-52.86 88.62,-43.58"/>
<polygon fill="black" stroke="black" points="90.73,-43.62 88.63,-37.62 86.53,-43.62 90.73,-43.62"/>
</g>
</g>
</svg>
