<?xml version="1.0" encoding="UTF-8" standalone="no"?>
<!DOCTYPE svg PUBLIC "-//W3C//DTD SVG 1.1//EN"
 "http://www.w3.org/Graphics/SVG/1.1/DTD/svg11.dtd">
<!-- Generated by graphviz version 14.1.2 (20260124.0452)
 -->
<!-- Title: TechTree Pages: 1 -->
<svg width="197pt" height="652pt"
 viewBox="0.00 0.00 197.00 652.00" xmlns="http://www.w3.org/2000/svg" xmlns:xlink="http://www.w3.org/1999/xlink">
<g id="graph0" class="graph" transform="scale(1 1) rotate(0) translate(4 648)">
<title>TechTree</title>
<polygon fill="white" stroke="none" points="-4,4 -4,-648 192.5,-648 192.5,4 -4,4"/>
<text xml:space="preserve" text-anchor="middle" x="94.25" y="-626.7" font-family="Helvetica,sans-Serif" font-weight="bold" font-size="14.00">MSP Production Rate</text>
<!-- Maintenance_Production_Rate_20 -->
<g id="node1" class="node">
<title>Maintenance_Production_Rate_20</title>
<path fill="#cce5ff" stroke="black" d="M173.88,-621C173.88,-621 14.62,-621 14.62,-621 8.62,-621 2.62,-615 2.62,-609 2.62,-609 2.62,-597 2.62,-597 2.62,-591 8.62,-585 14.62,-585 14.62,-585 173.88,-585 173.88,-585 179.88,-585 185.88,-591 185.88,-597 185.88,-597 185.88,-609 185.88,-609 185.88,-615 179.88,-621 173.88,-621"/>
<text xml:space="preserve" text-anchor="middle" x="94.25" y="-604.75" font-family="Helvetica,sans-Serif" font-size="10.00">Maintenance Production Rate 20 MSP</text>
<text xml:space="preserve" text-anchor="middle" x="94.25" y="-593.5" font-family="Helvetica,sans-Serif" font-size="10.00">3K RP</text>
</g>
<!-- Maintenance_Production_Rate_24 -->
<g id="node2" class="node">
<title>Maintenance_Production_Rate_24</title>
<path fill="#cce5ff" stroke="black" d="M173.88,-556C173.88,-556 14.62,-556 14.62,-556 8.62,-556 2.62,-550 2.62,-544 2.62,-544 2.62,-532 2.62,-532 2.62,-526 8.62,-520 14.62,-520 14.62,-520 173.88,-520 173.88,-520 179.88,-520 185.88,-526 185.88,-532 185.88,-532 185.88,-544 185.88,-544 185.88,-550 179.88,-556 173.88,-556"/>
<text xml:space="preserve" text-anchor="middle" x="94.25" y="-539.75" font-family="Helvetica,sans-Serif" font-size="10.00">Maintenance Production Rate 24 MSP</text>
<text xml:space="preserve" text-anchor="middle" x="94.25" y="-528.5" font-family="Helvetica,sans-Serif" font-size="10.00">5K RP</text>
</g>
<!-- Maintenance_Production_Rate_20&#45;&gt;Maintenance_Production_Rate_24 -->
<g id="edge1" class="edge">
<title>Maintenance_Production_Rate_20&#45;&gt;Maintenance_Production_Rate_24</title>
<path fill="none" stroke="black" d="M94.25,-584.78C94.25,-578.53 94.25,-571.33 94.25,-564.52"/>
<polygon fill="black" stroke="black" points="96.7,-564.71 94.25,-557.71 91.8,-564.71 96.7,-564.71"/>
</g>
<!-- Maintenance_Production_Rate_30 -->
<g id="node3" class="node">
<title>Maintenance_Production_Rate_30</title>
<path fill="#cce5ff" stroke="black" d="M173.88,-491C173.88,-491 14.62,-491 14.62,-491 8.62,-491 2.62,-485 2.62,-479 2.62,-479 2.62,-467 2.62,-467 2.62,-461 8.62,-455 14.62,-455 14.62,-455 173.88,-455 173.88,-455 179.88,-455 185.88,-461 185.88,-467 185.88,-467 185.88,-479 185.88,-479 185.88,-485 179.88,-491 173.88,-491"/>
<text xml:space="preserve" text-anchor="middle" x="94.25" y="-474.75" font-family="Helvetica,sans-Serif" font-size="10.00">Maintenance Production Rate 30 MSP</text>
<text xml:space="preserve" text-anchor="middle" x="94.25" y="-463.5" font-family="Helvetica,sans-Serif" font-size="10.00">10K RP</text>
</g>
<!-- Maintenance_Production_Rate_24&#45;&gt;Maintenance_Production_Rate_30 -->
<g id="edge2" class="edge">
<title>Maintenance_Production_Rate_24&#45;&gt;Maintenance_Production_Rate_30</title>
<path fill="none" stroke="black" d="M94.25,-519.78C94.25,-513.53 94.25,-506.33 94.25,-499.52"/>
<polygon fill="black" stroke="black" points="96.7,-499.71 94.25,-492.71 91.8,-499.71 96.7,-499.71"/>
</g>
<!-- Maintenance_Production_Rate_36 -->
<g id="node4" class="node">
<title>Maintenance_Production_Rate_36</title>
<path fill="#fff3cd" stroke="black" d="M173.88,-426C173.88,-426 14.62,-426 14.62,-426 8.62,-426 2.62,-420 2.62,-414 2.62,-414 2.62,-402 2.62,-402 2.62,-396 8.62,-390 14.62,-390 14.62,-390 173.88,-390 173.88,-390 179.88,-390 185.88,-396 185.88,-402 185.88,-402 185.88,-414 185.88,-414 185.88,-420 179.88,-426 173.88,-426"/>
<text xml:space="preserve" text-anchor="middle" x="94.25" y="-409.75" font-family="Helvetica,sans-Serif" font-size="10.00">Maintenance Production Rate 36 MSP</text>
<text xml:space="preserve" text-anchor="middle" x="94.25" y="-398.5" font-family="Helvetica,sans-Serif" font-size="10.00">20K RP</text>
</g>
<!-- Maintenance_Production_Rate_30&#45;&gt;Maintenance_Production_Rate_36 -->
<g id="edge3" class="edge">
<title>Maintenance_Production_Rate_30&#45;&gt;Maintenance_Production_Rate_36</title>
<path fill="none" stroke="black" d="M94.25,-454.78C94.25,-448.53 94.25,-441.33 94.25,-434.52"/>
<polygon fill="black" stroke="black" points="96.7,-434.71 94.25,-427.71 91.8,-434.71 96.7,-434.71"/>
</g>
<!-- Maintenance_Production_Rate_42 -->
<g id="node5" class="node">
<title>Maintenance_Production_Rate_42</title>
<path fill="#fff3cd" stroke="black" d="M173.88,-361C173.88,-361 14.62,-361 14.62,-361 8.62,-361 2.62,-355 2.62,-349 2.62,-349 2.62,-337 2.62,-337 2.62,-331 8.62,-325 14.62,-325 14.62,-325 173.88,-325 173.88,-325 179.88,-325 185.88,-331 185.88,-337 185.88,-337 185.88,-349 185.88,-349 185.88,-355 179.88,-361 173.88,-361"/>
<text xml:space="preserve" text-anchor="middle" x="94.25" y="-344.75" font-family="Helvetica,sans-Serif" font-size="10.00">Maintenance Production Rate 42 MSP</text>
<text xml:space="preserve" text-anchor="middle" x="94.25" y="-333.5" font-family="Helvetica,sans-Serif" font-size="10.00">40K RP</text>
</g>
<!-- Maintenance_Production_Rate_36&#45;&gt;Maintenance_Production_Rate_42 -->
<g id="edge4" class="edge">
<title>Maintenance_Production_Rate_36&#45;&gt;Maintenance_Production_Rate_42</title>
<path fill="none" stroke="black" d="M94.25,-389.78C94.25,-383.53 94.25,-376.33 94.25,-369.52"/>
<polygon fill="black" stroke="black" points="96.7,-369.71 94.25,-362.71 91.8,-369.71 96.7,-369.71"/>
</g>
<!-- Maintenance_Production_Rate_50 -->
<g id="node6" class="node">
<title>Maintenance_Production_Rate_50</title>
<path fill="#fff3cd" stroke="black" d="M173.88,-296C173.88,-296 14.62,-296 14.62,-296 8.62,-296 2.62,-290 2.62,-284 2.62,-284 2.62,-272 2.62,-272 2.62,-266 8.62,-260 14.62,-260 14.62,-260 173.88,-260 173.88,-260 179.88,-260 185.88,-266 185.88,-272 185.88,-272 185.88,-284 185.88,-284 185.88,-290 179.88,-296 173.88,-296"/>
<text xml:space="preserve" text-anchor="middle" x="94.25" y="-279.75" font-family="Helvetica,sans-Serif" font-size="10.00">Maintenance Production Rate 50 MSP</text>
<text xml:space="preserve" text-anchor="middle" x="94.25" y="-268.5" font-family="Helvetica,sans-Serif" font-size="10.00">80K RP</text>
</g>
<!-- Maintenance_Production_Rate_42&#45;&gt;Maintenance_Production_Rate_50 -->
<g id="edge5" class="edge">
<title>Maintenance_Production_Rate_42&#45;&gt;Maintenance_Production_Rate_50</title>
<path fill="none" stroke="black" d="M94.25,-324.78C94.25,-318.53 94.25,-311.33 94.25,-304.52"/>
<polygon fill="black" stroke="black" points="96.7,-304.71 94.25,-297.71 91.8,-304.71 96.7,-304.71"/>
</g>
<!-- Maintenance_Production_Rate_60 -->
<g id="node7" class="node">
<title>Maintenance_Production_Rate_60</title>
<path fill="#d4c4fb" stroke="black" d="M173.88,-231C173.88,-231 14.62,-231 14.62,-231 8.62,-231 2.62,-225 2.62,-219 2.62,-219 2.62,-207 2.62,-207 2.62,-201 8.62,-195 14.62,-195 14.62,-195 173.88,-195 173.88,-195 179.88,-195 185.88,-201 185.88,-207 185.88,-207 185.88,-219 185.88,-219 185.88,-225 179.88,-231 173.88,-231"/>
<text xml:space="preserve" text-anchor="middle" x="94.25" y="-214.75" font-family="Helvetica,sans-Serif" font-size="10.00">Maintenance Production Rate 60 MSP</text>
<text xml:space="preserve" text-anchor="middle" x="94.25" y="-203.5" font-family="Helvetica,sans-Serif" font-size="10.00">150K RP</text>
</g>
<!-- Maintenance_Production_Rate_50&#45;&gt;Maintenance_Production_Rate_60 -->
<g id="edge6" class="edge">
<title>Maintenance_Production_Rate_50&#45;&gt;Maintenance_Production_Rate_60</title>
<path fill="none" stroke="black" d="M94.25,-259.78C94.25,-253.53 94.25,-246.33 94.25,-239.52"/>
<polygon fill="black" stroke="black" points="96.7,-239.71 94.25,-232.71 91.8,-239.71 96.7,-239.71"/>
</g>
<!-- Maintenance_Production_Rate_72 -->
<g id="node8" class="node">
<title>Maintenance_Production_Rate_72</title>
<path fill="#d4c4fb" stroke="black" d="M173.88,-166C173.88,-166 14.62,-166 14.62,-166 8.62,-166 2.62,-160 2.62,-154 2.62,-154 2.62,-142 2.62,-142 2.62,-136 8.62,-130 14.62,-130 14.62,-130 173.88,-130 173.88,-130 179.88,-130 185.88,-136 185.88,-142 185.88,-142 185.88,-154 185.88,-154 185.88,-160 179.88,-166 173.88,-166"/>
<text xml:space="preserve" text-anchor="middle" x="94.25" y="-149.75" font-family="Helvetica,sans-Serif" font-size="10.00">Maintenance Production Rate 72 MSP</text>
<text xml:space="preserve" text-anchor="middle" x="94.25" y="-138.5" font-family="Helvetica,sans-Serif" font-size="10.00">300K RP</text>
</g>
<!-- Maintenance_Production_Rate_60&#45;&gt;Maintenance_Production_Rate_72 -->
<g id="edge7" class="edge">
<title>Maintenance_Production_Rate_60&#45;&gt;Maintenance_Production_Rate_72</title>
<path fill="none" stroke="black" d="M94.25,-194.78C94.25,-188.53 94.25,-181.33 94.25,-174.52"/>
<polygon fill="black" stroke="black" points="96.7,-174.71 94.25,-167.71 91.8,-174.71 96.7,-174.71"/>
</g>
<!-- Maintenance_Production_Rate_85 -->
<g id="node9" class="node">
<title>Maintenance_Production_Rate_85</title>
<path fill="#d4c4fb" stroke="black" d="M173.88,-101C173.88,-101 14.62,-101 14.62,-101 8.62,-101 2.62,-95 2.62,-89 2.62,-89 2.62,-77 2.62,-77 2.62,-71 8.62,-65 14.62,-65 14.62,-65 173.88,-65 173.88,-65 179.88,-65 185.88,-71 185.88,-77 185.88,-77 185.88,-89 185.88,-89 185.88,-95 179.88,-101 173.88,-101"/>
<text xml:space="preserve" text-anchor="middle" x="94.25" y="-84.75" font-family="Helvetica,sans-Serif" font-size="10.00">Maintenance Production Rate 85 MSP</text>
<text xml:space="preserve" text-anchor="middle" x="94.25" y="-73.5" font-family="Helvetica,sans-Serif" font-size="10.00">600K RP</text>
</g>
<!-- Maintenance_Production_Rate_72&#45;&gt;Maintenance_Production_Rate_85 -->
<g id="edge8" class="edge">
<title>Maintenance_Production_Rate_72&#45;&gt;Maintenance_Production_Rate_85</title>
<path fill="none" stroke="black" d="M94.25,-129.78C94.25,-123.53 94.25,-116.33 94.25,-109.52"/>
<polygon fill="black" stroke="black" points="96.7,-109.71 94.25,-102.71 91.8,-109.71 96.7,-109.71"/>
</g>
<!-- Maintenance_Production_Rate_10 -->
<g id="node10" class="node">
<title>Maintenance_Production_Rate_10</title>
<path fill="#f8d7da" stroke="black" d="M176.5,-36C176.5,-36 12,-36 12,-36 6,-36 0,-30 0,-24 0,-24 0,-12 0,-12 0,-6 6,0 12,0 12,0 176.5,0 176.5,0 182.5,0 188.5,-6 188.5,-12 188.5,-12 188.5,-24 188.5,-24 188.5,-30 182.5,-36 176.5,-36"/>
<text xml:space="preserve" text-anchor="middle" x="94.25" y="-19.75" font-family="Helvetica,sans-Serif" font-size="10.00">Maintenance Production Rate 100 MSP</text>
<text xml:space="preserve" text-anchor="middle" x="94.25" y="-8.5" font-family="Helvetica,sans-Serif" font-size="10.00">1.2M RP</text>
</g>
<!-- Maintenance_Production_Rate_85&#45;&gt;Maintenance_Production_Rate_10 -->
<g id="edge9" class="edge">
<title>Maintenance_Production_Rate_85&#45;&gt;Maintenance_Production_Rate_10</title>
<path fill="none" stroke="black" d="M94.25,-64.78C94.25,-58.53 94.25,-51.33 94.25,-44.52"/>
<polygon fill="black" stroke="black" points="96.7,-44.71 94.25,-37.71 91.8,-44.71 96.7,-44.71"/>
</g>
</g>
</svg>
