<?xml version="1.0" encoding="UTF-8" standalone="no"?>
<!DOCTYPE svg PUBLIC "-//W3C//DTD SVG 1.1//EN"
 "http://www.w3.org/Graphics/SVG/1.1/DTD/svg11.dtd">
<!-- Generated by graphviz version 14.1.2 (20260124.0452)
 -->
<!-- Title: TechTree Pages: 1 -->
<svg width="220pt" height="65pt"
 viewBox="0.00 0.00 220.00 65.00" xmlns="http://www.w3.org/2000/svg" xmlns:xlink="http://www.w3.org/1999/xlink">
<g id="graph0" class="graph" transform="scale(1 1) rotate(0) translate(4 60.75)">
<title>TechTree</title>
<polygon fill="white" stroke="none" points="-4,4 -4,-60.75 216,-60.75 216,4 -4,4"/>
<text xml:space="preserve" text-anchor="middle" x="106" y="-41.35" font-family="Helvetica,sans-Serif" font-weight="bold" font-size="12.00">Multiple Warheads</text>
<!-- Single_Warhead_Only -->
<g id="node1" class="node">
<title>Single_Warhead_Only</title>
<path fill="#d4edda" stroke="black" d="M90.25,-36C90.25,-36 12,-36 12,-36 6,-36 0,-30 0,-24 0,-24 0,-12 0,-12 0,-6 6,0 12,0 12,0 90.25,0 90.25,0 96.25,0 102.25,-6 102.25,-12 102.25,-12 102.25,-24 102.25,-24 102.25,-30 96.25,-36 90.25,-36"/>
<text xml:space="preserve" text-anchor="middle" x="51.12" y="-19.2" font-family="Helvetica,sans-Serif" font-size="9.00">Single Warhead Only</text>
<text xml:space="preserve" text-anchor="middle" x="51.12" y="-9.45" font-family="Helvetica,sans-Serif" font-size="9.00">1 RP</text>
</g>
<!-- Multiple_Warheads -->
<g id="node2" class="node">
<title>Multiple_Warheads</title>
<path fill="#cce5ff" stroke="black" d="M200,-36C200,-36 132.25,-36 132.25,-36 126.25,-36 120.25,-30 120.25,-24 120.25,-24 120.25,-12 120.25,-12 120.25,-6 126.25,0 132.25,0 132.25,0 200,0 200,0 206,0 212,-6 212,-12 212,-12 212,-24 212,-24 212,-30 206,-36 200,-36"/>
<text xml:space="preserve" text-anchor="middle" x="166.12" y="-19.2" font-family="Helvetica,sans-Serif" font-size="9.00">Multiple Warheads</text>
<text xml:space="preserve" text-anchor="middle" x="166.12" y="-9.45" font-family="Helvetica,sans-Serif" font-size="9.00">5K RP</text>
</g>
</g>
</svg>
