<?xml version="1.0" encoding="UTF-8" standalone="no"?>
<!DOCTYPE svg PUBLIC "-//W3C//DTD SVG 1.1//EN"
 "http://www.w3.org/Graphics/SVG/1.1/DTD/svg11.dtd">
<!-- Generated by graphviz version 14.1.2 (20260124.0452)
 -->
<!-- Title: TechTree Pages: 1 -->
<svg width="144pt" height="125pt"
 viewBox="0.00 0.00 144.00 125.00" xmlns="http://www.w3.org/2000/svg" xmlns:xlink="http://www.w3.org/1999/xlink">
<g id="graph0" class="graph" transform="scale(1 1) rotate(0) translate(4 121)">
<title>TechTree</title>
<polygon fill="white" stroke="none" points="-4,4 -4,-121 140,-121 140,4 -4,4"/>
<text xml:space="preserve" text-anchor="middle" x="68" y="-99.7" font-family="Helvetica,sans-Serif" font-weight="bold" font-size="14.00">Multiple Warheads</text>
<!-- Single_Warhead_Only -->
<g id="node1" class="node">
<title>Single_Warhead_Only</title>
<path fill="#d4edda" stroke="black" d="M109.75,-36C109.75,-36 26.25,-36 26.25,-36 20.25,-36 14.25,-30 14.25,-24 14.25,-24 14.25,-12 14.25,-12 14.25,-6 20.25,0 26.25,0 26.25,0 109.75,0 109.75,0 115.75,0 121.75,-6 121.75,-12 121.75,-12 121.75,-24 121.75,-24 121.75,-30 115.75,-36 109.75,-36"/>
<text xml:space="preserve" text-anchor="middle" x="68" y="-19.75" font-family="Helvetica,sans-Serif" font-size="10.00">Single Warhead Only</text>
<text xml:space="preserve" text-anchor="middle" x="68" y="-8.5" font-family="Helvetica,sans-Serif" font-size="10.00">1 RP</text>
</g>
<!-- Multiple_Warheads -->
<g id="node2" class="node">
<title>Multiple_Warheads</title>
<path fill="#cce5ff" stroke="black" d="M104.12,-94C104.12,-94 31.88,-94 31.88,-94 25.88,-94 19.88,-88 19.88,-82 19.88,-82 19.88,-70 19.88,-70 19.88,-64 25.88,-58 31.88,-58 31.88,-58 104.12,-58 104.12,-58 110.12,-58 116.12,-64 116.12,-70 116.12,-70 116.12,-82 116.12,-82 116.12,-88 110.12,-94 104.12,-94"/>
<text xml:space="preserve" text-anchor="middle" x="68" y="-77.75" font-family="Helvetica,sans-Serif" font-size="10.00">Multiple Warheads</text>
<text xml:space="preserve" text-anchor="middle" x="68" y="-66.5" font-family="Helvetica,sans-Serif" font-size="10.00">5K RP</text>
</g>
</g>
</svg>
