<?xml version="1.0" encoding="UTF-8" standalone="no"?>
<!DOCTYPE svg PUBLIC "-//W3C//DTD SVG 1.1//EN"
 "http://www.w3.org/Graphics/SVG/1.1/DTD/svg11.dtd">
<!-- Generated by graphviz version 14.1.2 (20260124.0452)
 -->
<!-- Title: TechTree Pages: 1 -->
<svg width="213pt" height="785pt"
 viewBox="0.00 0.00 213.00 785.00" xmlns="http://www.w3.org/2000/svg" xmlns:xlink="http://www.w3.org/1999/xlink">
<g id="graph0" class="graph" transform="scale(1 1) rotate(0) translate(4 780.75)">
<title>TechTree</title>
<polygon fill="white" stroke="none" points="-4,4 -4,-780.75 209,-780.75 209,4 -4,4"/>
<text xml:space="preserve" text-anchor="middle" x="102.5" y="-761.35" font-family="Helvetica,sans-Serif" font-weight="bold" font-size="12.00">Ordnance Transfer System</text>
<!-- Ordnance_Transfer_System__40_M -->
<g id="node1" class="node">
<title>Ordnance_Transfer_System__40_M</title>
<path fill="#cce5ff" stroke="black" d="M190.38,-756C190.38,-756 14.62,-756 14.62,-756 8.63,-756 2.62,-750 2.62,-744 2.62,-744 2.62,-732 2.62,-732 2.62,-726 8.62,-720 14.62,-720 14.62,-720 190.38,-720 190.38,-720 196.38,-720 202.38,-726 202.38,-732 202.38,-732 202.38,-744 202.38,-744 202.38,-750 196.38,-756 190.38,-756"/>
<text xml:space="preserve" text-anchor="middle" x="102.5" y="-739.2" font-family="Helvetica,sans-Serif" font-size="9.00">Ordnance Transfer System: 40 MSP per Hour</text>
<text xml:space="preserve" text-anchor="middle" x="102.5" y="-729.45" font-family="Helvetica,sans-Serif" font-size="9.00">1K RP</text>
</g>
<!-- Ordnance_Transfer_System__48_M -->
<g id="node2" class="node">
<title>Ordnance_Transfer_System__48_M</title>
<path fill="#cce5ff" stroke="black" d="M190.38,-684C190.38,-684 14.62,-684 14.62,-684 8.63,-684 2.62,-678 2.62,-672 2.62,-672 2.62,-660 2.62,-660 2.62,-654 8.62,-648 14.62,-648 14.62,-648 190.38,-648 190.38,-648 196.38,-648 202.38,-654 202.38,-660 202.38,-660 202.38,-672 202.38,-672 202.38,-678 196.38,-684 190.38,-684"/>
<text xml:space="preserve" text-anchor="middle" x="102.5" y="-667.2" font-family="Helvetica,sans-Serif" font-size="9.00">Ordnance Transfer System: 48 MSP per Hour</text>
<text xml:space="preserve" text-anchor="middle" x="102.5" y="-657.45" font-family="Helvetica,sans-Serif" font-size="9.00">2K RP</text>
</g>
<!-- Ordnance_Transfer_System__40_M&#45;&gt;Ordnance_Transfer_System__48_M -->
<g id="edge1" class="edge">
<title>Ordnance_Transfer_System__40_M&#45;&gt;Ordnance_Transfer_System__48_M</title>
<path fill="none" stroke="black" d="M102.5,-719.7C102.5,-711.22 102.5,-700.86 102.5,-691.58"/>
<polygon fill="black" stroke="black" points="104.6,-691.62 102.5,-685.62 100.4,-691.62 104.6,-691.62"/>
</g>
<!-- Ordnance_Transfer_System__64_M -->
<g id="node3" class="node">
<title>Ordnance_Transfer_System__64_M</title>
<path fill="#cce5ff" stroke="black" d="M190.38,-612C190.38,-612 14.62,-612 14.62,-612 8.63,-612 2.62,-606 2.62,-600 2.62,-600 2.62,-588 2.62,-588 2.62,-582 8.62,-576 14.62,-576 14.62,-576 190.38,-576 190.38,-576 196.38,-576 202.38,-582 202.38,-588 202.38,-588 202.38,-600 202.38,-600 202.38,-606 196.38,-612 190.38,-612"/>
<text xml:space="preserve" text-anchor="middle" x="102.5" y="-595.2" font-family="Helvetica,sans-Serif" font-size="9.00">Ordnance Transfer System: 64 MSP per Hour</text>
<text xml:space="preserve" text-anchor="middle" x="102.5" y="-585.45" font-family="Helvetica,sans-Serif" font-size="9.00">4K RP</text>
</g>
<!-- Ordnance_Transfer_System__48_M&#45;&gt;Ordnance_Transfer_System__64_M -->
<g id="edge2" class="edge">
<title>Ordnance_Transfer_System__48_M&#45;&gt;Ordnance_Transfer_System__64_M</title>
<path fill="none" stroke="black" d="M102.5,-647.7C102.5,-639.22 102.5,-628.86 102.5,-619.58"/>
<polygon fill="black" stroke="black" points="104.6,-619.62 102.5,-613.62 100.4,-619.62 104.6,-619.62"/>
</g>
<!-- Ordnance_Transfer_System__80_M -->
<g id="node4" class="node">
<title>Ordnance_Transfer_System__80_M</title>
<path fill="#cce5ff" stroke="black" d="M190.38,-540C190.38,-540 14.62,-540 14.62,-540 8.63,-540 2.62,-534 2.62,-528 2.62,-528 2.62,-516 2.62,-516 2.62,-510 8.62,-504 14.62,-504 14.62,-504 190.38,-504 190.38,-504 196.38,-504 202.38,-510 202.38,-516 202.38,-516 202.38,-528 202.38,-528 202.38,-534 196.38,-540 190.38,-540"/>
<text xml:space="preserve" text-anchor="middle" x="102.5" y="-523.2" font-family="Helvetica,sans-Serif" font-size="9.00">Ordnance Transfer System: 80 MSP per Hour</text>
<text xml:space="preserve" text-anchor="middle" x="102.5" y="-513.45" font-family="Helvetica,sans-Serif" font-size="9.00">8K RP</text>
</g>
<!-- Ordnance_Transfer_System__64_M&#45;&gt;Ordnance_Transfer_System__80_M -->
<g id="edge3" class="edge">
<title>Ordnance_Transfer_System__64_M&#45;&gt;Ordnance_Transfer_System__80_M</title>
<path fill="none" stroke="black" d="M102.5,-575.7C102.5,-567.22 102.5,-556.86 102.5,-547.58"/>
<polygon fill="black" stroke="black" points="104.6,-547.62 102.5,-541.62 100.4,-547.62 104.6,-547.62"/>
</g>
<!-- Ordnance_Transfer_System__100_ -->
<g id="node5" class="node">
<title>Ordnance_Transfer_System__100_</title>
<path fill="#fff3cd" stroke="black" d="M193,-468C193,-468 12,-468 12,-468 6,-468 0,-462 0,-456 0,-456 0,-444 0,-444 0,-438 6,-432 12,-432 12,-432 193,-432 193,-432 199,-432 205,-438 205,-444 205,-444 205,-456 205,-456 205,-462 199,-468 193,-468"/>
<text xml:space="preserve" text-anchor="middle" x="102.5" y="-451.2" font-family="Helvetica,sans-Serif" font-size="9.00">Ordnance Transfer System: 100 MSP per Hour</text>
<text xml:space="preserve" text-anchor="middle" x="102.5" y="-441.45" font-family="Helvetica,sans-Serif" font-size="9.00">16K RP</text>
</g>
<!-- Ordnance_Transfer_System__80_M&#45;&gt;Ordnance_Transfer_System__100_ -->
<g id="edge4" class="edge">
<title>Ordnance_Transfer_System__80_M&#45;&gt;Ordnance_Transfer_System__100_</title>
<path fill="none" stroke="black" d="M102.5,-503.7C102.5,-495.22 102.5,-484.86 102.5,-475.58"/>
<polygon fill="black" stroke="black" points="104.6,-475.62 102.5,-469.62 100.4,-475.62 104.6,-475.62"/>
</g>
<!-- Ordnance_Transfer_System__128_ -->
<g id="node6" class="node">
<title>Ordnance_Transfer_System__128_</title>
<path fill="#fff3cd" stroke="black" d="M193,-396C193,-396 12,-396 12,-396 6,-396 0,-390 0,-384 0,-384 0,-372 0,-372 0,-366 6,-360 12,-360 12,-360 193,-360 193,-360 199,-360 205,-366 205,-372 205,-372 205,-384 205,-384 205,-390 199,-396 193,-396"/>
<text xml:space="preserve" text-anchor="middle" x="102.5" y="-379.2" font-family="Helvetica,sans-Serif" font-size="9.00">Ordnance Transfer System: 128 MSP per Hour</text>
<text xml:space="preserve" text-anchor="middle" x="102.5" y="-369.45" font-family="Helvetica,sans-Serif" font-size="9.00">32K RP</text>
</g>
<!-- Ordnance_Transfer_System__100_&#45;&gt;Ordnance_Transfer_System__128_ -->
<g id="edge5" class="edge">
<title>Ordnance_Transfer_System__100_&#45;&gt;Ordnance_Transfer_System__128_</title>
<path fill="none" stroke="black" d="M102.5,-431.7C102.5,-423.22 102.5,-412.86 102.5,-403.58"/>
<polygon fill="black" stroke="black" points="104.6,-403.62 102.5,-397.62 100.4,-403.62 104.6,-403.62"/>
</g>
<!-- Ordnance_Transfer_System__160_ -->
<g id="node7" class="node">
<title>Ordnance_Transfer_System__160_</title>
<path fill="#fff3cd" stroke="black" d="M193,-324C193,-324 12,-324 12,-324 6,-324 0,-318 0,-312 0,-312 0,-300 0,-300 0,-294 6,-288 12,-288 12,-288 193,-288 193,-288 199,-288 205,-294 205,-300 205,-300 205,-312 205,-312 205,-318 199,-324 193,-324"/>
<text xml:space="preserve" text-anchor="middle" x="102.5" y="-307.2" font-family="Helvetica,sans-Serif" font-size="9.00">Ordnance Transfer System: 160 MSP per Hour</text>
<text xml:space="preserve" text-anchor="middle" x="102.5" y="-297.45" font-family="Helvetica,sans-Serif" font-size="9.00">64K RP</text>
</g>
<!-- Ordnance_Transfer_System__128_&#45;&gt;Ordnance_Transfer_System__160_ -->
<g id="edge6" class="edge">
<title>Ordnance_Transfer_System__128_&#45;&gt;Ordnance_Transfer_System__160_</title>
<path fill="none" stroke="black" d="M102.5,-359.7C102.5,-351.22 102.5,-340.86 102.5,-331.58"/>
<polygon fill="black" stroke="black" points="104.6,-331.62 102.5,-325.62 100.4,-331.62 104.6,-331.62"/>
</g>
<!-- Ordnance_Transfer_System__200_ -->
<g id="node8" class="node">
<title>Ordnance_Transfer_System__200_</title>
<path fill="#d4c4fb" stroke="black" d="M193,-252C193,-252 12,-252 12,-252 6,-252 0,-246 0,-240 0,-240 0,-228 0,-228 0,-222 6,-216 12,-216 12,-216 193,-216 193,-216 199,-216 205,-222 205,-228 205,-228 205,-240 205,-240 205,-246 199,-252 193,-252"/>
<text xml:space="preserve" text-anchor="middle" x="102.5" y="-235.2" font-family="Helvetica,sans-Serif" font-size="9.00">Ordnance Transfer System: 200 MSP per Hour</text>
<text xml:space="preserve" text-anchor="middle" x="102.5" y="-225.45" font-family="Helvetica,sans-Serif" font-size="9.00">125K RP</text>
</g>
<!-- Ordnance_Transfer_System__160_&#45;&gt;Ordnance_Transfer_System__200_ -->
<g id="edge7" class="edge">
<title>Ordnance_Transfer_System__160_&#45;&gt;Ordnance_Transfer_System__200_</title>
<path fill="none" stroke="black" d="M102.5,-287.7C102.5,-279.22 102.5,-268.86 102.5,-259.58"/>
<polygon fill="black" stroke="black" points="104.6,-259.62 102.5,-253.62 100.4,-259.62 104.6,-259.62"/>
</g>
<!-- Ordnance_Transfer_System__256_ -->
<g id="node9" class="node">
<title>Ordnance_Transfer_System__256_</title>
<path fill="#d4c4fb" stroke="black" d="M193,-180C193,-180 12,-180 12,-180 6,-180 0,-174 0,-168 0,-168 0,-156 0,-156 0,-150 6,-144 12,-144 12,-144 193,-144 193,-144 199,-144 205,-150 205,-156 205,-156 205,-168 205,-168 205,-174 199,-180 193,-180"/>
<text xml:space="preserve" text-anchor="middle" x="102.5" y="-163.2" font-family="Helvetica,sans-Serif" font-size="9.00">Ordnance Transfer System: 256 MSP per Hour</text>
<text xml:space="preserve" text-anchor="middle" x="102.5" y="-153.45" font-family="Helvetica,sans-Serif" font-size="9.00">250K RP</text>
</g>
<!-- Ordnance_Transfer_System__200_&#45;&gt;Ordnance_Transfer_System__256_ -->
<g id="edge8" class="edge">
<title>Ordnance_Transfer_System__200_&#45;&gt;Ordnance_Transfer_System__256_</title>
<path fill="none" stroke="black" d="M102.5,-215.7C102.5,-207.22 102.5,-196.86 102.5,-187.58"/>
<polygon fill="black" stroke="black" points="104.6,-187.62 102.5,-181.62 100.4,-187.62 104.6,-187.62"/>
</g>
<!-- Ordnance_Transfer_System__320_ -->
<g id="node10" class="node">
<title>Ordnance_Transfer_System__320_</title>
<path fill="#d4c4fb" stroke="black" d="M193,-108C193,-108 12,-108 12,-108 6,-108 0,-102 0,-96 0,-96 0,-84 0,-84 0,-78 6,-72 12,-72 12,-72 193,-72 193,-72 199,-72 205,-78 205,-84 205,-84 205,-96 205,-96 205,-102 199,-108 193,-108"/>
<text xml:space="preserve" text-anchor="middle" x="102.5" y="-91.2" font-family="Helvetica,sans-Serif" font-size="9.00">Ordnance Transfer System: 320 MSP per Hour</text>
<text xml:space="preserve" text-anchor="middle" x="102.5" y="-81.45" font-family="Helvetica,sans-Serif" font-size="9.00">500K RP</text>
</g>
<!-- Ordnance_Transfer_System__256_&#45;&gt;Ordnance_Transfer_System__320_ -->
<g id="edge9" class="edge">
<title>Ordnance_Transfer_System__256_&#45;&gt;Ordnance_Transfer_System__320_</title>
<path fill="none" stroke="black" d="M102.5,-143.7C102.5,-135.22 102.5,-124.86 102.5,-115.58"/>
<polygon fill="black" stroke="black" points="104.6,-115.62 102.5,-109.62 100.4,-115.62 104.6,-115.62"/>
</g>
<!-- Ordnance_Transfer_System__400_ -->
<g id="node11" class="node">
<title>Ordnance_Transfer_System__400_</title>
<path fill="#d4c4fb" stroke="black" d="M193,-36C193,-36 12,-36 12,-36 6,-36 0,-30 0,-24 0,-24 0,-12 0,-12 0,-6 6,0 12,0 12,0 193,0 193,0 199,0 205,-6 205,-12 205,-12 205,-24 205,-24 205,-30 199,-36 193,-36"/>
<text xml:space="preserve" text-anchor="middle" x="102.5" y="-19.2" font-family="Helvetica,sans-Serif" font-size="9.00">Ordnance Transfer System: 400 MSP per Hour</text>
<text xml:space="preserve" text-anchor="middle" x="102.5" y="-9.45" font-family="Helvetica,sans-Serif" font-size="9.00">1.0M RP</text>
</g>
<!-- Ordnance_Transfer_System__320_&#45;&gt;Ordnance_Transfer_System__400_ -->
<g id="edge10" class="edge">
<title>Ordnance_Transfer_System__320_&#45;&gt;Ordnance_Transfer_System__400_</title>
<path fill="none" stroke="black" d="M102.5,-71.7C102.5,-63.22 102.5,-52.86 102.5,-43.58"/>
<polygon fill="black" stroke="black" points="104.6,-43.62 102.5,-37.62 100.4,-43.62 104.6,-43.62"/>
</g>
</g>
</svg>
