<?xml version="1.0" encoding="UTF-8" standalone="no"?>
<!DOCTYPE svg PUBLIC "-//W3C//DTD SVG 1.1//EN"
 "http://www.w3.org/Graphics/SVG/1.1/DTD/svg11.dtd">
<!-- Generated by graphviz version 14.1.2 (20260124.0452)
 -->
<!-- Title: TechTree Pages: 1 -->
<svg width="176pt" height="67pt"
 viewBox="0.00 0.00 176.00 67.00" xmlns="http://www.w3.org/2000/svg" xmlns:xlink="http://www.w3.org/1999/xlink">
<g id="graph0" class="graph" transform="scale(1 1) rotate(0) translate(4 63)">
<title>TechTree</title>
<polygon fill="white" stroke="none" points="-4,4 -4,-63 171.5,-63 171.5,4 -4,4"/>
<text xml:space="preserve" text-anchor="middle" x="83.75" y="-41.7" font-family="Helvetica,sans-Serif" font-weight="bold" font-size="14.00">Ordnance Transfer Hub</text>
<!-- Ordnance_Transfer_Hub -->
<g id="node1" class="node">
<title>Ordnance_Transfer_Hub</title>
<path fill="#cce5ff" stroke="black" d="M130.75,-36C130.75,-36 36.75,-36 36.75,-36 30.75,-36 24.75,-30 24.75,-24 24.75,-24 24.75,-12 24.75,-12 24.75,-6 30.75,0 36.75,0 36.75,0 130.75,0 130.75,0 136.75,0 142.75,-6 142.75,-12 142.75,-12 142.75,-24 142.75,-24 142.75,-30 136.75,-36 130.75,-36"/>
<text xml:space="preserve" text-anchor="middle" x="83.75" y="-19.75" font-family="Helvetica,sans-Serif" font-size="10.00">Ordnance Transfer Hub</text>
<text xml:space="preserve" text-anchor="middle" x="83.75" y="-8.5" font-family="Helvetica,sans-Serif" font-size="10.00">10K RP</text>
</g>
</g>
</svg>
