<?xml version="1.0" encoding="UTF-8" standalone="no"?>
<!DOCTYPE svg PUBLIC "-//W3C//DTD SVG 1.1//EN"
 "http://www.w3.org/Graphics/SVG/1.1/DTD/svg11.dtd">
<!-- Generated by graphviz version 14.1.2 (20260124.0452)
 -->
<!-- Title: TechTree Pages: 1 -->
<svg width="229pt" height="717pt"
 viewBox="0.00 0.00 229.00 717.00" xmlns="http://www.w3.org/2000/svg" xmlns:xlink="http://www.w3.org/1999/xlink">
<g id="graph0" class="graph" transform="scale(1 1) rotate(0) translate(4 713)">
<title>TechTree</title>
<polygon fill="white" stroke="none" points="-4,4 -4,-713 224.75,-713 224.75,4 -4,4"/>
<text xml:space="preserve" text-anchor="middle" x="110.38" y="-691.7" font-family="Helvetica,sans-Serif" font-weight="bold" font-size="14.00">Ordnance Transfer System</text>
<!-- Ordnance_Transfer_System__40_M -->
<g id="node1" class="node">
<title>Ordnance_Transfer_System__40_M</title>
<path fill="#cce5ff" stroke="black" d="M206.12,-686C206.12,-686 14.62,-686 14.62,-686 8.62,-686 2.62,-680 2.62,-674 2.62,-674 2.62,-662 2.62,-662 2.62,-656 8.62,-650 14.62,-650 14.62,-650 206.12,-650 206.12,-650 212.12,-650 218.12,-656 218.12,-662 218.12,-662 218.12,-674 218.12,-674 218.12,-680 212.12,-686 206.12,-686"/>
<text xml:space="preserve" text-anchor="middle" x="110.38" y="-669.75" font-family="Helvetica,sans-Serif" font-size="10.00">Ordnance Transfer System: 40 MSP per Hour</text>
<text xml:space="preserve" text-anchor="middle" x="110.38" y="-658.5" font-family="Helvetica,sans-Serif" font-size="10.00">1K RP</text>
</g>
<!-- Ordnance_Transfer_System__48_M -->
<g id="node2" class="node">
<title>Ordnance_Transfer_System__48_M</title>
<path fill="#cce5ff" stroke="black" d="M206.12,-621C206.12,-621 14.62,-621 14.62,-621 8.62,-621 2.62,-615 2.62,-609 2.62,-609 2.62,-597 2.62,-597 2.62,-591 8.62,-585 14.62,-585 14.62,-585 206.12,-585 206.12,-585 212.12,-585 218.12,-591 218.12,-597 218.12,-597 218.12,-609 218.12,-609 218.12,-615 212.12,-621 206.12,-621"/>
<text xml:space="preserve" text-anchor="middle" x="110.38" y="-604.75" font-family="Helvetica,sans-Serif" font-size="10.00">Ordnance Transfer System: 48 MSP per Hour</text>
<text xml:space="preserve" text-anchor="middle" x="110.38" y="-593.5" font-family="Helvetica,sans-Serif" font-size="10.00">2K RP</text>
</g>
<!-- Ordnance_Transfer_System__40_M&#45;&gt;Ordnance_Transfer_System__48_M -->
<g id="edge1" class="edge">
<title>Ordnance_Transfer_System__40_M&#45;&gt;Ordnance_Transfer_System__48_M</title>
<path fill="none" stroke="black" d="M110.38,-649.78C110.38,-643.53 110.38,-636.33 110.38,-629.52"/>
<polygon fill="black" stroke="black" points="112.83,-629.71 110.38,-622.71 107.93,-629.71 112.83,-629.71"/>
</g>
<!-- Ordnance_Transfer_System__64_M -->
<g id="node3" class="node">
<title>Ordnance_Transfer_System__64_M</title>
<path fill="#cce5ff" stroke="black" d="M206.12,-556C206.12,-556 14.62,-556 14.62,-556 8.62,-556 2.62,-550 2.62,-544 2.62,-544 2.62,-532 2.62,-532 2.62,-526 8.62,-520 14.62,-520 14.62,-520 206.12,-520 206.12,-520 212.12,-520 218.12,-526 218.12,-532 218.12,-532 218.12,-544 218.12,-544 218.12,-550 212.12,-556 206.12,-556"/>
<text xml:space="preserve" text-anchor="middle" x="110.38" y="-539.75" font-family="Helvetica,sans-Serif" font-size="10.00">Ordnance Transfer System: 64 MSP per Hour</text>
<text xml:space="preserve" text-anchor="middle" x="110.38" y="-528.5" font-family="Helvetica,sans-Serif" font-size="10.00">4K RP</text>
</g>
<!-- Ordnance_Transfer_System__48_M&#45;&gt;Ordnance_Transfer_System__64_M -->
<g id="edge2" class="edge">
<title>Ordnance_Transfer_System__48_M&#45;&gt;Ordnance_Transfer_System__64_M</title>
<path fill="none" stroke="black" d="M110.38,-584.78C110.38,-578.53 110.38,-571.33 110.38,-564.52"/>
<polygon fill="black" stroke="black" points="112.83,-564.71 110.38,-557.71 107.93,-564.71 112.83,-564.71"/>
</g>
<!-- Ordnance_Transfer_System__80_M -->
<g id="node4" class="node">
<title>Ordnance_Transfer_System__80_M</title>
<path fill="#cce5ff" stroke="black" d="M206.12,-491C206.12,-491 14.62,-491 14.62,-491 8.62,-491 2.62,-485 2.62,-479 2.62,-479 2.62,-467 2.62,-467 2.62,-461 8.62,-455 14.62,-455 14.62,-455 206.12,-455 206.12,-455 212.12,-455 218.12,-461 218.12,-467 218.12,-467 218.12,-479 218.12,-479 218.12,-485 212.12,-491 206.12,-491"/>
<text xml:space="preserve" text-anchor="middle" x="110.38" y="-474.75" font-family="Helvetica,sans-Serif" font-size="10.00">Ordnance Transfer System: 80 MSP per Hour</text>
<text xml:space="preserve" text-anchor="middle" x="110.38" y="-463.5" font-family="Helvetica,sans-Serif" font-size="10.00">8K RP</text>
</g>
<!-- Ordnance_Transfer_System__64_M&#45;&gt;Ordnance_Transfer_System__80_M -->
<g id="edge3" class="edge">
<title>Ordnance_Transfer_System__64_M&#45;&gt;Ordnance_Transfer_System__80_M</title>
<path fill="none" stroke="black" d="M110.38,-519.78C110.38,-513.53 110.38,-506.33 110.38,-499.52"/>
<polygon fill="black" stroke="black" points="112.83,-499.71 110.38,-492.71 107.93,-499.71 112.83,-499.71"/>
</g>
<!-- Ordnance_Transfer_System__100_ -->
<g id="node5" class="node">
<title>Ordnance_Transfer_System__100_</title>
<path fill="#fff3cd" stroke="black" d="M208.75,-426C208.75,-426 12,-426 12,-426 6,-426 0,-420 0,-414 0,-414 0,-402 0,-402 0,-396 6,-390 12,-390 12,-390 208.75,-390 208.75,-390 214.75,-390 220.75,-396 220.75,-402 220.75,-402 220.75,-414 220.75,-414 220.75,-420 214.75,-426 208.75,-426"/>
<text xml:space="preserve" text-anchor="middle" x="110.38" y="-409.75" font-family="Helvetica,sans-Serif" font-size="10.00">Ordnance Transfer System: 100 MSP per Hour</text>
<text xml:space="preserve" text-anchor="middle" x="110.38" y="-398.5" font-family="Helvetica,sans-Serif" font-size="10.00">16K RP</text>
</g>
<!-- Ordnance_Transfer_System__80_M&#45;&gt;Ordnance_Transfer_System__100_ -->
<g id="edge4" class="edge">
<title>Ordnance_Transfer_System__80_M&#45;&gt;Ordnance_Transfer_System__100_</title>
<path fill="none" stroke="black" d="M110.38,-454.78C110.38,-448.53 110.38,-441.33 110.38,-434.52"/>
<polygon fill="black" stroke="black" points="112.83,-434.71 110.38,-427.71 107.93,-434.71 112.83,-434.71"/>
</g>
<!-- Ordnance_Transfer_System__128_ -->
<g id="node6" class="node">
<title>Ordnance_Transfer_System__128_</title>
<path fill="#fff3cd" stroke="black" d="M208.75,-361C208.75,-361 12,-361 12,-361 6,-361 0,-355 0,-349 0,-349 0,-337 0,-337 0,-331 6,-325 12,-325 12,-325 208.75,-325 208.75,-325 214.75,-325 220.75,-331 220.75,-337 220.75,-337 220.75,-349 220.75,-349 220.75,-355 214.75,-361 208.75,-361"/>
<text xml:space="preserve" text-anchor="middle" x="110.38" y="-344.75" font-family="Helvetica,sans-Serif" font-size="10.00">Ordnance Transfer System: 128 MSP per Hour</text>
<text xml:space="preserve" text-anchor="middle" x="110.38" y="-333.5" font-family="Helvetica,sans-Serif" font-size="10.00">32K RP</text>
</g>
<!-- Ordnance_Transfer_System__100_&#45;&gt;Ordnance_Transfer_System__128_ -->
<g id="edge5" class="edge">
<title>Ordnance_Transfer_System__100_&#45;&gt;Ordnance_Transfer_System__128_</title>
<path fill="none" stroke="black" d="M110.38,-389.78C110.38,-383.53 110.38,-376.33 110.38,-369.52"/>
<polygon fill="black" stroke="black" points="112.83,-369.71 110.38,-362.71 107.93,-369.71 112.83,-369.71"/>
</g>
<!-- Ordnance_Transfer_System__160_ -->
<g id="node7" class="node">
<title>Ordnance_Transfer_System__160_</title>
<path fill="#fff3cd" stroke="black" d="M208.75,-296C208.75,-296 12,-296 12,-296 6,-296 0,-290 0,-284 0,-284 0,-272 0,-272 0,-266 6,-260 12,-260 12,-260 208.75,-260 208.75,-260 214.75,-260 220.75,-266 220.75,-272 220.75,-272 220.75,-284 220.75,-284 220.75,-290 214.75,-296 208.75,-296"/>
<text xml:space="preserve" text-anchor="middle" x="110.38" y="-279.75" font-family="Helvetica,sans-Serif" font-size="10.00">Ordnance Transfer System: 160 MSP per Hour</text>
<text xml:space="preserve" text-anchor="middle" x="110.38" y="-268.5" font-family="Helvetica,sans-Serif" font-size="10.00">64K RP</text>
</g>
<!-- Ordnance_Transfer_System__128_&#45;&gt;Ordnance_Transfer_System__160_ -->
<g id="edge6" class="edge">
<title>Ordnance_Transfer_System__128_&#45;&gt;Ordnance_Transfer_System__160_</title>
<path fill="none" stroke="black" d="M110.38,-324.78C110.38,-318.53 110.38,-311.33 110.38,-304.52"/>
<polygon fill="black" stroke="black" points="112.83,-304.71 110.38,-297.71 107.93,-304.71 112.83,-304.71"/>
</g>
<!-- Ordnance_Transfer_System__200_ -->
<g id="node8" class="node">
<title>Ordnance_Transfer_System__200_</title>
<path fill="#d4c4fb" stroke="black" d="M208.75,-231C208.75,-231 12,-231 12,-231 6,-231 0,-225 0,-219 0,-219 0,-207 0,-207 0,-201 6,-195 12,-195 12,-195 208.75,-195 208.75,-195 214.75,-195 220.75,-201 220.75,-207 220.75,-207 220.75,-219 220.75,-219 220.75,-225 214.75,-231 208.75,-231"/>
<text xml:space="preserve" text-anchor="middle" x="110.38" y="-214.75" font-family="Helvetica,sans-Serif" font-size="10.00">Ordnance Transfer System: 200 MSP per Hour</text>
<text xml:space="preserve" text-anchor="middle" x="110.38" y="-203.5" font-family="Helvetica,sans-Serif" font-size="10.00">125K RP</text>
</g>
<!-- Ordnance_Transfer_System__160_&#45;&gt;Ordnance_Transfer_System__200_ -->
<g id="edge7" class="edge">
<title>Ordnance_Transfer_System__160_&#45;&gt;Ordnance_Transfer_System__200_</title>
<path fill="none" stroke="black" d="M110.38,-259.78C110.38,-253.53 110.38,-246.33 110.38,-239.52"/>
<polygon fill="black" stroke="black" points="112.83,-239.71 110.38,-232.71 107.93,-239.71 112.83,-239.71"/>
</g>
<!-- Ordnance_Transfer_System__256_ -->
<g id="node9" class="node">
<title>Ordnance_Transfer_System__256_</title>
<path fill="#d4c4fb" stroke="black" d="M208.75,-166C208.75,-166 12,-166 12,-166 6,-166 0,-160 0,-154 0,-154 0,-142 0,-142 0,-136 6,-130 12,-130 12,-130 208.75,-130 208.75,-130 214.75,-130 220.75,-136 220.75,-142 220.75,-142 220.75,-154 220.75,-154 220.75,-160 214.75,-166 208.75,-166"/>
<text xml:space="preserve" text-anchor="middle" x="110.38" y="-149.75" font-family="Helvetica,sans-Serif" font-size="10.00">Ordnance Transfer System: 256 MSP per Hour</text>
<text xml:space="preserve" text-anchor="middle" x="110.38" y="-138.5" font-family="Helvetica,sans-Serif" font-size="10.00">250K RP</text>
</g>
<!-- Ordnance_Transfer_System__200_&#45;&gt;Ordnance_Transfer_System__256_ -->
<g id="edge8" class="edge">
<title>Ordnance_Transfer_System__200_&#45;&gt;Ordnance_Transfer_System__256_</title>
<path fill="none" stroke="black" d="M110.38,-194.78C110.38,-188.53 110.38,-181.33 110.38,-174.52"/>
<polygon fill="black" stroke="black" points="112.83,-174.71 110.38,-167.71 107.93,-174.71 112.83,-174.71"/>
</g>
<!-- Ordnance_Transfer_System__320_ -->
<g id="node10" class="node">
<title>Ordnance_Transfer_System__320_</title>
<path fill="#d4c4fb" stroke="black" d="M208.75,-101C208.75,-101 12,-101 12,-101 6,-101 0,-95 0,-89 0,-89 0,-77 0,-77 0,-71 6,-65 12,-65 12,-65 208.75,-65 208.75,-65 214.75,-65 220.75,-71 220.75,-77 220.75,-77 220.75,-89 220.75,-89 220.75,-95 214.75,-101 208.75,-101"/>
<text xml:space="preserve" text-anchor="middle" x="110.38" y="-84.75" font-family="Helvetica,sans-Serif" font-size="10.00">Ordnance Transfer System: 320 MSP per Hour</text>
<text xml:space="preserve" text-anchor="middle" x="110.38" y="-73.5" font-family="Helvetica,sans-Serif" font-size="10.00">500K RP</text>
</g>
<!-- Ordnance_Transfer_System__256_&#45;&gt;Ordnance_Transfer_System__320_ -->
<g id="edge9" class="edge">
<title>Ordnance_Transfer_System__256_&#45;&gt;Ordnance_Transfer_System__320_</title>
<path fill="none" stroke="black" d="M110.38,-129.78C110.38,-123.53 110.38,-116.33 110.38,-109.52"/>
<polygon fill="black" stroke="black" points="112.83,-109.71 110.38,-102.71 107.93,-109.71 112.83,-109.71"/>
</g>
<!-- Ordnance_Transfer_System__400_ -->
<g id="node11" class="node">
<title>Ordnance_Transfer_System__400_</title>
<path fill="#d4c4fb" stroke="black" d="M208.75,-36C208.75,-36 12,-36 12,-36 6,-36 0,-30 0,-24 0,-24 0,-12 0,-12 0,-6 6,0 12,0 12,0 208.75,0 208.75,0 214.75,0 220.75,-6 220.75,-12 220.75,-12 220.75,-24 220.75,-24 220.75,-30 214.75,-36 208.75,-36"/>
<text xml:space="preserve" text-anchor="middle" x="110.38" y="-19.75" font-family="Helvetica,sans-Serif" font-size="10.00">Ordnance Transfer System: 400 MSP per Hour</text>
<text xml:space="preserve" text-anchor="middle" x="110.38" y="-8.5" font-family="Helvetica,sans-Serif" font-size="10.00">1.0M RP</text>
</g>
<!-- Ordnance_Transfer_System__320_&#45;&gt;Ordnance_Transfer_System__400_ -->
<g id="edge10" class="edge">
<title>Ordnance_Transfer_System__320_&#45;&gt;Ordnance_Transfer_System__400_</title>
<path fill="none" stroke="black" d="M110.38,-64.78C110.38,-58.53 110.38,-51.33 110.38,-44.52"/>
<polygon fill="black" stroke="black" points="112.83,-44.71 110.38,-37.71 107.93,-44.71 112.83,-44.71"/>
</g>
</g>
</svg>
