<?xml version="1.0" encoding="UTF-8" standalone="no"?>
<!DOCTYPE svg PUBLIC "-//W3C//DTD SVG 1.1//EN"
 "http://www.w3.org/Graphics/SVG/1.1/DTD/svg11.dtd">
<!-- Generated by graphviz version 14.1.2 (20260124.0452)
 -->
<!-- Title: TechTree Pages: 1 -->
<svg width="208pt" height="137pt"
 viewBox="0.00 0.00 208.00 137.00" xmlns="http://www.w3.org/2000/svg" xmlns:xlink="http://www.w3.org/1999/xlink">
<g id="graph0" class="graph" transform="scale(1 1) rotate(0) translate(4 132.75)">
<title>TechTree</title>
<polygon fill="white" stroke="none" points="-4,4 -4,-132.75 203.75,-132.75 203.75,4 -4,4"/>
<text xml:space="preserve" text-anchor="middle" x="99.88" y="-113.35" font-family="Helvetica,sans-Serif" font-weight="bold" font-size="12.00">Ordnance Transfer Hub</text>
<!-- Ordnance_Transfer_Hub -->
<g id="node1" class="node">
<title>Ordnance_Transfer_Hub</title>
<path fill="#cce5ff" stroke="black" d="M143.88,-36C143.88,-36 55.87,-36 55.87,-36 49.88,-36 43.88,-30 43.88,-24 43.88,-24 43.88,-12 43.88,-12 43.88,-6 49.88,0 55.88,0 55.88,0 143.88,0 143.88,0 149.88,0 155.88,-6 155.88,-12 155.88,-12 155.88,-24 155.88,-24 155.88,-30 149.88,-36 143.88,-36"/>
<text xml:space="preserve" text-anchor="middle" x="99.88" y="-19.2" font-family="Helvetica,sans-Serif" font-size="9.00">Ordnance Transfer Hub</text>
<text xml:space="preserve" text-anchor="middle" x="99.88" y="-9.45" font-family="Helvetica,sans-Serif" font-size="9.00">10K RP</text>
</g>
<!-- ext_Ordnance_Transfer_System__40_M -->
<g id="node2" class="node">
<title>ext_Ordnance_Transfer_System__40_M</title>
<path fill="#f0f0f0" stroke="black" stroke-dasharray="5,2" d="M187.75,-108C187.75,-108 12,-108 12,-108 6,-108 0,-102 0,-96 0,-96 0,-84 0,-84 0,-78 6,-72 12,-72 12,-72 187.75,-72 187.75,-72 193.75,-72 199.75,-78 199.75,-84 199.75,-84 199.75,-96 199.75,-96 199.75,-102 193.75,-108 187.75,-108"/>
<text xml:space="preserve" text-anchor="middle" x="99.88" y="-86.33" font-family="Helvetica,sans-Serif" font-size="9.00">Ordnance Transfer System: 40 MSP per Hour</text>
</g>
<!-- ext_Ordnance_Transfer_System__40_M&#45;&gt;Ordnance_Transfer_Hub -->
<g id="edge1" class="edge">
<title>ext_Ordnance_Transfer_System__40_M&#45;&gt;Ordnance_Transfer_Hub</title>
<path fill="none" stroke="black" d="M99.88,-71.7C99.88,-63.22 99.88,-52.86 99.88,-43.58"/>
<polygon fill="black" stroke="black" points="101.98,-43.62 99.88,-37.62 97.78,-43.62 101.98,-43.62"/>
</g>
</g>
</svg>
