<?xml version="1.0" encoding="UTF-8" standalone="no"?>
<!DOCTYPE svg PUBLIC "-//W3C//DTD SVG 1.1//EN"
 "http://www.w3.org/Graphics/SVG/1.1/DTD/svg11.dtd">
<!-- Generated by graphviz version 14.1.2 (20260124.0452)
 -->
<!-- Title: TechTree Pages: 1 -->
<svg width="280pt" height="785pt"
 viewBox="0.00 0.00 280.00 785.00" xmlns="http://www.w3.org/2000/svg" xmlns:xlink="http://www.w3.org/1999/xlink">
<g id="graph0" class="graph" transform="scale(1 1) rotate(0) translate(4 780.75)">
<title>TechTree</title>
<polygon fill="white" stroke="none" points="-4,4 -4,-780.75 275.62,-780.75 275.62,4 -4,4"/>
<text xml:space="preserve" text-anchor="middle" x="135.81" y="-761.35" font-family="Helvetica,sans-Serif" font-weight="bold" font-size="12.00">Particle Beam Strength</text>
<!-- Particle_Beam_Strength_2 -->
<g id="node1" class="node">
<title>Particle_Beam_Strength_2</title>
<path fill="#cce5ff" stroke="black" d="M105.25,-756C105.25,-756 12,-756 12,-756 6,-756 0,-750 0,-744 0,-744 0,-732 0,-732 0,-726 6,-720 12,-720 12,-720 105.25,-720 105.25,-720 111.25,-720 117.25,-726 117.25,-732 117.25,-732 117.25,-744 117.25,-744 117.25,-750 111.25,-756 105.25,-756"/>
<text xml:space="preserve" text-anchor="middle" x="58.62" y="-739.2" font-family="Helvetica,sans-Serif" font-size="9.00">Particle Beam Strength 2</text>
<text xml:space="preserve" text-anchor="middle" x="58.62" y="-729.45" font-family="Helvetica,sans-Serif" font-size="9.00">2K RP</text>
</g>
<!-- Particle_Beam_Strength_3 -->
<g id="node2" class="node">
<title>Particle_Beam_Strength_3</title>
<path fill="#cce5ff" stroke="black" d="M250.25,-684C250.25,-684 157,-684 157,-684 151,-684 145,-678 145,-672 145,-672 145,-660 145,-660 145,-654 151,-648 157,-648 157,-648 250.25,-648 250.25,-648 256.25,-648 262.25,-654 262.25,-660 262.25,-660 262.25,-672 262.25,-672 262.25,-678 256.25,-684 250.25,-684"/>
<text xml:space="preserve" text-anchor="middle" x="203.62" y="-667.2" font-family="Helvetica,sans-Serif" font-size="9.00">Particle Beam Strength 3</text>
<text xml:space="preserve" text-anchor="middle" x="203.62" y="-657.45" font-family="Helvetica,sans-Serif" font-size="9.00">4K RP</text>
</g>
<!-- Particle_Beam_Strength_4 -->
<g id="node3" class="node">
<title>Particle_Beam_Strength_4</title>
<path fill="#cce5ff" stroke="black" d="M250.25,-612C250.25,-612 157,-612 157,-612 151,-612 145,-606 145,-600 145,-600 145,-588 145,-588 145,-582 151,-576 157,-576 157,-576 250.25,-576 250.25,-576 256.25,-576 262.25,-582 262.25,-588 262.25,-588 262.25,-600 262.25,-600 262.25,-606 256.25,-612 250.25,-612"/>
<text xml:space="preserve" text-anchor="middle" x="203.62" y="-595.2" font-family="Helvetica,sans-Serif" font-size="9.00">Particle Beam Strength 4</text>
<text xml:space="preserve" text-anchor="middle" x="203.62" y="-585.45" font-family="Helvetica,sans-Serif" font-size="9.00">8K RP</text>
</g>
<!-- Particle_Beam_Strength_3&#45;&gt;Particle_Beam_Strength_4 -->
<g id="edge2" class="edge">
<title>Particle_Beam_Strength_3&#45;&gt;Particle_Beam_Strength_4</title>
<path fill="none" stroke="black" d="M203.62,-647.7C203.62,-639.22 203.62,-628.86 203.62,-619.58"/>
<polygon fill="black" stroke="black" points="205.73,-619.62 203.63,-613.62 201.53,-619.62 205.73,-619.62"/>
</g>
<!-- Particle_Beam_Strength_6 -->
<g id="node4" class="node">
<title>Particle_Beam_Strength_6</title>
<path fill="#fff3cd" stroke="black" d="M250.25,-540C250.25,-540 157,-540 157,-540 151,-540 145,-534 145,-528 145,-528 145,-516 145,-516 145,-510 151,-504 157,-504 157,-504 250.25,-504 250.25,-504 256.25,-504 262.25,-510 262.25,-516 262.25,-516 262.25,-528 262.25,-528 262.25,-534 256.25,-540 250.25,-540"/>
<text xml:space="preserve" text-anchor="middle" x="203.62" y="-523.2" font-family="Helvetica,sans-Serif" font-size="9.00">Particle Beam Strength 6</text>
<text xml:space="preserve" text-anchor="middle" x="203.62" y="-513.45" font-family="Helvetica,sans-Serif" font-size="9.00">15K RP</text>
</g>
<!-- Particle_Beam_Strength_4&#45;&gt;Particle_Beam_Strength_6 -->
<g id="edge3" class="edge">
<title>Particle_Beam_Strength_4&#45;&gt;Particle_Beam_Strength_6</title>
<path fill="none" stroke="black" d="M203.62,-575.7C203.62,-567.22 203.62,-556.86 203.62,-547.58"/>
<polygon fill="black" stroke="black" points="205.73,-547.62 203.63,-541.62 201.53,-547.62 205.73,-547.62"/>
</g>
<!-- Particle_Beam_Strength_9 -->
<g id="node5" class="node">
<title>Particle_Beam_Strength_9</title>
<path fill="#fff3cd" stroke="black" d="M250.25,-468C250.25,-468 157,-468 157,-468 151,-468 145,-462 145,-456 145,-456 145,-444 145,-444 145,-438 151,-432 157,-432 157,-432 250.25,-432 250.25,-432 256.25,-432 262.25,-438 262.25,-444 262.25,-444 262.25,-456 262.25,-456 262.25,-462 256.25,-468 250.25,-468"/>
<text xml:space="preserve" text-anchor="middle" x="203.62" y="-451.2" font-family="Helvetica,sans-Serif" font-size="9.00">Particle Beam Strength 9</text>
<text xml:space="preserve" text-anchor="middle" x="203.62" y="-441.45" font-family="Helvetica,sans-Serif" font-size="9.00">30K RP</text>
</g>
<!-- Particle_Beam_Strength_6&#45;&gt;Particle_Beam_Strength_9 -->
<g id="edge4" class="edge">
<title>Particle_Beam_Strength_6&#45;&gt;Particle_Beam_Strength_9</title>
<path fill="none" stroke="black" d="M203.62,-503.7C203.62,-495.22 203.62,-484.86 203.62,-475.58"/>
<polygon fill="black" stroke="black" points="205.73,-475.62 203.63,-469.62 201.53,-475.62 205.73,-475.62"/>
</g>
<!-- Particle_Beam_Strength_12 -->
<g id="node6" class="node">
<title>Particle_Beam_Strength_12</title>
<path fill="#fff3cd" stroke="black" d="M252.88,-396C252.88,-396 154.38,-396 154.38,-396 148.38,-396 142.38,-390 142.38,-384 142.38,-384 142.38,-372 142.38,-372 142.38,-366 148.38,-360 154.38,-360 154.38,-360 252.88,-360 252.88,-360 258.88,-360 264.88,-366 264.88,-372 264.88,-372 264.88,-384 264.88,-384 264.88,-390 258.88,-396 252.88,-396"/>
<text xml:space="preserve" text-anchor="middle" x="203.62" y="-379.2" font-family="Helvetica,sans-Serif" font-size="9.00">Particle Beam Strength 12</text>
<text xml:space="preserve" text-anchor="middle" x="203.62" y="-369.45" font-family="Helvetica,sans-Serif" font-size="9.00">60K RP</text>
</g>
<!-- Particle_Beam_Strength_9&#45;&gt;Particle_Beam_Strength_12 -->
<g id="edge5" class="edge">
<title>Particle_Beam_Strength_9&#45;&gt;Particle_Beam_Strength_12</title>
<path fill="none" stroke="black" d="M203.62,-431.7C203.62,-423.22 203.62,-412.86 203.62,-403.58"/>
<polygon fill="black" stroke="black" points="205.73,-403.62 203.63,-397.62 201.53,-403.62 205.73,-403.62"/>
</g>
<!-- Particle_Beam_Strength_16 -->
<g id="node7" class="node">
<title>Particle_Beam_Strength_16</title>
<path fill="#d4c4fb" stroke="black" d="M252.88,-324C252.88,-324 154.38,-324 154.38,-324 148.38,-324 142.38,-318 142.38,-312 142.38,-312 142.38,-300 142.38,-300 142.38,-294 148.38,-288 154.38,-288 154.38,-288 252.88,-288 252.88,-288 258.88,-288 264.88,-294 264.88,-300 264.88,-300 264.88,-312 264.88,-312 264.88,-318 258.88,-324 252.88,-324"/>
<text xml:space="preserve" text-anchor="middle" x="203.62" y="-307.2" font-family="Helvetica,sans-Serif" font-size="9.00">Particle Beam Strength 16</text>
<text xml:space="preserve" text-anchor="middle" x="203.62" y="-297.45" font-family="Helvetica,sans-Serif" font-size="9.00">125K RP</text>
</g>
<!-- Particle_Beam_Strength_12&#45;&gt;Particle_Beam_Strength_16 -->
<g id="edge6" class="edge">
<title>Particle_Beam_Strength_12&#45;&gt;Particle_Beam_Strength_16</title>
<path fill="none" stroke="black" d="M203.62,-359.7C203.62,-351.22 203.62,-340.86 203.62,-331.58"/>
<polygon fill="black" stroke="black" points="205.73,-331.62 203.63,-325.62 201.53,-331.62 205.73,-331.62"/>
</g>
<!-- Particle_Beam_Strength_20 -->
<g id="node8" class="node">
<title>Particle_Beam_Strength_20</title>
<path fill="#d4c4fb" stroke="black" d="M252.88,-252C252.88,-252 154.38,-252 154.38,-252 148.38,-252 142.38,-246 142.38,-240 142.38,-240 142.38,-228 142.38,-228 142.38,-222 148.38,-216 154.38,-216 154.38,-216 252.88,-216 252.88,-216 258.88,-216 264.88,-222 264.88,-228 264.88,-228 264.88,-240 264.88,-240 264.88,-246 258.88,-252 252.88,-252"/>
<text xml:space="preserve" text-anchor="middle" x="203.62" y="-235.2" font-family="Helvetica,sans-Serif" font-size="9.00">Particle Beam Strength 20</text>
<text xml:space="preserve" text-anchor="middle" x="203.62" y="-225.45" font-family="Helvetica,sans-Serif" font-size="9.00">250K RP</text>
</g>
<!-- Particle_Beam_Strength_16&#45;&gt;Particle_Beam_Strength_20 -->
<g id="edge7" class="edge">
<title>Particle_Beam_Strength_16&#45;&gt;Particle_Beam_Strength_20</title>
<path fill="none" stroke="black" d="M203.62,-287.7C203.62,-279.22 203.62,-268.86 203.62,-259.58"/>
<polygon fill="black" stroke="black" points="205.73,-259.62 203.63,-253.62 201.53,-259.62 205.73,-259.62"/>
</g>
<!-- Particle_Beam_Strength_25 -->
<g id="node9" class="node">
<title>Particle_Beam_Strength_25</title>
<path fill="#d4c4fb" stroke="black" d="M252.88,-180C252.88,-180 154.38,-180 154.38,-180 148.38,-180 142.38,-174 142.38,-168 142.38,-168 142.38,-156 142.38,-156 142.38,-150 148.38,-144 154.38,-144 154.38,-144 252.88,-144 252.88,-144 258.88,-144 264.88,-150 264.88,-156 264.88,-156 264.88,-168 264.88,-168 264.88,-174 258.88,-180 252.88,-180"/>
<text xml:space="preserve" text-anchor="middle" x="203.62" y="-163.2" font-family="Helvetica,sans-Serif" font-size="9.00">Particle Beam Strength 25</text>
<text xml:space="preserve" text-anchor="middle" x="203.62" y="-153.45" font-family="Helvetica,sans-Serif" font-size="9.00">500K RP</text>
</g>
<!-- Particle_Beam_Strength_20&#45;&gt;Particle_Beam_Strength_25 -->
<g id="edge8" class="edge">
<title>Particle_Beam_Strength_20&#45;&gt;Particle_Beam_Strength_25</title>
<path fill="none" stroke="black" d="M203.62,-215.7C203.62,-207.22 203.62,-196.86 203.62,-187.58"/>
<polygon fill="black" stroke="black" points="205.73,-187.62 203.63,-181.62 201.53,-187.62 205.73,-187.62"/>
</g>
<!-- Particle_Beam_Strength_36 -->
<g id="node10" class="node">
<title>Particle_Beam_Strength_36</title>
<path fill="#d4c4fb" stroke="black" d="M252.88,-108C252.88,-108 154.38,-108 154.38,-108 148.38,-108 142.38,-102 142.38,-96 142.38,-96 142.38,-84 142.38,-84 142.38,-78 148.38,-72 154.38,-72 154.38,-72 252.88,-72 252.88,-72 258.88,-72 264.88,-78 264.88,-84 264.88,-84 264.88,-96 264.88,-96 264.88,-102 258.88,-108 252.88,-108"/>
<text xml:space="preserve" text-anchor="middle" x="203.62" y="-91.2" font-family="Helvetica,sans-Serif" font-size="9.00">Particle Beam Strength 36</text>
<text xml:space="preserve" text-anchor="middle" x="203.62" y="-81.45" font-family="Helvetica,sans-Serif" font-size="9.00">1.0M RP</text>
</g>
<!-- Particle_Beam_Strength_25&#45;&gt;Particle_Beam_Strength_36 -->
<g id="edge9" class="edge">
<title>Particle_Beam_Strength_25&#45;&gt;Particle_Beam_Strength_36</title>
<path fill="none" stroke="black" d="M203.62,-143.7C203.62,-135.22 203.62,-124.86 203.62,-115.58"/>
<polygon fill="black" stroke="black" points="205.73,-115.62 203.63,-109.62 201.53,-115.62 205.73,-115.62"/>
</g>
<!-- Particle_Beam_Strength_50 -->
<g id="node11" class="node">
<title>Particle_Beam_Strength_50</title>
<path fill="#f8d7da" stroke="black" d="M252.88,-36C252.88,-36 154.38,-36 154.38,-36 148.38,-36 142.38,-30 142.38,-24 142.38,-24 142.38,-12 142.38,-12 142.38,-6 148.38,0 154.38,0 154.38,0 252.88,0 252.88,0 258.88,0 264.88,-6 264.88,-12 264.88,-12 264.88,-24 264.88,-24 264.88,-30 258.88,-36 252.88,-36"/>
<text xml:space="preserve" text-anchor="middle" x="203.62" y="-19.2" font-family="Helvetica,sans-Serif" font-size="9.00">Particle Beam Strength 50</text>
<text xml:space="preserve" text-anchor="middle" x="203.62" y="-9.45" font-family="Helvetica,sans-Serif" font-size="9.00">2.0M RP</text>
</g>
<!-- Particle_Beam_Strength_36&#45;&gt;Particle_Beam_Strength_50 -->
<g id="edge10" class="edge">
<title>Particle_Beam_Strength_36&#45;&gt;Particle_Beam_Strength_50</title>
<path fill="none" stroke="black" d="M203.62,-71.7C203.62,-63.22 203.62,-52.86 203.62,-43.58"/>
<polygon fill="black" stroke="black" points="205.73,-43.62 203.63,-37.62 201.53,-43.62 205.73,-43.62"/>
</g>
<!-- ext_Trans_Newtonian_Technology -->
<g id="node12" class="node">
<title>ext_Trans_Newtonian_Technology</title>
<path fill="#f0f0f0" stroke="black" stroke-dasharray="5,2" d="M259.62,-756C259.62,-756 147.62,-756 147.62,-756 141.62,-756 135.62,-750 135.62,-744 135.62,-744 135.62,-732 135.62,-732 135.62,-726 141.62,-720 147.62,-720 147.62,-720 259.62,-720 259.62,-720 265.62,-720 271.62,-726 271.62,-732 271.62,-732 271.62,-744 271.62,-744 271.62,-750 265.62,-756 259.62,-756"/>
<text xml:space="preserve" text-anchor="middle" x="203.62" y="-734.33" font-family="Helvetica,sans-Serif" font-size="9.00">Trans&#45;Newtonian Technology</text>
</g>
<!-- ext_Trans_Newtonian_Technology&#45;&gt;Particle_Beam_Strength_3 -->
<g id="edge1" class="edge">
<title>ext_Trans_Newtonian_Technology&#45;&gt;Particle_Beam_Strength_3</title>
<path fill="none" stroke="black" d="M203.62,-719.7C203.62,-711.22 203.62,-700.86 203.62,-691.58"/>
<polygon fill="black" stroke="black" points="205.73,-691.62 203.63,-685.62 201.53,-691.62 205.73,-691.62"/>
</g>
</g>
</svg>
