<?xml version="1.0" encoding="UTF-8" standalone="no"?>
<!DOCTYPE svg PUBLIC "-//W3C//DTD SVG 1.1//EN"
 "http://www.w3.org/Graphics/SVG/1.1/DTD/svg11.dtd">
<!-- Generated by graphviz version 14.1.2 (20260124.0452)
 -->
<!-- Title: TechTree Pages: 1 -->
<svg width="419pt" height="137pt"
 viewBox="0.00 0.00 419.00 137.00" xmlns="http://www.w3.org/2000/svg" xmlns:xlink="http://www.w3.org/1999/xlink">
<g id="graph0" class="graph" transform="scale(1 1) rotate(0) translate(4 132.75)">
<title>TechTree</title>
<polygon fill="white" stroke="none" points="-4,4 -4,-132.75 415.25,-132.75 415.25,4 -4,4"/>
<text xml:space="preserve" text-anchor="middle" x="205.62" y="-113.35" font-family="Helvetica,sans-Serif" font-weight="bold" font-size="12.00">Particle Lance</text>
<!-- No_Lance_Technology -->
<g id="node1" class="node">
<title>No_Lance_Technology</title>
<path fill="#d4edda" stroke="black" d="M93.25,-108C93.25,-108 12,-108 12,-108 6,-108 0,-102 0,-96 0,-96 0,-84 0,-84 0,-78 6,-72 12,-72 12,-72 93.25,-72 93.25,-72 99.25,-72 105.25,-78 105.25,-84 105.25,-84 105.25,-96 105.25,-96 105.25,-102 99.25,-108 93.25,-108"/>
<text xml:space="preserve" text-anchor="middle" x="52.62" y="-91.2" font-family="Helvetica,sans-Serif" font-size="9.00">No Lance Technology</text>
<text xml:space="preserve" text-anchor="middle" x="52.62" y="-81.45" font-family="Helvetica,sans-Serif" font-size="9.00">1 RP</text>
</g>
<!-- Particle_Lance -->
<g id="node2" class="node">
<title>Particle_Lance</title>
<path fill="#fff3cd" stroke="black" d="M300.88,-36C300.88,-36 250.38,-36 250.38,-36 244.38,-36 238.38,-30 238.38,-24 238.38,-24 238.38,-12 238.38,-12 238.38,-6 244.38,0 250.38,0 250.38,0 300.88,0 300.88,0 306.88,0 312.88,-6 312.88,-12 312.88,-12 312.88,-24 312.88,-24 312.88,-30 306.88,-36 300.88,-36"/>
<text xml:space="preserve" text-anchor="middle" x="275.62" y="-19.2" font-family="Helvetica,sans-Serif" font-size="9.00">Particle Lance</text>
<text xml:space="preserve" text-anchor="middle" x="275.62" y="-9.45" font-family="Helvetica,sans-Serif" font-size="9.00">30K RP</text>
</g>
<!-- ext_Particle_Beam_Range_200_000_km -->
<g id="node3" class="node">
<title>ext_Particle_Beam_Range_200_000_km</title>
<path fill="#f0f0f0" stroke="black" stroke-dasharray="5,2" d="M264.25,-108C264.25,-108 135,-108 135,-108 129,-108 123,-102 123,-96 123,-96 123,-84 123,-84 123,-78 129,-72 135,-72 135,-72 264.25,-72 264.25,-72 270.25,-72 276.25,-78 276.25,-84 276.25,-84 276.25,-96 276.25,-96 276.25,-102 270.25,-108 264.25,-108"/>
<text xml:space="preserve" text-anchor="middle" x="199.62" y="-86.33" font-family="Helvetica,sans-Serif" font-size="9.00">Particle Beam Range 200,000 km</text>
</g>
<!-- ext_Particle_Beam_Range_200_000_km&#45;&gt;Particle_Lance -->
<g id="edge1" class="edge">
<title>ext_Particle_Beam_Range_200_000_km&#45;&gt;Particle_Lance</title>
<path fill="none" stroke="black" d="M218.41,-71.7C228.37,-62.53 240.71,-51.16 251.38,-41.33"/>
<polygon fill="black" stroke="black" points="252.69,-42.98 255.68,-37.37 249.84,-39.89 252.69,-42.98"/>
</g>
<!-- ext_Particle_Beam_Strength_6 -->
<g id="node4" class="node">
<title>ext_Particle_Beam_Strength_6</title>
<path fill="#f0f0f0" stroke="black" stroke-dasharray="5,2" d="M399.25,-108C399.25,-108 306,-108 306,-108 300,-108 294,-102 294,-96 294,-96 294,-84 294,-84 294,-78 300,-72 306,-72 306,-72 399.25,-72 399.25,-72 405.25,-72 411.25,-78 411.25,-84 411.25,-84 411.25,-96 411.25,-96 411.25,-102 405.25,-108 399.25,-108"/>
<text xml:space="preserve" text-anchor="middle" x="352.62" y="-86.33" font-family="Helvetica,sans-Serif" font-size="9.00">Particle Beam Strength 6</text>
</g>
<!-- ext_Particle_Beam_Strength_6&#45;&gt;Particle_Lance -->
<g id="edge2" class="edge">
<title>ext_Particle_Beam_Strength_6&#45;&gt;Particle_Lance</title>
<path fill="none" stroke="black" d="M333.59,-71.7C323.5,-62.53 311,-51.16 300.18,-41.33"/>
<polygon fill="black" stroke="black" points="301.68,-39.85 295.83,-37.37 298.85,-42.95 301.68,-39.85"/>
</g>
</g>
</svg>
