<?xml version="1.0" encoding="UTF-8" standalone="no"?>
<!DOCTYPE svg PUBLIC "-//W3C//DTD SVG 1.1//EN"
 "http://www.w3.org/Graphics/SVG/1.1/DTD/svg11.dtd">
<!-- Generated by graphviz version 14.1.2 (20260124.0452)
 -->
<!-- Title: TechTree Pages: 1 -->
<svg width="119pt" height="125pt"
 viewBox="0.00 0.00 119.00 125.00" xmlns="http://www.w3.org/2000/svg" xmlns:xlink="http://www.w3.org/1999/xlink">
<g id="graph0" class="graph" transform="scale(1 1) rotate(0) translate(4 121)">
<title>TechTree</title>
<polygon fill="white" stroke="none" points="-4,4 -4,-121 114.5,-121 114.5,4 -4,4"/>
<text xml:space="preserve" text-anchor="middle" x="55.25" y="-99.7" font-family="Helvetica,sans-Serif" font-weight="bold" font-size="14.00">Particle Lance</text>
<!-- No_Lance_Technology -->
<g id="node1" class="node">
<title>No_Lance_Technology</title>
<path fill="#d4edda" stroke="black" d="M98.5,-36C98.5,-36 12,-36 12,-36 6,-36 0,-30 0,-24 0,-24 0,-12 0,-12 0,-6 6,0 12,0 12,0 98.5,0 98.5,0 104.5,0 110.5,-6 110.5,-12 110.5,-12 110.5,-24 110.5,-24 110.5,-30 104.5,-36 98.5,-36"/>
<text xml:space="preserve" text-anchor="middle" x="55.25" y="-19.75" font-family="Helvetica,sans-Serif" font-size="10.00">No Lance Technology</text>
<text xml:space="preserve" text-anchor="middle" x="55.25" y="-8.5" font-family="Helvetica,sans-Serif" font-size="10.00">1 RP</text>
</g>
<!-- Particle_Lance -->
<g id="node2" class="node">
<title>Particle_Lance</title>
<path fill="#fff3cd" stroke="black" d="M82.38,-94C82.38,-94 28.12,-94 28.12,-94 22.12,-94 16.12,-88 16.12,-82 16.12,-82 16.12,-70 16.12,-70 16.12,-64 22.12,-58 28.12,-58 28.12,-58 82.38,-58 82.38,-58 88.38,-58 94.38,-64 94.38,-70 94.38,-70 94.38,-82 94.38,-82 94.38,-88 88.38,-94 82.38,-94"/>
<text xml:space="preserve" text-anchor="middle" x="55.25" y="-77.75" font-family="Helvetica,sans-Serif" font-size="10.00">Particle Lance</text>
<text xml:space="preserve" text-anchor="middle" x="55.25" y="-66.5" font-family="Helvetica,sans-Serif" font-size="10.00">30K RP</text>
</g>
</g>
</svg>
