<?xml version="1.0" encoding="UTF-8" standalone="no"?>
<!DOCTYPE svg PUBLIC "-//W3C//DTD SVG 1.1//EN"
 "http://www.w3.org/Graphics/SVG/1.1/DTD/svg11.dtd">
<!-- Generated by graphviz version 14.1.2 (20260124.0452)
 -->
<!-- Title: TechTree Pages: 1 -->
<svg width="284pt" height="652pt"
 viewBox="0.00 0.00 284.00 652.00" xmlns="http://www.w3.org/2000/svg" xmlns:xlink="http://www.w3.org/1999/xlink">
<g id="graph0" class="graph" transform="scale(1 1) rotate(0) translate(4 648)">
<title>TechTree</title>
<polygon fill="white" stroke="none" points="-4,4 -4,-648 280.12,-648 280.12,4 -4,4"/>
<text xml:space="preserve" text-anchor="middle" x="138.06" y="-626.7" font-family="Helvetica,sans-Serif" font-weight="bold" font-size="14.00">Particle Beam Strength</text>
<!-- Particle_Beam_Strength_2 -->
<g id="node1" class="node">
<title>Particle_Beam_Strength_2</title>
<path fill="#cce5ff" stroke="black" d="M113.5,-621C113.5,-621 12,-621 12,-621 6,-621 0,-615 0,-609 0,-609 0,-597 0,-597 0,-591 6,-585 12,-585 12,-585 113.5,-585 113.5,-585 119.5,-585 125.5,-591 125.5,-597 125.5,-597 125.5,-609 125.5,-609 125.5,-615 119.5,-621 113.5,-621"/>
<text xml:space="preserve" text-anchor="middle" x="62.75" y="-604.75" font-family="Helvetica,sans-Serif" font-size="10.00">Particle Beam Strength 2</text>
<text xml:space="preserve" text-anchor="middle" x="62.75" y="-593.5" font-family="Helvetica,sans-Serif" font-size="10.00">2K RP</text>
</g>
<!-- Particle_Beam_Strength_3 -->
<g id="node2" class="node">
<title>Particle_Beam_Strength_3</title>
<path fill="#cce5ff" stroke="black" d="M261.5,-621C261.5,-621 160,-621 160,-621 154,-621 148,-615 148,-609 148,-609 148,-597 148,-597 148,-591 154,-585 160,-585 160,-585 261.5,-585 261.5,-585 267.5,-585 273.5,-591 273.5,-597 273.5,-597 273.5,-609 273.5,-609 273.5,-615 267.5,-621 261.5,-621"/>
<text xml:space="preserve" text-anchor="middle" x="210.75" y="-604.75" font-family="Helvetica,sans-Serif" font-size="10.00">Particle Beam Strength 3</text>
<text xml:space="preserve" text-anchor="middle" x="210.75" y="-593.5" font-family="Helvetica,sans-Serif" font-size="10.00">4K RP</text>
</g>
<!-- Particle_Beam_Strength_4 -->
<g id="node3" class="node">
<title>Particle_Beam_Strength_4</title>
<path fill="#cce5ff" stroke="black" d="M261.5,-556C261.5,-556 160,-556 160,-556 154,-556 148,-550 148,-544 148,-544 148,-532 148,-532 148,-526 154,-520 160,-520 160,-520 261.5,-520 261.5,-520 267.5,-520 273.5,-526 273.5,-532 273.5,-532 273.5,-544 273.5,-544 273.5,-550 267.5,-556 261.5,-556"/>
<text xml:space="preserve" text-anchor="middle" x="210.75" y="-539.75" font-family="Helvetica,sans-Serif" font-size="10.00">Particle Beam Strength 4</text>
<text xml:space="preserve" text-anchor="middle" x="210.75" y="-528.5" font-family="Helvetica,sans-Serif" font-size="10.00">8K RP</text>
</g>
<!-- Particle_Beam_Strength_3&#45;&gt;Particle_Beam_Strength_4 -->
<g id="edge1" class="edge">
<title>Particle_Beam_Strength_3&#45;&gt;Particle_Beam_Strength_4</title>
<path fill="none" stroke="black" d="M210.75,-584.78C210.75,-578.53 210.75,-571.33 210.75,-564.52"/>
<polygon fill="black" stroke="black" points="213.2,-564.71 210.75,-557.71 208.3,-564.71 213.2,-564.71"/>
</g>
<!-- Particle_Beam_Strength_6 -->
<g id="node4" class="node">
<title>Particle_Beam_Strength_6</title>
<path fill="#fff3cd" stroke="black" d="M261.5,-491C261.5,-491 160,-491 160,-491 154,-491 148,-485 148,-479 148,-479 148,-467 148,-467 148,-461 154,-455 160,-455 160,-455 261.5,-455 261.5,-455 267.5,-455 273.5,-461 273.5,-467 273.5,-467 273.5,-479 273.5,-479 273.5,-485 267.5,-491 261.5,-491"/>
<text xml:space="preserve" text-anchor="middle" x="210.75" y="-474.75" font-family="Helvetica,sans-Serif" font-size="10.00">Particle Beam Strength 6</text>
<text xml:space="preserve" text-anchor="middle" x="210.75" y="-463.5" font-family="Helvetica,sans-Serif" font-size="10.00">15K RP</text>
</g>
<!-- Particle_Beam_Strength_4&#45;&gt;Particle_Beam_Strength_6 -->
<g id="edge2" class="edge">
<title>Particle_Beam_Strength_4&#45;&gt;Particle_Beam_Strength_6</title>
<path fill="none" stroke="black" d="M210.75,-519.78C210.75,-513.53 210.75,-506.33 210.75,-499.52"/>
<polygon fill="black" stroke="black" points="213.2,-499.71 210.75,-492.71 208.3,-499.71 213.2,-499.71"/>
</g>
<!-- Particle_Beam_Strength_9 -->
<g id="node5" class="node">
<title>Particle_Beam_Strength_9</title>
<path fill="#fff3cd" stroke="black" d="M261.5,-426C261.5,-426 160,-426 160,-426 154,-426 148,-420 148,-414 148,-414 148,-402 148,-402 148,-396 154,-390 160,-390 160,-390 261.5,-390 261.5,-390 267.5,-390 273.5,-396 273.5,-402 273.5,-402 273.5,-414 273.5,-414 273.5,-420 267.5,-426 261.5,-426"/>
<text xml:space="preserve" text-anchor="middle" x="210.75" y="-409.75" font-family="Helvetica,sans-Serif" font-size="10.00">Particle Beam Strength 9</text>
<text xml:space="preserve" text-anchor="middle" x="210.75" y="-398.5" font-family="Helvetica,sans-Serif" font-size="10.00">30K RP</text>
</g>
<!-- Particle_Beam_Strength_6&#45;&gt;Particle_Beam_Strength_9 -->
<g id="edge3" class="edge">
<title>Particle_Beam_Strength_6&#45;&gt;Particle_Beam_Strength_9</title>
<path fill="none" stroke="black" d="M210.75,-454.78C210.75,-448.53 210.75,-441.33 210.75,-434.52"/>
<polygon fill="black" stroke="black" points="213.2,-434.71 210.75,-427.71 208.3,-434.71 213.2,-434.71"/>
</g>
<!-- Particle_Beam_Strength_12 -->
<g id="node6" class="node">
<title>Particle_Beam_Strength_12</title>
<path fill="#fff3cd" stroke="black" d="M264.12,-361C264.12,-361 157.38,-361 157.38,-361 151.38,-361 145.38,-355 145.38,-349 145.38,-349 145.38,-337 145.38,-337 145.38,-331 151.38,-325 157.38,-325 157.38,-325 264.12,-325 264.12,-325 270.12,-325 276.12,-331 276.12,-337 276.12,-337 276.12,-349 276.12,-349 276.12,-355 270.12,-361 264.12,-361"/>
<text xml:space="preserve" text-anchor="middle" x="210.75" y="-344.75" font-family="Helvetica,sans-Serif" font-size="10.00">Particle Beam Strength 12</text>
<text xml:space="preserve" text-anchor="middle" x="210.75" y="-333.5" font-family="Helvetica,sans-Serif" font-size="10.00">60K RP</text>
</g>
<!-- Particle_Beam_Strength_9&#45;&gt;Particle_Beam_Strength_12 -->
<g id="edge4" class="edge">
<title>Particle_Beam_Strength_9&#45;&gt;Particle_Beam_Strength_12</title>
<path fill="none" stroke="black" d="M210.75,-389.78C210.75,-383.53 210.75,-376.33 210.75,-369.52"/>
<polygon fill="black" stroke="black" points="213.2,-369.71 210.75,-362.71 208.3,-369.71 213.2,-369.71"/>
</g>
<!-- Particle_Beam_Strength_16 -->
<g id="node7" class="node">
<title>Particle_Beam_Strength_16</title>
<path fill="#d4c4fb" stroke="black" d="M264.12,-296C264.12,-296 157.38,-296 157.38,-296 151.38,-296 145.38,-290 145.38,-284 145.38,-284 145.38,-272 145.38,-272 145.38,-266 151.38,-260 157.38,-260 157.38,-260 264.12,-260 264.12,-260 270.12,-260 276.12,-266 276.12,-272 276.12,-272 276.12,-284 276.12,-284 276.12,-290 270.12,-296 264.12,-296"/>
<text xml:space="preserve" text-anchor="middle" x="210.75" y="-279.75" font-family="Helvetica,sans-Serif" font-size="10.00">Particle Beam Strength 16</text>
<text xml:space="preserve" text-anchor="middle" x="210.75" y="-268.5" font-family="Helvetica,sans-Serif" font-size="10.00">125K RP</text>
</g>
<!-- Particle_Beam_Strength_12&#45;&gt;Particle_Beam_Strength_16 -->
<g id="edge5" class="edge">
<title>Particle_Beam_Strength_12&#45;&gt;Particle_Beam_Strength_16</title>
<path fill="none" stroke="black" d="M210.75,-324.78C210.75,-318.53 210.75,-311.33 210.75,-304.52"/>
<polygon fill="black" stroke="black" points="213.2,-304.71 210.75,-297.71 208.3,-304.71 213.2,-304.71"/>
</g>
<!-- Particle_Beam_Strength_20 -->
<g id="node8" class="node">
<title>Particle_Beam_Strength_20</title>
<path fill="#d4c4fb" stroke="black" d="M264.12,-231C264.12,-231 157.38,-231 157.38,-231 151.38,-231 145.38,-225 145.38,-219 145.38,-219 145.38,-207 145.38,-207 145.38,-201 151.38,-195 157.38,-195 157.38,-195 264.12,-195 264.12,-195 270.12,-195 276.12,-201 276.12,-207 276.12,-207 276.12,-219 276.12,-219 276.12,-225 270.12,-231 264.12,-231"/>
<text xml:space="preserve" text-anchor="middle" x="210.75" y="-214.75" font-family="Helvetica,sans-Serif" font-size="10.00">Particle Beam Strength 20</text>
<text xml:space="preserve" text-anchor="middle" x="210.75" y="-203.5" font-family="Helvetica,sans-Serif" font-size="10.00">250K RP</text>
</g>
<!-- Particle_Beam_Strength_16&#45;&gt;Particle_Beam_Strength_20 -->
<g id="edge6" class="edge">
<title>Particle_Beam_Strength_16&#45;&gt;Particle_Beam_Strength_20</title>
<path fill="none" stroke="black" d="M210.75,-259.78C210.75,-253.53 210.75,-246.33 210.75,-239.52"/>
<polygon fill="black" stroke="black" points="213.2,-239.71 210.75,-232.71 208.3,-239.71 213.2,-239.71"/>
</g>
<!-- Particle_Beam_Strength_25 -->
<g id="node9" class="node">
<title>Particle_Beam_Strength_25</title>
<path fill="#d4c4fb" stroke="black" d="M264.12,-166C264.12,-166 157.38,-166 157.38,-166 151.38,-166 145.38,-160 145.38,-154 145.38,-154 145.38,-142 145.38,-142 145.38,-136 151.38,-130 157.38,-130 157.38,-130 264.12,-130 264.12,-130 270.12,-130 276.12,-136 276.12,-142 276.12,-142 276.12,-154 276.12,-154 276.12,-160 270.12,-166 264.12,-166"/>
<text xml:space="preserve" text-anchor="middle" x="210.75" y="-149.75" font-family="Helvetica,sans-Serif" font-size="10.00">Particle Beam Strength 25</text>
<text xml:space="preserve" text-anchor="middle" x="210.75" y="-138.5" font-family="Helvetica,sans-Serif" font-size="10.00">500K RP</text>
</g>
<!-- Particle_Beam_Strength_20&#45;&gt;Particle_Beam_Strength_25 -->
<g id="edge7" class="edge">
<title>Particle_Beam_Strength_20&#45;&gt;Particle_Beam_Strength_25</title>
<path fill="none" stroke="black" d="M210.75,-194.78C210.75,-188.53 210.75,-181.33 210.75,-174.52"/>
<polygon fill="black" stroke="black" points="213.2,-174.71 210.75,-167.71 208.3,-174.71 213.2,-174.71"/>
</g>
<!-- Particle_Beam_Strength_36 -->
<g id="node10" class="node">
<title>Particle_Beam_Strength_36</title>
<path fill="#d4c4fb" stroke="black" d="M264.12,-101C264.12,-101 157.38,-101 157.38,-101 151.38,-101 145.38,-95 145.38,-89 145.38,-89 145.38,-77 145.38,-77 145.38,-71 151.38,-65 157.38,-65 157.38,-65 264.12,-65 264.12,-65 270.12,-65 276.12,-71 276.12,-77 276.12,-77 276.12,-89 276.12,-89 276.12,-95 270.12,-101 264.12,-101"/>
<text xml:space="preserve" text-anchor="middle" x="210.75" y="-84.75" font-family="Helvetica,sans-Serif" font-size="10.00">Particle Beam Strength 36</text>
<text xml:space="preserve" text-anchor="middle" x="210.75" y="-73.5" font-family="Helvetica,sans-Serif" font-size="10.00">1.0M RP</text>
</g>
<!-- Particle_Beam_Strength_25&#45;&gt;Particle_Beam_Strength_36 -->
<g id="edge8" class="edge">
<title>Particle_Beam_Strength_25&#45;&gt;Particle_Beam_Strength_36</title>
<path fill="none" stroke="black" d="M210.75,-129.78C210.75,-123.53 210.75,-116.33 210.75,-109.52"/>
<polygon fill="black" stroke="black" points="213.2,-109.71 210.75,-102.71 208.3,-109.71 213.2,-109.71"/>
</g>
<!-- Particle_Beam_Strength_50 -->
<g id="node11" class="node">
<title>Particle_Beam_Strength_50</title>
<path fill="#f8d7da" stroke="black" d="M264.12,-36C264.12,-36 157.38,-36 157.38,-36 151.38,-36 145.38,-30 145.38,-24 145.38,-24 145.38,-12 145.38,-12 145.38,-6 151.38,0 157.38,0 157.38,0 264.12,0 264.12,0 270.12,0 276.12,-6 276.12,-12 276.12,-12 276.12,-24 276.12,-24 276.12,-30 270.12,-36 264.12,-36"/>
<text xml:space="preserve" text-anchor="middle" x="210.75" y="-19.75" font-family="Helvetica,sans-Serif" font-size="10.00">Particle Beam Strength 50</text>
<text xml:space="preserve" text-anchor="middle" x="210.75" y="-8.5" font-family="Helvetica,sans-Serif" font-size="10.00">2.0M RP</text>
</g>
<!-- Particle_Beam_Strength_36&#45;&gt;Particle_Beam_Strength_50 -->
<g id="edge9" class="edge">
<title>Particle_Beam_Strength_36&#45;&gt;Particle_Beam_Strength_50</title>
<path fill="none" stroke="black" d="M210.75,-64.78C210.75,-58.53 210.75,-51.33 210.75,-44.52"/>
<polygon fill="black" stroke="black" points="213.2,-44.71 210.75,-37.71 208.3,-44.71 213.2,-44.71"/>
</g>
</g>
</svg>
