<?xml version="1.0" encoding="UTF-8" standalone="no"?>
<!DOCTYPE svg PUBLIC "-//W3C//DTD SVG 1.1//EN"
 "http://www.w3.org/Graphics/SVG/1.1/DTD/svg11.dtd">
<!-- Generated by graphviz version 14.1.2 (20260124.0452)
 -->
<!-- Title: TechTree Pages: 1 -->
<svg width="172pt" height="209pt"
 viewBox="0.00 0.00 172.00 209.00" xmlns="http://www.w3.org/2000/svg" xmlns:xlink="http://www.w3.org/1999/xlink">
<g id="graph0" class="graph" transform="scale(1 1) rotate(0) translate(4 204.75)">
<title>TechTree</title>
<polygon fill="white" stroke="none" points="-4,4 -4,-204.75 167.75,-204.75 167.75,4 -4,4"/>
<text xml:space="preserve" text-anchor="middle" x="81.88" y="-185.35" font-family="Helvetica,sans-Serif" font-weight="bold" font-size="12.00">Passenger Accomodation</text>
<!-- Passenger_Accomodation -->
<g id="node1" class="node">
<title>Passenger_Accomodation</title>
<path fill="#d4edda" stroke="black" d="M130.38,-108C130.38,-108 33.38,-108 33.38,-108 27.38,-108 21.38,-102 21.38,-96 21.38,-96 21.38,-84 21.38,-84 21.38,-78 27.38,-72 33.38,-72 33.38,-72 130.38,-72 130.38,-72 136.38,-72 142.38,-78 142.38,-84 142.38,-84 142.38,-96 142.38,-96 142.38,-102 136.38,-108 130.38,-108"/>
<text xml:space="preserve" text-anchor="middle" x="81.88" y="-91.2" font-family="Helvetica,sans-Serif" font-size="9.00">Passenger Accomodation</text>
<text xml:space="preserve" text-anchor="middle" x="81.88" y="-81.45" font-family="Helvetica,sans-Serif" font-size="9.00">1 RP</text>
</g>
<!-- Passenger_Accomodation___Small -->
<g id="node2" class="node">
<title>Passenger_Accomodation___Small</title>
<path fill="#d4edda" stroke="black" d="M145.75,-36C145.75,-36 18,-36 18,-36 12,-36 6,-30 6,-24 6,-24 6,-12 6,-12 6,-6 12,0 18,0 18,0 145.75,0 145.75,0 151.75,0 157.75,-6 157.75,-12 157.75,-12 157.75,-24 157.75,-24 157.75,-30 151.75,-36 145.75,-36"/>
<text xml:space="preserve" text-anchor="middle" x="81.88" y="-19.2" font-family="Helvetica,sans-Serif" font-size="9.00">Passenger Accomodation &#45; Small</text>
<text xml:space="preserve" text-anchor="middle" x="81.88" y="-9.45" font-family="Helvetica,sans-Serif" font-size="9.00">100 RP</text>
</g>
<!-- Passenger_Accomodation&#45;&gt;Passenger_Accomodation___Small -->
<g id="edge2" class="edge">
<title>Passenger_Accomodation&#45;&gt;Passenger_Accomodation___Small</title>
<path fill="none" stroke="black" d="M81.88,-71.7C81.88,-63.22 81.88,-52.86 81.88,-43.58"/>
<polygon fill="black" stroke="black" points="83.98,-43.62 81.88,-37.62 79.78,-43.62 83.98,-43.62"/>
</g>
<!-- ext_Trans_Newtonian_Technology -->
<g id="node3" class="node">
<title>ext_Trans_Newtonian_Technology</title>
<path fill="#f0f0f0" stroke="black" stroke-dasharray="5,2" d="M137.88,-180C137.88,-180 25.88,-180 25.88,-180 19.87,-180 13.88,-174 13.88,-168 13.88,-168 13.88,-156 13.88,-156 13.88,-150 19.88,-144 25.88,-144 25.88,-144 137.88,-144 137.88,-144 143.88,-144 149.88,-150 149.88,-156 149.88,-156 149.88,-168 149.88,-168 149.88,-174 143.88,-180 137.88,-180"/>
<text xml:space="preserve" text-anchor="middle" x="81.88" y="-158.32" font-family="Helvetica,sans-Serif" font-size="9.00">Trans&#45;Newtonian Technology</text>
</g>
<!-- ext_Trans_Newtonian_Technology&#45;&gt;Passenger_Accomodation -->
<g id="edge1" class="edge">
<title>ext_Trans_Newtonian_Technology&#45;&gt;Passenger_Accomodation</title>
<path fill="none" stroke="black" d="M81.88,-143.7C81.88,-135.22 81.88,-124.86 81.88,-115.58"/>
<polygon fill="black" stroke="black" points="83.98,-115.62 81.88,-109.62 79.78,-115.62 83.98,-115.62"/>
</g>
</g>
</svg>
