<?xml version="1.0" encoding="UTF-8" standalone="no"?>
<!DOCTYPE svg PUBLIC "-//W3C//DTD SVG 1.1//EN"
 "http://www.w3.org/Graphics/SVG/1.1/DTD/svg11.dtd">
<!-- Generated by graphviz version 14.1.2 (20260124.0452)
 -->
<!-- Title: TechTree Pages: 1 -->
<svg width="325pt" height="67pt"
 viewBox="0.00 0.00 325.00 67.00" xmlns="http://www.w3.org/2000/svg" xmlns:xlink="http://www.w3.org/1999/xlink">
<g id="graph0" class="graph" transform="scale(1 1) rotate(0) translate(4 63)">
<title>TechTree</title>
<polygon fill="white" stroke="none" points="-4,4 -4,-63 320.75,-63 320.75,4 -4,4"/>
<text xml:space="preserve" text-anchor="middle" x="158.38" y="-41.7" font-family="Helvetica,sans-Serif" font-weight="bold" font-size="14.00">Passenger Accomodation</text>
<!-- Passenger_Accomodation -->
<g id="node1" class="node">
<title>Passenger_Accomodation</title>
<path fill="#d4edda" stroke="black" d="M115,-36C115,-36 12,-36 12,-36 6,-36 0,-30 0,-24 0,-24 0,-12 0,-12 0,-6 6,0 12,0 12,0 115,0 115,0 121,0 127,-6 127,-12 127,-12 127,-24 127,-24 127,-30 121,-36 115,-36"/>
<text xml:space="preserve" text-anchor="middle" x="63.5" y="-19.75" font-family="Helvetica,sans-Serif" font-size="10.00">Passenger Accomodation</text>
<text xml:space="preserve" text-anchor="middle" x="63.5" y="-8.5" font-family="Helvetica,sans-Serif" font-size="10.00">1 RP</text>
</g>
<!-- Passenger_Accomodation___Small -->
<g id="node2" class="node">
<title>Passenger_Accomodation___Small</title>
<path fill="#d4edda" stroke="black" d="M304.75,-36C304.75,-36 168,-36 168,-36 162,-36 156,-30 156,-24 156,-24 156,-12 156,-12 156,-6 162,0 168,0 168,0 304.75,0 304.75,0 310.75,0 316.75,-6 316.75,-12 316.75,-12 316.75,-24 316.75,-24 316.75,-30 310.75,-36 304.75,-36"/>
<text xml:space="preserve" text-anchor="middle" x="236.38" y="-19.75" font-family="Helvetica,sans-Serif" font-size="10.00">Passenger Accomodation &#45; Small</text>
<text xml:space="preserve" text-anchor="middle" x="236.38" y="-8.5" font-family="Helvetica,sans-Serif" font-size="10.00">100 RP</text>
</g>
<!-- Passenger_Accomodation&#45;&gt;Passenger_Accomodation___Small -->
<g id="edge1" class="edge">
<title>Passenger_Accomodation&#45;&gt;Passenger_Accomodation___Small</title>
<path fill="none" stroke="black" d="M127.16,-18C133.65,-18 140.34,-18 147.05,-18"/>
<polygon fill="black" stroke="black" points="147.03,-20.45 154.03,-18 147.03,-15.55 147.03,-20.45"/>
</g>
</g>
</svg>
