<?xml version="1.0" encoding="UTF-8" standalone="no"?>
<!DOCTYPE svg PUBLIC "-//W3C//DTD SVG 1.1//EN"
 "http://www.w3.org/Graphics/SVG/1.1/DTD/svg11.dtd">
<!-- Generated by graphviz version 14.1.2 (20260124.0452)
 -->
<!-- Title: TechTree Pages: 1 -->
<svg width="115pt" height="125pt"
 viewBox="0.00 0.00 115.00 125.00" xmlns="http://www.w3.org/2000/svg" xmlns:xlink="http://www.w3.org/1999/xlink">
<g id="graph0" class="graph" transform="scale(1 1) rotate(0) translate(4 121)">
<title>TechTree</title>
<polygon fill="white" stroke="none" points="-4,4 -4,-121 110.75,-121 110.75,4 -4,4"/>
<text xml:space="preserve" text-anchor="middle" x="53.38" y="-99.7" font-family="Helvetica,sans-Serif" font-weight="bold" font-size="14.00">Platform Type</text>
<!-- Ship_based_System -->
<g id="node1" class="node">
<title>Ship_based_System</title>
<path fill="#d4edda" stroke="black" d="M92.12,-36C92.12,-36 14.62,-36 14.62,-36 8.63,-36 2.62,-30 2.62,-24 2.62,-24 2.62,-12 2.62,-12 2.62,-6 8.62,0 14.62,0 14.62,0 92.12,0 92.12,0 98.12,0 104.12,-6 104.12,-12 104.12,-12 104.12,-24 104.12,-24 104.12,-30 98.12,-36 92.12,-36"/>
<text xml:space="preserve" text-anchor="middle" x="53.38" y="-19.75" font-family="Helvetica,sans-Serif" font-size="10.00">Ship&#45;based System</text>
<text xml:space="preserve" text-anchor="middle" x="53.38" y="-8.5" font-family="Helvetica,sans-Serif" font-size="10.00">1 RP</text>
</g>
<!-- PDC_based_System -->
<g id="node2" class="node">
<title>PDC_based_System</title>
<path fill="#d4edda" stroke="black" d="M93.25,-94C93.25,-94 13.5,-94 13.5,-94 7.5,-94 1.5,-88 1.5,-82 1.5,-82 1.5,-70 1.5,-70 1.5,-64 7.5,-58 13.5,-58 13.5,-58 93.25,-58 93.25,-58 99.25,-58 105.25,-64 105.25,-70 105.25,-70 105.25,-82 105.25,-82 105.25,-88 99.25,-94 93.25,-94"/>
<text xml:space="preserve" text-anchor="middle" x="53.38" y="-77.75" font-family="Helvetica,sans-Serif" font-size="10.00">PDC&#45;based System</text>
<text xml:space="preserve" text-anchor="middle" x="53.38" y="-66.5" font-family="Helvetica,sans-Serif" font-size="10.00">2 RP</text>
</g>
</g>
</svg>
