<?xml version="1.0" encoding="UTF-8" standalone="no"?>
<!DOCTYPE svg PUBLIC "-//W3C//DTD SVG 1.1//EN"
 "http://www.w3.org/Graphics/SVG/1.1/DTD/svg11.dtd">
<!-- Generated by graphviz version 14.1.2 (20260124.0452)
 -->
<!-- Title: TechTree Pages: 1 -->
<svg width="268pt" height="569pt"
 viewBox="0.00 0.00 268.00 569.00" xmlns="http://www.w3.org/2000/svg" xmlns:xlink="http://www.w3.org/1999/xlink">
<g id="graph0" class="graph" transform="scale(1 1) rotate(0) translate(4 564.75)">
<title>TechTree</title>
<polygon fill="white" stroke="none" points="-4,4 -4,-564.75 263.62,-564.75 263.62,4 -4,4"/>
<text xml:space="preserve" text-anchor="middle" x="129.81" y="-545.35" font-family="Helvetica,sans-Serif" font-weight="bold" font-size="12.00">Power vs Efficiency</text>
<!-- No_Power_Plant_Boost -->
<g id="node1" class="node">
<title>No_Power_Plant_Boost</title>
<path fill="#d4edda" stroke="black" d="M93.25,-540C93.25,-540 12,-540 12,-540 6,-540 0,-534 0,-528 0,-528 0,-516 0,-516 0,-510 6,-504 12,-504 12,-504 93.25,-504 93.25,-504 99.25,-504 105.25,-510 105.25,-516 105.25,-516 105.25,-528 105.25,-528 105.25,-534 99.25,-540 93.25,-540"/>
<text xml:space="preserve" text-anchor="middle" x="52.62" y="-523.2" font-family="Helvetica,sans-Serif" font-size="9.00">No Power Plant Boost</text>
<text xml:space="preserve" text-anchor="middle" x="52.62" y="-513.45" font-family="Helvetica,sans-Serif" font-size="9.00">250 RP</text>
</g>
<!-- Power_Plant_Boost_10___Explosi -->
<g id="node2" class="node">
<title>Power_Plant_Boost_10___Explosi</title>
<path fill="#d4edda" stroke="black" d="M196,-468C196,-468 47.25,-468 47.25,-468 41.25,-468 35.25,-462 35.25,-456 35.25,-456 35.25,-444 35.25,-444 35.25,-438 41.25,-432 47.25,-432 47.25,-432 196,-432 196,-432 202,-432 208,-438 208,-444 208,-444 208,-456 208,-456 208,-462 202,-468 196,-468"/>
<text xml:space="preserve" text-anchor="middle" x="121.62" y="-451.2" font-family="Helvetica,sans-Serif" font-size="9.00">Power Plant Boost 10%, Explosion 7%</text>
<text xml:space="preserve" text-anchor="middle" x="121.62" y="-441.45" font-family="Helvetica,sans-Serif" font-size="9.00">500 RP</text>
</g>
<!-- No_Power_Plant_Boost&#45;&gt;Power_Plant_Boost_10___Explosi -->
<g id="edge1" class="edge">
<title>No_Power_Plant_Boost&#45;&gt;Power_Plant_Boost_10___Explosi</title>
<path fill="none" stroke="black" d="M69.68,-503.7C78.71,-494.54 89.89,-483.19 99.57,-473.38"/>
<polygon fill="black" stroke="black" points="100.99,-474.93 103.7,-469.18 97.99,-471.98 100.99,-474.93"/>
</g>
<!-- Power_Plant_Boost_20___Explosi -->
<g id="node3" class="node">
<title>Power_Plant_Boost_20___Explosi</title>
<path fill="#cce5ff" stroke="black" d="M198.62,-396C198.62,-396 44.62,-396 44.62,-396 38.62,-396 32.62,-390 32.62,-384 32.62,-384 32.62,-372 32.62,-372 32.62,-366 38.62,-360 44.62,-360 44.62,-360 198.62,-360 198.62,-360 204.62,-360 210.62,-366 210.62,-372 210.62,-372 210.62,-384 210.62,-384 210.62,-390 204.62,-396 198.62,-396"/>
<text xml:space="preserve" text-anchor="middle" x="121.62" y="-379.2" font-family="Helvetica,sans-Serif" font-size="9.00">Power Plant Boost 20%, Explosion 10%</text>
<text xml:space="preserve" text-anchor="middle" x="121.62" y="-369.45" font-family="Helvetica,sans-Serif" font-size="9.00">1K RP</text>
</g>
<!-- Power_Plant_Boost_10___Explosi&#45;&gt;Power_Plant_Boost_20___Explosi -->
<g id="edge3" class="edge">
<title>Power_Plant_Boost_10___Explosi&#45;&gt;Power_Plant_Boost_20___Explosi</title>
<path fill="none" stroke="black" d="M121.62,-431.7C121.62,-423.22 121.62,-412.86 121.62,-403.58"/>
<polygon fill="black" stroke="black" points="123.73,-403.62 121.63,-397.62 119.53,-403.62 123.73,-403.62"/>
</g>
<!-- Power_Plant_Boost_30___Explosi -->
<g id="node4" class="node">
<title>Power_Plant_Boost_30___Explosi</title>
<path fill="#cce5ff" stroke="black" d="M198.62,-324C198.62,-324 44.62,-324 44.62,-324 38.62,-324 32.62,-318 32.62,-312 32.62,-312 32.62,-300 32.62,-300 32.62,-294 38.62,-288 44.62,-288 44.62,-288 198.62,-288 198.62,-288 204.62,-288 210.62,-294 210.62,-300 210.62,-300 210.62,-312 210.62,-312 210.62,-318 204.62,-324 198.62,-324"/>
<text xml:space="preserve" text-anchor="middle" x="121.62" y="-307.2" font-family="Helvetica,sans-Serif" font-size="9.00">Power Plant Boost 30%, Explosion 15%</text>
<text xml:space="preserve" text-anchor="middle" x="121.62" y="-297.45" font-family="Helvetica,sans-Serif" font-size="9.00">2K RP</text>
</g>
<!-- Power_Plant_Boost_20___Explosi&#45;&gt;Power_Plant_Boost_30___Explosi -->
<g id="edge4" class="edge">
<title>Power_Plant_Boost_20___Explosi&#45;&gt;Power_Plant_Boost_30___Explosi</title>
<path fill="none" stroke="black" d="M121.62,-359.7C121.62,-351.22 121.62,-340.86 121.62,-331.58"/>
<polygon fill="black" stroke="black" points="123.73,-331.62 121.63,-325.62 119.53,-331.62 123.73,-331.62"/>
</g>
<!-- Power_Plant_Boost_40___Explosi -->
<g id="node5" class="node">
<title>Power_Plant_Boost_40___Explosi</title>
<path fill="#cce5ff" stroke="black" d="M198.62,-252C198.62,-252 44.62,-252 44.62,-252 38.62,-252 32.62,-246 32.62,-240 32.62,-240 32.62,-228 32.62,-228 32.62,-222 38.62,-216 44.62,-216 44.62,-216 198.62,-216 198.62,-216 204.62,-216 210.62,-222 210.62,-228 210.62,-228 210.62,-240 210.62,-240 210.62,-246 204.62,-252 198.62,-252"/>
<text xml:space="preserve" text-anchor="middle" x="121.62" y="-235.2" font-family="Helvetica,sans-Serif" font-size="9.00">Power Plant Boost 40%, Explosion 20%</text>
<text xml:space="preserve" text-anchor="middle" x="121.62" y="-225.45" font-family="Helvetica,sans-Serif" font-size="9.00">4K RP</text>
</g>
<!-- Power_Plant_Boost_30___Explosi&#45;&gt;Power_Plant_Boost_40___Explosi -->
<g id="edge5" class="edge">
<title>Power_Plant_Boost_30___Explosi&#45;&gt;Power_Plant_Boost_40___Explosi</title>
<path fill="none" stroke="black" d="M121.62,-287.7C121.62,-279.22 121.62,-268.86 121.62,-259.58"/>
<polygon fill="black" stroke="black" points="123.73,-259.62 121.63,-253.62 119.53,-259.62 123.73,-259.62"/>
</g>
<!-- Power_Plant_Boost_60___Explosi -->
<g id="node6" class="node">
<title>Power_Plant_Boost_60___Explosi</title>
<path fill="#cce5ff" stroke="black" d="M198.62,-180C198.62,-180 44.62,-180 44.62,-180 38.62,-180 32.62,-174 32.62,-168 32.62,-168 32.62,-156 32.62,-156 32.62,-150 38.62,-144 44.62,-144 44.62,-144 198.62,-144 198.62,-144 204.62,-144 210.62,-150 210.62,-156 210.62,-156 210.62,-168 210.62,-168 210.62,-174 204.62,-180 198.62,-180"/>
<text xml:space="preserve" text-anchor="middle" x="121.62" y="-163.2" font-family="Helvetica,sans-Serif" font-size="9.00">Power Plant Boost 60%, Explosion 30%</text>
<text xml:space="preserve" text-anchor="middle" x="121.62" y="-153.45" font-family="Helvetica,sans-Serif" font-size="9.00">8K RP</text>
</g>
<!-- Power_Plant_Boost_40___Explosi&#45;&gt;Power_Plant_Boost_60___Explosi -->
<g id="edge6" class="edge">
<title>Power_Plant_Boost_40___Explosi&#45;&gt;Power_Plant_Boost_60___Explosi</title>
<path fill="none" stroke="black" d="M121.62,-215.7C121.62,-207.22 121.62,-196.86 121.62,-187.58"/>
<polygon fill="black" stroke="black" points="123.73,-187.62 121.63,-181.62 119.53,-187.62 123.73,-187.62"/>
</g>
<!-- Power_Plant_Boost_80___Explosi -->
<g id="node7" class="node">
<title>Power_Plant_Boost_80___Explosi</title>
<path fill="#fff3cd" stroke="black" d="M198.62,-108C198.62,-108 44.62,-108 44.62,-108 38.62,-108 32.62,-102 32.62,-96 32.62,-96 32.62,-84 32.62,-84 32.62,-78 38.62,-72 44.62,-72 44.62,-72 198.62,-72 198.62,-72 204.62,-72 210.62,-78 210.62,-84 210.62,-84 210.62,-96 210.62,-96 210.62,-102 204.62,-108 198.62,-108"/>
<text xml:space="preserve" text-anchor="middle" x="121.62" y="-91.2" font-family="Helvetica,sans-Serif" font-size="9.00">Power Plant Boost 80%, Explosion 40%</text>
<text xml:space="preserve" text-anchor="middle" x="121.62" y="-81.45" font-family="Helvetica,sans-Serif" font-size="9.00">15K RP</text>
</g>
<!-- Power_Plant_Boost_60___Explosi&#45;&gt;Power_Plant_Boost_80___Explosi -->
<g id="edge7" class="edge">
<title>Power_Plant_Boost_60___Explosi&#45;&gt;Power_Plant_Boost_80___Explosi</title>
<path fill="none" stroke="black" d="M121.62,-143.7C121.62,-135.22 121.62,-124.86 121.62,-115.58"/>
<polygon fill="black" stroke="black" points="123.73,-115.62 121.63,-109.62 119.53,-115.62 123.73,-115.62"/>
</g>
<!-- Power_Plant_Boost_100___Explos -->
<g id="node8" class="node">
<title>Power_Plant_Boost_100___Explos</title>
<path fill="#fff3cd" stroke="black" d="M201.25,-36C201.25,-36 42,-36 42,-36 36,-36 30,-30 30,-24 30,-24 30,-12 30,-12 30,-6 36,0 42,0 42,0 201.25,0 201.25,0 207.25,0 213.25,-6 213.25,-12 213.25,-12 213.25,-24 213.25,-24 213.25,-30 207.25,-36 201.25,-36"/>
<text xml:space="preserve" text-anchor="middle" x="121.62" y="-19.2" font-family="Helvetica,sans-Serif" font-size="9.00">Power Plant Boost 100%, Explosion 50%</text>
<text xml:space="preserve" text-anchor="middle" x="121.62" y="-9.45" font-family="Helvetica,sans-Serif" font-size="9.00">30K RP</text>
</g>
<!-- Power_Plant_Boost_80___Explosi&#45;&gt;Power_Plant_Boost_100___Explos -->
<g id="edge8" class="edge">
<title>Power_Plant_Boost_80___Explosi&#45;&gt;Power_Plant_Boost_100___Explos</title>
<path fill="none" stroke="black" d="M121.62,-71.7C121.62,-63.22 121.62,-52.86 121.62,-43.58"/>
<polygon fill="black" stroke="black" points="123.73,-43.62 121.63,-37.62 119.53,-43.62 123.73,-43.62"/>
</g>
<!-- ext_Trans_Newtonian_Technology -->
<g id="node9" class="node">
<title>ext_Trans_Newtonian_Technology</title>
<path fill="#f0f0f0" stroke="black" stroke-dasharray="5,2" d="M247.62,-540C247.62,-540 135.62,-540 135.62,-540 129.62,-540 123.62,-534 123.62,-528 123.62,-528 123.62,-516 123.62,-516 123.62,-510 129.62,-504 135.62,-504 135.62,-504 247.62,-504 247.62,-504 253.62,-504 259.62,-510 259.62,-516 259.62,-516 259.62,-528 259.62,-528 259.62,-534 253.62,-540 247.62,-540"/>
<text xml:space="preserve" text-anchor="middle" x="191.62" y="-518.33" font-family="Helvetica,sans-Serif" font-size="9.00">Trans&#45;Newtonian Technology</text>
</g>
<!-- ext_Trans_Newtonian_Technology&#45;&gt;Power_Plant_Boost_10___Explosi -->
<g id="edge2" class="edge">
<title>ext_Trans_Newtonian_Technology&#45;&gt;Power_Plant_Boost_10___Explosi</title>
<path fill="none" stroke="black" d="M174.32,-503.7C165.17,-494.54 153.82,-483.19 144,-473.38"/>
<polygon fill="black" stroke="black" points="145.53,-471.93 139.8,-469.17 142.56,-474.9 145.53,-471.93"/>
</g>
</g>
</svg>
