<?xml version="1.0" encoding="UTF-8" standalone="no"?>
<!DOCTYPE svg PUBLIC "-//W3C//DTD SVG 1.1//EN"
 "http://www.w3.org/Graphics/SVG/1.1/DTD/svg11.dtd">
<!-- Generated by graphviz version 14.1.2 (20260124.0452)
 -->
<!-- Title: PowerPlantTree Pages: 1 -->
<svg width="232pt" height="1068pt"
 viewBox="0.00 0.00 232.00 1068.00" xmlns="http://www.w3.org/2000/svg" xmlns:xlink="http://www.w3.org/1999/xlink">
<g id="graph0" class="graph" transform="scale(1 1) rotate(0) translate(4 1064.25)">
<title>PowerPlantTree</title>
<polygon fill="white" stroke="none" points="-4,4 -4,-1064.25 227.75,-1064.25 227.75,4 -4,4"/>
<!-- tn -->
<g id="node1" class="node">
<title>tn</title>
<path fill="#f0f0f0" stroke="black" stroke-dasharray="5,2" d="M88.38,-1060.25C88.38,-1060.25 25.87,-1060.25 25.87,-1060.25 19.87,-1060.25 13.88,-1054.25 13.88,-1048.25 13.88,-1048.25 13.88,-1036.25 13.88,-1036.25 13.88,-1030.25 19.88,-1024.25 25.88,-1024.25 25.88,-1024.25 88.38,-1024.25 88.38,-1024.25 94.38,-1024.25 100.38,-1030.25 100.38,-1036.25 100.38,-1036.25 100.38,-1048.25 100.38,-1048.25 100.38,-1054.25 94.38,-1060.25 88.38,-1060.25"/>
<text xml:space="preserve" text-anchor="middle" x="57.13" y="-1043.45" font-family="Helvetica,sans-Serif" font-size="9.00">Trans&#45;Newtonian</text>
<text xml:space="preserve" text-anchor="middle" x="57.13" y="-1033.7" font-family="Helvetica,sans-Serif" font-size="9.00">Technology</text>
</g>
<!-- rtg -->
<g id="node3" class="node">
<title>rtg</title>
<path fill="#cce5ff" stroke="black" d="M98.5,-988.25C98.5,-988.25 15.75,-988.25 15.75,-988.25 9.75,-988.25 3.75,-982.25 3.75,-976.25 3.75,-976.25 3.75,-963 3.75,-963 3.75,-957 9.75,-951 15.75,-951 15.75,-951 98.5,-951 98.5,-951 104.5,-951 110.5,-957 110.5,-963 110.5,-963 110.5,-976.25 110.5,-976.25 110.5,-982.25 104.5,-988.25 98.5,-988.25"/>
<text xml:space="preserve" text-anchor="middle" x="57.13" y="-975.7" font-family="Helvetica,sans-Serif" font-size="9.00">Radioisotope Thermal</text>
<text xml:space="preserve" text-anchor="middle" x="57.13" y="-965.95" font-family="Helvetica,sans-Serif" font-size="9.00">Generator</text>
<text xml:space="preserve" text-anchor="middle" x="57.13" y="-956.2" font-family="Helvetica,sans-Serif" font-size="9.00">600 RP</text>
</g>
<!-- tn&#45;&gt;rtg -->
<g id="edge1" class="edge">
<title>tn&#45;&gt;rtg</title>
<path fill="none" stroke="black" d="M57.13,-1023.79C57.13,-1015.37 57.13,-1005.1 57.13,-995.85"/>
<polygon fill="black" stroke="black" points="59.23,-995.89 57.13,-989.89 55.03,-995.89 59.23,-995.89"/>
</g>
<!-- conv -->
<g id="node2" class="node">
<title>conv</title>
<path fill="#d4edda" stroke="black" d="M211.75,-1060.25C211.75,-1060.25 130.5,-1060.25 130.5,-1060.25 124.5,-1060.25 118.5,-1054.25 118.5,-1048.25 118.5,-1048.25 118.5,-1036.25 118.5,-1036.25 118.5,-1030.25 124.5,-1024.25 130.5,-1024.25 130.5,-1024.25 211.75,-1024.25 211.75,-1024.25 217.75,-1024.25 223.75,-1030.25 223.75,-1036.25 223.75,-1036.25 223.75,-1048.25 223.75,-1048.25 223.75,-1054.25 217.75,-1060.25 211.75,-1060.25"/>
<text xml:space="preserve" text-anchor="middle" x="171.12" y="-1043.45" font-family="Helvetica,sans-Serif" font-size="9.00">Conventional Reactor</text>
<text xml:space="preserve" text-anchor="middle" x="171.12" y="-1033.7" font-family="Helvetica,sans-Serif" font-size="9.00">150 RP</text>
</g>
<!-- pwr -->
<g id="node4" class="node">
<title>pwr</title>
<path fill="#cce5ff" stroke="black" d="M90.25,-915C90.25,-915 24,-915 24,-915 18,-915 12,-909 12,-903 12,-903 12,-889.75 12,-889.75 12,-883.75 18,-877.75 24,-877.75 24,-877.75 90.25,-877.75 90.25,-877.75 96.25,-877.75 102.25,-883.75 102.25,-889.75 102.25,-889.75 102.25,-903 102.25,-903 102.25,-909 96.25,-915 90.25,-915"/>
<text xml:space="preserve" text-anchor="middle" x="57.13" y="-902.45" font-family="Helvetica,sans-Serif" font-size="9.00">Pressurised Water</text>
<text xml:space="preserve" text-anchor="middle" x="57.13" y="-892.7" font-family="Helvetica,sans-Serif" font-size="9.00">Reactor</text>
<text xml:space="preserve" text-anchor="middle" x="57.13" y="-882.95" font-family="Helvetica,sans-Serif" font-size="9.00">1,200 RP</text>
</g>
<!-- rtg&#45;&gt;pwr -->
<g id="edge2" class="edge">
<title>rtg&#45;&gt;pwr</title>
<path fill="none" stroke="black" d="M57.13,-950.65C57.13,-942.14 57.13,-931.85 57.13,-922.58"/>
<polygon fill="black" stroke="black" points="59.23,-922.62 57.13,-916.62 55.03,-922.62 59.23,-922.62"/>
</g>
<!-- pbr -->
<g id="node5" class="node">
<title>pbr</title>
<path fill="#cce5ff" stroke="black" d="M94.38,-841.75C94.38,-841.75 19.87,-841.75 19.87,-841.75 13.87,-841.75 7.88,-835.75 7.88,-829.75 7.88,-829.75 7.88,-817.75 7.88,-817.75 7.88,-811.75 13.88,-805.75 19.88,-805.75 19.88,-805.75 94.38,-805.75 94.38,-805.75 100.38,-805.75 106.38,-811.75 106.38,-817.75 106.38,-817.75 106.38,-829.75 106.38,-829.75 106.38,-835.75 100.38,-841.75 94.38,-841.75"/>
<text xml:space="preserve" text-anchor="middle" x="57.13" y="-824.95" font-family="Helvetica,sans-Serif" font-size="9.00">Pebble Bed Reactor</text>
<text xml:space="preserve" text-anchor="middle" x="57.13" y="-815.2" font-family="Helvetica,sans-Serif" font-size="9.00">2,400 RP</text>
</g>
<!-- pwr&#45;&gt;pbr -->
<g id="edge3" class="edge">
<title>pwr&#45;&gt;pbr</title>
<path fill="none" stroke="black" d="M57.13,-877.55C57.13,-869 57.13,-858.61 57.13,-849.32"/>
<polygon fill="black" stroke="black" points="59.23,-849.35 57.13,-843.35 55.03,-849.35 59.23,-849.35"/>
</g>
<!-- gfr -->
<g id="node6" class="node">
<title>gfr</title>
<path fill="#cce5ff" stroke="black" d="M87.25,-769.75C87.25,-769.75 27,-769.75 27,-769.75 21,-769.75 15,-763.75 15,-757.75 15,-757.75 15,-744.5 15,-744.5 15,-738.5 21,-732.5 27,-732.5 27,-732.5 87.25,-732.5 87.25,-732.5 93.25,-732.5 99.25,-738.5 99.25,-744.5 99.25,-744.5 99.25,-757.75 99.25,-757.75 99.25,-763.75 93.25,-769.75 87.25,-769.75"/>
<text xml:space="preserve" text-anchor="middle" x="57.13" y="-757.2" font-family="Helvetica,sans-Serif" font-size="9.00">Gaseous Fission</text>
<text xml:space="preserve" text-anchor="middle" x="57.13" y="-747.45" font-family="Helvetica,sans-Serif" font-size="9.00">Reactor</text>
<text xml:space="preserve" text-anchor="middle" x="57.13" y="-737.7" font-family="Helvetica,sans-Serif" font-size="9.00">3,600 RP</text>
</g>
<!-- pbr&#45;&gt;gfr -->
<g id="edge4" class="edge">
<title>pbr&#45;&gt;gfr</title>
<path fill="none" stroke="black" d="M57.13,-805.29C57.13,-796.87 57.13,-786.6 57.13,-777.35"/>
<polygon fill="black" stroke="black" points="59.23,-777.39 57.13,-771.39 55.03,-777.39 59.23,-777.39"/>
</g>
<!-- mmf -->
<g id="node7" class="node">
<title>mmf</title>
<path fill="#cce5ff" stroke="black" d="M85,-696.5C85,-696.5 29.25,-696.5 29.25,-696.5 23.25,-696.5 17.25,-690.5 17.25,-684.5 17.25,-684.5 17.25,-671.25 17.25,-671.25 17.25,-665.25 23.25,-659.25 29.25,-659.25 29.25,-659.25 85,-659.25 85,-659.25 91,-659.25 97,-665.25 97,-671.25 97,-671.25 97,-684.5 97,-684.5 97,-690.5 91,-696.5 85,-696.5"/>
<text xml:space="preserve" text-anchor="middle" x="57.13" y="-683.95" font-family="Helvetica,sans-Serif" font-size="9.00">Magnetic Mirror</text>
<text xml:space="preserve" text-anchor="middle" x="57.13" y="-674.2" font-family="Helvetica,sans-Serif" font-size="9.00">Fusion Reactor</text>
<text xml:space="preserve" text-anchor="middle" x="57.13" y="-664.45" font-family="Helvetica,sans-Serif" font-size="9.00">6,000 RP</text>
</g>
<!-- gfr&#45;&gt;mmf -->
<g id="edge5" class="edge">
<title>gfr&#45;&gt;mmf</title>
<path fill="none" stroke="black" d="M57.13,-732.15C57.13,-723.64 57.13,-713.35 57.13,-704.08"/>
<polygon fill="black" stroke="black" points="59.23,-704.12 57.13,-698.12 55.03,-704.12 59.23,-704.12"/>
</g>
<!-- stl -->
<g id="node8" class="node">
<title>stl</title>
<path fill="#cce5ff" stroke="black" d="M89.12,-623.25C89.12,-623.25 25.12,-623.25 25.12,-623.25 19.12,-623.25 13.13,-617.25 13.13,-611.25 13.13,-611.25 13.13,-598 13.13,-598 13.13,-592 19.13,-586 25.13,-586 25.13,-586 89.13,-586 89.13,-586 95.13,-586 101.12,-592 101.12,-598 101.12,-598 101.12,-611.25 101.12,-611.25 101.12,-617.25 95.12,-623.25 89.12,-623.25"/>
<text xml:space="preserve" text-anchor="middle" x="57.13" y="-610.7" font-family="Helvetica,sans-Serif" font-size="9.00">Stellarator Fusion</text>
<text xml:space="preserve" text-anchor="middle" x="57.13" y="-600.95" font-family="Helvetica,sans-Serif" font-size="9.00">Reactor</text>
<text xml:space="preserve" text-anchor="middle" x="57.13" y="-591.2" font-family="Helvetica,sans-Serif" font-size="9.00">12,000 RP</text>
</g>
<!-- mmf&#45;&gt;stl -->
<g id="edge6" class="edge">
<title>mmf&#45;&gt;stl</title>
<path fill="none" stroke="black" d="M57.13,-658.9C57.13,-650.39 57.13,-640.1 57.13,-630.83"/>
<polygon fill="black" stroke="black" points="59.23,-630.87 57.13,-624.87 55.03,-630.87 59.23,-630.87"/>
</g>
<!-- tok -->
<g id="node9" class="node">
<title>tok</title>
<path fill="#cce5ff" stroke="black" d="M86.5,-550C86.5,-550 27.75,-550 27.75,-550 21.75,-550 15.75,-544 15.75,-538 15.75,-538 15.75,-524.75 15.75,-524.75 15.75,-518.75 21.75,-512.75 27.75,-512.75 27.75,-512.75 86.5,-512.75 86.5,-512.75 92.5,-512.75 98.5,-518.75 98.5,-524.75 98.5,-524.75 98.5,-538 98.5,-538 98.5,-544 92.5,-550 86.5,-550"/>
<text xml:space="preserve" text-anchor="middle" x="57.13" y="-537.45" font-family="Helvetica,sans-Serif" font-size="9.00">Tokamak Fusion</text>
<text xml:space="preserve" text-anchor="middle" x="57.13" y="-527.7" font-family="Helvetica,sans-Serif" font-size="9.00">Reactor</text>
<text xml:space="preserve" text-anchor="middle" x="57.13" y="-517.95" font-family="Helvetica,sans-Serif" font-size="9.00">24,000 RP</text>
</g>
<!-- stl&#45;&gt;tok -->
<g id="edge7" class="edge">
<title>stl&#45;&gt;tok</title>
<path fill="none" stroke="black" d="M57.13,-585.65C57.13,-577.14 57.13,-566.85 57.13,-557.58"/>
<polygon fill="black" stroke="black" points="59.23,-557.62 57.13,-551.62 55.03,-557.62 59.23,-557.62"/>
</g>
<!-- icf -->
<g id="node10" class="node">
<title>icf</title>
<path fill="#cce5ff" stroke="black" d="M94.38,-476.75C94.38,-476.75 19.87,-476.75 19.87,-476.75 13.87,-476.75 7.88,-470.75 7.88,-464.75 7.88,-464.75 7.88,-451.5 7.88,-451.5 7.88,-445.5 13.88,-439.5 19.88,-439.5 19.88,-439.5 94.38,-439.5 94.38,-439.5 100.38,-439.5 106.38,-445.5 106.38,-451.5 106.38,-451.5 106.38,-464.75 106.38,-464.75 106.38,-470.75 100.38,-476.75 94.38,-476.75"/>
<text xml:space="preserve" text-anchor="middle" x="57.13" y="-464.2" font-family="Helvetica,sans-Serif" font-size="9.00">Inertial Confinement</text>
<text xml:space="preserve" text-anchor="middle" x="57.13" y="-454.45" font-family="Helvetica,sans-Serif" font-size="9.00">Fusion Reactor</text>
<text xml:space="preserve" text-anchor="middle" x="57.13" y="-444.7" font-family="Helvetica,sans-Serif" font-size="9.00">45,000 RP</text>
</g>
<!-- tok&#45;&gt;icf -->
<g id="edge8" class="edge">
<title>tok&#45;&gt;icf</title>
<path fill="none" stroke="black" d="M57.13,-512.4C57.13,-503.89 57.13,-493.6 57.13,-484.33"/>
<polygon fill="black" stroke="black" points="59.23,-484.37 57.13,-478.37 55.03,-484.37 59.23,-484.37"/>
</g>
<!-- sam -->
<g id="node11" class="node">
<title>sam</title>
<path fill="#d4c4fb" stroke="black" d="M97.38,-403.5C97.38,-403.5 16.88,-403.5 16.88,-403.5 10.87,-403.5 4.88,-397.5 4.88,-391.5 4.88,-391.5 4.88,-378.25 4.88,-378.25 4.88,-372.25 10.88,-366.25 16.88,-366.25 16.88,-366.25 97.38,-366.25 97.38,-366.25 103.38,-366.25 109.38,-372.25 109.38,-378.25 109.38,-378.25 109.38,-391.5 109.38,-391.5 109.38,-397.5 103.38,-403.5 97.38,-403.5"/>
<text xml:space="preserve" text-anchor="middle" x="57.13" y="-390.95" font-family="Helvetica,sans-Serif" font-size="9.00">Solid&#45;core Anti&#45;matter</text>
<text xml:space="preserve" text-anchor="middle" x="57.13" y="-381.2" font-family="Helvetica,sans-Serif" font-size="9.00">Power Plant</text>
<text xml:space="preserve" text-anchor="middle" x="57.13" y="-371.45" font-family="Helvetica,sans-Serif" font-size="9.00">90,000 RP</text>
</g>
<!-- icf&#45;&gt;sam -->
<g id="edge9" class="edge">
<title>icf&#45;&gt;sam</title>
<path fill="none" stroke="black" d="M57.13,-439.15C57.13,-430.64 57.13,-420.35 57.13,-411.08"/>
<polygon fill="black" stroke="black" points="59.23,-411.12 57.13,-405.12 55.03,-411.12 59.23,-411.12"/>
</g>
<!-- gam -->
<g id="node12" class="node">
<title>gam</title>
<path fill="#d4c4fb" stroke="black" d="M95.12,-330.25C95.12,-330.25 19.12,-330.25 19.12,-330.25 13.13,-330.25 7.13,-324.25 7.13,-318.25 7.13,-318.25 7.13,-305 7.13,-305 7.13,-299 13.13,-293 19.13,-293 19.13,-293 95.13,-293 95.13,-293 101.12,-293 107.12,-299 107.12,-305 107.12,-305 107.12,-318.25 107.12,-318.25 107.12,-324.25 101.12,-330.25 95.12,-330.25"/>
<text xml:space="preserve" text-anchor="middle" x="57.13" y="-317.7" font-family="Helvetica,sans-Serif" font-size="9.00">Gas&#45;core Anti&#45;matter</text>
<text xml:space="preserve" text-anchor="middle" x="57.13" y="-307.95" font-family="Helvetica,sans-Serif" font-size="9.00">Power Plant</text>
<text xml:space="preserve" text-anchor="middle" x="57.13" y="-298.2" font-family="Helvetica,sans-Serif" font-size="9.00">180,000 RP</text>
</g>
<!-- sam&#45;&gt;gam -->
<g id="edge10" class="edge">
<title>sam&#45;&gt;gam</title>
<path fill="none" stroke="black" d="M57.13,-365.9C57.13,-357.39 57.13,-347.1 57.13,-337.83"/>
<polygon fill="black" stroke="black" points="59.23,-337.87 57.13,-331.87 55.03,-337.87 59.23,-337.87"/>
</g>
<!-- pam -->
<g id="node13" class="node">
<title>pam</title>
<path fill="#d4c4fb" stroke="black" d="M102.25,-257C102.25,-257 12,-257 12,-257 6,-257 0,-251 0,-245 0,-245 0,-231.75 0,-231.75 0,-225.75 6,-219.75 12,-219.75 12,-219.75 102.25,-219.75 102.25,-219.75 108.25,-219.75 114.25,-225.75 114.25,-231.75 114.25,-231.75 114.25,-245 114.25,-245 114.25,-251 108.25,-257 102.25,-257"/>
<text xml:space="preserve" text-anchor="middle" x="57.13" y="-244.45" font-family="Helvetica,sans-Serif" font-size="9.00">Plasma&#45;core Anti&#45;matter</text>
<text xml:space="preserve" text-anchor="middle" x="57.13" y="-234.7" font-family="Helvetica,sans-Serif" font-size="9.00">Power Plant</text>
<text xml:space="preserve" text-anchor="middle" x="57.13" y="-224.95" font-family="Helvetica,sans-Serif" font-size="9.00">375,000 RP</text>
</g>
<!-- gam&#45;&gt;pam -->
<g id="edge11" class="edge">
<title>gam&#45;&gt;pam</title>
<path fill="none" stroke="black" d="M57.13,-292.65C57.13,-284.14 57.13,-273.85 57.13,-264.58"/>
<polygon fill="black" stroke="black" points="59.23,-264.62 57.13,-258.62 55.03,-264.62 59.23,-264.62"/>
</g>
<!-- bam -->
<g id="node14" class="node">
<title>bam</title>
<path fill="#d4c4fb" stroke="black" d="M99.62,-183.75C99.62,-183.75 14.62,-183.75 14.62,-183.75 8.62,-183.75 2.63,-177.75 2.63,-171.75 2.63,-171.75 2.63,-158.5 2.63,-158.5 2.63,-152.5 8.63,-146.5 14.63,-146.5 14.63,-146.5 99.62,-146.5 99.62,-146.5 105.62,-146.5 111.62,-152.5 111.62,-158.5 111.62,-158.5 111.62,-171.75 111.62,-171.75 111.62,-177.75 105.62,-183.75 99.62,-183.75"/>
<text xml:space="preserve" text-anchor="middle" x="57.13" y="-171.2" font-family="Helvetica,sans-Serif" font-size="9.00">Beam Core Anti&#45;matter</text>
<text xml:space="preserve" text-anchor="middle" x="57.13" y="-161.45" font-family="Helvetica,sans-Serif" font-size="9.00">Power Plant</text>
<text xml:space="preserve" text-anchor="middle" x="57.13" y="-151.7" font-family="Helvetica,sans-Serif" font-size="9.00">750,000 RP</text>
</g>
<!-- pam&#45;&gt;bam -->
<g id="edge12" class="edge">
<title>pam&#45;&gt;bam</title>
<path fill="none" stroke="black" d="M57.13,-219.4C57.13,-210.89 57.13,-200.6 57.13,-191.33"/>
<polygon fill="black" stroke="black" points="59.23,-191.37 57.13,-185.37 55.03,-191.37 59.23,-191.37"/>
</g>
<!-- vac -->
<g id="node15" class="node">
<title>vac</title>
<path fill="#f8d7da" stroke="black" d="M85.38,-110.5C85.38,-110.5 28.88,-110.5 28.88,-110.5 22.88,-110.5 16.88,-104.5 16.88,-98.5 16.88,-98.5 16.88,-85.25 16.88,-85.25 16.88,-79.25 22.88,-73.25 28.88,-73.25 28.88,-73.25 85.38,-73.25 85.38,-73.25 91.38,-73.25 97.38,-79.25 97.38,-85.25 97.38,-85.25 97.38,-98.5 97.38,-98.5 97.38,-104.5 91.38,-110.5 85.38,-110.5"/>
<text xml:space="preserve" text-anchor="middle" x="57.13" y="-97.95" font-family="Helvetica,sans-Serif" font-size="9.00">Vacuum Energy</text>
<text xml:space="preserve" text-anchor="middle" x="57.13" y="-88.2" font-family="Helvetica,sans-Serif" font-size="9.00">Power Plant</text>
<text xml:space="preserve" text-anchor="middle" x="57.13" y="-78.45" font-family="Helvetica,sans-Serif" font-size="9.00">1,500,000 RP</text>
</g>
<!-- bam&#45;&gt;vac -->
<g id="edge13" class="edge">
<title>bam&#45;&gt;vac</title>
<path fill="none" stroke="black" d="M57.13,-146.15C57.13,-137.64 57.13,-127.35 57.13,-118.08"/>
<polygon fill="black" stroke="black" points="59.23,-118.12 57.13,-112.12 55.03,-118.12 59.23,-118.12"/>
</g>
<!-- qsp -->
<g id="node16" class="node">
<title>qsp</title>
<path fill="#f8d7da" stroke="black" d="M94.75,-37.25C94.75,-37.25 19.5,-37.25 19.5,-37.25 13.5,-37.25 7.5,-31.25 7.5,-25.25 7.5,-25.25 7.5,-12 7.5,-12 7.5,-6 13.5,0 19.5,0 19.5,0 94.75,0 94.75,0 100.75,0 106.75,-6 106.75,-12 106.75,-12 106.75,-25.25 106.75,-25.25 106.75,-31.25 100.75,-37.25 94.75,-37.25"/>
<text xml:space="preserve" text-anchor="middle" x="57.13" y="-24.7" font-family="Helvetica,sans-Serif" font-size="9.00">Quantum Singularity</text>
<text xml:space="preserve" text-anchor="middle" x="57.13" y="-14.95" font-family="Helvetica,sans-Serif" font-size="9.00">Power Plant</text>
<text xml:space="preserve" text-anchor="middle" x="57.13" y="-5.2" font-family="Helvetica,sans-Serif" font-size="9.00">3,000,000 RP</text>
</g>
<!-- vac&#45;&gt;qsp -->
<g id="edge14" class="edge">
<title>vac&#45;&gt;qsp</title>
<path fill="none" stroke="black" d="M57.13,-72.9C57.13,-64.39 57.13,-54.1 57.13,-44.83"/>
<polygon fill="black" stroke="black" points="59.23,-44.87 57.13,-38.87 55.03,-44.87 59.23,-44.87"/>
</g>
</g>
</svg>
