<?xml version="1.0" encoding="UTF-8" standalone="no"?>
<!DOCTYPE svg PUBLIC "-//W3C//DTD SVG 1.1//EN"
 "http://www.w3.org/Graphics/SVG/1.1/DTD/svg11.dtd">
<!-- Generated by graphviz version 14.1.2 (20260124.0452)
 -->
<!-- Title: TechTree Pages: 1 -->
<svg width="205pt" height="522pt"
 viewBox="0.00 0.00 205.00 522.00" xmlns="http://www.w3.org/2000/svg" xmlns:xlink="http://www.w3.org/1999/xlink">
<g id="graph0" class="graph" transform="scale(1 1) rotate(0) translate(4 518)">
<title>TechTree</title>
<polygon fill="white" stroke="none" points="-4,4 -4,-518 200.75,-518 200.75,4 -4,4"/>
<text xml:space="preserve" text-anchor="middle" x="98.38" y="-496.7" font-family="Helvetica,sans-Serif" font-weight="bold" font-size="14.00">Power vs Efficiency</text>
<!-- No_Power_Plant_Boost -->
<g id="node1" class="node">
<title>No_Power_Plant_Boost</title>
<path fill="#d4edda" stroke="black" d="M143.12,-491C143.12,-491 53.63,-491 53.63,-491 47.62,-491 41.62,-485 41.62,-479 41.62,-479 41.62,-467 41.62,-467 41.62,-461 47.62,-455 53.62,-455 53.62,-455 143.12,-455 143.12,-455 149.12,-455 155.12,-461 155.12,-467 155.12,-467 155.12,-479 155.12,-479 155.12,-485 149.12,-491 143.12,-491"/>
<text xml:space="preserve" text-anchor="middle" x="98.38" y="-474.75" font-family="Helvetica,sans-Serif" font-size="10.00">No Power Plant Boost</text>
<text xml:space="preserve" text-anchor="middle" x="98.38" y="-463.5" font-family="Helvetica,sans-Serif" font-size="10.00">250 RP</text>
</g>
<!-- Power_Plant_Boost_10___Explosi -->
<g id="node2" class="node">
<title>Power_Plant_Boost_10___Explosi</title>
<path fill="#d4edda" stroke="black" d="M179.5,-426C179.5,-426 17.25,-426 17.25,-426 11.25,-426 5.25,-420 5.25,-414 5.25,-414 5.25,-402 5.25,-402 5.25,-396 11.25,-390 17.25,-390 17.25,-390 179.5,-390 179.5,-390 185.5,-390 191.5,-396 191.5,-402 191.5,-402 191.5,-414 191.5,-414 191.5,-420 185.5,-426 179.5,-426"/>
<text xml:space="preserve" text-anchor="middle" x="98.38" y="-409.75" font-family="Helvetica,sans-Serif" font-size="10.00">Power Plant Boost 10%, Explosion 7%</text>
<text xml:space="preserve" text-anchor="middle" x="98.38" y="-398.5" font-family="Helvetica,sans-Serif" font-size="10.00">500 RP</text>
</g>
<!-- No_Power_Plant_Boost&#45;&gt;Power_Plant_Boost_10___Explosi -->
<g id="edge1" class="edge">
<title>No_Power_Plant_Boost&#45;&gt;Power_Plant_Boost_10___Explosi</title>
<path fill="none" stroke="black" d="M98.38,-454.78C98.38,-448.53 98.38,-441.33 98.38,-434.52"/>
<polygon fill="black" stroke="black" points="100.83,-434.71 98.38,-427.71 95.93,-434.71 100.83,-434.71"/>
</g>
<!-- Power_Plant_Boost_20___Explosi -->
<g id="node3" class="node">
<title>Power_Plant_Boost_20___Explosi</title>
<path fill="#cce5ff" stroke="black" d="M182.12,-361C182.12,-361 14.62,-361 14.62,-361 8.63,-361 2.62,-355 2.62,-349 2.62,-349 2.62,-337 2.62,-337 2.62,-331 8.62,-325 14.62,-325 14.62,-325 182.12,-325 182.12,-325 188.12,-325 194.12,-331 194.12,-337 194.12,-337 194.12,-349 194.12,-349 194.12,-355 188.12,-361 182.12,-361"/>
<text xml:space="preserve" text-anchor="middle" x="98.38" y="-344.75" font-family="Helvetica,sans-Serif" font-size="10.00">Power Plant Boost 20%, Explosion 10%</text>
<text xml:space="preserve" text-anchor="middle" x="98.38" y="-333.5" font-family="Helvetica,sans-Serif" font-size="10.00">1K RP</text>
</g>
<!-- Power_Plant_Boost_10___Explosi&#45;&gt;Power_Plant_Boost_20___Explosi -->
<g id="edge2" class="edge">
<title>Power_Plant_Boost_10___Explosi&#45;&gt;Power_Plant_Boost_20___Explosi</title>
<path fill="none" stroke="black" d="M98.38,-389.78C98.38,-383.53 98.38,-376.33 98.38,-369.52"/>
<polygon fill="black" stroke="black" points="100.83,-369.71 98.38,-362.71 95.93,-369.71 100.83,-369.71"/>
</g>
<!-- Power_Plant_Boost_30___Explosi -->
<g id="node4" class="node">
<title>Power_Plant_Boost_30___Explosi</title>
<path fill="#cce5ff" stroke="black" d="M182.12,-296C182.12,-296 14.62,-296 14.62,-296 8.63,-296 2.62,-290 2.62,-284 2.62,-284 2.62,-272 2.62,-272 2.62,-266 8.62,-260 14.62,-260 14.62,-260 182.12,-260 182.12,-260 188.12,-260 194.12,-266 194.12,-272 194.12,-272 194.12,-284 194.12,-284 194.12,-290 188.12,-296 182.12,-296"/>
<text xml:space="preserve" text-anchor="middle" x="98.38" y="-279.75" font-family="Helvetica,sans-Serif" font-size="10.00">Power Plant Boost 30%, Explosion 15%</text>
<text xml:space="preserve" text-anchor="middle" x="98.38" y="-268.5" font-family="Helvetica,sans-Serif" font-size="10.00">2K RP</text>
</g>
<!-- Power_Plant_Boost_20___Explosi&#45;&gt;Power_Plant_Boost_30___Explosi -->
<g id="edge3" class="edge">
<title>Power_Plant_Boost_20___Explosi&#45;&gt;Power_Plant_Boost_30___Explosi</title>
<path fill="none" stroke="black" d="M98.38,-324.78C98.38,-318.53 98.38,-311.33 98.38,-304.52"/>
<polygon fill="black" stroke="black" points="100.83,-304.71 98.38,-297.71 95.93,-304.71 100.83,-304.71"/>
</g>
<!-- Power_Plant_Boost_40___Explosi -->
<g id="node5" class="node">
<title>Power_Plant_Boost_40___Explosi</title>
<path fill="#cce5ff" stroke="black" d="M182.12,-231C182.12,-231 14.62,-231 14.62,-231 8.63,-231 2.62,-225 2.62,-219 2.62,-219 2.62,-207 2.62,-207 2.62,-201 8.62,-195 14.62,-195 14.62,-195 182.12,-195 182.12,-195 188.12,-195 194.12,-201 194.12,-207 194.12,-207 194.12,-219 194.12,-219 194.12,-225 188.12,-231 182.12,-231"/>
<text xml:space="preserve" text-anchor="middle" x="98.38" y="-214.75" font-family="Helvetica,sans-Serif" font-size="10.00">Power Plant Boost 40%, Explosion 20%</text>
<text xml:space="preserve" text-anchor="middle" x="98.38" y="-203.5" font-family="Helvetica,sans-Serif" font-size="10.00">4K RP</text>
</g>
<!-- Power_Plant_Boost_30___Explosi&#45;&gt;Power_Plant_Boost_40___Explosi -->
<g id="edge4" class="edge">
<title>Power_Plant_Boost_30___Explosi&#45;&gt;Power_Plant_Boost_40___Explosi</title>
<path fill="none" stroke="black" d="M98.38,-259.78C98.38,-253.53 98.38,-246.33 98.38,-239.52"/>
<polygon fill="black" stroke="black" points="100.83,-239.71 98.38,-232.71 95.93,-239.71 100.83,-239.71"/>
</g>
<!-- Power_Plant_Boost_60___Explosi -->
<g id="node6" class="node">
<title>Power_Plant_Boost_60___Explosi</title>
<path fill="#cce5ff" stroke="black" d="M182.12,-166C182.12,-166 14.62,-166 14.62,-166 8.63,-166 2.62,-160 2.62,-154 2.62,-154 2.62,-142 2.62,-142 2.62,-136 8.62,-130 14.62,-130 14.62,-130 182.12,-130 182.12,-130 188.12,-130 194.12,-136 194.12,-142 194.12,-142 194.12,-154 194.12,-154 194.12,-160 188.12,-166 182.12,-166"/>
<text xml:space="preserve" text-anchor="middle" x="98.38" y="-149.75" font-family="Helvetica,sans-Serif" font-size="10.00">Power Plant Boost 60%, Explosion 30%</text>
<text xml:space="preserve" text-anchor="middle" x="98.38" y="-138.5" font-family="Helvetica,sans-Serif" font-size="10.00">8K RP</text>
</g>
<!-- Power_Plant_Boost_40___Explosi&#45;&gt;Power_Plant_Boost_60___Explosi -->
<g id="edge5" class="edge">
<title>Power_Plant_Boost_40___Explosi&#45;&gt;Power_Plant_Boost_60___Explosi</title>
<path fill="none" stroke="black" d="M98.38,-194.78C98.38,-188.53 98.38,-181.33 98.38,-174.52"/>
<polygon fill="black" stroke="black" points="100.83,-174.71 98.38,-167.71 95.93,-174.71 100.83,-174.71"/>
</g>
<!-- Power_Plant_Boost_80___Explosi -->
<g id="node7" class="node">
<title>Power_Plant_Boost_80___Explosi</title>
<path fill="#fff3cd" stroke="black" d="M182.12,-101C182.12,-101 14.62,-101 14.62,-101 8.63,-101 2.62,-95 2.62,-89 2.62,-89 2.62,-77 2.62,-77 2.62,-71 8.62,-65 14.62,-65 14.62,-65 182.12,-65 182.12,-65 188.12,-65 194.12,-71 194.12,-77 194.12,-77 194.12,-89 194.12,-89 194.12,-95 188.12,-101 182.12,-101"/>
<text xml:space="preserve" text-anchor="middle" x="98.38" y="-84.75" font-family="Helvetica,sans-Serif" font-size="10.00">Power Plant Boost 80%, Explosion 40%</text>
<text xml:space="preserve" text-anchor="middle" x="98.38" y="-73.5" font-family="Helvetica,sans-Serif" font-size="10.00">15K RP</text>
</g>
<!-- Power_Plant_Boost_60___Explosi&#45;&gt;Power_Plant_Boost_80___Explosi -->
<g id="edge6" class="edge">
<title>Power_Plant_Boost_60___Explosi&#45;&gt;Power_Plant_Boost_80___Explosi</title>
<path fill="none" stroke="black" d="M98.38,-129.78C98.38,-123.53 98.38,-116.33 98.38,-109.52"/>
<polygon fill="black" stroke="black" points="100.83,-109.71 98.38,-102.71 95.93,-109.71 100.83,-109.71"/>
</g>
<!-- Power_Plant_Boost_100___Explos -->
<g id="node8" class="node">
<title>Power_Plant_Boost_100___Explos</title>
<path fill="#fff3cd" stroke="black" d="M184.75,-36C184.75,-36 12,-36 12,-36 6,-36 0,-30 0,-24 0,-24 0,-12 0,-12 0,-6 6,0 12,0 12,0 184.75,0 184.75,0 190.75,0 196.75,-6 196.75,-12 196.75,-12 196.75,-24 196.75,-24 196.75,-30 190.75,-36 184.75,-36"/>
<text xml:space="preserve" text-anchor="middle" x="98.38" y="-19.75" font-family="Helvetica,sans-Serif" font-size="10.00">Power Plant Boost 100%, Explosion 50%</text>
<text xml:space="preserve" text-anchor="middle" x="98.38" y="-8.5" font-family="Helvetica,sans-Serif" font-size="10.00">30K RP</text>
</g>
<!-- Power_Plant_Boost_80___Explosi&#45;&gt;Power_Plant_Boost_100___Explos -->
<g id="edge7" class="edge">
<title>Power_Plant_Boost_80___Explosi&#45;&gt;Power_Plant_Boost_100___Explos</title>
<path fill="none" stroke="black" d="M98.38,-64.78C98.38,-58.53 98.38,-51.33 98.38,-44.52"/>
<polygon fill="black" stroke="black" points="100.83,-44.71 98.38,-37.71 95.93,-44.71 100.83,-44.71"/>
</g>
</g>
</svg>
