<?xml version="1.0" encoding="UTF-8" standalone="no"?>
<!DOCTYPE svg PUBLIC "-//W3C//DTD SVG 1.1//EN"
 "http://www.w3.org/Graphics/SVG/1.1/DTD/svg11.dtd">
<!-- Generated by graphviz version 14.1.2 (20260124.0452)
 -->
<!-- Title: TechTree Pages: 1 -->
<svg width="309pt" height="912pt"
 viewBox="0.00 0.00 309.00 912.00" xmlns="http://www.w3.org/2000/svg" xmlns:xlink="http://www.w3.org/1999/xlink">
<g id="graph0" class="graph" transform="scale(1 1) rotate(0) translate(4 908)">
<title>TechTree</title>
<polygon fill="white" stroke="none" points="-4,4 -4,-908 304.88,-908 304.88,4 -4,4"/>
<text xml:space="preserve" text-anchor="middle" x="150.44" y="-886.7" font-family="Helvetica,sans-Serif" font-weight="bold" font-size="14.00">Power Plant Technology</text>
<!-- Conventional_Reactor -->
<g id="node1" class="node">
<title>Conventional_Reactor</title>
<path fill="#d4edda" stroke="black" d="M98.5,-881C98.5,-881 12,-881 12,-881 6,-881 0,-875 0,-869 0,-869 0,-857 0,-857 0,-851 6,-845 12,-845 12,-845 98.5,-845 98.5,-845 104.5,-845 110.5,-851 110.5,-857 110.5,-857 110.5,-869 110.5,-869 110.5,-875 104.5,-881 98.5,-881"/>
<text xml:space="preserve" text-anchor="middle" x="55.25" y="-864.75" font-family="Helvetica,sans-Serif" font-size="10.00">Conventional Reactor</text>
<text xml:space="preserve" text-anchor="middle" x="55.25" y="-853.5" font-family="Helvetica,sans-Serif" font-size="10.00">150 RP</text>
</g>
<!-- Radioisotope_Thermal_Generator -->
<g id="node2" class="node">
<title>Radioisotope_Thermal_Generator</title>
<path fill="#cce5ff" stroke="black" d="M280.25,-881C280.25,-881 144.25,-881 144.25,-881 138.25,-881 132.25,-875 132.25,-869 132.25,-869 132.25,-857 132.25,-857 132.25,-851 138.25,-845 144.25,-845 144.25,-845 280.25,-845 280.25,-845 286.25,-845 292.25,-851 292.25,-857 292.25,-857 292.25,-869 292.25,-869 292.25,-875 286.25,-881 280.25,-881"/>
<text xml:space="preserve" text-anchor="middle" x="212.25" y="-864.75" font-family="Helvetica,sans-Serif" font-size="10.00">Radioisotope Thermal Generator </text>
<text xml:space="preserve" text-anchor="middle" x="212.25" y="-853.5" font-family="Helvetica,sans-Serif" font-size="10.00">600 RP</text>
</g>
<!-- Pressurised_Water_Reactor -->
<g id="node3" class="node">
<title>Pressurised_Water_Reactor</title>
<path fill="#cce5ff" stroke="black" d="M267.12,-816C267.12,-816 157.38,-816 157.38,-816 151.38,-816 145.38,-810 145.38,-804 145.38,-804 145.38,-792 145.38,-792 145.38,-786 151.38,-780 157.38,-780 157.38,-780 267.12,-780 267.12,-780 273.12,-780 279.12,-786 279.12,-792 279.12,-792 279.12,-804 279.12,-804 279.12,-810 273.12,-816 267.12,-816"/>
<text xml:space="preserve" text-anchor="middle" x="212.25" y="-799.75" font-family="Helvetica,sans-Serif" font-size="10.00">Pressurised Water Reactor</text>
<text xml:space="preserve" text-anchor="middle" x="212.25" y="-788.5" font-family="Helvetica,sans-Serif" font-size="10.00">1K RP</text>
</g>
<!-- Radioisotope_Thermal_Generator&#45;&gt;Pressurised_Water_Reactor -->
<g id="edge1" class="edge">
<title>Radioisotope_Thermal_Generator&#45;&gt;Pressurised_Water_Reactor</title>
<path fill="none" stroke="black" d="M212.25,-844.78C212.25,-838.53 212.25,-831.33 212.25,-824.52"/>
<polygon fill="black" stroke="black" points="214.7,-824.71 212.25,-817.71 209.8,-824.71 214.7,-824.71"/>
</g>
<!-- Pebble_Bed_Reactor -->
<g id="node4" class="node">
<title>Pebble_Bed_Reactor</title>
<path fill="#cce5ff" stroke="black" d="M252.12,-751C252.12,-751 172.38,-751 172.38,-751 166.38,-751 160.38,-745 160.38,-739 160.38,-739 160.38,-727 160.38,-727 160.38,-721 166.38,-715 172.38,-715 172.38,-715 252.12,-715 252.12,-715 258.12,-715 264.12,-721 264.12,-727 264.12,-727 264.12,-739 264.12,-739 264.12,-745 258.12,-751 252.12,-751"/>
<text xml:space="preserve" text-anchor="middle" x="212.25" y="-734.75" font-family="Helvetica,sans-Serif" font-size="10.00">Pebble Bed Reactor</text>
<text xml:space="preserve" text-anchor="middle" x="212.25" y="-723.5" font-family="Helvetica,sans-Serif" font-size="10.00">2K RP</text>
</g>
<!-- Pressurised_Water_Reactor&#45;&gt;Pebble_Bed_Reactor -->
<g id="edge2" class="edge">
<title>Pressurised_Water_Reactor&#45;&gt;Pebble_Bed_Reactor</title>
<path fill="none" stroke="black" d="M212.25,-779.78C212.25,-773.53 212.25,-766.33 212.25,-759.52"/>
<polygon fill="black" stroke="black" points="214.7,-759.71 212.25,-752.71 209.8,-759.71 214.7,-759.71"/>
</g>
<!-- Gaseous_Fission_Reactor -->
<g id="node5" class="node">
<title>Gaseous_Fission_Reactor</title>
<path fill="#cce5ff" stroke="black" d="M263.75,-686C263.75,-686 160.75,-686 160.75,-686 154.75,-686 148.75,-680 148.75,-674 148.75,-674 148.75,-662 148.75,-662 148.75,-656 154.75,-650 160.75,-650 160.75,-650 263.75,-650 263.75,-650 269.75,-650 275.75,-656 275.75,-662 275.75,-662 275.75,-674 275.75,-674 275.75,-680 269.75,-686 263.75,-686"/>
<text xml:space="preserve" text-anchor="middle" x="212.25" y="-669.75" font-family="Helvetica,sans-Serif" font-size="10.00">Gaseous Fission Reactor</text>
<text xml:space="preserve" text-anchor="middle" x="212.25" y="-658.5" font-family="Helvetica,sans-Serif" font-size="10.00">4K RP</text>
</g>
<!-- Pebble_Bed_Reactor&#45;&gt;Gaseous_Fission_Reactor -->
<g id="edge3" class="edge">
<title>Pebble_Bed_Reactor&#45;&gt;Gaseous_Fission_Reactor</title>
<path fill="none" stroke="black" d="M212.25,-714.78C212.25,-708.53 212.25,-701.33 212.25,-694.52"/>
<polygon fill="black" stroke="black" points="214.7,-694.71 212.25,-687.71 209.8,-694.71 214.7,-694.71"/>
</g>
<!-- Magnetic_Mirror_Fusion_Reactor -->
<g id="node6" class="node">
<title>Magnetic_Mirror_Fusion_Reactor</title>
<path fill="#cce5ff" stroke="black" d="M276.88,-621C276.88,-621 147.62,-621 147.62,-621 141.62,-621 135.62,-615 135.62,-609 135.62,-609 135.62,-597 135.62,-597 135.62,-591 141.62,-585 147.62,-585 147.62,-585 276.88,-585 276.88,-585 282.88,-585 288.88,-591 288.88,-597 288.88,-597 288.88,-609 288.88,-609 288.88,-615 282.88,-621 276.88,-621"/>
<text xml:space="preserve" text-anchor="middle" x="212.25" y="-604.75" font-family="Helvetica,sans-Serif" font-size="10.00">Magnetic Mirror Fusion Reactor</text>
<text xml:space="preserve" text-anchor="middle" x="212.25" y="-593.5" font-family="Helvetica,sans-Serif" font-size="10.00">6K RP</text>
</g>
<!-- Gaseous_Fission_Reactor&#45;&gt;Magnetic_Mirror_Fusion_Reactor -->
<g id="edge4" class="edge">
<title>Gaseous_Fission_Reactor&#45;&gt;Magnetic_Mirror_Fusion_Reactor</title>
<path fill="none" stroke="black" d="M212.25,-649.78C212.25,-643.53 212.25,-636.33 212.25,-629.52"/>
<polygon fill="black" stroke="black" points="214.7,-629.71 212.25,-622.71 209.8,-629.71 214.7,-629.71"/>
</g>
<!-- Stellarator_Fusion_Reactor -->
<g id="node7" class="node">
<title>Stellarator_Fusion_Reactor</title>
<path fill="#fff3cd" stroke="black" d="M265.25,-556C265.25,-556 159.25,-556 159.25,-556 153.25,-556 147.25,-550 147.25,-544 147.25,-544 147.25,-532 147.25,-532 147.25,-526 153.25,-520 159.25,-520 159.25,-520 265.25,-520 265.25,-520 271.25,-520 277.25,-526 277.25,-532 277.25,-532 277.25,-544 277.25,-544 277.25,-550 271.25,-556 265.25,-556"/>
<text xml:space="preserve" text-anchor="middle" x="212.25" y="-539.75" font-family="Helvetica,sans-Serif" font-size="10.00">Stellarator Fusion Reactor</text>
<text xml:space="preserve" text-anchor="middle" x="212.25" y="-528.5" font-family="Helvetica,sans-Serif" font-size="10.00">12K RP</text>
</g>
<!-- Magnetic_Mirror_Fusion_Reactor&#45;&gt;Stellarator_Fusion_Reactor -->
<g id="edge5" class="edge">
<title>Magnetic_Mirror_Fusion_Reactor&#45;&gt;Stellarator_Fusion_Reactor</title>
<path fill="none" stroke="black" d="M212.25,-584.78C212.25,-578.53 212.25,-571.33 212.25,-564.52"/>
<polygon fill="black" stroke="black" points="214.7,-564.71 212.25,-557.71 209.8,-564.71 214.7,-564.71"/>
</g>
<!-- Tokamak_Fusion_Reactor -->
<g id="node8" class="node">
<title>Tokamak_Fusion_Reactor</title>
<path fill="#fff3cd" stroke="black" d="M263,-491C263,-491 161.5,-491 161.5,-491 155.5,-491 149.5,-485 149.5,-479 149.5,-479 149.5,-467 149.5,-467 149.5,-461 155.5,-455 161.5,-455 161.5,-455 263,-455 263,-455 269,-455 275,-461 275,-467 275,-467 275,-479 275,-479 275,-485 269,-491 263,-491"/>
<text xml:space="preserve" text-anchor="middle" x="212.25" y="-474.75" font-family="Helvetica,sans-Serif" font-size="10.00">Tokamak Fusion Reactor</text>
<text xml:space="preserve" text-anchor="middle" x="212.25" y="-463.5" font-family="Helvetica,sans-Serif" font-size="10.00">24K RP</text>
</g>
<!-- Stellarator_Fusion_Reactor&#45;&gt;Tokamak_Fusion_Reactor -->
<g id="edge6" class="edge">
<title>Stellarator_Fusion_Reactor&#45;&gt;Tokamak_Fusion_Reactor</title>
<path fill="none" stroke="black" d="M212.25,-519.78C212.25,-513.53 212.25,-506.33 212.25,-499.52"/>
<polygon fill="black" stroke="black" points="214.7,-499.71 212.25,-492.71 209.8,-499.71 214.7,-499.71"/>
</g>
<!-- Inertial_Confinement_Fusion_Re -->
<g id="node9" class="node">
<title>Inertial_Confinement_Fusion_Re</title>
<path fill="#fff3cd" stroke="black" d="M287,-426C287,-426 137.5,-426 137.5,-426 131.5,-426 125.5,-420 125.5,-414 125.5,-414 125.5,-402 125.5,-402 125.5,-396 131.5,-390 137.5,-390 137.5,-390 287,-390 287,-390 293,-390 299,-396 299,-402 299,-402 299,-414 299,-414 299,-420 293,-426 287,-426"/>
<text xml:space="preserve" text-anchor="middle" x="212.25" y="-409.75" font-family="Helvetica,sans-Serif" font-size="10.00">Inertial Confinement Fusion Reactor</text>
<text xml:space="preserve" text-anchor="middle" x="212.25" y="-398.5" font-family="Helvetica,sans-Serif" font-size="10.00">45K RP</text>
</g>
<!-- Tokamak_Fusion_Reactor&#45;&gt;Inertial_Confinement_Fusion_Re -->
<g id="edge7" class="edge">
<title>Tokamak_Fusion_Reactor&#45;&gt;Inertial_Confinement_Fusion_Re</title>
<path fill="none" stroke="black" d="M212.25,-454.78C212.25,-448.53 212.25,-441.33 212.25,-434.52"/>
<polygon fill="black" stroke="black" points="214.7,-434.71 212.25,-427.71 209.8,-434.71 214.7,-434.71"/>
</g>
<!-- Solid_core_Anti_matter_Power_P -->
<g id="node10" class="node">
<title>Solid_core_Anti_matter_Power_P</title>
<path fill="#fff3cd" stroke="black" d="M283.25,-361C283.25,-361 141.25,-361 141.25,-361 135.25,-361 129.25,-355 129.25,-349 129.25,-349 129.25,-337 129.25,-337 129.25,-331 135.25,-325 141.25,-325 141.25,-325 283.25,-325 283.25,-325 289.25,-325 295.25,-331 295.25,-337 295.25,-337 295.25,-349 295.25,-349 295.25,-355 289.25,-361 283.25,-361"/>
<text xml:space="preserve" text-anchor="middle" x="212.25" y="-344.75" font-family="Helvetica,sans-Serif" font-size="10.00">Solid&#45;core Anti&#45;matter Power Plant</text>
<text xml:space="preserve" text-anchor="middle" x="212.25" y="-333.5" font-family="Helvetica,sans-Serif" font-size="10.00">90K RP</text>
</g>
<!-- Inertial_Confinement_Fusion_Re&#45;&gt;Solid_core_Anti_matter_Power_P -->
<g id="edge8" class="edge">
<title>Inertial_Confinement_Fusion_Re&#45;&gt;Solid_core_Anti_matter_Power_P</title>
<path fill="none" stroke="black" d="M212.25,-389.78C212.25,-383.53 212.25,-376.33 212.25,-369.52"/>
<polygon fill="black" stroke="black" points="214.7,-369.71 212.25,-362.71 209.8,-369.71 214.7,-369.71"/>
</g>
<!-- Gas_core_Anti_matter_Power_Pla -->
<g id="node11" class="node">
<title>Gas_core_Anti_matter_Power_Pla</title>
<path fill="#d4c4fb" stroke="black" d="M281.38,-296C281.38,-296 143.12,-296 143.12,-296 137.12,-296 131.12,-290 131.12,-284 131.12,-284 131.12,-272 131.12,-272 131.12,-266 137.12,-260 143.12,-260 143.12,-260 281.38,-260 281.38,-260 287.38,-260 293.38,-266 293.38,-272 293.38,-272 293.38,-284 293.38,-284 293.38,-290 287.38,-296 281.38,-296"/>
<text xml:space="preserve" text-anchor="middle" x="212.25" y="-279.75" font-family="Helvetica,sans-Serif" font-size="10.00">Gas&#45;core Anti&#45;matter Power Plant</text>
<text xml:space="preserve" text-anchor="middle" x="212.25" y="-268.5" font-family="Helvetica,sans-Serif" font-size="10.00">180K RP</text>
</g>
<!-- Solid_core_Anti_matter_Power_P&#45;&gt;Gas_core_Anti_matter_Power_Pla -->
<g id="edge9" class="edge">
<title>Solid_core_Anti_matter_Power_P&#45;&gt;Gas_core_Anti_matter_Power_Pla</title>
<path fill="none" stroke="black" d="M212.25,-324.78C212.25,-318.53 212.25,-311.33 212.25,-304.52"/>
<polygon fill="black" stroke="black" points="214.7,-304.71 212.25,-297.71 209.8,-304.71 214.7,-304.71"/>
</g>
<!-- Plasma_core_Anti_matter_Power_ -->
<g id="node12" class="node">
<title>Plasma_core_Anti_matter_Power_</title>
<path fill="#d4c4fb" stroke="black" d="M288.88,-231C288.88,-231 135.62,-231 135.62,-231 129.62,-231 123.62,-225 123.62,-219 123.62,-219 123.62,-207 123.62,-207 123.62,-201 129.62,-195 135.62,-195 135.62,-195 288.88,-195 288.88,-195 294.88,-195 300.88,-201 300.88,-207 300.88,-207 300.88,-219 300.88,-219 300.88,-225 294.88,-231 288.88,-231"/>
<text xml:space="preserve" text-anchor="middle" x="212.25" y="-214.75" font-family="Helvetica,sans-Serif" font-size="10.00">Plasma&#45;core Anti&#45;matter Power Plant</text>
<text xml:space="preserve" text-anchor="middle" x="212.25" y="-203.5" font-family="Helvetica,sans-Serif" font-size="10.00">375K RP</text>
</g>
<!-- Gas_core_Anti_matter_Power_Pla&#45;&gt;Plasma_core_Anti_matter_Power_ -->
<g id="edge10" class="edge">
<title>Gas_core_Anti_matter_Power_Pla&#45;&gt;Plasma_core_Anti_matter_Power_</title>
<path fill="none" stroke="black" d="M212.25,-259.78C212.25,-253.53 212.25,-246.33 212.25,-239.52"/>
<polygon fill="black" stroke="black" points="214.7,-239.71 212.25,-232.71 209.8,-239.71 214.7,-239.71"/>
</g>
<!-- Beam_Core_Anti_matter_Power_Pl -->
<g id="node13" class="node">
<title>Beam_Core_Anti_matter_Power_Pl</title>
<path fill="#d4c4fb" stroke="black" d="M286.25,-166C286.25,-166 138.25,-166 138.25,-166 132.25,-166 126.25,-160 126.25,-154 126.25,-154 126.25,-142 126.25,-142 126.25,-136 132.25,-130 138.25,-130 138.25,-130 286.25,-130 286.25,-130 292.25,-130 298.25,-136 298.25,-142 298.25,-142 298.25,-154 298.25,-154 298.25,-160 292.25,-166 286.25,-166"/>
<text xml:space="preserve" text-anchor="middle" x="212.25" y="-149.75" font-family="Helvetica,sans-Serif" font-size="10.00">Beam Core Anti&#45;matter Power Plant</text>
<text xml:space="preserve" text-anchor="middle" x="212.25" y="-138.5" font-family="Helvetica,sans-Serif" font-size="10.00">750K RP</text>
</g>
<!-- Plasma_core_Anti_matter_Power_&#45;&gt;Beam_Core_Anti_matter_Power_Pl -->
<g id="edge11" class="edge">
<title>Plasma_core_Anti_matter_Power_&#45;&gt;Beam_Core_Anti_matter_Power_Pl</title>
<path fill="none" stroke="black" d="M212.25,-194.78C212.25,-188.53 212.25,-181.33 212.25,-174.52"/>
<polygon fill="black" stroke="black" points="214.7,-174.71 212.25,-167.71 209.8,-174.71 214.7,-174.71"/>
</g>
<!-- Vacuum_Energy_Power_Plant -->
<g id="node14" class="node">
<title>Vacuum_Energy_Power_Plant</title>
<path fill="#f8d7da" stroke="black" d="M270.88,-101C270.88,-101 153.62,-101 153.62,-101 147.62,-101 141.62,-95 141.62,-89 141.62,-89 141.62,-77 141.62,-77 141.62,-71 147.62,-65 153.62,-65 153.62,-65 270.88,-65 270.88,-65 276.88,-65 282.88,-71 282.88,-77 282.88,-77 282.88,-89 282.88,-89 282.88,-95 276.88,-101 270.88,-101"/>
<text xml:space="preserve" text-anchor="middle" x="212.25" y="-84.75" font-family="Helvetica,sans-Serif" font-size="10.00">Vacuum Energy Power Plant</text>
<text xml:space="preserve" text-anchor="middle" x="212.25" y="-73.5" font-family="Helvetica,sans-Serif" font-size="10.00">1.5M RP</text>
</g>
<!-- Beam_Core_Anti_matter_Power_Pl&#45;&gt;Vacuum_Energy_Power_Plant -->
<g id="edge12" class="edge">
<title>Beam_Core_Anti_matter_Power_Pl&#45;&gt;Vacuum_Energy_Power_Plant</title>
<path fill="none" stroke="black" d="M212.25,-129.78C212.25,-123.53 212.25,-116.33 212.25,-109.52"/>
<polygon fill="black" stroke="black" points="214.7,-109.71 212.25,-102.71 209.8,-109.71 214.7,-109.71"/>
</g>
<!-- Quantum_Singularity_Power_Plan -->
<g id="node15" class="node">
<title>Quantum_Singularity_Power_Plan</title>
<path fill="#f8d7da" stroke="black" d="M280.62,-36C280.62,-36 143.88,-36 143.88,-36 137.88,-36 131.88,-30 131.88,-24 131.88,-24 131.88,-12 131.88,-12 131.88,-6 137.88,0 143.88,0 143.88,0 280.62,0 280.62,0 286.62,0 292.62,-6 292.62,-12 292.62,-12 292.62,-24 292.62,-24 292.62,-30 286.62,-36 280.62,-36"/>
<text xml:space="preserve" text-anchor="middle" x="212.25" y="-19.75" font-family="Helvetica,sans-Serif" font-size="10.00">Quantum Singularity Power Plant</text>
<text xml:space="preserve" text-anchor="middle" x="212.25" y="-8.5" font-family="Helvetica,sans-Serif" font-size="10.00">3.0M RP</text>
</g>
<!-- Vacuum_Energy_Power_Plant&#45;&gt;Quantum_Singularity_Power_Plan -->
<g id="edge13" class="edge">
<title>Vacuum_Energy_Power_Plant&#45;&gt;Quantum_Singularity_Power_Plan</title>
<path fill="none" stroke="black" d="M212.25,-64.78C212.25,-58.53 212.25,-51.33 212.25,-44.52"/>
<polygon fill="black" stroke="black" points="214.7,-44.71 212.25,-37.71 209.8,-44.71 214.7,-44.71"/>
</g>
</g>
</svg>
