<?xml version="1.0" encoding="UTF-8" standalone="no"?>
<!DOCTYPE svg PUBLIC "-//W3C//DTD SVG 1.1//EN"
 "http://www.w3.org/Graphics/SVG/1.1/DTD/svg11.dtd">
<!-- Generated by graphviz version 14.1.2 (20260124.0452)
 -->
<!-- Title: TechTree Pages: 1 -->
<svg width="427pt" height="67pt"
 viewBox="0.00 0.00 427.00 67.00" xmlns="http://www.w3.org/2000/svg" xmlns:xlink="http://www.w3.org/1999/xlink">
<g id="graph0" class="graph" transform="scale(1 1) rotate(0) translate(4 63)">
<title>TechTree</title>
<polygon fill="white" stroke="none" points="-4,4 -4,-63 422.75,-63 422.75,4 -4,4"/>
<text xml:space="preserve" text-anchor="middle" x="209.38" y="-41.7" font-family="Helvetica,sans-Serif" font-weight="bold" font-size="14.00">Racial Wealth Creation</text>
<!-- Wealth_Generation_per_Million_ -->
<g id="node1" class="node">
<title>Wealth_Generation_per_Million_</title>
<path fill="#f8d7da" stroke="black" d="M208.75,-36C208.75,-36 12,-36 12,-36 6,-36 0,-30 0,-24 0,-24 0,-12 0,-12 0,-6 6,0 12,0 12,0 208.75,0 208.75,0 214.75,0 220.75,-6 220.75,-12 220.75,-12 220.75,-24 220.75,-24 220.75,-30 214.75,-36 208.75,-36"/>
<text xml:space="preserve" text-anchor="middle" x="110.38" y="-19.75" font-family="Helvetica,sans-Serif" font-size="10.00">Wealth Generation per Million TN Workers: 600</text>
<text xml:space="preserve" text-anchor="middle" x="110.38" y="-8.5" font-family="Helvetica,sans-Serif" font-size="10.00">1.2M RP</text>
</g>
<!-- Wealth_Generation_per_Million_&#45;&gt;Wealth_Generation_per_Million_ -->
<g id="edge1" class="edge">
<title>Wealth_Generation_per_Million_&#45;&gt;Wealth_Generation_per_Million_</title>
<path fill="none" stroke="black" d="M220.94,-19.29C234.13,-19.05 242.75,-18.62 242.75,-18 242.75,-17.52 237.7,-17.16 229.41,-16.91"/>
<polygon fill="black" stroke="black" points="229.5,-14.46 222.45,-16.75 229.39,-19.36 229.5,-14.46"/>
</g>
<!-- Wealth_Generation_per_Million_&#45;&gt;Wealth_Generation_per_Million_ -->
<g id="edge2" class="edge">
<title>Wealth_Generation_per_Million_&#45;&gt;Wealth_Generation_per_Million_</title>
<path fill="none" stroke="black" d="M221.04,-20.93C246.26,-20.67 264.75,-19.7 264.75,-18 264.75,-16.5 250.21,-15.56 229.34,-15.19"/>
<polygon fill="black" stroke="black" points="229.59,-12.74 222.56,-15.09 229.52,-17.64 229.59,-12.74"/>
</g>
<!-- Wealth_Generation_per_Million_&#45;&gt;Wealth_Generation_per_Million_ -->
<g id="edge3" class="edge">
<title>Wealth_Generation_per_Million_&#45;&gt;Wealth_Generation_per_Million_</title>
<path fill="none" stroke="black" d="M221.04,-22.5C257.58,-22.49 286.75,-20.99 286.75,-18 286.75,-15.25 261.96,-13.76 229.46,-13.53"/>
<polygon fill="black" stroke="black" points="229.56,-11.08 222.55,-13.51 229.54,-15.98 229.56,-11.08"/>
</g>
<!-- Wealth_Generation_per_Million_&#45;&gt;Wealth_Generation_per_Million_ -->
<g id="edge4" class="edge">
<title>Wealth_Generation_per_Million_&#45;&gt;Wealth_Generation_per_Million_</title>
<path fill="none" stroke="black" d="M221.04,-23.93C268.35,-24.4 308.75,-22.42 308.75,-18 308.75,-13.85 273.09,-11.85 229.55,-12.01"/>
<polygon fill="black" stroke="black" points="229.53,-9.56 222.55,-12.06 229.57,-14.46 229.53,-9.56"/>
</g>
<!-- Wealth_Generation_per_Million_&#45;&gt;Wealth_Generation_per_Million_ -->
<g id="edge5" class="edge">
<title>Wealth_Generation_per_Million_&#45;&gt;Wealth_Generation_per_Million_</title>
<path fill="none" stroke="black" d="M221.21,-25.23C278.79,-26.36 330.75,-23.95 330.75,-18 330.75,-12.34 283.74,-9.89 229.6,-10.63"/>
<polygon fill="black" stroke="black" points="229.69,-8.18 222.73,-10.74 229.77,-13.08 229.69,-8.18"/>
</g>
<!-- Wealth_Generation_per_Million_&#45;&gt;Wealth_Generation_per_Million_ -->
<g id="edge6" class="edge">
<title>Wealth_Generation_per_Million_&#45;&gt;Wealth_Generation_per_Million_</title>
<path fill="none" stroke="black" d="M221,-26.39C288.64,-28.36 352.75,-25.56 352.75,-18 352.75,-10.75 293.79,-7.88 229.3,-9.39"/>
<polygon fill="black" stroke="black" points="229.44,-6.93 222.51,-9.57 229.57,-11.83 229.44,-6.93"/>
</g>
<!-- Wealth_Generation_per_Million_&#45;&gt;Wealth_Generation_per_Million_ -->
<g id="edge7" class="edge">
<title>Wealth_Generation_per_Million_&#45;&gt;Wealth_Generation_per_Million_</title>
<path fill="none" stroke="black" d="M221.07,-27.45C298.39,-30.36 374.75,-27.21 374.75,-18 374.75,-9.11 303.67,-5.86 229.22,-8.27"/>
<polygon fill="black" stroke="black" points="229.49,-5.8 222.58,-8.5 229.66,-10.7 229.49,-5.8"/>
</g>
<!-- Wealth_Generation_per_Million_&#45;&gt;Wealth_Generation_per_Million_ -->
<g id="edge8" class="edge">
<title>Wealth_Generation_per_Million_&#45;&gt;Wealth_Generation_per_Million_</title>
<path fill="none" stroke="black" d="M220.96,-28.4C307.79,-32.39 396.75,-28.92 396.75,-18 396.75,-7.43 313.43,-3.84 229.36,-7.24"/>
<polygon fill="black" stroke="black" points="229.36,-4.79 222.47,-7.54 229.57,-9.68 229.36,-4.79"/>
</g>
<!-- Wealth_Generation_per_Million_&#45;&gt;Wealth_Generation_per_Million_ -->
<g id="edge9" class="edge">
<title>Wealth_Generation_per_Million_&#45;&gt;Wealth_Generation_per_Million_</title>
<path fill="none" stroke="black" d="M221.03,-29.27C317.11,-34.41 418.75,-30.66 418.75,-18 418.75,-5.71 322.98,-1.81 229.49,-6.3"/>
<polygon fill="black" stroke="black" points="229.41,-3.85 222.55,-6.65 229.66,-8.74 229.41,-3.85"/>
</g>
</g>
</svg>
