<?xml version="1.0" encoding="UTF-8" standalone="no"?>
<!DOCTYPE svg PUBLIC "-//W3C//DTD SVG 1.1//EN"
 "http://www.w3.org/Graphics/SVG/1.1/DTD/svg11.dtd">
<!-- Generated by graphviz version 14.1.2 (20260124.0452)
 -->
<!-- Title: TechTree Pages: 1 -->
<svg width="378pt" height="65pt"
 viewBox="0.00 0.00 378.00 65.00" xmlns="http://www.w3.org/2000/svg" xmlns:xlink="http://www.w3.org/1999/xlink">
<g id="graph0" class="graph" transform="scale(1 1) rotate(0) translate(4 60.75)">
<title>TechTree</title>
<polygon fill="white" stroke="none" points="-4,4 -4,-60.75 374,-60.75 374,4 -4,4"/>
<text xml:space="preserve" text-anchor="middle" x="185" y="-41.35" font-family="Helvetica,sans-Serif" font-weight="bold" font-size="12.00">Racial Wealth Creation</text>
<!-- Wealth_Generation_per_Million_ -->
<g id="node1" class="node">
<title>Wealth_Generation_per_Million_</title>
<path fill="#f8d7da" stroke="black" d="M196,-36C196,-36 12,-36 12,-36 6,-36 0,-30 0,-24 0,-24 0,-12 0,-12 0,-6 6,0 12,0 12,0 196,0 196,0 202,0 208,-6 208,-12 208,-12 208,-24 208,-24 208,-30 202,-36 196,-36"/>
<text xml:space="preserve" text-anchor="middle" x="104" y="-19.2" font-family="Helvetica,sans-Serif" font-size="9.00">Wealth Generation per Million TN Workers: 600</text>
<text xml:space="preserve" text-anchor="middle" x="104" y="-9.45" font-family="Helvetica,sans-Serif" font-size="9.00">1.2M RP</text>
</g>
<!-- Wealth_Generation_per_Million_&#45;&gt;Wealth_Generation_per_Million_ -->
<g id="edge1" class="edge">
<title>Wealth_Generation_per_Million_&#45;&gt;Wealth_Generation_per_Million_</title>
<path fill="none" stroke="black" d="M208.13,-19.24C219.02,-19 226,-18.59 226,-18 226,-17.56 222.07,-17.22 215.51,-16.97"/>
<polygon fill="black" stroke="black" points="215.7,-14.88 209.64,-16.8 215.57,-19.07 215.7,-14.88"/>
</g>
<!-- Wealth_Generation_per_Million_&#45;&gt;Wealth_Generation_per_Million_ -->
<g id="edge2" class="edge">
<title>Wealth_Generation_per_Million_&#45;&gt;Wealth_Generation_per_Million_</title>
<path fill="none" stroke="black" d="M208.4,-20.88C229.18,-20.55 244,-19.59 244,-18 244,-16.61 232.66,-15.7 215.9,-15.27"/>
<polygon fill="black" stroke="black" points="215.96,-13.18 209.92,-15.15 215.87,-17.37 215.96,-13.18"/>
</g>
<!-- Wealth_Generation_per_Million_&#45;&gt;Wealth_Generation_per_Million_ -->
<g id="edge3" class="edge">
<title>Wealth_Generation_per_Million_&#45;&gt;Wealth_Generation_per_Million_</title>
<path fill="none" stroke="black" d="M208.46,-22.48C238.66,-22.32 262,-20.82 262,-18 262,-15.41 242.33,-13.94 215.75,-13.58"/>
<polygon fill="black" stroke="black" points="216,-11.49 209.98,-13.53 215.96,-15.69 216,-11.49"/>
</g>
<!-- Wealth_Generation_per_Million_&#45;&gt;Wealth_Generation_per_Million_ -->
<g id="edge4" class="edge">
<title>Wealth_Generation_per_Million_&#45;&gt;Wealth_Generation_per_Million_</title>
<path fill="none" stroke="black" d="M208.36,-23.98C247.61,-24.2 280,-22.2 280,-18 280,-14.06 251.53,-12.06 215.63,-12"/>
<polygon fill="black" stroke="black" points="215.87,-9.9 209.87,-12.01 215.88,-14.1 215.87,-9.9"/>
</g>
<!-- Wealth_Generation_per_Million_&#45;&gt;Wealth_Generation_per_Million_ -->
<g id="edge5" class="edge">
<title>Wealth_Generation_per_Million_&#45;&gt;Wealth_Generation_per_Million_</title>
<path fill="none" stroke="black" d="M208.28,-25.36C256.22,-26.14 298,-23.68 298,-18 298,-12.61 260.36,-10.12 215.53,-10.55"/>
<polygon fill="black" stroke="black" points="215.77,-8.44 209.79,-10.62 215.82,-12.64 215.77,-8.44"/>
</g>
<!-- Wealth_Generation_per_Million_&#45;&gt;Wealth_Generation_per_Million_ -->
<g id="edge6" class="edge">
<title>Wealth_Generation_per_Million_&#45;&gt;Wealth_Generation_per_Million_</title>
<path fill="none" stroke="black" d="M208.44,-26.62C264.69,-28.1 316,-25.23 316,-18 316,-11.08 269,-8.15 215.66,-9.21"/>
<polygon fill="black" stroke="black" points="215.9,-7.11 209.95,-9.34 216,-11.3 215.9,-7.11"/>
</g>
<!-- Wealth_Generation_per_Million_&#45;&gt;Wealth_Generation_per_Million_ -->
<g id="edge7" class="edge">
<title>Wealth_Generation_per_Million_&#45;&gt;Wealth_Generation_per_Million_</title>
<path fill="none" stroke="black" d="M208.38,-27.77C272.79,-30.1 334,-26.85 334,-18 334,-9.48 277.25,-6.15 215.53,-7.99"/>
<polygon fill="black" stroke="black" points="215.82,-5.88 209.89,-8.18 215.95,-10.08 215.82,-5.88"/>
</g>
<!-- Wealth_Generation_per_Million_&#45;&gt;Wealth_Generation_per_Million_ -->
<g id="edge8" class="edge">
<title>Wealth_Generation_per_Million_&#45;&gt;Wealth_Generation_per_Million_</title>
<path fill="none" stroke="black" d="M208.48,-28.83C280.8,-32.11 352,-28.5 352,-18 352,-7.85 285.45,-4.14 215.68,-6.87"/>
<polygon fill="black" stroke="black" points="215.9,-4.76 209.99,-7.11 216.08,-8.95 215.9,-4.76"/>
</g>
<!-- Wealth_Generation_per_Million_&#45;&gt;Wealth_Generation_per_Million_ -->
<g id="edge9" class="edge">
<title>Wealth_Generation_per_Million_&#45;&gt;Wealth_Generation_per_Million_</title>
<path fill="none" stroke="black" d="M208.45,-29.79C288.55,-34.13 370,-30.2 370,-18 370,-6.16 293.25,-2.11 215.49,-5.85"/>
<polygon fill="black" stroke="black" points="215.84,-3.73 209.96,-6.13 216.06,-7.92 215.84,-3.73"/>
</g>
</g>
</svg>
