<?xml version="1.0" encoding="UTF-8" standalone="no"?>
<!DOCTYPE svg PUBLIC "-//W3C//DTD SVG 1.1//EN"
 "http://www.w3.org/Graphics/SVG/1.1/DTD/svg11.dtd">
<!-- Generated by graphviz version 14.1.2 (20260124.0452)
 -->
<!-- Title: TechTree Pages: 1 -->
<svg width="313pt" height="641pt"
 viewBox="0.00 0.00 313.00 641.00" xmlns="http://www.w3.org/2000/svg" xmlns:xlink="http://www.w3.org/1999/xlink">
<g id="graph0" class="graph" transform="scale(1 1) rotate(0) translate(4 636.75)">
<title>TechTree</title>
<polygon fill="white" stroke="none" points="-4,4 -4,-636.75 308.75,-636.75 308.75,4 -4,4"/>
<text xml:space="preserve" text-anchor="middle" x="152.38" y="-617.35" font-family="Helvetica,sans-Serif" font-weight="bold" font-size="12.00">Railgun Velocity</text>
<!-- Railgun_Launch_Velocity_10_000 -->
<g id="node1" class="node">
<title>Railgun_Launch_Velocity_10_000</title>
<path fill="#cce5ff" stroke="black" d="M133.75,-612C133.75,-612 12,-612 12,-612 6,-612 0,-606 0,-600 0,-600 0,-588 0,-588 0,-582 6,-576 12,-576 12,-576 133.75,-576 133.75,-576 139.75,-576 145.75,-582 145.75,-588 145.75,-588 145.75,-600 145.75,-600 145.75,-606 139.75,-612 133.75,-612"/>
<text xml:space="preserve" text-anchor="middle" x="72.88" y="-595.2" font-family="Helvetica,sans-Serif" font-size="9.00">Railgun Launch Velocity 10,000</text>
<text xml:space="preserve" text-anchor="middle" x="72.88" y="-585.45" font-family="Helvetica,sans-Serif" font-size="9.00">1K RP</text>
</g>
<!-- Railgun_Launch_Velocity_20_000 -->
<g id="node2" class="node">
<title>Railgun_Launch_Velocity_20_000</title>
<path fill="#cce5ff" stroke="black" d="M292.75,-540C292.75,-540 171,-540 171,-540 165,-540 159,-534 159,-528 159,-528 159,-516 159,-516 159,-510 165,-504 171,-504 171,-504 292.75,-504 292.75,-504 298.75,-504 304.75,-510 304.75,-516 304.75,-516 304.75,-528 304.75,-528 304.75,-534 298.75,-540 292.75,-540"/>
<text xml:space="preserve" text-anchor="middle" x="231.88" y="-523.2" font-family="Helvetica,sans-Serif" font-size="9.00">Railgun Launch Velocity 20,000</text>
<text xml:space="preserve" text-anchor="middle" x="231.88" y="-513.45" font-family="Helvetica,sans-Serif" font-size="9.00">2K RP</text>
</g>
<!-- Railgun_Launch_Velocity_30_000 -->
<g id="node3" class="node">
<title>Railgun_Launch_Velocity_30_000</title>
<path fill="#cce5ff" stroke="black" d="M292.75,-468C292.75,-468 171,-468 171,-468 165,-468 159,-462 159,-456 159,-456 159,-444 159,-444 159,-438 165,-432 171,-432 171,-432 292.75,-432 292.75,-432 298.75,-432 304.75,-438 304.75,-444 304.75,-444 304.75,-456 304.75,-456 304.75,-462 298.75,-468 292.75,-468"/>
<text xml:space="preserve" text-anchor="middle" x="231.88" y="-451.2" font-family="Helvetica,sans-Serif" font-size="9.00">Railgun Launch Velocity 30,000</text>
<text xml:space="preserve" text-anchor="middle" x="231.88" y="-441.45" font-family="Helvetica,sans-Serif" font-size="9.00">5K RP</text>
</g>
<!-- Railgun_Launch_Velocity_20_000&#45;&gt;Railgun_Launch_Velocity_30_000 -->
<g id="edge2" class="edge">
<title>Railgun_Launch_Velocity_20_000&#45;&gt;Railgun_Launch_Velocity_30_000</title>
<path fill="none" stroke="black" d="M231.88,-503.7C231.88,-495.22 231.88,-484.86 231.88,-475.58"/>
<polygon fill="black" stroke="black" points="233.98,-475.62 231.88,-469.62 229.78,-475.62 233.98,-475.62"/>
</g>
<!-- Railgun_Launch_Velocity_40_000 -->
<g id="node4" class="node">
<title>Railgun_Launch_Velocity_40_000</title>
<path fill="#cce5ff" stroke="black" d="M292.75,-396C292.75,-396 171,-396 171,-396 165,-396 159,-390 159,-384 159,-384 159,-372 159,-372 159,-366 165,-360 171,-360 171,-360 292.75,-360 292.75,-360 298.75,-360 304.75,-366 304.75,-372 304.75,-372 304.75,-384 304.75,-384 304.75,-390 298.75,-396 292.75,-396"/>
<text xml:space="preserve" text-anchor="middle" x="231.88" y="-379.2" font-family="Helvetica,sans-Serif" font-size="9.00">Railgun Launch Velocity 40,000</text>
<text xml:space="preserve" text-anchor="middle" x="231.88" y="-369.45" font-family="Helvetica,sans-Serif" font-size="9.00">8K RP</text>
</g>
<!-- Railgun_Launch_Velocity_30_000&#45;&gt;Railgun_Launch_Velocity_40_000 -->
<g id="edge3" class="edge">
<title>Railgun_Launch_Velocity_30_000&#45;&gt;Railgun_Launch_Velocity_40_000</title>
<path fill="none" stroke="black" d="M231.88,-431.7C231.88,-423.22 231.88,-412.86 231.88,-403.58"/>
<polygon fill="black" stroke="black" points="233.98,-403.62 231.88,-397.62 229.78,-403.62 233.98,-403.62"/>
</g>
<!-- Railgun_Launch_Velocity_50_000 -->
<g id="node5" class="node">
<title>Railgun_Launch_Velocity_50_000</title>
<path fill="#cce5ff" stroke="black" d="M292.75,-324C292.75,-324 171,-324 171,-324 165,-324 159,-318 159,-312 159,-312 159,-300 159,-300 159,-294 165,-288 171,-288 171,-288 292.75,-288 292.75,-288 298.75,-288 304.75,-294 304.75,-300 304.75,-300 304.75,-312 304.75,-312 304.75,-318 298.75,-324 292.75,-324"/>
<text xml:space="preserve" text-anchor="middle" x="231.88" y="-307.2" font-family="Helvetica,sans-Serif" font-size="9.00">Railgun Launch Velocity 50,000</text>
<text xml:space="preserve" text-anchor="middle" x="231.88" y="-297.45" font-family="Helvetica,sans-Serif" font-size="9.00">10K RP</text>
</g>
<!-- Railgun_Launch_Velocity_40_000&#45;&gt;Railgun_Launch_Velocity_50_000 -->
<g id="edge4" class="edge">
<title>Railgun_Launch_Velocity_40_000&#45;&gt;Railgun_Launch_Velocity_50_000</title>
<path fill="none" stroke="black" d="M231.88,-359.7C231.88,-351.22 231.88,-340.86 231.88,-331.58"/>
<polygon fill="black" stroke="black" points="233.98,-331.62 231.88,-325.62 229.78,-331.62 233.98,-331.62"/>
</g>
<!-- Railgun_Launch_Velocity_60_000 -->
<g id="node6" class="node">
<title>Railgun_Launch_Velocity_60_000</title>
<path fill="#fff3cd" stroke="black" d="M292.75,-252C292.75,-252 171,-252 171,-252 165,-252 159,-246 159,-240 159,-240 159,-228 159,-228 159,-222 165,-216 171,-216 171,-216 292.75,-216 292.75,-216 298.75,-216 304.75,-222 304.75,-228 304.75,-228 304.75,-240 304.75,-240 304.75,-246 298.75,-252 292.75,-252"/>
<text xml:space="preserve" text-anchor="middle" x="231.88" y="-235.2" font-family="Helvetica,sans-Serif" font-size="9.00">Railgun Launch Velocity 60,000</text>
<text xml:space="preserve" text-anchor="middle" x="231.88" y="-225.45" font-family="Helvetica,sans-Serif" font-size="9.00">20K RP</text>
</g>
<!-- Railgun_Launch_Velocity_50_000&#45;&gt;Railgun_Launch_Velocity_60_000 -->
<g id="edge5" class="edge">
<title>Railgun_Launch_Velocity_50_000&#45;&gt;Railgun_Launch_Velocity_60_000</title>
<path fill="none" stroke="black" d="M231.88,-287.7C231.88,-279.22 231.88,-268.86 231.88,-259.58"/>
<polygon fill="black" stroke="black" points="233.98,-259.62 231.88,-253.62 229.78,-259.62 233.98,-259.62"/>
</g>
<!-- Railgun_Launch_Velocity_70_000 -->
<g id="node7" class="node">
<title>Railgun_Launch_Velocity_70_000</title>
<path fill="#fff3cd" stroke="black" d="M292.75,-180C292.75,-180 171,-180 171,-180 165,-180 159,-174 159,-168 159,-168 159,-156 159,-156 159,-150 165,-144 171,-144 171,-144 292.75,-144 292.75,-144 298.75,-144 304.75,-150 304.75,-156 304.75,-156 304.75,-168 304.75,-168 304.75,-174 298.75,-180 292.75,-180"/>
<text xml:space="preserve" text-anchor="middle" x="231.88" y="-163.2" font-family="Helvetica,sans-Serif" font-size="9.00">Railgun Launch Velocity 70,000</text>
<text xml:space="preserve" text-anchor="middle" x="231.88" y="-153.45" font-family="Helvetica,sans-Serif" font-size="9.00">40K RP</text>
</g>
<!-- Railgun_Launch_Velocity_60_000&#45;&gt;Railgun_Launch_Velocity_70_000 -->
<g id="edge6" class="edge">
<title>Railgun_Launch_Velocity_60_000&#45;&gt;Railgun_Launch_Velocity_70_000</title>
<path fill="none" stroke="black" d="M231.88,-215.7C231.88,-207.22 231.88,-196.86 231.88,-187.58"/>
<polygon fill="black" stroke="black" points="233.98,-187.62 231.88,-181.62 229.78,-187.62 233.98,-187.62"/>
</g>
<!-- Railgun_Launch_Velocity_80_000 -->
<g id="node8" class="node">
<title>Railgun_Launch_Velocity_80_000</title>
<path fill="#d4c4fb" stroke="black" d="M292.75,-108C292.75,-108 171,-108 171,-108 165,-108 159,-102 159,-96 159,-96 159,-84 159,-84 159,-78 165,-72 171,-72 171,-72 292.75,-72 292.75,-72 298.75,-72 304.75,-78 304.75,-84 304.75,-84 304.75,-96 304.75,-96 304.75,-102 298.75,-108 292.75,-108"/>
<text xml:space="preserve" text-anchor="middle" x="231.88" y="-91.2" font-family="Helvetica,sans-Serif" font-size="9.00">Railgun Launch Velocity 80,000</text>
<text xml:space="preserve" text-anchor="middle" x="231.88" y="-81.45" font-family="Helvetica,sans-Serif" font-size="9.00">120K RP</text>
</g>
<!-- Railgun_Launch_Velocity_70_000&#45;&gt;Railgun_Launch_Velocity_80_000 -->
<g id="edge7" class="edge">
<title>Railgun_Launch_Velocity_70_000&#45;&gt;Railgun_Launch_Velocity_80_000</title>
<path fill="none" stroke="black" d="M231.88,-143.7C231.88,-135.22 231.88,-124.86 231.88,-115.58"/>
<polygon fill="black" stroke="black" points="233.98,-115.62 231.88,-109.62 229.78,-115.62 233.98,-115.62"/>
</g>
<!-- Railgun_Launch_Velocity_90_000 -->
<g id="node9" class="node">
<title>Railgun_Launch_Velocity_90_000</title>
<path fill="#d4c4fb" stroke="black" d="M292.75,-36C292.75,-36 171,-36 171,-36 165,-36 159,-30 159,-24 159,-24 159,-12 159,-12 159,-6 165,0 171,0 171,0 292.75,0 292.75,0 298.75,0 304.75,-6 304.75,-12 304.75,-12 304.75,-24 304.75,-24 304.75,-30 298.75,-36 292.75,-36"/>
<text xml:space="preserve" text-anchor="middle" x="231.88" y="-19.2" font-family="Helvetica,sans-Serif" font-size="9.00">Railgun Launch Velocity 90,000</text>
<text xml:space="preserve" text-anchor="middle" x="231.88" y="-9.45" font-family="Helvetica,sans-Serif" font-size="9.00">240K RP</text>
</g>
<!-- Railgun_Launch_Velocity_80_000&#45;&gt;Railgun_Launch_Velocity_90_000 -->
<g id="edge8" class="edge">
<title>Railgun_Launch_Velocity_80_000&#45;&gt;Railgun_Launch_Velocity_90_000</title>
<path fill="none" stroke="black" d="M231.88,-71.7C231.88,-63.22 231.88,-52.86 231.88,-43.58"/>
<polygon fill="black" stroke="black" points="233.98,-43.62 231.88,-37.62 229.78,-43.62 233.98,-43.62"/>
</g>
<!-- ext_Trans_Newtonian_Technology -->
<g id="node10" class="node">
<title>ext_Trans_Newtonian_Technology</title>
<path fill="#f0f0f0" stroke="black" stroke-dasharray="5,2" d="M287.88,-612C287.88,-612 175.88,-612 175.88,-612 169.88,-612 163.88,-606 163.88,-600 163.88,-600 163.88,-588 163.88,-588 163.88,-582 169.88,-576 175.88,-576 175.88,-576 287.88,-576 287.88,-576 293.88,-576 299.88,-582 299.88,-588 299.88,-588 299.88,-600 299.88,-600 299.88,-606 293.88,-612 287.88,-612"/>
<text xml:space="preserve" text-anchor="middle" x="231.88" y="-590.33" font-family="Helvetica,sans-Serif" font-size="9.00">Trans&#45;Newtonian Technology</text>
</g>
<!-- ext_Trans_Newtonian_Technology&#45;&gt;Railgun_Launch_Velocity_20_000 -->
<g id="edge1" class="edge">
<title>ext_Trans_Newtonian_Technology&#45;&gt;Railgun_Launch_Velocity_20_000</title>
<path fill="none" stroke="black" d="M231.88,-575.7C231.88,-567.22 231.88,-556.86 231.88,-547.58"/>
<polygon fill="black" stroke="black" points="233.98,-547.62 231.88,-541.62 229.78,-547.62 233.98,-547.62"/>
</g>
</g>
</svg>
