<?xml version="1.0" encoding="UTF-8" standalone="no"?>
<!DOCTYPE svg PUBLIC "-//W3C//DTD SVG 1.1//EN"
 "http://www.w3.org/Graphics/SVG/1.1/DTD/svg11.dtd">
<!-- Generated by graphviz version 14.1.2 (20260124.0452)
 -->
<!-- Title: TechTree Pages: 1 -->
<svg width="594pt" height="132pt"
 viewBox="0.00 0.00 594.00 132.00" xmlns="http://www.w3.org/2000/svg" xmlns:xlink="http://www.w3.org/1999/xlink">
<g id="graph0" class="graph" transform="scale(1 1) rotate(0) translate(4 128)">
<title>TechTree</title>
<polygon fill="white" stroke="none" points="-4,4 -4,-128 590,-128 590,4 -4,4"/>
<text xml:space="preserve" text-anchor="middle" x="293" y="-106.7" font-family="Helvetica,sans-Serif" font-weight="bold" font-size="14.00">Railgun Type</text>
<!-- 10 -->
<g id="node1" class="node">
<title>10</title>
<path fill="lightgrey" stroke="black" d="M221,-101C221,-101 191,-101 191,-101 185,-101 179,-95 179,-89 179,-89 179,-77 179,-77 179,-71 185,-65 191,-65 191,-65 221,-65 221,-65 227,-65 233,-71 233,-77 233,-77 233,-89 233,-89 233,-95 227,-101 221,-101"/>
<text xml:space="preserve" text-anchor="middle" x="206" y="-79.12" font-family="Helvetica,sans-Serif" font-size="10.00">10</text>
</g>
<!-- cm_Railgun -->
<g id="node2" class="node">
<title>cm_Railgun</title>
<path fill="#d4c4fb" stroke="black" d="M319,-101C319,-101 267,-101 267,-101 261,-101 255,-95 255,-89 255,-89 255,-77 255,-77 255,-71 261,-65 267,-65 267,-65 319,-65 319,-65 325,-65 331,-71 331,-77 331,-77 331,-89 331,-89 331,-95 325,-101 319,-101"/>
<text xml:space="preserve" text-anchor="middle" x="293" y="-84.75" font-family="Helvetica,sans-Serif" font-size="10.00">50cm Railgun</text>
<text xml:space="preserve" text-anchor="middle" x="293" y="-73.5" font-family="Helvetica,sans-Serif" font-size="10.00">240K RP</text>
</g>
<!-- 15 -->
<g id="node4" class="node">
<title>15</title>
<path fill="lightgrey" stroke="black" d="M42,-36C42,-36 12,-36 12,-36 6,-36 0,-30 0,-24 0,-24 0,-12 0,-12 0,-6 6,0 12,0 12,0 42,0 42,0 48,0 54,-6 54,-12 54,-12 54,-24 54,-24 54,-30 48,-36 42,-36"/>
<text xml:space="preserve" text-anchor="middle" x="27" y="-14.12" font-family="Helvetica,sans-Serif" font-size="10.00">15</text>
</g>
<!-- cm_Railgun&#45;&gt;15 -->
<g id="edge1" class="edge">
<title>cm_Railgun&#45;&gt;15</title>
<path fill="none" stroke="black" d="M254.67,-68C251.09,-66.9 247.49,-65.88 244,-65 165.86,-45.27 142.21,-59.1 65,-36 64.13,-35.74 63.26,-35.47 62.39,-35.18"/>
<polygon fill="black" stroke="black" points="63.33,-32.92 55.91,-32.82 61.65,-37.52 63.33,-32.92"/>
</g>
<!-- 20 -->
<g id="node5" class="node">
<title>20</title>
<path fill="lightgrey" stroke="black" d="M118,-36C118,-36 88,-36 88,-36 82,-36 76,-30 76,-24 76,-24 76,-12 76,-12 76,-6 82,0 88,0 88,0 118,0 118,0 124,0 130,-6 130,-12 130,-12 130,-24 130,-24 130,-30 124,-36 118,-36"/>
<text xml:space="preserve" text-anchor="middle" x="103" y="-14.12" font-family="Helvetica,sans-Serif" font-size="10.00">20</text>
</g>
<!-- cm_Railgun&#45;&gt;20 -->
<g id="edge2" class="edge">
<title>cm_Railgun&#45;&gt;20</title>
<path fill="none" stroke="black" d="M254.55,-68.42C251,-67.24 247.44,-66.08 244,-65 198.63,-50.76 185.71,-52.2 141,-36 140.01,-35.64 139,-35.27 137.99,-34.88"/>
<polygon fill="black" stroke="black" points="139.01,-32.65 131.61,-32.31 137.18,-37.2 139.01,-32.65"/>
</g>
<!-- 25 -->
<g id="node6" class="node">
<title>25</title>
<path fill="lightgrey" stroke="black" d="M194,-36C194,-36 164,-36 164,-36 158,-36 152,-30 152,-24 152,-24 152,-12 152,-12 152,-6 158,0 164,0 164,0 194,0 194,0 200,0 206,-6 206,-12 206,-12 206,-24 206,-24 206,-30 200,-36 194,-36"/>
<text xml:space="preserve" text-anchor="middle" x="179" y="-14.12" font-family="Helvetica,sans-Serif" font-size="10.00">25</text>
</g>
<!-- cm_Railgun&#45;&gt;25 -->
<g id="edge3" class="edge">
<title>cm_Railgun&#45;&gt;25</title>
<path fill="none" stroke="black" d="M261.55,-64.62C246.71,-56.42 228.96,-46.61 213.72,-38.19"/>
<polygon fill="black" stroke="black" points="215.11,-36.16 207.8,-34.91 212.74,-40.44 215.11,-36.16"/>
</g>
<!-- 30 -->
<g id="node7" class="node">
<title>30</title>
<path fill="lightgrey" stroke="black" d="M270,-36C270,-36 240,-36 240,-36 234,-36 228,-30 228,-24 228,-24 228,-12 228,-12 228,-6 234,0 240,0 240,0 270,0 270,0 276,0 282,-6 282,-12 282,-12 282,-24 282,-24 282,-30 276,-36 270,-36"/>
<text xml:space="preserve" text-anchor="middle" x="255" y="-14.12" font-family="Helvetica,sans-Serif" font-size="10.00">30</text>
</g>
<!-- cm_Railgun&#45;&gt;30 -->
<g id="edge4" class="edge">
<title>cm_Railgun&#45;&gt;30</title>
<path fill="none" stroke="black" d="M282.62,-64.78C278.59,-58.12 273.92,-50.37 269.57,-43.16"/>
<polygon fill="black" stroke="black" points="271.87,-42.22 266.15,-37.49 267.67,-44.75 271.87,-42.22"/>
</g>
<!-- 35 -->
<g id="node8" class="node">
<title>35</title>
<path fill="lightgrey" stroke="black" d="M346,-36C346,-36 316,-36 316,-36 310,-36 304,-30 304,-24 304,-24 304,-12 304,-12 304,-6 310,0 316,0 316,0 346,0 346,0 352,0 358,-6 358,-12 358,-12 358,-24 358,-24 358,-30 352,-36 346,-36"/>
<text xml:space="preserve" text-anchor="middle" x="331" y="-14.12" font-family="Helvetica,sans-Serif" font-size="10.00">35</text>
</g>
<!-- cm_Railgun&#45;&gt;35 -->
<g id="edge5" class="edge">
<title>cm_Railgun&#45;&gt;35</title>
<path fill="none" stroke="black" d="M303.38,-64.78C307.41,-58.12 312.08,-50.37 316.43,-43.16"/>
<polygon fill="black" stroke="black" points="318.33,-44.75 319.85,-37.49 314.13,-42.22 318.33,-44.75"/>
</g>
<!-- 40 -->
<g id="node9" class="node">
<title>40</title>
<path fill="lightgrey" stroke="black" d="M422,-36C422,-36 392,-36 392,-36 386,-36 380,-30 380,-24 380,-24 380,-12 380,-12 380,-6 386,0 392,0 392,0 422,0 422,0 428,0 434,-6 434,-12 434,-12 434,-24 434,-24 434,-30 428,-36 422,-36"/>
<text xml:space="preserve" text-anchor="middle" x="407" y="-14.12" font-family="Helvetica,sans-Serif" font-size="10.00">40</text>
</g>
<!-- cm_Railgun&#45;&gt;40 -->
<g id="edge6" class="edge">
<title>cm_Railgun&#45;&gt;40</title>
<path fill="none" stroke="black" d="M324.45,-64.62C339.29,-56.42 357.04,-46.61 372.28,-38.19"/>
<polygon fill="black" stroke="black" points="373.26,-40.44 378.2,-34.91 370.89,-36.16 373.26,-40.44"/>
</g>
<!-- 45 -->
<g id="node10" class="node">
<title>45</title>
<path fill="lightgrey" stroke="black" d="M498,-36C498,-36 468,-36 468,-36 462,-36 456,-30 456,-24 456,-24 456,-12 456,-12 456,-6 462,0 468,0 468,0 498,0 498,0 504,0 510,-6 510,-12 510,-12 510,-24 510,-24 510,-30 504,-36 498,-36"/>
<text xml:space="preserve" text-anchor="middle" x="483" y="-14.12" font-family="Helvetica,sans-Serif" font-size="10.00">45</text>
</g>
<!-- cm_Railgun&#45;&gt;45 -->
<g id="edge7" class="edge">
<title>cm_Railgun&#45;&gt;45</title>
<path fill="none" stroke="black" d="M331.45,-68.42C335,-67.24 338.56,-66.08 342,-65 387.37,-50.76 400.29,-52.2 445,-36 445.99,-35.64 447,-35.27 448.01,-34.88"/>
<polygon fill="black" stroke="black" points="448.82,-37.2 454.39,-32.31 446.99,-32.65 448.82,-37.2"/>
</g>
<!-- 50 -->
<g id="node11" class="node">
<title>50</title>
<path fill="lightgrey" stroke="black" d="M574,-36C574,-36 544,-36 544,-36 538,-36 532,-30 532,-24 532,-24 532,-12 532,-12 532,-6 538,0 544,0 544,0 574,0 574,0 580,0 586,-6 586,-12 586,-12 586,-24 586,-24 586,-30 580,-36 574,-36"/>
<text xml:space="preserve" text-anchor="middle" x="559" y="-14.12" font-family="Helvetica,sans-Serif" font-size="10.00">50</text>
</g>
<!-- cm_Railgun&#45;&gt;50 -->
<g id="edge8" class="edge">
<title>cm_Railgun&#45;&gt;50</title>
<path fill="none" stroke="black" d="M331.33,-68C334.91,-66.9 338.51,-65.88 342,-65 420.14,-45.27 443.79,-59.1 521,-36 521.87,-35.74 522.74,-35.47 523.61,-35.18"/>
<polygon fill="black" stroke="black" points="524.35,-37.52 530.09,-32.82 522.67,-32.92 524.35,-37.52"/>
</g>
<!-- 12 -->
<g id="node3" class="node">
<title>12</title>
<path fill="lightgrey" stroke="black" d="M395,-101C395,-101 365,-101 365,-101 359,-101 353,-95 353,-89 353,-89 353,-77 353,-77 353,-71 359,-65 365,-65 365,-65 395,-65 395,-65 401,-65 407,-71 407,-77 407,-77 407,-89 407,-89 407,-95 401,-101 395,-101"/>
<text xml:space="preserve" text-anchor="middle" x="380" y="-79.12" font-family="Helvetica,sans-Serif" font-size="10.00">12</text>
</g>
</g>
</svg>
