<?xml version="1.0" encoding="UTF-8" standalone="no"?>
<!DOCTYPE svg PUBLIC "-//W3C//DTD SVG 1.1//EN"
 "http://www.w3.org/Graphics/SVG/1.1/DTD/svg11.dtd">
<!-- Generated by graphviz version 14.1.2 (20260124.0452)
 -->
<!-- Title: TechTree Pages: 1 -->
<svg width="338pt" height="522pt"
 viewBox="0.00 0.00 338.00 522.00" xmlns="http://www.w3.org/2000/svg" xmlns:xlink="http://www.w3.org/1999/xlink">
<g id="graph0" class="graph" transform="scale(1 1) rotate(0) translate(4 518)">
<title>TechTree</title>
<polygon fill="white" stroke="none" points="-4,4 -4,-518 334,-518 334,4 -4,4"/>
<text xml:space="preserve" text-anchor="middle" x="165" y="-496.7" font-family="Helvetica,sans-Serif" font-weight="bold" font-size="14.00">Railgun Velocity</text>
<!-- Railgun_Launch_Velocity_10_000 -->
<g id="node1" class="node">
<title>Railgun_Launch_Velocity_10_000</title>
<path fill="#cce5ff" stroke="black" d="M142,-491C142,-491 12,-491 12,-491 6,-491 0,-485 0,-479 0,-479 0,-467 0,-467 0,-461 6,-455 12,-455 12,-455 142,-455 142,-455 148,-455 154,-461 154,-467 154,-467 154,-479 154,-479 154,-485 148,-491 142,-491"/>
<text xml:space="preserve" text-anchor="middle" x="77" y="-474.75" font-family="Helvetica,sans-Serif" font-size="10.00">Railgun Launch Velocity 10,000</text>
<text xml:space="preserve" text-anchor="middle" x="77" y="-463.5" font-family="Helvetica,sans-Serif" font-size="10.00">1K RP</text>
</g>
<!-- Railgun_Launch_Velocity_20_000 -->
<g id="node2" class="node">
<title>Railgun_Launch_Velocity_20_000</title>
<path fill="#cce5ff" stroke="black" d="M318,-491C318,-491 188,-491 188,-491 182,-491 176,-485 176,-479 176,-479 176,-467 176,-467 176,-461 182,-455 188,-455 188,-455 318,-455 318,-455 324,-455 330,-461 330,-467 330,-467 330,-479 330,-479 330,-485 324,-491 318,-491"/>
<text xml:space="preserve" text-anchor="middle" x="253" y="-474.75" font-family="Helvetica,sans-Serif" font-size="10.00">Railgun Launch Velocity 20,000</text>
<text xml:space="preserve" text-anchor="middle" x="253" y="-463.5" font-family="Helvetica,sans-Serif" font-size="10.00">2K RP</text>
</g>
<!-- Railgun_Launch_Velocity_30_000 -->
<g id="node3" class="node">
<title>Railgun_Launch_Velocity_30_000</title>
<path fill="#cce5ff" stroke="black" d="M318,-426C318,-426 188,-426 188,-426 182,-426 176,-420 176,-414 176,-414 176,-402 176,-402 176,-396 182,-390 188,-390 188,-390 318,-390 318,-390 324,-390 330,-396 330,-402 330,-402 330,-414 330,-414 330,-420 324,-426 318,-426"/>
<text xml:space="preserve" text-anchor="middle" x="253" y="-409.75" font-family="Helvetica,sans-Serif" font-size="10.00">Railgun Launch Velocity 30,000</text>
<text xml:space="preserve" text-anchor="middle" x="253" y="-398.5" font-family="Helvetica,sans-Serif" font-size="10.00">5K RP</text>
</g>
<!-- Railgun_Launch_Velocity_20_000&#45;&gt;Railgun_Launch_Velocity_30_000 -->
<g id="edge1" class="edge">
<title>Railgun_Launch_Velocity_20_000&#45;&gt;Railgun_Launch_Velocity_30_000</title>
<path fill="none" stroke="black" d="M253,-454.78C253,-448.53 253,-441.33 253,-434.52"/>
<polygon fill="black" stroke="black" points="255.45,-434.71 253,-427.71 250.55,-434.71 255.45,-434.71"/>
</g>
<!-- Railgun_Launch_Velocity_40_000 -->
<g id="node4" class="node">
<title>Railgun_Launch_Velocity_40_000</title>
<path fill="#cce5ff" stroke="black" d="M318,-361C318,-361 188,-361 188,-361 182,-361 176,-355 176,-349 176,-349 176,-337 176,-337 176,-331 182,-325 188,-325 188,-325 318,-325 318,-325 324,-325 330,-331 330,-337 330,-337 330,-349 330,-349 330,-355 324,-361 318,-361"/>
<text xml:space="preserve" text-anchor="middle" x="253" y="-344.75" font-family="Helvetica,sans-Serif" font-size="10.00">Railgun Launch Velocity 40,000</text>
<text xml:space="preserve" text-anchor="middle" x="253" y="-333.5" font-family="Helvetica,sans-Serif" font-size="10.00">8K RP</text>
</g>
<!-- Railgun_Launch_Velocity_30_000&#45;&gt;Railgun_Launch_Velocity_40_000 -->
<g id="edge2" class="edge">
<title>Railgun_Launch_Velocity_30_000&#45;&gt;Railgun_Launch_Velocity_40_000</title>
<path fill="none" stroke="black" d="M253,-389.78C253,-383.53 253,-376.33 253,-369.52"/>
<polygon fill="black" stroke="black" points="255.45,-369.71 253,-362.71 250.55,-369.71 255.45,-369.71"/>
</g>
<!-- Railgun_Launch_Velocity_50_000 -->
<g id="node5" class="node">
<title>Railgun_Launch_Velocity_50_000</title>
<path fill="#cce5ff" stroke="black" d="M318,-296C318,-296 188,-296 188,-296 182,-296 176,-290 176,-284 176,-284 176,-272 176,-272 176,-266 182,-260 188,-260 188,-260 318,-260 318,-260 324,-260 330,-266 330,-272 330,-272 330,-284 330,-284 330,-290 324,-296 318,-296"/>
<text xml:space="preserve" text-anchor="middle" x="253" y="-279.75" font-family="Helvetica,sans-Serif" font-size="10.00">Railgun Launch Velocity 50,000</text>
<text xml:space="preserve" text-anchor="middle" x="253" y="-268.5" font-family="Helvetica,sans-Serif" font-size="10.00">10K RP</text>
</g>
<!-- Railgun_Launch_Velocity_40_000&#45;&gt;Railgun_Launch_Velocity_50_000 -->
<g id="edge3" class="edge">
<title>Railgun_Launch_Velocity_40_000&#45;&gt;Railgun_Launch_Velocity_50_000</title>
<path fill="none" stroke="black" d="M253,-324.78C253,-318.53 253,-311.33 253,-304.52"/>
<polygon fill="black" stroke="black" points="255.45,-304.71 253,-297.71 250.55,-304.71 255.45,-304.71"/>
</g>
<!-- Railgun_Launch_Velocity_60_000 -->
<g id="node6" class="node">
<title>Railgun_Launch_Velocity_60_000</title>
<path fill="#fff3cd" stroke="black" d="M318,-231C318,-231 188,-231 188,-231 182,-231 176,-225 176,-219 176,-219 176,-207 176,-207 176,-201 182,-195 188,-195 188,-195 318,-195 318,-195 324,-195 330,-201 330,-207 330,-207 330,-219 330,-219 330,-225 324,-231 318,-231"/>
<text xml:space="preserve" text-anchor="middle" x="253" y="-214.75" font-family="Helvetica,sans-Serif" font-size="10.00">Railgun Launch Velocity 60,000</text>
<text xml:space="preserve" text-anchor="middle" x="253" y="-203.5" font-family="Helvetica,sans-Serif" font-size="10.00">20K RP</text>
</g>
<!-- Railgun_Launch_Velocity_50_000&#45;&gt;Railgun_Launch_Velocity_60_000 -->
<g id="edge4" class="edge">
<title>Railgun_Launch_Velocity_50_000&#45;&gt;Railgun_Launch_Velocity_60_000</title>
<path fill="none" stroke="black" d="M253,-259.78C253,-253.53 253,-246.33 253,-239.52"/>
<polygon fill="black" stroke="black" points="255.45,-239.71 253,-232.71 250.55,-239.71 255.45,-239.71"/>
</g>
<!-- Railgun_Launch_Velocity_70_000 -->
<g id="node7" class="node">
<title>Railgun_Launch_Velocity_70_000</title>
<path fill="#fff3cd" stroke="black" d="M318,-166C318,-166 188,-166 188,-166 182,-166 176,-160 176,-154 176,-154 176,-142 176,-142 176,-136 182,-130 188,-130 188,-130 318,-130 318,-130 324,-130 330,-136 330,-142 330,-142 330,-154 330,-154 330,-160 324,-166 318,-166"/>
<text xml:space="preserve" text-anchor="middle" x="253" y="-149.75" font-family="Helvetica,sans-Serif" font-size="10.00">Railgun Launch Velocity 70,000</text>
<text xml:space="preserve" text-anchor="middle" x="253" y="-138.5" font-family="Helvetica,sans-Serif" font-size="10.00">40K RP</text>
</g>
<!-- Railgun_Launch_Velocity_60_000&#45;&gt;Railgun_Launch_Velocity_70_000 -->
<g id="edge5" class="edge">
<title>Railgun_Launch_Velocity_60_000&#45;&gt;Railgun_Launch_Velocity_70_000</title>
<path fill="none" stroke="black" d="M253,-194.78C253,-188.53 253,-181.33 253,-174.52"/>
<polygon fill="black" stroke="black" points="255.45,-174.71 253,-167.71 250.55,-174.71 255.45,-174.71"/>
</g>
<!-- Railgun_Launch_Velocity_80_000 -->
<g id="node8" class="node">
<title>Railgun_Launch_Velocity_80_000</title>
<path fill="#d4c4fb" stroke="black" d="M318,-101C318,-101 188,-101 188,-101 182,-101 176,-95 176,-89 176,-89 176,-77 176,-77 176,-71 182,-65 188,-65 188,-65 318,-65 318,-65 324,-65 330,-71 330,-77 330,-77 330,-89 330,-89 330,-95 324,-101 318,-101"/>
<text xml:space="preserve" text-anchor="middle" x="253" y="-84.75" font-family="Helvetica,sans-Serif" font-size="10.00">Railgun Launch Velocity 80,000</text>
<text xml:space="preserve" text-anchor="middle" x="253" y="-73.5" font-family="Helvetica,sans-Serif" font-size="10.00">120K RP</text>
</g>
<!-- Railgun_Launch_Velocity_70_000&#45;&gt;Railgun_Launch_Velocity_80_000 -->
<g id="edge6" class="edge">
<title>Railgun_Launch_Velocity_70_000&#45;&gt;Railgun_Launch_Velocity_80_000</title>
<path fill="none" stroke="black" d="M253,-129.78C253,-123.53 253,-116.33 253,-109.52"/>
<polygon fill="black" stroke="black" points="255.45,-109.71 253,-102.71 250.55,-109.71 255.45,-109.71"/>
</g>
<!-- Railgun_Launch_Velocity_90_000 -->
<g id="node9" class="node">
<title>Railgun_Launch_Velocity_90_000</title>
<path fill="#d4c4fb" stroke="black" d="M318,-36C318,-36 188,-36 188,-36 182,-36 176,-30 176,-24 176,-24 176,-12 176,-12 176,-6 182,0 188,0 188,0 318,0 318,0 324,0 330,-6 330,-12 330,-12 330,-24 330,-24 330,-30 324,-36 318,-36"/>
<text xml:space="preserve" text-anchor="middle" x="253" y="-19.75" font-family="Helvetica,sans-Serif" font-size="10.00">Railgun Launch Velocity 90,000</text>
<text xml:space="preserve" text-anchor="middle" x="253" y="-8.5" font-family="Helvetica,sans-Serif" font-size="10.00">240K RP</text>
</g>
<!-- Railgun_Launch_Velocity_80_000&#45;&gt;Railgun_Launch_Velocity_90_000 -->
<g id="edge7" class="edge">
<title>Railgun_Launch_Velocity_80_000&#45;&gt;Railgun_Launch_Velocity_90_000</title>
<path fill="none" stroke="black" d="M253,-64.78C253,-58.53 253,-51.33 253,-44.52"/>
<polygon fill="black" stroke="black" points="255.45,-44.71 253,-37.71 250.55,-44.71 255.45,-44.71"/>
</g>
</g>
</svg>
