<?xml version="1.0" encoding="UTF-8" standalone="no"?>
<!DOCTYPE svg PUBLIC "-//W3C//DTD SVG 1.1//EN"
 "http://www.w3.org/Graphics/SVG/1.1/DTD/svg11.dtd">
<!-- Generated by graphviz version 14.1.2 (20260124.0452)
 -->
<!-- Title: TechTree Pages: 1 -->
<svg width="679pt" height="137pt"
 viewBox="0.00 0.00 679.00 137.00" xmlns="http://www.w3.org/2000/svg" xmlns:xlink="http://www.w3.org/1999/xlink">
<g id="graph0" class="graph" transform="scale(1 1) rotate(0) translate(4 132.75)">
<title>TechTree</title>
<polygon fill="white" stroke="none" points="-4,4 -4,-132.75 675,-132.75 675,4 -4,4"/>
<text xml:space="preserve" text-anchor="middle" x="335.5" y="-113.35" font-family="Helvetica,sans-Serif" font-weight="bold" font-size="12.00">Railgun Type</text>
<!-- 10 -->
<g id="node1" class="node">
<title>10</title>
<path fill="lightgrey" stroke="black" d="M212,-108C212,-108 182,-108 182,-108 176,-108 170,-102 170,-96 170,-96 170,-84 170,-84 170,-78 176,-72 182,-72 182,-72 212,-72 212,-72 218,-72 224,-78 224,-84 224,-84 224,-96 224,-96 224,-102 218,-108 212,-108"/>
<text xml:space="preserve" text-anchor="middle" x="197" y="-86.33" font-family="Helvetica,sans-Serif" font-size="9.00">10</text>
</g>
<!-- cm_Railgun -->
<g id="node2" class="node">
<title>cm_Railgun</title>
<path fill="#d4c4fb" stroke="black" d="M303.5,-108C303.5,-108 254.5,-108 254.5,-108 248.5,-108 242.5,-102 242.5,-96 242.5,-96 242.5,-84 242.5,-84 242.5,-78 248.5,-72 254.5,-72 254.5,-72 303.5,-72 303.5,-72 309.5,-72 315.5,-78 315.5,-84 315.5,-84 315.5,-96 315.5,-96 315.5,-102 309.5,-108 303.5,-108"/>
<text xml:space="preserve" text-anchor="middle" x="279" y="-91.2" font-family="Helvetica,sans-Serif" font-size="9.00">50cm Railgun</text>
<text xml:space="preserve" text-anchor="middle" x="279" y="-81.45" font-family="Helvetica,sans-Serif" font-size="9.00">240K RP</text>
</g>
<!-- 15 -->
<g id="node4" class="node">
<title>15</title>
<path fill="lightgrey" stroke="black" d="M42,-36C42,-36 12,-36 12,-36 6,-36 0,-30 0,-24 0,-24 0,-12 0,-12 0,-6 6,0 12,0 12,0 42,0 42,0 48,0 54,-6 54,-12 54,-12 54,-24 54,-24 54,-30 48,-36 42,-36"/>
<text xml:space="preserve" text-anchor="middle" x="27" y="-14.32" font-family="Helvetica,sans-Serif" font-size="9.00">15</text>
</g>
<!-- cm_Railgun&#45;&gt;15 -->
<g id="edge2" class="edge">
<title>cm_Railgun&#45;&gt;15</title>
<path fill="none" stroke="black" d="M242.25,-74.88C239.14,-73.85 236.03,-72.87 233,-72 158.81,-50.56 136.19,-60.66 63,-36 62.37,-35.79 61.74,-35.57 61.1,-35.34"/>
<polygon fill="black" stroke="black" points="62.01,-33.44 55.66,-33.22 60.48,-37.35 62.01,-33.44"/>
</g>
<!-- 20 -->
<g id="node5" class="node">
<title>20</title>
<path fill="lightgrey" stroke="black" d="M114,-36C114,-36 84,-36 84,-36 78,-36 72,-30 72,-24 72,-24 72,-12 72,-12 72,-6 78,0 84,0 84,0 114,0 114,0 120,0 126,-6 126,-12 126,-12 126,-24 126,-24 126,-30 120,-36 114,-36"/>
<text xml:space="preserve" text-anchor="middle" x="99" y="-14.32" font-family="Helvetica,sans-Serif" font-size="9.00">20</text>
</g>
<!-- cm_Railgun&#45;&gt;20 -->
<g id="edge3" class="edge">
<title>cm_Railgun&#45;&gt;20</title>
<path fill="none" stroke="black" d="M242.34,-75.45C239.18,-74.28 236.04,-73.12 233,-72 189.46,-55.96 177.8,-53.92 135,-36 134.39,-35.74 133.77,-35.48 133.15,-35.22"/>
<polygon fill="black" stroke="black" points="134.13,-33.35 127.79,-32.86 132.44,-37.2 134.13,-33.35"/>
</g>
<!-- 25 -->
<g id="node6" class="node">
<title>25</title>
<path fill="lightgrey" stroke="black" d="M186,-36C186,-36 156,-36 156,-36 150,-36 144,-30 144,-24 144,-24 144,-12 144,-12 144,-6 150,0 156,0 156,0 186,0 186,0 192,0 198,-6 198,-12 198,-12 198,-24 198,-24 198,-30 192,-36 186,-36"/>
<text xml:space="preserve" text-anchor="middle" x="171" y="-14.32" font-family="Helvetica,sans-Serif" font-size="9.00">25</text>
</g>
<!-- cm_Railgun&#45;&gt;25 -->
<g id="edge4" class="edge">
<title>cm_Railgun&#45;&gt;25</title>
<path fill="none" stroke="black" d="M252.03,-71.52C237.35,-62.01 219.1,-50.17 203.63,-40.15"/>
<polygon fill="black" stroke="black" points="205.08,-38.58 198.9,-37.08 202.79,-42.11 205.08,-38.58"/>
</g>
<!-- 30 -->
<g id="node7" class="node">
<title>30</title>
<path fill="lightgrey" stroke="black" d="M258,-36C258,-36 228,-36 228,-36 222,-36 216,-30 216,-24 216,-24 216,-12 216,-12 216,-6 222,0 228,0 228,0 258,0 258,0 264,0 270,-6 270,-12 270,-12 270,-24 270,-24 270,-30 264,-36 258,-36"/>
<text xml:space="preserve" text-anchor="middle" x="243" y="-14.32" font-family="Helvetica,sans-Serif" font-size="9.00">30</text>
</g>
<!-- cm_Railgun&#45;&gt;30 -->
<g id="edge5" class="edge">
<title>cm_Railgun&#45;&gt;30</title>
<path fill="none" stroke="black" d="M270.1,-71.7C265.61,-62.97 260.1,-52.24 255.21,-42.75"/>
<polygon fill="black" stroke="black" points="257.1,-41.83 252.49,-37.45 253.37,-43.75 257.1,-41.83"/>
</g>
<!-- 35 -->
<g id="node8" class="node">
<title>35</title>
<path fill="lightgrey" stroke="black" d="M330,-36C330,-36 300,-36 300,-36 294,-36 288,-30 288,-24 288,-24 288,-12 288,-12 288,-6 294,0 300,0 300,0 330,0 330,0 336,0 342,-6 342,-12 342,-12 342,-24 342,-24 342,-30 336,-36 330,-36"/>
<text xml:space="preserve" text-anchor="middle" x="315" y="-14.32" font-family="Helvetica,sans-Serif" font-size="9.00">35</text>
</g>
<!-- cm_Railgun&#45;&gt;35 -->
<g id="edge6" class="edge">
<title>cm_Railgun&#45;&gt;35</title>
<path fill="none" stroke="black" d="M287.9,-71.7C292.39,-62.97 297.9,-52.24 302.79,-42.75"/>
<polygon fill="black" stroke="black" points="304.63,-43.75 305.51,-37.45 300.9,-41.83 304.63,-43.75"/>
</g>
<!-- 40 -->
<g id="node9" class="node">
<title>40</title>
<path fill="lightgrey" stroke="black" d="M402,-36C402,-36 372,-36 372,-36 366,-36 360,-30 360,-24 360,-24 360,-12 360,-12 360,-6 366,0 372,0 372,0 402,0 402,0 408,0 414,-6 414,-12 414,-12 414,-24 414,-24 414,-30 408,-36 402,-36"/>
<text xml:space="preserve" text-anchor="middle" x="387" y="-14.32" font-family="Helvetica,sans-Serif" font-size="9.00">40</text>
</g>
<!-- cm_Railgun&#45;&gt;40 -->
<g id="edge7" class="edge">
<title>cm_Railgun&#45;&gt;40</title>
<path fill="none" stroke="black" d="M305.97,-71.52C320.65,-62.01 338.9,-50.17 354.37,-40.15"/>
<polygon fill="black" stroke="black" points="355.21,-42.11 359.1,-37.08 352.92,-38.58 355.21,-42.11"/>
</g>
<!-- 45 -->
<g id="node10" class="node">
<title>45</title>
<path fill="lightgrey" stroke="black" d="M474,-36C474,-36 444,-36 444,-36 438,-36 432,-30 432,-24 432,-24 432,-12 432,-12 432,-6 438,0 444,0 444,0 474,0 474,0 480,0 486,-6 486,-12 486,-12 486,-24 486,-24 486,-30 480,-36 474,-36"/>
<text xml:space="preserve" text-anchor="middle" x="459" y="-14.32" font-family="Helvetica,sans-Serif" font-size="9.00">45</text>
</g>
<!-- cm_Railgun&#45;&gt;45 -->
<g id="edge8" class="edge">
<title>cm_Railgun&#45;&gt;45</title>
<path fill="none" stroke="black" d="M315.74,-76.49C345.05,-66.26 387.01,-51.09 423,-36 423.61,-35.74 424.23,-35.48 424.85,-35.22"/>
<polygon fill="black" stroke="black" points="425.56,-37.2 430.21,-32.86 423.87,-33.35 425.56,-37.2"/>
</g>
<!-- 50 -->
<g id="node11" class="node">
<title>50</title>
<path fill="lightgrey" stroke="black" d="M546,-36C546,-36 516,-36 516,-36 510,-36 504,-30 504,-24 504,-24 504,-12 504,-12 504,-6 510,0 516,0 516,0 546,0 546,0 552,0 558,-6 558,-12 558,-12 558,-24 558,-24 558,-30 552,-36 546,-36"/>
<text xml:space="preserve" text-anchor="middle" x="531" y="-14.32" font-family="Helvetica,sans-Serif" font-size="9.00">50</text>
</g>
<!-- cm_Railgun&#45;&gt;50 -->
<g id="edge9" class="edge">
<title>cm_Railgun&#45;&gt;50</title>
<path fill="none" stroke="black" d="M315.96,-82.28C359.51,-73.83 433.68,-57.75 495,-36 495.63,-35.78 496.26,-35.55 496.89,-35.31"/>
<polygon fill="black" stroke="black" points="497.53,-37.32 502.32,-33.14 495.97,-33.42 497.53,-37.32"/>
</g>
<!-- 12 -->
<g id="node3" class="node">
<title>12</title>
<path fill="lightgrey" stroke="black" d="M618,-36C618,-36 588,-36 588,-36 582,-36 576,-30 576,-24 576,-24 576,-12 576,-12 576,-6 582,0 588,0 588,0 618,0 618,0 624,0 630,-6 630,-12 630,-12 630,-24 630,-24 630,-30 624,-36 618,-36"/>
<text xml:space="preserve" text-anchor="middle" x="603" y="-14.32" font-family="Helvetica,sans-Serif" font-size="9.00">12</text>
</g>
<!-- ext_Trans_Newtonian_Technology -->
<g id="node12" class="node">
<title>ext_Trans_Newtonian_Technology</title>
<path fill="#f0f0f0" stroke="black" stroke-dasharray="5,2" d="M659,-108C659,-108 547,-108 547,-108 541,-108 535,-102 535,-96 535,-96 535,-84 535,-84 535,-78 541,-72 547,-72 547,-72 659,-72 659,-72 665,-72 671,-78 671,-84 671,-84 671,-96 671,-96 671,-102 665,-108 659,-108"/>
<text xml:space="preserve" text-anchor="middle" x="603" y="-86.33" font-family="Helvetica,sans-Serif" font-size="9.00">Trans&#45;Newtonian Technology</text>
</g>
<!-- ext_Trans_Newtonian_Technology&#45;&gt;12 -->
<g id="edge1" class="edge">
<title>ext_Trans_Newtonian_Technology&#45;&gt;12</title>
<path fill="none" stroke="black" d="M603,-71.7C603,-63.22 603,-52.86 603,-43.58"/>
<polygon fill="black" stroke="black" points="605.1,-43.62 603,-37.62 600.9,-43.62 605.1,-43.62"/>
</g>
</g>
</svg>
