<?xml version="1.0" encoding="UTF-8" standalone="no"?>
<!DOCTYPE svg PUBLIC "-//W3C//DTD SVG 1.1//EN"
 "http://www.w3.org/Graphics/SVG/1.1/DTD/svg11.dtd">
<!-- Generated by graphviz version 14.1.2 (20260124.0452)
 -->
<!-- Title: TechTree Pages: 1 -->
<svg width="104pt" height="65pt"
 viewBox="0.00 0.00 104.00 65.00" xmlns="http://www.w3.org/2000/svg" xmlns:xlink="http://www.w3.org/1999/xlink">
<g id="graph0" class="graph" transform="scale(1 1) rotate(0) translate(4 60.75)">
<title>TechTree</title>
<polygon fill="white" stroke="none" points="-4,4 -4,-60.75 99.5,-60.75 99.5,4 -4,4"/>
<text xml:space="preserve" text-anchor="middle" x="47.75" y="-41.35" font-family="Helvetica,sans-Serif" font-weight="bold" font-size="12.00">RD Missile</text>
<!-- Conventional_ICBM -->
<g id="node1" class="node">
<title>Conventional_ICBM</title>
<path fill="#d4edda" stroke="black" d="M83.5,-36C83.5,-36 12,-36 12,-36 6,-36 0,-30 0,-24 0,-24 0,-12 0,-12 0,-6 6,0 12,0 12,0 83.5,0 83.5,0 89.5,0 95.5,-6 95.5,-12 95.5,-12 95.5,-24 95.5,-24 95.5,-30 89.5,-36 83.5,-36"/>
<text xml:space="preserve" text-anchor="middle" x="47.75" y="-19.2" font-family="Helvetica,sans-Serif" font-size="9.00">Conventional ICBM</text>
<text xml:space="preserve" text-anchor="middle" x="47.75" y="-9.45" font-family="Helvetica,sans-Serif" font-size="9.00">500 RP</text>
</g>
</g>
</svg>
