<?xml version="1.0" encoding="UTF-8" standalone="no"?>
<!DOCTYPE svg PUBLIC "-//W3C//DTD SVG 1.1//EN"
 "http://www.w3.org/Graphics/SVG/1.1/DTD/svg11.dtd">
<!-- Generated by graphviz version 14.1.2 (20260124.0452)
 -->
<!-- Title: TechTree Pages: 1 -->
<svg width="173pt" height="67pt"
 viewBox="0.00 0.00 173.00 67.00" xmlns="http://www.w3.org/2000/svg" xmlns:xlink="http://www.w3.org/1999/xlink">
<g id="graph0" class="graph" transform="scale(1 1) rotate(0) translate(4 63)">
<title>TechTree</title>
<polygon fill="white" stroke="none" points="-4,4 -4,-63 169.25,-63 169.25,4 -4,4"/>
<text xml:space="preserve" text-anchor="middle" x="82.62" y="-41.7" font-family="Helvetica,sans-Serif" font-weight="bold" font-size="14.00">RD Missile Fire Control</text>
<!-- ICBM_Launch_Control -->
<g id="node1" class="node">
<title>ICBM_Launch_Control</title>
<path fill="#d4edda" stroke="black" d="M125.88,-36C125.88,-36 39.38,-36 39.38,-36 33.38,-36 27.38,-30 27.38,-24 27.38,-24 27.38,-12 27.38,-12 27.38,-6 33.38,0 39.38,0 39.38,0 125.88,0 125.88,0 131.88,0 137.88,-6 137.88,-12 137.88,-12 137.88,-24 137.88,-24 137.88,-30 131.88,-36 125.88,-36"/>
<text xml:space="preserve" text-anchor="middle" x="82.62" y="-19.75" font-family="Helvetica,sans-Serif" font-size="10.00">ICBM Launch Control</text>
<text xml:space="preserve" text-anchor="middle" x="82.62" y="-8.5" font-family="Helvetica,sans-Serif" font-size="10.00">50 RP</text>
</g>
</g>
</svg>
