<?xml version="1.0" encoding="UTF-8" standalone="no"?>
<!DOCTYPE svg PUBLIC "-//W3C//DTD SVG 1.1//EN"
 "http://www.w3.org/Graphics/SVG/1.1/DTD/svg11.dtd">
<!-- Generated by graphviz version 14.1.2 (20260124.0452)
 -->
<!-- Title: TechTree Pages: 1 -->
<svg width="155pt" height="65pt"
 viewBox="0.00 0.00 155.00 65.00" xmlns="http://www.w3.org/2000/svg" xmlns:xlink="http://www.w3.org/1999/xlink">
<g id="graph0" class="graph" transform="scale(1 1) rotate(0) translate(4 60.75)">
<title>TechTree</title>
<polygon fill="white" stroke="none" points="-4,4 -4,-60.75 150.5,-60.75 150.5,4 -4,4"/>
<text xml:space="preserve" text-anchor="middle" x="73.25" y="-41.35" font-family="Helvetica,sans-Serif" font-weight="bold" font-size="12.00">RD Missile Fire Control</text>
<!-- ICBM_Launch_Control -->
<g id="node1" class="node">
<title>ICBM_Launch_Control</title>
<path fill="#d4edda" stroke="black" d="M113.12,-36C113.12,-36 33.38,-36 33.38,-36 27.38,-36 21.38,-30 21.38,-24 21.38,-24 21.38,-12 21.38,-12 21.38,-6 27.38,0 33.38,0 33.38,0 113.12,0 113.12,0 119.12,0 125.12,-6 125.12,-12 125.12,-12 125.12,-24 125.12,-24 125.12,-30 119.12,-36 113.12,-36"/>
<text xml:space="preserve" text-anchor="middle" x="73.25" y="-19.2" font-family="Helvetica,sans-Serif" font-size="9.00">ICBM Launch Control</text>
<text xml:space="preserve" text-anchor="middle" x="73.25" y="-9.45" font-family="Helvetica,sans-Serif" font-size="9.00">50 RP</text>
</g>
</g>
</svg>
