<?xml version="1.0" encoding="UTF-8" standalone="no"?>
<!DOCTYPE svg PUBLIC "-//W3C//DTD SVG 1.1//EN"
 "http://www.w3.org/Graphics/SVG/1.1/DTD/svg11.dtd">
<!-- Generated by graphviz version 14.1.2 (20260124.0452)
 -->
<!-- Title: TechTree Pages: 1 -->
<svg width="137pt" height="65pt"
 viewBox="0.00 0.00 137.00 65.00" xmlns="http://www.w3.org/2000/svg" xmlns:xlink="http://www.w3.org/1999/xlink">
<g id="graph0" class="graph" transform="scale(1 1) rotate(0) translate(4 60.75)">
<title>TechTree</title>
<polygon fill="white" stroke="none" points="-4,4 -4,-60.75 133.25,-60.75 133.25,4 -4,4"/>
<text xml:space="preserve" text-anchor="middle" x="64.62" y="-41.35" font-family="Helvetica,sans-Serif" font-weight="bold" font-size="12.00">Recreational Centre</text>
<!-- Recreational_Module -->
<g id="node1" class="node">
<title>Recreational_Module</title>
<path fill="#cce5ff" stroke="black" d="M103.38,-36C103.38,-36 25.87,-36 25.87,-36 19.88,-36 13.88,-30 13.88,-24 13.88,-24 13.88,-12 13.88,-12 13.88,-6 19.88,0 25.88,0 25.88,0 103.38,0 103.38,0 109.38,0 115.38,-6 115.38,-12 115.38,-12 115.38,-24 115.38,-24 115.38,-30 109.38,-36 103.38,-36"/>
<text xml:space="preserve" text-anchor="middle" x="64.62" y="-19.2" font-family="Helvetica,sans-Serif" font-size="9.00">Recreational Module</text>
<text xml:space="preserve" text-anchor="middle" x="64.62" y="-9.45" font-family="Helvetica,sans-Serif" font-size="9.00">5K RP</text>
</g>
</g>
</svg>
