<?xml version="1.0" encoding="UTF-8" standalone="no"?>
<!DOCTYPE svg PUBLIC "-//W3C//DTD SVG 1.1//EN"
 "http://www.w3.org/Graphics/SVG/1.1/DTD/svg11.dtd">
<!-- Generated by graphviz version 14.1.2 (20260124.0452)
 -->
<!-- Title: TechTree Pages: 1 -->
<svg width="152pt" height="67pt"
 viewBox="0.00 0.00 152.00 67.00" xmlns="http://www.w3.org/2000/svg" xmlns:xlink="http://www.w3.org/1999/xlink">
<g id="graph0" class="graph" transform="scale(1 1) rotate(0) translate(4 63)">
<title>TechTree</title>
<polygon fill="white" stroke="none" points="-4,4 -4,-63 147.5,-63 147.5,4 -4,4"/>
<text xml:space="preserve" text-anchor="middle" x="71.75" y="-41.7" font-family="Helvetica,sans-Serif" font-weight="bold" font-size="14.00">Recreational Centre</text>
<!-- Recreational_Module -->
<g id="node1" class="node">
<title>Recreational_Module</title>
<path fill="#cce5ff" stroke="black" d="M112.38,-36C112.38,-36 31.13,-36 31.13,-36 25.12,-36 19.12,-30 19.12,-24 19.12,-24 19.12,-12 19.12,-12 19.12,-6 25.12,0 31.12,0 31.12,0 112.38,0 112.38,0 118.38,0 124.38,-6 124.38,-12 124.38,-12 124.38,-24 124.38,-24 124.38,-30 118.38,-36 112.38,-36"/>
<text xml:space="preserve" text-anchor="middle" x="71.75" y="-19.75" font-family="Helvetica,sans-Serif" font-size="10.00">Recreational Module</text>
<text xml:space="preserve" text-anchor="middle" x="71.75" y="-8.5" font-family="Helvetica,sans-Serif" font-size="10.00">5K RP</text>
</g>
</g>
</svg>
