<?xml version="1.0" encoding="UTF-8" standalone="no"?>
<!DOCTYPE svg PUBLIC "-//W3C//DTD SVG 1.1//EN"
 "http://www.w3.org/Graphics/SVG/1.1/DTD/svg11.dtd">
<!-- Generated by graphviz version 14.1.2 (20260124.0452)
 -->
<!-- Title: TechTree Pages: 1 -->
<svg width="1617pt" height="67pt"
 viewBox="0.00 0.00 1617.00 67.00" xmlns="http://www.w3.org/2000/svg" xmlns:xlink="http://www.w3.org/1999/xlink">
<g id="graph0" class="graph" transform="scale(1 1) rotate(0) translate(4 63)">
<title>TechTree</title>
<polygon fill="white" stroke="none" points="-4,4 -4,-63 1612.88,-63 1612.88,4 -4,4"/>
<text xml:space="preserve" text-anchor="middle" x="804.44" y="-41.7" font-family="Helvetica,sans-Serif" font-weight="bold" font-size="14.00">Reduced Size Launchers</text>
<!-- Standard_Size_and_Reload_Rate -->
<g id="node1" class="node">
<title>Standard_Size_and_Reload_Rate</title>
<path fill="#d4edda" stroke="black" d="M142,-36C142,-36 12,-36 12,-36 6,-36 0,-30 0,-24 0,-24 0,-12 0,-12 0,-6 6,0 12,0 12,0 142,0 142,0 148,0 154,-6 154,-12 154,-12 154,-24 154,-24 154,-30 148,-36 142,-36"/>
<text xml:space="preserve" text-anchor="middle" x="77" y="-19.75" font-family="Helvetica,sans-Serif" font-size="10.00">Standard Size and Reload Rate</text>
<text xml:space="preserve" text-anchor="middle" x="77" y="-8.5" font-family="Helvetica,sans-Serif" font-size="10.00">1 RP</text>
</g>
<!-- Reduced_size_Launcher_0_75_Siz -->
<g id="node2" class="node">
<title>Reduced_size_Launcher_0_75_Siz</title>
<path fill="#d4edda" stroke="black" d="M388.25,-36C388.25,-36 187.75,-36 187.75,-36 181.75,-36 175.75,-30 175.75,-24 175.75,-24 175.75,-12 175.75,-12 175.75,-6 181.75,0 187.75,0 187.75,0 388.25,0 388.25,0 394.25,0 400.25,-6 400.25,-12 400.25,-12 400.25,-24 400.25,-24 400.25,-30 394.25,-36 388.25,-36"/>
<text xml:space="preserve" text-anchor="middle" x="288" y="-19.75" font-family="Helvetica,sans-Serif" font-size="10.00">Reduced&#45;size Launcher 0.75 Size / 2.4x Reload</text>
<text xml:space="preserve" text-anchor="middle" x="288" y="-8.5" font-family="Helvetica,sans-Serif" font-size="10.00">2 RP</text>
</g>
<!-- Reduced_size_Launcher_0_6_Size -->
<g id="node3" class="node">
<title>Reduced_size_Launcher_0_6_Size</title>
<path fill="#d4edda" stroke="black" d="M629.62,-36C629.62,-36 434.38,-36 434.38,-36 428.38,-36 422.38,-30 422.38,-24 422.38,-24 422.38,-12 422.38,-12 422.38,-6 428.38,0 434.38,0 434.38,0 629.62,0 629.62,0 635.62,0 641.62,-6 641.62,-12 641.62,-12 641.62,-24 641.62,-24 641.62,-30 635.62,-36 629.62,-36"/>
<text xml:space="preserve" text-anchor="middle" x="532" y="-19.75" font-family="Helvetica,sans-Serif" font-size="10.00">Reduced&#45;size Launcher 0.6 Size / 4.8x Reload</text>
<text xml:space="preserve" text-anchor="middle" x="532" y="-8.5" font-family="Helvetica,sans-Serif" font-size="10.00">3 RP</text>
</g>
<!-- Reduced_size_Launcher_0_5_Size -->
<g id="node4" class="node">
<title>Reduced_size_Launcher_0_5_Size</title>
<path fill="#d4edda" stroke="black" d="M862.5,-36C862.5,-36 675.5,-36 675.5,-36 669.5,-36 663.5,-30 663.5,-24 663.5,-24 663.5,-12 663.5,-12 663.5,-6 669.5,0 675.5,0 675.5,0 862.5,0 862.5,0 868.5,0 874.5,-6 874.5,-12 874.5,-12 874.5,-24 874.5,-24 874.5,-30 868.5,-36 862.5,-36"/>
<text xml:space="preserve" text-anchor="middle" x="769" y="-19.75" font-family="Helvetica,sans-Serif" font-size="10.00">Reduced&#45;size Launcher 0.5 Size / 8x Reload</text>
<text xml:space="preserve" text-anchor="middle" x="769" y="-8.5" font-family="Helvetica,sans-Serif" font-size="10.00">4 RP</text>
</g>
<!-- Reduced_size_Launcher_0_4_Size -->
<g id="node5" class="node">
<title>Reduced_size_Launcher_0_4_Size</title>
<path fill="#d4edda" stroke="black" d="M1101.12,-36C1101.12,-36 908.88,-36 908.88,-36 902.88,-36 896.88,-30 896.88,-24 896.88,-24 896.88,-12 896.88,-12 896.88,-6 902.88,0 908.88,0 908.88,0 1101.12,0 1101.12,0 1107.12,0 1113.12,-6 1113.12,-12 1113.12,-12 1113.12,-24 1113.12,-24 1113.12,-30 1107.12,-36 1101.12,-36"/>
<text xml:space="preserve" text-anchor="middle" x="1005" y="-19.75" font-family="Helvetica,sans-Serif" font-size="10.00">Reduced&#45;size Launcher 0.4 Size / 16x Reload</text>
<text xml:space="preserve" text-anchor="middle" x="1005" y="-8.5" font-family="Helvetica,sans-Serif" font-size="10.00">5 RP</text>
</g>
<!-- Reduced_size_Launcher_0_3_Size -->
<g id="node6" class="node">
<title>Reduced_size_Launcher_0_3_Size</title>
<path fill="#d4edda" stroke="black" d="M1339.12,-36C1339.12,-36 1146.88,-36 1146.88,-36 1140.88,-36 1134.88,-30 1134.88,-24 1134.88,-24 1134.88,-12 1134.88,-12 1134.88,-6 1140.88,0 1146.88,0 1146.88,0 1339.12,0 1339.12,0 1345.12,0 1351.12,-6 1351.12,-12 1351.12,-12 1351.12,-24 1351.12,-24 1351.12,-30 1345.12,-36 1339.12,-36"/>
<text xml:space="preserve" text-anchor="middle" x="1243" y="-19.75" font-family="Helvetica,sans-Serif" font-size="10.00">Reduced&#45;size Launcher 0.3 Size / 40x Reload</text>
<text xml:space="preserve" text-anchor="middle" x="1243" y="-8.5" font-family="Helvetica,sans-Serif" font-size="10.00">6 RP</text>
</g>
<!-- Box_Launcher_0_15_Size___100x_ -->
<g id="node7" class="node">
<title>Box_Launcher_0_15_Size___100x_</title>
<path fill="#d4edda" stroke="black" d="M1596.88,-36C1596.88,-36 1385.12,-36 1385.12,-36 1379.12,-36 1373.12,-30 1373.12,-24 1373.12,-24 1373.12,-12 1373.12,-12 1373.12,-6 1379.12,0 1385.12,0 1385.12,0 1596.88,0 1596.88,0 1602.88,0 1608.88,-6 1608.88,-12 1608.88,-12 1608.88,-24 1608.88,-24 1608.88,-30 1602.88,-36 1596.88,-36"/>
<text xml:space="preserve" text-anchor="middle" x="1491" y="-19.75" font-family="Helvetica,sans-Serif" font-size="10.00">Box Launcher 0.15 Size / 100x (No internal reload)</text>
<text xml:space="preserve" text-anchor="middle" x="1491" y="-8.5" font-family="Helvetica,sans-Serif" font-size="10.00">7 RP</text>
</g>
</g>
</svg>
