<?xml version="1.0" encoding="UTF-8" standalone="no"?>
<!DOCTYPE svg PUBLIC "-//W3C//DTD SVG 1.1//EN"
 "http://www.w3.org/Graphics/SVG/1.1/DTD/svg11.dtd">
<!-- Generated by graphviz version 14.1.2 (20260124.0452)
 -->
<!-- Title: TechTree Pages: 1 -->
<svg width="344pt" height="209pt"
 viewBox="0.00 0.00 344.00 209.00" xmlns="http://www.w3.org/2000/svg" xmlns:xlink="http://www.w3.org/1999/xlink">
<g id="graph0" class="graph" transform="scale(1 1) rotate(0) translate(4 204.75)">
<title>TechTree</title>
<polygon fill="white" stroke="none" points="-4,4 -4,-204.75 339.88,-204.75 339.88,4 -4,4"/>
<text xml:space="preserve" text-anchor="middle" x="167.94" y="-185.35" font-family="Helvetica,sans-Serif" font-weight="bold" font-size="12.00">Reduced Size Lasers</text>
<!-- Standard_Laser_Size_and_Rechar -->
<g id="node1" class="node">
<title>Standard_Laser_Size_and_Rechar</title>
<path fill="#d4edda" stroke="black" d="M169.75,-180C169.75,-180 12,-180 12,-180 6,-180 0,-174 0,-168 0,-168 0,-156 0,-156 0,-150 6,-144 12,-144 12,-144 169.75,-144 169.75,-144 175.75,-144 181.75,-150 181.75,-156 181.75,-156 181.75,-168 181.75,-168 181.75,-174 175.75,-180 169.75,-180"/>
<text xml:space="preserve" text-anchor="middle" x="90.88" y="-163.2" font-family="Helvetica,sans-Serif" font-size="9.00">Standard Laser Size and Recharge Rate</text>
<text xml:space="preserve" text-anchor="middle" x="90.88" y="-153.45" font-family="Helvetica,sans-Serif" font-size="9.00">1 RP</text>
</g>
<!-- Reduced_size_Laser_0_75_Size__ -->
<g id="node2" class="node">
<title>Reduced_size_Laser_0_75_Size__</title>
<path fill="#cce5ff" stroke="black" d="M266,-108C266,-108 91.75,-108 91.75,-108 85.75,-108 79.75,-102 79.75,-96 79.75,-96 79.75,-84 79.75,-84 79.75,-78 85.75,-72 91.75,-72 91.75,-72 266,-72 266,-72 272,-72 278,-78 278,-84 278,-84 278,-96 278,-96 278,-102 272,-108 266,-108"/>
<text xml:space="preserve" text-anchor="middle" x="178.88" y="-91.2" font-family="Helvetica,sans-Serif" font-size="9.00">Reduced&#45;size Laser 0.75 Size / 4x Recharge</text>
<text xml:space="preserve" text-anchor="middle" x="178.88" y="-81.45" font-family="Helvetica,sans-Serif" font-size="9.00">5K RP</text>
</g>
<!-- Standard_Laser_Size_and_Rechar&#45;&gt;Reduced_size_Laser_0_75_Size__ -->
<g id="edge1" class="edge">
<title>Standard_Laser_Size_and_Rechar&#45;&gt;Reduced_size_Laser_0_75_Size__</title>
<path fill="none" stroke="black" d="M112.63,-143.7C124.37,-134.36 138.98,-122.74 151.49,-112.79"/>
<polygon fill="black" stroke="black" points="152.49,-114.67 155.88,-109.29 149.88,-111.38 152.49,-114.67"/>
</g>
<!-- Reduced_size_Laser_0_5_Size___ -->
<g id="node3" class="node">
<title>Reduced_size_Laser_0_5_Size___</title>
<path fill="#fff3cd" stroke="black" d="M266,-36C266,-36 91.75,-36 91.75,-36 85.75,-36 79.75,-30 79.75,-24 79.75,-24 79.75,-12 79.75,-12 79.75,-6 85.75,0 91.75,0 91.75,0 266,0 266,0 272,0 278,-6 278,-12 278,-12 278,-24 278,-24 278,-30 272,-36 266,-36"/>
<text xml:space="preserve" text-anchor="middle" x="178.88" y="-19.2" font-family="Helvetica,sans-Serif" font-size="9.00">Reduced&#45;size Laser 0.5 Size / 20x Recharge</text>
<text xml:space="preserve" text-anchor="middle" x="178.88" y="-9.45" font-family="Helvetica,sans-Serif" font-size="9.00">15K RP</text>
</g>
<!-- Reduced_size_Laser_0_75_Size__&#45;&gt;Reduced_size_Laser_0_5_Size___ -->
<g id="edge3" class="edge">
<title>Reduced_size_Laser_0_75_Size__&#45;&gt;Reduced_size_Laser_0_5_Size___</title>
<path fill="none" stroke="black" d="M178.88,-71.7C178.88,-63.22 178.88,-52.86 178.88,-43.58"/>
<polygon fill="black" stroke="black" points="180.98,-43.62 178.88,-37.62 176.78,-43.62 180.98,-43.62"/>
</g>
<!-- ext_Trans_Newtonian_Technology -->
<g id="node4" class="node">
<title>ext_Trans_Newtonian_Technology</title>
<path fill="#f0f0f0" stroke="black" stroke-dasharray="5,2" d="M323.88,-180C323.88,-180 211.88,-180 211.88,-180 205.88,-180 199.88,-174 199.88,-168 199.88,-168 199.88,-156 199.88,-156 199.88,-150 205.88,-144 211.88,-144 211.88,-144 323.88,-144 323.88,-144 329.88,-144 335.88,-150 335.88,-156 335.88,-156 335.88,-168 335.88,-168 335.88,-174 329.88,-180 323.88,-180"/>
<text xml:space="preserve" text-anchor="middle" x="267.88" y="-158.32" font-family="Helvetica,sans-Serif" font-size="9.00">Trans&#45;Newtonian Technology</text>
</g>
<!-- ext_Trans_Newtonian_Technology&#45;&gt;Reduced_size_Laser_0_75_Size__ -->
<g id="edge2" class="edge">
<title>ext_Trans_Newtonian_Technology&#45;&gt;Reduced_size_Laser_0_75_Size__</title>
<path fill="none" stroke="black" d="M245.87,-143.7C234,-134.36 219.23,-122.74 206.58,-112.79"/>
<polygon fill="black" stroke="black" points="208.13,-111.34 202.12,-109.28 205.54,-114.64 208.13,-111.34"/>
</g>
</g>
</svg>
