<?xml version="1.0" encoding="UTF-8" standalone="no"?>
<!DOCTYPE svg PUBLIC "-//W3C//DTD SVG 1.1//EN"
 "http://www.w3.org/Graphics/SVG/1.1/DTD/svg11.dtd">
<!-- Generated by graphviz version 14.1.2 (20260124.0452)
 -->
<!-- Title: TechTree Pages: 1 -->
<svg width="1432pt" height="137pt"
 viewBox="0.00 0.00 1432.00 137.00" xmlns="http://www.w3.org/2000/svg" xmlns:xlink="http://www.w3.org/1999/xlink">
<g id="graph0" class="graph" transform="scale(1 1) rotate(0) translate(4 132.75)">
<title>TechTree</title>
<polygon fill="white" stroke="none" points="-4,4 -4,-132.75 1428,-132.75 1428,4 -4,4"/>
<text xml:space="preserve" text-anchor="middle" x="712" y="-113.35" font-family="Helvetica,sans-Serif" font-weight="bold" font-size="12.00">Reduced Size Launchers</text>
<!-- Standard_Size_and_Reload_Rate -->
<g id="node1" class="node">
<title>Standard_Size_and_Reload_Rate</title>
<path fill="#d4edda" stroke="black" d="M133.75,-108C133.75,-108 12,-108 12,-108 6,-108 0,-102 0,-96 0,-96 0,-84 0,-84 0,-78 6,-72 12,-72 12,-72 133.75,-72 133.75,-72 139.75,-72 145.75,-78 145.75,-84 145.75,-84 145.75,-96 145.75,-96 145.75,-102 139.75,-108 133.75,-108"/>
<text xml:space="preserve" text-anchor="middle" x="72.88" y="-91.2" font-family="Helvetica,sans-Serif" font-size="9.00">Standard Size and Reload Rate</text>
<text xml:space="preserve" text-anchor="middle" x="72.88" y="-81.45" font-family="Helvetica,sans-Serif" font-size="9.00">1 RP</text>
</g>
<!-- Reduced_size_Launcher_0_75_Siz -->
<g id="node2" class="node">
<title>Reduced_size_Launcher_0_75_Siz</title>
<path fill="#d4edda" stroke="black" d="M325.38,-36C325.38,-36 138.38,-36 138.38,-36 132.38,-36 126.38,-30 126.38,-24 126.38,-24 126.38,-12 126.38,-12 126.38,-6 132.38,0 138.38,0 138.38,0 325.38,0 325.38,0 331.38,0 337.38,-6 337.38,-12 337.38,-12 337.38,-24 337.38,-24 337.38,-30 331.38,-36 325.38,-36"/>
<text xml:space="preserve" text-anchor="middle" x="231.88" y="-19.2" font-family="Helvetica,sans-Serif" font-size="9.00">Reduced&#45;size Launcher 0.75 Size / 2.4x Reload</text>
<text xml:space="preserve" text-anchor="middle" x="231.88" y="-9.45" font-family="Helvetica,sans-Serif" font-size="9.00">2 RP</text>
</g>
<!-- Reduced_size_Launcher_0_6_Size -->
<g id="node3" class="node">
<title>Reduced_size_Launcher_0_6_Size</title>
<path fill="#d4edda" stroke="black" d="M511.75,-108C511.75,-108 330,-108 330,-108 324,-108 318,-102 318,-96 318,-96 318,-84 318,-84 318,-78 324,-72 330,-72 330,-72 511.75,-72 511.75,-72 517.75,-72 523.75,-78 523.75,-84 523.75,-84 523.75,-96 523.75,-96 523.75,-102 517.75,-108 511.75,-108"/>
<text xml:space="preserve" text-anchor="middle" x="420.88" y="-91.2" font-family="Helvetica,sans-Serif" font-size="9.00">Reduced&#45;size Launcher 0.6 Size / 4.8x Reload</text>
<text xml:space="preserve" text-anchor="middle" x="420.88" y="-81.45" font-family="Helvetica,sans-Serif" font-size="9.00">3 RP</text>
</g>
<!-- Reduced_size_Launcher_0_5_Size -->
<g id="node4" class="node">
<title>Reduced_size_Launcher_0_5_Size</title>
<path fill="#d4edda" stroke="black" d="M728,-108C728,-108 553.75,-108 553.75,-108 547.75,-108 541.75,-102 541.75,-96 541.75,-96 541.75,-84 541.75,-84 541.75,-78 547.75,-72 553.75,-72 553.75,-72 728,-72 728,-72 734,-72 740,-78 740,-84 740,-84 740,-96 740,-96 740,-102 734,-108 728,-108"/>
<text xml:space="preserve" text-anchor="middle" x="640.88" y="-91.2" font-family="Helvetica,sans-Serif" font-size="9.00">Reduced&#45;size Launcher 0.5 Size / 8x Reload</text>
<text xml:space="preserve" text-anchor="middle" x="640.88" y="-81.45" font-family="Helvetica,sans-Serif" font-size="9.00">4 RP</text>
</g>
<!-- Reduced_size_Launcher_0_4_Size -->
<g id="node5" class="node">
<title>Reduced_size_Launcher_0_4_Size</title>
<path fill="#d4edda" stroke="black" d="M949.62,-108C949.62,-108 770.12,-108 770.12,-108 764.12,-108 758.12,-102 758.12,-96 758.12,-96 758.12,-84 758.12,-84 758.12,-78 764.12,-72 770.12,-72 770.12,-72 949.62,-72 949.62,-72 955.62,-72 961.62,-78 961.62,-84 961.62,-84 961.62,-96 961.62,-96 961.62,-102 955.62,-108 949.62,-108"/>
<text xml:space="preserve" text-anchor="middle" x="859.88" y="-91.2" font-family="Helvetica,sans-Serif" font-size="9.00">Reduced&#45;size Launcher 0.4 Size / 16x Reload</text>
<text xml:space="preserve" text-anchor="middle" x="859.88" y="-81.45" font-family="Helvetica,sans-Serif" font-size="9.00">5 RP</text>
</g>
<!-- Reduced_size_Launcher_0_3_Size -->
<g id="node6" class="node">
<title>Reduced_size_Launcher_0_3_Size</title>
<path fill="#d4edda" stroke="black" d="M1171.62,-108C1171.62,-108 992.12,-108 992.12,-108 986.12,-108 980.12,-102 980.12,-96 980.12,-96 980.12,-84 980.12,-84 980.12,-78 986.12,-72 992.12,-72 992.12,-72 1171.62,-72 1171.62,-72 1177.62,-72 1183.62,-78 1183.62,-84 1183.62,-84 1183.62,-96 1183.62,-96 1183.62,-102 1177.62,-108 1171.62,-108"/>
<text xml:space="preserve" text-anchor="middle" x="1081.88" y="-91.2" font-family="Helvetica,sans-Serif" font-size="9.00">Reduced&#45;size Launcher 0.3 Size / 40x Reload</text>
<text xml:space="preserve" text-anchor="middle" x="1081.88" y="-81.45" font-family="Helvetica,sans-Serif" font-size="9.00">6 RP</text>
</g>
<!-- Box_Launcher_0_15_Size___100x_ -->
<g id="node7" class="node">
<title>Box_Launcher_0_15_Size___100x_</title>
<path fill="#d4edda" stroke="black" d="M1412,-108C1412,-108 1213.75,-108 1213.75,-108 1207.75,-108 1201.75,-102 1201.75,-96 1201.75,-96 1201.75,-84 1201.75,-84 1201.75,-78 1207.75,-72 1213.75,-72 1213.75,-72 1412,-72 1412,-72 1418,-72 1424,-78 1424,-84 1424,-84 1424,-96 1424,-96 1424,-102 1418,-108 1412,-108"/>
<text xml:space="preserve" text-anchor="middle" x="1312.88" y="-91.2" font-family="Helvetica,sans-Serif" font-size="9.00">Box Launcher 0.15 Size / 100x (No internal reload)</text>
<text xml:space="preserve" text-anchor="middle" x="1312.88" y="-81.45" font-family="Helvetica,sans-Serif" font-size="9.00">7 RP</text>
</g>
<!-- ext_Trans_Newtonian_Technology -->
<g id="node8" class="node">
<title>ext_Trans_Newtonian_Technology</title>
<path fill="#f0f0f0" stroke="black" stroke-dasharray="5,2" d="M287.88,-108C287.88,-108 175.88,-108 175.88,-108 169.88,-108 163.88,-102 163.88,-96 163.88,-96 163.88,-84 163.88,-84 163.88,-78 169.88,-72 175.88,-72 175.88,-72 287.88,-72 287.88,-72 293.88,-72 299.88,-78 299.88,-84 299.88,-84 299.88,-96 299.88,-96 299.88,-102 293.88,-108 287.88,-108"/>
<text xml:space="preserve" text-anchor="middle" x="231.88" y="-86.33" font-family="Helvetica,sans-Serif" font-size="9.00">Trans&#45;Newtonian Technology</text>
</g>
<!-- ext_Trans_Newtonian_Technology&#45;&gt;Reduced_size_Launcher_0_75_Siz -->
<g id="edge1" class="edge">
<title>ext_Trans_Newtonian_Technology&#45;&gt;Reduced_size_Launcher_0_75_Siz</title>
<path fill="none" stroke="black" d="M231.88,-71.7C231.88,-63.22 231.88,-52.86 231.88,-43.58"/>
<polygon fill="black" stroke="black" points="233.98,-43.62 231.88,-37.62 229.78,-43.62 233.98,-43.62"/>
</g>
</g>
</svg>
