<?xml version="1.0" encoding="UTF-8" standalone="no"?>
<!DOCTYPE svg PUBLIC "-//W3C//DTD SVG 1.1//EN"
 "http://www.w3.org/Graphics/SVG/1.1/DTD/svg11.dtd">
<!-- Generated by graphviz version 14.1.2 (20260124.0452)
 -->
<!-- Title: TechTree Pages: 1 -->
<svg width="157pt" height="785pt"
 viewBox="0.00 0.00 157.00 785.00" xmlns="http://www.w3.org/2000/svg" xmlns:xlink="http://www.w3.org/1999/xlink">
<g id="graph0" class="graph" transform="scale(1 1) rotate(0) translate(4 780.75)">
<title>TechTree</title>
<polygon fill="white" stroke="none" points="-4,4 -4,-780.75 152.75,-780.75 152.75,4 -4,4"/>
<text xml:space="preserve" text-anchor="middle" x="74.38" y="-761.35" font-family="Helvetica,sans-Serif" font-weight="bold" font-size="12.00">Refuelling System</text>
<!-- Refuelling_System__20_000_LPH -->
<g id="node1" class="node">
<title>Refuelling_System__20_000_LPH</title>
<path fill="#cce5ff" stroke="black" d="M134.12,-756C134.12,-756 14.62,-756 14.62,-756 8.62,-756 2.62,-750 2.62,-744 2.62,-744 2.62,-732 2.62,-732 2.62,-726 8.62,-720 14.63,-720 14.63,-720 134.12,-720 134.12,-720 140.12,-720 146.12,-726 146.12,-732 146.12,-732 146.12,-744 146.12,-744 146.12,-750 140.12,-756 134.12,-756"/>
<text xml:space="preserve" text-anchor="middle" x="74.38" y="-739.2" font-family="Helvetica,sans-Serif" font-size="9.00">Refuelling System: 20,000 LPH</text>
<text xml:space="preserve" text-anchor="middle" x="74.38" y="-729.45" font-family="Helvetica,sans-Serif" font-size="9.00">1K RP</text>
</g>
<!-- Refuelling_System__30_000_LPH -->
<g id="node2" class="node">
<title>Refuelling_System__30_000_LPH</title>
<path fill="#cce5ff" stroke="black" d="M134.12,-684C134.12,-684 14.62,-684 14.62,-684 8.62,-684 2.62,-678 2.62,-672 2.62,-672 2.62,-660 2.62,-660 2.62,-654 8.62,-648 14.63,-648 14.63,-648 134.12,-648 134.12,-648 140.12,-648 146.12,-654 146.12,-660 146.12,-660 146.12,-672 146.12,-672 146.12,-678 140.12,-684 134.12,-684"/>
<text xml:space="preserve" text-anchor="middle" x="74.38" y="-667.2" font-family="Helvetica,sans-Serif" font-size="9.00">Refuelling System: 30,000 LPH</text>
<text xml:space="preserve" text-anchor="middle" x="74.38" y="-657.45" font-family="Helvetica,sans-Serif" font-size="9.00">2K RP</text>
</g>
<!-- Refuelling_System__20_000_LPH&#45;&gt;Refuelling_System__30_000_LPH -->
<g id="edge1" class="edge">
<title>Refuelling_System__20_000_LPH&#45;&gt;Refuelling_System__30_000_LPH</title>
<path fill="none" stroke="black" d="M74.38,-719.7C74.38,-711.22 74.38,-700.86 74.38,-691.58"/>
<polygon fill="black" stroke="black" points="76.48,-691.62 74.38,-685.62 72.28,-691.62 76.48,-691.62"/>
</g>
<!-- Refuelling_System__40_000_LPH -->
<g id="node3" class="node">
<title>Refuelling_System__40_000_LPH</title>
<path fill="#cce5ff" stroke="black" d="M134.12,-612C134.12,-612 14.62,-612 14.62,-612 8.62,-612 2.62,-606 2.62,-600 2.62,-600 2.62,-588 2.62,-588 2.62,-582 8.62,-576 14.63,-576 14.63,-576 134.12,-576 134.12,-576 140.12,-576 146.12,-582 146.12,-588 146.12,-588 146.12,-600 146.12,-600 146.12,-606 140.12,-612 134.12,-612"/>
<text xml:space="preserve" text-anchor="middle" x="74.38" y="-595.2" font-family="Helvetica,sans-Serif" font-size="9.00">Refuelling System: 40,000 LPH</text>
<text xml:space="preserve" text-anchor="middle" x="74.38" y="-585.45" font-family="Helvetica,sans-Serif" font-size="9.00">4K RP</text>
</g>
<!-- Refuelling_System__30_000_LPH&#45;&gt;Refuelling_System__40_000_LPH -->
<g id="edge2" class="edge">
<title>Refuelling_System__30_000_LPH&#45;&gt;Refuelling_System__40_000_LPH</title>
<path fill="none" stroke="black" d="M74.38,-647.7C74.38,-639.22 74.38,-628.86 74.38,-619.58"/>
<polygon fill="black" stroke="black" points="76.48,-619.62 74.38,-613.62 72.28,-619.62 76.48,-619.62"/>
</g>
<!-- Refuelling_System__60_000_LPH -->
<g id="node4" class="node">
<title>Refuelling_System__60_000_LPH</title>
<path fill="#cce5ff" stroke="black" d="M134.12,-540C134.12,-540 14.62,-540 14.62,-540 8.62,-540 2.62,-534 2.62,-528 2.62,-528 2.62,-516 2.62,-516 2.62,-510 8.62,-504 14.63,-504 14.63,-504 134.12,-504 134.12,-504 140.12,-504 146.12,-510 146.12,-516 146.12,-516 146.12,-528 146.12,-528 146.12,-534 140.12,-540 134.12,-540"/>
<text xml:space="preserve" text-anchor="middle" x="74.38" y="-523.2" font-family="Helvetica,sans-Serif" font-size="9.00">Refuelling System: 60,000 LPH</text>
<text xml:space="preserve" text-anchor="middle" x="74.38" y="-513.45" font-family="Helvetica,sans-Serif" font-size="9.00">8K RP</text>
</g>
<!-- Refuelling_System__40_000_LPH&#45;&gt;Refuelling_System__60_000_LPH -->
<g id="edge3" class="edge">
<title>Refuelling_System__40_000_LPH&#45;&gt;Refuelling_System__60_000_LPH</title>
<path fill="none" stroke="black" d="M74.38,-575.7C74.38,-567.22 74.38,-556.86 74.38,-547.58"/>
<polygon fill="black" stroke="black" points="76.48,-547.62 74.38,-541.62 72.28,-547.62 76.48,-547.62"/>
</g>
<!-- Refuelling_System__90_000_LPH -->
<g id="node5" class="node">
<title>Refuelling_System__90_000_LPH</title>
<path fill="#fff3cd" stroke="black" d="M134.12,-468C134.12,-468 14.62,-468 14.62,-468 8.62,-468 2.62,-462 2.62,-456 2.62,-456 2.62,-444 2.62,-444 2.62,-438 8.62,-432 14.63,-432 14.63,-432 134.12,-432 134.12,-432 140.12,-432 146.12,-438 146.12,-444 146.12,-444 146.12,-456 146.12,-456 146.12,-462 140.12,-468 134.12,-468"/>
<text xml:space="preserve" text-anchor="middle" x="74.38" y="-451.2" font-family="Helvetica,sans-Serif" font-size="9.00">Refuelling System: 90,000 LPH</text>
<text xml:space="preserve" text-anchor="middle" x="74.38" y="-441.45" font-family="Helvetica,sans-Serif" font-size="9.00">16K RP</text>
</g>
<!-- Refuelling_System__60_000_LPH&#45;&gt;Refuelling_System__90_000_LPH -->
<g id="edge4" class="edge">
<title>Refuelling_System__60_000_LPH&#45;&gt;Refuelling_System__90_000_LPH</title>
<path fill="none" stroke="black" d="M74.38,-503.7C74.38,-495.22 74.38,-484.86 74.38,-475.58"/>
<polygon fill="black" stroke="black" points="76.48,-475.62 74.38,-469.62 72.28,-475.62 76.48,-475.62"/>
</g>
<!-- Refuelling_System__135_000_LPH -->
<g id="node6" class="node">
<title>Refuelling_System__135_000_LPH</title>
<path fill="#fff3cd" stroke="black" d="M136.75,-396C136.75,-396 12,-396 12,-396 6,-396 0,-390 0,-384 0,-384 0,-372 0,-372 0,-366 6,-360 12,-360 12,-360 136.75,-360 136.75,-360 142.75,-360 148.75,-366 148.75,-372 148.75,-372 148.75,-384 148.75,-384 148.75,-390 142.75,-396 136.75,-396"/>
<text xml:space="preserve" text-anchor="middle" x="74.38" y="-379.2" font-family="Helvetica,sans-Serif" font-size="9.00">Refuelling System: 135,000 LPH</text>
<text xml:space="preserve" text-anchor="middle" x="74.38" y="-369.45" font-family="Helvetica,sans-Serif" font-size="9.00">32K RP</text>
</g>
<!-- Refuelling_System__90_000_LPH&#45;&gt;Refuelling_System__135_000_LPH -->
<g id="edge5" class="edge">
<title>Refuelling_System__90_000_LPH&#45;&gt;Refuelling_System__135_000_LPH</title>
<path fill="none" stroke="black" d="M74.38,-431.7C74.38,-423.22 74.38,-412.86 74.38,-403.58"/>
<polygon fill="black" stroke="black" points="76.48,-403.62 74.38,-397.62 72.28,-403.62 76.48,-403.62"/>
</g>
<!-- Refuelling_System__200_000_LPH -->
<g id="node7" class="node">
<title>Refuelling_System__200_000_LPH</title>
<path fill="#fff3cd" stroke="black" d="M136.75,-324C136.75,-324 12,-324 12,-324 6,-324 0,-318 0,-312 0,-312 0,-300 0,-300 0,-294 6,-288 12,-288 12,-288 136.75,-288 136.75,-288 142.75,-288 148.75,-294 148.75,-300 148.75,-300 148.75,-312 148.75,-312 148.75,-318 142.75,-324 136.75,-324"/>
<text xml:space="preserve" text-anchor="middle" x="74.38" y="-307.2" font-family="Helvetica,sans-Serif" font-size="9.00">Refuelling System: 200,000 LPH</text>
<text xml:space="preserve" text-anchor="middle" x="74.38" y="-297.45" font-family="Helvetica,sans-Serif" font-size="9.00">64K RP</text>
</g>
<!-- Refuelling_System__135_000_LPH&#45;&gt;Refuelling_System__200_000_LPH -->
<g id="edge6" class="edge">
<title>Refuelling_System__135_000_LPH&#45;&gt;Refuelling_System__200_000_LPH</title>
<path fill="none" stroke="black" d="M74.38,-359.7C74.38,-351.22 74.38,-340.86 74.38,-331.58"/>
<polygon fill="black" stroke="black" points="76.48,-331.62 74.38,-325.62 72.28,-331.62 76.48,-331.62"/>
</g>
<!-- Refuelling_System__300_000_LPH -->
<g id="node8" class="node">
<title>Refuelling_System__300_000_LPH</title>
<path fill="#d4c4fb" stroke="black" d="M136.75,-252C136.75,-252 12,-252 12,-252 6,-252 0,-246 0,-240 0,-240 0,-228 0,-228 0,-222 6,-216 12,-216 12,-216 136.75,-216 136.75,-216 142.75,-216 148.75,-222 148.75,-228 148.75,-228 148.75,-240 148.75,-240 148.75,-246 142.75,-252 136.75,-252"/>
<text xml:space="preserve" text-anchor="middle" x="74.38" y="-235.2" font-family="Helvetica,sans-Serif" font-size="9.00">Refuelling System: 300,000 LPH</text>
<text xml:space="preserve" text-anchor="middle" x="74.38" y="-225.45" font-family="Helvetica,sans-Serif" font-size="9.00">125K RP</text>
</g>
<!-- Refuelling_System__200_000_LPH&#45;&gt;Refuelling_System__300_000_LPH -->
<g id="edge7" class="edge">
<title>Refuelling_System__200_000_LPH&#45;&gt;Refuelling_System__300_000_LPH</title>
<path fill="none" stroke="black" d="M74.38,-287.7C74.38,-279.22 74.38,-268.86 74.38,-259.58"/>
<polygon fill="black" stroke="black" points="76.48,-259.62 74.38,-253.62 72.28,-259.62 76.48,-259.62"/>
</g>
<!-- Refuelling_System__450_000_LPH -->
<g id="node9" class="node">
<title>Refuelling_System__450_000_LPH</title>
<path fill="#d4c4fb" stroke="black" d="M136.75,-180C136.75,-180 12,-180 12,-180 6,-180 0,-174 0,-168 0,-168 0,-156 0,-156 0,-150 6,-144 12,-144 12,-144 136.75,-144 136.75,-144 142.75,-144 148.75,-150 148.75,-156 148.75,-156 148.75,-168 148.75,-168 148.75,-174 142.75,-180 136.75,-180"/>
<text xml:space="preserve" text-anchor="middle" x="74.38" y="-163.2" font-family="Helvetica,sans-Serif" font-size="9.00">Refuelling System: 450,000 LPH</text>
<text xml:space="preserve" text-anchor="middle" x="74.38" y="-153.45" font-family="Helvetica,sans-Serif" font-size="9.00">250K RP</text>
</g>
<!-- Refuelling_System__300_000_LPH&#45;&gt;Refuelling_System__450_000_LPH -->
<g id="edge8" class="edge">
<title>Refuelling_System__300_000_LPH&#45;&gt;Refuelling_System__450_000_LPH</title>
<path fill="none" stroke="black" d="M74.38,-215.7C74.38,-207.22 74.38,-196.86 74.38,-187.58"/>
<polygon fill="black" stroke="black" points="76.48,-187.62 74.38,-181.62 72.28,-187.62 76.48,-187.62"/>
</g>
<!-- Refuelling_System__600_000_LPH -->
<g id="node10" class="node">
<title>Refuelling_System__600_000_LPH</title>
<path fill="#d4c4fb" stroke="black" d="M136.75,-108C136.75,-108 12,-108 12,-108 6,-108 0,-102 0,-96 0,-96 0,-84 0,-84 0,-78 6,-72 12,-72 12,-72 136.75,-72 136.75,-72 142.75,-72 148.75,-78 148.75,-84 148.75,-84 148.75,-96 148.75,-96 148.75,-102 142.75,-108 136.75,-108"/>
<text xml:space="preserve" text-anchor="middle" x="74.38" y="-91.2" font-family="Helvetica,sans-Serif" font-size="9.00">Refuelling System: 600,000 LPH</text>
<text xml:space="preserve" text-anchor="middle" x="74.38" y="-81.45" font-family="Helvetica,sans-Serif" font-size="9.00">500K RP</text>
</g>
<!-- Refuelling_System__450_000_LPH&#45;&gt;Refuelling_System__600_000_LPH -->
<g id="edge9" class="edge">
<title>Refuelling_System__450_000_LPH&#45;&gt;Refuelling_System__600_000_LPH</title>
<path fill="none" stroke="black" d="M74.38,-143.7C74.38,-135.22 74.38,-124.86 74.38,-115.58"/>
<polygon fill="black" stroke="black" points="76.48,-115.62 74.38,-109.62 72.28,-115.62 76.48,-115.62"/>
</g>
<!-- Refuelling_System__900_000_LPH -->
<g id="node11" class="node">
<title>Refuelling_System__900_000_LPH</title>
<path fill="#d4c4fb" stroke="black" d="M136.75,-36C136.75,-36 12,-36 12,-36 6,-36 0,-30 0,-24 0,-24 0,-12 0,-12 0,-6 6,0 12,0 12,0 136.75,0 136.75,0 142.75,0 148.75,-6 148.75,-12 148.75,-12 148.75,-24 148.75,-24 148.75,-30 142.75,-36 136.75,-36"/>
<text xml:space="preserve" text-anchor="middle" x="74.38" y="-19.2" font-family="Helvetica,sans-Serif" font-size="9.00">Refuelling System: 900,000 LPH</text>
<text xml:space="preserve" text-anchor="middle" x="74.38" y="-9.45" font-family="Helvetica,sans-Serif" font-size="9.00">1.0M RP</text>
</g>
<!-- Refuelling_System__600_000_LPH&#45;&gt;Refuelling_System__900_000_LPH -->
<g id="edge10" class="edge">
<title>Refuelling_System__600_000_LPH&#45;&gt;Refuelling_System__900_000_LPH</title>
<path fill="none" stroke="black" d="M74.38,-71.7C74.38,-63.22 74.38,-52.86 74.38,-43.58"/>
<polygon fill="black" stroke="black" points="76.48,-43.62 74.38,-37.62 72.28,-43.62 76.48,-43.62"/>
</g>
</g>
</svg>
