<?xml version="1.0" encoding="UTF-8" standalone="no"?>
<!DOCTYPE svg PUBLIC "-//W3C//DTD SVG 1.1//EN"
 "http://www.w3.org/Graphics/SVG/1.1/DTD/svg11.dtd">
<!-- Generated by graphviz version 14.1.2 (20260124.0452)
 -->
<!-- Title: TechTree Pages: 1 -->
<svg width="167pt" height="717pt"
 viewBox="0.00 0.00 167.00 717.00" xmlns="http://www.w3.org/2000/svg" xmlns:xlink="http://www.w3.org/1999/xlink">
<g id="graph0" class="graph" transform="scale(1 1) rotate(0) translate(4 713)">
<title>TechTree</title>
<polygon fill="white" stroke="none" points="-4,4 -4,-713 163.25,-713 163.25,4 -4,4"/>
<text xml:space="preserve" text-anchor="middle" x="79.62" y="-691.7" font-family="Helvetica,sans-Serif" font-weight="bold" font-size="14.00">Refuelling System</text>
<!-- Refuelling_System__20_000_LPH -->
<g id="node1" class="node">
<title>Refuelling_System__20_000_LPH</title>
<path fill="#cce5ff" stroke="black" d="M144.62,-686C144.62,-686 14.63,-686 14.63,-686 8.63,-686 2.62,-680 2.62,-674 2.62,-674 2.62,-662 2.62,-662 2.62,-656 8.62,-650 14.62,-650 14.62,-650 144.62,-650 144.62,-650 150.62,-650 156.62,-656 156.62,-662 156.62,-662 156.62,-674 156.62,-674 156.62,-680 150.62,-686 144.62,-686"/>
<text xml:space="preserve" text-anchor="middle" x="79.62" y="-669.75" font-family="Helvetica,sans-Serif" font-size="10.00">Refuelling System: 20,000 LPH</text>
<text xml:space="preserve" text-anchor="middle" x="79.62" y="-658.5" font-family="Helvetica,sans-Serif" font-size="10.00">1K RP</text>
</g>
<!-- Refuelling_System__30_000_LPH -->
<g id="node2" class="node">
<title>Refuelling_System__30_000_LPH</title>
<path fill="#cce5ff" stroke="black" d="M144.62,-621C144.62,-621 14.63,-621 14.63,-621 8.63,-621 2.62,-615 2.62,-609 2.62,-609 2.62,-597 2.62,-597 2.62,-591 8.62,-585 14.62,-585 14.62,-585 144.62,-585 144.62,-585 150.62,-585 156.62,-591 156.62,-597 156.62,-597 156.62,-609 156.62,-609 156.62,-615 150.62,-621 144.62,-621"/>
<text xml:space="preserve" text-anchor="middle" x="79.62" y="-604.75" font-family="Helvetica,sans-Serif" font-size="10.00">Refuelling System: 30,000 LPH</text>
<text xml:space="preserve" text-anchor="middle" x="79.62" y="-593.5" font-family="Helvetica,sans-Serif" font-size="10.00">2K RP</text>
</g>
<!-- Refuelling_System__20_000_LPH&#45;&gt;Refuelling_System__30_000_LPH -->
<g id="edge1" class="edge">
<title>Refuelling_System__20_000_LPH&#45;&gt;Refuelling_System__30_000_LPH</title>
<path fill="none" stroke="black" d="M79.62,-649.78C79.62,-643.53 79.62,-636.33 79.62,-629.52"/>
<polygon fill="black" stroke="black" points="82.08,-629.71 79.63,-622.71 77.18,-629.71 82.08,-629.71"/>
</g>
<!-- Refuelling_System__40_000_LPH -->
<g id="node3" class="node">
<title>Refuelling_System__40_000_LPH</title>
<path fill="#cce5ff" stroke="black" d="M144.62,-556C144.62,-556 14.63,-556 14.63,-556 8.63,-556 2.62,-550 2.62,-544 2.62,-544 2.62,-532 2.62,-532 2.62,-526 8.62,-520 14.62,-520 14.62,-520 144.62,-520 144.62,-520 150.62,-520 156.62,-526 156.62,-532 156.62,-532 156.62,-544 156.62,-544 156.62,-550 150.62,-556 144.62,-556"/>
<text xml:space="preserve" text-anchor="middle" x="79.62" y="-539.75" font-family="Helvetica,sans-Serif" font-size="10.00">Refuelling System: 40,000 LPH</text>
<text xml:space="preserve" text-anchor="middle" x="79.62" y="-528.5" font-family="Helvetica,sans-Serif" font-size="10.00">4K RP</text>
</g>
<!-- Refuelling_System__30_000_LPH&#45;&gt;Refuelling_System__40_000_LPH -->
<g id="edge2" class="edge">
<title>Refuelling_System__30_000_LPH&#45;&gt;Refuelling_System__40_000_LPH</title>
<path fill="none" stroke="black" d="M79.62,-584.78C79.62,-578.53 79.62,-571.33 79.62,-564.52"/>
<polygon fill="black" stroke="black" points="82.08,-564.71 79.63,-557.71 77.18,-564.71 82.08,-564.71"/>
</g>
<!-- Refuelling_System__60_000_LPH -->
<g id="node4" class="node">
<title>Refuelling_System__60_000_LPH</title>
<path fill="#cce5ff" stroke="black" d="M144.62,-491C144.62,-491 14.63,-491 14.63,-491 8.63,-491 2.62,-485 2.62,-479 2.62,-479 2.62,-467 2.62,-467 2.62,-461 8.62,-455 14.62,-455 14.62,-455 144.62,-455 144.62,-455 150.62,-455 156.62,-461 156.62,-467 156.62,-467 156.62,-479 156.62,-479 156.62,-485 150.62,-491 144.62,-491"/>
<text xml:space="preserve" text-anchor="middle" x="79.62" y="-474.75" font-family="Helvetica,sans-Serif" font-size="10.00">Refuelling System: 60,000 LPH</text>
<text xml:space="preserve" text-anchor="middle" x="79.62" y="-463.5" font-family="Helvetica,sans-Serif" font-size="10.00">8K RP</text>
</g>
<!-- Refuelling_System__40_000_LPH&#45;&gt;Refuelling_System__60_000_LPH -->
<g id="edge3" class="edge">
<title>Refuelling_System__40_000_LPH&#45;&gt;Refuelling_System__60_000_LPH</title>
<path fill="none" stroke="black" d="M79.62,-519.78C79.62,-513.53 79.62,-506.33 79.62,-499.52"/>
<polygon fill="black" stroke="black" points="82.08,-499.71 79.63,-492.71 77.18,-499.71 82.08,-499.71"/>
</g>
<!-- Refuelling_System__90_000_LPH -->
<g id="node5" class="node">
<title>Refuelling_System__90_000_LPH</title>
<path fill="#fff3cd" stroke="black" d="M144.62,-426C144.62,-426 14.63,-426 14.63,-426 8.63,-426 2.62,-420 2.62,-414 2.62,-414 2.62,-402 2.62,-402 2.62,-396 8.62,-390 14.62,-390 14.62,-390 144.62,-390 144.62,-390 150.62,-390 156.62,-396 156.62,-402 156.62,-402 156.62,-414 156.62,-414 156.62,-420 150.62,-426 144.62,-426"/>
<text xml:space="preserve" text-anchor="middle" x="79.62" y="-409.75" font-family="Helvetica,sans-Serif" font-size="10.00">Refuelling System: 90,000 LPH</text>
<text xml:space="preserve" text-anchor="middle" x="79.62" y="-398.5" font-family="Helvetica,sans-Serif" font-size="10.00">16K RP</text>
</g>
<!-- Refuelling_System__60_000_LPH&#45;&gt;Refuelling_System__90_000_LPH -->
<g id="edge4" class="edge">
<title>Refuelling_System__60_000_LPH&#45;&gt;Refuelling_System__90_000_LPH</title>
<path fill="none" stroke="black" d="M79.62,-454.78C79.62,-448.53 79.62,-441.33 79.62,-434.52"/>
<polygon fill="black" stroke="black" points="82.08,-434.71 79.63,-427.71 77.18,-434.71 82.08,-434.71"/>
</g>
<!-- Refuelling_System__135_000_LPH -->
<g id="node6" class="node">
<title>Refuelling_System__135_000_LPH</title>
<path fill="#fff3cd" stroke="black" d="M147.25,-361C147.25,-361 12,-361 12,-361 6,-361 0,-355 0,-349 0,-349 0,-337 0,-337 0,-331 6,-325 12,-325 12,-325 147.25,-325 147.25,-325 153.25,-325 159.25,-331 159.25,-337 159.25,-337 159.25,-349 159.25,-349 159.25,-355 153.25,-361 147.25,-361"/>
<text xml:space="preserve" text-anchor="middle" x="79.62" y="-344.75" font-family="Helvetica,sans-Serif" font-size="10.00">Refuelling System: 135,000 LPH</text>
<text xml:space="preserve" text-anchor="middle" x="79.62" y="-333.5" font-family="Helvetica,sans-Serif" font-size="10.00">32K RP</text>
</g>
<!-- Refuelling_System__90_000_LPH&#45;&gt;Refuelling_System__135_000_LPH -->
<g id="edge5" class="edge">
<title>Refuelling_System__90_000_LPH&#45;&gt;Refuelling_System__135_000_LPH</title>
<path fill="none" stroke="black" d="M79.62,-389.78C79.62,-383.53 79.62,-376.33 79.62,-369.52"/>
<polygon fill="black" stroke="black" points="82.08,-369.71 79.63,-362.71 77.18,-369.71 82.08,-369.71"/>
</g>
<!-- Refuelling_System__200_000_LPH -->
<g id="node7" class="node">
<title>Refuelling_System__200_000_LPH</title>
<path fill="#fff3cd" stroke="black" d="M147.25,-296C147.25,-296 12,-296 12,-296 6,-296 0,-290 0,-284 0,-284 0,-272 0,-272 0,-266 6,-260 12,-260 12,-260 147.25,-260 147.25,-260 153.25,-260 159.25,-266 159.25,-272 159.25,-272 159.25,-284 159.25,-284 159.25,-290 153.25,-296 147.25,-296"/>
<text xml:space="preserve" text-anchor="middle" x="79.62" y="-279.75" font-family="Helvetica,sans-Serif" font-size="10.00">Refuelling System: 200,000 LPH</text>
<text xml:space="preserve" text-anchor="middle" x="79.62" y="-268.5" font-family="Helvetica,sans-Serif" font-size="10.00">64K RP</text>
</g>
<!-- Refuelling_System__135_000_LPH&#45;&gt;Refuelling_System__200_000_LPH -->
<g id="edge6" class="edge">
<title>Refuelling_System__135_000_LPH&#45;&gt;Refuelling_System__200_000_LPH</title>
<path fill="none" stroke="black" d="M79.62,-324.78C79.62,-318.53 79.62,-311.33 79.62,-304.52"/>
<polygon fill="black" stroke="black" points="82.08,-304.71 79.63,-297.71 77.18,-304.71 82.08,-304.71"/>
</g>
<!-- Refuelling_System__300_000_LPH -->
<g id="node8" class="node">
<title>Refuelling_System__300_000_LPH</title>
<path fill="#d4c4fb" stroke="black" d="M147.25,-231C147.25,-231 12,-231 12,-231 6,-231 0,-225 0,-219 0,-219 0,-207 0,-207 0,-201 6,-195 12,-195 12,-195 147.25,-195 147.25,-195 153.25,-195 159.25,-201 159.25,-207 159.25,-207 159.25,-219 159.25,-219 159.25,-225 153.25,-231 147.25,-231"/>
<text xml:space="preserve" text-anchor="middle" x="79.62" y="-214.75" font-family="Helvetica,sans-Serif" font-size="10.00">Refuelling System: 300,000 LPH</text>
<text xml:space="preserve" text-anchor="middle" x="79.62" y="-203.5" font-family="Helvetica,sans-Serif" font-size="10.00">125K RP</text>
</g>
<!-- Refuelling_System__200_000_LPH&#45;&gt;Refuelling_System__300_000_LPH -->
<g id="edge7" class="edge">
<title>Refuelling_System__200_000_LPH&#45;&gt;Refuelling_System__300_000_LPH</title>
<path fill="none" stroke="black" d="M79.62,-259.78C79.62,-253.53 79.62,-246.33 79.62,-239.52"/>
<polygon fill="black" stroke="black" points="82.08,-239.71 79.63,-232.71 77.18,-239.71 82.08,-239.71"/>
</g>
<!-- Refuelling_System__450_000_LPH -->
<g id="node9" class="node">
<title>Refuelling_System__450_000_LPH</title>
<path fill="#d4c4fb" stroke="black" d="M147.25,-166C147.25,-166 12,-166 12,-166 6,-166 0,-160 0,-154 0,-154 0,-142 0,-142 0,-136 6,-130 12,-130 12,-130 147.25,-130 147.25,-130 153.25,-130 159.25,-136 159.25,-142 159.25,-142 159.25,-154 159.25,-154 159.25,-160 153.25,-166 147.25,-166"/>
<text xml:space="preserve" text-anchor="middle" x="79.62" y="-149.75" font-family="Helvetica,sans-Serif" font-size="10.00">Refuelling System: 450,000 LPH</text>
<text xml:space="preserve" text-anchor="middle" x="79.62" y="-138.5" font-family="Helvetica,sans-Serif" font-size="10.00">250K RP</text>
</g>
<!-- Refuelling_System__300_000_LPH&#45;&gt;Refuelling_System__450_000_LPH -->
<g id="edge8" class="edge">
<title>Refuelling_System__300_000_LPH&#45;&gt;Refuelling_System__450_000_LPH</title>
<path fill="none" stroke="black" d="M79.62,-194.78C79.62,-188.53 79.62,-181.33 79.62,-174.52"/>
<polygon fill="black" stroke="black" points="82.08,-174.71 79.63,-167.71 77.18,-174.71 82.08,-174.71"/>
</g>
<!-- Refuelling_System__600_000_LPH -->
<g id="node10" class="node">
<title>Refuelling_System__600_000_LPH</title>
<path fill="#d4c4fb" stroke="black" d="M147.25,-101C147.25,-101 12,-101 12,-101 6,-101 0,-95 0,-89 0,-89 0,-77 0,-77 0,-71 6,-65 12,-65 12,-65 147.25,-65 147.25,-65 153.25,-65 159.25,-71 159.25,-77 159.25,-77 159.25,-89 159.25,-89 159.25,-95 153.25,-101 147.25,-101"/>
<text xml:space="preserve" text-anchor="middle" x="79.62" y="-84.75" font-family="Helvetica,sans-Serif" font-size="10.00">Refuelling System: 600,000 LPH</text>
<text xml:space="preserve" text-anchor="middle" x="79.62" y="-73.5" font-family="Helvetica,sans-Serif" font-size="10.00">500K RP</text>
</g>
<!-- Refuelling_System__450_000_LPH&#45;&gt;Refuelling_System__600_000_LPH -->
<g id="edge9" class="edge">
<title>Refuelling_System__450_000_LPH&#45;&gt;Refuelling_System__600_000_LPH</title>
<path fill="none" stroke="black" d="M79.62,-129.78C79.62,-123.53 79.62,-116.33 79.62,-109.52"/>
<polygon fill="black" stroke="black" points="82.08,-109.71 79.63,-102.71 77.18,-109.71 82.08,-109.71"/>
</g>
<!-- Refuelling_System__900_000_LPH -->
<g id="node11" class="node">
<title>Refuelling_System__900_000_LPH</title>
<path fill="#d4c4fb" stroke="black" d="M147.25,-36C147.25,-36 12,-36 12,-36 6,-36 0,-30 0,-24 0,-24 0,-12 0,-12 0,-6 6,0 12,0 12,0 147.25,0 147.25,0 153.25,0 159.25,-6 159.25,-12 159.25,-12 159.25,-24 159.25,-24 159.25,-30 153.25,-36 147.25,-36"/>
<text xml:space="preserve" text-anchor="middle" x="79.62" y="-19.75" font-family="Helvetica,sans-Serif" font-size="10.00">Refuelling System: 900,000 LPH</text>
<text xml:space="preserve" text-anchor="middle" x="79.62" y="-8.5" font-family="Helvetica,sans-Serif" font-size="10.00">1.0M RP</text>
</g>
<!-- Refuelling_System__600_000_LPH&#45;&gt;Refuelling_System__900_000_LPH -->
<g id="edge10" class="edge">
<title>Refuelling_System__600_000_LPH&#45;&gt;Refuelling_System__900_000_LPH</title>
<path fill="none" stroke="black" d="M79.62,-64.78C79.62,-58.53 79.62,-51.33 79.62,-44.52"/>
<polygon fill="black" stroke="black" points="82.08,-44.71 79.63,-37.71 77.18,-44.71 82.08,-44.71"/>
</g>
</g>
</svg>
