<?xml version="1.0" encoding="UTF-8" standalone="no"?>
<!DOCTYPE svg PUBLIC "-//W3C//DTD SVG 1.1//EN"
 "http://www.w3.org/Graphics/SVG/1.1/DTD/svg11.dtd">
<!-- Generated by graphviz version 14.1.2 (20260124.0452)
 -->
<!-- Title: TechTree Pages: 1 -->
<svg width="144pt" height="497pt"
 viewBox="0.00 0.00 144.00 497.00" xmlns="http://www.w3.org/2000/svg" xmlns:xlink="http://www.w3.org/1999/xlink">
<g id="graph0" class="graph" transform="scale(1 1) rotate(0) translate(4 492.75)">
<title>TechTree</title>
<polygon fill="white" stroke="none" points="-4,4 -4,-492.75 140,-492.75 140,4 -4,4"/>
<text xml:space="preserve" text-anchor="middle" x="68" y="-473.35" font-family="Helvetica,sans-Serif" font-weight="bold" font-size="12.00">Salvage Module</text>
<!-- Salvage_Module_500 -->
<g id="node1" class="node">
<title>Salvage_Module_500</title>
<path fill="#cce5ff" stroke="black" d="M106.38,-396C106.38,-396 29.62,-396 29.62,-396 23.62,-396 17.62,-390 17.62,-384 17.62,-384 17.62,-372 17.62,-372 17.62,-366 23.62,-360 29.62,-360 29.62,-360 106.38,-360 106.38,-360 112.38,-360 118.38,-366 118.38,-372 118.38,-372 118.38,-384 118.38,-384 118.38,-390 112.38,-396 106.38,-396"/>
<text xml:space="preserve" text-anchor="middle" x="68" y="-379.2" font-family="Helvetica,sans-Serif" font-size="9.00">Salvage Module 500</text>
<text xml:space="preserve" text-anchor="middle" x="68" y="-369.45" font-family="Helvetica,sans-Serif" font-size="9.00">5K RP</text>
</g>
<!-- Salvage_Module_750 -->
<g id="node2" class="node">
<title>Salvage_Module_750</title>
<path fill="#cce5ff" stroke="black" d="M106.38,-324C106.38,-324 29.62,-324 29.62,-324 23.62,-324 17.62,-318 17.62,-312 17.62,-312 17.62,-300 17.62,-300 17.62,-294 23.62,-288 29.62,-288 29.62,-288 106.38,-288 106.38,-288 112.38,-288 118.38,-294 118.38,-300 118.38,-300 118.38,-312 118.38,-312 118.38,-318 112.38,-324 106.38,-324"/>
<text xml:space="preserve" text-anchor="middle" x="68" y="-307.2" font-family="Helvetica,sans-Serif" font-size="9.00">Salvage Module 750</text>
<text xml:space="preserve" text-anchor="middle" x="68" y="-297.45" font-family="Helvetica,sans-Serif" font-size="9.00">10K RP</text>
</g>
<!-- Salvage_Module_500&#45;&gt;Salvage_Module_750 -->
<g id="edge2" class="edge">
<title>Salvage_Module_500&#45;&gt;Salvage_Module_750</title>
<path fill="none" stroke="black" d="M68,-359.7C68,-351.22 68,-340.86 68,-331.58"/>
<polygon fill="black" stroke="black" points="70.1,-331.62 68,-325.62 65.9,-331.62 70.1,-331.62"/>
</g>
<!-- Salvage_Module_1000 -->
<g id="node3" class="node">
<title>Salvage_Module_1000</title>
<path fill="#fff3cd" stroke="black" d="M109,-252C109,-252 27,-252 27,-252 21,-252 15,-246 15,-240 15,-240 15,-228 15,-228 15,-222 21,-216 27,-216 27,-216 109,-216 109,-216 115,-216 121,-222 121,-228 121,-228 121,-240 121,-240 121,-246 115,-252 109,-252"/>
<text xml:space="preserve" text-anchor="middle" x="68" y="-235.2" font-family="Helvetica,sans-Serif" font-size="9.00">Salvage Module 1000</text>
<text xml:space="preserve" text-anchor="middle" x="68" y="-225.45" font-family="Helvetica,sans-Serif" font-size="9.00">20K RP</text>
</g>
<!-- Salvage_Module_750&#45;&gt;Salvage_Module_1000 -->
<g id="edge3" class="edge">
<title>Salvage_Module_750&#45;&gt;Salvage_Module_1000</title>
<path fill="none" stroke="black" d="M68,-287.7C68,-279.22 68,-268.86 68,-259.58"/>
<polygon fill="black" stroke="black" points="70.1,-259.62 68,-253.62 65.9,-259.62 70.1,-259.62"/>
</g>
<!-- Salvage_Module_1350 -->
<g id="node4" class="node">
<title>Salvage_Module_1350</title>
<path fill="#fff3cd" stroke="black" d="M109,-180C109,-180 27,-180 27,-180 21,-180 15,-174 15,-168 15,-168 15,-156 15,-156 15,-150 21,-144 27,-144 27,-144 109,-144 109,-144 115,-144 121,-150 121,-156 121,-156 121,-168 121,-168 121,-174 115,-180 109,-180"/>
<text xml:space="preserve" text-anchor="middle" x="68" y="-163.2" font-family="Helvetica,sans-Serif" font-size="9.00">Salvage Module 1350</text>
<text xml:space="preserve" text-anchor="middle" x="68" y="-153.45" font-family="Helvetica,sans-Serif" font-size="9.00">40K RP</text>
</g>
<!-- Salvage_Module_1000&#45;&gt;Salvage_Module_1350 -->
<g id="edge4" class="edge">
<title>Salvage_Module_1000&#45;&gt;Salvage_Module_1350</title>
<path fill="none" stroke="black" d="M68,-215.7C68,-207.22 68,-196.86 68,-187.58"/>
<polygon fill="black" stroke="black" points="70.1,-187.62 68,-181.62 65.9,-187.62 70.1,-187.62"/>
</g>
<!-- Salvage_Module_1800 -->
<g id="node5" class="node">
<title>Salvage_Module_1800</title>
<path fill="#fff3cd" stroke="black" d="M109,-108C109,-108 27,-108 27,-108 21,-108 15,-102 15,-96 15,-96 15,-84 15,-84 15,-78 21,-72 27,-72 27,-72 109,-72 109,-72 115,-72 121,-78 121,-84 121,-84 121,-96 121,-96 121,-102 115,-108 109,-108"/>
<text xml:space="preserve" text-anchor="middle" x="68" y="-91.2" font-family="Helvetica,sans-Serif" font-size="9.00">Salvage Module 1800</text>
<text xml:space="preserve" text-anchor="middle" x="68" y="-81.45" font-family="Helvetica,sans-Serif" font-size="9.00">80K RP</text>
</g>
<!-- Salvage_Module_1350&#45;&gt;Salvage_Module_1800 -->
<g id="edge5" class="edge">
<title>Salvage_Module_1350&#45;&gt;Salvage_Module_1800</title>
<path fill="none" stroke="black" d="M68,-143.7C68,-135.22 68,-124.86 68,-115.58"/>
<polygon fill="black" stroke="black" points="70.1,-115.62 68,-109.62 65.9,-115.62 70.1,-115.62"/>
</g>
<!-- Salvage_Module_2500 -->
<g id="node6" class="node">
<title>Salvage_Module_2500</title>
<path fill="#d4c4fb" stroke="black" d="M109,-36C109,-36 27,-36 27,-36 21,-36 15,-30 15,-24 15,-24 15,-12 15,-12 15,-6 21,0 27,0 27,0 109,0 109,0 115,0 121,-6 121,-12 121,-12 121,-24 121,-24 121,-30 115,-36 109,-36"/>
<text xml:space="preserve" text-anchor="middle" x="68" y="-19.2" font-family="Helvetica,sans-Serif" font-size="9.00">Salvage Module 2500</text>
<text xml:space="preserve" text-anchor="middle" x="68" y="-9.45" font-family="Helvetica,sans-Serif" font-size="9.00">160K RP</text>
</g>
<!-- Salvage_Module_1800&#45;&gt;Salvage_Module_2500 -->
<g id="edge6" class="edge">
<title>Salvage_Module_1800&#45;&gt;Salvage_Module_2500</title>
<path fill="none" stroke="black" d="M68,-71.7C68,-63.22 68,-52.86 68,-43.58"/>
<polygon fill="black" stroke="black" points="70.1,-43.62 68,-37.62 65.9,-43.62 70.1,-43.62"/>
</g>
<!-- ext_Trans_Newtonian_Technology -->
<g id="node7" class="node">
<title>ext_Trans_Newtonian_Technology</title>
<path fill="#f0f0f0" stroke="black" stroke-dasharray="5,2" d="M124,-468C124,-468 12,-468 12,-468 6,-468 0,-462 0,-456 0,-456 0,-444 0,-444 0,-438 6,-432 12,-432 12,-432 124,-432 124,-432 130,-432 136,-438 136,-444 136,-444 136,-456 136,-456 136,-462 130,-468 124,-468"/>
<text xml:space="preserve" text-anchor="middle" x="68" y="-446.32" font-family="Helvetica,sans-Serif" font-size="9.00">Trans&#45;Newtonian Technology</text>
</g>
<!-- ext_Trans_Newtonian_Technology&#45;&gt;Salvage_Module_500 -->
<g id="edge1" class="edge">
<title>ext_Trans_Newtonian_Technology&#45;&gt;Salvage_Module_500</title>
<path fill="none" stroke="black" d="M68,-431.7C68,-423.22 68,-412.86 68,-403.58"/>
<polygon fill="black" stroke="black" points="70.1,-403.62 68,-397.62 65.9,-403.62 70.1,-403.62"/>
</g>
</g>
</svg>
