<?xml version="1.0" encoding="UTF-8" standalone="no"?>
<!DOCTYPE svg PUBLIC "-//W3C//DTD SVG 1.1//EN"
 "http://www.w3.org/Graphics/SVG/1.1/DTD/svg11.dtd">
<!-- Generated by graphviz version 14.1.2 (20260124.0452)
 -->
<!-- Title: TechTree Pages: 1 -->
<svg width="801pt" height="67pt"
 viewBox="0.00 0.00 801.00 67.00" xmlns="http://www.w3.org/2000/svg" xmlns:xlink="http://www.w3.org/1999/xlink">
<g id="graph0" class="graph" transform="scale(1 1) rotate(0) translate(4 63)">
<title>TechTree</title>
<polygon fill="white" stroke="none" points="-4,4 -4,-63 797,-63 797,4 -4,4"/>
<text xml:space="preserve" text-anchor="middle" x="396.5" y="-41.7" font-family="Helvetica,sans-Serif" font-weight="bold" font-size="14.00">Salvage Module</text>
<!-- Salvage_Module_500 -->
<g id="node1" class="node">
<title>Salvage_Module_500</title>
<path fill="#cce5ff" stroke="black" d="M92.5,-36C92.5,-36 12,-36 12,-36 6,-36 0,-30 0,-24 0,-24 0,-12 0,-12 0,-6 6,0 12,0 12,0 92.5,0 92.5,0 98.5,0 104.5,-6 104.5,-12 104.5,-12 104.5,-24 104.5,-24 104.5,-30 98.5,-36 92.5,-36"/>
<text xml:space="preserve" text-anchor="middle" x="52.25" y="-19.75" font-family="Helvetica,sans-Serif" font-size="10.00">Salvage Module 500</text>
<text xml:space="preserve" text-anchor="middle" x="52.25" y="-8.5" font-family="Helvetica,sans-Serif" font-size="10.00">5K RP</text>
</g>
<!-- Salvage_Module_750 -->
<g id="node2" class="node">
<title>Salvage_Module_750</title>
<path fill="#cce5ff" stroke="black" d="M226,-36C226,-36 145.5,-36 145.5,-36 139.5,-36 133.5,-30 133.5,-24 133.5,-24 133.5,-12 133.5,-12 133.5,-6 139.5,0 145.5,0 145.5,0 226,0 226,0 232,0 238,-6 238,-12 238,-12 238,-24 238,-24 238,-30 232,-36 226,-36"/>
<text xml:space="preserve" text-anchor="middle" x="185.75" y="-19.75" font-family="Helvetica,sans-Serif" font-size="10.00">Salvage Module 750</text>
<text xml:space="preserve" text-anchor="middle" x="185.75" y="-8.5" font-family="Helvetica,sans-Serif" font-size="10.00">10K RP</text>
</g>
<!-- Salvage_Module_500&#45;&gt;Salvage_Module_750 -->
<g id="edge1" class="edge">
<title>Salvage_Module_500&#45;&gt;Salvage_Module_750</title>
<path fill="none" stroke="black" d="M104.84,-18C111.42,-18 118.2,-18 124.89,-18"/>
<polygon fill="black" stroke="black" points="124.79,-20.45 131.79,-18 124.79,-15.55 124.79,-20.45"/>
</g>
<!-- Salvage_Module_1000 -->
<g id="node3" class="node">
<title>Salvage_Module_1000</title>
<path fill="#fff3cd" stroke="black" d="M364.75,-36C364.75,-36 279,-36 279,-36 273,-36 267,-30 267,-24 267,-24 267,-12 267,-12 267,-6 273,0 279,0 279,0 364.75,0 364.75,0 370.75,0 376.75,-6 376.75,-12 376.75,-12 376.75,-24 376.75,-24 376.75,-30 370.75,-36 364.75,-36"/>
<text xml:space="preserve" text-anchor="middle" x="321.88" y="-19.75" font-family="Helvetica,sans-Serif" font-size="10.00">Salvage Module 1000</text>
<text xml:space="preserve" text-anchor="middle" x="321.88" y="-8.5" font-family="Helvetica,sans-Serif" font-size="10.00">20K RP</text>
</g>
<!-- Salvage_Module_750&#45;&gt;Salvage_Module_1000 -->
<g id="edge2" class="edge">
<title>Salvage_Module_750&#45;&gt;Salvage_Module_1000</title>
<path fill="none" stroke="black" d="M238.22,-18C244.77,-18 251.52,-18 258.22,-18"/>
<polygon fill="black" stroke="black" points="258.13,-20.45 265.13,-18 258.13,-15.55 258.13,-20.45"/>
</g>
<!-- Salvage_Module_1350 -->
<g id="node4" class="node">
<title>Salvage_Module_1350</title>
<path fill="#fff3cd" stroke="black" d="M503.5,-36C503.5,-36 417.75,-36 417.75,-36 411.75,-36 405.75,-30 405.75,-24 405.75,-24 405.75,-12 405.75,-12 405.75,-6 411.75,0 417.75,0 417.75,0 503.5,0 503.5,0 509.5,0 515.5,-6 515.5,-12 515.5,-12 515.5,-24 515.5,-24 515.5,-30 509.5,-36 503.5,-36"/>
<text xml:space="preserve" text-anchor="middle" x="460.62" y="-19.75" font-family="Helvetica,sans-Serif" font-size="10.00">Salvage Module 1350</text>
<text xml:space="preserve" text-anchor="middle" x="460.62" y="-8.5" font-family="Helvetica,sans-Serif" font-size="10.00">40K RP</text>
</g>
<!-- Salvage_Module_1000&#45;&gt;Salvage_Module_1350 -->
<g id="edge3" class="edge">
<title>Salvage_Module_1000&#45;&gt;Salvage_Module_1350</title>
<path fill="none" stroke="black" d="M376.92,-18C383.54,-18 390.34,-18 397.06,-18"/>
<polygon fill="black" stroke="black" points="397.01,-20.45 404.01,-18 397.01,-15.55 397.01,-20.45"/>
</g>
<!-- Salvage_Module_1800 -->
<g id="node5" class="node">
<title>Salvage_Module_1800</title>
<path fill="#fff3cd" stroke="black" d="M642.25,-36C642.25,-36 556.5,-36 556.5,-36 550.5,-36 544.5,-30 544.5,-24 544.5,-24 544.5,-12 544.5,-12 544.5,-6 550.5,0 556.5,0 556.5,0 642.25,0 642.25,0 648.25,0 654.25,-6 654.25,-12 654.25,-12 654.25,-24 654.25,-24 654.25,-30 648.25,-36 642.25,-36"/>
<text xml:space="preserve" text-anchor="middle" x="599.38" y="-19.75" font-family="Helvetica,sans-Serif" font-size="10.00">Salvage Module 1800</text>
<text xml:space="preserve" text-anchor="middle" x="599.38" y="-8.5" font-family="Helvetica,sans-Serif" font-size="10.00">80K RP</text>
</g>
<!-- Salvage_Module_1350&#45;&gt;Salvage_Module_1800 -->
<g id="edge4" class="edge">
<title>Salvage_Module_1350&#45;&gt;Salvage_Module_1800</title>
<path fill="none" stroke="black" d="M515.67,-18C522.29,-18 529.09,-18 535.81,-18"/>
<polygon fill="black" stroke="black" points="535.76,-20.45 542.76,-18 535.76,-15.55 535.76,-20.45"/>
</g>
<!-- Salvage_Module_2500 -->
<g id="node6" class="node">
<title>Salvage_Module_2500</title>
<path fill="#d4c4fb" stroke="black" d="M781,-36C781,-36 695.25,-36 695.25,-36 689.25,-36 683.25,-30 683.25,-24 683.25,-24 683.25,-12 683.25,-12 683.25,-6 689.25,0 695.25,0 695.25,0 781,0 781,0 787,0 793,-6 793,-12 793,-12 793,-24 793,-24 793,-30 787,-36 781,-36"/>
<text xml:space="preserve" text-anchor="middle" x="738.12" y="-19.75" font-family="Helvetica,sans-Serif" font-size="10.00">Salvage Module 2500</text>
<text xml:space="preserve" text-anchor="middle" x="738.12" y="-8.5" font-family="Helvetica,sans-Serif" font-size="10.00">160K RP</text>
</g>
<!-- Salvage_Module_1800&#45;&gt;Salvage_Module_2500 -->
<g id="edge5" class="edge">
<title>Salvage_Module_1800&#45;&gt;Salvage_Module_2500</title>
<path fill="none" stroke="black" d="M654.42,-18C661.04,-18 667.84,-18 674.56,-18"/>
<polygon fill="black" stroke="black" points="674.51,-20.45 681.51,-18 674.51,-15.55 674.51,-20.45"/>
</g>
</g>
</svg>
