<?xml version="1.0" encoding="UTF-8" standalone="no"?>
<!DOCTYPE svg PUBLIC "-//W3C//DTD SVG 1.1//EN"
 "http://www.w3.org/Graphics/SVG/1.1/DTD/svg11.dtd">
<!-- Generated by graphviz version 14.1.2 (20260124.0452)
 -->
<!-- Title: TechTree Pages: 1 -->
<svg width="158pt" height="65pt"
 viewBox="0.00 0.00 158.00 65.00" xmlns="http://www.w3.org/2000/svg" xmlns:xlink="http://www.w3.org/1999/xlink">
<g id="graph0" class="graph" transform="scale(1 1) rotate(0) translate(4 60.75)">
<title>TechTree</title>
<polygon fill="white" stroke="none" points="-4,4 -4,-60.75 153.5,-60.75 153.5,4 -4,4"/>
<text xml:space="preserve" text-anchor="middle" x="74.75" y="-41.35" font-family="Helvetica,sans-Serif" font-weight="bold" font-size="12.00">Sector Command</text>
<!-- Improved_Command_and_Control -->
<g id="node1" class="node">
<title>Improved_Command_and_Control</title>
<path fill="#cce5ff" stroke="black" d="M137.5,-36C137.5,-36 12,-36 12,-36 6,-36 0,-30 0,-24 0,-24 0,-12 0,-12 0,-6 6,0 12,0 12,0 137.5,0 137.5,0 143.5,0 149.5,-6 149.5,-12 149.5,-12 149.5,-24 149.5,-24 149.5,-30 143.5,-36 137.5,-36"/>
<text xml:space="preserve" text-anchor="middle" x="74.75" y="-19.2" font-family="Helvetica,sans-Serif" font-size="9.00">Improved Command and Control</text>
<text xml:space="preserve" text-anchor="middle" x="74.75" y="-9.45" font-family="Helvetica,sans-Serif" font-size="9.00">5K RP</text>
</g>
</g>
</svg>
