<?xml version="1.0" encoding="UTF-8" standalone="no"?>
<!DOCTYPE svg PUBLIC "-//W3C//DTD SVG 1.1//EN"
 "http://www.w3.org/Graphics/SVG/1.1/DTD/svg11.dtd">
<!-- Generated by graphviz version 14.1.2 (20260124.0452)
 -->
<!-- Title: TechTree Pages: 1 -->
<svg width="166pt" height="67pt"
 viewBox="0.00 0.00 166.00 67.00" xmlns="http://www.w3.org/2000/svg" xmlns:xlink="http://www.w3.org/1999/xlink">
<g id="graph0" class="graph" transform="scale(1 1) rotate(0) translate(4 63)">
<title>TechTree</title>
<polygon fill="white" stroke="none" points="-4,4 -4,-63 161.75,-63 161.75,4 -4,4"/>
<text xml:space="preserve" text-anchor="middle" x="78.88" y="-41.7" font-family="Helvetica,sans-Serif" font-weight="bold" font-size="14.00">Sector Command</text>
<!-- Improved_Command_and_Control -->
<g id="node1" class="node">
<title>Improved_Command_and_Control</title>
<path fill="#cce5ff" stroke="black" d="M145.75,-36C145.75,-36 12,-36 12,-36 6,-36 0,-30 0,-24 0,-24 0,-12 0,-12 0,-6 6,0 12,0 12,0 145.75,0 145.75,0 151.75,0 157.75,-6 157.75,-12 157.75,-12 157.75,-24 157.75,-24 157.75,-30 151.75,-36 145.75,-36"/>
<text xml:space="preserve" text-anchor="middle" x="78.88" y="-19.75" font-family="Helvetica,sans-Serif" font-size="10.00">Improved Command and Control</text>
<text xml:space="preserve" text-anchor="middle" x="78.88" y="-8.5" font-family="Helvetica,sans-Serif" font-size="10.00">5K RP</text>
</g>
</g>
</svg>
