<?xml version="1.0" encoding="UTF-8" standalone="no"?>
<!DOCTYPE svg PUBLIC "-//W3C//DTD SVG 1.1//EN"
 "http://www.w3.org/Graphics/SVG/1.1/DTD/svg11.dtd">
<!-- Generated by graphviz version 14.1.2 (20260124.0452)
 -->
<!-- Title: TechTree Pages: 1 -->
<svg width="143pt" height="67pt"
 viewBox="0.00 0.00 143.00 67.00" xmlns="http://www.w3.org/2000/svg" xmlns:xlink="http://www.w3.org/1999/xlink">
<g id="graph0" class="graph" transform="scale(1 1) rotate(0) translate(4 63)">
<title>TechTree</title>
<polygon fill="white" stroke="none" points="-4,4 -4,-63 138.5,-63 138.5,4 -4,4"/>
<text xml:space="preserve" text-anchor="middle" x="67.25" y="-41.7" font-family="Helvetica,sans-Serif" font-weight="bold" font-size="14.00">Sensor Band Type</text>
<!-- Broadband_Sensor -->
<g id="node1" class="node">
<title>Broadband_Sensor</title>
<path fill="#d4edda" stroke="black" d="M103.38,-36C103.38,-36 31.13,-36 31.13,-36 25.13,-36 19.12,-30 19.12,-24 19.12,-24 19.12,-12 19.12,-12 19.12,-6 25.12,0 31.12,0 31.12,0 103.38,0 103.38,0 109.38,0 115.38,-6 115.38,-12 115.38,-12 115.38,-24 115.38,-24 115.38,-30 109.38,-36 103.38,-36"/>
<text xml:space="preserve" text-anchor="middle" x="67.25" y="-19.75" font-family="Helvetica,sans-Serif" font-size="10.00">Broadband Sensor</text>
<text xml:space="preserve" text-anchor="middle" x="67.25" y="-8.5" font-family="Helvetica,sans-Serif" font-size="10.00">10 RP</text>
</g>
</g>
</svg>
