<?xml version="1.0" encoding="UTF-8" standalone="no"?>
<!DOCTYPE svg PUBLIC "-//W3C//DTD SVG 1.1//EN"
 "http://www.w3.org/Graphics/SVG/1.1/DTD/svg11.dtd">
<!-- Generated by graphviz version 14.1.2 (20260124.0452)
 -->
<!-- Title: TechTree Pages: 1 -->
<svg width="129pt" height="65pt"
 viewBox="0.00 0.00 129.00 65.00" xmlns="http://www.w3.org/2000/svg" xmlns:xlink="http://www.w3.org/1999/xlink">
<g id="graph0" class="graph" transform="scale(1 1) rotate(0) translate(4 60.75)">
<title>TechTree</title>
<polygon fill="white" stroke="none" points="-4,4 -4,-60.75 125,-60.75 125,4 -4,4"/>
<text xml:space="preserve" text-anchor="middle" x="60.5" y="-41.35" font-family="Helvetica,sans-Serif" font-weight="bold" font-size="12.00">Sensor Band Type</text>
<!-- Broadband_Sensor -->
<g id="node1" class="node">
<title>Broadband_Sensor</title>
<path fill="#d4edda" stroke="black" d="M95.12,-36C95.12,-36 25.87,-36 25.87,-36 19.88,-36 13.88,-30 13.88,-24 13.88,-24 13.88,-12 13.88,-12 13.88,-6 19.88,0 25.88,0 25.88,0 95.12,0 95.12,0 101.12,0 107.12,-6 107.12,-12 107.12,-12 107.12,-24 107.12,-24 107.12,-30 101.12,-36 95.12,-36"/>
<text xml:space="preserve" text-anchor="middle" x="60.5" y="-19.2" font-family="Helvetica,sans-Serif" font-size="9.00">Broadband Sensor</text>
<text xml:space="preserve" text-anchor="middle" x="60.5" y="-9.45" font-family="Helvetica,sans-Serif" font-size="9.00">10 RP</text>
</g>
</g>
</svg>
