<?xml version="1.0" encoding="UTF-8" standalone="no"?>
<!DOCTYPE svg PUBLIC "-//W3C//DTD SVG 1.1//EN"
 "http://www.w3.org/Graphics/SVG/1.1/DTD/svg11.dtd">
<!-- Generated by graphviz version 14.1.2 (20260124.0452)
 -->
<!-- Title: TechTree Pages: 1 -->
<svg width="188pt" height="782pt"
 viewBox="0.00 0.00 188.00 782.00" xmlns="http://www.w3.org/2000/svg" xmlns:xlink="http://www.w3.org/1999/xlink">
<g id="graph0" class="graph" transform="scale(1 1) rotate(0) translate(4 778)">
<title>TechTree</title>
<polygon fill="white" stroke="none" points="-4,4 -4,-778 183.5,-778 183.5,4 -4,4"/>
<text xml:space="preserve" text-anchor="middle" x="89.75" y="-756.7" font-family="Helvetica,sans-Serif" font-weight="bold" font-size="14.00">Shield Regeneration Rate</text>
<!-- Shield_Regeneration_Rate_1 -->
<g id="node1" class="node">
<title>Shield_Regeneration_Rate_1</title>
<path fill="#cce5ff" stroke="black" d="M145.75,-751C145.75,-751 33.75,-751 33.75,-751 27.75,-751 21.75,-745 21.75,-739 21.75,-739 21.75,-727 21.75,-727 21.75,-721 27.75,-715 33.75,-715 33.75,-715 145.75,-715 145.75,-715 151.75,-715 157.75,-721 157.75,-727 157.75,-727 157.75,-739 157.75,-739 157.75,-745 151.75,-751 145.75,-751"/>
<text xml:space="preserve" text-anchor="middle" x="89.75" y="-734.75" font-family="Helvetica,sans-Serif" font-size="10.00">Shield Regeneration Rate 1</text>
<text xml:space="preserve" text-anchor="middle" x="89.75" y="-723.5" font-family="Helvetica,sans-Serif" font-size="10.00">1K RP</text>
</g>
<!-- Shield_Regeneration_Rate_1_5 -->
<g id="node2" class="node">
<title>Shield_Regeneration_Rate_1_5</title>
<path fill="#cce5ff" stroke="black" d="M149.88,-686C149.88,-686 29.62,-686 29.62,-686 23.62,-686 17.62,-680 17.62,-674 17.62,-674 17.62,-662 17.62,-662 17.62,-656 23.62,-650 29.62,-650 29.62,-650 149.88,-650 149.88,-650 155.88,-650 161.88,-656 161.88,-662 161.88,-662 161.88,-674 161.88,-674 161.88,-680 155.88,-686 149.88,-686"/>
<text xml:space="preserve" text-anchor="middle" x="89.75" y="-669.75" font-family="Helvetica,sans-Serif" font-size="10.00">Shield Regeneration Rate 1.5</text>
<text xml:space="preserve" text-anchor="middle" x="89.75" y="-658.5" font-family="Helvetica,sans-Serif" font-size="10.00">2K RP</text>
</g>
<!-- Shield_Regeneration_Rate_1&#45;&gt;Shield_Regeneration_Rate_1_5 -->
<g id="edge1" class="edge">
<title>Shield_Regeneration_Rate_1&#45;&gt;Shield_Regeneration_Rate_1_5</title>
<path fill="none" stroke="black" d="M89.75,-714.78C89.75,-708.53 89.75,-701.33 89.75,-694.52"/>
<polygon fill="black" stroke="black" points="92.2,-694.71 89.75,-687.71 87.3,-694.71 92.2,-694.71"/>
</g>
<!-- Shield_Regeneration_Rate_2 -->
<g id="node3" class="node">
<title>Shield_Regeneration_Rate_2</title>
<path fill="#cce5ff" stroke="black" d="M145.75,-621C145.75,-621 33.75,-621 33.75,-621 27.75,-621 21.75,-615 21.75,-609 21.75,-609 21.75,-597 21.75,-597 21.75,-591 27.75,-585 33.75,-585 33.75,-585 145.75,-585 145.75,-585 151.75,-585 157.75,-591 157.75,-597 157.75,-597 157.75,-609 157.75,-609 157.75,-615 151.75,-621 145.75,-621"/>
<text xml:space="preserve" text-anchor="middle" x="89.75" y="-604.75" font-family="Helvetica,sans-Serif" font-size="10.00">Shield Regeneration Rate 2</text>
<text xml:space="preserve" text-anchor="middle" x="89.75" y="-593.5" font-family="Helvetica,sans-Serif" font-size="10.00">4K RP</text>
</g>
<!-- Shield_Regeneration_Rate_1_5&#45;&gt;Shield_Regeneration_Rate_2 -->
<g id="edge2" class="edge">
<title>Shield_Regeneration_Rate_1_5&#45;&gt;Shield_Regeneration_Rate_2</title>
<path fill="none" stroke="black" d="M89.75,-649.78C89.75,-643.53 89.75,-636.33 89.75,-629.52"/>
<polygon fill="black" stroke="black" points="92.2,-629.71 89.75,-622.71 87.3,-629.71 92.2,-629.71"/>
</g>
<!-- Shield_Regeneration_Rate_2_5 -->
<g id="node4" class="node">
<title>Shield_Regeneration_Rate_2_5</title>
<path fill="#cce5ff" stroke="black" d="M149.88,-556C149.88,-556 29.62,-556 29.62,-556 23.62,-556 17.62,-550 17.62,-544 17.62,-544 17.62,-532 17.62,-532 17.62,-526 23.62,-520 29.62,-520 29.62,-520 149.88,-520 149.88,-520 155.88,-520 161.88,-526 161.88,-532 161.88,-532 161.88,-544 161.88,-544 161.88,-550 155.88,-556 149.88,-556"/>
<text xml:space="preserve" text-anchor="middle" x="89.75" y="-539.75" font-family="Helvetica,sans-Serif" font-size="10.00">Shield Regeneration Rate 2.5</text>
<text xml:space="preserve" text-anchor="middle" x="89.75" y="-528.5" font-family="Helvetica,sans-Serif" font-size="10.00">8K RP</text>
</g>
<!-- Shield_Regeneration_Rate_2&#45;&gt;Shield_Regeneration_Rate_2_5 -->
<g id="edge3" class="edge">
<title>Shield_Regeneration_Rate_2&#45;&gt;Shield_Regeneration_Rate_2_5</title>
<path fill="none" stroke="black" d="M89.75,-584.78C89.75,-578.53 89.75,-571.33 89.75,-564.52"/>
<polygon fill="black" stroke="black" points="92.2,-564.71 89.75,-557.71 87.3,-564.71 92.2,-564.71"/>
</g>
<!-- Shield_Regeneration_Rate_3 -->
<g id="node5" class="node">
<title>Shield_Regeneration_Rate_3</title>
<path fill="#fff3cd" stroke="black" d="M145.75,-491C145.75,-491 33.75,-491 33.75,-491 27.75,-491 21.75,-485 21.75,-479 21.75,-479 21.75,-467 21.75,-467 21.75,-461 27.75,-455 33.75,-455 33.75,-455 145.75,-455 145.75,-455 151.75,-455 157.75,-461 157.75,-467 157.75,-467 157.75,-479 157.75,-479 157.75,-485 151.75,-491 145.75,-491"/>
<text xml:space="preserve" text-anchor="middle" x="89.75" y="-474.75" font-family="Helvetica,sans-Serif" font-size="10.00">Shield Regeneration Rate 3</text>
<text xml:space="preserve" text-anchor="middle" x="89.75" y="-463.5" font-family="Helvetica,sans-Serif" font-size="10.00">15K RP</text>
</g>
<!-- Shield_Regeneration_Rate_2_5&#45;&gt;Shield_Regeneration_Rate_3 -->
<g id="edge4" class="edge">
<title>Shield_Regeneration_Rate_2_5&#45;&gt;Shield_Regeneration_Rate_3</title>
<path fill="none" stroke="black" d="M89.75,-519.78C89.75,-513.53 89.75,-506.33 89.75,-499.52"/>
<polygon fill="black" stroke="black" points="92.2,-499.71 89.75,-492.71 87.3,-499.71 92.2,-499.71"/>
</g>
<!-- Shield_Regeneration_Rate_4 -->
<g id="node6" class="node">
<title>Shield_Regeneration_Rate_4</title>
<path fill="#fff3cd" stroke="black" d="M145.75,-426C145.75,-426 33.75,-426 33.75,-426 27.75,-426 21.75,-420 21.75,-414 21.75,-414 21.75,-402 21.75,-402 21.75,-396 27.75,-390 33.75,-390 33.75,-390 145.75,-390 145.75,-390 151.75,-390 157.75,-396 157.75,-402 157.75,-402 157.75,-414 157.75,-414 157.75,-420 151.75,-426 145.75,-426"/>
<text xml:space="preserve" text-anchor="middle" x="89.75" y="-409.75" font-family="Helvetica,sans-Serif" font-size="10.00">Shield Regeneration Rate 4</text>
<text xml:space="preserve" text-anchor="middle" x="89.75" y="-398.5" font-family="Helvetica,sans-Serif" font-size="10.00">30K RP</text>
</g>
<!-- Shield_Regeneration_Rate_3&#45;&gt;Shield_Regeneration_Rate_4 -->
<g id="edge5" class="edge">
<title>Shield_Regeneration_Rate_3&#45;&gt;Shield_Regeneration_Rate_4</title>
<path fill="none" stroke="black" d="M89.75,-454.78C89.75,-448.53 89.75,-441.33 89.75,-434.52"/>
<polygon fill="black" stroke="black" points="92.2,-434.71 89.75,-427.71 87.3,-434.71 92.2,-434.71"/>
</g>
<!-- Shield_Regeneration_Rate_5 -->
<g id="node7" class="node">
<title>Shield_Regeneration_Rate_5</title>
<path fill="#fff3cd" stroke="black" d="M145.75,-361C145.75,-361 33.75,-361 33.75,-361 27.75,-361 21.75,-355 21.75,-349 21.75,-349 21.75,-337 21.75,-337 21.75,-331 27.75,-325 33.75,-325 33.75,-325 145.75,-325 145.75,-325 151.75,-325 157.75,-331 157.75,-337 157.75,-337 157.75,-349 157.75,-349 157.75,-355 151.75,-361 145.75,-361"/>
<text xml:space="preserve" text-anchor="middle" x="89.75" y="-344.75" font-family="Helvetica,sans-Serif" font-size="10.00">Shield Regeneration Rate 5</text>
<text xml:space="preserve" text-anchor="middle" x="89.75" y="-333.5" font-family="Helvetica,sans-Serif" font-size="10.00">60K RP</text>
</g>
<!-- Shield_Regeneration_Rate_4&#45;&gt;Shield_Regeneration_Rate_5 -->
<g id="edge6" class="edge">
<title>Shield_Regeneration_Rate_4&#45;&gt;Shield_Regeneration_Rate_5</title>
<path fill="none" stroke="black" d="M89.75,-389.78C89.75,-383.53 89.75,-376.33 89.75,-369.52"/>
<polygon fill="black" stroke="black" points="92.2,-369.71 89.75,-362.71 87.3,-369.71 92.2,-369.71"/>
</g>
<!-- Shield_Regeneration_Rate_6 -->
<g id="node8" class="node">
<title>Shield_Regeneration_Rate_6</title>
<path fill="#d4c4fb" stroke="black" d="M145.75,-296C145.75,-296 33.75,-296 33.75,-296 27.75,-296 21.75,-290 21.75,-284 21.75,-284 21.75,-272 21.75,-272 21.75,-266 27.75,-260 33.75,-260 33.75,-260 145.75,-260 145.75,-260 151.75,-260 157.75,-266 157.75,-272 157.75,-272 157.75,-284 157.75,-284 157.75,-290 151.75,-296 145.75,-296"/>
<text xml:space="preserve" text-anchor="middle" x="89.75" y="-279.75" font-family="Helvetica,sans-Serif" font-size="10.00">Shield Regeneration Rate 6</text>
<text xml:space="preserve" text-anchor="middle" x="89.75" y="-268.5" font-family="Helvetica,sans-Serif" font-size="10.00">125K RP</text>
</g>
<!-- Shield_Regeneration_Rate_5&#45;&gt;Shield_Regeneration_Rate_6 -->
<g id="edge7" class="edge">
<title>Shield_Regeneration_Rate_5&#45;&gt;Shield_Regeneration_Rate_6</title>
<path fill="none" stroke="black" d="M89.75,-324.78C89.75,-318.53 89.75,-311.33 89.75,-304.52"/>
<polygon fill="black" stroke="black" points="92.2,-304.71 89.75,-297.71 87.3,-304.71 92.2,-304.71"/>
</g>
<!-- Shield_Regeneration_Rate_8 -->
<g id="node9" class="node">
<title>Shield_Regeneration_Rate_8</title>
<path fill="#d4c4fb" stroke="black" d="M145.75,-231C145.75,-231 33.75,-231 33.75,-231 27.75,-231 21.75,-225 21.75,-219 21.75,-219 21.75,-207 21.75,-207 21.75,-201 27.75,-195 33.75,-195 33.75,-195 145.75,-195 145.75,-195 151.75,-195 157.75,-201 157.75,-207 157.75,-207 157.75,-219 157.75,-219 157.75,-225 151.75,-231 145.75,-231"/>
<text xml:space="preserve" text-anchor="middle" x="89.75" y="-214.75" font-family="Helvetica,sans-Serif" font-size="10.00">Shield Regeneration Rate 8</text>
<text xml:space="preserve" text-anchor="middle" x="89.75" y="-203.5" font-family="Helvetica,sans-Serif" font-size="10.00">250K RP</text>
</g>
<!-- Shield_Regeneration_Rate_6&#45;&gt;Shield_Regeneration_Rate_8 -->
<g id="edge8" class="edge">
<title>Shield_Regeneration_Rate_6&#45;&gt;Shield_Regeneration_Rate_8</title>
<path fill="none" stroke="black" d="M89.75,-259.78C89.75,-253.53 89.75,-246.33 89.75,-239.52"/>
<polygon fill="black" stroke="black" points="92.2,-239.71 89.75,-232.71 87.3,-239.71 92.2,-239.71"/>
</g>
<!-- Shield_Regeneration_Rate_10 -->
<g id="node10" class="node">
<title>Shield_Regeneration_Rate_10</title>
<path fill="#d4c4fb" stroke="black" d="M148.38,-166C148.38,-166 31.12,-166 31.12,-166 25.12,-166 19.12,-160 19.12,-154 19.12,-154 19.12,-142 19.12,-142 19.12,-136 25.12,-130 31.12,-130 31.12,-130 148.38,-130 148.38,-130 154.38,-130 160.38,-136 160.38,-142 160.38,-142 160.38,-154 160.38,-154 160.38,-160 154.38,-166 148.38,-166"/>
<text xml:space="preserve" text-anchor="middle" x="89.75" y="-149.75" font-family="Helvetica,sans-Serif" font-size="10.00">Shield Regeneration Rate 10</text>
<text xml:space="preserve" text-anchor="middle" x="89.75" y="-138.5" font-family="Helvetica,sans-Serif" font-size="10.00">500K RP</text>
</g>
<!-- Shield_Regeneration_Rate_8&#45;&gt;Shield_Regeneration_Rate_10 -->
<g id="edge9" class="edge">
<title>Shield_Regeneration_Rate_8&#45;&gt;Shield_Regeneration_Rate_10</title>
<path fill="none" stroke="black" d="M89.75,-194.78C89.75,-188.53 89.75,-181.33 89.75,-174.52"/>
<polygon fill="black" stroke="black" points="92.2,-174.71 89.75,-167.71 87.3,-174.71 92.2,-174.71"/>
</g>
<!-- Shield_Regeneration_Rate_12 -->
<g id="node11" class="node">
<title>Shield_Regeneration_Rate_12</title>
<path fill="#d4c4fb" stroke="black" d="M148.38,-101C148.38,-101 31.12,-101 31.12,-101 25.12,-101 19.12,-95 19.12,-89 19.12,-89 19.12,-77 19.12,-77 19.12,-71 25.12,-65 31.12,-65 31.12,-65 148.38,-65 148.38,-65 154.38,-65 160.38,-71 160.38,-77 160.38,-77 160.38,-89 160.38,-89 160.38,-95 154.38,-101 148.38,-101"/>
<text xml:space="preserve" text-anchor="middle" x="89.75" y="-84.75" font-family="Helvetica,sans-Serif" font-size="10.00">Shield Regeneration Rate 12</text>
<text xml:space="preserve" text-anchor="middle" x="89.75" y="-73.5" font-family="Helvetica,sans-Serif" font-size="10.00">1.0M RP</text>
</g>
<!-- Shield_Regeneration_Rate_10&#45;&gt;Shield_Regeneration_Rate_12 -->
<g id="edge10" class="edge">
<title>Shield_Regeneration_Rate_10&#45;&gt;Shield_Regeneration_Rate_12</title>
<path fill="none" stroke="black" d="M89.75,-129.78C89.75,-123.53 89.75,-116.33 89.75,-109.52"/>
<polygon fill="black" stroke="black" points="92.2,-109.71 89.75,-102.71 87.3,-109.71 92.2,-109.71"/>
</g>
<!-- Shield_Regeneration_Rate_15 -->
<g id="node12" class="node">
<title>Shield_Regeneration_Rate_15</title>
<path fill="#f8d7da" stroke="black" d="M148.38,-36C148.38,-36 31.12,-36 31.12,-36 25.12,-36 19.12,-30 19.12,-24 19.12,-24 19.12,-12 19.12,-12 19.12,-6 25.12,0 31.12,0 31.12,0 148.38,0 148.38,0 154.38,0 160.38,-6 160.38,-12 160.38,-12 160.38,-24 160.38,-24 160.38,-30 154.38,-36 148.38,-36"/>
<text xml:space="preserve" text-anchor="middle" x="89.75" y="-19.75" font-family="Helvetica,sans-Serif" font-size="10.00">Shield Regeneration Rate 15</text>
<text xml:space="preserve" text-anchor="middle" x="89.75" y="-8.5" font-family="Helvetica,sans-Serif" font-size="10.00">2.0M RP</text>
</g>
<!-- Shield_Regeneration_Rate_12&#45;&gt;Shield_Regeneration_Rate_15 -->
<g id="edge11" class="edge">
<title>Shield_Regeneration_Rate_12&#45;&gt;Shield_Regeneration_Rate_15</title>
<path fill="none" stroke="black" d="M89.75,-64.78C89.75,-58.53 89.75,-51.33 89.75,-44.52"/>
<polygon fill="black" stroke="black" points="92.2,-44.71 89.75,-37.71 87.3,-44.71 92.2,-44.71"/>
</g>
</g>
</svg>
