<?xml version="1.0" encoding="UTF-8" standalone="no"?>
<!DOCTYPE svg PUBLIC "-//W3C//DTD SVG 1.1//EN"
 "http://www.w3.org/Graphics/SVG/1.1/DTD/svg11.dtd">
<!-- Generated by graphviz version 14.1.2 (20260124.0452)
 -->
<!-- Title: TechTree Pages: 1 -->
<svg width="144pt" height="929pt"
 viewBox="0.00 0.00 144.00 929.00" xmlns="http://www.w3.org/2000/svg" xmlns:xlink="http://www.w3.org/1999/xlink">
<g id="graph0" class="graph" transform="scale(1 1) rotate(0) translate(4 924.75)">
<title>TechTree</title>
<polygon fill="white" stroke="none" points="-4,4 -4,-924.75 140,-924.75 140,4 -4,4"/>
<text xml:space="preserve" text-anchor="middle" x="68" y="-905.35" font-family="Helvetica,sans-Serif" font-weight="bold" font-size="12.00">Shield Type</text>
<!-- Alpha_Shields -->
<g id="node1" class="node">
<title>Alpha_Shields</title>
<path fill="#cce5ff" stroke="black" d="M92.5,-828C92.5,-828 43.5,-828 43.5,-828 37.5,-828 31.5,-822 31.5,-816 31.5,-816 31.5,-804 31.5,-804 31.5,-798 37.5,-792 43.5,-792 43.5,-792 92.5,-792 92.5,-792 98.5,-792 104.5,-798 104.5,-804 104.5,-804 104.5,-816 104.5,-816 104.5,-822 98.5,-828 92.5,-828"/>
<text xml:space="preserve" text-anchor="middle" x="68" y="-811.2" font-family="Helvetica,sans-Serif" font-size="9.00">Alpha Shields</text>
<text xml:space="preserve" text-anchor="middle" x="68" y="-801.45" font-family="Helvetica,sans-Serif" font-size="9.00">1K RP</text>
</g>
<!-- Beta_Shields -->
<g id="node2" class="node">
<title>Beta_Shields</title>
<path fill="#cce5ff" stroke="black" d="M89.88,-756C89.88,-756 46.12,-756 46.12,-756 40.12,-756 34.12,-750 34.12,-744 34.12,-744 34.12,-732 34.12,-732 34.12,-726 40.12,-720 46.12,-720 46.12,-720 89.88,-720 89.88,-720 95.88,-720 101.88,-726 101.88,-732 101.88,-732 101.88,-744 101.88,-744 101.88,-750 95.88,-756 89.88,-756"/>
<text xml:space="preserve" text-anchor="middle" x="68" y="-739.2" font-family="Helvetica,sans-Serif" font-size="9.00">Beta Shields</text>
<text xml:space="preserve" text-anchor="middle" x="68" y="-729.45" font-family="Helvetica,sans-Serif" font-size="9.00">2K RP</text>
</g>
<!-- Alpha_Shields&#45;&gt;Beta_Shields -->
<g id="edge2" class="edge">
<title>Alpha_Shields&#45;&gt;Beta_Shields</title>
<path fill="none" stroke="black" d="M68,-791.7C68,-783.22 68,-772.86 68,-763.58"/>
<polygon fill="black" stroke="black" points="70.1,-763.62 68,-757.62 65.9,-763.62 70.1,-763.62"/>
</g>
<!-- Gamma_Shields -->
<g id="node3" class="node">
<title>Gamma_Shields</title>
<path fill="#cce5ff" stroke="black" d="M96.62,-684C96.62,-684 39.38,-684 39.38,-684 33.38,-684 27.38,-678 27.38,-672 27.38,-672 27.38,-660 27.38,-660 27.38,-654 33.38,-648 39.38,-648 39.38,-648 96.62,-648 96.62,-648 102.62,-648 108.62,-654 108.62,-660 108.62,-660 108.62,-672 108.62,-672 108.62,-678 102.62,-684 96.62,-684"/>
<text xml:space="preserve" text-anchor="middle" x="68" y="-667.2" font-family="Helvetica,sans-Serif" font-size="9.00">Gamma Shields</text>
<text xml:space="preserve" text-anchor="middle" x="68" y="-657.45" font-family="Helvetica,sans-Serif" font-size="9.00">4K RP</text>
</g>
<!-- Beta_Shields&#45;&gt;Gamma_Shields -->
<g id="edge3" class="edge">
<title>Beta_Shields&#45;&gt;Gamma_Shields</title>
<path fill="none" stroke="black" d="M68,-719.7C68,-711.22 68,-700.86 68,-691.58"/>
<polygon fill="black" stroke="black" points="70.1,-691.62 68,-685.62 65.9,-691.62 70.1,-691.62"/>
</g>
<!-- Delta_Shields -->
<g id="node4" class="node">
<title>Delta_Shields</title>
<path fill="#cce5ff" stroke="black" d="M91.38,-612C91.38,-612 44.62,-612 44.62,-612 38.62,-612 32.62,-606 32.62,-600 32.62,-600 32.62,-588 32.62,-588 32.62,-582 38.62,-576 44.62,-576 44.62,-576 91.38,-576 91.38,-576 97.38,-576 103.38,-582 103.38,-588 103.38,-588 103.38,-600 103.38,-600 103.38,-606 97.38,-612 91.38,-612"/>
<text xml:space="preserve" text-anchor="middle" x="68" y="-595.2" font-family="Helvetica,sans-Serif" font-size="9.00">Delta Shields</text>
<text xml:space="preserve" text-anchor="middle" x="68" y="-585.45" font-family="Helvetica,sans-Serif" font-size="9.00">8K RP</text>
</g>
<!-- Gamma_Shields&#45;&gt;Delta_Shields -->
<g id="edge4" class="edge">
<title>Gamma_Shields&#45;&gt;Delta_Shields</title>
<path fill="none" stroke="black" d="M68,-647.7C68,-639.22 68,-628.86 68,-619.58"/>
<polygon fill="black" stroke="black" points="70.1,-619.62 68,-613.62 65.9,-619.62 70.1,-619.62"/>
</g>
<!-- Epsilon_Shields -->
<g id="node5" class="node">
<title>Epsilon_Shields</title>
<path fill="#fff3cd" stroke="black" d="M95.88,-540C95.88,-540 40.12,-540 40.12,-540 34.12,-540 28.12,-534 28.12,-528 28.12,-528 28.12,-516 28.12,-516 28.12,-510 34.12,-504 40.12,-504 40.12,-504 95.88,-504 95.88,-504 101.88,-504 107.88,-510 107.88,-516 107.88,-516 107.88,-528 107.88,-528 107.88,-534 101.88,-540 95.88,-540"/>
<text xml:space="preserve" text-anchor="middle" x="68" y="-523.2" font-family="Helvetica,sans-Serif" font-size="9.00">Epsilon Shields</text>
<text xml:space="preserve" text-anchor="middle" x="68" y="-513.45" font-family="Helvetica,sans-Serif" font-size="9.00">15K RP</text>
</g>
<!-- Delta_Shields&#45;&gt;Epsilon_Shields -->
<g id="edge5" class="edge">
<title>Delta_Shields&#45;&gt;Epsilon_Shields</title>
<path fill="none" stroke="black" d="M68,-575.7C68,-567.22 68,-556.86 68,-547.58"/>
<polygon fill="black" stroke="black" points="70.1,-547.62 68,-541.62 65.9,-547.62 70.1,-547.62"/>
</g>
<!-- Theta_Shields -->
<g id="node6" class="node">
<title>Theta_Shields</title>
<path fill="#fff3cd" stroke="black" d="M92.12,-468C92.12,-468 43.88,-468 43.88,-468 37.87,-468 31.88,-462 31.88,-456 31.88,-456 31.88,-444 31.88,-444 31.88,-438 37.88,-432 43.88,-432 43.88,-432 92.12,-432 92.12,-432 98.12,-432 104.12,-438 104.12,-444 104.12,-444 104.12,-456 104.12,-456 104.12,-462 98.12,-468 92.12,-468"/>
<text xml:space="preserve" text-anchor="middle" x="68" y="-451.2" font-family="Helvetica,sans-Serif" font-size="9.00">Theta Shields</text>
<text xml:space="preserve" text-anchor="middle" x="68" y="-441.45" font-family="Helvetica,sans-Serif" font-size="9.00">30K RP</text>
</g>
<!-- Epsilon_Shields&#45;&gt;Theta_Shields -->
<g id="edge6" class="edge">
<title>Epsilon_Shields&#45;&gt;Theta_Shields</title>
<path fill="none" stroke="black" d="M68,-503.7C68,-495.22 68,-484.86 68,-475.58"/>
<polygon fill="black" stroke="black" points="70.1,-475.62 68,-469.62 65.9,-475.62 70.1,-475.62"/>
</g>
<!-- Xi_Shields -->
<g id="node7" class="node">
<title>Xi_Shields</title>
<path fill="#fff3cd" stroke="black" d="M84.62,-396C84.62,-396 51.38,-396 51.38,-396 45.38,-396 39.38,-390 39.38,-384 39.38,-384 39.38,-372 39.38,-372 39.38,-366 45.38,-360 51.38,-360 51.38,-360 84.62,-360 84.62,-360 90.62,-360 96.62,-366 96.62,-372 96.62,-372 96.62,-384 96.62,-384 96.62,-390 90.62,-396 84.62,-396"/>
<text xml:space="preserve" text-anchor="middle" x="68" y="-379.2" font-family="Helvetica,sans-Serif" font-size="9.00">Xi Shields</text>
<text xml:space="preserve" text-anchor="middle" x="68" y="-369.45" font-family="Helvetica,sans-Serif" font-size="9.00">60K RP</text>
</g>
<!-- Theta_Shields&#45;&gt;Xi_Shields -->
<g id="edge7" class="edge">
<title>Theta_Shields&#45;&gt;Xi_Shields</title>
<path fill="none" stroke="black" d="M68,-431.7C68,-423.22 68,-412.86 68,-403.58"/>
<polygon fill="black" stroke="black" points="70.1,-403.62 68,-397.62 65.9,-403.62 70.1,-403.62"/>
</g>
<!-- Omicron_Shields -->
<g id="node8" class="node">
<title>Omicron_Shields</title>
<path fill="#d4c4fb" stroke="black" d="M97.75,-324C97.75,-324 38.25,-324 38.25,-324 32.25,-324 26.25,-318 26.25,-312 26.25,-312 26.25,-300 26.25,-300 26.25,-294 32.25,-288 38.25,-288 38.25,-288 97.75,-288 97.75,-288 103.75,-288 109.75,-294 109.75,-300 109.75,-300 109.75,-312 109.75,-312 109.75,-318 103.75,-324 97.75,-324"/>
<text xml:space="preserve" text-anchor="middle" x="68" y="-307.2" font-family="Helvetica,sans-Serif" font-size="9.00">Omicron Shields</text>
<text xml:space="preserve" text-anchor="middle" x="68" y="-297.45" font-family="Helvetica,sans-Serif" font-size="9.00">120K RP</text>
</g>
<!-- Xi_Shields&#45;&gt;Omicron_Shields -->
<g id="edge8" class="edge">
<title>Xi_Shields&#45;&gt;Omicron_Shields</title>
<path fill="none" stroke="black" d="M68,-359.7C68,-351.22 68,-340.86 68,-331.58"/>
<polygon fill="black" stroke="black" points="70.1,-331.62 68,-325.62 65.9,-331.62 70.1,-331.62"/>
</g>
<!-- Sigma_Shields -->
<g id="node9" class="node">
<title>Sigma_Shields</title>
<path fill="#d4c4fb" stroke="black" d="M93.62,-252C93.62,-252 42.37,-252 42.37,-252 36.38,-252 30.38,-246 30.38,-240 30.38,-240 30.38,-228 30.38,-228 30.38,-222 36.38,-216 42.38,-216 42.38,-216 93.62,-216 93.62,-216 99.62,-216 105.62,-222 105.62,-228 105.62,-228 105.62,-240 105.62,-240 105.62,-246 99.62,-252 93.62,-252"/>
<text xml:space="preserve" text-anchor="middle" x="68" y="-235.2" font-family="Helvetica,sans-Serif" font-size="9.00">Sigma Shields</text>
<text xml:space="preserve" text-anchor="middle" x="68" y="-225.45" font-family="Helvetica,sans-Serif" font-size="9.00">250K RP</text>
</g>
<!-- Omicron_Shields&#45;&gt;Sigma_Shields -->
<g id="edge9" class="edge">
<title>Omicron_Shields&#45;&gt;Sigma_Shields</title>
<path fill="none" stroke="black" d="M68,-287.7C68,-279.22 68,-268.86 68,-259.58"/>
<polygon fill="black" stroke="black" points="70.1,-259.62 68,-253.62 65.9,-259.62 70.1,-259.62"/>
</g>
<!-- Tau_Shields -->
<g id="node10" class="node">
<title>Tau_Shields</title>
<path fill="#d4c4fb" stroke="black" d="M88,-180C88,-180 48,-180 48,-180 42,-180 36,-174 36,-168 36,-168 36,-156 36,-156 36,-150 42,-144 48,-144 48,-144 88,-144 88,-144 94,-144 100,-150 100,-156 100,-156 100,-168 100,-168 100,-174 94,-180 88,-180"/>
<text xml:space="preserve" text-anchor="middle" x="68" y="-163.2" font-family="Helvetica,sans-Serif" font-size="9.00">Tau Shields</text>
<text xml:space="preserve" text-anchor="middle" x="68" y="-153.45" font-family="Helvetica,sans-Serif" font-size="9.00">500K RP</text>
</g>
<!-- Sigma_Shields&#45;&gt;Tau_Shields -->
<g id="edge10" class="edge">
<title>Sigma_Shields&#45;&gt;Tau_Shields</title>
<path fill="none" stroke="black" d="M68,-215.7C68,-207.22 68,-196.86 68,-187.58"/>
<polygon fill="black" stroke="black" points="70.1,-187.62 68,-181.62 65.9,-187.62 70.1,-187.62"/>
</g>
<!-- Psi_Shields -->
<g id="node11" class="node">
<title>Psi_Shields</title>
<path fill="#d4c4fb" stroke="black" d="M86.88,-108C86.88,-108 49.12,-108 49.12,-108 43.12,-108 37.12,-102 37.12,-96 37.12,-96 37.12,-84 37.12,-84 37.12,-78 43.12,-72 49.12,-72 49.12,-72 86.88,-72 86.88,-72 92.88,-72 98.88,-78 98.88,-84 98.88,-84 98.88,-96 98.88,-96 98.88,-102 92.88,-108 86.88,-108"/>
<text xml:space="preserve" text-anchor="middle" x="68" y="-91.2" font-family="Helvetica,sans-Serif" font-size="9.00">Psi Shields</text>
<text xml:space="preserve" text-anchor="middle" x="68" y="-81.45" font-family="Helvetica,sans-Serif" font-size="9.00">1.0M RP</text>
</g>
<!-- Tau_Shields&#45;&gt;Psi_Shields -->
<g id="edge11" class="edge">
<title>Tau_Shields&#45;&gt;Psi_Shields</title>
<path fill="none" stroke="black" d="M68,-143.7C68,-135.22 68,-124.86 68,-115.58"/>
<polygon fill="black" stroke="black" points="70.1,-115.62 68,-109.62 65.9,-115.62 70.1,-115.62"/>
</g>
<!-- Omega_Shields -->
<g id="node12" class="node">
<title>Omega_Shields</title>
<path fill="#f8d7da" stroke="black" d="M95.5,-36C95.5,-36 40.5,-36 40.5,-36 34.5,-36 28.5,-30 28.5,-24 28.5,-24 28.5,-12 28.5,-12 28.5,-6 34.5,0 40.5,0 40.5,0 95.5,0 95.5,0 101.5,0 107.5,-6 107.5,-12 107.5,-12 107.5,-24 107.5,-24 107.5,-30 101.5,-36 95.5,-36"/>
<text xml:space="preserve" text-anchor="middle" x="68" y="-19.2" font-family="Helvetica,sans-Serif" font-size="9.00">Omega Shields</text>
<text xml:space="preserve" text-anchor="middle" x="68" y="-9.45" font-family="Helvetica,sans-Serif" font-size="9.00">2.0M RP</text>
</g>
<!-- Psi_Shields&#45;&gt;Omega_Shields -->
<g id="edge12" class="edge">
<title>Psi_Shields&#45;&gt;Omega_Shields</title>
<path fill="none" stroke="black" d="M68,-71.7C68,-63.22 68,-52.86 68,-43.58"/>
<polygon fill="black" stroke="black" points="70.1,-43.62 68,-37.62 65.9,-43.62 70.1,-43.62"/>
</g>
<!-- ext_Trans_Newtonian_Technology -->
<g id="node13" class="node">
<title>ext_Trans_Newtonian_Technology</title>
<path fill="#f0f0f0" stroke="black" stroke-dasharray="5,2" d="M124,-900C124,-900 12,-900 12,-900 6,-900 0,-894 0,-888 0,-888 0,-876 0,-876 0,-870 6,-864 12,-864 12,-864 124,-864 124,-864 130,-864 136,-870 136,-876 136,-876 136,-888 136,-888 136,-894 130,-900 124,-900"/>
<text xml:space="preserve" text-anchor="middle" x="68" y="-878.33" font-family="Helvetica,sans-Serif" font-size="9.00">Trans&#45;Newtonian Technology</text>
</g>
<!-- ext_Trans_Newtonian_Technology&#45;&gt;Alpha_Shields -->
<g id="edge1" class="edge">
<title>ext_Trans_Newtonian_Technology&#45;&gt;Alpha_Shields</title>
<path fill="none" stroke="black" d="M68,-863.7C68,-855.22 68,-844.86 68,-835.58"/>
<polygon fill="black" stroke="black" points="70.1,-835.62 68,-829.62 65.9,-835.62 70.1,-835.62"/>
</g>
</g>
</svg>
