<?xml version="1.0" encoding="UTF-8" standalone="no"?>
<!DOCTYPE svg PUBLIC "-//W3C//DTD SVG 1.1//EN"
 "http://www.w3.org/Graphics/SVG/1.1/DTD/svg11.dtd">
<!-- Generated by graphviz version 14.1.2 (20260124.0452)
 -->
<!-- Title: TechTree Pages: 1 -->
<svg width="100pt" height="782pt"
 viewBox="0.00 0.00 100.00 782.00" xmlns="http://www.w3.org/2000/svg" xmlns:xlink="http://www.w3.org/1999/xlink">
<g id="graph0" class="graph" transform="scale(1 1) rotate(0) translate(4 778)">
<title>TechTree</title>
<polygon fill="white" stroke="none" points="-4,4 -4,-778 95.75,-778 95.75,4 -4,4"/>
<text xml:space="preserve" text-anchor="middle" x="45.88" y="-756.7" font-family="Helvetica,sans-Serif" font-weight="bold" font-size="14.00">Shield Type</text>
<!-- Alpha_Shields -->
<g id="node1" class="node">
<title>Alpha_Shields</title>
<path fill="#cce5ff" stroke="black" d="M71.88,-751C71.88,-751 19.88,-751 19.88,-751 13.88,-751 7.88,-745 7.88,-739 7.88,-739 7.88,-727 7.88,-727 7.88,-721 13.88,-715 19.88,-715 19.88,-715 71.88,-715 71.88,-715 77.88,-715 83.88,-721 83.88,-727 83.88,-727 83.88,-739 83.88,-739 83.88,-745 77.88,-751 71.88,-751"/>
<text xml:space="preserve" text-anchor="middle" x="45.88" y="-734.75" font-family="Helvetica,sans-Serif" font-size="10.00">Alpha Shields</text>
<text xml:space="preserve" text-anchor="middle" x="45.88" y="-723.5" font-family="Helvetica,sans-Serif" font-size="10.00">1K RP</text>
</g>
<!-- Beta_Shields -->
<g id="node2" class="node">
<title>Beta_Shields</title>
<path fill="#cce5ff" stroke="black" d="M69.62,-686C69.62,-686 22.12,-686 22.12,-686 16.13,-686 10.12,-680 10.12,-674 10.12,-674 10.12,-662 10.12,-662 10.12,-656 16.12,-650 22.12,-650 22.12,-650 69.62,-650 69.62,-650 75.62,-650 81.62,-656 81.62,-662 81.62,-662 81.62,-674 81.62,-674 81.62,-680 75.62,-686 69.62,-686"/>
<text xml:space="preserve" text-anchor="middle" x="45.88" y="-669.75" font-family="Helvetica,sans-Serif" font-size="10.00">Beta Shields</text>
<text xml:space="preserve" text-anchor="middle" x="45.88" y="-658.5" font-family="Helvetica,sans-Serif" font-size="10.00">2K RP</text>
</g>
<!-- Alpha_Shields&#45;&gt;Beta_Shields -->
<g id="edge1" class="edge">
<title>Alpha_Shields&#45;&gt;Beta_Shields</title>
<path fill="none" stroke="black" d="M45.88,-714.78C45.88,-708.53 45.88,-701.33 45.88,-694.52"/>
<polygon fill="black" stroke="black" points="48.33,-694.71 45.88,-687.71 43.43,-694.71 48.33,-694.71"/>
</g>
<!-- Gamma_Shields -->
<g id="node3" class="node">
<title>Gamma_Shields</title>
<path fill="#cce5ff" stroke="black" d="M76.75,-621C76.75,-621 15,-621 15,-621 9,-621 3,-615 3,-609 3,-609 3,-597 3,-597 3,-591 9,-585 15,-585 15,-585 76.75,-585 76.75,-585 82.75,-585 88.75,-591 88.75,-597 88.75,-597 88.75,-609 88.75,-609 88.75,-615 82.75,-621 76.75,-621"/>
<text xml:space="preserve" text-anchor="middle" x="45.88" y="-604.75" font-family="Helvetica,sans-Serif" font-size="10.00">Gamma Shields</text>
<text xml:space="preserve" text-anchor="middle" x="45.88" y="-593.5" font-family="Helvetica,sans-Serif" font-size="10.00">4K RP</text>
</g>
<!-- Beta_Shields&#45;&gt;Gamma_Shields -->
<g id="edge2" class="edge">
<title>Beta_Shields&#45;&gt;Gamma_Shields</title>
<path fill="none" stroke="black" d="M45.88,-649.78C45.88,-643.53 45.88,-636.33 45.88,-629.52"/>
<polygon fill="black" stroke="black" points="48.33,-629.71 45.88,-622.71 43.43,-629.71 48.33,-629.71"/>
</g>
<!-- Delta_Shields -->
<g id="node4" class="node">
<title>Delta_Shields</title>
<path fill="#cce5ff" stroke="black" d="M71.12,-556C71.12,-556 20.62,-556 20.62,-556 14.62,-556 8.62,-550 8.62,-544 8.62,-544 8.62,-532 8.62,-532 8.62,-526 14.62,-520 20.62,-520 20.62,-520 71.12,-520 71.12,-520 77.12,-520 83.12,-526 83.12,-532 83.12,-532 83.12,-544 83.12,-544 83.12,-550 77.12,-556 71.12,-556"/>
<text xml:space="preserve" text-anchor="middle" x="45.88" y="-539.75" font-family="Helvetica,sans-Serif" font-size="10.00">Delta Shields</text>
<text xml:space="preserve" text-anchor="middle" x="45.88" y="-528.5" font-family="Helvetica,sans-Serif" font-size="10.00">8K RP</text>
</g>
<!-- Gamma_Shields&#45;&gt;Delta_Shields -->
<g id="edge3" class="edge">
<title>Gamma_Shields&#45;&gt;Delta_Shields</title>
<path fill="none" stroke="black" d="M45.88,-584.78C45.88,-578.53 45.88,-571.33 45.88,-564.52"/>
<polygon fill="black" stroke="black" points="48.33,-564.71 45.88,-557.71 43.43,-564.71 48.33,-564.71"/>
</g>
<!-- Epsilon_Shields -->
<g id="node5" class="node">
<title>Epsilon_Shields</title>
<path fill="#fff3cd" stroke="black" d="M75.62,-491C75.62,-491 16.13,-491 16.13,-491 10.13,-491 4.12,-485 4.12,-479 4.12,-479 4.12,-467 4.12,-467 4.12,-461 10.12,-455 16.12,-455 16.12,-455 75.62,-455 75.62,-455 81.62,-455 87.62,-461 87.62,-467 87.62,-467 87.62,-479 87.62,-479 87.62,-485 81.62,-491 75.62,-491"/>
<text xml:space="preserve" text-anchor="middle" x="45.88" y="-474.75" font-family="Helvetica,sans-Serif" font-size="10.00">Epsilon Shields</text>
<text xml:space="preserve" text-anchor="middle" x="45.88" y="-463.5" font-family="Helvetica,sans-Serif" font-size="10.00">15K RP</text>
</g>
<!-- Delta_Shields&#45;&gt;Epsilon_Shields -->
<g id="edge4" class="edge">
<title>Delta_Shields&#45;&gt;Epsilon_Shields</title>
<path fill="none" stroke="black" d="M45.88,-519.78C45.88,-513.53 45.88,-506.33 45.88,-499.52"/>
<polygon fill="black" stroke="black" points="48.33,-499.71 45.88,-492.71 43.43,-499.71 48.33,-499.71"/>
</g>
<!-- Theta_Shields -->
<g id="node6" class="node">
<title>Theta_Shields</title>
<path fill="#fff3cd" stroke="black" d="M71.88,-426C71.88,-426 19.88,-426 19.88,-426 13.88,-426 7.88,-420 7.88,-414 7.88,-414 7.88,-402 7.88,-402 7.88,-396 13.88,-390 19.88,-390 19.88,-390 71.88,-390 71.88,-390 77.88,-390 83.88,-396 83.88,-402 83.88,-402 83.88,-414 83.88,-414 83.88,-420 77.88,-426 71.88,-426"/>
<text xml:space="preserve" text-anchor="middle" x="45.88" y="-409.75" font-family="Helvetica,sans-Serif" font-size="10.00">Theta Shields</text>
<text xml:space="preserve" text-anchor="middle" x="45.88" y="-398.5" font-family="Helvetica,sans-Serif" font-size="10.00">30K RP</text>
</g>
<!-- Epsilon_Shields&#45;&gt;Theta_Shields -->
<g id="edge5" class="edge">
<title>Epsilon_Shields&#45;&gt;Theta_Shields</title>
<path fill="none" stroke="black" d="M45.88,-454.78C45.88,-448.53 45.88,-441.33 45.88,-434.52"/>
<polygon fill="black" stroke="black" points="48.33,-434.71 45.88,-427.71 43.43,-434.71 48.33,-434.71"/>
</g>
<!-- Xi_Shields -->
<g id="node7" class="node">
<title>Xi_Shields</title>
<path fill="#fff3cd" stroke="black" d="M64,-361C64,-361 27.75,-361 27.75,-361 21.75,-361 15.75,-355 15.75,-349 15.75,-349 15.75,-337 15.75,-337 15.75,-331 21.75,-325 27.75,-325 27.75,-325 64,-325 64,-325 70,-325 76,-331 76,-337 76,-337 76,-349 76,-349 76,-355 70,-361 64,-361"/>
<text xml:space="preserve" text-anchor="middle" x="45.88" y="-344.75" font-family="Helvetica,sans-Serif" font-size="10.00">Xi Shields</text>
<text xml:space="preserve" text-anchor="middle" x="45.88" y="-333.5" font-family="Helvetica,sans-Serif" font-size="10.00">60K RP</text>
</g>
<!-- Theta_Shields&#45;&gt;Xi_Shields -->
<g id="edge6" class="edge">
<title>Theta_Shields&#45;&gt;Xi_Shields</title>
<path fill="none" stroke="black" d="M45.88,-389.78C45.88,-383.53 45.88,-376.33 45.88,-369.52"/>
<polygon fill="black" stroke="black" points="48.33,-369.71 45.88,-362.71 43.43,-369.71 48.33,-369.71"/>
</g>
<!-- Omicron_Shields -->
<g id="node8" class="node">
<title>Omicron_Shields</title>
<path fill="#d4c4fb" stroke="black" d="M77.88,-296C77.88,-296 13.88,-296 13.88,-296 7.87,-296 1.88,-290 1.88,-284 1.88,-284 1.88,-272 1.88,-272 1.88,-266 7.88,-260 13.88,-260 13.88,-260 77.88,-260 77.88,-260 83.88,-260 89.88,-266 89.88,-272 89.88,-272 89.88,-284 89.88,-284 89.88,-290 83.88,-296 77.88,-296"/>
<text xml:space="preserve" text-anchor="middle" x="45.88" y="-279.75" font-family="Helvetica,sans-Serif" font-size="10.00">Omicron Shields</text>
<text xml:space="preserve" text-anchor="middle" x="45.88" y="-268.5" font-family="Helvetica,sans-Serif" font-size="10.00">120K RP</text>
</g>
<!-- Xi_Shields&#45;&gt;Omicron_Shields -->
<g id="edge7" class="edge">
<title>Xi_Shields&#45;&gt;Omicron_Shields</title>
<path fill="none" stroke="black" d="M45.88,-324.78C45.88,-318.53 45.88,-311.33 45.88,-304.52"/>
<polygon fill="black" stroke="black" points="48.33,-304.71 45.88,-297.71 43.43,-304.71 48.33,-304.71"/>
</g>
<!-- Sigma_Shields -->
<g id="node9" class="node">
<title>Sigma_Shields</title>
<path fill="#d4c4fb" stroke="black" d="M73.38,-231C73.38,-231 18.38,-231 18.38,-231 12.37,-231 6.38,-225 6.38,-219 6.38,-219 6.38,-207 6.38,-207 6.38,-201 12.38,-195 18.38,-195 18.38,-195 73.38,-195 73.38,-195 79.38,-195 85.38,-201 85.38,-207 85.38,-207 85.38,-219 85.38,-219 85.38,-225 79.38,-231 73.38,-231"/>
<text xml:space="preserve" text-anchor="middle" x="45.88" y="-214.75" font-family="Helvetica,sans-Serif" font-size="10.00">Sigma Shields</text>
<text xml:space="preserve" text-anchor="middle" x="45.88" y="-203.5" font-family="Helvetica,sans-Serif" font-size="10.00">250K RP</text>
</g>
<!-- Omicron_Shields&#45;&gt;Sigma_Shields -->
<g id="edge8" class="edge">
<title>Omicron_Shields&#45;&gt;Sigma_Shields</title>
<path fill="none" stroke="black" d="M45.88,-259.78C45.88,-253.53 45.88,-246.33 45.88,-239.52"/>
<polygon fill="black" stroke="black" points="48.33,-239.71 45.88,-232.71 43.43,-239.71 48.33,-239.71"/>
</g>
<!-- Tau_Shields -->
<g id="node10" class="node">
<title>Tau_Shields</title>
<path fill="#d4c4fb" stroke="black" d="M67.38,-166C67.38,-166 24.37,-166 24.37,-166 18.38,-166 12.38,-160 12.38,-154 12.38,-154 12.38,-142 12.38,-142 12.38,-136 18.38,-130 24.38,-130 24.38,-130 67.38,-130 67.38,-130 73.38,-130 79.38,-136 79.38,-142 79.38,-142 79.38,-154 79.38,-154 79.38,-160 73.38,-166 67.38,-166"/>
<text xml:space="preserve" text-anchor="middle" x="45.88" y="-149.75" font-family="Helvetica,sans-Serif" font-size="10.00">Tau Shields</text>
<text xml:space="preserve" text-anchor="middle" x="45.88" y="-138.5" font-family="Helvetica,sans-Serif" font-size="10.00">500K RP</text>
</g>
<!-- Sigma_Shields&#45;&gt;Tau_Shields -->
<g id="edge9" class="edge">
<title>Sigma_Shields&#45;&gt;Tau_Shields</title>
<path fill="none" stroke="black" d="M45.88,-194.78C45.88,-188.53 45.88,-181.33 45.88,-174.52"/>
<polygon fill="black" stroke="black" points="48.33,-174.71 45.88,-167.71 43.43,-174.71 48.33,-174.71"/>
</g>
<!-- Psi_Shields -->
<g id="node11" class="node">
<title>Psi_Shields</title>
<path fill="#d4c4fb" stroke="black" d="M66.62,-101C66.62,-101 25.12,-101 25.12,-101 19.13,-101 13.12,-95 13.12,-89 13.12,-89 13.12,-77 13.12,-77 13.12,-71 19.12,-65 25.12,-65 25.12,-65 66.62,-65 66.62,-65 72.62,-65 78.62,-71 78.62,-77 78.62,-77 78.62,-89 78.62,-89 78.62,-95 72.62,-101 66.62,-101"/>
<text xml:space="preserve" text-anchor="middle" x="45.88" y="-84.75" font-family="Helvetica,sans-Serif" font-size="10.00">Psi Shields</text>
<text xml:space="preserve" text-anchor="middle" x="45.88" y="-73.5" font-family="Helvetica,sans-Serif" font-size="10.00">1.0M RP</text>
</g>
<!-- Tau_Shields&#45;&gt;Psi_Shields -->
<g id="edge10" class="edge">
<title>Tau_Shields&#45;&gt;Psi_Shields</title>
<path fill="none" stroke="black" d="M45.88,-129.78C45.88,-123.53 45.88,-116.33 45.88,-109.52"/>
<polygon fill="black" stroke="black" points="48.33,-109.71 45.88,-102.71 43.43,-109.71 48.33,-109.71"/>
</g>
<!-- Omega_Shields -->
<g id="node12" class="node">
<title>Omega_Shields</title>
<path fill="#f8d7da" stroke="black" d="M75.25,-36C75.25,-36 16.5,-36 16.5,-36 10.5,-36 4.5,-30 4.5,-24 4.5,-24 4.5,-12 4.5,-12 4.5,-6 10.5,0 16.5,0 16.5,0 75.25,0 75.25,0 81.25,0 87.25,-6 87.25,-12 87.25,-12 87.25,-24 87.25,-24 87.25,-30 81.25,-36 75.25,-36"/>
<text xml:space="preserve" text-anchor="middle" x="45.88" y="-19.75" font-family="Helvetica,sans-Serif" font-size="10.00">Omega Shields</text>
<text xml:space="preserve" text-anchor="middle" x="45.88" y="-8.5" font-family="Helvetica,sans-Serif" font-size="10.00">2.0M RP</text>
</g>
<!-- Psi_Shields&#45;&gt;Omega_Shields -->
<g id="edge11" class="edge">
<title>Psi_Shields&#45;&gt;Omega_Shields</title>
<path fill="none" stroke="black" d="M45.88,-64.78C45.88,-58.53 45.88,-51.33 45.88,-44.52"/>
<polygon fill="black" stroke="black" points="48.33,-44.71 45.88,-37.71 43.43,-44.71 48.33,-44.71"/>
</g>
</g>
</svg>
