<?xml version="1.0" encoding="UTF-8" standalone="no"?>
<!DOCTYPE svg PUBLIC "-//W3C//DTD SVG 1.1//EN"
 "http://www.w3.org/Graphics/SVG/1.1/DTD/svg11.dtd">
<!-- Generated by graphviz version 14.1.2 (20260124.0452)
 -->
<!-- Title: TechTree Pages: 1 -->
<svg width="170pt" height="65pt"
 viewBox="0.00 0.00 170.00 65.00" xmlns="http://www.w3.org/2000/svg" xmlns:xlink="http://www.w3.org/1999/xlink">
<g id="graph0" class="graph" transform="scale(1 1) rotate(0) translate(4 60.75)">
<title>TechTree</title>
<polygon fill="white" stroke="none" points="-4,4 -4,-60.75 165.88,-60.75 165.88,4 -4,4"/>
<text xml:space="preserve" text-anchor="middle" x="80.94" y="-41.35" font-family="Helvetica,sans-Serif" font-weight="bold" font-size="12.00">Ship Type Limitations</text>
<!-- No_Restrictions -->
<g id="node1" class="node">
<title>No_Restrictions</title>
<path fill="#d4edda" stroke="black" d="M66.25,-36C66.25,-36 12,-36 12,-36 6,-36 0,-30 0,-24 0,-24 0,-12 0,-12 0,-6 6,0 12,0 12,0 66.25,0 66.25,0 72.25,0 78.25,-6 78.25,-12 78.25,-12 78.25,-24 78.25,-24 78.25,-30 72.25,-36 66.25,-36"/>
<text xml:space="preserve" text-anchor="middle" x="39.12" y="-19.2" font-family="Helvetica,sans-Serif" font-size="9.00">No Restrictions</text>
<text xml:space="preserve" text-anchor="middle" x="39.12" y="-9.45" font-family="Helvetica,sans-Serif" font-size="9.00">1 RP</text>
</g>
<!-- Fighter_Only -->
<g id="node2" class="node">
<title>Fighter_Only</title>
<path fill="#d4edda" stroke="black" d="M149.88,-36C149.88,-36 108.38,-36 108.38,-36 102.38,-36 96.38,-30 96.38,-24 96.38,-24 96.38,-12 96.38,-12 96.38,-6 102.38,0 108.38,0 108.38,0 149.88,0 149.88,0 155.88,0 161.88,-6 161.88,-12 161.88,-12 161.88,-24 161.88,-24 161.88,-30 155.88,-36 149.88,-36"/>
<text xml:space="preserve" text-anchor="middle" x="129.12" y="-19.2" font-family="Helvetica,sans-Serif" font-size="9.00">Fighter Only</text>
<text xml:space="preserve" text-anchor="middle" x="129.12" y="-9.45" font-family="Helvetica,sans-Serif" font-size="9.00">2 RP</text>
</g>
</g>
</svg>
