<?xml version="1.0" encoding="UTF-8" standalone="no"?>
<!DOCTYPE svg PUBLIC "-//W3C//DTD SVG 1.1//EN"
 "http://www.w3.org/Graphics/SVG/1.1/DTD/svg11.dtd">
<!-- Generated by graphviz version 14.1.2 (20260124.0452)
 -->
<!-- Title: TechTree Pages: 1 -->
<svg width="165pt" height="125pt"
 viewBox="0.00 0.00 165.00 125.00" xmlns="http://www.w3.org/2000/svg" xmlns:xlink="http://www.w3.org/1999/xlink">
<g id="graph0" class="graph" transform="scale(1 1) rotate(0) translate(4 121)">
<title>TechTree</title>
<polygon fill="white" stroke="none" points="-4,4 -4,-121 161,-121 161,4 -4,4"/>
<text xml:space="preserve" text-anchor="middle" x="78.5" y="-99.7" font-family="Helvetica,sans-Serif" font-weight="bold" font-size="14.00">Ship Type Limitations</text>
<!-- No_Restrictions -->
<g id="node1" class="node">
<title>No_Restrictions</title>
<path fill="#d4edda" stroke="black" d="M108.62,-36C108.62,-36 48.38,-36 48.38,-36 42.38,-36 36.38,-30 36.38,-24 36.38,-24 36.38,-12 36.38,-12 36.38,-6 42.38,0 48.38,0 48.38,0 108.62,0 108.62,0 114.62,0 120.62,-6 120.62,-12 120.62,-12 120.62,-24 120.62,-24 120.62,-30 114.62,-36 108.62,-36"/>
<text xml:space="preserve" text-anchor="middle" x="78.5" y="-19.75" font-family="Helvetica,sans-Serif" font-size="10.00">No Restrictions</text>
<text xml:space="preserve" text-anchor="middle" x="78.5" y="-8.5" font-family="Helvetica,sans-Serif" font-size="10.00">1 RP</text>
</g>
<!-- Fighter_Only -->
<g id="node2" class="node">
<title>Fighter_Only</title>
<path fill="#d4edda" stroke="black" d="M101.12,-94C101.12,-94 55.88,-94 55.88,-94 49.88,-94 43.88,-88 43.88,-82 43.88,-82 43.88,-70 43.88,-70 43.88,-64 49.88,-58 55.88,-58 55.88,-58 101.12,-58 101.12,-58 107.12,-58 113.12,-64 113.12,-70 113.12,-70 113.12,-82 113.12,-82 113.12,-88 107.12,-94 101.12,-94"/>
<text xml:space="preserve" text-anchor="middle" x="78.5" y="-77.75" font-family="Helvetica,sans-Serif" font-size="10.00">Fighter Only</text>
<text xml:space="preserve" text-anchor="middle" x="78.5" y="-66.5" font-family="Helvetica,sans-Serif" font-size="10.00">2 RP</text>
</g>
</g>
</svg>
