<?xml version="1.0" encoding="UTF-8" standalone="no"?>
<!DOCTYPE svg PUBLIC "-//W3C//DTD SVG 1.1//EN"
 "http://www.w3.org/Graphics/SVG/1.1/DTD/svg11.dtd">
<!-- Generated by graphviz version 14.1.2 (20260124.0452)
 -->
<!-- Title: TechTree Pages: 1 -->
<svg width="294pt" height="497pt"
 viewBox="0.00 0.00 294.00 497.00" xmlns="http://www.w3.org/2000/svg" xmlns:xlink="http://www.w3.org/1999/xlink">
<g id="graph0" class="graph" transform="scale(1 1) rotate(0) translate(4 492.75)">
<title>TechTree</title>
<polygon fill="white" stroke="none" points="-4,4 -4,-492.75 290.12,-492.75 290.12,4 -4,4"/>
<text xml:space="preserve" text-anchor="middle" x="143.06" y="-473.35" font-family="Helvetica,sans-Serif" font-weight="bold" font-size="12.00">Shipyard Operations</text>
<!-- Normal_Shipyard_Operations -->
<g id="node1" class="node">
<title>Normal_Shipyard_Operations</title>
<path fill="#d4edda" stroke="black" d="M120.25,-468C120.25,-468 12,-468 12,-468 6,-468 0,-462 0,-456 0,-456 0,-444 0,-444 0,-438 6,-432 12,-432 12,-432 120.25,-432 120.25,-432 126.25,-432 132.25,-438 132.25,-444 132.25,-444 132.25,-456 132.25,-456 132.25,-462 126.25,-468 120.25,-468"/>
<text xml:space="preserve" text-anchor="middle" x="66.12" y="-451.2" font-family="Helvetica,sans-Serif" font-size="9.00">Normal Shipyard Operations</text>
<text xml:space="preserve" text-anchor="middle" x="66.12" y="-441.45" font-family="Helvetica,sans-Serif" font-size="9.00">1 RP</text>
</g>
<!-- Shipyard_Operations__5__Time_C -->
<g id="node2" class="node">
<title>Shipyard_Operations__5__Time_C</title>
<path fill="#cce5ff" stroke="black" d="M225.88,-396C225.88,-396 58.37,-396 58.37,-396 52.38,-396 46.38,-390 46.38,-384 46.38,-384 46.38,-372 46.38,-372 46.38,-366 52.38,-360 58.38,-360 58.38,-360 225.88,-360 225.88,-360 231.88,-360 237.88,-366 237.88,-372 237.88,-372 237.88,-384 237.88,-384 237.88,-390 231.88,-396 225.88,-396"/>
<text xml:space="preserve" text-anchor="middle" x="142.12" y="-379.2" font-family="Helvetica,sans-Serif" font-size="9.00">Shipyard Operations: 5% Time/Cost Saving</text>
<text xml:space="preserve" text-anchor="middle" x="142.12" y="-369.45" font-family="Helvetica,sans-Serif" font-size="9.00">2K RP</text>
</g>
<!-- Normal_Shipyard_Operations&#45;&gt;Shipyard_Operations__5__Time_C -->
<g id="edge1" class="edge">
<title>Normal_Shipyard_Operations&#45;&gt;Shipyard_Operations__5__Time_C</title>
<path fill="none" stroke="black" d="M84.91,-431.7C94.87,-422.53 107.21,-411.16 117.88,-401.33"/>
<polygon fill="black" stroke="black" points="119.19,-402.98 122.18,-397.37 116.34,-399.89 119.19,-402.98"/>
</g>
<!-- Shipyard_Operations__10__Time_ -->
<g id="node3" class="node">
<title>Shipyard_Operations__10__Time_</title>
<path fill="#cce5ff" stroke="black" d="M228.5,-324C228.5,-324 55.75,-324 55.75,-324 49.75,-324 43.75,-318 43.75,-312 43.75,-312 43.75,-300 43.75,-300 43.75,-294 49.75,-288 55.75,-288 55.75,-288 228.5,-288 228.5,-288 234.5,-288 240.5,-294 240.5,-300 240.5,-300 240.5,-312 240.5,-312 240.5,-318 234.5,-324 228.5,-324"/>
<text xml:space="preserve" text-anchor="middle" x="142.12" y="-307.2" font-family="Helvetica,sans-Serif" font-size="9.00">Shipyard Operations: 10% Time/Cost Saving</text>
<text xml:space="preserve" text-anchor="middle" x="142.12" y="-297.45" font-family="Helvetica,sans-Serif" font-size="9.00">5K RP</text>
</g>
<!-- Shipyard_Operations__5__Time_C&#45;&gt;Shipyard_Operations__10__Time_ -->
<g id="edge3" class="edge">
<title>Shipyard_Operations__5__Time_C&#45;&gt;Shipyard_Operations__10__Time_</title>
<path fill="none" stroke="black" d="M142.12,-359.7C142.12,-351.22 142.12,-340.86 142.12,-331.58"/>
<polygon fill="black" stroke="black" points="144.23,-331.62 142.13,-325.62 140.03,-331.62 144.23,-331.62"/>
</g>
<!-- Shipyard_Operations__20__Time_ -->
<g id="node4" class="node">
<title>Shipyard_Operations__20__Time_</title>
<path fill="#cce5ff" stroke="black" d="M228.5,-252C228.5,-252 55.75,-252 55.75,-252 49.75,-252 43.75,-246 43.75,-240 43.75,-240 43.75,-228 43.75,-228 43.75,-222 49.75,-216 55.75,-216 55.75,-216 228.5,-216 228.5,-216 234.5,-216 240.5,-222 240.5,-228 240.5,-228 240.5,-240 240.5,-240 240.5,-246 234.5,-252 228.5,-252"/>
<text xml:space="preserve" text-anchor="middle" x="142.12" y="-235.2" font-family="Helvetica,sans-Serif" font-size="9.00">Shipyard Operations: 20% Time/Cost Saving</text>
<text xml:space="preserve" text-anchor="middle" x="142.12" y="-225.45" font-family="Helvetica,sans-Serif" font-size="9.00">10K RP</text>
</g>
<!-- Shipyard_Operations__10__Time_&#45;&gt;Shipyard_Operations__20__Time_ -->
<g id="edge4" class="edge">
<title>Shipyard_Operations__10__Time_&#45;&gt;Shipyard_Operations__20__Time_</title>
<path fill="none" stroke="black" d="M142.12,-287.7C142.12,-279.22 142.12,-268.86 142.12,-259.58"/>
<polygon fill="black" stroke="black" points="144.23,-259.62 142.13,-253.62 140.03,-259.62 144.23,-259.62"/>
</g>
<!-- Shipyard_Operations__30__Time_ -->
<g id="node5" class="node">
<title>Shipyard_Operations__30__Time_</title>
<path fill="#fff3cd" stroke="black" d="M228.5,-180C228.5,-180 55.75,-180 55.75,-180 49.75,-180 43.75,-174 43.75,-168 43.75,-168 43.75,-156 43.75,-156 43.75,-150 49.75,-144 55.75,-144 55.75,-144 228.5,-144 228.5,-144 234.5,-144 240.5,-150 240.5,-156 240.5,-156 240.5,-168 240.5,-168 240.5,-174 234.5,-180 228.5,-180"/>
<text xml:space="preserve" text-anchor="middle" x="142.12" y="-163.2" font-family="Helvetica,sans-Serif" font-size="9.00">Shipyard Operations: 30% Time/Cost Saving</text>
<text xml:space="preserve" text-anchor="middle" x="142.12" y="-153.45" font-family="Helvetica,sans-Serif" font-size="9.00">20K RP</text>
</g>
<!-- Shipyard_Operations__20__Time_&#45;&gt;Shipyard_Operations__30__Time_ -->
<g id="edge5" class="edge">
<title>Shipyard_Operations__20__Time_&#45;&gt;Shipyard_Operations__30__Time_</title>
<path fill="none" stroke="black" d="M142.12,-215.7C142.12,-207.22 142.12,-196.86 142.12,-187.58"/>
<polygon fill="black" stroke="black" points="144.23,-187.62 142.13,-181.62 140.03,-187.62 144.23,-187.62"/>
</g>
<!-- Shipyard_Operations__40__Time_ -->
<g id="node6" class="node">
<title>Shipyard_Operations__40__Time_</title>
<path fill="#fff3cd" stroke="black" d="M228.5,-108C228.5,-108 55.75,-108 55.75,-108 49.75,-108 43.75,-102 43.75,-96 43.75,-96 43.75,-84 43.75,-84 43.75,-78 49.75,-72 55.75,-72 55.75,-72 228.5,-72 228.5,-72 234.5,-72 240.5,-78 240.5,-84 240.5,-84 240.5,-96 240.5,-96 240.5,-102 234.5,-108 228.5,-108"/>
<text xml:space="preserve" text-anchor="middle" x="142.12" y="-91.2" font-family="Helvetica,sans-Serif" font-size="9.00">Shipyard Operations: 40% Time/Cost Saving</text>
<text xml:space="preserve" text-anchor="middle" x="142.12" y="-81.45" font-family="Helvetica,sans-Serif" font-size="9.00">40K RP</text>
</g>
<!-- Shipyard_Operations__30__Time_&#45;&gt;Shipyard_Operations__40__Time_ -->
<g id="edge6" class="edge">
<title>Shipyard_Operations__30__Time_&#45;&gt;Shipyard_Operations__40__Time_</title>
<path fill="none" stroke="black" d="M142.12,-143.7C142.12,-135.22 142.12,-124.86 142.12,-115.58"/>
<polygon fill="black" stroke="black" points="144.23,-115.62 142.13,-109.62 140.03,-115.62 144.23,-115.62"/>
</g>
<!-- Shipyard_Operations__50__Time_ -->
<g id="node7" class="node">
<title>Shipyard_Operations__50__Time_</title>
<path fill="#fff3cd" stroke="black" d="M228.5,-36C228.5,-36 55.75,-36 55.75,-36 49.75,-36 43.75,-30 43.75,-24 43.75,-24 43.75,-12 43.75,-12 43.75,-6 49.75,0 55.75,0 55.75,0 228.5,0 228.5,0 234.5,0 240.5,-6 240.5,-12 240.5,-12 240.5,-24 240.5,-24 240.5,-30 234.5,-36 228.5,-36"/>
<text xml:space="preserve" text-anchor="middle" x="142.12" y="-19.2" font-family="Helvetica,sans-Serif" font-size="9.00">Shipyard Operations: 50% Time/Cost Saving</text>
<text xml:space="preserve" text-anchor="middle" x="142.12" y="-9.45" font-family="Helvetica,sans-Serif" font-size="9.00">75K RP</text>
</g>
<!-- Shipyard_Operations__40__Time_&#45;&gt;Shipyard_Operations__50__Time_ -->
<g id="edge7" class="edge">
<title>Shipyard_Operations__40__Time_&#45;&gt;Shipyard_Operations__50__Time_</title>
<path fill="none" stroke="black" d="M142.12,-71.7C142.12,-63.22 142.12,-52.86 142.12,-43.58"/>
<polygon fill="black" stroke="black" points="144.23,-43.62 142.13,-37.62 140.03,-43.62 144.23,-43.62"/>
</g>
<!-- ext_Trans_Newtonian_Technology -->
<g id="node8" class="node">
<title>ext_Trans_Newtonian_Technology</title>
<path fill="#f0f0f0" stroke="black" stroke-dasharray="5,2" d="M274.12,-468C274.12,-468 162.12,-468 162.12,-468 156.12,-468 150.12,-462 150.12,-456 150.12,-456 150.12,-444 150.12,-444 150.12,-438 156.12,-432 162.12,-432 162.12,-432 274.12,-432 274.12,-432 280.12,-432 286.12,-438 286.12,-444 286.12,-444 286.12,-456 286.12,-456 286.12,-462 280.12,-468 274.12,-468"/>
<text xml:space="preserve" text-anchor="middle" x="218.12" y="-446.32" font-family="Helvetica,sans-Serif" font-size="9.00">Trans&#45;Newtonian Technology</text>
</g>
<!-- ext_Trans_Newtonian_Technology&#45;&gt;Shipyard_Operations__5__Time_C -->
<g id="edge2" class="edge">
<title>ext_Trans_Newtonian_Technology&#45;&gt;Shipyard_Operations__5__Time_C</title>
<path fill="none" stroke="black" d="M199.34,-431.7C189.38,-422.53 177.04,-411.16 166.37,-401.33"/>
<polygon fill="black" stroke="black" points="167.91,-399.89 162.07,-397.37 165.06,-402.98 167.91,-399.89"/>
</g>
</g>
</svg>
