<?xml version="1.0" encoding="UTF-8" standalone="no"?>
<!DOCTYPE svg PUBLIC "-//W3C//DTD SVG 1.1//EN"
 "http://www.w3.org/Graphics/SVG/1.1/DTD/svg11.dtd">
<!-- Generated by graphviz version 14.1.2 (20260124.0452)
 -->
<!-- Title: TechTree Pages: 1 -->
<svg width="220pt" height="457pt"
 viewBox="0.00 0.00 220.00 457.00" xmlns="http://www.w3.org/2000/svg" xmlns:xlink="http://www.w3.org/1999/xlink">
<g id="graph0" class="graph" transform="scale(1 1) rotate(0) translate(4 453)">
<title>TechTree</title>
<polygon fill="white" stroke="none" points="-4,4 -4,-453 215.75,-453 215.75,4 -4,4"/>
<text xml:space="preserve" text-anchor="middle" x="105.88" y="-431.7" font-family="Helvetica,sans-Serif" font-weight="bold" font-size="14.00">Shipyard Operations</text>
<!-- Normal_Shipyard_Operations -->
<g id="node1" class="node">
<title>Normal_Shipyard_Operations</title>
<path fill="#d4edda" stroke="black" d="M163.38,-426C163.38,-426 48.38,-426 48.38,-426 42.37,-426 36.38,-420 36.38,-414 36.38,-414 36.38,-402 36.38,-402 36.38,-396 42.38,-390 48.38,-390 48.38,-390 163.38,-390 163.38,-390 169.38,-390 175.38,-396 175.38,-402 175.38,-402 175.38,-414 175.38,-414 175.38,-420 169.38,-426 163.38,-426"/>
<text xml:space="preserve" text-anchor="middle" x="105.88" y="-409.75" font-family="Helvetica,sans-Serif" font-size="10.00">Normal Shipyard Operations</text>
<text xml:space="preserve" text-anchor="middle" x="105.88" y="-398.5" font-family="Helvetica,sans-Serif" font-size="10.00">1 RP</text>
</g>
<!-- Shipyard_Operations__5__Time_C -->
<g id="node2" class="node">
<title>Shipyard_Operations__5__Time_C</title>
<path fill="#cce5ff" stroke="black" d="M197.12,-361C197.12,-361 14.63,-361 14.63,-361 8.62,-361 2.62,-355 2.62,-349 2.62,-349 2.62,-337 2.62,-337 2.62,-331 8.62,-325 14.62,-325 14.62,-325 197.12,-325 197.12,-325 203.12,-325 209.12,-331 209.12,-337 209.12,-337 209.12,-349 209.12,-349 209.12,-355 203.12,-361 197.12,-361"/>
<text xml:space="preserve" text-anchor="middle" x="105.88" y="-344.75" font-family="Helvetica,sans-Serif" font-size="10.00">Shipyard Operations: 5% Time/Cost Saving</text>
<text xml:space="preserve" text-anchor="middle" x="105.88" y="-333.5" font-family="Helvetica,sans-Serif" font-size="10.00">2K RP</text>
</g>
<!-- Normal_Shipyard_Operations&#45;&gt;Shipyard_Operations__5__Time_C -->
<g id="edge1" class="edge">
<title>Normal_Shipyard_Operations&#45;&gt;Shipyard_Operations__5__Time_C</title>
<path fill="none" stroke="black" d="M105.88,-389.78C105.88,-383.53 105.88,-376.33 105.88,-369.52"/>
<polygon fill="black" stroke="black" points="108.33,-369.71 105.88,-362.71 103.43,-369.71 108.33,-369.71"/>
</g>
<!-- Shipyard_Operations__10__Time_ -->
<g id="node3" class="node">
<title>Shipyard_Operations__10__Time_</title>
<path fill="#cce5ff" stroke="black" d="M199.75,-296C199.75,-296 12,-296 12,-296 6,-296 0,-290 0,-284 0,-284 0,-272 0,-272 0,-266 6,-260 12,-260 12,-260 199.75,-260 199.75,-260 205.75,-260 211.75,-266 211.75,-272 211.75,-272 211.75,-284 211.75,-284 211.75,-290 205.75,-296 199.75,-296"/>
<text xml:space="preserve" text-anchor="middle" x="105.88" y="-279.75" font-family="Helvetica,sans-Serif" font-size="10.00">Shipyard Operations: 10% Time/Cost Saving</text>
<text xml:space="preserve" text-anchor="middle" x="105.88" y="-268.5" font-family="Helvetica,sans-Serif" font-size="10.00">5K RP</text>
</g>
<!-- Shipyard_Operations__5__Time_C&#45;&gt;Shipyard_Operations__10__Time_ -->
<g id="edge2" class="edge">
<title>Shipyard_Operations__5__Time_C&#45;&gt;Shipyard_Operations__10__Time_</title>
<path fill="none" stroke="black" d="M105.88,-324.78C105.88,-318.53 105.88,-311.33 105.88,-304.52"/>
<polygon fill="black" stroke="black" points="108.33,-304.71 105.88,-297.71 103.43,-304.71 108.33,-304.71"/>
</g>
<!-- Shipyard_Operations__20__Time_ -->
<g id="node4" class="node">
<title>Shipyard_Operations__20__Time_</title>
<path fill="#cce5ff" stroke="black" d="M199.75,-231C199.75,-231 12,-231 12,-231 6,-231 0,-225 0,-219 0,-219 0,-207 0,-207 0,-201 6,-195 12,-195 12,-195 199.75,-195 199.75,-195 205.75,-195 211.75,-201 211.75,-207 211.75,-207 211.75,-219 211.75,-219 211.75,-225 205.75,-231 199.75,-231"/>
<text xml:space="preserve" text-anchor="middle" x="105.88" y="-214.75" font-family="Helvetica,sans-Serif" font-size="10.00">Shipyard Operations: 20% Time/Cost Saving</text>
<text xml:space="preserve" text-anchor="middle" x="105.88" y="-203.5" font-family="Helvetica,sans-Serif" font-size="10.00">10K RP</text>
</g>
<!-- Shipyard_Operations__10__Time_&#45;&gt;Shipyard_Operations__20__Time_ -->
<g id="edge3" class="edge">
<title>Shipyard_Operations__10__Time_&#45;&gt;Shipyard_Operations__20__Time_</title>
<path fill="none" stroke="black" d="M105.88,-259.78C105.88,-253.53 105.88,-246.33 105.88,-239.52"/>
<polygon fill="black" stroke="black" points="108.33,-239.71 105.88,-232.71 103.43,-239.71 108.33,-239.71"/>
</g>
<!-- Shipyard_Operations__30__Time_ -->
<g id="node5" class="node">
<title>Shipyard_Operations__30__Time_</title>
<path fill="#fff3cd" stroke="black" d="M199.75,-166C199.75,-166 12,-166 12,-166 6,-166 0,-160 0,-154 0,-154 0,-142 0,-142 0,-136 6,-130 12,-130 12,-130 199.75,-130 199.75,-130 205.75,-130 211.75,-136 211.75,-142 211.75,-142 211.75,-154 211.75,-154 211.75,-160 205.75,-166 199.75,-166"/>
<text xml:space="preserve" text-anchor="middle" x="105.88" y="-149.75" font-family="Helvetica,sans-Serif" font-size="10.00">Shipyard Operations: 30% Time/Cost Saving</text>
<text xml:space="preserve" text-anchor="middle" x="105.88" y="-138.5" font-family="Helvetica,sans-Serif" font-size="10.00">20K RP</text>
</g>
<!-- Shipyard_Operations__20__Time_&#45;&gt;Shipyard_Operations__30__Time_ -->
<g id="edge4" class="edge">
<title>Shipyard_Operations__20__Time_&#45;&gt;Shipyard_Operations__30__Time_</title>
<path fill="none" stroke="black" d="M105.88,-194.78C105.88,-188.53 105.88,-181.33 105.88,-174.52"/>
<polygon fill="black" stroke="black" points="108.33,-174.71 105.88,-167.71 103.43,-174.71 108.33,-174.71"/>
</g>
<!-- Shipyard_Operations__40__Time_ -->
<g id="node6" class="node">
<title>Shipyard_Operations__40__Time_</title>
<path fill="#fff3cd" stroke="black" d="M199.75,-101C199.75,-101 12,-101 12,-101 6,-101 0,-95 0,-89 0,-89 0,-77 0,-77 0,-71 6,-65 12,-65 12,-65 199.75,-65 199.75,-65 205.75,-65 211.75,-71 211.75,-77 211.75,-77 211.75,-89 211.75,-89 211.75,-95 205.75,-101 199.75,-101"/>
<text xml:space="preserve" text-anchor="middle" x="105.88" y="-84.75" font-family="Helvetica,sans-Serif" font-size="10.00">Shipyard Operations: 40% Time/Cost Saving</text>
<text xml:space="preserve" text-anchor="middle" x="105.88" y="-73.5" font-family="Helvetica,sans-Serif" font-size="10.00">40K RP</text>
</g>
<!-- Shipyard_Operations__30__Time_&#45;&gt;Shipyard_Operations__40__Time_ -->
<g id="edge5" class="edge">
<title>Shipyard_Operations__30__Time_&#45;&gt;Shipyard_Operations__40__Time_</title>
<path fill="none" stroke="black" d="M105.88,-129.78C105.88,-123.53 105.88,-116.33 105.88,-109.52"/>
<polygon fill="black" stroke="black" points="108.33,-109.71 105.88,-102.71 103.43,-109.71 108.33,-109.71"/>
</g>
<!-- Shipyard_Operations__50__Time_ -->
<g id="node7" class="node">
<title>Shipyard_Operations__50__Time_</title>
<path fill="#fff3cd" stroke="black" d="M199.75,-36C199.75,-36 12,-36 12,-36 6,-36 0,-30 0,-24 0,-24 0,-12 0,-12 0,-6 6,0 12,0 12,0 199.75,0 199.75,0 205.75,0 211.75,-6 211.75,-12 211.75,-12 211.75,-24 211.75,-24 211.75,-30 205.75,-36 199.75,-36"/>
<text xml:space="preserve" text-anchor="middle" x="105.88" y="-19.75" font-family="Helvetica,sans-Serif" font-size="10.00">Shipyard Operations: 50% Time/Cost Saving</text>
<text xml:space="preserve" text-anchor="middle" x="105.88" y="-8.5" font-family="Helvetica,sans-Serif" font-size="10.00">75K RP</text>
</g>
<!-- Shipyard_Operations__40__Time_&#45;&gt;Shipyard_Operations__50__Time_ -->
<g id="edge6" class="edge">
<title>Shipyard_Operations__40__Time_&#45;&gt;Shipyard_Operations__50__Time_</title>
<path fill="none" stroke="black" d="M105.88,-64.78C105.88,-58.53 105.88,-51.33 105.88,-44.52"/>
<polygon fill="black" stroke="black" points="108.33,-44.71 105.88,-37.71 103.43,-44.71 108.33,-44.71"/>
</g>
</g>
</svg>
