<?xml version="1.0" encoding="UTF-8" standalone="no"?>
<!DOCTYPE svg PUBLIC "-//W3C//DTD SVG 1.1//EN"
 "http://www.w3.org/Graphics/SVG/1.1/DTD/svg11.dtd">
<!-- Generated by graphviz version 14.1.2 (20260124.0452)
 -->
<!-- Title: TechTree Pages: 1 -->
<svg width="280pt" height="65pt"
 viewBox="0.00 0.00 280.00 65.00" xmlns="http://www.w3.org/2000/svg" xmlns:xlink="http://www.w3.org/1999/xlink">
<g id="graph0" class="graph" transform="scale(1 1) rotate(0) translate(4 60.75)">
<title>TechTree</title>
<polygon fill="white" stroke="none" points="-4,4 -4,-60.75 275.62,-60.75 275.62,4 -4,4"/>
<text xml:space="preserve" text-anchor="middle" x="135.81" y="-41.35" font-family="Helvetica,sans-Serif" font-weight="bold" font-size="12.00">Single Weapon Fire Control</text>
<!-- Multi_Weapon_Fire_Control -->
<g id="node1" class="node">
<title>Multi_Weapon_Fire_Control</title>
<path fill="#d4edda" stroke="black" d="M111.25,-36C111.25,-36 12,-36 12,-36 6,-36 0,-30 0,-24 0,-24 0,-12 0,-12 0,-6 6,0 12,0 12,0 111.25,0 111.25,0 117.25,0 123.25,-6 123.25,-12 123.25,-12 123.25,-24 123.25,-24 123.25,-30 117.25,-36 111.25,-36"/>
<text xml:space="preserve" text-anchor="middle" x="61.62" y="-19.2" font-family="Helvetica,sans-Serif" font-size="9.00">Multi&#45;Weapon Fire Control</text>
<text xml:space="preserve" text-anchor="middle" x="61.62" y="-9.45" font-family="Helvetica,sans-Serif" font-size="9.00">1 RP</text>
</g>
<!-- Single_Weapon_Fire_Control -->
<g id="node2" class="node">
<title>Single_Weapon_Fire_Control</title>
<path fill="#d4edda" stroke="black" d="M259.62,-36C259.62,-36 153.62,-36 153.62,-36 147.62,-36 141.62,-30 141.62,-24 141.62,-24 141.62,-12 141.62,-12 141.62,-6 147.62,0 153.62,0 153.62,0 259.62,0 259.62,0 265.62,0 271.62,-6 271.62,-12 271.62,-12 271.62,-24 271.62,-24 271.62,-30 265.62,-36 259.62,-36"/>
<text xml:space="preserve" text-anchor="middle" x="206.62" y="-19.2" font-family="Helvetica,sans-Serif" font-size="9.00">Single&#45;Weapon Fire Control</text>
<text xml:space="preserve" text-anchor="middle" x="206.62" y="-9.45" font-family="Helvetica,sans-Serif" font-size="9.00">2 RP</text>
</g>
</g>
</svg>
