<?xml version="1.0" encoding="UTF-8" standalone="no"?>
<!DOCTYPE svg PUBLIC "-//W3C//DTD SVG 1.1//EN"
 "http://www.w3.org/Graphics/SVG/1.1/DTD/svg11.dtd">
<!-- Generated by graphviz version 14.1.2 (20260124.0452)
 -->
<!-- Title: TechTree Pages: 1 -->
<svg width="201pt" height="125pt"
 viewBox="0.00 0.00 201.00 125.00" xmlns="http://www.w3.org/2000/svg" xmlns:xlink="http://www.w3.org/1999/xlink">
<g id="graph0" class="graph" transform="scale(1 1) rotate(0) translate(4 121)">
<title>TechTree</title>
<polygon fill="white" stroke="none" points="-4,4 -4,-121 197,-121 197,4 -4,4"/>
<text xml:space="preserve" text-anchor="middle" x="96.5" y="-99.7" font-family="Helvetica,sans-Serif" font-weight="bold" font-size="14.00">Single Weapon Fire Control</text>
<!-- Multi_Weapon_Fire_Control -->
<g id="node1" class="node">
<title>Multi_Weapon_Fire_Control</title>
<path fill="#d4edda" stroke="black" d="M149.12,-36C149.12,-36 43.87,-36 43.87,-36 37.88,-36 31.88,-30 31.88,-24 31.88,-24 31.88,-12 31.88,-12 31.88,-6 37.88,0 43.88,0 43.88,0 149.12,0 149.12,0 155.12,0 161.12,-6 161.12,-12 161.12,-12 161.12,-24 161.12,-24 161.12,-30 155.12,-36 149.12,-36"/>
<text xml:space="preserve" text-anchor="middle" x="96.5" y="-19.75" font-family="Helvetica,sans-Serif" font-size="10.00">Multi&#45;Weapon Fire Control</text>
<text xml:space="preserve" text-anchor="middle" x="96.5" y="-8.5" font-family="Helvetica,sans-Serif" font-size="10.00">1 RP</text>
</g>
<!-- Single_Weapon_Fire_Control -->
<g id="node2" class="node">
<title>Single_Weapon_Fire_Control</title>
<path fill="#d4edda" stroke="black" d="M152.12,-94C152.12,-94 40.88,-94 40.88,-94 34.88,-94 28.88,-88 28.88,-82 28.88,-82 28.88,-70 28.88,-70 28.88,-64 34.88,-58 40.88,-58 40.88,-58 152.12,-58 152.12,-58 158.12,-58 164.12,-64 164.12,-70 164.12,-70 164.12,-82 164.12,-82 164.12,-88 158.12,-94 152.12,-94"/>
<text xml:space="preserve" text-anchor="middle" x="96.5" y="-77.75" font-family="Helvetica,sans-Serif" font-size="10.00">Single&#45;Weapon Fire Control</text>
<text xml:space="preserve" text-anchor="middle" x="96.5" y="-66.5" font-family="Helvetica,sans-Serif" font-size="10.00">2 RP</text>
</g>
</g>
</svg>
