<?xml version="1.0" encoding="UTF-8" standalone="no"?>
<!DOCTYPE svg PUBLIC "-//W3C//DTD SVG 1.1//EN"
 "http://www.w3.org/Graphics/SVG/1.1/DTD/svg11.dtd">
<!-- Generated by graphviz version 14.1.2 (20260124.0452)
 -->
<!-- Title: TechTree Pages: 1 -->
<svg width="209pt" height="67pt"
 viewBox="0.00 0.00 209.00 67.00" xmlns="http://www.w3.org/2000/svg" xmlns:xlink="http://www.w3.org/1999/xlink">
<g id="graph0" class="graph" transform="scale(1 1) rotate(0) translate(4 63)">
<title>TechTree</title>
<polygon fill="white" stroke="none" points="-4,4 -4,-63 205.25,-63 205.25,4 -4,4"/>
<text xml:space="preserve" text-anchor="middle" x="100.62" y="-41.7" font-family="Helvetica,sans-Serif" font-weight="bold" font-size="14.00">Small Refuelling System</text>
<!-- Small_Craft_Refuelling_System_ -->
<g id="node1" class="node">
<title>Small_Craft_Refuelling_System_</title>
<path fill="#d4edda" stroke="black" d="M189.25,-36C189.25,-36 12,-36 12,-36 6,-36 0,-30 0,-24 0,-24 0,-12 0,-12 0,-6 6,0 12,0 12,0 189.25,0 189.25,0 195.25,0 201.25,-6 201.25,-12 201.25,-12 201.25,-24 201.25,-24 201.25,-30 195.25,-36 189.25,-36"/>
<text xml:space="preserve" text-anchor="middle" x="100.62" y="-19.75" font-family="Helvetica,sans-Serif" font-size="10.00">Small Craft Refuelling System: 5,000 LPH</text>
<text xml:space="preserve" text-anchor="middle" x="100.62" y="-8.5" font-family="Helvetica,sans-Serif" font-size="10.00">500 RP</text>
</g>
</g>
</svg>
