<?xml version="1.0" encoding="UTF-8" standalone="no"?>
<!DOCTYPE svg PUBLIC "-//W3C//DTD SVG 1.1//EN"
 "http://www.w3.org/Graphics/SVG/1.1/DTD/svg11.dtd">
<!-- Generated by graphviz version 14.1.2 (20260124.0452)
 -->
<!-- Title: TechTree Pages: 1 -->
<svg width="149pt" height="209pt"
 viewBox="0.00 0.00 149.00 209.00" xmlns="http://www.w3.org/2000/svg" xmlns:xlink="http://www.w3.org/1999/xlink">
<g id="graph0" class="graph" transform="scale(1 1) rotate(0) translate(4 204.75)">
<title>TechTree</title>
<polygon fill="white" stroke="none" points="-4,4 -4,-204.75 145.25,-204.75 145.25,4 -4,4"/>
<text xml:space="preserve" text-anchor="middle" x="70.62" y="-185.35" font-family="Helvetica,sans-Serif" font-weight="bold" font-size="12.00">Static Armour Type</text>
<!-- Medium_Static_Armour___ARM_2 -->
<g id="node1" class="node">
<title>Medium_Static_Armour___ARM_2</title>
<path fill="#d4edda" stroke="black" d="M129.25,-108C129.25,-108 12,-108 12,-108 6,-108 0,-102 0,-96 0,-96 0,-84 0,-84 0,-78 6,-72 12,-72 12,-72 129.25,-72 129.25,-72 135.25,-72 141.25,-78 141.25,-84 141.25,-84 141.25,-96 141.25,-96 141.25,-102 135.25,-108 129.25,-108"/>
<text xml:space="preserve" text-anchor="middle" x="70.62" y="-91.2" font-family="Helvetica,sans-Serif" font-size="9.00">Medium Static Armour &#45; ARM 2</text>
<text xml:space="preserve" text-anchor="middle" x="70.62" y="-81.45" font-family="Helvetica,sans-Serif" font-size="9.00">4 RP</text>
</g>
<!-- Heavy_Static_Armour__ARM_3 -->
<g id="node3" class="node">
<title>Heavy_Static_Armour__ARM_3</title>
<path fill="#cce5ff" stroke="black" d="M124.75,-36C124.75,-36 16.5,-36 16.5,-36 10.5,-36 4.5,-30 4.5,-24 4.5,-24 4.5,-12 4.5,-12 4.5,-6 10.5,0 16.5,0 16.5,0 124.75,0 124.75,0 130.75,0 136.75,-6 136.75,-12 136.75,-12 136.75,-24 136.75,-24 136.75,-30 130.75,-36 124.75,-36"/>
<text xml:space="preserve" text-anchor="middle" x="70.62" y="-19.2" font-family="Helvetica,sans-Serif" font-size="9.00">Heavy Static Armour&#45; ARM 3</text>
<text xml:space="preserve" text-anchor="middle" x="70.62" y="-9.45" font-family="Helvetica,sans-Serif" font-size="9.00">2K RP</text>
</g>
<!-- Medium_Static_Armour___ARM_2&#45;&gt;Heavy_Static_Armour__ARM_3 -->
<g id="edge2" class="edge">
<title>Medium_Static_Armour___ARM_2&#45;&gt;Heavy_Static_Armour__ARM_3</title>
<path fill="none" stroke="black" d="M70.62,-71.7C70.62,-63.22 70.62,-52.86 70.62,-43.58"/>
<polygon fill="black" stroke="black" points="72.73,-43.62 70.63,-37.62 68.53,-43.62 72.73,-43.62"/>
</g>
<!-- Light_Static_Armour___ARM_1 -->
<g id="node2" class="node">
<title>Light_Static_Armour___ARM_1</title>
<path fill="#d4edda" stroke="black" d="M122.88,-180C122.88,-180 18.38,-180 18.38,-180 12.38,-180 6.38,-174 6.38,-168 6.38,-168 6.38,-156 6.38,-156 6.38,-150 12.38,-144 18.38,-144 18.38,-144 122.88,-144 122.88,-144 128.88,-144 134.88,-150 134.88,-156 134.88,-156 134.88,-168 134.88,-168 134.88,-174 128.88,-180 122.88,-180"/>
<text xml:space="preserve" text-anchor="middle" x="70.62" y="-163.2" font-family="Helvetica,sans-Serif" font-size="9.00">Light Static Armour &#45; ARM 1</text>
<text xml:space="preserve" text-anchor="middle" x="70.62" y="-153.45" font-family="Helvetica,sans-Serif" font-size="9.00">6 RP</text>
</g>
<!-- Light_Static_Armour___ARM_1&#45;&gt;Medium_Static_Armour___ARM_2 -->
<g id="edge1" class="edge">
<title>Light_Static_Armour___ARM_1&#45;&gt;Medium_Static_Armour___ARM_2</title>
<path fill="none" stroke="black" d="M70.62,-143.7C70.62,-135.22 70.62,-124.86 70.62,-115.58"/>
<polygon fill="black" stroke="black" points="72.73,-115.62 70.63,-109.62 68.53,-115.62 72.73,-115.62"/>
</g>
</g>
</svg>
