<?xml version="1.0" encoding="UTF-8" standalone="no"?>
<!DOCTYPE svg PUBLIC "-//W3C//DTD SVG 1.1//EN"
 "http://www.w3.org/Graphics/SVG/1.1/DTD/svg11.dtd">
<!-- Generated by graphviz version 14.1.2 (20260124.0452)
 -->
<!-- Title: TechTree Pages: 1 -->
<svg width="499pt" height="67pt"
 viewBox="0.00 0.00 499.00 67.00" xmlns="http://www.w3.org/2000/svg" xmlns:xlink="http://www.w3.org/1999/xlink">
<g id="graph0" class="graph" transform="scale(1 1) rotate(0) translate(4 63)">
<title>TechTree</title>
<polygon fill="white" stroke="none" points="-4,4 -4,-63 494.75,-63 494.75,4 -4,4"/>
<text xml:space="preserve" text-anchor="middle" x="245.38" y="-41.7" font-family="Helvetica,sans-Serif" font-weight="bold" font-size="14.00">Static Armour Type</text>
<!-- Medium_Static_Armour___ARM_2 -->
<g id="node1" class="node">
<title>Medium_Static_Armour___ARM_2</title>
<path fill="#d4edda" stroke="black" d="M307,-36C307,-36 179.25,-36 179.25,-36 173.25,-36 167.25,-30 167.25,-24 167.25,-24 167.25,-12 167.25,-12 167.25,-6 173.25,0 179.25,0 179.25,0 307,0 307,0 313,0 319,-6 319,-12 319,-12 319,-24 319,-24 319,-30 313,-36 307,-36"/>
<text xml:space="preserve" text-anchor="middle" x="243.12" y="-19.75" font-family="Helvetica,sans-Serif" font-size="10.00">Medium Static Armour &#45; ARM 2</text>
<text xml:space="preserve" text-anchor="middle" x="243.12" y="-8.5" font-family="Helvetica,sans-Serif" font-size="10.00">4 RP</text>
</g>
<!-- Heavy_Static_Armour__ARM_3 -->
<g id="node3" class="node">
<title>Heavy_Static_Armour__ARM_3</title>
<path fill="#cce5ff" stroke="black" d="M478.75,-36C478.75,-36 360,-36 360,-36 354,-36 348,-30 348,-24 348,-24 348,-12 348,-12 348,-6 354,0 360,0 360,0 478.75,0 478.75,0 484.75,0 490.75,-6 490.75,-12 490.75,-12 490.75,-24 490.75,-24 490.75,-30 484.75,-36 478.75,-36"/>
<text xml:space="preserve" text-anchor="middle" x="419.38" y="-19.75" font-family="Helvetica,sans-Serif" font-size="10.00">Heavy Static Armour&#45; ARM 3</text>
<text xml:space="preserve" text-anchor="middle" x="419.38" y="-8.5" font-family="Helvetica,sans-Serif" font-size="10.00">2K RP</text>
</g>
<!-- Medium_Static_Armour___ARM_2&#45;&gt;Heavy_Static_Armour__ARM_3 -->
<g id="edge2" class="edge">
<title>Medium_Static_Armour___ARM_2&#45;&gt;Heavy_Static_Armour__ARM_3</title>
<path fill="none" stroke="black" d="M319.29,-18C325.89,-18 332.59,-18 339.23,-18"/>
<polygon fill="black" stroke="black" points="339.08,-20.45 346.08,-18 339.08,-15.55 339.08,-20.45"/>
</g>
<!-- Light_Static_Armour___ARM_1 -->
<g id="node2" class="node">
<title>Light_Static_Armour___ARM_1</title>
<path fill="#d4edda" stroke="black" d="M126.25,-36C126.25,-36 12,-36 12,-36 6,-36 0,-30 0,-24 0,-24 0,-12 0,-12 0,-6 6,0 12,0 12,0 126.25,0 126.25,0 132.25,0 138.25,-6 138.25,-12 138.25,-12 138.25,-24 138.25,-24 138.25,-30 132.25,-36 126.25,-36"/>
<text xml:space="preserve" text-anchor="middle" x="69.12" y="-19.75" font-family="Helvetica,sans-Serif" font-size="10.00">Light Static Armour &#45; ARM 1</text>
<text xml:space="preserve" text-anchor="middle" x="69.12" y="-8.5" font-family="Helvetica,sans-Serif" font-size="10.00">6 RP</text>
</g>
<!-- Light_Static_Armour___ARM_1&#45;&gt;Medium_Static_Armour___ARM_2 -->
<g id="edge1" class="edge">
<title>Light_Static_Armour___ARM_1&#45;&gt;Medium_Static_Armour___ARM_2</title>
<path fill="none" stroke="black" d="M138.6,-18C145.12,-18 151.78,-18 158.42,-18"/>
<polygon fill="black" stroke="black" points="158.3,-20.45 165.3,-18 158.3,-15.55 158.3,-20.45"/>
</g>
</g>
</svg>
