<?xml version="1.0" encoding="UTF-8" standalone="no"?>
<!DOCTYPE svg PUBLIC "-//W3C//DTD SVG 1.1//EN"
 "http://www.w3.org/Graphics/SVG/1.1/DTD/svg11.dtd">
<!-- Generated by graphviz version 14.1.2 (20260124.0452)
 -->
<!-- Title: TechTree Pages: 1 -->
<svg width="142pt" height="67pt"
 viewBox="0.00 0.00 142.00 67.00" xmlns="http://www.w3.org/2000/svg" xmlns:xlink="http://www.w3.org/1999/xlink">
<g id="graph0" class="graph" transform="scale(1 1) rotate(0) translate(4 63)">
<title>TechTree</title>
<polygon fill="white" stroke="none" points="-4,4 -4,-63 137.75,-63 137.75,4 -4,4"/>
<text xml:space="preserve" text-anchor="middle" x="66.88" y="-41.7" font-family="Helvetica,sans-Serif" font-weight="bold" font-size="14.00">STS Tractor Beam</text>
<!-- Ship_to_Ship_Tractor_Beam -->
<g id="node1" class="node">
<title>Ship_to_Ship_Tractor_Beam</title>
<path fill="#cce5ff" stroke="black" d="M120.62,-36C120.62,-36 13.12,-36 13.12,-36 7.12,-36 1.12,-30 1.12,-24 1.12,-24 1.12,-12 1.12,-12 1.12,-6 7.12,0 13.12,0 13.12,0 120.62,0 120.62,0 126.62,0 132.62,-6 132.62,-12 132.62,-12 132.62,-24 132.62,-24 132.62,-30 126.62,-36 120.62,-36"/>
<text xml:space="preserve" text-anchor="middle" x="66.88" y="-19.75" font-family="Helvetica,sans-Serif" font-size="10.00">Ship to Ship Tractor Beam</text>
<text xml:space="preserve" text-anchor="middle" x="66.88" y="-8.5" font-family="Helvetica,sans-Serif" font-size="10.00">5K RP</text>
</g>
</g>
</svg>
