<?xml version="1.0" encoding="UTF-8" standalone="no"?>
<!DOCTYPE svg PUBLIC "-//W3C//DTD SVG 1.1//EN"
 "http://www.w3.org/Graphics/SVG/1.1/DTD/svg11.dtd">
<!-- Generated by graphviz version 14.1.2 (20260124.0452)
 -->
<!-- Title: TechTree Pages: 1 -->
<svg width="188pt" height="67pt"
 viewBox="0.00 0.00 188.00 67.00" xmlns="http://www.w3.org/2000/svg" xmlns:xlink="http://www.w3.org/1999/xlink">
<g id="graph0" class="graph" transform="scale(1 1) rotate(0) translate(4 63)">
<title>TechTree</title>
<polygon fill="white" stroke="none" points="-4,4 -4,-63 184.25,-63 184.25,4 -4,4"/>
<text xml:space="preserve" text-anchor="middle" x="90.12" y="-41.7" font-family="Helvetica,sans-Serif" font-weight="bold" font-size="14.00">Surface&#45;To&#45;Orbit Weapon</text>
<!-- Surface_to_Orbit_Weaponry -->
<g id="node1" class="node">
<title>Surface_to_Orbit_Weaponry</title>
<path fill="#cce5ff" stroke="black" d="M143.88,-36C143.88,-36 36.38,-36 36.38,-36 30.37,-36 24.38,-30 24.38,-24 24.38,-24 24.38,-12 24.38,-12 24.38,-6 30.38,0 36.38,0 36.38,0 143.88,0 143.88,0 149.88,0 155.88,-6 155.88,-12 155.88,-12 155.88,-24 155.88,-24 155.88,-30 149.88,-36 143.88,-36"/>
<text xml:space="preserve" text-anchor="middle" x="90.12" y="-19.75" font-family="Helvetica,sans-Serif" font-size="10.00">Surface to Orbit Weaponry</text>
<text xml:space="preserve" text-anchor="middle" x="90.12" y="-8.5" font-family="Helvetica,sans-Serif" font-size="10.00">2K RP</text>
</g>
</g>
</svg>
