<?xml version="1.0" encoding="UTF-8" standalone="no"?>
<!DOCTYPE svg PUBLIC "-//W3C//DTD SVG 1.1//EN"
 "http://www.w3.org/Graphics/SVG/1.1/DTD/svg11.dtd">
<!-- Generated by graphviz version 14.1.2 (20260124.0452)
 -->
<!-- Title: TechTree Pages: 1 -->
<svg width="167pt" height="65pt"
 viewBox="0.00 0.00 167.00 65.00" xmlns="http://www.w3.org/2000/svg" xmlns:xlink="http://www.w3.org/1999/xlink">
<g id="graph0" class="graph" transform="scale(1 1) rotate(0) translate(4 60.75)">
<title>TechTree</title>
<polygon fill="white" stroke="none" points="-4,4 -4,-60.75 163.25,-60.75 163.25,4 -4,4"/>
<text xml:space="preserve" text-anchor="middle" x="79.62" y="-41.35" font-family="Helvetica,sans-Serif" font-weight="bold" font-size="12.00">Surface&#45;To&#45;Orbit Weapon</text>
<!-- Surface_to_Orbit_Weaponry -->
<g id="node1" class="node">
<title>Surface_to_Orbit_Weaponry</title>
<path fill="#cce5ff" stroke="black" d="M129.25,-36C129.25,-36 30,-36 30,-36 24,-36 18,-30 18,-24 18,-24 18,-12 18,-12 18,-6 24,0 30,0 30,0 129.25,0 129.25,0 135.25,0 141.25,-6 141.25,-12 141.25,-12 141.25,-24 141.25,-24 141.25,-30 135.25,-36 129.25,-36"/>
<text xml:space="preserve" text-anchor="middle" x="79.62" y="-19.2" font-family="Helvetica,sans-Serif" font-size="9.00">Surface to Orbit Weaponry</text>
<text xml:space="preserve" text-anchor="middle" x="79.62" y="-9.45" font-family="Helvetica,sans-Serif" font-size="9.00">2K RP</text>
</g>
</g>
</svg>
