<?xml version="1.0" encoding="UTF-8" standalone="no"?>
<!DOCTYPE svg PUBLIC "-//W3C//DTD SVG 1.1//EN"
 "http://www.w3.org/Graphics/SVG/1.1/DTD/svg11.dtd">
<!-- Generated by graphviz version 14.1.2 (20260124.0452)
 -->
<!-- Title: TechTree Pages: 1 -->
<svg width="167pt" height="65pt"
 viewBox="0.00 0.00 167.00 65.00" xmlns="http://www.w3.org/2000/svg" xmlns:xlink="http://www.w3.org/1999/xlink">
<g id="graph0" class="graph" transform="scale(1 1) rotate(0) translate(4 60.75)">
<title>TechTree</title>
<polygon fill="white" stroke="none" points="-4,4 -4,-60.75 162.5,-60.75 162.5,4 -4,4"/>
<text xml:space="preserve" text-anchor="middle" x="79.25" y="-41.35" font-family="Helvetica,sans-Serif" font-weight="bold" font-size="12.00">Swarm Ground Weapons</text>
<!-- Swarm_Warrior_Melee -->
<g id="node1" class="node">
<title>Swarm_Warrior_Melee</title>
<path fill="#cce5ff" stroke="black" d="M119.12,-36C119.12,-36 39.38,-36 39.38,-36 33.38,-36 27.38,-30 27.38,-24 27.38,-24 27.38,-12 27.38,-12 27.38,-6 33.38,0 39.38,0 39.38,0 119.12,0 119.12,0 125.12,0 131.12,-6 131.12,-12 131.12,-12 131.12,-24 131.12,-24 131.12,-30 125.12,-36 119.12,-36"/>
<text xml:space="preserve" text-anchor="middle" x="79.25" y="-19.2" font-family="Helvetica,sans-Serif" font-size="9.00">Swarm Warrior Melee</text>
<text xml:space="preserve" text-anchor="middle" x="79.25" y="-9.45" font-family="Helvetica,sans-Serif" font-size="9.00">1K RP</text>
</g>
</g>
</svg>
