<?xml version="1.0" encoding="UTF-8" standalone="no"?>
<!DOCTYPE svg PUBLIC "-//W3C//DTD SVG 1.1//EN"
 "http://www.w3.org/Graphics/SVG/1.1/DTD/svg11.dtd">
<!-- Generated by graphviz version 14.1.2 (20260124.0452)
 -->
<!-- Title: TechTree Pages: 1 -->
<svg width="187pt" height="67pt"
 viewBox="0.00 0.00 187.00 67.00" xmlns="http://www.w3.org/2000/svg" xmlns:xlink="http://www.w3.org/1999/xlink">
<g id="graph0" class="graph" transform="scale(1 1) rotate(0) translate(4 63)">
<title>TechTree</title>
<polygon fill="white" stroke="none" points="-4,4 -4,-63 182.75,-63 182.75,4 -4,4"/>
<text xml:space="preserve" text-anchor="middle" x="89.38" y="-41.7" font-family="Helvetica,sans-Serif" font-weight="bold" font-size="14.00">Swarm Ground Weapons</text>
<!-- Swarm_Warrior_Melee -->
<g id="node1" class="node">
<title>Swarm_Warrior_Melee</title>
<path fill="#cce5ff" stroke="black" d="M132.25,-36C132.25,-36 46.5,-36 46.5,-36 40.5,-36 34.5,-30 34.5,-24 34.5,-24 34.5,-12 34.5,-12 34.5,-6 40.5,0 46.5,0 46.5,0 132.25,0 132.25,0 138.25,0 144.25,-6 144.25,-12 144.25,-12 144.25,-24 144.25,-24 144.25,-30 138.25,-36 132.25,-36"/>
<text xml:space="preserve" text-anchor="middle" x="89.38" y="-19.75" font-family="Helvetica,sans-Serif" font-size="10.00">Swarm Warrior Melee</text>
<text xml:space="preserve" text-anchor="middle" x="89.38" y="-8.5" font-family="Helvetica,sans-Serif" font-size="10.00">1K RP</text>
</g>
</g>
</svg>
