<?xml version="1.0" encoding="UTF-8" standalone="no"?>
<!DOCTYPE svg PUBLIC "-//W3C//DTD SVG 1.1//EN"
 "http://www.w3.org/Graphics/SVG/1.1/DTD/svg11.dtd">
<!-- Generated by graphviz version 14.1.2 (20260124.0452)
 -->
<!-- Title: TechTree Pages: 1 -->
<svg width="535pt" height="137pt"
 viewBox="0.00 0.00 535.00 137.00" xmlns="http://www.w3.org/2000/svg" xmlns:xlink="http://www.w3.org/1999/xlink">
<g id="graph0" class="graph" transform="scale(1 1) rotate(0) translate(4 132.75)">
<title>TechTree</title>
<polygon fill="white" stroke="none" points="-4,4 -4,-132.75 530.88,-132.75 530.88,4 -4,4"/>
<text xml:space="preserve" text-anchor="middle" x="263.44" y="-113.35" font-family="Helvetica,sans-Serif" font-weight="bold" font-size="12.00">Temperature Range</text>
<!-- Genome_Sequence__Normal_Temper -->
<g id="node1" class="node">
<title>Genome_Sequence__Normal_Temper</title>
<path fill="#d4edda" stroke="black" d="M202,-108C202,-108 12,-108 12,-108 6,-108 0,-102 0,-96 0,-96 0,-84 0,-84 0,-78 6,-72 12,-72 12,-72 202,-72 202,-72 208,-72 214,-78 214,-84 214,-84 214,-96 214,-96 214,-102 208,-108 202,-108"/>
<text xml:space="preserve" text-anchor="middle" x="107" y="-91.2" font-family="Helvetica,sans-Serif" font-size="9.00">Genome Sequence: Normal Temperature Range</text>
<text xml:space="preserve" text-anchor="middle" x="107" y="-81.45" font-family="Helvetica,sans-Serif" font-size="9.00">1 RP</text>
</g>
<!-- Genome_Sequence__Temperature_R -->
<g id="node2" class="node">
<title>Genome_Sequence__Temperature_R</title>
<path fill="#d4c4fb" stroke="black" d="M406.88,-36C406.88,-36 195.12,-36 195.12,-36 189.12,-36 183.12,-30 183.12,-24 183.12,-24 183.12,-12 183.12,-12 183.12,-6 189.12,0 195.12,0 195.12,0 406.88,0 406.88,0 412.88,0 418.88,-6 418.88,-12 418.88,-12 418.88,-24 418.88,-24 418.88,-30 412.88,-36 406.88,-36"/>
<text xml:space="preserve" text-anchor="middle" x="301" y="-19.2" font-family="Helvetica,sans-Serif" font-size="9.00">Genome Sequence: Temperature Range +45 degrees</text>
<text xml:space="preserve" text-anchor="middle" x="301" y="-9.45" font-family="Helvetica,sans-Serif" font-size="9.00">128K RP</text>
</g>
<!-- Genome_Sequence__Temperature_R&#45;&gt;Genome_Sequence__Temperature_R -->
<g id="edge2" class="edge">
<title>Genome_Sequence__Temperature_R&#45;&gt;Genome_Sequence__Temperature_R</title>
<path fill="none" stroke="black" d="M419.33,-19.79C430.1,-19.42 436.88,-18.82 436.88,-18 436.88,-17.38 433.07,-16.9 426.62,-16.53"/>
<polygon fill="black" stroke="black" points="426.93,-14.44 420.85,-16.28 426.75,-18.64 426.93,-14.44"/>
</g>
<!-- Genome_Sequence__Temperature_R&#45;&gt;Genome_Sequence__Temperature_R -->
<g id="edge3" class="edge">
<title>Genome_Sequence__Temperature_R&#45;&gt;Genome_Sequence__Temperature_R</title>
<path fill="none" stroke="black" d="M419.06,-22.24C440.15,-21.69 454.88,-20.27 454.88,-18 454.88,-15.99 443.4,-14.66 426.2,-13.99"/>
<polygon fill="black" stroke="black" points="426.64,-11.91 420.57,-13.81 426.5,-16.1 426.64,-11.91"/>
</g>
<!-- Genome_Sequence__Temperature_R&#45;&gt;Genome_Sequence__Temperature_R -->
<g id="edge4" class="edge">
<title>Genome_Sequence__Temperature_R&#45;&gt;Genome_Sequence__Temperature_R</title>
<path fill="none" stroke="black" d="M419.09,-24.68C449.75,-24.27 472.88,-22.04 472.88,-18 472.88,-14.29 453.39,-12.11 426.47,-11.46"/>
<polygon fill="black" stroke="black" points="426.64,-9.36 420.6,-11.35 426.56,-13.56 426.64,-9.36"/>
</g>
<!-- Genome_Sequence__Temperature_R&#45;&gt;Genome_Sequence__Temperature_R -->
<g id="edge5" class="edge">
<title>Genome_Sequence__Temperature_R&#45;&gt;Genome_Sequence__Temperature_R</title>
<path fill="none" stroke="black" d="M419.21,-27C458.98,-27.02 490.88,-24.02 490.88,-18 490.88,-12.35 462.84,-9.36 426.57,-9.03"/>
<polygon fill="black" stroke="black" points="426.73,-6.93 420.72,-9.01 426.71,-11.13 426.73,-6.93"/>
</g>
<!-- Genome_Sequence__Temperature_R&#45;&gt;Genome_Sequence__Temperature_R -->
<g id="edge6" class="edge">
<title>Genome_Sequence__Temperature_R&#45;&gt;Genome_Sequence__Temperature_R</title>
<path fill="none" stroke="black" d="M419.32,-29.16C467.87,-29.88 508.88,-26.16 508.88,-18 508.88,-10.26 471.93,-6.51 426.65,-6.76"/>
<polygon fill="black" stroke="black" points="426.81,-4.66 420.83,-6.82 426.85,-8.86 426.81,-4.66"/>
</g>
<!-- Genome_Sequence__Temperature_R&#45;&gt;Genome_Sequence__Temperature_R -->
<g id="edge7" class="edge">
<title>Genome_Sequence__Temperature_R&#45;&gt;Genome_Sequence__Temperature_R</title>
<path fill="none" stroke="black" d="M419.24,-31.16C476.38,-32.81 526.88,-28.42 526.88,-18 526.88,-8.02 480.62,-3.58 426.57,-4.66"/>
<polygon fill="black" stroke="black" points="426.7,-2.55 420.76,-4.8 426.81,-6.75 426.7,-2.55"/>
</g>
<!-- ext_Genome_Sequence_Research -->
<g id="node3" class="node">
<title>ext_Genome_Sequence_Research</title>
<path fill="#f0f0f0" stroke="black" stroke-dasharray="5,2" d="M357.75,-108C357.75,-108 244.25,-108 244.25,-108 238.25,-108 232.25,-102 232.25,-96 232.25,-96 232.25,-84 232.25,-84 232.25,-78 238.25,-72 244.25,-72 244.25,-72 357.75,-72 357.75,-72 363.75,-72 369.75,-78 369.75,-84 369.75,-84 369.75,-96 369.75,-96 369.75,-102 363.75,-108 357.75,-108"/>
<text xml:space="preserve" text-anchor="middle" x="301" y="-86.33" font-family="Helvetica,sans-Serif" font-size="9.00">Genome Sequence Research</text>
</g>
<!-- ext_Genome_Sequence_Research&#45;&gt;Genome_Sequence__Temperature_R -->
<g id="edge1" class="edge">
<title>ext_Genome_Sequence_Research&#45;&gt;Genome_Sequence__Temperature_R</title>
<path fill="none" stroke="black" d="M301,-71.7C301,-63.22 301,-52.86 301,-43.58"/>
<polygon fill="black" stroke="black" points="303.1,-43.62 301,-37.62 298.9,-43.62 303.1,-43.62"/>
</g>
</g>
</svg>
