<?xml version="1.0" encoding="UTF-8" standalone="no"?>
<!DOCTYPE svg PUBLIC "-//W3C//DTD SVG 1.1//EN"
 "http://www.w3.org/Graphics/SVG/1.1/DTD/svg11.dtd">
<!-- Generated by graphviz version 14.1.2 (20260124.0452)
 -->
<!-- Title: TechTree Pages: 1 -->
<svg width="636pt" height="67pt"
 viewBox="0.00 0.00 636.00 67.00" xmlns="http://www.w3.org/2000/svg" xmlns:xlink="http://www.w3.org/1999/xlink">
<g id="graph0" class="graph" transform="scale(1 1) rotate(0) translate(4 63)">
<title>TechTree</title>
<polygon fill="white" stroke="none" points="-4,4 -4,-63 631.5,-63 631.5,4 -4,4"/>
<text xml:space="preserve" text-anchor="middle" x="313.75" y="-41.7" font-family="Helvetica,sans-Serif" font-weight="bold" font-size="14.00">Temperature Range</text>
<!-- Genome_Sequence__Normal_Temper -->
<g id="node1" class="node">
<title>Genome_Sequence__Normal_Temper</title>
<path fill="#d4edda" stroke="black" d="M213.25,-36C213.25,-36 12,-36 12,-36 6,-36 0,-30 0,-24 0,-24 0,-12 0,-12 0,-6 6,0 12,0 12,0 213.25,0 213.25,0 219.25,0 225.25,-6 225.25,-12 225.25,-12 225.25,-24 225.25,-24 225.25,-30 219.25,-36 213.25,-36"/>
<text xml:space="preserve" text-anchor="middle" x="112.62" y="-19.75" font-family="Helvetica,sans-Serif" font-size="10.00">Genome Sequence: Normal Temperature Range</text>
<text xml:space="preserve" text-anchor="middle" x="112.62" y="-8.5" font-family="Helvetica,sans-Serif" font-size="10.00">1 RP</text>
</g>
<!-- Genome_Sequence__Temperature_R -->
<g id="node2" class="node">
<title>Genome_Sequence__Temperature_R</title>
<path fill="#d4c4fb" stroke="black" d="M483.5,-36C483.5,-36 259.75,-36 259.75,-36 253.75,-36 247.75,-30 247.75,-24 247.75,-24 247.75,-12 247.75,-12 247.75,-6 253.75,0 259.75,0 259.75,0 483.5,0 483.5,0 489.5,0 495.5,-6 495.5,-12 495.5,-12 495.5,-24 495.5,-24 495.5,-30 489.5,-36 483.5,-36"/>
<text xml:space="preserve" text-anchor="middle" x="371.62" y="-19.75" font-family="Helvetica,sans-Serif" font-size="10.00">Genome Sequence: Temperature Range +45 degrees</text>
<text xml:space="preserve" text-anchor="middle" x="371.62" y="-8.5" font-family="Helvetica,sans-Serif" font-size="10.00">128K RP</text>
</g>
<!-- Genome_Sequence__Temperature_R&#45;&gt;Genome_Sequence__Temperature_R -->
<g id="edge1" class="edge">
<title>Genome_Sequence__Temperature_R&#45;&gt;Genome_Sequence__Temperature_R</title>
<path fill="none" stroke="black" d="M495.87,-19.25C509.04,-19.01 517.5,-18.59 517.5,-18 517.5,-17.55 512.54,-17.2 504.3,-16.95"/>
<polygon fill="black" stroke="black" points="504.43,-14.5 497.38,-16.79 504.32,-19.4 504.43,-14.5"/>
</g>
<!-- Genome_Sequence__Temperature_R&#45;&gt;Genome_Sequence__Temperature_R -->
<g id="edge2" class="edge">
<title>Genome_Sequence__Temperature_R&#45;&gt;Genome_Sequence__Temperature_R</title>
<path fill="none" stroke="black" d="M495.71,-20.89C521.21,-20.58 539.5,-19.62 539.5,-18 539.5,-16.57 525.12,-15.65 504.08,-15.24"/>
<polygon fill="black" stroke="black" points="504.26,-12.79 497.23,-15.13 504.19,-17.69 504.26,-12.79"/>
</g>
<!-- Genome_Sequence__Temperature_R&#45;&gt;Genome_Sequence__Temperature_R -->
<g id="edge3" class="edge">
<title>Genome_Sequence__Temperature_R&#45;&gt;Genome_Sequence__Temperature_R</title>
<path fill="none" stroke="black" d="M495.81,-22.49C532.75,-22.36 561.5,-20.86 561.5,-18 561.5,-15.36 537.07,-13.89 504.3,-13.57"/>
<polygon fill="black" stroke="black" points="504.33,-11.12 497.32,-13.52 504.3,-16.02 504.33,-11.12"/>
</g>
<!-- Genome_Sequence__Temperature_R&#45;&gt;Genome_Sequence__Temperature_R -->
<g id="edge4" class="edge">
<title>Genome_Sequence__Temperature_R&#45;&gt;Genome_Sequence__Temperature_R</title>
<path fill="none" stroke="black" d="M495.94,-23.98C543.78,-24.23 583.5,-22.24 583.5,-18 583.5,-14.01 548.3,-12.01 504.26,-12"/>
<polygon fill="black" stroke="black" points="504.44,-9.55 497.45,-12.02 504.46,-14.45 504.44,-9.55"/>
</g>
<!-- Genome_Sequence__Temperature_R&#45;&gt;Genome_Sequence__Temperature_R -->
<g id="edge5" class="edge">
<title>Genome_Sequence__Temperature_R&#45;&gt;Genome_Sequence__Temperature_R</title>
<path fill="none" stroke="black" d="M495.85,-25.34C554.26,-26.18 605.5,-23.73 605.5,-18 605.5,-12.55 559.15,-10.07 504.35,-10.56"/>
<polygon fill="black" stroke="black" points="504.33,-8.11 497.36,-10.64 504.39,-13.01 504.33,-8.11"/>
</g>
<!-- Genome_Sequence__Temperature_R&#45;&gt;Genome_Sequence__Temperature_R -->
<g id="edge6" class="edge">
<title>Genome_Sequence__Temperature_R&#45;&gt;Genome_Sequence__Temperature_R</title>
<path fill="none" stroke="black" d="M495.7,-26.58C564.36,-28.16 627.5,-25.3 627.5,-18 627.5,-11 569.43,-8.08 504.12,-9.25"/>
<polygon fill="black" stroke="black" points="504.16,-6.8 497.21,-9.39 504.26,-11.7 504.16,-6.8"/>
</g>
</g>
</svg>
