<?xml version="1.0" encoding="UTF-8" standalone="no"?>
<!DOCTYPE svg PUBLIC "-//W3C//DTD SVG 1.1//EN"
 "http://www.w3.org/Graphics/SVG/1.1/DTD/svg11.dtd">
<!-- Generated by graphviz version 14.1.2 (20260124.0452)
 -->
<!-- Title: TechTree Pages: 1 -->
<svg width="151pt" height="929pt"
 viewBox="0.00 0.00 151.00 929.00" xmlns="http://www.w3.org/2000/svg" xmlns:xlink="http://www.w3.org/1999/xlink">
<g id="graph0" class="graph" transform="scale(1 1) rotate(0) translate(4 924.75)">
<title>TechTree</title>
<polygon fill="white" stroke="none" points="-4,4 -4,-924.75 146.75,-924.75 146.75,4 -4,4"/>
<text xml:space="preserve" text-anchor="middle" x="71.38" y="-905.35" font-family="Helvetica,sans-Serif" font-weight="bold" font-size="12.00">Terraforming Rate</text>
<!-- Terraforming_Rate_0_00032_atm -->
<g id="node1" class="node">
<title>Terraforming_Rate_0_00032_atm</title>
<path fill="#cce5ff" stroke="black" d="M130.75,-828C130.75,-828 12,-828 12,-828 6,-828 0,-822 0,-816 0,-816 0,-804 0,-804 0,-798 6,-792 12,-792 12,-792 130.75,-792 130.75,-792 136.75,-792 142.75,-798 142.75,-804 142.75,-804 142.75,-816 142.75,-816 142.75,-822 136.75,-828 130.75,-828"/>
<text xml:space="preserve" text-anchor="middle" x="71.38" y="-811.2" font-family="Helvetica,sans-Serif" font-size="9.00">Terraforming Rate 0.00032 atm</text>
<text xml:space="preserve" text-anchor="middle" x="71.38" y="-801.45" font-family="Helvetica,sans-Serif" font-size="9.00">3K RP</text>
</g>
<!-- Terraforming_Rate_0_0004_atm -->
<g id="node2" class="node">
<title>Terraforming_Rate_0_0004_atm</title>
<path fill="#cce5ff" stroke="black" d="M128.12,-756C128.12,-756 14.63,-756 14.63,-756 8.63,-756 2.62,-750 2.62,-744 2.62,-744 2.62,-732 2.62,-732 2.62,-726 8.62,-720 14.63,-720 14.63,-720 128.12,-720 128.12,-720 134.12,-720 140.12,-726 140.12,-732 140.12,-732 140.12,-744 140.12,-744 140.12,-750 134.12,-756 128.12,-756"/>
<text xml:space="preserve" text-anchor="middle" x="71.38" y="-739.2" font-family="Helvetica,sans-Serif" font-size="9.00">Terraforming Rate 0.0004 atm</text>
<text xml:space="preserve" text-anchor="middle" x="71.38" y="-729.45" font-family="Helvetica,sans-Serif" font-size="9.00">5K RP</text>
</g>
<!-- Terraforming_Rate_0_00032_atm&#45;&gt;Terraforming_Rate_0_0004_atm -->
<g id="edge2" class="edge">
<title>Terraforming_Rate_0_00032_atm&#45;&gt;Terraforming_Rate_0_0004_atm</title>
<path fill="none" stroke="black" d="M71.38,-791.7C71.38,-783.22 71.38,-772.86 71.38,-763.58"/>
<polygon fill="black" stroke="black" points="73.48,-763.62 71.38,-757.62 69.28,-763.62 73.48,-763.62"/>
</g>
<!-- Terraforming_Rate_0_00048_atm -->
<g id="node3" class="node">
<title>Terraforming_Rate_0_00048_atm</title>
<path fill="#cce5ff" stroke="black" d="M130.75,-684C130.75,-684 12,-684 12,-684 6,-684 0,-678 0,-672 0,-672 0,-660 0,-660 0,-654 6,-648 12,-648 12,-648 130.75,-648 130.75,-648 136.75,-648 142.75,-654 142.75,-660 142.75,-660 142.75,-672 142.75,-672 142.75,-678 136.75,-684 130.75,-684"/>
<text xml:space="preserve" text-anchor="middle" x="71.38" y="-667.2" font-family="Helvetica,sans-Serif" font-size="9.00">Terraforming Rate 0.00048 atm</text>
<text xml:space="preserve" text-anchor="middle" x="71.38" y="-657.45" font-family="Helvetica,sans-Serif" font-size="9.00">10K RP</text>
</g>
<!-- Terraforming_Rate_0_0004_atm&#45;&gt;Terraforming_Rate_0_00048_atm -->
<g id="edge3" class="edge">
<title>Terraforming_Rate_0_0004_atm&#45;&gt;Terraforming_Rate_0_00048_atm</title>
<path fill="none" stroke="black" d="M71.38,-719.7C71.38,-711.22 71.38,-700.86 71.38,-691.58"/>
<polygon fill="black" stroke="black" points="73.48,-691.62 71.38,-685.62 69.28,-691.62 73.48,-691.62"/>
</g>
<!-- Terraforming_Rate_0_0006_atm -->
<g id="node4" class="node">
<title>Terraforming_Rate_0_0006_atm</title>
<path fill="#fff3cd" stroke="black" d="M128.12,-612C128.12,-612 14.63,-612 14.63,-612 8.63,-612 2.62,-606 2.62,-600 2.62,-600 2.62,-588 2.62,-588 2.62,-582 8.62,-576 14.63,-576 14.63,-576 128.12,-576 128.12,-576 134.12,-576 140.12,-582 140.12,-588 140.12,-588 140.12,-600 140.12,-600 140.12,-606 134.12,-612 128.12,-612"/>
<text xml:space="preserve" text-anchor="middle" x="71.38" y="-595.2" font-family="Helvetica,sans-Serif" font-size="9.00">Terraforming Rate 0.0006 atm</text>
<text xml:space="preserve" text-anchor="middle" x="71.38" y="-585.45" font-family="Helvetica,sans-Serif" font-size="9.00">20K RP</text>
</g>
<!-- Terraforming_Rate_0_00048_atm&#45;&gt;Terraforming_Rate_0_0006_atm -->
<g id="edge4" class="edge">
<title>Terraforming_Rate_0_00048_atm&#45;&gt;Terraforming_Rate_0_0006_atm</title>
<path fill="none" stroke="black" d="M71.38,-647.7C71.38,-639.22 71.38,-628.86 71.38,-619.58"/>
<polygon fill="black" stroke="black" points="73.48,-619.62 71.38,-613.62 69.28,-619.62 73.48,-619.62"/>
</g>
<!-- Terraforming_Rate_0_00075_atm -->
<g id="node5" class="node">
<title>Terraforming_Rate_0_00075_atm</title>
<path fill="#fff3cd" stroke="black" d="M130.75,-540C130.75,-540 12,-540 12,-540 6,-540 0,-534 0,-528 0,-528 0,-516 0,-516 0,-510 6,-504 12,-504 12,-504 130.75,-504 130.75,-504 136.75,-504 142.75,-510 142.75,-516 142.75,-516 142.75,-528 142.75,-528 142.75,-534 136.75,-540 130.75,-540"/>
<text xml:space="preserve" text-anchor="middle" x="71.38" y="-523.2" font-family="Helvetica,sans-Serif" font-size="9.00">Terraforming Rate 0.00075 atm</text>
<text xml:space="preserve" text-anchor="middle" x="71.38" y="-513.45" font-family="Helvetica,sans-Serif" font-size="9.00">40K RP</text>
</g>
<!-- Terraforming_Rate_0_0006_atm&#45;&gt;Terraforming_Rate_0_00075_atm -->
<g id="edge5" class="edge">
<title>Terraforming_Rate_0_0006_atm&#45;&gt;Terraforming_Rate_0_00075_atm</title>
<path fill="none" stroke="black" d="M71.38,-575.7C71.38,-567.22 71.38,-556.86 71.38,-547.58"/>
<polygon fill="black" stroke="black" points="73.48,-547.62 71.38,-541.62 69.28,-547.62 73.48,-547.62"/>
</g>
<!-- Terraforming_Rate_0_00096_atm -->
<g id="node6" class="node">
<title>Terraforming_Rate_0_00096_atm</title>
<path fill="#fff3cd" stroke="black" d="M130.75,-468C130.75,-468 12,-468 12,-468 6,-468 0,-462 0,-456 0,-456 0,-444 0,-444 0,-438 6,-432 12,-432 12,-432 130.75,-432 130.75,-432 136.75,-432 142.75,-438 142.75,-444 142.75,-444 142.75,-456 142.75,-456 142.75,-462 136.75,-468 130.75,-468"/>
<text xml:space="preserve" text-anchor="middle" x="71.38" y="-451.2" font-family="Helvetica,sans-Serif" font-size="9.00">Terraforming Rate 0.00096 atm</text>
<text xml:space="preserve" text-anchor="middle" x="71.38" y="-441.45" font-family="Helvetica,sans-Serif" font-size="9.00">80K RP</text>
</g>
<!-- Terraforming_Rate_0_00075_atm&#45;&gt;Terraforming_Rate_0_00096_atm -->
<g id="edge6" class="edge">
<title>Terraforming_Rate_0_00075_atm&#45;&gt;Terraforming_Rate_0_00096_atm</title>
<path fill="none" stroke="black" d="M71.38,-503.7C71.38,-495.22 71.38,-484.86 71.38,-475.58"/>
<polygon fill="black" stroke="black" points="73.48,-475.62 71.38,-469.62 69.28,-475.62 73.48,-475.62"/>
</g>
<!-- Terraforming_Rate_0_0012_atm -->
<g id="node7" class="node">
<title>Terraforming_Rate_0_0012_atm</title>
<path fill="#d4c4fb" stroke="black" d="M128.12,-396C128.12,-396 14.63,-396 14.63,-396 8.63,-396 2.62,-390 2.62,-384 2.62,-384 2.62,-372 2.62,-372 2.62,-366 8.62,-360 14.63,-360 14.63,-360 128.12,-360 128.12,-360 134.12,-360 140.12,-366 140.12,-372 140.12,-372 140.12,-384 140.12,-384 140.12,-390 134.12,-396 128.12,-396"/>
<text xml:space="preserve" text-anchor="middle" x="71.38" y="-379.2" font-family="Helvetica,sans-Serif" font-size="9.00">Terraforming Rate 0.0012 atm</text>
<text xml:space="preserve" text-anchor="middle" x="71.38" y="-369.45" font-family="Helvetica,sans-Serif" font-size="9.00">150K RP</text>
</g>
<!-- Terraforming_Rate_0_00096_atm&#45;&gt;Terraforming_Rate_0_0012_atm -->
<g id="edge7" class="edge">
<title>Terraforming_Rate_0_00096_atm&#45;&gt;Terraforming_Rate_0_0012_atm</title>
<path fill="none" stroke="black" d="M71.38,-431.7C71.38,-423.22 71.38,-412.86 71.38,-403.58"/>
<polygon fill="black" stroke="black" points="73.48,-403.62 71.38,-397.62 69.28,-403.62 73.48,-403.62"/>
</g>
<!-- Terraforming_Rate_0_0015_atm -->
<g id="node8" class="node">
<title>Terraforming_Rate_0_0015_atm</title>
<path fill="#d4c4fb" stroke="black" d="M128.12,-324C128.12,-324 14.63,-324 14.63,-324 8.63,-324 2.62,-318 2.62,-312 2.62,-312 2.62,-300 2.62,-300 2.62,-294 8.62,-288 14.63,-288 14.63,-288 128.12,-288 128.12,-288 134.12,-288 140.12,-294 140.12,-300 140.12,-300 140.12,-312 140.12,-312 140.12,-318 134.12,-324 128.12,-324"/>
<text xml:space="preserve" text-anchor="middle" x="71.38" y="-307.2" font-family="Helvetica,sans-Serif" font-size="9.00">Terraforming Rate 0.0015 atm</text>
<text xml:space="preserve" text-anchor="middle" x="71.38" y="-297.45" font-family="Helvetica,sans-Serif" font-size="9.00">300K RP</text>
</g>
<!-- Terraforming_Rate_0_0012_atm&#45;&gt;Terraforming_Rate_0_0015_atm -->
<g id="edge8" class="edge">
<title>Terraforming_Rate_0_0012_atm&#45;&gt;Terraforming_Rate_0_0015_atm</title>
<path fill="none" stroke="black" d="M71.38,-359.7C71.38,-351.22 71.38,-340.86 71.38,-331.58"/>
<polygon fill="black" stroke="black" points="73.48,-331.62 71.38,-325.62 69.28,-331.62 73.48,-331.62"/>
</g>
<!-- Terraforming_Rate_0_0019_atm -->
<g id="node9" class="node">
<title>Terraforming_Rate_0_0019_atm</title>
<path fill="#d4c4fb" stroke="black" d="M128.12,-252C128.12,-252 14.63,-252 14.63,-252 8.63,-252 2.62,-246 2.62,-240 2.62,-240 2.62,-228 2.62,-228 2.62,-222 8.62,-216 14.63,-216 14.63,-216 128.12,-216 128.12,-216 134.12,-216 140.12,-222 140.12,-228 140.12,-228 140.12,-240 140.12,-240 140.12,-246 134.12,-252 128.12,-252"/>
<text xml:space="preserve" text-anchor="middle" x="71.38" y="-235.2" font-family="Helvetica,sans-Serif" font-size="9.00">Terraforming Rate 0.0019 atm</text>
<text xml:space="preserve" text-anchor="middle" x="71.38" y="-225.45" font-family="Helvetica,sans-Serif" font-size="9.00">600K RP</text>
</g>
<!-- Terraforming_Rate_0_0015_atm&#45;&gt;Terraforming_Rate_0_0019_atm -->
<g id="edge9" class="edge">
<title>Terraforming_Rate_0_0015_atm&#45;&gt;Terraforming_Rate_0_0019_atm</title>
<path fill="none" stroke="black" d="M71.38,-287.7C71.38,-279.22 71.38,-268.86 71.38,-259.58"/>
<polygon fill="black" stroke="black" points="73.48,-259.62 71.38,-253.62 69.28,-259.62 73.48,-259.62"/>
</g>
<!-- Terraforming_Rate_0_0024_atm -->
<g id="node10" class="node">
<title>Terraforming_Rate_0_0024_atm</title>
<path fill="#f8d7da" stroke="black" d="M128.12,-180C128.12,-180 14.63,-180 14.63,-180 8.63,-180 2.62,-174 2.62,-168 2.62,-168 2.62,-156 2.62,-156 2.62,-150 8.62,-144 14.63,-144 14.63,-144 128.12,-144 128.12,-144 134.12,-144 140.12,-150 140.12,-156 140.12,-156 140.12,-168 140.12,-168 140.12,-174 134.12,-180 128.12,-180"/>
<text xml:space="preserve" text-anchor="middle" x="71.38" y="-163.2" font-family="Helvetica,sans-Serif" font-size="9.00">Terraforming Rate 0.0024 atm</text>
<text xml:space="preserve" text-anchor="middle" x="71.38" y="-153.45" font-family="Helvetica,sans-Serif" font-size="9.00">1.2M RP</text>
</g>
<!-- Terraforming_Rate_0_0019_atm&#45;&gt;Terraforming_Rate_0_0024_atm -->
<g id="edge10" class="edge">
<title>Terraforming_Rate_0_0019_atm&#45;&gt;Terraforming_Rate_0_0024_atm</title>
<path fill="none" stroke="black" d="M71.38,-215.7C71.38,-207.22 71.38,-196.86 71.38,-187.58"/>
<polygon fill="black" stroke="black" points="73.48,-187.62 71.38,-181.62 69.28,-187.62 73.48,-187.62"/>
</g>
<!-- Terraforming_Rate_0_003_atm -->
<g id="node11" class="node">
<title>Terraforming_Rate_0_003_atm</title>
<path fill="#f8d7da" stroke="black" d="M125.5,-108C125.5,-108 17.25,-108 17.25,-108 11.25,-108 5.25,-102 5.25,-96 5.25,-96 5.25,-84 5.25,-84 5.25,-78 11.25,-72 17.25,-72 17.25,-72 125.5,-72 125.5,-72 131.5,-72 137.5,-78 137.5,-84 137.5,-84 137.5,-96 137.5,-96 137.5,-102 131.5,-108 125.5,-108"/>
<text xml:space="preserve" text-anchor="middle" x="71.38" y="-91.2" font-family="Helvetica,sans-Serif" font-size="9.00">Terraforming Rate 0.003 atm</text>
<text xml:space="preserve" text-anchor="middle" x="71.38" y="-81.45" font-family="Helvetica,sans-Serif" font-size="9.00">2.5M RP</text>
</g>
<!-- Terraforming_Rate_0_0024_atm&#45;&gt;Terraforming_Rate_0_003_atm -->
<g id="edge11" class="edge">
<title>Terraforming_Rate_0_0024_atm&#45;&gt;Terraforming_Rate_0_003_atm</title>
<path fill="none" stroke="black" d="M71.38,-143.7C71.38,-135.22 71.38,-124.86 71.38,-115.58"/>
<polygon fill="black" stroke="black" points="73.48,-115.62 71.38,-109.62 69.28,-115.62 73.48,-115.62"/>
</g>
<!-- Terraforming_Rate_0_00375_atm -->
<g id="node12" class="node">
<title>Terraforming_Rate_0_00375_atm</title>
<path fill="#f8d7da" stroke="black" d="M130.75,-36C130.75,-36 12,-36 12,-36 6,-36 0,-30 0,-24 0,-24 0,-12 0,-12 0,-6 6,0 12,0 12,0 130.75,0 130.75,0 136.75,0 142.75,-6 142.75,-12 142.75,-12 142.75,-24 142.75,-24 142.75,-30 136.75,-36 130.75,-36"/>
<text xml:space="preserve" text-anchor="middle" x="71.38" y="-19.2" font-family="Helvetica,sans-Serif" font-size="9.00">Terraforming Rate 0.00375 atm</text>
<text xml:space="preserve" text-anchor="middle" x="71.38" y="-9.45" font-family="Helvetica,sans-Serif" font-size="9.00">5.0M RP</text>
</g>
<!-- Terraforming_Rate_0_003_atm&#45;&gt;Terraforming_Rate_0_00375_atm -->
<g id="edge12" class="edge">
<title>Terraforming_Rate_0_003_atm&#45;&gt;Terraforming_Rate_0_00375_atm</title>
<path fill="none" stroke="black" d="M71.38,-71.7C71.38,-63.22 71.38,-52.86 71.38,-43.58"/>
<polygon fill="black" stroke="black" points="73.48,-43.62 71.38,-37.62 69.28,-43.62 73.48,-43.62"/>
</g>
<!-- ext_Trans_Newtonian_Technology -->
<g id="node13" class="node">
<title>ext_Trans_Newtonian_Technology</title>
<path fill="#f0f0f0" stroke="black" stroke-dasharray="5,2" d="M127.38,-900C127.38,-900 15.38,-900 15.38,-900 9.37,-900 3.38,-894 3.38,-888 3.38,-888 3.38,-876 3.38,-876 3.38,-870 9.38,-864 15.38,-864 15.38,-864 127.38,-864 127.38,-864 133.38,-864 139.38,-870 139.38,-876 139.38,-876 139.38,-888 139.38,-888 139.38,-894 133.38,-900 127.38,-900"/>
<text xml:space="preserve" text-anchor="middle" x="71.38" y="-878.33" font-family="Helvetica,sans-Serif" font-size="9.00">Trans&#45;Newtonian Technology</text>
</g>
<!-- ext_Trans_Newtonian_Technology&#45;&gt;Terraforming_Rate_0_00032_atm -->
<g id="edge1" class="edge">
<title>ext_Trans_Newtonian_Technology&#45;&gt;Terraforming_Rate_0_00032_atm</title>
<path fill="none" stroke="black" d="M71.38,-863.7C71.38,-855.22 71.38,-844.86 71.38,-835.58"/>
<polygon fill="black" stroke="black" points="73.48,-835.62 71.38,-829.62 69.28,-835.62 73.48,-835.62"/>
</g>
</g>
</svg>
