<?xml version="1.0" encoding="UTF-8" standalone="no"?>
<!DOCTYPE svg PUBLIC "-//W3C//DTD SVG 1.1//EN"
 "http://www.w3.org/Graphics/SVG/1.1/DTD/svg11.dtd">
<!-- Generated by graphviz version 14.1.2 (20260124.0452)
 -->
<!-- Title: TechTree Pages: 1 -->
<svg width="161pt" height="67pt"
 viewBox="0.00 0.00 161.00 67.00" xmlns="http://www.w3.org/2000/svg" xmlns:xlink="http://www.w3.org/1999/xlink">
<g id="graph0" class="graph" transform="scale(1 1) rotate(0) translate(4 63)">
<title>TechTree</title>
<polygon fill="white" stroke="none" points="-4,4 -4,-63 156.5,-63 156.5,4 -4,4"/>
<text xml:space="preserve" text-anchor="middle" x="76.25" y="-41.7" font-family="Helvetica,sans-Serif" font-weight="bold" font-size="14.00">Terraforming Module</text>
<!-- Terraforming_Module -->
<g id="node1" class="node">
<title>Terraforming_Module</title>
<path fill="#cce5ff" stroke="black" d="M116.5,-36C116.5,-36 36,-36 36,-36 30,-36 24,-30 24,-24 24,-24 24,-12 24,-12 24,-6 30,0 36,0 36,0 116.5,0 116.5,0 122.5,0 128.5,-6 128.5,-12 128.5,-12 128.5,-24 128.5,-24 128.5,-30 122.5,-36 116.5,-36"/>
<text xml:space="preserve" text-anchor="middle" x="76.25" y="-19.75" font-family="Helvetica,sans-Serif" font-size="10.00">Terraforming Module</text>
<text xml:space="preserve" text-anchor="middle" x="76.25" y="-8.5" font-family="Helvetica,sans-Serif" font-size="10.00">5K RP</text>
</g>
</g>
</svg>
