<?xml version="1.0" encoding="UTF-8" standalone="no"?>
<!DOCTYPE svg PUBLIC "-//W3C//DTD SVG 1.1//EN"
 "http://www.w3.org/Graphics/SVG/1.1/DTD/svg11.dtd">
<!-- Generated by graphviz version 14.1.2 (20260124.0452)
 -->
<!-- Title: TechTree Pages: 1 -->
<svg width="159pt" height="782pt"
 viewBox="0.00 0.00 159.00 782.00" xmlns="http://www.w3.org/2000/svg" xmlns:xlink="http://www.w3.org/1999/xlink">
<g id="graph0" class="graph" transform="scale(1 1) rotate(0) translate(4 778)">
<title>TechTree</title>
<polygon fill="white" stroke="none" points="-4,4 -4,-778 155,-778 155,4 -4,4"/>
<text xml:space="preserve" text-anchor="middle" x="75.5" y="-756.7" font-family="Helvetica,sans-Serif" font-weight="bold" font-size="14.00">Terraforming Rate</text>
<!-- Terraforming_Rate_0_00032_atm -->
<g id="node1" class="node">
<title>Terraforming_Rate_0_00032_atm</title>
<path fill="#cce5ff" stroke="black" d="M139,-751C139,-751 12,-751 12,-751 6,-751 0,-745 0,-739 0,-739 0,-727 0,-727 0,-721 6,-715 12,-715 12,-715 139,-715 139,-715 145,-715 151,-721 151,-727 151,-727 151,-739 151,-739 151,-745 145,-751 139,-751"/>
<text xml:space="preserve" text-anchor="middle" x="75.5" y="-734.75" font-family="Helvetica,sans-Serif" font-size="10.00">Terraforming Rate 0.00032 atm</text>
<text xml:space="preserve" text-anchor="middle" x="75.5" y="-723.5" font-family="Helvetica,sans-Serif" font-size="10.00">3K RP</text>
</g>
<!-- Terraforming_Rate_0_0004_atm -->
<g id="node2" class="node">
<title>Terraforming_Rate_0_0004_atm</title>
<path fill="#cce5ff" stroke="black" d="M136.38,-686C136.38,-686 14.62,-686 14.62,-686 8.63,-686 2.62,-680 2.62,-674 2.62,-674 2.62,-662 2.62,-662 2.62,-656 8.62,-650 14.62,-650 14.62,-650 136.38,-650 136.38,-650 142.38,-650 148.38,-656 148.38,-662 148.38,-662 148.38,-674 148.38,-674 148.38,-680 142.38,-686 136.38,-686"/>
<text xml:space="preserve" text-anchor="middle" x="75.5" y="-669.75" font-family="Helvetica,sans-Serif" font-size="10.00">Terraforming Rate 0.0004 atm</text>
<text xml:space="preserve" text-anchor="middle" x="75.5" y="-658.5" font-family="Helvetica,sans-Serif" font-size="10.00">5K RP</text>
</g>
<!-- Terraforming_Rate_0_00032_atm&#45;&gt;Terraforming_Rate_0_0004_atm -->
<g id="edge1" class="edge">
<title>Terraforming_Rate_0_00032_atm&#45;&gt;Terraforming_Rate_0_0004_atm</title>
<path fill="none" stroke="black" d="M75.5,-714.78C75.5,-708.53 75.5,-701.33 75.5,-694.52"/>
<polygon fill="black" stroke="black" points="77.95,-694.71 75.5,-687.71 73.05,-694.71 77.95,-694.71"/>
</g>
<!-- Terraforming_Rate_0_00048_atm -->
<g id="node3" class="node">
<title>Terraforming_Rate_0_00048_atm</title>
<path fill="#cce5ff" stroke="black" d="M139,-621C139,-621 12,-621 12,-621 6,-621 0,-615 0,-609 0,-609 0,-597 0,-597 0,-591 6,-585 12,-585 12,-585 139,-585 139,-585 145,-585 151,-591 151,-597 151,-597 151,-609 151,-609 151,-615 145,-621 139,-621"/>
<text xml:space="preserve" text-anchor="middle" x="75.5" y="-604.75" font-family="Helvetica,sans-Serif" font-size="10.00">Terraforming Rate 0.00048 atm</text>
<text xml:space="preserve" text-anchor="middle" x="75.5" y="-593.5" font-family="Helvetica,sans-Serif" font-size="10.00">10K RP</text>
</g>
<!-- Terraforming_Rate_0_0004_atm&#45;&gt;Terraforming_Rate_0_00048_atm -->
<g id="edge2" class="edge">
<title>Terraforming_Rate_0_0004_atm&#45;&gt;Terraforming_Rate_0_00048_atm</title>
<path fill="none" stroke="black" d="M75.5,-649.78C75.5,-643.53 75.5,-636.33 75.5,-629.52"/>
<polygon fill="black" stroke="black" points="77.95,-629.71 75.5,-622.71 73.05,-629.71 77.95,-629.71"/>
</g>
<!-- Terraforming_Rate_0_0006_atm -->
<g id="node4" class="node">
<title>Terraforming_Rate_0_0006_atm</title>
<path fill="#fff3cd" stroke="black" d="M136.38,-556C136.38,-556 14.62,-556 14.62,-556 8.63,-556 2.62,-550 2.62,-544 2.62,-544 2.62,-532 2.62,-532 2.62,-526 8.62,-520 14.62,-520 14.62,-520 136.38,-520 136.38,-520 142.38,-520 148.38,-526 148.38,-532 148.38,-532 148.38,-544 148.38,-544 148.38,-550 142.38,-556 136.38,-556"/>
<text xml:space="preserve" text-anchor="middle" x="75.5" y="-539.75" font-family="Helvetica,sans-Serif" font-size="10.00">Terraforming Rate 0.0006 atm</text>
<text xml:space="preserve" text-anchor="middle" x="75.5" y="-528.5" font-family="Helvetica,sans-Serif" font-size="10.00">20K RP</text>
</g>
<!-- Terraforming_Rate_0_00048_atm&#45;&gt;Terraforming_Rate_0_0006_atm -->
<g id="edge3" class="edge">
<title>Terraforming_Rate_0_00048_atm&#45;&gt;Terraforming_Rate_0_0006_atm</title>
<path fill="none" stroke="black" d="M75.5,-584.78C75.5,-578.53 75.5,-571.33 75.5,-564.52"/>
<polygon fill="black" stroke="black" points="77.95,-564.71 75.5,-557.71 73.05,-564.71 77.95,-564.71"/>
</g>
<!-- Terraforming_Rate_0_00075_atm -->
<g id="node5" class="node">
<title>Terraforming_Rate_0_00075_atm</title>
<path fill="#fff3cd" stroke="black" d="M139,-491C139,-491 12,-491 12,-491 6,-491 0,-485 0,-479 0,-479 0,-467 0,-467 0,-461 6,-455 12,-455 12,-455 139,-455 139,-455 145,-455 151,-461 151,-467 151,-467 151,-479 151,-479 151,-485 145,-491 139,-491"/>
<text xml:space="preserve" text-anchor="middle" x="75.5" y="-474.75" font-family="Helvetica,sans-Serif" font-size="10.00">Terraforming Rate 0.00075 atm</text>
<text xml:space="preserve" text-anchor="middle" x="75.5" y="-463.5" font-family="Helvetica,sans-Serif" font-size="10.00">40K RP</text>
</g>
<!-- Terraforming_Rate_0_0006_atm&#45;&gt;Terraforming_Rate_0_00075_atm -->
<g id="edge4" class="edge">
<title>Terraforming_Rate_0_0006_atm&#45;&gt;Terraforming_Rate_0_00075_atm</title>
<path fill="none" stroke="black" d="M75.5,-519.78C75.5,-513.53 75.5,-506.33 75.5,-499.52"/>
<polygon fill="black" stroke="black" points="77.95,-499.71 75.5,-492.71 73.05,-499.71 77.95,-499.71"/>
</g>
<!-- Terraforming_Rate_0_00096_atm -->
<g id="node6" class="node">
<title>Terraforming_Rate_0_00096_atm</title>
<path fill="#fff3cd" stroke="black" d="M139,-426C139,-426 12,-426 12,-426 6,-426 0,-420 0,-414 0,-414 0,-402 0,-402 0,-396 6,-390 12,-390 12,-390 139,-390 139,-390 145,-390 151,-396 151,-402 151,-402 151,-414 151,-414 151,-420 145,-426 139,-426"/>
<text xml:space="preserve" text-anchor="middle" x="75.5" y="-409.75" font-family="Helvetica,sans-Serif" font-size="10.00">Terraforming Rate 0.00096 atm</text>
<text xml:space="preserve" text-anchor="middle" x="75.5" y="-398.5" font-family="Helvetica,sans-Serif" font-size="10.00">80K RP</text>
</g>
<!-- Terraforming_Rate_0_00075_atm&#45;&gt;Terraforming_Rate_0_00096_atm -->
<g id="edge5" class="edge">
<title>Terraforming_Rate_0_00075_atm&#45;&gt;Terraforming_Rate_0_00096_atm</title>
<path fill="none" stroke="black" d="M75.5,-454.78C75.5,-448.53 75.5,-441.33 75.5,-434.52"/>
<polygon fill="black" stroke="black" points="77.95,-434.71 75.5,-427.71 73.05,-434.71 77.95,-434.71"/>
</g>
<!-- Terraforming_Rate_0_0012_atm -->
<g id="node7" class="node">
<title>Terraforming_Rate_0_0012_atm</title>
<path fill="#d4c4fb" stroke="black" d="M136.38,-361C136.38,-361 14.62,-361 14.62,-361 8.63,-361 2.62,-355 2.62,-349 2.62,-349 2.62,-337 2.62,-337 2.62,-331 8.62,-325 14.62,-325 14.62,-325 136.38,-325 136.38,-325 142.38,-325 148.38,-331 148.38,-337 148.38,-337 148.38,-349 148.38,-349 148.38,-355 142.38,-361 136.38,-361"/>
<text xml:space="preserve" text-anchor="middle" x="75.5" y="-344.75" font-family="Helvetica,sans-Serif" font-size="10.00">Terraforming Rate 0.0012 atm</text>
<text xml:space="preserve" text-anchor="middle" x="75.5" y="-333.5" font-family="Helvetica,sans-Serif" font-size="10.00">150K RP</text>
</g>
<!-- Terraforming_Rate_0_00096_atm&#45;&gt;Terraforming_Rate_0_0012_atm -->
<g id="edge6" class="edge">
<title>Terraforming_Rate_0_00096_atm&#45;&gt;Terraforming_Rate_0_0012_atm</title>
<path fill="none" stroke="black" d="M75.5,-389.78C75.5,-383.53 75.5,-376.33 75.5,-369.52"/>
<polygon fill="black" stroke="black" points="77.95,-369.71 75.5,-362.71 73.05,-369.71 77.95,-369.71"/>
</g>
<!-- Terraforming_Rate_0_0015_atm -->
<g id="node8" class="node">
<title>Terraforming_Rate_0_0015_atm</title>
<path fill="#d4c4fb" stroke="black" d="M136.38,-296C136.38,-296 14.62,-296 14.62,-296 8.63,-296 2.62,-290 2.62,-284 2.62,-284 2.62,-272 2.62,-272 2.62,-266 8.62,-260 14.62,-260 14.62,-260 136.38,-260 136.38,-260 142.38,-260 148.38,-266 148.38,-272 148.38,-272 148.38,-284 148.38,-284 148.38,-290 142.38,-296 136.38,-296"/>
<text xml:space="preserve" text-anchor="middle" x="75.5" y="-279.75" font-family="Helvetica,sans-Serif" font-size="10.00">Terraforming Rate 0.0015 atm</text>
<text xml:space="preserve" text-anchor="middle" x="75.5" y="-268.5" font-family="Helvetica,sans-Serif" font-size="10.00">300K RP</text>
</g>
<!-- Terraforming_Rate_0_0012_atm&#45;&gt;Terraforming_Rate_0_0015_atm -->
<g id="edge7" class="edge">
<title>Terraforming_Rate_0_0012_atm&#45;&gt;Terraforming_Rate_0_0015_atm</title>
<path fill="none" stroke="black" d="M75.5,-324.78C75.5,-318.53 75.5,-311.33 75.5,-304.52"/>
<polygon fill="black" stroke="black" points="77.95,-304.71 75.5,-297.71 73.05,-304.71 77.95,-304.71"/>
</g>
<!-- Terraforming_Rate_0_0019_atm -->
<g id="node9" class="node">
<title>Terraforming_Rate_0_0019_atm</title>
<path fill="#d4c4fb" stroke="black" d="M136.38,-231C136.38,-231 14.62,-231 14.62,-231 8.63,-231 2.62,-225 2.62,-219 2.62,-219 2.62,-207 2.62,-207 2.62,-201 8.62,-195 14.62,-195 14.62,-195 136.38,-195 136.38,-195 142.38,-195 148.38,-201 148.38,-207 148.38,-207 148.38,-219 148.38,-219 148.38,-225 142.38,-231 136.38,-231"/>
<text xml:space="preserve" text-anchor="middle" x="75.5" y="-214.75" font-family="Helvetica,sans-Serif" font-size="10.00">Terraforming Rate 0.0019 atm</text>
<text xml:space="preserve" text-anchor="middle" x="75.5" y="-203.5" font-family="Helvetica,sans-Serif" font-size="10.00">600K RP</text>
</g>
<!-- Terraforming_Rate_0_0015_atm&#45;&gt;Terraforming_Rate_0_0019_atm -->
<g id="edge8" class="edge">
<title>Terraforming_Rate_0_0015_atm&#45;&gt;Terraforming_Rate_0_0019_atm</title>
<path fill="none" stroke="black" d="M75.5,-259.78C75.5,-253.53 75.5,-246.33 75.5,-239.52"/>
<polygon fill="black" stroke="black" points="77.95,-239.71 75.5,-232.71 73.05,-239.71 77.95,-239.71"/>
</g>
<!-- Terraforming_Rate_0_0024_atm -->
<g id="node10" class="node">
<title>Terraforming_Rate_0_0024_atm</title>
<path fill="#f8d7da" stroke="black" d="M136.38,-166C136.38,-166 14.62,-166 14.62,-166 8.63,-166 2.62,-160 2.62,-154 2.62,-154 2.62,-142 2.62,-142 2.62,-136 8.62,-130 14.62,-130 14.62,-130 136.38,-130 136.38,-130 142.38,-130 148.38,-136 148.38,-142 148.38,-142 148.38,-154 148.38,-154 148.38,-160 142.38,-166 136.38,-166"/>
<text xml:space="preserve" text-anchor="middle" x="75.5" y="-149.75" font-family="Helvetica,sans-Serif" font-size="10.00">Terraforming Rate 0.0024 atm</text>
<text xml:space="preserve" text-anchor="middle" x="75.5" y="-138.5" font-family="Helvetica,sans-Serif" font-size="10.00">1.2M RP</text>
</g>
<!-- Terraforming_Rate_0_0019_atm&#45;&gt;Terraforming_Rate_0_0024_atm -->
<g id="edge9" class="edge">
<title>Terraforming_Rate_0_0019_atm&#45;&gt;Terraforming_Rate_0_0024_atm</title>
<path fill="none" stroke="black" d="M75.5,-194.78C75.5,-188.53 75.5,-181.33 75.5,-174.52"/>
<polygon fill="black" stroke="black" points="77.95,-174.71 75.5,-167.71 73.05,-174.71 77.95,-174.71"/>
</g>
<!-- Terraforming_Rate_0_003_atm -->
<g id="node11" class="node">
<title>Terraforming_Rate_0_003_atm</title>
<path fill="#f8d7da" stroke="black" d="M133.75,-101C133.75,-101 17.25,-101 17.25,-101 11.25,-101 5.25,-95 5.25,-89 5.25,-89 5.25,-77 5.25,-77 5.25,-71 11.25,-65 17.25,-65 17.25,-65 133.75,-65 133.75,-65 139.75,-65 145.75,-71 145.75,-77 145.75,-77 145.75,-89 145.75,-89 145.75,-95 139.75,-101 133.75,-101"/>
<text xml:space="preserve" text-anchor="middle" x="75.5" y="-84.75" font-family="Helvetica,sans-Serif" font-size="10.00">Terraforming Rate 0.003 atm</text>
<text xml:space="preserve" text-anchor="middle" x="75.5" y="-73.5" font-family="Helvetica,sans-Serif" font-size="10.00">2.5M RP</text>
</g>
<!-- Terraforming_Rate_0_0024_atm&#45;&gt;Terraforming_Rate_0_003_atm -->
<g id="edge10" class="edge">
<title>Terraforming_Rate_0_0024_atm&#45;&gt;Terraforming_Rate_0_003_atm</title>
<path fill="none" stroke="black" d="M75.5,-129.78C75.5,-123.53 75.5,-116.33 75.5,-109.52"/>
<polygon fill="black" stroke="black" points="77.95,-109.71 75.5,-102.71 73.05,-109.71 77.95,-109.71"/>
</g>
<!-- Terraforming_Rate_0_00375_atm -->
<g id="node12" class="node">
<title>Terraforming_Rate_0_00375_atm</title>
<path fill="#f8d7da" stroke="black" d="M139,-36C139,-36 12,-36 12,-36 6,-36 0,-30 0,-24 0,-24 0,-12 0,-12 0,-6 6,0 12,0 12,0 139,0 139,0 145,0 151,-6 151,-12 151,-12 151,-24 151,-24 151,-30 145,-36 139,-36"/>
<text xml:space="preserve" text-anchor="middle" x="75.5" y="-19.75" font-family="Helvetica,sans-Serif" font-size="10.00">Terraforming Rate 0.00375 atm</text>
<text xml:space="preserve" text-anchor="middle" x="75.5" y="-8.5" font-family="Helvetica,sans-Serif" font-size="10.00">5.0M RP</text>
</g>
<!-- Terraforming_Rate_0_003_atm&#45;&gt;Terraforming_Rate_0_00375_atm -->
<g id="edge11" class="edge">
<title>Terraforming_Rate_0_003_atm&#45;&gt;Terraforming_Rate_0_00375_atm</title>
<path fill="none" stroke="black" d="M75.5,-64.78C75.5,-58.53 75.5,-51.33 75.5,-44.52"/>
<polygon fill="black" stroke="black" points="77.95,-44.71 75.5,-37.71 73.05,-44.71 77.95,-44.71"/>
</g>
</g>
</svg>
