<?xml version="1.0" encoding="UTF-8" standalone="no"?>
<!DOCTYPE svg PUBLIC "-//W3C//DTD SVG 1.1//EN"
 "http://www.w3.org/Graphics/SVG/1.1/DTD/svg11.dtd">
<!-- Generated by graphviz version 14.1.2 (20260124.0452)
 -->
<!-- Title: TechTree Pages: 1 -->
<svg width="294pt" height="857pt"
 viewBox="0.00 0.00 294.00 857.00" xmlns="http://www.w3.org/2000/svg" xmlns:xlink="http://www.w3.org/1999/xlink">
<g id="graph0" class="graph" transform="scale(1 1) rotate(0) translate(4 852.75)">
<title>TechTree</title>
<polygon fill="white" stroke="none" points="-4,4 -4,-852.75 290.12,-852.75 290.12,4 -4,4"/>
<text xml:space="preserve" text-anchor="middle" x="143.06" y="-833.35" font-family="Helvetica,sans-Serif" font-weight="bold" font-size="12.00">Thermal Sensor Sensitivity</text>
<!-- Thermal_Sensor_Sensitivity_5 -->
<g id="node1" class="node">
<title>Thermal_Sensor_Sensitivity_5</title>
<path fill="#cce5ff" stroke="black" d="M120.25,-828C120.25,-828 12,-828 12,-828 6,-828 0,-822 0,-816 0,-816 0,-804 0,-804 0,-798 6,-792 12,-792 12,-792 120.25,-792 120.25,-792 126.25,-792 132.25,-798 132.25,-804 132.25,-804 132.25,-816 132.25,-816 132.25,-822 126.25,-828 120.25,-828"/>
<text xml:space="preserve" text-anchor="middle" x="66.12" y="-811.2" font-family="Helvetica,sans-Serif" font-size="9.00">Thermal Sensor Sensitivity 5</text>
<text xml:space="preserve" text-anchor="middle" x="66.12" y="-801.45" font-family="Helvetica,sans-Serif" font-size="9.00">1K RP</text>
</g>
<!-- Thermal_Sensor_Sensitivity_6 -->
<g id="node2" class="node">
<title>Thermal_Sensor_Sensitivity_6</title>
<path fill="#cce5ff" stroke="black" d="M196.25,-756C196.25,-756 88,-756 88,-756 82,-756 76,-750 76,-744 76,-744 76,-732 76,-732 76,-726 82,-720 88,-720 88,-720 196.25,-720 196.25,-720 202.25,-720 208.25,-726 208.25,-732 208.25,-732 208.25,-744 208.25,-744 208.25,-750 202.25,-756 196.25,-756"/>
<text xml:space="preserve" text-anchor="middle" x="142.12" y="-739.2" font-family="Helvetica,sans-Serif" font-size="9.00">Thermal Sensor Sensitivity 6</text>
<text xml:space="preserve" text-anchor="middle" x="142.12" y="-729.45" font-family="Helvetica,sans-Serif" font-size="9.00">2K RP</text>
</g>
<!-- Thermal_Sensor_Sensitivity_5&#45;&gt;Thermal_Sensor_Sensitivity_6 -->
<g id="edge1" class="edge">
<title>Thermal_Sensor_Sensitivity_5&#45;&gt;Thermal_Sensor_Sensitivity_6</title>
<path fill="none" stroke="black" d="M84.91,-791.7C94.87,-782.53 107.21,-771.16 117.88,-761.33"/>
<polygon fill="black" stroke="black" points="119.19,-762.98 122.18,-757.37 116.34,-759.89 119.19,-762.98"/>
</g>
<!-- Thermal_Sensor_Sensitivity_8 -->
<g id="node3" class="node">
<title>Thermal_Sensor_Sensitivity_8</title>
<path fill="#cce5ff" stroke="black" d="M196.25,-684C196.25,-684 88,-684 88,-684 82,-684 76,-678 76,-672 76,-672 76,-660 76,-660 76,-654 82,-648 88,-648 88,-648 196.25,-648 196.25,-648 202.25,-648 208.25,-654 208.25,-660 208.25,-660 208.25,-672 208.25,-672 208.25,-678 202.25,-684 196.25,-684"/>
<text xml:space="preserve" text-anchor="middle" x="142.12" y="-667.2" font-family="Helvetica,sans-Serif" font-size="9.00">Thermal Sensor Sensitivity 8</text>
<text xml:space="preserve" text-anchor="middle" x="142.12" y="-657.45" font-family="Helvetica,sans-Serif" font-size="9.00">4K RP</text>
</g>
<!-- Thermal_Sensor_Sensitivity_6&#45;&gt;Thermal_Sensor_Sensitivity_8 -->
<g id="edge3" class="edge">
<title>Thermal_Sensor_Sensitivity_6&#45;&gt;Thermal_Sensor_Sensitivity_8</title>
<path fill="none" stroke="black" d="M142.12,-719.7C142.12,-711.22 142.12,-700.86 142.12,-691.58"/>
<polygon fill="black" stroke="black" points="144.23,-691.62 142.13,-685.62 140.03,-691.62 144.23,-691.62"/>
</g>
<!-- Thermal_Sensor_Sensitivity_11 -->
<g id="node4" class="node">
<title>Thermal_Sensor_Sensitivity_11</title>
<path fill="#cce5ff" stroke="black" d="M198.12,-612C198.12,-612 86.12,-612 86.12,-612 80.12,-612 74.12,-606 74.12,-600 74.12,-600 74.12,-588 74.12,-588 74.12,-582 80.12,-576 86.12,-576 86.12,-576 198.12,-576 198.12,-576 204.12,-576 210.12,-582 210.12,-588 210.12,-588 210.12,-600 210.12,-600 210.12,-606 204.12,-612 198.12,-612"/>
<text xml:space="preserve" text-anchor="middle" x="142.12" y="-595.2" font-family="Helvetica,sans-Serif" font-size="9.00">Thermal Sensor Sensitivity 11</text>
<text xml:space="preserve" text-anchor="middle" x="142.12" y="-585.45" font-family="Helvetica,sans-Serif" font-size="9.00">8K RP</text>
</g>
<!-- Thermal_Sensor_Sensitivity_8&#45;&gt;Thermal_Sensor_Sensitivity_11 -->
<g id="edge4" class="edge">
<title>Thermal_Sensor_Sensitivity_8&#45;&gt;Thermal_Sensor_Sensitivity_11</title>
<path fill="none" stroke="black" d="M142.12,-647.7C142.12,-639.22 142.12,-628.86 142.12,-619.58"/>
<polygon fill="black" stroke="black" points="144.23,-619.62 142.13,-613.62 140.03,-619.62 144.23,-619.62"/>
</g>
<!-- Thermal_Sensor_Sensitivity_14 -->
<g id="node5" class="node">
<title>Thermal_Sensor_Sensitivity_14</title>
<path fill="#fff3cd" stroke="black" d="M198.88,-540C198.88,-540 85.38,-540 85.38,-540 79.38,-540 73.38,-534 73.38,-528 73.38,-528 73.38,-516 73.38,-516 73.38,-510 79.38,-504 85.38,-504 85.38,-504 198.88,-504 198.88,-504 204.88,-504 210.88,-510 210.88,-516 210.88,-516 210.88,-528 210.88,-528 210.88,-534 204.88,-540 198.88,-540"/>
<text xml:space="preserve" text-anchor="middle" x="142.12" y="-523.2" font-family="Helvetica,sans-Serif" font-size="9.00">Thermal Sensor Sensitivity 14</text>
<text xml:space="preserve" text-anchor="middle" x="142.12" y="-513.45" font-family="Helvetica,sans-Serif" font-size="9.00">15K RP</text>
</g>
<!-- Thermal_Sensor_Sensitivity_11&#45;&gt;Thermal_Sensor_Sensitivity_14 -->
<g id="edge5" class="edge">
<title>Thermal_Sensor_Sensitivity_11&#45;&gt;Thermal_Sensor_Sensitivity_14</title>
<path fill="none" stroke="black" d="M142.12,-575.7C142.12,-567.22 142.12,-556.86 142.12,-547.58"/>
<polygon fill="black" stroke="black" points="144.23,-547.62 142.13,-541.62 140.03,-547.62 144.23,-547.62"/>
</g>
<!-- Thermal_Sensor_Sensitivity_18 -->
<g id="node6" class="node">
<title>Thermal_Sensor_Sensitivity_18</title>
<path fill="#fff3cd" stroke="black" d="M198.88,-468C198.88,-468 85.38,-468 85.38,-468 79.38,-468 73.38,-462 73.38,-456 73.38,-456 73.38,-444 73.38,-444 73.38,-438 79.38,-432 85.38,-432 85.38,-432 198.88,-432 198.88,-432 204.88,-432 210.88,-438 210.88,-444 210.88,-444 210.88,-456 210.88,-456 210.88,-462 204.88,-468 198.88,-468"/>
<text xml:space="preserve" text-anchor="middle" x="142.12" y="-451.2" font-family="Helvetica,sans-Serif" font-size="9.00">Thermal Sensor Sensitivity 18</text>
<text xml:space="preserve" text-anchor="middle" x="142.12" y="-441.45" font-family="Helvetica,sans-Serif" font-size="9.00">30K RP</text>
</g>
<!-- Thermal_Sensor_Sensitivity_14&#45;&gt;Thermal_Sensor_Sensitivity_18 -->
<g id="edge6" class="edge">
<title>Thermal_Sensor_Sensitivity_14&#45;&gt;Thermal_Sensor_Sensitivity_18</title>
<path fill="none" stroke="black" d="M142.12,-503.7C142.12,-495.22 142.12,-484.86 142.12,-475.58"/>
<polygon fill="black" stroke="black" points="144.23,-475.62 142.13,-469.62 140.03,-475.62 144.23,-475.62"/>
</g>
<!-- Thermal_Sensor_Sensitivity_24 -->
<g id="node7" class="node">
<title>Thermal_Sensor_Sensitivity_24</title>
<path fill="#fff3cd" stroke="black" d="M198.88,-396C198.88,-396 85.38,-396 85.38,-396 79.38,-396 73.38,-390 73.38,-384 73.38,-384 73.38,-372 73.38,-372 73.38,-366 79.38,-360 85.38,-360 85.38,-360 198.88,-360 198.88,-360 204.88,-360 210.88,-366 210.88,-372 210.88,-372 210.88,-384 210.88,-384 210.88,-390 204.88,-396 198.88,-396"/>
<text xml:space="preserve" text-anchor="middle" x="142.12" y="-379.2" font-family="Helvetica,sans-Serif" font-size="9.00">Thermal Sensor Sensitivity 24</text>
<text xml:space="preserve" text-anchor="middle" x="142.12" y="-369.45" font-family="Helvetica,sans-Serif" font-size="9.00">60K RP</text>
</g>
<!-- Thermal_Sensor_Sensitivity_18&#45;&gt;Thermal_Sensor_Sensitivity_24 -->
<g id="edge7" class="edge">
<title>Thermal_Sensor_Sensitivity_18&#45;&gt;Thermal_Sensor_Sensitivity_24</title>
<path fill="none" stroke="black" d="M142.12,-431.7C142.12,-423.22 142.12,-412.86 142.12,-403.58"/>
<polygon fill="black" stroke="black" points="144.23,-403.62 142.13,-397.62 140.03,-403.62 144.23,-403.62"/>
</g>
<!-- Thermal_Sensor_Sensitivity_32 -->
<g id="node8" class="node">
<title>Thermal_Sensor_Sensitivity_32</title>
<path fill="#d4c4fb" stroke="black" d="M198.88,-324C198.88,-324 85.38,-324 85.38,-324 79.38,-324 73.38,-318 73.38,-312 73.38,-312 73.38,-300 73.38,-300 73.38,-294 79.38,-288 85.38,-288 85.38,-288 198.88,-288 198.88,-288 204.88,-288 210.88,-294 210.88,-300 210.88,-300 210.88,-312 210.88,-312 210.88,-318 204.88,-324 198.88,-324"/>
<text xml:space="preserve" text-anchor="middle" x="142.12" y="-307.2" font-family="Helvetica,sans-Serif" font-size="9.00">Thermal Sensor Sensitivity 32</text>
<text xml:space="preserve" text-anchor="middle" x="142.12" y="-297.45" font-family="Helvetica,sans-Serif" font-size="9.00">120K RP</text>
</g>
<!-- Thermal_Sensor_Sensitivity_24&#45;&gt;Thermal_Sensor_Sensitivity_32 -->
<g id="edge8" class="edge">
<title>Thermal_Sensor_Sensitivity_24&#45;&gt;Thermal_Sensor_Sensitivity_32</title>
<path fill="none" stroke="black" d="M142.12,-359.7C142.12,-351.22 142.12,-340.86 142.12,-331.58"/>
<polygon fill="black" stroke="black" points="144.23,-331.62 142.13,-325.62 140.03,-331.62 144.23,-331.62"/>
</g>
<!-- Thermal_Sensor_Sensitivity_40 -->
<g id="node9" class="node">
<title>Thermal_Sensor_Sensitivity_40</title>
<path fill="#d4c4fb" stroke="black" d="M198.88,-252C198.88,-252 85.38,-252 85.38,-252 79.38,-252 73.38,-246 73.38,-240 73.38,-240 73.38,-228 73.38,-228 73.38,-222 79.38,-216 85.38,-216 85.38,-216 198.88,-216 198.88,-216 204.88,-216 210.88,-222 210.88,-228 210.88,-228 210.88,-240 210.88,-240 210.88,-246 204.88,-252 198.88,-252"/>
<text xml:space="preserve" text-anchor="middle" x="142.12" y="-235.2" font-family="Helvetica,sans-Serif" font-size="9.00">Thermal Sensor Sensitivity 40</text>
<text xml:space="preserve" text-anchor="middle" x="142.12" y="-225.45" font-family="Helvetica,sans-Serif" font-size="9.00">250K RP</text>
</g>
<!-- Thermal_Sensor_Sensitivity_32&#45;&gt;Thermal_Sensor_Sensitivity_40 -->
<g id="edge9" class="edge">
<title>Thermal_Sensor_Sensitivity_32&#45;&gt;Thermal_Sensor_Sensitivity_40</title>
<path fill="none" stroke="black" d="M142.12,-287.7C142.12,-279.22 142.12,-268.86 142.12,-259.58"/>
<polygon fill="black" stroke="black" points="144.23,-259.62 142.13,-253.62 140.03,-259.62 144.23,-259.62"/>
</g>
<!-- Thermal_Sensor_Sensitivity_50 -->
<g id="node10" class="node">
<title>Thermal_Sensor_Sensitivity_50</title>
<path fill="#d4c4fb" stroke="black" d="M198.88,-180C198.88,-180 85.38,-180 85.38,-180 79.38,-180 73.38,-174 73.38,-168 73.38,-168 73.38,-156 73.38,-156 73.38,-150 79.38,-144 85.38,-144 85.38,-144 198.88,-144 198.88,-144 204.88,-144 210.88,-150 210.88,-156 210.88,-156 210.88,-168 210.88,-168 210.88,-174 204.88,-180 198.88,-180"/>
<text xml:space="preserve" text-anchor="middle" x="142.12" y="-163.2" font-family="Helvetica,sans-Serif" font-size="9.00">Thermal Sensor Sensitivity 50</text>
<text xml:space="preserve" text-anchor="middle" x="142.12" y="-153.45" font-family="Helvetica,sans-Serif" font-size="9.00">500K RP</text>
</g>
<!-- Thermal_Sensor_Sensitivity_40&#45;&gt;Thermal_Sensor_Sensitivity_50 -->
<g id="edge10" class="edge">
<title>Thermal_Sensor_Sensitivity_40&#45;&gt;Thermal_Sensor_Sensitivity_50</title>
<path fill="none" stroke="black" d="M142.12,-215.7C142.12,-207.22 142.12,-196.86 142.12,-187.58"/>
<polygon fill="black" stroke="black" points="144.23,-187.62 142.13,-181.62 140.03,-187.62 144.23,-187.62"/>
</g>
<!-- Thermal_Sensor_Sensitivity_60 -->
<g id="node11" class="node">
<title>Thermal_Sensor_Sensitivity_60</title>
<path fill="#d4c4fb" stroke="black" d="M198.88,-108C198.88,-108 85.38,-108 85.38,-108 79.38,-108 73.38,-102 73.38,-96 73.38,-96 73.38,-84 73.38,-84 73.38,-78 79.38,-72 85.38,-72 85.38,-72 198.88,-72 198.88,-72 204.88,-72 210.88,-78 210.88,-84 210.88,-84 210.88,-96 210.88,-96 210.88,-102 204.88,-108 198.88,-108"/>
<text xml:space="preserve" text-anchor="middle" x="142.12" y="-91.2" font-family="Helvetica,sans-Serif" font-size="9.00">Thermal Sensor Sensitivity 60</text>
<text xml:space="preserve" text-anchor="middle" x="142.12" y="-81.45" font-family="Helvetica,sans-Serif" font-size="9.00">1.0M RP</text>
</g>
<!-- Thermal_Sensor_Sensitivity_50&#45;&gt;Thermal_Sensor_Sensitivity_60 -->
<g id="edge11" class="edge">
<title>Thermal_Sensor_Sensitivity_50&#45;&gt;Thermal_Sensor_Sensitivity_60</title>
<path fill="none" stroke="black" d="M142.12,-143.7C142.12,-135.22 142.12,-124.86 142.12,-115.58"/>
<polygon fill="black" stroke="black" points="144.23,-115.62 142.13,-109.62 140.03,-115.62 144.23,-115.62"/>
</g>
<!-- Thermal_Sensor_Sensitivity_75 -->
<g id="node12" class="node">
<title>Thermal_Sensor_Sensitivity_75</title>
<path fill="#f8d7da" stroke="black" d="M198.88,-36C198.88,-36 85.38,-36 85.38,-36 79.38,-36 73.38,-30 73.38,-24 73.38,-24 73.38,-12 73.38,-12 73.38,-6 79.38,0 85.38,0 85.38,0 198.88,0 198.88,0 204.88,0 210.88,-6 210.88,-12 210.88,-12 210.88,-24 210.88,-24 210.88,-30 204.88,-36 198.88,-36"/>
<text xml:space="preserve" text-anchor="middle" x="142.12" y="-19.2" font-family="Helvetica,sans-Serif" font-size="9.00">Thermal Sensor Sensitivity 75</text>
<text xml:space="preserve" text-anchor="middle" x="142.12" y="-9.45" font-family="Helvetica,sans-Serif" font-size="9.00">2.0M RP</text>
</g>
<!-- Thermal_Sensor_Sensitivity_60&#45;&gt;Thermal_Sensor_Sensitivity_75 -->
<g id="edge12" class="edge">
<title>Thermal_Sensor_Sensitivity_60&#45;&gt;Thermal_Sensor_Sensitivity_75</title>
<path fill="none" stroke="black" d="M142.12,-71.7C142.12,-63.22 142.12,-52.86 142.12,-43.58"/>
<polygon fill="black" stroke="black" points="144.23,-43.62 142.13,-37.62 140.03,-43.62 144.23,-43.62"/>
</g>
<!-- ext_Trans_Newtonian_Technology -->
<g id="node13" class="node">
<title>ext_Trans_Newtonian_Technology</title>
<path fill="#f0f0f0" stroke="black" stroke-dasharray="5,2" d="M274.12,-828C274.12,-828 162.12,-828 162.12,-828 156.12,-828 150.12,-822 150.12,-816 150.12,-816 150.12,-804 150.12,-804 150.12,-798 156.12,-792 162.12,-792 162.12,-792 274.12,-792 274.12,-792 280.12,-792 286.12,-798 286.12,-804 286.12,-804 286.12,-816 286.12,-816 286.12,-822 280.12,-828 274.12,-828"/>
<text xml:space="preserve" text-anchor="middle" x="218.12" y="-806.33" font-family="Helvetica,sans-Serif" font-size="9.00">Trans&#45;Newtonian Technology</text>
</g>
<!-- ext_Trans_Newtonian_Technology&#45;&gt;Thermal_Sensor_Sensitivity_6 -->
<g id="edge2" class="edge">
<title>ext_Trans_Newtonian_Technology&#45;&gt;Thermal_Sensor_Sensitivity_6</title>
<path fill="none" stroke="black" d="M199.34,-791.7C189.38,-782.53 177.04,-771.16 166.37,-761.33"/>
<polygon fill="black" stroke="black" points="167.91,-759.89 162.07,-757.37 165.06,-762.98 167.91,-759.89"/>
</g>
</g>
</svg>
