<?xml version="1.0" encoding="UTF-8" standalone="no"?>
<!DOCTYPE svg PUBLIC "-//W3C//DTD SVG 1.1//EN"
 "http://www.w3.org/Graphics/SVG/1.1/DTD/svg11.dtd">
<!-- Generated by graphviz version 14.1.2 (20260124.0452)
 -->
<!-- Title: TechTree Pages: 1 -->
<svg width="487pt" height="425pt"
 viewBox="0.00 0.00 487.00 425.00" xmlns="http://www.w3.org/2000/svg" xmlns:xlink="http://www.w3.org/1999/xlink">
<g id="graph0" class="graph" transform="scale(1 1) rotate(0) translate(4 420.75)">
<title>TechTree</title>
<polygon fill="white" stroke="none" points="-4,4 -4,-420.75 482.88,-420.75 482.88,4 -4,4"/>
<text xml:space="preserve" text-anchor="middle" x="239.44" y="-401.35" font-family="Helvetica,sans-Serif" font-weight="bold" font-size="12.00">Thermal Reduction</text>
<!-- Thermal_Reduction__Signature_1 -->
<g id="node1" class="node">
<title>Thermal_Reduction__Signature_1</title>
<path fill="#f8d7da" stroke="black" d="M448.88,-396C448.88,-396 286.62,-396 286.62,-396 280.62,-396 274.62,-390 274.62,-384 274.62,-384 274.62,-372 274.62,-372 274.62,-366 280.62,-360 286.62,-360 286.62,-360 448.88,-360 448.88,-360 454.88,-360 460.88,-366 460.88,-372 460.88,-372 460.88,-384 460.88,-384 460.88,-390 454.88,-396 448.88,-396"/>
<text xml:space="preserve" text-anchor="middle" x="367.75" y="-379.2" font-family="Helvetica,sans-Serif" font-size="9.00">Thermal Reduction: Signature 1% Normal</text>
<text xml:space="preserve" text-anchor="middle" x="367.75" y="-369.45" font-family="Helvetica,sans-Serif" font-size="9.00">2.5M RP</text>
</g>
<!-- Thermal_Reduction__Signature_1&#45;&gt;Thermal_Reduction__Signature_1 -->
<g id="edge7" class="edge">
<title>Thermal_Reduction__Signature_1&#45;&gt;Thermal_Reduction__Signature_1</title>
<path fill="none" stroke="black" d="M460.98,-389.52C471.82,-387.4 478.88,-383.55 478.88,-378 478.88,-373.75 474.74,-370.5 467.93,-368.26"/>
<polygon fill="black" stroke="black" points="468.78,-366.3 462.44,-366.85 467.74,-370.37 468.78,-366.3"/>
</g>
<!-- Thermal_Reduction__Signature_7 -->
<g id="node2" class="node">
<title>Thermal_Reduction__Signature_7</title>
<path fill="#cce5ff" stroke="black" d="M179.5,-324C179.5,-324 12,-324 12,-324 6,-324 0,-318 0,-312 0,-312 0,-300 0,-300 0,-294 6,-288 12,-288 12,-288 179.5,-288 179.5,-288 185.5,-288 191.5,-294 191.5,-300 191.5,-300 191.5,-312 191.5,-312 191.5,-318 185.5,-324 179.5,-324"/>
<text xml:space="preserve" text-anchor="middle" x="95.75" y="-307.2" font-family="Helvetica,sans-Serif" font-size="9.00">Thermal Reduction: Signature 75% Normal</text>
<text xml:space="preserve" text-anchor="middle" x="95.75" y="-297.45" font-family="Helvetica,sans-Serif" font-size="9.00">2K RP</text>
</g>
<!-- Thermal_Reduction__Signature_1&#45;&gt;Thermal_Reduction__Signature_7 -->
<g id="edge1" class="edge">
<title>Thermal_Reduction__Signature_1&#45;&gt;Thermal_Reduction__Signature_7</title>
<path fill="none" stroke="black" d="M299.81,-359.52C260.48,-349.39 210.91,-336.64 170.47,-326.23"/>
<polygon fill="black" stroke="black" points="171.09,-324.22 164.76,-324.76 170.04,-328.29 171.09,-324.22"/>
</g>
<!-- Thermal_Reduction__Signature_8 -->
<g id="node6" class="node">
<title>Thermal_Reduction__Signature_8</title>
<path fill="#fff3cd" stroke="black" d="M383.88,-324C383.88,-324 221.62,-324 221.62,-324 215.62,-324 209.62,-318 209.62,-312 209.62,-312 209.62,-300 209.62,-300 209.62,-294 215.62,-288 221.62,-288 221.62,-288 383.88,-288 383.88,-288 389.88,-288 395.88,-294 395.88,-300 395.88,-300 395.88,-312 395.88,-312 395.88,-318 389.88,-324 383.88,-324"/>
<text xml:space="preserve" text-anchor="middle" x="302.75" y="-307.2" font-family="Helvetica,sans-Serif" font-size="9.00">Thermal Reduction: Signature 8% Normal</text>
<text xml:space="preserve" text-anchor="middle" x="302.75" y="-297.45" font-family="Helvetica,sans-Serif" font-size="9.00">100K RP</text>
</g>
<!-- Thermal_Reduction__Signature_1&#45;&gt;Thermal_Reduction__Signature_8 -->
<g id="edge8" class="edge">
<title>Thermal_Reduction__Signature_1&#45;&gt;Thermal_Reduction__Signature_8</title>
<path fill="none" stroke="black" d="M351.68,-359.7C343.18,-350.54 332.64,-339.19 323.53,-329.38"/>
<polygon fill="black" stroke="black" points="325.28,-328.18 319.66,-325.21 322.21,-331.04 325.28,-328.18"/>
</g>
<!-- Thermal_Reduction__Signature_5 -->
<g id="node3" class="node">
<title>Thermal_Reduction__Signature_5</title>
<path fill="#cce5ff" stroke="black" d="M179.5,-180C179.5,-180 12,-180 12,-180 6,-180 0,-174 0,-168 0,-168 0,-156 0,-156 0,-150 6,-144 12,-144 12,-144 179.5,-144 179.5,-144 185.5,-144 191.5,-150 191.5,-156 191.5,-156 191.5,-168 191.5,-168 191.5,-174 185.5,-180 179.5,-180"/>
<text xml:space="preserve" text-anchor="middle" x="95.75" y="-163.2" font-family="Helvetica,sans-Serif" font-size="9.00">Thermal Reduction: Signature 50% Normal</text>
<text xml:space="preserve" text-anchor="middle" x="95.75" y="-153.45" font-family="Helvetica,sans-Serif" font-size="9.00">3K RP</text>
</g>
<!-- Thermal_Reduction__Signature_7&#45;&gt;Thermal_Reduction__Signature_5 -->
<g id="edge3" class="edge">
<title>Thermal_Reduction__Signature_7&#45;&gt;Thermal_Reduction__Signature_5</title>
<path fill="none" stroke="black" d="M95.75,-287.59C95.75,-262.43 95.75,-215.83 95.75,-187.3"/>
<polygon fill="black" stroke="black" points="97.85,-187.62 95.75,-181.62 93.65,-187.62 97.85,-187.62"/>
</g>
<!-- Thermal_Reduction__Signature_3 -->
<g id="node4" class="node">
<title>Thermal_Reduction__Signature_3</title>
<path fill="#d4c4fb" stroke="black" d="M383.88,-108C383.88,-108 221.62,-108 221.62,-108 215.62,-108 209.62,-102 209.62,-96 209.62,-96 209.62,-84 209.62,-84 209.62,-78 215.62,-72 221.62,-72 221.62,-72 383.88,-72 383.88,-72 389.88,-72 395.88,-78 395.88,-84 395.88,-84 395.88,-96 395.88,-96 395.88,-102 389.88,-108 383.88,-108"/>
<text xml:space="preserve" text-anchor="middle" x="302.75" y="-91.2" font-family="Helvetica,sans-Serif" font-size="9.00">Thermal Reduction: Signature 3% Normal</text>
<text xml:space="preserve" text-anchor="middle" x="302.75" y="-81.45" font-family="Helvetica,sans-Serif" font-size="9.00">750K RP</text>
</g>
<!-- Thermal_Reduction__Signature_5&#45;&gt;Thermal_Reduction__Signature_3 -->
<g id="edge4" class="edge">
<title>Thermal_Reduction__Signature_5&#45;&gt;Thermal_Reduction__Signature_3</title>
<path fill="none" stroke="black" d="M147.45,-143.52C176.95,-133.54 214.02,-121 244.54,-110.68"/>
<polygon fill="black" stroke="black" points="244.9,-112.78 249.92,-108.87 243.56,-108.8 244.9,-112.78"/>
</g>
<!-- Thermal_Reduction__Signature_2 -->
<g id="node5" class="node">
<title>Thermal_Reduction__Signature_2</title>
<path fill="#f8d7da" stroke="black" d="M448.88,-36C448.88,-36 286.62,-36 286.62,-36 280.62,-36 274.62,-30 274.62,-24 274.62,-24 274.62,-12 274.62,-12 274.62,-6 280.62,0 286.62,0 286.62,0 448.88,0 448.88,0 454.88,0 460.88,-6 460.88,-12 460.88,-12 460.88,-24 460.88,-24 460.88,-30 454.88,-36 448.88,-36"/>
<text xml:space="preserve" text-anchor="middle" x="367.75" y="-19.2" font-family="Helvetica,sans-Serif" font-size="9.00">Thermal Reduction: Signature 2% Normal</text>
<text xml:space="preserve" text-anchor="middle" x="367.75" y="-9.45" font-family="Helvetica,sans-Serif" font-size="9.00">1.5M RP</text>
</g>
<!-- Thermal_Reduction__Signature_3&#45;&gt;Thermal_Reduction__Signature_2 -->
<g id="edge5" class="edge">
<title>Thermal_Reduction__Signature_3&#45;&gt;Thermal_Reduction__Signature_2</title>
<path fill="none" stroke="black" d="M312.9,-71.7C320.4,-62.61 330.7,-51.36 340.41,-41.6"/>
<polygon fill="black" stroke="black" points="341.85,-43.12 344.65,-37.41 338.9,-40.13 341.85,-43.12"/>
</g>
<!-- Thermal_Reduction__Signature_3&#45;&gt;Thermal_Reduction__Signature_2 -->
<g id="edge12" class="edge">
<title>Thermal_Reduction__Signature_3&#45;&gt;Thermal_Reduction__Signature_2</title>
<path fill="none" stroke="black" d="M324.73,-71.7C334.09,-62.63 344.66,-51.4 353.08,-41.65"/>
<polygon fill="black" stroke="black" points="354.52,-43.2 356.79,-37.26 351.31,-40.49 354.52,-43.2"/>
</g>
<!-- Thermal_Reduction__Signature_2&#45;&gt;Thermal_Reduction__Signature_1 -->
<g id="edge6" class="edge">
<title>Thermal_Reduction__Signature_2&#45;&gt;Thermal_Reduction__Signature_1</title>
<path fill="none" stroke="black" d="M375.66,-36.21C391.61,-61.82 423.75,-112.2 423.75,-161 423.75,-235 423.75,-235 423.75,-235 423.75,-280.18 396.21,-326.71 379.46,-353.69"/>
<polygon fill="black" stroke="black" points="377.85,-352.3 376.46,-358.5 381.42,-354.52 377.85,-352.3"/>
</g>
<!-- Thermal_Reduction__Signature_2&#45;&gt;Thermal_Reduction__Signature_1 -->
<g id="edge13" class="edge">
<title>Thermal_Reduction__Signature_2&#45;&gt;Thermal_Reduction__Signature_1</title>
<path fill="none" stroke="black" d="M387.41,-36.21C409.61,-61.82 441.75,-112.2 441.75,-161 441.75,-235 441.75,-235 441.75,-235 441.75,-280.37 413.98,-327.1 392.22,-354.03"/>
<polygon fill="black" stroke="black" points="390.62,-352.68 388.38,-358.63 393.84,-355.37 390.62,-352.68"/>
</g>
<!-- Thermal_Reduction__Signature_6 -->
<g id="node7" class="node">
<title>Thermal_Reduction__Signature_6</title>
<path fill="#d4c4fb" stroke="black" d="M383.88,-252C383.88,-252 221.62,-252 221.62,-252 215.62,-252 209.62,-246 209.62,-240 209.62,-240 209.62,-228 209.62,-228 209.62,-222 215.62,-216 221.62,-216 221.62,-216 383.88,-216 383.88,-216 389.88,-216 395.88,-222 395.88,-228 395.88,-228 395.88,-240 395.88,-240 395.88,-246 389.88,-252 383.88,-252"/>
<text xml:space="preserve" text-anchor="middle" x="302.75" y="-235.2" font-family="Helvetica,sans-Serif" font-size="9.00">Thermal Reduction: Signature 6% Normal</text>
<text xml:space="preserve" text-anchor="middle" x="302.75" y="-225.45" font-family="Helvetica,sans-Serif" font-size="9.00">200K RP</text>
</g>
<!-- Thermal_Reduction__Signature_8&#45;&gt;Thermal_Reduction__Signature_6 -->
<g id="edge9" class="edge">
<title>Thermal_Reduction__Signature_8&#45;&gt;Thermal_Reduction__Signature_6</title>
<path fill="none" stroke="black" d="M302.75,-287.7C302.75,-279.22 302.75,-268.86 302.75,-259.58"/>
<polygon fill="black" stroke="black" points="304.85,-259.62 302.75,-253.62 300.65,-259.62 304.85,-259.62"/>
</g>
<!-- Thermal_Reduction__Signature_4 -->
<g id="node8" class="node">
<title>Thermal_Reduction__Signature_4</title>
<path fill="#d4c4fb" stroke="black" d="M383.88,-180C383.88,-180 221.62,-180 221.62,-180 215.62,-180 209.62,-174 209.62,-168 209.62,-168 209.62,-156 209.62,-156 209.62,-150 215.62,-144 221.62,-144 221.62,-144 383.88,-144 383.88,-144 389.88,-144 395.88,-150 395.88,-156 395.88,-156 395.88,-168 395.88,-168 395.88,-174 389.88,-180 383.88,-180"/>
<text xml:space="preserve" text-anchor="middle" x="302.75" y="-163.2" font-family="Helvetica,sans-Serif" font-size="9.00">Thermal Reduction: Signature 4% Normal</text>
<text xml:space="preserve" text-anchor="middle" x="302.75" y="-153.45" font-family="Helvetica,sans-Serif" font-size="9.00">400K RP</text>
</g>
<!-- Thermal_Reduction__Signature_6&#45;&gt;Thermal_Reduction__Signature_4 -->
<g id="edge10" class="edge">
<title>Thermal_Reduction__Signature_6&#45;&gt;Thermal_Reduction__Signature_4</title>
<path fill="none" stroke="black" d="M302.75,-215.7C302.75,-207.22 302.75,-196.86 302.75,-187.58"/>
<polygon fill="black" stroke="black" points="304.85,-187.62 302.75,-181.62 300.65,-187.62 304.85,-187.62"/>
</g>
<!-- Thermal_Reduction__Signature_4&#45;&gt;Thermal_Reduction__Signature_3 -->
<g id="edge11" class="edge">
<title>Thermal_Reduction__Signature_4&#45;&gt;Thermal_Reduction__Signature_3</title>
<path fill="none" stroke="black" d="M302.75,-143.7C302.75,-135.22 302.75,-124.86 302.75,-115.58"/>
<polygon fill="black" stroke="black" points="304.85,-115.62 302.75,-109.62 300.65,-115.62 304.85,-115.62"/>
</g>
<!-- ext_Trans_Newtonian_Technology -->
<g id="node9" class="node">
<title>ext_Trans_Newtonian_Technology</title>
<path fill="#f0f0f0" stroke="black" stroke-dasharray="5,2" d="M151.75,-396C151.75,-396 39.75,-396 39.75,-396 33.75,-396 27.75,-390 27.75,-384 27.75,-384 27.75,-372 27.75,-372 27.75,-366 33.75,-360 39.75,-360 39.75,-360 151.75,-360 151.75,-360 157.75,-360 163.75,-366 163.75,-372 163.75,-372 163.75,-384 163.75,-384 163.75,-390 157.75,-396 151.75,-396"/>
<text xml:space="preserve" text-anchor="middle" x="95.75" y="-374.32" font-family="Helvetica,sans-Serif" font-size="9.00">Trans&#45;Newtonian Technology</text>
</g>
<!-- ext_Trans_Newtonian_Technology&#45;&gt;Thermal_Reduction__Signature_7 -->
<g id="edge2" class="edge">
<title>ext_Trans_Newtonian_Technology&#45;&gt;Thermal_Reduction__Signature_7</title>
<path fill="none" stroke="black" d="M95.75,-359.7C95.75,-351.22 95.75,-340.86 95.75,-331.58"/>
<polygon fill="black" stroke="black" points="97.85,-331.62 95.75,-325.62 93.65,-331.62 97.85,-331.62"/>
</g>
</g>
</svg>
