<?xml version="1.0" encoding="UTF-8" standalone="no"?>
<!DOCTYPE svg PUBLIC "-//W3C//DTD SVG 1.1//EN"
 "http://www.w3.org/Graphics/SVG/1.1/DTD/svg11.dtd">
<!-- Generated by graphviz version 14.1.2 (20260124.0452)
 -->
<!-- Title: TechTree Pages: 1 -->
<svg width="198pt" height="782pt"
 viewBox="0.00 0.00 198.00 782.00" xmlns="http://www.w3.org/2000/svg" xmlns:xlink="http://www.w3.org/1999/xlink">
<g id="graph0" class="graph" transform="scale(1 1) rotate(0) translate(4 778)">
<title>TechTree</title>
<polygon fill="white" stroke="none" points="-4,4 -4,-778 194,-778 194,4 -4,4"/>
<text xml:space="preserve" text-anchor="middle" x="95" y="-756.7" font-family="Helvetica,sans-Serif" font-weight="bold" font-size="14.00">Thermal Sensor Sensitivity</text>
<!-- Thermal_Sensor_Sensitivity_5 -->
<g id="node1" class="node">
<title>Thermal_Sensor_Sensitivity_5</title>
<path fill="#cce5ff" stroke="black" d="M154,-751C154,-751 36,-751 36,-751 30,-751 24,-745 24,-739 24,-739 24,-727 24,-727 24,-721 30,-715 36,-715 36,-715 154,-715 154,-715 160,-715 166,-721 166,-727 166,-727 166,-739 166,-739 166,-745 160,-751 154,-751"/>
<text xml:space="preserve" text-anchor="middle" x="95" y="-734.75" font-family="Helvetica,sans-Serif" font-size="10.00">Thermal Sensor Sensitivity 5</text>
<text xml:space="preserve" text-anchor="middle" x="95" y="-723.5" font-family="Helvetica,sans-Serif" font-size="10.00">1K RP</text>
</g>
<!-- Thermal_Sensor_Sensitivity_6 -->
<g id="node2" class="node">
<title>Thermal_Sensor_Sensitivity_6</title>
<path fill="#cce5ff" stroke="black" d="M154,-686C154,-686 36,-686 36,-686 30,-686 24,-680 24,-674 24,-674 24,-662 24,-662 24,-656 30,-650 36,-650 36,-650 154,-650 154,-650 160,-650 166,-656 166,-662 166,-662 166,-674 166,-674 166,-680 160,-686 154,-686"/>
<text xml:space="preserve" text-anchor="middle" x="95" y="-669.75" font-family="Helvetica,sans-Serif" font-size="10.00">Thermal Sensor Sensitivity 6</text>
<text xml:space="preserve" text-anchor="middle" x="95" y="-658.5" font-family="Helvetica,sans-Serif" font-size="10.00">2K RP</text>
</g>
<!-- Thermal_Sensor_Sensitivity_5&#45;&gt;Thermal_Sensor_Sensitivity_6 -->
<g id="edge1" class="edge">
<title>Thermal_Sensor_Sensitivity_5&#45;&gt;Thermal_Sensor_Sensitivity_6</title>
<path fill="none" stroke="black" d="M95,-714.78C95,-708.53 95,-701.33 95,-694.52"/>
<polygon fill="black" stroke="black" points="97.45,-694.71 95,-687.71 92.55,-694.71 97.45,-694.71"/>
</g>
<!-- Thermal_Sensor_Sensitivity_8 -->
<g id="node3" class="node">
<title>Thermal_Sensor_Sensitivity_8</title>
<path fill="#cce5ff" stroke="black" d="M154,-621C154,-621 36,-621 36,-621 30,-621 24,-615 24,-609 24,-609 24,-597 24,-597 24,-591 30,-585 36,-585 36,-585 154,-585 154,-585 160,-585 166,-591 166,-597 166,-597 166,-609 166,-609 166,-615 160,-621 154,-621"/>
<text xml:space="preserve" text-anchor="middle" x="95" y="-604.75" font-family="Helvetica,sans-Serif" font-size="10.00">Thermal Sensor Sensitivity 8</text>
<text xml:space="preserve" text-anchor="middle" x="95" y="-593.5" font-family="Helvetica,sans-Serif" font-size="10.00">4K RP</text>
</g>
<!-- Thermal_Sensor_Sensitivity_6&#45;&gt;Thermal_Sensor_Sensitivity_8 -->
<g id="edge2" class="edge">
<title>Thermal_Sensor_Sensitivity_6&#45;&gt;Thermal_Sensor_Sensitivity_8</title>
<path fill="none" stroke="black" d="M95,-649.78C95,-643.53 95,-636.33 95,-629.52"/>
<polygon fill="black" stroke="black" points="97.45,-629.71 95,-622.71 92.55,-629.71 97.45,-629.71"/>
</g>
<!-- Thermal_Sensor_Sensitivity_11 -->
<g id="node4" class="node">
<title>Thermal_Sensor_Sensitivity_11</title>
<path fill="#cce5ff" stroke="black" d="M156.62,-556C156.62,-556 33.38,-556 33.38,-556 27.38,-556 21.38,-550 21.38,-544 21.38,-544 21.38,-532 21.38,-532 21.38,-526 27.38,-520 33.38,-520 33.38,-520 156.62,-520 156.62,-520 162.62,-520 168.62,-526 168.62,-532 168.62,-532 168.62,-544 168.62,-544 168.62,-550 162.62,-556 156.62,-556"/>
<text xml:space="preserve" text-anchor="middle" x="95" y="-539.75" font-family="Helvetica,sans-Serif" font-size="10.00">Thermal Sensor Sensitivity 11</text>
<text xml:space="preserve" text-anchor="middle" x="95" y="-528.5" font-family="Helvetica,sans-Serif" font-size="10.00">8K RP</text>
</g>
<!-- Thermal_Sensor_Sensitivity_8&#45;&gt;Thermal_Sensor_Sensitivity_11 -->
<g id="edge3" class="edge">
<title>Thermal_Sensor_Sensitivity_8&#45;&gt;Thermal_Sensor_Sensitivity_11</title>
<path fill="none" stroke="black" d="M95,-584.78C95,-578.53 95,-571.33 95,-564.52"/>
<polygon fill="black" stroke="black" points="97.45,-564.71 95,-557.71 92.55,-564.71 97.45,-564.71"/>
</g>
<!-- Thermal_Sensor_Sensitivity_14 -->
<g id="node5" class="node">
<title>Thermal_Sensor_Sensitivity_14</title>
<path fill="#fff3cd" stroke="black" d="M156.62,-491C156.62,-491 33.38,-491 33.38,-491 27.38,-491 21.38,-485 21.38,-479 21.38,-479 21.38,-467 21.38,-467 21.38,-461 27.38,-455 33.38,-455 33.38,-455 156.62,-455 156.62,-455 162.62,-455 168.62,-461 168.62,-467 168.62,-467 168.62,-479 168.62,-479 168.62,-485 162.62,-491 156.62,-491"/>
<text xml:space="preserve" text-anchor="middle" x="95" y="-474.75" font-family="Helvetica,sans-Serif" font-size="10.00">Thermal Sensor Sensitivity 14</text>
<text xml:space="preserve" text-anchor="middle" x="95" y="-463.5" font-family="Helvetica,sans-Serif" font-size="10.00">15K RP</text>
</g>
<!-- Thermal_Sensor_Sensitivity_11&#45;&gt;Thermal_Sensor_Sensitivity_14 -->
<g id="edge4" class="edge">
<title>Thermal_Sensor_Sensitivity_11&#45;&gt;Thermal_Sensor_Sensitivity_14</title>
<path fill="none" stroke="black" d="M95,-519.78C95,-513.53 95,-506.33 95,-499.52"/>
<polygon fill="black" stroke="black" points="97.45,-499.71 95,-492.71 92.55,-499.71 97.45,-499.71"/>
</g>
<!-- Thermal_Sensor_Sensitivity_18 -->
<g id="node6" class="node">
<title>Thermal_Sensor_Sensitivity_18</title>
<path fill="#fff3cd" stroke="black" d="M156.62,-426C156.62,-426 33.38,-426 33.38,-426 27.38,-426 21.38,-420 21.38,-414 21.38,-414 21.38,-402 21.38,-402 21.38,-396 27.38,-390 33.38,-390 33.38,-390 156.62,-390 156.62,-390 162.62,-390 168.62,-396 168.62,-402 168.62,-402 168.62,-414 168.62,-414 168.62,-420 162.62,-426 156.62,-426"/>
<text xml:space="preserve" text-anchor="middle" x="95" y="-409.75" font-family="Helvetica,sans-Serif" font-size="10.00">Thermal Sensor Sensitivity 18</text>
<text xml:space="preserve" text-anchor="middle" x="95" y="-398.5" font-family="Helvetica,sans-Serif" font-size="10.00">30K RP</text>
</g>
<!-- Thermal_Sensor_Sensitivity_14&#45;&gt;Thermal_Sensor_Sensitivity_18 -->
<g id="edge5" class="edge">
<title>Thermal_Sensor_Sensitivity_14&#45;&gt;Thermal_Sensor_Sensitivity_18</title>
<path fill="none" stroke="black" d="M95,-454.78C95,-448.53 95,-441.33 95,-434.52"/>
<polygon fill="black" stroke="black" points="97.45,-434.71 95,-427.71 92.55,-434.71 97.45,-434.71"/>
</g>
<!-- Thermal_Sensor_Sensitivity_24 -->
<g id="node7" class="node">
<title>Thermal_Sensor_Sensitivity_24</title>
<path fill="#fff3cd" stroke="black" d="M156.62,-361C156.62,-361 33.38,-361 33.38,-361 27.38,-361 21.38,-355 21.38,-349 21.38,-349 21.38,-337 21.38,-337 21.38,-331 27.38,-325 33.38,-325 33.38,-325 156.62,-325 156.62,-325 162.62,-325 168.62,-331 168.62,-337 168.62,-337 168.62,-349 168.62,-349 168.62,-355 162.62,-361 156.62,-361"/>
<text xml:space="preserve" text-anchor="middle" x="95" y="-344.75" font-family="Helvetica,sans-Serif" font-size="10.00">Thermal Sensor Sensitivity 24</text>
<text xml:space="preserve" text-anchor="middle" x="95" y="-333.5" font-family="Helvetica,sans-Serif" font-size="10.00">60K RP</text>
</g>
<!-- Thermal_Sensor_Sensitivity_18&#45;&gt;Thermal_Sensor_Sensitivity_24 -->
<g id="edge6" class="edge">
<title>Thermal_Sensor_Sensitivity_18&#45;&gt;Thermal_Sensor_Sensitivity_24</title>
<path fill="none" stroke="black" d="M95,-389.78C95,-383.53 95,-376.33 95,-369.52"/>
<polygon fill="black" stroke="black" points="97.45,-369.71 95,-362.71 92.55,-369.71 97.45,-369.71"/>
</g>
<!-- Thermal_Sensor_Sensitivity_32 -->
<g id="node8" class="node">
<title>Thermal_Sensor_Sensitivity_32</title>
<path fill="#d4c4fb" stroke="black" d="M156.62,-296C156.62,-296 33.38,-296 33.38,-296 27.38,-296 21.38,-290 21.38,-284 21.38,-284 21.38,-272 21.38,-272 21.38,-266 27.38,-260 33.38,-260 33.38,-260 156.62,-260 156.62,-260 162.62,-260 168.62,-266 168.62,-272 168.62,-272 168.62,-284 168.62,-284 168.62,-290 162.62,-296 156.62,-296"/>
<text xml:space="preserve" text-anchor="middle" x="95" y="-279.75" font-family="Helvetica,sans-Serif" font-size="10.00">Thermal Sensor Sensitivity 32</text>
<text xml:space="preserve" text-anchor="middle" x="95" y="-268.5" font-family="Helvetica,sans-Serif" font-size="10.00">120K RP</text>
</g>
<!-- Thermal_Sensor_Sensitivity_24&#45;&gt;Thermal_Sensor_Sensitivity_32 -->
<g id="edge7" class="edge">
<title>Thermal_Sensor_Sensitivity_24&#45;&gt;Thermal_Sensor_Sensitivity_32</title>
<path fill="none" stroke="black" d="M95,-324.78C95,-318.53 95,-311.33 95,-304.52"/>
<polygon fill="black" stroke="black" points="97.45,-304.71 95,-297.71 92.55,-304.71 97.45,-304.71"/>
</g>
<!-- Thermal_Sensor_Sensitivity_40 -->
<g id="node9" class="node">
<title>Thermal_Sensor_Sensitivity_40</title>
<path fill="#d4c4fb" stroke="black" d="M156.62,-231C156.62,-231 33.38,-231 33.38,-231 27.38,-231 21.38,-225 21.38,-219 21.38,-219 21.38,-207 21.38,-207 21.38,-201 27.38,-195 33.38,-195 33.38,-195 156.62,-195 156.62,-195 162.62,-195 168.62,-201 168.62,-207 168.62,-207 168.62,-219 168.62,-219 168.62,-225 162.62,-231 156.62,-231"/>
<text xml:space="preserve" text-anchor="middle" x="95" y="-214.75" font-family="Helvetica,sans-Serif" font-size="10.00">Thermal Sensor Sensitivity 40</text>
<text xml:space="preserve" text-anchor="middle" x="95" y="-203.5" font-family="Helvetica,sans-Serif" font-size="10.00">250K RP</text>
</g>
<!-- Thermal_Sensor_Sensitivity_32&#45;&gt;Thermal_Sensor_Sensitivity_40 -->
<g id="edge8" class="edge">
<title>Thermal_Sensor_Sensitivity_32&#45;&gt;Thermal_Sensor_Sensitivity_40</title>
<path fill="none" stroke="black" d="M95,-259.78C95,-253.53 95,-246.33 95,-239.52"/>
<polygon fill="black" stroke="black" points="97.45,-239.71 95,-232.71 92.55,-239.71 97.45,-239.71"/>
</g>
<!-- Thermal_Sensor_Sensitivity_50 -->
<g id="node10" class="node">
<title>Thermal_Sensor_Sensitivity_50</title>
<path fill="#d4c4fb" stroke="black" d="M156.62,-166C156.62,-166 33.38,-166 33.38,-166 27.38,-166 21.38,-160 21.38,-154 21.38,-154 21.38,-142 21.38,-142 21.38,-136 27.38,-130 33.38,-130 33.38,-130 156.62,-130 156.62,-130 162.62,-130 168.62,-136 168.62,-142 168.62,-142 168.62,-154 168.62,-154 168.62,-160 162.62,-166 156.62,-166"/>
<text xml:space="preserve" text-anchor="middle" x="95" y="-149.75" font-family="Helvetica,sans-Serif" font-size="10.00">Thermal Sensor Sensitivity 50</text>
<text xml:space="preserve" text-anchor="middle" x="95" y="-138.5" font-family="Helvetica,sans-Serif" font-size="10.00">500K RP</text>
</g>
<!-- Thermal_Sensor_Sensitivity_40&#45;&gt;Thermal_Sensor_Sensitivity_50 -->
<g id="edge9" class="edge">
<title>Thermal_Sensor_Sensitivity_40&#45;&gt;Thermal_Sensor_Sensitivity_50</title>
<path fill="none" stroke="black" d="M95,-194.78C95,-188.53 95,-181.33 95,-174.52"/>
<polygon fill="black" stroke="black" points="97.45,-174.71 95,-167.71 92.55,-174.71 97.45,-174.71"/>
</g>
<!-- Thermal_Sensor_Sensitivity_60 -->
<g id="node11" class="node">
<title>Thermal_Sensor_Sensitivity_60</title>
<path fill="#d4c4fb" stroke="black" d="M156.62,-101C156.62,-101 33.38,-101 33.38,-101 27.38,-101 21.38,-95 21.38,-89 21.38,-89 21.38,-77 21.38,-77 21.38,-71 27.38,-65 33.38,-65 33.38,-65 156.62,-65 156.62,-65 162.62,-65 168.62,-71 168.62,-77 168.62,-77 168.62,-89 168.62,-89 168.62,-95 162.62,-101 156.62,-101"/>
<text xml:space="preserve" text-anchor="middle" x="95" y="-84.75" font-family="Helvetica,sans-Serif" font-size="10.00">Thermal Sensor Sensitivity 60</text>
<text xml:space="preserve" text-anchor="middle" x="95" y="-73.5" font-family="Helvetica,sans-Serif" font-size="10.00">1.0M RP</text>
</g>
<!-- Thermal_Sensor_Sensitivity_50&#45;&gt;Thermal_Sensor_Sensitivity_60 -->
<g id="edge10" class="edge">
<title>Thermal_Sensor_Sensitivity_50&#45;&gt;Thermal_Sensor_Sensitivity_60</title>
<path fill="none" stroke="black" d="M95,-129.78C95,-123.53 95,-116.33 95,-109.52"/>
<polygon fill="black" stroke="black" points="97.45,-109.71 95,-102.71 92.55,-109.71 97.45,-109.71"/>
</g>
<!-- Thermal_Sensor_Sensitivity_75 -->
<g id="node12" class="node">
<title>Thermal_Sensor_Sensitivity_75</title>
<path fill="#f8d7da" stroke="black" d="M156.62,-36C156.62,-36 33.38,-36 33.38,-36 27.38,-36 21.38,-30 21.38,-24 21.38,-24 21.38,-12 21.38,-12 21.38,-6 27.38,0 33.38,0 33.38,0 156.62,0 156.62,0 162.62,0 168.62,-6 168.62,-12 168.62,-12 168.62,-24 168.62,-24 168.62,-30 162.62,-36 156.62,-36"/>
<text xml:space="preserve" text-anchor="middle" x="95" y="-19.75" font-family="Helvetica,sans-Serif" font-size="10.00">Thermal Sensor Sensitivity 75</text>
<text xml:space="preserve" text-anchor="middle" x="95" y="-8.5" font-family="Helvetica,sans-Serif" font-size="10.00">2.0M RP</text>
</g>
<!-- Thermal_Sensor_Sensitivity_60&#45;&gt;Thermal_Sensor_Sensitivity_75 -->
<g id="edge11" class="edge">
<title>Thermal_Sensor_Sensitivity_60&#45;&gt;Thermal_Sensor_Sensitivity_75</title>
<path fill="none" stroke="black" d="M95,-64.78C95,-58.53 95,-51.33 95,-44.52"/>
<polygon fill="black" stroke="black" points="97.45,-44.71 95,-37.71 92.55,-44.71 97.45,-44.71"/>
</g>
</g>
</svg>
