<?xml version="1.0" encoding="UTF-8" standalone="no"?>
<!DOCTYPE svg PUBLIC "-//W3C//DTD SVG 1.1//EN"
 "http://www.w3.org/Graphics/SVG/1.1/DTD/svg11.dtd">
<!-- Generated by graphviz version 14.1.2 (20260124.0452)
 -->
<!-- Title: TechTree Pages: 1 -->
<svg width="524pt" height="392pt"
 viewBox="0.00 0.00 524.00 392.00" xmlns="http://www.w3.org/2000/svg" xmlns:xlink="http://www.w3.org/1999/xlink">
<g id="graph0" class="graph" transform="scale(1 1) rotate(0) translate(4 388)">
<title>TechTree</title>
<polygon fill="white" stroke="none" points="-4,4 -4,-388 520.12,-388 520.12,4 -4,4"/>
<text xml:space="preserve" text-anchor="middle" x="258.06" y="-366.7" font-family="Helvetica,sans-Serif" font-weight="bold" font-size="14.00">Thermal Reduction</text>
<!-- Thermal_Reduction__Signature_1 -->
<g id="node1" class="node">
<title>Thermal_Reduction__Signature_1</title>
<path fill="#f8d7da" stroke="black" d="M482.12,-361C482.12,-361 308.62,-361 308.62,-361 302.62,-361 296.62,-355 296.62,-349 296.62,-349 296.62,-337 296.62,-337 296.62,-331 302.62,-325 308.62,-325 308.62,-325 482.12,-325 482.12,-325 488.12,-325 494.12,-331 494.12,-337 494.12,-337 494.12,-349 494.12,-349 494.12,-355 488.12,-361 482.12,-361"/>
<text xml:space="preserve" text-anchor="middle" x="395.38" y="-344.75" font-family="Helvetica,sans-Serif" font-size="10.00">Thermal Reduction: Signature 1% Normal</text>
<text xml:space="preserve" text-anchor="middle" x="395.38" y="-333.5" font-family="Helvetica,sans-Serif" font-size="10.00">2.5M RP</text>
</g>
<!-- Thermal_Reduction__Signature_1&#45;&gt;Thermal_Reduction__Signature_1 -->
<g id="edge6" class="edge">
<title>Thermal_Reduction__Signature_1&#45;&gt;Thermal_Reduction__Signature_1</title>
<path fill="none" stroke="black" d="M494.39,-353.75C507.46,-351.91 516.12,-348.33 516.12,-343 516.12,-338.88 510.94,-335.8 502.54,-333.77"/>
<polygon fill="black" stroke="black" points="503.21,-331.4 495.88,-332.53 502.31,-336.22 503.21,-331.4"/>
</g>
<!-- Thermal_Reduction__Signature_7 -->
<g id="node2" class="node">
<title>Thermal_Reduction__Signature_7</title>
<path fill="#cce5ff" stroke="black" d="M190.75,-296C190.75,-296 12,-296 12,-296 6,-296 0,-290 0,-284 0,-284 0,-272 0,-272 0,-266 6,-260 12,-260 12,-260 190.75,-260 190.75,-260 196.75,-260 202.75,-266 202.75,-272 202.75,-272 202.75,-284 202.75,-284 202.75,-290 196.75,-296 190.75,-296"/>
<text xml:space="preserve" text-anchor="middle" x="101.38" y="-279.75" font-family="Helvetica,sans-Serif" font-size="10.00">Thermal Reduction: Signature 75% Normal</text>
<text xml:space="preserve" text-anchor="middle" x="101.38" y="-268.5" font-family="Helvetica,sans-Serif" font-size="10.00">2K RP</text>
</g>
<!-- Thermal_Reduction__Signature_1&#45;&gt;Thermal_Reduction__Signature_7 -->
<g id="edge1" class="edge">
<title>Thermal_Reduction__Signature_1&#45;&gt;Thermal_Reduction__Signature_7</title>
<path fill="none" stroke="black" d="M313.87,-324.53C275.79,-316.38 230.35,-306.64 191.27,-298.26"/>
<polygon fill="black" stroke="black" points="191.88,-295.89 184.52,-296.82 190.85,-300.68 191.88,-295.89"/>
</g>
<!-- Thermal_Reduction__Signature_8 -->
<g id="node6" class="node">
<title>Thermal_Reduction__Signature_8</title>
<path fill="#fff3cd" stroke="black" d="M410.12,-296C410.12,-296 236.62,-296 236.62,-296 230.62,-296 224.62,-290 224.62,-284 224.62,-284 224.62,-272 224.62,-272 224.62,-266 230.62,-260 236.62,-260 236.62,-260 410.12,-260 410.12,-260 416.12,-260 422.12,-266 422.12,-272 422.12,-272 422.12,-284 422.12,-284 422.12,-290 416.12,-296 410.12,-296"/>
<text xml:space="preserve" text-anchor="middle" x="323.38" y="-279.75" font-family="Helvetica,sans-Serif" font-size="10.00">Thermal Reduction: Signature 8% Normal</text>
<text xml:space="preserve" text-anchor="middle" x="323.38" y="-268.5" font-family="Helvetica,sans-Serif" font-size="10.00">100K RP</text>
</g>
<!-- Thermal_Reduction__Signature_1&#45;&gt;Thermal_Reduction__Signature_8 -->
<g id="edge7" class="edge">
<title>Thermal_Reduction__Signature_1&#45;&gt;Thermal_Reduction__Signature_8</title>
<path fill="none" stroke="black" d="M375.7,-324.78C367.53,-317.63 357.93,-309.23 349.2,-301.59"/>
<polygon fill="black" stroke="black" points="351.05,-299.96 344.16,-297.19 347.82,-303.64 351.05,-299.96"/>
</g>
<!-- Thermal_Reduction__Signature_5 -->
<g id="node3" class="node">
<title>Thermal_Reduction__Signature_5</title>
<path fill="#cce5ff" stroke="black" d="M190.75,-166C190.75,-166 12,-166 12,-166 6,-166 0,-160 0,-154 0,-154 0,-142 0,-142 0,-136 6,-130 12,-130 12,-130 190.75,-130 190.75,-130 196.75,-130 202.75,-136 202.75,-142 202.75,-142 202.75,-154 202.75,-154 202.75,-160 196.75,-166 190.75,-166"/>
<text xml:space="preserve" text-anchor="middle" x="101.38" y="-149.75" font-family="Helvetica,sans-Serif" font-size="10.00">Thermal Reduction: Signature 50% Normal</text>
<text xml:space="preserve" text-anchor="middle" x="101.38" y="-138.5" font-family="Helvetica,sans-Serif" font-size="10.00">3K RP</text>
</g>
<!-- Thermal_Reduction__Signature_7&#45;&gt;Thermal_Reduction__Signature_5 -->
<g id="edge2" class="edge">
<title>Thermal_Reduction__Signature_7&#45;&gt;Thermal_Reduction__Signature_5</title>
<path fill="none" stroke="black" d="M101.38,-259.74C101.38,-237.88 101.38,-200.05 101.38,-174.77"/>
<polygon fill="black" stroke="black" points="103.83,-174.91 101.38,-167.91 98.93,-174.91 103.83,-174.91"/>
</g>
<!-- Thermal_Reduction__Signature_3 -->
<g id="node4" class="node">
<title>Thermal_Reduction__Signature_3</title>
<path fill="#d4c4fb" stroke="black" d="M410.12,-101C410.12,-101 236.62,-101 236.62,-101 230.62,-101 224.62,-95 224.62,-89 224.62,-89 224.62,-77 224.62,-77 224.62,-71 230.62,-65 236.62,-65 236.62,-65 410.12,-65 410.12,-65 416.12,-65 422.12,-71 422.12,-77 422.12,-77 422.12,-89 422.12,-89 422.12,-95 416.12,-101 410.12,-101"/>
<text xml:space="preserve" text-anchor="middle" x="323.38" y="-84.75" font-family="Helvetica,sans-Serif" font-size="10.00">Thermal Reduction: Signature 3% Normal</text>
<text xml:space="preserve" text-anchor="middle" x="323.38" y="-73.5" font-family="Helvetica,sans-Serif" font-size="10.00">750K RP</text>
</g>
<!-- Thermal_Reduction__Signature_5&#45;&gt;Thermal_Reduction__Signature_3 -->
<g id="edge3" class="edge">
<title>Thermal_Reduction__Signature_5&#45;&gt;Thermal_Reduction__Signature_3</title>
<path fill="none" stroke="black" d="M162.92,-129.53C191.07,-121.55 224.55,-112.04 253.63,-103.79"/>
<polygon fill="black" stroke="black" points="254.19,-106.18 260.25,-101.91 252.85,-101.47 254.19,-106.18"/>
</g>
<!-- Thermal_Reduction__Signature_2 -->
<g id="node5" class="node">
<title>Thermal_Reduction__Signature_2</title>
<path fill="#f8d7da" stroke="black" d="M482.12,-36C482.12,-36 308.62,-36 308.62,-36 302.62,-36 296.62,-30 296.62,-24 296.62,-24 296.62,-12 296.62,-12 296.62,-6 302.62,0 308.62,0 308.62,0 482.12,0 482.12,0 488.12,0 494.12,-6 494.12,-12 494.12,-12 494.12,-24 494.12,-24 494.12,-30 488.12,-36 482.12,-36"/>
<text xml:space="preserve" text-anchor="middle" x="395.38" y="-19.75" font-family="Helvetica,sans-Serif" font-size="10.00">Thermal Reduction: Signature 2% Normal</text>
<text xml:space="preserve" text-anchor="middle" x="395.38" y="-8.5" font-family="Helvetica,sans-Serif" font-size="10.00">1.5M RP</text>
</g>
<!-- Thermal_Reduction__Signature_3&#45;&gt;Thermal_Reduction__Signature_2 -->
<g id="edge4" class="edge">
<title>Thermal_Reduction__Signature_3&#45;&gt;Thermal_Reduction__Signature_2</title>
<path fill="none" stroke="black" d="M335.6,-64.78C342.93,-57.62 352.37,-49.21 361.64,-41.56"/>
<polygon fill="black" stroke="black" points="362.93,-43.67 366.83,-37.37 359.85,-39.86 362.93,-43.67"/>
</g>
<!-- Thermal_Reduction__Signature_3&#45;&gt;Thermal_Reduction__Signature_2 -->
<g id="edge11" class="edge">
<title>Thermal_Reduction__Signature_3&#45;&gt;Thermal_Reduction__Signature_2</title>
<path fill="none" stroke="black" d="M350.49,-64.78C359.45,-57.7 369.11,-49.39 377.26,-41.82"/>
<polygon fill="black" stroke="black" points="378.69,-43.84 382.07,-37.24 375.31,-40.29 378.69,-43.84"/>
</g>
<!-- Thermal_Reduction__Signature_2&#45;&gt;Thermal_Reduction__Signature_1 -->
<g id="edge5" class="edge">
<title>Thermal_Reduction__Signature_2&#45;&gt;Thermal_Reduction__Signature_1</title>
<path fill="none" stroke="black" d="M405.26,-36.33C423.11,-59.45 456.38,-102.64 456.38,-147 456.38,-214 456.38,-214 456.38,-214 456.38,-254.38 428.82,-293.78 410.41,-317.97"/>
<polygon fill="black" stroke="black" points="408.5,-316.43 406.18,-323.47 412.39,-319.41 408.5,-316.43"/>
</g>
<!-- Thermal_Reduction__Signature_2&#45;&gt;Thermal_Reduction__Signature_1 -->
<g id="edge12" class="edge">
<title>Thermal_Reduction__Signature_2&#45;&gt;Thermal_Reduction__Signature_1</title>
<path fill="none" stroke="black" d="M420.35,-36.33C445.11,-59.45 478.38,-102.64 478.38,-147 478.38,-214 478.38,-214 478.38,-214 478.38,-254.9 450.11,-294.8 426.29,-318.89"/>
<polygon fill="black" stroke="black" points="424.75,-316.98 421.44,-323.61 428.16,-320.49 424.75,-316.98"/>
</g>
<!-- Thermal_Reduction__Signature_6 -->
<g id="node7" class="node">
<title>Thermal_Reduction__Signature_6</title>
<path fill="#d4c4fb" stroke="black" d="M410.12,-231C410.12,-231 236.62,-231 236.62,-231 230.62,-231 224.62,-225 224.62,-219 224.62,-219 224.62,-207 224.62,-207 224.62,-201 230.62,-195 236.62,-195 236.62,-195 410.12,-195 410.12,-195 416.12,-195 422.12,-201 422.12,-207 422.12,-207 422.12,-219 422.12,-219 422.12,-225 416.12,-231 410.12,-231"/>
<text xml:space="preserve" text-anchor="middle" x="323.38" y="-214.75" font-family="Helvetica,sans-Serif" font-size="10.00">Thermal Reduction: Signature 6% Normal</text>
<text xml:space="preserve" text-anchor="middle" x="323.38" y="-203.5" font-family="Helvetica,sans-Serif" font-size="10.00">200K RP</text>
</g>
<!-- Thermal_Reduction__Signature_8&#45;&gt;Thermal_Reduction__Signature_6 -->
<g id="edge8" class="edge">
<title>Thermal_Reduction__Signature_8&#45;&gt;Thermal_Reduction__Signature_6</title>
<path fill="none" stroke="black" d="M323.38,-259.78C323.38,-253.53 323.38,-246.33 323.38,-239.52"/>
<polygon fill="black" stroke="black" points="325.83,-239.71 323.38,-232.71 320.93,-239.71 325.83,-239.71"/>
</g>
<!-- Thermal_Reduction__Signature_4 -->
<g id="node8" class="node">
<title>Thermal_Reduction__Signature_4</title>
<path fill="#d4c4fb" stroke="black" d="M410.12,-166C410.12,-166 236.62,-166 236.62,-166 230.62,-166 224.62,-160 224.62,-154 224.62,-154 224.62,-142 224.62,-142 224.62,-136 230.62,-130 236.62,-130 236.62,-130 410.12,-130 410.12,-130 416.12,-130 422.12,-136 422.12,-142 422.12,-142 422.12,-154 422.12,-154 422.12,-160 416.12,-166 410.12,-166"/>
<text xml:space="preserve" text-anchor="middle" x="323.38" y="-149.75" font-family="Helvetica,sans-Serif" font-size="10.00">Thermal Reduction: Signature 4% Normal</text>
<text xml:space="preserve" text-anchor="middle" x="323.38" y="-138.5" font-family="Helvetica,sans-Serif" font-size="10.00">400K RP</text>
</g>
<!-- Thermal_Reduction__Signature_6&#45;&gt;Thermal_Reduction__Signature_4 -->
<g id="edge9" class="edge">
<title>Thermal_Reduction__Signature_6&#45;&gt;Thermal_Reduction__Signature_4</title>
<path fill="none" stroke="black" d="M323.38,-194.78C323.38,-188.53 323.38,-181.33 323.38,-174.52"/>
<polygon fill="black" stroke="black" points="325.83,-174.71 323.38,-167.71 320.93,-174.71 325.83,-174.71"/>
</g>
<!-- Thermal_Reduction__Signature_4&#45;&gt;Thermal_Reduction__Signature_3 -->
<g id="edge10" class="edge">
<title>Thermal_Reduction__Signature_4&#45;&gt;Thermal_Reduction__Signature_3</title>
<path fill="none" stroke="black" d="M323.38,-129.78C323.38,-123.53 323.38,-116.33 323.38,-109.52"/>
<polygon fill="black" stroke="black" points="325.83,-109.71 323.38,-102.71 320.93,-109.71 325.83,-109.71"/>
</g>
</g>
</svg>
