<?xml version="1.0" encoding="UTF-8" standalone="no"?>
<!DOCTYPE svg PUBLIC "-//W3C//DTD SVG 1.1//EN"
 "http://www.w3.org/Graphics/SVG/1.1/DTD/svg11.dtd">
<!-- Generated by graphviz version 14.1.2 (20260124.0452)
 -->
<!-- Title: TechTree Pages: 1 -->
<svg width="238pt" height="137pt"
 viewBox="0.00 0.00 238.00 137.00" xmlns="http://www.w3.org/2000/svg" xmlns:xlink="http://www.w3.org/1999/xlink">
<g id="graph0" class="graph" transform="scale(1 1) rotate(0) translate(4 132.75)">
<title>TechTree</title>
<polygon fill="white" stroke="none" points="-4,4 -4,-132.75 233.75,-132.75 233.75,4 -4,4"/>
<text xml:space="preserve" text-anchor="middle" x="114.88" y="-113.35" font-family="Helvetica,sans-Serif" font-weight="bold" font-size="12.00">Troop Transport &#45; Boarding Equipped</text>
<!-- Troop_Transport_Boarding_Bay__ -->
<g id="node1" class="node">
<title>Troop_Transport_Boarding_Bay__</title>
<path fill="#cce5ff" stroke="black" d="M176.88,-36C176.88,-36 16.87,-36 16.87,-36 10.88,-36 4.88,-30 4.88,-24 4.88,-24 4.88,-12 4.88,-12 4.88,-6 10.88,0 16.88,0 16.88,0 176.88,0 176.88,0 182.88,0 188.88,-6 188.88,-12 188.88,-12 188.88,-24 188.88,-24 188.88,-30 182.88,-36 176.88,-36"/>
<text xml:space="preserve" text-anchor="middle" x="96.88" y="-19.2" font-family="Helvetica,sans-Serif" font-size="9.00">Troop Transport Boarding Bay &#45; Standard</text>
<text xml:space="preserve" text-anchor="middle" x="96.88" y="-9.45" font-family="Helvetica,sans-Serif" font-size="9.00">2K RP</text>
</g>
<!-- Troop_Transport_Boarding_Bay__&#45;&gt;Troop_Transport_Boarding_Bay__ -->
<g id="edge1" class="edge">
<title>Troop_Transport_Boarding_Bay__&#45;&gt;Troop_Transport_Boarding_Bay__</title>
<path fill="none" stroke="black" d="M189.16,-23.76C199.89,-22.7 206.88,-20.78 206.88,-18 206.88,-15.92 202.95,-14.32 196.45,-13.2"/>
<polygon fill="black" stroke="black" points="196.88,-11.14 190.66,-12.44 196.33,-15.3 196.88,-11.14"/>
</g>
<!-- Troop_Transport_Boarding_Bay__&#45;&gt;Troop_Transport_Boarding_Bay__ -->
<g id="edge2" class="edge">
<title>Troop_Transport_Boarding_Bay__&#45;&gt;Troop_Transport_Boarding_Bay__</title>
<path fill="none" stroke="black" d="M189.21,-31.15C209.83,-29.94 224.88,-25.56 224.88,-18 224.88,-11.39 213.35,-7.2 196.66,-5.45"/>
<polygon fill="black" stroke="black" points="196.87,-3.36 190.72,-4.97 196.53,-7.55 196.87,-3.36"/>
</g>
<!-- ext_Troop_Transport_Bay___Standard -->
<g id="node2" class="node">
<title>ext_Troop_Transport_Bay___Standard</title>
<path fill="#f0f0f0" stroke="black" stroke-dasharray="5,2" d="M157,-108C157,-108 36.75,-108 36.75,-108 30.75,-108 24.75,-102 24.75,-96 24.75,-96 24.75,-84 24.75,-84 24.75,-78 30.75,-72 36.75,-72 36.75,-72 157,-72 157,-72 163,-72 169,-78 169,-84 169,-84 169,-96 169,-96 169,-102 163,-108 157,-108"/>
<text xml:space="preserve" text-anchor="middle" x="96.88" y="-86.33" font-family="Helvetica,sans-Serif" font-size="9.00">Troop Transport Bay &#45; Standard</text>
</g>
<!-- ext_Troop_Transport_Bay___Standard&#45;&gt;Troop_Transport_Boarding_Bay__ -->
<g id="edge3" class="edge">
<title>ext_Troop_Transport_Bay___Standard&#45;&gt;Troop_Transport_Boarding_Bay__</title>
<path fill="none" stroke="black" d="M96.88,-71.7C96.88,-63.22 96.88,-52.86 96.88,-43.58"/>
<polygon fill="black" stroke="black" points="98.98,-43.62 96.88,-37.62 94.78,-43.62 98.98,-43.62"/>
</g>
</g>
</svg>
