<?xml version="1.0" encoding="UTF-8" standalone="no"?>
<!DOCTYPE svg PUBLIC "-//W3C//DTD SVG 1.1//EN"
 "http://www.w3.org/Graphics/SVG/1.1/DTD/svg11.dtd">
<!-- Generated by graphviz version 14.1.2 (20260124.0452)
 -->
<!-- Title: TechTree Pages: 1 -->
<svg width="523pt" height="209pt"
 viewBox="0.00 0.00 523.00 209.00" xmlns="http://www.w3.org/2000/svg" xmlns:xlink="http://www.w3.org/1999/xlink">
<g id="graph0" class="graph" transform="scale(1 1) rotate(0) translate(4 204.75)">
<title>TechTree</title>
<polygon fill="white" stroke="none" points="-4,4 -4,-204.75 518.88,-204.75 518.88,4 -4,4"/>
<text xml:space="preserve" text-anchor="middle" x="257.44" y="-185.35" font-family="Helvetica,sans-Serif" font-weight="bold" font-size="12.00">Troop Transport Bay &#45; Drop Ship Equipped</text>
<!-- Troop_Transport_Drop_Bay___Lar -->
<g id="node1" class="node">
<title>Troop_Transport_Drop_Bay___Lar</title>
<path fill="#d4edda" stroke="black" d="M141.25,-36C141.25,-36 12,-36 12,-36 6,-36 0,-30 0,-24 0,-24 0,-12 0,-12 0,-6 6,0 12,0 12,0 141.25,0 141.25,0 147.25,0 153.25,-6 153.25,-12 153.25,-12 153.25,-24 153.25,-24 153.25,-30 147.25,-36 141.25,-36"/>
<text xml:space="preserve" text-anchor="middle" x="76.62" y="-19.2" font-family="Helvetica,sans-Serif" font-size="9.00">Troop Transport Drop Bay &#45; Large</text>
<text xml:space="preserve" text-anchor="middle" x="76.62" y="-9.45" font-family="Helvetica,sans-Serif" font-size="9.00">100 RP</text>
</g>
<!-- Troop_Transport_Drop_Bay___Ver -->
<g id="node2" class="node">
<title>Troop_Transport_Drop_Bay___Ver</title>
<path fill="#d4edda" stroke="black" d="M332.38,-36C332.38,-36 182.88,-36 182.88,-36 176.88,-36 170.88,-30 170.88,-24 170.88,-24 170.88,-12 170.88,-12 170.88,-6 176.88,0 182.88,0 182.88,0 332.38,0 332.38,0 338.38,0 344.38,-6 344.38,-12 344.38,-12 344.38,-24 344.38,-24 344.38,-30 338.38,-36 332.38,-36"/>
<text xml:space="preserve" text-anchor="middle" x="257.62" y="-19.2" font-family="Helvetica,sans-Serif" font-size="9.00">Troop Transport Drop Bay &#45; Very Large</text>
<text xml:space="preserve" text-anchor="middle" x="257.62" y="-9.45" font-family="Helvetica,sans-Serif" font-size="9.00">100 RP</text>
</g>
<!-- Troop_Transport_Drop_Bay___Sma -->
<g id="node3" class="node">
<title>Troop_Transport_Drop_Bay___Sma</title>
<path fill="#d4edda" stroke="black" d="M502.88,-36C502.88,-36 374.38,-36 374.38,-36 368.38,-36 362.38,-30 362.38,-24 362.38,-24 362.38,-12 362.38,-12 362.38,-6 368.38,0 374.38,0 374.38,0 502.88,0 502.88,0 508.88,0 514.88,-6 514.88,-12 514.88,-12 514.88,-24 514.88,-24 514.88,-30 508.88,-36 502.88,-36"/>
<text xml:space="preserve" text-anchor="middle" x="438.62" y="-19.2" font-family="Helvetica,sans-Serif" font-size="9.00">Troop Transport Drop Bay &#45; Small</text>
<text xml:space="preserve" text-anchor="middle" x="438.62" y="-9.45" font-family="Helvetica,sans-Serif" font-size="9.00">100 RP</text>
</g>
<!-- Troop_Transport_Drop_Bay___Sta -->
<g id="node4" class="node">
<title>Troop_Transport_Drop_Bay___Sta</title>
<path fill="#cce5ff" stroke="black" d="M329,-108C329,-108 186.25,-108 186.25,-108 180.25,-108 174.25,-102 174.25,-96 174.25,-96 174.25,-84 174.25,-84 174.25,-78 180.25,-72 186.25,-72 186.25,-72 329,-72 329,-72 335,-72 341,-78 341,-84 341,-84 341,-96 341,-96 341,-102 335,-108 329,-108"/>
<text xml:space="preserve" text-anchor="middle" x="257.62" y="-91.2" font-family="Helvetica,sans-Serif" font-size="9.00">Troop Transport Drop Bay &#45; Standard</text>
<text xml:space="preserve" text-anchor="middle" x="257.62" y="-81.45" font-family="Helvetica,sans-Serif" font-size="9.00">2K RP</text>
</g>
<!-- Troop_Transport_Drop_Bay___Sta&#45;&gt;Troop_Transport_Drop_Bay___Lar -->
<g id="edge1" class="edge">
<title>Troop_Transport_Drop_Bay___Sta&#45;&gt;Troop_Transport_Drop_Bay___Lar</title>
<path fill="none" stroke="black" d="M212.42,-71.52C186.95,-61.67 155.03,-49.32 128.53,-39.07"/>
<polygon fill="black" stroke="black" points="129.33,-37.13 122.98,-36.93 127.82,-41.05 129.33,-37.13"/>
</g>
<!-- Troop_Transport_Drop_Bay___Sta&#45;&gt;Troop_Transport_Drop_Bay___Ver -->
<g id="edge2" class="edge">
<title>Troop_Transport_Drop_Bay___Sta&#45;&gt;Troop_Transport_Drop_Bay___Ver</title>
<path fill="none" stroke="black" d="M251.71,-71.7C250.83,-63.22 250.65,-52.86 251.15,-43.58"/>
<polygon fill="black" stroke="black" points="253.24,-43.76 251.61,-37.61 249.05,-43.43 253.24,-43.76"/>
</g>
<!-- Troop_Transport_Drop_Bay___Sta&#45;&gt;Troop_Transport_Drop_Bay___Ver -->
<g id="edge4" class="edge">
<title>Troop_Transport_Drop_Bay___Sta&#45;&gt;Troop_Transport_Drop_Bay___Ver</title>
<path fill="none" stroke="black" d="M263.54,-71.7C264.42,-63.22 264.6,-52.86 264.1,-43.58"/>
<polygon fill="black" stroke="black" points="266.2,-43.43 263.64,-37.61 262.01,-43.76 266.2,-43.43"/>
</g>
<!-- Troop_Transport_Drop_Bay___Sta&#45;&gt;Troop_Transport_Drop_Bay___Sma -->
<g id="edge3" class="edge">
<title>Troop_Transport_Drop_Bay___Sta&#45;&gt;Troop_Transport_Drop_Bay___Sma</title>
<path fill="none" stroke="black" d="M302.83,-71.52C328.3,-61.67 360.22,-49.32 386.72,-39.07"/>
<polygon fill="black" stroke="black" points="387.43,-41.05 392.27,-36.93 385.92,-37.13 387.43,-41.05"/>
</g>
<!-- ext_Troop_Transport_Bay___Standard -->
<g id="node5" class="node">
<title>ext_Troop_Transport_Bay___Standard</title>
<path fill="#f0f0f0" stroke="black" stroke-dasharray="5,2" d="M317.75,-180C317.75,-180 197.5,-180 197.5,-180 191.5,-180 185.5,-174 185.5,-168 185.5,-168 185.5,-156 185.5,-156 185.5,-150 191.5,-144 197.5,-144 197.5,-144 317.75,-144 317.75,-144 323.75,-144 329.75,-150 329.75,-156 329.75,-156 329.75,-168 329.75,-168 329.75,-174 323.75,-180 317.75,-180"/>
<text xml:space="preserve" text-anchor="middle" x="257.62" y="-158.32" font-family="Helvetica,sans-Serif" font-size="9.00">Troop Transport Bay &#45; Standard</text>
</g>
<!-- ext_Troop_Transport_Bay___Standard&#45;&gt;Troop_Transport_Drop_Bay___Sta -->
<g id="edge5" class="edge">
<title>ext_Troop_Transport_Bay___Standard&#45;&gt;Troop_Transport_Drop_Bay___Sta</title>
<path fill="none" stroke="black" d="M257.62,-143.7C257.62,-135.22 257.62,-124.86 257.62,-115.58"/>
<polygon fill="black" stroke="black" points="259.73,-115.62 257.63,-109.62 255.53,-115.62 259.73,-115.62"/>
</g>
</g>
</svg>
