<?xml version="1.0" encoding="UTF-8" standalone="no"?>
<!DOCTYPE svg PUBLIC "-//W3C//DTD SVG 1.1//EN"
 "http://www.w3.org/Graphics/SVG/1.1/DTD/svg11.dtd">
<!-- Generated by graphviz version 14.1.2 (20260124.0452)
 -->
<!-- Title: TechTree Pages: 1 -->
<svg width="625pt" height="209pt"
 viewBox="0.00 0.00 625.00 209.00" xmlns="http://www.w3.org/2000/svg" xmlns:xlink="http://www.w3.org/1999/xlink">
<g id="graph0" class="graph" transform="scale(1 1) rotate(0) translate(4 204.75)">
<title>TechTree</title>
<polygon fill="white" stroke="none" points="-4,4 -4,-204.75 620.88,-204.75 620.88,4 -4,4"/>
<text xml:space="preserve" text-anchor="middle" x="308.44" y="-185.35" font-family="Helvetica,sans-Serif" font-weight="bold" font-size="12.00">Troop Transport Bay</text>
<!-- Troop_Transport_Bay___Conventi -->
<g id="node1" class="node">
<title>Troop_Transport_Bay___Conventi</title>
<path fill="#d4edda" stroke="black" d="M201.12,-108C201.12,-108 63.62,-108 63.62,-108 57.62,-108 51.62,-102 51.62,-96 51.62,-96 51.62,-84 51.62,-84 51.62,-78 57.62,-72 63.62,-72 63.62,-72 201.12,-72 201.12,-72 207.12,-72 213.12,-78 213.12,-84 213.12,-84 213.12,-96 213.12,-96 213.12,-102 207.12,-108 201.12,-108"/>
<text xml:space="preserve" text-anchor="middle" x="132.38" y="-91.2" font-family="Helvetica,sans-Serif" font-size="9.00">Troop Transport Bay &#45; Conventional</text>
<text xml:space="preserve" text-anchor="middle" x="132.38" y="-81.45" font-family="Helvetica,sans-Serif" font-size="9.00">50 RP</text>
</g>
<!-- Troop_Transport_Bay___Large -->
<g id="node2" class="node">
<title>Troop_Transport_Bay___Large</title>
<path fill="#d4edda" stroke="black" d="M118.75,-36C118.75,-36 12,-36 12,-36 6,-36 0,-30 0,-24 0,-24 0,-12 0,-12 0,-6 6,0 12,0 12,0 118.75,0 118.75,0 124.75,0 130.75,-6 130.75,-12 130.75,-12 130.75,-24 130.75,-24 130.75,-30 124.75,-36 118.75,-36"/>
<text xml:space="preserve" text-anchor="middle" x="65.38" y="-19.2" font-family="Helvetica,sans-Serif" font-size="9.00">Troop Transport Bay &#45; Large</text>
<text xml:space="preserve" text-anchor="middle" x="65.38" y="-9.45" font-family="Helvetica,sans-Serif" font-size="9.00">100 RP</text>
</g>
<!-- Troop_Transport_Bay___Very_Sma -->
<g id="node3" class="node">
<title>Troop_Transport_Bay___Very_Sma</title>
<path fill="#d4edda" stroke="black" d="M287.5,-36C287.5,-36 161.25,-36 161.25,-36 155.25,-36 149.25,-30 149.25,-24 149.25,-24 149.25,-12 149.25,-12 149.25,-6 155.25,0 161.25,0 161.25,0 287.5,0 287.5,0 293.5,0 299.5,-6 299.5,-12 299.5,-12 299.5,-24 299.5,-24 299.5,-30 293.5,-36 287.5,-36"/>
<text xml:space="preserve" text-anchor="middle" x="224.38" y="-19.2" font-family="Helvetica,sans-Serif" font-size="9.00">Troop Transport Bay &#45; Very Small</text>
<text xml:space="preserve" text-anchor="middle" x="224.38" y="-9.45" font-family="Helvetica,sans-Serif" font-size="9.00">100 RP</text>
</g>
<!-- Troop_Transport_Bay___Small -->
<g id="node4" class="node">
<title>Troop_Transport_Bay___Small</title>
<path fill="#d4edda" stroke="black" d="M435.38,-36C435.38,-36 329.38,-36 329.38,-36 323.38,-36 317.38,-30 317.38,-24 317.38,-24 317.38,-12 317.38,-12 317.38,-6 323.38,0 329.38,0 329.38,0 435.38,0 435.38,0 441.38,0 447.38,-6 447.38,-12 447.38,-12 447.38,-24 447.38,-24 447.38,-30 441.38,-36 435.38,-36"/>
<text xml:space="preserve" text-anchor="middle" x="382.38" y="-19.2" font-family="Helvetica,sans-Serif" font-size="9.00">Troop Transport Bay &#45; Small</text>
<text xml:space="preserve" text-anchor="middle" x="382.38" y="-9.45" font-family="Helvetica,sans-Serif" font-size="9.00">100 RP</text>
</g>
<!-- Troop_Transport_Bay___Very_Lar -->
<g id="node5" class="node">
<title>Troop_Transport_Bay___Very_Lar</title>
<path fill="#d4edda" stroke="black" d="M604.88,-36C604.88,-36 477.88,-36 477.88,-36 471.88,-36 465.88,-30 465.88,-24 465.88,-24 465.88,-12 465.88,-12 465.88,-6 471.88,0 477.88,0 477.88,0 604.88,0 604.88,0 610.88,0 616.88,-6 616.88,-12 616.88,-12 616.88,-24 616.88,-24 616.88,-30 610.88,-36 604.88,-36"/>
<text xml:space="preserve" text-anchor="middle" x="541.38" y="-19.2" font-family="Helvetica,sans-Serif" font-size="9.00">Troop Transport Bay &#45; Very Large</text>
<text xml:space="preserve" text-anchor="middle" x="541.38" y="-9.45" font-family="Helvetica,sans-Serif" font-size="9.00">100 RP</text>
</g>
<!-- Troop_Transport_Bay___Standard -->
<g id="node6" class="node">
<title>Troop_Transport_Bay___Standard</title>
<path fill="#cce5ff" stroke="black" d="M363.5,-108C363.5,-108 243.25,-108 243.25,-108 237.25,-108 231.25,-102 231.25,-96 231.25,-96 231.25,-84 231.25,-84 231.25,-78 237.25,-72 243.25,-72 243.25,-72 363.5,-72 363.5,-72 369.5,-72 375.5,-78 375.5,-84 375.5,-84 375.5,-96 375.5,-96 375.5,-102 369.5,-108 363.5,-108"/>
<text xml:space="preserve" text-anchor="middle" x="303.38" y="-91.2" font-family="Helvetica,sans-Serif" font-size="9.00">Troop Transport Bay &#45; Standard</text>
<text xml:space="preserve" text-anchor="middle" x="303.38" y="-81.45" font-family="Helvetica,sans-Serif" font-size="9.00">1K RP</text>
</g>
<!-- Troop_Transport_Bay___Standard&#45;&gt;Troop_Transport_Bay___Large -->
<g id="edge2" class="edge">
<title>Troop_Transport_Bay___Standard&#45;&gt;Troop_Transport_Bay___Large</title>
<path fill="none" stroke="black" d="M243.93,-71.52C209.73,-61.46 166.67,-48.79 131.42,-38.42"/>
<polygon fill="black" stroke="black" points="132.27,-36.49 125.92,-36.81 131.09,-40.52 132.27,-36.49"/>
</g>
<!-- Troop_Transport_Bay___Standard&#45;&gt;Troop_Transport_Bay___Very_Sma -->
<g id="edge3" class="edge">
<title>Troop_Transport_Bay___Standard&#45;&gt;Troop_Transport_Bay___Very_Sma</title>
<path fill="none" stroke="black" d="M283.85,-71.7C273.5,-62.53 260.66,-51.16 249.57,-41.33"/>
<polygon fill="black" stroke="black" points="250.97,-39.76 245.09,-37.35 248.18,-42.9 250.97,-39.76"/>
</g>
<!-- Troop_Transport_Bay___Standard&#45;&gt;Troop_Transport_Bay___Small -->
<g id="edge4" class="edge">
<title>Troop_Transport_Bay___Standard&#45;&gt;Troop_Transport_Bay___Small</title>
<path fill="none" stroke="black" d="M322.9,-71.7C333.25,-62.53 346.09,-51.16 357.18,-41.33"/>
<polygon fill="black" stroke="black" points="358.57,-42.9 361.66,-37.35 355.78,-39.76 358.57,-42.9"/>
</g>
<!-- Troop_Transport_Bay___Standard&#45;&gt;Troop_Transport_Bay___Very_Lar -->
<g id="edge5" class="edge">
<title>Troop_Transport_Bay___Standard&#45;&gt;Troop_Transport_Bay___Very_Lar</title>
<path fill="none" stroke="black" d="M362.82,-71.52C397.02,-61.46 440.08,-48.79 475.33,-38.42"/>
<polygon fill="black" stroke="black" points="475.66,-40.52 480.83,-36.81 474.48,-36.49 475.66,-40.52"/>
</g>
<!-- ext_Trans_Newtonian_Technology -->
<g id="node7" class="node">
<title>ext_Trans_Newtonian_Technology</title>
<path fill="#f0f0f0" stroke="black" stroke-dasharray="5,2" d="M273.38,-180C273.38,-180 161.38,-180 161.38,-180 155.38,-180 149.38,-174 149.38,-168 149.38,-168 149.38,-156 149.38,-156 149.38,-150 155.38,-144 161.38,-144 161.38,-144 273.38,-144 273.38,-144 279.38,-144 285.38,-150 285.38,-156 285.38,-156 285.38,-168 285.38,-168 285.38,-174 279.38,-180 273.38,-180"/>
<text xml:space="preserve" text-anchor="middle" x="217.38" y="-158.32" font-family="Helvetica,sans-Serif" font-size="9.00">Trans&#45;Newtonian Technology</text>
</g>
<!-- ext_Trans_Newtonian_Technology&#45;&gt;Troop_Transport_Bay___Conventi -->
<g id="edge1" class="edge">
<title>ext_Trans_Newtonian_Technology&#45;&gt;Troop_Transport_Bay___Conventi</title>
<path fill="none" stroke="black" d="M196.36,-143.7C185.13,-134.44 171.17,-122.95 159.16,-113.06"/>
<polygon fill="black" stroke="black" points="160.57,-111.5 154.61,-109.31 157.9,-114.74 160.57,-111.5"/>
</g>
<!-- ext_Trans_Newtonian_Technology&#45;&gt;Troop_Transport_Bay___Standard -->
<g id="edge6" class="edge">
<title>ext_Trans_Newtonian_Technology&#45;&gt;Troop_Transport_Bay___Standard</title>
<path fill="none" stroke="black" d="M238.63,-143.7C250,-134.44 264.13,-122.95 276.28,-113.06"/>
<polygon fill="black" stroke="black" points="277.56,-114.72 280.89,-109.3 274.91,-111.46 277.56,-114.72"/>
</g>
</g>
</svg>
