<?xml version="1.0" encoding="UTF-8" standalone="no"?>
<!DOCTYPE svg PUBLIC "-//W3C//DTD SVG 1.1//EN"
 "http://www.w3.org/Graphics/SVG/1.1/DTD/svg11.dtd">
<!-- Generated by graphviz version 14.1.2 (20260124.0452)
 -->
<!-- Title: TechTree Pages: 1 -->
<svg width="400pt" height="183pt"
 viewBox="0.00 0.00 400.00 183.00" xmlns="http://www.w3.org/2000/svg" xmlns:xlink="http://www.w3.org/1999/xlink">
<g id="graph0" class="graph" transform="scale(1 1) rotate(0) translate(4 179)">
<title>TechTree</title>
<polygon fill="white" stroke="none" points="-4,4 -4,-179 395.75,-179 395.75,4 -4,4"/>
<text xml:space="preserve" text-anchor="middle" x="195.88" y="-157.7" font-family="Helvetica,sans-Serif" font-weight="bold" font-size="14.00">Troop Transport Bay &#45; Drop Ship Equipped</text>
<!-- Troop_Transport_Drop_Bay___Lar -->
<g id="node1" class="node">
<title>Troop_Transport_Drop_Bay___Lar</title>
<path fill="#d4edda" stroke="black" d="M368.12,-152C368.12,-152 229.88,-152 229.88,-152 223.88,-152 217.88,-146 217.88,-140 217.88,-140 217.88,-128 217.88,-128 217.88,-122 223.88,-116 229.88,-116 229.88,-116 368.12,-116 368.12,-116 374.12,-116 380.12,-122 380.12,-128 380.12,-128 380.12,-140 380.12,-140 380.12,-146 374.12,-152 368.12,-152"/>
<text xml:space="preserve" text-anchor="middle" x="299" y="-135.75" font-family="Helvetica,sans-Serif" font-size="10.00">Troop Transport Drop Bay &#45; Large</text>
<text xml:space="preserve" text-anchor="middle" x="299" y="-124.5" font-family="Helvetica,sans-Serif" font-size="10.00">100 RP</text>
</g>
<!-- Troop_Transport_Drop_Bay___Ver -->
<g id="node2" class="node">
<title>Troop_Transport_Drop_Bay___Ver</title>
<path fill="#d4edda" stroke="black" d="M379.75,-94C379.75,-94 218.25,-94 218.25,-94 212.25,-94 206.25,-88 206.25,-82 206.25,-82 206.25,-70 206.25,-70 206.25,-64 212.25,-58 218.25,-58 218.25,-58 379.75,-58 379.75,-58 385.75,-58 391.75,-64 391.75,-70 391.75,-70 391.75,-82 391.75,-82 391.75,-88 385.75,-94 379.75,-94"/>
<text xml:space="preserve" text-anchor="middle" x="299" y="-77.75" font-family="Helvetica,sans-Serif" font-size="10.00">Troop Transport Drop Bay &#45; Very Large</text>
<text xml:space="preserve" text-anchor="middle" x="299" y="-66.5" font-family="Helvetica,sans-Serif" font-size="10.00">100 RP</text>
</g>
<!-- Troop_Transport_Drop_Bay___Sma -->
<g id="node3" class="node">
<title>Troop_Transport_Drop_Bay___Sma</title>
<path fill="#d4edda" stroke="black" d="M368.5,-36C368.5,-36 229.5,-36 229.5,-36 223.5,-36 217.5,-30 217.5,-24 217.5,-24 217.5,-12 217.5,-12 217.5,-6 223.5,0 229.5,0 229.5,0 368.5,0 368.5,0 374.5,0 380.5,-6 380.5,-12 380.5,-12 380.5,-24 380.5,-24 380.5,-30 374.5,-36 368.5,-36"/>
<text xml:space="preserve" text-anchor="middle" x="299" y="-19.75" font-family="Helvetica,sans-Serif" font-size="10.00">Troop Transport Drop Bay &#45; Small</text>
<text xml:space="preserve" text-anchor="middle" x="299" y="-8.5" font-family="Helvetica,sans-Serif" font-size="10.00">100 RP</text>
</g>
<!-- Troop_Transport_Drop_Bay___Sta -->
<g id="node4" class="node">
<title>Troop_Transport_Drop_Bay___Sta</title>
<path fill="#cce5ff" stroke="black" d="M165.25,-94C165.25,-94 12,-94 12,-94 6,-94 0,-88 0,-82 0,-82 0,-70 0,-70 0,-64 6,-58 12,-58 12,-58 165.25,-58 165.25,-58 171.25,-58 177.25,-64 177.25,-70 177.25,-70 177.25,-82 177.25,-82 177.25,-88 171.25,-94 165.25,-94"/>
<text xml:space="preserve" text-anchor="middle" x="88.62" y="-77.75" font-family="Helvetica,sans-Serif" font-size="10.00">Troop Transport Drop Bay &#45; Standard</text>
<text xml:space="preserve" text-anchor="middle" x="88.62" y="-66.5" font-family="Helvetica,sans-Serif" font-size="10.00">2K RP</text>
</g>
<!-- Troop_Transport_Drop_Bay___Sta&#45;&gt;Troop_Transport_Drop_Bay___Lar -->
<g id="edge1" class="edge">
<title>Troop_Transport_Drop_Bay___Sta&#45;&gt;Troop_Transport_Drop_Bay___Lar</title>
<path fill="none" stroke="black" d="M155.84,-94.43C177.39,-100.43 201.44,-107.12 223.55,-113.28"/>
<polygon fill="black" stroke="black" points="222.74,-115.59 230.14,-115.11 224.05,-110.87 222.74,-115.59"/>
</g>
<!-- Troop_Transport_Drop_Bay___Sta&#45;&gt;Troop_Transport_Drop_Bay___Ver -->
<g id="edge2" class="edge">
<title>Troop_Transport_Drop_Bay___Sta&#45;&gt;Troop_Transport_Drop_Bay___Ver</title>
<path fill="none" stroke="black" d="M177.69,-67.84C184.25,-67.77 190.9,-67.74 197.53,-67.75"/>
<polygon fill="black" stroke="black" points="197.38,-70.2 204.39,-67.79 197.4,-65.3 197.38,-70.2"/>
</g>
<!-- Troop_Transport_Drop_Bay___Sta&#45;&gt;Troop_Transport_Drop_Bay___Ver -->
<g id="edge4" class="edge">
<title>Troop_Transport_Drop_Bay___Sta&#45;&gt;Troop_Transport_Drop_Bay___Ver</title>
<path fill="none" stroke="black" d="M177.69,-84.16C184.25,-84.23 190.9,-84.26 197.53,-84.25"/>
<polygon fill="black" stroke="black" points="197.4,-86.7 204.39,-84.21 197.38,-81.8 197.4,-86.7"/>
</g>
<!-- Troop_Transport_Drop_Bay___Sta&#45;&gt;Troop_Transport_Drop_Bay___Sma -->
<g id="edge3" class="edge">
<title>Troop_Transport_Drop_Bay___Sta&#45;&gt;Troop_Transport_Drop_Bay___Sma</title>
<path fill="none" stroke="black" d="M155.84,-57.57C177.39,-51.57 201.44,-44.88 223.55,-38.72"/>
<polygon fill="black" stroke="black" points="224.05,-41.13 230.14,-36.89 222.74,-36.41 224.05,-41.13"/>
</g>
</g>
</svg>
