<?xml version="1.0" encoding="UTF-8" standalone="no"?>
<!DOCTYPE svg PUBLIC "-//W3C//DTD SVG 1.1//EN"
 "http://www.w3.org/Graphics/SVG/1.1/DTD/svg11.dtd">
<!-- Generated by graphviz version 14.1.2 (20260124.0452)
 -->
<!-- Title: TechTree Pages: 1 -->
<svg width="371pt" height="241pt"
 viewBox="0.00 0.00 371.00 241.00" xmlns="http://www.w3.org/2000/svg" xmlns:xlink="http://www.w3.org/1999/xlink">
<g id="graph0" class="graph" transform="scale(1 1) rotate(0) translate(4 237)">
<title>TechTree</title>
<polygon fill="white" stroke="none" points="-4,4 -4,-237 366.5,-237 366.5,4 -4,4"/>
<text xml:space="preserve" text-anchor="middle" x="181.25" y="-215.7" font-family="Helvetica,sans-Serif" font-weight="bold" font-size="14.00">Troop Transport Bay</text>
<!-- Troop_Transport_Bay___Conventi -->
<g id="node1" class="node">
<title>Troop_Transport_Bay___Conventi</title>
<path fill="#d4edda" stroke="black" d="M159.25,-65C159.25,-65 12,-65 12,-65 6,-65 0,-59 0,-53 0,-53 0,-41 0,-41 0,-35 6,-29 12,-29 12,-29 159.25,-29 159.25,-29 165.25,-29 171.25,-35 171.25,-41 171.25,-41 171.25,-53 171.25,-53 171.25,-59 165.25,-65 159.25,-65"/>
<text xml:space="preserve" text-anchor="middle" x="85.62" y="-48.75" font-family="Helvetica,sans-Serif" font-size="10.00">Troop Transport Bay &#45; Conventional</text>
<text xml:space="preserve" text-anchor="middle" x="85.62" y="-37.5" font-family="Helvetica,sans-Serif" font-size="10.00">50 RP</text>
</g>
<!-- Troop_Transport_Bay___Large -->
<g id="node2" class="node">
<title>Troop_Transport_Bay___Large</title>
<path fill="#d4edda" stroke="black" d="M338.5,-210C338.5,-210 224.25,-210 224.25,-210 218.25,-210 212.25,-204 212.25,-198 212.25,-198 212.25,-186 212.25,-186 212.25,-180 218.25,-174 224.25,-174 224.25,-174 338.5,-174 338.5,-174 344.5,-174 350.5,-180 350.5,-186 350.5,-186 350.5,-198 350.5,-198 350.5,-204 344.5,-210 338.5,-210"/>
<text xml:space="preserve" text-anchor="middle" x="281.38" y="-193.75" font-family="Helvetica,sans-Serif" font-size="10.00">Troop Transport Bay &#45; Large</text>
<text xml:space="preserve" text-anchor="middle" x="281.38" y="-182.5" font-family="Helvetica,sans-Serif" font-size="10.00">100 RP</text>
</g>
<!-- Troop_Transport_Bay___Very_Sma -->
<g id="node3" class="node">
<title>Troop_Transport_Bay___Very_Sma</title>
<path fill="#d4edda" stroke="black" d="M350.5,-152C350.5,-152 212.25,-152 212.25,-152 206.25,-152 200.25,-146 200.25,-140 200.25,-140 200.25,-128 200.25,-128 200.25,-122 206.25,-116 212.25,-116 212.25,-116 350.5,-116 350.5,-116 356.5,-116 362.5,-122 362.5,-128 362.5,-128 362.5,-140 362.5,-140 362.5,-146 356.5,-152 350.5,-152"/>
<text xml:space="preserve" text-anchor="middle" x="281.38" y="-135.75" font-family="Helvetica,sans-Serif" font-size="10.00">Troop Transport Bay &#45; Very Small</text>
<text xml:space="preserve" text-anchor="middle" x="281.38" y="-124.5" font-family="Helvetica,sans-Serif" font-size="10.00">100 RP</text>
</g>
<!-- Troop_Transport_Bay___Small -->
<g id="node4" class="node">
<title>Troop_Transport_Bay___Small</title>
<path fill="#d4edda" stroke="black" d="M338.88,-94C338.88,-94 223.88,-94 223.88,-94 217.88,-94 211.88,-88 211.88,-82 211.88,-82 211.88,-70 211.88,-70 211.88,-64 217.88,-58 223.88,-58 223.88,-58 338.88,-58 338.88,-58 344.88,-58 350.88,-64 350.88,-70 350.88,-70 350.88,-82 350.88,-82 350.88,-88 344.88,-94 338.88,-94"/>
<text xml:space="preserve" text-anchor="middle" x="281.38" y="-77.75" font-family="Helvetica,sans-Serif" font-size="10.00">Troop Transport Bay &#45; Small</text>
<text xml:space="preserve" text-anchor="middle" x="281.38" y="-66.5" font-family="Helvetica,sans-Serif" font-size="10.00">100 RP</text>
</g>
<!-- Troop_Transport_Bay___Very_Lar -->
<g id="node5" class="node">
<title>Troop_Transport_Bay___Very_Lar</title>
<path fill="#d4edda" stroke="black" d="M350.12,-36C350.12,-36 212.62,-36 212.62,-36 206.62,-36 200.62,-30 200.62,-24 200.62,-24 200.62,-12 200.62,-12 200.62,-6 206.62,0 212.62,0 212.62,0 350.12,0 350.12,0 356.12,0 362.12,-6 362.12,-12 362.12,-12 362.12,-24 362.12,-24 362.12,-30 356.12,-36 350.12,-36"/>
<text xml:space="preserve" text-anchor="middle" x="281.38" y="-19.75" font-family="Helvetica,sans-Serif" font-size="10.00">Troop Transport Bay &#45; Very Large</text>
<text xml:space="preserve" text-anchor="middle" x="281.38" y="-8.5" font-family="Helvetica,sans-Serif" font-size="10.00">100 RP</text>
</g>
<!-- Troop_Transport_Bay___Standard -->
<g id="node6" class="node">
<title>Troop_Transport_Bay___Standard</title>
<path fill="#cce5ff" stroke="black" d="M150.25,-123C150.25,-123 21,-123 21,-123 15,-123 9,-117 9,-111 9,-111 9,-99 9,-99 9,-93 15,-87 21,-87 21,-87 150.25,-87 150.25,-87 156.25,-87 162.25,-93 162.25,-99 162.25,-99 162.25,-111 162.25,-111 162.25,-117 156.25,-123 150.25,-123"/>
<text xml:space="preserve" text-anchor="middle" x="85.62" y="-106.75" font-family="Helvetica,sans-Serif" font-size="10.00">Troop Transport Bay &#45; Standard</text>
<text xml:space="preserve" text-anchor="middle" x="85.62" y="-95.5" font-family="Helvetica,sans-Serif" font-size="10.00">1K RP</text>
</g>
<!-- Troop_Transport_Bay___Standard&#45;&gt;Troop_Transport_Bay___Large -->
<g id="edge1" class="edge">
<title>Troop_Transport_Bay___Standard&#45;&gt;Troop_Transport_Bay___Large</title>
<path fill="none" stroke="black" d="M119.91,-123.38C142.28,-135.38 172.62,-151 200.25,-163 206.17,-165.57 212.39,-168.1 218.65,-170.54"/>
<polygon fill="black" stroke="black" points="217.74,-172.82 225.15,-173.03 219.49,-168.24 217.74,-172.82"/>
</g>
<!-- Troop_Transport_Bay___Standard&#45;&gt;Troop_Transport_Bay___Very_Sma -->
<g id="edge2" class="edge">
<title>Troop_Transport_Bay___Standard&#45;&gt;Troop_Transport_Bay___Very_Sma</title>
<path fill="none" stroke="black" d="M162.64,-116.38C172.07,-117.79 181.78,-119.24 191.38,-120.68"/>
<polygon fill="black" stroke="black" points="191,-123.1 198.29,-121.71 191.73,-118.25 191,-123.1"/>
</g>
<!-- Troop_Transport_Bay___Standard&#45;&gt;Troop_Transport_Bay___Small -->
<g id="edge3" class="edge">
<title>Troop_Transport_Bay___Standard&#45;&gt;Troop_Transport_Bay___Small</title>
<path fill="none" stroke="black" d="M162.64,-93.62C175.99,-91.62 189.89,-89.54 203.26,-87.54"/>
<polygon fill="black" stroke="black" points="203.45,-89.99 210.02,-86.53 202.73,-85.14 203.45,-89.99"/>
</g>
<!-- Troop_Transport_Bay___Standard&#45;&gt;Troop_Transport_Bay___Very_Lar -->
<g id="edge4" class="edge">
<title>Troop_Transport_Bay___Standard&#45;&gt;Troop_Transport_Bay___Very_Lar</title>
<path fill="none" stroke="black" d="M150.47,-86.68C157.71,-83.58 164.79,-80.03 171.25,-76 186.71,-66.35 184.87,-56.78 200.25,-47 204.25,-44.46 208.5,-42.1 212.88,-39.91"/>
<polygon fill="black" stroke="black" points="213.69,-42.24 218.98,-37.05 211.6,-37.81 213.69,-42.24"/>
</g>
</g>
</svg>
