<?xml version="1.0" encoding="UTF-8" standalone="no"?>
<!DOCTYPE svg PUBLIC "-//W3C//DTD SVG 1.1//EN"
 "http://www.w3.org/Graphics/SVG/1.1/DTD/svg11.dtd">
<!-- Generated by graphviz version 14.1.2 (20260124.0452)
 -->
<!-- Title: TechTree Pages: 1 -->
<svg width="266pt" height="111pt"
 viewBox="0.00 0.00 266.00 111.00" xmlns="http://www.w3.org/2000/svg" xmlns:xlink="http://www.w3.org/1999/xlink">
<g id="graph0" class="graph" transform="scale(1 1) rotate(0) translate(4 107)">
<title>TechTree</title>
<polygon fill="white" stroke="none" points="-4,4 -4,-107 261.5,-107 261.5,4 -4,4"/>
<text xml:space="preserve" text-anchor="middle" x="128.75" y="-85.7" font-family="Helvetica,sans-Serif" font-weight="bold" font-size="14.00">Troop Transport &#45; Boarding Equipped</text>
<!-- Troop_Transport_Boarding_Bay__ -->
<g id="node1" class="node">
<title>Troop_Transport_Boarding_Bay__</title>
<path fill="#cce5ff" stroke="black" d="M214,-36C214,-36 43.5,-36 43.5,-36 37.5,-36 31.5,-30 31.5,-24 31.5,-24 31.5,-12 31.5,-12 31.5,-6 37.5,0 43.5,0 43.5,0 214,0 214,0 220,0 226,-6 226,-12 226,-12 226,-24 226,-24 226,-30 220,-36 214,-36"/>
<text xml:space="preserve" text-anchor="middle" x="128.75" y="-19.75" font-family="Helvetica,sans-Serif" font-size="10.00">Troop Transport Boarding Bay &#45; Standard</text>
<text xml:space="preserve" text-anchor="middle" x="128.75" y="-8.5" font-family="Helvetica,sans-Serif" font-size="10.00">2K RP</text>
</g>
<!-- Troop_Transport_Boarding_Bay__&#45;&gt;Troop_Transport_Boarding_Bay__ -->
<g id="edge1" class="edge">
<title>Troop_Transport_Boarding_Bay__&#45;&gt;Troop_Transport_Boarding_Bay__</title>
<path fill="none" stroke="black" d="M111.8,-36.1C107.72,-47.32 113.36,-58 128.75,-58 140.29,-58 146.35,-51.99 146.94,-44.26"/>
<polygon fill="black" stroke="black" points="149.4,-44.15 145.93,-37.6 144.55,-44.89 149.4,-44.15"/>
</g>
<!-- Troop_Transport_Boarding_Bay__&#45;&gt;Troop_Transport_Boarding_Bay__ -->
<g id="edge2" class="edge">
<title>Troop_Transport_Boarding_Bay__&#45;&gt;Troop_Transport_Boarding_Bay__</title>
<path fill="none" stroke="black" d="M101.4,-36.41C83.16,-56.75 92.28,-80 128.75,-80 161.23,-80 172.01,-61.56 161.1,-43.15"/>
<polygon fill="black" stroke="black" points="163.14,-41.79 157,-37.62 159.2,-44.7 163.14,-41.79"/>
</g>
</g>
</svg>
