<?xml version="1.0" encoding="UTF-8" standalone="no"?>
<!DOCTYPE svg PUBLIC "-//W3C//DTD SVG 1.1//EN"
 "http://www.w3.org/Graphics/SVG/1.1/DTD/svg11.dtd">
<!-- Generated by graphviz version 14.1.2 (20260124.0452)
 -->
<!-- Title: TechTree Pages: 1 -->
<svg width="413pt" height="137pt"
 viewBox="0.00 0.00 413.00 137.00" xmlns="http://www.w3.org/2000/svg" xmlns:xlink="http://www.w3.org/1999/xlink">
<g id="graph0" class="graph" transform="scale(1 1) rotate(0) translate(4 132.75)">
<title>TechTree</title>
<polygon fill="white" stroke="none" points="-4,4 -4,-132.75 409.25,-132.75 409.25,4 -4,4"/>
<text xml:space="preserve" text-anchor="middle" x="202.62" y="-113.35" font-family="Helvetica,sans-Serif" font-weight="bold" font-size="12.00">Turret Rotation Gear</text>
<!-- Turret_Tracking_Speed__10__Gea -->
<g id="node1" class="node">
<title>Turret_Tracking_Speed__10__Gea</title>
<path fill="#d4c4fb" stroke="black" d="M195.25,-36C195.25,-36 12,-36 12,-36 6,-36 0,-30 0,-24 0,-24 0,-12 0,-12 0,-6 6,0 12,0 12,0 195.25,0 195.25,0 201.25,0 207.25,-6 207.25,-12 207.25,-12 207.25,-24 207.25,-24 207.25,-30 201.25,-36 195.25,-36"/>
<text xml:space="preserve" text-anchor="middle" x="103.63" y="-19.2" font-family="Helvetica,sans-Serif" font-size="9.00">Turret Tracking Speed (10% Gear) 25,000 km/s</text>
<text xml:space="preserve" text-anchor="middle" x="103.63" y="-9.45" font-family="Helvetica,sans-Serif" font-size="9.00">1.0M RP</text>
</g>
<!-- Turret_Tracking_Speed__10__Gea&#45;&gt;Turret_Tracking_Speed__10__Gea -->
<g id="edge1" class="edge">
<title>Turret_Tracking_Speed__10__Gea&#45;&gt;Turret_Tracking_Speed__10__Gea</title>
<path fill="none" stroke="black" d="M207.43,-19.24C218.29,-19 225.25,-18.59 225.25,-18 225.25,-17.56 221.34,-17.22 214.8,-16.97"/>
<polygon fill="black" stroke="black" points="215,-14.88 208.94,-16.8 214.88,-19.07 215,-14.88"/>
</g>
<!-- Turret_Tracking_Speed__10__Gea&#45;&gt;Turret_Tracking_Speed__10__Gea -->
<g id="edge3" class="edge">
<title>Turret_Tracking_Speed__10__Gea&#45;&gt;Turret_Tracking_Speed__10__Gea</title>
<path fill="none" stroke="black" d="M207.44,-20.88C228.33,-20.56 243.25,-19.6 243.25,-18 243.25,-16.59 231.62,-15.67 214.53,-15.26"/>
<polygon fill="black" stroke="black" points="215,-13.17 208.96,-15.15 214.92,-17.37 215,-13.17"/>
</g>
<!-- Turret_Tracking_Speed__10__Gea&#45;&gt;Turret_Tracking_Speed__10__Gea -->
<g id="edge4" class="edge">
<title>Turret_Tracking_Speed__10__Gea&#45;&gt;Turret_Tracking_Speed__10__Gea</title>
<path fill="none" stroke="black" d="M207.47,-22.49C237.77,-22.33 261.25,-20.84 261.25,-18 261.25,-15.4 241.47,-13.92 214.78,-13.58"/>
<polygon fill="black" stroke="black" points="215,-11.48 208.98,-13.53 214.96,-15.68 215,-11.48"/>
</g>
<!-- Turret_Tracking_Speed__10__Gea&#45;&gt;Turret_Tracking_Speed__10__Gea -->
<g id="edge5" class="edge">
<title>Turret_Tracking_Speed__10__Gea&#45;&gt;Turret_Tracking_Speed__10__Gea</title>
<path fill="none" stroke="black" d="M207.33,-23.98C246.69,-24.21 279.25,-22.22 279.25,-18 279.25,-14.04 250.63,-12.05 214.62,-12"/>
<polygon fill="black" stroke="black" points="214.83,-9.9 208.84,-12.01 214.84,-14.1 214.83,-9.9"/>
</g>
<!-- Turret_Tracking_Speed__10__Gea&#45;&gt;Turret_Tracking_Speed__10__Gea -->
<g id="edge6" class="edge">
<title>Turret_Tracking_Speed__10__Gea&#45;&gt;Turret_Tracking_Speed__10__Gea</title>
<path fill="none" stroke="black" d="M207.7,-25.36C255.55,-26.14 297.25,-23.68 297.25,-18 297.25,-12.61 259.68,-10.12 214.94,-10.55"/>
<polygon fill="black" stroke="black" points="215.19,-8.44 209.22,-10.62 215.25,-12.64 215.19,-8.44"/>
</g>
<!-- Turret_Tracking_Speed__10__Gea&#45;&gt;Turret_Tracking_Speed__10__Gea -->
<g id="edge7" class="edge">
<title>Turret_Tracking_Speed__10__Gea&#45;&gt;Turret_Tracking_Speed__10__Gea</title>
<path fill="none" stroke="black" d="M207.61,-26.61C263.86,-28.11 315.25,-25.24 315.25,-18 315.25,-11.07 268.18,-8.14 214.83,-9.22"/>
<polygon fill="black" stroke="black" points="215.07,-7.11 209.12,-9.35 215.17,-11.31 215.07,-7.11"/>
</g>
<!-- Turret_Tracking_Speed__10__Gea&#45;&gt;Turret_Tracking_Speed__10__Gea -->
<g id="edge8" class="edge">
<title>Turret_Tracking_Speed__10__Gea&#45;&gt;Turret_Tracking_Speed__10__Gea</title>
<path fill="none" stroke="black" d="M207.53,-27.76C271.95,-30.11 333.25,-26.86 333.25,-18 333.25,-9.47 276.41,-6.14 214.69,-8"/>
<polygon fill="black" stroke="black" points="214.97,-5.89 209.04,-8.19 215.11,-10.09 214.97,-5.89"/>
</g>
<!-- Turret_Tracking_Speed__10__Gea&#45;&gt;Turret_Tracking_Speed__10__Gea -->
<g id="edge9" class="edge">
<title>Turret_Tracking_Speed__10__Gea&#45;&gt;Turret_Tracking_Speed__10__Gea</title>
<path fill="none" stroke="black" d="M207.63,-28.81C279.94,-32.12 351.25,-28.52 351.25,-18 351.25,-7.83 284.6,-4.13 214.82,-6.88"/>
<polygon fill="black" stroke="black" points="215.04,-4.77 209.14,-7.12 215.22,-8.96 215.04,-4.77"/>
</g>
<!-- Turret_Tracking_Speed__10__Gea&#45;&gt;Turret_Tracking_Speed__10__Gea -->
<g id="edge10" class="edge">
<title>Turret_Tracking_Speed__10__Gea&#45;&gt;Turret_Tracking_Speed__10__Gea</title>
<path fill="none" stroke="black" d="M207.58,-29.78C287.68,-34.14 369.25,-30.22 369.25,-18 369.25,-6.14 292.39,-2.1 214.62,-5.86"/>
<polygon fill="black" stroke="black" points="214.97,-3.74 209.09,-6.15 215.19,-7.94 214.97,-3.74"/>
</g>
<!-- Turret_Tracking_Speed__10__Gea&#45;&gt;Turret_Tracking_Speed__10__Gea -->
<g id="edge11" class="edge">
<title>Turret_Tracking_Speed__10__Gea&#45;&gt;Turret_Tracking_Speed__10__Gea</title>
<path fill="none" stroke="black" d="M207.61,-30.67C295.32,-36.17 387.25,-31.95 387.25,-18 387.25,-4.45 300.45,-0.08 215.07,-4.89"/>
<polygon fill="black" stroke="black" points="214.99,-2.79 209.12,-5.24 215.24,-6.98 214.99,-2.79"/>
</g>
<!-- Turret_Tracking_Speed__10__Gea&#45;&gt;Turret_Tracking_Speed__10__Gea -->
<g id="edge12" class="edge">
<title>Turret_Tracking_Speed__10__Gea&#45;&gt;Turret_Tracking_Speed__10__Gea</title>
<path fill="none" stroke="black" d="M207.56,-31.48C302.78,-38.2 405.25,-33.71 405.25,-18 405.25,-2.69 307.91,1.96 214.82,-4.03"/>
<polygon fill="black" stroke="black" points="214.91,-1.92 209.07,-4.42 215.2,-6.11 214.91,-1.92"/>
</g>
<!-- ext_Trans_Newtonian_Technology -->
<g id="node2" class="node">
<title>ext_Trans_Newtonian_Technology</title>
<path fill="#f0f0f0" stroke="black" stroke-dasharray="5,2" d="M159.62,-108C159.62,-108 47.62,-108 47.62,-108 41.62,-108 35.63,-102 35.63,-96 35.63,-96 35.63,-84 35.63,-84 35.63,-78 41.63,-72 47.63,-72 47.63,-72 159.62,-72 159.62,-72 165.63,-72 171.62,-78 171.62,-84 171.62,-84 171.62,-96 171.62,-96 171.62,-102 165.62,-108 159.62,-108"/>
<text xml:space="preserve" text-anchor="middle" x="103.63" y="-86.33" font-family="Helvetica,sans-Serif" font-size="9.00">Trans&#45;Newtonian Technology</text>
</g>
<!-- ext_Trans_Newtonian_Technology&#45;&gt;Turret_Tracking_Speed__10__Gea -->
<g id="edge2" class="edge">
<title>ext_Trans_Newtonian_Technology&#45;&gt;Turret_Tracking_Speed__10__Gea</title>
<path fill="none" stroke="black" d="M103.63,-71.7C103.63,-63.22 103.63,-52.86 103.63,-43.58"/>
<polygon fill="black" stroke="black" points="105.73,-43.62 103.63,-37.62 101.53,-43.62 105.73,-43.62"/>
</g>
</g>
</svg>
