<?xml version="1.0" encoding="UTF-8" standalone="no"?>
<!DOCTYPE svg PUBLIC "-//W3C//DTD SVG 1.1//EN"
 "http://www.w3.org/Graphics/SVG/1.1/DTD/svg11.dtd">
<!-- Generated by graphviz version 14.1.2 (20260124.0452)
 -->
<!-- Title: TechTree Pages: 1 -->
<svg width="472pt" height="67pt"
 viewBox="0.00 0.00 472.00 67.00" xmlns="http://www.w3.org/2000/svg" xmlns:xlink="http://www.w3.org/1999/xlink">
<g id="graph0" class="graph" transform="scale(1 1) rotate(0) translate(4 63)">
<title>TechTree</title>
<polygon fill="white" stroke="none" points="-4,4 -4,-63 468.25,-63 468.25,4 -4,4"/>
<text xml:space="preserve" text-anchor="middle" x="232.12" y="-41.7" font-family="Helvetica,sans-Serif" font-weight="bold" font-size="14.00">Turret Rotation Gear</text>
<!-- Turret_Tracking_Speed__10__Gea -->
<g id="node1" class="node">
<title>Turret_Tracking_Speed__10__Gea</title>
<path fill="#d4c4fb" stroke="black" d="M210.25,-36C210.25,-36 12,-36 12,-36 6,-36 0,-30 0,-24 0,-24 0,-12 0,-12 0,-6 6,0 12,0 12,0 210.25,0 210.25,0 216.25,0 222.25,-6 222.25,-12 222.25,-12 222.25,-24 222.25,-24 222.25,-30 216.25,-36 210.25,-36"/>
<text xml:space="preserve" text-anchor="middle" x="111.12" y="-19.75" font-family="Helvetica,sans-Serif" font-size="10.00">Turret Tracking Speed (10% Gear) 25,000 km/s</text>
<text xml:space="preserve" text-anchor="middle" x="111.12" y="-8.5" font-family="Helvetica,sans-Serif" font-size="10.00">1.0M RP</text>
</g>
<!-- Turret_Tracking_Speed__10__Gea&#45;&gt;Turret_Tracking_Speed__10__Gea -->
<g id="edge1" class="edge">
<title>Turret_Tracking_Speed__10__Gea&#45;&gt;Turret_Tracking_Speed__10__Gea</title>
<path fill="none" stroke="black" d="M222.31,-19.29C235.58,-19.05 244.25,-18.62 244.25,-18 244.25,-17.52 239.07,-17.15 230.58,-16.9"/>
<polygon fill="black" stroke="black" points="230.88,-14.46 223.82,-16.75 230.77,-19.36 230.88,-14.46"/>
</g>
<!-- Turret_Tracking_Speed__10__Gea&#45;&gt;Turret_Tracking_Speed__10__Gea -->
<g id="edge2" class="edge">
<title>Turret_Tracking_Speed__10__Gea&#45;&gt;Turret_Tracking_Speed__10__Gea</title>
<path fill="none" stroke="black" d="M222.68,-20.93C247.84,-20.66 266.25,-19.69 266.25,-18 266.25,-16.5 251.78,-15.57 230.95,-15.19"/>
<polygon fill="black" stroke="black" points="231.23,-12.74 224.19,-15.09 231.16,-17.64 231.23,-12.74"/>
</g>
<!-- Turret_Tracking_Speed__10__Gea&#45;&gt;Turret_Tracking_Speed__10__Gea -->
<g id="edge3" class="edge">
<title>Turret_Tracking_Speed__10__Gea&#45;&gt;Turret_Tracking_Speed__10__Gea</title>
<path fill="none" stroke="black" d="M222.69,-22.5C259.19,-22.48 288.25,-20.98 288.25,-18 288.25,-15.26 263.55,-13.77 231.1,-13.53"/>
<polygon fill="black" stroke="black" points="231.21,-11.08 224.21,-13.51 231.2,-15.98 231.21,-11.08"/>
</g>
<!-- Turret_Tracking_Speed__10__Gea&#45;&gt;Turret_Tracking_Speed__10__Gea -->
<g id="edge4" class="edge">
<title>Turret_Tracking_Speed__10__Gea&#45;&gt;Turret_Tracking_Speed__10__Gea</title>
<path fill="none" stroke="black" d="M222.71,-23.94C269.98,-24.39 310.25,-22.41 310.25,-18 310.25,-13.86 274.71,-11.86 231.21,-12.01"/>
<polygon fill="black" stroke="black" points="231.21,-9.56 224.22,-12.05 231.24,-14.46 231.21,-9.56"/>
</g>
<!-- Turret_Tracking_Speed__10__Gea&#45;&gt;Turret_Tracking_Speed__10__Gea -->
<g id="edge5" class="edge">
<title>Turret_Tracking_Speed__10__Gea&#45;&gt;Turret_Tracking_Speed__10__Gea</title>
<path fill="none" stroke="black" d="M222.63,-25.24C280.28,-26.35 332.25,-23.94 332.25,-18 332.25,-12.35 285.23,-9.89 231.02,-10.63"/>
<polygon fill="black" stroke="black" points="231.1,-8.17 224.14,-10.74 231.18,-13.07 231.1,-8.17"/>
</g>
<!-- Turret_Tracking_Speed__10__Gea&#45;&gt;Turret_Tracking_Speed__10__Gea -->
<g id="edge6" class="edge">
<title>Turret_Tracking_Speed__10__Gea&#45;&gt;Turret_Tracking_Speed__10__Gea</title>
<path fill="none" stroke="black" d="M222.72,-26.41C290.34,-28.34 354.25,-25.54 354.25,-18 354.25,-10.77 295.48,-7.9 231.02,-9.38"/>
<polygon fill="black" stroke="black" points="231.17,-6.92 224.23,-9.55 231.29,-11.82 231.17,-6.92"/>
</g>
<!-- Turret_Tracking_Speed__10__Gea&#45;&gt;Turret_Tracking_Speed__10__Gea -->
<g id="edge7" class="edge">
<title>Turret_Tracking_Speed__10__Gea&#45;&gt;Turret_Tracking_Speed__10__Gea</title>
<path fill="none" stroke="black" d="M222.48,-27.46C299.9,-30.36 376.25,-27.2 376.25,-18 376.25,-9.12 305.18,-5.87 230.63,-8.26"/>
<polygon fill="black" stroke="black" points="230.9,-5.79 223.99,-8.49 231.07,-10.69 230.9,-5.79"/>
</g>
<!-- Turret_Tracking_Speed__10__Gea&#45;&gt;Turret_Tracking_Speed__10__Gea -->
<g id="edge8" class="edge">
<title>Turret_Tracking_Speed__10__Gea&#45;&gt;Turret_Tracking_Speed__10__Gea</title>
<path fill="none" stroke="black" d="M222.74,-28.43C309.57,-32.37 398.25,-28.89 398.25,-18 398.25,-7.46 315.19,-3.86 231.14,-7.21"/>
<polygon fill="black" stroke="black" points="231.15,-4.76 224.26,-7.5 231.35,-9.65 231.15,-4.76"/>
</g>
<!-- Turret_Tracking_Speed__10__Gea&#45;&gt;Turret_Tracking_Speed__10__Gea -->
<g id="edge9" class="edge">
<title>Turret_Tracking_Speed__10__Gea&#45;&gt;Turret_Tracking_Speed__10__Gea</title>
<path fill="none" stroke="black" d="M222.45,-29.29C318.65,-34.4 420.25,-30.64 420.25,-18 420.25,-5.73 324.51,-1.83 230.92,-6.28"/>
<polygon fill="black" stroke="black" points="230.83,-3.83 223.97,-6.63 231.08,-8.73 230.83,-3.83"/>
</g>
<!-- Turret_Tracking_Speed__10__Gea&#45;&gt;Turret_Tracking_Speed__10__Gea -->
<g id="edge10" class="edge">
<title>Turret_Tracking_Speed__10__Gea&#45;&gt;Turret_Tracking_Speed__10__Gea</title>
<path fill="none" stroke="black" d="M222.65,-30.1C327.9,-36.43 442.25,-32.39 442.25,-18 442.25,-3.99 333.85,0.21 230.99,-5.42"/>
<polygon fill="black" stroke="black" points="231.01,-2.96 224.16,-5.81 231.29,-7.85 231.01,-2.96"/>
</g>
<!-- Turret_Tracking_Speed__10__Gea&#45;&gt;Turret_Tracking_Speed__10__Gea -->
<g id="edge11" class="edge">
<title>Turret_Tracking_Speed__10__Gea&#45;&gt;Turret_Tracking_Speed__10__Gea</title>
<path fill="none" stroke="black" d="M222.31,-30.81C336.61,-38.47 464.25,-34.2 464.25,-18 464.25,-2.2 342.77,2.25 230.7,-4.65"/>
<polygon fill="black" stroke="black" points="230.65,-2.2 223.82,-5.09 230.96,-7.08 230.65,-2.2"/>
</g>
</g>
</svg>
