<?xml version="1.0" encoding="UTF-8" standalone="no"?>
<!DOCTYPE svg PUBLIC "-//W3C//DTD SVG 1.1//EN"
 "http://www.w3.org/Graphics/SVG/1.1/DTD/svg11.dtd">
<!-- Generated by graphviz version 14.1.2 (20260124.0452)
 -->
<!-- Title: TechTree Pages: 1 -->
<svg width="1004pt" height="67pt"
 viewBox="0.00 0.00 1004.00 67.00" xmlns="http://www.w3.org/2000/svg" xmlns:xlink="http://www.w3.org/1999/xlink">
<g id="graph0" class="graph" transform="scale(1 1) rotate(0) translate(4 63)">
<title>TechTree</title>
<polygon fill="white" stroke="none" points="-4,4 -4,-63 1000.25,-63 1000.25,4 -4,4"/>
<text xml:space="preserve" text-anchor="middle" x="498.12" y="-41.7" font-family="Helvetica,sans-Serif" font-weight="bold" font-size="14.00">Underway Replenishment</text>
<!-- Underway_Replenishment_20__Rat -->
<g id="node1" class="node">
<title>Underway_Replenishment_20__Rat</title>
<path fill="#cce5ff" stroke="black" d="M163,-36C163,-36 12,-36 12,-36 6,-36 0,-30 0,-24 0,-24 0,-12 0,-12 0,-6 6,0 12,0 12,0 163,0 163,0 169,0 175,-6 175,-12 175,-12 175,-24 175,-24 175,-30 169,-36 163,-36"/>
<text xml:space="preserve" text-anchor="middle" x="87.5" y="-19.75" font-family="Helvetica,sans-Serif" font-size="10.00">Underway Replenishment 20% Rate</text>
<text xml:space="preserve" text-anchor="middle" x="87.5" y="-8.5" font-family="Helvetica,sans-Serif" font-size="10.00">2K RP</text>
</g>
<!-- Underway_Replenishment_30__Rat -->
<g id="node2" class="node">
<title>Underway_Replenishment_30__Rat</title>
<path fill="#cce5ff" stroke="black" d="M367,-36C367,-36 216,-36 216,-36 210,-36 204,-30 204,-24 204,-24 204,-12 204,-12 204,-6 210,0 216,0 216,0 367,0 367,0 373,0 379,-6 379,-12 379,-12 379,-24 379,-24 379,-30 373,-36 367,-36"/>
<text xml:space="preserve" text-anchor="middle" x="291.5" y="-19.75" font-family="Helvetica,sans-Serif" font-size="10.00">Underway Replenishment 30% Rate</text>
<text xml:space="preserve" text-anchor="middle" x="291.5" y="-8.5" font-family="Helvetica,sans-Serif" font-size="10.00">5K RP</text>
</g>
<!-- Underway_Replenishment_20__Rat&#45;&gt;Underway_Replenishment_30__Rat -->
<g id="edge1" class="edge">
<title>Underway_Replenishment_20__Rat&#45;&gt;Underway_Replenishment_30__Rat</title>
<path fill="none" stroke="black" d="M175.34,-18C181.95,-18 188.65,-18 195.32,-18"/>
<polygon fill="black" stroke="black" points="195.22,-20.45 202.22,-18 195.22,-15.55 195.22,-20.45"/>
</g>
<!-- Underway_Replenishment_45__Rat -->
<g id="node3" class="node">
<title>Underway_Replenishment_45__Rat</title>
<path fill="#cce5ff" stroke="black" d="M571,-36C571,-36 420,-36 420,-36 414,-36 408,-30 408,-24 408,-24 408,-12 408,-12 408,-6 414,0 420,0 420,0 571,0 571,0 577,0 583,-6 583,-12 583,-12 583,-24 583,-24 583,-30 577,-36 571,-36"/>
<text xml:space="preserve" text-anchor="middle" x="495.5" y="-19.75" font-family="Helvetica,sans-Serif" font-size="10.00">Underway Replenishment 45% Rate</text>
<text xml:space="preserve" text-anchor="middle" x="495.5" y="-8.5" font-family="Helvetica,sans-Serif" font-size="10.00">10K RP</text>
</g>
<!-- Underway_Replenishment_30__Rat&#45;&gt;Underway_Replenishment_45__Rat -->
<g id="edge2" class="edge">
<title>Underway_Replenishment_30__Rat&#45;&gt;Underway_Replenishment_45__Rat</title>
<path fill="none" stroke="black" d="M379.34,-18C385.95,-18 392.65,-18 399.32,-18"/>
<polygon fill="black" stroke="black" points="399.22,-20.45 406.22,-18 399.22,-15.55 399.22,-20.45"/>
</g>
<!-- Underway_Replenishment_70__Rat -->
<g id="node4" class="node">
<title>Underway_Replenishment_70__Rat</title>
<path fill="#fff3cd" stroke="black" d="M775,-36C775,-36 624,-36 624,-36 618,-36 612,-30 612,-24 612,-24 612,-12 612,-12 612,-6 618,0 624,0 624,0 775,0 775,0 781,0 787,-6 787,-12 787,-12 787,-24 787,-24 787,-30 781,-36 775,-36"/>
<text xml:space="preserve" text-anchor="middle" x="699.5" y="-19.75" font-family="Helvetica,sans-Serif" font-size="10.00">Underway Replenishment 70% Rate</text>
<text xml:space="preserve" text-anchor="middle" x="699.5" y="-8.5" font-family="Helvetica,sans-Serif" font-size="10.00">20K RP</text>
</g>
<!-- Underway_Replenishment_45__Rat&#45;&gt;Underway_Replenishment_70__Rat -->
<g id="edge3" class="edge">
<title>Underway_Replenishment_45__Rat&#45;&gt;Underway_Replenishment_70__Rat</title>
<path fill="none" stroke="black" d="M583.34,-18C589.95,-18 596.65,-18 603.32,-18"/>
<polygon fill="black" stroke="black" points="603.22,-20.45 610.22,-18 603.22,-15.55 603.22,-20.45"/>
</g>
<!-- Underway_Replenishment_100__Ra -->
<g id="node5" class="node">
<title>Underway_Replenishment_100__Ra</title>
<path fill="#fff3cd" stroke="black" d="M984.25,-36C984.25,-36 828,-36 828,-36 822,-36 816,-30 816,-24 816,-24 816,-12 816,-12 816,-6 822,0 828,0 828,0 984.25,0 984.25,0 990.25,0 996.25,-6 996.25,-12 996.25,-12 996.25,-24 996.25,-24 996.25,-30 990.25,-36 984.25,-36"/>
<text xml:space="preserve" text-anchor="middle" x="906.12" y="-19.75" font-family="Helvetica,sans-Serif" font-size="10.00">Underway Replenishment 100% Rate</text>
<text xml:space="preserve" text-anchor="middle" x="906.12" y="-8.5" font-family="Helvetica,sans-Serif" font-size="10.00">40K RP</text>
</g>
<!-- Underway_Replenishment_70__Rat&#45;&gt;Underway_Replenishment_100__Ra -->
<g id="edge4" class="edge">
<title>Underway_Replenishment_70__Rat&#45;&gt;Underway_Replenishment_100__Ra</title>
<path fill="none" stroke="black" d="M787.28,-18C793.87,-18 800.54,-18 807.19,-18"/>
<polygon fill="black" stroke="black" points="807.08,-20.45 814.08,-18 807.08,-15.55 807.08,-20.45"/>
</g>
</g>
</svg>
