<?xml version="1.0" encoding="UTF-8" standalone="no"?>
<!DOCTYPE svg PUBLIC "-//W3C//DTD SVG 1.1//EN"
 "http://www.w3.org/Graphics/SVG/1.1/DTD/svg11.dtd">
<!-- Generated by graphviz version 14.1.2 (20260124.0452)
 -->
<!-- Title: TechTree Pages: 1 -->
<svg width="179pt" height="425pt"
 viewBox="0.00 0.00 179.00 425.00" xmlns="http://www.w3.org/2000/svg" xmlns:xlink="http://www.w3.org/1999/xlink">
<g id="graph0" class="graph" transform="scale(1 1) rotate(0) translate(4 420.75)">
<title>TechTree</title>
<polygon fill="white" stroke="none" points="-4,4 -4,-420.75 174.5,-420.75 174.5,4 -4,4"/>
<text xml:space="preserve" text-anchor="middle" x="85.25" y="-401.35" font-family="Helvetica,sans-Serif" font-weight="bold" font-size="12.00">Underway Replenishment</text>
<!-- Underway_Replenishment_20__Rat -->
<g id="node1" class="node">
<title>Underway_Replenishment_20__Rat</title>
<path fill="#cce5ff" stroke="black" d="M155.88,-324C155.88,-324 14.63,-324 14.63,-324 8.63,-324 2.62,-318 2.62,-312 2.62,-312 2.62,-300 2.62,-300 2.62,-294 8.62,-288 14.62,-288 14.62,-288 155.88,-288 155.88,-288 161.88,-288 167.88,-294 167.88,-300 167.88,-300 167.88,-312 167.88,-312 167.88,-318 161.88,-324 155.88,-324"/>
<text xml:space="preserve" text-anchor="middle" x="85.25" y="-307.2" font-family="Helvetica,sans-Serif" font-size="9.00">Underway Replenishment 20% Rate</text>
<text xml:space="preserve" text-anchor="middle" x="85.25" y="-297.45" font-family="Helvetica,sans-Serif" font-size="9.00">2K RP</text>
</g>
<!-- Underway_Replenishment_30__Rat -->
<g id="node2" class="node">
<title>Underway_Replenishment_30__Rat</title>
<path fill="#cce5ff" stroke="black" d="M155.88,-252C155.88,-252 14.63,-252 14.63,-252 8.63,-252 2.62,-246 2.62,-240 2.62,-240 2.62,-228 2.62,-228 2.62,-222 8.62,-216 14.62,-216 14.62,-216 155.88,-216 155.88,-216 161.88,-216 167.88,-222 167.88,-228 167.88,-228 167.88,-240 167.88,-240 167.88,-246 161.88,-252 155.88,-252"/>
<text xml:space="preserve" text-anchor="middle" x="85.25" y="-235.2" font-family="Helvetica,sans-Serif" font-size="9.00">Underway Replenishment 30% Rate</text>
<text xml:space="preserve" text-anchor="middle" x="85.25" y="-225.45" font-family="Helvetica,sans-Serif" font-size="9.00">5K RP</text>
</g>
<!-- Underway_Replenishment_20__Rat&#45;&gt;Underway_Replenishment_30__Rat -->
<g id="edge2" class="edge">
<title>Underway_Replenishment_20__Rat&#45;&gt;Underway_Replenishment_30__Rat</title>
<path fill="none" stroke="black" d="M85.25,-287.7C85.25,-279.22 85.25,-268.86 85.25,-259.58"/>
<polygon fill="black" stroke="black" points="87.35,-259.62 85.25,-253.62 83.15,-259.62 87.35,-259.62"/>
</g>
<!-- Underway_Replenishment_45__Rat -->
<g id="node3" class="node">
<title>Underway_Replenishment_45__Rat</title>
<path fill="#cce5ff" stroke="black" d="M155.88,-180C155.88,-180 14.63,-180 14.63,-180 8.63,-180 2.62,-174 2.62,-168 2.62,-168 2.62,-156 2.62,-156 2.62,-150 8.62,-144 14.62,-144 14.62,-144 155.88,-144 155.88,-144 161.88,-144 167.88,-150 167.88,-156 167.88,-156 167.88,-168 167.88,-168 167.88,-174 161.88,-180 155.88,-180"/>
<text xml:space="preserve" text-anchor="middle" x="85.25" y="-163.2" font-family="Helvetica,sans-Serif" font-size="9.00">Underway Replenishment 45% Rate</text>
<text xml:space="preserve" text-anchor="middle" x="85.25" y="-153.45" font-family="Helvetica,sans-Serif" font-size="9.00">10K RP</text>
</g>
<!-- Underway_Replenishment_30__Rat&#45;&gt;Underway_Replenishment_45__Rat -->
<g id="edge3" class="edge">
<title>Underway_Replenishment_30__Rat&#45;&gt;Underway_Replenishment_45__Rat</title>
<path fill="none" stroke="black" d="M85.25,-215.7C85.25,-207.22 85.25,-196.86 85.25,-187.58"/>
<polygon fill="black" stroke="black" points="87.35,-187.62 85.25,-181.62 83.15,-187.62 87.35,-187.62"/>
</g>
<!-- Underway_Replenishment_70__Rat -->
<g id="node4" class="node">
<title>Underway_Replenishment_70__Rat</title>
<path fill="#fff3cd" stroke="black" d="M155.88,-108C155.88,-108 14.63,-108 14.63,-108 8.63,-108 2.62,-102 2.62,-96 2.62,-96 2.62,-84 2.62,-84 2.62,-78 8.62,-72 14.62,-72 14.62,-72 155.88,-72 155.88,-72 161.88,-72 167.88,-78 167.88,-84 167.88,-84 167.88,-96 167.88,-96 167.88,-102 161.88,-108 155.88,-108"/>
<text xml:space="preserve" text-anchor="middle" x="85.25" y="-91.2" font-family="Helvetica,sans-Serif" font-size="9.00">Underway Replenishment 70% Rate</text>
<text xml:space="preserve" text-anchor="middle" x="85.25" y="-81.45" font-family="Helvetica,sans-Serif" font-size="9.00">20K RP</text>
</g>
<!-- Underway_Replenishment_45__Rat&#45;&gt;Underway_Replenishment_70__Rat -->
<g id="edge4" class="edge">
<title>Underway_Replenishment_45__Rat&#45;&gt;Underway_Replenishment_70__Rat</title>
<path fill="none" stroke="black" d="M85.25,-143.7C85.25,-135.22 85.25,-124.86 85.25,-115.58"/>
<polygon fill="black" stroke="black" points="87.35,-115.62 85.25,-109.62 83.15,-115.62 87.35,-115.62"/>
</g>
<!-- Underway_Replenishment_100__Ra -->
<g id="node5" class="node">
<title>Underway_Replenishment_100__Ra</title>
<path fill="#fff3cd" stroke="black" d="M158.5,-36C158.5,-36 12,-36 12,-36 6,-36 0,-30 0,-24 0,-24 0,-12 0,-12 0,-6 6,0 12,0 12,0 158.5,0 158.5,0 164.5,0 170.5,-6 170.5,-12 170.5,-12 170.5,-24 170.5,-24 170.5,-30 164.5,-36 158.5,-36"/>
<text xml:space="preserve" text-anchor="middle" x="85.25" y="-19.2" font-family="Helvetica,sans-Serif" font-size="9.00">Underway Replenishment 100% Rate</text>
<text xml:space="preserve" text-anchor="middle" x="85.25" y="-9.45" font-family="Helvetica,sans-Serif" font-size="9.00">40K RP</text>
</g>
<!-- Underway_Replenishment_70__Rat&#45;&gt;Underway_Replenishment_100__Ra -->
<g id="edge5" class="edge">
<title>Underway_Replenishment_70__Rat&#45;&gt;Underway_Replenishment_100__Ra</title>
<path fill="none" stroke="black" d="M85.25,-71.7C85.25,-63.22 85.25,-52.86 85.25,-43.58"/>
<polygon fill="black" stroke="black" points="87.35,-43.62 85.25,-37.62 83.15,-43.62 87.35,-43.62"/>
</g>
<!-- ext_Refuelling_System__20_000_LPH -->
<g id="node6" class="node">
<title>ext_Refuelling_System__20_000_LPH</title>
<path fill="#f0f0f0" stroke="black" stroke-dasharray="5,2" d="M145,-396C145,-396 25.5,-396 25.5,-396 19.5,-396 13.5,-390 13.5,-384 13.5,-384 13.5,-372 13.5,-372 13.5,-366 19.5,-360 25.5,-360 25.5,-360 145,-360 145,-360 151,-360 157,-366 157,-372 157,-372 157,-384 157,-384 157,-390 151,-396 145,-396"/>
<text xml:space="preserve" text-anchor="middle" x="85.25" y="-374.32" font-family="Helvetica,sans-Serif" font-size="9.00">Refuelling System: 20,000 LPH</text>
</g>
<!-- ext_Refuelling_System__20_000_LPH&#45;&gt;Underway_Replenishment_20__Rat -->
<g id="edge1" class="edge">
<title>ext_Refuelling_System__20_000_LPH&#45;&gt;Underway_Replenishment_20__Rat</title>
<path fill="none" stroke="black" d="M85.25,-359.7C85.25,-351.22 85.25,-340.86 85.25,-331.58"/>
<polygon fill="black" stroke="black" points="87.35,-331.62 85.25,-325.62 83.15,-331.62 87.35,-331.62"/>
</g>
</g>
</svg>
