<?xml version="1.0" encoding="UTF-8" standalone="no"?>
<!DOCTYPE svg PUBLIC "-//W3C//DTD SVG 1.1//EN"
 "http://www.w3.org/Graphics/SVG/1.1/DTD/svg11.dtd">
<!-- Generated by graphviz version 14.1.2 (20260124.0452)
 -->
<!-- Title: TechTree Pages: 1 -->
<svg width="956pt" height="125pt"
 viewBox="0.00 0.00 956.00 125.00" xmlns="http://www.w3.org/2000/svg" xmlns:xlink="http://www.w3.org/1999/xlink">
<g id="graph0" class="graph" transform="scale(1 1) rotate(0) translate(4 121)">
<title>TechTree</title>
<polygon fill="white" stroke="none" points="-4,4 -4,-121 951.5,-121 951.5,4 -4,4"/>
<text xml:space="preserve" text-anchor="middle" x="473.75" y="-99.7" font-family="Helvetica,sans-Serif" font-weight="bold" font-size="14.00">Vehicle Armour Type</text>
<!-- Minimal_Vehicle_Armour___ARM_1 -->
<g id="node1" class="node">
<title>Minimal_Vehicle_Armour___ARM_1</title>
<path fill="#d4edda" stroke="black" d="M145.75,-36C145.75,-36 12,-36 12,-36 6,-36 0,-30 0,-24 0,-24 0,-12 0,-12 0,-6 6,0 12,0 12,0 145.75,0 145.75,0 151.75,0 157.75,-6 157.75,-12 157.75,-12 157.75,-24 157.75,-24 157.75,-30 151.75,-36 145.75,-36"/>
<text xml:space="preserve" text-anchor="middle" x="78.88" y="-19.75" font-family="Helvetica,sans-Serif" font-size="10.00">Minimal Vehicle Armour &#45; ARM 1</text>
<text xml:space="preserve" text-anchor="middle" x="78.88" y="-8.5" font-family="Helvetica,sans-Serif" font-size="10.00">1 RP</text>
</g>
<!-- Light_Vehicle_Armour___ARM_2 -->
<g id="node2" class="node">
<title>Light_Vehicle_Armour___ARM_2</title>
<path fill="#d4edda" stroke="black" d="M139.38,-94C139.38,-94 18.37,-94 18.37,-94 12.37,-94 6.38,-88 6.38,-82 6.38,-82 6.38,-70 6.38,-70 6.38,-64 12.38,-58 18.38,-58 18.38,-58 139.38,-58 139.38,-58 145.38,-58 151.38,-64 151.38,-70 151.38,-70 151.38,-82 151.38,-82 151.38,-88 145.38,-94 139.38,-94"/>
<text xml:space="preserve" text-anchor="middle" x="78.88" y="-77.75" font-family="Helvetica,sans-Serif" font-size="10.00">Light Vehicle Armour &#45; ARM 2</text>
<text xml:space="preserve" text-anchor="middle" x="78.88" y="-66.5" font-family="Helvetica,sans-Serif" font-size="10.00">2 RP</text>
</g>
<!-- Medium_Vehicle_Armour___ARM_4 -->
<g id="node3" class="node">
<title>Medium_Vehicle_Armour___ARM_4</title>
<path fill="#d4edda" stroke="black" d="M333.25,-94C333.25,-94 198.75,-94 198.75,-94 192.75,-94 186.75,-88 186.75,-82 186.75,-82 186.75,-70 186.75,-70 186.75,-64 192.75,-58 198.75,-58 198.75,-58 333.25,-58 333.25,-58 339.25,-58 345.25,-64 345.25,-70 345.25,-70 345.25,-82 345.25,-82 345.25,-88 339.25,-94 333.25,-94"/>
<text xml:space="preserve" text-anchor="middle" x="266" y="-77.75" font-family="Helvetica,sans-Serif" font-size="10.00">Medium Vehicle Armour &#45; ARM 4</text>
<text xml:space="preserve" text-anchor="middle" x="266" y="-66.5" font-family="Helvetica,sans-Serif" font-size="10.00">3 RP</text>
</g>
<!-- Light_Vehicle_Armour___ARM_2&#45;&gt;Medium_Vehicle_Armour___ARM_4 -->
<g id="edge1" class="edge">
<title>Light_Vehicle_Armour___ARM_2&#45;&gt;Medium_Vehicle_Armour___ARM_4</title>
<path fill="none" stroke="black" d="M151.71,-76C160.34,-76 169.22,-76 178.03,-76"/>
<polygon fill="black" stroke="black" points="177.93,-78.45 184.93,-76 177.93,-73.55 177.93,-78.45"/>
</g>
<!-- Heavy_Vehicle_Armour___ARM_6 -->
<g id="node4" class="node">
<title>Heavy_Vehicle_Armour___ARM_6</title>
<path fill="#cce5ff" stroke="black" d="M514.75,-94C514.75,-94 386.25,-94 386.25,-94 380.25,-94 374.25,-88 374.25,-82 374.25,-82 374.25,-70 374.25,-70 374.25,-64 380.25,-58 386.25,-58 386.25,-58 514.75,-58 514.75,-58 520.75,-58 526.75,-64 526.75,-70 526.75,-70 526.75,-82 526.75,-82 526.75,-88 520.75,-94 514.75,-94"/>
<text xml:space="preserve" text-anchor="middle" x="450.5" y="-77.75" font-family="Helvetica,sans-Serif" font-size="10.00">Heavy Vehicle Armour &#45; ARM 6</text>
<text xml:space="preserve" text-anchor="middle" x="450.5" y="-66.5" font-family="Helvetica,sans-Serif" font-size="10.00">2K RP</text>
</g>
<!-- Medium_Vehicle_Armour___ARM_4&#45;&gt;Heavy_Vehicle_Armour___ARM_6 -->
<g id="edge2" class="edge">
<title>Medium_Vehicle_Armour___ARM_4&#45;&gt;Heavy_Vehicle_Armour___ARM_6</title>
<path fill="none" stroke="black" d="M345.72,-76C352.3,-76 358.97,-76 365.59,-76"/>
<polygon fill="black" stroke="black" points="365.41,-78.45 372.41,-76 365.41,-73.55 365.41,-78.45"/>
</g>
<!-- Super_Heavy_Vehicle_Armour___A -->
<g id="node5" class="node">
<title>Super_Heavy_Vehicle_Armour___A</title>
<path fill="#cce5ff" stroke="black" d="M724.75,-94C724.75,-94 567.75,-94 567.75,-94 561.75,-94 555.75,-88 555.75,-82 555.75,-82 555.75,-70 555.75,-70 555.75,-64 561.75,-58 567.75,-58 567.75,-58 724.75,-58 724.75,-58 730.75,-58 736.75,-64 736.75,-70 736.75,-70 736.75,-82 736.75,-82 736.75,-88 730.75,-94 724.75,-94"/>
<text xml:space="preserve" text-anchor="middle" x="646.25" y="-77.75" font-family="Helvetica,sans-Serif" font-size="10.00">Super&#45;Heavy Vehicle Armour &#45; ARM 9</text>
<text xml:space="preserve" text-anchor="middle" x="646.25" y="-66.5" font-family="Helvetica,sans-Serif" font-size="10.00">5K RP</text>
</g>
<!-- Heavy_Vehicle_Armour___ARM_6&#45;&gt;Super_Heavy_Vehicle_Armour___A -->
<g id="edge3" class="edge">
<title>Heavy_Vehicle_Armour___ARM_6&#45;&gt;Super_Heavy_Vehicle_Armour___A</title>
<path fill="none" stroke="black" d="M527.24,-76C533.73,-76 540.36,-76 546.99,-76"/>
<polygon fill="black" stroke="black" points="546.88,-78.45 553.88,-76 546.88,-73.55 546.88,-78.45"/>
</g>
<!-- Ultra_Heavy_Vehicle_Armour___A -->
<g id="node6" class="node">
<title>Ultra_Heavy_Vehicle_Armour___A</title>
<path fill="#cce5ff" stroke="black" d="M935.5,-94C935.5,-94 777.75,-94 777.75,-94 771.75,-94 765.75,-88 765.75,-82 765.75,-82 765.75,-70 765.75,-70 765.75,-64 771.75,-58 777.75,-58 777.75,-58 935.5,-58 935.5,-58 941.5,-58 947.5,-64 947.5,-70 947.5,-70 947.5,-82 947.5,-82 947.5,-88 941.5,-94 935.5,-94"/>
<text xml:space="preserve" text-anchor="middle" x="856.62" y="-77.75" font-family="Helvetica,sans-Serif" font-size="10.00">Ultra&#45;Heavy Vehicle Armour &#45; ARM 12</text>
<text xml:space="preserve" text-anchor="middle" x="856.62" y="-66.5" font-family="Helvetica,sans-Serif" font-size="10.00">10K RP</text>
</g>
<!-- Super_Heavy_Vehicle_Armour___A&#45;&gt;Ultra_Heavy_Vehicle_Armour___A -->
<g id="edge4" class="edge">
<title>Super_Heavy_Vehicle_Armour___A&#45;&gt;Ultra_Heavy_Vehicle_Armour___A</title>
<path fill="none" stroke="black" d="M737.13,-76C743.71,-76 750.38,-76 757.01,-76"/>
<polygon fill="black" stroke="black" points="756.87,-78.45 763.87,-76 756.87,-73.55 756.87,-78.45"/>
</g>
</g>
</svg>
