<?xml version="1.0" encoding="UTF-8" standalone="no"?>
<!DOCTYPE svg PUBLIC "-//W3C//DTD SVG 1.1//EN"
 "http://www.w3.org/Graphics/SVG/1.1/DTD/svg11.dtd">
<!-- Generated by graphviz version 14.1.2 (20260124.0452)
 -->
<!-- Title: TechTree Pages: 1 -->
<svg width="731pt" height="353pt"
 viewBox="0.00 0.00 731.00 353.00" xmlns="http://www.w3.org/2000/svg" xmlns:xlink="http://www.w3.org/1999/xlink">
<g id="graph0" class="graph" transform="scale(1 1) rotate(0) translate(4 348.75)">
<title>TechTree</title>
<polygon fill="white" stroke="none" points="-4,4 -4,-348.75 726.88,-348.75 726.88,4 -4,4"/>
<text xml:space="preserve" text-anchor="middle" x="361.44" y="-329.35" font-family="Helvetica,sans-Serif" font-weight="bold" font-size="12.00">Vehicle Armour Type</text>
<!-- Minimal_Vehicle_Armour___ARM_1 -->
<g id="node1" class="node">
<title>Minimal_Vehicle_Armour___ARM_1</title>
<path fill="#d4edda" stroke="black" d="M136,-324C136,-324 12,-324 12,-324 6,-324 0,-318 0,-312 0,-312 0,-300 0,-300 0,-294 6,-288 12,-288 12,-288 136,-288 136,-288 142,-288 148,-294 148,-300 148,-300 148,-312 148,-312 148,-318 142,-324 136,-324"/>
<text xml:space="preserve" text-anchor="middle" x="74" y="-307.2" font-family="Helvetica,sans-Serif" font-size="9.00">Minimal Vehicle Armour &#45; ARM 1</text>
<text xml:space="preserve" text-anchor="middle" x="74" y="-297.45" font-family="Helvetica,sans-Serif" font-size="9.00">1 RP</text>
</g>
<!-- Light_Vehicle_Armour___ARM_2 -->
<g id="node2" class="node">
<title>Light_Vehicle_Armour___ARM_2</title>
<path fill="#d4edda" stroke="black" d="M290,-324C290,-324 178,-324 178,-324 172,-324 166,-318 166,-312 166,-312 166,-300 166,-300 166,-294 172,-288 178,-288 178,-288 290,-288 290,-288 296,-288 302,-294 302,-300 302,-300 302,-312 302,-312 302,-318 296,-324 290,-324"/>
<text xml:space="preserve" text-anchor="middle" x="234" y="-307.2" font-family="Helvetica,sans-Serif" font-size="9.00">Light Vehicle Armour &#45; ARM 2</text>
<text xml:space="preserve" text-anchor="middle" x="234" y="-297.45" font-family="Helvetica,sans-Serif" font-size="9.00">2 RP</text>
</g>
<!-- Medium_Vehicle_Armour___ARM_4 -->
<g id="node3" class="node">
<title>Medium_Vehicle_Armour___ARM_4</title>
<path fill="#d4edda" stroke="black" d="M296.38,-252C296.38,-252 171.62,-252 171.62,-252 165.62,-252 159.62,-246 159.62,-240 159.62,-240 159.62,-228 159.62,-228 159.62,-222 165.62,-216 171.62,-216 171.62,-216 296.38,-216 296.38,-216 302.38,-216 308.38,-222 308.38,-228 308.38,-228 308.38,-240 308.38,-240 308.38,-246 302.38,-252 296.38,-252"/>
<text xml:space="preserve" text-anchor="middle" x="234" y="-235.2" font-family="Helvetica,sans-Serif" font-size="9.00">Medium Vehicle Armour &#45; ARM 4</text>
<text xml:space="preserve" text-anchor="middle" x="234" y="-225.45" font-family="Helvetica,sans-Serif" font-size="9.00">3 RP</text>
</g>
<!-- Light_Vehicle_Armour___ARM_2&#45;&gt;Medium_Vehicle_Armour___ARM_4 -->
<g id="edge1" class="edge">
<title>Light_Vehicle_Armour___ARM_2&#45;&gt;Medium_Vehicle_Armour___ARM_4</title>
<path fill="none" stroke="black" d="M234,-287.7C234,-279.22 234,-268.86 234,-259.58"/>
<polygon fill="black" stroke="black" points="236.1,-259.62 234,-253.62 231.9,-259.62 236.1,-259.62"/>
</g>
<!-- Heavy_Vehicle_Armour___ARM_6 -->
<g id="node4" class="node">
<title>Heavy_Vehicle_Armour___ARM_6</title>
<path fill="#cce5ff" stroke="black" d="M383,-180C383,-180 265,-180 265,-180 259,-180 253,-174 253,-168 253,-168 253,-156 253,-156 253,-150 259,-144 265,-144 265,-144 383,-144 383,-144 389,-144 395,-150 395,-156 395,-156 395,-168 395,-168 395,-174 389,-180 383,-180"/>
<text xml:space="preserve" text-anchor="middle" x="324" y="-163.2" font-family="Helvetica,sans-Serif" font-size="9.00">Heavy Vehicle Armour &#45; ARM 6</text>
<text xml:space="preserve" text-anchor="middle" x="324" y="-153.45" font-family="Helvetica,sans-Serif" font-size="9.00">2K RP</text>
</g>
<!-- Medium_Vehicle_Armour___ARM_4&#45;&gt;Heavy_Vehicle_Armour___ARM_6 -->
<g id="edge2" class="edge">
<title>Medium_Vehicle_Armour___ARM_4&#45;&gt;Heavy_Vehicle_Armour___ARM_6</title>
<path fill="none" stroke="black" d="M256.25,-215.7C268.25,-206.36 283.19,-194.74 295.99,-184.79"/>
<polygon fill="black" stroke="black" points="297.06,-186.62 300.5,-181.28 294.48,-183.3 297.06,-186.62"/>
</g>
<!-- Super_Heavy_Vehicle_Armour___A -->
<g id="node5" class="node">
<title>Super_Heavy_Vehicle_Armour___A</title>
<path fill="#cce5ff" stroke="black" d="M492.88,-108C492.88,-108 347.12,-108 347.12,-108 341.12,-108 335.12,-102 335.12,-96 335.12,-96 335.12,-84 335.12,-84 335.12,-78 341.12,-72 347.12,-72 347.12,-72 492.88,-72 492.88,-72 498.88,-72 504.88,-78 504.88,-84 504.88,-84 504.88,-96 504.88,-96 504.88,-102 498.88,-108 492.88,-108"/>
<text xml:space="preserve" text-anchor="middle" x="420" y="-91.2" font-family="Helvetica,sans-Serif" font-size="9.00">Super&#45;Heavy Vehicle Armour &#45; ARM 9</text>
<text xml:space="preserve" text-anchor="middle" x="420" y="-81.45" font-family="Helvetica,sans-Serif" font-size="9.00">5K RP</text>
</g>
<!-- Heavy_Vehicle_Armour___ARM_6&#45;&gt;Super_Heavy_Vehicle_Armour___A -->
<g id="edge4" class="edge">
<title>Heavy_Vehicle_Armour___ARM_6&#45;&gt;Super_Heavy_Vehicle_Armour___A</title>
<path fill="none" stroke="black" d="M347.73,-143.7C360.65,-134.27 376.76,-122.53 390.49,-112.52"/>
<polygon fill="black" stroke="black" points="391.38,-114.47 394.99,-109.24 388.9,-111.08 391.38,-114.47"/>
</g>
<!-- Ultra_Heavy_Vehicle_Armour___A -->
<g id="node6" class="node">
<title>Ultra_Heavy_Vehicle_Armour___A</title>
<path fill="#cce5ff" stroke="black" d="M593.88,-36C593.88,-36 448.12,-36 448.12,-36 442.12,-36 436.12,-30 436.12,-24 436.12,-24 436.12,-12 436.12,-12 436.12,-6 442.12,0 448.12,0 448.12,0 593.88,0 593.88,0 599.88,0 605.88,-6 605.88,-12 605.88,-12 605.88,-24 605.88,-24 605.88,-30 599.88,-36 593.88,-36"/>
<text xml:space="preserve" text-anchor="middle" x="521" y="-19.2" font-family="Helvetica,sans-Serif" font-size="9.00">Ultra&#45;Heavy Vehicle Armour &#45; ARM 12</text>
<text xml:space="preserve" text-anchor="middle" x="521" y="-9.45" font-family="Helvetica,sans-Serif" font-size="9.00">10K RP</text>
</g>
<!-- Super_Heavy_Vehicle_Armour___A&#45;&gt;Ultra_Heavy_Vehicle_Armour___A -->
<g id="edge6" class="edge">
<title>Super_Heavy_Vehicle_Armour___A&#45;&gt;Ultra_Heavy_Vehicle_Armour___A</title>
<path fill="none" stroke="black" d="M445.23,-71.52C458.83,-62.09 475.72,-50.38 490.1,-40.41"/>
<polygon fill="black" stroke="black" points="491.12,-42.27 494.85,-37.12 488.72,-38.81 491.12,-42.27"/>
</g>
<!-- ext_Ground_Unit_Base_Type___Heavy_ -->
<g id="node7" class="node">
<title>ext_Ground_Unit_Base_Type___Heavy_</title>
<path fill="#f0f0f0" stroke="black" stroke-dasharray="5,2" d="M491.62,-252C491.62,-252 338.38,-252 338.38,-252 332.38,-252 326.38,-246 326.38,-240 326.38,-240 326.38,-228 326.38,-228 326.38,-222 332.38,-216 338.38,-216 338.38,-216 491.62,-216 491.62,-216 497.62,-216 503.62,-222 503.62,-228 503.62,-228 503.62,-240 503.62,-240 503.62,-246 497.62,-252 491.62,-252"/>
<text xml:space="preserve" text-anchor="middle" x="415" y="-230.32" font-family="Helvetica,sans-Serif" font-size="9.00">Ground Unit Base Type &#45; Heavy Vehicle</text>
</g>
<!-- ext_Ground_Unit_Base_Type___Heavy_&#45;&gt;Heavy_Vehicle_Armour___ARM_6 -->
<g id="edge3" class="edge">
<title>ext_Ground_Unit_Base_Type___Heavy_&#45;&gt;Heavy_Vehicle_Armour___ARM_6</title>
<path fill="none" stroke="black" d="M392.51,-215.7C380.36,-206.36 365.26,-194.74 352.32,-184.79"/>
<polygon fill="black" stroke="black" points="353.79,-183.26 347.75,-181.27 351.23,-186.59 353.79,-183.26"/>
</g>
<!-- ext_Ground_Unit_Base_Type___Super_ -->
<g id="node8" class="node">
<title>ext_Ground_Unit_Base_Type___Super_</title>
<path fill="#f0f0f0" stroke="black" stroke-dasharray="5,2" d="M606.5,-180C606.5,-180 425.5,-180 425.5,-180 419.5,-180 413.5,-174 413.5,-168 413.5,-168 413.5,-156 413.5,-156 413.5,-150 419.5,-144 425.5,-144 425.5,-144 606.5,-144 606.5,-144 612.5,-144 618.5,-150 618.5,-156 618.5,-156 618.5,-168 618.5,-168 618.5,-174 612.5,-180 606.5,-180"/>
<text xml:space="preserve" text-anchor="middle" x="516" y="-158.32" font-family="Helvetica,sans-Serif" font-size="9.00">Ground Unit Base Type &#45; Super&#45;Heavy Vehicle</text>
</g>
<!-- ext_Ground_Unit_Base_Type___Super_&#45;&gt;Super_Heavy_Vehicle_Armour___A -->
<g id="edge5" class="edge">
<title>ext_Ground_Unit_Base_Type___Super_&#45;&gt;Super_Heavy_Vehicle_Armour___A</title>
<path fill="none" stroke="black" d="M492.27,-143.7C479.35,-134.27 463.24,-122.53 449.51,-112.52"/>
<polygon fill="black" stroke="black" points="451.1,-111.08 445.01,-109.24 448.62,-114.47 451.1,-111.08"/>
</g>
<!-- ext_Ground_Unit_Base_Type___Ultra_ -->
<g id="node9" class="node">
<title>ext_Ground_Unit_Base_Type___Ultra_</title>
<path fill="#f0f0f0" stroke="black" stroke-dasharray="5,2" d="M710.88,-108C710.88,-108 535.12,-108 535.12,-108 529.12,-108 523.12,-102 523.12,-96 523.12,-96 523.12,-84 523.12,-84 523.12,-78 529.12,-72 535.12,-72 535.12,-72 710.88,-72 710.88,-72 716.88,-72 722.88,-78 722.88,-84 722.88,-84 722.88,-96 722.88,-96 722.88,-102 716.88,-108 710.88,-108"/>
<text xml:space="preserve" text-anchor="middle" x="623" y="-86.33" font-family="Helvetica,sans-Serif" font-size="9.00">Ground Unit Base Type &#45; Ultra&#45;Heavy Vehicle</text>
</g>
<!-- ext_Ground_Unit_Base_Type___Ultra_&#45;&gt;Ultra_Heavy_Vehicle_Armour___A -->
<g id="edge7" class="edge">
<title>ext_Ground_Unit_Base_Type___Ultra_&#45;&gt;Ultra_Heavy_Vehicle_Armour___A</title>
<path fill="none" stroke="black" d="M597.52,-71.52C583.79,-62.09 566.73,-50.38 552.2,-40.41"/>
<polygon fill="black" stroke="black" points="553.53,-38.78 547.4,-37.12 551.16,-42.24 553.53,-38.78"/>
</g>
</g>
</svg>
