<?xml version="1.0" encoding="UTF-8" standalone="no"?>
<!DOCTYPE svg PUBLIC "-//W3C//DTD SVG 1.1//EN"
 "http://www.w3.org/Graphics/SVG/1.1/DTD/svg11.dtd">
<!-- Generated by graphviz version 14.1.2 (20260124.0452)
 -->
<!-- Title: G Pages: 1 -->
<svg width="1577pt" height="530pt"
 viewBox="0.00 0.00 1577.00 530.00" xmlns="http://www.w3.org/2000/svg" xmlns:xlink="http://www.w3.org/1999/xlink">
<g id="graph0" class="graph" transform="scale(1 1) rotate(0) translate(4 526.38)">
<title>G</title>
<polygon fill="#1a1a2e" stroke="none" points="-4,4 -4,-526.38 1573.38,-526.38 1573.38,4 -4,4"/>
<g id="clust1" class="cluster">
<title>cluster_sources</title>
<polygon fill="#1f2f2a" stroke="#95d5b2" stroke-dasharray="5,2" points="14.5,-91.38 14.5,-425.38 133.5,-425.38 133.5,-91.38 14.5,-91.38"/>
<text xml:space="preserve" text-anchor="middle" x="74" y="-409.98" font-family="Helvetica,sans-Serif" font-size="12.00" fill="#95d5b2">Sorium Sources</text>
</g>
<g id="clust2" class="cluster">
<title>cluster_extraction</title>
<polygon fill="#2f2f1f" stroke="#ffe66d" stroke-dasharray="5,2" points="256,-91.38 256,-346.38 371.25,-346.38 371.25,-91.38 256,-91.38"/>
<text xml:space="preserve" text-anchor="middle" x="313.62" y="-330.98" font-family="Helvetica,sans-Serif" font-size="12.00" fill="#ffe66d">Extraction</text>
</g>
<g id="clust3" class="cluster">
<title>cluster_processing</title>
<polygon fill="#1f1f2f" stroke="#4ecdc4" stroke-dasharray="5,2" points="499,-83.38 499,-251.38 814.5,-251.38 814.5,-83.38 499,-83.38"/>
<text xml:space="preserve" text-anchor="middle" x="656.75" y="-235.97" font-family="Helvetica,sans-Serif" font-size="12.00" fill="#4ecdc4">Processing</text>
</g>
<g id="clust4" class="cluster">
<title>cluster_distribution</title>
<polygon fill="#2f1f1f" stroke="#ff6b6b" stroke-dasharray="5,2" points="932.5,-87.38 932.5,-256.38 1388,-256.38 1388,-87.38 932.5,-87.38"/>
<text xml:space="preserve" text-anchor="middle" x="1160.25" y="-240.97" font-family="Helvetica,sans-Serif" font-size="12.00" fill="#ff6b6b">Storage &amp; Distribution</text>
</g>
<g id="clust5" class="cluster">
<title>cluster_consumption</title>
<polygon fill="#1f1f1f" stroke="#888888" stroke-dasharray="5,2" points="1481.25,-283.38 1481.25,-514.38 1568.5,-514.38 1568.5,-283.38 1481.25,-283.38"/>
<text xml:space="preserve" text-anchor="middle" x="1524.88" y="-498.98" font-family="Helvetica,sans-Serif" font-size="12.00" fill="#888888">Consumption</text>
</g>
<!-- title -->
<g id="node1" class="node">
<title>title</title>
<path fill="#2d2d44" stroke="none" d="M136,-56.38C136,-56.38 12,-56.38 12,-56.38 6,-56.38 0,-50.38 0,-44.38 0,-44.38 0,-32.38 0,-32.38 0,-26.38 6,-20.38 12,-20.38 12,-20.38 136,-20.38 136,-20.38 142,-20.38 148,-26.38 148,-32.38 148,-32.38 148,-44.38 148,-44.38 148,-50.38 142,-56.38 136,-56.38"/>
<text xml:space="preserve" text-anchor="middle" x="74" y="-31.43" font-family="Helvetica,sans-Serif" font-size="16.00" fill="#4ecdc4">Fuel Supply Chain</text>
</g>
<!-- planetary -->
<g id="node2" class="node">
<title>planetary</title>
<path fill="#2d4d44" stroke="#95d5b2" d="M105.62,-230.38C105.62,-230.38 42.37,-230.38 42.37,-230.38 36.38,-230.38 30.38,-224.38 30.38,-218.38 30.38,-218.38 30.38,-198.38 30.38,-198.38 30.38,-192.38 36.38,-186.38 42.38,-186.38 42.38,-186.38 105.62,-186.38 105.62,-186.38 111.62,-186.38 117.62,-192.38 117.62,-198.38 117.62,-198.38 117.62,-218.38 117.62,-218.38 117.62,-224.38 111.62,-230.38 105.62,-230.38"/>
<text xml:space="preserve" text-anchor="middle" x="74" y="-215.93" font-family="Helvetica,sans-Serif" font-size="11.00" fill="white">Planetary</text>
<text xml:space="preserve" text-anchor="middle" x="74" y="-203.93" font-family="Helvetica,sans-Serif" font-size="11.00" fill="white">Deposits</text>
<text xml:space="preserve" text-anchor="middle" x="74" y="-191.93" font-family="Helvetica,sans-Serif" font-size="11.00" fill="white">(survey to find)</text>
</g>
<!-- mines -->
<g id="node6" class="node">
<title>mines</title>
<path fill="#4d4d2d" stroke="#ffe66d" d="M343.38,-317.38C343.38,-317.38 283.88,-317.38 283.88,-317.38 277.88,-317.38 271.88,-311.38 271.88,-305.38 271.88,-305.38 271.88,-285.38 271.88,-285.38 271.88,-279.38 277.88,-273.38 283.88,-273.38 283.88,-273.38 343.38,-273.38 343.38,-273.38 349.38,-273.38 355.38,-279.38 355.38,-285.38 355.38,-285.38 355.38,-305.38 355.38,-305.38 355.38,-311.38 349.38,-317.38 343.38,-317.38"/>
<text xml:space="preserve" text-anchor="middle" x="313.62" y="-302.93" font-family="Helvetica,sans-Serif" font-size="11.00" fill="white">Mining</text>
<text xml:space="preserve" text-anchor="middle" x="313.62" y="-290.93" font-family="Helvetica,sans-Serif" font-size="11.00" fill="white">Operations</text>
<text xml:space="preserve" text-anchor="middle" x="313.62" y="-278.93" font-family="Helvetica,sans-Serif" font-size="11.00" fill="white">(conventional)</text>
</g>
<!-- planetary&#45;&gt;mines -->
<g id="edge1" class="edge">
<title>planetary&#45;&gt;mines</title>
<path fill="none" stroke="#4ecdc4" d="M117.72,-215.71C176.99,-215.71 275.5,-215.71 275.5,-215.71 275.5,-215.71 275.5,-263.67 275.5,-263.67"/>
<polygon fill="#4ecdc4" stroke="#4ecdc4" points="272.7,-263.67 275.5,-271.67 278.3,-263.67 272.7,-263.67"/>
<text xml:space="preserve" text-anchor="middle" x="206" y="-238.57" font-family="Helvetica,sans-Serif" font-size="9.00" fill="#888888">deposit</text>
</g>
<!-- gas_giant -->
<g id="node3" class="node">
<title>gas_giant</title>
<path fill="#2d4d44" stroke="#95d5b2" d="M101.88,-143.38C101.88,-143.38 46.12,-143.38 46.12,-143.38 40.12,-143.38 34.12,-137.38 34.12,-131.38 34.12,-131.38 34.12,-111.38 34.12,-111.38 34.12,-105.38 40.12,-99.38 46.12,-99.38 46.12,-99.38 101.88,-99.38 101.88,-99.38 107.88,-99.38 113.88,-105.38 113.88,-111.38 113.88,-111.38 113.88,-131.38 113.88,-131.38 113.88,-137.38 107.88,-143.38 101.88,-143.38"/>
<text xml:space="preserve" text-anchor="middle" x="74" y="-128.93" font-family="Helvetica,sans-Serif" font-size="11.00" fill="white">Gas Giant</text>
<text xml:space="preserve" text-anchor="middle" x="74" y="-116.92" font-family="Helvetica,sans-Serif" font-size="11.00" fill="white">Atmospheres</text>
<text xml:space="preserve" text-anchor="middle" x="74" y="-104.92" font-family="Helvetica,sans-Serif" font-size="11.00" fill="white">(renewable)</text>
</g>
<!-- harvesters -->
<g id="node7" class="node">
<title>harvesters</title>
<path fill="#4d4d2d" stroke="#ffe66d" d="M351.25,-143.38C351.25,-143.38 276,-143.38 276,-143.38 270,-143.38 264,-137.38 264,-131.38 264,-131.38 264,-111.38 264,-111.38 264,-105.38 270,-99.38 276,-99.38 276,-99.38 351.25,-99.38 351.25,-99.38 357.25,-99.38 363.25,-105.38 363.25,-111.38 363.25,-111.38 363.25,-131.38 363.25,-131.38 363.25,-137.38 357.25,-143.38 351.25,-143.38"/>
<text xml:space="preserve" text-anchor="middle" x="313.62" y="-128.93" font-family="Helvetica,sans-Serif" font-size="11.00" fill="white">Sorium</text>
<text xml:space="preserve" text-anchor="middle" x="313.62" y="-116.92" font-family="Helvetica,sans-Serif" font-size="11.00" fill="white">Harvesters</text>
<text xml:space="preserve" text-anchor="middle" x="313.62" y="-104.92" font-family="Helvetica,sans-Serif" font-size="11.00" fill="white">(ship component)</text>
</g>
<!-- gas_giant&#45;&gt;harvesters -->
<g id="edge4" class="edge">
<title>gas_giant&#45;&gt;harvesters</title>
<path fill="none" stroke="#4ecdc4" d="M114.11,-121.38C114.11,-121.38 254.31,-121.38 254.31,-121.38"/>
<polygon fill="#4ecdc4" stroke="#4ecdc4" points="254.31,-124.18 262.31,-121.38 254.31,-118.58 254.31,-124.18"/>
<text xml:space="preserve" text-anchor="middle" x="206" y="-122.58" font-family="Helvetica,sans-Serif" font-size="9.00" fill="#888888">harvest</text>
</g>
<!-- orbital_harv -->
<g id="node8" class="node">
<title>orbital_harv</title>
<path fill="#4d4d2d" stroke="#ffe66d" d="M335.5,-230.38C335.5,-230.38 291.75,-230.38 291.75,-230.38 285.75,-230.38 279.75,-224.38 279.75,-218.38 279.75,-218.38 279.75,-198.38 279.75,-198.38 279.75,-192.38 285.75,-186.38 291.75,-186.38 291.75,-186.38 335.5,-186.38 335.5,-186.38 341.5,-186.38 347.5,-192.38 347.5,-198.38 347.5,-198.38 347.5,-218.38 347.5,-218.38 347.5,-224.38 341.5,-230.38 335.5,-230.38"/>
<text xml:space="preserve" text-anchor="middle" x="313.62" y="-215.93" font-family="Helvetica,sans-Serif" font-size="11.00" fill="white">Orbital</text>
<text xml:space="preserve" text-anchor="middle" x="313.62" y="-203.93" font-family="Helvetica,sans-Serif" font-size="11.00" fill="white">Harvesting</text>
<text xml:space="preserve" text-anchor="middle" x="313.62" y="-191.93" font-family="Helvetica,sans-Serif" font-size="11.00" fill="white">Facility</text>
</g>
<!-- gas_giant&#45;&gt;orbital_harv -->
<g id="edge5" class="edge">
<title>gas_giant&#45;&gt;orbital_harv</title>
<path fill="none" stroke="#4ecdc4" d="M114.08,-132.38C118.53,-132.38 121.5,-132.38 121.5,-132.38 121.5,-132.38 121.5,-201.04 121.5,-201.04 121.5,-201.04 269.76,-201.04 269.76,-201.04"/>
<polygon fill="#4ecdc4" stroke="#4ecdc4" points="269.76,-203.84 277.76,-201.04 269.76,-198.24 269.76,-203.84"/>
<text xml:space="preserve" text-anchor="middle" x="206" y="-180.57" font-family="Helvetica,sans-Serif" font-size="9.00" fill="#888888">harvest</text>
</g>
<!-- insight -->
<g id="node18" class="node">
<title>insight</title>
<polygon fill="#2d4d4d" stroke="#95d5b2" points="354.25,-56.75 267,-56.75 267,0 360.25,0 360.25,-50.75 354.25,-56.75"/>
<polyline fill="none" stroke="#95d5b2" points="354.25,-56.75 354.25,-50.75"/>
<polyline fill="none" stroke="#95d5b2" points="360.25,-50.75 354.25,-50.75"/>
<text xml:space="preserve" text-anchor="middle" x="313.62" y="-44.2" font-family="Helvetica,sans-Serif" font-size="9.00" fill="#95d5b2">KEY INSIGHT:</text>
<text xml:space="preserve" text-anchor="middle" x="313.62" y="-34.45" font-family="Helvetica,sans-Serif" font-size="9.00" fill="#95d5b2">Gas giants provide</text>
<text xml:space="preserve" text-anchor="middle" x="313.62" y="-24.7" font-family="Helvetica,sans-Serif" font-size="9.00" fill="#95d5b2">renewable Sorium;</text>
<text xml:space="preserve" text-anchor="middle" x="313.62" y="-14.95" font-family="Helvetica,sans-Serif" font-size="9.00" fill="#95d5b2">planet deposits</text>
<text xml:space="preserve" text-anchor="middle" x="313.62" y="-5.2" font-family="Helvetica,sans-Serif" font-size="9.00" fill="#95d5b2">are finite</text>
</g>
<!-- gas_giant&#45;&gt;insight -->
<!-- asteroid -->
<g id="node4" class="node">
<title>asteroid</title>
<path fill="#2d4d44" stroke="#95d5b2" d="M91,-396.38C91,-396.38 57,-396.38 57,-396.38 51,-396.38 45,-390.38 45,-384.38 45,-384.38 45,-372.38 45,-372.38 45,-366.38 51,-360.38 57,-360.38 57,-360.38 91,-360.38 91,-360.38 97,-360.38 103,-366.38 103,-372.38 103,-372.38 103,-384.38 103,-384.38 103,-390.38 97,-396.38 91,-396.38"/>
<text xml:space="preserve" text-anchor="middle" x="74" y="-379.93" font-family="Helvetica,sans-Serif" font-size="11.00" fill="white">Asteroid</text>
<text xml:space="preserve" text-anchor="middle" x="74" y="-367.93" font-family="Helvetica,sans-Serif" font-size="11.00" fill="white">Deposits</text>
</g>
<!-- asteroid&#45;&gt;mines -->
<g id="edge2" class="edge">
<title>asteroid&#45;&gt;mines</title>
<path fill="none" stroke="#4ecdc4" d="M103.37,-365.38C167.32,-365.38 313.5,-365.38 313.5,-365.38 313.5,-365.38 313.5,-327.04 313.5,-327.04"/>
<polygon fill="#4ecdc4" stroke="#4ecdc4" points="316.3,-327.04 313.5,-319.04 310.7,-327.04 316.3,-327.04"/>
<text xml:space="preserve" text-anchor="middle" x="206" y="-366.57" font-family="Helvetica,sans-Serif" font-size="9.00" fill="#888888">deposit</text>
</g>
<!-- comet -->
<g id="node5" class="node">
<title>comet</title>
<path fill="#2d4d44" stroke="#95d5b2" d="M113.5,-317.38C113.5,-317.38 34.5,-317.38 34.5,-317.38 28.5,-317.38 22.5,-311.38 22.5,-305.38 22.5,-305.38 22.5,-285.38 22.5,-285.38 22.5,-279.38 28.5,-273.38 34.5,-273.38 34.5,-273.38 113.5,-273.38 113.5,-273.38 119.5,-273.38 125.5,-279.38 125.5,-285.38 125.5,-285.38 125.5,-305.38 125.5,-305.38 125.5,-311.38 119.5,-317.38 113.5,-317.38"/>
<text xml:space="preserve" text-anchor="middle" x="74" y="-302.93" font-family="Helvetica,sans-Serif" font-size="11.00" fill="white">Comet</text>
<text xml:space="preserve" text-anchor="middle" x="74" y="-290.93" font-family="Helvetica,sans-Serif" font-size="11.00" fill="white">Deposits</text>
<text xml:space="preserve" text-anchor="middle" x="74" y="-278.93" font-family="Helvetica,sans-Serif" font-size="11.00" fill="white">(high accessibility)</text>
</g>
<!-- comet&#45;&gt;mines -->
<g id="edge3" class="edge">
<title>comet&#45;&gt;mines</title>
<path fill="none" stroke="#4ecdc4" d="M126,-295.38C126,-295.38 262.18,-295.38 262.18,-295.38"/>
<polygon fill="#4ecdc4" stroke="#4ecdc4" points="262.18,-298.18 270.18,-295.38 262.18,-292.58 262.18,-298.18"/>
<text xml:space="preserve" text-anchor="middle" x="206" y="-296.57" font-family="Helvetica,sans-Serif" font-size="9.00" fill="#888888">deposit</text>
</g>
<!-- colony_stockpile -->
<g id="node9" class="node">
<title>colony_stockpile</title>
<path fill="#2d2d4d" stroke="#4ecdc4" d="M572.88,-222.38C572.88,-222.38 537.38,-222.38 537.38,-222.38 531.38,-222.38 525.38,-216.38 525.38,-210.38 525.38,-210.38 525.38,-190.38 525.38,-190.38 525.38,-184.38 531.38,-178.38 537.38,-178.38 537.38,-178.38 572.88,-178.38 572.88,-178.38 578.88,-178.38 584.88,-184.38 584.88,-190.38 584.88,-190.38 584.88,-210.38 584.88,-210.38 584.88,-216.38 578.88,-222.38 572.88,-222.38"/>
<text xml:space="preserve" text-anchor="middle" x="555.12" y="-207.93" font-family="Helvetica,sans-Serif" font-size="11.00" fill="white">Colony</text>
<text xml:space="preserve" text-anchor="middle" x="555.12" y="-195.93" font-family="Helvetica,sans-Serif" font-size="11.00" fill="white">Sorium</text>
<text xml:space="preserve" text-anchor="middle" x="555.12" y="-183.93" font-family="Helvetica,sans-Serif" font-size="11.00" fill="white">Stockpile</text>
</g>
<!-- mines&#45;&gt;colony_stockpile -->
<g id="edge6" class="edge">
<title>mines&#45;&gt;colony_stockpile</title>
<path fill="none" stroke="#4ecdc4" d="M351.5,-273.04C351.5,-247.86 351.5,-210.38 351.5,-210.38 351.5,-210.38 515.57,-210.38 515.57,-210.38"/>
<polygon fill="#4ecdc4" stroke="#4ecdc4" points="515.57,-213.18 523.57,-210.38 515.57,-207.58 515.57,-213.18"/>
<text xml:space="preserve" text-anchor="middle" x="435.12" y="-288.57" font-family="Helvetica,sans-Serif" font-size="9.00" fill="#888888">raw Sorium</text>
</g>
<!-- harvesters&#45;&gt;colony_stockpile -->
<g id="edge7" class="edge">
<title>harvesters&#45;&gt;colony_stockpile</title>
<path fill="none" stroke="#4ecdc4" stroke-dasharray="5,2" d="M359.5,-143.74C359.5,-161.15 359.5,-182.38 359.5,-182.38 359.5,-182.38 515.47,-182.38 515.47,-182.38"/>
<polygon fill="#4ecdc4" stroke="#4ecdc4" points="515.47,-185.18 523.47,-182.38 515.47,-179.58 515.47,-185.18"/>
<text xml:space="preserve" text-anchor="middle" x="435.12" y="-158.57" font-family="Helvetica,sans-Serif" font-size="9.00" fill="#888888">cargo delivery</text>
</g>
<!-- onboard_ref -->
<g id="node11" class="node">
<title>onboard_ref</title>
<path fill="#2d2d4d" stroke="#4ecdc4" d="M591.25,-135.38C591.25,-135.38 519,-135.38 519,-135.38 513,-135.38 507,-129.38 507,-123.38 507,-123.38 507,-103.38 507,-103.38 507,-97.38 513,-91.38 519,-91.38 519,-91.38 591.25,-91.38 591.25,-91.38 597.25,-91.38 603.25,-97.38 603.25,-103.38 603.25,-103.38 603.25,-123.38 603.25,-123.38 603.25,-129.38 597.25,-135.38 591.25,-135.38"/>
<text xml:space="preserve" text-anchor="middle" x="555.12" y="-120.92" font-family="Helvetica,sans-Serif" font-size="11.00" fill="white">Onboard</text>
<text xml:space="preserve" text-anchor="middle" x="555.12" y="-108.92" font-family="Helvetica,sans-Serif" font-size="11.00" fill="white">Refineries</text>
<text xml:space="preserve" text-anchor="middle" x="555.12" y="-96.92" font-family="Helvetica,sans-Serif" font-size="11.00" fill="white">(harvester ships)</text>
</g>
<!-- harvesters&#45;&gt;onboard_ref -->
<g id="edge8" class="edge">
<title>harvesters&#45;&gt;onboard_ref</title>
<path fill="none" stroke="#4ecdc4" d="M363.66,-117.38C363.66,-117.38 497.28,-117.38 497.28,-117.38"/>
<polygon fill="#4ecdc4" stroke="#4ecdc4" points="497.28,-120.18 505.28,-117.38 497.28,-114.58 497.28,-120.18"/>
<text xml:space="preserve" text-anchor="middle" x="435.12" y="-100.58" font-family="Helvetica,sans-Serif" font-size="9.00" fill="#888888">direct feed</text>
</g>
<!-- orbital_harv&#45;&gt;colony_stockpile -->
<g id="edge9" class="edge">
<title>orbital_harv&#45;&gt;colony_stockpile</title>
<path fill="none" stroke="#4ecdc4" d="M347.97,-198.38C347.97,-198.38 515.57,-198.38 515.57,-198.38"/>
<polygon fill="#4ecdc4" stroke="#4ecdc4" points="515.57,-201.18 523.57,-198.38 515.57,-195.58 515.57,-201.18"/>
<text xml:space="preserve" text-anchor="middle" x="435.12" y="-216.57" font-family="Helvetica,sans-Serif" font-size="9.00" fill="#888888">raw Sorium</text>
</g>
<!-- refineries -->
<g id="node10" class="node">
<title>refineries</title>
<path fill="#2d2d4d" stroke="#4ecdc4" d="M794.5,-222.38C794.5,-222.38 730.5,-222.38 730.5,-222.38 724.5,-222.38 718.5,-216.38 718.5,-210.38 718.5,-210.38 718.5,-190.38 718.5,-190.38 718.5,-184.38 724.5,-178.38 730.5,-178.38 730.5,-178.38 794.5,-178.38 794.5,-178.38 800.5,-178.38 806.5,-184.38 806.5,-190.38 806.5,-190.38 806.5,-210.38 806.5,-210.38 806.5,-216.38 800.5,-222.38 794.5,-222.38"/>
<text xml:space="preserve" text-anchor="middle" x="762.5" y="-207.93" font-family="Helvetica,sans-Serif" font-size="11.00" fill="white">Fuel</text>
<text xml:space="preserve" text-anchor="middle" x="762.5" y="-195.93" font-family="Helvetica,sans-Serif" font-size="11.00" fill="white">Refineries</text>
<text xml:space="preserve" text-anchor="middle" x="762.5" y="-183.93" font-family="Helvetica,sans-Serif" font-size="11.00" fill="white">40&#45;280k L/year</text>
</g>
<!-- colony_stockpile&#45;&gt;refineries -->
<g id="edge10" class="edge">
<title>colony_stockpile&#45;&gt;refineries</title>
<path fill="none" stroke="#4ecdc4" d="M585.28,-200.38C585.28,-200.38 708.65,-200.38 708.65,-200.38"/>
<polygon fill="#4ecdc4" stroke="#4ecdc4" points="708.65,-203.18 716.65,-200.38 708.65,-197.58 708.65,-203.18"/>
<text xml:space="preserve" text-anchor="middle" x="660.88" y="-201.57" font-family="Helvetica,sans-Serif" font-size="9.00" fill="#888888">Sorium</text>
</g>
<!-- colony_fuel -->
<g id="node12" class="node">
<title>colony_fuel</title>
<path fill="#4d2d3d" stroke="#ff6b6b" d="M1014.25,-227.38C1014.25,-227.38 952.5,-227.38 952.5,-227.38 946.5,-227.38 940.5,-221.38 940.5,-215.38 940.5,-215.38 940.5,-195.38 940.5,-195.38 940.5,-189.38 946.5,-183.38 952.5,-183.38 952.5,-183.38 1014.25,-183.38 1014.25,-183.38 1020.25,-183.38 1026.25,-189.38 1026.25,-195.38 1026.25,-195.38 1026.25,-215.38 1026.25,-215.38 1026.25,-221.38 1020.25,-227.38 1014.25,-227.38"/>
<text xml:space="preserve" text-anchor="middle" x="983.38" y="-212.93" font-family="Helvetica,sans-Serif" font-size="11.00" fill="white">Colony</text>
<text xml:space="preserve" text-anchor="middle" x="983.38" y="-200.93" font-family="Helvetica,sans-Serif" font-size="11.00" fill="white">Fuel Reserves</text>
<text xml:space="preserve" text-anchor="middle" x="983.38" y="-188.93" font-family="Helvetica,sans-Serif" font-size="11.00" fill="white">(unlimited)</text>
</g>
<!-- refineries&#45;&gt;colony_fuel -->
<g id="edge11" class="edge">
<title>refineries&#45;&gt;colony_fuel</title>
<path fill="none" stroke="#4ecdc4" d="M806.93,-202.88C806.93,-202.88 930.63,-202.88 930.63,-202.88"/>
<polygon fill="#4ecdc4" stroke="#4ecdc4" points="930.63,-205.68 938.63,-202.88 930.63,-200.08 930.63,-205.68"/>
<text xml:space="preserve" text-anchor="middle" x="873.5" y="-203.57" font-family="Helvetica,sans-Serif" font-size="9.00" fill="#888888">refined fuel</text>
</g>
<!-- tankers -->
<g id="node14" class="node">
<title>tankers</title>
<path fill="#4d2d3d" stroke="#ff6b6b" d="M1172.25,-227.38C1172.25,-227.38 1142.25,-227.38 1142.25,-227.38 1136.25,-227.38 1130.25,-221.38 1130.25,-215.38 1130.25,-215.38 1130.25,-203.38 1130.25,-203.38 1130.25,-197.38 1136.25,-191.38 1142.25,-191.38 1142.25,-191.38 1172.25,-191.38 1172.25,-191.38 1178.25,-191.38 1184.25,-197.38 1184.25,-203.38 1184.25,-203.38 1184.25,-215.38 1184.25,-215.38 1184.25,-221.38 1178.25,-227.38 1172.25,-227.38"/>
<text xml:space="preserve" text-anchor="middle" x="1157.25" y="-210.93" font-family="Helvetica,sans-Serif" font-size="11.00" fill="white">Tanker</text>
<text xml:space="preserve" text-anchor="middle" x="1157.25" y="-198.93" font-family="Helvetica,sans-Serif" font-size="11.00" fill="white">Fleet</text>
</g>
<!-- onboard_ref&#45;&gt;tankers -->
<g id="edge12" class="edge">
<title>onboard_ref&#45;&gt;tankers</title>
<path fill="none" stroke="#4ecdc4" d="M603.68,-113.38C745.4,-113.38 1148.5,-113.38 1148.5,-113.38 1148.5,-113.38 1148.5,-181.8 1148.5,-181.8"/>
<polygon fill="#4ecdc4" stroke="#4ecdc4" points="1145.7,-181.8 1148.5,-189.8 1151.3,-181.8 1145.7,-181.8"/>
<text xml:space="preserve" text-anchor="middle" x="873.5" y="-111.58" font-family="Helvetica,sans-Serif" font-size="9.00" fill="#888888">fuel transfer</text>
</g>
<!-- fuel_depot -->
<g id="node13" class="node">
<title>fuel_depot</title>
<path fill="#4d2d3d" stroke="#ff6b6b" d="M1368,-138.38C1368,-138.38 1317.5,-138.38 1317.5,-138.38 1311.5,-138.38 1305.5,-132.38 1305.5,-126.38 1305.5,-126.38 1305.5,-114.38 1305.5,-114.38 1305.5,-108.38 1311.5,-102.38 1317.5,-102.38 1317.5,-102.38 1368,-102.38 1368,-102.38 1374,-102.38 1380,-108.38 1380,-114.38 1380,-114.38 1380,-126.38 1380,-126.38 1380,-132.38 1374,-138.38 1368,-138.38"/>
<text xml:space="preserve" text-anchor="middle" x="1342.75" y="-121.92" font-family="Helvetica,sans-Serif" font-size="11.00" fill="white">Orbital</text>
<text xml:space="preserve" text-anchor="middle" x="1342.75" y="-109.92" font-family="Helvetica,sans-Serif" font-size="11.00" fill="white">Fuel Depots</text>
</g>
<!-- colony_fuel&#45;&gt;fuel_depot -->
<g id="edge14" class="edge">
<title>colony_fuel&#45;&gt;fuel_depot</title>
<path fill="none" stroke="#4ecdc4" d="M1026.69,-187.38C1122.21,-187.38 1342.5,-187.38 1342.5,-187.38 1342.5,-187.38 1342.5,-148.2 1342.5,-148.2"/>
<polygon fill="#4ecdc4" stroke="#4ecdc4" points="1345.3,-148.2 1342.5,-140.2 1339.7,-148.2 1345.3,-148.2"/>
<text xml:space="preserve" text-anchor="middle" x="1157.25" y="-139.57" font-family="Helvetica,sans-Serif" font-size="9.00" fill="#888888">transport</text>
</g>
<!-- colony_fuel&#45;&gt;tankers -->
<g id="edge13" class="edge">
<title>colony_fuel&#45;&gt;tankers</title>
<path fill="none" stroke="#4ecdc4" d="M1026.36,-209.38C1026.36,-209.38 1120.42,-209.38 1120.42,-209.38"/>
<polygon fill="#4ecdc4" stroke="#4ecdc4" points="1120.42,-212.18 1128.42,-209.38 1120.42,-206.58 1120.42,-212.18"/>
<text xml:space="preserve" text-anchor="middle" x="1078.25" y="-208.57" font-family="Helvetica,sans-Serif" font-size="9.00" fill="#888888">load</text>
</g>
<!-- combat_fleet -->
<g id="node15" class="node">
<title>combat_fleet</title>
<path fill="#3d3d3d" stroke="#4ecdc4" d="M1539.5,-327.38C1539.5,-327.38 1509.25,-327.38 1509.25,-327.38 1503.25,-327.38 1497.25,-321.38 1497.25,-315.38 1497.25,-315.38 1497.25,-303.38 1497.25,-303.38 1497.25,-297.38 1503.25,-291.38 1509.25,-291.38 1509.25,-291.38 1539.5,-291.38 1539.5,-291.38 1545.5,-291.38 1551.5,-297.38 1551.5,-303.38 1551.5,-303.38 1551.5,-315.38 1551.5,-315.38 1551.5,-321.38 1545.5,-327.38 1539.5,-327.38"/>
<text xml:space="preserve" text-anchor="middle" x="1524.38" y="-310.93" font-family="Helvetica,sans-Serif" font-size="11.00" fill="white">Combat</text>
<text xml:space="preserve" text-anchor="middle" x="1524.38" y="-298.93" font-family="Helvetica,sans-Serif" font-size="11.00" fill="white">Fleets</text>
</g>
<!-- colony_fuel&#45;&gt;combat_fleet -->
<g id="edge16" class="edge">
<title>colony_fuel&#45;&gt;combat_fleet</title>
<path fill="none" stroke="#4ecdc4" stroke-dasharray="5,2" d="M1004.5,-227.8C1004.5,-258.19 1004.5,-308.71 1004.5,-308.71 1004.5,-308.71 1487.28,-308.71 1487.28,-308.71"/>
<polygon fill="#4ecdc4" stroke="#4ecdc4" points="1487.28,-311.51 1495.28,-308.71 1487.28,-305.91 1487.28,-311.51"/>
<text xml:space="preserve" text-anchor="middle" x="1244.88" y="-310.57" font-family="Helvetica,sans-Serif" font-size="9.00" fill="#888888">refuel</text>
</g>
<!-- survey_fleet -->
<g id="node16" class="node">
<title>survey_fleet</title>
<path fill="#3d3d3d" stroke="#4ecdc4" d="M1539.38,-485.38C1539.38,-485.38 1509.38,-485.38 1509.38,-485.38 1503.38,-485.38 1497.38,-479.38 1497.38,-473.38 1497.38,-473.38 1497.38,-461.38 1497.38,-461.38 1497.38,-455.38 1503.38,-449.38 1509.38,-449.38 1509.38,-449.38 1539.38,-449.38 1539.38,-449.38 1545.38,-449.38 1551.38,-455.38 1551.38,-461.38 1551.38,-461.38 1551.38,-473.38 1551.38,-473.38 1551.38,-479.38 1545.38,-485.38 1539.38,-485.38"/>
<text xml:space="preserve" text-anchor="middle" x="1524.38" y="-468.93" font-family="Helvetica,sans-Serif" font-size="11.00" fill="white">Survey</text>
<text xml:space="preserve" text-anchor="middle" x="1524.38" y="-456.93" font-family="Helvetica,sans-Serif" font-size="11.00" fill="white">Fleets</text>
</g>
<!-- colony_fuel&#45;&gt;survey_fleet -->
<g id="edge17" class="edge">
<title>colony_fuel&#45;&gt;survey_fleet</title>
<path fill="none" stroke="#4ecdc4" stroke-dasharray="5,2" d="M961.5,-227.71C961.5,-291.07 961.5,-467.38 961.5,-467.38 961.5,-467.38 1487.71,-467.38 1487.71,-467.38"/>
<polygon fill="#4ecdc4" stroke="#4ecdc4" points="1487.71,-470.18 1495.71,-467.38 1487.71,-464.58 1487.71,-470.18"/>
<text xml:space="preserve" text-anchor="middle" x="1244.88" y="-484.57" font-family="Helvetica,sans-Serif" font-size="9.00" fill="#888888">refuel</text>
</g>
<!-- civilian -->
<g id="node17" class="node">
<title>civilian</title>
<path fill="#3d3d3d" stroke="#4ecdc4" d="M1541.38,-406.38C1541.38,-406.38 1507.38,-406.38 1507.38,-406.38 1501.38,-406.38 1495.38,-400.38 1495.38,-394.38 1495.38,-394.38 1495.38,-382.38 1495.38,-382.38 1495.38,-376.38 1501.38,-370.38 1507.38,-370.38 1507.38,-370.38 1541.38,-370.38 1541.38,-370.38 1547.38,-370.38 1553.38,-376.38 1553.38,-382.38 1553.38,-382.38 1553.38,-394.38 1553.38,-394.38 1553.38,-400.38 1547.38,-406.38 1541.38,-406.38"/>
<text xml:space="preserve" text-anchor="middle" x="1524.38" y="-389.93" font-family="Helvetica,sans-Serif" font-size="11.00" fill="white">Civilian</text>
<text xml:space="preserve" text-anchor="middle" x="1524.38" y="-377.93" font-family="Helvetica,sans-Serif" font-size="11.00" fill="white">Shipping</text>
</g>
<!-- colony_fuel&#45;&gt;civilian -->
<g id="edge18" class="edge">
<title>colony_fuel&#45;&gt;civilian</title>
<path fill="none" stroke="#4ecdc4" stroke-dasharray="5,2" d="M983.5,-227.56C983.5,-275.27 983.5,-383.38 983.5,-383.38 983.5,-383.38 1485.4,-383.38 1485.4,-383.38"/>
<polygon fill="#4ecdc4" stroke="#4ecdc4" points="1485.4,-386.18 1493.4,-383.38 1485.4,-380.58 1485.4,-386.18"/>
<text xml:space="preserve" text-anchor="middle" x="1244.88" y="-397.57" font-family="Helvetica,sans-Serif" font-size="9.00" fill="#888888">refuel</text>
</g>
<!-- fuel_depot&#45;&gt;combat_fleet -->
<g id="edge19" class="edge">
<title>fuel_depot&#45;&gt;combat_fleet</title>
<path fill="none" stroke="#4ecdc4" stroke-dasharray="5,2" d="M1380.41,-120.38C1433.64,-120.38 1524.5,-120.38 1524.5,-120.38 1524.5,-120.38 1524.5,-281.4 1524.5,-281.4"/>
<polygon fill="#4ecdc4" stroke="#4ecdc4" points="1521.7,-281.4 1524.5,-289.4 1527.3,-281.4 1521.7,-281.4"/>
<text xml:space="preserve" text-anchor="middle" x="1434.62" y="-155.57" font-family="Helvetica,sans-Serif" font-size="9.00" fill="#888888">refuel</text>
</g>
<!-- tankers&#45;&gt;fuel_depot -->
<g id="edge15" class="edge">
<title>tankers&#45;&gt;fuel_depot</title>
<path fill="none" stroke="#4ecdc4" d="M1166.5,-190.93C1166.5,-165.93 1166.5,-124.38 1166.5,-124.38 1166.5,-124.38 1295.86,-124.38 1295.86,-124.38"/>
<polygon fill="#4ecdc4" stroke="#4ecdc4" points="1295.86,-127.18 1303.86,-124.38 1295.86,-121.58 1295.86,-127.18"/>
<text xml:space="preserve" text-anchor="middle" x="1244.88" y="-188.57" font-family="Helvetica,sans-Serif" font-size="9.00" fill="#888888">resupply</text>
</g>
<!-- tankers&#45;&gt;combat_fleet -->
<g id="edge20" class="edge">
<title>tankers&#45;&gt;combat_fleet</title>
<path fill="none" stroke="#4ecdc4" d="M1157.5,-227.72C1157.5,-254.22 1157.5,-300.04 1157.5,-300.04 1157.5,-300.04 1487.29,-300.04 1487.29,-300.04"/>
<polygon fill="#4ecdc4" stroke="#4ecdc4" points="1487.29,-302.84 1495.29,-300.04 1487.29,-297.24 1487.29,-302.84"/>
<text xml:space="preserve" text-anchor="middle" x="1342.75" y="-235.32" font-family="Helvetica,sans-Serif" font-size="9.00" fill="#888888">underway</text>
<text xml:space="preserve" text-anchor="middle" x="1342.75" y="-225.57" font-family="Helvetica,sans-Serif" font-size="9.00" fill="#888888">replenishment</text>
</g>
</g>
</svg>
