<?xml version="1.0" encoding="UTF-8" standalone="no"?>
<!DOCTYPE svg PUBLIC "-//W3C//DTD SVG 1.1//EN"
 "http://www.w3.org/Graphics/SVG/1.1/DTD/svg11.dtd">
<!-- Generated by graphviz version 14.1.2 (20260124.0452)
 -->
<!-- Title: G Pages: 1 -->
<svg width="977pt" height="962pt"
 viewBox="0.00 0.00 977.00 962.00" xmlns="http://www.w3.org/2000/svg" xmlns:xlink="http://www.w3.org/1999/xlink">
<g id="graph0" class="graph" transform="scale(1 1) rotate(0) translate(4 958.24)">
<title>G</title>
<polygon fill="#1a1a2e" stroke="none" points="-4,4 -4,-958.24 972.88,-958.24 972.88,4 -4,4"/>
<g id="clust1" class="cluster">
<title>cluster_harvester</title>
<polygon fill="#1f2f2a" stroke="#95d5b2" stroke-dasharray="5,2" points="312.88,-415.74 312.88,-942.36 524.88,-942.36 524.88,-415.74 312.88,-415.74"/>
<text xml:space="preserve" text-anchor="middle" x="418.88" y="-926.96" font-family="Helvetica,sans-Serif" font-size="12.00" fill="#95d5b2">Harvester Operations</text>
</g>
<g id="clust2" class="cluster">
<title>cluster_tanker</title>
<polygon fill="#2f1f1f" stroke="#ff6b6b" stroke-dasharray="5,2" points="532.88,-134.5 532.88,-642.99 728.88,-642.99 728.88,-134.5 532.88,-134.5"/>
<text xml:space="preserve" text-anchor="middle" x="630.88" y="-627.59" font-family="Helvetica,sans-Serif" font-size="12.00" fill="#ff6b6b">Tanker Operations</text>
</g>
<g id="clust3" class="cluster">
<title>cluster_colony</title>
<polygon fill="#1f1f2f" stroke="#4ecdc4" stroke-dasharray="5,2" points="657.88,-8 657.88,-88.75 759.88,-88.75 759.88,-8 657.88,-8"/>
<text xml:space="preserve" text-anchor="middle" x="708.88" y="-73.35" font-family="Helvetica,sans-Serif" font-size="12.00" fill="#4ecdc4">Colony</text>
</g>
<g id="clust4" class="cluster">
<title>cluster_config</title>
<polygon fill="#1f1f1f" stroke="#888888" stroke-dasharray="5,2" points="568.88,-856.49 568.88,-946.24 960.88,-946.24 960.88,-856.49 568.88,-856.49"/>
<text xml:space="preserve" text-anchor="middle" x="764.88" y="-930.84" font-family="Helvetica,sans-Serif" font-size="12.00" fill="#888888">Standing Order Configuration</text>
</g>
<!-- title -->
<g id="node1" class="node">
<title>title</title>
<path fill="#2d2d44" stroke="none" d="M259.75,-908.99C259.75,-908.99 12,-908.99 12,-908.99 6,-908.99 0,-902.99 0,-896.99 0,-896.99 0,-884.99 0,-884.99 0,-878.99 6,-872.99 12,-872.99 12,-872.99 259.75,-872.99 259.75,-872.99 265.75,-872.99 271.75,-878.99 271.75,-884.99 271.75,-884.99 271.75,-896.99 271.75,-896.99 271.75,-902.99 265.75,-908.99 259.75,-908.99"/>
<text xml:space="preserve" text-anchor="middle" x="135.88" y="-884.04" font-family="Helvetica,sans-Serif" font-size="16.00" fill="#4ecdc4">Sorium Harvester Automation Cycle</text>
</g>
<!-- harvest -->
<g id="node2" class="node">
<title>harvest</title>
<ellipse fill="#2d4d44" stroke="#95d5b2" cx="385.88" cy="-890.99" rx="55.86" ry="22.63"/>
<text xml:space="preserve" text-anchor="middle" x="385.88" y="-892.54" font-family="Helvetica,sans-Serif" font-size="11.00" fill="white">Harvesting</text>
<text xml:space="preserve" text-anchor="middle" x="385.88" y="-880.54" font-family="Helvetica,sans-Serif" font-size="11.00" fill="white">(at gas giant)</text>
</g>
<!-- fuel_check -->
<g id="node3" class="node">
<title>fuel_check</title>
<path fill="#4d4d2d" stroke="#ffe66d" d="M438.02,-766.61C438.02,-766.61 391.98,-744.86 391.98,-744.86 386.55,-742.3 386.55,-737.17 391.98,-734.61 391.98,-734.61 438.02,-712.86 438.02,-712.86 443.45,-710.3 454.3,-710.3 459.73,-712.86 459.73,-712.86 505.77,-734.61 505.77,-734.61 511.2,-737.17 511.2,-742.3 505.77,-744.86 505.77,-744.86 459.73,-766.61 459.73,-766.61 454.3,-769.17 443.45,-769.17 438.02,-766.61"/>
<text xml:space="preserve" text-anchor="middle" x="448.88" y="-741.29" font-family="Helvetica,sans-Serif" font-size="11.00" fill="white">Fuel Tanks</text>
<text xml:space="preserve" text-anchor="middle" x="448.88" y="-729.29" font-family="Helvetica,sans-Serif" font-size="11.00" fill="white">Full?</text>
</g>
<!-- harvest&#45;&gt;fuel_check -->
<g id="edge1" class="edge">
<title>harvest&#45;&gt;fuel_check</title>
<path fill="none" stroke="#4ecdc4" d="M401.16,-868.9C414.92,-847.78 420.86,-832.06 437.62,-777.01"/>
<polygon fill="#4ecdc4" stroke="#4ecdc4" points="440.21,-778.13 439.85,-769.67 434.85,-776.51 440.21,-778.13"/>
<text xml:space="preserve" text-anchor="middle" x="483.38" y="-819.94" font-family="Helvetica,sans-Serif" font-size="9.00" fill="#888888">continuous</text>
<text xml:space="preserve" text-anchor="middle" x="483.38" y="-810.19" font-family="Helvetica,sans-Serif" font-size="9.00" fill="#888888">harvesting</text>
</g>
<!-- fuel_check&#45;&gt;harvest -->
<g id="edge2" class="edge">
<title>fuel_check&#45;&gt;harvest</title>
<path fill="none" stroke="#ff6b6b" d="M398.52,-868.75C410.27,-847.27 416.46,-831.61 435.97,-776.41"/>
<polygon fill="#ff6b6b" stroke="#ff6b6b" points="438.55,-777.49 438.57,-769.02 433.27,-775.63 438.55,-777.49"/>
<text xml:space="preserve" text-anchor="middle" x="391.88" y="-815.06" font-family="Helvetica,sans-Serif" font-size="9.00" fill="#ff6b6b">No</text>
</g>
<!-- transfer -->
<g id="node4" class="node">
<title>transfer</title>
<ellipse fill="#2d4d44" stroke="#95d5b2" cx="459.88" cy="-591.61" rx="56.92" ry="22.63"/>
<text xml:space="preserve" text-anchor="middle" x="459.88" y="-593.16" font-family="Helvetica,sans-Serif" font-size="11.00" fill="white">Transfer Fuel</text>
<text xml:space="preserve" text-anchor="middle" x="459.88" y="-581.16" font-family="Helvetica,sans-Serif" font-size="11.00" fill="white">to Tanker</text>
</g>
<!-- fuel_check&#45;&gt;transfer -->
<g id="edge3" class="edge">
<title>fuel_check&#45;&gt;transfer</title>
<path fill="none" stroke="#95d5b2" d="M461.05,-713.32C479.21,-672.84 480.96,-659.51 470.04,-623.04"/>
<polygon fill="#95d5b2" stroke="#95d5b2" points="472.83,-622.6 467.79,-615.79 467.48,-624.26 472.83,-622.6"/>
<text xml:space="preserve" text-anchor="middle" x="492" y="-657.06" font-family="Helvetica,sans-Serif" font-size="9.00" fill="#95d5b2">Yes</text>
</g>
<!-- return_harvest -->
<g id="node5" class="node">
<title>return_harvest</title>
<ellipse fill="#2d4d44" stroke="#95d5b2" cx="394.88" cy="-446.37" rx="45.25" ry="22.63"/>
<text xml:space="preserve" text-anchor="middle" x="394.88" y="-447.92" font-family="Helvetica,sans-Serif" font-size="11.00" fill="white">Return to</text>
<text xml:space="preserve" text-anchor="middle" x="394.88" y="-435.92" font-family="Helvetica,sans-Serif" font-size="11.00" fill="white">Gas Giant</text>
</g>
<!-- transfer&#45;&gt;return_harvest -->
<g id="edge4" class="edge">
<title>transfer&#45;&gt;return_harvest</title>
<path fill="none" stroke="#4ecdc4" d="M452.98,-568.72C436,-512.59 429.52,-493.58 417.14,-475.03"/>
<polygon fill="#4ecdc4" stroke="#4ecdc4" points="419.64,-473.72 412.73,-468.81 415.07,-476.96 419.64,-473.72"/>
<text xml:space="preserve" text-anchor="middle" x="447" y="-524.43" font-family="Helvetica,sans-Serif" font-size="9.00" fill="#888888">fuel</text>
<text xml:space="preserve" text-anchor="middle" x="447" y="-514.68" font-family="Helvetica,sans-Serif" font-size="9.00" fill="#888888">transferred</text>
</g>
<!-- tanker_wait -->
<g id="node6" class="node">
<title>tanker_wait</title>
<ellipse fill="#4d2d3d" stroke="#ff6b6b" cx="607.88" cy="-446.37" rx="61.16" ry="31.11"/>
<text xml:space="preserve" text-anchor="middle" x="607.88" y="-453.92" font-family="Helvetica,sans-Serif" font-size="11.00" fill="white">Stationed at</text>
<text xml:space="preserve" text-anchor="middle" x="607.88" y="-441.92" font-family="Helvetica,sans-Serif" font-size="11.00" fill="white">Gas Giant</text>
<text xml:space="preserve" text-anchor="middle" x="607.88" y="-429.92" font-family="Helvetica,sans-Serif" font-size="11.00" fill="white">(receiving fuel)</text>
</g>
<!-- transfer&#45;&gt;tanker_wait -->
<g id="edge6" class="edge">
<title>transfer&#45;&gt;tanker_wait</title>
<path fill="none" stroke="#4ecdc4" stroke-dasharray="5,2" d="M498.59,-574.59C554.25,-549.32 567.65,-536.7 590.82,-485.67"/>
<polygon fill="#4ecdc4" stroke="#4ecdc4" points="593.31,-486.96 594.02,-478.52 588.2,-484.68 593.31,-486.96"/>
<text xml:space="preserve" text-anchor="middle" x="558.12" y="-524.43" font-family="Helvetica,sans-Serif" font-size="9.00" fill="#888888">receives</text>
<text xml:space="preserve" text-anchor="middle" x="558.12" y="-514.68" font-family="Helvetica,sans-Serif" font-size="9.00" fill="#888888">fuel</text>
</g>
<!-- return_harvest&#45;&gt;harvest -->
<g id="edge5" class="edge">
<title>return_harvest&#45;&gt;harvest</title>
<path fill="none" stroke="#4ecdc4" d="M377.13,-868.35C305.39,-682.26 304.75,-665.97 382.13,-477.34"/>
<polygon fill="#4ecdc4" stroke="#4ecdc4" points="384.61,-478.68 385.06,-470.21 379.43,-476.55 384.61,-478.68"/>
<text xml:space="preserve" text-anchor="middle" x="400.25" y="-661.94" font-family="Helvetica,sans-Serif" font-size="9.00" fill="#888888">resume</text>
<text xml:space="preserve" text-anchor="middle" x="400.25" y="-652.19" font-family="Helvetica,sans-Serif" font-size="9.00" fill="#888888">harvesting</text>
</g>
<!-- tanker_check -->
<g id="node7" class="node">
<title>tanker_check</title>
<path fill="#4d4d2d" stroke="#ffe66d" d="M588.87,-326.87C588.87,-326.87 560.63,-308.14 560.63,-308.14 555.63,-304.82 555.63,-298.19 560.63,-294.87 560.63,-294.87 588.87,-276.14 588.87,-276.14 593.87,-272.82 603.88,-272.82 608.88,-276.14 608.88,-276.14 637.12,-294.87 637.12,-294.87 642.12,-298.19 642.12,-304.82 637.12,-308.14 637.12,-308.14 608.88,-326.87 608.88,-326.87 603.88,-330.19 593.87,-330.19 588.87,-326.87"/>
<text xml:space="preserve" text-anchor="middle" x="598.88" y="-303.05" font-family="Helvetica,sans-Serif" font-size="11.00" fill="white">Tanker</text>
<text xml:space="preserve" text-anchor="middle" x="598.88" y="-291.05" font-family="Helvetica,sans-Serif" font-size="11.00" fill="white">Full?</text>
</g>
<!-- tanker_wait&#45;&gt;tanker_check -->
<g id="edge7" class="edge">
<title>tanker_wait&#45;&gt;tanker_check</title>
<path fill="none" stroke="#4ecdc4" d="M597.4,-415.45C592.73,-397.58 592.68,-381.64 595.65,-341.79"/>
<polygon fill="#4ecdc4" stroke="#4ecdc4" points="598.44,-342.03 596.26,-333.84 592.86,-341.6 598.44,-342.03"/>
<text xml:space="preserve" text-anchor="middle" x="697.5" y="-370.7" font-family="Helvetica,sans-Serif" font-size="9.00" fill="#888888">accumulate</text>
</g>
<!-- tanker_check&#45;&gt;tanker_wait -->
<g id="edge8" class="edge">
<title>tanker_check&#45;&gt;tanker_wait</title>
<path fill="none" stroke="#ff6b6b" d="M613.76,-415.07C621.57,-372.11 622.4,-356.39 614.2,-334.66"/>
<polygon fill="#ff6b6b" stroke="#ff6b6b" points="616.83,-333.69 611.19,-327.36 611.66,-335.82 616.83,-333.69"/>
<text xml:space="preserve" text-anchor="middle" x="604.88" y="-370.7" font-family="Helvetica,sans-Serif" font-size="9.00" fill="#ff6b6b">No</text>
</g>
<!-- tanker_deliver -->
<g id="node8" class="node">
<title>tanker_deliver</title>
<ellipse fill="#4d2d3d" stroke="#ff6b6b" cx="610.88" cy="-165.13" rx="52.15" ry="22.63"/>
<text xml:space="preserve" text-anchor="middle" x="610.88" y="-166.68" font-family="Helvetica,sans-Serif" font-size="11.00" fill="white">Shuttle Fuel</text>
<text xml:space="preserve" text-anchor="middle" x="610.88" y="-154.68" font-family="Helvetica,sans-Serif" font-size="11.00" fill="white">to Colony</text>
</g>
<!-- tanker_check&#45;&gt;tanker_deliver -->
<g id="edge9" class="edge">
<title>tanker_check&#45;&gt;tanker_deliver</title>
<path fill="none" stroke="#95d5b2" d="M597.52,-270.1C595.89,-229.5 596.05,-213.13 600.16,-196.6"/>
<polygon fill="#95d5b2" stroke="#95d5b2" points="602.76,-197.72 602.27,-189.26 597.37,-196.18 602.76,-197.72"/>
<text xml:space="preserve" text-anchor="middle" x="612" y="-224.95" font-family="Helvetica,sans-Serif" font-size="9.00" fill="#95d5b2">Yes</text>
</g>
<!-- colony_depot -->
<g id="node10" class="node">
<title>colony_depot</title>
<path fill="#2d2d4d" stroke="#4ecdc4" d="M751.75,-56C751.75,-58.21 732.53,-60 708.88,-60 685.22,-60 666,-58.21 666,-56 666,-56 666,-20 666,-20 666,-17.79 685.22,-16 708.88,-16 732.53,-16 751.75,-17.79 751.75,-20 751.75,-20 751.75,-56 751.75,-56"/>
<path fill="none" stroke="#4ecdc4" d="M751.75,-56C751.75,-53.79 732.53,-52 708.88,-52 685.22,-52 666,-53.79 666,-56"/>
<text xml:space="preserve" text-anchor="middle" x="708.88" y="-39.55" font-family="Helvetica,sans-Serif" font-size="11.00" fill="white">Colony</text>
<text xml:space="preserve" text-anchor="middle" x="708.88" y="-27.55" font-family="Helvetica,sans-Serif" font-size="11.00" fill="white">Fuel Reserves</text>
</g>
<!-- tanker_deliver&#45;&gt;colony_depot -->
<g id="edge10" class="edge">
<title>tanker_deliver&#45;&gt;colony_depot</title>
<path fill="none" stroke="#4ecdc4" d="M623.13,-143.03C647.8,-98.67 658.86,-80.18 672.81,-66.12"/>
<polygon fill="#4ecdc4" stroke="#4ecdc4" points="674.44,-68.43 678.38,-60.93 670.62,-64.33 674.44,-68.43"/>
<text xml:space="preserve" text-anchor="middle" x="669.12" y="-97.95" font-family="Helvetica,sans-Serif" font-size="9.00" fill="#888888">unload</text>
</g>
<!-- tanker_return -->
<g id="node9" class="node">
<title>tanker_return</title>
<ellipse fill="#4d2d3d" stroke="#ff6b6b" cx="647.88" cy="-591.61" rx="45.25" ry="22.63"/>
<text xml:space="preserve" text-anchor="middle" x="647.88" y="-593.16" font-family="Helvetica,sans-Serif" font-size="11.00" fill="white">Return to</text>
<text xml:space="preserve" text-anchor="middle" x="647.88" y="-581.16" font-family="Helvetica,sans-Serif" font-size="11.00" fill="white">Gas Giant</text>
</g>
<!-- tanker_return&#45;&gt;tanker_wait -->
<g id="edge12" class="edge">
<title>tanker_return&#45;&gt;tanker_wait</title>
<path fill="none" stroke="#4ecdc4" d="M637.18,-569.38C628.2,-549.46 624.44,-534.63 615.4,-486.8"/>
<polygon fill="#4ecdc4" stroke="#4ecdc4" points="618.16,-486.32 613.93,-478.97 612.65,-487.35 618.16,-486.32"/>
<text xml:space="preserve" text-anchor="middle" x="662.62" y="-524.43" font-family="Helvetica,sans-Serif" font-size="9.00" fill="#888888">resume</text>
<text xml:space="preserve" text-anchor="middle" x="662.62" y="-514.68" font-family="Helvetica,sans-Serif" font-size="9.00" fill="#888888">receiving</text>
</g>
<!-- colony_depot&#45;&gt;tanker_return -->
<g id="edge11" class="edge">
<title>colony_depot&#45;&gt;tanker_return</title>
<path fill="none" stroke="#4ecdc4" stroke-dasharray="5,2" d="M659.77,-569.55C783.65,-339.58 786.29,-323.19 717.39,-69.28"/>
<polygon fill="#4ecdc4" stroke="#4ecdc4" points="720.1,-68.59 715.3,-61.61 714.7,-70.06 720.1,-68.59"/>
<text xml:space="preserve" text-anchor="middle" x="775.25" y="-297.83" font-family="Helvetica,sans-Serif" font-size="9.00" fill="#888888">empty</text>
</g>
<!-- harvester_config -->
<g id="node11" class="node">
<title>harvester_config</title>
<polygon fill="#3d3d3d" stroke="#4ecdc4" points="729.12,-917.49 576.62,-917.49 576.62,-864.49 735.12,-864.49 735.12,-911.49 729.12,-917.49"/>
<polyline fill="none" stroke="#4ecdc4" points="729.12,-917.49 729.12,-911.49"/>
<polyline fill="none" stroke="#4ecdc4" points="735.12,-911.49 729.12,-911.49"/>
<text xml:space="preserve" text-anchor="middle" x="655.88" y="-903.99" font-family="Helvetica,sans-Serif" font-size="10.00" fill="white">Harvester:</text>
<text xml:space="preserve" text-anchor="middle" x="655.88" y="-892.74" font-family="Helvetica,sans-Serif" font-size="10.00" fill="white">Condition: When Fuel Tanks Full</text>
<text xml:space="preserve" text-anchor="middle" x="655.88" y="-881.49" font-family="Helvetica,sans-Serif" font-size="10.00" fill="white">Response: Harvester Transfer</text>
<text xml:space="preserve" text-anchor="middle" x="655.88" y="-870.24" font-family="Helvetica,sans-Serif" font-size="10.00" fill="white">and Return</text>
</g>
<!-- design_note -->
<g id="node13" class="node">
<title>design_note</title>
<polygon fill="#2d4d4d" stroke="#95d5b2" points="731.38,-772.99 574.38,-772.99 574.38,-706.49 737.38,-706.49 737.38,-766.99 731.38,-772.99"/>
<polyline fill="none" stroke="#95d5b2" points="731.38,-772.99 731.38,-766.99"/>
<polyline fill="none" stroke="#95d5b2" points="737.38,-766.99 731.38,-766.99"/>
<text xml:space="preserve" text-anchor="middle" x="655.88" y="-760.44" font-family="Helvetica,sans-Serif" font-size="9.00" fill="#95d5b2">DESIGN REQUIREMENTS:</text>
<text xml:space="preserve" text-anchor="middle" x="655.88" y="-750.69" font-family="Helvetica,sans-Serif" font-size="9.00" fill="#95d5b2">&#45; Harvester needs Refueling System</text>
<text xml:space="preserve" text-anchor="middle" x="655.88" y="-740.94" font-family="Helvetica,sans-Serif" font-size="9.00" fill="#95d5b2"> &#160;component (2,000 tons)</text>
<text xml:space="preserve" text-anchor="middle" x="655.88" y="-731.19" font-family="Helvetica,sans-Serif" font-size="9.00" fill="#95d5b2">&#45; Tanker checkbox must be enabled</text>
<text xml:space="preserve" text-anchor="middle" x="655.88" y="-721.44" font-family="Helvetica,sans-Serif" font-size="9.00" fill="#95d5b2">&#45; Set Minimum Fuel to 0 for</text>
<text xml:space="preserve" text-anchor="middle" x="655.88" y="-711.69" font-family="Helvetica,sans-Serif" font-size="9.00" fill="#95d5b2"> &#160;stationary harvesters</text>
</g>
<!-- harvester_config&#45;&gt;design_note -->
<!-- tanker_config -->
<g id="node12" class="node">
<title>tanker_config</title>
<polygon fill="#3d3d3d" stroke="#4ecdc4" points="946.5,-917.49 793.25,-917.49 793.25,-864.49 952.5,-864.49 952.5,-911.49 946.5,-917.49"/>
<polyline fill="none" stroke="#4ecdc4" points="946.5,-917.49 946.5,-911.49"/>
<polyline fill="none" stroke="#4ecdc4" points="952.5,-911.49 946.5,-911.49"/>
<text xml:space="preserve" text-anchor="middle" x="872.88" y="-903.99" font-family="Helvetica,sans-Serif" font-size="10.00" fill="white">Tanker:</text>
<text xml:space="preserve" text-anchor="middle" x="872.88" y="-892.74" font-family="Helvetica,sans-Serif" font-size="10.00" fill="white">Condition: When Fuel Above X%</text>
<text xml:space="preserve" text-anchor="middle" x="872.88" y="-881.49" font-family="Helvetica,sans-Serif" font-size="10.00" fill="white">Response: Refuel Colony</text>
<text xml:space="preserve" text-anchor="middle" x="872.88" y="-870.24" font-family="Helvetica,sans-Serif" font-size="10.00" fill="white">and Return</text>
</g>
</g>
</svg>
