<?xml version="1.0" encoding="UTF-8" standalone="no"?>
<!DOCTYPE svg PUBLIC "-//W3C//DTD SVG 1.1//EN"
 "http://www.w3.org/Graphics/SVG/1.1/DTD/svg11.dtd">
<!-- Generated by graphviz version 14.1.2 (20260124.0452)
 -->
<!-- Title: SignatureDetectionMatrix Pages: 1 -->
<svg width="702pt" height="373pt"
 viewBox="0.00 0.00 702.00 373.00" xmlns="http://www.w3.org/2000/svg" xmlns:xlink="http://www.w3.org/1999/xlink">
<g id="graph0" class="graph" transform="scale(1 1) rotate(0) translate(4 368.75)">
<title>SignatureDetectionMatrix</title>
<polygon fill="#1a1a2e" stroke="none" points="-4,4 -4,-368.75 697.5,-368.75 697.5,4 -4,4"/>
<text xml:space="preserve" text-anchor="start" x="220.75" y="-344.65" font-family="Helvetica,sans-Serif" font-weight="bold" font-size="18.00" fill="white">Signature&#45;to&#45;Detection Matrix</text>
<!-- matrix -->
<g id="node1" class="node">
<title>matrix</title>
<polygon fill="#1a1a2e" stroke="none" points="8,-4 8,-334 503.75,-334 503.75,-4 8,-4"/>
<polygon fill="#2d2d44" stroke="none" points="8,-301 8,-334 182.75,-334 182.75,-301 8,-301"/>
<polygon fill="none" stroke="#4ecdc4" points="8,-301 8,-334 182.75,-334 182.75,-301 8,-301"/>
<text xml:space="preserve" text-anchor="start" x="56.38" y="-312.7" font-family="Helvetica,sans-Serif" font-weight="bold" font-size="14.00" fill="white">Target State</text>
<polygon fill="#2d2d44" stroke="none" points="182.75,-301 182.75,-334 254.75,-334 254.75,-301 182.75,-301"/>
<polygon fill="none" stroke="#4ecdc4" points="182.75,-301 182.75,-334 254.75,-334 254.75,-301 182.75,-301"/>
<text xml:space="preserve" text-anchor="start" x="192.12" y="-312.7" font-family="Helvetica,sans-Serif" font-weight="bold" font-size="14.00" fill="white">Thermal</text>
<polygon fill="#2d2d44" stroke="none" points="254.75,-301 254.75,-334 332,-334 332,-301 254.75,-301"/>
<polygon fill="none" stroke="#4ecdc4" points="254.75,-301 254.75,-334 332,-334 332,-301 254.75,-301"/>
<text xml:space="preserve" text-anchor="start" x="282.88" y="-312.7" font-family="Helvetica,sans-Serif" font-weight="bold" font-size="14.00" fill="white">EM</text>
<polygon fill="#2d2d44" stroke="none" points="332,-301 332,-334 404,-334 404,-301 332,-301"/>
<polygon fill="none" stroke="#4ecdc4" points="332,-301 332,-334 404,-334 404,-301 332,-301"/>
<text xml:space="preserve" text-anchor="start" x="347.75" y="-312.7" font-family="Helvetica,sans-Serif" font-weight="bold" font-size="14.00" fill="white">Active</text>
<polygon fill="#2d2d44" stroke="none" points="404,-301 404,-334 503.75,-334 503.75,-301 404,-301"/>
<polygon fill="none" stroke="#4ecdc4" points="404,-301 404,-334 503.75,-334 503.75,-301 404,-301"/>
<text xml:space="preserve" text-anchor="start" x="413" y="-312.7" font-family="Helvetica,sans-Serif" font-weight="bold" font-size="14.00" fill="white">Best Method</text>
<polygon fill="#2d2d44" stroke="none" points="8,-268 8,-301 182.75,-301 182.75,-268 8,-268"/>
<polygon fill="none" stroke="#4ecdc4" points="8,-268 8,-301 182.75,-301 182.75,-268 8,-268"/>
<text xml:space="preserve" text-anchor="start" x="27.12" y="-278.7" font-family="Helvetica,sans-Serif" font-size="14.00" fill="white">Under power, EMCON</text>
<polygon fill="#95d5b2" stroke="none" points="182.75,-268 182.75,-301 254.75,-301 254.75,-268 182.75,-268"/>
<polygon fill="none" stroke="#4ecdc4" points="182.75,-268 182.75,-301 254.75,-301 254.75,-268 182.75,-268"/>
<text xml:space="preserve" text-anchor="start" x="201.5" y="-279.7" font-family="Helvetica,sans-Serif" font-weight="bold" font-size="14.00" fill="#1a1a2e">HIGH</text>
<polygon fill="#ff6b6b" stroke="none" points="254.75,-268 254.75,-301 332,-301 332,-268 254.75,-268"/>
<polygon fill="none" stroke="#4ecdc4" points="254.75,-268 254.75,-301 332,-301 332,-268 254.75,-268"/>
<text xml:space="preserve" text-anchor="start" x="274.25" y="-278.7" font-family="Helvetica,sans-Serif" font-size="14.00" fill="white">ZERO</text>
<polygon fill="#ffe66d" stroke="none" points="332,-268 332,-301 404,-301 404,-268 332,-268"/>
<polygon fill="none" stroke="#4ecdc4" points="332,-268 332,-301 404,-301 404,-268 332,-268"/>
<text xml:space="preserve" text-anchor="start" x="345.88" y="-278.7" font-family="Helvetica,sans-Serif" font-size="14.00" fill="#1a1a2e">Normal</text>
<polygon fill="#4ecdc4" stroke="none" points="404,-268 404,-301 503.75,-301 503.75,-268 404,-268"/>
<polygon fill="none" stroke="#4ecdc4" points="404,-268 404,-301 503.75,-301 503.75,-268 404,-268"/>
<text xml:space="preserve" text-anchor="start" x="428.75" y="-278.7" font-family="Helvetica,sans-Serif" font-size="14.00" fill="#1a1a2e">Thermal</text>
<polygon fill="#2d2d44" stroke="none" points="8,-235 8,-268 182.75,-268 182.75,-235 8,-235"/>
<polygon fill="none" stroke="#4ecdc4" points="8,-235 8,-268 182.75,-268 182.75,-235 8,-235"/>
<text xml:space="preserve" text-anchor="start" x="17" y="-245.7" font-family="Helvetica,sans-Serif" font-size="14.00" fill="white">Under power, sensors ON</text>
<polygon fill="#95d5b2" stroke="none" points="182.75,-235 182.75,-268 254.75,-268 254.75,-235 182.75,-235"/>
<polygon fill="none" stroke="#4ecdc4" points="182.75,-235 182.75,-268 254.75,-268 254.75,-235 182.75,-235"/>
<text xml:space="preserve" text-anchor="start" x="201.5" y="-246.7" font-family="Helvetica,sans-Serif" font-weight="bold" font-size="14.00" fill="#1a1a2e">HIGH</text>
<polygon fill="#95d5b2" stroke="none" points="254.75,-235 254.75,-268 332,-268 332,-235 254.75,-235"/>
<polygon fill="none" stroke="#4ecdc4" points="254.75,-235 254.75,-268 332,-268 332,-235 254.75,-235"/>
<text xml:space="preserve" text-anchor="start" x="276.12" y="-246.7" font-family="Helvetica,sans-Serif" font-weight="bold" font-size="14.00" fill="#1a1a2e">HIGH</text>
<polygon fill="#ffe66d" stroke="none" points="332,-235 332,-268 404,-268 404,-235 332,-235"/>
<polygon fill="none" stroke="#4ecdc4" points="332,-235 332,-268 404,-268 404,-235 332,-235"/>
<text xml:space="preserve" text-anchor="start" x="345.88" y="-245.7" font-family="Helvetica,sans-Serif" font-size="14.00" fill="#1a1a2e">Normal</text>
<polygon fill="#4ecdc4" stroke="none" points="404,-235 404,-268 503.75,-268 503.75,-235 404,-235"/>
<polygon fill="none" stroke="#4ecdc4" points="404,-235 404,-268 503.75,-268 503.75,-235 404,-235"/>
<text xml:space="preserve" text-anchor="start" x="442.25" y="-245.7" font-family="Helvetica,sans-Serif" font-size="14.00" fill="#1a1a2e">Any</text>
<polygon fill="#2d2d44" stroke="none" points="8,-202 8,-235 182.75,-235 182.75,-202 8,-202"/>
<polygon fill="none" stroke="#4ecdc4" points="8,-202 8,-235 182.75,-235 182.75,-202 8,-202"/>
<text xml:space="preserve" text-anchor="start" x="35.75" y="-212.7" font-family="Helvetica,sans-Serif" font-size="14.00" fill="white">Stationary, EMCON</text>
<polygon fill="#ffe66d" stroke="none" points="182.75,-202 182.75,-235 254.75,-235 254.75,-202 182.75,-202"/>
<polygon fill="none" stroke="#4ecdc4" points="182.75,-202 182.75,-235 254.75,-235 254.75,-202 182.75,-202"/>
<text xml:space="preserve" text-anchor="start" x="197.38" y="-212.7" font-family="Helvetica,sans-Serif" font-size="14.00" fill="#1a1a2e">5% HS</text>
<polygon fill="#ff6b6b" stroke="none" points="254.75,-202 254.75,-235 332,-235 332,-202 254.75,-202"/>
<polygon fill="none" stroke="#4ecdc4" points="254.75,-202 254.75,-235 332,-235 332,-202 254.75,-202"/>
<text xml:space="preserve" text-anchor="start" x="274.25" y="-212.7" font-family="Helvetica,sans-Serif" font-size="14.00" fill="white">ZERO</text>
<polygon fill="#ffe66d" stroke="none" points="332,-202 332,-235 404,-235 404,-202 332,-202"/>
<polygon fill="none" stroke="#4ecdc4" points="332,-202 332,-235 404,-235 404,-202 332,-202"/>
<text xml:space="preserve" text-anchor="start" x="345.88" y="-212.7" font-family="Helvetica,sans-Serif" font-size="14.00" fill="#1a1a2e">Normal</text>
<polygon fill="#4ecdc4" stroke="none" points="404,-202 404,-235 503.75,-235 503.75,-202 404,-202"/>
<polygon fill="none" stroke="#4ecdc4" points="404,-202 404,-235 503.75,-235 503.75,-202 404,-202"/>
<text xml:space="preserve" text-anchor="start" x="435.5" y="-212.7" font-family="Helvetica,sans-Serif" font-size="14.00" fill="#1a1a2e">Active</text>
<polygon fill="#2d2d44" stroke="none" points="8,-169 8,-202 182.75,-202 182.75,-169 8,-169"/>
<polygon fill="none" stroke="#4ecdc4" points="8,-169 8,-202 182.75,-202 182.75,-169 8,-169"/>
<text xml:space="preserve" text-anchor="start" x="25.62" y="-179.7" font-family="Helvetica,sans-Serif" font-size="14.00" fill="white">Stationary, sensors ON</text>
<polygon fill="#ffe66d" stroke="none" points="182.75,-169 182.75,-202 254.75,-202 254.75,-169 182.75,-169"/>
<polygon fill="none" stroke="#4ecdc4" points="182.75,-169 182.75,-202 254.75,-202 254.75,-169 182.75,-169"/>
<text xml:space="preserve" text-anchor="start" x="197.38" y="-179.7" font-family="Helvetica,sans-Serif" font-size="14.00" fill="#1a1a2e">5% HS</text>
<polygon fill="#95d5b2" stroke="none" points="254.75,-169 254.75,-202 332,-202 332,-169 254.75,-169"/>
<polygon fill="none" stroke="#4ecdc4" points="254.75,-169 254.75,-202 332,-202 332,-169 254.75,-169"/>
<text xml:space="preserve" text-anchor="start" x="276.12" y="-180.7" font-family="Helvetica,sans-Serif" font-weight="bold" font-size="14.00" fill="#1a1a2e">HIGH</text>
<polygon fill="#ffe66d" stroke="none" points="332,-169 332,-202 404,-202 404,-169 332,-169"/>
<polygon fill="none" stroke="#4ecdc4" points="332,-169 332,-202 404,-202 404,-169 332,-169"/>
<text xml:space="preserve" text-anchor="start" x="345.88" y="-179.7" font-family="Helvetica,sans-Serif" font-size="14.00" fill="#1a1a2e">Normal</text>
<polygon fill="#4ecdc4" stroke="none" points="404,-169 404,-202 503.75,-202 503.75,-169 404,-169"/>
<polygon fill="none" stroke="#4ecdc4" points="404,-169 404,-202 503.75,-202 503.75,-169 404,-169"/>
<text xml:space="preserve" text-anchor="start" x="443.38" y="-179.7" font-family="Helvetica,sans-Serif" font-size="14.00" fill="#1a1a2e">EM</text>
<polygon fill="#2d2d44" stroke="none" points="8,-136 8,-169 182.75,-169 182.75,-136 8,-136"/>
<polygon fill="none" stroke="#4ecdc4" points="8,-136 8,-169 182.75,-169 182.75,-136 8,-136"/>
<text xml:space="preserve" text-anchor="start" x="29.38" y="-146.7" font-family="Helvetica,sans-Serif" font-size="14.00" fill="white">Cloaked, under power</text>
<polygon fill="#ffe66d" stroke="none" points="182.75,-136 182.75,-169 254.75,-169 254.75,-136 182.75,-136"/>
<polygon fill="none" stroke="#4ecdc4" points="182.75,-136 182.75,-169 254.75,-169 254.75,-136 182.75,-136"/>
<text xml:space="preserve" text-anchor="start" x="191.75" y="-146.7" font-family="Helvetica,sans-Serif" font-size="14.00" fill="#1a1a2e">Reduced</text>
<polygon fill="#ffe66d" stroke="none" points="254.75,-136 254.75,-169 332,-169 332,-136 254.75,-136"/>
<polygon fill="none" stroke="#4ecdc4" points="254.75,-136 254.75,-169 332,-169 332,-136 254.75,-136"/>
<text xml:space="preserve" text-anchor="start" x="266.38" y="-146.7" font-family="Helvetica,sans-Serif" font-size="14.00" fill="#1a1a2e">Reduced</text>
<polygon fill="#ffe66d" stroke="none" points="332,-136 332,-169 404,-169 404,-136 332,-136"/>
<polygon fill="none" stroke="#4ecdc4" points="332,-136 332,-169 404,-169 404,-136 332,-136"/>
<text xml:space="preserve" text-anchor="start" x="341" y="-146.7" font-family="Helvetica,sans-Serif" font-size="14.00" fill="#1a1a2e">Reduced</text>
<polygon fill="#4ecdc4" stroke="none" points="404,-136 404,-169 503.75,-169 503.75,-136 404,-136"/>
<polygon fill="none" stroke="#4ecdc4" points="404,-136 404,-169 503.75,-169 503.75,-136 404,-136"/>
<text xml:space="preserve" text-anchor="start" x="426.12" y="-146.7" font-family="Helvetica,sans-Serif" font-size="14.00" fill="#1a1a2e">Thermal*</text>
<polygon fill="#2d2d44" stroke="none" points="8,-103 8,-136 182.75,-136 182.75,-103 8,-103"/>
<polygon fill="none" stroke="#4ecdc4" points="8,-103 8,-136 182.75,-136 182.75,-103 8,-103"/>
<text xml:space="preserve" text-anchor="start" x="37.62" y="-113.7" font-family="Helvetica,sans-Serif" font-size="14.00" fill="white">Cloaked, stationary</text>
<polygon fill="#ffe66d" stroke="none" points="182.75,-103 182.75,-136 254.75,-136 254.75,-103 182.75,-103"/>
<polygon fill="none" stroke="#4ecdc4" points="182.75,-103 182.75,-136 254.75,-136 254.75,-103 182.75,-103"/>
<text xml:space="preserve" text-anchor="start" x="194.75" y="-113.7" font-family="Helvetica,sans-Serif" font-size="14.00" fill="#1a1a2e">Minimal</text>
<polygon fill="#ff6b6b" stroke="none" points="254.75,-103 254.75,-136 332,-136 332,-103 254.75,-103"/>
<polygon fill="none" stroke="#4ecdc4" points="254.75,-103 254.75,-136 332,-136 332,-103 254.75,-103"/>
<text xml:space="preserve" text-anchor="start" x="274.25" y="-113.7" font-family="Helvetica,sans-Serif" font-size="14.00" fill="white">ZERO</text>
<polygon fill="#ffe66d" stroke="none" points="332,-103 332,-136 404,-136 404,-103 332,-103"/>
<polygon fill="none" stroke="#4ecdc4" points="332,-103 332,-136 404,-136 404,-103 332,-103"/>
<text xml:space="preserve" text-anchor="start" x="341" y="-113.7" font-family="Helvetica,sans-Serif" font-size="14.00" fill="#1a1a2e">Reduced</text>
<polygon fill="#4ecdc4" stroke="none" points="404,-103 404,-136 503.75,-136 503.75,-103 404,-103"/>
<polygon fill="none" stroke="#4ecdc4" points="404,-103 404,-136 503.75,-136 503.75,-103 404,-103"/>
<text xml:space="preserve" text-anchor="start" x="432.88" y="-113.7" font-family="Helvetica,sans-Serif" font-size="14.00" fill="#1a1a2e">Active*</text>
<polygon fill="#2d2d44" stroke="none" points="8,-70 8,-103 182.75,-103 182.75,-70 8,-70"/>
<polygon fill="none" stroke="#4ecdc4" points="8,-70 8,-103 182.75,-103 182.75,-70 8,-70"/>
<text xml:space="preserve" text-anchor="start" x="53" y="-80.7" font-family="Helvetica,sans-Serif" font-size="14.00" fill="white">Shields raised</text>
<polygon fill="#ffe66d" stroke="none" points="182.75,-70 182.75,-103 254.75,-103 254.75,-70 182.75,-70"/>
<polygon fill="none" stroke="#4ecdc4" points="182.75,-70 182.75,-103 254.75,-103 254.75,-70 182.75,-70"/>
<text xml:space="preserve" text-anchor="start" x="194" y="-80.7" font-family="Helvetica,sans-Serif" font-size="14.00" fill="#1a1a2e">Variable</text>
<polygon fill="#95d5b2" stroke="none" points="254.75,-70 254.75,-103 332,-103 332,-70 254.75,-70"/>
<polygon fill="none" stroke="#4ecdc4" points="254.75,-70 254.75,-103 332,-103 332,-70 254.75,-70"/>
<text xml:space="preserve" text-anchor="start" x="263.75" y="-81.7" font-family="Helvetica,sans-Serif" font-weight="bold" font-size="14.00" fill="#1a1a2e">3x Shield</text>
<polygon fill="#ffe66d" stroke="none" points="332,-70 332,-103 404,-103 404,-70 332,-70"/>
<polygon fill="none" stroke="#4ecdc4" points="332,-70 332,-103 404,-103 404,-70 332,-70"/>
<text xml:space="preserve" text-anchor="start" x="345.88" y="-80.7" font-family="Helvetica,sans-Serif" font-size="14.00" fill="#1a1a2e">Normal</text>
<polygon fill="#4ecdc4" stroke="none" points="404,-70 404,-103 503.75,-103 503.75,-70 404,-70"/>
<polygon fill="none" stroke="#4ecdc4" points="404,-70 404,-103 503.75,-103 503.75,-70 404,-70"/>
<text xml:space="preserve" text-anchor="start" x="443.38" y="-80.7" font-family="Helvetica,sans-Serif" font-size="14.00" fill="#1a1a2e">EM</text>
<polygon fill="#2d2d44" stroke="none" points="8,-37 8,-70 182.75,-70 182.75,-37 8,-37"/>
<polygon fill="none" stroke="#4ecdc4" points="8,-37 8,-70 182.75,-70 182.75,-37 8,-37"/>
<text xml:space="preserve" text-anchor="start" x="28.25" y="-47.7" font-family="Helvetica,sans-Serif" font-size="14.00" fill="white">Missile (active seeker)</text>
<polygon fill="#ffe66d" stroke="none" points="182.75,-37 182.75,-70 254.75,-70 254.75,-37 182.75,-37"/>
<polygon fill="none" stroke="#4ecdc4" points="182.75,-37 182.75,-70 254.75,-70 254.75,-37 182.75,-37"/>
<text xml:space="preserve" text-anchor="start" x="194.75" y="-47.7" font-family="Helvetica,sans-Serif" font-size="14.00" fill="#1a1a2e">Minimal</text>
<polygon fill="#95d5b2" stroke="none" points="254.75,-37 254.75,-70 332,-70 332,-37 254.75,-37"/>
<polygon fill="none" stroke="#4ecdc4" points="254.75,-37 254.75,-70 332,-70 332,-37 254.75,-37"/>
<text xml:space="preserve" text-anchor="start" x="271.25" y="-48.7" font-family="Helvetica,sans-Serif" font-weight="bold" font-size="14.00" fill="#1a1a2e">Seeker</text>
<polygon fill="#ffe66d" stroke="none" points="332,-37 332,-70 404,-70 404,-37 332,-37"/>
<polygon fill="none" stroke="#4ecdc4" points="332,-37 332,-70 404,-70 404,-37 332,-37"/>
<text xml:space="preserve" text-anchor="start" x="350.75" y="-47.7" font-family="Helvetica,sans-Serif" font-size="14.00" fill="#1a1a2e">Small</text>
<polygon fill="#4ecdc4" stroke="none" points="404,-37 404,-70 503.75,-70 503.75,-37 404,-37"/>
<polygon fill="none" stroke="#4ecdc4" points="404,-37 404,-70 503.75,-70 503.75,-37 404,-37"/>
<text xml:space="preserve" text-anchor="start" x="426.88" y="-47.7" font-family="Helvetica,sans-Serif" font-size="14.00" fill="#1a1a2e">EM + R1</text>
<polygon fill="#2d2d44" stroke="none" points="8,-4 8,-37 182.75,-37 182.75,-4 8,-4"/>
<polygon fill="none" stroke="#4ecdc4" points="8,-4 8,-37 182.75,-37 182.75,-4 8,-4"/>
<text xml:space="preserve" text-anchor="start" x="45.12" y="-14.7" font-family="Helvetica,sans-Serif" font-size="14.00" fill="white">Missile (passive)</text>
<polygon fill="#ffe66d" stroke="none" points="182.75,-4 182.75,-37 254.75,-37 254.75,-4 182.75,-4"/>
<polygon fill="none" stroke="#4ecdc4" points="182.75,-4 182.75,-37 254.75,-37 254.75,-4 182.75,-4"/>
<text xml:space="preserve" text-anchor="start" x="194.75" y="-14.7" font-family="Helvetica,sans-Serif" font-size="14.00" fill="#1a1a2e">Minimal</text>
<polygon fill="#ff6b6b" stroke="none" points="254.75,-4 254.75,-37 332,-37 332,-4 254.75,-4"/>
<polygon fill="none" stroke="#4ecdc4" points="254.75,-4 254.75,-37 332,-37 332,-4 254.75,-4"/>
<text xml:space="preserve" text-anchor="start" x="274.25" y="-14.7" font-family="Helvetica,sans-Serif" font-size="14.00" fill="white">ZERO</text>
<polygon fill="#ffe66d" stroke="none" points="332,-4 332,-37 404,-37 404,-4 332,-4"/>
<polygon fill="none" stroke="#4ecdc4" points="332,-4 332,-37 404,-37 404,-4 332,-4"/>
<text xml:space="preserve" text-anchor="start" x="350.75" y="-14.7" font-family="Helvetica,sans-Serif" font-size="14.00" fill="#1a1a2e">Small</text>
<polygon fill="#4ecdc4" stroke="none" points="404,-4 404,-37 503.75,-37 503.75,-4 404,-4"/>
<polygon fill="none" stroke="#4ecdc4" points="404,-4 404,-37 503.75,-37 503.75,-4 404,-4"/>
<text xml:space="preserve" text-anchor="start" x="425" y="-14.7" font-family="Helvetica,sans-Serif" font-size="14.00" fill="#1a1a2e">R1 Active</text>
</g>
<!-- legend -->
<g id="node2" class="node">
<title>legend</title>
<polygon fill="#2d2d44" stroke="none" points="538.25,-99.5 538.25,-238.5 685.5,-238.5 685.5,-99.5 538.25,-99.5"/>
<text xml:space="preserve" text-anchor="start" x="587.88" y="-218.2" font-family="Helvetica,sans-Serif" font-weight="bold" font-size="14.00" fill="white">Legend</text>
<polygon fill="#95d5b2" stroke="none" points="542.25,-184.5 542.25,-207.5 562.25,-207.5 562.25,-184.5 542.25,-184.5"/>
<text xml:space="preserve" text-anchor="start" x="572.88" y="-190.2" font-family="Helvetica,sans-Serif" font-size="14.00" fill="white">Easily detectable</text>
<polygon fill="#ffe66d" stroke="none" points="542.25,-157.5 542.25,-180.5 562.25,-180.5 562.25,-157.5 542.25,-157.5"/>
<text xml:space="preserve" text-anchor="start" x="570.25" y="-163.2" font-family="Helvetica,sans-Serif" font-size="14.00" fill="white">Reduced/Variable</text>
<polygon fill="#ff6b6b" stroke="none" points="542.25,-130.5 542.25,-153.5 562.25,-153.5 562.25,-130.5 542.25,-130.5"/>
<text xml:space="preserve" text-anchor="start" x="584.12" y="-136.2" font-family="Helvetica,sans-Serif" font-size="14.00" fill="white">Undetectable</text>
<text xml:space="preserve" text-anchor="start" x="558.62" y="-109.2" font-family="Helvetica,sans-Serif" font-size="14.00" fill="#4ecdc4">* Degraded range</text>
</g>
</g>
</svg>
