<?xml version="1.0" encoding="UTF-8" standalone="no"?>
<!DOCTYPE svg PUBLIC "-//W3C//DTD SVG 1.1//EN"
 "http://www.w3.org/Graphics/SVG/1.1/DTD/svg11.dtd">
<!-- Generated by graphviz version 14.1.2 (20260124.0452)
 -->
<!-- Title: DetectionWorkflow Pages: 1 -->
<svg width="590pt" height="956pt"
 viewBox="0.00 0.00 590.00 956.00" xmlns="http://www.w3.org/2000/svg" xmlns:xlink="http://www.w3.org/1999/xlink">
<g id="graph0" class="graph" transform="scale(1 1) rotate(0) translate(36 920)">
<title>DetectionWorkflow</title>
<polygon fill="#1a1a2e" stroke="none" points="-36,36 -36,-920 554,-920 554,36 -36,36"/>
<text xml:space="preserve" text-anchor="middle" x="259" y="-864.8" font-family="Helvetica,sans-Serif" font-size="16.00" fill="white">Detection Workflow</text>
<!-- start -->
<g id="node1" class="node">
<title>start</title>
<ellipse fill="#4ecdc4" stroke="#4ecdc4" cx="259" cy="-841.5" rx="61.04" ry="18"/>
<text xml:space="preserve" text-anchor="middle" x="259" y="-837.05" font-family="Helvetica,sans-Serif" font-size="11.00" fill="#1a1a2e">Detection Attempt</text>
</g>
<!-- step1 -->
<g id="node2" class="node">
<title>step1</title>
<path fill="#2d2d44" stroke="#4ecdc4" d="M351.5,-786.5C351.5,-786.5 166.5,-786.5 166.5,-786.5 160.5,-786.5 154.5,-780.5 154.5,-774.5 154.5,-774.5 154.5,-733.25 154.5,-733.25 154.5,-727.25 160.5,-721.25 166.5,-721.25 166.5,-721.25 351.5,-721.25 351.5,-721.25 357.5,-721.25 363.5,-727.25 363.5,-733.25 363.5,-733.25 363.5,-774.5 363.5,-774.5 363.5,-780.5 357.5,-786.5 351.5,-786.5"/>
<text xml:space="preserve" text-anchor="start" x="164.5" y="-771.05" font-family="Helvetica,sans-Serif" font-weight="bold" font-size="11.00" fill="white">Step 1: Target Generates Signatures</text>
<text xml:space="preserve" text-anchor="start" x="192.62" y="-755.95" font-family="Helvetica,sans-Serif" font-size="9.00" fill="#ffe66d">Thermal: engines + idle (5% HS)</text>
<text xml:space="preserve" text-anchor="start" x="191.5" y="-742.2" font-family="Helvetica,sans-Serif" font-size="9.00" fill="#ffe66d">EM: active sensors, shields, ECM</text>
<text xml:space="preserve" text-anchor="start" x="211.75" y="-728.45" font-family="Helvetica,sans-Serif" font-size="9.00" fill="#ffe66d">Cross&#45;section: tonnage</text>
</g>
<!-- start&#45;&gt;step1 -->
<g id="edge1" class="edge">
<title>start&#45;&gt;step1</title>
<path fill="none" stroke="#4ecdc4" d="M259,-823.17C259,-815.33 259,-805.69 259,-796.16"/>
<polygon fill="#4ecdc4" stroke="#4ecdc4" points="261.8,-796.24 259,-788.24 256.2,-796.24 261.8,-796.24"/>
</g>
<!-- step2 -->
<g id="node3" class="node">
<title>step2</title>
<path fill="#2d2d44" stroke="#4ecdc4" d="M347.8,-684.25C347.8,-684.25 170.2,-684.25 170.2,-684.25 164.2,-684.25 158.2,-678.25 158.2,-672.25 158.2,-672.25 158.2,-658.5 158.2,-658.5 158.2,-652.5 164.2,-646.5 170.2,-646.5 170.2,-646.5 347.8,-646.5 347.8,-646.5 353.8,-646.5 359.8,-652.5 359.8,-658.5 359.8,-658.5 359.8,-672.25 359.8,-672.25 359.8,-678.25 353.8,-684.25 347.8,-684.25"/>
<text xml:space="preserve" text-anchor="start" x="168.62" y="-668.8" font-family="Helvetica,sans-Serif" font-weight="bold" font-size="11.00" fill="white">Step 2: Sensors Attempt Detection</text>
<text xml:space="preserve" text-anchor="start" x="178.38" y="-653.7" font-family="Helvetica,sans-Serif" font-size="9.00" fill="#888888">Compare sensor capability vs signature</text>
</g>
<!-- step1&#45;&gt;step2 -->
<g id="edge2" class="edge">
<title>step1&#45;&gt;step2</title>
<path fill="none" stroke="#4ecdc4" d="M259,-721.16C259,-712.19 259,-702.51 259,-693.81"/>
<polygon fill="#4ecdc4" stroke="#4ecdc4" points="261.8,-694.02 259,-686.02 256.2,-694.02 261.8,-694.02"/>
</g>
<!-- sensor_type -->
<g id="node4" class="node">
<title>sensor_type</title>
<path fill="#ffe66d" stroke="#4ecdc4" d="M247.43,-606.31C247.43,-606.31 205.3,-594.69 205.3,-594.69 199.51,-593.1 199.51,-589.9 205.3,-588.31 205.3,-588.31 247.43,-576.69 247.43,-576.69 253.22,-575.1 264.78,-575.1 270.57,-576.69 270.57,-576.69 312.7,-588.31 312.7,-588.31 318.49,-589.9 318.49,-593.1 312.7,-594.69 312.7,-594.69 270.57,-606.31 270.57,-606.31 264.78,-607.9 253.22,-607.9 247.43,-606.31"/>
<text xml:space="preserve" text-anchor="middle" x="259" y="-587.05" font-family="Helvetica,sans-Serif" font-size="11.00" fill="#1a1a2e">Sensor Type</text>
</g>
<!-- step2&#45;&gt;sensor_type -->
<g id="edge3" class="edge">
<title>step2&#45;&gt;sensor_type</title>
<path fill="none" stroke="#4ecdc4" d="M259,-646.24C259,-638.05 259,-628.22 259,-619.22"/>
<polygon fill="#4ecdc4" stroke="#4ecdc4" points="261.8,-619.4 259,-611.4 256.2,-619.4 261.8,-619.4"/>
</g>
<!-- thermal -->
<g id="node5" class="node">
<title>thermal</title>
<path fill="#2d2d44" stroke="#4ecdc4" d="M132,-527.75C132,-527.75 12,-527.75 12,-527.75 6,-527.75 0,-521.75 0,-515.75 0,-515.75 0,-488.25 0,-488.25 0,-482.25 6,-476.25 12,-476.25 12,-476.25 132,-476.25 132,-476.25 138,-476.25 144,-482.25 144,-488.25 144,-488.25 144,-515.75 144,-515.75 144,-521.75 138,-527.75 132,-527.75"/>
<text xml:space="preserve" text-anchor="start" x="28.88" y="-512.3" font-family="Helvetica,sans-Serif" font-weight="bold" font-size="11.00" fill="white">Passive Thermal</text>
<text xml:space="preserve" text-anchor="start" x="26.25" y="-497.2" font-family="Helvetica,sans-Serif" font-size="9.00" fill="#888888">Detects heat signature</text>
<text xml:space="preserve" text-anchor="start" x="44.25" y="-483.45" font-family="Helvetica,sans-Serif" font-size="9.00" fill="#95d5b2">No emissions</text>
</g>
<!-- sensor_type&#45;&gt;thermal -->
<g id="edge4" class="edge">
<title>sensor_type&#45;&gt;thermal</title>
<path fill="none" stroke="#4ecdc4" d="M235.69,-579.59C210.41,-567.76 168.97,-548.37 134.12,-532.07"/>
<polygon fill="#4ecdc4" stroke="#4ecdc4" points="135.68,-529.71 127.25,-528.85 133.31,-534.78 135.68,-529.71"/>
<text xml:space="preserve" text-anchor="middle" x="199.12" y="-546.95" font-family="Helvetica,sans-Serif" font-size="9.00" fill="#888888">Thermal</text>
</g>
<!-- em -->
<g id="node6" class="node">
<title>em</title>
<path fill="#2d2d44" stroke="#4ecdc4" d="M319,-527.75C319,-527.75 199,-527.75 199,-527.75 193,-527.75 187,-521.75 187,-515.75 187,-515.75 187,-488.25 187,-488.25 187,-482.25 193,-476.25 199,-476.25 199,-476.25 319,-476.25 319,-476.25 325,-476.25 331,-482.25 331,-488.25 331,-488.25 331,-515.75 331,-515.75 331,-521.75 325,-527.75 319,-527.75"/>
<text xml:space="preserve" text-anchor="start" x="229" y="-512.3" font-family="Helvetica,sans-Serif" font-weight="bold" font-size="11.00" fill="white">Passive EM</text>
<text xml:space="preserve" text-anchor="start" x="215.5" y="-497.2" font-family="Helvetica,sans-Serif" font-size="9.00" fill="#888888">Detects EM signature</text>
<text xml:space="preserve" text-anchor="start" x="231.25" y="-483.45" font-family="Helvetica,sans-Serif" font-size="9.00" fill="#95d5b2">No emissions</text>
</g>
<!-- sensor_type&#45;&gt;em -->
<g id="edge5" class="edge">
<title>sensor_type&#45;&gt;em</title>
<path fill="none" stroke="#4ecdc4" d="M259,-573.21C259,-563.07 259,-549.9 259,-537.7"/>
<polygon fill="#4ecdc4" stroke="#4ecdc4" points="261.8,-537.72 259,-529.72 256.2,-537.72 261.8,-537.72"/>
<text xml:space="preserve" text-anchor="middle" x="265.75" y="-546.95" font-family="Helvetica,sans-Serif" font-size="9.00" fill="#888888">EM</text>
</g>
<!-- active -->
<g id="node7" class="node">
<title>active</title>
<path fill="#2d2d44" stroke="#4ecdc4" d="M506,-527.75C506,-527.75 386,-527.75 386,-527.75 380,-527.75 374,-521.75 374,-515.75 374,-515.75 374,-488.25 374,-488.25 374,-482.25 380,-476.25 386,-476.25 386,-476.25 506,-476.25 506,-476.25 512,-476.25 518,-482.25 518,-488.25 518,-488.25 518,-515.75 518,-515.75 518,-521.75 512,-527.75 506,-527.75"/>
<text xml:space="preserve" text-anchor="start" x="409.25" y="-512.3" font-family="Helvetica,sans-Serif" font-weight="bold" font-size="11.00" fill="white">Active Sensor</text>
<text xml:space="preserve" text-anchor="start" x="402.5" y="-497.2" font-family="Helvetica,sans-Serif" font-size="9.00" fill="#888888">Detects cross&#45;section</text>
<text xml:space="preserve" text-anchor="start" x="413.38" y="-483.45" font-family="Helvetica,sans-Serif" font-size="9.00" fill="#ff6b6b">Emits EM (GPS)</text>
</g>
<!-- sensor_type&#45;&gt;active -->
<g id="edge6" class="edge">
<title>sensor_type&#45;&gt;active</title>
<path fill="none" stroke="#4ecdc4" d="M282.31,-579.59C307.59,-567.76 349.03,-548.37 383.88,-532.07"/>
<polygon fill="#4ecdc4" stroke="#4ecdc4" points="384.69,-534.78 390.75,-528.85 382.32,-529.71 384.69,-534.78"/>
<text xml:space="preserve" text-anchor="middle" x="364.88" y="-546.95" font-family="Helvetica,sans-Serif" font-size="9.00" fill="#888888">Active</text>
</g>
<!-- step3 -->
<g id="node8" class="node">
<title>step3</title>
<path fill="#2d2d44" stroke="#4ecdc4" d="M347.8,-439.25C347.8,-439.25 170.2,-439.25 170.2,-439.25 164.2,-439.25 158.2,-433.25 158.2,-427.25 158.2,-427.25 158.2,-413.5 158.2,-413.5 158.2,-407.5 164.2,-401.5 170.2,-401.5 170.2,-401.5 347.8,-401.5 347.8,-401.5 353.8,-401.5 359.8,-407.5 359.8,-413.5 359.8,-413.5 359.8,-427.25 359.8,-427.25 359.8,-433.25 353.8,-439.25 347.8,-439.25"/>
<text xml:space="preserve" text-anchor="start" x="185.12" y="-423.8" font-family="Helvetica,sans-Serif" font-weight="bold" font-size="11.00" fill="white">Step 3: Resolution Matching</text>
<text xml:space="preserve" text-anchor="start" x="194.88" y="-408.7" font-family="Helvetica,sans-Serif" font-size="9.00" fill="#888888">Target size vs sensor resolution</text>
</g>
<!-- thermal&#45;&gt;step3 -->
<g id="edge7" class="edge">
<title>thermal&#45;&gt;step3</title>
<path fill="none" stroke="#4ecdc4" d="M131.17,-475.81C155.66,-465.38 183.8,-453.39 207.43,-443.33"/>
<polygon fill="#4ecdc4" stroke="#4ecdc4" points="208.27,-446.02 214.53,-440.31 206.07,-440.87 208.27,-446.02"/>
</g>
<!-- em&#45;&gt;step3 -->
<g id="edge8" class="edge">
<title>em&#45;&gt;step3</title>
<path fill="none" stroke="#4ecdc4" d="M259,-475.81C259,-467.2 259,-457.53 259,-448.76"/>
<polygon fill="#4ecdc4" stroke="#4ecdc4" points="261.8,-448.86 259,-440.86 256.2,-448.86 261.8,-448.86"/>
</g>
<!-- active&#45;&gt;step3 -->
<g id="edge9" class="edge">
<title>active&#45;&gt;step3</title>
<path fill="none" stroke="#4ecdc4" d="M386.83,-475.81C362.34,-465.38 334.2,-453.39 310.57,-443.33"/>
<polygon fill="#4ecdc4" stroke="#4ecdc4" points="311.93,-440.87 303.47,-440.31 309.73,-446.02 311.93,-440.87"/>
</g>
<!-- match_check -->
<g id="node9" class="node">
<title>match_check</title>
<path fill="#ffe66d" stroke="#4ecdc4" d="M247.18,-362.46C247.18,-362.46 166.65,-348.54 166.65,-348.54 160.74,-347.52 160.74,-345.48 166.65,-344.46 166.65,-344.46 247.18,-330.54 247.18,-330.54 253.09,-329.52 264.91,-329.52 270.82,-330.54 270.82,-330.54 351.35,-344.46 351.35,-344.46 357.26,-345.48 357.26,-347.52 351.35,-348.54 351.35,-348.54 270.82,-362.46 270.82,-362.46 264.91,-363.48 253.09,-363.48 247.18,-362.46"/>
<text xml:space="preserve" text-anchor="middle" x="259" y="-342.05" font-family="Helvetica,sans-Serif" font-size="11.00" fill="#1a1a2e">Target &gt;= Resolution?</text>
</g>
<!-- step3&#45;&gt;match_check -->
<g id="edge10" class="edge">
<title>step3&#45;&gt;match_check</title>
<path fill="none" stroke="#4ecdc4" d="M259,-401.24C259,-393.05 259,-383.22 259,-374.22"/>
<polygon fill="#4ecdc4" stroke="#4ecdc4" points="261.8,-374.4 259,-366.4 256.2,-374.4 261.8,-374.4"/>
</g>
<!-- full_range -->
<g id="node10" class="node">
<title>full_range</title>
<path fill="#2d2d44" stroke="#4ecdc4" d="M226.2,-282.75C226.2,-282.75 91.8,-282.75 91.8,-282.75 85.8,-282.75 79.8,-276.75 79.8,-270.75 79.8,-270.75 79.8,-257 79.8,-257 79.8,-251 85.8,-245 91.8,-245 91.8,-245 226.2,-245 226.2,-245 232.2,-245 238.2,-251 238.2,-257 238.2,-257 238.2,-270.75 238.2,-270.75 238.2,-276.75 232.2,-282.75 226.2,-282.75"/>
<text xml:space="preserve" text-anchor="start" x="104.25" y="-267.3" font-family="Helvetica,sans-Serif" font-weight="bold" font-size="11.00" fill="#95d5b2">Full Detection Range</text>
<text xml:space="preserve" text-anchor="start" x="95.62" y="-252.2" font-family="Helvetica,sans-Serif" font-size="9.00" fill="#888888">Sensor operates at rated range</text>
</g>
<!-- match_check&#45;&gt;full_range -->
<g id="edge11" class="edge">
<title>match_check&#45;&gt;full_range</title>
<path fill="none" stroke="#4ecdc4" d="M241.12,-331.09C226.57,-319.35 205.73,-302.55 188.68,-288.81"/>
<polygon fill="#4ecdc4" stroke="#4ecdc4" points="190.8,-286.92 182.82,-284.08 187.29,-291.28 190.8,-286.92"/>
<text xml:space="preserve" text-anchor="middle" x="222.11" y="-301.95" font-family="Helvetica,sans-Serif" font-size="9.00" fill="#888888">Yes</text>
</g>
<!-- reduced_range -->
<g id="node11" class="node">
<title>reduced_range</title>
<path fill="#2d2d44" stroke="#4ecdc4" d="M427.2,-282.75C427.2,-282.75 292.8,-282.75 292.8,-282.75 286.8,-282.75 280.8,-276.75 280.8,-270.75 280.8,-270.75 280.8,-257 280.8,-257 280.8,-251 286.8,-245 292.8,-245 292.8,-245 427.2,-245 427.2,-245 433.2,-245 439.2,-251 439.2,-257 439.2,-257 439.2,-270.75 439.2,-270.75 439.2,-276.75 433.2,-282.75 427.2,-282.75"/>
<text xml:space="preserve" text-anchor="start" x="318.38" y="-267.3" font-family="Helvetica,sans-Serif" font-weight="bold" font-size="11.00" fill="#ff6b6b">Reduced Range</text>
<text xml:space="preserve" text-anchor="start" x="301.5" y="-252.2" font-family="Helvetica,sans-Serif" font-size="9.00" fill="#888888">Range x sqrt(size/resolution)</text>
</g>
<!-- match_check&#45;&gt;reduced_range -->
<g id="edge12" class="edge">
<title>match_check&#45;&gt;reduced_range</title>
<path fill="none" stroke="#4ecdc4" d="M276.59,-331.46C291.33,-319.69 312.69,-302.64 330.1,-288.74"/>
<polygon fill="#4ecdc4" stroke="#4ecdc4" points="331.61,-291.12 336.11,-283.94 328.11,-286.75 331.61,-291.12"/>
<text xml:space="preserve" text-anchor="middle" x="318.53" y="-301.95" font-family="Helvetica,sans-Serif" font-size="9.00" fill="#888888">No</text>
</g>
<!-- step4 -->
<g id="node12" class="node">
<title>step4</title>
<path fill="#2d2d44" stroke="#4ecdc4" d="M347.8,-208C347.8,-208 170.2,-208 170.2,-208 164.2,-208 158.2,-202 158.2,-196 158.2,-196 158.2,-182.25 158.2,-182.25 158.2,-176.25 164.2,-170.25 170.2,-170.25 170.2,-170.25 347.8,-170.25 347.8,-170.25 353.8,-170.25 359.8,-176.25 359.8,-182.25 359.8,-182.25 359.8,-196 359.8,-196 359.8,-202 353.8,-208 347.8,-208"/>
<text xml:space="preserve" text-anchor="start" x="181.38" y="-192.55" font-family="Helvetica,sans-Serif" font-weight="bold" font-size="11.00" fill="white">Step 4: Contact Classification</text>
<text xml:space="preserve" text-anchor="start" x="172.75" y="-177.45" font-family="Helvetica,sans-Serif" font-size="9.00" fill="#888888">Information revealed varies by sensor type</text>
</g>
<!-- full_range&#45;&gt;step4 -->
<g id="edge13" class="edge">
<title>full_range&#45;&gt;step4</title>
<path fill="none" stroke="#4ecdc4" d="M184.23,-244.52C197.02,-235.21 212.71,-223.8 226.4,-213.84"/>
<polygon fill="#4ecdc4" stroke="#4ecdc4" points="227.73,-216.34 232.55,-209.37 224.43,-211.81 227.73,-216.34"/>
</g>
<!-- reduced_range&#45;&gt;step4 -->
<g id="edge14" class="edge">
<title>reduced_range&#45;&gt;step4</title>
<path fill="none" stroke="#4ecdc4" d="M334.51,-244.52C321.59,-235.21 305.75,-223.8 291.92,-213.84"/>
<polygon fill="#4ecdc4" stroke="#4ecdc4" points="293.83,-211.77 285.71,-209.36 290.56,-216.31 293.83,-211.77"/>
</g>
<!-- passive_result -->
<g id="node13" class="node">
<title>passive_result</title>
<path fill="#2d2d44" stroke="#4ecdc4" d="M226,-124.5C226,-124.5 106,-124.5 106,-124.5 100,-124.5 94,-118.5 94,-112.5 94,-112.5 94,-85 94,-85 94,-79 100,-73 106,-73 106,-73 226,-73 226,-73 232,-73 238,-79 238,-85 238,-85 238,-112.5 238,-112.5 238,-118.5 232,-124.5 226,-124.5"/>
<text xml:space="preserve" text-anchor="start" x="123.62" y="-109.05" font-family="Helvetica,sans-Serif" font-weight="bold" font-size="11.00" fill="white">Passive Contact</text>
<text xml:space="preserve" text-anchor="start" x="128.5" y="-93.95" font-family="Helvetica,sans-Serif" font-size="9.00" fill="#888888">Signature strength</text>
<text xml:space="preserve" text-anchor="start" x="122.88" y="-80.2" font-family="Helvetica,sans-Serif" font-size="9.00" fill="#888888">Approximate location</text>
</g>
<!-- step4&#45;&gt;passive_result -->
<g id="edge15" class="edge">
<title>step4&#45;&gt;passive_result</title>
<path fill="none" stroke="#4ecdc4" d="M239.73,-169.81C227.93,-158.6 212.53,-143.96 198.85,-130.97"/>
<polygon fill="#4ecdc4" stroke="#4ecdc4" points="201.12,-129.26 193.4,-125.78 197.27,-133.32 201.12,-129.26"/>
<text xml:space="preserve" text-anchor="middle" x="236.95" y="-143.7" font-family="Helvetica,sans-Serif" font-size="9.00" fill="#888888">Passive</text>
</g>
<!-- active_result -->
<g id="node14" class="node">
<title>active_result</title>
<path fill="#2d2d44" stroke="#4ecdc4" d="M413,-124.5C413,-124.5 293,-124.5 293,-124.5 287,-124.5 281,-118.5 281,-112.5 281,-112.5 281,-85 281,-85 281,-79 287,-73 293,-73 293,-73 413,-73 413,-73 419,-73 425,-79 425,-85 425,-85 425,-112.5 425,-112.5 425,-118.5 419,-124.5 413,-124.5"/>
<text xml:space="preserve" text-anchor="start" x="314.38" y="-109.05" font-family="Helvetica,sans-Serif" font-weight="bold" font-size="11.00" fill="white">Active Contact</text>
<text xml:space="preserve" text-anchor="start" x="323.38" y="-93.95" font-family="Helvetica,sans-Serif" font-size="9.00" fill="#888888">Tonnage class</text>
<text xml:space="preserve" text-anchor="start" x="320.38" y="-80.2" font-family="Helvetica,sans-Serif" font-size="9.00" fill="#888888">Precise location</text>
</g>
<!-- step4&#45;&gt;active_result -->
<g id="edge16" class="edge">
<title>step4&#45;&gt;active_result</title>
<path fill="none" stroke="#4ecdc4" d="M278.48,-169.81C290.4,-158.6 305.97,-143.96 319.8,-130.97"/>
<polygon fill="#4ecdc4" stroke="#4ecdc4" points="321.41,-133.3 325.32,-125.78 317.57,-129.22 321.41,-133.3"/>
<text xml:space="preserve" text-anchor="middle" x="318.38" y="-143.7" font-family="Helvetica,sans-Serif" font-size="9.00" fill="#888888">Active</text>
</g>
<!-- intel -->
<g id="node15" class="node">
<title>intel</title>
<ellipse fill="#95d5b2" stroke="#4ecdc4" cx="259" cy="-18" rx="93.51" ry="18"/>
<text xml:space="preserve" text-anchor="middle" x="259" y="-13.55" font-family="Helvetica,sans-Serif" font-size="11.00" fill="#1a1a2e">Intelligence Builds Over Time</text>
</g>
<!-- passive_result&#45;&gt;intel -->
<g id="edge17" class="edge">
<title>passive_result&#45;&gt;intel</title>
<path fill="none" stroke="#4ecdc4" d="M195.68,-72.62C207.28,-62.79 220.49,-51.61 231.84,-42"/>
<polygon fill="#4ecdc4" stroke="#4ecdc4" points="233.54,-44.23 237.83,-36.92 229.92,-39.96 233.54,-44.23"/>
</g>
<!-- active_result&#45;&gt;intel -->
<g id="edge18" class="edge">
<title>active_result&#45;&gt;intel</title>
<path fill="none" stroke="#4ecdc4" d="M323,-72.62C311.28,-62.79 297.92,-51.61 286.45,-42"/>
<polygon fill="#4ecdc4" stroke="#4ecdc4" points="288.32,-39.91 280.39,-36.92 284.72,-44.2 288.32,-39.91"/>
</g>
</g>
</svg>
