<?xml version="1.0" encoding="UTF-8" standalone="no"?>
<!DOCTYPE svg PUBLIC "-//W3C//DTD SVG 1.1//EN"
 "http://www.w3.org/Graphics/SVG/1.1/DTD/svg11.dtd">
<!-- Generated by graphviz version 14.1.2 (20260124.0452)
 -->
<!-- Title: AmbushPositioning Pages: 1 -->
<svg width="678pt" height="990pt"
 viewBox="0.00 0.00 678.00 990.00" xmlns="http://www.w3.org/2000/svg" xmlns:xlink="http://www.w3.org/1999/xlink">
<g id="graph0" class="graph" transform="scale(1 1) rotate(0) translate(36 953.96)">
<title>AmbushPositioning</title>
<polygon fill="#1a1a2e" stroke="none" points="-36,36 -36,-953.96 641.8,-953.96 641.8,36 -36,36"/>
<text xml:space="preserve" text-anchor="middle" x="302.9" y="-898.76" font-family="Helvetica,sans-Serif" font-size="16.00" fill="white">Jump Point Ambush Positioning</text>
<g id="clust1" class="cluster">
<title>cluster_sequence</title>
<polygon fill="#1a1a2e" stroke="#4ecdc4" stroke-dasharray="5,2" points="387.8,-125.25 387.8,-448.75 572.8,-448.75 572.8,-125.25 387.8,-125.25"/>
<text xml:space="preserve" text-anchor="middle" x="480.3" y="-429.55" font-family="Helvetica,sans-Serif" font-size="16.00" fill="#888888">Engagement Sequence</text>
</g>
<!-- jp -->
<g id="node1" class="node">
<title>jp</title>
<ellipse fill="#1a1a2e" stroke="#ffe66d" stroke-width="3" cx="215.8" cy="-682.91" rx="64.8" ry="64.8"/>
<text xml:space="preserve" text-anchor="start" x="185.05" y="-687.91" font-family="Helvetica,sans-Serif" font-weight="bold" font-size="10.00" fill="#ffe66d">JUMP POINT</text>
<text xml:space="preserve" text-anchor="start" x="176.8" y="-670.61" font-family="Helvetica,sans-Serif" font-size="9.00" fill="#888888">Transit arrival zone</text>
</g>
<!-- thermal_zone -->
<g id="node4" class="node">
<title>thermal_zone</title>
<ellipse fill="#1a1a2e" stroke="#ffe66d" stroke-dasharray="5,2" cx="198.8" cy="-528.43" rx="126" ry="52.68"/>
<text xml:space="preserve" text-anchor="start" x="141.05" y="-549.18" font-family="Helvetica,sans-Serif" font-weight="bold" font-size="10.00" fill="#ffe66d">IDLE THERMAL RANGE</text>
<text xml:space="preserve" text-anchor="start" x="133.55" y="-531.88" font-family="Helvetica,sans-Serif" font-size="9.00" fill="#888888">Extremely short detection radius</text>
<text xml:space="preserve" text-anchor="start" x="136.55" y="-516.13" font-family="Helvetica,sans-Serif" font-size="9.00" fill="#888888">Example: 6,000t ship (120 HS)</text>
<text xml:space="preserve" text-anchor="start" x="138.05" y="-500.38" font-family="Helvetica,sans-Serif" font-size="9.00" fill="#888888">Idle signature = 6 (120 x 0.05)</text>
</g>
<!-- jp&#45;&gt;thermal_zone -->
<g id="edge6" class="edge">
<title>jp&#45;&gt;thermal_zone</title>
<path fill="none" stroke="#ffe66d" stroke-dasharray="1,5" d="M208.59,-617.24C207.25,-605.23 205.87,-592.83 204.58,-581.26"/>
</g>
<!-- active_zone -->
<g id="node5" class="node">
<title>active_zone</title>
<ellipse fill="#1a1a2e" stroke="#ff6b6b" stroke-dasharray="5,2" cx="479.8" cy="-528.43" rx="126" ry="52.68"/>
<text xml:space="preserve" text-anchor="start" x="418.3" y="-549.18" font-family="Helvetica,sans-Serif" font-weight="bold" font-size="10.00" fill="#ff6b6b">ACTIVE SENSOR RANGE</text>
<text xml:space="preserve" text-anchor="start" x="426.55" y="-531.88" font-family="Helvetica,sans-Serif" font-size="9.00" fill="#888888">Only way to reliably detect</text>
<text xml:space="preserve" text-anchor="start" x="411.55" y="-516.13" font-family="Helvetica,sans-Serif" font-size="9.00" fill="#888888">ambush fleet at meaningful range</text>
<text xml:space="preserve" text-anchor="start" x="407.05" y="-500.38" font-family="Helvetica,sans-Serif" font-size="9.00" fill="#888888">(but sensors disabled during shock)</text>
</g>
<!-- jp&#45;&gt;active_zone -->
<g id="edge7" class="edge">
<title>jp&#45;&gt;active_zone</title>
<path fill="none" stroke="#ff6b6b" stroke-dasharray="1,5" d="M272.76,-649.01C312.02,-626.34 364.54,-596 406.86,-571.56"/>
</g>
<!-- ambush -->
<g id="node2" class="node">
<title>ambush</title>
<polygon fill="#2d2d44" stroke="#95d5b2" stroke-width="2" points="201.6,-885.58 0,-885.58 0,-811.08 201.6,-811.08 201.6,-885.58"/>
<text xml:space="preserve" text-anchor="start" x="61.05" y="-869.08" font-family="Helvetica,sans-Serif" font-weight="bold" font-size="10.00" fill="#95d5b2">AMBUSH FLEET</text>
<text xml:space="preserve" text-anchor="start" x="45.3" y="-851.78" font-family="Helvetica,sans-Serif" font-size="9.00" fill="#888888">Full EMCON, no movement</text>
<text xml:space="preserve" text-anchor="start" x="46.05" y="-836.03" font-family="Helvetica,sans-Serif" font-size="9.00" fill="#888888">Thermal: 5% HS (idle only)</text>
<text xml:space="preserve" text-anchor="start" x="58.05" y="-820.28" font-family="Helvetica,sans-Serif" font-size="9.00" fill="#888888">EM: 0 (no emissions)</text>
</g>
<!-- ambush&#45;&gt;jp -->
<g id="edge4" class="edge">
<title>ambush&#45;&gt;jp</title>
<path fill="none" stroke="#95d5b2" d="M126.9,-810.25C140.65,-790.71 157.86,-766.25 173.46,-744.07"/>
<polygon fill="#95d5b2" stroke="#95d5b2" points="175.35,-745.64 177.38,-738.51 171.35,-742.82 175.35,-745.64"/>
<text xml:space="preserve" text-anchor="middle" x="176.23" y="-776.66" font-family="Helvetica,sans-Serif" font-size="9.00" fill="#888888">positioned</text>
<text xml:space="preserve" text-anchor="middle" x="176.23" y="-766.91" font-family="Helvetica,sans-Serif" font-size="9.00" fill="#888888">near</text>
</g>
<!-- enemy -->
<g id="node3" class="node">
<title>enemy</title>
<polygon fill="#2d2d44" stroke="#ff6b6b" stroke-width="2" points="432.6,-893.46 231,-893.46 231,-803.21 432.6,-803.21 432.6,-893.46"/>
<text xml:space="preserve" text-anchor="start" x="290.18" y="-876.96" font-family="Helvetica,sans-Serif" font-weight="bold" font-size="10.00" fill="#ff6b6b">ENEMY TRANSIT</text>
<text xml:space="preserve" text-anchor="start" x="290.18" y="-859.66" font-family="Helvetica,sans-Serif" font-size="9.00" fill="#888888">Arrives at jump point</text>
<text xml:space="preserve" text-anchor="start" x="270.3" y="-843.91" font-family="Helvetica,sans-Serif" font-size="9.00" fill="#888888">Jump shock: sensors disabled</text>
<text xml:space="preserve" text-anchor="start" x="285.3" y="-828.16" font-family="Helvetica,sans-Serif" font-size="9.00" fill="#888888">Standard: 121&#45;180 sec</text>
<text xml:space="preserve" text-anchor="start" x="289.8" y="-812.41" font-family="Helvetica,sans-Serif" font-size="9.00" fill="#888888">Squadron: 11&#45;30 sec</text>
</g>
<!-- enemy&#45;&gt;jp -->
<g id="edge5" class="edge">
<title>enemy&#45;&gt;jp</title>
<path fill="none" stroke="#ff6b6b" d="M299.8,-802.24C287.02,-784.24 272.12,-763.25 258.45,-743.99"/>
<polygon fill="#ff6b6b" stroke="#ff6b6b" points="260.59,-742.78 254.54,-738.49 256.6,-745.62 260.59,-742.78"/>
<text xml:space="preserve" text-anchor="middle" x="303.35" y="-776.66" font-family="Helvetica,sans-Serif" font-size="9.00" fill="#888888">transits</text>
<text xml:space="preserve" text-anchor="middle" x="303.35" y="-766.91" font-family="Helvetica,sans-Serif" font-size="9.00" fill="#888888">through</text>
</g>
<!-- seq1 -->
<g id="node6" class="node">
<title>seq1</title>
<polygon fill="#2d2d44" stroke="#4ecdc4" points="559,-416.25 400.6,-416.25 400.6,-373.25 559,-373.25 559,-416.25"/>
<text xml:space="preserve" text-anchor="start" x="437.8" y="-399.75" font-family="Helvetica,sans-Serif" font-weight="bold" font-size="10.00" fill="white">1. Enemy Transits</text>
<text xml:space="preserve" text-anchor="start" x="426.55" y="-382.45" font-family="Helvetica,sans-Serif" font-size="9.00" fill="#888888">Arrives at JP, enters shock</text>
</g>
<!-- active_zone&#45;&gt;seq1 -->
<!-- seq2 -->
<g id="node7" class="node">
<title>seq2</title>
<polygon fill="#2d2d44" stroke="#4ecdc4" points="559,-336.25 400.6,-336.25 400.6,-293.25 559,-293.25 559,-336.25"/>
<text xml:space="preserve" text-anchor="start" x="432.93" y="-319.75" font-family="Helvetica,sans-Serif" font-weight="bold" font-size="10.00" fill="white">2. Ambush Activates</text>
<text xml:space="preserve" text-anchor="start" x="420.18" y="-302.45" font-family="Helvetica,sans-Serif" font-size="9.00" fill="#888888">Sensors + weapons powered</text>
</g>
<!-- seq1&#45;&gt;seq2 -->
<g id="edge1" class="edge">
<title>seq1&#45;&gt;seq2</title>
<path fill="none" stroke="#4ecdc4" d="M479.8,-372.85C479.8,-364.37 479.8,-354.42 479.8,-345.22"/>
<polygon fill="#4ecdc4" stroke="#4ecdc4" points="482.25,-345.22 479.8,-338.22 477.35,-345.22 482.25,-345.22"/>
</g>
<!-- seq3 -->
<g id="node8" class="node">
<title>seq3</title>
<polygon fill="#2d2d44" stroke="#4ecdc4" points="559,-256.25 400.6,-256.25 400.6,-213.25 559,-213.25 559,-256.25"/>
<text xml:space="preserve" text-anchor="start" x="436.3" y="-239.75" font-family="Helvetica,sans-Serif" font-weight="bold" font-size="10.00" fill="white">3. Point&#45;Blank Fire</text>
<text xml:space="preserve" text-anchor="start" x="420.18" y="-222.45" font-family="Helvetica,sans-Serif" font-size="9.00" fill="#888888">Enemy blind, cannot respond</text>
</g>
<!-- seq2&#45;&gt;seq3 -->
<g id="edge2" class="edge">
<title>seq2&#45;&gt;seq3</title>
<path fill="none" stroke="#4ecdc4" d="M479.8,-292.85C479.8,-284.37 479.8,-274.42 479.8,-265.22"/>
<polygon fill="#4ecdc4" stroke="#4ecdc4" points="482.25,-265.22 479.8,-258.22 477.35,-265.22 482.25,-265.22"/>
</g>
<!-- seq4 -->
<g id="node9" class="node">
<title>seq4</title>
<polygon fill="#2d2d44" stroke="#4ecdc4" points="559,-176.25 400.6,-176.25 400.6,-133.25 559,-133.25 559,-176.25"/>
<text xml:space="preserve" text-anchor="start" x="439.3" y="-159.75" font-family="Helvetica,sans-Serif" font-weight="bold" font-size="10.00" fill="white">4. Cannot Retreat</text>
<text xml:space="preserve" text-anchor="start" x="420.55" y="-142.45" font-family="Helvetica,sans-Serif" font-size="9.00" fill="#888888">Jump shock prevents escape</text>
</g>
<!-- seq3&#45;&gt;seq4 -->
<g id="edge3" class="edge">
<title>seq3&#45;&gt;seq4</title>
<path fill="none" stroke="#4ecdc4" d="M479.8,-212.85C479.8,-204.37 479.8,-194.42 479.8,-185.22"/>
<polygon fill="#4ecdc4" stroke="#4ecdc4" points="482.25,-185.22 479.8,-178.22 477.35,-185.22 482.25,-185.22"/>
</g>
<!-- tactics -->
<g id="node10" class="node">
<title>tactics</title>
<polygon fill="#2d2d44" stroke="#4ecdc4" points="581.8,-96.25 371.8,-96.25 371.8,0 587.8,0 587.8,-90.25 581.8,-96.25"/>
<polyline fill="none" stroke="#4ecdc4" points="581.8,-96.25 581.8,-90.25"/>
<polyline fill="none" stroke="#4ecdc4" points="587.8,-90.25 581.8,-90.25"/>
<text xml:space="preserve" text-anchor="start" x="433.68" y="-78.75" font-family="Helvetica,sans-Serif" font-weight="bold" font-size="10.00" fill="#4ecdc4">Tactical Advantages</text>
<text xml:space="preserve" text-anchor="start" x="401.05" y="-60.45" font-family="Helvetica,sans-Serif" font-size="9.00" fill="#888888">* Nearly undetectable before transit</text>
<text xml:space="preserve" text-anchor="start" x="401.05" y="-43.7" font-family="Helvetica,sans-Serif" font-size="9.00" fill="#888888">* Enemy sensors disabled on arrival</text>
<text xml:space="preserve" text-anchor="start" x="401.05" y="-26.95" font-family="Helvetica,sans-Serif" font-size="9.00" fill="#888888">* Enemy cannot retreat immediately</text>
<text xml:space="preserve" text-anchor="start" x="401.05" y="-10.2" font-family="Helvetica,sans-Serif" font-size="9.00" fill="#888888">* One of the strongest tactical positions</text>
</g>
<!-- seq4&#45;&gt;tactics -->
</g>
</svg>
