<?xml version="1.0" encoding="UTF-8" standalone="no"?>
<!DOCTYPE svg PUBLIC "-//W3C//DTD SVG 1.1//EN"
 "http://www.w3.org/Graphics/SVG/1.1/DTD/svg11.dtd">
<!-- Generated by graphviz version 14.1.2 (20260124.0452)
 -->
<!-- Title: HabitableZones Pages: 1 -->
<svg width="1855pt" height="333pt"
 viewBox="0.00 0.00 1855.00 333.00" xmlns="http://www.w3.org/2000/svg" xmlns:xlink="http://www.w3.org/1999/xlink">
<g id="graph0" class="graph" transform="scale(1 1) rotate(0) translate(4 329)">
<title>HabitableZones</title>
<polygon fill="#1a1a2e" stroke="none" points="-4,4 -4,-329 1850.76,-329 1850.76,4 -4,4"/>
<!-- title -->
<g id="node1" class="node">
<title>title</title>
<path fill="none" stroke="none" stroke-width="2" d="M283.75,-68C283.75,-68 12,-68 12,-68 6,-68 0,-62 0,-56 0,-56 0,-44 0,-44 0,-38 6,-32 12,-32 12,-32 283.75,-32 283.75,-32 289.75,-32 295.75,-38 295.75,-44 295.75,-44 295.75,-56 295.75,-56 295.75,-62 289.75,-68 283.75,-68"/>
<text xml:space="preserve" text-anchor="middle" x="147.88" y="-43.05" font-family="Helvetica,sans-Serif" font-size="16.00" fill="#4ecdc4">Habitable Zone Distances by Star Type</text>
</g>
<!-- O -->
<g id="node2" class="node">
<title>O</title>
<path fill="#4444ff" stroke="#4ecdc4" stroke-width="2" d="M182.5,-228C182.5,-228 113.25,-228 113.25,-228 107.25,-228 101.25,-222 101.25,-216 101.25,-216 101.25,-196 101.25,-196 101.25,-190 107.25,-184 113.25,-184 113.25,-184 182.5,-184 182.5,-184 188.5,-184 194.5,-190 194.5,-196 194.5,-196 194.5,-216 194.5,-216 194.5,-222 188.5,-228 182.5,-228"/>
<text xml:space="preserve" text-anchor="middle" x="147.88" y="-213.55" font-family="Helvetica,sans-Serif" font-size="11.00" fill="white">O&#45;type</text>
<text xml:space="preserve" text-anchor="middle" x="147.88" y="-201.55" font-family="Helvetica,sans-Serif" font-size="11.00" fill="white">30,000&#45;50,000K</text>
<text xml:space="preserve" text-anchor="middle" x="147.88" y="-189.55" font-family="Helvetica,sans-Serif" font-size="11.00" fill="white">Blue</text>
</g>
<!-- B -->
<g id="node3" class="node">
<title>B</title>
<path fill="#6666ff" stroke="#4ecdc4" stroke-width="2" d="M487.19,-218C487.19,-218 417.94,-218 417.94,-218 411.94,-218 405.94,-212 405.94,-206 405.94,-206 405.94,-186 405.94,-186 405.94,-180 411.94,-174 417.94,-174 417.94,-174 487.19,-174 487.19,-174 493.19,-174 499.19,-180 499.19,-186 499.19,-186 499.19,-206 499.19,-206 499.19,-212 493.19,-218 487.19,-218"/>
<text xml:space="preserve" text-anchor="middle" x="452.57" y="-203.55" font-family="Helvetica,sans-Serif" font-size="11.00" fill="white">B&#45;type</text>
<text xml:space="preserve" text-anchor="middle" x="452.57" y="-191.55" font-family="Helvetica,sans-Serif" font-size="11.00" fill="white">11,000&#45;28,000K</text>
<text xml:space="preserve" text-anchor="middle" x="452.57" y="-179.55" font-family="Helvetica,sans-Serif" font-size="11.00" fill="white">Blue&#45;white</text>
</g>
<!-- O&#45;&gt;B -->
<!-- HZ_O -->
<g id="node9" class="node">
<title>HZ_O</title>
<ellipse fill="#95d5b2" stroke="#4ecdc4" stroke-width="2" cx="452.57" cy="-263" rx="98.82" ry="22.63"/>
<text xml:space="preserve" text-anchor="middle" x="452.57" y="-264.55" font-family="Helvetica,sans-Serif" font-size="11.00" fill="#1a1a2e">~50&#45;100 AU</text>
<text xml:space="preserve" text-anchor="middle" x="452.57" y="-252.55" font-family="Helvetica,sans-Serif" font-size="11.00" fill="#1a1a2e">Very distant, rare systems</text>
</g>
<!-- O&#45;&gt;HZ_O -->
<g id="edge1" class="edge">
<title>O&#45;&gt;HZ_O</title>
<path fill="none" stroke="#4ecdc4" stroke-width="2" d="M195.18,-214.72C239.37,-223.04 307.13,-235.8 361.89,-246.11"/>
<polygon fill="#4ecdc4" stroke="#4ecdc4" stroke-width="2" points="371.69,-247.96 361.03,-250.53 369.08,-247.97 361.77,-246.6 361.86,-246.11 361.95,-245.62 369.26,-246.99 362.69,-241.68 371.69,-247.96"/>
</g>
<!-- A -->
<g id="node4" class="node">
<title>A</title>
<path fill="#aaaaff" stroke="#4ecdc4" stroke-width="2" d="M727.63,-199C727.63,-199 664.38,-199 664.38,-199 658.38,-199 652.38,-193 652.38,-187 652.38,-187 652.38,-167 652.38,-167 652.38,-161 658.38,-155 664.38,-155 664.38,-155 727.63,-155 727.63,-155 733.63,-155 739.63,-161 739.63,-167 739.63,-167 739.63,-187 739.63,-187 739.63,-193 733.63,-199 727.63,-199"/>
<text xml:space="preserve" text-anchor="middle" x="696.01" y="-184.55" font-family="Helvetica,sans-Serif" font-size="11.00" fill="#1a1a2e">A&#45;type</text>
<text xml:space="preserve" text-anchor="middle" x="696.01" y="-172.55" font-family="Helvetica,sans-Serif" font-size="11.00" fill="#1a1a2e">7,750&#45;10,000K</text>
<text xml:space="preserve" text-anchor="middle" x="696.01" y="-160.55" font-family="Helvetica,sans-Serif" font-size="11.00" fill="#1a1a2e">White</text>
</g>
<!-- B&#45;&gt;A -->
<!-- HZ_B -->
<g id="node10" class="node">
<title>HZ_B</title>
<ellipse fill="#95d5b2" stroke="#4ecdc4" stroke-width="2" cx="696.01" cy="-244" rx="86.62" ry="22.63"/>
<text xml:space="preserve" text-anchor="middle" x="696.01" y="-245.55" font-family="Helvetica,sans-Serif" font-size="11.00" fill="#1a1a2e">~10&#45;50 AU</text>
<text xml:space="preserve" text-anchor="middle" x="696.01" y="-233.55" font-family="Helvetica,sans-Serif" font-size="11.00" fill="#1a1a2e">Distant habitable zone</text>
</g>
<!-- B&#45;&gt;HZ_B -->
<g id="edge2" class="edge">
<title>B&#45;&gt;HZ_B</title>
<path fill="none" stroke="#4ecdc4" stroke-width="2" d="M500.12,-205.25C532.14,-211.62 575.54,-220.25 613.25,-227.75"/>
<polygon fill="#4ecdc4" stroke="#4ecdc4" stroke-width="2" points="622.88,-229.66 612.2,-232.12 620.27,-229.65 612.98,-228.2 613.08,-227.71 613.17,-227.22 620.47,-228.67 613.95,-223.3 622.88,-229.66"/>
</g>
<!-- F -->
<g id="node5" class="node">
<title>F</title>
<path fill="#ffffaa" stroke="#4ecdc4" stroke-width="2" d="M958.52,-199C958.52,-199 901.27,-199 901.27,-199 895.27,-199 889.27,-193 889.27,-187 889.27,-187 889.27,-167 889.27,-167 889.27,-161 895.27,-155 901.27,-155 901.27,-155 958.52,-155 958.52,-155 964.52,-155 970.52,-161 970.52,-167 970.52,-167 970.52,-187 970.52,-187 970.52,-193 964.52,-199 958.52,-199"/>
<text xml:space="preserve" text-anchor="middle" x="929.9" y="-184.55" font-family="Helvetica,sans-Serif" font-size="11.00" fill="#1a1a2e">F&#45;type</text>
<text xml:space="preserve" text-anchor="middle" x="929.9" y="-172.55" font-family="Helvetica,sans-Serif" font-size="11.00" fill="#1a1a2e">6,150&#45;7,500K</text>
<text xml:space="preserve" text-anchor="middle" x="929.9" y="-160.55" font-family="Helvetica,sans-Serif" font-size="11.00" fill="#1a1a2e">Yellow&#45;white</text>
</g>
<!-- A&#45;&gt;F -->
<!-- HZ_A -->
<g id="node11" class="node">
<title>HZ_A</title>
<ellipse fill="#95d5b2" stroke="#4ecdc4" stroke-width="2" cx="929.9" cy="-244" rx="89.27" ry="22.63"/>
<text xml:space="preserve" text-anchor="middle" x="929.9" y="-245.55" font-family="Helvetica,sans-Serif" font-size="11.00" fill="#1a1a2e">~2&#45;5 AU</text>
<text xml:space="preserve" text-anchor="middle" x="929.9" y="-233.55" font-family="Helvetica,sans-Serif" font-size="11.00" fill="#1a1a2e">Outer system habitable</text>
</g>
<!-- A&#45;&gt;HZ_A -->
<g id="edge3" class="edge">
<title>A&#45;&gt;HZ_A</title>
<path fill="none" stroke="#4ecdc4" stroke-width="2" d="M740.62,-189.6C773.44,-199.08 819.13,-212.28 857.28,-223.31"/>
<polygon fill="#4ecdc4" stroke="#4ecdc4" stroke-width="2" points="866.51,-225.97 855.65,-227.52 863.91,-225.74 856.76,-223.68 856.9,-223.2 857.04,-222.72 864.19,-224.78 858.15,-218.88 866.51,-225.97"/>
</g>
<!-- G -->
<g id="node6" class="node">
<title>G</title>
<path fill="#ffff00" stroke="#4ecdc4" stroke-width="2" d="M1206.21,-199C1206.21,-199 1148.96,-199 1148.96,-199 1142.96,-199 1136.96,-193 1136.96,-187 1136.96,-187 1136.96,-167 1136.96,-167 1136.96,-161 1142.96,-155 1148.96,-155 1148.96,-155 1206.21,-155 1206.21,-155 1212.21,-155 1218.21,-161 1218.21,-167 1218.21,-167 1218.21,-187 1218.21,-187 1218.21,-193 1212.21,-199 1206.21,-199"/>
<text xml:space="preserve" text-anchor="middle" x="1177.58" y="-184.55" font-family="Helvetica,sans-Serif" font-size="11.00" fill="#1a1a2e">G&#45;type (Sol)</text>
<text xml:space="preserve" text-anchor="middle" x="1177.58" y="-172.55" font-family="Helvetica,sans-Serif" font-size="11.00" fill="#1a1a2e">5,100&#45;6,000K</text>
<text xml:space="preserve" text-anchor="middle" x="1177.58" y="-160.55" font-family="Helvetica,sans-Serif" font-size="11.00" fill="#1a1a2e">Yellow</text>
</g>
<!-- F&#45;&gt;G -->
<!-- HZ_F -->
<g id="node12" class="node">
<title>HZ_F</title>
<ellipse fill="#95d5b2" stroke="#4ecdc4" stroke-width="2" cx="1177.58" cy="-244" rx="100.41" ry="22.63"/>
<text xml:space="preserve" text-anchor="middle" x="1177.58" y="-245.55" font-family="Helvetica,sans-Serif" font-size="11.00" fill="#1a1a2e">~1&#45;2 AU</text>
<text xml:space="preserve" text-anchor="middle" x="1177.58" y="-233.55" font-family="Helvetica,sans-Serif" font-size="11.00" fill="#1a1a2e">Slightly beyond Earth orbit</text>
</g>
<!-- F&#45;&gt;HZ_F -->
<g id="edge4" class="edge">
<title>F&#45;&gt;HZ_F</title>
<path fill="none" stroke="#4ecdc4" stroke-width="2" d="M971.47,-188.06C1006.23,-197.54 1057.25,-211.46 1099.71,-223.04"/>
<polygon fill="#4ecdc4" stroke="#4ecdc4" stroke-width="2" points="1109.08,-225.59 1098.25,-227.3 1106.48,-225.4 1099.3,-223.44 1099.43,-222.96 1099.57,-222.48 1106.74,-224.44 1100.62,-218.62 1109.08,-225.59"/>
</g>
<!-- K -->
<g id="node7" class="node">
<title>K</title>
<path fill="#ff9944" stroke="#4ecdc4" stroke-width="2" d="M1438.51,-148C1438.51,-148 1381.26,-148 1381.26,-148 1375.26,-148 1369.26,-142 1369.26,-136 1369.26,-136 1369.26,-116 1369.26,-116 1369.26,-110 1375.26,-104 1381.26,-104 1381.26,-104 1438.51,-104 1438.51,-104 1444.51,-104 1450.51,-110 1450.51,-116 1450.51,-116 1450.51,-136 1450.51,-136 1450.51,-142 1444.51,-148 1438.51,-148"/>
<text xml:space="preserve" text-anchor="middle" x="1409.88" y="-133.55" font-family="Helvetica,sans-Serif" font-size="11.00" fill="#1a1a2e">K&#45;type</text>
<text xml:space="preserve" text-anchor="middle" x="1409.88" y="-121.55" font-family="Helvetica,sans-Serif" font-size="11.00" fill="#1a1a2e">3,650&#45;5,000K</text>
<text xml:space="preserve" text-anchor="middle" x="1409.88" y="-109.55" font-family="Helvetica,sans-Serif" font-size="11.00" fill="#1a1a2e">Orange</text>
</g>
<!-- G&#45;&gt;K -->
<!-- HZ_G -->
<g id="node13" class="node">
<title>HZ_G</title>
<ellipse fill="#95d5b2" stroke="#4ecdc4" stroke-width="2" cx="1409.88" cy="-193" rx="73.89" ry="22.63"/>
<text xml:space="preserve" text-anchor="middle" x="1409.88" y="-194.55" font-family="Helvetica,sans-Serif" font-size="11.00" fill="#1a1a2e">~0.8&#45;1.2 AU</text>
<text xml:space="preserve" text-anchor="middle" x="1409.88" y="-182.55" font-family="Helvetica,sans-Serif" font-size="11.00" fill="#1a1a2e">Earth&#45;like distance</text>
</g>
<!-- G&#45;&gt;HZ_G -->
<g id="edge5" class="edge">
<title>G&#45;&gt;HZ_G</title>
<path fill="none" stroke="#4ecdc4" stroke-width="2" d="M1218.96,-179.81C1248.17,-181.83 1288.68,-184.65 1324.79,-187.16"/>
<polygon fill="#4ecdc4" stroke="#4ecdc4" stroke-width="2" points="1334.41,-187.83 1324.13,-191.62 1331.82,-188.15 1324.4,-187.63 1324.44,-187.13 1324.47,-186.63 1331.89,-187.15 1324.75,-182.64 1334.41,-187.83"/>
</g>
<!-- M -->
<g id="node8" class="node">
<title>M</title>
<path fill="#ff4444" stroke="#4ecdc4" stroke-width="2" d="M176.5,-134C176.5,-134 119.25,-134 119.25,-134 113.25,-134 107.25,-128 107.25,-122 107.25,-122 107.25,-102 107.25,-102 107.25,-96 113.25,-90 119.25,-90 119.25,-90 176.5,-90 176.5,-90 182.5,-90 188.5,-96 188.5,-102 188.5,-102 188.5,-122 188.5,-122 188.5,-128 182.5,-134 176.5,-134"/>
<text xml:space="preserve" text-anchor="middle" x="147.88" y="-119.55" font-family="Helvetica,sans-Serif" font-size="11.00" fill="white">M&#45;type</text>
<text xml:space="preserve" text-anchor="middle" x="147.88" y="-107.55" font-family="Helvetica,sans-Serif" font-size="11.00" fill="white">2,300&#45;3,920K</text>
<text xml:space="preserve" text-anchor="middle" x="147.88" y="-95.55" font-family="Helvetica,sans-Serif" font-size="11.00" fill="white">Red</text>
</g>
<!-- K&#45;&gt;M -->
<!-- HZ_K -->
<g id="node14" class="node">
<title>HZ_K</title>
<ellipse fill="#95d5b2" stroke="#4ecdc4" stroke-width="2" cx="1613.02" cy="-126" rx="71.24" ry="22.63"/>
<text xml:space="preserve" text-anchor="middle" x="1613.02" y="-127.55" font-family="Helvetica,sans-Serif" font-size="11.00" fill="#1a1a2e">~0.4&#45;0.8 AU</text>
<text xml:space="preserve" text-anchor="middle" x="1613.02" y="-115.55" font-family="Helvetica,sans-Serif" font-size="11.00" fill="#1a1a2e">Closer than Earth</text>
</g>
<!-- K&#45;&gt;HZ_K -->
<g id="edge6" class="edge">
<title>K&#45;&gt;HZ_K</title>
<path fill="none" stroke="#4ecdc4" stroke-width="2" d="M1451.1,-126C1473.37,-126 1501.9,-126 1528.74,-126"/>
<polygon fill="#4ecdc4" stroke="#4ecdc4" stroke-width="2" points="1538.49,-126 1528.49,-130.5 1535.93,-126.5 1528.49,-126.5 1528.49,-126 1528.49,-125.5 1535.93,-125.5 1528.49,-121.5 1538.49,-126"/>
</g>
<!-- HZ_M -->
<g id="node15" class="node">
<title>HZ_M</title>
<ellipse fill="#95d5b2" stroke="#4ecdc4" stroke-width="2" cx="452.57" cy="-64" rx="71.77" ry="22.63"/>
<text xml:space="preserve" text-anchor="middle" x="452.57" y="-65.55" font-family="Helvetica,sans-Serif" font-size="11.00" fill="#1a1a2e">~0.05&#45;0.2 AU</text>
<text xml:space="preserve" text-anchor="middle" x="452.57" y="-53.55" font-family="Helvetica,sans-Serif" font-size="11.00" fill="#1a1a2e">Very close&#45;in orbit</text>
</g>
<!-- M&#45;&gt;HZ_M -->
<g id="edge7" class="edge">
<title>M&#45;&gt;HZ_M</title>
<path fill="none" stroke="#4ecdc4" stroke-width="2" d="M189.38,-105.58C236.68,-98.08 315.96,-85.5 374.98,-76.15"/>
<polygon fill="#4ecdc4" stroke="#4ecdc4" stroke-width="2" points="384.84,-74.58 375.67,-80.59 382.38,-75.48 375.04,-76.64 374.96,-76.15 374.88,-75.65 382.23,-74.49 374.26,-71.7 384.84,-74.58"/>
</g>
<!-- HZ_O&#45;&gt;HZ_B -->
<!-- IMP_O -->
<g id="node16" class="node">
<title>IMP_O</title>
<polygon fill="#ffe66d" stroke="#4ecdc4" stroke-width="2" points="746.01,-325 640.01,-325 640.01,-289 752.01,-289 752.01,-319 746.01,-325"/>
<polyline fill="none" stroke="#4ecdc4" stroke-width="2" points="746.01,-325 746.01,-319"/>
<polyline fill="none" stroke="#4ecdc4" stroke-width="2" points="752.01,-319 746.01,-319"/>
<text xml:space="preserve" text-anchor="middle" x="696.01" y="-308.55" font-family="Helvetica,sans-Serif" font-size="11.00" fill="#1a1a2e">Longest travel times</text>
<text xml:space="preserve" text-anchor="middle" x="696.01" y="-296.55" font-family="Helvetica,sans-Serif" font-size="11.00" fill="#1a1a2e">Fuel&#45;intensive</text>
</g>
<!-- HZ_O&#45;&gt;IMP_O -->
<g id="edge8" class="edge">
<title>HZ_O&#45;&gt;IMP_O</title>
<path fill="none" stroke="#666666" stroke-width="2" stroke-dasharray="5,2" d="M531.96,-277.29C566.93,-283.66 607.33,-291.02 639.17,-296.82"/>
</g>
<!-- HZ_B&#45;&gt;HZ_A -->
<!-- IMP_B -->
<g id="node17" class="node">
<title>IMP_B</title>
<polygon fill="#ffe66d" stroke="#4ecdc4" stroke-width="2" points="974.65,-325 879.15,-325 879.15,-289 980.65,-289 980.65,-319 974.65,-325"/>
<polyline fill="none" stroke="#4ecdc4" stroke-width="2" points="974.65,-325 974.65,-319"/>
<polyline fill="none" stroke="#4ecdc4" stroke-width="2" points="980.65,-319 974.65,-319"/>
<text xml:space="preserve" text-anchor="middle" x="929.9" y="-308.55" font-family="Helvetica,sans-Serif" font-size="11.00" fill="#1a1a2e">Large separation</text>
<text xml:space="preserve" text-anchor="middle" x="929.9" y="-296.55" font-family="Helvetica,sans-Serif" font-size="11.00" fill="#1a1a2e">from inner system</text>
</g>
<!-- HZ_B&#45;&gt;IMP_B -->
<g id="edge9" class="edge">
<title>HZ_B&#45;&gt;IMP_B</title>
<path fill="none" stroke="#666666" stroke-width="2" stroke-dasharray="5,2" d="M757.93,-260.55C795.37,-270.72 842.78,-283.6 878.17,-293.22"/>
</g>
<!-- HZ_A&#45;&gt;HZ_F -->
<!-- IMP_A -->
<g id="node18" class="node">
<title>IMP_A</title>
<polygon fill="#ffe66d" stroke="#4ecdc4" stroke-width="2" points="1229.46,-325 1119.71,-325 1119.71,-289 1235.46,-289 1235.46,-319 1229.46,-325"/>
<polyline fill="none" stroke="#4ecdc4" stroke-width="2" points="1229.46,-325 1229.46,-319"/>
<polyline fill="none" stroke="#4ecdc4" stroke-width="2" points="1235.46,-319 1229.46,-319"/>
<text xml:space="preserve" text-anchor="middle" x="1177.58" y="-308.55" font-family="Helvetica,sans-Serif" font-size="11.00" fill="#1a1a2e">Good balance of</text>
<text xml:space="preserve" text-anchor="middle" x="1177.58" y="-296.55" font-family="Helvetica,sans-Serif" font-size="11.00" fill="#1a1a2e">space and resources</text>
</g>
<!-- HZ_A&#45;&gt;IMP_A -->
<g id="edge10" class="edge">
<title>HZ_A&#45;&gt;IMP_A</title>
<path fill="none" stroke="#666666" stroke-width="2" stroke-dasharray="5,2" d="M994.81,-260.39C1033.2,-270.23 1081.65,-282.66 1118.87,-292.2"/>
</g>
<!-- HZ_F&#45;&gt;HZ_G -->
<!-- IMP_F -->
<g id="node19" class="node">
<title>IMP_F</title>
<polygon fill="#ffe66d" stroke="#4ecdc4" stroke-width="2" points="1447.13,-274 1366.63,-274 1366.63,-238 1453.13,-238 1453.13,-268 1447.13,-274"/>
<polyline fill="none" stroke="#4ecdc4" stroke-width="2" points="1447.13,-274 1447.13,-268"/>
<polyline fill="none" stroke="#4ecdc4" stroke-width="2" points="1453.13,-268 1447.13,-268"/>
<text xml:space="preserve" text-anchor="middle" x="1409.88" y="-257.55" font-family="Helvetica,sans-Serif" font-size="11.00" fill="#1a1a2e">Familiar orbital</text>
<text xml:space="preserve" text-anchor="middle" x="1409.88" y="-245.55" font-family="Helvetica,sans-Serif" font-size="11.00" fill="#1a1a2e">periods</text>
</g>
<!-- HZ_F&#45;&gt;IMP_F -->
<g id="edge11" class="edge">
<title>HZ_F&#45;&gt;IMP_F</title>
<path fill="none" stroke="#666666" stroke-width="2" stroke-dasharray="5,2" d="M1276.58,-249.11C1307.68,-250.73 1340.48,-252.44 1365.65,-253.75"/>
</g>
<!-- HZ_G&#45;&gt;HZ_K -->
<!-- IMP_G -->
<g id="node20" class="node">
<title>IMP_G</title>
<polygon fill="#ffe66d" stroke="#4ecdc4" stroke-width="2" points="1651.02,-211 1569.02,-211 1569.02,-175 1657.02,-175 1657.02,-205 1651.02,-211"/>
<polyline fill="none" stroke="#4ecdc4" stroke-width="2" points="1651.02,-211 1651.02,-205"/>
<polyline fill="none" stroke="#4ecdc4" stroke-width="2" points="1657.02,-205 1651.02,-205"/>
<text xml:space="preserve" text-anchor="middle" x="1613.02" y="-194.55" font-family="Helvetica,sans-Serif" font-size="11.00" fill="#1a1a2e">Most Earth&#45;like</text>
<text xml:space="preserve" text-anchor="middle" x="1613.02" y="-182.55" font-family="Helvetica,sans-Serif" font-size="11.00" fill="#1a1a2e">40% of stars</text>
</g>
<!-- HZ_G&#45;&gt;IMP_G -->
<g id="edge12" class="edge">
<title>HZ_G&#45;&gt;IMP_G</title>
<path fill="none" stroke="#666666" stroke-width="2" stroke-dasharray="5,2" d="M1484.64,-193C1512.66,-193 1543.69,-193 1568.11,-193"/>
</g>
<!-- HZ_K&#45;&gt;HZ_M -->
<!-- IMP_K -->
<g id="node21" class="node">
<title>IMP_K</title>
<polygon fill="#ffe66d" stroke="#4ecdc4" stroke-width="2" points="1840.76,-144 1742.26,-144 1742.26,-108 1846.76,-108 1846.76,-138 1840.76,-144"/>
<polyline fill="none" stroke="#4ecdc4" stroke-width="2" points="1840.76,-144 1840.76,-138"/>
<polyline fill="none" stroke="#4ecdc4" stroke-width="2" points="1846.76,-138 1840.76,-138"/>
<text xml:space="preserve" text-anchor="middle" x="1794.51" y="-127.55" font-family="Helvetica,sans-Serif" font-size="11.00" fill="#1a1a2e">Common star type</text>
<text xml:space="preserve" text-anchor="middle" x="1794.51" y="-115.55" font-family="Helvetica,sans-Serif" font-size="11.00" fill="#1a1a2e">Shorter years</text>
</g>
<!-- HZ_K&#45;&gt;IMP_K -->
<g id="edge13" class="edge">
<title>HZ_K&#45;&gt;IMP_K</title>
<path fill="none" stroke="#666666" stroke-width="2" stroke-dasharray="5,2" d="M1685.21,-126C1704.01,-126 1723.93,-126 1741.5,-126"/>
</g>
<!-- IMP_M -->
<g id="node22" class="node">
<title>IMP_M</title>
<polygon fill="#ffe66d" stroke="#4ecdc4" stroke-width="2" points="749.76,-36 636.26,-36 636.26,0 755.76,0 755.76,-30 749.76,-36"/>
<polyline fill="none" stroke="#4ecdc4" stroke-width="2" points="749.76,-36 749.76,-30"/>
<polyline fill="none" stroke="#4ecdc4" stroke-width="2" points="755.76,-30 749.76,-30"/>
<text xml:space="preserve" text-anchor="middle" x="696.01" y="-19.55" font-family="Helvetica,sans-Serif" font-size="11.00" fill="#1a1a2e">Very short years</text>
<text xml:space="preserve" text-anchor="middle" x="696.01" y="-7.55" font-family="Helvetica,sans-Serif" font-size="11.00" fill="#1a1a2e">Tidal locking common</text>
</g>
<!-- HZ_M&#45;&gt;IMP_M -->
<g id="edge14" class="edge">
<title>HZ_M&#45;&gt;IMP_M</title>
<path fill="none" stroke="#666666" stroke-width="2" stroke-dasharray="5,2" d="M515.43,-52.21C552.32,-45.19 598.91,-36.31 635.39,-29.36"/>
</g>
<!-- IMP_O&#45;&gt;IMP_B -->
<!-- IMP_B&#45;&gt;IMP_A -->
<!-- IMP_A&#45;&gt;IMP_F -->
<!-- IMP_F&#45;&gt;IMP_G -->
<!-- IMP_G&#45;&gt;IMP_K -->
<!-- IMP_K&#45;&gt;IMP_M -->
</g>
</svg>
