<?xml version="1.0" encoding="UTF-8" standalone="no"?>
<!DOCTYPE svg PUBLIC "-//W3C//DTD SVG 1.1//EN"
 "http://www.w3.org/Graphics/SVG/1.1/DTD/svg11.dtd">
<!-- Generated by graphviz version 14.1.2 (20260124.0452)
 -->
<!-- Title: BinaryConfigurations Pages: 1 -->
<svg width="1220pt" height="710pt"
 viewBox="0.00 0.00 1220.00 710.00" xmlns="http://www.w3.org/2000/svg" xmlns:xlink="http://www.w3.org/1999/xlink">
<g id="graph0" class="graph" transform="scale(1 1) rotate(0) translate(4 706.07)">
<title>BinaryConfigurations</title>
<polygon fill="#1a1a2e" stroke="none" points="-4,4 -4,-706.07 1216,-706.07 1216,4 -4,4"/>
<text xml:space="preserve" text-anchor="middle" x="606" y="-680.97" font-family="Helvetica,sans-Serif" font-size="18.00" fill="#4ecdc4">Binary Star System Configurations</text>
<g id="clust1" class="cluster">
<title>cluster_close</title>
<polygon fill="#252542" stroke="#95d5b2" stroke-width="2" points="8,-234 8,-640.07 316,-640.07 316,-234 8,-234"/>
<text xml:space="preserve" text-anchor="middle" x="162" y="-624.67" font-family="Helvetica,sans-Serif" font-size="12.00" fill="#95d5b2">Close Binary</text>
<text xml:space="preserve" text-anchor="middle" x="162" y="-611.92" font-family="Helvetica,sans-Serif" font-size="12.00" fill="#95d5b2">(&lt; 1 AU separation)</text>
</g>
<g id="clust2" class="cluster">
<title>cluster_intermediate</title>
<polygon fill="#252542" stroke="#ffe66d" stroke-width="2" points="335,-234 335,-641.97 642,-641.97 642,-234 335,-234"/>
<text xml:space="preserve" text-anchor="middle" x="488.5" y="-626.57" font-family="Helvetica,sans-Serif" font-size="12.00" fill="#ffe66d">Intermediate Binary</text>
<text xml:space="preserve" text-anchor="middle" x="488.5" y="-613.82" font-family="Helvetica,sans-Serif" font-size="12.00" fill="#ffe66d">(1&#45;100 AU separation)</text>
</g>
<g id="clust3" class="cluster">
<title>cluster_wide</title>
<polygon fill="#252542" stroke="#ff6b6b" stroke-width="2" points="650,-8 650,-667.32 1032,-667.32 1032,-8 650,-8"/>
<text xml:space="preserve" text-anchor="middle" x="841" y="-651.92" font-family="Helvetica,sans-Serif" font-size="12.00" fill="#ff6b6b">Wide Binary</text>
<text xml:space="preserve" text-anchor="middle" x="841" y="-639.17" font-family="Helvetica,sans-Serif" font-size="12.00" fill="#ff6b6b">(100&#45;18,000+ AU separation)</text>
</g>
<g id="clust4" class="cluster">
<title>cluster_wide_A</title>
<polygon fill="#1a1a2e" stroke="#4ecdc4" stroke-width="2" stroke-dasharray="5,2" points="658,-389.73 658,-625.82 864,-625.82 864,-389.73 658,-389.73"/>
<text xml:space="preserve" text-anchor="middle" x="761" y="-612.32" font-family="Helvetica,sans-Serif" font-size="10.00" fill="#4ecdc4">Sub&#45;system A</text>
</g>
<g id="clust5" class="cluster">
<title>cluster_wide_B</title>
<polygon fill="#1a1a2e" stroke="#4ecdc4" stroke-width="2" stroke-dasharray="5,2" points="827,-16 827,-196.25 959,-196.25 959,-16 827,-16"/>
<text xml:space="preserve" text-anchor="middle" x="893" y="-182.75" font-family="Helvetica,sans-Serif" font-size="10.00" fill="#4ecdc4">Sub&#45;system B</text>
</g>
<g id="clust6" class="cluster">
<title>cluster_legend</title>
<polygon fill="#252542" stroke="#4ecdc4" points="1052,-378.6 1052,-627.82 1204,-627.82 1204,-378.6 1052,-378.6"/>
<text xml:space="preserve" text-anchor="middle" x="1128" y="-613.37" font-family="Helvetica,sans-Serif" font-size="11.00" fill="#4ecdc4">Legend</text>
</g>
<!-- C_star1 -->
<g id="node1" class="node">
<title>C_star1</title>
<ellipse fill="#ffff00" stroke="#4ecdc4" stroke-width="2" cx="38" cy="-576.97" rx="21.6" ry="21.6"/>
<text xml:space="preserve" text-anchor="middle" x="38" y="-573.09" font-family="Helvetica,sans-Serif" font-size="10.00" fill="#1a1a2e">A</text>
</g>
<!-- C_bary -->
<g id="node3" class="node">
<title>C_bary</title>
<ellipse fill="#4ecdc4" stroke="#4ecdc4" stroke-width="2" cx="111" cy="-417.53" rx="3.6" ry="3.6"/>
</g>
<!-- C_star1&#45;&gt;C_bary -->
<g id="edge1" class="edge">
<title>C_star1&#45;&gt;C_bary</title>
<path fill="none" stroke="#4ecdc4" stroke-width="1.5" stroke-dasharray="5,2" d="M45.18,-555.65C52.01,-536.89 62.9,-508.4 74.25,-484.47 86.16,-459.36 103.55,-430.62 109.17,-421.48"/>
<text xml:space="preserve" text-anchor="middle" x="88.12" y="-504.17" font-family="Times,serif" font-size="14.00">close</text>
<text xml:space="preserve" text-anchor="middle" x="88.12" y="-487.67" font-family="Times,serif" font-size="14.00">orbit</text>
</g>
<!-- C_star2 -->
<g id="node2" class="node">
<title>C_star2</title>
<ellipse fill="#ff9944" stroke="#4ecdc4" stroke-width="2" cx="111" cy="-576.97" rx="15.29" ry="15.29"/>
<text xml:space="preserve" text-anchor="middle" x="111" y="-573.09" font-family="Helvetica,sans-Serif" font-size="10.00" fill="#1a1a2e">B</text>
</g>
<!-- C_star2&#45;&gt;C_bary -->
<g id="edge2" class="edge">
<title>C_star2&#45;&gt;C_bary</title>
<path fill="none" stroke="#4ecdc4" stroke-width="1.5" stroke-dasharray="5,2" d="M111,-560.87C111,-525.78 111,-440.29 111,-422.01"/>
</g>
<!-- C_p1 -->
<g id="node4" class="node">
<title>C_p1</title>
<ellipse fill="#2d2d44" stroke="#4ecdc4" stroke-width="2" cx="36" cy="-261.8" rx="19.8" ry="19.8"/>
<text xml:space="preserve" text-anchor="middle" x="36" y="-257.92" font-family="Helvetica,sans-Serif" font-size="10.00" fill="white">P1</text>
</g>
<!-- C_bary&#45;&gt;C_p1 -->
<g id="edge3" class="edge">
<title>C_bary&#45;&gt;C_p1</title>
<path fill="none" stroke="#666666" stroke-width="1.5" stroke-dasharray="1,5" d="M109.43,-413.32C101.17,-396.38 62.33,-316.76 44.72,-280.66"/>
</g>
<!-- C_p2 -->
<g id="node5" class="node">
<title>C_p2</title>
<ellipse fill="#2d2d44" stroke="#4ecdc4" stroke-width="2" cx="112" cy="-261.8" rx="19.8" ry="19.8"/>
<text xml:space="preserve" text-anchor="middle" x="112" y="-257.92" font-family="Helvetica,sans-Serif" font-size="10.00" fill="white">P2</text>
</g>
<!-- C_bary&#45;&gt;C_p2 -->
<g id="edge4" class="edge">
<title>C_bary&#45;&gt;C_p2</title>
<path fill="none" stroke="#666666" stroke-width="1.5" stroke-dasharray="1,5" d="M111.02,-413.03C111.13,-395.78 111.63,-319.15 111.87,-282.48"/>
</g>
<!-- C_p3 -->
<g id="node6" class="node">
<title>C_p3</title>
<ellipse fill="#2d2d44" stroke="#4ecdc4" stroke-width="2" cx="188" cy="-261.8" rx="19.8" ry="19.8"/>
<text xml:space="preserve" text-anchor="middle" x="188" y="-257.92" font-family="Helvetica,sans-Serif" font-size="10.00" fill="white">P3</text>
</g>
<!-- C_bary&#45;&gt;C_p3 -->
<g id="edge5" class="edge">
<title>C_bary&#45;&gt;C_p3</title>
<path fill="none" stroke="#666666" stroke-width="1.5" stroke-dasharray="1,5" d="M112.61,-413.32C121.12,-396.33 161.18,-316.35 179.19,-280.39"/>
</g>
<!-- C_note -->
<g id="node7" class="node">
<title>C_note</title>
<polygon fill="#ffe66d" stroke="#4ecdc4" stroke-width="2" points="301.5,-595.59 162.5,-595.59 162.5,-558.34 307.5,-558.34 307.5,-589.59 301.5,-595.59"/>
<polyline fill="none" stroke="#4ecdc4" stroke-width="2" points="301.5,-595.59 301.5,-589.59"/>
<polyline fill="none" stroke="#4ecdc4" stroke-width="2" points="307.5,-589.59 301.5,-589.59"/>
<text xml:space="preserve" text-anchor="middle" x="235" y="-583.04" font-family="Helvetica,sans-Serif" font-size="9.00" fill="#1a1a2e">Planets orbit both stars</text>
<text xml:space="preserve" text-anchor="middle" x="235" y="-573.29" font-family="Helvetica,sans-Serif" font-size="9.00" fill="#1a1a2e">Acts like single star system</text>
<text xml:space="preserve" text-anchor="middle" x="235" y="-563.54" font-family="Helvetica,sans-Serif" font-size="9.00" fill="#1a1a2e">Combined luminosity affects HZ</text>
</g>
<!-- I_star1 -->
<g id="node8" class="node">
<title>I_star1</title>
<ellipse fill="#ffff00" stroke="#4ecdc4" stroke-width="2" cx="365" cy="-576.97" rx="21.6" ry="21.6"/>
<text xml:space="preserve" text-anchor="middle" x="365" y="-573.09" font-family="Helvetica,sans-Serif" font-size="10.00" fill="#1a1a2e">A</text>
</g>
<!-- I_star2 -->
<g id="node9" class="node">
<title>I_star2</title>
<ellipse fill="#ff6666" stroke="#4ecdc4" stroke-width="2" cx="369" cy="-417.53" rx="16.09" ry="16.09"/>
<text xml:space="preserve" text-anchor="middle" x="369" y="-413.66" font-family="Helvetica,sans-Serif" font-size="10.00" fill="white">B</text>
</g>
<!-- I_star1&#45;&gt;I_star2 -->
<g id="edge9" class="edge">
<title>I_star1&#45;&gt;I_star2</title>
<path fill="none" stroke="#4ecdc4" stroke-width="1.5" stroke-dasharray="5,2" d="M365.55,-554.41C366.36,-522.41 367.87,-463.06 368.59,-434.59"/>
<text xml:space="preserve" text-anchor="middle" x="394.99" y="-504.17" font-family="Times,serif" font-size="14.00">moderate</text>
<text xml:space="preserve" text-anchor="middle" x="394.99" y="-487.67" font-family="Times,serif" font-size="14.00">separation</text>
</g>
<!-- I_p1 -->
<g id="node10" class="node">
<title>I_p1</title>
<ellipse fill="#2d2d44" stroke="#4ecdc4" stroke-width="2" cx="441" cy="-417.53" rx="19.8" ry="19.8"/>
<text xml:space="preserve" text-anchor="middle" x="441" y="-413.66" font-family="Helvetica,sans-Serif" font-size="10.00" fill="white">P1</text>
</g>
<!-- I_star1&#45;&gt;I_p1 -->
<g id="edge6" class="edge">
<title>I_star1&#45;&gt;I_p1</title>
<path fill="none" stroke="#666666" stroke-width="1.5" stroke-dasharray="1,5" d="M383.91,-565.2C399.71,-555.08 421.33,-538.37 432,-517.47 444.86,-492.27 444.93,-458.76 443.33,-437.92"/>
</g>
<!-- I_p2 -->
<g id="node11" class="node">
<title>I_p2</title>
<ellipse fill="#2d2d44" stroke="#4ecdc4" stroke-width="2" cx="517" cy="-417.53" rx="19.8" ry="19.8"/>
<text xml:space="preserve" text-anchor="middle" x="517" y="-413.66" font-family="Helvetica,sans-Serif" font-size="10.00" fill="white">P2</text>
</g>
<!-- I_star1&#45;&gt;I_p2 -->
<g id="edge7" class="edge">
<title>I_star1&#45;&gt;I_p2</title>
<path fill="none" stroke="#666666" stroke-width="1.5" stroke-dasharray="1,5" d="M383.95,-565.01C401.51,-554.29 427.75,-536.8 447,-517.47 472.39,-491.98 495.09,-456.4 507.37,-435.58"/>
</g>
<!-- I_p3 -->
<g id="node12" class="node">
<title>I_p3</title>
<ellipse fill="#2d2d44" stroke="#4ecdc4" stroke-width="2" cx="369" cy="-261.8" rx="19.8" ry="19.8"/>
<text xml:space="preserve" text-anchor="middle" x="369" y="-257.92" font-family="Helvetica,sans-Serif" font-size="10.00" fill="white">P3</text>
</g>
<!-- I_star2&#45;&gt;I_p3 -->
<g id="edge8" class="edge">
<title>I_star2&#45;&gt;I_p3</title>
<path fill="none" stroke="#666666" stroke-width="1.5" stroke-dasharray="1,5" d="M369,-400.66C369,-372.27 369,-312.92 369,-282.18"/>
</g>
<!-- I_p4 -->
<g id="node13" class="node">
<title>I_p4</title>
<ellipse fill="#2d2d44" stroke="#4ecdc4" stroke-width="2" cx="442" cy="-576.97" rx="19.8" ry="19.8"/>
<text xml:space="preserve" text-anchor="middle" x="442" y="-573.09" font-family="Helvetica,sans-Serif" font-size="10.00" fill="white">P4</text>
</g>
<!-- I_note -->
<g id="node14" class="node">
<title>I_note</title>
<polygon fill="#ffe66d" stroke="#4ecdc4" stroke-width="2" points="628,-600.47 498,-600.47 498,-553.47 634,-553.47 634,-594.47 628,-600.47"/>
<polyline fill="none" stroke="#4ecdc4" stroke-width="2" points="628,-600.47 628,-594.47"/>
<polyline fill="none" stroke="#4ecdc4" stroke-width="2" points="634,-594.47 628,-594.47"/>
<text xml:space="preserve" text-anchor="middle" x="566" y="-587.92" font-family="Helvetica,sans-Serif" font-size="9.00" fill="#1a1a2e">Mixed planet orbits possible</text>
<text xml:space="preserve" text-anchor="middle" x="566" y="-578.17" font-family="Helvetica,sans-Serif" font-size="9.00" fill="#1a1a2e">Some planets orbit A, some B</text>
<text xml:space="preserve" text-anchor="middle" x="566" y="-568.42" font-family="Helvetica,sans-Serif" font-size="9.00" fill="#1a1a2e">Circumbinary orbits may exist</text>
<text xml:space="preserve" text-anchor="middle" x="566" y="-558.67" font-family="Helvetica,sans-Serif" font-size="9.00" fill="#1a1a2e">Complex stability zones</text>
</g>
<!-- W_star1 -->
<g id="node15" class="node">
<title>W_star1</title>
<ellipse fill="#ffff00" stroke="#4ecdc4" stroke-width="2" cx="792" cy="-576.97" rx="21.6" ry="21.6"/>
<text xml:space="preserve" text-anchor="middle" x="792" y="-573.09" font-family="Helvetica,sans-Serif" font-size="10.00" fill="#1a1a2e">A</text>
</g>
<!-- W_p1 -->
<g id="node16" class="node">
<title>W_p1</title>
<ellipse fill="#2d2d44" stroke="#4ecdc4" stroke-width="2" cx="686" cy="-417.53" rx="19.8" ry="19.8"/>
<text xml:space="preserve" text-anchor="middle" x="686" y="-413.66" font-family="Helvetica,sans-Serif" font-size="10.00" fill="white">P1</text>
</g>
<!-- W_star1&#45;&gt;W_p1 -->
<g id="edge10" class="edge">
<title>W_star1&#45;&gt;W_p1</title>
<path fill="none" stroke="#666666" stroke-width="1.5" stroke-dasharray="1,5" d="M780.05,-558.21C759.36,-527.49 717.19,-464.86 697.11,-435.03"/>
</g>
<!-- W_p2 -->
<g id="node17" class="node">
<title>W_p2</title>
<ellipse fill="#2d2d44" stroke="#4ecdc4" stroke-width="2" cx="762" cy="-417.53" rx="19.8" ry="19.8"/>
<text xml:space="preserve" text-anchor="middle" x="762" y="-413.66" font-family="Helvetica,sans-Serif" font-size="10.00" fill="white">P2</text>
</g>
<!-- W_star1&#45;&gt;W_p2 -->
<g id="edge11" class="edge">
<title>W_star1&#45;&gt;W_p2</title>
<path fill="none" stroke="#666666" stroke-width="1.5" stroke-dasharray="1,5" d="M787.95,-554.74C782.1,-524.02 771.35,-467.62 765.7,-437.95"/>
</g>
<!-- W_p3 -->
<g id="node18" class="node">
<title>W_p3</title>
<ellipse fill="#2d2d44" stroke="#4ecdc4" stroke-width="2" cx="837" cy="-417.53" rx="18.82" ry="18.82"/>
<text xml:space="preserve" text-anchor="middle" x="837" y="-413.66" font-family="Helvetica,sans-Serif" font-size="10.00" fill="white">P3</text>
</g>
<!-- W_star1&#45;&gt;W_p3 -->
<g id="edge12" class="edge">
<title>W_star1&#45;&gt;W_p3</title>
<path fill="none" stroke="#666666" stroke-width="1.5" stroke-dasharray="1,5" d="M797.88,-555.39C806.79,-524.21 823.56,-465.56 831.95,-436.2"/>
</g>
<!-- W_star2 -->
<g id="node19" class="node">
<title>W_star2</title>
<ellipse fill="#ff9944" stroke="#4ecdc4" stroke-width="2" cx="893" cy="-152.8" rx="16.2" ry="16.2"/>
<text xml:space="preserve" text-anchor="middle" x="893" y="-148.92" font-family="Helvetica,sans-Serif" font-size="10.00" fill="#1a1a2e">B</text>
</g>
<!-- W_star1&#45;&gt;W_star2 -->
<g id="edge15" class="edge">
<title>W_star1&#45;&gt;W_star2</title>
<path fill="none" stroke="#4ecdc4" stroke-width="1.5" stroke-dasharray="5,2" d="M806.45,-559.68C825.81,-536.73 859.44,-492.72 874,-448.47 907.5,-346.7 898.96,-214.7 894.7,-169.66"/>
<text xml:space="preserve" text-anchor="middle" x="924.1" y="-337.3" font-family="Times,serif" font-size="14.00" fill="white">thousands</text>
<text xml:space="preserve" text-anchor="middle" x="924.1" y="-320.8" font-family="Times,serif" font-size="14.00" fill="white">of AU</text>
</g>
<!-- W_p4 -->
<g id="node20" class="node">
<title>W_p4</title>
<ellipse fill="#2d2d44" stroke="#4ecdc4" stroke-width="2" cx="855" cy="-43.8" rx="19.8" ry="19.8"/>
<text xml:space="preserve" text-anchor="middle" x="855" y="-39.92" font-family="Helvetica,sans-Serif" font-size="10.00" fill="white">P4</text>
</g>
<!-- W_star2&#45;&gt;W_p4 -->
<g id="edge13" class="edge">
<title>W_star2&#45;&gt;W_p4</title>
<path fill="none" stroke="#666666" stroke-width="1.5" stroke-dasharray="1,5" d="M887.72,-136.92C880.9,-117.74 869.06,-84.38 861.64,-63.51"/>
</g>
<!-- W_p5 -->
<g id="node21" class="node">
<title>W_p5</title>
<ellipse fill="#2d2d44" stroke="#4ecdc4" stroke-width="2" cx="931" cy="-43.8" rx="19.8" ry="19.8"/>
<text xml:space="preserve" text-anchor="middle" x="931" y="-39.92" font-family="Helvetica,sans-Serif" font-size="10.00" fill="white">P5</text>
</g>
<!-- W_star2&#45;&gt;W_p5 -->
<g id="edge14" class="edge">
<title>W_star2&#45;&gt;W_p5</title>
<path fill="none" stroke="#666666" stroke-width="1.5" stroke-dasharray="1,5" d="M898.28,-136.92C905.1,-117.74 916.94,-84.38 924.36,-63.51"/>
</g>
<!-- W_note -->
<g id="node22" class="node">
<title>W_note</title>
<polygon fill="#ffe66d" stroke="#4ecdc4" stroke-width="2" points="1018.25,-600.47 871.75,-600.47 871.75,-553.47 1024.25,-553.47 1024.25,-594.47 1018.25,-600.47"/>
<polyline fill="none" stroke="#4ecdc4" stroke-width="2" points="1018.25,-600.47 1018.25,-594.47"/>
<polyline fill="none" stroke="#4ecdc4" stroke-width="2" points="1024.25,-594.47 1018.25,-594.47"/>
<text xml:space="preserve" text-anchor="middle" x="948" y="-587.92" font-family="Helvetica,sans-Serif" font-size="9.00" fill="#1a1a2e">Two distinct sub&#45;systems</text>
<text xml:space="preserve" text-anchor="middle" x="948" y="-578.17" font-family="Helvetica,sans-Serif" font-size="9.00" fill="#1a1a2e">Each star has own planets</text>
<text xml:space="preserve" text-anchor="middle" x="948" y="-568.42" font-family="Helvetica,sans-Serif" font-size="9.00" fill="#1a1a2e">Long transit times between</text>
<text xml:space="preserve" text-anchor="middle" x="948" y="-558.67" font-family="Helvetica,sans-Serif" font-size="9.00" fill="#1a1a2e">Multiple habitable zones possible</text>
</g>
<!-- L_star -->
<g id="node23" class="node">
<title>L_star</title>
<ellipse fill="#ffff00" stroke="#4ecdc4" stroke-width="2" cx="1083" cy="-576.97" rx="22.86" ry="22.86"/>
<text xml:space="preserve" text-anchor="middle" x="1083" y="-573.09" font-family="Helvetica,sans-Serif" font-size="10.00" fill="#1a1a2e">Star</text>
</g>
<!-- L_planet -->
<g id="node24" class="node">
<title>L_planet</title>
<ellipse fill="#2d2d44" stroke="#4ecdc4" stroke-width="2" cx="1096" cy="-417.53" rx="30.94" ry="30.94"/>
<text xml:space="preserve" text-anchor="middle" x="1096" y="-413.66" font-family="Helvetica,sans-Serif" font-size="10.00" fill="white">Planet</text>
</g>
<!-- L_star&#45;&gt;L_planet -->
<g id="edge16" class="edge">
<title>L_star&#45;&gt;L_planet</title>
<path fill="none" stroke="#666666" stroke-width="1.5" stroke-dasharray="1,5" d="M1084.86,-553.41C1087.12,-526.03 1090.95,-479.74 1093.47,-449.16"/>
<text xml:space="preserve" text-anchor="middle" x="1130.03" y="-495.92" font-family="Times,serif" font-size="14.00">planetary orbit</text>
</g>
<!-- L_orbit -->
<g id="node25" class="node">
<title>L_orbit</title>
<polygon fill="#4ecdc4" stroke="none" stroke-width="2" points="1196,-594.97 1142,-594.97 1142,-558.97 1196,-558.97 1196,-594.97"/>
</g>
</g>
</svg>
