<?xml version="1.0" encoding="UTF-8" standalone="no"?>
<!DOCTYPE svg PUBLIC "-//W3C//DTD SVG 1.1//EN"
 "http://www.w3.org/Graphics/SVG/1.1/DTD/svg11.dtd">
<!-- Generated by graphviz version 14.1.2 (20260124.0452)
 -->
<!-- Title: ColonyCostFactors Pages: 1 -->
<svg width="1065pt" height="1227pt"
 viewBox="0.00 0.00 1065.00 1227.00" xmlns="http://www.w3.org/2000/svg" xmlns:xlink="http://www.w3.org/1999/xlink">
<g id="graph0" class="graph" transform="scale(1 1) rotate(0) translate(4 1222.75)">
<title>ColonyCostFactors</title>
<polygon fill="#1a1a2e" stroke="none" points="-4,4 -4,-1222.75 1061.26,-1222.75 1061.26,4 -4,4"/>
<text xml:space="preserve" text-anchor="middle" x="528.63" y="-1197.65" font-family="Helvetica,sans-Serif" font-size="18.00" fill="#4ecdc4">Colony Cost Calculation Factors</text>
<g id="clust2" class="cluster">
<title>cluster_impacts</title>
<polygon fill="#252542" stroke="#ffe66d" stroke-width="2" points="152.75,-8 152.75,-1184 329.26,-1184 329.26,-8 152.75,-8"/>
<text xml:space="preserve" text-anchor="middle" x="241.01" y="-1168.6" font-family="Helvetica,sans-Serif" font-size="12.00" fill="#ffe66d">Cost Impact</text>
</g>
<g id="clust3" class="cluster">
<title>cluster_calc</title>
<polygon fill="#252542" stroke="#95d5b2" stroke-width="2" points="385.26,-419 385.26,-542 1049.26,-542 1049.26,-419 385.26,-419"/>
<text xml:space="preserve" text-anchor="middle" x="717.26" y="-526.6" font-family="Helvetica,sans-Serif" font-size="12.00" fill="#95d5b2">Final Calculation</text>
</g>
<!-- F_gas -->
<g id="node1" class="node">
<title>F_gas</title>
<path fill="#2d2d44" stroke="#4ecdc4" stroke-width="2" d="M76.75,-1112C76.75,-1112 12,-1112 12,-1112 6,-1112 0,-1106 0,-1100 0,-1100 0,-1088 0,-1088 0,-1082 6,-1076 12,-1076 12,-1076 76.75,-1076 76.75,-1076 82.75,-1076 88.75,-1082 88.75,-1088 88.75,-1088 88.75,-1100 88.75,-1100 88.75,-1106 82.75,-1112 76.75,-1112"/>
<text xml:space="preserve" text-anchor="middle" x="44.38" y="-1095.75" font-family="Helvetica,sans-Serif" font-size="10.00" fill="white">Breathable Gas</text>
<text xml:space="preserve" text-anchor="middle" x="44.38" y="-1084.5" font-family="Helvetica,sans-Serif" font-size="10.00" fill="white">(O2 for Humans)</text>
</g>
<!-- I_gas_ok -->
<g id="node8" class="node">
<title>I_gas_ok</title>
<ellipse fill="#2d5a2d" stroke="#4ecdc4" stroke-width="2" cx="241.01" cy="-1054" rx="57.45" ry="29.52"/>
<text xml:space="preserve" text-anchor="middle" x="241.01" y="-1061.38" font-family="Helvetica,sans-Serif" font-size="10.00" fill="white">0.1&#45;0.3 atm O2</text>
<text xml:space="preserve" text-anchor="middle" x="241.01" y="-1050.12" font-family="Helvetica,sans-Serif" font-size="10.00" fill="white">&lt;30% relative</text>
<text xml:space="preserve" text-anchor="middle" x="241.01" y="-1038.88" font-family="Helvetica,sans-Serif" font-size="10.00" fill="white">= No penalty</text>
</g>
<!-- F_gas&#45;&gt;I_gas_ok -->
<g id="edge1" class="edge">
<title>F_gas&#45;&gt;I_gas_ok</title>
<path fill="none" stroke="#95d5b2" stroke-width="2" d="M89.49,-1079.76C89.49,-1079.76 197.44,-1079.76 197.44,-1079.76"/>
<polygon fill="#95d5b2" stroke="#95d5b2" stroke-width="2" points="207.44,-1079.76 197.44,-1084.26 204.88,-1080.26 197.44,-1080.26 197.44,-1079.76 197.44,-1079.26 204.88,-1079.26 197.44,-1075.26 207.44,-1079.76"/>
</g>
<!-- I_gas_bad -->
<g id="node9" class="node">
<title>I_gas_bad</title>
<ellipse fill="#5a5a2d" stroke="#4ecdc4" stroke-width="2" cx="241.01" cy="-1134" rx="57.98" ry="21.57"/>
<text xml:space="preserve" text-anchor="middle" x="241.01" y="-1135.75" font-family="Helvetica,sans-Serif" font-size="10.00" fill="white">Non&#45;breathable</text>
<text xml:space="preserve" text-anchor="middle" x="241.01" y="-1124.5" font-family="Helvetica,sans-Serif" font-size="10.00" fill="white">= 2.0x</text>
</g>
<!-- F_gas&#45;&gt;I_gas_bad -->
<g id="edge2" class="edge">
<title>F_gas&#45;&gt;I_gas_bad</title>
<path fill="none" stroke="#ff6b6b" stroke-width="2" d="M44.26,-1112.59C44.26,-1123.04 44.26,-1134 44.26,-1134 44.26,-1134 169.81,-1134 169.81,-1134"/>
<polygon fill="#ff6b6b" stroke="#ff6b6b" stroke-width="2" points="179.81,-1134 169.81,-1138.5 177.24,-1134.5 169.81,-1134.5 169.81,-1134 169.81,-1133.5 177.24,-1133.5 169.81,-1129.5 179.81,-1134"/>
</g>
<!-- F_pressure -->
<g id="node2" class="node">
<title>F_pressure</title>
<path fill="#2d2d44" stroke="#4ecdc4" stroke-width="2" d="M67.75,-956C67.75,-956 21,-956 21,-956 15,-956 9,-950 9,-944 9,-944 9,-932 9,-932 9,-926 15,-920 21,-920 21,-920 67.75,-920 67.75,-920 73.75,-920 79.75,-926 79.75,-932 79.75,-932 79.75,-944 79.75,-944 79.75,-950 73.75,-956 67.75,-956"/>
<text xml:space="preserve" text-anchor="middle" x="44.38" y="-939.75" font-family="Helvetica,sans-Serif" font-size="10.00" fill="white">Atmospheric</text>
<text xml:space="preserve" text-anchor="middle" x="44.38" y="-928.5" font-family="Helvetica,sans-Serif" font-size="10.00" fill="white">Pressure</text>
</g>
<!-- I_press_ok -->
<g id="node10" class="node">
<title>I_press_ok</title>
<ellipse fill="#2d5a2d" stroke="#4ecdc4" stroke-width="2" cx="241.01" cy="-902" rx="57.98" ry="21.57"/>
<text xml:space="preserve" text-anchor="middle" x="241.01" y="-903.75" font-family="Helvetica,sans-Serif" font-size="10.00" fill="white">0.334 &#45; 4.0 atm</text>
<text xml:space="preserve" text-anchor="middle" x="241.01" y="-892.5" font-family="Helvetica,sans-Serif" font-size="10.00" fill="white">= No penalty</text>
</g>
<!-- F_pressure&#45;&gt;I_press_ok -->
<g id="edge3" class="edge">
<title>F_pressure&#45;&gt;I_press_ok</title>
<path fill="none" stroke="#95d5b2" stroke-width="2" d="M74.26,-919.11C74.26,-909.66 74.26,-900.22 74.26,-900.22 74.26,-900.22 169.78,-900.22 169.78,-900.22"/>
<polygon fill="#95d5b2" stroke="#95d5b2" stroke-width="2" points="179.78,-900.22 169.78,-904.72 177.22,-900.72 169.78,-900.72 169.78,-900.22 169.78,-899.72 177.22,-899.72 169.78,-895.72 179.78,-900.22"/>
</g>
<!-- I_press_bad -->
<g id="node11" class="node">
<title>I_press_bad</title>
<ellipse fill="#5a5a2d" stroke="#4ecdc4" stroke-width="2" cx="241.01" cy="-974" rx="80.26" ry="21.57"/>
<text xml:space="preserve" text-anchor="middle" x="241.01" y="-975.75" font-family="Helvetica,sans-Serif" font-size="10.00" fill="white">&gt;4.0 atm</text>
<text xml:space="preserve" text-anchor="middle" x="241.01" y="-964.5" font-family="Helvetica,sans-Serif" font-size="10.00" fill="white">= Press/4.0 (min 2.0x)</text>
</g>
<!-- F_pressure&#45;&gt;I_press_bad -->
<g id="edge4" class="edge">
<title>F_pressure&#45;&gt;I_press_bad</title>
<path fill="none" stroke="#ff6b6b" stroke-width="2" d="M80.62,-938C118.74,-938 173.26,-938 173.26,-938 173.26,-938 173.26,-949.38 173.26,-949.38"/>
<polygon fill="#ff6b6b" stroke="#ff6b6b" stroke-width="2" points="173.26,-959.38 168.76,-949.38 172.76,-956.81 172.76,-949.38 173.26,-949.38 173.76,-949.38 173.76,-956.81 177.76,-949.38 173.26,-959.38"/>
</g>
<!-- F_gravity -->
<g id="node3" class="node">
<title>F_gravity</title>
<path fill="#2d2d44" stroke="#4ecdc4" stroke-width="2" d="M59.38,-776C59.38,-776 29.38,-776 29.38,-776 23.38,-776 17.38,-770 17.38,-764 17.38,-764 17.38,-752 17.38,-752 17.38,-746 23.38,-740 29.38,-740 29.38,-740 59.38,-740 59.38,-740 65.38,-740 71.38,-746 71.38,-752 71.38,-752 71.38,-764 71.38,-764 71.38,-770 65.38,-776 59.38,-776"/>
<text xml:space="preserve" text-anchor="middle" x="44.38" y="-759.75" font-family="Helvetica,sans-Serif" font-size="10.00" fill="white">Surface</text>
<text xml:space="preserve" text-anchor="middle" x="44.38" y="-748.5" font-family="Helvetica,sans-Serif" font-size="10.00" fill="white">Gravity</text>
</g>
<!-- I_grav_ok -->
<g id="node12" class="node">
<title>I_grav_ok</title>
<ellipse fill="#2d5a2d" stroke="#4ecdc4" stroke-width="2" cx="241.01" cy="-686" rx="51.09" ry="21.57"/>
<text xml:space="preserve" text-anchor="middle" x="241.01" y="-687.75" font-family="Helvetica,sans-Serif" font-size="10.00" fill="white">0.1g &#45; 1.9g</text>
<text xml:space="preserve" text-anchor="middle" x="241.01" y="-676.5" font-family="Helvetica,sans-Serif" font-size="10.00" fill="white">= No penalty</text>
</g>
<!-- F_gravity&#45;&gt;I_grav_ok -->
<g id="edge5" class="edge">
<title>F_gravity&#45;&gt;I_grav_ok</title>
<path fill="none" stroke="#95d5b2" stroke-width="2" d="M44.26,-739.08C44.26,-717.75 44.26,-686 44.26,-686 44.26,-686 176.62,-686 176.62,-686"/>
<polygon fill="#95d5b2" stroke="#95d5b2" stroke-width="2" points="186.62,-686 176.62,-690.5 184.06,-686.5 176.62,-686.5 176.62,-686 176.62,-685.5 184.06,-685.5 176.62,-681.5 186.62,-686"/>
</g>
<!-- I_grav_low -->
<g id="node13" class="node">
<title>I_grav_low</title>
<ellipse fill="#5a5a2d" stroke="#4ecdc4" stroke-width="2" cx="241.01" cy="-758" rx="63.82" ry="21.57"/>
<text xml:space="preserve" text-anchor="middle" x="241.01" y="-759.75" font-family="Helvetica,sans-Serif" font-size="10.00" fill="white">&lt;0.1g</text>
<text xml:space="preserve" text-anchor="middle" x="241.01" y="-748.5" font-family="Helvetica,sans-Serif" font-size="10.00" fill="white">= 1.0x + LG infra</text>
</g>
<!-- F_gravity&#45;&gt;I_grav_low -->
<g id="edge6" class="edge">
<title>F_gravity&#45;&gt;I_grav_low</title>
<path fill="none" stroke="#ffe66d" stroke-width="2" d="M72.13,-752C72.13,-752 166.11,-752 166.11,-752"/>
<polygon fill="#ffe66d" stroke="#ffe66d" stroke-width="2" points="176.11,-752 166.11,-756.5 173.55,-752.5 166.11,-752.5 166.11,-752 166.11,-751.5 173.55,-751.5 166.11,-747.5 176.11,-752"/>
</g>
<!-- I_grav_high -->
<g id="node14" class="node">
<title>I_grav_high</title>
<ellipse fill="#5a2d2d" stroke="#4ecdc4" stroke-width="2" cx="241.01" cy="-830" rx="77.6" ry="21.57"/>
<text xml:space="preserve" text-anchor="middle" x="241.01" y="-831.75" font-family="Helvetica,sans-Serif" font-size="10.00" fill="white">&gt;1.9g</text>
<text xml:space="preserve" text-anchor="middle" x="241.01" y="-820.5" font-family="Helvetica,sans-Serif" font-size="10.00" fill="white">= UNCOLONIZABLE</text>
</g>
<!-- F_gravity&#45;&gt;I_grav_high -->
<g id="edge7" class="edge">
<title>F_gravity&#45;&gt;I_grav_high</title>
<path fill="none" stroke="#ff6b6b" stroke-width="2" d="M72.26,-764C108.52,-764 167.26,-764 167.26,-764 167.26,-764 167.26,-809.99 167.26,-809.99"/>
<polygon fill="#ff6b6b" stroke="#ff6b6b" stroke-width="2" points="167.26,-819.99 162.76,-809.99 166.76,-817.43 166.76,-809.99 167.26,-809.99 167.76,-809.99 167.76,-817.43 171.76,-809.99 167.26,-819.99"/>
</g>
<!-- F_temp -->
<g id="node4" class="node">
<title>F_temp</title>
<path fill="#2d2d44" stroke="#4ecdc4" stroke-width="2" d="M67.38,-596C67.38,-596 21.38,-596 21.38,-596 15.38,-596 9.38,-590 9.38,-584 9.38,-584 9.38,-572 9.38,-572 9.38,-566 15.38,-560 21.38,-560 21.38,-560 67.38,-560 67.38,-560 73.38,-560 79.38,-566 79.38,-572 79.38,-572 79.38,-584 79.38,-584 79.38,-590 73.38,-596 67.38,-596"/>
<text xml:space="preserve" text-anchor="middle" x="44.38" y="-579.75" font-family="Helvetica,sans-Serif" font-size="10.00" fill="white">Surface</text>
<text xml:space="preserve" text-anchor="middle" x="44.38" y="-568.5" font-family="Helvetica,sans-Serif" font-size="10.00" fill="white">Temperature</text>
</g>
<!-- I_temp_ok -->
<g id="node15" class="node">
<title>I_temp_ok</title>
<ellipse fill="#2d5a2d" stroke="#4ecdc4" stroke-width="2" cx="241.01" cy="-614" rx="53.21" ry="21.57"/>
<text xml:space="preserve" text-anchor="middle" x="241.01" y="-615.75" font-family="Helvetica,sans-Serif" font-size="10.00" fill="white">&#45;10C to +38C</text>
<text xml:space="preserve" text-anchor="middle" x="241.01" y="-604.5" font-family="Helvetica,sans-Serif" font-size="10.00" fill="white">= No penalty</text>
</g>
<!-- F_temp&#45;&gt;I_temp_ok -->
<g id="edge8" class="edge">
<title>F_temp&#45;&gt;I_temp_ok</title>
<path fill="none" stroke="#95d5b2" stroke-width="2" d="M76.26,-596.89C76.26,-606.34 76.26,-615.78 76.26,-615.78 76.26,-615.78 174.63,-615.78 174.63,-615.78"/>
<polygon fill="#95d5b2" stroke="#95d5b2" stroke-width="2" points="184.63,-615.78 174.63,-620.28 182.06,-616.28 174.63,-616.28 174.63,-615.78 174.63,-615.28 182.06,-615.28 174.63,-611.28 184.63,-615.78"/>
</g>
<!-- I_temp_bad -->
<g id="node16" class="node">
<title>I_temp_bad</title>
<ellipse fill="#5a5a2d" stroke="#4ecdc4" stroke-width="2" cx="241.01" cy="-542" rx="69.12" ry="21.57"/>
<text xml:space="preserve" text-anchor="middle" x="241.01" y="-543.75" font-family="Helvetica,sans-Serif" font-size="10.00" fill="white">Per degree outside</text>
<text xml:space="preserve" text-anchor="middle" x="241.01" y="-532.5" font-family="Helvetica,sans-Serif" font-size="10.00" fill="white">= +1/12 cost</text>
</g>
<!-- F_temp&#45;&gt;I_temp_bad -->
<g id="edge9" class="edge">
<title>F_temp&#45;&gt;I_temp_bad</title>
<path fill="none" stroke="#ff6b6b" stroke-width="2" d="M80.24,-578C121.1,-578 182.26,-578 182.26,-578 182.26,-578 182.26,-566.62 182.26,-566.62"/>
<polygon fill="#ff6b6b" stroke="#ff6b6b" stroke-width="2" points="182.26,-556.62 186.76,-566.62 182.76,-559.19 182.76,-566.62 182.26,-566.62 181.76,-566.62 181.76,-559.19 177.76,-566.62 182.26,-556.62"/>
</g>
<!-- F_hazard -->
<g id="node5" class="node">
<title>F_hazard</title>
<path fill="#2d2d44" stroke="#4ecdc4" stroke-width="2" d="M64,-416C64,-416 24.75,-416 24.75,-416 18.75,-416 12.75,-410 12.75,-404 12.75,-404 12.75,-392 12.75,-392 12.75,-386 18.75,-380 24.75,-380 24.75,-380 64,-380 64,-380 70,-380 76,-386 76,-392 76,-392 76,-404 76,-404 76,-410 70,-416 64,-416"/>
<text xml:space="preserve" text-anchor="middle" x="44.38" y="-399.75" font-family="Helvetica,sans-Serif" font-size="10.00" fill="white">Hazardous</text>
<text xml:space="preserve" text-anchor="middle" x="44.38" y="-388.5" font-family="Helvetica,sans-Serif" font-size="10.00" fill="white">Gases</text>
</g>
<!-- I_haz_none -->
<g id="node17" class="node">
<title>I_haz_none</title>
<ellipse fill="#2d5a2d" stroke="#4ecdc4" stroke-width="2" cx="241.01" cy="-470" rx="54.27" ry="21.57"/>
<text xml:space="preserve" text-anchor="middle" x="241.01" y="-471.75" font-family="Helvetica,sans-Serif" font-size="10.00" fill="white">No hazardous</text>
<text xml:space="preserve" text-anchor="middle" x="241.01" y="-460.5" font-family="Helvetica,sans-Serif" font-size="10.00" fill="white">= No penalty</text>
</g>
<!-- F_hazard&#45;&gt;I_haz_none -->
<g id="edge10" class="edge">
<title>F_hazard&#45;&gt;I_haz_none</title>
<path fill="none" stroke="#95d5b2" stroke-width="2" d="M76.68,-407C120.47,-407 193.26,-407 193.26,-407 193.26,-407 193.26,-446.3 193.26,-446.3"/>
<polygon fill="#95d5b2" stroke="#95d5b2" stroke-width="2" points="193.26,-456.3 188.76,-446.3 192.76,-453.74 192.76,-446.3 193.26,-446.3 193.76,-446.3 193.76,-453.74 197.76,-446.3 193.26,-456.3"/>
</g>
<!-- I_haz_cond -->
<g id="node18" class="node">
<title>I_haz_cond</title>
<ellipse fill="#5a5a2d" stroke="#4ecdc4" stroke-width="2" cx="241.01" cy="-326" rx="66.47" ry="21.57"/>
<text xml:space="preserve" text-anchor="middle" x="241.01" y="-327.75" font-family="Helvetica,sans-Serif" font-size="10.00" fill="white">Conditional above</text>
<text xml:space="preserve" text-anchor="middle" x="241.01" y="-316.5" font-family="Helvetica,sans-Serif" font-size="10.00" fill="white">threshold = 2.0x</text>
</g>
<!-- F_hazard&#45;&gt;I_haz_cond -->
<g id="edge11" class="edge">
<title>F_hazard&#45;&gt;I_haz_cond</title>
<path fill="none" stroke="#ffe66d" stroke-width="2" d="M76.92,-389C117.12,-389 180.26,-389 180.26,-389 180.26,-389 180.26,-348.01 180.26,-348.01"/>
<polygon fill="#ffe66d" stroke="#ffe66d" stroke-width="2" points="180.26,-338.01 184.76,-348.01 180.76,-340.57 180.76,-348.01 180.26,-348.01 179.76,-348.01 179.76,-340.57 175.76,-348.01 180.26,-338.01"/>
</g>
<!-- I_haz_always -->
<g id="node19" class="node">
<title>I_haz_always</title>
<ellipse fill="#5a2d2d" stroke="#4ecdc4" stroke-width="2" cx="241.01" cy="-398" rx="41.01" ry="21.57"/>
<text xml:space="preserve" text-anchor="middle" x="241.01" y="-399.75" font-family="Helvetica,sans-Serif" font-size="10.00" fill="white">Cl2/F2/Br</text>
<text xml:space="preserve" text-anchor="middle" x="241.01" y="-388.5" font-family="Helvetica,sans-Serif" font-size="10.00" fill="white">= 3.0x</text>
</g>
<!-- F_hazard&#45;&gt;I_haz_always -->
<g id="edge12" class="edge">
<title>F_hazard&#45;&gt;I_haz_always</title>
<path fill="none" stroke="#ff6b6b" stroke-width="2" d="M76.84,-398C76.84,-398 186.8,-398 186.8,-398"/>
<polygon fill="#ff6b6b" stroke="#ff6b6b" stroke-width="2" points="196.8,-398 186.8,-402.5 194.23,-398.5 186.8,-398.5 186.8,-398 186.8,-397.5 194.23,-397.5 186.8,-393.5 196.8,-398"/>
</g>
<!-- F_hydro -->
<g id="node6" class="node">
<title>F_hydro</title>
<path fill="#2d2d44" stroke="#4ecdc4" stroke-width="2" d="M68.12,-236C68.12,-236 20.62,-236 20.62,-236 14.63,-236 8.62,-230 8.62,-224 8.62,-224 8.62,-212 8.62,-212 8.62,-206 14.62,-200 20.62,-200 20.62,-200 68.12,-200 68.12,-200 74.12,-200 80.12,-206 80.12,-212 80.12,-212 80.12,-224 80.12,-224 80.12,-230 74.12,-236 68.12,-236"/>
<text xml:space="preserve" text-anchor="middle" x="44.38" y="-219.75" font-family="Helvetica,sans-Serif" font-size="10.00" fill="white">Hydrosphere</text>
<text xml:space="preserve" text-anchor="middle" x="44.38" y="-208.5" font-family="Helvetica,sans-Serif" font-size="10.00" fill="white">Extent</text>
</g>
<!-- I_hydro_ok -->
<g id="node20" class="node">
<title>I_hydro_ok</title>
<ellipse fill="#2d5a2d" stroke="#4ecdc4" stroke-width="2" cx="241.01" cy="-182" rx="51.09" ry="21.57"/>
<text xml:space="preserve" text-anchor="middle" x="241.01" y="-183.75" font-family="Helvetica,sans-Serif" font-size="10.00" fill="white">&gt;=20%</text>
<text xml:space="preserve" text-anchor="middle" x="241.01" y="-172.5" font-family="Helvetica,sans-Serif" font-size="10.00" fill="white">= No penalty</text>
</g>
<!-- F_hydro&#45;&gt;I_hydro_ok -->
<g id="edge13" class="edge">
<title>F_hydro&#45;&gt;I_hydro_ok</title>
<path fill="none" stroke="#95d5b2" stroke-width="2" d="M44.26,-199.11C44.26,-189.66 44.26,-180.22 44.26,-180.22 44.26,-180.22 176.88,-180.22 176.88,-180.22"/>
<polygon fill="#95d5b2" stroke="#95d5b2" stroke-width="2" points="186.88,-180.22 176.88,-184.72 184.31,-180.72 176.88,-180.72 176.88,-180.22 176.88,-179.72 184.31,-179.72 176.88,-175.72 186.88,-180.22"/>
</g>
<!-- I_hydro_bad -->
<g id="node21" class="node">
<title>I_hydro_bad</title>
<ellipse fill="#5a5a2d" stroke="#4ecdc4" stroke-width="2" cx="241.01" cy="-254" rx="46.32" ry="21.57"/>
<text xml:space="preserve" text-anchor="middle" x="241.01" y="-255.75" font-family="Helvetica,sans-Serif" font-size="10.00" fill="white">&lt;20%</text>
<text xml:space="preserve" text-anchor="middle" x="241.01" y="-244.5" font-family="Helvetica,sans-Serif" font-size="10.00" fill="white">= (20&#45;H)/10</text>
</g>
<!-- F_hydro&#45;&gt;I_hydro_bad -->
<g id="edge14" class="edge">
<title>F_hydro&#45;&gt;I_hydro_bad</title>
<path fill="none" stroke="#ff6b6b" stroke-width="2" d="M44.26,-236.89C44.26,-246.34 44.26,-255.78 44.26,-255.78 44.26,-255.78 181.44,-255.78 181.44,-255.78"/>
<polygon fill="#ff6b6b" stroke="#ff6b6b" stroke-width="2" points="191.44,-255.78 181.44,-260.28 188.88,-256.28 181.44,-256.28 181.44,-255.78 181.44,-255.28 188.88,-255.28 181.44,-251.28 191.44,-255.78"/>
</g>
<!-- F_tidal -->
<g id="node7" class="node">
<title>F_tidal</title>
<path fill="#2d2d44" stroke="#4ecdc4" stroke-width="2" d="M62.88,-92C62.88,-92 25.88,-92 25.88,-92 19.88,-92 13.88,-86 13.88,-80 13.88,-80 13.88,-68 13.88,-68 13.88,-62 19.88,-56 25.88,-56 25.88,-56 62.88,-56 62.88,-56 68.88,-56 74.88,-62 74.88,-68 74.88,-68 74.88,-80 74.88,-80 74.88,-86 68.88,-92 62.88,-92"/>
<text xml:space="preserve" text-anchor="middle" x="44.38" y="-75.75" font-family="Helvetica,sans-Serif" font-size="10.00" fill="white">Tidal Lock</text>
<text xml:space="preserve" text-anchor="middle" x="44.38" y="-64.5" font-family="Helvetica,sans-Serif" font-size="10.00" fill="white">Status</text>
</g>
<!-- I_tidal_no -->
<g id="node22" class="node">
<title>I_tidal_no</title>
<ellipse fill="#2d5a2d" stroke="#4ecdc4" stroke-width="2" cx="241.01" cy="-38" rx="44.72" ry="21.57"/>
<text xml:space="preserve" text-anchor="middle" x="241.01" y="-39.75" font-family="Helvetica,sans-Serif" font-size="10.00" fill="white">Not locked</text>
<text xml:space="preserve" text-anchor="middle" x="241.01" y="-28.5" font-family="Helvetica,sans-Serif" font-size="10.00" fill="white">= Normal</text>
</g>
<!-- F_tidal&#45;&gt;I_tidal_no -->
<g id="edge15" class="edge">
<title>F_tidal&#45;&gt;I_tidal_no</title>
<path fill="none" stroke="#95d5b2" stroke-width="2" d="M44.26,-55.11C44.26,-45.66 44.26,-36.22 44.26,-36.22 44.26,-36.22 183.43,-36.22 183.43,-36.22"/>
<polygon fill="#95d5b2" stroke="#95d5b2" stroke-width="2" points="193.43,-36.22 183.43,-40.72 190.87,-36.72 183.43,-36.72 183.43,-36.22 183.43,-35.72 190.87,-35.72 183.43,-31.72 193.43,-36.22"/>
</g>
<!-- I_tidal_yes -->
<g id="node23" class="node">
<title>I_tidal_yes</title>
<ellipse fill="#5a5a2d" stroke="#4ecdc4" stroke-width="2" cx="241.01" cy="-110" rx="62.76" ry="21.57"/>
<text xml:space="preserve" text-anchor="middle" x="241.01" y="-111.75" font-family="Helvetica,sans-Serif" font-size="10.00" fill="white">Tide&#45;locked</text>
<text xml:space="preserve" text-anchor="middle" x="241.01" y="-100.5" font-family="Helvetica,sans-Serif" font-size="10.00" fill="white">= Temp/5, Pop/5</text>
</g>
<!-- F_tidal&#45;&gt;I_tidal_yes -->
<g id="edge16" class="edge">
<title>F_tidal&#45;&gt;I_tidal_yes</title>
<path fill="none" stroke="#ffe66d" stroke-width="2" d="M75.73,-74C117.79,-74 187.26,-74 187.26,-74 187.26,-74 187.26,-85.78 187.26,-85.78"/>
<polygon fill="#ffe66d" stroke="#ffe66d" stroke-width="2" points="187.26,-95.78 182.76,-85.78 186.76,-93.21 186.76,-85.78 187.26,-85.78 187.76,-85.78 187.76,-93.21 191.76,-85.78 187.26,-95.78"/>
</g>
<!-- CALC -->
<g id="node24" class="node">
<title>CALC</title>
<path fill="#2d2d44" stroke="#4ecdc4" stroke-width="2" d="M525.26,-513.2C525.26,-513.2 405.26,-513.2 405.26,-513.2 399.26,-513.2 393.26,-507.2 393.26,-501.2 393.26,-501.2 393.26,-438.8 393.26,-438.8 393.26,-432.8 399.26,-426.8 405.26,-426.8 405.26,-426.8 525.26,-426.8 525.26,-426.8 531.26,-426.8 537.26,-432.8 537.26,-438.8 537.26,-438.8 537.26,-501.2 537.26,-501.2 537.26,-507.2 531.26,-513.2 525.26,-513.2"/>
<text xml:space="preserve" text-anchor="middle" x="465.26" y="-484.1" font-family="Helvetica,sans-Serif" font-size="12.00" fill="white">COLONY COST</text>
<text xml:space="preserve" text-anchor="middle" x="465.26" y="-471.35" font-family="Helvetica,sans-Serif" font-size="12.00" fill="white">=</text>
<text xml:space="preserve" text-anchor="middle" x="465.26" y="-458.6" font-family="Helvetica,sans-Serif" font-size="12.00" fill="white">HIGHEST</text>
<text xml:space="preserve" text-anchor="middle" x="465.26" y="-445.85" font-family="Helvetica,sans-Serif" font-size="12.00" fill="white">SINGLE FACTOR</text>
</g>
<!-- I_gas_bad&#45;&gt;CALC -->
<g id="edge17" class="edge">
<title>I_gas_bad&#45;&gt;CALC</title>
<path fill="none" stroke="#666666" stroke-width="2" stroke-dasharray="5,2" d="M299.74,-1134C376.5,-1134 501.26,-1134 501.26,-1134 501.26,-1134 501.26,-526.52 501.26,-526.52"/>
<polygon fill="#666666" stroke="#666666" stroke-width="2" points="501.26,-516.52 505.76,-526.52 501.76,-519.08 501.76,-526.52 501.26,-526.52 500.76,-526.52 500.76,-519.08 496.76,-526.52 501.26,-516.52"/>
</g>
<!-- I_press_bad&#45;&gt;CALC -->
<g id="edge18" class="edge">
<title>I_press_bad&#45;&gt;CALC</title>
<path fill="none" stroke="#666666" stroke-width="2" stroke-dasharray="5,2" d="M321.97,-974C386.2,-974 465.26,-974 465.26,-974 465.26,-974 465.26,-526.28 465.26,-526.28"/>
<polygon fill="#666666" stroke="#666666" stroke-width="2" points="465.26,-516.28 469.76,-526.28 465.76,-518.85 465.76,-526.28 465.26,-526.28 464.76,-526.28 464.76,-518.85 460.76,-526.28 465.26,-516.28"/>
</g>
<!-- I_grav_low&#45;&gt;CALC -->
<g id="edge19" class="edge">
<title>I_grav_low&#45;&gt;CALC</title>
<path fill="none" stroke="#666666" stroke-width="2" stroke-dasharray="5,2" d="M305.79,-758C360.25,-758 429.26,-758 429.26,-758 429.26,-758 429.26,-526.49 429.26,-526.49"/>
<polygon fill="#666666" stroke="#666666" stroke-width="2" points="429.26,-516.49 433.76,-526.49 429.76,-519.05 429.76,-526.49 429.26,-526.49 428.76,-526.49 428.76,-519.05 424.76,-526.49 429.26,-516.49"/>
</g>
<!-- I_temp_bad&#45;&gt;CALC -->
<g id="edge20" class="edge">
<title>I_temp_bad&#45;&gt;CALC</title>
<path fill="none" stroke="#666666" stroke-width="2" stroke-dasharray="5,2" d="M303.26,-532C303.26,-520.27 303.26,-502.38 303.26,-502.38 303.26,-502.38 379.88,-502.38 379.88,-502.38"/>
<polygon fill="#666666" stroke="#666666" stroke-width="2" points="389.88,-502.38 379.88,-506.88 387.32,-502.88 379.88,-502.88 379.88,-502.38 379.88,-501.88 387.32,-501.88 379.88,-497.88 389.88,-502.38"/>
</g>
<!-- I_haz_cond&#45;&gt;CALC -->
<g id="edge21" class="edge">
<title>I_haz_cond&#45;&gt;CALC</title>
<path fill="none" stroke="#666666" stroke-width="2" stroke-dasharray="5,2" d="M299.26,-337.15C299.26,-364.75 299.26,-434.01 299.26,-434.01 299.26,-434.01 380.02,-434.01 380.02,-434.01"/>
<polygon fill="#666666" stroke="#666666" stroke-width="2" points="390.02,-434.01 380.02,-438.51 387.45,-434.51 380.02,-434.51 380.02,-434.01 380.02,-433.51 387.45,-433.51 380.02,-429.51 390.02,-434.01"/>
</g>
<!-- I_haz_always&#45;&gt;CALC -->
<g id="edge22" class="edge">
<title>I_haz_always&#45;&gt;CALC</title>
<path fill="none" stroke="#666666" stroke-width="2" stroke-dasharray="5,2" d="M241.26,-420.37C241.26,-430.92 241.26,-441.22 241.26,-441.22 241.26,-441.22 380.1,-441.22 380.1,-441.22"/>
<polygon fill="#666666" stroke="#666666" stroke-width="2" points="390.1,-441.22 380.1,-445.72 387.54,-441.72 380.1,-441.72 380.1,-441.22 380.1,-440.72 387.54,-440.72 380.1,-436.72 390.1,-441.22"/>
</g>
<!-- I_hydro_bad&#45;&gt;CALC -->
<g id="edge23" class="edge">
<title>I_hydro_bad&#45;&gt;CALC</title>
<path fill="none" stroke="#666666" stroke-width="2" stroke-dasharray="5,2" d="M288.21,-254C347.42,-254 441.26,-254 441.26,-254 441.26,-254 441.26,-413.59 441.26,-413.59"/>
<polygon fill="#666666" stroke="#666666" stroke-width="2" points="441.26,-423.59 436.76,-413.59 440.76,-421.03 440.76,-413.59 441.26,-413.59 441.76,-413.59 441.76,-421.03 445.76,-413.59 441.26,-423.59"/>
</g>
<!-- I_tidal_yes&#45;&gt;CALC -->
<g id="edge24" class="edge">
<title>I_tidal_yes&#45;&gt;CALC</title>
<path fill="none" stroke="#666666" stroke-width="2" stroke-dasharray="5,2" d="M304.62,-110C378.17,-110 489.26,-110 489.26,-110 489.26,-110 489.26,-413.42 489.26,-413.42"/>
<polygon fill="#666666" stroke="#666666" stroke-width="2" points="489.26,-423.42 484.76,-413.42 488.76,-420.86 488.76,-413.42 489.26,-413.42 489.76,-413.42 489.76,-420.86 493.76,-413.42 489.26,-423.42"/>
</g>
<!-- RESULT -->
<g id="node25" class="node">
<title>RESULT</title>
<polygon fill="#ffe66d" stroke="#4ecdc4" stroke-width="2" points="783.26,-490.88 609.26,-490.88 609.26,-449.12 789.26,-449.12 789.26,-484.88 783.26,-490.88"/>
<polyline fill="none" stroke="#4ecdc4" stroke-width="2" points="783.26,-490.88 783.26,-484.88"/>
<polyline fill="none" stroke="#4ecdc4" stroke-width="2" points="789.26,-484.88 783.26,-484.88"/>
<text xml:space="preserve" text-anchor="middle" x="699.26" y="-477.38" font-family="Helvetica,sans-Serif" font-size="10.00" fill="#1a1a2e">Infrastructure per Million Pop</text>
<text xml:space="preserve" text-anchor="middle" x="699.26" y="-466.12" font-family="Helvetica,sans-Serif" font-size="10.00" fill="#1a1a2e">=</text>
<text xml:space="preserve" text-anchor="middle" x="699.26" y="-454.88" font-family="Helvetica,sans-Serif" font-size="10.00" fill="#1a1a2e">Base Infra x Colony Cost</text>
</g>
<!-- CALC&#45;&gt;RESULT -->
<g id="edge25" class="edge">
<title>CALC&#45;&gt;RESULT</title>
<path fill="none" stroke="#95d5b2" stroke-width="2" d="M538.02,-470C538.02,-470 595.95,-470 595.95,-470"/>
<polygon fill="#95d5b2" stroke="#95d5b2" stroke-width="2" points="605.95,-470 595.95,-474.5 603.39,-470.5 595.95,-470.5 595.95,-470 595.95,-469.5 603.39,-469.5 595.95,-465.5 605.95,-470"/>
</g>
<!-- IDEAL -->
<g id="node26" class="node">
<title>IDEAL</title>
<polygon fill="#95d5b2" stroke="#4ecdc4" stroke-width="2" points="1035.26,-488.62 861.26,-488.62 861.26,-451.38 1041.26,-451.38 1041.26,-482.62 1035.26,-488.62"/>
<polyline fill="none" stroke="#4ecdc4" stroke-width="2" points="1035.26,-488.62 1035.26,-482.62"/>
<polyline fill="none" stroke="#4ecdc4" stroke-width="2" points="1041.26,-482.62 1035.26,-482.62"/>
<text xml:space="preserve" text-anchor="middle" x="951.26" y="-476.07" font-family="Helvetica,sans-Serif" font-size="9.00" fill="#1a1a2e">Ideal World:</text>
<text xml:space="preserve" text-anchor="middle" x="951.26" y="-466.32" font-family="Helvetica,sans-Serif" font-size="9.00" fill="#1a1a2e">Colony Cost = 0.00</text>
<text xml:space="preserve" text-anchor="middle" x="951.26" y="-456.57" font-family="Helvetica,sans-Serif" font-size="9.00" fill="#1a1a2e">No extra infrastructure needed</text>
</g>
<!-- RESULT&#45;&gt;IDEAL -->
<g id="edge26" class="edge">
<title>RESULT&#45;&gt;IDEAL</title>
<path fill="none" stroke="#666666" stroke-width="2" stroke-dasharray="1,5" d="M790.24,-470C813.08,-470 837.59,-470 860.42,-470"/>
</g>
</g>
</svg>
