<?xml version="1.0" encoding="UTF-8" standalone="no"?>
<!DOCTYPE svg PUBLIC "-//W3C//DTD SVG 1.1//EN"
 "http://www.w3.org/Graphics/SVG/1.1/DTD/svg11.dtd">
<!-- Generated by graphviz version 14.1.2 (20260124.0452)
 -->
<!-- Title: GasHazardMatrix Pages: 1 -->
<svg width="2824pt" height="176pt"
 viewBox="0.00 0.00 2824.00 176.00" xmlns="http://www.w3.org/2000/svg" xmlns:xlink="http://www.w3.org/1999/xlink">
<g id="graph0" class="graph" transform="scale(1 1) rotate(0) translate(4 171.75)">
<title>GasHazardMatrix</title>
<polygon fill="#1a1a2e" stroke="none" points="-4,4 -4,-171.75 2820,-171.75 2820,4 -4,4"/>
<text xml:space="preserve" text-anchor="middle" x="1408" y="-146.65" font-family="Helvetica,sans-Serif" font-size="18.00" fill="#4ecdc4">Atmospheric Gas Hazard Classification</text>
<g id="clust1" class="cluster">
<title>cluster_safe</title>
<polygon fill="#1f3d1f" stroke="#95d5b2" stroke-width="2" points="8,-16 8,-107.25 596,-107.25 596,-16 8,-16"/>
<text xml:space="preserve" text-anchor="middle" x="302" y="-91.85" font-family="Helvetica,sans-Serif" font-size="12.00" fill="#95d5b2">SAFE (Any Amount)</text>
<text xml:space="preserve" text-anchor="middle" x="302" y="-79.1" font-family="Helvetica,sans-Serif" font-size="12.00" fill="#95d5b2">No Colony Cost Impact</text>
</g>
<g id="clust2" class="cluster">
<title>cluster_conditional</title>
<polygon fill="#3d3d1f" stroke="#ffe66d" stroke-width="2" points="604,-8 604,-133 1944,-133 1944,-8 604,-8"/>
<text xml:space="preserve" text-anchor="middle" x="1274" y="-117.6" font-family="Helvetica,sans-Serif" font-size="12.00" fill="#ffe66d">CONDITIONAL (Above Threshold = Colony Cost 2.0)</text>
<text xml:space="preserve" text-anchor="middle" x="1274" y="-104.85" font-family="Helvetica,sans-Serif" font-size="12.00" fill="#ffe66d">Dangerous only when exceeding specific ppm limits</text>
</g>
<g id="clust3" class="cluster">
<title>cluster_very_low</title>
<polygon fill="#2d2d1a" stroke="#ff9944" stroke-width="2" points="612,-16 612,-91.5 1063,-91.5 1063,-16 612,-16"/>
<text xml:space="preserve" text-anchor="middle" x="837.5" y="-78.95" font-family="Helvetica,sans-Serif" font-size="9.00" fill="#ff9944">Very Low Threshold (1&#45;5 ppm)</text>
</g>
<g id="clust4" class="cluster">
<title>cluster_low</title>
<polygon fill="#2d2d1a" stroke="#ff9944" stroke-width="2" points="1076,-16 1076,-91.5 1427,-91.5 1427,-16 1076,-16"/>
<text xml:space="preserve" text-anchor="middle" x="1251.5" y="-78.95" font-family="Helvetica,sans-Serif" font-size="9.00" fill="#ff9944">Low Threshold (20&#45;50 ppm)</text>
</g>
<g id="clust5" class="cluster">
<title>cluster_moderate</title>
<polygon fill="#2d2d1a" stroke="#ff9944" stroke-width="2" points="1440,-16 1440,-91.5 1775,-91.5 1775,-16 1440,-16"/>
<text xml:space="preserve" text-anchor="middle" x="1607.5" y="-78.95" font-family="Helvetica,sans-Serif" font-size="9.00" fill="#ff9944">Moderate Threshold (500&#45;5000 ppm)</text>
</g>
<g id="clust6" class="cluster">
<title>cluster_dangerous</title>
<polygon fill="#3d1f1f" stroke="#ff6b6b" stroke-width="2" points="1957,-10.38 1957,-112.88 2289,-112.88 2289,-10.38 1957,-10.38"/>
<text xml:space="preserve" text-anchor="middle" x="2123" y="-97.47" font-family="Helvetica,sans-Serif" font-size="12.00" fill="#ff6b6b">ALWAYS DANGEROUS (Any Amount = Colony Cost 3.0)</text>
<text xml:space="preserve" text-anchor="middle" x="2123" y="-84.72" font-family="Helvetica,sans-Serif" font-size="12.00" fill="#ff6b6b">Immediate disqualifier for colonization</text>
</g>
<g id="clust7" class="cluster">
<title>cluster_fictional</title>
<polygon fill="#1a2d3d" stroke="#4ecdc4" stroke-width="2" points="2302,-16 2302,-94.5 2525,-94.5 2525,-16 2302,-16"/>
<text xml:space="preserve" text-anchor="middle" x="2413.5" y="-79.1" font-family="Helvetica,sans-Serif" font-size="12.00" fill="#4ecdc4">FICTIONAL (Terraforming Only)</text>
</g>
<g id="clust8" class="cluster">
<title>cluster_legend</title>
<polygon fill="#252542" stroke="#4ecdc4" points="2539,-18.88 2539,-90.88 2808,-90.88 2808,-18.88 2539,-18.88"/>
<text xml:space="preserve" text-anchor="middle" x="2673.5" y="-76.42" font-family="Helvetica,sans-Serif" font-size="11.00" fill="#4ecdc4">Legend</text>
</g>
<!-- N2 -->
<g id="node1" class="node">
<title>N2</title>
<path fill="#2d5a2d" stroke="#4ecdc4" stroke-width="2" d="M102.25,-65.75C102.25,-65.75 27.75,-65.75 27.75,-65.75 21.75,-65.75 15.75,-59.75 15.75,-53.75 15.75,-53.75 15.75,-36 15.75,-36 15.75,-30 21.75,-24 27.75,-24 27.75,-24 102.25,-24 102.25,-24 108.25,-24 114.25,-30 114.25,-36 114.25,-36 114.25,-53.75 114.25,-53.75 114.25,-59.75 108.25,-65.75 102.25,-65.75"/>
<text xml:space="preserve" text-anchor="middle" x="65" y="-52.25" font-family="Helvetica,sans-Serif" font-size="10.00" fill="white">N2</text>
<text xml:space="preserve" text-anchor="middle" x="65" y="-41" font-family="Helvetica,sans-Serif" font-size="10.00" fill="white">Nitrogen</text>
<text xml:space="preserve" text-anchor="middle" x="65" y="-29.75" font-family="Helvetica,sans-Serif" font-size="10.00" fill="white">(78% of Earth atm)</text>
</g>
<!-- He -->
<g id="node2" class="node">
<title>He</title>
<path fill="#2d5a2d" stroke="#4ecdc4" stroke-width="2" d="M218.25,-65.75C218.25,-65.75 155.75,-65.75 155.75,-65.75 149.75,-65.75 143.75,-59.75 143.75,-53.75 143.75,-53.75 143.75,-36 143.75,-36 143.75,-30 149.75,-24 155.75,-24 155.75,-24 218.25,-24 218.25,-24 224.25,-24 230.25,-30 230.25,-36 230.25,-36 230.25,-53.75 230.25,-53.75 230.25,-59.75 224.25,-65.75 218.25,-65.75"/>
<text xml:space="preserve" text-anchor="middle" x="187" y="-52.25" font-family="Helvetica,sans-Serif" font-size="10.00" fill="white">He</text>
<text xml:space="preserve" text-anchor="middle" x="187" y="-41" font-family="Helvetica,sans-Serif" font-size="10.00" fill="white">Helium</text>
<text xml:space="preserve" text-anchor="middle" x="187" y="-29.75" font-family="Helvetica,sans-Serif" font-size="10.00" fill="white">(Inert noble gas)</text>
</g>
<!-- H2O -->
<g id="node3" class="node">
<title>H2O</title>
<path fill="#2d5a2d" stroke="#4ecdc4" stroke-width="2" d="M344.5,-65.75C344.5,-65.75 271.5,-65.75 271.5,-65.75 265.5,-65.75 259.5,-59.75 259.5,-53.75 259.5,-53.75 259.5,-36 259.5,-36 259.5,-30 265.5,-24 271.5,-24 271.5,-24 344.5,-24 344.5,-24 350.5,-24 356.5,-30 356.5,-36 356.5,-36 356.5,-53.75 356.5,-53.75 356.5,-59.75 350.5,-65.75 344.5,-65.75"/>
<text xml:space="preserve" text-anchor="middle" x="308" y="-52.25" font-family="Helvetica,sans-Serif" font-size="10.00" fill="white">H2O</text>
<text xml:space="preserve" text-anchor="middle" x="308" y="-41" font-family="Helvetica,sans-Serif" font-size="10.00" fill="white">Water Vapor</text>
<text xml:space="preserve" text-anchor="middle" x="308" y="-29.75" font-family="Helvetica,sans-Serif" font-size="10.00" fill="white">(Not GH in Aurora)</text>
</g>
<!-- Ar -->
<g id="node4" class="node">
<title>Ar</title>
<path fill="#2d5a2d" stroke="#4ecdc4" stroke-width="2" d="M460.25,-65.75C460.25,-65.75 397.75,-65.75 397.75,-65.75 391.75,-65.75 385.75,-59.75 385.75,-53.75 385.75,-53.75 385.75,-36 385.75,-36 385.75,-30 391.75,-24 397.75,-24 397.75,-24 460.25,-24 460.25,-24 466.25,-24 472.25,-30 472.25,-36 472.25,-36 472.25,-53.75 472.25,-53.75 472.25,-59.75 466.25,-65.75 460.25,-65.75"/>
<text xml:space="preserve" text-anchor="middle" x="429" y="-52.25" font-family="Helvetica,sans-Serif" font-size="10.00" fill="white">Ar</text>
<text xml:space="preserve" text-anchor="middle" x="429" y="-41" font-family="Helvetica,sans-Serif" font-size="10.00" fill="white">Argon</text>
<text xml:space="preserve" text-anchor="middle" x="429" y="-29.75" font-family="Helvetica,sans-Serif" font-size="10.00" fill="white">(Inert noble gas)</text>
</g>
<!-- Ne -->
<g id="node5" class="node">
<title>Ne</title>
<path fill="#2d5a2d" stroke="#4ecdc4" stroke-width="2" d="M576.25,-65.75C576.25,-65.75 513.75,-65.75 513.75,-65.75 507.75,-65.75 501.75,-59.75 501.75,-53.75 501.75,-53.75 501.75,-36 501.75,-36 501.75,-30 507.75,-24 513.75,-24 513.75,-24 576.25,-24 576.25,-24 582.25,-24 588.25,-30 588.25,-36 588.25,-36 588.25,-53.75 588.25,-53.75 588.25,-59.75 582.25,-65.75 576.25,-65.75"/>
<text xml:space="preserve" text-anchor="middle" x="545" y="-52.25" font-family="Helvetica,sans-Serif" font-size="10.00" fill="white">Ne</text>
<text xml:space="preserve" text-anchor="middle" x="545" y="-41" font-family="Helvetica,sans-Serif" font-size="10.00" fill="white">Neon</text>
<text xml:space="preserve" text-anchor="middle" x="545" y="-29.75" font-family="Helvetica,sans-Serif" font-size="10.00" fill="white">(Inert noble gas)</text>
</g>
<!-- O2 -->
<g id="node6" class="node">
<title>O2</title>
<path fill="#5a5a2d" stroke="#4ecdc4" stroke-width="2" d="M1923.5,-71.38C1923.5,-71.38 1808.5,-71.38 1808.5,-71.38 1802.5,-71.38 1796.5,-65.38 1796.5,-59.38 1796.5,-59.38 1796.5,-30.37 1796.5,-30.37 1796.5,-24.38 1802.5,-18.38 1808.5,-18.38 1808.5,-18.38 1923.5,-18.38 1923.5,-18.38 1929.5,-18.38 1935.5,-24.38 1935.5,-30.38 1935.5,-30.38 1935.5,-59.38 1935.5,-59.38 1935.5,-65.38 1929.5,-71.38 1923.5,-71.38"/>
<text xml:space="preserve" text-anchor="middle" x="1866" y="-57.88" font-family="Helvetica,sans-Serif" font-size="10.00" fill="white">O2 Oxygen</text>
<text xml:space="preserve" text-anchor="middle" x="1866" y="-46.62" font-family="Helvetica,sans-Serif" font-size="10.00" fill="white">Required: 0.1&#45;0.3 atm</text>
<text xml:space="preserve" text-anchor="middle" x="1866" y="-35.38" font-family="Helvetica,sans-Serif" font-size="10.00" fill="white">Toxic: &gt;30% of total</text>
<text xml:space="preserve" text-anchor="middle" x="1866" y="-24.12" font-family="Helvetica,sans-Serif" font-size="10.00" fill="white">or &gt;500 ppm (non&#45;breathers)</text>
</g>
<!-- I -->
<g id="node7" class="node">
<title>I</title>
<path fill="#4a4a2d" stroke="#4ecdc4" stroke-width="2" d="M694.2,-65.75C694.2,-65.75 631.8,-65.75 631.8,-65.75 625.8,-65.75 619.8,-59.75 619.8,-53.75 619.8,-53.75 619.8,-36 619.8,-36 619.8,-30 625.8,-24 631.8,-24 631.8,-24 694.2,-24 694.2,-24 700.2,-24 706.2,-30 706.2,-36 706.2,-36 706.2,-53.75 706.2,-53.75 706.2,-59.75 700.2,-65.75 694.2,-65.75"/>
<text xml:space="preserve" text-anchor="middle" x="663" y="-52.25" font-family="Helvetica,sans-Serif" font-size="10.00" fill="white">I</text>
<text xml:space="preserve" text-anchor="middle" x="663" y="-41" font-family="Helvetica,sans-Serif" font-size="10.00" fill="white">Iodine</text>
<text xml:space="preserve" text-anchor="middle" x="663" y="-29.75" font-family="Helvetica,sans-Serif" font-size="10.00" fill="white">1 ppm</text>
</g>
<!-- NO2 -->
<g id="node8" class="node">
<title>NO2</title>
<path fill="#4a4a2d" stroke="#4ecdc4" stroke-width="2" d="M812.38,-65.75C812.38,-65.75 747.62,-65.75 747.62,-65.75 741.62,-65.75 735.62,-59.75 735.62,-53.75 735.62,-53.75 735.62,-36 735.62,-36 735.62,-30 741.62,-24 747.62,-24 747.62,-24 812.38,-24 812.38,-24 818.38,-24 824.38,-30 824.38,-36 824.38,-36 824.38,-53.75 824.38,-53.75 824.38,-59.75 818.38,-65.75 812.38,-65.75"/>
<text xml:space="preserve" text-anchor="middle" x="780" y="-52.25" font-family="Helvetica,sans-Serif" font-size="10.00" fill="white">NO2</text>
<text xml:space="preserve" text-anchor="middle" x="780" y="-41" font-family="Helvetica,sans-Serif" font-size="10.00" fill="white">Nitrogen Dioxide</text>
<text xml:space="preserve" text-anchor="middle" x="780" y="-29.75" font-family="Helvetica,sans-Serif" font-size="10.00" fill="white">5 ppm &#160;&#160;[GH]</text>
</g>
<!-- SO2 -->
<g id="node9" class="node">
<title>SO2</title>
<path fill="#4a4a2d" stroke="#4ecdc4" stroke-width="2" d="M928.2,-65.75C928.2,-65.75 865.8,-65.75 865.8,-65.75 859.8,-65.75 853.8,-59.75 853.8,-53.75 853.8,-53.75 853.8,-36 853.8,-36 853.8,-30 859.8,-24 865.8,-24 865.8,-24 928.2,-24 928.2,-24 934.2,-24 940.2,-30 940.2,-36 940.2,-36 940.2,-53.75 940.2,-53.75 940.2,-59.75 934.2,-65.75 928.2,-65.75"/>
<text xml:space="preserve" text-anchor="middle" x="897" y="-52.25" font-family="Helvetica,sans-Serif" font-size="10.00" fill="white">SO2</text>
<text xml:space="preserve" text-anchor="middle" x="897" y="-41" font-family="Helvetica,sans-Serif" font-size="10.00" fill="white">Sulphur Dioxide</text>
<text xml:space="preserve" text-anchor="middle" x="897" y="-29.75" font-family="Helvetica,sans-Serif" font-size="10.00" fill="white">5 ppm &#160;&#160;[GH]</text>
</g>
<!-- NO -->
<g id="node10" class="node">
<title>NO</title>
<path fill="#4a4a2d" stroke="#4ecdc4" stroke-width="2" d="M1043.2,-65.75C1043.2,-65.75 980.8,-65.75 980.8,-65.75 974.8,-65.75 968.8,-59.75 968.8,-53.75 968.8,-53.75 968.8,-36 968.8,-36 968.8,-30 974.8,-24 980.8,-24 980.8,-24 1043.2,-24 1043.2,-24 1049.2,-24 1055.2,-30 1055.2,-36 1055.2,-36 1055.2,-53.75 1055.2,-53.75 1055.2,-59.75 1049.2,-65.75 1043.2,-65.75"/>
<text xml:space="preserve" text-anchor="middle" x="1012" y="-52.25" font-family="Helvetica,sans-Serif" font-size="10.00" fill="white">NO</text>
<text xml:space="preserve" text-anchor="middle" x="1012" y="-41" font-family="Helvetica,sans-Serif" font-size="10.00" fill="white">Nitrogen Oxide</text>
<text xml:space="preserve" text-anchor="middle" x="1012" y="-29.75" font-family="Helvetica,sans-Serif" font-size="10.00" fill="white">5 ppm</text>
</g>
<!-- H2S -->
<g id="node11" class="node">
<title>H2S</title>
<path fill="#4a4a2d" stroke="#4ecdc4" stroke-width="2" d="M1170.25,-65.75C1170.25,-65.75 1095.75,-65.75 1095.75,-65.75 1089.75,-65.75 1083.75,-59.75 1083.75,-53.75 1083.75,-53.75 1083.75,-36 1083.75,-36 1083.75,-30 1089.75,-24 1095.75,-24 1095.75,-24 1170.25,-24 1170.25,-24 1176.25,-24 1182.25,-30 1182.25,-36 1182.25,-36 1182.25,-53.75 1182.25,-53.75 1182.25,-59.75 1176.25,-65.75 1170.25,-65.75"/>
<text xml:space="preserve" text-anchor="middle" x="1133" y="-52.25" font-family="Helvetica,sans-Serif" font-size="10.00" fill="white">H2S</text>
<text xml:space="preserve" text-anchor="middle" x="1133" y="-41" font-family="Helvetica,sans-Serif" font-size="10.00" fill="white">Hydrogen Sulphide</text>
<text xml:space="preserve" text-anchor="middle" x="1133" y="-29.75" font-family="Helvetica,sans-Serif" font-size="10.00" fill="white">20 ppm</text>
</g>
<!-- CO -->
<g id="node12" class="node">
<title>CO</title>
<path fill="#4a4a2d" stroke="#4ecdc4" stroke-width="2" d="M1292.25,-65.75C1292.25,-65.75 1223.75,-65.75 1223.75,-65.75 1217.75,-65.75 1211.75,-59.75 1211.75,-53.75 1211.75,-53.75 1211.75,-36 1211.75,-36 1211.75,-30 1217.75,-24 1223.75,-24 1223.75,-24 1292.25,-24 1292.25,-24 1298.25,-24 1304.25,-30 1304.25,-36 1304.25,-36 1304.25,-53.75 1304.25,-53.75 1304.25,-59.75 1298.25,-65.75 1292.25,-65.75"/>
<text xml:space="preserve" text-anchor="middle" x="1258" y="-52.25" font-family="Helvetica,sans-Serif" font-size="10.00" fill="white">CO</text>
<text xml:space="preserve" text-anchor="middle" x="1258" y="-41" font-family="Helvetica,sans-Serif" font-size="10.00" fill="white">Carbon Monoxide</text>
<text xml:space="preserve" text-anchor="middle" x="1258" y="-29.75" font-family="Helvetica,sans-Serif" font-size="10.00" fill="white">50 ppm</text>
</g>
<!-- NH3 -->
<g id="node13" class="node">
<title>NH3</title>
<path fill="#4a4a2d" stroke="#4ecdc4" stroke-width="2" d="M1407.2,-65.75C1407.2,-65.75 1344.8,-65.75 1344.8,-65.75 1338.8,-65.75 1332.8,-59.75 1332.8,-53.75 1332.8,-53.75 1332.8,-36 1332.8,-36 1332.8,-30 1338.8,-24 1344.8,-24 1344.8,-24 1407.2,-24 1407.2,-24 1413.2,-24 1419.2,-30 1419.2,-36 1419.2,-36 1419.2,-53.75 1419.2,-53.75 1419.2,-59.75 1413.2,-65.75 1407.2,-65.75"/>
<text xml:space="preserve" text-anchor="middle" x="1376" y="-52.25" font-family="Helvetica,sans-Serif" font-size="10.00" fill="white">NH3</text>
<text xml:space="preserve" text-anchor="middle" x="1376" y="-41" font-family="Helvetica,sans-Serif" font-size="10.00" fill="white">Ammonia</text>
<text xml:space="preserve" text-anchor="middle" x="1376" y="-29.75" font-family="Helvetica,sans-Serif" font-size="10.00" fill="white">50 ppm</text>
</g>
<!-- H2 -->
<g id="node14" class="node">
<title>H2</title>
<path fill="#4a4a2d" stroke="#4ecdc4" stroke-width="2" d="M1522.2,-65.75C1522.2,-65.75 1459.8,-65.75 1459.8,-65.75 1453.8,-65.75 1447.8,-59.75 1447.8,-53.75 1447.8,-53.75 1447.8,-36 1447.8,-36 1447.8,-30 1453.8,-24 1459.8,-24 1459.8,-24 1522.2,-24 1522.2,-24 1528.2,-24 1534.2,-30 1534.2,-36 1534.2,-36 1534.2,-53.75 1534.2,-53.75 1534.2,-59.75 1528.2,-65.75 1522.2,-65.75"/>
<text xml:space="preserve" text-anchor="middle" x="1491" y="-52.25" font-family="Helvetica,sans-Serif" font-size="10.00" fill="white">H2</text>
<text xml:space="preserve" text-anchor="middle" x="1491" y="-41" font-family="Helvetica,sans-Serif" font-size="10.00" fill="white">Hydrogen</text>
<text xml:space="preserve" text-anchor="middle" x="1491" y="-29.75" font-family="Helvetica,sans-Serif" font-size="10.00" fill="white">500 ppm</text>
</g>
<!-- CH4 -->
<g id="node15" class="node">
<title>CH4</title>
<path fill="#4a4a2d" stroke="#4ecdc4" stroke-width="2" d="M1637.2,-65.75C1637.2,-65.75 1574.8,-65.75 1574.8,-65.75 1568.8,-65.75 1562.8,-59.75 1562.8,-53.75 1562.8,-53.75 1562.8,-36 1562.8,-36 1562.8,-30 1568.8,-24 1574.8,-24 1574.8,-24 1637.2,-24 1637.2,-24 1643.2,-24 1649.2,-30 1649.2,-36 1649.2,-36 1649.2,-53.75 1649.2,-53.75 1649.2,-59.75 1643.2,-65.75 1637.2,-65.75"/>
<text xml:space="preserve" text-anchor="middle" x="1606" y="-52.25" font-family="Helvetica,sans-Serif" font-size="10.00" fill="white">CH4</text>
<text xml:space="preserve" text-anchor="middle" x="1606" y="-41" font-family="Helvetica,sans-Serif" font-size="10.00" fill="white">Methane</text>
<text xml:space="preserve" text-anchor="middle" x="1606" y="-29.75" font-family="Helvetica,sans-Serif" font-size="10.00" fill="white">500 ppm &#160;&#160;[GH]</text>
</g>
<!-- CO2 -->
<g id="node16" class="node">
<title>CO2</title>
<path fill="#4a4a2d" stroke="#4ecdc4" stroke-width="2" d="M1755.38,-65.75C1755.38,-65.75 1690.62,-65.75 1690.62,-65.75 1684.62,-65.75 1678.62,-59.75 1678.62,-53.75 1678.62,-53.75 1678.62,-36 1678.62,-36 1678.62,-30 1684.62,-24 1690.62,-24 1690.62,-24 1755.38,-24 1755.38,-24 1761.38,-24 1767.38,-30 1767.38,-36 1767.38,-36 1767.38,-53.75 1767.38,-53.75 1767.38,-59.75 1761.38,-65.75 1755.38,-65.75"/>
<text xml:space="preserve" text-anchor="middle" x="1723" y="-52.25" font-family="Helvetica,sans-Serif" font-size="10.00" fill="white">CO2</text>
<text xml:space="preserve" text-anchor="middle" x="1723" y="-41" font-family="Helvetica,sans-Serif" font-size="10.00" fill="white">Carbon Dioxide</text>
<text xml:space="preserve" text-anchor="middle" x="1723" y="-29.75" font-family="Helvetica,sans-Serif" font-size="10.00" fill="white">5000 ppm &#160;&#160;[GH]</text>
</g>
<!-- Cl2 -->
<g id="node17" class="node">
<title>Cl2</title>
<path fill="#5a2d2d" stroke="#4ecdc4" stroke-width="2" d="M2039.2,-65.75C2039.2,-65.75 1976.8,-65.75 1976.8,-65.75 1970.8,-65.75 1964.8,-59.75 1964.8,-53.75 1964.8,-53.75 1964.8,-36 1964.8,-36 1964.8,-30 1970.8,-24 1976.8,-24 1976.8,-24 2039.2,-24 2039.2,-24 2045.2,-24 2051.2,-30 2051.2,-36 2051.2,-36 2051.2,-53.75 2051.2,-53.75 2051.2,-59.75 2045.2,-65.75 2039.2,-65.75"/>
<text xml:space="preserve" text-anchor="middle" x="2008" y="-52.25" font-family="Helvetica,sans-Serif" font-size="10.00" fill="white">Cl2</text>
<text xml:space="preserve" text-anchor="middle" x="2008" y="-41" font-family="Helvetica,sans-Serif" font-size="10.00" fill="white">Chlorine</text>
<text xml:space="preserve" text-anchor="middle" x="2008" y="-29.75" font-family="Helvetica,sans-Serif" font-size="10.00" fill="white">Extremely toxic</text>
</g>
<!-- F2 -->
<g id="node18" class="node">
<title>F2</title>
<path fill="#5a2d2d" stroke="#4ecdc4" stroke-width="2" d="M2154.2,-71.38C2154.2,-71.38 2091.8,-71.38 2091.8,-71.38 2085.8,-71.38 2079.8,-65.38 2079.8,-59.38 2079.8,-59.38 2079.8,-30.37 2079.8,-30.37 2079.8,-24.38 2085.8,-18.38 2091.8,-18.38 2091.8,-18.38 2154.2,-18.38 2154.2,-18.38 2160.2,-18.38 2166.2,-24.38 2166.2,-30.38 2166.2,-30.38 2166.2,-59.38 2166.2,-59.38 2166.2,-65.38 2160.2,-71.38 2154.2,-71.38"/>
<text xml:space="preserve" text-anchor="middle" x="2123" y="-57.88" font-family="Helvetica,sans-Serif" font-size="10.00" fill="white">F2</text>
<text xml:space="preserve" text-anchor="middle" x="2123" y="-46.62" font-family="Helvetica,sans-Serif" font-size="10.00" fill="white">Fluorine</text>
<text xml:space="preserve" text-anchor="middle" x="2123" y="-35.38" font-family="Helvetica,sans-Serif" font-size="10.00" fill="white">Extremely toxic</text>
<text xml:space="preserve" text-anchor="middle" x="2123" y="-24.12" font-family="Helvetica,sans-Serif" font-size="10.00" fill="white">&amp; corrosive</text>
</g>
<!-- Br -->
<g id="node19" class="node">
<title>Br</title>
<path fill="#5a2d2d" stroke="#4ecdc4" stroke-width="2" d="M2269.2,-71.38C2269.2,-71.38 2206.8,-71.38 2206.8,-71.38 2200.8,-71.38 2194.8,-65.38 2194.8,-59.38 2194.8,-59.38 2194.8,-30.37 2194.8,-30.37 2194.8,-24.38 2200.8,-18.38 2206.8,-18.38 2206.8,-18.38 2269.2,-18.38 2269.2,-18.38 2275.2,-18.38 2281.2,-24.38 2281.2,-30.38 2281.2,-30.38 2281.2,-59.38 2281.2,-59.38 2281.2,-65.38 2275.2,-71.38 2269.2,-71.38"/>
<text xml:space="preserve" text-anchor="middle" x="2238" y="-57.88" font-family="Helvetica,sans-Serif" font-size="10.00" fill="white">Br</text>
<text xml:space="preserve" text-anchor="middle" x="2238" y="-46.62" font-family="Helvetica,sans-Serif" font-size="10.00" fill="white">Bromine</text>
<text xml:space="preserve" text-anchor="middle" x="2238" y="-35.38" font-family="Helvetica,sans-Serif" font-size="10.00" fill="white">Toxic at any</text>
<text xml:space="preserve" text-anchor="middle" x="2238" y="-24.12" font-family="Helvetica,sans-Serif" font-size="10.00" fill="white">concentration</text>
</g>
<!-- Aest -->
<g id="node20" class="node">
<title>Aest</title>
<path fill="#2d3d5a" stroke="#4ecdc4" stroke-width="2" d="M2387.75,-65.75C2387.75,-65.75 2322.25,-65.75 2322.25,-65.75 2316.25,-65.75 2310.25,-59.75 2310.25,-53.75 2310.25,-53.75 2310.25,-36 2310.25,-36 2310.25,-30 2316.25,-24 2322.25,-24 2322.25,-24 2387.75,-24 2387.75,-24 2393.75,-24 2399.75,-30 2399.75,-36 2399.75,-36 2399.75,-53.75 2399.75,-53.75 2399.75,-59.75 2393.75,-65.75 2387.75,-65.75"/>
<text xml:space="preserve" text-anchor="middle" x="2355" y="-52.25" font-family="Helvetica,sans-Serif" font-size="10.00" fill="white">Aestusium</text>
<text xml:space="preserve" text-anchor="middle" x="2355" y="-41" font-family="Helvetica,sans-Serif" font-size="10.00" fill="white">Greenhouse Gas</text>
<text xml:space="preserve" text-anchor="middle" x="2355" y="-29.75" font-family="Helvetica,sans-Serif" font-size="10.00" fill="white">Increases temp</text>
</g>
<!-- Frig -->
<g id="node21" class="node">
<title>Frig</title>
<path fill="#2d3d5a" stroke="#4ecdc4" stroke-width="2" d="M2505.38,-65.75C2505.38,-65.75 2440.62,-65.75 2440.62,-65.75 2434.62,-65.75 2428.62,-59.75 2428.62,-53.75 2428.62,-53.75 2428.62,-36 2428.62,-36 2428.62,-30 2434.62,-24 2440.62,-24 2440.62,-24 2505.38,-24 2505.38,-24 2511.38,-24 2517.38,-30 2517.38,-36 2517.38,-36 2517.38,-53.75 2517.38,-53.75 2517.38,-59.75 2511.38,-65.75 2505.38,-65.75"/>
<text xml:space="preserve" text-anchor="middle" x="2473" y="-52.25" font-family="Helvetica,sans-Serif" font-size="10.00" fill="white">Frigusium</text>
<text xml:space="preserve" text-anchor="middle" x="2473" y="-41" font-family="Helvetica,sans-Serif" font-size="10.00" fill="white">Anti&#45;Greenhouse</text>
<text xml:space="preserve" text-anchor="middle" x="2473" y="-29.75" font-family="Helvetica,sans-Serif" font-size="10.00" fill="white">Decreases temp</text>
</g>
<!-- LEG1 -->
<g id="node22" class="node">
<title>LEG1</title>
<polygon fill="#2d2d44" stroke="#4ecdc4" stroke-width="2" points="2655.12,-62.88 2546.88,-62.88 2546.88,-26.88 2661.12,-26.88 2661.12,-56.88 2655.12,-62.88"/>
<polyline fill="none" stroke="#4ecdc4" stroke-width="2" points="2655.12,-62.88 2655.12,-56.88"/>
<polyline fill="none" stroke="#4ecdc4" stroke-width="2" points="2661.12,-56.88 2655.12,-56.88"/>
<text xml:space="preserve" text-anchor="middle" x="2604" y="-46.08" font-family="Helvetica,sans-Serif" font-size="9.00" fill="white">[GH] = Greenhouse Gas</text>
<text xml:space="preserve" text-anchor="middle" x="2604" y="-36.33" font-family="Helvetica,sans-Serif" font-size="9.00" fill="white">(contributes to warming)</text>
</g>
<!-- LEG2 -->
<g id="node23" class="node">
<title>LEG2</title>
<polygon fill="#2d2d44" stroke="#4ecdc4" stroke-width="2" points="2793.5,-62.88 2690.5,-62.88 2690.5,-26.88 2799.5,-26.88 2799.5,-56.88 2793.5,-62.88"/>
<polyline fill="none" stroke="#4ecdc4" stroke-width="2" points="2793.5,-62.88 2793.5,-56.88"/>
<polyline fill="none" stroke="#4ecdc4" stroke-width="2" points="2799.5,-56.88 2793.5,-56.88"/>
<text xml:space="preserve" text-anchor="middle" x="2745" y="-46.08" font-family="Helvetica,sans-Serif" font-size="9.00" fill="white">ppm = parts per million</text>
<text xml:space="preserve" text-anchor="middle" x="2745" y="-36.33" font-family="Helvetica,sans-Serif" font-size="9.00" fill="white">Threshold for toxicity</text>
</g>
</g>
</svg>
