<?xml version="1.0" encoding="UTF-8" standalone="no"?>
<!DOCTYPE svg PUBLIC "-//W3C//DTD SVG 1.1//EN"
 "http://www.w3.org/Graphics/SVG/1.1/DTD/svg11.dtd">
<!-- Generated by graphviz version 14.1.2 (20260124.0452)
 -->
<!-- Title: AsteroidDistribution Pages: 1 -->
<svg width="1008pt" height="304pt"
 viewBox="0.00 0.00 1008.00 304.00" xmlns="http://www.w3.org/2000/svg" xmlns:xlink="http://www.w3.org/1999/xlink">
<g id="graph0" class="graph" transform="scale(1 1) rotate(0) translate(4 300)">
<title>AsteroidDistribution</title>
<polygon fill="#1a1a2e" stroke="none" points="-4,4 -4,-300 1003.75,-300 1003.75,4 -4,4"/>
<!-- star -->
<g id="node1" class="node">
<title>star</title>
<ellipse fill="#ffe66d" stroke="#4ecdc4" cx="36" cy="-83" rx="36" ry="36"/>
<text xml:space="preserve" text-anchor="middle" x="36" y="-78.55" font-family="Helvetica,sans-Serif" font-size="11.00" fill="#1a1a2e">Star</text>
</g>
<!-- near -->
<g id="node2" class="node">
<title>near</title>
<polygon fill="#ff6b6b" stroke="#4ecdc4" points="234.25,-111 168,-111 168,-55 234.25,-55 234.25,-111"/>
<text xml:space="preserve" text-anchor="middle" x="201.12" y="-96.55" font-family="Helvetica,sans-Serif" font-size="11.00" fill="white">Near&#45;Star</text>
<text xml:space="preserve" text-anchor="middle" x="201.12" y="-84.55" font-family="Helvetica,sans-Serif" font-size="11.00" fill="white">Asteroids</text>
<text xml:space="preserve" text-anchor="middle" x="201.12" y="-72.55" font-family="Helvetica,sans-Serif" font-size="11.00" fill="white">(0.9&#45;2 AU)</text>
<text xml:space="preserve" text-anchor="middle" x="201.12" y="-60.55" font-family="Helvetica,sans-Serif" font-size="11.00" fill="white">Metal&#45;rich</text>
</g>
<!-- star&#45;&gt;near -->
<g id="edge1" class="edge">
<title>star&#45;&gt;near</title>
<path fill="none" stroke="#4ecdc4" d="M72.4,-83C97.6,-83 131.57,-83 158.15,-83"/>
<polygon fill="#4ecdc4" stroke="#4ecdc4" points="158.06,-85.8 166.06,-83 158.06,-80.2 158.06,-85.8"/>
<text xml:space="preserve" text-anchor="middle" x="120" y="-93.95" font-family="Helvetica,sans-Serif" font-size="9.00" fill="#888888">Inner</text>
<text xml:space="preserve" text-anchor="middle" x="120" y="-84.2" font-family="Helvetica,sans-Serif" font-size="9.00" fill="#888888">Orbits</text>
</g>
<!-- main -->
<g id="node3" class="node">
<title>main</title>
<polygon fill="#2d2d44" stroke="#4ecdc4" points="420.5,-111 345.25,-111 345.25,-55 420.5,-55 420.5,-111"/>
<text xml:space="preserve" text-anchor="middle" x="382.88" y="-96.55" font-family="Helvetica,sans-Serif" font-size="11.00" fill="white">Main Belt</text>
<text xml:space="preserve" text-anchor="middle" x="382.88" y="-84.55" font-family="Helvetica,sans-Serif" font-size="11.00" fill="white">Asteroids</text>
<text xml:space="preserve" text-anchor="middle" x="382.88" y="-72.55" font-family="Helvetica,sans-Serif" font-size="11.00" fill="white">(2&#45;4 AU)</text>
<text xml:space="preserve" text-anchor="middle" x="382.88" y="-60.55" font-family="Helvetica,sans-Serif" font-size="11.00" fill="white">~380 bodies</text>
</g>
<!-- near&#45;&gt;main -->
<g id="edge2" class="edge">
<title>near&#45;&gt;main</title>
<path fill="none" stroke="#4ecdc4" d="M234.68,-83C262.82,-83 303.85,-83 335.44,-83"/>
<polygon fill="#4ecdc4" stroke="#4ecdc4" points="335.4,-85.8 343.4,-83 335.4,-80.2 335.4,-85.8"/>
<text xml:space="preserve" text-anchor="middle" x="289.75" y="-93.95" font-family="Helvetica,sans-Serif" font-size="9.00" fill="#888888">Main</text>
<text xml:space="preserve" text-anchor="middle" x="289.75" y="-84.2" font-family="Helvetica,sans-Serif" font-size="9.00" fill="#888888">Belt Zone</text>
</g>
<!-- giant -->
<g id="node4" class="node">
<title>giant</title>
<ellipse fill="#95d5b2" stroke="#4ecdc4" cx="568" cy="-154" rx="45.25" ry="31.11"/>
<text xml:space="preserve" text-anchor="middle" x="568" y="-161.55" font-family="Helvetica,sans-Serif" font-size="11.00" fill="#1a1a2e">Gas Giant</text>
<text xml:space="preserve" text-anchor="middle" x="568" y="-149.55" font-family="Helvetica,sans-Serif" font-size="11.00" fill="#1a1a2e">(Jupiter)</text>
<text xml:space="preserve" text-anchor="middle" x="568" y="-137.55" font-family="Helvetica,sans-Serif" font-size="11.00" fill="#1a1a2e">5+ AU</text>
</g>
<!-- main&#45;&gt;giant -->
<g id="edge3" class="edge">
<title>main&#45;&gt;giant</title>
<path fill="none" stroke="#4ecdc4" d="M420.93,-97.37C449.28,-108.36 488.58,-123.6 519.28,-135.5"/>
<polygon fill="#4ecdc4" stroke="#4ecdc4" points="518.22,-138.09 526.69,-138.37 520.24,-132.87 518.22,-138.09"/>
<text xml:space="preserve" text-anchor="middle" x="467.38" y="-129.45" font-family="Helvetica,sans-Serif" font-size="9.00" fill="#888888">Giant</text>
<text xml:space="preserve" text-anchor="middle" x="467.38" y="-119.7" font-family="Helvetica,sans-Serif" font-size="9.00" fill="#888888">Zone</text>
</g>
<!-- note2 -->
<g id="node9" class="node">
<title>note2</title>
<polygon fill="#2d2d44" stroke="#4ecdc4" points="615.75,-65.38 514.25,-65.38 514.25,-8.62 621.75,-8.62 621.75,-59.38 615.75,-65.38"/>
<polyline fill="none" stroke="#4ecdc4" points="615.75,-65.38 615.75,-59.38"/>
<polyline fill="none" stroke="#4ecdc4" points="621.75,-59.38 615.75,-59.38"/>
<text xml:space="preserve" text-anchor="middle" x="568" y="-52.83" font-family="Helvetica,sans-Serif" font-size="9.00" fill="white">Sol System Totals:</text>
<text xml:space="preserve" text-anchor="middle" x="568" y="-43.08" font-family="Helvetica,sans-Serif" font-size="9.00" fill="white">480 asteroids</text>
<text xml:space="preserve" text-anchor="middle" x="568" y="-33.33" font-family="Helvetica,sans-Serif" font-size="9.00" fill="white">49 Trojans total</text>
<text xml:space="preserve" text-anchor="middle" x="568" y="-23.57" font-family="Helvetica,sans-Serif" font-size="9.00" fill="white">Radius: 1&#45;575 km</text>
<text xml:space="preserve" text-anchor="middle" x="568" y="-13.82" font-family="Helvetica,sans-Serif" font-size="9.00" fill="white">Orbits: 0.92&#45;110.51 AU</text>
</g>
<!-- main&#45;&gt;note2 -->
<g id="edge8" class="edge">
<title>main&#45;&gt;note2</title>
<path fill="none" stroke="#666666" stroke-dasharray="1,5" d="M420.93,-73.69C447.69,-66.97 484.2,-57.8 514.03,-50.31"/>
</g>
<!-- l4 -->
<g id="node5" class="node">
<title>l4</title>
<polygon fill="#4ecdc4" stroke="#4ecdc4" points="812.88,-296 736.12,-296 736.12,-240 812.88,-240 812.88,-296"/>
<text xml:space="preserve" text-anchor="middle" x="774.5" y="-281.55" font-family="Helvetica,sans-Serif" font-size="11.00" fill="#1a1a2e">L4 Trojans</text>
<text xml:space="preserve" text-anchor="middle" x="774.5" y="-269.55" font-family="Helvetica,sans-Serif" font-size="11.00" fill="#1a1a2e">(Leading)</text>
<text xml:space="preserve" text-anchor="middle" x="774.5" y="-257.55" font-family="Helvetica,sans-Serif" font-size="11.00" fill="#1a1a2e">+60 degrees</text>
<text xml:space="preserve" text-anchor="middle" x="774.5" y="-245.55" font-family="Helvetica,sans-Serif" font-size="11.00" fill="#1a1a2e">Jupiter: 23</text>
</g>
<!-- giant&#45;&gt;l4 -->
<g id="edge4" class="edge">
<title>giant&#45;&gt;l4</title>
<path fill="none" stroke="#4ecdc4" stroke-dasharray="5,2" d="M603.69,-173.34C640.38,-193.79 698.09,-225.96 735.86,-247.02"/>
<text xml:space="preserve" text-anchor="middle" x="677.62" y="-235.51" font-family="Helvetica,sans-Serif" font-size="9.00" fill="#888888">Leading</text>
<text xml:space="preserve" text-anchor="middle" x="677.62" y="-225.76" font-family="Helvetica,sans-Serif" font-size="9.00" fill="#888888">Lagrange</text>
</g>
<!-- l5 -->
<g id="node6" class="node">
<title>l5</title>
<polygon fill="#4ecdc4" stroke="#4ecdc4" points="811.38,-182 737.62,-182 737.62,-126 811.38,-126 811.38,-182"/>
<text xml:space="preserve" text-anchor="middle" x="774.5" y="-167.55" font-family="Helvetica,sans-Serif" font-size="11.00" fill="#1a1a2e">L5 Trojans</text>
<text xml:space="preserve" text-anchor="middle" x="774.5" y="-155.55" font-family="Helvetica,sans-Serif" font-size="11.00" fill="#1a1a2e">(Trailing)</text>
<text xml:space="preserve" text-anchor="middle" x="774.5" y="-143.55" font-family="Helvetica,sans-Serif" font-size="11.00" fill="#1a1a2e">&#45;60 degrees</text>
<text xml:space="preserve" text-anchor="middle" x="774.5" y="-131.55" font-family="Helvetica,sans-Serif" font-size="11.00" fill="#1a1a2e">Jupiter: 14</text>
</g>
<!-- giant&#45;&gt;l5 -->
<g id="edge5" class="edge">
<title>giant&#45;&gt;l5</title>
<path fill="none" stroke="#4ecdc4" stroke-dasharray="5,2" d="M613.63,-154C650.65,-154 702.63,-154 737.15,-154"/>
<text xml:space="preserve" text-anchor="middle" x="677.62" y="-164.95" font-family="Helvetica,sans-Serif" font-size="9.00" fill="#888888">Trailing</text>
<text xml:space="preserve" text-anchor="middle" x="677.62" y="-155.2" font-family="Helvetica,sans-Serif" font-size="9.00" fill="#888888">Lagrange</text>
</g>
<!-- outer -->
<g id="node7" class="node">
<title>outer</title>
<polygon fill="#2d2d44" stroke="#4ecdc4" stroke-dasharray="5,2" points="815.5,-68 733.5,-68 733.5,0 815.5,0 815.5,-68"/>
<text xml:space="preserve" text-anchor="middle" x="774.5" y="-53.55" font-family="Helvetica,sans-Serif" font-size="11.00" fill="white">Outer System</text>
<text xml:space="preserve" text-anchor="middle" x="774.5" y="-41.55" font-family="Helvetica,sans-Serif" font-size="11.00" fill="white">Trojans</text>
<text xml:space="preserve" text-anchor="middle" x="774.5" y="-29.55" font-family="Helvetica,sans-Serif" font-size="11.00" fill="white">(Neptune: 8</text>
<text xml:space="preserve" text-anchor="middle" x="774.5" y="-17.55" font-family="Helvetica,sans-Serif" font-size="11.00" fill="white">Mars: 3</text>
<text xml:space="preserve" text-anchor="middle" x="774.5" y="-5.55" font-family="Helvetica,sans-Serif" font-size="11.00" fill="white">Earth: 1)</text>
</g>
<!-- giant&#45;&gt;outer -->
<g id="edge6" class="edge">
<title>giant&#45;&gt;outer</title>
<path fill="none" stroke="#4ecdc4" stroke-dasharray="5,2" d="M603.23,-133.91C636.67,-114.29 687.87,-84.25 725.39,-62.23"/>
<polygon fill="#4ecdc4" stroke="#4ecdc4" points="726.39,-64.89 731.88,-58.42 723.56,-60.06 726.39,-64.89"/>
<text xml:space="preserve" text-anchor="middle" x="677.62" y="-112.13" font-family="Helvetica,sans-Serif" font-size="9.00" fill="#888888">Outer</text>
<text xml:space="preserve" text-anchor="middle" x="677.62" y="-102.38" font-family="Helvetica,sans-Serif" font-size="9.00" fill="#888888">Giants</text>
</g>
<!-- note1 -->
<g id="node8" class="node">
<title>note1</title>
<polygon fill="#2d2d44" stroke="#4ecdc4" points="993.75,-192.12 888.5,-192.12 888.5,-115.88 999.75,-115.88 999.75,-186.12 993.75,-192.12"/>
<polyline fill="none" stroke="#4ecdc4" points="993.75,-192.12 993.75,-186.12"/>
<polyline fill="none" stroke="#4ecdc4" points="999.75,-186.12 993.75,-186.12"/>
<text xml:space="preserve" text-anchor="middle" x="944.12" y="-179.57" font-family="Helvetica,sans-Serif" font-size="9.00" fill="white">Trojan Generation:</text>
<text xml:space="preserve" text-anchor="middle" x="944.12" y="-169.82" font-family="Helvetica,sans-Serif" font-size="9.00" fill="white">&#45; Gas giants and</text>
<text xml:space="preserve" text-anchor="middle" x="944.12" y="-160.07" font-family="Helvetica,sans-Serif" font-size="9.00" fill="white"> &#160;super&#45;jovians only</text>
<text xml:space="preserve" text-anchor="middle" x="944.12" y="-150.32" font-family="Helvetica,sans-Serif" font-size="9.00" fill="white">&#45; Probability scales</text>
<text xml:space="preserve" text-anchor="middle" x="944.12" y="-140.57" font-family="Helvetica,sans-Serif" font-size="9.00" fill="white"> &#160;with cube root of mass</text>
<text xml:space="preserve" text-anchor="middle" x="944.12" y="-130.82" font-family="Helvetica,sans-Serif" font-size="9.00" fill="white">&#45; Quantity also scales</text>
<text xml:space="preserve" text-anchor="middle" x="944.12" y="-121.08" font-family="Helvetica,sans-Serif" font-size="9.00" fill="white"> &#160;with mass</text>
</g>
<!-- l5&#45;&gt;note1 -->
<g id="edge7" class="edge">
<title>l5&#45;&gt;note1</title>
<path fill="none" stroke="#666666" stroke-dasharray="1,5" d="M811.87,-154C834.11,-154 863,-154 888.02,-154"/>
</g>
</g>
</svg>
