<?xml version="1.0" encoding="UTF-8" standalone="no"?>
<!DOCTYPE svg PUBLIC "-//W3C//DTD SVG 1.1//EN"
 "http://www.w3.org/Graphics/SVG/1.1/DTD/svg11.dtd">
<!-- Generated by graphviz version 14.1.2 (20260124.0452)
 -->
<!-- Title: SquadronTransitCapacity Pages: 1 -->
<svg width="518pt" height="831pt"
 viewBox="0.00 0.00 518.00 831.00" xmlns="http://www.w3.org/2000/svg" xmlns:xlink="http://www.w3.org/1999/xlink">
<g id="graph0" class="graph" transform="scale(1 1) rotate(0) translate(36 795)">
<title>SquadronTransitCapacity</title>
<polygon fill="#1a1a2e" stroke="none" points="-36,36 -36,-795 481.6,-795 481.6,36 -36,36"/>
<text xml:space="preserve" text-anchor="middle" x="222.8" y="-739.8" font-family="Helvetica,sans-Serif" font-size="16.00" fill="white">Squadron Transit Capacity Example</text>
<g id="clust1" class="cluster">
<title>cluster_fleet</title>
<polygon fill="#1a1a2e" stroke="#4ecdc4" stroke-dasharray="5,2" points="8,-591.25 8,-671 413,-671 413,-591.25 8,-591.25"/>
<text xml:space="preserve" text-anchor="middle" x="210.5" y="-651.8" font-family="Helvetica,sans-Serif" font-size="16.00" fill="#888888">Fleet Composition</text>
</g>
<g id="clust2" class="cluster">
<title>cluster_trip1</title>
<polygon fill="#1a1a2e" stroke="#95d5b2" stroke-dasharray="5,2" points="21,-71 21,-384.5 183,-384.5 183,-71 21,-71"/>
<text xml:space="preserve" text-anchor="middle" x="102" y="-365.3" font-family="Helvetica,sans-Serif" font-size="16.00" fill="#95d5b2">Trip 1 (50,000t max)</text>
</g>
<g id="clust3" class="cluster">
<title>cluster_trip2</title>
<polygon fill="#1a1a2e" stroke="#95d5b2" stroke-dasharray="5,2" points="192,-71 192,-305.5 376,-305.5 376,-71 192,-71"/>
<text xml:space="preserve" text-anchor="middle" x="284" y="-286.3" font-family="Helvetica,sans-Serif" font-size="16.00" fill="#95d5b2">Trip 2 (Return + Escort)</text>
</g>
<!-- tender -->
<g id="node1" class="node">
<title>tender</title>
<path fill="#2d2d44" stroke="#ffe66d" d="M277.2,-734.5C277.2,-734.5 142.8,-734.5 142.8,-734.5 136.8,-734.5 130.8,-728.5 130.8,-722.5 130.8,-722.5 130.8,-693.5 130.8,-693.5 130.8,-687.5 136.8,-681.5 142.8,-681.5 142.8,-681.5 277.2,-681.5 277.2,-681.5 283.2,-681.5 289.2,-687.5 289.2,-693.5 289.2,-693.5 289.2,-722.5 289.2,-722.5 289.2,-728.5 283.2,-734.5 277.2,-734.5"/>
<text xml:space="preserve" text-anchor="start" x="175.88" y="-719.05" font-family="Helvetica,sans-Serif" font-weight="bold" font-size="11.00" fill="white">Jump Tender</text>
<text xml:space="preserve" text-anchor="start" x="187.12" y="-703" font-family="Helvetica,sans-Serif" font-size="10.00" fill="#4ecdc4">8,000 tons</text>
<text xml:space="preserve" text-anchor="start" x="153" y="-688.7" font-family="Helvetica,sans-Serif" font-size="9.00" fill="#ffe66d">Squadron Capacity: 50,000t</text>
</g>
<!-- destroyers -->
<g id="node2" class="node">
<title>destroyers</title>
<path fill="#2d2d44" stroke="#4ecdc4" d="M184,-638.5C184,-638.5 28,-638.5 28,-638.5 22,-638.5 16,-632.5 16,-626.5 16,-626.5 16,-611.25 16,-611.25 16,-605.25 22,-599.25 28,-599.25 28,-599.25 184,-599.25 184,-599.25 190,-599.25 196,-605.25 196,-611.25 196,-611.25 196,-626.5 196,-626.5 196,-632.5 190,-638.5 184,-638.5"/>
<text xml:space="preserve" text-anchor="start" x="69.62" y="-623.05" font-family="Helvetica,sans-Serif" font-weight="bold" font-size="11.00" fill="white">4x Destroyers</text>
<text xml:space="preserve" text-anchor="start" x="58.38" y="-607" font-family="Helvetica,sans-Serif" font-size="10.00" fill="#4ecdc4">6,000t each = 24,000t</text>
</g>
<!-- tender&#45;&gt;destroyers -->
<!-- cruisers -->
<g id="node3" class="node">
<title>cruisers</title>
<path fill="#2d2d44" stroke="#4ecdc4" d="M393,-638.5C393,-638.5 237,-638.5 237,-638.5 231,-638.5 225,-632.5 225,-626.5 225,-626.5 225,-611.25 225,-611.25 225,-605.25 231,-599.25 237,-599.25 237,-599.25 393,-599.25 393,-599.25 399,-599.25 405,-605.25 405,-611.25 405,-611.25 405,-626.5 405,-626.5 405,-632.5 399,-638.5 393,-638.5"/>
<text xml:space="preserve" text-anchor="start" x="285" y="-623.05" font-family="Helvetica,sans-Serif" font-weight="bold" font-size="11.00" fill="white">2x Cruisers</text>
<text xml:space="preserve" text-anchor="start" x="264.75" y="-607" font-family="Helvetica,sans-Serif" font-size="10.00" fill="#4ecdc4">10,000t each = 20,000t</text>
</g>
<!-- tender&#45;&gt;cruisers -->
<!-- total -->
<g id="node4" class="node">
<title>total</title>
<path fill="#2d2d44" stroke="#ff6b6b" d="M218,-556.25C218,-556.25 26,-556.25 26,-556.25 20,-556.25 14,-550.25 14,-544.25 14,-544.25 14,-529 14,-529 14,-523 20,-517 26,-517 26,-517 218,-517 218,-517 224,-517 230,-523 230,-529 230,-529 230,-544.25 230,-544.25 230,-550.25 224,-556.25 218,-556.25"/>
<text xml:space="preserve" text-anchor="start" x="62.38" y="-540.8" font-family="Helvetica,sans-Serif" font-weight="bold" font-size="11.00" fill="white">Fleet Total: 52,000 tons</text>
<text xml:space="preserve" text-anchor="start" x="43.62" y="-524.75" font-family="Helvetica,sans-Serif" font-size="10.00" fill="#ff6b6b">Exceeds 50,000t capacity by 2,000t</text>
</g>
<!-- destroyers&#45;&gt;total -->
<!-- cruisers&#45;&gt;total -->
<!-- decision -->
<g id="node5" class="node">
<title>decision</title>
<path fill="#ffe66d" stroke="#4ecdc4" d="M110.17,-450.52C110.17,-450.52 26.47,-436.48 26.47,-436.48 20.55,-435.49 20.55,-433.51 26.47,-432.52 26.47,-432.52 110.17,-418.48 110.17,-418.48 116.08,-417.49 127.92,-417.49 133.83,-418.48 133.83,-418.48 217.53,-432.52 217.53,-432.52 223.45,-433.51 223.45,-435.49 217.53,-436.48 217.53,-436.48 133.83,-450.52 133.83,-450.52 127.92,-451.51 116.08,-451.51 110.17,-450.52"/>
<text xml:space="preserve" text-anchor="middle" x="122" y="-430.05" font-family="Helvetica,sans-Serif" font-size="11.00" fill="#1a1a2e">Requires Multiple Trips</text>
</g>
<!-- total&#45;&gt;decision -->
<g id="edge5" class="edge">
<title>total&#45;&gt;decision</title>
<path fill="none" stroke="#4ecdc4" d="M122,-516.79C122,-501.45 122,-479.59 122,-462.4"/>
<polygon fill="#4ecdc4" stroke="#4ecdc4" points="124.8,-462.42 122,-454.42 119.2,-462.42 124.8,-462.42"/>
</g>
<!-- trip1_tender -->
<g id="node6" class="node">
<title>trip1_tender</title>
<path fill="#2d2d44" stroke="#4ecdc4" d="M158.8,-352C158.8,-352 53.2,-352 53.2,-352 47.2,-352 41.2,-346 41.2,-340 41.2,-340 41.2,-328 41.2,-328 41.2,-322 47.2,-316 53.2,-316 53.2,-316 158.8,-316 158.8,-316 164.8,-316 170.8,-322 170.8,-328 170.8,-328 170.8,-340 170.8,-340 170.8,-346 164.8,-352 158.8,-352"/>
<text xml:space="preserve" text-anchor="middle" x="106" y="-329.55" font-family="Helvetica,sans-Serif" font-size="11.00" fill="white">Tender (8,000t)</text>
</g>
<!-- decision&#45;&gt;trip1_tender -->
<g id="edge6" class="edge">
<title>decision&#45;&gt;trip1_tender</title>
<path fill="none" stroke="#4ecdc4" d="M119.29,-416.79C116.83,-401.69 113.18,-379.21 110.33,-361.64"/>
<polygon fill="#4ecdc4" stroke="#4ecdc4" points="113.12,-361.4 109.08,-353.95 107.6,-362.3 113.12,-361.4"/>
</g>
<!-- trip2_tender -->
<g id="node10" class="node">
<title>trip2_tender</title>
<path fill="#2d2d44" stroke="#4ecdc4" d="M323.8,-273C323.8,-273 218.2,-273 218.2,-273 212.2,-273 206.2,-267 206.2,-261 206.2,-261 206.2,-249 206.2,-249 206.2,-243 212.2,-237 218.2,-237 218.2,-237 323.8,-237 323.8,-237 329.8,-237 335.8,-243 335.8,-249 335.8,-249 335.8,-261 335.8,-261 335.8,-267 329.8,-273 323.8,-273"/>
<text xml:space="preserve" text-anchor="middle" x="271" y="-250.55" font-family="Helvetica,sans-Serif" font-size="11.00" fill="white">Tender (8,000t)</text>
</g>
<!-- decision&#45;&gt;trip2_tender -->
<g id="edge7" class="edge">
<title>decision&#45;&gt;trip2_tender</title>
<path fill="none" stroke="#4ecdc4" d="M145.15,-420C159.18,-411.09 176.85,-398.5 190,-384.5 219.66,-352.94 244.6,-308.99 258.67,-281.54"/>
<polygon fill="#4ecdc4" stroke="#4ecdc4" points="261.07,-282.99 262.17,-274.59 256.07,-280.47 261.07,-282.99"/>
</g>
<!-- warning -->
<g id="node14" class="node">
<title>warning</title>
<polygon fill="#2d2d44" stroke="#ff6b6b" points="439.6,-474 258.4,-474 258.4,-395 445.6,-395 445.6,-468 439.6,-474"/>
<polyline fill="none" stroke="#ff6b6b" points="439.6,-474 439.6,-468"/>
<polyline fill="none" stroke="#ff6b6b" points="445.6,-468 439.6,-468"/>
<text xml:space="preserve" text-anchor="start" x="328" y="-458.55" font-family="Helvetica,sans-Serif" font-weight="bold" font-size="11.00" fill="#ff6b6b">Warning:</text>
<text xml:space="preserve" text-anchor="start" x="287.5" y="-443.45" font-family="Helvetica,sans-Serif" font-size="9.00" fill="#888888">Fleet is split across two systems</text>
<text xml:space="preserve" text-anchor="start" x="303.25" y="-429.7" font-family="Helvetica,sans-Serif" font-size="9.00" fill="#888888">during multi&#45;trip transits.</text>
<text xml:space="preserve" text-anchor="start" x="286.75" y="-415.95" font-family="Helvetica,sans-Serif" font-size="9.00" fill="#888888">If tender is destroyed, remaining</text>
<text xml:space="preserve" text-anchor="start" x="313" y="-402.2" font-family="Helvetica,sans-Serif" font-size="9.00" fill="#888888">ships are stranded!</text>
</g>
<!-- decision&#45;&gt;warning -->
<!-- trip1_dd -->
<g id="node7" class="node">
<title>trip1_dd</title>
<path fill="#2d2d44" stroke="#4ecdc4" d="M162,-273C162,-273 42,-273 42,-273 36,-273 30,-267 30,-261 30,-261 30,-249 30,-249 30,-243 36,-237 42,-237 42,-237 162,-237 162,-237 168,-237 174,-243 174,-249 174,-249 174,-261 174,-261 174,-267 168,-273 162,-273"/>
<text xml:space="preserve" text-anchor="middle" x="102" y="-250.55" font-family="Helvetica,sans-Serif" font-size="11.00" fill="white">4x Destroyers (24,000t)</text>
</g>
<!-- trip1_tender&#45;&gt;trip1_dd -->
<!-- trip1_ca -->
<g id="node8" class="node">
<title>trip1_ca</title>
<path fill="#2d2d44" stroke="#4ecdc4" d="M162,-194C162,-194 42,-194 42,-194 36,-194 30,-188 30,-182 30,-182 30,-170 30,-170 30,-164 36,-158 42,-158 42,-158 162,-158 162,-158 168,-158 174,-164 174,-170 174,-170 174,-182 174,-182 174,-188 168,-194 162,-194"/>
<text xml:space="preserve" text-anchor="middle" x="102" y="-171.55" font-family="Helvetica,sans-Serif" font-size="11.00" fill="white">1x Cruiser (10,000t)</text>
</g>
<!-- trip1_dd&#45;&gt;trip1_ca -->
<!-- trip1_subtotal -->
<g id="node9" class="node">
<title>trip1_subtotal</title>
<path fill="#1a1a2e" stroke="none" d="M151.88,-115C151.88,-115 74.12,-115 74.12,-115 68.12,-115 62.13,-109 62.13,-103 62.13,-103 62.13,-91 62.13,-91 62.13,-85 68.13,-79 74.13,-79 74.13,-79 151.88,-79 151.88,-79 157.88,-79 163.88,-85 163.88,-91 163.88,-91 163.88,-103 163.88,-103 163.88,-109 157.88,-115 151.88,-115"/>
<text xml:space="preserve" text-anchor="start" x="72.12" y="-92.55" font-family="Helvetica,sans-Serif" font-size="11.00" fill="#95d5b2">Subtotal: 42,000t</text>
</g>
<!-- trip1_ca&#45;&gt;trip1_subtotal -->
<!-- complete -->
<g id="node13" class="node">
<title>complete</title>
<ellipse fill="#95d5b2" stroke="#4ecdc4" cx="193" cy="-18" rx="64.8" ry="18"/>
<text xml:space="preserve" text-anchor="middle" x="193" y="-13.55" font-family="Helvetica,sans-Serif" font-size="11.00" fill="#1a1a2e">Fleet Reunited</text>
</g>
<!-- trip1_subtotal&#45;&gt;complete -->
<!-- trip2_ca -->
<g id="node11" class="node">
<title>trip2_ca</title>
<path fill="#2d2d44" stroke="#4ecdc4" d="M335,-194C335,-194 215,-194 215,-194 209,-194 203,-188 203,-182 203,-182 203,-170 203,-170 203,-164 209,-158 215,-158 215,-158 335,-158 335,-158 341,-158 347,-164 347,-170 347,-170 347,-182 347,-182 347,-188 341,-194 335,-194"/>
<text xml:space="preserve" text-anchor="middle" x="275" y="-171.55" font-family="Helvetica,sans-Serif" font-size="11.00" fill="white">1x Cruiser (10,000t)</text>
</g>
<!-- trip2_tender&#45;&gt;trip2_ca -->
<!-- trip2_subtotal -->
<g id="node12" class="node">
<title>trip2_subtotal</title>
<path fill="#1a1a2e" stroke="none" d="M300.88,-115C300.88,-115 223.12,-115 223.12,-115 217.12,-115 211.12,-109 211.12,-103 211.12,-103 211.12,-91 211.12,-91 211.12,-85 217.12,-79 223.12,-79 223.12,-79 300.88,-79 300.88,-79 306.88,-79 312.88,-85 312.88,-91 312.88,-91 312.88,-103 312.88,-103 312.88,-109 306.88,-115 300.88,-115"/>
<text xml:space="preserve" text-anchor="start" x="221.12" y="-92.55" font-family="Helvetica,sans-Serif" font-size="11.00" fill="#95d5b2">Subtotal: 18,000t</text>
</g>
<!-- trip2_ca&#45;&gt;trip2_subtotal -->
<!-- trip2_subtotal&#45;&gt;complete -->
<g id="edge14" class="edge">
<title>trip2_subtotal&#45;&gt;complete</title>
<path fill="none" stroke="#4ecdc4" d="M247.03,-79.29C237.51,-68.67 225.03,-54.75 214.47,-42.96"/>
<polygon fill="#4ecdc4" stroke="#4ecdc4" points="216.62,-41.16 209.19,-37.07 212.44,-44.89 216.62,-41.16"/>
</g>
</g>
</svg>
