<?xml version="1.0" encoding="UTF-8" standalone="no"?>
<!DOCTYPE svg PUBLIC "-//W3C//DTD SVG 1.1//EN"
 "http://www.w3.org/Graphics/SVG/1.1/DTD/svg11.dtd">
<!-- Generated by graphviz version 14.1.2 (20260124.0452)
 -->
<!-- Title: JumpPointDiscovery Pages: 1 -->
<svg width="589pt" height="841pt"
 viewBox="0.00 0.00 589.00 841.00" xmlns="http://www.w3.org/2000/svg" xmlns:xlink="http://www.w3.org/1999/xlink">
<g id="graph0" class="graph" transform="scale(1 1) rotate(0) translate(36 804.75)">
<title>JumpPointDiscovery</title>
<polygon fill="#1a1a2e" stroke="none" points="-36,36 -36,-804.75 553.25,-804.75 553.25,36 -36,36"/>
<text xml:space="preserve" text-anchor="middle" x="258.62" y="-749.55" font-family="Helvetica,sans-Serif" font-size="16.00" fill="white">Jump Point Discovery Process</text>
<!-- start -->
<g id="node1" class="node">
<title>start</title>
<ellipse fill="#4ecdc4" stroke="#4ecdc4" cx="425" cy="-726.25" rx="54" ry="18"/>
<text xml:space="preserve" text-anchor="middle" x="425" y="-721.8" font-family="Helvetica,sans-Serif" font-size="11.00" fill="#1a1a2e">Begin Survey</text>
</g>
<!-- design -->
<g id="node2" class="node">
<title>design</title>
<path fill="#2d2d44" stroke="#4ecdc4" d="M503,-671.25C503,-671.25 347,-671.25 347,-671.25 341,-671.25 335,-665.25 335,-659.25 335,-659.25 335,-631.75 335,-631.75 335,-625.75 341,-619.75 347,-619.75 347,-619.75 503,-619.75 503,-619.75 509,-619.75 515,-625.75 515,-631.75 515,-631.75 515,-659.25 515,-659.25 515,-665.25 509,-671.25 503,-671.25"/>
<text xml:space="preserve" text-anchor="start" x="373.25" y="-655.8" font-family="Helvetica,sans-Serif" font-weight="bold" font-size="11.00" fill="white">Design Survey Ship</text>
<text xml:space="preserve" text-anchor="start" x="354.12" y="-640.7" font-family="Helvetica,sans-Serif" font-size="9.00" fill="#888888">Include gravitational survey sensor</text>
<text xml:space="preserve" text-anchor="start" x="364.25" y="-626.95" font-family="Helvetica,sans-Serif" font-size="9.00" fill="#888888">Balance speed vs sensor size</text>
</g>
<!-- start&#45;&gt;design -->
<g id="edge1" class="edge">
<title>start&#45;&gt;design</title>
<path fill="none" stroke="#4ecdc4" d="M425,-707.77C425,-699.9 425,-690.32 425,-681.1"/>
<polygon fill="#4ecdc4" stroke="#4ecdc4" points="427.8,-681.21 425,-673.21 422.2,-681.21 427.8,-681.21"/>
</g>
<!-- assign -->
<g id="node3" class="node">
<title>assign</title>
<path fill="#2d2d44" stroke="#4ecdc4" d="M503,-582.75C503,-582.75 347,-582.75 347,-582.75 341,-582.75 335,-576.75 335,-570.75 335,-570.75 335,-543.25 335,-543.25 335,-537.25 341,-531.25 347,-531.25 347,-531.25 503,-531.25 503,-531.25 509,-531.25 515,-537.25 515,-543.25 515,-543.25 515,-570.75 515,-570.75 515,-576.75 509,-582.75 503,-582.75"/>
<text xml:space="preserve" text-anchor="start" x="367.25" y="-567.3" font-family="Helvetica,sans-Serif" font-weight="bold" font-size="11.00" fill="white">Assign Survey Orders</text>
<text xml:space="preserve" text-anchor="start" x="358.25" y="-552.2" font-family="Helvetica,sans-Serif" font-size="9.00" fill="#888888">Set fleet to &quot;Gravitational Survey&quot;</text>
<text xml:space="preserve" text-anchor="start" x="378.5" y="-538.45" font-family="Helvetica,sans-Serif" font-size="9.00" fill="#888888">Target system selected</text>
</g>
<!-- design&#45;&gt;assign -->
<g id="edge2" class="edge">
<title>design&#45;&gt;assign</title>
<path fill="none" stroke="#4ecdc4" d="M425,-619.48C425,-611.05 425,-601.49 425,-592.47"/>
<polygon fill="#4ecdc4" stroke="#4ecdc4" points="427.8,-592.48 425,-584.48 422.2,-592.48 427.8,-592.48"/>
</g>
<!-- navigate -->
<g id="node4" class="node">
<title>navigate</title>
<path fill="#2d2d44" stroke="#4ecdc4" d="M503,-494.25C503,-494.25 347,-494.25 347,-494.25 341,-494.25 335,-488.25 335,-482.25 335,-482.25 335,-454.75 335,-454.75 335,-448.75 341,-442.75 347,-442.75 347,-442.75 503,-442.75 503,-442.75 509,-442.75 515,-448.75 515,-454.75 515,-454.75 515,-482.25 515,-482.25 515,-488.25 509,-494.25 503,-494.25"/>
<text xml:space="preserve" text-anchor="start" x="360.12" y="-478.8" font-family="Helvetica,sans-Serif" font-weight="bold" font-size="11.00" fill="white">Navigate to Survey Point</text>
<text xml:space="preserve" text-anchor="start" x="375.12" y="-463.7" font-family="Helvetica,sans-Serif" font-size="9.00" fill="#888888">Ship travels to next point</text>
<text xml:space="preserve" text-anchor="start" x="357.88" y="-449.95" font-family="Helvetica,sans-Serif" font-size="9.00" fill="#888888">Points fixed at system generation</text>
</g>
<!-- assign&#45;&gt;navigate -->
<g id="edge3" class="edge">
<title>assign&#45;&gt;navigate</title>
<path fill="none" stroke="#4ecdc4" d="M425,-530.98C425,-522.55 425,-512.99 425,-503.97"/>
<polygon fill="#4ecdc4" stroke="#4ecdc4" points="427.8,-503.98 425,-495.98 422.2,-503.98 427.8,-503.98"/>
</g>
<!-- survey -->
<g id="node5" class="node">
<title>survey</title>
<path fill="#2d2d44" stroke="#4ecdc4" d="M362,-405.75C362,-405.75 206,-405.75 206,-405.75 200,-405.75 194,-399.75 194,-393.75 194,-393.75 194,-366.25 194,-366.25 194,-360.25 200,-354.25 206,-354.25 206,-354.25 362,-354.25 362,-354.25 368,-354.25 374,-360.25 374,-366.25 374,-366.25 374,-393.75 374,-393.75 374,-399.75 368,-405.75 362,-405.75"/>
<text xml:space="preserve" text-anchor="start" x="250.25" y="-390.3" font-family="Helvetica,sans-Serif" font-weight="bold" font-size="11.00" fill="white">Survey Point</text>
<text xml:space="preserve" text-anchor="start" x="227.38" y="-375.2" font-family="Helvetica,sans-Serif" font-size="9.00" fill="#888888">Sensor scans for anomalies</text>
<text xml:space="preserve" text-anchor="start" x="221.38" y="-361.45" font-family="Helvetica,sans-Serif" font-size="9.00" fill="#888888">Time based on sensor strength</text>
</g>
<!-- navigate&#45;&gt;survey -->
<g id="edge4" class="edge">
<title>navigate&#45;&gt;survey</title>
<path fill="none" stroke="#4ecdc4" d="M384.22,-442.48C368.14,-432.62 349.54,-421.21 332.76,-410.91"/>
<polygon fill="#4ecdc4" stroke="#4ecdc4" points="334.26,-408.55 325.98,-406.75 331.34,-413.32 334.26,-408.55"/>
</g>
<!-- check -->
<g id="node6" class="node">
<title>check</title>
<path fill="#ffe66d" stroke="#4ecdc4" d="M78.39,-299.6C78.39,-299.6 32.52,-287.65 32.52,-287.65 26.71,-286.14 26.71,-283.11 32.52,-281.6 32.52,-281.6 78.39,-269.65 78.39,-269.65 84.19,-268.14 95.81,-268.14 101.61,-269.65 101.61,-269.65 147.48,-281.6 147.48,-281.6 153.29,-283.11 153.29,-286.14 147.48,-287.65 147.48,-287.65 101.61,-299.6 101.61,-299.6 95.81,-301.11 84.19,-301.11 78.39,-299.6"/>
<text xml:space="preserve" text-anchor="middle" x="90" y="-280.18" font-family="Helvetica,sans-Serif" font-size="11.00" fill="#1a1a2e">JP Detected?</text>
</g>
<!-- survey&#45;&gt;check -->
<g id="edge5" class="edge">
<title>survey&#45;&gt;check</title>
<path fill="none" stroke="#4ecdc4" d="M231.76,-353.85C196.72,-336.99 151.71,-315.33 121.91,-300.98"/>
<polygon fill="#4ecdc4" stroke="#4ecdc4" points="123.34,-298.57 114.92,-297.62 120.91,-303.61 123.34,-298.57"/>
</g>
<!-- revealed -->
<g id="node7" class="node">
<title>revealed</title>
<path fill="#2d2d44" stroke="#4ecdc4" d="M168,-206.25C168,-206.25 12,-206.25 12,-206.25 6,-206.25 0,-200.25 0,-194.25 0,-194.25 0,-166.75 0,-166.75 0,-160.75 6,-154.75 12,-154.75 12,-154.75 168,-154.75 168,-154.75 174,-154.75 180,-160.75 180,-166.75 180,-166.75 180,-194.25 180,-194.25 180,-200.25 174,-206.25 168,-206.25"/>
<text xml:space="preserve" text-anchor="start" x="34.5" y="-190.8" font-family="Helvetica,sans-Serif" font-weight="bold" font-size="11.00" fill="white">Jump Point Revealed</text>
<text xml:space="preserve" text-anchor="start" x="24" y="-175.7" font-family="Helvetica,sans-Serif" font-size="9.00" fill="#95d5b2">Location marked on system map</text>
<text xml:space="preserve" text-anchor="start" x="31.88" y="-161.95" font-family="Helvetica,sans-Serif" font-size="9.00" fill="#888888">(Not at survey point location)</text>
</g>
<!-- check&#45;&gt;revealed -->
<g id="edge6" class="edge">
<title>check&#45;&gt;revealed</title>
<path fill="none" stroke="#95d5b2" d="M90,-266.3C90,-252.47 90,-232.67 90,-215.68"/>
<polygon fill="#95d5b2" stroke="#95d5b2" points="92.8,-216.09 90,-208.09 87.2,-216.09 92.8,-216.09"/>
<text xml:space="preserve" text-anchor="middle" x="97.12" y="-225.45" font-family="Helvetica,sans-Serif" font-size="9.00" fill="#95d5b2">Yes</text>
</g>
<!-- more_points -->
<g id="node8" class="node">
<title>more_points</title>
<path fill="#ffe66d" stroke="#4ecdc4" d="M254.4,-114.67C254.4,-114.67 209.78,-102.83 209.78,-102.83 203.98,-101.29 203.98,-98.21 209.78,-96.67 209.78,-96.67 254.4,-84.83 254.4,-84.83 260.2,-83.29 271.8,-83.29 277.6,-84.83 277.6,-84.83 322.22,-96.67 322.22,-96.67 328.02,-98.21 328.02,-101.29 322.22,-102.83 322.22,-102.83 277.6,-114.67 277.6,-114.67 271.8,-116.21 260.2,-116.21 254.4,-114.67"/>
<text xml:space="preserve" text-anchor="middle" x="266" y="-95.3" font-family="Helvetica,sans-Serif" font-size="11.00" fill="#1a1a2e">More Points?</text>
</g>
<!-- check&#45;&gt;more_points -->
<g id="edge7" class="edge">
<title>check&#45;&gt;more_points</title>
<path fill="none" stroke="#ff6b6b" d="M112.01,-271.92C135.96,-258.42 174.38,-234.42 201,-206.25 224.35,-181.54 243.64,-147.14 254.99,-124.42"/>
<polygon fill="#ff6b6b" stroke="#ff6b6b" points="257.42,-125.82 258.41,-117.41 252.39,-123.37 257.42,-125.82"/>
<text xml:space="preserve" text-anchor="middle" x="244.42" y="-176.82" font-family="Helvetica,sans-Serif" font-size="9.00" fill="#ff6b6b">No</text>
</g>
<!-- warning -->
<g id="node10" class="node">
<title>warning</title>
<polygon fill="#2d2d44" stroke="#ff6b6b" points="411.4,-317.25 244.6,-317.25 244.6,-252 417.4,-252 417.4,-311.25 411.4,-317.25"/>
<polyline fill="none" stroke="#ff6b6b" points="411.4,-317.25 411.4,-311.25"/>
<polyline fill="none" stroke="#ff6b6b" points="417.4,-311.25 411.4,-311.25"/>
<text xml:space="preserve" text-anchor="start" x="316.75" y="-301.8" font-family="Helvetica,sans-Serif" font-weight="bold" font-size="11.00" fill="#ff6b6b">Note:</text>
<text xml:space="preserve" text-anchor="start" x="271.38" y="-286.7" font-family="Helvetica,sans-Serif" font-size="9.00" fill="#888888">Hidden JPs have much lower</text>
<text xml:space="preserve" text-anchor="start" x="260.5" y="-272.95" font-family="Helvetica,sans-Serif" font-size="9.00" fill="#888888">detection probability &#45; a &quot;complete&quot;</text>
<text xml:space="preserve" text-anchor="start" x="273.25" y="-259.2" font-family="Helvetica,sans-Serif" font-size="9.00" fill="#888888">survey may miss hidden JPs</text>
</g>
<!-- check&#45;&gt;warning -->
<!-- revealed&#45;&gt;more_points -->
<g id="edge8" class="edge">
<title>revealed&#45;&gt;more_points</title>
<path fill="none" stroke="#4ecdc4" d="M146.17,-154.37C174.84,-141.54 208.72,-126.38 233.13,-115.46"/>
<polygon fill="#4ecdc4" stroke="#4ecdc4" points="234.13,-118.08 240.29,-112.26 231.84,-112.97 234.13,-118.08"/>
</g>
<!-- more_points&#45;&gt;navigate -->
<g id="edge9" class="edge">
<title>more_points&#45;&gt;navigate</title>
<path fill="none" stroke="#4ecdc4" d="M310.86,-106.35C379.57,-116.19 503,-139.45 503,-179.5 503,-381 503,-381 503,-381 503,-403.12 488.76,-422.12 472.45,-436.64"/>
<polygon fill="#4ecdc4" stroke="#4ecdc4" points="470.86,-434.33 466.53,-441.61 474.46,-438.61 470.86,-434.33"/>
<text xml:space="preserve" text-anchor="middle" x="510.12" y="-280.95" font-family="Helvetica,sans-Serif" font-size="9.00" fill="#888888">Yes</text>
</g>
<!-- complete -->
<g id="node9" class="node">
<title>complete</title>
<ellipse fill="#95d5b2" stroke="#4ecdc4" cx="266" cy="-18" rx="59.68" ry="18"/>
<text xml:space="preserve" text-anchor="middle" x="266" y="-13.55" font-family="Helvetica,sans-Serif" font-size="11.00" fill="#1a1a2e">Survey Complete</text>
</g>
<!-- more_points&#45;&gt;complete -->
<g id="edge10" class="edge">
<title>more_points&#45;&gt;complete</title>
<path fill="none" stroke="#95d5b2" d="M266,-81.45C266,-70.99 266,-57.46 266,-45.66"/>
<polygon fill="#95d5b2" stroke="#95d5b2" points="268.8,-45.78 266,-37.78 263.2,-45.78 268.8,-45.78"/>
<text xml:space="preserve" text-anchor="middle" x="272" y="-55.2" font-family="Helvetica,sans-Serif" font-size="9.00" fill="#95d5b2">No</text>
</g>
</g>
</svg>
