<?xml version="1.0" encoding="UTF-8" standalone="no"?>
<!DOCTYPE svg PUBLIC "-//W3C//DTD SVG 1.1//EN"
 "http://www.w3.org/Graphics/SVG/1.1/DTD/svg11.dtd">
<!-- Generated by graphviz version 14.1.2 (20260124.0452)
 -->
<!-- Title: GateConstructionTimeline Pages: 1 -->
<svg width="1401pt" height="197pt"
 viewBox="0.00 0.00 1401.00 197.00" xmlns="http://www.w3.org/2000/svg" xmlns:xlink="http://www.w3.org/1999/xlink">
<g id="graph0" class="graph" transform="scale(1 1) rotate(0) translate(4 193)">
<title>GateConstructionTimeline</title>
<polygon fill="#1a1a2e" stroke="none" points="-4,4 -4,-193 1397.3,-193 1397.3,4 -4,4"/>
<!-- start -->
<g id="node1" class="node">
<title>start</title>
<ellipse fill="#4ecdc4" stroke="#4ecdc4" cx="52.15" cy="-61.5" rx="52.15" ry="29.52"/>
<text xml:space="preserve" text-anchor="middle" x="52.15" y="-68.88" font-family="Helvetica,sans-Serif" font-size="10.00" fill="#1a1a2e">Jump Point</text>
<text xml:space="preserve" text-anchor="middle" x="52.15" y="-57.62" font-family="Helvetica,sans-Serif" font-size="10.00" fill="#1a1a2e">Theory</text>
<text xml:space="preserve" text-anchor="middle" x="52.15" y="-46.38" font-family="Helvetica,sans-Serif" font-size="10.00" fill="#1a1a2e">(Prerequisite)</text>
</g>
<!-- t1 -->
<g id="node2" class="node">
<title>t1</title>
<path fill="#ff6b6b" stroke="#4ecdc4" d="M244.05,-79.5C244.05,-79.5 214.05,-79.5 214.05,-79.5 208.05,-79.5 202.05,-73.5 202.05,-67.5 202.05,-67.5 202.05,-55.5 202.05,-55.5 202.05,-49.5 208.05,-43.5 214.05,-43.5 214.05,-43.5 244.05,-43.5 244.05,-43.5 250.05,-43.5 256.05,-49.5 256.05,-55.5 256.05,-55.5 256.05,-67.5 256.05,-67.5 256.05,-73.5 250.05,-79.5 244.05,-79.5"/>
<text xml:space="preserve" text-anchor="middle" x="229.05" y="-63.25" font-family="Helvetica,sans-Serif" font-size="10.00" fill="white">180</text>
<text xml:space="preserve" text-anchor="middle" x="229.05" y="-52" font-family="Helvetica,sans-Serif" font-size="10.00" fill="white">days</text>
</g>
<!-- start&#45;&gt;t1 -->
<g id="edge1" class="edge">
<title>start&#45;&gt;t1</title>
<path fill="none" stroke="#4ecdc4" d="M104.68,-61.5C133.29,-61.5 168.1,-61.5 193.44,-61.5"/>
<polygon fill="#4ecdc4" stroke="#4ecdc4" points="193.14,-63.95 200.14,-61.5 193.14,-59.05 193.14,-63.95"/>
<text xml:space="preserve" text-anchor="middle" x="153.17" y="-62.7" font-family="Helvetica,sans-Serif" font-size="9.00" fill="#888888">Research</text>
</g>
<!-- t2 -->
<g id="node3" class="node">
<title>t2</title>
<path fill="#ff6b6b" stroke="#4ecdc4" d="M385.42,-118.5C385.42,-118.5 355.42,-118.5 355.42,-118.5 349.42,-118.5 343.42,-112.5 343.42,-106.5 343.42,-106.5 343.42,-94.5 343.42,-94.5 343.42,-88.5 349.42,-82.5 355.42,-82.5 355.42,-82.5 385.42,-82.5 385.42,-82.5 391.42,-82.5 397.42,-88.5 397.42,-94.5 397.42,-94.5 397.42,-106.5 397.42,-106.5 397.42,-112.5 391.42,-118.5 385.42,-118.5"/>
<text xml:space="preserve" text-anchor="middle" x="370.42" y="-102.25" font-family="Helvetica,sans-Serif" font-size="10.00" fill="white">150</text>
<text xml:space="preserve" text-anchor="middle" x="370.42" y="-91" font-family="Helvetica,sans-Serif" font-size="10.00" fill="white">days</text>
</g>
<!-- t1&#45;&gt;t2 -->
<g id="edge2" class="edge">
<title>t1&#45;&gt;t2</title>
<path fill="none" stroke="#4ecdc4" d="M256.26,-68.84C278.65,-75.1 311,-84.15 335.39,-90.98"/>
<polygon fill="#4ecdc4" stroke="#4ecdc4" points="334.47,-93.26 341.87,-92.79 335.79,-88.54 334.47,-93.26"/>
</g>
<!-- small -->
<g id="node10" class="node">
<title>small</title>
<path fill="#2d2d44" stroke="#4ecdc4" d="M396.05,-45.38C396.05,-45.38 344.8,-45.38 344.8,-45.38 338.8,-45.38 332.8,-39.38 332.8,-33.38 332.8,-33.38 332.8,-15.63 332.8,-15.63 332.8,-9.63 338.8,-3.62 344.8,-3.62 344.8,-3.62 396.05,-3.62 396.05,-3.62 402.05,-3.62 408.05,-9.62 408.05,-15.62 408.05,-15.62 408.05,-33.38 408.05,-33.38 408.05,-39.38 402.05,-45.38 396.05,-45.38"/>
<text xml:space="preserve" text-anchor="middle" x="370.42" y="-31.88" font-family="Helvetica,sans-Serif" font-size="10.00" fill="white">Small Module</text>
<text xml:space="preserve" text-anchor="middle" x="370.42" y="-20.62" font-family="Helvetica,sans-Serif" font-size="10.00" fill="white">360 days</text>
<text xml:space="preserve" text-anchor="middle" x="370.42" y="-9.38" font-family="Helvetica,sans-Serif" font-size="10.00" fill="white">(Auto&#45;unlock)</text>
</g>
<!-- t1&#45;&gt;small -->
<g id="edge9" class="edge">
<title>t1&#45;&gt;small</title>
<path fill="none" stroke="#888888" stroke-dasharray="5,2" d="M256.26,-54.54C275.44,-49.45 301.92,-42.42 324.44,-36.44"/>
<polygon fill="#888888" stroke="#888888" points="324.94,-38.84 331.08,-34.68 323.69,-34.11 324.94,-38.84"/>
<text xml:space="preserve" text-anchor="middle" x="294.42" y="-47.51" font-family="Helvetica,sans-Serif" font-size="9.00" fill="#888888">Auto</text>
</g>
<!-- t3 -->
<g id="node4" class="node">
<title>t3</title>
<path fill="#ffe66d" stroke="#4ecdc4" d="M543.67,-119.5C543.67,-119.5 513.67,-119.5 513.67,-119.5 507.67,-119.5 501.67,-113.5 501.67,-107.5 501.67,-107.5 501.67,-95.5 501.67,-95.5 501.67,-89.5 507.67,-83.5 513.67,-83.5 513.67,-83.5 543.67,-83.5 543.67,-83.5 549.67,-83.5 555.67,-89.5 555.67,-95.5 555.67,-95.5 555.67,-107.5 555.67,-107.5 555.67,-113.5 549.67,-119.5 543.67,-119.5"/>
<text xml:space="preserve" text-anchor="middle" x="528.67" y="-103.25" font-family="Helvetica,sans-Serif" font-size="10.00" fill="#1a1a2e">120</text>
<text xml:space="preserve" text-anchor="middle" x="528.67" y="-92" font-family="Helvetica,sans-Serif" font-size="10.00" fill="#1a1a2e">days</text>
</g>
<!-- t2&#45;&gt;t3 -->
<g id="edge3" class="edge">
<title>t2&#45;&gt;t3</title>
<path fill="none" stroke="#4ecdc4" d="M397.58,-100.67C423.75,-100.83 464.16,-101.09 493,-101.28"/>
<polygon fill="#4ecdc4" stroke="#4ecdc4" points="492.64,-103.73 499.66,-101.32 492.68,-98.83 492.64,-103.73"/>
</g>
<!-- t4 -->
<g id="node5" class="node">
<title>t4</title>
<path fill="#ffe66d" stroke="#4ecdc4" d="M691.3,-119.5C691.3,-119.5 661.3,-119.5 661.3,-119.5 655.3,-119.5 649.3,-113.5 649.3,-107.5 649.3,-107.5 649.3,-95.5 649.3,-95.5 649.3,-89.5 655.3,-83.5 661.3,-83.5 661.3,-83.5 691.3,-83.5 691.3,-83.5 697.3,-83.5 703.3,-89.5 703.3,-95.5 703.3,-95.5 703.3,-107.5 703.3,-107.5 703.3,-113.5 697.3,-119.5 691.3,-119.5"/>
<text xml:space="preserve" text-anchor="middle" x="676.3" y="-103.25" font-family="Helvetica,sans-Serif" font-size="10.00" fill="#1a1a2e">90</text>
<text xml:space="preserve" text-anchor="middle" x="676.3" y="-92" font-family="Helvetica,sans-Serif" font-size="10.00" fill="#1a1a2e">days</text>
</g>
<!-- t3&#45;&gt;t4 -->
<g id="edge4" class="edge">
<title>t3&#45;&gt;t4</title>
<path fill="none" stroke="#4ecdc4" d="M556.04,-101.5C579.76,-101.5 614.75,-101.5 640.7,-101.5"/>
<polygon fill="#4ecdc4" stroke="#4ecdc4" points="640.61,-103.95 647.61,-101.5 640.61,-99.05 640.61,-103.95"/>
</g>
<!-- t5 -->
<g id="node6" class="node">
<title>t5</title>
<path fill="#ffe66d" stroke="#4ecdc4" d="M836.67,-180.5C836.67,-180.5 806.67,-180.5 806.67,-180.5 800.67,-180.5 794.67,-174.5 794.67,-168.5 794.67,-168.5 794.67,-156.5 794.67,-156.5 794.67,-150.5 800.67,-144.5 806.67,-144.5 806.67,-144.5 836.67,-144.5 836.67,-144.5 842.67,-144.5 848.67,-150.5 848.67,-156.5 848.67,-156.5 848.67,-168.5 848.67,-168.5 848.67,-174.5 842.67,-180.5 836.67,-180.5"/>
<text xml:space="preserve" text-anchor="middle" x="821.67" y="-164.25" font-family="Helvetica,sans-Serif" font-size="10.00" fill="#1a1a2e">60</text>
<text xml:space="preserve" text-anchor="middle" x="821.67" y="-153" font-family="Helvetica,sans-Serif" font-size="10.00" fill="#1a1a2e">days</text>
</g>
<!-- t4&#45;&gt;t5 -->
<g id="edge5" class="edge">
<title>t4&#45;&gt;t5</title>
<path fill="none" stroke="#4ecdc4" d="M703.6,-112.69C727.04,-122.66 761.49,-137.32 786.95,-148.15"/>
<polygon fill="#4ecdc4" stroke="#4ecdc4" points="785.75,-150.3 793.15,-150.79 787.67,-145.8 785.75,-150.3"/>
</g>
<!-- note1 -->
<g id="node12" class="node">
<title>note1</title>
<polygon fill="#2d2d44" stroke="#4ecdc4" points="875.05,-108.88 762.3,-108.88 762.3,-52.12 881.05,-52.12 881.05,-102.88 875.05,-108.88"/>
<polyline fill="none" stroke="#4ecdc4" points="875.05,-108.88 875.05,-102.88"/>
<polyline fill="none" stroke="#4ecdc4" points="881.05,-102.88 875.05,-102.88"/>
<text xml:space="preserve" text-anchor="middle" x="821.67" y="-96.33" font-family="Helvetica,sans-Serif" font-size="9.00" fill="white">Key Constraints:</text>
<text xml:space="preserve" text-anchor="middle" x="821.67" y="-86.58" font-family="Helvetica,sans-Serif" font-size="9.00" fill="white">&#45; Modules do NOT stack</text>
<text xml:space="preserve" text-anchor="middle" x="821.67" y="-76.83" font-family="Helvetica,sans-Serif" font-size="9.00" fill="white">&#45; One ship per jump point</text>
<text xml:space="preserve" text-anchor="middle" x="821.67" y="-67.08" font-family="Helvetica,sans-Serif" font-size="9.00" fill="white">&#45; No benefit from multiple</text>
<text xml:space="preserve" text-anchor="middle" x="821.67" y="-57.33" font-family="Helvetica,sans-Serif" font-size="9.00" fill="white"> &#160;modules on same ship</text>
</g>
<!-- t4&#45;&gt;note1 -->
<g id="edge10" class="edge">
<title>t4&#45;&gt;note1</title>
<path fill="none" stroke="#666666" stroke-dasharray="1,5" d="M703.6,-97.65C719.93,-95.26 741.59,-92.08 761.85,-89.12"/>
</g>
<!-- t6 -->
<g id="node7" class="node">
<title>t6</title>
<path fill="#95d5b2" stroke="#4ecdc4" d="M982.05,-180.5C982.05,-180.5 952.05,-180.5 952.05,-180.5 946.05,-180.5 940.05,-174.5 940.05,-168.5 940.05,-168.5 940.05,-156.5 940.05,-156.5 940.05,-150.5 946.05,-144.5 952.05,-144.5 952.05,-144.5 982.05,-144.5 982.05,-144.5 988.05,-144.5 994.05,-150.5 994.05,-156.5 994.05,-156.5 994.05,-168.5 994.05,-168.5 994.05,-174.5 988.05,-180.5 982.05,-180.5"/>
<text xml:space="preserve" text-anchor="middle" x="967.05" y="-164.25" font-family="Helvetica,sans-Serif" font-size="10.00" fill="#1a1a2e">45</text>
<text xml:space="preserve" text-anchor="middle" x="967.05" y="-153" font-family="Helvetica,sans-Serif" font-size="10.00" fill="#1a1a2e">days</text>
</g>
<!-- t5&#45;&gt;t6 -->
<g id="edge6" class="edge">
<title>t5&#45;&gt;t6</title>
<path fill="none" stroke="#4ecdc4" d="M848.97,-162.5C872.21,-162.5 906.27,-162.5 931.67,-162.5"/>
<polygon fill="#4ecdc4" stroke="#4ecdc4" points="931.4,-164.95 938.4,-162.5 931.4,-160.05 931.4,-164.95"/>
</g>
<!-- t7 -->
<g id="node8" class="node">
<title>t7</title>
<path fill="#95d5b2" stroke="#4ecdc4" d="M1095.05,-180.5C1095.05,-180.5 1065.05,-180.5 1065.05,-180.5 1059.05,-180.5 1053.05,-174.5 1053.05,-168.5 1053.05,-168.5 1053.05,-156.5 1053.05,-156.5 1053.05,-150.5 1059.05,-144.5 1065.05,-144.5 1065.05,-144.5 1095.05,-144.5 1095.05,-144.5 1101.05,-144.5 1107.05,-150.5 1107.05,-156.5 1107.05,-156.5 1107.05,-168.5 1107.05,-168.5 1107.05,-174.5 1101.05,-180.5 1095.05,-180.5"/>
<text xml:space="preserve" text-anchor="middle" x="1080.05" y="-164.25" font-family="Helvetica,sans-Serif" font-size="10.00" fill="#1a1a2e">30</text>
<text xml:space="preserve" text-anchor="middle" x="1080.05" y="-153" font-family="Helvetica,sans-Serif" font-size="10.00" fill="#1a1a2e">days</text>
</g>
<!-- t6&#45;&gt;t7 -->
<g id="edge7" class="edge">
<title>t6&#45;&gt;t7</title>
<path fill="none" stroke="#4ecdc4" d="M994.35,-162.5C1009.42,-162.5 1028.5,-162.5 1044.74,-162.5"/>
<polygon fill="#4ecdc4" stroke="#4ecdc4" points="1044.42,-164.95 1051.42,-162.5 1044.42,-160.05 1044.42,-164.95"/>
</g>
<!-- t8 -->
<g id="node9" class="node">
<title>t8</title>
<path fill="#95d5b2" stroke="#4ecdc4" d="M1208.05,-180.5C1208.05,-180.5 1178.05,-180.5 1178.05,-180.5 1172.05,-180.5 1166.05,-174.5 1166.05,-168.5 1166.05,-168.5 1166.05,-156.5 1166.05,-156.5 1166.05,-150.5 1172.05,-144.5 1178.05,-144.5 1178.05,-144.5 1208.05,-144.5 1208.05,-144.5 1214.05,-144.5 1220.05,-150.5 1220.05,-156.5 1220.05,-156.5 1220.05,-168.5 1220.05,-168.5 1220.05,-174.5 1214.05,-180.5 1208.05,-180.5"/>
<text xml:space="preserve" text-anchor="middle" x="1193.05" y="-164.25" font-family="Helvetica,sans-Serif" font-size="10.00" fill="#1a1a2e">20</text>
<text xml:space="preserve" text-anchor="middle" x="1193.05" y="-153" font-family="Helvetica,sans-Serif" font-size="10.00" fill="#1a1a2e">days</text>
</g>
<!-- t7&#45;&gt;t8 -->
<g id="edge8" class="edge">
<title>t7&#45;&gt;t8</title>
<path fill="none" stroke="#4ecdc4" d="M1107.35,-162.5C1122.42,-162.5 1141.5,-162.5 1157.74,-162.5"/>
<polygon fill="#4ecdc4" stroke="#4ecdc4" points="1157.42,-164.95 1164.42,-162.5 1157.42,-160.05 1157.42,-164.95"/>
</g>
<!-- ex1 -->
<g id="node11" class="node">
<title>ex1</title>
<path fill="#2d2d44" stroke="#4ecdc4" d="M1381.3,-189C1381.3,-189 1291.05,-189 1291.05,-189 1285.05,-189 1279.05,-183 1279.05,-177 1279.05,-177 1279.05,-148 1279.05,-148 1279.05,-142 1285.05,-136 1291.05,-136 1291.05,-136 1381.3,-136 1381.3,-136 1387.3,-136 1393.3,-142 1393.3,-148 1393.3,-148 1393.3,-177 1393.3,-177 1393.3,-183 1387.3,-189 1381.3,-189"/>
<text xml:space="preserve" text-anchor="middle" x="1336.17" y="-175.5" font-family="Helvetica,sans-Serif" font-size="10.00" fill="white">5 Jump Points:</text>
<text xml:space="preserve" text-anchor="middle" x="1336.17" y="-164.25" font-family="Helvetica,sans-Serif" font-size="10.00" fill="white">900 days with 180&#45;day</text>
<text xml:space="preserve" text-anchor="middle" x="1336.17" y="-153" font-family="Helvetica,sans-Serif" font-size="10.00" fill="white">100 days with 20&#45;day</text>
<text xml:space="preserve" text-anchor="middle" x="1336.17" y="-141.75" font-family="Helvetica,sans-Serif" font-size="10.00" fill="white">(9x faster)</text>
</g>
<!-- t8&#45;&gt;ex1 -->
<g id="edge11" class="edge">
<title>t8&#45;&gt;ex1</title>
<path fill="none" stroke="#666666" stroke-dasharray="1,5" d="M1220.26,-162.5C1234.5,-162.5 1252.79,-162.5 1270.58,-162.5"/>
<polygon fill="#666666" stroke="#666666" points="1270.18,-164.95 1277.18,-162.5 1270.18,-160.05 1270.18,-164.95"/>
</g>
<!-- note2 -->
<g id="node13" class="node">
<title>note2</title>
<polygon fill="#2d2d44" stroke="#4ecdc4" points="584.3,-47 467.05,-47 467.05,0 590.3,0 590.3,-41 584.3,-47"/>
<polyline fill="none" stroke="#4ecdc4" points="584.3,-47 584.3,-41"/>
<polyline fill="none" stroke="#4ecdc4" points="590.3,-41 584.3,-41"/>
<text xml:space="preserve" text-anchor="middle" x="528.67" y="-34.45" font-family="Helvetica,sans-Serif" font-size="9.00" fill="white">Speed Boosts:</text>
<text xml:space="preserve" text-anchor="middle" x="528.67" y="-24.7" font-family="Helvetica,sans-Serif" font-size="9.00" fill="white">&#45; Research faster modules</text>
<text xml:space="preserve" text-anchor="middle" x="528.67" y="-14.95" font-family="Helvetica,sans-Serif" font-size="9.00" fill="white">&#45; Commander with Factory</text>
<text xml:space="preserve" text-anchor="middle" x="528.67" y="-5.2" font-family="Helvetica,sans-Serif" font-size="9.00" fill="white"> &#160;Production Bonus</text>
</g>
<!-- small&#45;&gt;note2 -->
<g id="edge12" class="edge">
<title>small&#45;&gt;note2</title>
<path fill="none" stroke="#666666" stroke-dasharray="1,5" d="M408.45,-24.26C425.87,-24.15 447.1,-24.02 466.79,-23.89"/>
</g>
</g>
</svg>
