<?xml version="1.0" encoding="UTF-8" standalone="no"?>
<!DOCTYPE svg PUBLIC "-//W3C//DTD SVG 1.1//EN"
 "http://www.w3.org/Graphics/SVG/1.1/DTD/svg11.dtd">
<!-- Generated by graphviz version 14.1.2 (20260124.0452)
 -->
<!-- Title: SpeedDistanceScale Pages: 1 -->
<svg width="1046pt" height="246pt"
 viewBox="0.00 0.00 1046.00 246.00" xmlns="http://www.w3.org/2000/svg" xmlns:xlink="http://www.w3.org/1999/xlink">
<g id="graph0" class="graph" transform="scale(1 1) rotate(0) translate(4 242)">
<title>SpeedDistanceScale</title>
<polygon fill="#1a1a2e" stroke="none" points="-4,4 -4,-242 1041.6,-242 1041.6,4 -4,4"/>
<g id="clust1" class="cluster">
<title>cluster_scale</title>
<polygon fill="#1a1a2e" stroke="#4ecdc4" stroke-dasharray="5,2" points="526.85,-26 526.85,-106 1029.6,-106 1029.6,-26 526.85,-26"/>
<text xml:space="preserve" text-anchor="middle" x="778.22" y="-90.6" font-family="Helvetica,sans-Serif" font-size="12.00" fill="#4ecdc4">Distance Scale (billions of km)</text>
</g>
<g id="clust2" class="cluster">
<title>cluster_reference</title>
<polygon fill="#1a1a2e" stroke="#4ecdc4" stroke-dasharray="5,2" points="29.62,-147 29.62,-230 612,-230 612,-147 29.62,-147"/>
<text xml:space="preserve" text-anchor="middle" x="320.81" y="-214.6" font-family="Helvetica,sans-Serif" font-size="12.00" fill="#4ecdc4">Reference Distances</text>
</g>
<!-- title -->
<g id="node1" class="node">
<title>title</title>
<polygon fill="#2d2d44" stroke="none" stroke-width="2" points="195.25,-74 0,-74 0,-38 195.25,-38 195.25,-74"/>
<text xml:space="preserve" text-anchor="middle" x="97.62" y="-49.05" font-family="Helvetica,sans-Serif" font-size="16.00" fill="#ffe66d">Distance = Speed x Time</text>
</g>
<!-- formula -->
<g id="node2" class="node">
<title>formula</title>
<path fill="#2d2d44" stroke="#4ecdc4" stroke-width="2" d="M410.5,-112C410.5,-112 279.25,-112 279.25,-112 273.25,-112 267.25,-106 267.25,-100 267.25,-100 267.25,-12 267.25,-12 267.25,-6 273.25,0 279.25,0 279.25,0 410.5,0 410.5,0 416.5,0 422.5,-6 422.5,-12 422.5,-12 422.5,-100 422.5,-100 422.5,-106 416.5,-112 410.5,-112"/>
<text xml:space="preserve" text-anchor="start" x="281.25" y="-91.55" font-family="Helvetica,sans-Serif" font-size="11.00" fill="#4ecdc4">Speed:</text>
<text xml:space="preserve" text-anchor="start" x="356" y="-91.55" font-family="Helvetica,sans-Serif" font-size="11.00" fill="white">4,000 km/s</text>
<text xml:space="preserve" text-anchor="start" x="281.25" y="-71.55" font-family="Helvetica,sans-Serif" font-size="11.00" fill="#4ecdc4">Time:</text>
<text xml:space="preserve" text-anchor="start" x="377" y="-71.55" font-family="Helvetica,sans-Serif" font-size="11.00" fill="white">5 days</text>
<text xml:space="preserve" text-anchor="start" x="281.25" y="-51.55" font-family="Helvetica,sans-Serif" font-size="11.00" fill="#4ecdc4">Seconds:</text>
<text xml:space="preserve" text-anchor="start" x="361.25" y="-51.55" font-family="Helvetica,sans-Serif" font-size="11.00" fill="white">432,000 s</text>
<text xml:space="preserve" text-anchor="start" x="293.87" y="-31.55" font-family="Helvetica,sans-Serif" font-size="11.00" fill="#ffe66d">_________________</text>
<text xml:space="preserve" text-anchor="start" x="281.25" y="-11.55" font-family="Helvetica,sans-Serif" font-size="11.00" fill="#95d5b2">Distance:</text>
<text xml:space="preserve" text-anchor="start" x="334.25" y="-11.55" font-family="Helvetica,sans-Serif" font-size="11.00" fill="#95d5b2">1.728 billion km</text>
</g>
<!-- title&#45;&gt;formula -->
<!-- start -->
<g id="node3" class="node">
<title>start</title>
<ellipse fill="#2d2d44" stroke="#4ecdc4" stroke-width="2" cx="549.25" cy="-56" rx="14.4" ry="14.4"/>
<text xml:space="preserve" text-anchor="middle" x="549.25" y="-51.55" font-family="Helvetica,sans-Serif" font-size="11.00" fill="white">0</text>
</g>
<!-- formula&#45;&gt;start -->
<!-- mark1 -->
<g id="node4" class="node">
<title>mark1</title>
<ellipse fill="#2d2d44" stroke="#4ecdc4" stroke-width="2" cx="690.4" cy="-56" rx="14.4" ry="14.4"/>
<text xml:space="preserve" text-anchor="middle" x="690.4" y="-51.55" font-family="Helvetica,sans-Serif" font-size="11.00" fill="white">0.5</text>
</g>
<!-- start&#45;&gt;mark1 -->
<g id="edge1" class="edge">
<title>start&#45;&gt;mark1</title>
<path fill="none" stroke="#4ecdc4" stroke-width="2" d="M564.62,-56C564.62,-56 662.02,-56 662.02,-56"/>
<polygon fill="#4ecdc4" stroke="#4ecdc4" stroke-width="2" points="662.02,-59.5 672.02,-56 662.02,-52.5 662.02,-59.5"/>
</g>
<!-- mark2 -->
<g id="node5" class="node">
<title>mark2</title>
<ellipse fill="#2d2d44" stroke="#4ecdc4" stroke-width="2" cx="791.2" cy="-56" rx="14.4" ry="14.4"/>
<text xml:space="preserve" text-anchor="middle" x="791.2" y="-51.55" font-family="Helvetica,sans-Serif" font-size="11.00" fill="white">1.0</text>
</g>
<!-- mark1&#45;&gt;mark2 -->
<g id="edge2" class="edge">
<title>mark1&#45;&gt;mark2</title>
<path fill="none" stroke="#4ecdc4" stroke-width="2" d="M705.71,-56C705.71,-56 763.05,-56 763.05,-56"/>
<polygon fill="#4ecdc4" stroke="#4ecdc4" stroke-width="2" points="763.05,-59.5 773.05,-56 763.05,-52.5 763.05,-59.5"/>
</g>
<!-- travel -->
<g id="node6" class="node">
<title>travel</title>
<ellipse fill="#95d5b2" stroke="#4ecdc4" stroke-width="2" cx="899.2" cy="-56" rx="21.6" ry="21.6"/>
<text xml:space="preserve" text-anchor="middle" x="899.2" y="-57.55" font-family="Helvetica,sans-Serif" font-size="11.00" fill="#1a1a2e">1.728</text>
<text xml:space="preserve" text-anchor="middle" x="899.2" y="-45.55" font-family="Helvetica,sans-Serif" font-size="11.00" fill="#1a1a2e">(5 days)</text>
</g>
<!-- mark2&#45;&gt;travel -->
<g id="edge3" class="edge">
<title>mark2&#45;&gt;travel</title>
<path fill="none" stroke="#4ecdc4" stroke-width="2" d="M806.22,-56C806.22,-56 863.78,-56 863.78,-56"/>
<polygon fill="#4ecdc4" stroke="#4ecdc4" stroke-width="2" points="863.78,-59.5 873.78,-56 863.78,-52.5 863.78,-59.5"/>
</g>
<!-- mark3 -->
<g id="node7" class="node">
<title>mark3</title>
<ellipse fill="#2d2d44" stroke="#4ecdc4" stroke-width="2" cx="1007.2" cy="-56" rx="14.4" ry="14.4"/>
<text xml:space="preserve" text-anchor="middle" x="1007.2" y="-51.55" font-family="Helvetica,sans-Serif" font-size="11.00" fill="white">2.0</text>
</g>
<!-- travel&#45;&gt;mark3 -->
<g id="edge4" class="edge">
<title>travel&#45;&gt;mark3</title>
<path fill="none" stroke="#4ecdc4" stroke-width="2" d="M921.58,-56C921.58,-56 978.79,-56 978.79,-56"/>
<polygon fill="#4ecdc4" stroke="#4ecdc4" stroke-width="2" points="978.79,-59.5 988.79,-56 978.79,-52.5 978.79,-59.5"/>
</g>
<!-- earth_mars -->
<g id="node8" class="node">
<title>earth_mars</title>
<path fill="#2d2d44" stroke="#4ecdc4" stroke-width="2" d="M145.62,-201C145.62,-201 49.62,-201 49.62,-201 43.62,-201 37.62,-195 37.62,-189 37.62,-189 37.62,-167 37.62,-167 37.62,-161 43.62,-155 49.62,-155 49.62,-155 145.62,-155 145.62,-155 151.62,-155 157.62,-161 157.62,-167 157.62,-167 157.62,-189 157.62,-189 157.62,-195 151.62,-201 145.62,-201"/>
<text xml:space="preserve" text-anchor="start" x="49.62" y="-182.55" font-family="Helvetica,sans-Serif" font-size="11.00" fill="#ff6b6b">Earth to Mars (avg):</text>
<text xml:space="preserve" text-anchor="start" x="63.5" y="-164.55" font-family="Helvetica,sans-Serif" font-size="11.00" fill="white">225 million km</text>
</g>
<!-- earth_jupiter -->
<g id="node9" class="node">
<title>earth_jupiter</title>
<path fill="#2d2d44" stroke="#4ecdc4" stroke-width="2" d="M397,-201C397,-201 292.75,-201 292.75,-201 286.75,-201 280.75,-195 280.75,-189 280.75,-189 280.75,-167 280.75,-167 280.75,-161 286.75,-155 292.75,-155 292.75,-155 397,-155 397,-155 403,-155 409,-161 409,-167 409,-167 409,-189 409,-189 409,-195 403,-201 397,-201"/>
<text xml:space="preserve" text-anchor="start" x="292.75" y="-182.55" font-family="Helvetica,sans-Serif" font-size="11.00" fill="#ff6b6b">Earth to Jupiter (avg):</text>
<text xml:space="preserve" text-anchor="start" x="310.75" y="-164.55" font-family="Helvetica,sans-Serif" font-size="11.00" fill="white">628 million km</text>
</g>
<!-- earth_mars&#45;&gt;earth_jupiter -->
<!-- outer_system -->
<g id="node10" class="node">
<title>outer_system</title>
<path fill="#2d2d44" stroke="#4ecdc4" stroke-width="2" d="M592,-201C592,-201 506.5,-201 506.5,-201 500.5,-201 494.5,-195 494.5,-189 494.5,-189 494.5,-167 494.5,-167 494.5,-161 500.5,-155 506.5,-155 506.5,-155 592,-155 592,-155 598,-155 604,-161 604,-167 604,-167 604,-189 604,-189 604,-195 598,-201 592,-201"/>
<text xml:space="preserve" text-anchor="start" x="506.5" y="-182.55" font-family="Helvetica,sans-Serif" font-size="11.00" fill="#ff6b6b">Earth to Neptune:</text>
<text xml:space="preserve" text-anchor="start" x="518.12" y="-164.55" font-family="Helvetica,sans-Serif" font-size="11.00" fill="white">4.3 billion km</text>
</g>
<!-- earth_jupiter&#45;&gt;outer_system -->
</g>
</svg>
