<?xml version="1.0" encoding="UTF-8" standalone="no"?>
<!DOCTYPE svg PUBLIC "-//W3C//DTD SVG 1.1//EN"
 "http://www.w3.org/Graphics/SVG/1.1/DTD/svg11.dtd">
<!-- Generated by graphviz version 14.1.2 (20260124.0452)
 -->
<!-- Title: PatrolRoute Pages: 1 -->
<svg width="576pt" height="654pt"
 viewBox="0.00 0.00 576.00 654.00" xmlns="http://www.w3.org/2000/svg" xmlns:xlink="http://www.w3.org/1999/xlink">
<g id="graph0" class="graph" transform="scale(1 1) rotate(0) translate(4 650.39)">
<title>PatrolRoute</title>
<polygon fill="#1a1a2e" stroke="none" points="-4,4 -4,-650.39 572,-650.39 572,4 -4,4"/>
<g id="clust1" class="cluster">
<title>cluster_map</title>
<path fill="#1a1a2e" stroke="#4ecdc4" d="M20,-198C20,-198 268,-198 268,-198 274,-198 280,-204 280,-210 280,-210 280,-522.14 280,-522.14 280,-528.14 274,-534.14 268,-534.14 268,-534.14 20,-534.14 20,-534.14 14,-534.14 8,-528.14 8,-522.14 8,-522.14 8,-210 8,-210 8,-204 14,-198 20,-198"/>
<text xml:space="preserve" text-anchor="middle" x="144" y="-516.84" font-family="Helvetica,sans-Serif" font-size="14.00" fill="#ffe66d">Patrol Area</text>
</g>
<g id="clust2" class="cluster">
<title>cluster_queue</title>
<path fill="#1a1a2e" stroke="#4ecdc4" d="M320,-8C320,-8 548,-8 548,-8 554,-8 560,-14 560,-20 560,-20 560,-390.63 560,-390.63 560,-396.63 554,-402.63 548,-402.63 548,-402.63 320,-402.63 320,-402.63 314,-402.63 308,-396.63 308,-390.63 308,-390.63 308,-20 308,-20 308,-14 314,-8 320,-8"/>
<text xml:space="preserve" text-anchor="middle" x="434" y="-385.33" font-family="Helvetica,sans-Serif" font-size="14.00" fill="#ffe66d">Order Queue (Repeat Orders Enabled)</text>
</g>
<!-- wpA -->
<g id="node1" class="node">
<title>wpA</title>
<polygon fill="#ff6b6b" stroke="#4ecdc4" stroke-width="2" points="272.28,-477.01 240.64,-503.14 177.36,-503.14 145.72,-477.01 177.36,-450.88 240.64,-450.88 272.28,-477.01"/>
<text xml:space="preserve" text-anchor="middle" x="209" y="-478.56" font-family="Helvetica,sans-Serif" font-size="11.00" fill="white">Waypoint A</text>
<text xml:space="preserve" text-anchor="middle" x="209" y="-466.56" font-family="Helvetica,sans-Serif" font-size="11.00" fill="white">(Jump Point)</text>
</g>
<!-- wpB -->
<g id="node2" class="node">
<title>wpB</title>
<polygon fill="#95d5b2" stroke="#4ecdc4" stroke-width="2" points="132.38,-353.63 103.19,-379.76 44.81,-379.76 15.62,-353.63 44.81,-327.51 103.19,-327.51 132.38,-353.63"/>
<text xml:space="preserve" text-anchor="middle" x="74" y="-355.18" font-family="Helvetica,sans-Serif" font-size="11.00" fill="#1a1a2e">Waypoint B</text>
<text xml:space="preserve" text-anchor="middle" x="74" y="-343.18" font-family="Helvetica,sans-Serif" font-size="11.00" fill="#1a1a2e">(Colony)</text>
</g>
<!-- wpA&#45;&gt;wpB -->
<g id="edge1" class="edge">
<title>wpA&#45;&gt;wpB</title>
<path fill="none" stroke="#4ecdc4" stroke-width="2" d="M180.04,-449.97C160.29,-432.21 133.91,-408.5 112.41,-389.17"/>
<polygon fill="#4ecdc4" stroke="#4ecdc4" stroke-width="2" points="114.94,-386.74 105.16,-382.65 110.26,-391.94 114.94,-386.74"/>
<text xml:space="preserve" text-anchor="middle" x="157.55" y="-412.38" font-family="Helvetica,sans-Serif" font-size="10.00" fill="white">Leg 1</text>
</g>
<!-- ord1 -->
<g id="node4" class="node">
<title>ord1</title>
<path fill="#ff6b6b" stroke="#4ecdc4" stroke-width="2" d="M442,-371.63C442,-371.63 342,-371.63 342,-371.63 336,-371.63 330,-365.63 330,-359.63 330,-359.63 330,-347.63 330,-347.63 330,-341.63 336,-335.63 342,-335.63 342,-335.63 442,-335.63 442,-335.63 448,-335.63 454,-341.63 454,-347.63 454,-347.63 454,-359.63 454,-359.63 454,-365.63 448,-371.63 442,-371.63"/>
<text xml:space="preserve" text-anchor="middle" x="392" y="-349.18" font-family="Helvetica,sans-Serif" font-size="11.00" fill="white">1. Move to Waypoint A</text>
</g>
<!-- wpA&#45;&gt;ord1 -->
<!-- wpC -->
<g id="node3" class="node">
<title>wpC</title>
<polygon fill="#ffe66d" stroke="#4ecdc4" stroke-width="2" points="212.4,-232.13 177.7,-258.26 108.3,-258.26 73.6,-232.13 108.3,-206 177.7,-206 212.4,-232.13"/>
<text xml:space="preserve" text-anchor="middle" x="143" y="-233.68" font-family="Helvetica,sans-Serif" font-size="11.00" fill="#1a1a2e">Waypoint C</text>
<text xml:space="preserve" text-anchor="middle" x="143" y="-221.68" font-family="Helvetica,sans-Serif" font-size="11.00" fill="#1a1a2e">(Asteroid Belt)</text>
</g>
<!-- wpB&#45;&gt;wpC -->
<g id="edge2" class="edge">
<title>wpB&#45;&gt;wpC</title>
<path fill="none" stroke="#4ecdc4" stroke-width="2" d="M88.97,-326.7C98.51,-310.18 111.02,-288.52 121.6,-270.19"/>
<polygon fill="#4ecdc4" stroke="#4ecdc4" stroke-width="2" points="124.57,-272.04 126.54,-261.63 118.51,-268.54 124.57,-272.04"/>
<text xml:space="preserve" text-anchor="middle" x="122.57" y="-289.01" font-family="Helvetica,sans-Serif" font-size="10.00" fill="white">Leg 2</text>
</g>
<!-- wpC&#45;&gt;wpA -->
<g id="edge3" class="edge">
<title>wpC&#45;&gt;wpA</title>
<path fill="none" stroke="#ff6b6b" stroke-width="2" stroke-dasharray="5,2" d="M150.01,-258.93C161.64,-301.72 184.97,-387.58 198.55,-437.54"/>
<polygon fill="#ff6b6b" stroke="#ff6b6b" stroke-width="2" points="195.14,-438.37 201.14,-447.1 201.9,-436.53 195.14,-438.37"/>
<text xml:space="preserve" text-anchor="middle" x="200.89" y="-355.38" font-family="Helvetica,sans-Serif" font-size="10.00" fill="white">Leg 3</text>
<text xml:space="preserve" text-anchor="middle" x="200.89" y="-344.13" font-family="Helvetica,sans-Serif" font-size="10.00" fill="white">(loop)</text>
</g>
<!-- ord2 -->
<g id="node5" class="node">
<title>ord2</title>
<path fill="#95d5b2" stroke="#4ecdc4" stroke-width="2" d="M442.38,-250.13C442.38,-250.13 341.62,-250.13 341.62,-250.13 335.62,-250.13 329.62,-244.13 329.62,-238.13 329.62,-238.13 329.62,-226.13 329.62,-226.13 329.62,-220.13 335.62,-214.13 341.62,-214.13 341.62,-214.13 442.38,-214.13 442.38,-214.13 448.38,-214.13 454.38,-220.13 454.38,-226.13 454.38,-226.13 454.38,-238.13 454.38,-238.13 454.38,-244.13 448.38,-250.13 442.38,-250.13"/>
<text xml:space="preserve" text-anchor="middle" x="392" y="-227.68" font-family="Helvetica,sans-Serif" font-size="11.00" fill="#1a1a2e">2. Move to Waypoint B</text>
</g>
<!-- ord1&#45;&gt;ord2 -->
<g id="edge4" class="edge">
<title>ord1&#45;&gt;ord2</title>
<path fill="none" stroke="white" d="M392,-334.74C392,-315.53 392,-284.73 392,-262.07"/>
<polygon fill="white" stroke="white" points="395.5,-262.26 392,-252.26 388.5,-262.26 395.5,-262.26"/>
</g>
<!-- ord3 -->
<g id="node6" class="node">
<title>ord3</title>
<path fill="#ffe66d" stroke="#4ecdc4" stroke-width="2" d="M442.75,-147C442.75,-147 341.25,-147 341.25,-147 335.25,-147 329.25,-141 329.25,-135 329.25,-135 329.25,-123 329.25,-123 329.25,-117 335.25,-111 341.25,-111 341.25,-111 442.75,-111 442.75,-111 448.75,-111 454.75,-117 454.75,-123 454.75,-123 454.75,-135 454.75,-135 454.75,-141 448.75,-147 442.75,-147"/>
<text xml:space="preserve" text-anchor="middle" x="392" y="-124.55" font-family="Helvetica,sans-Serif" font-size="11.00" fill="#1a1a2e">3. Move to Waypoint C</text>
</g>
<!-- ord2&#45;&gt;ord3 -->
<g id="edge5" class="edge">
<title>ord2&#45;&gt;ord3</title>
<path fill="none" stroke="white" d="M392,-213.51C392,-198.52 392,-176.69 392,-159.11"/>
<polygon fill="white" stroke="white" points="395.5,-159.27 392,-149.27 388.5,-159.27 395.5,-159.27"/>
</g>
<!-- repeat -->
<g id="node7" class="node">
<title>repeat</title>
<path fill="#2d2d44" stroke="#ff6b6b" stroke-width="2" stroke-dasharray="5,2" d="M440.88,-52C440.88,-52 343.12,-52 343.12,-52 337.12,-52 331.12,-46 331.12,-40 331.12,-40 331.12,-28 331.12,-28 331.12,-22 337.12,-16 343.12,-16 343.12,-16 440.88,-16 440.88,-16 446.88,-16 452.88,-22 452.88,-28 452.88,-28 452.88,-40 452.88,-40 452.88,-46 446.88,-52 440.88,-52"/>
<text xml:space="preserve" text-anchor="middle" x="392" y="-29.55" font-family="Helvetica,sans-Serif" font-size="11.00" fill="white">[Repeat from Order 1]</text>
</g>
<!-- ord3&#45;&gt;repeat -->
<g id="edge6" class="edge">
<title>ord3&#45;&gt;repeat</title>
<path fill="none" stroke="white" d="M392,-110.07C392,-97.07 392,-79.22 392,-64.18"/>
<polygon fill="white" stroke="white" points="395.5,-64.39 392,-54.39 388.5,-64.39 395.5,-64.39"/>
</g>
<!-- repeat&#45;&gt;ord1 -->
<g id="edge7" class="edge">
<title>repeat&#45;&gt;ord1</title>
<path fill="none" stroke="#ff6b6b" stroke-width="2" stroke-dasharray="5,2" d="M426.24,-52.93C447.15,-65.95 472.08,-85.7 484,-111 511.89,-170.21 507.77,-197.67 483,-258.26 471.73,-285.83 448.19,-309.88 427.88,-326.8"/>
<polygon fill="#ff6b6b" stroke="#ff6b6b" stroke-width="2" points="425.93,-323.88 420.3,-332.86 430.3,-329.35 425.93,-323.88"/>
</g>
<!-- fleet -->
<g id="node8" class="node">
<title>fleet</title>
<path fill="#4ecdc4" stroke="#4ecdc4" stroke-width="2" d="M246.88,-646.39C246.88,-646.39 171.12,-646.39 171.12,-646.39 165.12,-646.39 159.12,-640.39 159.12,-634.39 159.12,-634.39 159.12,-594.39 159.12,-594.39 159.12,-588.39 165.12,-582.39 171.12,-582.39 171.12,-582.39 246.88,-582.39 246.88,-582.39 252.88,-582.39 258.88,-588.39 258.88,-594.39 258.88,-594.39 258.88,-634.39 258.88,-634.39 258.88,-640.39 252.88,-646.39 246.88,-646.39"/>
<text xml:space="preserve" text-anchor="start" x="191" y="-623.19" font-family="Helvetica,sans-Serif" font-size="16.00" fill="#1a1a2e">Fleet</text>
<text xml:space="preserve" text-anchor="start" x="181.25" y="-607.34" font-family="Helvetica,sans-Serif" font-size="9.00" fill="#4ecdc4">Currently at A</text>
<text xml:space="preserve" text-anchor="start" x="171.12" y="-591.59" font-family="Helvetica,sans-Serif" font-size="9.00" fill="#4ecdc4">Speed: 4,000 km/s</text>
</g>
<!-- fleet&#45;&gt;wpA -->
<g id="edge8" class="edge">
<title>fleet&#45;&gt;wpA</title>
<path fill="none" stroke="white" stroke-width="2" stroke-dasharray="1,5" d="M209,-581.65C209,-562.29 209,-537.4 209,-516.87"/>
<polygon fill="white" stroke="white" stroke-width="2" points="212.5,-517.13 209,-507.13 205.5,-517.13 212.5,-517.13"/>
<text xml:space="preserve" text-anchor="middle" x="226.62" y="-543.89" font-family="Helvetica,sans-Serif" font-size="10.00" fill="white">Position</text>
</g>
</g>
</svg>
