<?xml version="1.0" encoding="UTF-8" standalone="no"?>
<!DOCTYPE svg PUBLIC "-//W3C//DTD SVG 1.1//EN"
 "http://www.w3.org/Graphics/SVG/1.1/DTD/svg11.dtd">
<!-- Generated by graphviz version 14.1.2 (20260124.0452)
 -->
<!-- Title: JumpShockTimeline Pages: 1 -->
<svg width="414pt" height="1001pt"
 viewBox="0.00 0.00 414.00 1001.00" xmlns="http://www.w3.org/2000/svg" xmlns:xlink="http://www.w3.org/1999/xlink">
<g id="graph0" class="graph" transform="scale(1 1) rotate(0) translate(4 997.25)">
<title>JumpShockTimeline</title>
<polygon fill="#1a1a2e" stroke="none" points="-4,4 -4,-997.25 410,-997.25 410,4 -4,4"/>
<g id="clust1" class="cluster">
<title>cluster_standard</title>
<path fill="#1a1a2e" stroke="#ff6b6b" d="M24,-631.5C24,-631.5 382,-631.5 382,-631.5 388,-631.5 394,-637.5 394,-643.5 394,-643.5 394,-923.5 394,-923.5 394,-929.5 388,-935.5 382,-935.5 382,-935.5 24,-935.5 24,-935.5 18,-935.5 12,-929.5 12,-923.5 12,-923.5 12,-643.5 12,-643.5 12,-637.5 18,-631.5 24,-631.5"/>
<text xml:space="preserve" text-anchor="middle" x="203" y="-918.2" font-family="Helvetica,sans-Serif" font-size="14.00" fill="#ff6b6b">Standard Transit</text>
</g>
<g id="clust2" class="cluster">
<title>cluster_squadron</title>
<path fill="#1a1a2e" stroke="#95d5b2" d="M20,-319.5C20,-319.5 386,-319.5 386,-319.5 392,-319.5 398,-325.5 398,-331.5 398,-331.5 398,-611.5 398,-611.5 398,-617.5 392,-623.5 386,-623.5 386,-623.5 20,-623.5 20,-623.5 14,-623.5 8,-617.5 8,-611.5 8,-611.5 8,-331.5 8,-331.5 8,-325.5 14,-319.5 20,-319.5"/>
<text xml:space="preserve" text-anchor="middle" x="203" y="-606.2" font-family="Helvetica,sans-Serif" font-size="14.00" fill="#95d5b2">Squadron Transit</text>
</g>
<g id="clust3" class="cluster">
<title>cluster_bonus</title>
<path fill="#1a1a2e" stroke="#4ecdc4" d="M54,-110.75C54,-110.75 352,-110.75 352,-110.75 358,-110.75 364,-116.75 364,-122.75 364,-122.75 364,-299.5 364,-299.5 364,-305.5 358,-311.5 352,-311.5 352,-311.5 54,-311.5 54,-311.5 48,-311.5 42,-305.5 42,-299.5 42,-299.5 42,-122.75 42,-122.75 42,-116.75 48,-110.75 54,-110.75"/>
<text xml:space="preserve" text-anchor="middle" x="203" y="-296.1" font-family="Helvetica,sans-Serif" font-size="12.00" fill="#4ecdc4">Ship Bonus Modifier</text>
</g>
<!-- title -->
<g id="node1" class="node">
<title>title</title>
<polygon fill="#2d2d44" stroke="none" stroke-width="2" points="338,-993.25 68,-993.25 68,-943.5 338,-943.5 338,-993.25"/>
<text xml:space="preserve" text-anchor="start" x="80" y="-970.05" font-family="Helvetica,sans-Serif" font-size="16.00" fill="#ffe66d">Jump Shock Duration Comparison</text>
<text xml:space="preserve" text-anchor="start" x="108.12" y="-953.25" font-family="Helvetica,sans-Serif" font-size="10.00" fill="white">Vulnerability window after jump point transit</text>
</g>
<!-- std_formula -->
<g id="node2" class="node">
<title>std_formula</title>
<path fill="#2d2d44" stroke="#4ecdc4" stroke-width="2" d="M313.62,-904.5C313.62,-904.5 92.37,-904.5 92.37,-904.5 86.38,-904.5 80.38,-898.5 80.38,-892.5 80.38,-892.5 80.38,-871.25 80.38,-871.25 80.38,-865.25 86.38,-859.25 92.38,-859.25 92.38,-859.25 313.62,-859.25 313.62,-859.25 319.62,-859.25 325.62,-865.25 325.62,-871.25 325.62,-871.25 325.62,-892.5 325.62,-892.5 325.62,-898.5 319.62,-904.5 313.62,-904.5"/>
<text xml:space="preserve" text-anchor="start" x="92.38" y="-886.05" font-family="Helvetica,sans-Serif" font-size="11.00" fill="white">Formula: (120 + Random(1&#45;60)) x Ship Bonus</text>
<text xml:space="preserve" text-anchor="start" x="108.12" y="-869" font-family="Helvetica,sans-Serif" font-size="10.00" fill="#4ecdc4">Base range: 121&#45;180 seconds (2&#45;3 minutes)</text>
</g>
<!-- title&#45;&gt;std_formula -->
<!-- std_timeline -->
<g id="node3" class="node">
<title>std_timeline</title>
<polygon fill="#2d2d44" stroke="none" stroke-width="2" points="386,-823.25 20,-823.25 20,-757.5 386,-757.5 386,-823.25"/>
<polygon fill="#ff6b6b" stroke="none" points="28,-789.25 28,-819.25 278,-819.25 278,-789.25 28,-789.25"/>
<polygon fill="none" stroke="#4ecdc4" points="28,-789.25 28,-819.25 278,-819.25 278,-789.25 28,-789.25"/>
<text xml:space="preserve" text-anchor="start" x="105.38" y="-799.8" font-family="Helvetica,sans-Serif" font-size="11.00" fill="white">SHOCK (121&#45;180s)</text>
<polygon fill="#95d5b2" stroke="none" points="278,-789.25 278,-819.25 378,-819.25 378,-789.25 278,-789.25"/>
<polygon fill="none" stroke="#4ecdc4" points="278,-789.25 278,-819.25 378,-819.25 378,-789.25 278,-789.25"/>
<text xml:space="preserve" text-anchor="start" x="291.62" y="-799.8" font-family="Helvetica,sans-Serif" font-size="11.00" fill="#1a1a2e">Combat Ready</text>
<polygon fill="none" stroke="#4ecdc4" points="28,-761.5 28,-789.25 378,-789.25 378,-761.5 28,-761.5"/>
<text xml:space="preserve" text-anchor="start" x="114.5" y="-771.7" font-family="Helvetica,sans-Serif" font-size="9.00" fill="white">0s &#45;&#45;&#45;&#45;&#45;&#45;&#45;&#45; 60s &#45;&#45;&#45;&#45;&#45;&#45;&#45;&#45; 120s &#45;&#45;&#45;&#45;&#45;&#45;&#45;&#45; 180s &#45;&#45;&#45;&#45;&#45;&#45;&#45;&#45;</text>
</g>
<!-- std_formula&#45;&gt;std_timeline -->
<!-- std_effects -->
<g id="node4" class="node">
<title>std_effects</title>
<path fill="#2d2d44" stroke="#4ecdc4" stroke-width="2" d="M262.25,-721.5C262.25,-721.5 143.75,-721.5 143.75,-721.5 137.75,-721.5 131.75,-715.5 131.75,-709.5 131.75,-709.5 131.75,-651.5 131.75,-651.5 131.75,-645.5 137.75,-639.5 143.75,-639.5 143.75,-639.5 262.25,-639.5 262.25,-639.5 268.25,-639.5 274.25,-645.5 274.25,-651.5 274.25,-651.5 274.25,-709.5 274.25,-709.5 274.25,-715.5 268.25,-721.5 262.25,-721.5"/>
<text xml:space="preserve" text-anchor="start" x="143.75" y="-703.05" font-family="Helvetica,sans-Serif" font-size="11.00" fill="#ff6b6b">During shock:</text>
<text xml:space="preserve" text-anchor="start" x="143.75" y="-685.05" font-family="Helvetica,sans-Serif" font-size="11.00" fill="white">&#45; Active sensors disabled</text>
<text xml:space="preserve" text-anchor="start" x="143.75" y="-667.05" font-family="Helvetica,sans-Serif" font-size="11.00" fill="white">&#45; Fire controls disabled</text>
<text xml:space="preserve" text-anchor="start" x="143.75" y="-649.05" font-family="Helvetica,sans-Serif" font-size="11.00" fill="white">&#45; Cannot jump again</text>
</g>
<!-- std_timeline&#45;&gt;std_effects -->
<!-- sqd_formula -->
<g id="node5" class="node">
<title>sqd_formula</title>
<path fill="#2d2d44" stroke="#4ecdc4" stroke-width="2" d="M310.62,-592.5C310.62,-592.5 95.38,-592.5 95.38,-592.5 89.38,-592.5 83.38,-586.5 83.38,-580.5 83.38,-580.5 83.38,-559.25 83.38,-559.25 83.38,-553.25 89.38,-547.25 95.38,-547.25 95.38,-547.25 310.62,-547.25 310.62,-547.25 316.62,-547.25 322.62,-553.25 322.62,-559.25 322.62,-559.25 322.62,-580.5 322.62,-580.5 322.62,-586.5 316.62,-592.5 310.62,-592.5"/>
<text xml:space="preserve" text-anchor="start" x="95.38" y="-574.05" font-family="Helvetica,sans-Serif" font-size="11.00" fill="white">Formula: (10 + Random(1&#45;20)) x Ship Bonus</text>
<text xml:space="preserve" text-anchor="start" x="143.38" y="-557" font-family="Helvetica,sans-Serif" font-size="10.00" fill="#4ecdc4">Base range: 11&#45;30 seconds</text>
</g>
<!-- std_effects&#45;&gt;sqd_formula -->
<!-- sqd_timeline -->
<g id="node6" class="node">
<title>sqd_timeline</title>
<polygon fill="#2d2d44" stroke="none" stroke-width="2" points="389.88,-511.25 16.12,-511.25 16.12,-445.5 389.88,-445.5 389.88,-511.25"/>
<polygon fill="#ffe66d" stroke="none" points="24.12,-477.25 24.12,-507.25 81.88,-507.25 81.88,-477.25 24.12,-477.25"/>
<polygon fill="none" stroke="#4ecdc4" points="24.12,-477.25 24.12,-507.25 81.88,-507.25 81.88,-477.25 24.12,-477.25"/>
<text xml:space="preserve" text-anchor="start" x="33.12" y="-487.8" font-family="Helvetica,sans-Serif" font-size="11.00" fill="#1a1a2e">SHOCK</text>
<polygon fill="#95d5b2" stroke="none" points="81.88,-477.25 81.88,-507.25 381.88,-507.25 381.88,-477.25 81.88,-477.25"/>
<polygon fill="none" stroke="#4ecdc4" points="81.88,-477.25 81.88,-507.25 381.88,-507.25 381.88,-477.25 81.88,-477.25"/>
<text xml:space="preserve" text-anchor="start" x="195.5" y="-487.8" font-family="Helvetica,sans-Serif" font-size="11.00" fill="#1a1a2e">Combat Ready</text>
<polygon fill="none" stroke="#4ecdc4" points="24.12,-449.5 24.12,-477.25 381.88,-477.25 381.88,-449.5 24.12,-449.5"/>
<text xml:space="preserve" text-anchor="start" x="98.75" y="-459.7" font-family="Helvetica,sans-Serif" font-size="9.00" fill="white">0s &#45;&#45;&#45;&#45; 30s &#45;&#45;&#45;&#45;&#45;&#45;&#45;&#45; 60s &#45;&#45;&#45;&#45;&#45;&#45;&#45;&#45; 120s &#45;&#45;&#45;&#45;&#45;&#45;&#45;&#45; 180s &#45;&#45;&#45;&#45;&#45;&#45;&#45;&#45;</text>
</g>
<!-- sqd_formula&#45;&gt;sqd_timeline -->
<!-- sqd_benefit -->
<g id="node7" class="node">
<title>sqd_benefit</title>
<path fill="#2d2d44" stroke="#4ecdc4" stroke-width="2" d="M281,-409.5C281,-409.5 125,-409.5 125,-409.5 119,-409.5 113,-403.5 113,-397.5 113,-397.5 113,-339.5 113,-339.5 113,-333.5 119,-327.5 125,-327.5 125,-327.5 281,-327.5 281,-327.5 287,-327.5 293,-333.5 293,-339.5 293,-339.5 293,-397.5 293,-397.5 293,-403.5 287,-409.5 281,-409.5"/>
<text xml:space="preserve" text-anchor="start" x="125" y="-391.05" font-family="Helvetica,sans-Serif" font-size="11.00" fill="#95d5b2">Squadron advantage:</text>
<text xml:space="preserve" text-anchor="start" x="125" y="-373.05" font-family="Helvetica,sans-Serif" font-size="11.00" fill="white">&#45; 6x shorter vulnerability window</text>
<text xml:space="preserve" text-anchor="start" x="125" y="-355.05" font-family="Helvetica,sans-Serif" font-size="11.00" fill="white">&#45; Essential for assault operations</text>
<text xml:space="preserve" text-anchor="start" x="125" y="-337.05" font-family="Helvetica,sans-Serif" font-size="11.00" fill="white">&#45; Coordinated fleet movement</text>
</g>
<!-- sqd_timeline&#45;&gt;sqd_benefit -->
<!-- bonus_formula -->
<g id="node8" class="node">
<title>bonus_formula</title>
<path fill="#2d2d44" stroke="#4ecdc4" stroke-width="2" d="M341,-282.75C341,-282.75 65,-282.75 65,-282.75 59,-282.75 53,-276.75 53,-270.75 53,-270.75 53,-258.75 53,-258.75 53,-252.75 59,-246.75 65,-246.75 65,-246.75 341,-246.75 341,-246.75 347,-246.75 353,-252.75 353,-258.75 353,-258.75 353,-270.75 353,-270.75 353,-276.75 347,-282.75 341,-282.75"/>
<text xml:space="preserve" text-anchor="start" x="65" y="-260.3" font-family="Helvetica,sans-Serif" font-size="11.00" fill="white">Ship Bonus = 2 &#45; ((1 + Crew Grade) x Morale x Overhaul)</text>
</g>
<!-- sqd_benefit&#45;&gt;bonus_formula -->
<!-- bonus_examples -->
<g id="node9" class="node">
<title>bonus_examples</title>
<path fill="#2d2d44" stroke="#4ecdc4" stroke-width="2" d="M343.75,-210.75C343.75,-210.75 62.25,-210.75 62.25,-210.75 56.25,-210.75 50.25,-204.75 50.25,-198.75 50.25,-198.75 50.25,-130.75 50.25,-130.75 50.25,-124.75 56.25,-118.75 62.25,-118.75 62.25,-118.75 343.75,-118.75 343.75,-118.75 349.75,-118.75 355.75,-124.75 355.75,-130.75 355.75,-130.75 355.75,-198.75 355.75,-198.75 355.75,-204.75 349.75,-210.75 343.75,-210.75"/>
<text xml:space="preserve" text-anchor="start" x="157.25" y="-190.3" font-family="Helvetica,sans-Serif" font-size="11.00" fill="#ffe66d">Example Modifiers:</text>
<text xml:space="preserve" text-anchor="start" x="64.25" y="-171.3" font-family="Helvetica,sans-Serif" font-size="11.00" fill="#ff6b6b">Green crew (0% grade, 80% morale):</text>
<text xml:space="preserve" text-anchor="start" x="244.25" y="-171.3" font-family="Helvetica,sans-Serif" font-size="11.00" fill="white"> 1.20x duration</text>
<text xml:space="preserve" text-anchor="start" x="64.25" y="-151.3" font-family="Helvetica,sans-Serif" font-size="11.00" fill="white">Standard crew (10% grade, 100% morale):</text>
<text xml:space="preserve" text-anchor="start" x="270.5" y="-151.3" font-family="Helvetica,sans-Serif" font-size="11.00" fill="white"> 0.90x duration</text>
<text xml:space="preserve" text-anchor="start" x="64.25" y="-131.3" font-family="Helvetica,sans-Serif" font-size="11.00" fill="#95d5b2">Elite crew (25% grade, 100% morale):</text>
<text xml:space="preserve" text-anchor="start" x="247.25" y="-131.3" font-family="Helvetica,sans-Serif" font-size="11.00" fill="white"> 0.75x duration</text>
</g>
<!-- bonus_formula&#45;&gt;bonus_examples -->
<!-- tactical -->
<g id="node10" class="node">
<title>tactical</title>
<path fill="#2d2d44" stroke="#ffe66d" stroke-width="2" d="M342.5,-82.75C342.5,-82.75 63.5,-82.75 63.5,-82.75 57.5,-82.75 51.5,-76.75 51.5,-70.75 51.5,-70.75 51.5,-12 51.5,-12 51.5,-6 57.5,0 63.5,0 63.5,0 342.5,0 342.5,0 348.5,0 354.5,-6 354.5,-12 354.5,-12 354.5,-70.75 354.5,-70.75 354.5,-76.75 348.5,-82.75 342.5,-82.75"/>
<text xml:space="preserve" text-anchor="start" x="152.38" y="-63.35" font-family="Helvetica,sans-Serif" font-size="12.00" fill="#ffe66d">Tactical Implication</text>
<text xml:space="preserve" text-anchor="start" x="70.62" y="-45.55" font-family="Helvetica,sans-Serif" font-size="11.00" fill="white">Standard transit into defended space = 2&#45;3 min free fire</text>
<text xml:space="preserve" text-anchor="start" x="63.5" y="-27.55" font-family="Helvetica,sans-Serif" font-size="11.00" fill="#95d5b2">Squadron transit into defended space = 11&#45;30 sec free fire</text>
<text xml:space="preserve" text-anchor="start" x="82.62" y="-9.55" font-family="Helvetica,sans-Serif" font-size="11.00" fill="#ff6b6b">Always use squadron transit for assault operations</text>
</g>
<!-- bonus_examples&#45;&gt;tactical -->
</g>
</svg>
