<?xml version="1.0" encoding="UTF-8" standalone="no"?>
<!DOCTYPE svg PUBLIC "-//W3C//DTD SVG 1.1//EN"
 "http://www.w3.org/Graphics/SVG/1.1/DTD/svg11.dtd">
<!-- Generated by graphviz version 14.1.2 (20260124.0452)
 -->
<!-- Title: JumpDriveScaling Pages: 1 -->
<svg width="256pt" height="678pt"
 viewBox="0.00 0.00 256.00 678.00" xmlns="http://www.w3.org/2000/svg" xmlns:xlink="http://www.w3.org/1999/xlink">
<g id="graph0" class="graph" transform="scale(1 1) rotate(0) translate(4 673.5)">
<title>JumpDriveScaling</title>
<polygon fill="#1a1a2e" stroke="none" points="-4,4 -4,-673.5 252,-673.5 252,4 -4,4"/>
<g id="clust1" class="cluster">
<title>cluster_scale</title>
<path fill="#1a1a2e" stroke="#4ecdc4" d="M20,-223.75C20,-223.75 228,-223.75 228,-223.75 234,-223.75 240,-229.75 240,-235.75 240,-235.75 240,-570.5 240,-570.5 240,-576.5 234,-582.5 228,-582.5 228,-582.5 20,-582.5 20,-582.5 14,-582.5 8,-576.5 8,-570.5 8,-570.5 8,-235.75 8,-235.75 8,-229.75 14,-223.75 20,-223.75"/>
<text xml:space="preserve" text-anchor="middle" x="124" y="-567.1" font-family="Helvetica,sans-Serif" font-size="12.00" fill="#ffe66d">Efficiency by Ship Size</text>
</g>
<g id="clust2" class="cluster">
<title>cluster_implications</title>
<path fill="#1a1a2e" stroke="#4ecdc4" d="M27,-8C27,-8 221,-8 221,-8 227,-8 233,-14 233,-20 233,-20 233,-203.75 233,-203.75 233,-209.75 227,-215.75 221,-215.75 221,-215.75 27,-215.75 27,-215.75 21,-215.75 15,-209.75 15,-203.75 15,-203.75 15,-20 15,-20 15,-14 21,-8 27,-8"/>
<text xml:space="preserve" text-anchor="middle" x="124" y="-200.35" font-family="Helvetica,sans-Serif" font-size="12.00" fill="#ffe66d">Design Implications</text>
</g>
<!-- formula -->
<g id="node1" class="node">
<title>formula</title>
<path fill="#2d2d44" stroke="#4ecdc4" stroke-width="2" d="M217.88,-669.5C217.88,-669.5 30.13,-669.5 30.13,-669.5 24.12,-669.5 18.12,-663.5 18.12,-657.5 18.12,-657.5 18.12,-608.75 18.12,-608.75 18.12,-602.75 24.12,-596.75 30.12,-596.75 30.12,-596.75 217.88,-596.75 217.88,-596.75 223.88,-596.75 229.88,-602.75 229.88,-608.75 229.88,-608.75 229.88,-657.5 229.88,-657.5 229.88,-663.5 223.88,-669.5 217.88,-669.5"/>
<text xml:space="preserve" text-anchor="start" x="41.88" y="-646.2" font-family="Helvetica,sans-Serif" font-size="14.00" fill="#ffe66d">Efficiency Modifier Formula</text>
<text xml:space="preserve" text-anchor="start" x="47.88" y="-626.05" font-family="Helvetica,sans-Serif" font-size="11.00" fill="white">max(1, (Hull Spaces / 20)^0.25)</text>
<text xml:space="preserve" text-anchor="start" x="32.12" y="-607.95" font-family="Helvetica,sans-Serif" font-size="9.00" fill="#4ecdc4">Larger ships get proportionally smaller drives</text>
</g>
<!-- small -->
<g id="node2" class="node">
<title>small</title>
<path fill="#2d2d44" stroke="#4ecdc4" stroke-width="2" d="M210.88,-553.75C210.88,-553.75 37.13,-553.75 37.13,-553.75 31.12,-553.75 25.12,-547.75 25.12,-541.75 25.12,-541.75 25.12,-493.75 25.12,-493.75 25.12,-487.75 31.12,-481.75 37.12,-481.75 37.12,-481.75 210.88,-481.75 210.88,-481.75 216.88,-481.75 222.88,-487.75 222.88,-493.75 222.88,-493.75 222.88,-541.75 222.88,-541.75 222.88,-547.75 216.88,-553.75 210.88,-553.75"/>
<text xml:space="preserve" text-anchor="start" x="59.88" y="-533.3" font-family="Helvetica,sans-Serif" font-size="11.00" fill="#ff6b6b">Small Ships (penalty zone)</text>
<text xml:space="preserve" text-anchor="start" x="43.62" y="-513.3" font-family="Helvetica,sans-Serif" font-size="11.00" fill="#4ecdc4">500 tons</text>
<text xml:space="preserve" text-anchor="start" x="97.38" y="-513.3" font-family="Helvetica,sans-Serif" font-size="11.00" fill="white">(10 HS)</text>
<text xml:space="preserve" text-anchor="start" x="143.62" y="-514.3" font-family="Helvetica,sans-Serif" font-size="11.00" fill="white">Modifier: </text>
<text xml:space="preserve" text-anchor="start" x="187.88" y="-514.3" font-family="Helvetica,sans-Serif" font-size="11.00" fill="#ff6b6b">1.00</text>
<text xml:space="preserve" text-anchor="start" x="39.12" y="-493.3" font-family="Helvetica,sans-Serif" font-size="11.00" fill="#4ecdc4">1,000 tons</text>
<text xml:space="preserve" text-anchor="start" x="97.38" y="-493.3" font-family="Helvetica,sans-Serif" font-size="11.00" fill="white">(20 HS)</text>
<text xml:space="preserve" text-anchor="start" x="143.62" y="-494.3" font-family="Helvetica,sans-Serif" font-size="11.00" fill="white">Modifier: </text>
<text xml:space="preserve" text-anchor="start" x="187.88" y="-494.3" font-family="Helvetica,sans-Serif" font-size="11.00" fill="#ff6b6b">1.00</text>
</g>
<!-- formula&#45;&gt;small -->
<!-- medium -->
<g id="node3" class="node">
<title>medium</title>
<path fill="#2d2d44" stroke="#4ecdc4" stroke-width="2" d="M213.88,-438.75C213.88,-438.75 34.12,-438.75 34.12,-438.75 28.13,-438.75 22.12,-432.75 22.12,-426.75 22.12,-426.75 22.12,-378.75 22.12,-378.75 22.12,-372.75 28.12,-366.75 34.12,-366.75 34.12,-366.75 213.88,-366.75 213.88,-366.75 219.88,-366.75 225.88,-372.75 225.88,-378.75 225.88,-378.75 225.88,-426.75 225.88,-426.75 225.88,-432.75 219.88,-438.75 213.88,-438.75"/>
<text xml:space="preserve" text-anchor="start" x="61.38" y="-418.3" font-family="Helvetica,sans-Serif" font-size="11.00" fill="#ffe66d">Medium Ships (improving)</text>
<text xml:space="preserve" text-anchor="start" x="36.12" y="-398.3" font-family="Helvetica,sans-Serif" font-size="11.00" fill="#4ecdc4">2,500 tons</text>
<text xml:space="preserve" text-anchor="start" x="97.38" y="-398.3" font-family="Helvetica,sans-Serif" font-size="11.00" fill="white">(50 HS)</text>
<text xml:space="preserve" text-anchor="start" x="146.62" y="-399.3" font-family="Helvetica,sans-Serif" font-size="11.00" fill="white">Modifier: </text>
<text xml:space="preserve" text-anchor="start" x="190.88" y="-399.3" font-family="Helvetica,sans-Serif" font-size="11.00" fill="#ffe66d">1.26</text>
<text xml:space="preserve" text-anchor="start" x="36.12" y="-378.3" font-family="Helvetica,sans-Serif" font-size="11.00" fill="#4ecdc4">5,000 tons</text>
<text xml:space="preserve" text-anchor="start" x="94.38" y="-378.3" font-family="Helvetica,sans-Serif" font-size="11.00" fill="white">(100 HS)</text>
<text xml:space="preserve" text-anchor="start" x="146.62" y="-379.3" font-family="Helvetica,sans-Serif" font-size="11.00" fill="white">Modifier: </text>
<text xml:space="preserve" text-anchor="start" x="190.88" y="-379.3" font-family="Helvetica,sans-Serif" font-size="11.00" fill="#ffe66d">1.50</text>
</g>
<!-- small&#45;&gt;medium -->
<!-- large -->
<g id="node4" class="node">
<title>large</title>
<path fill="#2d2d44" stroke="#4ecdc4" stroke-width="2" d="M219.88,-323.75C219.88,-323.75 28.13,-323.75 28.13,-323.75 22.12,-323.75 16.12,-317.75 16.12,-311.75 16.12,-311.75 16.12,-243.75 16.12,-243.75 16.12,-237.75 22.12,-231.75 28.12,-231.75 28.12,-231.75 219.88,-231.75 219.88,-231.75 225.88,-231.75 231.88,-237.75 231.88,-243.75 231.88,-243.75 231.88,-311.75 231.88,-311.75 231.88,-317.75 225.88,-323.75 219.88,-323.75"/>
<text xml:space="preserve" text-anchor="start" x="56.12" y="-303.3" font-family="Helvetica,sans-Serif" font-size="11.00" fill="#95d5b2">Large Ships (best efficiency)</text>
<text xml:space="preserve" text-anchor="start" x="30.12" y="-283.3" font-family="Helvetica,sans-Serif" font-size="11.00" fill="#4ecdc4">10,000 tons</text>
<text xml:space="preserve" text-anchor="start" x="97.38" y="-283.3" font-family="Helvetica,sans-Serif" font-size="11.00" fill="white">(200 HS)</text>
<text xml:space="preserve" text-anchor="start" x="152.62" y="-284.3" font-family="Helvetica,sans-Serif" font-size="11.00" fill="white">Modifier: </text>
<text xml:space="preserve" text-anchor="start" x="196.88" y="-284.3" font-family="Helvetica,sans-Serif" font-size="11.00" fill="#95d5b2">1.78</text>
<text xml:space="preserve" text-anchor="start" x="30.12" y="-263.3" font-family="Helvetica,sans-Serif" font-size="11.00" fill="#4ecdc4">25,000 tons</text>
<text xml:space="preserve" text-anchor="start" x="97.38" y="-263.3" font-family="Helvetica,sans-Serif" font-size="11.00" fill="white">(500 HS)</text>
<text xml:space="preserve" text-anchor="start" x="152.62" y="-264.3" font-family="Helvetica,sans-Serif" font-size="11.00" fill="white">Modifier: </text>
<text xml:space="preserve" text-anchor="start" x="196.88" y="-264.3" font-family="Helvetica,sans-Serif" font-size="11.00" fill="#95d5b2">2.24</text>
<text xml:space="preserve" text-anchor="start" x="30.12" y="-243.3" font-family="Helvetica,sans-Serif" font-size="11.00" fill="#4ecdc4">50,000 tons</text>
<text xml:space="preserve" text-anchor="start" x="94.38" y="-243.3" font-family="Helvetica,sans-Serif" font-size="11.00" fill="white">(1000 HS)</text>
<text xml:space="preserve" text-anchor="start" x="152.62" y="-244.3" font-family="Helvetica,sans-Serif" font-size="11.00" fill="white">Modifier: </text>
<text xml:space="preserve" text-anchor="start" x="196.88" y="-244.3" font-family="Helvetica,sans-Serif" font-size="11.00" fill="#95d5b2">2.66</text>
</g>
<!-- medium&#45;&gt;large -->
<!-- imp1 -->
<g id="node5" class="node">
<title>imp1</title>
<path fill="#2d2d44" stroke="#4ecdc4" stroke-width="2" d="M212.5,-187C212.5,-187 35.5,-187 35.5,-187 29.5,-187 23.5,-181 23.5,-175 23.5,-175 23.5,-135 23.5,-135 23.5,-129 29.5,-123 35.5,-123 35.5,-123 212.5,-123 212.5,-123 218.5,-123 224.5,-129 224.5,-135 224.5,-135 224.5,-175 224.5,-175 224.5,-181 218.5,-187 212.5,-187"/>
<text xml:space="preserve" text-anchor="start" x="76" y="-168.55" font-family="Helvetica,sans-Serif" font-size="11.00" fill="#ff6b6b">Destroyers (2,000t):</text>
<text xml:space="preserve" text-anchor="start" x="35.5" y="-150.55" font-family="Helvetica,sans-Serif" font-size="11.00" fill="white">Jump drives are heavy relative to hull</text>
<text xml:space="preserve" text-anchor="start" x="66.62" y="-132.55" font-family="Helvetica,sans-Serif" font-size="11.00" fill="#4ecdc4">Consider: Jump tenders</text>
</g>
<!-- large&#45;&gt;imp1 -->
<!-- imp2 -->
<g id="node6" class="node">
<title>imp2</title>
<path fill="#2d2d44" stroke="#4ecdc4" stroke-width="2" d="M196.75,-80C196.75,-80 51.25,-80 51.25,-80 45.25,-80 39.25,-74 39.25,-68 39.25,-68 39.25,-28 39.25,-28 39.25,-22 45.25,-16 51.25,-16 51.25,-16 196.75,-16 196.75,-16 202.75,-16 208.75,-22 208.75,-28 208.75,-28 208.75,-68 208.75,-68 208.75,-74 202.75,-80 196.75,-80"/>
<text xml:space="preserve" text-anchor="start" x="73" y="-61.55" font-family="Helvetica,sans-Serif" font-size="11.00" fill="#95d5b2">Battleships (20,000t):</text>
<text xml:space="preserve" text-anchor="start" x="65.88" y="-43.55" font-family="Helvetica,sans-Serif" font-size="11.00" fill="white">Jump drives are efficient</text>
<text xml:space="preserve" text-anchor="start" x="51.25" y="-25.55" font-family="Helvetica,sans-Serif" font-size="11.00" fill="#4ecdc4">Consider: Self&#45;mounted drives</text>
</g>
<!-- imp1&#45;&gt;imp2 -->
</g>
</svg>
