<?xml version="1.0" encoding="UTF-8" standalone="no"?>
<!DOCTYPE svg PUBLIC "-//W3C//DTD SVG 1.1//EN"
 "http://www.w3.org/Graphics/SVG/1.1/DTD/svg11.dtd">
<!-- Generated by graphviz version 14.1.2 (20260124.0452)
 -->
<!-- Title: SquadronTransitConstraints Pages: 1 -->
<svg width="356pt" height="1453pt"
 viewBox="0.00 0.00 356.00 1453.00" xmlns="http://www.w3.org/2000/svg" xmlns:xlink="http://www.w3.org/1999/xlink">
<g id="graph0" class="graph" transform="scale(1 1) rotate(0) translate(4 1448.75)">
<title>SquadronTransitConstraints</title>
<polygon fill="#1a1a2e" stroke="none" points="-4,4 -4,-1448.75 352,-1448.75 352,4 -4,4"/>
<g id="clust1" class="cluster">
<title>cluster_count</title>
<path fill="#1a1a2e" stroke="#4ecdc4" d="M74,-1281.5C74,-1281.5 274,-1281.5 274,-1281.5 280,-1281.5 286,-1287.5 286,-1293.5 286,-1293.5 286,-1371 286,-1371 286,-1377 280,-1383 274,-1383 274,-1383 74,-1383 74,-1383 68,-1383 62,-1377 62,-1371 62,-1371 62,-1293.5 62,-1293.5 62,-1287.5 68,-1281.5 74,-1281.5"/>
<text xml:space="preserve" text-anchor="middle" x="174" y="-1365.7" font-family="Helvetica,sans-Serif" font-size="14.00" fill="#4ecdc4">Constraint 1: Ship Count</text>
</g>
<g id="clust2" class="cluster">
<title>cluster_tonnage</title>
<path fill="#1a1a2e" stroke="#4ecdc4" d="M68,-1172C68,-1172 280,-1172 280,-1172 286,-1172 292,-1178 292,-1184 292,-1184 292,-1261.5 292,-1261.5 292,-1267.5 286,-1273.5 280,-1273.5 280,-1273.5 68,-1273.5 68,-1273.5 62,-1273.5 56,-1267.5 56,-1261.5 56,-1261.5 56,-1184 56,-1184 56,-1178 62,-1172 68,-1172"/>
<text xml:space="preserve" text-anchor="middle" x="174" y="-1256.2" font-family="Helvetica,sans-Serif" font-size="14.00" fill="#4ecdc4">Constraint 2: Per&#45;Ship Tonnage</text>
</g>
<g id="clust3" class="cluster">
<title>cluster_valid</title>
<path fill="#1a1a2e" stroke="#95d5b2" d="M91,-801.25C91,-801.25 257,-801.25 257,-801.25 263,-801.25 269,-807.25 269,-813.25 269,-813.25 269,-1152 269,-1152 269,-1158 263,-1164 257,-1164 257,-1164 91,-1164 91,-1164 85,-1164 79,-1158 79,-1152 79,-1152 79,-813.25 79,-813.25 79,-807.25 85,-801.25 91,-801.25"/>
<text xml:space="preserve" text-anchor="middle" x="174" y="-1148.6" font-family="Helvetica,sans-Serif" font-size="12.00" fill="#95d5b2">VALID Squadron Composition</text>
</g>
<g id="clust4" class="cluster">
<title>cluster_invalid1</title>
<path fill="#1a1a2e" stroke="#ff6b6b" d="M87,-448.5C87,-448.5 261,-448.5 261,-448.5 267,-448.5 273,-454.5 273,-460.5 273,-460.5 273,-781.25 273,-781.25 273,-787.25 267,-793.25 261,-793.25 261,-793.25 87,-793.25 87,-793.25 81,-793.25 75,-787.25 75,-781.25 75,-781.25 75,-460.5 75,-460.5 75,-454.5 81,-448.5 87,-448.5"/>
<text xml:space="preserve" text-anchor="middle" x="174" y="-777.85" font-family="Helvetica,sans-Serif" font-size="12.00" fill="#ff6b6b">INVALID: Too Many Ships</text>
</g>
<g id="clust5" class="cluster">
<title>cluster_invalid2</title>
<path fill="#1a1a2e" stroke="#ff6b6b" d="M87,-117.75C87,-117.75 262,-117.75 262,-117.75 268,-117.75 274,-123.75 274,-129.75 274,-129.75 274,-428.5 274,-428.5 274,-434.5 268,-440.5 262,-440.5 262,-440.5 87,-440.5 87,-440.5 81,-440.5 75,-434.5 75,-428.5 75,-428.5 75,-129.75 75,-129.75 75,-123.75 81,-117.75 87,-117.75"/>
<text xml:space="preserve" text-anchor="middle" x="174.5" y="-425.1" font-family="Helvetica,sans-Serif" font-size="12.00" fill="#ff6b6b">INVALID: Ship Exceeds Capability</text>
</g>
<!-- title -->
<g id="node1" class="node">
<title>title</title>
<polygon fill="#2d2d44" stroke="none" stroke-width="2" points="311.62,-1444.75 36.38,-1444.75 36.38,-1395 311.62,-1395 311.62,-1444.75"/>
<text xml:space="preserve" text-anchor="start" x="48.38" y="-1421.55" font-family="Helvetica,sans-Serif" font-size="16.00" fill="#ffe66d">Squadron Transit: Dual Constraints</text>
<text xml:space="preserve" text-anchor="start" x="77.25" y="-1404.75" font-family="Helvetica,sans-Serif" font-size="10.00" fill="white">Both constraints must be satisfied for transit</text>
</g>
<!-- count_rule -->
<g id="node2" class="node">
<title>count_rule</title>
<path fill="#2d2d44" stroke="#4ecdc4" stroke-width="2" d="M266.25,-1352C266.25,-1352 81.75,-1352 81.75,-1352 75.75,-1352 69.75,-1346 69.75,-1340 69.75,-1340 69.75,-1301.5 69.75,-1301.5 69.75,-1295.5 75.75,-1289.5 81.75,-1289.5 81.75,-1289.5 266.25,-1289.5 266.25,-1289.5 272.25,-1289.5 278.25,-1295.5 278.25,-1301.5 278.25,-1301.5 278.25,-1340 278.25,-1340 278.25,-1346 272.25,-1352 266.25,-1352"/>
<text xml:space="preserve" text-anchor="start" x="97.5" y="-1333.55" font-family="Helvetica,sans-Serif" font-size="11.00" fill="white">Maximum ships per transit: 3&#45;12</text>
<text xml:space="preserve" text-anchor="start" x="81.75" y="-1316.5" font-family="Helvetica,sans-Serif" font-size="10.00" fill="#4ecdc4">(determined by Squadron Size technology)</text>
<text xml:space="preserve" text-anchor="start" x="98.62" y="-1299.25" font-family="Helvetica,sans-Serif" font-size="10.00" fill="#ffe66d">Count includes the jump ship itself</text>
</g>
<!-- title&#45;&gt;count_rule -->
<!-- tonnage_rule -->
<g id="node3" class="node">
<title>tonnage_rule</title>
<path fill="#2d2d44" stroke="#4ecdc4" stroke-width="2" d="M271.5,-1242.5C271.5,-1242.5 76.5,-1242.5 76.5,-1242.5 70.5,-1242.5 64.5,-1236.5 64.5,-1230.5 64.5,-1230.5 64.5,-1192 64.5,-1192 64.5,-1186 70.5,-1180 76.5,-1180 76.5,-1180 271.5,-1180 271.5,-1180 277.5,-1180 283.5,-1186 283.5,-1192 283.5,-1192 283.5,-1230.5 283.5,-1230.5 283.5,-1236.5 277.5,-1242.5 271.5,-1242.5"/>
<text xml:space="preserve" text-anchor="start" x="76.5" y="-1224.05" font-family="Helvetica,sans-Serif" font-size="11.00" fill="white">Each ship must fit within Jump Capability</text>
<text xml:space="preserve" text-anchor="start" x="109.88" y="-1207" font-family="Helvetica,sans-Serif" font-size="10.00" fill="#4ecdc4">(set during jump drive design)</text>
<text xml:space="preserve" text-anchor="start" x="115.5" y="-1189.75" font-family="Helvetica,sans-Serif" font-size="10.00" fill="#ffe66d">No aggregate tonnage limit</text>
</g>
<!-- count_rule&#45;&gt;tonnage_rule -->
<!-- valid_jump -->
<g id="node4" class="node">
<title>valid_jump</title>
<path fill="#2d2d44" stroke="#4ecdc4" stroke-width="2" d="M233.25,-1135.25C233.25,-1135.25 114.75,-1135.25 114.75,-1135.25 108.75,-1135.25 102.75,-1129.25 102.75,-1123.25 102.75,-1123.25 102.75,-1083.25 102.75,-1083.25 102.75,-1077.25 108.75,-1071.25 114.75,-1071.25 114.75,-1071.25 233.25,-1071.25 233.25,-1071.25 239.25,-1071.25 245.25,-1077.25 245.25,-1083.25 245.25,-1083.25 245.25,-1123.25 245.25,-1123.25 245.25,-1129.25 239.25,-1135.25 233.25,-1135.25"/>
<text xml:space="preserve" text-anchor="start" x="148.5" y="-1116.8" font-family="Helvetica,sans-Serif" font-size="11.00" fill="#ffe66d">Jump Ship</text>
<text xml:space="preserve" text-anchor="start" x="132.38" y="-1098.8" font-family="Helvetica,sans-Serif" font-size="11.00" fill="white">Squadron Size: 5</text>
<text xml:space="preserve" text-anchor="start" x="114.75" y="-1080.8" font-family="Helvetica,sans-Serif" font-size="11.00" fill="white">Jump Capability: 10,000t</text>
</g>
<!-- tonnage_rule&#45;&gt;valid_jump -->
<!-- valid_ships -->
<g id="node5" class="node">
<title>valid_ships</title>
<path fill="#2d2d44" stroke="#4ecdc4" stroke-width="2" d="M248.75,-1028.25C248.75,-1028.25 99.25,-1028.25 99.25,-1028.25 93.25,-1028.25 87.25,-1022.25 87.25,-1016.25 87.25,-1016.25 87.25,-928.25 87.25,-928.25 87.25,-922.25 93.25,-916.25 99.25,-916.25 99.25,-916.25 248.75,-916.25 248.75,-916.25 254.75,-916.25 260.75,-922.25 260.75,-928.25 260.75,-928.25 260.75,-1016.25 260.75,-1016.25 260.75,-1022.25 254.75,-1028.25 248.75,-1028.25"/>
<text xml:space="preserve" text-anchor="start" x="101.25" y="-1007.8" font-family="Helvetica,sans-Serif" font-size="11.00" fill="#95d5b2">Fleet (4 ships + jump ship = 5)</text>
<text xml:space="preserve" text-anchor="start" x="109.58" y="-987.8" font-family="Helvetica,sans-Serif" font-size="11.00" fill="white">Ship 1:</text>
<text xml:space="preserve" text-anchor="start" x="168" y="-987.8" font-family="Helvetica,sans-Serif" font-size="11.00" fill="white">8,000t</text>
<text xml:space="preserve" text-anchor="start" x="222.67" y="-987.8" font-family="Helvetica,sans-Serif" font-size="11.00" fill="#95d5b2">OK</text>
<text xml:space="preserve" text-anchor="start" x="109.58" y="-967.8" font-family="Helvetica,sans-Serif" font-size="11.00" fill="white">Ship 2:</text>
<text xml:space="preserve" text-anchor="start" x="168" y="-967.8" font-family="Helvetica,sans-Serif" font-size="11.00" fill="white">6,500t</text>
<text xml:space="preserve" text-anchor="start" x="222.67" y="-967.8" font-family="Helvetica,sans-Serif" font-size="11.00" fill="#95d5b2">OK</text>
<text xml:space="preserve" text-anchor="start" x="109.58" y="-947.8" font-family="Helvetica,sans-Serif" font-size="11.00" fill="white">Ship 3:</text>
<text xml:space="preserve" text-anchor="start" x="168" y="-947.8" font-family="Helvetica,sans-Serif" font-size="11.00" fill="white">9,000t</text>
<text xml:space="preserve" text-anchor="start" x="222.67" y="-947.8" font-family="Helvetica,sans-Serif" font-size="11.00" fill="#95d5b2">OK</text>
<text xml:space="preserve" text-anchor="start" x="109.58" y="-927.8" font-family="Helvetica,sans-Serif" font-size="11.00" fill="white">Ship 4:</text>
<text xml:space="preserve" text-anchor="start" x="168" y="-927.8" font-family="Helvetica,sans-Serif" font-size="11.00" fill="white">7,500t</text>
<text xml:space="preserve" text-anchor="start" x="222.67" y="-927.8" font-family="Helvetica,sans-Serif" font-size="11.00" fill="#95d5b2">OK</text>
</g>
<!-- valid_jump&#45;&gt;valid_ships -->
<!-- valid_check -->
<g id="node6" class="node">
<title>valid_check</title>
<path fill="#2d2d44" stroke="#95d5b2" stroke-width="2" d="M226.12,-873.25C226.12,-873.25 121.88,-873.25 121.88,-873.25 115.88,-873.25 109.88,-867.25 109.88,-861.25 109.88,-861.25 109.88,-821.25 109.88,-821.25 109.88,-815.25 115.88,-809.25 121.88,-809.25 121.88,-809.25 226.12,-809.25 226.12,-809.25 232.12,-809.25 238.12,-815.25 238.12,-821.25 238.12,-821.25 238.12,-861.25 238.12,-861.25 238.12,-867.25 232.12,-873.25 226.12,-873.25"/>
<text xml:space="preserve" text-anchor="start" x="129.75" y="-854.8" font-family="Helvetica,sans-Serif" font-size="11.00" fill="#95d5b2">Ship count: 5 &lt;= 5</text>
<text xml:space="preserve" text-anchor="start" x="126.38" y="-836.8" font-family="Helvetica,sans-Serif" font-size="11.00" fill="#95d5b2">All ships &lt;= 10,000t</text>
<text xml:space="preserve" text-anchor="start" x="121.88" y="-818.8" font-family="Helvetica,sans-Serif" font-size="11.00" fill="#95d5b2">TRANSIT ALLOWED</text>
</g>
<!-- valid_ships&#45;&gt;valid_check -->
<!-- inv1_jump -->
<g id="node7" class="node">
<title>inv1_jump</title>
<path fill="#2d2d44" stroke="#4ecdc4" stroke-width="2" d="M233.25,-764.5C233.25,-764.5 114.75,-764.5 114.75,-764.5 108.75,-764.5 102.75,-758.5 102.75,-752.5 102.75,-752.5 102.75,-712.5 102.75,-712.5 102.75,-706.5 108.75,-700.5 114.75,-700.5 114.75,-700.5 233.25,-700.5 233.25,-700.5 239.25,-700.5 245.25,-706.5 245.25,-712.5 245.25,-712.5 245.25,-752.5 245.25,-752.5 245.25,-758.5 239.25,-764.5 233.25,-764.5"/>
<text xml:space="preserve" text-anchor="start" x="148.5" y="-746.05" font-family="Helvetica,sans-Serif" font-size="11.00" fill="#ffe66d">Jump Ship</text>
<text xml:space="preserve" text-anchor="start" x="132.38" y="-728.05" font-family="Helvetica,sans-Serif" font-size="11.00" fill="white">Squadron Size: 3</text>
<text xml:space="preserve" text-anchor="start" x="114.75" y="-710.05" font-family="Helvetica,sans-Serif" font-size="11.00" fill="white">Jump Capability: 10,000t</text>
</g>
<!-- valid_check&#45;&gt;inv1_jump -->
<!-- inv1_ships -->
<g id="node8" class="node">
<title>inv1_ships</title>
<path fill="#2d2d44" stroke="#4ecdc4" stroke-width="2" d="M253,-657.5C253,-657.5 95,-657.5 95,-657.5 89,-657.5 83,-651.5 83,-645.5 83,-645.5 83,-557.5 83,-557.5 83,-551.5 89,-545.5 95,-545.5 95,-545.5 253,-545.5 253,-545.5 259,-545.5 265,-551.5 265,-557.5 265,-557.5 265,-645.5 265,-645.5 265,-651.5 259,-657.5 253,-657.5"/>
<text xml:space="preserve" text-anchor="start" x="101.25" y="-637.05" font-family="Helvetica,sans-Serif" font-size="11.00" fill="#ff6b6b">Fleet (4 ships + jump ship = 5)</text>
<text xml:space="preserve" text-anchor="start" x="97" y="-617.05" font-family="Helvetica,sans-Serif" font-size="11.00" fill="white">Ship 1:</text>
<text xml:space="preserve" text-anchor="start" x="138.75" y="-617.05" font-family="Helvetica,sans-Serif" font-size="11.00" fill="white">5,000t</text>
<text xml:space="preserve" text-anchor="start" x="195.12" y="-617.05" font-family="Helvetica,sans-Serif" font-size="11.00" fill="#95d5b2">OK size</text>
<text xml:space="preserve" text-anchor="start" x="97" y="-597.05" font-family="Helvetica,sans-Serif" font-size="11.00" fill="white">Ship 2:</text>
<text xml:space="preserve" text-anchor="start" x="138.75" y="-597.05" font-family="Helvetica,sans-Serif" font-size="11.00" fill="white">5,000t</text>
<text xml:space="preserve" text-anchor="start" x="195.12" y="-597.05" font-family="Helvetica,sans-Serif" font-size="11.00" fill="#95d5b2">OK size</text>
<text xml:space="preserve" text-anchor="start" x="97" y="-577.05" font-family="Helvetica,sans-Serif" font-size="11.00" fill="white">Ship 3:</text>
<text xml:space="preserve" text-anchor="start" x="138.75" y="-577.05" font-family="Helvetica,sans-Serif" font-size="11.00" fill="white">5,000t</text>
<text xml:space="preserve" text-anchor="start" x="176.75" y="-577.05" font-family="Helvetica,sans-Serif" font-size="11.00" fill="#ff6b6b">OVER COUNT</text>
<text xml:space="preserve" text-anchor="start" x="97" y="-557.05" font-family="Helvetica,sans-Serif" font-size="11.00" fill="white">Ship 4:</text>
<text xml:space="preserve" text-anchor="start" x="138.75" y="-557.05" font-family="Helvetica,sans-Serif" font-size="11.00" fill="white">5,000t</text>
<text xml:space="preserve" text-anchor="start" x="176.75" y="-557.05" font-family="Helvetica,sans-Serif" font-size="11.00" fill="#ff6b6b">OVER COUNT</text>
</g>
<!-- inv1_jump&#45;&gt;inv1_ships -->
<!-- inv1_check -->
<g id="node9" class="node">
<title>inv1_check</title>
<path fill="#2d2d44" stroke="#ff6b6b" stroke-width="2" d="M220.88,-502.5C220.88,-502.5 127.12,-502.5 127.12,-502.5 121.12,-502.5 115.12,-496.5 115.12,-490.5 115.12,-490.5 115.12,-468.5 115.12,-468.5 115.12,-462.5 121.12,-456.5 127.12,-456.5 127.12,-456.5 220.88,-456.5 220.88,-456.5 226.88,-456.5 232.88,-462.5 232.88,-468.5 232.88,-468.5 232.88,-490.5 232.88,-490.5 232.88,-496.5 226.88,-502.5 220.88,-502.5"/>
<text xml:space="preserve" text-anchor="start" x="133.12" y="-484.05" font-family="Helvetica,sans-Serif" font-size="11.00" fill="#ff6b6b">Ship count: 5 &gt; 3</text>
<text xml:space="preserve" text-anchor="start" x="127.12" y="-466.05" font-family="Helvetica,sans-Serif" font-size="11.00" fill="#ff6b6b">TRANSIT DENIED</text>
</g>
<!-- inv1_ships&#45;&gt;inv1_check -->
<!-- inv2_jump -->
<g id="node10" class="node">
<title>inv2_jump</title>
<path fill="#2d2d44" stroke="#4ecdc4" stroke-width="2" d="M230.25,-411.75C230.25,-411.75 117.75,-411.75 117.75,-411.75 111.75,-411.75 105.75,-405.75 105.75,-399.75 105.75,-399.75 105.75,-359.75 105.75,-359.75 105.75,-353.75 111.75,-347.75 117.75,-347.75 117.75,-347.75 230.25,-347.75 230.25,-347.75 236.25,-347.75 242.25,-353.75 242.25,-359.75 242.25,-359.75 242.25,-399.75 242.25,-399.75 242.25,-405.75 236.25,-411.75 230.25,-411.75"/>
<text xml:space="preserve" text-anchor="start" x="148.5" y="-393.3" font-family="Helvetica,sans-Serif" font-size="11.00" fill="#ffe66d">Jump Ship</text>
<text xml:space="preserve" text-anchor="start" x="132.38" y="-375.3" font-family="Helvetica,sans-Serif" font-size="11.00" fill="white">Squadron Size: 5</text>
<text xml:space="preserve" text-anchor="start" x="117.75" y="-357.3" font-family="Helvetica,sans-Serif" font-size="11.00" fill="white">Jump Capability: 8,000t</text>
</g>
<!-- inv1_check&#45;&gt;inv2_jump -->
<!-- inv2_ships -->
<g id="node11" class="node">
<title>inv2_ships</title>
<path fill="#2d2d44" stroke="#4ecdc4" stroke-width="2" d="M250.75,-304.75C250.75,-304.75 97.25,-304.75 97.25,-304.75 91.25,-304.75 85.25,-298.75 85.25,-292.75 85.25,-292.75 85.25,-244.75 85.25,-244.75 85.25,-238.75 91.25,-232.75 97.25,-232.75 97.25,-232.75 250.75,-232.75 250.75,-232.75 256.75,-232.75 262.75,-238.75 262.75,-244.75 262.75,-244.75 262.75,-292.75 262.75,-292.75 262.75,-298.75 256.75,-304.75 250.75,-304.75"/>
<text xml:space="preserve" text-anchor="start" x="101.25" y="-284.3" font-family="Helvetica,sans-Serif" font-size="11.00" fill="#ff6b6b">Fleet (2 ships + jump ship = 3)</text>
<text xml:space="preserve" text-anchor="start" x="99.25" y="-264.3" font-family="Helvetica,sans-Serif" font-size="11.00" fill="white">Ship 1:</text>
<text xml:space="preserve" text-anchor="start" x="144" y="-264.3" font-family="Helvetica,sans-Serif" font-size="11.00" fill="white">6,000t</text>
<text xml:space="preserve" text-anchor="start" x="209" y="-264.3" font-family="Helvetica,sans-Serif" font-size="11.00" fill="#95d5b2">OK</text>
<text xml:space="preserve" text-anchor="start" x="99.25" y="-244.3" font-family="Helvetica,sans-Serif" font-size="11.00" fill="white">Ship 2:</text>
<text xml:space="preserve" text-anchor="start" x="141" y="-244.3" font-family="Helvetica,sans-Serif" font-size="11.00" fill="white">12,000t</text>
<text xml:space="preserve" text-anchor="start" x="185" y="-244.3" font-family="Helvetica,sans-Serif" font-size="11.00" fill="#ff6b6b">TOO LARGE</text>
</g>
<!-- inv2_jump&#45;&gt;inv2_ships -->
<!-- inv2_check -->
<g id="node12" class="node">
<title>inv2_check</title>
<path fill="#2d2d44" stroke="#ff6b6b" stroke-width="2" d="M231.75,-189.75C231.75,-189.75 116.25,-189.75 116.25,-189.75 110.25,-189.75 104.25,-183.75 104.25,-177.75 104.25,-177.75 104.25,-137.75 104.25,-137.75 104.25,-131.75 110.25,-125.75 116.25,-125.75 116.25,-125.75 231.75,-125.75 231.75,-125.75 237.75,-125.75 243.75,-131.75 243.75,-137.75 243.75,-137.75 243.75,-177.75 243.75,-177.75 243.75,-183.75 237.75,-189.75 231.75,-189.75"/>
<text xml:space="preserve" text-anchor="start" x="129.75" y="-171.3" font-family="Helvetica,sans-Serif" font-size="11.00" fill="#95d5b2">Ship count: 3 &lt;= 5</text>
<text xml:space="preserve" text-anchor="start" x="116.25" y="-153.3" font-family="Helvetica,sans-Serif" font-size="11.00" fill="#ff6b6b">Ship 2: 12,000t &gt; 8,000t</text>
<text xml:space="preserve" text-anchor="start" x="127.12" y="-135.3" font-family="Helvetica,sans-Serif" font-size="11.00" fill="#ff6b6b">TRANSIT DENIED</text>
</g>
<!-- inv2_ships&#45;&gt;inv2_check -->
<!-- insight -->
<g id="node13" class="node">
<title>insight</title>
<path fill="#2d2d44" stroke="#ffe66d" stroke-width="2" d="M336,-82.75C336,-82.75 12,-82.75 12,-82.75 6,-82.75 0,-76.75 0,-70.75 0,-70.75 0,-12 0,-12 0,-6 6,0 12,0 12,0 336,0 336,0 342,0 348,-6 348,-12 348,-12 348,-70.75 348,-70.75 348,-76.75 342,-82.75 336,-82.75"/>
<text xml:space="preserve" text-anchor="start" x="144.38" y="-63.35" font-family="Helvetica,sans-Serif" font-size="12.00" fill="#ffe66d">Key Insight</text>
<text xml:space="preserve" text-anchor="start" x="12" y="-45.55" font-family="Helvetica,sans-Serif" font-size="11.00" fill="white">Squadron transit is limited by ship COUNT and per&#45;ship TONNAGE</text>
<text xml:space="preserve" text-anchor="start" x="75" y="-27.55" font-family="Helvetica,sans-Serif" font-size="11.00" fill="white">There is NO aggregate tonnage multiplier</text>
<text xml:space="preserve" text-anchor="start" x="74.62" y="-9.55" font-family="Helvetica,sans-Serif" font-size="11.00" fill="#4ecdc4">One oversize ship blocks the entire transit</text>
</g>
<!-- inv2_check&#45;&gt;insight -->
</g>
</svg>
